# metre = block; Y up; per-cell coordinates; atlas UVs preserved
mtllib materials.mtl
o cell_34
usemtl pump_atlas
v 0.0000000 0.6994543 0.0641521
v 1.0000000 0.6994543 0.0641521
v 1.0000000 0.7776238 0.0000000
v 0.0000000 0.6994543 0.0641521
v 1.0000000 0.7776238 0.0000000
v 0.7416991 0.7776238 0.0000000
v 0.0000000 0.6994543 0.0641521
v 0.7416991 0.7776238 0.0000000
v 0.0000000 0.7209463 0.0465141
v 0.0000000 0.7209463 0.0465141
v 0.7416991 0.7776238 0.0000000
v 0.0000000 0.7776238 0.0000000
v 0.0000000 0.5821507 0.1268522
v 1.0000000 0.5821507 0.1268522
v 1.0000000 0.6938528 0.0671461
v 0.0000000 0.5821507 0.1268522
v 1.0000000 0.6938528 0.0671461
v 0.0000000 0.6066707 0.1137460
v 0.0000000 0.6066707 0.1137460
v 1.0000000 0.6938528 0.0671461
v 1.0000000 0.6994543 0.0641521
v 0.0000000 0.6066707 0.1137460
v 1.0000000 0.6994543 0.0641521
v 0.0000000 0.6994543 0.0641521
v 0.0000000 0.4548687 0.1654628
v 1.0000000 0.4548687 0.1654628
v 1.0000000 0.5760728 0.1286959
v 0.0000000 0.4548687 0.1654628
v 1.0000000 0.5760728 0.1286959
v 0.0000000 0.4814745 0.1573920
v 0.0000000 0.4814745 0.1573920
v 1.0000000 0.5760728 0.1286959
v 1.0000000 0.5821507 0.1268522
v 0.0000000 0.4814745 0.1573920
v 1.0000000 0.5821507 0.1268522
v 0.0000000 0.5821507 0.1268522
v 0.0000000 0.3225000 0.1784999
v 1.0000000 0.3225000 0.1784999
v 1.0000000 0.4485479 0.1660853
v 0.0000000 0.3225000 0.1784999
v 1.0000000 0.4485479 0.1660853
v 0.0000000 0.3501690 0.1757748
v 0.0000000 0.3501690 0.1757748
v 1.0000000 0.4485479 0.1660853
v 1.0000000 0.4548687 0.1654628
v 0.0000000 0.3501690 0.1757748
v 1.0000000 0.4548687 0.1654628
v 0.0000000 0.4548687 0.1654628
v 0.0000000 0.1901312 0.1654628
v 1.0000000 0.1901312 0.1654628
v 1.0000000 0.1964520 0.1660853
v 0.0000000 0.1901312 0.1654628
v 1.0000000 0.1964520 0.1660853
v 0.0000000 0.2948309 0.1757748
v 0.0000000 0.2948309 0.1757748
v 1.0000000 0.1964520 0.1660853
v 1.0000000 0.3225000 0.1784999
v 0.0000000 0.2948309 0.1757748
v 1.0000000 0.3225000 0.1784999
v 0.0000000 0.3225000 0.1784999
v 0.0000000 0.0628493 0.1268522
v 1.0000000 0.0628493 0.1268522
v 1.0000000 0.0689272 0.1286959
v 0.0000000 0.0628493 0.1268522
v 1.0000000 0.0689272 0.1286959
v 0.0000000 0.1635255 0.1573920
v 0.0000000 0.1635255 0.1573920
v 1.0000000 0.0689272 0.1286959
v 1.0000000 0.1901312 0.1654628
v 0.0000000 0.1635255 0.1573920
v 1.0000000 0.1901312 0.1654628
v 0.0000000 0.1901312 0.1654628
v 0.4396457 0.0000000 0.0932586
v 0.0000000 0.0383293 0.1137460
v 0.0000000 0.0000000 0.0932586
v 0.0000000 0.0383293 0.1137460
v 0.4396457 0.0000000 0.0932586
v 1.0000000 0.0000000 0.0932586
v 0.0000000 0.0383293 0.1137460
v 1.0000000 0.0000000 0.0932586
v 1.0000000 0.0628493 0.1268522
v 0.0000000 0.0383293 0.1137460
v 1.0000000 0.0628493 0.1268522
v 0.0000000 0.0628493 0.1268522
v 0.0000000 0.0987085 0.1292156
v 1.0000000 0.0987085 0.1292156
v 1.0000000 0.0985214 0.1293110
v 0.0000000 0.0987085 0.1292156
v 1.0000000 0.0985214 0.1293110
v 0.0000000 0.0941077 0.1315598
v 0.0000000 0.0941077 0.1315598
v 1.0000000 0.0985214 0.1293110
v 1.0000000 0.0929121 0.1321690
v 0.0000000 0.0941077 0.1315598
v 1.0000000 0.0929121 0.1321690
v 0.0000000 0.0929121 0.1321690
v 0.0000000 0.1366607 0.1463838
v 1.0000000 0.1366607 0.1463838
v 1.0000000 0.1365654 0.1461967
v 0.0000000 0.1366607 0.1463838
v 1.0000000 0.1365654 0.1461967
v 0.0000000 0.1343166 0.1417830
v 0.0000000 0.1343166 0.1417830
v 1.0000000 0.1365654 0.1461967
v 1.0000000 0.1337074 0.1405874
v 0.0000000 0.1343166 0.1417830
v 1.0000000 0.1337074 0.1405874
v 0.0000000 0.1337074 0.1405874
v 0.0000000 0.0691024 0.2054479
v 1.0000000 0.0691024 0.2054479
v 1.0000000 0.0719604 0.2110571
v 0.0000000 0.0691024 0.2054479
v 1.0000000 0.0719604 0.2110571
v 0.0000000 0.0697116 0.2066435
v 0.0000000 0.0697116 0.2066435
v 1.0000000 0.0719604 0.2110571
v 1.0000000 0.0720557 0.2112442
v 0.0000000 0.0697116 0.2066435
v 1.0000000 0.0720557 0.2112442
v 0.0000000 0.0720557 0.2112442
v 0.0000000 0.1070546 0.2226161
v 1.0000000 0.1070546 0.2226161
v 1.0000000 0.1126639 0.2197581
v 0.0000000 0.1070546 0.2226161
v 1.0000000 0.1126639 0.2197581
v 0.0000000 0.1082502 0.2220069
v 0.0000000 0.1082502 0.2220069
v 1.0000000 0.1126639 0.2197581
v 1.0000000 0.1128510 0.2196627
v 0.0000000 0.1082502 0.2220069
v 1.0000000 0.1128510 0.2196627
v 0.0000000 0.1128510 0.2196627
v 0.0000000 0.0929121 0.1321690
v 1.0000000 0.0929121 0.1321690
v 1.0000000 0.0698711 0.2030821
v 0.0000000 0.0929121 0.1321690
v 1.0000000 0.0698711 0.2030821
v 0.0000000 0.0880008 0.1472846
v 0.0000000 0.0880008 0.1472846
v 1.0000000 0.0698711 0.2030821
v 1.0000000 0.0691024 0.2054479
v 0.0000000 0.0880008 0.1472846
v 1.0000000 0.0691024 0.2054479
v 0.0000000 0.0691024 0.2054479
v 0.0000000 0.1337074 0.1405874
v 1.0000000 0.1337074 0.1405874
v 1.0000000 0.1325775 0.1402203
v 0.0000000 0.1337074 0.1405874
v 1.0000000 0.1325775 0.1402203
v 0.0000000 0.1059279 0.1315613
v 0.0000000 0.1059279 0.1315613
v 1.0000000 0.1325775 0.1402203
v 1.0000000 0.0987085 0.1292156
v 0.0000000 0.1059279 0.1315613
v 1.0000000 0.0987085 0.1292156
v 0.0000000 0.0987085 0.1292156
v 0.0000000 0.1128510 0.2196627
v 1.0000000 0.1128510 0.2196627
v 1.0000000 0.1136197 0.2172969
v 0.0000000 0.1128510 0.2196627
v 1.0000000 0.1136197 0.2172969
v 0.0000000 0.1317494 0.1614994
v 0.0000000 0.1317494 0.1614994
v 1.0000000 0.1136197 0.2172969
v 1.0000000 0.1366607 0.1463838
v 0.0000000 0.1317494 0.1614994
v 1.0000000 0.1366607 0.1463838
v 0.0000000 0.1366607 0.1463838
v 0.0000000 0.0720557 0.2112442
v 1.0000000 0.0720557 0.2112442
v 1.0000000 0.1059247 0.2222490
v 0.0000000 0.0720557 0.2112442
v 1.0000000 0.1059247 0.2222490
v 0.0000000 0.0792751 0.2135899
v 0.0000000 0.0792751 0.2135899
v 1.0000000 0.1059247 0.2222490
v 1.0000000 0.1070546 0.2226161
v 0.0000000 0.0792751 0.2135899
v 1.0000000 0.1070546 0.2226161
v 0.0000000 0.1070546 0.2226161
v 0.0000000 0.3041000 0.1675750
v 1.0000000 0.3041000 0.1675750
v 1.0000000 0.3039515 0.1677235
v 0.0000000 0.3041000 0.1675750
v 1.0000000 0.3039515 0.1677235
v 0.0000000 0.3004489 0.1712261
v 0.0000000 0.3004489 0.1712261
v 1.0000000 0.3039515 0.1677235
v 1.0000000 0.2995000 0.1721750
v 0.0000000 0.3004489 0.1712261
v 1.0000000 0.2995000 0.1721750
v 0.0000000 0.2995000 0.1721750
v 0.0000000 0.3455000 0.1721750
v 1.0000000 0.3455000 0.1721750
v 1.0000000 0.3453515 0.1720265
v 0.0000000 0.3455000 0.1721750
v 1.0000000 0.3453515 0.1720265
v 0.0000000 0.3418488 0.1685239
v 0.0000000 0.3418488 0.1685239
v 1.0000000 0.3453515 0.1720265
v 1.0000000 0.3408999 0.1675750
v 0.0000000 0.3418488 0.1685239
v 1.0000000 0.3408999 0.1675750
v 0.0000000 0.3408999 0.1675750
v 0.0000000 0.2995000 0.2492250
v 1.0000000 0.2995000 0.2492250
v 1.0000000 0.3039515 0.2536764
v 0.0000000 0.2995000 0.2492250
v 1.0000000 0.3039515 0.2536764
v 0.0000000 0.3004489 0.2501738
v 0.0000000 0.3004489 0.2501738
v 1.0000000 0.3039515 0.2536764
v 1.0000000 0.3041000 0.2538249
v 0.0000000 0.3004489 0.2501738
v 1.0000000 0.3041000 0.2538249
v 0.0000000 0.3041000 0.2538249
v 0.0000000 0.3408999 0.2538249
v 1.0000000 0.3408999 0.2538249
v 1.0000000 0.3453515 0.2493735
v 0.0000000 0.3408999 0.2538249
v 1.0000000 0.3453515 0.2493735
v 0.0000000 0.3418488 0.2528761
v 0.0000000 0.3418488 0.2528761
v 1.0000000 0.3453515 0.2493735
v 1.0000000 0.3455000 0.2492250
v 0.0000000 0.3418488 0.2528761
v 1.0000000 0.3455000 0.2492250
v 0.0000000 0.3455000 0.2492250
v 0.0000000 0.2995000 0.1721750
v 1.0000000 0.2995000 0.1721750
v 1.0000000 0.2995000 0.2467374
v 0.0000000 0.2995000 0.1721750
v 1.0000000 0.2995000 0.2467374
v 0.0000000 0.2995000 0.1880684
v 0.0000000 0.2995000 0.1880684
v 1.0000000 0.2995000 0.2467374
v 1.0000000 0.2995000 0.2492250
v 0.0000000 0.2995000 0.1880684
v 1.0000000 0.2995000 0.2492250
v 0.0000000 0.2995000 0.2492250
v 0.0000000 0.3408999 0.1675750
v 1.0000000 0.3408999 0.1675750
v 1.0000000 0.3397118 0.1675750
v 0.0000000 0.3408999 0.1675750
v 1.0000000 0.3397118 0.1675750
v 0.0000000 0.3116909 0.1675750
v 0.0000000 0.3116909 0.1675750
v 1.0000000 0.3397118 0.1675750
v 1.0000000 0.3041000 0.1675750
v 0.0000000 0.3116909 0.1675750
v 1.0000000 0.3041000 0.1675750
v 0.0000000 0.3041000 0.1675750
v 0.0000000 0.3455000 0.2492250
v 1.0000000 0.3455000 0.2492250
v 1.0000000 0.3455000 0.2467374
v 0.0000000 0.3455000 0.2492250
v 1.0000000 0.3455000 0.2467374
v 0.0000000 0.3455000 0.1880684
v 0.0000000 0.3455000 0.1880684
v 1.0000000 0.3455000 0.2467374
v 1.0000000 0.3455000 0.1721750
v 0.0000000 0.3455000 0.1880684
v 1.0000000 0.3455000 0.1721750
v 0.0000000 0.3455000 0.1721750
v 0.0000000 0.3041000 0.2538249
v 1.0000000 0.3041000 0.2538249
v 1.0000000 0.3397118 0.2538249
v 0.0000000 0.3041000 0.2538249
v 1.0000000 0.3397118 0.2538249
v 0.0000000 0.3116909 0.2538249
v 0.0000000 0.3116909 0.2538249
v 1.0000000 0.3397118 0.2538249
v 1.0000000 0.3408999 0.2538249
v 0.0000000 0.3116909 0.2538249
v 1.0000000 0.3408999 0.2538249
v 0.0000000 0.3408999 0.2538249
v 0.0000000 0.5112926 0.1405874
v 1.0000000 0.5112926 0.1405874
v 1.0000000 0.5111973 0.1407745
v 0.0000000 0.5112926 0.1405874
v 1.0000000 0.5111973 0.1407745
v 0.0000000 0.5089485 0.1451882
v 0.0000000 0.5089485 0.1451882
v 1.0000000 0.5111973 0.1407745
v 1.0000000 0.5083393 0.1463838
v 0.0000000 0.5089485 0.1451882
v 1.0000000 0.5083393 0.1463838
v 0.0000000 0.5083393 0.1463838
v 0.0000000 0.5520878 0.1321690
v 1.0000000 0.5520878 0.1321690
v 1.0000000 0.5519007 0.1320736
v 0.0000000 0.5520878 0.1321690
v 1.0000000 0.5519007 0.1320736
v 0.0000000 0.5474871 0.1298248
v 0.0000000 0.5474871 0.1298248
v 1.0000000 0.5519007 0.1320736
v 1.0000000 0.5462915 0.1292156
v 0.0000000 0.5474871 0.1298248
v 1.0000000 0.5462915 0.1292156
v 0.0000000 0.5462915 0.1292156
v 0.0000000 0.5321491 0.2196627
v 1.0000000 0.5321491 0.2196627
v 1.0000000 0.5377583 0.2225207
v 0.0000000 0.5321491 0.2196627
v 1.0000000 0.5377583 0.2225207
v 0.0000000 0.5333447 0.2202719
v 0.0000000 0.5333447 0.2202719
v 1.0000000 0.5377583 0.2225207
v 1.0000000 0.5379454 0.2226161
v 0.0000000 0.5333447 0.2202719
v 1.0000000 0.5379454 0.2226161
v 0.0000000 0.5379454 0.2226161
v 0.0000000 0.5729443 0.2112442
v 1.0000000 0.5729443 0.2112442
v 1.0000000 0.5758023 0.2056350
v 0.0000000 0.5729443 0.2112442
v 1.0000000 0.5758023 0.2056350
v 0.0000000 0.5735535 0.2100486
v 0.0000000 0.5735535 0.2100486
v 1.0000000 0.5758023 0.2056350
v 1.0000000 0.5758976 0.2054479
v 0.0000000 0.5735535 0.2100486
v 1.0000000 0.5758976 0.2054479
v 0.0000000 0.5758976 0.2054479
v 0.0000000 0.5083393 0.1463838
v 1.0000000 0.5083393 0.1463838
v 1.0000000 0.5313804 0.2172969
v 0.0000000 0.5083393 0.1463838
v 1.0000000 0.5313804 0.2172969
v 0.0000000 0.5132506 0.1614994
v 0.0000000 0.5132506 0.1614994
v 1.0000000 0.5313804 0.2172969
v 1.0000000 0.5321491 0.2196627
v 0.0000000 0.5132506 0.1614994
v 1.0000000 0.5321491 0.2196627
v 0.0000000 0.5321491 0.2196627
v 0.0000000 0.5462915 0.1292156
v 1.0000000 0.5462915 0.1292156
v 1.0000000 0.5451616 0.1295827
v 0.0000000 0.5462915 0.1292156
v 1.0000000 0.5451616 0.1295827
v 0.0000000 0.5185120 0.1382417
v 0.0000000 0.5185120 0.1382417
v 1.0000000 0.5451616 0.1295827
v 1.0000000 0.5112926 0.1405874
v 0.0000000 0.5185120 0.1382417
v 1.0000000 0.5112926 0.1405874
v 0.0000000 0.5112926 0.1405874
v 0.0000000 0.5758976 0.2054479
v 1.0000000 0.5758976 0.2054479
v 1.0000000 0.5751289 0.2030821
v 0.0000000 0.5758976 0.2054479
v 1.0000000 0.5751289 0.2030821
v 0.0000000 0.5569991 0.1472846
v 0.0000000 0.5569991 0.1472846
v 1.0000000 0.5751289 0.2030821
v 1.0000000 0.5520878 0.1321690
v 0.0000000 0.5569991 0.1472846
v 1.0000000 0.5520878 0.1321690
v 0.0000000 0.5520878 0.1321690
v 0.0000000 0.5379454 0.2226161
v 1.0000000 0.5379454 0.2226161
v 1.0000000 0.5718144 0.2116113
v 0.0000000 0.5379454 0.2226161
v 1.0000000 0.5718144 0.2116113
v 0.0000000 0.5451648 0.2202704
v 0.0000000 0.5451648 0.2202704
v 1.0000000 0.5718144 0.2116113
v 1.0000000 0.5729443 0.2112442
v 0.0000000 0.5451648 0.2202704
v 1.0000000 0.5729443 0.2112442
v 0.0000000 0.5729443 0.2112442
v 0.0000000 0.7000048 0.0508947
v 1.0000000 0.7000048 0.0508947
v 1.0000000 0.6999719 0.0511021
v 0.0000000 0.7000048 0.0508947
v 1.0000000 0.6999719 0.0511021
v 0.0000000 0.6991970 0.0559946
v 0.0000000 0.6991970 0.0559946
v 1.0000000 0.6999719 0.0511021
v 1.0000000 0.6989871 0.0573200
v 0.0000000 0.6991970 0.0559946
v 1.0000000 0.6989871 0.0573200
v 0.0000000 0.6989871 0.0573200
v 0.0000000 0.7362019 0.0302819
v 1.0000000 0.7362019 0.0302819
v 1.0000000 0.7359945 0.0302490
v 0.0000000 0.7362019 0.0302819
v 1.0000000 0.7359945 0.0302490
v 0.0000000 0.7311020 0.0294741
v 0.0000000 0.7311020 0.0294741
v 1.0000000 0.7359945 0.0302490
v 1.0000000 0.7297766 0.0292642
v 0.0000000 0.7311020 0.0294741
v 1.0000000 0.7297766 0.0292642
v 0.0000000 0.7297766 0.0292642
v 0.0000000 0.7442759 0.1196548
v 1.0000000 0.7442759 0.1196548
v 1.0000000 0.7504938 0.1206396
v 0.0000000 0.7442759 0.1196548
v 1.0000000 0.7504938 0.1206396
v 0.0000000 0.7456013 0.1198647
v 0.0000000 0.7456013 0.1198647
v 1.0000000 0.7504938 0.1206396
v 1.0000000 0.7507012 0.1206725
v 0.0000000 0.7456013 0.1198647
v 1.0000000 0.7507012 0.1206725
v 0.0000000 0.7507012 0.1206725
v 0.0000000 0.7804730 0.0990419
v 1.0000000 0.7804730 0.0990419
v 1.0000000 0.7814578 0.0928241
v 0.0000000 0.7804730 0.0990419
v 1.0000000 0.7814578 0.0928241
v 0.0000000 0.7806829 0.0977165
v 0.0000000 0.7806829 0.0977165
v 1.0000000 0.7814578 0.0928241
v 1.0000000 0.7814907 0.0926167
v 0.0000000 0.7806829 0.0977165
v 1.0000000 0.7814907 0.0926167
v 0.0000000 0.7814907 0.0926167
v 0.0000000 0.6989871 0.0573200
v 1.0000000 0.6989871 0.0573200
v 1.0000000 0.7428137 0.1176423
v 0.0000000 0.6989871 0.0573200
v 1.0000000 0.7428137 0.1176423
v 0.0000000 0.7083290 0.0701781
v 0.0000000 0.7083290 0.0701781
v 1.0000000 0.7428137 0.1176423
v 1.0000000 0.7442759 0.1196548
v 0.0000000 0.7083290 0.0701781
v 1.0000000 0.7442759 0.1196548
v 0.0000000 0.7442759 0.1196548
v 0.0000000 0.7297766 0.0292642
v 1.0000000 0.7297766 0.0292642
v 1.0000000 0.7288154 0.0299625
v 0.0000000 0.7297766 0.0292642
v 1.0000000 0.7288154 0.0299625
v 0.0000000 0.7061460 0.0464329
v 0.0000000 0.7061460 0.0464329
v 1.0000000 0.7288154 0.0299625
v 1.0000000 0.7000048 0.0508947
v 0.0000000 0.7061460 0.0464329
v 1.0000000 0.7000048 0.0508947
v 0.0000000 0.7000048 0.0508947
v 0.0000000 0.7814907 0.0926167
v 1.0000000 0.7814907 0.0926167
v 1.0000000 0.7800285 0.0906042
v 0.0000000 0.7814907 0.0926167
v 1.0000000 0.7800285 0.0906042
v 0.0000000 0.7455438 0.0431400
v 0.0000000 0.7455438 0.0431400
v 1.0000000 0.7800285 0.0906042
v 1.0000000 0.7362019 0.0302819
v 0.0000000 0.7455438 0.0431400
v 1.0000000 0.7362019 0.0302819
v 0.0000000 0.7362019 0.0302819
v 0.0000000 0.7507012 0.1206725
v 1.0000000 0.7507012 0.1206725
v 1.0000000 0.7795118 0.0997402
v 0.0000000 0.7507012 0.1206725
v 1.0000000 0.7795118 0.0997402
v 0.0000000 0.7568424 0.1162107
v 0.0000000 0.7568424 0.1162107
v 1.0000000 0.7795118 0.0997402
v 1.0000000 0.7804730 0.0990419
v 0.0000000 0.7568424 0.1162107
v 1.0000000 0.7804730 0.0990419
v 0.0000000 0.7804730 0.0990419
vt 0.4140296 0.0950529
vt 0.4797730 0.0950529
vt 0.4797730 0.1018035
vt 0.4140296 0.0950529
vt 0.4797730 0.1018035
vt 0.4627914 0.1018035
vt 0.4140296 0.0950529
vt 0.4627914 0.1018035
vt 0.4140296 0.0969089
vt 0.4140296 0.0969089
vt 0.4627914 0.1018035
vt 0.4140296 0.1018035
vt 0.4140296 0.0849229
vt 0.4797730 0.0849229
vt 0.4797730 0.0945692
vt 0.4140296 0.0849229
vt 0.4797730 0.0945692
vt 0.4140296 0.0870404
vt 0.4140296 0.0870404
vt 0.4797730 0.0945692
vt 0.4797730 0.0950529
vt 0.4140296 0.0870404
vt 0.4797730 0.0950529
vt 0.4140296 0.0950529
vt 0.4140296 0.0739311
vt 0.4797730 0.0739311
vt 0.4797730 0.0843980
vt 0.4140296 0.0739311
vt 0.4797730 0.0843980
vt 0.4140296 0.0762287
vt 0.4140296 0.0762287
vt 0.4797730 0.0843980
vt 0.4797730 0.0849229
vt 0.4140296 0.0762287
vt 0.4797730 0.0849229
vt 0.4140296 0.0849229
vt 0.4140296 0.0625000
vt 0.4797730 0.0625000
vt 0.4797730 0.0733852
vt 0.4140296 0.0625000
vt 0.4797730 0.0733852
vt 0.4140296 0.0648894
vt 0.4140296 0.0648894
vt 0.4797730 0.0733852
vt 0.4797730 0.0739311
vt 0.4140296 0.0648894
vt 0.4797730 0.0739311
vt 0.4140296 0.0739311
vt 0.4140296 0.0510689
vt 0.4797730 0.0510689
vt 0.4797730 0.0516148
vt 0.4140296 0.0510689
vt 0.4797730 0.0516148
vt 0.4140296 0.0601106
vt 0.4140296 0.0601106
vt 0.4797730 0.0516148
vt 0.4797730 0.0625000
vt 0.4140296 0.0601106
vt 0.4797730 0.0625000
vt 0.4140296 0.0625000
vt 0.4140296 0.0400771
vt 0.4797730 0.0400771
vt 0.4797730 0.0406020
vt 0.4140296 0.0400771
vt 0.4797730 0.0406020
vt 0.4140296 0.0487713
vt 0.4140296 0.0487713
vt 0.4797730 0.0406020
vt 0.4797730 0.0510689
vt 0.4140296 0.0487713
vt 0.4797730 0.0510689
vt 0.4140296 0.0510689
vt 0.4429334 0.0346496
vt 0.4140296 0.0379596
vt 0.4140296 0.0346496
vt 0.4140296 0.0379596
vt 0.4429334 0.0346496
vt 0.4797730 0.0346496
vt 0.4140296 0.0379596
vt 0.4797730 0.0346496
vt 0.4797730 0.0400771
vt 0.4140296 0.0379596
vt 0.4797730 0.0400771
vt 0.4140296 0.0400771
vt 0.4055629 0.0132996
vt 0.4920204 0.0155304
vt 0.4919258 0.0154484
vt 0.4055629 0.0132996
vt 0.4919258 0.0154484
vt 0.4032375 0.0112843
vt 0.4032375 0.0112843
vt 0.4919258 0.0154484
vt 0.4919258 0.0086441
vt 0.4032375 0.0112843
vt 0.4919258 0.0086441
vt 0.4032375 0.0098339
vt 0.4033185 0.1210938
vt 0.4919290 0.1210938
vt 0.4919290 0.1207155
vt 0.4033185 0.1210938
vt 0.4919290 0.1207155
vt 0.4033185 0.1117923
vt 0.4033185 0.1117923
vt 0.4919290 0.1207155
vt 0.4919291 0.1093750
vt 0.4033185 0.1117923
vt 0.4919291 0.1093750
vt 0.4033185 0.1093750
vt 0.4032375 0.1148437
vt 0.4919257 0.1148437
vt 0.4919257 0.1208920
vt 0.4032375 0.1148437
vt 0.4919257 0.1208920
vt 0.4032375 0.1161329
vt 0.4032375 0.1161329
vt 0.4919257 0.1208920
vt 0.4921725 0.1210938
vt 0.4032375 0.1161329
vt 0.4921725 0.1210938
vt 0.4093037 0.1210938
vt 0.4027352 0.1105836
vt 0.4891926 0.1150452
vt 0.4919290 0.1146671
vt 0.4027352 0.1105836
vt 0.4919290 0.1146671
vt 0.4033185 0.1105031
vt 0.4033185 0.1105031
vt 0.4919290 0.1146671
vt 0.4919290 0.1148437
vt 0.4033185 0.1105031
vt 0.4919290 0.1148437
vt 0.4033185 0.1148437
vt 0.4032375 0.0098339
vt 0.4919258 0.0086441
vt 0.4919257 0.1114638
vt 0.4032375 0.0098339
vt 0.4919257 0.1114638
vt 0.4032375 0.0317505
vt 0.4032375 0.0317505
vt 0.4919257 0.1114638
vt 0.4919257 0.1148437
vt 0.4032375 0.0317505
vt 0.4919257 0.1148437
vt 0.4032375 0.1148437
vt 0.4033185 0.1093750
vt 0.4919291 0.1093750
vt 0.4920204 0.1062537
vt 0.4033185 0.1093750
vt 0.4920204 0.1062537
vt 0.4055629 0.0326378
vt 0.4055629 0.0326378
vt 0.4920204 0.1062537
vt 0.4920204 0.0155304
vt 0.4055629 0.0326378
vt 0.4920204 0.0155304
vt 0.4055629 0.0132996
vt 0.4033185 0.1148437
vt 0.4919290 0.1148437
vt 0.4919290 0.1114638
vt 0.4033185 0.1148437
vt 0.4919290 0.1114638
vt 0.4033185 0.0317505
vt 0.4033185 0.0317505
vt 0.4919290 0.1114638
vt 0.4919290 0.0101562
vt 0.4033185 0.0317505
vt 0.4919290 0.0101562
vt 0.4033185 0.0101562
vt 0.4033185 0.0156250
vt 0.4919291 0.0156250
vt 0.4891926 0.1120185
vt 0.4033185 0.0156250
vt 0.4891926 0.1120185
vt 0.4027352 0.0361719
vt 0.4027352 0.0361719
vt 0.4891926 0.1120185
vt 0.4891926 0.1150452
vt 0.4027352 0.0361719
vt 0.4891926 0.1150452
vt 0.4027352 0.1105836
vt 0.4055629 0.0132996
vt 0.4920204 0.0155304
vt 0.4919258 0.0154484
vt 0.4055629 0.0132996
vt 0.4919258 0.0154484
vt 0.4032375 0.0112843
vt 0.4032375 0.0112843
vt 0.4919258 0.0154484
vt 0.4919258 0.0086441
vt 0.4032375 0.0112843
vt 0.4919258 0.0086441
vt 0.4032375 0.0098339
vt 0.4033185 0.1210938
vt 0.4919290 0.1210938
vt 0.4919290 0.1207155
vt 0.4033185 0.1210938
vt 0.4919290 0.1207155
vt 0.4033185 0.1117923
vt 0.4033185 0.1117923
vt 0.4919290 0.1207155
vt 0.4919291 0.1093750
vt 0.4033185 0.1117923
vt 0.4919291 0.1093750
vt 0.4033185 0.1093750
vt 0.4032375 0.1148437
vt 0.4919257 0.1148437
vt 0.4919257 0.1208920
vt 0.4032375 0.1148437
vt 0.4919257 0.1208920
vt 0.4032375 0.1161329
vt 0.4032375 0.1161329
vt 0.4919257 0.1208920
vt 0.4921725 0.1210938
vt 0.4032375 0.1161329
vt 0.4921725 0.1210938
vt 0.4093037 0.1210938
vt 0.4027352 0.1105836
vt 0.4891926 0.1150452
vt 0.4919290 0.1146671
vt 0.4027352 0.1105836
vt 0.4919290 0.1146671
vt 0.4033185 0.1105031
vt 0.4033185 0.1105031
vt 0.4919290 0.1146671
vt 0.4919290 0.1148437
vt 0.4033185 0.1105031
vt 0.4919290 0.1148437
vt 0.4033185 0.1148437
vt 0.4032375 0.0098339
vt 0.4919258 0.0086441
vt 0.4919257 0.1114638
vt 0.4032375 0.0098339
vt 0.4919257 0.1114638
vt 0.4032375 0.0317505
vt 0.4032375 0.0317505
vt 0.4919257 0.1114638
vt 0.4919257 0.1148437
vt 0.4032375 0.0317505
vt 0.4919257 0.1148437
vt 0.4032375 0.1148437
vt 0.4033185 0.1093750
vt 0.4919291 0.1093750
vt 0.4920204 0.1062537
vt 0.4033185 0.1093750
vt 0.4920204 0.1062537
vt 0.4055629 0.0326378
vt 0.4055629 0.0326378
vt 0.4920204 0.1062537
vt 0.4920204 0.0155304
vt 0.4055629 0.0326378
vt 0.4920204 0.0155304
vt 0.4055629 0.0132996
vt 0.4033185 0.1148437
vt 0.4919290 0.1148437
vt 0.4919290 0.1114638
vt 0.4033185 0.1148437
vt 0.4919290 0.1114638
vt 0.4033185 0.0317505
vt 0.4033185 0.0317505
vt 0.4919290 0.1114638
vt 0.4919290 0.0101562
vt 0.4033185 0.0317505
vt 0.4919290 0.0101562
vt 0.4033185 0.0101562
vt 0.4033185 0.0156250
vt 0.4919291 0.0156250
vt 0.4891926 0.1120185
vt 0.4033185 0.0156250
vt 0.4891926 0.1120185
vt 0.4027352 0.0361719
vt 0.4027352 0.0361719
vt 0.4891926 0.1120185
vt 0.4891926 0.1150452
vt 0.4027352 0.0361719
vt 0.4891926 0.1150452
vt 0.4027352 0.1105836
vt 0.4055629 0.0132996
vt 0.4920204 0.0155304
vt 0.4919258 0.0154484
vt 0.4055629 0.0132996
vt 0.4919258 0.0154484
vt 0.4032375 0.0112843
vt 0.4032375 0.0112843
vt 0.4919258 0.0154484
vt 0.4919258 0.0086441
vt 0.4032375 0.0112843
vt 0.4919258 0.0086441
vt 0.4032375 0.0098339
vt 0.4033185 0.1210938
vt 0.4919290 0.1210938
vt 0.4919290 0.1207155
vt 0.4033185 0.1210938
vt 0.4919290 0.1207155
vt 0.4033185 0.1117923
vt 0.4033185 0.1117923
vt 0.4919290 0.1207155
vt 0.4919291 0.1093750
vt 0.4033185 0.1117923
vt 0.4919291 0.1093750
vt 0.4033185 0.1093750
vt 0.4032375 0.1148437
vt 0.4919257 0.1148437
vt 0.4919257 0.1208920
vt 0.4032375 0.1148437
vt 0.4919257 0.1208920
vt 0.4032375 0.1161329
vt 0.4032375 0.1161329
vt 0.4919257 0.1208920
vt 0.4921725 0.1210938
vt 0.4032375 0.1161329
vt 0.4921725 0.1210938
vt 0.4093037 0.1210938
vt 0.4027352 0.1105836
vt 0.4891926 0.1150452
vt 0.4919290 0.1146671
vt 0.4027352 0.1105836
vt 0.4919290 0.1146671
vt 0.4033185 0.1105031
vt 0.4033185 0.1105031
vt 0.4919290 0.1146671
vt 0.4919290 0.1148437
vt 0.4033185 0.1105031
vt 0.4919290 0.1148437
vt 0.4033185 0.1148437
vt 0.4032375 0.0098339
vt 0.4919258 0.0086441
vt 0.4919257 0.1114638
vt 0.4032375 0.0098339
vt 0.4919257 0.1114638
vt 0.4032375 0.0317505
vt 0.4032375 0.0317505
vt 0.4919257 0.1114638
vt 0.4919257 0.1148437
vt 0.4032375 0.0317505
vt 0.4919257 0.1148437
vt 0.4032375 0.1148437
vt 0.4033185 0.1093750
vt 0.4919291 0.1093750
vt 0.4920204 0.1062537
vt 0.4033185 0.1093750
vt 0.4920204 0.1062537
vt 0.4055629 0.0326378
vt 0.4055629 0.0326378
vt 0.4920204 0.1062537
vt 0.4920204 0.0155304
vt 0.4055629 0.0326378
vt 0.4920204 0.0155304
vt 0.4055629 0.0132996
vt 0.4033185 0.1148437
vt 0.4919290 0.1148437
vt 0.4919290 0.1114638
vt 0.4033185 0.1148437
vt 0.4919290 0.1114638
vt 0.4033185 0.0317505
vt 0.4033185 0.0317505
vt 0.4919290 0.1114638
vt 0.4919290 0.0101562
vt 0.4033185 0.0317505
vt 0.4919290 0.0101562
vt 0.4033185 0.0101562
vt 0.4033185 0.0156250
vt 0.4919291 0.0156250
vt 0.4891926 0.1120185
vt 0.4033185 0.0156250
vt 0.4891926 0.1120185
vt 0.4027352 0.0361719
vt 0.4027352 0.0361719
vt 0.4891926 0.1120185
vt 0.4891926 0.1150452
vt 0.4027352 0.0361719
vt 0.4891926 0.1150452
vt 0.4027352 0.1105836
vt 0.4055629 0.0132996
vt 0.4920204 0.0155304
vt 0.4919258 0.0154484
vt 0.4055629 0.0132996
vt 0.4919258 0.0154484
vt 0.4032375 0.0112843
vt 0.4032375 0.0112843
vt 0.4919258 0.0154484
vt 0.4919258 0.0086441
vt 0.4032375 0.0112843
vt 0.4919258 0.0086441
vt 0.4032375 0.0098339
vt 0.4033185 0.1210938
vt 0.4919290 0.1210938
vt 0.4919290 0.1207155
vt 0.4033185 0.1210938
vt 0.4919290 0.1207155
vt 0.4033185 0.1117923
vt 0.4033185 0.1117923
vt 0.4919290 0.1207155
vt 0.4919291 0.1093750
vt 0.4033185 0.1117923
vt 0.4919291 0.1093750
vt 0.4033185 0.1093750
vt 0.4032375 0.1148437
vt 0.4919257 0.1148437
vt 0.4919257 0.1208920
vt 0.4032375 0.1148437
vt 0.4919257 0.1208920
vt 0.4032375 0.1161329
vt 0.4032375 0.1161329
vt 0.4919257 0.1208920
vt 0.4921725 0.1210938
vt 0.4032375 0.1161329
vt 0.4921725 0.1210938
vt 0.4093037 0.1210938
vt 0.4027352 0.1105836
vt 0.4891926 0.1150452
vt 0.4919290 0.1146671
vt 0.4027352 0.1105836
vt 0.4919290 0.1146671
vt 0.4033185 0.1105031
vt 0.4033185 0.1105031
vt 0.4919290 0.1146671
vt 0.4919290 0.1148437
vt 0.4033185 0.1105031
vt 0.4919290 0.1148437
vt 0.4033185 0.1148437
vt 0.4032375 0.0098339
vt 0.4919258 0.0086441
vt 0.4919257 0.1114638
vt 0.4032375 0.0098339
vt 0.4919257 0.1114638
vt 0.4032375 0.0317505
vt 0.4032375 0.0317505
vt 0.4919257 0.1114638
vt 0.4919257 0.1148437
vt 0.4032375 0.0317505
vt 0.4919257 0.1148437
vt 0.4032375 0.1148437
vt 0.4033185 0.1093750
vt 0.4919291 0.1093750
vt 0.4920204 0.1062537
vt 0.4033185 0.1093750
vt 0.4920204 0.1062537
vt 0.4055629 0.0326378
vt 0.4055629 0.0326378
vt 0.4920204 0.1062537
vt 0.4920204 0.0155304
vt 0.4055629 0.0326378
vt 0.4920204 0.0155304
vt 0.4055629 0.0132996
vt 0.4033185 0.1148437
vt 0.4919290 0.1148437
vt 0.4919290 0.1114638
vt 0.4033185 0.1148437
vt 0.4919290 0.1114638
vt 0.4033185 0.0317505
vt 0.4033185 0.0317505
vt 0.4919290 0.1114638
vt 0.4919290 0.0101562
vt 0.4033185 0.0317505
vt 0.4919290 0.0101562
vt 0.4033185 0.0101562
vt 0.4033185 0.0156250
vt 0.4919291 0.0156250
vt 0.4891926 0.1120185
vt 0.4033185 0.0156250
vt 0.4891926 0.1120185
vt 0.4027352 0.0361719
vt 0.4027352 0.0361719
vt 0.4891926 0.1120185
vt 0.4891926 0.1150452
vt 0.4027352 0.0361719
vt 0.4891926 0.1150452
vt 0.4027352 0.1105836
vn 0.0000000 0.5555704 0.8314695
vn 0.0000000 0.5555704 0.8314695
vn 0.0000000 0.6731409 0.7395143
vn 0.0000000 0.5555704 0.8314695
vn 0.0000000 0.6731409 0.7395143
vn 0.0000000 0.6731409 0.7395143
vn 0.0000000 0.5555704 0.8314695
vn 0.0000000 0.6731409 0.7395143
vn 0.0000000 0.5891205 0.8080452
vn 0.0000000 0.5891205 0.8080452
vn 0.0000000 0.6731409 0.7395143
vn 0.0000000 0.6731409 0.7395143
vn 0.0000000 0.3826838 0.9238794
vn 0.0000000 0.3826838 0.9238794
vn 0.0000000 0.5477936 0.8366135
vn 0.0000000 0.3826838 0.9238794
vn 0.0000000 0.5477936 0.8366135
vn 0.0000000 0.4201592 0.9074504
vn 0.0000000 0.4201592 0.9074504
vn 0.0000000 0.5477936 0.8366135
vn 0.0000000 0.5555704 0.8314695
vn 0.0000000 0.4201592 0.9074504
vn 0.0000000 0.5555704 0.8314695
vn 0.0000000 0.5555704 0.8314695
vn 0.0000000 0.1950903 0.9807853
vn 0.0000000 0.1950903 0.9807853
vn 0.0000000 0.3740528 0.9274074
vn 0.0000000 0.1950903 0.9807853
vn 0.0000000 0.3740528 0.9274074
vn 0.0000000 0.2350509 0.9719831
vn 0.0000000 0.2350509 0.9719831
vn 0.0000000 0.3740528 0.9274074
vn 0.0000000 0.3826838 0.9238794
vn 0.0000000 0.2350509 0.9719831
vn 0.0000000 0.3826838 0.9238794
vn 0.0000000 0.3826838 0.9238794
vn 0.0000000 0.0000000 1.0000000
vn 0.0000000 0.0000000 1.0000000
vn 0.0000000 0.1859369 0.9825617
vn 0.0000000 0.0000000 1.0000000
vn 0.0000000 0.1859369 0.9825617
vn 0.0000000 0.0409099 0.9991628
vn 0.0000000 0.0409099 0.9991628
vn 0.0000000 0.1859369 0.9825617
vn 0.0000000 0.1950903 0.9807853
vn 0.0000000 0.0409099 0.9991628
vn 0.0000000 0.1950903 0.9807853
vn 0.0000000 0.1950903 0.9807853
vn 0.0000000 -0.1950904 0.9807853
vn 0.0000000 -0.1950904 0.9807853
vn 0.0000000 -0.1859370 0.9825617
vn 0.0000000 -0.1950904 0.9807853
vn 0.0000000 -0.1859370 0.9825617
vn 0.0000000 -0.0409099 0.9991628
vn 0.0000000 -0.0409099 0.9991628
vn 0.0000000 -0.1859370 0.9825617
vn 0.0000000 0.0000000 1.0000000
vn 0.0000000 -0.0409099 0.9991628
vn 0.0000000 0.0000000 1.0000000
vn 0.0000000 0.0000000 1.0000000
vn 0.0000000 -0.3826836 0.9238795
vn 0.0000000 -0.3826836 0.9238795
vn 0.0000000 -0.3740527 0.9274075
vn 0.0000000 -0.3826836 0.9238795
vn 0.0000000 -0.3740527 0.9274075
vn 0.0000000 -0.2350509 0.9719831
vn 0.0000000 -0.2350509 0.9719831
vn 0.0000000 -0.3740527 0.9274075
vn 0.0000000 -0.1950904 0.9807853
vn 0.0000000 -0.2350509 0.9719831
vn 0.0000000 -0.1950904 0.9807853
vn 0.0000000 -0.1950904 0.9807853
vn 0.0000000 -0.4776013 0.8785767
vn 0.0000000 -0.4201591 0.9074505
vn 0.0000000 -0.4776013 0.8785767
vn 0.0000000 -0.4201591 0.9074505
vn 0.0000000 -0.4776013 0.8785767
vn 0.0000000 -0.4776013 0.8785767
vn 0.0000000 -0.4201591 0.9074505
vn 0.0000000 -0.4776013 0.8785767
vn 0.0000000 -0.3826836 0.9238795
vn 0.0000000 -0.4201591 0.9074505
vn 0.0000000 -0.3826836 0.9238795
vn 0.0000000 -0.3826836 0.9238795
vn 0.0000000 -0.4539904 -0.8910066
vn 0.0000000 -0.4539904 -0.8910066
vn 0.0000000 -0.4539904 -0.8910066
vn 0.0000000 -0.4539904 -0.8910066
vn 0.0000000 -0.4539904 -0.8910066
vn 0.0000000 -0.4539904 -0.8910066
vn 0.0000000 -0.4539904 -0.8910066
vn 0.0000000 -0.4539904 -0.8910066
vn 0.0000000 -0.4539904 -0.8910066
vn 0.0000000 -0.4539904 -0.8910066
vn 0.0000000 -0.4539904 -0.8910066
vn 0.0000000 -0.4539904 -0.8910066
vn 0.0000000 0.8910065 -0.4539905
vn 0.0000000 0.8910065 -0.4539905
vn 0.0000000 0.8910065 -0.4539905
vn 0.0000000 0.8910065 -0.4539905
vn 0.0000000 0.8910065 -0.4539905
vn 0.0000000 0.8910065 -0.4539905
vn 0.0000000 0.8910065 -0.4539905
vn 0.0000000 0.8910065 -0.4539905
vn 0.0000000 0.8910065 -0.4539905
vn 0.0000000 0.8910065 -0.4539905
vn 0.0000000 0.8910065 -0.4539905
vn 0.0000000 0.8910065 -0.4539905
vn 0.0000000 -0.8910065 0.4539905
vn 0.0000000 -0.8910065 0.4539905
vn 0.0000000 -0.8910065 0.4539905
vn 0.0000000 -0.8910065 0.4539905
vn 0.0000000 -0.8910065 0.4539905
vn 0.0000000 -0.8910065 0.4539905
vn 0.0000000 -0.8910065 0.4539905
vn 0.0000000 -0.8910065 0.4539905
vn 0.0000000 -0.8910065 0.4539905
vn 0.0000000 -0.8910065 0.4539905
vn 0.0000000 -0.8910065 0.4539905
vn 0.0000000 -0.8910065 0.4539905
vn 0.0000000 0.4539904 0.8910066
vn 0.0000000 0.4539904 0.8910066
vn 0.0000000 0.4539904 0.8910066
vn 0.0000000 0.4539904 0.8910066
vn 0.0000000 0.4539904 0.8910066
vn 0.0000000 0.4539904 0.8910066
vn 0.0000000 0.4539904 0.8910066
vn 0.0000000 0.4539904 0.8910066
vn 0.0000000 0.4539904 0.8910066
vn 0.0000000 0.4539904 0.8910066
vn 0.0000000 0.4539904 0.8910066
vn 0.0000000 0.4539904 0.8910066
vn 0.0000000 -0.9510565 -0.3090171
vn 0.0000000 -0.9510565 -0.3090171
vn 0.0000000 -0.9510565 -0.3090171
vn 0.0000000 -0.9510565 -0.3090171
vn 0.0000000 -0.9510565 -0.3090171
vn 0.0000000 -0.9510565 -0.3090171
vn 0.0000000 -0.9510565 -0.3090171
vn 0.0000000 -0.9510565 -0.3090171
vn 0.0000000 -0.9510565 -0.3090171
vn 0.0000000 -0.9510565 -0.3090171
vn 0.0000000 -0.9510565 -0.3090171
vn 0.0000000 -0.9510565 -0.3090171
vn 0.0000000 0.3090171 -0.9510565
vn 0.0000000 0.3090171 -0.9510565
vn 0.0000000 0.3090171 -0.9510565
vn 0.0000000 0.3090171 -0.9510565
vn 0.0000000 0.3090171 -0.9510565
vn 0.0000000 0.3090171 -0.9510565
vn 0.0000000 0.3090171 -0.9510565
vn 0.0000000 0.3090171 -0.9510565
vn 0.0000000 0.3090171 -0.9510565
vn 0.0000000 0.3090171 -0.9510565
vn 0.0000000 0.3090171 -0.9510565
vn 0.0000000 0.3090171 -0.9510565
vn 0.0000000 0.9510565 0.3090171
vn 0.0000000 0.9510565 0.3090171
vn 0.0000000 0.9510565 0.3090171
vn 0.0000000 0.9510565 0.3090171
vn 0.0000000 0.9510565 0.3090171
vn 0.0000000 0.9510565 0.3090171
vn 0.0000000 0.9510565 0.3090171
vn 0.0000000 0.9510565 0.3090171
vn 0.0000000 0.9510565 0.3090171
vn 0.0000000 0.9510565 0.3090171
vn 0.0000000 0.9510565 0.3090171
vn 0.0000000 0.9510565 0.3090171
vn 0.0000000 -0.3090171 0.9510565
vn 0.0000000 -0.3090171 0.9510565
vn 0.0000000 -0.3090171 0.9510565
vn 0.0000000 -0.3090171 0.9510565
vn 0.0000000 -0.3090171 0.9510565
vn 0.0000000 -0.3090171 0.9510565
vn 0.0000000 -0.3090171 0.9510565
vn 0.0000000 -0.3090171 0.9510565
vn 0.0000000 -0.3090171 0.9510565
vn 0.0000000 -0.3090171 0.9510565
vn 0.0000000 -0.3090171 0.9510565
vn 0.0000000 -0.3090171 0.9510565
vn 0.0000000 -0.7071068 -0.7071068
vn 0.0000000 -0.7071068 -0.7071068
vn 0.0000000 -0.7071068 -0.7071068
vn 0.0000000 -0.7071068 -0.7071068
vn 0.0000000 -0.7071068 -0.7071068
vn 0.0000000 -0.7071068 -0.7071068
vn 0.0000000 -0.7071068 -0.7071068
vn 0.0000000 -0.7071068 -0.7071068
vn 0.0000000 -0.7071068 -0.7071068
vn 0.0000000 -0.7071068 -0.7071068
vn 0.0000000 -0.7071068 -0.7071068
vn 0.0000000 -0.7071068 -0.7071068
vn 0.0000000 0.7071068 -0.7071068
vn 0.0000000 0.7071068 -0.7071068
vn 0.0000000 0.7071068 -0.7071068
vn 0.0000000 0.7071068 -0.7071068
vn 0.0000000 0.7071068 -0.7071068
vn 0.0000000 0.7071068 -0.7071068
vn 0.0000000 0.7071068 -0.7071068
vn 0.0000000 0.7071068 -0.7071068
vn 0.0000000 0.7071068 -0.7071068
vn 0.0000000 0.7071068 -0.7071068
vn 0.0000000 0.7071068 -0.7071068
vn 0.0000000 0.7071068 -0.7071068
vn 0.0000000 -0.7071068 0.7071068
vn 0.0000000 -0.7071068 0.7071068
vn 0.0000000 -0.7071068 0.7071068
vn 0.0000000 -0.7071068 0.7071068
vn 0.0000000 -0.7071068 0.7071068
vn 0.0000000 -0.7071068 0.7071068
vn 0.0000000 -0.7071068 0.7071068
vn 0.0000000 -0.7071068 0.7071068
vn 0.0000000 -0.7071068 0.7071068
vn 0.0000000 -0.7071068 0.7071068
vn 0.0000000 -0.7071068 0.7071068
vn 0.0000000 -0.7071068 0.7071068
vn 0.0000000 0.7071068 0.7071068
vn 0.0000000 0.7071068 0.7071068
vn 0.0000000 0.7071068 0.7071068
vn 0.0000000 0.7071068 0.7071068
vn 0.0000000 0.7071068 0.7071068
vn 0.0000000 0.7071068 0.7071068
vn 0.0000000 0.7071068 0.7071068
vn 0.0000000 0.7071068 0.7071068
vn 0.0000000 0.7071068 0.7071068
vn 0.0000000 0.7071068 0.7071068
vn 0.0000000 0.7071068 0.7071068
vn 0.0000000 0.7071068 0.7071068
vn 0.0000000 -1.0000000 0.0000000
vn 0.0000000 -1.0000000 0.0000000
vn 0.0000000 -1.0000000 0.0000000
vn 0.0000000 -1.0000000 0.0000000
vn 0.0000000 -1.0000000 0.0000000
vn 0.0000000 -1.0000000 0.0000000
vn 0.0000000 -1.0000000 0.0000000
vn 0.0000000 -1.0000000 0.0000000
vn 0.0000000 -1.0000000 0.0000000
vn 0.0000000 -1.0000000 0.0000000
vn 0.0000000 -1.0000000 0.0000000
vn 0.0000000 -1.0000000 0.0000000
vn 0.0000000 0.0000000 -1.0000000
vn 0.0000000 0.0000000 -1.0000000
vn 0.0000000 0.0000000 -1.0000000
vn 0.0000000 0.0000000 -1.0000000
vn 0.0000000 0.0000000 -1.0000000
vn 0.0000000 0.0000000 -1.0000000
vn 0.0000000 0.0000000 -1.0000000
vn 0.0000000 0.0000000 -1.0000000
vn 0.0000000 0.0000000 -1.0000000
vn 0.0000000 0.0000000 -1.0000000
vn 0.0000000 0.0000000 -1.0000000
vn 0.0000000 0.0000000 -1.0000000
vn 0.0000000 1.0000000 0.0000000
vn 0.0000000 1.0000000 0.0000000
vn 0.0000000 1.0000000 0.0000000
vn 0.0000000 1.0000000 0.0000000
vn 0.0000000 1.0000000 0.0000000
vn 0.0000000 1.0000000 0.0000000
vn 0.0000000 1.0000000 0.0000000
vn 0.0000000 1.0000000 0.0000000
vn 0.0000000 1.0000000 0.0000000
vn 0.0000000 1.0000000 0.0000000
vn 0.0000000 1.0000000 0.0000000
vn 0.0000000 1.0000000 0.0000000
vn 0.0000000 0.0000000 1.0000000
vn 0.0000000 0.0000000 1.0000000
vn 0.0000000 0.0000000 1.0000000
vn 0.0000000 0.0000000 1.0000000
vn 0.0000000 0.0000000 1.0000000
vn 0.0000000 0.0000000 1.0000000
vn 0.0000000 0.0000000 1.0000000
vn 0.0000000 0.0000000 1.0000000
vn 0.0000000 0.0000000 1.0000000
vn 0.0000000 0.0000000 1.0000000
vn 0.0000000 0.0000000 1.0000000
vn 0.0000000 0.0000000 1.0000000
vn 0.0000000 -0.8910066 -0.4539904
vn 0.0000000 -0.8910066 -0.4539904
vn 0.0000000 -0.8910066 -0.4539904
vn 0.0000000 -0.8910066 -0.4539904
vn 0.0000000 -0.8910066 -0.4539904
vn 0.0000000 -0.8910066 -0.4539904
vn 0.0000000 -0.8910066 -0.4539904
vn 0.0000000 -0.8910066 -0.4539904
vn 0.0000000 -0.8910066 -0.4539904
vn 0.0000000 -0.8910066 -0.4539904
vn 0.0000000 -0.8910066 -0.4539904
vn 0.0000000 -0.8910066 -0.4539904
vn 0.0000000 0.4539903 -0.8910066
vn 0.0000000 0.4539903 -0.8910066
vn 0.0000000 0.4539903 -0.8910066
vn 0.0000000 0.4539903 -0.8910066
vn 0.0000000 0.4539903 -0.8910066
vn 0.0000000 0.4539903 -0.8910066
vn 0.0000000 0.4539903 -0.8910066
vn 0.0000000 0.4539903 -0.8910066
vn 0.0000000 0.4539903 -0.8910066
vn 0.0000000 0.4539903 -0.8910066
vn 0.0000000 0.4539903 -0.8910066
vn 0.0000000 0.4539903 -0.8910066
vn 0.0000000 -0.4539903 0.8910066
vn 0.0000000 -0.4539903 0.8910066
vn 0.0000000 -0.4539903 0.8910066
vn 0.0000000 -0.4539903 0.8910066
vn 0.0000000 -0.4539903 0.8910066
vn 0.0000000 -0.4539903 0.8910066
vn 0.0000000 -0.4539903 0.8910066
vn 0.0000000 -0.4539903 0.8910066
vn 0.0000000 -0.4539903 0.8910066
vn 0.0000000 -0.4539903 0.8910066
vn 0.0000000 -0.4539903 0.8910066
vn 0.0000000 -0.4539903 0.8910066
vn 0.0000000 0.8910066 0.4539904
vn 0.0000000 0.8910066 0.4539904
vn 0.0000000 0.8910066 0.4539904
vn 0.0000000 0.8910066 0.4539904
vn 0.0000000 0.8910066 0.4539904
vn 0.0000000 0.8910066 0.4539904
vn 0.0000000 0.8910066 0.4539904
vn 0.0000000 0.8910066 0.4539904
vn 0.0000000 0.8910066 0.4539904
vn 0.0000000 0.8910066 0.4539904
vn 0.0000000 0.8910066 0.4539904
vn 0.0000000 0.8910066 0.4539904
vn 0.0000000 -0.9510565 0.3090171
vn 0.0000000 -0.9510565 0.3090171
vn 0.0000000 -0.9510565 0.3090171
vn 0.0000000 -0.9510565 0.3090171
vn 0.0000000 -0.9510565 0.3090171
vn 0.0000000 -0.9510565 0.3090171
vn 0.0000000 -0.9510565 0.3090171
vn 0.0000000 -0.9510565 0.3090171
vn 0.0000000 -0.9510565 0.3090171
vn 0.0000000 -0.9510565 0.3090171
vn 0.0000000 -0.9510565 0.3090171
vn 0.0000000 -0.9510565 0.3090171
vn 0.0000000 -0.3090171 -0.9510565
vn 0.0000000 -0.3090171 -0.9510565
vn 0.0000000 -0.3090171 -0.9510565
vn 0.0000000 -0.3090171 -0.9510565
vn 0.0000000 -0.3090171 -0.9510565
vn 0.0000000 -0.3090171 -0.9510565
vn 0.0000000 -0.3090171 -0.9510565
vn 0.0000000 -0.3090171 -0.9510565
vn 0.0000000 -0.3090171 -0.9510565
vn 0.0000000 -0.3090171 -0.9510565
vn 0.0000000 -0.3090171 -0.9510565
vn 0.0000000 -0.3090171 -0.9510565
vn 0.0000000 0.9510565 -0.3090171
vn 0.0000000 0.9510565 -0.3090171
vn 0.0000000 0.9510565 -0.3090171
vn 0.0000000 0.9510565 -0.3090171
vn 0.0000000 0.9510565 -0.3090171
vn 0.0000000 0.9510565 -0.3090171
vn 0.0000000 0.9510565 -0.3090171
vn 0.0000000 0.9510565 -0.3090171
vn 0.0000000 0.9510565 -0.3090171
vn 0.0000000 0.9510565 -0.3090171
vn 0.0000000 0.9510565 -0.3090171
vn 0.0000000 0.9510565 -0.3090171
vn 0.0000000 0.3090171 0.9510565
vn 0.0000000 0.3090171 0.9510565
vn 0.0000000 0.3090171 0.9510565
vn 0.0000000 0.3090171 0.9510565
vn 0.0000000 0.3090171 0.9510565
vn 0.0000000 0.3090171 0.9510565
vn 0.0000000 0.3090171 0.9510565
vn 0.0000000 0.3090171 0.9510565
vn 0.0000000 0.3090171 0.9510565
vn 0.0000000 0.3090171 0.9510565
vn 0.0000000 0.3090171 0.9510565
vn 0.0000000 0.3090171 0.9510565
vn 0.0000000 -0.9876883 -0.1564347
vn 0.0000000 -0.9876883 -0.1564347
vn 0.0000000 -0.9876883 -0.1564347
vn 0.0000000 -0.9876883 -0.1564347
vn 0.0000000 -0.9876883 -0.1564347
vn 0.0000000 -0.9876883 -0.1564347
vn 0.0000000 -0.9876883 -0.1564347
vn 0.0000000 -0.9876883 -0.1564347
vn 0.0000000 -0.9876883 -0.1564347
vn 0.0000000 -0.9876883 -0.1564347
vn 0.0000000 -0.9876883 -0.1564347
vn 0.0000000 -0.9876883 -0.1564347
vn 0.0000000 0.1564347 -0.9876883
vn 0.0000000 0.1564347 -0.9876883
vn 0.0000000 0.1564347 -0.9876883
vn 0.0000000 0.1564347 -0.9876883
vn 0.0000000 0.1564347 -0.9876883
vn 0.0000000 0.1564347 -0.9876883
vn 0.0000000 0.1564347 -0.9876883
vn 0.0000000 0.1564347 -0.9876883
vn 0.0000000 0.1564347 -0.9876883
vn 0.0000000 0.1564347 -0.9876883
vn 0.0000000 0.1564347 -0.9876883
vn 0.0000000 0.1564347 -0.9876883
vn 0.0000000 -0.1564347 0.9876883
vn 0.0000000 -0.1564347 0.9876883
vn 0.0000000 -0.1564347 0.9876883
vn 0.0000000 -0.1564347 0.9876883
vn 0.0000000 -0.1564347 0.9876883
vn 0.0000000 -0.1564347 0.9876883
vn 0.0000000 -0.1564347 0.9876883
vn 0.0000000 -0.1564347 0.9876883
vn 0.0000000 -0.1564347 0.9876883
vn 0.0000000 -0.1564347 0.9876883
vn 0.0000000 -0.1564347 0.9876883
vn 0.0000000 -0.1564347 0.9876883
vn 0.0000000 0.9876883 0.1564347
vn 0.0000000 0.9876883 0.1564347
vn 0.0000000 0.9876883 0.1564347
vn 0.0000000 0.9876883 0.1564347
vn 0.0000000 0.9876883 0.1564347
vn 0.0000000 0.9876883 0.1564347
vn 0.0000000 0.9876883 0.1564347
vn 0.0000000 0.9876883 0.1564347
vn 0.0000000 0.9876883 0.1564347
vn 0.0000000 0.9876883 0.1564347
vn 0.0000000 0.9876883 0.1564347
vn 0.0000000 0.9876883 0.1564347
vn 0.0000000 -0.8090171 0.5877851
vn 0.0000000 -0.8090171 0.5877851
vn 0.0000000 -0.8090171 0.5877851
vn 0.0000000 -0.8090171 0.5877851
vn 0.0000000 -0.8090171 0.5877851
vn 0.0000000 -0.8090171 0.5877851
vn 0.0000000 -0.8090171 0.5877851
vn 0.0000000 -0.8090171 0.5877851
vn 0.0000000 -0.8090171 0.5877851
vn 0.0000000 -0.8090171 0.5877851
vn 0.0000000 -0.8090171 0.5877851
vn 0.0000000 -0.8090171 0.5877851
vn 0.0000000 -0.5877851 -0.8090171
vn 0.0000000 -0.5877851 -0.8090171
vn 0.0000000 -0.5877851 -0.8090171
vn 0.0000000 -0.5877851 -0.8090171
vn 0.0000000 -0.5877851 -0.8090171
vn 0.0000000 -0.5877851 -0.8090171
vn 0.0000000 -0.5877851 -0.8090171
vn 0.0000000 -0.5877851 -0.8090171
vn 0.0000000 -0.5877851 -0.8090171
vn 0.0000000 -0.5877851 -0.8090171
vn 0.0000000 -0.5877851 -0.8090171
vn 0.0000000 -0.5877851 -0.8090171
vn 0.0000000 0.8090171 -0.5877851
vn 0.0000000 0.8090171 -0.5877851
vn 0.0000000 0.8090171 -0.5877851
vn 0.0000000 0.8090171 -0.5877851
vn 0.0000000 0.8090171 -0.5877851
vn 0.0000000 0.8090171 -0.5877851
vn 0.0000000 0.8090171 -0.5877851
vn 0.0000000 0.8090171 -0.5877851
vn 0.0000000 0.8090171 -0.5877851
vn 0.0000000 0.8090171 -0.5877851
vn 0.0000000 0.8090171 -0.5877851
vn 0.0000000 0.8090171 -0.5877851
vn 0.0000000 0.5877851 0.8090171
vn 0.0000000 0.5877851 0.8090171
vn 0.0000000 0.5877851 0.8090171
vn 0.0000000 0.5877851 0.8090171
vn 0.0000000 0.5877851 0.8090171
vn 0.0000000 0.5877851 0.8090171
vn 0.0000000 0.5877851 0.8090171
vn 0.0000000 0.5877851 0.8090171
vn 0.0000000 0.5877851 0.8090171
vn 0.0000000 0.5877851 0.8090171
vn 0.0000000 0.5877851 0.8090171
vn 0.0000000 0.5877851 0.8090171
f 1/1/1 2/2/2 3/3/3
f 4/4/4 5/5/5 6/6/6
f 7/7/7 8/8/8 9/9/9
f 10/10/10 11/11/11 12/12/12
f 13/13/13 14/14/14 15/15/15
f 16/16/16 17/17/17 18/18/18
f 19/19/19 20/20/20 21/21/21
f 22/22/22 23/23/23 24/24/24
f 25/25/25 26/26/26 27/27/27
f 28/28/28 29/29/29 30/30/30
f 31/31/31 32/32/32 33/33/33
f 34/34/34 35/35/35 36/36/36
f 37/37/37 38/38/38 39/39/39
f 40/40/40 41/41/41 42/42/42
f 43/43/43 44/44/44 45/45/45
f 46/46/46 47/47/47 48/48/48
f 49/49/49 50/50/50 51/51/51
f 52/52/52 53/53/53 54/54/54
f 55/55/55 56/56/56 57/57/57
f 58/58/58 59/59/59 60/60/60
f 61/61/61 62/62/62 63/63/63
f 64/64/64 65/65/65 66/66/66
f 67/67/67 68/68/68 69/69/69
f 70/70/70 71/71/71 72/72/72
f 73/73/73 74/74/74 75/75/75
f 76/76/76 77/77/77 78/78/78
f 79/79/79 80/80/80 81/81/81
f 82/82/82 83/83/83 84/84/84
f 85/85/85 86/86/86 87/87/87
f 88/88/88 89/89/89 90/90/90
f 91/91/91 92/92/92 93/93/93
f 94/94/94 95/95/95 96/96/96
f 97/97/97 98/98/98 99/99/99
f 100/100/100 101/101/101 102/102/102
f 103/103/103 104/104/104 105/105/105
f 106/106/106 107/107/107 108/108/108
f 109/109/109 110/110/110 111/111/111
f 112/112/112 113/113/113 114/114/114
f 115/115/115 116/116/116 117/117/117
f 118/118/118 119/119/119 120/120/120
f 121/121/121 122/122/122 123/123/123
f 124/124/124 125/125/125 126/126/126
f 127/127/127 128/128/128 129/129/129
f 130/130/130 131/131/131 132/132/132
f 133/133/133 134/134/134 135/135/135
f 136/136/136 137/137/137 138/138/138
f 139/139/139 140/140/140 141/141/141
f 142/142/142 143/143/143 144/144/144
f 145/145/145 146/146/146 147/147/147
f 148/148/148 149/149/149 150/150/150
f 151/151/151 152/152/152 153/153/153
f 154/154/154 155/155/155 156/156/156
f 157/157/157 158/158/158 159/159/159
f 160/160/160 161/161/161 162/162/162
f 163/163/163 164/164/164 165/165/165
f 166/166/166 167/167/167 168/168/168
f 169/169/169 170/170/170 171/171/171
f 172/172/172 173/173/173 174/174/174
f 175/175/175 176/176/176 177/177/177
f 178/178/178 179/179/179 180/180/180
f 181/181/181 182/182/182 183/183/183
f 184/184/184 185/185/185 186/186/186
f 187/187/187 188/188/188 189/189/189
f 190/190/190 191/191/191 192/192/192
f 193/193/193 194/194/194 195/195/195
f 196/196/196 197/197/197 198/198/198
f 199/199/199 200/200/200 201/201/201
f 202/202/202 203/203/203 204/204/204
f 205/205/205 206/206/206 207/207/207
f 208/208/208 209/209/209 210/210/210
f 211/211/211 212/212/212 213/213/213
f 214/214/214 215/215/215 216/216/216
f 217/217/217 218/218/218 219/219/219
f 220/220/220 221/221/221 222/222/222
f 223/223/223 224/224/224 225/225/225
f 226/226/226 227/227/227 228/228/228
f 229/229/229 230/230/230 231/231/231
f 232/232/232 233/233/233 234/234/234
f 235/235/235 236/236/236 237/237/237
f 238/238/238 239/239/239 240/240/240
f 241/241/241 242/242/242 243/243/243
f 244/244/244 245/245/245 246/246/246
f 247/247/247 248/248/248 249/249/249
f 250/250/250 251/251/251 252/252/252
f 253/253/253 254/254/254 255/255/255
f 256/256/256 257/257/257 258/258/258
f 259/259/259 260/260/260 261/261/261
f 262/262/262 263/263/263 264/264/264
f 265/265/265 266/266/266 267/267/267
f 268/268/268 269/269/269 270/270/270
f 271/271/271 272/272/272 273/273/273
f 274/274/274 275/275/275 276/276/276
f 277/277/277 278/278/278 279/279/279
f 280/280/280 281/281/281 282/282/282
f 283/283/283 284/284/284 285/285/285
f 286/286/286 287/287/287 288/288/288
f 289/289/289 290/290/290 291/291/291
f 292/292/292 293/293/293 294/294/294
f 295/295/295 296/296/296 297/297/297
f 298/298/298 299/299/299 300/300/300
f 301/301/301 302/302/302 303/303/303
f 304/304/304 305/305/305 306/306/306
f 307/307/307 308/308/308 309/309/309
f 310/310/310 311/311/311 312/312/312
f 313/313/313 314/314/314 315/315/315
f 316/316/316 317/317/317 318/318/318
f 319/319/319 320/320/320 321/321/321
f 322/322/322 323/323/323 324/324/324
f 325/325/325 326/326/326 327/327/327
f 328/328/328 329/329/329 330/330/330
f 331/331/331 332/332/332 333/333/333
f 334/334/334 335/335/335 336/336/336
f 337/337/337 338/338/338 339/339/339
f 340/340/340 341/341/341 342/342/342
f 343/343/343 344/344/344 345/345/345
f 346/346/346 347/347/347 348/348/348
f 349/349/349 350/350/350 351/351/351
f 352/352/352 353/353/353 354/354/354
f 355/355/355 356/356/356 357/357/357
f 358/358/358 359/359/359 360/360/360
f 361/361/361 362/362/362 363/363/363
f 364/364/364 365/365/365 366/366/366
f 367/367/367 368/368/368 369/369/369
f 370/370/370 371/371/371 372/372/372
f 373/373/373 374/374/374 375/375/375
f 376/376/376 377/377/377 378/378/378
f 379/379/379 380/380/380 381/381/381
f 382/382/382 383/383/383 384/384/384
f 385/385/385 386/386/386 387/387/387
f 388/388/388 389/389/389 390/390/390
f 391/391/391 392/392/392 393/393/393
f 394/394/394 395/395/395 396/396/396
f 397/397/397 398/398/398 399/399/399
f 400/400/400 401/401/401 402/402/402
f 403/403/403 404/404/404 405/405/405
f 406/406/406 407/407/407 408/408/408
f 409/409/409 410/410/410 411/411/411
f 412/412/412 413/413/413 414/414/414
f 415/415/415 416/416/416 417/417/417
f 418/418/418 419/419/419 420/420/420
f 421/421/421 422/422/422 423/423/423
f 424/424/424 425/425/425 426/426/426
f 427/427/427 428/428/428 429/429/429
f 430/430/430 431/431/431 432/432/432
f 433/433/433 434/434/434 435/435/435
f 436/436/436 437/437/437 438/438/438
f 439/439/439 440/440/440 441/441/441
f 442/442/442 443/443/443 444/444/444
f 445/445/445 446/446/446 447/447/447
f 448/448/448 449/449/449 450/450/450
f 451/451/451 452/452/452 453/453/453
f 454/454/454 455/455/455 456/456/456
f 457/457/457 458/458/458 459/459/459
f 460/460/460 461/461/461 462/462/462
f 463/463/463 464/464/464 465/465/465
f 466/466/466 467/467/467 468/468/468
