# metre = block; Y up; per-cell coordinates; atlas UVs preserved
mtllib materials.mtl
o cell_18
usemtl pump_atlas
v 0.9396922 0.4219561 1.0000000
v 1.0000000 0.4427575 0.8954246
v 1.0000000 0.3601096 0.8872844
v 0.9396922 0.4219561 1.0000000
v 1.0000000 0.3601096 0.8872844
v 0.9390831 0.4110218 1.0000000
v 0.9390831 0.4110218 1.0000000
v 1.0000000 0.3601096 0.8872844
v 1.0000000 0.3225000 0.8835802
v 0.9390831 0.4110218 1.0000000
v 1.0000000 0.3225000 0.8835802
v 0.9341517 0.3225000 1.0000000
v 0.9574527 0.5296068 1.0000000
v 1.0000000 0.5583936 0.9305024
v 1.0000000 0.4789218 0.9063948
v 0.9574527 0.5296068 1.0000000
v 1.0000000 0.4789218 0.9063948
v 0.9526724 0.5006324 1.0000000
v 0.9526724 0.5006324 1.0000000
v 1.0000000 0.4789218 0.9063948
v 1.0000000 0.4427575 0.8954246
v 0.9526724 0.5006324 1.0000000
v 1.0000000 0.4427575 0.8954246
v 0.9396922 0.4219561 1.0000000
v 0.9914735 0.6565892 1.0000000
v 1.0000000 0.6649644 0.9874657
v 1.0000000 0.5917228 0.9483172
v 0.9914735 0.6565892 1.0000000
v 1.0000000 0.5917228 0.9483172
v 0.9745318 0.5933543 1.0000000
v 0.9745318 0.5933543 1.0000000
v 1.0000000 0.5917228 0.9483172
v 1.0000000 0.5583936 0.9305024
v 0.9745318 0.5933543 1.0000000
v 1.0000000 0.5583936 0.9305024
v 0.9574527 0.5296068 1.0000000
v 1.0000000 0.6802376 1.0000000
v 1.0000000 0.6649644 0.9874657
v 0.9914735 0.6565892 1.0000000
v 0.9574527 0.1153932 1.0000000
v 1.0000000 0.0866064 0.9305024
v 1.0000000 0.0532771 0.9483172
v 0.9574527 0.1153932 1.0000000
v 1.0000000 0.0532771 0.9483172
v 0.9745318 0.0516456 1.0000000
v 0.9745318 0.0516456 1.0000000
v 1.0000000 0.0532771 0.9483172
v 1.0000000 0.0000000 0.9767944
v 0.9745318 0.0516456 1.0000000
v 1.0000000 0.0000000 0.9767944
v 0.9883685 0.0000000 1.0000000
v 0.9396922 0.2230438 1.0000000
v 1.0000000 0.2022424 0.8954246
v 1.0000000 0.1660782 0.9063948
v 0.9396922 0.2230438 1.0000000
v 1.0000000 0.1660782 0.9063948
v 0.9526724 0.1443676 1.0000000
v 0.9526724 0.1443676 1.0000000
v 1.0000000 0.1660782 0.9063948
v 1.0000000 0.0866064 0.9305024
v 0.9526724 0.1443676 1.0000000
v 1.0000000 0.0866064 0.9305024
v 0.9574527 0.1153932 1.0000000
v 0.9341517 0.3225000 1.0000000
v 1.0000000 0.3225000 0.8835802
v 1.0000000 0.2848904 0.8872844
v 0.9341517 0.3225000 1.0000000
v 1.0000000 0.2848904 0.8872844
v 0.9390831 0.2339781 1.0000000
v 0.9390831 0.2339781 1.0000000
v 1.0000000 0.2848904 0.8872844
v 1.0000000 0.2022424 0.8954246
v 0.9390831 0.2339781 1.0000000
v 1.0000000 0.2022424 0.8954246
v 0.9396922 0.2230438 1.0000000
v 1.0000000 0.7527124 0.9284346
v 0.9679501 0.7527124 0.9284346
v 0.9679501 0.7178549 0.9485596
v 1.0000000 0.7527124 0.9284346
v 0.9679501 0.7178549 0.9485596
v 1.0000000 0.7525499 0.9285284
v 1.0000000 0.7525499 0.9285284
v 0.9679501 0.7178549 0.9485596
v 1.0000000 0.7178549 0.9485596
v 1.0000000 0.7527124 0.8881847
v 0.9679501 0.7527124 0.8881847
v 0.9679501 0.7527124 0.9284346
v 1.0000000 0.7527124 0.8881847
v 0.9679501 0.7527124 0.9284346
v 1.0000000 0.7527124 0.8883723
v 1.0000000 0.7527124 0.8883723
v 0.9679501 0.7527124 0.9284346
v 1.0000000 0.7527124 0.9284346
v 1.0000000 0.7178549 0.8680596
v 0.9679501 0.7178549 0.8680596
v 0.9679501 0.7527124 0.8881847
v 1.0000000 0.7178549 0.8680596
v 0.9679501 0.7527124 0.8881847
v 1.0000000 0.7180174 0.8681534
v 1.0000000 0.7180174 0.8681534
v 0.9679501 0.7527124 0.8881847
v 1.0000000 0.7527124 0.8881847
v 1.0000000 0.6829973 0.8881847
v 0.9679501 0.6829973 0.8881847
v 1.0000000 0.7176924 0.8681534
v 1.0000000 0.7176924 0.8681534
v 0.9679501 0.6829973 0.8881847
v 0.9679501 0.7178549 0.8680596
v 1.0000000 0.7176924 0.8681534
v 0.9679501 0.7178549 0.8680596
v 1.0000000 0.7178549 0.8680596
v 1.0000000 0.6829973 0.9284346
v 0.9679501 0.6829973 0.9284346
v 1.0000000 0.6829973 0.8883723
v 1.0000000 0.6829973 0.8883723
v 0.9679501 0.6829973 0.9284346
v 0.9679501 0.6829973 0.8881847
v 1.0000000 0.6829973 0.8883723
v 0.9679501 0.6829973 0.8881847
v 1.0000000 0.6829973 0.8881847
v 1.0000000 0.7178549 0.9485596
v 0.9679501 0.7178549 0.9485596
v 1.0000000 0.6831598 0.9285284
v 1.0000000 0.6831598 0.9285284
v 0.9679501 0.7178549 0.9485596
v 0.9679501 0.6829973 0.9284346
v 1.0000000 0.6831598 0.9285284
v 0.9679501 0.6829973 0.9284346
v 1.0000000 0.6829973 0.9284346
v 0.9679501 0.7178549 0.8680596
v 0.9679501 0.6829973 0.8881847
v 0.9679501 0.6829973 0.9284346
v 0.9679501 0.7178549 0.8680596
v 0.9679501 0.6829973 0.9284346
v 0.9679501 0.7178549 0.9485596
v 0.9679501 0.7178549 0.8680596
v 0.9679501 0.7178549 0.9485596
v 0.9679501 0.7527124 0.9284346
v 0.9679501 0.7178549 0.8680596
v 0.9679501 0.7527124 0.9284346
v 0.9679501 0.7527124 0.8881847
v 1.0000000 0.4961877 0.8221787
v 0.9679501 0.4961877 0.8221787
v 0.9679501 0.4613302 0.8423037
v 1.0000000 0.4961877 0.8221787
v 0.9679501 0.4613302 0.8423037
v 1.0000000 0.4960252 0.8222725
v 1.0000000 0.4960252 0.8222725
v 0.9679501 0.4613302 0.8423037
v 1.0000000 0.4613302 0.8423037
v 1.0000000 0.4961877 0.7819287
v 0.9679501 0.4961877 0.7819287
v 0.9679501 0.4961877 0.8221787
v 1.0000000 0.4961877 0.7819287
v 0.9679501 0.4961877 0.8221787
v 1.0000000 0.4961877 0.7821163
v 1.0000000 0.4961877 0.7821163
v 0.9679501 0.4961877 0.8221787
v 1.0000000 0.4961877 0.8221787
v 1.0000000 0.4613302 0.7618037
v 0.9679501 0.4613302 0.7618037
v 0.9679501 0.4961877 0.7819287
v 1.0000000 0.4613302 0.7618037
v 0.9679501 0.4961877 0.7819287
v 1.0000000 0.4614927 0.7618975
v 1.0000000 0.4614927 0.7618975
v 0.9679501 0.4961877 0.7819287
v 1.0000000 0.4961877 0.7819287
v 1.0000000 0.4264727 0.7819287
v 0.9679501 0.4264727 0.7819287
v 1.0000000 0.4611677 0.7618975
v 1.0000000 0.4611677 0.7618975
v 0.9679501 0.4264727 0.7819287
v 0.9679501 0.4613302 0.7618037
v 1.0000000 0.4611677 0.7618975
v 0.9679501 0.4613302 0.7618037
v 1.0000000 0.4613302 0.7618037
v 1.0000000 0.4264727 0.8221787
v 0.9679501 0.4264727 0.8221787
v 1.0000000 0.4264727 0.7821163
v 1.0000000 0.4264727 0.7821163
v 0.9679501 0.4264727 0.8221787
v 0.9679501 0.4264727 0.7819287
v 1.0000000 0.4264727 0.7821163
v 0.9679501 0.4264727 0.7819287
v 1.0000000 0.4264727 0.7819287
v 1.0000000 0.4613302 0.8423037
v 0.9679501 0.4613302 0.8423037
v 1.0000000 0.4266352 0.8222725
v 1.0000000 0.4266352 0.8222725
v 0.9679501 0.4613302 0.8423037
v 0.9679501 0.4264727 0.8221787
v 1.0000000 0.4266352 0.8222725
v 0.9679501 0.4264727 0.8221787
v 1.0000000 0.4264727 0.8221787
v 0.9679501 0.4613302 0.7618037
v 0.9679501 0.4264727 0.7819287
v 0.9679501 0.4264727 0.8221787
v 0.9679501 0.4613302 0.7618037
v 0.9679501 0.4264727 0.8221787
v 0.9679501 0.4613302 0.8423037
v 0.9679501 0.4613302 0.7618037
v 0.9679501 0.4613302 0.8423037
v 0.9679501 0.4961877 0.8221787
v 0.9679501 0.4613302 0.7618037
v 0.9679501 0.4961877 0.8221787
v 0.9679501 0.4961877 0.7819287
v 1.0000000 0.2185272 0.8221787
v 0.9679501 0.2185272 0.8221787
v 0.9679501 0.1836697 0.8423037
v 1.0000000 0.2185272 0.8221787
v 0.9679501 0.1836697 0.8423037
v 1.0000000 0.2183647 0.8222725
v 1.0000000 0.2183647 0.8222725
v 0.9679501 0.1836697 0.8423037
v 1.0000000 0.1836697 0.8423037
v 1.0000000 0.2185272 0.7819287
v 0.9679501 0.2185272 0.7819287
v 0.9679501 0.2185272 0.8221787
v 1.0000000 0.2185272 0.7819287
v 0.9679501 0.2185272 0.8221787
v 1.0000000 0.2185272 0.7821163
v 1.0000000 0.2185272 0.7821163
v 0.9679501 0.2185272 0.8221787
v 1.0000000 0.2185272 0.8221787
v 1.0000000 0.1836697 0.7618037
v 0.9679501 0.1836697 0.7618037
v 0.9679501 0.2185272 0.7819287
v 1.0000000 0.1836697 0.7618037
v 0.9679501 0.2185272 0.7819287
v 1.0000000 0.1838322 0.7618975
v 1.0000000 0.1838322 0.7618975
v 0.9679501 0.2185272 0.7819287
v 1.0000000 0.2185272 0.7819287
v 1.0000000 0.1488122 0.7819287
v 0.9679501 0.1488122 0.7819287
v 1.0000000 0.1835072 0.7618975
v 1.0000000 0.1835072 0.7618975
v 0.9679501 0.1488122 0.7819287
v 0.9679501 0.1836697 0.7618037
v 1.0000000 0.1835072 0.7618975
v 0.9679501 0.1836697 0.7618037
v 1.0000000 0.1836697 0.7618037
v 1.0000000 0.1488122 0.8221787
v 0.9679501 0.1488122 0.8221787
v 1.0000000 0.1488122 0.7821163
v 1.0000000 0.1488122 0.7821163
v 0.9679501 0.1488122 0.8221787
v 0.9679501 0.1488122 0.7819287
v 1.0000000 0.1488122 0.7821163
v 0.9679501 0.1488122 0.7819287
v 1.0000000 0.1488122 0.7819287
v 1.0000000 0.1836697 0.8423037
v 0.9679501 0.1836697 0.8423037
v 1.0000000 0.1489747 0.8222725
v 1.0000000 0.1489747 0.8222725
v 0.9679501 0.1836697 0.8423037
v 0.9679501 0.1488122 0.8221787
v 1.0000000 0.1489747 0.8222725
v 0.9679501 0.1488122 0.8221787
v 1.0000000 0.1488122 0.8221787
v 0.9679501 0.1836697 0.7618037
v 0.9679501 0.1488122 0.7819287
v 0.9679501 0.1488122 0.8221787
v 0.9679501 0.1836697 0.7618037
v 0.9679501 0.1488122 0.8221787
v 0.9679501 0.1836697 0.8423037
v 0.9679501 0.1836697 0.7618037
v 0.9679501 0.1836697 0.8423037
v 0.9679501 0.2185272 0.8221787
v 0.9679501 0.1836697 0.7618037
v 0.9679501 0.2185272 0.8221787
v 0.9679501 0.2185272 0.7819287
vt 0.2249641 0.0699521
vt 0.2327997 0.0715107
vt 0.2334096 0.0653180
vt 0.2249641 0.0699521
vt 0.2334096 0.0653180
vt 0.2249641 0.0691328
vt 0.2249641 0.0691328
vt 0.2334096 0.0653180
vt 0.2336871 0.0625000
vt 0.2249641 0.0691328
vt 0.2336871 0.0625000
vt 0.2249641 0.0625000
vt 0.2249640 0.0780181
vt 0.2301714 0.0801751
vt 0.2319777 0.0742204
vt 0.2249640 0.0780181
vt 0.2319777 0.0742204
vt 0.2249640 0.0758471
vt 0.2249640 0.0758471
vt 0.2319777 0.0742204
vt 0.2327997 0.0715107
vt 0.2249640 0.0758471
vt 0.2327997 0.0715107
vt 0.2249641 0.0699521
vt 0.2249640 0.0875327
vt 0.2259032 0.0881602
vt 0.2288365 0.0826724
vt 0.2249640 0.0875327
vt 0.2288365 0.0826724
vt 0.2249640 0.0827946
vt 0.2249640 0.0827946
vt 0.2288365 0.0826724
vt 0.2301714 0.0801751
vt 0.2249640 0.0827946
vt 0.2301714 0.0801751
vt 0.2249640 0.0780181
vt 0.2249640 0.0893046
vt 0.2259032 0.0881602
vt 0.2249640 0.0875327
vt 0.2249640 0.0469819
vt 0.2301714 0.0448250
vt 0.2288365 0.0423277
vt 0.2249640 0.0469819
vt 0.2288365 0.0423277
vt 0.2249640 0.0422054
vt 0.2249640 0.0422054
vt 0.2288365 0.0423277
vt 0.2267028 0.0383357
vt 0.2249640 0.0422054
vt 0.2267028 0.0383357
vt 0.2249640 0.0383357
vt 0.2249641 0.0550479
vt 0.2327997 0.0534893
vt 0.2319777 0.0507796
vt 0.2249641 0.0550479
vt 0.2319777 0.0507796
vt 0.2249640 0.0491529
vt 0.2249640 0.0491529
vt 0.2319777 0.0507796
vt 0.2301714 0.0448250
vt 0.2249640 0.0491529
vt 0.2301714 0.0448250
vt 0.2249640 0.0469819
vt 0.2249641 0.0625000
vt 0.2336871 0.0625000
vt 0.2334096 0.0596820
vt 0.2249641 0.0625000
vt 0.2334096 0.0596820
vt 0.2249641 0.0558672
vt 0.2249641 0.0558672
vt 0.2334096 0.0596820
vt 0.2327997 0.0534893
vt 0.2249641 0.0558672
vt 0.2327997 0.0534893
vt 0.2249641 0.0550479
vt 0.9960938 0.0044525
vt 0.9960938 0.1210938
vt 0.9375000 0.1210938
vt 0.9960938 0.0044525
vt 0.9375000 0.1210938
vt 0.9958207 0.0044525
vt 0.9958207 0.0044525
vt 0.9375000 0.1210938
vt 0.9375000 0.0044525
vt 0.9082031 0.0044525
vt 0.9082031 0.1210938
vt 0.9667969 0.1210938
vt 0.9082031 0.0044525
vt 0.9667969 0.1210938
vt 0.9084762 0.0044525
vt 0.9084762 0.0044525
vt 0.9667969 0.1210938
vt 0.9667969 0.0044525
vt 0.9375000 0.0044525
vt 0.9375000 0.1210938
vt 0.9960938 0.1210938
vt 0.9375000 0.0044525
vt 0.9960938 0.1210938
vt 0.9377731 0.0044525
vt 0.9377731 0.0044525
vt 0.9960938 0.1210938
vt 0.9960938 0.0044525
vt 0.8789062 0.0044525
vt 0.8789062 0.1210938
vt 0.9372269 0.0044525
vt 0.9372269 0.0044525
vt 0.8789062 0.1210938
vt 0.9375000 0.1210938
vt 0.9372269 0.0044525
vt 0.9375000 0.1210938
vt 0.9375000 0.0044525
vt 0.9667969 0.0044525
vt 0.9667969 0.1210938
vt 0.9084762 0.0044525
vt 0.9084762 0.0044525
vt 0.9667969 0.1210938
vt 0.9082031 0.1210938
vt 0.9084762 0.0044525
vt 0.9082031 0.1210938
vt 0.9082031 0.0044525
vt 0.9375000 0.0044525
vt 0.9375000 0.1210938
vt 0.8791793 0.0044525
vt 0.8791793 0.0044525
vt 0.9375000 0.1210938
vt 0.8789062 0.1210938
vt 0.8791793 0.0044525
vt 0.8789062 0.1210938
vt 0.8789062 0.0044525
vt 0.8789062 0.0625000
vt 0.9082031 0.0039062
vt 0.9667969 0.0039062
vt 0.8789062 0.0625000
vt 0.9667969 0.0039062
vt 0.9960938 0.0625000
vt 0.8789062 0.0625000
vt 0.9960938 0.0625000
vt 0.9667969 0.1210938
vt 0.8789062 0.0625000
vt 0.9667969 0.1210938
vt 0.9082031 0.1210938
vt 0.9960938 0.0044525
vt 0.9960938 0.1210938
vt 0.9375000 0.1210938
vt 0.9960938 0.0044525
vt 0.9375000 0.1210938
vt 0.9958207 0.0044525
vt 0.9958207 0.0044525
vt 0.9375000 0.1210938
vt 0.9375000 0.0044525
vt 0.9082031 0.0044525
vt 0.9082031 0.1210938
vt 0.9667969 0.1210938
vt 0.9082031 0.0044525
vt 0.9667969 0.1210938
vt 0.9084762 0.0044525
vt 0.9084762 0.0044525
vt 0.9667969 0.1210938
vt 0.9667969 0.0044525
vt 0.9375000 0.0044525
vt 0.9375000 0.1210938
vt 0.9960938 0.1210938
vt 0.9375000 0.0044525
vt 0.9960938 0.1210938
vt 0.9377731 0.0044525
vt 0.9377731 0.0044525
vt 0.9960938 0.1210938
vt 0.9960938 0.0044525
vt 0.8789062 0.0044525
vt 0.8789062 0.1210938
vt 0.9372269 0.0044525
vt 0.9372269 0.0044525
vt 0.8789062 0.1210938
vt 0.9375000 0.1210938
vt 0.9372269 0.0044525
vt 0.9375000 0.1210938
vt 0.9375000 0.0044525
vt 0.9667969 0.0044525
vt 0.9667969 0.1210938
vt 0.9084762 0.0044525
vt 0.9084762 0.0044525
vt 0.9667969 0.1210938
vt 0.9082031 0.1210938
vt 0.9084762 0.0044525
vt 0.9082031 0.1210938
vt 0.9082031 0.0044525
vt 0.9375000 0.0044525
vt 0.9375000 0.1210938
vt 0.8791793 0.0044525
vt 0.8791793 0.0044525
vt 0.9375000 0.1210938
vt 0.8789062 0.1210938
vt 0.8791793 0.0044525
vt 0.8789062 0.1210938
vt 0.8789062 0.0044525
vt 0.8789062 0.0625000
vt 0.9082031 0.0039062
vt 0.9667969 0.0039062
vt 0.8789062 0.0625000
vt 0.9667969 0.0039062
vt 0.9960938 0.0625000
vt 0.8789062 0.0625000
vt 0.9960938 0.0625000
vt 0.9667969 0.1210938
vt 0.8789062 0.0625000
vt 0.9667969 0.1210938
vt 0.9082031 0.1210938
vt 0.9960938 0.0044525
vt 0.9960938 0.1210938
vt 0.9375000 0.1210938
vt 0.9960938 0.0044525
vt 0.9375000 0.1210938
vt 0.9958207 0.0044525
vt 0.9958207 0.0044525
vt 0.9375000 0.1210938
vt 0.9375000 0.0044525
vt 0.9082031 0.0044525
vt 0.9082031 0.1210938
vt 0.9667969 0.1210938
vt 0.9082031 0.0044525
vt 0.9667969 0.1210938
vt 0.9084762 0.0044525
vt 0.9084762 0.0044525
vt 0.9667969 0.1210938
vt 0.9667969 0.0044525
vt 0.9375000 0.0044525
vt 0.9375000 0.1210938
vt 0.9960938 0.1210938
vt 0.9375000 0.0044525
vt 0.9960938 0.1210938
vt 0.9377731 0.0044525
vt 0.9377731 0.0044525
vt 0.9960938 0.1210938
vt 0.9960938 0.0044525
vt 0.8789062 0.0044525
vt 0.8789062 0.1210938
vt 0.9372269 0.0044525
vt 0.9372269 0.0044525
vt 0.8789062 0.1210938
vt 0.9375000 0.1210938
vt 0.9372269 0.0044525
vt 0.9375000 0.1210938
vt 0.9375000 0.0044525
vt 0.9667969 0.0044525
vt 0.9667969 0.1210938
vt 0.9084762 0.0044525
vt 0.9084762 0.0044525
vt 0.9667969 0.1210938
vt 0.9082031 0.1210938
vt 0.9084762 0.0044525
vt 0.9082031 0.1210938
vt 0.9082031 0.0044525
vt 0.9375000 0.0044525
vt 0.9375000 0.1210938
vt 0.8791793 0.0044525
vt 0.8791793 0.0044525
vt 0.9375000 0.1210938
vt 0.8789062 0.1210938
vt 0.8791793 0.0044525
vt 0.8789062 0.1210938
vt 0.8789062 0.0044525
vt 0.8789062 0.0625000
vt 0.9082031 0.0039062
vt 0.9667969 0.0039062
vt 0.8789062 0.0625000
vt 0.9667969 0.0039062
vt 0.9960938 0.0625000
vt 0.8789062 0.0625000
vt 0.9960938 0.0625000
vt 0.9667969 0.1210938
vt 0.8789062 0.0625000
vt 0.9667969 0.1210938
vt 0.9082031 0.1210938
vn -0.8704162 0.0960464 -0.4828568
vn -0.8704162 0.0960464 -0.4828568
vn -0.8713833 0.0376252 -0.4891580
vn -0.8704162 0.0960464 -0.4828568
vn -0.8713833 0.0376252 -0.4891580
vn -0.8707112 0.0884904 -0.4837679
vn -0.8707112 0.0884904 -0.4837679
vn -0.8713833 0.0376252 -0.4891580
vn -0.8704161 0.0000000 -0.4923168
vn -0.8707112 0.0884904 -0.4837679
vn -0.8704161 0.0000000 -0.4923168
vn -0.8704161 0.0000000 -0.4923168
vn -0.8704161 0.1884016 -0.4548413
vn -0.8704161 0.1884016 -0.4548413
vn -0.8713833 0.1323323 -0.4724185
vn -0.8704161 0.1884016 -0.4548413
vn -0.8713833 0.1323323 -0.4724185
vn -0.8710585 0.1703193 -0.4607043
vn -0.8710585 0.1703193 -0.4607043
vn -0.8713833 0.1323323 -0.4724185
vn -0.8704162 0.0960464 -0.4828568
vn -0.8710585 0.1703193 -0.4607043
vn -0.8704162 0.0960464 -0.4828568
vn -0.8704162 0.0960464 -0.4828568
vn -0.8704160 0.2735168 -0.4093464
vn -0.8704160 0.2735168 -0.4093464
vn -0.8713832 0.2219540 -0.4375245
vn -0.8704160 0.2735168 -0.4093464
vn -0.8713832 0.2219540 -0.4375245
vn -0.8713795 0.2408238 -0.4274361
vn -0.8713795 0.2408238 -0.4274361
vn -0.8713832 0.2219540 -0.4375245
vn -0.8704161 0.1884016 -0.4548413
vn -0.8713795 0.2408238 -0.4274361
vn -0.8704161 0.1884016 -0.4548413
vn -0.8704161 0.1884016 -0.4548413
vn -0.8710765 0.2889983 -0.3971218
vn -0.8704160 0.2735168 -0.4093464
vn -0.8704160 0.2735168 -0.4093464
vn -0.8704162 -0.1884014 -0.4548413
vn -0.8704162 -0.1884014 -0.4548413
vn -0.8713834 -0.2219538 -0.4375244
vn -0.8704162 -0.1884014 -0.4548413
vn -0.8713834 -0.2219538 -0.4375244
vn -0.8713797 -0.2408236 -0.4274359
vn -0.8713797 -0.2408236 -0.4274359
vn -0.8713834 -0.2219538 -0.4375244
vn -0.8709778 -0.2595616 -0.4171636
vn -0.8713797 -0.2408236 -0.4274359
vn -0.8709778 -0.2595616 -0.4171636
vn -0.8706836 -0.2675581 -0.4127016
vn -0.8704162 -0.0960464 -0.4828568
vn -0.8704162 -0.0960464 -0.4828569
vn -0.8713833 -0.1323323 -0.4724186
vn -0.8704162 -0.0960464 -0.4828568
vn -0.8713833 -0.1323323 -0.4724186
vn -0.8710585 -0.1703192 -0.4607043
vn -0.8710585 -0.1703192 -0.4607043
vn -0.8713833 -0.1323323 -0.4724186
vn -0.8704162 -0.1884014 -0.4548413
vn -0.8710585 -0.1703192 -0.4607043
vn -0.8704162 -0.1884014 -0.4548413
vn -0.8704162 -0.1884014 -0.4548413
vn -0.8704161 0.0000000 -0.4923168
vn -0.8704161 0.0000000 -0.4923168
vn -0.8713833 -0.0376252 -0.4891580
vn -0.8704161 0.0000000 -0.4923168
vn -0.8713833 -0.0376252 -0.4891580
vn -0.8707112 -0.0884904 -0.4837679
vn -0.8707112 -0.0884904 -0.4837679
vn -0.8713833 -0.0376252 -0.4891580
vn -0.8704162 -0.0960464 -0.4828569
vn -0.8707112 -0.0884904 -0.4837679
vn -0.8704162 -0.0960464 -0.4828569
vn -0.8704162 -0.0960464 -0.4828568
vn -0.0000001 0.5000001 0.8660254
vn -0.0000001 0.5000001 0.8660254
vn -0.0000001 0.5000001 0.8660254
vn -0.0000001 0.5000001 0.8660254
vn -0.0000001 0.5000001 0.8660254
vn -0.0000001 0.5000001 0.8660254
vn -0.0000001 0.5000001 0.8660254
vn -0.0000001 0.5000001 0.8660254
vn -0.0000001 0.5000001 0.8660254
vn 0.0000000 1.0000000 0.0000000
vn -0.0000000 1.0000000 -0.0000000
vn -0.0000000 1.0000000 -0.0000000
vn 0.0000000 1.0000000 0.0000000
vn -0.0000000 1.0000000 -0.0000000
vn 0.0000000 1.0000000 0.0000000
vn 0.0000000 1.0000000 0.0000000
vn -0.0000000 1.0000000 -0.0000000
vn 0.0000000 1.0000000 0.0000000
vn 0.0000000 0.5000001 -0.8660254
vn 0.0000000 0.5000001 -0.8660254
vn 0.0000000 0.5000001 -0.8660254
vn 0.0000000 0.5000001 -0.8660254
vn 0.0000000 0.5000001 -0.8660254
vn 0.0000000 0.5000001 -0.8660254
vn 0.0000000 0.5000001 -0.8660254
vn 0.0000000 0.5000001 -0.8660254
vn 0.0000000 0.5000001 -0.8660254
vn 0.0000001 -0.5000001 -0.8660254
vn 0.0000001 -0.5000001 -0.8660254
vn 0.0000001 -0.5000001 -0.8660254
vn 0.0000001 -0.5000001 -0.8660254
vn 0.0000001 -0.5000001 -0.8660254
vn 0.0000001 -0.5000001 -0.8660254
vn 0.0000001 -0.5000001 -0.8660254
vn 0.0000001 -0.5000001 -0.8660254
vn 0.0000001 -0.5000001 -0.8660254
vn 0.0000000 -1.0000000 0.0000000
vn 0.0000000 -1.0000000 0.0000000
vn 0.0000000 -1.0000000 0.0000000
vn 0.0000000 -1.0000000 0.0000000
vn 0.0000000 -1.0000000 0.0000000
vn 0.0000000 -1.0000000 0.0000000
vn 0.0000000 -1.0000000 0.0000000
vn 0.0000000 -1.0000000 0.0000000
vn 0.0000000 -1.0000000 0.0000000
vn 0.0000000 -0.5000001 0.8660254
vn -0.0000000 -0.5000001 0.8660254
vn 0.0000000 -0.5000001 0.8660254
vn 0.0000000 -0.5000001 0.8660254
vn -0.0000000 -0.5000001 0.8660254
vn -0.0000000 -0.5000001 0.8660254
vn 0.0000000 -0.5000001 0.8660254
vn -0.0000000 -0.5000001 0.8660254
vn 0.0000000 -0.5000001 0.8660254
vn -1.0000000 -0.0000000 -0.0000000
vn -1.0000000 -0.0000000 -0.0000000
vn -1.0000000 -0.0000000 -0.0000000
vn -1.0000000 -0.0000000 -0.0000000
vn -1.0000000 -0.0000000 -0.0000000
vn -1.0000000 -0.0000000 -0.0000000
vn -1.0000000 -0.0000000 -0.0000000
vn -1.0000000 -0.0000000 -0.0000000
vn -1.0000000 -0.0000000 -0.0000000
vn -1.0000000 -0.0000000 -0.0000000
vn -1.0000000 -0.0000000 -0.0000000
vn -1.0000000 -0.0000000 -0.0000000
vn -0.0000001 0.5000001 0.8660254
vn -0.0000001 0.5000001 0.8660254
vn -0.0000001 0.5000001 0.8660254
vn -0.0000001 0.5000001 0.8660254
vn -0.0000001 0.5000001 0.8660254
vn -0.0000001 0.5000001 0.8660254
vn -0.0000001 0.5000001 0.8660254
vn -0.0000001 0.5000001 0.8660254
vn -0.0000001 0.5000001 0.8660254
vn 0.0000000 1.0000000 0.0000000
vn -0.0000000 1.0000000 -0.0000000
vn -0.0000000 1.0000000 -0.0000000
vn 0.0000000 1.0000000 0.0000000
vn -0.0000000 1.0000000 -0.0000000
vn 0.0000000 1.0000000 0.0000000
vn 0.0000000 1.0000000 0.0000000
vn -0.0000000 1.0000000 -0.0000000
vn 0.0000000 1.0000000 0.0000000
vn 0.0000000 0.5000001 -0.8660254
vn 0.0000000 0.5000001 -0.8660254
vn 0.0000000 0.5000001 -0.8660254
vn 0.0000000 0.5000001 -0.8660254
vn 0.0000000 0.5000001 -0.8660254
vn 0.0000000 0.5000001 -0.8660254
vn 0.0000000 0.5000001 -0.8660254
vn 0.0000000 0.5000001 -0.8660254
vn 0.0000000 0.5000001 -0.8660254
vn 0.0000001 -0.5000001 -0.8660254
vn 0.0000001 -0.5000001 -0.8660254
vn 0.0000001 -0.5000001 -0.8660254
vn 0.0000001 -0.5000001 -0.8660254
vn 0.0000001 -0.5000001 -0.8660254
vn 0.0000001 -0.5000001 -0.8660254
vn 0.0000001 -0.5000001 -0.8660254
vn 0.0000001 -0.5000001 -0.8660254
vn 0.0000001 -0.5000001 -0.8660254
vn 0.0000000 -1.0000000 0.0000000
vn 0.0000000 -1.0000000 0.0000000
vn 0.0000000 -1.0000000 0.0000000
vn 0.0000000 -1.0000000 0.0000000
vn 0.0000000 -1.0000000 0.0000000
vn 0.0000000 -1.0000000 0.0000000
vn 0.0000000 -1.0000000 0.0000000
vn 0.0000000 -1.0000000 0.0000000
vn 0.0000000 -1.0000000 0.0000000
vn 0.0000000 -0.5000001 0.8660254
vn -0.0000000 -0.5000001 0.8660254
vn 0.0000000 -0.5000001 0.8660254
vn 0.0000000 -0.5000001 0.8660254
vn -0.0000000 -0.5000001 0.8660254
vn -0.0000000 -0.5000001 0.8660254
vn 0.0000000 -0.5000001 0.8660254
vn -0.0000000 -0.5000001 0.8660254
vn 0.0000000 -0.5000001 0.8660254
vn -1.0000000 -0.0000000 -0.0000000
vn -1.0000000 -0.0000000 -0.0000000
vn -1.0000000 -0.0000000 -0.0000000
vn -1.0000000 -0.0000000 -0.0000000
vn -1.0000000 -0.0000000 -0.0000000
vn -1.0000000 -0.0000000 -0.0000000
vn -1.0000000 -0.0000000 -0.0000000
vn -1.0000000 -0.0000000 -0.0000000
vn -1.0000000 -0.0000000 -0.0000000
vn -1.0000000 -0.0000000 -0.0000000
vn -1.0000000 -0.0000000 -0.0000000
vn -1.0000000 -0.0000000 -0.0000000
vn -0.0000001 0.5000001 0.8660254
vn -0.0000001 0.5000001 0.8660254
vn -0.0000001 0.5000001 0.8660254
vn -0.0000001 0.5000001 0.8660254
vn -0.0000001 0.5000001 0.8660254
vn -0.0000001 0.5000001 0.8660254
vn -0.0000001 0.5000001 0.8660254
vn -0.0000001 0.5000001 0.8660254
vn -0.0000001 0.5000001 0.8660254
vn 0.0000000 1.0000000 0.0000000
vn -0.0000000 1.0000000 -0.0000000
vn -0.0000000 1.0000000 -0.0000000
vn 0.0000000 1.0000000 0.0000000
vn -0.0000000 1.0000000 -0.0000000
vn 0.0000000 1.0000000 0.0000000
vn 0.0000000 1.0000000 0.0000000
vn -0.0000000 1.0000000 -0.0000000
vn 0.0000000 1.0000000 0.0000000
vn 0.0000000 0.5000001 -0.8660254
vn 0.0000000 0.5000001 -0.8660254
vn 0.0000000 0.5000001 -0.8660254
vn 0.0000000 0.5000001 -0.8660254
vn 0.0000000 0.5000001 -0.8660254
vn 0.0000000 0.5000001 -0.8660254
vn 0.0000000 0.5000001 -0.8660254
vn 0.0000000 0.5000001 -0.8660254
vn 0.0000000 0.5000001 -0.8660254
vn 0.0000001 -0.5000001 -0.8660254
vn 0.0000001 -0.5000001 -0.8660254
vn 0.0000001 -0.5000001 -0.8660254
vn 0.0000001 -0.5000001 -0.8660254
vn 0.0000001 -0.5000001 -0.8660254
vn 0.0000001 -0.5000001 -0.8660254
vn 0.0000001 -0.5000001 -0.8660254
vn 0.0000001 -0.5000001 -0.8660254
vn 0.0000001 -0.5000001 -0.8660254
vn 0.0000000 -1.0000000 0.0000000
vn 0.0000000 -1.0000000 0.0000000
vn 0.0000000 -1.0000000 0.0000000
vn 0.0000000 -1.0000000 0.0000000
vn 0.0000000 -1.0000000 0.0000000
vn 0.0000000 -1.0000000 0.0000000
vn 0.0000000 -1.0000000 0.0000000
vn 0.0000000 -1.0000000 0.0000000
vn 0.0000000 -1.0000000 0.0000000
vn 0.0000000 -0.5000001 0.8660254
vn -0.0000000 -0.5000001 0.8660254
vn 0.0000000 -0.5000001 0.8660254
vn 0.0000000 -0.5000001 0.8660254
vn -0.0000000 -0.5000001 0.8660254
vn -0.0000000 -0.5000001 0.8660254
vn 0.0000000 -0.5000001 0.8660254
vn -0.0000000 -0.5000001 0.8660254
vn 0.0000000 -0.5000001 0.8660254
vn -1.0000000 -0.0000000 -0.0000000
vn -1.0000000 -0.0000000 -0.0000000
vn -1.0000000 -0.0000000 -0.0000000
vn -1.0000000 -0.0000000 -0.0000000
vn -1.0000000 -0.0000000 -0.0000000
vn -1.0000000 -0.0000000 -0.0000000
vn -1.0000000 -0.0000000 -0.0000000
vn -1.0000000 -0.0000000 -0.0000000
vn -1.0000000 -0.0000000 -0.0000000
vn -1.0000000 -0.0000000 -0.0000000
vn -1.0000000 -0.0000000 -0.0000000
vn -1.0000000 -0.0000000 -0.0000000
f 1/1/1 2/2/2 3/3/3
f 4/4/4 5/5/5 6/6/6
f 7/7/7 8/8/8 9/9/9
f 10/10/10 11/11/11 12/12/12
f 13/13/13 14/14/14 15/15/15
f 16/16/16 17/17/17 18/18/18
f 19/19/19 20/20/20 21/21/21
f 22/22/22 23/23/23 24/24/24
f 25/25/25 26/26/26 27/27/27
f 28/28/28 29/29/29 30/30/30
f 31/31/31 32/32/32 33/33/33
f 34/34/34 35/35/35 36/36/36
f 37/37/37 38/38/38 39/39/39
f 40/40/40 41/41/41 42/42/42
f 43/43/43 44/44/44 45/45/45
f 46/46/46 47/47/47 48/48/48
f 49/49/49 50/50/50 51/51/51
f 52/52/52 53/53/53 54/54/54
f 55/55/55 56/56/56 57/57/57
f 58/58/58 59/59/59 60/60/60
f 61/61/61 62/62/62 63/63/63
f 64/64/64 65/65/65 66/66/66
f 67/67/67 68/68/68 69/69/69
f 70/70/70 71/71/71 72/72/72
f 73/73/73 74/74/74 75/75/75
f 76/76/76 77/77/77 78/78/78
f 79/79/79 80/80/80 81/81/81
f 82/82/82 83/83/83 84/84/84
f 85/85/85 86/86/86 87/87/87
f 88/88/88 89/89/89 90/90/90
f 91/91/91 92/92/92 93/93/93
f 94/94/94 95/95/95 96/96/96
f 97/97/97 98/98/98 99/99/99
f 100/100/100 101/101/101 102/102/102
f 103/103/103 104/104/104 105/105/105
f 106/106/106 107/107/107 108/108/108
f 109/109/109 110/110/110 111/111/111
f 112/112/112 113/113/113 114/114/114
f 115/115/115 116/116/116 117/117/117
f 118/118/118 119/119/119 120/120/120
f 121/121/121 122/122/122 123/123/123
f 124/124/124 125/125/125 126/126/126
f 127/127/127 128/128/128 129/129/129
f 130/130/130 131/131/131 132/132/132
f 133/133/133 134/134/134 135/135/135
f 136/136/136 137/137/137 138/138/138
f 139/139/139 140/140/140 141/141/141
f 142/142/142 143/143/143 144/144/144
f 145/145/145 146/146/146 147/147/147
f 148/148/148 149/149/149 150/150/150
f 151/151/151 152/152/152 153/153/153
f 154/154/154 155/155/155 156/156/156
f 157/157/157 158/158/158 159/159/159
f 160/160/160 161/161/161 162/162/162
f 163/163/163 164/164/164 165/165/165
f 166/166/166 167/167/167 168/168/168
f 169/169/169 170/170/170 171/171/171
f 172/172/172 173/173/173 174/174/174
f 175/175/175 176/176/176 177/177/177
f 178/178/178 179/179/179 180/180/180
f 181/181/181 182/182/182 183/183/183
f 184/184/184 185/185/185 186/186/186
f 187/187/187 188/188/188 189/189/189
f 190/190/190 191/191/191 192/192/192
f 193/193/193 194/194/194 195/195/195
f 196/196/196 197/197/197 198/198/198
f 199/199/199 200/200/200 201/201/201
f 202/202/202 203/203/203 204/204/204
f 205/205/205 206/206/206 207/207/207
f 208/208/208 209/209/209 210/210/210
f 211/211/211 212/212/212 213/213/213
f 214/214/214 215/215/215 216/216/216
f 217/217/217 218/218/218 219/219/219
f 220/220/220 221/221/221 222/222/222
f 223/223/223 224/224/224 225/225/225
f 226/226/226 227/227/227 228/228/228
f 229/229/229 230/230/230 231/231/231
f 232/232/232 233/233/233 234/234/234
f 235/235/235 236/236/236 237/237/237
f 238/238/238 239/239/239 240/240/240
f 241/241/241 242/242/242 243/243/243
f 244/244/244 245/245/245 246/246/246
f 247/247/247 248/248/248 249/249/249
f 250/250/250 251/251/251 252/252/252
f 253/253/253 254/254/254 255/255/255
f 256/256/256 257/257/257 258/258/258
f 259/259/259 260/260/260 261/261/261
f 262/262/262 263/263/263 264/264/264
f 265/265/265 266/266/266 267/267/267
f 268/268/268 269/269/269 270/270/270
f 271/271/271 272/272/272 273/273/273
