# metre = block; Y up; per-cell coordinates; atlas UVs preserved
mtllib materials.mtl
o cell_8
usemtl pump_atlas
v 0.0000000 0.9868021 0.5899500
v 0.0310533 1.0000000 0.5864136
v 0.0000000 1.0000000 0.6218125
v 0.0000000 0.9749600 0.5000000
v 0.0569091 1.0000000 0.5000000
v 0.0466034 1.0000000 0.5344429
v 0.0000000 0.9749600 0.5000000
v 0.0466034 1.0000000 0.5344429
v 0.0000000 0.9826069 0.5580842
v 0.0000000 0.9826069 0.5580842
v 0.0466034 1.0000000 0.5344429
v 0.0310533 1.0000000 0.5864136
v 0.0000000 0.9826069 0.5580842
v 0.0310533 1.0000000 0.5864136
v 0.0000000 0.9868021 0.5899500
v 0.0000000 0.9868021 0.4100500
v 0.0310533 1.0000000 0.4135864
v 0.0423853 1.0000000 0.4514596
v 0.0000000 0.9868021 0.4100500
v 0.0423853 1.0000000 0.4514596
v 0.0000000 0.9791552 0.4681342
v 0.0000000 0.9791552 0.4681342
v 0.0423853 1.0000000 0.4514596
v 0.0569091 1.0000000 0.5000000
v 0.0000000 0.9791552 0.4681342
v 0.0569091 1.0000000 0.5000000
v 0.0000000 0.9749600 0.5000000
v 0.0015570 1.0000000 0.3799623
v 0.0000000 0.9991018 0.3803558
v 0.0000000 1.0000000 0.3781874
v 0.0000000 0.9991018 0.3803558
v 0.0015570 1.0000000 0.3799623
v 0.0310533 1.0000000 0.4135864
v 0.0000000 0.9991018 0.3803558
v 0.0310533 1.0000000 0.4135864
v 0.0000000 0.9868021 0.4100500
v 0.2180001 0.3243000 0.7277000
v 0.2318001 0.3105000 0.7277000
v 0.2318001 0.3243000 0.7415000
v 0.5492001 0.3243000 0.7415000
v 0.5492001 0.3105000 0.7277000
v 0.5630001 0.3243000 0.7277000
v 0.5492001 0.3105000 0.2723000
v 0.5492001 0.3243000 0.2585000
v 0.5630001 0.3243000 0.2723000
v 0.2180001 0.3243000 0.2723000
v 0.2318001 0.3243000 0.2585000
v 0.2318001 0.3105000 0.2723000
v 0.2318001 0.3243000 0.7415000
v 0.2318001 0.3105000 0.7277000
v 0.5492001 0.3105000 0.7277000
v 0.2318001 0.3243000 0.7415000
v 0.5492001 0.3105000 0.7277000
v 0.5492001 0.3243000 0.7415000
v 0.2180001 0.3243000 0.7277000
v 0.2180001 0.3243000 0.2723000
v 0.2318001 0.3105000 0.2723000
v 0.2180001 0.3243000 0.7277000
v 0.2318001 0.3105000 0.2723000
v 0.2318001 0.3105000 0.7277000
v 0.2318001 0.3105000 0.2723000
v 0.2318001 0.3243000 0.2585000
v 0.5492001 0.3243000 0.2585000
v 0.2318001 0.3105000 0.2723000
v 0.5492001 0.3243000 0.2585000
v 0.5492001 0.3105000 0.2723000
v 0.5492001 0.3105000 0.7277000
v 0.5492001 0.3105000 0.2723000
v 0.5630001 0.3243000 0.2723000
v 0.5492001 0.3105000 0.7277000
v 0.5630001 0.3243000 0.2723000
v 0.5630001 0.3243000 0.7277000
v 0.2180001 0.3243000 0.7277000
v 0.2318001 0.3243000 0.7415000
v 0.2318001 1.0000000 0.7415000
v 0.2180001 0.3243000 0.7277000
v 0.2318001 1.0000000 0.7415000
v 0.2274725 1.0000000 0.7371724
v 0.2180001 0.3243000 0.7277000
v 0.2274725 1.0000000 0.7371724
v 0.2180001 1.0000000 0.7277000
v 0.5492001 0.3243000 0.7415000
v 0.5630001 0.3243000 0.7277000
v 0.5630001 1.0000000 0.7277000
v 0.5492001 0.3243000 0.7415000
v 0.5630001 1.0000000 0.7277000
v 0.5586725 1.0000000 0.7320276
v 0.5492001 0.3243000 0.7415000
v 0.5586725 1.0000000 0.7320276
v 0.5492001 1.0000000 0.7415000
v 0.5492001 0.3243000 0.2585000
v 0.5492001 1.0000000 0.2585000
v 0.5586725 1.0000000 0.2679724
v 0.5492001 0.3243000 0.2585000
v 0.5586725 1.0000000 0.2679724
v 0.5630001 1.0000000 0.2723000
v 0.5492001 0.3243000 0.2585000
v 0.5630001 1.0000000 0.2723000
v 0.5630001 0.3243000 0.2723000
v 0.2180001 0.3243000 0.2723000
v 0.2180001 1.0000000 0.2723000
v 0.2274725 1.0000000 0.2628276
v 0.2180001 0.3243000 0.2723000
v 0.2274725 1.0000000 0.2628276
v 0.2318001 1.0000000 0.2585000
v 0.2180001 0.3243000 0.2723000
v 0.2318001 1.0000000 0.2585000
v 0.2318001 0.3243000 0.2585000
v 0.2318001 0.3243000 0.7415000
v 0.5492001 0.3243000 0.7415000
v 0.5492001 1.0000000 0.7415000
v 0.2318001 0.3243000 0.7415000
v 0.5492001 1.0000000 0.7415000
v 0.4496660 1.0000000 0.7415000
v 0.2318001 0.3243000 0.7415000
v 0.4496660 1.0000000 0.7415000
v 0.2318001 1.0000000 0.7415000
v 0.2318001 0.3105000 0.7277000
v 0.2318001 0.3105000 0.2723000
v 0.5492001 0.3105000 0.2723000
v 0.2318001 0.3105000 0.7277000
v 0.5492001 0.3105000 0.2723000
v 0.5492001 0.3105000 0.7277000
v 0.2180001 0.3243000 0.7277000
v 0.2180001 1.0000000 0.7277000
v 0.2180001 1.0000000 0.4151098
v 0.2180001 0.3243000 0.7277000
v 0.2180001 1.0000000 0.4151098
v 0.2180001 1.0000000 0.2723000
v 0.2180001 0.3243000 0.7277000
v 0.2180001 1.0000000 0.2723000
v 0.2180001 0.3243000 0.2723000
v 0.5630001 0.3243000 0.7277000
v 0.5630001 0.3243000 0.2723000
v 0.5630001 1.0000000 0.2723000
v 0.5630001 0.3243000 0.7277000
v 0.5630001 1.0000000 0.2723000
v 0.5630001 1.0000000 0.4151098
v 0.5630001 0.3243000 0.7277000
v 0.5630001 1.0000000 0.4151098
v 0.5630001 1.0000000 0.7277000
v 0.2318001 0.3243000 0.2585000
v 0.2318001 1.0000000 0.2585000
v 0.4496660 1.0000000 0.2585000
v 0.2318001 0.3243000 0.2585000
v 0.4496660 1.0000000 0.2585000
v 0.5492001 1.0000000 0.2585000
v 0.2318001 0.3243000 0.2585000
v 0.5492001 1.0000000 0.2585000
v 0.5492001 0.3243000 0.2585000
v 0.0121500 0.2875000 0.8514860
v 0.0121500 0.3013000 0.8376859
v 0.0259500 0.3013000 0.8514860
v 0.0121500 0.4025000 0.8514860
v 0.0259500 0.3887000 0.8514860
v 0.0121500 0.3887000 0.8376859
v 0.0000000 0.3013000 0.8376859
v 0.0121500 0.3013000 0.8376859
v 0.0000000 0.3009409 0.8380450
v 0.0000000 0.3009409 0.8380450
v 0.0121500 0.3013000 0.8376859
v 0.0121500 0.2875000 0.8514860
v 0.0000000 0.3009409 0.8380450
v 0.0121500 0.2875000 0.8514860
v 0.0000000 0.2875000 0.8514860
v 0.0121500 0.2875000 1.0000000
v 0.0121500 0.2875000 0.8514860
v 0.0259500 0.3013000 0.8514860
v 0.0121500 0.2875000 1.0000000
v 0.0259500 0.3013000 0.8514860
v 0.0215604 0.2969104 1.0000000
v 0.0215604 0.2969104 1.0000000
v 0.0259500 0.3013000 0.8514860
v 0.0259500 0.3013000 1.0000000
v 0.0259500 0.3887000 1.0000000
v 0.0259500 0.3887000 0.8514860
v 0.0215604 0.3930896 1.0000000
v 0.0215604 0.3930896 1.0000000
v 0.0259500 0.3887000 0.8514860
v 0.0121500 0.4025000 0.8514860
v 0.0215604 0.3930896 1.0000000
v 0.0121500 0.4025000 0.8514860
v 0.0121500 0.4025000 1.0000000
v 0.0000000 0.4025000 0.8514860
v 0.0121500 0.4025000 0.8514860
v 0.0121500 0.3887000 0.8376859
v 0.0000000 0.4025000 0.8514860
v 0.0121500 0.3887000 0.8376859
v 0.0000000 0.3890591 0.8380450
v 0.0000000 0.3890591 0.8380450
v 0.0121500 0.3887000 0.8376859
v 0.0000000 0.3887000 0.8376859
v 0.0121500 0.3013000 0.8376859
v 0.0121500 0.3887000 0.8376859
v 0.0259500 0.3887000 0.8514860
v 0.0121500 0.3013000 0.8376859
v 0.0259500 0.3887000 0.8514860
v 0.0259500 0.3013000 0.8514860
v 0.0000000 0.2875000 0.8514860
v 0.0121500 0.2875000 0.8514860
v 0.0000000 0.2875000 0.8636360
v 0.0000000 0.2875000 0.8636360
v 0.0121500 0.2875000 0.8514860
v 0.0121500 0.2875000 1.0000000
v 0.0000000 0.2875000 0.8636360
v 0.0121500 0.2875000 1.0000000
v 0.0000000 0.2875000 1.0000000
v 0.0259500 0.3013000 1.0000000
v 0.0259500 0.3013000 0.8514860
v 0.0259500 0.3887000 0.8514860
v 0.0259500 0.3013000 1.0000000
v 0.0259500 0.3887000 0.8514860
v 0.0259500 0.3608993 1.0000000
v 0.0259500 0.3608993 1.0000000
v 0.0259500 0.3887000 0.8514860
v 0.0259500 0.3887000 1.0000000
v 0.0000000 0.3887000 0.8376859
v 0.0121500 0.3887000 0.8376859
v 0.0000000 0.3864256 0.8376859
v 0.0000000 0.3864256 0.8376859
v 0.0121500 0.3887000 0.8376859
v 0.0121500 0.3013000 0.8376859
v 0.0000000 0.3864256 0.8376859
v 0.0121500 0.3013000 0.8376859
v 0.0000000 0.3013000 0.8376859
v 0.0121500 0.4025000 1.0000000
v 0.0121500 0.4025000 0.8514860
v 0.0000000 0.4025000 0.8636360
v 0.0121500 0.4025000 1.0000000
v 0.0000000 0.4025000 0.8636360
v 0.0000000 0.4025000 1.0000000
v 0.0000000 0.4025000 0.8636360
v 0.0121500 0.4025000 0.8514860
v 0.0000000 0.4025000 0.8514860
v 0.0121500 0.3013000 0.1623141
v 0.0121500 0.2875000 0.1485140
v 0.0259500 0.3013000 0.1485140
v 0.0121500 0.3887000 0.1623141
v 0.0259500 0.3887000 0.1485140
v 0.0121500 0.4025000 0.1485140
v 0.0000000 0.2875000 0.1485140
v 0.0121500 0.2875000 0.1485140
v 0.0000000 0.2878591 0.1488731
v 0.0000000 0.2878591 0.1488731
v 0.0121500 0.2875000 0.1485140
v 0.0121500 0.3013000 0.1623141
v 0.0000000 0.2878591 0.1488731
v 0.0121500 0.3013000 0.1623141
v 0.0000000 0.3013000 0.1623141
v 0.0121500 0.2875000 0.1485140
v 0.0121500 0.2875000 0.0000000
v 0.0165396 0.2918896 0.0000000
v 0.0121500 0.2875000 0.1485140
v 0.0165396 0.2918896 0.0000000
v 0.0259500 0.3013000 0.0000000
v 0.0121500 0.2875000 0.1485140
v 0.0259500 0.3013000 0.0000000
v 0.0259500 0.3013000 0.1485140
v 0.0000000 0.3887000 0.1623141
v 0.0121500 0.3887000 0.1623141
v 0.0121500 0.4025000 0.1485140
v 0.0000000 0.3887000 0.1623141
v 0.0121500 0.4025000 0.1485140
v 0.0000000 0.4021409 0.1488731
v 0.0000000 0.4021409 0.1488731
v 0.0121500 0.4025000 0.1485140
v 0.0000000 0.4025000 0.1485140
v 0.0121500 0.4025000 0.1485140
v 0.0259500 0.3887000 0.1485140
v 0.0259500 0.3887000 0.0000000
v 0.0121500 0.4025000 0.1485140
v 0.0259500 0.3887000 0.0000000
v 0.0165396 0.3981104 0.0000000
v 0.0121500 0.4025000 0.1485140
v 0.0165396 0.3981104 0.0000000
v 0.0121500 0.4025000 0.0000000
v 0.0121500 0.3013000 0.1623141
v 0.0259500 0.3013000 0.1485140
v 0.0259500 0.3887000 0.1485140
v 0.0121500 0.3013000 0.1623141
v 0.0259500 0.3887000 0.1485140
v 0.0121500 0.3887000 0.1623141
v 0.0000000 0.3013000 0.1623141
v 0.0121500 0.3013000 0.1623141
v 0.0121500 0.3887000 0.1623141
v 0.0000000 0.3013000 0.1623141
v 0.0121500 0.3887000 0.1623141
v 0.0000000 0.3864256 0.1623141
v 0.0000000 0.3864256 0.1623141
v 0.0121500 0.3887000 0.1623141
v 0.0000000 0.3887000 0.1623141
v 0.0121500 0.2875000 0.0000000
v 0.0121500 0.2875000 0.1485140
v 0.0000000 0.2875000 0.1485140
v 0.0121500 0.2875000 0.0000000
v 0.0000000 0.2875000 0.1485140
v 0.0000000 0.2875000 0.0000000
v 0.0259500 0.3013000 0.1485140
v 0.0259500 0.3013000 0.0000000
v 0.0259500 0.3291007 0.0000000
v 0.0259500 0.3013000 0.1485140
v 0.0259500 0.3291007 0.0000000
v 0.0259500 0.3887000 0.0000000
v 0.0259500 0.3013000 0.1485140
v 0.0259500 0.3887000 0.0000000
v 0.0259500 0.3887000 0.1485140
v 0.0000000 0.4025000 0.1485140
v 0.0121500 0.4025000 0.1485140
v 0.0121500 0.4025000 0.0000000
v 0.0000000 0.4025000 0.1485140
v 0.0121500 0.4025000 0.0000000
v 0.0000000 0.4025000 0.0000000
v 0.9913750 0.3013000 0.8473000
v 0.9775750 0.2875000 0.8473000
v 0.9775750 0.3013000 0.8335000
v 0.9649250 0.3013000 0.8335000
v 0.9649250 0.2875000 0.8473000
v 0.9511250 0.3013000 0.8473000
v 0.9649250 0.2875000 0.8657000
v 0.9649250 0.3013000 0.8795000
v 0.9511250 0.3013000 0.8657000
v 0.9913750 0.3013000 0.8657000
v 0.9775750 0.3013000 0.8795000
v 0.9775750 0.2875000 0.8657000
v 0.9775750 0.3013000 0.8335000
v 0.9775750 0.2875000 0.8473000
v 0.9649250 0.2875000 0.8473000
v 0.9775750 0.3013000 0.8335000
v 0.9649250 0.2875000 0.8473000
v 0.9649250 0.3013000 0.8335000
v 0.9913750 0.3013000 0.8473000
v 0.9913750 0.3013000 0.8657000
v 0.9775750 0.2875000 0.8657000
v 0.9913750 0.3013000 0.8473000
v 0.9775750 0.2875000 0.8657000
v 0.9775750 0.2875000 0.8473000
v 0.9775750 0.2875000 0.8657000
v 0.9775750 0.3013000 0.8795000
v 0.9649250 0.3013000 0.8795000
v 0.9775750 0.2875000 0.8657000
v 0.9649250 0.3013000 0.8795000
v 0.9649250 0.2875000 0.8657000
v 0.9649250 0.2875000 0.8473000
v 0.9649250 0.2875000 0.8657000
v 0.9511250 0.3013000 0.8657000
v 0.9649250 0.2875000 0.8473000
v 0.9511250 0.3013000 0.8657000
v 0.9511250 0.3013000 0.8473000
v 0.9913750 0.3013000 0.8473000
v 0.9775750 0.3013000 0.8335000
v 0.9775750 1.0000000 0.8335000
v 0.9913750 0.3013000 0.8473000
v 0.9775750 1.0000000 0.8335000
v 0.9805704 1.0000000 0.8364954
v 0.9913750 0.3013000 0.8473000
v 0.9805704 1.0000000 0.8364954
v 0.9913750 1.0000000 0.8473000
v 0.9649250 0.3013000 0.8335000
v 0.9511250 0.3013000 0.8473000
v 0.9511250 1.0000000 0.8473000
v 0.9649250 0.3013000 0.8335000
v 0.9511250 1.0000000 0.8473000
v 0.9541204 1.0000000 0.8443046
v 0.9649250 0.3013000 0.8335000
v 0.9541204 1.0000000 0.8443046
v 0.9649250 1.0000000 0.8335000
v 0.9649250 0.3013000 0.8795000
v 0.9649250 1.0000000 0.8795000
v 0.9541204 1.0000000 0.8686954
v 0.9649250 0.3013000 0.8795000
v 0.9541204 1.0000000 0.8686954
v 0.9511250 1.0000000 0.8657000
v 0.9649250 0.3013000 0.8795000
v 0.9511250 1.0000000 0.8657000
v 0.9511250 0.3013000 0.8657000
v 0.9913750 0.3013000 0.8657000
v 0.9913750 1.0000000 0.8657000
v 0.9805704 1.0000000 0.8765046
v 0.9913750 0.3013000 0.8657000
v 0.9805704 1.0000000 0.8765046
v 0.9775750 1.0000000 0.8795000
v 0.9913750 0.3013000 0.8657000
v 0.9775750 1.0000000 0.8795000
v 0.9775750 0.3013000 0.8795000
v 0.9775750 0.3013000 0.8335000
v 0.9649250 0.3013000 0.8335000
v 0.9649250 1.0000000 0.8335000
v 0.9775750 0.3013000 0.8335000
v 0.9649250 1.0000000 0.8335000
v 0.9676707 1.0000000 0.8335000
v 0.9775750 0.3013000 0.8335000
v 0.9676707 1.0000000 0.8335000
v 0.9775750 1.0000000 0.8335000
v 0.9775750 0.2875000 0.8473000
v 0.9775750 0.2875000 0.8657000
v 0.9649250 0.2875000 0.8657000
v 0.9775750 0.2875000 0.8473000
v 0.9649250 0.2875000 0.8657000
v 0.9649250 0.2875000 0.8473000
v 0.9913750 0.3013000 0.8473000
v 0.9913750 1.0000000 0.8473000
v 0.9913750 1.0000000 0.8617062
v 0.9913750 0.3013000 0.8473000
v 0.9913750 1.0000000 0.8617062
v 0.9913750 1.0000000 0.8657000
v 0.9913750 0.3013000 0.8473000
v 0.9913750 1.0000000 0.8657000
v 0.9913750 0.3013000 0.8657000
v 0.9511250 0.3013000 0.8473000
v 0.9511250 0.3013000 0.8657000
v 0.9511250 1.0000000 0.8657000
v 0.9511250 0.3013000 0.8473000
v 0.9511250 1.0000000 0.8657000
v 0.9511250 1.0000000 0.8617062
v 0.9511250 0.3013000 0.8473000
v 0.9511250 1.0000000 0.8617062
v 0.9511250 1.0000000 0.8473000
v 0.9775750 0.3013000 0.8795000
v 0.9775750 1.0000000 0.8795000
v 0.9676707 1.0000000 0.8795000
v 0.9775750 0.3013000 0.8795000
v 0.9676707 1.0000000 0.8795000
v 0.9649250 1.0000000 0.8795000
v 0.9775750 0.3013000 0.8795000
v 0.9649250 1.0000000 0.8795000
v 0.9649250 0.3013000 0.8795000
v 0.9913750 0.3013000 0.1343000
v 0.9775750 0.2875000 0.1343000
v 0.9775750 0.3013000 0.1205000
v 0.9649250 0.3013000 0.1205000
v 0.9649250 0.2875000 0.1343000
v 0.9511250 0.3013000 0.1343000
v 0.9649250 0.2875000 0.1527000
v 0.9649250 0.3013000 0.1665000
v 0.9511250 0.3013000 0.1527000
v 0.9913750 0.3013000 0.1527000
v 0.9775750 0.3013000 0.1665000
v 0.9775750 0.2875000 0.1527000
v 0.9775750 0.3013000 0.1205000
v 0.9775750 0.2875000 0.1343000
v 0.9649250 0.2875000 0.1343000
v 0.9775750 0.3013000 0.1205000
v 0.9649250 0.2875000 0.1343000
v 0.9649250 0.3013000 0.1205000
v 0.9913750 0.3013000 0.1343000
v 0.9913750 0.3013000 0.1527000
v 0.9775750 0.2875000 0.1527000
v 0.9913750 0.3013000 0.1343000
v 0.9775750 0.2875000 0.1527000
v 0.9775750 0.2875000 0.1343000
v 0.9775750 0.2875000 0.1527000
v 0.9775750 0.3013000 0.1665000
v 0.9649250 0.3013000 0.1665000
v 0.9775750 0.2875000 0.1527000
v 0.9649250 0.3013000 0.1665000
v 0.9649250 0.2875000 0.1527000
v 0.9649250 0.2875000 0.1343000
v 0.9649250 0.2875000 0.1527000
v 0.9511250 0.3013000 0.1527000
v 0.9649250 0.2875000 0.1343000
v 0.9511250 0.3013000 0.1527000
v 0.9511250 0.3013000 0.1343000
v 0.9913750 0.3013000 0.1343000
v 0.9775750 0.3013000 0.1205000
v 0.9775750 1.0000000 0.1205000
v 0.9913750 0.3013000 0.1343000
v 0.9775750 1.0000000 0.1205000
v 0.9805704 1.0000000 0.1234954
v 0.9913750 0.3013000 0.1343000
v 0.9805704 1.0000000 0.1234954
v 0.9913750 1.0000000 0.1343000
v 0.9649250 0.3013000 0.1205000
v 0.9511250 0.3013000 0.1343000
v 0.9511250 1.0000000 0.1343000
v 0.9649250 0.3013000 0.1205000
v 0.9511250 1.0000000 0.1343000
v 0.9541204 1.0000000 0.1313046
v 0.9649250 0.3013000 0.1205000
v 0.9541204 1.0000000 0.1313046
v 0.9649250 1.0000000 0.1205000
v 0.9649250 0.3013000 0.1665000
v 0.9649250 1.0000000 0.1665000
v 0.9541204 1.0000000 0.1556954
v 0.9649250 0.3013000 0.1665000
v 0.9541204 1.0000000 0.1556954
v 0.9511250 1.0000000 0.1527000
v 0.9649250 0.3013000 0.1665000
v 0.9511250 1.0000000 0.1527000
v 0.9511250 0.3013000 0.1527000
v 0.9913750 0.3013000 0.1527000
v 0.9913750 1.0000000 0.1527000
v 0.9805704 1.0000000 0.1635046
v 0.9913750 0.3013000 0.1527000
v 0.9805704 1.0000000 0.1635046
v 0.9775750 1.0000000 0.1665000
v 0.9913750 0.3013000 0.1527000
v 0.9775750 1.0000000 0.1665000
v 0.9775750 0.3013000 0.1665000
v 0.9775750 0.3013000 0.1205000
v 0.9649250 0.3013000 0.1205000
v 0.9649250 1.0000000 0.1205000
v 0.9775750 0.3013000 0.1205000
v 0.9649250 1.0000000 0.1205000
v 0.9676707 1.0000000 0.1205000
v 0.9775750 0.3013000 0.1205000
v 0.9676707 1.0000000 0.1205000
v 0.9775750 1.0000000 0.1205000
v 0.9775750 0.2875000 0.1343000
v 0.9775750 0.2875000 0.1527000
v 0.9649250 0.2875000 0.1527000
v 0.9775750 0.2875000 0.1343000
v 0.9649250 0.2875000 0.1527000
v 0.9649250 0.2875000 0.1343000
v 0.9913750 0.3013000 0.1343000
v 0.9913750 1.0000000 0.1343000
v 0.9913750 1.0000000 0.1487062
v 0.9913750 0.3013000 0.1343000
v 0.9913750 1.0000000 0.1487062
v 0.9913750 1.0000000 0.1527000
v 0.9913750 0.3013000 0.1343000
v 0.9913750 1.0000000 0.1527000
v 0.9913750 0.3013000 0.1527000
v 0.9511250 0.3013000 0.1343000
v 0.9511250 0.3013000 0.1527000
v 0.9511250 1.0000000 0.1527000
v 0.9511250 0.3013000 0.1343000
v 0.9511250 1.0000000 0.1527000
v 0.9511250 1.0000000 0.1487062
v 0.9511250 0.3013000 0.1343000
v 0.9511250 1.0000000 0.1487062
v 0.9511250 1.0000000 0.1343000
v 0.9775750 0.3013000 0.1665000
v 0.9775750 1.0000000 0.1665000
v 0.9676707 1.0000000 0.1665000
v 0.9775750 0.3013000 0.1665000
v 0.9676707 1.0000000 0.1665000
v 0.9649250 1.0000000 0.1665000
v 0.9775750 0.3013000 0.1665000
v 0.9649250 1.0000000 0.1665000
v 0.9649250 0.3013000 0.1665000
v 0.8735000 0.0598000 1.0000000
v 0.8735000 0.0598000 0.0000000
v 0.8839800 0.0493200 0.0000000
v 0.8735000 0.0598000 1.0000000
v 0.8839800 0.0493200 0.0000000
v 0.8768200 0.0564800 1.0000000
v 0.8768200 0.0564800 1.0000000
v 0.8839800 0.0493200 0.0000000
v 0.8873000 0.0460000 0.0000000
v 0.8768200 0.0564800 1.0000000
v 0.8873000 0.0460000 0.0000000
v 0.8873000 0.0460000 1.0000000
v 0.8873000 0.2760000 1.0000000
v 0.8873000 0.2760000 0.0000000
v 0.8839800 0.2726800 0.0000000
v 0.8873000 0.2760000 1.0000000
v 0.8839800 0.2726800 0.0000000
v 0.8768200 0.2655200 1.0000000
v 0.8768200 0.2655200 1.0000000
v 0.8839800 0.2726800 0.0000000
v 0.8735000 0.2622000 0.0000000
v 0.8768200 0.2655200 1.0000000
v 0.8735000 0.2622000 0.0000000
v 0.8735000 0.2622000 1.0000000
v 0.8873000 0.0460000 1.0000000
v 0.8873000 0.0460000 0.0000000
v 1.0000000 0.0460000 0.0000000
v 0.8873000 0.0460000 1.0000000
v 1.0000000 0.0460000 0.0000000
v 1.0000000 0.0460000 0.5000000
v 0.8873000 0.0460000 1.0000000
v 1.0000000 0.0460000 0.5000000
v 0.9415274 0.0460000 1.0000000
v 0.9415274 0.0460000 1.0000000
v 1.0000000 0.0460000 0.5000000
v 1.0000000 0.0460000 1.0000000
v 0.8735000 0.2622000 1.0000000
v 0.8735000 0.2622000 0.0000000
v 0.8735000 0.2135060 0.0000000
v 0.8735000 0.2622000 1.0000000
v 0.8735000 0.2135060 0.0000000
v 0.8735000 0.1084940 1.0000000
v 0.8735000 0.1084940 1.0000000
v 0.8735000 0.2135060 0.0000000
v 0.8735000 0.0598000 0.0000000
v 0.8735000 0.1084940 1.0000000
v 0.8735000 0.0598000 0.0000000
v 0.8735000 0.0598000 1.0000000
v 1.0000000 0.2760000 1.0000000
v 1.0000000 0.2760000 0.5000000
v 0.9415274 0.2760000 1.0000000
v 0.9415274 0.2760000 1.0000000
v 1.0000000 0.2760000 0.5000000
v 1.0000000 0.2760000 0.0000000
v 0.9415274 0.2760000 1.0000000
v 1.0000000 0.2760000 0.0000000
v 0.8873000 0.2760000 0.0000000
v 0.9415274 0.2760000 1.0000000
v 0.8873000 0.2760000 0.0000000
v 0.8873000 0.2760000 1.0000000
v 1.0000000 0.1955000 0.0000000
v 1.0000000 0.1955000 0.5000000
v 0.0000000 0.1955000 0.9011202
v 1.0000000 0.1955000 0.0000000
v 0.0000000 0.1955000 0.9011202
v 0.0000000 0.1955000 0.0000000
v 0.0000000 0.1955000 0.9011202
v 1.0000000 0.1955000 0.5000000
v 1.0000000 0.1955000 1.0000000
v 0.0000000 0.1955000 0.9011202
v 1.0000000 0.1955000 1.0000000
v 0.0000000 0.1955000 1.0000000
v 1.0000000 0.2530000 1.0000000
v 1.0000000 0.2530000 0.5000000
v 0.0000000 0.2530000 0.9011202
v 1.0000000 0.2530000 1.0000000
v 0.0000000 0.2530000 0.9011202
v 0.0000000 0.2530000 1.0000000
v 0.0000000 0.2530000 0.9011202
v 1.0000000 0.2530000 0.5000000
v 1.0000000 0.2530000 0.0000000
v 0.0000000 0.2530000 0.9011202
v 1.0000000 0.2530000 0.0000000
v 0.0000000 0.2530000 0.0000000
vt 0.6594769 0.0487454
vt 0.6711969 0.0492861
vt 0.6594769 0.0438731
vt 0.6594769 0.0625000
vt 0.6809553 0.0625000
vt 0.6770658 0.0572332
vt 0.6594769 0.0625000
vt 0.6770658 0.0572332
vt 0.6594769 0.0536181
vt 0.6594769 0.0536181
vt 0.6770658 0.0572332
vt 0.6711969 0.0492861
vt 0.6594769 0.0536181
vt 0.6711969 0.0492861
vt 0.6594769 0.0487454
vt 0.6594769 0.0762546
vt 0.6711969 0.0757139
vt 0.6754738 0.0699225
vt 0.6594769 0.0762546
vt 0.6754738 0.0699225
vt 0.6594769 0.0673727
vt 0.6594769 0.0673727
vt 0.6754738 0.0699225
vt 0.6809553 0.0625000
vt 0.6594769 0.0673727
vt 0.6809553 0.0625000
vt 0.6594769 0.0625000
vt 0.6600645 0.0808555
vt 0.6594769 0.0807953
vt 0.6594769 0.0811269
vt 0.6594769 0.0807953
vt 0.6600645 0.0808555
vt 0.6711969 0.0757139
vt 0.6594769 0.0807953
vt 0.6711969 0.0757139
vt 0.6594769 0.0762546
vt 0.0064174 0.1309418
vt 0.0082589 0.1314174
vt 0.0074219 0.1305043
vt 0.1164063 0.1301048
vt 0.1164063 0.1322545
vt 0.1210938 0.1316711
vt 0.1164063 0.1289062
vt 0.1164063 0.1305043
vt 0.1188616 0.1305043
vt 0.1177455 0.1305043
vt 0.1210938 0.1305043
vt 0.1177455 0.1289062
vt 0.0074219 0.1305043
vt 0.0082589 0.1314174
vt 0.1164063 0.1322545
vt 0.0074219 0.1305043
vt 0.1164063 0.1322545
vt 0.1164063 0.1301048
vt 0.0064174 0.1309418
vt 0.0039062 0.2427455
vt 0.0085937 0.2427455
vt 0.0064174 0.1309418
vt 0.0085937 0.2427455
vt 0.0082589 0.1314174
vt 0.0085937 0.2427455
vt 0.0085937 0.2460938
vt 0.1164063 0.2460938
vt 0.0085937 0.2427455
vt 0.1164063 0.2460938
vt 0.1164063 0.2427455
vt 0.1164063 0.1322545
vt 0.1164063 0.2427455
vt 0.1210938 0.2427455
vt 0.1164063 0.1322545
vt 0.1210938 0.2427455
vt 0.1210938 0.1316711
vt 0.0064174 0.1309418
vt 0.0074219 0.1305043
vt 0.0074219 0.2087489
vt 0.0064174 0.1309418
vt 0.0074219 0.2087489
vt 0.0071069 0.2088861
vt 0.0064174 0.1309418
vt 0.0071069 0.2088861
vt 0.0069920 0.2088861
vt 0.1164063 0.1301048
vt 0.1210938 0.1316711
vt 0.1210938 0.2091148
vt 0.1164063 0.1301048
vt 0.1210938 0.2091148
vt 0.1196238 0.2086236
vt 0.1164063 0.1301048
vt 0.1196238 0.2086236
vt 0.1164063 0.2086236
vt 0.1164063 0.1305043
vt 0.1164063 0.2087489
vt 0.1179001 0.2087489
vt 0.1164063 0.1305043
vt 0.1179001 0.2087489
vt 0.1186701 0.2087489
vt 0.1164063 0.1305043
vt 0.1186701 0.2087489
vt 0.1188616 0.1305043
vt 0.1177455 0.1305043
vt 0.1177455 0.2087489
vt 0.1200437 0.2087489
vt 0.1177455 0.1305043
vt 0.1200437 0.2087489
vt 0.1210937 0.2087489
vt 0.1177455 0.1305043
vt 0.1210937 0.2087489
vt 0.1210938 0.1305043
vt 0.0074219 0.1305043
vt 0.1164063 0.1301048
vt 0.1164063 0.2086236
vt 0.0074219 0.1305043
vt 0.1164063 0.2086236
vt 0.0822297 0.2087489
vt 0.0074219 0.1305043
vt 0.0822297 0.2087489
vt 0.0074219 0.2087489
vt 0.0082589 0.1314174
vt 0.0085937 0.2427455
vt 0.1164063 0.2427455
vt 0.0082589 0.1314174
vt 0.1164063 0.2427455
vt 0.1164063 0.1322545
vt 0.0064174 0.1309418
vt 0.0069920 0.2088861
vt 0.0828339 0.2088861
vt 0.0064174 0.1309418
vt 0.0828339 0.2088861
vt 0.1177455 0.2087489
vt 0.0064174 0.1309418
vt 0.1177455 0.2087489
vt 0.1177455 0.1305043
vt 0.0072545 0.1305043
vt 0.1188616 0.1305043
vt 0.1186701 0.2087489
vt 0.0072545 0.1305043
vt 0.1186701 0.2087489
vt 0.0836710 0.2087489
vt 0.0072545 0.1305043
vt 0.0836710 0.2087489
vt 0.0072545 0.2087489
vt 0.0085937 0.1305043
vt 0.0085937 0.2087489
vt 0.0825971 0.2087489
vt 0.0085937 0.1305043
vt 0.0825971 0.2087489
vt 0.1164063 0.2087489
vt 0.0085937 0.1305043
vt 0.1164063 0.2087489
vt 0.1164063 0.1305043
vt 0.2428234 0.0039062
vt 0.2428234 0.0179687
vt 0.2439135 0.0179688
vt 0.2428234 0.1194586
vt 0.2436410 0.1070313
vt 0.2428234 0.1070312
vt 0.2399441 0.1210938
vt 0.2428234 0.1210938
vt 0.2399441 0.1210087
vt 0.2399441 0.1210087
vt 0.2428234 0.1210938
vt 0.2428234 0.1178234
vt 0.2399441 0.1210087
vt 0.2428234 0.1178234
vt 0.2399441 0.1178234
vt 0.2428234 0.0826283
vt 0.2428234 0.1178234
vt 0.2460938 0.1178234
vt 0.2428234 0.0826283
vt 0.2460938 0.1178234
vt 0.2450535 0.0826283
vt 0.2450535 0.0826283
vt 0.2460938 0.1178234
vt 0.2460938 0.0837726
vt 0.2081858 0.1070313
vt 0.2436410 0.1070313
vt 0.2081858 0.1115044
vt 0.2081858 0.1115044
vt 0.2436410 0.1070313
vt 0.2428234 0.1194586
vt 0.2081858 0.1115044
vt 0.2428234 0.1194586
vt 0.2076283 0.1199787
vt 0.2399441 0.1194160
vt 0.2428234 0.1194586
vt 0.2428234 0.1070312
vt 0.2399441 0.1194160
vt 0.2428234 0.1070312
vt 0.2399441 0.1073120
vt 0.2399441 0.1073120
vt 0.2428234 0.1070312
vt 0.2399441 0.1070312
vt 0.2428234 0.0179687
vt 0.2428234 0.1070312
vt 0.2436410 0.1070313
vt 0.2428234 0.0179687
vt 0.2436410 0.1070313
vt 0.2439135 0.0179688
vt 0.2399441 0.1178234
vt 0.2428234 0.1178234
vt 0.2399441 0.1149228
vt 0.2399441 0.1149228
vt 0.2428234 0.1178234
vt 0.2428234 0.0826283
vt 0.2399441 0.1149228
vt 0.2428234 0.0826283
vt 0.2399441 0.0826070
vt 0.2083716 0.0179688
vt 0.2439135 0.0179688
vt 0.2436410 0.1070313
vt 0.2083716 0.0179688
vt 0.2436410 0.1070313
vt 0.2081858 0.0787018
vt 0.2081858 0.0787018
vt 0.2436410 0.1070313
vt 0.2081858 0.1070313
vt 0.2399441 0.1070312
vt 0.2428234 0.1070312
vt 0.2399441 0.1047136
vt 0.2399441 0.1047136
vt 0.2428234 0.1070312
vt 0.2428234 0.0179687
vt 0.2399441 0.1047136
vt 0.2428234 0.0179687
vt 0.2399441 0.0179687
vt 0.2428234 0.0837434
vt 0.2428234 0.1194586
vt 0.2399441 0.1165367
vt 0.2428234 0.0837434
vt 0.2399441 0.1165367
vt 0.2399441 0.0837434
vt 0.2399441 0.1165367
vt 0.2428234 0.1194586
vt 0.2399441 0.1194160
vt 0.2428234 0.0144531
vt 0.2428234 0.0071766
vt 0.2460938 0.0107740
vt 0.2428234 0.1070312
vt 0.2460938 0.1070313
vt 0.2428234 0.1210938
vt 0.2399441 0.0071553
vt 0.2428234 0.0071766
vt 0.2399228 0.0074574
vt 0.2399228 0.0074574
vt 0.2428234 0.0071766
vt 0.2428234 0.0144531
vt 0.2399228 0.0074574
vt 0.2428234 0.0144531
vt 0.2399228 0.0145446
vt 0.2428234 0.0071766
vt 0.2428234 0.0423717
vt 0.2438637 0.0423717
vt 0.2428234 0.0071766
vt 0.2438637 0.0423717
vt 0.2460938 0.0448248
vt 0.2428234 0.0071766
vt 0.2460938 0.0448248
vt 0.2460938 0.0107740
vt 0.2399228 0.1070312
vt 0.2428234 0.1070312
vt 0.2428234 0.1210938
vt 0.2399228 0.1070312
vt 0.2428234 0.1210938
vt 0.2399228 0.1207279
vt 0.2399228 0.1207279
vt 0.2428234 0.1210938
vt 0.2399441 0.1210938
vt 0.1321766 0.1210938
vt 0.1321766 0.1070312
vt 0.1676318 0.1070312
vt 0.1321766 0.1210938
vt 0.1676318 0.1070312
vt 0.1676318 0.1166207
vt 0.1321766 0.1210938
vt 0.1676318 0.1166207
vt 0.1673717 0.1205737
vt 0.2428234 0.0144531
vt 0.2460938 0.0107740
vt 0.2460938 0.1070313
vt 0.2428234 0.0144531
vt 0.2460938 0.1070313
vt 0.2428234 0.1070312
vt 0.2399228 0.0145446
vt 0.2428234 0.0144531
vt 0.2428234 0.1070312
vt 0.2399228 0.0145446
vt 0.2428234 0.1070312
vt 0.2399228 0.1047136
vt 0.2399228 0.1047136
vt 0.2428234 0.1070312
vt 0.2399228 0.1070312
vt 0.2428234 0.0423717
vt 0.2428234 0.0071766
vt 0.2399441 0.0071553
vt 0.2428234 0.0423717
vt 0.2399441 0.0071553
vt 0.2399441 0.0423504
vt 0.1321766 0.0179687
vt 0.1677185 0.0179687
vt 0.1676318 0.0462982
vt 0.1321766 0.0179687
vt 0.1676318 0.0462982
vt 0.1676318 0.1070312
vt 0.1321766 0.0179687
vt 0.1676318 0.1070312
vt 0.1321766 0.1070312
vt 0.2399441 0.0071766
vt 0.2428234 0.0071766
vt 0.2428234 0.0428918
vt 0.2399441 0.0071766
vt 0.2428234 0.0428918
vt 0.2399441 0.0428918
vt 0.9052734 0.0140137
vt 0.9178292 0.0302734
vt 0.9090402 0.0056641
vt 0.9559152 0.0052246
vt 0.9559152 0.0390625
vt 0.9960938 0.0279297
vt 0.9559151 0.0039062
vt 0.9559152 0.0056641
vt 0.9726562 0.0056641
vt 0.9609374 0.0056641
vt 0.9960938 0.0056641
vt 0.9609375 0.0039062
vt 0.9090402 0.0056641
vt 0.9178292 0.0302734
vt 0.9559152 0.0390625
vt 0.9090402 0.0056641
vt 0.9559152 0.0390625
vt 0.9559152 0.0052246
vt 0.9052734 0.0140137
vt 0.8789062 0.0859375
vt 0.9190849 0.0859375
vt 0.9052734 0.0140137
vt 0.9190849 0.0859375
vt 0.9178292 0.0302734
vt 0.9190849 0.0859375
vt 0.9190848 0.1210938
vt 0.9559152 0.1210938
vt 0.9190849 0.0859375
vt 0.9559152 0.1210938
vt 0.9559152 0.0859375
vt 0.9559152 0.0390625
vt 0.9559152 0.0859375
vt 0.9960938 0.0859375
vt 0.9559152 0.0390625
vt 0.9960938 0.0859375
vt 0.9960938 0.0279297
vt 0.9052734 0.0140137
vt 0.9090402 0.0056641
vt 0.9090402 0.0946629
vt 0.9052734 0.0140137
vt 0.9090402 0.0946629
vt 0.9082226 0.0964752
vt 0.9052734 0.0140137
vt 0.9082226 0.0964752
vt 0.9121549 0.0964752
vt 0.9559152 0.0052246
vt 0.9960938 0.0279297
vt 0.9960938 0.0994957
vt 0.9559152 0.0052246
vt 0.9960938 0.0994957
vt 0.9873728 0.0945675
vt 0.9559152 0.0052246
vt 0.9873728 0.0945675
vt 0.9559151 0.0945675
vt 0.9559152 0.0056641
vt 0.9559151 0.0946629
vt 0.9667288 0.0946629
vt 0.9559152 0.0056641
vt 0.9667288 0.0946629
vt 0.9703625 0.0946629
vt 0.9559152 0.0056641
vt 0.9703625 0.0946629
vt 0.9726562 0.0056641
vt 0.9609374 0.0056641
vt 0.9609375 0.0946629
vt 0.9884629 0.0946629
vt 0.9609374 0.0056641
vt 0.9884629 0.0946629
vt 0.9960938 0.0946629
vt 0.9609374 0.0056641
vt 0.9960938 0.0946629
vt 0.9960938 0.0056641
vt 0.9090402 0.0056641
vt 0.9559152 0.0052246
vt 0.9559151 0.0945675
vt 0.9090402 0.0056641
vt 0.9559151 0.0945675
vt 0.9457407 0.0946629
vt 0.9090402 0.0056641
vt 0.9457407 0.0946629
vt 0.9090402 0.0946629
vt 0.9178292 0.0302734
vt 0.9190849 0.0859375
vt 0.9559152 0.0859375
vt 0.9178292 0.0302734
vt 0.9559152 0.0859375
vt 0.9559152 0.0390625
vt 0.9052734 0.0140137
vt 0.9121549 0.0964752
vt 0.9488553 0.0964752
vt 0.9052734 0.0140137
vt 0.9488553 0.0964752
vt 0.9609375 0.0946629
vt 0.9052734 0.0140137
vt 0.9609375 0.0946629
vt 0.9609374 0.0056641
vt 0.9140626 0.0056641
vt 0.9726562 0.0056641
vt 0.9703625 0.0946629
vt 0.9140626 0.0056641
vt 0.9703625 0.0946629
vt 0.9576445 0.0946629
vt 0.9140626 0.0056641
vt 0.9576445 0.0946629
vt 0.9140625 0.0946629
vt 0.9190848 0.0056641
vt 0.9190848 0.0946629
vt 0.9479209 0.0946629
vt 0.9190848 0.0056641
vt 0.9479209 0.0946629
vt 0.9559151 0.0946629
vt 0.9190848 0.0056641
vt 0.9559151 0.0946629
vt 0.9559152 0.0056641
vt 0.9052734 0.0140137
vt 0.9178292 0.0302734
vt 0.9090402 0.0056641
vt 0.9559152 0.0052246
vt 0.9559152 0.0390625
vt 0.9960938 0.0279297
vt 0.9559151 0.0039062
vt 0.9559152 0.0056641
vt 0.9726562 0.0056641
vt 0.9609374 0.0056641
vt 0.9960938 0.0056641
vt 0.9609375 0.0039062
vt 0.9090402 0.0056641
vt 0.9178292 0.0302734
vt 0.9559152 0.0390625
vt 0.9090402 0.0056641
vt 0.9559152 0.0390625
vt 0.9559152 0.0052246
vt 0.9052734 0.0140137
vt 0.8789062 0.0859375
vt 0.9190849 0.0859375
vt 0.9052734 0.0140137
vt 0.9190849 0.0859375
vt 0.9178292 0.0302734
vt 0.9190849 0.0859375
vt 0.9190848 0.1210938
vt 0.9559152 0.1210938
vt 0.9190849 0.0859375
vt 0.9559152 0.1210938
vt 0.9559152 0.0859375
vt 0.9559152 0.0390625
vt 0.9559152 0.0859375
vt 0.9960938 0.0859375
vt 0.9559152 0.0390625
vt 0.9960938 0.0859375
vt 0.9960938 0.0279297
vt 0.9052734 0.0140137
vt 0.9090402 0.0056641
vt 0.9090402 0.0946629
vt 0.9052734 0.0140137
vt 0.9090402 0.0946629
vt 0.9082226 0.0964752
vt 0.9052734 0.0140137
vt 0.9082226 0.0964752
vt 0.9121549 0.0964752
vt 0.9559152 0.0052246
vt 0.9960938 0.0279297
vt 0.9960938 0.0994957
vt 0.9559152 0.0052246
vt 0.9960938 0.0994957
vt 0.9873728 0.0945675
vt 0.9559152 0.0052246
vt 0.9873728 0.0945675
vt 0.9559151 0.0945675
vt 0.9559152 0.0056641
vt 0.9559151 0.0946629
vt 0.9667288 0.0946629
vt 0.9559152 0.0056641
vt 0.9667288 0.0946629
vt 0.9703625 0.0946629
vt 0.9559152 0.0056641
vt 0.9703625 0.0946629
vt 0.9726562 0.0056641
vt 0.9609374 0.0056641
vt 0.9609375 0.0946629
vt 0.9884629 0.0946629
vt 0.9609374 0.0056641
vt 0.9884629 0.0946629
vt 0.9960938 0.0946629
vt 0.9609374 0.0056641
vt 0.9960938 0.0946629
vt 0.9960938 0.0056641
vt 0.9090402 0.0056641
vt 0.9559152 0.0052246
vt 0.9559151 0.0945675
vt 0.9090402 0.0056641
vt 0.9559151 0.0945675
vt 0.9457407 0.0946629
vt 0.9090402 0.0056641
vt 0.9457407 0.0946629
vt 0.9090402 0.0946629
vt 0.9178292 0.0302734
vt 0.9190849 0.0859375
vt 0.9559152 0.0859375
vt 0.9178292 0.0302734
vt 0.9559152 0.0859375
vt 0.9559152 0.0390625
vt 0.9052734 0.0140137
vt 0.9121549 0.0964752
vt 0.9488553 0.0964752
vt 0.9052734 0.0140137
vt 0.9488553 0.0964752
vt 0.9609375 0.0946629
vt 0.9052734 0.0140137
vt 0.9609375 0.0946629
vt 0.9609374 0.0056641
vt 0.9140626 0.0056641
vt 0.9726562 0.0056641
vt 0.9703625 0.0946629
vt 0.9140626 0.0056641
vt 0.9703625 0.0946629
vt 0.9576445 0.0946629
vt 0.9140626 0.0056641
vt 0.9576445 0.0946629
vt 0.9140625 0.0946629
vt 0.9190848 0.0056641
vt 0.9190848 0.0946629
vt 0.9479209 0.0946629
vt 0.9190848 0.0056641
vt 0.9479209 0.0946629
vt 0.9559151 0.0946629
vt 0.9190848 0.0056641
vt 0.9559151 0.0946629
vt 0.9559152 0.0056641
vt 0.0043774 0.1610624
vt 0.0040555 0.2185906
vt 0.0089098 0.2185906
vt 0.0043774 0.1610624
vt 0.0089098 0.2185906
vt 0.0059152 0.1610624
vt 0.0059152 0.1610624
vt 0.0089098 0.2185906
vt 0.0099636 0.2174214
vt 0.0059152 0.1610624
vt 0.0099636 0.2174214
vt 0.0092418 0.1573717
vt 0.0339375 0.2460938
vt 0.0929175 0.2460938
vt 0.0924713 0.2444022
vt 0.0339375 0.2460938
vt 0.0924713 0.2444022
vt 0.0325288 0.2407541
vt 0.0325288 0.2407541
vt 0.0924713 0.2444022
vt 0.0924712 0.2390625
vt 0.0325288 0.2407541
vt 0.0924712 0.2390625
vt 0.0325288 0.2390625
vt 0.0092418 0.1573717
vt 0.0099636 0.2174214
vt 0.0621653 0.2174214
vt 0.0092418 0.1573717
vt 0.0621653 0.2174214
vt 0.0618044 0.1873965
vt 0.0092418 0.1573717
vt 0.0618044 0.1873965
vt 0.0343595 0.1573717
vt 0.0343595 0.1573717
vt 0.0618044 0.1873965
vt 0.0618044 0.1574253
vt 0.0325288 0.2390625
vt 0.0924712 0.2390625
vt 0.0924215 0.2138792
vt 0.0325288 0.2390625
vt 0.0924215 0.2138792
vt 0.0323717 0.1595698
vt 0.0323717 0.1595698
vt 0.0924215 0.2138792
vt 0.0924215 0.1355644
vt 0.0323717 0.1595698
vt 0.0924215 0.1355644
vt 0.0323717 0.1347596
vt 0.0628347 0.1576283
vt 0.0631956 0.1877068
vt 0.0357507 0.1576283
vt 0.0357507 0.1576283
vt 0.0631956 0.1877068
vt 0.0631956 0.2176781
vt 0.0357507 0.1576283
vt 0.0631956 0.2176781
vt 0.0102983 0.2174712
vt 0.0357507 0.1576283
vt 0.0102983 0.2174712
vt 0.0102983 0.1575288
vt 0.0625223 0.2145643
vt 0.0625418 0.1874299
vt 0.0406900 0.1656616
vt 0.0625223 0.2145643
vt 0.0406900 0.1656616
vt 0.0406549 0.2145643
vt 0.0406900 0.1656616
vt 0.0625418 0.1874299
vt 0.0625418 0.1603283
vt 0.0406900 0.1656616
vt 0.0625418 0.1603283
vt 0.0406900 0.1603020
vt 0.0624777 0.1604732
vt 0.0624582 0.1876403
vt 0.0406064 0.1658457
vt 0.0624777 0.1604732
vt 0.0406064 0.1658457
vt 0.0406103 0.1604732
vt 0.0406064 0.1658457
vt 0.0624582 0.1876403
vt 0.0624582 0.2147419
vt 0.0406064 0.1658457
vt 0.0624582 0.2147419
vt 0.0406064 0.2146894
vn 0.4027387 -0.8841264 0.2369009
vn 0.4027387 -0.8841264 0.2369008
vn 0.4053614 -0.8581523 0.3150503
vn 0.4027385 -0.9153151 0.0000000
vn 0.4027385 -0.9153151 0.0000000
vn 0.4053703 -0.9103939 0.0828126
vn 0.4027385 -0.9153151 0.0000000
vn 0.4053703 -0.9103939 0.0828126
vn 0.4055578 -0.9033280 0.1397188
vn 0.4055578 -0.9033280 0.1397188
vn 0.4053703 -0.9103939 0.0828126
vn 0.4027387 -0.8841264 0.2369008
vn 0.4055578 -0.9033280 0.1397188
vn 0.4027387 -0.8841264 0.2369008
vn 0.4027387 -0.8841264 0.2369009
vn 0.4027387 -0.8841264 -0.2369009
vn 0.4027387 -0.8841264 -0.2369008
vn 0.4054422 -0.9016434 -0.1505181
vn 0.4027387 -0.8841264 -0.2369009
vn 0.4054422 -0.9016434 -0.1505181
vn 0.4055578 -0.9087098 -0.0988404
vn 0.4055578 -0.9087098 -0.0988404
vn 0.4054422 -0.9016434 -0.1505181
vn 0.4027385 -0.9153151 0.0000000
vn 0.4055578 -0.9087098 -0.0988404
vn 0.4027385 -0.9153151 0.0000000
vn 0.4027385 -0.9153151 0.0000000
vn 0.4055732 -0.8514631 -0.3324469
vn 0.4055579 -0.8521644 -0.3306638
vn 0.4055987 -0.8500893 -0.3359136
vn 0.4055579 -0.8521644 -0.3306638
vn 0.4055732 -0.8514631 -0.3324469
vn 0.4027387 -0.8841264 -0.2369008
vn 0.4055579 -0.8521644 -0.3306638
vn 0.4027387 -0.8841264 -0.2369008
vn 0.4027387 -0.8841264 -0.2369009
vn -0.5773479 -0.5773507 0.5773522
vn -0.5773479 -0.5773507 0.5773522
vn -0.5773479 -0.5773507 0.5773522
vn 0.5773479 -0.5773507 0.5773522
vn 0.5773479 -0.5773507 0.5773522
vn 0.5773479 -0.5773507 0.5773522
vn 0.5773479 -0.5773507 -0.5773522
vn 0.5773479 -0.5773507 -0.5773522
vn 0.5773479 -0.5773507 -0.5773522
vn -0.5773479 -0.5773507 -0.5773522
vn -0.5773479 -0.5773507 -0.5773522
vn -0.5773479 -0.5773507 -0.5773522
vn 0.0000000 -0.7071070 0.7071065
vn 0.0000000 -0.7071070 0.7071065
vn 0.0000000 -0.7071070 0.7071065
vn 0.0000000 -0.7071070 0.7071065
vn 0.0000000 -0.7071070 0.7071065
vn 0.0000000 -0.7071070 0.7071065
vn -0.7071069 -0.7071066 0.0000000
vn -0.7071069 -0.7071066 0.0000000
vn -0.7071069 -0.7071066 0.0000000
vn -0.7071069 -0.7071066 0.0000000
vn -0.7071069 -0.7071066 0.0000000
vn -0.7071069 -0.7071066 0.0000000
vn 0.0000000 -0.7071070 -0.7071065
vn 0.0000000 -0.7071070 -0.7071065
vn 0.0000000 -0.7071070 -0.7071065
vn 0.0000000 -0.7071070 -0.7071065
vn 0.0000000 -0.7071070 -0.7071065
vn 0.0000000 -0.7071070 -0.7071065
vn 0.7071069 -0.7071066 0.0000000
vn 0.7071069 -0.7071066 0.0000000
vn 0.7071069 -0.7071066 0.0000000
vn 0.7071069 -0.7071066 0.0000000
vn 0.7071069 -0.7071066 0.0000000
vn 0.7071069 -0.7071066 0.0000000
vn -0.7071067 0.0000000 0.7071068
vn -0.7071067 0.0000000 0.7071068
vn -0.7071067 0.0000000 0.7071068
vn -0.7071067 0.0000000 0.7071068
vn -0.7071067 0.0000000 0.7071068
vn -0.7071067 0.0000000 0.7071068
vn -0.7071067 0.0000000 0.7071068
vn -0.7071067 0.0000000 0.7071068
vn -0.7071067 0.0000000 0.7071068
vn 0.7071067 0.0000000 0.7071068
vn 0.7071067 0.0000000 0.7071068
vn 0.7071067 0.0000000 0.7071068
vn 0.7071067 0.0000000 0.7071068
vn 0.7071067 0.0000000 0.7071068
vn 0.7071067 0.0000000 0.7071068
vn 0.7071067 0.0000000 0.7071068
vn 0.7071067 0.0000000 0.7071068
vn 0.7071067 0.0000000 0.7071068
vn 0.7071067 0.0000000 -0.7071068
vn 0.7071067 0.0000000 -0.7071068
vn 0.7071067 0.0000000 -0.7071068
vn 0.7071067 0.0000000 -0.7071068
vn 0.7071067 0.0000000 -0.7071068
vn 0.7071067 0.0000000 -0.7071068
vn 0.7071067 0.0000000 -0.7071068
vn 0.7071067 0.0000000 -0.7071068
vn 0.7071067 0.0000000 -0.7071068
vn -0.7071067 0.0000000 -0.7071068
vn -0.7071067 0.0000000 -0.7071068
vn -0.7071067 0.0000000 -0.7071068
vn -0.7071067 0.0000000 -0.7071068
vn -0.7071067 0.0000000 -0.7071068
vn -0.7071067 0.0000000 -0.7071068
vn -0.7071067 0.0000000 -0.7071068
vn -0.7071067 0.0000000 -0.7071068
vn -0.7071067 0.0000000 -0.7071068
vn 0.0000000 0.0000000 1.0000000
vn 0.0000000 0.0000000 1.0000000
vn 0.0000000 0.0000000 1.0000000
vn 0.0000000 0.0000000 1.0000000
vn 0.0000000 0.0000000 1.0000000
vn 0.0000000 0.0000000 1.0000000
vn 0.0000000 0.0000000 1.0000000
vn 0.0000000 0.0000000 1.0000000
vn 0.0000000 0.0000000 1.0000000
vn 0.0000000 -1.0000000 0.0000000
vn 0.0000000 -1.0000000 0.0000000
vn 0.0000000 -1.0000000 0.0000000
vn 0.0000000 -1.0000000 0.0000000
vn 0.0000000 -1.0000000 0.0000000
vn 0.0000000 -1.0000000 0.0000000
vn -1.0000000 0.0000000 0.0000000
vn -1.0000000 0.0000000 0.0000000
vn -1.0000000 0.0000000 0.0000000
vn -1.0000000 0.0000000 0.0000000
vn -1.0000000 0.0000000 0.0000000
vn -1.0000000 0.0000000 0.0000000
vn -1.0000000 0.0000000 0.0000000
vn -1.0000000 0.0000000 0.0000000
vn -1.0000000 0.0000000 0.0000000
vn 1.0000000 0.0000000 0.0000000
vn 1.0000000 0.0000000 0.0000000
vn 1.0000000 0.0000000 0.0000000
vn 1.0000000 0.0000000 0.0000000
vn 1.0000000 0.0000000 0.0000000
vn 1.0000000 0.0000000 0.0000000
vn 1.0000000 0.0000000 0.0000000
vn 1.0000000 0.0000000 0.0000000
vn 1.0000000 0.0000000 0.0000000
vn 0.0000000 0.0000000 -1.0000000
vn 0.0000000 0.0000000 -1.0000000
vn 0.0000000 0.0000000 -1.0000000
vn 0.0000000 0.0000000 -1.0000000
vn 0.0000000 0.0000000 -1.0000000
vn 0.0000000 0.0000000 -1.0000000
vn 0.0000000 0.0000000 -1.0000000
vn 0.0000000 0.0000000 -1.0000000
vn 0.0000000 0.0000000 -1.0000000
vn 0.5773498 -0.5773505 -0.5773505
vn 0.5773498 -0.5773505 -0.5773505
vn 0.5773498 -0.5773505 -0.5773505
vn 0.5773498 0.5773505 -0.5773505
vn 0.5773498 0.5773505 -0.5773505
vn 0.5773498 0.5773505 -0.5773505
vn 0.0000000 -0.7071066 -0.7071069
vn 0.0000000 -0.7071066 -0.7071069
vn 0.0000000 -0.7071066 -0.7071069
vn 0.0000000 -0.7071066 -0.7071069
vn 0.0000000 -0.7071066 -0.7071069
vn 0.0000000 -0.7071066 -0.7071069
vn 0.0000000 -0.7071066 -0.7071069
vn 0.0000000 -0.7071066 -0.7071069
vn 0.0000000 -0.7071066 -0.7071069
vn 0.7071068 -0.7071067 0.0000000
vn 0.7071068 -0.7071067 0.0000000
vn 0.7071068 -0.7071067 0.0000000
vn 0.7071068 -0.7071067 0.0000000
vn 0.7071068 -0.7071067 0.0000000
vn 0.7071068 -0.7071067 0.0000000
vn 0.7071068 -0.7071067 0.0000000
vn 0.7071068 -0.7071067 0.0000000
vn 0.7071068 -0.7071067 0.0000000
vn 0.7071068 0.7071067 0.0000000
vn 0.7071068 0.7071067 0.0000000
vn 0.7071068 0.7071067 0.0000000
vn 0.7071068 0.7071067 0.0000000
vn 0.7071068 0.7071067 0.0000000
vn 0.7071068 0.7071067 0.0000000
vn 0.7071068 0.7071067 0.0000000
vn 0.7071068 0.7071067 0.0000000
vn 0.7071068 0.7071067 0.0000000
vn 0.0000000 0.7071066 -0.7071069
vn 0.0000000 0.7071066 -0.7071069
vn 0.0000000 0.7071066 -0.7071069
vn 0.0000000 0.7071066 -0.7071069
vn 0.0000000 0.7071066 -0.7071069
vn 0.0000000 0.7071066 -0.7071069
vn 0.0000000 0.7071066 -0.7071069
vn 0.0000000 0.7071066 -0.7071069
vn 0.0000000 0.7071066 -0.7071069
vn 0.7071071 0.0000000 -0.7071065
vn 0.7071071 0.0000000 -0.7071065
vn 0.7071071 0.0000000 -0.7071065
vn 0.7071071 0.0000000 -0.7071065
vn 0.7071071 0.0000000 -0.7071065
vn 0.7071071 0.0000000 -0.7071065
vn 0.0000000 -1.0000000 0.0000000
vn 0.0000000 -1.0000000 0.0000000
vn 0.0000000 -1.0000000 0.0000000
vn 0.0000000 -1.0000000 0.0000000
vn 0.0000000 -1.0000000 0.0000000
vn 0.0000000 -1.0000000 0.0000000
vn 0.0000000 -1.0000000 0.0000000
vn 0.0000000 -1.0000000 0.0000000
vn 0.0000000 -1.0000000 0.0000000
vn 1.0000000 0.0000000 0.0000000
vn 1.0000000 0.0000000 0.0000000
vn 1.0000000 0.0000000 0.0000000
vn 1.0000000 0.0000000 0.0000000
vn 1.0000000 0.0000000 0.0000000
vn 1.0000000 0.0000000 0.0000000
vn 1.0000000 0.0000000 0.0000000
vn 1.0000000 0.0000000 0.0000000
vn 1.0000000 0.0000000 0.0000000
vn 0.0000000 0.0000000 -1.0000000
vn 0.0000000 0.0000000 -1.0000000
vn 0.0000000 0.0000000 -1.0000000
vn 0.0000000 0.0000000 -1.0000000
vn 0.0000000 0.0000000 -1.0000000
vn 0.0000000 0.0000000 -1.0000000
vn 0.0000000 0.0000000 -1.0000000
vn 0.0000000 0.0000000 -1.0000000
vn 0.0000000 0.0000000 -1.0000000
vn 0.0000000 1.0000000 0.0000000
vn 0.0000000 1.0000000 0.0000000
vn 0.0000000 1.0000000 0.0000000
vn 0.0000000 1.0000000 0.0000000
vn 0.0000000 1.0000000 0.0000000
vn 0.0000000 1.0000000 0.0000000
vn 0.0000000 1.0000000 0.0000000
vn 0.0000000 1.0000000 0.0000000
vn 0.0000000 1.0000000 0.0000000
vn 0.5773498 -0.5773505 0.5773505
vn 0.5773498 -0.5773505 0.5773505
vn 0.5773498 -0.5773505 0.5773505
vn 0.5773498 0.5773505 0.5773505
vn 0.5773498 0.5773505 0.5773505
vn 0.5773498 0.5773505 0.5773505
vn 0.0000000 -0.7071066 0.7071069
vn 0.0000000 -0.7071066 0.7071069
vn 0.0000000 -0.7071066 0.7071069
vn 0.0000000 -0.7071066 0.7071069
vn 0.0000000 -0.7071066 0.7071069
vn 0.0000000 -0.7071066 0.7071069
vn 0.0000000 -0.7071066 0.7071069
vn 0.0000000 -0.7071066 0.7071069
vn 0.0000000 -0.7071066 0.7071069
vn 0.7071068 -0.7071067 0.0000000
vn 0.7071068 -0.7071067 0.0000000
vn 0.7071068 -0.7071067 0.0000000
vn 0.7071068 -0.7071067 0.0000000
vn 0.7071068 -0.7071067 0.0000000
vn 0.7071068 -0.7071067 0.0000000
vn 0.7071068 -0.7071067 0.0000000
vn 0.7071068 -0.7071067 0.0000000
vn 0.7071068 -0.7071067 0.0000000
vn 0.0000000 0.7071066 0.7071069
vn 0.0000000 0.7071066 0.7071069
vn 0.0000000 0.7071066 0.7071069
vn 0.0000000 0.7071066 0.7071069
vn 0.0000000 0.7071066 0.7071069
vn 0.0000000 0.7071066 0.7071069
vn 0.0000000 0.7071066 0.7071069
vn 0.0000000 0.7071066 0.7071069
vn 0.0000000 0.7071066 0.7071069
vn 0.7071068 0.7071067 0.0000000
vn 0.7071068 0.7071067 0.0000000
vn 0.7071068 0.7071067 0.0000000
vn 0.7071068 0.7071067 0.0000000
vn 0.7071068 0.7071067 0.0000000
vn 0.7071068 0.7071067 0.0000000
vn 0.7071068 0.7071067 0.0000000
vn 0.7071068 0.7071067 0.0000000
vn 0.7071068 0.7071067 0.0000000
vn 0.7071071 0.0000000 0.7071065
vn 0.7071071 0.0000000 0.7071065
vn 0.7071071 0.0000000 0.7071065
vn 0.7071071 0.0000000 0.7071065
vn 0.7071071 0.0000000 0.7071065
vn 0.7071071 0.0000000 0.7071065
vn 0.0000000 0.0000000 1.0000000
vn 0.0000000 0.0000000 1.0000000
vn 0.0000000 0.0000000 1.0000000
vn 0.0000000 0.0000000 1.0000000
vn 0.0000000 0.0000000 1.0000000
vn 0.0000000 0.0000000 1.0000000
vn 0.0000000 0.0000000 1.0000000
vn 0.0000000 0.0000000 1.0000000
vn 0.0000000 0.0000000 1.0000000
vn 0.0000000 -1.0000000 0.0000000
vn 0.0000000 -1.0000000 0.0000000
vn 0.0000000 -1.0000000 0.0000000
vn 0.0000000 -1.0000000 0.0000000
vn 0.0000000 -1.0000000 0.0000000
vn 0.0000000 -1.0000000 0.0000000
vn 1.0000000 0.0000000 0.0000000
vn 1.0000000 0.0000000 0.0000000
vn 1.0000000 0.0000000 0.0000000
vn 1.0000000 0.0000000 0.0000000
vn 1.0000000 0.0000000 0.0000000
vn 1.0000000 0.0000000 0.0000000
vn 1.0000000 0.0000000 0.0000000
vn 1.0000000 0.0000000 0.0000000
vn 1.0000000 0.0000000 0.0000000
vn 0.0000000 1.0000000 0.0000000
vn 0.0000000 1.0000000 0.0000000
vn 0.0000000 1.0000000 0.0000000
vn 0.0000000 1.0000000 0.0000000
vn 0.0000000 1.0000000 0.0000000
vn 0.0000000 1.0000000 0.0000000
vn 0.5773514 -0.5773498 -0.5773496
vn 0.5773514 -0.5773498 -0.5773496
vn 0.5773514 -0.5773498 -0.5773496
vn -0.5773514 -0.5773498 -0.5773496
vn -0.5773514 -0.5773498 -0.5773496
vn -0.5773514 -0.5773498 -0.5773496
vn -0.5773514 -0.5773498 0.5773496
vn -0.5773514 -0.5773498 0.5773496
vn -0.5773514 -0.5773498 0.5773496
vn 0.5773515 -0.5773497 0.5773495
vn 0.5773515 -0.5773497 0.5773495
vn 0.5773515 -0.5773497 0.5773495
vn -0.0000001 -0.7071069 -0.7071066
vn -0.0000001 -0.7071069 -0.7071066
vn -0.0000001 -0.7071069 -0.7071066
vn -0.0000001 -0.7071069 -0.7071066
vn -0.0000001 -0.7071069 -0.7071066
vn -0.0000001 -0.7071069 -0.7071066
vn 0.7071075 -0.7071061 -0.0000001
vn 0.7071075 -0.7071061 -0.0000001
vn 0.7071075 -0.7071061 -0.0000001
vn 0.7071075 -0.7071061 -0.0000001
vn 0.7071075 -0.7071061 -0.0000001
vn 0.7071075 -0.7071061 -0.0000001
vn 0.0000001 -0.7071069 0.7071066
vn 0.0000001 -0.7071069 0.7071066
vn 0.0000001 -0.7071069 0.7071066
vn 0.0000001 -0.7071069 0.7071066
vn 0.0000001 -0.7071069 0.7071066
vn 0.0000001 -0.7071069 0.7071066
vn -0.7071075 -0.7071061 0.0000001
vn -0.7071075 -0.7071061 0.0000001
vn -0.7071075 -0.7071061 0.0000001
vn -0.7071075 -0.7071061 0.0000001
vn -0.7071075 -0.7071061 0.0000001
vn -0.7071075 -0.7071061 0.0000001
vn 0.7071066 0.0000000 -0.7071069
vn 0.7071066 0.0000000 -0.7071069
vn 0.7071066 0.0000000 -0.7071069
vn 0.7071066 0.0000000 -0.7071069
vn 0.7071066 0.0000000 -0.7071069
vn 0.7071066 0.0000000 -0.7071069
vn 0.7071066 0.0000000 -0.7071069
vn 0.7071066 0.0000000 -0.7071069
vn 0.7071066 0.0000000 -0.7071069
vn -0.7071069 -0.0000000 -0.7071066
vn -0.7071069 -0.0000000 -0.7071066
vn -0.7071069 0.0000000 -0.7071066
vn -0.7071069 -0.0000000 -0.7071066
vn -0.7071069 0.0000000 -0.7071066
vn -0.7071069 0.0000000 -0.7071066
vn -0.7071069 -0.0000000 -0.7071066
vn -0.7071069 0.0000000 -0.7071066
vn -0.7071069 0.0000000 -0.7071066
vn -0.7071066 0.0000000 0.7071069
vn -0.7071066 0.0000000 0.7071069
vn -0.7071066 0.0000000 0.7071069
vn -0.7071066 0.0000000 0.7071069
vn -0.7071066 0.0000000 0.7071069
vn -0.7071066 0.0000000 0.7071069
vn -0.7071066 0.0000000 0.7071069
vn -0.7071066 0.0000000 0.7071069
vn -0.7071066 0.0000000 0.7071069
vn 0.7071069 -0.0000000 0.7071066
vn 0.7071069 0.0000000 0.7071066
vn 0.7071069 0.0000000 0.7071066
vn 0.7071069 -0.0000000 0.7071066
vn 0.7071069 0.0000000 0.7071066
vn 0.7071069 0.0000000 0.7071066
vn 0.7071069 -0.0000000 0.7071066
vn 0.7071069 0.0000000 0.7071066
vn 0.7071069 -0.0000000 0.7071066
vn -0.0000002 0.0000000 -1.0000000
vn -0.0000002 0.0000000 -1.0000000
vn -0.0000002 0.0000000 -1.0000000
vn -0.0000002 0.0000000 -1.0000000
vn -0.0000002 0.0000000 -1.0000000
vn -0.0000002 0.0000000 -1.0000000
vn -0.0000002 0.0000000 -1.0000000
vn -0.0000002 0.0000000 -1.0000000
vn -0.0000002 0.0000000 -1.0000000
vn 0.0000000 -1.0000000 0.0000000
vn 0.0000000 -1.0000000 0.0000000
vn 0.0000000 -1.0000000 0.0000000
vn 0.0000000 -1.0000000 0.0000000
vn 0.0000000 -1.0000000 0.0000000
vn 0.0000000 -1.0000000 0.0000000
vn 1.0000000 0.0000000 -0.0000002
vn 1.0000000 0.0000000 -0.0000002
vn 1.0000000 0.0000000 -0.0000002
vn 1.0000000 0.0000000 -0.0000002
vn 1.0000000 0.0000000 -0.0000002
vn 1.0000000 0.0000000 -0.0000002
vn 1.0000000 0.0000000 -0.0000002
vn 1.0000000 0.0000000 -0.0000002
vn 1.0000000 0.0000000 -0.0000002
vn -1.0000000 0.0000000 0.0000002
vn -1.0000000 0.0000000 0.0000002
vn -1.0000000 0.0000000 0.0000002
vn -1.0000000 0.0000000 0.0000002
vn -1.0000000 0.0000000 0.0000002
vn -1.0000000 0.0000000 0.0000002
vn -1.0000000 0.0000000 0.0000002
vn -1.0000000 0.0000000 0.0000002
vn -1.0000000 0.0000000 0.0000002
vn 0.0000002 0.0000000 1.0000000
vn 0.0000002 0.0000000 1.0000000
vn 0.0000002 0.0000000 1.0000000
vn 0.0000002 0.0000000 1.0000000
vn 0.0000002 0.0000000 1.0000000
vn 0.0000002 0.0000000 1.0000000
vn 0.0000002 0.0000000 1.0000000
vn 0.0000002 0.0000000 1.0000000
vn 0.0000002 0.0000000 1.0000000
vn 0.5773514 -0.5773498 -0.5773496
vn 0.5773514 -0.5773498 -0.5773496
vn 0.5773514 -0.5773498 -0.5773496
vn -0.5773514 -0.5773498 -0.5773496
vn -0.5773514 -0.5773498 -0.5773496
vn -0.5773514 -0.5773498 -0.5773496
vn -0.5773514 -0.5773498 0.5773496
vn -0.5773514 -0.5773498 0.5773496
vn -0.5773514 -0.5773498 0.5773496
vn 0.5773515 -0.5773497 0.5773495
vn 0.5773515 -0.5773497 0.5773495
vn 0.5773515 -0.5773497 0.5773495
vn -0.0000001 -0.7071069 -0.7071066
vn -0.0000001 -0.7071069 -0.7071066
vn -0.0000001 -0.7071069 -0.7071066
vn -0.0000001 -0.7071069 -0.7071066
vn -0.0000001 -0.7071069 -0.7071066
vn -0.0000001 -0.7071069 -0.7071066
vn 0.7071075 -0.7071061 -0.0000001
vn 0.7071075 -0.7071061 -0.0000001
vn 0.7071075 -0.7071061 -0.0000001
vn 0.7071075 -0.7071061 -0.0000001
vn 0.7071075 -0.7071061 -0.0000001
vn 0.7071075 -0.7071061 -0.0000001
vn 0.0000001 -0.7071069 0.7071066
vn 0.0000001 -0.7071069 0.7071066
vn 0.0000001 -0.7071069 0.7071066
vn 0.0000001 -0.7071069 0.7071066
vn 0.0000001 -0.7071069 0.7071066
vn 0.0000001 -0.7071069 0.7071066
vn -0.7071075 -0.7071061 0.0000001
vn -0.7071075 -0.7071061 0.0000001
vn -0.7071075 -0.7071061 0.0000001
vn -0.7071075 -0.7071061 0.0000001
vn -0.7071075 -0.7071061 0.0000001
vn -0.7071075 -0.7071061 0.0000001
vn 0.7071066 0.0000000 -0.7071069
vn 0.7071066 0.0000000 -0.7071069
vn 0.7071066 0.0000000 -0.7071069
vn 0.7071066 0.0000000 -0.7071069
vn 0.7071066 0.0000000 -0.7071069
vn 0.7071066 0.0000000 -0.7071069
vn 0.7071066 0.0000000 -0.7071069
vn 0.7071066 0.0000000 -0.7071069
vn 0.7071066 0.0000000 -0.7071069
vn -0.7071069 -0.0000000 -0.7071066
vn -0.7071069 -0.0000000 -0.7071066
vn -0.7071069 0.0000000 -0.7071066
vn -0.7071069 -0.0000000 -0.7071066
vn -0.7071069 0.0000000 -0.7071066
vn -0.7071069 0.0000000 -0.7071066
vn -0.7071069 -0.0000000 -0.7071066
vn -0.7071069 0.0000000 -0.7071066
vn -0.7071069 0.0000000 -0.7071066
vn -0.7071066 0.0000000 0.7071069
vn -0.7071066 0.0000000 0.7071069
vn -0.7071066 0.0000000 0.7071069
vn -0.7071066 0.0000000 0.7071069
vn -0.7071066 0.0000000 0.7071069
vn -0.7071066 0.0000000 0.7071069
vn -0.7071066 0.0000000 0.7071069
vn -0.7071066 0.0000000 0.7071069
vn -0.7071066 0.0000000 0.7071069
vn 0.7071069 -0.0000000 0.7071066
vn 0.7071069 0.0000000 0.7071066
vn 0.7071069 0.0000000 0.7071066
vn 0.7071069 -0.0000000 0.7071066
vn 0.7071069 0.0000000 0.7071066
vn 0.7071069 0.0000000 0.7071066
vn 0.7071069 -0.0000000 0.7071066
vn 0.7071069 0.0000000 0.7071066
vn 0.7071069 -0.0000000 0.7071066
vn -0.0000002 0.0000000 -1.0000000
vn -0.0000002 0.0000000 -1.0000000
vn -0.0000002 0.0000000 -1.0000000
vn -0.0000002 0.0000000 -1.0000000
vn -0.0000002 0.0000000 -1.0000000
vn -0.0000002 0.0000000 -1.0000000
vn -0.0000002 0.0000000 -1.0000000
vn -0.0000002 0.0000000 -1.0000000
vn -0.0000002 0.0000000 -1.0000000
vn 0.0000000 -1.0000000 0.0000000
vn 0.0000000 -1.0000000 0.0000000
vn 0.0000000 -1.0000000 0.0000000
vn 0.0000000 -1.0000000 0.0000000
vn 0.0000000 -1.0000000 0.0000000
vn 0.0000000 -1.0000000 0.0000000
vn 1.0000000 0.0000000 -0.0000002
vn 1.0000000 0.0000000 -0.0000002
vn 1.0000000 0.0000000 -0.0000002
vn 1.0000000 0.0000000 -0.0000002
vn 1.0000000 0.0000000 -0.0000002
vn 1.0000000 0.0000000 -0.0000002
vn 1.0000000 0.0000000 -0.0000002
vn 1.0000000 0.0000000 -0.0000002
vn 1.0000000 0.0000000 -0.0000002
vn -1.0000000 0.0000000 0.0000002
vn -1.0000000 0.0000000 0.0000002
vn -1.0000000 0.0000000 0.0000002
vn -1.0000000 0.0000000 0.0000002
vn -1.0000000 0.0000000 0.0000002
vn -1.0000000 0.0000000 0.0000002
vn -1.0000000 0.0000000 0.0000002
vn -1.0000000 0.0000000 0.0000002
vn -1.0000000 0.0000000 0.0000002
vn 0.0000002 0.0000000 1.0000000
vn 0.0000002 0.0000000 1.0000000
vn 0.0000002 0.0000000 1.0000000
vn 0.0000002 0.0000000 1.0000000
vn 0.0000002 0.0000000 1.0000000
vn 0.0000002 0.0000000 1.0000000
vn 0.0000002 0.0000000 1.0000000
vn 0.0000002 0.0000000 1.0000000
vn 0.0000002 0.0000000 1.0000000
vn -0.7071068 -0.7071068 0.0000000
vn -0.7071068 -0.7071068 0.0000000
vn -0.7071068 -0.7071068 0.0000000
vn -0.7071068 -0.7071068 0.0000000
vn -0.7071068 -0.7071068 0.0000000
vn -0.7071068 -0.7071068 0.0000000
vn -0.7071068 -0.7071068 0.0000000
vn -0.7071068 -0.7071068 0.0000000
vn -0.7071068 -0.7071068 0.0000000
vn -0.7071068 -0.7071068 0.0000000
vn -0.7071068 -0.7071068 0.0000000
vn -0.7071068 -0.7071068 0.0000000
vn -0.7071068 0.7071068 0.0000000
vn -0.7071068 0.7071068 0.0000000
vn -0.7071068 0.7071068 0.0000000
vn -0.7071068 0.7071068 0.0000000
vn -0.7071068 0.7071068 0.0000000
vn -0.7071068 0.7071068 0.0000000
vn -0.7071068 0.7071068 0.0000000
vn -0.7071068 0.7071068 0.0000000
vn -0.7071068 0.7071068 0.0000000
vn -0.7071068 0.7071068 0.0000000
vn -0.7071068 0.7071068 0.0000000
vn -0.7071068 0.7071068 0.0000000
vn 0.0000000 -1.0000000 0.0000000
vn 0.0000000 -1.0000000 0.0000000
vn 0.0000000 -1.0000000 0.0000000
vn 0.0000000 -1.0000000 0.0000000
vn 0.0000000 -1.0000000 0.0000000
vn 0.0000000 -1.0000000 0.0000000
vn 0.0000000 -1.0000000 0.0000000
vn 0.0000000 -1.0000000 0.0000000
vn 0.0000000 -1.0000000 0.0000000
vn 0.0000000 -1.0000000 0.0000000
vn 0.0000000 -1.0000000 0.0000000
vn 0.0000000 -1.0000000 0.0000000
vn -1.0000000 0.0000000 0.0000000
vn -1.0000000 0.0000000 0.0000000
vn -1.0000000 0.0000000 0.0000000
vn -1.0000000 0.0000000 0.0000000
vn -1.0000000 0.0000000 0.0000000
vn -1.0000000 0.0000000 0.0000000
vn -1.0000000 0.0000000 0.0000000
vn -1.0000000 0.0000000 0.0000000
vn -1.0000000 0.0000000 0.0000000
vn -1.0000000 0.0000000 0.0000000
vn -1.0000000 0.0000000 0.0000000
vn -1.0000000 0.0000000 0.0000000
vn 0.0000000 1.0000000 0.0000000
vn 0.0000000 1.0000000 0.0000000
vn 0.0000000 1.0000000 0.0000000
vn 0.0000000 1.0000000 0.0000000
vn 0.0000000 1.0000000 0.0000000
vn 0.0000000 1.0000000 0.0000000
vn 0.0000000 1.0000000 0.0000000
vn 0.0000000 1.0000000 0.0000000
vn 0.0000000 1.0000000 0.0000000
vn 0.0000000 1.0000000 0.0000000
vn 0.0000000 1.0000000 0.0000000
vn 0.0000000 1.0000000 0.0000000
vn 0.0000000 -1.0000000 0.0000000
vn 0.0000000 -1.0000000 0.0000000
vn 0.0000000 -1.0000000 0.0000000
vn 0.0000000 -1.0000000 0.0000000
vn 0.0000000 -1.0000000 0.0000000
vn 0.0000000 -1.0000000 0.0000000
vn 0.0000000 -1.0000000 0.0000000
vn 0.0000000 -1.0000000 0.0000000
vn 0.0000000 -1.0000000 0.0000000
vn 0.0000000 -1.0000000 0.0000000
vn 0.0000000 -1.0000000 0.0000000
vn 0.0000000 -1.0000000 0.0000000
vn 0.0000000 1.0000000 0.0000000
vn 0.0000000 1.0000000 0.0000000
vn 0.0000000 1.0000000 0.0000000
vn 0.0000000 1.0000000 0.0000000
vn 0.0000000 1.0000000 0.0000000
vn 0.0000000 1.0000000 0.0000000
vn 0.0000000 1.0000000 0.0000000
vn 0.0000000 1.0000000 0.0000000
vn 0.0000000 1.0000000 0.0000000
vn 0.0000000 1.0000000 0.0000000
vn 0.0000000 1.0000000 0.0000000
vn 0.0000000 1.0000000 0.0000000
f 1/1/1 2/2/2 3/3/3
f 4/4/4 5/5/5 6/6/6
f 7/7/7 8/8/8 9/9/9
f 10/10/10 11/11/11 12/12/12
f 13/13/13 14/14/14 15/15/15
f 16/16/16 17/17/17 18/18/18
f 19/19/19 20/20/20 21/21/21
f 22/22/22 23/23/23 24/24/24
f 25/25/25 26/26/26 27/27/27
f 28/28/28 29/29/29 30/30/30
f 31/31/31 32/32/32 33/33/33
f 34/34/34 35/35/35 36/36/36
f 37/37/37 38/38/38 39/39/39
f 40/40/40 41/41/41 42/42/42
f 43/43/43 44/44/44 45/45/45
f 46/46/46 47/47/47 48/48/48
f 49/49/49 50/50/50 51/51/51
f 52/52/52 53/53/53 54/54/54
f 55/55/55 56/56/56 57/57/57
f 58/58/58 59/59/59 60/60/60
f 61/61/61 62/62/62 63/63/63
f 64/64/64 65/65/65 66/66/66
f 67/67/67 68/68/68 69/69/69
f 70/70/70 71/71/71 72/72/72
f 73/73/73 74/74/74 75/75/75
f 76/76/76 77/77/77 78/78/78
f 79/79/79 80/80/80 81/81/81
f 82/82/82 83/83/83 84/84/84
f 85/85/85 86/86/86 87/87/87
f 88/88/88 89/89/89 90/90/90
f 91/91/91 92/92/92 93/93/93
f 94/94/94 95/95/95 96/96/96
f 97/97/97 98/98/98 99/99/99
f 100/100/100 101/101/101 102/102/102
f 103/103/103 104/104/104 105/105/105
f 106/106/106 107/107/107 108/108/108
f 109/109/109 110/110/110 111/111/111
f 112/112/112 113/113/113 114/114/114
f 115/115/115 116/116/116 117/117/117
f 118/118/118 119/119/119 120/120/120
f 121/121/121 122/122/122 123/123/123
f 124/124/124 125/125/125 126/126/126
f 127/127/127 128/128/128 129/129/129
f 130/130/130 131/131/131 132/132/132
f 133/133/133 134/134/134 135/135/135
f 136/136/136 137/137/137 138/138/138
f 139/139/139 140/140/140 141/141/141
f 142/142/142 143/143/143 144/144/144
f 145/145/145 146/146/146 147/147/147
f 148/148/148 149/149/149 150/150/150
f 151/151/151 152/152/152 153/153/153
f 154/154/154 155/155/155 156/156/156
f 157/157/157 158/158/158 159/159/159
f 160/160/160 161/161/161 162/162/162
f 163/163/163 164/164/164 165/165/165
f 166/166/166 167/167/167 168/168/168
f 169/169/169 170/170/170 171/171/171
f 172/172/172 173/173/173 174/174/174
f 175/175/175 176/176/176 177/177/177
f 178/178/178 179/179/179 180/180/180
f 181/181/181 182/182/182 183/183/183
f 184/184/184 185/185/185 186/186/186
f 187/187/187 188/188/188 189/189/189
f 190/190/190 191/191/191 192/192/192
f 193/193/193 194/194/194 195/195/195
f 196/196/196 197/197/197 198/198/198
f 199/199/199 200/200/200 201/201/201
f 202/202/202 203/203/203 204/204/204
f 205/205/205 206/206/206 207/207/207
f 208/208/208 209/209/209 210/210/210
f 211/211/211 212/212/212 213/213/213
f 214/214/214 215/215/215 216/216/216
f 217/217/217 218/218/218 219/219/219
f 220/220/220 221/221/221 222/222/222
f 223/223/223 224/224/224 225/225/225
f 226/226/226 227/227/227 228/228/228
f 229/229/229 230/230/230 231/231/231
f 232/232/232 233/233/233 234/234/234
f 235/235/235 236/236/236 237/237/237
f 238/238/238 239/239/239 240/240/240
f 241/241/241 242/242/242 243/243/243
f 244/244/244 245/245/245 246/246/246
f 247/247/247 248/248/248 249/249/249
f 250/250/250 251/251/251 252/252/252
f 253/253/253 254/254/254 255/255/255
f 256/256/256 257/257/257 258/258/258
f 259/259/259 260/260/260 261/261/261
f 262/262/262 263/263/263 264/264/264
f 265/265/265 266/266/266 267/267/267
f 268/268/268 269/269/269 270/270/270
f 271/271/271 272/272/272 273/273/273
f 274/274/274 275/275/275 276/276/276
f 277/277/277 278/278/278 279/279/279
f 280/280/280 281/281/281 282/282/282
f 283/283/283 284/284/284 285/285/285
f 286/286/286 287/287/287 288/288/288
f 289/289/289 290/290/290 291/291/291
f 292/292/292 293/293/293 294/294/294
f 295/295/295 296/296/296 297/297/297
f 298/298/298 299/299/299 300/300/300
f 301/301/301 302/302/302 303/303/303
f 304/304/304 305/305/305 306/306/306
f 307/307/307 308/308/308 309/309/309
f 310/310/310 311/311/311 312/312/312
f 313/313/313 314/314/314 315/315/315
f 316/316/316 317/317/317 318/318/318
f 319/319/319 320/320/320 321/321/321
f 322/322/322 323/323/323 324/324/324
f 325/325/325 326/326/326 327/327/327
f 328/328/328 329/329/329 330/330/330
f 331/331/331 332/332/332 333/333/333
f 334/334/334 335/335/335 336/336/336
f 337/337/337 338/338/338 339/339/339
f 340/340/340 341/341/341 342/342/342
f 343/343/343 344/344/344 345/345/345
f 346/346/346 347/347/347 348/348/348
f 349/349/349 350/350/350 351/351/351
f 352/352/352 353/353/353 354/354/354
f 355/355/355 356/356/356 357/357/357
f 358/358/358 359/359/359 360/360/360
f 361/361/361 362/362/362 363/363/363
f 364/364/364 365/365/365 366/366/366
f 367/367/367 368/368/368 369/369/369
f 370/370/370 371/371/371 372/372/372
f 373/373/373 374/374/374 375/375/375
f 376/376/376 377/377/377 378/378/378
f 379/379/379 380/380/380 381/381/381
f 382/382/382 383/383/383 384/384/384
f 385/385/385 386/386/386 387/387/387
f 388/388/388 389/389/389 390/390/390
f 391/391/391 392/392/392 393/393/393
f 394/394/394 395/395/395 396/396/396
f 397/397/397 398/398/398 399/399/399
f 400/400/400 401/401/401 402/402/402
f 403/403/403 404/404/404 405/405/405
f 406/406/406 407/407/407 408/408/408
f 409/409/409 410/410/410 411/411/411
f 412/412/412 413/413/413 414/414/414
f 415/415/415 416/416/416 417/417/417
f 418/418/418 419/419/419 420/420/420
f 421/421/421 422/422/422 423/423/423
f 424/424/424 425/425/425 426/426/426
f 427/427/427 428/428/428 429/429/429
f 430/430/430 431/431/431 432/432/432
f 433/433/433 434/434/434 435/435/435
f 436/436/436 437/437/437 438/438/438
f 439/439/439 440/440/440 441/441/441
f 442/442/442 443/443/443 444/444/444
f 445/445/445 446/446/446 447/447/447
f 448/448/448 449/449/449 450/450/450
f 451/451/451 452/452/452 453/453/453
f 454/454/454 455/455/455 456/456/456
f 457/457/457 458/458/458 459/459/459
f 460/460/460 461/461/461 462/462/462
f 463/463/463 464/464/464 465/465/465
f 466/466/466 467/467/467 468/468/468
f 469/469/469 470/470/470 471/471/471
f 472/472/472 473/473/473 474/474/474
f 475/475/475 476/476/476 477/477/477
f 478/478/478 479/479/479 480/480/480
f 481/481/481 482/482/482 483/483/483
f 484/484/484 485/485/485 486/486/486
f 487/487/487 488/488/488 489/489/489
f 490/490/490 491/491/491 492/492/492
f 493/493/493 494/494/494 495/495/495
f 496/496/496 497/497/497 498/498/498
f 499/499/499 500/500/500 501/501/501
f 502/502/502 503/503/503 504/504/504
f 505/505/505 506/506/506 507/507/507
f 508/508/508 509/509/509 510/510/510
f 511/511/511 512/512/512 513/513/513
f 514/514/514 515/515/515 516/516/516
f 517/517/517 518/518/518 519/519/519
f 520/520/520 521/521/521 522/522/522
f 523/523/523 524/524/524 525/525/525
f 526/526/526 527/527/527 528/528/528
f 529/529/529 530/530/530 531/531/531
f 532/532/532 533/533/533 534/534/534
f 535/535/535 536/536/536 537/537/537
f 538/538/538 539/539/539 540/540/540
f 541/541/541 542/542/542 543/543/543
f 544/544/544 545/545/545 546/546/546
f 547/547/547 548/548/548 549/549/549
f 550/550/550 551/551/551 552/552/552
f 553/553/553 554/554/554 555/555/555
f 556/556/556 557/557/557 558/558/558
f 559/559/559 560/560/560 561/561/561
f 562/562/562 563/563/563 564/564/564
f 565/565/565 566/566/566 567/567/567
f 568/568/568 569/569/569 570/570/570
f 571/571/571 572/572/572 573/573/573
f 574/574/574 575/575/575 576/576/576
f 577/577/577 578/578/578 579/579/579
f 580/580/580 581/581/581 582/582/582
f 583/583/583 584/584/584 585/585/585
f 586/586/586 587/587/587 588/588/588
f 589/589/589 590/590/590 591/591/591
f 592/592/592 593/593/593 594/594/594
f 595/595/595 596/596/596 597/597/597
f 598/598/598 599/599/599 600/600/600
f 601/601/601 602/602/602 603/603/603
f 604/604/604 605/605/605 606/606/606
f 607/607/607 608/608/608 609/609/609
f 610/610/610 611/611/611 612/612/612
f 613/613/613 614/614/614 615/615/615
f 616/616/616 617/617/617 618/618/618
f 619/619/619 620/620/620 621/621/621
f 622/622/622 623/623/623 624/624/624
