# metre = block; Y up; per-cell coordinates; atlas UVs preserved
mtllib materials.mtl
o cell_0
usemtl pump_atlas
v 0.9914735 0.9884106 1.0000000
v 1.0000000 0.9800355 0.9874657
v 1.0000000 0.9647623 1.0000000
v 1.0000000 1.0000000 0.9767944
v 1.0000000 0.9800355 0.9874657
v 0.9914735 0.9884106 1.0000000
v 1.0000000 1.0000000 0.9767944
v 0.9914735 0.9884106 1.0000000
v 0.9883685 1.0000000 1.0000000
v 1.0000000 0.9620026 0.9284346
v 0.9679501 0.9620026 0.9284346
v 0.9679501 0.9271451 0.9485596
v 1.0000000 0.9620026 0.9284346
v 0.9679501 0.9271451 0.9485596
v 1.0000000 0.9618401 0.9285284
v 1.0000000 0.9618401 0.9285284
v 0.9679501 0.9271451 0.9485596
v 1.0000000 0.9271451 0.9485596
v 1.0000000 0.9620026 0.8881847
v 0.9679501 0.9620026 0.8881847
v 0.9679501 0.9620026 0.9284346
v 1.0000000 0.9620026 0.8881847
v 0.9679501 0.9620026 0.9284346
v 1.0000000 0.9620026 0.8883723
v 1.0000000 0.9620026 0.8883723
v 0.9679501 0.9620026 0.9284346
v 1.0000000 0.9620026 0.9284346
v 1.0000000 0.9271451 0.8680596
v 0.9679501 0.9271451 0.8680596
v 0.9679501 0.9620026 0.8881847
v 1.0000000 0.9271451 0.8680596
v 0.9679501 0.9620026 0.8881847
v 1.0000000 0.9273076 0.8681534
v 1.0000000 0.9273076 0.8681534
v 0.9679501 0.9620026 0.8881847
v 1.0000000 0.9620026 0.8881847
v 1.0000000 0.8922876 0.8881847
v 0.9679501 0.8922876 0.8881847
v 1.0000000 0.9269826 0.8681534
v 1.0000000 0.9269826 0.8681534
v 0.9679501 0.8922876 0.8881847
v 0.9679501 0.9271451 0.8680596
v 1.0000000 0.9269826 0.8681534
v 0.9679501 0.9271451 0.8680596
v 1.0000000 0.9271451 0.8680596
v 1.0000000 0.8922876 0.9284346
v 0.9679501 0.8922876 0.9284346
v 1.0000000 0.8922876 0.8883723
v 1.0000000 0.8922876 0.8883723
v 0.9679501 0.8922876 0.9284346
v 0.9679501 0.8922876 0.8881847
v 1.0000000 0.8922876 0.8883723
v 0.9679501 0.8922876 0.8881847
v 1.0000000 0.8922876 0.8881847
v 1.0000000 0.9271451 0.9485596
v 0.9679501 0.9271451 0.9485596
v 1.0000000 0.8924501 0.9285284
v 1.0000000 0.8924501 0.9285284
v 0.9679501 0.9271451 0.9485596
v 0.9679501 0.8922876 0.9284346
v 1.0000000 0.8924501 0.9285284
v 0.9679501 0.8922876 0.9284346
v 1.0000000 0.8922876 0.9284346
v 0.9679501 0.9271451 0.8680596
v 0.9679501 0.8922876 0.8881847
v 0.9679501 0.8922876 0.9284346
v 0.9679501 0.9271451 0.8680596
v 0.9679501 0.8922876 0.9284346
v 0.9679501 0.9271451 0.9485596
v 0.9679501 0.9271451 0.8680596
v 0.9679501 0.9271451 0.9485596
v 0.9679501 0.9620026 0.9284346
v 0.9679501 0.9271451 0.8680596
v 0.9679501 0.9620026 0.9284346
v 0.9679501 0.9620026 0.8881847
v 0.9783001 0.3358000 0.7563640
v 0.9921000 0.3358000 0.7425640
v 0.9921000 0.3220000 0.7563640
v 0.9783001 0.9176999 0.7563640
v 0.9921000 0.9315000 0.7563640
v 0.9921000 0.9176999 0.7425640
v 0.9783001 0.3358000 1.0000000
v 0.9783001 0.3358000 0.7563640
v 0.9921000 0.3220000 0.7563640
v 0.9783001 0.3358000 1.0000000
v 0.9921000 0.3220000 0.7563640
v 0.9815072 0.3325929 1.0000000
v 0.9815072 0.3325929 1.0000000
v 0.9921000 0.3220000 0.7563640
v 0.9921000 0.3220000 1.0000000
v 0.9921000 0.3220000 0.7563640
v 0.9921000 0.3358000 0.7425640
v 1.0000000 0.3358000 0.7425640
v 0.9921000 0.3220000 0.7563640
v 1.0000000 0.3358000 0.7425640
v 1.0000000 0.3224389 0.7559251
v 0.9921000 0.3220000 0.7563640
v 1.0000000 0.3224389 0.7559251
v 1.0000000 0.3220000 0.7563640
v 0.9921000 0.9315000 1.0000000
v 0.9921000 0.9315000 0.7563640
v 0.9815072 0.9209071 1.0000000
v 0.9815072 0.9209071 1.0000000
v 0.9921000 0.9315000 0.7563640
v 0.9783001 0.9176999 0.7563640
v 0.9815072 0.9209071 1.0000000
v 0.9783001 0.9176999 0.7563640
v 0.9783001 0.9176999 1.0000000
v 0.9921000 0.9315000 0.7563640
v 1.0000000 0.9315000 0.7563640
v 1.0000000 0.9310611 0.7559251
v 0.9921000 0.9315000 0.7563640
v 1.0000000 0.9310611 0.7559251
v 1.0000000 0.9176999 0.7425640
v 0.9921000 0.9315000 0.7563640
v 1.0000000 0.9176999 0.7425640
v 0.9921000 0.9176999 0.7425640
v 0.9783001 0.3358000 0.7563640
v 0.9783001 0.9176999 0.7563640
v 0.9921000 0.9176999 0.7425640
v 0.9783001 0.3358000 0.7563640
v 0.9921000 0.9176999 0.7425640
v 0.9921000 0.3358000 0.7425640
v 0.9921000 0.3220000 1.0000000
v 0.9921000 0.3220000 0.7563640
v 1.0000000 0.3220000 0.7563640
v 0.9921000 0.3220000 1.0000000
v 1.0000000 0.3220000 0.7563640
v 1.0000000 0.3220000 1.0000000
v 0.9783001 0.9176999 1.0000000
v 0.9783001 0.9176999 0.7563640
v 0.9783001 0.4710340 1.0000000
v 0.9783001 0.4710340 1.0000000
v 0.9783001 0.9176999 0.7563640
v 0.9783001 0.3358000 0.7563640
v 0.9783001 0.4710340 1.0000000
v 0.9783001 0.3358000 0.7563640
v 0.9783001 0.3358000 1.0000000
v 0.9921000 0.3358000 0.7425640
v 0.9921000 0.9176999 0.7425640
v 1.0000000 0.9176999 0.7425640
v 0.9921000 0.3358000 0.7425640
v 1.0000000 0.9176999 0.7425640
v 1.0000000 0.3543065 0.7425640
v 0.9921000 0.3358000 0.7425640
v 1.0000000 0.3543065 0.7425640
v 1.0000000 0.3358000 0.7425640
v 1.0000000 0.9315000 1.0000000
v 1.0000000 0.9315000 0.7563640
v 0.9921000 0.9315000 0.7563640
v 1.0000000 0.9315000 1.0000000
v 0.9921000 0.9315000 0.7563640
v 0.9921000 0.9315000 1.0000000
v 0.8690500 0.3013000 0.6816140
v 0.8828499 0.3013000 0.6678140
v 0.8828499 0.2875000 0.6816140
v 0.8690500 0.3887000 0.6816140
v 0.8828499 0.4025000 0.6816140
v 0.8828499 0.3887000 0.6678140
v 0.8690500 0.3013000 1.0000000
v 0.8690500 0.3013000 0.6816140
v 0.8828499 0.2875000 0.6816140
v 0.8690500 0.3013000 1.0000000
v 0.8828499 0.2875000 0.6816140
v 0.8734395 0.2969104 1.0000000
v 0.8734395 0.2969104 1.0000000
v 0.8828499 0.2875000 0.6816140
v 0.8828499 0.2875000 1.0000000
v 0.8828499 0.2875000 0.6816140
v 0.8828499 0.3013000 0.6678140
v 1.0000000 0.3013000 0.6678140
v 0.8828499 0.2875000 0.6816140
v 1.0000000 0.3013000 0.6678140
v 1.0000000 0.2909626 0.6781514
v 0.8828499 0.2875000 0.6816140
v 1.0000000 0.2909626 0.6781514
v 1.0000000 0.2875000 0.6816140
v 0.8828499 0.4025000 1.0000000
v 0.8828499 0.4025000 0.6816140
v 0.8734395 0.3930896 1.0000000
v 0.8734395 0.3930896 1.0000000
v 0.8828499 0.4025000 0.6816140
v 0.8690500 0.3887000 0.6816140
v 0.8734395 0.3930896 1.0000000
v 0.8690500 0.3887000 0.6816140
v 0.8690500 0.3887000 1.0000000
v 0.8828499 0.4025000 0.6816140
v 1.0000000 0.4025000 0.6816140
v 1.0000000 0.3990374 0.6781514
v 0.8828499 0.4025000 0.6816140
v 1.0000000 0.3990374 0.6781514
v 1.0000000 0.3887000 0.6678140
v 0.8828499 0.4025000 0.6816140
v 1.0000000 0.3887000 0.6678140
v 0.8828499 0.3887000 0.6678140
v 0.8690500 0.3013000 0.6816140
v 0.8690500 0.3887000 0.6816140
v 0.8828499 0.3887000 0.6678140
v 0.8690500 0.3013000 0.6816140
v 0.8828499 0.3887000 0.6678140
v 0.8828499 0.3013000 0.6678140
v 0.8828499 0.2875000 1.0000000
v 0.8828499 0.2875000 0.6816140
v 1.0000000 0.2875000 0.6816140
v 0.8828499 0.2875000 1.0000000
v 1.0000000 0.2875000 0.6816140
v 1.0000000 0.2875000 1.0000000
v 0.8690500 0.3887000 1.0000000
v 0.8690500 0.3887000 0.6816140
v 0.8690500 0.3291007 1.0000000
v 0.8690500 0.3291007 1.0000000
v 0.8690500 0.3887000 0.6816140
v 0.8690500 0.3013000 0.6816140
v 0.8690500 0.3291007 1.0000000
v 0.8690500 0.3013000 0.6816140
v 0.8690500 0.3013000 1.0000000
v 0.8828499 0.3013000 0.6678140
v 0.8828499 0.3887000 0.6678140
v 1.0000000 0.3887000 0.6678140
v 0.8828499 0.3013000 0.6678140
v 1.0000000 0.3887000 0.6678140
v 1.0000000 0.3232296 0.6678140
v 0.8828499 0.3013000 0.6678140
v 1.0000000 0.3232296 0.6678140
v 1.0000000 0.3013000 0.6678140
v 1.0000000 0.4025000 1.0000000
v 1.0000000 0.4025000 0.6816140
v 0.8828499 0.4025000 0.6816140
v 1.0000000 0.4025000 1.0000000
v 0.8828499 0.4025000 0.6816140
v 0.8828499 0.4025000 1.0000000
v 0.9495499 0.4094000 0.9449419
v 0.9495499 0.4485000 0.9449419
v 0.9323001 0.4485000 0.9150640
v 0.9495499 0.4094000 0.9449419
v 0.9323001 0.4485000 0.9150640
v 0.9323001 0.4094000 0.9150640
v 0.9840500 0.4094000 0.9449419
v 0.9840500 0.4485000 0.9449419
v 0.9495499 0.4485000 0.9449419
v 0.9840500 0.4094000 0.9449419
v 0.9495499 0.4485000 0.9449419
v 0.9495499 0.4094000 0.9449419
v 1.0000000 0.4485000 0.9173157
v 0.9840500 0.4485000 0.9449419
v 1.0000000 0.4123467 0.9173157
v 1.0000000 0.4123467 0.9173157
v 0.9840500 0.4485000 0.9449419
v 0.9840500 0.4094000 0.9449419
v 1.0000000 0.4123467 0.9173157
v 0.9840500 0.4094000 0.9449419
v 1.0000000 0.4094000 0.9173157
v 1.0000000 0.4094000 0.9128123
v 0.9840500 0.4094000 0.8851861
v 0.9840500 0.4485000 0.8851861
v 1.0000000 0.4094000 0.9128123
v 0.9840500 0.4485000 0.8851861
v 1.0000000 0.4123467 0.9128123
v 1.0000000 0.4123467 0.9128123
v 0.9840500 0.4485000 0.8851861
v 1.0000000 0.4485000 0.9128123
v 0.9840500 0.4094000 0.8851861
v 0.9495499 0.4094000 0.8851861
v 0.9495499 0.4485000 0.8851861
v 0.9840500 0.4094000 0.8851861
v 0.9495499 0.4485000 0.8851861
v 0.9840500 0.4485000 0.8851861
v 0.9495499 0.4094000 0.8851861
v 0.9323001 0.4094000 0.9150640
v 0.9323001 0.4485000 0.9150640
v 0.9495499 0.4094000 0.8851861
v 0.9323001 0.4485000 0.9150640
v 0.9495499 0.4485000 0.8851861
v 1.0000000 0.4094000 0.9173157
v 0.9840500 0.4094000 0.9449419
v 0.9495499 0.4094000 0.9449419
v 1.0000000 0.4094000 0.9173157
v 0.9495499 0.4094000 0.9449419
v 1.0000000 0.4094000 0.9158146
v 1.0000000 0.4094000 0.9158146
v 0.9495499 0.4094000 0.9449419
v 0.9323001 0.4094000 0.9150640
v 1.0000000 0.4094000 0.9158146
v 0.9323001 0.4094000 0.9150640
v 1.0000000 0.4094000 0.9150640
v 1.0000000 0.4094000 0.9150640
v 0.9323001 0.4094000 0.9150640
v 0.9495499 0.4094000 0.8851861
v 1.0000000 0.4094000 0.9150640
v 0.9495499 0.4094000 0.8851861
v 1.0000000 0.4094000 0.9143134
v 1.0000000 0.4094000 0.9143134
v 0.9495499 0.4094000 0.8851861
v 0.9840500 0.4094000 0.8851861
v 1.0000000 0.4094000 0.9143134
v 0.9840500 0.4094000 0.8851861
v 1.0000000 0.4094000 0.9128123
v 1.0000000 0.4485000 0.9128123
v 0.9840500 0.4485000 0.8851861
v 0.9495499 0.4485000 0.8851861
v 1.0000000 0.4485000 0.9128123
v 0.9495499 0.4485000 0.8851861
v 1.0000000 0.4485000 0.9143134
v 1.0000000 0.4485000 0.9143134
v 0.9495499 0.4485000 0.8851861
v 0.9323001 0.4485000 0.9150640
v 1.0000000 0.4485000 0.9143134
v 0.9323001 0.4485000 0.9150640
v 1.0000000 0.4485000 0.9150640
v 1.0000000 0.4485000 0.9150640
v 0.9323001 0.4485000 0.9150640
v 0.9495499 0.4485000 0.9449419
v 1.0000000 0.4485000 0.9150640
v 0.9495499 0.4485000 0.9449419
v 1.0000000 0.4485000 0.9158146
v 1.0000000 0.4485000 0.9158146
v 0.9495499 0.4485000 0.9449419
v 0.9840500 0.4485000 0.9449419
v 1.0000000 0.4485000 0.9158146
v 0.9840500 0.4485000 0.9449419
v 1.0000000 0.4485000 0.9173157
v 0.2400000 0.0138000 0.6352000
v 0.2537999 0.0000000 0.6352000
v 0.2537999 0.0138000 0.6490000
v 0.2400000 0.0138000 0.3638000
v 0.2537999 0.0138000 0.3500000
v 0.2537999 0.0000000 0.3638000
v 0.2400000 0.2852000 0.6352000
v 0.2537999 0.2852000 0.6490000
v 0.2537999 0.2990000 0.6352000
v 0.2400000 0.2852000 0.3638000
v 0.2537999 0.2990000 0.3638000
v 0.2537999 0.2852000 0.3500000
v 0.2537999 0.0138000 0.6490000
v 0.2537999 0.0000000 0.6352000
v 1.0000000 0.0000000 0.6352000
v 0.2537999 0.0138000 0.6490000
v 1.0000000 0.0000000 0.6352000
v 1.0000000 0.0119251 0.6471251
v 0.2537999 0.0138000 0.6490000
v 1.0000000 0.0119251 0.6471251
v 1.0000000 0.0138000 0.6490000
v 0.2400000 0.0138000 0.6352000
v 0.2400000 0.0138000 0.3638000
v 0.2537999 0.0000000 0.3638000
v 0.2400000 0.0138000 0.6352000
v 0.2537999 0.0000000 0.3638000
v 0.2537999 0.0000000 0.6352000
v 0.2537999 0.0000000 0.3638000
v 0.2537999 0.0138000 0.3500000
v 1.0000000 0.0138000 0.3500000
v 0.2537999 0.0000000 0.3638000
v 1.0000000 0.0138000 0.3500000
v 1.0000000 0.0018749 0.3619251
v 0.2537999 0.0000000 0.3638000
v 1.0000000 0.0018749 0.3619251
v 1.0000000 0.0000000 0.3638000
v 0.2400000 0.2852000 0.6352000
v 0.2537999 0.2990000 0.6352000
v 0.2537999 0.2990000 0.3638000
v 0.2400000 0.2852000 0.6352000
v 0.2537999 0.2990000 0.3638000
v 0.2400000 0.2852000 0.3638000
v 0.2537999 0.2852000 0.6490000
v 1.0000000 0.2852000 0.6490000
v 1.0000000 0.2870749 0.6471251
v 0.2537999 0.2852000 0.6490000
v 1.0000000 0.2870749 0.6471251
v 1.0000000 0.2990000 0.6352000
v 0.2537999 0.2852000 0.6490000
v 1.0000000 0.2990000 0.6352000
v 0.2537999 0.2990000 0.6352000
v 0.2537999 0.2990000 0.3638000
v 1.0000000 0.2990000 0.3638000
v 1.0000000 0.2971251 0.3619251
v 0.2537999 0.2990000 0.3638000
v 1.0000000 0.2971251 0.3619251
v 1.0000000 0.2852000 0.3500000
v 0.2537999 0.2990000 0.3638000
v 1.0000000 0.2852000 0.3500000
v 0.2537999 0.2852000 0.3500000
v 0.2400000 0.0138000 0.6352000
v 0.2537999 0.0138000 0.6490000
v 0.2537999 0.2852000 0.6490000
v 0.2400000 0.0138000 0.6352000
v 0.2537999 0.2852000 0.6490000
v 0.2400000 0.2852000 0.6352000
v 0.2400000 0.0138000 0.3638000
v 0.2400000 0.2852000 0.3638000
v 0.2537999 0.2852000 0.3500000
v 0.2400000 0.0138000 0.3638000
v 0.2537999 0.2852000 0.3500000
v 0.2537999 0.0138000 0.3500000
v 0.2537999 0.0138000 0.6490000
v 1.0000000 0.0138000 0.6490000
v 1.0000000 0.0506725 0.6490000
v 0.2537999 0.0138000 0.6490000
v 1.0000000 0.0506725 0.6490000
v 1.0000000 0.2852000 0.6490000
v 0.2537999 0.0138000 0.6490000
v 1.0000000 0.2852000 0.6490000
v 0.2537999 0.2852000 0.6490000
v 0.2537999 0.0000000 0.6352000
v 0.2537999 0.0000000 0.3638000
v 1.0000000 0.0000000 0.3638000
v 0.2537999 0.0000000 0.6352000
v 1.0000000 0.0000000 0.3638000
v 1.0000000 0.0000000 0.5983275
v 0.2537999 0.0000000 0.6352000
v 1.0000000 0.0000000 0.5983275
v 1.0000000 0.0000000 0.6352000
v 0.2400000 0.0138000 0.6352000
v 0.2400000 0.2852000 0.6352000
v 0.2400000 0.2852000 0.3638000
v 0.2400000 0.0138000 0.6352000
v 0.2400000 0.2852000 0.3638000
v 0.2400000 0.0138000 0.3638000
v 0.2537999 0.0138000 0.3500000
v 0.2537999 0.2852000 0.3500000
v 1.0000000 0.2852000 0.3500000
v 0.2537999 0.0138000 0.3500000
v 1.0000000 0.2852000 0.3500000
v 1.0000000 0.0506725 0.3500000
v 0.2537999 0.0138000 0.3500000
v 1.0000000 0.0506725 0.3500000
v 1.0000000 0.0138000 0.3500000
v 0.2537999 0.2990000 0.6352000
v 1.0000000 0.2990000 0.6352000
v 1.0000000 0.2990000 0.5983275
v 0.2537999 0.2990000 0.6352000
v 1.0000000 0.2990000 0.5983275
v 1.0000000 0.2990000 0.3638000
v 0.2537999 0.2990000 0.6352000
v 1.0000000 0.2990000 0.3638000
v 0.2537999 0.2990000 0.3638000
v 0.7943001 0.0460000 0.5363000
v 0.7943001 0.0598000 0.5225000
v 0.8081000 0.0598000 0.5363000
v 0.5551002 0.0598000 0.5363000
v 0.5689001 0.0598000 0.5225000
v 0.5689001 0.0460000 0.5363000
v 0.7943001 0.2760000 0.5363000
v 0.8081000 0.2622000 0.5363000
v 0.7943001 0.2622000 0.5225000
v 0.5551002 0.2622000 0.5363000
v 0.5689001 0.2760000 0.5363000
v 0.5689001 0.2622000 0.5225000
v 0.5551002 0.0598000 1.0000000
v 0.5551002 0.0598000 0.5363000
v 0.5689001 0.0460000 0.5363000
v 0.5551002 0.0598000 1.0000000
v 0.5689001 0.0460000 0.5363000
v 0.5655801 0.0493200 1.0000000
v 0.5655801 0.0493200 1.0000000
v 0.5689001 0.0460000 0.5363000
v 0.5689001 0.0460000 1.0000000
v 0.5689001 0.0460000 0.5363000
v 0.5689001 0.0598000 0.5225000
v 0.7943001 0.0598000 0.5225000
v 0.5689001 0.0460000 0.5363000
v 0.7943001 0.0598000 0.5225000
v 0.7943001 0.0460000 0.5363000
v 0.7943001 0.0460000 1.0000000
v 0.7943001 0.0460000 0.5363000
v 0.8081000 0.0598000 0.5363000
v 0.7943001 0.0460000 1.0000000
v 0.8081000 0.0598000 0.5363000
v 0.8047800 0.0564800 1.0000000
v 0.8047800 0.0564800 1.0000000
v 0.8081000 0.0598000 0.5363000
v 0.8081000 0.0598000 1.0000000
v 0.5689001 0.2760000 1.0000000
v 0.5689001 0.2760000 0.5363000
v 0.5655801 0.2726800 1.0000000
v 0.5655801 0.2726800 1.0000000
v 0.5689001 0.2760000 0.5363000
v 0.5551002 0.2622000 0.5363000
v 0.5655801 0.2726800 1.0000000
v 0.5551002 0.2622000 0.5363000
v 0.5551002 0.2622000 1.0000000
v 0.8081000 0.2622000 1.0000000
v 0.8081000 0.2622000 0.5363000
v 0.8047800 0.2655200 1.0000000
v 0.8047800 0.2655200 1.0000000
v 0.8081000 0.2622000 0.5363000
v 0.7943001 0.2760000 0.5363000
v 0.8047800 0.2655200 1.0000000
v 0.7943001 0.2760000 0.5363000
v 0.7943001 0.2760000 1.0000000
v 0.5689001 0.2760000 0.5363000
v 0.7943001 0.2760000 0.5363000
v 0.7943001 0.2622000 0.5225000
v 0.5689001 0.2760000 0.5363000
v 0.7943001 0.2622000 0.5225000
v 0.5689001 0.2622000 0.5225000
v 0.7943001 0.0598000 0.5225000
v 0.7943001 0.2622000 0.5225000
v 0.8081000 0.2622000 0.5363000
v 0.7943001 0.0598000 0.5225000
v 0.8081000 0.2622000 0.5363000
v 0.8081000 0.0598000 0.5363000
v 0.5551002 0.0598000 0.5363000
v 0.5551002 0.2622000 0.5363000
v 0.5689001 0.2622000 0.5225000
v 0.5551002 0.0598000 0.5363000
v 0.5689001 0.2622000 0.5225000
v 0.5689001 0.0598000 0.5225000
v 0.5689001 0.0460000 1.0000000
v 0.5689001 0.0460000 0.5363000
v 0.7943001 0.0460000 0.5363000
v 0.5689001 0.0460000 1.0000000
v 0.7943001 0.0460000 0.5363000
v 0.7400727 0.0460000 1.0000000
v 0.7400727 0.0460000 1.0000000
v 0.7943001 0.0460000 0.5363000
v 0.7943001 0.0460000 1.0000000
v 0.5551002 0.2622000 1.0000000
v 0.5551002 0.2622000 0.5363000
v 0.5551002 0.2135060 1.0000000
v 0.5551002 0.2135060 1.0000000
v 0.5551002 0.2622000 0.5363000
v 0.5551002 0.0598000 0.5363000
v 0.5551002 0.2135060 1.0000000
v 0.5551002 0.0598000 0.5363000
v 0.5551002 0.0598000 1.0000000
v 0.8081000 0.0598000 1.0000000
v 0.8081000 0.0598000 0.5363000
v 0.8081000 0.2622000 0.5363000
v 0.8081000 0.0598000 1.0000000
v 0.8081000 0.2622000 0.5363000
v 0.8081000 0.2135060 1.0000000
v 0.8081000 0.2135060 1.0000000
v 0.8081000 0.2622000 0.5363000
v 0.8081000 0.2622000 1.0000000
v 0.5689001 0.0598000 0.5225000
v 0.5689001 0.2622000 0.5225000
v 0.7943001 0.2622000 0.5225000
v 0.5689001 0.0598000 0.5225000
v 0.7943001 0.2622000 0.5225000
v 0.7943001 0.0598000 0.5225000
v 0.7943001 0.2760000 1.0000000
v 0.7943001 0.2760000 0.5363000
v 0.7400727 0.2760000 1.0000000
v 0.7400727 0.2760000 1.0000000
v 0.7943001 0.2760000 0.5363000
v 0.5689001 0.2760000 0.5363000
v 0.7400727 0.2760000 1.0000000
v 0.5689001 0.2760000 0.5363000
v 0.5689001 0.2760000 1.0000000
v 0.3205001 0.2058500 0.4293500
v 0.3308501 0.2058500 0.4190000
v 0.3308501 0.1955000 0.4293500
v 0.3205001 0.2426500 0.4293500
v 0.3308501 0.2530000 0.4293500
v 0.3308501 0.2426500 0.4190000
v 0.3205001 0.2058500 1.0000000
v 0.3205001 0.2058500 0.4293500
v 0.3308501 0.1955000 0.4293500
v 0.3205001 0.2058500 1.0000000
v 0.3308501 0.1955000 0.4293500
v 0.3280919 0.1982582 1.0000000
v 0.3280919 0.1982582 1.0000000
v 0.3308501 0.1955000 0.4293500
v 0.3308501 0.1955000 1.0000000
v 0.3308501 0.1955000 0.4293500
v 0.3308501 0.2058500 0.4190000
v 1.0000000 0.2058500 0.4190000
v 0.3308501 0.1955000 0.4293500
v 1.0000000 0.2058500 0.4190000
v 1.0000000 0.1967974 0.4280526
v 0.3308501 0.1955000 0.4293500
v 1.0000000 0.1967974 0.4280526
v 1.0000000 0.1955000 0.4293500
v 0.3308501 0.2530000 1.0000000
v 0.3308501 0.2530000 0.4293500
v 0.3280919 0.2502418 1.0000000
v 0.3280919 0.2502418 1.0000000
v 0.3308501 0.2530000 0.4293500
v 0.3205001 0.2426500 0.4293500
v 0.3280919 0.2502418 1.0000000
v 0.3205001 0.2426500 0.4293500
v 0.3205001 0.2426500 1.0000000
v 0.3308501 0.2530000 0.4293500
v 1.0000000 0.2530000 0.4293500
v 1.0000000 0.2517026 0.4280526
v 0.3308501 0.2530000 0.4293500
v 1.0000000 0.2517026 0.4280526
v 1.0000000 0.2426500 0.4190000
v 0.3308501 0.2530000 0.4293500
v 1.0000000 0.2426500 0.4190000
v 0.3308501 0.2426500 0.4190000
v 0.3205001 0.2058500 0.4293500
v 0.3205001 0.2426500 0.4293500
v 0.3308501 0.2426500 0.4190000
v 0.3205001 0.2058500 0.4293500
v 0.3308501 0.2426500 0.4190000
v 0.3308501 0.2058500 0.4190000
v 0.3308501 0.1955000 1.0000000
v 0.3308501 0.1955000 0.4293500
v 1.0000000 0.1955000 0.4293500
v 0.3308501 0.1955000 1.0000000
v 1.0000000 0.1955000 0.4293500
v 1.0000000 0.1955000 1.0000000
v 0.3205001 0.2426500 1.0000000
v 0.3205001 0.2426500 0.4293500
v 0.3205001 0.2328429 1.0000000
v 0.3205001 0.2328429 1.0000000
v 0.3205001 0.2426500 0.4293500
v 0.3205001 0.2058500 0.4293500
v 0.3205001 0.2328429 1.0000000
v 0.3205001 0.2058500 0.4293500
v 0.3205001 0.2058500 1.0000000
v 0.3308501 0.2058500 0.4190000
v 0.3308501 0.2426500 0.4190000
v 1.0000000 0.2426500 0.4190000
v 0.3308501 0.2058500 0.4190000
v 1.0000000 0.2426500 0.4190000
v 1.0000000 0.2104628 0.4190000
v 0.3308501 0.2058500 0.4190000
v 1.0000000 0.2104628 0.4190000
v 1.0000000 0.2058500 0.4190000
v 1.0000000 0.2530000 1.0000000
v 1.0000000 0.2530000 0.4293500
v 0.3308501 0.2530000 0.4293500
v 1.0000000 0.2530000 1.0000000
v 0.3308501 0.2530000 0.4293500
v 0.3308501 0.2530000 1.0000000
v 0.4780500 0.3128000 0.5338128
v 0.4780500 0.3645500 0.5338128
v 0.4515998 0.3645500 0.4880000
v 0.4780500 0.3128000 0.5338128
v 0.4515998 0.3645500 0.4880000
v 0.4515998 0.3128000 0.4880000
v 0.5309498 0.3128000 0.5338128
v 0.5309498 0.3645500 0.5338128
v 0.4780500 0.3645500 0.5338128
v 0.5309498 0.3128000 0.5338128
v 0.4780500 0.3645500 0.5338128
v 0.4780500 0.3128000 0.5338128
v 0.5574000 0.3128000 0.4880000
v 0.5574000 0.3645500 0.4880000
v 0.5309498 0.3645500 0.5338128
v 0.5574000 0.3128000 0.4880000
v 0.5309498 0.3645500 0.5338128
v 0.5309498 0.3128000 0.5338128
v 0.5574000 0.3128000 0.4880000
v 0.5309498 0.3128000 0.4421873
v 0.5309498 0.3645500 0.4421873
v 0.5574000 0.3128000 0.4880000
v 0.5309498 0.3645500 0.4421873
v 0.5574000 0.3645500 0.4880000
v 0.5309498 0.3128000 0.4421873
v 0.4780500 0.3128000 0.4421873
v 0.4780500 0.3645500 0.4421873
v 0.5309498 0.3128000 0.4421873
v 0.4780500 0.3645500 0.4421873
v 0.5309498 0.3645500 0.4421873
v 0.4780500 0.3128000 0.4421873
v 0.4515998 0.3128000 0.4880000
v 0.4515998 0.3645500 0.4880000
v 0.4780500 0.3128000 0.4421873
v 0.4515998 0.3645500 0.4880000
v 0.4780500 0.3645500 0.4421873
v 0.5574000 0.3128000 0.4880000
v 0.5309498 0.3128000 0.5338128
v 0.4780500 0.3128000 0.5338128
v 0.5574000 0.3128000 0.4880000
v 0.4780500 0.3128000 0.5338128
v 0.4515998 0.3128000 0.4880000
v 0.5574000 0.3128000 0.4880000
v 0.4515998 0.3128000 0.4880000
v 0.4780500 0.3128000 0.4421873
v 0.5574000 0.3128000 0.4880000
v 0.4780500 0.3128000 0.4421873
v 0.5309498 0.3128000 0.4421873
v 0.5574000 0.3645500 0.4880000
v 0.5309498 0.3645500 0.4421873
v 0.4780500 0.3645500 0.4421873
v 0.5574000 0.3645500 0.4880000
v 0.4780500 0.3645500 0.4421873
v 0.4515998 0.3645500 0.4880000
v 0.5574000 0.3645500 0.4880000
v 0.4515998 0.3645500 0.4880000
v 0.4780500 0.3645500 0.5338128
v 0.5574000 0.3645500 0.4880000
v 0.4780500 0.3645500 0.5338128
v 0.5309498 0.3645500 0.5338128
vt 0.2249640 0.0374673
vt 0.2259032 0.0368398
vt 0.2249640 0.0356954
vt 0.2267028 0.0383357
vt 0.2259032 0.0368398
vt 0.2249640 0.0374673
vt 0.2267028 0.0383357
vt 0.2249640 0.0374673
vt 0.2249640 0.0383357
vt 0.9960938 0.0044525
vt 0.9960938 0.1210938
vt 0.9375000 0.1210938
vt 0.9960938 0.0044525
vt 0.9375000 0.1210938
vt 0.9958207 0.0044525
vt 0.9958207 0.0044525
vt 0.9375000 0.1210938
vt 0.9375000 0.0044525
vt 0.9082031 0.0044525
vt 0.9082031 0.1210938
vt 0.9667969 0.1210938
vt 0.9082031 0.0044525
vt 0.9667969 0.1210938
vt 0.9084762 0.0044525
vt 0.9084762 0.0044525
vt 0.9667969 0.1210938
vt 0.9667969 0.0044525
vt 0.9375000 0.0044525
vt 0.9375000 0.1210938
vt 0.9960938 0.1210938
vt 0.9375000 0.0044525
vt 0.9960938 0.1210938
vt 0.9377731 0.0044525
vt 0.9377731 0.0044525
vt 0.9960938 0.1210938
vt 0.9960938 0.0044525
vt 0.8789062 0.0044525
vt 0.8789062 0.1210938
vt 0.9372269 0.0044525
vt 0.9372269 0.0044525
vt 0.8789062 0.1210938
vt 0.9375000 0.1210938
vt 0.9372269 0.0044525
vt 0.9375000 0.1210938
vt 0.9375000 0.0044525
vt 0.9667969 0.0044525
vt 0.9667969 0.1210938
vt 0.9084762 0.0044525
vt 0.9084762 0.0044525
vt 0.9667969 0.1210938
vt 0.9082031 0.1210938
vt 0.9084762 0.0044525
vt 0.9082031 0.1210938
vt 0.9082031 0.0044525
vt 0.9375000 0.0044525
vt 0.9375000 0.1210938
vt 0.8791793 0.0044525
vt 0.8791793 0.0044525
vt 0.9375000 0.1210938
vt 0.8789062 0.1210938
vt 0.8791793 0.0044525
vt 0.8789062 0.1210938
vt 0.8789062 0.0044525
vt 0.8789062 0.0625000
vt 0.9082031 0.0039062
vt 0.9667969 0.0039062
vt 0.8789062 0.0625000
vt 0.9667969 0.0039062
vt 0.9960938 0.0625000
vt 0.8789062 0.0625000
vt 0.9960938 0.0625000
vt 0.9667969 0.1210938
vt 0.8789062 0.0625000
vt 0.9667969 0.1210938
vt 0.9082031 0.1210938
vt 0.2414063 0.0065596
vt 0.2460938 0.0065596
vt 0.2414063 0.0039062
vt 0.2414063 0.1184404
vt 0.2414063 0.1210938
vt 0.2460938 0.1184404
vt 0.1316048 0.0324784
vt 0.1289062 0.1164063
vt 0.1347656 0.1164063
vt 0.1316048 0.0324784
vt 0.1347656 0.1164063
vt 0.1329666 0.0324784
vt 0.1329666 0.0324784
vt 0.1347656 0.1164063
vt 0.1345408 0.0327500
vt 0.1347656 0.1164063
vt 0.1347656 0.1210938
vt 0.1381199 0.1210938
vt 0.1347656 0.1164063
vt 0.1381199 0.1210938
vt 0.1381199 0.1165554
vt 0.1347656 0.1164063
vt 0.1381199 0.1165554
vt 0.1381199 0.1164063
vt 0.1589493 0.1210938
vt 0.2414063 0.1210938
vt 0.1586495 0.1190571
vt 0.1586495 0.1190571
vt 0.2414063 0.1210938
vt 0.2414063 0.1184404
vt 0.1586495 0.1190571
vt 0.2414063 0.1184404
vt 0.1586495 0.1184404
vt 0.1347656 0.1164063
vt 0.1381292 0.1164808
vt 0.1381199 0.1164710
vt 0.1347656 0.1164063
vt 0.1381199 0.1164710
vt 0.1381199 0.1184404
vt 0.1347656 0.1164063
vt 0.1381199 0.1184404
vt 0.1347656 0.1184404
vt 0.2414063 0.0065596
vt 0.2414063 0.1184404
vt 0.2460938 0.1184404
vt 0.2414063 0.0065596
vt 0.2460938 0.1184404
vt 0.2460938 0.0065596
vt 0.1345408 0.0327500
vt 0.1347656 0.1164063
vt 0.1381199 0.1164063
vt 0.1345408 0.0327500
vt 0.1381199 0.1164063
vt 0.1378951 0.0327500
vt 0.1586495 0.1184404
vt 0.2414063 0.1184404
vt 0.1577500 0.0329511
vt 0.1577500 0.0329511
vt 0.2414063 0.1184404
vt 0.2414063 0.0065596
vt 0.1577500 0.0329511
vt 0.2414063 0.0065596
vt 0.1577500 0.0069499
vt 0.1347656 0.0065596
vt 0.1347656 0.1184404
vt 0.1381199 0.1184404
vt 0.1347656 0.0065596
vt 0.1381199 0.1184404
vt 0.1381199 0.0101178
vt 0.1347656 0.0065596
vt 0.1381199 0.0101178
vt 0.1381199 0.0065596
vt 0.1381292 0.0337240
vt 0.1381292 0.1164808
vt 0.1347656 0.1164063
vt 0.1381292 0.0337240
vt 0.1347656 0.1164063
vt 0.1347656 0.0336494
vt 0.2428234 0.0179687
vt 0.2460938 0.0179688
vt 0.2428234 0.0039062
vt 0.2428234 0.1070312
vt 0.2428234 0.1210938
vt 0.2460938 0.1070313
vt 0.1305788 0.0478912
vt 0.1289062 0.1178234
vt 0.1321766 0.1178234
vt 0.1305788 0.0478912
vt 0.1321766 0.1178234
vt 0.1316191 0.0478912
vt 0.1316191 0.0478912
vt 0.1321766 0.1178234
vt 0.1321766 0.0418142
vt 0.1321766 0.1178234
vt 0.1321766 0.1210938
vt 0.1599390 0.1210938
vt 0.1321766 0.1178234
vt 0.1599390 0.1210938
vt 0.1599390 0.1186440
vt 0.1321766 0.1178234
vt 0.1599390 0.1186440
vt 0.1599390 0.1178234
vt 0.1673717 0.1210938
vt 0.2428234 0.1210938
vt 0.1673717 0.1115043
vt 0.1673717 0.1115043
vt 0.2428234 0.1210938
vt 0.2428234 0.1070312
vt 0.1673717 0.1115043
vt 0.2428234 0.1070312
vt 0.1673717 0.1070312
vt 0.1321766 0.1178234
vt 0.1599390 0.1182337
vt 0.1599390 0.1151155
vt 0.1321766 0.1178234
vt 0.1599390 0.1151155
vt 0.1599390 0.1070312
vt 0.1321766 0.1178234
vt 0.1599390 0.1070312
vt 0.1321766 0.1070312
vt 0.2428234 0.0179687
vt 0.2428234 0.1070312
vt 0.2460938 0.1070313
vt 0.2428234 0.0179687
vt 0.2460938 0.1070313
vt 0.2460938 0.0179688
vt 0.1321766 0.0418142
vt 0.1321766 0.1178234
vt 0.1599390 0.1178234
vt 0.1321766 0.0418142
vt 0.1599390 0.1178234
vt 0.1599390 0.0418142
vt 0.1673717 0.1070312
vt 0.2428234 0.1070312
vt 0.1668142 0.0444584
vt 0.1668142 0.0444584
vt 0.2428234 0.1070312
vt 0.2428234 0.0179687
vt 0.1668142 0.0444584
vt 0.2428234 0.0179687
vt 0.1668142 0.0161289
vt 0.1321766 0.0179687
vt 0.1321766 0.1070312
vt 0.1599390 0.1070312
vt 0.1321766 0.0179687
vt 0.1599390 0.1070312
vt 0.1599390 0.0403154
vt 0.1321766 0.0179687
vt 0.1599390 0.0403154
vt 0.1599390 0.0179687
vt 0.1599390 0.0427820
vt 0.1599390 0.1182337
vt 0.1321766 0.1178234
vt 0.1599390 0.0427820
vt 0.1321766 0.1178234
vt 0.1321766 0.0423717
vt 0.9960938 0.0039062
vt 0.9960938 0.1210938
vt 0.9375000 0.1210938
vt 0.9960938 0.0039062
vt 0.9375000 0.1210938
vt 0.9375000 0.0039062
vt 0.9082031 0.0039062
vt 0.9082031 0.1210938
vt 0.9667969 0.1210938
vt 0.9082031 0.0039062
vt 0.9667969 0.1210938
vt 0.9667969 0.0039062
vt 0.9419158 0.1210938
vt 0.9960938 0.1210938
vt 0.9419158 0.0127377
vt 0.9419158 0.0127377
vt 0.9960938 0.1210938
vt 0.9960938 0.0039062
vt 0.9419158 0.0127377
vt 0.9960938 0.0039062
vt 0.9419158 0.0039062
vt 0.9330842 0.0039062
vt 0.8789062 0.0039062
vt 0.8789062 0.1210938
vt 0.9330842 0.0039062
vt 0.8789062 0.1210938
vt 0.9330842 0.0127377
vt 0.9330842 0.0127377
vt 0.8789062 0.1210938
vt 0.9330842 0.1210938
vt 0.9082031 0.0039062
vt 0.9667969 0.0039062
vt 0.9667969 0.1210938
vt 0.9082031 0.0039062
vt 0.9667969 0.1210938
vt 0.9082031 0.1210938
vt 0.8789062 0.0039062
vt 0.9375000 0.0039062
vt 0.9375000 0.1210938
vt 0.8789062 0.0039062
vt 0.9375000 0.1210938
vt 0.8789062 0.1210938
vt 0.8811141 0.0669158
vt 0.9082031 0.1210938
vt 0.9667969 0.1210938
vt 0.8811141 0.0669158
vt 0.9667969 0.1210938
vt 0.8811141 0.0639719
vt 0.8811141 0.0639719
vt 0.9667969 0.1210938
vt 0.9960938 0.0625000
vt 0.8811141 0.0639719
vt 0.9960938 0.0625000
vt 0.8811141 0.0625000
vt 0.8811141 0.0625000
vt 0.9960938 0.0625000
vt 0.9667969 0.0039062
vt 0.8811141 0.0625000
vt 0.9667969 0.0039062
vt 0.8811141 0.0610281
vt 0.8811141 0.0610281
vt 0.9667969 0.0039062
vt 0.9082031 0.0039062
vt 0.8811141 0.0610281
vt 0.9082031 0.0039062
vt 0.8811141 0.0580842
vt 0.8811141 0.0580842
vt 0.9082031 0.0039062
vt 0.9667969 0.0039062
vt 0.8811141 0.0580842
vt 0.9667969 0.0039062
vt 0.8811141 0.0610281
vt 0.8811141 0.0610281
vt 0.9667969 0.0039062
vt 0.9960938 0.0625000
vt 0.8811141 0.0610281
vt 0.9960938 0.0625000
vt 0.8811141 0.0625000
vt 0.8811141 0.0625000
vt 0.9960938 0.0625000
vt 0.9667969 0.1210938
vt 0.8811141 0.0625000
vt 0.9667969 0.1210938
vt 0.8811141 0.0639719
vt 0.8811141 0.0639719
vt 0.9667969 0.1210938
vt 0.9082031 0.1210938
vt 0.8811141 0.0639719
vt 0.9082031 0.1210938
vt 0.8811141 0.0669158
vt 0.0079627 0.1343149
vt 0.0054781 0.1329627
vt 0.0041260 0.1343149
vt 0.1156851 0.1343149
vt 0.1210938 0.1343149
vt 0.1156851 0.1289062
vt 0.0093149 0.2406851
vt 0.0041260 0.2406851
vt 0.0076097 0.2460938
vt 0.1156851 0.2406851
vt 0.1156851 0.2460938
vt 0.1210938 0.2406851
vt 0.0041260 0.1343149
vt 0.0054781 0.1329627
vt 0.0211459 0.1331464
vt 0.0041260 0.1343149
vt 0.0211459 0.1331464
vt 0.0199775 0.1343149
vt 0.0041260 0.1343149
vt 0.0199775 0.1343149
vt 0.0199775 0.1341312
vt 0.0079627 0.1343149
vt 0.0039062 0.2406851
vt 0.0041992 0.2406851
vt 0.0079627 0.1343149
vt 0.0041992 0.2406851
vt 0.0054781 0.1329627
vt 0.0041992 0.2406851
vt 0.0041992 0.2460938
vt 0.0200407 0.2460938
vt 0.0041992 0.2406851
vt 0.0200407 0.2460938
vt 0.0200407 0.2414199
vt 0.0041992 0.2406851
vt 0.0200407 0.2414199
vt 0.0200407 0.2406851
vt 0.0093149 0.2406851
vt 0.0076097 0.2460938
vt 0.1156851 0.2460938
vt 0.0093149 0.2406851
vt 0.1156851 0.2460938
vt 0.1156851 0.2406851
vt 0.0041260 0.2406851
vt 0.0199775 0.2406851
vt 0.0199775 0.2414199
vt 0.0041260 0.2406851
vt 0.0199775 0.2414199
vt 0.0229879 0.2460938
vt 0.0041260 0.2406851
vt 0.0229879 0.2460938
vt 0.0076097 0.2460938
vt 0.0041992 0.2406851
vt 0.0198670 0.2410525
vt 0.0200407 0.2406851
vt 0.0041992 0.2406851
vt 0.0200407 0.2406851
vt 0.0200407 0.2406851
vt 0.0041992 0.2406851
vt 0.0200407 0.2406851
vt 0.0041992 0.2406851
vt 0.0079627 0.1343149
vt 0.0041260 0.1343149
vt 0.0041260 0.2406851
vt 0.0079627 0.1343149
vt 0.0041260 0.2406851
vt 0.0093149 0.2406851
vt 0.1156851 0.1343149
vt 0.1156851 0.2406851
vt 0.1210938 0.2406851
vt 0.1156851 0.1343149
vt 0.1210938 0.2406851
vt 0.1210938 0.1343149
vt 0.0041260 0.1343149
vt 0.0199775 0.1341312
vt 0.0199775 0.1487664
vt 0.0041260 0.1343149
vt 0.0199775 0.1487664
vt 0.0199775 0.2406851
vt 0.0041260 0.1343149
vt 0.0199775 0.2406851
vt 0.0041260 0.2406851
vt 0.0054781 0.1329627
vt 0.0041992 0.2406851
vt 0.0200407 0.2406851
vt 0.0054781 0.1329627
vt 0.0200407 0.2406851
vt 0.0211459 0.1475979
vt 0.0054781 0.1329627
vt 0.0211459 0.1475979
vt 0.0211459 0.1331464
vt 0.0079627 0.1343149
vt 0.0093149 0.2406851
vt 0.1156851 0.2406851
vt 0.0079627 0.1343149
vt 0.1156851 0.2406851
vt 0.1156851 0.1343149
vt 0.0041992 0.1343149
vt 0.0041992 0.2406851
vt 0.0200407 0.2406851
vt 0.0041992 0.1343149
vt 0.0200407 0.2406851
vt 0.0200407 0.1487664
vt 0.0041992 0.1343149
vt 0.0200407 0.1487664
vt 0.0200407 0.1343149
vt 0.0041992 0.1343149
vt 0.0200407 0.1343149
vt 0.0198670 0.1491338
vt 0.0041992 0.1343149
vt 0.0198670 0.1491338
vt 0.0198670 0.2410525
vt 0.0041992 0.1343149
vt 0.0198670 0.2410525
vt 0.0041992 0.2406851
vt 0.1147017 0.1289062
vt 0.1147017 0.1359375
vt 0.1205423 0.1359375
vt 0.1202665 0.1359375
vt 0.1210938 0.1359375
vt 0.1202665 0.1289062
vt 0.1160929 0.2456802
vt 0.1204733 0.2390625
vt 0.1147017 0.2390625
vt 0.1202665 0.2390625
vt 0.1202666 0.2460938
vt 0.1210937 0.2390625
vt 0.0040555 0.2185906
vt 0.0039062 0.2452665
vt 0.0102983 0.2452665
vt 0.0040555 0.2185906
vt 0.0102983 0.2452665
vt 0.0089098 0.2185906
vt 0.0089098 0.2185906
vt 0.0102983 0.2452665
vt 0.0099636 0.2174214
vt 0.0102983 0.2452665
vt 0.0102983 0.2460938
vt 0.1147017 0.2460938
vt 0.0102983 0.2452665
vt 0.1147017 0.2460938
vt 0.1147017 0.2452665
vt 0.1147017 0.2174712
vt 0.1147017 0.2452665
vt 0.1210938 0.2452665
vt 0.1147017 0.2174712
vt 0.1210938 0.2452665
vt 0.1195560 0.2174712
vt 0.1195560 0.2174712
vt 0.1210938 0.2452665
vt 0.1210938 0.2179687
vt 0.0929175 0.2460938
vt 0.1202666 0.2460938
vt 0.0924713 0.2444022
vt 0.0924713 0.2444022
vt 0.1202666 0.2460938
vt 0.1202665 0.2390625
vt 0.0924713 0.2444022
vt 0.1202665 0.2390625
vt 0.0924712 0.2390625
vt 0.0926283 0.2390625
vt 0.1204733 0.2390625
vt 0.0926283 0.2407541
vt 0.0926283 0.2407541
vt 0.1204733 0.2390625
vt 0.1160929 0.2456802
vt 0.0926283 0.2407541
vt 0.1160929 0.2456802
vt 0.0893017 0.2457797
vt 0.0102983 0.2452665
vt 0.1160929 0.2456802
vt 0.1147017 0.2390625
vt 0.0102983 0.2452665
vt 0.1147017 0.2390625
vt 0.0102983 0.2390625
vt 0.1147017 0.1359375
vt 0.1147017 0.2390625
vt 0.1204733 0.2390625
vt 0.1147017 0.1359375
vt 0.1204733 0.2390625
vt 0.1205423 0.1359375
vt 0.1202665 0.1359375
vt 0.1202665 0.2390625
vt 0.1210937 0.2390625
vt 0.1202665 0.1359375
vt 0.1210937 0.2390625
vt 0.1210938 0.1359375
vt 0.0099636 0.2174214
vt 0.0102983 0.2452665
vt 0.1147017 0.2452665
vt 0.0099636 0.2174214
vt 0.1147017 0.2452665
vt 0.0892493 0.2174214
vt 0.0892493 0.2174214
vt 0.1147017 0.2452665
vt 0.1147017 0.2174712
vt 0.0924712 0.2390625
vt 0.1202665 0.2390625
vt 0.0924215 0.2138792
vt 0.0924215 0.2138792
vt 0.1202665 0.2390625
vt 0.1202665 0.1359375
vt 0.0924215 0.2138792
vt 0.1202665 0.1359375
vt 0.0924215 0.1355644
vt 0.0926807 0.1359375
vt 0.1205423 0.1359375
vt 0.1204733 0.2390625
vt 0.0926807 0.1359375
vt 0.1204733 0.2390625
vt 0.0926283 0.2142524
vt 0.0926283 0.2142524
vt 0.1204733 0.2390625
vt 0.0926283 0.2390625
vt 0.0102983 0.1359375
vt 0.0102983 0.2390625
vt 0.1147017 0.2390625
vt 0.0102983 0.1359375
vt 0.1147017 0.2390625
vt 0.1147017 0.1359375
vt 0.1157582 0.2177854
vt 0.1160929 0.2456802
vt 0.0906405 0.2177854
vt 0.0906405 0.2177854
vt 0.1160929 0.2456802
vt 0.0102983 0.2452665
vt 0.0906405 0.2177854
vt 0.0102983 0.2452665
vt 0.0102983 0.2174712
vt 0.1205328 0.1500000
vt 0.1210938 0.1500000
vt 0.1205327 0.1289062
vt 0.1205327 0.2250000
vt 0.1205327 0.2460938
vt 0.1210938 0.2250000
vt 0.0040183 0.2187055
vt 0.0039062 0.2455327
vt 0.0041326 0.2455327
vt 0.0040183 0.2187055
vt 0.0041326 0.2455327
vt 0.0041844 0.2187055
vt 0.0041844 0.2187055
vt 0.0041326 0.2455327
vt 0.0041549 0.2145642
vt 0.0041326 0.2455327
vt 0.0041326 0.2460937
vt 0.0187652 0.2460937
vt 0.0041326 0.2455327
vt 0.0187652 0.2460937
vt 0.0187652 0.2456030
vt 0.0041326 0.2455327
vt 0.0187652 0.2456030
vt 0.0187652 0.2455327
vt 0.0895719 0.2460938
vt 0.1205327 0.2460938
vt 0.0896016 0.2404724
vt 0.0896016 0.2404724
vt 0.1205327 0.2460938
vt 0.1205327 0.2250000
vt 0.0896016 0.2404724
vt 0.1205327 0.2250000
vt 0.0896016 0.2250000
vt 0.0041326 0.2455327
vt 0.0187547 0.2455679
vt 0.0187652 0.2429589
vt 0.0041326 0.2455327
vt 0.0187652 0.2429589
vt 0.0187652 0.2250000
vt 0.0041326 0.2455327
vt 0.0187652 0.2250000
vt 0.0041326 0.2250000
vt 0.1205328 0.1500000
vt 0.1205327 0.2250000
vt 0.1210938 0.2250000
vt 0.1205328 0.1500000
vt 0.1210938 0.2250000
vt 0.1210938 0.1500000
vt 0.0041549 0.2145642
vt 0.0041326 0.2455327
vt 0.0187652 0.2455327
vt 0.0041549 0.2145642
vt 0.0187652 0.2455327
vt 0.0187875 0.2145642
vt 0.0896016 0.2250000
vt 0.1205327 0.2250000
vt 0.0895642 0.2036447
vt 0.0895642 0.2036447
vt 0.1205327 0.2250000
vt 0.1205328 0.1500000
vt 0.0895642 0.2036447
vt 0.1205328 0.1500000
vt 0.0895643 0.1486320
vt 0.0041326 0.1500000
vt 0.0041326 0.2250000
vt 0.0187652 0.2250000
vt 0.0041326 0.1500000
vt 0.0187652 0.2250000
vt 0.0187652 0.1594012
vt 0.0041326 0.1500000
vt 0.0187652 0.1594012
vt 0.0187652 0.1500000
vt 0.0187547 0.2146368
vt 0.0187547 0.2455679
vt 0.0041326 0.2455327
vt 0.0187547 0.2146368
vt 0.0041326 0.2455327
vt 0.0041326 0.2146016
vt 0.9960938 0.0039062
vt 0.9960938 0.1210938
vt 0.9375000 0.1210938
vt 0.9960938 0.0039062
vt 0.9375000 0.1210938
vt 0.9375000 0.0039062
vt 0.9082031 0.0039062
vt 0.9082031 0.1210938
vt 0.9667969 0.1210938
vt 0.9082031 0.0039062
vt 0.9667969 0.1210938
vt 0.9667969 0.0039062
vt 0.9375000 0.0039062
vt 0.9375000 0.1210938
vt 0.9960938 0.1210938
vt 0.9375000 0.0039062
vt 0.9960938 0.1210938
vt 0.9960938 0.0039062
vt 0.9375000 0.0039062
vt 0.8789062 0.0039062
vt 0.8789062 0.1210938
vt 0.9375000 0.0039062
vt 0.8789062 0.1210938
vt 0.9375000 0.1210938
vt 0.9082031 0.0039062
vt 0.9667969 0.0039062
vt 0.9667969 0.1210938
vt 0.9082031 0.0039062
vt 0.9667969 0.1210938
vt 0.9082031 0.1210938
vt 0.8789062 0.0039062
vt 0.9375000 0.0039062
vt 0.9375000 0.1210938
vt 0.8789062 0.0039062
vt 0.9375000 0.1210938
vt 0.8789062 0.1210938
vt 0.8789062 0.0625000
vt 0.9082031 0.1210938
vt 0.9667969 0.1210938
vt 0.8789062 0.0625000
vt 0.9667969 0.1210938
vt 0.9960938 0.0625000
vt 0.8789062 0.0625000
vt 0.9960938 0.0625000
vt 0.9667969 0.0039062
vt 0.8789062 0.0625000
vt 0.9667969 0.0039062
vt 0.9082031 0.0039062
vt 0.8789062 0.0625000
vt 0.9082031 0.0039062
vt 0.9667969 0.0039062
vt 0.8789062 0.0625000
vt 0.9667969 0.0039062
vt 0.9960938 0.0625000
vt 0.8789062 0.0625000
vt 0.9960938 0.0625000
vt 0.9667969 0.1210938
vt 0.8789062 0.0625000
vt 0.9667969 0.1210938
vt 0.9082031 0.1210938
vn -0.8704163 -0.2735166 -0.4093461
vn -0.8704163 -0.2735166 -0.4093461
vn -0.8710767 -0.2889982 -0.3971215
vn -0.8709778 -0.2595616 -0.4171636
vn -0.8704163 -0.2735166 -0.4093461
vn -0.8704163 -0.2735166 -0.4093461
vn -0.8709778 -0.2595616 -0.4171636
vn -0.8704163 -0.2735166 -0.4093461
vn -0.8706836 -0.2675581 -0.4127016
vn -0.0000001 0.5000001 0.8660254
vn -0.0000001 0.5000001 0.8660254
vn -0.0000001 0.5000001 0.8660254
vn -0.0000001 0.5000001 0.8660254
vn -0.0000001 0.5000001 0.8660254
vn -0.0000001 0.5000001 0.8660254
vn -0.0000001 0.5000001 0.8660254
vn -0.0000001 0.5000001 0.8660254
vn -0.0000001 0.5000001 0.8660254
vn 0.0000000 1.0000000 0.0000000
vn -0.0000000 1.0000000 -0.0000000
vn -0.0000000 1.0000000 -0.0000000
vn 0.0000000 1.0000000 0.0000000
vn -0.0000000 1.0000000 -0.0000000
vn 0.0000000 1.0000000 0.0000000
vn 0.0000000 1.0000000 0.0000000
vn -0.0000000 1.0000000 -0.0000000
vn 0.0000000 1.0000000 0.0000000
vn 0.0000000 0.5000001 -0.8660254
vn 0.0000000 0.5000001 -0.8660254
vn 0.0000000 0.5000001 -0.8660254
vn 0.0000000 0.5000001 -0.8660254
vn 0.0000000 0.5000001 -0.8660254
vn 0.0000000 0.5000001 -0.8660254
vn 0.0000000 0.5000001 -0.8660254
vn 0.0000000 0.5000001 -0.8660254
vn 0.0000000 0.5000001 -0.8660254
vn 0.0000001 -0.5000001 -0.8660254
vn 0.0000001 -0.5000001 -0.8660254
vn 0.0000001 -0.5000001 -0.8660254
vn 0.0000001 -0.5000001 -0.8660254
vn 0.0000001 -0.5000001 -0.8660254
vn 0.0000001 -0.5000001 -0.8660254
vn 0.0000001 -0.5000001 -0.8660254
vn 0.0000001 -0.5000001 -0.8660254
vn 0.0000001 -0.5000001 -0.8660254
vn 0.0000000 -1.0000000 0.0000000
vn 0.0000000 -1.0000000 0.0000000
vn 0.0000000 -1.0000000 0.0000000
vn 0.0000000 -1.0000000 0.0000000
vn 0.0000000 -1.0000000 0.0000000
vn 0.0000000 -1.0000000 0.0000000
vn 0.0000000 -1.0000000 0.0000000
vn 0.0000000 -1.0000000 0.0000000
vn 0.0000000 -1.0000000 0.0000000
vn 0.0000000 -0.5000001 0.8660254
vn -0.0000000 -0.5000001 0.8660254
vn 0.0000000 -0.5000001 0.8660254
vn 0.0000000 -0.5000001 0.8660254
vn -0.0000000 -0.5000001 0.8660254
vn -0.0000000 -0.5000001 0.8660254
vn 0.0000000 -0.5000001 0.8660254
vn -0.0000000 -0.5000001 0.8660254
vn 0.0000000 -0.5000001 0.8660254
vn -1.0000000 -0.0000000 -0.0000000
vn -1.0000000 -0.0000000 -0.0000000
vn -1.0000000 -0.0000000 -0.0000000
vn -1.0000000 -0.0000000 -0.0000000
vn -1.0000000 -0.0000000 -0.0000000
vn -1.0000000 -0.0000000 -0.0000000
vn -1.0000000 -0.0000000 -0.0000000
vn -1.0000000 -0.0000000 -0.0000000
vn -1.0000000 -0.0000000 -0.0000000
vn -1.0000000 -0.0000000 -0.0000000
vn -1.0000000 -0.0000000 -0.0000000
vn -1.0000000 -0.0000000 -0.0000000
vn -0.5773493 -0.5773507 -0.5773507
vn -0.5773493 -0.5773507 -0.5773507
vn -0.5773493 -0.5773507 -0.5773507
vn -0.5773493 0.5773507 -0.5773507
vn -0.5773493 0.5773507 -0.5773507
vn -0.5773493 0.5773507 -0.5773507
vn -0.7071062 -0.7071073 0.0000000
vn -0.7071062 -0.7071073 0.0000000
vn -0.7071062 -0.7071073 0.0000000
vn -0.7071062 -0.7071073 0.0000000
vn -0.7071062 -0.7071073 0.0000000
vn -0.7071062 -0.7071073 0.0000000
vn -0.7071062 -0.7071073 0.0000000
vn -0.7071062 -0.7071073 0.0000000
vn -0.7071062 -0.7071073 0.0000000
vn 0.0000000 -0.7071068 -0.7071068
vn 0.0000000 -0.7071068 -0.7071068
vn 0.0000000 -0.7071068 -0.7071068
vn 0.0000000 -0.7071068 -0.7071068
vn 0.0000000 -0.7071068 -0.7071068
vn 0.0000000 -0.7071068 -0.7071068
vn 0.0000000 -0.7071068 -0.7071068
vn 0.0000000 -0.7071068 -0.7071068
vn 0.0000000 -0.7071068 -0.7071068
vn -0.7071062 0.7071073 0.0000000
vn -0.7071062 0.7071073 0.0000000
vn -0.7071062 0.7071073 0.0000000
vn -0.7071062 0.7071073 0.0000000
vn -0.7071062 0.7071073 0.0000000
vn -0.7071062 0.7071073 0.0000000
vn -0.7071062 0.7071073 0.0000000
vn -0.7071062 0.7071073 0.0000000
vn -0.7071062 0.7071073 0.0000000
vn 0.0000000 0.7071068 -0.7071068
vn 0.0000000 0.7071068 -0.7071068
vn 0.0000000 0.7071068 -0.7071068
vn 0.0000000 0.7071068 -0.7071068
vn 0.0000000 0.7071068 -0.7071068
vn 0.0000000 0.7071068 -0.7071068
vn 0.0000000 0.7071068 -0.7071068
vn 0.0000000 0.7071068 -0.7071068
vn 0.0000000 0.7071068 -0.7071068
vn -0.7071066 0.0000000 -0.7071070
vn -0.7071066 0.0000000 -0.7071070
vn -0.7071066 0.0000000 -0.7071070
vn -0.7071066 0.0000000 -0.7071070
vn -0.7071066 0.0000000 -0.7071070
vn -0.7071066 0.0000000 -0.7071070
vn 0.0000000 -1.0000000 0.0000000
vn 0.0000000 -1.0000000 0.0000000
vn 0.0000000 -1.0000000 0.0000000
vn 0.0000000 -1.0000000 0.0000000
vn 0.0000000 -1.0000000 0.0000000
vn 0.0000000 -1.0000000 0.0000000
vn -1.0000000 0.0000000 0.0000000
vn -1.0000000 0.0000000 0.0000000
vn -1.0000000 0.0000000 0.0000000
vn -1.0000000 0.0000000 0.0000000
vn -1.0000000 0.0000000 0.0000000
vn -1.0000000 0.0000000 0.0000000
vn -1.0000000 0.0000000 0.0000000
vn -1.0000000 0.0000000 0.0000000
vn -1.0000000 0.0000000 0.0000000
vn 0.0000000 0.0000000 -1.0000000
vn 0.0000000 0.0000000 -1.0000000
vn 0.0000000 0.0000000 -1.0000000
vn 0.0000000 0.0000000 -1.0000000
vn 0.0000000 0.0000000 -1.0000000
vn 0.0000000 0.0000000 -1.0000000
vn 0.0000000 0.0000000 -1.0000000
vn 0.0000000 0.0000000 -1.0000000
vn 0.0000000 0.0000000 -1.0000000
vn 0.0000000 1.0000000 0.0000000
vn 0.0000000 1.0000000 0.0000000
vn 0.0000000 1.0000000 0.0000000
vn 0.0000000 1.0000000 0.0000000
vn 0.0000000 1.0000000 0.0000000
vn 0.0000000 1.0000000 0.0000000
vn -0.5773498 -0.5773505 -0.5773505
vn -0.5773498 -0.5773505 -0.5773505
vn -0.5773498 -0.5773505 -0.5773505
vn -0.5773498 0.5773505 -0.5773505
vn -0.5773498 0.5773505 -0.5773505
vn -0.5773498 0.5773505 -0.5773505
vn -0.7071068 -0.7071067 0.0000000
vn -0.7071068 -0.7071067 0.0000000
vn -0.7071068 -0.7071067 0.0000000
vn -0.7071068 -0.7071067 0.0000000
vn -0.7071068 -0.7071067 0.0000000
vn -0.7071068 -0.7071067 0.0000000
vn -0.7071068 -0.7071067 0.0000000
vn -0.7071068 -0.7071067 0.0000000
vn -0.7071068 -0.7071067 0.0000000
vn 0.0000000 -0.7071066 -0.7071069
vn 0.0000000 -0.7071066 -0.7071069
vn 0.0000000 -0.7071066 -0.7071069
vn 0.0000000 -0.7071066 -0.7071069
vn 0.0000000 -0.7071066 -0.7071069
vn 0.0000000 -0.7071066 -0.7071069
vn 0.0000000 -0.7071066 -0.7071069
vn 0.0000000 -0.7071066 -0.7071069
vn 0.0000000 -0.7071066 -0.7071069
vn -0.7071068 0.7071067 0.0000000
vn -0.7071068 0.7071067 0.0000000
vn -0.7071068 0.7071067 0.0000000
vn -0.7071068 0.7071067 0.0000000
vn -0.7071068 0.7071067 0.0000000
vn -0.7071068 0.7071067 0.0000000
vn -0.7071068 0.7071067 0.0000000
vn -0.7071068 0.7071067 0.0000000
vn -0.7071068 0.7071067 0.0000000
vn 0.0000000 0.7071066 -0.7071069
vn 0.0000000 0.7071066 -0.7071069
vn 0.0000000 0.7071066 -0.7071069
vn 0.0000000 0.7071066 -0.7071069
vn 0.0000000 0.7071066 -0.7071069
vn 0.0000000 0.7071066 -0.7071069
vn 0.0000000 0.7071066 -0.7071069
vn 0.0000000 0.7071066 -0.7071069
vn 0.0000000 0.7071066 -0.7071069
vn -0.7071071 0.0000000 -0.7071065
vn -0.7071071 0.0000000 -0.7071065
vn -0.7071071 0.0000000 -0.7071065
vn -0.7071071 0.0000000 -0.7071065
vn -0.7071071 0.0000000 -0.7071065
vn -0.7071071 0.0000000 -0.7071065
vn 0.0000000 -1.0000000 0.0000000
vn 0.0000000 -1.0000000 0.0000000
vn 0.0000000 -1.0000000 0.0000000
vn 0.0000000 -1.0000000 0.0000000
vn 0.0000000 -1.0000000 0.0000000
vn 0.0000000 -1.0000000 0.0000000
vn -1.0000000 0.0000000 0.0000000
vn -1.0000000 0.0000000 0.0000000
vn -1.0000000 0.0000000 0.0000000
vn -1.0000000 0.0000000 0.0000000
vn -1.0000000 0.0000000 0.0000000
vn -1.0000000 0.0000000 0.0000000
vn -1.0000000 0.0000000 0.0000000
vn -1.0000000 0.0000000 0.0000000
vn -1.0000000 0.0000000 0.0000000
vn 0.0000000 0.0000000 -1.0000000
vn 0.0000000 0.0000000 -1.0000000
vn 0.0000000 0.0000000 -1.0000000
vn 0.0000000 0.0000000 -1.0000000
vn 0.0000000 0.0000000 -1.0000000
vn 0.0000000 0.0000000 -1.0000000
vn 0.0000000 0.0000000 -1.0000000
vn 0.0000000 0.0000000 -1.0000000
vn 0.0000000 0.0000000 -1.0000000
vn 0.0000000 1.0000000 0.0000000
vn 0.0000000 1.0000000 0.0000000
vn 0.0000000 1.0000000 0.0000000
vn 0.0000000 1.0000000 0.0000000
vn 0.0000000 1.0000000 0.0000000
vn 0.0000000 1.0000000 0.0000000
vn -0.8660253 0.0000000 0.5000002
vn -0.8660253 0.0000000 0.5000002
vn -0.8660253 0.0000000 0.5000002
vn -0.8660253 0.0000000 0.5000002
vn -0.8660253 0.0000000 0.5000002
vn -0.8660253 0.0000000 0.5000002
vn 0.0000002 0.0000000 1.0000000
vn 0.0000002 0.0000000 1.0000000
vn 0.0000002 0.0000000 1.0000000
vn 0.0000002 0.0000000 1.0000000
vn 0.0000002 0.0000000 1.0000000
vn 0.0000002 0.0000000 1.0000000
vn 0.8660254 0.0000000 0.4999999
vn 0.8660254 0.0000000 0.4999999
vn 0.8660254 0.0000000 0.4999999
vn 0.8660254 0.0000000 0.4999999
vn 0.8660254 0.0000000 0.4999999
vn 0.8660254 0.0000000 0.4999999
vn 0.8660254 0.0000000 0.4999999
vn 0.8660254 0.0000000 0.4999999
vn 0.8660254 0.0000000 0.4999999
vn 0.8660253 0.0000000 -0.5000002
vn 0.8660253 0.0000000 -0.5000002
vn 0.8660253 0.0000000 -0.5000002
vn 0.8660253 0.0000000 -0.5000002
vn 0.8660253 0.0000000 -0.5000002
vn 0.8660253 0.0000000 -0.5000002
vn 0.8660253 0.0000000 -0.5000002
vn 0.8660253 0.0000000 -0.5000002
vn 0.8660253 0.0000000 -0.5000002
vn -0.0000002 0.0000000 -1.0000000
vn -0.0000002 0.0000000 -1.0000000
vn -0.0000002 0.0000000 -1.0000000
vn -0.0000002 0.0000000 -1.0000000
vn -0.0000002 0.0000000 -1.0000000
vn -0.0000002 0.0000000 -1.0000000
vn -0.8660254 0.0000000 -0.4999999
vn -0.8660254 0.0000000 -0.4999999
vn -0.8660254 0.0000000 -0.4999999
vn -0.8660254 0.0000000 -0.4999999
vn -0.8660254 0.0000000 -0.4999999
vn -0.8660254 0.0000000 -0.4999999
vn 0.0000000 -1.0000000 0.0000000
vn 0.0000000 -1.0000000 0.0000000
vn 0.0000000 -1.0000000 0.0000000
vn 0.0000000 -1.0000000 0.0000000
vn 0.0000000 -1.0000000 0.0000000
vn 0.0000000 -1.0000000 0.0000000
vn 0.0000000 -1.0000000 0.0000000
vn 0.0000000 -1.0000000 0.0000000
vn 0.0000000 -1.0000000 0.0000000
vn 0.0000000 -1.0000000 0.0000000
vn 0.0000000 -1.0000000 0.0000000
vn 0.0000000 -1.0000000 0.0000000
vn 0.0000000 -1.0000000 0.0000000
vn 0.0000000 -1.0000000 0.0000000
vn 0.0000000 -1.0000000 0.0000000
vn 0.0000000 -1.0000000 0.0000000
vn 0.0000000 -1.0000000 0.0000000
vn 0.0000000 -1.0000000 0.0000000
vn 0.0000000 -1.0000000 0.0000000
vn 0.0000000 -1.0000000 0.0000000
vn 0.0000000 -1.0000000 0.0000000
vn 0.0000000 -1.0000000 0.0000000
vn 0.0000000 -1.0000000 0.0000000
vn 0.0000000 -1.0000000 0.0000000
vn 0.0000000 1.0000000 0.0000000
vn 0.0000000 1.0000000 0.0000000
vn 0.0000000 1.0000000 0.0000000
vn 0.0000000 1.0000000 0.0000000
vn 0.0000000 1.0000000 0.0000000
vn 0.0000000 1.0000000 0.0000000
vn 0.0000000 1.0000000 0.0000000
vn 0.0000000 1.0000000 0.0000000
vn 0.0000000 1.0000000 0.0000000
vn 0.0000000 1.0000000 0.0000000
vn 0.0000000 1.0000000 0.0000000
vn 0.0000000 1.0000000 0.0000000
vn 0.0000000 1.0000000 0.0000000
vn 0.0000000 1.0000000 0.0000000
vn 0.0000000 1.0000000 0.0000000
vn 0.0000000 1.0000000 0.0000000
vn 0.0000000 1.0000000 0.0000000
vn 0.0000000 1.0000000 0.0000000
vn 0.0000000 1.0000000 0.0000000
vn 0.0000000 1.0000000 0.0000000
vn 0.0000000 1.0000000 0.0000000
vn 0.0000000 1.0000000 0.0000000
vn 0.0000000 1.0000000 0.0000000
vn 0.0000000 1.0000000 0.0000000
vn -0.5773613 -0.5773593 0.5773303
vn -0.5773613 -0.5773593 0.5773303
vn -0.5773613 -0.5773593 0.5773303
vn -0.5773613 -0.5773593 -0.5773303
vn -0.5773613 -0.5773593 -0.5773303
vn -0.5773613 -0.5773593 -0.5773303
vn -0.5773613 0.5773593 0.5773303
vn -0.5773613 0.5773593 0.5773303
vn -0.5773613 0.5773593 0.5773303
vn -0.5773613 0.5773593 -0.5773303
vn -0.5773613 0.5773593 -0.5773303
vn -0.5773613 0.5773593 -0.5773303
vn 0.0000000 -0.7071068 0.7071067
vn 0.0000000 -0.7071068 0.7071067
vn 0.0000000 -0.7071068 0.7071067
vn 0.0000000 -0.7071068 0.7071067
vn 0.0000000 -0.7071068 0.7071067
vn 0.0000000 -0.7071068 0.7071067
vn 0.0000000 -0.7071068 0.7071067
vn 0.0000000 -0.7071068 0.7071067
vn 0.0000000 -0.7071068 0.7071067
vn -0.7071093 -0.7071043 0.0000000
vn -0.7071093 -0.7071043 0.0000000
vn -0.7071093 -0.7071043 0.0000000
vn -0.7071093 -0.7071043 0.0000000
vn -0.7071093 -0.7071043 0.0000000
vn -0.7071093 -0.7071043 0.0000000
vn 0.0000000 -0.7071068 -0.7071067
vn 0.0000000 -0.7071068 -0.7071067
vn 0.0000000 -0.7071068 -0.7071067
vn 0.0000000 -0.7071068 -0.7071067
vn 0.0000000 -0.7071068 -0.7071067
vn 0.0000000 -0.7071068 -0.7071067
vn 0.0000000 -0.7071068 -0.7071067
vn 0.0000000 -0.7071068 -0.7071067
vn 0.0000000 -0.7071068 -0.7071067
vn -0.7071093 0.7071043 0.0000000
vn -0.7071093 0.7071043 0.0000000
vn -0.7071093 0.7071043 0.0000000
vn -0.7071093 0.7071043 0.0000000
vn -0.7071093 0.7071043 0.0000000
vn -0.7071093 0.7071043 0.0000000
vn 0.0000000 0.7071068 0.7071067
vn 0.0000000 0.7071068 0.7071067
vn 0.0000000 0.7071068 0.7071067
vn 0.0000000 0.7071068 0.7071067
vn 0.0000000 0.7071068 0.7071067
vn 0.0000000 0.7071068 0.7071067
vn 0.0000000 0.7071068 0.7071067
vn 0.0000000 0.7071068 0.7071067
vn 0.0000000 0.7071068 0.7071067
vn 0.0000000 0.7071068 -0.7071067
vn 0.0000000 0.7071068 -0.7071067
vn 0.0000000 0.7071068 -0.7071067
vn 0.0000000 0.7071068 -0.7071067
vn 0.0000000 0.7071068 -0.7071067
vn 0.0000000 0.7071068 -0.7071067
vn 0.0000000 0.7071068 -0.7071067
vn 0.0000000 0.7071068 -0.7071067
vn 0.0000000 0.7071068 -0.7071067
vn -0.7071069 0.0000000 0.7071066
vn -0.7071069 0.0000000 0.7071066
vn -0.7071069 0.0000000 0.7071066
vn -0.7071069 0.0000000 0.7071066
vn -0.7071069 0.0000000 0.7071066
vn -0.7071069 0.0000000 0.7071066
vn -0.7071069 0.0000000 -0.7071066
vn -0.7071069 0.0000000 -0.7071066
vn -0.7071069 0.0000000 -0.7071066
vn -0.7071069 0.0000000 -0.7071066
vn -0.7071069 0.0000000 -0.7071066
vn -0.7071069 0.0000000 -0.7071066
vn 0.0000000 0.0000000 1.0000000
vn 0.0000000 0.0000000 1.0000000
vn 0.0000000 0.0000000 1.0000000
vn 0.0000000 0.0000000 1.0000000
vn 0.0000000 0.0000000 1.0000000
vn 0.0000000 0.0000000 1.0000000
vn 0.0000000 0.0000000 1.0000000
vn 0.0000000 0.0000000 1.0000000
vn 0.0000000 0.0000000 1.0000000
vn 0.0000000 -1.0000000 0.0000000
vn 0.0000000 -1.0000000 0.0000000
vn 0.0000000 -1.0000000 0.0000000
vn 0.0000000 -1.0000000 0.0000000
vn 0.0000000 -1.0000000 0.0000000
vn 0.0000000 -1.0000000 0.0000000
vn 0.0000000 -1.0000000 0.0000000
vn 0.0000000 -1.0000000 0.0000000
vn 0.0000000 -1.0000000 0.0000000
vn -1.0000000 0.0000000 0.0000000
vn -1.0000000 0.0000000 0.0000000
vn -1.0000000 0.0000000 0.0000000
vn -1.0000000 0.0000000 0.0000000
vn -1.0000000 0.0000000 0.0000000
vn -1.0000000 0.0000000 0.0000000
vn 0.0000000 0.0000000 -1.0000000
vn 0.0000000 0.0000000 -1.0000000
vn 0.0000000 0.0000000 -1.0000000
vn 0.0000000 0.0000000 -1.0000000
vn 0.0000000 0.0000000 -1.0000000
vn 0.0000000 0.0000000 -1.0000000
vn 0.0000000 0.0000000 -1.0000000
vn 0.0000000 0.0000000 -1.0000000
vn 0.0000000 0.0000000 -1.0000000
vn 0.0000000 1.0000000 0.0000000
vn 0.0000000 1.0000000 0.0000000
vn 0.0000000 1.0000000 0.0000000
vn 0.0000000 1.0000000 0.0000000
vn 0.0000000 1.0000000 0.0000000
vn 0.0000000 1.0000000 0.0000000
vn 0.0000000 1.0000000 0.0000000
vn 0.0000000 1.0000000 0.0000000
vn 0.0000000 1.0000000 0.0000000
vn 0.5773495 -0.5773510 -0.5773503
vn 0.5773495 -0.5773510 -0.5773503
vn 0.5773495 -0.5773510 -0.5773503
vn -0.5773495 -0.5773510 -0.5773503
vn -0.5773495 -0.5773510 -0.5773503
vn -0.5773495 -0.5773510 -0.5773503
vn 0.5773495 0.5773510 -0.5773503
vn 0.5773495 0.5773510 -0.5773503
vn 0.5773495 0.5773510 -0.5773503
vn -0.5773495 0.5773510 -0.5773503
vn -0.5773495 0.5773510 -0.5773503
vn -0.5773495 0.5773510 -0.5773503
vn -0.7071068 -0.7071068 0.0000000
vn -0.7071068 -0.7071068 0.0000000
vn -0.7071068 -0.7071068 0.0000000
vn -0.7071068 -0.7071068 0.0000000
vn -0.7071068 -0.7071068 0.0000000
vn -0.7071068 -0.7071068 0.0000000
vn -0.7071068 -0.7071068 0.0000000
vn -0.7071068 -0.7071068 0.0000000
vn -0.7071068 -0.7071068 0.0000000
vn 0.0000000 -0.7071077 -0.7071059
vn 0.0000000 -0.7071077 -0.7071059
vn 0.0000000 -0.7071077 -0.7071059
vn 0.0000000 -0.7071077 -0.7071059
vn 0.0000000 -0.7071077 -0.7071059
vn 0.0000000 -0.7071077 -0.7071059
vn 0.7071068 -0.7071068 0.0000000
vn 0.7071068 -0.7071068 0.0000000
vn 0.7071068 -0.7071068 0.0000000
vn 0.7071068 -0.7071068 0.0000000
vn 0.7071068 -0.7071068 0.0000000
vn 0.7071068 -0.7071068 0.0000000
vn 0.7071068 -0.7071068 0.0000000
vn 0.7071068 -0.7071068 0.0000000
vn 0.7071068 -0.7071068 0.0000000
vn -0.7071068 0.7071068 0.0000000
vn -0.7071068 0.7071068 0.0000000
vn -0.7071068 0.7071068 0.0000000
vn -0.7071068 0.7071068 0.0000000
vn -0.7071068 0.7071068 0.0000000
vn -0.7071068 0.7071068 0.0000000
vn -0.7071068 0.7071068 0.0000000
vn -0.7071068 0.7071068 0.0000000
vn -0.7071068 0.7071068 0.0000000
vn 0.7071068 0.7071068 0.0000000
vn 0.7071068 0.7071068 0.0000000
vn 0.7071068 0.7071068 0.0000000
vn 0.7071068 0.7071068 0.0000000
vn 0.7071068 0.7071068 0.0000000
vn 0.7071068 0.7071068 0.0000000
vn 0.7071068 0.7071068 0.0000000
vn 0.7071068 0.7071068 0.0000000
vn 0.7071068 0.7071068 0.0000000
vn 0.0000000 0.7071077 -0.7071059
vn 0.0000000 0.7071077 -0.7071059
vn 0.0000000 0.7071077 -0.7071059
vn 0.0000000 0.7071077 -0.7071059
vn 0.0000000 0.7071077 -0.7071059
vn 0.0000000 0.7071077 -0.7071059
vn 0.7071072 0.0000000 -0.7071064
vn 0.7071072 0.0000000 -0.7071064
vn 0.7071072 0.0000000 -0.7071064
vn 0.7071072 0.0000000 -0.7071064
vn 0.7071072 0.0000000 -0.7071064
vn 0.7071072 0.0000000 -0.7071064
vn -0.7071072 0.0000000 -0.7071064
vn -0.7071072 0.0000000 -0.7071064
vn -0.7071072 0.0000000 -0.7071064
vn -0.7071072 0.0000000 -0.7071064
vn -0.7071072 0.0000000 -0.7071064
vn -0.7071072 0.0000000 -0.7071064
vn 0.0000000 -1.0000000 0.0000000
vn 0.0000000 -1.0000000 0.0000000
vn 0.0000000 -1.0000000 0.0000000
vn 0.0000000 -1.0000000 0.0000000
vn 0.0000000 -1.0000000 0.0000000
vn 0.0000000 -1.0000000 0.0000000
vn 0.0000000 -1.0000000 0.0000000
vn 0.0000000 -1.0000000 0.0000000
vn 0.0000000 -1.0000000 0.0000000
vn -1.0000000 0.0000000 0.0000000
vn -1.0000000 0.0000000 0.0000000
vn -1.0000000 0.0000000 0.0000000
vn -1.0000000 0.0000000 0.0000000
vn -1.0000000 0.0000000 0.0000000
vn -1.0000000 0.0000000 0.0000000
vn -1.0000000 0.0000000 0.0000000
vn -1.0000000 0.0000000 0.0000000
vn -1.0000000 0.0000000 0.0000000
vn 1.0000000 0.0000000 0.0000000
vn 1.0000000 0.0000000 0.0000000
vn 1.0000000 0.0000000 0.0000000
vn 1.0000000 0.0000000 0.0000000
vn 1.0000000 0.0000000 0.0000000
vn 1.0000000 0.0000000 0.0000000
vn 1.0000000 0.0000000 0.0000000
vn 1.0000000 0.0000000 0.0000000
vn 1.0000000 0.0000000 0.0000000
vn 0.0000000 0.0000000 -1.0000000
vn 0.0000000 0.0000000 -1.0000000
vn 0.0000000 0.0000000 -1.0000000
vn 0.0000000 0.0000000 -1.0000000
vn 0.0000000 0.0000000 -1.0000000
vn 0.0000000 0.0000000 -1.0000000
vn 0.0000000 1.0000000 0.0000000
vn 0.0000000 1.0000000 0.0000000
vn 0.0000000 1.0000000 0.0000000
vn 0.0000000 1.0000000 0.0000000
vn 0.0000000 1.0000000 0.0000000
vn 0.0000000 1.0000000 0.0000000
vn 0.0000000 1.0000000 0.0000000
vn 0.0000000 1.0000000 0.0000000
vn 0.0000000 1.0000000 0.0000000
vn -0.5773495 -0.5773407 -0.5773607
vn -0.5773495 -0.5773407 -0.5773607
vn -0.5773495 -0.5773407 -0.5773607
vn -0.5773495 0.5773407 -0.5773607
vn -0.5773495 0.5773407 -0.5773607
vn -0.5773495 0.5773407 -0.5773607
vn -0.7071071 -0.7071065 0.0000000
vn -0.7071071 -0.7071065 0.0000000
vn -0.7071071 -0.7071065 0.0000000
vn -0.7071071 -0.7071065 0.0000000
vn -0.7071071 -0.7071065 0.0000000
vn -0.7071071 -0.7071065 0.0000000
vn -0.7071071 -0.7071065 0.0000000
vn -0.7071071 -0.7071065 0.0000000
vn -0.7071071 -0.7071065 0.0000000
vn 0.0000000 -0.7071050 -0.7071085
vn 0.0000000 -0.7071050 -0.7071085
vn 0.0000000 -0.7071050 -0.7071085
vn 0.0000000 -0.7071050 -0.7071085
vn 0.0000000 -0.7071050 -0.7071085
vn 0.0000000 -0.7071050 -0.7071085
vn 0.0000000 -0.7071050 -0.7071085
vn 0.0000000 -0.7071050 -0.7071085
vn 0.0000000 -0.7071050 -0.7071085
vn -0.7071071 0.7071065 0.0000000
vn -0.7071071 0.7071065 0.0000000
vn -0.7071071 0.7071065 0.0000000
vn -0.7071071 0.7071065 0.0000000
vn -0.7071071 0.7071065 0.0000000
vn -0.7071071 0.7071065 0.0000000
vn -0.7071071 0.7071065 0.0000000
vn -0.7071071 0.7071065 0.0000000
vn -0.7071071 0.7071065 0.0000000
vn 0.0000000 0.7071050 -0.7071085
vn 0.0000000 0.7071050 -0.7071085
vn 0.0000000 0.7071050 -0.7071085
vn 0.0000000 0.7071050 -0.7071085
vn 0.0000000 0.7071050 -0.7071085
vn 0.0000000 0.7071050 -0.7071085
vn 0.0000000 0.7071050 -0.7071085
vn 0.0000000 0.7071050 -0.7071085
vn 0.0000000 0.7071050 -0.7071085
vn -0.7071054 0.0000000 -0.7071081
vn -0.7071054 0.0000000 -0.7071081
vn -0.7071054 0.0000000 -0.7071081
vn -0.7071054 0.0000000 -0.7071081
vn -0.7071054 0.0000000 -0.7071081
vn -0.7071054 0.0000000 -0.7071081
vn 0.0000000 -1.0000000 0.0000000
vn 0.0000000 -1.0000000 0.0000000
vn 0.0000000 -1.0000000 0.0000000
vn 0.0000000 -1.0000000 0.0000000
vn 0.0000000 -1.0000000 0.0000000
vn 0.0000000 -1.0000000 0.0000000
vn -1.0000000 0.0000000 0.0000000
vn -1.0000000 0.0000000 0.0000000
vn -1.0000000 0.0000000 0.0000000
vn -1.0000000 0.0000000 0.0000000
vn -1.0000000 0.0000000 0.0000000
vn -1.0000000 0.0000000 0.0000000
vn -1.0000000 0.0000000 0.0000000
vn -1.0000000 0.0000000 0.0000000
vn -1.0000000 0.0000000 0.0000000
vn 0.0000000 0.0000000 -1.0000000
vn 0.0000000 0.0000000 -1.0000000
vn 0.0000000 0.0000000 -1.0000000
vn 0.0000000 0.0000000 -1.0000000
vn 0.0000000 0.0000000 -1.0000000
vn 0.0000000 0.0000000 -1.0000000
vn 0.0000000 0.0000000 -1.0000000
vn 0.0000000 0.0000000 -1.0000000
vn 0.0000000 0.0000000 -1.0000000
vn 0.0000000 1.0000000 0.0000000
vn 0.0000000 1.0000000 0.0000000
vn 0.0000000 1.0000000 0.0000000
vn 0.0000000 1.0000000 0.0000000
vn 0.0000000 1.0000000 0.0000000
vn 0.0000000 1.0000000 0.0000000
vn -0.8660253 0.0000000 0.5000001
vn -0.8660253 0.0000000 0.5000001
vn -0.8660253 0.0000000 0.5000001
vn -0.8660253 0.0000000 0.5000001
vn -0.8660253 0.0000000 0.5000001
vn -0.8660253 0.0000000 0.5000001
vn 0.0000002 0.0000000 1.0000000
vn 0.0000002 0.0000000 1.0000000
vn 0.0000002 0.0000000 1.0000000
vn 0.0000002 0.0000000 1.0000000
vn 0.0000002 0.0000000 1.0000000
vn 0.0000002 0.0000000 1.0000000
vn 0.8660254 0.0000000 0.4999999
vn 0.8660254 0.0000000 0.4999999
vn 0.8660254 0.0000000 0.4999999
vn 0.8660254 0.0000000 0.4999999
vn 0.8660254 0.0000000 0.4999999
vn 0.8660254 0.0000000 0.4999999
vn 0.8660253 0.0000000 -0.5000001
vn 0.8660253 0.0000000 -0.5000001
vn 0.8660253 0.0000000 -0.5000001
vn 0.8660253 0.0000000 -0.5000001
vn 0.8660253 0.0000000 -0.5000001
vn 0.8660253 0.0000000 -0.5000001
vn -0.0000002 0.0000000 -1.0000000
vn -0.0000002 0.0000000 -1.0000000
vn -0.0000002 0.0000000 -1.0000000
vn -0.0000002 0.0000000 -1.0000000
vn -0.0000002 0.0000000 -1.0000000
vn -0.0000002 0.0000000 -1.0000000
vn -0.8660254 0.0000000 -0.4999999
vn -0.8660254 0.0000000 -0.4999999
vn -0.8660254 0.0000000 -0.4999999
vn -0.8660254 0.0000000 -0.4999999
vn -0.8660254 0.0000000 -0.4999999
vn -0.8660254 0.0000000 -0.4999999
vn 0.0000000 -1.0000000 0.0000000
vn 0.0000000 -1.0000000 0.0000000
vn 0.0000000 -1.0000000 0.0000000
vn 0.0000000 -1.0000000 0.0000000
vn 0.0000000 -1.0000000 0.0000000
vn 0.0000000 -1.0000000 0.0000000
vn 0.0000000 -1.0000000 0.0000000
vn 0.0000000 -1.0000000 0.0000000
vn 0.0000000 -1.0000000 0.0000000
vn 0.0000000 -1.0000000 0.0000000
vn 0.0000000 -1.0000000 0.0000000
vn 0.0000000 -1.0000000 0.0000000
vn 0.0000000 1.0000000 0.0000000
vn 0.0000000 1.0000000 0.0000000
vn 0.0000000 1.0000000 0.0000000
vn 0.0000000 1.0000000 0.0000000
vn 0.0000000 1.0000000 0.0000000
vn 0.0000000 1.0000000 0.0000000
vn 0.0000000 1.0000000 0.0000000
vn 0.0000000 1.0000000 0.0000000
vn 0.0000000 1.0000000 0.0000000
vn 0.0000000 1.0000000 0.0000000
vn 0.0000000 1.0000000 0.0000000
vn 0.0000000 1.0000000 0.0000000
f 1/1/1 2/2/2 3/3/3
f 4/4/4 5/5/5 6/6/6
f 7/7/7 8/8/8 9/9/9
f 10/10/10 11/11/11 12/12/12
f 13/13/13 14/14/14 15/15/15
f 16/16/16 17/17/17 18/18/18
f 19/19/19 20/20/20 21/21/21
f 22/22/22 23/23/23 24/24/24
f 25/25/25 26/26/26 27/27/27
f 28/28/28 29/29/29 30/30/30
f 31/31/31 32/32/32 33/33/33
f 34/34/34 35/35/35 36/36/36
f 37/37/37 38/38/38 39/39/39
f 40/40/40 41/41/41 42/42/42
f 43/43/43 44/44/44 45/45/45
f 46/46/46 47/47/47 48/48/48
f 49/49/49 50/50/50 51/51/51
f 52/52/52 53/53/53 54/54/54
f 55/55/55 56/56/56 57/57/57
f 58/58/58 59/59/59 60/60/60
f 61/61/61 62/62/62 63/63/63
f 64/64/64 65/65/65 66/66/66
f 67/67/67 68/68/68 69/69/69
f 70/70/70 71/71/71 72/72/72
f 73/73/73 74/74/74 75/75/75
f 76/76/76 77/77/77 78/78/78
f 79/79/79 80/80/80 81/81/81
f 82/82/82 83/83/83 84/84/84
f 85/85/85 86/86/86 87/87/87
f 88/88/88 89/89/89 90/90/90
f 91/91/91 92/92/92 93/93/93
f 94/94/94 95/95/95 96/96/96
f 97/97/97 98/98/98 99/99/99
f 100/100/100 101/101/101 102/102/102
f 103/103/103 104/104/104 105/105/105
f 106/106/106 107/107/107 108/108/108
f 109/109/109 110/110/110 111/111/111
f 112/112/112 113/113/113 114/114/114
f 115/115/115 116/116/116 117/117/117
f 118/118/118 119/119/119 120/120/120
f 121/121/121 122/122/122 123/123/123
f 124/124/124 125/125/125 126/126/126
f 127/127/127 128/128/128 129/129/129
f 130/130/130 131/131/131 132/132/132
f 133/133/133 134/134/134 135/135/135
f 136/136/136 137/137/137 138/138/138
f 139/139/139 140/140/140 141/141/141
f 142/142/142 143/143/143 144/144/144
f 145/145/145 146/146/146 147/147/147
f 148/148/148 149/149/149 150/150/150
f 151/151/151 152/152/152 153/153/153
f 154/154/154 155/155/155 156/156/156
f 157/157/157 158/158/158 159/159/159
f 160/160/160 161/161/161 162/162/162
f 163/163/163 164/164/164 165/165/165
f 166/166/166 167/167/167 168/168/168
f 169/169/169 170/170/170 171/171/171
f 172/172/172 173/173/173 174/174/174
f 175/175/175 176/176/176 177/177/177
f 178/178/178 179/179/179 180/180/180
f 181/181/181 182/182/182 183/183/183
f 184/184/184 185/185/185 186/186/186
f 187/187/187 188/188/188 189/189/189
f 190/190/190 191/191/191 192/192/192
f 193/193/193 194/194/194 195/195/195
f 196/196/196 197/197/197 198/198/198
f 199/199/199 200/200/200 201/201/201
f 202/202/202 203/203/203 204/204/204
f 205/205/205 206/206/206 207/207/207
f 208/208/208 209/209/209 210/210/210
f 211/211/211 212/212/212 213/213/213
f 214/214/214 215/215/215 216/216/216
f 217/217/217 218/218/218 219/219/219
f 220/220/220 221/221/221 222/222/222
f 223/223/223 224/224/224 225/225/225
f 226/226/226 227/227/227 228/228/228
f 229/229/229 230/230/230 231/231/231
f 232/232/232 233/233/233 234/234/234
f 235/235/235 236/236/236 237/237/237
f 238/238/238 239/239/239 240/240/240
f 241/241/241 242/242/242 243/243/243
f 244/244/244 245/245/245 246/246/246
f 247/247/247 248/248/248 249/249/249
f 250/250/250 251/251/251 252/252/252
f 253/253/253 254/254/254 255/255/255
f 256/256/256 257/257/257 258/258/258
f 259/259/259 260/260/260 261/261/261
f 262/262/262 263/263/263 264/264/264
f 265/265/265 266/266/266 267/267/267
f 268/268/268 269/269/269 270/270/270
f 271/271/271 272/272/272 273/273/273
f 274/274/274 275/275/275 276/276/276
f 277/277/277 278/278/278 279/279/279
f 280/280/280 281/281/281 282/282/282
f 283/283/283 284/284/284 285/285/285
f 286/286/286 287/287/287 288/288/288
f 289/289/289 290/290/290 291/291/291
f 292/292/292 293/293/293 294/294/294
f 295/295/295 296/296/296 297/297/297
f 298/298/298 299/299/299 300/300/300
f 301/301/301 302/302/302 303/303/303
f 304/304/304 305/305/305 306/306/306
f 307/307/307 308/308/308 309/309/309
f 310/310/310 311/311/311 312/312/312
f 313/313/313 314/314/314 315/315/315
f 316/316/316 317/317/317 318/318/318
f 319/319/319 320/320/320 321/321/321
f 322/322/322 323/323/323 324/324/324
f 325/325/325 326/326/326 327/327/327
f 328/328/328 329/329/329 330/330/330
f 331/331/331 332/332/332 333/333/333
f 334/334/334 335/335/335 336/336/336
f 337/337/337 338/338/338 339/339/339
f 340/340/340 341/341/341 342/342/342
f 343/343/343 344/344/344 345/345/345
f 346/346/346 347/347/347 348/348/348
f 349/349/349 350/350/350 351/351/351
f 352/352/352 353/353/353 354/354/354
f 355/355/355 356/356/356 357/357/357
f 358/358/358 359/359/359 360/360/360
f 361/361/361 362/362/362 363/363/363
f 364/364/364 365/365/365 366/366/366
f 367/367/367 368/368/368 369/369/369
f 370/370/370 371/371/371 372/372/372
f 373/373/373 374/374/374 375/375/375
f 376/376/376 377/377/377 378/378/378
f 379/379/379 380/380/380 381/381/381
f 382/382/382 383/383/383 384/384/384
f 385/385/385 386/386/386 387/387/387
f 388/388/388 389/389/389 390/390/390
f 391/391/391 392/392/392 393/393/393
f 394/394/394 395/395/395 396/396/396
f 397/397/397 398/398/398 399/399/399
f 400/400/400 401/401/401 402/402/402
f 403/403/403 404/404/404 405/405/405
f 406/406/406 407/407/407 408/408/408
f 409/409/409 410/410/410 411/411/411
f 412/412/412 413/413/413 414/414/414
f 415/415/415 416/416/416 417/417/417
f 418/418/418 419/419/419 420/420/420
f 421/421/421 422/422/422 423/423/423
f 424/424/424 425/425/425 426/426/426
f 427/427/427 428/428/428 429/429/429
f 430/430/430 431/431/431 432/432/432
f 433/433/433 434/434/434 435/435/435
f 436/436/436 437/437/437 438/438/438
f 439/439/439 440/440/440 441/441/441
f 442/442/442 443/443/443 444/444/444
f 445/445/445 446/446/446 447/447/447
f 448/448/448 449/449/449 450/450/450
f 451/451/451 452/452/452 453/453/453
f 454/454/454 455/455/455 456/456/456
f 457/457/457 458/458/458 459/459/459
f 460/460/460 461/461/461 462/462/462
f 463/463/463 464/464/464 465/465/465
f 466/466/466 467/467/467 468/468/468
f 469/469/469 470/470/470 471/471/471
f 472/472/472 473/473/473 474/474/474
f 475/475/475 476/476/476 477/477/477
f 478/478/478 479/479/479 480/480/480
f 481/481/481 482/482/482 483/483/483
f 484/484/484 485/485/485 486/486/486
f 487/487/487 488/488/488 489/489/489
f 490/490/490 491/491/491 492/492/492
f 493/493/493 494/494/494 495/495/495
f 496/496/496 497/497/497 498/498/498
f 499/499/499 500/500/500 501/501/501
f 502/502/502 503/503/503 504/504/504
f 505/505/505 506/506/506 507/507/507
f 508/508/508 509/509/509 510/510/510
f 511/511/511 512/512/512 513/513/513
f 514/514/514 515/515/515 516/516/516
f 517/517/517 518/518/518 519/519/519
f 520/520/520 521/521/521 522/522/522
f 523/523/523 524/524/524 525/525/525
f 526/526/526 527/527/527 528/528/528
f 529/529/529 530/530/530 531/531/531
f 532/532/532 533/533/533 534/534/534
f 535/535/535 536/536/536 537/537/537
f 538/538/538 539/539/539 540/540/540
f 541/541/541 542/542/542 543/543/543
f 544/544/544 545/545/545 546/546/546
f 547/547/547 548/548/548 549/549/549
f 550/550/550 551/551/551 552/552/552
f 553/553/553 554/554/554 555/555/555
f 556/556/556 557/557/557 558/558/558
f 559/559/559 560/560/560 561/561/561
f 562/562/562 563/563/563 564/564/564
f 565/565/565 566/566/566 567/567/567
f 568/568/568 569/569/569 570/570/570
f 571/571/571 572/572/572 573/573/573
f 574/574/574 575/575/575 576/576/576
f 577/577/577 578/578/578 579/579/579
f 580/580/580 581/581/581 582/582/582
f 583/583/583 584/584/584 585/585/585
f 586/586/586 587/587/587 588/588/588
f 589/589/589 590/590/590 591/591/591
f 592/592/592 593/593/593 594/594/594
f 595/595/595 596/596/596 597/597/597
f 598/598/598 599/599/599 600/600/600
f 601/601/601 602/602/602 603/603/603
f 604/604/604 605/605/605 606/606/606
f 607/607/607 608/608/608 609/609/609
f 610/610/610 611/611/611 612/612/612
f 613/613/613 614/614/614 615/615/615
f 616/616/616 617/617/617 618/618/618
f 619/619/619 620/620/620 621/621/621
f 622/622/622 623/623/623 624/624/624
f 625/625/625 626/626/626 627/627/627
f 628/628/628 629/629/629 630/630/630
f 631/631/631 632/632/632 633/633/633
f 634/634/634 635/635/635 636/636/636
f 637/637/637 638/638/638 639/639/639
f 640/640/640 641/641/641 642/642/642
f 643/643/643 644/644/644 645/645/645
f 646/646/646 647/647/647 648/648/648
f 649/649/649 650/650/650 651/651/651
f 652/652/652 653/653/653 654/654/654
f 655/655/655 656/656/656 657/657/657
f 658/658/658 659/659/659 660/660/660
f 661/661/661 662/662/662 663/663/663
f 664/664/664 665/665/665 666/666/666
f 667/667/667 668/668/668 669/669/669
f 670/670/670 671/671/671 672/672/672
f 673/673/673 674/674/674 675/675/675
f 676/676/676 677/677/677 678/678/678
f 679/679/679 680/680/680 681/681/681
f 682/682/682 683/683/683 684/684/684
f 685/685/685 686/686/686 687/687/687
