# Authored in Blender; exported by tools-export-modern.py
mtllib materials.mtl
s off
v 0.000000000 0.594129120 0.205469104
v 0.000000000 0.599601150 0.206189513
v 0.023900032 0.599601150 0.206189513
v 0.000000000 0.520874977 0.195824981
v 0.023900032 0.520874977 0.195824981
v 0.000000000 0.667863296 0.234464663
v 0.000000000 0.672962427 0.236576796
v 0.023900032 0.672962427 0.236576796
v 0.000000000 0.731580450 0.281555900
v 0.000000000 0.735959172 0.284915805
v 0.023900032 0.735959172 0.284915805
v 0.000000000 0.780938276 0.343533828
v 0.000000000 0.784298182 0.347912550
v 0.023900032 0.784298182 0.347912550
v 0.000000000 0.812573221 0.416174586
v 0.000000000 0.814685345 0.421273708
v 0.023900032 0.814685345 0.421273708
v 0.000000000 0.824329579 0.494527962
v 0.000000000 0.825049996 0.500000000
v 0.023900032 0.825049996 0.500000000
v 0.000000000 0.815405762 0.573254254
v 0.000000000 0.814685345 0.578726292
v 0.023900032 0.814685345 0.578726292
v 0.000000000 0.786410306 0.646988327
v 0.000000000 0.784298182 0.652087450
v 0.023900032 0.784298182 0.652087450
v 0.000000000 0.739319077 0.710705473
v 0.000000000 0.735959172 0.715084195
v 0.023900032 0.735959172 0.715084195
v 0.000000000 0.677341149 0.760063299
v 0.000000000 0.672962427 0.763423204
v 0.023900032 0.672962427 0.763423204
v 0.000000000 0.604700281 0.791698354
v 0.000000000 0.599601150 0.793810487
v 0.023900032 0.599601150 0.793810487
v 0.000000000 0.526347006 0.803454610
v 0.000000000 0.520874977 0.804175019
v 0.023900032 0.520874977 0.804175019
v 0.000000000 0.447620723 0.794530896
v 0.000000000 0.442148685 0.793810487
v 0.023900032 0.442148685 0.793810487
v 0.000000000 0.373886539 0.765535337
v 0.000000000 0.368787408 0.763423204
v 0.023900032 0.368787408 0.763423204
v 0.000000000 0.310169496 0.718444100
v 0.000000000 0.305790782 0.715084195
v 0.023900032 0.305790782 0.715084195
v 0.000000000 0.260811567 0.656466172
v 0.000000000 0.257451653 0.652087450
v 0.023900032 0.257451653 0.652087450
v 0.000000000 0.229176504 0.583825414
v 0.000000000 0.227064371 0.578726292
v 0.023900032 0.227064371 0.578726292
v 0.000000000 0.217420358 0.505472038
v 0.000000000 0.216699958 0.500000000
v 0.023900032 0.216699958 0.500000000
v 0.000000000 0.226343971 0.426745746
v 0.000000000 0.227064371 0.421273708
v 0.023900032 0.227064371 0.421273708
v 0.000000000 0.255339521 0.353011673
v 0.000000000 0.257451653 0.347912550
v 0.023900032 0.257451653 0.347912550
v 0.000000000 0.302430868 0.289294527
v 0.000000000 0.305790782 0.284915805
v 0.023900032 0.305790782 0.284915805
v 0.000000000 0.364408694 0.239936701
v 0.000000000 0.368787408 0.236576796
v 0.023900032 0.368787408 0.236576796
v 0.000000000 0.437049554 0.208301646
v 0.000000000 0.442148685 0.206189513
v 0.023900032 0.442148685 0.206189513
v 0.000000000 0.515402939 0.196545390
v 0.129699945 0.572218180 0.308384418
v 0.129699945 0.520874977 0.301625013
v 0.129699945 0.620062590 0.328202248
v 0.129699945 0.661147118 0.359727740
v 0.129699945 0.692672610 0.400812507
v 0.129699945 0.712490439 0.448656797
v 0.129699945 0.719249845 0.500000000
v 0.129699945 0.712490439 0.551343203
v 0.129699945 0.692672610 0.599187493
v 0.129699945 0.661147118 0.640272260
v 0.129699945 0.620062590 0.671797752
v 0.129699945 0.572218180 0.691615582
v 0.129699945 0.520874977 0.698374987
v 0.129699945 0.469531655 0.691615582
v 0.129699945 0.421687365 0.671797752
v 0.129699945 0.380602717 0.640272260
v 0.129699945 0.349077225 0.599187493
v 0.129699945 0.329259396 0.551343203
v 0.129699945 0.322499990 0.500000000
v 0.129699945 0.329259396 0.448656797
v 0.129699945 0.349077225 0.400812507
v 0.129699945 0.380602717 0.359727740
v 0.129699945 0.421687365 0.328202248
v 0.129699945 0.469531655 0.308384418
v 0.063575029 0.520874977 0.374362469
v 0.063575029 0.553392172 0.378643513
v 0.354525089 0.553392172 0.378643513
v 0.354525089 0.520874977 0.374362469
v 0.063575029 0.583693624 0.391194701
v 0.354525089 0.583693624 0.391194701
v 0.063575029 0.609714150 0.411160827
v 0.354525089 0.609714150 0.411160827
v 0.063575029 0.629680157 0.437181234
v 0.354525089 0.629680157 0.437181234
v 0.063575029 0.642231345 0.467482567
v 0.354525089 0.642231345 0.467482567
v 0.063575029 0.646512389 0.500000000
v 0.354525089 0.646512389 0.500000000
v 0.063575029 0.642231345 0.532517433
v 0.354525089 0.642231345 0.532517433
v 0.063575029 0.629680157 0.562818766
v 0.354525089 0.629680157 0.562818766
v 0.063575029 0.609714150 0.588839173
v 0.354525089 0.609714150 0.588839173
v 0.063575029 0.583693624 0.608805299
v 0.354525089 0.583693624 0.608805299
v 0.063575029 0.553392172 0.621356487
v 0.354525089 0.553392172 0.621356487
v 0.063575029 0.520874977 0.625637531
v 0.354525089 0.520874977 0.625637531
v 0.063575029 0.488357544 0.621356487
v 0.354525089 0.488357544 0.621356487
v 0.063575029 0.458056211 0.608805299
v 0.354525089 0.458056211 0.608805299
v 0.063575029 0.432035804 0.588839173
v 0.354525089 0.432035804 0.588839173
v 0.063575029 0.412069678 0.562818766
v 0.354525089 0.412069678 0.562818766
v 0.063575029 0.399518490 0.532517433
v 0.354525089 0.399518490 0.532517433
v 0.063575029 0.395237327 0.500000000
v 0.354525089 0.395237327 0.500000000
v 0.063575029 0.399518490 0.467482567
v 0.354525089 0.399518490 0.467482567
v 0.063575029 0.412069678 0.437181234
v 0.354525089 0.412069678 0.437181234
v 0.063575029 0.432035804 0.411160827
v 0.354525089 0.432035804 0.411160827
v 0.063575029 0.458056211 0.391194701
v 0.354525089 0.458056211 0.391194701
v 0.063575029 0.488357544 0.378643513
v 0.354525089 0.488357544 0.378643513
v 1.000000000 0.545002105 0.378332370
v 0.797562599 0.520874977 0.375156045
v 0.797562599 0.553187013 0.379409909
v 1.000000000 0.553187013 0.379409909
v 1.000000000 0.520874977 0.375156045
v 1.000000000 0.575669811 0.388722673
v 0.797562599 0.583296895 0.391881943
v 1.000000000 0.583296895 0.391881943
v 1.000000000 0.602603457 0.406696307
v 0.797562599 0.609153032 0.411721945
v 1.000000000 0.609153032 0.411721945
v 1.000000000 0.623967307 0.431028418
v 0.797562599 0.628992915 0.437577963
v 1.000000000 0.628992915 0.437577963
v 1.000000000 0.638305679 0.460060850
v 0.797562599 0.641464949 0.467687964
v 1.000000000 0.641464949 0.467687964
v 1.000000000 0.644641363 0.491815092
v 0.797562599 0.645718932 0.500000000
v 1.000000000 0.645718932 0.500000000
v 1.000000000 0.642542518 0.524127128
v 0.797562599 0.641464949 0.532312036
v 1.000000000 0.641464949 0.532312036
v 1.000000000 0.632152185 0.554794923
v 0.797562599 0.628992915 0.562422037
v 1.000000000 0.628992915 0.562422037
v 1.000000000 0.614178640 0.581728510
v 0.797562599 0.609153032 0.588278055
v 1.000000000 0.609153032 0.588278055
v 1.000000000 0.589846470 0.603092419
v 0.797562599 0.583296895 0.608118057
v 1.000000000 0.583296895 0.608118057
v 1.000000000 0.560814097 0.617430821
v 0.797562599 0.553187013 0.620590091
v 1.000000000 0.553187013 0.620590091
v 1.000000000 0.529059885 0.623766416
v 0.797562599 0.520874977 0.624843955
v 1.000000000 0.520874977 0.624843955
v 1.000000000 0.496747760 0.621667630
v 0.797562599 0.488562822 0.620590091
v 1.000000000 0.488562822 0.620590091
v 1.000000000 0.466080024 0.611277327
v 0.797562599 0.458452940 0.608118057
v 1.000000000 0.458452940 0.608118057
v 1.000000000 0.439146467 0.593303693
v 0.797562599 0.432596922 0.588278055
v 1.000000000 0.432596922 0.588278055
v 1.000000000 0.417782558 0.568971582
v 0.797562599 0.412756920 0.562422037
v 1.000000000 0.412756920 0.562422037
v 1.000000000 0.403444067 0.539939150
v 0.797562599 0.400284767 0.532312036
v 1.000000000 0.400284767 0.532312036
v 1.000000000 0.397108442 0.508184908
v 0.797562599 0.396030903 0.500000000
v 1.000000000 0.396030903 0.500000000
v 1.000000000 0.399207228 0.475872872
v 0.797562599 0.400284767 0.467687964
v 1.000000000 0.400284767 0.467687964
v 1.000000000 0.409597620 0.445205077
v 0.797562599 0.412756920 0.437577963
v 1.000000000 0.412756920 0.437577963
v 1.000000000 0.427571284 0.418271490
v 0.797562599 0.432596922 0.411721945
v 1.000000000 0.432596922 0.411721945
v 1.000000000 0.451903395 0.396907581
v 0.797562599 0.458452940 0.391881943
v 1.000000000 0.458452940 0.391881943
v 1.000000000 0.480935738 0.382569179
v 0.797562599 0.488562822 0.379409909
v 1.000000000 0.488562822 0.379409909
v 1.000000000 0.512690039 0.376233584
v 0.301625013 0.520874977 0.388116479
v 0.301625013 0.549832463 0.391928792
v 0.850462437 0.549832463 0.391928792
v 0.850462437 0.520874977 0.388116479
v 0.301625013 0.576816559 0.403106093
v 0.850462437 0.576816559 0.403106093
v 0.301625013 0.599988461 0.420886397
v 0.850462437 0.599988461 0.420886397
v 0.301625013 0.617768884 0.444058299
v 0.850462437 0.617768884 0.444058299
v 0.301625013 0.628946185 0.471042395
v 0.850462437 0.628946185 0.471042395
v 0.301625013 0.632758379 0.500000000
v 0.850462437 0.632758379 0.500000000
v 0.301625013 0.628946185 0.528957605
v 0.850462437 0.628946185 0.528957605
v 0.301625013 0.617768884 0.555941701
v 0.850462437 0.617768884 0.555941701
v 0.301625013 0.599988461 0.579113603
v 0.850462437 0.599988461 0.579113603
v 0.301625013 0.576816559 0.596893907
v 0.850462437 0.576816559 0.596893907
v 0.301625013 0.549832463 0.608071208
v 0.850462437 0.549832463 0.608071208
v 0.301625013 0.520874977 0.611883521
v 0.850462437 0.520874977 0.611883521
v 0.301625013 0.491917253 0.608071208
v 0.850462437 0.491917253 0.608071208
v 0.301625013 0.464933157 0.596893907
v 0.850462437 0.464933157 0.596893907
v 0.301625013 0.441761255 0.579113603
v 0.850462437 0.441761255 0.579113603
v 0.301625013 0.423980951 0.555941701
v 0.850462437 0.423980951 0.555941701
v 0.301625013 0.412803650 0.528957605
v 0.850462437 0.412803650 0.528957605
v 0.301625013 0.408991456 0.500000000
v 0.850462437 0.408991456 0.500000000
v 0.301625013 0.412803650 0.471042395
v 0.850462437 0.412803650 0.471042395
v 0.301625013 0.423980951 0.444058299
v 0.850462437 0.423980951 0.444058299
v 0.301625013 0.441761255 0.420886397
v 0.850462437 0.441761255 0.420886397
v 0.301625013 0.464933157 0.403106093
v 0.850462437 0.464933157 0.403106093
v 0.301625013 0.491917253 0.391928792
v 0.850462437 0.491917253 0.391928792
v 0.344606161 0.520874977 0.261950016
v 0.344606161 0.611972809 0.280070543
v 0.490081310 0.611972809 0.280070543
v 0.490081310 0.520874977 0.261950016
v 0.344606161 0.689201593 0.331673265
v 0.490081310 0.689201593 0.331673265
v 0.344606161 0.740804315 0.408902168
v 0.490081310 0.740804315 0.408902168
v 0.344606161 0.758924842 0.500000000
v 0.490081310 0.758924842 0.500000000
v 0.344606161 0.740804315 0.591097832
v 0.490081310 0.740804315 0.591097832
v 0.344606161 0.689201593 0.668326735
v 0.490081310 0.689201593 0.668326735
v 0.344606161 0.611972809 0.719929457
v 0.490081310 0.611972809 0.719929457
v 0.344606161 0.520874977 0.738049984
v 0.490081310 0.520874977 0.738049984
v 0.344606161 0.429777145 0.719929457
v 0.490081310 0.429777145 0.719929457
v 0.344606161 0.352548122 0.668326735
v 0.490081310 0.352548122 0.668326735
v 0.344606161 0.300945282 0.591097832
v 0.490081310 0.300945282 0.591097832
v 0.344606161 0.282824993 0.500000000
v 0.490081310 0.282824993 0.500000000
v 0.344606161 0.300945282 0.408902168
v 0.490081310 0.300945282 0.408902168
v 0.344606161 0.352548122 0.331673265
v 0.490081310 0.352548122 0.331673265
v 0.344606161 0.429777145 0.280070543
v 0.490081310 0.429777145 0.280070543
v 0.340638638 0.604192376 0.670760155
v 0.340638638 0.627098799 0.657535076
v 0.319478750 0.627098799 0.657535076
v 0.319478750 0.604192376 0.670760155
v 0.340638638 0.627098799 0.631085157
v 0.319478750 0.627098799 0.631085157
v 0.340638638 0.604192376 0.617860079
v 0.319478750 0.604192376 0.617860079
v 0.340638638 0.581285954 0.631085157
v 0.319478750 0.581285954 0.631085157
v 0.340638638 0.581285954 0.657535076
v 0.319478750 0.581285954 0.657535076
v 0.340638638 0.687509894 0.526450038
v 0.340638638 0.710416317 0.513224959
v 0.319478750 0.710416317 0.513224959
v 0.319478750 0.687509894 0.526450038
v 0.340638638 0.710416317 0.486775041
v 0.319478750 0.710416317 0.486775041
v 0.340638638 0.687509894 0.473549962
v 0.319478750 0.687509894 0.473549962
v 0.340638638 0.664603472 0.486775041
v 0.319478750 0.664603472 0.486775041
v 0.340638638 0.664603472 0.513224959
v 0.319478750 0.664603472 0.513224959
v 0.340638638 0.604192376 0.382139921
v 0.340638638 0.627098799 0.368914843
v 0.319478750 0.627098799 0.368914843
v 0.319478750 0.604192376 0.382139921
v 0.340638638 0.627098799 0.342464924
v 0.319478750 0.627098799 0.342464924
v 0.340638638 0.604192376 0.329239845
v 0.319478750 0.604192376 0.329239845
v 0.340638638 0.581285954 0.342464924
v 0.319478750 0.581285954 0.342464924
v 0.340638638 0.581285954 0.368914843
v 0.319478750 0.581285954 0.368914843
v 0.340638638 0.437557459 0.382139921
v 0.340638638 0.460463881 0.368914843
v 0.319478750 0.460463881 0.368914843
v 0.319478750 0.437557459 0.382139921
v 0.340638638 0.460463881 0.342464924
v 0.319478750 0.460463881 0.342464924
v 0.340638638 0.437557459 0.329239845
v 0.319478750 0.437557459 0.329239845
v 0.340638638 0.414651036 0.342464924
v 0.319478750 0.414651036 0.342464924
v 0.340638638 0.414651036 0.368914843
v 0.319478750 0.414651036 0.368914843
v 0.340638638 0.354239821 0.526450038
v 0.340638638 0.377146244 0.513224959
v 0.319478750 0.377146244 0.513224959
v 0.319478750 0.354239821 0.526450038
v 0.340638638 0.377146244 0.486775041
v 0.319478750 0.377146244 0.486775041
v 0.340638638 0.354239821 0.473549962
v 0.319478750 0.354239821 0.473549962
v 0.340638638 0.331333399 0.486775041
v 0.319478750 0.331333399 0.486775041
v 0.340638638 0.331333399 0.513224959
v 0.319478750 0.331333399 0.513224959
v 0.340638638 0.437557459 0.670760155
v 0.340638638 0.460463881 0.657535076
v 0.319478750 0.460463881 0.657535076
v 0.319478750 0.437557459 0.670760155
v 0.340638638 0.460463881 0.631085157
v 0.319478750 0.460463881 0.631085157
v 0.340638638 0.437557459 0.617860079
v 0.319478750 0.437557459 0.617860079
v 0.340638638 0.414651036 0.631085157
v 0.319478750 0.414651036 0.631085157
v 0.340638638 0.414651036 0.657535076
v 0.319478750 0.414651036 0.657535076
v 0.662006140 0.520874977 0.261950016
v 0.662006140 0.611972809 0.280070543
v 0.807481289 0.611972809 0.280070543
v 0.807481289 0.520874977 0.261950016
v 0.662006140 0.689201593 0.331673265
v 0.807481289 0.689201593 0.331673265
v 0.662006140 0.740804315 0.408902168
v 0.807481289 0.740804315 0.408902168
v 0.662006140 0.758924842 0.500000000
v 0.807481289 0.758924842 0.500000000
v 0.662006140 0.740804315 0.591097832
v 0.807481289 0.740804315 0.591097832
v 0.662006140 0.689201593 0.668326735
v 0.807481289 0.689201593 0.668326735
v 0.662006140 0.611972809 0.719929457
v 0.807481289 0.611972809 0.719929457
v 0.662006140 0.520874977 0.738049984
v 0.807481289 0.520874977 0.738049984
v 0.662006140 0.429777145 0.719929457
v 0.807481289 0.429777145 0.719929457
v 0.662006140 0.352548122 0.668326735
v 0.807481289 0.352548122 0.668326735
v 0.662006140 0.300945282 0.591097832
v 0.807481289 0.300945282 0.591097832
v 0.662006140 0.282824993 0.500000000
v 0.807481289 0.282824993 0.500000000
v 0.662006140 0.300945282 0.408902168
v 0.807481289 0.300945282 0.408902168
v 0.662006140 0.352548122 0.331673265
v 0.807481289 0.352548122 0.331673265
v 0.662006140 0.429777145 0.280070543
v 0.807481289 0.429777145 0.280070543
v 0.658038616 0.604192376 0.670760155
v 0.658038616 0.627098799 0.657535076
v 0.636878729 0.627098799 0.657535076
v 0.636878729 0.604192376 0.670760155
v 0.658038616 0.627098799 0.631085157
v 0.636878729 0.627098799 0.631085157
v 0.658038616 0.604192376 0.617860079
v 0.636878729 0.604192376 0.617860079
v 0.658038616 0.581285954 0.631085157
v 0.636878729 0.581285954 0.631085157
v 0.658038616 0.581285954 0.657535076
v 0.636878729 0.581285954 0.657535076
v 0.658038616 0.687509894 0.526450038
v 0.658038616 0.710416317 0.513224959
v 0.636878729 0.710416317 0.513224959
v 0.636878729 0.687509894 0.526450038
v 0.658038616 0.710416317 0.486775041
v 0.636878729 0.710416317 0.486775041
v 0.658038616 0.687509894 0.473549962
v 0.636878729 0.687509894 0.473549962
v 0.658038616 0.664603472 0.486775041
v 0.636878729 0.664603472 0.486775041
v 0.658038616 0.664603472 0.513224959
v 0.636878729 0.664603472 0.513224959
v 0.658038616 0.604192376 0.382139921
v 0.658038616 0.627098799 0.368914843
v 0.636878729 0.627098799 0.368914843
v 0.636878729 0.604192376 0.382139921
v 0.658038616 0.627098799 0.342464924
v 0.636878729 0.627098799 0.342464924
v 0.658038616 0.604192376 0.329239845
v 0.636878729 0.604192376 0.329239845
v 0.658038616 0.581285954 0.342464924
v 0.636878729 0.581285954 0.342464924
v 0.658038616 0.581285954 0.368914843
v 0.636878729 0.581285954 0.368914843
v 0.658038616 0.437557459 0.382139921
v 0.658038616 0.460463881 0.368914843
v 0.636878729 0.460463881 0.368914843
v 0.636878729 0.437557459 0.382139921
v 0.658038616 0.460463881 0.342464924
v 0.636878729 0.460463881 0.342464924
v 0.658038616 0.437557459 0.329239845
v 0.636878729 0.437557459 0.329239845
v 0.658038616 0.414651036 0.342464924
v 0.636878729 0.414651036 0.342464924
v 0.658038616 0.414651036 0.368914843
v 0.636878729 0.414651036 0.368914843
v 0.658038616 0.354239821 0.526450038
v 0.658038616 0.377146244 0.513224959
v 0.636878729 0.377146244 0.513224959
v 0.636878729 0.354239821 0.526450038
v 0.658038616 0.377146244 0.486775041
v 0.636878729 0.377146244 0.486775041
v 0.658038616 0.354239821 0.473549962
v 0.636878729 0.354239821 0.473549962
v 0.658038616 0.331333399 0.486775041
v 0.636878729 0.331333399 0.486775041
v 0.658038616 0.331333399 0.513224959
v 0.636878729 0.331333399 0.513224959
v 0.658038616 0.437557459 0.670760155
v 0.658038616 0.460463881 0.657535076
v 0.636878729 0.460463881 0.657535076
v 0.636878729 0.437557459 0.670760155
v 0.658038616 0.460463881 0.631085157
v 0.636878729 0.460463881 0.631085157
v 0.658038616 0.437557459 0.617860079
v 0.636878729 0.437557459 0.617860079
v 0.658038616 0.414651036 0.631085157
v 0.636878729 0.414651036 0.631085157
v 0.658038616 0.414651036 0.657535076
v 0.636878729 0.414651036 0.657535076
v 0.509918690 0.520874977 0.290516019
v 0.509918690 0.601041079 0.306462049
v 0.642168760 0.601041079 0.306462049
v 0.642168760 0.520874977 0.290516019
v 0.509918690 0.669002414 0.351872444
v 0.642168760 0.669002414 0.351872444
v 0.509918690 0.714412808 0.419833899
v 0.642168760 0.714412808 0.419833899
v 0.509918690 0.730358839 0.500000000
v 0.642168760 0.730358839 0.500000000
v 0.509918690 0.714412808 0.580166101
v 0.642168760 0.714412808 0.580166101
v 0.509918690 0.669002414 0.648127556
v 0.642168760 0.669002414 0.648127556
v 0.509918690 0.601041079 0.693537951
v 0.642168760 0.601041079 0.693537951
v 0.509918690 0.520874977 0.709483981
v 0.642168760 0.520874977 0.709483981
v 0.509918690 0.440708876 0.693537951
v 0.642168760 0.440708876 0.693537951
v 0.509918690 0.372747421 0.648127556
v 0.642168760 0.372747421 0.648127556
v 0.509918690 0.327336907 0.580166101
v 0.642168760 0.327336907 0.580166101
v 0.509918690 0.311390996 0.500000000
v 0.642168760 0.311390996 0.500000000
v 0.509918690 0.327336907 0.419833899
v 0.642168760 0.327336907 0.419833899
v 0.509918690 0.372747421 0.351872444
v 0.642168760 0.372747421 0.351872444
v 0.509918690 0.440708876 0.306462049
v 0.642168760 0.440708876 0.306462049
v 0.414037466 0.520874977 0.090024948
v 0.414037466 0.626984239 0.103994608
v 0.738049984 0.626984239 0.103994608
v 0.738049984 0.520874977 0.090024948
v 0.414037466 0.725862384 0.144951224
v 0.738049984 0.725862384 0.144951224
v 0.414037466 0.810770988 0.210103869
v 0.738049984 0.810770988 0.210103869
v 0.414037466 0.875923634 0.295012474
v 0.738049984 0.875923634 0.295012474
v 0.414037466 0.916880488 0.393890619
v 0.738049984 0.916880488 0.393890619
v 0.414037466 0.930850029 0.500000000
v 0.738049984 0.930850029 0.500000000
v 0.414037466 0.916880488 0.606109381
v 0.738049984 0.916880488 0.606109381
v 0.414037466 0.875923634 0.704987526
v 0.738049984 0.875923634 0.704987526
v 0.414037466 0.810770988 0.789896131
v 0.738049984 0.810770988 0.789896131
v 0.414037466 0.725862384 0.855048776
v 0.738049984 0.725862384 0.855048776
v 0.414037466 0.626984239 0.896005392
v 0.738049984 0.626984239 0.896005392
v 0.414037466 0.520874977 0.909975052
v 0.738049984 0.520874977 0.909975052
v 0.414037466 0.518623352 0.107127428
v 0.738049984 0.518623352 0.107127428
v 0.738049984 0.622519612 0.120656729
v 0.414037466 0.622519612 0.120656729
v 0.738049984 0.717237353 0.159890175
v 0.414037466 0.717237353 0.159890175
v 0.738049984 0.798573375 0.222301483
v 0.414037466 0.798573375 0.222301483
v 0.738049984 0.860984683 0.303637505
v 0.414037466 0.860984683 0.303637505
v 0.738049984 0.900218129 0.398355246
v 0.414037466 0.900218129 0.398355246
v 0.738049984 0.913599968 0.500000000
v 0.414037466 0.913599968 0.500000000
v 0.738049984 0.900218129 0.601644754
v 0.414037466 0.900218129 0.601644754
v 0.738049984 0.860984683 0.696362495
v 0.414037466 0.860984683 0.696362495
v 0.738049984 0.798573375 0.777698517
v 0.414037466 0.798573375 0.777698517
v 0.738049984 0.717237353 0.840109825
v 0.414037466 0.717237353 0.840109825
v 0.738049984 0.622519612 0.879343271
v 0.414037466 0.622519612 0.879343271
v 0.738049984 0.518623352 0.892872572
v 0.414037466 0.518623352 0.892872572
v 0.421972513 0.370110035 0.939731359
v 0.414037704 0.370110035 0.931796312
v 0.421972513 0.362174988 0.931796312
v 0.730115175 0.370110035 0.939731359
v 0.730115175 0.362174988 0.931796312
v 0.738049984 0.370110035 0.931796312
v 0.730115175 0.370110035 0.880218744
v 0.738049984 0.370110035 0.888153791
v 0.730115175 0.362174988 0.888153791
v 0.414037704 0.370110035 0.888153791
v 0.421972513 0.370110035 0.880218744
v 0.421972513 0.362174988 0.888153791
v 0.414037704 0.526165009 0.931796312
v 0.421972513 0.526165009 0.939731359
v 0.421972513 0.534100056 0.931796312
v 0.730115175 0.526165009 0.939731359
v 0.738049984 0.526165009 0.931796312
v 0.730115175 0.534100056 0.931796312
v 0.738049984 0.526165009 0.888153791
v 0.730115175 0.526165009 0.880218744
v 0.730115175 0.534100056 0.888153791
v 0.414037704 0.526165009 0.888153791
v 0.421972513 0.534100056 0.888153791
v 0.421972513 0.526165009 0.880218744
v 0.490081310 0.372754812 0.899395108
v 0.474211216 0.372754812 0.883525014
v 0.474211216 0.388624907 0.899395108
v 0.459663868 0.372754812 0.883525014
v 0.443793774 0.372754812 0.899395108
v 0.459663868 0.388624907 0.899395108
v 0.443793774 0.372754812 0.920554996
v 0.459663868 0.372754812 0.936425090
v 0.459663868 0.388624907 0.920554996
v 0.490081310 0.372754812 0.920554996
v 0.474211216 0.388624907 0.920554996
v 0.474211216 0.372754812 0.936425090
v 0.484317025 0.000000000 0.893630823
v 0.474211216 0.000000000 0.883525014
v 0.490081310 0.000000000 0.899395108
v 0.453899583 0.000000000 0.889289299
v 0.443793774 0.000000000 0.899395108
v 0.459663868 0.000000000 0.883525014
v 0.449558058 0.000000000 0.926319280
v 0.459663868 0.000000000 0.936425090
v 0.443793774 0.000000000 0.920554996
v 0.479975501 0.000000000 0.930660805
v 0.490081310 0.000000000 0.920554996
v 0.474211216 0.000000000 0.936425090
v 0.464947709 0.000000000 0.883525014
v 0.490081310 0.000000000 0.907080735
v 0.443793774 0.000000000 0.912869369
v 0.468927375 0.000000000 0.936425090
v 0.440487623 0.540712357 0.909975052
v 0.453712463 0.540712357 0.932881474
v 0.453712463 0.585677385 0.932881474
v 0.440487623 0.585677385 0.909975052
v 0.480162621 0.540712357 0.932881474
v 0.480162621 0.585677385 0.932881474
v 0.493387461 0.540712357 0.909975052
v 0.493387461 0.585677385 0.909975052
v 0.480162621 0.540712357 0.887068629
v 0.480162621 0.585677385 0.887068629
v 0.453712463 0.540712357 0.887068629
v 0.453712463 0.585677385 0.887068629
v 0.708293676 0.372754812 0.899395108
v 0.692423582 0.372754812 0.883525014
v 0.692423582 0.388624907 0.899395108
v 0.677876234 0.372754812 0.883525014
v 0.662006140 0.372754812 0.899395108
v 0.677876234 0.388624907 0.899395108
v 0.662006140 0.372754812 0.920554996
v 0.677876234 0.372754812 0.936425090
v 0.677876234 0.388624907 0.920554996
v 0.708293676 0.372754812 0.920554996
v 0.692423582 0.388624907 0.920554996
v 0.692423582 0.372754812 0.936425090
v 0.702529392 0.000000000 0.893630823
v 0.692423582 0.000000000 0.883525014
v 0.708293676 0.000000000 0.899395108
v 0.672111949 0.000000000 0.889289299
v 0.662006140 0.000000000 0.899395108
v 0.677876234 0.000000000 0.883525014
v 0.667770425 0.000000000 0.926319280
v 0.677876234 0.000000000 0.936425090
v 0.662006140 0.000000000 0.920554996
v 0.698187867 0.000000000 0.930660805
v 0.708293676 0.000000000 0.920554996
v 0.692423582 0.000000000 0.936425090
v 0.683160075 0.000000000 0.883525014
v 0.708293676 0.000000000 0.907080735
v 0.662006140 0.000000000 0.912869369
v 0.687139741 0.000000000 0.936425090
v 0.658699989 0.540712357 0.909975052
v 0.671924829 0.540712357 0.932881474
v 0.671924829 0.585677385 0.932881474
v 0.658699989 0.585677385 0.909975052
v 0.698374987 0.540712357 0.932881474
v 0.698374987 0.585677385 0.932881474
v 0.711599827 0.540712357 0.909975052
v 0.711599827 0.585677385 0.909975052
v 0.698374987 0.540712357 0.887068629
v 0.698374987 0.585677385 0.887068629
v 0.671924829 0.540712357 0.887068629
v 0.671924829 0.585677385 0.887068629
v 0.421972513 0.370110035 0.119781256
v 0.414037704 0.370110035 0.111846209
v 0.421972513 0.362174988 0.111846209
v 0.730115175 0.370110035 0.119781256
v 0.730115175 0.362174988 0.111846209
v 0.738049984 0.370110035 0.111846209
v 0.730115175 0.370110035 0.060268641
v 0.738049984 0.370110035 0.068203688
v 0.730115175 0.362174988 0.068203688
v 0.414037704 0.370110035 0.068203688
v 0.421972513 0.370110035 0.060268641
v 0.421972513 0.362174988 0.068203688
v 0.414037704 0.526165009 0.111846209
v 0.421972513 0.526165009 0.119781256
v 0.421972513 0.534100056 0.111846209
v 0.730115175 0.526165009 0.119781256
v 0.738049984 0.526165009 0.111846209
v 0.730115175 0.534100056 0.111846209
v 0.738049984 0.526165009 0.068203688
v 0.730115175 0.526165009 0.060268641
v 0.730115175 0.534100056 0.068203688
v 0.414037704 0.526165009 0.068203688
v 0.421972513 0.534100056 0.068203688
v 0.421972513 0.526165009 0.060268641
v 0.490081310 0.372754812 0.079445004
v 0.474211216 0.372754812 0.063574910
v 0.474211216 0.388624907 0.079445004
v 0.459663868 0.372754812 0.063574910
v 0.443793774 0.372754812 0.079445004
v 0.459663868 0.388624907 0.079445004
v 0.443793774 0.372754812 0.100604892
v 0.459663868 0.372754812 0.116474986
v 0.459663868 0.388624907 0.100604892
v 0.490081310 0.372754812 0.100604892
v 0.474211216 0.388624907 0.100604892
v 0.474211216 0.372754812 0.116474986
v 0.484317025 0.000000000 0.073680720
v 0.474211216 0.000000000 0.063574910
v 0.490081310 0.000000000 0.079445004
v 0.453899583 0.000000000 0.069339195
v 0.443793774 0.000000000 0.079445004
v 0.459663868 0.000000000 0.063574910
v 0.449558058 0.000000000 0.106369177
v 0.459663868 0.000000000 0.116474986
v 0.443793774 0.000000000 0.100604892
v 0.479975501 0.000000000 0.110710701
v 0.490081310 0.000000000 0.100604892
v 0.474211216 0.000000000 0.116474986
v 0.464947709 0.000000000 0.063574910
v 0.490081310 0.000000000 0.087130631
v 0.443793774 0.000000000 0.092919265
v 0.468927375 0.000000000 0.116474986
v 0.440487623 0.540712357 0.090024948
v 0.453712463 0.540712357 0.112931371
v 0.453712463 0.585677385 0.112931371
v 0.440487623 0.585677385 0.090024948
v 0.480162621 0.540712357 0.112931371
v 0.480162621 0.585677385 0.112931371
v 0.493387461 0.540712357 0.090024948
v 0.493387461 0.585677385 0.090024948
v 0.480162621 0.540712357 0.067118526
v 0.480162621 0.585677385 0.067118526
v 0.453712463 0.540712357 0.067118526
v 0.453712463 0.585677385 0.067118526
v 0.708293676 0.372754812 0.079445004
v 0.692423582 0.372754812 0.063574910
v 0.692423582 0.388624907 0.079445004
v 0.677876234 0.372754812 0.063574910
v 0.662006140 0.372754812 0.079445004
v 0.677876234 0.388624907 0.079445004
v 0.662006140 0.372754812 0.100604892
v 0.677876234 0.372754812 0.116474986
v 0.677876234 0.388624907 0.100604892
v 0.708293676 0.372754812 0.100604892
v 0.692423582 0.388624907 0.100604892
v 0.692423582 0.372754812 0.116474986
v 0.702529392 0.000000000 0.073680720
v 0.692423582 0.000000000 0.063574910
v 0.708293676 0.000000000 0.079445004
v 0.672111949 0.000000000 0.069339195
v 0.662006140 0.000000000 0.079445004
v 0.677876234 0.000000000 0.063574910
v 0.667770425 0.000000000 0.106369177
v 0.677876234 0.000000000 0.116474986
v 0.662006140 0.000000000 0.100604892
v 0.698187867 0.000000000 0.110710701
v 0.708293676 0.000000000 0.100604892
v 0.692423582 0.000000000 0.116474986
v 0.683160075 0.000000000 0.063574910
v 0.708293676 0.000000000 0.087130631
v 0.662006140 0.000000000 0.092919265
v 0.687139741 0.000000000 0.116474986
v 0.658699989 0.540712357 0.090024948
v 0.671924829 0.540712357 0.112931371
v 0.671924829 0.585677385 0.112931371
v 0.658699989 0.585677385 0.090024948
v 0.698374987 0.540712357 0.112931371
v 0.698374987 0.585677385 0.112931371
v 0.711599827 0.540712357 0.090024948
v 0.711599827 0.585677385 0.090024948
v 0.698374987 0.540712357 0.067118526
v 0.698374987 0.585677385 0.067118526
v 0.671924829 0.540712357 0.067118526
v 0.671924829 0.585677385 0.067118526
vt 0.218729962 0.076611085
vt 0.218729962 0.077665173
vt 0.223772332 0.077665173
vt 0.218729962 0.062500000
vt 0.223772332 0.062500000
vt 0.218729962 0.090814621
vt 0.218729962 0.091796875
vt 0.223772332 0.091796875
vt 0.218729962 0.103088565
vt 0.218729962 0.103932045
vt 0.223772332 0.103932045
vt 0.218729962 0.092640355
vt 0.218729962 0.103932038
vt 0.223772332 0.103932038
vt 0.218729962 0.078647433
vt 0.218729962 0.077665180
vt 0.223772332 0.077665180
vt 0.218729962 0.063554088
vt 0.218729962 0.048388908
vt 0.218729962 0.047334820
vt 0.223772332 0.047334820
vt 0.218729962 0.034185378
vt 0.218729962 0.033203125
vt 0.223772332 0.033203125
vt 0.218729962 0.021911441
vt 0.218729962 0.021067960
vt 0.223772332 0.021067960
vt 0.218729962 0.092640356
vt 0.218729962 0.078647426
vt 0.218729962 0.063554087
vt 0.218729962 0.048388918
vt 0.218729962 0.047334831
vt 0.223772332 0.047334831
vt 0.218729962 0.034185379
vt 0.218729962 0.021911447
vt 0.218729962 0.021067968
vt 0.223772332 0.021067968
vt 0.218729962 0.032359645
vt 0.218729962 0.046352567
vt 0.218729962 0.061445912
vt 0.218729962 0.076611092
vt 0.218729962 0.090814622
vt 0.218729962 0.103088558
vt 0.218729962 0.046352577
vt 0.218729962 0.061445913
vt 0.246093750 0.062500000
vt 0.244097218 0.077665173
vt 0.224411234 0.072390340
vt 0.225713313 0.062500000
vt 0.238243669 0.091796875
vt 0.220593706 0.081606671
vt 0.228932038 0.103932045
vt 0.214520901 0.089520887
vt 0.216796875 0.113243677
vt 0.206606656 0.095593698
vt 0.202665180 0.119097218
vt 0.197390333 0.099411227
vt 0.187500000 0.121093750
vt 0.187500000 0.100713305
vt 0.172334820 0.119097218
vt 0.177609667 0.099411227
vt 0.158203125 0.113243677
vt 0.168393344 0.095593698
vt 0.146067962 0.103932045
vt 0.160479099 0.089520887
vt 0.136756331 0.091796875
vt 0.154406294 0.081606671
vt 0.130902782 0.077665173
vt 0.150588766 0.072390340
vt 0.128906250 0.062500000
vt 0.149286687 0.062500000
vt 0.130902782 0.047334831
vt 0.150588766 0.052609660
vt 0.136756331 0.033203125
vt 0.154406294 0.043393333
vt 0.146067962 0.021067968
vt 0.160479099 0.035479113
vt 0.158203125 0.011756327
vt 0.168393344 0.029406305
vt 0.172334820 0.005902783
vt 0.177609667 0.025588773
vt 0.187500000 0.003906250
vt 0.187500000 0.024286695
vt 0.202665180 0.005902783
vt 0.197390333 0.025588773
vt 0.216796875 0.011756327
vt 0.206606656 0.029406305
vt 0.228932038 0.021067968
vt 0.214520901 0.035479113
vt 0.238243669 0.033203125
vt 0.220593706 0.043393333
vt 0.244097218 0.047334831
vt 0.224411234 0.052609660
vt 0.753906250 0.062500000
vt 0.753906250 0.077665135
vt 0.871093750 0.077665135
vt 0.871093750 0.062500000
vt 0.753906250 0.091796875
vt 0.871093750 0.091796875
vt 0.753906250 0.103932030
vt 0.871093750 0.103932030
vt 0.753906250 0.103932038
vt 0.871093750 0.103932038
vt 0.753906250 0.077665180
vt 0.871093750 0.077665180
vt 0.753906250 0.047334824
vt 0.871093750 0.047334824
vt 0.753906250 0.033203125
vt 0.871093750 0.033203125
vt 0.753906250 0.021067962
vt 0.871093750 0.021067962
vt 0.753906250 0.047334861
vt 0.871093750 0.047334861
vt 0.753906250 0.021067971
vt 0.871093750 0.021067971
vt 0.869097233 0.047334861
vt 0.863243699 0.033203125
vt 0.853932023 0.021067971
vt 0.841796875 0.011756341
vt 0.827665150 0.005902833
vt 0.812500000 0.003906250
vt 0.797334850 0.005902833
vt 0.783203125 0.011756341
vt 0.771067977 0.021067971
vt 0.761756301 0.033203125
vt 0.755902767 0.047334861
vt 0.755902767 0.077665135
vt 0.761756301 0.091796875
vt 0.771067977 0.103932030
vt 0.783203125 0.113243662
vt 0.797334850 0.119097166
vt 0.812500000 0.121093750
vt 0.827665150 0.119097166
vt 0.841796875 0.113243662
vt 0.853932023 0.103932030
vt 0.863243699 0.091796875
vt 0.869097233 0.077665135
vt 0.841409180 0.073823719
vt 0.753906250 0.077665187
vt 0.841409180 0.077665187
vt 0.841409180 0.062500000
vt 0.841409180 0.088217173
vt 0.753906250 0.091796838
vt 0.841409180 0.091796838
vt 0.841409180 0.100858074
vt 0.753906250 0.103932016
vt 0.841409180 0.103932016
vt 0.841409180 0.094870813
vt 0.841409180 0.091796875
vt 0.841409180 0.103932038
vt 0.841409180 0.081244856
vt 0.841409180 0.077665180
vt 0.841409180 0.066341466
vt 0.841409180 0.051176287
vt 0.753906250 0.047334820
vt 0.841409180 0.047334820
vt 0.841409180 0.036782801
vt 0.841409180 0.033203125
vt 0.841409180 0.024141900
vt 0.841409180 0.021067962
vt 0.841409180 0.094870779
vt 0.841409180 0.081244852
vt 0.841409180 0.066341468
vt 0.841409180 0.051176284
vt 0.753906250 0.047334816
vt 0.841409180 0.047334816
vt 0.841409180 0.036782828
vt 0.753906250 0.033203162
vt 0.841409180 0.033203162
vt 0.841409180 0.024141923
vt 0.753906250 0.021067981
vt 0.841409180 0.021067981
vt 0.841409180 0.030129187
vt 0.841409180 0.043755144
vt 0.841409180 0.058658534
vt 0.841409180 0.073823713
vt 0.841409180 0.088217199
vt 0.841409180 0.100858100
vt 0.841409180 0.030129220
vt 0.841409180 0.043755151
vt 0.841409180 0.058658533
vt 0.869097233 0.047334816
vt 0.863243699 0.033203162
vt 0.853932023 0.021067981
vt 0.841796875 0.011756363
vt 0.827665150 0.005902797
vt 0.797334850 0.005902797
vt 0.783203125 0.011756363
vt 0.771067977 0.021067981
vt 0.761756301 0.033203162
vt 0.755902767 0.047334816
vt 0.755902767 0.077665187
vt 0.761756301 0.091796838
vt 0.771067977 0.103932016
vt 0.783203125 0.113243639
vt 0.797334850 0.119097203
vt 0.827665150 0.119097203
vt 0.841796875 0.113243639
vt 0.853932023 0.103932016
vt 0.863243699 0.091796838
vt 0.869097233 0.077665187
vt 0.753906250 0.077665210
vt 0.871093750 0.077665210
vt 0.753906250 0.103932060
vt 0.871093750 0.103932060
vt 0.871093750 0.047334820
vt 0.753906250 0.021067964
vt 0.871093750 0.021067964
vt 0.753906250 0.047334794
vt 0.871093750 0.047334794
vt 0.753906250 0.021067938
vt 0.871093750 0.021067938
vt 0.869097233 0.047334794
vt 0.853932023 0.021067938
vt 0.841796875 0.011756279
vt 0.827665150 0.005902732
vt 0.797334850 0.005902732
vt 0.783203125 0.011756279
vt 0.771067977 0.021067938
vt 0.755902767 0.047334794
vt 0.755902767 0.077665210
vt 0.771067977 0.103932060
vt 0.783203125 0.113243721
vt 0.797334850 0.119097270
vt 0.827665150 0.119097270
vt 0.841796875 0.113243721
vt 0.853932023 0.103932060
vt 0.869097233 0.077665210
vt 0.753906250 0.062500007
vt 0.753906250 0.084922887
vt 0.871093750 0.084922887
vt 0.871093750 0.062500007
vt 0.753906250 0.084922858
vt 0.871093750 0.084922858
vt 0.753906250 0.040077142
vt 0.871093750 0.040077142
vt 0.753906250 0.040077135
vt 0.871093750 0.040077135
vt 0.753906250 0.021067986
vt 0.871093750 0.021067986
vt 0.866633534 0.040077135
vt 0.853932023 0.021067986
vt 0.834922850 0.008366432
vt 0.790077150 0.008366432
vt 0.771067977 0.021067986
vt 0.758366466 0.040077135
vt 0.758366466 0.084922887
vt 0.790077150 0.116633572
vt 0.834922850 0.116633572
vt 0.866633534 0.084922887
vt 0.937500000 0.003906250
vt 0.996093750 0.003906250
vt 0.996093750 0.121093750
vt 0.937500000 0.121093750
vt 0.966796875 0.003906250
vt 0.908203125 0.003906250
vt 0.908203125 0.121093750
vt 0.966796875 0.121093750
vt 0.878906250 0.003906250
vt 0.878906250 0.121093750
vt 0.996093750 0.062500000
vt 0.878906250 0.062500000
vt 0.253906250 0.187500015
vt 0.253906250 0.209922880
vt 0.371093750 0.209922880
vt 0.371093750 0.187500015
vt 0.253906250 0.228932053
vt 0.371093750 0.228932053
vt 0.253906250 0.228932038
vt 0.253906250 0.209922850
vt 0.371093750 0.209922850
vt 0.371093750 0.228932038
vt 0.253906250 0.187500000
vt 0.371093750 0.187500000
vt 0.253906250 0.165077150
vt 0.371093750 0.165077150
vt 0.253906250 0.146067962
vt 0.371093750 0.146067962
vt 0.253906250 0.165077135
vt 0.371093750 0.165077135
vt 0.366633564 0.165077135
vt 0.353932023 0.146067962
vt 0.334922850 0.133366436
vt 0.312500000 0.128906250
vt 0.290077150 0.133366436
vt 0.271067977 0.146067962
vt 0.258366436 0.165077135
vt 0.258366436 0.209922880
vt 0.271067977 0.228932053
vt 0.290077150 0.241633594
vt 0.312500000 0.246093750
vt 0.334922850 0.241633594
vt 0.353932023 0.228932053
vt 0.366633564 0.209922880
vt 0.128906250 0.253906250
vt 0.128906250 0.284236610
vt 0.246093750 0.284236610
vt 0.246093750 0.253906250
vt 0.128906250 0.312499970
vt 0.246093750 0.312499970
vt 0.128906250 0.336770326
vt 0.246093750 0.336770326
vt 0.128906250 0.353932023
vt 0.128906250 0.341796875
vt 0.246093750 0.341796875
vt 0.246093750 0.353932023
vt 0.128906250 0.327665180
vt 0.246093750 0.327665180
vt 0.128906250 0.312500000
vt 0.246093750 0.312500000
vt 0.128906250 0.297334820
vt 0.246093750 0.297334820
vt 0.128906250 0.283203125
vt 0.246093750 0.283203125
vt 0.128906250 0.271067977
vt 0.246093750 0.271067977
vt 0.131058678 0.134314895
vt 0.140625000 0.136868998
vt 0.134964913 0.140624985
vt 0.243223876 0.132962734
vt 0.243223846 0.144531235
vt 0.246093750 0.141125798
vt 0.243223876 0.134314924
vt 0.235677093 0.134314924
vt 0.243223861 0.128906250
vt 0.230468795 0.134314924
vt 0.246093750 0.134314910
vt 0.230468765 0.128906250
vt 0.144531250 0.240685076
vt 0.131058678 0.240685105
vt 0.140279561 0.246093750
vt 0.243223861 0.240685090
vt 0.246093750 0.240685090
vt 0.243223861 0.246093750
vt 0.234375000 0.240685076
vt 0.243223861 0.240685105
vt 0.240035072 0.238281250
vt 0.230468750 0.240685090
vt 0.230468750 0.246093750
vt 0.128906250 0.230468750
vt 0.131776139 0.230468750
vt 0.243223846 0.230468750
vt 0.131776139 0.246093750
vt 0.246093765 0.230468765
vt 0.144531250 0.240685090
vt 0.144531250 0.246093750
vt 0.131776154 0.240685090
vt 0.144531265 0.134314910
vt 0.131776154 0.134314910
vt 0.131776139 0.144531235
vt 0.914062560 0.119335935
vt 0.909040153 0.119335935
vt 0.915736616 0.121093750
vt 0.955915093 0.119335927
vt 0.996093750 0.119335935
vt 0.955915093 0.121093750
vt 0.969726562 0.119335935
vt 0.955915093 0.119335935
vt 0.957170784 0.103515625
vt 0.960937500 0.119335935
vt 0.960937500 0.121093750
vt 0.914062500 0.119335935
vt 0.914062500 0.121093750
vt 0.919084787 0.119335927
vt 0.919084787 0.085937500
vt 0.912238337 0.078048401
vt 0.909040153 0.078048401
vt 0.910870203 0.081081120
vt 0.970508656 0.086135646
vt 0.996093750 0.086135651
vt 0.955915137 0.077888780
vt 0.964710048 0.078048401
vt 0.955915137 0.078048401
vt 0.970790674 0.078048402
vt 0.983324388 0.078048401
vt 0.960937478 0.078048401
vt 0.996093750 0.078048401
vt 0.938889328 0.078048396
vt 0.931088304 0.078048401
vt 0.949508462 0.078048401
vt 0.914062522 0.078048401
vt 0.932462216 0.078048397
vt 0.919084809 0.078048397
vt 0.919084847 0.039062500
vt 0.955915153 0.039062500
vt 0.131058678 0.134314910
vt 0.140625000 0.136868984
vt 0.234374985 0.240685076
vn 0.000000000 0.130526628 -0.991444804
vn 0.000000000 0.382683929 -0.923879327
vn 0.000000000 0.608760689 -0.793353908
vn 0.000000000 0.793353908 -0.608760689
vn 0.000000000 0.923879638 -0.382683179
vn 0.000000000 0.991444635 -0.130527910
vn 0.000000000 0.991444635 0.130527910
vn 0.000000000 0.923879638 0.382683179
vn 0.000000000 0.793353908 0.608760689
vn 0.000000000 0.608760689 0.793353908
vn 0.000000000 0.382683929 0.923879327
vn 0.000000000 0.130526628 0.991444804
vn 0.000000000 -0.130526434 0.991444830
vn 0.000000000 -0.382683929 0.923879327
vn 0.000000000 -0.608761414 0.793353352
vn 0.000000000 -0.793353183 0.608761634
vn 0.000000000 -0.923879107 0.382684460
vn 0.000000000 -0.991445024 0.130524959
vn 0.000000000 -0.991445024 -0.130524959
vn 0.000000000 -0.923879107 -0.382684460
vn 0.000000000 -0.793353183 -0.608761634
vn 0.000000000 -0.608761414 -0.793353352
vn 0.000000000 -0.382683929 -0.923879327
vn 0.000000000 -0.130526434 -0.991444830
vn 0.704062708 0.092691894 -0.704062438
vn 0.704063042 0.092690789 -0.704062249
vn 0.704062586 0.271758372 -0.656081750
vn 0.704062604 0.271758313 -0.656081755
vn 0.704063265 0.432303644 -0.563390165
vn 0.704062291 0.432306704 -0.563389035
vn 0.704063062 0.563390326 -0.432303766
vn 0.704063414 0.563389363 -0.432304447
vn 0.704062792 0.656081781 -0.271757761
vn 0.704063151 0.656081015 -0.271758683
vn 0.704063311 0.704061725 -0.092692725
vn 0.704062690 0.704062595 -0.092690835
vn 0.704062821 0.704062207 0.092692789
vn 0.704063442 0.704061856 0.092690738
vn 0.704063075 0.656081522 0.271757654
vn 0.704062717 0.656081412 0.271758848
vn 0.704063340 0.563390107 0.432303599
vn 0.704062987 0.563389698 0.432304705
vn 0.704062496 0.432304108 0.563390771
vn 0.704063470 0.432305992 0.563388107
vn 0.704062600 0.271758367 0.656081737
vn 0.704062582 0.271758321 0.656081775
vn 0.704062972 0.092691859 0.704062178
vn 0.704062637 0.092690842 0.704062647
vn 0.704062698 -0.092691757 0.704062465
vn 0.704063056 -0.092690576 0.704062263
vn 0.704062740 -0.271758314 0.656081608
vn 0.704062563 -0.271758906 0.656081553
vn 0.704063062 -0.432304281 0.563389930
vn 0.704062602 -0.432305727 0.563389396
vn 0.704063006 -0.563389854 0.432304471
vn 0.704063094 -0.563389615 0.432304641
vn 0.704063100 -0.656081122 0.271758554
vn 0.704063151 -0.656081015 0.271758683
vn 0.704063050 -0.704062257 0.092690663
vn 0.704063090 -0.704062202 0.092690783
vn 0.704063082 -0.704062227 -0.092690659
vn 0.704063042 -0.704062249 -0.092690789
vn 0.704063140 -0.656081086 -0.271758539
vn 0.704063090 -0.656081071 -0.271758706
vn 0.704063075 -0.563389800 -0.432304429
vn 0.704062987 -0.563389698 -0.432304705
vn 0.704062699 -0.432304500 -0.563390216
vn 0.704063159 -0.432305391 -0.563388957
vn 0.704062600 -0.271758367 -0.656081737
vn 0.704062778 -0.271758825 -0.656081356
vn 0.704062981 -0.092691720 -0.704062188
vn 0.704062623 -0.092690632 -0.704062689
vn 1.000000000 -0.000000000 0.000000000
vn 0.000000000 0.130528413 -0.991444569
vn 0.000000000 0.382681252 -0.923880436
vn 0.000000000 0.608758991 -0.793355211
vn 0.000000000 0.793355619 -0.608758459
vn 0.000000000 0.923879903 -0.382682537
vn 0.000000000 0.991444693 -0.130527472
vn 0.000000000 0.991444693 0.130527472
vn 0.000000000 0.923879903 0.382682537
vn 0.000000000 0.793355619 0.608758459
vn 0.000000000 0.608758991 0.793355211
vn 0.000000000 0.382681252 0.923880436
vn 0.000000000 0.130528413 0.991444569
vn 0.000000000 -0.130527472 0.991444693
vn 0.000000000 -0.382682537 0.923879903
vn 0.000000000 -0.608760747 0.793353864
vn 0.000000000 -0.793353864 0.608760747
vn 0.000000000 -0.923879903 0.382682537
vn 0.000000000 -0.991444222 0.130531045
vn 0.000000000 -0.991444222 -0.130531045
vn 0.000000000 -0.923879903 -0.382682537
vn 0.000000000 -0.793353864 -0.608760747
vn 0.000000000 -0.608760747 -0.793353864
vn 0.000000000 -0.382682537 -0.923879903
vn 0.000000000 -0.130527472 -0.991444693
vn -1.000000000 0.000000000 0.000000000
vn 0.000000000 0.130523300 -0.991445242
vn 0.000000000 0.382686362 -0.923878319
vn 0.000000000 0.608759307 -0.793354969
vn 0.000000000 0.793355380 -0.608758771
vn 0.000000000 0.923878855 -0.382685069
vn 0.000000000 0.991444769 -0.130526895
vn 0.000000000 0.991444769 0.130526895
vn 0.000000000 0.923878855 0.382685069
vn 0.000000000 0.793355380 0.608758771
vn 0.000000000 0.608759307 0.793354969
vn 0.000000000 0.382686362 0.923878319
vn 0.000000000 0.130523300 0.991445242
vn 0.000000000 -0.130522827 0.991445304
vn 0.000000000 -0.382686362 0.923878319
vn 0.000000000 -0.608761074 0.793353613
vn 0.000000000 -0.793353613 0.608761074
vn 0.000000000 -0.923877561 0.382688191
vn 0.000000000 -0.991445242 0.130523300
vn 0.000000000 -0.991445242 -0.130523300
vn 0.000000000 -0.923877561 -0.382688191
vn 0.000000000 -0.793353613 -0.608761074
vn 0.000000000 -0.608761074 -0.793353613
vn 0.000000000 -0.382686362 -0.923878319
vn 0.000000000 -0.130522827 -0.991445304
vn 0.000000000 0.130525778 -0.991444916
vn 0.000000000 0.382687028 -0.923878043
vn 0.000000000 0.608758809 -0.793355351
vn 0.000000000 0.793353380 -0.608761378
vn 0.000000000 0.923878043 -0.382687028
vn 0.000000000 0.991445514 -0.130521238
vn 0.000000000 0.991445514 0.130521238
vn 0.000000000 0.923878043 0.382687028
vn 0.000000000 0.793353380 0.608761378
vn 0.000000000 0.608758809 0.793355351
vn 0.000000000 0.382687028 0.923878043
vn 0.000000000 0.130525778 0.991444916
vn 0.000000000 -0.130524722 0.991445055
vn 0.000000000 -0.382687028 0.923878043
vn 0.000000000 -0.608758809 0.793355351
vn 0.000000000 -0.793355351 0.608758809
vn 0.000000000 -0.923878043 0.382687028
vn 0.000000000 -0.991445514 0.130521238
vn 0.000000000 -0.991445514 -0.130521238
vn 0.000000000 -0.923878043 -0.382687028
vn 0.000000000 -0.793355351 -0.608758809
vn 0.000000000 -0.608758809 -0.793355351
vn 0.000000000 -0.382687028 -0.923878043
vn 0.000000000 -0.130524722 -0.991445055
vn 0.000000000 0.195090756 -0.980785194
vn 0.000000000 0.555570956 -0.831469129
vn 0.000000000 0.831469525 -0.555570363
vn 0.000000000 0.980785194 -0.195090756
vn 0.000000000 0.980785194 0.195090756
vn 0.000000000 0.831469525 0.555570363
vn 0.000000000 0.555570956 0.831469129
vn 0.000000000 0.195090756 0.980785194
vn 0.000000000 -0.195090756 0.980785194
vn 0.000000000 -0.555569770 0.831469921
vn 0.000000000 -0.831468932 0.555571250
vn 0.000000000 -0.980785685 0.195088287
vn 0.000000000 -0.980785685 -0.195088287
vn 0.000000000 -0.831468932 -0.555571250
vn 0.000000000 -0.555569770 -0.831469921
vn 0.000000000 -0.195090756 -0.980785194
vn 0.000000000 0.500001398 0.866024596
vn 0.000000000 1.000000000 0.000000000
vn 0.000000000 0.500001398 -0.866024596
vn 0.000000000 -0.500001398 -0.866024596
vn 0.000000000 -1.000000000 0.000000000
vn 0.000000000 -0.500001398 0.866024596
vn 0.000000000 0.195090341 -0.980785277
vn 0.000000000 0.555570929 -0.831469147
vn 0.000000000 0.831469597 -0.555570255
vn 0.000000000 0.980785277 -0.195090341
vn 0.000000000 0.980785277 0.195090341
vn 0.000000000 0.831469597 0.555570255
vn 0.000000000 0.555570929 0.831469147
vn 0.000000000 0.195090341 0.980785277
vn 0.000000000 -0.195090341 0.980785277
vn 0.000000000 -0.555570255 0.831469597
vn 0.000000000 -0.831468924 0.555571264
vn 0.000000000 -0.980785556 0.195088938
vn 0.000000000 -0.980785556 -0.195088938
vn 0.000000000 -0.831468924 -0.555571264
vn 0.000000000 -0.555570255 -0.831469597
vn 0.000000000 -0.195090341 -0.980785277
vn 0.000000000 0.130527207 -0.991444728
vn 0.000000000 0.382683015 -0.923879706
vn 0.000000000 0.608761319 -0.793353425
vn 0.000000000 0.793353425 -0.608761319
vn 0.000000000 0.923878918 -0.382684916
vn 0.000000000 0.991444891 -0.130525968
vn 0.000000000 0.991444891 0.130525968
vn 0.000000000 0.923878918 0.382684916
vn 0.000000000 0.793353425 0.608761319
vn 0.000000000 0.608761319 0.793353425
vn 0.000000000 0.382683015 0.923879706
vn 0.000000000 0.130527207 0.991444728
vn 0.000000000 -0.129129100 0.991627791
vn 0.000000000 -0.382684042 0.923879280
vn 0.000000000 -0.608761331 0.793353416
vn 0.000000000 -0.793353416 0.608761331
vn 0.000000000 -0.923879280 0.382684042
vn 0.000000000 -0.991444794 0.130526701
vn 0.000000000 -0.991444794 -0.130526701
vn 0.000000000 -0.923879280 -0.382684042
vn 0.000000000 -0.793353416 -0.608761331
vn 0.000000000 -0.608761331 -0.793353416
vn 0.000000000 -0.382684042 -0.923879280
vn 0.000000000 -0.129129100 -0.991627791
vn 0.000000000 -0.991444555 -0.130528521
vn 0.000000000 -0.991444555 0.130528521
vn -0.577361834 -0.577344487 0.577344487
vn 0.577361834 -0.577344487 0.577344487
vn 0.577361834 -0.577344487 -0.577344487
vn -0.577361834 -0.577344487 -0.577344487
vn -0.577361834 0.577344487 0.577344487
vn 0.577361834 0.577344487 0.577344487
vn 0.577361834 0.577344487 -0.577344487
vn -0.577361834 0.577344487 -0.577344487
vn 0.000000000 -0.707106781 0.707106781
vn -0.707117404 -0.707096158 -0.000000000
vn -0.000000000 -0.707106781 -0.707106781
vn 0.707117404 -0.707096158 0.000000000
vn -0.707117404 0.707096158 0.000000000
vn -0.000000000 0.707106781 0.707106781
vn 0.707117404 0.707096158 0.000000000
vn 0.000000000 0.707106781 -0.707106781
vn -0.707117404 0.000000000 0.707096158
vn 0.707117404 -0.000000000 0.707096158
vn 0.707117404 0.000000000 -0.707096158
vn -0.707117404 0.000000000 -0.707096158
vn 0.000000000 0.000000000 1.000000000
vn 0.000000000 0.000000000 -1.000000000
vn 0.577350269 0.577350269 -0.577350269
vn -0.577350269 0.577350269 -0.577350269
vn -0.577350269 0.577350269 0.577350269
vn 0.577350269 0.577350269 0.577350269
vn 0.707106781 0.707106781 -0.000000000
vn -0.707106781 0.707106781 0.000000000
vn 0.707106781 0.000000000 -0.707106781
vn -0.707106781 0.000000000 -0.707106781
vn -0.707106781 0.000000000 0.707106781
vn 0.707106781 -0.000000000 0.707106781
vn -0.866028500 0.000000000 0.499994638
vn 0.866028500 0.000000000 0.499994638
vn 0.866028500 0.000000000 -0.499994638
vn -0.866028500 0.000000000 -0.499994638
usemtl mat_0
f 1/1/1 2/2/1 3/3/1
f 4/4/1 1/1/1 3/3/1 5/5/1
f 6/6/2 7/7/2 8/8/2
f 2/2/2 6/6/2 8/8/2 3/3/2
f 9/9/3 10/10/3 11/11/3
f 7/7/3 9/9/3 11/11/3 8/8/3
f 12/12/4 13/7/4 14/8/4
f 10/13/4 12/12/4 14/8/4 11/14/4
f 15/15/5 16/16/5 17/17/5
f 13/7/5 15/15/5 17/17/5 14/8/5
f 18/18/6 19/4/6 20/5/6
f 16/16/6 18/18/6 20/5/6 17/17/6
f 21/19/7 22/20/7 23/21/7
f 19/4/7 21/19/7 23/21/7 20/5/7
f 24/22/8 25/23/8 26/24/8
f 22/20/8 24/22/8 26/24/8 23/21/8
f 27/25/9 28/26/9 29/27/9
f 25/23/9 27/25/9 29/27/9 26/24/9
f 30/28/10 31/7/10 32/8/10
f 28/10/10 30/28/10 32/8/10 29/11/10
f 33/29/11 34/2/11 35/3/11
f 31/7/11 33/29/11 35/3/11 32/8/11
f 36/30/12 37/4/12 38/5/12
f 34/2/12 36/30/12 38/5/12 35/3/12
f 39/31/13 40/32/13 41/33/13
f 37/4/13 39/31/13 41/33/13 38/5/13
f 42/34/14 43/23/14 44/24/14
f 40/32/14 42/34/14 44/24/14 41/33/14
f 45/35/15 46/36/15 47/37/15
f 43/23/15 45/35/15 47/37/15 44/24/15
f 48/38/16 49/23/16 50/24/16
f 46/26/16 48/38/16 50/24/16 47/27/16
f 51/39/17 52/20/17 53/21/17
f 49/23/17 51/39/17 53/21/17 50/24/17
f 54/40/18 55/4/18 56/5/18
f 52/20/18 54/40/18 56/5/18 53/21/18
f 57/41/19 58/16/19 59/17/19
f 55/4/19 57/41/19 59/17/19 56/5/19
f 60/42/20 61/7/20 62/8/20
f 58/16/20 60/42/20 62/8/20 59/17/20
f 63/43/21 64/13/21 65/14/21
f 61/7/21 63/43/21 65/14/21 62/8/21
f 66/38/22 67/23/22 68/24/22
f 64/36/22 66/38/22 68/24/22 65/37/22
f 69/44/23 70/32/23 71/33/23
f 67/23/23 69/44/23 71/33/23 68/24/23
f 72/45/24 4/4/24 5/5/24
f 70/32/24 72/45/24 5/5/24 71/33/24
f 5/46/25 3/47/25 73/48/25
f 5/46/26 73/48/26 74/49/26
f 3/47/27 8/50/27 75/51/27
f 3/47/28 75/51/28 73/48/28
f 8/50/29 11/52/29 76/53/29
f 8/50/30 76/53/30 75/51/30
f 11/52/31 14/54/31 77/55/31
f 11/52/32 77/55/32 76/53/32
f 14/54/33 17/56/33 78/57/33
f 14/54/34 78/57/34 77/55/34
f 17/56/35 20/58/35 79/59/35
f 17/56/36 79/59/36 78/57/36
f 20/58/37 23/60/37 80/61/37
f 20/58/38 80/61/38 79/59/38
f 23/60/39 26/62/39 81/63/39
f 23/60/40 81/63/40 80/61/40
f 26/62/41 29/64/41 82/65/41
f 26/62/42 82/65/42 81/63/42
f 29/64/43 32/66/43 83/67/43
f 29/64/44 83/67/44 82/65/44
f 32/66/45 35/68/45 84/69/45
f 32/66/46 84/69/46 83/67/46
f 35/68/47 38/70/47 85/71/47
f 35/68/48 85/71/48 84/69/48
f 38/70/49 41/72/49 86/73/49
f 38/70/50 86/73/50 85/71/50
f 41/72/51 44/74/51 87/75/51
f 41/72/52 87/75/52 86/73/52
f 44/74/53 47/76/53 88/77/53
f 44/74/54 88/77/54 87/75/54
f 47/76/55 50/78/55 89/79/55
f 47/76/56 89/79/56 88/77/56
f 50/78/57 53/80/57 90/81/57
f 50/78/58 90/81/58 89/79/58
f 53/80/59 56/82/59 91/83/59
f 53/80/60 91/83/60 90/81/60
f 56/82/61 59/84/61 92/85/61
f 56/82/62 92/85/62 91/83/62
f 59/84/63 62/86/63 93/87/63
f 59/84/64 93/87/64 92/85/64
f 62/86/65 65/88/65 94/89/65
f 62/86/66 94/89/66 93/87/66
f 65/88/67 68/90/67 95/91/67
f 65/88/68 95/91/68 94/89/68
f 68/90/69 71/92/69 96/93/69
f 68/90/70 96/93/70 95/91/70
f 71/92/71 5/46/71 74/49/71
f 71/92/72 74/49/72 96/93/72
f 96/93/73 74/49/73 73/48/73
f 73/48/73 75/51/73 76/53/73
f 76/53/73 77/55/73 78/57/73
f 78/57/73 79/59/73 80/61/73
f 80/61/73 81/63/73 82/65/73
f 82/65/73 83/67/73 84/69/73
f 84/69/73 85/71/73 86/73/73
f 86/73/73 87/75/73 88/77/73
f 88/77/73 89/79/73 90/81/73
f 90/81/73 91/83/73 92/85/73
f 92/85/73 93/87/73 94/89/73
f 94/89/73 95/91/73 96/93/73
f 96/93/73 73/48/73 76/53/73
f 76/53/73 78/57/73 80/61/73
f 80/61/73 82/65/73 84/69/73
f 84/69/73 86/73/73 88/77/73
f 88/77/73 90/81/73 92/85/73
f 92/85/73 94/89/73 96/93/73
f 96/93/73 76/53/73 80/61/73
f 80/61/73 84/69/73 88/77/73
f 88/77/73 92/85/73 96/93/73
f 80/61/73 88/77/73 96/93/73
usemtl mat_7
f 97/94/74 98/95/74 99/96/74
f 97/94/74 99/96/74 100/97/74
f 98/95/75 101/98/75 102/99/75
f 98/95/75 102/99/75 99/96/75
f 101/98/76 103/100/76 104/101/76
f 101/98/76 104/101/76 102/99/76
f 103/102/77 105/98/77 106/99/77
f 103/102/77 106/99/77 104/103/77
f 105/98/78 107/104/78 108/105/78
f 105/98/78 108/105/78 106/99/78
f 107/104/79 109/94/79 110/97/79
f 107/104/79 110/97/79 108/105/79
f 109/94/80 111/106/80 112/107/80
f 109/94/80 112/107/80 110/97/80
f 111/106/81 113/108/81 114/109/81
f 111/106/81 114/109/81 112/107/81
f 113/108/82 115/110/82 116/111/82
f 113/108/82 116/111/82 114/109/82
f 115/100/83 117/98/83 118/99/83
f 115/100/83 118/99/83 116/101/83
f 117/98/84 119/95/84 120/96/84
f 117/98/84 120/96/84 118/99/84
f 119/95/85 121/94/85 122/97/85
f 119/95/85 122/97/85 120/96/85
f 121/94/86 123/112/86 124/113/86
f 121/94/86 124/113/86 122/97/86
f 123/112/87 125/108/87 126/109/87
f 123/112/87 126/109/87 124/113/87
f 125/108/88 127/114/88 128/115/88
f 125/108/88 128/115/88 126/109/88
f 127/110/89 129/108/89 130/109/89
f 127/110/89 130/109/89 128/111/89
f 129/108/90 131/106/90 132/107/90
f 129/108/90 132/107/90 130/109/90
f 131/106/91 133/94/91 134/97/91
f 131/106/91 134/97/91 132/107/91
f 133/94/92 135/104/92 136/105/92
f 133/94/92 136/105/92 134/97/92
f 135/104/93 137/98/93 138/99/93
f 135/104/93 138/99/93 136/105/93
f 137/98/94 139/102/94 140/103/94
f 137/98/94 140/103/94 138/99/94
f 139/114/95 141/108/95 142/109/95
f 139/114/95 142/109/95 140/115/95
f 141/108/96 143/112/96 144/113/96
f 141/108/96 144/113/96 142/109/96
f 143/112/97 97/94/97 100/97/97
f 143/112/97 100/97/97 144/113/97
f 97/97/98 143/116/98 141/117/98
f 141/117/98 139/118/98 137/119/98
f 137/119/98 135/120/98 133/121/98
f 133/121/98 131/122/98 129/123/98
f 129/123/98 127/124/98 125/125/98
f 125/125/98 123/126/98 121/94/98
f 121/94/98 119/127/98 117/128/98
f 117/128/98 115/129/98 113/130/98
f 113/130/98 111/131/98 109/132/98
f 109/132/98 107/133/98 105/134/98
f 105/134/98 103/135/98 101/136/98
f 101/136/98 98/137/98 97/97/98
f 97/97/98 141/117/98 137/119/98
f 137/119/98 133/121/98 129/123/98
f 129/123/98 125/125/98 121/94/98
f 121/94/98 117/128/98 113/130/98
f 113/130/98 109/132/98 105/134/98
f 105/134/98 101/136/98 97/97/98
f 97/97/98 137/119/98 129/123/98
f 129/123/98 121/94/98 113/130/98
f 113/130/98 105/134/98 97/97/98
f 129/123/98 113/130/98 97/97/98
f 144/116/73 100/97/73 99/137/73
f 99/137/73 102/136/73 104/135/73
f 104/135/73 106/134/73 108/133/73
f 108/133/73 110/132/73 112/131/73
f 112/131/73 114/130/73 116/129/73
f 116/129/73 118/128/73 120/127/73
f 120/127/73 122/94/73 124/126/73
f 124/126/73 126/125/73 128/124/73
f 128/124/73 130/123/73 132/122/73
f 132/122/73 134/121/73 136/120/73
f 136/120/73 138/119/73 140/118/73
f 140/118/73 142/117/73 144/116/73
f 144/116/73 99/137/73 104/135/73
f 104/135/73 108/133/73 112/131/73
f 112/131/73 116/129/73 120/127/73
f 120/127/73 124/126/73 128/124/73
f 128/124/73 132/122/73 136/120/73
f 136/120/73 140/118/73 144/116/73
f 144/116/73 104/135/73 112/131/73
f 112/131/73 120/127/73 128/124/73
f 128/124/73 136/120/73 144/116/73
f 112/131/73 128/124/73 144/116/73
f 145/138/99 146/94/99 147/139/99 148/140/99
f 149/141/99 146/94/99 145/138/99
f 150/142/100 147/139/100 151/143/100 152/144/100
f 148/140/100 147/139/100 150/142/100
f 153/145/101 151/143/101 154/146/101 155/147/101
f 152/144/101 151/143/101 153/145/101
f 156/148/102 154/102/102 157/98/102 158/149/102
f 155/150/102 154/102/102 156/148/102
f 159/151/103 157/98/103 160/104/103 161/152/103
f 158/149/103 157/98/103 159/151/103
f 162/153/104 160/104/104 163/94/104 164/141/104
f 161/152/104 160/104/104 162/153/104
f 165/154/105 163/94/105 166/155/105 167/156/105
f 164/141/105 163/94/105 165/154/105
f 168/157/106 166/155/106 169/108/106 170/158/106
f 167/156/106 166/155/106 168/157/106
f 171/159/107 169/108/107 172/110/107 173/160/107
f 170/158/107 169/108/107 171/159/107
f 174/161/108 172/146/108 175/143/108 176/144/108
f 173/147/108 172/146/108 174/161/108
f 177/162/109 175/143/109 178/139/109 179/140/109
f 176/144/109 175/143/109 177/162/109
f 180/163/110 178/139/110 181/94/110 182/141/110
f 179/140/110 178/139/110 180/163/110
f 183/164/111 181/94/111 184/165/111 185/166/111
f 182/141/111 181/94/111 183/164/111
f 186/167/112 184/165/112 187/168/112 188/169/112
f 185/166/112 184/165/112 186/167/112
f 189/170/113 187/168/113 190/171/113 191/172/113
f 188/169/113 187/168/113 189/170/113
f 192/173/114 190/110/114 193/108/114 194/158/114
f 191/160/114 190/110/114 192/173/114
f 195/174/115 193/108/115 196/155/115 197/156/115
f 194/158/115 193/108/115 195/174/115
f 198/175/116 196/155/116 199/94/116 200/141/116
f 197/156/116 196/155/116 198/175/116
f 201/176/117 199/94/117 202/104/117 203/152/117
f 200/141/117 199/94/117 201/176/117
f 204/177/118 202/104/118 205/98/118 206/149/118
f 203/152/118 202/104/118 204/177/118
f 207/178/119 205/98/119 208/102/119 209/150/119
f 206/149/119 205/98/119 207/178/119
f 210/179/120 208/171/120 211/168/120 212/169/120
f 209/172/120 208/171/120 210/179/120
f 213/180/121 211/168/121 214/165/121 215/166/121
f 212/169/121 211/168/121 213/180/121
f 216/181/122 214/165/122 146/94/122 149/141/122
f 215/166/122 214/165/122 216/181/122
f 146/97/98 214/182/98 211/183/98
f 211/183/98 208/184/98 205/185/98
f 205/185/98 202/186/98 199/121/98
f 199/121/98 196/187/98 193/188/98
f 193/188/98 190/189/98 187/190/98
f 187/190/98 184/191/98 181/94/98
f 181/94/98 178/192/98 175/193/98
f 175/193/98 172/194/98 169/195/98
f 169/195/98 166/196/98 163/132/98
f 163/132/98 160/197/98 157/198/98
f 157/198/98 154/199/98 151/200/98
f 151/200/98 147/201/98 146/97/98
f 146/97/98 211/183/98 205/185/98
f 205/185/98 199/121/98 193/188/98
f 193/188/98 187/190/98 181/94/98
f 181/94/98 175/193/98 169/195/98
f 169/195/98 163/132/98 157/198/98
f 157/198/98 151/200/98 146/97/98
f 146/97/98 205/185/98 193/188/98
f 193/188/98 181/94/98 169/195/98
f 169/195/98 157/198/98 146/97/98
f 193/188/98 169/195/98 146/97/98
f 217/94/123 218/202/123 219/203/123
f 217/94/123 219/203/123 220/97/123
f 218/202/124 221/98/124 222/99/124
f 218/202/124 222/99/124 219/203/124
f 221/98/125 223/204/125 224/205/125
f 221/98/125 224/205/125 222/99/125
f 223/102/126 225/98/126 226/99/126
f 223/102/126 226/99/126 224/103/126
f 225/98/127 227/104/127 228/105/127
f 225/98/127 228/105/127 226/99/127
f 227/104/128 229/94/128 230/97/128
f 227/104/128 230/97/128 228/105/128
f 229/94/129 231/155/129 232/206/129
f 229/94/129 232/206/129 230/97/129
f 231/155/130 233/108/130 234/109/130
f 231/155/130 234/109/130 232/206/130
f 233/108/131 235/207/131 236/208/131
f 233/108/131 236/208/131 234/109/131
f 235/204/132 237/98/132 238/99/132
f 235/204/132 238/99/132 236/205/132
f 237/98/133 239/202/133 240/203/133
f 237/98/133 240/203/133 238/99/133
f 239/202/134 241/94/134 242/97/134
f 239/202/134 242/97/134 240/203/134
f 241/94/135 243/209/135 244/210/135
f 241/94/135 244/210/135 242/97/135
f 243/209/136 245/108/136 246/109/136
f 243/209/136 246/109/136 244/210/136
f 245/108/137 247/211/137 248/212/137
f 245/108/137 248/212/137 246/109/137
f 247/207/138 249/108/138 250/109/138
f 247/207/138 250/109/138 248/208/138
f 249/108/139 251/155/139 252/206/139
f 249/108/139 252/206/139 250/109/139
f 251/155/140 253/94/140 254/97/140
f 251/155/140 254/97/140 252/206/140
f 253/94/141 255/104/141 256/105/141
f 253/94/141 256/105/141 254/97/141
f 255/104/142 257/98/142 258/99/142
f 255/104/142 258/99/142 256/105/142
f 257/98/143 259/102/143 260/103/143
f 257/98/143 260/103/143 258/99/143
f 259/211/144 261/108/144 262/109/144
f 259/211/144 262/109/144 260/212/144
f 261/108/145 263/209/145 264/210/145
f 261/108/145 264/210/145 262/109/145
f 263/209/146 217/94/146 220/97/146
f 263/209/146 220/97/146 264/210/146
f 217/97/98 263/213/98 261/117/98
f 261/117/98 259/214/98 257/215/98
f 257/215/98 255/216/98 253/121/98
f 253/121/98 251/217/98 249/218/98
f 249/218/98 247/219/98 245/125/98
f 245/125/98 243/220/98 241/94/98
f 241/94/98 239/221/98 237/128/98
f 237/128/98 235/222/98 233/223/98
f 233/223/98 231/224/98 229/132/98
f 229/132/98 227/225/98 225/226/98
f 225/226/98 223/227/98 221/136/98
f 221/136/98 218/228/98 217/97/98
f 217/97/98 261/117/98 257/215/98
f 257/215/98 253/121/98 249/218/98
f 249/218/98 245/125/98 241/94/98
f 241/94/98 237/128/98 233/223/98
f 233/223/98 229/132/98 225/226/98
f 225/226/98 221/136/98 217/97/98
f 217/97/98 257/215/98 249/218/98
f 249/218/98 241/94/98 233/223/98
f 233/223/98 225/226/98 217/97/98
f 249/218/98 233/223/98 217/97/98
f 264/213/73 220/97/73 219/228/73
f 219/228/73 222/136/73 224/227/73
f 224/227/73 226/226/73 228/225/73
f 228/225/73 230/132/73 232/224/73
f 232/224/73 234/223/73 236/222/73
f 236/222/73 238/128/73 240/221/73
f 240/221/73 242/94/73 244/220/73
f 244/220/73 246/125/73 248/219/73
f 248/219/73 250/218/73 252/217/73
f 252/217/73 254/121/73 256/216/73
f 256/216/73 258/215/73 260/214/73
f 260/214/73 262/117/73 264/213/73
f 264/213/73 219/228/73 224/227/73
f 224/227/73 228/225/73 232/224/73
f 232/224/73 236/222/73 240/221/73
f 240/221/73 244/220/73 248/219/73
f 248/219/73 252/217/73 256/216/73
f 256/216/73 260/214/73 264/213/73
f 264/213/73 224/227/73 232/224/73
f 232/224/73 240/221/73 248/219/73
f 248/219/73 256/216/73 264/213/73
f 232/224/73 248/219/73 264/213/73
f 265/229/147 266/230/147 267/231/147
f 265/229/147 267/231/147 268/232/147
f 266/230/148 269/100/148 270/101/148
f 266/230/148 270/101/148 267/231/148
f 269/102/149 271/233/149 272/234/149
f 269/102/149 272/234/149 270/103/149
f 271/233/150 273/94/150 274/97/150
f 271/233/150 274/97/150 272/234/150
f 273/94/151 275/235/151 276/236/151
f 273/94/151 276/236/151 274/97/151
f 275/235/152 277/207/152 278/208/152
f 275/235/152 278/208/152 276/236/152
f 277/100/153 279/230/153 280/231/153
f 277/100/153 280/231/153 278/101/153
f 279/230/154 281/229/154 282/232/154
f 279/230/154 282/232/154 280/231/154
f 281/229/155 283/237/155 284/238/155
f 281/229/155 284/238/155 282/232/155
f 283/237/156 285/239/156 286/240/156
f 283/237/156 286/240/156 284/238/156
f 285/207/157 287/235/157 288/236/157
f 285/207/157 288/236/157 286/208/157
f 287/235/158 289/94/158 290/97/158
f 287/235/158 290/97/158 288/236/158
f 289/94/159 291/233/159 292/234/159
f 289/94/159 292/234/159 290/97/159
f 291/233/160 293/102/160 294/103/160
f 291/233/160 294/103/160 292/234/160
f 293/239/161 295/237/161 296/238/161
f 293/239/161 296/238/161 294/240/161
f 295/237/162 265/229/162 268/232/162
f 295/237/162 268/232/162 296/238/162
f 265/232/98 295/241/98 293/242/98
f 293/242/98 291/243/98 289/121/98
f 289/121/98 287/244/98 285/245/98
f 285/245/98 283/246/98 281/229/98
f 281/229/98 279/247/98 277/129/98
f 277/129/98 275/248/98 273/132/98
f 273/132/98 271/249/98 269/135/98
f 269/135/98 266/250/98 265/232/98
f 265/232/98 293/242/98 289/121/98
f 289/121/98 285/245/98 281/229/98
f 281/229/98 277/129/98 273/132/98
f 273/132/98 269/135/98 265/232/98
f 265/232/98 289/121/98 281/229/98
f 281/229/98 273/132/98 265/232/98
f 296/241/73 268/232/73 267/250/73
f 267/250/73 270/135/73 272/249/73
f 272/249/73 274/132/73 276/248/73
f 276/248/73 278/129/73 280/247/73
f 280/247/73 282/229/73 284/246/73
f 284/246/73 286/245/73 288/244/73
f 288/244/73 290/121/73 292/243/73
f 292/243/73 294/242/73 296/241/73
f 296/241/73 267/250/73 272/249/73
f 272/249/73 276/248/73 280/247/73
f 280/247/73 284/246/73 288/244/73
f 288/244/73 292/243/73 296/241/73
f 296/241/73 272/249/73 280/247/73
f 280/247/73 288/244/73 296/241/73
usemtl mat_1
f 297/251/163 298/252/163 299/253/163
f 297/251/163 299/253/163 300/254/163
f 298/255/164 301/256/164 302/257/164
f 298/255/164 302/257/164 299/258/164
f 301/252/165 303/251/165 304/254/165
f 301/252/165 304/254/165 302/253/165
f 303/251/166 305/259/166 306/260/166
f 303/251/166 306/260/166 304/254/166
f 305/256/167 307/255/167 308/258/167
f 305/256/167 308/258/167 306/257/167
f 307/259/168 297/251/168 300/254/168
f 307/259/168 300/254/168 308/260/168
f 297/261/73 307/255/73 305/256/73
f 305/256/73 303/262/73 301/257/73
f 301/257/73 298/258/73 297/261/73
f 305/256/73 301/257/73 297/261/73
f 308/255/98 300/261/98 299/258/98
f 299/258/98 302/257/98 304/262/98
f 304/262/98 306/256/98 308/255/98
f 299/258/98 304/262/98 308/255/98
f 309/251/163 310/252/163 311/253/163
f 309/251/163 311/253/163 312/254/163
f 310/255/164 313/256/164 314/257/164
f 310/255/164 314/257/164 311/258/164
f 313/252/165 315/251/165 316/254/165
f 313/252/165 316/254/165 314/253/165
f 315/251/166 317/259/166 318/260/166
f 315/251/166 318/260/166 316/254/166
f 317/256/167 319/255/167 320/258/167
f 317/256/167 320/258/167 318/257/167
f 319/259/168 309/251/168 312/254/168
f 319/259/168 312/254/168 320/260/168
f 309/261/73 319/255/73 317/256/73
f 317/256/73 315/262/73 313/257/73
f 313/257/73 310/258/73 309/261/73
f 317/256/73 313/257/73 309/261/73
f 320/255/98 312/261/98 311/258/98
f 311/258/98 314/257/98 316/262/98
f 316/262/98 318/256/98 320/255/98
f 311/258/98 316/262/98 320/255/98
f 321/251/163 322/252/163 323/253/163
f 321/251/163 323/253/163 324/254/163
f 322/255/164 325/256/164 326/257/164
f 322/255/164 326/257/164 323/258/164
f 325/252/165 327/251/165 328/254/165
f 325/252/165 328/254/165 326/253/165
f 327/251/166 329/259/166 330/260/166
f 327/251/166 330/260/166 328/254/166
f 329/256/167 331/255/167 332/258/167
f 329/256/167 332/258/167 330/257/167
f 331/259/168 321/251/168 324/254/168
f 331/259/168 324/254/168 332/260/168
f 321/261/73 331/255/73 329/256/73
f 329/256/73 327/262/73 325/257/73
f 325/257/73 322/258/73 321/261/73
f 329/256/73 325/257/73 321/261/73
f 332/255/98 324/261/98 323/258/98
f 323/258/98 326/257/98 328/262/98
f 328/262/98 330/256/98 332/255/98
f 323/258/98 328/262/98 332/255/98
f 333/251/163 334/252/163 335/253/163
f 333/251/163 335/253/163 336/254/163
f 334/255/164 337/256/164 338/257/164
f 334/255/164 338/257/164 335/258/164
f 337/252/165 339/251/165 340/254/165
f 337/252/165 340/254/165 338/253/165
f 339/251/166 341/259/166 342/260/166
f 339/251/166 342/260/166 340/254/166
f 341/256/167 343/255/167 344/258/167
f 341/256/167 344/258/167 342/257/167
f 343/259/168 333/251/168 336/254/168
f 343/259/168 336/254/168 344/260/168
f 333/261/73 343/255/73 341/256/73
f 341/256/73 339/262/73 337/257/73
f 337/257/73 334/258/73 333/261/73
f 341/256/73 337/257/73 333/261/73
f 344/255/98 336/261/98 335/258/98
f 335/258/98 338/257/98 340/262/98
f 340/262/98 342/256/98 344/255/98
f 335/258/98 340/262/98 344/255/98
f 345/251/163 346/252/163 347/253/163
f 345/251/163 347/253/163 348/254/163
f 346/255/164 349/256/164 350/257/164
f 346/255/164 350/257/164 347/258/164
f 349/252/165 351/251/165 352/254/165
f 349/252/165 352/254/165 350/253/165
f 351/251/166 353/259/166 354/260/166
f 351/251/166 354/260/166 352/254/166
f 353/256/167 355/255/167 356/258/167
f 353/256/167 356/258/167 354/257/167
f 355/259/168 345/251/168 348/254/168
f 355/259/168 348/254/168 356/260/168
f 345/261/73 355/255/73 353/256/73
f 353/256/73 351/262/73 349/257/73
f 349/257/73 346/258/73 345/261/73
f 353/256/73 349/257/73 345/261/73
f 356/255/98 348/261/98 347/258/98
f 347/258/98 350/257/98 352/262/98
f 352/262/98 354/256/98 356/255/98
f 347/258/98 352/262/98 356/255/98
f 357/251/163 358/252/163 359/253/163
f 357/251/163 359/253/163 360/254/163
f 358/255/164 361/256/164 362/257/164
f 358/255/164 362/257/164 359/258/164
f 361/252/165 363/251/165 364/254/165
f 361/252/165 364/254/165 362/253/165
f 363/251/166 365/259/166 366/260/166
f 363/251/166 366/260/166 364/254/166
f 365/256/167 367/255/167 368/258/167
f 365/256/167 368/258/167 366/257/167
f 367/259/168 357/251/168 360/254/168
f 367/259/168 360/254/168 368/260/168
f 357/261/73 367/255/73 365/256/73
f 365/256/73 363/262/73 361/257/73
f 361/257/73 358/258/73 357/261/73
f 365/256/73 361/257/73 357/261/73
f 368/255/98 360/261/98 359/258/98
f 359/258/98 362/257/98 364/262/98
f 364/262/98 366/256/98 368/255/98
f 359/258/98 364/262/98 368/255/98
usemtl mat_7
f 369/229/147 370/230/147 371/231/147
f 369/229/147 371/231/147 372/232/147
f 370/230/148 373/100/148 374/101/148
f 370/230/148 374/101/148 371/231/148
f 373/102/149 375/233/149 376/234/149
f 373/102/149 376/234/149 374/103/149
f 375/233/150 377/94/150 378/97/150
f 375/233/150 378/97/150 376/234/150
f 377/94/151 379/235/151 380/236/151
f 377/94/151 380/236/151 378/97/151
f 379/235/152 381/207/152 382/208/152
f 379/235/152 382/208/152 380/236/152
f 381/100/153 383/230/153 384/231/153
f 381/100/153 384/231/153 382/101/153
f 383/230/154 385/229/154 386/232/154
f 383/230/154 386/232/154 384/231/154
f 385/229/155 387/237/155 388/238/155
f 385/229/155 388/238/155 386/232/155
f 387/237/156 389/239/156 390/240/156
f 387/237/156 390/240/156 388/238/156
f 389/207/157 391/235/157 392/236/157
f 389/207/157 392/236/157 390/208/157
f 391/235/158 393/94/158 394/97/158
f 391/235/158 394/97/158 392/236/158
f 393/94/159 395/233/159 396/234/159
f 393/94/159 396/234/159 394/97/159
f 395/233/160 397/102/160 398/103/160
f 395/233/160 398/103/160 396/234/160
f 397/239/161 399/237/161 400/238/161
f 397/239/161 400/238/161 398/240/161
f 399/237/162 369/229/162 372/232/162
f 399/237/162 372/232/162 400/238/162
f 369/232/98 399/241/98 397/242/98
f 397/242/98 395/243/98 393/121/98
f 393/121/98 391/244/98 389/245/98
f 389/245/98 387/246/98 385/229/98
f 385/229/98 383/247/98 381/129/98
f 381/129/98 379/248/98 377/132/98
f 377/132/98 375/249/98 373/135/98
f 373/135/98 370/250/98 369/232/98
f 369/232/98 397/242/98 393/121/98
f 393/121/98 389/245/98 385/229/98
f 385/229/98 381/129/98 377/132/98
f 377/132/98 373/135/98 369/232/98
f 369/232/98 393/121/98 385/229/98
f 385/229/98 377/132/98 369/232/98
f 400/241/73 372/232/73 371/250/73
f 371/250/73 374/135/73 376/249/73
f 376/249/73 378/132/73 380/248/73
f 380/248/73 382/129/73 384/247/73
f 384/247/73 386/229/73 388/246/73
f 388/246/73 390/245/73 392/244/73
f 392/244/73 394/121/73 396/243/73
f 396/243/73 398/242/73 400/241/73
f 400/241/73 371/250/73 376/249/73
f 376/249/73 380/248/73 384/247/73
f 384/247/73 388/246/73 392/244/73
f 392/244/73 396/243/73 400/241/73
f 400/241/73 376/249/73 384/247/73
f 384/247/73 392/244/73 400/241/73
usemtl mat_1
f 401/251/163 402/252/163 403/253/163
f 401/251/163 403/253/163 404/254/163
f 402/255/164 405/256/164 406/257/164
f 402/255/164 406/257/164 403/258/164
f 405/252/165 407/251/165 408/254/165
f 405/252/165 408/254/165 406/253/165
f 407/251/166 409/259/166 410/260/166
f 407/251/166 410/260/166 408/254/166
f 409/256/167 411/255/167 412/258/167
f 409/256/167 412/258/167 410/257/167
f 411/259/168 401/251/168 404/254/168
f 411/259/168 404/254/168 412/260/168
f 401/261/73 411/255/73 409/256/73
f 409/256/73 407/262/73 405/257/73
f 405/257/73 402/258/73 401/261/73
f 409/256/73 405/257/73 401/261/73
f 412/255/98 404/261/98 403/258/98
f 403/258/98 406/257/98 408/262/98
f 408/262/98 410/256/98 412/255/98
f 403/258/98 408/262/98 412/255/98
f 413/251/163 414/252/163 415/253/163
f 413/251/163 415/253/163 416/254/163
f 414/255/164 417/256/164 418/257/164
f 414/255/164 418/257/164 415/258/164
f 417/252/165 419/251/165 420/254/165
f 417/252/165 420/254/165 418/253/165
f 419/251/166 421/259/166 422/260/166
f 419/251/166 422/260/166 420/254/166
f 421/256/167 423/255/167 424/258/167
f 421/256/167 424/258/167 422/257/167
f 423/259/168 413/251/168 416/254/168
f 423/259/168 416/254/168 424/260/168
f 413/261/73 423/255/73 421/256/73
f 421/256/73 419/262/73 417/257/73
f 417/257/73 414/258/73 413/261/73
f 421/256/73 417/257/73 413/261/73
f 424/255/98 416/261/98 415/258/98
f 415/258/98 418/257/98 420/262/98
f 420/262/98 422/256/98 424/255/98
f 415/258/98 420/262/98 424/255/98
f 425/251/163 426/252/163 427/253/163
f 425/251/163 427/253/163 428/254/163
f 426/255/164 429/256/164 430/257/164
f 426/255/164 430/257/164 427/258/164
f 429/252/165 431/251/165 432/254/165
f 429/252/165 432/254/165 430/253/165
f 431/251/166 433/259/166 434/260/166
f 431/251/166 434/260/166 432/254/166
f 433/256/167 435/255/167 436/258/167
f 433/256/167 436/258/167 434/257/167
f 435/259/168 425/251/168 428/254/168
f 435/259/168 428/254/168 436/260/168
f 425/261/73 435/255/73 433/256/73
f 433/256/73 431/262/73 429/257/73
f 429/257/73 426/258/73 425/261/73
f 433/256/73 429/257/73 425/261/73
f 436/255/98 428/261/98 427/258/98
f 427/258/98 430/257/98 432/262/98
f 432/262/98 434/256/98 436/255/98
f 427/258/98 432/262/98 436/255/98
f 437/251/163 438/252/163 439/253/163
f 437/251/163 439/253/163 440/254/163
f 438/255/164 441/256/164 442/257/164
f 438/255/164 442/257/164 439/258/164
f 441/252/165 443/251/165 444/254/165
f 441/252/165 444/254/165 442/253/165
f 443/251/166 445/259/166 446/260/166
f 443/251/166 446/260/166 444/254/166
f 445/256/167 447/255/167 448/258/167
f 445/256/167 448/258/167 446/257/167
f 447/259/168 437/251/168 440/254/168
f 447/259/168 440/254/168 448/260/168
f 437/261/73 447/255/73 445/256/73
f 445/256/73 443/262/73 441/257/73
f 441/257/73 438/258/73 437/261/73
f 445/256/73 441/257/73 437/261/73
f 448/255/98 440/261/98 439/258/98
f 439/258/98 442/257/98 444/262/98
f 444/262/98 446/256/98 448/255/98
f 439/258/98 444/262/98 448/255/98
f 449/251/163 450/252/163 451/253/163
f 449/251/163 451/253/163 452/254/163
f 450/255/164 453/256/164 454/257/164
f 450/255/164 454/257/164 451/258/164
f 453/252/165 455/251/165 456/254/165
f 453/252/165 456/254/165 454/253/165
f 455/251/166 457/259/166 458/260/166
f 455/251/166 458/260/166 456/254/166
f 457/256/167 459/255/167 460/258/167
f 457/256/167 460/258/167 458/257/167
f 459/259/168 449/251/168 452/254/168
f 459/259/168 452/254/168 460/260/168
f 449/261/73 459/255/73 457/256/73
f 457/256/73 455/262/73 453/257/73
f 453/257/73 450/258/73 449/261/73
f 457/256/73 453/257/73 449/261/73
f 460/255/98 452/261/98 451/258/98
f 451/258/98 454/257/98 456/262/98
f 456/262/98 458/256/98 460/255/98
f 451/258/98 456/262/98 460/255/98
f 461/251/163 462/252/163 463/253/163
f 461/251/163 463/253/163 464/254/163
f 462/255/164 465/256/164 466/257/164
f 462/255/164 466/257/164 463/258/164
f 465/252/165 467/251/165 468/254/165
f 465/252/165 468/254/165 466/253/165
f 467/251/166 469/259/166 470/260/166
f 467/251/166 470/260/166 468/254/166
f 469/256/167 471/255/167 472/258/167
f 469/256/167 472/258/167 470/257/167
f 471/259/168 461/251/168 464/254/168
f 471/259/168 464/254/168 472/260/168
f 461/261/73 471/255/73 469/256/73
f 469/256/73 467/262/73 465/257/73
f 465/257/73 462/258/73 461/261/73
f 469/256/73 465/257/73 461/261/73
f 472/255/98 464/261/98 463/258/98
f 463/258/98 466/257/98 468/262/98
f 468/262/98 470/256/98 472/255/98
f 463/258/98 468/262/98 472/255/98
usemtl mat_6
f 473/263/169 474/264/169 475/265/169
f 473/263/169 475/265/169 476/266/169
f 474/264/170 477/267/170 478/268/170
f 474/264/170 478/268/170 475/265/170
f 477/269/171 479/270/171 480/271/171
f 477/269/171 480/271/171 478/272/171
f 479/270/172 481/273/172 482/274/172
f 479/270/172 482/274/172 480/271/172
f 481/273/173 483/275/173 484/276/173
f 481/273/173 484/276/173 482/274/173
f 483/275/174 485/277/174 486/278/174
f 483/275/174 486/278/174 484/276/174
f 485/267/175 487/264/175 488/265/175
f 485/267/175 488/265/175 486/268/175
f 487/264/176 489/263/176 490/266/176
f 487/264/176 490/266/176 488/265/176
f 489/263/177 491/279/177 492/280/177
f 489/263/177 492/280/177 490/266/177
f 491/279/178 493/277/178 494/278/178
f 491/279/178 494/278/178 492/280/178
f 493/277/179 495/275/179 496/276/179
f 493/277/179 496/276/179 494/278/179
f 495/275/180 497/273/180 498/274/180
f 495/275/180 498/274/180 496/276/180
f 497/273/181 499/270/181 500/271/181
f 497/273/181 500/271/181 498/274/181
f 499/270/182 501/269/182 502/272/182
f 499/270/182 502/272/182 500/271/182
f 501/277/183 503/279/183 504/280/183
f 501/277/183 504/280/183 502/278/183
f 503/279/184 473/263/184 476/266/184
f 503/279/184 476/266/184 504/280/184
f 473/266/98 503/281/98 501/282/98
f 501/282/98 499/283/98 497/284/98
f 497/284/98 495/285/98 493/286/98
f 493/286/98 491/287/98 489/263/98
f 489/263/98 487/288/98 485/289/98
f 485/289/98 483/290/98 481/291/98
f 481/291/98 479/292/98 477/293/98
f 477/293/98 474/294/98 473/266/98
f 473/266/98 501/282/98 497/284/98
f 497/284/98 493/286/98 489/263/98
f 489/263/98 485/289/98 481/291/98
f 481/291/98 477/293/98 473/266/98
f 473/266/98 497/284/98 489/263/98
f 489/263/98 481/291/98 473/266/98
f 504/281/73 476/266/73 475/294/73
f 475/294/73 478/293/73 480/292/73
f 480/292/73 482/291/73 484/290/73
f 484/290/73 486/289/73 488/288/73
f 488/288/73 490/263/73 492/287/73
f 492/287/73 494/286/73 496/285/73
f 496/285/73 498/284/73 500/283/73
f 500/283/73 502/282/73 504/281/73
f 504/281/73 475/294/73 480/292/73
f 480/292/73 484/290/73 488/288/73
f 488/288/73 492/287/73 496/285/73
f 496/285/73 500/283/73 504/281/73
f 504/281/73 480/292/73 488/288/73
f 488/288/73 496/285/73 504/281/73
usemtl mat_8
f 505/295/185 506/296/185 507/297/185
f 505/295/185 507/297/185 508/298/185
f 506/296/186 509/299/186 510/300/186
f 506/296/186 510/300/186 507/297/186
f 509/299/187 511/301/187 512/302/187
f 509/299/187 512/302/187 510/300/187
f 511/303/188 513/304/188 514/305/188
f 511/303/188 514/305/188 512/306/188
f 513/304/189 515/307/189 516/308/189
f 513/304/189 516/308/189 514/305/189
f 515/307/190 517/309/190 518/310/190
f 515/307/190 518/310/190 516/308/190
f 517/309/191 519/311/191 520/312/191
f 517/309/191 520/312/191 518/310/191
f 519/311/192 521/313/192 522/314/192
f 519/311/192 522/314/192 520/312/192
f 521/313/193 523/315/193 524/316/193
f 521/313/193 524/316/193 522/314/193
f 523/301/194 525/299/194 526/300/194
f 523/301/194 526/300/194 524/302/194
f 525/299/195 527/296/195 528/297/195
f 525/299/195 528/297/195 526/300/195
f 527/296/196 529/295/196 530/298/196
f 527/296/196 530/298/196 528/297/196
f 531/295/197 532/298/197 533/297/197
f 531/295/197 533/297/197 534/296/197
f 534/296/198 533/297/198 535/300/198
f 534/296/198 535/300/198 536/299/198
f 536/299/199 535/300/199 537/302/199
f 536/299/199 537/302/199 538/301/199
f 538/303/200 537/306/200 539/305/200
f 538/303/200 539/305/200 540/304/200
f 540/304/201 539/305/201 541/308/201
f 540/304/201 541/308/201 542/307/201
f 542/307/202 541/308/202 543/310/202
f 542/307/202 543/310/202 544/309/202
f 544/309/203 543/310/203 545/312/203
f 544/309/203 545/312/203 546/311/203
f 546/311/204 545/312/204 547/314/204
f 546/311/204 547/314/204 548/313/204
f 548/313/205 547/314/205 549/316/205
f 548/313/205 549/316/205 550/315/205
f 550/301/206 549/302/206 551/300/206
f 550/301/206 551/300/206 552/299/206
f 552/299/207 551/300/207 553/297/207
f 552/299/207 553/297/207 554/296/207
f 554/296/208 553/297/208 555/298/208
f 554/296/208 555/298/208 556/295/208
f 505/295/209 508/298/209 532/298/209
f 505/295/209 532/298/209 531/295/209
f 506/296/98 505/295/98 531/295/98
f 506/296/98 531/295/98 534/296/98
f 508/298/73 507/297/73 533/297/73
f 508/298/73 533/297/73 532/298/73
f 509/299/98 506/296/98 534/296/98
f 509/299/98 534/296/98 536/299/98
f 507/297/73 510/300/73 535/300/73
f 507/297/73 535/300/73 533/297/73
f 511/301/98 509/299/98 536/299/98
f 511/301/98 536/299/98 538/301/98
f 510/300/73 512/302/73 537/302/73
f 510/300/73 537/302/73 535/300/73
f 513/304/98 511/303/98 538/303/98
f 513/304/98 538/303/98 540/304/98
f 512/306/73 514/305/73 539/305/73
f 512/306/73 539/305/73 537/306/73
f 515/307/98 513/304/98 540/304/98
f 515/307/98 540/304/98 542/307/98
f 514/305/73 516/308/73 541/308/73
f 514/305/73 541/308/73 539/305/73
f 517/309/98 515/307/98 542/307/98
f 517/309/98 542/307/98 544/309/98
f 516/308/73 518/310/73 543/310/73
f 516/308/73 543/310/73 541/308/73
f 519/311/98 517/309/98 544/309/98
f 519/311/98 544/309/98 546/311/98
f 518/310/73 520/312/73 545/312/73
f 518/310/73 545/312/73 543/310/73
f 521/313/98 519/311/98 546/311/98
f 521/313/98 546/311/98 548/313/98
f 520/312/73 522/314/73 547/314/73
f 520/312/73 547/314/73 545/312/73
f 523/315/98 521/313/98 548/313/98
f 523/315/98 548/313/98 550/315/98
f 522/314/73 524/316/73 549/316/73
f 522/314/73 549/316/73 547/314/73
f 525/299/98 523/301/98 550/301/98
f 525/299/98 550/301/98 552/299/98
f 524/302/73 526/300/73 551/300/73
f 524/302/73 551/300/73 549/302/73
f 527/296/98 525/299/98 552/299/98
f 527/296/98 552/299/98 554/296/98
f 526/300/73 528/297/73 553/297/73
f 526/300/73 553/297/73 551/300/73
f 529/295/98 527/296/98 554/296/98
f 529/295/98 554/296/98 556/295/98
f 530/298/210 529/295/210 556/295/210
f 530/298/210 556/295/210 555/298/210
f 528/297/73 530/298/73 555/298/73
f 528/297/73 555/298/73 553/297/73
usemtl mat_9
f 557/317/211 558/318/211 559/319/211
f 560/320/212 561/321/212 562/322/212
f 563/323/213 564/324/213 565/325/213
f 566/326/214 567/327/214 568/328/214
f 569/329/215 570/330/215 571/331/215
f 572/332/216 573/333/216 574/334/216
f 575/335/217 576/336/217 577/337/217
f 578/338/218 579/339/218 580/333/218
f 559/319/219 561/321/219 560/320/219
f 559/319/219 560/320/219 557/317/219
f 558/318/220 566/340/220 568/341/220
f 558/318/220 568/341/220 559/319/220
f 565/342/221 568/341/221 567/343/221
f 565/342/221 567/343/221 563/334/221
f 561/321/222 565/342/222 564/344/222
f 561/321/222 564/344/222 562/322/222
f 571/331/223 579/339/223 578/338/223
f 571/331/223 578/338/223 569/329/223
f 570/330/224 572/332/224 574/334/224
f 570/330/224 574/334/224 571/331/224
f 573/345/225 575/335/225 577/337/225
f 573/345/225 577/337/225 574/346/225
f 576/336/226 580/347/226 579/341/226
f 576/336/226 579/341/226 577/337/226
f 557/317/227 570/330/227 569/329/227
f 557/317/227 569/329/227 558/318/227
f 562/322/228 573/333/228 572/332/228
f 562/322/228 572/332/228 560/320/228
f 563/323/229 576/336/229 575/335/229
f 563/323/229 575/335/229 564/324/229
f 566/326/230 578/338/230 580/333/230
f 566/326/230 580/333/230 567/327/230
f 557/317/231 560/320/231 572/332/231
f 557/317/231 572/332/231 570/330/231
f 559/319/167 568/341/167 565/342/167
f 559/319/167 565/342/167 561/321/167
f 566/326/98 558/318/98 569/329/98
f 566/326/98 569/329/98 578/338/98
f 562/348/73 564/324/73 575/335/73
f 562/348/73 575/335/73 573/345/73
f 563/323/232 567/349/232 580/347/232
f 563/323/232 580/347/232 576/336/232
f 571/350/164 574/321/164 577/337/164
f 571/350/164 577/337/164 579/341/164
usemtl mat_1
f 581/351/233 582/352/233 583/353/233
f 584/354/234 585/355/234 586/356/234
f 587/357/235 588/358/235 589/359/235
f 590/360/236 591/361/236 592/355/236
f 583/353/237 591/361/237 590/360/237
f 583/353/237 590/360/237 581/351/237
f 582/352/226 584/354/226 586/356/226
f 582/352/226 586/356/226 583/353/226
f 585/362/238 587/357/238 589/359/238
f 585/362/238 589/359/238 586/363/238
f 588/358/224 592/364/224 591/365/224
f 588/358/224 591/365/224 589/359/224
f 593/366/239 594/367/239 582/352/239 581/351/239
f 593/366/239 581/351/239 595/368/239
f 596/369/240 597/370/240 585/355/240 584/354/240
f 596/369/240 584/354/240 598/371/240
f 599/372/241 600/373/241 588/358/241 587/357/241
f 599/372/241 587/357/241 601/374/241
f 602/375/242 603/376/242 590/360/242 592/355/242
f 602/375/242 592/355/242 604/377/242
f 605/378/232 598/371/232 584/354/232
f 594/367/232 605/378/232 584/354/232 582/352/232
f 606/379/73 595/368/73 581/351/73
f 603/376/73 606/379/73 581/351/73 590/360/73
f 607/380/98 601/374/98 587/357/98
f 597/381/98 607/380/98 587/357/98 585/362/98
f 608/382/231 604/383/231 592/364/231
f 600/373/231 608/382/231 592/364/231 588/358/231
f 583/384/164 586/385/164 589/359/164
f 583/384/164 589/359/164 591/365/164
f 609/251/243 610/252/243 611/253/243
f 609/251/243 611/253/243 612/254/243
f 610/255/231 613/256/231 614/257/231
f 610/255/231 614/257/231 611/258/231
f 613/252/244 615/251/244 616/254/244
f 613/252/244 616/254/244 614/253/244
f 615/251/245 617/259/245 618/260/245
f 615/251/245 618/260/245 616/254/245
f 617/256/232 619/255/232 620/258/232
f 617/256/232 620/258/232 618/257/232
f 619/259/246 609/251/246 612/254/246
f 619/259/246 612/254/246 620/260/246
f 609/261/167 619/255/167 617/256/167
f 617/256/167 615/262/167 613/257/167
f 613/257/167 610/258/167 609/261/167
f 617/256/167 613/257/167 609/261/167
f 620/255/164 612/261/164 611/258/164
f 611/258/164 614/257/164 616/262/164
f 616/262/164 618/256/164 620/255/164
f 611/258/164 616/262/164 620/255/164
f 621/351/233 622/352/233 623/353/233
f 624/354/234 625/355/234 626/356/234
f 627/357/235 628/358/235 629/359/235
f 630/360/236 631/361/236 632/355/236
f 623/353/237 631/361/237 630/360/237
f 623/353/237 630/360/237 621/351/237
f 622/352/226 624/354/226 626/356/226
f 622/352/226 626/356/226 623/353/226
f 625/362/238 627/357/238 629/359/238
f 625/362/238 629/359/238 626/363/238
f 628/358/224 632/364/224 631/365/224
f 628/358/224 631/365/224 629/359/224
f 633/366/239 634/367/239 622/352/239 621/351/239
f 633/366/239 621/351/239 635/368/239
f 636/369/240 637/370/240 625/355/240 624/354/240
f 636/369/240 624/354/240 638/371/240
f 639/372/241 640/373/241 628/358/241 627/357/241
f 639/372/241 627/357/241 641/374/241
f 642/375/242 643/376/242 630/360/242 632/355/242
f 642/375/242 632/355/242 644/377/242
f 645/378/232 638/371/232 624/354/232
f 634/367/232 645/378/232 624/354/232 622/352/232
f 646/379/73 635/368/73 621/351/73
f 643/376/73 646/379/73 621/351/73 630/360/73
f 647/380/98 641/374/98 627/357/98
f 637/381/98 647/380/98 627/357/98 625/362/98
f 648/382/231 644/383/231 632/364/231
f 640/373/231 648/382/231 632/364/231 628/358/231
f 623/384/164 626/385/164 629/359/164
f 623/384/164 629/359/164 631/365/164
f 649/251/243 650/252/243 651/253/243
f 649/251/243 651/253/243 652/254/243
f 650/255/231 653/256/231 654/257/231
f 650/255/231 654/257/231 651/258/231
f 653/252/244 655/251/244 656/254/244
f 653/252/244 656/254/244 654/253/244
f 655/251/245 657/259/245 658/260/245
f 655/251/245 658/260/245 656/254/245
f 657/256/232 659/255/232 660/258/232
f 657/256/232 660/258/232 658/257/232
f 659/259/246 649/251/246 652/254/246
f 659/259/246 652/254/246 660/260/246
f 649/261/167 659/255/167 657/256/167
f 657/256/167 655/262/167 653/257/167
f 653/257/167 650/258/167 649/261/167
f 657/256/167 653/257/167 649/261/167
f 660/255/164 652/261/164 651/258/164
f 651/258/164 654/257/164 656/262/164
f 656/262/164 658/256/164 660/255/164
f 651/258/164 656/262/164 660/255/164
usemtl mat_9
f 661/386/211 662/387/211 663/319/211
f 664/320/212 665/321/212 666/322/212
f 667/323/213 668/324/213 669/325/213
f 670/326/214 671/327/214 672/328/214
f 673/329/215 674/330/215 675/331/215
f 676/332/216 677/333/216 678/334/216
f 679/388/217 680/336/217 681/337/217
f 682/338/218 683/339/218 684/333/218
f 663/319/219 665/321/219 664/320/219
f 663/319/219 664/320/219 661/386/219
f 662/387/220 670/340/220 672/341/220
f 662/387/220 672/341/220 663/319/220
f 669/342/221 672/341/221 671/343/221
f 669/342/221 671/343/221 667/334/221
f 665/321/222 669/342/222 668/344/222
f 665/321/222 668/344/222 666/322/222
f 675/331/223 683/339/223 682/338/223
f 675/331/223 682/338/223 673/329/223
f 674/330/224 676/332/224 678/334/224
f 674/330/224 678/334/224 675/331/224
f 677/345/225 679/388/225 681/337/225
f 677/345/225 681/337/225 678/346/225
f 680/336/226 684/347/226 683/341/226
f 680/336/226 683/341/226 681/337/226
f 661/386/227 674/330/227 673/329/227
f 661/386/227 673/329/227 662/387/227
f 666/322/228 677/333/228 676/332/228
f 666/322/228 676/332/228 664/320/228
f 667/323/229 680/336/229 679/388/229
f 667/323/229 679/388/229 668/324/229
f 670/326/230 682/338/230 684/333/230
f 670/326/230 684/333/230 671/327/230
f 661/386/231 664/320/231 676/332/231
f 661/386/231 676/332/231 674/330/231
f 663/319/167 672/341/167 669/342/167
f 663/319/167 669/342/167 665/321/167
f 670/326/98 662/387/98 673/329/98
f 670/326/98 673/329/98 682/338/98
f 666/348/73 668/324/73 679/388/73
f 666/348/73 679/388/73 677/345/73
f 667/323/232 671/349/232 684/347/232
f 667/323/232 684/347/232 680/336/232
f 675/350/164 678/321/164 681/337/164
f 675/350/164 681/337/164 683/341/164
usemtl mat_1
f 685/351/233 686/352/233 687/353/233
f 688/354/234 689/355/234 690/356/234
f 691/357/235 692/358/235 693/359/235
f 694/360/236 695/361/236 696/355/236
f 687/353/237 695/361/237 694/360/237
f 687/353/237 694/360/237 685/351/237
f 686/352/226 688/354/226 690/356/226
f 686/352/226 690/356/226 687/353/226
f 689/362/238 691/357/238 693/359/238
f 689/362/238 693/359/238 690/363/238
f 692/358/224 696/364/224 695/365/224
f 692/358/224 695/365/224 693/359/224
f 697/366/239 698/367/239 686/352/239 685/351/239
f 697/366/239 685/351/239 699/368/239
f 700/369/240 701/370/240 689/355/240 688/354/240
f 700/369/240 688/354/240 702/371/240
f 703/372/241 704/373/241 692/358/241 691/357/241
f 703/372/241 691/357/241 705/374/241
f 706/375/242 707/376/242 694/360/242 696/355/242
f 706/375/242 696/355/242 708/377/242
f 709/378/232 702/371/232 688/354/232
f 698/367/232 709/378/232 688/354/232 686/352/232
f 710/379/73 699/368/73 685/351/73
f 707/376/73 710/379/73 685/351/73 694/360/73
f 711/380/98 705/374/98 691/357/98
f 701/381/98 711/380/98 691/357/98 689/362/98
f 712/382/231 708/383/231 696/364/231
f 704/373/231 712/382/231 696/364/231 692/358/231
f 687/384/164 690/385/164 693/359/164
f 687/384/164 693/359/164 695/365/164
f 713/251/243 714/252/243 715/253/243
f 713/251/243 715/253/243 716/254/243
f 714/255/231 717/256/231 718/257/231
f 714/255/231 718/257/231 715/258/231
f 717/252/244 719/251/244 720/254/244
f 717/252/244 720/254/244 718/253/244
f 719/251/245 721/259/245 722/260/245
f 719/251/245 722/260/245 720/254/245
f 721/256/232 723/255/232 724/258/232
f 721/256/232 724/258/232 722/257/232
f 723/259/246 713/251/246 716/254/246
f 723/259/246 716/254/246 724/260/246
f 713/261/167 723/255/167 721/256/167
f 721/256/167 719/262/167 717/257/167
f 717/257/167 714/258/167 713/261/167
f 721/256/167 717/257/167 713/261/167
f 724/255/164 716/261/164 715/258/164
f 715/258/164 718/257/164 720/262/164
f 720/262/164 722/256/164 724/255/164
f 715/258/164 720/262/164 724/255/164
f 725/351/233 726/352/233 727/353/233
f 728/354/234 729/355/234 730/356/234
f 731/357/235 732/358/235 733/359/235
f 734/360/236 735/361/236 736/355/236
f 727/353/237 735/361/237 734/360/237
f 727/353/237 734/360/237 725/351/237
f 726/352/226 728/354/226 730/356/226
f 726/352/226 730/356/226 727/353/226
f 729/362/238 731/357/238 733/359/238
f 729/362/238 733/359/238 730/363/238
f 732/358/224 736/364/224 735/365/224
f 732/358/224 735/365/224 733/359/224
f 737/366/239 738/367/239 726/352/239 725/351/239
f 737/366/239 725/351/239 739/368/239
f 740/369/240 741/370/240 729/355/240 728/354/240
f 740/369/240 728/354/240 742/371/240
f 743/372/241 744/373/241 732/358/241 731/357/241
f 743/372/241 731/357/241 745/374/241
f 746/375/242 747/376/242 734/360/242 736/355/242
f 746/375/242 736/355/242 748/377/242
f 749/378/232 742/371/232 728/354/232
f 738/367/232 749/378/232 728/354/232 726/352/232
f 750/379/73 739/368/73 725/351/73
f 747/376/73 750/379/73 725/351/73 734/360/73
f 751/380/98 745/374/98 731/357/98
f 741/381/98 751/380/98 731/357/98 729/362/98
f 752/382/231 748/383/231 736/364/231
f 744/373/231 752/382/231 736/364/231 732/358/231
f 727/384/164 730/385/164 733/359/164
f 727/384/164 733/359/164 735/365/164
f 753/251/243 754/252/243 755/253/243
f 753/251/243 755/253/243 756/254/243
f 754/255/231 757/256/231 758/257/231
f 754/255/231 758/257/231 755/258/231
f 757/252/244 759/251/244 760/254/244
f 757/252/244 760/254/244 758/253/244
f 759/251/245 761/259/245 762/260/245
f 759/251/245 762/260/245 760/254/245
f 761/256/232 763/255/232 764/258/232
f 761/256/232 764/258/232 762/257/232
f 763/259/246 753/251/246 756/254/246
f 763/259/246 756/254/246 764/260/246
f 753/261/167 763/255/167 761/256/167
f 761/256/167 759/262/167 757/257/167
f 757/257/167 754/258/167 753/261/167
f 761/256/167 757/257/167 753/261/167
f 764/255/164 756/261/164 755/258/164
f 755/258/164 758/257/164 760/262/164
f 760/262/164 762/256/164 764/255/164
f 755/258/164 760/262/164 764/255/164
