# Authored in Blender; exported by tools-export-modern.py
mtllib materials.mtl
s off
v 0.217026729 0.979833403 1.000000000
v 0.208166756 1.000000000 1.000000000
v 0.215693342 1.000000000 0.979125066
v 0.251750231 0.954922974 0.934048057
v 0.251750231 0.900797547 1.000000000
v 0.251750231 1.000000000 0.897054270
v 0.297670371 0.863947154 1.000000000
v 0.410450220 0.884973884 0.864098907
v 0.410450220 0.773442660 1.000000000
v 0.359604580 1.000000000 0.810502364
v 0.410450220 1.000000000 0.769699313
v 1.000000000 0.872846986 0.878875564
v 0.412273443 0.773442660 1.000000000
v 1.000000000 0.884973884 0.864098907
v 1.000000000 0.773442660 1.000000000
v 0.968586666 1.000000000 0.769699313
v 1.000000000 1.000000000 0.769699313
v 0.331143126 0.727669323 1.000000000
v 0.205462456 0.727669323 1.000000000
v 0.205462456 0.739485979 0.977892578
v 0.350937605 0.739485979 0.977892578
v 0.350937605 0.727669323 1.000000000
v 0.205462456 0.856358230 0.835483372
v 0.350937605 0.856358230 0.835483372
v 0.205462456 0.998767436 0.718611062
v 0.350937605 0.998767436 0.718611062
v 0.206566066 1.000000000 0.717952243
v 0.205462456 1.000000000 0.717952243
v 0.350937605 1.000000000 0.717952243
v 0.205462456 1.000000000 0.739504997
v 0.205462456 0.746431751 1.000000000
v 0.205462456 1.000000000 0.775984999
v 0.205462456 0.788213210 1.000000000
v 0.205462456 1.000000000 1.000000000
v 0.350937605 0.730328783 1.000000000
v 0.350937605 1.000000000 0.718100517
v 0.350937605 0.735088538 1.000000000
v 0.350937605 1.000000000 0.803822679
v 0.350937605 1.000000000 1.000000000
v 0.164655687 0.842068853 1.000000000
v 0.200172663 0.842068853 1.000000000
v 0.200172663 0.840430975 0.999054372
v 0.163142681 0.840430975 0.999054372
v 0.163142681 0.842068853 1.000000000
v 0.198659656 0.838793097 1.000000000
v 0.200172663 0.838793097 1.000000000
v 0.163142681 0.838793097 1.000000000
v 0.163142681 0.840976933 1.000000000
v 0.163142681 0.839885017 1.000000000
v 0.476575017 0.386170030 0.628948689
v 0.492444992 0.386170030 0.644818664
v 0.476575017 0.370300025 0.644818664
v 0.175045013 0.386170030 0.644818664
v 0.190914989 0.386170030 0.628948689
v 0.190914989 0.370300025 0.644818664
v 0.175472347 0.385742695 1.000000000
v 0.175045013 0.386170030 1.000000000
v 0.190914989 0.370300025 1.000000000
v 0.477002350 0.370727359 1.000000000
v 0.476575017 0.370300025 1.000000000
v 0.492444992 0.386170030 1.000000000
v 0.491132228 1.000000000 0.643505900
v 0.476575017 1.000000000 0.628948689
v 0.492444992 1.000000000 0.644818664
v 0.189602225 1.000000000 0.630261452
v 0.175045013 1.000000000 0.644818664
v 0.190914989 1.000000000 0.628948689
v 0.198607004 0.370300025 1.000000000
v 0.175045013 1.000000000 1.000000000
v 0.175045013 1.000000000 0.979635071
v 0.492444992 1.000000000 0.675012280
v 0.492444992 0.404189285 1.000000000
v 0.492444992 1.000000000 1.000000000
v 0.214544776 1.000000000 0.628948689
v 0.602212548 0.346495003 0.542986155
v 0.618082523 0.346495003 0.558856130
v 0.602212548 0.330624998 0.558856130
v 0.049407482 0.346495003 0.558856130
v 0.065277457 0.346495003 0.542986155
v 0.065277457 0.330624998 0.558856130
v 0.618082523 0.447005004 0.558856130
v 0.602212548 0.447005004 0.542986155
v 0.602212548 0.462875009 0.558856130
v 0.049407482 0.447005004 0.558856130
v 0.065277457 0.462875009 0.558856130
v 0.065277457 0.447005004 0.542986155
v 0.052238745 0.343663735 1.000000000
v 0.049407482 0.346495003 1.000000000
v 0.065277457 0.330624998 1.000000000
v 0.605043811 0.333456266 1.000000000
v 0.602212548 0.330624998 1.000000000
v 0.618082523 0.346495003 1.000000000
v 0.062446195 0.460043741 1.000000000
v 0.065277457 0.462875009 1.000000000
v 0.049407482 0.447005004 1.000000000
v 0.615251261 0.449836272 1.000000000
v 0.618082523 0.447005004 1.000000000
v 0.602212548 0.462875009 1.000000000
v 0.161068678 0.330624998 1.000000000
v 0.049407482 0.429073645 1.000000000
v 0.618082523 0.364426361 1.000000000
v 0.161068678 0.462875009 1.000000000
v 0.122144938 0.470809966 0.827323675
v 0.141982436 0.470809966 0.861683249
v 0.141982436 0.515774965 0.861683249
v 0.122144938 0.515774965 0.827323675
v 0.181657434 0.470809966 0.861683249
v 0.181657434 0.515774965 0.861683249
v 0.201494932 0.470809966 0.827323675
v 0.201494932 0.515774965 0.827323675
v 0.181657434 0.470809966 0.792964101
v 0.181657434 0.515774965 0.792964101
v 0.141982436 0.470809966 0.792964101
v 0.141982436 0.515774965 0.792964101
v 0.465995073 0.470809966 0.827323675
v 0.485832572 0.470809966 0.861683249
v 0.485832572 0.515774965 0.861683249
v 0.465995073 0.515774965 0.827323675
v 0.525507569 0.470809966 0.861683249
v 0.525507569 0.515774965 0.861683249
v 0.545345068 0.470809966 0.827323675
v 0.545345068 0.515774965 0.827323675
v 0.525507569 0.470809966 0.792964101
v 0.525507569 0.515774965 0.792964101
v 0.485832572 0.470809966 0.792964101
v 0.485832572 0.515774965 0.792964101
v 0.936805010 0.386170030 0.644818664
v 0.952674985 0.386170030 0.628948689
v 0.952674985 0.370300025 0.644818664
v 0.937232343 0.385742695 1.000000000
v 0.936805010 0.386170030 1.000000000
v 0.952674985 0.370300025 1.000000000
v 1.000000000 0.383540860 0.631577853
v 1.000000000 0.370300025 0.644818664
v 1.000000000 0.386170030 0.628948689
v 0.951362221 1.000000000 0.630261452
v 0.936805010 1.000000000 0.644818664
v 0.952674985 1.000000000 0.628948689
v 1.000000000 0.370300025 0.949357811
v 0.960366998 0.370300025 1.000000000
v 1.000000000 0.370300025 1.000000000
v 0.936805010 1.000000000 1.000000000
v 0.936805010 1.000000000 0.979635071
v 0.976304762 1.000000000 0.628948689
v 1.000000000 0.944491701 0.628948689
v 1.000000000 1.000000000 0.628948689
v 0.811167479 0.346495003 0.558856130
v 0.827037454 0.346495003 0.542986155
v 0.827037454 0.330624998 0.558856130
v 0.811167479 0.447005004 0.558856130
v 0.827037454 0.462875009 0.558856130
v 0.827037454 0.447005004 0.542986155
v 0.813998741 0.343663735 1.000000000
v 0.811167479 0.346495003 1.000000000
v 0.827037454 0.330624998 1.000000000
v 1.000000000 0.341382807 0.548098340
v 1.000000000 0.330624998 0.558856130
v 1.000000000 0.346495003 0.542986155
v 0.824206191 0.460043741 1.000000000
v 0.827037454 0.462875009 1.000000000
v 0.811167479 0.447005004 1.000000000
v 1.000000000 0.457762813 0.553743944
v 1.000000000 0.447005004 0.542986155
v 1.000000000 0.462875009 0.558856130
v 1.000000000 0.330624998 0.922828636
v 0.922828653 0.330624998 1.000000000
v 1.000000000 0.330624998 1.000000000
v 0.811167479 0.429073645 1.000000000
v 1.000000000 0.414627776 0.542986155
v 1.000000000 0.462875009 1.000000000
v 1.000000000 0.462875009 0.922828636
v 0.922828653 0.462875009 1.000000000
v 0.883905053 0.470809966 0.827323675
v 0.903742552 0.470809966 0.861683249
v 0.903742552 0.515774965 0.861683249
v 0.883905053 0.515774965 0.827323675
v 0.943417549 0.470809966 0.861683249
v 0.943417549 0.515774965 0.861683249
v 0.963255048 0.470809966 0.827323675
v 0.963255048 0.515774965 0.827323675
v 0.943417549 0.470809966 0.792964101
v 0.943417549 0.515774965 0.792964101
v 0.903742552 0.470809966 0.792964101
v 0.903742552 0.515774965 0.792964101
v 1.000000000 0.004166153 0.509646216
v 0.000000000 0.001653592 0.507133648
v 0.000000000 0.000000000 0.505480051
v 1.000000000 0.000000000 0.505480051
v 1.000000000 0.015869990 0.521350086
v 0.000000000 0.015869990 0.521350086
v 0.000000000 0.014216398 0.179153676
v 1.000000000 0.011703837 0.181666237
v 1.000000000 0.000000000 0.193370074
v 0.000000000 0.000000000 0.193370074
v 0.000000000 0.015869990 0.177500084
v 1.000000000 0.015869990 0.177500084
v 1.000000000 0.332146139 0.517183921
v 0.000000000 0.329633575 0.519696489
v 0.000000000 0.327979982 0.521350086
v 1.000000000 0.327979982 0.521350086
v 1.000000000 0.343849987 0.505480051
v 0.000000000 0.343849987 0.505480051
v 0.000000000 0.342196393 0.191716482
v 1.000000000 0.339683830 0.189203921
v 1.000000000 0.327979982 0.177500084
v 0.000000000 0.327979982 0.177500084
v 0.000000000 0.343849987 0.193370074
v 1.000000000 0.343849987 0.193370074
v 1.000000000 0.097804386 0.521350086
v 0.000000000 0.048390649 0.521350086
v 1.000000000 0.000000000 0.423545659
v 0.000000000 0.000000000 0.472959393
v 0.000000000 0.295459323 0.177500084
v 1.000000000 0.246045586 0.177500084
v 1.000000000 0.343849987 0.423545659
v 0.000000000 0.343849987 0.472959393
v 0.000000000 0.235623275 0.257954212
v 1.000000000 0.233684456 0.259893043
v 1.000000000 0.224824980 0.268752575
v 0.000000000 0.224824980 0.268752575
v 0.000000000 0.236727476 0.256850004
v 1.000000000 0.236727476 0.256850004
v 0.000000000 0.289845771 0.267648367
v 1.000000000 0.287906955 0.265709536
v 1.000000000 0.279047489 0.256850004
v 0.000000000 0.279047489 0.256850004
v 0.000000000 0.290949970 0.268752575
v 1.000000000 0.290949970 0.268752575
v 1.000000000 0.224824980 1.000000000
v 0.000000000 0.224824980 1.000000000
v 0.000000000 0.275121440 0.256850004
v 1.000000000 0.268227857 0.256850004
v 0.000000000 0.290949970 1.000000000
v 1.000000000 0.290949970 1.000000000
vt 0.220077426 0.027248523
vt 0.220077426 0.028562475
vt 0.221437530 0.028562476
vt 0.224374518 0.025625488
vt 0.220077424 0.022098955
vt 0.226784841 0.028562475
vt 0.146448216 0.095077420
vt 0.141927093 0.095077420
vt 0.141927093 0.099374510
vt 0.157552093 0.103932038
vt 0.157552093 0.095077424
vt 0.152546024 0.028562476
vt 0.141927093 0.025625488
vt 0.141927093 0.028562475
vt 0.157552093 0.028562477
vt 0.157552093 0.021067966
vt 0.215596930 0.102969267
vt 0.157731601 0.095077424
vt 0.215596930 0.103932038
vt 0.215596930 0.095077424
vt 0.212504092 0.028562477
vt 0.215596930 0.028562477
vt 0.215596930 0.021067966
vt 0.230148309 0.093674565
vt 0.128906250 0.093674565
vt 0.128906250 0.095052943
vt 0.246093750 0.095052943
vt 0.246093750 0.093674565
vt 0.128906250 0.103932038
vt 0.246093750 0.103932038
vt 0.128906250 0.021067964
vt 0.128906250 0.029947054
vt 0.246093750 0.029947054
vt 0.246093750 0.021067964
vt 0.129795263 0.030023903
vt 0.128906250 0.030023903
vt 0.246093750 0.030023903
vt 0.234916205 0.030023903
vt 0.236259991 0.030023903
vt 0.236218914 0.029947054
vt 0.228932038 0.021067964
vt 0.218674564 0.014214142
vt 0.220052943 0.013781079
vt 0.218674564 0.013044321
vt 0.232641709 0.030023902
vt 0.218674568 0.016819180
vt 0.218674567 0.030023900
vt 0.218674564 0.013210136
vt 0.236250746 0.030023903
vt 0.218674564 0.013506903
vt 0.230906053 0.030023902
vt 0.218674570 0.030023902
vt 0.939894079 0.116305592
vt 0.939894079 0.003906250
vt 0.937500000 0.003906250
vt 0.937500000 0.121093750
vt 0.939894079 0.121093750
vt 0.935105921 0.008694408
vt 0.935105921 0.003906250
vt 0.935105921 0.121093750
vt 0.880103290 0.060105921
vt 0.878906250 0.062500000
vt 0.880103290 0.064894079
vt 0.880103288 0.063298025
vt 0.880103288 0.061701975
vt 0.240234375 0.006559552
vt 0.242968768 0.006559550
vt 0.240234375 0.003906250
vt 0.241406262 0.006559552
vt 0.246093750 0.006559562
vt 0.241406262 0.003906250
vt 0.132484991 0.010012267
vt 0.132327215 0.010012268
vt 0.128906250 0.116406262
vt 0.134765625 0.116406254
vt 0.134480542 0.010356514
vt 0.240234405 0.116406254
vt 0.134765625 0.121093750
vt 0.240234375 0.121093750
vt 0.240392152 0.011496834
vt 0.240234376 0.011496834
vt 0.246093765 0.116406262
vt 0.246093750 0.010837025
vt 0.242384258 0.109185665
vt 0.240234375 0.109185665
vt 0.242610447 0.109185665
vt 0.245706001 0.109185665
vt 0.241406262 0.109185665
vt 0.246093750 0.109185666
vt 0.137320518 0.010356514
vt 0.136431457 0.109214039
vt 0.142512000 0.109185665
vt 0.135356522 0.007054407
vt 0.233562950 0.109185665
vt 0.136528394 0.009572187
vt 0.136538913 0.006559551
vt 0.136528394 0.109185665
vt 0.143489996 0.109185665
vt 0.134765610 0.006559551
vt 0.134765624 0.109185665
vt 0.242823407 0.017968748
vt 0.243913531 0.017968751
vt 0.242823407 0.003906250
vt 0.246093750 0.017968751
vt 0.243641004 0.107031256
vt 0.242823407 0.107031249
vt 0.242823392 0.119458571
vt 0.242823407 0.121093750
vt 0.246093750 0.107031256
vt 0.131504873 0.033566494
vt 0.130921429 0.033566493
vt 0.128906250 0.117823400
vt 0.132176608 0.117823407
vt 0.132176596 0.026244675
vt 0.242823407 0.117823407
vt 0.132176608 0.121093750
vt 0.243406839 0.026916399
vt 0.242823395 0.026916401
vt 0.246093765 0.117823400
vt 0.246093753 0.029871996
vt 0.151916409 0.118584947
vt 0.151916409 0.121093750
vt 0.151916409 0.107031249
vt 0.151916394 0.109248329
vt 0.152062259 0.107031250
vt 0.151916394 0.120802028
vt 0.132176608 0.107031249
vt 0.132176593 0.117823407
vt 0.151916397 0.026244675
vt 0.151916409 0.091142167
vt 0.151244674 0.015752051
vt 0.152062271 0.033857831
vt 0.152110891 0.017968748
vt 0.132176608 0.017968750
vt 0.151916394 0.027208120
vt 0.242823392 0.027208120
vt 0.132176593 0.026916401
vt 0.996093750 0.003906250
vt 0.996093750 0.121093750
vt 0.966796875 0.003906250
vt 0.908203125 0.003906250
vt 0.908203125 0.121093750
vt 0.966796875 0.121093750
vt 0.878906250 0.003906250
vt 0.878906250 0.121093750
vt 0.996093750 0.062500000
vt 0.152238541 0.120317177
vt 0.152238541 0.116406254
vt 0.152238536 0.121093750
vt 0.151994106 0.025477216
vt 0.151994101 0.010519103
vt 0.152238536 0.099905244
vt 0.152238524 0.006559551
vt 0.152238536 0.109185665
vt 0.131504873 0.033566495
vt 0.132176596 0.026244674
vt 0.167819196 0.120040276
vt 0.167819196 0.117823407
vt 0.167819196 0.121093750
vt 0.167819186 0.114346935
vt 0.167819196 0.107031249
vt 0.167819186 0.118350141
vt 0.167819186 0.042264971
vt 0.151916397 0.026244674
vt 0.167819184 0.026362183
vt 0.151244674 0.015752052
vt 0.167819196 0.078341598
vt 0.167819196 0.017968749
vt 0.167819184 0.027208120
vt 0.167819186 0.043345924
vt 0.151916397 0.027208120
vt 0.035752374 0.132962737
vt 0.017494314 0.132962735
vt 0.017494314 0.133103623
vt 0.035752374 0.133317700
vt 0.034755178 0.133959932
vt 0.016283041 0.134174006
vt 0.016348656 0.245530188
vt 0.034809196 0.244673881
vt 0.034809192 0.240685090
vt 0.016348652 0.240685090
vt 0.016348655 0.246093750
vt 0.034809194 0.246093750
vt 0.034755178 0.242104959
vt 0.016283041 0.241248652
vt 0.016283041 0.240685090
vt 0.034755178 0.240685090
vt 0.037324346 0.246093750
vt 0.019403754 0.246093750
vt 0.016348651 0.240685090
vt 0.016215392 0.240966872
vt 0.034473452 0.241395027
vt 0.034755178 0.162238954
vt 0.016283041 0.145398259
vt 0.035752374 0.161241759
vt 0.017494314 0.144186988
vt 0.016348651 0.229601729
vt 0.034809192 0.212761039
vt 0.034809192 0.134314913
vt 0.016348652 0.134314911
vt 0.034473453 0.162948901
vt 0.016215393 0.145680054
vt 0.016348652 0.134314910
vt 0.034809192 0.134314910
vt 0.014962125 0.246041692
vt 0.033977274 0.245950313
vt 0.033977278 0.245532740
vt 0.014962130 0.245532738
vt 0.014962126 0.246093736
vt 0.033977278 0.246093739
vt 0.014962130 0.243627906
vt 0.033977278 0.240283295
vt 0.033977278 0.225000013
vt 0.014962130 0.225000010
vt 0.014954368 0.245558760
vt 0.033955887 0.245604453
vt 0.034002125 0.211024994
vt 0.014986976 0.211024992
vt 0.014962130 0.218042220
vt 0.033977278 0.205825335
vt 0.033977279 0.150000006
vt 0.014962131 0.150000006
vt 0.014954368 0.211092666
vt 0.033955887 0.211138360
vn -0.869394481 -0.381958891 -0.313465537
vn -0.869394558 -0.381958585 -0.313465694
vn -0.869394481 -0.313465688 -0.381958766
vn -0.527143339 -0.656885703 -0.539092824
vn -0.527143176 -0.656885917 -0.539092722
vn -0.527143468 -0.539092615 -0.656885771
vn -0.527143368 -0.539092757 -0.656885735
vn 0.000000000 -0.773010233 -0.634393553
vn 0.000000000 -0.634393682 -0.773010127
vn 0.000000000 -0.881921379 -0.471396522
vn 0.000000000 -0.773010356 -0.634393403
vn 0.000000000 -0.634393596 -0.773010198
vn 0.000000000 -0.471396522 -0.881921379
vn -1.000000000 0.000000000 0.000000000
vn 1.000000000 0.000000000 0.000000000
vn 0.000000000 0.499999338 -0.866025786
vn 0.000000000 -0.499999338 -0.866025786
vn 0.577350631 -0.577349546 -0.577350631
vn -0.577350631 -0.577349546 -0.577350631
vn -0.707107445 -0.707106117 -0.000000000
vn -0.000000000 -0.707106117 -0.707107445
vn 0.707107445 -0.707106117 0.000000000
vn 0.707106781 0.000000000 -0.707106781
vn -0.707106781 0.000000000 -0.707106781
vn 0.000000000 -1.000000000 0.000000000
vn 0.000000000 0.000000000 -1.000000000
vn 0.577350631 0.577349546 -0.577350631
vn -0.577350631 0.577349546 -0.577350631
vn -0.707107445 0.707106117 0.000000000
vn 0.707107445 0.707106117 0.000000000
vn 0.000000000 0.707106117 -0.707107445
vn -0.000000000 1.000000000 0.000000000
vn -0.866025522 0.000000000 0.499999796
vn 0.000000000 0.000000000 1.000000000
vn 0.866025522 0.000000000 0.499999796
vn 0.866025522 0.000000000 -0.499999796
vn -0.866025522 0.000000000 -0.499999796
vn 0.000000000 -0.707107777 0.707105785
vn -0.000000000 -0.707106781 -0.707106781
vn -0.000000000 0.707107445 0.707106117
vn 0.000000000 0.707106449 -0.707107113
vn -0.000000000 -0.707108994 -0.707104568
vn 0.000000000 0.707109437 -0.707104125
usemtl mat_0
f 1/1/1 2/2/1 3/3/1 4/4/1
f 1/1/2 4/4/2 5/5/2
f 3/3/3 6/6/3 4/4/3
f 7/7/4 5/8/4 4/9/4 8/10/4
f 7/7/5 8/10/5 9/11/5
f 10/12/6 4/13/6 6/14/6
f 4/13/7 10/12/7 11/15/7 8/16/7
f 12/17/8 13/18/8 9/11/8
f 12/17/8 9/11/8 8/10/8
f 12/17/8 8/10/8 14/19/8
f 15/20/8 13/18/8 12/17/8
f 16/21/9 8/16/9 11/15/9
f 17/22/9 14/23/9 8/16/9 16/21/9
f 18/24/10 19/25/10 20/26/10 21/27/10
f 18/24/10 21/27/10 22/28/10
f 20/26/11 23/29/11 24/30/11
f 20/26/11 24/30/11 21/27/11
f 23/31/12 25/32/12 26/33/12
f 23/31/12 26/33/12 24/34/12
f 27/35/13 25/32/13 28/36/13
f 25/32/13 27/35/13 29/37/13 26/33/13
f 30/38/14 28/39/14 25/40/14 23/41/14
f 31/42/14 23/41/14 20/43/14 19/44/14
f 32/45/14 30/38/14 23/41/14
f 33/46/14 23/41/14 31/42/14
f 34/47/14 32/45/14 23/41/14 33/46/14
f 35/48/15 22/44/15 21/43/15
f 21/43/15 24/41/15 26/40/15
f 36/49/15 26/40/15 29/39/15
f 37/50/15 35/48/15 21/43/15
f 38/51/15 21/43/15 26/40/15 36/49/15
f 39/52/15 37/50/15 21/43/15 38/51/15
usemtl mat_1
f 40/53/16 41/54/16 42/55/16 43/56/16
f 40/53/16 43/56/16 44/57/16
f 45/58/17 42/55/17 46/59/17
f 42/55/17 45/58/17 47/60/17 43/56/17
f 46/61/15 42/62/15 41/63/15
f 48/64/14 44/63/14 43/62/14
f 49/65/14 43/62/14 47/61/14
f 48/64/14 43/62/14 49/65/14
usemtl mat_0
f 50/66/18 51/67/18 52/68/18
f 53/69/19 54/70/19 55/71/19
f 56/72/20 57/73/20 53/74/20 55/75/20
f 56/72/20 55/75/20 58/76/20
f 52/77/21 55/75/21 54/78/21
f 52/77/21 54/78/21 50/79/21
f 59/80/22 60/81/22 52/77/22 51/82/22
f 59/80/22 51/82/22 61/83/22
f 62/84/23 50/66/23 63/85/23
f 50/66/23 62/84/23 64/86/23 51/67/23
f 65/87/24 53/69/24 66/88/24
f 53/69/24 65/87/24 67/89/24 54/70/24
f 68/90/25 58/76/25 55/75/25 52/77/25
f 68/90/25 52/77/25 60/81/25
f 69/91/14 70/92/14 53/69/14 57/93/14
f 66/88/14 53/69/14 70/92/14
f 71/94/15 72/95/15 61/96/15
f 71/94/15 61/96/15 51/67/15
f 71/94/15 51/67/15 64/86/15
f 73/97/15 72/95/15 71/94/15
f 74/98/26 50/66/26 54/99/26 67/100/26
f 63/85/26 50/66/26 74/98/26
f 75/101/18 76/102/18 77/103/18
f 78/101/19 79/104/19 80/103/19
f 81/105/27 82/106/27 83/107/27
f 84/106/28 85/108/28 86/109/28
f 87/110/20 88/111/20 78/112/20 80/113/20
f 87/110/20 80/113/20 89/114/20
f 77/115/21 80/113/21 79/116/21
f 77/115/21 79/116/21 75/108/21
f 90/117/22 91/118/22 77/115/22 76/119/22
f 90/117/22 76/119/22 92/120/22
f 93/121/29 94/122/29 85/108/29 84/106/29
f 93/121/29 84/106/29 95/123/29
f 96/124/30 97/125/30 81/105/30 83/107/30
f 96/124/30 83/107/30 98/126/30
f 82/106/31 86/127/31 85/128/31
f 82/106/31 85/128/31 83/107/31
f 75/101/23 82/106/23 81/105/23
f 75/101/23 81/105/23 76/102/23
f 78/101/24 84/106/24 86/109/24
f 78/101/24 86/109/24 79/104/24
f 99/129/25 89/114/25 80/113/25 77/115/25
f 99/129/25 77/115/25 91/118/25
f 100/130/14 78/101/14 88/131/14
f 78/101/14 100/130/14 95/123/14 84/106/14
f 101/132/15 92/133/15 76/102/15 81/105/15
f 101/132/15 81/105/15 97/125/15
f 75/101/26 79/134/26 86/127/26
f 75/101/26 86/127/26 82/106/26
f 102/135/32 98/136/32 83/107/32
f 94/137/32 102/135/32 83/107/32 85/128/32
usemtl mat_1
f 103/55/33 104/138/33 105/139/33
f 103/55/33 105/139/33 106/56/33
f 104/140/34 107/141/34 108/142/34
f 104/140/34 108/142/34 105/143/34
f 107/138/35 109/55/35 110/56/35
f 107/138/35 110/56/35 108/139/35
f 109/55/36 111/144/36 112/145/36
f 109/55/36 112/145/36 110/56/36
f 111/141/26 113/140/26 114/143/26
f 111/141/26 114/143/26 112/142/26
f 113/144/37 103/55/37 106/56/37
f 113/144/37 106/56/37 114/145/37
f 103/146/25 113/140/25 111/141/25
f 111/141/25 109/62/25 107/142/25
f 107/142/25 104/143/25 103/146/25
f 111/141/25 107/142/25 103/146/25
f 114/140/32 106/146/32 105/143/32
f 105/143/32 108/142/32 110/62/32
f 110/62/32 112/141/32 114/140/32
f 105/143/32 110/62/32 114/140/32
f 115/55/33 116/138/33 117/139/33
f 115/55/33 117/139/33 118/56/33
f 116/140/34 119/141/34 120/142/34
f 116/140/34 120/142/34 117/143/34
f 119/138/35 121/55/35 122/56/35
f 119/138/35 122/56/35 120/139/35
f 121/55/36 123/144/36 124/145/36
f 121/55/36 124/145/36 122/56/36
f 123/141/26 125/140/26 126/143/26
f 123/141/26 126/143/26 124/142/26
f 125/144/37 115/55/37 118/56/37
f 125/144/37 118/56/37 126/145/37
f 115/146/25 125/140/25 123/141/25
f 123/141/25 121/62/25 119/142/25
f 119/142/25 116/143/25 115/146/25
f 123/141/25 119/142/25 115/146/25
f 126/140/32 118/146/32 117/143/32
f 117/143/32 120/142/32 122/62/32
f 122/62/32 124/141/32 126/140/32
f 117/143/32 122/62/32 126/140/32
usemtl mat_0
f 127/69/19 128/70/19 129/71/19
f 130/72/20 131/73/20 127/74/20 129/75/20
f 130/72/20 129/75/20 132/76/20
f 133/147/21 134/148/21 129/75/21 128/78/21
f 133/147/21 128/78/21 135/149/21
f 136/87/24 127/69/24 137/88/24
f 127/69/24 136/87/24 138/89/24 128/70/24
f 139/150/25 140/90/25 132/76/25
f 139/150/25 132/76/25 129/75/25
f 139/150/25 129/75/25 134/148/25
f 141/151/25 140/90/25 139/150/25
f 142/91/14 143/92/14 127/69/14 131/93/14
f 137/88/14 127/69/14 143/92/14
f 144/98/26 145/152/26 135/153/26
f 144/98/26 135/153/26 128/99/26
f 144/98/26 128/99/26 138/100/26
f 146/154/26 145/152/26 144/98/26
f 147/101/19 148/104/19 149/103/19
f 150/106/28 151/108/28 152/109/28
f 153/155/20 154/111/20 147/112/20 149/113/20
f 153/155/20 149/113/20 155/156/20
f 156/157/21 157/158/21 149/113/21 148/116/21
f 156/157/21 148/116/21 158/159/21
f 159/121/29 160/122/29 151/108/29 150/106/29
f 159/121/29 150/106/29 161/123/29
f 162/160/31 163/161/31 152/127/31 151/128/31
f 162/160/31 151/128/31 164/162/31
f 147/101/24 150/106/24 152/109/24
f 147/101/24 152/109/24 148/104/24
f 165/163/25 166/164/25 155/156/25
f 165/163/25 155/156/25 149/113/25
f 165/163/25 149/113/25 157/158/25
f 167/165/25 166/164/25 165/163/25
f 168/130/14 147/101/14 154/166/14
f 147/101/14 168/130/14 161/123/14 150/106/14
f 169/167/26 158/168/26 148/134/26 152/127/26
f 169/167/26 152/127/26 163/161/26
f 170/169/32 171/170/32 172/171/32
f 160/137/32 172/171/32 171/170/32
f 160/137/32 171/170/32 164/162/32
f 160/137/32 164/162/32 151/128/32
usemtl mat_1
f 173/55/33 174/138/33 175/139/33
f 173/55/33 175/139/33 176/56/33
f 174/140/34 177/141/34 178/142/34
f 174/140/34 178/142/34 175/143/34
f 177/138/35 179/55/35 180/56/35
f 177/138/35 180/56/35 178/139/35
f 179/55/36 181/144/36 182/145/36
f 179/55/36 182/145/36 180/56/36
f 181/141/26 183/140/26 184/143/26
f 181/141/26 184/143/26 182/142/26
f 183/144/37 173/55/37 176/56/37
f 183/144/37 176/56/37 184/145/37
f 173/146/25 183/140/25 181/141/25
f 181/141/25 179/62/25 177/142/25
f 177/142/25 174/143/25 173/146/25
f 181/141/25 177/142/25 173/146/25
f 184/140/32 176/146/32 175/143/32
f 175/143/32 178/142/32 180/62/32
f 180/62/32 182/141/32 184/140/32
f 175/143/32 180/62/32 184/140/32
usemtl mat_3
f 185/172/38 186/173/38 187/174/38 188/175/38
f 186/173/38 185/172/38 189/176/38 190/177/38
f 191/178/39 192/179/39 193/180/39 194/181/39
f 192/179/39 191/178/39 195/182/39 196/183/39
f 197/184/40 198/185/40 199/186/40 200/187/40
f 198/185/40 197/184/40 201/188/40 202/189/40
f 203/190/41 204/180/41 205/180/41 206/190/41
f 204/180/41 203/190/41 207/191/41 208/192/41
f 209/193/34 210/194/34 190/177/34 189/176/34
f 210/194/34 209/193/34 200/187/34 199/186/34
f 211/195/25 212/196/25 194/181/25 193/180/25
f 188/175/25 187/174/25 212/196/25 211/195/25
f 213/197/26 214/198/26 196/199/26 195/200/26
f 214/198/26 213/197/26 206/190/26 205/180/26
f 215/201/32 216/202/32 202/203/32 201/204/32
f 216/202/32 215/201/32 208/192/32 207/191/32
f 217/205/42 218/206/42 219/207/42 220/208/42
f 218/206/42 217/205/42 221/209/42 222/210/42
f 223/211/43 224/212/43 225/213/43 226/214/43
f 224/212/43 223/211/43 227/215/43 228/216/43
f 229/217/25 230/218/25 220/208/25 219/207/25
f 231/219/26 232/220/26 222/221/26 221/222/26
f 232/220/26 231/219/26 226/214/26 225/213/26
f 233/223/32 234/224/32 228/216/32 227/215/32
