# Authored in Blender; exported by tools-export-modern.py
mtllib materials.mtl
s off
v 0.341870070 0.015869990 0.822499990
v 0.325999975 0.015869990 0.806629896
v 0.341870070 0.000000000 0.806629896
v 0.325999975 0.015869990 0.494519949
v 0.341870070 0.015869990 0.478649855
v 0.341870070 0.000000000 0.494519949
v 0.325999975 0.327979982 0.806629896
v 0.341870070 0.327979982 0.822499990
v 0.341870070 0.343849987 0.806629896
v 0.325999975 0.327979982 0.494519949
v 0.341870070 0.343849987 0.494519949
v 0.341870070 0.327979982 0.478649855
v 1.000000000 0.001653592 0.808283499
v 1.000000000 0.000000000 0.806629896
v 1.000000000 0.015869990 0.822499990
v 1.000000000 0.014216398 0.480303457
v 1.000000000 0.000000000 0.494519949
v 1.000000000 0.015869990 0.478649855
v 1.000000000 0.329633575 0.820846388
v 1.000000000 0.327979982 0.822499990
v 1.000000000 0.343849987 0.806629896
v 1.000000000 0.342196393 0.492866346
v 1.000000000 0.327979982 0.478649855
v 1.000000000 0.343849987 0.494519949
v 1.000000000 0.048390649 0.822499990
v 1.000000000 0.000000000 0.774109242
v 1.000000000 0.295459323 0.478649855
v 1.000000000 0.343849987 0.774109242
v 0.704235137 0.068769999 0.624125004
v 0.688365161 0.068769999 0.608254910
v 0.704235137 0.052900001 0.608254910
v 0.963445127 0.068769999 0.624125004
v 0.963445127 0.052900001 0.608254910
v 0.979315102 0.068769999 0.608254910
v 0.688365161 0.301530004 0.608254910
v 0.704235137 0.301530004 0.624125004
v 0.704235137 0.317399979 0.608254910
v 0.963445127 0.301530004 0.624125004
v 0.979315102 0.301530004 0.608254910
v 0.963445127 0.317399979 0.608254910
v 0.692720202 0.064414952 0.000000000
v 0.688365161 0.068769999 0.000000000
v 0.704235137 0.052900001 0.000000000
v 0.967800167 0.057255048 0.000000000
v 0.963445127 0.052900001 0.000000000
v 0.979315102 0.068769999 0.000000000
v 0.699880096 0.313044938 0.000000000
v 0.704235137 0.317399979 0.000000000
v 0.688365161 0.301530004 0.000000000
v 0.974960062 0.305885044 0.000000000
v 0.979315102 0.301530004 0.000000000
v 0.963445127 0.317399979 0.000000000
v 0.775367572 0.052900001 0.000000000
v 0.688365161 0.237655977 0.000000000
v 0.979315102 0.132644026 0.000000000
v 0.775367572 0.317399979 0.000000000
v 0.430477619 0.236727476 0.743149996
v 0.418575287 0.236727476 0.731247425
v 0.430477619 0.224824980 0.731247425
v 0.418575287 0.279047489 0.731247425
v 0.430477619 0.279047489 0.743149996
v 0.430477619 0.290949970 0.731247425
v 1.000000000 0.225929181 0.732351633
v 1.000000000 0.224824980 0.731247425
v 1.000000000 0.236727476 0.743149996
v 0.422109731 0.233192984 0.000000000
v 0.418575287 0.236727476 0.000000000
v 0.430477619 0.224824980 0.000000000
v 0.426943175 0.287415482 0.000000000
v 0.430477619 0.290949970 0.000000000
v 0.418575287 0.279047489 0.000000000
v 1.000000000 0.280151689 0.742045788
v 1.000000000 0.279047489 0.743149996
v 1.000000000 0.290949970 0.731247425
v 1.000000000 0.240653526 0.743149996
v 1.000000000 0.224824980 0.000000000
v 1.000000000 0.224824980 0.502800495
v 0.418575287 0.266480397 0.000000000
v 1.000000000 0.290949970 0.502800495
v 1.000000000 0.290949970 0.000000000
v 0.569339871 0.359720021 0.663799763
v 0.599757373 0.359720021 0.716484308
v 0.599757373 0.419232517 0.716484308
v 0.569339871 0.419232517 0.663799763
v 0.660592377 0.359720021 0.716484308
v 0.660592377 0.419232517 0.716484308
v 0.691009879 0.359720021 0.663799763
v 0.691009879 0.419232517 0.663799763
v 0.660592377 0.359720021 0.611115217
v 0.660592377 0.419232517 0.611115217
v 0.599757373 0.359720021 0.611115217
v 0.599757373 0.419232517 0.611115217
vt 0.004125975 0.134314910
vt 0.007962739 0.134314910
vt 0.005478139 0.132962734
vt 0.115685098 0.134314895
vt 0.121093750 0.134314910
vt 0.115685098 0.128906250
vt 0.009314902 0.240685090
vt 0.004125975 0.240685090
vt 0.007609677 0.246093750
vt 0.115685090 0.240685105
vt 0.115685098 0.246093750
vt 0.121093750 0.240685090
vt 0.017494314 0.132962734
vt 0.017494314 0.133103623
vt 0.016283041 0.134174018
vt 0.003906250 0.240685090
vt 0.004199217 0.240685090
vt 0.016348656 0.245530188
vt 0.016348652 0.240685090
vt 0.004199222 0.246093750
vt 0.016348655 0.246093750
vt 0.016283041 0.241248652
vt 0.016283041 0.240685090
vt 0.019403754 0.246093750
vt 0.016348651 0.240685090
vt 0.016215392 0.240966872
vt 0.016283041 0.145398273
vt 0.017494314 0.144186988
vt 0.016348651 0.229601729
vt 0.016348652 0.134314911
vt 0.004199217 0.134314910
vt 0.016215392 0.145680054
vt 0.016348652 0.134314910
vt 0.008700286 0.135937512
vt 0.004526655 0.134386495
vt 0.008907085 0.129526645
vt 0.114701703 0.134179682
vt 0.114701696 0.129733458
vt 0.121093750 0.131801471
vt 0.004733457 0.239062503
vt 0.008700286 0.239062518
vt 0.006588401 0.246093750
vt 0.114701696 0.239062488
vt 0.121093750 0.239062503
vt 0.114701711 0.246093750
vt 0.006110510 0.164814210
vt 0.004356404 0.164814210
vt 0.009288862 0.161288001
vt 0.116455804 0.161438060
vt 0.114701700 0.161438060
vt 0.121093750 0.162938569
vt 0.037783970 0.244164234
vt 0.037783974 0.246093750
vt 0.036438059 0.239062503
vt 0.035292734 0.240878519
vt 0.036494809 0.239062499
vt 0.035292731 0.245980251
vt 0.004733453 0.246093750
vt 0.037939258 0.161288001
vt 0.036438059 0.210762927
vt 0.036288008 0.134812121
vt 0.036494809 0.164237069
vt 0.004733457 0.135937497
vt 0.036513728 0.135937501
vt 0.039330469 0.161551574
vt 0.010298296 0.129733473
vt 0.114701703 0.129733473
vt 0.115083481 0.161551574
vt 0.010298296 0.161438071
vt 0.004075996 0.150000006
vt 0.004327003 0.144866824
vt 0.004216249 0.129326999
vt 0.004467254 0.225000009
vt 0.004075996 0.225000024
vt 0.004355692 0.246093750
vt 0.015038040 0.130755626
vt 0.015038039 0.129340012
vt 0.014910798 0.149510787
vt 0.004269267 0.174759958
vt 0.004202059 0.174759954
vt 0.004191402 0.163834745
vt 0.038854919 0.239829882
vt 0.038854917 0.246093750
vt 0.038933352 0.225000009
vt 0.014910798 0.226956900
vt 0.014910797 0.225000022
vt 0.015164547 0.246093750
vt 0.014910798 0.156957795
vt 0.015020955 0.163834746
vt 0.015038039 0.140107467
vt 0.038933355 0.202728466
vt 0.038834752 0.146391142
vt 0.014954368 0.140260742
vt 0.004132577 0.129467264
vt 0.014962129 0.129467264
vt 0.004132577 0.163933357
vt 0.014954368 0.163959381
vt 0.937500000 0.003906250
vt 0.996093750 0.003906250
vt 0.996093750 0.121093750
vt 0.937500000 0.121093750
vt 0.966796875 0.003906250
vt 0.908203125 0.003906250
vt 0.908203125 0.121093750
vt 0.966796875 0.121093750
vt 0.878906250 0.003906250
vt 0.878906250 0.121093750
vt 0.996093750 0.062500000
vt 0.878906250 0.062500000
vn -0.577349004 -0.577352799 0.577349004
vn -0.577349004 -0.577352799 -0.577349004
vn -0.577349185 0.577352438 0.577349185
vn -0.577349185 0.577352438 -0.577349185
vn 0.000000000 -0.707109105 0.707104457
vn -0.707104457 -0.707109105 -0.000000000
vn -0.000000000 -0.707109105 -0.707104457
vn -0.707104789 0.707108773 0.000000000
vn -0.000000000 0.707108773 0.707104789
vn 0.000000000 0.707108773 -0.707104789
vn -0.707106781 0.000000000 0.707106781
vn -0.707106781 0.000000000 -0.707106781
vn 0.000000000 0.000000000 1.000000000
vn 0.000000000 -1.000000000 0.000000000
vn -1.000000000 0.000000000 0.000000000
vn 0.000000000 0.000000000 -1.000000000
vn -0.000000000 1.000000000 0.000000000
vn -0.577351986 -0.577351173 0.577347649
vn 0.577351986 -0.577351173 0.577347649
vn -0.577351715 0.577351715 0.577347378
vn 0.577351715 0.577351715 0.577347378
vn 0.000000000 -0.707108939 0.707104623
vn -0.707107279 -0.707106283 -0.000000000
vn 0.707107279 -0.707106283 0.000000000
vn -0.707106781 0.707106781 0.000000000
vn -0.000000000 0.707109437 0.707104125
vn 0.707106781 0.707106781 0.000000000
vn -0.707109437 0.000000000 0.707104125
vn 0.707109437 -0.000000000 0.707104125
vn 1.000000000 0.000000000 0.000000000
vn -0.577356774 -0.577348824 0.577345210
vn -0.577356534 0.577349305 0.577344969
vn 0.000000000 -0.707108994 0.707104568
vn -0.707111650 -0.707101912 -0.000000000
vn -0.707111207 0.707102355 0.000000000
vn -0.707113863 0.000000000 0.707099699
vn -0.866024938 0.000000000 0.500000806
vn 0.866024938 0.000000000 0.500000806
vn 0.866024938 0.000000000 -0.500000806
vn -0.866024938 0.000000000 -0.500000806
usemtl mat_3
f 1/1/1 2/2/1 3/3/1
f 4/4/2 5/5/2 6/6/2
f 7/7/3 8/8/3 9/9/3
f 10/10/4 11/11/4 12/12/4
f 13/13/5 3/3/5 14/14/5
f 3/3/5 13/13/5 15/15/5 1/1/5
f 2/2/6 4/16/6 6/17/6
f 2/2/6 6/17/6 3/3/6
f 16/18/7 17/19/7 6/17/7 5/20/7
f 16/18/7 5/20/7 18/21/7
f 9/9/8 11/11/8 10/10/8
f 9/9/8 10/10/8 7/7/8
f 19/22/9 8/8/9 20/23/9
f 8/8/9 19/22/9 21/24/9 9/9/9
f 22/25/10 23/25/10 12/17/10 11/17/10
f 22/25/10 11/17/10 24/26/10
f 1/1/11 8/8/11 7/7/11
f 1/1/11 7/7/11 2/2/11
f 4/4/12 10/10/12 12/12/12
f 4/4/12 12/12/12 5/5/12
f 25/27/13 1/1/13 15/15/13
f 1/1/13 25/27/13 20/23/13 8/8/13
f 26/28/14 3/3/14 6/17/14 17/19/14
f 14/14/14 3/3/14 26/28/14
f 4/4/15 2/2/15 7/7/15
f 4/4/15 7/7/15 10/10/15
f 27/29/16 18/30/16 5/31/16 12/17/16
f 27/29/16 12/17/16 23/25/16
f 28/32/17 9/31/17 21/33/17
f 9/31/17 28/32/17 24/26/17 11/17/17
f 29/34/18 30/35/18 31/36/18
f 32/37/19 33/38/19 34/39/19
f 35/40/20 36/41/20 37/42/20
f 38/43/21 39/44/21 40/45/21
f 31/36/22 33/38/22 32/37/22
f 31/36/22 32/37/22 29/34/22
f 41/46/23 30/35/23 42/47/23
f 30/35/23 41/46/23 43/48/23 31/36/23
f 44/49/24 33/38/24 45/50/24
f 33/38/24 44/49/24 46/51/24 34/39/24
f 47/52/25 37/42/25 48/53/25
f 37/42/25 47/52/25 49/54/25 35/40/25
f 36/41/26 38/43/26 40/45/26
f 36/41/26 40/45/26 37/42/26
f 50/55/27 39/40/27 51/56/27
f 39/40/27 50/55/27 52/57/27 40/58/27
f 29/34/28 36/41/28 35/40/28
f 29/34/28 35/40/28 30/35/28
f 34/39/29 39/44/29 38/43/29
f 34/39/29 38/43/29 32/37/29
f 29/34/13 32/37/13 38/43/13
f 29/34/13 38/43/13 36/41/13
f 53/59/14 31/36/14 43/48/14
f 31/36/14 53/59/14 45/50/14 33/38/14
f 54/60/15 42/61/15 30/35/15 35/40/15
f 54/60/15 35/40/15 49/54/15
f 55/62/30 34/63/30 46/64/30
f 34/63/30 55/62/30 51/56/30 39/40/30
f 56/65/17 37/66/17 40/67/17 52/68/17
f 48/69/17 37/66/17 56/65/17
f 57/70/31 58/71/31 59/72/31
f 60/73/32 61/74/32 62/75/32
f 63/76/33 59/72/33 64/77/33
f 59/72/33 63/76/33 65/78/33 57/70/33
f 66/79/34 58/71/34 67/80/34
f 58/71/34 66/79/34 68/81/34 59/72/34
f 69/82/35 62/75/35 70/83/35
f 62/75/35 69/82/35 71/84/35 60/73/35
f 72/85/26 61/74/26 73/86/26
f 61/74/26 72/85/26 74/87/26 62/75/26
f 57/70/36 61/74/36 60/73/36
f 57/70/36 60/73/36 58/71/36
f 75/88/13 57/70/13 65/78/13
f 57/70/13 75/88/13 73/86/13 61/74/13
f 76/89/14 77/90/14 59/72/14 68/81/14
f 64/77/14 59/72/14 77/90/14
f 78/91/15 67/92/15 58/71/15 60/73/15
f 78/91/15 60/73/15 71/84/15
f 79/93/17 62/94/17 74/95/17
f 70/96/17 62/94/17 79/93/17 80/97/17
usemtl mat_1
f 81/98/37 82/99/37 83/100/37
f 81/98/37 83/100/37 84/101/37
f 82/102/13 85/103/13 86/104/13
f 82/102/13 86/104/13 83/105/13
f 85/99/38 87/98/38 88/101/38
f 85/99/38 88/101/38 86/100/38
f 87/98/39 89/106/39 90/107/39
f 87/98/39 90/107/39 88/101/39
f 89/103/16 91/102/16 92/105/16
f 89/103/16 92/105/16 90/104/16
f 91/106/40 81/98/40 84/101/40
f 91/106/40 84/101/40 92/107/40
f 81/108/14 91/102/14 89/103/14
f 89/103/14 87/109/14 85/104/14
f 85/104/14 82/105/14 81/108/14
f 89/103/14 85/104/14 81/108/14
f 92/102/17 84/108/17 83/105/17
f 83/105/17 86/104/17 88/109/17
f 88/109/17 90/103/17 92/102/17
f 83/105/17 88/109/17 92/102/17
