# Authored in Blender; exported by tools-export-modern.py
mtllib materials.mtl
s off
v 1.000000000 0.009191276 0.815821233
v 0.000000000 0.006678715 0.813308655
v 0.000000000 0.000000000 0.806629896
v 1.000000000 0.000000000 0.806629896
v 1.000000000 0.015869990 0.822499990
v 0.000000000 0.015869990 0.822499990
v 0.000000000 0.009191275 0.485328613
v 1.000000000 0.006678714 0.487841191
v 1.000000000 0.000000000 0.494519949
v 0.000000000 0.000000000 0.494519949
v 0.000000000 0.015869990 0.478649855
v 1.000000000 0.015869990 0.478649855
v 1.000000000 0.337171267 0.813308654
v 0.000000000 0.334658703 0.815821232
v 0.000000000 0.327979982 0.822499990
v 1.000000000 0.327979982 0.822499990
v 1.000000000 0.343849987 0.806629896
v 0.000000000 0.343849987 0.806629896
v 0.000000000 0.337171266 0.487841190
v 1.000000000 0.334658702 0.485328613
v 1.000000000 0.327979982 0.478649855
v 0.000000000 0.327979982 0.478649855
v 0.000000000 0.343849987 0.494519949
v 1.000000000 0.343849987 0.494519949
v 1.000000000 0.196631860 0.822499990
v 0.000000000 0.147218123 0.822499990
v 1.000000000 0.000000000 0.625868052
v 0.000000000 0.000000000 0.675281782
v 0.000000000 0.196631849 0.478649855
v 1.000000000 0.147218112 0.478649855
v 1.000000000 0.343849987 0.625868052
v 0.000000000 0.343849987 0.675281782
v 0.370394945 0.068769999 0.624125004
v 0.354525089 0.068769999 0.608254910
v 0.370394945 0.052900001 0.608254910
v 0.629605055 0.068769999 0.624125004
v 0.629605055 0.052900001 0.608254910
v 0.645474911 0.068769999 0.608254910
v 0.354525089 0.301530004 0.608254910
v 0.370394945 0.301530004 0.624125004
v 0.370394945 0.317399979 0.608254910
v 0.629605055 0.301530004 0.624125004
v 0.645474911 0.301530004 0.608254910
v 0.629605055 0.317399979 0.608254910
v 0.358880097 0.064414952 0.000000000
v 0.354525089 0.068769999 0.000000000
v 0.370394945 0.052900001 0.000000000
v 0.633960063 0.057255048 0.000000000
v 0.629605055 0.052900001 0.000000000
v 0.645474911 0.068769999 0.000000000
v 0.366039937 0.313044938 0.000000000
v 0.370394945 0.317399979 0.000000000
v 0.354525089 0.301530004 0.000000000
v 0.641119903 0.305885044 0.000000000
v 0.645474911 0.301530004 0.000000000
v 0.629605055 0.317399979 0.000000000
v 0.441527413 0.052900001 0.000000000
v 0.354525089 0.237655977 0.000000000
v 0.645474911 0.132644026 0.000000000
v 0.441527413 0.317399979 0.000000000
v 1.000000000 0.231745637 0.738168126
v 0.000000000 0.229806819 0.736229295
v 0.000000000 0.224824980 0.731247425
v 1.000000000 0.224824980 0.731247425
v 1.000000000 0.236727476 0.743149996
v 0.000000000 0.236727476 0.743149996
v 1.000000000 0.285968138 0.736229295
v 0.000000000 0.284029322 0.738168126
v 0.000000000 0.279047489 0.743149996
v 1.000000000 0.279047489 0.743149996
v 1.000000000 0.290949970 0.731247425
v 0.000000000 0.290949970 0.731247425
v 1.000000000 0.261334274 0.743149996
v 0.000000000 0.254440691 0.743149996
v 1.000000000 0.224824980 0.000000000
v 0.000000000 0.224824980 0.000000000
v 1.000000000 0.290949970 0.000000000
v 0.000000000 0.290949970 0.000000000
vt 0.072268494 0.132962734
vt 0.054010434 0.132962734
vt 0.054010434 0.133531776
vt 0.072268494 0.133745852
vt 0.071699451 0.133531782
vt 0.053227314 0.133745861
vt 0.053269736 0.243817574
vt 0.071730276 0.242961266
vt 0.071730274 0.240685090
vt 0.053269733 0.240685090
vt 0.053269733 0.246093750
vt 0.071730272 0.246093750
vt 0.071699451 0.243817574
vt 0.053227314 0.242961267
vt 0.053227314 0.240685090
vt 0.071699451 0.240685090
vt 0.073165529 0.246093750
vt 0.055244937 0.246093750
vt 0.052731509 0.241823182
vt 0.070989568 0.242251337
vt 0.071699451 0.195920348
vt 0.053227314 0.179079656
vt 0.072268494 0.195351299
vt 0.054010434 0.178296529
vt 0.053269733 0.195920350
vt 0.071730274 0.179079661
vt 0.071730274 0.134314918
vt 0.053269733 0.134314916
vt 0.070989568 0.197486594
vt 0.052731509 0.180217747
vt 0.053269733 0.134314910
vt 0.071730274 0.134314910
vt 0.008700286 0.135937512
vt 0.004526655 0.134386495
vt 0.008907086 0.129526660
vt 0.114701703 0.134179696
vt 0.114701696 0.129733458
vt 0.121093750 0.131801471
vt 0.004733457 0.239062503
vt 0.008700286 0.239062503
vt 0.006588401 0.246093750
vt 0.114701696 0.239062488
vt 0.121093750 0.239062503
vt 0.114701711 0.246093750
vt 0.006110510 0.164814210
vt 0.004356404 0.164814210
vt 0.009288862 0.161288011
vt 0.116455804 0.161438060
vt 0.114701700 0.161438060
vt 0.121093750 0.162938569
vt 0.037783970 0.244164234
vt 0.037783974 0.246093750
vt 0.036438059 0.239062503
vt 0.035292734 0.240878515
vt 0.036494809 0.239062503
vt 0.035292731 0.245980247
vt 0.004733453 0.246093750
vt 0.037939259 0.161288011
vt 0.036438059 0.210762927
vt 0.036288008 0.134812121
vt 0.036494809 0.164237073
vt 0.004733457 0.135937497
vt 0.036513728 0.135937501
vt 0.039330469 0.161551570
vt 0.010298296 0.129733473
vt 0.114701703 0.129733473
vt 0.115083481 0.161551570
vt 0.010298296 0.161438071
vt 0.072042600 0.138281019
vt 0.053041080 0.135772555
vt 0.053041077 0.129385708
vt 0.072042596 0.129408555
vt 0.071983897 0.146933791
vt 0.052959531 0.147792790
vt 0.071983896 0.237264884
vt 0.052959530 0.233828889
vt 0.052959527 0.225000018
vt 0.071983892 0.225000015
vt 0.072100964 0.246093750
vt 0.053122159 0.246093750
vt 0.071983892 0.193608450
vt 0.052959527 0.181391565
vt 0.072042596 0.163874653
vt 0.053041077 0.163851805
vt 0.071982726 0.164016657
vt 0.052967579 0.164016657
vt 0.052992423 0.129467264
vt 0.072007570 0.129467264
vn 0.000000000 -0.707109105 0.707104457
vn -0.000000000 -0.707109105 -0.707104457
vn -0.000000000 0.707108773 0.707104789
vn 0.000000000 0.707108773 -0.707104789
vn 0.000000000 0.000000000 1.000000000
vn 0.000000000 -1.000000000 0.000000000
vn 0.000000000 0.000000000 -1.000000000
vn -0.000000000 1.000000000 0.000000000
vn -0.577354877 -0.577349727 0.577346203
vn 0.577354877 -0.577349727 0.577346203
vn -0.577354606 0.577350269 0.577345932
vn 0.577354606 0.577350269 0.577345932
vn 0.000000000 -0.707108939 0.707104623
vn -0.707109935 -0.707103627 -0.000000000
vn 0.707109935 -0.707103627 0.000000000
vn -0.707109437 0.707104125 0.000000000
vn -0.000000000 0.707109437 0.707104125
vn 0.707109437 0.707104125 0.000000000
vn -0.707112093 0.000000000 0.707101470
vn 0.707112093 -0.000000000 0.707101470
vn -1.000000000 0.000000000 0.000000000
vn 1.000000000 0.000000000 0.000000000
vn 0.000000000 -0.707108994 0.707104568
usemtl mat_3
f 1/1/1 2/2/1 3/3/1 4/4/1
f 2/2/1 1/1/1 5/5/1 6/6/1
f 7/7/2 8/8/2 9/9/2 10/10/2
f 8/8/2 7/7/2 11/11/2 12/12/2
f 13/13/3 14/14/3 15/15/3 16/16/3
f 14/14/3 13/13/3 17/17/3 18/18/3
f 19/10/4 20/9/4 21/9/4 22/10/4
f 20/9/4 19/10/4 23/19/4 24/20/4
f 25/21/5 26/22/5 6/6/5 5/5/5
f 26/22/5 25/21/5 16/16/5 15/15/5
f 27/23/6 28/24/6 10/10/6 9/9/6
f 4/4/6 3/3/6 28/24/6 27/23/6
f 29/25/7 30/26/7 12/27/7 11/28/7
f 30/26/7 29/25/7 22/10/7 21/9/7
f 31/29/8 32/30/8 18/31/8 17/32/8
f 32/30/8 31/29/8 24/20/8 23/19/8
f 33/33/9 34/34/9 35/35/9
f 36/36/10 37/37/10 38/38/10
f 39/39/11 40/40/11 41/41/11
f 42/42/12 43/43/12 44/44/12
f 35/35/13 37/37/13 36/36/13
f 35/35/13 36/36/13 33/33/13
f 45/45/14 34/34/14 46/46/14
f 34/34/14 45/45/14 47/47/14 35/35/14
f 48/48/15 37/37/15 49/49/15
f 37/37/15 48/48/15 50/50/15 38/38/15
f 51/51/16 41/41/16 52/52/16
f 41/41/16 51/51/16 53/53/16 39/39/16
f 40/40/17 42/42/17 44/44/17
f 40/40/17 44/44/17 41/41/17
f 54/54/18 43/39/18 55/55/18
f 43/39/18 54/54/18 56/56/18 44/57/18
f 33/33/19 40/40/19 39/39/19
f 33/33/19 39/39/19 34/34/19
f 38/38/20 43/43/20 42/42/20
f 38/38/20 42/42/20 36/36/20
f 33/33/5 36/36/5 42/42/5
f 33/33/5 42/42/5 40/40/5
f 57/58/6 35/35/6 47/47/6
f 35/35/6 57/58/6 49/49/6 37/37/6
f 58/59/21 46/60/21 34/34/21 39/39/21
f 58/59/21 39/39/21 53/53/21
f 59/61/22 38/62/22 50/63/22
f 38/62/22 59/61/22 55/55/22 43/39/22
f 60/64/8 41/65/8 44/66/8 56/67/8
f 52/68/8 41/65/8 60/64/8
f 61/69/23 62/70/23 63/71/23 64/72/23
f 62/70/23 61/69/23 65/73/23 66/74/23
f 67/75/17 68/76/17 69/77/17 70/78/17
f 68/76/17 67/75/17 71/79/17 72/80/17
f 73/81/5 74/82/5 66/74/5 65/73/5
f 74/82/5 73/81/5 70/78/5 69/77/5
f 75/83/6 64/72/6 63/71/6 76/84/6
f 77/85/8 78/86/8 72/87/8 71/88/8
