# Authored in Blender; exported by tools-export-modern.py
mtllib materials.mtl
s off
v 0.228017305 1.000000000 0.048926000
v 0.215693342 1.000000000 0.020874847
v 0.251750231 0.954922974 0.065951824
v 0.251750231 1.000000000 0.102945677
v 0.208166776 1.000000000 0.000000000
v 0.251750231 0.900797591 0.000000000
v 0.314993828 1.000000000 0.153697982
v 0.410450220 0.884973884 0.135900974
v 0.410450220 1.000000000 0.230300769
v 0.409551180 0.774164130 0.000000000
v 0.410450220 0.773442660 0.000000000
v 1.000000000 0.899750528 0.148027891
v 0.513563651 1.000000000 0.230300769
v 1.000000000 0.884973884 0.135900974
v 1.000000000 1.000000000 0.230300769
v 1.000000000 0.773442660 0.000000000
v 1.000000000 0.785261189 0.014400896
v 0.349833995 1.000000000 0.282047816
v 0.205462456 1.000000000 0.282047816
v 0.205462456 0.998767436 0.281388998
v 0.350937605 0.998767436 0.281388998
v 0.350937605 1.000000000 0.282047816
v 0.205462456 0.856358230 0.164516687
v 0.350937605 0.856358230 0.164516687
v 0.205462456 0.739485979 0.022107363
v 0.350937605 0.739485979 0.022107363
v 0.225256888 0.727669350 0.000000000
v 0.205462456 0.727669350 0.000000000
v 0.350937605 0.727669350 0.000000000
v 0.205462456 0.746431732 0.000000000
v 0.205462456 1.000000000 0.260494979
v 0.205462456 0.788213192 0.000000000
v 0.205462456 1.000000000 0.224015060
v 0.205462456 1.000000000 0.000000000
v 0.350937605 1.000000000 0.281899542
v 0.350937605 0.730328806 0.000000000
v 0.350937605 1.000000000 0.281634170
v 0.350937605 0.810749361 0.000000000
v 0.350937605 1.000000000 0.000000000
v 0.198659748 0.842068754 0.000000000
v 0.200172663 0.840430975 0.000945568
v 0.200172663 0.842068754 0.000000000
v 0.163142681 0.842068754 0.000000000
v 0.163142681 0.840430975 0.000945568
v 0.164655596 0.838793196 0.000000000
v 0.200172663 0.838793196 0.000000000
v 0.163142681 0.838793196 0.000000000
v 0.200172663 0.839885050 0.000000000
v 0.200172663 0.840976899 0.000000000
v 0.190914989 0.386170030 0.371051311
v 0.175045013 0.386170030 0.355181217
v 0.190914989 0.370300025 0.355181217
v 0.476575017 0.386170030 0.371051311
v 0.476575017 0.370300025 0.355181217
v 0.492444992 0.386170030 0.355181217
v 0.190487655 0.370727359 0.000000000
v 0.175045013 0.386170030 0.000000000
v 0.190914989 0.370300025 0.000000000
v 0.492017658 0.385742695 0.000000000
v 0.476575017 0.370300025 0.000000000
v 0.492444992 0.386170030 0.000000000
v 0.176357777 1.000000000 0.356493991
v 0.190914989 1.000000000 0.371051311
v 0.175045013 1.000000000 0.355181217
v 0.477887781 1.000000000 0.369738538
v 0.492444992 1.000000000 0.355181217
v 0.476575017 1.000000000 0.371051311
v 0.452945230 1.000000000 0.371051311
v 0.468882998 0.370300025 0.000000000
v 0.175045013 1.000000000 0.324987611
v 0.175045013 0.404189291 0.000000000
v 0.175045013 1.000000000 0.000000000
v 0.492444992 1.000000000 0.000000000
v 0.492444992 1.000000000 0.020364919
v 0.065277457 0.346495003 0.457013845
v 0.049407482 0.346495003 0.441143751
v 0.065277457 0.330624998 0.441143751
v 0.602212548 0.346495003 0.457013845
v 0.602212548 0.330624998 0.441143751
v 0.618082523 0.346495003 0.441143751
v 0.049407482 0.447005004 0.441143751
v 0.065277457 0.447005004 0.457013845
v 0.065277457 0.462875009 0.441143751
v 0.602212548 0.447005004 0.457013845
v 0.618082523 0.447005004 0.441143751
v 0.602212548 0.462875009 0.441143751
v 0.062446194 0.333456266 0.000000000
v 0.049407482 0.346495003 0.000000000
v 0.065277457 0.330624998 0.000000000
v 0.615251260 0.343663734 0.000000000
v 0.602212548 0.330624998 0.000000000
v 0.618082523 0.346495003 0.000000000
v 0.052238745 0.449836272 0.000000000
v 0.065277457 0.462875009 0.000000000
v 0.049407482 0.447005004 0.000000000
v 0.605043812 0.460043740 0.000000000
v 0.618082523 0.447005004 0.000000000
v 0.602212548 0.462875009 0.000000000
v 0.506421306 0.330624998 0.000000000
v 0.049407482 0.364426365 0.000000000
v 0.618082523 0.429073641 0.000000000
v 0.506421306 0.462875009 0.000000000
v 0.122144938 0.470809966 0.172676325
v 0.141982436 0.470809966 0.207035780
v 0.141982436 0.515774965 0.207035780
v 0.122144938 0.515774965 0.172676325
v 0.181657434 0.470809966 0.207035780
v 0.181657434 0.515774965 0.207035780
v 0.201494932 0.470809966 0.172676325
v 0.201494932 0.515774965 0.172676325
v 0.181657434 0.470809966 0.138316870
v 0.181657434 0.515774965 0.138316870
v 0.141982436 0.470809966 0.138316870
v 0.141982436 0.515774965 0.138316870
v 0.465995073 0.470809966 0.172676325
v 0.485832572 0.470809966 0.207035780
v 0.485832572 0.515774965 0.207035780
v 0.465995073 0.515774965 0.172676325
v 0.525507569 0.470809966 0.207035780
v 0.525507569 0.515774965 0.207035780
v 0.545345068 0.470809966 0.172676325
v 0.545345068 0.515774965 0.172676325
v 0.525507569 0.470809966 0.138316870
v 0.525507569 0.515774965 0.138316870
v 0.485832572 0.470809966 0.138316870
v 0.485832572 0.515774965 0.138316870
v 0.952674985 0.386170030 0.371051311
v 0.936805010 0.386170030 0.355181217
v 0.952674985 0.370300025 0.355181217
v 1.000000000 0.372929194 0.357810401
v 1.000000000 0.370300025 0.355181217
v 1.000000000 0.386170030 0.371051311
v 0.952247651 0.370727359 0.000000000
v 0.936805010 0.386170030 0.000000000
v 0.952674985 0.370300025 0.000000000
v 0.938117774 1.000000000 0.356493991
v 0.952674985 1.000000000 0.371051311
v 0.936805010 1.000000000 0.355181217
v 1.000000000 0.497033282 0.371051311
v 1.000000000 1.000000000 0.371051311
v 1.000000000 0.370300025 0.000000000
v 1.000000000 0.370300025 0.294710361
v 0.936805010 1.000000000 0.324987611
v 0.936805010 0.404189291 0.000000000
v 0.936805010 1.000000000 0.000000000
v 0.827037454 0.346495003 0.457013845
v 0.811167479 0.346495003 0.441143751
v 0.827037454 0.330624998 0.441143751
v 0.811167479 0.447005004 0.441143751
v 0.827037454 0.447005004 0.457013845
v 0.827037454 0.462875009 0.441143751
v 1.000000000 0.335737193 0.446255975
v 1.000000000 0.330624998 0.441143751
v 1.000000000 0.346495003 0.457013845
v 0.824206190 0.333456266 0.000000000
v 0.811167479 0.346495003 0.000000000
v 0.827037454 0.330624998 0.000000000
v 0.813998742 0.449836272 0.000000000
v 0.827037454 0.462875009 0.000000000
v 0.811167479 0.447005004 0.000000000
v 1.000000000 0.452117199 0.451901621
v 1.000000000 0.447005004 0.457013845
v 1.000000000 0.462875009 0.441143751
v 1.000000000 0.378872230 0.457013845
v 1.000000000 0.330624998 0.000000000
v 1.000000000 0.330624998 0.268181205
v 0.811167479 0.364426365 0.000000000
v 1.000000000 0.462875009 0.268181205
v 1.000000000 0.462875009 0.000000000
v 0.883905053 0.470809966 0.172676325
v 0.903742552 0.470809966 0.207035780
v 0.903742552 0.515774965 0.207035780
v 0.883905053 0.515774965 0.172676325
v 0.943417549 0.470809966 0.207035780
v 0.943417549 0.515774965 0.207035780
v 0.963255048 0.470809966 0.172676325
v 0.963255048 0.515774965 0.172676325
v 0.943417549 0.470809966 0.138316870
v 0.943417549 0.515774965 0.138316870
v 0.903742552 0.470809966 0.138316870
v 0.903742552 0.515774965 0.138316870
v 1.000000000 0.004166153 0.810796077
v 0.000000000 0.001653592 0.808283499
v 0.000000000 0.000000000 0.806629896
v 1.000000000 0.000000000 0.806629896
v 1.000000000 0.015869990 0.822499990
v 0.000000000 0.015869990 0.822499990
v 0.000000000 0.014216398 0.480303457
v 1.000000000 0.011703837 0.482816035
v 1.000000000 0.000000000 0.494519949
v 0.000000000 0.000000000 0.494519949
v 0.000000000 0.015869990 0.478649855
v 1.000000000 0.015869990 0.478649855
v 1.000000000 0.332146139 0.818333810
v 0.000000000 0.329633575 0.820846388
v 0.000000000 0.327979982 0.822499990
v 1.000000000 0.327979982 0.822499990
v 1.000000000 0.343849987 0.806629896
v 0.000000000 0.343849987 0.806629896
v 0.000000000 0.342196393 0.492866346
v 1.000000000 0.339683830 0.490353768
v 1.000000000 0.327979982 0.478649855
v 0.000000000 0.327979982 0.478649855
v 0.000000000 0.343849987 0.494519949
v 1.000000000 0.343849987 0.494519949
v 1.000000000 0.097804386 0.822499990
v 0.000000000 0.048390649 0.822499990
v 1.000000000 0.000000000 0.724695512
v 0.000000000 0.000000000 0.774109242
v 0.000000000 0.295459323 0.478649855
v 1.000000000 0.246045586 0.478649855
v 1.000000000 0.343849987 0.724695512
v 0.000000000 0.343849987 0.774109242
v 1.000000000 0.227868000 0.734290464
v 0.000000000 0.225929181 0.732351633
v 0.000000000 0.224824980 0.731247425
v 1.000000000 0.224824980 0.731247425
v 1.000000000 0.236727476 0.743149996
v 0.000000000 0.236727476 0.743149996
v 1.000000000 0.282090505 0.740106957
v 0.000000000 0.280151689 0.742045788
v 0.000000000 0.279047489 0.743149996
v 1.000000000 0.279047489 0.743149996
v 1.000000000 0.290949970 0.731247425
v 0.000000000 0.290949970 0.731247425
v 1.000000000 0.247547109 0.743149996
v 0.000000000 0.240653526 0.743149996
v 1.000000000 0.224824980 0.000000000
v 1.000000000 0.224824980 0.101680297
v 0.000000000 0.224824980 0.502800495
v 0.000000000 0.224824980 0.000000000
v 1.000000000 0.290949970 0.101680297
v 0.000000000 0.290949970 0.502800495
v 0.000000000 0.290949970 0.000000000
v 1.000000000 0.290949970 0.000000000
vt 0.151734800 0.028562476
vt 0.153562470 0.028562476
vt 0.150625482 0.025625488
vt 0.148215159 0.028562475
vt 0.154922570 0.028562476
vt 0.154922573 0.022098958
vt 0.148153818 0.028562475
vt 0.141927093 0.028562475
vt 0.141927093 0.025625488
vt 0.157552093 0.021067966
vt 0.157552093 0.028562477
vt 0.157463577 0.029922574
vt 0.141927093 0.025625486
vt 0.141927093 0.029922575
vt 0.157552093 0.029922574
vt 0.157552093 0.021067962
vt 0.215596930 0.022030736
vt 0.167704251 0.028562477
vt 0.215596930 0.021067966
vt 0.215596930 0.028562477
vt 0.215596930 0.029922574
vt 0.215596930 0.028984285
vt 0.215596930 0.021067962
vt 0.245204737 0.030023903
vt 0.128906250 0.030023903
vt 0.128906250 0.029947054
vt 0.246093750 0.029947054
vt 0.246093750 0.030023903
vt 0.128906250 0.021067964
vt 0.246093750 0.021067964
vt 0.128906250 0.029947056
vt 0.246093750 0.029947056
vt 0.144851654 0.031325431
vt 0.128906250 0.031325431
vt 0.246093750 0.031325431
vt 0.156325437 0.014214140
vt 0.156325433 0.013044322
vt 0.154947057 0.013781079
vt 0.146067962 0.021067964
vt 0.140083795 0.030023903
vt 0.138781086 0.029947054
vt 0.138740009 0.030023903
vt 0.156325435 0.016819179
vt 0.142358291 0.030023902
vt 0.156325436 0.030023900
vt 0.138749254 0.030023903
vt 0.156325433 0.013210137
vt 0.138765799 0.030023903
vt 0.156325442 0.018224291
vt 0.156325433 0.030023903
vt 0.939893934 0.008694119
vt 0.937500000 0.003906250
vt 0.939893934 0.003906250
vt 0.939893934 0.121093750
vt 0.937500000 0.121093750
vt 0.935106066 0.116305881
vt 0.935106066 0.003906250
vt 0.935106066 0.121093750
vt 0.994896787 0.061702025
vt 0.996093750 0.062500000
vt 0.994896783 0.060106066
vt 0.994896787 0.063297975
vt 0.994896783 0.064893934
vt 0.133300781 0.006559552
vt 0.132421866 0.007068100
vt 0.134472653 0.007421874
vt 0.240234375 0.005896226
vt 0.240234375 0.008593748
vt 0.246093750 0.007915681
vt 0.134702514 0.113462087
vt 0.129000916 0.113462094
vt 0.134757736 0.113471613
vt 0.245935988 0.113503175
vt 0.240234404 0.113503168
vt 0.246093764 0.113484917
vt 0.133569518 0.109185665
vt 0.133300781 0.109185665
vt 0.133496815 0.109227733
vt 0.240719062 0.109297844
vt 0.246093750 0.109297844
vt 0.240234375 0.109130795
vt 0.231388832 0.109185665
vt 0.237386539 0.113471613
vt 0.142512000 0.109185665
vt 0.238503175 0.009572189
vt 0.238471620 0.006573245
vt 0.238503175 0.109185665
vt 0.239665287 0.109185665
vt 0.233562950 0.109185665
vt 0.133593753 0.006559551
vt 0.240023607 0.006559550
vt 0.133593753 0.109185665
vt 0.131359011 0.017968748
vt 0.131359011 0.015270712
vt 0.132176593 0.006359011
vt 0.242823407 0.014453124
vt 0.242823392 0.007176598
vt 0.246093750 0.010773981
vt 0.132176608 0.107031249
vt 0.131359011 0.107031249
vt 0.132176608 0.121093750
vt 0.242823407 0.107031249
vt 0.246093750 0.107031256
vt 0.242823407 0.121093750
vt 0.132030745 0.099527620
vt 0.129343832 0.099527614
vt 0.132176605 0.097937739
vt 0.245510318 0.098083594
vt 0.242823404 0.098083600
vt 0.246093762 0.098725380
vt 0.223083601 0.109540052
vt 0.223083601 0.121093750
vt 0.223083601 0.107031249
vt 0.223083599 0.117241490
vt 0.132176593 0.107031249
vt 0.223755321 0.107031249
vt 0.223083599 0.119750293
vt 0.132176593 0.121093750
vt 0.223083599 0.097937739
vt 0.223083601 0.033857833
vt 0.222937739 0.017487408
vt 0.223755324 0.091142163
vt 0.132176608 0.017968748
vt 0.223979243 0.017968751
vt 0.223083599 0.099427044
vt 0.132176593 0.007176598
vt 0.242823404 0.099427044
vt 0.132176593 0.098083600
vt 0.996093750 0.003906250
vt 0.996093750 0.121093750
vt 0.966796875 0.003906250
vt 0.908203125 0.003906250
vt 0.908203125 0.121093750
vt 0.966796875 0.121093750
vt 0.878906250 0.003906250
vt 0.878906250 0.121093750
vt 0.878906250 0.062500000
vt 0.132421881 0.007068100
vt 0.151994101 0.007169121
vt 0.151994101 0.007616017
vt 0.151016372 0.006449659
vt 0.134702515 0.113462087
vt 0.133496816 0.109227733
vt 0.151016372 0.025094757
vt 0.151016372 0.109185665
vt 0.152230652 0.113471613
vt 0.151994106 0.025477216
vt 0.131359011 0.015270711
vt 0.167819186 0.008966363
vt 0.167819181 0.006622380
vt 0.167264971 0.016836262
vt 0.167264971 0.111561194
vt 0.167264971 0.107031249
vt 0.167819196 0.121093750
vt 0.167264971 0.046658399
vt 0.167819193 0.097937739
vt 0.167819186 0.042264972
vt 0.167819181 0.043345924
vt 0.167819181 0.007176598
vt 0.167819181 0.098610334
vt 0.035752374 0.132962734
vt 0.017494314 0.132962734
vt 0.017494314 0.133103623
vt 0.035752374 0.133317700
vt 0.034755178 0.133959939
vt 0.016283041 0.134174018
vt 0.016348656 0.245530188
vt 0.034809196 0.244673881
vt 0.034809192 0.240685090
vt 0.016348652 0.240685090
vt 0.016348655 0.246093750
vt 0.034809194 0.246093750
vt 0.034755178 0.242104959
vt 0.016283041 0.241248652
vt 0.016283041 0.240685090
vt 0.034755178 0.240685090
vt 0.037324346 0.246093750
vt 0.019403754 0.246093750
vt 0.016348651 0.240685090
vt 0.016215392 0.240966872
vt 0.034473450 0.241395027
vt 0.034755178 0.162238964
vt 0.016283041 0.145398273
vt 0.035752374 0.161241759
vt 0.017494314 0.144186988
vt 0.016348651 0.229601729
vt 0.034809192 0.212761039
vt 0.034809192 0.134314913
vt 0.016348652 0.134314911
vt 0.034473451 0.162948901
vt 0.016215392 0.145680054
vt 0.016348652 0.134314910
vt 0.034809192 0.134314910
vt 0.034039560 0.133264090
vt 0.015038040 0.130755626
vt 0.015038039 0.129340012
vt 0.034039558 0.129362860
vt 0.033935164 0.148651788
vt 0.014910798 0.149510787
vt 0.033935164 0.230392895
vt 0.014910798 0.226956900
vt 0.014910797 0.225000022
vt 0.033935162 0.225000020
vt 0.034143353 0.246093750
vt 0.015164547 0.246093750
vt 0.033935163 0.169174680
vt 0.014910798 0.156957795
vt 0.034036103 0.163834749
vt 0.034039558 0.159036430
vt 0.015038039 0.140107467
vt 0.015020955 0.163834746
vt 0.033955887 0.159212548
vt 0.014954368 0.140260742
vt 0.014962129 0.129467264
vt 0.033977276 0.129467264
vt 0.014954368 0.163959381
vt 0.033955887 0.164005074
vn -0.869394403 -0.313465884 0.381958783
vn -0.869394476 -0.313466030 0.381958496
vn -0.869394435 -0.381958602 0.313466016
vn -0.527143395 -0.539093223 0.656885331
vn -0.527143601 -0.539093352 0.656885060
vn -0.527143149 -0.656885534 0.539093216
vn -0.527143346 -0.656885605 0.539092937
vn 0.000000000 -0.634394490 0.773009463
vn 0.000000000 -0.773009961 0.634393884
vn 0.000000000 -0.471395767 0.881921783
vn 0.000000000 -0.634393596 0.773010198
vn 0.000000000 -0.773010617 0.634393085
vn 0.000000000 -0.881921307 0.471396657
vn -1.000000000 0.000000000 0.000000000
vn 1.000000000 0.000000000 0.000000000
vn 0.000000000 0.499998372 0.866026344
vn 0.000000000 -0.499998372 0.866026344
vn -0.577352076 -0.577350992 0.577347739
vn 0.577352076 -0.577350992 0.577347739
vn 0.000000000 -0.707108773 0.707104789
vn -0.707107445 -0.707106117 -0.000000000
vn 0.707107445 -0.707106117 0.000000000
vn -0.707109437 0.000000000 0.707104125
vn 0.707109437 -0.000000000 0.707104125
vn 0.000000000 0.000000000 1.000000000
vn 0.000000000 -1.000000000 0.000000000
vn -0.577352076 0.577350992 0.577347739
vn 0.577352076 0.577350992 0.577347739
vn -0.707107445 0.707106117 0.000000000
vn -0.000000000 0.707108773 0.707104789
vn 0.707107445 0.707106117 0.000000000
vn -0.000000000 1.000000000 0.000000000
vn -0.866024771 0.000000000 0.500001097
vn 0.866024771 0.000000000 0.500001097
vn 0.866024771 0.000000000 -0.500001097
vn 0.000000000 0.000000000 -1.000000000
vn -0.866024771 0.000000000 -0.500001097
vn 0.000000000 -0.707109105 0.707104457
vn -0.000000000 -0.707109105 -0.707104457
vn 0.000000000 0.707108773 -0.707104789
vn 0.000000000 -0.707108994 0.707104568
vn -0.000000000 0.707109437 0.707104125
usemtl mat_0
f 1/1/1 2/2/1 3/3/1
f 1/1/2 3/3/2 4/4/2
f 2/2/3 5/5/3 6/6/3 3/3/3
f 7/7/4 4/8/4 3/9/4 8/10/4
f 7/7/5 8/10/5 9/11/5
f 10/12/6 3/13/6 6/14/6
f 3/13/7 10/12/7 11/15/7 8/16/7
f 12/17/8 13/18/8 9/11/8
f 12/17/8 9/11/8 8/10/8
f 12/17/8 8/10/8 14/19/8
f 15/20/8 13/18/8 12/17/8
f 16/21/9 17/22/9 8/16/9 11/15/9
f 14/23/9 8/16/9 17/22/9
f 18/24/10 19/25/10 20/26/10 21/27/10
f 18/24/10 21/27/10 22/28/10
f 20/26/11 23/29/11 24/30/11
f 20/26/11 24/30/11 21/27/11
f 23/29/12 25/31/12 26/32/12
f 23/29/12 26/32/12 24/30/12
f 27/33/13 25/31/13 28/34/13
f 25/31/13 27/33/13 29/35/13 26/32/13
f 30/36/14 28/37/14 25/38/14 23/39/14
f 31/40/14 23/39/14 20/41/14 19/42/14
f 32/43/14 30/36/14 23/39/14
f 33/44/14 23/39/14 31/40/14
f 34/45/14 32/43/14 23/39/14 33/44/14
f 35/46/15 22/42/15 21/41/15
f 21/41/15 24/39/15 26/38/15
f 36/47/15 26/38/15 29/37/15
f 37/48/15 35/46/15 21/41/15
f 38/49/15 21/41/15 26/38/15 36/47/15
f 39/50/15 37/48/15 21/41/15 38/49/15
usemtl mat_1
f 40/51/16 41/52/16 42/53/16
f 41/52/16 40/51/16 43/54/16 44/55/16
f 45/56/17 46/57/17 41/52/17 44/55/17
f 45/56/17 44/55/17 47/58/17
f 48/59/15 41/60/15 46/61/15
f 49/62/15 42/63/15 41/60/15
f 48/59/15 49/62/15 41/60/15
f 47/61/14 44/60/14 43/63/14
usemtl mat_0
f 50/64/18 51/65/18 52/66/18
f 53/67/19 54/68/19 55/69/19
f 52/66/20 54/68/20 53/67/20
f 52/66/20 53/67/20 50/64/20
f 56/70/21 51/65/21 57/71/21
f 51/65/21 56/70/21 58/72/21 52/66/21
f 59/73/22 54/68/22 60/74/22
f 54/68/22 59/73/22 61/75/22 55/69/22
f 62/76/23 50/64/23 63/77/23
f 50/64/23 62/76/23 64/78/23 51/65/23
f 65/79/24 55/69/24 66/80/24
f 55/69/24 65/79/24 67/81/24 53/67/24
f 68/82/25 50/64/25 53/67/25 67/81/25
f 63/77/25 50/64/25 68/82/25
f 69/83/26 52/66/26 58/72/26
f 52/66/26 69/83/26 60/74/26 54/68/26
f 70/84/14 71/85/14 57/86/14
f 70/84/14 57/86/14 51/65/14
f 70/84/14 51/65/14 64/78/14
f 72/87/14 71/85/14 70/84/14
f 73/88/15 74/89/15 55/90/15 61/91/15
f 66/92/15 55/90/15 74/89/15
f 75/93/18 76/94/18 77/95/18
f 78/96/19 79/97/19 80/98/19
f 81/99/27 82/100/27 83/101/27
f 84/102/28 85/103/28 86/104/28
f 77/95/20 79/97/20 78/96/20
f 77/95/20 78/96/20 75/93/20
f 87/105/21 76/94/21 88/106/21
f 76/94/21 87/105/21 89/107/21 77/95/21
f 90/108/22 79/97/22 91/109/22
f 79/97/22 90/108/22 92/110/22 80/98/22
f 93/111/29 83/101/29 94/112/29
f 83/101/29 93/111/29 95/113/29 81/99/29
f 82/100/30 84/102/30 86/104/30
f 82/100/30 86/104/30 83/101/30
f 96/114/31 85/115/31 97/116/31
f 85/115/31 96/114/31 98/117/31 86/118/31
f 75/93/23 82/100/23 81/99/23
f 75/93/23 81/99/23 76/94/23
f 80/98/24 85/103/24 84/102/24
f 80/98/24 84/102/24 78/96/24
f 75/93/25 78/96/25 84/102/25
f 75/93/25 84/102/25 82/100/25
f 99/119/26 77/95/26 89/107/26
f 77/95/26 99/119/26 91/109/26 79/97/26
f 100/120/14 88/121/14 76/94/14 81/99/14
f 100/120/14 81/99/14 95/113/14
f 101/122/15 80/123/15 92/124/15
f 80/123/15 101/122/15 97/116/15 85/115/15
f 102/125/32 83/126/32 86/97/32 98/127/32
f 94/128/32 83/126/32 102/125/32
usemtl mat_1
f 103/52/33 104/129/33 105/130/33
f 103/52/33 105/130/33 106/55/33
f 104/131/25 107/132/25 108/133/25
f 104/131/25 108/133/25 105/134/25
f 107/129/34 109/52/34 110/55/34
f 107/129/34 110/55/34 108/130/34
f 109/52/35 111/135/35 112/136/35
f 109/52/35 112/136/35 110/55/35
f 111/132/36 113/131/36 114/134/36
f 111/132/36 114/134/36 112/133/36
f 113/135/37 103/52/37 106/55/37
f 113/135/37 106/55/37 114/136/37
f 103/60/26 113/131/26 111/132/26
f 111/132/26 109/137/26 107/133/26
f 107/133/26 104/134/26 103/60/26
f 111/132/26 107/133/26 103/60/26
f 114/131/32 106/60/32 105/134/32
f 105/134/32 108/133/32 110/137/32
f 110/137/32 112/132/32 114/131/32
f 105/134/32 110/137/32 114/131/32
f 115/52/33 116/129/33 117/130/33
f 115/52/33 117/130/33 118/55/33
f 116/131/25 119/132/25 120/133/25
f 116/131/25 120/133/25 117/134/25
f 119/129/34 121/52/34 122/55/34
f 119/129/34 122/55/34 120/130/34
f 121/52/35 123/135/35 124/136/35
f 121/52/35 124/136/35 122/55/35
f 123/132/36 125/131/36 126/134/36
f 123/132/36 126/134/36 124/133/36
f 125/135/37 115/52/37 118/55/37
f 125/135/37 118/55/37 126/136/37
f 115/60/26 125/131/26 123/132/26
f 123/132/26 121/137/26 119/133/26
f 119/133/26 116/134/26 115/60/26
f 123/132/26 119/133/26 115/60/26
f 126/131/32 118/60/32 117/134/32
f 117/134/32 120/133/32 122/137/32
f 122/137/32 124/132/32 126/131/32
f 117/134/32 122/137/32 126/131/32
usemtl mat_0
f 127/64/18 128/138/18 129/66/18
f 130/139/20 129/66/20 131/140/20
f 129/66/20 130/139/20 132/141/20 127/64/20
f 133/142/21 128/138/21 134/71/21
f 128/138/21 133/142/21 135/72/21 129/66/21
f 136/76/23 127/64/23 137/77/23
f 127/64/23 136/76/23 138/143/23 128/138/23
f 139/144/25 127/64/25 132/141/25
f 137/77/25 127/64/25 139/144/25 140/145/25
f 141/146/26 142/147/26 129/66/26 135/72/26
f 131/140/26 129/66/26 142/147/26
f 143/84/14 144/85/14 134/86/14
f 143/84/14 134/86/14 128/138/14
f 143/84/14 128/138/14 138/143/14
f 145/87/14 144/85/14 143/84/14
f 146/93/18 147/148/18 148/95/18
f 149/99/27 150/100/27 151/101/27
f 152/149/20 148/95/20 153/150/20
f 148/95/20 152/149/20 154/151/20 146/93/20
f 155/105/21 147/148/21 156/106/21
f 147/148/21 155/105/21 157/107/21 148/95/21
f 158/111/29 151/101/29 159/112/29
f 151/101/29 158/111/29 160/113/29 149/99/29
f 161/152/30 150/100/30 162/153/30
f 150/100/30 161/152/30 163/154/30 151/101/30
f 146/93/23 150/100/23 149/99/23
f 146/93/23 149/99/23 147/148/23
f 164/155/25 146/93/25 154/151/25
f 146/93/25 164/155/25 162/153/25 150/100/25
f 165/156/26 166/157/26 148/95/26 157/107/26
f 153/150/26 148/95/26 166/157/26
f 167/120/14 156/121/14 147/148/14 149/99/14
f 167/120/14 149/99/14 160/113/14
f 168/158/32 151/126/32 163/159/32
f 159/128/32 151/126/32 168/158/32 169/160/32
usemtl mat_1
f 170/52/33 171/129/33 172/130/33
f 170/52/33 172/130/33 173/55/33
f 171/131/25 174/132/25 175/133/25
f 171/131/25 175/133/25 172/134/25
f 174/129/34 176/52/34 177/55/34
f 174/129/34 177/55/34 175/130/34
f 176/52/35 178/135/35 179/136/35
f 176/52/35 179/136/35 177/55/35
f 178/132/36 180/131/36 181/134/36
f 178/132/36 181/134/36 179/133/36
f 180/135/37 170/52/37 173/55/37
f 180/135/37 173/55/37 181/136/37
f 170/60/26 180/131/26 178/132/26
f 178/132/26 176/137/26 174/133/26
f 174/133/26 171/134/26 170/60/26
f 178/132/26 174/133/26 170/60/26
f 181/131/32 173/60/32 172/134/32
f 172/134/32 175/133/32 177/137/32
f 177/137/32 179/132/32 181/131/32
f 172/134/32 177/137/32 181/131/32
usemtl mat_3
f 182/161/38 183/162/38 184/163/38 185/164/38
f 183/162/38 182/161/38 186/165/38 187/166/38
f 188/167/39 189/168/39 190/169/39 191/170/39
f 189/168/39 188/167/39 192/171/39 193/172/39
f 194/173/30 195/174/30 196/175/30 197/176/30
f 195/174/30 194/173/30 198/177/30 199/178/30
f 200/179/40 201/169/40 202/169/40 203/179/40
f 201/169/40 200/179/40 204/180/40 205/181/40
f 206/182/25 207/183/25 187/166/25 186/165/25
f 207/183/25 206/182/25 197/176/25 196/175/25
f 208/184/26 209/185/26 191/170/26 190/169/26
f 185/164/26 184/163/26 209/185/26 208/184/26
f 210/186/36 211/187/36 193/188/36 192/189/36
f 211/187/36 210/186/36 203/179/36 202/169/36
f 212/190/32 213/191/32 199/192/32 198/193/32
f 213/191/32 212/190/32 205/181/32 204/180/32
f 214/194/41 215/195/41 216/196/41 217/197/41
f 215/195/41 214/194/41 218/198/41 219/199/41
f 220/200/42 221/201/42 222/202/42 223/203/42
f 221/201/42 220/200/42 224/204/42 225/205/42
f 226/206/25 227/207/25 219/199/25 218/198/25
f 227/207/25 226/206/25 223/203/25 222/202/25
f 228/208/26 229/209/26 230/210/26 231/211/26
f 217/197/26 216/196/26 230/210/26 229/209/26
f 232/212/32 233/213/32 225/214/32 224/215/32
f 234/216/32 233/213/32 232/212/32 235/217/32
