# Authored in Blender; exported by tools-export-modern.py
mtllib materials.mtl
s off
v 0.169121636 0.938019784 0.000000000
v 0.139175433 0.854964162 0.000000000
v 0.251750231 0.965540528 0.165489197
v 0.191469036 1.000000000 0.000000000
v 0.251750231 1.000000000 0.137208954
v 0.133753040 0.834725097 0.000000000
v 0.119500160 0.781526342 0.000000000
v 0.119500160 0.737687707 0.023432255
v 0.251750231 0.827165961 0.239451885
v 0.119500160 0.631404996 0.055672646
v 0.251750231 0.677020669 0.284997940
v 0.119500160 0.520874977 0.066559076
v 0.251750231 0.520874977 0.300376892
v 0.119500160 0.410344720 0.055672646
v 0.251750231 0.364729047 0.284997940
v 0.119500160 0.304062247 0.023432255
v 0.251750231 0.214583993 0.239451885
v 0.119500160 0.260223506 0.000000000
v 0.139175433 0.186785572 0.000000000
v 0.251750231 0.076209307 0.165489197
v 0.228017305 0.000000000 0.048926000
v 0.159817546 0.129534906 0.000000000
v 0.198995638 0.020874870 0.000000000
v 0.215693342 0.000000000 0.020874847
v 0.251750231 0.000000000 0.102945677
v 0.208166776 0.000000000 0.000000000
v 0.351256613 1.000000000 0.217061689
v 0.410450220 0.865022063 0.330844879
v 0.410450220 1.000000000 0.258697682
v 0.410450220 0.696319580 0.382019997
v 0.410450220 0.520874977 0.399300098
v 0.410450220 0.345430136 0.382019997
v 0.410450220 0.176727772 0.330844879
v 0.410450220 0.021250606 0.247740746
v 0.314993828 0.000000000 0.153697982
v 0.410450220 0.000000000 0.230300769
v 1.000000000 0.881880608 0.321833801
v 0.497633286 1.000000000 0.258697682
v 1.000000000 0.865022063 0.330844879
v 1.000000000 1.000000000 0.258697682
v 1.000000000 0.714612187 0.376471019
v 1.000000000 0.696319580 0.382019997
v 1.000000000 0.539898640 0.397426397
v 1.000000000 0.520874977 0.399300098
v 1.000000000 0.364453825 0.383893698
v 1.000000000 0.345430136 0.382019997
v 1.000000000 0.195020366 0.336393857
v 1.000000000 0.176727772 0.330844879
v 1.000000000 0.038109176 0.256751824
v 1.000000000 0.021250606 0.247740746
v 0.513563651 0.000000000 0.230300769
v 1.000000000 0.000000000 0.230300769
v 0.119500160 0.268993391 0.000000000
v 0.119500160 0.772756541 0.000000000
v 0.119500160 0.360187216 0.000000000
v 0.119500160 0.681562691 0.000000000
v 0.119500160 0.454315894 0.000000000
v 0.119500160 0.587434053 0.000000000
v 0.119500160 0.520874977 0.000000000
v 0.243947870 1.000000000 0.304363485
v 0.205462456 1.000000000 0.304363485
v 0.205462456 0.880508780 0.368232727
v 0.350937605 0.880508780 0.368232727
v 0.350937605 1.000000000 0.304363485
v 0.205462456 0.704214692 0.421710968
v 0.350937605 0.704214692 0.421710968
v 0.205462456 0.520874977 0.439768553
v 0.350937605 0.520874977 0.439768553
v 0.205462456 0.337535143 0.421710968
v 0.350937605 0.337535143 0.421710968
v 0.205462456 0.161241055 0.368232727
v 0.350937605 0.161241055 0.368232727
v 0.349833995 0.000000000 0.282047816
v 0.205462456 0.000000000 0.282047816
v 0.350937605 0.000000000 0.282047816
v 0.205462456 0.000000000 0.260494979
v 0.205462456 1.000000000 0.288391321
v 0.205462456 0.000000000 0.224015060
v 0.205462456 1.000000000 0.241308441
v 0.205462456 0.081106424 0.000000000
v 0.205462456 0.000000000 0.000000000
v 0.205462456 1.000000000 0.000000000
v 0.205462456 0.960643418 0.000000000
v 0.205462456 0.520874977 0.000000000
v 0.350937605 1.000000000 0.299192843
v 0.350937605 0.000000000 0.281899542
v 0.350937605 1.000000000 0.224073618
v 0.350937605 0.000000000 0.281634170
v 0.350937605 0.985992950 0.000000000
v 0.350937605 1.000000000 0.000000000
v 0.350937605 0.000000000 0.000000000
v 0.350937605 0.073079485 0.000000000
v 0.350937605 0.620331141 0.000000000
v 0.200172663 0.680529714 0.348925829
v 0.200172663 0.720615864 0.325782061
v 0.163142681 0.720615864 0.325782061
v 0.163142681 0.680529714 0.348925829
v 0.200172663 0.720615864 0.279494524
v 0.163142681 0.720615864 0.279494524
v 0.200172663 0.680529714 0.256350756
v 0.163142681 0.680529714 0.256350756
v 0.200172663 0.640443563 0.279494524
v 0.163142681 0.640443563 0.279494524
v 0.200172663 0.640443563 0.325782061
v 0.163142681 0.640443563 0.325782061
v 0.177570968 1.000000000 0.212605223
v 0.200172663 0.975533009 0.226731300
v 0.200172663 1.000000000 0.212605223
v 0.163142681 1.000000000 0.212605223
v 0.163142681 0.975533009 0.226731300
v 0.185744376 1.000000000 0.148282305
v 0.200172663 1.000000000 0.148282305
v 0.200172663 0.975533009 0.134156227
v 0.163142681 0.975533009 0.134156227
v 0.163142681 1.000000000 0.148282305
v 0.200172663 0.935446858 0.157299995
v 0.163142681 0.935446858 0.157299995
v 0.200172663 0.935446858 0.203587532
v 0.163142681 0.935446858 0.203587532
v 0.200172663 1.000000000 0.157299995
v 0.200172663 1.000000000 0.184353068
v 0.163142681 1.000000000 0.203587532
v 0.163142681 1.000000000 0.176534460
v 0.200172663 0.066216826 0.226731300
v 0.200172663 0.106302977 0.203587532
v 0.163142681 0.106302977 0.203587532
v 0.163142681 0.066216826 0.226731300
v 0.200172663 0.106302977 0.157299995
v 0.163142681 0.106302977 0.157299995
v 0.200172663 0.066216826 0.134156227
v 0.163142681 0.066216826 0.134156227
v 0.200172663 0.026130676 0.157299995
v 0.163142681 0.026130676 0.157299995
v 0.200172663 0.026130676 0.203587532
v 0.163142681 0.026130676 0.203587532
v 0.200172663 0.361220121 0.348925829
v 0.200172663 0.401306272 0.325782061
v 0.163142681 0.401306272 0.325782061
v 0.163142681 0.361220121 0.348925829
v 0.200172663 0.401306272 0.279494524
v 0.163142681 0.401306272 0.279494524
v 0.200172663 0.361220121 0.256350756
v 0.163142681 0.361220121 0.256350756
v 0.200172663 0.321133971 0.279494524
v 0.163142681 0.321133971 0.279494524
v 0.200172663 0.321133971 0.325782061
v 0.163142681 0.321133971 0.325782061
v 0.175045013 0.055354953 0.355181217
v 0.190914989 0.055354953 0.371051311
v 0.190914989 0.071224928 0.355181217
v 0.476575017 0.055354953 0.371051311
v 0.492444992 0.055354953 0.355181217
v 0.476575017 0.071224928 0.355181217
v 0.175472347 0.055782286 0.000000000
v 0.190914989 0.071224928 0.000000000
v 0.175045013 0.055354953 0.000000000
v 0.477002351 0.070797594 0.000000000
v 0.492444992 0.055354953 0.000000000
v 0.476575017 0.071224928 0.000000000
v 0.176357777 0.000000000 0.356493991
v 0.190914989 0.000000000 0.371051311
v 0.175045013 0.000000000 0.355181217
v 0.477887781 0.000000000 0.369738538
v 0.492444992 0.000000000 0.355181217
v 0.476575017 0.000000000 0.371051311
v 0.452945230 0.000000000 0.371051311
v 0.175045013 0.000000000 0.324987611
v 0.175045013 0.000000000 0.000000000
v 0.492444992 0.037335691 0.000000000
v 0.492444992 0.000000000 0.020364919
v 0.492444992 0.000000000 0.000000000
v 0.468882998 0.071224928 0.000000000
v 0.936805010 0.055354953 0.355181217
v 0.952674985 0.055354953 0.371051311
v 0.952674985 0.071224928 0.355181217
v 0.937232343 0.055782286 0.000000000
v 0.952674985 0.071224928 0.000000000
v 0.936805010 0.055354953 0.000000000
v 1.000000000 0.057984117 0.368422128
v 1.000000000 0.055354953 0.371051311
v 1.000000000 0.071224928 0.355181217
v 0.938117774 0.000000000 0.356493991
v 0.952674985 0.000000000 0.371051311
v 0.936805010 0.000000000 0.355181217
v 1.000000000 0.000000000 0.371051311
v 0.936805010 0.000000000 0.324987611
v 0.936805010 0.000000000 0.000000000
v 1.000000000 0.071224928 0.294710361
v 1.000000000 0.071224928 0.000000000
vt 0.154922577 0.089679014
vt 0.154922580 0.084267539
vt 0.144140154 0.091472127
vt 0.154922571 0.093717324
vt 0.145982745 0.093717327
vt 0.154922581 0.082948865
vt 0.154922584 0.079482707
vt 0.153395861 0.076626405
vt 0.139321133 0.082456350
vt 0.151295230 0.069701575
vt 0.136353582 0.072673663
vt 0.150585935 0.062500000
vt 0.135351568 0.062500000
vt 0.151295230 0.055298429
vt 0.136353582 0.052326344
vt 0.153395861 0.048373602
vt 0.139321133 0.042543661
vt 0.154922584 0.045517299
vt 0.154922580 0.040732465
vt 0.144140154 0.033527881
vt 0.151734800 0.028562476
vt 0.154922575 0.037002306
vt 0.154922569 0.029922575
vt 0.153562470 0.028562476
vt 0.148215159 0.028562475
vt 0.154922570 0.028562476
vt 0.141927093 0.093717327
vt 0.141927093 0.091472127
vt 0.151724115 0.093717332
vt 0.141927093 0.082456350
vt 0.157552093 0.084922858
vt 0.157552093 0.093717333
vt 0.141927093 0.072673663
vt 0.157552093 0.073931083
vt 0.141927093 0.062500000
vt 0.157552093 0.062500000
vt 0.141927093 0.052326344
vt 0.157552093 0.051068924
vt 0.141927093 0.042543661
vt 0.157552093 0.040077146
vt 0.141927093 0.033527881
vt 0.157552093 0.029947057
vt 0.148153818 0.028562475
vt 0.141927093 0.028562475
vt 0.157552093 0.028562477
vt 0.215596930 0.086021275
vt 0.166135808 0.093717333
vt 0.215596930 0.084922858
vt 0.215596930 0.093717333
vt 0.215596930 0.075122934
vt 0.215596930 0.073931083
vt 0.215596930 0.063739486
vt 0.215596930 0.062500000
vt 0.215596930 0.052308409
vt 0.215596930 0.051068924
vt 0.215596930 0.041268997
vt 0.215596930 0.040077146
vt 0.215596930 0.031045475
vt 0.215596930 0.029947057
vt 0.167704251 0.028562477
vt 0.215596930 0.028562477
vt 0.154922585 0.046088697
vt 0.154922585 0.078911310
vt 0.154922580 0.052030417
vt 0.154922580 0.072969586
vt 0.154922580 0.058163354
vt 0.154922580 0.066836647
vt 0.154922581 0.062500000
vt 0.159908174 0.092373037
vt 0.128906250 0.092373037
vt 0.128906250 0.084922858
vt 0.246093750 0.084922858
vt 0.246093750 0.092373037
vt 0.128906250 0.073931076
vt 0.246093750 0.073931076
vt 0.128906250 0.062500000
vt 0.246093750 0.062500000
vt 0.128906250 0.051068924
vt 0.246093750 0.051068924
vt 0.128906250 0.040077142
vt 0.246093750 0.040077142
vt 0.245204737 0.030023903
vt 0.128906250 0.030023903
vt 0.246093750 0.030023903
vt 0.140083795 0.030023903
vt 0.138740009 0.030023903
vt 0.133366436 0.040077142
vt 0.130032107 0.051068924
vt 0.130032107 0.073931076
vt 0.133366436 0.084922858
vt 0.138344481 0.092373030
vt 0.137348641 0.092373037
vt 0.142358291 0.030023902
vt 0.141280064 0.092373029
vt 0.156325436 0.035080814
vt 0.156325436 0.030023900
vt 0.156325436 0.092373034
vt 0.156325436 0.089919186
vt 0.156325437 0.062500000
vt 0.137671028 0.092373038
vt 0.138749254 0.030023903
vt 0.142354630 0.092373033
vt 0.138765799 0.030023903
vt 0.156325424 0.091499707
vt 0.156325424 0.092373034
vt 0.156325433 0.030023903
vt 0.156325430 0.034580346
vt 0.156325425 0.068701009
vt 0.937500000 0.003906250
vt 0.996093750 0.003906250
vt 0.996093750 0.121093750
vt 0.937500000 0.121093750
vt 0.966796875 0.003906250
vt 0.908203125 0.003906250
vt 0.908203125 0.121093750
vt 0.966796875 0.121093750
vt 0.878906250 0.003906250
vt 0.878906250 0.121093750
vt 0.996093750 0.062500000
vt 0.878906250 0.062500000
vt 0.973263400 0.075433051
vt 0.973263400 0.003906250
vt 0.973263400 0.121093750
vt 0.973263400 0.049566949
vt 0.908203125 0.098263434
vt 0.896787950 0.098263400
vt 0.942448649 0.098263400
vt 0.978212050 0.098263400
vt 0.966796875 0.098263434
vt 0.932551351 0.098263400
vt 0.133593753 0.118440449
vt 0.133300781 0.118440449
vt 0.133984372 0.121093750
vt 0.240234375 0.118440449
vt 0.246093750 0.118440449
vt 0.240234375 0.121093750
vt 0.238513694 0.118511895
vt 0.238513694 0.121093750
vt 0.238503175 0.118440449
vt 0.237647927 0.118741670
vt 0.239643492 0.118440449
vt 0.237647926 0.118813116
vt 0.133593738 0.121093750
vt 0.133569518 0.109185665
vt 0.133300781 0.109185665
vt 0.133496815 0.109227733
vt 0.240719062 0.109297844
vt 0.246093750 0.109297844
vt 0.240234375 0.109130795
vt 0.231388832 0.109185665
vt 0.142512000 0.109185665
vt 0.238503175 0.109185665
vt 0.239643492 0.115427812
vt 0.233562950 0.109185665
vt 0.239665287 0.109185665
vt 0.133593753 0.109185665
vt 0.237679482 0.115783809
vt 0.134765625 0.008593748
vt 0.240234375 0.008593748
vt 0.240519458 0.115783809
vt 0.134765625 0.113503168
vt 0.151016372 0.118880019
vt 0.151016372 0.118440449
vt 0.151586713 0.121093750
vt 0.133496816 0.109227733
vt 0.151016372 0.109185665
vt 0.152287072 0.026843234
vt 0.152238536 0.008593748
vt 0.152287072 0.113891455
vn -0.869394572 0.313465435 0.381958767
vn -0.869394386 0.313466222 0.381958543
vn -0.869394485 0.232926039 0.435773668
vn -0.869394561 0.232925708 0.435773694
vn -0.869394597 0.143434535 0.472842013
vn -0.869394489 0.143435005 0.472842068
vn -0.869394328 0.048432890 0.491739523
vn -0.869394562 0.048431907 0.491739205
vn -0.869394598 -0.048432740 0.491739060
vn -0.869394371 -0.048431867 0.491739547
vn -0.869394484 -0.143434888 0.472842113
vn -0.869394569 -0.143435173 0.472841870
vn -0.869394501 -0.232925585 0.435773879
vn -0.869394506 -0.232925597 0.435773863
vn -0.869394403 -0.313465884 0.381958783
vn -0.869394476 -0.313466030 0.381958496
vn -0.869394435 -0.381958602 0.313466016
vn -0.527143020 0.539093529 0.656885381
vn -0.527143401 0.400581549 0.749435960
vn -0.527143239 0.400581784 0.749435948
vn -0.527142736 0.246677064 0.813185687
vn -0.527143424 0.246676071 0.813185542
vn -0.527144161 0.083292299 0.845683999
vn -0.527142780 0.083294196 0.845684673
vn -0.527142694 -0.083292262 0.845684917
vn -0.527144086 -0.083294005 0.845683878
vn -0.527143615 -0.246677265 0.813185057
vn -0.527142768 -0.246676348 0.813185883
vn -0.527143651 -0.400581207 0.749435966
vn -0.527143633 -0.400581191 0.749435988
vn -0.527143395 -0.539093223 0.656885331
vn -0.527143601 -0.539093352 0.656885060
vn 0.000000000 0.471396668 0.881921301
vn 0.000000000 0.290283528 0.956940684
vn 0.000000000 0.098018919 0.995184551
vn 0.000000000 -0.098018787 0.995184564
vn 0.000000000 -0.290283716 0.956940627
vn 0.000000000 -0.471396105 0.881921602
vn 0.000000000 -0.634394490 0.773009463
vn -1.000000000 0.000000000 0.000000000
vn 0.000000000 0.471395902 0.881921711
vn 0.000000000 0.290284746 0.956940315
vn 0.000000000 0.098018210 0.995184621
vn 0.000000000 -0.098018147 0.995184628
vn 0.000000000 -0.290284746 0.956940315
vn 0.000000000 -0.471395767 0.881921783
vn 1.000000000 0.000000000 0.000000000
vn 0.000000000 0.500000303 0.866025229
vn 0.000000000 1.000000000 0.000000000
vn 0.000000000 0.500000303 -0.866025229
vn 0.000000000 -0.500000303 -0.866025229
vn 0.000000000 -1.000000000 0.000000000
vn 0.000000000 -0.500000303 0.866025229
vn 0.000000000 0.500001419 0.866024585
vn 0.000000000 0.500001419 -0.866024585
vn -0.577351715 0.577351715 0.577347378
vn 0.577351715 0.577351715 0.577347378
vn -0.707106781 0.707106781 0.000000000
vn -0.000000000 0.707109437 0.707104125
vn 0.707106781 0.707106781 0.000000000
vn -0.707109437 0.000000000 0.707104125
vn 0.707109437 -0.000000000 0.707104125
vn 0.000000000 0.000000000 1.000000000
usemtl mat_0
f 1/1/1 2/2/1 3/3/1
f 4/4/2 1/1/2 3/3/2 5/5/2
f 6/6/3 7/7/3 8/8/3 9/9/3
f 2/2/4 6/6/4 9/9/4 3/3/4
f 8/8/5 10/10/5 11/11/5
f 8/8/6 11/11/6 9/9/6
f 10/10/7 12/12/7 13/13/7
f 10/10/8 13/13/8 11/11/8
f 12/12/9 14/14/9 15/15/9
f 12/12/10 15/15/10 13/13/10
f 14/14/11 16/16/11 17/17/11
f 14/14/12 17/17/12 15/15/12
f 16/16/13 18/18/13 19/19/13 20/20/13
f 16/16/14 20/20/14 17/17/14
f 21/21/15 22/22/15 23/23/15 24/24/15
f 19/19/16 22/22/16 21/21/16
f 19/19/16 21/21/16 25/25/16
f 19/19/16 25/25/16 20/20/16
f 26/26/17 24/24/17 23/23/17
f 5/27/18 3/28/18 27/29/18
f 3/28/19 9/30/19 28/31/19
f 27/29/20 3/28/20 28/31/20 29/32/20
f 9/30/21 11/33/21 30/34/21
f 9/30/22 30/34/22 28/31/22
f 11/33/23 13/35/23 31/36/23
f 11/33/24 31/36/24 30/34/24
f 13/35/25 15/37/25 32/38/25
f 13/35/26 32/38/26 31/36/26
f 15/37/27 17/39/27 33/40/27
f 15/37/28 33/40/28 32/38/28
f 17/39/29 20/41/29 34/42/29
f 17/39/30 34/42/30 33/40/30
f 35/43/31 20/41/31 25/44/31
f 20/41/32 35/43/32 36/45/32 34/42/32
f 37/46/33 38/47/33 29/32/33
f 37/46/33 29/32/33 28/31/33
f 37/46/33 28/31/33 39/48/33
f 40/49/33 38/47/33 37/46/33
f 41/50/34 28/31/34 30/34/34 42/51/34
f 39/48/34 28/31/34 41/50/34
f 43/52/35 30/34/35 31/36/35 44/53/35
f 42/51/35 30/34/35 43/52/35
f 45/54/36 31/36/36 32/38/36 46/55/36
f 44/53/36 31/36/36 45/54/36
f 47/56/37 32/38/37 33/40/37 48/57/37
f 46/55/37 32/38/37 47/56/37
f 49/58/38 33/40/38 34/42/38 50/59/38
f 48/57/38 33/40/38 49/58/38
f 51/60/39 34/42/39 36/45/39
f 52/61/39 50/59/39 34/42/39 51/60/39
f 53/62/40 18/18/40 16/16/40
f 16/16/40 14/14/40 12/12/40
f 12/12/40 10/10/40 8/8/40
f 54/63/40 8/8/40 7/7/40
f 55/64/40 53/62/40 16/16/40 12/12/40
f 56/65/40 12/12/40 8/8/40 54/63/40
f 57/66/40 55/64/40 12/12/40
f 58/67/40 12/12/40 56/65/40
f 59/68/40 57/66/40 12/12/40
f 59/68/40 12/12/40 58/67/40
f 60/69/41 61/70/41 62/71/41 63/72/41
f 60/69/41 63/72/41 64/73/41
f 62/71/42 65/74/42 66/75/42
f 62/71/42 66/75/42 63/72/42
f 65/74/43 67/76/43 68/77/43
f 65/74/43 68/77/43 66/75/43
f 67/76/44 69/78/44 70/79/44
f 67/76/44 70/79/44 68/77/44
f 69/78/45 71/80/45 72/81/45
f 69/78/45 72/81/45 70/79/45
f 73/82/46 71/80/46 74/83/46
f 71/80/46 73/82/46 75/84/46 72/81/46
f 76/85/40 74/86/40 71/87/40
f 71/87/40 69/88/40 67/76/40
f 67/76/40 65/89/40 62/90/40
f 77/91/40 62/90/40 61/92/40
f 78/93/40 76/85/40 71/87/40 67/76/40
f 79/94/40 67/76/40 62/90/40 77/91/40
f 80/95/40 81/96/40 78/93/40 67/76/40
f 82/97/40 83/98/40 67/76/40 79/94/40
f 84/99/40 80/95/40 67/76/40
f 84/99/40 67/76/40 83/98/40
f 85/100/47 64/92/47 63/90/47 66/89/47
f 66/89/47 68/76/47 70/88/47
f 86/101/47 70/88/47 72/87/47 75/86/47
f 87/102/47 85/100/47 66/89/47
f 88/103/47 66/89/47 70/88/47 86/101/47
f 89/104/47 90/105/47 87/102/47 66/89/47
f 91/106/47 92/107/47 66/89/47 88/103/47
f 93/108/47 89/104/47 66/89/47
f 93/108/47 66/89/47 92/107/47
usemtl mat_1
f 94/109/48 95/110/48 96/111/48
f 94/109/48 96/111/48 97/112/48
f 95/113/49 98/114/49 99/115/49
f 95/113/49 99/115/49 96/116/49
f 98/110/50 100/109/50 101/112/50
f 98/110/50 101/112/50 99/111/50
f 100/109/51 102/117/51 103/118/51
f 100/109/51 103/118/51 101/112/51
f 102/114/52 104/113/52 105/116/52
f 102/114/52 105/116/52 103/115/52
f 104/117/53 94/109/53 97/112/53
f 104/117/53 97/112/53 105/118/53
f 94/119/47 104/113/47 102/114/47
f 102/114/47 100/120/47 98/115/47
f 98/115/47 95/116/47 94/119/47
f 102/114/47 98/115/47 94/119/47
f 105/113/40 97/119/40 96/116/40
f 96/116/40 99/115/40 101/120/40
f 101/120/40 103/114/40 105/113/40
f 96/116/40 101/120/40 105/113/40
f 106/121/54 107/109/54 108/122/54
f 107/109/54 106/121/54 109/123/54 110/112/54
f 111/124/55 112/122/55 113/109/55 114/112/55
f 111/124/55 114/112/55 115/123/55
f 113/109/51 116/117/51 117/118/51
f 113/109/51 117/118/51 114/112/51
f 116/114/52 118/113/52 119/116/52
f 116/114/52 119/116/52 117/115/52
f 118/117/53 107/109/53 110/112/53
f 118/117/53 110/112/53 119/118/53
f 107/119/47 118/113/47 116/114/47
f 120/125/47 116/114/47 113/120/47 112/126/47
f 121/127/47 108/128/47 107/119/47
f 116/114/47 120/125/47 121/127/47 107/119/47
f 122/129/40 119/113/40 110/119/40 109/128/40
f 123/130/40 115/126/40 114/120/40
f 114/120/40 117/114/40 119/113/40
f 122/129/40 123/130/40 114/120/40 119/113/40
f 124/109/48 125/110/48 126/111/48
f 124/109/48 126/111/48 127/112/48
f 125/113/49 128/114/49 129/115/49
f 125/113/49 129/115/49 126/116/49
f 128/110/50 130/109/50 131/112/50
f 128/110/50 131/112/50 129/111/50
f 130/109/51 132/117/51 133/118/51
f 130/109/51 133/118/51 131/112/51
f 132/114/52 134/113/52 135/116/52
f 132/114/52 135/116/52 133/115/52
f 134/117/53 124/109/53 127/112/53
f 134/117/53 127/112/53 135/118/53
f 124/119/47 134/113/47 132/114/47
f 132/114/47 130/120/47 128/115/47
f 128/115/47 125/116/47 124/119/47
f 132/114/47 128/115/47 124/119/47
f 135/113/40 127/119/40 126/116/40
f 126/116/40 129/115/40 131/120/40
f 131/120/40 133/114/40 135/113/40
f 126/116/40 131/120/40 135/113/40
f 136/109/48 137/110/48 138/111/48
f 136/109/48 138/111/48 139/112/48
f 137/113/49 140/114/49 141/115/49
f 137/113/49 141/115/49 138/116/49
f 140/110/50 142/109/50 143/112/50
f 140/110/50 143/112/50 141/111/50
f 142/109/51 144/117/51 145/118/51
f 142/109/51 145/118/51 143/112/51
f 144/114/52 146/113/52 147/116/52
f 144/114/52 147/116/52 145/115/52
f 146/117/53 136/109/53 139/112/53
f 146/117/53 139/112/53 147/118/53
f 136/119/47 146/113/47 144/114/47
f 144/114/47 142/120/47 140/115/47
f 140/115/47 137/116/47 136/119/47
f 144/114/47 140/115/47 136/119/47
f 147/113/40 139/119/40 138/116/40
f 138/116/40 141/115/40 143/120/40
f 143/120/40 145/114/40 147/113/40
f 138/116/40 143/120/40 147/113/40
usemtl mat_0
f 148/131/56 149/132/56 150/133/56
f 151/134/57 152/135/57 153/136/57
f 154/137/58 150/133/58 155/138/58
f 150/133/58 154/137/58 156/139/58 148/131/58
f 149/132/59 151/134/59 153/136/59
f 149/132/59 153/136/59 150/133/59
f 157/140/60 152/131/60 158/141/60
f 152/131/60 157/140/60 159/142/60 153/143/60
f 160/144/61 161/145/61 149/132/61 148/131/61
f 160/144/61 148/131/61 162/146/61
f 163/147/62 164/148/62 152/135/62 151/134/62
f 163/147/62 151/134/62 165/149/62
f 166/150/63 165/149/63 151/134/63
f 161/145/63 166/150/63 151/134/63 149/132/63
f 167/151/40 162/146/40 148/131/40
f 168/152/40 167/151/40 148/131/40 156/139/40
f 169/153/47 170/154/47 171/155/47
f 164/156/47 170/154/47 169/153/47
f 164/156/47 169/153/47 158/141/47
f 164/156/47 158/141/47 152/131/47
f 172/157/49 150/158/49 153/159/49 159/160/49
f 155/161/49 150/158/49 172/157/49
f 173/131/56 174/132/56 175/133/56
f 176/137/58 175/133/58 177/138/58
f 175/133/58 176/137/58 178/139/58 173/131/58
f 179/162/59 174/132/59 180/163/59
f 174/132/59 179/162/59 181/164/59 175/133/59
f 182/144/61 183/145/61 174/132/61 173/131/61
f 182/144/61 173/131/61 184/165/61
f 183/145/63 185/166/63 180/163/63 174/132/63
f 186/151/40 184/165/40 173/131/40
f 187/152/40 186/151/40 173/131/40 178/139/40
f 188/167/49 175/158/49 181/168/49
f 177/161/49 175/158/49 188/167/49 189/169/49
