# metre = block; Y up; per-cell coordinates; atlas UVs preserved
mtllib materials.mtl
o cell_12
usemtl pump_atlas
v 0.8250000 0.0751878 0.6220054
v 0.8950000 0.0916924 0.5390309
v 0.8950000 0.0000000 0.5300000
v 0.8250000 0.0751878 0.6220054
v 0.8950000 0.0000000 0.5300000
v 0.8250000 0.0000000 0.6146000
v 0.8250000 0.1474862 0.6439368
v 0.8950000 0.1798612 0.5657766
v 0.8950000 0.0916924 0.5390309
v 0.8250000 0.1474862 0.6439368
v 0.8950000 0.0916924 0.5390309
v 0.8250000 0.0751878 0.6220054
v 0.8250000 0.2141168 0.6795516
v 0.8950000 0.2611181 0.6092093
v 0.8950000 0.1798612 0.5657766
v 0.8250000 0.2141168 0.6795516
v 0.8950000 0.1798612 0.5657766
v 0.8250000 0.1474862 0.6439368
v 0.8250000 0.2725189 0.7274811
v 0.8950000 0.3323402 0.6676598
v 0.8950000 0.2611181 0.6092093
v 0.8250000 0.2725189 0.7274811
v 0.8950000 0.2611181 0.6092093
v 0.8250000 0.2141168 0.6795516
v 0.8250000 0.3204484 0.7858832
v 0.8950000 0.3907907 0.7388820
v 0.8950000 0.3323402 0.6676598
v 0.8250000 0.3204484 0.7858832
v 0.8950000 0.3323402 0.6676598
v 0.8250000 0.2725189 0.7274811
v 0.8250000 0.3560631 0.8525138
v 0.8950000 0.4342234 0.8201388
v 0.8950000 0.3907907 0.7388820
v 0.8250000 0.3560631 0.8525138
v 0.8950000 0.3907907 0.7388820
v 0.8250000 0.3204484 0.7858832
v 0.8250000 0.3779947 0.9248122
v 0.8950000 0.4609691 0.9083075
v 0.8950000 0.4342234 0.8201388
v 0.8250000 0.3779947 0.9248122
v 0.8950000 0.4342234 0.8201388
v 0.8250000 0.3560631 0.8525138
v 0.8250000 0.3854001 1.0000000
v 0.8950000 0.4700000 1.0000000
v 0.8950000 0.4609691 0.9083075
v 0.8250000 0.3854001 1.0000000
v 0.8950000 0.4609691 0.9083075
v 0.8250000 0.3779947 0.9248122
v 0.8950000 0.0916924 0.5390309
v 0.9650002 0.0916924 0.5390309
v 0.9650002 0.0000000 0.5300000
v 0.8950000 0.0916924 0.5390309
v 0.9650002 0.0000000 0.5300000
v 0.8950000 0.0000000 0.5300000
v 0.8950000 0.1798612 0.5657766
v 0.9650002 0.1798612 0.5657766
v 0.9650002 0.0916924 0.5390309
v 0.8950000 0.1798612 0.5657766
v 0.9650002 0.0916924 0.5390309
v 0.8950000 0.0916924 0.5390309
v 0.8950000 0.2611181 0.6092093
v 0.9650002 0.2611181 0.6092093
v 0.9650002 0.1798612 0.5657766
v 0.8950000 0.2611181 0.6092093
v 0.9650002 0.1798612 0.5657766
v 0.8950000 0.1798612 0.5657766
v 0.8950000 0.3323402 0.6676598
v 0.9650002 0.3323402 0.6676598
v 0.9650002 0.2611181 0.6092093
v 0.8950000 0.3323402 0.6676598
v 0.9650002 0.2611181 0.6092093
v 0.8950000 0.2611181 0.6092093
v 0.8950000 0.3907907 0.7388820
v 0.9650002 0.3907907 0.7388820
v 0.9650002 0.3323402 0.6676598
v 0.8950000 0.3907907 0.7388820
v 0.9650002 0.3323402 0.6676598
v 0.8950000 0.3323402 0.6676598
v 0.8950000 0.4342234 0.8201388
v 0.9650002 0.4342234 0.8201388
v 0.9650002 0.3907907 0.7388820
v 0.8950000 0.4342234 0.8201388
v 0.9650002 0.3907907 0.7388820
v 0.8950000 0.3907907 0.7388820
v 0.8950000 0.4609691 0.9083075
v 0.9650002 0.4609691 0.9083075
v 0.9650002 0.4342234 0.8201388
v 0.8950000 0.4609691 0.9083075
v 0.9650002 0.4342234 0.8201388
v 0.8950000 0.4342234 0.8201388
v 0.8950000 0.4700000 1.0000000
v 0.9650002 0.4700000 1.0000000
v 0.9650002 0.4609691 0.9083075
v 0.8950000 0.4700000 1.0000000
v 0.9650002 0.4609691 0.9083075
v 0.8950000 0.4609691 0.9083075
v 0.9650002 0.0916924 0.5390309
v 1.0000000 0.0916924 0.5390309
v 1.0000000 0.0893499 0.5388002
v 0.9650002 0.0916924 0.5390309
v 1.0000000 0.0893499 0.5388002
v 1.0000000 0.0000000 0.5300000
v 0.9650002 0.0916924 0.5390309
v 1.0000000 0.0000000 0.5300000
v 0.9650002 0.0000000 0.5300000
v 0.9650002 0.1798612 0.5657766
v 1.0000000 0.1798612 0.5657766
v 1.0000000 0.1776087 0.5650933
v 0.9650002 0.1798612 0.5657766
v 1.0000000 0.1776087 0.5650933
v 1.0000000 0.0916924 0.5390309
v 0.9650002 0.1798612 0.5657766
v 1.0000000 0.0916924 0.5390309
v 0.9650002 0.0916924 0.5390309
v 0.9650002 0.2611181 0.6092093
v 1.0000000 0.2611181 0.6092093
v 1.0000000 0.2590422 0.6080997
v 0.9650002 0.2611181 0.6092093
v 1.0000000 0.2590422 0.6080997
v 1.0000000 0.1798612 0.5657766
v 0.9650002 0.2611181 0.6092093
v 1.0000000 0.1798612 0.5657766
v 0.9650002 0.1798612 0.5657766
v 0.9650002 0.3323402 0.6676598
v 1.0000000 0.3323402 0.6676598
v 1.0000000 0.3305207 0.6661665
v 0.9650002 0.3323402 0.6676598
v 1.0000000 0.3305207 0.6661665
v 1.0000000 0.2611181 0.6092093
v 0.9650002 0.3323402 0.6676598
v 1.0000000 0.2611181 0.6092093
v 0.9650002 0.2611181 0.6092093
v 0.9650002 0.3907907 0.7388820
v 1.0000000 0.3907907 0.7388820
v 1.0000000 0.3892974 0.7370625
v 0.9650002 0.3907907 0.7388820
v 1.0000000 0.3892974 0.7370625
v 1.0000000 0.3323402 0.6676598
v 0.9650002 0.3907907 0.7388820
v 1.0000000 0.3323402 0.6676598
v 0.9650002 0.3323402 0.6676598
v 0.9650002 0.4342234 0.8201388
v 1.0000000 0.4342234 0.8201388
v 1.0000000 0.4331138 0.8180629
v 0.9650002 0.4342234 0.8201388
v 1.0000000 0.4331138 0.8180629
v 1.0000000 0.3907907 0.7388820
v 0.9650002 0.4342234 0.8201388
v 1.0000000 0.3907907 0.7388820
v 0.9650002 0.3907907 0.7388820
v 0.9650002 0.4609691 0.9083075
v 1.0000000 0.4609691 0.9083075
v 1.0000000 0.4602858 0.9060550
v 0.9650002 0.4609691 0.9083075
v 1.0000000 0.4602858 0.9060550
v 1.0000000 0.4342234 0.8201388
v 0.9650002 0.4609691 0.9083075
v 1.0000000 0.4342234 0.8201388
v 0.9650002 0.4342234 0.8201388
v 0.9650002 0.4700000 1.0000000
v 1.0000000 0.4700000 1.0000000
v 1.0000000 0.4697693 0.9976575
v 0.9650002 0.4700000 1.0000000
v 1.0000000 0.4697693 0.9976575
v 1.0000000 0.4609691 0.9083075
v 0.9650002 0.4700000 1.0000000
v 1.0000000 0.4609691 0.9083075
v 0.9650002 0.4609691 0.9083075
v 0.8250000 0.3854001 1.0000000
v 0.8250000 0.3779947 0.9248122
v 0.8250000 0.3162897 1.0000000
v 0.8250000 0.3162897 1.0000000
v 0.8250000 0.3779947 0.9248122
v 0.8250000 0.3560631 0.8525138
v 0.8250000 0.3162897 1.0000000
v 0.8250000 0.3560631 0.8525138
v 0.8250000 0.2575160 1.0000000
v 0.8250000 0.2575160 1.0000000
v 0.8250000 0.3560631 0.8525138
v 0.8250000 0.3204484 0.7858832
v 0.8250000 0.2575160 1.0000000
v 0.8250000 0.3204484 0.7858832
v 0.8250000 0.2060006 1.0000000
v 0.8250000 0.2060006 1.0000000
v 0.8250000 0.3204484 0.7858832
v 0.8250000 0.2725189 0.7274811
v 0.8250000 0.2060006 1.0000000
v 0.8250000 0.2725189 0.7274811
v 0.8250000 0.1596379 1.0000000
v 0.8250000 0.1596379 1.0000000
v 0.8250000 0.2725189 0.7274811
v 0.8250000 0.2141168 0.6795516
v 0.8250000 0.1596379 1.0000000
v 0.8250000 0.2141168 0.6795516
v 0.8250000 0.1169098 1.0000000
v 0.8250000 0.1169098 1.0000000
v 0.8250000 0.2141168 0.6795516
v 0.8250000 0.1474862 0.6439368
v 0.8250000 0.1169098 1.0000000
v 0.8250000 0.1474862 0.6439368
v 0.8250000 0.0766608 1.0000000
v 0.8250000 0.0766608 1.0000000
v 0.8250000 0.1474862 0.6439368
v 0.8250000 0.0751878 0.6220054
v 0.8250000 0.0766608 1.0000000
v 0.8250000 0.0751878 0.6220054
v 0.8250000 0.0379586 1.0000000
v 0.8250000 0.0379586 1.0000000
v 0.8250000 0.0751878 0.6220054
v 0.8250000 0.0000000 0.6146000
v 0.8250000 0.0379586 1.0000000
v 0.8250000 0.0000000 0.6146000
v 0.8250000 0.0000000 1.0000000
v 0.8900001 0.0958186 0.5182873
v 1.0000000 0.0958186 0.5182873
v 1.0000000 0.0000001 0.5088500
v 0.8900001 0.0958186 0.5182873
v 1.0000000 0.0000001 0.5088500
v 1.0000000 0.0000000 0.5088500
v 0.8900001 0.0958186 0.5182873
v 1.0000000 0.0000000 0.5088500
v 0.8900001 0.0000000 0.5088500
v 0.8900001 0.1879549 0.5462366
v 1.0000000 0.1879549 0.5462366
v 1.0000000 0.0958187 0.5182873
v 0.8900001 0.1879549 0.5462366
v 1.0000000 0.0958187 0.5182873
v 1.0000000 0.0958186 0.5182873
v 0.8900001 0.1879549 0.5462366
v 1.0000000 0.0958186 0.5182873
v 0.8900001 0.0958186 0.5182873
v 0.8900001 0.2728684 0.5916237
v 1.0000000 0.2728684 0.5916237
v 1.0000000 0.1879550 0.5462366
v 0.8900001 0.2728684 0.5916237
v 1.0000000 0.1879550 0.5462366
v 1.0000000 0.1879549 0.5462366
v 0.8900001 0.2728684 0.5916237
v 1.0000000 0.1879549 0.5462366
v 0.8900001 0.1879549 0.5462366
v 0.8900001 0.3472955 0.6527045
v 1.0000000 0.3472955 0.6527045
v 1.0000000 0.2728685 0.5916238
v 0.8900001 0.3472955 0.6527045
v 1.0000000 0.2728685 0.5916238
v 1.0000000 0.2728684 0.5916237
v 0.8900001 0.3472955 0.6527045
v 1.0000000 0.2728684 0.5916237
v 0.8900001 0.2728684 0.5916237
v 0.8900001 0.4083762 0.7271317
v 1.0000000 0.4083762 0.7271317
v 1.0000000 0.3472956 0.6527046
v 0.8900001 0.4083762 0.7271317
v 1.0000000 0.3472956 0.6527046
v 1.0000000 0.3472955 0.6527045
v 0.8900001 0.4083762 0.7271317
v 1.0000000 0.3472955 0.6527045
v 0.8900001 0.3472955 0.6527045
v 0.8900001 0.4537635 0.8120450
v 1.0000000 0.4537635 0.8120450
v 1.0000000 0.4083762 0.7271318
v 0.8900001 0.4537635 0.8120450
v 1.0000000 0.4083762 0.7271318
v 1.0000000 0.4083762 0.7271317
v 0.8900001 0.4537635 0.8120450
v 1.0000000 0.4083762 0.7271317
v 0.8900001 0.4083762 0.7271317
v 0.8900001 0.4817127 0.9041814
v 1.0000000 0.4817127 0.9041814
v 1.0000000 0.4537635 0.8120451
v 0.8900001 0.4817127 0.9041814
v 1.0000000 0.4537635 0.8120451
v 1.0000000 0.4537635 0.8120450
v 0.8900001 0.4817127 0.9041814
v 1.0000000 0.4537635 0.8120450
v 0.8900001 0.4537635 0.8120450
v 0.8900001 0.4911500 1.0000000
v 1.0000000 0.4911500 1.0000000
v 1.0000000 0.4817127 0.9041815
v 0.8900001 0.4911500 1.0000000
v 1.0000000 0.4817127 0.9041815
v 1.0000000 0.4817127 0.9041814
v 0.8900001 0.4911500 1.0000000
v 1.0000000 0.4817127 0.9041814
v 0.8900001 0.4817127 0.9041814
v 0.8900001 0.4911500 1.0000000
v 0.8900001 0.4817127 0.9041814
v 0.8900001 0.4030764 1.0000000
v 0.8900001 0.4030764 1.0000000
v 0.8900001 0.4817127 0.9041814
v 0.8900001 0.4537635 0.8120450
v 0.8900001 0.4030764 1.0000000
v 0.8900001 0.4537635 0.8120450
v 0.8900001 0.3281760 1.0000000
v 0.8900001 0.3281760 1.0000000
v 0.8900001 0.4537635 0.8120450
v 0.8900001 0.4083762 0.7271317
v 0.8900001 0.3281760 1.0000000
v 0.8900001 0.4083762 0.7271317
v 0.8900001 0.2625251 1.0000000
v 0.8900001 0.2625251 1.0000000
v 0.8900001 0.4083762 0.7271317
v 0.8900001 0.3472955 0.6527045
v 0.8900001 0.2625251 1.0000000
v 0.8900001 0.3472955 0.6527045
v 0.8900001 0.2034410 1.0000000
v 0.8900001 0.2034410 1.0000000
v 0.8900001 0.3472955 0.6527045
v 0.8900001 0.2728684 0.5916237
v 0.8900001 0.2034410 1.0000000
v 0.8900001 0.2728684 0.5916237
v 0.8900001 0.1489888 1.0000000
v 0.8900001 0.1489888 1.0000000
v 0.8900001 0.2728684 0.5916237
v 0.8900001 0.1879549 0.5462366
v 0.8900001 0.1489888 1.0000000
v 0.8900001 0.1879549 0.5462366
v 0.8900001 0.0976958 1.0000000
v 0.8900001 0.0976958 1.0000000
v 0.8900001 0.1879549 0.5462366
v 0.8900001 0.0958186 0.5182873
v 0.8900001 0.0976958 1.0000000
v 0.8900001 0.0958186 0.5182873
v 0.8900001 0.0483740 1.0000000
v 0.8900001 0.0483740 1.0000000
v 0.8900001 0.0958186 0.5182873
v 0.8900001 0.0000000 0.5088500
v 0.8900001 0.0483740 1.0000000
v 0.8900001 0.0000000 0.5088500
v 0.8900001 0.0000000 1.0000000
v 0.8859999 0.4437306 0.9305599
v 0.8636000 0.4437306 0.9305599
v 0.8636000 0.4194819 0.9445599
v 0.8859999 0.4437306 0.9305599
v 0.8636000 0.4194819 0.9445599
v 0.8859999 0.4194819 0.9445599
v 0.8859999 0.4437306 0.9025599
v 0.8636000 0.4437306 0.9025599
v 0.8636000 0.4437306 0.9305599
v 0.8859999 0.4437306 0.9025599
v 0.8636000 0.4437306 0.9305599
v 0.8859999 0.4437306 0.9305599
v 0.8859999 0.4194819 0.8885599
v 0.8636000 0.4194819 0.8885599
v 0.8636000 0.4437306 0.9025599
v 0.8859999 0.4194819 0.8885599
v 0.8636000 0.4437306 0.9025599
v 0.8859999 0.4437306 0.9025599
v 0.8859999 0.4194819 0.8885599
v 0.8859999 0.3952332 0.9025599
v 0.8636000 0.3952332 0.9025599
v 0.8859999 0.4194819 0.8885599
v 0.8636000 0.3952332 0.9025599
v 0.8636000 0.4194819 0.8885599
v 0.8859999 0.3952332 0.9025599
v 0.8859999 0.3952332 0.9305599
v 0.8636000 0.3952332 0.9305599
v 0.8859999 0.3952332 0.9025599
v 0.8636000 0.3952332 0.9305599
v 0.8636000 0.3952332 0.9025599
v 0.8859999 0.3952332 0.9305599
v 0.8859999 0.4194819 0.9445599
v 0.8636000 0.4194819 0.9445599
v 0.8859999 0.3952332 0.9305599
v 0.8636000 0.4194819 0.9445599
v 0.8636000 0.3952332 0.9305599
v 0.8859999 0.4194819 0.8885599
v 0.8859999 0.4437306 0.9025599
v 0.8859999 0.4437306 0.9305599
v 0.8859999 0.4194819 0.8885599
v 0.8859999 0.4437306 0.9305599
v 0.8859999 0.4194819 0.9445599
v 0.8859999 0.4194819 0.8885599
v 0.8859999 0.4194819 0.9445599
v 0.8859999 0.3952332 0.9305599
v 0.8859999 0.4194819 0.8885599
v 0.8859999 0.3952332 0.9305599
v 0.8859999 0.3952332 0.9025599
v 0.8636000 0.4194819 0.8885599
v 0.8636000 0.3952332 0.9025599
v 0.8636000 0.3952332 0.9305599
v 0.8636000 0.4194819 0.8885599
v 0.8636000 0.3952332 0.9305599
v 0.8636000 0.4194819 0.9445599
v 0.8636000 0.4194819 0.8885599
v 0.8636000 0.4194819 0.9445599
v 0.8636000 0.4437306 0.9305599
v 0.8636000 0.4194819 0.8885599
v 0.8636000 0.4437306 0.9305599
v 0.8636000 0.4437306 0.9025599
v 0.8859999 0.3798683 0.7763826
v 0.8636000 0.3798683 0.7763826
v 0.8636000 0.3556195 0.7903826
v 0.8859999 0.3798683 0.7763826
v 0.8636000 0.3556195 0.7903826
v 0.8859999 0.3556195 0.7903826
v 0.8859999 0.3798683 0.7483826
v 0.8636000 0.3798683 0.7483826
v 0.8636000 0.3798683 0.7763826
v 0.8859999 0.3798683 0.7483826
v 0.8636000 0.3798683 0.7763826
v 0.8859999 0.3798683 0.7763826
v 0.8859999 0.3556195 0.7343826
v 0.8636000 0.3556195 0.7343826
v 0.8636000 0.3798683 0.7483826
v 0.8859999 0.3556195 0.7343826
v 0.8636000 0.3798683 0.7483826
v 0.8859999 0.3798683 0.7483826
v 0.8859999 0.3556195 0.7343826
v 0.8859999 0.3313708 0.7483826
v 0.8636000 0.3313708 0.7483826
v 0.8859999 0.3556195 0.7343826
v 0.8636000 0.3313708 0.7483826
v 0.8636000 0.3556195 0.7343826
v 0.8859999 0.3313708 0.7483826
v 0.8859999 0.3313708 0.7763826
v 0.8636000 0.3313708 0.7763826
v 0.8859999 0.3313708 0.7483826
v 0.8636000 0.3313708 0.7763826
v 0.8636000 0.3313708 0.7483826
v 0.8859999 0.3313708 0.7763826
v 0.8859999 0.3556195 0.7903826
v 0.8636000 0.3556195 0.7903826
v 0.8859999 0.3313708 0.7763826
v 0.8636000 0.3556195 0.7903826
v 0.8636000 0.3313708 0.7763826
v 0.8859999 0.3556195 0.7343826
v 0.8859999 0.3798683 0.7483826
v 0.8859999 0.3798683 0.7763826
v 0.8859999 0.3556195 0.7343826
v 0.8859999 0.3798683 0.7763826
v 0.8859999 0.3556195 0.7903826
v 0.8859999 0.3556195 0.7343826
v 0.8859999 0.3556195 0.7903826
v 0.8859999 0.3313708 0.7763826
v 0.8859999 0.3556195 0.7343826
v 0.8859999 0.3313708 0.7763826
v 0.8859999 0.3313708 0.7483826
v 0.8636000 0.3556195 0.7343826
v 0.8636000 0.3313708 0.7483826
v 0.8636000 0.3313708 0.7763826
v 0.8636000 0.3556195 0.7343826
v 0.8636000 0.3313708 0.7763826
v 0.8636000 0.3556195 0.7903826
v 0.8636000 0.3556195 0.7343826
v 0.8636000 0.3556195 0.7903826
v 0.8636000 0.3798683 0.7763826
v 0.8636000 0.3556195 0.7343826
v 0.8636000 0.3798683 0.7763826
v 0.8636000 0.3798683 0.7483826
v 0.8859999 0.2618661 0.6583804
v 0.8636000 0.2618661 0.6583804
v 0.8636000 0.2376174 0.6723804
v 0.8859999 0.2618661 0.6583804
v 0.8636000 0.2376174 0.6723804
v 0.8859999 0.2376174 0.6723804
v 0.8859999 0.2618661 0.6303805
v 0.8636000 0.2618661 0.6303805
v 0.8636000 0.2618661 0.6583804
v 0.8859999 0.2618661 0.6303805
v 0.8636000 0.2618661 0.6583804
v 0.8859999 0.2618661 0.6583804
v 0.8859999 0.2376174 0.6163805
v 0.8636000 0.2376174 0.6163805
v 0.8636000 0.2618661 0.6303805
v 0.8859999 0.2376174 0.6163805
v 0.8636000 0.2618661 0.6303805
v 0.8859999 0.2618661 0.6303805
v 0.8859999 0.2376174 0.6163805
v 0.8859999 0.2133687 0.6303805
v 0.8636000 0.2133687 0.6303805
v 0.8859999 0.2376174 0.6163805
v 0.8636000 0.2133687 0.6303805
v 0.8636000 0.2376174 0.6163805
v 0.8859999 0.2133687 0.6303805
v 0.8859999 0.2133687 0.6583804
v 0.8636000 0.2133687 0.6583804
v 0.8859999 0.2133687 0.6303805
v 0.8636000 0.2133687 0.6583804
v 0.8636000 0.2133687 0.6303805
v 0.8859999 0.2133687 0.6583804
v 0.8859999 0.2376174 0.6723804
v 0.8636000 0.2376174 0.6723804
v 0.8859999 0.2133687 0.6583804
v 0.8636000 0.2376174 0.6723804
v 0.8636000 0.2133687 0.6583804
v 0.8859999 0.2376174 0.6163805
v 0.8859999 0.2618661 0.6303805
v 0.8859999 0.2618661 0.6583804
v 0.8859999 0.2376174 0.6163805
v 0.8859999 0.2618661 0.6583804
v 0.8859999 0.2376174 0.6723804
v 0.8859999 0.2376174 0.6163805
v 0.8859999 0.2376174 0.6723804
v 0.8859999 0.2133687 0.6583804
v 0.8859999 0.2376174 0.6163805
v 0.8859999 0.2133687 0.6583804
v 0.8859999 0.2133687 0.6303805
v 0.8636000 0.2376174 0.6163805
v 0.8636000 0.2133687 0.6303805
v 0.8636000 0.2133687 0.6583804
v 0.8636000 0.2376174 0.6163805
v 0.8636000 0.2133687 0.6583804
v 0.8636000 0.2376174 0.6723804
v 0.8636000 0.2376174 0.6163805
v 0.8636000 0.2376174 0.6723804
v 0.8636000 0.2618661 0.6583804
v 0.8636000 0.2376174 0.6163805
v 0.8636000 0.2618661 0.6583804
v 0.8636000 0.2618661 0.6303805
v 0.8859999 0.1076889 0.5945181
v 0.8636000 0.1076889 0.5945181
v 0.8636000 0.0834402 0.6085181
v 0.8859999 0.1076889 0.5945181
v 0.8636000 0.0834402 0.6085181
v 0.8859999 0.0834402 0.6085181
v 0.8859999 0.1076889 0.5665181
v 0.8636000 0.1076889 0.5665181
v 0.8636000 0.1076889 0.5945181
v 0.8859999 0.1076889 0.5665181
v 0.8636000 0.1076889 0.5945181
v 0.8859999 0.1076889 0.5945181
v 0.8859999 0.0834402 0.5525181
v 0.8636000 0.0834402 0.5525181
v 0.8636000 0.1076889 0.5665181
v 0.8859999 0.0834402 0.5525181
v 0.8636000 0.1076889 0.5665181
v 0.8859999 0.1076889 0.5665181
v 0.8859999 0.0834402 0.5525181
v 0.8859999 0.0591915 0.5665181
v 0.8636000 0.0591915 0.5665181
v 0.8859999 0.0834402 0.5525181
v 0.8636000 0.0591915 0.5665181
v 0.8636000 0.0834402 0.5525181
v 0.8859999 0.0591915 0.5665181
v 0.8859999 0.0591915 0.5945181
v 0.8636000 0.0591915 0.5945181
v 0.8859999 0.0591915 0.5665181
v 0.8636000 0.0591915 0.5945181
v 0.8636000 0.0591915 0.5665181
v 0.8859999 0.0591915 0.5945181
v 0.8859999 0.0834402 0.6085181
v 0.8636000 0.0834402 0.6085181
v 0.8859999 0.0591915 0.5945181
v 0.8636000 0.0834402 0.6085181
v 0.8636000 0.0591915 0.5945181
v 0.8859999 0.0834402 0.5525181
v 0.8859999 0.1076889 0.5665181
v 0.8859999 0.1076889 0.5945181
v 0.8859999 0.0834402 0.5525181
v 0.8859999 0.1076889 0.5945181
v 0.8859999 0.0834402 0.6085181
v 0.8859999 0.0834402 0.5525181
v 0.8859999 0.0834402 0.6085181
v 0.8859999 0.0591915 0.5945181
v 0.8859999 0.0834402 0.5525181
v 0.8859999 0.0591915 0.5945181
v 0.8859999 0.0591915 0.5665181
v 0.8636000 0.0834402 0.5525181
v 0.8636000 0.0591915 0.5665181
v 0.8636000 0.0591915 0.5945181
v 0.8636000 0.0834402 0.5525181
v 0.8636000 0.0591915 0.5945181
v 0.8636000 0.0834402 0.6085181
v 0.8636000 0.0834402 0.5525181
v 0.8636000 0.0834402 0.6085181
v 0.8636000 0.1076889 0.5945181
v 0.8636000 0.0834402 0.5525181
v 0.8636000 0.1076889 0.5945181
v 0.8636000 0.1076889 0.5665181
v 0.9976332 0.2584999 0.9534126
v 0.9976332 0.8750000 0.9534126
v 1.0000000 0.8750000 0.9476986
v 0.9976332 0.2584999 0.9534126
v 1.0000000 0.8750000 0.9476986
v 1.0000000 0.3396435 0.9476986
v 0.9976332 0.2584999 0.9534126
v 1.0000000 0.3396435 0.9476986
v 1.0000000 0.2584999 0.9476986
v 0.9914999 0.2584999 1.0000000
v 0.9914999 0.8750000 1.0000000
v 0.9976332 0.8750000 0.9534126
v 0.9914999 0.2584999 1.0000000
v 0.9976332 0.8750000 0.9534126
v 0.9976332 0.2584999 0.9534126
v 0.9976332 0.8750000 0.9534126
v 1.0000000 0.8750000 0.9540468
v 1.0000000 0.8750000 0.9509864
v 0.9976332 0.8750000 0.9534126
v 1.0000000 0.8750000 0.9509864
v 1.0000000 0.8750000 0.9476986
v 0.9914999 0.8750000 1.0000000
v 1.0000000 0.8750000 1.0000000
v 1.0000000 0.8750000 0.9848471
v 0.9914999 0.8750000 1.0000000
v 1.0000000 0.8750000 0.9848471
v 1.0000000 0.8750000 0.9540468
v 0.9914999 0.8750000 1.0000000
v 1.0000000 0.8750000 0.9540468
v 0.9976332 0.8750000 0.9534126
v 0.9976332 0.2584999 0.9534126
v 1.0000000 0.2584999 0.9476986
v 1.0000000 0.2584999 0.9509864
v 0.9976332 0.2584999 0.9534126
v 1.0000000 0.2584999 0.9509864
v 1.0000000 0.2584999 0.9540468
v 0.9914999 0.2584999 1.0000000
v 0.9976332 0.2584999 0.9534126
v 1.0000000 0.2584999 0.9540468
v 0.9914999 0.2584999 1.0000000
v 1.0000000 0.2584999 0.9540468
v 1.0000000 0.2584999 0.9848471
v 0.9914999 0.2584999 1.0000000
v 1.0000000 0.2584999 0.9848471
v 1.0000000 0.2584999 1.0000000
v 0.9657323 0.8549999 0.8812000
v 0.9657323 0.9299999 0.8812000
v 1.0000000 0.9299999 0.8365415
v 0.9657323 0.8549999 0.8812000
v 1.0000000 0.9299999 0.8365415
v 1.0000000 0.9230650 0.8365415
v 0.9657323 0.8549999 0.8812000
v 1.0000000 0.9230650 0.8365415
v 1.0000000 0.8549999 0.8365415
v 0.9419961 0.8549999 0.9385046
v 0.9419961 0.9299999 0.9385046
v 0.9657323 0.9299999 0.8812000
v 0.9419961 0.8549999 0.9385046
v 0.9657323 0.9299999 0.8812000
v 0.9657323 0.8549999 0.8812000
v 0.9338999 0.8549999 1.0000000
v 0.9338999 0.9299999 1.0000000
v 0.9419961 0.9299999 0.9385046
v 0.9338999 0.8549999 1.0000000
v 0.9419961 0.9299999 0.9385046
v 0.9419961 0.8549999 0.9385046
v 0.9657323 0.9299999 0.8812000
v 1.0000000 0.9299999 0.9009845
v 1.0000000 0.9299999 0.8840583
v 0.9657323 0.9299999 0.8812000
v 1.0000000 0.9299999 0.8840583
v 1.0000000 0.9299999 0.8365415
v 0.9419961 0.9299999 0.9385046
v 1.0000000 0.9299999 0.9540467
v 1.0000000 0.9299999 0.9280347
v 0.9419961 0.9299999 0.9385046
v 1.0000000 0.9299999 0.9280347
v 1.0000000 0.9299999 0.9009845
v 0.9419961 0.9299999 0.9385046
v 1.0000000 0.9299999 0.9009845
v 0.9657323 0.9299999 0.8812000
v 0.9338999 0.9299999 1.0000000
v 1.0000000 0.9299999 1.0000000
v 1.0000000 0.9299999 0.9688508
v 0.9338999 0.9299999 1.0000000
v 1.0000000 0.9299999 0.9688508
v 1.0000000 0.9299999 0.9540467
v 0.9338999 0.9299999 1.0000000
v 1.0000000 0.9299999 0.9540467
v 0.9419961 0.9299999 0.9385046
v 0.9657323 0.8549999 0.8812000
v 1.0000000 0.8549999 0.8365415
v 1.0000000 0.8549999 0.8840583
v 0.9657323 0.8549999 0.8812000
v 1.0000000 0.8549999 0.8840583
v 1.0000000 0.8549999 0.9009845
v 0.9419961 0.8549999 0.9385046
v 0.9657323 0.8549999 0.8812000
v 1.0000000 0.8549999 0.9009845
v 0.9419961 0.8549999 0.9385046
v 1.0000000 0.8549999 0.9009845
v 1.0000000 0.8549999 0.9280347
v 0.9419961 0.8549999 0.9385046
v 1.0000000 0.8549999 0.9280347
v 1.0000000 0.8549999 0.9540467
v 0.9338999 0.8549999 1.0000000
v 0.9419961 0.8549999 0.9385046
v 1.0000000 0.8549999 0.9540467
v 0.9338999 0.8549999 1.0000000
v 1.0000000 0.8549999 0.9540467
v 1.0000000 0.8549999 0.9688508
v 0.9338999 0.8549999 1.0000000
v 1.0000000 0.8549999 0.9688508
v 1.0000000 0.8549999 1.0000000
v 0.9760034 0.9299999 0.9381458
v 0.9760034 0.9442559 0.9381458
v 0.9670935 0.9442559 0.9227133
v 0.9760034 0.9299999 0.9381458
v 0.9670935 0.9442559 0.9227133
v 0.9670935 0.9299999 0.9227133
v 0.9938233 0.9299999 0.9381458
v 0.9938233 0.9442559 0.9381458
v 0.9760034 0.9442559 0.9381458
v 0.9938233 0.9299999 0.9381458
v 0.9760034 0.9442559 0.9381458
v 0.9760034 0.9299999 0.9381458
v 1.0000000 0.9442559 0.9274475
v 0.9938233 0.9442559 0.9381458
v 1.0000000 0.9343732 0.9274475
v 1.0000000 0.9343732 0.9274475
v 0.9938233 0.9442559 0.9381458
v 0.9938233 0.9299999 0.9381458
v 1.0000000 0.9343732 0.9274475
v 0.9938233 0.9299999 0.9381458
v 1.0000000 0.9299999 0.9274475
v 1.0000000 0.9299999 0.9179791
v 0.9938233 0.9299999 0.9072807
v 0.9938233 0.9442559 0.9072807
v 1.0000000 0.9299999 0.9179791
v 0.9938233 0.9442559 0.9072807
v 1.0000000 0.9343732 0.9179791
v 1.0000000 0.9343732 0.9179791
v 0.9938233 0.9442559 0.9072807
v 1.0000000 0.9442559 0.9179791
v 0.9938233 0.9299999 0.9072807
v 0.9760034 0.9299999 0.9072807
v 0.9760034 0.9442559 0.9072807
v 0.9938233 0.9299999 0.9072807
v 0.9760034 0.9442559 0.9072807
v 0.9938233 0.9442559 0.9072807
v 0.9760034 0.9299999 0.9072807
v 0.9670935 0.9299999 0.9227133
v 0.9670935 0.9442559 0.9227133
v 0.9760034 0.9299999 0.9072807
v 0.9670935 0.9442559 0.9227133
v 0.9760034 0.9442559 0.9072807
v 1.0000000 0.9299999 0.9274475
v 0.9938233 0.9299999 0.9381458
v 0.9760034 0.9299999 0.9381458
v 1.0000000 0.9299999 0.9274475
v 0.9760034 0.9299999 0.9381458
v 1.0000000 0.9299999 0.9242914
v 1.0000000 0.9299999 0.9242914
v 0.9760034 0.9299999 0.9381458
v 0.9670935 0.9299999 0.9227133
v 1.0000000 0.9299999 0.9242914
v 0.9670935 0.9299999 0.9227133
v 1.0000000 0.9299999 0.9227133
v 1.0000000 0.9299999 0.9227133
v 0.9670935 0.9299999 0.9227133
v 0.9760034 0.9299999 0.9072807
v 1.0000000 0.9299999 0.9227133
v 0.9760034 0.9299999 0.9072807
v 1.0000000 0.9299999 0.9211352
v 1.0000000 0.9299999 0.9211352
v 0.9760034 0.9299999 0.9072807
v 0.9938233 0.9299999 0.9072807
v 1.0000000 0.9299999 0.9211352
v 0.9938233 0.9299999 0.9072807
v 1.0000000 0.9299999 0.9179791
v 1.0000000 0.9442559 0.9179791
v 0.9938233 0.9442559 0.9072807
v 0.9760034 0.9442559 0.9072807
v 1.0000000 0.9442559 0.9179791
v 0.9760034 0.9442559 0.9072807
v 1.0000000 0.9442559 0.9211352
v 1.0000000 0.9442559 0.9211352
v 0.9760034 0.9442559 0.9072807
v 0.9670935 0.9442559 0.9227133
v 1.0000000 0.9442559 0.9211352
v 0.9670935 0.9442559 0.9227133
v 1.0000000 0.9442559 0.9227133
v 1.0000000 0.9442559 0.9227133
v 0.9670935 0.9442559 0.9227133
v 0.9760034 0.9442559 0.9381458
v 1.0000000 0.9442559 0.9227133
v 0.9760034 0.9442559 0.9381458
v 1.0000000 0.9442559 0.9242914
v 1.0000000 0.9442559 0.9242914
v 0.9760034 0.9442559 0.9381458
v 0.9938233 0.9442559 0.9381458
v 1.0000000 0.9442559 0.9242914
v 0.9938233 0.9442559 0.9381458
v 1.0000000 0.9442559 0.9274475
vt 0.7346237 0.0718735
vt 0.7449679 0.0739311
vt 0.7460938 0.0625000
vt 0.7346237 0.0718735
vt 0.7460938 0.0625000
vt 0.7355469 0.0625000
vt 0.7318895 0.0808867
vt 0.7416335 0.0849229
vt 0.7449679 0.0739311
vt 0.7318895 0.0808867
vt 0.7449679 0.0739311
vt 0.7346237 0.0718735
vt 0.7274495 0.0891934
vt 0.7362189 0.0950530
vt 0.7416335 0.0849229
vt 0.7274495 0.0891934
vt 0.7416335 0.0849229
vt 0.7318895 0.0808867
vt 0.7214743 0.0964743
vt 0.7289320 0.1039320
vt 0.7362189 0.0950530
vt 0.7214743 0.0964743
vt 0.7362189 0.0950530
vt 0.7274495 0.0891934
vt 0.7141934 0.1024495
vt 0.7200530 0.1112189
vt 0.7289320 0.1039320
vt 0.7141934 0.1024495
vt 0.7289320 0.1039320
vt 0.7214743 0.0964743
vt 0.7058867 0.1068895
vt 0.7099229 0.1166336
vt 0.7200530 0.1112189
vt 0.7058867 0.1068895
vt 0.7200530 0.1112189
vt 0.7141934 0.1024495
vt 0.6968735 0.1096237
vt 0.6989311 0.1199679
vt 0.7099229 0.1166336
vt 0.6968735 0.1096237
vt 0.7099229 0.1166336
vt 0.7058867 0.1068895
vt 0.6875000 0.1105469
vt 0.6875000 0.1210938
vt 0.6989311 0.1199679
vt 0.6875000 0.1105469
vt 0.6989311 0.1199679
vt 0.6968735 0.1096237
vt 0.6338778 0.0739311
vt 0.6388494 0.0739311
vt 0.6388494 0.0625000
vt 0.6338778 0.0739311
vt 0.6388494 0.0625000
vt 0.6338778 0.0625000
vt 0.6338778 0.0849229
vt 0.6388494 0.0849229
vt 0.6388494 0.0739311
vt 0.6338778 0.0849229
vt 0.6388494 0.0739311
vt 0.6338778 0.0739311
vt 0.6338778 0.0950530
vt 0.6388494 0.0950530
vt 0.6388494 0.0849229
vt 0.6338778 0.0950530
vt 0.6388494 0.0849229
vt 0.6338778 0.0849229
vt 0.6338778 0.1039320
vt 0.6388494 0.1039320
vt 0.6388494 0.0950530
vt 0.6338778 0.1039320
vt 0.6388494 0.0950530
vt 0.6338778 0.0950530
vt 0.6338778 0.0950529
vt 0.6388494 0.0950529
vt 0.6388494 0.1039320
vt 0.6338778 0.0950529
vt 0.6388494 0.1039320
vt 0.6338778 0.1039320
vt 0.6338778 0.0849229
vt 0.6388494 0.0849229
vt 0.6388494 0.0950529
vt 0.6338778 0.0849229
vt 0.6388494 0.0950529
vt 0.6338778 0.0950529
vt 0.6338778 0.0739311
vt 0.6388494 0.0739311
vt 0.6388494 0.0849229
vt 0.6338778 0.0739311
vt 0.6388494 0.0849229
vt 0.6338778 0.0849229
vt 0.6338778 0.0625000
vt 0.6388494 0.0625000
vt 0.6388494 0.0739311
vt 0.6338778 0.0625000
vt 0.6388494 0.0739311
vt 0.6338778 0.0739311
vt 0.6388494 0.0739311
vt 0.6413352 0.0739311
vt 0.6413352 0.0736391
vt 0.6388494 0.0739311
vt 0.6413352 0.0736391
vt 0.6413352 0.0625000
vt 0.6388494 0.0739311
vt 0.6413352 0.0625000
vt 0.6388494 0.0625000
vt 0.6388494 0.0849229
vt 0.6413352 0.0849229
vt 0.6413352 0.0846421
vt 0.6388494 0.0849229
vt 0.6413352 0.0846421
vt 0.6413352 0.0739311
vt 0.6388494 0.0849229
vt 0.6413352 0.0739311
vt 0.6388494 0.0739311
vt 0.6388494 0.0950530
vt 0.6413352 0.0950530
vt 0.6413352 0.0947942
vt 0.6388494 0.0950530
vt 0.6413352 0.0947942
vt 0.6413352 0.0849229
vt 0.6388494 0.0950530
vt 0.6413352 0.0849229
vt 0.6388494 0.0849229
vt 0.6388494 0.1039320
vt 0.6413352 0.1039320
vt 0.6413352 0.1037052
vt 0.6388494 0.1039320
vt 0.6413352 0.1037052
vt 0.6413352 0.0950530
vt 0.6388494 0.1039320
vt 0.6413352 0.0950530
vt 0.6388494 0.0950530
vt 0.6388494 0.0950529
vt 0.6413352 0.0950529
vt 0.6413352 0.0952797
vt 0.6388494 0.0950529
vt 0.6413352 0.0952797
vt 0.6413352 0.1039320
vt 0.6388494 0.0950529
vt 0.6413352 0.1039320
vt 0.6388494 0.1039320
vt 0.6388494 0.0849229
vt 0.6413352 0.0849229
vt 0.6413352 0.0851817
vt 0.6388494 0.0849229
vt 0.6413352 0.0851817
vt 0.6413352 0.0950529
vt 0.6388494 0.0849229
vt 0.6413352 0.0950529
vt 0.6388494 0.0950529
vt 0.6388494 0.0739311
vt 0.6413352 0.0739311
vt 0.6413352 0.0742119
vt 0.6388494 0.0739311
vt 0.6413352 0.0742119
vt 0.6413352 0.0849229
vt 0.6388494 0.0739311
vt 0.6413352 0.0849229
vt 0.6388494 0.0849229
vt 0.6388494 0.0625000
vt 0.6413352 0.0625000
vt 0.6413352 0.0627920
vt 0.6388494 0.0625000
vt 0.6413352 0.0627920
vt 0.6413352 0.0739311
vt 0.6388494 0.0625000
vt 0.6413352 0.0739311
vt 0.6388494 0.0739311
vt 0.6875000 0.1105469
vt 0.6968735 0.1096237
vt 0.6875000 0.1019311
vt 0.6875000 0.1019311
vt 0.6968735 0.1096237
vt 0.7058867 0.1068895
vt 0.6875000 0.1019311
vt 0.7058867 0.1068895
vt 0.6875000 0.0946039
vt 0.6875000 0.0946039
vt 0.7058867 0.1068895
vt 0.7141934 0.1024495
vt 0.6875000 0.0946039
vt 0.7141934 0.1024495
vt 0.6875000 0.0881816
vt 0.6875000 0.0881816
vt 0.7141934 0.1024495
vt 0.7214743 0.0964743
vt 0.6875000 0.0881816
vt 0.7214743 0.0964743
vt 0.6875000 0.0824017
vt 0.6875000 0.0824017
vt 0.7214743 0.0964743
vt 0.7274495 0.0891934
vt 0.6875000 0.0824017
vt 0.7274495 0.0891934
vt 0.6875000 0.0770749
vt 0.6875000 0.0770749
vt 0.7274495 0.0891934
vt 0.7318895 0.0808867
vt 0.6875000 0.0770749
vt 0.7318895 0.0808867
vt 0.6875000 0.0720571
vt 0.6875000 0.0720571
vt 0.7318895 0.0808867
vt 0.7346237 0.0718735
vt 0.6875000 0.0720571
vt 0.7346237 0.0718735
vt 0.6875000 0.0672322
vt 0.6875000 0.0672322
vt 0.7346237 0.0718735
vt 0.7355469 0.0625000
vt 0.6875000 0.0672322
vt 0.7355469 0.0625000
vt 0.6875000 0.0625000
vt 0.6289062 0.0739311
vt 0.7460937 0.0739311
vt 0.7460937 0.0625000
vt 0.6289062 0.0739311
vt 0.7460937 0.0625000
vt 0.7460937 0.0625000
vt 0.6289062 0.0739311
vt 0.7460937 0.0625000
vt 0.6289062 0.0625000
vt 0.6289062 0.0849229
vt 0.7460937 0.0849229
vt 0.7460937 0.0739311
vt 0.6289062 0.0849229
vt 0.7460937 0.0739311
vt 0.7460937 0.0739311
vt 0.6289062 0.0849229
vt 0.7460937 0.0739311
vt 0.6289062 0.0739311
vt 0.6289062 0.0950530
vt 0.7460937 0.0950530
vt 0.7460937 0.0849229
vt 0.6289062 0.0950530
vt 0.7460937 0.0849229
vt 0.7460937 0.0849229
vt 0.6289062 0.0950530
vt 0.7460937 0.0849229
vt 0.6289062 0.0849229
vt 0.6289062 0.1039320
vt 0.7460937 0.1039320
vt 0.7460937 0.0950530
vt 0.6289062 0.1039320
vt 0.7460937 0.0950530
vt 0.7460937 0.0950530
vt 0.6289062 0.1039320
vt 0.7460937 0.0950530
vt 0.6289062 0.0950530
vt 0.6289062 0.0950529
vt 0.7460937 0.0950529
vt 0.7460937 0.1039320
vt 0.6289062 0.0950529
vt 0.7460937 0.1039320
vt 0.7460937 0.1039320
vt 0.6289062 0.0950529
vt 0.7460937 0.1039320
vt 0.6289062 0.1039320
vt 0.6289062 0.0849229
vt 0.7460937 0.0849229
vt 0.7460937 0.0950529
vt 0.6289062 0.0849229
vt 0.7460937 0.0950529
vt 0.7460937 0.0950529
vt 0.6289062 0.0849229
vt 0.7460937 0.0950529
vt 0.6289062 0.0950529
vt 0.6289062 0.0739311
vt 0.7460937 0.0739311
vt 0.7460937 0.0849229
vt 0.6289062 0.0739311
vt 0.7460937 0.0849229
vt 0.7460937 0.0849229
vt 0.6289062 0.0739311
vt 0.7460937 0.0849229
vt 0.6289062 0.0849229
vt 0.6289062 0.0625000
vt 0.7460937 0.0625000
vt 0.7460937 0.0739311
vt 0.6289062 0.0625000
vt 0.7460937 0.0739311
vt 0.7460937 0.0739311
vt 0.6289062 0.0625000
vt 0.7460937 0.0739311
vt 0.6289062 0.0739311
vt 0.6875000 0.1210938
vt 0.6989311 0.1199679
vt 0.6875000 0.1105867
vt 0.6875000 0.1105867
vt 0.6989311 0.1199679
vt 0.7099229 0.1166336
vt 0.6875000 0.1105867
vt 0.7099229 0.1166336
vt 0.6875000 0.1016511
vt 0.6875000 0.1016511
vt 0.7099229 0.1166336
vt 0.7200530 0.1112189
vt 0.6875000 0.1016511
vt 0.7200530 0.1112189
vt 0.6875000 0.0938190
vt 0.6875000 0.0938190
vt 0.7200530 0.1112189
vt 0.7289320 0.1039320
vt 0.6875000 0.0938190
vt 0.7289320 0.1039320
vt 0.6875000 0.0867703
vt 0.6875000 0.0867703
vt 0.7289320 0.1039320
vt 0.7362189 0.0950530
vt 0.6875000 0.0867703
vt 0.7362189 0.0950530
vt 0.6875000 0.0802743
vt 0.6875000 0.0802743
vt 0.7362189 0.0950530
vt 0.7416336 0.0849229
vt 0.6875000 0.0802743
vt 0.7416336 0.0849229
vt 0.6875000 0.0741550
vt 0.6875000 0.0741550
vt 0.7416336 0.0849229
vt 0.7449679 0.0739311
vt 0.6875000 0.0741550
vt 0.7449679 0.0739311
vt 0.6875000 0.0682710
vt 0.6875000 0.0682710
vt 0.7449679 0.0739311
vt 0.7460938 0.0625000
vt 0.6875000 0.0682710
vt 0.7460938 0.0625000
vt 0.6875000 0.0625000
vt 0.9960938 0.0039062
vt 0.9960938 0.1210938
vt 0.9375000 0.1210938
vt 0.9960938 0.0039062
vt 0.9375000 0.1210938
vt 0.9375000 0.0039062
vt 0.9082031 0.0039062
vt 0.9082031 0.1210938
vt 0.9667969 0.1210938
vt 0.9082031 0.0039062
vt 0.9667969 0.1210938
vt 0.9667969 0.0039062
vt 0.9375000 0.0039062
vt 0.9375000 0.1210938
vt 0.9960938 0.1210938
vt 0.9375000 0.0039062
vt 0.9960938 0.1210938
vt 0.9960938 0.0039062
vt 0.9375000 0.0039062
vt 0.8789062 0.0039062
vt 0.8789062 0.1210938
vt 0.9375000 0.0039062
vt 0.8789062 0.1210938
vt 0.9375000 0.1210938
vt 0.9082031 0.0039062
vt 0.9667969 0.0039062
vt 0.9667969 0.1210938
vt 0.9082031 0.0039062
vt 0.9667969 0.1210938
vt 0.9082031 0.1210938
vt 0.8789062 0.0039062
vt 0.9375000 0.0039062
vt 0.9375000 0.1210938
vt 0.8789062 0.0039062
vt 0.9375000 0.1210938
vt 0.8789062 0.1210938
vt 0.8789062 0.0625000
vt 0.9082031 0.1210938
vt 0.9667969 0.1210938
vt 0.8789062 0.0625000
vt 0.9667969 0.1210938
vt 0.9960938 0.0625000
vt 0.8789062 0.0625000
vt 0.9960938 0.0625000
vt 0.9667969 0.0039062
vt 0.8789062 0.0625000
vt 0.9667969 0.0039062
vt 0.9082031 0.0039062
vt 0.8789062 0.0625000
vt 0.9082031 0.0039062
vt 0.9667969 0.0039062
vt 0.8789062 0.0625000
vt 0.9667969 0.0039062
vt 0.9960938 0.0625000
vt 0.8789062 0.0625000
vt 0.9960938 0.0625000
vt 0.9667969 0.1210938
vt 0.8789062 0.0625000
vt 0.9667969 0.1210938
vt 0.9082031 0.1210938
vt 0.9960938 0.0039062
vt 0.9960938 0.1210938
vt 0.9375000 0.1210938
vt 0.9960938 0.0039062
vt 0.9375000 0.1210938
vt 0.9375000 0.0039062
vt 0.9082031 0.0039062
vt 0.9082031 0.1210938
vt 0.9667969 0.1210938
vt 0.9082031 0.0039062
vt 0.9667969 0.1210938
vt 0.9667969 0.0039062
vt 0.9375000 0.0039062
vt 0.9375000 0.1210938
vt 0.9960938 0.1210938
vt 0.9375000 0.0039062
vt 0.9960938 0.1210938
vt 0.9960938 0.0039062
vt 0.9375000 0.0039062
vt 0.8789062 0.0039062
vt 0.8789062 0.1210938
vt 0.9375000 0.0039062
vt 0.8789062 0.1210938
vt 0.9375000 0.1210938
vt 0.9082031 0.0039062
vt 0.9667969 0.0039062
vt 0.9667969 0.1210938
vt 0.9082031 0.0039062
vt 0.9667969 0.1210938
vt 0.9082031 0.1210938
vt 0.8789062 0.0039062
vt 0.9375000 0.0039062
vt 0.9375000 0.1210938
vt 0.8789062 0.0039062
vt 0.9375000 0.1210938
vt 0.8789062 0.1210938
vt 0.8789062 0.0625000
vt 0.9082031 0.1210938
vt 0.9667969 0.1210938
vt 0.8789062 0.0625000
vt 0.9667969 0.1210938
vt 0.9960938 0.0625000
vt 0.8789062 0.0625000
vt 0.9960938 0.0625000
vt 0.9667969 0.0039062
vt 0.8789062 0.0625000
vt 0.9667969 0.0039062
vt 0.9082031 0.0039062
vt 0.8789062 0.0625000
vt 0.9082031 0.0039062
vt 0.9667969 0.0039062
vt 0.8789062 0.0625000
vt 0.9667969 0.0039062
vt 0.9960938 0.0625000
vt 0.8789062 0.0625000
vt 0.9960938 0.0625000
vt 0.9667969 0.1210938
vt 0.8789062 0.0625000
vt 0.9667969 0.1210938
vt 0.9082031 0.1210938
vt 0.9960938 0.0039062
vt 0.9960938 0.1210938
vt 0.9375000 0.1210938
vt 0.9960938 0.0039062
vt 0.9375000 0.1210938
vt 0.9375000 0.0039062
vt 0.9082031 0.0039062
vt 0.9082031 0.1210938
vt 0.9667969 0.1210938
vt 0.9082031 0.0039062
vt 0.9667969 0.1210938
vt 0.9667969 0.0039062
vt 0.9375000 0.0039062
vt 0.9375000 0.1210938
vt 0.9960938 0.1210938
vt 0.9375000 0.0039062
vt 0.9960938 0.1210938
vt 0.9960938 0.0039062
vt 0.9375000 0.0039062
vt 0.8789062 0.0039062
vt 0.8789062 0.1210938
vt 0.9375000 0.0039062
vt 0.8789062 0.1210938
vt 0.9375000 0.1210938
vt 0.9082031 0.0039062
vt 0.9667969 0.0039062
vt 0.9667969 0.1210938
vt 0.9082031 0.0039062
vt 0.9667969 0.1210938
vt 0.9082031 0.1210938
vt 0.8789062 0.0039062
vt 0.9375000 0.0039062
vt 0.9375000 0.1210938
vt 0.8789062 0.0039062
vt 0.9375000 0.1210938
vt 0.8789062 0.1210938
vt 0.8789062 0.0625000
vt 0.9082031 0.1210938
vt 0.9667969 0.1210938
vt 0.8789062 0.0625000
vt 0.9667969 0.1210938
vt 0.9960938 0.0625000
vt 0.8789062 0.0625000
vt 0.9960938 0.0625000
vt 0.9667969 0.0039062
vt 0.8789062 0.0625000
vt 0.9667969 0.0039062
vt 0.9082031 0.0039062
vt 0.8789062 0.0625000
vt 0.9082031 0.0039062
vt 0.9667969 0.0039062
vt 0.8789062 0.0625000
vt 0.9667969 0.0039062
vt 0.9960938 0.0625000
vt 0.8789062 0.0625000
vt 0.9960938 0.0625000
vt 0.9667969 0.1210938
vt 0.8789062 0.0625000
vt 0.9667969 0.1210938
vt 0.9082031 0.1210938
vt 0.9960938 0.0039062
vt 0.9960938 0.1210938
vt 0.9375000 0.1210938
vt 0.9960938 0.0039062
vt 0.9375000 0.1210938
vt 0.9375000 0.0039062
vt 0.9082031 0.0039062
vt 0.9082031 0.1210938
vt 0.9667969 0.1210938
vt 0.9082031 0.0039062
vt 0.9667969 0.1210938
vt 0.9667969 0.0039062
vt 0.9375000 0.0039062
vt 0.9375000 0.1210938
vt 0.9960938 0.1210938
vt 0.9375000 0.0039062
vt 0.9960938 0.1210938
vt 0.9960938 0.0039062
vt 0.9375000 0.0039062
vt 0.8789062 0.0039062
vt 0.8789062 0.1210938
vt 0.9375000 0.0039062
vt 0.8789062 0.1210938
vt 0.9375000 0.1210938
vt 0.9082031 0.0039062
vt 0.9667969 0.0039062
vt 0.9667969 0.1210938
vt 0.9082031 0.0039062
vt 0.9667969 0.1210938
vt 0.9082031 0.1210938
vt 0.8789062 0.0039062
vt 0.9375000 0.0039062
vt 0.9375000 0.1210938
vt 0.8789062 0.0039062
vt 0.9375000 0.1210938
vt 0.8789062 0.1210938
vt 0.8789062 0.0625000
vt 0.9082031 0.1210938
vt 0.9667969 0.1210938
vt 0.8789062 0.0625000
vt 0.9667969 0.1210938
vt 0.9960938 0.0625000
vt 0.8789062 0.0625000
vt 0.9960938 0.0625000
vt 0.9667969 0.0039062
vt 0.8789062 0.0625000
vt 0.9667969 0.0039062
vt 0.9082031 0.0039062
vt 0.8789062 0.0625000
vt 0.9082031 0.0039062
vt 0.9667969 0.0039062
vt 0.8789062 0.0625000
vt 0.9667969 0.0039062
vt 0.9960938 0.0625000
vt 0.8789062 0.0625000
vt 0.9960938 0.0625000
vt 0.9667969 0.1210938
vt 0.8789062 0.0625000
vt 0.9667969 0.1210938
vt 0.9082031 0.1210938
vt 0.7026652 0.0039062
vt 0.7026652 0.1210938
vt 0.7045252 0.1210938
vt 0.7026652 0.0039062
vt 0.7045252 0.1210938
vt 0.7045252 0.0193304
vt 0.7026652 0.0039062
vt 0.7045252 0.0193304
vt 0.7045252 0.0039062
vt 0.6875000 0.0039062
vt 0.6875000 0.1210938
vt 0.7026652 0.1210938
vt 0.6875000 0.0039062
vt 0.7026652 0.1210938
vt 0.7026652 0.0039062
vt 0.6309028 0.0776652
vt 0.6316732 0.0774588
vt 0.6316732 0.0784550
vt 0.6309028 0.0776652
vt 0.6316732 0.0784550
vt 0.6316732 0.0795252
vt 0.6289062 0.0625000
vt 0.6316732 0.0625000
vt 0.6316732 0.0674326
vt 0.6289062 0.0625000
vt 0.6316732 0.0674326
vt 0.6316732 0.0774588
vt 0.6289062 0.0625000
vt 0.6316732 0.0774588
vt 0.6309028 0.0776652
vt 0.6309028 0.0776652
vt 0.6316732 0.0795252
vt 0.6316732 0.0784550
vt 0.6309028 0.0776652
vt 0.6316732 0.0784550
vt 0.6316732 0.0774588
vt 0.6289062 0.0625000
vt 0.6309028 0.0776652
vt 0.6316732 0.0774588
vt 0.6289062 0.0625000
vt 0.6316732 0.0774588
vt 0.6316732 0.0674326
vt 0.6289062 0.0625000
vt 0.6316732 0.0674326
vt 0.6316732 0.0625000
vt 0.7167969 0.0039062
vt 0.7167969 0.1210938
vt 0.7278099 0.1210938
vt 0.7167969 0.0039062
vt 0.7278099 0.1210938
vt 0.7278099 0.1102580
vt 0.7167969 0.0039062
vt 0.7278099 0.1102580
vt 0.7278099 0.0039062
vt 0.7026652 0.0039062
vt 0.7026652 0.1210938
vt 0.7167969 0.1210938
vt 0.7026652 0.0039062
vt 0.7167969 0.1210938
vt 0.7167969 0.0039062
vt 0.6875000 0.0039062
vt 0.6875000 0.1210938
vt 0.7026652 0.1210938
vt 0.6875000 0.0039062
vt 0.7026652 0.1210938
vt 0.7026652 0.0039062
vt 0.6367564 0.0917969
vt 0.6452070 0.0869179
vt 0.6452070 0.0910920
vt 0.6367564 0.0917969
vt 0.6452070 0.0910920
vt 0.6452070 0.1028099
vt 0.6309028 0.0776652
vt 0.6452070 0.0738324
vt 0.6452070 0.0802471
vt 0.6309028 0.0776652
vt 0.6452070 0.0802471
vt 0.6452070 0.0869179
vt 0.6309028 0.0776652
vt 0.6452070 0.0869179
vt 0.6367564 0.0917969
vt 0.6289062 0.0625000
vt 0.6452069 0.0625000
vt 0.6452070 0.0701816
vt 0.6289062 0.0625000
vt 0.6452070 0.0701816
vt 0.6452070 0.0738324
vt 0.6289062 0.0625000
vt 0.6452070 0.0738324
vt 0.6309028 0.0776652
vt 0.6367564 0.0917969
vt 0.6452070 0.1028099
vt 0.6452070 0.0910920
vt 0.6367564 0.0917969
vt 0.6452070 0.0910920
vt 0.6452070 0.0869179
vt 0.6309028 0.0776652
vt 0.6367564 0.0917969
vt 0.6452070 0.0869179
vt 0.6309028 0.0776652
vt 0.6452070 0.0869179
vt 0.6452070 0.0802471
vt 0.6309028 0.0776652
vt 0.6452070 0.0802471
vt 0.6452070 0.0738324
vt 0.6289062 0.0625000
vt 0.6309028 0.0776652
vt 0.6452070 0.0738324
vt 0.6289062 0.0625000
vt 0.6452070 0.0738324
vt 0.6452070 0.0701816
vt 0.6289062 0.0625000
vt 0.6452070 0.0701816
vt 0.6452069 0.0625000
vt 0.9960938 0.0039062
vt 0.9960938 0.1210938
vt 0.9375000 0.1210938
vt 0.9960938 0.0039062
vt 0.9375000 0.1210938
vt 0.9375000 0.0039062
vt 0.9082031 0.0039062
vt 0.9082031 0.1210938
vt 0.9667969 0.1210938
vt 0.9082031 0.0039062
vt 0.9667969 0.1210938
vt 0.9667969 0.0039062
vt 0.9554747 0.1210938
vt 0.9960938 0.1210938
vt 0.9554747 0.0398556
vt 0.9554747 0.0398556
vt 0.9960938 0.1210938
vt 0.9960938 0.0039062
vt 0.9554747 0.0398556
vt 0.9960938 0.0039062
vt 0.9554747 0.0039062
vt 0.9195253 0.0039062
vt 0.8789062 0.0039062
vt 0.8789062 0.1210938
vt 0.9195253 0.0039062
vt 0.8789062 0.1210938
vt 0.9195253 0.0398556
vt 0.9195253 0.0398556
vt 0.8789062 0.1210938
vt 0.9195253 0.1210938
vt 0.9082031 0.0039062
vt 0.9667969 0.0039062
vt 0.9667969 0.1210938
vt 0.9082031 0.0039062
vt 0.9667969 0.1210938
vt 0.9082031 0.1210938
vt 0.8789062 0.0039062
vt 0.9375000 0.0039062
vt 0.9375000 0.1210938
vt 0.8789062 0.0039062
vt 0.9375000 0.1210938
vt 0.8789062 0.1210938
vt 0.8878935 0.0804747
vt 0.9082031 0.1210938
vt 0.9667969 0.1210938
vt 0.8878935 0.0804747
vt 0.9667969 0.1210938
vt 0.8878936 0.0684916
vt 0.8878936 0.0684916
vt 0.9667969 0.1210938
vt 0.9960938 0.0625000
vt 0.8878936 0.0684916
vt 0.9960938 0.0625000
vt 0.8878936 0.0625000
vt 0.8878936 0.0625000
vt 0.9960938 0.0625000
vt 0.9667969 0.0039062
vt 0.8878936 0.0625000
vt 0.9667969 0.0039062
vt 0.8878936 0.0565084
vt 0.8878936 0.0565084
vt 0.9667969 0.0039062
vt 0.9082031 0.0039062
vt 0.8878936 0.0565084
vt 0.9082031 0.0039062
vt 0.8878935 0.0445253
vt 0.8878935 0.0445253
vt 0.9082031 0.0039062
vt 0.9667969 0.0039062
vt 0.8878935 0.0445253
vt 0.9667969 0.0039062
vt 0.8878936 0.0565084
vt 0.8878936 0.0565084
vt 0.9667969 0.0039062
vt 0.9960938 0.0625000
vt 0.8878936 0.0565084
vt 0.9960938 0.0625000
vt 0.8878936 0.0625000
vt 0.8878936 0.0625000
vt 0.9960938 0.0625000
vt 0.9667969 0.1210938
vt 0.8878936 0.0625000
vt 0.9667969 0.1210938
vt 0.8878936 0.0684916
vt 0.8878936 0.0684916
vt 0.9667969 0.1210938
vt 0.9082031 0.1210938
vt 0.8878936 0.0684916
vt 0.9082031 0.1210938
vt 0.8878935 0.0804747
vn -0.7704564 0.1243686 -0.6252435
vn -0.7704564 0.1243685 -0.6252435
vn -0.7704567 0.0000000 -0.6374923
vn -0.7704564 0.1243686 -0.6252435
vn -0.7704567 0.0000000 -0.6374923
vn -0.7704567 0.0000000 -0.6374923
vn -0.7704564 0.2439577 -0.5889665
vn -0.7704564 0.2439577 -0.5889665
vn -0.7704564 0.1243685 -0.6252435
vn -0.7704564 0.2439577 -0.5889665
vn -0.7704564 0.1243685 -0.6252435
vn -0.7704564 0.1243686 -0.6252435
vn -0.7704560 0.3541719 -0.5300565
vn -0.7704559 0.3541719 -0.5300566
vn -0.7704564 0.2439577 -0.5889665
vn -0.7704560 0.3541719 -0.5300565
vn -0.7704564 0.2439577 -0.5889665
vn -0.7704564 0.2439577 -0.5889665
vn -0.7704564 0.4507753 -0.4507755
vn -0.7704564 0.4507753 -0.4507755
vn -0.7704559 0.3541719 -0.5300566
vn -0.7704564 0.4507753 -0.4507755
vn -0.7704559 0.3541719 -0.5300566
vn -0.7704560 0.3541719 -0.5300565
vn -0.7704568 0.5300556 -0.3541713
vn -0.7704568 0.5300557 -0.3541713
vn -0.7704564 0.4507753 -0.4507755
vn -0.7704568 0.5300556 -0.3541713
vn -0.7704564 0.4507753 -0.4507755
vn -0.7704564 0.4507753 -0.4507755
vn -0.7704565 0.5889662 -0.2439581
vn -0.7704565 0.5889662 -0.2439581
vn -0.7704568 0.5300557 -0.3541713
vn -0.7704565 0.5889662 -0.2439581
vn -0.7704568 0.5300557 -0.3541713
vn -0.7704568 0.5300556 -0.3541713
vn -0.7704567 0.6252432 -0.1243683
vn -0.7704567 0.6252432 -0.1243683
vn -0.7704565 0.5889662 -0.2439581
vn -0.7704567 0.6252432 -0.1243683
vn -0.7704565 0.5889662 -0.2439581
vn -0.7704565 0.5889662 -0.2439581
vn -0.7704565 0.6374926 0.0000000
vn -0.7704564 0.6374926 0.0000000
vn -0.7704567 0.6252432 -0.1243683
vn -0.7704565 0.6374926 0.0000000
vn -0.7704567 0.6252432 -0.1243683
vn -0.7704567 0.6252432 -0.1243683
vn 0.0000000 0.1950905 -0.9807852
vn 0.0000000 0.1950905 -0.9807852
vn 0.0000000 0.0000000 -1.0000000
vn 0.0000000 0.1950905 -0.9807852
vn 0.0000000 0.0000000 -1.0000000
vn 0.0000000 0.0000000 -1.0000000
vn 0.0000000 0.3826833 -0.9238796
vn 0.0000000 0.3826833 -0.9238796
vn 0.0000000 0.1950905 -0.9807852
vn 0.0000000 0.3826833 -0.9238796
vn 0.0000000 0.1950905 -0.9807852
vn 0.0000000 0.1950905 -0.9807852
vn 0.0000000 0.5555702 -0.8314696
vn 0.0000000 0.5555702 -0.8314696
vn 0.0000000 0.3826833 -0.9238796
vn 0.0000000 0.5555702 -0.8314696
vn 0.0000000 0.3826833 -0.9238796
vn 0.0000000 0.3826833 -0.9238796
vn 0.0000000 0.7071074 -0.7071062
vn 0.0000000 0.7071074 -0.7071062
vn 0.0000000 0.5555702 -0.8314696
vn 0.0000000 0.7071074 -0.7071062
vn 0.0000000 0.5555702 -0.8314696
vn 0.0000000 0.5555702 -0.8314696
vn 0.0000000 0.8314700 -0.5555697
vn 0.0000000 0.8314700 -0.5555697
vn 0.0000000 0.7071074 -0.7071062
vn 0.0000000 0.8314700 -0.5555697
vn 0.0000000 0.7071074 -0.7071062
vn 0.0000000 0.7071074 -0.7071062
vn 0.0000000 0.9238797 -0.3826831
vn 0.0000000 0.9238797 -0.3826831
vn 0.0000000 0.8314700 -0.5555697
vn 0.0000000 0.9238797 -0.3826831
vn 0.0000000 0.8314700 -0.5555697
vn 0.0000000 0.8314700 -0.5555697
vn 0.0000000 0.9807853 -0.1950902
vn 0.0000000 0.9807853 -0.1950902
vn 0.0000000 0.9238797 -0.3826831
vn 0.0000000 0.9807853 -0.1950902
vn 0.0000000 0.9238797 -0.3826831
vn 0.0000000 0.9238797 -0.3826831
vn 0.0000000 1.0000000 0.0000000
vn 0.0000000 1.0000000 0.0000000
vn 0.0000000 0.9807853 -0.1950902
vn 0.0000000 1.0000000 0.0000000
vn 0.0000000 0.9807853 -0.1950902
vn 0.0000000 0.9807853 -0.1950902
vn 0.0000000 0.1950904 -0.9807853
vn 0.0000000 0.1950904 -0.9807853
vn 0.0000000 0.1901974 -0.9817459
vn 0.0000000 0.1950904 -0.9807853
vn 0.0000000 0.1901974 -0.9817459
vn 0.0000000 0.0000000 -1.0000000
vn 0.0000000 0.1950904 -0.9807853
vn 0.0000000 0.0000000 -1.0000000
vn 0.0000000 0.0000000 -1.0000000
vn 0.0000000 0.3826832 -0.9238796
vn 0.0000000 0.3826832 -0.9238796
vn 0.0000000 0.3780716 -0.9257764
vn 0.0000000 0.3826832 -0.9238796
vn 0.0000000 0.3780716 -0.9257764
vn 0.0000000 0.1950904 -0.9807853
vn 0.0000000 0.3826832 -0.9238796
vn 0.0000000 0.1950904 -0.9807853
vn 0.0000000 0.1950904 -0.9807853
vn 0.0000000 0.5555699 -0.8314698
vn 0.0000000 0.5555699 -0.8314698
vn 0.0000000 0.5514170 -0.8342298
vn 0.0000000 0.5555699 -0.8314698
vn 0.0000000 0.5514170 -0.8342298
vn 0.0000000 0.3826832 -0.9238796
vn 0.0000000 0.5555699 -0.8314698
vn 0.0000000 0.3826832 -0.9238796
vn 0.0000000 0.3826832 -0.9238796
vn 0.0000000 0.7071069 -0.7071066
vn 0.0000000 0.7071069 -0.7071066
vn 0.0000000 0.7035722 -0.7106238
vn 0.0000000 0.7071069 -0.7071066
vn 0.0000000 0.7035722 -0.7106238
vn 0.0000000 0.5555699 -0.8314698
vn 0.0000000 0.7071069 -0.7071066
vn 0.0000000 0.5555699 -0.8314698
vn 0.0000000 0.5555699 -0.8314698
vn 0.0000000 0.8314697 -0.5555702
vn 0.0000000 0.8314697 -0.5555702
vn 0.0000000 0.8286890 -0.5597093
vn 0.0000000 0.8314697 -0.5555702
vn 0.0000000 0.8286890 -0.5597093
vn 0.0000000 0.7071069 -0.7071066
vn 0.0000000 0.8314697 -0.5555702
vn 0.0000000 0.7071069 -0.7071066
vn 0.0000000 0.7071069 -0.7071066
vn 0.0000000 0.9238795 -0.3826835
vn 0.0000000 0.9238795 -0.3826835
vn 0.0000000 0.9219598 -0.3872856
vn 0.0000000 0.9238795 -0.3826835
vn 0.0000000 0.9219598 -0.3872856
vn 0.0000000 0.8314697 -0.5555702
vn 0.0000000 0.9238795 -0.3826835
vn 0.0000000 0.8314697 -0.5555702
vn 0.0000000 0.8314697 -0.5555702
vn 0.0000000 0.9807853 -0.1950903
vn 0.0000000 0.9807853 -0.1950903
vn 0.0000000 0.9798003 -0.1999785
vn 0.0000000 0.9807853 -0.1950903
vn 0.0000000 0.9798003 -0.1999785
vn 0.0000000 0.9238795 -0.3826835
vn 0.0000000 0.9807853 -0.1950903
vn 0.0000000 0.9238795 -0.3826835
vn 0.0000000 0.9238795 -0.3826835
vn 0.0000000 1.0000000 0.0000000
vn 0.0000000 1.0000000 0.0000000
vn 0.0000000 0.9999876 -0.0049864
vn 0.0000000 1.0000000 0.0000000
vn 0.0000000 0.9999876 -0.0049864
vn 0.0000000 0.9807853 -0.1950903
vn 0.0000000 1.0000000 0.0000000
vn 0.0000000 0.9807853 -0.1950903
vn 0.0000000 0.9807853 -0.1950903
vn -1.0000000 0.0000000 -0.0000001
vn -1.0000000 0.0000000 -0.0000001
vn -1.0000000 0.0000000 -0.0000001
vn -1.0000000 0.0000000 -0.0000001
vn -1.0000000 0.0000000 -0.0000001
vn -1.0000000 0.0000000 -0.0000001
vn -1.0000000 0.0000000 -0.0000001
vn -1.0000000 0.0000000 -0.0000001
vn -1.0000000 0.0000000 -0.0000001
vn -1.0000000 0.0000000 -0.0000001
vn -1.0000000 0.0000000 -0.0000001
vn -1.0000000 0.0000000 -0.0000001
vn -1.0000000 0.0000000 -0.0000001
vn -1.0000000 0.0000000 -0.0000001
vn -1.0000000 0.0000000 -0.0000001
vn -1.0000000 0.0000000 -0.0000001
vn -1.0000000 0.0000000 -0.0000001
vn -1.0000000 0.0000000 -0.0000001
vn -1.0000000 0.0000000 -0.0000001
vn -1.0000000 0.0000000 -0.0000001
vn -1.0000000 0.0000000 -0.0000001
vn -1.0000000 0.0000000 -0.0000001
vn -1.0000000 0.0000000 -0.0000001
vn -1.0000000 0.0000000 -0.0000001
vn -1.0000000 0.0000000 -0.0000001
vn -1.0000000 0.0000000 -0.0000001
vn -1.0000000 0.0000000 -0.0000001
vn -1.0000000 0.0000000 -0.0000001
vn -1.0000000 0.0000000 -0.0000001
vn -1.0000000 0.0000000 -0.0000001
vn -1.0000000 0.0000000 -0.0000001
vn -1.0000000 0.0000000 -0.0000001
vn -1.0000000 0.0000000 -0.0000001
vn -1.0000000 0.0000000 -0.0000001
vn -1.0000000 0.0000000 -0.0000001
vn -1.0000000 0.0000000 -0.0000001
vn -1.0000000 0.0000000 -0.0000001
vn -1.0000000 0.0000000 -0.0000001
vn -1.0000000 0.0000000 -0.0000001
vn -1.0000000 0.0000000 -0.0000001
vn -1.0000000 0.0000000 -0.0000001
vn -1.0000000 0.0000000 -0.0000001
vn -1.0000000 0.0000000 -0.0000001
vn -1.0000000 0.0000000 -0.0000001
vn -1.0000000 0.0000000 -0.0000001
vn 0.0000000 0.1950904 -0.9807853
vn 0.0000000 0.1950904 -0.9807853
vn 0.0000000 0.0000002 -1.0000000
vn 0.0000000 0.1950904 -0.9807853
vn 0.0000000 0.0000002 -1.0000000
vn 0.0000000 0.0000000 -1.0000000
vn 0.0000000 0.1950904 -0.9807853
vn 0.0000000 0.0000000 -1.0000000
vn 0.0000000 0.0000000 -1.0000000
vn 0.0000000 0.3826830 -0.9238797
vn 0.0000000 0.3826830 -0.9238797
vn 0.0000000 0.1950906 -0.9807852
vn 0.0000000 0.3826830 -0.9238797
vn 0.0000000 0.1950906 -0.9807852
vn 0.0000000 0.1950904 -0.9807853
vn 0.0000000 0.3826830 -0.9238797
vn 0.0000000 0.1950904 -0.9807853
vn 0.0000000 0.1950904 -0.9807853
vn 0.0000000 0.5555696 -0.8314700
vn 0.0000000 0.5555696 -0.8314700
vn 0.0000000 0.3826832 -0.9238796
vn 0.0000000 0.5555696 -0.8314700
vn 0.0000000 0.3826832 -0.9238796
vn 0.0000000 0.3826830 -0.9238797
vn 0.0000000 0.5555696 -0.8314700
vn 0.0000000 0.3826830 -0.9238797
vn 0.0000000 0.3826830 -0.9238797
vn 0.0000000 0.7071067 -0.7071068
vn 0.0000000 0.7071067 -0.7071068
vn 0.0000000 0.5555698 -0.8314699
vn 0.0000000 0.7071067 -0.7071068
vn 0.0000000 0.5555698 -0.8314699
vn 0.0000000 0.5555696 -0.8314700
vn 0.0000000 0.7071067 -0.7071068
vn 0.0000000 0.5555696 -0.8314700
vn 0.0000000 0.5555696 -0.8314700
vn 0.0000000 0.8314693 -0.5555706
vn 0.0000000 0.8314693 -0.5555706
vn 0.0000000 0.7071069 -0.7071067
vn 0.0000000 0.8314693 -0.5555706
vn 0.0000000 0.7071069 -0.7071067
vn 0.0000000 0.7071067 -0.7071068
vn 0.0000000 0.8314693 -0.5555706
vn 0.0000000 0.7071067 -0.7071068
vn 0.0000000 0.7071067 -0.7071068
vn 0.0000000 0.9238793 -0.3826839
vn 0.0000000 0.9238793 -0.3826839
vn 0.0000000 0.8314694 -0.5555705
vn 0.0000000 0.9238793 -0.3826839
vn 0.0000000 0.8314694 -0.5555705
vn 0.0000000 0.8314693 -0.5555706
vn 0.0000000 0.9238793 -0.3826839
vn 0.0000000 0.8314693 -0.5555706
vn 0.0000000 0.8314693 -0.5555706
vn 0.0000000 0.9807853 -0.1950903
vn 0.0000000 0.9807853 -0.1950903
vn 0.0000000 0.9238794 -0.3826837
vn 0.0000000 0.9807853 -0.1950903
vn 0.0000000 0.9238794 -0.3826837
vn 0.0000000 0.9238793 -0.3826839
vn 0.0000000 0.9807853 -0.1950903
vn 0.0000000 0.9238793 -0.3826839
vn 0.0000000 0.9238793 -0.3826839
vn 0.0000000 1.0000000 0.0000000
vn 0.0000000 1.0000000 0.0000000
vn 0.0000000 0.9807853 -0.1950901
vn 0.0000000 1.0000000 0.0000000
vn 0.0000000 0.9807853 -0.1950901
vn 0.0000000 0.9807853 -0.1950903
vn 0.0000000 1.0000000 0.0000000
vn 0.0000000 0.9807853 -0.1950903
vn 0.0000000 0.9807853 -0.1950903
vn -1.0000000 0.0000000 -0.0000001
vn -1.0000000 0.0000000 -0.0000001
vn -1.0000000 0.0000000 -0.0000001
vn -1.0000000 0.0000000 -0.0000001
vn -1.0000000 0.0000000 -0.0000001
vn -1.0000000 0.0000000 -0.0000001
vn -1.0000000 0.0000000 -0.0000001
vn -1.0000000 0.0000000 -0.0000001
vn -1.0000000 0.0000000 -0.0000001
vn -1.0000000 0.0000000 -0.0000001
vn -1.0000000 0.0000000 -0.0000001
vn -1.0000000 0.0000000 -0.0000001
vn -1.0000000 0.0000000 -0.0000001
vn -1.0000000 0.0000000 -0.0000001
vn -1.0000000 0.0000000 -0.0000001
vn -1.0000000 0.0000000 -0.0000001
vn -1.0000000 0.0000000 -0.0000001
vn -1.0000000 0.0000000 -0.0000001
vn -1.0000000 0.0000000 -0.0000001
vn -1.0000000 0.0000000 -0.0000001
vn -1.0000000 0.0000000 -0.0000001
vn -1.0000000 0.0000000 -0.0000001
vn -1.0000000 0.0000000 -0.0000001
vn -1.0000000 0.0000000 -0.0000001
vn -1.0000000 0.0000000 -0.0000001
vn -1.0000000 0.0000000 -0.0000001
vn -1.0000000 0.0000000 -0.0000001
vn -1.0000000 0.0000000 -0.0000001
vn -1.0000000 0.0000000 -0.0000001
vn -1.0000000 0.0000000 -0.0000001
vn -1.0000000 0.0000000 -0.0000001
vn -1.0000000 0.0000000 -0.0000001
vn -1.0000000 0.0000000 -0.0000001
vn -1.0000000 0.0000000 -0.0000001
vn -1.0000000 0.0000000 -0.0000001
vn -1.0000000 0.0000000 -0.0000001
vn -1.0000000 0.0000000 -0.0000001
vn -1.0000000 0.0000000 -0.0000001
vn -1.0000000 0.0000000 -0.0000001
vn -1.0000000 0.0000000 -0.0000001
vn -1.0000000 0.0000000 -0.0000001
vn -1.0000000 0.0000000 -0.0000001
vn -1.0000000 0.0000000 -0.0000001
vn -1.0000000 0.0000000 -0.0000001
vn -1.0000000 0.0000000 -0.0000001
vn -0.0000001 0.5000000 0.8660254
vn -0.0000001 0.5000000 0.8660254
vn -0.0000001 0.5000000 0.8660254
vn -0.0000001 0.5000000 0.8660254
vn -0.0000001 0.5000000 0.8660254
vn -0.0000001 0.5000000 0.8660254
vn -0.0000000 1.0000000 -0.0000000
vn -0.0000000 1.0000000 -0.0000000
vn -0.0000000 1.0000000 -0.0000000
vn -0.0000000 1.0000000 -0.0000000
vn -0.0000000 1.0000000 -0.0000000
vn -0.0000000 1.0000000 -0.0000000
vn 0.0000000 0.5000000 -0.8660254
vn 0.0000000 0.5000000 -0.8660254
vn 0.0000000 0.5000000 -0.8660254
vn 0.0000000 0.5000000 -0.8660254
vn 0.0000000 0.5000000 -0.8660254
vn 0.0000000 0.5000000 -0.8660254
vn 0.0000001 -0.5000000 -0.8660254
vn 0.0000001 -0.5000000 -0.8660254
vn 0.0000001 -0.5000000 -0.8660254
vn 0.0000001 -0.5000000 -0.8660254
vn 0.0000001 -0.5000000 -0.8660254
vn 0.0000001 -0.5000000 -0.8660254
vn 0.0000000 -1.0000000 0.0000000
vn 0.0000000 -1.0000000 0.0000000
vn 0.0000000 -1.0000000 0.0000000
vn 0.0000000 -1.0000000 0.0000000
vn 0.0000000 -1.0000000 0.0000000
vn 0.0000000 -1.0000000 0.0000000
vn -0.0000000 -0.5000000 0.8660254
vn -0.0000000 -0.5000000 0.8660254
vn -0.0000000 -0.5000000 0.8660254
vn -0.0000000 -0.5000000 0.8660254
vn -0.0000000 -0.5000000 0.8660254
vn -0.0000000 -0.5000000 0.8660254
vn 1.0000000 0.0000000 0.0000000
vn 1.0000000 0.0000000 0.0000000
vn 1.0000000 0.0000000 0.0000000
vn 1.0000000 0.0000000 0.0000000
vn 1.0000000 0.0000000 0.0000000
vn 1.0000000 0.0000000 0.0000000
vn 1.0000000 0.0000000 0.0000000
vn 1.0000000 0.0000000 0.0000000
vn 1.0000000 0.0000000 0.0000000
vn 1.0000000 0.0000000 0.0000000
vn 1.0000000 0.0000000 0.0000000
vn 1.0000000 0.0000000 0.0000000
vn -1.0000000 -0.0000000 -0.0000000
vn -1.0000000 -0.0000000 -0.0000000
vn -1.0000000 -0.0000000 -0.0000000
vn -1.0000000 -0.0000000 -0.0000000
vn -1.0000000 -0.0000000 -0.0000000
vn -1.0000000 -0.0000000 -0.0000000
vn -1.0000000 -0.0000000 -0.0000000
vn -1.0000000 -0.0000000 -0.0000000
vn -1.0000000 -0.0000000 -0.0000000
vn -1.0000000 -0.0000000 -0.0000000
vn -1.0000000 -0.0000000 -0.0000000
vn -1.0000000 -0.0000000 -0.0000000
vn -0.0000001 0.5000000 0.8660254
vn -0.0000001 0.5000000 0.8660254
vn -0.0000001 0.5000000 0.8660254
vn -0.0000001 0.5000000 0.8660254
vn -0.0000001 0.5000000 0.8660254
vn -0.0000001 0.5000000 0.8660254
vn -0.0000000 1.0000000 -0.0000000
vn -0.0000000 1.0000000 -0.0000000
vn -0.0000000 1.0000000 -0.0000000
vn -0.0000000 1.0000000 -0.0000000
vn -0.0000000 1.0000000 -0.0000000
vn -0.0000000 1.0000000 -0.0000000
vn 0.0000000 0.5000000 -0.8660254
vn 0.0000000 0.5000000 -0.8660254
vn 0.0000000 0.5000000 -0.8660254
vn 0.0000000 0.5000000 -0.8660254
vn 0.0000000 0.5000000 -0.8660254
vn 0.0000000 0.5000000 -0.8660254
vn 0.0000001 -0.5000000 -0.8660254
vn 0.0000001 -0.5000000 -0.8660254
vn 0.0000001 -0.5000000 -0.8660254
vn 0.0000001 -0.5000000 -0.8660254
vn 0.0000001 -0.5000000 -0.8660254
vn 0.0000001 -0.5000000 -0.8660254
vn 0.0000000 -1.0000000 0.0000000
vn 0.0000000 -1.0000000 0.0000000
vn 0.0000000 -1.0000000 0.0000000
vn 0.0000000 -1.0000000 0.0000000
vn 0.0000000 -1.0000000 0.0000000
vn 0.0000000 -1.0000000 0.0000000
vn -0.0000000 -0.5000000 0.8660254
vn -0.0000000 -0.5000000 0.8660254
vn -0.0000000 -0.5000000 0.8660254
vn -0.0000000 -0.5000000 0.8660254
vn -0.0000000 -0.5000000 0.8660254
vn -0.0000000 -0.5000000 0.8660254
vn 1.0000000 0.0000000 0.0000000
vn 1.0000000 0.0000000 0.0000000
vn 1.0000000 0.0000000 0.0000000
vn 1.0000000 0.0000000 0.0000000
vn 1.0000000 0.0000000 0.0000000
vn 1.0000000 0.0000000 0.0000000
vn 1.0000000 0.0000000 0.0000000
vn 1.0000000 0.0000000 0.0000000
vn 1.0000000 0.0000000 0.0000000
vn 1.0000000 0.0000000 0.0000000
vn 1.0000000 0.0000000 0.0000000
vn 1.0000000 0.0000000 0.0000000
vn -1.0000000 -0.0000000 -0.0000000
vn -1.0000000 -0.0000000 -0.0000000
vn -1.0000000 -0.0000000 -0.0000000
vn -1.0000000 -0.0000000 -0.0000000
vn -1.0000000 -0.0000000 -0.0000000
vn -1.0000000 -0.0000000 -0.0000000
vn -1.0000000 -0.0000000 -0.0000000
vn -1.0000000 -0.0000000 -0.0000000
vn -1.0000000 -0.0000000 -0.0000000
vn -1.0000000 -0.0000000 -0.0000000
vn -1.0000000 -0.0000000 -0.0000000
vn -1.0000000 -0.0000000 -0.0000000
vn -0.0000001 0.5000000 0.8660254
vn -0.0000001 0.5000000 0.8660254
vn -0.0000001 0.5000000 0.8660254
vn -0.0000001 0.5000000 0.8660254
vn -0.0000001 0.5000000 0.8660254
vn -0.0000001 0.5000000 0.8660254
vn -0.0000000 1.0000000 -0.0000000
vn -0.0000000 1.0000000 -0.0000000
vn -0.0000000 1.0000000 -0.0000000
vn -0.0000000 1.0000000 -0.0000000
vn -0.0000000 1.0000000 -0.0000000
vn -0.0000000 1.0000000 -0.0000000
vn 0.0000000 0.5000000 -0.8660254
vn 0.0000000 0.5000000 -0.8660254
vn 0.0000000 0.5000000 -0.8660254
vn 0.0000000 0.5000000 -0.8660254
vn 0.0000000 0.5000000 -0.8660254
vn 0.0000000 0.5000000 -0.8660254
vn 0.0000001 -0.5000000 -0.8660254
vn 0.0000001 -0.5000000 -0.8660254
vn 0.0000001 -0.5000000 -0.8660254
vn 0.0000001 -0.5000000 -0.8660254
vn 0.0000001 -0.5000000 -0.8660254
vn 0.0000001 -0.5000000 -0.8660254
vn 0.0000000 -1.0000000 0.0000000
vn 0.0000000 -1.0000000 0.0000000
vn 0.0000000 -1.0000000 0.0000000
vn 0.0000000 -1.0000000 0.0000000
vn 0.0000000 -1.0000000 0.0000000
vn 0.0000000 -1.0000000 0.0000000
vn -0.0000000 -0.5000000 0.8660254
vn -0.0000000 -0.5000000 0.8660254
vn -0.0000000 -0.5000000 0.8660254
vn -0.0000000 -0.5000000 0.8660254
vn -0.0000000 -0.5000000 0.8660254
vn -0.0000000 -0.5000000 0.8660254
vn 1.0000000 0.0000000 0.0000000
vn 1.0000000 0.0000000 0.0000000
vn 1.0000000 0.0000000 0.0000000
vn 1.0000000 0.0000000 0.0000000
vn 1.0000000 0.0000000 0.0000000
vn 1.0000000 0.0000000 0.0000000
vn 1.0000000 0.0000000 0.0000000
vn 1.0000000 0.0000000 0.0000000
vn 1.0000000 0.0000000 0.0000000
vn 1.0000000 0.0000000 0.0000000
vn 1.0000000 0.0000000 0.0000000
vn 1.0000000 0.0000000 0.0000000
vn -1.0000000 -0.0000000 -0.0000000
vn -1.0000000 -0.0000000 -0.0000000
vn -1.0000000 -0.0000000 -0.0000000
vn -1.0000000 -0.0000000 -0.0000000
vn -1.0000000 -0.0000000 -0.0000000
vn -1.0000000 -0.0000000 -0.0000000
vn -1.0000000 -0.0000000 -0.0000000
vn -1.0000000 -0.0000000 -0.0000000
vn -1.0000000 -0.0000000 -0.0000000
vn -1.0000000 -0.0000000 -0.0000000
vn -1.0000000 -0.0000000 -0.0000000
vn -1.0000000 -0.0000000 -0.0000000
vn -0.0000001 0.5000000 0.8660254
vn -0.0000001 0.5000000 0.8660254
vn -0.0000001 0.5000000 0.8660254
vn -0.0000001 0.5000000 0.8660254
vn -0.0000001 0.5000000 0.8660254
vn -0.0000001 0.5000000 0.8660254
vn -0.0000000 1.0000000 -0.0000000
vn -0.0000000 1.0000000 -0.0000000
vn -0.0000000 1.0000000 -0.0000000
vn -0.0000000 1.0000000 -0.0000000
vn -0.0000000 1.0000000 -0.0000000
vn -0.0000000 1.0000000 -0.0000000
vn 0.0000000 0.5000000 -0.8660254
vn 0.0000000 0.5000000 -0.8660254
vn 0.0000000 0.5000000 -0.8660254
vn 0.0000000 0.5000000 -0.8660254
vn 0.0000000 0.5000000 -0.8660254
vn 0.0000000 0.5000000 -0.8660254
vn 0.0000001 -0.5000000 -0.8660254
vn 0.0000001 -0.5000000 -0.8660254
vn 0.0000001 -0.5000000 -0.8660254
vn 0.0000001 -0.5000000 -0.8660254
vn 0.0000001 -0.5000000 -0.8660254
vn 0.0000001 -0.5000000 -0.8660254
vn 0.0000000 -1.0000000 0.0000000
vn 0.0000000 -1.0000000 0.0000000
vn 0.0000000 -1.0000000 0.0000000
vn 0.0000000 -1.0000000 0.0000000
vn 0.0000000 -1.0000000 0.0000000
vn 0.0000000 -1.0000000 0.0000000
vn -0.0000000 -0.5000000 0.8660254
vn -0.0000000 -0.5000000 0.8660254
vn -0.0000000 -0.5000000 0.8660254
vn -0.0000000 -0.5000000 0.8660254
vn -0.0000000 -0.5000000 0.8660254
vn -0.0000000 -0.5000000 0.8660254
vn 1.0000000 0.0000000 0.0000000
vn 1.0000000 0.0000000 0.0000000
vn 1.0000000 0.0000000 0.0000000
vn 1.0000000 0.0000000 0.0000000
vn 1.0000000 0.0000000 0.0000000
vn 1.0000000 0.0000000 0.0000000
vn 1.0000000 0.0000000 0.0000000
vn 1.0000000 0.0000000 0.0000000
vn 1.0000000 0.0000000 0.0000000
vn 1.0000000 0.0000000 0.0000000
vn 1.0000000 0.0000000 0.0000000
vn 1.0000000 0.0000000 0.0000000
vn -1.0000000 -0.0000000 -0.0000000
vn -1.0000000 -0.0000000 -0.0000000
vn -1.0000000 -0.0000000 -0.0000000
vn -1.0000000 -0.0000000 -0.0000000
vn -1.0000000 -0.0000000 -0.0000000
vn -1.0000000 -0.0000000 -0.0000000
vn -1.0000000 -0.0000000 -0.0000000
vn -1.0000000 -0.0000000 -0.0000000
vn -1.0000000 -0.0000000 -0.0000000
vn -1.0000000 -0.0000000 -0.0000000
vn -1.0000000 -0.0000000 -0.0000000
vn -1.0000000 -0.0000000 -0.0000000
vn -0.9659258 0.0000000 -0.2588193
vn -0.9659258 0.0000000 -0.2588193
vn -0.9565093 0.0000000 -0.2917018
vn -0.9659258 0.0000000 -0.2588193
vn -0.9565093 0.0000000 -0.2917018
vn -0.9565093 0.0000000 -0.2917018
vn -0.9659258 0.0000000 -0.2588193
vn -0.9565093 0.0000000 -0.2917018
vn -0.9565093 0.0000000 -0.2917018
vn -1.0000000 0.0000000 0.0000000
vn -1.0000000 0.0000000 0.0000000
vn -0.9659258 0.0000000 -0.2588193
vn -1.0000000 0.0000000 0.0000000
vn -0.9659258 0.0000000 -0.2588193
vn -0.9659258 0.0000000 -0.2588193
vn 0.0000047 1.0000000 0.0000000
vn 0.0000047 1.0000000 0.0000000
vn 0.0000040 1.0000000 0.0000000
vn 0.0000047 1.0000000 0.0000000
vn 0.0000040 1.0000000 0.0000000
vn 0.0000035 1.0000000 0.0000000
vn 0.0000094 1.0000000 0.0000000
vn 0.0000094 1.0000000 0.0000000
vn 0.0000077 1.0000000 0.0000000
vn 0.0000094 1.0000000 0.0000000
vn 0.0000077 1.0000000 0.0000000
vn 0.0000047 1.0000000 0.0000000
vn 0.0000094 1.0000000 0.0000000
vn 0.0000047 1.0000000 0.0000000
vn 0.0000047 1.0000000 0.0000000
vn 0.0000023 -1.0000000 0.0000000
vn 0.0000020 -1.0000000 0.0000000
vn 0.0000021 -1.0000000 0.0000000
vn 0.0000023 -1.0000000 0.0000000
vn 0.0000021 -1.0000000 0.0000000
vn 0.0000023 -1.0000000 0.0000000
vn 0.0000047 -1.0000000 0.0000000
vn 0.0000023 -1.0000000 0.0000000
vn 0.0000023 -1.0000000 0.0000000
vn 0.0000047 -1.0000000 0.0000000
vn 0.0000023 -1.0000000 0.0000000
vn 0.0000038 -1.0000000 0.0000000
vn 0.0000047 -1.0000000 0.0000000
vn 0.0000038 -1.0000000 0.0000000
vn 0.0000047 -1.0000000 0.0000000
vn -0.8660259 0.0000000 -0.4999992
vn -0.8660259 0.0000000 -0.4999992
vn -0.7238737 0.0000000 -0.6899325
vn -0.8660259 0.0000000 -0.4999992
vn -0.7238737 0.0000000 -0.6899325
vn -0.7238737 0.0000000 -0.6899325
vn -0.8660259 0.0000000 -0.4999992
vn -0.7238737 0.0000000 -0.6899325
vn -0.7238737 0.0000000 -0.6899325
vn -0.9659256 0.0000000 -0.2588198
vn -0.9659256 0.0000000 -0.2588198
vn -0.8660259 0.0000000 -0.4999992
vn -0.9659256 0.0000000 -0.2588198
vn -0.8660259 0.0000000 -0.4999992
vn -0.8660259 0.0000000 -0.4999992
vn -1.0000000 0.0000000 0.0000000
vn -1.0000000 0.0000000 0.0000000
vn -0.9659256 0.0000000 -0.2588198
vn -1.0000000 0.0000000 0.0000000
vn -0.9659256 0.0000000 -0.2588198
vn -0.9659256 0.0000000 -0.2588198
vn 0.0000000 1.0000000 0.0000000
vn 0.0000000 1.0000000 0.0000000
vn -0.0000003 1.0000000 0.0000000
vn 0.0000000 1.0000000 0.0000000
vn -0.0000003 1.0000000 0.0000000
vn -0.0000008 1.0000000 0.0000000
vn 0.0000000 1.0000000 0.0000000
vn 0.0000000 1.0000000 0.0000000
vn 0.0000000 1.0000000 0.0000000
vn 0.0000000 1.0000000 0.0000000
vn 0.0000000 1.0000000 0.0000000
vn 0.0000000 1.0000000 0.0000000
vn 0.0000000 1.0000000 0.0000000
vn 0.0000000 1.0000000 0.0000000
vn 0.0000000 1.0000000 0.0000000
vn 0.0000000 1.0000000 0.0000000
vn 0.0000000 1.0000000 0.0000000
vn 0.0000000 1.0000000 0.0000000
vn 0.0000000 1.0000000 0.0000000
vn 0.0000000 1.0000000 0.0000000
vn 0.0000000 1.0000000 0.0000000
vn 0.0000000 1.0000000 0.0000000
vn 0.0000000 1.0000000 0.0000000
vn 0.0000000 1.0000000 0.0000000
vn 0.0000018 -1.0000000 0.0000000
vn 0.0000002 -1.0000000 0.0000000
vn 0.0000011 -1.0000000 0.0000000
vn 0.0000018 -1.0000000 0.0000000
vn 0.0000011 -1.0000000 0.0000000
vn 0.0000018 -1.0000000 0.0000000
vn 0.0000000 -1.0000000 0.0000000
vn 0.0000018 -1.0000000 0.0000000
vn 0.0000018 -1.0000000 0.0000000
vn 0.0000000 -1.0000000 0.0000000
vn 0.0000018 -1.0000000 0.0000000
vn 0.0000011 -1.0000000 0.0000000
vn 0.0000000 -1.0000000 0.0000000
vn 0.0000011 -1.0000000 0.0000000
vn 0.0000000 -1.0000000 0.0000000
vn -0.0000018 -1.0000000 0.0000000
vn 0.0000000 -1.0000000 0.0000000
vn 0.0000000 -1.0000000 0.0000000
vn -0.0000018 -1.0000000 0.0000000
vn 0.0000000 -1.0000000 0.0000000
vn -0.0000004 -1.0000000 0.0000000
vn -0.0000018 -1.0000000 0.0000000
vn -0.0000004 -1.0000000 0.0000000
vn -0.0000018 -1.0000000 0.0000000
vn -0.8660253 0.0000000 0.5000001
vn -0.8660253 0.0000000 0.5000001
vn -0.8660253 0.0000000 0.5000001
vn -0.8660253 0.0000000 0.5000001
vn -0.8660253 0.0000000 0.5000001
vn -0.8660253 0.0000000 0.5000001
vn 0.0000002 0.0000000 1.0000000
vn 0.0000002 0.0000000 1.0000000
vn 0.0000002 0.0000000 1.0000000
vn 0.0000002 0.0000000 1.0000000
vn 0.0000002 0.0000000 1.0000000
vn 0.0000002 0.0000000 1.0000000
vn 0.8660254 0.0000000 0.4999999
vn 0.8660254 0.0000000 0.4999999
vn 0.8660254 0.0000000 0.4999999
vn 0.8660254 0.0000000 0.4999999
vn 0.8660254 0.0000000 0.4999999
vn 0.8660254 0.0000000 0.4999999
vn 0.8660254 0.0000000 0.4999999
vn 0.8660254 0.0000000 0.4999999
vn 0.8660254 0.0000000 0.4999999
vn 0.8660253 0.0000000 -0.5000001
vn 0.8660253 0.0000000 -0.5000001
vn 0.8660253 0.0000000 -0.5000001
vn 0.8660253 0.0000000 -0.5000001
vn 0.8660253 0.0000000 -0.5000001
vn 0.8660253 0.0000000 -0.5000001
vn 0.8660253 0.0000000 -0.5000001
vn 0.8660253 0.0000000 -0.5000001
vn 0.8660253 0.0000000 -0.5000001
vn -0.0000002 0.0000000 -1.0000000
vn -0.0000002 0.0000000 -1.0000000
vn -0.0000002 0.0000000 -1.0000000
vn -0.0000002 0.0000000 -1.0000000
vn -0.0000002 0.0000000 -1.0000000
vn -0.0000002 0.0000000 -1.0000000
vn -0.8660254 0.0000000 -0.4999999
vn -0.8660254 0.0000000 -0.4999999
vn -0.8660254 0.0000000 -0.4999999
vn -0.8660254 0.0000000 -0.4999999
vn -0.8660254 0.0000000 -0.4999999
vn -0.8660254 0.0000000 -0.4999999
vn 0.0000000 -1.0000000 0.0000000
vn 0.0000000 -1.0000000 0.0000000
vn 0.0000000 -1.0000000 0.0000000
vn 0.0000000 -1.0000000 0.0000000
vn 0.0000000 -1.0000000 0.0000000
vn 0.0000000 -1.0000000 0.0000000
vn 0.0000000 -1.0000000 0.0000000
vn 0.0000000 -1.0000000 0.0000000
vn 0.0000000 -1.0000000 0.0000000
vn 0.0000000 -1.0000000 0.0000000
vn 0.0000000 -1.0000000 0.0000000
vn 0.0000000 -1.0000000 0.0000000
vn 0.0000000 -1.0000000 0.0000000
vn 0.0000000 -1.0000000 0.0000000
vn 0.0000000 -1.0000000 0.0000000
vn 0.0000000 -1.0000000 0.0000000
vn 0.0000000 -1.0000000 0.0000000
vn 0.0000000 -1.0000000 0.0000000
vn 0.0000000 -1.0000000 0.0000000
vn 0.0000000 -1.0000000 0.0000000
vn 0.0000000 -1.0000000 0.0000000
vn 0.0000000 -1.0000000 0.0000000
vn 0.0000000 -1.0000000 0.0000000
vn 0.0000000 -1.0000000 0.0000000
vn 0.0000000 1.0000000 0.0000000
vn 0.0000000 1.0000000 0.0000000
vn 0.0000000 1.0000000 0.0000000
vn 0.0000000 1.0000000 0.0000000
vn 0.0000000 1.0000000 0.0000000
vn 0.0000000 1.0000000 0.0000000
vn 0.0000000 1.0000000 0.0000000
vn 0.0000000 1.0000000 0.0000000
vn 0.0000000 1.0000000 0.0000000
vn 0.0000000 1.0000000 0.0000000
vn 0.0000000 1.0000000 0.0000000
vn 0.0000000 1.0000000 0.0000000
vn 0.0000000 1.0000000 0.0000000
vn 0.0000000 1.0000000 0.0000000
vn 0.0000000 1.0000000 0.0000000
vn 0.0000000 1.0000000 0.0000000
vn 0.0000000 1.0000000 0.0000000
vn 0.0000000 1.0000000 0.0000000
vn 0.0000000 1.0000000 0.0000000
vn 0.0000000 1.0000000 0.0000000
vn 0.0000000 1.0000000 0.0000000
vn 0.0000000 1.0000000 0.0000000
vn 0.0000000 1.0000000 0.0000000
vn 0.0000000 1.0000000 0.0000000
f 1/1/1 2/2/2 3/3/3
f 4/4/4 5/5/5 6/6/6
f 7/7/7 8/8/8 9/9/9
f 10/10/10 11/11/11 12/12/12
f 13/13/13 14/14/14 15/15/15
f 16/16/16 17/17/17 18/18/18
f 19/19/19 20/20/20 21/21/21
f 22/22/22 23/23/23 24/24/24
f 25/25/25 26/26/26 27/27/27
f 28/28/28 29/29/29 30/30/30
f 31/31/31 32/32/32 33/33/33
f 34/34/34 35/35/35 36/36/36
f 37/37/37 38/38/38 39/39/39
f 40/40/40 41/41/41 42/42/42
f 43/43/43 44/44/44 45/45/45
f 46/46/46 47/47/47 48/48/48
f 49/49/49 50/50/50 51/51/51
f 52/52/52 53/53/53 54/54/54
f 55/55/55 56/56/56 57/57/57
f 58/58/58 59/59/59 60/60/60
f 61/61/61 62/62/62 63/63/63
f 64/64/64 65/65/65 66/66/66
f 67/67/67 68/68/68 69/69/69
f 70/70/70 71/71/71 72/72/72
f 73/73/73 74/74/74 75/75/75
f 76/76/76 77/77/77 78/78/78
f 79/79/79 80/80/80 81/81/81
f 82/82/82 83/83/83 84/84/84
f 85/85/85 86/86/86 87/87/87
f 88/88/88 89/89/89 90/90/90
f 91/91/91 92/92/92 93/93/93
f 94/94/94 95/95/95 96/96/96
f 97/97/97 98/98/98 99/99/99
f 100/100/100 101/101/101 102/102/102
f 103/103/103 104/104/104 105/105/105
f 106/106/106 107/107/107 108/108/108
f 109/109/109 110/110/110 111/111/111
f 112/112/112 113/113/113 114/114/114
f 115/115/115 116/116/116 117/117/117
f 118/118/118 119/119/119 120/120/120
f 121/121/121 122/122/122 123/123/123
f 124/124/124 125/125/125 126/126/126
f 127/127/127 128/128/128 129/129/129
f 130/130/130 131/131/131 132/132/132
f 133/133/133 134/134/134 135/135/135
f 136/136/136 137/137/137 138/138/138
f 139/139/139 140/140/140 141/141/141
f 142/142/142 143/143/143 144/144/144
f 145/145/145 146/146/146 147/147/147
f 148/148/148 149/149/149 150/150/150
f 151/151/151 152/152/152 153/153/153
f 154/154/154 155/155/155 156/156/156
f 157/157/157 158/158/158 159/159/159
f 160/160/160 161/161/161 162/162/162
f 163/163/163 164/164/164 165/165/165
f 166/166/166 167/167/167 168/168/168
f 169/169/169 170/170/170 171/171/171
f 172/172/172 173/173/173 174/174/174
f 175/175/175 176/176/176 177/177/177
f 178/178/178 179/179/179 180/180/180
f 181/181/181 182/182/182 183/183/183
f 184/184/184 185/185/185 186/186/186
f 187/187/187 188/188/188 189/189/189
f 190/190/190 191/191/191 192/192/192
f 193/193/193 194/194/194 195/195/195
f 196/196/196 197/197/197 198/198/198
f 199/199/199 200/200/200 201/201/201
f 202/202/202 203/203/203 204/204/204
f 205/205/205 206/206/206 207/207/207
f 208/208/208 209/209/209 210/210/210
f 211/211/211 212/212/212 213/213/213
f 214/214/214 215/215/215 216/216/216
f 217/217/217 218/218/218 219/219/219
f 220/220/220 221/221/221 222/222/222
f 223/223/223 224/224/224 225/225/225
f 226/226/226 227/227/227 228/228/228
f 229/229/229 230/230/230 231/231/231
f 232/232/232 233/233/233 234/234/234
f 235/235/235 236/236/236 237/237/237
f 238/238/238 239/239/239 240/240/240
f 241/241/241 242/242/242 243/243/243
f 244/244/244 245/245/245 246/246/246
f 247/247/247 248/248/248 249/249/249
f 250/250/250 251/251/251 252/252/252
f 253/253/253 254/254/254 255/255/255
f 256/256/256 257/257/257 258/258/258
f 259/259/259 260/260/260 261/261/261
f 262/262/262 263/263/263 264/264/264
f 265/265/265 266/266/266 267/267/267
f 268/268/268 269/269/269 270/270/270
f 271/271/271 272/272/272 273/273/273
f 274/274/274 275/275/275 276/276/276
f 277/277/277 278/278/278 279/279/279
f 280/280/280 281/281/281 282/282/282
f 283/283/283 284/284/284 285/285/285
f 286/286/286 287/287/287 288/288/288
f 289/289/289 290/290/290 291/291/291
f 292/292/292 293/293/293 294/294/294
f 295/295/295 296/296/296 297/297/297
f 298/298/298 299/299/299 300/300/300
f 301/301/301 302/302/302 303/303/303
f 304/304/304 305/305/305 306/306/306
f 307/307/307 308/308/308 309/309/309
f 310/310/310 311/311/311 312/312/312
f 313/313/313 314/314/314 315/315/315
f 316/316/316 317/317/317 318/318/318
f 319/319/319 320/320/320 321/321/321
f 322/322/322 323/323/323 324/324/324
f 325/325/325 326/326/326 327/327/327
f 328/328/328 329/329/329 330/330/330
f 331/331/331 332/332/332 333/333/333
f 334/334/334 335/335/335 336/336/336
f 337/337/337 338/338/338 339/339/339
f 340/340/340 341/341/341 342/342/342
f 343/343/343 344/344/344 345/345/345
f 346/346/346 347/347/347 348/348/348
f 349/349/349 350/350/350 351/351/351
f 352/352/352 353/353/353 354/354/354
f 355/355/355 356/356/356 357/357/357
f 358/358/358 359/359/359 360/360/360
f 361/361/361 362/362/362 363/363/363
f 364/364/364 365/365/365 366/366/366
f 367/367/367 368/368/368 369/369/369
f 370/370/370 371/371/371 372/372/372
f 373/373/373 374/374/374 375/375/375
f 376/376/376 377/377/377 378/378/378
f 379/379/379 380/380/380 381/381/381
f 382/382/382 383/383/383 384/384/384
f 385/385/385 386/386/386 387/387/387
f 388/388/388 389/389/389 390/390/390
f 391/391/391 392/392/392 393/393/393
f 394/394/394 395/395/395 396/396/396
f 397/397/397 398/398/398 399/399/399
f 400/400/400 401/401/401 402/402/402
f 403/403/403 404/404/404 405/405/405
f 406/406/406 407/407/407 408/408/408
f 409/409/409 410/410/410 411/411/411
f 412/412/412 413/413/413 414/414/414
f 415/415/415 416/416/416 417/417/417
f 418/418/418 419/419/419 420/420/420
f 421/421/421 422/422/422 423/423/423
f 424/424/424 425/425/425 426/426/426
f 427/427/427 428/428/428 429/429/429
f 430/430/430 431/431/431 432/432/432
f 433/433/433 434/434/434 435/435/435
f 436/436/436 437/437/437 438/438/438
f 439/439/439 440/440/440 441/441/441
f 442/442/442 443/443/443 444/444/444
f 445/445/445 446/446/446 447/447/447
f 448/448/448 449/449/449 450/450/450
f 451/451/451 452/452/452 453/453/453
f 454/454/454 455/455/455 456/456/456
f 457/457/457 458/458/458 459/459/459
f 460/460/460 461/461/461 462/462/462
f 463/463/463 464/464/464 465/465/465
f 466/466/466 467/467/467 468/468/468
f 469/469/469 470/470/470 471/471/471
f 472/472/472 473/473/473 474/474/474
f 475/475/475 476/476/476 477/477/477
f 478/478/478 479/479/479 480/480/480
f 481/481/481 482/482/482 483/483/483
f 484/484/484 485/485/485 486/486/486
f 487/487/487 488/488/488 489/489/489
f 490/490/490 491/491/491 492/492/492
f 493/493/493 494/494/494 495/495/495
f 496/496/496 497/497/497 498/498/498
f 499/499/499 500/500/500 501/501/501
f 502/502/502 503/503/503 504/504/504
f 505/505/505 506/506/506 507/507/507
f 508/508/508 509/509/509 510/510/510
f 511/511/511 512/512/512 513/513/513
f 514/514/514 515/515/515 516/516/516
f 517/517/517 518/518/518 519/519/519
f 520/520/520 521/521/521 522/522/522
f 523/523/523 524/524/524 525/525/525
f 526/526/526 527/527/527 528/528/528
f 529/529/529 530/530/530 531/531/531
f 532/532/532 533/533/533 534/534/534
f 535/535/535 536/536/536 537/537/537
f 538/538/538 539/539/539 540/540/540
f 541/541/541 542/542/542 543/543/543
f 544/544/544 545/545/545 546/546/546
f 547/547/547 548/548/548 549/549/549
f 550/550/550 551/551/551 552/552/552
f 553/553/553 554/554/554 555/555/555
f 556/556/556 557/557/557 558/558/558
f 559/559/559 560/560/560 561/561/561
f 562/562/562 563/563/563 564/564/564
f 565/565/565 566/566/566 567/567/567
f 568/568/568 569/569/569 570/570/570
f 571/571/571 572/572/572 573/573/573
f 574/574/574 575/575/575 576/576/576
f 577/577/577 578/578/578 579/579/579
f 580/580/580 581/581/581 582/582/582
f 583/583/583 584/584/584 585/585/585
f 586/586/586 587/587/587 588/588/588
f 589/589/589 590/590/590 591/591/591
f 592/592/592 593/593/593 594/594/594
f 595/595/595 596/596/596 597/597/597
f 598/598/598 599/599/599 600/600/600
f 601/601/601 602/602/602 603/603/603
f 604/604/604 605/605/605 606/606/606
f 607/607/607 608/608/608 609/609/609
f 610/610/610 611/611/611 612/612/612
f 613/613/613 614/614/614 615/615/615
f 616/616/616 617/617/617 618/618/618
f 619/619/619 620/620/620 621/621/621
f 622/622/622 623/623/623 624/624/624
f 625/625/625 626/626/626 627/627/627
f 628/628/628 629/629/629 630/630/630
f 631/631/631 632/632/632 633/633/633
f 634/634/634 635/635/635 636/636/636
f 637/637/637 638/638/638 639/639/639
f 640/640/640 641/641/641 642/642/642
f 643/643/643 644/644/644 645/645/645
f 646/646/646 647/647/647 648/648/648
f 649/649/649 650/650/650 651/651/651
f 652/652/652 653/653/653 654/654/654
f 655/655/655 656/656/656 657/657/657
f 658/658/658 659/659/659 660/660/660
f 661/661/661 662/662/662 663/663/663
f 664/664/664 665/665/665 666/666/666
f 667/667/667 668/668/668 669/669/669
f 670/670/670 671/671/671 672/672/672
f 673/673/673 674/674/674 675/675/675
f 676/676/676 677/677/677 678/678/678
f 679/679/679 680/680/680 681/681/681
f 682/682/682 683/683/683 684/684/684
f 685/685/685 686/686/686 687/687/687
f 688/688/688 689/689/689 690/690/690
f 691/691/691 692/692/692 693/693/693
f 694/694/694 695/695/695 696/696/696
f 697/697/697 698/698/698 699/699/699
f 700/700/700 701/701/701 702/702/702
f 703/703/703 704/704/704 705/705/705
f 706/706/706 707/707/707 708/708/708
f 709/709/709 710/710/710 711/711/711
f 712/712/712 713/713/713 714/714/714
f 715/715/715 716/716/716 717/717/717
f 718/718/718 719/719/719 720/720/720
f 721/721/721 722/722/722 723/723/723
f 724/724/724 725/725/725 726/726/726
f 727/727/727 728/728/728 729/729/729
f 730/730/730 731/731/731 732/732/732
f 733/733/733 734/734/734 735/735/735
f 736/736/736 737/737/737 738/738/738
f 739/739/739 740/740/740 741/741/741
f 742/742/742 743/743/743 744/744/744
f 745/745/745 746/746/746 747/747/747
f 748/748/748 749/749/749 750/750/750
f 751/751/751 752/752/752 753/753/753
f 754/754/754 755/755/755 756/756/756
f 757/757/757 758/758/758 759/759/759
f 760/760/760 761/761/761 762/762/762
f 763/763/763 764/764/764 765/765/765
f 766/766/766 767/767/767 768/768/768
f 769/769/769 770/770/770 771/771/771
f 772/772/772 773/773/773 774/774/774
