# Generated by tools-import-turbines.py; estimated STEP scale.
mtllib materials.mtl
s off
v 0.000000000 0.271428639 0.166666700
v 0.000000000 0.316666700 0.166666700
v 0.066666600 0.316666700 0.166666700
v 0.000000000 0.000000000 0.166666700
v 0.066666600 0.000000000 0.166666700
v 0.066666600 0.056547627 1.000000000
v 0.066666600 0.316666700 1.000000000
v 0.066666600 0.000000000 1.000000000
v 0.000000000 0.000000000 1.000000000
v 0.000000000 0.316666700 0.833332743
v 0.000000000 0.316666700 1.000000000
v 0.005817957 1.000000000 0.807458549
v 0.000000000 0.983189197 0.801602806
v 0.000000000 1.000000000 0.804461367
v 0.092827695 1.000000000 0.852282540
v 0.000000000 0.672202143 0.748721599
v 0.105505284 1.000000000 0.885310174
v 0.000000000 0.658050972 0.754690929
v 0.139471195 1.000000000 0.973798141
v 0.000000000 0.507492281 0.818200524
v 0.127858572 1.000000000 1.000000000
v 0.120525228 0.982671894 1.000000000
v 0.000000000 0.512817565 0.823285578
v 0.012605076 0.727665114 1.000000000
v 0.000000000 0.683153431 0.985937456
v 0.000000000 0.717789118 1.000000000
v 0.000000000 0.449999965 0.400000000
v 0.000000000 0.583333300 0.400000000
v 0.266666700 0.583333300 0.400000000
v 0.000000000 0.150000000 0.400000000
v 0.266666700 0.150000000 0.400000000
v 0.266666700 0.475000016 1.000000000
v 0.266666700 0.583333300 1.000000000
v 0.266666700 0.150000000 1.000000000
v 0.050000106 0.150000000 1.000000000
v 0.000000000 0.150000000 0.953846063
v 0.000000000 0.150000000 1.000000000
v 0.000000000 0.583333300 0.646153837
v 0.000000000 0.583333300 1.000000000
vt 0 0
vt 1 0
vt 1 1
vt 0 1
vn 0.000000000 -1.000000000 0.000000000
vn 0.000000000 0.000000000 -1.000000000
vn 0.000000000 1.000000000 0.000000000
vn 0.282716950 -0.360841440 0.888743259
vn 0.452818664 0.149465415 -0.878985408
vn 0.452818664 0.149465415 -0.878985408
vn 0.852639342 -0.360841378 0.377888412
vn 0.852639481 -0.360841318 0.377888156
vn 0.923098463 -0.149465327 -0.354329428
vn 0.923098496 -0.149465378 -0.354329321
vn 1.000000000 0.000000000 0.000000000
usemtl dvss_1
f 1/1/2 2/2/2 3/3/2
f 4/1/2 1/2/2 3/3/2 5/4/2
f 6/1/11 5/2/11 3/3/11 7/4/11
f 8/1/11 5/2/11 6/3/11
f 9/1/1 4/2/1 5/3/1 8/4/1
f 10/1/3 3/2/3 2/3/3
f 7/1/3 3/2/3 10/3/3 11/4/3
usemtl dvss_4
f 12/1/5 13/2/5 14/3/5
f 13/1/6 12/2/6 15/3/6 16/4/6
f 17/1/9 18/2/9 16/3/9 15/4/9
f 18/1/10 17/2/10 19/3/10 20/4/10
f 21/1/7 22/2/7 23/3/7
f 21/1/7 23/2/7 20/3/7
f 21/1/7 20/2/7 19/3/7
f 23/1/8 22/2/8 24/3/8 25/4/8
f 26/1/4 25/2/4 24/3/4
f 27/1/2 28/2/2 29/3/2
f 30/1/2 27/2/2 29/3/2 31/4/2
f 32/1/11 31/2/11 29/3/11 33/4/11
f 34/1/11 31/2/11 32/3/11
f 35/1/1 36/2/1 30/3/1
f 35/1/1 30/2/1 31/3/1
f 35/1/1 31/2/1 34/3/1
f 37/1/1 36/2/1 35/3/1
f 38/1/3 29/2/3 28/3/3
f 33/1/3 29/2/3 38/3/3 39/4/3
