# Generated by tools-import-turbines.py; estimated STEP scale.
mtllib materials.mtl
s off
v 0.066666600 0.192261938 1.000000000
v 0.066666600 0.124404783 0.000000000
v 0.066666600 0.316666700 0.000000000
v 0.066666600 0.316666700 1.000000000
v 0.066666600 0.000000000 1.000000000
v 0.066666600 0.000000000 0.000000000
v 0.000000000 0.000000000 1.000000000
v 0.000000000 0.000000000 0.000000000
v 0.000000000 0.316666700 0.000000000
v 0.000000000 0.316666700 1.000000000
vt 0 0
vt 1 0
vt 1 1
vt 0 1
vn 0.000000000 -1.000000000 0.000000000
vn 0.000000000 1.000000000 0.000000000
vn 1.000000000 0.000000000 0.000000000
usemtl dvss_1
f 1/1/3 2/2/3 3/3/3 4/4/3
f 5/1/3 6/2/3 2/3/3 1/4/3
f 7/1/1 8/2/1 6/3/1 5/4/1
f 4/1/2 3/2/2 9/3/2 10/4/2
