# Generated by tools-import-turbines.py; estimated STEP scale.
mtllib materials.mtl
s off
v 0.143016601 1.000000000 0.394191342
v 0.164842400 0.258332700 0.406792500
v 0.164842400 1.000000000 0.406792500
v 0.114324300 1.000000000 0.377625800
v 0.114324300 0.258332700 0.377625800
v 0.144927019 1.000000000 0.324620294
v 0.185157500 1.000000000 0.254939000
v 0.185157500 0.258332700 0.254939000
v 0.206983299 1.000000000 0.267540158
v 0.235675600 1.000000000 0.284105700
v 0.235675600 0.258332700 0.284105700
v 0.205072881 1.000000000 0.337111206
v 0.407310634 1.000000000 0.598295834
v 0.425131300 0.258332700 0.616116500
v 0.425131300 1.000000000 0.616116500
v 0.383883500 1.000000000 0.574868700
v 0.383883500 0.258332700 0.574868700
v 0.427162335 1.000000000 0.531589822
v 0.484056900 1.000000000 0.474695200
v 0.484056900 0.258332700 0.474695200
v 0.501877610 1.000000000 0.492515910
v 0.525304800 1.000000000 0.515943100
v 0.525304800 0.258332700 0.515943100
v 0.482025922 1.000000000 0.559221935
v 0.609773142 1.000000000 0.863849958
v 0.622374300 0.258332700 0.885675800
v 0.622374300 1.000000000 0.885675800
v 0.593207600 1.000000000 0.835157600
v 0.593207600 0.258332700 0.835157600
v 0.646213150 1.000000000 0.804554838
v 0.715894500 1.000000000 0.764324300
v 0.715894500 0.258332700 0.764324300
v 0.728495658 1.000000000 0.786150142
v 0.745061200 1.000000000 0.814842500
v 0.745061200 0.258332700 0.814842500
v 0.692055650 1.000000000 0.845445262
v 0.000000000 0.211162333 0.213054766
v 0.000000000 0.258333200 0.213054766
v 0.029378400 0.258333200 0.221966600
v 0.000000000 0.000000000 0.213054766
v 0.029378400 0.000000000 0.221966600
v 0.120259509 0.000000000 0.270543510
v 0.268538700 0.258333200 0.349800300
v 0.268538700 0.000000000 0.349800300
v 0.348196561 0.000000000 0.415173778
v 0.478164200 0.258333200 0.521835400
v 0.478164200 0.000000000 0.521835400
v 0.543537716 0.000000000 0.601493299
v 0.650199400 0.258333200 0.731461000
v 0.650199400 0.000000000 0.731461000
v 0.698776386 0.000000000 0.822342033
v 0.778033300 0.258333200 0.970621100
v 0.778033300 0.000000000 0.970621100
v 0.786945287 0.000000000 1.000000000
v 0.786945287 0.258333200 1.000000000
v 0.783877123 0.258333200 1.000000000
v 0.000000000 0.258333200 0.216122876
v 0.778033300 0.258333200 1.000000000
v 0.000000000 0.258333200 0.221966608
v 0.351650567 0.258333200 1.000000000
v 0.000000000 0.258333200 0.234135539
v 0.000000000 0.258333200 0.292892371
v 0.000000000 0.258333200 1.000000000
v 0.000000000 0.150000100 0.304334546
v 0.000000000 1.000000000 0.304334546
v 0.090187500 1.000000000 0.341691400
v 0.090187500 0.150000100 0.341691400
v 0.165361965 1.000000000 0.387758397
v 0.264120600 1.000000000 0.448277800
v 0.264120600 0.150000100 0.448277800
v 0.331163116 1.000000000 0.505537567
v 0.419238600 1.000000000 0.580761200
v 0.419238600 0.150000100 0.580761200
v 0.476498367 1.000000000 0.647803673
v 0.551722000 1.000000000 0.735879100
v 0.551722000 0.150000100 0.735879100
v 0.597789040 1.000000000 0.811053565
v 0.658308500 1.000000000 0.909812200
v 0.658308500 0.150000100 0.909812200
v 0.692048410 1.000000000 0.991267660
v 0.695665458 0.150000100 1.000000000
v 0.695665458 1.000000000 1.000000000
v 0.000000000 0.150000100 0.312387747
v 0.687612266 0.150000100 1.000000000
v 0.000000000 0.150000100 0.327407124
v 0.672592850 0.150000100 1.000000000
v 0.000000000 0.150000100 0.355975718
v 0.425612607 0.150000100 1.000000000
v 0.000000000 0.150000100 1.000000000
v 0.650000100 0.233333600 1.000000000
v 0.650000100 1.000000000 1.000000000
v 0.650000100 1.000000000 0.958333400
v 0.650000100 0.233333600 0.958333400
v 1.000000000 1.000000000 0.958333400
v 1.000000000 0.656249836 0.958333400
v 1.000000000 0.233333600 0.958333400
v 1.000000000 0.233333600 1.000000000
v 0.680769296 0.233333600 1.000000000
vt 0 0
vt 1 0
vt 1 1
vt 0 1
vn -1.000000000 0.000000000 0.000000000
vn -0.866025578 0.000000000 -0.499999698
vn -0.866025377 0.000000000 0.500000047
vn -0.707107134 0.000000000 -0.707106428
vn -0.707106781 0.000000000 0.707106781
vn -0.500000789 0.000000000 0.866024948
vn -0.499999922 0.000000000 -0.866025449
vn 0.000000000 -1.000000000 0.000000000
vn 0.000000000 0.000000000 -1.000000000
vn 0.000000000 1.000000000 0.000000000
vn 0.290284487 0.000000000 -0.956940394
vn 0.382683156 0.000000000 -0.923879647
vn 0.471396325 0.000000000 -0.881921485
vn 0.499999922 0.000000000 0.866025449
vn 0.500000789 0.000000000 -0.866024948
vn 0.522498776 0.000000000 -0.852640035
vn 0.634393060 0.000000000 -0.773010638
vn 0.649448366 0.000000000 -0.760405694
vn 0.707106428 0.000000000 0.707107134
vn 0.707106781 0.000000000 -0.707106781
vn 0.760405487 0.000000000 -0.649448609
vn 0.773010605 0.000000000 -0.634393099
vn 0.852639817 0.000000000 -0.522499132
vn 0.866025377 0.000000000 -0.500000047
vn 0.866025578 0.000000000 0.499999698
vn 0.881921014 0.000000000 -0.471397205
vn 0.923879719 0.000000000 -0.382682982
vn 0.956940384 0.000000000 -0.290284517
usemtl dvss_2
f 1/1/6 2/2/6 3/3/6
f 2/1/6 1/2/6 4/3/6 5/4/6
f 6/1/2 5/2/2 4/3/2
f 5/1/2 6/2/2 7/3/2 8/4/2
f 9/1/15 8/2/15 7/3/15
f 8/1/15 9/2/15 10/3/15 11/4/15
f 12/1/25 11/2/25 10/3/25
f 11/1/25 12/2/25 3/3/25 2/4/25
f 5/1/8 8/2/8 11/3/8
f 5/1/8 11/2/8 2/3/8
f 13/1/5 14/2/5 15/3/5
f 14/1/5 13/2/5 16/3/5 17/4/5
f 18/1/4 17/2/4 16/3/4
f 17/1/4 18/2/4 19/3/4 20/4/4
f 21/1/20 20/2/20 19/3/20
f 20/1/20 21/2/20 22/3/20 23/4/20
f 24/1/19 23/2/19 22/3/19
f 23/1/19 24/2/19 15/3/19 14/4/19
f 17/1/8 20/2/8 23/3/8
f 17/1/8 23/2/8 14/3/8
f 25/1/3 26/2/3 27/3/3
f 26/1/3 25/2/3 28/3/3 29/4/3
f 30/1/7 29/2/7 28/3/7
f 29/1/7 30/2/7 31/3/7 32/4/7
f 33/1/24 32/2/24 31/3/24
f 32/1/24 33/2/24 34/3/24 35/4/24
f 36/1/14 35/2/14 34/3/14
f 35/1/14 36/2/14 27/3/14 26/4/14
f 29/1/8 32/2/8 35/3/8
f 29/1/8 35/2/8 26/3/8
f 37/1/11 38/2/11 39/3/11
f 40/1/11 37/2/11 39/3/11 41/4/11
f 42/1/13 41/2/13 39/3/13 43/4/13
f 42/1/13 43/2/13 44/3/13
f 45/1/17 44/2/17 43/3/17 46/4/17
f 45/1/17 46/2/17 47/3/17
f 48/1/22 47/2/22 46/3/22 49/4/22
f 48/1/22 49/2/22 50/3/22
f 51/1/26 50/2/26 49/3/26 52/4/26
f 51/1/26 52/2/26 53/3/26
f 54/1/28 53/2/28 52/3/28 55/4/28
f 56/1/10 55/2/10 52/3/10
f 52/1/10 49/2/10 46/3/10
f 46/1/10 43/2/10 39/3/10
f 57/1/10 39/2/10 38/3/10
f 58/1/10 56/2/10 52/3/10
f 52/1/10 46/2/10 39/3/10
f 59/1/10 39/2/10 57/3/10
f 60/1/10 58/2/10 52/3/10 39/4/10
f 61/1/10 39/2/10 59/3/10
f 62/1/10 63/2/10 60/3/10 39/4/10
f 62/1/10 39/2/10 61/3/10
f 64/1/12 65/2/12 66/3/12 67/4/12
f 68/1/16 67/2/16 66/3/16
f 67/1/16 68/2/16 69/3/16 70/4/16
f 71/1/18 70/2/18 69/3/18
f 70/1/18 71/2/18 72/3/18 73/4/18
f 74/1/21 73/2/21 72/3/21
f 73/1/21 74/2/21 75/3/21 76/4/21
f 77/1/23 76/2/23 75/3/23
f 76/1/23 77/2/23 78/3/23 79/4/23
f 80/1/27 79/2/27 78/3/27
f 81/1/27 79/2/27 80/3/27 82/4/27
f 83/1/8 64/2/8 67/3/8
f 67/1/8 70/2/8 73/3/8
f 73/1/8 76/2/8 79/3/8
f 84/1/8 79/2/8 81/3/8
f 85/1/8 83/2/8 67/3/8
f 67/1/8 73/2/8 79/3/8
f 86/1/8 79/2/8 84/3/8
f 87/1/8 85/2/8 67/3/8
f 88/1/8 67/2/8 79/3/8 86/4/8
f 89/1/8 87/2/8 67/3/8 88/4/8
f 90/1/1 91/2/1 92/3/1 93/4/1
f 94/1/9 95/2/9 93/3/9 92/4/9
f 96/1/9 93/2/9 95/3/9
f 97/1/8 98/2/8 93/3/8 96/4/8
f 90/1/8 93/2/8 98/3/8
