# Generated by tools-import-turbines.py; estimated STEP scale.
mtllib materials.mtl
s off
v 0.172756649 1.000000000 0.263393798
v 0.197100200 0.258332700 0.256871000
v 0.197100200 1.000000000 0.256871000
v 0.140754500 1.000000000 0.271968700
v 0.140754500 0.258332700 0.271968700
v 0.124913264 1.000000000 0.212848673
v 0.104088300 1.000000000 0.135129200
v 0.104088300 0.258332700 0.135129200
v 0.128431851 1.000000000 0.128606402
v 0.160434000 1.000000000 0.120031500
v 0.160434000 0.258332700 0.120031500
v 0.176275236 1.000000000 0.179151527
v 0.503964385 1.000000000 0.220833300
v 0.529166700 0.258332700 0.220833300
v 0.529166700 1.000000000 0.220833300
v 0.470833300 1.000000000 0.220833300
v 0.470833300 0.258332700 0.220833300
v 0.470833300 1.000000000 0.159627776
v 0.470833300 1.000000000 0.079166700
v 0.470833300 0.258332700 0.079166700
v 0.496035615 1.000000000 0.079166700
v 0.529166700 1.000000000 0.079166700
v 0.529166700 0.258332700 0.079166700
v 0.529166700 1.000000000 0.140372224
v 0.834901949 1.000000000 0.265445902
v 0.859245500 0.258332700 0.271968700
v 0.859245500 1.000000000 0.271968700
v 0.802899800 1.000000000 0.256871000
v 0.802899800 0.258332700 0.256871000
v 0.818741036 1.000000000 0.197750973
v 0.839566000 1.000000000 0.120031500
v 0.839566000 0.258332700 0.120031500
v 0.863909551 1.000000000 0.126554298
v 0.895911700 1.000000000 0.135129200
v 0.895911700 0.258332700 0.135129200
v 0.880070464 1.000000000 0.194249227
v 0.069232794 0.000000000 0.192053312
v 0.000000000 0.000000000 0.213054891
v 0.000000000 0.258333200 0.213054891
v 0.230125000 0.258333200 0.143247100
v 0.230125000 0.000000000 0.143247100
v 0.332677644 0.000000000 0.133146526
v 0.499999800 0.258333200 0.116666700
v 0.499999800 0.000000000 0.116666700
v 0.602552520 0.000000000 0.126767274
v 0.769874800 0.258333200 0.143247100
v 0.769874800 0.000000000 0.143247100
v 1.000000000 0.211162333 0.213054766
v 0.868486380 0.000000000 0.173160574
v 1.000000000 0.258333200 0.213054766
v 1.000000000 0.000000000 0.213054766
v 1.000000000 0.258333200 0.216122876
v 0.000000000 0.258333200 0.216123061
v 0.000000000 0.258333200 0.221966892
v 1.000000000 0.258333200 0.221966608
v 0.000000000 0.258333200 0.648349333
v 1.000000000 0.258333200 0.234135539
v 1.000000000 0.258333200 1.000000000
v 1.000000000 0.258333200 0.292892371
v 0.707106594 0.258333200 1.000000000
v 0.000000000 0.258333200 1.000000000
v 0.000000000 0.150000100 0.304334642
v 0.000000000 1.000000000 0.304334642
v 0.098277800 1.000000000 0.263626700
v 0.098277800 0.150000100 0.263626700
v 0.184008399 1.000000000 0.243044529
v 0.296634900 1.000000000 0.216005200
v 0.296634900 0.150000100 0.216005200
v 0.384529887 1.000000000 0.209087699
v 0.499999800 1.000000000 0.200000000
v 0.499999800 0.150000100 0.200000000
v 0.587894744 1.000000000 0.206917501
v 0.703364600 1.000000000 0.216005200
v 0.703364600 0.150000100 0.216005200
v 0.789095329 1.000000000 0.236587285
v 0.901722000 1.000000000 0.263626500
v 0.901722000 0.150000100 0.263626500
v 0.983177417 1.000000000 0.297366410
v 1.000000000 1.000000000 0.304334546
v 1.000000000 0.150000100 0.304334546
v 0.000000000 0.150000100 0.312387787
v 1.000000000 0.150000100 0.312387747
v 0.000000000 0.150000100 0.367148368
v 1.000000000 0.150000100 0.327407124
v 1.000000000 0.150000100 0.355975718
v 0.000000000 0.150000100 0.514360397
v 1.000000000 0.150000100 1.000000000
v 0.403563604 0.150000100 1.000000000
v 0.000000000 0.150000100 0.794374154
v 0.000000000 0.150000100 1.000000000
vt 0 0
vt 1 0
vt 1 1
vt 0 1
vn -1.000000000 0.000000000 0.000000000
vn -0.965925532 0.000000000 0.258820142
vn -0.965925532 0.000000000 -0.258820142
vn -0.382682982 0.000000000 -0.923879719
vn -0.290285192 0.000000000 -0.956940179
vn -0.258817689 0.000000000 0.965926190
vn -0.258817689 0.000000000 -0.965926190
vn -0.233446168 0.000000000 -0.972369727
vn -0.098017331 0.000000000 -0.995184708
vn -0.078459268 0.000000000 -0.996917320
vn 0.000000000 -1.000000000 0.000000000
vn 0.000000000 0.000000000 -1.000000000
vn 0.000000000 0.000000000 1.000000000
vn 0.000000000 1.000000000 0.000000000
vn 0.078459306 0.000000000 -0.996917317
vn 0.098017259 0.000000000 -0.995184715
vn 0.233444908 0.000000000 -0.972370030
vn 0.258817689 0.000000000 -0.965926190
vn 0.258817689 0.000000000 0.965926190
vn 0.290284487 0.000000000 -0.956940394
vn 0.382683156 0.000000000 -0.923879647
vn 0.965925532 0.000000000 0.258820142
vn 0.965925532 0.000000000 -0.258820142
vn 1.000000000 0.000000000 0.000000000
usemtl dvss_2
f 1/1/19 2/2/19 3/3/19
f 2/1/19 1/2/19 4/3/19 5/4/19
f 6/1/2 5/2/2 4/3/2
f 5/1/2 6/2/2 7/3/2 8/4/2
f 9/1/7 8/2/7 7/3/7
f 8/1/7 9/2/7 10/3/7 11/4/7
f 12/1/23 11/2/23 10/3/23
f 11/1/23 12/2/23 3/3/23 2/4/23
f 5/1/11 8/2/11 11/3/11
f 5/1/11 11/2/11 2/3/11
f 13/1/13 14/2/13 15/3/13
f 14/1/13 13/2/13 16/3/13 17/4/13
f 18/1/1 17/2/1 16/3/1
f 17/1/1 18/2/1 19/3/1 20/4/1
f 21/1/12 20/2/12 19/3/12
f 20/1/12 21/2/12 22/3/12 23/4/12
f 24/1/24 23/2/24 22/3/24
f 23/1/24 24/2/24 15/3/24 14/4/24
f 17/1/11 20/2/11 23/3/11
f 17/1/11 23/2/11 14/3/11
f 25/1/6 26/2/6 27/3/6
f 26/1/6 25/2/6 28/3/6 29/4/6
f 30/1/3 29/2/3 28/3/3
f 29/1/3 30/2/3 31/3/3 32/4/3
f 33/1/18 32/2/18 31/3/18
f 32/1/18 33/2/18 34/3/18 35/4/18
f 36/1/22 35/2/22 34/3/22
f 35/1/22 36/2/22 27/3/22 26/4/22
f 29/1/11 32/2/11 35/3/11
f 29/1/11 35/2/11 26/3/11
f 37/1/5 38/2/5 39/3/5 40/4/5
f 37/1/5 40/2/5 41/3/5
f 42/1/9 41/2/9 40/3/9 43/4/9
f 42/1/9 43/2/9 44/3/9
f 45/1/16 44/2/16 43/3/16 46/4/16
f 45/1/16 46/2/16 47/3/16
f 48/1/20 49/2/20 47/3/20
f 48/1/20 47/2/20 46/3/20
f 48/1/20 46/2/20 50/3/20
f 51/1/20 49/2/20 48/3/20
f 52/1/14 50/2/14 46/3/14 43/4/14
f 53/1/14 43/2/14 40/3/14 39/4/14
f 54/1/14 55/2/14 52/3/14
f 54/1/14 52/2/14 43/3/14
f 54/1/14 43/2/14 53/3/14
f 56/1/14 57/2/14 55/3/14 54/4/14
f 58/1/14 59/2/14 60/3/14
f 61/1/14 60/2/14 59/3/14
f 61/1/14 59/2/14 57/3/14
f 61/1/14 57/2/14 56/3/14
f 62/1/4 63/2/4 64/3/4 65/4/4
f 66/1/8 65/2/8 64/3/8
f 65/1/8 66/2/8 67/3/8 68/4/8
f 69/1/10 68/2/10 67/3/10
f 68/1/10 69/2/10 70/3/10 71/4/10
f 72/1/15 71/2/15 70/3/15
f 71/1/15 72/2/15 73/3/15 74/4/15
f 75/1/17 74/2/17 73/3/17
f 74/1/17 75/2/17 76/3/17 77/4/17
f 78/1/21 77/2/21 76/3/21
f 79/1/21 80/2/21 77/3/21 78/4/21
f 81/1/11 62/2/11 65/3/11 68/4/11
f 68/1/11 71/2/11 74/3/11
f 82/1/11 74/2/11 77/3/11 80/4/11
f 83/1/11 81/2/11 68/3/11
f 84/1/11 68/2/11 74/3/11 82/4/11
f 85/1/11 86/2/11 83/3/11
f 85/1/11 83/2/11 68/3/11
f 85/1/11 68/2/11 84/3/11
f 87/1/11 88/2/11 89/3/11
f 87/1/11 89/2/11 86/3/11
f 87/1/11 86/2/11 85/3/11
f 90/1/11 89/2/11 88/3/11
