# Generated by tools-import-turbines.py; estimated STEP scale.
mtllib materials.mtl
s off
v 0.066666600 0.260119093 0.000000000
v 0.066666600 0.316666700 0.000000000
v 0.066666600 0.316666700 0.833333000
v 0.066666600 0.000000000 0.000000000
v 0.066666600 0.000000000 0.833333000
v 0.000000000 0.045238061 0.833333000
v 0.000000000 0.316666700 0.833333000
v 0.000000000 0.000000000 0.833333000
v 0.000000000 0.000000000 0.166666957
v 0.000000000 0.000000000 0.000000000
v 0.000000000 0.316666700 0.000000000
v 0.000000000 0.717788790 0.000000000
v 0.012604787 0.727664530 0.000000000
v 0.000000000 0.683153908 0.014062206
v 0.040756711 0.794185308 0.000000000
v 0.000000000 0.662434753 0.033846743
v 0.127858519 1.000000000 0.000000000
v 0.139471110 1.000000000 0.026201859
v 0.000000000 0.507492949 0.181799265
v 0.126310428 1.000000000 0.060487940
v 0.000000000 0.512280067 0.183818586
v 0.092827554 1.000000000 0.147717163
v 0.000000000 0.672202844 0.251277836
v 0.062805514 1.000000000 0.163183307
v 0.000000000 0.718539989 0.243398522
v 0.000000000 1.000000000 0.195538414
v 0.266666700 0.258333460 0.000000000
v 0.266666700 0.583333300 0.000000000
v 0.266666700 0.583333300 0.599999900
v 0.266666700 0.150000000 0.000000000
v 0.266666700 0.150000000 0.599999900
v 0.000000000 0.283333335 0.599999900
v 0.000000000 0.583333300 0.599999900
v 0.000000000 0.150000000 0.599999900
v 0.000000000 0.150000000 0.353845971
v 0.000000000 0.150000000 0.000000000
v 0.000000000 0.583333300 0.000000000
v 0.000000000 0.583333300 0.046153629
v 0.049999754 0.583333300 0.000000000
vt 0 0
vt 1 0
vt 1 1
vt 0 1
vn 0.000000000 -1.000000000 0.000000000
vn 0.000000000 0.000000000 1.000000000
vn 0.000000000 1.000000000 0.000000000
vn 0.282715992 -0.360841310 -0.888743617
vn 0.452817997 0.149465504 0.878985737
vn 0.452820714 0.149464545 0.878984500
vn 0.852639716 -0.360841394 -0.377887554
vn 0.852639757 -0.360841385 -0.377887470
vn 0.923098082 -0.149465084 0.354330524
vn 0.923098116 -0.149465119 0.354330420
vn 1.000000000 0.000000000 0.000000000
usemtl dvss_1
f 1/1/11 2/2/11 3/3/11
f 4/1/11 1/2/11 3/3/11 5/4/11
f 6/1/2 5/2/2 3/3/2 7/4/2
f 8/1/2 5/2/2 6/3/2
f 9/1/1 10/2/1 4/3/1 5/4/1
f 9/1/1 5/2/1 8/3/1
f 2/1/3 11/2/3 7/3/3 3/4/3
usemtl dvss_4
f 12/1/4 13/2/4 14/3/4
f 15/1/8 16/2/8 14/3/8 13/4/8
f 16/1/7 15/2/7 17/3/7
f 16/1/7 17/2/7 18/3/7
f 16/1/7 18/2/7 19/3/7
f 20/1/10 21/2/10 19/3/10 18/4/10
f 21/1/9 20/2/9 22/3/9 23/4/9
f 24/1/5 25/2/5 23/3/5 22/4/5
f 26/1/6 25/2/6 24/3/6
f 27/1/11 28/2/11 29/3/11
f 30/1/11 27/2/11 29/3/11 31/4/11
f 32/1/2 31/2/2 29/3/2 33/4/2
f 34/1/2 31/2/2 32/3/2
f 35/1/1 36/2/1 30/3/1 31/4/1
f 35/1/1 31/2/1 34/3/1
f 37/1/3 38/2/3 39/3/3
f 28/1/3 39/2/3 38/3/3
f 28/1/3 38/2/3 33/3/3
f 28/1/3 33/2/3 29/3/3
