# Generated by tools-import-turbines.py; estimated STEP scale.
mtllib materials.mtl
s off
v 0.958333300 0.556666600 0.071666700
v 0.958333300 0.556666600 0.005000000
v 0.909258500 0.528333400 0.005000000
v 0.909258500 0.528333400 0.071666700
v 0.909258500 0.471666600 0.005000000
v 0.909258500 0.471666600 0.071666700
v 0.958333300 0.443333400 0.005000000
v 0.958333300 0.443333400 0.071666700
v 1.000000000 0.467389554 0.015063690
v 1.000000000 0.467389554 0.005000000
v 1.000000000 0.467389652 0.071666700
v 1.000000000 0.484497798 0.005000000
v 1.000000000 0.532610446 0.005000000
v 1.000000000 0.471666600 0.005000000
v 1.000000000 0.532610446 0.061603010
v 1.000000000 0.532610446 0.071666700
v 1.000000000 0.528333400 0.071666700
v 1.000000000 0.515502202 0.071666700
v 1.000000000 0.563297911 0.314777564
v 1.000000000 0.563297911 0.266666600
v 0.991666700 0.500000000 0.266666600
v 1.000000000 0.563297911 0.366666600
v 0.991666700 0.500000000 0.366666600
v 1.000000000 0.436702185 0.318555636
v 1.000000000 0.436702185 0.266666600
v 1.000000000 0.436702185 0.366666600
v 1.000000000 0.468899639 0.266666600
v 1.000000000 0.531100248 0.266666612
v 1.000000000 0.485566297 0.266666600
v 1.000000000 0.514433701 0.266666603
v 1.000000000 0.852706827 0.108964393
v 1.000000000 0.852706827 0.025000000
v 0.965951100 0.808333400 0.025000000
v 1.000000000 0.852706827 0.266666635
v 0.965951100 0.808333400 0.266666600
v 0.904345800 0.659605300 0.025000000
v 0.904345800 0.659605300 0.266666600
v 0.883333300 0.500000000 0.024999900
v 0.883333300 0.500000000 0.266666600
v 0.904345800 0.340395000 0.024999900
v 0.904345800 0.340395000 0.266666600
v 0.965951000 0.191666800 0.024999900
v 0.965951000 0.191666800 0.266666600
v 1.000000000 0.147293219 0.182702046
v 1.000000000 0.147293219 0.024999900
v 1.000000000 0.147293219 0.266666600
v 1.000000000 0.157617785 0.024999900
v 1.000000000 0.842382285 0.025000000
v 1.000000000 0.297927364 0.024999900
v 1.000000000 0.702072543 0.024999938
v 1.000000000 0.825283193 0.266666660
v 1.000000000 0.174716927 0.266666600
v 1.000000000 0.697381473 0.266666660
v 1.000000000 0.244740734 0.266666600
v 1.000000000 0.436049162 0.266666613
v 1.000000000 0.314764524 0.266666609
vt 0 0
vt 1 0
vt 1 1
vt 0 1
vn -1.000000000 0.000000000 0.000000000
vn -0.991444918 0.130525760 0.000000000
vn -0.991444893 -0.130525955 0.000000000
vn -0.991444810 0.130526581 0.000000000
vn -0.991444810 0.130526581 0.000000000
vn -0.991444778 -0.130526822 0.000000000
vn -0.991444778 -0.130526822 0.000000000
vn -0.923879615 -0.382683233 0.000000000
vn -0.923879304 0.382683983 0.000000000
vn -0.793353741 -0.608760907 0.000000000
vn -0.793353741 -0.608760907 0.000000000
vn -0.793353581 0.608761116 0.000000000
vn -0.793353581 0.608761116 0.000000000
vn -0.499998028 -0.866026542 0.000000000
vn -0.499998028 0.866026542 0.000000000
vn -0.499998028 -0.866026542 0.000000000
vn -0.499998028 0.866026542 0.000000000
vn -0.000002217 0.000000918 1.000000000
vn -0.000002217 0.000000918 -1.000000000
vn -0.000000627 0.000000000 1.000000000
vn -0.000000537 0.000000537 -1.000000000
vn -0.000000443 0.000000443 -1.000000000
vn -0.000000132 -0.000000132 1.000000000
vn -0.000000104 -0.000000028 1.000000000
vn 0.000000000 0.000000000 -1.000000000
vn 0.000000000 0.000000000 1.000000000
vn 0.000000048 -0.000000181 1.000000000
vn 0.000000162 0.000000094 -1.000000000
vn 0.000000197 0.000000114 -1.000000000
vn 0.000002887 -0.000000380 -1.000000000
vn 0.499998028 -0.866026542 0.000000000
vn 0.499998028 0.866026542 0.000000000
vn 0.499998028 0.866026542 0.000000000
vn 0.499999556 -0.866025660 0.000001500
usemtl dvss_1
f 1/1/15 2/2/15 3/3/15
f 1/1/17 3/2/17 4/3/17
f 4/1/1 3/2/1 5/3/1
f 4/1/1 5/2/1 6/3/1
f 6/1/14 5/2/14 7/3/14
f 6/1/16 7/2/16 8/3/16
f 9/1/31 8/2/31 7/3/31 10/4/31
f 11/1/34 8/2/34 9/3/34
f 5/1/25 3/2/25 2/3/25
f 12/1/25 2/2/25 13/3/25
f 14/1/25 10/2/25 7/3/25 5/4/25
f 2/1/25 12/2/25 14/3/25 5/4/25
f 15/1/33 13/2/33 2/3/33
f 16/1/32 15/2/32 2/3/32 1/4/32
f 17/1/26 16/2/26 1/3/26 4/4/26
f 4/1/26 6/2/26 8/3/26
f 18/1/26 8/2/26 11/3/26
f 17/1/26 4/2/26 8/3/26 18/4/26
usemtl dvss_3
f 19/1/2 20/2/2 21/3/2
f 22/1/2 19/2/2 21/3/2 23/4/2
f 24/1/3 23/2/3 21/3/3 25/4/3
f 26/1/3 23/2/3 24/3/3
f 27/1/25 25/2/25 21/3/25
f 28/1/30 21/2/30 20/3/30
f 29/1/25 27/2/25 21/3/25
f 30/1/21 21/2/21 28/3/21
f 29/1/29 21/2/29 30/3/29
f 22/1/26 23/2/26 26/3/26
usemtl dvss_5
f 31/1/13 32/2/13 33/3/13
f 34/1/12 31/2/12 33/3/12 35/4/12
f 35/1/9 33/2/9 36/3/9
f 35/1/9 36/2/9 37/3/9
f 37/1/5 36/2/5 38/3/5
f 37/1/4 38/2/4 39/3/4
f 39/1/7 38/2/7 40/3/7
f 39/1/6 40/2/6 41/3/6
f 41/1/8 40/2/8 42/3/8
f 41/1/8 42/2/8 43/3/8
f 44/1/11 43/2/11 42/3/11 45/4/11
f 46/1/10 43/2/10 44/3/10
f 47/1/25 45/2/25 42/3/25
f 42/1/25 40/2/25 38/3/25
f 38/1/19 36/2/19 33/3/19
f 48/1/25 33/2/25 32/3/25
f 49/1/25 47/2/25 42/3/25 38/4/25
f 50/1/22 38/2/22 33/3/22 48/4/22
f 49/1/28 38/2/28 50/3/28
f 51/1/18 34/2/18 35/3/18 37/4/18
f 37/1/26 39/2/26 41/3/26
f 52/1/26 41/2/26 43/3/26 46/4/26
f 53/1/20 51/2/20 37/3/20 41/4/20
f 54/1/26 41/2/26 52/3/26
f 55/1/27 53/2/27 41/3/27
f 56/1/23 41/2/23 54/3/23
f 55/1/24 41/2/24 56/3/24
