# Generated by tools-import-turbines.py; estimated STEP scale.
mtllib materials.mtl
s off
v 0.450756223 0.631277494 1.000000000
v 0.450756223 0.666667000 1.000000000
v 0.422140700 0.666667000 0.946464100
v 0.450756223 0.533333800 1.000000000
v 0.422140700 0.533333800 0.946464100
v 0.355750600 0.666667000 0.727605600
v 0.355750600 0.533333800 0.727605600
v 0.333333400 0.666667000 0.500000200
v 0.333333400 0.533333800 0.500000200
v 0.355750600 0.666667000 0.272394900
v 0.355750600 0.533333800 0.272394900
v 0.422140500 0.666667000 0.053536200
v 0.422140500 0.533333800 0.053536200
v 0.450756224 0.568723522 0.000000000
v 0.450756224 0.666667000 0.000000000
v 0.450756224 0.533333800 0.000000000
v 0.457912240 0.666667000 0.000000000
v 0.457912244 0.666667000 1.000000000
v 0.475676692 0.666667000 0.000000000
v 0.475676617 0.666667000 1.000000000
v 0.551388255 0.666667000 0.000000000
v 0.814178864 0.666667000 1.000000000
v 1.000000000 0.666667000 1.000000000
v 1.000000000 0.666667000 0.000000000
v 0.468580110 0.533333800 1.000000000
v 0.468580226 0.533333800 0.000000000
v 0.537758774 0.533333800 1.000000000
v 0.500480333 0.533333800 0.000000000
v 0.763417809 0.533333800 1.000000000
v 0.841920904 0.533333800 0.000000000
v 1.000000000 0.533333800 0.000000000
v 1.000000000 0.533333800 1.000000000
v 0.183589056 0.292456442 1.000000000
v 0.183589056 0.310833000 1.000000000
v 0.115458100 0.310833000 0.775402800
v 0.183589056 0.289165500 1.000000000
v 0.115458100 0.289165500 0.775402800
v 0.088333400 0.310833000 0.500000200
v 0.088333400 0.289165500 0.500000200
v 0.115458100 0.310833000 0.224597700
v 0.115458100 0.289165500 0.224597700
v 0.183588953 0.307542099 0.000000000
v 0.183588953 0.310833000 0.000000000
v 0.183588953 0.289165500 0.000000000
v 0.187789422 0.310833000 0.000000000
v 0.187789602 0.310833000 1.000000000
v 0.195790189 0.310833000 1.000000000
v 0.195789911 0.310833000 0.000000000
v 0.626663924 0.310833000 1.000000000
v 0.212450078 0.310833000 0.000000000
v 1.000000000 0.310833000 1.000000000
v 1.000000000 0.310833000 0.000000000
v 0.208489404 0.289165500 1.000000000
v 0.208489486 0.289165500 0.000000000
v 0.265529238 0.289165500 1.000000000
v 0.269695252 0.289165500 0.000000000
v 0.451591773 0.289165500 1.000000000
v 0.633565458 0.289165500 0.000000000
v 1.000000000 0.289165500 0.000000000
v 1.000000000 0.289165500 1.000000000
v 0.183589056 0.349123742 1.000000000
v 0.183589056 0.367500300 1.000000000
v 0.115458100 0.367500300 0.775402800
v 0.183589056 0.345832800 1.000000000
v 0.115458100 0.345832800 0.775402800
v 0.088333400 0.367500300 0.500000200
v 0.088333400 0.345832800 0.500000200
v 0.115458100 0.367500300 0.224597700
v 0.115458100 0.345832800 0.224597700
v 0.183588953 0.364209399 0.000000000
v 0.183588953 0.367500300 0.000000000
v 0.183588953 0.345832800 0.000000000
v 0.187789422 0.367500300 0.000000000
v 0.187789602 0.367500300 1.000000000
v 0.195790189 0.367500300 1.000000000
v 0.195789911 0.367500300 0.000000000
v 0.626663924 0.367500300 1.000000000
v 0.212450078 0.367500300 0.000000000
v 1.000000000 0.367500300 1.000000000
v 1.000000000 0.367500300 0.000000000
v 0.208489404 0.345832800 1.000000000
v 0.208489486 0.345832800 0.000000000
v 0.265529238 0.345832800 1.000000000
v 0.269695252 0.345832800 0.000000000
v 0.451591773 0.345832800 1.000000000
v 0.633565458 0.345832800 0.000000000
v 1.000000000 0.345832800 0.000000000
v 1.000000000 0.345832800 1.000000000
v 0.183589056 0.405790142 1.000000000
v 0.183589056 0.424166700 1.000000000
v 0.115458100 0.424166700 0.775402800
v 0.183589056 0.402499200 1.000000000
v 0.115458100 0.402499200 0.775402800
v 0.088333400 0.424166700 0.500000200
v 0.088333400 0.402499200 0.500000200
v 0.115458100 0.424166700 0.224597700
v 0.115458100 0.402499200 0.224597700
v 0.183588953 0.420875799 0.000000000
v 0.183588953 0.424166700 0.000000000
v 0.183588953 0.402499200 0.000000000
v 0.187789422 0.424166700 0.000000000
v 0.187789602 0.424166700 1.000000000
v 0.195790189 0.424166700 1.000000000
v 0.195789911 0.424166700 0.000000000
v 0.626663924 0.424166700 1.000000000
v 0.212450078 0.424166700 0.000000000
v 1.000000000 0.424166700 1.000000000
v 1.000000000 0.424166700 0.000000000
v 0.208489404 0.402499200 1.000000000
v 0.208489486 0.402499200 0.000000000
v 0.265529238 0.402499200 1.000000000
v 0.269695252 0.402499200 0.000000000
v 0.451591773 0.402499200 1.000000000
v 0.633565458 0.402499200 0.000000000
v 1.000000000 0.402499200 0.000000000
v 1.000000000 0.402499200 1.000000000
v 0.183589056 0.462457442 1.000000000
v 0.183589056 0.480834000 1.000000000
v 0.115458100 0.480834000 0.775402800
v 0.183589056 0.459166500 1.000000000
v 0.115458100 0.459166500 0.775402800
v 0.088333400 0.480834000 0.500000200
v 0.088333400 0.459166500 0.500000200
v 0.115458100 0.480834000 0.224597700
v 0.115458100 0.459166500 0.224597700
v 0.183588953 0.477543099 0.000000000
v 0.183588953 0.480834000 0.000000000
v 0.183588953 0.459166500 0.000000000
v 0.187789422 0.480834000 0.000000000
v 0.187789602 0.480834000 1.000000000
v 0.195790189 0.480834000 1.000000000
v 0.195789911 0.480834000 0.000000000
v 0.626663924 0.480834000 1.000000000
v 0.212450078 0.480834000 0.000000000
v 1.000000000 0.480834000 1.000000000
v 1.000000000 0.480834000 0.000000000
v 0.208489404 0.459166500 1.000000000
v 0.208489486 0.459166500 0.000000000
v 0.265529238 0.459166500 1.000000000
v 0.269695252 0.459166500 0.000000000
v 0.451591773 0.459166500 1.000000000
v 0.633565458 0.459166500 0.000000000
v 1.000000000 0.459166500 0.000000000
v 1.000000000 0.459166500 1.000000000
v 0.183589056 0.519122842 1.000000000
v 0.183589056 0.537499400 1.000000000
v 0.115458100 0.537499400 0.775402800
v 0.183589056 0.515831900 1.000000000
v 0.115458100 0.515831900 0.775402800
v 0.088333400 0.537499400 0.500000200
v 0.088333400 0.515831900 0.500000200
v 0.115458100 0.537499400 0.224597700
v 0.115458100 0.515831900 0.224597700
v 0.183588953 0.534208499 0.000000000
v 0.183588953 0.537499400 0.000000000
v 0.183588953 0.515831900 0.000000000
v 0.187789422 0.537499400 0.000000000
v 0.187789602 0.537499400 1.000000000
v 0.195790189 0.537499400 1.000000000
v 0.195789911 0.537499400 0.000000000
v 0.626663924 0.537499400 1.000000000
v 0.212450078 0.537499400 0.000000000
v 1.000000000 0.537499400 1.000000000
v 1.000000000 0.537499400 0.000000000
v 0.208489404 0.515831900 1.000000000
v 0.208489486 0.515831900 0.000000000
v 0.265529238 0.515831900 1.000000000
v 0.269695252 0.515831900 0.000000000
v 0.451591773 0.515831900 1.000000000
v 0.633565458 0.515831900 0.000000000
v 1.000000000 0.515831900 0.000000000
v 1.000000000 0.515831900 1.000000000
v 0.408213112 0.492938627 1.000000000
v 0.450756223 0.533332800 1.000000000
v 0.422140700 0.533332800 0.946464100
v 0.292894007 0.383444511 1.000000000
v 0.223879646 0.312342151 1.000000000
v 0.355750600 0.533332800 0.727605600
v 0.195722187 0.283332800 1.000000000
v 0.126900800 0.283332800 0.773126600
v 0.333333400 0.533332800 0.500000200
v 0.100000000 0.283332800 0.500000200
v 0.355750600 0.533332800 0.272394900
v 0.126900800 0.283332800 0.226873900
v 0.422140500 0.533332800 0.053536200
v 0.195722080 0.283332800 0.000000000
v 0.292892733 0.383443335 0.000000000
v 0.450756224 0.533332800 0.000000000
v 0.457912240 0.533332800 0.000000000
v 0.457912244 0.533332800 1.000000000
v 0.475676692 0.533332800 0.000000000
v 0.475676617 0.533332800 1.000000000
v 0.551388255 0.533332800 0.000000000
v 0.814178864 0.533332800 1.000000000
v 1.000000000 0.533332800 1.000000000
v 1.000000000 0.533332800 0.000000000
v 0.220874837 0.283332800 1.000000000
v 0.220874899 0.283332800 0.000000000
v 0.278492761 0.283332800 1.000000000
v 0.280685066 0.283332800 0.000000000
v 0.466440965 0.283332800 1.000000000
v 0.643487332 0.283332800 0.000000000
v 1.000000000 0.283332800 0.000000000
v 1.000000000 0.283332800 1.000000000
v 0.268257674 0.000000000 0.912902375
v 0.304334642 0.000000000 1.000000000
v 0.304334642 0.116666800 1.000000000
v 0.263626700 0.116666800 0.901722200
v 0.263626700 0.000000000 0.901722200
v 0.218830207 0.000000000 0.715132060
v 0.216005200 0.116666800 0.703365100
v 0.216005200 0.000000000 0.703365100
v 0.200949462 0.000000000 0.512064233
v 0.200000000 0.116666800 0.500000200
v 0.200000000 0.000000000 0.500000200
v 0.215055738 0.000000000 0.308699427
v 0.216005200 0.116666800 0.296635400
v 0.216005200 0.000000000 0.296635400
v 0.260801504 0.000000000 0.110044978
v 0.263626500 0.116666800 0.098278000
v 0.263626500 0.000000000 0.098278000
v 0.304334546 0.000000000 0.000000000
v 0.304334546 0.116666800 0.000000000
v 0.313701640 0.116666800 0.000000000
v 0.313701765 0.116666800 1.000000000
v 0.362459849 0.116666800 0.000000000
v 0.362459958 0.116666800 1.000000000
v 0.563271357 0.116666800 0.000000000
v 0.563271236 0.116666800 1.000000000
v 1.000000000 0.116666800 0.240064340
v 1.000000000 0.116666800 0.000000000
v 1.000000000 0.116666800 1.000000000
v 0.178389263 0.064636403 1.000000000
v 0.178389263 0.274999600 1.000000000
v 0.110554200 0.274999600 0.776378200
v 0.178389263 0.024999600 1.000000000
v 0.110554200 0.024999600 0.776378200
v 0.083333400 0.274999600 0.500000200
v 0.083333400 0.024999600 0.500000200
v 0.110554200 0.274999600 0.223622300
v 0.110554200 0.024999600 0.223622300
v 0.178389221 0.235363188 0.000000000
v 0.178389221 0.274999600 0.000000000
v 0.178389221 0.024999600 0.000000000
v 0.182789516 0.274999600 0.000000000
v 0.182789621 0.274999600 1.000000000
v 0.191170792 0.274999600 1.000000000
v 0.191170608 0.274999600 0.000000000
v 0.622837138 0.274999600 1.000000000
v 0.208623333 0.274999600 0.000000000
v 1.000000000 0.274999600 1.000000000
v 1.000000000 0.274999600 0.000000000
v 0.203181408 0.024999600 1.000000000
v 0.203181448 0.024999600 0.000000000
v 0.259973552 0.024999600 1.000000000
v 0.264985227 0.024999600 0.000000000
v 0.445227998 0.024999600 1.000000000
v 0.629313336 0.024999600 0.000000000
v 1.000000000 0.024999600 0.000000000
v 1.000000000 0.024999600 1.000000000
vt 0 0
vt 1 0
vt 1 1
vt 0 1
vn -0.996917320 0.000000000 0.078459268
vn -0.996917317 0.000000000 -0.078459306
vn -0.995184758 0.000000000 0.098016823
vn -0.995184758 0.000000000 0.098016823
vn -0.995184758 0.000000000 0.098016823
vn -0.995184758 0.000000000 0.098016823
vn -0.995184754 0.000000000 -0.098016859
vn -0.995184754 0.000000000 -0.098016859
vn -0.995184754 0.000000000 -0.098016859
vn -0.995184754 0.000000000 -0.098016859
vn -0.995184747 0.000000000 0.098016937
vn -0.995184743 0.000000000 -0.098016972
vn -0.995184716 0.000000000 0.098017247
vn -0.995184712 0.000000000 -0.098017290
vn -0.972370030 0.000000000 -0.233444908
vn -0.972369727 0.000000000 0.233446168
vn -0.956940531 0.000000000 -0.290284033
vn -0.956940471 0.000000000 -0.290284230
vn -0.956940471 0.000000000 -0.290284230
vn -0.956940471 0.000000000 -0.290284230
vn -0.956940410 0.000000000 -0.290284432
vn -0.956940214 0.000000000 0.290285077
vn -0.956940180 0.000000000 0.290285192
vn -0.956940170 0.000000000 0.290285223
vn -0.956940170 0.000000000 0.290285223
vn -0.956940170 0.000000000 0.290285223
vn -0.956940170 0.000000000 0.290285223
vn -0.923879719 0.000000000 0.382682982
vn -0.923879647 0.000000000 -0.382683156
vn -0.881921345 0.000000000 0.471396586
vn -0.881921066 0.000000000 -0.471397108
vn -0.729167712 0.680556236 0.071816831
vn -0.729167644 0.680556259 -0.071817298
vn -0.729167467 0.680556497 -0.071816838
vn -0.729167446 0.680556477 0.071817252
vn -0.701146354 0.680556237 -0.212689911
vn -0.701146353 0.680556240 -0.212689906
vn -0.701146163 0.680556202 0.212690654
vn -0.701146141 0.680556217 0.212690677
vn -0.646180085 0.680556289 0.345390264
vn -0.646180049 0.680556311 0.345390290
vn -0.646179889 0.680556257 -0.345390696
vn 0.000000000 -1.000000000 0.000000000
vn 0.000000000 1.000000000 -0.000000000
vn 0.000000000 1.000000000 0.000000000
vn 0.000000000 1.000000000 0.000000000
usemtl dvss_1
f 1/1/30 2/2/30 3/3/30
f 4/1/30 1/2/30 3/3/30 5/4/30
f 5/1/22 3/2/22 6/3/22
f 5/1/22 6/2/22 7/3/22
f 7/1/13 6/2/13 8/3/13
f 7/1/13 8/2/13 9/3/13
f 9/1/14 8/2/14 10/3/14
f 9/1/14 10/2/14 11/3/14
f 11/1/17 10/2/17 12/3/17
f 11/1/17 12/2/17 13/3/17
f 14/1/31 13/2/31 12/3/31 15/4/31
f 16/1/31 13/2/31 14/3/31
f 17/1/45 15/2/45 12/3/45
f 12/1/45 10/2/45 8/3/45
f 8/1/45 6/2/45 3/3/45
f 18/1/45 3/2/45 2/3/45
f 19/1/45 17/2/45 12/3/45
f 12/1/45 8/2/45 3/3/45
f 20/1/45 3/2/45 18/3/45
f 21/1/45 19/2/45 12/3/45
f 22/1/45 12/2/45 3/3/45 20/4/45
f 23/1/45 24/2/45 21/3/45
f 23/1/45 21/2/45 12/3/45
f 23/1/45 12/2/45 22/3/45
f 25/1/43 4/2/43 5/3/43 7/4/43
f 7/1/43 9/2/43 11/3/43
f 26/1/43 11/2/43 13/3/43 16/4/43
f 27/1/43 25/2/43 7/3/43
f 28/1/43 7/2/43 11/3/43 26/4/43
f 29/1/43 27/2/43 7/3/43
f 30/1/43 7/2/43 28/3/43
f 31/1/43 32/2/43 29/3/43
f 31/1/43 29/2/43 7/3/43
f 31/1/43 7/2/43 30/3/43
f 33/1/27 34/2/27 35/3/27
f 36/1/27 33/2/27 35/3/27 37/4/27
f 37/1/3 35/2/3 38/3/3
f 37/1/3 38/2/3 39/3/3
f 39/1/7 38/2/7 40/3/7
f 39/1/7 40/2/7 41/3/7
f 42/1/20 41/2/20 40/3/20 43/4/20
f 44/1/20 41/2/20 42/3/20
f 45/1/45 43/2/45 40/3/45 38/4/45
f 46/1/45 38/2/45 35/3/45 34/4/45
f 47/1/45 48/2/45 45/3/45
f 47/1/45 45/2/45 38/3/45
f 47/1/45 38/2/45 46/3/45
f 49/1/45 50/2/45 48/3/45 47/4/45
f 51/1/45 52/2/45 50/3/45 49/4/45
f 53/1/43 36/2/43 37/3/43
f 37/1/43 39/2/43 41/3/43
f 54/1/43 41/2/43 44/3/43
f 55/1/43 53/2/43 37/3/43
f 56/1/43 37/2/43 41/3/43 54/4/43
f 57/1/43 55/2/43 37/3/43
f 58/1/43 37/2/43 56/3/43
f 59/1/43 60/2/43 57/3/43
f 59/1/43 57/2/43 37/3/43
f 59/1/43 37/2/43 58/3/43
f 61/1/26 62/2/26 63/3/26
f 64/1/26 61/2/26 63/3/26 65/4/26
f 65/1/6 63/2/6 66/3/6
f 65/1/6 66/2/6 67/3/6
f 67/1/9 66/2/9 68/3/9
f 67/1/9 68/2/9 69/3/9
f 70/1/19 69/2/19 68/3/19 71/4/19
f 72/1/19 69/2/19 70/3/19
f 73/1/45 71/2/45 68/3/45 66/4/45
f 74/1/45 66/2/45 63/3/45 62/4/45
f 75/1/45 76/2/45 73/3/45
f 75/1/45 73/2/45 66/3/45
f 75/1/45 66/2/45 74/3/45
f 77/1/45 78/2/45 76/3/45 75/4/45
f 79/1/45 80/2/45 78/3/45 77/4/45
f 81/1/43 64/2/43 65/3/43
f 65/1/43 67/2/43 69/3/43
f 82/1/43 69/2/43 72/3/43
f 83/1/43 81/2/43 65/3/43
f 84/1/43 65/2/43 69/3/43 82/4/43
f 85/1/43 83/2/43 65/3/43
f 86/1/43 65/2/43 84/3/43
f 87/1/43 88/2/43 85/3/43
f 87/1/43 85/2/43 65/3/43
f 87/1/43 65/2/43 86/3/43
f 89/1/25 90/2/25 91/3/25
f 92/1/25 89/2/25 91/3/25 93/4/25
f 93/1/4 91/2/4 94/3/4
f 93/1/4 94/2/4 95/3/4
f 95/1/8 94/2/8 96/3/8
f 95/1/8 96/2/8 97/3/8
f 98/1/20 97/2/20 96/3/20 99/4/20
f 100/1/20 97/2/20 98/3/20
f 101/1/45 99/2/45 96/3/45 94/4/45
f 102/1/45 94/2/45 91/3/45 90/4/45
f 103/1/45 104/2/45 101/3/45
f 103/1/45 101/2/45 94/3/45
f 103/1/45 94/2/45 102/3/45
f 105/1/45 106/2/45 104/3/45 103/4/45
f 107/1/46 108/2/46 106/3/46 105/4/46
f 109/1/43 92/2/43 93/3/43
f 93/1/43 95/2/43 97/3/43
f 110/1/43 97/2/43 100/3/43
f 111/1/43 109/2/43 93/3/43
f 112/1/43 93/2/43 97/3/43 110/4/43
f 113/1/43 111/2/43 93/3/43
f 114/1/43 93/2/43 112/3/43
f 115/1/43 116/2/43 113/3/43
f 115/1/43 113/2/43 93/3/43
f 115/1/43 93/2/43 114/3/43
f 117/1/24 118/2/24 119/3/24
f 120/1/24 117/2/24 119/3/24 121/4/24
f 121/1/4 119/2/4 122/3/4
f 121/1/4 122/2/4 123/3/4
f 123/1/8 122/2/8 124/3/8
f 123/1/8 124/2/8 125/3/8
f 126/1/19 125/2/19 124/3/19 127/4/19
f 128/1/19 125/2/19 126/3/19
f 129/1/45 127/2/45 124/3/45 122/4/45
f 130/1/45 122/2/45 119/3/45 118/4/45
f 131/1/45 132/2/45 129/3/45
f 131/1/45 129/2/45 122/3/45
f 131/1/45 122/2/45 130/3/45
f 133/1/45 134/2/45 132/3/45 131/4/45
f 135/1/46 136/2/46 134/3/46 133/4/46
f 137/1/43 120/2/43 121/3/43
f 121/1/43 123/2/43 125/3/43
f 138/1/43 125/2/43 128/3/43
f 139/1/43 137/2/43 121/3/43
f 140/1/43 121/2/43 125/3/43 138/4/43
f 141/1/43 139/2/43 121/3/43
f 142/1/43 121/2/43 140/3/43
f 143/1/43 144/2/43 141/3/43
f 143/1/43 141/2/43 121/3/43
f 143/1/43 121/2/43 142/3/43
f 145/1/26 146/2/26 147/3/26
f 148/1/26 145/2/26 147/3/26 149/4/26
f 149/1/5 147/2/5 150/3/5
f 149/1/5 150/2/5 151/3/5
f 151/1/10 150/2/10 152/3/10
f 151/1/10 152/2/10 153/3/10
f 154/1/18 153/2/18 152/3/18 155/4/18
f 156/1/18 153/2/18 154/3/18
f 157/1/45 155/2/45 152/3/45 150/4/45
f 158/1/45 150/2/45 147/3/45 146/4/45
f 159/1/45 160/2/45 157/3/45
f 159/1/45 157/2/45 150/3/45
f 159/1/45 150/2/45 158/3/45
f 161/1/45 162/2/45 160/3/45 159/4/45
f 163/1/44 164/2/44 162/3/44 161/4/44
f 165/1/43 148/2/43 149/3/43
f 149/1/43 151/2/43 153/3/43
f 166/1/43 153/2/43 156/3/43
f 167/1/43 165/2/43 149/3/43
f 168/1/43 149/2/43 153/3/43 166/4/43
f 169/1/43 167/2/43 149/3/43
f 170/1/43 149/2/43 168/3/43
f 171/1/43 172/2/43 169/3/43
f 171/1/43 169/2/43 149/3/43
f 171/1/43 149/2/43 170/3/43
usemtl dvss_2
f 173/1/41 174/2/41 175/3/41
f 173/1/40 175/2/40 176/3/40
f 177/1/39 176/2/39 175/3/39 178/4/39
f 179/1/38 177/2/38 178/3/38 180/4/38
f 180/1/32 178/2/32 181/3/32
f 180/1/35 181/2/35 182/3/35
f 182/1/34 181/2/34 183/3/34
f 182/1/33 183/2/33 184/3/33
f 184/1/37 183/2/37 185/3/37
f 186/1/36 184/2/36 185/3/36 187/4/36
f 187/1/42 185/2/42 188/3/42
f 189/1/45 188/2/45 185/3/45
f 185/1/45 183/2/45 181/3/45
f 181/1/45 178/2/45 175/3/45
f 190/1/45 175/2/45 174/3/45
f 191/1/45 189/2/45 185/3/45
f 185/1/45 181/2/45 175/3/45
f 192/1/45 175/2/45 190/3/45
f 193/1/45 191/2/45 185/3/45
f 194/1/45 185/2/45 175/3/45 192/4/45
f 195/1/45 196/2/45 193/3/45
f 195/1/45 193/2/45 185/3/45
f 195/1/45 185/2/45 194/3/45
f 197/1/43 179/2/43 180/3/43
f 180/1/43 182/2/43 184/3/43
f 198/1/43 184/2/43 186/3/43
f 199/1/43 197/2/43 180/3/43
f 200/1/43 180/2/43 184/3/43 198/4/43
f 201/1/43 199/2/43 180/3/43
f 202/1/43 180/2/43 200/3/43
f 203/1/43 204/2/43 201/3/43
f 203/1/43 201/2/43 180/3/43
f 203/1/43 180/2/43 202/3/43
f 205/1/28 206/2/28 207/3/28 208/4/28
f 205/1/28 208/2/28 209/3/28
f 210/1/16 209/2/16 208/3/16 211/4/16
f 210/1/16 211/2/16 212/3/16
f 213/1/1 212/2/1 211/3/1 214/4/1
f 213/1/1 214/2/1 215/3/1
f 216/1/2 215/2/2 214/3/2 217/4/2
f 216/1/2 217/2/2 218/3/2
f 219/1/15 218/2/15 217/3/15 220/4/15
f 219/1/15 220/2/15 221/3/15
f 222/1/29 221/2/29 220/3/29 223/4/29
f 224/1/45 223/2/45 220/3/45
f 220/1/45 217/2/45 214/3/45
f 214/1/45 211/2/45 208/3/45
f 225/1/45 208/2/45 207/3/45
f 226/1/45 224/2/45 220/3/45 214/4/45
f 227/1/45 214/2/45 208/3/45 225/4/45
f 228/1/45 226/2/45 214/3/45
f 229/1/45 214/2/45 227/3/45
f 230/1/45 231/2/45 228/3/45 214/4/45
f 232/1/45 230/2/45 214/3/45 229/4/45
f 233/1/23 234/2/23 235/3/23
f 236/1/23 233/2/23 235/3/23 237/4/23
f 237/1/11 235/2/11 238/3/11
f 237/1/11 238/2/11 239/3/11
f 239/1/12 238/2/12 240/3/12
f 239/1/12 240/2/12 241/3/12
f 242/1/21 241/2/21 240/3/21 243/4/21
f 244/1/21 241/2/21 242/3/21
f 245/1/45 243/2/45 240/3/45 238/4/45
f 246/1/45 238/2/45 235/3/45 234/4/45
f 247/1/45 248/2/45 245/3/45
f 247/1/45 245/2/45 238/3/45
f 247/1/45 238/2/45 246/3/45
f 249/1/45 250/2/45 248/3/45 247/4/45
f 251/1/45 252/2/45 250/3/45 249/4/45
f 253/1/43 236/2/43 237/3/43
f 237/1/43 239/2/43 241/3/43
f 254/1/43 241/2/43 244/3/43
f 255/1/43 253/2/43 237/3/43
f 256/1/43 237/2/43 241/3/43 254/4/43
f 257/1/43 255/2/43 237/3/43
f 258/1/43 237/2/43 256/3/43
f 259/1/43 260/2/43 257/3/43
f 259/1/43 257/2/43 237/3/43
f 259/1/43 237/2/43 258/3/43
