# Generated by tools-import-turbines.py; estimated STEP scale.
mtllib materials.mtl
s off
v 1.000000000 0.561393258 0.548229201
v 1.000000000 0.591666200 0.548229201
v 0.975639300 0.591666200 0.518545600
v 1.000000000 0.308333400 0.548229201
v 0.975639300 0.308333400 0.518545600
v 0.806221100 0.591666200 0.201586700
v 0.806221100 0.308333400 0.201586700
v 0.745070481 0.474406832 0.000000000
v 0.745070481 0.591666200 0.000000000
v 0.745070481 0.308333400 0.000000000
v 0.766122935 0.591666200 0.000000000
v 1.000000000 0.591666200 0.491597209
v 0.806221071 0.591666200 0.000000000
v 1.000000000 0.591666200 0.395365502
v 1.000000000 0.591666200 0.000000000
v 1.000000000 0.308333400 0.542906300
v 0.760850661 0.308333400 0.000000000
v 0.796998575 0.308333400 0.000000000
v 1.000000000 0.308333400 0.303813094
v 0.914912133 0.308333400 0.000000000
v 1.000000000 0.308333400 0.056853882
v 1.000000000 0.308333400 0.000000000
v 0.990996700 0.599999900 0.211716200
v 0.990996700 0.724999900 0.211716200
v 0.915941200 0.724999900 0.168382900
v 0.915941200 0.599999900 0.168382900
v 0.915941200 0.724999900 0.081716300
v 0.915941200 0.599999900 0.081716300
v 0.990996700 0.724999900 0.038383000
v 0.990996700 0.599999900 0.038383000
v 1.000000000 0.614994304 0.043581056
v 1.000000000 0.724999900 0.043581056
v 1.000000000 0.599999900 0.043581056
v 1.000000000 0.724999900 0.196122032
v 1.000000000 0.724999900 0.206518144
v 1.000000000 0.724999900 0.081716300
v 1.000000000 0.710005496 0.206518144
v 1.000000000 0.599999900 0.206518144
v 1.000000000 0.599999900 0.168382900
v 1.000000000 0.599999900 0.053977168
vt 0 0
vt 1 0
vt 1 1
vt 0 1
vn -1.000000000 0.000000000 0.000000000
vn -0.956940386 0.000000000 0.290284513
vn -0.881921104 0.000000000 0.471397036
vn -0.773010480 0.000000000 0.634393252
vn -0.499999886 0.000000000 -0.866025469
vn -0.499999886 0.000000000 0.866025469
vn 0.000000000 -1.000000000 0.000000000
vn 0.000000000 1.000000000 0.000000000
vn 0.499999886 0.000000000 -0.866025469
vn 0.499999886 0.000000000 0.866025469
usemtl dvss_5
f 1/1/4 2/2/4 3/3/4
f 4/1/4 1/2/4 3/3/4 5/4/4
f 5/1/3 3/2/3 6/3/3
f 5/1/3 6/2/3 7/3/3
f 8/1/2 7/2/2 6/3/2 9/4/2
f 10/1/2 7/2/2 8/3/2
f 11/1/8 9/2/8 6/3/8
f 12/1/8 6/2/8 3/3/8 2/4/8
f 13/1/8 11/2/8 6/3/8
f 14/1/8 6/2/8 12/3/8
f 15/1/8 13/2/8 6/3/8 14/4/8
f 16/1/7 4/2/7 5/3/7
f 17/1/7 5/2/7 7/3/7 10/4/7
f 18/1/7 19/2/7 16/3/7
f 18/1/7 16/2/7 5/3/7
f 18/1/7 5/2/7 17/3/7
f 20/1/7 21/2/7 19/3/7 18/4/7
f 22/1/7 21/2/7 20/3/7
f 23/1/6 24/2/6 25/3/6
f 23/1/6 25/2/6 26/3/6
f 26/1/1 25/2/1 27/3/1
f 26/1/1 27/2/1 28/3/1
f 28/1/5 27/2/5 29/3/5
f 28/1/5 29/2/5 30/3/5
f 31/1/9 30/2/9 29/3/9 32/4/9
f 33/1/9 30/2/9 31/3/9
f 27/1/8 25/2/8 24/3/8
f 34/1/8 24/2/8 35/3/8
f 36/1/8 32/2/8 29/3/8 27/4/8
f 24/1/8 34/2/8 36/3/8 27/4/8
f 37/1/10 35/2/10 24/3/10
f 38/1/10 37/2/10 24/3/10 23/4/10
f 39/1/7 38/2/7 23/3/7 26/4/7
f 26/1/7 28/2/7 30/3/7
f 40/1/7 30/2/7 33/3/7
f 39/1/7 26/2/7 30/3/7 40/4/7
