# Generated by tools-import-turbines.py; estimated STEP scale.
mtllib materials.mtl
s off
v 0.428466855 0.000000000 0.092954581
v 0.500000000 0.000000000 0.099999900
v 0.500000000 0.233333100 0.099999900
v 0.382945800 0.233333100 0.088471200
v 0.382945800 0.000000000 0.088471200
v 0.314161678 0.000000000 0.067605721
v 0.270390000 0.233333100 0.054327700
v 0.270390000 0.000000000 0.054327700
v 0.168749907 0.221232662 0.000000000
v 0.206998141 0.000000000 0.020444084
v 0.168749907 0.233333100 0.000000000
v 0.168749907 0.000000000 0.000000000
v 0.769950441 0.000000000 0.032765416
v 0.831250293 0.000000000 0.000000000
v 0.831250293 0.233333100 0.000000000
v 0.729610200 0.233333100 0.054327700
v 0.729610200 0.000000000 0.054327700
v 0.617054200 0.233333100 0.088471200
v 0.810917314 0.233333100 0.000000000
v 0.189082761 0.233333100 0.000000000
v 0.783937867 0.233333100 0.000000000
v 0.216062267 0.233333100 0.000000000
v 0.401548641 0.233333100 0.000000000
v 0.247886725 0.233333100 0.000000000
v 0.292893265 0.233333100 0.000000000
v 0.660825956 0.000000000 0.075193179
v 0.617054200 0.000000000 0.088471200
v 0.545521055 0.000000000 0.095516519
v 0.500000000 0.316666600 0.108333300
v 0.500000000 0.441666600 0.108333300
v 0.449482000 0.441666600 0.079166700
v 0.449482000 0.316666600 0.079166700
v 0.449482000 0.441666600 0.020833300
v 0.449482000 0.316666600 0.020833300
v 0.485566187 0.405952069 0.000000000
v 0.485566187 0.441666600 0.000000000
v 0.485566187 0.316666600 0.000000000
v 0.514433813 0.352381131 0.000000000
v 0.514433813 0.441666600 0.000000000
v 0.550518000 0.441666600 0.020833300
v 0.514433813 0.316666600 0.000000000
v 0.550518000 0.316666600 0.020833300
v 0.550518000 0.441666600 0.079166700
v 0.550518000 0.316666600 0.079166700
v 0.495188729 0.316666600 0.000000000
v 0.504811271 0.316666600 0.000000000
v 0.500000000 0.158332800 0.183333400
v 0.500000000 0.308333400 0.183333400
v 0.366688500 0.308333400 0.170203200
v 0.366688500 0.158332800 0.170203200
v 0.238499600 0.308333400 0.131317600
v 0.238499600 0.158332800 0.131317600
v 0.120360400 0.308333400 0.068171000
v 0.120360400 0.158332800 0.068171000
v 0.037293905 0.278661377 0.000000000
v 0.037293905 0.308333400 0.000000000
v 0.037293905 0.158332800 0.000000000
v 0.962706047 0.188004893 0.000000000
v 0.962706047 0.308333400 0.000000000
v 0.879639600 0.308333400 0.068170800
v 0.962706047 0.158332800 0.000000000
v 0.879639600 0.158332800 0.068170800
v 0.761500400 0.308333400 0.131317600
v 0.761500400 0.158332800 0.131317600
v 0.633311700 0.308333400 0.170203200
v 0.958031061 0.308333400 0.000000000
v 0.041968939 0.308333400 0.000000000
v 0.892818000 0.308333400 0.000000000
v 0.107182000 0.308333400 0.000000000
v 0.555528437 0.308333400 0.000000000
v 0.184106087 0.308333400 0.000000000
v 0.292893149 0.308333400 0.000000000
v 0.633311700 0.158332800 0.170203200
v 0.052189436 0.158332800 0.000000000
v 0.947810472 0.158332800 0.000000000
v 0.074810009 0.158332800 0.000000000
v 0.888038873 0.158332800 0.000000000
v 0.378584614 0.158332800 0.000000000
v 0.747037844 0.158332800 0.000000000
v 0.599456180 0.158332800 0.000000000
vt 0 0
vt 1 0
vt 1 1
vt 0 1
vn -1.000000000 0.000000000 0.000000000
vn -0.634393780 0.000000000 0.773010046
vn -0.500001531 0.000000000 -0.866024520
vn -0.500000246 0.000000000 0.866025262
vn -0.471396323 0.000000000 0.881921486
vn -0.471396052 0.000000000 0.881921631
vn -0.290285233 0.000000000 0.956940167
vn -0.290284146 0.000000000 0.956940497
vn -0.098018348 0.000000000 0.995184608
vn -0.098016025 0.000000000 0.995184836
vn 0.000000000 -1.000000000 0.000000000
vn 0.000000000 1.000000000 0.000000000
vn 0.098016025 0.000000000 0.995184836
vn 0.098018202 0.000000000 0.995184622
vn 0.290284561 0.000000000 0.956940371
vn 0.290284760 0.000000000 0.956940311
vn 0.471396323 0.000000000 0.881921486
vn 0.471397213 0.000000000 0.881921010
vn 0.500000246 0.000000000 0.866025262
vn 0.500001531 0.000000000 -0.866024520
vn 0.634392888 0.000000000 0.773010778
vn 1.000000000 0.000000000 0.000000000
usemtl dvss_1
f 1/1/10 2/2/10 3/3/10 4/4/10
f 1/1/10 4/2/10 5/3/10
f 6/1/7 5/2/7 4/3/7 7/4/7
f 6/1/7 7/2/7 8/3/7
f 9/1/5 10/2/5 8/3/5
f 9/1/5 8/2/5 7/3/5
f 9/1/5 7/2/5 11/3/5
f 12/1/5 10/2/5 9/3/5
f 13/1/17 14/2/17 15/3/17 16/4/17
f 13/1/17 16/2/17 17/3/17
f 7/1/12 4/2/12 3/3/12
f 3/1/12 18/2/12 16/3/12
f 19/1/12 16/2/12 15/3/12
f 20/1/12 11/2/12 7/3/12
f 7/1/12 3/2/12 16/3/12
f 21/1/12 16/2/12 19/3/12
f 22/1/12 20/2/12 7/3/12
f 23/1/12 7/2/12 16/3/12 21/4/12
f 24/1/12 22/2/12 7/3/12
f 25/1/12 7/2/12 23/3/12
f 25/1/12 24/2/12 7/3/12
f 26/1/16 17/2/16 16/3/16 18/4/16
f 26/1/16 18/2/16 27/3/16
f 28/1/13 27/2/13 18/3/13 3/4/13
f 28/1/13 3/2/13 2/3/13
usemtl dvss_5
f 29/1/4 30/2/4 31/3/4
f 29/1/4 31/2/4 32/3/4
f 32/1/1 31/2/1 33/3/1
f 32/1/1 33/2/1 34/3/1
f 35/1/3 34/2/3 33/3/3 36/4/3
f 37/1/3 34/2/3 35/3/3
f 38/1/20 39/2/20 40/3/20
f 41/1/20 38/2/20 40/3/20 42/4/20
f 33/1/12 31/2/12 30/3/12
f 30/1/12 43/2/12 40/3/12
f 40/1/12 39/2/12 36/3/12 33/4/12
f 30/1/12 40/2/12 33/3/12
f 42/1/22 40/2/22 43/3/22
f 42/1/22 43/2/22 44/3/22
f 44/1/19 43/2/19 30/3/19
f 44/1/19 30/2/19 29/3/19
f 44/1/11 29/2/11 32/3/11
f 45/1/11 32/2/11 34/3/11 37/4/11
f 46/1/11 41/2/11 42/3/11 44/4/11
f 32/1/11 45/2/11 46/3/11 44/4/11
f 47/1/9 48/2/9 49/3/9
f 47/1/9 49/2/9 50/3/9
f 50/1/8 49/2/8 51/3/8
f 50/1/8 51/2/8 52/3/8
f 52/1/6 51/2/6 53/3/6
f 52/1/6 53/2/6 54/3/6
f 55/1/2 54/2/2 53/3/2 56/4/2
f 57/1/2 54/2/2 55/3/2
f 58/1/21 59/2/21 60/3/21
f 61/1/21 58/2/21 60/3/21 62/4/21
f 62/1/18 60/2/18 63/3/18
f 62/1/18 63/2/18 64/3/18
f 51/1/12 49/2/12 48/3/12
f 48/1/12 65/2/12 63/3/12
f 66/1/12 63/2/12 60/3/12 59/4/12
f 67/1/12 56/2/12 53/3/12 51/4/12
f 51/1/12 48/2/12 63/3/12
f 68/1/12 63/2/12 66/3/12
f 69/1/12 67/2/12 51/3/12
f 70/1/12 51/2/12 63/3/12 68/4/12
f 71/1/12 69/2/12 51/3/12
f 72/1/12 51/2/12 70/3/12
f 72/1/12 71/2/12 51/3/12
f 64/1/15 63/2/15 65/3/15
f 64/1/15 65/2/15 73/3/15
f 73/1/14 65/2/14 48/3/14
f 73/1/14 48/2/14 47/3/14
f 73/1/11 47/2/11 50/3/11
f 50/1/11 52/2/11 54/3/11
f 74/1/11 54/2/11 57/3/11
f 75/1/11 61/2/11 62/3/11
f 62/1/11 64/2/11 73/3/11
f 73/1/11 50/2/11 54/3/11
f 76/1/11 54/2/11 74/3/11
f 77/1/11 75/2/11 62/3/11 73/4/11
f 78/1/11 73/2/11 54/3/11 76/4/11
f 79/1/11 77/2/11 73/3/11
f 80/1/11 73/2/11 78/3/11
f 80/1/11 79/2/11 73/3/11
