# Generated by tools-import-turbines.py; estimated STEP scale.
mtllib materials.mtl
s off
v 0.933333200 0.192261917 0.000000000
v 0.933333200 0.124404762 1.000000000
v 0.933333200 0.316666700 1.000000000
v 0.933333200 0.316666700 0.000000000
v 0.933333200 0.000000000 0.000000000
v 0.933333200 0.000000000 1.000000000
v 1.000000000 0.000000000 0.000000000
v 1.000000000 0.000000000 1.000000000
v 1.000000000 0.316666700 1.000000000
v 1.000000000 0.316666700 0.000000000
vt 0 0
vt 1 0
vt 1 1
vt 0 1
vn -1.000000000 0.000000000 0.000000000
vn 0.000000000 -1.000000000 0.000000000
vn 0.000000000 1.000000000 0.000000000
usemtl dvss_1
f 1/1/1 2/2/1 3/3/1 4/4/1
f 5/1/1 6/2/1 2/3/1 1/4/1
f 6/1/2 5/2/2 7/3/2 8/4/2
f 9/1/3 10/2/3 4/3/3 3/4/3
