# Generated by tools-import-turbines.py; estimated STEP scale.
mtllib materials.mtl
s off
v 0.895043551 0.000000000 0.232361535
v 0.856688425 0.000000000 0.145819634
v 0.730621600 0.445173700 0.286463000
v 0.785495500 0.427061100 0.392981200
v 0.906433112 0.000000000 0.258060140
v 0.869509155 0.000000000 0.354254582
v 0.751235200 0.383333200 0.500681900
v 0.859789599 0.000000000 0.379575753
v 0.765441611 0.000000000 0.428180081
v 0.647909600 0.339605300 0.546475500
v 0.744080946 0.000000000 0.439184273
v 0.647253043 0.000000000 0.408382556
v 0.536045800 0.321492700 0.503536800
v 0.627087867 0.000000000 0.401967872
v 0.586227694 0.000000000 0.309774027
v 0.481171800 0.339605300 0.397018700
v 0.577343092 0.000000000 0.289727473
v 0.614708138 0.000000000 0.192383880
v 0.515432100 0.383333200 0.289318000
v 0.623986600 0.000000000 0.168211853
v 0.618757700 0.427061100 0.243524300
v 0.714052803 0.000000000 0.121813257
v 0.739695244 0.000000000 0.108603240
v 0.829297497 0.000000000 0.137106396
v 0.192811993 1.000000000 0.114436145
v 0.000000000 0.113345569 0.034570659
v 0.000000000 1.000000000 0.034570659
v 0.000000000 0.016666700 0.034570659
v 0.203685000 1.000000000 0.118939900
v 0.203685000 0.016666700 0.118939900
v 0.401032387 1.000000000 0.239874293
v 0.411067000 1.000000000 0.246023500
v 0.411067000 0.016666700 0.246023500
v 0.587066093 1.000000000 0.396341130
v 0.596015200 1.000000000 0.403984400
v 0.596015200 0.016666700 0.403984400
v 0.746332830 1.000000000 0.579983493
v 0.753976100 1.000000000 0.588932600
v 0.753976100 0.016666700 0.588932600
v 0.874910684 1.000000000 0.786279892
v 0.881059900 1.000000000 0.796314500
v 0.881059900 0.016666700 0.796314500
v 0.965429273 1.000000000 1.000000000
v 0.965429273 0.953322597 1.000000000
v 0.965429273 0.016666700 1.000000000
v 0.000000000 0.016666700 0.052758601
v 0.947241317 0.016666700 1.000000000
v 0.000000000 0.016666700 0.086679365
v 0.913320621 0.016666700 1.000000000
v 0.000000000 0.016666700 0.151200460
v 0.652607932 0.016666700 1.000000000
v 0.000000000 0.016666700 1.000000000
v 0.067734803 0.000000000 0.543382576
v 0.000000000 0.000000000 0.507177503
v 0.000000000 0.099999900 0.507177503
v 0.120386600 0.099999900 0.571525600
v 0.120386600 0.000000000 0.571525600
v 0.243452759 0.000000000 0.672523169
v 0.289602500 0.099999900 0.710397200
v 0.289602500 0.000000000 0.710397200
v 0.390600141 0.000000000 0.833463287
v 0.428474200 0.099999900 0.879613000
v 0.428474200 0.000000000 0.879613000
v 0.492822382 0.000000000 1.000000000
v 0.492822382 0.099999900 1.000000000
v 0.483108788 0.099999900 1.000000000
v 0.000000000 0.099999900 0.516891059
v 0.000000000 0.099999900 0.541004612
v 0.458995312 0.099999900 1.000000000
v 0.000000000 0.099999900 0.643775748
v 0.147552945 0.099999900 1.000000000
v 0.000000000 0.099999900 1.000000000
v 0.105397223 0.000000000 0.242925354
v 0.000000000 0.000000000 0.199268408
v 0.000000000 0.066666600 0.070539087
v 0.188552100 0.066666600 0.148639900
v 0.134391907 0.000000000 0.254935319
v 0.294593454 0.000000000 0.353107033
v 0.391474000 0.066666600 0.272990700
v 0.321352372 0.000000000 0.369504909
v 0.464224414 0.000000000 0.491529077
v 0.572445200 0.066666600 0.427554600
v 0.488088683 0.000000000 0.511911117
v 0.610112850 0.000000000 0.654782923
v 0.727009100 0.066666600 0.608525500
v 0.630494891 0.000000000 0.678647191
v 0.728666525 0.000000000 0.838848817
v 0.851359800 0.066666600 0.811447500
v 0.745064402 0.000000000 0.865607735
v 0.800731570 0.000000000 1.000000000
v 0.929460900 0.066666600 1.000000000
v 0.926475372 0.066666600 1.000000000
v 0.000000000 0.066666600 0.073524683
v 0.854206762 0.066666600 1.000000000
v 0.000000000 0.066666600 0.080322603
v 0.727009144 0.066666600 1.000000000
v 0.000000000 0.066666600 0.372306104
v 0.442586280 0.066666600 1.000000000
v 0.000000000 0.066666600 0.844745180
v 0.000000000 0.066666600 1.000000000
vt 0 0
vt 1 0
vt 1 1
vt 0 1
vn -0.923098738 -0.149465391 -0.354328685
vn -0.923097602 -0.149464224 -0.354332135
vn -0.852639417 -0.360841114 0.377888496
vn -0.852639417 -0.360841114 0.377888496
vn -0.452819815 0.149464930 -0.878984897
vn -0.452818949 0.149465236 -0.878985291
vn -0.282716302 -0.360841229 0.888743551
vn -0.282715667 -0.360841086 0.888743811
vn -0.260694727 0.920572043 0.290835646
vn -0.260694132 0.920572139 0.290835874
vn -0.260692931 0.920572484 0.290835858
vn -0.260692877 0.920572323 0.290836417
vn -0.260692717 0.920572620 0.290835620
vn -0.260692644 0.920572400 0.290836382
vn 0.000000000 -1.000000000 0.000000000
vn 0.000000000 1.000000000 0.000000000
vn 0.000000000 1.000000000 0.000000000
vn 0.187120219 -0.872300833 -0.451749133
vn 0.187120478 -0.872300879 -0.451748937
vn 0.255485843 -0.872300789 -0.416915240
vn 0.255486056 -0.872300833 -0.416915018
vn 0.282715378 0.360841092 -0.888743901
vn 0.282716095 0.360841165 -0.888743643
vn 0.317560269 -0.872300788 -0.371815560
vn 0.317560578 -0.872300864 -0.371815118
vn 0.371815148 -0.872300842 -0.317560603
vn 0.371815202 -0.872300860 -0.317560490
vn 0.382684020 0.000000000 -0.923879289
vn 0.416915143 -0.872300848 -0.255485802
vn 0.416915148 -0.872300850 -0.255485786
vn 0.451748888 -0.872300847 -0.187120748
vn 0.452818360 -0.149465600 0.878985533
vn 0.452819298 -0.149465134 0.878985129
vn 0.471397414 0.000000000 -0.881920903
vn 0.522497808 0.000000000 -0.852640628
vn 0.634392465 0.000000000 -0.773011126
vn 0.649448558 0.000000000 -0.760405530
vn 0.760405530 0.000000000 -0.649448558
vn 0.773010718 0.000000000 -0.634392962
vn 0.852639643 0.360841199 -0.377887905
vn 0.852639833 0.360841116 -0.377887555
vn 0.852640149 0.000000000 -0.522498589
vn 0.881921295 0.000000000 -0.471396679
vn 0.923097696 0.149464061 0.354331960
vn 0.923098681 0.149465592 0.354328748
vn 0.923879410 0.000000000 -0.382683729
usemtl dvss_4
f 1/1/41 2/2/41 3/3/41 4/4/41
f 1/1/40 4/2/40 5/3/40
f 6/1/45 5/2/45 4/3/45 7/4/45
f 6/1/44 7/2/44 8/3/44
f 9/1/32 8/2/32 7/3/32 10/4/32
f 9/1/33 10/2/33 11/3/33
f 12/1/7 11/2/7 10/3/7 13/4/7
f 12/1/8 13/2/8 14/3/8
f 15/1/4 14/2/4 13/3/4 16/4/4
f 15/1/3 16/2/3 17/3/3
f 18/1/1 17/2/1 16/3/1 19/4/1
f 18/1/2 19/2/2 20/3/2
f 7/1/9 4/2/9 3/3/9
f 3/1/14 21/2/14 19/3/14
f 19/1/10 16/2/10 13/3/10
f 13/1/12 10/2/12 7/3/12
f 7/1/13 3/2/13 19/3/13
f 19/1/11 13/2/11 7/3/11
f 22/1/6 20/2/6 19/3/6 21/4/6
f 22/1/5 21/2/5 23/3/5
f 24/1/23 23/2/23 21/3/23 3/4/23
f 24/1/22 3/2/22 2/3/22
f 25/1/28 26/2/28 27/3/28
f 28/1/28 26/2/28 25/3/28
f 28/1/28 25/2/28 29/3/28
f 28/1/28 29/2/28 30/3/28
f 31/1/35 30/2/35 29/3/35
f 30/1/35 31/2/35 32/3/35 33/4/35
f 34/1/37 33/2/37 32/3/37
f 33/1/37 34/2/37 35/3/37 36/4/37
f 37/1/38 36/2/38 35/3/38
f 36/1/38 37/2/38 38/3/38 39/4/38
f 40/1/42 39/2/42 38/3/42
f 39/1/42 40/2/42 41/3/42 42/4/42
f 43/1/46 44/2/46 42/3/46 41/4/46
f 45/1/46 42/2/46 44/3/46
f 46/1/15 28/2/15 30/3/15
f 30/1/15 33/2/15 36/3/15
f 36/1/15 39/2/15 42/3/15
f 47/1/15 42/2/15 45/3/15
f 48/1/15 46/2/15 30/3/15
f 30/1/15 36/2/15 42/3/15
f 49/1/15 42/2/15 47/3/15
f 50/1/15 48/2/15 30/3/15
f 51/1/15 30/2/15 42/3/15 49/4/15
f 52/1/15 50/2/15 30/3/15 51/4/15
f 53/1/34 54/2/34 55/3/34 56/4/34
f 53/1/34 56/2/34 57/3/34
f 58/1/36 57/2/36 56/3/36 59/4/36
f 58/1/36 59/2/36 60/3/36
f 61/1/39 60/2/39 59/3/39 62/4/39
f 61/1/39 62/2/39 63/3/39
f 64/1/43 63/2/43 62/3/43 65/4/43
f 66/1/16 65/2/16 62/3/16 59/4/16
f 67/1/16 59/2/16 56/3/16 55/4/16
f 68/1/16 69/2/16 66/3/16
f 68/1/16 66/2/16 59/3/16
f 68/1/16 59/2/16 67/3/16
f 70/1/16 71/2/16 69/3/16 68/4/16
f 72/1/16 71/2/16 70/3/16
f 73/1/19 74/2/19 75/3/19 76/4/19
f 73/1/18 76/2/18 77/3/18
f 78/1/21 77/2/21 76/3/21 79/4/21
f 78/1/20 79/2/20 80/3/20
f 81/1/24 80/2/24 79/3/24 82/4/24
f 81/1/25 82/2/25 83/3/25
f 84/1/27 83/2/27 82/3/27 85/4/27
f 84/1/26 85/2/26 86/3/26
f 87/1/29 86/2/29 85/3/29 88/4/29
f 87/1/30 88/2/30 89/3/30
f 90/1/31 89/2/31 88/3/31 91/4/31
f 92/1/16 91/2/16 88/3/16 85/4/16
f 85/1/16 82/2/16 79/3/16
f 93/1/16 79/2/16 76/3/16 75/4/16
f 94/1/16 92/2/16 85/3/16
f 95/1/16 85/2/16 79/3/16 93/4/16
f 96/1/16 94/2/16 85/3/16
f 97/1/16 85/2/16 95/3/16
f 98/1/16 96/2/16 85/3/16
f 99/1/16 85/2/16 97/3/16
f 100/1/17 98/2/17 85/3/17 99/4/17
