# Generated by tools-import-turbines.py; estimated STEP scale.
mtllib materials.mtl
s off
v 0.474019472 0.000000000 0.036372758
v 0.500000000 0.014999900 0.071666700
v 0.500000000 0.014999900 0.005000000
v 0.474019472 0.000000000 0.005000000
v 0.474019313 0.000000000 0.071666700
v 0.491339781 0.000000000 0.005000000
v 0.508660219 0.000000000 0.005000000
v 0.525980687 0.000000000 0.005000000
v 0.525980687 0.000000000 0.040293942
v 0.525980687 0.000000000 0.071666700
v 0.116983900 0.173650500 0.071666700
v 0.116983900 0.173650500 0.005000000
v 0.067909200 0.145317300 0.005000000
v 0.067909000 0.145317300 0.071666700
v 0.067909000 0.088650500 0.005000000
v 0.067909000 0.088650500 0.071666700
v 0.116983900 0.060317300 0.005000000
v 0.116983900 0.060317300 0.071666700
v 0.166058800 0.088650500 0.005000000
v 0.166058500 0.088650500 0.071666700
v 0.166058800 0.145317300 0.005000000
v 0.166058800 0.145317300 0.071666700
v 0.000000000 0.467389554 0.015063690
v 0.000000000 0.467389554 0.005000000
v 0.007408100 0.471666600 0.005000000
v 0.000000000 0.467389652 0.071666700
v 0.007407900 0.471666600 0.071666700
v 0.000000000 0.484497798 0.005000000
v 0.000000000 0.532610446 0.005000000
v 0.007408100 0.528333400 0.005000000
v 0.000000000 0.471666600 0.005000000
v 0.007408100 0.528333400 0.071666700
v 0.000000000 0.532610446 0.061603010
v 0.000000000 0.532610446 0.071666700
v 0.000000000 0.528333400 0.071666700
v 0.000000000 0.515502202 0.071666700
v 0.116983900 0.939682700 0.071666700
v 0.116983900 0.939682700 0.005000000
v 0.067909200 0.911349500 0.005000000
v 0.067909000 0.911349500 0.071666700
v 0.067909000 0.854682700 0.005000000
v 0.067909000 0.854682700 0.071666700
v 0.116983900 0.826349500 0.005000000
v 0.116983900 0.826349500 0.071666700
v 0.166058800 0.854682700 0.005000000
v 0.166058500 0.854682700 0.071666700
v 0.166058800 0.911349500 0.005000000
v 0.166058800 0.911349500 0.071666700
v 0.474019222 1.000000000 0.040294066
v 0.474019222 1.000000000 0.005000000
v 0.500000000 0.985000100 0.005000000
v 0.474019222 1.000000000 0.071666700
v 0.500000000 0.985000100 0.071666700
v 0.525980778 1.000000000 0.036372634
v 0.525980778 1.000000000 0.005000000
v 0.525980620 1.000000000 0.071666700
v 0.491339791 1.000000000 0.071666700
v 0.508660209 1.000000000 0.071666700
v 0.883016100 0.939682700 0.071666700
v 0.883016100 0.939682700 0.005000000
v 0.833941500 0.911349500 0.005000000
v 0.833941200 0.911349500 0.071666700
v 0.833941200 0.854682700 0.005000000
v 0.833941200 0.854682700 0.071666700
v 0.883016100 0.826349500 0.005000000
v 0.883016100 0.826349500 0.071666700
v 0.932091000 0.854682700 0.005000000
v 0.932090800 0.854682700 0.071666700
v 0.932091000 0.911349500 0.005000000
v 0.932091000 0.911349500 0.071666700
v 1.000000000 0.532610348 0.015063459
v 1.000000000 0.532610348 0.005000000
v 0.992592100 0.528333400 0.005000000
v 1.000000000 0.532610446 0.071666700
v 0.992591900 0.528333400 0.071666700
v 0.992591900 0.471666600 0.005000000
v 0.992591900 0.471666600 0.071666700
v 1.000000000 0.467389554 0.061603010
v 1.000000000 0.467389554 0.005000000
v 1.000000000 0.467389554 0.071666700
v 1.000000000 0.484497798 0.005000000
v 1.000000000 0.471666600 0.005000000
v 1.000000000 0.528333400 0.071666700
v 1.000000000 0.515502202 0.071666700
v 0.883016100 0.173650500 0.071666700
v 0.883016100 0.173650500 0.005000000
v 0.833941500 0.145317300 0.005000000
v 0.833941200 0.145317300 0.071666700
v 0.833941200 0.088650500 0.005000000
v 0.833941200 0.088650500 0.071666700
v 0.883016100 0.060317300 0.005000000
v 0.883016100 0.060317300 0.071666700
v 0.932091000 0.088650500 0.005000000
v 0.932090800 0.088650500 0.071666700
v 0.932091000 0.145317300 0.005000000
v 0.932091000 0.145317300 0.071666700
v 0.500000000 0.855500000 0.028333400
v 0.500000000 0.855500000 0.010000000
v 0.407990000 0.843386700 0.010000000
v 0.407989700 0.843386700 0.028333300
v 0.322250100 0.807872100 0.010000000
v 0.322250100 0.807872100 0.028333300
v 0.248623600 0.751376400 0.010000000
v 0.248623600 0.751376400 0.028333300
v 0.192127900 0.677750100 0.010000000
v 0.192127900 0.677750100 0.028333300
v 0.156613300 0.592010300 0.010000000
v 0.156613300 0.592010300 0.028333300
v 0.144500000 0.500000000 0.009999900
v 0.144500000 0.500000000 0.028333300
v 0.156613300 0.407990000 0.009999900
v 0.156613300 0.407989700 0.028333300
v 0.192127900 0.322250100 0.009999900
v 0.192127900 0.322250100 0.028333300
v 0.248623600 0.248623600 0.009999900
v 0.248623600 0.248623600 0.028333300
v 0.322249900 0.192127900 0.009999900
v 0.322249900 0.192127900 0.028333300
v 0.407989700 0.156613300 0.010000000
v 0.407989700 0.156613300 0.028333300
v 0.500000000 0.144500000 0.010000000
v 0.500000000 0.144500000 0.028333300
v 0.592010300 0.156613300 0.010000000
v 0.592010000 0.156613300 0.028333300
v 0.677749900 0.192127900 0.010000000
v 0.677749900 0.192127900 0.028333300
v 0.751376400 0.248623600 0.010000000
v 0.751376400 0.248623600 0.028333400
v 0.807872100 0.322249900 0.010000000
v 0.807872100 0.322249900 0.028333400
v 0.843386700 0.407989700 0.010000000
v 0.843386700 0.407989700 0.028333400
v 0.855500000 0.500000000 0.010000100
v 0.855500000 0.500000000 0.028333400
v 0.843386700 0.592010300 0.010000100
v 0.843386700 0.592010000 0.028333400
v 0.807872100 0.677749900 0.010000100
v 0.807872100 0.677749900 0.028333400
v 0.751376400 0.751376400 0.010000100
v 0.751376400 0.751376400 0.028333400
v 0.677750100 0.807872100 0.010000100
v 0.677750100 0.807872100 0.028333400
v 0.592010300 0.843386700 0.010000000
v 0.592010300 0.843386700 0.028333400
v 0.436702579 1.000000000 0.318556036
v 0.436701791 1.000000000 0.266666700
v 0.368433700 0.991012300 0.266666700
v 0.436702579 1.000000000 0.366666700
v 0.368433700 0.991012300 0.366666700
v 0.245833400 0.940229700 0.266666700
v 0.245833400 0.940229700 0.366666700
v 0.140554200 0.859446000 0.266666700
v 0.140554200 0.859446000 0.366666600
v 0.059770600 0.754166800 0.266666700
v 0.059770600 0.754166800 0.366666600
v 0.008987700 0.631566500 0.266666600
v 0.008987700 0.631566500 0.366666600
v 0.000000000 0.563297911 0.314777564
v 0.000000000 0.563297911 0.266666600
v 0.000000000 0.563297911 0.366666600
v 0.000000000 0.436702185 0.318555636
v 0.000000000 0.436702185 0.266666600
v 0.008987700 0.368433700 0.266666600
v 0.000000000 0.436702185 0.366666600
v 0.008987700 0.368433700 0.366666600
v 0.059770300 0.245833400 0.266666600
v 0.059770300 0.245833400 0.366666600
v 0.140554000 0.140554200 0.266666600
v 0.140554000 0.140554200 0.366666600
v 0.245833200 0.059770600 0.266666600
v 0.245833200 0.059770600 0.366666600
v 0.368433500 0.008987700 0.266666600
v 0.368433500 0.008987700 0.366666600
v 0.436702089 0.000000000 0.314777564
v 0.436702089 0.000000000 0.266666600
v 0.436702089 0.000000000 0.366666600
v 0.563297815 0.000000000 0.318555685
v 0.563297815 0.000000000 0.266666648
v 0.631566300 0.008987700 0.266666700
v 0.563297815 0.000000000 0.366666600
v 0.631566300 0.008987700 0.366666600
v 0.754166600 0.059770300 0.266666700
v 0.754166600 0.059770300 0.366666600
v 0.859445800 0.140554000 0.266666700
v 0.859445800 0.140554000 0.366666700
v 0.940229400 0.245833200 0.266666700
v 0.940229400 0.245833200 0.366666700
v 0.991012300 0.368433500 0.266666700
v 0.991012300 0.368433500 0.366666700
v 1.000000000 0.436701695 0.314777963
v 1.000000000 0.436701695 0.266666700
v 1.000000000 0.436702483 0.366666700
v 1.000000000 0.563297421 0.318556036
v 1.000000000 0.563298209 0.266666700
v 0.991012300 0.631566300 0.266666700
v 1.000000000 0.563297421 0.366666700
v 0.991012300 0.631566300 0.366666700
v 0.940229700 0.754166600 0.266666700
v 0.940229700 0.754166600 0.366666700
v 0.859446000 0.859445800 0.266666700
v 0.859446000 0.859445800 0.366666700
v 0.754166800 0.940229400 0.266666700
v 0.754166800 0.940229400 0.366666700
v 0.468899312 1.000000000 0.266666700
v 0.531100576 1.000000000 0.266666700
v 0.563298305 1.000000000 0.266666700
v 0.631566500 0.991012300 0.266666700
v 1.000000000 0.531100688 0.266666700
v 1.000000000 0.468899424 0.266666700
v 0.531100361 0.000000000 0.266666612
v 0.468899752 0.000000000 0.266666600
v 0.000000000 0.468899639 0.266666600
v 0.000000000 0.531100248 0.266666612
v 1.000000000 0.514433870 0.266666700
v 1.000000000 0.485566131 0.266666700
v 0.000000000 0.485566297 0.266666600
v 0.000000000 0.514433701 0.266666603
v 1.000000000 0.504811292 0.266666700
v 1.000000000 0.495188712 0.266666699
v 0.631566500 0.991012300 0.366666700
v 0.563298305 1.000000000 0.314777963
v 0.563297517 1.000000000 0.366666700
v 0.468831774 0.946930166 1.000000000
v 0.500000071 0.950000000 1.000000000
v 0.500000200 0.950000000 0.091666700
v 0.412209500 0.941353300 0.091666700
v 0.412209371 0.941353300 1.000000000
v 0.382238873 0.932261951 1.000000000
v 0.327792600 0.915746000 0.091666700
v 0.327792471 0.915745807 1.000000000
v 0.300171526 0.900982079 1.000000000
v 0.249993600 0.874161500 0.091666600
v 0.249993407 0.874161307 1.000000000
v 0.225783372 0.854292680 1.000000000
v 0.181802000 0.818198200 0.091666600
v 0.181802000 0.818198071 1.000000000
v 0.161933412 0.793988075 1.000000000
v 0.125838800 0.750006700 0.091666600
v 0.125838800 0.750006700 1.000000000
v 0.111075075 0.722385723 1.000000000
v 0.084254300 0.672207600 0.091666600
v 0.084254300 0.672207600 1.000000000
v 0.075162846 0.642237108 1.000000000
v 0.058646700 0.587790700 0.091666600
v 0.058646700 0.587790700 1.000000000
v 0.055576866 0.556622481 1.000000000
v 0.050000000 0.500000200 0.091666600
v 0.050000000 0.500000071 1.000000000
v 0.053069834 0.468831781 1.000000000
v 0.058646700 0.412209500 0.091666600
v 0.058646700 0.412209371 1.000000000
v 0.067738154 0.382238879 1.000000000
v 0.084254300 0.327792600 0.091666600
v 0.084254107 0.327792471 1.000000000
v 0.099017832 0.300171529 1.000000000
v 0.125838800 0.249993600 0.091666600
v 0.125838607 0.249993407 1.000000000
v 0.145707195 0.225783375 1.000000000
v 0.181802000 0.181802000 0.091666600
v 0.181801871 0.181802000 1.000000000
v 0.206011796 0.161933412 1.000000000
v 0.249993300 0.125838800 0.091666600
v 0.249993300 0.125838800 1.000000000
v 0.277614277 0.111075075 1.000000000
v 0.327792400 0.084254300 0.091666600
v 0.327792400 0.084254300 1.000000000
v 0.357762892 0.075162846 1.000000000
v 0.412209300 0.058646700 0.091666600
v 0.412209300 0.058646700 1.000000000
v 0.443377590 0.055576866 1.000000000
v 0.500000000 0.050000000 0.091666600
v 0.499999871 0.050000000 1.000000000
v 0.531168161 0.053069834 1.000000000
v 0.587790700 0.058646700 0.091666600
v 0.587790571 0.058646700 1.000000000
v 0.617761063 0.067738154 1.000000000
v 0.672207600 0.084254300 0.091666600
v 0.672207471 0.084254107 1.000000000
v 0.699828448 0.099017832 1.000000000
v 0.750006700 0.125838800 0.091666600
v 0.750006507 0.125838607 1.000000000
v 0.774216431 0.145707195 1.000000000
v 0.818198000 0.181802000 0.091666600
v 0.818198000 0.181801871 1.000000000
v 0.838066592 0.206011801 1.000000000
v 0.874161200 0.249993300 0.091666700
v 0.874161200 0.249993300 1.000000000
v 0.888924928 0.277614283 1.000000000
v 0.915745700 0.327792400 0.091666700
v 0.915745700 0.327792400 1.000000000
v 0.924837156 0.357762898 1.000000000
v 0.941353300 0.412209300 0.091666700
v 0.941353300 0.412209300 1.000000000
v 0.944423134 0.443377597 1.000000000
v 0.950000000 0.500000000 0.091666700
v 0.950000000 0.499999871 1.000000000
v 0.946930166 0.531168168 1.000000000
v 0.941353300 0.587790700 0.091666700
v 0.941353300 0.587790571 1.000000000
v 0.932261951 0.617761069 1.000000000
v 0.915746000 0.672207600 0.091666700
v 0.915745807 0.672207471 1.000000000
v 0.900982078 0.699828454 1.000000000
v 0.874161500 0.750006700 0.091666700
v 0.874161307 0.750006507 1.000000000
v 0.854292679 0.774216436 1.000000000
v 0.818198200 0.818198000 0.091666700
v 0.818198071 0.818198000 1.000000000
v 0.793988070 0.838066592 1.000000000
v 0.750006700 0.874161200 0.091666700
v 0.750006700 0.874161200 1.000000000
v 0.722385717 0.888924928 1.000000000
v 0.672207600 0.915745700 0.091666700
v 0.672207600 0.915745700 1.000000000
v 0.587790700 0.941353300 0.091666700
v 0.642237102 0.924837156 1.000000000
v 0.587790700 0.941353300 1.000000000
v 0.556622474 0.944423134 1.000000000
v 0.128748646 1.000000000 1.000000000
v 0.246082711 1.000000000 0.971830495
v 0.128748646 0.487341606 1.000000000
v 0.128748646 0.016666700 1.000000000
v 0.257526400 1.000000000 0.969083100
v 0.257526400 0.016666700 0.969083100
v 0.488267216 1.000000000 0.950923376
v 0.499999800 1.000000000 0.950000000
v 0.499999800 0.016666700 0.950000000
v 0.730740521 1.000000000 0.968159629
v 0.742473100 1.000000000 0.969083000
v 0.742473100 0.016666700 0.969083000
v 0.871251833 1.000000000 1.000000000
v 0.871251833 0.579328896 1.000000000
v 0.871251833 0.016666700 1.000000000
v 0.162374074 0.016666700 1.000000000
v 0.837625798 0.016666700 1.000000000
v 0.196848599 0.016666700 1.000000000
v 0.452728025 0.016666700 1.000000000
v 0.495717220 0.057541205 1.000000000
v 0.288228386 0.066666600 1.000000000
v 0.499999800 0.066666600 0.983333300
v 0.499999800 0.057352855 1.000000000
v 0.711771214 0.066666600 1.000000000
v 0.605229421 0.066666600 1.000000000
v 0.394770582 0.066666600 1.000000000
v 0.147293219 1.000000000 0.182702146
v 0.147293219 1.000000000 0.025000000
v 0.063950800 0.936049200 0.025000000
v 0.147293219 1.000000000 0.266666700
v 0.063950800 0.936049200 0.266666700
v 0.000000000 0.852706827 0.108964393
v 0.000000000 0.852706827 0.025000000
v 0.000000000 0.852706827 0.266666635
v 0.000000000 0.147293219 0.182702046
v 0.000000000 0.147293219 0.024999900
v 0.063950800 0.063950800 0.024999900
v 0.000000000 0.147293219 0.266666600
v 0.063950800 0.063950800 0.266666600
v 0.147293173 0.000000000 0.108964293
v 0.147293173 0.000000000 0.024999900
v 0.147293173 0.000000000 0.266666600
v 0.852706781 0.000000000 0.182702146
v 0.852706781 0.000000000 0.025000000
v 0.936049200 0.063950800 0.025000000
v 0.852706781 0.000000000 0.266666700
v 0.936049200 0.063950800 0.266666700
v 1.000000000 0.147293088 0.108964554
v 1.000000000 0.147293088 0.025000000
v 1.000000000 0.147293088 0.266666700
v 1.000000000 0.852706781 0.182702181
v 1.000000000 0.852706781 0.025000100
v 0.936049200 0.936049200 0.025000100
v 1.000000000 0.852706781 0.266666700
v 0.936049200 0.936049200 0.266666700
v 0.852706912 1.000000000 0.108964619
v 0.852706912 1.000000000 0.025000100
v 0.852706912 1.000000000 0.266666700
v 1.000000000 0.842382230 0.025000100
v 0.842382370 1.000000000 0.025000100
v 0.842382230 0.000000000 0.025000000
v 1.000000000 0.157617630 0.025000000
v 0.000000000 0.157617785 0.024999900
v 0.157617715 0.000000000 0.024999900
v 0.157617785 1.000000000 0.025000000
v 0.000000000 0.842382285 0.025000000
v 1.000000000 0.702072782 0.025000100
v 0.827991604 1.000000000 0.025000100
v 0.827991416 0.000000000 0.025000006
v 1.000000000 0.297927349 0.025000062
v 0.000000000 0.297927364 0.024999900
v 0.172008457 0.000000000 0.024999900
v 0.172008590 1.000000000 0.024999994
v 0.000000000 0.702072543 0.024999938
v 1.000000000 0.567357609 0.025000087
v 0.250641398 1.000000000 0.025000006
v 0.250641048 0.000000000 0.024999913
v 1.000000000 0.432642419 0.025000075
v 0.191666794 1.000000000 0.024999997
v 0.191666606 0.000000000 0.024999903
v 0.174716927 1.000000000 0.266666700
v 0.000000000 0.825283193 0.266666660
v 0.000000000 0.174716927 0.266666600
v 0.174716807 0.000000000 0.266666600
v 0.825283073 0.000000000 0.266666660
v 1.000000000 0.174716807 0.266666700
v 1.000000000 0.825283073 0.266666700
v 0.825283193 1.000000000 0.266666700
v 0.302618647 1.000000000 0.266666700
v 0.000000000 0.697381473 0.266666660
v 0.244740566 0.000000000 0.266666600
v 0.000000000 0.244740734 0.266666600
v 0.697381353 0.000000000 0.266666660
v 1.000000000 0.302618527 0.266666700
v 0.755259434 1.000000000 0.266666700
v 1.000000000 0.755259266 0.266666700
v 0.000000000 0.436049162 0.266666613
v 0.563951062 1.000000000 0.266666687
v 0.000000000 0.314764524 0.266666609
v 0.685235748 1.000000000 0.266666700
vt 0 0
vt 1 0
vt 1 1
vt 0 1
vn -1.000000000 0.000000000 0.000000000
vn -1.000000000 0.000003529 -0.000003000
vn -1.000000000 0.000003529 -0.000003000
vn -1.000000000 0.000005294 -0.000004500
vn -1.000000000 0.000005294 -0.000004500
vn -0.995184648 -0.098017935 -0.000000014
vn -0.995184648 -0.098017935 -0.000000014
vn -0.995184648 0.098017935 0.000000014
vn -0.995184627 0.098018156 0.000000000
vn -0.991444981 0.130525283 0.000000000
vn -0.991444981 0.130525283 0.000000000
vn -0.991444981 -0.130525283 -0.000002136
vn -0.991444926 -0.130525702 0.000000000
vn -0.991444918 0.130525760 0.000000000
vn -0.991444893 -0.130525955 0.000000000
vn -0.956941238 -0.290281702 -0.000000245
vn -0.956940294 0.290284816 0.000000000
vn -0.956940294 0.290284816 0.000000000
vn -0.956940294 -0.290284816 -0.000000041
vn -0.923879818 -0.382682744 0.000000000
vn -0.923879645 -0.382683162 -0.000006262
vn -0.923879487 0.382683543 0.000000000
vn -0.923879171 -0.382684305 0.000000000
vn -0.923879018 0.382684674 0.000000000
vn -0.923879018 0.382684674 0.000000000
vn -0.881921195 0.471396866 0.000000000
vn -0.881921195 0.471396866 0.000000000
vn -0.881921195 -0.471396866 -0.000000288
vn -0.881920943 -0.471397338 -0.000000255
vn -0.793353741 -0.608760907 0.000000000
vn -0.793353741 -0.608760907 0.000000000
vn -0.793353581 0.608761116 0.000000000
vn -0.793353581 0.608761116 0.000000000
vn -0.793353236 0.608761565 0.000000000
vn -0.793352872 -0.608762039 0.000000000
vn -0.793352822 -0.608762104 0.000000000
vn -0.793352822 -0.608762104 0.000000000
vn -0.793352024 0.608763145 0.000000000
vn -0.773011564 -0.634391931 -0.000000300
vn -0.773011108 0.634392486 0.000000090
vn -0.773010196 0.634393598 0.000000000
vn -0.773009640 -0.634394276 -0.000000110
vn -0.634393598 0.773010196 0.000000110
vn -0.634393598 -0.773010196 -0.000000090
vn -0.634392608 0.773011008 0.000000030
vn -0.634392486 -0.773011108 0.000000000
vn -0.608763145 -0.793352024 0.000000000
vn -0.608762104 0.793352822 0.000000000
vn -0.608762039 0.793352872 0.000000000
vn -0.608762039 0.793352872 0.000000000
vn -0.608761565 -0.793353236 0.000000000
vn -0.608761116 -0.793353581 0.000000000
vn -0.608760907 0.793353741 0.000000000
vn -0.608760907 0.793353741 0.000000000
vn -0.500000880 0.866024896 0.000000000
vn -0.499999556 0.866025660 0.000000000
vn -0.499999556 0.866025660 0.000000000
vn -0.499998792 0.866026101 0.000000000
vn -0.499998792 0.866026101 0.000000000
vn -0.499998587 0.866026219 -0.000002250
vn -0.499998028 -0.866026542 0.000000000
vn -0.499998028 -0.866026542 0.000000000
vn -0.499998028 0.866026542 -0.000001500
vn -0.499997264 -0.866026983 0.000000000
vn -0.499997264 -0.866026983 0.000000000
vn -0.499997264 -0.866026983 0.000000000
vn -0.499997264 0.866026983 -0.000001500
vn -0.499997264 0.866026983 -0.000001500
vn -0.499997264 0.866026983 -0.000002250
vn -0.499997264 0.866026983 -0.000002250
vn -0.471397338 0.881920943 0.000000121
vn -0.471396866 -0.881921195 0.000000000
vn -0.471396866 -0.881921195 0.000000000
vn -0.471396866 0.881921195 0.000000087
vn -0.382684674 -0.923879018 0.000000000
vn -0.382684305 0.923879171 0.000000000
vn -0.382683543 -0.923879487 0.000000000
vn -0.382683543 -0.923879487 0.000000000
vn -0.382683162 0.923879645 -0.000006262
vn -0.382682744 0.923879818 0.000000000
vn -0.290284816 -0.956940294 0.000000000
vn -0.290284816 -0.956940294 0.000000000
vn -0.290284816 0.956940294 0.000000163
vn -0.290281702 0.956941238 -0.000000041
vn -0.233446053 0.000000000 -0.972369755
vn -0.130526696 0.991444795 0.000001983
vn -0.130525760 -0.991444918 0.000000000
vn -0.130525702 0.991444926 0.000000000
vn -0.130525283 -0.991444981 0.000000000
vn -0.130525283 -0.991444981 0.000000000
vn -0.130525283 0.991444981 -0.000002136
vn -0.130525215 0.991444990 0.000000000
vn -0.098018156 -0.995184627 -0.000000014
vn -0.098017935 0.995184648 -0.000000014
vn -0.098017935 -0.995184648 0.000000000
vn -0.098017935 0.995184648 -0.000000014
vn -0.078459217 0.000000000 -0.996917324
vn -0.038364174 -0.872300833 -0.487462253
vn -0.038363943 -0.872300866 -0.487462211
vn -0.000003846 0.000001593 -1.000000000
vn -0.000003846 0.000001593 -1.000000000
vn -0.000002217 0.000000918 1.000000000
vn -0.000001461 0.000001904 1.000000000
vn -0.000000827 0.000001237 -1.000000000
vn -0.000000769 0.000000769 -1.000000000
vn -0.000000769 0.000000769 -1.000000000
vn -0.000000627 0.000000000 1.000000000
vn -0.000000543 0.000000941 1.000000000
vn -0.000000543 -0.000004128 1.000000000
vn -0.000000543 -0.000004128 -1.000000000
vn -0.000000543 -0.000004128 -1.000000000
vn -0.000000537 0.000000537 -1.000000000
vn -0.000000443 0.000000443 -1.000000000
vn -0.000000443 0.000000443 -1.000000000
vn -0.000000314 0.000000084 1.000000000
vn -0.000000230 -0.000000230 1.000000000
vn -0.000000219 0.000000059 1.000000000
vn -0.000000181 -0.000000049 1.000000000
vn -0.000000161 -0.000000161 1.000000000
vn -0.000000132 -0.000000132 1.000000000
vn -0.000000127 -0.000000034 1.000000000
vn -0.000000104 -0.000000028 1.000000000
vn 0.000000000 -1.000000000 0.000000000
vn 0.000000000 -0.000001087 1.000000000
vn 0.000000000 -0.000000760 1.000000000
vn 0.000000000 -0.000000760 1.000000000
vn 0.000000000 -0.000000627 1.000000000
vn 0.000000000 0.000000000 -1.000000000
vn 0.000000000 0.000000000 1.000000000
vn 0.000000000 1.000000000 0.000000000
vn 0.000000048 -0.000000181 1.000000000
vn 0.000000060 0.000000145 -1.000000000
vn 0.000000060 0.000000145 -1.000000000
vn 0.000000066 0.000000114 -1.000000000
vn 0.000000162 0.000000094 -1.000000000
vn 0.000000162 0.000000094 -1.000000000
vn 0.000000162 0.000000094 -1.000000000
vn 0.000000162 0.000000094 -1.000000000
vn 0.000000197 -0.000000114 -1.000000000
vn 0.000000197 0.000000114 -1.000000000
vn 0.000000197 0.000000734 -1.000000000
vn 0.000000281 0.000000162 -1.000000000
vn 0.000000281 0.000000162 -1.000000000
vn 0.000000281 0.000000162 -1.000000000
vn 0.000000281 0.000000162 -1.000000000
vn 0.000000281 -0.000001050 -1.000000000
vn 0.000000281 -0.000001050 -1.000000000
vn 0.000000411 0.000000000 -1.000000000
vn 0.000000411 -0.000000000 -1.000000000
vn 0.000001114 -0.000002690 1.000000000
vn 0.000001114 -0.000002690 1.000000000
vn 0.000001114 -0.000002690 -1.000000000
vn 0.000001237 -0.000000827 -1.000000000
vn 0.000001593 -0.000003846 1.000000000
vn 0.000002887 -0.000000380 -1.000000000
vn 0.000003686 -0.000004492 -1.000000000
vn 0.000005124 -0.000002739 -1.000000000
vn 0.038363946 -0.872300840 -0.487462257
vn 0.078458840 0.000000000 -0.996917354
vn 0.098017935 -0.995184648 0.000000014
vn 0.098017935 -0.995184648 0.000000014
vn 0.098017935 0.995184648 0.000000014
vn 0.098018156 0.995184627 0.000000000
vn 0.130525019 0.991445016 0.000001983
vn 0.130525283 -0.991444981 0.000000000
vn 0.130525283 0.991444981 0.000000000
vn 0.130525702 -0.991444926 0.000002136
vn 0.130525955 -0.991444893 0.000000000
vn 0.130525955 -0.991444893 0.000000000
vn 0.130526501 0.991444821 0.000000000
vn 0.233445089 0.000000000 -0.972369986
vn 0.290281702 -0.956941238 -0.000000163
vn 0.290284816 -0.956940294 0.000000041
vn 0.290284816 0.956940294 0.000000000
vn 0.382682744 -0.923879818 0.000000000
vn 0.382683162 -0.923879645 0.000000000
vn 0.382683543 0.923879487 0.000000000
vn 0.382683543 0.923879487 0.000000000
vn 0.382684305 -0.923879171 0.000006262
vn 0.382684674 0.923879018 0.000000000
vn 0.471396866 -0.881921195 -0.000000121
vn 0.471396866 0.881921195 0.000000000
vn 0.471397338 -0.881920943 -0.000000087
vn 0.499997264 0.866026983 0.000000000
vn 0.499997264 -0.866026983 0.000000000
vn 0.499997264 0.866026983 0.000000000
vn 0.499997264 -0.866026983 0.000000000
vn 0.499997264 0.866026983 0.000000000
vn 0.499997264 -0.866026983 0.000000000
vn 0.499997264 0.866026983 0.000000000
vn 0.499998028 -0.866026542 0.000000000
vn 0.499998028 0.866026542 0.000000000
vn 0.499998028 0.866026542 0.000000000
vn 0.499998587 0.866026219 0.000000000
vn 0.499998587 0.866026219 0.000000000
vn 0.499998792 -0.866026101 0.000001500
vn 0.499998792 -0.866026101 0.000001500
vn 0.499999556 -0.866025660 0.000002250
vn 0.499999556 -0.866025660 0.000002250
vn 0.499999556 -0.866025660 0.000002250
vn 0.499999556 -0.866025660 0.000001500
vn 0.608760907 -0.793353741 0.000000000
vn 0.608760907 -0.793353741 0.000000000
vn 0.608761507 0.793353281 0.000000000
vn 0.608761507 0.793353281 0.000000000
vn 0.608761565 0.793353236 0.000000000
vn 0.608762039 -0.793352872 0.000000000
vn 0.608762039 -0.793352872 0.000000000
vn 0.608762104 -0.793352822 0.000000000
vn 0.608762104 -0.793352822 0.000000000
vn 0.608763145 0.793352024 0.000000000
vn 0.608763145 0.793352024 0.000000000
vn 0.634392486 0.773011108 0.000000090
vn 0.634392608 -0.773011008 -0.000000110
vn 0.634393598 -0.773010196 -0.000000030
vn 0.634393598 0.773010196 0.000000000
vn 0.773009640 0.634394276 0.000000300
vn 0.773010196 -0.634393598 -0.000000090
vn 0.773011108 -0.634392486 0.000000000
vn 0.773011564 0.634391931 0.000000110
vn 0.793352024 -0.608763145 0.000000000
vn 0.793352024 -0.608763145 0.000000000
vn 0.793352822 0.608762104 0.000000000
vn 0.793352872 0.608762039 0.000000000
vn 0.793353236 -0.608761565 0.000000000
vn 0.793353281 -0.608761507 0.000000000
vn 0.793353741 0.608760907 0.000000000
vn 0.793353741 0.608760907 0.000000000
vn 0.881920943 0.471397338 0.000000288
vn 0.881921195 0.471396866 0.000000255
vn 0.881921195 -0.471396866 0.000000000
vn 0.923879018 -0.382684674 0.000000000
vn 0.923879171 0.382684305 0.000006262
vn 0.923879487 -0.382683543 0.000000000
vn 0.923879645 0.382683162 0.000000000
vn 0.923879818 0.382682744 0.000000000
vn 0.956940294 0.290284816 0.000000245
vn 0.956940294 -0.290284816 0.000000000
vn 0.956941238 0.290281702 0.000000041
vn 0.991444795 0.130526696 0.000001983
vn 0.991444821 -0.130526501 0.000000000
vn 0.991444926 0.130525702 0.000002136
vn 0.991444981 -0.130525283 0.000000000
vn 0.991444981 -0.130525283 0.000000000
vn 0.991444981 0.130525283 0.000000000
vn 0.991444990 0.130525215 0.000000000
vn 0.991445016 -0.130525019 0.000001983
vn 0.995184627 -0.098018156 -0.000000014
vn 0.995184648 0.098017935 0.000000014
vn 0.995184648 0.098017935 0.000000014
vn 0.995184648 -0.098017935 0.000000000
vn 1.000000000 -0.000005294 0.000000000
vn 1.000000000 0.000000000 0.000004500
vn 1.000000000 -0.000003529 0.000000000
vn 1.000000000 -0.000003529 0.000000000
vn 1.000000000 0.000000000 0.000003000
vn 1.000000000 0.000000000 0.000003000
vn 1.000000000 0.000000000 0.000003000
usemtl dvss_1
f 1/1/55 2/2/55 3/3/55 4/4/55
f 5/1/60 2/2/60 1/3/60
f 6/1/128 4/2/128 3/3/128
f 7/1/128 3/2/128 8/3/128
f 6/1/128 3/2/128 7/3/128
f 9/1/195 8/2/195 3/3/195
f 10/1/194 9/2/194 3/3/194 2/4/194
f 10/1/129 2/2/129 5/3/129
f 11/1/59 12/2/59 13/3/59
f 11/1/68 13/2/68 14/3/68
f 14/1/2 13/2/2 15/3/2
f 14/1/1 15/2/1 16/3/1
f 16/1/65 15/2/65 17/3/65
f 16/1/65 17/2/65 18/3/65
f 18/1/189 17/2/189 19/3/189
f 18/1/199 19/2/199 20/3/199
f 15/1/128 13/2/128 12/3/128
f 12/1/128 21/2/128 19/3/128
f 19/1/128 17/2/128 15/3/128
f 12/1/128 19/2/128 15/3/128
f 20/1/253 19/2/253 21/3/253
f 20/1/252 21/2/252 22/3/252
f 22/1/186 21/2/186 12/3/186
f 22/1/184 12/2/184 11/3/184
f 22/1/129 11/2/129 14/3/129
f 14/1/129 16/2/129 18/3/129
f 18/1/129 20/2/129 22/3/129
f 14/1/129 18/2/129 22/3/129
f 23/1/191 24/2/191 25/3/191
f 26/1/201 23/2/201 25/3/201 27/4/201
f 28/1/128 29/2/128 30/3/128 25/4/128
f 31/1/128 25/2/128 24/3/128
f 28/1/128 25/2/128 31/3/128
f 27/1/258 25/2/258 30/3/258
f 27/1/254 30/2/254 32/3/254
f 33/1/193 32/2/193 30/3/193 29/4/193
f 34/1/192 32/2/192 33/3/192
f 35/1/129 32/2/129 34/3/129
f 36/1/129 26/2/129 27/3/129 32/4/129
f 35/1/129 36/2/129 32/3/129
f 37/1/58 38/2/58 39/3/58
f 37/1/67 39/2/67 40/3/67
f 40/1/2 39/2/2 41/3/2
f 40/1/1 41/2/1 42/3/1
f 42/1/66 41/2/66 43/3/66
f 42/1/65 43/2/65 44/3/65
f 44/1/185 43/2/185 45/3/185
f 44/1/198 45/2/198 46/3/198
f 41/1/128 39/2/128 38/3/128
f 38/1/128 47/2/128 45/3/128
f 45/1/128 43/2/128 41/3/128
f 38/1/128 45/2/128 41/3/128
f 46/1/253 45/2/253 47/3/253
f 46/1/252 47/2/252 48/3/252
f 48/1/190 47/2/190 38/3/190
f 48/1/188 38/2/188 37/3/188
f 48/1/129 37/2/129 40/3/129
f 40/1/129 42/2/129 44/3/129
f 44/1/129 46/2/129 48/3/129
f 40/1/129 44/2/129 48/3/129
f 49/1/65 50/2/65 51/3/65
f 52/1/64 49/2/64 51/3/64 53/4/64
f 54/1/187 53/2/187 51/3/187 55/4/187
f 56/1/200 53/2/200 54/3/200
f 55/1/128 51/2/128 50/3/128
f 57/1/129 52/2/129 53/3/129
f 58/1/129 53/2/129 56/3/129
f 57/1/129 53/2/129 58/3/129
f 59/1/56 60/2/56 61/3/56
f 59/1/69 61/2/69 62/3/69
f 62/1/4 61/2/4 63/3/4
f 62/1/1 63/2/1 64/3/1
f 64/1/66 63/2/66 65/3/66
f 64/1/65 65/2/65 66/3/65
f 66/1/185 65/2/185 67/3/185
f 66/1/196 67/2/196 68/3/196
f 63/1/128 61/2/128 60/3/128
f 60/1/128 69/2/128 67/3/128
f 67/1/128 65/2/128 63/3/128
f 60/1/128 67/2/128 63/3/128
f 68/1/257 67/2/257 69/3/257
f 68/1/255 69/2/255 70/3/255
f 70/1/190 69/2/190 60/3/190
f 70/1/188 60/2/188 59/3/188
f 70/1/129 59/2/129 62/3/129
f 62/1/129 64/2/129 66/3/129
f 66/1/129 68/2/129 70/3/129
f 62/1/129 66/2/129 70/3/129
f 71/1/57 72/2/57 73/3/57
f 74/1/63 71/2/63 73/3/63 75/4/63
f 75/1/3 73/2/3 76/3/3
f 75/1/1 76/2/1 77/3/1
f 78/1/61 77/2/61 76/3/61 79/4/61
f 80/1/62 77/2/62 78/3/62
f 81/1/128 76/2/128 73/3/128 72/4/128
f 82/1/128 79/2/128 76/3/128
f 81/1/128 82/2/128 76/3/128
f 83/1/129 74/2/129 75/3/129
f 84/1/129 75/2/129 77/3/129 80/4/129
f 83/1/129 75/2/129 84/3/129
f 85/1/57 86/2/57 87/3/57
f 85/1/70 87/2/70 88/3/70
f 88/1/5 87/2/5 89/3/5
f 88/1/1 89/2/1 90/3/1
f 90/1/65 89/2/65 91/3/65
f 90/1/65 91/2/65 92/3/65
f 92/1/189 91/2/189 93/3/189
f 92/1/197 93/2/197 94/3/197
f 89/1/128 87/2/128 86/3/128
f 86/1/128 95/2/128 93/3/128
f 93/1/128 91/2/128 89/3/128
f 86/1/128 93/2/128 89/3/128
f 94/1/256 93/2/256 95/3/256
f 94/1/255 95/2/255 96/3/255
f 96/1/186 95/2/186 86/3/186
f 96/1/184 86/2/184 85/3/184
f 96/1/129 85/2/129 88/3/129
f 88/1/129 90/2/129 92/3/129
f 92/1/129 94/2/129 96/3/129
f 88/1/129 92/2/129 96/3/129
f 97/1/88 98/2/88 99/3/88
f 97/1/91 99/2/91 100/3/91
f 100/1/79 99/2/79 101/3/79
f 100/1/76 101/2/76 102/3/76
f 102/1/48 101/2/48 103/3/48
f 102/1/48 103/2/48 104/3/48
f 104/1/38 103/2/38 105/3/38
f 104/1/38 105/2/38 106/3/38
f 106/1/22 105/2/22 107/3/22
f 106/1/22 107/2/22 108/3/22
f 108/1/11 107/2/11 109/3/11
f 108/1/10 109/2/10 110/3/10
f 110/1/13 109/2/13 111/3/13
f 110/1/12 111/2/12 112/3/12
f 112/1/21 111/2/21 113/3/21
f 112/1/23 113/2/23 114/3/23
f 114/1/37 113/2/37 115/3/37
f 114/1/36 115/2/36 116/3/36
f 116/1/47 115/2/47 117/3/47
f 116/1/47 117/2/47 118/3/47
f 118/1/78 117/2/78 119/3/78
f 118/1/77 119/2/77 120/3/77
f 120/1/89 119/2/89 121/3/89
f 120/1/90 121/2/90 122/3/90
f 122/1/165 121/2/165 123/3/165
f 122/1/167 123/2/167 124/3/167
f 124/1/179 123/2/179 125/3/179
f 124/1/176 125/2/176 126/3/176
f 126/1/209 125/2/209 127/3/209
f 126/1/210 127/2/210 128/3/210
f 128/1/221 127/2/221 129/3/221
f 128/1/222 129/2/222 130/3/222
f 130/1/234 129/2/234 131/3/234
f 130/1/234 131/2/234 132/3/234
f 132/1/243 131/2/243 133/3/243
f 132/1/244 133/2/244 134/3/244
f 134/1/245 133/2/245 135/3/245
f 134/1/242 135/2/242 136/3/242
f 136/1/233 135/2/233 137/3/233
f 136/1/235 137/2/235 138/3/235
f 138/1/223 137/2/223 139/3/223
f 138/1/223 139/2/223 140/3/223
f 140/1/211 139/2/211 141/3/211
f 140/1/212 141/2/212 142/3/212
f 101/1/128 99/2/128 98/3/128
f 98/1/111 143/2/111 141/3/111
f 141/1/128 139/2/128 137/3/128
f 137/1/128 135/2/128 133/3/128
f 133/1/100 131/2/100 129/3/100
f 129/1/128 127/2/128 125/3/128
f 125/1/128 123/2/128 121/3/128
f 121/1/110 119/2/110 117/3/110
f 117/1/128 115/2/128 113/3/128
f 113/1/128 111/2/128 109/3/128
f 109/1/101 107/2/101 105/3/101
f 105/1/128 103/2/128 101/3/128
f 101/1/147 98/2/147 141/3/147
f 141/1/128 137/2/128 133/3/128
f 133/1/106 129/2/106 125/3/106
f 125/1/146 121/2/146 117/3/146
f 117/1/128 113/2/128 109/3/128
f 109/1/105 105/2/105 101/3/105
f 101/1/145 141/2/145 133/3/145
f 133/1/144 125/2/144 117/3/144
f 117/1/142 109/2/142 101/3/142
f 133/1/143 117/2/143 101/3/143
f 142/1/177 141/2/177 143/3/177
f 142/1/178 143/2/178 144/3/178
f 144/1/166 143/2/166 98/3/166
f 144/1/166 98/2/166 97/3/166
f 144/1/109 97/2/109 100/3/109
f 100/1/129 102/2/129 104/3/129
f 104/1/129 106/2/129 108/3/129
f 108/1/129 110/2/129 112/3/129
f 112/1/129 114/2/129 116/3/129
f 116/1/129 118/2/129 120/3/129
f 120/1/129 122/2/129 124/3/129
f 124/1/154 126/2/154 128/3/154
f 128/1/129 130/2/129 132/3/129
f 132/1/129 134/2/129 136/3/129
f 136/1/129 138/2/129 140/3/129
f 140/1/129 142/2/129 144/3/129
f 144/1/108 100/2/108 104/3/108
f 104/1/129 108/2/129 112/3/129
f 112/1/129 116/2/129 120/3/129
f 120/1/124 124/2/124 128/3/124
f 128/1/129 132/2/129 136/3/129
f 136/1/129 140/2/129 144/3/129
f 144/1/115 104/2/115 112/3/115
f 112/1/116 120/2/116 128/3/116
f 128/1/129 136/2/129 144/3/129
f 112/1/118 128/2/118 144/3/118
usemtl dvss_3
f 145/1/86 146/2/86 147/3/86
f 148/1/92 145/2/92 147/3/92 149/4/92
f 149/1/80 147/2/80 150/3/80
f 149/1/80 150/2/80 151/3/80
f 151/1/50 150/2/50 152/3/50
f 151/1/49 152/2/49 153/3/49
f 153/1/34 152/2/34 154/3/34
f 153/1/34 154/2/34 155/3/34
f 155/1/24 154/2/24 156/3/24
f 155/1/25 156/2/25 157/3/25
f 158/1/14 157/2/14 156/3/14 159/4/14
f 160/1/14 157/2/14 158/3/14
f 161/1/15 162/2/15 163/3/15
f 164/1/15 161/2/15 163/3/15 165/4/15
f 165/1/20 163/2/20 166/3/20
f 165/1/20 166/2/20 167/3/20
f 167/1/35 166/2/35 168/3/35
f 167/1/35 168/2/35 169/3/35
f 169/1/51 168/2/51 170/3/51
f 169/1/51 170/2/51 171/3/51
f 171/1/75 170/2/75 172/3/75
f 171/1/75 172/2/75 173/3/75
f 174/1/87 173/2/87 172/3/87 175/4/87
f 176/1/87 173/2/87 174/3/87
f 177/1/169 178/2/169 179/3/169
f 180/1/168 177/2/168 179/3/168 181/4/168
f 181/1/175 179/2/175 182/3/175
f 181/1/175 182/2/175 183/3/175
f 183/1/208 182/2/208 184/3/208
f 183/1/207 184/2/207 185/3/207
f 185/1/225 184/2/225 186/3/225
f 185/1/225 186/2/225 187/3/225
f 187/1/232 186/2/232 188/3/232
f 187/1/232 188/2/232 189/3/232
f 190/1/241 189/2/241 188/3/241 191/4/241
f 192/1/247 189/2/247 190/3/247
f 193/1/240 194/2/240 195/3/240
f 196/1/246 193/2/246 195/3/246 197/4/246
f 197/1/236 195/2/236 198/3/236
f 197/1/236 198/2/236 199/3/236
f 199/1/224 198/2/224 200/3/224
f 199/1/224 200/2/224 201/3/224
f 201/1/206 200/2/206 202/3/206
f 201/1/206 202/2/206 203/3/206
f 204/1/128 150/2/128 147/3/128 146/4/128
f 205/1/128 206/2/128 207/3/128 202/4/128
f 202/1/128 200/2/128 198/3/128
f 208/1/128 198/2/128 195/3/128 194/4/128
f 209/1/128 191/2/128 188/3/128 186/4/128
f 186/1/128 184/2/128 182/3/128
f 210/1/152 182/2/152 179/3/152 178/4/152
f 211/1/128 175/2/128 172/3/128 170/4/128
f 170/1/128 168/2/128 166/3/128
f 212/1/128 166/2/128 163/3/128 162/4/128
f 213/1/155 159/2/155 156/3/155 154/4/155
f 154/1/128 152/2/128 150/3/128
f 150/1/128 204/2/128 205/3/128 202/4/128
f 214/1/128 202/2/128 198/3/128 208/4/128
f 215/1/128 209/2/128 186/3/128 182/4/128
f 182/1/141 210/2/141 211/3/141 170/4/141
f 216/1/128 170/2/128 166/3/128 212/4/128
f 217/1/112 213/2/112 154/3/112 150/4/112
f 218/1/128 150/2/128 202/3/128 214/4/128
f 219/1/139 215/2/139 182/3/139 170/4/139
f 170/1/140 216/2/140 217/3/140 150/4/140
f 218/1/134 219/2/134 170/3/134 150/4/134
f 203/1/180 202/2/180 207/3/180
f 203/1/180 207/2/180 220/3/180
f 221/1/170 220/2/170 207/3/170 206/4/170
f 222/1/164 220/2/164 221/3/164
f 220/1/129 222/2/129 148/3/129 149/4/129
f 149/1/150 151/2/150 153/3/150
f 153/1/129 155/2/129 157/3/129
f 157/1/129 160/2/129 164/3/129 165/4/129
f 165/1/129 167/2/129 169/3/129
f 169/1/129 171/2/129 173/3/129
f 173/1/129 176/2/129 180/3/129 181/4/129
f 181/1/151 183/2/151 185/3/151
f 185/1/129 187/2/129 189/3/129
f 189/1/129 192/2/129 196/3/129 197/4/129
f 197/1/129 199/2/129 201/3/129
f 201/1/129 203/2/129 220/3/129
f 220/1/126 149/2/126 153/3/126
f 153/1/129 157/2/129 165/3/129
f 165/1/129 169/2/129 173/3/129
f 173/1/125 181/2/125 185/3/125
f 185/1/129 189/2/129 197/3/129
f 197/1/129 201/2/129 220/3/129
f 220/1/117 153/2/117 165/3/117
f 165/1/119 173/2/119 185/3/119
f 185/1/129 197/2/129 220/3/129
f 165/1/121 185/2/121 220/3/121
usemtl dvss_4
f 223/1/94 224/2/94 225/3/94 226/4/94
f 223/1/96 226/2/96 227/3/96
f 228/1/84 227/2/84 226/3/84 229/4/84
f 228/1/83 229/2/83 230/3/83
f 231/1/71 230/2/71 229/3/71 232/4/71
f 231/1/74 232/2/74 233/3/74
f 234/1/45 233/2/45 232/3/45 235/4/45
f 234/1/43 235/2/43 236/3/43
f 237/1/40 236/2/40 235/3/40 238/4/40
f 237/1/41 238/2/41 239/3/41
f 240/1/27 239/2/27 238/3/27 241/4/27
f 240/1/26 241/2/26 242/3/26
f 243/1/18 242/2/18 241/3/18 244/4/18
f 243/1/17 244/2/17 245/3/17
f 246/1/9 245/2/9 244/3/9 247/4/9
f 246/1/8 247/2/8 248/3/8
f 249/1/6 248/2/6 247/3/6 250/4/6
f 249/1/7 250/2/7 251/3/7
f 252/1/19 251/2/19 250/3/19 253/4/19
f 252/1/16 253/2/16 254/3/16
f 255/1/29 254/2/29 253/3/29 256/4/29
f 255/1/28 256/2/28 257/3/28
f 258/1/39 257/2/39 256/3/39 259/4/39
f 258/1/42 259/2/42 260/3/42
f 261/1/44 260/2/44 259/3/44 262/4/44
f 261/1/46 262/2/46 263/3/46
f 264/1/72 263/2/72 262/3/72 265/4/72
f 264/1/73 265/2/73 266/3/73
f 267/1/82 266/2/82 265/3/82 268/4/82
f 267/1/81 268/2/81 269/3/81
f 270/1/95 269/2/95 268/3/95 271/4/95
f 270/1/93 271/2/93 272/3/93
f 273/1/160 272/2/160 271/3/160 274/4/160
f 273/1/161 274/2/161 275/3/161
f 276/1/173 275/2/173 274/3/173 277/4/173
f 276/1/172 277/2/172 278/3/172
f 279/1/181 278/2/181 277/3/181 280/4/181
f 279/1/183 280/2/183 281/3/183
f 282/1/215 281/2/215 280/3/215 283/4/215
f 282/1/214 283/2/214 284/3/214
f 285/1/218 284/2/218 283/3/218 286/4/218
f 285/1/219 286/2/219 287/3/219
f 288/1/231 287/2/231 286/3/231 289/4/231
f 288/1/231 289/2/231 290/3/231
f 291/1/238 290/2/238 289/3/238 292/4/238
f 291/1/238 292/2/238 293/3/238
f 294/1/251 293/2/251 292/3/251 295/4/251
f 294/1/248 295/2/248 296/3/248
f 297/1/249 296/2/249 295/3/249 298/4/249
f 297/1/250 298/2/250 299/3/250
f 300/1/239 299/2/239 298/3/239 301/4/239
f 300/1/237 301/2/237 302/3/237
f 303/1/230 302/2/230 301/3/230 304/4/230
f 303/1/229 304/2/229 305/3/229
f 306/1/217 305/2/217 304/3/217 307/4/217
f 306/1/220 307/2/220 308/3/220
f 309/1/213 308/2/213 307/3/213 310/4/213
f 309/1/216 310/2/216 311/3/216
f 312/1/182 311/2/182 310/3/182 313/4/182
f 312/1/182 313/2/182 314/3/182
f 229/1/128 226/2/128 225/3/128
f 225/1/128 315/2/128 313/3/128
f 313/1/128 310/2/128 307/3/128
f 307/1/128 304/2/128 301/3/128
f 301/1/128 298/2/128 295/3/128
f 295/1/128 292/2/128 289/3/128
f 289/1/157 286/2/157 283/3/157
f 283/1/128 280/2/128 277/3/128
f 277/1/128 274/2/128 271/3/128
f 271/1/128 268/2/128 265/3/128
f 265/1/128 262/2/128 259/3/128
f 259/1/128 256/2/128 253/3/128
f 253/1/128 250/2/128 247/3/128
f 247/1/128 244/2/128 241/3/128
f 241/1/128 238/2/128 235/3/128
f 235/1/156 232/2/156 229/3/156
f 229/1/128 225/2/128 313/3/128
f 313/1/128 307/2/128 301/3/128
f 301/1/128 295/2/128 289/3/128
f 289/1/104 283/2/104 277/3/104
f 277/1/128 271/2/128 265/3/128
f 265/1/128 259/2/128 253/3/128
f 253/1/128 247/2/128 241/3/128
f 241/1/153 235/2/153 229/3/153
f 229/1/128 313/2/128 301/3/128
f 301/1/149 289/2/149 277/3/149
f 277/1/128 265/2/128 253/3/128
f 253/1/148 241/2/148 229/3/148
f 229/1/133 301/2/133 277/3/133
f 277/1/132 253/2/132 229/3/132
f 316/1/174 314/2/174 313/3/174 315/4/174
f 316/1/174 315/2/174 317/3/174
f 318/1/163 317/2/163 315/3/163 225/4/163
f 318/1/162 225/2/162 224/3/162
f 319/1/85 320/2/85 321/3/85
f 322/1/85 321/2/85 320/3/85
f 322/1/85 320/2/85 323/3/85
f 322/1/85 323/2/85 324/3/85
f 325/1/97 324/2/97 323/3/97
f 324/1/97 325/2/97 326/3/97 327/4/97
f 328/1/159 327/2/159 326/3/159
f 327/1/159 328/2/159 329/3/159 330/4/159
f 331/1/171 332/2/171 330/3/171 329/4/171
f 333/1/171 330/2/171 332/3/171
f 334/1/123 322/2/123 324/3/123
f 324/1/123 327/2/123 330/3/123
f 335/1/123 330/2/123 333/3/123
f 336/1/123 334/2/123 324/3/123
f 337/1/123 324/2/123 330/3/123 335/4/123
f 336/1/123 324/2/123 337/3/123
f 338/1/99 339/2/99 340/3/99
f 338/1/98 340/2/98 341/3/98
f 341/1/158 340/2/158 342/3/158
f 343/1/130 342/2/130 340/3/130
f 344/1/130 340/2/130 339/3/130
f 343/1/130 340/2/130 344/3/130
usemtl dvss_5
f 345/1/54 346/2/54 347/3/54
f 348/1/53 345/2/53 347/3/53 349/4/53
f 350/1/33 349/2/33 347/3/33 351/4/33
f 352/1/32 349/2/32 350/3/32
f 353/1/31 354/2/31 355/3/31
f 356/1/30 353/2/30 355/3/30 357/4/30
f 358/1/52 357/2/52 355/3/52 359/4/52
f 360/1/52 357/2/52 358/3/52
f 361/1/203 362/2/203 363/3/203
f 364/1/202 361/2/202 363/3/202 365/4/202
f 366/1/226 365/2/226 363/3/226 367/4/226
f 368/1/226 365/2/226 366/3/226
f 369/1/227 370/2/227 371/3/227
f 372/1/228 369/2/228 371/3/228 373/4/228
f 374/1/204 373/2/204 371/3/204 375/4/204
f 376/1/205 373/2/205 374/3/205
f 377/1/128 378/2/128 375/3/128
f 377/1/128 375/2/128 371/3/128
f 377/1/128 371/2/128 370/3/128
f 379/1/128 380/2/128 367/3/128
f 379/1/128 367/2/128 363/3/128
f 379/1/128 363/2/128 362/3/128
f 381/1/128 382/2/128 359/3/128
f 381/1/128 359/2/128 355/3/128
f 381/1/128 355/2/128 354/3/128
f 383/1/128 384/2/128 351/3/128
f 383/1/128 351/2/128 347/3/128
f 383/1/128 347/2/128 346/3/128
f 385/1/128 386/2/128 378/3/128 377/4/128
f 387/1/114 388/2/114 380/3/114 379/4/114
f 389/1/128 390/2/128 382/3/128 381/4/128
f 391/1/113 392/2/113 384/3/113 383/4/113
f 393/1/137 394/2/137 386/3/137 385/4/137
f 395/1/138 396/2/138 388/3/138 387/4/138
f 397/1/135 398/2/135 390/3/135
f 397/1/135 390/2/135 389/3/135
f 397/1/135 389/2/135 392/3/135
f 397/1/135 392/2/135 391/3/135
f 394/1/136 393/2/136 396/3/136
f 394/1/136 396/2/136 395/3/136
f 394/1/136 395/2/136 398/3/136
f 394/1/136 398/2/136 397/3/136
f 399/1/129 348/2/129 349/3/129
f 400/1/102 349/2/102 352/3/102
f 401/1/129 356/2/129 357/3/129
f 402/1/129 357/2/129 360/3/129
f 403/1/103 364/2/103 365/3/103
f 404/1/129 365/2/129 368/3/129
f 405/1/129 372/2/129 373/3/129
f 406/1/129 373/2/129 376/3/129
f 407/1/129 399/2/129 349/3/129
f 408/1/107 349/2/107 400/3/107
f 409/1/129 410/2/129 401/3/129
f 409/1/129 401/2/129 357/3/129
f 409/1/129 357/2/129 402/3/129
f 411/1/127 403/2/127 365/3/127
f 412/1/129 365/2/129 404/3/129
f 413/1/129 414/2/129 405/3/129
f 413/1/129 405/2/129 373/3/129
f 413/1/129 373/2/129 406/3/129
f 415/1/131 416/2/131 407/3/131
f 415/1/131 407/2/131 349/3/131
f 415/1/131 349/2/131 408/3/131
f 417/1/120 410/2/120 409/3/120
f 417/1/120 409/2/120 411/3/120
f 417/1/120 411/2/120 365/3/120
f 418/1/129 365/2/129 412/3/129
f 418/1/129 412/2/129 414/3/129
f 418/1/129 414/2/129 413/3/129
f 416/1/122 415/2/122 417/3/122
f 416/1/122 417/2/122 365/3/122
f 416/1/122 365/2/122 418/3/122
