# Generated by tools-import-turbines.py; estimated STEP scale.
mtllib materials.mtl
s off
v 0.032765416 1.000000000 0.230049559
v 0.000000000 0.645433838 0.168749707
v 0.000000000 1.000000000 0.168749707
v 0.000000000 0.633333400 0.168749707
v 0.054327700 1.000000000 0.270389800
v 0.054327700 0.633333400 0.270389800
v 0.075193179 1.000000000 0.339174044
v 0.088471200 1.000000000 0.382945800
v 0.088471200 0.633333400 0.382945800
v 0.095516519 1.000000000 0.454478945
v 0.099999900 1.000000000 0.500000000
v 0.099999900 0.633333400 0.500000000
v 0.092954581 1.000000000 0.571533145
v 0.088471200 1.000000000 0.617054200
v 0.088471200 0.633333400 0.617054200
v 0.067605721 1.000000000 0.685838322
v 0.054327700 1.000000000 0.729610000
v 0.054327700 0.633333400 0.729610000
v 0.020444084 1.000000000 0.793001859
v 0.000000000 1.000000000 0.831250093
v 0.000000000 0.633333400 0.831250093
v 0.000000000 0.633333400 0.169357276
v 0.000000000 0.633333400 0.830642527
v 0.000000000 0.633333400 0.250539320
v 0.000000000 0.633333400 0.827720529
v 0.000000000 0.633333400 0.323831234
v 0.000000000 0.633333400 0.515352308
v 0.969633745 0.000000000 0.010150484
v 0.965429273 0.000000000 0.000000000
v 0.965429273 0.050000000 0.000000000
v 0.974137500 0.050000000 0.021023500
v 0.974137500 0.000000000 0.021023500
v 1.000000000 0.000000000 0.128748798
v 1.000000000 0.050000000 0.128748798
v 0.976884905 0.000000000 0.967532501
v 1.000000000 0.000000000 0.871251759
v 1.000000000 0.050000000 0.871251759
v 0.974137500 0.050000000 0.978976200
v 0.974137500 0.000000000 0.978976200
v 0.965429160 0.000000000 1.000000000
v 0.965429160 0.050000000 1.000000000
v 0.963425356 0.050000000 1.000000000
v 1.000000000 0.050000000 0.815687428
v 1.000000000 0.050000000 0.184312238
v 0.963425487 0.050000000 0.000000000
v 1.000000000 0.050000000 0.653884633
v 0.887540330 0.050000000 1.000000000
v 0.887540185 0.050000000 0.000000000
v 1.000000000 0.050000000 0.346115227
v 0.753976213 0.050000000 0.000000000
v 0.753976487 0.050000000 1.000000000
v 0.455318238 0.050000000 0.000000000
v 0.000000000 0.050000000 0.626691971
v 0.000000000 0.050000000 1.000000000
v 0.000000000 0.050000000 0.000000000
v 0.624472421 0.686000462 0.000000000
v 0.624472421 0.716666500 0.000000000
v 0.639451300 0.716666500 0.028023500
v 0.624472421 0.483332900 0.000000000
v 0.639451300 0.483332900 0.028023500
v 0.709635000 0.716666500 0.259388400
v 0.709635000 0.483332900 0.259388400
v 0.733333300 0.716666500 0.499999800
v 0.733333300 0.483332900 0.499999800
v 0.709635300 0.716666500 0.740611300
v 0.709635300 0.483332900 0.740611300
v 0.639451500 0.716666500 0.971976000
v 0.639451500 0.483332900 0.971976000
v 0.624472341 0.513999456 1.000000000
v 0.624472341 0.716666500 1.000000000
v 0.624472341 0.483332900 1.000000000
v 0.620726462 0.716666500 1.000000000
v 0.620726592 0.716666500 0.000000000
v 0.611427513 0.716666500 1.000000000
v 0.611427787 0.716666500 0.000000000
v 0.571795617 0.716666500 1.000000000
v 0.236845632 0.716666500 0.000000000
v 0.000000000 0.716666500 0.000000000
v 0.000000000 0.716666500 1.000000000
v 0.602192838 0.483332900 0.000000000
v 0.602192839 0.483332900 1.000000000
v 0.536317167 0.483332900 0.000000000
v 0.562318268 0.483332900 1.000000000
v 0.321432706 0.483332900 0.000000000
v 0.214774353 0.483332900 1.000000000
v 0.000000000 0.483332900 1.000000000
v 0.000000000 0.483332900 0.000000000
v 0.316398091 0.894951666 1.000000000
v 0.288393300 0.700000000 0.967668100
v 0.266373475 0.700000000 1.000000000
v 0.342898321 0.998226306 1.000000000
v 0.304685442 0.700000000 1.000000000
v 0.342898349 0.700000000 1.000000000
v 0.342898276 0.911243417 1.000000000
v 0.266373588 0.700000000 0.000000000
v 0.288393300 0.700000000 0.032331700
v 0.342897984 0.998224461 0.000000000
v 0.342898057 0.700000000 0.000000000
v 0.342897992 0.911242318 0.000000000
v 0.774587373 0.199139617 0.000000000
v 0.677681181 0.283333300 0.000000000
v 0.720522400 0.283333300 0.103428100
v 0.965429273 0.033333300 0.000000000
v 0.974137500 0.033333300 0.021023500
v 0.767533300 0.283333300 0.299242300
v 1.000000000 0.033333300 0.128748798
v 1.000000000 0.062679018 0.262423132
v 1.000000000 0.064551770 0.287804994
v 0.783333300 0.283333300 0.499999800
v 1.000000000 0.080208446 0.499999800
v 1.000000000 0.077586481 0.535536432
v 0.767533500 0.283333300 0.700757300
v 1.000000000 0.062679459 0.737576306
v 1.000000000 0.058234829 0.757822253
v 0.720522600 0.283333300 0.896571600
v 1.000000000 0.033333300 0.871251759
v 0.974137500 0.033333300 0.978976200
v 0.907061057 0.084044430 1.000000000
v 0.677681169 0.283333300 1.000000000
v 0.965429160 0.033333300 1.000000000
v 0.667823185 0.283333300 1.000000000
v 0.667823210 0.283333300 0.000000000
v 0.620873423 0.283333300 1.000000000
v 0.620873553 0.283333300 0.000000000
v 0.538238500 0.283333300 0.000000000
v 0.538238500 0.283333300 1.000000000
v 0.353460911 0.283333300 0.000000000
v 0.000000000 0.283333300 0.486497335
v 0.000000000 0.283333300 1.000000000
v 0.000000000 0.283333300 0.000000000
v 1.000000000 0.033333300 0.162374562
v 0.947241317 0.033333300 0.000000000
v 0.947241487 0.033333300 1.000000000
v 1.000000000 0.033333300 0.837626286
v 1.000000000 0.033333300 0.547270233
v 0.913320621 0.033333300 0.000000000
v 0.899700667 0.033333300 1.000000000
v 1.000000000 0.033333300 0.803151511
v 1.000000000 0.033333300 0.681794731
v 0.652607932 0.033333300 0.000000000
v 0.773390300 0.033333300 1.000000000
v 1.000000000 0.033333300 0.773390300
v 1.000000000 0.033333300 0.726720008
v 0.000000000 0.033333300 0.217194831
v 0.000000000 0.033333300 0.000000000
v 0.000000000 0.033333300 1.000000000
v 1.000000000 0.282553943 0.016686254
v 0.994938280 0.271318265 0.000000000
v 0.994938280 0.399999900 0.000000000
v 1.000000000 0.399999900 0.016686254
v 1.000000000 0.200000000 0.016686254
v 0.994938280 0.200000000 0.000000000
v 0.994938276 0.328681928 1.000000000
v 1.000000000 0.317446218 0.983313692
v 1.000000000 0.399999900 0.983313692
v 0.994938276 0.399999900 1.000000000
v 0.994938276 0.200000000 1.000000000
v 1.000000000 0.200000000 0.983313692
v 1.000000000 0.399999900 0.918944426
v 0.983877095 0.399999900 1.000000000
v 0.983877010 0.399999900 0.000000000
v 1.000000000 0.399999900 0.081055870
v 0.962809117 0.399999900 0.000000000
v 0.962809283 0.399999900 1.000000000
v 0.504724070 0.399999900 0.000000000
v 0.918937735 0.399999900 1.000000000
v 0.000000000 0.399999900 0.000000000
v 0.000000000 0.399999900 1.000000000
v 1.000000000 0.200000000 0.063371060
v 0.973750835 0.200000000 0.000000000
v 0.973750776 0.200000000 1.000000000
v 1.000000000 0.200000000 0.936628678
v 1.000000000 0.200000000 0.111921555
v 0.925216393 0.200000000 0.000000000
v 0.892011228 0.200000000 1.000000000
v 1.000000000 0.200000000 0.457103143
v 1.000000000 0.200000000 0.155753545
v 0.766898279 0.200000000 0.000000000
v 0.512424900 0.200000000 1.000000000
v 1.000000000 0.200000000 0.270292084
v 0.000000000 0.200000000 1.000000000
v 0.000000000 0.200000000 0.000000000
v 0.899999900 0.408333500 0.586666600
v 0.899999900 0.533333100 0.586666600
v 0.824944300 0.533333100 0.543333300
v 0.824944300 0.408333500 0.543333300
v 0.824944300 0.533333100 0.456666700
v 0.824944300 0.408333500 0.456666700
v 0.899999900 0.533333100 0.413333400
v 0.899999900 0.408333500 0.413333400
v 0.975055500 0.533333100 0.456666700
v 0.975055500 0.408333500 0.456666700
v 0.975055500 0.533333100 0.543333300
v 0.975055500 0.408333500 0.543333300
v 0.718375900 0.522405194 1.000000000
v 0.718375900 0.533333100 1.000000000
v 0.718375900 0.533333100 0.992423300
v 0.718375900 0.408333500 1.000000000
v 0.718375900 0.408333500 0.992423300
v 0.793431500 0.533333100 0.949090000
v 0.793431500 0.408333500 0.949090000
v 0.868487100 0.533333100 0.992423300
v 0.868487100 0.408333500 0.992423300
v 0.722750317 0.533333100 1.000000000
v 0.864112683 0.533333100 1.000000000
v 0.868487100 0.533333100 1.000000000
v 0.868487100 0.419261406 1.000000000
v 0.868487100 0.408333500 1.000000000
v 0.764038550 0.408333500 1.000000000
v 0.822824450 0.408333500 1.000000000
v 0.793431500 0.408333500 0.050909800
v 0.793431500 0.533333100 0.050909800
v 0.718375900 0.533333100 0.007576500
v 0.718375900 0.408333500 0.007576500
v 0.718375900 0.419261118 0.000000000
v 0.718375900 0.533333100 0.000000000
v 0.718375900 0.408333500 0.000000000
v 0.764038665 0.533333100 0.000000000
v 0.822824335 0.533333100 0.000000000
v 0.868487100 0.533333100 0.007576500
v 0.868487100 0.533333100 0.000000000
v 0.868487100 0.522405482 0.000000000
v 0.868487100 0.408333500 0.000000000
v 0.868487100 0.408333500 0.007576500
v 0.722750198 0.408333500 0.000000000
v 0.864112802 0.408333500 0.000000000
v 0.566666800 0.724999900 0.586666600
v 0.566666800 0.849999900 0.586666600
v 0.491611200 0.849999900 0.543333300
v 0.491611200 0.724999900 0.543333300
v 0.491611200 0.849999900 0.456666700
v 0.491611200 0.724999900 0.456666700
v 0.566666800 0.849999900 0.413333400
v 0.566666800 0.724999900 0.413333400
v 0.641722400 0.849999900 0.456666700
v 0.641722400 0.724999900 0.456666700
v 0.641722400 0.849999900 0.543333300
v 0.641722400 0.724999900 0.543333300
v 0.348704600 0.835576812 1.000000000
v 0.348704600 0.849999900 1.000000000
v 0.348704600 0.849999900 0.990000000
v 0.348704600 0.724999900 1.000000000
v 0.348704600 0.724999900 0.990000000
v 0.423760200 0.849999900 0.946666700
v 0.423760200 0.724999900 0.946666700
v 0.498815800 0.849999900 0.990000000
v 0.498815800 0.724999900 0.990000000
v 0.354478112 0.849999900 1.000000000
v 0.493042288 0.849999900 1.000000000
v 0.498815800 0.849999900 1.000000000
v 0.498815800 0.739422988 1.000000000
v 0.498815800 0.724999900 1.000000000
v 0.392968155 0.724999900 1.000000000
v 0.454552245 0.724999900 1.000000000
v 0.423760200 0.724999900 0.053333300
v 0.423760200 0.849999900 0.053333300
v 0.348704600 0.849999900 0.010000000
v 0.348704600 0.724999900 0.010000000
v 0.348704600 0.739422971 0.000000000
v 0.348704600 0.849999900 0.000000000
v 0.348704600 0.724999900 0.000000000
v 0.392968178 0.849999900 0.000000000
v 0.454552222 0.849999900 0.000000000
v 0.498815800 0.849999900 0.010000000
v 0.498815800 0.849999900 0.000000000
v 0.498815800 0.835576829 0.000000000
v 0.498815800 0.724999900 0.000000000
v 0.498815800 0.724999900 0.010000000
v 0.354478103 0.724999900 0.000000000
v 0.493042297 0.724999900 0.000000000
v 0.398575310 1.000000000 0.534173078
v 0.416666500 0.416666700 0.541666700
v 0.416666500 1.000000000 0.541666700
v 0.387203700 1.000000000 0.529462800
v 0.387203700 0.416666700 0.529462800
v 0.379710078 1.000000000 0.511371610
v 0.374999800 1.000000000 0.500000000
v 0.374999800 0.416666700 0.500000000
v 0.382493422 1.000000000 0.481908810
v 0.387203700 1.000000000 0.470537200
v 0.387203700 0.416666700 0.470537200
v 0.405294890 1.000000000 0.463043578
v 0.416666500 1.000000000 0.458333300
v 0.416666500 0.416666700 0.458333300
v 0.434757690 1.000000000 0.465826922
v 0.446129300 1.000000000 0.470537200
v 0.446129300 0.416666700 0.470537200
v 0.453622983 1.000000000 0.488628390
v 0.458333300 1.000000000 0.500000000
v 0.458333300 0.416666700 0.500000000
v 0.450839617 1.000000000 0.518091190
v 0.446129300 1.000000000 0.529462800
v 0.446129300 0.416666700 0.529462800
v 0.428038110 1.000000000 0.536956422
v 0.416666500 0.666666700 0.591666700
v 0.416666500 0.866666600 0.591666700
v 0.337280800 0.866666600 0.545833300
v 0.337280800 0.666666700 0.545833300
v 0.337280800 0.866666600 0.454166700
v 0.337280800 0.666666700 0.454166700
v 0.416666500 0.866666600 0.408333300
v 0.416666500 0.666666700 0.408333300
v 0.496052300 0.866666600 0.454166700
v 0.496052300 0.666666700 0.454166700
v 0.496052300 0.866666600 0.545833300
v 0.496052300 0.666666700 0.545833300
vt 0 0
vt 1 0
vt 1 1
vt 0 1
vn -1.000000000 0.000000000 0.000000000
vn -0.923879437 0.000000000 -0.382683664
vn -0.923879437 0.000000000 0.382683664
vn -0.808537679 0.207470437 -0.550656735
vn -0.808536513 0.207470546 -0.550658405
vn -0.808536267 0.207470405 0.550658820
vn -0.500000366 0.000000000 -0.866025192
vn -0.500000366 0.000000000 0.866025192
vn -0.499999387 0.000000000 -0.866025758
vn -0.499999387 0.000000000 0.866025758
vn -0.499999387 0.000000000 -0.866025758
vn -0.499999387 0.000000000 0.866025758
vn -0.499999387 0.000000000 0.866025758
vn -0.499999387 0.000000000 -0.866025758
vn -0.499999387 0.000000000 -0.866025758
vn -0.382683664 0.000000000 -0.923879437
vn -0.382683664 0.000000000 0.923879437
vn 0.000000000 -1.000000000 0.000000000
vn 0.000000000 1.000000000 0.000000000
vn 0.000000000 -1.000000000 0.000000000
vn 0.382683664 0.000000000 -0.923879437
vn 0.382683664 0.000000000 0.923879437
vn 0.499999387 0.000000000 -0.866025758
vn 0.499999387 0.000000000 -0.866025758
vn 0.499999387 0.000000000 0.866025758
vn 0.499999387 0.000000000 -0.866025758
vn 0.499999387 0.000000000 0.866025758
vn 0.499999387 0.000000000 -0.866025758
vn 0.499999387 0.000000000 0.866025758
vn 0.499999894 0.000000000 -0.866025465
vn 0.499999894 0.000000000 0.866025465
vn 0.510182882 0.000000157 0.860065944
vn 0.510183199 0.000000175 -0.860065755
vn 0.510183199 0.000000046 0.860065755
vn 0.510184467 -0.000000267 -0.860065003
vn 0.632916726 0.728482681 -0.262162930
vn 0.632917064 0.728482456 0.262162740
vn 0.632917064 0.728482455 0.262162743
vn 0.632917361 0.728482346 -0.262162326
vn 0.666135706 0.728482776 0.159925190
vn 0.666135779 0.728482687 -0.159925289
vn 0.666135854 0.728482463 0.159925997
vn 0.666136157 0.728482450 -0.159924796
vn 0.682952096 0.728482873 -0.053750706
vn 0.682952160 0.728482941 0.053748963
vn 0.682952291 0.728482791 0.053749335
vn 0.682952650 0.728482429 -0.053749682
vn 0.881921023 0.000000000 0.471397189
vn 0.881921183 0.000000000 -0.471396890
vn 0.881921486 0.000000000 0.471396323
vn 0.881921486 0.000000000 -0.471396323
vn 0.923878328 0.000000000 0.382686341
vn 0.923878328 0.000000000 -0.382686341
vn 0.923879410 0.000000000 -0.382683729
vn 0.923879580 0.000000000 0.382683318
vn 0.956940167 0.000000000 0.290285233
vn 0.956940237 0.000000000 0.290285001
vn 0.956940311 0.000000000 -0.290284760
vn 0.956940327 0.000000000 -0.290284706
vn 0.956940422 0.000000000 -0.290284393
vn 0.956940533 0.000000000 0.290284026
vn 0.972369613 0.000000000 0.233446644
vn 0.972370035 0.000000000 -0.233444887
vn 0.995184668 0.000000000 -0.098017737
vn 0.995184793 0.000000000 0.098016467
vn 0.995184836 0.000000000 -0.098016025
vn 0.995184836 0.000000000 0.098016025
vn 1.000000000 0.000000000 0.000000000
usemtl dvss_1
f 1/1/51 2/2/51 3/3/51
f 4/1/51 2/2/51 1/3/51
f 4/1/51 1/2/51 5/3/51
f 4/1/51 5/2/51 6/3/51
f 7/1/58 6/2/58 5/3/58
f 6/1/58 7/2/58 8/3/58 9/4/58
f 10/1/66 9/2/66 8/3/66
f 9/1/66 10/2/66 11/3/66 12/4/66
f 13/1/67 12/2/67 11/3/67
f 12/1/67 13/2/67 14/3/67 15/4/67
f 16/1/56 15/2/56 14/3/56
f 15/1/56 16/2/56 17/3/56 18/4/56
f 19/1/50 18/2/50 17/3/50
f 20/1/50 21/2/50 18/3/50 19/4/50
f 22/1/18 4/2/18 6/3/18 9/4/18
f 9/1/18 12/2/18 15/3/18
f 23/1/18 15/2/18 18/3/18 21/4/18
f 24/1/18 22/2/18 9/3/18
f 25/1/18 9/2/18 15/3/18 23/4/18
f 26/1/18 24/2/18 9/3/18
f 27/1/18 9/2/18 25/3/18
f 26/1/18 9/2/18 27/3/18
usemtl dvss_4
f 28/1/54 29/2/54 30/3/54 31/4/54
f 28/1/54 31/2/54 32/3/54
f 33/1/63 32/2/63 31/3/63 34/4/63
f 35/1/62 36/2/62 37/3/62 38/4/62
f 35/1/62 38/2/62 39/3/62
f 40/1/55 39/2/55 38/3/55 41/4/55
f 42/1/19 41/2/19 38/3/19
f 43/1/19 38/2/19 37/3/19
f 44/1/19 34/2/19 31/3/19
f 45/1/19 31/2/19 30/3/19
f 46/1/19 47/2/19 42/3/19
f 46/1/19 42/2/19 38/3/19
f 46/1/19 38/2/19 43/3/19
f 48/1/19 49/2/19 44/3/19
f 48/1/19 44/2/19 31/3/19
f 48/1/19 31/2/19 45/3/19
f 50/1/19 51/2/19 47/3/19
f 50/1/19 47/2/19 46/3/19
f 50/1/19 46/2/19 49/3/19
f 50/1/19 49/2/19 48/3/19
f 52/1/19 53/2/19 54/3/19
f 52/1/19 54/2/19 51/3/19
f 52/1/19 51/2/19 50/3/19
f 55/1/19 53/2/19 52/3/19
f 56/1/49 57/2/49 58/3/49
f 59/1/49 56/2/49 58/3/49 60/4/49
f 60/1/60 58/2/60 61/3/60
f 60/1/60 61/2/60 62/3/60
f 62/1/64 61/2/64 63/3/64
f 62/1/64 63/2/64 64/3/64
f 64/1/65 63/2/65 65/3/65
f 64/1/65 65/2/65 66/3/65
f 66/1/57 65/2/57 67/3/57
f 66/1/57 67/2/57 68/3/57
f 69/1/48 68/2/48 67/3/48 70/4/48
f 71/1/48 68/2/48 69/3/48
f 72/1/19 70/2/19 67/3/19
f 67/1/19 65/2/19 63/3/19
f 63/1/19 61/2/19 58/3/19
f 73/1/19 58/2/19 57/3/19
f 74/1/19 72/2/19 67/3/19
f 67/1/19 63/2/19 58/3/19
f 75/1/19 58/2/19 73/3/19
f 76/1/19 74/2/19 67/3/19
f 77/1/19 67/2/19 58/3/19 75/4/19
f 78/1/19 79/2/19 76/3/19
f 78/1/19 76/2/19 67/3/19
f 78/1/19 67/2/19 77/3/19
f 80/1/18 59/2/18 60/3/18 62/4/18
f 62/1/18 64/2/18 66/3/18
f 81/1/18 66/2/18 68/3/18 71/4/18
f 82/1/18 80/2/18 62/3/18
f 83/1/18 62/2/18 66/3/18 81/4/18
f 84/1/18 82/2/18 62/3/18
f 85/1/18 62/2/18 83/3/18
f 86/1/18 87/2/18 84/3/18
f 86/1/18 84/2/18 62/3/18
f 86/1/18 62/2/18 85/3/18
f 88/1/5 89/2/5 90/3/5
f 91/1/4 89/2/4 88/3/4
f 92/1/18 89/2/18 93/3/18
f 90/1/18 89/2/18 92/3/18
f 94/1/35 89/2/35 91/3/35
f 93/1/33 89/2/33 94/3/33
f 95/1/6 96/2/6 97/3/6
f 95/1/18 98/2/18 96/3/18
f 99/1/32 96/2/32 98/3/32
f 97/1/34 96/2/34 99/3/34
f 100/1/39 101/2/39 102/3/39
f 103/1/36 100/2/36 102/3/36 104/4/36
f 104/1/41 102/2/41 105/3/41
f 106/1/43 104/2/43 105/3/43 107/4/43
f 108/1/47 107/2/47 105/3/47 109/4/47
f 108/1/44 109/2/44 110/3/44
f 111/1/45 110/2/45 109/3/45 112/4/45
f 111/1/46 112/2/46 113/3/46
f 114/1/40 113/2/40 112/3/40 115/4/40
f 116/1/42 114/2/42 115/3/42 117/4/42
f 118/1/38 117/2/38 115/3/38 119/4/38
f 120/1/37 117/2/37 118/3/37
f 121/1/19 119/2/19 115/3/19
f 115/1/19 112/2/19 109/3/19
f 109/1/19 105/2/19 102/3/19
f 122/1/19 102/2/19 101/3/19
f 123/1/19 121/2/19 115/3/19 109/4/19
f 124/1/19 109/2/19 102/3/19 122/4/19
f 125/1/19 126/2/19 123/3/19
f 125/1/19 123/2/19 109/3/19
f 125/1/19 109/2/19 124/3/19
f 127/1/19 128/2/19 129/3/19
f 127/1/19 129/2/19 126/3/19
f 127/1/19 126/2/19 125/3/19
f 130/1/19 128/2/19 127/3/19
f 131/1/18 132/2/18 103/3/18
f 131/1/18 103/2/18 104/3/18
f 131/1/18 104/2/18 106/3/18
f 133/1/18 134/2/18 116/3/18
f 133/1/18 116/2/18 117/3/18
f 133/1/18 117/2/18 120/3/18
f 135/1/18 136/2/18 132/3/18 131/4/18
f 137/1/18 138/2/18 134/3/18 133/4/18
f 139/1/18 140/2/18 136/3/18 135/4/18
f 141/1/18 142/2/18 138/3/18 137/4/18
f 143/1/20 144/2/20 145/3/20
f 143/1/20 145/2/20 140/3/20
f 143/1/20 140/2/20 139/3/20
f 146/1/18 144/2/18 143/3/18
f 146/1/18 143/2/18 142/3/18
f 146/1/18 142/2/18 141/3/18
usemtl dvss_5
f 147/1/59 148/2/59 149/3/59 150/4/59
f 151/1/59 152/2/59 148/3/59 147/4/59
f 153/1/61 154/2/61 155/3/61 156/4/61
f 157/1/61 158/2/61 154/3/61 153/4/61
f 159/1/19 160/2/19 156/3/19 155/4/19
f 161/1/19 162/2/19 150/3/19 149/4/19
f 163/1/19 164/2/19 160/3/19
f 163/1/19 160/2/19 159/3/19
f 163/1/19 159/2/19 162/3/19
f 163/1/19 162/2/19 161/3/19
f 165/1/19 166/2/19 164/3/19 163/4/19
f 167/1/19 168/2/19 166/3/19 165/4/19
f 169/1/18 170/2/18 152/3/18 151/4/18
f 171/1/18 172/2/18 158/3/18 157/4/18
f 173/1/18 174/2/18 170/3/18 169/4/18
f 175/1/18 176/2/18 172/3/18 171/4/18
f 177/1/18 178/2/18 174/3/18 173/4/18
f 179/1/18 180/2/18 176/3/18 175/4/18
f 181/1/18 182/2/18 178/3/18
f 181/1/18 178/2/18 177/3/18
f 181/1/18 177/2/18 180/3/18
f 181/1/18 180/2/18 179/3/18
f 183/1/13 184/2/13 185/3/13
f 183/1/13 185/2/13 186/3/13
f 186/1/1 185/2/1 187/3/1
f 186/1/1 187/2/1 188/3/1
f 188/1/15 187/2/15 189/3/15
f 188/1/15 189/2/15 190/3/15
f 190/1/23 189/2/23 191/3/23
f 190/1/23 191/2/23 192/3/23
f 187/1/19 185/2/19 184/3/19
f 184/1/19 193/2/19 191/3/19
f 191/1/19 189/2/19 187/3/19
f 184/1/19 191/2/19 187/3/19
f 192/1/68 191/2/68 193/3/68
f 192/1/68 193/2/68 194/3/68
f 194/1/25 193/2/25 184/3/25
f 194/1/25 184/2/25 183/3/25
f 194/1/18 183/2/18 186/3/18
f 186/1/18 188/2/18 190/3/18
f 190/1/18 192/2/18 194/3/18
f 186/1/18 190/2/18 194/3/18
f 195/1/1 196/2/1 197/3/1
f 198/1/1 195/2/1 197/3/1 199/4/1
f 199/1/9 197/2/9 200/3/9
f 199/1/9 200/2/9 201/3/9
f 201/1/28 200/2/28 202/3/28
f 201/1/28 202/2/28 203/3/28
f 204/1/19 197/2/19 196/3/19
f 205/1/19 206/2/19 202/3/19
f 202/1/19 200/2/19 197/3/19
f 204/1/19 205/2/19 202/3/19 197/4/19
f 207/1/68 203/2/68 202/3/68 206/4/68
f 208/1/68 203/2/68 207/3/68
f 209/1/18 198/2/18 199/3/18 201/4/18
f 210/1/18 201/2/18 203/3/18 208/4/18
f 209/1/18 201/2/18 210/3/18
f 211/1/10 212/2/10 213/3/10
f 211/1/10 213/2/10 214/3/10
f 215/1/1 214/2/1 213/3/1 216/4/1
f 217/1/1 214/2/1 215/3/1
f 218/1/19 216/2/19 213/3/19 212/4/19
f 219/1/19 212/2/19 220/3/19 221/4/19
f 218/1/19 212/2/19 219/3/19
f 222/1/68 221/2/68 220/3/68
f 223/1/68 222/2/68 220/3/68 224/4/68
f 224/1/29 220/2/29 212/3/29
f 224/1/29 212/2/29 211/3/29
f 224/1/18 211/2/18 214/3/18
f 225/1/18 214/2/18 217/3/18
f 226/1/18 223/2/18 224/3/18
f 214/1/18 225/2/18 226/3/18 224/4/18
f 227/1/12 228/2/12 229/3/12
f 227/1/12 229/2/12 230/3/12
f 230/1/1 229/2/1 231/3/1
f 230/1/1 231/2/1 232/3/1
f 232/1/11 231/2/11 233/3/11
f 232/1/11 233/2/11 234/3/11
f 234/1/26 233/2/26 235/3/26
f 234/1/26 235/2/26 236/3/26
f 231/1/19 229/2/19 228/3/19
f 228/1/19 237/2/19 235/3/19
f 235/1/19 233/2/19 231/3/19
f 228/1/19 235/2/19 231/3/19
f 236/1/68 235/2/68 237/3/68
f 236/1/68 237/2/68 238/3/68
f 238/1/27 237/2/27 228/3/27
f 238/1/27 228/2/27 227/3/27
f 238/1/18 227/2/18 230/3/18
f 230/1/18 232/2/18 234/3/18
f 234/1/18 236/2/18 238/3/18
f 230/1/18 234/2/18 238/3/18
f 239/1/1 240/2/1 241/3/1
f 242/1/1 239/2/1 241/3/1 243/4/1
f 243/1/14 241/2/14 244/3/14
f 243/1/14 244/2/14 245/3/14
f 245/1/24 244/2/24 246/3/24
f 245/1/24 246/2/24 247/3/24
f 248/1/19 241/2/19 240/3/19
f 249/1/19 250/2/19 246/3/19
f 246/1/19 244/2/19 241/3/19
f 248/1/19 249/2/19 246/3/19 241/4/19
f 251/1/68 247/2/68 246/3/68 250/4/68
f 252/1/68 247/2/68 251/3/68
f 253/1/18 242/2/18 243/3/18 245/4/18
f 254/1/18 245/2/18 247/3/18 252/4/18
f 253/1/18 245/2/18 254/3/18
f 255/1/12 256/2/12 257/3/12
f 255/1/12 257/2/12 258/3/12
f 259/1/1 258/2/1 257/3/1 260/4/1
f 261/1/1 258/2/1 259/3/1
f 262/1/19 260/2/19 257/3/19 256/4/19
f 263/1/19 256/2/19 264/3/19 265/4/19
f 262/1/19 256/2/19 263/3/19
f 266/1/68 265/2/68 264/3/68
f 267/1/68 266/2/68 264/3/68 268/4/68
f 268/1/27 264/2/27 256/3/27
f 268/1/27 256/2/27 255/3/27
f 268/1/18 255/2/18 258/3/18
f 269/1/18 258/2/18 261/3/18
f 270/1/18 267/2/18 268/3/18
f 258/1/18 269/2/18 270/3/18 268/4/18
f 271/1/17 272/2/17 273/3/17
f 272/1/17 271/2/17 274/3/17 275/4/17
f 276/1/3 275/2/3 274/3/3
f 275/1/3 276/2/3 277/3/3 278/4/3
f 279/1/2 278/2/2 277/3/2
f 278/1/2 279/2/2 280/3/2 281/4/2
f 282/1/16 281/2/16 280/3/16
f 281/1/16 282/2/16 283/3/16 284/4/16
f 285/1/21 284/2/21 283/3/21
f 284/1/21 285/2/21 286/3/21 287/4/21
f 288/1/53 287/2/53 286/3/53
f 287/1/53 288/2/53 289/3/53 290/4/53
f 291/1/52 290/2/52 289/3/52
f 290/1/52 291/2/52 292/3/52 293/4/52
f 294/1/22 293/2/22 292/3/22
f 293/1/22 294/2/22 273/3/22 272/4/22
f 293/1/18 272/2/18 275/3/18
f 275/1/18 278/2/18 281/3/18
f 281/1/18 284/2/18 287/3/18
f 287/1/18 290/2/18 293/3/18
f 293/1/18 275/2/18 281/3/18
f 281/1/18 287/2/18 293/3/18
usemtl dvss_6
f 295/1/8 296/2/8 297/3/8
f 295/1/8 297/2/8 298/3/8
f 298/1/1 297/2/1 299/3/1
f 298/1/1 299/2/1 300/3/1
f 300/1/7 299/2/7 301/3/7
f 300/1/7 301/2/7 302/3/7
f 302/1/30 301/2/30 303/3/30
f 302/1/30 303/2/30 304/3/30
f 299/1/19 297/2/19 296/3/19
f 296/1/19 305/2/19 303/3/19
f 303/1/19 301/2/19 299/3/19
f 296/1/19 303/2/19 299/3/19
f 304/1/68 303/2/68 305/3/68
f 304/1/68 305/2/68 306/3/68
f 306/1/31 305/2/31 296/3/31
f 306/1/31 296/2/31 295/3/31
f 306/1/18 295/2/18 298/3/18
f 298/1/18 300/2/18 302/3/18
f 302/1/18 304/2/18 306/3/18
f 298/1/18 302/2/18 306/3/18
