# Generated by tools-import-turbines.py; estimated STEP scale.
mtllib materials.mtl
s off
v 0.933333200 0.056547607 0.000000000
v 0.933333200 0.000000000 0.833333000
v 0.933333200 0.316666700 0.833333000
v 0.933333200 0.316666700 0.000000000
v 0.933333200 0.000000000 0.000000000
v 1.000000000 0.271428484 0.833333000
v 1.000000000 0.316666700 0.833333000
v 1.000000000 0.000000000 0.833333000
v 1.000000000 0.000000000 0.000000000
v 1.000000000 0.316666700 0.166664671
v 1.000000000 0.316666700 0.000000000
v 0.994181868 1.000000000 0.192541050
v 1.000000000 0.983188688 0.198396967
v 1.000000000 1.000000000 0.195538315
v 0.907172299 1.000000000 0.147717163
v 1.000000000 0.672202202 0.251278039
v 0.894494738 1.000000000 0.114689562
v 1.000000000 0.658051064 0.245308705
v 0.860528876 1.000000000 0.026201859
v 1.000000000 0.507492625 0.181799367
v 0.872141488 1.000000000 0.000000000
v 0.879474863 0.982671819 0.000000000
v 1.000000000 0.512817943 0.176714277
v 0.987395174 0.727664530 0.000000000
v 1.000000000 0.683153739 0.014062260
v 1.000000000 0.717788749 0.000000000
v 0.733333100 0.474999840 0.000000000
v 0.733333100 0.150000000 0.599999900
v 0.733333100 0.583333300 0.599999900
v 0.733333100 0.583333300 0.000000000
v 0.733333100 0.150000000 0.000000000
v 1.000000000 0.449999881 0.599999900
v 1.000000000 0.583333300 0.599999900
v 1.000000000 0.150000000 0.599999900
v 1.000000000 0.150000000 0.000000000
v 1.000000000 0.150000000 0.046153785
v 0.950000071 0.150000000 0.000000000
v 1.000000000 0.583333300 0.353845815
v 1.000000000 0.583333300 0.000000000
vt 0 0
vt 1 0
vt 1 1
vt 0 1
vn -1.000000000 0.000000000 0.000000000
vn -0.923098569 -0.149465592 0.354329041
vn -0.923098334 -0.149465228 0.354329806
vn -0.852639758 -0.360841246 -0.377887601
vn -0.852639472 -0.360841370 -0.377888126
vn -0.452818540 0.149465319 0.878985488
vn -0.452817705 0.149465734 0.878985848
vn -0.282716281 -0.360841303 -0.888743528
vn 0.000000000 -1.000000000 0.000000000
vn 0.000000000 0.000000000 1.000000000
vn 0.000000000 1.000000000 0.000000000
usemtl dvss_1
f 1/1/1 2/2/1 3/3/1 4/4/1
f 5/1/1 2/2/1 1/3/1
f 6/1/10 7/2/10 3/3/10
f 8/1/10 6/2/10 3/3/10 2/4/10
f 5/1/9 9/2/9 8/3/9 2/4/9
f 10/1/11 11/2/11 4/3/11 3/4/11
f 10/1/11 3/2/11 7/3/11
usemtl dvss_4
f 12/1/7 13/2/7 14/3/7
f 13/1/6 12/2/6 15/3/6 16/4/6
f 17/1/2 18/2/2 16/3/2 15/4/2
f 18/1/3 17/2/3 19/3/3 20/4/3
f 21/1/5 22/2/5 23/3/5
f 21/1/5 23/2/5 20/3/5
f 21/1/5 20/2/5 19/3/5
f 23/1/4 22/2/4 24/3/4 25/4/4
f 26/1/8 25/2/8 24/3/8
f 27/1/1 28/2/1 29/3/1 30/4/1
f 31/1/1 28/2/1 27/3/1
f 32/1/10 33/2/10 29/3/10
f 34/1/10 32/2/10 29/3/10 28/4/10
f 35/1/9 36/2/9 37/3/9
f 31/1/9 37/2/9 36/3/9
f 31/1/9 36/2/9 34/3/9
f 31/1/9 34/2/9 28/3/9
f 38/1/11 39/2/11 30/3/11 29/4/11
f 38/1/11 29/2/11 33/3/11
