# Generated by tools-import-turbines.py; estimated STEP scale.
mtllib materials.mtl
s off
v 0.779166500 1.000000000 0.503964385
v 0.779166500 0.258332700 0.529166700
v 0.779166500 1.000000000 0.529166700
v 0.779166500 1.000000000 0.470833300
v 0.779166500 0.258332700 0.470833300
v 0.840372110 1.000000000 0.470833300
v 0.920833300 1.000000000 0.470833300
v 0.920833300 0.258332700 0.470833300
v 0.920833300 1.000000000 0.496035615
v 0.920833300 1.000000000 0.529166700
v 0.920833300 0.258332700 0.529166700
v 0.859627690 1.000000000 0.529166700
v 0.734553785 1.000000000 0.834901949
v 0.728030900 0.258332700 0.859245500
v 0.728030900 1.000000000 0.859245500
v 0.743128800 1.000000000 0.802899800
v 0.743128800 0.258332700 0.802899800
v 0.802248871 1.000000000 0.818741036
v 0.879968400 1.000000000 0.839566000
v 0.879968400 0.258332700 0.839566000
v 0.873445515 1.000000000 0.863909551
v 0.864870500 1.000000000 0.895911700
v 0.864870500 0.258332700 0.895911700
v 0.805750429 1.000000000 0.880070464
v 0.736605915 1.000000000 0.172756649
v 0.743128800 0.258332700 0.197100200
v 0.743128800 1.000000000 0.197100200
v 0.728030900 1.000000000 0.140754500
v 0.728030900 0.258332700 0.140754500
v 0.787150971 1.000000000 0.124913264
v 0.864870500 1.000000000 0.104088300
v 0.864870500 0.258332700 0.104088300
v 0.871393385 1.000000000 0.128431851
v 0.879968400 1.000000000 0.160434000
v 0.879968400 0.258332700 0.160434000
v 0.820848329 1.000000000 0.176275236
v 0.807946812 0.000000000 0.069232794
v 0.786945287 0.000000000 0.000000000
v 0.786945287 0.258333200 0.000000000
v 0.856752900 0.258333200 0.230125000
v 0.856752900 0.000000000 0.230125000
v 0.866853436 0.000000000 0.332677644
v 0.883333200 0.258333200 0.499999800
v 0.883333200 0.000000000 0.499999800
v 0.873232664 0.000000000 0.602552520
v 0.856752900 0.258333200 0.769874800
v 0.856752900 0.000000000 0.769874800
v 0.786945145 0.211162333 1.000000000
v 0.826839388 0.000000000 0.868486380
v 0.786945145 0.258333200 1.000000000
v 0.786945145 0.000000000 1.000000000
v 0.783877024 0.258333200 1.000000000
v 0.783877123 0.258333200 0.000000000
v 0.778033300 0.258333200 0.000000000
v 0.778033300 0.258333200 1.000000000
v 0.351650567 0.258333200 0.000000000
v 0.765864361 0.258333200 1.000000000
v 0.000000000 0.258333200 0.000000000
v 0.000000000 0.258333200 1.000000000
v 0.695665458 0.150000100 0.000000000
v 0.695665458 1.000000000 0.000000000
v 0.736373400 1.000000000 0.098277800
v 0.736373400 0.150000100 0.098277800
v 0.756955485 1.000000000 0.184008399
v 0.783994700 1.000000000 0.296634900
v 0.783994700 0.150000100 0.296634900
v 0.790912244 1.000000000 0.384529887
v 0.800000000 1.000000000 0.499999800
v 0.800000000 0.150000100 0.499999800
v 0.793082542 1.000000000 0.587894744
v 0.783994900 1.000000000 0.703364600
v 0.783994900 0.150000100 0.703364600
v 0.763412729 1.000000000 0.789095329
v 0.736373400 1.000000000 0.901722000
v 0.736373400 0.150000100 0.901722000
v 0.702633490 1.000000000 0.983177417
v 0.695665354 0.150000100 1.000000000
v 0.695665354 1.000000000 1.000000000
v 0.687612266 0.150000100 0.000000000
v 0.687612200 0.150000100 1.000000000
v 0.672592850 0.150000100 0.000000000
v 0.632851582 0.150000100 1.000000000
v 0.425612607 0.150000100 0.000000000
v 0.487359582 0.150000100 1.000000000
v 0.000000000 0.150000100 0.303899403
v 0.000000000 0.150000100 0.000000000
v 0.000000000 0.150000100 1.000000000
v 0.650000100 1.000000000 1.000000000
v 0.650000100 1.000000000 0.182471167
v 0.650000100 0.270512929 1.000000000
v 0.650000100 0.233333600 0.000000000
v 0.650000100 0.233333600 1.000000000
v 0.650000100 1.000000000 0.000000000
v 1.000000000 0.233333600 0.000000000
v 1.000000000 0.233333600 0.432291377
v 0.680769296 0.233333600 0.000000000
v 1.000000000 0.233333600 1.000000000
v 1.000000000 0.160947407 0.337622661
v 1.000000000 0.233333100 0.337622661
v 0.961611700 0.233333100 0.321721800
v 1.000000000 0.066666100 0.337622661
v 0.961611700 0.066666100 0.321721800
v 0.925000200 0.233333100 0.233333300
v 0.925000200 0.066666100 0.233333300
v 0.961611700 0.233333100 0.144944900
v 0.961611700 0.066666100 0.144944900
v 1.000000000 0.139051793 0.129043996
v 1.000000000 0.233333100 0.129043996
v 1.000000000 0.066666100 0.129043996
v 1.000000000 0.233333100 0.308333100
v 1.000000000 0.233333100 0.158333500
v 1.000000000 0.233333100 0.233333300
v 1.000000000 0.066666100 0.321721800
v 1.000000000 0.066666100 0.144944900
v 1.000000000 0.066666100 0.183333200
v 1.000000000 0.160947407 0.870956004
v 1.000000000 0.233333100 0.870956004
v 0.961611700 0.233333100 0.855055100
v 1.000000000 0.066666100 0.870956004
v 0.961611700 0.066666100 0.855055100
v 0.925000200 0.233333100 0.766666700
v 0.925000200 0.066666100 0.766666700
v 0.961611700 0.233333100 0.678278200
v 0.961611700 0.066666100 0.678278200
v 1.000000000 0.139051793 0.662377339
v 1.000000000 0.233333100 0.662377339
v 1.000000000 0.066666100 0.662377339
v 1.000000000 0.233333100 0.841666500
v 1.000000000 0.233333100 0.691666900
v 1.000000000 0.233333100 0.766666700
v 1.000000000 0.066666100 0.855055100
v 1.000000000 0.066666100 0.678278200
v 1.000000000 0.066666100 0.716666500
vt 0 0
vt 1 0
vt 1 1
vt 0 1
vn -1.000000000 0.000000000 0.000000000
vn -0.965925333 0.000000000 -0.258820887
vn -0.965925333 0.000000000 0.258820887
vn -0.923880329 0.000000000 -0.382681510
vn -0.923880329 0.000000000 0.382681510
vn -0.923880176 0.000000000 -0.382681880
vn -0.923880176 0.000000000 0.382681880
vn -0.382682402 0.000000000 -0.923879959
vn -0.382682402 0.000000000 0.923879959
vn -0.382681510 0.000000000 -0.923880329
vn -0.382681510 0.000000000 0.923880329
vn -0.258819965 0.000000000 0.965925580
vn -0.258819965 0.000000000 -0.965925580
vn 0.000000000 -1.000000000 0.000000000
vn 0.000000000 0.000000000 -1.000000000
vn 0.000000000 0.000000000 1.000000000
vn 0.000000000 1.000000000 0.000000000
vn 0.258819965 0.000000000 0.965925580
vn 0.258819965 0.000000000 -0.965925580
vn 0.923879647 0.000000000 0.382683156
vn 0.923879719 0.000000000 -0.382682982
vn 0.956940291 0.000000000 0.290284824
vn 0.956940384 0.000000000 -0.290284517
vn 0.965925333 0.000000000 0.258820887
vn 0.965925333 0.000000000 -0.258820887
vn 0.972369807 0.000000000 0.233445835
vn 0.972369950 0.000000000 -0.233445241
vn 0.995184744 0.000000000 -0.098016966
vn 0.995184751 0.000000000 0.098016894
vn 0.996917282 0.000000000 -0.078459755
vn 0.996917356 0.000000000 0.078458819
vn 1.000000000 0.000000000 0.000000000
usemtl dvss_2
f 1/1/1 2/2/1 3/3/1
f 2/1/1 1/2/1 4/3/1 5/4/1
f 6/1/15 5/2/15 4/3/15
f 5/1/15 6/2/15 7/3/15 8/4/15
f 9/1/32 8/2/32 7/3/32
f 8/1/32 9/2/32 10/3/32 11/4/32
f 12/1/16 11/2/16 10/3/16
f 11/1/16 12/2/16 3/3/16 2/4/16
f 5/1/14 8/2/14 11/3/14
f 5/1/14 11/2/14 2/3/14
f 13/1/2 14/2/2 15/3/2
f 14/1/2 13/2/2 16/3/2 17/4/2
f 18/1/19 17/2/19 16/3/19
f 17/1/19 18/2/19 19/3/19 20/4/19
f 21/1/24 20/2/24 19/3/24
f 20/1/24 21/2/24 22/3/24 23/4/24
f 24/1/12 23/2/12 22/3/12
f 23/1/12 24/2/12 15/3/12 14/4/12
f 17/1/14 20/2/14 23/3/14
f 17/1/14 23/2/14 14/3/14
f 25/1/3 26/2/3 27/3/3
f 26/1/3 25/2/3 28/3/3 29/4/3
f 30/1/13 29/2/13 28/3/13
f 29/1/13 30/2/13 31/3/13 32/4/13
f 33/1/25 32/2/25 31/3/25
f 32/1/25 33/2/25 34/3/25 35/4/25
f 36/1/18 35/2/18 34/3/18
f 35/1/18 36/2/18 27/3/18 26/4/18
f 29/1/14 32/2/14 35/3/14
f 29/1/14 35/2/14 26/3/14
f 37/1/23 38/2/23 39/3/23 40/4/23
f 37/1/23 40/2/23 41/3/23
f 42/1/28 41/2/28 40/3/28 43/4/28
f 42/1/28 43/2/28 44/3/28
f 45/1/29 44/2/29 43/3/29 46/4/29
f 45/1/29 46/2/29 47/3/29
f 48/1/22 49/2/22 47/3/22
f 48/1/22 47/2/22 46/3/22
f 48/1/22 46/2/22 50/3/22
f 51/1/22 49/2/22 48/3/22
f 52/1/17 50/2/17 46/3/17 43/4/17
f 53/1/17 43/2/17 40/3/17 39/4/17
f 54/1/17 55/2/17 52/3/17
f 54/1/17 52/2/17 43/3/17
f 54/1/17 43/2/17 53/3/17
f 56/1/17 57/2/17 55/3/17 54/4/17
f 58/1/17 59/2/17 57/3/17 56/4/17
f 60/1/21 61/2/21 62/3/21 63/4/21
f 64/1/27 63/2/27 62/3/27
f 63/1/27 64/2/27 65/3/27 66/4/27
f 67/1/30 66/2/30 65/3/30
f 66/1/30 67/2/30 68/3/30 69/4/30
f 70/1/31 69/2/31 68/3/31
f 69/1/31 70/2/31 71/3/31 72/4/31
f 73/1/26 72/2/26 71/3/26
f 72/1/26 73/2/26 74/3/26 75/4/26
f 76/1/20 75/2/20 74/3/20
f 77/1/20 75/2/20 76/3/20 78/4/20
f 79/1/14 60/2/14 63/3/14 66/4/14
f 66/1/14 69/2/14 72/3/14
f 80/1/14 72/2/14 75/3/14 77/4/14
f 81/1/14 79/2/14 66/3/14 72/4/14
f 82/1/14 72/2/14 80/3/14
f 83/1/14 81/2/14 72/3/14
f 84/1/14 72/2/14 82/3/14
f 85/1/14 86/2/14 83/3/14 72/4/14
f 87/1/14 85/2/14 72/3/14 84/4/14
f 88/1/1 89/2/1 90/3/1
f 91/1/1 92/2/1 90/3/1
f 91/1/1 90/2/1 89/3/1
f 91/1/1 89/2/1 93/3/1
f 94/1/14 95/2/14 96/3/14
f 92/1/14 91/2/14 96/3/14
f 92/1/14 96/2/14 95/3/14
f 92/1/14 95/2/14 97/3/14
usemtl dvss_6
f 98/1/11 99/2/11 100/3/11
f 101/1/11 98/2/11 100/3/11 102/4/11
f 102/1/5 100/2/5 103/3/5
f 102/1/5 103/2/5 104/3/5
f 104/1/6 103/2/6 105/3/6
f 104/1/6 105/2/6 106/3/6
f 107/1/8 106/2/8 105/3/8 108/4/8
f 109/1/8 106/2/8 107/3/8
f 110/1/17 103/2/17 100/3/17 99/4/17
f 111/1/17 108/2/17 105/3/17 103/4/17
f 112/1/17 103/2/17 110/3/17
f 112/1/17 111/2/17 103/3/17
f 113/1/14 101/2/14 102/3/14
f 102/1/14 104/2/14 106/3/14
f 114/1/14 106/2/14 109/3/14
f 115/1/14 113/2/14 102/3/14 106/4/14
f 115/1/14 106/2/14 114/3/14
f 116/1/9 117/2/9 118/3/9
f 119/1/9 116/2/9 118/3/9 120/4/9
f 120/1/7 118/2/7 121/3/7
f 120/1/7 121/2/7 122/3/7
f 122/1/4 121/2/4 123/3/4
f 122/1/4 123/2/4 124/3/4
f 125/1/10 124/2/10 123/3/10 126/4/10
f 127/1/10 124/2/10 125/3/10
f 128/1/17 121/2/17 118/3/17 117/4/17
f 129/1/17 126/2/17 123/3/17 121/4/17
f 130/1/17 121/2/17 128/3/17
f 130/1/17 129/2/17 121/3/17
f 131/1/14 119/2/14 120/3/14
f 120/1/14 122/2/14 124/3/14
f 132/1/14 124/2/14 127/3/14
f 133/1/14 131/2/14 120/3/14 124/4/14
f 133/1/14 124/2/14 132/3/14
