# Generated by tools-import-turbines.py; estimated STEP scale.
mtllib materials.mtl
s off
v 0.618788115 1.000000000 0.349113262
v 0.475138196 0.000000000 0.183267540
v 0.442103629 0.000000000 0.231772481
v 0.609925189 1.000000000 0.362126774
v 0.708750414 1.000000000 0.217020248
v 0.525986451 0.000000000 0.108606271
v 0.805318572 1.000000000 0.488934467
v 0.667821541 0.000000000 0.314054655
v 0.726668551 0.000000000 0.227649266
v 0.909432514 1.000000000 0.336063393
v 0.794199631 1.000000000 0.505260529
v 0.626378182 0.000000000 0.374906386
v 0.504195957 1.000000000 0.481972718
v 0.382343628 0.000000000 0.299511493
v 0.343519503 0.000000000 0.343519503
v 0.493779736 1.000000000 0.493779736
v 0.671838809 1.000000000 0.643958742
v 0.557217718 0.000000000 0.453301028
v 0.658771164 1.000000000 0.658771164
v 0.508511006 0.000000000 0.508511006
v 0.373933792 1.000000000 0.599508968
v 0.275780491 0.000000000 0.403279504
v 0.231772481 0.000000000 0.442103629
v 0.362126774 1.000000000 0.609925189
v 0.520072951 1.000000000 0.781131986
v 0.430116364 0.000000000 0.577671470
v 0.505260529 1.000000000 0.794199631
v 0.374906386 0.000000000 0.626378182
v 0.230033759 1.000000000 0.699887488
v 0.157111212 0.000000000 0.492951884
v 0.108606271 0.000000000 0.525986451
v 0.217020248 1.000000000 0.708750414
v 0.352389455 1.000000000 0.898313572
v 0.288500996 0.000000000 0.685225193
v 0.336063393 1.000000000 0.909432514
v 0.227649266 0.000000000 0.726668551
v 0.881838749 1.000000000 0.319695022
v 0.623818989 0.000000000 0.166639839
v 0.319695022 1.000000000 0.881838749
v 0.166639839 0.000000000 0.623818989
vt 0 0
vt 1 0
vt 1 1
vt 0 1
vn -0.860065755 0.000000175 0.510183199
vn -0.860065003 -0.000000267 0.510184467
vn -0.808537679 0.207470437 -0.550656735
vn -0.808536513 0.207470546 -0.550658405
vn -0.733575873 0.207470436 -0.647164937
vn -0.733574528 0.207470544 -0.647166428
vn -0.647166440 0.207470462 -0.733574541
vn -0.647164919 0.207470570 -0.733575852
vn -0.550658422 0.207470411 -0.808536537
vn -0.550656725 0.207470521 -0.808537664
vn 0.510183199 0.000000175 -0.860065755
vn 0.510184467 -0.000000267 -0.860065003
vn 0.550657865 -0.207470498 0.808536893
vn 0.550659237 -0.207470393 0.808535986
vn 0.647166038 -0.207470379 0.733574919
vn 0.647166272 -0.207470359 0.733574718
vn 0.733574715 -0.207470375 0.647166270
vn 0.733574922 -0.207470356 0.647166041
vn 0.808535972 -0.207470478 0.550659226
vn 0.808536915 -0.207470372 0.550657881
usemtl dvss_4
f 1/1/4 2/2/4 3/3/4 4/4/4
f 5/1/3 6/2/3 2/3/3 1/4/3
f 7/1/19 8/2/19 9/3/19 10/4/19
f 8/1/20 7/2/20 11/3/20 12/4/20
f 13/1/5 14/2/5 15/3/5 16/4/5
f 4/1/6 3/2/6 14/3/6 13/4/6
f 17/1/17 18/2/17 12/3/17 11/4/17
f 18/1/18 17/2/18 19/3/18 20/4/18
f 21/1/8 22/2/8 23/3/8 24/4/8
f 16/1/7 15/2/7 22/3/7 21/4/7
f 25/1/16 26/2/16 20/3/16 19/4/16
f 26/1/15 25/2/15 27/3/15 28/4/15
f 29/1/9 30/2/9 31/3/9 32/4/9
f 24/1/10 23/2/10 30/3/10 29/4/10
f 33/1/14 34/2/14 28/3/14 27/4/14
f 34/1/13 33/2/13 35/3/13 36/4/13
f 37/1/12 38/2/12 6/3/12 5/4/12
f 38/1/11 37/2/11 10/3/11 9/4/11
f 39/1/1 40/2/1 36/3/1 35/4/1
f 32/1/2 31/2/2 40/3/2 39/4/2
