# Generated by tools-import-turbines.py; estimated STEP scale.
mtllib materials.mtl
s off
v 0.500000000 0.891666700 0.633333200
v 0.500000000 0.891666700 0.733333100
v 0.601370800 0.878320900 0.733333100
v 0.601370800 0.878320900 0.633333200
v 0.695833200 0.839193200 0.733333100
v 0.695833200 0.839193300 0.633333200
v 0.776950100 0.776950100 0.733333100
v 0.776950100 0.776950200 0.633333200
v 0.839193300 0.695833300 0.733333100
v 0.839193300 0.695833300 0.633333200
v 0.878320900 0.601370800 0.733333100
v 0.878320900 0.601370800 0.633333200
v 0.891666700 0.500000000 0.733332600
v 0.891666700 0.500000000 0.633333200
v 0.878320900 0.398629200 0.733332600
v 0.878320900 0.398629200 0.633332700
v 0.839193300 0.304166700 0.733332600
v 0.839193300 0.304166700 0.633332700
v 0.776950100 0.223049800 0.733332600
v 0.776950100 0.223049900 0.633332700
v 0.695833200 0.160806700 0.733332600
v 0.695833200 0.160806800 0.633332700
v 0.601370800 0.121679100 0.733332600
v 0.601370800 0.121679100 0.633332700
v 0.500000000 0.108333300 0.733332600
v 0.500000000 0.108333400 0.633332700
v 0.398629200 0.121679100 0.733332600
v 0.398629200 0.121679100 0.633332700
v 0.304166800 0.160806700 0.733332600
v 0.304166800 0.160806800 0.633332700
v 0.223049900 0.223049800 0.733332600
v 0.223049900 0.223049900 0.633332700
v 0.160806700 0.304166700 0.733332600
v 0.160806700 0.304166700 0.633332700
v 0.121679100 0.398629200 0.733332600
v 0.121679100 0.398629200 0.633332700
v 0.108333300 0.500000000 0.733332600
v 0.108333300 0.500000000 0.633333200
v 0.121679100 0.601370800 0.733333100
v 0.121679100 0.601370800 0.633333200
v 0.160806700 0.695833300 0.733333100
v 0.160806700 0.695833300 0.633333200
v 0.223049900 0.776950100 0.733333100
v 0.223049900 0.776950200 0.633333200
v 0.304166800 0.839193200 0.733333100
v 0.304166800 0.839193300 0.633333200
v 0.398629200 0.878320900 0.733333100
v 0.398629200 0.878320900 0.633333200
v 0.500000000 0.981666700 0.928333300
v 0.500000000 0.981666700 0.994999900
v 0.549074900 0.953333300 0.994999900
v 0.549074900 0.953333400 0.928333300
v 0.549074900 0.896666600 0.994999900
v 0.549074900 0.896666700 0.928333300
v 0.500000000 0.868333300 0.994999900
v 0.500000000 0.868333300 0.928333300
v 0.450925100 0.896666600 0.994999900
v 0.450925100 0.896666700 0.928333300
v 0.450925100 0.953333300 0.994999900
v 0.450925100 0.953333400 0.928333300
v 0.199479600 0.857187000 0.928333300
v 0.199479600 0.857187000 0.994999900
v 0.248554500 0.828853700 0.994999900
v 0.248554500 0.828853700 0.928333300
v 0.248554500 0.772187000 0.994999900
v 0.248554500 0.772187100 0.928333300
v 0.199479600 0.743853700 0.994999900
v 0.199479600 0.743853700 0.928333300
v 0.150404700 0.772187000 0.994999900
v 0.150404700 0.772187100 0.928333300
v 0.150404700 0.828853700 0.994999900
v 0.150404700 0.828853700 0.928333300
v 0.075000000 0.556666700 0.928333300
v 0.075000000 0.556666700 0.994999900
v 0.124074900 0.528333300 0.994999900
v 0.124074900 0.528333400 0.928333300
v 0.124074900 0.471666700 0.994999900
v 0.124074900 0.471666700 0.928333300
v 0.075000000 0.443333300 0.994999900
v 0.075000000 0.443333300 0.928333300
v 0.025925200 0.471666700 0.994999900
v 0.025925200 0.471666700 0.928333300
v 0.025925200 0.528333300 0.994999900
v 0.025925200 0.528333400 0.928333300
v 0.199479600 0.256146300 0.928333300
v 0.199479600 0.256146300 0.994999900
v 0.248554500 0.227813000 0.994999900
v 0.248554500 0.227813000 0.928333300
v 0.248554500 0.171146300 0.994999900
v 0.248554500 0.171146300 0.928333300
v 0.199479600 0.142813000 0.994999900
v 0.199479600 0.142813000 0.928333300
v 0.150404700 0.171146300 0.994999900
v 0.150404700 0.171146300 0.928333300
v 0.150404700 0.227813000 0.994999900
v 0.150404700 0.227813000 0.928333300
v 0.500000000 0.131666700 0.928333300
v 0.500000000 0.131666700 0.994999900
v 0.549074900 0.103333300 0.994999900
v 0.549074900 0.103333400 0.928333300
v 0.549074900 0.046666700 0.994999900
v 0.549074900 0.046666700 0.928333300
v 0.500000000 0.018333300 0.994999900
v 0.500000000 0.018333400 0.928333300
v 0.450925100 0.046666700 0.994999900
v 0.450925100 0.046666700 0.928333300
v 0.450925100 0.103333300 0.994999900
v 0.450925100 0.103333400 0.928333300
v 0.800520200 0.256146300 0.928333300
v 0.800520200 0.256146300 0.994999900
v 0.849595100 0.227813000 0.994999900
v 0.849595100 0.227813000 0.928333300
v 0.849595100 0.171146300 0.994999900
v 0.849595100 0.171146300 0.928333300
v 0.800520200 0.142813000 0.994999900
v 0.800520200 0.142813000 0.928333300
v 0.751445300 0.171146300 0.994999900
v 0.751445300 0.171146300 0.928333300
v 0.751445300 0.227813000 0.994999900
v 0.751445300 0.227813000 0.928333300
v 0.925000000 0.556666700 0.928333300
v 0.925000000 0.556666700 0.994999900
v 0.974074800 0.528333300 0.994999900
v 0.974074800 0.528333400 0.928333300
v 0.974074800 0.471666700 0.994999900
v 0.974074800 0.471666700 0.928333300
v 0.925000000 0.443333300 0.994999900
v 0.925000000 0.443333300 0.928333300
v 0.875925100 0.471666700 0.994999900
v 0.875925100 0.471666700 0.928333300
v 0.875925100 0.528333300 0.994999900
v 0.875925100 0.528333400 0.928333300
v 0.800520200 0.857187000 0.928333300
v 0.800520200 0.857187000 0.994999900
v 0.849595100 0.828853700 0.994999900
v 0.849595100 0.828853700 0.928333300
v 0.849595100 0.772187000 0.994999900
v 0.849595100 0.772187100 0.928333300
v 0.800520200 0.743853700 0.994999900
v 0.800520200 0.743853700 0.928333300
v 0.751445300 0.772187000 0.994999900
v 0.751445300 0.772187100 0.928333300
v 0.751445300 0.828853700 0.994999900
v 0.751445300 0.828853700 0.928333300
v 0.500000000 0.763333400 0.971666800
v 0.500000000 0.763333300 0.990000200
v 0.568155800 0.754360400 0.990000200
v 0.568155800 0.754360500 0.971666800
v 0.631666700 0.728053300 0.990000200
v 0.631666700 0.728053300 0.971666800
v 0.686204700 0.686204800 0.990000200
v 0.686204700 0.686204800 0.971666800
v 0.728053300 0.631666700 0.990000200
v 0.728053300 0.631666700 0.971666800
v 0.754360400 0.568155700 0.990000200
v 0.754360400 0.568155700 0.971666800
v 0.763333300 0.500000000 0.990000200
v 0.763333300 0.500000000 0.971666800
v 0.754360400 0.431844300 0.990000200
v 0.754360400 0.431844300 0.971666800
v 0.728053300 0.368333300 0.990000200
v 0.728053300 0.368333300 0.971666800
v 0.686204700 0.313795200 0.990000200
v 0.686204700 0.313795200 0.971666800
v 0.631666700 0.271946600 0.990000200
v 0.631666700 0.271946700 0.971666800
v 0.568155800 0.245639500 0.990000200
v 0.568155800 0.245639500 0.971666800
v 0.500000000 0.236666600 0.990000200
v 0.500000000 0.236666600 0.971666800
v 0.431844200 0.245639500 0.990000200
v 0.431844200 0.245639500 0.971666800
v 0.368333300 0.271946600 0.990000200
v 0.368333300 0.271946700 0.971666800
v 0.313795300 0.313795200 0.990000200
v 0.313795300 0.313795200 0.971666800
v 0.271946700 0.368333300 0.990000200
v 0.271946700 0.368333300 0.971666800
v 0.245639600 0.431844300 0.990000200
v 0.245639600 0.431844300 0.971666800
v 0.236666700 0.500000000 0.990000200
v 0.236666700 0.500000000 0.971666800
v 0.245639600 0.568155700 0.990000200
v 0.245639600 0.568155700 0.971666800
v 0.271946700 0.631666700 0.990000200
v 0.271946700 0.631666700 0.971666800
v 0.313795300 0.686204800 0.990000200
v 0.313795300 0.686204800 0.971666800
v 0.368333300 0.728053300 0.990000200
v 0.368333300 0.728053300 0.971666800
v 0.431844200 0.754360400 0.990000200
v 0.431844200 0.754360500 0.971666800
v 0.881016943 0.523517164 0.000000000
v 0.875967500 0.574784600 0.000000000
v 0.875967500 0.574784600 0.908333300
v 0.883333200 0.500000000 0.000000000
v 0.883333200 0.500000000 0.908333300
v 0.869107879 0.597398022 0.000000000
v 0.854153900 0.646695300 0.000000000
v 0.854153900 0.646695300 0.908333300
v 0.843014343 0.667535955 0.000000000
v 0.818730100 0.712968600 0.000000000
v 0.818730100 0.712968600 0.908333300
v 0.803738752 0.731235577 0.000000000
v 0.771057600 0.771057600 0.000000000
v 0.771057600 0.771057600 0.908333300
v 0.752790623 0.786048917 0.000000000
v 0.712968600 0.818730000 0.000000000
v 0.712968600 0.818730000 0.908333300
v 0.692127976 0.829869557 0.000000000
v 0.646695400 0.854153800 0.000000000
v 0.646695400 0.854153800 0.908333300
v 0.624081915 0.861013484 0.000000000
v 0.574784500 0.875967600 0.000000000
v 0.574784500 0.875967600 0.908333300
v 0.551267367 0.878283857 0.000000000
v 0.500000000 0.883333300 0.000000000
v 0.500000000 0.883333300 0.908333300
v 0.476482867 0.881017043 0.000000000
v 0.425215500 0.875967600 0.000000000
v 0.425215500 0.875967600 0.908333300
v 0.402602015 0.869107916 0.000000000
v 0.353304600 0.854153800 0.000000000
v 0.353304600 0.854153800 0.908333300
v 0.332463976 0.843014243 0.000000000
v 0.287031400 0.818730000 0.000000000
v 0.287031400 0.818730000 0.908333300
v 0.268764361 0.803738683 0.000000000
v 0.228942200 0.771057600 0.000000000
v 0.228942200 0.771057600 0.908333300
v 0.213950914 0.752790623 0.000000000
v 0.181269900 0.712968600 0.000000000
v 0.181269900 0.712968600 0.908333300
v 0.170130343 0.692127945 0.000000000
v 0.145846100 0.646695300 0.000000000
v 0.145846100 0.646695300 0.908333300
v 0.138986416 0.624081878 0.000000000
v 0.124032300 0.574784600 0.000000000
v 0.124032300 0.574784600 0.908333300
v 0.121716043 0.551267436 0.000000000
v 0.116666600 0.500000000 0.000000000
v 0.116666600 0.500000000 0.908333300
v 0.118982857 0.476482836 0.000000000
v 0.124032300 0.425215400 0.000000000
v 0.124032300 0.425215400 0.908333300
v 0.130891984 0.402601978 0.000000000
v 0.145846100 0.353304700 0.000000000
v 0.145846100 0.353304700 0.908333300
v 0.156985657 0.332464045 0.000000000
v 0.181269900 0.287031400 0.000000000
v 0.181269900 0.287031400 0.908333300
v 0.196261186 0.268764423 0.000000000
v 0.228942200 0.228942400 0.000000000
v 0.228942200 0.228942400 0.908333300
v 0.247209239 0.213951083 0.000000000
v 0.287031400 0.181270000 0.000000000
v 0.287031400 0.181270000 0.908333300
v 0.307872024 0.170130443 0.000000000
v 0.353304600 0.145846200 0.000000000
v 0.353304600 0.145846200 0.908333300
v 0.375918085 0.138986485 0.000000000
v 0.425215500 0.124032300 0.000000000
v 0.425215500 0.124032300 0.908333300
v 0.448732633 0.121716074 0.000000000
v 0.500000000 0.116666700 0.000000000
v 0.500000000 0.116666700 0.908333300
v 0.523517133 0.118982926 0.000000000
v 0.574784500 0.124032300 0.000000000
v 0.574784500 0.124032300 0.908333300
v 0.597397985 0.130892015 0.000000000
v 0.646695400 0.145846200 0.000000000
v 0.646695400 0.145846200 0.908333300
v 0.667536024 0.156985757 0.000000000
v 0.712968600 0.181270000 0.000000000
v 0.712968600 0.181270000 0.908333300
v 0.731235577 0.196261317 0.000000000
v 0.771057600 0.228942400 0.000000000
v 0.771057600 0.228942400 0.908333300
v 0.786048948 0.247209377 0.000000000
v 0.818730100 0.287031400 0.000000000
v 0.818730100 0.287031400 0.908333300
v 0.829869657 0.307872055 0.000000000
v 0.854153900 0.353304700 0.000000000
v 0.854153900 0.353304700 0.908333300
v 0.861013521 0.375918122 0.000000000
v 0.875967500 0.425215400 0.000000000
v 0.875967500 0.425215400 0.908333300
v 0.878283757 0.448732564 0.000000000
v 0.500000000 1.000000000 0.733333100
v 0.500000000 0.999999900 0.974999900
v 0.629409600 0.982962800 0.974999900
v 0.629409600 0.982963000 0.733333100
v 0.750000000 0.933012700 0.974999900
v 0.750000000 0.933012700 0.733333100
v 0.853553300 0.853553400 0.974999900
v 0.853553300 0.853553400 0.733333100
v 0.933012700 0.749999900 0.974999900
v 0.933012700 0.750000100 0.733333100
v 0.982962800 0.629409500 0.974999900
v 0.982962800 0.629409600 0.733333100
v 1.000000000 0.500000000 0.974999900
v 1.000000000 0.500000100 0.733333100
v 0.982962800 0.370590400 0.974999900
v 0.982962800 0.370590500 0.733333100
v 0.933012700 0.250000000 0.974999900
v 0.933012700 0.250000000 0.733333100
v 0.853553300 0.146446600 0.974999900
v 0.853553300 0.146446600 0.733333100
v 0.750000000 0.066987300 0.974999900
v 0.750000000 0.066987300 0.733333100
v 0.629409600 0.017037100 0.974999900
v 0.629409600 0.017037100 0.733333100
v 0.500000000 0.000000000 0.974999900
v 0.500000000 0.000000000 0.733333100
v 0.370590400 0.017037100 0.974999900
v 0.370590400 0.017037100 0.733333100
v 0.250000000 0.066987300 0.974999900
v 0.250000000 0.066987300 0.733333100
v 0.146446700 0.146446600 0.974999900
v 0.146446700 0.146446600 0.733333100
v 0.066987300 0.250000000 0.974999900
v 0.066987300 0.250000000 0.733333100
v 0.017037200 0.370590400 0.974999900
v 0.017037200 0.370590500 0.733333100
v 0.000000000 0.500000000 0.974999900
v 0.000000000 0.500000100 0.733333100
v 0.017037200 0.629409500 0.974999900
v 0.017037200 0.629409600 0.733333100
v 0.066987300 0.749999900 0.974999900
v 0.066987300 0.750000100 0.733333100
v 0.146446700 0.853553400 0.974999900
v 0.146446700 0.853553400 0.733333100
v 0.250000000 0.933012700 0.974999900
v 0.250000000 0.933012700 0.733333100
v 0.370590400 0.982962800 0.974999900
v 0.370590400 0.982963000 0.733333100
vt 0 0
vt 1 0
vt 1 1
vt 0 1
vn -1.000000000 0.000000000 0.000000000
vn -0.995184649 -0.098017928 0.000000000
vn -0.995184649 0.098017928 0.000000000
vn -0.991444801 -0.130526648 0.000000000
vn -0.991444801 0.130526648 0.000000000
vn -0.991444759 -0.130526967 -0.000000054
vn -0.991444759 -0.130526967 -0.000000054
vn -0.991444759 0.130526971 0.000000000
vn -0.991444759 -0.130526971 0.000000000
vn -0.991444759 0.130526971 0.000000000
vn -0.991444759 -0.130526971 0.000000000
vn -0.991444746 0.130527067 0.000000054
vn -0.956940603 -0.290283795 0.000000000
vn -0.956940603 0.290283795 0.000000000
vn -0.923879859 -0.382682644 -0.000000158
vn -0.923879859 0.382682644 0.000000317
vn -0.923879747 -0.382682915 0.000000000
vn -0.923879747 0.382682915 0.000000158
vn -0.923879701 -0.382683026 0.000000000
vn -0.923879701 0.382683026 0.000000000
vn -0.923879623 0.382683214 0.000000000
vn -0.923879623 -0.382683214 0.000000000
vn -0.881921358 -0.471396562 0.000000000
vn -0.881921358 0.471396562 0.000000000
vn -0.793353323 0.608761452 0.000000504
vn -0.793353277 0.608761512 0.000000609
vn -0.793353277 -0.608761512 -0.000000609
vn -0.793353039 -0.608761822 0.000000000
vn -0.793353031 0.608761832 0.000000000
vn -0.793353031 -0.608761832 0.000000000
vn -0.793352914 0.608761984 0.000000000
vn -0.793352914 -0.608761984 0.000000000
vn -0.793352755 0.608762192 0.000000000
vn -0.773011173 0.634392407 0.000000000
vn -0.773011173 -0.634392407 0.000000000
vn -0.634391897 -0.773011592 0.000000000
vn -0.634391897 0.773011592 0.000000000
vn -0.608762534 -0.793352492 -0.000004327
vn -0.608761710 -0.793353125 0.000000000
vn -0.608761710 0.793353125 0.000000000
vn -0.608761619 -0.793353195 0.000000000
vn -0.608761619 0.793353195 0.000000000
vn -0.608760896 -0.793353749 -0.000000793
vn -0.608760896 -0.793353749 -0.000000793
vn -0.608760896 0.793353749 0.000000793
vn -0.608760896 0.793353749 0.000000793
vn -0.500000675 -0.866025014 0.000000000
vn -0.500000675 0.866025014 0.000001299
vn -0.499999911 -0.866025455 0.000000000
vn -0.499999911 -0.866025455 -0.000001299
vn -0.499999911 -0.866025455 -0.000001299
vn -0.499999911 0.866025455 0.000001299
vn -0.499999911 -0.866025455 -0.000001299
vn -0.499999911 0.866025455 0.000001299
vn -0.499999911 -0.866025455 -0.000001299
vn -0.499999911 0.866025455 0.000001299
vn -0.499999352 0.866025778 0.000000000
vn -0.499998587 -0.866026219 0.000000000
vn -0.499998587 0.866026219 0.000000000
vn -0.499998587 -0.866026219 0.000000000
vn -0.499998587 0.866026219 0.000000000
vn -0.499998587 -0.866026219 0.000000000
vn -0.499998587 0.866026219 0.000000000
vn -0.499998587 -0.866026219 0.000000000
vn -0.499998587 0.866026219 0.000000000
vn -0.471397115 0.881921062 0.000000000
vn -0.471397115 -0.881921062 0.000000000
vn -0.382684970 -0.923878895 -0.000005039
vn -0.382684970 0.923878895 0.000005039
vn -0.382684222 0.923879205 0.000000765
vn -0.382684207 0.923879212 0.000000924
vn -0.382684207 -0.923879212 -0.000000924
vn -0.382683729 -0.923879410 0.000000000
vn -0.382683729 0.923879410 0.000000000
vn -0.382683569 -0.923879476 0.000000000
vn -0.382683372 0.923879557 0.000000000
vn -0.382683372 -0.923879557 0.000000000
vn -0.382682915 0.923879747 0.000000000
vn -0.290284275 -0.956940458 0.000000000
vn -0.290283056 0.956940827 0.000000000
vn -0.130526971 0.991444759 0.000000000
vn -0.130526971 -0.991444759 -0.000000991
vn -0.130526460 -0.991444826 0.000000000
vn -0.130526460 0.991444826 0.000005408
vn -0.130526214 -0.991444858 0.000000000
vn -0.130526214 0.991444858 0.000000821
vn -0.130526010 -0.991444885 0.000000000
vn -0.130525461 0.991444958 0.000000410
vn -0.098018058 0.995184636 0.000000000
vn -0.098016740 -0.995184766 0.000000000
vn -0.000018732 0.000002466 -1.000000000
vn -0.000017456 -0.000007231 1.000000000
vn -0.000003488 -0.000003488 1.000000000
vn -0.000001042 0.000001042 -1.000000000
vn -0.000000426 -0.000000737 1.000000000
vn -0.000000220 0.000000822 -1.000000000
vn -0.000000000 0.000000000 -1.000000000
vn -0.000000000 0.000000000 1.000000000
vn 0.000000000 -0.000001474 1.000000000
vn 0.000000000 0.000000000 -1.000000000
vn 0.000000000 0.000000000 1.000000000
vn 0.000000382 0.000001424 -1.000000000
vn 0.000001277 -0.000000737 1.000000000
vn 0.000003488 -0.000003488 1.000000000
vn 0.000004272 0.000002466 -1.000000000
vn 0.000004272 0.000002466 -1.000000000
vn 0.000017456 -0.000007231 1.000000000
vn 0.000018732 0.000002466 -1.000000000
vn 0.098016740 -0.995184766 0.000000000
vn 0.098018058 0.995184636 0.000000000
vn 0.130525461 0.991444958 0.000000821
vn 0.130526010 -0.991444885 -0.000000991
vn 0.130526214 0.991444858 0.000000410
vn 0.130526214 -0.991444858 0.000000000
vn 0.130526460 0.991444826 0.000005408
vn 0.130526460 -0.991444826 0.000000000
vn 0.130526971 0.991444759 0.000000000
vn 0.130526971 -0.991444759 0.000000000
vn 0.290283056 0.956940827 0.000000000
vn 0.290284275 -0.956940458 0.000000000
vn 0.382682915 0.923879747 0.000000765
vn 0.382683372 -0.923879557 -0.000000924
vn 0.382683372 0.923879557 0.000000924
vn 0.382683569 -0.923879476 0.000000000
vn 0.382683729 0.923879410 0.000005039
vn 0.382683729 -0.923879410 -0.000005039
vn 0.382684207 -0.923879212 0.000000000
vn 0.382684207 0.923879212 0.000000000
vn 0.382684222 0.923879205 0.000000000
vn 0.382684970 0.923878895 0.000000000
vn 0.382684970 -0.923878895 0.000000000
vn 0.471397115 -0.881921062 0.000000000
vn 0.471397115 0.881921062 0.000000000
vn 0.499998587 -0.866026219 -0.000001299
vn 0.499998587 -0.866026219 -0.000001299
vn 0.499998587 0.866026219 0.000001299
vn 0.499998587 0.866026219 0.000001299
vn 0.499998587 -0.866026219 -0.000001299
vn 0.499998587 -0.866026219 -0.000001299
vn 0.499998587 0.866026219 0.000001299
vn 0.499998587 -0.866026219 0.000000000
vn 0.499998587 0.866026219 0.000000000
vn 0.499999352 0.866025778 0.000001299
vn 0.499999911 -0.866025455 0.000000000
vn 0.499999911 -0.866025455 0.000000000
vn 0.499999911 0.866025455 0.000000000
vn 0.499999911 0.866025455 0.000000000
vn 0.499999911 -0.866025455 0.000000000
vn 0.499999911 -0.866025455 0.000000000
vn 0.499999911 0.866025455 0.000000000
vn 0.500000675 -0.866025014 0.000000000
vn 0.500000675 0.866025014 0.000000000
vn 0.608760896 -0.793353749 -0.000000793
vn 0.608760896 -0.793353749 -0.000000793
vn 0.608760896 0.793353749 0.000000793
vn 0.608760896 0.793353749 0.000000793
vn 0.608761619 -0.793353195 -0.000004327
vn 0.608761619 0.793353195 0.000000000
vn 0.608761710 0.793353125 0.000000000
vn 0.608761710 -0.793353125 0.000000000
vn 0.608762534 -0.793352492 0.000000000
vn 0.634393202 0.773010520 0.000000000
vn 0.634393202 -0.773010520 0.000000000
vn 0.773009868 -0.634393998 0.000000000
vn 0.773009868 0.634393998 0.000000000
vn 0.793352755 0.608762192 0.000000504
vn 0.793352914 -0.608761984 -0.000000609
vn 0.793352914 0.608761984 0.000000609
vn 0.793353031 -0.608761832 0.000000000
vn 0.793353031 0.608761832 0.000000000
vn 0.793353039 -0.608761822 0.000000000
vn 0.793353277 -0.608761512 0.000000000
vn 0.793353277 0.608761512 0.000000000
vn 0.793353323 0.608761452 0.000000000
vn 0.881921358 0.471396562 0.000000000
vn 0.881921358 -0.471396562 0.000000000
vn 0.923879623 -0.382683214 0.000000000
vn 0.923879623 0.382683214 0.000000000
vn 0.923879701 0.382683026 0.000000000
vn 0.923879701 -0.382683026 0.000000000
vn 0.923879747 0.382682915 0.000000317
vn 0.923879747 -0.382682915 -0.000000158
vn 0.923879859 0.382682644 0.000000158
vn 0.923879859 -0.382682644 0.000000000
vn 0.956941343 0.290281358 0.000000000
vn 0.956941343 -0.290281358 0.000000000
vn 0.991444746 0.130527067 0.000000054
vn 0.991444759 -0.130526971 0.000000000
vn 0.991444759 0.130526971 0.000000000
vn 0.991444759 0.130526971 0.000000000
vn 0.991444759 -0.130526971 0.000000000
vn 0.991444759 -0.130526967 -0.000000054
vn 0.991444759 -0.130526967 -0.000000054
vn 0.991444801 0.130526648 0.000000000
vn 0.991444801 -0.130526648 0.000000000
vn 0.995184649 -0.098017928 0.000000000
vn 0.995184649 0.098017928 0.000000000
vn 1.000000000 0.000000000 0.000000000
usemtl dvss_0
f 1/1/117 2/2/117 3/3/117
f 1/1/117 3/2/117 4/3/117
f 4/1/128 3/2/128 5/3/128
f 4/1/123 5/2/123 6/3/123
f 6/1/156 5/2/156 7/3/156
f 6/1/155 7/2/155 8/3/155
f 8/1/168 7/2/168 9/3/168
f 8/1/173 9/2/173 10/3/173
f 10/1/179 9/2/179 11/3/179
f 10/1/179 11/2/179 12/3/179
f 12/1/189 11/2/189 13/3/189
f 12/1/190 13/2/190 14/3/190
f 14/1/191 13/2/191 15/3/191
f 14/1/188 15/2/188 16/3/188
f 16/1/180 15/2/180 17/3/180
f 16/1/180 17/2/180 18/3/180
f 18/1/172 17/2/172 19/3/172
f 18/1/167 19/2/167 20/3/167
f 20/1/153 19/2/153 21/3/153
f 20/1/154 21/2/154 22/3/154
f 22/1/122 21/2/122 23/3/122
f 22/1/127 23/2/127 24/3/127
f 24/1/118 23/2/118 25/3/118
f 24/1/112 25/2/112 26/3/112
f 26/1/82 25/2/82 27/3/82
f 26/1/87 27/2/87 28/3/87
f 28/1/77 27/2/77 29/3/77
f 28/1/72 29/2/72 30/3/72
f 30/1/44 29/2/44 31/3/44
f 30/1/43 31/2/43 32/3/43
f 32/1/27 31/2/27 33/3/27
f 32/1/32 33/2/32 34/3/32
f 34/1/19 33/2/19 35/3/19
f 34/1/19 35/2/19 36/3/19
f 36/1/11 35/2/11 37/3/11
f 36/1/9 37/2/9 38/3/9
f 38/1/10 37/2/10 39/3/10
f 38/1/8 39/2/8 40/3/8
f 40/1/20 39/2/20 41/3/20
f 40/1/20 41/2/20 42/3/20
f 42/1/31 41/2/31 43/3/31
f 42/1/26 43/2/26 44/3/26
f 44/1/45 43/2/45 45/3/45
f 44/1/46 45/2/46 46/3/46
f 5/1/101 3/2/101 2/3/101
f 2/1/101 47/2/101 45/3/101
f 45/1/101 43/2/101 41/3/101
f 41/1/107 39/2/107 37/3/107
f 37/1/101 35/2/101 33/3/101
f 33/1/101 31/2/101 29/3/101
f 29/1/101 27/2/101 25/3/101
f 25/1/101 23/2/101 21/3/101
f 21/1/101 19/2/101 17/3/101
f 17/1/101 15/2/101 13/3/101
f 13/1/92 11/2/92 9/3/92
f 9/1/101 7/2/101 5/3/101
f 5/1/101 2/2/101 45/3/101
f 45/1/104 41/2/104 37/3/104
f 37/1/101 33/2/101 29/3/101
f 29/1/101 25/2/101 21/3/101
f 21/1/101 17/2/101 13/3/101
f 13/1/93 9/2/93 5/3/93
f 5/1/99 45/2/99 37/3/99
f 37/1/101 29/2/101 21/3/101
f 21/1/103 13/2/103 5/3/103
f 37/1/95 21/2/95 5/3/95
f 46/1/71 45/2/71 47/3/71
f 46/1/76 47/2/76 48/3/76
f 48/1/81 47/2/81 2/3/81
f 48/1/81 2/2/81 1/3/81
f 48/1/100 1/2/100 4/3/100
f 4/1/100 6/2/100 8/3/100
f 8/1/100 10/2/100 12/3/100
f 12/1/108 14/2/108 16/3/108
f 16/1/100 18/2/100 20/3/100
f 20/1/100 22/2/100 24/3/100
f 24/1/100 26/2/100 28/3/100
f 28/1/100 30/2/100 32/3/100
f 32/1/100 34/2/100 36/3/100
f 36/1/91 38/2/91 40/3/91
f 40/1/100 42/2/100 44/3/100
f 44/1/100 46/2/100 48/3/100
f 48/1/100 4/2/100 8/3/100
f 8/1/106 12/2/106 16/3/106
f 16/1/100 20/2/100 24/3/100
f 24/1/100 28/2/100 32/3/100
f 32/1/105 36/2/105 40/3/105
f 40/1/100 44/2/100 48/3/100
f 48/1/102 8/2/102 16/3/102
f 16/1/100 24/2/100 32/3/100
f 32/1/94 40/2/94 48/3/94
f 16/1/96 32/2/96 48/3/96
usemtl dvss_1
f 49/1/150 50/2/150 51/3/150
f 49/1/140 51/2/140 52/3/140
f 52/1/198 51/2/198 53/3/198
f 52/1/198 53/2/198 54/3/198
f 54/1/139 53/2/139 55/3/139
f 54/1/149 55/2/149 56/3/149
f 56/1/62 55/2/62 57/3/62
f 56/1/53 57/2/53 58/3/53
f 53/1/101 51/2/101 50/3/101
f 50/1/101 59/2/101 57/3/101
f 57/1/101 55/2/101 53/3/101
f 50/1/101 57/2/101 53/3/101
f 58/1/1 57/2/1 59/3/1
f 58/1/1 59/2/1 60/3/1
f 60/1/54 59/2/54 50/3/54
f 60/1/63 50/2/63 49/3/63
f 60/1/100 49/2/100 52/3/100
f 52/1/100 54/2/100 56/3/100
f 56/1/100 58/2/100 60/3/100
f 52/1/100 56/2/100 60/3/100
f 61/1/142 62/2/142 63/3/142
f 61/1/142 63/2/142 64/3/142
f 64/1/198 63/2/198 65/3/198
f 64/1/198 65/2/198 66/3/198
f 66/1/134 65/2/134 67/3/134
f 66/1/144 67/2/144 68/3/144
f 68/1/58 67/2/58 69/3/58
f 68/1/51 69/2/51 70/3/51
f 65/1/101 63/2/101 62/3/101
f 62/1/101 71/2/101 69/3/101
f 69/1/101 67/2/101 65/3/101
f 62/1/101 69/2/101 65/3/101
f 70/1/1 69/2/1 71/3/1
f 70/1/1 71/2/1 72/3/1
f 72/1/59 71/2/59 62/3/59
f 72/1/59 62/2/59 61/3/59
f 72/1/100 61/2/100 64/3/100
f 64/1/100 66/2/100 68/3/100
f 68/1/100 70/2/100 72/3/100
f 64/1/100 68/2/100 72/3/100
f 73/1/146 74/2/146 75/3/146
f 73/1/136 75/2/136 76/3/136
f 76/1/198 75/2/198 77/3/198
f 76/1/198 77/2/198 78/3/198
f 78/1/145 77/2/145 79/3/145
f 78/1/145 79/2/145 80/3/145
f 80/1/47 79/2/47 81/3/47
f 80/1/47 81/2/47 82/3/47
f 77/1/101 75/2/101 74/3/101
f 74/1/101 83/2/101 81/3/101
f 81/1/101 79/2/101 77/3/101
f 74/1/101 81/2/101 77/3/101
f 82/1/1 81/2/1 83/3/1
f 82/1/1 83/2/1 84/3/1
f 84/1/48 83/2/48 74/3/48
f 84/1/57 74/2/57 73/3/57
f 84/1/100 73/2/100 76/3/100
f 76/1/100 78/2/100 80/3/100
f 80/1/100 82/2/100 84/3/100
f 76/1/100 80/2/100 84/3/100
f 85/1/142 86/2/142 87/3/142
f 85/1/142 87/2/142 88/3/142
f 88/1/198 87/2/198 89/3/198
f 88/1/198 89/2/198 90/3/198
f 90/1/141 89/2/141 91/3/141
f 90/1/141 91/2/141 92/3/141
f 92/1/60 91/2/60 93/3/60
f 92/1/60 93/2/60 94/3/60
f 89/1/101 87/2/101 86/3/101
f 86/1/101 95/2/101 93/3/101
f 93/1/101 91/2/101 89/3/101
f 86/1/101 93/2/101 89/3/101
f 94/1/1 93/2/1 95/3/1
f 94/1/1 95/2/1 96/3/1
f 96/1/59 95/2/59 86/3/59
f 96/1/59 86/2/59 85/3/59
f 96/1/100 85/2/100 88/3/100
f 88/1/100 90/2/100 92/3/100
f 92/1/100 94/2/100 96/3/100
f 88/1/100 92/2/100 96/3/100
f 97/1/147 98/2/147 99/3/147
f 97/1/137 99/2/137 100/3/137
f 100/1/198 99/2/198 101/3/198
f 100/1/198 101/2/198 102/3/198
f 102/1/148 101/2/148 103/3/148
f 102/1/138 103/2/138 104/3/138
f 104/1/55 103/2/55 105/3/55
f 104/1/64 105/2/64 106/3/64
f 101/1/101 99/2/101 98/3/101
f 98/1/101 107/2/101 105/3/101
f 105/1/101 103/2/101 101/3/101
f 98/1/101 105/2/101 101/3/101
f 106/1/1 105/2/1 107/3/1
f 106/1/1 107/2/1 108/3/1
f 108/1/56 107/2/56 98/3/56
f 108/1/65 98/2/65 97/3/65
f 108/1/100 97/2/100 100/3/100
f 100/1/100 102/2/100 104/3/100
f 104/1/100 106/2/100 108/3/100
f 100/1/100 104/2/100 108/3/100
f 109/1/142 110/2/142 111/3/142
f 109/1/142 111/2/142 112/3/142
f 112/1/198 111/2/198 113/3/198
f 112/1/198 113/2/198 114/3/198
f 114/1/141 113/2/141 115/3/141
f 114/1/141 115/2/141 116/3/141
f 116/1/60 115/2/60 117/3/60
f 116/1/60 117/2/60 118/3/60
f 113/1/101 111/2/101 110/3/101
f 110/1/101 119/2/101 117/3/101
f 117/1/101 115/2/101 113/3/101
f 110/1/101 117/2/101 113/3/101
f 118/1/1 117/2/1 119/3/1
f 118/1/1 119/2/1 120/3/1
f 120/1/59 119/2/59 110/3/59
f 120/1/59 110/2/59 109/3/59
f 120/1/100 109/2/100 112/3/100
f 112/1/100 114/2/100 116/3/100
f 116/1/100 118/2/100 120/3/100
f 112/1/100 116/2/100 120/3/100
f 121/1/152 122/2/152 123/3/152
f 121/1/143 123/2/143 124/3/143
f 124/1/198 123/2/198 125/3/198
f 124/1/198 125/2/198 126/3/198
f 126/1/151 125/2/151 127/3/151
f 126/1/151 127/2/151 128/3/151
f 128/1/49 127/2/49 129/3/49
f 128/1/49 129/2/49 130/3/49
f 125/1/101 123/2/101 122/3/101
f 122/1/101 131/2/101 129/3/101
f 129/1/101 127/2/101 125/3/101
f 122/1/101 129/2/101 125/3/101
f 130/1/1 129/2/1 131/3/1
f 130/1/1 131/2/1 132/3/1
f 132/1/52 131/2/52 122/3/52
f 132/1/61 122/2/61 121/3/61
f 132/1/100 121/2/100 124/3/100
f 124/1/100 126/2/100 128/3/100
f 128/1/100 130/2/100 132/3/100
f 124/1/100 128/2/100 132/3/100
f 133/1/142 134/2/142 135/3/142
f 133/1/142 135/2/142 136/3/142
f 136/1/198 135/2/198 137/3/198
f 136/1/198 137/2/198 138/3/198
f 138/1/135 137/2/135 139/3/135
f 138/1/144 139/2/144 140/3/144
f 140/1/58 139/2/58 141/3/58
f 140/1/50 141/2/50 142/3/50
f 137/1/101 135/2/101 134/3/101
f 134/1/101 143/2/101 141/3/101
f 141/1/101 139/2/101 137/3/101
f 134/1/101 141/2/101 137/3/101
f 142/1/1 141/2/1 143/3/1
f 142/1/1 143/2/1 144/3/1
f 144/1/59 143/2/59 134/3/59
f 144/1/59 134/2/59 133/3/59
f 144/1/100 133/2/100 136/3/100
f 136/1/100 138/2/100 140/3/100
f 140/1/100 142/2/100 144/3/100
f 136/1/100 140/2/100 144/3/100
f 145/1/115 146/2/115 147/3/115
f 145/1/115 147/2/115 148/3/115
f 148/1/125 147/2/125 149/3/125
f 148/1/130 149/2/130 150/3/130
f 150/1/158 149/2/158 151/3/158
f 150/1/158 151/2/158 152/3/158
f 152/1/170 151/2/170 153/3/170
f 152/1/170 153/2/170 154/3/170
f 154/1/178 153/2/178 155/3/178
f 154/1/178 155/2/178 156/3/178
f 156/1/194 155/2/194 157/3/194
f 156/1/194 157/2/194 158/3/194
f 158/1/195 157/2/195 159/3/195
f 158/1/195 159/2/195 160/3/195
f 160/1/177 159/2/177 161/3/177
f 160/1/177 161/2/177 162/3/177
f 162/1/169 161/2/169 163/3/169
f 162/1/169 163/2/169 164/3/169
f 164/1/161 163/2/161 165/3/161
f 164/1/157 165/2/157 166/3/157
f 166/1/126 165/2/126 167/3/126
f 166/1/131 167/2/131 168/3/131
f 168/1/116 167/2/116 169/3/116
f 168/1/116 169/2/116 170/3/116
f 170/1/83 169/2/83 171/3/83
f 170/1/83 171/2/83 172/3/83
f 172/1/73 171/2/73 173/3/73
f 172/1/68 173/2/68 174/3/68
f 174/1/38 173/2/38 175/3/38
f 174/1/41 175/2/41 176/3/41
f 176/1/30 175/2/30 177/3/30
f 176/1/30 177/2/30 178/3/30
f 178/1/22 177/2/22 179/3/22
f 178/1/22 179/2/22 180/3/22
f 180/1/4 179/2/4 181/3/4
f 180/1/4 181/2/4 182/3/4
f 182/1/5 181/2/5 183/3/5
f 182/1/5 183/2/5 184/3/5
f 184/1/21 183/2/21 185/3/21
f 184/1/21 185/2/21 186/3/21
f 186/1/29 185/2/29 187/3/29
f 186/1/29 187/2/29 188/3/29
f 188/1/42 187/2/42 189/3/42
f 188/1/42 189/2/42 190/3/42
f 149/1/101 147/2/101 146/3/101
f 146/1/101 191/2/101 189/3/101
f 189/1/101 187/2/101 185/3/101
f 185/1/101 183/2/101 181/3/101
f 181/1/101 179/2/101 177/3/101
f 177/1/101 175/2/101 173/3/101
f 173/1/101 171/2/101 169/3/101
f 169/1/101 167/2/101 165/3/101
f 165/1/101 163/2/101 161/3/101
f 161/1/101 159/2/101 157/3/101
f 157/1/101 155/2/101 153/3/101
f 153/1/101 151/2/101 149/3/101
f 149/1/101 146/2/101 189/3/101
f 189/1/101 185/2/101 181/3/101
f 181/1/101 177/2/101 173/3/101
f 173/1/101 169/2/101 165/3/101
f 165/1/101 161/2/101 157/3/101
f 157/1/101 153/2/101 149/3/101
f 149/1/101 189/2/101 181/3/101
f 181/1/101 173/2/101 165/3/101
f 165/1/101 157/2/101 149/3/101
f 181/1/98 165/2/98 149/3/98
f 190/1/74 189/2/74 191/3/74
f 190/1/69 191/2/69 192/3/69
f 192/1/84 191/2/84 146/3/84
f 192/1/84 146/2/84 145/3/84
f 192/1/100 145/2/100 148/3/100
f 148/1/100 150/2/100 152/3/100
f 152/1/100 154/2/100 156/3/100
f 156/1/100 158/2/100 160/3/100
f 160/1/100 162/2/100 164/3/100
f 164/1/100 166/2/100 168/3/100
f 168/1/100 170/2/100 172/3/100
f 172/1/100 174/2/100 176/3/100
f 176/1/100 178/2/100 180/3/100
f 180/1/100 182/2/100 184/3/100
f 184/1/100 186/2/100 188/3/100
f 188/1/100 190/2/100 192/3/100
f 192/1/100 148/2/100 152/3/100
f 152/1/100 156/2/100 160/3/100
f 160/1/100 164/2/100 168/3/100
f 168/1/100 172/2/100 176/3/100
f 176/1/100 180/2/100 184/3/100
f 184/1/100 188/2/100 192/3/100
f 192/1/100 152/2/100 160/3/100
f 160/1/100 168/2/100 176/3/100
f 176/1/100 184/2/100 192/3/100
f 160/1/100 176/2/100 192/3/100
usemtl dvss_4
f 193/1/197 194/2/197 195/3/197
f 196/1/197 193/2/197 195/3/197 197/4/197
f 198/1/185 199/2/185 200/3/185
f 194/1/185 198/2/185 200/3/185 195/4/185
f 201/1/175 202/2/175 203/3/175
f 199/1/175 201/2/175 203/3/175 200/4/175
f 204/1/165 205/2/165 206/3/165
f 202/1/165 204/2/165 206/3/165 203/4/165
f 207/1/162 208/2/162 209/3/162
f 205/1/162 207/2/162 209/3/162 206/4/162
f 210/1/133 211/2/133 212/3/133
f 208/1/133 210/2/133 212/3/133 209/4/133
f 213/1/119 214/2/119 215/3/119
f 211/1/119 213/2/119 215/3/119 212/4/119
f 216/1/110 217/2/110 218/3/110
f 214/1/110 216/2/110 218/3/110 215/4/110
f 219/1/89 220/2/89 221/3/89
f 217/1/89 219/2/89 221/3/89 218/4/89
f 222/1/80 223/2/80 224/3/80
f 220/1/80 222/2/80 224/3/80 221/4/80
f 225/1/66 226/2/66 227/3/66
f 223/1/66 225/2/66 227/3/66 224/4/66
f 228/1/37 229/2/37 230/3/37
f 226/1/37 228/2/37 230/3/37 227/4/37
f 231/1/34 232/2/34 233/3/34
f 229/1/34 231/2/34 233/3/34 230/4/34
f 234/1/24 235/2/24 236/3/24
f 232/1/24 234/2/24 236/3/24 233/4/24
f 237/1/14 238/2/14 239/3/14
f 235/1/14 237/2/14 239/3/14 236/4/14
f 240/1/3 241/2/3 242/3/3
f 238/1/3 240/2/3 242/3/3 239/4/3
f 243/1/2 244/2/2 245/3/2
f 241/1/2 243/2/2 245/3/2 242/4/2
f 246/1/13 247/2/13 248/3/13
f 244/1/13 246/2/13 248/3/13 245/4/13
f 249/1/23 250/2/23 251/3/23
f 247/1/23 249/2/23 251/3/23 248/4/23
f 252/1/35 253/2/35 254/3/35
f 250/1/35 252/2/35 254/3/35 251/4/35
f 255/1/36 256/2/36 257/3/36
f 253/1/36 255/2/36 257/3/36 254/4/36
f 258/1/67 259/2/67 260/3/67
f 256/1/67 258/2/67 260/3/67 257/4/67
f 261/1/79 262/2/79 263/3/79
f 259/1/79 261/2/79 263/3/79 260/4/79
f 264/1/90 265/2/90 266/3/90
f 262/1/90 264/2/90 266/3/90 263/4/90
f 267/1/109 268/2/109 269/3/109
f 265/1/109 267/2/109 269/3/109 266/4/109
f 270/1/120 271/2/120 272/3/120
f 268/1/120 270/2/120 272/3/120 269/4/120
f 273/1/132 274/2/132 275/3/132
f 271/1/132 273/2/132 275/3/132 272/4/132
f 276/1/163 277/2/163 278/3/163
f 274/1/163 276/2/163 278/3/163 275/4/163
f 279/1/164 280/2/164 281/3/164
f 277/1/164 279/2/164 281/3/164 278/4/164
f 282/1/176 283/2/176 284/3/176
f 280/1/176 282/2/176 284/3/176 281/4/176
f 285/1/186 286/2/186 287/3/186
f 283/1/186 285/2/186 287/3/186 284/4/186
f 288/1/196 196/2/196 197/3/196
f 286/1/196 288/2/196 197/3/196 287/4/196
usemtl dvss_5
f 289/1/113 290/2/113 291/3/113
f 289/1/111 291/2/111 292/3/111
f 292/1/121 291/2/121 293/3/121
f 292/1/129 293/2/129 294/3/129
f 294/1/159 293/2/159 295/3/159
f 294/1/159 295/2/159 296/3/159
f 296/1/174 295/2/174 297/3/174
f 296/1/166 297/2/166 298/3/166
f 298/1/181 297/2/181 299/3/181
f 298/1/183 299/2/183 300/3/183
f 300/1/187 299/2/187 301/3/187
f 300/1/187 301/2/187 302/3/187
f 302/1/193 301/2/193 303/3/193
f 302/1/192 303/2/192 304/3/192
f 304/1/182 303/2/182 305/3/182
f 304/1/184 305/2/184 306/3/184
f 306/1/171 305/2/171 307/3/171
f 306/1/171 307/2/171 308/3/171
f 308/1/160 307/2/160 309/3/160
f 308/1/160 309/2/160 310/3/160
f 310/1/124 309/2/124 311/3/124
f 310/1/124 311/2/124 312/3/124
f 312/1/114 311/2/114 313/3/114
f 312/1/114 313/2/114 314/3/114
f 314/1/85 313/2/85 315/3/85
f 314/1/85 315/2/85 316/3/85
f 316/1/75 315/2/75 317/3/75
f 316/1/75 317/2/75 318/3/75
f 318/1/39 317/2/39 319/3/39
f 318/1/39 319/2/39 320/3/39
f 320/1/28 319/2/28 321/3/28
f 320/1/28 321/2/28 322/3/28
f 322/1/17 321/2/17 323/3/17
f 322/1/15 323/2/15 324/3/15
f 324/1/6 323/2/6 325/3/6
f 324/1/7 325/2/7 326/3/7
f 326/1/12 325/2/12 327/3/12
f 326/1/12 327/2/12 328/3/12
f 328/1/18 327/2/18 329/3/18
f 328/1/16 329/2/16 330/3/16
f 330/1/25 329/2/25 331/3/25
f 330/1/33 331/2/33 332/3/33
f 332/1/40 331/2/40 333/3/40
f 332/1/40 333/2/40 334/3/40
f 293/1/101 291/2/101 290/3/101
f 290/1/101 335/2/101 333/3/101
f 333/1/101 331/2/101 329/3/101
f 329/1/101 327/2/101 325/3/101
f 325/1/101 323/2/101 321/3/101
f 321/1/101 319/2/101 317/3/101
f 317/1/101 315/2/101 313/3/101
f 313/1/101 311/2/101 309/3/101
f 309/1/101 307/2/101 305/3/101
f 305/1/101 303/2/101 301/3/101
f 301/1/101 299/2/101 297/3/101
f 297/1/101 295/2/101 293/3/101
f 293/1/101 290/2/101 333/3/101
f 333/1/101 329/2/101 325/3/101
f 325/1/101 321/2/101 317/3/101
f 317/1/101 313/2/101 309/3/101
f 309/1/101 305/2/101 301/3/101
f 301/1/101 297/2/101 293/3/101
f 293/1/101 333/2/101 325/3/101
f 325/1/101 317/2/101 309/3/101
f 309/1/101 301/2/101 293/3/101
f 325/1/101 309/2/101 293/3/101
f 334/1/78 333/2/78 335/3/78
f 334/1/70 335/2/70 336/3/70
f 336/1/86 335/2/86 290/3/86
f 336/1/88 290/2/88 289/3/88
f 336/1/100 289/2/100 292/3/100
f 292/1/100 294/2/100 296/3/100
f 296/1/100 298/2/100 300/3/100
f 300/1/100 302/2/100 304/3/100
f 304/1/100 306/2/100 308/3/100
f 308/1/100 310/2/100 312/3/100
f 312/1/100 314/2/100 316/3/100
f 316/1/100 318/2/100 320/3/100
f 320/1/100 322/2/100 324/3/100
f 324/1/100 326/2/100 328/3/100
f 328/1/100 330/2/100 332/3/100
f 332/1/100 334/2/100 336/3/100
f 336/1/100 292/2/100 296/3/100
f 296/1/100 300/2/100 304/3/100
f 304/1/100 308/2/100 312/3/100
f 312/1/100 316/2/100 320/3/100
f 320/1/100 324/2/100 328/3/100
f 328/1/100 332/2/100 336/3/100
f 336/1/100 296/2/100 304/3/100
f 304/1/100 312/2/100 320/3/100
f 320/1/97 328/2/97 336/3/97
f 304/1/100 320/2/100 336/3/100
