# Generated by tools-import-turbines.py; estimated STEP scale.
mtllib materials.mtl
s off
v 1.000000000 0.508657013 1.000000000
v 1.000000000 0.590838634 0.921525612
v 0.946477735 0.382188196 1.000000000
v 1.000000000 0.669591457 0.846325378
v 0.862252417 0.183170584 1.000000000
v 1.000000000 0.577070660 0.807297733
v 0.844348191 0.072594056 1.000000000
v 0.832593976 0.000000000 1.000000000
v 1.000000000 0.504881471 0.776846490
v 0.857024654 0.000000000 0.936353310
v 1.000000000 0.322250825 0.807901597
v 0.888473957 0.000000000 0.920151896
v 1.000000000 0.096285558 0.846325464
v 0.972733281 0.000000000 0.876744888
v 1.000000000 0.000000000 0.885418630
vt 0 0
vt 1 0
vt 1 1
vt 0 1
vn -0.923098338 0.149465371 -0.354329735
vn -0.923098324 0.149465349 -0.354329782
vn -0.852639443 0.360841473 0.377888094
vn -0.852639328 0.360841523 0.377888306
vn -0.452818019 -0.149465583 -0.878985712
vn -0.452818019 -0.149465583 -0.878985712
vn 0.282715839 -0.360841275 -0.888743680
usemtl dvss_4
f 1/1/3 2/2/3 3/3/3
f 3/1/4 2/2/4 4/3/4 5/4/4
f 6/1/1 7/2/1 5/3/1 4/4/1
f 8/1/2 7/2/2 6/3/2
f 8/1/2 6/2/2 9/3/2
f 8/1/2 9/2/2 10/3/2
f 11/1/6 12/2/6 10/3/6 9/4/6
f 12/1/5 11/2/5 13/3/5 14/4/5
f 15/1/7 14/2/7 13/3/7
