# Generated by tools-import-turbines.py; estimated STEP scale.
mtllib materials.mtl
s off
v 0.000000000 0.532610348 0.015063459
v 0.041666700 0.556666600 0.071666700
v 0.041666700 0.556666600 0.005000000
v 0.000000000 0.532610348 0.005000000
v 0.000000000 0.532610446 0.071666700
v 0.000000000 0.467389554 0.061603010
v 0.000000000 0.467389554 0.005000000
v 0.041666700 0.443333400 0.005000000
v 0.000000000 0.467389554 0.071666700
v 0.041666700 0.443333400 0.071666700
v 0.090741600 0.471666600 0.005000000
v 0.090741400 0.471666600 0.071666700
v 0.000000000 0.484497798 0.005000000
v 0.090741600 0.528333400 0.005000000
v 0.000000000 0.471666600 0.005000000
v 0.090741600 0.528333400 0.071666700
v 0.000000000 0.528333400 0.071666700
v 0.000000000 0.515502202 0.071666700
v 0.000000000 0.436701695 0.314777963
v 0.000000000 0.436701695 0.266666700
v 0.008333400 0.500000000 0.266666700
v 0.000000000 0.436702483 0.366666700
v 0.008333200 0.500000000 0.366666700
v 0.000000000 0.563297421 0.318556036
v 0.000000000 0.563298209 0.266666700
v 0.000000000 0.563297421 0.366666700
v 0.000000000 0.531100688 0.266666700
v 0.000000000 0.468899424 0.266666700
v 0.000000000 0.514433870 0.266666700
v 0.000000000 0.485566131 0.266666700
v 0.000000000 0.504811292 0.266666700
v 0.000000000 0.495188712 0.266666699
v 0.000000000 0.147293088 0.108964554
v 0.000000000 0.147293088 0.025000000
v 0.034049000 0.191666600 0.025000000
v 0.000000000 0.147293088 0.266666700
v 0.034049000 0.191666600 0.266666700
v 0.095654200 0.340394700 0.025000000
v 0.095654200 0.340394700 0.266666700
v 0.116666800 0.500000000 0.025000100
v 0.116666600 0.500000000 0.266666700
v 0.095654200 0.659605000 0.025000100
v 0.095654200 0.659605000 0.266666700
v 0.034049000 0.808333200 0.025000100
v 0.034049000 0.808333200 0.266666700
v 0.000000000 0.852706781 0.182702181
v 0.000000000 0.852706781 0.025000100
v 0.000000000 0.852706781 0.266666700
v 0.000000000 0.842382230 0.025000100
v 0.000000000 0.157617630 0.025000000
v 0.000000000 0.702072782 0.025000100
v 0.000000000 0.297927349 0.025000062
v 0.000000000 0.567357609 0.025000087
v 0.000000000 0.432642419 0.025000075
v 0.000000000 0.174716807 0.266666700
v 0.000000000 0.825283073 0.266666700
v 0.000000000 0.302618527 0.266666700
v 0.000000000 0.755259266 0.266666700
vt 0 0
vt 1 0
vt 1 1
vt 0 1
vn -0.499999556 0.866025660 0.000000000
vn -0.499998028 -0.866026542 0.000000000
vn -0.499998028 -0.866026542 0.000000000
vn -0.499998028 0.866026542 -0.000001500
vn -0.000002217 0.000000918 -1.000000000
vn -0.000000443 0.000000443 -1.000000000
vn 0.000000000 0.000000000 -1.000000000
vn 0.000000000 0.000000000 1.000000000
vn 0.000000066 0.000000114 -1.000000000
vn 0.000000162 0.000000094 -1.000000000
vn 0.000000162 0.000000094 -1.000000000
vn 0.000000162 0.000000094 -1.000000000
vn 0.000000197 -0.000000114 -1.000000000
vn 0.499997264 -0.866026983 0.000000000
vn 0.499997264 0.866026983 0.000000000
vn 0.499997264 0.866026983 0.000000000
vn 0.499998792 -0.866026101 0.000001500
vn 0.793353281 -0.608761507 0.000000000
vn 0.793353741 0.608760907 0.000000000
vn 0.793353741 0.608760907 0.000000000
vn 0.923879524 -0.382683453 0.000000000
vn 0.923879615 0.382683233 0.000000000
vn 0.923879615 0.382683233 0.000000000
vn 0.991444698 0.130527432 0.000000821
vn 0.991444730 -0.130527191 0.000000000
vn 0.991444795 0.130526696 0.000001983
vn 0.991444821 -0.130526501 0.000000000
vn 0.991444859 0.130526211 0.000000000
vn 0.991444891 -0.130525970 0.000000821
vn 0.991444990 0.130525215 0.000000000
vn 0.991445016 -0.130525019 0.000001983
vn 1.000000000 -0.000003529 0.000000000
vn 1.000000000 0.000000000 0.000003000
usemtl dvss_1
f 1/1/1 2/2/1 3/3/1 4/4/1
f 5/1/4 2/2/4 1/3/4
f 6/1/2 7/2/2 8/3/2
f 9/1/3 6/2/3 8/3/3 10/4/3
f 10/1/14 8/2/14 11/3/14
f 10/1/17 11/2/17 12/3/17
f 13/1/7 4/2/7 3/3/7
f 3/1/7 14/2/7 11/3/7
f 15/1/7 11/2/7 8/3/7 7/4/7
f 13/1/7 3/2/7 11/3/7 15/4/7
f 12/1/33 11/2/33 14/3/33
f 12/1/32 14/2/32 16/3/32
f 16/1/16 14/2/16 3/3/16
f 16/1/15 3/2/15 2/3/15
f 17/1/8 16/2/8 2/3/8 5/4/8
f 18/1/8 9/2/8 10/3/8
f 10/1/8 12/2/8 16/3/8
f 17/1/8 18/2/8 10/3/8 16/4/8
usemtl dvss_3
f 19/1/27 20/2/27 21/3/27
f 22/1/31 19/2/31 21/3/31 23/4/31
f 24/1/26 23/2/26 21/3/26 25/4/26
f 26/1/30 23/2/30 24/3/30
f 27/1/7 25/2/7 21/3/7
f 28/1/7 21/2/7 20/3/7
f 29/1/7 27/2/7 21/3/7
f 30/1/7 21/2/7 28/3/7
f 31/1/7 29/2/7 21/3/7
f 32/1/13 21/2/13 30/3/13
f 31/1/9 21/2/9 32/3/9
f 22/1/8 23/2/8 26/3/8
usemtl dvss_5
f 33/1/18 34/2/18 35/3/18
f 36/1/18 33/2/18 35/3/18 37/4/18
f 37/1/21 35/2/21 38/3/21
f 37/1/21 38/2/21 39/3/21
f 39/1/25 38/2/25 40/3/25
f 39/1/29 40/2/29 41/3/29
f 41/1/24 40/2/24 42/3/24
f 41/1/28 42/2/28 43/3/28
f 43/1/22 42/2/22 44/3/22
f 43/1/23 44/2/23 45/3/23
f 46/1/19 45/2/19 44/3/19 47/4/19
f 48/1/20 45/2/20 46/3/20
f 49/1/7 47/2/7 44/3/7
f 44/1/7 42/2/7 40/3/7
f 40/1/5 38/2/5 35/3/5
f 50/1/7 35/2/7 34/3/7
f 51/1/7 49/2/7 44/3/7 40/4/7
f 52/1/6 40/2/6 35/3/6 50/4/6
f 53/1/11 51/2/11 40/3/11
f 54/1/12 40/2/12 52/3/12
f 53/1/10 40/2/10 54/3/10
f 55/1/8 36/2/8 37/3/8 39/4/8
f 39/1/8 41/2/8 43/3/8
f 56/1/8 43/2/8 45/3/8 48/4/8
f 57/1/8 55/2/8 39/3/8 43/4/8
f 58/1/8 43/2/8 56/3/8
f 57/1/8 43/2/8 58/3/8
