# Generated by tools-import-turbines.py; estimated STEP scale.
mtllib materials.mtl
s off
v 0.168749707 1.000000000 1.000000000
v 0.230049559 1.000000000 0.967234584
v 0.168749707 0.645433838 1.000000000
v 0.168749707 0.633333400 1.000000000
v 0.270389800 1.000000000 0.945672300
v 0.270389800 0.633333400 0.945672300
v 0.339174044 1.000000000 0.924806821
v 0.382945800 1.000000000 0.911528800
v 0.382945800 0.633333400 0.911528800
v 0.454478945 1.000000000 0.904483420
v 0.500000000 1.000000000 0.900000000
v 0.500000000 0.633333400 0.900000000
v 0.571533145 1.000000000 0.907045380
v 0.617054200 1.000000000 0.911528800
v 0.617054200 0.633333400 0.911528800
v 0.685838322 1.000000000 0.932394279
v 0.729610000 1.000000000 0.945672300
v 0.729610000 0.633333400 0.945672300
v 0.793001859 1.000000000 0.979555916
v 0.831250093 0.633333400 1.000000000
v 0.831250093 1.000000000 1.000000000
v 0.169357276 0.633333400 1.000000000
v 0.830642527 0.633333400 1.000000000
v 0.250539320 0.633333400 1.000000000
v 0.827720529 0.633333400 1.000000000
v 0.323831234 0.633333400 1.000000000
v 0.515352308 0.633333400 1.000000000
v 0.400543816 0.633333400 1.000000000
v 0.010150484 0.000000000 0.030366350
v 0.000000000 0.000000000 0.034570817
v 0.000000000 0.050000000 0.034570817
v 0.021023500 0.050000000 0.025862600
v 0.021023500 0.000000000 0.025862600
v 0.128748646 0.000000000 0.000000000
v 0.128748646 0.050000000 0.000000000
v 0.967532501 0.000000000 0.023114914
v 0.871251833 0.000000000 0.000000000
v 0.871251833 0.050000000 0.000000000
v 0.978976200 0.050000000 0.025862300
v 0.978976200 0.000000000 0.025862300
v 1.000000000 0.000000000 0.034570659
v 1.000000000 0.050000000 0.034570659
v 1.000000000 0.050000000 0.036574458
v 0.815687829 0.050000000 0.000000000
v 0.184313085 0.050000000 0.000000000
v 0.000000000 0.050000000 0.036574603
v 1.000000000 0.050000000 0.041136982
v 0.000000000 0.050000000 0.041137068
v 1.000000000 0.050000000 0.343951103
v 0.000000000 0.050000000 0.054798970
v 0.000000000 0.050000000 1.000000000
v 0.488841477 0.050000000 1.000000000
v 1.000000000 0.050000000 0.833914430
v 1.000000000 0.050000000 1.000000000
v 0.000000000 0.686000462 0.375527592
v 0.000000000 0.716666500 0.375527592
v 0.028023500 0.716666500 0.360548700
v 0.000000000 0.483332900 0.375527592
v 0.028023500 0.483332900 0.360548700
v 0.259388400 0.716666500 0.290364900
v 0.259388400 0.483332900 0.290364900
v 0.499999800 0.716666500 0.266666700
v 0.499999800 0.483332900 0.266666700
v 0.740611300 0.716666500 0.290364900
v 0.740611300 0.483332900 0.290364900
v 0.971976000 0.716666500 0.360548500
v 0.971976000 0.483332900 0.360548500
v 1.000000000 0.513999456 0.375527645
v 1.000000000 0.716666500 0.375527645
v 1.000000000 0.483332900 0.375527645
v 1.000000000 0.716666500 0.379273524
v 0.000000000 0.716666500 0.379273408
v 1.000000000 0.716666500 0.388572487
v 0.000000000 0.716666500 0.388572213
v 1.000000000 0.716666500 0.428204383
v 0.000000000 0.716666500 0.763154368
v 0.707106665 0.716666500 1.000000000
v 1.000000000 0.716666500 1.000000000
v 0.000000000 0.716666500 1.000000000
v 0.000000000 0.483332900 0.397807179
v 1.000000000 0.483332900 0.397807186
v 0.000000000 0.483332900 0.463682733
v 1.000000000 0.483332900 0.437681632
v 0.000000000 0.483332900 0.678567220
v 1.000000000 0.483332900 0.785225598
v 0.400543732 0.483332900 1.000000000
v 0.000000000 0.483332900 1.000000000
v 1.000000000 0.483332900 1.000000000
v 0.000000000 0.700000000 0.733626212
v 0.032331700 0.700000000 0.711606500
v 0.000000000 0.998224461 0.657101816
v 0.000000000 0.700000000 0.657101797
v 0.000000000 0.911242318 0.657101824
v 1.000000000 0.894951666 0.683601731
v 0.967668100 0.700000000 0.711606500
v 1.000000000 0.700000000 0.733626325
v 1.000000000 0.998226306 0.657101479
v 1.000000000 0.700000000 0.695314385
v 1.000000000 0.700000000 0.657101506
v 1.000000000 0.911243417 0.657101540
v 0.000000000 0.199139617 0.225412627
v 0.000000000 0.283333300 0.322318930
v 0.103428100 0.283333300 0.279477600
v 0.000000000 0.033333300 0.034570817
v 0.021023500 0.033333300 0.025862600
v 0.299242300 0.283333300 0.232466600
v 0.128748646 0.033333300 0.000000000
v 0.262423162 0.062679197 0.000000000
v 0.287805166 0.064551947 0.000000000
v 0.499999800 0.283333300 0.216666700
v 0.499999800 0.080208294 0.000000000
v 0.535536302 0.077586320 0.000000000
v 0.700757300 0.283333300 0.232466600
v 0.737576336 0.062679281 0.000000000
v 0.757822163 0.058234684 0.000000000
v 0.896571600 0.283333300 0.279477400
v 0.871251833 0.033333300 0.000000000
v 0.978976200 0.033333300 0.025862300
v 1.000000000 0.084044430 0.092938764
v 1.000000000 0.283333300 0.322318776
v 1.000000000 0.033333300 0.034570659
v 1.000000000 0.283333300 0.332176786
v 0.000000000 0.283333300 0.332176819
v 1.000000000 0.283333300 0.354622484
v 0.000000000 0.283333300 0.354622522
v 1.000000000 0.283333300 0.570791245
v 0.000000000 0.283333300 0.421834195
v 0.000000000 0.283333300 1.000000000
v 0.755508276 0.283333300 1.000000000
v 1.000000000 0.283333300 0.920559782
v 1.000000000 0.283333300 1.000000000
v 0.162374074 0.033333300 0.000000000
v 0.000000000 0.033333300 0.052758594
v 1.000000000 0.033333300 0.052758601
v 0.837625798 0.033333300 0.000000000
v 0.196848599 0.033333300 0.000000000
v 0.000000000 0.033333300 0.100299424
v 1.000000000 0.033333300 0.086679365
v 0.452728025 0.033333300 0.000000000
v 1.000000000 0.033333300 0.151200460
v 0.000000000 0.033333300 0.309585027
v 1.000000000 0.033333300 1.000000000
v 0.573730915 0.033333300 1.000000000
v 0.000000000 0.033333300 0.707669654
v 0.000000000 0.033333300 1.000000000
v 0.016686254 0.282553943 0.000000000
v 0.000000000 0.271318265 0.005061720
v 0.000000000 0.399999900 0.005061720
v 0.016686254 0.399999900 0.000000000
v 0.016686254 0.200000000 0.000000000
v 0.000000000 0.200000000 0.005061720
v 1.000000000 0.328681928 0.005061688
v 0.983313828 0.317446310 0.000000000
v 0.983313828 0.399999900 0.000000000
v 1.000000000 0.399999900 0.005061688
v 1.000000000 0.200000000 0.005061688
v 0.983313828 0.200000000 0.000000000
v 0.918944891 0.399999900 0.000000000
v 1.000000000 0.399999900 0.016122852
v 0.000000000 0.399999900 0.016122938
v 0.081055404 0.399999900 0.000000000
v 0.000000000 0.399999900 0.037190883
v 1.000000000 0.399999900 0.037190717
v 0.000000000 0.399999900 0.495275930
v 1.000000000 0.399999900 0.081062265
v 1.000000000 0.399999900 1.000000000
v 1.000000000 0.399999900 0.292892918
v 0.707106729 0.399999900 1.000000000
v 0.000000000 0.399999900 1.000000000
v 0.063371006 0.200000000 0.000000000
v 0.000000000 0.200000000 0.026249131
v 1.000000000 0.200000000 0.026249191
v 0.936628811 0.200000000 0.000000000
v 0.111921567 0.200000000 0.000000000
v 0.000000000 0.200000000 0.074783626
v 1.000000000 0.200000000 0.107988840
v 0.457103031 0.200000000 0.000000000
v 0.155753545 0.200000000 0.000000000
v 0.000000000 0.200000000 0.233101721
v 1.000000000 0.200000000 0.487575100
v 0.270292084 0.200000000 0.000000000
v 0.201631241 0.200000000 0.000000000
v 0.400543747 0.200000000 1.000000000
v 0.000000000 0.200000000 1.000000000
v 1.000000000 0.200000000 1.000000000
v 0.000000000 0.467883829 0.140546112
v 0.000000000 0.533333100 0.140546112
v 0.039298800 0.533333100 0.163235300
v 0.000000000 0.408333500 0.140546112
v 0.039298800 0.408333500 0.163235300
v 0.000000000 0.533333100 0.231302759
v 0.000000000 0.533333100 0.272591088
v 0.039298800 0.533333100 0.249901900
v 0.000000000 0.533333100 0.163235300
v 0.039298800 0.408333500 0.249901900
v 0.000000000 0.473782771 0.272591088
v 0.000000000 0.408333500 0.272591088
v 0.000000000 0.408333500 0.249901900
v 0.000000000 0.408333500 0.181834441
v 0.500000000 0.408333500 0.186666700
v 0.500000000 0.533333100 0.186666700
v 0.424944400 0.533333100 0.143333300
v 0.424944400 0.408333500 0.143333300
v 0.424944400 0.533333100 0.056666700
v 0.424944400 0.408333500 0.056666700
v 0.500000000 0.533333100 0.013333300
v 0.500000000 0.408333500 0.013333300
v 0.575055600 0.533333100 0.056666700
v 0.575055600 0.408333500 0.056666700
v 0.575055600 0.533333100 0.143333300
v 0.575055600 0.408333500 0.143333300
v 1.000000000 0.467883496 0.272591203
v 1.000000000 0.533333100 0.272591203
v 0.960701000 0.533333100 0.249901900
v 1.000000000 0.408333500 0.272591203
v 0.960701000 0.408333500 0.249901900
v 0.960701000 0.533333100 0.163235300
v 0.960701000 0.408333500 0.163235300
v 1.000000000 0.473783104 0.140545997
v 1.000000000 0.533333100 0.140545997
v 1.000000000 0.408333500 0.140545997
v 1.000000000 0.533333100 0.231303106
v 1.000000000 0.533333100 0.163235300
v 1.000000000 0.408333500 0.249901900
v 1.000000000 0.408333500 0.181834094
v 1.000000000 0.780514245 0.643661297
v 1.000000000 0.849999900 0.643661297
v 0.958277700 0.849999900 0.619572900
v 1.000000000 0.724999900 0.643661297
v 0.958277700 0.724999900 0.619572900
v 0.958277700 0.849999900 0.532906300
v 0.958277700 0.724999900 0.532906300
v 1.000000000 0.794485555 0.508817903
v 1.000000000 0.849999900 0.508817903
v 1.000000000 0.724999900 0.508817903
v 1.000000000 0.849999900 0.605171381
v 1.000000000 0.849999900 0.532906300
v 1.000000000 0.724999900 0.619572900
v 1.000000000 0.724999900 0.547307819
v 0.000000000 0.780514486 0.508817986
v 0.000000000 0.849999900 0.508817986
v 0.041722100 0.849999900 0.532906300
v 0.000000000 0.724999900 0.508817986
v 0.041722100 0.724999900 0.532906300
v 0.000000000 0.849999900 0.605171131
v 0.000000000 0.849999900 0.643661214
v 0.041722100 0.849999900 0.619572900
v 0.000000000 0.849999900 0.532906300
v 0.041722100 0.724999900 0.619572900
v 0.000000000 0.794485314 0.643661214
v 0.000000000 0.724999900 0.643661214
v 0.000000000 0.724999900 0.619572900
v 0.000000000 0.724999900 0.547308069
v 0.500000000 0.724999900 0.520000000
v 0.500000000 0.849999900 0.520000000
v 0.424944400 0.849999900 0.476666600
v 0.424944400 0.724999900 0.476666600
v 0.424944400 0.849999900 0.390000000
v 0.424944400 0.724999900 0.390000000
v 0.500000000 0.849999900 0.346666600
v 0.500000000 0.724999900 0.346666600
v 0.575055600 0.849999900 0.390000000
v 0.575055600 0.724999900 0.390000000
v 0.575055600 0.849999900 0.476666600
v 0.575055600 0.724999900 0.476666600
vt 0 0
vt 1 0
vt 1 1
vt 0 1
vn -1.000000000 0.000000000 0.000000000
vn -0.860065532 0.000000082 -0.510183575
vn -0.860064780 -0.000000360 -0.510184843
vn -0.550658416 0.207470459 0.808536528
vn -0.550657819 0.207470420 0.808536945
vn -0.500000252 0.000000000 0.866025258
vn -0.500000252 0.000000000 -0.866025258
vn -0.500000252 0.000000000 -0.866025258
vn -0.500000252 0.000000000 0.866025258
vn -0.500000252 0.000000000 -0.866025258
vn -0.500000252 0.000000000 0.866025258
vn -0.500000252 0.000000000 -0.866025258
vn -0.500000252 0.000000000 0.866025258
vn -0.471397211 0.000000000 -0.881921011
vn -0.471396323 0.000000000 -0.881921486
vn -0.382683378 0.000000000 -0.923879555
vn -0.290284771 0.000000000 -0.956940307
vn -0.290284760 0.000000000 -0.956940311
vn -0.290284706 0.000000000 -0.956940327
vn -0.262162800 0.728482609 -0.632916863
vn -0.262162734 0.728482572 -0.632916932
vn -0.233446053 0.000000000 -0.972369755
vn -0.159925638 0.728482575 -0.666135818
vn -0.159925572 0.728482543 -0.666135869
vn -0.098017327 0.000000000 -0.995184708
vn -0.098016867 0.000000000 -0.995184754
vn -0.053749604 0.728482661 -0.682952409
vn -0.053749335 0.728482544 -0.682952555
vn -0.000000000 1.000000000 0.000000000
vn 0.000000000 -1.000000000 0.000000000
vn 0.000000000 1.000000000 0.000000000
vn 0.000000000 -1.000000000 0.000000000
vn 0.053749324 0.728482672 -0.682952419
vn 0.053749345 0.728482663 -0.682952427
vn 0.098016867 0.000000000 -0.995184754
vn 0.098017287 0.000000000 -0.995184712
vn 0.159924880 0.728482670 -0.666135896
vn 0.159924896 0.728482664 -0.666135899
vn 0.233445089 0.000000000 -0.972369986
vn 0.262162350 0.728482705 -0.632916938
vn 0.262163261 0.728482358 -0.632916961
vn 0.290284244 0.000000000 -0.956940467
vn 0.290284321 0.000000000 -0.956940444
vn 0.290285233 0.000000000 -0.956940167
vn 0.382684020 0.000000000 -0.923879289
vn 0.471396323 0.000000000 -0.881921486
vn 0.471396867 0.000000000 -0.881921195
vn 0.500000252 0.000000000 -0.866025258
vn 0.500000252 0.000000000 0.866025258
vn 0.500000252 0.000000000 -0.866025258
vn 0.500000252 0.000000000 0.866025258
vn 0.500000252 0.000000000 0.866025258
vn 0.500000252 0.000000000 -0.866025258
vn 0.500000752 0.000000000 -0.866024970
vn 0.500000752 0.000000000 0.866024970
vn 0.550658820 0.207470405 0.808536267
vn 0.860065532 -0.000000047 -0.510183575
vn 0.860065720 0.000000064 -0.510183258
vn 1.000000000 0.000000000 0.000000000
usemtl dvss_1
f 1/1/15 2/2/15 3/3/15
f 4/1/15 3/2/15 2/3/15
f 4/1/15 2/2/15 5/3/15
f 4/1/15 5/2/15 6/3/15
f 7/1/18 6/2/18 5/3/18
f 6/1/18 7/2/18 8/3/18 9/4/18
f 10/1/26 9/2/26 8/3/26
f 9/1/26 10/2/26 11/3/26 12/4/26
f 13/1/35 12/2/35 11/3/35
f 12/1/35 13/2/35 14/3/35 15/4/35
f 16/1/44 15/2/44 14/3/44
f 15/1/44 16/2/44 17/3/44 18/4/44
f 19/1/46 18/2/46 17/3/46
f 20/1/46 18/2/46 19/3/46 21/4/46
f 22/1/30 4/2/30 6/3/30 9/4/30
f 9/1/30 12/2/30 15/3/30
f 23/1/30 15/2/30 18/3/30 20/4/30
f 24/1/30 22/2/30 9/3/30
f 25/1/30 9/2/30 15/3/30 23/4/30
f 26/1/30 24/2/30 9/3/30
f 27/1/30 9/2/30 25/3/30
f 28/1/30 26/2/30 9/3/30
f 28/1/30 9/2/30 27/3/30
usemtl dvss_4
f 29/1/16 30/2/16 31/3/16 32/4/16
f 29/1/16 32/2/16 33/3/16
f 34/1/22 33/2/22 32/3/22 35/4/22
f 36/1/39 37/2/39 38/3/39 39/4/39
f 36/1/39 39/2/39 40/3/39
f 41/1/45 40/2/45 39/3/45 42/4/45
f 43/1/31 42/2/31 39/3/31
f 44/1/31 39/2/31 38/3/31
f 45/1/31 35/2/31 32/3/31
f 46/1/31 32/2/31 31/3/31
f 47/1/31 43/2/31 39/3/31
f 39/1/31 44/2/31 45/3/31 32/4/31
f 48/1/31 32/2/31 46/3/31
f 49/1/31 47/2/31 39/3/31 32/4/31
f 50/1/31 32/2/31 48/3/31
f 51/1/29 52/2/29 53/3/29
f 51/1/29 53/2/29 49/3/29
f 51/1/29 49/2/29 32/3/29
f 51/1/29 32/2/29 50/3/29
f 54/1/31 53/2/31 52/3/31
f 55/1/14 56/2/14 57/3/14
f 58/1/14 55/2/14 57/3/14 59/4/14
f 59/1/17 57/2/17 60/3/17
f 59/1/17 60/2/17 61/3/17
f 61/1/25 60/2/25 62/3/25
f 61/1/25 62/2/25 63/3/25
f 63/1/36 62/2/36 64/3/36
f 63/1/36 64/2/36 65/3/36
f 65/1/42 64/2/42 66/3/42
f 65/1/42 66/2/42 67/3/42
f 68/1/47 67/2/47 66/3/47 69/4/47
f 70/1/47 67/2/47 68/3/47
f 71/1/31 69/2/31 66/3/31
f 66/1/31 64/2/31 62/3/31
f 62/1/31 60/2/31 57/3/31
f 72/1/31 57/2/31 56/3/31
f 73/1/31 71/2/31 66/3/31
f 66/1/31 62/2/31 57/3/31
f 74/1/31 57/2/31 72/3/31
f 75/1/31 73/2/31 66/3/31
f 76/1/31 66/2/31 57/3/31 74/4/31
f 77/1/31 78/2/31 75/3/31 66/4/31
f 77/1/31 66/2/31 76/3/31 79/4/31
f 80/1/30 58/2/30 59/3/30 61/4/30
f 61/1/30 63/2/30 65/3/30
f 81/1/30 65/2/30 67/3/30 70/4/30
f 82/1/30 80/2/30 61/3/30
f 83/1/30 61/2/30 65/3/30 81/4/30
f 84/1/30 82/2/30 61/3/30
f 85/1/30 61/2/30 83/3/30
f 86/1/30 87/2/30 84/3/30 61/4/30
f 86/1/30 61/2/30 85/3/30 88/4/30
f 89/1/56 90/2/56 91/3/56
f 89/1/30 92/2/30 90/3/30
f 93/1/58 90/2/58 92/3/58
f 91/1/57 90/2/57 93/3/57
f 94/1/4 95/2/4 96/3/4
f 97/1/5 95/2/5 94/3/5
f 98/1/30 95/2/30 99/3/30
f 96/1/30 95/2/30 98/3/30
f 100/1/3 95/2/3 97/3/3
f 99/1/2 95/2/2 100/3/2
f 101/1/20 102/2/20 103/3/20
f 104/1/21 101/2/21 103/3/21 105/4/21
f 105/1/23 103/2/23 106/3/23
f 107/1/24 105/2/24 106/3/24 108/4/24
f 109/1/28 108/2/28 106/3/28 110/4/28
f 109/1/27 110/2/27 111/3/27
f 112/1/33 111/2/33 110/3/33 113/4/33
f 112/1/34 113/2/34 114/3/34
f 115/1/38 114/2/38 113/3/38 116/4/38
f 117/1/37 115/2/37 116/3/37 118/4/37
f 119/1/40 118/2/40 116/3/40 120/4/40
f 121/1/41 118/2/41 119/3/41
f 122/1/31 120/2/31 116/3/31
f 116/1/31 113/2/31 110/3/31
f 110/1/31 106/2/31 103/3/31
f 123/1/31 103/2/31 102/3/31
f 124/1/31 122/2/31 116/3/31
f 116/1/31 110/2/31 103/3/31
f 125/1/31 103/2/31 123/3/31
f 126/1/31 124/2/31 116/3/31 103/4/31
f 127/1/31 103/2/31 125/3/31
f 128/1/31 129/2/31 130/3/31
f 128/1/31 130/2/31 126/3/31
f 128/1/31 126/2/31 103/3/31
f 128/1/31 103/2/31 127/3/31
f 131/1/31 130/2/31 129/3/31
f 132/1/30 133/2/30 104/3/30
f 132/1/30 104/2/30 105/3/30
f 132/1/30 105/2/30 107/3/30
f 134/1/30 135/2/30 117/3/30
f 134/1/30 117/2/30 118/3/30
f 134/1/30 118/2/30 121/3/30
f 136/1/30 137/2/30 133/3/30 132/4/30
f 138/1/30 139/2/30 135/3/30 134/4/30
f 140/1/30 141/2/30 137/3/30
f 140/1/30 137/2/30 136/3/30
f 140/1/30 136/2/30 139/3/30
f 140/1/30 139/2/30 138/3/30
f 142/1/32 143/2/32 144/3/32
f 142/1/32 144/2/32 141/3/32
f 142/1/32 141/2/32 140/3/32
f 145/1/30 144/2/30 143/3/30
usemtl dvss_5
f 146/1/19 147/2/19 148/3/19 149/4/19
f 150/1/19 151/2/19 147/3/19 146/4/19
f 152/1/43 153/2/43 154/3/43 155/4/43
f 156/1/43 157/2/43 153/3/43 152/4/43
f 158/1/31 159/2/31 155/3/31 154/4/31
f 160/1/31 161/2/31 149/3/31 148/4/31
f 162/1/31 163/2/31 159/3/31
f 162/1/31 159/2/31 158/3/31
f 162/1/31 158/2/31 161/3/31
f 162/1/31 161/2/31 160/3/31
f 164/1/31 165/2/31 163/3/31 162/4/31
f 166/1/31 167/2/31 168/3/31
f 169/1/31 168/2/31 167/3/31
f 169/1/31 167/2/31 165/3/31
f 169/1/31 165/2/31 164/3/31
f 170/1/30 171/2/30 151/3/30 150/4/30
f 172/1/30 173/2/30 157/3/30 156/4/30
f 174/1/30 175/2/30 171/3/30 170/4/30
f 176/1/30 177/2/30 173/3/30 172/4/30
f 178/1/30 179/2/30 175/3/30 174/4/30
f 180/1/30 181/2/30 177/3/30 176/4/30
f 182/1/30 183/2/30 184/3/30
f 182/1/30 184/2/30 179/3/30
f 182/1/30 179/2/30 178/3/30
f 183/1/30 182/2/30 181/3/30
f 183/1/30 181/2/30 180/3/30
f 183/1/30 180/2/30 185/3/30
f 186/1/48 187/2/48 188/3/48
f 189/1/48 186/2/48 188/3/48 190/4/48
f 191/1/31 192/2/31 193/3/31 188/4/31
f 194/1/31 188/2/31 187/3/31
f 191/1/31 188/2/31 194/3/31
f 190/1/59 188/2/59 193/3/59
f 190/1/59 193/2/59 195/3/59
f 196/1/52 195/2/52 193/3/52 192/4/52
f 197/1/52 195/2/52 196/3/52
f 198/1/30 195/2/30 197/3/30
f 199/1/30 189/2/30 190/3/30 195/4/30
f 198/1/30 199/2/30 195/3/30
f 200/1/11 201/2/11 202/3/11
f 200/1/11 202/2/11 203/3/11
f 203/1/1 202/2/1 204/3/1
f 203/1/1 204/2/1 205/3/1
f 205/1/7 204/2/7 206/3/7
f 205/1/7 206/2/7 207/3/7
f 207/1/53 206/2/53 208/3/53
f 207/1/53 208/2/53 209/3/53
f 204/1/31 202/2/31 201/3/31
f 201/1/31 210/2/31 208/3/31
f 208/1/31 206/2/31 204/3/31
f 201/1/31 208/2/31 204/3/31
f 209/1/59 208/2/59 210/3/59
f 209/1/59 210/2/59 211/3/59
f 211/1/49 210/2/49 201/3/49
f 211/1/49 201/2/49 200/3/49
f 211/1/30 200/2/30 203/3/30
f 203/1/30 205/2/30 207/3/30
f 207/1/30 209/2/30 211/3/30
f 203/1/30 207/2/30 211/3/30
f 212/1/6 213/2/6 214/3/6
f 215/1/6 212/2/6 214/3/6 216/4/6
f 216/1/1 214/2/1 217/3/1
f 216/1/1 217/2/1 218/3/1
f 219/1/10 218/2/10 217/3/10 220/4/10
f 221/1/10 218/2/10 219/3/10
f 222/1/31 217/2/31 214/3/31 213/4/31
f 223/1/31 220/2/31 217/3/31
f 222/1/31 223/2/31 217/3/31
f 224/1/30 215/2/30 216/3/30
f 225/1/30 216/2/30 218/3/30 221/4/30
f 224/1/30 216/2/30 225/3/30
f 226/1/13 227/2/13 228/3/13
f 229/1/13 226/2/13 228/3/13 230/4/13
f 230/1/1 228/2/1 231/3/1
f 230/1/1 231/2/1 232/3/1
f 233/1/12 232/2/12 231/3/12 234/4/12
f 235/1/12 232/2/12 233/3/12
f 236/1/31 231/2/31 228/3/31 227/4/31
f 237/1/31 234/2/31 231/3/31
f 236/1/31 237/2/31 231/3/31
f 238/1/30 229/2/30 230/3/30
f 239/1/30 230/2/30 232/3/30 235/4/30
f 238/1/30 230/2/30 239/3/30
f 240/1/54 241/2/54 242/3/54
f 243/1/54 240/2/54 242/3/54 244/4/54
f 245/1/31 246/2/31 247/3/31 242/4/31
f 248/1/31 242/2/31 241/3/31
f 245/1/31 242/2/31 248/3/31
f 244/1/59 242/2/59 247/3/59
f 244/1/59 247/2/59 249/3/59
f 250/1/55 249/2/55 247/3/55 246/4/55
f 251/1/55 249/2/55 250/3/55
f 252/1/30 249/2/30 251/3/30
f 253/1/30 243/2/30 244/3/30 249/4/30
f 252/1/30 253/2/30 249/3/30
f 254/1/9 255/2/9 256/3/9
f 254/1/9 256/2/9 257/3/9
f 257/1/1 256/2/1 258/3/1
f 257/1/1 258/2/1 259/3/1
f 259/1/8 258/2/8 260/3/8
f 259/1/8 260/2/8 261/3/8
f 261/1/50 260/2/50 262/3/50
f 261/1/50 262/2/50 263/3/50
f 258/1/31 256/2/31 255/3/31
f 255/1/31 264/2/31 262/3/31
f 262/1/31 260/2/31 258/3/31
f 255/1/31 262/2/31 258/3/31
f 263/1/59 262/2/59 264/3/59
f 263/1/59 264/2/59 265/3/59
f 265/1/51 264/2/51 255/3/51
f 265/1/51 255/2/51 254/3/51
f 265/1/30 254/2/30 257/3/30
f 257/1/30 259/2/30 261/3/30
f 261/1/30 263/2/30 265/3/30
f 257/1/30 261/2/30 265/3/30
