# Generated by tools-import-turbines.py; estimated STEP scale.
mtllib materials.mtl
s off
v 0.600000000 0.260119073 0.000000000
v 0.600000000 0.192261917 1.000000000
v 0.600000000 0.316666700 1.000000000
v 0.600000000 0.316666700 0.000000000
v 0.600000000 0.000000000 0.000000000
v 0.600000000 0.000000000 1.000000000
v 1.000000000 0.000000000 0.000000000
v 1.000000000 0.000000000 1.000000000
v 0.783333318 0.000000000 1.000000000
v 0.683333325 0.000000000 0.000000000
v 0.883333282 0.316666700 1.000000000
v 0.983333275 0.316666700 0.000000000
v 1.000000000 0.316666700 1.000000000
v 1.000000000 0.316666700 0.000000000
v 1.000000000 0.717789118 0.000000000
v 1.000000000 0.751159751 0.013548915
v 0.991048589 0.710775745 0.000000000
v 1.000000000 1.000000000 0.114581311
v 0.972733344 1.000000000 0.123255063
v 0.862252640 0.609865018 0.000000000
v 0.940085699 1.000000000 0.106436283
v 0.856750138 0.626535337 0.000000000
v 0.857024722 1.000000000 0.063646540
v 0.799974615 0.798541814 0.000000000
v 0.844922453 1.000000000 0.032117798
v 0.812028673 0.872987821 0.000000000
v 0.832594097 1.000000000 0.000000000
v 0.400000000 0.258333284 0.000000000
v 0.400000000 0.150000000 0.199999900
v 0.400000000 0.583333300 0.199999900
v 0.400000000 0.583333300 0.000000000
v 0.400000000 0.150000000 0.000000000
v 1.000000000 0.283333335 0.199999900
v 1.000000000 0.583333300 0.199999900
v 1.000000000 0.150000000 0.199999900
v 1.000000000 0.150000000 0.000000000
v 0.616666594 0.583333300 0.000000000
v 1.000000000 0.583333300 0.000000000
vt 0 0
vt 1 0
vt 1 1
vt 0 1
vn -1.000000000 0.000000000 0.000000000
vn -0.923098413 0.149465275 0.354329581
vn -0.923098236 0.149465093 0.354330118
vn -0.452818658 -0.149465395 0.878985414
vn -0.452818658 -0.149465395 0.878985414
vn 0.000000000 -1.000000000 0.000000000
vn 0.000000000 0.000000000 1.000000000
vn 0.000000000 1.000000000 0.000000000
vn 0.282716731 -0.360841418 0.888743338
vn 0.282716950 -0.360841440 0.888743259
usemtl dvss_1
f 1/1/1 2/2/1 3/3/1 4/4/1
f 5/1/1 6/2/1 2/3/1 1/4/1
f 7/1/6 8/2/6 9/3/6 10/4/6
f 6/1/6 5/2/6 10/3/6 9/4/6
f 11/1/8 12/2/8 4/3/8 3/4/8
f 13/1/8 14/2/8 12/3/8 11/4/8
usemtl dvss_4
f 15/1/10 16/2/10 17/3/10
f 17/1/9 16/2/9 18/3/9
f 17/1/9 18/2/9 19/3/9
f 17/1/9 19/2/9 20/3/9
f 21/1/5 22/2/5 20/3/5 19/4/5
f 22/1/4 21/2/4 23/3/4 24/4/4
f 25/1/3 26/2/3 24/3/3 23/4/3
f 26/1/2 25/2/2 27/3/2
f 28/1/1 29/2/1 30/3/1 31/4/1
f 32/1/1 29/2/1 28/3/1
f 33/1/7 34/2/7 30/3/7
f 35/1/7 33/2/7 30/3/7 29/4/7
f 32/1/6 36/2/6 35/3/6 29/4/6
f 37/1/8 31/2/8 30/3/8
f 38/1/8 37/2/8 30/3/8 34/4/8
