# Generated by tools-import-turbines.py; estimated STEP scale.
mtllib materials.mtl
s off
v 0.475138196 1.000000000 0.183267540
v 0.331488276 0.000000000 0.017421817
v 0.274282068 0.000000000 0.101418188
v 0.442103629 1.000000000 0.231772481
v 0.525986451 1.000000000 0.108606271
v 0.343222489 0.000000000 0.000192293
v 0.667821541 1.000000000 0.314054655
v 0.530324509 0.000000000 0.139174843
v 0.543904589 0.000000000 0.119235138
v 0.726668551 1.000000000 0.227649266
v 0.626378182 1.000000000 0.374906386
v 0.458556734 0.000000000 0.244552243
v 0.382343628 1.000000000 0.299511493
v 0.260491299 0.000000000 0.117050268
v 0.193259270 0.000000000 0.193259270
v 0.343519503 1.000000000 0.343519503
v 0.557217718 1.000000000 0.453301028
v 0.442596627 0.000000000 0.262643314
v 0.508511006 1.000000000 0.508511006
v 0.358250847 0.000000000 0.358250847
v 0.275780491 1.000000000 0.403279504
v 0.177627190 0.000000000 0.207050039
v 0.101418188 0.000000000 0.274282068
v 0.231772481 1.000000000 0.442103629
v 0.430116364 1.000000000 0.577671470
v 0.340159776 0.000000000 0.374210955
v 0.374906386 1.000000000 0.626378182
v 0.244552243 0.000000000 0.458556734
v 0.157111212 1.000000000 0.492951884
v 0.084188664 0.000000000 0.286016281
v 0.000192293 0.000000000 0.343222489
v 0.108606271 1.000000000 0.525986451
v 0.288500996 1.000000000 0.685225193
v 0.224612538 0.000000000 0.472136814
v 0.227649266 1.000000000 0.726668551
v 0.119235138 0.000000000 0.543904589
v 0.623818989 1.000000000 0.166639839
v 0.365799228 0.000000000 0.013584655
v 0.166639839 1.000000000 0.623818989
v 0.013584655 0.000000000 0.365799228
vt 0 0
vt 1 0
vt 1 1
vt 0 1
vn -0.860065755 0.000000175 0.510183199
vn -0.860065003 -0.000000267 0.510184467
vn -0.808537679 0.207470437 -0.550656735
vn -0.808536513 0.207470546 -0.550658405
vn -0.733575873 0.207470436 -0.647164937
vn -0.733574528 0.207470544 -0.647166428
vn -0.647166440 0.207470462 -0.733574541
vn -0.647164919 0.207470570 -0.733575852
vn -0.550658422 0.207470411 -0.808536537
vn -0.550656725 0.207470521 -0.808537664
vn 0.510183199 0.000000175 -0.860065755
vn 0.510184467 -0.000000267 -0.860065003
vn 0.550657865 -0.207470498 0.808536893
vn 0.550659237 -0.207470393 0.808535986
vn 0.647166038 -0.207470379 0.733574919
vn 0.647166272 -0.207470359 0.733574718
vn 0.733574715 -0.207470375 0.647166270
vn 0.733574922 -0.207470356 0.647166041
vn 0.808535972 -0.207470478 0.550659226
vn 0.808536915 -0.207470372 0.550657881
usemtl dvss_4
f 1/1/4 2/2/4 3/3/4 4/4/4
f 5/1/3 6/2/3 2/3/3 1/4/3
f 7/1/19 8/2/19 9/3/19 10/4/19
f 8/1/20 7/2/20 11/3/20 12/4/20
f 13/1/5 14/2/5 15/3/5 16/4/5
f 4/1/6 3/2/6 14/3/6 13/4/6
f 17/1/17 18/2/17 12/3/17 11/4/17
f 18/1/18 17/2/18 19/3/18 20/4/18
f 21/1/8 22/2/8 23/3/8 24/4/8
f 16/1/7 15/2/7 22/3/7 21/4/7
f 25/1/16 26/2/16 20/3/16 19/4/16
f 26/1/15 25/2/15 27/3/15 28/4/15
f 29/1/9 30/2/9 31/3/9 32/4/9
f 24/1/10 23/2/10 30/3/10 29/4/10
f 33/1/14 34/2/14 28/3/14 27/4/14
f 34/1/13 33/2/13 35/3/13 36/4/13
f 37/1/12 38/2/12 6/3/12 5/4/12
f 38/1/11 37/2/11 10/3/11 9/4/11
f 39/1/1 40/2/1 36/3/1 35/4/1
f 32/1/2 31/2/2 40/3/2 39/4/2
