# Generated by tools-import-turbines.py; estimated STEP scale.
mtllib materials.mtl
s off
v 0.451770799 0.561393258 1.000000000
v 0.451770799 0.591666200 1.000000000
v 0.481454400 0.591666200 0.975639300
v 0.451770799 0.308333400 1.000000000
v 0.481454400 0.308333400 0.975639300
v 0.798413400 0.591666200 0.806221100
v 0.798413400 0.308333400 0.806221100
v 1.000000000 0.474406798 0.745070493
v 1.000000000 0.591666200 0.745070493
v 1.000000000 0.308333400 0.745070493
v 1.000000000 0.591666200 0.766122949
v 0.508402842 0.591666200 1.000000000
v 1.000000000 0.591666200 0.806221071
v 0.604634559 0.591666200 1.000000000
v 1.000000000 0.591666200 1.000000000
v 0.457093700 0.308333400 1.000000000
v 1.000000000 0.308333400 0.760850661
v 1.000000000 0.308333400 0.796998575
v 0.696186906 0.308333400 1.000000000
v 1.000000000 0.308333400 0.914912148
v 0.943146132 0.308333400 1.000000000
v 1.000000000 0.308333400 1.000000000
v 0.799894800 0.649514361 1.000000000
v 0.799894800 0.724999900 1.000000000
v 0.799894800 0.724999900 0.947663400
v 0.799894800 0.599999900 1.000000000
v 0.799894800 0.599999900 0.947663400
v 0.874950300 0.724999900 0.904330100
v 0.874950300 0.599999900 0.904330100
v 0.950005800 0.724999900 0.947663400
v 0.950005800 0.599999900 0.947663400
v 0.830111336 0.724999900 1.000000000
v 0.919789264 0.724999900 1.000000000
v 0.950005800 0.724999900 1.000000000
v 0.950005800 0.675485439 1.000000000
v 0.950005800 0.599999900 1.000000000
v 0.819715241 0.599999900 1.000000000
v 0.930185359 0.599999900 1.000000000
vt 0 0
vt 1 0
vt 1 1
vt 0 1
vn -1.000000000 0.000000000 0.000000000
vn -0.634393252 0.000000000 -0.773010480
vn -0.499999886 0.000000000 -0.866025469
vn -0.471396920 0.000000000 -0.881921166
vn -0.290284590 0.000000000 -0.956940362
vn 0.000000000 -1.000000000 0.000000000
vn 0.000000000 1.000000000 0.000000000
vn 0.499999886 0.000000000 -0.866025469
vn 1.000000000 0.000000000 0.000000000
usemtl dvss_5
f 1/1/2 2/2/2 3/3/2
f 4/1/2 1/2/2 3/3/2 5/4/2
f 5/1/4 3/2/4 6/3/4
f 5/1/4 6/2/4 7/3/4
f 8/1/5 7/2/5 6/3/5 9/4/5
f 10/1/5 7/2/5 8/3/5
f 11/1/7 9/2/7 6/3/7
f 12/1/7 6/2/7 3/3/7 2/4/7
f 13/1/7 11/2/7 6/3/7
f 14/1/7 6/2/7 12/3/7
f 15/1/7 13/2/7 6/3/7 14/4/7
f 16/1/6 4/2/6 5/3/6
f 17/1/6 5/2/6 7/3/6 10/4/6
f 18/1/6 19/2/6 16/3/6
f 18/1/6 16/2/6 5/3/6
f 18/1/6 5/2/6 17/3/6
f 20/1/6 21/2/6 19/3/6 18/4/6
f 22/1/6 21/2/6 20/3/6
f 23/1/1 24/2/1 25/3/1
f 26/1/1 23/2/1 25/3/1 27/4/1
f 27/1/3 25/2/3 28/3/3
f 27/1/3 28/2/3 29/3/3
f 29/1/8 28/2/8 30/3/8
f 29/1/8 30/2/8 31/3/8
f 32/1/7 25/2/7 24/3/7
f 33/1/7 34/2/7 30/3/7
f 30/1/7 28/2/7 25/3/7
f 32/1/7 33/2/7 30/3/7 25/4/7
f 35/1/9 31/2/9 30/3/9 34/4/9
f 36/1/9 31/2/9 35/3/9
f 37/1/6 26/2/6 27/3/6 29/4/6
f 38/1/6 29/2/6 31/3/6 36/4/6
f 37/1/6 29/2/6 38/3/6
