# Generated by tools-import-turbines.py; estimated STEP scale.
mtllib materials.mtl
s off
v 0.549243851 0.631277494 0.000000000
v 0.549243851 0.666667000 0.000000000
v 0.577859400 0.666667000 0.053535900
v 0.549243851 0.533333800 0.000000000
v 0.577859400 0.533333800 0.053535900
v 0.644249400 0.666667000 0.272394400
v 0.644249400 0.533333800 0.272394400
v 0.666666500 0.666667000 0.499999800
v 0.666666500 0.533333800 0.499999800
v 0.644249400 0.666667000 0.727605100
v 0.644249400 0.533333800 0.727605100
v 0.577859400 0.666667000 0.946463800
v 0.577859400 0.533333800 0.946463800
v 0.549243770 0.568723504 1.000000000
v 0.549243770 0.666667000 1.000000000
v 0.549243770 0.533333800 1.000000000
v 0.542087679 0.666667000 1.000000000
v 0.542087818 0.666667000 0.000000000
v 0.524323225 0.666667000 1.000000000
v 0.524323483 0.666667000 0.000000000
v 0.448611633 0.666667000 1.000000000
v 0.185821124 0.666667000 0.000000000
v 0.000000000 0.666667000 0.000000000
v 0.000000000 0.666667000 1.000000000
v 0.531419890 0.533333800 0.000000000
v 0.531419931 0.533333800 1.000000000
v 0.462241214 0.533333800 0.000000000
v 0.499519850 0.533333800 1.000000000
v 0.236582191 0.533333800 0.000000000
v 0.158079096 0.533333800 1.000000000
v 0.000000000 0.533333800 1.000000000
v 0.000000000 0.533333800 0.000000000
v 0.816410999 0.292456442 0.000000000
v 0.816410999 0.310833000 0.000000000
v 0.884541700 0.310833000 0.224597200
v 0.816410999 0.289165500 0.000000000
v 0.884541700 0.289165500 0.224597200
v 0.911666600 0.310833000 0.499999800
v 0.911666600 0.289165500 0.499999800
v 0.884542000 0.310833000 0.775402300
v 0.884542000 0.289165500 0.775402300
v 0.816410893 0.307542099 1.000000000
v 0.816410893 0.310833000 1.000000000
v 0.816410893 0.289165500 1.000000000
v 0.812210393 0.310833000 1.000000000
v 0.812210491 0.310833000 0.000000000
v 0.804209900 0.310833000 0.000000000
v 0.804209900 0.310833000 1.000000000
v 0.373336035 0.310833000 0.000000000
v 0.787549728 0.310833000 1.000000000
v 0.000000000 0.310833000 0.000000000
v 0.000000000 0.310833000 1.000000000
v 0.791510503 0.289165500 0.000000000
v 0.791510570 0.289165500 1.000000000
v 0.734470612 0.289165500 0.000000000
v 0.730304694 0.289165500 1.000000000
v 0.548408129 0.289165500 0.000000000
v 0.366434373 0.289165500 1.000000000
v 0.000000000 0.289165500 1.000000000
v 0.000000000 0.289165500 0.000000000
v 0.816410999 0.349123742 0.000000000
v 0.816410999 0.367500300 0.000000000
v 0.884541700 0.367500300 0.224597200
v 0.816410999 0.345832800 0.000000000
v 0.884541700 0.345832800 0.224597200
v 0.911666600 0.367500300 0.499999800
v 0.911666600 0.345832800 0.499999800
v 0.884542000 0.367500300 0.775402300
v 0.884542000 0.345832800 0.775402300
v 0.816410893 0.364209399 1.000000000
v 0.816410893 0.367500300 1.000000000
v 0.816410893 0.345832800 1.000000000
v 0.812210393 0.367500300 1.000000000
v 0.812210491 0.367500300 0.000000000
v 0.804209900 0.367500300 0.000000000
v 0.804209900 0.367500300 1.000000000
v 0.373336035 0.367500300 0.000000000
v 0.787549728 0.367500300 1.000000000
v 0.000000000 0.367500300 0.000000000
v 0.000000000 0.367500300 1.000000000
v 0.791510503 0.345832800 0.000000000
v 0.791510570 0.345832800 1.000000000
v 0.734470612 0.345832800 0.000000000
v 0.730304694 0.345832800 1.000000000
v 0.548408129 0.345832800 0.000000000
v 0.366434373 0.345832800 1.000000000
v 0.000000000 0.345832800 1.000000000
v 0.000000000 0.345832800 0.000000000
v 0.816410999 0.405790142 0.000000000
v 0.816410999 0.424166700 0.000000000
v 0.884541700 0.424166700 0.224597200
v 0.816410999 0.402499200 0.000000000
v 0.884541700 0.402499200 0.224597200
v 0.911666600 0.424166700 0.499999800
v 0.911666600 0.402499200 0.499999800
v 0.884542000 0.424166700 0.775402300
v 0.884542000 0.402499200 0.775402300
v 0.816410893 0.420875799 1.000000000
v 0.816410893 0.424166700 1.000000000
v 0.816410893 0.402499200 1.000000000
v 0.812210393 0.424166700 1.000000000
v 0.812210491 0.424166700 0.000000000
v 0.804209900 0.424166700 0.000000000
v 0.804209900 0.424166700 1.000000000
v 0.373336035 0.424166700 0.000000000
v 0.787549728 0.424166700 1.000000000
v 0.000000000 0.424166700 0.000000000
v 0.000000000 0.424166700 1.000000000
v 0.791510503 0.402499200 0.000000000
v 0.791510570 0.402499200 1.000000000
v 0.734470612 0.402499200 0.000000000
v 0.730304694 0.402499200 1.000000000
v 0.548408129 0.402499200 0.000000000
v 0.366434373 0.402499200 1.000000000
v 0.000000000 0.402499200 1.000000000
v 0.000000000 0.402499200 0.000000000
v 0.816410999 0.462457442 0.000000000
v 0.816410999 0.480834000 0.000000000
v 0.884541700 0.480834000 0.224597200
v 0.816410999 0.459166500 0.000000000
v 0.884541700 0.459166500 0.224597200
v 0.911666600 0.480834000 0.499999800
v 0.911666600 0.459166500 0.499999800
v 0.884542000 0.480834000 0.775402300
v 0.884542000 0.459166500 0.775402300
v 0.816410893 0.477543099 1.000000000
v 0.816410893 0.480834000 1.000000000
v 0.816410893 0.459166500 1.000000000
v 0.812210393 0.480834000 1.000000000
v 0.812210491 0.480834000 0.000000000
v 0.804209900 0.480834000 0.000000000
v 0.804209900 0.480834000 1.000000000
v 0.373336035 0.480834000 0.000000000
v 0.787549728 0.480834000 1.000000000
v 0.000000000 0.480834000 0.000000000
v 0.000000000 0.480834000 1.000000000
v 0.791510503 0.459166500 0.000000000
v 0.791510570 0.459166500 1.000000000
v 0.734470612 0.459166500 0.000000000
v 0.730304694 0.459166500 1.000000000
v 0.548408129 0.459166500 0.000000000
v 0.366434373 0.459166500 1.000000000
v 0.000000000 0.459166500 1.000000000
v 0.000000000 0.459166500 0.000000000
v 0.816410999 0.519122842 0.000000000
v 0.816410999 0.537499400 0.000000000
v 0.884541700 0.537499400 0.224597200
v 0.816410999 0.515831900 0.000000000
v 0.884541700 0.515831900 0.224597200
v 0.911666600 0.537499400 0.499999800
v 0.911666600 0.515831900 0.499999800
v 0.884542000 0.537499400 0.775402300
v 0.884542000 0.515831900 0.775402300
v 0.816410893 0.534208499 1.000000000
v 0.816410893 0.537499400 1.000000000
v 0.816410893 0.515831900 1.000000000
v 0.812210393 0.537499400 1.000000000
v 0.812210491 0.537499400 0.000000000
v 0.804209900 0.537499400 0.000000000
v 0.804209900 0.537499400 1.000000000
v 0.373336035 0.537499400 0.000000000
v 0.787549728 0.537499400 1.000000000
v 0.000000000 0.537499400 0.000000000
v 0.000000000 0.537499400 1.000000000
v 0.791510503 0.515831900 0.000000000
v 0.791510570 0.515831900 1.000000000
v 0.734470612 0.515831900 0.000000000
v 0.730304694 0.515831900 1.000000000
v 0.548408129 0.515831900 0.000000000
v 0.366434373 0.515831900 1.000000000
v 0.000000000 0.515831900 1.000000000
v 0.000000000 0.515831900 0.000000000
v 0.591786972 0.492938627 0.000000000
v 0.549243851 0.533332800 0.000000000
v 0.577859400 0.533332800 0.053535900
v 0.707106033 0.383444511 0.000000000
v 0.776120354 0.312342151 0.000000000
v 0.644249400 0.533332800 0.272394400
v 0.804277799 0.283332800 0.000000000
v 0.873099100 0.283332800 0.226873400
v 0.666666500 0.533332800 0.499999800
v 0.900000100 0.283332800 0.499999800
v 0.644249400 0.533332800 0.727605100
v 0.873099300 0.283332800 0.773126100
v 0.577859400 0.533332800 0.946463800
v 0.804277934 0.283332800 1.000000000
v 0.707107227 0.383443335 1.000000000
v 0.549243770 0.533332800 1.000000000
v 0.542087679 0.533332800 1.000000000
v 0.542087818 0.533332800 0.000000000
v 0.524323225 0.533332800 1.000000000
v 0.524323483 0.533332800 0.000000000
v 0.448611633 0.533332800 1.000000000
v 0.185821124 0.533332800 0.000000000
v 0.000000000 0.533332800 0.000000000
v 0.000000000 0.533332800 1.000000000
v 0.779125108 0.283332800 0.000000000
v 0.779125156 0.283332800 1.000000000
v 0.721507165 0.283332800 0.000000000
v 0.719314908 0.283332800 1.000000000
v 0.533558986 0.283332800 0.000000000
v 0.356512584 0.283332800 1.000000000
v 0.000000000 0.283332800 1.000000000
v 0.000000000 0.283332800 0.000000000
v 0.731742426 0.000000000 0.087097625
v 0.695665458 0.000000000 0.000000000
v 0.695665458 0.116666800 0.000000000
v 0.736373400 0.116666800 0.098277800
v 0.736373400 0.000000000 0.098277800
v 0.781169704 0.000000000 0.284867940
v 0.783994700 0.116666800 0.296634900
v 0.783994700 0.000000000 0.296634900
v 0.799050532 0.000000000 0.487935767
v 0.800000000 0.116666800 0.499999800
v 0.800000000 0.000000000 0.499999800
v 0.784944356 0.000000000 0.691300573
v 0.783994900 0.116666800 0.703364600
v 0.783994900 0.000000000 0.703364600
v 0.739198407 0.000000000 0.889955022
v 0.736373400 0.116666800 0.901722000
v 0.736373400 0.000000000 0.901722000
v 0.695665354 0.000000000 1.000000000
v 0.695665354 0.116666800 1.000000000
v 0.686298233 0.116666800 1.000000000
v 0.686298349 0.116666800 0.000000000
v 0.637540020 0.116666800 1.000000000
v 0.637540129 0.116666800 0.000000000
v 0.551722000 0.116666800 0.000000000
v 0.551722000 0.116666800 1.000000000
v 0.359826958 0.116666800 0.000000000
v 0.000000000 0.116666800 0.495259383
v 0.000000000 0.116666800 1.000000000
v 0.000000000 0.116666800 0.000000000
v 0.821610847 0.064636482 0.000000000
v 0.821610847 0.274999600 0.000000000
v 0.889445800 0.274999600 0.223621800
v 0.821610847 0.024999600 0.000000000
v 0.889445800 0.024999600 0.223621800
v 0.916666500 0.274999600 0.499999800
v 0.916666500 0.024999600 0.499999800
v 0.889445800 0.274999600 0.776377700
v 0.889445800 0.024999600 0.776377700
v 0.821610746 0.235363030 1.000000000
v 0.821610746 0.274999600 1.000000000
v 0.821610746 0.024999600 1.000000000
v 0.817210421 0.274999600 1.000000000
v 0.817210482 0.274999600 0.000000000
v 0.808829300 0.274999600 0.000000000
v 0.808829300 0.274999600 1.000000000
v 0.377162918 0.274999600 0.000000000
v 0.791376494 0.274999600 1.000000000
v 0.000000000 0.274999600 0.000000000
v 0.000000000 0.274999600 1.000000000
v 0.796818617 0.024999600 0.000000000
v 0.796818428 0.024999600 1.000000000
v 0.740026432 0.024999600 0.000000000
v 0.735014598 0.024999600 1.000000000
v 0.554772002 0.024999600 0.000000000
v 0.370686664 0.024999600 1.000000000
v 0.000000000 0.024999600 1.000000000
v 0.000000000 0.024999600 0.000000000
vt 0 0
vt 1 0
vt 1 1
vt 0 1
vn 0.000000000 -1.000000000 0.000000000
vn 0.000000000 1.000000000 0.000000000
vn 0.646179904 0.680556325 -0.345390533
vn 0.646180199 0.680556151 -0.345390325
vn 0.646180206 0.680556444 0.345389733
vn 0.701146135 0.680556400 0.212690111
vn 0.701146144 0.680556375 0.212690163
vn 0.701146360 0.680556064 -0.212690447
vn 0.701146378 0.680556051 -0.212690428
vn 0.729167128 0.680556764 -0.071817755
vn 0.729167195 0.680556826 0.071816491
vn 0.729167500 0.680556416 0.071817284
vn 0.729167903 0.680556064 -0.071816529
vn 0.881921163 0.000000000 -0.471396926
vn 0.881921709 0.000000000 0.471395906
vn 0.923879647 0.000000000 0.382683156
vn 0.923879719 0.000000000 -0.382682982
vn 0.956940170 0.000000000 0.290285223
vn 0.956940170 0.000000000 0.290285223
vn 0.956940170 0.000000000 0.290285223
vn 0.956940310 0.000000000 -0.290284762
vn 0.956940336 0.000000000 -0.290284677
vn 0.956940371 0.000000000 0.290284562
vn 0.956940410 0.000000000 0.290284434
vn 0.956940471 0.000000000 -0.290284230
vn 0.956940471 0.000000000 -0.290284230
vn 0.972369807 0.000000000 0.233445835
vn 0.972369950 0.000000000 -0.233445241
vn 0.995184687 0.000000000 -0.098017539
vn 0.995184687 0.000000000 -0.098017539
vn 0.995184755 0.000000000 0.098016857
vn 0.995184759 0.000000000 -0.098016814
vn 0.995184778 0.000000000 0.098016615
vn 0.995184782 0.000000000 -0.098016580
vn 0.995184790 0.000000000 0.098016501
vn 0.995184790 0.000000000 0.098016501
vn 0.996917282 0.000000000 -0.078459755
vn 0.996917356 0.000000000 0.078458819
usemtl dvss_1
f 1/1/14 2/2/14 3/3/14
f 4/1/14 1/2/14 3/3/14 5/4/14
f 5/1/22 3/2/22 6/3/22
f 5/1/22 6/2/22 7/3/22
f 7/1/32 6/2/32 8/3/32
f 7/1/32 8/2/32 9/3/32
f 9/1/31 8/2/31 10/3/31
f 9/1/31 10/2/31 11/3/31
f 11/1/24 10/2/24 12/3/24
f 11/1/24 12/2/24 13/3/24
f 14/1/15 13/2/15 12/3/15 15/4/15
f 16/1/15 13/2/15 14/3/15
f 17/1/2 15/2/2 12/3/2
f 12/1/2 10/2/2 8/3/2
f 8/1/2 6/2/2 3/3/2
f 18/1/2 3/2/2 2/3/2
f 19/1/2 17/2/2 12/3/2
f 12/1/2 8/2/2 3/3/2
f 20/1/2 3/2/2 18/3/2
f 21/1/2 19/2/2 12/3/2
f 22/1/2 12/2/2 3/3/2 20/4/2
f 23/1/2 24/2/2 21/3/2
f 23/1/2 21/2/2 12/3/2
f 23/1/2 12/2/2 22/3/2
f 25/1/1 4/2/1 5/3/1 7/4/1
f 7/1/1 9/2/1 11/3/1
f 26/1/1 11/2/1 13/3/1 16/4/1
f 27/1/1 25/2/1 7/3/1
f 28/1/1 7/2/1 11/3/1 26/4/1
f 29/1/1 27/2/1 7/3/1
f 30/1/1 7/2/1 28/3/1
f 31/1/1 32/2/1 29/3/1
f 31/1/1 29/2/1 7/3/1
f 31/1/1 7/2/1 30/3/1
f 33/1/25 34/2/25 35/3/25
f 36/1/25 33/2/25 35/3/25 37/4/25
f 37/1/30 35/2/30 38/3/30
f 37/1/30 38/2/30 39/3/30
f 39/1/36 38/2/36 40/3/36
f 39/1/36 40/2/36 41/3/36
f 42/1/19 41/2/19 40/3/19 43/4/19
f 44/1/19 41/2/19 42/3/19
f 45/1/2 43/2/2 40/3/2 38/4/2
f 46/1/2 38/2/2 35/3/2 34/4/2
f 47/1/2 48/2/2 45/3/2
f 47/1/2 45/2/2 38/3/2
f 47/1/2 38/2/2 46/3/2
f 49/1/2 50/2/2 48/3/2 47/4/2
f 51/1/2 52/2/2 50/3/2 49/4/2
f 53/1/1 36/2/1 37/3/1
f 37/1/1 39/2/1 41/3/1
f 54/1/1 41/2/1 44/3/1
f 55/1/1 53/2/1 37/3/1
f 56/1/1 37/2/1 41/3/1 54/4/1
f 57/1/1 55/2/1 37/3/1
f 58/1/1 37/2/1 56/3/1
f 59/1/1 60/2/1 57/3/1
f 59/1/1 57/2/1 37/3/1
f 59/1/1 37/2/1 58/3/1
f 61/1/25 62/2/25 63/3/25
f 64/1/25 61/2/25 63/3/25 65/4/25
f 65/1/30 63/2/30 66/3/30
f 65/1/30 66/2/30 67/3/30
f 67/1/36 66/2/36 68/3/36
f 67/1/36 68/2/36 69/3/36
f 70/1/18 69/2/18 68/3/18 71/4/18
f 72/1/18 69/2/18 70/3/18
f 73/1/2 71/2/2 68/3/2 66/4/2
f 74/1/2 66/2/2 63/3/2 62/4/2
f 75/1/2 76/2/2 73/3/2
f 75/1/2 73/2/2 66/3/2
f 75/1/2 66/2/2 74/3/2
f 77/1/2 78/2/2 76/3/2 75/4/2
f 79/1/2 80/2/2 78/3/2 77/4/2
f 81/1/1 64/2/1 65/3/1
f 65/1/1 67/2/1 69/3/1
f 82/1/1 69/2/1 72/3/1
f 83/1/1 81/2/1 65/3/1
f 84/1/1 65/2/1 69/3/1 82/4/1
f 85/1/1 83/2/1 65/3/1
f 86/1/1 65/2/1 84/3/1
f 87/1/1 88/2/1 85/3/1
f 87/1/1 85/2/1 65/3/1
f 87/1/1 65/2/1 86/3/1
f 89/1/26 90/2/26 91/3/26
f 92/1/26 89/2/26 91/3/26 93/4/26
f 93/1/30 91/2/30 94/3/30
f 93/1/30 94/2/30 95/3/30
f 95/1/36 94/2/36 96/3/36
f 95/1/36 96/2/36 97/3/36
f 98/1/19 97/2/19 96/3/19 99/4/19
f 100/1/19 97/2/19 98/3/19
f 101/1/2 99/2/2 96/3/2 94/4/2
f 102/1/2 94/2/2 91/3/2 90/4/2
f 103/1/2 104/2/2 101/3/2
f 103/1/2 101/2/2 94/3/2
f 103/1/2 94/2/2 102/3/2
f 105/1/2 106/2/2 104/3/2 103/4/2
f 107/1/2 108/2/2 106/3/2 105/4/2
f 109/1/1 92/2/1 93/3/1
f 93/1/1 95/2/1 97/3/1
f 110/1/1 97/2/1 100/3/1
f 111/1/1 109/2/1 93/3/1
f 112/1/1 93/2/1 97/3/1 110/4/1
f 113/1/1 111/2/1 93/3/1
f 114/1/1 93/2/1 112/3/1
f 115/1/1 116/2/1 113/3/1
f 115/1/1 113/2/1 93/3/1
f 115/1/1 93/2/1 114/3/1
f 117/1/25 118/2/25 119/3/25
f 120/1/25 117/2/25 119/3/25 121/4/25
f 121/1/29 119/2/29 122/3/29
f 121/1/29 122/2/29 123/3/29
f 123/1/35 122/2/35 124/3/35
f 123/1/35 124/2/35 125/3/35
f 126/1/20 125/2/20 124/3/20 127/4/20
f 128/1/20 125/2/20 126/3/20
f 129/1/2 127/2/2 124/3/2 122/4/2
f 130/1/2 122/2/2 119/3/2 118/4/2
f 131/1/2 132/2/2 129/3/2
f 131/1/2 129/2/2 122/3/2
f 131/1/2 122/2/2 130/3/2
f 133/1/2 134/2/2 132/3/2 131/4/2
f 135/1/2 136/2/2 134/3/2 133/4/2
f 137/1/1 120/2/1 121/3/1
f 121/1/1 123/2/1 125/3/1
f 138/1/1 125/2/1 128/3/1
f 139/1/1 137/2/1 121/3/1
f 140/1/1 121/2/1 125/3/1 138/4/1
f 141/1/1 139/2/1 121/3/1
f 142/1/1 121/2/1 140/3/1
f 143/1/1 144/2/1 141/3/1
f 143/1/1 141/2/1 121/3/1
f 143/1/1 121/2/1 142/3/1
f 145/1/25 146/2/25 147/3/25
f 148/1/25 145/2/25 147/3/25 149/4/25
f 149/1/30 147/2/30 150/3/30
f 149/1/30 150/2/30 151/3/30
f 151/1/36 150/2/36 152/3/36
f 151/1/36 152/2/36 153/3/36
f 154/1/18 153/2/18 152/3/18 155/4/18
f 156/1/18 153/2/18 154/3/18
f 157/1/2 155/2/2 152/3/2 150/4/2
f 158/1/2 150/2/2 147/3/2 146/4/2
f 159/1/2 160/2/2 157/3/2
f 159/1/2 157/2/2 150/3/2
f 159/1/2 150/2/2 158/3/2
f 161/1/2 162/2/2 160/3/2 159/4/2
f 163/1/2 164/2/2 162/3/2 161/4/2
f 165/1/1 148/2/1 149/3/1
f 149/1/1 151/2/1 153/3/1
f 166/1/1 153/2/1 156/3/1
f 167/1/1 165/2/1 149/3/1
f 168/1/1 149/2/1 153/3/1 166/4/1
f 169/1/1 167/2/1 149/3/1
f 170/1/1 149/2/1 168/3/1
f 171/1/1 172/2/1 169/3/1
f 171/1/1 169/2/1 149/3/1
f 171/1/1 149/2/1 170/3/1
usemtl dvss_2
f 173/1/3 174/2/3 175/3/3
f 173/1/4 175/2/4 176/3/4
f 177/1/9 176/2/9 175/3/9 178/4/9
f 179/1/8 177/2/8 178/3/8 180/4/8
f 180/1/13 178/2/13 181/3/13
f 180/1/10 181/2/10 182/3/10
f 182/1/11 181/2/11 183/3/11
f 182/1/12 183/2/12 184/3/12
f 184/1/7 183/2/7 185/3/7
f 186/1/6 184/2/6 185/3/6 187/4/6
f 187/1/5 185/2/5 188/3/5
f 189/1/2 188/2/2 185/3/2
f 185/1/2 183/2/2 181/3/2
f 181/1/2 178/2/2 175/3/2
f 190/1/2 175/2/2 174/3/2
f 191/1/2 189/2/2 185/3/2
f 185/1/2 181/2/2 175/3/2
f 192/1/2 175/2/2 190/3/2
f 193/1/2 191/2/2 185/3/2
f 194/1/2 185/2/2 175/3/2 192/4/2
f 195/1/2 196/2/2 193/3/2
f 195/1/2 193/2/2 185/3/2
f 195/1/2 185/2/2 194/3/2
f 197/1/1 179/2/1 180/3/1
f 180/1/1 182/2/1 184/3/1
f 198/1/1 184/2/1 186/3/1
f 199/1/1 197/2/1 180/3/1
f 200/1/1 180/2/1 184/3/1 198/4/1
f 201/1/1 199/2/1 180/3/1
f 202/1/1 180/2/1 200/3/1
f 203/1/1 204/2/1 201/3/1
f 203/1/1 201/2/1 180/3/1
f 203/1/1 180/2/1 202/3/1
f 205/1/17 206/2/17 207/3/17 208/4/17
f 205/1/17 208/2/17 209/3/17
f 210/1/28 209/2/28 208/3/28 211/4/28
f 210/1/28 211/2/28 212/3/28
f 213/1/37 212/2/37 211/3/37 214/4/37
f 213/1/37 214/2/37 215/3/37
f 216/1/38 215/2/38 214/3/38 217/4/38
f 216/1/38 217/2/38 218/3/38
f 219/1/27 218/2/27 217/3/27 220/4/27
f 219/1/27 220/2/27 221/3/27
f 222/1/16 221/2/16 220/3/16 223/4/16
f 224/1/2 223/2/2 220/3/2
f 220/1/2 217/2/2 214/3/2
f 214/1/2 211/2/2 208/3/2
f 225/1/2 208/2/2 207/3/2
f 226/1/2 224/2/2 220/3/2 214/4/2
f 227/1/2 214/2/2 208/3/2 225/4/2
f 228/1/2 229/2/2 226/3/2
f 228/1/2 226/2/2 214/3/2
f 228/1/2 214/2/2 227/3/2
f 230/1/2 231/2/2 232/3/2
f 230/1/2 232/2/2 229/3/2
f 230/1/2 229/2/2 228/3/2
f 233/1/2 231/2/2 230/3/2
f 234/1/21 235/2/21 236/3/21
f 237/1/21 234/2/21 236/3/21 238/4/21
f 238/1/34 236/2/34 239/3/34
f 238/1/34 239/2/34 240/3/34
f 240/1/33 239/2/33 241/3/33
f 240/1/33 241/2/33 242/3/33
f 243/1/23 242/2/23 241/3/23 244/4/23
f 245/1/23 242/2/23 243/3/23
f 246/1/2 244/2/2 241/3/2 239/4/2
f 247/1/2 239/2/2 236/3/2 235/4/2
f 248/1/2 249/2/2 246/3/2
f 248/1/2 246/2/2 239/3/2
f 248/1/2 239/2/2 247/3/2
f 250/1/2 251/2/2 249/3/2 248/4/2
f 252/1/2 253/2/2 251/3/2 250/4/2
f 254/1/1 237/2/1 238/3/1
f 238/1/1 240/2/1 242/3/1
f 255/1/1 242/2/1 245/3/1
f 256/1/1 254/2/1 238/3/1
f 257/1/1 238/2/1 242/3/1 255/4/1
f 258/1/1 256/2/1 238/3/1
f 259/1/1 238/2/1 257/3/1
f 260/1/1 261/2/1 258/3/1
f 260/1/1 258/2/1 238/3/1
f 260/1/1 238/2/1 259/3/1
