# Generated by tools-import-turbines.py; estimated STEP scale.
mtllib materials.mtl
s off
v 0.254929607 0.474406798 0.000000000
v 0.254929607 0.591666200 0.000000000
v 0.298106200 0.591666200 0.142334200
v 0.254929607 0.308333400 0.000000000
v 0.298106200 0.308333400 0.142334200
v 0.333333500 0.591666200 0.499999800
v 0.333333500 0.308333400 0.499999800
v 0.298106200 0.591666200 0.857665300
v 0.298106200 0.308333400 0.857665300
v 0.254929442 0.425593248 1.000000000
v 0.254929442 0.591666200 1.000000000
v 0.254929442 0.308333400 1.000000000
v 0.233877043 0.591666200 1.000000000
v 0.233877151 0.591666200 0.000000000
v 0.193779000 0.591666200 0.000000000
v 0.193779000 0.591666200 1.000000000
v 0.000000000 0.591666200 0.000000000
v 0.000000000 0.591666200 0.733762246
v 0.110279321 0.591666200 1.000000000
v 0.000000000 0.591666200 1.000000000
v 0.239149417 0.308333400 0.000000000
v 0.239149305 0.308333400 1.000000000
v 0.203001513 0.308333400 0.000000000
v 0.127506045 0.308333400 1.000000000
v 0.085087942 0.308333400 0.000000000
v 0.000000000 0.308333400 1.000000000
v 0.000000000 0.308333400 0.588481780
v 0.000000000 0.308333400 0.000000000
v 0.133333200 0.599999900 0.586666600
v 0.133333200 0.724999900 0.586666600
v 0.058277600 0.724999900 0.543333300
v 0.058277600 0.599999900 0.543333300
v 0.058277600 0.724999900 0.456666700
v 0.058277600 0.599999900 0.456666700
v 0.133333200 0.724999900 0.413333400
v 0.133333200 0.599999900 0.413333400
v 0.208388800 0.724999900 0.456666700
v 0.208388800 0.599999900 0.456666700
v 0.208388800 0.724999900 0.543333300
v 0.208388800 0.599999900 0.543333300
vt 0 0
vt 1 0
vt 1 1
vt 0 1
vn -1.000000000 0.000000000 0.000000000
vn -0.499999387 0.000000000 -0.866025758
vn -0.499999387 0.000000000 0.866025758
vn 0.000000000 -1.000000000 0.000000000
vn 0.000000000 1.000000000 0.000000000
vn 0.499999387 0.000000000 0.866025758
vn 0.499999387 0.000000000 -0.866025758
vn 0.956940339 0.000000000 0.290284668
vn 0.956940362 0.000000000 -0.290284590
vn 0.995184639 0.000000000 0.098018030
vn 0.995184642 0.000000000 -0.098018003
vn 1.000000000 0.000000000 0.000000000
usemtl dvss_5
f 1/1/9 2/2/9 3/3/9
f 4/1/9 1/2/9 3/3/9 5/4/9
f 5/1/11 3/2/11 6/3/11
f 5/1/11 6/2/11 7/3/11
f 7/1/10 6/2/10 8/3/10
f 7/1/10 8/2/10 9/3/10
f 10/1/8 9/2/8 8/3/8 11/4/8
f 12/1/8 9/2/8 10/3/8
f 13/1/5 11/2/5 8/3/5 6/4/5
f 14/1/5 6/2/5 3/3/5 2/4/5
f 15/1/5 16/2/5 13/3/5
f 15/1/5 13/2/5 6/3/5
f 15/1/5 6/2/5 14/3/5
f 17/1/5 18/2/5 19/3/5
f 17/1/5 19/2/5 16/3/5
f 17/1/5 16/2/5 15/3/5
f 20/1/5 19/2/5 18/3/5
f 21/1/4 4/2/4 5/3/4
f 5/1/4 7/2/4 9/3/4
f 22/1/4 9/2/4 12/3/4
f 23/1/4 21/2/4 5/3/4
f 24/1/4 5/2/4 9/3/4 22/4/4
f 25/1/4 23/2/4 5/3/4
f 26/1/4 27/2/4 5/3/4 24/4/4
f 28/1/4 25/2/4 5/3/4 27/4/4
f 29/1/3 30/2/3 31/3/3
f 29/1/3 31/2/3 32/3/3
f 32/1/1 31/2/1 33/3/1
f 32/1/1 33/2/1 34/3/1
f 34/1/2 33/2/2 35/3/2
f 34/1/2 35/2/2 36/3/2
f 36/1/7 35/2/7 37/3/7
f 36/1/7 37/2/7 38/3/7
f 33/1/5 31/2/5 30/3/5
f 30/1/5 39/2/5 37/3/5
f 37/1/5 35/2/5 33/3/5
f 30/1/5 37/2/5 33/3/5
f 38/1/12 37/2/12 39/3/12
f 38/1/12 39/2/12 40/3/12
f 40/1/6 39/2/6 30/3/6
f 40/1/6 30/2/6 29/3/6
f 40/1/4 29/2/4 32/3/4
f 32/1/4 34/2/4 36/3/4
f 36/1/4 38/2/4 40/3/4
f 32/1/4 36/2/4 40/3/4
