# Generated by tools-import-turbines.py; estimated STEP scale.
mtllib materials.mtl
s off
v 0.500000200 0.308333400 0.333333500
v 0.500000200 0.591666200 0.333333500
v 0.142334700 0.591666200 0.298106200
v 0.142334700 0.308333400 0.298106200
v 0.000000000 0.425593214 0.254929455
v 0.000000000 0.591666200 0.254929455
v 0.000000000 0.308333400 0.254929455
v 0.000000000 0.591666200 0.233877057
v 1.000000000 0.591666200 0.233877165
v 0.857665800 0.591666200 0.298106200
v 1.000000000 0.591666200 0.254929619
v 1.000000000 0.591666200 0.193779000
v 0.000000000 0.591666200 0.193779000
v 1.000000000 0.591666200 0.000000000
v 0.266237654 0.591666200 0.000000000
v 0.000000000 0.591666200 0.110279279
v 0.000000000 0.591666200 0.000000000
v 1.000000000 0.474406832 0.254929619
v 1.000000000 0.308333400 0.254929619
v 0.857665800 0.308333400 0.298106200
v 0.000000000 0.308333400 0.239149305
v 1.000000000 0.308333400 0.239149417
v 0.000000000 0.308333400 0.127506045
v 1.000000000 0.308333400 0.203001513
v 0.000000000 0.308333400 0.000000000
v 0.411518240 0.308333400 0.000000000
v 1.000000000 0.308333400 0.085087957
v 0.798368749 0.308333400 0.000000000
v 1.000000000 0.308333400 0.000000000
v 0.500000000 0.599999900 0.219999800
v 0.500000000 0.724999900 0.219999800
v 0.424944400 0.724999900 0.176666700
v 0.424944400 0.599999900 0.176666700
v 0.424944400 0.724999900 0.089999700
v 0.424944400 0.599999900 0.089999700
v 0.500000000 0.724999900 0.046666600
v 0.500000000 0.599999900 0.046666600
v 0.575055600 0.724999900 0.089999700
v 0.575055600 0.599999900 0.089999700
v 0.575055600 0.724999900 0.176666700
v 0.575055600 0.599999900 0.176666700
vt 0 0
vt 1 0
vt 1 1
vt 0 1
vn -1.000000000 0.000000000 0.000000000
vn -0.499997656 0.000000000 -0.866026757
vn -0.499997656 0.000000000 0.866026757
vn -0.290284590 0.000000000 0.956940362
vn -0.098018030 0.000000000 0.995184639
vn 0.000000000 -1.000000000 0.000000000
vn 0.000000000 1.000000000 0.000000000
vn 0.098018003 0.000000000 0.995184642
vn 0.290284513 0.000000000 0.956940386
vn 0.499997656 0.000000000 0.866026757
vn 0.499997656 0.000000000 -0.866026757
vn 1.000000000 0.000000000 0.000000000
usemtl dvss_5
f 1/1/5 2/2/5 3/3/5
f 1/1/5 3/2/5 4/3/5
f 5/1/4 4/2/4 3/3/4 6/4/4
f 7/1/4 4/2/4 5/3/4
f 8/1/7 6/2/7 3/3/7 2/4/7
f 9/1/7 2/2/7 10/3/7 11/4/7
f 12/1/7 13/2/7 8/3/7
f 12/1/7 8/2/7 2/3/7
f 12/1/7 2/2/7 9/3/7
f 14/1/7 15/2/7 16/3/7
f 14/1/7 16/2/7 13/3/7
f 14/1/7 13/2/7 12/3/7
f 17/1/7 16/2/7 15/3/7
f 18/1/9 11/2/9 10/3/9
f 19/1/9 18/2/9 10/3/9 20/4/9
f 20/1/8 10/2/8 2/3/8
f 20/1/8 2/2/8 1/3/8
f 20/1/6 1/2/6 4/3/6
f 21/1/6 4/2/6 7/3/6
f 22/1/6 19/2/6 20/3/6
f 23/1/6 20/2/6 4/3/6 21/4/6
f 24/1/6 22/2/6 20/3/6
f 25/1/6 26/2/6 20/3/6 23/4/6
f 27/1/6 24/2/6 20/3/6
f 28/1/6 20/2/6 26/3/6
f 28/1/6 29/2/6 27/3/6 20/4/6
f 30/1/3 31/2/3 32/3/3
f 30/1/3 32/2/3 33/3/3
f 33/1/1 32/2/1 34/3/1
f 33/1/1 34/2/1 35/3/1
f 35/1/2 34/2/2 36/3/2
f 35/1/2 36/2/2 37/3/2
f 37/1/11 36/2/11 38/3/11
f 37/1/11 38/2/11 39/3/11
f 34/1/7 32/2/7 31/3/7
f 31/1/7 40/2/7 38/3/7
f 38/1/7 36/2/7 34/3/7
f 31/1/7 38/2/7 34/3/7
f 39/1/12 38/2/12 40/3/12
f 39/1/12 40/2/12 41/3/12
f 41/1/10 40/2/10 31/3/10
f 41/1/10 31/2/10 30/3/10
f 41/1/6 30/2/6 33/3/6
f 33/1/6 35/2/6 37/3/6
f 37/1/6 39/2/6 41/3/6
f 33/1/6 37/2/6 41/3/6
