# Generated by tools-import-turbines.py; estimated STEP scale.
mtllib materials.mtl
s off
v 0.779166500 0.000000000 0.503964385
v 0.779166500 0.000000000 0.529166700
v 0.779166500 0.974999400 0.529166700
v 0.779166500 0.974999400 0.470833300
v 0.779166500 0.000000000 0.470833300
v 0.840372110 0.000000000 0.470833300
v 0.920833300 0.974999400 0.470833300
v 0.920833300 0.000000000 0.470833300
v 0.920833300 0.000000000 0.496035615
v 0.920833300 0.974999400 0.529166700
v 0.920833300 0.000000000 0.529166700
v 0.859627690 0.000000000 0.529166700
v 0.734553785 0.000000000 0.834901949
v 0.728030900 0.000000000 0.859245500
v 0.728030900 0.974999400 0.859245500
v 0.743128800 0.974999400 0.802899800
v 0.743128800 0.000000000 0.802899800
v 0.802248871 0.000000000 0.818741036
v 0.879968400 0.974999400 0.839566000
v 0.879968400 0.000000000 0.839566000
v 0.873445515 0.000000000 0.863909551
v 0.864870500 0.974999400 0.895911700
v 0.864870500 0.000000000 0.895911700
v 0.805750429 0.000000000 0.880070464
v 0.736605915 0.000000000 0.172756649
v 0.743128800 0.000000000 0.197100200
v 0.743128800 0.974999400 0.197100200
v 0.728030900 0.974999400 0.140754500
v 0.728030900 0.000000000 0.140754500
v 0.787150971 0.000000000 0.124913264
v 0.864870500 0.974999400 0.104088300
v 0.864870500 0.000000000 0.104088300
v 0.871393385 0.000000000 0.128431851
v 0.879968400 0.974999400 0.160434000
v 0.879968400 0.000000000 0.160434000
v 0.820848329 0.000000000 0.176275236
v 0.695665458 1.000000000 0.000000000
v 0.731742426 1.000000000 0.087097625
v 0.695665458 0.091123271 0.000000000
v 0.695665458 0.000000000 0.000000000
v 0.736373400 1.000000000 0.098277800
v 0.736373400 0.000000000 0.098277800
v 0.781169704 1.000000000 0.284867940
v 0.756955485 0.000000000 0.184008399
v 0.783994700 1.000000000 0.296634900
v 0.783994700 0.000000000 0.296634900
v 0.799050532 1.000000000 0.487935767
v 0.790912244 0.000000000 0.384529887
v 0.800000000 1.000000000 0.499999800
v 0.800000000 0.000000000 0.499999800
v 0.784944356 1.000000000 0.691300573
v 0.793082542 0.000000000 0.587894744
v 0.783994900 1.000000000 0.703364600
v 0.783994900 0.000000000 0.703364600
v 0.739198407 1.000000000 0.889955022
v 0.763412729 0.000000000 0.789095329
v 0.736373400 1.000000000 0.901722000
v 0.736373400 0.000000000 0.901722000
v 0.695665354 1.000000000 1.000000000
v 0.695665354 0.175546261 1.000000000
v 0.702633490 0.000000000 0.983177417
v 0.695665354 0.000000000 1.000000000
v 0.650000100 0.162820382 0.000000000
v 0.650000100 0.000000000 0.182471167
v 0.650000100 0.000000000 1.000000000
v 0.650000100 0.199999800 1.000000000
v 0.650000100 0.199999800 0.000000000
v 0.650000100 0.000000000 0.000000000
v 0.680769222 0.199999800 1.000000000
v 1.000000000 0.199999800 0.567708523
v 1.000000000 0.199999800 0.000000000
v 1.000000000 0.199999800 1.000000000
vt 0 0
vt 1 0
vt 1 1
vt 0 1
vn -1.000000000 0.000000000 0.000000000
vn -0.965925333 0.000000000 -0.258820887
vn -0.965925333 0.000000000 0.258820887
vn -0.258819965 0.000000000 0.965925580
vn -0.258819965 0.000000000 -0.965925580
vn 0.000000000 0.000000000 -1.000000000
vn 0.000000000 0.000000000 1.000000000
vn 0.000000000 1.000000000 0.000000000
vn 0.258819965 0.000000000 0.965925580
vn 0.258819965 0.000000000 -0.965925580
vn 0.923879647 0.000000000 0.382683156
vn 0.923879719 0.000000000 -0.382682982
vn 0.965925333 0.000000000 0.258820887
vn 0.965925333 0.000000000 -0.258820887
vn 0.972369807 0.000000000 0.233445835
vn 0.972369950 0.000000000 -0.233445241
vn 0.996917282 0.000000000 -0.078459755
vn 0.996917356 0.000000000 0.078458819
vn 1.000000000 0.000000000 0.000000000
usemtl dvss_2
f 1/1/1 2/2/1 3/3/1 4/4/1
f 1/1/1 4/2/1 5/3/1
f 6/1/6 5/2/6 4/3/6 7/4/6
f 6/1/6 7/2/6 8/3/6
f 9/1/19 8/2/19 7/3/19 10/4/19
f 9/1/19 10/2/19 11/3/19
f 12/1/7 11/2/7 10/3/7 3/4/7
f 12/1/7 3/2/7 2/3/7
f 7/1/8 4/2/8 3/3/8
f 7/1/8 3/2/8 10/3/8
f 13/1/2 14/2/2 15/3/2 16/4/2
f 13/1/2 16/2/2 17/3/2
f 18/1/10 17/2/10 16/3/10 19/4/10
f 18/1/10 19/2/10 20/3/10
f 21/1/13 20/2/13 19/3/13 22/4/13
f 21/1/13 22/2/13 23/3/13
f 24/1/4 23/2/4 22/3/4 15/4/4
f 24/1/4 15/2/4 14/3/4
f 19/1/8 16/2/8 15/3/8
f 19/1/8 15/2/8 22/3/8
f 25/1/3 26/2/3 27/3/3 28/4/3
f 25/1/3 28/2/3 29/3/3
f 30/1/5 29/2/5 28/3/5 31/4/5
f 30/1/5 31/2/5 32/3/5
f 33/1/14 32/2/14 31/3/14 34/4/14
f 33/1/14 34/2/14 35/3/14
f 36/1/9 35/2/9 34/3/9 27/4/9
f 36/1/9 27/2/9 26/3/9
f 31/1/8 28/2/8 27/3/8
f 31/1/8 27/2/8 34/3/8
f 37/1/12 38/2/12 39/3/12
f 40/1/12 39/2/12 38/3/12
f 40/1/12 38/2/12 41/3/12
f 40/1/12 41/2/12 42/3/12
f 43/1/16 44/2/16 42/3/16 41/4/16
f 44/1/16 43/2/16 45/3/16 46/4/16
f 47/1/17 48/2/17 46/3/17 45/4/17
f 48/1/17 47/2/17 49/3/17 50/4/17
f 51/1/18 52/2/18 50/3/18 49/4/18
f 52/1/18 51/2/18 53/3/18 54/4/18
f 55/1/15 56/2/15 54/3/15 53/4/15
f 56/1/15 55/2/15 57/3/15 58/4/15
f 59/1/11 60/2/11 61/3/11
f 59/1/11 61/2/11 58/3/11
f 59/1/11 58/2/11 57/3/11
f 62/1/11 61/2/11 60/3/11
f 63/1/1 64/2/1 65/3/1
f 63/1/1 65/2/1 66/3/1
f 63/1/1 66/2/1 67/3/1
f 68/1/1 64/2/1 63/3/1
f 69/1/8 70/2/8 71/3/8
f 69/1/8 71/2/8 67/3/8
f 69/1/8 67/2/8 66/3/8
f 72/1/8 70/2/8 69/3/8
