# metre = block; Y up; per-cell coordinates; atlas UVs preserved
mtllib materials.mtl
o cell_30
usemtl pump_atlas
v 0.1417453 0.0000000 0.7126017
v 0.1417453 1.0000000 0.7126017
v 0.1244467 1.0000000 0.7143055
v 0.1417453 0.0000000 0.7126017
v 0.1244467 1.0000000 0.7143055
v 0.0418265 0.0000000 0.7224429
v 0.0418265 0.0000000 0.7224429
v 0.1244467 1.0000000 0.7143055
v 0.0000000 1.0000000 0.7265625
v 0.0418265 0.0000000 0.7224429
v 0.0000000 1.0000000 0.7265625
v 0.0000000 0.0000000 0.7265625
v 0.2780434 0.0000000 0.6712562
v 0.2780434 1.0000000 0.6712562
v 0.2614096 1.0000000 0.6763020
v 0.2780434 0.0000000 0.6712562
v 0.2614096 1.0000000 0.6763020
v 0.1819644 0.0000000 0.7004014
v 0.1819644 0.0000000 0.7004014
v 0.2614096 1.0000000 0.6763020
v 0.1417453 1.0000000 0.7126017
v 0.1819644 0.0000000 0.7004014
v 0.1417453 1.0000000 0.7126017
v 0.1417453 0.0000000 0.7126017
v 0.4036565 0.0000000 0.6041146
v 0.4036565 1.0000000 0.6041146
v 0.3883267 1.0000000 0.6123086
v 0.4036565 0.0000000 0.6041146
v 0.3883267 1.0000000 0.6123086
v 0.3151096 0.0000000 0.6514439
v 0.3151096 0.0000000 0.6514439
v 0.3883267 1.0000000 0.6123086
v 0.2780434 1.0000000 0.6712562
v 0.3151096 0.0000000 0.6514439
v 0.2780434 1.0000000 0.6712562
v 0.2780434 0.0000000 0.6712562
v 0.5137572 0.0000000 0.5137572
v 0.5137572 1.0000000 0.5137572
v 0.5003205 1.0000000 0.5247844
v 0.5137572 0.0000000 0.5137572
v 0.5003205 1.0000000 0.5247844
v 0.4361452 0.0000000 0.5774518
v 0.4361452 0.0000000 0.5774518
v 0.5003205 1.0000000 0.5247844
v 0.4036565 1.0000000 0.6041146
v 0.4361452 0.0000000 0.5774518
v 0.4036565 1.0000000 0.6041146
v 0.4036565 0.0000000 0.6041146
v 0.6041146 0.0000000 0.4036565
v 0.6041146 1.0000000 0.4036565
v 0.5930874 1.0000000 0.4170932
v 0.6041146 0.0000000 0.4036565
v 0.5930874 1.0000000 0.4170932
v 0.5404200 0.0000000 0.4812685
v 0.5404200 0.0000000 0.4812685
v 0.5930874 1.0000000 0.4170932
v 0.5137572 1.0000000 0.5137572
v 0.5404200 0.0000000 0.4812685
v 0.5137572 1.0000000 0.5137572
v 0.5137572 0.0000000 0.5137572
v 0.6712562 0.0000000 0.2780434
v 0.6712562 1.0000000 0.2780434
v 0.6630622 1.0000000 0.2933732
v 0.6712562 0.0000000 0.2780434
v 0.6630622 1.0000000 0.2933732
v 0.6239269 0.0000000 0.3665903
v 0.6239269 0.0000000 0.3665903
v 0.6630622 1.0000000 0.2933732
v 0.6041146 1.0000000 0.4036565
v 0.6239269 0.0000000 0.3665903
v 0.6041146 1.0000000 0.4036565
v 0.6041146 0.0000000 0.4036565
v 0.7126017 0.0000000 0.1417453
v 0.7126017 1.0000000 0.1417453
v 0.7075559 1.0000000 0.1583791
v 0.7126017 0.0000000 0.1417453
v 0.7075559 1.0000000 0.1583791
v 0.6834565 0.0000000 0.2378243
v 0.6834565 0.0000000 0.2378243
v 0.7075559 1.0000000 0.1583791
v 0.6712562 1.0000000 0.2780434
v 0.6834565 0.0000000 0.2378243
v 0.6712562 1.0000000 0.2780434
v 0.6712562 0.0000000 0.2780434
v 0.7265625 0.0000000 0.0000000
v 0.7265625 1.0000000 0.0000000
v 0.7248587 1.0000000 0.0172986
v 0.7265625 0.0000000 0.0000000
v 0.7248587 1.0000000 0.0172986
v 0.7167213 0.0000000 0.0999188
v 0.7167213 0.0000000 0.0999188
v 0.7248587 1.0000000 0.0172986
v 0.7126017 1.0000000 0.1417453
v 0.7167213 0.0000000 0.0999188
v 0.7126017 1.0000000 0.1417453
v 0.7126017 0.0000000 0.1417453
v 0.0000000 0.7781253 0.7359375
v 0.1435743 0.7781253 0.7217967
v 0.1435743 1.0000000 0.7217967
v 0.0000000 0.7781253 0.7359375
v 0.1435743 1.0000000 0.7217967
v 0.1096103 1.0000000 0.7251419
v 0.0000000 0.7781253 0.7359375
v 0.1096103 1.0000000 0.7251419
v 0.0000000 1.0000000 0.7359375
v 0.1435743 0.7781253 0.7217967
v 0.2816311 0.7781253 0.6799176
v 0.2816311 1.0000000 0.6799176
v 0.1435743 0.7781253 0.7217967
v 0.2816311 1.0000000 0.6799176
v 0.2489723 1.0000000 0.6898245
v 0.1435743 0.7781253 0.7217967
v 0.2489723 1.0000000 0.6898245
v 0.1435743 1.0000000 0.7217967
v 0.2816311 0.7781253 0.6799176
v 0.4088650 0.7781253 0.6119097
v 0.4088650 1.0000000 0.6119097
v 0.2816311 0.7781253 0.6799176
v 0.4088650 1.0000000 0.6119097
v 0.3787665 1.0000000 0.6279977
v 0.2816311 0.7781253 0.6799176
v 0.3787665 1.0000000 0.6279977
v 0.2816311 1.0000000 0.6799176
v 0.4088650 0.7781253 0.6119097
v 0.5203864 0.7781253 0.5203864
v 0.5203864 1.0000000 0.5203864
v 0.4088650 0.7781253 0.6119097
v 0.5203864 1.0000000 0.5203864
v 0.4940048 1.0000000 0.5420372
v 0.4088650 0.7781253 0.6119097
v 0.4940048 1.0000000 0.5420372
v 0.4088650 1.0000000 0.6119097
v 0.5203864 0.7781253 0.5203864
v 0.6119097 0.7781253 0.4088650
v 0.6119097 1.0000000 0.4088650
v 0.5203864 0.7781253 0.5203864
v 0.6119097 1.0000000 0.4088650
v 0.5902589 1.0000000 0.4352466
v 0.5203864 0.7781253 0.5203864
v 0.5902589 1.0000000 0.4352466
v 0.5203864 1.0000000 0.5203864
v 0.6119097 0.7781253 0.4088650
v 0.6799176 0.7781253 0.2816311
v 0.6799176 1.0000000 0.2816311
v 0.6119097 0.7781253 0.4088650
v 0.6799176 1.0000000 0.2816311
v 0.6638296 1.0000000 0.3117296
v 0.6119097 0.7781253 0.4088650
v 0.6638296 1.0000000 0.3117296
v 0.6119097 1.0000000 0.4088650
v 0.6799176 0.7781253 0.2816311
v 0.7217967 0.7781253 0.1435743
v 0.7217967 1.0000000 0.1435743
v 0.6799176 0.7781253 0.2816311
v 0.7217967 1.0000000 0.1435743
v 0.7118898 1.0000000 0.1762331
v 0.6799176 0.7781253 0.2816311
v 0.7118898 1.0000000 0.1762331
v 0.6799176 1.0000000 0.2816311
v 0.7217967 0.7781253 0.1435743
v 0.7359375 0.7781253 0.0000000
v 0.7359375 1.0000000 0.0000000
v 0.7217967 0.7781253 0.1435743
v 0.7359375 1.0000000 0.0000000
v 0.7325923 1.0000000 0.0339640
v 0.7217967 0.7781253 0.1435743
v 0.7325923 1.0000000 0.0339640
v 0.7217967 1.0000000 0.1435743
v 0.0000000 0.7612500 0.7481250
v 0.1459519 0.7612500 0.7337500
v 0.1459519 0.7949998 0.7337500
v 0.0000000 0.7612500 0.7481250
v 0.1459519 0.7949998 0.7337500
v 0.0000000 0.7949998 0.7481250
v 0.1459519 0.7612500 0.7337500
v 0.2862950 0.7612500 0.6911773
v 0.2862950 0.7949998 0.6911773
v 0.1459519 0.7612500 0.7337500
v 0.2862950 0.7949998 0.6911773
v 0.1459519 0.7949998 0.7337500
v 0.2862950 0.7612500 0.6911773
v 0.4156360 0.7612500 0.6220431
v 0.4156360 0.7949998 0.6220431
v 0.2862950 0.7612500 0.6911773
v 0.4156360 0.7949998 0.6220431
v 0.2862950 0.7949998 0.6911773
v 0.4156360 0.7612500 0.6220431
v 0.5290043 0.7612500 0.5290043
v 0.5290043 0.7949998 0.5290043
v 0.4156360 0.7612500 0.6220431
v 0.5290043 0.7949998 0.5290043
v 0.4156360 0.7949998 0.6220431
v 0.5290043 0.7612500 0.5290043
v 0.6220431 0.7612500 0.4156360
v 0.6220431 0.7949998 0.4156360
v 0.5290043 0.7612500 0.5290043
v 0.6220431 0.7949998 0.4156360
v 0.5290043 0.7949998 0.5290043
v 0.6220431 0.7612500 0.4156360
v 0.6911773 0.7612500 0.2862950
v 0.6911773 0.7949998 0.2862950
v 0.6220431 0.7612500 0.4156360
v 0.6911773 0.7949998 0.2862950
v 0.6220431 0.7949998 0.4156360
v 0.6911773 0.7612500 0.2862950
v 0.7337500 0.7612500 0.1459519
v 0.7337500 0.7949998 0.1459519
v 0.6911773 0.7612500 0.2862950
v 0.7337500 0.7949998 0.1459519
v 0.6911773 0.7949998 0.2862950
v 0.7337500 0.7612500 0.1459519
v 0.7481250 0.7612500 0.0000000
v 0.7481250 0.7949998 0.0000000
v 0.7337500 0.7612500 0.1459519
v 0.7481250 0.7949998 0.0000000
v 0.7337500 0.7949998 0.1459519
v 0.0000000 0.7949998 0.7481250
v 0.1459519 0.7949998 0.7337500
v 0.1411966 0.7949998 0.7098433
v 0.0000000 0.7949998 0.7481250
v 0.1411966 0.7949998 0.7098433
v 0.0000000 0.7949998 0.7237500
v 0.1411966 0.7949998 0.7098433
v 0.1459519 0.7949998 0.7337500
v 0.2862950 0.7949998 0.6911773
v 0.1411966 0.7949998 0.7098433
v 0.2862950 0.7949998 0.6911773
v 0.2769671 0.7949998 0.6686578
v 0.2769671 0.7949998 0.6686578
v 0.2862950 0.7949998 0.6911773
v 0.4156360 0.7949998 0.6220431
v 0.2769671 0.7949998 0.6686578
v 0.4156360 0.7949998 0.6220431
v 0.4020940 0.7949998 0.6017761
v 0.4020940 0.7949998 0.6017761
v 0.4156360 0.7949998 0.6220431
v 0.5290043 0.7949998 0.5290043
v 0.4020940 0.7949998 0.6017761
v 0.5290043 0.7949998 0.5290043
v 0.5117686 0.7949998 0.5117686
v 0.5117686 0.7949998 0.5117686
v 0.5290043 0.7949998 0.5290043
v 0.6220431 0.7949998 0.4156360
v 0.5117686 0.7949998 0.5117686
v 0.6220431 0.7949998 0.4156360
v 0.6017761 0.7949998 0.4020940
v 0.6017761 0.7949998 0.4020940
v 0.6220431 0.7949998 0.4156360
v 0.6911773 0.7949998 0.2862950
v 0.6017761 0.7949998 0.4020940
v 0.6911773 0.7949998 0.2862950
v 0.6686578 0.7949998 0.2769671
v 0.6686578 0.7949998 0.2769671
v 0.6911773 0.7949998 0.2862950
v 0.7337500 0.7949998 0.1459519
v 0.6686578 0.7949998 0.2769671
v 0.7337500 0.7949998 0.1459519
v 0.7098433 0.7949998 0.1411966
v 0.7098433 0.7949998 0.1411966
v 0.7337500 0.7949998 0.1459519
v 0.7481250 0.7949998 0.0000000
v 0.7098433 0.7949998 0.1411966
v 0.7481250 0.7949998 0.0000000
v 0.7237500 0.7949998 0.0000000
v 0.0000000 0.7612500 0.7237500
v 0.0000000 0.7949998 0.7237500
v 0.1411966 0.7949998 0.7098433
v 0.0000000 0.7612500 0.7237500
v 0.1411966 0.7949998 0.7098433
v 0.1411966 0.7612500 0.7098433
v 0.1411966 0.7612500 0.7098433
v 0.1411966 0.7949998 0.7098433
v 0.2769671 0.7949998 0.6686578
v 0.1411966 0.7612500 0.7098433
v 0.2769671 0.7949998 0.6686578
v 0.2769671 0.7612500 0.6686578
v 0.2769671 0.7612500 0.6686578
v 0.2769671 0.7949998 0.6686578
v 0.4020940 0.7949998 0.6017761
v 0.2769671 0.7612500 0.6686578
v 0.4020940 0.7949998 0.6017761
v 0.4020940 0.7612500 0.6017761
v 0.4020940 0.7612500 0.6017761
v 0.4020940 0.7949998 0.6017761
v 0.5117686 0.7949998 0.5117686
v 0.4020940 0.7612500 0.6017761
v 0.5117686 0.7949998 0.5117686
v 0.5117686 0.7612500 0.5117686
v 0.5117686 0.7612500 0.5117686
v 0.5117686 0.7949998 0.5117686
v 0.6017761 0.7949998 0.4020940
v 0.5117686 0.7612500 0.5117686
v 0.6017761 0.7949998 0.4020940
v 0.6017761 0.7612500 0.4020940
v 0.6017761 0.7612500 0.4020940
v 0.6017761 0.7949998 0.4020940
v 0.6686578 0.7949998 0.2769671
v 0.6017761 0.7612500 0.4020940
v 0.6686578 0.7949998 0.2769671
v 0.6686578 0.7612500 0.2769671
v 0.6686578 0.7612500 0.2769671
v 0.6686578 0.7949998 0.2769671
v 0.7098433 0.7949998 0.1411966
v 0.6686578 0.7612500 0.2769671
v 0.7098433 0.7949998 0.1411966
v 0.7098433 0.7612500 0.1411966
v 0.7098433 0.7612500 0.1411966
v 0.7098433 0.7949998 0.1411966
v 0.7237500 0.7949998 0.0000000
v 0.7098433 0.7612500 0.1411966
v 0.7237500 0.7949998 0.0000000
v 0.7237500 0.7612500 0.0000000
v 0.0000000 0.7612500 0.7481250
v 0.0000000 0.7612500 0.7237500
v 0.1411966 0.7612500 0.7098433
v 0.0000000 0.7612500 0.7481250
v 0.1411966 0.7612500 0.7098433
v 0.1459519 0.7612500 0.7337500
v 0.1411966 0.7612500 0.7098433
v 0.2769671 0.7612500 0.6686578
v 0.2862950 0.7612500 0.6911773
v 0.1411966 0.7612500 0.7098433
v 0.2862950 0.7612500 0.6911773
v 0.1459519 0.7612500 0.7337500
v 0.2769671 0.7612500 0.6686578
v 0.4020940 0.7612500 0.6017761
v 0.4156360 0.7612500 0.6220431
v 0.2769671 0.7612500 0.6686578
v 0.4156360 0.7612500 0.6220431
v 0.2862950 0.7612500 0.6911773
v 0.4020940 0.7612500 0.6017761
v 0.5117686 0.7612500 0.5117686
v 0.5290043 0.7612500 0.5290043
v 0.4020940 0.7612500 0.6017761
v 0.5290043 0.7612500 0.5290043
v 0.4156360 0.7612500 0.6220431
v 0.5117686 0.7612500 0.5117686
v 0.6017761 0.7612500 0.4020940
v 0.6220431 0.7612500 0.4156360
v 0.5117686 0.7612500 0.5117686
v 0.6220431 0.7612500 0.4156360
v 0.5290043 0.7612500 0.5290043
v 0.6017761 0.7612500 0.4020940
v 0.6686578 0.7612500 0.2769671
v 0.6911773 0.7612500 0.2862950
v 0.6017761 0.7612500 0.4020940
v 0.6911773 0.7612500 0.2862950
v 0.6220431 0.7612500 0.4156360
v 0.6686578 0.7612500 0.2769671
v 0.7098433 0.7612500 0.1411966
v 0.7337500 0.7612500 0.1459519
v 0.6686578 0.7612500 0.2769671
v 0.7337500 0.7612500 0.1459519
v 0.6911773 0.7612500 0.2862950
v 0.7098433 0.7612500 0.1411966
v 0.7237500 0.7612500 0.0000000
v 0.7481250 0.7612500 0.0000000
v 0.7098433 0.7612500 0.1411966
v 0.7481250 0.7612500 0.0000000
v 0.7337500 0.7612500 0.1459519
v 0.0000000 0.8971875 0.7481250
v 0.1459519 0.8971875 0.7337500
v 0.1459519 0.9309373 0.7337500
v 0.0000000 0.8971875 0.7481250
v 0.1459519 0.9309373 0.7337500
v 0.0000000 0.9309373 0.7481250
v 0.1459519 0.8971875 0.7337500
v 0.2862950 0.8971875 0.6911773
v 0.2862950 0.9309373 0.6911773
v 0.1459519 0.8971875 0.7337500
v 0.2862950 0.9309373 0.6911773
v 0.1459519 0.9309373 0.7337500
v 0.2862950 0.8971875 0.6911773
v 0.4156360 0.8971875 0.6220431
v 0.4156360 0.9309373 0.6220431
v 0.2862950 0.8971875 0.6911773
v 0.4156360 0.9309373 0.6220431
v 0.2862950 0.9309373 0.6911773
v 0.4156360 0.8971875 0.6220431
v 0.5290043 0.8971875 0.5290043
v 0.5290043 0.9309373 0.5290043
v 0.4156360 0.8971875 0.6220431
v 0.5290043 0.9309373 0.5290043
v 0.4156360 0.9309373 0.6220431
v 0.5290043 0.8971875 0.5290043
v 0.6220431 0.8971875 0.4156360
v 0.6220431 0.9309373 0.4156360
v 0.5290043 0.8971875 0.5290043
v 0.6220431 0.9309373 0.4156360
v 0.5290043 0.9309373 0.5290043
v 0.6220431 0.8971875 0.4156360
v 0.6911773 0.8971875 0.2862950
v 0.6911773 0.9309373 0.2862950
v 0.6220431 0.8971875 0.4156360
v 0.6911773 0.9309373 0.2862950
v 0.6220431 0.9309373 0.4156360
v 0.6911773 0.8971875 0.2862950
v 0.7337500 0.8971875 0.1459519
v 0.7337500 0.9309373 0.1459519
v 0.6911773 0.8971875 0.2862950
v 0.7337500 0.9309373 0.1459519
v 0.6911773 0.9309373 0.2862950
v 0.7337500 0.8971875 0.1459519
v 0.7481250 0.8971875 0.0000000
v 0.7481250 0.9309373 0.0000000
v 0.7337500 0.8971875 0.1459519
v 0.7481250 0.9309373 0.0000000
v 0.7337500 0.9309373 0.1459519
v 0.0000000 0.9309373 0.7481250
v 0.1459519 0.9309373 0.7337500
v 0.1411966 0.9309373 0.7098433
v 0.0000000 0.9309373 0.7481250
v 0.1411966 0.9309373 0.7098433
v 0.0000000 0.9309373 0.7237500
v 0.1411966 0.9309373 0.7098433
v 0.1459519 0.9309373 0.7337500
v 0.2862950 0.9309373 0.6911773
v 0.1411966 0.9309373 0.7098433
v 0.2862950 0.9309373 0.6911773
v 0.2769671 0.9309373 0.6686578
v 0.2769671 0.9309373 0.6686578
v 0.2862950 0.9309373 0.6911773
v 0.4156360 0.9309373 0.6220431
v 0.2769671 0.9309373 0.6686578
v 0.4156360 0.9309373 0.6220431
v 0.4020940 0.9309373 0.6017761
v 0.4020940 0.9309373 0.6017761
v 0.4156360 0.9309373 0.6220431
v 0.5290043 0.9309373 0.5290043
v 0.4020940 0.9309373 0.6017761
v 0.5290043 0.9309373 0.5290043
v 0.5117686 0.9309373 0.5117686
v 0.5117686 0.9309373 0.5117686
v 0.5290043 0.9309373 0.5290043
v 0.6220431 0.9309373 0.4156360
v 0.5117686 0.9309373 0.5117686
v 0.6220431 0.9309373 0.4156360
v 0.6017761 0.9309373 0.4020940
v 0.6017761 0.9309373 0.4020940
v 0.6220431 0.9309373 0.4156360
v 0.6911773 0.9309373 0.2862950
v 0.6017761 0.9309373 0.4020940
v 0.6911773 0.9309373 0.2862950
v 0.6686578 0.9309373 0.2769671
v 0.6686578 0.9309373 0.2769671
v 0.6911773 0.9309373 0.2862950
v 0.7337500 0.9309373 0.1459519
v 0.6686578 0.9309373 0.2769671
v 0.7337500 0.9309373 0.1459519
v 0.7098433 0.9309373 0.1411966
v 0.7098433 0.9309373 0.1411966
v 0.7337500 0.9309373 0.1459519
v 0.7481250 0.9309373 0.0000000
v 0.7098433 0.9309373 0.1411966
v 0.7481250 0.9309373 0.0000000
v 0.7237500 0.9309373 0.0000000
v 0.0000000 0.8971875 0.7237500
v 0.0000000 0.9309373 0.7237500
v 0.1411966 0.9309373 0.7098433
v 0.0000000 0.8971875 0.7237500
v 0.1411966 0.9309373 0.7098433
v 0.1411966 0.8971875 0.7098433
v 0.1411966 0.8971875 0.7098433
v 0.1411966 0.9309373 0.7098433
v 0.2769671 0.9309373 0.6686578
v 0.1411966 0.8971875 0.7098433
v 0.2769671 0.9309373 0.6686578
v 0.2769671 0.8971875 0.6686578
v 0.2769671 0.8971875 0.6686578
v 0.2769671 0.9309373 0.6686578
v 0.4020940 0.9309373 0.6017761
v 0.2769671 0.8971875 0.6686578
v 0.4020940 0.9309373 0.6017761
v 0.4020940 0.8971875 0.6017761
v 0.4020940 0.8971875 0.6017761
v 0.4020940 0.9309373 0.6017761
v 0.5117686 0.9309373 0.5117686
v 0.4020940 0.8971875 0.6017761
v 0.5117686 0.9309373 0.5117686
v 0.5117686 0.8971875 0.5117686
v 0.5117686 0.8971875 0.5117686
v 0.5117686 0.9309373 0.5117686
v 0.6017761 0.9309373 0.4020940
v 0.5117686 0.8971875 0.5117686
v 0.6017761 0.9309373 0.4020940
v 0.6017761 0.8971875 0.4020940
v 0.6017761 0.8971875 0.4020940
v 0.6017761 0.9309373 0.4020940
v 0.6686578 0.9309373 0.2769671
v 0.6017761 0.8971875 0.4020940
v 0.6686578 0.9309373 0.2769671
v 0.6686578 0.8971875 0.2769671
v 0.6686578 0.8971875 0.2769671
v 0.6686578 0.9309373 0.2769671
v 0.7098433 0.9309373 0.1411966
v 0.6686578 0.8971875 0.2769671
v 0.7098433 0.9309373 0.1411966
v 0.7098433 0.8971875 0.1411966
v 0.7098433 0.8971875 0.1411966
v 0.7098433 0.9309373 0.1411966
v 0.7237500 0.9309373 0.0000000
v 0.7098433 0.8971875 0.1411966
v 0.7237500 0.9309373 0.0000000
v 0.7237500 0.8971875 0.0000000
v 0.0000000 0.8971875 0.7481250
v 0.0000000 0.8971875 0.7237500
v 0.1411966 0.8971875 0.7098433
v 0.0000000 0.8971875 0.7481250
v 0.1411966 0.8971875 0.7098433
v 0.1459519 0.8971875 0.7337500
v 0.1411966 0.8971875 0.7098433
v 0.2769671 0.8971875 0.6686578
v 0.2862950 0.8971875 0.6911773
v 0.1411966 0.8971875 0.7098433
v 0.2862950 0.8971875 0.6911773
v 0.1459519 0.8971875 0.7337500
v 0.2769671 0.8971875 0.6686578
v 0.4020940 0.8971875 0.6017761
v 0.4156360 0.8971875 0.6220431
v 0.2769671 0.8971875 0.6686578
v 0.4156360 0.8971875 0.6220431
v 0.2862950 0.8971875 0.6911773
v 0.4020940 0.8971875 0.6017761
v 0.5117686 0.8971875 0.5117686
v 0.5290043 0.8971875 0.5290043
v 0.4020940 0.8971875 0.6017761
v 0.5290043 0.8971875 0.5290043
v 0.4156360 0.8971875 0.6220431
v 0.5117686 0.8971875 0.5117686
v 0.6017761 0.8971875 0.4020940
v 0.6220431 0.8971875 0.4156360
v 0.5117686 0.8971875 0.5117686
v 0.6220431 0.8971875 0.4156360
v 0.5290043 0.8971875 0.5290043
v 0.6017761 0.8971875 0.4020940
v 0.6686578 0.8971875 0.2769671
v 0.6911773 0.8971875 0.2862950
v 0.6017761 0.8971875 0.4020940
v 0.6911773 0.8971875 0.2862950
v 0.6220431 0.8971875 0.4156360
v 0.6686578 0.8971875 0.2769671
v 0.7098433 0.8971875 0.1411966
v 0.7337500 0.8971875 0.1459519
v 0.6686578 0.8971875 0.2769671
v 0.7337500 0.8971875 0.1459519
v 0.6911773 0.8971875 0.2862950
v 0.7098433 0.8971875 0.1411966
v 0.7237500 0.8971875 0.0000000
v 0.7481250 0.8971875 0.0000000
v 0.7098433 0.8971875 0.1411966
v 0.7481250 0.8971875 0.0000000
v 0.7337500 0.8971875 0.1459519
v 0.0000000 0.5137498 0.7396875
v 0.1443059 0.5137498 0.7254745
v 0.1443059 0.5362501 0.7254745
v 0.0000000 0.5137498 0.7396875
v 0.1443059 0.5362501 0.7254745
v 0.0000000 0.5362501 0.7396875
v 0.1443059 0.5137498 0.7254745
v 0.2830662 0.5137498 0.6833821
v 0.2830662 0.5362501 0.6833821
v 0.1443059 0.5137498 0.7254745
v 0.2830662 0.5362501 0.6833821
v 0.1443059 0.5362501 0.7254745
v 0.2830662 0.5137498 0.6833821
v 0.4109483 0.5137498 0.6150276
v 0.4109483 0.5362501 0.6150276
v 0.2830662 0.5137498 0.6833821
v 0.4109483 0.5362501 0.6150276
v 0.2830662 0.5362501 0.6833821
v 0.4109483 0.5137498 0.6150276
v 0.5230380 0.5137498 0.5230380
v 0.5230380 0.5362501 0.5230380
v 0.4109483 0.5137498 0.6150276
v 0.5230380 0.5362501 0.5230380
v 0.4109483 0.5362501 0.6150276
v 0.5230380 0.5137498 0.5230380
v 0.6150276 0.5137498 0.4109483
v 0.6150276 0.5362501 0.4109483
v 0.5230380 0.5137498 0.5230380
v 0.6150276 0.5362501 0.4109483
v 0.5230380 0.5362501 0.5230380
v 0.6150276 0.5137498 0.4109483
v 0.6833821 0.5137498 0.2830662
v 0.6833821 0.5362501 0.2830662
v 0.6150276 0.5137498 0.4109483
v 0.6833821 0.5362501 0.2830662
v 0.6150276 0.5362501 0.4109483
v 0.6833821 0.5137498 0.2830662
v 0.7254745 0.5137498 0.1443059
v 0.7254745 0.5362501 0.1443059
v 0.6833821 0.5137498 0.2830662
v 0.7254745 0.5362501 0.1443059
v 0.6833821 0.5362501 0.2830662
v 0.7254745 0.5137498 0.1443059
v 0.7396875 0.5137498 0.0000000
v 0.7396875 0.5362501 0.0000000
v 0.7254745 0.5137498 0.1443059
v 0.7396875 0.5362501 0.0000000
v 0.7254745 0.5362501 0.1443059
v 0.0000000 0.5362501 0.7396875
v 0.1443059 0.5362501 0.7254745
v 0.1402821 0.5362501 0.7052459
v 0.0000000 0.5362501 0.7396875
v 0.1402821 0.5362501 0.7052459
v 0.0000000 0.5362501 0.7190625
v 0.1402821 0.5362501 0.7052459
v 0.1443059 0.5362501 0.7254745
v 0.2830662 0.5362501 0.6833821
v 0.1402821 0.5362501 0.7052459
v 0.2830662 0.5362501 0.6833821
v 0.2751733 0.5362501 0.6643271
v 0.2751733 0.5362501 0.6643271
v 0.2830662 0.5362501 0.6833821
v 0.4109483 0.5362501 0.6150276
v 0.2751733 0.5362501 0.6643271
v 0.4109483 0.5362501 0.6150276
v 0.3994898 0.5362501 0.5978786
v 0.3994898 0.5362501 0.5978786
v 0.4109483 0.5362501 0.6150276
v 0.5230380 0.5362501 0.5230380
v 0.3994898 0.5362501 0.5978786
v 0.5230380 0.5362501 0.5230380
v 0.5084540 0.5362501 0.5084540
v 0.5084540 0.5362501 0.5084540
v 0.5230380 0.5362501 0.5230380
v 0.6150276 0.5362501 0.4109483
v 0.5084540 0.5362501 0.5084540
v 0.6150276 0.5362501 0.4109483
v 0.5978786 0.5362501 0.3994898
v 0.5978786 0.5362501 0.3994898
v 0.6150276 0.5362501 0.4109483
v 0.6833821 0.5362501 0.2830662
v 0.5978786 0.5362501 0.3994898
v 0.6833821 0.5362501 0.2830662
v 0.6643271 0.5362501 0.2751733
v 0.6643271 0.5362501 0.2751733
v 0.6833821 0.5362501 0.2830662
v 0.7254745 0.5362501 0.1443059
v 0.6643271 0.5362501 0.2751733
v 0.7254745 0.5362501 0.1443059
v 0.7052459 0.5362501 0.1402821
v 0.7052459 0.5362501 0.1402821
v 0.7254745 0.5362501 0.1443059
v 0.7396875 0.5362501 0.0000000
v 0.7052459 0.5362501 0.1402821
v 0.7396875 0.5362501 0.0000000
v 0.7190625 0.5362501 0.0000000
v 0.0000000 0.5137498 0.7190625
v 0.0000000 0.5362501 0.7190625
v 0.1402821 0.5362501 0.7052459
v 0.0000000 0.5137498 0.7190625
v 0.1402821 0.5362501 0.7052459
v 0.1402821 0.5137498 0.7052459
v 0.1402821 0.5137498 0.7052459
v 0.1402821 0.5362501 0.7052459
v 0.2751733 0.5362501 0.6643271
v 0.1402821 0.5137498 0.7052459
v 0.2751733 0.5362501 0.6643271
v 0.2751733 0.5137498 0.6643271
v 0.2751733 0.5137498 0.6643271
v 0.2751733 0.5362501 0.6643271
v 0.3994898 0.5362501 0.5978786
v 0.2751733 0.5137498 0.6643271
v 0.3994898 0.5362501 0.5978786
v 0.3994898 0.5137498 0.5978786
v 0.3994898 0.5137498 0.5978786
v 0.3994898 0.5362501 0.5978786
v 0.5084540 0.5362501 0.5084540
v 0.3994898 0.5137498 0.5978786
v 0.5084540 0.5362501 0.5084540
v 0.5084540 0.5137498 0.5084540
v 0.5084540 0.5137498 0.5084540
v 0.5084540 0.5362501 0.5084540
v 0.5978786 0.5362501 0.3994898
v 0.5084540 0.5137498 0.5084540
v 0.5978786 0.5362501 0.3994898
v 0.5978786 0.5137498 0.3994898
v 0.5978786 0.5137498 0.3994898
v 0.5978786 0.5362501 0.3994898
v 0.6643271 0.5362501 0.2751733
v 0.5978786 0.5137498 0.3994898
v 0.6643271 0.5362501 0.2751733
v 0.6643271 0.5137498 0.2751733
v 0.6643271 0.5137498 0.2751733
v 0.6643271 0.5362501 0.2751733
v 0.7052459 0.5362501 0.1402821
v 0.6643271 0.5137498 0.2751733
v 0.7052459 0.5362501 0.1402821
v 0.7052459 0.5137498 0.1402821
v 0.7052459 0.5137498 0.1402821
v 0.7052459 0.5362501 0.1402821
v 0.7190625 0.5362501 0.0000000
v 0.7052459 0.5137498 0.1402821
v 0.7190625 0.5362501 0.0000000
v 0.7190625 0.5137498 0.0000000
v 0.0000000 0.5137498 0.7396875
v 0.0000000 0.5137498 0.7190625
v 0.1402821 0.5137498 0.7052459
v 0.0000000 0.5137498 0.7396875
v 0.1402821 0.5137498 0.7052459
v 0.1443059 0.5137498 0.7254745
v 0.1402821 0.5137498 0.7052459
v 0.2751733 0.5137498 0.6643271
v 0.2830662 0.5137498 0.6833821
v 0.1402821 0.5137498 0.7052459
v 0.2830662 0.5137498 0.6833821
v 0.1443059 0.5137498 0.7254745
v 0.2751733 0.5137498 0.6643271
v 0.3994898 0.5137498 0.5978786
v 0.4109483 0.5137498 0.6150276
v 0.2751733 0.5137498 0.6643271
v 0.4109483 0.5137498 0.6150276
v 0.2830662 0.5137498 0.6833821
v 0.3994898 0.5137498 0.5978786
v 0.5084540 0.5137498 0.5084540
v 0.5230380 0.5137498 0.5230380
v 0.3994898 0.5137498 0.5978786
v 0.5230380 0.5137498 0.5230380
v 0.4109483 0.5137498 0.6150276
v 0.5084540 0.5137498 0.5084540
v 0.5978786 0.5137498 0.3994898
v 0.6150276 0.5137498 0.4109483
v 0.5084540 0.5137498 0.5084540
v 0.6150276 0.5137498 0.4109483
v 0.5230380 0.5137498 0.5230380
v 0.5978786 0.5137498 0.3994898
v 0.6643271 0.5137498 0.2751733
v 0.6833821 0.5137498 0.2830662
v 0.5978786 0.5137498 0.3994898
v 0.6833821 0.5137498 0.2830662
v 0.6150276 0.5137498 0.4109483
v 0.6643271 0.5137498 0.2751733
v 0.7052459 0.5137498 0.1402821
v 0.7254745 0.5137498 0.1443059
v 0.6643271 0.5137498 0.2751733
v 0.7254745 0.5137498 0.1443059
v 0.6833821 0.5137498 0.2830662
v 0.7052459 0.5137498 0.1402821
v 0.7190625 0.5137498 0.0000000
v 0.7396875 0.5137498 0.0000000
v 0.7052459 0.5137498 0.1402821
v 0.7396875 0.5137498 0.0000000
v 0.7254745 0.5137498 0.1443059
v 0.6594607 0.0000000 0.2998152
v 0.6594607 1.0000000 0.2998152
v 0.6597974 1.0000000 0.2996978
v 0.6594607 0.0000000 0.2998152
v 0.6597974 1.0000000 0.2996978
v 0.6611987 0.0000000 0.2992094
v 0.6611987 0.0000000 0.2992094
v 0.6597974 1.0000000 0.2996978
v 0.6619646 1.0000000 0.2989424
v 0.6611987 0.0000000 0.2992094
v 0.6619646 1.0000000 0.2989424
v 0.6619646 0.0000000 0.2989424
v 0.6456534 0.0000000 0.3327092
v 0.6456534 1.0000000 0.3327092
v 0.6455360 1.0000000 0.3323725
v 0.6456534 0.0000000 0.3327092
v 0.6455360 1.0000000 0.3323725
v 0.6450476 0.0000000 0.3309712
v 0.6450476 0.0000000 0.3309712
v 0.6455360 1.0000000 0.3323725
v 0.6447806 1.0000000 0.3302053
v 0.6450476 0.0000000 0.3309712
v 0.6447806 1.0000000 0.3302053
v 0.6447806 0.0000000 0.3302053
v 0.6658849 0.0000000 0.3403997
v 0.6658849 1.0000000 0.3403997
v 0.6637177 1.0000000 0.3411551
v 0.6658849 0.0000000 0.3403997
v 0.6637177 1.0000000 0.3411551
v 0.6651190 0.0000000 0.3406667
v 0.6651190 0.0000000 0.3406667
v 0.6637177 1.0000000 0.3411551
v 0.6633809 1.0000000 0.3412725
v 0.6651190 0.0000000 0.3406667
v 0.6633809 1.0000000 0.3412725
v 0.6633809 0.0000000 0.3412725
v 0.6796921 0.0000000 0.3075058
v 0.6796921 1.0000000 0.3075058
v 0.6804475 1.0000000 0.3096730
v 0.6796921 0.0000000 0.3075058
v 0.6804475 1.0000000 0.3096730
v 0.6799591 0.0000000 0.3082717
v 0.6799591 0.0000000 0.3082717
v 0.6804475 1.0000000 0.3096730
v 0.6805649 1.0000000 0.3100097
v 0.6799591 0.0000000 0.3082717
v 0.6805649 1.0000000 0.3100097
v 0.6805649 0.0000000 0.3100097
v 0.6447806 0.0000000 0.3302053
v 0.6447806 1.0000000 0.3302053
v 0.6467549 1.0000000 0.3261182
v 0.6447806 0.0000000 0.3302053
v 0.6467549 1.0000000 0.3261182
v 0.6549704 0.0000000 0.3091108
v 0.6549704 0.0000000 0.3091108
v 0.6467549 1.0000000 0.3261182
v 0.6594607 1.0000000 0.2998152
v 0.6549704 0.0000000 0.3091108
v 0.6594607 1.0000000 0.2998152
v 0.6594607 0.0000000 0.2998152
v 0.6619646 0.0000000 0.2989424
v 0.6619646 1.0000000 0.2989424
v 0.6773080 1.0000000 0.3063541
v 0.6619646 0.0000000 0.2989424
v 0.6773080 1.0000000 0.3063541
v 0.6673870 0.0000000 0.3015617
v 0.6673870 0.0000000 0.3015617
v 0.6773080 1.0000000 0.3063541
v 0.6796921 1.0000000 0.3075058
v 0.6673870 0.0000000 0.3015617
v 0.6796921 1.0000000 0.3075058
v 0.6796921 0.0000000 0.3075058
v 0.6633809 0.0000000 0.3412725
v 0.6633809 1.0000000 0.3412725
v 0.6609968 1.0000000 0.3401208
v 0.6633809 0.0000000 0.3412725
v 0.6609968 1.0000000 0.3401208
v 0.6510758 0.0000000 0.3353285
v 0.6510758 0.0000000 0.3353285
v 0.6609968 1.0000000 0.3401208
v 0.6456534 1.0000000 0.3327092
v 0.6510758 0.0000000 0.3353285
v 0.6456534 1.0000000 0.3327092
v 0.6456534 0.0000000 0.3327092
v 0.6805649 0.0000000 0.3100097
v 0.6805649 1.0000000 0.3100097
v 0.6678592 1.0000000 0.3363126
v 0.6805649 0.0000000 0.3100097
v 0.6678592 1.0000000 0.3363126
v 0.6760746 0.0000000 0.3193053
v 0.6760746 0.0000000 0.3193053
v 0.6678592 1.0000000 0.3363126
v 0.6658849 1.0000000 0.3403997
v 0.6760746 0.0000000 0.3193053
v 0.6658849 1.0000000 0.3403997
v 0.6658849 0.0000000 0.3403997
vt 0.0739311 0.0407680
vt 0.0739311 0.0994535
vt 0.0725360 0.0994535
vt 0.0739311 0.0407680
vt 0.0725360 0.0994535
vt 0.0658731 0.0407680
vt 0.0658731 0.0407680
vt 0.0725360 0.0994535
vt 0.0625000 0.0994535
vt 0.0658731 0.0407680
vt 0.0625000 0.0994535
vt 0.0625000 0.0407680
vt 0.0849229 0.0407680
vt 0.0849229 0.0994535
vt 0.0835815 0.0994535
vt 0.0849229 0.0407680
vt 0.0835815 0.0994535
vt 0.0771746 0.0407680
vt 0.0771746 0.0407680
vt 0.0835815 0.0994535
vt 0.0739311 0.0994535
vt 0.0771746 0.0407680
vt 0.0739311 0.0994535
vt 0.0739311 0.0407680
vt 0.0950529 0.0407680
vt 0.0950529 0.0994535
vt 0.0938166 0.0994535
vt 0.0950529 0.0407680
vt 0.0938166 0.0994535
vt 0.0879121 0.0407680
vt 0.0879121 0.0407680
vt 0.0938166 0.0994535
vt 0.0849229 0.0994535
vt 0.0879121 0.0407680
vt 0.0849229 0.0994535
vt 0.0849229 0.0407680
vt 0.1039320 0.0407680
vt 0.1039320 0.0994535
vt 0.1028484 0.0994535
vt 0.1039320 0.0407680
vt 0.1028484 0.0994535
vt 0.0976730 0.0407680
vt 0.0976730 0.0407680
vt 0.1028484 0.0994535
vt 0.0950529 0.0994535
vt 0.0976730 0.0407680
vt 0.0950529 0.0994535
vt 0.0950529 0.0407680
vt 0.0299471 0.0407680
vt 0.0299471 0.0994535
vt 0.0288635 0.0994535
vt 0.0299471 0.0407680
vt 0.0288635 0.0994535
vt 0.0236881 0.0407680
vt 0.0236881 0.0407680
vt 0.0288635 0.0994535
vt 0.0210680 0.0994535
vt 0.0236881 0.0407680
vt 0.0210680 0.0994535
vt 0.0210680 0.0407680
vt 0.0400771 0.0407680
vt 0.0400771 0.0994535
vt 0.0388408 0.0994535
vt 0.0400771 0.0407680
vt 0.0388408 0.0994535
vt 0.0329363 0.0407680
vt 0.0329363 0.0407680
vt 0.0388408 0.0994535
vt 0.0299471 0.0994535
vt 0.0329363 0.0407680
vt 0.0299471 0.0994535
vt 0.0299471 0.0407680
vt 0.0510689 0.0407680
vt 0.0510689 0.0994535
vt 0.0497275 0.0994535
vt 0.0510689 0.0407680
vt 0.0497275 0.0994535
vt 0.0433206 0.0407680
vt 0.0433206 0.0407680
vt 0.0497275 0.0994535
vt 0.0400771 0.0994535
vt 0.0433206 0.0407680
vt 0.0400771 0.0994535
vt 0.0400771 0.0407680
vt 0.0625000 0.0407680
vt 0.0625000 0.0994535
vt 0.0611049 0.0994535
vt 0.0625000 0.0407680
vt 0.0611049 0.0994535
vt 0.0544420 0.0407680
vt 0.0544420 0.0407680
vt 0.0611049 0.0994535
vt 0.0510689 0.0994535
vt 0.0544420 0.0407680
vt 0.0510689 0.0994535
vt 0.0510689 0.0407680
vt 0.0917969 0.2539062
vt 0.0954590 0.2539062
vt 0.0954590 0.3433719
vt 0.0917969 0.2539062
vt 0.0954590 0.3433719
vt 0.0945927 0.3433719
vt 0.0917969 0.2539062
vt 0.0945927 0.3433719
vt 0.0917969 0.3433719
vt 0.0954590 0.2539062
vt 0.0991211 0.2539062
vt 0.0991211 0.3433719
vt 0.0954590 0.2539062
vt 0.0991211 0.3433719
vt 0.0982548 0.3433719
vt 0.0954590 0.2539062
vt 0.0982548 0.3433719
vt 0.0954590 0.3433719
vt 0.0991211 0.2539062
vt 0.1027832 0.2539062
vt 0.1027832 0.3433719
vt 0.0991211 0.2539062
vt 0.1027832 0.3433719
vt 0.1019169 0.3433719
vt 0.0991211 0.2539062
vt 0.1019169 0.3433719
vt 0.0991211 0.3433719
vt 0.1027832 0.2539062
vt 0.1064453 0.2539062
vt 0.1064453 0.3433719
vt 0.1027832 0.2539062
vt 0.1064453 0.3433719
vt 0.1055790 0.3433719
vt 0.1027832 0.2539062
vt 0.1055790 0.3433719
vt 0.1027832 0.3433719
vt 0.1064453 0.2539062
vt 0.1101074 0.2539062
vt 0.1101074 0.3433719
vt 0.1064453 0.2539062
vt 0.1101074 0.3433719
vt 0.1092411 0.3433719
vt 0.1064453 0.2539062
vt 0.1092411 0.3433719
vt 0.1064453 0.3433719
vt 0.1101074 0.2539062
vt 0.1137695 0.2539062
vt 0.1137695 0.3433719
vt 0.1101074 0.2539062
vt 0.1137695 0.3433719
vt 0.1129032 0.3433719
vt 0.1101074 0.2539062
vt 0.1129032 0.3433719
vt 0.1101074 0.3433719
vt 0.1137695 0.2539062
vt 0.1174316 0.2539062
vt 0.1174316 0.3433719
vt 0.1137695 0.2539062
vt 0.1174316 0.3433719
vt 0.1165653 0.3433719
vt 0.1137695 0.2539062
vt 0.1165653 0.3433719
vt 0.1137695 0.3433719
vt 0.1174316 0.2539062
vt 0.1210938 0.2539062
vt 0.1210938 0.3433719
vt 0.1174316 0.2539062
vt 0.1210938 0.3433719
vt 0.1202275 0.3433719
vt 0.1174316 0.2539062
vt 0.1202275 0.3433719
vt 0.1174316 0.3433719
vt 0.0625000 0.0039062
vt 0.0739311 0.0039062
vt 0.0739311 0.1210938
vt 0.0625000 0.0039062
vt 0.0739311 0.1210938
vt 0.0625000 0.1210938
vt 0.0739311 0.0039062
vt 0.0849229 0.0039062
vt 0.0849229 0.1210938
vt 0.0739311 0.0039062
vt 0.0849229 0.1210938
vt 0.0739311 0.1210938
vt 0.0849229 0.0039062
vt 0.0950529 0.0039062
vt 0.0950529 0.1210938
vt 0.0849229 0.0039062
vt 0.0950529 0.1210938
vt 0.0849229 0.1210938
vt 0.0950529 0.0039062
vt 0.1039320 0.0039062
vt 0.1039320 0.1210938
vt 0.0950529 0.0039062
vt 0.1039320 0.1210938
vt 0.0950529 0.1210938
vt 0.0210680 0.0039062
vt 0.0299471 0.0039062
vt 0.0299471 0.1210938
vt 0.0210680 0.0039062
vt 0.0299471 0.1210938
vt 0.0210680 0.1210938
vt 0.0299471 0.0039062
vt 0.0400771 0.0039062
vt 0.0400771 0.1210938
vt 0.0299471 0.0039062
vt 0.0400771 0.1210938
vt 0.0299471 0.1210938
vt 0.0400771 0.0039062
vt 0.0510689 0.0039062
vt 0.0510689 0.1210938
vt 0.0400771 0.0039062
vt 0.0510689 0.1210938
vt 0.0400771 0.1210938
vt 0.0510689 0.0039062
vt 0.0625000 0.0039062
vt 0.0625000 0.1210938
vt 0.0510689 0.0039062
vt 0.0625000 0.1210938
vt 0.0510689 0.1210938
vt 0.0625000 0.0039062
vt 0.0739311 0.0050321
vt 0.0735586 0.0069045
vt 0.0625000 0.0039062
vt 0.0735586 0.0069045
vt 0.0625000 0.0058153
vt 0.0735586 0.0069045
vt 0.0739311 0.0050321
vt 0.0849229 0.0083664
vt 0.0735586 0.0069045
vt 0.0849229 0.0083664
vt 0.0841923 0.0101302
vt 0.0841923 0.0101302
vt 0.0849229 0.0083664
vt 0.0950529 0.0137811
vt 0.0841923 0.0101302
vt 0.0950529 0.0137811
vt 0.0939923 0.0153684
vt 0.0939923 0.0153684
vt 0.0950529 0.0137811
vt 0.1039320 0.0210680
vt 0.0939923 0.0153684
vt 0.1039320 0.0210680
vt 0.1025821 0.0224179
vt 0.1025821 0.0224179
vt 0.1039320 0.0210680
vt 0.1112189 0.0299471
vt 0.1025821 0.0224179
vt 0.1112189 0.0299471
vt 0.1096316 0.0310077
vt 0.1096316 0.0310077
vt 0.1112189 0.0299471
vt 0.1166336 0.0400771
vt 0.1096316 0.0310077
vt 0.1166336 0.0400771
vt 0.1148698 0.0408077
vt 0.1148698 0.0408077
vt 0.1166336 0.0400771
vt 0.1199679 0.0510689
vt 0.1148698 0.0408077
vt 0.1199679 0.0510689
vt 0.1180955 0.0514414
vt 0.1180955 0.0514414
vt 0.1199679 0.0510689
vt 0.1210938 0.0625000
vt 0.1180955 0.0514414
vt 0.1210938 0.0625000
vt 0.1191847 0.0625000
vt 0.0625000 0.0039062
vt 0.0625000 0.1210938
vt 0.0735586 0.1210938
vt 0.0625000 0.0039062
vt 0.0735586 0.1210938
vt 0.0735586 0.0039062
vt 0.0735586 0.0039062
vt 0.0735586 0.1210938
vt 0.0841923 0.1210938
vt 0.0735586 0.0039062
vt 0.0841923 0.1210938
vt 0.0841923 0.0039062
vt 0.0841923 0.0039062
vt 0.0841923 0.1210938
vt 0.0939923 0.1210938
vt 0.0841923 0.0039062
vt 0.0939923 0.1210938
vt 0.0939923 0.0039062
vt 0.0939923 0.0039062
vt 0.0939923 0.1210938
vt 0.1025821 0.1210938
vt 0.0939923 0.0039062
vt 0.1025821 0.1210938
vt 0.1025821 0.0039062
vt 0.0224179 0.0039062
vt 0.0224179 0.1210938
vt 0.0310077 0.1210938
vt 0.0224179 0.0039062
vt 0.0310077 0.1210938
vt 0.0310077 0.0039062
vt 0.0310077 0.0039062
vt 0.0310077 0.1210938
vt 0.0408077 0.1210938
vt 0.0310077 0.0039062
vt 0.0408077 0.1210938
vt 0.0408077 0.0039062
vt 0.0408077 0.0039062
vt 0.0408077 0.1210938
vt 0.0514414 0.1210938
vt 0.0408077 0.0039062
vt 0.0514414 0.1210938
vt 0.0514414 0.0039062
vt 0.0514414 0.0039062
vt 0.0514414 0.1210938
vt 0.0625000 0.1210938
vt 0.0514414 0.0039062
vt 0.0625000 0.1210938
vt 0.0625000 0.0039062
vt 0.0625000 0.0039062
vt 0.0625000 0.0058153
vt 0.0735586 0.0069045
vt 0.0625000 0.0039062
vt 0.0735586 0.0069045
vt 0.0739311 0.0050321
vt 0.0735586 0.0069045
vt 0.0841923 0.0101302
vt 0.0849229 0.0083664
vt 0.0735586 0.0069045
vt 0.0849229 0.0083664
vt 0.0739311 0.0050321
vt 0.0841923 0.0101302
vt 0.0939923 0.0153684
vt 0.0950529 0.0137811
vt 0.0841923 0.0101302
vt 0.0950529 0.0137811
vt 0.0849229 0.0083664
vt 0.0939923 0.0153684
vt 0.1025821 0.0224179
vt 0.1039320 0.0210680
vt 0.0939923 0.0153684
vt 0.1039320 0.0210680
vt 0.0950529 0.0137811
vt 0.1025821 0.0224179
vt 0.1096316 0.0310077
vt 0.1112189 0.0299471
vt 0.1025821 0.0224179
vt 0.1112189 0.0299471
vt 0.1039320 0.0210680
vt 0.1096316 0.0310077
vt 0.1148698 0.0408077
vt 0.1166336 0.0400771
vt 0.1096316 0.0310077
vt 0.1166336 0.0400771
vt 0.1112189 0.0299471
vt 0.1148698 0.0408077
vt 0.1180955 0.0514414
vt 0.1199679 0.0510689
vt 0.1148698 0.0408077
vt 0.1199679 0.0510689
vt 0.1166336 0.0400771
vt 0.1180955 0.0514414
vt 0.1191847 0.0625000
vt 0.1210938 0.0625000
vt 0.1180955 0.0514414
vt 0.1210938 0.0625000
vt 0.1199679 0.0510689
vt 0.0625000 0.0039062
vt 0.0739311 0.0039062
vt 0.0739311 0.1210938
vt 0.0625000 0.0039062
vt 0.0739311 0.1210938
vt 0.0625000 0.1210938
vt 0.0739311 0.0039062
vt 0.0849229 0.0039062
vt 0.0849229 0.1210938
vt 0.0739311 0.0039062
vt 0.0849229 0.1210938
vt 0.0739311 0.1210938
vt 0.0849229 0.0039062
vt 0.0950529 0.0039062
vt 0.0950529 0.1210938
vt 0.0849229 0.0039062
vt 0.0950529 0.1210938
vt 0.0849229 0.1210938
vt 0.0950529 0.0039062
vt 0.1039320 0.0039062
vt 0.1039320 0.1210938
vt 0.0950529 0.0039062
vt 0.1039320 0.1210938
vt 0.0950529 0.1210938
vt 0.0210680 0.0039062
vt 0.0299471 0.0039062
vt 0.0299471 0.1210938
vt 0.0210680 0.0039062
vt 0.0299471 0.1210938
vt 0.0210680 0.1210938
vt 0.0299471 0.0039062
vt 0.0400771 0.0039062
vt 0.0400771 0.1210938
vt 0.0299471 0.0039062
vt 0.0400771 0.1210938
vt 0.0299471 0.1210938
vt 0.0400771 0.0039062
vt 0.0510689 0.0039062
vt 0.0510689 0.1210938
vt 0.0400771 0.0039062
vt 0.0510689 0.1210938
vt 0.0400771 0.1210938
vt 0.0510689 0.0039062
vt 0.0625000 0.0039062
vt 0.0625000 0.1210938
vt 0.0510689 0.0039062
vt 0.0625000 0.1210938
vt 0.0510689 0.1210938
vt 0.0625000 0.0039062
vt 0.0739311 0.0050321
vt 0.0735586 0.0069045
vt 0.0625000 0.0039062
vt 0.0735586 0.0069045
vt 0.0625000 0.0058153
vt 0.0735586 0.0069045
vt 0.0739311 0.0050321
vt 0.0849229 0.0083664
vt 0.0735586 0.0069045
vt 0.0849229 0.0083664
vt 0.0841923 0.0101302
vt 0.0841923 0.0101302
vt 0.0849229 0.0083664
vt 0.0950529 0.0137811
vt 0.0841923 0.0101302
vt 0.0950529 0.0137811
vt 0.0939923 0.0153684
vt 0.0939923 0.0153684
vt 0.0950529 0.0137811
vt 0.1039320 0.0210680
vt 0.0939923 0.0153684
vt 0.1039320 0.0210680
vt 0.1025821 0.0224179
vt 0.1025821 0.0224179
vt 0.1039320 0.0210680
vt 0.1112189 0.0299471
vt 0.1025821 0.0224179
vt 0.1112189 0.0299471
vt 0.1096316 0.0310077
vt 0.1096316 0.0310077
vt 0.1112189 0.0299471
vt 0.1166336 0.0400771
vt 0.1096316 0.0310077
vt 0.1166336 0.0400771
vt 0.1148698 0.0408077
vt 0.1148698 0.0408077
vt 0.1166336 0.0400771
vt 0.1199679 0.0510689
vt 0.1148698 0.0408077
vt 0.1199679 0.0510689
vt 0.1180955 0.0514414
vt 0.1180955 0.0514414
vt 0.1199679 0.0510689
vt 0.1210938 0.0625000
vt 0.1180955 0.0514414
vt 0.1210938 0.0625000
vt 0.1191847 0.0625000
vt 0.0625000 0.0039062
vt 0.0625000 0.1210938
vt 0.0735586 0.1210938
vt 0.0625000 0.0039062
vt 0.0735586 0.1210938
vt 0.0735586 0.0039062
vt 0.0735586 0.0039062
vt 0.0735586 0.1210938
vt 0.0841923 0.1210938
vt 0.0735586 0.0039062
vt 0.0841923 0.1210938
vt 0.0841923 0.0039062
vt 0.0841923 0.0039062
vt 0.0841923 0.1210938
vt 0.0939923 0.1210938
vt 0.0841923 0.0039062
vt 0.0939923 0.1210938
vt 0.0939923 0.0039062
vt 0.0939923 0.0039062
vt 0.0939923 0.1210938
vt 0.1025821 0.1210938
vt 0.0939923 0.0039062
vt 0.1025821 0.1210938
vt 0.1025821 0.0039062
vt 0.0224179 0.0039062
vt 0.0224179 0.1210938
vt 0.0310077 0.1210938
vt 0.0224179 0.0039062
vt 0.0310077 0.1210938
vt 0.0310077 0.0039062
vt 0.0310077 0.0039062
vt 0.0310077 0.1210938
vt 0.0408077 0.1210938
vt 0.0310077 0.0039062
vt 0.0408077 0.1210938
vt 0.0408077 0.0039062
vt 0.0408077 0.0039062
vt 0.0408077 0.1210938
vt 0.0514414 0.1210938
vt 0.0408077 0.0039062
vt 0.0514414 0.1210938
vt 0.0514414 0.0039062
vt 0.0514414 0.0039062
vt 0.0514414 0.1210938
vt 0.0625000 0.1210938
vt 0.0514414 0.0039062
vt 0.0625000 0.1210938
vt 0.0625000 0.0039062
vt 0.0625000 0.0039062
vt 0.0625000 0.0058153
vt 0.0735586 0.0069045
vt 0.0625000 0.0039062
vt 0.0735586 0.0069045
vt 0.0739311 0.0050321
vt 0.0735586 0.0069045
vt 0.0841923 0.0101302
vt 0.0849229 0.0083664
vt 0.0735586 0.0069045
vt 0.0849229 0.0083664
vt 0.0739311 0.0050321
vt 0.0841923 0.0101302
vt 0.0939923 0.0153684
vt 0.0950529 0.0137811
vt 0.0841923 0.0101302
vt 0.0950529 0.0137811
vt 0.0849229 0.0083664
vt 0.0939923 0.0153684
vt 0.1025821 0.0224179
vt 0.1039320 0.0210680
vt 0.0939923 0.0153684
vt 0.1039320 0.0210680
vt 0.0950529 0.0137811
vt 0.1025821 0.0224179
vt 0.1096316 0.0310077
vt 0.1112189 0.0299471
vt 0.1025821 0.0224179
vt 0.1112189 0.0299471
vt 0.1039320 0.0210680
vt 0.1096316 0.0310077
vt 0.1148698 0.0408077
vt 0.1166336 0.0400771
vt 0.1096316 0.0310077
vt 0.1166336 0.0400771
vt 0.1112189 0.0299471
vt 0.1148698 0.0408077
vt 0.1180955 0.0514414
vt 0.1199679 0.0510689
vt 0.1148698 0.0408077
vt 0.1199679 0.0510689
vt 0.1166336 0.0400771
vt 0.1180955 0.0514414
vt 0.1191847 0.0625000
vt 0.1210938 0.0625000
vt 0.1180955 0.0514414
vt 0.1210938 0.0625000
vt 0.1199679 0.0510689
vt 0.0625000 0.0039062
vt 0.0739311 0.0039062
vt 0.0739311 0.1210938
vt 0.0625000 0.0039062
vt 0.0739311 0.1210938
vt 0.0625000 0.1210938
vt 0.0739311 0.0039062
vt 0.0849229 0.0039062
vt 0.0849229 0.1210938
vt 0.0739311 0.0039062
vt 0.0849229 0.1210938
vt 0.0739311 0.1210938
vt 0.0849229 0.0039062
vt 0.0950529 0.0039062
vt 0.0950529 0.1210938
vt 0.0849229 0.0039062
vt 0.0950529 0.1210938
vt 0.0849229 0.1210938
vt 0.0950529 0.0039062
vt 0.1039320 0.0039062
vt 0.1039320 0.1210938
vt 0.0950529 0.0039062
vt 0.1039320 0.1210938
vt 0.0950529 0.1210938
vt 0.0210680 0.0039062
vt 0.0299471 0.0039062
vt 0.0299471 0.1210938
vt 0.0210680 0.0039062
vt 0.0299471 0.1210938
vt 0.0210680 0.1210938
vt 0.0299471 0.0039062
vt 0.0400771 0.0039062
vt 0.0400771 0.1210938
vt 0.0299471 0.0039062
vt 0.0400771 0.1210938
vt 0.0299471 0.1210938
vt 0.0400771 0.0039062
vt 0.0510689 0.0039062
vt 0.0510689 0.1210938
vt 0.0400771 0.0039062
vt 0.0510689 0.1210938
vt 0.0400771 0.1210938
vt 0.0510689 0.0039062
vt 0.0625000 0.0039062
vt 0.0625000 0.1210938
vt 0.0510689 0.0039062
vt 0.0625000 0.1210938
vt 0.0510689 0.1210938
vt 0.0625000 0.0039062
vt 0.0739311 0.0050321
vt 0.0736123 0.0066345
vt 0.0625000 0.0039062
vt 0.0736123 0.0066345
vt 0.0625000 0.0055400
vt 0.0736123 0.0066345
vt 0.0739311 0.0050321
vt 0.0849229 0.0083664
vt 0.0736123 0.0066345
vt 0.0849229 0.0083664
vt 0.0842976 0.0098759
vt 0.0842976 0.0098759
vt 0.0849229 0.0083664
vt 0.0950529 0.0137811
vt 0.0842976 0.0098759
vt 0.0950529 0.0137811
vt 0.0941453 0.0151395
vt 0.0941453 0.0151395
vt 0.0950529 0.0137811
vt 0.1039320 0.0210680
vt 0.0941453 0.0151395
vt 0.1039320 0.0210680
vt 0.1027768 0.0222232
vt 0.1027768 0.0222232
vt 0.1039320 0.0210680
vt 0.1112189 0.0299471
vt 0.1027768 0.0222232
vt 0.1112189 0.0299471
vt 0.1098605 0.0308547
vt 0.1098605 0.0308547
vt 0.1112189 0.0299471
vt 0.1166336 0.0400771
vt 0.1098605 0.0308547
vt 0.1166336 0.0400771
vt 0.1151241 0.0407024
vt 0.1151241 0.0407024
vt 0.1166336 0.0400771
vt 0.1199679 0.0510689
vt 0.1151241 0.0407024
vt 0.1199679 0.0510689
vt 0.1183655 0.0513877
vt 0.1183655 0.0513877
vt 0.1199679 0.0510689
vt 0.1210938 0.0625000
vt 0.1183655 0.0513877
vt 0.1210938 0.0625000
vt 0.1194600 0.0625000
vt 0.0625000 0.0039062
vt 0.0625000 0.1210938
vt 0.0736123 0.1210938
vt 0.0625000 0.0039062
vt 0.0736123 0.1210938
vt 0.0736123 0.0039062
vt 0.0736123 0.0039062
vt 0.0736123 0.1210938
vt 0.0842976 0.1210938
vt 0.0736123 0.0039062
vt 0.0842976 0.1210938
vt 0.0842976 0.0039062
vt 0.0842976 0.0039062
vt 0.0842976 0.1210938
vt 0.0941453 0.1210938
vt 0.0842976 0.0039062
vt 0.0941453 0.1210938
vt 0.0941453 0.0039062
vt 0.0941453 0.0039062
vt 0.0941453 0.1210938
vt 0.1027768 0.1210938
vt 0.0941453 0.0039062
vt 0.1027768 0.1210938
vt 0.1027768 0.0039062
vt 0.0222232 0.0039062
vt 0.0222232 0.1210938
vt 0.0308547 0.1210938
vt 0.0222232 0.0039062
vt 0.0308547 0.1210938
vt 0.0308547 0.0039062
vt 0.0308547 0.0039062
vt 0.0308547 0.1210938
vt 0.0407024 0.1210938
vt 0.0308547 0.0039062
vt 0.0407024 0.1210938
vt 0.0407024 0.0039062
vt 0.0407024 0.0039062
vt 0.0407024 0.1210938
vt 0.0513877 0.1210938
vt 0.0407024 0.0039062
vt 0.0513877 0.1210938
vt 0.0513877 0.0039062
vt 0.0513877 0.0039062
vt 0.0513877 0.1210938
vt 0.0625000 0.1210938
vt 0.0513877 0.0039062
vt 0.0625000 0.1210938
vt 0.0625000 0.0039062
vt 0.0625000 0.0039062
vt 0.0625000 0.0055400
vt 0.0736123 0.0066345
vt 0.0625000 0.0039062
vt 0.0736123 0.0066345
vt 0.0739311 0.0050321
vt 0.0736123 0.0066345
vt 0.0842976 0.0098759
vt 0.0849229 0.0083664
vt 0.0736123 0.0066345
vt 0.0849229 0.0083664
vt 0.0739311 0.0050321
vt 0.0842976 0.0098759
vt 0.0941453 0.0151395
vt 0.0950529 0.0137811
vt 0.0842976 0.0098759
vt 0.0950529 0.0137811
vt 0.0849229 0.0083664
vt 0.0941453 0.0151395
vt 0.1027768 0.0222232
vt 0.1039320 0.0210680
vt 0.0941453 0.0151395
vt 0.1039320 0.0210680
vt 0.0950529 0.0137811
vt 0.1027768 0.0222232
vt 0.1098605 0.0308547
vt 0.1112189 0.0299471
vt 0.1027768 0.0222232
vt 0.1112189 0.0299471
vt 0.1039320 0.0210680
vt 0.1098605 0.0308547
vt 0.1151241 0.0407024
vt 0.1166336 0.0400771
vt 0.1098605 0.0308547
vt 0.1166336 0.0400771
vt 0.1112189 0.0299471
vt 0.1151241 0.0407024
vt 0.1183655 0.0513877
vt 0.1199679 0.0510689
vt 0.1151241 0.0407024
vt 0.1199679 0.0510689
vt 0.1166336 0.0400771
vt 0.1183655 0.0513877
vt 0.1194600 0.0625000
vt 0.1210938 0.0625000
vt 0.1183655 0.0513877
vt 0.1210938 0.0625000
vt 0.1199679 0.0510689
vt 0.0083008 0.0397988
vt 0.0083008 0.1052437
vt 0.0086554 0.1055548
vt 0.0083008 0.0397988
vt 0.0086554 0.1055548
vt 0.0101310 0.0414043
vt 0.0101310 0.0414043
vt 0.0086554 0.1055548
vt 0.0129661 0.1055548
vt 0.0101310 0.0414043
vt 0.0129661 0.1055548
vt 0.0116544 0.0414043
vt 0.1210938 0.0440803
vt 0.1210938 0.1060733
vt 0.1203058 0.1052396
vt 0.1210938 0.0440803
vt 0.1203058 0.1052396
vt 0.1170267 0.0397775
vt 0.1170267 0.0397775
vt 0.1203058 0.1052396
vt 0.1152344 0.1052396
vt 0.1170267 0.0397775
vt 0.1152344 0.1052396
vt 0.1152344 0.0397775
vt 0.1152344 0.0397988
vt 0.1152344 0.1052437
vt 0.1142201 0.1052437
vt 0.1152344 0.0397988
vt 0.1142201 0.1052437
vt 0.1148759 0.0397988
vt 0.1148759 0.0397988
vt 0.1142201 0.1052437
vt 0.1141676 0.1052437
vt 0.1148759 0.0397988
vt 0.1141676 0.1052437
vt 0.1146047 0.0397988
vt 0.1117187 0.0397988
vt 0.1117188 0.1052437
vt 0.1198330 0.1052437
vt 0.1117187 0.0397988
vt 0.1198330 0.1052437
vt 0.1145863 0.0397988
vt 0.1145863 0.0397988
vt 0.1198330 0.1052437
vt 0.1210938 0.1052437
vt 0.1145863 0.0397988
vt 0.1210938 0.1052437
vt 0.1210938 0.0397988
vt 0.1152344 0.0397775
vt 0.1152344 0.1052396
vt 0.1008532 0.1052437
vt 0.1152344 0.0397775
vt 0.1008532 0.1052437
vt 0.0410092 0.0397988
vt 0.0410092 0.0397988
vt 0.1008532 0.1052437
vt 0.0083008 0.1052437
vt 0.0410092 0.0397988
vt 0.0083008 0.1052437
vt 0.0083008 0.0397988
vt 0.0116544 0.0414043
vt 0.0129661 0.1055548
vt 0.0981650 0.1055548
vt 0.0116544 0.0414043
vt 0.0981650 0.1055548
vt 0.0417641 0.0414043
vt 0.0417641 0.0414043
vt 0.0981650 0.1055548
vt 0.1117188 0.1052437
vt 0.0417641 0.0414043
vt 0.1117188 0.1052437
vt 0.1117187 0.0397988
vt 0.1146047 0.0397988
vt 0.1141676 0.1052437
vt 0.1005087 0.1052437
vt 0.1146047 0.0397988
vt 0.1005087 0.1052437
vt 0.0441079 0.0397988
vt 0.0441079 0.0397988
vt 0.1005087 0.1052437
vt 0.0132813 0.1052437
vt 0.0441079 0.0397988
vt 0.0132813 0.1052437
vt 0.0132813 0.0397988
vt 0.0097656 0.0397988
vt 0.0097656 0.1052437
vt 0.1010502 0.1052437
vt 0.0097656 0.0397988
vt 0.1010502 0.1052437
vt 0.0420260 0.0397988
vt 0.0420260 0.0397988
vt 0.1010502 0.1052437
vt 0.1152344 0.1052437
vt 0.0420260 0.0397988
vt 0.1152344 0.1052437
vt 0.1152344 0.0397988
vn 0.1950904 0.0000000 0.9807853
vn 0.1950904 0.0000000 0.9807853
vn 0.1716353 0.0000000 0.9851606
vn 0.1950904 0.0000000 0.9807853
vn 0.1716353 0.0000000 0.9851606
vn 0.0577991 0.0000000 0.9983282
vn 0.0577991 0.0000000 0.9983282
vn 0.1716353 0.0000000 0.9851606
vn 0.0000000 0.0000000 1.0000000
vn 0.0577991 0.0000000 0.9983282
vn 0.0000000 0.0000000 1.0000000
vn 0.0000000 0.0000000 1.0000000
vn 0.3826832 0.0000000 0.9238796
vn 0.3826832 0.0000000 0.9238796
vn 0.3605324 0.0000000 0.9327467
vn 0.3826832 0.0000000 0.9238796
vn 0.3605324 0.0000000 0.9327467
vn 0.2514527 0.0000000 0.9678696
vn 0.2514527 0.0000000 0.9678696
vn 0.3605324 0.0000000 0.9327467
vn 0.1950904 0.0000000 0.9807853
vn 0.2514527 0.0000000 0.9678696
vn 0.1950904 0.0000000 0.9807853
vn 0.1950904 0.0000000 0.9807853
vn 0.5555704 0.0000000 0.8314695
vn 0.5555704 0.0000000 0.8314695
vn 0.5355750 0.0000000 0.8444877
vn 0.5555704 0.0000000 0.8314695
vn 0.5355750 0.0000000 0.8444877
vn 0.4354430 0.0000000 0.9002163
vn 0.4354430 0.0000000 0.9002163
vn 0.5355750 0.0000000 0.8444877
vn 0.3826832 0.0000000 0.9238796
vn 0.4354430 0.0000000 0.9002163
vn 0.3826832 0.0000000 0.9238796
vn 0.3826832 0.0000000 0.9238796
vn 0.7071068 0.0000000 0.7071068
vn 0.7071068 0.0000000 0.7071068
vn 0.6900354 0.0000000 0.7237756
vn 0.7071068 0.0000000 0.7071068
vn 0.6900354 0.0000000 0.7237756
vn 0.6026997 0.0000000 0.7979681
vn 0.6026997 0.0000000 0.7979681
vn 0.6900354 0.0000000 0.7237756
vn 0.5555704 0.0000000 0.8314695
vn 0.6026997 0.0000000 0.7979681
vn 0.5555704 0.0000000 0.8314695
vn 0.5555704 0.0000000 0.8314695
vn 0.8314696 0.0000000 0.5555702
vn 0.8314696 0.0000000 0.5555702
vn 0.8179782 0.0000000 0.5752493
vn 0.8314696 0.0000000 0.5555702
vn 0.8179782 0.0000000 0.5752493
vn 0.7467948 0.0000000 0.6650545
vn 0.7467948 0.0000000 0.6650545
vn 0.8179782 0.0000000 0.5752493
vn 0.7071068 0.0000000 0.7071068
vn 0.7467948 0.0000000 0.6650545
vn 0.7071068 0.0000000 0.7071068
vn 0.7071068 0.0000000 0.7071068
vn 0.9238796 0.0000000 0.3826833
vn 0.9238796 0.0000000 0.3826833
vn 0.9144866 0.0000000 0.4046163
vn 0.9238796 0.0000000 0.3826833
vn 0.9144866 0.0000000 0.4046163
vn 0.8621911 0.0000000 0.5065832
vn 0.8621911 0.0000000 0.5065832
vn 0.9144866 0.0000000 0.4046163
vn 0.8314696 0.0000000 0.5555702
vn 0.8621911 0.0000000 0.5065832
vn 0.8314696 0.0000000 0.5555702
vn 0.8314696 0.0000000 0.5555702
vn 0.9807853 0.0000000 0.1950904
vn 0.9807853 0.0000000 0.1950904
vn 0.9758516 0.0000000 0.2184344
vn 0.9807853 0.0000000 0.1950904
vn 0.9758516 0.0000000 0.2184344
vn 0.9444538 0.0000000 0.3286442
vn 0.9444538 0.0000000 0.3286442
vn 0.9758516 0.0000000 0.2184344
vn 0.9238796 0.0000000 0.3826833
vn 0.9444538 0.0000000 0.3286442
vn 0.9238796 0.0000000 0.3826833
vn 0.9238796 0.0000000 0.3826833
vn 1.0000000 0.0000000 0.0000000
vn 1.0000000 0.0000000 0.0000000
vn 0.9997154 0.0000000 0.0238580
vn 1.0000000 0.0000000 0.0000000
vn 0.9997154 0.0000000 0.0238580
vn 0.9904217 0.0000000 0.1380757
vn 0.9904217 0.0000000 0.1380757
vn 0.9997154 0.0000000 0.0238580
vn 0.9807853 0.0000000 0.1950904
vn 0.9904217 0.0000000 0.1380757
vn 0.9807853 0.0000000 0.1950904
vn 0.9807853 0.0000000 0.1950904
vn 0.0000000 0.0000000 1.0000000
vn 0.1950905 0.0000000 0.9807852
vn 0.1950905 0.0000000 0.9807852
vn 0.0000000 0.0000000 1.0000000
vn 0.1950905 0.0000000 0.9807852
vn 0.1494594 0.0000000 0.9887679
vn 0.0000000 0.0000000 1.0000000
vn 0.1494594 0.0000000 0.9887679
vn 0.0000000 0.0000000 1.0000000
vn 0.1950905 0.0000000 0.9807852
vn 0.3826836 0.0000000 0.9238795
vn 0.3826836 0.0000000 0.9238795
vn 0.1950905 0.0000000 0.9807852
vn 0.3826836 0.0000000 0.9238795
vn 0.3394866 0.0000000 0.9406109
vn 0.1950905 0.0000000 0.9807852
vn 0.3394866 0.0000000 0.9406109
vn 0.1950905 0.0000000 0.9807852
vn 0.3826836 0.0000000 0.9238795
vn 0.5555702 0.0000000 0.8314697
vn 0.5555702 0.0000000 0.8314697
vn 0.3826836 0.0000000 0.9238795
vn 0.5555702 0.0000000 0.8314697
vn 0.5164674 0.0000000 0.8563069
vn 0.3826836 0.0000000 0.9238795
vn 0.5164674 0.0000000 0.8563069
vn 0.3826836 0.0000000 0.9238795
vn 0.5555702 0.0000000 0.8314697
vn 0.7071068 0.0000000 0.7071067
vn 0.7071068 0.0000000 0.7071067
vn 0.5555702 0.0000000 0.8314697
vn 0.7071068 0.0000000 0.7071067
vn 0.6736008 0.0000000 0.7390953
vn 0.5555702 0.0000000 0.8314697
vn 0.6736008 0.0000000 0.7390953
vn 0.5555702 0.0000000 0.8314697
vn 0.7071068 0.0000000 0.7071067
vn 0.8314698 0.0000000 0.5555699
vn 0.8314698 0.0000000 0.5555699
vn 0.7071068 0.0000000 0.7071067
vn 0.8314698 0.0000000 0.5555699
vn 0.8048483 0.0000000 0.5934806
vn 0.7071068 0.0000000 0.7071067
vn 0.8048483 0.0000000 0.5934806
vn 0.7071068 0.0000000 0.7071067
vn 0.8314698 0.0000000 0.5555699
vn 0.9238796 0.0000000 0.3826834
vn 0.9238796 0.0000000 0.3826834
vn 0.8314698 0.0000000 0.5555699
vn 0.9238796 0.0000000 0.3826834
vn 0.9051656 0.0000000 0.4250591
vn 0.8314698 0.0000000 0.5555699
vn 0.9051656 0.0000000 0.4250591
vn 0.8314698 0.0000000 0.5555699
vn 0.9238796 0.0000000 0.3826834
vn 0.9807852 0.0000000 0.1950905
vn 0.9807852 0.0000000 0.1950905
vn 0.9238796 0.0000000 0.3826834
vn 0.9807852 0.0000000 0.1950905
vn 0.9706980 0.0000000 0.2403029
vn 0.9238796 0.0000000 0.3826834
vn 0.9706980 0.0000000 0.2403029
vn 0.9238796 0.0000000 0.3826834
vn 0.9807852 0.0000000 0.1950905
vn 1.0000000 0.0000000 0.0000000
vn 1.0000000 0.0000000 0.0000000
vn 0.9807852 0.0000000 0.1950905
vn 1.0000000 0.0000000 0.0000000
vn 0.9989270 0.0000000 0.0463117
vn 0.9807852 0.0000000 0.1950905
vn 0.9989270 0.0000000 0.0463117
vn 0.9807852 0.0000000 0.1950905
vn 0.0000000 0.0000000 1.0000000
vn 0.1950912 0.0000000 0.9807851
vn 0.1950912 0.0000000 0.9807851
vn 0.0000000 0.0000000 1.0000000
vn 0.1950912 0.0000000 0.9807851
vn 0.0000000 0.0000000 1.0000000
vn 0.1950912 0.0000000 0.9807851
vn 0.3826835 0.0000000 0.9238795
vn 0.3826835 0.0000000 0.9238795
vn 0.1950912 0.0000000 0.9807851
vn 0.3826835 0.0000000 0.9238795
vn 0.1950912 0.0000000 0.9807851
vn 0.3826835 0.0000000 0.9238795
vn 0.5555683 0.0000000 0.8314709
vn 0.5555683 0.0000000 0.8314709
vn 0.3826835 0.0000000 0.9238795
vn 0.5555683 0.0000000 0.8314709
vn 0.3826835 0.0000000 0.9238795
vn 0.5555683 0.0000000 0.8314709
vn 0.7071065 0.0000000 0.7071070
vn 0.7071065 0.0000000 0.7071070
vn 0.5555683 0.0000000 0.8314709
vn 0.7071065 0.0000000 0.7071070
vn 0.5555683 0.0000000 0.8314709
vn 0.7071065 0.0000000 0.7071070
vn 0.8314703 0.0000000 0.5555693
vn 0.8314703 0.0000000 0.5555693
vn 0.7071065 0.0000000 0.7071070
vn 0.8314703 0.0000000 0.5555693
vn 0.7071065 0.0000000 0.7071070
vn 0.8314703 0.0000000 0.5555693
vn 0.9238800 0.0000000 0.3826822
vn 0.9238800 0.0000000 0.3826822
vn 0.8314703 0.0000000 0.5555693
vn 0.9238800 0.0000000 0.3826822
vn 0.8314703 0.0000000 0.5555693
vn 0.9238800 0.0000000 0.3826822
vn 0.9807855 0.0000000 0.1950892
vn 0.9807855 0.0000000 0.1950892
vn 0.9238800 0.0000000 0.3826822
vn 0.9807855 0.0000000 0.1950892
vn 0.9238800 0.0000000 0.3826822
vn 0.9807855 0.0000000 0.1950892
vn 1.0000000 0.0000000 0.0000000
vn 1.0000000 0.0000000 0.0000000
vn 0.9807855 0.0000000 0.1950892
vn 1.0000000 0.0000000 0.0000000
vn 0.9807855 0.0000000 0.1950892
vn -0.0000005 1.0000000 0.0000000
vn -0.0000005 1.0000000 0.0000000
vn -0.0000005 1.0000000 0.0000000
vn -0.0000005 1.0000000 0.0000000
vn -0.0000005 1.0000000 0.0000000
vn -0.0000005 1.0000000 0.0000000
vn -0.0000005 1.0000000 0.0000000
vn -0.0000005 1.0000000 0.0000000
vn 0.0000000 1.0000000 0.0000000
vn -0.0000005 1.0000000 0.0000000
vn 0.0000000 1.0000000 0.0000000
vn 0.0000000 1.0000000 0.0000000
vn 0.0000000 1.0000000 0.0000000
vn 0.0000000 1.0000000 0.0000000
vn 0.0000000 1.0000000 0.0000000
vn 0.0000000 1.0000000 0.0000000
vn 0.0000000 1.0000000 0.0000000
vn 0.0000000 1.0000000 0.0000000
vn 0.0000000 1.0000000 0.0000000
vn 0.0000000 1.0000000 0.0000000
vn 0.0000000 1.0000000 0.0000000
vn 0.0000000 1.0000000 0.0000000
vn 0.0000000 1.0000000 0.0000000
vn 0.0000000 1.0000000 0.0000000
vn 0.0000000 1.0000000 0.0000000
vn 0.0000000 1.0000000 0.0000000
vn 0.0000000 1.0000000 0.0000000
vn 0.0000000 1.0000000 0.0000000
vn 0.0000000 1.0000000 0.0000000
vn 0.0000000 1.0000000 0.0000000
vn 0.0000000 1.0000000 0.0000000
vn 0.0000000 1.0000000 0.0000000
vn 0.0000000 1.0000000 0.0000000
vn 0.0000000 1.0000000 0.0000000
vn 0.0000000 1.0000000 0.0000000
vn 0.0000000 1.0000000 0.0000000
vn 0.0000000 1.0000000 0.0000000
vn 0.0000000 1.0000000 0.0000000
vn 0.0000000 1.0000000 0.0000000
vn 0.0000000 1.0000000 0.0000000
vn 0.0000000 1.0000000 0.0000000
vn 0.0000000 1.0000000 0.0000000
vn 0.0000000 1.0000000 0.0000000
vn 0.0000000 1.0000000 0.0000000
vn 0.0000000 1.0000000 0.0000000
vn 0.0000000 1.0000000 0.0000000
vn 0.0000000 1.0000000 0.0000000
vn 0.0000000 1.0000000 0.0000000
vn 0.0000000 0.0000000 -1.0000000
vn 0.0000000 0.0000000 -1.0000000
vn -0.1950908 0.0000000 -0.9807852
vn 0.0000000 0.0000000 -1.0000000
vn -0.1950908 0.0000000 -0.9807852
vn -0.1950908 0.0000000 -0.9807852
vn -0.1950908 0.0000000 -0.9807852
vn -0.1950908 0.0000000 -0.9807852
vn -0.3826825 0.0000000 -0.9238799
vn -0.1950908 0.0000000 -0.9807852
vn -0.3826825 0.0000000 -0.9238799
vn -0.3826825 0.0000000 -0.9238799
vn -0.3826825 0.0000000 -0.9238799
vn -0.3826825 0.0000000 -0.9238799
vn -0.5555676 0.0000000 -0.8314714
vn -0.3826825 0.0000000 -0.9238799
vn -0.5555676 0.0000000 -0.8314714
vn -0.5555676 0.0000000 -0.8314714
vn -0.5555676 0.0000000 -0.8314714
vn -0.5555676 0.0000000 -0.8314714
vn -0.7071049 0.0000000 -0.7071087
vn -0.5555676 0.0000000 -0.8314714
vn -0.7071049 0.0000000 -0.7071087
vn -0.7071049 0.0000000 -0.7071087
vn -0.7071049 0.0000000 -0.7071087
vn -0.7071049 0.0000000 -0.7071087
vn -0.8314692 0.0000000 -0.5555708
vn -0.7071049 0.0000000 -0.7071087
vn -0.8314692 0.0000000 -0.5555708
vn -0.8314692 0.0000000 -0.5555708
vn -0.8314692 0.0000000 -0.5555708
vn -0.8314692 0.0000000 -0.5555708
vn -0.9238797 0.0000000 -0.3826830
vn -0.8314692 0.0000000 -0.5555708
vn -0.9238797 0.0000000 -0.3826830
vn -0.9238797 0.0000000 -0.3826830
vn -0.9238797 0.0000000 -0.3826830
vn -0.9238797 0.0000000 -0.3826830
vn -0.9807853 0.0000000 -0.1950900
vn -0.9238797 0.0000000 -0.3826830
vn -0.9807853 0.0000000 -0.1950900
vn -0.9807853 0.0000000 -0.1950900
vn -0.9807853 0.0000000 -0.1950900
vn -0.9807853 0.0000000 -0.1950900
vn -1.0000000 0.0000000 0.0000000
vn -0.9807853 0.0000000 -0.1950900
vn -1.0000000 0.0000000 0.0000000
vn -1.0000000 0.0000000 0.0000000
vn -0.0000005 -1.0000000 0.0000000
vn -0.0000005 -1.0000000 0.0000000
vn -0.0000005 -1.0000000 0.0000000
vn -0.0000005 -1.0000000 0.0000000
vn -0.0000005 -1.0000000 0.0000000
vn -0.0000005 -1.0000000 0.0000000
vn -0.0000005 -1.0000000 0.0000000
vn 0.0000000 -1.0000000 0.0000000
vn 0.0000000 -1.0000000 0.0000000
vn -0.0000005 -1.0000000 0.0000000
vn 0.0000000 -1.0000000 0.0000000
vn -0.0000005 -1.0000000 0.0000000
vn 0.0000000 -1.0000000 0.0000000
vn 0.0000000 -1.0000000 0.0000000
vn 0.0000000 -1.0000000 0.0000000
vn 0.0000000 -1.0000000 0.0000000
vn 0.0000000 -1.0000000 0.0000000
vn 0.0000000 -1.0000000 0.0000000
vn 0.0000000 -1.0000000 0.0000000
vn -0.0000043 -1.0000000 0.0000000
vn -0.0000043 -1.0000000 0.0000000
vn 0.0000000 -1.0000000 0.0000000
vn -0.0000043 -1.0000000 0.0000000
vn 0.0000000 -1.0000000 0.0000000
vn -0.0000043 -1.0000000 0.0000000
vn -0.0000085 -1.0000000 0.0000000
vn -0.0000085 -1.0000000 0.0000000
vn -0.0000043 -1.0000000 0.0000000
vn -0.0000085 -1.0000000 0.0000000
vn -0.0000043 -1.0000000 0.0000000
vn -0.0000085 -1.0000000 0.0000000
vn -0.0000128 -1.0000000 0.0000000
vn -0.0000128 -1.0000000 0.0000000
vn -0.0000085 -1.0000000 0.0000000
vn -0.0000128 -1.0000000 0.0000000
vn -0.0000085 -1.0000000 0.0000000
vn -0.0000128 -1.0000000 0.0000000
vn -0.0000000 -1.0000000 0.0000000
vn -0.0000000 -1.0000000 0.0000000
vn -0.0000128 -1.0000000 0.0000000
vn -0.0000000 -1.0000000 0.0000000
vn -0.0000128 -1.0000000 0.0000000
vn -0.0000000 -1.0000000 0.0000000
vn 0.0000170 -1.0000000 0.0000000
vn 0.0000170 -1.0000000 0.0000000
vn -0.0000000 -1.0000000 0.0000000
vn 0.0000170 -1.0000000 0.0000000
vn -0.0000000 -1.0000000 0.0000000
vn 0.0000000 0.0000000 1.0000000
vn 0.1950912 0.0000000 0.9807851
vn 0.1950912 0.0000000 0.9807851
vn 0.0000000 0.0000000 1.0000000
vn 0.1950912 0.0000000 0.9807851
vn 0.0000000 0.0000000 1.0000000
vn 0.1950912 0.0000000 0.9807851
vn 0.3826835 0.0000000 0.9238795
vn 0.3826835 0.0000000 0.9238795
vn 0.1950912 0.0000000 0.9807851
vn 0.3826835 0.0000000 0.9238795
vn 0.1950912 0.0000000 0.9807851
vn 0.3826835 0.0000000 0.9238795
vn 0.5555683 0.0000000 0.8314709
vn 0.5555683 0.0000000 0.8314709
vn 0.3826835 0.0000000 0.9238795
vn 0.5555683 0.0000000 0.8314709
vn 0.3826835 0.0000000 0.9238795
vn 0.5555683 0.0000000 0.8314709
vn 0.7071065 0.0000000 0.7071070
vn 0.7071065 0.0000000 0.7071070
vn 0.5555683 0.0000000 0.8314709
vn 0.7071065 0.0000000 0.7071070
vn 0.5555683 0.0000000 0.8314709
vn 0.7071065 0.0000000 0.7071070
vn 0.8314695 0.0000000 0.5555705
vn 0.8314695 0.0000000 0.5555705
vn 0.7071065 0.0000000 0.7071070
vn 0.8314695 0.0000000 0.5555705
vn 0.7071065 0.0000000 0.7071070
vn 0.8314695 0.0000000 0.5555705
vn 0.9238788 0.0000000 0.3826851
vn 0.9238788 0.0000000 0.3826851
vn 0.8314695 0.0000000 0.5555705
vn 0.9238788 0.0000000 0.3826851
vn 0.8314695 0.0000000 0.5555705
vn 0.9238788 0.0000000 0.3826851
vn 0.9807852 0.0000000 0.1950909
vn 0.9807852 0.0000000 0.1950909
vn 0.9238788 0.0000000 0.3826851
vn 0.9807852 0.0000000 0.1950909
vn 0.9238788 0.0000000 0.3826851
vn 0.9807852 0.0000000 0.1950909
vn 1.0000000 0.0000000 0.0000000
vn 1.0000000 0.0000000 0.0000000
vn 0.9807852 0.0000000 0.1950909
vn 1.0000000 0.0000000 0.0000000
vn 0.9807852 0.0000000 0.1950909
vn 0.0000011 1.0000000 0.0000000
vn 0.0000000 1.0000000 0.0000000
vn 0.0000000 1.0000000 0.0000000
vn 0.0000011 1.0000000 0.0000000
vn 0.0000000 1.0000000 0.0000000
vn 0.0000011 1.0000000 0.0000000
vn 0.0000000 1.0000000 0.0000000
vn 0.0000000 1.0000000 0.0000000
vn 0.0000000 1.0000000 0.0000000
vn 0.0000000 1.0000000 0.0000000
vn 0.0000000 1.0000000 0.0000000
vn 0.0000000 1.0000000 0.0000000
vn 0.0000000 1.0000000 0.0000000
vn 0.0000000 1.0000000 0.0000000
vn 0.0000000 1.0000000 0.0000000
vn 0.0000000 1.0000000 0.0000000
vn 0.0000000 1.0000000 0.0000000
vn 0.0000000 1.0000000 0.0000000
vn 0.0000000 1.0000000 0.0000000
vn 0.0000000 1.0000000 0.0000000
vn 0.0000000 1.0000000 0.0000000
vn 0.0000000 1.0000000 0.0000000
vn 0.0000000 1.0000000 0.0000000
vn 0.0000000 1.0000000 0.0000000
vn 0.0000000 1.0000000 0.0000000
vn 0.0000000 1.0000000 0.0000000
vn 0.0000000 1.0000000 0.0000000
vn 0.0000000 1.0000000 0.0000000
vn 0.0000000 1.0000000 0.0000000
vn 0.0000000 1.0000000 0.0000000
vn 0.0000000 1.0000000 0.0000000
vn 0.0000000 1.0000000 0.0000000
vn 0.0000000 1.0000000 0.0000000
vn 0.0000000 1.0000000 0.0000000
vn 0.0000000 1.0000000 0.0000000
vn 0.0000000 1.0000000 0.0000000
vn 0.0000000 1.0000000 0.0000000
vn 0.0000000 1.0000000 0.0000000
vn 0.0000000 1.0000000 0.0000000
vn 0.0000000 1.0000000 0.0000000
vn 0.0000000 1.0000000 0.0000000
vn 0.0000000 1.0000000 0.0000000
vn 0.0000000 1.0000000 0.0000000
vn 0.0000000 1.0000000 0.0000000
vn 0.0000000 1.0000000 0.0000000
vn 0.0000000 1.0000000 0.0000000
vn 0.0000000 1.0000000 0.0000000
vn 0.0000000 1.0000000 0.0000000
vn 0.0000000 0.0000000 -1.0000000
vn 0.0000000 0.0000000 -1.0000000
vn -0.1950908 0.0000000 -0.9807852
vn 0.0000000 0.0000000 -1.0000000
vn -0.1950908 0.0000000 -0.9807852
vn -0.1950908 0.0000000 -0.9807852
vn -0.1950908 0.0000000 -0.9807852
vn -0.1950908 0.0000000 -0.9807852
vn -0.3826851 0.0000000 -0.9238789
vn -0.1950908 0.0000000 -0.9807852
vn -0.3826851 0.0000000 -0.9238789
vn -0.3826851 0.0000000 -0.9238789
vn -0.3826851 0.0000000 -0.9238789
vn -0.3826851 0.0000000 -0.9238789
vn -0.5555699 0.0000000 -0.8314698
vn -0.3826851 0.0000000 -0.9238789
vn -0.5555699 0.0000000 -0.8314698
vn -0.5555699 0.0000000 -0.8314698
vn -0.5555699 0.0000000 -0.8314698
vn -0.5555699 0.0000000 -0.8314698
vn -0.7071049 0.0000000 -0.7071087
vn -0.5555699 0.0000000 -0.8314698
vn -0.7071049 0.0000000 -0.7071087
vn -0.7071049 0.0000000 -0.7071087
vn -0.7071049 0.0000000 -0.7071087
vn -0.7071049 0.0000000 -0.7071087
vn -0.8314692 0.0000000 -0.5555708
vn -0.7071049 0.0000000 -0.7071087
vn -0.8314692 0.0000000 -0.5555708
vn -0.8314692 0.0000000 -0.5555708
vn -0.8314692 0.0000000 -0.5555708
vn -0.8314692 0.0000000 -0.5555708
vn -0.9238797 0.0000000 -0.3826830
vn -0.8314692 0.0000000 -0.5555708
vn -0.9238797 0.0000000 -0.3826830
vn -0.9238797 0.0000000 -0.3826830
vn -0.9238797 0.0000000 -0.3826830
vn -0.9238797 0.0000000 -0.3826830
vn -0.9807852 0.0000000 -0.1950906
vn -0.9238797 0.0000000 -0.3826830
vn -0.9807852 0.0000000 -0.1950906
vn -0.9807852 0.0000000 -0.1950906
vn -0.9807852 0.0000000 -0.1950906
vn -0.9807852 0.0000000 -0.1950906
vn -1.0000000 0.0000000 0.0000000
vn -0.9807852 0.0000000 -0.1950906
vn -1.0000000 0.0000000 0.0000000
vn -1.0000000 0.0000000 0.0000000
vn -0.0000005 -1.0000000 0.0000000
vn -0.0000005 -1.0000000 0.0000000
vn 0.0000000 -1.0000000 0.0000000
vn -0.0000005 -1.0000000 0.0000000
vn 0.0000000 -1.0000000 0.0000000
vn 0.0000000 -1.0000000 0.0000000
vn 0.0000000 -1.0000000 0.0000000
vn 0.0000000 -1.0000000 0.0000000
vn 0.0000000 -1.0000000 0.0000000
vn 0.0000000 -1.0000000 0.0000000
vn 0.0000000 -1.0000000 0.0000000
vn 0.0000000 -1.0000000 0.0000000
vn 0.0000000 -1.0000000 0.0000000
vn -0.0000043 -1.0000000 0.0000000
vn -0.0000043 -1.0000000 0.0000000
vn 0.0000000 -1.0000000 0.0000000
vn -0.0000043 -1.0000000 0.0000000
vn 0.0000000 -1.0000000 0.0000000
vn -0.0000043 -1.0000000 0.0000000
vn -0.0000043 -1.0000000 0.0000000
vn -0.0000043 -1.0000000 0.0000000
vn -0.0000043 -1.0000000 0.0000000
vn -0.0000043 -1.0000000 0.0000000
vn -0.0000043 -1.0000000 0.0000000
vn -0.0000043 -1.0000000 0.0000000
vn 0.0000000 -1.0000000 0.0000000
vn 0.0000000 -1.0000000 0.0000000
vn -0.0000043 -1.0000000 0.0000000
vn 0.0000000 -1.0000000 0.0000000
vn -0.0000043 -1.0000000 0.0000000
vn 0.0000000 -1.0000000 0.0000000
vn 0.0000000 -1.0000000 0.0000000
vn 0.0000000 -1.0000000 0.0000000
vn 0.0000000 -1.0000000 0.0000000
vn 0.0000000 -1.0000000 0.0000000
vn 0.0000000 -1.0000000 0.0000000
vn 0.0000000 -1.0000000 0.0000000
vn -0.0000085 -1.0000000 0.0000000
vn -0.0000085 -1.0000000 0.0000000
vn 0.0000000 -1.0000000 0.0000000
vn -0.0000085 -1.0000000 0.0000000
vn 0.0000000 -1.0000000 0.0000000
vn -0.0000085 -1.0000000 0.0000000
vn -0.0000170 -1.0000000 0.0000000
vn -0.0000170 -1.0000000 0.0000000
vn -0.0000085 -1.0000000 0.0000000
vn -0.0000170 -1.0000000 0.0000000
vn -0.0000085 -1.0000000 0.0000000
vn 0.0000000 0.0000000 1.0000000
vn 0.1950902 0.0000000 0.9807853
vn 0.1950902 0.0000000 0.9807853
vn 0.0000000 0.0000000 1.0000000
vn 0.1950902 0.0000000 0.9807853
vn 0.0000000 0.0000000 1.0000000
vn 0.1950902 0.0000000 0.9807853
vn 0.3826829 0.0000000 0.9238798
vn 0.3826829 0.0000000 0.9238798
vn 0.1950902 0.0000000 0.9807853
vn 0.3826829 0.0000000 0.9238798
vn 0.1950902 0.0000000 0.9807853
vn 0.3826829 0.0000000 0.9238798
vn 0.5555711 0.0000000 0.8314691
vn 0.5555711 0.0000000 0.8314691
vn 0.3826829 0.0000000 0.9238798
vn 0.5555711 0.0000000 0.8314691
vn 0.3826829 0.0000000 0.9238798
vn 0.5555711 0.0000000 0.8314691
vn 0.7071078 0.0000000 0.7071058
vn 0.7071078 0.0000000 0.7071058
vn 0.5555711 0.0000000 0.8314691
vn 0.7071078 0.0000000 0.7071058
vn 0.5555711 0.0000000 0.8314691
vn 0.7071078 0.0000000 0.7071058
vn 0.8314698 0.0000000 0.5555700
vn 0.8314698 0.0000000 0.5555700
vn 0.7071078 0.0000000 0.7071058
vn 0.8314698 0.0000000 0.5555700
vn 0.7071078 0.0000000 0.7071058
vn 0.8314698 0.0000000 0.5555700
vn 0.9238796 0.0000000 0.3826833
vn 0.9238796 0.0000000 0.3826833
vn 0.8314698 0.0000000 0.5555700
vn 0.9238796 0.0000000 0.3826833
vn 0.8314698 0.0000000 0.5555700
vn 0.9238796 0.0000000 0.3826833
vn 0.9807852 0.0000000 0.1950907
vn 0.9807852 0.0000000 0.1950907
vn 0.9238796 0.0000000 0.3826833
vn 0.9807852 0.0000000 0.1950907
vn 0.9238796 0.0000000 0.3826833
vn 0.9807852 0.0000000 0.1950907
vn 1.0000000 0.0000000 0.0000000
vn 1.0000000 0.0000000 0.0000000
vn 0.9807852 0.0000000 0.1950907
vn 1.0000000 0.0000000 0.0000000
vn 0.9807852 0.0000000 0.1950907
vn 0.0000000 1.0000000 0.0000000
vn 0.0000019 1.0000000 0.0000000
vn 0.0000019 1.0000000 0.0000000
vn 0.0000000 1.0000000 0.0000000
vn 0.0000019 1.0000000 0.0000000
vn 0.0000000 1.0000000 0.0000000
vn 0.0000019 1.0000000 0.0000000
vn 0.0000019 1.0000000 0.0000000
vn 0.0000051 1.0000000 0.0000000
vn 0.0000019 1.0000000 0.0000000
vn 0.0000051 1.0000000 0.0000000
vn 0.0000051 1.0000000 0.0000000
vn 0.0000051 1.0000000 0.0000000
vn 0.0000051 1.0000000 0.0000000
vn 0.0000025 1.0000000 0.0000000
vn 0.0000051 1.0000000 0.0000000
vn 0.0000025 1.0000000 0.0000000
vn 0.0000025 1.0000000 0.0000000
vn 0.0000025 1.0000000 0.0000000
vn 0.0000025 1.0000000 0.0000000
vn -0.0000051 1.0000000 0.0000000
vn 0.0000025 1.0000000 0.0000000
vn -0.0000051 1.0000000 0.0000000
vn -0.0000051 1.0000000 0.0000000
vn -0.0000051 1.0000000 0.0000000
vn -0.0000051 1.0000000 0.0000000
vn 0.0000000 1.0000000 0.0000000
vn -0.0000051 1.0000000 0.0000000
vn 0.0000000 1.0000000 0.0000000
vn 0.0000000 1.0000000 0.0000000
vn 0.0000000 1.0000000 0.0000000
vn 0.0000000 1.0000000 0.0000000
vn 0.0000000 1.0000000 0.0000000
vn 0.0000000 1.0000000 0.0000000
vn 0.0000000 1.0000000 0.0000000
vn -0.0000000 1.0000000 0.0000000
vn -0.0000000 1.0000000 0.0000000
vn 0.0000000 1.0000000 0.0000000
vn -0.0000000 1.0000000 0.0000000
vn -0.0000000 1.0000000 0.0000000
vn -0.0000000 1.0000000 0.0000000
vn -0.0000000 1.0000000 0.0000000
vn -0.0000000 1.0000000 0.0000000
vn -0.0000000 1.0000000 0.0000000
vn 0.0000102 1.0000000 0.0000000
vn -0.0000000 1.0000000 0.0000000
vn 0.0000102 1.0000000 0.0000000
vn 0.0000102 1.0000000 0.0000000
vn 0.0000000 0.0000000 -1.0000000
vn 0.0000000 0.0000000 -1.0000000
vn -0.1950905 0.0000000 -0.9807852
vn 0.0000000 0.0000000 -1.0000000
vn -0.1950905 0.0000000 -0.9807852
vn -0.1950905 0.0000000 -0.9807852
vn -0.1950905 0.0000000 -0.9807852
vn -0.1950905 0.0000000 -0.9807852
vn -0.3826849 0.0000000 -0.9238789
vn -0.1950905 0.0000000 -0.9807852
vn -0.3826849 0.0000000 -0.9238789
vn -0.3826849 0.0000000 -0.9238789
vn -0.3826849 0.0000000 -0.9238789
vn -0.3826849 0.0000000 -0.9238789
vn -0.5555712 0.0000000 -0.8314689
vn -0.3826849 0.0000000 -0.9238789
vn -0.5555712 0.0000000 -0.8314689
vn -0.5555712 0.0000000 -0.8314689
vn -0.5555712 0.0000000 -0.8314689
vn -0.5555712 0.0000000 -0.8314689
vn -0.7071057 0.0000000 -0.7071078
vn -0.5555712 0.0000000 -0.8314689
vn -0.7071057 0.0000000 -0.7071078
vn -0.7071057 0.0000000 -0.7071078
vn -0.7071057 0.0000000 -0.7071078
vn -0.7071057 0.0000000 -0.7071078
vn -0.8314692 0.0000000 -0.5555709
vn -0.7071057 0.0000000 -0.7071078
vn -0.8314692 0.0000000 -0.5555709
vn -0.8314692 0.0000000 -0.5555709
vn -0.8314692 0.0000000 -0.5555709
vn -0.8314692 0.0000000 -0.5555709
vn -0.9238798 0.0000000 -0.3826827
vn -0.8314692 0.0000000 -0.5555709
vn -0.9238798 0.0000000 -0.3826827
vn -0.9238798 0.0000000 -0.3826827
vn -0.9238798 0.0000000 -0.3826827
vn -0.9238798 0.0000000 -0.3826827
vn -0.9807854 0.0000000 -0.1950897
vn -0.9238798 0.0000000 -0.3826827
vn -0.9807854 0.0000000 -0.1950897
vn -0.9807854 0.0000000 -0.1950897
vn -0.9807854 0.0000000 -0.1950897
vn -0.9807854 0.0000000 -0.1950897
vn -1.0000000 0.0000000 0.0000000
vn -0.9807854 0.0000000 -0.1950897
vn -1.0000000 0.0000000 0.0000000
vn -1.0000000 0.0000000 0.0000000
vn 0.0000000 -1.0000000 0.0000000
vn 0.0000000 -1.0000000 0.0000000
vn -0.0000006 -1.0000000 0.0000000
vn 0.0000000 -1.0000000 0.0000000
vn -0.0000006 -1.0000000 0.0000000
vn -0.0000006 -1.0000000 0.0000000
vn -0.0000006 -1.0000000 0.0000000
vn 0.0000025 -1.0000000 0.0000000
vn 0.0000025 -1.0000000 0.0000000
vn -0.0000006 -1.0000000 0.0000000
vn 0.0000025 -1.0000000 0.0000000
vn -0.0000006 -1.0000000 0.0000000
vn 0.0000025 -1.0000000 0.0000000
vn 0.0000025 -1.0000000 0.0000000
vn 0.0000025 -1.0000000 0.0000000
vn 0.0000025 -1.0000000 0.0000000
vn 0.0000025 -1.0000000 0.0000000
vn 0.0000025 -1.0000000 0.0000000
vn 0.0000025 -1.0000000 0.0000000
vn 0.0000000 -1.0000000 0.0000000
vn 0.0000000 -1.0000000 0.0000000
vn 0.0000025 -1.0000000 0.0000000
vn 0.0000000 -1.0000000 0.0000000
vn 0.0000025 -1.0000000 0.0000000
vn 0.0000000 -1.0000000 0.0000000
vn 0.0000000 -1.0000000 0.0000000
vn 0.0000000 -1.0000000 0.0000000
vn 0.0000000 -1.0000000 0.0000000
vn 0.0000000 -1.0000000 0.0000000
vn 0.0000000 -1.0000000 0.0000000
vn 0.0000000 -1.0000000 0.0000000
vn 0.0000000 -1.0000000 0.0000000
vn 0.0000000 -1.0000000 0.0000000
vn 0.0000000 -1.0000000 0.0000000
vn 0.0000000 -1.0000000 0.0000000
vn 0.0000000 -1.0000000 0.0000000
vn 0.0000000 -1.0000000 0.0000000
vn 0.0000000 -1.0000000 0.0000000
vn 0.0000000 -1.0000000 0.0000000
vn 0.0000000 -1.0000000 0.0000000
vn 0.0000000 -1.0000000 0.0000000
vn 0.0000000 -1.0000000 0.0000000
vn 0.0000000 -1.0000000 0.0000000
vn 0.0000000 -1.0000000 0.0000000
vn 0.0000000 -1.0000000 0.0000000
vn 0.0000000 -1.0000000 0.0000000
vn 0.0000000 -1.0000000 0.0000000
vn 0.0000000 -1.0000000 0.0000000
vn -0.3291454 0.0000000 -0.9442793
vn -0.3291454 0.0000000 -0.9442793
vn -0.3291454 0.0000000 -0.9442793
vn -0.3291454 0.0000000 -0.9442793
vn -0.3291454 0.0000000 -0.9442793
vn -0.3291454 0.0000000 -0.9442793
vn -0.3291454 0.0000000 -0.9442793
vn -0.3291454 0.0000000 -0.9442793
vn -0.3291454 0.0000000 -0.9442793
vn -0.3291454 0.0000000 -0.9442793
vn -0.3291454 0.0000000 -0.9442793
vn -0.3291454 0.0000000 -0.9442793
vn -0.9442794 0.0000000 0.3291450
vn -0.9442794 0.0000000 0.3291450
vn -0.9442794 0.0000000 0.3291450
vn -0.9442794 0.0000000 0.3291450
vn -0.9442794 0.0000000 0.3291450
vn -0.9442794 0.0000000 0.3291450
vn -0.9442794 0.0000000 0.3291450
vn -0.9442794 0.0000000 0.3291450
vn -0.9442794 0.0000000 0.3291450
vn -0.9442794 0.0000000 0.3291450
vn -0.9442794 0.0000000 0.3291450
vn -0.9442794 0.0000000 0.3291450
vn 0.3291454 0.0000000 0.9442793
vn 0.3291454 0.0000000 0.9442793
vn 0.3291454 0.0000000 0.9442793
vn 0.3291454 0.0000000 0.9442793
vn 0.3291454 0.0000000 0.9442793
vn 0.3291454 0.0000000 0.9442793
vn 0.3291454 0.0000000 0.9442793
vn 0.3291454 0.0000000 0.9442793
vn 0.3291454 0.0000000 0.9442793
vn 0.3291454 0.0000000 0.9442793
vn 0.3291454 0.0000000 0.9442793
vn 0.3291454 0.0000000 0.9442793
vn 0.9442794 0.0000000 -0.3291450
vn 0.9442794 0.0000000 -0.3291450
vn 0.9442794 0.0000000 -0.3291450
vn 0.9442794 0.0000000 -0.3291450
vn 0.9442794 0.0000000 -0.3291450
vn 0.9442794 0.0000000 -0.3291450
vn 0.9442794 0.0000000 -0.3291450
vn 0.9442794 0.0000000 -0.3291450
vn 0.9442794 0.0000000 -0.3291450
vn 0.9442794 0.0000000 -0.3291450
vn 0.9442794 0.0000000 -0.3291450
vn 0.9442794 0.0000000 -0.3291450
vn -0.9004471 0.0000000 -0.4349655
vn -0.9004471 0.0000000 -0.4349655
vn -0.9004471 0.0000000 -0.4349655
vn -0.9004471 0.0000000 -0.4349655
vn -0.9004471 0.0000000 -0.4349655
vn -0.9004471 0.0000000 -0.4349655
vn -0.9004471 0.0000000 -0.4349655
vn -0.9004471 0.0000000 -0.4349655
vn -0.9004471 0.0000000 -0.4349655
vn -0.9004471 0.0000000 -0.4349655
vn -0.9004471 0.0000000 -0.4349655
vn -0.9004471 0.0000000 -0.4349655
vn 0.4349655 0.0000000 -0.9004471
vn 0.4349655 0.0000000 -0.9004471
vn 0.4349655 0.0000000 -0.9004471
vn 0.4349655 0.0000000 -0.9004471
vn 0.4349655 0.0000000 -0.9004471
vn 0.4349655 0.0000000 -0.9004471
vn 0.4349655 0.0000000 -0.9004471
vn 0.4349655 0.0000000 -0.9004471
vn 0.4349655 0.0000000 -0.9004471
vn 0.4349655 0.0000000 -0.9004471
vn 0.4349655 0.0000000 -0.9004471
vn 0.4349655 0.0000000 -0.9004471
vn -0.4349655 0.0000000 0.9004471
vn -0.4349655 0.0000000 0.9004471
vn -0.4349655 0.0000000 0.9004471
vn -0.4349655 0.0000000 0.9004471
vn -0.4349655 0.0000000 0.9004471
vn -0.4349655 0.0000000 0.9004471
vn -0.4349655 0.0000000 0.9004471
vn -0.4349655 0.0000000 0.9004471
vn -0.4349655 0.0000000 0.9004471
vn -0.4349655 0.0000000 0.9004471
vn -0.4349655 0.0000000 0.9004471
vn -0.4349655 0.0000000 0.9004471
vn 0.9004471 0.0000000 0.4349655
vn 0.9004471 0.0000000 0.4349655
vn 0.9004471 0.0000000 0.4349655
vn 0.9004471 0.0000000 0.4349655
vn 0.9004471 0.0000000 0.4349655
vn 0.9004471 0.0000000 0.4349655
vn 0.9004471 0.0000000 0.4349655
vn 0.9004471 0.0000000 0.4349655
vn 0.9004471 0.0000000 0.4349655
vn 0.9004471 0.0000000 0.4349655
vn 0.9004471 0.0000000 0.4349655
vn 0.9004471 0.0000000 0.4349655
f 1/1/1 2/2/2 3/3/3
f 4/4/4 5/5/5 6/6/6
f 7/7/7 8/8/8 9/9/9
f 10/10/10 11/11/11 12/12/12
f 13/13/13 14/14/14 15/15/15
f 16/16/16 17/17/17 18/18/18
f 19/19/19 20/20/20 21/21/21
f 22/22/22 23/23/23 24/24/24
f 25/25/25 26/26/26 27/27/27
f 28/28/28 29/29/29 30/30/30
f 31/31/31 32/32/32 33/33/33
f 34/34/34 35/35/35 36/36/36
f 37/37/37 38/38/38 39/39/39
f 40/40/40 41/41/41 42/42/42
f 43/43/43 44/44/44 45/45/45
f 46/46/46 47/47/47 48/48/48
f 49/49/49 50/50/50 51/51/51
f 52/52/52 53/53/53 54/54/54
f 55/55/55 56/56/56 57/57/57
f 58/58/58 59/59/59 60/60/60
f 61/61/61 62/62/62 63/63/63
f 64/64/64 65/65/65 66/66/66
f 67/67/67 68/68/68 69/69/69
f 70/70/70 71/71/71 72/72/72
f 73/73/73 74/74/74 75/75/75
f 76/76/76 77/77/77 78/78/78
f 79/79/79 80/80/80 81/81/81
f 82/82/82 83/83/83 84/84/84
f 85/85/85 86/86/86 87/87/87
f 88/88/88 89/89/89 90/90/90
f 91/91/91 92/92/92 93/93/93
f 94/94/94 95/95/95 96/96/96
f 97/97/97 98/98/98 99/99/99
f 100/100/100 101/101/101 102/102/102
f 103/103/103 104/104/104 105/105/105
f 106/106/106 107/107/107 108/108/108
f 109/109/109 110/110/110 111/111/111
f 112/112/112 113/113/113 114/114/114
f 115/115/115 116/116/116 117/117/117
f 118/118/118 119/119/119 120/120/120
f 121/121/121 122/122/122 123/123/123
f 124/124/124 125/125/125 126/126/126
f 127/127/127 128/128/128 129/129/129
f 130/130/130 131/131/131 132/132/132
f 133/133/133 134/134/134 135/135/135
f 136/136/136 137/137/137 138/138/138
f 139/139/139 140/140/140 141/141/141
f 142/142/142 143/143/143 144/144/144
f 145/145/145 146/146/146 147/147/147
f 148/148/148 149/149/149 150/150/150
f 151/151/151 152/152/152 153/153/153
f 154/154/154 155/155/155 156/156/156
f 157/157/157 158/158/158 159/159/159
f 160/160/160 161/161/161 162/162/162
f 163/163/163 164/164/164 165/165/165
f 166/166/166 167/167/167 168/168/168
f 169/169/169 170/170/170 171/171/171
f 172/172/172 173/173/173 174/174/174
f 175/175/175 176/176/176 177/177/177
f 178/178/178 179/179/179 180/180/180
f 181/181/181 182/182/182 183/183/183
f 184/184/184 185/185/185 186/186/186
f 187/187/187 188/188/188 189/189/189
f 190/190/190 191/191/191 192/192/192
f 193/193/193 194/194/194 195/195/195
f 196/196/196 197/197/197 198/198/198
f 199/199/199 200/200/200 201/201/201
f 202/202/202 203/203/203 204/204/204
f 205/205/205 206/206/206 207/207/207
f 208/208/208 209/209/209 210/210/210
f 211/211/211 212/212/212 213/213/213
f 214/214/214 215/215/215 216/216/216
f 217/217/217 218/218/218 219/219/219
f 220/220/220 221/221/221 222/222/222
f 223/223/223 224/224/224 225/225/225
f 226/226/226 227/227/227 228/228/228
f 229/229/229 230/230/230 231/231/231
f 232/232/232 233/233/233 234/234/234
f 235/235/235 236/236/236 237/237/237
f 238/238/238 239/239/239 240/240/240
f 241/241/241 242/242/242 243/243/243
f 244/244/244 245/245/245 246/246/246
f 247/247/247 248/248/248 249/249/249
f 250/250/250 251/251/251 252/252/252
f 253/253/253 254/254/254 255/255/255
f 256/256/256 257/257/257 258/258/258
f 259/259/259 260/260/260 261/261/261
f 262/262/262 263/263/263 264/264/264
f 265/265/265 266/266/266 267/267/267
f 268/268/268 269/269/269 270/270/270
f 271/271/271 272/272/272 273/273/273
f 274/274/274 275/275/275 276/276/276
f 277/277/277 278/278/278 279/279/279
f 280/280/280 281/281/281 282/282/282
f 283/283/283 284/284/284 285/285/285
f 286/286/286 287/287/287 288/288/288
f 289/289/289 290/290/290 291/291/291
f 292/292/292 293/293/293 294/294/294
f 295/295/295 296/296/296 297/297/297
f 298/298/298 299/299/299 300/300/300
f 301/301/301 302/302/302 303/303/303
f 304/304/304 305/305/305 306/306/306
f 307/307/307 308/308/308 309/309/309
f 310/310/310 311/311/311 312/312/312
f 313/313/313 314/314/314 315/315/315
f 316/316/316 317/317/317 318/318/318
f 319/319/319 320/320/320 321/321/321
f 322/322/322 323/323/323 324/324/324
f 325/325/325 326/326/326 327/327/327
f 328/328/328 329/329/329 330/330/330
f 331/331/331 332/332/332 333/333/333
f 334/334/334 335/335/335 336/336/336
f 337/337/337 338/338/338 339/339/339
f 340/340/340 341/341/341 342/342/342
f 343/343/343 344/344/344 345/345/345
f 346/346/346 347/347/347 348/348/348
f 349/349/349 350/350/350 351/351/351
f 352/352/352 353/353/353 354/354/354
f 355/355/355 356/356/356 357/357/357
f 358/358/358 359/359/359 360/360/360
f 361/361/361 362/362/362 363/363/363
f 364/364/364 365/365/365 366/366/366
f 367/367/367 368/368/368 369/369/369
f 370/370/370 371/371/371 372/372/372
f 373/373/373 374/374/374 375/375/375
f 376/376/376 377/377/377 378/378/378
f 379/379/379 380/380/380 381/381/381
f 382/382/382 383/383/383 384/384/384
f 385/385/385 386/386/386 387/387/387
f 388/388/388 389/389/389 390/390/390
f 391/391/391 392/392/392 393/393/393
f 394/394/394 395/395/395 396/396/396
f 397/397/397 398/398/398 399/399/399
f 400/400/400 401/401/401 402/402/402
f 403/403/403 404/404/404 405/405/405
f 406/406/406 407/407/407 408/408/408
f 409/409/409 410/410/410 411/411/411
f 412/412/412 413/413/413 414/414/414
f 415/415/415 416/416/416 417/417/417
f 418/418/418 419/419/419 420/420/420
f 421/421/421 422/422/422 423/423/423
f 424/424/424 425/425/425 426/426/426
f 427/427/427 428/428/428 429/429/429
f 430/430/430 431/431/431 432/432/432
f 433/433/433 434/434/434 435/435/435
f 436/436/436 437/437/437 438/438/438
f 439/439/439 440/440/440 441/441/441
f 442/442/442 443/443/443 444/444/444
f 445/445/445 446/446/446 447/447/447
f 448/448/448 449/449/449 450/450/450
f 451/451/451 452/452/452 453/453/453
f 454/454/454 455/455/455 456/456/456
f 457/457/457 458/458/458 459/459/459
f 460/460/460 461/461/461 462/462/462
f 463/463/463 464/464/464 465/465/465
f 466/466/466 467/467/467 468/468/468
f 469/469/469 470/470/470 471/471/471
f 472/472/472 473/473/473 474/474/474
f 475/475/475 476/476/476 477/477/477
f 478/478/478 479/479/479 480/480/480
f 481/481/481 482/482/482 483/483/483
f 484/484/484 485/485/485 486/486/486
f 487/487/487 488/488/488 489/489/489
f 490/490/490 491/491/491 492/492/492
f 493/493/493 494/494/494 495/495/495
f 496/496/496 497/497/497 498/498/498
f 499/499/499 500/500/500 501/501/501
f 502/502/502 503/503/503 504/504/504
f 505/505/505 506/506/506 507/507/507
f 508/508/508 509/509/509 510/510/510
f 511/511/511 512/512/512 513/513/513
f 514/514/514 515/515/515 516/516/516
f 517/517/517 518/518/518 519/519/519
f 520/520/520 521/521/521 522/522/522
f 523/523/523 524/524/524 525/525/525
f 526/526/526 527/527/527 528/528/528
f 529/529/529 530/530/530 531/531/531
f 532/532/532 533/533/533 534/534/534
f 535/535/535 536/536/536 537/537/537
f 538/538/538 539/539/539 540/540/540
f 541/541/541 542/542/542 543/543/543
f 544/544/544 545/545/545 546/546/546
f 547/547/547 548/548/548 549/549/549
f 550/550/550 551/551/551 552/552/552
f 553/553/553 554/554/554 555/555/555
f 556/556/556 557/557/557 558/558/558
f 559/559/559 560/560/560 561/561/561
f 562/562/562 563/563/563 564/564/564
f 565/565/565 566/566/566 567/567/567
f 568/568/568 569/569/569 570/570/570
f 571/571/571 572/572/572 573/573/573
f 574/574/574 575/575/575 576/576/576
f 577/577/577 578/578/578 579/579/579
f 580/580/580 581/581/581 582/582/582
f 583/583/583 584/584/584 585/585/585
f 586/586/586 587/587/587 588/588/588
f 589/589/589 590/590/590 591/591/591
f 592/592/592 593/593/593 594/594/594
f 595/595/595 596/596/596 597/597/597
f 598/598/598 599/599/599 600/600/600
f 601/601/601 602/602/602 603/603/603
f 604/604/604 605/605/605 606/606/606
f 607/607/607 608/608/608 609/609/609
f 610/610/610 611/611/611 612/612/612
f 613/613/613 614/614/614 615/615/615
f 616/616/616 617/617/617 618/618/618
f 619/619/619 620/620/620 621/621/621
f 622/622/622 623/623/623 624/624/624
f 625/625/625 626/626/626 627/627/627
f 628/628/628 629/629/629 630/630/630
f 631/631/631 632/632/632 633/633/633
f 634/634/634 635/635/635 636/636/636
f 637/637/637 638/638/638 639/639/639
f 640/640/640 641/641/641 642/642/642
f 643/643/643 644/644/644 645/645/645
f 646/646/646 647/647/647 648/648/648
f 649/649/649 650/650/650 651/651/651
f 652/652/652 653/653/653 654/654/654
f 655/655/655 656/656/656 657/657/657
f 658/658/658 659/659/659 660/660/660
f 661/661/661 662/662/662 663/663/663
f 664/664/664 665/665/665 666/666/666
f 667/667/667 668/668/668 669/669/669
f 670/670/670 671/671/671 672/672/672
f 673/673/673 674/674/674 675/675/675
f 676/676/676 677/677/677 678/678/678
f 679/679/679 680/680/680 681/681/681
f 682/682/682 683/683/683 684/684/684
f 685/685/685 686/686/686 687/687/687
f 688/688/688 689/689/689 690/690/690
f 691/691/691 692/692/692 693/693/693
f 694/694/694 695/695/695 696/696/696
f 697/697/697 698/698/698 699/699/699
f 700/700/700 701/701/701 702/702/702
f 703/703/703 704/704/704 705/705/705
f 706/706/706 707/707/707 708/708/708
f 709/709/709 710/710/710 711/711/711
f 712/712/712 713/713/713 714/714/714
f 715/715/715 716/716/716 717/717/717
f 718/718/718 719/719/719 720/720/720
f 721/721/721 722/722/722 723/723/723
f 724/724/724 725/725/725 726/726/726
f 727/727/727 728/728/728 729/729/729
f 730/730/730 731/731/731 732/732/732
f 733/733/733 734/734/734 735/735/735
f 736/736/736 737/737/737 738/738/738
f 739/739/739 740/740/740 741/741/741
f 742/742/742 743/743/743 744/744/744
f 745/745/745 746/746/746 747/747/747
f 748/748/748 749/749/749 750/750/750
f 751/751/751 752/752/752 753/753/753
f 754/754/754 755/755/755 756/756/756
f 757/757/757 758/758/758 759/759/759
f 760/760/760 761/761/761 762/762/762
f 763/763/763 764/764/764 765/765/765
f 766/766/766 767/767/767 768/768/768
f 769/769/769 770/770/770 771/771/771
f 772/772/772 773/773/773 774/774/774
f 775/775/775 776/776/776 777/777/777
f 778/778/778 779/779/779 780/780/780
f 781/781/781 782/782/782 783/783/783
f 784/784/784 785/785/785 786/786/786
f 787/787/787 788/788/788 789/789/789
f 790/790/790 791/791/791 792/792/792
f 793/793/793 794/794/794 795/795/795
f 796/796/796 797/797/797 798/798/798
f 799/799/799 800/800/800 801/801/801
f 802/802/802 803/803/803 804/804/804
f 805/805/805 806/806/806 807/807/807
f 808/808/808 809/809/809 810/810/810
f 811/811/811 812/812/812 813/813/813
f 814/814/814 815/815/815 816/816/816
f 817/817/817 818/818/818 819/819/819
f 820/820/820 821/821/821 822/822/822
f 823/823/823 824/824/824 825/825/825
f 826/826/826 827/827/827 828/828/828
f 829/829/829 830/830/830 831/831/831
f 832/832/832 833/833/833 834/834/834
f 835/835/835 836/836/836 837/837/837
f 838/838/838 839/839/839 840/840/840
