# Authored in Blender; exported by tools-export-modern.py
mtllib materials.mtl
s off
v 1.000000000 0.749372329 1.000000000
v 1.000000000 0.749372329 0.000000000
v 0.930222988 0.689777136 0.000000000
v 0.930222988 0.689777136 1.000000000
v 0.791393427 0.527228678 1.000000000
v 0.842811782 0.587431809 0.000000000
v 0.703982234 0.424883366 0.000000000
v 0.703982234 0.424883366 1.000000000
v 0.592290144 0.242618329 1.000000000
v 0.633657584 0.310123897 0.000000000
v 0.521965504 0.127858877 0.000000000
v 0.521965504 0.127858877 1.000000000
v 0.469004659 0.000000000 0.000000000
v 0.469004659 0.000000000 0.048001673
v 0.470459011 0.003511118 0.000000000
v 0.469004659 0.000000000 1.000000000
v 0.428495786 0.000000000 0.444999933
v 0.415051867 0.000000000 0.444999933
v 0.477415204 0.150558472 0.444999933
v 0.663531423 0.454272509 0.444999933
v 0.894867659 0.725132465 0.444999933
v 1.000000000 0.801515563 0.444999933
v 1.000000000 0.814923992 0.444999933
v 0.525394191 0.000000000 0.444999933
v 1.000000000 0.778700062 0.444999933
v 1.000000000 0.217158794 0.444999933
v 0.782841206 0.000000000 0.444999933
v 1.000000000 0.000000000 0.444999933
v 1.000000000 0.801515563 0.555000067
v 1.000000000 0.814923992 0.555000067
v 0.894867659 0.725132465 0.555000067
v 0.663531423 0.454272509 0.555000067
v 0.477415204 0.150558472 0.555000067
v 0.428495786 0.000000000 0.555000067
v 0.415051867 0.000000000 0.555000067
v 1.000000000 0.673143205 0.555000067
v 1.000000000 0.000000000 0.555000067
v 1.000000000 0.067789167 0.555000067
v 1.000000000 0.416828685 0.555000067
v 1.000000000 0.814923992 0.512304270
v 0.415051867 0.000000000 0.495324945
vt 0.500000000 0.500000000
vn -0.649448019 0.760405991 0.000000000
vn -0.760405822 0.649448216 0.000000000
vn -0.852640305 0.522498335 0.000000000
vn -0.923879626 0.382683206 0.000000000
vn 0.000000000 0.000000000 -1.000000000
vn 0.000000000 0.000000000 1.000000000
vn -0.649448150 0.760405878 0.000000000
vn -0.760405995 0.649448013 0.000000000
vn -0.852640143 0.522498600 0.000000000
vn -0.923879585 0.382683305 0.000000000
usemtl mat_4
f 1/1/1 2/1/1 3/1/1 4/1/1
f 5/1/2 6/1/2 7/1/2 8/1/2
f 4/1/2 3/1/2 6/1/2 5/1/2
f 9/1/3 10/1/3 11/1/3 12/1/3
f 8/1/3 7/1/3 10/1/3 9/1/3
f 13/1/4 14/1/4 15/1/4
f 12/1/4 11/1/4 15/1/4
f 12/1/4 15/1/4 14/1/4
f 12/1/4 14/1/4 16/1/4
usemtl mat_1
f 17/1/5 18/1/5 19/1/5
f 19/1/5 20/1/5 21/1/5
f 22/1/5 21/1/5 23/1/5
f 24/1/5 17/1/5 19/1/5 21/1/5
f 25/1/5 21/1/5 22/1/5
f 26/1/5 27/1/5 24/1/5
f 26/1/5 24/1/5 21/1/5
f 26/1/5 21/1/5 25/1/5
f 28/1/5 27/1/5 26/1/5
f 29/1/6 30/1/6 31/1/6
f 31/1/6 32/1/6 33/1/6
f 34/1/6 33/1/6 35/1/6
f 36/1/6 29/1/6 31/1/6 33/1/6
f 37/1/6 38/1/6 33/1/6 34/1/6
f 39/1/6 36/1/6 33/1/6
f 38/1/6 39/1/6 33/1/6
f 40/1/7 23/1/7 21/1/7 31/1/7
f 40/1/7 31/1/7 30/1/7
f 21/1/8 20/1/8 32/1/8
f 21/1/8 32/1/8 31/1/8
f 20/1/9 19/1/9 33/1/9
f 20/1/9 33/1/9 32/1/9
f 41/1/10 19/1/10 18/1/10
f 19/1/10 41/1/10 35/1/10 33/1/10
