# Authored in Blender; exported by tools-export-modern.py
mtllib materials.mtl
s off
v 0.119999997 0.039999999 1.000000000
v 0.119999997 0.039999999 0.000000000
v 1.000000000 0.039999999 0.000000000
v 1.000000000 0.039999999 1.000000000
v 1.000000000 0.280000001 1.000000000
v 1.000000000 0.280000001 0.000000000
v 0.119999997 0.280000001 0.000000000
v 0.119999997 0.280000001 1.000000000
v 0.119999997 0.213254436 1.000000000
v 0.119999997 0.177751477 0.000000000
v 0.469875792 0.280000001 1.000000000
v 0.423291938 0.280000001 0.000000000
v 0.550000012 0.280000001 0.000000000
v 0.550000012 0.280000001 1.000000000
v 0.250000000 0.280000001 1.000000000
v 0.250000000 0.280000001 0.000000000
v 0.469875792 0.550000012 1.000000000
v 0.423291938 0.550000012 0.000000000
v 0.250000000 0.550000012 0.000000000
v 0.250000000 0.550000012 1.000000000
v 0.550000012 0.550000012 1.000000000
v 0.550000012 0.550000012 0.000000000
v 0.250000000 0.477888214 1.000000000
v 0.250000000 0.435962745 0.000000000
v 0.550000012 0.477888214 1.000000000
v 0.550000012 0.435962745 0.000000000
v 0.500000000 0.449999988 1.000000000
v 0.500000000 0.449999988 0.000000000
v 1.000000000 0.449999988 0.000000000
v 1.000000000 0.449999988 1.000000000
v 0.500000000 1.000000000 1.000000000
v 0.500000000 1.000000000 0.000000000
v 0.780645152 1.000000000 0.440000057
v 0.699999988 0.500000000 0.440000057
v 0.699999988 1.000000000 0.440000057
v 0.949999988 1.000000000 0.440000057
v 0.949999988 0.500000000 0.440000057
v 0.780645152 1.000000000 0.559999943
v 0.699999988 0.500000000 0.559999943
v 0.949999988 0.500000000 0.559999943
v 0.949999988 1.000000000 0.559999943
v 0.699999988 1.000000000 0.559999943
v 0.699999988 1.000000000 0.478709699
v 0.949999988 1.000000000 0.478709699
vt 0.500000000 0.500000000
vn 0.000000000 -1.000000000 0.000000000
vn 0.000000000 1.000000000 0.000000000
vn -1.000000000 0.000000000 0.000000000
vn 1.000000000 0.000000000 0.000000000
vn 0.000000000 0.000000000 -1.000000000
vn 0.000000000 0.000000000 1.000000000
usemtl mat_0
f 1/1/1 2/1/1 3/1/1 4/1/1
f 5/1/2 6/1/2 7/1/2 8/1/2
f 9/1/3 10/1/3 2/1/3 1/1/3
f 10/1/3 9/1/3 8/1/3 7/1/3
usemtl mat_1
f 11/1/1 12/1/1 13/1/1 14/1/1
f 15/1/1 16/1/1 12/1/1 11/1/1
f 17/1/2 18/1/2 19/1/2 20/1/2
f 18/1/2 17/1/2 21/1/2 22/1/2
f 23/1/3 24/1/3 16/1/3 15/1/3
f 24/1/3 23/1/3 20/1/3 19/1/3
f 25/1/4 26/1/4 22/1/4 21/1/4
f 14/1/4 13/1/4 26/1/4 25/1/4
usemtl mat_0
f 27/1/1 28/1/1 29/1/1 30/1/1
f 31/1/3 32/1/3 28/1/3 27/1/3
usemtl mat_1
f 33/1/5 34/1/5 35/1/5
f 34/1/5 33/1/5 36/1/5 37/1/5
f 38/1/6 39/1/6 40/1/6 41/1/6
f 42/1/6 39/1/6 38/1/6
f 34/1/1 37/1/1 40/1/1
f 34/1/1 40/1/1 39/1/1
f 43/1/3 34/1/3 39/1/3 42/1/3
f 35/1/3 34/1/3 43/1/3
f 44/1/4 37/1/4 36/1/4
f 37/1/4 44/1/4 41/1/4 40/1/4
