# Authored in Blender; exported by tools-export-modern.py
mtllib materials.mtl
s off
v 0.357208227 1.000000000 0.299999952
v 0.000000000 0.740473091 0.299999952
v 0.000000000 0.749372329 0.299999952
v 0.195116758 0.916017771 0.299999952
v 0.332163364 1.000000000 0.299999952
v 0.539069475 1.000000000 0.299999952
v 0.000000000 0.725330309 0.299999952
v 0.840047182 1.000000000 0.299999952
v 0.000000000 0.159952656 0.299999952
v 1.000000000 1.000000000 0.299999952
v 1.000000000 0.000000000 0.299999952
v 0.000000000 0.000000000 0.299999952
v 0.332163364 1.000000000 1.000000000
v 0.195116758 0.916017771 1.000000000
v 0.000000000 0.749372329 1.000000000
v 0.152974563 0.880024939 1.000000000
v 0.273190460 1.000000000 0.245000005
v 0.000000000 0.801515563 0.245000005
v 0.000000000 0.814923992 0.245000005
v 0.165727377 0.956468582 0.245000005
v 0.236764244 1.000000000 0.245000005
v 0.434325636 1.000000000 0.245000005
v 0.000000000 0.778700062 0.245000005
v 0.782841206 1.000000000 0.245000005
v 0.000000000 0.217158794 0.245000005
v 1.000000000 1.000000000 0.245000005
v 1.000000000 0.000000000 0.245000005
v 0.000000000 0.000000000 0.245000005
v 0.000000000 0.801515563 0.355000019
v 0.273190460 1.000000000 0.355000019
v 0.236764244 1.000000000 0.355000019
v 0.165727377 0.956468582 0.355000019
v 0.000000000 0.814923992 0.355000019
v 0.000000000 0.673143205 0.355000019
v 0.326856834 1.000000000 0.355000019
v 0.428003937 0.000000000 0.355000019
v 0.000000000 0.067789167 0.355000019
v 0.000000000 0.000000000 0.355000019
v 0.000000000 0.416828685 0.355000019
v 1.000000000 0.926354057 0.355000019
v 1.000000000 1.000000000 0.355000019
v 1.000000000 0.000000000 0.355000019
v 0.236764244 1.000000000 0.329271705
v 0.000000000 0.814923992 0.312304268
v 0.273190460 1.000000000 0.945000052
v 0.000000000 0.801515563 0.945000052
v 0.000000000 0.814923992 0.945000052
v 0.165727377 0.956468582 0.945000052
v 0.236764244 1.000000000 0.945000052
v 0.434325636 1.000000000 0.945000052
v 0.000000000 0.778700062 0.945000052
v 0.782841206 1.000000000 0.945000052
v 0.000000000 0.217158794 0.945000052
v 1.000000000 1.000000000 0.945000052
v 1.000000000 0.000000000 0.945000052
v 0.000000000 0.000000000 0.945000052
v 0.236764244 1.000000000 1.000000000
v 0.165727377 0.956468582 1.000000000
v 0.000000000 0.814923992 1.000000000
v 0.030297665 0.840800649 1.000000000
vt 0.500000000 0.500000000
vn 0.000000000 0.000000000 -1.000000000
vn -0.522498391 0.852640271 0.000000000
vn -0.649448019 0.760405991 0.000000000
vn 0.000000000 0.000000000 1.000000000
vn -0.522498302 0.852640325 0.000000000
vn -0.649448150 0.760405878 0.000000000
usemtl mat_4
f 1/1/1 2/1/1 3/1/1
f 1/1/1 3/1/1 4/1/1
f 1/1/1 4/1/1 5/1/1
f 6/1/1 7/1/1 2/1/1 1/1/1
f 8/1/1 9/1/1 7/1/1 6/1/1
f 10/1/1 11/1/1 12/1/1
f 10/1/1 12/1/1 9/1/1
f 10/1/1 9/1/1 8/1/1
f 13/1/2 5/1/2 4/1/2 14/1/2
f 15/1/3 16/1/3 4/1/3 3/1/3
f 14/1/3 4/1/3 16/1/3
usemtl mat_1
f 17/1/1 18/1/1 19/1/1
f 17/1/1 19/1/1 20/1/1
f 17/1/1 20/1/1 21/1/1
f 22/1/1 23/1/1 18/1/1 17/1/1
f 24/1/1 25/1/1 23/1/1 22/1/1
f 26/1/1 27/1/1 28/1/1
f 26/1/1 28/1/1 25/1/1
f 26/1/1 25/1/1 24/1/1
f 29/1/4 30/1/4 31/1/4
f 29/1/4 31/1/4 32/1/4
f 29/1/4 32/1/4 33/1/4
f 34/1/4 35/1/4 30/1/4 29/1/4
f 36/1/4 37/1/4 38/1/4
f 39/1/4 40/1/4 41/1/4
f 39/1/4 41/1/4 35/1/4
f 39/1/4 35/1/4 34/1/4
f 37/1/4 36/1/4 42/1/4
f 37/1/4 42/1/4 40/1/4
f 37/1/4 40/1/4 39/1/4
f 43/1/5 21/1/5 20/1/5 32/1/5
f 43/1/5 32/1/5 31/1/5
f 44/1/6 20/1/6 19/1/6
f 20/1/6 44/1/6 33/1/6 32/1/6
f 45/1/1 46/1/1 47/1/1
f 45/1/1 47/1/1 48/1/1
f 45/1/1 48/1/1 49/1/1
f 50/1/1 51/1/1 46/1/1 45/1/1
f 52/1/1 53/1/1 51/1/1 50/1/1
f 54/1/1 55/1/1 56/1/1
f 54/1/1 56/1/1 53/1/1
f 54/1/1 53/1/1 52/1/1
f 57/1/5 49/1/5 48/1/5 58/1/5
f 59/1/6 60/1/6 48/1/6 47/1/6
f 58/1/6 48/1/6 60/1/6
