# Authored in Blender; exported by tools-export-modern.py
mtllib materials.mtl
s off
v 0.166666667 0.150000095 1.000000000
v 0.000000000 0.150000095 0.875000000
v 0.000000000 0.150000095 1.000000000
v 1.000000000 0.150000095 1.000000000
v 1.000000000 0.150000095 0.000000000
v 0.000000000 0.150000095 0.000000000
v 1.000000000 0.119999886 0.000000000
v 1.000000000 0.119999886 1.000000000
v 0.004545451 0.119999886 1.000000000
v 0.000000000 0.119999886 0.995495499
v 0.000000000 0.119999886 0.000000000
v 0.000000000 0.119999886 1.000000000
v 1.000000000 0.079999924 0.000000000
v 1.000000000 0.079999924 1.000000000
v 0.173912806 0.079999924 1.000000000
v 0.000000000 0.079999924 0.870967912
v 0.000000000 0.079999924 0.000000000
v 0.000000000 0.079999924 1.000000000
v 0.173912806 0.230000019 1.000000000
v 0.000000000 0.230000019 0.870967912
v 0.000000000 0.230000019 1.000000000
v 1.000000000 0.230000019 1.000000000
v 1.000000000 0.230000019 0.000000000
v 0.000000000 0.230000019 0.000000000
v 0.000000000 0.259301951 0.444999933
v 1.000000000 0.180600218 0.444999933
v 1.000000000 0.119999886 0.444999933
v 0.000000000 0.119999886 0.444999933
v 0.000000000 0.475106239 0.444999933
v 1.000000000 0.475106239 0.444999933
v 0.000000000 0.909404707 0.444999933
v 0.571996155 1.000000000 0.444999933
v 1.000000000 1.000000000 0.444999933
v 0.000000000 1.000000000 0.444999933
v 1.000000000 0.416705417 0.555000067
v 0.000000000 0.338003684 0.555000067
v 0.000000000 0.119999886 0.555000067
v 1.000000000 0.119999886 0.555000067
v 1.000000000 0.475106239 0.555000067
v 0.000000000 0.475106239 0.555000067
v 1.000000000 0.592635824 0.555000067
v 0.000000000 0.751020271 0.555000067
v 0.000000000 1.000000000 0.555000067
v 1.000000000 1.000000000 0.555000067
v 1.000000000 0.119999886 0.536343657
v 0.000000000 0.119999886 0.512114552
vt 0.500000000 0.500000000
vn 0.000000000 1.000000000 0.000000000
vn 0.000000000 -1.000000000 0.000000000
vn 0.000000000 0.000000000 -1.000000000
vn 0.000000000 0.000000000 1.000000000
usemtl mat_0
f 1/1/1 2/1/1 3/1/1
f 4/1/1 5/1/1 6/1/1
f 4/1/1 6/1/1 2/1/1
f 4/1/1 2/1/1 1/1/1
usemtl mat_4
f 7/1/2 8/1/2 9/1/2
f 7/1/2 9/1/2 10/1/2
f 7/1/2 10/1/2 11/1/2
f 12/1/2 10/1/2 9/1/2
usemtl mat_1
f 13/1/2 14/1/2 15/1/2
f 13/1/2 15/1/2 16/1/2
f 13/1/2 16/1/2 17/1/2
f 18/1/2 16/1/2 15/1/2
f 19/1/1 20/1/1 21/1/1
f 22/1/1 23/1/1 24/1/1
f 22/1/1 24/1/1 20/1/1
f 22/1/1 20/1/1 19/1/1
f 25/1/3 26/1/3 27/1/3 28/1/3
f 29/1/3 30/1/3 26/1/3 25/1/3
f 31/1/3 32/1/3 33/1/3
f 31/1/3 33/1/3 30/1/3
f 31/1/3 30/1/3 29/1/3
f 32/1/3 31/1/3 34/1/3
f 35/1/4 36/1/4 37/1/4 38/1/4
f 39/1/4 40/1/4 36/1/4 35/1/4
f 41/1/4 42/1/4 40/1/4 39/1/4
f 43/1/4 42/1/4 41/1/4 44/1/4
f 45/1/2 46/1/2 28/1/2 27/1/2
f 46/1/2 45/1/2 38/1/2 37/1/2
