# Authored in Blender; exported by tools-export-modern.py
mtllib materials.mtl
s off
v 0.519578329 0.000000000 0.699999809
v 0.530995293 0.000000000 0.699999809
v 0.478034496 0.127858877 0.699999809
v 0.296017647 0.424883366 0.699999809
v 0.069777012 0.689777136 0.699999809
v 0.000000000 0.740473069 0.699999809
v 0.000000000 0.749372383 0.699999809
v 0.421235910 0.000000000 0.699999809
v 0.000000000 0.725330309 0.699999809
v 0.000000000 0.159952581 0.699999809
v 0.159952540 0.000000000 0.699999809
v 0.000000000 0.000000000 0.699999809
v 0.499243027 0.076656874 0.000000000
v 0.478034496 0.127858877 0.000000000
v 0.530995293 0.000000000 0.000000000
v 0.324974866 0.377629481 0.000000000
v 0.296017647 0.424883366 0.000000000
v 0.105769832 0.647634955 0.000000000
v 0.069777012 0.689777136 0.000000000
v 0.000000000 0.749372383 0.000000000
v 0.571504307 0.000000000 0.054999828
v 0.584948252 0.000000000 0.054999828
v 0.522584915 0.150558472 0.054999828
v 0.336468697 0.454272509 0.054999828
v 0.105132580 0.725132465 0.054999828
v 0.000000000 0.801515736 0.054999828
v 0.000000000 0.814924038 0.054999828
v 0.474605909 0.000000000 0.054999828
v 0.000000000 0.778700174 0.054999828
v 0.000000000 0.217158794 0.054999828
v 0.217158794 0.000000000 0.054999828
v 0.000000000 0.000000000 0.054999828
v 0.584948252 0.000000000 0.004675035
v 0.584948252 0.000000000 0.000000000
v 0.522584915 0.150558472 0.000000000
v 0.429526806 0.302415490 0.000000000
v 0.336468697 0.454272509 0.000000000
v 0.220800638 0.589702487 0.000000000
v 0.105132580 0.725132465 0.000000000
v 0.000000000 0.814924038 0.000000000
v 0.000000000 0.801515736 0.644999981
v 0.000000000 0.814924038 0.644999981
v 0.105132580 0.725132465 0.644999981
v 0.336468697 0.454272509 0.644999981
v 0.522584915 0.150558472 0.644999981
v 0.571504307 0.000000000 0.644999981
v 0.584948252 0.000000000 0.644999981
v 0.000000000 0.673143387 0.644999981
v 0.000000000 0.000000000 0.644999981
v 0.000000000 0.067789151 0.644999981
v 0.000000000 0.416828732 0.644999981
v 0.571504307 0.000000000 0.755000114
v 0.584948252 0.000000000 0.755000114
v 0.522584915 0.150558472 0.755000114
v 0.336468697 0.454272509 0.755000114
v 0.105132580 0.725132465 0.755000114
v 0.000000000 0.801515736 0.755000114
v 0.000000000 0.814924038 0.755000114
v 0.474605909 0.000000000 0.755000114
v 0.000000000 0.778700174 0.755000114
v 0.000000000 0.217158794 0.755000114
v 0.217158794 0.000000000 0.755000114
v 0.000000000 0.000000000 0.755000114
v 0.584948252 0.000000000 0.704675103
v 0.000000000 0.814924038 0.687695800
vt 0.500000000 0.500000000
vn 0.000000000 0.000000000 1.000000000
vn 0.923879747 0.382682914 0.000000000
vn 0.852640153 0.522498583 0.000000000
vn 0.760405991 0.649448019 0.000000000
vn 0.649448357 0.760405702 -0.000000000
vn 0.923879585 0.382683305 0.000000000
vn 0.852640143 0.522498600 0.000000000
vn 0.760406161 0.649447820 0.000000000
vn 0.649447489 0.760406443 -0.000000000
vn 0.000000000 0.000000000 -1.000000000
usemtl mat_4
f 1/1/1 2/1/1 3/1/1
f 3/1/1 4/1/1 5/1/1
f 6/1/1 5/1/1 7/1/1
f 8/1/1 1/1/1 3/1/1 5/1/1
f 9/1/1 5/1/1 6/1/1
f 10/1/1 11/1/1 8/1/1
f 10/1/1 8/1/1 5/1/1
f 10/1/1 5/1/1 9/1/1
f 12/1/1 11/1/1 10/1/1
f 13/1/2 14/1/2 3/1/2
f 15/1/2 13/1/2 3/1/2 2/1/2
f 16/1/3 17/1/3 4/1/3
f 14/1/3 16/1/3 4/1/3 3/1/3
f 18/1/4 19/1/4 5/1/4
f 17/1/4 18/1/4 5/1/4 4/1/4
f 19/1/5 20/1/5 7/1/5 5/1/5
usemtl mat_1
f 21/1/1 22/1/1 23/1/1
f 23/1/1 24/1/1 25/1/1
f 26/1/1 25/1/1 27/1/1
f 28/1/1 21/1/1 23/1/1 25/1/1
f 29/1/1 25/1/1 26/1/1
f 30/1/1 31/1/1 28/1/1
f 30/1/1 28/1/1 25/1/1
f 30/1/1 25/1/1 29/1/1
f 32/1/1 31/1/1 30/1/1
f 33/1/6 34/1/6 35/1/6 23/1/6
f 33/1/6 23/1/6 22/1/6
f 36/1/7 37/1/7 24/1/7
f 35/1/7 36/1/7 24/1/7 23/1/7
f 38/1/8 39/1/8 25/1/8
f 37/1/8 38/1/8 25/1/8 24/1/8
f 39/1/9 40/1/9 27/1/9 25/1/9
f 41/1/10 42/1/10 43/1/10
f 43/1/10 44/1/10 45/1/10
f 46/1/10 45/1/10 47/1/10
f 48/1/10 41/1/10 43/1/10 45/1/10
f 49/1/10 50/1/10 45/1/10 46/1/10
f 51/1/10 48/1/10 45/1/10
f 50/1/10 51/1/10 45/1/10
f 52/1/1 53/1/1 54/1/1
f 54/1/1 55/1/1 56/1/1
f 57/1/1 56/1/1 58/1/1
f 59/1/1 52/1/1 54/1/1 56/1/1
f 60/1/1 56/1/1 57/1/1
f 61/1/1 62/1/1 59/1/1
f 61/1/1 59/1/1 56/1/1
f 61/1/1 56/1/1 60/1/1
f 63/1/1 62/1/1 61/1/1
f 64/1/6 47/1/6 45/1/6 54/1/6
f 64/1/6 54/1/6 53/1/6
f 45/1/7 44/1/7 55/1/7
f 45/1/7 55/1/7 54/1/7
f 44/1/8 43/1/8 56/1/8
f 44/1/8 56/1/8 55/1/8
f 65/1/9 43/1/9 42/1/9
f 43/1/9 65/1/9 58/1/9 56/1/9
