# Authored in Blender; exported by tools-export-modern.py
mtllib materials.mtl
s off
v 0.901173877 0.299730629 1.000000000
v 0.978158642 0.281248204 0.000000000
v 0.847284555 0.312668324 0.000000000
v 0.847284555 0.312668324 1.000000000
v 1.000000000 0.276004552 1.000000000
v 1.000000000 0.276004552 0.000000000
v 0.555249802 0.335651908 1.000000000
v 0.634178113 0.329440129 0.000000000
v 0.500000000 0.340000153 0.000000000
v 0.500000000 0.340000153 1.000000000
v 0.207965247 0.317016568 1.000000000
v 0.286893558 0.323228348 0.000000000
v 0.152715445 0.312668324 0.000000000
v 0.152715445 0.312668324 1.000000000
v 0.000000000 0.276004578 0.000000000
v 0.000000000 0.276004578 1.000000000
v 0.000000000 0.314973645 0.945000172
v 0.000000000 0.327266548 0.945000172
v 0.144893646 0.362052441 0.945000172
v 0.500000000 0.389999866 0.945000172
v 0.855106354 0.362052441 0.945000172
v 1.000000000 0.314973661 0.945000172
v 1.000000000 0.327266548 0.945000172
v 0.000000000 0.288225449 0.945000172
v 1.000000000 0.226616977 0.945000172
v 0.000000000 0.217158794 0.945000172
v 1.000000000 0.000000000 0.945000172
v 0.855461713 0.000000000 0.945000172
v 0.000000000 0.000000000 0.945000172
v 1.000000000 0.327266548 1.000000000
v 0.855106354 0.362052441 1.000000000
v 0.677553177 0.376026154 1.000000000
v 0.500000000 0.389999866 1.000000000
v 0.322446823 0.376026154 1.000000000
v 0.144893646 0.362052441 1.000000000
v 0.000000000 0.327266548 0.991016323
v 0.000000000 0.327266548 1.000000000
vt 0.500000000 0.500000000
vn 0.233445586 0.972369867 0.000000000
vn 0.078458930 0.996917347 0.000000000
vn -0.078458930 0.996917347 0.000000000
vn -0.233445431 0.972369904 0.000000000
vn 0.000000000 0.000000000 -1.000000000
vn 0.233445404 0.972369911 0.000000000
vn 0.078458955 0.996917345 0.000000000
vn -0.078458955 0.996917345 0.000000000
vn -0.233445404 0.972369911 0.000000000
usemtl mat_4
f 1/1/1 2/1/1 3/1/1 4/1/1
f 5/1/1 6/1/1 2/1/1 1/1/1
f 7/1/2 8/1/2 9/1/2 10/1/2
f 4/1/2 3/1/2 8/1/2 7/1/2
f 11/1/3 12/1/3 13/1/3 14/1/3
f 10/1/3 9/1/3 12/1/3 11/1/3
f 14/1/4 13/1/4 15/1/4 16/1/4
usemtl mat_1
f 17/1/5 18/1/5 19/1/5
f 19/1/5 20/1/5 21/1/5
f 22/1/5 21/1/5 23/1/5
f 24/1/5 17/1/5 19/1/5
f 25/1/5 19/1/5 21/1/5 22/1/5
f 26/1/5 24/1/5 19/1/5
f 27/1/5 28/1/5 19/1/5 25/1/5
f 29/1/5 26/1/5 19/1/5 28/1/5
f 30/1/6 23/1/6 21/1/6 31/1/6
f 32/1/7 21/1/7 20/1/7 33/1/7
f 31/1/7 21/1/7 32/1/7
f 34/1/8 20/1/8 19/1/8 35/1/8
f 33/1/8 20/1/8 34/1/8
f 36/1/9 19/1/9 18/1/9
f 35/1/9 19/1/9 36/1/9 37/1/9
