# Authored in Blender; exported by tools-export-modern.py
mtllib materials.mtl
s off
v 1.000000000 0.150000095 1.000000000
v 1.000000000 0.150000095 0.000000000
v 0.000000000 0.150000095 0.000000000
v 0.000000000 0.150000095 1.000000000
v 1.000000000 0.119999886 0.000000000
v 1.000000000 0.119999886 1.000000000
v 0.000000000 0.119999886 1.000000000
v 0.000000000 0.119999886 0.000000000
v 1.000000000 0.079999924 0.000000000
v 1.000000000 0.079999924 1.000000000
v 0.000000000 0.079999924 1.000000000
v 0.000000000 0.079999924 0.000000000
v 1.000000000 0.230000019 1.000000000
v 1.000000000 0.230000019 0.000000000
v 0.000000000 0.230000019 0.000000000
v 0.000000000 0.230000019 1.000000000
v 1.000000000 0.416705417 0.055000067
v 0.000000000 0.338003684 0.055000067
v 0.000000000 0.119999886 0.055000067
v 1.000000000 0.119999886 0.055000067
v 1.000000000 0.475106239 0.055000067
v 0.000000000 0.475106239 0.055000067
v 1.000000000 0.592635824 0.055000067
v 0.000000000 0.751020271 0.055000067
v 0.000000000 1.000000000 0.055000067
v 1.000000000 1.000000000 0.055000067
v 1.000000000 0.119999886 0.036343677
v 0.000000000 0.119999886 0.012114599
vt 0.500000000 0.500000000
vn 0.000000000 1.000000000 0.000000000
vn 0.000000000 -1.000000000 0.000000000
vn 0.000000000 0.000000000 1.000000000
usemtl mat_0
f 1/1/1 2/1/1 3/1/1 4/1/1
usemtl mat_4
f 5/1/2 6/1/2 7/1/2 8/1/2
usemtl mat_1
f 9/1/2 10/1/2 11/1/2 12/1/2
f 13/1/1 14/1/1 15/1/1 16/1/1
f 17/1/3 18/1/3 19/1/3 20/1/3
f 21/1/3 22/1/3 18/1/3 17/1/3
f 23/1/3 24/1/3 22/1/3 21/1/3
f 25/1/3 24/1/3 23/1/3 26/1/3
f 5/1/2 27/1/2 28/1/2 8/1/2
f 28/1/2 27/1/2 20/1/2 19/1/2
