# Authored in Blender; exported by tools-export-modern.py
mtllib materials.mtl
s off
v 0.622618298 0.027709788 1.000000000
v 0.667836655 0.000000000 0.330154202
v 0.667836655 0.000000000 0.000000000
v 0.507858753 0.098034382 0.000000000
v 0.507858753 0.098034382 1.000000000
v 0.667836655 0.000000000 1.000000000
v 0.310365255 0.179839030 1.000000000
v 0.383510994 0.149541013 0.000000000
v 0.186017513 0.231345654 0.000000000
v 0.186017513 0.231345654 1.000000000
v 0.000000000 0.276004552 0.000000000
v 0.000000000 0.276004552 0.716289873
v 0.055143408 0.262765778 0.000000000
v 0.000000000 0.276004552 1.000000000
v 0.000000000 0.314973661 0.444999933
v 0.000000000 0.327266548 0.444999933
v 0.201468468 0.278898239 0.444999933
v 0.530558586 0.142584801 0.444999933
v 0.726809778 0.000000000 0.444999933
v 0.763235629 0.000000000 0.444999933
v 0.000000000 0.226616977 0.444999933
v 0.673143387 0.000000000 0.444999933
v 0.000000000 0.000000000 0.444999933
v 0.726809778 0.000000000 0.555000067
v 0.763235629 0.000000000 0.555000067
v 0.530558586 0.142584801 0.555000067
v 0.000000000 0.314973661 0.555000067
v 0.201468468 0.278898239 0.555000067
v 0.000000000 0.327266548 0.555000067
v 0.000000000 0.288225464 0.555000067
v 0.565674500 0.000000000 0.555000067
v 0.000000000 0.217158794 0.555000067
v 0.217158794 0.000000000 0.555000067
v 0.000000000 0.000000000 0.555000067
v 0.763235629 0.000000000 0.470728276
v 0.000000000 0.327266548 0.508983716
vt 0.500000000 0.500000000
vn 0.522497781 0.852640645 0.000000000
vn 0.382684082 0.923879263 0.000000000
vn 0.233445586 0.972369867 0.000000000
vn 0.000000000 0.000000000 -1.000000000
vn 0.000000000 0.000000000 1.000000000
vn 0.522498898 0.852639960 0.000000000
vn 0.382683068 0.923879683 0.000000000
vn 0.233445404 0.972369911 0.000000000
usemtl mat_4
f 1/1/1 2/1/1 3/1/1
f 1/1/1 3/1/1 4/1/1
f 1/1/1 4/1/1 5/1/1
f 6/1/1 2/1/1 1/1/1
f 7/1/2 8/1/2 9/1/2 10/1/2
f 5/1/2 4/1/2 8/1/2 7/1/2
f 11/1/3 12/1/3 13/1/3
f 10/1/3 9/1/3 13/1/3
f 10/1/3 13/1/3 12/1/3
f 10/1/3 12/1/3 14/1/3
usemtl mat_1
f 15/1/4 16/1/4 17/1/4 18/1/4
f 19/1/4 18/1/4 20/1/4
f 21/1/4 15/1/4 18/1/4
f 22/1/4 18/1/4 19/1/4
f 23/1/4 21/1/4 18/1/4 22/1/4
f 24/1/5 25/1/5 26/1/5
f 27/1/5 26/1/5 28/1/5 29/1/5
f 30/1/5 31/1/5 24/1/5
f 30/1/5 24/1/5 26/1/5
f 30/1/5 26/1/5 27/1/5
f 32/1/5 33/1/5 31/1/5 30/1/5
f 34/1/5 33/1/5 32/1/5
f 35/1/6 20/1/6 18/1/6 26/1/6
f 35/1/6 26/1/6 25/1/6
f 18/1/7 17/1/7 28/1/7
f 18/1/7 28/1/7 26/1/7
f 36/1/8 17/1/8 16/1/8
f 17/1/8 36/1/8 29/1/8 28/1/8
