# Authored in Blender; exported by tools-export-modern.py
mtllib materials.mtl
s off
v 0.000000000 0.008333420 0.250000000
v 0.000000000 0.150000095 0.250000000
v 0.500000000 0.150000095 0.250000000
v 0.000000000 0.000000000 0.250000000
v 0.500000000 0.000000000 0.250000000
v 0.000000000 0.150000095 1.000000000
v 0.500000000 0.150000095 1.000000000
v 0.500000000 0.000000000 1.000000000
v 0.000000000 0.215483883 0.200000048
v 0.000000000 0.230000019 0.200000048
v 0.599999905 0.230000019 0.200000048
v 0.000000000 0.079999924 0.200000048
v 0.599999905 0.079999924 0.200000048
v 0.000000000 0.079999924 1.000000000
v 0.599999905 0.079999924 1.000000000
v 0.000000000 0.230000019 1.000000000
v 0.599999905 0.230000019 1.000000000
v 0.599999905 0.106086894 1.000000000
v 0.291935682 0.000000000 0.440000057
v 0.050000191 0.000000000 0.440000057
v 0.050000191 0.049999952 0.440000057
v 0.300000191 0.049999952 0.440000057
v 0.300000191 0.000000000 0.440000057
v 0.291935682 0.000000000 0.559999943
v 0.300000191 0.000000000 0.559999943
v 0.300000191 0.049999952 0.559999943
v 0.050000191 0.000000000 0.559999943
v 0.050000191 0.049999952 0.559999943
v 0.050000191 0.000000000 0.556128982
v 0.300000191 0.000000000 0.556128982
vt 0.500000000 0.500000000
vn 0.000000000 0.000000000 -1.000000000
vn 0.000000000 1.000000000 0.000000000
vn 1.000000000 0.000000000 0.000000000
vn 0.000000000 -1.000000000 0.000000000
vn 0.000000000 0.000000000 1.000000000
vn -1.000000000 0.000000000 0.000000000
usemtl mat_0
f 1/1/1 2/1/1 3/1/1
f 4/1/1 1/1/1 3/1/1 5/1/1
f 2/1/2 6/1/2 7/1/2 3/1/2
f 8/1/3 5/1/3 3/1/3 7/1/3
usemtl mat_1
f 9/1/1 10/1/1 11/1/1
f 12/1/1 9/1/1 11/1/1 13/1/1
f 14/1/4 12/1/4 13/1/4 15/1/4
f 10/1/2 16/1/2 17/1/2 11/1/2
f 18/1/3 13/1/3 11/1/3 17/1/3
f 15/1/3 13/1/3 18/1/3
f 19/1/1 20/1/1 21/1/1 22/1/1
f 19/1/1 22/1/1 23/1/1
f 24/1/5 25/1/5 26/1/5
f 27/1/5 24/1/5 26/1/5 28/1/5
f 21/1/2 28/1/2 26/1/2
f 21/1/2 26/1/2 22/1/2
f 29/1/6 27/1/6 28/1/6
f 20/1/6 29/1/6 28/1/6 21/1/6
f 30/1/3 23/1/3 22/1/3 26/1/3
f 30/1/3 26/1/3 25/1/3
