# Authored in Blender; exported by tools-export-modern.py
mtllib materials.mtl
s off
v 0.000000000 1.000000000 0.699999809
v 0.000000000 0.880955203 0.699999809
v 0.233638528 1.000000000 0.699999809
v 0.000000000 0.000000000 0.699999809
v 1.000000000 0.000000000 0.699999809
v 1.000000000 1.000000000 0.699999809
v 0.000000000 1.000000000 0.054999828
v 0.000000000 0.926354057 0.054999828
v 0.144538323 1.000000000 0.054999828
v 0.000000000 0.000000000 0.054999828
v 1.000000000 0.000000000 0.054999828
v 1.000000000 1.000000000 0.054999828
v 1.000000000 1.000000000 0.644999981
v 1.000000000 0.926354079 0.644999981
v 0.855461713 1.000000000 0.644999981
v 1.000000000 0.000000000 0.644999981
v 0.000000000 0.000000000 0.644999981
v 0.000000000 1.000000000 0.644999981
v 0.000000000 1.000000000 0.755000114
v 0.000000000 0.926354057 0.755000114
v 0.144538323 1.000000000 0.755000114
v 0.000000000 0.000000000 0.755000114
v 1.000000000 0.000000000 0.755000114
v 1.000000000 1.000000000 0.755000114
vt 0.500000000 0.500000000
vn 0.000000000 0.000000000 1.000000000
vn 0.000000000 0.000000000 -1.000000000
usemtl mat_4
f 1/1/1 2/1/1 3/1/1
f 4/1/1 5/1/1 6/1/1
f 4/1/1 6/1/1 3/1/1
f 4/1/1 3/1/1 2/1/1
usemtl mat_1
f 7/1/1 8/1/1 9/1/1
f 10/1/1 11/1/1 12/1/1
f 10/1/1 12/1/1 9/1/1
f 10/1/1 9/1/1 8/1/1
f 13/1/2 14/1/2 15/1/2
f 16/1/2 17/1/2 18/1/2
f 16/1/2 18/1/2 15/1/2
f 16/1/2 15/1/2 14/1/2
f 19/1/1 20/1/1 21/1/1
f 22/1/1 23/1/1 24/1/1
f 22/1/1 24/1/1 21/1/1
f 22/1/1 21/1/1 20/1/1
