# Authored in Blender; exported by tools-export-modern.py
mtllib materials.mtl
s off
v 0.000000000 0.000000000 0.750000000
v 1.000000000 0.000000000 0.750000000
v 1.000000000 0.150000095 0.750000000
v 0.000000000 0.150000095 0.750000000
v 1.000000000 0.150000095 0.000000000
v 0.000000000 0.150000095 0.000000000
v 1.000000000 0.176665125 0.699999809
v 0.279999971 0.119999886 0.699999809
v 1.000000000 0.119999886 0.699999809
v 0.480421648 1.000000000 0.699999809
v 0.469004659 1.000000000 0.699999809
v 0.388654590 0.806017637 0.699999809
v 0.307331920 0.467284441 0.699999809
v 1.000000000 0.467284441 0.699999809
v 1.000000000 1.000000000 0.699999809
v 0.409863139 0.857219640 0.000000000
v 0.388654590 0.806017637 0.000000000
v 0.469004659 1.000000000 0.000000000
v 0.320269614 0.521173800 0.000000000
v 0.307331920 0.467284441 0.000000000
v 0.284348235 0.175249688 0.000000000
v 0.279999971 0.119999886 0.000000000
v 1.000000000 0.119999886 0.000000000
v 1.000000000 0.118709626 0.800000191
v 0.000000000 0.094516062 0.800000191
v 0.000000000 0.079999924 0.800000191
v 1.000000000 0.079999924 0.800000191
v 1.000000000 0.230000019 0.800000191
v 0.000000000 0.230000019 0.800000191
v 0.000000000 0.079999924 0.000000000
v 1.000000000 0.079999924 0.000000000
v 1.000000000 0.230000019 0.000000000
v 0.000000000 0.230000019 0.000000000
v 1.000000000 0.180600218 0.054999828
v 0.230000019 0.119999886 0.054999828
v 1.000000000 0.119999886 0.054999828
v 0.428495786 1.000000000 0.054999828
v 0.415051867 1.000000000 0.054999828
v 0.341101766 0.821468592 0.054999828
v 0.257947445 0.475106239 0.054999828
v 1.000000000 0.475106239 0.054999828
v 1.000000000 1.000000000 0.054999828
v 0.409258485 0.986013532 0.000000000
v 0.341101766 0.821468592 0.000000000
v 0.415051867 1.000000000 0.000000000
v 0.299524605 0.648287416 0.000000000
v 0.257947445 0.475106239 0.000000000
v 0.243973732 0.297553062 0.000000000
v 0.230000019 0.119999886 0.000000000
v 1.000000000 0.416705417 0.644999981
v 1.000000000 0.119999886 0.644999981
v 0.230000019 0.119999886 0.644999981
v 0.257947445 0.475106239 0.644999981
v 0.428495786 1.000000000 0.644999981
v 0.341101766 0.821468592 0.644999981
v 0.415051867 1.000000000 0.644999981
v 1.000000000 0.475106239 0.644999981
v 0.525394191 1.000000000 0.644999981
v 1.000000000 0.592635820 0.644999981
v 0.782841206 1.000000000 0.644999981
v 1.000000000 1.000000000 0.644999981
v 1.000000000 0.180600218 0.755000114
v 0.230000019 0.119999886 0.755000114
v 1.000000000 0.119999886 0.755000114
v 0.428495786 1.000000000 0.755000114
v 0.415051867 1.000000000 0.755000114
v 0.341101766 0.821468592 0.755000114
v 0.257947445 0.475106239 0.755000114
v 1.000000000 0.475106239 0.755000114
v 1.000000000 1.000000000 0.755000114
v 0.415051867 1.000000000 0.695324992
v 1.000000000 0.119999886 0.663656391
vt 0.500000000 0.500000000
vn 0.000000000 0.000000000 1.000000000
vn 0.000000000 1.000000000 0.000000000
vn -0.923879626 0.382683206 0.000000000
vn -0.972369904 0.233445431 0.000000000
vn -0.996917320 0.078459270 0.000000000
vn 0.000000000 -1.000000000 0.000000000
vn -0.923879585 0.382683305 0.000000000
vn -0.972369871 0.233445568 0.000000000
vn -0.996917345 0.078458955 0.000000000
vn 0.000000000 0.000000000 -1.000000000
usemtl mat_0
f 1/1/1 2/1/1 3/1/1 4/1/1
f 5/1/2 6/1/2 4/1/2 3/1/2
usemtl mat_4
f 7/1/1 8/1/1 9/1/1
f 10/1/1 11/1/1 12/1/1 13/1/1
f 14/1/1 13/1/1 8/1/1 7/1/1
f 15/1/1 10/1/1 13/1/1 14/1/1
f 16/1/3 17/1/3 12/1/3
f 18/1/3 16/1/3 12/1/3 11/1/3
f 19/1/4 20/1/4 13/1/4
f 17/1/4 19/1/4 13/1/4 12/1/4
f 21/1/5 22/1/5 8/1/5
f 20/1/5 21/1/5 8/1/5 13/1/5
f 22/1/6 23/1/6 9/1/6 8/1/6
usemtl mat_1
f 24/1/1 25/1/1 26/1/1 27/1/1
f 25/1/1 24/1/1 28/1/1 29/1/1
f 30/1/6 31/1/6 27/1/6 26/1/6
f 32/1/2 33/1/2 29/1/2 28/1/2
f 34/1/1 35/1/1 36/1/1
f 37/1/1 38/1/1 39/1/1 40/1/1
f 41/1/1 40/1/1 35/1/1 34/1/1
f 42/1/1 37/1/1 40/1/1 41/1/1
f 43/1/7 44/1/7 39/1/7
f 45/1/7 43/1/7 39/1/7 38/1/7
f 46/1/8 47/1/8 40/1/8
f 44/1/8 46/1/8 40/1/8 39/1/8
f 48/1/9 49/1/9 35/1/9
f 47/1/9 48/1/9 35/1/9 40/1/9
f 49/1/6 23/1/6 36/1/6 35/1/6
f 50/1/10 51/1/10 52/1/10 53/1/10
f 54/1/10 53/1/10 55/1/10 56/1/10
f 57/1/10 50/1/10 53/1/10
f 58/1/10 53/1/10 54/1/10
f 59/1/10 57/1/10 53/1/10
f 60/1/10 53/1/10 58/1/10
f 61/1/10 59/1/10 53/1/10 60/1/10
f 62/1/1 63/1/1 64/1/1
f 65/1/1 66/1/1 67/1/1 68/1/1
f 69/1/1 68/1/1 63/1/1 62/1/1
f 70/1/1 65/1/1 68/1/1 69/1/1
f 71/1/7 56/1/7 55/1/7 67/1/7
f 71/1/7 67/1/7 66/1/7
f 55/1/8 53/1/8 68/1/8
f 55/1/8 68/1/8 67/1/8
f 53/1/9 52/1/9 63/1/9
f 53/1/9 63/1/9 68/1/9
f 72/1/6 52/1/6 51/1/6
f 52/1/6 72/1/6 64/1/6 63/1/6
