# Authored in Blender; exported by tools-export-modern.py
mtllib materials.mtl
s off
v 1.000000000 0.740473069 0.299999952
v 0.642791592 1.000000000 0.299999952
v 0.667836655 1.000000000 0.299999952
v 0.804883480 0.916017771 0.299999952
v 1.000000000 0.749372383 0.299999952
v 1.000000000 0.605893256 0.299999952
v 0.605893159 1.000000000 0.299999952
v 0.670765369 0.000000000 0.299999952
v 1.000000000 0.052145646 0.299999952
v 1.000000000 0.000000000 0.299999952
v 1.000000000 0.371429662 0.299999952
v 0.000000000 0.880955203 0.299999952
v 0.000000000 1.000000000 0.299999952
v 0.000000000 0.000000000 0.299999952
v 1.000000000 0.749372383 1.000000000
v 0.804883480 0.916017771 1.000000000
v 0.667836655 1.000000000 1.000000000
v 0.757629541 0.944974962 1.000000000
v 1.000000000 0.801515736 0.245000005
v 0.726809778 1.000000000 0.245000005
v 0.763235629 1.000000000 0.245000005
v 0.834272385 0.956468582 0.245000005
v 1.000000000 0.814924038 0.245000005
v 1.000000000 0.673143387 0.245000005
v 0.673143387 1.000000000 0.245000005
v 0.571996155 0.000000000 0.245000005
v 1.000000000 0.067789151 0.245000005
v 1.000000000 0.000000000 0.245000005
v 1.000000000 0.416828732 0.245000005
v 0.000000000 0.926354079 0.245000005
v 0.000000000 1.000000000 0.245000005
v 0.000000000 0.000000000 0.245000005
v 0.726809778 1.000000000 0.355000019
v 1.000000000 0.801515736 0.355000019
v 1.000000000 0.814924038 0.355000019
v 0.834272385 0.956468582 0.355000019
v 0.763235629 1.000000000 0.355000019
v 0.565674500 1.000000000 0.355000019
v 1.000000000 0.778700174 0.355000019
v 0.217158794 1.000000000 0.355000019
v 1.000000000 0.217158794 0.355000019
v 0.000000000 1.000000000 0.355000019
v 0.000000000 0.000000000 0.355000019
v 1.000000000 0.000000000 0.355000019
v 1.000000000 0.814924038 0.287695777
v 0.763235629 1.000000000 0.270728319
v 1.000000000 0.801515736 0.945000052
v 0.726809778 1.000000000 0.945000052
v 0.763235629 1.000000000 0.945000052
v 0.834272385 0.956468582 0.945000052
v 1.000000000 0.814924038 0.945000052
v 1.000000000 0.673143387 0.945000052
v 0.673143387 1.000000000 0.945000052
v 0.571996155 0.000000000 0.945000052
v 1.000000000 0.067789151 0.945000052
v 1.000000000 0.000000000 0.945000052
v 1.000000000 0.416828732 0.945000052
v 0.000000000 0.926354079 0.945000052
v 0.000000000 1.000000000 0.945000052
v 0.000000000 0.000000000 0.945000052
v 0.969702629 0.840800398 1.000000000
v 1.000000000 0.814924038 0.987695825
v 0.834272385 0.956468582 1.000000000
v 1.000000000 0.814924038 1.000000000
v 0.763235629 1.000000000 0.970728367
v 0.763235629 1.000000000 1.000000000
vt 0.500000000 0.500000000
vn 0.000000000 0.000000000 -1.000000000
vn 0.649448357 0.760405702 0.000000000
vn 0.522497781 0.852640645 0.000000000
vn 0.000000000 0.000000000 1.000000000
vn 0.649447489 0.760406443 0.000000000
vn 0.522498898 0.852639960 0.000000000
usemtl mat_4
f 1/1/1 2/1/1 3/1/1
f 1/1/1 3/1/1 4/1/1
f 1/1/1 4/1/1 5/1/1
f 6/1/1 7/1/1 2/1/1 1/1/1
f 8/1/1 9/1/1 10/1/1
f 11/1/1 12/1/1 13/1/1
f 11/1/1 13/1/1 7/1/1
f 11/1/1 7/1/1 6/1/1
f 9/1/1 8/1/1 14/1/1
f 9/1/1 14/1/1 12/1/1
f 9/1/1 12/1/1 11/1/1
f 15/1/2 5/1/2 4/1/2 16/1/2
f 17/1/3 18/1/3 4/1/3 3/1/3
f 16/1/3 4/1/3 18/1/3
usemtl mat_1
f 19/1/1 20/1/1 21/1/1
f 19/1/1 21/1/1 22/1/1
f 19/1/1 22/1/1 23/1/1
f 24/1/1 25/1/1 20/1/1 19/1/1
f 26/1/1 27/1/1 28/1/1
f 29/1/1 30/1/1 31/1/1
f 29/1/1 31/1/1 25/1/1
f 29/1/1 25/1/1 24/1/1
f 27/1/1 26/1/1 32/1/1
f 27/1/1 32/1/1 30/1/1
f 27/1/1 30/1/1 29/1/1
f 33/1/4 34/1/4 35/1/4
f 33/1/4 35/1/4 36/1/4
f 33/1/4 36/1/4 37/1/4
f 38/1/4 39/1/4 34/1/4 33/1/4
f 40/1/4 41/1/4 39/1/4 38/1/4
f 42/1/4 43/1/4 44/1/4
f 42/1/4 44/1/4 41/1/4
f 42/1/4 41/1/4 40/1/4
f 45/1/5 23/1/5 22/1/5 36/1/5
f 45/1/5 36/1/5 35/1/5
f 46/1/6 22/1/6 21/1/6
f 22/1/6 46/1/6 37/1/6 36/1/6
f 47/1/1 48/1/1 49/1/1
f 47/1/1 49/1/1 50/1/1
f 47/1/1 50/1/1 51/1/1
f 52/1/1 53/1/1 48/1/1 47/1/1
f 54/1/1 55/1/1 56/1/1
f 57/1/1 58/1/1 59/1/1
f 57/1/1 59/1/1 53/1/1
f 57/1/1 53/1/1 52/1/1
f 55/1/1 54/1/1 60/1/1
f 55/1/1 60/1/1 58/1/1
f 55/1/1 58/1/1 57/1/1
f 61/1/5 62/1/5 51/1/5
f 61/1/5 51/1/5 50/1/5
f 61/1/5 50/1/5 63/1/5
f 64/1/5 62/1/5 61/1/5
f 65/1/6 50/1/6 49/1/6
f 63/1/6 50/1/6 65/1/6 66/1/6
