# Authored in Blender; exported by tools-export-modern.py
mtllib materials.mtl
s off
v 1.000000000 0.039999999 0.000000000
v 1.000000000 0.039999999 1.000000000
v 0.000000000 0.039999999 1.000000000
v 0.000000000 0.039999999 0.000000000
v 1.000000000 0.280000001 1.000000000
v 1.000000000 0.280000001 0.000000000
v 0.000000000 0.280000001 0.000000000
v 0.000000000 0.280000001 1.000000000
v 0.277777785 1.000000000 0.019999981
v 0.000000000 0.500000000 0.019999981
v 1.000000000 0.500000000 0.019999981
v 1.000000000 1.000000000 0.019999981
v 0.000000000 1.000000000 0.019999981
v 0.968750029 0.500000000 0.000000000
v 1.000000000 0.500000000 0.000000000
v 0.000000000 0.500000000 0.000000000
v 0.000000000 1.000000000 0.000000000
v 1.000000000 1.000000000 0.000000000
v 1.000000000 1.000000000 0.250000000
v 1.000000000 0.449999988 0.250000000
v 0.000000000 0.449999988 0.250000000
v 0.000000000 1.000000000 0.250000000
v 1.000000000 0.449999988 1.000000000
v 0.000000000 0.449999988 1.000000000
vt 0.500000000 0.500000000
vn 0.000000000 -1.000000000 0.000000000
vn 0.000000000 1.000000000 0.000000000
vn 0.000000000 0.000000000 1.000000000
vn -1.000000000 0.000000000 0.000000000
vn 1.000000000 0.000000000 0.000000000
vn 0.000000000 0.000000000 -1.000000000
usemtl mat_0
f 1/1/1 2/1/1 3/1/1 4/1/1
f 5/1/2 6/1/2 7/1/2 8/1/2
f 9/1/3 10/1/3 11/1/3 12/1/3
f 13/1/3 10/1/3 9/1/3
f 14/1/1 15/1/1 11/1/1
f 16/1/1 14/1/1 11/1/1 10/1/1
f 17/1/4 16/1/4 10/1/4 13/1/4
f 15/1/5 18/1/5 12/1/5 11/1/5
f 19/1/6 20/1/6 21/1/6 22/1/6
f 23/1/1 24/1/1 21/1/1 20/1/1
