# Authored in Blender; exported by tools-export-modern.py
mtllib materials.mtl
s off
v 1.000000000 0.150000095 1.000000000
v 1.000000000 0.150000095 0.000000000
v 0.000000000 0.150000095 0.000000000
v 0.000000000 0.150000095 1.000000000
v 0.440161075 0.930365379 1.000000000
v 0.469004659 1.000000000 0.048001673
v 0.469004659 1.000000000 0.000000000
v 0.388654590 0.806017637 0.000000000
v 0.388654590 0.806017637 1.000000000
v 0.469004659 1.000000000 1.000000000
v 0.338752040 0.598158620 1.000000000
v 0.357234465 0.675143440 0.000000000
v 0.307331920 0.467284441 0.000000000
v 0.307331920 0.467284441 1.000000000
v 0.290560041 0.254177999 1.000000000
v 0.296771848 0.333106309 0.000000000
v 0.279999971 0.119999886 0.000000000
v 0.279999971 0.119999886 1.000000000
v 1.000000000 0.119999886 0.000000000
v 1.000000000 0.119999886 1.000000000
v 0.000000000 0.079999924 1.000000000
v 0.000000000 0.079999924 0.000000000
v 1.000000000 0.079999924 0.000000000
v 1.000000000 0.079999924 1.000000000
v 1.000000000 0.230000019 1.000000000
v 1.000000000 0.230000019 0.000000000
v 0.000000000 0.230000019 0.000000000
v 0.000000000 0.230000019 1.000000000
v 1.000000000 0.416705417 0.444999933
v 1.000000000 0.119999886 0.444999933
v 0.230000019 0.119999886 0.444999933
v 0.257947445 0.475106239 0.444999933
v 0.428495786 1.000000000 0.444999933
v 0.341101766 0.821468592 0.444999933
v 0.415051867 1.000000000 0.444999933
v 1.000000000 0.475106239 0.444999933
v 0.525394191 1.000000000 0.444999933
v 1.000000000 0.592635820 0.444999933
v 0.782841206 1.000000000 0.444999933
v 1.000000000 1.000000000 0.444999933
v 1.000000000 0.180600218 0.555000067
v 0.230000019 0.119999886 0.555000067
v 1.000000000 0.119999886 0.555000067
v 0.428495786 1.000000000 0.555000067
v 0.415051867 1.000000000 0.555000067
v 0.341101766 0.821468592 0.555000067
v 0.257947445 0.475106239 0.555000067
v 1.000000000 0.475106239 0.555000067
v 1.000000000 1.000000000 0.555000067
v 0.415051867 1.000000000 0.495324945
v 1.000000000 0.119999886 0.463656343
vt 0.500000000 0.500000000
vn 0.000000000 1.000000000 0.000000000
vn -0.923879626 0.382683206 0.000000000
vn -0.972369904 0.233445431 0.000000000
vn -0.996917320 0.078459270 0.000000000
vn 0.000000000 -1.000000000 0.000000000
vn 0.000000000 0.000000000 -1.000000000
vn 0.000000000 0.000000000 1.000000000
vn -0.923879585 0.382683305 0.000000000
vn -0.972369871 0.233445568 0.000000000
vn -0.996917345 0.078458955 0.000000000
usemtl mat_0
f 1/1/1 2/1/1 3/1/1 4/1/1
usemtl mat_4
f 5/1/2 6/1/2 7/1/2
f 5/1/2 7/1/2 8/1/2
f 5/1/2 8/1/2 9/1/2
f 10/1/2 6/1/2 5/1/2
f 11/1/3 12/1/3 13/1/3 14/1/3
f 9/1/3 8/1/3 12/1/3 11/1/3
f 15/1/4 16/1/4 17/1/4 18/1/4
f 14/1/4 13/1/4 16/1/4 15/1/4
f 18/1/5 17/1/5 19/1/5 20/1/5
usemtl mat_1
f 21/1/5 22/1/5 23/1/5 24/1/5
f 25/1/1 26/1/1 27/1/1 28/1/1
f 29/1/6 30/1/6 31/1/6 32/1/6
f 33/1/6 32/1/6 34/1/6 35/1/6
f 36/1/6 29/1/6 32/1/6
f 37/1/6 32/1/6 33/1/6
f 38/1/6 36/1/6 32/1/6
f 39/1/6 32/1/6 37/1/6
f 40/1/6 38/1/6 32/1/6 39/1/6
f 41/1/7 42/1/7 43/1/7
f 44/1/7 45/1/7 46/1/7 47/1/7
f 48/1/7 47/1/7 42/1/7 41/1/7
f 49/1/7 44/1/7 47/1/7 48/1/7
f 50/1/8 35/1/8 34/1/8 46/1/8
f 50/1/8 46/1/8 45/1/8
f 34/1/9 32/1/9 47/1/9
f 34/1/9 47/1/9 46/1/9
f 32/1/10 31/1/10 42/1/10
f 32/1/10 42/1/10 47/1/10
f 51/1/5 31/1/5 30/1/5
f 31/1/5 51/1/5 43/1/5 42/1/5
