# Authored in Blender; exported by tools-export-modern.py
mtllib materials.mtl
s off
v 0.847025623 0.880024951 1.000000000
v 0.907228700 0.828606623 0.000000000
v 0.804883480 0.916017771 0.000000000
v 0.804883480 0.916017771 1.000000000
v 1.000000000 0.749372383 1.000000000
v 1.000000000 0.749372383 0.000000000
v 0.667836655 1.000000000 0.000000000
v 0.667836655 1.000000000 1.000000000
v 1.000000000 0.801515736 0.945000172
v 0.726809778 1.000000000 0.945000172
v 0.763235629 1.000000000 0.945000172
v 0.834272385 0.956468582 0.945000172
v 1.000000000 0.814924038 0.945000172
v 1.000000000 0.673143387 0.945000172
v 0.673143387 1.000000000 0.945000172
v 0.571996155 0.000000000 0.945000172
v 1.000000000 0.067789151 0.945000172
v 1.000000000 0.000000000 0.945000172
v 1.000000000 0.416828732 0.945000172
v 0.000000000 0.926354079 0.945000172
v 0.000000000 1.000000000 0.945000172
v 0.000000000 0.000000000 0.945000172
v 0.969702482 0.840800524 1.000000000
v 1.000000000 0.814924038 0.987695805
v 0.834272385 0.956468582 1.000000000
v 1.000000000 0.814924038 1.000000000
v 0.763235629 1.000000000 0.970728402
v 0.763235629 1.000000000 1.000000000
vt 0.500000000 0.500000000
vn 0.649448357 0.760405702 0.000000000
vn 0.522497781 0.852640645 -0.000000000
vn 0.000000000 0.000000000 -1.000000000
vn 0.649447489 0.760406443 0.000000000
vn 0.522498898 0.852639960 0.000000000
usemtl mat_4
f 1/1/1 2/1/1 3/1/1 4/1/1
f 5/1/1 6/1/1 2/1/1 1/1/1
f 4/1/2 3/1/2 7/1/2 8/1/2
usemtl mat_1
f 9/1/3 10/1/3 11/1/3
f 9/1/3 11/1/3 12/1/3
f 9/1/3 12/1/3 13/1/3
f 14/1/3 15/1/3 10/1/3 9/1/3
f 16/1/3 17/1/3 18/1/3
f 19/1/3 20/1/3 21/1/3
f 19/1/3 21/1/3 15/1/3
f 19/1/3 15/1/3 14/1/3
f 17/1/3 16/1/3 22/1/3
f 17/1/3 22/1/3 20/1/3
f 17/1/3 20/1/3 19/1/3
f 23/1/4 24/1/4 13/1/4
f 23/1/4 13/1/4 12/1/4
f 23/1/4 12/1/4 25/1/4
f 26/1/4 24/1/4 23/1/4
f 27/1/5 12/1/5 11/1/5
f 25/1/5 12/1/5 27/1/5 28/1/5
