# Authored in Blender; exported by tools-export-modern.py
mtllib materials.mtl
s off
v 0.907228700 0.828606623 1.000000000
v 0.967431777 0.777188296 0.000000000
v 0.804883480 0.916017771 0.000000000
v 0.804883480 0.916017771 1.000000000
v 1.000000000 0.749372383 1.000000000
v 1.000000000 0.749372383 0.000000000
v 0.667836655 1.000000000 0.000000000
v 0.667836655 1.000000000 0.330154202
v 0.690123920 0.986342375 0.000000000
v 0.667836655 1.000000000 1.000000000
v 1.000000000 0.801515736 0.444999933
v 0.726809778 1.000000000 0.444999933
v 0.763235629 1.000000000 0.444999933
v 0.834272385 0.956468582 0.444999933
v 1.000000000 0.814924038 0.444999933
v 1.000000000 0.673143387 0.444999933
v 0.673143387 1.000000000 0.444999933
v 0.571996155 0.000000000 0.444999933
v 1.000000000 0.067789151 0.444999933
v 1.000000000 0.000000000 0.444999933
v 1.000000000 0.416828732 0.444999933
v 0.000000000 0.926354079 0.444999933
v 0.000000000 1.000000000 0.444999933
v 0.000000000 0.000000000 0.444999933
v 0.726809778 1.000000000 0.555000067
v 1.000000000 0.801515736 0.555000067
v 1.000000000 0.814924038 0.555000067
v 0.834272385 0.956468582 0.555000067
v 0.763235629 1.000000000 0.555000067
v 0.565674500 1.000000000 0.555000067
v 1.000000000 0.778700174 0.555000067
v 0.217158794 1.000000000 0.555000067
v 1.000000000 0.217158794 0.555000067
v 0.000000000 1.000000000 0.555000067
v 0.000000000 0.000000000 0.555000067
v 1.000000000 0.000000000 0.555000067
v 1.000000000 0.814924038 0.487695752
v 0.763235629 1.000000000 0.470728276
vt 0.500000000 0.500000000
vn 0.649448357 0.760405702 0.000000000
vn 0.522497781 0.852640645 0.000000000
vn 0.000000000 0.000000000 -1.000000000
vn 0.000000000 0.000000000 1.000000000
vn 0.649447489 0.760406443 0.000000000
vn 0.522498898 0.852639960 0.000000000
usemtl mat_4
f 1/1/1 2/1/1 3/1/1 4/1/1
f 5/1/1 6/1/1 2/1/1 1/1/1
f 7/1/2 8/1/2 9/1/2
f 4/1/2 3/1/2 9/1/2
f 4/1/2 9/1/2 8/1/2
f 4/1/2 8/1/2 10/1/2
usemtl mat_1
f 11/1/3 12/1/3 13/1/3
f 11/1/3 13/1/3 14/1/3
f 11/1/3 14/1/3 15/1/3
f 16/1/3 17/1/3 12/1/3 11/1/3
f 18/1/3 19/1/3 20/1/3
f 21/1/3 22/1/3 23/1/3
f 21/1/3 23/1/3 17/1/3
f 21/1/3 17/1/3 16/1/3
f 19/1/3 18/1/3 24/1/3
f 19/1/3 24/1/3 22/1/3
f 19/1/3 22/1/3 21/1/3
f 25/1/4 26/1/4 27/1/4
f 25/1/4 27/1/4 28/1/4
f 25/1/4 28/1/4 29/1/4
f 30/1/4 31/1/4 26/1/4 25/1/4
f 32/1/4 33/1/4 31/1/4 30/1/4
f 34/1/4 35/1/4 36/1/4
f 34/1/4 36/1/4 33/1/4
f 34/1/4 33/1/4 32/1/4
f 37/1/5 15/1/5 14/1/5 28/1/5
f 37/1/5 28/1/5 27/1/5
f 38/1/6 14/1/6 13/1/6
f 14/1/6 38/1/6 29/1/6 28/1/6
