# Authored in Blender; exported by tools-export-modern.py
mtllib materials.mtl
s off
v 0.555112676 0.069077201 1.000000000
v 0.622618298 0.027709788 0.000000000
v 0.507858753 0.098034382 0.000000000
v 0.507858753 0.098034382 1.000000000
v 0.667836655 0.000000000 1.000000000
v 0.667836655 0.000000000 0.000000000
v 0.237219516 0.210137047 1.000000000
v 0.310365255 0.179839030 0.000000000
v 0.186017513 0.231345654 0.000000000
v 0.186017513 0.231345654 1.000000000
v 0.000000000 0.276004552 0.000000000
v 0.000000000 0.276004552 1.000000000
v 0.000000000 0.314973661 0.945000172
v 0.000000000 0.327266548 0.945000172
v 0.201468468 0.278898239 0.945000172
v 0.530558586 0.142584801 0.945000172
v 0.726809778 0.000000000 0.945000172
v 0.763235629 0.000000000 0.945000172
v 0.000000000 0.226616977 0.945000172
v 0.673143387 0.000000000 0.945000172
v 0.000000000 0.000000000 0.945000172
v 0.682415485 0.049526691 1.000000000
v 0.763235629 0.000000000 0.970728402
v 0.530558586 0.142584801 1.000000000
v 0.763235629 0.000000000 1.000000000
v 0.366013527 0.210741520 1.000000000
v 0.201468468 0.278898239 1.000000000
v 0.000000000 0.327266548 1.000000000
v 0.028287411 0.320475340 1.000000000
vt 0.500000000 0.500000000
vn 0.522497781 0.852640645 0.000000000
vn 0.382684082 0.923879263 0.000000000
vn 0.233445586 0.972369867 -0.000000000
vn 0.000000000 0.000000000 -1.000000000
vn 0.522498898 0.852639960 0.000000000
vn 0.382683068 0.923879683 0.000000000
vn 0.233445404 0.972369911 0.000000000
usemtl mat_4
f 1/1/1 2/1/1 3/1/1 4/1/1
f 5/1/1 6/1/1 2/1/1 1/1/1
f 7/1/2 8/1/2 9/1/2 10/1/2
f 4/1/2 3/1/2 8/1/2 7/1/2
f 10/1/3 9/1/3 11/1/3 12/1/3
usemtl mat_1
f 13/1/4 14/1/4 15/1/4 16/1/4
f 17/1/4 16/1/4 18/1/4
f 19/1/4 13/1/4 16/1/4
f 20/1/4 16/1/4 17/1/4
f 21/1/4 19/1/4 16/1/4 20/1/4
f 22/1/5 23/1/5 18/1/5
f 22/1/5 18/1/5 16/1/5
f 22/1/5 16/1/5 24/1/5
f 25/1/5 23/1/5 22/1/5
f 26/1/6 16/1/6 15/1/6 27/1/6
f 24/1/6 16/1/6 26/1/6
f 28/1/7 29/1/7 15/1/7 14/1/7
f 27/1/7 15/1/7 29/1/7
