# Authored in Blender; exported by tools-export-modern.py
mtllib materials.mtl
s off
v 0.499243027 0.076656874 1.000000000
v 0.529540936 0.003511135 0.000000000
v 0.478034496 0.127858877 0.000000000
v 0.478034496 0.127858877 1.000000000
v 0.530995293 0.000000000 1.000000000
v 0.530995293 0.000000000 0.000000000
v 0.324974866 0.377629481 1.000000000
v 0.366342333 0.310123913 0.000000000
v 0.296017647 0.424883366 0.000000000
v 0.296017647 0.424883366 1.000000000
v 0.105769832 0.647634955 1.000000000
v 0.157188159 0.587431824 0.000000000
v 0.069777012 0.689777136 0.000000000
v 0.069777012 0.689777136 1.000000000
v 0.000000000 0.749372383 0.000000000
v 0.000000000 0.749372383 1.000000000
v 0.000000000 0.801515736 0.945000172
v 0.000000000 0.814924038 0.945000172
v 0.105132580 0.725132465 0.945000172
v 0.336468697 0.454272509 0.945000172
v 0.522584915 0.150558472 0.945000172
v 0.571504307 0.000000000 0.945000172
v 0.584948252 0.000000000 0.945000172
v 0.000000000 0.673143387 0.945000172
v 0.000000000 0.000000000 0.945000172
v 0.000000000 0.067789151 0.945000172
v 0.000000000 0.416828732 0.945000172
v 0.584948252 0.000000000 1.000000000
v 0.522584915 0.150558472 1.000000000
v 0.429526806 0.302415490 1.000000000
v 0.336468697 0.454272509 1.000000000
v 0.220800638 0.589702487 1.000000000
v 0.105132580 0.725132465 1.000000000
v 0.000000000 0.814924038 0.987695805
v 0.000000000 0.814924038 1.000000000
vt 0.500000000 0.500000000
vn 0.923879747 0.382682914 0.000000000
vn 0.852640153 0.522498583 0.000000000
vn 0.760405991 0.649448019 0.000000000
vn 0.649448357 0.760405702 -0.000000000
vn 0.000000000 0.000000000 -1.000000000
vn 0.923879585 0.382683305 0.000000000
vn 0.852640143 0.522498600 0.000000000
vn 0.760406161 0.649447820 0.000000000
vn 0.649447489 0.760406443 0.000000000
usemtl mat_4
f 1/1/1 2/1/1 3/1/1 4/1/1
f 5/1/1 6/1/1 2/1/1 1/1/1
f 7/1/2 8/1/2 9/1/2 10/1/2
f 4/1/2 3/1/2 8/1/2 7/1/2
f 11/1/3 12/1/3 13/1/3 14/1/3
f 10/1/3 9/1/3 12/1/3 11/1/3
f 14/1/4 13/1/4 15/1/4 16/1/4
usemtl mat_1
f 17/1/5 18/1/5 19/1/5
f 19/1/5 20/1/5 21/1/5
f 22/1/5 21/1/5 23/1/5
f 24/1/5 17/1/5 19/1/5 21/1/5
f 25/1/5 26/1/5 21/1/5 22/1/5
f 27/1/5 24/1/5 21/1/5
f 26/1/5 27/1/5 21/1/5
f 28/1/6 23/1/6 21/1/6 29/1/6
f 30/1/7 21/1/7 20/1/7 31/1/7
f 29/1/7 21/1/7 30/1/7
f 32/1/8 20/1/8 19/1/8 33/1/8
f 31/1/8 20/1/8 32/1/8
f 34/1/9 19/1/9 18/1/9
f 33/1/9 19/1/9 34/1/9 35/1/9
