# Authored in Blender; exported by tools-export-modern.py
mtllib materials.mtl
s off
v 0.500000000 0.079999998 0.219999999
v 0.554625273 0.079999998 0.225380123
v 0.607151389 0.079999998 0.241313726
v 0.655559659 0.079999998 0.267188519
v 0.697989881 0.079999998 0.302010119
v 0.732811451 0.079999998 0.344440341
v 0.758686304 0.079999998 0.392848641
v 0.774619877 0.079999998 0.445374697
v 0.779999971 0.079999998 0.500000000
v 0.774619877 0.079999998 0.554625273
v 0.758686304 0.079999998 0.607151389
v 0.732811451 0.079999998 0.655559659
v 0.697989881 0.079999998 0.697989881
v 0.655559659 0.079999998 0.732811451
v 0.607151389 0.079999998 0.758686304
v 0.554625273 0.079999998 0.774619877
v 0.500000000 0.079999998 0.779999971
v 0.445374697 0.079999998 0.774619877
v 0.392848641 0.079999998 0.758686304
v 0.344440341 0.079999998 0.732811451
v 0.302010119 0.079999998 0.697989881
v 0.267188519 0.079999998 0.655559659
v 0.241313726 0.079999998 0.607151389
v 0.225380123 0.079999998 0.554625273
v 0.219999999 0.079999998 0.500000000
v 0.225380123 0.079999998 0.445374697
v 0.241313726 0.079999998 0.392848641
v 0.267188519 0.079999998 0.344440341
v 0.302010119 0.079999998 0.302010119
v 0.344440341 0.079999998 0.267188519
v 0.392848641 0.079999998 0.241313726
v 0.445374697 0.079999998 0.225380123
v 0.554625273 0.829999983 0.225380123
v 0.500000000 0.829999983 0.219999999
v 0.445374697 0.829999983 0.225380123
v 0.392848641 0.829999983 0.241313726
v 0.344440341 0.829999983 0.267188519
v 0.302010119 0.829999983 0.302010119
v 0.267188519 0.829999983 0.344440341
v 0.241313726 0.829999983 0.392848641
v 0.225380123 0.829999983 0.445374697
v 0.219999999 0.829999983 0.500000000
v 0.225380123 0.829999983 0.554625273
v 0.241313726 0.829999983 0.607151389
v 0.267188519 0.829999983 0.655559659
v 0.302010119 0.829999983 0.697989881
v 0.344440341 0.829999983 0.732811451
v 0.392848641 0.829999983 0.758686304
v 0.445374697 0.829999983 0.774619877
v 0.500000000 0.829999983 0.779999971
v 0.554625273 0.829999983 0.774619877
v 0.607151389 0.829999983 0.758686304
v 0.655559659 0.829999983 0.732811451
v 0.697989881 0.829999983 0.697989881
v 0.732811451 0.829999983 0.655559659
v 0.758686304 0.829999983 0.607151389
v 0.774619877 0.829999983 0.554625273
v 0.779999971 0.829999983 0.500000000
v 0.774619877 0.829999983 0.445374697
v 0.758686304 0.829999983 0.392848641
v 0.732811451 0.829999983 0.344440341
v 0.697989881 0.829999983 0.302010119
v 0.655559659 0.829999983 0.267188519
v 0.607151389 0.829999983 0.241313726
v 0.500000000 0.079999998 0.210000008
v 0.443423808 0.079999998 0.215572298
v 0.443423808 0.125000000 0.215572298
v 0.500000000 0.125000000 0.210000008
v 0.389021814 0.079999998 0.232074946
v 0.389021814 0.125000000 0.232074946
v 0.338884652 0.079999998 0.258873820
v 0.338884652 0.125000000 0.258873820
v 0.294939041 0.079999998 0.294939041
v 0.294939041 0.125000000 0.294939041
v 0.258873820 0.079999998 0.338884652
v 0.258873820 0.125000000 0.338884652
v 0.232074946 0.079999998 0.389021814
v 0.232074946 0.125000000 0.389021814
v 0.215572298 0.079999998 0.443423808
v 0.215572298 0.125000000 0.443423808
v 0.210000008 0.079999998 0.500000000
v 0.210000008 0.125000000 0.500000000
v 0.215572298 0.079999998 0.556576192
v 0.215572298 0.125000000 0.556576192
v 0.232074946 0.079999998 0.610978186
v 0.232074946 0.125000000 0.610978186
v 0.258873820 0.079999998 0.661115348
v 0.258873820 0.125000000 0.661115348
v 0.294939041 0.079999998 0.705060959
v 0.294939041 0.125000000 0.705060959
v 0.338884652 0.079999998 0.741126180
v 0.338884652 0.125000000 0.741126180
v 0.389021814 0.079999998 0.767925024
v 0.389021814 0.125000000 0.767925024
v 0.443423808 0.079999998 0.784427702
v 0.443423808 0.125000000 0.784427702
v 0.500000000 0.079999998 0.789999962
v 0.500000000 0.125000000 0.789999962
v 0.556576192 0.079999998 0.784427702
v 0.556576192 0.125000000 0.784427702
v 0.610978186 0.079999998 0.767925024
v 0.610978186 0.125000000 0.767925024
v 0.661115348 0.079999998 0.741126180
v 0.661115348 0.125000000 0.741126180
v 0.705060959 0.079999998 0.705060959
v 0.705060959 0.125000000 0.705060959
v 0.741126180 0.079999998 0.661115348
v 0.741126180 0.125000000 0.661115348
v 0.767925024 0.079999998 0.610978186
v 0.767925024 0.125000000 0.610978186
v 0.784427702 0.079999998 0.556576192
v 0.784427702 0.125000000 0.556576192
v 0.789999962 0.079999998 0.500000000
v 0.789999962 0.125000000 0.500000000
v 0.784427702 0.079999998 0.443423808
v 0.784427702 0.125000000 0.443423808
v 0.767925024 0.079999998 0.389021814
v 0.767925024 0.125000000 0.389021814
v 0.741126180 0.079999998 0.338884652
v 0.741126180 0.125000000 0.338884652
v 0.705060959 0.079999998 0.294939041
v 0.705060959 0.125000000 0.294939041
v 0.661115348 0.079999998 0.258873820
v 0.661115348 0.125000000 0.258873820
v 0.610978186 0.079999998 0.232074946
v 0.610978186 0.125000000 0.232074946
v 0.556576192 0.079999998 0.215572298
v 0.556576192 0.125000000 0.215572298
v 0.449276507 0.125000000 0.244995832
v 0.500000000 0.125000000 0.240000010
v 0.400502324 0.125000000 0.259791344
v 0.355551720 0.125000000 0.283817917
v 0.316152245 0.125000000 0.316152245
v 0.283817917 0.125000000 0.355551720
v 0.259791344 0.125000000 0.400502324
v 0.244995832 0.125000000 0.449276507
v 0.240000010 0.125000000 0.500000000
v 0.244995832 0.125000000 0.550723493
v 0.259791344 0.125000000 0.599497676
v 0.283817917 0.125000000 0.644448280
v 0.316152245 0.125000000 0.683847785
v 0.355551720 0.125000000 0.716182113
v 0.400502324 0.125000000 0.740208626
v 0.449276507 0.125000000 0.755004168
v 0.500000000 0.125000000 0.759999990
v 0.550723493 0.125000000 0.755004168
v 0.599497676 0.125000000 0.740208626
v 0.644448280 0.125000000 0.716182113
v 0.683847785 0.125000000 0.683847785
v 0.716182113 0.125000000 0.644448280
v 0.740208626 0.125000000 0.599497676
v 0.755004168 0.125000000 0.550723493
v 0.759999990 0.125000000 0.500000000
v 0.755004168 0.125000000 0.449276507
v 0.740208626 0.125000000 0.400502324
v 0.716182113 0.125000000 0.355551720
v 0.683847785 0.125000000 0.316152245
v 0.644448280 0.125000000 0.283817917
v 0.599497676 0.125000000 0.259791344
v 0.550723493 0.125000000 0.244995832
v 0.449276507 0.079999998 0.244995832
v 0.500000000 0.079999998 0.240000010
v 0.400502324 0.079999998 0.259791344
v 0.355551720 0.079999998 0.283817917
v 0.316152245 0.079999998 0.316152245
v 0.283817917 0.079999998 0.355551720
v 0.259791344 0.079999998 0.400502324
v 0.244995832 0.079999998 0.449276507
v 0.240000010 0.079999998 0.500000000
v 0.244995832 0.079999998 0.550723493
v 0.259791344 0.079999998 0.599497676
v 0.283817917 0.079999998 0.644448280
v 0.316152245 0.079999998 0.683847785
v 0.355551720 0.079999998 0.716182113
v 0.400502324 0.079999998 0.740208626
v 0.449276507 0.079999998 0.755004168
v 0.500000000 0.079999998 0.759999990
v 0.550723493 0.079999998 0.755004168
v 0.599497676 0.079999998 0.740208626
v 0.644448280 0.079999998 0.716182113
v 0.683847785 0.079999998 0.683847785
v 0.716182113 0.079999998 0.644448280
v 0.740208626 0.079999998 0.599497676
v 0.755004168 0.079999998 0.550723493
v 0.759999990 0.079999998 0.500000000
v 0.755004168 0.079999998 0.449276507
v 0.740208626 0.079999998 0.400502324
v 0.716182113 0.079999998 0.355551720
v 0.683847785 0.079999998 0.316152245
v 0.644448280 0.079999998 0.283817917
v 0.599497676 0.079999998 0.259791344
v 0.550723493 0.079999998 0.244995832
v 0.500000000 0.800000012 0.210000008
v 0.443423808 0.800000012 0.215572298
v 0.443423808 0.845000029 0.215572298
v 0.500000000 0.845000029 0.210000008
v 0.389021814 0.800000012 0.232074946
v 0.389021814 0.845000029 0.232074946
v 0.338884652 0.800000012 0.258873820
v 0.338884652 0.845000029 0.258873820
v 0.294939041 0.800000012 0.294939041
v 0.294939041 0.845000029 0.294939041
v 0.258873820 0.800000012 0.338884652
v 0.258873820 0.845000029 0.338884652
v 0.232074946 0.800000012 0.389021814
v 0.232074946 0.845000029 0.389021814
v 0.215572298 0.800000012 0.443423808
v 0.215572298 0.845000029 0.443423808
v 0.210000008 0.800000012 0.500000000
v 0.210000008 0.845000029 0.500000000
v 0.215572298 0.800000012 0.556576192
v 0.215572298 0.845000029 0.556576192
v 0.232074946 0.800000012 0.610978186
v 0.232074946 0.845000029 0.610978186
v 0.258873820 0.800000012 0.661115348
v 0.258873820 0.845000029 0.661115348
v 0.294939041 0.800000012 0.705060959
v 0.294939041 0.845000029 0.705060959
v 0.338884652 0.800000012 0.741126180
v 0.338884652 0.845000029 0.741126180
v 0.389021814 0.800000012 0.767925024
v 0.389021814 0.845000029 0.767925024
v 0.443423808 0.800000012 0.784427702
v 0.443423808 0.845000029 0.784427702
v 0.500000000 0.800000012 0.789999962
v 0.500000000 0.845000029 0.789999962
v 0.556576192 0.800000012 0.784427702
v 0.556576192 0.845000029 0.784427702
v 0.610978186 0.800000012 0.767925024
v 0.610978186 0.845000029 0.767925024
v 0.661115348 0.800000012 0.741126180
v 0.661115348 0.845000029 0.741126180
v 0.705060959 0.800000012 0.705060959
v 0.705060959 0.845000029 0.705060959
v 0.741126180 0.800000012 0.661115348
v 0.741126180 0.845000029 0.661115348
v 0.767925024 0.800000012 0.610978186
v 0.767925024 0.845000029 0.610978186
v 0.784427702 0.800000012 0.556576192
v 0.784427702 0.845000029 0.556576192
v 0.789999962 0.800000012 0.500000000
v 0.789999962 0.845000029 0.500000000
v 0.784427702 0.800000012 0.443423808
v 0.784427702 0.845000029 0.443423808
v 0.767925024 0.800000012 0.389021814
v 0.767925024 0.845000029 0.389021814
v 0.741126180 0.800000012 0.338884652
v 0.741126180 0.845000029 0.338884652
v 0.705060959 0.800000012 0.294939041
v 0.705060959 0.845000029 0.294939041
v 0.661115348 0.800000012 0.258873820
v 0.661115348 0.845000029 0.258873820
v 0.610978186 0.800000012 0.232074946
v 0.610978186 0.845000029 0.232074946
v 0.556576192 0.800000012 0.215572298
v 0.556576192 0.845000029 0.215572298
v 0.449276507 0.845000029 0.244995832
v 0.500000000 0.845000029 0.240000010
v 0.400502324 0.845000029 0.259791344
v 0.355551720 0.845000029 0.283817917
v 0.316152245 0.845000029 0.316152245
v 0.283817917 0.845000029 0.355551720
v 0.259791344 0.845000029 0.400502324
v 0.244995832 0.845000029 0.449276507
v 0.240000010 0.845000029 0.500000000
v 0.244995832 0.845000029 0.550723493
v 0.259791344 0.845000029 0.599497676
v 0.283817917 0.845000029 0.644448280
v 0.316152245 0.845000029 0.683847785
v 0.355551720 0.845000029 0.716182113
v 0.400502324 0.845000029 0.740208626
v 0.449276507 0.845000029 0.755004168
v 0.500000000 0.845000029 0.759999990
v 0.550723493 0.845000029 0.755004168
v 0.599497676 0.845000029 0.740208626
v 0.644448280 0.845000029 0.716182113
v 0.683847785 0.845000029 0.683847785
v 0.716182113 0.845000029 0.644448280
v 0.740208626 0.845000029 0.599497676
v 0.755004168 0.845000029 0.550723493
v 0.759999990 0.845000029 0.500000000
v 0.755004168 0.845000029 0.449276507
v 0.740208626 0.845000029 0.400502324
v 0.716182113 0.845000029 0.355551720
v 0.683847785 0.845000029 0.316152245
v 0.644448280 0.845000029 0.283817917
v 0.599497676 0.845000029 0.259791344
v 0.550723493 0.845000029 0.244995832
v 0.449276507 0.800000012 0.244995832
v 0.500000000 0.800000012 0.240000010
v 0.400502324 0.800000012 0.259791344
v 0.355551720 0.800000012 0.283817917
v 0.316152245 0.800000012 0.316152245
v 0.283817917 0.800000012 0.355551720
v 0.259791344 0.800000012 0.400502324
v 0.244995832 0.800000012 0.449276507
v 0.240000010 0.800000012 0.500000000
v 0.244995832 0.800000012 0.550723493
v 0.259791344 0.800000012 0.599497676
v 0.283817917 0.800000012 0.644448280
v 0.316152245 0.800000012 0.683847785
v 0.355551720 0.800000012 0.716182113
v 0.400502324 0.800000012 0.740208626
v 0.449276507 0.800000012 0.755004168
v 0.500000000 0.800000012 0.759999990
v 0.550723493 0.800000012 0.755004168
v 0.599497676 0.800000012 0.740208626
v 0.644448280 0.800000012 0.716182113
v 0.683847785 0.800000012 0.683847785
v 0.716182113 0.800000012 0.644448280
v 0.740208626 0.800000012 0.599497676
v 0.755004168 0.800000012 0.550723493
v 0.759999990 0.800000012 0.500000000
v 0.755004168 0.800000012 0.449276507
v 0.740208626 0.800000012 0.400502324
v 0.716182113 0.800000012 0.355551720
v 0.683847785 0.800000012 0.316152245
v 0.644448280 0.800000012 0.283817917
v 0.599497676 0.800000012 0.259791344
v 0.550723493 0.800000012 0.244995832
v 0.500000000 0.829999983 0.224999994
v 0.553649843 0.829999983 0.230284065
v 0.605237961 0.829999983 0.245933145
v 0.652781844 0.829999983 0.271345854
v 0.694454372 0.829999983 0.305545628
v 0.728654146 0.829999983 0.347218186
v 0.754066825 0.829999983 0.394762039
v 0.769715905 0.829999983 0.446350157
v 0.774999976 0.829999983 0.500000000
v 0.769715905 0.829999983 0.553649843
v 0.754066825 0.829999983 0.605237961
v 0.728654146 0.829999983 0.652781844
v 0.694454372 0.829999983 0.694454372
v 0.652781844 0.829999983 0.728654146
v 0.605237961 0.829999983 0.754066825
v 0.553649843 0.829999983 0.769715905
v 0.500000000 0.829999983 0.774999976
v 0.446350157 0.829999983 0.769715905
v 0.394762039 0.829999983 0.754066825
v 0.347218186 0.829999983 0.728654146
v 0.305545628 0.829999983 0.694454372
v 0.271345854 0.829999983 0.652781844
v 0.245933145 0.829999983 0.605237961
v 0.230284065 0.829999983 0.553649843
v 0.224999994 0.829999983 0.500000000
v 0.230284065 0.829999983 0.446350157
v 0.245933145 0.829999983 0.394762039
v 0.271345854 0.829999983 0.347218186
v 0.305545628 0.829999983 0.305545628
v 0.347218186 0.829999983 0.271345854
v 0.394762039 0.829999983 0.245933145
v 0.446350157 0.829999983 0.230284065
v 0.553649843 0.870000005 0.230284065
v 0.500000000 0.870000005 0.224999994
v 0.446350157 0.870000005 0.230284065
v 0.394762039 0.870000005 0.245933145
v 0.347218186 0.870000005 0.271345854
v 0.305545628 0.870000005 0.305545628
v 0.271345854 0.870000005 0.347218186
v 0.245933145 0.870000005 0.394762039
v 0.230284065 0.870000005 0.446350157
v 0.224999994 0.870000005 0.500000000
v 0.230284065 0.870000005 0.553649843
v 0.245933145 0.870000005 0.605237961
v 0.271345854 0.870000005 0.652781844
v 0.305545628 0.870000005 0.694454372
v 0.347218186 0.870000005 0.728654146
v 0.394762039 0.870000005 0.754066825
v 0.446350157 0.870000005 0.769715905
v 0.500000000 0.870000005 0.774999976
v 0.553649843 0.870000005 0.769715905
v 0.605237961 0.870000005 0.754066825
v 0.652781844 0.870000005 0.728654146
v 0.694454372 0.870000005 0.694454372
v 0.728654146 0.870000005 0.652781844
v 0.754066825 0.870000005 0.605237961
v 0.769715905 0.870000005 0.553649843
v 0.774999976 0.870000005 0.500000000
v 0.769715905 0.870000005 0.446350157
v 0.754066825 0.870000005 0.394762039
v 0.728654146 0.870000005 0.347218186
v 0.694454372 0.870000005 0.305545628
v 0.652781844 0.870000005 0.271345854
v 0.605237961 0.870000005 0.245933145
v 0.340000004 0.860000014 0.483999997
v 0.328686297 0.860000014 0.488686293
v 0.336625397 0.970798671 0.488686293
v 0.340000004 0.959999979 0.483999997
v 0.324000001 0.860000014 0.500000000
v 0.335227609 0.975271642 0.500000000
v 0.328686297 0.860000014 0.511313736
v 0.336625397 0.970798671 0.511313736
v 0.340000004 0.860000014 0.515999973
v 0.340000004 0.959999979 0.515999973
v 0.351313710 0.860000014 0.511313736
v 0.343374610 0.949201286 0.511313736
v 0.356000006 0.860000014 0.500000000
v 0.344772398 0.944728315 0.500000000
v 0.351313710 0.860000014 0.488686293
v 0.343374610 0.949201286 0.488686293
v 0.663374603 0.970798671 0.488686293
v 0.660000026 0.959999979 0.483999997
v 0.664772451 0.975271642 0.500000000
v 0.663374603 0.970798671 0.511313736
v 0.660000026 0.959999979 0.515999973
v 0.656625450 0.949201286 0.511313736
v 0.655227602 0.944728315 0.500000000
v 0.656625450 0.949201286 0.488686293
v 0.671313763 0.860000014 0.488686293
v 0.660000026 0.860000014 0.483999997
v 0.675999999 0.860000014 0.500000000
v 0.671313763 0.860000014 0.511313736
v 0.660000026 0.860000014 0.515999973
v 0.648686290 0.860000014 0.511313736
v 0.644000053 0.860000014 0.500000000
v 0.648686290 0.860000014 0.488686293
v 0.319999993 0.280000001 0.209000006
v 0.319999993 0.639999986 0.209000006
v 0.680000007 0.639999986 0.209000006
v 0.680000007 0.280000001 0.209000006
v 0.319999993 0.280000001 0.239999995
v 0.680000007 0.280000001 0.239999995
v 0.680000007 0.639999986 0.239999995
v 0.319999993 0.639999986 0.239999995
vt 0.500000000 0.500000000
vn 0.000000000 -1.000000000 0.000000000
vn 0.000000000 1.000000000 0.000000000
vn -0.098017161 0.000000000 -0.995184725
vn -0.290284643 0.000000000 -0.956940346
vn -0.471396996 0.000000000 -0.881921126
vn -0.634393463 0.000000000 -0.773010307
vn -0.773010307 0.000000000 -0.634393463
vn -0.881921126 0.000000000 -0.471396996
vn -0.956940346 0.000000000 -0.290284643
vn -0.995184725 0.000000000 -0.098017161
vn -0.995184719 0.000000000 0.098017214
vn -0.956940438 0.000000000 0.290284341
vn -0.881921005 0.000000000 0.471397222
vn -0.773010307 0.000000000 0.634393463
vn -0.634393138 0.000000000 0.773010573
vn -0.471397840 0.000000000 0.881920674
vn -0.290284145 0.000000000 0.956940497
vn -0.098016623 0.000000000 0.995184778
vn 0.098016676 0.000000000 0.995184772
vn 0.290283844 0.000000000 0.956940589
vn 0.471398066 0.000000000 0.881920554
vn 0.634393138 0.000000000 0.773010573
vn 0.773010573 0.000000000 0.634393138
vn 0.881920554 0.000000000 0.471398066
vn 0.956940589 0.000000000 0.290283844
vn 0.995184772 0.000000000 0.098016676
vn 0.995184778 0.000000000 -0.098016623
vn 0.956940497 0.000000000 -0.290284145
vn 0.881920674 0.000000000 -0.471397840
vn 0.773010573 0.000000000 -0.634393138
vn 0.634393463 0.000000000 -0.773010307
vn 0.471397222 0.000000000 -0.881921005
vn 0.290284341 0.000000000 -0.956940438
vn 0.098017214 0.000000000 -0.995184719
vn -0.098017500 0.000000000 -0.995184691
vn -0.290284423 0.000000000 -0.956940413
vn -0.471396773 0.000000000 -0.881921245
vn -0.634393182 0.000000000 -0.773010537
vn -0.773010537 0.000000000 -0.634393182
vn -0.881921245 0.000000000 -0.471396773
vn -0.956940413 0.000000000 -0.290284423
vn -0.995184691 0.000000000 -0.098017500
vn -0.995184691 0.000000000 0.098017500
vn -0.956940413 0.000000000 0.290284423
vn -0.881921245 0.000000000 0.471396773
vn -0.773010537 0.000000000 0.634393182
vn -0.634393182 0.000000000 0.773010537
vn -0.471396365 0.000000000 0.881921463
vn -0.290284903 0.000000000 0.956940267
vn -0.098016981 0.000000000 0.995184742
vn 0.098016981 0.000000000 0.995184742
vn 0.290284903 0.000000000 0.956940267
vn 0.471396365 0.000000000 0.881921463
vn 0.634393182 0.000000000 0.773010537
vn 0.773010537 0.000000000 0.634393182
vn 0.881921463 0.000000000 0.471396365
vn 0.956940267 0.000000000 0.290284903
vn 0.995184742 0.000000000 0.098016981
vn 0.995184742 0.000000000 -0.098016981
vn 0.956940267 0.000000000 -0.290284903
vn 0.881921463 0.000000000 -0.471396365
vn 0.773010537 0.000000000 -0.634393182
vn 0.634393182 0.000000000 -0.773010537
vn 0.471396773 0.000000000 -0.881921245
vn 0.290284423 0.000000000 -0.956940413
vn 0.098017500 0.000000000 -0.995184691
vn 0.098017041 0.000000000 0.995184736
vn 0.290285133 0.000000000 0.956940197
vn 0.471396341 0.000000000 0.881921476
vn 0.634393452 0.000000000 0.773010316
vn 0.773010316 0.000000000 0.634393452
vn 0.881921476 0.000000000 0.471396341
vn 0.956940197 0.000000000 0.290285133
vn 0.995184736 0.000000000 0.098017041
vn 0.995184736 0.000000000 -0.098017041
vn 0.956940197 0.000000000 -0.290285133
vn 0.881921476 0.000000000 -0.471396341
vn 0.773010551 0.000000000 -0.634393165
vn 0.634393452 0.000000000 -0.773010316
vn 0.471395431 0.000000000 -0.881921962
vn 0.290285668 0.000000000 -0.956940035
vn 0.098017041 0.000000000 -0.995184736
vn -0.098017041 0.000000000 -0.995184736
vn -0.290285668 0.000000000 -0.956940035
vn -0.471395431 0.000000000 -0.881921962
vn -0.634393165 0.000000000 -0.773010551
vn -0.773010551 0.000000000 -0.634393165
vn -0.881921962 0.000000000 -0.471395431
vn -0.956940035 0.000000000 -0.290285668
vn -0.995184736 0.000000000 -0.098017041
vn -0.995184736 0.000000000 0.098017041
vn -0.956940035 0.000000000 0.290285668
vn -0.881921962 0.000000000 0.471395431
vn -0.773010316 0.000000000 0.634393452
vn -0.634393165 0.000000000 0.773010551
vn -0.471396341 0.000000000 0.881921476
vn -0.290285133 0.000000000 0.956940197
vn -0.098017041 0.000000000 0.995184736
vn -0.098017557 0.000000000 -0.995184686
vn -0.290284605 0.000000000 -0.956940358
vn -0.471396583 0.000000000 -0.881921346
vn -0.634393174 0.000000000 -0.773010544
vn -0.773010544 0.000000000 -0.634393174
vn -0.881921346 0.000000000 -0.471396583
vn -0.956940358 0.000000000 -0.290284605
vn -0.995184686 0.000000000 -0.098017557
vn -0.995184686 0.000000000 0.098017557
vn -0.956940358 0.000000000 0.290284605
vn -0.881921469 0.000000000 0.471396354
vn -0.773010321 0.000000000 0.634393445
vn -0.634393174 0.000000000 0.773010544
vn -0.471396153 0.000000000 0.881921576
vn -0.290284605 0.000000000 0.956940358
vn -0.098017557 0.000000000 0.995184686
vn 0.098017557 0.000000000 0.995184686
vn 0.290284605 0.000000000 0.956940358
vn 0.471395924 0.000000000 0.881921699
vn 0.634393445 0.000000000 0.773010321
vn 0.773010321 0.000000000 0.634393445
vn 0.881921699 0.000000000 0.471395924
vn 0.956940358 0.000000000 0.290284605
vn 0.995184686 0.000000000 0.098017557
vn 0.995184686 0.000000000 -0.098017557
vn 0.956940358 0.000000000 -0.290284605
vn 0.881921576 0.000000000 -0.471396153
vn 0.773010544 0.000000000 -0.634393174
vn 0.634393445 0.000000000 -0.773010321
vn 0.471396354 0.000000000 -0.881921469
vn 0.290284605 0.000000000 -0.956940358
vn 0.098017557 0.000000000 -0.995184686
vn -0.382540012 0.027410292 -0.923532249
vn -0.811495480 0.000000000 -0.584358697
vn -0.920161310 0.089624918 -0.381143722
vn -0.986190973 0.070663934 -0.149779750
vn -0.921861996 0.066054545 0.381847164
vn -0.982590786 0.095705631 0.159234983
vn -0.382679644 0.000000000 0.923881102
vn -0.747694968 0.053574885 0.661877607
vn 0.382457876 0.034039553 0.923345700
vn 0.811491955 -0.000000000 0.584363591
vn 0.917032978 0.121518861 0.379846922
vn 0.992227120 0.088310295 0.087673449
vn 0.920771812 0.081950623 -0.381396600
vn 0.988876788 0.131039105 -0.070366551
vn 0.382683799 0.000000000 -0.923879381
vn 0.886254944 0.078878549 -0.456432196
vn 0.000000000 0.398098183 -0.917342813
vn 0.000000000 0.929957623 -0.367666723
vn 0.000000000 0.929957954 0.367665885
vn 0.000000000 0.398093922 0.917344662
vn 0.000000000 -0.398093922 0.917344662
vn 0.000000000 -0.929957954 0.367665885
vn 0.000000000 -0.929957623 -0.367666723
vn 0.000000000 -0.398098183 -0.917342813
vn 0.747701012 0.053575720 -0.661870711
vn 0.382682938 0.000000000 -0.923879737
vn 0.982589989 0.095705045 -0.159240250
vn 0.921863322 0.066055135 -0.381843862
vn 0.986190196 0.070664409 0.149784643
vn 0.920163402 0.089624646 0.381138736
vn 0.811494402 0.000000000 0.584360193
vn 0.382535001 0.027410138 0.923534329
vn -0.886255386 0.078879180 0.456431228
vn -0.382678784 0.000000000 0.923881458
vn -0.988876509 0.131038372 0.070371831
vn -0.920773821 0.081951417 0.381391577
vn -0.992226610 0.088310912 -0.087678600
vn -0.917034384 0.121518402 -0.379843674
vn -0.811497927 0.000000000 -0.584355298
vn -0.382461161 0.034040101 -0.923344319
vn 0.000000000 0.000000000 -1.000000000
vn 0.000000000 0.000000000 1.000000000
vn -1.000000000 0.000000000 0.000000000
vn 1.000000000 0.000000000 0.000000000
usemtl mat_0
f 1/1/1 2/1/1 3/1/1
f 3/1/1 4/1/1 5/1/1
f 5/1/1 6/1/1 7/1/1
f 7/1/1 8/1/1 9/1/1
f 9/1/1 10/1/1 11/1/1
f 11/1/1 12/1/1 13/1/1
f 13/1/1 14/1/1 15/1/1
f 15/1/1 16/1/1 17/1/1
f 17/1/1 18/1/1 19/1/1
f 19/1/1 20/1/1 21/1/1
f 21/1/1 22/1/1 23/1/1
f 23/1/1 24/1/1 25/1/1
f 25/1/1 26/1/1 27/1/1
f 27/1/1 28/1/1 29/1/1
f 29/1/1 30/1/1 31/1/1
f 31/1/1 32/1/1 1/1/1
f 1/1/1 3/1/1 5/1/1
f 5/1/1 7/1/1 9/1/1
f 9/1/1 11/1/1 13/1/1
f 13/1/1 15/1/1 17/1/1
f 17/1/1 19/1/1 21/1/1
f 21/1/1 23/1/1 25/1/1
f 25/1/1 27/1/1 29/1/1
f 29/1/1 31/1/1 1/1/1
f 1/1/1 5/1/1 9/1/1
f 9/1/1 13/1/1 17/1/1
f 17/1/1 21/1/1 25/1/1
f 25/1/1 29/1/1 1/1/1
f 1/1/1 9/1/1 17/1/1
f 17/1/1 25/1/1 1/1/1
f 33/1/2 34/1/2 35/1/2
f 35/1/2 36/1/2 37/1/2
f 37/1/2 38/1/2 39/1/2
f 39/1/2 40/1/2 41/1/2
f 41/1/2 42/1/2 43/1/2
f 43/1/2 44/1/2 45/1/2
f 45/1/2 46/1/2 47/1/2
f 47/1/2 48/1/2 49/1/2
f 49/1/2 50/1/2 51/1/2
f 51/1/2 52/1/2 53/1/2
f 53/1/2 54/1/2 55/1/2
f 55/1/2 56/1/2 57/1/2
f 57/1/2 58/1/2 59/1/2
f 59/1/2 60/1/2 61/1/2
f 61/1/2 62/1/2 63/1/2
f 63/1/2 64/1/2 33/1/2
f 33/1/2 35/1/2 37/1/2
f 37/1/2 39/1/2 41/1/2
f 41/1/2 43/1/2 45/1/2
f 45/1/2 47/1/2 49/1/2
f 49/1/2 51/1/2 53/1/2
f 53/1/2 55/1/2 57/1/2
f 57/1/2 59/1/2 61/1/2
f 61/1/2 63/1/2 33/1/2
f 33/1/2 37/1/2 41/1/2
f 41/1/2 45/1/2 49/1/2
f 49/1/2 53/1/2 57/1/2
f 57/1/2 61/1/2 33/1/2
f 33/1/2 41/1/2 49/1/2
f 49/1/2 57/1/2 33/1/2
f 1/1/3 32/1/3 35/1/3
f 1/1/3 35/1/3 34/1/3
f 32/1/4 31/1/4 36/1/4
f 32/1/4 36/1/4 35/1/4
f 31/1/5 30/1/5 37/1/5
f 31/1/5 37/1/5 36/1/5
f 30/1/6 29/1/6 38/1/6
f 30/1/6 38/1/6 37/1/6
f 29/1/7 28/1/7 39/1/7
f 29/1/7 39/1/7 38/1/7
f 28/1/8 27/1/8 40/1/8
f 28/1/8 40/1/8 39/1/8
f 27/1/9 26/1/9 41/1/9
f 27/1/9 41/1/9 40/1/9
f 26/1/10 25/1/10 42/1/10
f 26/1/10 42/1/10 41/1/10
f 25/1/11 24/1/11 43/1/11
f 25/1/11 43/1/11 42/1/11
f 24/1/12 23/1/12 44/1/12
f 24/1/12 44/1/12 43/1/12
f 23/1/13 22/1/13 45/1/13
f 23/1/13 45/1/13 44/1/13
f 22/1/14 21/1/14 46/1/14
f 22/1/14 46/1/14 45/1/14
f 21/1/15 20/1/15 47/1/15
f 21/1/15 47/1/15 46/1/15
f 20/1/16 19/1/16 48/1/16
f 20/1/16 48/1/16 47/1/16
f 19/1/17 18/1/17 49/1/17
f 19/1/17 49/1/17 48/1/17
f 18/1/18 17/1/18 50/1/18
f 18/1/18 50/1/18 49/1/18
f 17/1/19 16/1/19 51/1/19
f 17/1/19 51/1/19 50/1/19
f 16/1/20 15/1/20 52/1/20
f 16/1/20 52/1/20 51/1/20
f 15/1/21 14/1/21 53/1/21
f 15/1/21 53/1/21 52/1/21
f 14/1/22 13/1/22 54/1/22
f 14/1/22 54/1/22 53/1/22
f 13/1/23 12/1/23 55/1/23
f 13/1/23 55/1/23 54/1/23
f 12/1/24 11/1/24 56/1/24
f 12/1/24 56/1/24 55/1/24
f 11/1/25 10/1/25 57/1/25
f 11/1/25 57/1/25 56/1/25
f 10/1/26 9/1/26 58/1/26
f 10/1/26 58/1/26 57/1/26
f 9/1/27 8/1/27 59/1/27
f 9/1/27 59/1/27 58/1/27
f 8/1/28 7/1/28 60/1/28
f 8/1/28 60/1/28 59/1/28
f 7/1/29 6/1/29 61/1/29
f 7/1/29 61/1/29 60/1/29
f 6/1/30 5/1/30 62/1/30
f 6/1/30 62/1/30 61/1/30
f 5/1/31 4/1/31 63/1/31
f 5/1/31 63/1/31 62/1/31
f 4/1/32 3/1/32 64/1/32
f 4/1/32 64/1/32 63/1/32
f 3/1/33 2/1/33 33/1/33
f 3/1/33 33/1/33 64/1/33
f 2/1/34 1/1/34 34/1/34
f 2/1/34 34/1/34 33/1/34
usemtl mat_1
f 65/1/35 66/1/35 67/1/35
f 65/1/35 67/1/35 68/1/35
f 66/1/36 69/1/36 70/1/36
f 66/1/36 70/1/36 67/1/36
f 69/1/37 71/1/37 72/1/37
f 69/1/37 72/1/37 70/1/37
f 71/1/38 73/1/38 74/1/38
f 71/1/38 74/1/38 72/1/38
f 73/1/39 75/1/39 76/1/39
f 73/1/39 76/1/39 74/1/39
f 75/1/40 77/1/40 78/1/40
f 75/1/40 78/1/40 76/1/40
f 77/1/41 79/1/41 80/1/41
f 77/1/41 80/1/41 78/1/41
f 79/1/42 81/1/42 82/1/42
f 79/1/42 82/1/42 80/1/42
f 81/1/43 83/1/43 84/1/43
f 81/1/43 84/1/43 82/1/43
f 83/1/44 85/1/44 86/1/44
f 83/1/44 86/1/44 84/1/44
f 85/1/45 87/1/45 88/1/45
f 85/1/45 88/1/45 86/1/45
f 87/1/46 89/1/46 90/1/46
f 87/1/46 90/1/46 88/1/46
f 89/1/47 91/1/47 92/1/47
f 89/1/47 92/1/47 90/1/47
f 91/1/48 93/1/48 94/1/48
f 91/1/48 94/1/48 92/1/48
f 93/1/49 95/1/49 96/1/49
f 93/1/49 96/1/49 94/1/49
f 95/1/50 97/1/50 98/1/50
f 95/1/50 98/1/50 96/1/50
f 97/1/51 99/1/51 100/1/51
f 97/1/51 100/1/51 98/1/51
f 99/1/52 101/1/52 102/1/52
f 99/1/52 102/1/52 100/1/52
f 101/1/53 103/1/53 104/1/53
f 101/1/53 104/1/53 102/1/53
f 103/1/54 105/1/54 106/1/54
f 103/1/54 106/1/54 104/1/54
f 105/1/55 107/1/55 108/1/55
f 105/1/55 108/1/55 106/1/55
f 107/1/56 109/1/56 110/1/56
f 107/1/56 110/1/56 108/1/56
f 109/1/57 111/1/57 112/1/57
f 109/1/57 112/1/57 110/1/57
f 111/1/58 113/1/58 114/1/58
f 111/1/58 114/1/58 112/1/58
f 113/1/59 115/1/59 116/1/59
f 113/1/59 116/1/59 114/1/59
f 115/1/60 117/1/60 118/1/60
f 115/1/60 118/1/60 116/1/60
f 117/1/61 119/1/61 120/1/61
f 117/1/61 120/1/61 118/1/61
f 119/1/62 121/1/62 122/1/62
f 119/1/62 122/1/62 120/1/62
f 121/1/63 123/1/63 124/1/63
f 121/1/63 124/1/63 122/1/63
f 123/1/64 125/1/64 126/1/64
f 123/1/64 126/1/64 124/1/64
f 125/1/65 127/1/65 128/1/65
f 125/1/65 128/1/65 126/1/65
f 127/1/66 65/1/66 68/1/66
f 127/1/66 68/1/66 128/1/66
f 68/1/2 67/1/2 129/1/2
f 68/1/2 129/1/2 130/1/2
f 67/1/2 70/1/2 131/1/2
f 67/1/2 131/1/2 129/1/2
f 70/1/2 72/1/2 132/1/2
f 70/1/2 132/1/2 131/1/2
f 72/1/2 74/1/2 133/1/2
f 72/1/2 133/1/2 132/1/2
f 74/1/2 76/1/2 134/1/2
f 74/1/2 134/1/2 133/1/2
f 76/1/2 78/1/2 135/1/2
f 76/1/2 135/1/2 134/1/2
f 78/1/2 80/1/2 136/1/2
f 78/1/2 136/1/2 135/1/2
f 80/1/2 82/1/2 137/1/2
f 80/1/2 137/1/2 136/1/2
f 82/1/2 84/1/2 138/1/2
f 82/1/2 138/1/2 137/1/2
f 84/1/2 86/1/2 139/1/2
f 84/1/2 139/1/2 138/1/2
f 86/1/2 88/1/2 140/1/2
f 86/1/2 140/1/2 139/1/2
f 88/1/2 90/1/2 141/1/2
f 88/1/2 141/1/2 140/1/2
f 90/1/2 92/1/2 142/1/2
f 90/1/2 142/1/2 141/1/2
f 92/1/2 94/1/2 143/1/2
f 92/1/2 143/1/2 142/1/2
f 94/1/2 96/1/2 144/1/2
f 94/1/2 144/1/2 143/1/2
f 96/1/2 98/1/2 145/1/2
f 96/1/2 145/1/2 144/1/2
f 98/1/2 100/1/2 146/1/2
f 98/1/2 146/1/2 145/1/2
f 100/1/2 102/1/2 147/1/2
f 100/1/2 147/1/2 146/1/2
f 102/1/2 104/1/2 148/1/2
f 102/1/2 148/1/2 147/1/2
f 104/1/2 106/1/2 149/1/2
f 104/1/2 149/1/2 148/1/2
f 106/1/2 108/1/2 150/1/2
f 106/1/2 150/1/2 149/1/2
f 108/1/2 110/1/2 151/1/2
f 108/1/2 151/1/2 150/1/2
f 110/1/2 112/1/2 152/1/2
f 110/1/2 152/1/2 151/1/2
f 112/1/2 114/1/2 153/1/2
f 112/1/2 153/1/2 152/1/2
f 114/1/2 116/1/2 154/1/2
f 114/1/2 154/1/2 153/1/2
f 116/1/2 118/1/2 155/1/2
f 116/1/2 155/1/2 154/1/2
f 118/1/2 120/1/2 156/1/2
f 118/1/2 156/1/2 155/1/2
f 120/1/2 122/1/2 157/1/2
f 120/1/2 157/1/2 156/1/2
f 122/1/2 124/1/2 158/1/2
f 122/1/2 158/1/2 157/1/2
f 124/1/2 126/1/2 159/1/2
f 124/1/2 159/1/2 158/1/2
f 126/1/2 128/1/2 160/1/2
f 126/1/2 160/1/2 159/1/2
f 128/1/2 68/1/2 130/1/2
f 128/1/2 130/1/2 160/1/2
f 130/1/67 129/1/67 161/1/67
f 130/1/67 161/1/67 162/1/67
f 129/1/68 131/1/68 163/1/68
f 129/1/68 163/1/68 161/1/68
f 131/1/69 132/1/69 164/1/69
f 131/1/69 164/1/69 163/1/69
f 132/1/70 133/1/70 165/1/70
f 132/1/70 165/1/70 164/1/70
f 133/1/71 134/1/71 166/1/71
f 133/1/71 166/1/71 165/1/71
f 134/1/72 135/1/72 167/1/72
f 134/1/72 167/1/72 166/1/72
f 135/1/73 136/1/73 168/1/73
f 135/1/73 168/1/73 167/1/73
f 136/1/74 137/1/74 169/1/74
f 136/1/74 169/1/74 168/1/74
f 137/1/75 138/1/75 170/1/75
f 137/1/75 170/1/75 169/1/75
f 138/1/76 139/1/76 171/1/76
f 138/1/76 171/1/76 170/1/76
f 139/1/77 140/1/77 172/1/77
f 139/1/77 172/1/77 171/1/77
f 140/1/78 141/1/78 173/1/78
f 140/1/78 173/1/78 172/1/78
f 141/1/79 142/1/79 174/1/79
f 141/1/79 174/1/79 173/1/79
f 142/1/80 143/1/80 175/1/80
f 142/1/80 175/1/80 174/1/80
f 143/1/81 144/1/81 176/1/81
f 143/1/81 176/1/81 175/1/81
f 144/1/82 145/1/82 177/1/82
f 144/1/82 177/1/82 176/1/82
f 145/1/83 146/1/83 178/1/83
f 145/1/83 178/1/83 177/1/83
f 146/1/84 147/1/84 179/1/84
f 146/1/84 179/1/84 178/1/84
f 147/1/85 148/1/85 180/1/85
f 147/1/85 180/1/85 179/1/85
f 148/1/86 149/1/86 181/1/86
f 148/1/86 181/1/86 180/1/86
f 149/1/87 150/1/87 182/1/87
f 149/1/87 182/1/87 181/1/87
f 150/1/88 151/1/88 183/1/88
f 150/1/88 183/1/88 182/1/88
f 151/1/89 152/1/89 184/1/89
f 151/1/89 184/1/89 183/1/89
f 152/1/90 153/1/90 185/1/90
f 152/1/90 185/1/90 184/1/90
f 153/1/91 154/1/91 186/1/91
f 153/1/91 186/1/91 185/1/91
f 154/1/92 155/1/92 187/1/92
f 154/1/92 187/1/92 186/1/92
f 155/1/93 156/1/93 188/1/93
f 155/1/93 188/1/93 187/1/93
f 156/1/94 157/1/94 189/1/94
f 156/1/94 189/1/94 188/1/94
f 157/1/95 158/1/95 190/1/95
f 157/1/95 190/1/95 189/1/95
f 158/1/96 159/1/96 191/1/96
f 158/1/96 191/1/96 190/1/96
f 159/1/97 160/1/97 192/1/97
f 159/1/97 192/1/97 191/1/97
f 160/1/98 130/1/98 162/1/98
f 160/1/98 162/1/98 192/1/98
f 162/1/1 161/1/1 66/1/1
f 162/1/1 66/1/1 65/1/1
f 161/1/1 163/1/1 69/1/1
f 161/1/1 69/1/1 66/1/1
f 163/1/1 164/1/1 71/1/1
f 163/1/1 71/1/1 69/1/1
f 164/1/1 165/1/1 73/1/1
f 164/1/1 73/1/1 71/1/1
f 165/1/1 166/1/1 75/1/1
f 165/1/1 75/1/1 73/1/1
f 166/1/1 167/1/1 77/1/1
f 166/1/1 77/1/1 75/1/1
f 167/1/1 168/1/1 79/1/1
f 167/1/1 79/1/1 77/1/1
f 168/1/1 169/1/1 81/1/1
f 168/1/1 81/1/1 79/1/1
f 169/1/1 170/1/1 83/1/1
f 169/1/1 83/1/1 81/1/1
f 170/1/1 171/1/1 85/1/1
f 170/1/1 85/1/1 83/1/1
f 171/1/1 172/1/1 87/1/1
f 171/1/1 87/1/1 85/1/1
f 172/1/1 173/1/1 89/1/1
f 172/1/1 89/1/1 87/1/1
f 173/1/1 174/1/1 91/1/1
f 173/1/1 91/1/1 89/1/1
f 174/1/1 175/1/1 93/1/1
f 174/1/1 93/1/1 91/1/1
f 175/1/1 176/1/1 95/1/1
f 175/1/1 95/1/1 93/1/1
f 176/1/1 177/1/1 97/1/1
f 176/1/1 97/1/1 95/1/1
f 177/1/1 178/1/1 99/1/1
f 177/1/1 99/1/1 97/1/1
f 178/1/1 179/1/1 101/1/1
f 178/1/1 101/1/1 99/1/1
f 179/1/1 180/1/1 103/1/1
f 179/1/1 103/1/1 101/1/1
f 180/1/1 181/1/1 105/1/1
f 180/1/1 105/1/1 103/1/1
f 181/1/1 182/1/1 107/1/1
f 181/1/1 107/1/1 105/1/1
f 182/1/1 183/1/1 109/1/1
f 182/1/1 109/1/1 107/1/1
f 183/1/1 184/1/1 111/1/1
f 183/1/1 111/1/1 109/1/1
f 184/1/1 185/1/1 113/1/1
f 184/1/1 113/1/1 111/1/1
f 185/1/1 186/1/1 115/1/1
f 185/1/1 115/1/1 113/1/1
f 186/1/1 187/1/1 117/1/1
f 186/1/1 117/1/1 115/1/1
f 187/1/1 188/1/1 119/1/1
f 187/1/1 119/1/1 117/1/1
f 188/1/1 189/1/1 121/1/1
f 188/1/1 121/1/1 119/1/1
f 189/1/1 190/1/1 123/1/1
f 189/1/1 123/1/1 121/1/1
f 190/1/1 191/1/1 125/1/1
f 190/1/1 125/1/1 123/1/1
f 191/1/1 192/1/1 127/1/1
f 191/1/1 127/1/1 125/1/1
f 192/1/1 162/1/1 65/1/1
f 192/1/1 65/1/1 127/1/1
f 193/1/35 194/1/35 195/1/35
f 193/1/35 195/1/35 196/1/35
f 194/1/36 197/1/36 198/1/36
f 194/1/36 198/1/36 195/1/36
f 197/1/37 199/1/37 200/1/37
f 197/1/37 200/1/37 198/1/37
f 199/1/38 201/1/38 202/1/38
f 199/1/38 202/1/38 200/1/38
f 201/1/39 203/1/39 204/1/39
f 201/1/39 204/1/39 202/1/39
f 203/1/40 205/1/40 206/1/40
f 203/1/40 206/1/40 204/1/40
f 205/1/41 207/1/41 208/1/41
f 205/1/41 208/1/41 206/1/41
f 207/1/42 209/1/42 210/1/42
f 207/1/42 210/1/42 208/1/42
f 209/1/43 211/1/43 212/1/43
f 209/1/43 212/1/43 210/1/43
f 211/1/44 213/1/44 214/1/44
f 211/1/44 214/1/44 212/1/44
f 213/1/45 215/1/45 216/1/45
f 213/1/45 216/1/45 214/1/45
f 215/1/46 217/1/46 218/1/46
f 215/1/46 218/1/46 216/1/46
f 217/1/47 219/1/47 220/1/47
f 217/1/47 220/1/47 218/1/47
f 219/1/48 221/1/48 222/1/48
f 219/1/48 222/1/48 220/1/48
f 221/1/49 223/1/49 224/1/49
f 221/1/49 224/1/49 222/1/49
f 223/1/50 225/1/50 226/1/50
f 223/1/50 226/1/50 224/1/50
f 225/1/51 227/1/51 228/1/51
f 225/1/51 228/1/51 226/1/51
f 227/1/52 229/1/52 230/1/52
f 227/1/52 230/1/52 228/1/52
f 229/1/53 231/1/53 232/1/53
f 229/1/53 232/1/53 230/1/53
f 231/1/54 233/1/54 234/1/54
f 231/1/54 234/1/54 232/1/54
f 233/1/55 235/1/55 236/1/55
f 233/1/55 236/1/55 234/1/55
f 235/1/56 237/1/56 238/1/56
f 235/1/56 238/1/56 236/1/56
f 237/1/57 239/1/57 240/1/57
f 237/1/57 240/1/57 238/1/57
f 239/1/58 241/1/58 242/1/58
f 239/1/58 242/1/58 240/1/58
f 241/1/59 243/1/59 244/1/59
f 241/1/59 244/1/59 242/1/59
f 243/1/60 245/1/60 246/1/60
f 243/1/60 246/1/60 244/1/60
f 245/1/61 247/1/61 248/1/61
f 245/1/61 248/1/61 246/1/61
f 247/1/62 249/1/62 250/1/62
f 247/1/62 250/1/62 248/1/62
f 249/1/63 251/1/63 252/1/63
f 249/1/63 252/1/63 250/1/63
f 251/1/64 253/1/64 254/1/64
f 251/1/64 254/1/64 252/1/64
f 253/1/65 255/1/65 256/1/65
f 253/1/65 256/1/65 254/1/65
f 255/1/66 193/1/66 196/1/66
f 255/1/66 196/1/66 256/1/66
f 196/1/2 195/1/2 257/1/2
f 196/1/2 257/1/2 258/1/2
f 195/1/2 198/1/2 259/1/2
f 195/1/2 259/1/2 257/1/2
f 198/1/2 200/1/2 260/1/2
f 198/1/2 260/1/2 259/1/2
f 200/1/2 202/1/2 261/1/2
f 200/1/2 261/1/2 260/1/2
f 202/1/2 204/1/2 262/1/2
f 202/1/2 262/1/2 261/1/2
f 204/1/2 206/1/2 263/1/2
f 204/1/2 263/1/2 262/1/2
f 206/1/2 208/1/2 264/1/2
f 206/1/2 264/1/2 263/1/2
f 208/1/2 210/1/2 265/1/2
f 208/1/2 265/1/2 264/1/2
f 210/1/2 212/1/2 266/1/2
f 210/1/2 266/1/2 265/1/2
f 212/1/2 214/1/2 267/1/2
f 212/1/2 267/1/2 266/1/2
f 214/1/2 216/1/2 268/1/2
f 214/1/2 268/1/2 267/1/2
f 216/1/2 218/1/2 269/1/2
f 216/1/2 269/1/2 268/1/2
f 218/1/2 220/1/2 270/1/2
f 218/1/2 270/1/2 269/1/2
f 220/1/2 222/1/2 271/1/2
f 220/1/2 271/1/2 270/1/2
f 222/1/2 224/1/2 272/1/2
f 222/1/2 272/1/2 271/1/2
f 224/1/2 226/1/2 273/1/2
f 224/1/2 273/1/2 272/1/2
f 226/1/2 228/1/2 274/1/2
f 226/1/2 274/1/2 273/1/2
f 228/1/2 230/1/2 275/1/2
f 228/1/2 275/1/2 274/1/2
f 230/1/2 232/1/2 276/1/2
f 230/1/2 276/1/2 275/1/2
f 232/1/2 234/1/2 277/1/2
f 232/1/2 277/1/2 276/1/2
f 234/1/2 236/1/2 278/1/2
f 234/1/2 278/1/2 277/1/2
f 236/1/2 238/1/2 279/1/2
f 236/1/2 279/1/2 278/1/2
f 238/1/2 240/1/2 280/1/2
f 238/1/2 280/1/2 279/1/2
f 240/1/2 242/1/2 281/1/2
f 240/1/2 281/1/2 280/1/2
f 242/1/2 244/1/2 282/1/2
f 242/1/2 282/1/2 281/1/2
f 244/1/2 246/1/2 283/1/2
f 244/1/2 283/1/2 282/1/2
f 246/1/2 248/1/2 284/1/2
f 246/1/2 284/1/2 283/1/2
f 248/1/2 250/1/2 285/1/2
f 248/1/2 285/1/2 284/1/2
f 250/1/2 252/1/2 286/1/2
f 250/1/2 286/1/2 285/1/2
f 252/1/2 254/1/2 287/1/2
f 252/1/2 287/1/2 286/1/2
f 254/1/2 256/1/2 288/1/2
f 254/1/2 288/1/2 287/1/2
f 256/1/2 196/1/2 258/1/2
f 256/1/2 258/1/2 288/1/2
f 258/1/67 257/1/67 289/1/67
f 258/1/67 289/1/67 290/1/67
f 257/1/68 259/1/68 291/1/68
f 257/1/68 291/1/68 289/1/68
f 259/1/69 260/1/69 292/1/69
f 259/1/69 292/1/69 291/1/69
f 260/1/70 261/1/70 293/1/70
f 260/1/70 293/1/70 292/1/70
f 261/1/71 262/1/71 294/1/71
f 261/1/71 294/1/71 293/1/71
f 262/1/72 263/1/72 295/1/72
f 262/1/72 295/1/72 294/1/72
f 263/1/73 264/1/73 296/1/73
f 263/1/73 296/1/73 295/1/73
f 264/1/74 265/1/74 297/1/74
f 264/1/74 297/1/74 296/1/74
f 265/1/75 266/1/75 298/1/75
f 265/1/75 298/1/75 297/1/75
f 266/1/76 267/1/76 299/1/76
f 266/1/76 299/1/76 298/1/76
f 267/1/77 268/1/77 300/1/77
f 267/1/77 300/1/77 299/1/77
f 268/1/78 269/1/78 301/1/78
f 268/1/78 301/1/78 300/1/78
f 269/1/79 270/1/79 302/1/79
f 269/1/79 302/1/79 301/1/79
f 270/1/80 271/1/80 303/1/80
f 270/1/80 303/1/80 302/1/80
f 271/1/81 272/1/81 304/1/81
f 271/1/81 304/1/81 303/1/81
f 272/1/82 273/1/82 305/1/82
f 272/1/82 305/1/82 304/1/82
f 273/1/83 274/1/83 306/1/83
f 273/1/83 306/1/83 305/1/83
f 274/1/84 275/1/84 307/1/84
f 274/1/84 307/1/84 306/1/84
f 275/1/85 276/1/85 308/1/85
f 275/1/85 308/1/85 307/1/85
f 276/1/86 277/1/86 309/1/86
f 276/1/86 309/1/86 308/1/86
f 277/1/87 278/1/87 310/1/87
f 277/1/87 310/1/87 309/1/87
f 278/1/88 279/1/88 311/1/88
f 278/1/88 311/1/88 310/1/88
f 279/1/89 280/1/89 312/1/89
f 279/1/89 312/1/89 311/1/89
f 280/1/90 281/1/90 313/1/90
f 280/1/90 313/1/90 312/1/90
f 281/1/91 282/1/91 314/1/91
f 281/1/91 314/1/91 313/1/91
f 282/1/92 283/1/92 315/1/92
f 282/1/92 315/1/92 314/1/92
f 283/1/93 284/1/93 316/1/93
f 283/1/93 316/1/93 315/1/93
f 284/1/94 285/1/94 317/1/94
f 284/1/94 317/1/94 316/1/94
f 285/1/95 286/1/95 318/1/95
f 285/1/95 318/1/95 317/1/95
f 286/1/96 287/1/96 319/1/96
f 286/1/96 319/1/96 318/1/96
f 287/1/97 288/1/97 320/1/97
f 287/1/97 320/1/97 319/1/97
f 288/1/98 258/1/98 290/1/98
f 288/1/98 290/1/98 320/1/98
f 290/1/1 289/1/1 194/1/1
f 290/1/1 194/1/1 193/1/1
f 289/1/1 291/1/1 197/1/1
f 289/1/1 197/1/1 194/1/1
f 291/1/1 292/1/1 199/1/1
f 291/1/1 199/1/1 197/1/1
f 292/1/1 293/1/1 201/1/1
f 292/1/1 201/1/1 199/1/1
f 293/1/1 294/1/1 203/1/1
f 293/1/1 203/1/1 201/1/1
f 294/1/1 295/1/1 205/1/1
f 294/1/1 205/1/1 203/1/1
f 295/1/1 296/1/1 207/1/1
f 295/1/1 207/1/1 205/1/1
f 296/1/1 297/1/1 209/1/1
f 296/1/1 209/1/1 207/1/1
f 297/1/1 298/1/1 211/1/1
f 297/1/1 211/1/1 209/1/1
f 298/1/1 299/1/1 213/1/1
f 298/1/1 213/1/1 211/1/1
f 299/1/1 300/1/1 215/1/1
f 299/1/1 215/1/1 213/1/1
f 300/1/1 301/1/1 217/1/1
f 300/1/1 217/1/1 215/1/1
f 301/1/1 302/1/1 219/1/1
f 301/1/1 219/1/1 217/1/1
f 302/1/1 303/1/1 221/1/1
f 302/1/1 221/1/1 219/1/1
f 303/1/1 304/1/1 223/1/1
f 303/1/1 223/1/1 221/1/1
f 304/1/1 305/1/1 225/1/1
f 304/1/1 225/1/1 223/1/1
f 305/1/1 306/1/1 227/1/1
f 305/1/1 227/1/1 225/1/1
f 306/1/1 307/1/1 229/1/1
f 306/1/1 229/1/1 227/1/1
f 307/1/1 308/1/1 231/1/1
f 307/1/1 231/1/1 229/1/1
f 308/1/1 309/1/1 233/1/1
f 308/1/1 233/1/1 231/1/1
f 309/1/1 310/1/1 235/1/1
f 309/1/1 235/1/1 233/1/1
f 310/1/1 311/1/1 237/1/1
f 310/1/1 237/1/1 235/1/1
f 311/1/1 312/1/1 239/1/1
f 311/1/1 239/1/1 237/1/1
f 312/1/1 313/1/1 241/1/1
f 312/1/1 241/1/1 239/1/1
f 313/1/1 314/1/1 243/1/1
f 313/1/1 243/1/1 241/1/1
f 314/1/1 315/1/1 245/1/1
f 314/1/1 245/1/1 243/1/1
f 315/1/1 316/1/1 247/1/1
f 315/1/1 247/1/1 245/1/1
f 316/1/1 317/1/1 249/1/1
f 316/1/1 249/1/1 247/1/1
f 317/1/1 318/1/1 251/1/1
f 317/1/1 251/1/1 249/1/1
f 318/1/1 319/1/1 253/1/1
f 318/1/1 253/1/1 251/1/1
f 319/1/1 320/1/1 255/1/1
f 319/1/1 255/1/1 253/1/1
f 320/1/1 290/1/1 193/1/1
f 320/1/1 193/1/1 255/1/1
f 321/1/1 322/1/1 323/1/1
f 323/1/1 324/1/1 325/1/1
f 325/1/1 326/1/1 327/1/1
f 327/1/1 328/1/1 329/1/1
f 329/1/1 330/1/1 331/1/1
f 331/1/1 332/1/1 333/1/1
f 333/1/1 334/1/1 335/1/1
f 335/1/1 336/1/1 337/1/1
f 337/1/1 338/1/1 339/1/1
f 339/1/1 340/1/1 341/1/1
f 341/1/1 342/1/1 343/1/1
f 343/1/1 344/1/1 345/1/1
f 345/1/1 346/1/1 347/1/1
f 347/1/1 348/1/1 349/1/1
f 349/1/1 350/1/1 351/1/1
f 351/1/1 352/1/1 321/1/1
f 321/1/1 323/1/1 325/1/1
f 325/1/1 327/1/1 329/1/1
f 329/1/1 331/1/1 333/1/1
f 333/1/1 335/1/1 337/1/1
f 337/1/1 339/1/1 341/1/1
f 341/1/1 343/1/1 345/1/1
f 345/1/1 347/1/1 349/1/1
f 349/1/1 351/1/1 321/1/1
f 321/1/1 325/1/1 329/1/1
f 329/1/1 333/1/1 337/1/1
f 337/1/1 341/1/1 345/1/1
f 345/1/1 349/1/1 321/1/1
f 321/1/1 329/1/1 337/1/1
f 337/1/1 345/1/1 321/1/1
f 353/1/2 354/1/2 355/1/2
f 355/1/2 356/1/2 357/1/2
f 357/1/2 358/1/2 359/1/2
f 359/1/2 360/1/2 361/1/2
f 361/1/2 362/1/2 363/1/2
f 363/1/2 364/1/2 365/1/2
f 365/1/2 366/1/2 367/1/2
f 367/1/2 368/1/2 369/1/2
f 369/1/2 370/1/2 371/1/2
f 371/1/2 372/1/2 373/1/2
f 373/1/2 374/1/2 375/1/2
f 375/1/2 376/1/2 377/1/2
f 377/1/2 378/1/2 379/1/2
f 379/1/2 380/1/2 381/1/2
f 381/1/2 382/1/2 383/1/2
f 383/1/2 384/1/2 353/1/2
f 353/1/2 355/1/2 357/1/2
f 357/1/2 359/1/2 361/1/2
f 361/1/2 363/1/2 365/1/2
f 365/1/2 367/1/2 369/1/2
f 369/1/2 371/1/2 373/1/2
f 373/1/2 375/1/2 377/1/2
f 377/1/2 379/1/2 381/1/2
f 381/1/2 383/1/2 353/1/2
f 353/1/2 357/1/2 361/1/2
f 361/1/2 365/1/2 369/1/2
f 369/1/2 373/1/2 377/1/2
f 377/1/2 381/1/2 353/1/2
f 353/1/2 361/1/2 369/1/2
f 369/1/2 377/1/2 353/1/2
f 321/1/99 352/1/99 355/1/99
f 321/1/99 355/1/99 354/1/99
f 352/1/100 351/1/100 356/1/100
f 352/1/100 356/1/100 355/1/100
f 351/1/101 350/1/101 357/1/101
f 351/1/101 357/1/101 356/1/101
f 350/1/102 349/1/102 358/1/102
f 350/1/102 358/1/102 357/1/102
f 349/1/103 348/1/103 359/1/103
f 349/1/103 359/1/103 358/1/103
f 348/1/104 347/1/104 360/1/104
f 348/1/104 360/1/104 359/1/104
f 347/1/105 346/1/105 361/1/105
f 347/1/105 361/1/105 360/1/105
f 346/1/106 345/1/106 362/1/106
f 346/1/106 362/1/106 361/1/106
f 345/1/107 344/1/107 363/1/107
f 345/1/107 363/1/107 362/1/107
f 344/1/108 343/1/108 364/1/108
f 344/1/108 364/1/108 363/1/108
f 343/1/109 342/1/109 365/1/109
f 343/1/109 365/1/109 364/1/109
f 342/1/110 341/1/110 366/1/110
f 342/1/110 366/1/110 365/1/110
f 341/1/111 340/1/111 367/1/111
f 341/1/111 367/1/111 366/1/111
f 340/1/112 339/1/112 368/1/112
f 340/1/112 368/1/112 367/1/112
f 339/1/113 338/1/113 369/1/113
f 339/1/113 369/1/113 368/1/113
f 338/1/114 337/1/114 370/1/114
f 338/1/114 370/1/114 369/1/114
f 337/1/115 336/1/115 371/1/115
f 337/1/115 371/1/115 370/1/115
f 336/1/116 335/1/116 372/1/116
f 336/1/116 372/1/116 371/1/116
f 335/1/117 334/1/117 373/1/117
f 335/1/117 373/1/117 372/1/117
f 334/1/118 333/1/118 374/1/118
f 334/1/118 374/1/118 373/1/118
f 333/1/119 332/1/119 375/1/119
f 333/1/119 375/1/119 374/1/119
f 332/1/120 331/1/120 376/1/120
f 332/1/120 376/1/120 375/1/120
f 331/1/121 330/1/121 377/1/121
f 331/1/121 377/1/121 376/1/121
f 330/1/122 329/1/122 378/1/122
f 330/1/122 378/1/122 377/1/122
f 329/1/123 328/1/123 379/1/123
f 329/1/123 379/1/123 378/1/123
f 328/1/124 327/1/124 380/1/124
f 328/1/124 380/1/124 379/1/124
f 327/1/125 326/1/125 381/1/125
f 327/1/125 381/1/125 380/1/125
f 326/1/126 325/1/126 382/1/126
f 326/1/126 382/1/126 381/1/126
f 325/1/127 324/1/127 383/1/127
f 325/1/127 383/1/127 382/1/127
f 324/1/128 323/1/128 384/1/128
f 324/1/128 384/1/128 383/1/128
f 323/1/129 322/1/129 353/1/129
f 323/1/129 353/1/129 384/1/129
f 322/1/130 321/1/130 354/1/130
f 322/1/130 354/1/130 353/1/130
usemtl mat_2
f 385/1/131 386/1/131 387/1/131
f 385/1/132 387/1/132 388/1/132
f 386/1/133 389/1/133 390/1/133
f 386/1/134 390/1/134 387/1/134
f 389/1/135 391/1/135 392/1/135
f 389/1/136 392/1/136 390/1/136
f 391/1/137 393/1/137 394/1/137
f 391/1/138 394/1/138 392/1/138
f 393/1/139 395/1/139 396/1/139
f 393/1/140 396/1/140 394/1/140
f 395/1/141 397/1/141 398/1/141
f 395/1/142 398/1/142 396/1/142
f 397/1/143 399/1/143 400/1/143
f 397/1/144 400/1/144 398/1/144
f 399/1/145 385/1/145 388/1/145
f 399/1/146 388/1/146 400/1/146
f 388/1/147 387/1/147 401/1/147
f 388/1/147 401/1/147 402/1/147
f 387/1/148 390/1/148 403/1/148
f 387/1/148 403/1/148 401/1/148
f 390/1/149 392/1/149 404/1/149
f 390/1/149 404/1/149 403/1/149
f 392/1/150 394/1/150 405/1/150
f 392/1/150 405/1/150 404/1/150
f 394/1/151 396/1/151 406/1/151
f 394/1/151 406/1/151 405/1/151
f 396/1/152 398/1/152 407/1/152
f 396/1/152 407/1/152 406/1/152
f 398/1/153 400/1/153 408/1/153
f 398/1/153 408/1/153 407/1/153
f 400/1/154 388/1/154 402/1/154
f 400/1/154 402/1/154 408/1/154
f 402/1/155 401/1/155 409/1/155
f 402/1/156 409/1/156 410/1/156
f 401/1/157 403/1/157 411/1/157
f 401/1/158 411/1/158 409/1/158
f 403/1/159 404/1/159 412/1/159
f 403/1/160 412/1/160 411/1/160
f 404/1/161 405/1/161 413/1/161
f 404/1/162 413/1/162 412/1/162
f 405/1/163 406/1/163 414/1/163
f 405/1/164 414/1/164 413/1/164
f 406/1/165 407/1/165 415/1/165
f 406/1/166 415/1/166 414/1/166
f 407/1/167 408/1/167 416/1/167
f 407/1/168 416/1/168 415/1/168
f 408/1/169 402/1/169 410/1/169
f 408/1/170 410/1/170 416/1/170
f 385/1/1 399/1/1 397/1/1
f 397/1/1 395/1/1 393/1/1
f 393/1/1 391/1/1 389/1/1
f 389/1/1 386/1/1 385/1/1
f 385/1/1 397/1/1 393/1/1
f 393/1/1 389/1/1 385/1/1
f 416/1/1 410/1/1 409/1/1
f 409/1/1 411/1/1 412/1/1
f 412/1/1 413/1/1 414/1/1
f 414/1/1 415/1/1 416/1/1
f 416/1/1 409/1/1 412/1/1
f 412/1/1 414/1/1 416/1/1
usemtl mat_3
f 417/1/171 418/1/171 419/1/171
f 417/1/171 419/1/171 420/1/171
f 421/1/172 422/1/172 423/1/172
f 421/1/172 423/1/172 424/1/172
f 417/1/1 420/1/1 422/1/1
f 417/1/1 422/1/1 421/1/1
f 418/1/2 424/1/2 423/1/2
f 418/1/2 423/1/2 419/1/2
f 417/1/173 421/1/173 424/1/173
f 417/1/173 424/1/173 418/1/173
f 420/1/174 419/1/174 423/1/174
f 420/1/174 423/1/174 422/1/174
