# Authored in Blender; exported by tools-export-modern.py
mtllib materials.mtl
s off
v 0.820909142 0.950000048 1.000000000
v 0.639090874 0.950000048 0.000000000
v 0.569999933 0.950000048 0.000000000
v 0.569999933 0.950000048 1.000000000
v 0.890000105 0.950000048 1.000000000
v 0.890000105 0.950000048 0.000000000
v 0.569999933 0.604545408 1.000000000
v 0.569999933 0.000000000 0.335000032
v 0.569999933 0.000000000 1.000000000
v 0.569999933 0.000000000 0.000000000
v 0.890000105 0.604545408 1.000000000
v 0.890000105 0.000000000 0.335000032
v 0.890000105 0.000000000 0.000000000
v 0.890000105 0.000000000 1.000000000
v 0.720000029 0.000000000 0.921613765
v 0.720000029 0.025469224 1.000000000
v 0.720000029 0.020659076 1.000000000
v 0.720000029 0.000000000 0.950124654
v 0.720000029 0.025469191 0.000000000
v 0.720000029 0.000000000 0.078386159
v 0.720000029 0.000000000 0.049875296
v 0.720000029 0.020659042 0.000000000
v 0.720000029 0.000000000 0.782553111
v 0.720000029 0.034440191 1.000000000
v 0.720000029 0.082540094 0.000000000
v 0.720000029 0.000000000 0.161994082
v 0.720000029 0.209888466 0.000000000
v 0.720000029 0.051503989 1.000000000
v 0.720000029 0.452119548 0.000000000
v 0.720000029 0.961644961 1.000000000
v 0.720000029 1.000000000 0.000000000
v 0.720000029 1.000000000 0.010643778
v 0.720000029 0.979110408 0.000000000
v 0.720000029 1.000000000 1.000000000
v 0.207336159 0.000000000 0.950124654
v 0.000000000 0.012249725 0.979698061
v 0.000000000 0.000000000 0.950124654
v 0.000000000 0.020659076 1.000000000
v 0.342334300 0.020659042 0.000000000
v 0.000000000 0.000433428 0.048828909
v 0.000000000 0.020659042 0.000000000
v 0.000000000 0.000000000 0.049875296
v 0.740000010 1.000000000 1.000000000
v 0.740000010 0.922893254 1.000000000
v 0.740000010 1.000000000 0.813847804
v 0.740000010 1.000000000 0.751563968
v 0.740000010 0.904013141 1.000000000
v 0.740000010 0.795910788 1.000000000
v 0.740000010 1.000000000 0.694558977
v 0.740000010 1.000000000 0.647898862
v 0.740000010 0.776767323 1.000000000
v 0.740000010 0.630000174 1.000000000
v 0.740000010 1.000000000 0.630000119
v 0.740000010 1.000000000 0.592042941
v 0.740000010 0.611171533 1.000000000
v 0.740000010 0.381697300 1.000000000
v 0.740000010 1.000000000 0.586863252
v 0.740000010 1.000000000 0.554037991
v 0.740000010 0.366054047 1.000000000
v 0.740000010 0.000000000 1.000000000
v 0.740000010 0.000000000 0.968061276
v 0.740000010 1.000000000 0.553847926
v 0.740000010 0.000000000 0.966699193
v 0.740000010 0.000000000 0.724771056
v 0.740000010 0.992690206 0.527312756
v 0.740000010 1.000000000 0.551409669
v 0.740000010 0.000000000 0.721749272
v 0.740000010 0.000000000 0.500000000
v 0.740000010 0.990000129 0.500000000
v 0.740000010 0.000000000 0.496518959
v 0.740000010 0.000000000 0.275228944
v 0.740000010 0.992690206 0.472687244
v 0.740000010 1.000000000 0.446309865
v 0.740000010 0.000000000 0.272235898
v 0.740000010 0.000000000 0.031938724
v 0.740000010 1.000000000 0.446152074
v 0.740000010 1.000000000 0.448590331
v 0.740000010 1.000000000 0.416967843
v 0.740000010 0.000000000 0.030603471
v 0.740000010 0.000000000 0.000000000
v 0.740000010 0.381697300 0.000000000
v 0.740000010 1.000000000 0.413136748
v 0.740000010 1.000000000 0.381347719
v 0.740000010 0.398506670 0.000000000
v 0.740000010 0.630000114 0.000000000
v 0.740000010 1.000000000 0.369999886
v 0.740000010 1.000000000 0.333822469
v 0.740000010 0.649755035 0.000000000
v 0.740000010 0.795910788 0.000000000
v 0.740000010 1.000000000 0.305441023
v 0.740000010 1.000000000 0.262017861
v 0.740000010 0.815678275 0.000000000
v 0.740000010 0.922893254 0.000000000
v 0.740000010 1.000000000 0.186152196
v 0.740000010 1.000000000 0.000000000
v 0.740000010 1.000000000 0.130692148
v 0.740000010 0.942152770 0.000000000
v 0.730102816 1.000000000 0.551409669
v 0.620000124 0.992690206 0.527312756
v 0.620000124 1.000000000 0.551409669
v 0.620000124 0.990000129 0.500000000
v 0.620000124 0.992690206 0.472687244
v 0.629897318 1.000000000 0.448590331
v 0.620000124 1.000000000 0.448590331
v 0.620000124 0.942152770 1.000000000
v 0.620000124 1.000000000 0.869307852
v 0.620000124 1.000000000 0.813847804
v 0.620000124 0.922893254 1.000000000
v 0.620000124 1.000000000 1.000000000
v 0.620000124 0.815678275 1.000000000
v 0.620000124 1.000000000 0.737982139
v 0.620000124 1.000000000 0.694558977
v 0.620000124 0.795910788 1.000000000
v 0.620000124 0.649755096 1.000000000
v 0.620000124 1.000000000 0.666177539
v 0.620000124 1.000000000 0.630000119
v 0.620000124 0.630000174 1.000000000
v 0.620000124 0.398506670 1.000000000
v 0.620000124 1.000000000 0.618652281
v 0.620000124 1.000000000 0.586863252
v 0.620000124 0.381697300 1.000000000
v 0.620000124 0.000000000 0.969396529
v 0.620000124 1.000000000 0.583032157
v 0.620000124 1.000000000 0.553847926
v 0.620000124 0.000000000 0.968061276
v 0.620000124 0.000000000 1.000000000
v 0.620000124 0.000000000 0.727764102
v 0.620000124 1.000000000 0.553690135
v 0.620000124 0.000000000 0.724771056
v 0.620000124 0.000000000 0.503481041
v 0.620000124 0.000000000 0.500000000
v 0.620000124 0.000000000 0.278250728
v 0.620000124 0.000000000 0.275228944
v 0.620000124 0.000000000 0.033300807
v 0.620000124 1.000000000 0.446152074
v 0.620000124 0.000000000 0.031938724
v 0.620000124 0.366054047 0.000000000
v 0.620000124 1.000000000 0.445962009
v 0.620000124 1.000000000 0.413136748
v 0.620000124 0.381697300 0.000000000
v 0.620000124 0.000000000 0.000000000
v 0.620000124 0.611171475 0.000000000
v 0.620000124 1.000000000 0.407957061
v 0.620000124 1.000000000 0.369999886
v 0.620000124 0.630000114 0.000000000
v 0.620000124 0.776767323 0.000000000
v 0.620000124 1.000000000 0.352101138
v 0.620000124 1.000000000 0.305441023
v 0.620000124 0.795910788 0.000000000
v 0.620000124 0.904013141 0.000000000
v 0.620000124 1.000000000 0.248436032
v 0.620000124 1.000000000 0.186152196
v 0.620000124 0.922893254 0.000000000
v 0.620000124 1.000000000 0.000000000
v 0.619780410 0.000000000 0.969954332
v 0.615520868 0.016059741 1.000000000
v 0.589999914 0.016059741 1.000000000
v 0.589999914 0.000000000 0.969954332
v 0.620000124 0.000000000 0.969954332
v 0.620000124 0.016059741 1.000000000
v 0.594479170 0.016059741 0.000000000
v 0.590219628 0.000000000 0.030045668
v 0.589999914 0.000000000 0.030045668
v 0.589999914 0.016059741 0.000000000
v 0.620000124 0.016059741 0.000000000
v 0.620000124 0.000000000 0.030045668
v 0.620000124 0.922893231 1.000000000
v 0.620000124 1.000000000 0.813847776
v 0.620000124 1.000000000 0.752017970
v 0.620000124 0.904509308 1.000000000
v 0.620000124 0.795910827 1.000000000
v 0.620000124 1.000000000 0.694558989
v 0.620000124 1.000000000 0.648020853
v 0.620000124 0.777399946 1.000000000
v 0.620000124 0.630000052 1.000000000
v 0.620000124 1.000000000 0.630000110
v 0.620000124 1.000000000 0.592075133
v 0.620000124 0.612077753 1.000000000
v 0.620000124 0.381697203 1.000000000
v 0.620000124 1.000000000 0.586863251
v 0.620000124 1.000000000 0.554039098
v 0.620000124 0.367569971 1.000000000
v 0.620000124 0.000000000 0.968061403
v 0.620000124 0.000000000 0.968036754
v 0.620000124 0.000000000 0.724770968
v 0.620000124 0.000000000 0.722920161
v 0.620000124 0.000000000 0.497637417
v 0.620000124 0.000000000 0.275229032
v 0.620000124 1.000000000 0.446310627
v 0.620000124 0.000000000 0.273396649
v 0.620000124 0.000000000 0.031938597
v 0.620000124 1.000000000 0.416985426
v 0.620000124 0.000000000 0.031914456
v 0.620000124 0.381697203 0.000000000
v 0.620000124 1.000000000 0.413136749
v 0.620000124 1.000000000 0.381396633
v 0.620000124 0.396928890 0.000000000
v 0.620000124 1.000000000 0.333934565
v 0.620000124 0.648846554 0.000000000
v 0.620000124 0.795910827 0.000000000
v 0.620000124 1.000000000 0.305441011
v 0.620000124 1.000000000 0.262277376
v 0.620000124 0.815053920 0.000000000
v 0.620000124 0.922893249 0.000000000
v 0.620000124 1.000000000 0.186152202
v 0.620000124 1.000000000 0.131396184
v 0.620000124 0.941664118 0.000000000
v 0.617525806 1.000000000 0.551409669
v 0.589999914 0.992690206 0.527312756
v 0.589999914 1.000000000 0.551409669
v 0.589999914 0.990000129 0.500000000
v 0.589999914 0.992690206 0.472687244
v 0.592474232 1.000000000 0.448590331
v 0.589999914 1.000000000 0.448590331
v 0.589999914 0.941664099 1.000000000
v 0.589999914 1.000000000 0.868603789
v 0.589999914 1.000000000 0.813847776
v 0.589999914 0.922893231 1.000000000
v 0.589999914 1.000000000 1.000000000
v 0.589999914 0.815053920 1.000000000
v 0.589999914 1.000000000 0.737722624
v 0.589999914 1.000000000 0.694558989
v 0.589999914 0.795910827 1.000000000
v 0.589999914 0.648846490 1.000000000
v 0.589999914 1.000000000 0.666065427
v 0.589999914 1.000000000 0.630000110
v 0.589999914 0.630000052 1.000000000
v 0.589999914 0.396928890 1.000000000
v 0.589999914 1.000000000 0.618603367
v 0.589999914 1.000000000 0.586863251
v 0.589999914 0.381697203 1.000000000
v 0.589999914 0.000000000 0.968085544
v 0.589999914 1.000000000 0.583014574
v 0.589999914 1.000000000 0.553847926
v 0.589999914 0.000000000 0.968061403
v 0.589999914 0.000000000 0.726603351
v 0.589999914 1.000000000 0.553689373
v 0.589999914 0.000000000 0.724770968
v 0.589999914 0.000000000 0.502362583
v 0.589999914 0.000000000 0.500000000
v 0.589999914 0.000000000 0.277079839
v 0.589999914 0.000000000 0.275229032
v 0.589999914 0.000000000 0.031963246
v 0.589999914 1.000000000 0.446152074
v 0.589999914 0.000000000 0.031938597
v 0.589999914 0.367569971 0.000000000
v 0.589999914 1.000000000 0.445960902
v 0.589999914 1.000000000 0.413136749
v 0.589999914 0.381697203 0.000000000
v 0.589999914 0.612077813 0.000000000
v 0.589999914 1.000000000 0.407924865
v 0.589999914 1.000000000 0.369999886
v 0.589999914 0.630000114 0.000000000
v 0.589999914 0.777399946 0.000000000
v 0.589999914 1.000000000 0.351979147
v 0.589999914 1.000000000 0.305441011
v 0.589999914 0.795910827 0.000000000
v 0.589999914 0.904509325 0.000000000
v 0.589999914 1.000000000 0.247982014
v 0.589999914 1.000000000 0.186152202
v 0.589999914 0.922893249 0.000000000
v 0.589999914 1.000000000 0.000000000
v 0.539999962 0.111418605 0.901082277
v 0.539999962 0.172148585 0.866019726
v 0.539999962 0.172148585 0.795894623
v 0.539999962 0.111418605 0.760832071
v 0.539999962 0.050688624 0.795894623
v 0.539999962 0.050688624 0.866019726
v 0.775000095 0.172148585 0.866019726
v 0.775000095 0.111418605 0.901082277
v 0.775000095 0.050688624 0.866019726
v 0.775000095 0.050688624 0.795894623
v 0.775000095 0.111418605 0.760832071
v 0.775000095 0.172148585 0.795894623
v 0.539999962 0.059000134 0.570125103
v 0.539999962 0.119730115 0.535062551
v 0.539999962 0.119730115 0.464937449
v 0.539999962 0.000000000 0.464937449
v 0.539999962 0.059000134 0.429874897
v 0.539999962 0.000000000 0.463938686
v 0.539999962 0.000000000 0.467933737
v 0.539999962 0.000000000 0.536061314
v 0.775000095 0.000000000 0.535062551
v 0.775000095 0.119730115 0.535062551
v 0.775000095 0.059000134 0.570125103
v 0.775000095 0.000000000 0.536061314
v 0.775000095 0.000000000 0.532066263
v 0.775000095 0.000000000 0.463938686
v 0.775000095 0.059000134 0.429874897
v 0.775000095 0.119730115 0.464937449
v 0.768306076 0.000000000 0.536061314
v 0.546693981 0.000000000 0.463938686
v 0.539999962 0.111418605 0.239167929
v 0.539999962 0.172148585 0.204105377
v 0.539999962 0.172148585 0.133980274
v 0.539999962 0.111418605 0.098917723
v 0.539999962 0.050688624 0.133980274
v 0.539999962 0.050688624 0.204105377
v 0.775000095 0.172148585 0.204105377
v 0.775000095 0.111418605 0.239167929
v 0.775000095 0.050688624 0.204105377
v 0.775000095 0.050688624 0.133980274
v 0.775000095 0.111418605 0.098917723
v 0.775000095 0.172148585 0.133980274
v 0.740000010 0.571854758 0.000000000
v 0.740000010 0.566539281 0.000000000
v 0.740000010 0.501076460 0.079766750
v 0.740000010 0.431177616 0.210538387
v 0.740000010 0.388134241 0.352433681
v 0.740000010 0.373600125 0.500000000
v 0.740000010 0.388134241 0.647566319
v 0.740000010 0.431177616 0.789461613
v 0.740000010 0.571854758 1.000000000
v 0.740000010 0.501076460 0.920233250
v 0.740000010 0.566539281 1.000000000
v 0.740000010 0.580706850 0.000000000
v 0.740000010 0.580706850 1.000000000
v 0.740000010 0.873600125 0.000000000
v 0.740000010 0.873600047 1.000000000
v 0.829999924 0.580843165 1.000000000
v 0.829999924 0.566539281 1.000000000
v 0.829999924 0.501076460 0.920233250
v 0.829999924 0.431177616 0.789461613
v 0.829999924 0.388134241 0.647566319
v 0.829999924 0.373600125 0.500000000
v 0.829999924 0.388134241 0.352433681
v 0.829999924 0.431177616 0.210538387
v 0.829999924 0.501076460 0.079766750
v 0.829999924 0.580843165 0.000000000
v 0.829999924 0.566539281 0.000000000
v 0.829999924 0.623622763 1.000000000
v 0.829999924 0.620455862 0.000000000
v 0.829999924 0.915588551 1.000000000
v 0.829999924 0.820824196 0.000000000
v 0.829999924 1.000000000 0.000000000
v 0.829999924 1.000000000 1.000000000
v 0.767368156 0.566539281 1.000000000
v 0.802631777 0.566539281 0.000000000
v 0.297707794 0.000000000 0.981385247
v 0.293955810 0.007710494 1.000000000
v 0.282000065 0.007710494 1.000000000
v 0.282000065 0.000000000 0.981385247
v 0.318000078 0.000000000 0.981385247
v 0.318000078 0.007710494 1.000000000
v 0.306044317 0.007710462 0.000000000
v 0.302292349 0.000000000 0.018614686
v 0.282000065 0.000000000 0.018614686
v 0.282000065 0.007710462 0.000000000
v 0.318000078 0.007710462 0.000000000
v 0.318000078 0.000000000 0.018614686
v 0.318000078 0.000000000 0.965257545
v 0.318000078 0.011923304 1.000000000
v 0.318000078 0.000000000 0.950124654
v 0.318000078 0.020659076 1.000000000
v 0.318000078 0.016630852 0.000000000
v 0.318000078 0.000000000 0.034010461
v 0.318000078 0.020659042 0.000000000
v 0.318000078 0.000000000 0.049875296
v 0.296883860 0.000000000 0.950124654
v 0.307035602 0.020659076 1.000000000
v 0.282000065 0.000000000 0.950124654
v 0.282000065 0.020659076 1.000000000
v 0.292964558 0.020659042 0.000000000
v 0.303116283 0.000000000 0.049875296
v 0.282000065 0.020659042 0.000000000
v 0.282000065 0.000000000 0.049875296
v 0.282000065 0.000000000 0.965989481
v 0.282000065 0.016630892 1.000000000
v 0.282000065 0.011923277 0.000000000
v 0.282000065 0.000000000 0.034742397
v 0.577707765 0.000000000 0.981385247
v 0.573955782 0.007710494 1.000000000
v 0.562000036 0.007710494 1.000000000
v 0.562000036 0.000000000 0.981385247
v 0.598000050 0.000000000 0.981385247
v 0.598000050 0.007710494 1.000000000
v 0.586044288 0.007710462 0.000000000
v 0.582292321 0.000000000 0.018614686
v 0.562000036 0.000000000 0.018614686
v 0.562000036 0.007710462 0.000000000
v 0.598000050 0.007710462 0.000000000
v 0.598000050 0.000000000 0.018614686
v 0.598000050 0.000000000 0.965257545
v 0.598000050 0.011923304 1.000000000
v 0.598000050 0.000000000 0.950124654
v 0.598000050 0.020659076 1.000000000
v 0.598000050 0.016630852 0.000000000
v 0.598000050 0.000000000 0.034010461
v 0.598000050 0.020659042 0.000000000
v 0.598000050 0.000000000 0.049875296
v 0.576883831 0.000000000 0.950124654
v 0.587035574 0.020659076 1.000000000
v 0.562000036 0.000000000 0.950124654
v 0.562000036 0.020659076 1.000000000
v 0.572964529 0.020659042 0.000000000
v 0.583116254 0.000000000 0.049875296
v 0.562000036 0.020659042 0.000000000
v 0.562000036 0.000000000 0.049875296
v 0.562000036 0.000000000 0.965989481
v 0.562000036 0.016630892 1.000000000
v 0.562000036 0.011923277 0.000000000
v 0.562000036 0.000000000 0.034742397
v 0.880000114 1.000000000 0.264833413
v 0.880000114 1.000000000 0.264102114
v 0.880000114 0.995000124 0.266173124
v 0.880000114 0.939081311 0.309081078
v 0.880000114 0.896173239 0.365000010
v 0.880000114 0.869200110 0.430118799
v 0.880000114 0.860000134 0.500000000
v 0.880000114 0.869200110 0.569881201
v 0.880000114 0.896173239 0.634999990
v 0.880000114 0.939081311 0.690918922
v 0.880000114 0.995000124 0.733826876
v 0.880000114 1.000000000 0.735166587
v 0.880000114 1.000000000 0.735897886
v 0.880000114 1.000000000 0.305055609
v 0.880000114 1.000000000 0.694944391
v 0.880000114 1.000000000 0.365000010
v 0.880000114 1.000000000 0.544833210
v 1.000000000 1.000000000 0.735897886
v 1.000000000 0.995000124 0.733826876
v 1.000000000 0.991789477 0.731363263
v 1.000000000 0.939081311 0.690918922
v 1.000000000 0.936617692 0.687708269
v 1.000000000 0.896173239 0.634999990
v 1.000000000 0.894624544 0.631261116
v 1.000000000 0.869200110 0.569881201
v 1.000000000 0.868671883 0.565868886
v 1.000000000 0.860000134 0.500000000
v 1.000000000 0.860528361 0.495987685
v 1.000000000 0.869200110 0.430118799
v 1.000000000 0.870748806 0.426379924
v 1.000000000 0.896173239 0.365000010
v 1.000000000 0.898636858 0.361789356
v 1.000000000 0.939081311 0.309081078
v 1.000000000 0.942291958 0.306617465
v 1.000000000 0.995000124 0.266173124
v 1.000000000 1.000000000 0.264102114
v 1.000000000 0.998738999 0.264624436
v 0.370066703 0.892681799 0.000000000
v 0.319134474 0.909999967 0.109567404
v 0.302453995 0.816242576 0.101227045
v 0.353067342 0.816242184 0.000000000
v 0.373917986 0.909999119 0.000000000
v 0.343181464 0.803009317 0.000000000
v 0.254951477 0.736758828 0.077475786
v 0.293689275 0.736758891 0.000000000
v 0.282571760 0.730114956 0.000000000
v 0.183859110 0.683649540 0.041929483
v 0.204823822 0.683649763 0.000000000
v 0.197795094 0.682399382 0.000000000
v 0.099999905 0.664999962 0.000000000
v 0.356724631 0.987311228 0.000000000
v 0.314853215 1.000000000 0.078099687
v 0.303122491 1.000000000 0.101561298
v 0.353902708 1.000000000 0.000000000
v 0.285790962 1.000000000 0.092895586
v 0.238636032 1.000000000 0.069318139
v 0.099999792 1.000000000 0.000000000
v 0.099999726 0.909999967 0.000000000
vt 0.500000000 0.500000000
vn 0.000000000 1.000000000 0.000000000
vn -1.000000000 0.000000000 0.000000000
vn 1.000000000 0.000000000 0.000000000
vn 0.000000000 -0.923879327 0.382683930
vn 0.000000000 -0.923879418 -0.382683709
vn 0.000000000 0.956939501 -0.290287430
vn 0.000000000 0.995184708 -0.098017328
vn 0.000000000 0.995184708 0.098017328
vn 0.000000000 0.956939501 0.290287430
vn 0.000000000 -0.881921299 0.471396672
vn 0.000000000 -0.881921299 -0.471396672
vn 0.000000000 -0.500000866 0.866024904
vn 0.000000000 -1.000000000 0.000000000
vn 0.000000000 -0.500000866 -0.866024904
vn 0.000000000 0.500000866 -0.866024904
vn 0.000000000 0.500000866 0.866024904
vn 0.000000000 -0.500000497 0.866025117
vn 0.000000000 -0.500000497 -0.866025117
vn 0.000000000 -0.773010734 0.634392942
vn 0.000000000 -0.881921411 0.471396462
vn 0.000000000 -0.956940508 0.290284110
vn 0.000000000 -0.995184660 0.098017822
vn 0.000000000 -0.995184660 -0.098017822
vn 0.000000000 -0.956940508 -0.290284110
vn 0.000000000 -0.881921411 -0.471396462
vn 0.000000000 -0.773010734 -0.634392942
vn 0.000000000 -0.923879336 0.382683908
vn 0.000000000 -0.923879426 -0.382683689
vn 0.000000000 0.923879327 -0.382683930
vn 0.000000000 0.923879418 0.382683709
vn 0.000000000 -0.382682503 0.923879917
vn 0.000000000 -0.608760885 0.793353758
vn 0.000000000 -0.793353568 0.608761133
vn 0.000000000 -0.923879319 0.382683947
vn 0.000000000 -0.991444967 0.130525388
vn 0.000000000 -0.991444967 -0.130525388
vn 0.000000000 -0.923879319 -0.382683947
vn 0.000000000 -0.793353568 -0.608761133
vn 0.000000000 -0.608760885 -0.793353758
vn 0.000000000 -0.382682503 -0.923879917
vn 0.877241524 -0.195089228 0.438619998
vn 0.877240415 -0.195093761 0.438620199
vn 0.743689198 -0.555570864 0.371843235
vn 0.743681544 -0.555582181 0.371841635
vn 0.496918731 -0.831469836 0.248454596
vn 0.496901520 -0.831481653 0.248449473
vn 0.174498282 -0.980785132 0.087240323
vn 0.174478226 -0.980789282 0.087233781
vn 0.877242472 0.195088989 0.438618208
vn 0.877241863 0.195094455 0.438616994
vn -0.447211428 0.000001619 0.894428275
vn -0.447211639 -0.000005282 0.894428169
vn -0.447211428 -0.000001619 0.894428275
vn -0.447213320 0.000000743 0.894427329
vn -0.447213320 -0.000000743 0.894427329
vn -0.447213693 0.000000326 0.894427142
vn -0.447213693 -0.000000326 0.894427142
usemtl mat_0
f 1/1/1 2/1/1 3/1/1 4/1/1
f 2/1/1 1/1/1 5/1/1 6/1/1
f 7/1/2 8/1/2 9/1/2
f 10/1/2 8/1/2 7/1/2
f 10/1/2 7/1/2 4/1/2
f 10/1/2 4/1/2 3/1/2
f 11/1/3 12/1/3 13/1/3
f 11/1/3 13/1/3 6/1/3
f 11/1/3 6/1/3 5/1/3
f 14/1/3 12/1/3 11/1/3
usemtl mat_3
f 15/1/3 16/1/3 17/1/3 18/1/3
f 19/1/3 20/1/3 21/1/3 22/1/3
f 23/1/3 24/1/3 16/1/3 15/1/3
f 25/1/3 26/1/3 20/1/3 19/1/3
f 27/1/3 28/1/3 24/1/3
f 27/1/3 24/1/3 23/1/3
f 27/1/3 23/1/3 26/1/3
f 27/1/3 26/1/3 25/1/3
f 29/1/3 30/1/3 28/1/3 27/1/3
f 31/1/3 32/1/3 33/1/3
f 34/1/3 30/1/3 29/1/3
f 34/1/3 29/1/3 33/1/3
f 34/1/3 33/1/3 32/1/3
f 35/1/4 36/1/4 37/1/4
f 38/1/4 36/1/4 35/1/4
f 38/1/4 35/1/4 18/1/4
f 38/1/4 18/1/4 17/1/4
f 39/1/5 40/1/5 41/1/5
f 42/1/5 40/1/5 39/1/5
f 42/1/5 39/1/5 22/1/5
f 42/1/5 22/1/5 21/1/5
usemtl mat_2
f 43/1/3 44/1/3 45/1/3
f 46/1/3 47/1/3 48/1/3 49/1/3
f 45/1/3 44/1/3 47/1/3 46/1/3
f 50/1/3 51/1/3 52/1/3 53/1/3
f 49/1/3 48/1/3 51/1/3 50/1/3
f 54/1/3 55/1/3 56/1/3 57/1/3
f 53/1/3 52/1/3 55/1/3 54/1/3
f 58/1/3 59/1/3 60/1/3
f 58/1/3 60/1/3 61/1/3
f 58/1/3 61/1/3 62/1/3
f 57/1/3 56/1/3 59/1/3 58/1/3
f 63/1/3 64/1/3 65/1/3
f 62/1/3 61/1/3 63/1/3
f 62/1/3 63/1/3 65/1/3
f 62/1/3 65/1/3 66/1/3
f 67/1/3 68/1/3 69/1/3
f 64/1/3 67/1/3 69/1/3 65/1/3
f 70/1/3 71/1/3 72/1/3
f 68/1/3 70/1/3 72/1/3 69/1/3
f 73/1/3 74/1/3 75/1/3 76/1/3
f 71/1/3 74/1/3 73/1/3
f 71/1/3 73/1/3 77/1/3
f 71/1/3 77/1/3 72/1/3
f 78/1/3 79/1/3 80/1/3
f 78/1/3 80/1/3 81/1/3
f 78/1/3 81/1/3 82/1/3
f 76/1/3 75/1/3 79/1/3 78/1/3
f 83/1/3 84/1/3 85/1/3 86/1/3
f 82/1/3 81/1/3 84/1/3 83/1/3
f 87/1/3 88/1/3 89/1/3 90/1/3
f 86/1/3 85/1/3 88/1/3 87/1/3
f 91/1/3 92/1/3 93/1/3 94/1/3
f 90/1/3 89/1/3 92/1/3 91/1/3
f 95/1/3 96/1/3 97/1/3
f 94/1/3 93/1/3 97/1/3 96/1/3
f 98/1/6 66/1/6 65/1/6 99/1/6
f 98/1/6 99/1/6 100/1/6
f 65/1/7 69/1/7 101/1/7
f 65/1/7 101/1/7 99/1/7
f 69/1/8 72/1/8 102/1/8
f 69/1/8 102/1/8 101/1/8
f 103/1/9 72/1/9 77/1/9
f 72/1/9 103/1/9 104/1/9 102/1/9
f 105/1/2 106/1/2 107/1/2 108/1/2
f 109/1/2 106/1/2 105/1/2
f 110/1/2 111/1/2 112/1/2 113/1/2
f 108/1/2 107/1/2 111/1/2 110/1/2
f 114/1/2 115/1/2 116/1/2 117/1/2
f 113/1/2 112/1/2 115/1/2 114/1/2
f 118/1/2 119/1/2 120/1/2 121/1/2
f 117/1/2 116/1/2 119/1/2 118/1/2
f 122/1/2 123/1/2 124/1/2 125/1/2
f 121/1/2 120/1/2 123/1/2
f 121/1/2 123/1/2 122/1/2
f 121/1/2 122/1/2 126/1/2
f 127/1/2 128/1/2 100/1/2
f 127/1/2 100/1/2 99/1/2
f 127/1/2 99/1/2 129/1/2
f 125/1/2 124/1/2 128/1/2 127/1/2
f 130/1/2 99/1/2 101/1/2 131/1/2
f 129/1/2 99/1/2 130/1/2
f 132/1/2 101/1/2 102/1/2 133/1/2
f 131/1/2 101/1/2 132/1/2
f 134/1/2 102/1/2 104/1/2
f 134/1/2 104/1/2 135/1/2
f 134/1/2 135/1/2 136/1/2
f 133/1/2 102/1/2 134/1/2
f 137/1/2 138/1/2 139/1/2 140/1/2
f 141/1/2 136/1/2 135/1/2
f 141/1/2 135/1/2 138/1/2
f 141/1/2 138/1/2 137/1/2
f 142/1/2 143/1/2 144/1/2 145/1/2
f 140/1/2 139/1/2 143/1/2 142/1/2
f 146/1/2 147/1/2 148/1/2 149/1/2
f 145/1/2 144/1/2 147/1/2 146/1/2
f 150/1/2 151/1/2 152/1/2 153/1/2
f 149/1/2 148/1/2 151/1/2 150/1/2
f 153/1/2 152/1/2 154/1/2
usemtl mat_1
f 155/1/10 156/1/10 157/1/10 158/1/10
f 156/1/10 155/1/10 159/1/10 160/1/10
f 161/1/11 162/1/11 163/1/11 164/1/11
f 162/1/11 161/1/11 165/1/11 166/1/11
f 109/1/3 167/1/3 168/1/3
f 169/1/3 170/1/3 171/1/3 172/1/3
f 168/1/3 167/1/3 170/1/3 169/1/3
f 173/1/3 174/1/3 175/1/3 176/1/3
f 172/1/3 171/1/3 174/1/3 173/1/3
f 177/1/3 178/1/3 179/1/3 180/1/3
f 176/1/3 175/1/3 178/1/3 177/1/3
f 181/1/3 182/1/3 160/1/3
f 181/1/3 160/1/3 159/1/3
f 181/1/3 159/1/3 183/1/3
f 181/1/3 183/1/3 124/1/3
f 180/1/3 179/1/3 182/1/3 181/1/3
f 184/1/3 185/1/3 99/1/3
f 124/1/3 183/1/3 184/1/3
f 124/1/3 184/1/3 99/1/3
f 124/1/3 99/1/3 100/1/3
f 186/1/3 131/1/3 101/1/3
f 185/1/3 186/1/3 101/1/3 99/1/3
f 187/1/3 188/1/3 102/1/3
f 131/1/3 187/1/3 102/1/3 101/1/3
f 189/1/3 190/1/3 191/1/3 135/1/3
f 188/1/3 190/1/3 189/1/3
f 188/1/3 189/1/3 104/1/3
f 188/1/3 104/1/3 102/1/3
f 192/1/3 193/1/3 166/1/3
f 192/1/3 166/1/3 165/1/3
f 192/1/3 165/1/3 194/1/3
f 192/1/3 194/1/3 195/1/3
f 135/1/3 191/1/3 193/1/3 192/1/3
f 196/1/3 197/1/3 145/1/3 144/1/3
f 195/1/3 194/1/3 197/1/3 196/1/3
f 198/1/3 199/1/3 200/1/3 201/1/3
f 144/1/3 145/1/3 199/1/3 198/1/3
f 202/1/3 203/1/3 204/1/3 205/1/3
f 201/1/3 200/1/3 203/1/3 202/1/3
f 154/1/3 206/1/3 207/1/3
f 205/1/3 204/1/3 207/1/3 206/1/3
f 208/1/6 100/1/6 99/1/6 209/1/6
f 208/1/6 209/1/6 210/1/6
f 99/1/7 101/1/7 211/1/7
f 99/1/7 211/1/7 209/1/7
f 101/1/8 102/1/8 212/1/8
f 101/1/8 212/1/8 211/1/8
f 213/1/9 102/1/9 104/1/9
f 102/1/9 213/1/9 214/1/9 212/1/9
f 215/1/2 216/1/2 217/1/2 218/1/2
f 219/1/2 216/1/2 215/1/2
f 220/1/2 221/1/2 222/1/2 223/1/2
f 218/1/2 217/1/2 221/1/2 220/1/2
f 224/1/2 225/1/2 226/1/2 227/1/2
f 223/1/2 222/1/2 225/1/2 224/1/2
f 228/1/2 229/1/2 230/1/2 231/1/2
f 227/1/2 226/1/2 229/1/2 228/1/2
f 232/1/2 233/1/2 234/1/2 235/1/2
f 231/1/2 230/1/2 233/1/2
f 231/1/2 233/1/2 232/1/2
f 231/1/2 232/1/2 158/1/2
f 231/1/2 158/1/2 157/1/2
f 236/1/2 237/1/2 210/1/2
f 236/1/2 210/1/2 209/1/2
f 236/1/2 209/1/2 238/1/2
f 235/1/2 234/1/2 237/1/2 236/1/2
f 239/1/2 209/1/2 211/1/2 240/1/2
f 238/1/2 209/1/2 239/1/2
f 241/1/2 211/1/2 212/1/2 242/1/2
f 240/1/2 211/1/2 241/1/2
f 243/1/2 212/1/2 214/1/2
f 243/1/2 214/1/2 244/1/2
f 243/1/2 244/1/2 245/1/2
f 242/1/2 212/1/2 243/1/2
f 246/1/2 247/1/2 248/1/2 249/1/2
f 245/1/2 244/1/2 247/1/2
f 245/1/2 247/1/2 246/1/2
f 245/1/2 246/1/2 164/1/2
f 245/1/2 164/1/2 163/1/2
f 250/1/2 251/1/2 252/1/2 253/1/2
f 249/1/2 248/1/2 251/1/2 250/1/2
f 254/1/2 255/1/2 256/1/2 257/1/2
f 253/1/2 252/1/2 255/1/2 254/1/2
f 258/1/2 259/1/2 260/1/2 261/1/2
f 257/1/2 256/1/2 259/1/2 258/1/2
f 261/1/2 260/1/2 262/1/2
usemtl mat_2
f 263/1/2 264/1/2 265/1/2
f 265/1/2 266/1/2 267/1/2
f 267/1/2 268/1/2 263/1/2
f 265/1/2 267/1/2 263/1/2
f 269/1/3 270/1/3 271/1/3
f 271/1/3 272/1/3 273/1/3
f 273/1/3 274/1/3 269/1/3
f 271/1/3 273/1/3 269/1/3
f 263/1/12 268/1/12 271/1/12
f 263/1/12 271/1/12 270/1/12
f 268/1/13 267/1/13 272/1/13
f 268/1/13 272/1/13 271/1/13
f 267/1/14 266/1/14 273/1/14
f 267/1/14 273/1/14 272/1/14
f 266/1/15 265/1/15 274/1/15
f 266/1/15 274/1/15 273/1/15
f 265/1/1 264/1/1 269/1/1
f 265/1/1 269/1/1 274/1/1
f 264/1/16 263/1/16 270/1/16
f 264/1/16 270/1/16 269/1/16
f 275/1/2 276/1/2 277/1/2
f 278/1/2 277/1/2 279/1/2 280/1/2
f 281/1/2 282/1/2 275/1/2
f 277/1/2 278/1/2 281/1/2 275/1/2
f 283/1/3 284/1/3 285/1/3 286/1/3
f 287/1/3 288/1/3 289/1/3
f 289/1/3 290/1/3 284/1/3
f 283/1/3 287/1/3 289/1/3 284/1/3
f 291/1/17 275/1/17 282/1/17
f 275/1/17 291/1/17 286/1/17 285/1/17
f 292/1/18 280/1/18 279/1/18 289/1/18
f 292/1/18 289/1/18 288/1/18
f 279/1/15 277/1/15 290/1/15
f 279/1/15 290/1/15 289/1/15
f 277/1/1 276/1/1 284/1/1
f 277/1/1 284/1/1 290/1/1
f 276/1/16 275/1/16 285/1/16
f 276/1/16 285/1/16 284/1/16
f 293/1/2 294/1/2 295/1/2
f 295/1/2 296/1/2 297/1/2
f 297/1/2 298/1/2 293/1/2
f 295/1/2 297/1/2 293/1/2
f 299/1/3 300/1/3 301/1/3
f 301/1/3 302/1/3 303/1/3
f 303/1/3 304/1/3 299/1/3
f 301/1/3 303/1/3 299/1/3
f 293/1/12 298/1/12 301/1/12
f 293/1/12 301/1/12 300/1/12
f 298/1/13 297/1/13 302/1/13
f 298/1/13 302/1/13 301/1/13
f 297/1/14 296/1/14 303/1/14
f 297/1/14 303/1/14 302/1/14
f 296/1/15 295/1/15 304/1/15
f 296/1/15 304/1/15 303/1/15
f 295/1/1 294/1/1 299/1/1
f 295/1/1 299/1/1 304/1/1
f 294/1/16 293/1/16 300/1/16
f 294/1/16 300/1/16 299/1/16
usemtl mat_3
f 305/1/2 306/1/2 307/1/2 308/1/2
f 308/1/2 309/1/2 310/1/2
f 310/1/2 311/1/2 312/1/2
f 313/1/2 312/1/2 314/1/2 315/1/2
f 316/1/2 305/1/2 308/1/2 310/1/2
f 317/1/2 310/1/2 312/1/2 313/1/2
f 318/1/2 316/1/2 310/1/2
f 319/1/2 310/1/2 317/1/2
f 43/1/2 95/1/2 318/1/2
f 43/1/2 318/1/2 310/1/2
f 43/1/2 310/1/2 319/1/2
f 320/1/3 321/1/3 322/1/3
f 322/1/3 323/1/3 324/1/3
f 324/1/3 325/1/3 326/1/3
f 326/1/3 327/1/3 328/1/3
f 329/1/3 328/1/3 330/1/3
f 331/1/3 320/1/3 322/1/3 324/1/3
f 324/1/3 326/1/3 328/1/3
f 332/1/3 328/1/3 329/1/3
f 333/1/3 331/1/3 324/1/3
f 334/1/3 324/1/3 328/1/3 332/1/3
f 335/1/3 336/1/3 333/1/3
f 335/1/3 333/1/3 324/1/3
f 335/1/3 324/1/3 334/1/3
f 337/1/19 315/1/19 314/1/19 322/1/19
f 337/1/19 322/1/19 321/1/19
f 314/1/20 312/1/20 323/1/20
f 314/1/20 323/1/20 322/1/20
f 312/1/21 311/1/21 324/1/21
f 312/1/21 324/1/21 323/1/21
f 311/1/22 310/1/22 325/1/22
f 311/1/22 325/1/22 324/1/22
f 310/1/23 309/1/23 326/1/23
f 310/1/23 326/1/23 325/1/23
f 309/1/24 308/1/24 327/1/24
f 309/1/24 327/1/24 326/1/24
f 308/1/25 307/1/25 328/1/25
f 308/1/25 328/1/25 327/1/25
f 338/1/26 307/1/26 306/1/26
f 307/1/26 338/1/26 330/1/26 328/1/26
usemtl mat_2
f 339/1/27 340/1/27 341/1/27 342/1/27
f 340/1/27 339/1/27 343/1/27 344/1/27
f 345/1/28 346/1/28 347/1/28 348/1/28
f 346/1/28 345/1/28 349/1/28 350/1/28
f 351/1/3 352/1/3 344/1/3 343/1/3
f 352/1/3 351/1/3 353/1/3 354/1/3
f 355/1/3 356/1/3 350/1/3 349/1/3
f 356/1/3 355/1/3 357/1/3 358/1/3
f 359/1/29 360/1/29 354/1/29 353/1/29
f 360/1/29 359/1/29 361/1/29 362/1/29
f 363/1/30 364/1/30 358/1/30 357/1/30
f 364/1/30 363/1/30 365/1/30 366/1/30
f 367/1/2 368/1/2 362/1/2 361/1/2
f 368/1/2 367/1/2 342/1/2 341/1/2
f 369/1/2 370/1/2 366/1/2 365/1/2
f 370/1/2 369/1/2 348/1/2 347/1/2
f 371/1/27 372/1/27 373/1/27 374/1/27
f 372/1/27 371/1/27 375/1/27 376/1/27
f 377/1/28 378/1/28 379/1/28 380/1/28
f 378/1/28 377/1/28 381/1/28 382/1/28
f 383/1/3 384/1/3 376/1/3 375/1/3
f 384/1/3 383/1/3 385/1/3 386/1/3
f 387/1/3 388/1/3 382/1/3 381/1/3
f 388/1/3 387/1/3 389/1/3 390/1/3
f 391/1/29 392/1/29 386/1/29 385/1/29
f 392/1/29 391/1/29 393/1/29 394/1/29
f 395/1/30 396/1/30 390/1/30 389/1/30
f 396/1/30 395/1/30 397/1/30 398/1/30
f 399/1/2 400/1/2 394/1/2 393/1/2
f 400/1/2 399/1/2 374/1/2 373/1/2
f 401/1/2 402/1/2 398/1/2 397/1/2
f 402/1/2 401/1/2 380/1/2 379/1/2
usemtl mat_4
f 403/1/2 404/1/2 405/1/2
f 405/1/2 406/1/2 407/1/2
f 407/1/2 408/1/2 409/1/2
f 409/1/2 410/1/2 411/1/2
f 411/1/2 412/1/2 413/1/2
f 414/1/2 413/1/2 415/1/2
f 416/1/2 403/1/2 405/1/2 407/1/2
f 407/1/2 409/1/2 411/1/2
f 417/1/2 411/1/2 413/1/2 414/1/2
f 418/1/2 416/1/2 407/1/2
f 419/1/2 407/1/2 411/1/2 417/1/2
f 418/1/2 407/1/2 419/1/2
f 420/1/31 415/1/31 413/1/31 421/1/31
f 422/1/32 413/1/32 412/1/32 423/1/32
f 421/1/32 413/1/32 422/1/32
f 424/1/33 412/1/33 411/1/33 425/1/33
f 423/1/33 412/1/33 424/1/33
f 426/1/34 411/1/34 410/1/34 427/1/34
f 425/1/34 411/1/34 426/1/34
f 428/1/35 410/1/35 409/1/35 429/1/35
f 427/1/35 410/1/35 428/1/35
f 430/1/36 409/1/36 408/1/36 431/1/36
f 429/1/36 409/1/36 430/1/36
f 432/1/37 408/1/37 407/1/37 433/1/37
f 431/1/37 408/1/37 432/1/37
f 434/1/38 407/1/38 406/1/38 435/1/38
f 433/1/38 407/1/38 434/1/38
f 436/1/39 406/1/39 405/1/39 437/1/39
f 435/1/39 406/1/39 436/1/39
f 438/1/40 439/1/40 405/1/40 404/1/40
f 437/1/40 405/1/40 439/1/40
usemtl mat_3
f 440/1/41 441/1/41 442/1/41 443/1/41
f 444/1/42 441/1/42 440/1/42
f 445/1/43 442/1/43 446/1/43 447/1/43
f 443/1/44 442/1/44 445/1/44
f 448/1/45 446/1/45 449/1/45 450/1/45
f 447/1/46 446/1/46 448/1/46
f 451/1/47 449/1/47 452/1/47
f 450/1/48 449/1/48 451/1/48
f 453/1/49 454/1/49 455/1/49
f 453/1/49 455/1/49 441/1/49
f 453/1/49 441/1/49 444/1/49
f 456/1/50 454/1/50 453/1/50
f 457/1/51 441/1/51 455/1/51
f 452/1/52 449/1/52 446/1/52
f 446/1/53 442/1/53 441/1/53
f 458/1/54 441/1/54 457/1/54
f 452/1/55 446/1/55 441/1/55
f 459/1/56 460/1/56 441/1/56 458/1/56
f 460/1/57 452/1/57 441/1/57
