# Authored in Blender; exported by tools-export-modern.py
mtllib materials.mtl
s off
v 1.000000000 0.202089556 0.900000095
v 0.000000000 0.166268660 0.900000095
v 0.000000000 0.340000004 0.900000095
v 1.000000000 0.340000004 0.900000095
v 1.000000000 0.100000001 0.900000095
v 0.000000000 0.100000001 0.900000095
v 1.000000000 0.100000001 1.000000000
v 0.064284387 0.100000001 1.000000000
v 0.000000000 0.100000001 0.996641861
v 0.000000000 0.100000001 1.000000000
v 0.064284387 0.340000004 1.000000000
v 0.000000000 0.340000004 0.996641861
v 0.000000000 0.340000004 1.000000000
v 1.000000000 0.340000004 1.000000000
v 1.000000000 0.339852940 0.829999924
v 0.000000000 0.329558824 0.829999924
v 0.000000000 0.379999995 0.829999924
v 1.000000000 0.379999995 0.829999924
v 1.000000000 0.310000002 0.829999924
v 0.000000000 0.310000002 0.829999924
v 1.000000000 0.310000002 1.000000000
v 0.459183572 0.310000002 1.000000000
v 0.000000000 0.310000002 0.966911756
v 0.000000000 0.310000002 1.000000000
v 0.459183572 0.379999995 1.000000000
v 0.000000000 0.379999995 0.966911756
v 0.000000000 0.379999995 1.000000000
v 1.000000000 0.379999995 1.000000000
v 0.700000000 1.000000000 0.380000114
v 0.569999933 0.349999994 0.380000114
v 0.890000105 0.349999994 0.380000114
v 0.890000105 1.000000000 0.380000114
v 0.569999933 1.000000000 0.380000114
v 0.820909142 0.349999994 0.000000000
v 0.890000105 0.349999994 0.000000000
v 0.569999933 0.349999994 0.000000000
v 0.569999933 1.000000000 0.000000000
v 0.890000105 1.000000000 0.000000000
v 0.733424478 0.958510013 0.000000000
v 0.691167799 1.000000000 0.077622371
v 0.620000124 1.000000000 0.077622371
v 0.620000124 0.958510013 0.000000000
v 0.740000010 0.958510013 0.000000000
v 0.740000010 1.000000000 0.077622371
v 0.740000010 1.000000000 0.000000000
v 0.620000124 1.000000000 0.000000000
vt 0.500000000 0.500000000
vn 0.000000000 0.000000000 -1.000000000
vn 0.000000000 -1.000000000 0.000000000
vn 0.000000000 1.000000000 0.000000000
vn 0.000000000 0.000000000 1.000000000
vn -1.000000000 0.000000000 0.000000000
vn 1.000000000 0.000000000 0.000000000
vn 0.000000000 -0.881921426 0.471396434
usemtl mat_0
f 1/1/1 2/1/1 3/1/1 4/1/1
f 5/1/1 6/1/1 2/1/1 1/1/1
f 7/1/2 8/1/2 9/1/2
f 7/1/2 9/1/2 6/1/2
f 7/1/2 6/1/2 5/1/2
f 10/1/2 9/1/2 8/1/2
f 11/1/3 12/1/3 13/1/3
f 14/1/3 4/1/3 3/1/3
f 14/1/3 3/1/3 12/1/3
f 14/1/3 12/1/3 11/1/3
f 15/1/1 16/1/1 17/1/1 18/1/1
f 19/1/1 20/1/1 16/1/1 15/1/1
f 21/1/2 22/1/2 23/1/2
f 21/1/2 23/1/2 20/1/2
f 21/1/2 20/1/2 19/1/2
f 24/1/2 23/1/2 22/1/2
f 25/1/3 26/1/3 27/1/3
f 28/1/3 18/1/3 17/1/3
f 28/1/3 17/1/3 26/1/3
f 28/1/3 26/1/3 25/1/3
f 29/1/4 30/1/4 31/1/4 32/1/4
f 33/1/4 30/1/4 29/1/4
f 34/1/2 35/1/2 31/1/2
f 36/1/2 34/1/2 31/1/2 30/1/2
f 37/1/5 36/1/5 30/1/5 33/1/5
f 35/1/6 38/1/6 32/1/6 31/1/6
usemtl mat_2
f 39/1/7 40/1/7 41/1/7 42/1/7
f 40/1/7 39/1/7 43/1/7 44/1/7
f 45/1/6 44/1/6 43/1/6
f 46/1/5 42/1/5 41/1/5
