# Authored in Blender; exported by tools-export-modern.py
mtllib materials.mtl
s off
v 1.000000000 0.202089556 0.349999994
v 0.000000000 0.166268660 0.349999994
v 0.000000000 0.340000004 0.349999994
v 1.000000000 0.340000004 0.349999994
v 1.000000000 0.100000001 0.349999994
v 0.000000000 0.100000001 0.349999994
v 1.000000000 0.202089556 0.699999988
v 0.000000000 0.166268660 0.699999988
v 0.000000000 0.100000001 0.699999988
v 1.000000000 0.100000001 0.699999988
v 1.000000000 0.340000004 0.699999988
v 0.000000000 0.340000004 0.699999988
v 1.000000000 0.100000001 0.498880590
v 0.000000000 0.100000001 0.446641785
v 1.000000000 0.340000004 0.498880590
v 0.000000000 0.340000004 0.446641785
v 1.000000000 0.339852940 0.280000001
v 0.000000000 0.329558824 0.280000001
v 0.000000000 0.379999995 0.280000001
v 1.000000000 0.379999995 0.280000001
v 1.000000000 0.310000002 0.280000001
v 0.000000000 0.310000002 0.280000001
v 1.000000000 0.339852940 0.769999981
v 0.000000000 0.329558824 0.769999981
v 0.000000000 0.310000002 0.769999981
v 1.000000000 0.310000002 0.769999981
v 1.000000000 0.379999995 0.769999981
v 0.000000000 0.379999995 0.769999981
v 1.000000000 0.310000002 0.488970578
v 0.000000000 0.310000002 0.416911758
v 1.000000000 0.379999995 0.488970578
v 0.000000000 0.379999995 0.416911758
v 1.000000000 0.715714317 0.819999993
v 0.000000000 0.572857160 0.819999993
v 0.000000000 0.730000019 0.819999993
v 1.000000000 0.730000019 0.819999993
v 1.000000000 0.379999995 0.819999993
v 0.000000000 0.379999995 0.819999993
v 1.000000000 0.379999995 1.000000000
v 0.000000000 0.379999995 1.000000000
v 1.000000000 0.730000019 1.000000000
v 0.000000000 0.730000019 1.000000000
v 0.950000048 0.812492009 1.000000000
v 0.950000048 0.810335974 1.000000000
v 0.950000048 0.816286802 0.988320827
v 0.950000048 0.858320832 0.946286798
v 0.950000048 0.911286771 0.919299304
v 0.950000048 1.000000000 0.919299304
v 0.950000048 0.970000029 0.910000026
v 0.950000048 1.000000000 0.914751566
v 0.950000048 0.816286802 1.000000000
v 0.950000048 1.000000000 0.928628796
v 0.950000048 0.824772215 1.000000000
v 0.950000048 1.000000000 1.000000000
v 0.950000048 0.852231605 1.000000000
v 0.453867821 0.810335974 1.000000000
v 0.000000000 0.810335974 1.000000000
v 0.000000000 0.816286802 0.988320827
v 0.000000000 0.840573130 0.964034499
v 0.000000000 0.858320832 0.946286798
v 0.000000000 0.888923374 0.930694024
v 0.000000000 0.911286771 0.919299304
v 0.000000000 0.945209986 0.913926388
v 0.000000000 0.970000029 0.910000026
v 0.000000000 1.000000000 0.914751566
v 0.746161820 0.763912675 1.000000000
v 0.710000038 0.763912675 1.000000000
v 0.710000038 0.778761983 0.972218871
v 0.829999924 0.778761983 0.972218871
v 0.829999924 0.763912675 1.000000000
v 0.710000038 0.807365477 0.937365472
v 0.829999924 0.807365477 0.937365472
v 0.710000038 0.842218876 0.908761978
v 0.829999924 0.842218876 0.908761978
v 0.710000038 0.881982863 0.887507737
v 0.829999924 0.881982863 0.887507737
v 0.710000038 0.925129235 0.874419391
v 0.829999924 0.925129235 0.874419391
v 0.710000038 0.970000029 0.870000005
v 0.829999924 0.970000029 0.870000005
v 0.790230353 1.000000000 0.872954747
v 0.710000038 1.000000000 0.872954747
v 0.829999924 1.000000000 0.872954747
v 0.829999924 0.820339367 1.000000000
v 0.829999924 0.824261320 1.000000000
v 0.829999924 0.870000033 1.000000000
v 0.829999924 0.875342840 1.000000000
v 0.829999924 0.903182159 1.000000000
v 0.829999924 0.908732386 1.000000000
v 0.829999924 0.928578704 1.000000000
v 0.829999924 0.934062733 1.000000000
v 0.829999924 0.950108779 1.000000000
v 0.829999924 0.955492858 1.000000000
v 0.829999924 0.970000029 1.000000000
v 0.829999924 0.975317835 1.000000000
v 0.829999924 1.000000000 0.949179861
v 0.829999924 0.989891259 1.000000000
v 0.829999924 0.995188402 1.000000000
v 0.829999924 1.000000000 0.969300256
v 0.829999924 1.000000000 1.000000000
v 0.710000038 0.816869973 1.000000000
v 0.710000038 0.820339367 1.000000000
v 0.710000038 0.865077077 1.000000000
v 0.710000038 0.870000033 1.000000000
v 0.710000038 0.897927329 1.000000000
v 0.710000038 0.903182159 1.000000000
v 0.710000038 0.923277351 1.000000000
v 0.710000038 0.928578704 1.000000000
v 0.710000038 0.944811636 1.000000000
v 0.710000038 0.950108779 1.000000000
v 0.710000038 0.964682223 1.000000000
v 0.710000038 0.970000029 1.000000000
v 0.710000038 1.000000000 0.935923313
v 0.710000038 0.984507180 1.000000000
v 0.710000038 0.989891259 1.000000000
v 0.710000038 1.000000000 0.949179861
v 0.710000038 1.000000000 1.000000000
v 0.692183930 0.774294220 1.000000000
v 0.679999828 0.774294220 1.000000000
v 0.679999828 0.786411524 0.977330089
v 0.710000038 0.786411524 0.977330089
v 0.710000038 0.774294220 1.000000000
v 0.679999828 0.813870847 0.943870842
v 0.710000038 0.813870847 0.943870842
v 0.679999828 0.847330093 0.916411519
v 0.710000038 0.847330093 0.916411519
v 0.679999828 0.885503531 0.896007419
v 0.710000038 0.885503531 0.896007419
v 0.679999828 0.926924109 0.883442640
v 0.710000038 0.926924109 0.883442640
v 0.679999828 0.970000029 0.879200041
v 0.710000038 0.970000029 0.879200041
v 0.700893299 1.000000000 0.882154775
v 0.679999828 1.000000000 0.882154775
v 0.710000038 1.000000000 0.882154775
v 0.710000038 0.820339418 1.000000000
v 0.710000038 0.823713112 1.000000000
v 0.710000038 0.870000031 1.000000000
v 0.710000038 0.875041416 1.000000000
v 0.710000038 0.903182141 1.000000000
v 0.710000038 0.908532296 1.000000000
v 0.710000038 0.928578698 1.000000000
v 0.710000038 0.933909898 1.000000000
v 0.710000038 0.950108792 1.000000000
v 0.710000038 0.955361404 1.000000000
v 0.710000038 0.975191879 1.000000000
v 0.710000038 1.000000000 0.949179919
v 0.710000038 0.989891265 1.000000000
v 0.710000038 0.995054804 1.000000000
v 0.710000038 1.000000000 0.968015405
v 0.679999828 0.817373550 1.000000000
v 0.679999828 0.820339418 1.000000000
v 0.679999828 0.865374061 1.000000000
v 0.679999828 0.870000031 1.000000000
v 0.679999828 0.898130756 1.000000000
v 0.679999828 0.903182141 1.000000000
v 0.679999828 0.923433926 1.000000000
v 0.679999828 0.928578698 1.000000000
v 0.679999828 0.944945253 1.000000000
v 0.679999828 0.950108792 1.000000000
v 0.679999828 0.964808178 1.000000000
v 0.679999828 0.970000029 1.000000000
v 0.679999828 1.000000000 0.937037681
v 0.679999828 0.984638653 1.000000000
v 0.679999828 0.989891265 1.000000000
v 0.679999828 1.000000000 0.949179919
v 0.679999828 1.000000000 1.000000000
v 0.629999876 0.833387017 0.976037025
v 0.629999876 0.844342232 0.969712019
v 0.629999876 0.844342232 0.957062006
v 0.629999876 0.833387017 0.950737000
v 0.629999876 0.822431803 0.957062006
v 0.629999876 0.822431803 0.969712019
v 0.865000010 0.844342232 0.969712019
v 0.865000010 0.833387017 0.976037025
v 0.865000010 0.822431803 0.969712019
v 0.865000010 0.822431803 0.957062006
v 0.865000010 0.833387017 0.950737000
v 0.865000010 0.844342232 0.957062006
v 0.629999876 0.970000029 0.919450045
v 0.629999876 0.980955243 0.913125038
v 0.629999876 0.980955243 0.900475025
v 0.629999876 0.970000029 0.894150019
v 0.629999876 0.959044814 0.900475025
v 0.629999876 0.959044814 0.913125038
v 0.865000010 0.980955243 0.913125038
v 0.865000010 0.970000029 0.919450045
v 0.865000010 0.959044814 0.913125038
v 0.865000010 0.959044814 0.900475025
v 0.865000010 0.970000029 0.894150019
v 0.865000010 0.980955243 0.900475025
vt 0.500000000 0.500000000
vn 0.000000000 0.000000000 -1.000000000
vn 0.000000000 0.000000000 1.000000000
vn 0.000000000 -1.000000000 0.000000000
vn 0.000000000 1.000000000 0.000000000
vn 1.000000000 0.000000000 0.000000000
vn 0.000000000 -0.891006737 -0.453990083
vn 0.000000000 -0.707106781 -0.707106781
vn 0.000000000 -0.453990488 -0.891006530
vn 0.000000000 -0.156434660 -0.987688310
vn 0.000000000 0.156434815 -0.987688285
vn 0.000000000 -0.881921454 -0.471396382
vn 0.000000000 -0.773009921 -0.634393933
vn 0.000000000 -0.634393933 -0.773009921
vn 0.000000000 -0.471395832 -0.881921748
vn 0.000000000 -0.290285423 -0.956940110
vn 0.000000000 -0.098017117 -0.995184729
vn 0.000000000 0.098017246 -0.995184716
vn -1.000000000 0.000000000 -0.000000000
vn 0.000000000 -0.881921522 -0.471396255
vn 0.000000000 -0.773010117 -0.634393695
vn 0.000000000 -0.634393695 -0.773010117
vn 0.000000000 -0.471396255 -0.881921522
vn 0.000000000 -0.290284319 -0.956940444
vn 0.000000000 -0.098016941 -0.995184746
vn 0.000000000 0.098016941 -0.995184746
vn 0.000000000 -0.500000619 0.866025046
vn 0.000000000 -0.500000619 -0.866025046
vn 0.000000000 0.500000619 -0.866025046
vn 0.000000000 0.500000619 0.866025046
usemtl mat_0
f 1/1/1 2/1/1 3/1/1 4/1/1
f 5/1/1 6/1/1 2/1/1 1/1/1
f 7/1/2 8/1/2 9/1/2 10/1/2
f 8/1/2 7/1/2 11/1/2 12/1/2
f 13/1/3 14/1/3 6/1/3 5/1/3
f 14/1/3 13/1/3 10/1/3 9/1/3
f 15/1/4 16/1/4 12/1/4 11/1/4
f 4/1/4 3/1/4 16/1/4 15/1/4
f 17/1/1 18/1/1 19/1/1 20/1/1
f 21/1/1 22/1/1 18/1/1 17/1/1
f 23/1/2 24/1/2 25/1/2 26/1/2
f 24/1/2 23/1/2 27/1/2 28/1/2
f 29/1/3 30/1/3 22/1/3 21/1/3
f 30/1/3 29/1/3 26/1/3 25/1/3
f 31/1/4 32/1/4 28/1/4 27/1/4
f 20/1/4 19/1/4 32/1/4 31/1/4
f 33/1/1 34/1/1 35/1/1 36/1/1
f 37/1/1 38/1/1 34/1/1 33/1/1
f 39/1/3 40/1/3 38/1/3 37/1/3
f 41/1/4 36/1/4 35/1/4 42/1/4
usemtl mat_2
f 43/1/5 44/1/5 45/1/5
f 45/1/5 46/1/5 47/1/5
f 48/1/5 47/1/5 49/1/5 50/1/5
f 51/1/5 43/1/5 45/1/5
f 52/1/5 45/1/5 47/1/5 48/1/5
f 53/1/5 51/1/5 45/1/5
f 54/1/5 55/1/5 45/1/5 52/1/5
f 53/1/5 45/1/5 55/1/5
f 56/1/6 57/1/6 58/1/6 45/1/6
f 56/1/6 45/1/6 44/1/6
f 59/1/7 60/1/7 46/1/7
f 58/1/7 59/1/7 46/1/7 45/1/7
f 61/1/8 62/1/8 47/1/8
f 60/1/8 61/1/8 47/1/8 46/1/8
f 63/1/9 64/1/9 49/1/9
f 62/1/9 63/1/9 49/1/9 47/1/9
f 64/1/10 65/1/10 50/1/10 49/1/10
f 66/1/11 67/1/11 68/1/11 69/1/11
f 66/1/11 69/1/11 70/1/11
f 68/1/12 71/1/12 72/1/12
f 68/1/12 72/1/12 69/1/12
f 71/1/13 73/1/13 74/1/13
f 71/1/13 74/1/13 72/1/13
f 73/1/14 75/1/14 76/1/14
f 73/1/14 76/1/14 74/1/14
f 75/1/15 77/1/15 78/1/15
f 75/1/15 78/1/15 76/1/15
f 77/1/16 79/1/16 80/1/16
f 77/1/16 80/1/16 78/1/16
f 81/1/17 79/1/17 82/1/17
f 79/1/17 81/1/17 83/1/17 80/1/17
f 70/1/5 69/1/5 84/1/5
f 85/1/5 69/1/5 72/1/5 86/1/5
f 84/1/5 69/1/5 85/1/5
f 87/1/5 72/1/5 74/1/5 88/1/5
f 86/1/5 72/1/5 87/1/5
f 89/1/5 74/1/5 76/1/5 90/1/5
f 88/1/5 74/1/5 89/1/5
f 91/1/5 76/1/5 78/1/5 92/1/5
f 90/1/5 76/1/5 91/1/5
f 93/1/5 78/1/5 80/1/5 94/1/5
f 92/1/5 78/1/5 93/1/5
f 95/1/5 80/1/5 83/1/5
f 95/1/5 83/1/5 96/1/5
f 95/1/5 96/1/5 97/1/5
f 94/1/5 80/1/5 95/1/5
f 98/1/5 99/1/5 100/1/5
f 97/1/5 96/1/5 99/1/5 98/1/5
f 101/1/18 102/1/18 68/1/18
f 101/1/18 68/1/18 67/1/18
f 103/1/18 104/1/18 71/1/18
f 102/1/18 103/1/18 71/1/18 68/1/18
f 105/1/18 106/1/18 73/1/18
f 104/1/18 105/1/18 73/1/18 71/1/18
f 107/1/18 108/1/18 75/1/18
f 106/1/18 107/1/18 75/1/18 73/1/18
f 109/1/18 110/1/18 77/1/18
f 108/1/18 109/1/18 77/1/18 75/1/18
f 111/1/18 112/1/18 79/1/18
f 110/1/18 111/1/18 79/1/18 77/1/18
f 113/1/18 114/1/18 115/1/18 116/1/18
f 112/1/18 114/1/18 113/1/18
f 112/1/18 113/1/18 82/1/18
f 112/1/18 82/1/18 79/1/18
f 117/1/18 116/1/18 115/1/18
usemtl mat_1
f 118/1/19 119/1/19 120/1/19 121/1/19
f 118/1/19 121/1/19 122/1/19
f 120/1/20 123/1/20 124/1/20
f 120/1/20 124/1/20 121/1/20
f 123/1/21 125/1/21 126/1/21
f 123/1/21 126/1/21 124/1/21
f 125/1/22 127/1/22 128/1/22
f 125/1/22 128/1/22 126/1/22
f 127/1/23 129/1/23 130/1/23
f 127/1/23 130/1/23 128/1/23
f 129/1/24 131/1/24 132/1/24
f 129/1/24 132/1/24 130/1/24
f 133/1/25 131/1/25 134/1/25
f 131/1/25 133/1/25 135/1/25 132/1/25
f 122/1/5 121/1/5 136/1/5
f 137/1/5 121/1/5 124/1/5 138/1/5
f 136/1/5 121/1/5 137/1/5
f 139/1/5 124/1/5 126/1/5 140/1/5
f 138/1/5 124/1/5 139/1/5
f 141/1/5 126/1/5 128/1/5 142/1/5
f 140/1/5 126/1/5 141/1/5
f 143/1/5 128/1/5 130/1/5 144/1/5
f 142/1/5 128/1/5 143/1/5
f 145/1/5 130/1/5 132/1/5 112/1/5
f 144/1/5 130/1/5 145/1/5
f 146/1/5 132/1/5 135/1/5
f 146/1/5 135/1/5 147/1/5
f 146/1/5 147/1/5 148/1/5
f 112/1/5 132/1/5 146/1/5
f 149/1/5 150/1/5 117/1/5
f 148/1/5 147/1/5 150/1/5 149/1/5
f 151/1/18 152/1/18 120/1/18
f 151/1/18 120/1/18 119/1/18
f 153/1/18 154/1/18 123/1/18
f 152/1/18 153/1/18 123/1/18 120/1/18
f 155/1/18 156/1/18 125/1/18
f 154/1/18 155/1/18 125/1/18 123/1/18
f 157/1/18 158/1/18 127/1/18
f 156/1/18 157/1/18 127/1/18 125/1/18
f 159/1/18 160/1/18 129/1/18
f 158/1/18 159/1/18 129/1/18 127/1/18
f 161/1/18 162/1/18 131/1/18
f 160/1/18 161/1/18 131/1/18 129/1/18
f 163/1/18 164/1/18 165/1/18 166/1/18
f 162/1/18 164/1/18 163/1/18
f 162/1/18 163/1/18 134/1/18
f 162/1/18 134/1/18 131/1/18
f 167/1/18 166/1/18 165/1/18
usemtl mat_2
f 168/1/18 169/1/18 170/1/18
f 170/1/18 171/1/18 172/1/18
f 172/1/18 173/1/18 168/1/18
f 170/1/18 172/1/18 168/1/18
f 174/1/5 175/1/5 176/1/5
f 176/1/5 177/1/5 178/1/5
f 178/1/5 179/1/5 174/1/5
f 176/1/5 178/1/5 174/1/5
f 168/1/26 173/1/26 176/1/26
f 168/1/26 176/1/26 175/1/26
f 173/1/3 172/1/3 177/1/3
f 173/1/3 177/1/3 176/1/3
f 172/1/27 171/1/27 178/1/27
f 172/1/27 178/1/27 177/1/27
f 171/1/28 170/1/28 179/1/28
f 171/1/28 179/1/28 178/1/28
f 170/1/4 169/1/4 174/1/4
f 170/1/4 174/1/4 179/1/4
f 169/1/29 168/1/29 175/1/29
f 169/1/29 175/1/29 174/1/29
f 180/1/18 181/1/18 182/1/18
f 182/1/18 183/1/18 184/1/18
f 184/1/18 185/1/18 180/1/18
f 182/1/18 184/1/18 180/1/18
f 186/1/5 187/1/5 188/1/5
f 188/1/5 189/1/5 190/1/5
f 190/1/5 191/1/5 186/1/5
f 188/1/5 190/1/5 186/1/5
f 180/1/26 185/1/26 188/1/26
f 180/1/26 188/1/26 187/1/26
f 185/1/3 184/1/3 189/1/3
f 185/1/3 189/1/3 188/1/3
f 184/1/27 183/1/27 190/1/27
f 184/1/27 190/1/27 189/1/27
f 183/1/28 182/1/28 191/1/28
f 183/1/28 191/1/28 190/1/28
f 182/1/4 181/1/4 186/1/4
f 182/1/4 186/1/4 191/1/4
f 181/1/29 180/1/29 187/1/29
f 181/1/29 187/1/29 186/1/29
