# Authored in Blender; exported by tools-export-modern.py
mtllib materials.mtl
s off
v 0.480000019 0.688861994 0.000000000
v 0.480000019 0.363942302 1.000000000
v 0.480000019 1.000000000 1.000000000
v 0.480000019 1.000000000 0.000000000
v 0.480000019 0.000000000 0.000000000
v 0.480000019 0.000000000 0.128452092
v 0.480000019 0.176799139 0.000000000
v 0.480000019 0.000000000 1.000000000
v 0.460000038 0.111394531 0.000000000
v 0.460000038 0.030543852 0.000000000
v 0.460000038 0.102687359 0.362689972
v 0.460000038 0.130000114 0.000000000
v 0.460000038 0.130000114 0.359999895
v 0.460000038 0.011902632 0.000000000
v 0.460000038 0.000000000 0.000000000
v 0.460000038 0.000000000 0.186152196
v 0.460000038 0.076424360 0.370656967
v 0.460000038 0.000000000 0.248436032
v 0.460000038 0.000000000 0.305441023
v 0.460000038 0.052220345 0.383594275
v 0.460000038 0.000000000 0.352101138
v 0.460000038 0.000000000 0.369999886
v 0.460000038 0.031005144 0.401005030
v 0.460000038 0.000000000 0.407957061
v 0.460000038 0.000000000 0.413136748
v 0.460000038 0.013594389 0.422220230
v 0.460000038 0.000000000 0.445962009
v 0.460000038 0.000000000 0.446152074
v 0.460000038 0.000657082 0.446424246
v 0.460000038 0.000000000 0.448590331
v 0.460000038 0.000000000 0.553690135
v 0.460000038 0.000000000 0.553847926
v 0.460000038 0.000657082 0.553575754
v 0.460000038 0.000000000 0.551409669
v 0.460000038 0.000000000 0.583032157
v 0.460000038 0.000000000 0.586863252
v 0.460000038 0.013594389 0.577779770
v 0.460000038 0.000000000 0.618652281
v 0.460000038 0.000000000 0.630000119
v 0.460000038 0.031005144 0.598994970
v 0.460000038 0.000000000 0.666177539
v 0.460000038 0.000000000 0.694558977
v 0.460000038 0.052220345 0.616405725
v 0.460000038 0.000000000 0.737982139
v 0.460000038 0.000000000 0.813847804
v 0.460000038 0.076424360 0.629343033
v 0.460000038 0.000000000 0.869307852
v 0.460000038 0.000000000 1.000000000
v 0.460000038 0.030543852 1.000000000
v 0.460000038 0.102687359 0.637310028
v 0.460000038 0.049364041 1.000000000
v 0.460000038 0.130000114 1.000000000
v 0.460000038 0.130000114 0.640000105
v 0.460000038 0.148605699 1.000000000
v 0.460000038 0.229456377 1.000000000
v 0.460000038 0.157312870 0.637310028
v 0.460000038 0.248097597 1.000000000
v 0.460000038 0.337106933 1.000000000
v 0.460000038 0.183575869 0.629343033
v 0.460000038 0.355987045 1.000000000
v 0.460000038 0.464089441 1.000000000
v 0.460000038 0.207779884 0.616405725
v 0.460000038 0.483232906 1.000000000
v 0.460000038 0.630000114 1.000000000
v 0.460000038 0.228995085 0.598994970
v 0.460000038 0.648828757 1.000000000
v 0.460000038 0.878302929 1.000000000
v 0.460000038 0.246405840 0.577779770
v 0.460000038 0.893946182 1.000000000
v 0.460000038 1.000000000 1.000000000
v 0.460000038 1.000000000 0.860365710
v 0.460000038 0.259343147 0.553575754
v 0.460000038 1.000000000 0.851617379
v 0.460000038 1.000000000 0.673053802
v 0.460000038 0.267310143 0.527312756
v 0.460000038 1.000000000 0.663512037
v 0.460000038 1.000000000 0.500000000
v 0.460000038 0.270000219 0.500000000
v 0.460000038 1.000000000 0.490277078
v 0.460000038 1.000000000 0.326946198
v 0.460000038 0.267310143 0.472687244
v 0.460000038 1.000000000 0.317495169
v 0.460000038 1.000000000 0.139634290
v 0.460000038 0.259343147 0.446424246
v 0.460000038 1.000000000 0.131058296
v 0.460000038 1.000000000 0.000000000
v 0.460000038 0.878302929 0.000000000
v 0.460000038 0.246405840 0.422220230
v 0.460000038 0.861493559 0.000000000
v 0.460000038 0.630000174 0.000000000
v 0.460000038 0.228995085 0.401005030
v 0.460000038 0.610245252 0.000000000
v 0.460000038 0.464089441 0.000000000
v 0.460000038 0.207779884 0.383594275
v 0.460000038 0.444321954 0.000000000
v 0.460000038 0.337106933 0.000000000
v 0.460000038 0.183575869 0.370656967
v 0.460000038 0.317847417 0.000000000
v 0.460000038 0.229456377 0.000000000
v 0.460000038 0.157312870 0.362689972
v 0.460000038 0.210636188 0.000000000
v 0.580000043 0.102687359 0.362689972
v 0.580000043 0.130000114 0.359999895
v 0.580000043 0.076424360 0.370656967
v 0.580000043 0.052220345 0.383594275
v 0.580000043 0.031005144 0.401005030
v 0.580000043 0.013594389 0.422220230
v 0.580000043 0.000657082 0.446424246
v 0.469897242 0.000000000 0.448590331
v 0.580000043 0.000000000 0.448590331
v 0.570102839 0.000000000 0.551409669
v 0.580000043 0.000657082 0.553575754
v 0.580000043 0.000000000 0.551409669
v 0.580000043 0.013594389 0.577779770
v 0.580000043 0.031005144 0.598994970
v 0.580000043 0.052220345 0.616405725
v 0.580000043 0.076424360 0.629343033
v 0.580000043 0.102687359 0.637310028
v 0.580000043 0.130000114 0.640000105
v 0.580000043 0.157312870 0.637310028
v 0.580000043 0.183575869 0.629343033
v 0.580000043 0.207779884 0.616405725
v 0.580000043 0.228995085 0.598994970
v 0.580000043 0.246405840 0.577779770
v 0.580000043 0.259343147 0.553575754
v 0.580000043 0.267310143 0.527312756
v 0.580000043 0.270000219 0.500000000
v 0.580000043 0.267310143 0.472687244
v 0.580000043 0.259343147 0.446424246
v 0.580000043 0.246405840 0.422220230
v 0.580000043 0.228995085 0.401005030
v 0.580000043 0.207779884 0.383594275
v 0.580000043 0.183575869 0.370656967
v 0.580000043 0.157312870 0.362689972
v 0.580000043 0.049364041 0.000000000
v 0.580000043 0.030543852 0.000000000
v 0.580000043 0.130000114 0.000000000
v 0.580000043 0.000000000 0.130692148
v 0.580000043 0.000000000 0.186152196
v 0.580000043 0.000000000 0.000000000
v 0.580000043 0.000000000 0.262017861
v 0.580000043 0.000000000 0.305441023
v 0.580000043 0.000000000 0.333822469
v 0.580000043 0.000000000 0.369999886
v 0.580000043 0.000000000 0.381347719
v 0.580000043 0.000000000 0.413136748
v 0.580000043 0.000000000 0.416967843
v 0.580000043 0.000000000 0.446152074
v 0.580000043 0.000000000 0.446309865
v 0.580000043 0.000000000 0.553847926
v 0.580000043 0.000000000 0.554037991
v 0.580000043 0.000000000 0.586863252
v 0.580000043 0.000000000 0.592042941
v 0.580000043 0.000000000 0.630000119
v 0.580000043 0.000000000 0.647898862
v 0.580000043 0.000000000 0.694558977
v 0.580000043 0.000000000 0.751563968
v 0.580000043 0.000000000 0.813847804
v 0.580000043 0.011902632 1.000000000
v 0.580000043 0.030543852 1.000000000
v 0.580000043 0.000000000 1.000000000
v 0.580000043 0.111394530 1.000000000
v 0.580000043 0.130000114 1.000000000
v 0.580000043 0.210636188 1.000000000
v 0.580000043 0.229456377 1.000000000
v 0.580000043 0.317847417 1.000000000
v 0.580000043 0.337106933 1.000000000
v 0.580000043 0.444321954 1.000000000
v 0.580000043 0.464089441 1.000000000
v 0.580000043 0.610245191 1.000000000
v 0.580000043 0.630000114 1.000000000
v 0.580000043 0.861493559 1.000000000
v 0.580000043 0.878302929 1.000000000
v 0.580000043 1.000000000 0.868941704
v 0.580000043 1.000000000 0.860365710
v 0.580000043 1.000000000 1.000000000
v 0.580000043 1.000000000 0.682504831
v 0.580000043 1.000000000 0.673053802
v 0.580000043 1.000000000 0.509722922
v 0.580000043 1.000000000 0.500000000
v 0.580000043 1.000000000 0.336487963
v 0.580000043 1.000000000 0.326946198
v 0.580000043 1.000000000 0.148382621
v 0.580000043 1.000000000 0.139634290
v 0.580000043 0.893946182 0.000000000
v 0.580000043 0.878302929 0.000000000
v 0.580000043 1.000000000 0.000000000
v 0.580000043 0.648828815 0.000000000
v 0.580000043 0.630000174 0.000000000
v 0.580000043 0.483232906 0.000000000
v 0.580000043 0.464089441 0.000000000
v 0.580000043 0.355987045 0.000000000
v 0.580000043 0.337106933 0.000000000
v 0.580000043 0.248097597 0.000000000
v 0.580000043 0.229456377 0.000000000
v 0.580000043 0.148605698 0.000000000
v 0.580000043 0.111803172 0.000000000
v 0.580000043 0.030543883 0.000000000
v 0.580000043 0.012332589 0.000000000
v 0.580000043 0.000000000 0.186152202
v 0.580000043 0.000000000 0.247982014
v 0.580000043 0.000000000 0.305441011
v 0.580000043 0.000000000 0.351979147
v 0.580000043 0.000000000 0.407924865
v 0.580000043 0.000000000 0.413136749
v 0.580000043 0.000000000 0.445960902
v 0.580000043 0.000000000 0.553689373
v 0.580000043 0.000000000 0.583014574
v 0.580000043 0.000000000 0.586863251
v 0.580000043 0.000000000 0.618603367
v 0.580000043 0.000000000 0.630000110
v 0.580000043 0.000000000 0.666065427
v 0.580000043 0.000000000 0.694558989
v 0.580000043 0.000000000 0.737722624
v 0.580000043 0.000000000 0.813847776
v 0.580000043 0.000000000 0.868603789
v 0.580000043 0.030543883 1.000000000
v 0.580000043 0.048938263 1.000000000
v 0.580000043 0.148197057 1.000000000
v 0.580000043 0.229456345 1.000000000
v 0.580000043 0.247667639 1.000000000
v 0.580000043 0.337106998 1.000000000
v 0.580000043 0.355490921 1.000000000
v 0.580000043 0.464089402 1.000000000
v 0.580000043 0.482600283 1.000000000
v 0.580000043 0.647922412 1.000000000
v 0.580000043 0.878303026 1.000000000
v 0.580000043 0.892430257 1.000000000
v 0.580000043 1.000000000 0.860365841
v 0.580000043 1.000000000 0.852604653
v 0.580000043 1.000000000 0.673053738
v 0.580000043 1.000000000 0.664375420
v 0.580000043 1.000000000 0.491102597
v 0.580000043 1.000000000 0.326946262
v 0.580000043 1.000000000 0.318354323
v 0.580000043 1.000000000 0.139634159
v 0.580000043 1.000000000 0.132032962
v 0.580000043 0.878303026 0.000000000
v 0.580000043 0.863071339 0.000000000
v 0.580000043 0.630000052 0.000000000
v 0.580000043 0.611153613 0.000000000
v 0.580000043 0.464089402 0.000000000
v 0.580000043 0.444946309 0.000000000
v 0.580000043 0.337106980 0.000000000
v 0.580000043 0.318336111 0.000000000
v 0.580000043 0.229456345 0.000000000
v 0.580000043 0.211061966 0.000000000
v 0.610000014 0.102687359 0.362689972
v 0.610000014 0.130000114 0.359999895
v 0.610000014 0.076424360 0.370656967
v 0.610000014 0.052220345 0.383594275
v 0.610000014 0.031005144 0.401005030
v 0.610000014 0.013594389 0.422220230
v 0.610000014 0.000657082 0.446424246
v 0.582474341 0.000000000 0.448590331
v 0.610000014 0.000000000 0.448590331
v 0.607525716 0.000000000 0.551409669
v 0.610000014 0.000657082 0.553575754
v 0.610000014 0.000000000 0.551409669
v 0.610000014 0.013594389 0.577779770
v 0.610000014 0.031005144 0.598994970
v 0.610000014 0.052220345 0.616405725
v 0.610000014 0.076424360 0.629343033
v 0.610000014 0.102687359 0.637310028
v 0.610000014 0.130000114 0.640000105
v 0.610000014 0.157312870 0.637310028
v 0.610000014 0.183575869 0.629343033
v 0.610000014 0.207779884 0.616405725
v 0.610000014 0.228995085 0.598994970
v 0.610000014 0.246405840 0.577779770
v 0.610000014 0.259343147 0.553575754
v 0.610000014 0.267310143 0.527312756
v 0.610000014 0.270000219 0.500000000
v 0.610000014 0.267310143 0.472687244
v 0.610000014 0.259343147 0.446424246
v 0.610000014 0.246405840 0.422220230
v 0.610000014 0.228995085 0.401005030
v 0.610000014 0.207779884 0.383594275
v 0.610000014 0.183575869 0.370656967
v 0.610000014 0.157312870 0.362689972
v 0.610000014 0.048938263 0.000000000
v 0.610000014 0.030543883 0.000000000
v 0.610000014 0.130000114 0.000000000
v 0.610000014 0.000000000 0.131396184
v 0.610000014 0.000000000 0.186152202
v 0.610000014 0.000000000 0.000000000
v 0.610000014 0.000000000 0.262277376
v 0.610000014 0.000000000 0.305441011
v 0.610000014 0.000000000 0.333934565
v 0.610000014 0.000000000 0.369999886
v 0.610000014 0.000000000 0.381396633
v 0.610000014 0.000000000 0.413136749
v 0.610000014 0.000000000 0.416985426
v 0.610000014 0.000000000 0.446152074
v 0.610000014 0.000000000 0.446310627
v 0.610000014 0.000000000 0.553847926
v 0.610000014 0.000000000 0.554039098
v 0.610000014 0.000000000 0.586863251
v 0.610000014 0.000000000 0.592075133
v 0.610000014 0.000000000 0.630000110
v 0.610000014 0.000000000 0.648020853
v 0.610000014 0.000000000 0.694558989
v 0.610000014 0.000000000 0.752017970
v 0.610000014 0.000000000 0.813847776
v 0.610000014 0.012332589 1.000000000
v 0.610000014 0.030543883 1.000000000
v 0.610000014 0.000000000 1.000000000
v 0.610000014 0.111803172 1.000000000
v 0.610000014 0.130000114 1.000000000
v 0.610000014 0.211061966 1.000000000
v 0.610000014 0.229456345 1.000000000
v 0.610000014 0.318336130 1.000000000
v 0.610000014 0.337106998 1.000000000
v 0.610000014 0.444946309 1.000000000
v 0.610000014 0.464089402 1.000000000
v 0.610000014 0.611153678 1.000000000
v 0.610000014 0.630000114 1.000000000
v 0.610000014 0.863071339 1.000000000
v 0.610000014 0.878303026 1.000000000
v 0.610000014 1.000000000 0.867967038
v 0.610000014 1.000000000 0.860365841
v 0.610000014 1.000000000 1.000000000
v 0.610000014 1.000000000 0.681645677
v 0.610000014 1.000000000 0.673053738
v 0.610000014 1.000000000 0.508897403
v 0.610000014 1.000000000 0.500000000
v 0.610000014 1.000000000 0.335624580
v 0.610000014 1.000000000 0.326946262
v 0.610000014 1.000000000 0.147395347
v 0.610000014 1.000000000 0.139634159
v 0.610000014 0.892430257 0.000000000
v 0.610000014 0.878303026 0.000000000
v 0.610000014 1.000000000 0.000000000
v 0.610000014 0.647922352 0.000000000
v 0.610000014 0.630000052 0.000000000
v 0.610000014 0.482600283 0.000000000
v 0.610000014 0.464089402 0.000000000
v 0.610000014 0.355490904 0.000000000
v 0.610000014 0.337106980 0.000000000
v 0.610000014 0.247667639 0.000000000
v 0.610000014 0.229456345 0.000000000
v 0.610000014 0.148197057 0.000000000
v 0.460000038 0.688145470 0.000000000
v 0.460000038 0.693460948 0.000000000
v 0.460000038 0.758923769 0.079766750
v 0.460000038 0.828822613 0.210538387
v 0.460000038 0.871865988 0.352433681
v 0.460000038 0.886400223 0.500000000
v 0.460000038 0.871865988 0.647566319
v 0.460000038 0.828822613 0.789461613
v 0.460000038 0.688145470 1.000000000
v 0.460000038 0.758923769 0.920233250
v 0.460000038 0.693460948 1.000000000
v 0.460000038 0.679293386 0.000000000
v 0.460000038 0.679293386 1.000000000
v 0.460000038 0.386400144 0.000000000
v 0.460000038 0.386400223 1.000000000
v 0.370000005 0.679157019 1.000000000
v 0.370000005 0.693460948 1.000000000
v 0.370000005 0.758923769 0.920233250
v 0.370000005 0.828822613 0.789461613
v 0.370000005 0.871865988 0.647566319
v 0.370000005 0.886400223 0.500000000
v 0.370000005 0.871865988 0.352433681
v 0.370000005 0.828822613 0.210538387
v 0.370000005 0.758923769 0.079766750
v 0.370000005 0.679157019 0.000000000
v 0.370000005 0.693460948 0.000000000
v 0.370000005 0.636377378 1.000000000
v 0.370000005 0.639544366 0.000000000
v 0.370000005 0.344411677 1.000000000
v 0.370000005 0.439176033 0.000000000
v 0.370000005 0.000000000 0.000000000
v 0.370000005 0.000000000 1.000000000
v 0.370000005 0.030543916 1.000000000
v 0.370000005 0.229456313 0.000000000
v 0.432631855 0.693460948 1.000000000
v 0.397368187 0.693460948 0.000000000
v 0.301602904 0.000000000 0.528818409
v 0.360000014 0.130000114 0.529999971
v 0.349340677 0.134263754 0.527716398
v 0.295635213 0.000000000 0.527716273
v 0.308000053 0.000000000 0.529999850
v 0.290048241 0.000000000 0.524250233
v 0.340304017 0.137878418 0.521213293
v 0.285152714 0.000000000 0.521213164
v 0.281336912 0.000000000 0.515910832
v 0.334265947 0.140293598 0.511480570
v 0.278148587 0.000000000 0.511480439
v 0.276793376 0.000000000 0.505154721
v 0.332145691 0.141141891 0.500000000
v 0.275689040 0.000000000 0.500000000
v 0.277043558 0.000000000 0.493677147
v 0.334265947 0.140293598 0.488519430
v 0.278148508 0.000000000 0.488519561
v 0.281960155 0.000000000 0.483223004
v 0.340304017 0.137878418 0.478786707
v 0.285152637 0.000000000 0.478786836
v 0.290733665 0.000000000 0.475324452
v 0.349340677 0.134263754 0.472283602
v 0.295635088 0.000000000 0.472283727
v 0.302030271 0.000000000 0.471102654
v 0.360000014 0.130000114 0.470000029
v 0.307999956 0.000000000 0.470000150
v 0.314192110 0.000000000 0.471143728
v 0.370659351 0.125736475 0.472283602
v 0.320364797 0.000000000 0.472283719
v 0.325454580 0.000000000 0.475441311
v 0.379696012 0.122121811 0.478786707
v 0.330847299 0.000000000 0.478786821
v 0.334165422 0.000000000 0.483397590
v 0.385734081 0.119706631 0.488519430
v 0.337851429 0.000000000 0.488519542
v 0.339000381 0.000000000 0.493882506
v 0.387854338 0.118858337 0.500000000
v 0.340310981 0.000000000 0.500000000
v 0.339162819 0.000000000 0.505359587
v 0.385734081 0.119706631 0.511480570
v 0.337851496 0.000000000 0.511480458
v 0.334538410 0.000000000 0.516084229
v 0.379696012 0.122121811 0.521213293
v 0.330847367 0.000000000 0.521213179
v 0.325765496 0.000000000 0.524365891
v 0.370659351 0.125736475 0.527716398
v 0.320364914 0.000000000 0.527716281
v 0.314177468 0.000000000 0.528858985
v 0.879999995 1.000000000 0.202824331
v 0.879999995 1.000000000 0.198098228
v 0.879999995 0.961157084 0.211689949
v 0.879999995 0.900483131 0.249814034
v 0.879999995 0.849813938 0.300483227
v 0.879999995 0.811689854 0.361157179
v 0.879999995 0.788022995 0.428793192
v 0.879999995 0.779999971 0.500000000
v 0.879999995 0.788022995 0.571206808
v 0.879999995 0.811689854 0.638842821
v 0.879999995 0.849813938 0.699516773
v 0.879999995 0.900483131 0.750185966
v 0.879999995 0.961157084 0.788310051
v 0.879999995 1.000000000 0.797175669
v 0.879999995 1.000000000 0.801901772
v 0.879999995 1.000000000 0.211689949
v 0.879999995 1.000000000 0.771842538
v 0.879999995 1.000000000 0.230395703
v 0.879999995 1.000000000 0.627190922
v 1.000000000 1.000000000 0.801901772
v 1.000000000 0.961157084 0.788310051
v 1.000000000 0.949955738 0.781271758
v 1.000000000 0.900483131 0.750185966
v 1.000000000 0.891128818 0.740831653
v 1.000000000 0.849813938 0.699516773
v 1.000000000 0.842775645 0.688315427
v 1.000000000 0.811689854 0.638842821
v 1.000000000 0.807320587 0.626356172
v 1.000000000 0.788022995 0.571206808
v 1.000000000 0.786541821 0.558060935
v 1.000000000 0.779999971 0.500000000
v 1.000000000 0.781481145 0.486854127
v 1.000000000 0.788022995 0.428793192
v 1.000000000 0.792392262 0.416306542
v 1.000000000 0.811689854 0.361157179
v 1.000000000 0.818728147 0.349955833
v 1.000000000 0.849813938 0.300483227
v 1.000000000 0.859168251 0.291128913
v 1.000000000 0.900483131 0.249814034
v 1.000000000 0.911684477 0.242775740
v 1.000000000 0.961157084 0.211689949
v 1.000000000 1.000000000 0.198098228
v 1.000000000 0.973643733 0.207320682
v 0.808091087 1.000000000 0.854452505
v 0.759999990 1.000000000 0.854452505
v 0.759999990 0.958406925 0.841835499
v 0.879999995 0.958406925 0.841835499
v 0.879999995 1.000000000 0.854452505
v 0.759999990 0.894438982 0.807643652
v 0.879999995 0.894438982 0.807643652
v 0.759999990 0.838370323 0.761629581
v 0.879999995 0.838370323 0.761629581
v 0.759999990 0.792356253 0.705560923
v 0.879999995 0.792356253 0.705560923
v 0.759999990 0.758164406 0.641592979
v 0.879999995 0.758164406 0.641592979
v 0.759999990 0.737109423 0.572183371
v 0.879999995 0.737109423 0.572183371
v 0.759999990 0.730000019 0.500000000
v 0.879999995 0.730000019 0.500000000
v 0.759999990 0.737109423 0.427816629
v 0.879999995 0.737109423 0.427816629
v 0.759999990 0.758164406 0.358407021
v 0.879999995 0.758164406 0.358407021
v 0.759999990 0.792356253 0.294439077
v 0.879999995 0.792356253 0.294439077
v 0.759999990 0.838370323 0.238370419
v 0.879999995 0.838370323 0.238370419
v 0.759999990 0.894438982 0.192356348
v 0.879999995 0.894438982 0.192356348
v 0.759999990 0.958406925 0.158164501
v 0.879999995 0.958406925 0.158164501
v 0.831908898 1.000000000 0.145547495
v 0.759999990 1.000000000 0.145547495
v 0.879999995 1.000000000 0.145547495
v 0.879999995 1.000000000 0.741421098
v 0.879999995 1.000000000 0.729669125
v 0.879999995 1.000000000 0.649660366
v 0.879999995 1.000000000 0.636027006
v 0.879999995 1.000000000 0.599999905
v 0.879999995 1.000000000 0.587363748
v 0.879999995 1.000000000 0.566817858
v 0.879999995 1.000000000 0.555227375
v 0.879999995 1.000000000 0.541421232
v 0.879999995 1.000000000 0.530593906
v 0.879999995 1.000000000 0.519891183
v 0.879999995 1.000000000 0.509532592
v 0.879999995 1.000000000 0.500000000
v 0.879999995 1.000000000 0.489842745
v 0.879999995 1.000000000 0.480108817
v 0.879999995 1.000000000 0.469904123
v 0.879999995 1.000000000 0.458578768
v 0.879999995 1.000000000 0.448083504
v 0.879999995 1.000000000 0.433182142
v 0.879999995 1.000000000 0.422160285
v 0.879999995 1.000000000 0.400000095
v 0.879999995 1.000000000 0.388280197
v 0.879999995 1.000000000 0.350339634
v 0.879999995 1.000000000 0.338159369
v 0.879999995 1.000000000 0.258578902
v 0.879999995 1.000000000 0.248784050
v 0.759999990 1.000000000 0.751215950
v 0.759999990 1.000000000 0.741421098
v 0.759999990 1.000000000 0.661840631
v 0.759999990 1.000000000 0.649660366
v 0.759999990 1.000000000 0.611719803
v 0.759999990 1.000000000 0.599999905
v 0.759999990 1.000000000 0.577839715
v 0.759999990 1.000000000 0.566817858
v 0.759999990 1.000000000 0.551916496
v 0.759999990 1.000000000 0.541421232
v 0.759999990 1.000000000 0.530095877
v 0.759999990 1.000000000 0.519891183
v 0.759999990 1.000000000 0.510157255
v 0.759999990 1.000000000 0.500000000
v 0.759999990 1.000000000 0.490467408
v 0.759999990 1.000000000 0.480108817
v 0.759999990 1.000000000 0.469406094
v 0.759999990 1.000000000 0.458578768
v 0.759999990 1.000000000 0.444772625
v 0.759999990 1.000000000 0.433182142
v 0.759999990 1.000000000 0.412636252
v 0.759999990 1.000000000 0.400000095
v 0.759999990 1.000000000 0.363972994
v 0.759999990 1.000000000 0.350339634
v 0.759999990 1.000000000 0.270330875
v 0.759999990 1.000000000 0.258578902
v 0.743823692 1.000000000 0.839060956
v 0.730000019 1.000000000 0.839060956
v 0.730000019 0.964070797 0.828161955
v 0.759999990 0.964070797 0.828161955
v 0.759999990 1.000000000 0.839060956
v 0.730000019 0.902661324 0.795337915
v 0.759999990 0.902661324 0.795337915
v 0.730000019 0.848835468 0.751164436
v 0.759999990 0.848835468 0.751164436
v 0.730000019 0.804661989 0.697338581
v 0.759999990 0.804661989 0.697338581
v 0.730000019 0.771837950 0.635929108
v 0.759999990 0.771837950 0.635929108
v 0.730000019 0.751625061 0.569296122
v 0.759999990 0.751625061 0.569296122
v 0.730000019 0.744799852 0.500000000
v 0.759999990 0.744799852 0.500000000
v 0.730000019 0.751625061 0.430703878
v 0.759999990 0.751625061 0.430703878
v 0.730000019 0.771837950 0.364070892
v 0.759999990 0.771837950 0.364070892
v 0.730000019 0.804661989 0.302661419
v 0.759999990 0.804661989 0.302661419
v 0.730000019 0.848835468 0.248835564
v 0.759999990 0.848835468 0.248835564
v 0.730000019 0.902661324 0.204662085
v 0.759999990 0.902661324 0.204662085
v 0.730000019 0.964070797 0.171838045
v 0.759999990 0.964070797 0.171838045
v 0.746176317 1.000000000 0.160939044
v 0.730000019 1.000000000 0.160939044
v 0.759999990 1.000000000 0.160939044
v 0.759999990 1.000000000 0.741421255
v 0.759999990 1.000000000 0.730709145
v 0.759999990 1.000000000 0.649660314
v 0.759999990 1.000000000 0.636421626
v 0.759999990 1.000000000 0.587567446
v 0.759999990 1.000000000 0.566817875
v 0.759999990 1.000000000 0.555354995
v 0.759999990 1.000000000 0.541421217
v 0.759999990 1.000000000 0.530687436
v 0.759999990 1.000000000 0.519891196
v 0.759999990 1.000000000 0.509611940
v 0.759999990 1.000000000 0.489920059
v 0.759999990 1.000000000 0.480108804
v 0.759999990 1.000000000 0.469989831
v 0.759999990 1.000000000 0.458578783
v 0.759999990 1.000000000 0.448190382
v 0.759999990 1.000000000 0.433182125
v 0.759999990 1.000000000 0.422308961
v 0.759999990 1.000000000 0.388512434
v 0.759999990 1.000000000 0.350339686
v 0.759999990 1.000000000 0.338578574
v 0.759999990 1.000000000 0.258578745
v 0.759999990 1.000000000 0.249731911
v 0.730000019 1.000000000 0.750268089
v 0.730000019 1.000000000 0.741421255
v 0.730000019 1.000000000 0.661421426
v 0.730000019 1.000000000 0.649660314
v 0.730000019 1.000000000 0.611487566
v 0.730000019 1.000000000 0.599999905
v 0.730000019 1.000000000 0.577691039
v 0.730000019 1.000000000 0.566817875
v 0.730000019 1.000000000 0.551809618
v 0.730000019 1.000000000 0.541421217
v 0.730000019 1.000000000 0.530010169
v 0.730000019 1.000000000 0.519891196
v 0.730000019 1.000000000 0.510079941
v 0.730000019 1.000000000 0.500000000
v 0.730000019 1.000000000 0.490388060
v 0.730000019 1.000000000 0.480108804
v 0.730000019 1.000000000 0.469312564
v 0.730000019 1.000000000 0.458578783
v 0.730000019 1.000000000 0.444645005
v 0.730000019 1.000000000 0.433182125
v 0.730000019 1.000000000 0.412432554
v 0.730000019 1.000000000 0.400000095
v 0.730000019 1.000000000 0.363578374
v 0.730000019 1.000000000 0.350339686
v 0.730000019 1.000000000 0.269290855
v 0.730000019 1.000000000 0.258578745
v 0.679999948 0.944599867 0.789510727
v 0.679999948 0.962223530 0.779335737
v 0.679999948 0.962223530 0.758985758
v 0.679999948 0.944599867 0.748810768
v 0.679999948 0.926976204 0.758985758
v 0.679999948 0.926976204 0.779335737
v 0.914999962 0.962223530 0.779335737
v 0.914999962 0.944599867 0.789510727
v 0.914999962 0.926976204 0.779335737
v 0.914999962 0.926976204 0.758985758
v 0.914999962 0.944599867 0.748810768
v 0.914999962 0.962223530 0.758985758
v 0.679999948 0.830839157 0.675750017
v 0.679999948 0.848462820 0.665575027
v 0.679999948 0.848462820 0.645225048
v 0.679999948 0.830839157 0.635050058
v 0.679999948 0.813215494 0.645225048
v 0.679999948 0.813215494 0.665575027
v 0.914999962 0.848462820 0.665575027
v 0.914999962 0.830839157 0.675750017
v 0.914999962 0.813215494 0.665575027
v 0.914999962 0.813215494 0.645225048
v 0.914999962 0.830839157 0.635050058
v 0.914999962 0.848462820 0.645225048
v 0.679999948 0.789199829 0.520349979
v 0.679999948 0.806823492 0.510174990
v 0.679999948 0.806823492 0.489825010
v 0.679999948 0.789199829 0.479650021
v 0.679999948 0.771576166 0.489825010
v 0.679999948 0.771576166 0.510174990
v 0.914999962 0.806823492 0.510174990
v 0.914999962 0.789199829 0.520349979
v 0.914999962 0.771576166 0.510174990
v 0.914999962 0.771576166 0.489825010
v 0.914999962 0.789199829 0.479650021
v 0.914999962 0.806823492 0.489825010
v 0.679999948 0.830839157 0.364949942
v 0.679999948 0.848462820 0.354774952
v 0.679999948 0.848462820 0.334424973
v 0.679999948 0.830839157 0.324249983
v 0.679999948 0.813215494 0.334424973
v 0.679999948 0.813215494 0.354774952
v 0.914999962 0.848462820 0.354774952
v 0.914999962 0.830839157 0.364949942
v 0.914999962 0.813215494 0.354774952
v 0.914999962 0.813215494 0.334424973
v 0.914999962 0.830839157 0.324249983
v 0.914999962 0.848462820 0.334424973
v 0.679999948 0.944599867 0.251189232
v 0.679999948 0.962223530 0.241014242
v 0.679999948 0.962223530 0.220664263
v 0.679999948 0.944599867 0.210489273
v 0.679999948 0.926976204 0.220664263
v 0.679999948 0.926976204 0.241014242
v 0.914999962 0.962223530 0.241014242
v 0.914999962 0.944599867 0.251189232
v 0.914999962 0.926976204 0.241014242
v 0.914999962 0.926976204 0.220664263
v 0.914999962 0.944599867 0.210489273
v 0.914999962 0.962223530 0.220664263
v 1.000000000 0.932530593 0.550273623
v 1.000000000 1.000000000 0.550273623
v 0.990000010 1.000000000 0.500000000
v 0.990000010 0.730000019 0.500000000
v 1.000000000 0.730000019 0.550273623
v 1.000000000 1.000000000 0.449726377
v 1.000000000 0.897469331 0.449726377
v 0.994937526 1.000000000 0.475177291
v 1.000000000 0.730000019 0.449726377
v 0.000000000 0.933020077 0.322575770
v 1.000000000 0.994038772 0.281803842
v 1.000000000 0.926758913 0.326758862
v 0.000000000 0.926759645 0.326758862
v 0.000000000 1.000000000 0.277820892
v 1.000000000 1.000000000 0.277820647
v 0.000000000 0.877840645 0.399971886
v 1.000000000 0.918605744 0.338961035
v 1.000000000 0.873649578 0.406242609
v 0.000000000 0.873650676 0.406242609
v 0.000000000 0.856473490 0.492598921
v 1.000000000 0.870786713 0.420635331
v 1.000000000 0.855000239 0.500000000
v 0.000000000 0.855001337 0.500000000
v 0.000000000 0.872179371 0.586360575
v 1.000000000 0.857863245 0.514393432
v 1.000000000 0.873649578 0.593757391
v 0.000000000 0.873650676 0.593757391
v 0.000000000 0.922576553 0.666980707
v 1.000000000 0.881803893 0.605961279
v 1.000000000 0.926758913 0.673241138
v 0.000000000 0.926759645 0.673241138
v 0.000000000 1.000000000 0.722179133
v 0.000000000 0.999997934 0.722177752
v 1.000000000 0.938965297 0.681397242
v 1.000000000 1.000000000 0.722179378
vt 0.500000000 0.500000000
vn -1.000000000 0.000000000 0.000000000
vn 0.000000000 0.098017328 0.995184708
vn 0.000000000 0.290291408 0.956938294
vn 0.000000000 0.471396494 0.881921394
vn 0.000000000 0.634390892 0.773012417
vn 0.000000000 0.773012417 0.634390892
vn 0.000000000 0.881921394 0.471396494
vn 0.000000000 0.956939501 0.290287430
vn 0.000000000 0.956939501 -0.290287430
vn 0.000000000 0.881921394 -0.471396494
vn 0.000000000 0.773012417 -0.634390892
vn 0.000000000 0.634390892 -0.773012417
vn 0.000000000 0.471396494 -0.881921394
vn 0.000000000 0.290291408 -0.956938294
vn 0.000000000 0.098017328 -0.995184708
vn 0.000000000 -0.098017328 -0.995184708
vn 0.000000000 -0.290291408 -0.956938294
vn 0.000000000 -0.471396494 -0.881921394
vn 0.000000000 -0.634390892 -0.773012417
vn 0.000000000 -0.773012417 -0.634390892
vn 0.000000000 -0.881921394 -0.471396494
vn 0.000000000 -0.956938294 -0.290291408
vn 0.000000000 -0.995184708 -0.098017328
vn 0.000000000 -0.995184708 0.098017328
vn 0.000000000 -0.956938294 0.290291408
vn 0.000000000 -0.881921394 0.471396494
vn 0.000000000 -0.773012417 0.634390892
vn 0.000000000 -0.634390892 0.773012417
vn 0.000000000 -0.471396494 0.881921394
vn 0.000000000 -0.290291408 0.956938294
vn 0.000000000 -0.098017328 0.995184708
vn 1.000000000 0.000000000 0.000000000
vn 0.000000000 0.773010734 0.634392942
vn 0.000000000 0.881921411 0.471396462
vn 0.000000000 0.956940508 0.290284110
vn 0.000000000 0.995184581 0.098018618
vn 0.000000000 0.995184581 -0.098018618
vn 0.000000000 0.956940508 -0.290284110
vn 0.000000000 0.881921411 -0.471396462
vn 0.000000000 0.773010734 -0.634392942
vn -0.181135261 0.072453139 0.980785685
vn -0.181133940 0.072452543 0.980785973
vn -0.515827172 0.206329852 0.831474787
vn -0.515828762 0.206330585 0.831473619
vn -0.772001044 0.308799467 0.555569327
vn -0.772001832 0.308799854 0.555568018
vn -0.910636057 0.364253743 0.195092752
vn -0.910636014 0.364253714 0.195093009
vn -0.910635886 0.364254172 -0.195092752
vn -0.910638025 0.364254530 -0.195082098
vn -0.772000871 0.308799902 -0.555569327
vn -0.772001706 0.308800164 -0.555568021
vn -0.515826973 0.206330350 -0.831474787
vn -0.515831938 0.206332047 -0.831471285
vn -0.181135238 0.072453196 -0.980785685
vn -0.181133186 0.072452477 -0.980786117
vn 0.181134630 -0.072454717 -0.980785685
vn 0.181133263 -0.072454238 -0.980785973
vn 0.515826570 -0.206331356 -0.831474787
vn 0.515828225 -0.206331922 -0.831473620
vn 0.772000538 -0.308800734 -0.555569327
vn 0.772001373 -0.308800996 -0.555568020
vn 0.910635764 -0.364254476 -0.195092752
vn 0.910635712 -0.364254467 -0.195093011
vn 0.910635936 -0.364254047 0.195092752
vn 0.910637732 -0.364255263 0.195082095
vn 0.772000712 -0.308800299 0.555569327
vn 0.772001498 -0.308800685 0.555568019
vn 0.515826770 -0.206330858 0.831474787
vn 0.515831538 -0.206333054 0.831471284
vn 0.181134653 -0.072454658 0.980785685
vn 0.181132673 -0.072453765 0.980786117
vn 0.371380480 0.928480769 -0.000016436
vn 0.371351155 0.928492498 -0.000023892
vn 0.371351155 0.928492498 0.000023892
vn 0.371380480 0.928480769 0.000016436
vn 0.371383091 0.928479725 -0.000009645
vn 0.371383091 0.928479725 0.000009645
vn 0.371392047 0.928476143 0.000000000
vn 0.000000000 -0.330278989 0.943883356
vn 0.000000000 -0.532033213 0.846723485
vn 0.000000000 -0.707106781 0.707106781
vn 0.000000000 -0.846723485 0.532033213
vn 0.000000000 -0.943883356 0.330278989
vn 0.000000000 -0.993712298 0.111963693
vn 0.000000000 -0.993712298 -0.111963693
vn 0.000000000 -0.943883356 -0.330278989
vn 0.000000000 -0.846723485 -0.532033213
vn 0.000000000 -0.707106781 -0.707106781
vn 0.000000000 -0.532033213 -0.846723485
vn 0.000000000 -0.330278989 -0.943883356
vn 0.000000000 -0.290282259 0.956941069
vn 0.000000000 -0.471399620 0.881919723
vn 0.000000000 -0.634390906 0.773012405
vn 0.000000000 -0.773012405 0.634390906
vn 0.000000000 -0.881919723 0.471399620
vn 0.000000000 -0.956941069 0.290282259
vn 0.000000000 -0.995184778 0.098016623
vn 0.000000000 -0.995184778 -0.098016623
vn 0.000000000 -0.956941069 -0.290282259
vn 0.000000000 -0.881919723 -0.471399620
vn 0.000000000 -0.773012405 -0.634390906
vn 0.000000000 -0.634390906 -0.773012405
vn 0.000000000 -0.471399620 -0.881919723
vn 0.000000000 -0.290282259 -0.956941069
vn 0.000000000 -0.290284590 0.956940362
vn 0.000000000 -0.471396648 0.881921312
vn 0.000000000 -0.634391064 0.773012275
vn 0.000000000 -0.773012275 0.634391064
vn 0.000000000 -0.881921312 0.471396648
vn 0.000000000 -0.956940362 0.290284590
vn 0.000000000 -0.995184536 0.098019080
vn 0.000000000 -0.995184536 -0.098019080
vn 0.000000000 -0.956940362 -0.290284590
vn 0.000000000 -0.881921312 -0.471396648
vn 0.000000000 -0.773012275 -0.634391064
vn 0.000000000 -0.634391064 -0.773012275
vn 0.000000000 -0.471396648 -0.881921312
vn 0.000000000 -0.290284590 -0.956940362
vn 0.000000000 -0.499998642 0.866026188
vn 0.000000000 -1.000000000 0.000000000
vn 0.000000000 -0.499998642 -0.866026188
vn 0.000000000 0.499998642 -0.866026188
vn 0.000000000 1.000000000 0.000000000
vn 0.000000000 0.499998642 0.866026188
vn -0.980785485 0.000000000 0.195089293
vn -0.980785485 0.000000000 -0.195089293
vn -0.000000407 -0.555570705 -0.831469297
vn -0.000000203 -0.555573009 -0.831467757
vn -0.000000913 -0.831469297 -0.555570705
vn -0.000000609 -0.831471600 -0.555567258
vn -0.000001077 -0.980785611 -0.195088662
vn -0.000001077 -0.980785610 -0.195088663
vn -0.000001077 -0.980785611 0.195088662
vn -0.000001077 -0.980785610 0.195088663
vn -0.000000609 -0.831469297 0.555570705
vn -0.000000913 -0.831471600 0.555567258
vn -0.000000203 -0.555570705 0.831469297
vn -0.000000407 -0.555573008 0.831467758
usemtl mat_3
f 1/1/1 2/1/1 3/1/1 4/1/1
f 5/1/1 6/1/1 7/1/1
f 2/1/1 1/1/1 7/1/1
f 2/1/1 7/1/1 6/1/1
f 2/1/1 6/1/1 8/1/1
usemtl mat_2
f 9/1/1 10/1/1 11/1/1
f 12/1/1 9/1/1 11/1/1 13/1/1
f 14/1/1 15/1/1 16/1/1 17/1/1
f 10/1/1 14/1/1 17/1/1 11/1/1
f 18/1/1 19/1/1 20/1/1
f 16/1/1 18/1/1 20/1/1 17/1/1
f 21/1/1 22/1/1 23/1/1
f 19/1/1 21/1/1 23/1/1 20/1/1
f 24/1/1 25/1/1 26/1/1
f 22/1/1 24/1/1 26/1/1 23/1/1
f 27/1/1 28/1/1 29/1/1
f 25/1/1 27/1/1 29/1/1 26/1/1
f 28/1/1 30/1/1 29/1/1
f 31/1/1 32/1/1 33/1/1
f 31/1/1 33/1/1 34/1/1
f 35/1/1 36/1/1 37/1/1
f 32/1/1 35/1/1 37/1/1 33/1/1
f 38/1/1 39/1/1 40/1/1
f 36/1/1 38/1/1 40/1/1 37/1/1
f 41/1/1 42/1/1 43/1/1
f 39/1/1 41/1/1 43/1/1 40/1/1
f 44/1/1 45/1/1 46/1/1
f 42/1/1 44/1/1 46/1/1 43/1/1
f 47/1/1 48/1/1 49/1/1 50/1/1
f 45/1/1 47/1/1 50/1/1 46/1/1
f 51/1/1 52/1/1 53/1/1
f 49/1/1 51/1/1 53/1/1 50/1/1
f 54/1/1 55/1/1 56/1/1
f 52/1/1 54/1/1 56/1/1 53/1/1
f 57/1/1 58/1/1 59/1/1
f 55/1/1 57/1/1 59/1/1 56/1/1
f 60/1/1 61/1/1 62/1/1
f 58/1/1 60/1/1 62/1/1 59/1/1
f 63/1/1 64/1/1 65/1/1
f 61/1/1 63/1/1 65/1/1 62/1/1
f 66/1/1 67/1/1 68/1/1
f 64/1/1 66/1/1 68/1/1 65/1/1
f 69/1/1 70/1/1 71/1/1 72/1/1
f 67/1/1 69/1/1 72/1/1 68/1/1
f 73/1/1 74/1/1 75/1/1
f 71/1/1 73/1/1 75/1/1 72/1/1
f 76/1/1 77/1/1 78/1/1
f 74/1/1 76/1/1 78/1/1 75/1/1
f 79/1/1 80/1/1 81/1/1
f 77/1/1 79/1/1 81/1/1 78/1/1
f 82/1/1 83/1/1 84/1/1
f 80/1/1 82/1/1 84/1/1 81/1/1
f 85/1/1 86/1/1 87/1/1 88/1/1
f 83/1/1 85/1/1 88/1/1 84/1/1
f 89/1/1 90/1/1 91/1/1
f 87/1/1 89/1/1 91/1/1 88/1/1
f 92/1/1 93/1/1 94/1/1
f 90/1/1 92/1/1 94/1/1 91/1/1
f 95/1/1 96/1/1 97/1/1
f 93/1/1 95/1/1 97/1/1 94/1/1
f 98/1/1 99/1/1 100/1/1
f 96/1/1 98/1/1 100/1/1 97/1/1
f 101/1/1 12/1/1 13/1/1
f 99/1/1 101/1/1 13/1/1 100/1/1
f 13/1/2 11/1/2 102/1/2
f 13/1/2 102/1/2 103/1/2
f 11/1/3 17/1/3 104/1/3
f 11/1/3 104/1/3 102/1/3
f 17/1/4 20/1/4 105/1/4
f 17/1/4 105/1/4 104/1/4
f 20/1/5 23/1/5 106/1/5
f 20/1/5 106/1/5 105/1/5
f 23/1/6 26/1/6 107/1/6
f 23/1/6 107/1/6 106/1/6
f 26/1/7 29/1/7 108/1/7
f 26/1/7 108/1/7 107/1/7
f 109/1/8 29/1/8 30/1/8
f 29/1/8 109/1/8 110/1/8 108/1/8
f 111/1/9 34/1/9 33/1/9 112/1/9
f 111/1/9 112/1/9 113/1/9
f 33/1/10 37/1/10 114/1/10
f 33/1/10 114/1/10 112/1/10
f 37/1/11 40/1/11 115/1/11
f 37/1/11 115/1/11 114/1/11
f 40/1/12 43/1/12 116/1/12
f 40/1/12 116/1/12 115/1/12
f 43/1/13 46/1/13 117/1/13
f 43/1/13 117/1/13 116/1/13
f 46/1/14 50/1/14 118/1/14
f 46/1/14 118/1/14 117/1/14
f 50/1/15 53/1/15 119/1/15
f 50/1/15 119/1/15 118/1/15
f 53/1/16 56/1/16 120/1/16
f 53/1/16 120/1/16 119/1/16
f 56/1/17 59/1/17 121/1/17
f 56/1/17 121/1/17 120/1/17
f 59/1/18 62/1/18 122/1/18
f 59/1/18 122/1/18 121/1/18
f 62/1/19 65/1/19 123/1/19
f 62/1/19 123/1/19 122/1/19
f 65/1/20 68/1/20 124/1/20
f 65/1/20 124/1/20 123/1/20
f 68/1/21 72/1/21 125/1/21
f 68/1/21 125/1/21 124/1/21
f 72/1/22 75/1/22 126/1/22
f 72/1/22 126/1/22 125/1/22
f 75/1/23 78/1/23 127/1/23
f 75/1/23 127/1/23 126/1/23
f 78/1/24 81/1/24 128/1/24
f 78/1/24 128/1/24 127/1/24
f 81/1/25 84/1/25 129/1/25
f 81/1/25 129/1/25 128/1/25
f 84/1/26 88/1/26 130/1/26
f 84/1/26 130/1/26 129/1/26
f 88/1/27 91/1/27 131/1/27
f 88/1/27 131/1/27 130/1/27
f 91/1/28 94/1/28 132/1/28
f 91/1/28 132/1/28 131/1/28
f 94/1/29 97/1/29 133/1/29
f 94/1/29 133/1/29 132/1/29
f 97/1/30 100/1/30 134/1/30
f 97/1/30 134/1/30 133/1/30
f 100/1/31 13/1/31 103/1/31
f 100/1/31 103/1/31 134/1/31
f 135/1/32 103/1/32 102/1/32 136/1/32
f 137/1/32 103/1/32 135/1/32
f 138/1/32 102/1/32 104/1/32 139/1/32
f 140/1/32 136/1/32 102/1/32 138/1/32
f 141/1/32 104/1/32 105/1/32 142/1/32
f 139/1/32 104/1/32 141/1/32
f 143/1/32 105/1/32 106/1/32 144/1/32
f 142/1/32 105/1/32 143/1/32
f 145/1/32 106/1/32 107/1/32 146/1/32
f 144/1/32 106/1/32 145/1/32
f 147/1/32 107/1/32 108/1/32 148/1/32
f 146/1/32 107/1/32 147/1/32
f 149/1/32 108/1/32 110/1/32
f 148/1/32 108/1/32 149/1/32
f 113/1/32 112/1/32 150/1/32
f 151/1/32 112/1/32 114/1/32 152/1/32
f 150/1/32 112/1/32 151/1/32
f 153/1/32 114/1/32 115/1/32 154/1/32
f 152/1/32 114/1/32 153/1/32
f 155/1/32 115/1/32 116/1/32 156/1/32
f 154/1/32 115/1/32 155/1/32
f 157/1/32 116/1/32 117/1/32 158/1/32
f 156/1/32 116/1/32 157/1/32
f 159/1/32 117/1/32 118/1/32 160/1/32
f 161/1/32 158/1/32 117/1/32 159/1/32
f 162/1/32 118/1/32 119/1/32 163/1/32
f 160/1/32 118/1/32 162/1/32
f 164/1/32 119/1/32 120/1/32 165/1/32
f 163/1/32 119/1/32 164/1/32
f 166/1/32 120/1/32 121/1/32 167/1/32
f 165/1/32 120/1/32 166/1/32
f 168/1/32 121/1/32 122/1/32 169/1/32
f 167/1/32 121/1/32 168/1/32
f 170/1/32 122/1/32 123/1/32 171/1/32
f 169/1/32 122/1/32 170/1/32
f 172/1/32 123/1/32 124/1/32 173/1/32
f 171/1/32 123/1/32 172/1/32
f 174/1/32 124/1/32 125/1/32 175/1/32
f 176/1/32 173/1/32 124/1/32 174/1/32
f 177/1/32 125/1/32 126/1/32 178/1/32
f 175/1/32 125/1/32 177/1/32
f 179/1/32 126/1/32 127/1/32 180/1/32
f 178/1/32 126/1/32 179/1/32
f 181/1/32 127/1/32 128/1/32 182/1/32
f 180/1/32 127/1/32 181/1/32
f 183/1/32 128/1/32 129/1/32 184/1/32
f 182/1/32 128/1/32 183/1/32
f 185/1/32 129/1/32 130/1/32 186/1/32
f 187/1/32 184/1/32 129/1/32 185/1/32
f 188/1/32 130/1/32 131/1/32 189/1/32
f 186/1/32 130/1/32 188/1/32
f 190/1/32 131/1/32 132/1/32 191/1/32
f 189/1/32 131/1/32 190/1/32
f 192/1/32 132/1/32 133/1/32 193/1/32
f 191/1/32 132/1/32 192/1/32
f 194/1/32 133/1/32 134/1/32 195/1/32
f 193/1/32 133/1/32 194/1/32
f 196/1/32 134/1/32 103/1/32 137/1/32
f 195/1/32 134/1/32 196/1/32
usemtl mat_1
f 197/1/1 198/1/1 102/1/1
f 137/1/1 197/1/1 102/1/1 103/1/1
f 199/1/1 140/1/1 200/1/1 104/1/1
f 198/1/1 199/1/1 104/1/1 102/1/1
f 201/1/1 202/1/1 105/1/1
f 200/1/1 201/1/1 105/1/1 104/1/1
f 203/1/1 144/1/1 106/1/1
f 202/1/1 203/1/1 106/1/1 105/1/1
f 204/1/1 205/1/1 107/1/1
f 144/1/1 204/1/1 107/1/1 106/1/1
f 206/1/1 148/1/1 108/1/1
f 205/1/1 206/1/1 108/1/1 107/1/1
f 148/1/1 110/1/1 108/1/1
f 207/1/1 150/1/1 112/1/1
f 207/1/1 112/1/1 113/1/1
f 208/1/1 209/1/1 114/1/1
f 150/1/1 208/1/1 114/1/1 112/1/1
f 210/1/1 211/1/1 115/1/1
f 209/1/1 210/1/1 115/1/1 114/1/1
f 212/1/1 213/1/1 116/1/1
f 211/1/1 212/1/1 116/1/1 115/1/1
f 214/1/1 215/1/1 117/1/1
f 213/1/1 214/1/1 117/1/1 116/1/1
f 216/1/1 161/1/1 217/1/1 118/1/1
f 215/1/1 216/1/1 118/1/1 117/1/1
f 218/1/1 163/1/1 119/1/1
f 217/1/1 218/1/1 119/1/1 118/1/1
f 219/1/1 220/1/1 120/1/1
f 163/1/1 219/1/1 120/1/1 119/1/1
f 221/1/1 222/1/1 121/1/1
f 220/1/1 221/1/1 121/1/1 120/1/1
f 223/1/1 224/1/1 122/1/1
f 222/1/1 223/1/1 122/1/1 121/1/1
f 225/1/1 171/1/1 123/1/1
f 224/1/1 225/1/1 123/1/1 122/1/1
f 226/1/1 227/1/1 124/1/1
f 171/1/1 226/1/1 124/1/1 123/1/1
f 228/1/1 176/1/1 229/1/1 125/1/1
f 227/1/1 228/1/1 125/1/1 124/1/1
f 230/1/1 231/1/1 126/1/1
f 229/1/1 230/1/1 126/1/1 125/1/1
f 232/1/1 180/1/1 127/1/1
f 231/1/1 232/1/1 127/1/1 126/1/1
f 233/1/1 234/1/1 128/1/1
f 180/1/1 233/1/1 128/1/1 127/1/1
f 235/1/1 236/1/1 129/1/1
f 234/1/1 235/1/1 129/1/1 128/1/1
f 237/1/1 187/1/1 238/1/1 130/1/1
f 236/1/1 237/1/1 130/1/1 129/1/1
f 239/1/1 240/1/1 131/1/1
f 238/1/1 239/1/1 131/1/1 130/1/1
f 241/1/1 242/1/1 132/1/1
f 240/1/1 241/1/1 132/1/1 131/1/1
f 243/1/1 244/1/1 133/1/1
f 242/1/1 243/1/1 133/1/1 132/1/1
f 245/1/1 246/1/1 134/1/1
f 244/1/1 245/1/1 134/1/1 133/1/1
f 247/1/1 137/1/1 103/1/1
f 246/1/1 247/1/1 103/1/1 134/1/1
f 103/1/2 102/1/2 248/1/2
f 103/1/2 248/1/2 249/1/2
f 102/1/3 104/1/3 250/1/3
f 102/1/3 250/1/3 248/1/3
f 104/1/4 105/1/4 251/1/4
f 104/1/4 251/1/4 250/1/4
f 105/1/5 106/1/5 252/1/5
f 105/1/5 252/1/5 251/1/5
f 106/1/6 107/1/6 253/1/6
f 106/1/6 253/1/6 252/1/6
f 107/1/7 108/1/7 254/1/7
f 107/1/7 254/1/7 253/1/7
f 255/1/8 108/1/8 110/1/8
f 108/1/8 255/1/8 256/1/8 254/1/8
f 257/1/9 113/1/9 112/1/9 258/1/9
f 257/1/9 258/1/9 259/1/9
f 112/1/10 114/1/10 260/1/10
f 112/1/10 260/1/10 258/1/10
f 114/1/11 115/1/11 261/1/11
f 114/1/11 261/1/11 260/1/11
f 115/1/12 116/1/12 262/1/12
f 115/1/12 262/1/12 261/1/12
f 116/1/13 117/1/13 263/1/13
f 116/1/13 263/1/13 262/1/13
f 117/1/14 118/1/14 264/1/14
f 117/1/14 264/1/14 263/1/14
f 118/1/15 119/1/15 265/1/15
f 118/1/15 265/1/15 264/1/15
f 119/1/16 120/1/16 266/1/16
f 119/1/16 266/1/16 265/1/16
f 120/1/17 121/1/17 267/1/17
f 120/1/17 267/1/17 266/1/17
f 121/1/18 122/1/18 268/1/18
f 121/1/18 268/1/18 267/1/18
f 122/1/19 123/1/19 269/1/19
f 122/1/19 269/1/19 268/1/19
f 123/1/20 124/1/20 270/1/20
f 123/1/20 270/1/20 269/1/20
f 124/1/21 125/1/21 271/1/21
f 124/1/21 271/1/21 270/1/21
f 125/1/22 126/1/22 272/1/22
f 125/1/22 272/1/22 271/1/22
f 126/1/23 127/1/23 273/1/23
f 126/1/23 273/1/23 272/1/23
f 127/1/24 128/1/24 274/1/24
f 127/1/24 274/1/24 273/1/24
f 128/1/25 129/1/25 275/1/25
f 128/1/25 275/1/25 274/1/25
f 129/1/26 130/1/26 276/1/26
f 129/1/26 276/1/26 275/1/26
f 130/1/27 131/1/27 277/1/27
f 130/1/27 277/1/27 276/1/27
f 131/1/28 132/1/28 278/1/28
f 131/1/28 278/1/28 277/1/28
f 132/1/29 133/1/29 279/1/29
f 132/1/29 279/1/29 278/1/29
f 133/1/30 134/1/30 280/1/30
f 133/1/30 280/1/30 279/1/30
f 134/1/31 103/1/31 249/1/31
f 134/1/31 249/1/31 280/1/31
f 281/1/32 249/1/32 248/1/32 282/1/32
f 283/1/32 249/1/32 281/1/32
f 284/1/32 248/1/32 250/1/32 285/1/32
f 286/1/32 282/1/32 248/1/32 284/1/32
f 287/1/32 250/1/32 251/1/32 288/1/32
f 285/1/32 250/1/32 287/1/32
f 289/1/32 251/1/32 252/1/32 290/1/32
f 288/1/32 251/1/32 289/1/32
f 291/1/32 252/1/32 253/1/32 292/1/32
f 290/1/32 252/1/32 291/1/32
f 293/1/32 253/1/32 254/1/32 294/1/32
f 292/1/32 253/1/32 293/1/32
f 295/1/32 254/1/32 256/1/32
f 294/1/32 254/1/32 295/1/32
f 259/1/32 258/1/32 296/1/32
f 297/1/32 258/1/32 260/1/32 298/1/32
f 296/1/32 258/1/32 297/1/32
f 299/1/32 260/1/32 261/1/32 300/1/32
f 298/1/32 260/1/32 299/1/32
f 301/1/32 261/1/32 262/1/32 302/1/32
f 300/1/32 261/1/32 301/1/32
f 303/1/32 262/1/32 263/1/32 304/1/32
f 302/1/32 262/1/32 303/1/32
f 305/1/32 263/1/32 264/1/32 306/1/32
f 307/1/32 304/1/32 263/1/32 305/1/32
f 308/1/32 264/1/32 265/1/32 309/1/32
f 306/1/32 264/1/32 308/1/32
f 310/1/32 265/1/32 266/1/32 311/1/32
f 309/1/32 265/1/32 310/1/32
f 312/1/32 266/1/32 267/1/32 313/1/32
f 311/1/32 266/1/32 312/1/32
f 314/1/32 267/1/32 268/1/32 315/1/32
f 313/1/32 267/1/32 314/1/32
f 316/1/32 268/1/32 269/1/32 317/1/32
f 315/1/32 268/1/32 316/1/32
f 318/1/32 269/1/32 270/1/32 319/1/32
f 317/1/32 269/1/32 318/1/32
f 320/1/32 270/1/32 271/1/32 321/1/32
f 322/1/32 319/1/32 270/1/32 320/1/32
f 323/1/32 271/1/32 272/1/32 324/1/32
f 321/1/32 271/1/32 323/1/32
f 325/1/32 272/1/32 273/1/32 326/1/32
f 324/1/32 272/1/32 325/1/32
f 327/1/32 273/1/32 274/1/32 328/1/32
f 326/1/32 273/1/32 327/1/32
f 329/1/32 274/1/32 275/1/32 330/1/32
f 328/1/32 274/1/32 329/1/32
f 331/1/32 275/1/32 276/1/32 332/1/32
f 333/1/32 330/1/32 275/1/32 331/1/32
f 334/1/32 276/1/32 277/1/32 335/1/32
f 332/1/32 276/1/32 334/1/32
f 336/1/32 277/1/32 278/1/32 337/1/32
f 335/1/32 277/1/32 336/1/32
f 338/1/32 278/1/32 279/1/32 339/1/32
f 337/1/32 278/1/32 338/1/32
f 340/1/32 279/1/32 280/1/32 341/1/32
f 339/1/32 279/1/32 340/1/32
f 342/1/32 280/1/32 249/1/32 283/1/32
f 341/1/32 280/1/32 342/1/32
usemtl mat_3
f 343/1/32 344/1/32 345/1/32 346/1/32
f 346/1/32 347/1/32 348/1/32
f 348/1/32 349/1/32 350/1/32
f 351/1/32 350/1/32 352/1/32 353/1/32
f 354/1/32 343/1/32 346/1/32 348/1/32
f 355/1/32 348/1/32 350/1/32 351/1/32
f 356/1/32 354/1/32 348/1/32
f 357/1/32 348/1/32 355/1/32
f 52/1/32 12/1/32 356/1/32
f 52/1/32 356/1/32 348/1/32
f 52/1/32 348/1/32 357/1/32
f 12/1/32 52/1/32 48/1/32 15/1/32
f 358/1/1 359/1/1 360/1/1
f 360/1/1 361/1/1 362/1/1
f 362/1/1 363/1/1 364/1/1
f 364/1/1 365/1/1 366/1/1
f 367/1/1 366/1/1 368/1/1
f 369/1/1 358/1/1 360/1/1 362/1/1
f 362/1/1 364/1/1 366/1/1
f 370/1/1 366/1/1 367/1/1
f 371/1/1 369/1/1 362/1/1
f 372/1/1 362/1/1 366/1/1 370/1/1
f 373/1/1 374/1/1 375/1/1 376/1/1
f 376/1/1 375/1/1 371/1/1
f 376/1/1 371/1/1 362/1/1
f 376/1/1 362/1/1 372/1/1
f 377/1/33 353/1/33 352/1/33 360/1/33
f 377/1/33 360/1/33 359/1/33
f 352/1/34 350/1/34 361/1/34
f 352/1/34 361/1/34 360/1/34
f 350/1/35 349/1/35 362/1/35
f 350/1/35 362/1/35 361/1/35
f 349/1/36 348/1/36 363/1/36
f 349/1/36 363/1/36 362/1/36
f 348/1/37 347/1/37 364/1/37
f 348/1/37 364/1/37 363/1/37
f 347/1/38 346/1/38 365/1/38
f 347/1/38 365/1/38 364/1/38
f 346/1/39 345/1/39 366/1/39
f 346/1/39 366/1/39 365/1/39
f 378/1/40 345/1/40 344/1/40
f 345/1/40 378/1/40 368/1/40 366/1/40
usemtl mat_5
f 379/1/41 380/1/41 381/1/41 382/1/41
f 383/1/42 380/1/42 379/1/42
f 384/1/43 381/1/43 385/1/43 386/1/43
f 382/1/44 381/1/44 384/1/44
f 387/1/45 385/1/45 388/1/45 389/1/45
f 386/1/46 385/1/46 387/1/46
f 390/1/47 388/1/47 391/1/47 392/1/47
f 389/1/48 388/1/48 390/1/48
f 393/1/49 391/1/49 394/1/49 395/1/49
f 392/1/50 391/1/50 393/1/50
f 396/1/51 394/1/51 397/1/51 398/1/51
f 395/1/52 394/1/52 396/1/52
f 399/1/53 397/1/53 400/1/53 401/1/53
f 398/1/54 397/1/54 399/1/54
f 402/1/55 400/1/55 403/1/55 404/1/55
f 401/1/56 400/1/56 402/1/56
f 405/1/57 403/1/57 406/1/57 407/1/57
f 404/1/58 403/1/58 405/1/58
f 408/1/59 406/1/59 409/1/59 410/1/59
f 407/1/60 406/1/60 408/1/60
f 411/1/61 409/1/61 412/1/61 413/1/61
f 410/1/62 409/1/62 411/1/62
f 414/1/63 412/1/63 415/1/63 416/1/63
f 413/1/64 412/1/64 414/1/64
f 417/1/65 415/1/65 418/1/65 419/1/65
f 416/1/66 415/1/66 417/1/66
f 420/1/67 418/1/67 421/1/67 422/1/67
f 419/1/68 418/1/68 420/1/68
f 423/1/69 421/1/69 424/1/69 425/1/69
f 422/1/70 421/1/70 423/1/70
f 426/1/71 424/1/71 380/1/71 383/1/71
f 425/1/72 424/1/72 426/1/72
f 380/1/73 424/1/73 421/1/73
f 421/1/74 418/1/74 415/1/74
f 415/1/75 412/1/75 409/1/75
f 409/1/76 406/1/76 403/1/76
f 403/1/73 400/1/73 397/1/73
f 397/1/74 394/1/74 391/1/74
f 391/1/75 388/1/75 385/1/75
f 385/1/76 381/1/76 380/1/76
f 380/1/77 421/1/77 415/1/77
f 415/1/78 409/1/78 403/1/78
f 403/1/77 397/1/77 391/1/77
f 391/1/78 385/1/78 380/1/78
f 380/1/79 415/1/79 403/1/79
f 403/1/79 391/1/79 380/1/79
usemtl mat_3
f 427/1/1 428/1/1 429/1/1
f 429/1/1 430/1/1 431/1/1
f 431/1/1 432/1/1 433/1/1
f 433/1/1 434/1/1 435/1/1
f 435/1/1 436/1/1 437/1/1
f 437/1/1 438/1/1 439/1/1
f 440/1/1 439/1/1 441/1/1
f 442/1/1 427/1/1 429/1/1
f 429/1/1 431/1/1 433/1/1
f 433/1/1 435/1/1 437/1/1
f 443/1/1 437/1/1 439/1/1 440/1/1
f 444/1/1 442/1/1 429/1/1
f 429/1/1 433/1/1 437/1/1
f 445/1/1 437/1/1 443/1/1
f 445/1/1 444/1/1 429/1/1 437/1/1
f 446/1/80 441/1/80 439/1/80 447/1/80
f 448/1/81 439/1/81 438/1/81 449/1/81
f 447/1/81 439/1/81 448/1/81
f 450/1/82 438/1/82 437/1/82 451/1/82
f 449/1/82 438/1/82 450/1/82
f 452/1/83 437/1/83 436/1/83 453/1/83
f 451/1/83 437/1/83 452/1/83
f 454/1/84 436/1/84 435/1/84 455/1/84
f 453/1/84 436/1/84 454/1/84
f 456/1/85 435/1/85 434/1/85 457/1/85
f 455/1/85 435/1/85 456/1/85
f 458/1/86 434/1/86 433/1/86 459/1/86
f 457/1/86 434/1/86 458/1/86
f 460/1/87 433/1/87 432/1/87 461/1/87
f 459/1/87 433/1/87 460/1/87
f 462/1/88 432/1/88 431/1/88 463/1/88
f 461/1/88 432/1/88 462/1/88
f 464/1/89 431/1/89 430/1/89 465/1/89
f 463/1/89 431/1/89 464/1/89
f 466/1/90 430/1/90 429/1/90 467/1/90
f 465/1/90 430/1/90 466/1/90
f 468/1/91 469/1/91 429/1/91 428/1/91
f 467/1/91 429/1/91 469/1/91
usemtl mat_2
f 470/1/92 471/1/92 472/1/92 473/1/92
f 470/1/92 473/1/92 474/1/92
f 472/1/93 475/1/93 476/1/93
f 472/1/93 476/1/93 473/1/93
f 475/1/94 477/1/94 478/1/94
f 475/1/94 478/1/94 476/1/94
f 477/1/95 479/1/95 480/1/95
f 477/1/95 480/1/95 478/1/95
f 479/1/96 481/1/96 482/1/96
f 479/1/96 482/1/96 480/1/96
f 481/1/97 483/1/97 484/1/97
f 481/1/97 484/1/97 482/1/97
f 483/1/98 485/1/98 486/1/98
f 483/1/98 486/1/98 484/1/98
f 485/1/99 487/1/99 488/1/99
f 485/1/99 488/1/99 486/1/99
f 487/1/100 489/1/100 490/1/100
f 487/1/100 490/1/100 488/1/100
f 489/1/101 491/1/101 492/1/101
f 489/1/101 492/1/101 490/1/101
f 491/1/102 493/1/102 494/1/102
f 491/1/102 494/1/102 492/1/102
f 493/1/103 495/1/103 496/1/103
f 493/1/103 496/1/103 494/1/103
f 495/1/104 497/1/104 498/1/104
f 495/1/104 498/1/104 496/1/104
f 499/1/105 497/1/105 500/1/105
f 497/1/105 499/1/105 501/1/105 498/1/105
f 474/1/32 473/1/32 502/1/32
f 503/1/32 473/1/32 476/1/32 504/1/32
f 502/1/32 473/1/32 503/1/32
f 505/1/32 476/1/32 478/1/32 506/1/32
f 504/1/32 476/1/32 505/1/32
f 507/1/32 478/1/32 480/1/32 508/1/32
f 506/1/32 478/1/32 507/1/32
f 509/1/32 480/1/32 482/1/32 510/1/32
f 508/1/32 480/1/32 509/1/32
f 511/1/32 482/1/32 484/1/32 512/1/32
f 510/1/32 482/1/32 511/1/32
f 513/1/32 484/1/32 486/1/32 514/1/32
f 512/1/32 484/1/32 513/1/32
f 515/1/32 486/1/32 488/1/32 516/1/32
f 514/1/32 486/1/32 515/1/32
f 517/1/32 488/1/32 490/1/32 518/1/32
f 516/1/32 488/1/32 517/1/32
f 519/1/32 490/1/32 492/1/32 520/1/32
f 518/1/32 490/1/32 519/1/32
f 521/1/32 492/1/32 494/1/32 522/1/32
f 520/1/32 492/1/32 521/1/32
f 523/1/32 494/1/32 496/1/32 524/1/32
f 522/1/32 494/1/32 523/1/32
f 525/1/32 496/1/32 498/1/32 526/1/32
f 524/1/32 496/1/32 525/1/32
f 527/1/32 498/1/32 501/1/32
f 526/1/32 498/1/32 527/1/32
f 528/1/1 529/1/1 472/1/1
f 528/1/1 472/1/1 471/1/1
f 530/1/1 531/1/1 475/1/1
f 529/1/1 530/1/1 475/1/1 472/1/1
f 532/1/1 533/1/1 477/1/1
f 531/1/1 532/1/1 477/1/1 475/1/1
f 534/1/1 535/1/1 479/1/1
f 533/1/1 534/1/1 479/1/1 477/1/1
f 536/1/1 537/1/1 481/1/1
f 535/1/1 536/1/1 481/1/1 479/1/1
f 538/1/1 539/1/1 483/1/1
f 537/1/1 538/1/1 483/1/1 481/1/1
f 540/1/1 541/1/1 485/1/1
f 539/1/1 540/1/1 485/1/1 483/1/1
f 542/1/1 543/1/1 487/1/1
f 541/1/1 542/1/1 487/1/1 485/1/1
f 544/1/1 545/1/1 489/1/1
f 543/1/1 544/1/1 489/1/1 487/1/1
f 546/1/1 547/1/1 491/1/1
f 545/1/1 546/1/1 491/1/1 489/1/1
f 548/1/1 549/1/1 493/1/1
f 547/1/1 548/1/1 493/1/1 491/1/1
f 550/1/1 551/1/1 495/1/1
f 549/1/1 550/1/1 495/1/1 493/1/1
f 552/1/1 553/1/1 497/1/1
f 551/1/1 552/1/1 497/1/1 495/1/1
f 553/1/1 500/1/1 497/1/1
usemtl mat_1
f 554/1/106 555/1/106 556/1/106 557/1/106
f 554/1/106 557/1/106 558/1/106
f 556/1/107 559/1/107 560/1/107
f 556/1/107 560/1/107 557/1/107
f 559/1/108 561/1/108 562/1/108
f 559/1/108 562/1/108 560/1/108
f 561/1/109 563/1/109 564/1/109
f 561/1/109 564/1/109 562/1/109
f 563/1/110 565/1/110 566/1/110
f 563/1/110 566/1/110 564/1/110
f 565/1/111 567/1/111 568/1/111
f 565/1/111 568/1/111 566/1/111
f 567/1/112 569/1/112 570/1/112
f 567/1/112 570/1/112 568/1/112
f 569/1/113 571/1/113 572/1/113
f 569/1/113 572/1/113 570/1/113
f 571/1/114 573/1/114 574/1/114
f 571/1/114 574/1/114 572/1/114
f 573/1/115 575/1/115 576/1/115
f 573/1/115 576/1/115 574/1/115
f 575/1/116 577/1/116 578/1/116
f 575/1/116 578/1/116 576/1/116
f 577/1/117 579/1/117 580/1/117
f 577/1/117 580/1/117 578/1/117
f 579/1/118 581/1/118 582/1/118
f 579/1/118 582/1/118 580/1/118
f 583/1/119 581/1/119 584/1/119
f 581/1/119 583/1/119 585/1/119 582/1/119
f 558/1/32 557/1/32 586/1/32
f 587/1/32 557/1/32 560/1/32 588/1/32
f 586/1/32 557/1/32 587/1/32
f 589/1/32 560/1/32 562/1/32 533/1/32
f 588/1/32 560/1/32 589/1/32
f 590/1/32 562/1/32 564/1/32 591/1/32
f 533/1/32 562/1/32 590/1/32
f 592/1/32 564/1/32 566/1/32 593/1/32
f 591/1/32 564/1/32 592/1/32
f 594/1/32 566/1/32 568/1/32 595/1/32
f 593/1/32 566/1/32 594/1/32
f 596/1/32 568/1/32 570/1/32 541/1/32
f 595/1/32 568/1/32 596/1/32
f 597/1/32 570/1/32 572/1/32 598/1/32
f 541/1/32 570/1/32 597/1/32
f 599/1/32 572/1/32 574/1/32 600/1/32
f 598/1/32 572/1/32 599/1/32
f 601/1/32 574/1/32 576/1/32 602/1/32
f 600/1/32 574/1/32 601/1/32
f 603/1/32 576/1/32 578/1/32 549/1/32
f 602/1/32 576/1/32 603/1/32
f 604/1/32 578/1/32 580/1/32 605/1/32
f 549/1/32 578/1/32 604/1/32
f 606/1/32 580/1/32 582/1/32 607/1/32
f 605/1/32 580/1/32 606/1/32
f 608/1/32 582/1/32 585/1/32
f 607/1/32 582/1/32 608/1/32
f 609/1/1 610/1/1 556/1/1
f 609/1/1 556/1/1 555/1/1
f 611/1/1 612/1/1 559/1/1
f 610/1/1 611/1/1 559/1/1 556/1/1
f 613/1/1 614/1/1 561/1/1
f 612/1/1 613/1/1 561/1/1 559/1/1
f 615/1/1 616/1/1 563/1/1
f 614/1/1 615/1/1 563/1/1 561/1/1
f 617/1/1 618/1/1 565/1/1
f 616/1/1 617/1/1 565/1/1 563/1/1
f 619/1/1 620/1/1 567/1/1
f 618/1/1 619/1/1 567/1/1 565/1/1
f 621/1/1 622/1/1 569/1/1
f 620/1/1 621/1/1 569/1/1 567/1/1
f 623/1/1 624/1/1 571/1/1
f 622/1/1 623/1/1 571/1/1 569/1/1
f 625/1/1 626/1/1 573/1/1
f 624/1/1 625/1/1 573/1/1 571/1/1
f 627/1/1 628/1/1 575/1/1
f 626/1/1 627/1/1 575/1/1 573/1/1
f 629/1/1 630/1/1 577/1/1
f 628/1/1 629/1/1 577/1/1 575/1/1
f 631/1/1 632/1/1 579/1/1
f 630/1/1 631/1/1 579/1/1 577/1/1
f 633/1/1 634/1/1 581/1/1
f 632/1/1 633/1/1 581/1/1 579/1/1
f 634/1/1 584/1/1 581/1/1
usemtl mat_2
f 635/1/1 636/1/1 637/1/1
f 637/1/1 638/1/1 639/1/1
f 639/1/1 640/1/1 635/1/1
f 637/1/1 639/1/1 635/1/1
f 641/1/32 642/1/32 643/1/32
f 643/1/32 644/1/32 645/1/32
f 645/1/32 646/1/32 641/1/32
f 643/1/32 645/1/32 641/1/32
f 635/1/120 640/1/120 643/1/120
f 635/1/120 643/1/120 642/1/120
f 640/1/121 639/1/121 644/1/121
f 640/1/121 644/1/121 643/1/121
f 639/1/122 638/1/122 645/1/122
f 639/1/122 645/1/122 644/1/122
f 638/1/123 637/1/123 646/1/123
f 638/1/123 646/1/123 645/1/123
f 637/1/124 636/1/124 641/1/124
f 637/1/124 641/1/124 646/1/124
f 636/1/125 635/1/125 642/1/125
f 636/1/125 642/1/125 641/1/125
f 647/1/1 648/1/1 649/1/1
f 649/1/1 650/1/1 651/1/1
f 651/1/1 652/1/1 647/1/1
f 649/1/1 651/1/1 647/1/1
f 653/1/32 654/1/32 655/1/32
f 655/1/32 656/1/32 657/1/32
f 657/1/32 658/1/32 653/1/32
f 655/1/32 657/1/32 653/1/32
f 647/1/120 652/1/120 655/1/120
f 647/1/120 655/1/120 654/1/120
f 652/1/121 651/1/121 656/1/121
f 652/1/121 656/1/121 655/1/121
f 651/1/122 650/1/122 657/1/122
f 651/1/122 657/1/122 656/1/122
f 650/1/123 649/1/123 658/1/123
f 650/1/123 658/1/123 657/1/123
f 649/1/124 648/1/124 653/1/124
f 649/1/124 653/1/124 658/1/124
f 648/1/125 647/1/125 654/1/125
f 648/1/125 654/1/125 653/1/125
f 659/1/1 660/1/1 661/1/1
f 661/1/1 662/1/1 663/1/1
f 663/1/1 664/1/1 659/1/1
f 661/1/1 663/1/1 659/1/1
f 665/1/32 666/1/32 667/1/32
f 667/1/32 668/1/32 669/1/32
f 669/1/32 670/1/32 665/1/32
f 667/1/32 669/1/32 665/1/32
f 659/1/120 664/1/120 667/1/120
f 659/1/120 667/1/120 666/1/120
f 664/1/121 663/1/121 668/1/121
f 664/1/121 668/1/121 667/1/121
f 663/1/122 662/1/122 669/1/122
f 663/1/122 669/1/122 668/1/122
f 662/1/123 661/1/123 670/1/123
f 662/1/123 670/1/123 669/1/123
f 661/1/124 660/1/124 665/1/124
f 661/1/124 665/1/124 670/1/124
f 660/1/125 659/1/125 666/1/125
f 660/1/125 666/1/125 665/1/125
f 671/1/1 672/1/1 673/1/1
f 673/1/1 674/1/1 675/1/1
f 675/1/1 676/1/1 671/1/1
f 673/1/1 675/1/1 671/1/1
f 677/1/32 678/1/32 679/1/32
f 679/1/32 680/1/32 681/1/32
f 681/1/32 682/1/32 677/1/32
f 679/1/32 681/1/32 677/1/32
f 671/1/120 676/1/120 679/1/120
f 671/1/120 679/1/120 678/1/120
f 676/1/121 675/1/121 680/1/121
f 676/1/121 680/1/121 679/1/121
f 675/1/122 674/1/122 681/1/122
f 675/1/122 681/1/122 680/1/122
f 674/1/123 673/1/123 682/1/123
f 674/1/123 682/1/123 681/1/123
f 673/1/124 672/1/124 677/1/124
f 673/1/124 677/1/124 682/1/124
f 672/1/125 671/1/125 678/1/125
f 672/1/125 678/1/125 677/1/125
f 683/1/1 684/1/1 685/1/1
f 685/1/1 686/1/1 687/1/1
f 687/1/1 688/1/1 683/1/1
f 685/1/1 687/1/1 683/1/1
f 689/1/32 690/1/32 691/1/32
f 691/1/32 692/1/32 693/1/32
f 693/1/32 694/1/32 689/1/32
f 691/1/32 693/1/32 689/1/32
f 683/1/120 688/1/120 691/1/120
f 683/1/120 691/1/120 690/1/120
f 688/1/121 687/1/121 692/1/121
f 688/1/121 692/1/121 691/1/121
f 687/1/122 686/1/122 693/1/122
f 687/1/122 693/1/122 692/1/122
f 686/1/123 685/1/123 694/1/123
f 686/1/123 694/1/123 693/1/123
f 685/1/124 684/1/124 689/1/124
f 685/1/124 689/1/124 694/1/124
f 684/1/125 683/1/125 690/1/125
f 684/1/125 690/1/125 689/1/125
usemtl mat_3
f 695/1/126 696/1/126 697/1/126 698/1/126
f 695/1/126 698/1/126 699/1/126
f 700/1/127 701/1/127 702/1/127
f 697/1/127 702/1/127 701/1/127
f 697/1/127 701/1/127 703/1/127
f 697/1/127 703/1/127 698/1/127
f 699/1/121 698/1/121 703/1/121
f 704/1/128 705/1/128 706/1/128 707/1/128
f 708/1/129 709/1/129 705/1/129 704/1/129
f 710/1/130 711/1/130 712/1/130 713/1/130
f 707/1/131 706/1/131 711/1/131 710/1/131
f 714/1/132 715/1/132 716/1/132 717/1/132
f 713/1/133 712/1/133 715/1/133 714/1/133
f 718/1/134 719/1/134 720/1/134 721/1/134
f 717/1/135 716/1/135 719/1/135 718/1/135
f 722/1/136 723/1/136 724/1/136 725/1/136
f 721/1/137 720/1/137 723/1/137 722/1/137
f 726/1/138 727/1/138 728/1/138 729/1/138
f 725/1/139 724/1/139 728/1/139 727/1/139
