# Authored in Blender; exported by tools-export-modern.py
mtllib materials.mtl
s off
v 0.000000000 0.891417408 0.103604033
v 0.000000000 0.881255865 0.100521564
v 0.010000229 0.881255865 0.100521564
v 0.000000000 1.000000000 0.136542178
v 0.010000229 1.000000000 0.136542178
v 0.000000000 0.778244341 0.045460979
v 0.000000000 0.768879414 0.040455341
v 0.010000229 0.768879414 0.040455341
v 0.000000000 0.719584597 0.000000000
v 0.010000229 0.719584597 0.000000000
v 0.010000229 1.000000000 0.000000000
v 0.010000229 0.922893290 0.000000000
v 0.010000229 0.913779910 0.000000000
v 0.010000229 0.795910803 0.000000000
v 0.010000229 0.791469810 0.000000000
v 0.045000076 0.871895383 0.000000000
v 0.045000076 0.857000113 0.008599758
v 0.045000076 0.842104842 0.000000000
v 0.000000000 0.857000113 0.008599758
v 0.000000000 0.842104842 0.000000000
v 0.000000000 0.862928726 0.005176883
v 0.000000000 0.871895383 0.000000000
v 0.090000153 0.894694567 0.000225544
v 0.090000153 0.879999995 0.005000114
v 0.090000153 0.865305424 0.000225544
v 0.090000153 0.865232140 0.000000000
v 0.090000153 0.865141556 0.000000000
v 0.090000153 0.894767850 0.000000000
v 0.090000153 0.894858434 0.000000000
v 0.090000153 0.894384134 0.000000000
v 0.000000000 0.866426198 0.000589707
v 0.000000000 0.865305424 0.000225544
v 0.000000000 0.879999995 0.005000114
v 0.000000000 0.865141556 0.000000000
v 0.068708877 0.894858434 0.000000000
v 0.000000000 0.894858434 0.000000000
v 0.000000000 0.894694567 0.000225544
v 0.000000000 0.881120769 0.004635952
vt 0.500000000 0.500000000
vn 0.000000000 -0.290284487 0.956940393
vn 0.000000000 -0.471395262 0.881922053
vn 0.000000000 -0.634394513 0.773009445
vn 1.000000000 0.000000000 0.000000000
vn 0.000000000 -0.499998687 0.866026162
vn 0.000000000 0.499998687 0.866026162
vn 0.000000000 -0.309017858 0.951056236
vn 0.000000000 -0.809016247 0.587786280
vn 0.000000000 0.809016247 0.587786280
vn 0.000000000 0.309017858 0.951056236
usemtl mat_0
f 1/1/1 2/1/1 3/1/1
f 4/1/1 1/1/1 3/1/1 5/1/1
f 6/1/2 7/1/2 8/1/2
f 2/1/2 6/1/2 8/1/2 3/1/2
f 7/1/3 9/1/3 10/1/3 8/1/3
f 11/1/4 5/1/4 3/1/4 12/1/4
f 13/1/4 3/1/4 8/1/4 14/1/4
f 12/1/4 3/1/4 13/1/4
f 15/1/4 8/1/4 10/1/4
f 14/1/4 8/1/4 15/1/4
usemtl mat_2
f 16/1/4 17/1/4 18/1/4
f 19/1/5 20/1/5 18/1/5 17/1/5
f 21/1/6 19/1/6 17/1/6
f 22/1/6 21/1/6 17/1/6 16/1/6
f 23/1/4 24/1/4 25/1/4
f 26/1/4 25/1/4 27/1/4
f 28/1/4 29/1/4 23/1/4
f 30/1/4 23/1/4 25/1/4 26/1/4
f 30/1/4 28/1/4 23/1/4
f 31/1/7 32/1/7 25/1/7
f 33/1/7 31/1/7 25/1/7 24/1/7
f 32/1/8 34/1/8 27/1/8 25/1/8
f 35/1/9 36/1/9 37/1/9 23/1/9
f 35/1/9 23/1/9 29/1/9
f 38/1/10 33/1/10 24/1/10
f 37/1/10 38/1/10 24/1/10 23/1/10
