# Authored in Blender; exported by tools-export-modern.py
mtllib materials.mtl
s off
v 0.480000019 0.227617883 1.000000000
v 0.480000019 0.239341153 1.000000000
v 0.480000019 0.290289164 0.877000809
v 0.480000019 0.334980011 0.690850019
v 0.480000019 0.350000143 0.500000000
v 0.480000019 0.334980011 0.309149981
v 0.480000019 0.290289164 0.122999191
v 0.480000019 0.227617883 0.000000000
v 0.480000019 0.239341187 0.000000000
v 0.480000019 0.200924983 1.000000000
v 0.480000019 0.200924983 0.000000000
v 0.480000019 0.120995277 1.000000000
v 0.480000019 0.005334267 0.000000000
v 0.480000019 0.000000000 0.000000000
v 0.480000019 0.000000000 1.000000000
v 1.000000000 0.247750504 0.020301869
v 0.857665748 0.239341187 0.000000000
v 1.000000000 0.290289164 0.122999191
v 1.000000000 0.239341187 0.000000000
v 1.000000000 0.309030486 0.201062422
v 1.000000000 0.334980011 0.309149981
v 1.000000000 0.341278776 0.389183856
v 1.000000000 0.350000143 0.500000000
v 1.000000000 0.343701378 0.580033876
v 1.000000000 0.334980011 0.690850019
v 1.000000000 0.316238689 0.768913250
v 1.000000000 0.290289164 0.877000809
v 1.000000000 0.239341153 1.000000000
v 1.000000000 0.259566801 0.951171041
v 0.466575576 0.301490216 1.000000000
v 0.580000043 0.301490216 1.000000000
v 0.580000043 0.307946444 0.987921238
v 0.460000038 0.307946444 0.987921238
v 0.460000038 0.301490216 1.000000000
v 0.580000043 0.380501270 0.748740196
v 0.460000038 0.380501270 0.748740196
v 0.580000043 0.405000210 0.500000000
v 0.460000038 0.405000210 0.500000000
v 0.580000043 0.380501270 0.251259804
v 0.460000038 0.380501270 0.251259804
v 0.580000043 0.307946444 0.012078762
v 0.460000038 0.307946444 0.012078762
v 0.573424505 0.301490216 0.000000000
v 0.580000043 0.301490216 0.000000000
v 0.460000038 0.301490216 0.000000000
v 0.460000038 0.000000000 1.000000000
v 0.460000038 0.000000000 0.860365710
v 0.460000038 0.000000000 0.851617379
v 0.460000038 0.000000000 0.673053802
v 0.460000038 0.000000000 0.663512037
v 0.460000038 0.000000000 0.500000000
v 0.460000038 0.000000000 0.490277078
v 0.460000038 0.000000000 0.326946198
v 0.460000038 0.000000000 0.317495169
v 0.460000038 0.000000000 0.139634290
v 0.460000038 0.000000000 0.000000000
v 0.460000038 0.000000000 0.131058296
v 0.580000043 0.000000000 0.868941704
v 0.580000043 0.000000000 0.860365710
v 0.580000043 0.000000000 1.000000000
v 0.580000043 0.000000000 0.682504831
v 0.580000043 0.000000000 0.673053802
v 0.580000043 0.000000000 0.509722922
v 0.580000043 0.000000000 0.500000000
v 0.580000043 0.000000000 0.336487963
v 0.580000043 0.000000000 0.326946198
v 0.580000043 0.000000000 0.148382621
v 0.580000043 0.000000000 0.139634290
v 0.580000043 0.000000000 0.000000000
v 0.584479263 0.243940386 1.000000000
v 0.610000014 0.243940386 1.000000000
v 0.610000014 0.260828495 0.968404531
v 0.580000043 0.260828495 0.968404531
v 0.580000043 0.243940386 1.000000000
v 0.610000014 0.330481291 0.738790512
v 0.580000043 0.330481291 0.738790512
v 0.610000014 0.354000092 0.500000000
v 0.580000043 0.354000092 0.500000000
v 0.610000014 0.330481291 0.261209488
v 0.580000043 0.330481291 0.261209488
v 0.610000014 0.260828495 0.031595469
v 0.580000043 0.260828495 0.031595469
v 0.605520794 0.243940386 0.000000000
v 0.610000014 0.243940386 0.000000000
v 0.580000043 0.243940386 0.000000000
v 0.580000043 0.000000000 0.860365841
v 0.580000043 0.000000000 0.852604653
v 0.580000043 0.000000000 0.673053738
v 0.580000043 0.000000000 0.664375420
v 0.580000043 0.000000000 0.491102597
v 0.580000043 0.000000000 0.326946262
v 0.580000043 0.000000000 0.318354323
v 0.580000043 0.000000000 0.139634159
v 0.580000043 0.000000000 0.132032962
v 0.610000014 0.000000000 0.867967038
v 0.610000014 0.000000000 0.860365841
v 0.610000014 0.000000000 1.000000000
v 0.610000014 0.000000000 0.681645677
v 0.610000014 0.000000000 0.673053738
v 0.610000014 0.000000000 0.508897403
v 0.610000014 0.000000000 0.500000000
v 0.610000014 0.000000000 0.335624580
v 0.610000014 0.000000000 0.326946262
v 0.610000014 0.000000000 0.147395347
v 0.610000014 0.000000000 0.139634159
v 0.610000014 0.000000000 0.000000000
v 0.660000086 0.148581505 0.760832071
v 0.660000086 0.209311485 0.795894623
v 0.660000086 0.209311485 0.866019726
v 0.660000086 0.148581505 0.901082277
v 0.660000086 0.087851524 0.866019726
v 0.660000086 0.087851524 0.795894623
v 0.425000072 0.209311485 0.795894623
v 0.425000072 0.148581505 0.760832071
v 0.425000072 0.087851524 0.795894623
v 0.425000072 0.087851524 0.866019726
v 0.425000072 0.148581505 0.901082277
v 0.425000072 0.209311485 0.866019726
v 0.660000086 0.201000214 0.429874897
v 0.660000086 0.261730194 0.464937449
v 0.660000086 0.261730194 0.535062551
v 0.660000086 0.201000214 0.570125103
v 0.660000086 0.140270233 0.535062551
v 0.660000086 0.140270233 0.464937449
v 0.425000072 0.261730194 0.464937449
v 0.425000072 0.201000214 0.429874897
v 0.425000072 0.140270233 0.464937449
v 0.425000072 0.140270233 0.535062551
v 0.425000072 0.201000214 0.570125103
v 0.425000072 0.261730194 0.535062551
v 0.660000086 0.148581505 0.098917723
v 0.660000086 0.209311485 0.133980274
v 0.660000086 0.209311485 0.204105377
v 0.660000086 0.148581505 0.239167929
v 0.660000086 0.087851524 0.204105377
v 0.660000086 0.087851524 0.133980274
v 0.425000072 0.209311485 0.133980274
v 0.425000072 0.148581505 0.098917723
v 0.425000072 0.087851524 0.133980274
v 0.425000072 0.087851524 0.204105377
v 0.425000072 0.148581505 0.239167929
v 0.425000072 0.209311485 0.204105377
v 0.643955731 0.252289847 0.000000000
v 0.631999969 0.252289847 0.000000000
v 0.631999969 0.301701784 0.119291067
v 0.667999983 0.301701784 0.119291067
v 0.667999983 0.252289847 0.000000000
v 0.631999969 0.346832275 0.307272673
v 0.667999983 0.346832275 0.307272673
v 0.631999969 0.361999989 0.500000000
v 0.667999983 0.361999989 0.500000000
v 0.631999969 0.346832275 0.692727327
v 0.667999983 0.346832275 0.692727327
v 0.631999969 0.301701784 0.880708933
v 0.667999983 0.301701784 0.880708933
v 0.656044238 0.252289814 1.000000000
v 0.631999969 0.252289814 1.000000000
v 0.667999983 0.252289814 1.000000000
v 0.667999983 0.248077033 0.000000000
v 0.667999983 0.290289164 0.122999191
v 0.667999983 0.239341187 0.000000000
v 0.667999983 0.334980011 0.309149981
v 0.667999983 0.350000143 0.500000000
v 0.667999983 0.334980011 0.690850019
v 0.667999983 0.290289164 0.877000809
v 0.667999983 0.243369337 1.000000000
v 0.667999983 0.239341153 1.000000000
v 0.657035490 0.239341187 0.000000000
v 0.631999969 0.290289164 0.122999191
v 0.631999969 0.239341187 0.000000000
v 0.631999969 0.334980011 0.309149981
v 0.631999969 0.350000143 0.500000000
v 0.631999969 0.334980011 0.690850019
v 0.631999969 0.290289164 0.877000809
v 0.642964445 0.239341153 1.000000000
v 0.631999969 0.239341153 1.000000000
v 0.631999969 0.243369377 0.000000000
v 0.631999969 0.248077005 1.000000000
v 0.943955802 0.252289847 0.000000000
v 0.932000041 0.252289847 0.000000000
v 0.932000041 0.301701784 0.119291067
v 0.968000054 0.301701784 0.119291067
v 0.968000054 0.252289847 0.000000000
v 0.932000041 0.346832275 0.307272673
v 0.968000054 0.346832275 0.307272673
v 0.932000041 0.361999989 0.500000000
v 0.968000054 0.361999989 0.500000000
v 0.932000041 0.346832275 0.692727327
v 0.968000054 0.346832275 0.692727327
v 0.932000041 0.301701784 0.880708933
v 0.968000054 0.301701784 0.880708933
v 0.956044309 0.252289814 1.000000000
v 0.932000041 0.252289814 1.000000000
v 0.968000054 0.252289814 1.000000000
v 0.968000054 0.248077033 0.000000000
v 0.968000054 0.290289164 0.122999191
v 0.968000054 0.239341187 0.000000000
v 0.968000054 0.334980011 0.309149981
v 0.968000054 0.350000143 0.500000000
v 0.968000054 0.334980011 0.690850019
v 0.968000054 0.290289164 0.877000809
v 0.968000054 0.243369337 1.000000000
v 0.968000054 0.239341153 1.000000000
v 0.957035561 0.239341187 0.000000000
v 0.932000041 0.290289164 0.122999191
v 0.932000041 0.239341187 0.000000000
v 0.932000041 0.334980011 0.309149981
v 0.932000041 0.350000143 0.500000000
v 0.932000041 0.334980011 0.690850019
v 0.932000041 0.290289164 0.877000809
v 0.942964517 0.239341153 1.000000000
v 0.932000041 0.239341153 1.000000000
v 0.932000041 0.243369377 0.000000000
v 0.932000041 0.248077005 1.000000000
v 0.879999995 0.099999905 0.819999933
v 0.879999995 0.171206713 0.811976910
v 0.879999995 0.238842726 0.788310051
v 0.879999995 0.299516678 0.750185966
v 0.879999995 0.350185871 0.699516773
v 0.879999995 0.388309956 0.638842821
v 0.879999995 0.411976814 0.571206808
v 0.879999995 0.419999838 0.500000000
v 0.879999995 0.411976814 0.428793192
v 0.879999995 0.388309956 0.361157179
v 0.879999995 0.350185871 0.300483227
v 0.879999995 0.299516678 0.249814034
v 0.879999995 0.238842726 0.211689949
v 0.879999995 0.171206713 0.188023090
v 0.879999995 0.099999905 0.180000067
v 0.879999995 0.000000000 0.202824331
v 0.879999995 0.028793097 0.188023090
v 0.879999995 0.000000000 0.198098228
v 0.879999995 0.000000000 0.797175669
v 0.879999995 0.000000000 0.801901772
v 0.879999995 0.028793097 0.811976910
v 0.879999995 0.000000000 0.211689949
v 0.879999995 0.000000000 0.771842538
v 0.879999995 0.000000000 0.230395703
v 0.879999995 0.000000000 0.627190922
v 1.000000000 0.086854031 0.818518760
v 1.000000000 0.028793097 0.811976910
v 1.000000000 0.099999905 0.819999933
v 1.000000000 0.000000000 0.801901772
v 1.000000000 0.016306447 0.807607643
v 1.000000000 0.000000000 0.198098228
v 1.000000000 0.028793097 0.188023090
v 1.000000000 0.041938970 0.186541917
v 1.000000000 0.099999905 0.180000067
v 1.000000000 0.113145778 0.181481240
v 1.000000000 0.171206713 0.188023090
v 1.000000000 0.183693362 0.192392357
v 1.000000000 0.238842726 0.211689949
v 1.000000000 0.250044072 0.218728242
v 1.000000000 0.299516678 0.249814034
v 1.000000000 0.308870991 0.259168347
v 1.000000000 0.350185871 0.300483227
v 1.000000000 0.357224164 0.311684573
v 1.000000000 0.388309956 0.361157179
v 1.000000000 0.392679222 0.373643828
v 1.000000000 0.411976814 0.428793192
v 1.000000000 0.413457988 0.441939065
v 1.000000000 0.419999838 0.500000000
v 1.000000000 0.418518664 0.513145873
v 1.000000000 0.411976814 0.571206808
v 1.000000000 0.407607548 0.583693458
v 1.000000000 0.388309956 0.638842821
v 1.000000000 0.381271663 0.650044167
v 1.000000000 0.350185871 0.699516773
v 1.000000000 0.340831558 0.708871087
v 1.000000000 0.299516678 0.750185966
v 1.000000000 0.288315332 0.757224260
v 1.000000000 0.238842726 0.788310051
v 1.000000000 0.226356076 0.792679318
v 1.000000000 0.171206713 0.811976910
v 1.000000000 0.158060839 0.813458083
v 0.759999990 0.099999905 0.869999886
v 0.759999990 0.027816534 0.862890482
v 0.879999995 0.027816534 0.862890482
v 0.879999995 0.099999905 0.869999886
v 0.808091087 0.000000000 0.854452505
v 0.759999990 0.000000000 0.854452505
v 0.879999995 0.000000000 0.854452505
v 0.831908898 0.000000000 0.145547495
v 0.759999990 0.000000000 0.145547495
v 0.759999990 0.027816534 0.137109518
v 0.879999995 0.027816534 0.137109518
v 0.879999995 0.000000000 0.145547495
v 0.759999990 0.099999905 0.130000114
v 0.879999995 0.099999905 0.130000114
v 0.759999990 0.172183275 0.137109518
v 0.879999995 0.172183275 0.137109518
v 0.759999990 0.241592884 0.158164501
v 0.879999995 0.241592884 0.158164501
v 0.759999990 0.305560827 0.192356348
v 0.879999995 0.305560827 0.192356348
v 0.759999990 0.361629486 0.238370419
v 0.879999995 0.361629486 0.238370419
v 0.759999990 0.407643557 0.294439077
v 0.879999995 0.407643557 0.294439077
v 0.759999990 0.441835403 0.358407021
v 0.879999995 0.441835403 0.358407021
v 0.759999990 0.462890387 0.427816629
v 0.879999995 0.462890387 0.427816629
v 0.759999990 0.469999790 0.500000000
v 0.879999995 0.469999790 0.500000000
v 0.759999990 0.462890387 0.572183371
v 0.879999995 0.462890387 0.572183371
v 0.759999990 0.441835403 0.641592979
v 0.879999995 0.441835403 0.641592979
v 0.759999990 0.407643557 0.705560923
v 0.879999995 0.407643557 0.705560923
v 0.759999990 0.361629486 0.761629581
v 0.879999995 0.361629486 0.761629581
v 0.759999990 0.305560827 0.807643652
v 0.879999995 0.305560827 0.807643652
v 0.759999990 0.241592884 0.841835499
v 0.879999995 0.241592884 0.841835499
v 0.759999990 0.172183275 0.862890482
v 0.879999995 0.172183275 0.862890482
v 0.879999995 0.088294506 0.558847189
v 0.879999995 0.099999905 0.559999943
v 0.879999995 0.000000000 0.741421098
v 0.879999995 0.077039003 0.555432796
v 0.879999995 0.000000000 0.729669125
v 0.879999995 0.000000000 0.649660366
v 0.879999995 0.066665649 0.549888134
v 0.879999995 0.000000000 0.636027006
v 0.879999995 0.000000000 0.599999905
v 0.879999995 0.057573557 0.542426348
v 0.879999995 0.000000000 0.587363748
v 0.879999995 0.000000000 0.566817858
v 0.879999995 0.050111771 0.533334255
v 0.879999995 0.000000000 0.555227375
v 0.879999995 0.000000000 0.541421232
v 0.879999995 0.044567108 0.522960901
v 0.879999995 0.000000000 0.530593906
v 0.879999995 0.000000000 0.519891183
v 0.879999995 0.041152716 0.511705399
v 0.879999995 0.000000000 0.509532592
v 0.879999995 0.000000000 0.500000000
v 0.879999995 0.039999962 0.500000000
v 0.879999995 0.000000000 0.489842745
v 0.879999995 0.000000000 0.480108817
v 0.879999995 0.041152716 0.488294601
v 0.879999995 0.000000000 0.469904123
v 0.879999995 0.000000000 0.458578768
v 0.879999995 0.044567108 0.477039099
v 0.879999995 0.000000000 0.448083504
v 0.879999995 0.000000000 0.433182142
v 0.879999995 0.050111771 0.466665745
v 0.879999995 0.000000000 0.422160285
v 0.879999995 0.000000000 0.400000095
v 0.879999995 0.057573557 0.457573652
v 0.879999995 0.000000000 0.388280197
v 0.879999995 0.000000000 0.350339634
v 0.879999995 0.066665649 0.450111866
v 0.879999995 0.000000000 0.338159369
v 0.879999995 0.000000000 0.258578902
v 0.879999995 0.077039003 0.444567204
v 0.879999995 0.000000000 0.248784050
v 0.879999995 0.088294506 0.441152811
v 0.879999995 0.099999905 0.440000057
v 0.879999995 0.111705303 0.441152811
v 0.879999995 0.122960806 0.444567204
v 0.879999995 0.133334160 0.450111866
v 0.879999995 0.142426252 0.457573652
v 0.879999995 0.149888039 0.466665745
v 0.879999995 0.155432701 0.477039099
v 0.879999995 0.158847094 0.488294601
v 0.879999995 0.159999847 0.500000000
v 0.879999995 0.158847094 0.511705399
v 0.879999995 0.155432701 0.522960901
v 0.879999995 0.149888039 0.533334255
v 0.879999995 0.142426252 0.542426348
v 0.879999995 0.133334160 0.549888134
v 0.879999995 0.122960806 0.555432796
v 0.879999995 0.111705303 0.558847189
v 0.759999990 0.088294506 0.558847189
v 0.759999990 0.099999905 0.559999943
v 0.759999990 0.077039003 0.555432796
v 0.759999990 0.066665649 0.549888134
v 0.759999990 0.057573557 0.542426348
v 0.759999990 0.050111771 0.533334255
v 0.759999990 0.044567108 0.522960901
v 0.759999990 0.041152716 0.511705399
v 0.759999990 0.039999962 0.500000000
v 0.759999990 0.041152716 0.488294601
v 0.759999990 0.044567108 0.477039099
v 0.759999990 0.050111771 0.466665745
v 0.759999990 0.057573557 0.457573652
v 0.759999990 0.066665649 0.450111866
v 0.759999990 0.077039003 0.444567204
v 0.759999990 0.088294506 0.441152811
v 0.759999990 0.099999905 0.440000057
v 0.759999990 0.111705303 0.441152811
v 0.759999990 0.122960806 0.444567204
v 0.759999990 0.133334160 0.450111866
v 0.759999990 0.142426252 0.457573652
v 0.759999990 0.149888039 0.466665745
v 0.759999990 0.155432701 0.477039099
v 0.759999990 0.158847094 0.488294601
v 0.759999990 0.159999847 0.500000000
v 0.759999990 0.158847094 0.511705399
v 0.759999990 0.155432701 0.522960901
v 0.759999990 0.149888039 0.533334255
v 0.759999990 0.142426252 0.542426348
v 0.759999990 0.133334160 0.549888134
v 0.759999990 0.122960806 0.555432796
v 0.759999990 0.111705303 0.558847189
v 0.759999990 0.000000000 0.751215950
v 0.759999990 0.000000000 0.741421098
v 0.759999990 0.000000000 0.661840631
v 0.759999990 0.000000000 0.649660366
v 0.759999990 0.000000000 0.611719803
v 0.759999990 0.000000000 0.599999905
v 0.759999990 0.000000000 0.577839715
v 0.759999990 0.000000000 0.566817858
v 0.759999990 0.000000000 0.551916496
v 0.759999990 0.000000000 0.541421232
v 0.759999990 0.000000000 0.530095877
v 0.759999990 0.000000000 0.519891183
v 0.759999990 0.000000000 0.510157255
v 0.759999990 0.000000000 0.500000000
v 0.759999990 0.000000000 0.490467408
v 0.759999990 0.000000000 0.480108817
v 0.759999990 0.000000000 0.469406094
v 0.759999990 0.000000000 0.458578768
v 0.759999990 0.000000000 0.444772625
v 0.759999990 0.000000000 0.433182142
v 0.759999990 0.000000000 0.412636252
v 0.759999990 0.000000000 0.400000095
v 0.759999990 0.000000000 0.363972994
v 0.759999990 0.000000000 0.350339634
v 0.759999990 0.000000000 0.270330875
v 0.759999990 0.000000000 0.258578902
v 0.730000019 0.099999905 0.855200052
v 0.730000019 0.030703783 0.848374844
v 0.759999990 0.030703783 0.848374844
v 0.759999990 0.099999905 0.855200052
v 0.743823692 0.000000000 0.839060956
v 0.730000019 0.000000000 0.839060956
v 0.759999990 0.000000000 0.839060956
v 0.746176317 0.000000000 0.160939044
v 0.730000019 0.000000000 0.160939044
v 0.730000019 0.030703783 0.151625156
v 0.759999990 0.030703783 0.151625156
v 0.759999990 0.000000000 0.160939044
v 0.730000019 0.099999905 0.144799948
v 0.759999990 0.099999905 0.144799948
v 0.730000019 0.169296026 0.151625156
v 0.759999990 0.169296026 0.151625156
v 0.730000019 0.235929012 0.171838045
v 0.759999990 0.235929012 0.171838045
v 0.730000019 0.297338486 0.204662085
v 0.759999990 0.297338486 0.204662085
v 0.730000019 0.351164341 0.248835564
v 0.759999990 0.351164341 0.248835564
v 0.730000019 0.395337820 0.302661419
v 0.759999990 0.395337820 0.302661419
v 0.730000019 0.428161860 0.364070892
v 0.759999990 0.428161860 0.364070892
v 0.730000019 0.448374748 0.430703878
v 0.759999990 0.448374748 0.430703878
v 0.730000019 0.455199957 0.500000000
v 0.759999990 0.455199957 0.500000000
v 0.730000019 0.448374748 0.569296122
v 0.759999990 0.448374748 0.569296122
v 0.730000019 0.428161860 0.635929108
v 0.759999990 0.428161860 0.635929108
v 0.730000019 0.395337820 0.697338581
v 0.759999990 0.395337820 0.697338581
v 0.730000019 0.351164341 0.751164436
v 0.759999990 0.351164341 0.751164436
v 0.730000019 0.297338486 0.795337915
v 0.759999990 0.297338486 0.795337915
v 0.730000019 0.235929012 0.828161955
v 0.759999990 0.235929012 0.828161955
v 0.730000019 0.169296026 0.848374844
v 0.759999990 0.169296026 0.848374844
v 0.759999990 0.000000000 0.741421255
v 0.759999990 0.000000000 0.730709145
v 0.759999990 0.000000000 0.649660314
v 0.759999990 0.000000000 0.636421626
v 0.759999990 0.000000000 0.587567446
v 0.759999990 0.000000000 0.566817875
v 0.759999990 0.000000000 0.555354995
v 0.759999990 0.000000000 0.541421217
v 0.759999990 0.000000000 0.530687436
v 0.759999990 0.000000000 0.519891196
v 0.759999990 0.000000000 0.509611940
v 0.759999990 0.000000000 0.489920059
v 0.759999990 0.000000000 0.480108804
v 0.759999990 0.000000000 0.469989831
v 0.759999990 0.000000000 0.458578783
v 0.759999990 0.000000000 0.448190382
v 0.759999990 0.000000000 0.433182125
v 0.759999990 0.000000000 0.422308961
v 0.759999990 0.000000000 0.388512434
v 0.759999990 0.000000000 0.350339686
v 0.759999990 0.000000000 0.338578574
v 0.759999990 0.000000000 0.258578745
v 0.759999990 0.000000000 0.249731911
v 0.730000019 0.088294506 0.558847189
v 0.730000019 0.099999905 0.559999943
v 0.730000019 0.077039003 0.555432796
v 0.730000019 0.066665649 0.549888134
v 0.730000019 0.057573557 0.542426348
v 0.730000019 0.050111771 0.533334255
v 0.730000019 0.044567108 0.522960901
v 0.730000019 0.041152716 0.511705399
v 0.730000019 0.039999962 0.500000000
v 0.730000019 0.041152716 0.488294601
v 0.730000019 0.044567108 0.477039099
v 0.730000019 0.050111771 0.466665745
v 0.730000019 0.057573557 0.457573652
v 0.730000019 0.066665649 0.450111866
v 0.730000019 0.077039003 0.444567204
v 0.730000019 0.088294506 0.441152811
v 0.730000019 0.099999905 0.440000057
v 0.730000019 0.111705303 0.441152811
v 0.730000019 0.122960806 0.444567204
v 0.730000019 0.133334160 0.450111866
v 0.730000019 0.142426252 0.457573652
v 0.730000019 0.149888039 0.466665745
v 0.730000019 0.155432701 0.477039099
v 0.730000019 0.158847094 0.488294601
v 0.730000019 0.159999847 0.500000000
v 0.730000019 0.158847094 0.511705399
v 0.730000019 0.155432701 0.522960901
v 0.730000019 0.149888039 0.533334255
v 0.730000019 0.142426252 0.542426348
v 0.730000019 0.133334160 0.549888134
v 0.730000019 0.122960806 0.555432796
v 0.730000019 0.111705303 0.558847189
v 0.730000019 0.000000000 0.750268089
v 0.730000019 0.000000000 0.741421255
v 0.730000019 0.000000000 0.661421426
v 0.730000019 0.000000000 0.649660314
v 0.730000019 0.000000000 0.611487566
v 0.730000019 0.000000000 0.599999905
v 0.730000019 0.000000000 0.577691039
v 0.730000019 0.000000000 0.566817875
v 0.730000019 0.000000000 0.551809618
v 0.730000019 0.000000000 0.541421217
v 0.730000019 0.000000000 0.530010169
v 0.730000019 0.000000000 0.519891196
v 0.730000019 0.000000000 0.510079941
v 0.730000019 0.000000000 0.500000000
v 0.730000019 0.000000000 0.490388060
v 0.730000019 0.000000000 0.480108804
v 0.730000019 0.000000000 0.469312564
v 0.730000019 0.000000000 0.458578783
v 0.730000019 0.000000000 0.444645005
v 0.730000019 0.000000000 0.433182125
v 0.730000019 0.000000000 0.412432554
v 0.730000019 0.000000000 0.400000095
v 0.730000019 0.000000000 0.363578374
v 0.730000019 0.000000000 0.350339686
v 0.730000019 0.000000000 0.269290855
v 0.730000019 0.000000000 0.258578745
v 0.679999948 0.099999905 0.831150055
v 0.679999948 0.117623568 0.820975065
v 0.679999948 0.117623568 0.800625086
v 0.679999948 0.099999905 0.790450096
v 0.679999948 0.082376242 0.800625086
v 0.679999948 0.082376242 0.820975065
v 0.914999962 0.117623568 0.820975065
v 0.914999962 0.099999905 0.831150055
v 0.914999962 0.082376242 0.820975065
v 0.914999962 0.082376242 0.800625086
v 0.914999962 0.099999905 0.790450096
v 0.914999962 0.117623568 0.800625086
v 0.679999948 0.099999905 0.209549904
v 0.679999948 0.117623568 0.199374914
v 0.679999948 0.117623568 0.179024935
v 0.679999948 0.099999905 0.168849945
v 0.679999948 0.082376242 0.179024935
v 0.679999948 0.082376242 0.199374914
v 0.914999962 0.117623568 0.199374914
v 0.914999962 0.099999905 0.209549904
v 0.914999962 0.082376242 0.199374914
v 0.914999962 0.082376242 0.179024935
v 0.914999962 0.099999905 0.168849945
v 0.914999962 0.117623568 0.179024935
v 0.679999948 0.255399942 0.251189232
v 0.679999948 0.273023605 0.241014242
v 0.679999948 0.273023605 0.220664263
v 0.679999948 0.255399942 0.210489273
v 0.679999948 0.237776279 0.220664263
v 0.679999948 0.237776279 0.241014242
v 0.914999962 0.273023605 0.241014242
v 0.914999962 0.255399942 0.251189232
v 0.914999962 0.237776279 0.241014242
v 0.914999962 0.237776279 0.220664263
v 0.914999962 0.255399942 0.210489273
v 0.914999962 0.273023605 0.220664263
v 0.679999948 0.369160652 0.364949942
v 0.679999948 0.386784315 0.354774952
v 0.679999948 0.386784315 0.334424973
v 0.679999948 0.369160652 0.324249983
v 0.679999948 0.351536989 0.334424973
v 0.679999948 0.351536989 0.354774952
v 0.914999962 0.386784315 0.354774952
v 0.914999962 0.369160652 0.364949942
v 0.914999962 0.351536989 0.354774952
v 0.914999962 0.351536989 0.334424973
v 0.914999962 0.369160652 0.324249983
v 0.914999962 0.386784315 0.334424973
v 0.679999948 0.410799980 0.520349979
v 0.679999948 0.428423643 0.510174990
v 0.679999948 0.428423643 0.489825010
v 0.679999948 0.410799980 0.479650021
v 0.679999948 0.393176317 0.489825010
v 0.679999948 0.393176317 0.510174990
v 0.914999962 0.428423643 0.510174990
v 0.914999962 0.410799980 0.520349979
v 0.914999962 0.393176317 0.510174990
v 0.914999962 0.393176317 0.489825010
v 0.914999962 0.410799980 0.479650021
v 0.914999962 0.428423643 0.489825010
v 0.679999948 0.369160652 0.675750017
v 0.679999948 0.386784315 0.665575027
v 0.679999948 0.386784315 0.645225048
v 0.679999948 0.369160652 0.635050058
v 0.679999948 0.351536989 0.645225048
v 0.679999948 0.351536989 0.665575027
v 0.914999962 0.386784315 0.665575027
v 0.914999962 0.369160652 0.675750017
v 0.914999962 0.351536989 0.665575027
v 0.914999962 0.351536989 0.645225048
v 0.914999962 0.369160652 0.635050058
v 0.914999962 0.386784315 0.645225048
v 0.679999948 0.255399942 0.789510727
v 0.679999948 0.273023605 0.779335737
v 0.679999948 0.273023605 0.758985758
v 0.679999948 0.255399942 0.748810768
v 0.679999948 0.237776279 0.758985758
v 0.679999948 0.237776279 0.779335737
v 0.914999962 0.273023605 0.779335737
v 0.914999962 0.255399942 0.789510727
v 0.914999962 0.237776279 0.779335737
v 0.914999962 0.237776279 0.758985758
v 0.914999962 0.255399942 0.748810768
v 0.914999962 0.273023605 0.758985758
v 1.000000000 0.000000000 0.550273623
v 1.000000000 0.099999905 0.550273623
v 0.990000010 0.099999905 0.500000000
v 0.990000010 0.000000000 0.500000000
v 1.000000000 0.000000000 0.449726377
v 0.994937526 0.000000000 0.475177291
v 1.000000000 0.099999905 0.449726377
v 1.000000000 0.099999905 0.475857890
v 1.000000000 0.099999905 0.524142110
v 1.000000000 0.099999905 0.490000010
v 1.000000000 0.099999905 0.509999990
v 1.000000000 1.000000000 0.059999943
v 1.000000000 0.945000124 0.059999943
v 0.899999976 0.920000076 0.059999943
v 0.899999976 1.000000000 0.059999943
v 1.000000000 0.920000076 0.059999943
v 1.000000000 0.945000124 0.940000057
v 0.899999976 0.920000076 0.940000057
v 1.000000000 0.920000076 0.940000057
v 0.899999976 1.000000000 0.940000057
v 1.000000000 1.000000000 0.940000057
v 1.000000000 0.920000076 0.304444468
v 0.899999976 1.000000000 0.842220195
v 0.000000000 0.013609449 0.272184180
v 1.000000000 0.085601493 0.257864126
v 1.000000000 0.006242587 0.273649454
v 0.000000000 0.006242953 0.273649454
v 0.000000000 0.099999905 0.255000114
v 1.000000000 0.099999905 0.255000114
v 0.000000000 0.000000000 0.277820892
v 1.000000000 0.000000000 0.277820647
v 0.000000000 0.000000000 0.722179133
v 1.000000000 0.000000000 0.722179378
v 1.000000000 0.006242587 0.726350546
v 0.000000000 0.006242953 0.726350546
v 0.000000000 0.092654860 0.743538878
v 1.000000000 0.020644574 0.729215269
v 1.000000000 0.099999905 0.744999886
v 0.000000000 0.099999905 0.744999886
v 0.000000000 0.186433273 0.727807284
v 1.000000000 0.114405469 0.742134451
v 1.000000000 0.193757222 0.726350546
v 0.000000000 0.193756856 0.726350546
v 0.000000000 0.267046959 0.677379311
v 1.000000000 0.205972242 0.718188672
v 1.000000000 0.273240897 0.673241138
v 0.000000000 0.273240164 0.673241138
v 0.000000000 0.322217850 0.599940282
v 1.000000000 0.281403846 0.661024327
v 1.000000000 0.326350231 0.593757391
v 0.000000000 0.326349131 0.593757391
v 0.000000000 0.343548624 0.507288937
v 1.000000000 0.329216813 0.579345979
v 1.000000000 0.344999570 0.500000000
v 0.000000000 0.344998471 0.500000000
v 0.000000000 0.327799828 0.413535820
v 1.000000000 0.342133129 0.485589301
v 1.000000000 0.326350231 0.406242609
v 0.000000000 0.326349131 0.406242609
v 0.000000000 0.277378336 0.332952066
v 1.000000000 0.318188430 0.394027516
v 1.000000000 0.273240897 0.326758862
v 0.000000000 0.273240164 0.326758862
v 0.000000000 0.199965495 0.277797939
v 1.000000000 0.261028449 0.318598706
v 1.000000000 0.193757222 0.273649454
v 0.000000000 0.193756856 0.273649454
v 0.000000000 0.107344949 0.256461122
v 1.000000000 0.179355235 0.270784731
vt 0.500000000 0.500000000
vn -1.000000000 0.000000000 0.000000000
vn 0.000000000 0.923879418 -0.382683709
vn 0.000000000 0.972369924 -0.233445349
vn 0.000000000 0.996917371 -0.078458627
vn 0.000000000 0.996917371 0.078458627
vn 0.000000000 0.972369924 0.233445349
vn 0.000000000 0.923879327 0.382683930
vn 0.000000000 0.881921426 0.471396434
vn 0.000000000 0.956940279 0.290284864
vn 0.000000000 0.995184661 0.098017808
vn 0.000000000 0.995184661 -0.098017808
vn 0.000000000 0.956940279 -0.290284864
vn 0.000000000 0.881921426 -0.471396434
vn 1.000000000 -0.000000000 0.000000000
vn 0.000000000 0.881921505 0.471396286
vn 0.000000000 0.956940168 0.290285229
vn 0.000000000 0.995184732 0.098017091
vn 0.000000000 0.995184732 -0.098017091
vn 0.000000000 0.956940168 -0.290285229
vn 0.000000000 0.881921505 -0.471396286
vn 0.000000000 -0.500000866 -0.866024904
vn 0.000000000 -1.000000000 0.000000000
vn 0.000000000 -0.500000866 0.866024904
vn 0.000000000 0.500000866 0.866024904
vn 0.000000000 1.000000000 0.000000000
vn 0.000000000 0.500000866 -0.866024904
vn 0.000000000 0.923879644 -0.382683163
vn 0.000000000 0.972369802 -0.233445856
vn 0.000000000 0.996917437 -0.078457777
vn 0.000000000 0.996917437 0.078457777
vn 0.000000000 0.972369802 0.233445856
vn 0.000000000 0.923879554 0.382683381
vn 0.000000000 -0.923879418 0.382683709
vn 0.000000000 -0.972369924 0.233445349
vn 0.000000000 -0.996917371 0.078458627
vn 0.000000000 -0.996917371 -0.078458627
vn 0.000000000 -0.972369924 -0.233445349
vn 0.000000000 -0.923879327 -0.382683930
vn 0.000000000 -0.111963693 0.993712298
vn 0.000000000 -0.330278989 0.943883356
vn 0.000000000 -0.330278989 -0.943883356
vn 0.000000000 -0.111963693 -0.993712298
vn 0.000000000 0.111963693 -0.993712298
vn 0.000000000 0.330278989 -0.943883356
vn 0.000000000 0.532033213 -0.846723485
vn 0.000000000 0.707106781 -0.707106781
vn 0.000000000 0.846723485 -0.532033213
vn 0.000000000 0.943883356 -0.330278989
vn 0.000000000 0.993712298 -0.111963693
vn 0.000000000 0.993712298 0.111963693
vn 0.000000000 0.943883356 0.330278989
vn 0.000000000 0.846723485 0.532033213
vn 0.000000000 0.707106781 0.707106781
vn 0.000000000 0.532033213 0.846723485
vn 0.000000000 0.330278989 0.943883356
vn 0.000000000 0.111963693 0.993712298
vn 0.000000000 -0.098016623 0.995184778
vn 0.000000000 -0.290282259 0.956941069
vn 0.000000000 -0.290282259 -0.956941069
vn 0.000000000 -0.098016623 -0.995184778
vn 0.000000000 0.098016623 -0.995184778
vn 0.000000000 0.290282259 -0.956941069
vn 0.000000000 0.471399620 -0.881919723
vn 0.000000000 0.634390906 -0.773012405
vn 0.000000000 0.773012405 -0.634390906
vn 0.000000000 0.881919723 -0.471399620
vn 0.000000000 0.956941069 -0.290282259
vn 0.000000000 0.995184778 -0.098016623
vn 0.000000000 0.995184778 0.098016623
vn 0.000000000 0.956941069 0.290282259
vn 0.000000000 0.881919723 0.471399620
vn 0.000000000 0.773012405 0.634390906
vn 0.000000000 0.634390906 0.773012405
vn 0.000000000 0.471399620 0.881919723
vn 0.000000000 0.290282259 0.956941069
vn 0.000000000 0.098016623 0.995184778
vn 0.000000000 0.098006421 -0.995185782
vn 0.000000000 0.290290365 -0.956938610
vn 0.000000000 0.471396027 -0.881921644
vn 0.000000000 0.634398302 -0.773006335
vn 0.000000000 0.773006335 -0.634398302
vn 0.000000000 0.881921644 -0.471396027
vn 0.000000000 0.956938610 -0.290290365
vn 0.000000000 0.995185782 -0.098006421
vn 0.000000000 0.995185782 0.098006421
vn 0.000000000 0.956938610 0.290290365
vn 0.000000000 0.881921644 0.471396027
vn 0.000000000 0.773006335 0.634398302
vn 0.000000000 0.634398302 0.773006335
vn 0.000000000 0.471396027 0.881921644
vn 0.000000000 0.290290365 0.956938610
vn 0.000000000 0.098006421 0.995185782
vn 0.000000000 -0.098006421 0.995185782
vn 0.000000000 -0.290290365 0.956938610
vn 0.000000000 -0.471396027 0.881921644
vn 0.000000000 -0.634398302 0.773006335
vn 0.000000000 -0.773006335 0.634398302
vn 0.000000000 -0.881921644 0.471396027
vn 0.000000000 -0.956938610 0.290290365
vn 0.000000000 -0.995185782 0.098006421
vn 0.000000000 -0.995185782 -0.098006421
vn 0.000000000 -0.956938610 -0.290290365
vn 0.000000000 -0.881921644 -0.471396027
vn 0.000000000 -0.773006335 -0.634398302
vn 0.000000000 -0.634398302 -0.773006335
vn 0.000000000 -0.471396027 -0.881921644
vn 0.000000000 -0.290290365 -0.956938610
vn 0.000000000 -0.098006421 -0.995185782
vn 0.000000000 -0.098019080 0.995184536
vn 0.000000000 -0.290284590 0.956940362
vn 0.000000000 -0.290284590 -0.956940362
vn 0.000000000 -0.098019080 -0.995184536
vn 0.000000000 0.098019080 -0.995184536
vn 0.000000000 0.290284590 -0.956940362
vn 0.000000000 0.471396648 -0.881921312
vn 0.000000000 0.634391064 -0.773012275
vn 0.000000000 0.773012275 -0.634391064
vn 0.000000000 0.881921312 -0.471396648
vn 0.000000000 0.956940362 -0.290284590
vn 0.000000000 0.995184536 -0.098019080
vn 0.000000000 0.995184536 0.098019080
vn 0.000000000 0.956940362 0.290284590
vn 0.000000000 0.881921312 0.471396648
vn 0.000000000 0.773012275 0.634391064
vn 0.000000000 0.634391064 0.773012275
vn 0.000000000 0.471396648 0.881921312
vn 0.000000000 0.290284590 0.956940362
vn 0.000000000 0.098019080 0.995184536
vn 0.000000000 -0.499998642 0.866026188
vn 0.000000000 -0.499998642 -0.866026188
vn 0.000000000 0.499998642 -0.866026188
vn 0.000000000 0.499998642 0.866026188
vn -0.980785485 0.000000000 0.195089293
vn -0.980785485 0.000000000 -0.195089293
vn 0.000000000 0.000000000 -1.000000000
vn 0.000000000 0.000000000 1.000000000
vn -0.000000071 -0.195088662 -0.980785611
vn -0.000000000 -0.195089617 -0.980785421
vn -0.000000203 -0.555573009 -0.831467757
vn -0.000000203 -0.555570705 0.831469297
vn 0.000000000 -0.195088662 0.980785611
vn -0.000000071 -0.195089617 0.980785421
vn -0.000000071 0.195088662 0.980785611
vn 0.000000000 0.195089617 0.980785421
vn -0.000000407 0.555570705 0.831469297
vn -0.000000204 0.555573010 0.831467757
vn -0.000000914 0.831469297 0.555570705
vn -0.000000609 0.831471602 0.555567256
vn -0.000001078 0.980785611 0.195088662
vn -0.000001078 0.980785611 -0.195088662
vn -0.000000609 0.831469297 -0.555570705
vn -0.000000914 0.831471602 -0.555567255
vn -0.000000204 0.555570705 -0.831469297
vn -0.000000407 0.555573010 -0.831467756
vn 0.000000000 0.195088662 -0.980785611
vn -0.000000071 0.195089617 -0.980785421
usemtl mat_3
f 1/1/1 2/1/1 3/1/1
f 3/1/1 4/1/1 5/1/1
f 5/1/1 6/1/1 7/1/1
f 8/1/1 7/1/1 9/1/1
f 10/1/1 1/1/1 3/1/1
f 3/1/1 5/1/1 7/1/1
f 11/1/1 7/1/1 8/1/1
f 12/1/1 10/1/1 3/1/1
f 13/1/1 3/1/1 7/1/1 11/1/1
f 14/1/1 15/1/1 12/1/1
f 14/1/1 12/1/1 3/1/1
f 14/1/1 3/1/1 13/1/1
f 16/1/2 17/1/2 9/1/2
f 16/1/2 9/1/2 7/1/2
f 16/1/2 7/1/2 18/1/2
f 19/1/2 17/1/2 16/1/2
f 20/1/3 7/1/3 6/1/3 21/1/3
f 18/1/3 7/1/3 20/1/3
f 22/1/4 6/1/4 5/1/4 23/1/4
f 21/1/4 6/1/4 22/1/4
f 24/1/5 5/1/5 4/1/5 25/1/5
f 23/1/5 5/1/5 24/1/5
f 26/1/6 4/1/6 3/1/6 27/1/6
f 25/1/6 4/1/6 26/1/6
f 28/1/7 29/1/7 3/1/7 2/1/7
f 27/1/7 3/1/7 29/1/7
usemtl mat_2
f 30/1/8 31/1/8 32/1/8 33/1/8
f 30/1/8 33/1/8 34/1/8
f 32/1/9 35/1/9 36/1/9
f 32/1/9 36/1/9 33/1/9
f 35/1/10 37/1/10 38/1/10
f 35/1/10 38/1/10 36/1/10
f 37/1/11 39/1/11 40/1/11
f 37/1/11 40/1/11 38/1/11
f 39/1/12 41/1/12 42/1/12
f 39/1/12 42/1/12 40/1/12
f 43/1/13 41/1/13 44/1/13
f 41/1/13 43/1/13 45/1/13 42/1/13
f 46/1/1 34/1/1 33/1/1 47/1/1
f 48/1/1 33/1/1 36/1/1 49/1/1
f 47/1/1 33/1/1 48/1/1
f 50/1/1 36/1/1 38/1/1 51/1/1
f 49/1/1 36/1/1 50/1/1
f 52/1/1 38/1/1 40/1/1 53/1/1
f 51/1/1 38/1/1 52/1/1
f 54/1/1 40/1/1 42/1/1 55/1/1
f 53/1/1 40/1/1 54/1/1
f 56/1/1 57/1/1 42/1/1 45/1/1
f 55/1/1 42/1/1 57/1/1
f 58/1/14 59/1/14 32/1/14
f 60/1/14 58/1/14 32/1/14 31/1/14
f 61/1/14 62/1/14 35/1/14
f 59/1/14 61/1/14 35/1/14 32/1/14
f 63/1/14 64/1/14 37/1/14
f 62/1/14 63/1/14 37/1/14 35/1/14
f 65/1/14 66/1/14 39/1/14
f 64/1/14 65/1/14 39/1/14 37/1/14
f 67/1/14 68/1/14 41/1/14
f 66/1/14 67/1/14 41/1/14 39/1/14
f 68/1/14 69/1/14 44/1/14 41/1/14
usemtl mat_1
f 70/1/15 71/1/15 72/1/15 73/1/15
f 70/1/15 73/1/15 74/1/15
f 72/1/16 75/1/16 76/1/16
f 72/1/16 76/1/16 73/1/16
f 75/1/17 77/1/17 78/1/17
f 75/1/17 78/1/17 76/1/17
f 77/1/18 79/1/18 80/1/18
f 77/1/18 80/1/18 78/1/18
f 79/1/19 81/1/19 82/1/19
f 79/1/19 82/1/19 80/1/19
f 83/1/20 81/1/20 84/1/20
f 81/1/20 83/1/20 85/1/20 82/1/20
f 60/1/1 74/1/1 73/1/1 86/1/1
f 87/1/1 73/1/1 76/1/1 88/1/1
f 86/1/1 73/1/1 87/1/1
f 89/1/1 76/1/1 78/1/1 64/1/1
f 88/1/1 76/1/1 89/1/1
f 90/1/1 78/1/1 80/1/1 91/1/1
f 64/1/1 78/1/1 90/1/1
f 92/1/1 80/1/1 82/1/1 93/1/1
f 91/1/1 80/1/1 92/1/1
f 69/1/1 94/1/1 82/1/1 85/1/1
f 93/1/1 82/1/1 94/1/1
f 95/1/14 96/1/14 72/1/14
f 97/1/14 95/1/14 72/1/14 71/1/14
f 98/1/14 99/1/14 75/1/14
f 96/1/14 98/1/14 75/1/14 72/1/14
f 100/1/14 101/1/14 77/1/14
f 99/1/14 100/1/14 77/1/14 75/1/14
f 102/1/14 103/1/14 79/1/14
f 101/1/14 102/1/14 79/1/14 77/1/14
f 104/1/14 105/1/14 81/1/14
f 103/1/14 104/1/14 81/1/14 79/1/14
f 105/1/14 106/1/14 84/1/14 81/1/14
usemtl mat_2
f 107/1/14 108/1/14 109/1/14
f 109/1/14 110/1/14 111/1/14
f 111/1/14 112/1/14 107/1/14
f 109/1/14 111/1/14 107/1/14
f 113/1/1 114/1/1 115/1/1
f 115/1/1 116/1/1 117/1/1
f 117/1/1 118/1/1 113/1/1
f 115/1/1 117/1/1 113/1/1
f 107/1/21 112/1/21 115/1/21
f 107/1/21 115/1/21 114/1/21
f 112/1/22 111/1/22 116/1/22
f 112/1/22 116/1/22 115/1/22
f 111/1/23 110/1/23 117/1/23
f 111/1/23 117/1/23 116/1/23
f 110/1/24 109/1/24 118/1/24
f 110/1/24 118/1/24 117/1/24
f 109/1/25 108/1/25 113/1/25
f 109/1/25 113/1/25 118/1/25
f 108/1/26 107/1/26 114/1/26
f 108/1/26 114/1/26 113/1/26
f 119/1/14 120/1/14 121/1/14
f 121/1/14 122/1/14 123/1/14
f 123/1/14 124/1/14 119/1/14
f 121/1/14 123/1/14 119/1/14
f 125/1/1 126/1/1 127/1/1
f 127/1/1 128/1/1 129/1/1
f 129/1/1 130/1/1 125/1/1
f 127/1/1 129/1/1 125/1/1
f 119/1/21 124/1/21 127/1/21
f 119/1/21 127/1/21 126/1/21
f 124/1/22 123/1/22 128/1/22
f 124/1/22 128/1/22 127/1/22
f 123/1/23 122/1/23 129/1/23
f 123/1/23 129/1/23 128/1/23
f 122/1/24 121/1/24 130/1/24
f 122/1/24 130/1/24 129/1/24
f 121/1/25 120/1/25 125/1/25
f 121/1/25 125/1/25 130/1/25
f 120/1/26 119/1/26 126/1/26
f 120/1/26 126/1/26 125/1/26
f 131/1/14 132/1/14 133/1/14
f 133/1/14 134/1/14 135/1/14
f 135/1/14 136/1/14 131/1/14
f 133/1/14 135/1/14 131/1/14
f 137/1/1 138/1/1 139/1/1
f 139/1/1 140/1/1 141/1/1
f 141/1/1 142/1/1 137/1/1
f 139/1/1 141/1/1 137/1/1
f 131/1/21 136/1/21 139/1/21
f 131/1/21 139/1/21 138/1/21
f 136/1/22 135/1/22 140/1/22
f 136/1/22 140/1/22 139/1/22
f 135/1/23 134/1/23 141/1/23
f 135/1/23 141/1/23 140/1/23
f 134/1/24 133/1/24 142/1/24
f 134/1/24 142/1/24 141/1/24
f 133/1/25 132/1/25 137/1/25
f 133/1/25 137/1/25 142/1/25
f 132/1/26 131/1/26 138/1/26
f 132/1/26 138/1/26 137/1/26
f 143/1/27 144/1/27 145/1/27 146/1/27
f 143/1/27 146/1/27 147/1/27
f 145/1/28 148/1/28 149/1/28
f 145/1/28 149/1/28 146/1/28
f 148/1/29 150/1/29 151/1/29
f 148/1/29 151/1/29 149/1/29
f 150/1/30 152/1/30 153/1/30
f 150/1/30 153/1/30 151/1/30
f 152/1/31 154/1/31 155/1/31
f 152/1/31 155/1/31 153/1/31
f 156/1/32 154/1/32 157/1/32
f 154/1/32 156/1/32 158/1/32 155/1/32
f 159/1/14 147/1/14 146/1/14 160/1/14
f 159/1/14 160/1/14 161/1/14
f 146/1/14 149/1/14 162/1/14
f 146/1/14 162/1/14 160/1/14
f 149/1/14 151/1/14 163/1/14
f 149/1/14 163/1/14 162/1/14
f 151/1/14 153/1/14 164/1/14
f 151/1/14 164/1/14 163/1/14
f 153/1/14 155/1/14 165/1/14
f 153/1/14 165/1/14 164/1/14
f 166/1/14 155/1/14 158/1/14
f 155/1/14 166/1/14 167/1/14 165/1/14
f 168/1/33 161/1/33 160/1/33 169/1/33
f 168/1/33 169/1/33 170/1/33
f 160/1/34 162/1/34 171/1/34
f 160/1/34 171/1/34 169/1/34
f 162/1/35 163/1/35 172/1/35
f 162/1/35 172/1/35 171/1/35
f 163/1/36 164/1/36 173/1/36
f 163/1/36 173/1/36 172/1/36
f 164/1/37 165/1/37 174/1/37
f 164/1/37 174/1/37 173/1/37
f 175/1/38 165/1/38 167/1/38
f 165/1/38 175/1/38 176/1/38 174/1/38
f 177/1/1 170/1/1 169/1/1 145/1/1
f 177/1/1 145/1/1 144/1/1
f 169/1/1 171/1/1 148/1/1
f 169/1/1 148/1/1 145/1/1
f 171/1/1 172/1/1 150/1/1
f 171/1/1 150/1/1 148/1/1
f 172/1/1 173/1/1 152/1/1
f 172/1/1 152/1/1 150/1/1
f 173/1/1 174/1/1 154/1/1
f 173/1/1 154/1/1 152/1/1
f 178/1/1 174/1/1 176/1/1
f 174/1/1 178/1/1 157/1/1 154/1/1
f 179/1/27 180/1/27 181/1/27 182/1/27
f 179/1/27 182/1/27 183/1/27
f 181/1/28 184/1/28 185/1/28
f 181/1/28 185/1/28 182/1/28
f 184/1/29 186/1/29 187/1/29
f 184/1/29 187/1/29 185/1/29
f 186/1/30 188/1/30 189/1/30
f 186/1/30 189/1/30 187/1/30
f 188/1/31 190/1/31 191/1/31
f 188/1/31 191/1/31 189/1/31
f 192/1/32 190/1/32 193/1/32
f 190/1/32 192/1/32 194/1/32 191/1/32
f 195/1/14 183/1/14 182/1/14 196/1/14
f 195/1/14 196/1/14 197/1/14
f 182/1/14 185/1/14 198/1/14
f 182/1/14 198/1/14 196/1/14
f 185/1/14 187/1/14 199/1/14
f 185/1/14 199/1/14 198/1/14
f 187/1/14 189/1/14 200/1/14
f 187/1/14 200/1/14 199/1/14
f 189/1/14 191/1/14 201/1/14
f 189/1/14 201/1/14 200/1/14
f 202/1/14 191/1/14 194/1/14
f 191/1/14 202/1/14 203/1/14 201/1/14
f 204/1/33 197/1/33 196/1/33 205/1/33
f 204/1/33 205/1/33 206/1/33
f 196/1/34 198/1/34 207/1/34
f 196/1/34 207/1/34 205/1/34
f 198/1/35 199/1/35 208/1/35
f 198/1/35 208/1/35 207/1/35
f 199/1/36 200/1/36 209/1/36
f 199/1/36 209/1/36 208/1/36
f 200/1/37 201/1/37 210/1/37
f 200/1/37 210/1/37 209/1/37
f 211/1/38 201/1/38 203/1/38
f 201/1/38 211/1/38 212/1/38 210/1/38
f 213/1/1 206/1/1 205/1/1 181/1/1
f 213/1/1 181/1/1 180/1/1
f 205/1/1 207/1/1 184/1/1
f 205/1/1 184/1/1 181/1/1
f 207/1/1 208/1/1 186/1/1
f 207/1/1 186/1/1 184/1/1
f 208/1/1 209/1/1 188/1/1
f 208/1/1 188/1/1 186/1/1
f 209/1/1 210/1/1 190/1/1
f 209/1/1 190/1/1 188/1/1
f 214/1/1 210/1/1 212/1/1
f 210/1/1 214/1/1 193/1/1 190/1/1
usemtl mat_3
f 215/1/1 216/1/1 217/1/1
f 217/1/1 218/1/1 219/1/1
f 219/1/1 220/1/1 221/1/1
f 221/1/1 222/1/1 223/1/1
f 223/1/1 224/1/1 225/1/1
f 225/1/1 226/1/1 227/1/1
f 227/1/1 228/1/1 229/1/1
f 230/1/1 229/1/1 231/1/1 232/1/1
f 233/1/1 234/1/1 235/1/1 215/1/1
f 215/1/1 217/1/1 219/1/1
f 219/1/1 221/1/1 223/1/1
f 223/1/1 225/1/1 227/1/1
f 236/1/1 227/1/1 229/1/1 230/1/1
f 237/1/1 233/1/1 215/1/1
f 215/1/1 219/1/1 223/1/1
f 238/1/1 223/1/1 227/1/1 236/1/1
f 239/1/1 237/1/1 215/1/1 223/1/1
f 239/1/1 223/1/1 238/1/1
f 240/1/39 215/1/39 235/1/39 241/1/39
f 242/1/39 215/1/39 240/1/39
f 243/1/40 244/1/40 235/1/40 234/1/40
f 241/1/40 235/1/40 244/1/40
f 245/1/41 232/1/41 231/1/41 246/1/41
f 247/1/42 231/1/42 229/1/42 248/1/42
f 246/1/42 231/1/42 247/1/42
f 249/1/43 229/1/43 228/1/43 250/1/43
f 248/1/43 229/1/43 249/1/43
f 251/1/44 228/1/44 227/1/44 252/1/44
f 250/1/44 228/1/44 251/1/44
f 253/1/45 227/1/45 226/1/45 254/1/45
f 252/1/45 227/1/45 253/1/45
f 255/1/46 226/1/46 225/1/46 256/1/46
f 254/1/46 226/1/46 255/1/46
f 257/1/47 225/1/47 224/1/47 258/1/47
f 256/1/47 225/1/47 257/1/47
f 259/1/48 224/1/48 223/1/48 260/1/48
f 258/1/48 224/1/48 259/1/48
f 261/1/49 223/1/49 222/1/49 262/1/49
f 260/1/49 223/1/49 261/1/49
f 263/1/50 222/1/50 221/1/50 264/1/50
f 262/1/50 222/1/50 263/1/50
f 265/1/51 221/1/51 220/1/51 266/1/51
f 264/1/51 221/1/51 265/1/51
f 267/1/52 220/1/52 219/1/52 268/1/52
f 266/1/52 220/1/52 267/1/52
f 269/1/53 219/1/53 218/1/53 270/1/53
f 268/1/53 219/1/53 269/1/53
f 271/1/54 218/1/54 217/1/54 272/1/54
f 270/1/54 218/1/54 271/1/54
f 273/1/55 217/1/55 216/1/55 274/1/55
f 272/1/55 217/1/55 273/1/55
f 275/1/56 216/1/56 215/1/56 242/1/56
f 274/1/56 216/1/56 275/1/56
usemtl mat_2
f 276/1/57 277/1/57 278/1/57
f 276/1/57 278/1/57 279/1/57
f 280/1/58 277/1/58 281/1/58
f 277/1/58 280/1/58 282/1/58 278/1/58
f 283/1/59 284/1/59 285/1/59 286/1/59
f 283/1/59 286/1/59 287/1/59
f 285/1/60 288/1/60 289/1/60
f 285/1/60 289/1/60 286/1/60
f 288/1/61 290/1/61 291/1/61
f 288/1/61 291/1/61 289/1/61
f 290/1/62 292/1/62 293/1/62
f 290/1/62 293/1/62 291/1/62
f 292/1/63 294/1/63 295/1/63
f 292/1/63 295/1/63 293/1/63
f 294/1/64 296/1/64 297/1/64
f 294/1/64 297/1/64 295/1/64
f 296/1/65 298/1/65 299/1/65
f 296/1/65 299/1/65 297/1/65
f 298/1/66 300/1/66 301/1/66
f 298/1/66 301/1/66 299/1/66
f 300/1/67 302/1/67 303/1/67
f 300/1/67 303/1/67 301/1/67
f 302/1/68 304/1/68 305/1/68
f 302/1/68 305/1/68 303/1/68
f 304/1/69 306/1/69 307/1/69
f 304/1/69 307/1/69 305/1/69
f 306/1/70 308/1/70 309/1/70
f 306/1/70 309/1/70 307/1/70
f 308/1/71 310/1/71 311/1/71
f 308/1/71 311/1/71 309/1/71
f 310/1/72 312/1/72 313/1/72
f 310/1/72 313/1/72 311/1/72
f 312/1/73 314/1/73 315/1/73
f 312/1/73 315/1/73 313/1/73
f 314/1/74 316/1/74 317/1/74
f 314/1/74 317/1/74 315/1/74
f 316/1/75 318/1/75 319/1/75
f 316/1/75 319/1/75 317/1/75
f 318/1/76 276/1/76 279/1/76
f 318/1/76 279/1/76 319/1/76
f 279/1/14 278/1/14 320/1/14
f 279/1/14 320/1/14 321/1/14
f 278/1/14 282/1/14 322/1/14 323/1/14
f 278/1/14 323/1/14 320/1/14
f 324/1/14 325/1/14 326/1/14
f 322/1/14 324/1/14 326/1/14 323/1/14
f 327/1/14 328/1/14 329/1/14
f 325/1/14 327/1/14 329/1/14 326/1/14
f 330/1/14 331/1/14 332/1/14
f 328/1/14 330/1/14 332/1/14 329/1/14
f 333/1/14 334/1/14 335/1/14
f 331/1/14 333/1/14 335/1/14 332/1/14
f 336/1/14 337/1/14 338/1/14
f 334/1/14 336/1/14 338/1/14 335/1/14
f 339/1/14 340/1/14 341/1/14
f 337/1/14 339/1/14 341/1/14 338/1/14
f 342/1/14 343/1/14 344/1/14
f 340/1/14 342/1/14 344/1/14 341/1/14
f 345/1/14 346/1/14 347/1/14
f 343/1/14 345/1/14 347/1/14 344/1/14
f 348/1/14 349/1/14 350/1/14
f 346/1/14 348/1/14 350/1/14 347/1/14
f 351/1/14 352/1/14 353/1/14
f 349/1/14 351/1/14 353/1/14 350/1/14
f 354/1/14 355/1/14 356/1/14
f 352/1/14 354/1/14 356/1/14 353/1/14
f 357/1/14 358/1/14 359/1/14
f 355/1/14 357/1/14 359/1/14 356/1/14
f 360/1/14 287/1/14 286/1/14 361/1/14
f 358/1/14 360/1/14 361/1/14 359/1/14
f 286/1/14 289/1/14 362/1/14
f 286/1/14 362/1/14 361/1/14
f 289/1/14 291/1/14 363/1/14
f 289/1/14 363/1/14 362/1/14
f 291/1/14 293/1/14 364/1/14
f 291/1/14 364/1/14 363/1/14
f 293/1/14 295/1/14 365/1/14
f 293/1/14 365/1/14 364/1/14
f 295/1/14 297/1/14 366/1/14
f 295/1/14 366/1/14 365/1/14
f 297/1/14 299/1/14 367/1/14
f 297/1/14 367/1/14 366/1/14
f 299/1/14 301/1/14 368/1/14
f 299/1/14 368/1/14 367/1/14
f 301/1/14 303/1/14 369/1/14
f 301/1/14 369/1/14 368/1/14
f 303/1/14 305/1/14 370/1/14
f 303/1/14 370/1/14 369/1/14
f 305/1/14 307/1/14 371/1/14
f 305/1/14 371/1/14 370/1/14
f 307/1/14 309/1/14 372/1/14
f 307/1/14 372/1/14 371/1/14
f 309/1/14 311/1/14 373/1/14
f 309/1/14 373/1/14 372/1/14
f 311/1/14 313/1/14 374/1/14
f 311/1/14 374/1/14 373/1/14
f 313/1/14 315/1/14 375/1/14
f 313/1/14 375/1/14 374/1/14
f 315/1/14 317/1/14 376/1/14
f 315/1/14 376/1/14 375/1/14
f 317/1/14 319/1/14 377/1/14
f 317/1/14 377/1/14 376/1/14
f 319/1/14 279/1/14 321/1/14
f 319/1/14 321/1/14 377/1/14
f 321/1/77 320/1/77 378/1/77
f 321/1/77 378/1/77 379/1/77
f 320/1/78 323/1/78 380/1/78
f 320/1/78 380/1/78 378/1/78
f 323/1/79 326/1/79 381/1/79
f 323/1/79 381/1/79 380/1/79
f 326/1/80 329/1/80 382/1/80
f 326/1/80 382/1/80 381/1/80
f 329/1/81 332/1/81 383/1/81
f 329/1/81 383/1/81 382/1/81
f 332/1/82 335/1/82 384/1/82
f 332/1/82 384/1/82 383/1/82
f 335/1/83 338/1/83 385/1/83
f 335/1/83 385/1/83 384/1/83
f 338/1/84 341/1/84 386/1/84
f 338/1/84 386/1/84 385/1/84
f 341/1/85 344/1/85 387/1/85
f 341/1/85 387/1/85 386/1/85
f 344/1/86 347/1/86 388/1/86
f 344/1/86 388/1/86 387/1/86
f 347/1/87 350/1/87 389/1/87
f 347/1/87 389/1/87 388/1/87
f 350/1/88 353/1/88 390/1/88
f 350/1/88 390/1/88 389/1/88
f 353/1/89 356/1/89 391/1/89
f 353/1/89 391/1/89 390/1/89
f 356/1/90 359/1/90 392/1/90
f 356/1/90 392/1/90 391/1/90
f 359/1/91 361/1/91 393/1/91
f 359/1/91 393/1/91 392/1/91
f 361/1/92 362/1/92 394/1/92
f 361/1/92 394/1/92 393/1/92
f 362/1/93 363/1/93 395/1/93
f 362/1/93 395/1/93 394/1/93
f 363/1/94 364/1/94 396/1/94
f 363/1/94 396/1/94 395/1/94
f 364/1/95 365/1/95 397/1/95
f 364/1/95 397/1/95 396/1/95
f 365/1/96 366/1/96 398/1/96
f 365/1/96 398/1/96 397/1/96
f 366/1/97 367/1/97 399/1/97
f 366/1/97 399/1/97 398/1/97
f 367/1/98 368/1/98 400/1/98
f 367/1/98 400/1/98 399/1/98
f 368/1/99 369/1/99 401/1/99
f 368/1/99 401/1/99 400/1/99
f 369/1/100 370/1/100 402/1/100
f 369/1/100 402/1/100 401/1/100
f 370/1/101 371/1/101 403/1/101
f 370/1/101 403/1/101 402/1/101
f 371/1/102 372/1/102 404/1/102
f 371/1/102 404/1/102 403/1/102
f 372/1/103 373/1/103 405/1/103
f 372/1/103 405/1/103 404/1/103
f 373/1/104 374/1/104 406/1/104
f 373/1/104 406/1/104 405/1/104
f 374/1/105 375/1/105 407/1/105
f 374/1/105 407/1/105 406/1/105
f 375/1/106 376/1/106 408/1/106
f 375/1/106 408/1/106 407/1/106
f 376/1/107 377/1/107 409/1/107
f 376/1/107 409/1/107 408/1/107
f 377/1/108 321/1/108 379/1/108
f 377/1/108 379/1/108 409/1/108
f 379/1/1 378/1/1 277/1/1
f 379/1/1 277/1/1 276/1/1
f 410/1/1 378/1/1 380/1/1 411/1/1
f 378/1/1 410/1/1 281/1/1 277/1/1
f 412/1/1 380/1/1 381/1/1 413/1/1
f 411/1/1 380/1/1 412/1/1
f 414/1/1 381/1/1 382/1/1 415/1/1
f 413/1/1 381/1/1 414/1/1
f 416/1/1 382/1/1 383/1/1 417/1/1
f 415/1/1 382/1/1 416/1/1
f 418/1/1 383/1/1 384/1/1 419/1/1
f 417/1/1 383/1/1 418/1/1
f 420/1/1 384/1/1 385/1/1 421/1/1
f 419/1/1 384/1/1 420/1/1
f 422/1/1 385/1/1 386/1/1 423/1/1
f 421/1/1 385/1/1 422/1/1
f 424/1/1 386/1/1 387/1/1 425/1/1
f 423/1/1 386/1/1 424/1/1
f 426/1/1 387/1/1 388/1/1 427/1/1
f 425/1/1 387/1/1 426/1/1
f 428/1/1 388/1/1 389/1/1 429/1/1
f 427/1/1 388/1/1 428/1/1
f 430/1/1 389/1/1 390/1/1 431/1/1
f 429/1/1 389/1/1 430/1/1
f 432/1/1 390/1/1 391/1/1 433/1/1
f 431/1/1 390/1/1 432/1/1
f 434/1/1 391/1/1 392/1/1 435/1/1
f 433/1/1 391/1/1 434/1/1
f 392/1/1 393/1/1 285/1/1
f 435/1/1 392/1/1 285/1/1 284/1/1
f 393/1/1 394/1/1 288/1/1
f 393/1/1 288/1/1 285/1/1
f 394/1/1 395/1/1 290/1/1
f 394/1/1 290/1/1 288/1/1
f 395/1/1 396/1/1 292/1/1
f 395/1/1 292/1/1 290/1/1
f 396/1/1 397/1/1 294/1/1
f 396/1/1 294/1/1 292/1/1
f 397/1/1 398/1/1 296/1/1
f 397/1/1 296/1/1 294/1/1
f 398/1/1 399/1/1 298/1/1
f 398/1/1 298/1/1 296/1/1
f 399/1/1 400/1/1 300/1/1
f 399/1/1 300/1/1 298/1/1
f 400/1/1 401/1/1 302/1/1
f 400/1/1 302/1/1 300/1/1
f 401/1/1 402/1/1 304/1/1
f 401/1/1 304/1/1 302/1/1
f 402/1/1 403/1/1 306/1/1
f 402/1/1 306/1/1 304/1/1
f 403/1/1 404/1/1 308/1/1
f 403/1/1 308/1/1 306/1/1
f 404/1/1 405/1/1 310/1/1
f 404/1/1 310/1/1 308/1/1
f 405/1/1 406/1/1 312/1/1
f 405/1/1 312/1/1 310/1/1
f 406/1/1 407/1/1 314/1/1
f 406/1/1 314/1/1 312/1/1
f 407/1/1 408/1/1 316/1/1
f 407/1/1 316/1/1 314/1/1
f 408/1/1 409/1/1 318/1/1
f 408/1/1 318/1/1 316/1/1
f 409/1/1 379/1/1 276/1/1
f 409/1/1 276/1/1 318/1/1
usemtl mat_1
f 436/1/109 437/1/109 438/1/109
f 436/1/109 438/1/109 439/1/109
f 440/1/110 437/1/110 441/1/110
f 437/1/110 440/1/110 442/1/110 438/1/110
f 443/1/111 444/1/111 445/1/111 446/1/111
f 443/1/111 446/1/111 447/1/111
f 445/1/112 448/1/112 449/1/112
f 445/1/112 449/1/112 446/1/112
f 448/1/113 450/1/113 451/1/113
f 448/1/113 451/1/113 449/1/113
f 450/1/114 452/1/114 453/1/114
f 450/1/114 453/1/114 451/1/114
f 452/1/115 454/1/115 455/1/115
f 452/1/115 455/1/115 453/1/115
f 454/1/116 456/1/116 457/1/116
f 454/1/116 457/1/116 455/1/116
f 456/1/117 458/1/117 459/1/117
f 456/1/117 459/1/117 457/1/117
f 458/1/118 460/1/118 461/1/118
f 458/1/118 461/1/118 459/1/118
f 460/1/119 462/1/119 463/1/119
f 460/1/119 463/1/119 461/1/119
f 462/1/120 464/1/120 465/1/120
f 462/1/120 465/1/120 463/1/120
f 464/1/121 466/1/121 467/1/121
f 464/1/121 467/1/121 465/1/121
f 466/1/122 468/1/122 469/1/122
f 466/1/122 469/1/122 467/1/122
f 468/1/123 470/1/123 471/1/123
f 468/1/123 471/1/123 469/1/123
f 470/1/124 472/1/124 473/1/124
f 470/1/124 473/1/124 471/1/124
f 472/1/125 474/1/125 475/1/125
f 472/1/125 475/1/125 473/1/125
f 474/1/126 476/1/126 477/1/126
f 474/1/126 477/1/126 475/1/126
f 476/1/127 478/1/127 479/1/127
f 476/1/127 479/1/127 477/1/127
f 478/1/128 436/1/128 439/1/128
f 478/1/128 439/1/128 479/1/128
f 439/1/14 438/1/14 378/1/14
f 439/1/14 378/1/14 379/1/14
f 438/1/14 442/1/14 480/1/14 380/1/14
f 438/1/14 380/1/14 378/1/14
f 481/1/14 482/1/14 381/1/14
f 480/1/14 481/1/14 381/1/14 380/1/14
f 483/1/14 415/1/14 382/1/14
f 482/1/14 483/1/14 382/1/14 381/1/14
f 484/1/14 485/1/14 383/1/14
f 415/1/14 484/1/14 383/1/14 382/1/14
f 486/1/14 487/1/14 384/1/14
f 485/1/14 486/1/14 384/1/14 383/1/14
f 488/1/14 489/1/14 385/1/14
f 487/1/14 488/1/14 385/1/14 384/1/14
f 490/1/14 423/1/14 386/1/14
f 489/1/14 490/1/14 386/1/14 385/1/14
f 491/1/14 492/1/14 387/1/14
f 423/1/14 491/1/14 387/1/14 386/1/14
f 493/1/14 494/1/14 388/1/14
f 492/1/14 493/1/14 388/1/14 387/1/14
f 495/1/14 496/1/14 389/1/14
f 494/1/14 495/1/14 389/1/14 388/1/14
f 497/1/14 431/1/14 390/1/14
f 496/1/14 497/1/14 390/1/14 389/1/14
f 498/1/14 499/1/14 391/1/14
f 431/1/14 498/1/14 391/1/14 390/1/14
f 500/1/14 501/1/14 392/1/14
f 499/1/14 500/1/14 392/1/14 391/1/14
f 502/1/14 447/1/14 446/1/14 393/1/14
f 501/1/14 502/1/14 393/1/14 392/1/14
f 446/1/14 449/1/14 394/1/14
f 446/1/14 394/1/14 393/1/14
f 449/1/14 451/1/14 395/1/14
f 449/1/14 395/1/14 394/1/14
f 451/1/14 453/1/14 396/1/14
f 451/1/14 396/1/14 395/1/14
f 453/1/14 455/1/14 397/1/14
f 453/1/14 397/1/14 396/1/14
f 455/1/14 457/1/14 398/1/14
f 455/1/14 398/1/14 397/1/14
f 457/1/14 459/1/14 399/1/14
f 457/1/14 399/1/14 398/1/14
f 459/1/14 461/1/14 400/1/14
f 459/1/14 400/1/14 399/1/14
f 461/1/14 463/1/14 401/1/14
f 461/1/14 401/1/14 400/1/14
f 463/1/14 465/1/14 402/1/14
f 463/1/14 402/1/14 401/1/14
f 465/1/14 467/1/14 403/1/14
f 465/1/14 403/1/14 402/1/14
f 467/1/14 469/1/14 404/1/14
f 467/1/14 404/1/14 403/1/14
f 469/1/14 471/1/14 405/1/14
f 469/1/14 405/1/14 404/1/14
f 471/1/14 473/1/14 406/1/14
f 471/1/14 406/1/14 405/1/14
f 473/1/14 475/1/14 407/1/14
f 473/1/14 407/1/14 406/1/14
f 475/1/14 477/1/14 408/1/14
f 475/1/14 408/1/14 407/1/14
f 477/1/14 479/1/14 409/1/14
f 477/1/14 409/1/14 408/1/14
f 479/1/14 439/1/14 379/1/14
f 479/1/14 379/1/14 409/1/14
f 379/1/77 378/1/77 503/1/77
f 379/1/77 503/1/77 504/1/77
f 378/1/78 380/1/78 505/1/78
f 378/1/78 505/1/78 503/1/78
f 380/1/79 381/1/79 506/1/79
f 380/1/79 506/1/79 505/1/79
f 381/1/80 382/1/80 507/1/80
f 381/1/80 507/1/80 506/1/80
f 382/1/81 383/1/81 508/1/81
f 382/1/81 508/1/81 507/1/81
f 383/1/82 384/1/82 509/1/82
f 383/1/82 509/1/82 508/1/82
f 384/1/83 385/1/83 510/1/83
f 384/1/83 510/1/83 509/1/83
f 385/1/84 386/1/84 511/1/84
f 385/1/84 511/1/84 510/1/84
f 386/1/85 387/1/85 512/1/85
f 386/1/85 512/1/85 511/1/85
f 387/1/86 388/1/86 513/1/86
f 387/1/86 513/1/86 512/1/86
f 388/1/87 389/1/87 514/1/87
f 388/1/87 514/1/87 513/1/87
f 389/1/88 390/1/88 515/1/88
f 389/1/88 515/1/88 514/1/88
f 390/1/89 391/1/89 516/1/89
f 390/1/89 516/1/89 515/1/89
f 391/1/90 392/1/90 517/1/90
f 391/1/90 517/1/90 516/1/90
f 392/1/91 393/1/91 518/1/91
f 392/1/91 518/1/91 517/1/91
f 393/1/92 394/1/92 519/1/92
f 393/1/92 519/1/92 518/1/92
f 394/1/93 395/1/93 520/1/93
f 394/1/93 520/1/93 519/1/93
f 395/1/94 396/1/94 521/1/94
f 395/1/94 521/1/94 520/1/94
f 396/1/95 397/1/95 522/1/95
f 396/1/95 522/1/95 521/1/95
f 397/1/96 398/1/96 523/1/96
f 397/1/96 523/1/96 522/1/96
f 398/1/97 399/1/97 524/1/97
f 398/1/97 524/1/97 523/1/97
f 399/1/98 400/1/98 525/1/98
f 399/1/98 525/1/98 524/1/98
f 400/1/99 401/1/99 526/1/99
f 400/1/99 526/1/99 525/1/99
f 401/1/100 402/1/100 527/1/100
f 401/1/100 527/1/100 526/1/100
f 402/1/101 403/1/101 528/1/101
f 402/1/101 528/1/101 527/1/101
f 403/1/102 404/1/102 529/1/102
f 403/1/102 529/1/102 528/1/102
f 404/1/103 405/1/103 530/1/103
f 404/1/103 530/1/103 529/1/103
f 405/1/104 406/1/104 531/1/104
f 405/1/104 531/1/104 530/1/104
f 406/1/105 407/1/105 532/1/105
f 406/1/105 532/1/105 531/1/105
f 407/1/106 408/1/106 533/1/106
f 407/1/106 533/1/106 532/1/106
f 408/1/107 409/1/107 534/1/107
f 408/1/107 534/1/107 533/1/107
f 409/1/108 379/1/108 504/1/108
f 409/1/108 504/1/108 534/1/108
f 504/1/1 503/1/1 437/1/1
f 504/1/1 437/1/1 436/1/1
f 535/1/1 503/1/1 505/1/1 536/1/1
f 503/1/1 535/1/1 441/1/1 437/1/1
f 537/1/1 505/1/1 506/1/1 538/1/1
f 536/1/1 505/1/1 537/1/1
f 539/1/1 506/1/1 507/1/1 540/1/1
f 538/1/1 506/1/1 539/1/1
f 541/1/1 507/1/1 508/1/1 542/1/1
f 540/1/1 507/1/1 541/1/1
f 543/1/1 508/1/1 509/1/1 544/1/1
f 542/1/1 508/1/1 543/1/1
f 545/1/1 509/1/1 510/1/1 546/1/1
f 544/1/1 509/1/1 545/1/1
f 547/1/1 510/1/1 511/1/1 548/1/1
f 546/1/1 510/1/1 547/1/1
f 549/1/1 511/1/1 512/1/1 550/1/1
f 548/1/1 511/1/1 549/1/1
f 551/1/1 512/1/1 513/1/1 552/1/1
f 550/1/1 512/1/1 551/1/1
f 553/1/1 513/1/1 514/1/1 554/1/1
f 552/1/1 513/1/1 553/1/1
f 555/1/1 514/1/1 515/1/1 556/1/1
f 554/1/1 514/1/1 555/1/1
f 557/1/1 515/1/1 516/1/1 558/1/1
f 556/1/1 515/1/1 557/1/1
f 559/1/1 516/1/1 517/1/1 560/1/1
f 558/1/1 516/1/1 559/1/1
f 517/1/1 518/1/1 445/1/1
f 560/1/1 517/1/1 445/1/1 444/1/1
f 518/1/1 519/1/1 448/1/1
f 518/1/1 448/1/1 445/1/1
f 519/1/1 520/1/1 450/1/1
f 519/1/1 450/1/1 448/1/1
f 520/1/1 521/1/1 452/1/1
f 520/1/1 452/1/1 450/1/1
f 521/1/1 522/1/1 454/1/1
f 521/1/1 454/1/1 452/1/1
f 522/1/1 523/1/1 456/1/1
f 522/1/1 456/1/1 454/1/1
f 523/1/1 524/1/1 458/1/1
f 523/1/1 458/1/1 456/1/1
f 524/1/1 525/1/1 460/1/1
f 524/1/1 460/1/1 458/1/1
f 525/1/1 526/1/1 462/1/1
f 525/1/1 462/1/1 460/1/1
f 526/1/1 527/1/1 464/1/1
f 526/1/1 464/1/1 462/1/1
f 527/1/1 528/1/1 466/1/1
f 527/1/1 466/1/1 464/1/1
f 528/1/1 529/1/1 468/1/1
f 528/1/1 468/1/1 466/1/1
f 529/1/1 530/1/1 470/1/1
f 529/1/1 470/1/1 468/1/1
f 530/1/1 531/1/1 472/1/1
f 530/1/1 472/1/1 470/1/1
f 531/1/1 532/1/1 474/1/1
f 531/1/1 474/1/1 472/1/1
f 532/1/1 533/1/1 476/1/1
f 532/1/1 476/1/1 474/1/1
f 533/1/1 534/1/1 478/1/1
f 533/1/1 478/1/1 476/1/1
f 534/1/1 504/1/1 436/1/1
f 534/1/1 436/1/1 478/1/1
usemtl mat_2
f 561/1/1 562/1/1 563/1/1
f 563/1/1 564/1/1 565/1/1
f 565/1/1 566/1/1 561/1/1
f 563/1/1 565/1/1 561/1/1
f 567/1/14 568/1/14 569/1/14
f 569/1/14 570/1/14 571/1/14
f 571/1/14 572/1/14 567/1/14
f 569/1/14 571/1/14 567/1/14
f 561/1/129 566/1/129 569/1/129
f 561/1/129 569/1/129 568/1/129
f 566/1/22 565/1/22 570/1/22
f 566/1/22 570/1/22 569/1/22
f 565/1/130 564/1/130 571/1/130
f 565/1/130 571/1/130 570/1/130
f 564/1/131 563/1/131 572/1/131
f 564/1/131 572/1/131 571/1/131
f 563/1/25 562/1/25 567/1/25
f 563/1/25 567/1/25 572/1/25
f 562/1/132 561/1/132 568/1/132
f 562/1/132 568/1/132 567/1/132
f 573/1/1 574/1/1 575/1/1
f 575/1/1 576/1/1 577/1/1
f 577/1/1 578/1/1 573/1/1
f 575/1/1 577/1/1 573/1/1
f 579/1/14 580/1/14 581/1/14
f 581/1/14 582/1/14 583/1/14
f 583/1/14 584/1/14 579/1/14
f 581/1/14 583/1/14 579/1/14
f 573/1/129 578/1/129 581/1/129
f 573/1/129 581/1/129 580/1/129
f 578/1/22 577/1/22 582/1/22
f 578/1/22 582/1/22 581/1/22
f 577/1/130 576/1/130 583/1/130
f 577/1/130 583/1/130 582/1/130
f 576/1/131 575/1/131 584/1/131
f 576/1/131 584/1/131 583/1/131
f 575/1/25 574/1/25 579/1/25
f 575/1/25 579/1/25 584/1/25
f 574/1/132 573/1/132 580/1/132
f 574/1/132 580/1/132 579/1/132
f 585/1/1 586/1/1 587/1/1
f 587/1/1 588/1/1 589/1/1
f 589/1/1 590/1/1 585/1/1
f 587/1/1 589/1/1 585/1/1
f 591/1/14 592/1/14 593/1/14
f 593/1/14 594/1/14 595/1/14
f 595/1/14 596/1/14 591/1/14
f 593/1/14 595/1/14 591/1/14
f 585/1/129 590/1/129 593/1/129
f 585/1/129 593/1/129 592/1/129
f 590/1/22 589/1/22 594/1/22
f 590/1/22 594/1/22 593/1/22
f 589/1/130 588/1/130 595/1/130
f 589/1/130 595/1/130 594/1/130
f 588/1/131 587/1/131 596/1/131
f 588/1/131 596/1/131 595/1/131
f 587/1/25 586/1/25 591/1/25
f 587/1/25 591/1/25 596/1/25
f 586/1/132 585/1/132 592/1/132
f 586/1/132 592/1/132 591/1/132
f 597/1/1 598/1/1 599/1/1
f 599/1/1 600/1/1 601/1/1
f 601/1/1 602/1/1 597/1/1
f 599/1/1 601/1/1 597/1/1
f 603/1/14 604/1/14 605/1/14
f 605/1/14 606/1/14 607/1/14
f 607/1/14 608/1/14 603/1/14
f 605/1/14 607/1/14 603/1/14
f 597/1/129 602/1/129 605/1/129
f 597/1/129 605/1/129 604/1/129
f 602/1/22 601/1/22 606/1/22
f 602/1/22 606/1/22 605/1/22
f 601/1/130 600/1/130 607/1/130
f 601/1/130 607/1/130 606/1/130
f 600/1/131 599/1/131 608/1/131
f 600/1/131 608/1/131 607/1/131
f 599/1/25 598/1/25 603/1/25
f 599/1/25 603/1/25 608/1/25
f 598/1/132 597/1/132 604/1/132
f 598/1/132 604/1/132 603/1/132
f 609/1/1 610/1/1 611/1/1
f 611/1/1 612/1/1 613/1/1
f 613/1/1 614/1/1 609/1/1
f 611/1/1 613/1/1 609/1/1
f 615/1/14 616/1/14 617/1/14
f 617/1/14 618/1/14 619/1/14
f 619/1/14 620/1/14 615/1/14
f 617/1/14 619/1/14 615/1/14
f 609/1/129 614/1/129 617/1/129
f 609/1/129 617/1/129 616/1/129
f 614/1/22 613/1/22 618/1/22
f 614/1/22 618/1/22 617/1/22
f 613/1/130 612/1/130 619/1/130
f 613/1/130 619/1/130 618/1/130
f 612/1/131 611/1/131 620/1/131
f 612/1/131 620/1/131 619/1/131
f 611/1/25 610/1/25 615/1/25
f 611/1/25 615/1/25 620/1/25
f 610/1/132 609/1/132 616/1/132
f 610/1/132 616/1/132 615/1/132
f 621/1/1 622/1/1 623/1/1
f 623/1/1 624/1/1 625/1/1
f 625/1/1 626/1/1 621/1/1
f 623/1/1 625/1/1 621/1/1
f 627/1/14 628/1/14 629/1/14
f 629/1/14 630/1/14 631/1/14
f 631/1/14 632/1/14 627/1/14
f 629/1/14 631/1/14 627/1/14
f 621/1/129 626/1/129 629/1/129
f 621/1/129 629/1/129 628/1/129
f 626/1/22 625/1/22 630/1/22
f 626/1/22 630/1/22 629/1/22
f 625/1/130 624/1/130 631/1/130
f 625/1/130 631/1/130 630/1/130
f 624/1/131 623/1/131 632/1/131
f 624/1/131 632/1/131 631/1/131
f 623/1/25 622/1/25 627/1/25
f 623/1/25 627/1/25 632/1/25
f 622/1/132 621/1/132 628/1/132
f 622/1/132 628/1/132 627/1/132
f 633/1/1 634/1/1 635/1/1
f 635/1/1 636/1/1 637/1/1
f 637/1/1 638/1/1 633/1/1
f 635/1/1 637/1/1 633/1/1
f 639/1/14 640/1/14 641/1/14
f 641/1/14 642/1/14 643/1/14
f 643/1/14 644/1/14 639/1/14
f 641/1/14 643/1/14 639/1/14
f 633/1/129 638/1/129 641/1/129
f 633/1/129 641/1/129 640/1/129
f 638/1/22 637/1/22 642/1/22
f 638/1/22 642/1/22 641/1/22
f 637/1/130 636/1/130 643/1/130
f 637/1/130 643/1/130 642/1/130
f 636/1/131 635/1/131 644/1/131
f 636/1/131 644/1/131 643/1/131
f 635/1/25 634/1/25 639/1/25
f 635/1/25 639/1/25 644/1/25
f 634/1/132 633/1/132 640/1/132
f 634/1/132 640/1/132 639/1/132
usemtl mat_3
f 645/1/133 646/1/133 647/1/133 648/1/133
f 649/1/134 650/1/134 647/1/134 651/1/134
f 648/1/134 647/1/134 650/1/134
f 652/1/25 651/1/25 647/1/25
f 653/1/25 647/1/25 646/1/25
f 654/1/25 652/1/25 647/1/25
f 655/1/25 647/1/25 653/1/25
f 654/1/25 647/1/25 655/1/25
usemtl mat_5
f 656/1/135 657/1/135 658/1/135 659/1/135
f 660/1/135 658/1/135 657/1/135
f 661/1/136 662/1/136 663/1/136
f 664/1/136 662/1/136 661/1/136 665/1/136
f 666/1/22 658/1/22 660/1/22
f 658/1/22 666/1/22 663/1/22 662/1/22
f 667/1/1 658/1/1 662/1/1 664/1/1
f 659/1/1 658/1/1 667/1/1
usemtl mat_3
f 668/1/137 669/1/137 670/1/137 671/1/137
f 672/1/138 673/1/138 669/1/138 668/1/138
f 674/1/139 671/1/139 670/1/139 675/1/139
f 676/1/140 677/1/140 678/1/140 679/1/140
f 680/1/141 681/1/141 682/1/141 683/1/141
f 679/1/142 678/1/142 681/1/142 680/1/142
f 684/1/143 685/1/143 686/1/143 687/1/143
f 683/1/144 682/1/144 685/1/144 684/1/144
f 688/1/145 689/1/145 690/1/145 691/1/145
f 687/1/146 686/1/146 689/1/146 688/1/146
f 692/1/147 693/1/147 694/1/147 695/1/147
f 691/1/148 690/1/148 693/1/148 692/1/148
f 696/1/149 697/1/149 698/1/149 699/1/149
f 695/1/149 694/1/149 697/1/149 696/1/149
f 700/1/150 701/1/150 702/1/150 703/1/150
f 699/1/150 698/1/150 701/1/150 700/1/150
f 704/1/151 705/1/151 706/1/151 707/1/151
f 703/1/152 702/1/152 705/1/152 704/1/152
f 708/1/153 709/1/153 710/1/153 711/1/153
f 707/1/154 706/1/154 709/1/154 708/1/154
f 712/1/155 713/1/155 673/1/155 672/1/155
f 711/1/156 710/1/156 713/1/156 712/1/156
