# Authored in Blender; exported by tools-export-modern.py
mtllib materials.mtl
s off
v 0.755558482 0.000000000 0.523105591
v 0.751738744 1.000000000 0.522345808
v 0.760715127 1.000000000 0.524131298
v 0.760715127 0.000000000 0.524131298
v 0.750000000 0.000000000 0.521999955
v 0.750000000 1.000000000 0.521999955
v 0.765427384 0.000000000 0.527279935
v 0.762189154 1.000000000 0.525116214
v 0.769798994 1.000000000 0.530200958
v 0.769798994 0.000000000 0.530200958
v 0.772947626 0.000000000 0.534913209
v 0.770783902 1.000000000 0.531674974
v 0.775868654 1.000000000 0.539284825
v 0.775868654 0.000000000 0.539284825
v 0.776974286 0.000000000 0.544843286
v 0.776214500 1.000000000 0.541023533
v 0.777999997 1.000000000 0.549999952
v 0.777999997 0.000000000 0.549999952
v 0.776894366 0.000000000 0.555558411
v 0.777654152 1.000000000 0.551738657
v 0.775868654 1.000000000 0.560715079
v 0.775868654 0.000000000 0.560715079
v 0.772720025 0.000000000 0.565427326
v 0.774883751 1.000000000 0.562189088
v 0.769798994 1.000000000 0.569798946
v 0.769798994 0.000000000 0.569798946
v 0.765086744 0.000000000 0.572947579
v 0.768324978 1.000000000 0.570783854
v 0.760715127 1.000000000 0.575868607
v 0.760715127 0.000000000 0.575868607
v 0.755156654 0.000000000 0.576974241
v 0.758976398 1.000000000 0.576214457
v 0.750000000 1.000000000 0.577999949
v 0.750000000 0.000000000 0.577999949
v 0.744441518 0.000000000 0.576894313
v 0.748261256 1.000000000 0.577654096
v 0.739284873 1.000000000 0.575868607
v 0.739284873 0.000000000 0.575868607
v 0.734572602 0.000000000 0.572719960
v 0.737810820 1.000000000 0.574883674
v 0.730201006 1.000000000 0.569798946
v 0.730201006 0.000000000 0.569798946
v 0.727052355 0.000000000 0.565086669
v 0.729216066 1.000000000 0.568324883
v 0.724131346 1.000000000 0.560715079
v 0.724131346 0.000000000 0.560715079
v 0.723025706 0.000000000 0.555156577
v 0.723785485 1.000000000 0.558976298
v 0.722000003 1.000000000 0.549999952
v 0.722000003 0.000000000 0.549999952
v 0.723105643 0.000000000 0.544441448
v 0.722345864 1.000000000 0.548261168
v 0.724131346 1.000000000 0.539284825
v 0.724131346 0.000000000 0.539284825
v 0.727279999 0.000000000 0.534572543
v 0.725116291 1.000000000 0.537810755
v 0.730201006 1.000000000 0.530200958
v 0.730201006 0.000000000 0.530200958
v 0.734913284 0.000000000 0.527052308
v 0.731675069 1.000000000 0.529216018
v 0.739284873 1.000000000 0.524131298
v 0.739284873 0.000000000 0.524131298
v 0.744843363 0.000000000 0.523025660
v 0.741023633 1.000000000 0.523785442
vt 0.500000000 0.500000000
vn 0.195087822 0.000000000 -0.980785778
vn 0.555571135 0.000000000 -0.831469009
vn 0.831469009 0.000000000 -0.555571135
vn 0.980785778 0.000000000 -0.195087822
vn 0.980785778 0.000000000 0.195087822
vn 0.831469009 0.000000000 0.555571135
vn 0.555571135 0.000000000 0.831469009
vn 0.195087822 0.000000000 0.980785778
vn -0.195087822 0.000000000 0.980785778
vn -0.555571135 0.000000000 0.831469009
vn -0.831469009 0.000000000 0.555571135
vn -0.980785778 0.000000000 0.195087822
vn -0.980785778 0.000000000 -0.195087822
vn -0.831469009 0.000000000 -0.555571135
vn -0.555571135 0.000000000 -0.831469009
vn -0.195087822 0.000000000 -0.980785778
usemtl mat_8
f 1/1/1 2/1/1 3/1/1 4/1/1
f 5/1/1 6/1/1 2/1/1 1/1/1
f 7/1/2 8/1/2 9/1/2 10/1/2
f 4/1/2 3/1/2 8/1/2 7/1/2
f 11/1/3 12/1/3 13/1/3 14/1/3
f 10/1/3 9/1/3 12/1/3 11/1/3
f 15/1/4 16/1/4 17/1/4 18/1/4
f 14/1/4 13/1/4 16/1/4 15/1/4
f 19/1/5 20/1/5 21/1/5 22/1/5
f 18/1/5 17/1/5 20/1/5 19/1/5
f 23/1/6 24/1/6 25/1/6 26/1/6
f 22/1/6 21/1/6 24/1/6 23/1/6
f 27/1/7 28/1/7 29/1/7 30/1/7
f 26/1/7 25/1/7 28/1/7 27/1/7
f 31/1/8 32/1/8 33/1/8 34/1/8
f 30/1/8 29/1/8 32/1/8 31/1/8
f 35/1/9 36/1/9 37/1/9 38/1/9
f 34/1/9 33/1/9 36/1/9 35/1/9
f 39/1/10 40/1/10 41/1/10 42/1/10
f 38/1/10 37/1/10 40/1/10 39/1/10
f 43/1/11 44/1/11 45/1/11 46/1/11
f 42/1/11 41/1/11 44/1/11 43/1/11
f 47/1/12 48/1/12 49/1/12 50/1/12
f 46/1/12 45/1/12 48/1/12 47/1/12
f 51/1/13 52/1/13 53/1/13 54/1/13
f 50/1/13 49/1/13 52/1/13 51/1/13
f 55/1/14 56/1/14 57/1/14 58/1/14
f 54/1/14 53/1/14 56/1/14 55/1/14
f 59/1/15 60/1/15 61/1/15 62/1/15
f 58/1/15 57/1/15 60/1/15 59/1/15
f 63/1/16 64/1/16 6/1/16 5/1/16
f 62/1/16 61/1/16 64/1/16 63/1/16
