# Authored in Blender; exported by tools-export-modern.py
mtllib materials.mtl
s off
v 0.179629688 0.990000010 1.000000000
v 0.000000000 0.990000010 0.307143199
v 0.000000000 0.990000010 1.000000000
v 0.000000000 0.990000010 0.000000000
v 0.190000057 0.990000010 1.000000000
v 0.190000057 0.990000010 0.000000000
v 0.190000057 0.928888952 1.000000000
v 0.190000057 0.000000000 0.392000004
v 0.190000057 0.000000000 0.000000000
v 0.190000057 0.000000000 1.000000000
v 0.979629420 0.990000010 1.000000000
v 0.720370389 0.990000010 0.000000000
v 0.710000038 0.990000010 0.000000000
v 0.710000038 0.990000010 1.000000000
v 0.989999771 0.990000010 1.000000000
v 0.989999771 0.990000010 0.000000000
v 0.710000038 0.928888952 1.000000000
v 0.710000038 0.000000000 0.392000004
v 0.710000038 0.000000000 1.000000000
v 0.710000038 0.000000000 0.000000000
v 0.989999771 0.928888952 1.000000000
v 0.989999771 0.000000000 0.392000004
v 0.989999771 0.000000000 0.000000000
v 0.989999771 0.000000000 1.000000000
v 0.000000000 0.836736636 0.000000000
v 0.000000000 0.819861608 0.000000000
v 0.000000000 0.802213669 0.009433031
v 0.000000000 0.712807178 0.082807064
v 0.000000000 0.639433146 0.172213554
v 0.000000000 0.584911227 0.274216890
v 0.000000000 0.551336765 0.384896755
v 0.000000000 0.540000200 0.500000000
v 0.000000000 0.551336765 0.615103245
v 0.000000000 0.584911227 0.725783110
v 0.000000000 0.639433146 0.827786446
v 0.000000000 0.712807178 0.917192936
v 0.000000000 0.836736752 1.000000000
v 0.000000000 0.802213669 0.990566969
v 0.000000000 0.819861647 1.000000000
v 0.000000000 0.912721109 0.000000000
v 0.000000000 0.912721109 1.000000000
v 0.000000000 1.000000000 0.040000200
v 0.000000000 1.000000000 0.000000000
v 0.000000000 1.000000000 1.000000000
v 0.000000000 1.000000000 0.959999800
v 1.000000000 0.824986991 1.000000000
v 1.000000000 0.819861647 1.000000000
v 1.000000000 0.802213669 0.990566969
v 1.000000000 0.712807178 0.917192936
v 1.000000000 0.639433146 0.827786446
v 1.000000000 0.584911227 0.725783110
v 1.000000000 0.551336765 0.615103245
v 1.000000000 0.540000200 0.500000000
v 1.000000000 0.551336765 0.384896755
v 1.000000000 0.584911227 0.274216890
v 1.000000000 0.639433146 0.172213554
v 1.000000000 0.712807178 0.082807064
v 1.000000000 0.802213669 0.009433031
v 1.000000000 0.824986991 0.000000000
v 1.000000000 0.819861608 0.000000000
v 1.000000000 0.849636641 1.000000000
v 1.000000000 0.897168878 0.000000000
v 1.000000000 1.000000000 0.914890490
v 1.000000000 1.000000000 1.000000000
v 1.000000000 0.962335690 0.000000000
v 1.000000000 1.000000000 0.000000000
v 0.826986064 0.819861647 1.000000000
v 0.173013558 0.819861608 0.000000000
v 0.024999619 0.887960553 0.990724802
v 0.024999619 0.871895383 1.000000000
v 0.024999619 0.842104842 1.000000000
v 0.024999619 0.826039672 0.990724802
v 0.024999619 0.826039672 0.954974890
v 0.024999619 0.857000113 0.937099934
v 0.024999619 0.887960553 0.954974890
v 0.000000000 0.829333290 0.992626367
v 0.000000000 0.826039672 0.990724802
v 0.000000000 0.842104842 1.000000000
v 0.000000000 0.826039672 0.958778019
v 0.000000000 0.826039672 0.954974890
v 0.000000000 0.853706494 0.939001498
v 0.000000000 0.857000113 0.937099934
v 0.000000000 0.884666935 0.953073325
v 0.000000000 0.887960553 0.954974890
v 0.000000000 0.887960553 0.986921672
v 0.000000000 0.887960553 0.990724802
v 0.000000000 0.871895383 1.000000000
v 0.024999619 0.688110709 0.790874958
v 0.024999619 0.657150269 0.808749914
v 0.024999619 0.626189828 0.790874958
v 0.024999619 0.626189828 0.755125046
v 0.024999619 0.657150269 0.737250090
v 0.024999619 0.688110709 0.755125046
v 0.000000000 0.629483446 0.792776523
v 0.000000000 0.626189828 0.790874958
v 0.000000000 0.657150269 0.808749914
v 0.000000000 0.626189828 0.758928175
v 0.000000000 0.626189828 0.755125046
v 0.000000000 0.653856650 0.739151654
v 0.000000000 0.657150269 0.737250090
v 0.000000000 0.684817091 0.753223481
v 0.000000000 0.688110709 0.755125046
v 0.000000000 0.688110709 0.787071828
v 0.000000000 0.688110709 0.790874958
v 0.000000000 0.660443887 0.806848349
v 0.024999619 0.614960551 0.517874956
v 0.024999619 0.584000111 0.535749912
v 0.024999619 0.553039670 0.517874956
v 0.024999619 0.553039670 0.482125044
v 0.024999619 0.584000111 0.464250088
v 0.024999619 0.614960551 0.482125044
v 0.000000000 0.556333288 0.519776521
v 0.000000000 0.553039670 0.517874956
v 0.000000000 0.584000111 0.535749912
v 0.000000000 0.553039670 0.485928174
v 0.000000000 0.553039670 0.482125044
v 0.000000000 0.580706492 0.466151653
v 0.000000000 0.584000111 0.464250088
v 0.000000000 0.611666933 0.480223479
v 0.000000000 0.614960551 0.482125044
v 0.000000000 0.614960551 0.514071826
v 0.000000000 0.614960551 0.517874956
v 0.000000000 0.587293729 0.533848347
v 0.024999619 0.688110709 0.244874954
v 0.024999619 0.657150269 0.262749910
v 0.024999619 0.626189828 0.244874954
v 0.024999619 0.626189828 0.209125042
v 0.024999619 0.657150269 0.191250086
v 0.024999619 0.688110709 0.209125042
v 0.000000000 0.629483446 0.246776519
v 0.000000000 0.626189828 0.244874954
v 0.000000000 0.657150269 0.262749910
v 0.000000000 0.626189828 0.212928172
v 0.000000000 0.626189828 0.209125042
v 0.000000000 0.653856650 0.193151651
v 0.000000000 0.657150269 0.191250086
v 0.000000000 0.684817091 0.207223477
v 0.000000000 0.688110709 0.209125042
v 0.000000000 0.688110709 0.241071825
v 0.000000000 0.688110709 0.244874954
v 0.000000000 0.660443887 0.260848346
v 0.024999619 0.887960553 0.045025110
v 0.024999619 0.857000113 0.062900066
v 0.024999619 0.826039672 0.045025110
v 0.024999619 0.852034965 0.000000000
v 0.024999619 0.826039672 0.009275198
v 0.024999619 0.842104735 0.000000000
v 0.024999619 0.861965260 0.000000000
v 0.024999619 0.871895490 0.000000000
v 0.024999619 0.887960553 0.009275198
v 0.000000000 0.829333290 0.046926675
v 0.000000000 0.826039672 0.045025110
v 0.000000000 0.857000113 0.062900066
v 0.000000000 0.826039672 0.013078328
v 0.000000000 0.826039672 0.009275198
v 0.000000000 0.842104735 0.000000000
v 0.000000000 0.884666935 0.007373620
v 0.000000000 0.887960553 0.009275198
v 0.000000000 0.871895490 0.000000000
v 0.000000000 0.887960553 0.041221981
v 0.000000000 0.887960553 0.045025110
v 0.000000000 0.860293731 0.060998502
v 1.000000000 0.678589132 0.966355782
v 0.950055676 0.719584597 1.000000000
v 0.890000343 0.719584597 1.000000000
v 0.890000343 0.670380712 0.959619284
v 1.000000000 0.670380712 0.959619284
v 1.000000000 0.719584597 1.000000000
v 1.000000000 0.596281371 0.869329112
v 0.890000343 0.589544892 0.861120701
v 1.000000000 0.589544892 0.861120701
v 1.000000000 0.534484089 0.758109177
v 0.890000343 0.529478431 0.748744249
v 1.000000000 0.529478431 0.748744249
v 1.000000000 0.495572164 0.636970186
v 0.890000343 0.492489696 0.626808643
v 1.000000000 0.492489696 0.626808643
v 1.000000000 0.481040960 0.510567639
v 0.890000343 0.480000138 0.500000000
v 1.000000000 0.480000138 0.500000000
v 1.000000000 0.491448874 0.383758996
v 0.890000343 0.492489696 0.373191357
v 1.000000000 0.492489696 0.373191357
v 1.000000000 0.526395963 0.261417293
v 0.890000343 0.529478431 0.251255751
v 1.000000000 0.529478431 0.251255751
v 1.000000000 0.584539235 0.148244227
v 0.890000343 0.589544892 0.138879299
v 1.000000000 0.589544892 0.138879299
v 1.000000000 0.663644233 0.048589127
v 0.890000343 0.670380712 0.040380716
v 1.000000000 0.670380712 0.040380716
v 0.949944985 0.719584670 0.000000000
v 0.890000343 0.719584670 0.000000000
v 1.000000000 0.719584670 0.000000000
v 0.908131195 1.000000000 0.637920411
v 1.000000000 1.000000000 0.637920411
v 1.000000000 0.995649815 0.634350300
v 0.890000343 0.995649815 0.634350300
v 0.890000343 1.000000000 0.637920411
v 1.000000000 0.993680688 0.631950917
v 1.000000000 0.972020864 0.605558395
v 0.890000343 0.972020864 0.605558395
v 1.000000000 0.970557675 0.602820947
v 1.000000000 0.954463005 0.572709799
v 0.890000343 0.954463005 0.572709799
v 1.000000000 0.953561980 0.569739509
v 1.000000000 0.943650961 0.537067175
v 0.890000343 0.943650961 0.537067175
v 1.000000000 0.943346712 0.533978170
v 1.000000000 0.940000057 0.500000000
v 0.890000343 0.940000057 0.500000000
v 1.000000000 0.940304306 0.496910995
v 1.000000000 0.943650961 0.462932825
v 0.890000343 0.943650961 0.462932825
v 1.000000000 0.944551986 0.459962536
v 1.000000000 0.954463005 0.427290201
v 0.890000343 0.954463005 0.427290201
v 1.000000000 0.955926195 0.424552753
v 1.000000000 0.972020864 0.394441605
v 0.890000343 0.972020864 0.394441605
v 1.000000000 0.973989991 0.392042222
v 1.000000000 0.995649815 0.365649700
v 0.890000343 0.995649815 0.365649700
v 0.991869377 1.000000000 0.362079589
v 1.000000000 0.998049197 0.363680574
v 1.000000000 1.000000000 0.362079589
v 0.890000343 1.000000000 0.362079589
v 0.890000343 0.932630873 1.000000000
v 0.890000343 1.000000000 0.868183959
v 0.890000343 1.000000000 0.813848068
v 0.890000343 0.922893290 1.000000000
v 0.890000343 1.000000000 1.000000000
v 0.890000343 0.800853046 1.000000000
v 0.890000343 1.000000000 0.748024940
v 0.890000343 1.000000000 0.694558874
v 0.890000343 0.795910803 1.000000000
v 0.890000343 1.000000000 0.678802218
v 0.890000343 0.791469750 0.000000000
v 0.890000343 1.000000000 0.305441137
v 0.890000343 0.795910732 0.000000000
v 0.890000343 0.913779940 0.000000000
v 0.890000343 1.000000000 0.266479085
v 0.890000343 1.000000000 0.186151893
v 0.890000343 0.922893328 0.000000000
v 0.890000343 1.000000000 0.000000000
v 0.867282296 0.760371337 1.000000000
v 0.860000134 0.760371337 1.000000000
v 0.860000134 0.688765526 0.941234589
v 0.890000343 0.688765526 0.941234589
v 0.890000343 0.760371337 1.000000000
v 0.860000134 0.611163139 0.846675873
v 0.890000343 0.611163139 0.846675873
v 0.860000134 0.553499222 0.738794565
v 0.890000343 0.553499222 0.738794565
v 0.860000134 0.517990112 0.621736288
v 0.890000343 0.517990112 0.621736288
v 0.860000134 0.506000042 0.500000000
v 0.890000343 0.506000042 0.500000000
v 0.860000134 0.517990112 0.378263712
v 0.890000343 0.517990112 0.378263712
v 0.860000134 0.553499222 0.261205435
v 0.890000343 0.553499222 0.261205435
v 0.860000134 0.611163139 0.153324127
v 0.890000343 0.611163139 0.153324127
v 0.860000134 0.688765526 0.058765411
v 0.890000343 0.688765526 0.058765411
v 0.882718181 0.760371337 0.000000000
v 0.860000134 0.760371337 0.000000000
v 0.890000343 0.760371337 0.000000000
v 0.890000343 0.922893378 1.000000000
v 0.890000343 1.000000000 0.813848158
v 0.890000343 1.000000000 0.734755681
v 0.890000343 0.915559670 1.000000000
v 0.890000343 0.795910709 1.000000000
v 0.890000343 1.000000000 0.694558859
v 0.890000343 0.793726609 1.000000000
v 0.890000343 1.000000000 0.321395971
v 0.890000343 0.795910709 0.000000000
v 0.890000343 1.000000000 0.305441141
v 0.890000343 1.000000000 0.252673864
v 0.890000343 0.798356849 0.000000000
v 0.890000343 0.922893378 0.000000000
v 0.890000343 1.000000000 0.186151842
v 0.890000343 1.000000000 0.133913383
v 0.890000343 0.930760321 0.000000000
v 0.864532882 1.000000000 0.637920411
v 0.860000134 0.995649815 0.634350300
v 0.860000134 1.000000000 0.637920411
v 0.860000134 0.972020864 0.605558395
v 0.860000134 0.954463005 0.572709799
v 0.860000134 0.943650961 0.537067175
v 0.860000134 0.940000057 0.500000000
v 0.860000134 0.943650961 0.462932825
v 0.860000134 0.954463005 0.427290201
v 0.860000134 0.972020864 0.394441605
v 0.860000134 0.995649815 0.365649700
v 0.885467594 1.000000000 0.362079589
v 0.860000134 1.000000000 0.362079589
v 0.860000134 0.930760321 1.000000000
v 0.860000134 1.000000000 0.866086617
v 0.860000134 1.000000000 0.813848158
v 0.860000134 0.922893378 1.000000000
v 0.860000134 1.000000000 1.000000000
v 0.860000134 0.798356849 1.000000000
v 0.860000134 1.000000000 0.747326136
v 0.860000134 1.000000000 0.694558859
v 0.860000134 0.795910709 1.000000000
v 0.860000134 1.000000000 0.678604029
v 0.860000134 0.793726609 0.000000000
v 0.860000134 1.000000000 0.305441141
v 0.860000134 0.795910709 0.000000000
v 0.860000134 0.915559670 0.000000000
v 0.860000134 1.000000000 0.265244319
v 0.860000134 1.000000000 0.186151842
v 0.860000134 0.922893378 0.000000000
v 0.860000134 1.000000000 0.000000000
v 0.810000420 0.861965203 1.000000000
v 0.810000420 0.871895383 1.000000000
v 0.810000420 0.887960553 0.990724802
v 0.810000420 0.887960553 0.954974890
v 0.810000420 0.857000113 0.937099934
v 0.810000420 0.826039672 0.954974890
v 0.810000420 0.852035022 1.000000000
v 0.810000420 0.826039672 0.990724802
v 0.810000420 0.842104842 1.000000000
v 1.000000000 0.831968286 0.994147677
v 0.923060289 0.842104842 1.000000000
v 1.000000000 0.826039672 0.990724802
v 1.000000000 0.842104842 1.000000000
v 1.000000000 0.826039672 0.961820639
v 1.000000000 0.826039672 0.954974890
v 1.000000000 0.851071499 0.940522808
v 1.000000000 0.857000113 0.937099934
v 1.000000000 0.882031939 0.951552015
v 1.000000000 0.887960553 0.954974890
v 1.000000000 0.887960553 0.983879053
v 1.000000000 0.887960553 0.990724802
v 0.931940207 0.871895383 1.000000000
v 1.000000000 0.871895383 1.000000000
v 0.810000420 0.657150269 0.808749914
v 0.810000420 0.688110709 0.790874958
v 0.810000420 0.688110709 0.755125046
v 0.810000420 0.657150269 0.737250090
v 0.810000420 0.626189828 0.755125046
v 0.810000420 0.626189828 0.790874958
v 1.000000000 0.632118442 0.794297833
v 1.000000000 0.626189828 0.790874958
v 1.000000000 0.657150269 0.808749914
v 1.000000000 0.626189828 0.761970795
v 1.000000000 0.626189828 0.755125046
v 1.000000000 0.651221655 0.740672964
v 1.000000000 0.657150269 0.737250090
v 1.000000000 0.682182095 0.751702171
v 1.000000000 0.688110709 0.755125046
v 1.000000000 0.688110709 0.784029209
v 1.000000000 0.688110709 0.790874958
v 1.000000000 0.663078882 0.805327039
v 0.810000420 0.584000111 0.535749912
v 0.810000420 0.614960551 0.517874956
v 0.810000420 0.614960551 0.482125044
v 0.810000420 0.584000111 0.464250088
v 0.810000420 0.553039670 0.482125044
v 0.810000420 0.553039670 0.517874956
v 1.000000000 0.558968284 0.521297831
v 1.000000000 0.553039670 0.517874956
v 1.000000000 0.584000111 0.535749912
v 1.000000000 0.553039670 0.488970793
v 1.000000000 0.553039670 0.482125044
v 1.000000000 0.578071497 0.467672962
v 1.000000000 0.584000111 0.464250088
v 1.000000000 0.609031938 0.478702169
v 1.000000000 0.614960551 0.482125044
v 1.000000000 0.614960551 0.511029207
v 1.000000000 0.614960551 0.517874956
v 1.000000000 0.589928724 0.532327038
v 0.810000420 0.657150269 0.262749910
v 0.810000420 0.688110709 0.244874954
v 0.810000420 0.688110709 0.209125042
v 0.810000420 0.657150269 0.191250086
v 0.810000420 0.626189828 0.209125042
v 0.810000420 0.626189828 0.244874954
v 1.000000000 0.632118442 0.248297829
v 1.000000000 0.626189828 0.244874954
v 1.000000000 0.657150269 0.262749910
v 1.000000000 0.626189828 0.215970791
v 1.000000000 0.626189828 0.209125042
v 1.000000000 0.651221655 0.194672961
v 1.000000000 0.657150269 0.191250086
v 1.000000000 0.682182095 0.205702167
v 1.000000000 0.688110709 0.209125042
v 1.000000000 0.688110709 0.238029205
v 1.000000000 0.688110709 0.244874954
v 1.000000000 0.663078882 0.259327036
v 0.810000420 0.857000113 0.062900066
v 0.810000420 0.887960553 0.045025110
v 0.810000420 0.887960553 0.009275198
v 0.810000420 0.871895490 0.000000000
v 0.810000420 0.842104735 0.000000000
v 0.810000420 0.826039672 0.009275198
v 0.810000420 0.826039672 0.045025110
v 1.000000000 0.831968286 0.048447985
v 1.000000000 0.826039672 0.045025110
v 1.000000000 0.857000113 0.062900066
v 1.000000000 0.826039672 0.016120947
v 1.000000000 0.826039672 0.009275198
v 0.931939393 0.842104735 0.000000000
v 1.000000000 0.842104735 0.000000000
v 1.000000000 0.882031939 0.005852300
v 0.923061103 0.871895490 0.000000000
v 1.000000000 0.887960553 0.009275198
v 1.000000000 0.871895490 0.000000000
v 1.000000000 0.887960553 0.038179361
v 1.000000000 0.887960553 0.045025110
v 1.000000000 0.862928726 0.059477192
v 1.000000000 0.866426198 0.040589669
v 0.000000000 0.878879221 0.044635914
v 0.000000000 0.865305424 0.040225506
v 1.000000000 0.865305424 0.040225506
v 1.000000000 0.879999995 0.045000076
v 0.000000000 0.879999995 0.045000076
v 1.000000000 0.856916267 0.028678853
v 0.000000000 0.864612740 0.039272111
v 0.000000000 0.856223583 0.027725458
v 1.000000000 0.856223583 0.027725458
v 1.000000000 0.856223583 0.013452968
v 0.000000000 0.856223583 0.026546994
v 0.000000000 0.856223583 0.012274504
v 1.000000000 0.856223583 0.012274504
v 1.000000000 0.865141641 0.000000000
v 1.000000000 0.864612740 0.000727961
v 0.000000000 0.856916267 0.011321118
v 0.000000000 0.865141641 0.000000000
v 1.000000000 0.903083723 0.011321118
v 0.000000000 0.895387250 0.000727961
v 0.000000000 0.903776407 0.012274504
v 1.000000000 0.903776407 0.012274504
v 1.000000000 0.894858349 0.000000000
v 0.000000000 0.894858349 0.000000000
v 1.000000000 0.903776407 0.026546994
v 0.000000000 0.903776407 0.013452968
v 0.000000000 0.903776407 0.027725458
v 1.000000000 0.903776407 0.027725458
v 1.000000000 0.895387250 0.039272111
v 0.000000000 0.903083723 0.028678853
v 0.000000000 0.894694567 0.040225506
v 1.000000000 0.894694567 0.040225506
v 1.000000000 0.881120769 0.044635914
v 0.000000000 0.893573793 0.040589669
v 1.000000000 0.856916267 0.988678891
v 0.000000000 0.864612740 0.999272149
v 0.000000000 0.856223583 0.987725496
v 1.000000000 0.856223583 0.987725496
v 1.000000000 0.865141556 1.000000000
v 0.000000000 0.865141556 1.000000000
v 1.000000000 0.856223583 0.973453006
v 0.000000000 0.856223583 0.986547032
v 0.000000000 0.856223583 0.972274542
v 1.000000000 0.856223583 0.972274542
v 1.000000000 0.864612740 0.960727889
v 0.000000000 0.856916267 0.971321147
v 0.000000000 0.865305424 0.959774494
v 1.000000000 0.865305424 0.959774494
v 1.000000000 0.878879221 0.955364086
v 0.000000000 0.866426198 0.959410331
v 0.000000000 0.879999995 0.954999924
v 1.000000000 0.879999995 0.954999924
v 1.000000000 0.893573793 0.959410331
v 0.000000000 0.881120769 0.955364086
v 0.000000000 0.894694567 0.959774494
v 1.000000000 0.894694567 0.959774494
v 1.000000000 0.903083723 0.971321147
v 0.000000000 0.895387250 0.960727889
v 0.000000000 0.903776407 0.972274542
v 1.000000000 0.903776407 0.972274542
v 1.000000000 0.903776407 0.986547032
v 0.000000000 0.903776407 0.973453006
v 0.000000000 0.903776407 0.987725496
v 1.000000000 0.903776407 0.987725496
v 1.000000000 0.894858434 1.000000000
v 1.000000000 0.895387250 0.999272149
v 0.000000000 0.903083723 0.988678891
v 0.000000000 0.894858434 1.000000000
v 0.260415975 0.985521912 1.000000000
v 0.259873254 1.000000000 0.989979060
v 0.273649693 1.000000000 0.894335825
v 0.273649693 0.889053707 1.000000000
v 0.258429786 1.000000000 1.000000000
v 0.298758041 0.834568399 1.000000000
v 0.280758782 1.000000000 0.879643511
v 0.326758862 1.000000000 0.784572101
v 0.326758862 0.773804788 1.000000000
v 0.374605571 0.727449833 1.000000000
v 0.328537612 1.000000000 0.782930840
v 0.349595712 1.000000000 0.763499802
v 0.406242371 0.973896384 0.736091137
v 0.406242371 0.696798561 1.000000000
v 0.468166359 0.678939156 1.000000000
v 0.500000000 0.961034656 0.722586155
v 0.500000000 0.669757692 1.000000000
v 0.560986211 0.687346610 1.000000000
v 0.593757629 0.973896384 0.736091137
v 0.593757629 0.696798561 1.000000000
v 0.640253730 0.741844891 1.000000000
v 0.650404288 1.000000000 0.763499802
v 0.673241138 1.000000000 0.784572101
v 0.673241138 0.773804788 1.000000000
v 0.698727416 0.829109969 1.000000000
v 0.674719563 1.000000000 0.787627565
v 0.726350307 1.000000000 0.894335825
v 0.726350307 0.889053707 1.000000000
v 0.732878713 0.936641480 1.000000000
v 0.729664762 1.000000000 0.917345755
v 0.741570326 1.000000000 1.000000000
v 0.636402311 1.000000000 0.763499753
v 0.363597689 1.000000000 0.763499753
v 0.556499743 1.000000000 0.763499815
v 0.443500257 1.000000000 0.763499815
vt 0.500000000 0.500000000
vn 0.000000000 1.000000000 0.000000000
vn 1.000000000 0.000000000 0.000000000
vn -1.000000000 0.000000000 0.000000000
vn 0.000000000 -0.471396359 0.881921466
vn 0.000000000 -0.634393401 0.773010358
vn 0.000000000 -0.773010358 0.634393401
vn 0.000000000 -0.881921267 0.471396732
vn 0.000000000 -0.956940115 0.290285406
vn 0.000000000 -0.995184824 0.098016155
vn 0.000000000 -0.995184824 -0.098016155
vn 0.000000000 -0.956940115 -0.290285406
vn 0.000000000 -0.881921267 -0.471396732
vn 0.000000000 -0.773010358 -0.634393401
vn 0.000000000 -0.634393401 -0.773010358
vn 0.000000000 -0.471397161 -0.881921038
vn 0.000000000 -0.499998687 0.866026162
vn 0.000000000 -1.000000000 0.000000000
vn 0.000000000 -0.499998687 -0.866026162
vn 0.000000000 0.499998687 -0.866026162
vn -0.000000000 0.499998687 0.866026162
vn 0.000000000 -0.500001188 -0.866024718
vn 0.000000000 0.500001188 -0.866024718
vn 0.000000000 -0.634394513 0.773009445
vn 0.000000000 -0.773009986 0.634393853
vn 0.000000000 -0.881921275 0.471396717
vn 0.000000000 -0.956940393 0.290284487
vn 0.000000000 -0.995184730 0.098017109
vn 0.000000000 -0.995184730 -0.098017109
vn 0.000000000 -0.956940393 -0.290284487
vn 0.000000000 -0.881921275 -0.471396717
vn 0.000000000 -0.773009986 -0.634393853
vn 0.000000000 -0.634393954 -0.773009904
vn 0.000000000 0.634394003 -0.773009864
vn 0.000000000 0.773009864 -0.634394003
vn 0.000000000 0.881922171 -0.471395040
vn 0.000000000 0.956940542 -0.290283998
vn 0.000000000 0.995184450 -0.098019949
vn 0.000000000 0.995184450 0.098019949
vn 0.000000000 0.956940542 0.290283998
vn 0.000000000 0.881922171 0.471395040
vn 0.000000000 0.773009864 0.634394003
vn 0.000000000 0.634394003 0.773009864
vn 0.000000000 -0.634393548 0.773010237
vn 0.000000000 -0.773010237 0.634393548
vn 0.000000000 -0.881920730 0.471397737
vn 0.000000000 -0.956940632 0.290283699
vn 0.000000000 -0.995184653 0.098017889
vn 0.000000000 -0.995184653 -0.098017889
vn 0.000000000 -0.956940632 -0.290283699
vn 0.000000000 -0.881920730 -0.471397737
vn 0.000000000 -0.773010237 -0.634393548
vn 0.000000000 -0.634393548 -0.773010237
vn 0.000000000 -0.309017858 0.951056236
vn 0.000000000 -0.809016247 0.587786280
vn 0.000000000 -0.809013582 -0.587789949
vn 0.000000000 0.809013582 -0.587789949
vn 0.000000000 0.809016247 0.587786280
vn 0.000000000 0.309017858 0.951056236
vn 0.000000000 -0.809016247 -0.587786280
vn 0.000000000 -0.309017858 -0.951056236
vn 0.000000000 0.309017858 -0.951056236
vn 0.000000000 0.809016247 -0.587786280
vn -0.980785140 -0.134546231 -0.141272153
vn -0.980783925 -0.134549721 -0.141277261
vn -0.831470502 -0.383154593 -0.402305062
vn -0.831462575 -0.383161124 -0.402315225
vn -0.555570847 -0.573434071 -0.602091688
vn -0.555559280 -0.573437793 -0.602098816
vn -0.195091081 -0.676412760 -0.710214931
vn -0.195083239 -0.676412911 -0.710216941
vn 0.195091081 -0.676411836 -0.710215812
vn 0.195083241 -0.676413835 -0.710216061
vn 0.555570847 -0.573432463 -0.602093220
vn 0.555559288 -0.573439397 -0.602097281
vn 0.831470502 -0.383152942 -0.402306634
vn 0.831462583 -0.383162766 -0.402313643
vn 0.980785140 -0.134545510 -0.141272840
vn 0.980783927 -0.134550436 -0.141276569
vn 0.000002428 0.724133771 -0.689659541
vn -0.000002428 0.724133771 -0.689659541
vn -0.000000537 0.724138706 -0.689654358
vn 0.000000537 0.724138706 -0.689654358
vn 0.000000000 0.724138336 -0.689654747
usemtl mat_0
f 1/1/1 2/1/1 3/1/1
f 4/1/1 2/1/1 1/1/1
f 4/1/1 1/1/1 5/1/1
f 4/1/1 5/1/1 6/1/1
f 7/1/2 8/1/2 9/1/2
f 7/1/2 9/1/2 6/1/2
f 7/1/2 6/1/2 5/1/2
f 10/1/2 8/1/2 7/1/2
f 11/1/1 12/1/1 13/1/1 14/1/1
f 12/1/1 11/1/1 15/1/1 16/1/1
f 17/1/3 18/1/3 19/1/3
f 20/1/3 18/1/3 17/1/3
f 20/1/3 17/1/3 14/1/3
f 20/1/3 14/1/3 13/1/3
f 21/1/2 22/1/2 23/1/2
f 21/1/2 23/1/2 16/1/2
f 21/1/2 16/1/2 15/1/2
f 24/1/2 22/1/2 21/1/2
f 25/1/3 26/1/3 27/1/3 28/1/3
f 28/1/3 29/1/3 30/1/3
f 30/1/3 31/1/3 32/1/3
f 32/1/3 33/1/3 34/1/3
f 34/1/3 35/1/3 36/1/3
f 37/1/3 36/1/3 38/1/3 39/1/3
f 40/1/3 25/1/3 28/1/3
f 28/1/3 30/1/3 32/1/3
f 32/1/3 34/1/3 36/1/3
f 41/1/3 36/1/3 37/1/3
f 42/1/3 43/1/3 40/1/3
f 42/1/3 40/1/3 28/1/3
f 42/1/3 28/1/3 32/1/3
f 44/1/3 45/1/3 32/1/3
f 44/1/3 32/1/3 36/1/3
f 44/1/3 36/1/3 41/1/3
f 42/1/3 32/1/3 45/1/3
f 46/1/2 47/1/2 48/1/2
f 48/1/2 49/1/2 50/1/2
f 50/1/2 51/1/2 52/1/2
f 52/1/2 53/1/2 54/1/2
f 54/1/2 55/1/2 56/1/2
f 56/1/2 57/1/2 58/1/2
f 59/1/2 58/1/2 60/1/2
f 61/1/2 46/1/2 48/1/2
f 48/1/2 50/1/2 52/1/2
f 52/1/2 54/1/2 56/1/2
f 62/1/2 56/1/2 58/1/2 59/1/2
f 63/1/2 64/1/2 61/1/2
f 63/1/2 61/1/2 48/1/2
f 63/1/2 48/1/2 52/1/2
f 65/1/2 52/1/2 56/1/2 62/1/2
f 66/1/2 63/1/2 52/1/2 65/1/2
f 67/1/4 39/1/4 38/1/4 48/1/4
f 67/1/4 48/1/4 47/1/4
f 38/1/5 36/1/5 49/1/5
f 38/1/5 49/1/5 48/1/5
f 36/1/6 35/1/6 50/1/6
f 36/1/6 50/1/6 49/1/6
f 35/1/7 34/1/7 51/1/7
f 35/1/7 51/1/7 50/1/7
f 34/1/8 33/1/8 52/1/8
f 34/1/8 52/1/8 51/1/8
f 33/1/9 32/1/9 53/1/9
f 33/1/9 53/1/9 52/1/9
f 32/1/10 31/1/10 54/1/10
f 32/1/10 54/1/10 53/1/10
f 31/1/11 30/1/11 55/1/11
f 31/1/11 55/1/11 54/1/11
f 30/1/12 29/1/12 56/1/12
f 30/1/12 56/1/12 55/1/12
f 29/1/13 28/1/13 57/1/13
f 29/1/13 57/1/13 56/1/13
f 28/1/14 27/1/14 58/1/14
f 28/1/14 58/1/14 57/1/14
f 68/1/15 27/1/15 26/1/15
f 27/1/15 68/1/15 60/1/15 58/1/15
usemtl mat_2
f 69/1/2 70/1/2 71/1/2 72/1/2
f 72/1/2 73/1/2 74/1/2
f 74/1/2 75/1/2 69/1/2
f 72/1/2 74/1/2 69/1/2
f 76/1/16 77/1/16 72/1/16
f 78/1/16 76/1/16 72/1/16 71/1/16
f 79/1/17 80/1/17 73/1/17
f 77/1/17 79/1/17 73/1/17 72/1/17
f 81/1/18 82/1/18 74/1/18
f 80/1/18 81/1/18 74/1/18 73/1/18
f 83/1/19 84/1/19 75/1/19
f 82/1/19 83/1/19 75/1/19 74/1/19
f 85/1/1 86/1/1 69/1/1
f 84/1/1 85/1/1 69/1/1 75/1/1
f 86/1/20 87/1/20 70/1/20 69/1/20
f 88/1/2 89/1/2 90/1/2
f 90/1/2 91/1/2 92/1/2
f 92/1/2 93/1/2 88/1/2
f 90/1/2 92/1/2 88/1/2
f 94/1/16 95/1/16 90/1/16
f 96/1/16 94/1/16 90/1/16 89/1/16
f 97/1/17 98/1/17 91/1/17
f 95/1/17 97/1/17 91/1/17 90/1/17
f 99/1/18 100/1/18 92/1/18
f 98/1/18 99/1/18 92/1/18 91/1/18
f 101/1/19 102/1/19 93/1/19
f 100/1/19 101/1/19 93/1/19 92/1/19
f 103/1/1 104/1/1 88/1/1
f 102/1/1 103/1/1 88/1/1 93/1/1
f 105/1/20 96/1/20 89/1/20
f 104/1/20 105/1/20 89/1/20 88/1/20
f 106/1/2 107/1/2 108/1/2
f 108/1/2 109/1/2 110/1/2
f 110/1/2 111/1/2 106/1/2
f 108/1/2 110/1/2 106/1/2
f 112/1/16 113/1/16 108/1/16
f 114/1/16 112/1/16 108/1/16 107/1/16
f 115/1/17 116/1/17 109/1/17
f 113/1/17 115/1/17 109/1/17 108/1/17
f 117/1/18 118/1/18 110/1/18
f 116/1/18 117/1/18 110/1/18 109/1/18
f 119/1/19 120/1/19 111/1/19
f 118/1/19 119/1/19 111/1/19 110/1/19
f 121/1/1 122/1/1 106/1/1
f 120/1/1 121/1/1 106/1/1 111/1/1
f 123/1/20 114/1/20 107/1/20
f 122/1/20 123/1/20 107/1/20 106/1/20
f 124/1/2 125/1/2 126/1/2
f 126/1/2 127/1/2 128/1/2
f 128/1/2 129/1/2 124/1/2
f 126/1/2 128/1/2 124/1/2
f 130/1/16 131/1/16 126/1/16
f 132/1/16 130/1/16 126/1/16 125/1/16
f 133/1/17 134/1/17 127/1/17
f 131/1/17 133/1/17 127/1/17 126/1/17
f 135/1/18 136/1/18 128/1/18
f 134/1/18 135/1/18 128/1/18 127/1/18
f 137/1/19 138/1/19 129/1/19
f 136/1/19 137/1/19 129/1/19 128/1/19
f 139/1/1 140/1/1 124/1/1
f 138/1/1 139/1/1 124/1/1 129/1/1
f 141/1/20 132/1/20 125/1/20
f 140/1/20 141/1/20 125/1/20 124/1/20
f 142/1/2 143/1/2 144/1/2
f 145/1/2 144/1/2 146/1/2 147/1/2
f 148/1/2 149/1/2 150/1/2 142/1/2
f 144/1/2 145/1/2 148/1/2 142/1/2
f 151/1/16 152/1/16 144/1/16
f 153/1/16 151/1/16 144/1/16 143/1/16
f 154/1/17 155/1/17 146/1/17
f 152/1/17 154/1/17 146/1/17 144/1/17
f 155/1/21 156/1/21 147/1/21 146/1/21
f 157/1/22 158/1/22 150/1/22
f 159/1/22 157/1/22 150/1/22 149/1/22
f 160/1/1 161/1/1 142/1/1
f 158/1/1 160/1/1 142/1/1 150/1/1
f 162/1/20 153/1/20 143/1/20
f 161/1/20 162/1/20 143/1/20 142/1/20
usemtl mat_0
f 163/1/23 164/1/23 165/1/23
f 163/1/23 165/1/23 166/1/23
f 163/1/23 166/1/23 167/1/23
f 168/1/23 164/1/23 163/1/23
f 169/1/24 166/1/24 170/1/24 171/1/24
f 167/1/24 166/1/24 169/1/24
f 172/1/25 170/1/25 173/1/25 174/1/25
f 171/1/25 170/1/25 172/1/25
f 175/1/26 173/1/26 176/1/26 177/1/26
f 174/1/26 173/1/26 175/1/26
f 178/1/27 176/1/27 179/1/27 180/1/27
f 177/1/27 176/1/27 178/1/27
f 181/1/28 179/1/28 182/1/28 183/1/28
f 180/1/28 179/1/28 181/1/28
f 184/1/29 182/1/29 185/1/29 186/1/29
f 183/1/29 182/1/29 184/1/29
f 187/1/30 185/1/30 188/1/30 189/1/30
f 186/1/30 185/1/30 187/1/30
f 190/1/31 188/1/31 191/1/31 192/1/31
f 189/1/31 188/1/31 190/1/31
f 193/1/32 191/1/32 194/1/32
f 195/1/32 192/1/32 191/1/32 193/1/32
f 196/1/33 197/1/33 198/1/33 199/1/33
f 196/1/33 199/1/33 200/1/33
f 201/1/34 202/1/34 203/1/34
f 198/1/34 201/1/34 203/1/34 199/1/34
f 204/1/35 205/1/35 206/1/35
f 202/1/35 204/1/35 206/1/35 203/1/35
f 207/1/36 208/1/36 209/1/36
f 205/1/36 207/1/36 209/1/36 206/1/36
f 210/1/37 211/1/37 212/1/37
f 208/1/37 210/1/37 212/1/37 209/1/37
f 213/1/38 214/1/38 215/1/38
f 211/1/38 213/1/38 215/1/38 212/1/38
f 216/1/39 217/1/39 218/1/39
f 214/1/39 216/1/39 218/1/39 215/1/39
f 219/1/40 220/1/40 221/1/40
f 217/1/40 219/1/40 221/1/40 218/1/40
f 222/1/41 223/1/41 224/1/41
f 220/1/41 222/1/41 224/1/41 221/1/41
f 225/1/42 226/1/42 227/1/42
f 223/1/42 226/1/42 225/1/42
f 223/1/42 225/1/42 228/1/42
f 223/1/42 228/1/42 224/1/42
f 229/1/3 230/1/3 231/1/3 232/1/3
f 233/1/3 230/1/3 229/1/3
f 234/1/3 235/1/3 236/1/3 237/1/3
f 232/1/3 231/1/3 235/1/3 234/1/3
f 238/1/3 200/1/3 199/1/3 166/1/3
f 237/1/3 236/1/3 238/1/3
f 237/1/3 238/1/3 166/1/3
f 237/1/3 166/1/3 165/1/3
f 199/1/3 203/1/3 170/1/3
f 199/1/3 170/1/3 166/1/3
f 203/1/3 206/1/3 173/1/3
f 203/1/3 173/1/3 170/1/3
f 206/1/3 209/1/3 176/1/3
f 206/1/3 176/1/3 173/1/3
f 209/1/3 212/1/3 179/1/3
f 209/1/3 179/1/3 176/1/3
f 212/1/3 215/1/3 182/1/3
f 212/1/3 182/1/3 179/1/3
f 215/1/3 218/1/3 185/1/3
f 215/1/3 185/1/3 182/1/3
f 218/1/3 221/1/3 188/1/3
f 218/1/3 188/1/3 185/1/3
f 221/1/3 224/1/3 191/1/3
f 221/1/3 191/1/3 188/1/3
f 239/1/3 224/1/3 228/1/3
f 239/1/3 228/1/3 240/1/3
f 239/1/3 240/1/3 241/1/3
f 224/1/3 239/1/3 194/1/3 191/1/3
f 242/1/3 243/1/3 244/1/3 245/1/3
f 241/1/3 240/1/3 243/1/3 242/1/3
f 245/1/3 244/1/3 246/1/3
usemtl mat_1
f 247/1/43 248/1/43 249/1/43 250/1/43
f 247/1/43 250/1/43 251/1/43
f 249/1/44 252/1/44 253/1/44
f 249/1/44 253/1/44 250/1/44
f 252/1/45 254/1/45 255/1/45
f 252/1/45 255/1/45 253/1/45
f 254/1/46 256/1/46 257/1/46
f 254/1/46 257/1/46 255/1/46
f 256/1/47 258/1/47 259/1/47
f 256/1/47 259/1/47 257/1/47
f 258/1/48 260/1/48 261/1/48
f 258/1/48 261/1/48 259/1/48
f 260/1/49 262/1/49 263/1/49
f 260/1/49 263/1/49 261/1/49
f 262/1/50 264/1/50 265/1/50
f 262/1/50 265/1/50 263/1/50
f 264/1/51 266/1/51 267/1/51
f 264/1/51 267/1/51 265/1/51
f 268/1/52 266/1/52 269/1/52
f 266/1/52 268/1/52 270/1/52 267/1/52
f 233/1/2 271/1/2 272/1/2
f 273/1/2 274/1/2 275/1/2 276/1/2
f 272/1/2 271/1/2 274/1/2 273/1/2
f 277/1/2 251/1/2 250/1/2 199/1/2
f 276/1/2 275/1/2 277/1/2
f 276/1/2 277/1/2 199/1/2
f 276/1/2 199/1/2 200/1/2
f 250/1/2 253/1/2 203/1/2
f 250/1/2 203/1/2 199/1/2
f 253/1/2 255/1/2 206/1/2
f 253/1/2 206/1/2 203/1/2
f 255/1/2 257/1/2 209/1/2
f 255/1/2 209/1/2 206/1/2
f 257/1/2 259/1/2 212/1/2
f 257/1/2 212/1/2 209/1/2
f 259/1/2 261/1/2 215/1/2
f 259/1/2 215/1/2 212/1/2
f 261/1/2 263/1/2 218/1/2
f 261/1/2 218/1/2 215/1/2
f 263/1/2 265/1/2 221/1/2
f 263/1/2 221/1/2 218/1/2
f 265/1/2 267/1/2 224/1/2
f 265/1/2 224/1/2 221/1/2
f 278/1/2 267/1/2 270/1/2
f 278/1/2 270/1/2 279/1/2
f 278/1/2 279/1/2 280/1/2
f 267/1/2 278/1/2 228/1/2 224/1/2
f 281/1/2 282/1/2 283/1/2 284/1/2
f 280/1/2 279/1/2 282/1/2 281/1/2
f 246/1/2 285/1/2 286/1/2
f 284/1/2 283/1/2 286/1/2 285/1/2
f 287/1/33 200/1/33 199/1/33 288/1/33
f 287/1/33 288/1/33 289/1/33
f 199/1/34 203/1/34 290/1/34
f 199/1/34 290/1/34 288/1/34
f 203/1/35 206/1/35 291/1/35
f 203/1/35 291/1/35 290/1/35
f 206/1/36 209/1/36 292/1/36
f 206/1/36 292/1/36 291/1/36
f 209/1/37 212/1/37 293/1/37
f 209/1/37 293/1/37 292/1/37
f 212/1/38 215/1/38 294/1/38
f 212/1/38 294/1/38 293/1/38
f 215/1/39 218/1/39 295/1/39
f 215/1/39 295/1/39 294/1/39
f 218/1/40 221/1/40 296/1/40
f 218/1/40 296/1/40 295/1/40
f 221/1/41 224/1/41 297/1/41
f 221/1/41 297/1/41 296/1/41
f 298/1/42 224/1/42 228/1/42
f 224/1/42 298/1/42 299/1/42 297/1/42
f 300/1/3 301/1/3 302/1/3 303/1/3
f 304/1/3 301/1/3 300/1/3
f 305/1/3 306/1/3 307/1/3 308/1/3
f 303/1/3 302/1/3 306/1/3 305/1/3
f 309/1/3 289/1/3 288/1/3 249/1/3
f 308/1/3 307/1/3 309/1/3
f 308/1/3 309/1/3 249/1/3
f 308/1/3 249/1/3 248/1/3
f 288/1/3 290/1/3 252/1/3
f 288/1/3 252/1/3 249/1/3
f 290/1/3 291/1/3 254/1/3
f 290/1/3 254/1/3 252/1/3
f 291/1/3 292/1/3 256/1/3
f 291/1/3 256/1/3 254/1/3
f 292/1/3 293/1/3 258/1/3
f 292/1/3 258/1/3 256/1/3
f 293/1/3 294/1/3 260/1/3
f 293/1/3 260/1/3 258/1/3
f 294/1/3 295/1/3 262/1/3
f 294/1/3 262/1/3 260/1/3
f 295/1/3 296/1/3 264/1/3
f 295/1/3 264/1/3 262/1/3
f 296/1/3 297/1/3 266/1/3
f 296/1/3 266/1/3 264/1/3
f 310/1/3 297/1/3 299/1/3
f 310/1/3 299/1/3 311/1/3
f 310/1/3 311/1/3 312/1/3
f 297/1/3 310/1/3 269/1/3 266/1/3
f 313/1/3 314/1/3 315/1/3 316/1/3
f 312/1/3 311/1/3 314/1/3 313/1/3
f 316/1/3 315/1/3 317/1/3
usemtl mat_2
f 318/1/3 319/1/3 320/1/3 321/1/3
f 321/1/3 322/1/3 323/1/3
f 324/1/3 323/1/3 325/1/3 326/1/3
f 318/1/3 321/1/3 323/1/3 324/1/3
f 327/1/16 328/1/16 326/1/16
f 327/1/16 326/1/16 325/1/16
f 327/1/16 325/1/16 329/1/16
f 330/1/16 328/1/16 327/1/16
f 331/1/17 325/1/17 323/1/17 332/1/17
f 329/1/17 325/1/17 331/1/17
f 333/1/18 323/1/18 322/1/18 334/1/18
f 332/1/18 323/1/18 333/1/18
f 335/1/19 322/1/19 321/1/19 336/1/19
f 334/1/19 322/1/19 335/1/19
f 337/1/1 321/1/1 320/1/1 338/1/1
f 336/1/1 321/1/1 337/1/1
f 339/1/20 320/1/20 319/1/20
f 340/1/20 338/1/20 320/1/20 339/1/20
f 341/1/3 342/1/3 343/1/3
f 343/1/3 344/1/3 345/1/3
f 345/1/3 346/1/3 341/1/3
f 343/1/3 345/1/3 341/1/3
f 347/1/16 341/1/16 346/1/16 348/1/16
f 349/1/16 341/1/16 347/1/16
f 350/1/17 346/1/17 345/1/17 351/1/17
f 348/1/17 346/1/17 350/1/17
f 352/1/18 345/1/18 344/1/18 353/1/18
f 351/1/18 345/1/18 352/1/18
f 354/1/19 344/1/19 343/1/19 355/1/19
f 353/1/19 344/1/19 354/1/19
f 356/1/1 343/1/1 342/1/1 357/1/1
f 355/1/1 343/1/1 356/1/1
f 358/1/20 342/1/20 341/1/20 349/1/20
f 357/1/20 342/1/20 358/1/20
f 359/1/3 360/1/3 361/1/3
f 361/1/3 362/1/3 363/1/3
f 363/1/3 364/1/3 359/1/3
f 361/1/3 363/1/3 359/1/3
f 365/1/16 359/1/16 364/1/16 366/1/16
f 367/1/16 359/1/16 365/1/16
f 368/1/17 364/1/17 363/1/17 369/1/17
f 366/1/17 364/1/17 368/1/17
f 370/1/18 363/1/18 362/1/18 371/1/18
f 369/1/18 363/1/18 370/1/18
f 372/1/19 362/1/19 361/1/19 373/1/19
f 371/1/19 362/1/19 372/1/19
f 374/1/1 361/1/1 360/1/1 375/1/1
f 373/1/1 361/1/1 374/1/1
f 376/1/20 360/1/20 359/1/20 367/1/20
f 375/1/20 360/1/20 376/1/20
f 377/1/3 378/1/3 379/1/3
f 379/1/3 380/1/3 381/1/3
f 381/1/3 382/1/3 377/1/3
f 379/1/3 381/1/3 377/1/3
f 383/1/16 377/1/16 382/1/16 384/1/16
f 385/1/16 377/1/16 383/1/16
f 386/1/17 382/1/17 381/1/17 387/1/17
f 384/1/17 382/1/17 386/1/17
f 388/1/18 381/1/18 380/1/18 389/1/18
f 387/1/18 381/1/18 388/1/18
f 390/1/19 380/1/19 379/1/19 391/1/19
f 389/1/19 380/1/19 390/1/19
f 392/1/1 379/1/1 378/1/1 393/1/1
f 391/1/1 379/1/1 392/1/1
f 394/1/20 378/1/20 377/1/20 385/1/20
f 393/1/20 378/1/20 394/1/20
f 395/1/3 396/1/3 397/1/3
f 397/1/3 398/1/3 399/1/3 400/1/3
f 400/1/3 401/1/3 395/1/3
f 397/1/3 400/1/3 395/1/3
f 402/1/16 395/1/16 401/1/16 403/1/16
f 404/1/16 395/1/16 402/1/16
f 405/1/17 401/1/17 400/1/17 406/1/17
f 403/1/17 401/1/17 405/1/17
f 407/1/21 400/1/21 399/1/21
f 408/1/21 406/1/21 400/1/21 407/1/21
f 409/1/22 410/1/22 398/1/22
f 409/1/22 398/1/22 397/1/22
f 409/1/22 397/1/22 411/1/22
f 412/1/22 410/1/22 409/1/22
f 413/1/1 397/1/1 396/1/1 414/1/1
f 411/1/1 397/1/1 413/1/1
f 415/1/20 396/1/20 395/1/20 404/1/20
f 414/1/20 396/1/20 415/1/20
f 416/1/53 417/1/53 418/1/53 419/1/53
f 420/1/53 421/1/53 417/1/53 416/1/53
f 422/1/54 423/1/54 424/1/54 425/1/54
f 419/1/54 418/1/54 423/1/54 422/1/54
f 426/1/17 427/1/17 428/1/17 429/1/17
f 425/1/17 424/1/17 427/1/17 426/1/17
f 430/1/55 431/1/55 432/1/55 433/1/55
f 429/1/55 428/1/55 432/1/55 431/1/55
f 434/1/56 435/1/56 436/1/56 437/1/56
f 438/1/56 439/1/56 435/1/56 434/1/56
f 440/1/1 441/1/1 442/1/1 443/1/1
f 437/1/1 436/1/1 441/1/1 440/1/1
f 444/1/57 445/1/57 446/1/57 447/1/57
f 443/1/57 442/1/57 445/1/57 444/1/57
f 448/1/58 449/1/58 421/1/58 420/1/58
f 447/1/58 446/1/58 449/1/58 448/1/58
f 450/1/54 451/1/54 452/1/54 453/1/54
f 454/1/54 455/1/54 451/1/54 450/1/54
f 456/1/17 457/1/17 458/1/17 459/1/17
f 453/1/17 452/1/17 457/1/17 456/1/17
f 460/1/59 461/1/59 462/1/59 463/1/59
f 459/1/59 458/1/59 461/1/59 460/1/59
f 464/1/60 465/1/60 466/1/60 467/1/60
f 463/1/60 462/1/60 465/1/60 464/1/60
f 468/1/61 469/1/61 470/1/61 471/1/61
f 467/1/61 466/1/61 469/1/61 468/1/61
f 472/1/62 473/1/62 474/1/62 475/1/62
f 471/1/62 470/1/62 473/1/62 472/1/62
f 476/1/1 477/1/1 478/1/1 479/1/1
f 475/1/1 474/1/1 477/1/1 476/1/1
f 480/1/57 481/1/57 482/1/57 483/1/57
f 479/1/57 478/1/57 482/1/57 481/1/57
f 484/1/63 485/1/63 486/1/63 487/1/63
f 488/1/64 485/1/64 484/1/64
f 489/1/65 490/1/65 491/1/65 492/1/65
f 487/1/66 486/1/66 490/1/66 489/1/66
f 493/1/67 494/1/67 495/1/67
f 493/1/67 495/1/67 496/1/67
f 493/1/67 496/1/67 497/1/67
f 492/1/68 491/1/68 494/1/68 493/1/68
f 498/1/69 496/1/69 499/1/69 500/1/69
f 497/1/70 496/1/70 498/1/70
f 501/1/71 499/1/71 502/1/71 503/1/71
f 500/1/72 499/1/72 501/1/72
f 504/1/73 502/1/73 505/1/73
f 504/1/73 505/1/73 506/1/73
f 504/1/73 506/1/73 507/1/73
f 503/1/74 502/1/74 504/1/74
f 508/1/75 509/1/75 510/1/75 511/1/75
f 507/1/76 506/1/76 509/1/76 508/1/76
f 512/1/77 513/1/77 514/1/77
f 511/1/78 510/1/78 513/1/78 512/1/78
f 515/1/79 505/1/79 502/1/79 499/1/79
f 516/1/80 499/1/80 496/1/80 495/1/80
f 517/1/81 515/1/81 499/1/81
f 518/1/82 499/1/82 516/1/82
f 517/1/83 499/1/83 518/1/83
