# Authored in Blender; exported by tools-export-modern.py
mtllib materials.mtl
s off
v 0.480000019 0.130000114 0.720000029
v 0.480000019 0.320850134 0.704979897
v 0.480000019 0.507000923 0.660289049
v 0.480000019 0.683868408 0.587028027
v 0.480000019 0.847098112 0.487000704
v 0.480000019 1.000000000 0.334098816
v 0.480000019 0.992670536 0.362670422
v 0.480000019 1.000000000 0.354088700
v 0.480000019 0.000000000 0.699410062
v 0.480000019 0.000000000 0.709768859
v 0.480000019 1.000000000 0.276549398
v 0.480000019 0.000000000 0.677760420
v 0.480000019 1.000000000 0.087908202
v 0.480000019 0.000000000 0.625549430
v 0.480000019 0.363942302 0.000000000
v 0.480000019 1.000000000 0.000000000
v 0.480000019 0.000000000 0.000000000
v 1.000000000 0.000000000 0.709768859
v 1.000000000 0.049966239 0.713701264
v 1.000000000 0.130000114 0.720000029
v 1.000000000 1.000000000 0.354088700
v 1.000000000 0.992670536 0.362670422
v 1.000000000 0.931624038 0.414808925
v 1.000000000 0.847098112 0.487000704
v 1.000000000 0.778646949 0.528947644
v 1.000000000 0.683868408 0.587028027
v 1.000000000 0.609698176 0.617750390
v 1.000000000 0.507000923 0.660289049
v 1.000000000 0.428937692 0.679030371
v 1.000000000 0.320850134 0.704979897
v 1.000000000 0.240816258 0.711278661
v 0.522716135 0.000000000 0.762196114
v 0.580000043 0.000000000 0.762196114
v 0.580000043 0.130000114 0.775000095
v 0.460000038 0.130000114 0.775000095
v 0.460000038 0.000000000 0.762196114
v 0.580000043 0.378740311 0.750501156
v 0.460000038 0.378740311 0.750501156
v 0.580000043 0.617921352 0.677946329
v 0.460000038 0.617921352 0.677946329
v 0.580000043 0.838352203 0.560123682
v 0.460000038 0.838352203 0.560123682
v 0.479602447 1.000000000 0.427462971
v 0.580000043 1.000000000 0.427462971
v 0.460000038 1.000000000 0.427462971
v 0.460000038 0.000000000 0.000000000
v 0.460000038 0.000000000 0.153554340
v 0.460000038 0.030543852 0.000000000
v 0.460000038 0.049364041 0.000000000
v 0.460000038 0.000000000 0.220385848
v 0.460000038 0.130000114 0.000000000
v 0.460000038 0.148605699 0.000000000
v 0.460000038 0.229456377 0.000000000
v 0.460000038 0.248097597 0.000000000
v 0.460000038 0.337106933 0.000000000
v 0.460000038 0.355987045 0.000000000
v 0.460000038 0.464089441 0.000000000
v 0.460000038 0.483232906 0.000000000
v 0.460000038 1.000000000 0.369999886
v 0.460000038 0.630000114 0.000000000
v 0.460000038 0.648828757 0.000000000
v 0.460000038 1.000000000 0.368447215
v 0.460000038 1.000000000 0.081315401
v 0.460000038 0.878302929 0.000000000
v 0.460000038 0.893946182 0.000000000
v 0.460000038 1.000000000 0.074605687
v 0.460000038 1.000000000 0.000000000
v 0.580000043 0.000000000 0.068376862
v 0.580000043 0.011902632 0.000000000
v 0.580000043 0.030543852 0.000000000
v 0.580000043 0.000000000 0.153554340
v 0.580000043 0.000000000 0.000000000
v 0.580000043 0.111394530 0.000000000
v 0.580000043 0.130000114 0.000000000
v 0.580000043 0.210636188 0.000000000
v 0.580000043 0.229456377 0.000000000
v 0.580000043 0.317847417 0.000000000
v 0.580000043 0.337106933 0.000000000
v 0.580000043 0.444321954 0.000000000
v 0.580000043 0.464089441 0.000000000
v 0.580000043 1.000000000 0.371479754
v 0.580000043 0.610245191 0.000000000
v 0.580000043 0.630000114 0.000000000
v 0.580000043 1.000000000 0.369999886
v 0.580000043 1.000000000 0.087813302
v 0.580000043 0.861493559 0.000000000
v 0.580000043 0.878302929 0.000000000
v 0.580000043 1.000000000 0.081315401
v 0.580000043 1.000000000 0.000000000
v 0.596332349 0.000000000 0.711196090
v 0.610000014 0.000000000 0.711196090
v 0.610000014 0.130000114 0.723999977
v 0.580000043 0.130000114 0.723999977
v 0.580000043 0.000000000 0.711196090
v 0.610000014 0.368790627 0.700481176
v 0.580000043 0.368790627 0.700481176
v 0.610000014 0.598404646 0.630828381
v 0.580000043 0.598404646 0.630828381
v 0.610000014 0.810018063 0.517718792
v 0.580000043 0.810018063 0.517718792
v 0.610000014 0.995498657 0.365498543
v 0.580000043 0.995498657 0.365498543
v 0.609112878 1.000000000 0.360013650
v 0.610000014 1.000000000 0.360013650
v 0.580000043 1.000000000 0.360013650
v 0.580000043 0.000000000 0.153554569
v 0.580000043 0.030543883 0.000000000
v 0.580000043 0.048938263 0.000000000
v 0.580000043 0.000000000 0.217337368
v 0.580000043 0.148197057 0.000000000
v 0.580000043 0.229456345 0.000000000
v 0.580000043 0.247667639 0.000000000
v 0.580000043 0.337106998 0.000000000
v 0.580000043 0.355490921 0.000000000
v 0.580000043 0.464089402 0.000000000
v 0.580000043 0.482600283 0.000000000
v 0.580000043 0.647922412 0.000000000
v 0.580000043 1.000000000 0.081315324
v 0.580000043 0.878303026 0.000000000
v 0.580000043 0.892430257 0.000000000
v 0.580000043 1.000000000 0.075853292
v 0.610000014 0.000000000 0.071322108
v 0.610000014 0.012332589 0.000000000
v 0.610000014 0.030543883 0.000000000
v 0.610000014 0.000000000 0.153554569
v 0.610000014 0.000000000 0.000000000
v 0.610000014 0.111803172 0.000000000
v 0.610000014 0.130000114 0.000000000
v 0.610000014 0.211061966 0.000000000
v 0.610000014 0.229456345 0.000000000
v 0.610000014 0.318336130 0.000000000
v 0.610000014 0.337106998 0.000000000
v 0.610000014 0.444946309 0.000000000
v 0.610000014 0.464089402 0.000000000
v 0.610000014 0.611153678 0.000000000
v 0.610000014 0.630000114 0.000000000
v 0.610000014 1.000000000 0.086596969
v 0.610000014 0.863071339 0.000000000
v 0.610000014 0.878303026 0.000000000
v 0.610000014 1.000000000 0.081315324
v 0.610000014 1.000000000 0.000000000
v 0.660000086 0.130000114 0.500874996
v 0.660000086 0.190730095 0.535937548
v 0.660000086 0.190730095 0.606062651
v 0.660000086 0.130000114 0.641125202
v 0.660000086 0.069270134 0.606062651
v 0.660000086 0.069270134 0.535937548
v 0.425000072 0.190730095 0.535937548
v 0.425000072 0.130000114 0.500874996
v 0.425000072 0.069270134 0.535937548
v 0.425000072 0.069270134 0.606062651
v 0.425000072 0.130000114 0.641125202
v 0.425000072 0.190730095 0.606062651
v 0.660000086 0.460957289 0.448456287
v 0.660000086 0.521687269 0.483518839
v 0.660000086 0.521687269 0.553643942
v 0.660000086 0.460957289 0.588706493
v 0.660000086 0.400227308 0.553643942
v 0.660000086 0.400227308 0.483518839
v 0.425000072 0.521687269 0.483518839
v 0.425000072 0.460957289 0.448456287
v 0.425000072 0.400227308 0.483518839
v 0.425000072 0.400227308 0.553643942
v 0.425000072 0.460957289 0.588706493
v 0.425000072 0.521687269 0.553643942
v 0.660000086 0.759518147 0.296332121
v 0.660000086 0.820248127 0.331394672
v 0.660000086 0.820248127 0.401519775
v 0.660000086 0.759518147 0.436582327
v 0.660000086 0.698788166 0.401519775
v 0.660000086 0.698788166 0.331394672
v 0.425000072 0.820248127 0.331394672
v 0.425000072 0.759518147 0.296332121
v 0.425000072 0.698788166 0.331394672
v 0.425000072 0.698788166 0.401519775
v 0.425000072 0.759518147 0.436582327
v 0.425000072 0.820248127 0.401519775
v 0.660000086 1.000000000 0.065529013
v 0.660000086 0.996457338 0.059392929
v 0.660000086 1.000000000 0.061438290
v 0.660000086 1.000000000 0.164580584
v 0.660000086 1.000000000 0.197597774
v 0.660000086 0.996457338 0.199643135
v 0.660000086 0.935727358 0.164580584
v 0.660000086 0.935727358 0.094455481
v 0.425000072 1.000000000 0.094455481
v 0.425000072 1.000000000 0.061438290
v 0.425000072 0.996457338 0.059392929
v 0.425000072 0.935727358 0.094455481
v 0.425000072 0.935727358 0.164580584
v 0.425000072 0.996457338 0.199643135
v 0.425000072 1.000000000 0.193507051
v 0.425000072 1.000000000 0.197597774
v 0.646291444 1.000000000 0.197597774
v 0.438708713 1.000000000 0.061438290
v 0.460000038 0.688145470 0.000000000
v 0.460000038 0.693460948 0.000000000
v 0.460000038 0.664855719 0.034855604
v 0.460000038 0.550233364 0.128923655
v 0.460000038 0.419461727 0.198822498
v 0.460000038 0.277566433 0.241865873
v 0.460000038 0.130000114 0.256400108
v 0.460000038 0.000000000 0.230541437
v 0.460000038 0.000000000 0.243596020
v 0.460000038 0.679293386 0.000000000
v 0.460000038 0.000000000 0.202552283
v 0.460000038 0.386400223 0.000000000
v 0.460000038 0.000000000 0.126399973
v 0.370000005 0.000000000 0.241865873
v 0.370000005 0.000000000 0.243596020
v 0.370000005 0.130000114 0.256400108
v 0.370000005 0.277566433 0.241865873
v 0.370000005 0.419461727 0.198822498
v 0.370000005 0.550233364 0.128923655
v 0.370000005 0.679157019 0.000000000
v 0.370000005 0.664855719 0.034855604
v 0.370000005 0.693460948 0.000000000
v 0.370000005 0.000000000 0.238371742
v 0.370000005 0.636377378 0.000000000
v 0.370000005 0.344411677 0.000000000
v 0.370000005 0.000000000 0.230128512
v 0.370000005 0.000000000 0.000000000
v 0.370000005 0.000000000 0.153554615
v 0.370000005 0.030543916 0.000000000
v 0.449286489 0.000000000 0.243596020
v 0.432631855 0.693460948 0.000000000
v 1.000000000 0.122361116 0.684999943
v 0.379999995 0.075000048 0.684999943
v 0.379999995 0.184999943 0.684999943
v 1.000000000 0.184999943 0.684999943
v 1.000000000 0.075000048 0.684999943
v 1.000000000 0.122361116 0.755000114
v 0.379999995 0.075000048 0.755000114
v 1.000000000 0.075000048 0.755000114
v 1.000000000 0.184999943 0.755000114
v 0.379999995 0.184999943 0.755000114
v 1.000000000 0.075000048 0.715138907
v 1.000000000 0.184999943 0.715138907
v 0.570000052 0.009999990 0.691999912
v 0.594248772 0.009999990 0.706000090
v 0.594248772 0.009999990 0.733999968
v 0.570000052 0.009999990 0.748000145
v 0.545751333 0.009999990 0.733999968
v 0.545751333 0.009999990 0.706000090
v 0.594248772 0.269999981 0.706000090
v 0.570000052 0.269999981 0.691999912
v 0.545751333 0.269999981 0.706000090
v 0.545751333 0.269999981 0.733999968
v 0.570000052 0.269999981 0.748000145
v 0.594248772 0.269999981 0.733999968
v 0.850000024 0.009999990 0.691999912
v 0.874248743 0.009999990 0.706000090
v 0.874248743 0.009999990 0.733999968
v 0.850000024 0.009999990 0.748000145
v 0.825751305 0.009999990 0.733999968
v 0.825751305 0.009999990 0.706000090
v 0.874248743 0.269999981 0.706000090
v 0.850000024 0.269999981 0.691999912
v 0.825751305 0.269999981 0.706000090
v 0.825751305 0.269999981 0.733999968
v 0.850000024 0.269999981 0.748000145
v 0.874248743 0.269999981 0.733999968
v 0.656283027 0.000000000 0.721768810
v 0.631999969 0.130000114 0.731999874
v 0.631999969 0.000000000 0.721768810
v 0.667999983 0.000000000 0.721768810
v 0.667999983 0.130000114 0.731999874
v 0.632282969 1.000000000 0.372142489
v 0.631999969 1.000000000 0.372142489
v 0.631999969 0.854151487 0.496708870
v 0.667999983 0.854151487 0.496708870
v 0.667999983 1.000000000 0.372142489
v 0.631999969 0.689316273 0.597720146
v 0.667999983 0.689316273 0.597720146
v 0.631999969 0.510709047 0.671701670
v 0.667999983 0.510709047 0.671701670
v 0.631999969 0.322727442 0.716832161
v 0.667999983 0.322727442 0.716832161
v 0.667999983 0.000000000 0.713594845
v 0.667999983 0.000000000 0.709768859
v 0.667999983 0.130000114 0.720000029
v 0.667999983 1.000000000 0.355095950
v 0.667999983 1.000000000 0.369999886
v 0.667999983 0.992670536 0.362670422
v 0.667999983 1.000000000 0.354088700
v 0.667999983 1.000000000 0.372024477
v 0.667999983 0.847098112 0.487000704
v 0.667999983 0.683868408 0.587028027
v 0.667999983 0.507000923 0.660289049
v 0.667999983 0.320850134 0.704979897
v 0.643478079 0.000000000 0.709768859
v 0.631999969 0.000000000 0.709768859
v 0.631999969 0.130000114 0.720000029
v 0.634122226 1.000000000 0.354088700
v 0.631999969 0.992670536 0.362670422
v 0.631999969 1.000000000 0.354088700
v 0.631999969 0.847098112 0.487000704
v 0.631999969 0.683868408 0.587028027
v 0.631999969 0.507000923 0.660289049
v 0.631999969 0.320850134 0.704979897
v 0.631999969 0.000000000 0.717863210
v 0.631999969 1.000000000 0.369999886
v 0.956283098 0.000000000 0.721768810
v 0.932000041 0.130000114 0.731999874
v 0.932000041 0.000000000 0.721768810
v 0.968000054 0.000000000 0.721768810
v 0.968000054 0.130000114 0.731999874
v 0.932283041 1.000000000 0.372142489
v 0.932000041 1.000000000 0.372142489
v 0.932000041 0.854151487 0.496708870
v 0.968000054 0.854151487 0.496708870
v 0.968000054 1.000000000 0.372142489
v 0.932000041 0.689316273 0.597720146
v 0.968000054 0.689316273 0.597720146
v 0.932000041 0.510709047 0.671701670
v 0.968000054 0.510709047 0.671701670
v 0.932000041 0.322727442 0.716832161
v 0.968000054 0.322727442 0.716832161
v 0.968000054 0.000000000 0.713594845
v 0.968000054 0.000000000 0.709768859
v 0.968000054 0.130000114 0.720000029
v 0.968000054 1.000000000 0.355095950
v 0.968000054 1.000000000 0.369999886
v 0.968000054 0.992670536 0.362670422
v 0.968000054 1.000000000 0.354088700
v 0.968000054 1.000000000 0.372024477
v 0.968000054 0.847098112 0.487000704
v 0.968000054 0.683868408 0.587028027
v 0.968000054 0.507000923 0.660289049
v 0.968000054 0.320850134 0.704979897
v 0.943478150 0.000000000 0.709768859
v 0.932000041 0.000000000 0.709768859
v 0.932000041 0.130000114 0.720000029
v 0.934122298 1.000000000 0.354088700
v 0.932000041 0.992670536 0.362670422
v 0.932000041 1.000000000 0.354088700
v 0.932000041 0.847098112 0.487000704
v 0.932000041 0.683868408 0.587028027
v 0.932000041 0.507000923 0.660289049
v 0.932000041 0.320850134 0.704979897
v 0.932000041 0.000000000 0.717863210
v 0.932000041 1.000000000 0.369999886
v 0.049999952 0.000000000 0.750000000
v 0.049999952 0.069999933 0.750000000
v 0.100000024 0.069999933 0.750000000
v 0.100000024 0.000000000 0.750000000
v 0.064705857 0.000000000 1.000000000
v 0.100000024 0.000000000 1.000000000
v 0.049999952 0.000000000 1.000000000
v 0.064705857 0.069999933 1.000000000
v 0.049999952 0.069999933 1.000000000
v 0.100000024 0.069999933 1.000000000
v 0.049999952 0.020588218 1.000000000
v 0.100000024 0.020588218 1.000000000
v 0.149999976 0.000000000 0.750000000
v 0.149999976 0.069999933 0.750000000
v 0.200000048 0.069999933 0.750000000
v 0.200000048 0.000000000 0.750000000
v 0.164705881 0.000000000 1.000000000
v 0.200000048 0.000000000 1.000000000
v 0.149999976 0.000000000 1.000000000
v 0.164705881 0.069999933 1.000000000
v 0.149999976 0.069999933 1.000000000
v 0.200000048 0.069999933 1.000000000
v 0.149999976 0.020588218 1.000000000
v 0.200000048 0.020588218 1.000000000
v 0.250000000 0.000000000 0.750000000
v 0.250000000 0.069999933 0.750000000
v 0.299999952 0.069999933 0.750000000
v 0.299999952 0.000000000 0.750000000
v 0.264705870 0.000000000 1.000000000
v 0.299999952 0.000000000 1.000000000
v 0.250000000 0.000000000 1.000000000
v 0.264705870 0.069999933 1.000000000
v 0.250000000 0.069999933 1.000000000
v 0.299999952 0.069999933 1.000000000
v 0.250000000 0.020588218 1.000000000
v 0.299999952 0.020588218 1.000000000
v 0.350000024 0.000000000 0.750000000
v 0.350000024 0.069999933 0.750000000
v 0.399999976 0.069999933 0.750000000
v 0.399999976 0.000000000 0.750000000
v 0.364705894 0.000000000 1.000000000
v 0.399999976 0.000000000 1.000000000
v 0.350000024 0.000000000 1.000000000
v 0.364705894 0.069999933 1.000000000
v 0.350000024 0.069999933 1.000000000
v 0.399999976 0.069999933 1.000000000
v 0.350000024 0.020588218 1.000000000
v 0.399999976 0.020588218 1.000000000
v 0.450000048 0.000000000 0.750000000
v 0.450000048 0.069999933 0.750000000
v 0.500000000 0.069999933 0.750000000
v 0.500000000 0.000000000 0.750000000
v 0.464705918 0.000000000 1.000000000
v 0.500000000 0.000000000 1.000000000
v 0.450000048 0.000000000 1.000000000
v 0.464705918 0.069999933 1.000000000
v 0.450000048 0.069999933 1.000000000
v 0.500000000 0.069999933 1.000000000
v 0.450000048 0.020588218 1.000000000
v 0.500000000 0.020588218 1.000000000
v 0.549999952 0.000000000 0.750000000
v 0.549999952 0.069999933 0.750000000
v 0.600000024 0.069999933 0.750000000
v 0.600000024 0.000000000 0.750000000
v 0.564705857 0.000000000 1.000000000
v 0.600000024 0.000000000 1.000000000
v 0.549999952 0.000000000 1.000000000
v 0.564705857 0.069999933 1.000000000
v 0.549999952 0.069999933 1.000000000
v 0.600000024 0.069999933 1.000000000
v 0.549999952 0.020588218 1.000000000
v 0.600000024 0.020588218 1.000000000
v 0.649999976 0.000000000 0.750000000
v 0.649999976 0.069999933 0.750000000
v 0.700000048 0.069999933 0.750000000
v 0.700000048 0.000000000 0.750000000
v 0.664705881 0.000000000 1.000000000
v 0.700000048 0.000000000 1.000000000
v 0.649999976 0.000000000 1.000000000
v 0.664705881 0.069999933 1.000000000
v 0.649999976 0.069999933 1.000000000
v 0.700000048 0.069999933 1.000000000
v 0.649999976 0.020588218 1.000000000
v 0.700000048 0.020588218 1.000000000
v 0.750000000 0.000000000 0.750000000
v 0.750000000 0.069999933 0.750000000
v 0.799999952 0.069999933 0.750000000
v 0.799999952 0.000000000 0.750000000
v 0.764705870 0.000000000 1.000000000
v 0.799999952 0.000000000 1.000000000
v 0.750000000 0.000000000 1.000000000
v 0.764705870 0.069999933 1.000000000
v 0.750000000 0.069999933 1.000000000
v 0.799999952 0.069999933 1.000000000
v 0.750000000 0.020588218 1.000000000
v 0.799999952 0.020588218 1.000000000
v 0.850000024 0.000000000 0.750000000
v 0.850000024 0.069999933 0.750000000
v 0.899999976 0.069999933 0.750000000
v 0.899999976 0.000000000 0.750000000
v 0.864705894 0.000000000 1.000000000
v 0.899999976 0.000000000 1.000000000
v 0.850000024 0.000000000 1.000000000
v 0.864705894 0.069999933 1.000000000
v 0.850000024 0.069999933 1.000000000
v 0.899999976 0.069999933 1.000000000
v 0.850000024 0.020588218 1.000000000
v 0.899999976 0.020588218 1.000000000
v 0.950000048 0.000000000 0.750000000
v 0.950000048 0.069999933 0.750000000
v 1.000000000 0.069999933 0.750000000
v 1.000000000 0.000000000 0.750000000
v 0.964705918 0.000000000 1.000000000
v 1.000000000 0.000000000 1.000000000
v 0.950000048 0.000000000 1.000000000
v 0.964705918 0.069999933 1.000000000
v 0.950000048 0.069999933 1.000000000
v 1.000000000 0.069999933 1.000000000
v 0.950000048 0.020588218 1.000000000
v 1.000000000 0.020588218 1.000000000
vt 0.500000000 0.500000000
vn -1.000000000 0.000000000 0.000000000
vn 0.000000000 -0.078458627 0.996917371
vn 0.000000000 0.760406774 0.649447102
vn 0.000000000 0.649447102 0.760406774
vn 0.000000000 0.522498685 0.852640091
vn 0.000000000 0.382683930 0.923879327
vn 0.000000000 0.233445349 0.972369924
vn 0.000000000 0.078458627 0.996917371
vn 0.000000000 -0.098017808 0.995184661
vn 0.000000000 0.098017808 0.995184661
vn 0.000000000 0.290284864 0.956940279
vn 0.000000000 0.471396434 0.881921426
vn 0.000000000 0.634392693 0.773010939
vn 1.000000000 0.000000000 -0.000000000
vn 0.000000000 -0.098017091 0.995184732
vn 0.000000000 0.098017091 0.995184732
vn 0.000000000 0.290285229 0.956940168
vn 0.000000000 0.471396286 0.881921505
vn 0.000000000 0.634393929 0.773009924
vn 0.000000000 0.773009924 0.634393929
vn 0.000000000 -0.500000866 -0.866024904
vn 0.000000000 -1.000000000 0.000000000
vn 0.000000000 -0.500000866 0.866024904
vn 0.000000000 0.500000866 0.866024904
vn 0.000000000 1.000000000 0.000000000
vn 0.000000000 0.500000866 -0.866024904
vn 0.000000000 -0.098018618 0.995184581
vn 0.000000000 0.098018618 0.995184581
vn 0.000000000 0.290284110 0.956940508
vn 0.000000000 0.471396462 0.881921411
vn 0.000000000 0.634392942 0.773010734
vn 0.000000000 0.773010734 0.634392942
vn 0.000000000 0.000000000 -1.000000000
vn 0.000000000 0.000000000 1.000000000
vn -0.500004629 0.000000000 -0.866022731
vn -0.500004629 0.000000000 0.866022731
vn 0.500004629 0.000000000 0.866022731
vn 0.500004629 0.000000000 -0.866022731
vn 0.000000000 -0.078457826 0.996917434
vn 0.000000000 0.649447999 0.760406008
vn 0.000000000 0.522499042 0.852639872
vn 0.000000000 0.382683381 0.923879554
vn 0.000000000 0.233445856 0.972369802
vn 0.000000000 0.078457777 0.996917437
vn 0.000000000 0.078458627 -0.996917371
vn 0.000000000 -0.760406774 -0.649447102
vn 0.000000000 -0.649447102 -0.760406774
vn 0.000000000 -0.522498685 -0.852640091
vn 0.000000000 -0.382683930 -0.923879327
vn 0.000000000 -0.233445349 -0.972369924
vn 0.000000000 -0.078458627 -0.996917371
usemtl mat_3
f 1/1/1 2/1/1 3/1/1
f 3/1/1 4/1/1 5/1/1
f 6/1/1 5/1/1 7/1/1 8/1/1
f 9/1/1 10/1/1 1/1/1
f 1/1/1 3/1/1 5/1/1
f 11/1/1 5/1/1 6/1/1
f 12/1/1 9/1/1 1/1/1
f 13/1/1 1/1/1 5/1/1 11/1/1
f 14/1/1 12/1/1 1/1/1
f 15/1/1 1/1/1 13/1/1 16/1/1
f 15/1/1 17/1/1 14/1/1 1/1/1
f 18/1/2 19/1/2 1/1/2 10/1/2
f 20/1/2 1/1/2 19/1/2
f 21/1/3 8/1/3 7/1/3 22/1/3
f 23/1/4 7/1/4 5/1/4 24/1/4
f 22/1/4 7/1/4 23/1/4
f 25/1/5 5/1/5 4/1/5 26/1/5
f 24/1/5 5/1/5 25/1/5
f 27/1/6 4/1/6 3/1/6 28/1/6
f 26/1/6 4/1/6 27/1/6
f 29/1/7 3/1/7 2/1/7 30/1/7
f 28/1/7 3/1/7 29/1/7
f 31/1/8 2/1/8 1/1/8 20/1/8
f 30/1/8 2/1/8 31/1/8
usemtl mat_2
f 32/1/9 33/1/9 34/1/9 35/1/9
f 32/1/9 35/1/9 36/1/9
f 34/1/10 37/1/10 38/1/10
f 34/1/10 38/1/10 35/1/10
f 37/1/11 39/1/11 40/1/11
f 37/1/11 40/1/11 38/1/11
f 39/1/12 41/1/12 42/1/12
f 39/1/12 42/1/12 40/1/12
f 43/1/13 41/1/13 44/1/13
f 41/1/13 43/1/13 45/1/13 42/1/13
f 46/1/1 47/1/1 48/1/1
f 49/1/1 50/1/1 36/1/1
f 49/1/1 36/1/1 35/1/1
f 49/1/1 35/1/1 51/1/1
f 48/1/1 47/1/1 50/1/1 49/1/1
f 52/1/1 35/1/1 38/1/1 53/1/1
f 51/1/1 35/1/1 52/1/1
f 54/1/1 38/1/1 40/1/1 55/1/1
f 53/1/1 38/1/1 54/1/1
f 56/1/1 40/1/1 42/1/1 57/1/1
f 55/1/1 40/1/1 56/1/1
f 58/1/1 42/1/1 45/1/1
f 58/1/1 45/1/1 59/1/1
f 58/1/1 59/1/1 60/1/1
f 57/1/1 42/1/1 58/1/1
f 61/1/1 62/1/1 63/1/1 64/1/1
f 60/1/1 59/1/1 62/1/1 61/1/1
f 65/1/1 66/1/1 67/1/1
f 64/1/1 63/1/1 66/1/1 65/1/1
f 68/1/14 69/1/14 70/1/14 71/1/14
f 72/1/14 69/1/14 68/1/14
f 73/1/14 74/1/14 34/1/14
f 71/1/14 70/1/14 73/1/14
f 71/1/14 73/1/14 34/1/14
f 71/1/14 34/1/14 33/1/14
f 75/1/14 76/1/14 37/1/14
f 74/1/14 75/1/14 37/1/14 34/1/14
f 77/1/14 78/1/14 39/1/14
f 76/1/14 77/1/14 39/1/14 37/1/14
f 79/1/14 80/1/14 41/1/14
f 78/1/14 79/1/14 41/1/14 39/1/14
f 81/1/14 82/1/14 83/1/14 84/1/14
f 80/1/14 82/1/14 81/1/14
f 80/1/14 81/1/14 44/1/14
f 80/1/14 44/1/14 41/1/14
f 85/1/14 86/1/14 87/1/14 88/1/14
f 84/1/14 83/1/14 86/1/14 85/1/14
f 89/1/14 88/1/14 87/1/14
usemtl mat_1
f 90/1/15 91/1/15 92/1/15 93/1/15
f 90/1/15 93/1/15 94/1/15
f 92/1/16 95/1/16 96/1/16
f 92/1/16 96/1/16 93/1/16
f 95/1/17 97/1/17 98/1/17
f 95/1/17 98/1/17 96/1/17
f 97/1/18 99/1/18 100/1/18
f 97/1/18 100/1/18 98/1/18
f 99/1/19 101/1/19 102/1/19
f 99/1/19 102/1/19 100/1/19
f 103/1/20 101/1/20 104/1/20
f 101/1/20 103/1/20 105/1/20 102/1/20
f 72/1/1 106/1/1 107/1/1
f 108/1/1 109/1/1 94/1/1
f 108/1/1 94/1/1 93/1/1
f 108/1/1 93/1/1 74/1/1
f 107/1/1 106/1/1 109/1/1 108/1/1
f 110/1/1 93/1/1 96/1/1 111/1/1
f 74/1/1 93/1/1 110/1/1
f 112/1/1 96/1/1 98/1/1 113/1/1
f 111/1/1 96/1/1 112/1/1
f 114/1/1 98/1/1 100/1/1 115/1/1
f 113/1/1 98/1/1 114/1/1
f 116/1/1 100/1/1 102/1/1 83/1/1
f 115/1/1 100/1/1 116/1/1
f 117/1/1 102/1/1 105/1/1
f 117/1/1 105/1/1 118/1/1
f 117/1/1 118/1/1 119/1/1
f 83/1/1 102/1/1 117/1/1
f 120/1/1 121/1/1 89/1/1
f 119/1/1 118/1/1 121/1/1 120/1/1
f 122/1/14 123/1/14 124/1/14 125/1/14
f 126/1/14 123/1/14 122/1/14
f 127/1/14 128/1/14 92/1/14
f 125/1/14 124/1/14 127/1/14
f 125/1/14 127/1/14 92/1/14
f 125/1/14 92/1/14 91/1/14
f 129/1/14 130/1/14 95/1/14
f 128/1/14 129/1/14 95/1/14 92/1/14
f 131/1/14 132/1/14 97/1/14
f 130/1/14 131/1/14 97/1/14 95/1/14
f 133/1/14 134/1/14 99/1/14
f 132/1/14 133/1/14 99/1/14 97/1/14
f 135/1/14 136/1/14 101/1/14
f 134/1/14 135/1/14 101/1/14 99/1/14
f 137/1/14 138/1/14 139/1/14 140/1/14
f 136/1/14 138/1/14 137/1/14
f 136/1/14 137/1/14 104/1/14
f 136/1/14 104/1/14 101/1/14
f 141/1/14 140/1/14 139/1/14
usemtl mat_2
f 142/1/14 143/1/14 144/1/14
f 144/1/14 145/1/14 146/1/14
f 146/1/14 147/1/14 142/1/14
f 144/1/14 146/1/14 142/1/14
f 148/1/1 149/1/1 150/1/1
f 150/1/1 151/1/1 152/1/1
f 152/1/1 153/1/1 148/1/1
f 150/1/1 152/1/1 148/1/1
f 142/1/21 147/1/21 150/1/21
f 142/1/21 150/1/21 149/1/21
f 147/1/22 146/1/22 151/1/22
f 147/1/22 151/1/22 150/1/22
f 146/1/23 145/1/23 152/1/23
f 146/1/23 152/1/23 151/1/23
f 145/1/24 144/1/24 153/1/24
f 145/1/24 153/1/24 152/1/24
f 144/1/25 143/1/25 148/1/25
f 144/1/25 148/1/25 153/1/25
f 143/1/26 142/1/26 149/1/26
f 143/1/26 149/1/26 148/1/26
f 154/1/14 155/1/14 156/1/14
f 156/1/14 157/1/14 158/1/14
f 158/1/14 159/1/14 154/1/14
f 156/1/14 158/1/14 154/1/14
f 160/1/1 161/1/1 162/1/1
f 162/1/1 163/1/1 164/1/1
f 164/1/1 165/1/1 160/1/1
f 162/1/1 164/1/1 160/1/1
f 154/1/21 159/1/21 162/1/21
f 154/1/21 162/1/21 161/1/21
f 159/1/22 158/1/22 163/1/22
f 159/1/22 163/1/22 162/1/22
f 158/1/23 157/1/23 164/1/23
f 158/1/23 164/1/23 163/1/23
f 157/1/24 156/1/24 165/1/24
f 157/1/24 165/1/24 164/1/24
f 156/1/25 155/1/25 160/1/25
f 156/1/25 160/1/25 165/1/25
f 155/1/26 154/1/26 161/1/26
f 155/1/26 161/1/26 160/1/26
f 166/1/14 167/1/14 168/1/14
f 168/1/14 169/1/14 170/1/14
f 170/1/14 171/1/14 166/1/14
f 168/1/14 170/1/14 166/1/14
f 172/1/1 173/1/1 174/1/1
f 174/1/1 175/1/1 176/1/1
f 176/1/1 177/1/1 172/1/1
f 174/1/1 176/1/1 172/1/1
f 166/1/21 171/1/21 174/1/21
f 166/1/21 174/1/21 173/1/21
f 171/1/22 170/1/22 175/1/22
f 171/1/22 175/1/22 174/1/22
f 170/1/23 169/1/23 176/1/23
f 170/1/23 176/1/23 175/1/23
f 169/1/24 168/1/24 177/1/24
f 169/1/24 177/1/24 176/1/24
f 168/1/25 167/1/25 172/1/25
f 168/1/25 172/1/25 177/1/25
f 167/1/26 166/1/26 173/1/26
f 167/1/26 173/1/26 172/1/26
f 178/1/14 179/1/14 180/1/14
f 181/1/14 182/1/14 183/1/14 184/1/14
f 184/1/14 185/1/14 179/1/14
f 178/1/14 181/1/14 184/1/14 179/1/14
f 186/1/1 187/1/1 188/1/1 189/1/1
f 189/1/1 190/1/1 191/1/1
f 192/1/1 191/1/1 193/1/1
f 186/1/1 189/1/1 191/1/1 192/1/1
f 179/1/21 185/1/21 189/1/21
f 179/1/21 189/1/21 188/1/21
f 185/1/22 184/1/22 190/1/22
f 185/1/22 190/1/22 189/1/22
f 184/1/23 183/1/23 191/1/23
f 184/1/23 191/1/23 190/1/23
f 194/1/24 183/1/24 182/1/24
f 183/1/24 194/1/24 193/1/24 191/1/24
f 195/1/26 180/1/26 179/1/26 188/1/26
f 195/1/26 188/1/26 187/1/26
usemtl mat_3
f 196/1/14 197/1/14 198/1/14
f 198/1/14 199/1/14 200/1/14
f 200/1/14 201/1/14 202/1/14
f 203/1/14 202/1/14 204/1/14
f 205/1/14 196/1/14 198/1/14
f 198/1/14 200/1/14 202/1/14
f 206/1/14 202/1/14 203/1/14
f 207/1/14 205/1/14 198/1/14 202/1/14
f 208/1/14 202/1/14 206/1/14
f 51/1/14 207/1/14 202/1/14
f 51/1/14 202/1/14 208/1/14 46/1/14
f 209/1/1 210/1/1 211/1/1 212/1/1
f 212/1/1 213/1/1 214/1/1
f 215/1/1 214/1/1 216/1/1 217/1/1
f 218/1/1 209/1/1 212/1/1 214/1/1
f 219/1/1 214/1/1 215/1/1
f 220/1/1 221/1/1 218/1/1
f 220/1/1 218/1/1 214/1/1
f 220/1/1 214/1/1 219/1/1
f 222/1/1 223/1/1 224/1/1
f 224/1/1 223/1/1 221/1/1 220/1/1
f 225/1/27 204/1/27 202/1/27 211/1/27
f 225/1/27 211/1/27 210/1/27
f 202/1/28 201/1/28 212/1/28
f 202/1/28 212/1/28 211/1/28
f 201/1/29 200/1/29 213/1/29
f 201/1/29 213/1/29 212/1/29
f 200/1/30 199/1/30 214/1/30
f 200/1/30 214/1/30 213/1/30
f 199/1/31 198/1/31 216/1/31
f 199/1/31 216/1/31 214/1/31
f 226/1/32 198/1/32 197/1/32
f 198/1/32 226/1/32 217/1/32 216/1/32
usemtl mat_2
f 227/1/33 228/1/33 229/1/33 230/1/33
f 231/1/33 228/1/33 227/1/33
f 232/1/34 233/1/34 234/1/34
f 233/1/34 232/1/34 235/1/34 236/1/34
f 237/1/22 228/1/22 231/1/22
f 228/1/22 237/1/22 234/1/22 233/1/22
f 238/1/25 229/1/25 236/1/25 235/1/25
f 230/1/25 229/1/25 238/1/25
f 228/1/1 233/1/1 236/1/1
f 228/1/1 236/1/1 229/1/1
f 239/1/22 240/1/22 241/1/22
f 241/1/22 242/1/22 243/1/22
f 243/1/22 244/1/22 239/1/22
f 241/1/22 243/1/22 239/1/22
f 245/1/25 246/1/25 247/1/25
f 247/1/25 248/1/25 249/1/25
f 249/1/25 250/1/25 245/1/25
f 247/1/25 249/1/25 245/1/25
f 239/1/35 244/1/35 247/1/35
f 239/1/35 247/1/35 246/1/35
f 244/1/1 243/1/1 248/1/1
f 244/1/1 248/1/1 247/1/1
f 243/1/36 242/1/36 249/1/36
f 243/1/36 249/1/36 248/1/36
f 242/1/37 241/1/37 250/1/37
f 242/1/37 250/1/37 249/1/37
f 241/1/14 240/1/14 245/1/14
f 241/1/14 245/1/14 250/1/14
f 240/1/38 239/1/38 246/1/38
f 240/1/38 246/1/38 245/1/38
f 251/1/22 252/1/22 253/1/22
f 253/1/22 254/1/22 255/1/22
f 255/1/22 256/1/22 251/1/22
f 253/1/22 255/1/22 251/1/22
f 257/1/25 258/1/25 259/1/25
f 259/1/25 260/1/25 261/1/25
f 261/1/25 262/1/25 257/1/25
f 259/1/25 261/1/25 257/1/25
f 251/1/35 256/1/35 259/1/35
f 251/1/35 259/1/35 258/1/35
f 256/1/1 255/1/1 260/1/1
f 256/1/1 260/1/1 259/1/1
f 255/1/36 254/1/36 261/1/36
f 255/1/36 261/1/36 260/1/36
f 254/1/37 253/1/37 262/1/37
f 254/1/37 262/1/37 261/1/37
f 253/1/14 252/1/14 257/1/14
f 253/1/14 257/1/14 262/1/14
f 252/1/38 251/1/38 258/1/38
f 252/1/38 258/1/38 257/1/38
f 263/1/39 264/1/39 265/1/39
f 264/1/39 263/1/39 266/1/39 267/1/39
f 268/1/40 269/1/40 270/1/40 271/1/40
f 268/1/40 271/1/40 272/1/40
f 270/1/41 273/1/41 274/1/41
f 270/1/41 274/1/41 271/1/41
f 273/1/42 275/1/42 276/1/42
f 273/1/42 276/1/42 274/1/42
f 275/1/43 277/1/43 278/1/43
f 275/1/43 278/1/43 276/1/43
f 277/1/44 264/1/44 267/1/44
f 277/1/44 267/1/44 278/1/44
f 279/1/14 267/1/14 266/1/14
f 267/1/14 279/1/14 280/1/14 281/1/14
f 282/1/14 283/1/14 284/1/14
f 282/1/14 284/1/14 285/1/14
f 286/1/14 272/1/14 271/1/14 287/1/14
f 283/1/14 286/1/14 287/1/14 284/1/14
f 271/1/14 274/1/14 288/1/14
f 271/1/14 288/1/14 287/1/14
f 274/1/14 276/1/14 289/1/14
f 274/1/14 289/1/14 288/1/14
f 276/1/14 278/1/14 290/1/14
f 276/1/14 290/1/14 289/1/14
f 278/1/14 267/1/14 281/1/14
f 278/1/14 281/1/14 290/1/14
f 291/1/45 281/1/45 280/1/45
f 281/1/45 291/1/45 292/1/45 293/1/45
f 294/1/46 285/1/46 284/1/46 295/1/46
f 294/1/46 295/1/46 296/1/46
f 284/1/47 287/1/47 297/1/47
f 284/1/47 297/1/47 295/1/47
f 287/1/48 288/1/48 298/1/48
f 287/1/48 298/1/48 297/1/48
f 288/1/49 289/1/49 299/1/49
f 288/1/49 299/1/49 298/1/49
f 289/1/50 290/1/50 300/1/50
f 289/1/50 300/1/50 299/1/50
f 290/1/51 281/1/51 293/1/51
f 290/1/51 293/1/51 300/1/51
f 301/1/1 293/1/1 292/1/1
f 293/1/1 301/1/1 265/1/1 264/1/1
f 296/1/1 295/1/1 302/1/1
f 295/1/1 297/1/1 270/1/1
f 302/1/1 295/1/1 270/1/1 269/1/1
f 297/1/1 298/1/1 273/1/1
f 297/1/1 273/1/1 270/1/1
f 298/1/1 299/1/1 275/1/1
f 298/1/1 275/1/1 273/1/1
f 299/1/1 300/1/1 277/1/1
f 299/1/1 277/1/1 275/1/1
f 300/1/1 293/1/1 264/1/1
f 300/1/1 264/1/1 277/1/1
f 303/1/39 304/1/39 305/1/39
f 304/1/39 303/1/39 306/1/39 307/1/39
f 308/1/40 309/1/40 310/1/40 311/1/40
f 308/1/40 311/1/40 312/1/40
f 310/1/41 313/1/41 314/1/41
f 310/1/41 314/1/41 311/1/41
f 313/1/42 315/1/42 316/1/42
f 313/1/42 316/1/42 314/1/42
f 315/1/43 317/1/43 318/1/43
f 315/1/43 318/1/43 316/1/43
f 317/1/44 304/1/44 307/1/44
f 317/1/44 307/1/44 318/1/44
f 319/1/14 307/1/14 306/1/14
f 307/1/14 319/1/14 320/1/14 321/1/14
f 322/1/14 323/1/14 324/1/14
f 322/1/14 324/1/14 325/1/14
f 326/1/14 312/1/14 311/1/14 327/1/14
f 323/1/14 326/1/14 327/1/14 324/1/14
f 311/1/14 314/1/14 328/1/14
f 311/1/14 328/1/14 327/1/14
f 314/1/14 316/1/14 329/1/14
f 314/1/14 329/1/14 328/1/14
f 316/1/14 318/1/14 330/1/14
f 316/1/14 330/1/14 329/1/14
f 318/1/14 307/1/14 321/1/14
f 318/1/14 321/1/14 330/1/14
f 331/1/45 321/1/45 320/1/45
f 321/1/45 331/1/45 332/1/45 333/1/45
f 334/1/46 325/1/46 324/1/46 335/1/46
f 334/1/46 335/1/46 336/1/46
f 324/1/47 327/1/47 337/1/47
f 324/1/47 337/1/47 335/1/47
f 327/1/48 328/1/48 338/1/48
f 327/1/48 338/1/48 337/1/48
f 328/1/49 329/1/49 339/1/49
f 328/1/49 339/1/49 338/1/49
f 329/1/50 330/1/50 340/1/50
f 329/1/50 340/1/50 339/1/50
f 330/1/51 321/1/51 333/1/51
f 330/1/51 333/1/51 340/1/51
f 341/1/1 333/1/1 332/1/1
f 333/1/1 341/1/1 305/1/1 304/1/1
f 336/1/1 335/1/1 342/1/1
f 335/1/1 337/1/1 310/1/1
f 342/1/1 335/1/1 310/1/1 309/1/1
f 337/1/1 338/1/1 313/1/1
f 337/1/1 313/1/1 310/1/1
f 338/1/1 339/1/1 315/1/1
f 338/1/1 315/1/1 313/1/1
f 339/1/1 340/1/1 317/1/1
f 339/1/1 317/1/1 315/1/1
f 340/1/1 333/1/1 304/1/1
f 340/1/1 304/1/1 317/1/1
f 343/1/33 344/1/33 345/1/33
f 343/1/33 345/1/33 346/1/33
f 347/1/22 343/1/22 346/1/22 348/1/22
f 349/1/22 343/1/22 347/1/22
f 350/1/25 344/1/25 351/1/25
f 344/1/25 350/1/25 352/1/25 345/1/25
f 353/1/1 343/1/1 349/1/1
f 343/1/1 353/1/1 351/1/1 344/1/1
f 354/1/14 346/1/14 345/1/14 352/1/14
f 348/1/14 346/1/14 354/1/14
f 355/1/33 356/1/33 357/1/33
f 355/1/33 357/1/33 358/1/33
f 359/1/22 355/1/22 358/1/22 360/1/22
f 361/1/22 355/1/22 359/1/22
f 362/1/25 356/1/25 363/1/25
f 356/1/25 362/1/25 364/1/25 357/1/25
f 365/1/1 355/1/1 361/1/1
f 355/1/1 365/1/1 363/1/1 356/1/1
f 366/1/14 358/1/14 357/1/14 364/1/14
f 360/1/14 358/1/14 366/1/14
f 367/1/33 368/1/33 369/1/33
f 367/1/33 369/1/33 370/1/33
f 371/1/22 367/1/22 370/1/22 372/1/22
f 373/1/22 367/1/22 371/1/22
f 374/1/25 368/1/25 375/1/25
f 368/1/25 374/1/25 376/1/25 369/1/25
f 377/1/1 367/1/1 373/1/1
f 367/1/1 377/1/1 375/1/1 368/1/1
f 378/1/14 370/1/14 369/1/14 376/1/14
f 372/1/14 370/1/14 378/1/14
f 379/1/33 380/1/33 381/1/33
f 379/1/33 381/1/33 382/1/33
f 383/1/22 379/1/22 382/1/22 384/1/22
f 385/1/22 379/1/22 383/1/22
f 386/1/25 380/1/25 387/1/25
f 380/1/25 386/1/25 388/1/25 381/1/25
f 389/1/1 379/1/1 385/1/1
f 379/1/1 389/1/1 387/1/1 380/1/1
f 390/1/14 382/1/14 381/1/14 388/1/14
f 384/1/14 382/1/14 390/1/14
f 391/1/33 392/1/33 393/1/33
f 391/1/33 393/1/33 394/1/33
f 395/1/22 391/1/22 394/1/22 396/1/22
f 397/1/22 391/1/22 395/1/22
f 398/1/25 392/1/25 399/1/25
f 392/1/25 398/1/25 400/1/25 393/1/25
f 401/1/1 391/1/1 397/1/1
f 391/1/1 401/1/1 399/1/1 392/1/1
f 402/1/14 394/1/14 393/1/14 400/1/14
f 396/1/14 394/1/14 402/1/14
f 403/1/33 404/1/33 405/1/33
f 403/1/33 405/1/33 406/1/33
f 407/1/22 403/1/22 406/1/22 408/1/22
f 409/1/22 403/1/22 407/1/22
f 410/1/25 404/1/25 411/1/25
f 404/1/25 410/1/25 412/1/25 405/1/25
f 413/1/1 403/1/1 409/1/1
f 403/1/1 413/1/1 411/1/1 404/1/1
f 414/1/14 406/1/14 405/1/14 412/1/14
f 408/1/14 406/1/14 414/1/14
f 415/1/33 416/1/33 417/1/33
f 415/1/33 417/1/33 418/1/33
f 419/1/22 415/1/22 418/1/22 420/1/22
f 421/1/22 415/1/22 419/1/22
f 422/1/25 416/1/25 423/1/25
f 416/1/25 422/1/25 424/1/25 417/1/25
f 425/1/1 415/1/1 421/1/1
f 415/1/1 425/1/1 423/1/1 416/1/1
f 426/1/14 418/1/14 417/1/14 424/1/14
f 420/1/14 418/1/14 426/1/14
f 427/1/33 428/1/33 429/1/33
f 427/1/33 429/1/33 430/1/33
f 431/1/22 427/1/22 430/1/22 432/1/22
f 433/1/22 427/1/22 431/1/22
f 434/1/25 428/1/25 435/1/25
f 428/1/25 434/1/25 436/1/25 429/1/25
f 437/1/1 427/1/1 433/1/1
f 427/1/1 437/1/1 435/1/1 428/1/1
f 438/1/14 430/1/14 429/1/14 436/1/14
f 432/1/14 430/1/14 438/1/14
f 439/1/33 440/1/33 441/1/33
f 439/1/33 441/1/33 442/1/33
f 443/1/22 439/1/22 442/1/22 444/1/22
f 445/1/22 439/1/22 443/1/22
f 446/1/25 440/1/25 447/1/25
f 440/1/25 446/1/25 448/1/25 441/1/25
f 449/1/1 439/1/1 445/1/1
f 439/1/1 449/1/1 447/1/1 440/1/1
f 450/1/14 442/1/14 441/1/14 448/1/14
f 444/1/14 442/1/14 450/1/14
f 451/1/33 452/1/33 453/1/33
f 451/1/33 453/1/33 454/1/33
f 455/1/22 451/1/22 454/1/22 456/1/22
f 457/1/22 451/1/22 455/1/22
f 458/1/25 452/1/25 459/1/25
f 452/1/25 458/1/25 460/1/25 453/1/25
f 461/1/1 451/1/1 457/1/1
f 451/1/1 461/1/1 459/1/1 452/1/1
f 462/1/14 454/1/14 453/1/14 460/1/14
f 456/1/14 454/1/14 462/1/14
