# Authored in Blender; exported by tools-export-modern.py
mtllib materials.mtl
s off
v 1.000000000 0.000000000 0.960000038
v 0.909999847 0.000000000 0.960000038
v 0.909999847 0.990000010 0.960000038
v 1.000000000 0.990000010 0.960000038
v 0.920370216 0.990000010 1.000000000
v 0.909999847 0.990000010 1.000000000
v 1.000000000 0.990000010 1.000000000
v 0.909999847 0.000000000 1.000000000
v 0.929944527 0.719584670 1.000000000
v 0.869999886 0.719584670 1.000000000
v 0.869999886 0.768879414 0.959544778
v 0.989999771 0.768879414 0.959544778
v 0.989999771 0.719584670 1.000000000
v 0.869999886 0.881255865 0.899478316
v 0.989999771 0.881255865 0.899478316
v 0.986858964 1.000000000 0.863457703
v 0.869999886 1.000000000 0.863457703
v 0.989999771 1.000000000 0.863457703
v 0.989999771 0.795910732 1.000000000
v 0.989999771 0.800852962 1.000000000
v 0.989999771 0.922893328 1.000000000
v 0.989999771 1.000000000 1.000000000
v 0.989999771 0.932630919 1.000000000
v 0.869999886 0.791469750 1.000000000
v 0.869999886 0.795910732 1.000000000
v 0.869999886 0.913779940 1.000000000
v 0.869999886 0.922893328 1.000000000
v 0.869999886 1.000000000 1.000000000
v 0.862717723 0.760371337 1.000000000
v 0.839999676 0.760371337 1.000000000
v 0.839999676 0.783324242 0.981163025
v 0.869999886 0.783324242 0.981163025
v 0.869999886 0.760371337 1.000000000
v 0.839999676 0.891205668 0.923499107
v 0.869999886 0.891205668 0.923499107
v 0.867881994 1.000000000 0.890496796
v 0.839999676 1.000000000 0.890496796
v 0.869999886 1.000000000 0.890496796
v 0.869999886 0.795910709 1.000000000
v 0.869999886 0.798356849 1.000000000
v 0.869999886 0.922893378 1.000000000
v 0.869999886 0.930760321 1.000000000
v 0.839999676 0.793726609 1.000000000
v 0.839999676 0.795910709 1.000000000
v 0.839999676 0.915559670 1.000000000
v 0.839999676 0.922893378 1.000000000
v 0.839999676 1.000000000 1.000000000
v 0.789999962 0.871895490 1.000000000
v 0.789999962 0.857000113 0.991400123
v 0.789999962 0.842104735 1.000000000
v 1.000000000 0.853706494 0.993301700
v 0.911938936 0.842104735 1.000000000
v 1.000000000 0.857000113 0.991400123
v 1.000000000 0.842104735 1.000000000
v 0.903060645 0.871895490 1.000000000
v 1.000000000 0.871895490 1.000000000
v 0.909999847 0.894767812 1.000000000
v 0.909999847 0.894858349 1.000000000
v 0.909999847 0.894694567 0.999774575
v 0.909999847 0.879999995 0.995000005
v 0.909999847 0.865305424 0.999774575
v 0.909999847 0.865232178 1.000000000
v 0.909999847 0.865141641 1.000000000
v 0.909999847 0.894621322 1.000000000
v 0.909999847 0.894384297 1.000000000
v 1.000000000 0.865141641 1.000000000
v 1.000000000 0.865305424 0.999774575
v 1.000000000 0.866426198 0.999410413
v 1.000000000 0.879999995 0.995000005
v 1.000000000 0.881120769 0.995364167
v 1.000000000 0.894694567 0.999774575
v 0.931280073 0.894858349 1.000000000
v 1.000000000 0.894858349 1.000000000
vt 0.500000000 0.500000000
vn 0.000000000 0.000000000 -1.000000000
vn 0.000000000 1.000000000 0.000000000
vn -1.000000000 0.000000000 0.000000000
vn 0.000000000 -0.634393954 -0.773009904
vn 0.000000000 -0.471396717 -0.881921275
vn 0.000000000 -0.290284487 -0.956940393
vn 1.000000000 -0.000000000 0.000000000
vn 0.000000000 -0.634393548 -0.773010237
vn 0.000000000 -0.471397332 -0.881920946
vn 0.000000000 -0.290283970 -0.956940550
vn 0.000000000 -0.500001188 -0.866024718
vn 0.000000000 0.500001188 -0.866024718
vn 0.000000000 -0.809013582 -0.587789949
vn 0.000000000 -0.309017858 -0.951056236
vn 0.000000000 0.309017858 -0.951056236
vn 0.000000000 0.809013582 -0.587789949
usemtl mat_0
f 1/1/1 2/1/1 3/1/1 4/1/1
f 5/1/2 3/1/2 6/1/2
f 7/1/2 4/1/2 3/1/2 5/1/2
f 2/1/3 8/1/3 6/1/3 3/1/3
f 9/1/4 10/1/4 11/1/4 12/1/4
f 9/1/4 12/1/4 13/1/4
f 11/1/5 14/1/5 15/1/5
f 11/1/5 15/1/5 12/1/5
f 16/1/6 14/1/6 17/1/6
f 14/1/6 16/1/6 18/1/6 15/1/6
f 13/1/7 12/1/7 19/1/7
f 20/1/7 12/1/7 15/1/7 21/1/7
f 19/1/7 12/1/7 20/1/7
f 22/1/7 23/1/7 15/1/7 18/1/7
f 21/1/7 15/1/7 23/1/7
f 24/1/3 25/1/3 11/1/3
f 24/1/3 11/1/3 10/1/3
f 26/1/3 27/1/3 14/1/3
f 25/1/3 26/1/3 14/1/3 11/1/3
f 27/1/3 28/1/3 17/1/3 14/1/3
usemtl mat_1
f 29/1/8 30/1/8 31/1/8 32/1/8
f 29/1/8 32/1/8 33/1/8
f 31/1/9 34/1/9 35/1/9
f 31/1/9 35/1/9 32/1/9
f 36/1/10 34/1/10 37/1/10
f 34/1/10 36/1/10 38/1/10 35/1/10
f 33/1/7 32/1/7 39/1/7
f 40/1/7 32/1/7 35/1/7 41/1/7
f 39/1/7 32/1/7 40/1/7
f 28/1/7 42/1/7 35/1/7 38/1/7
f 41/1/7 35/1/7 42/1/7
f 43/1/3 44/1/3 31/1/3
f 43/1/3 31/1/3 30/1/3
f 45/1/3 46/1/3 34/1/3
f 44/1/3 45/1/3 34/1/3 31/1/3
f 46/1/3 47/1/3 37/1/3 34/1/3
usemtl mat_2
f 48/1/3 49/1/3 50/1/3
f 51/1/11 52/1/11 50/1/11
f 51/1/11 50/1/11 49/1/11
f 51/1/11 49/1/11 53/1/11
f 54/1/11 52/1/11 51/1/11
f 55/1/12 49/1/12 48/1/12
f 56/1/12 53/1/12 49/1/12 55/1/12
f 57/1/3 58/1/3 59/1/3
f 59/1/3 60/1/3 61/1/3
f 62/1/3 61/1/3 63/1/3
f 64/1/3 57/1/3 59/1/3
f 65/1/3 59/1/3 61/1/3 62/1/3
f 64/1/3 59/1/3 65/1/3
f 66/1/13 63/1/13 61/1/13 67/1/13
f 68/1/14 61/1/14 60/1/14 69/1/14
f 67/1/14 61/1/14 68/1/14
f 70/1/15 60/1/15 59/1/15 71/1/15
f 69/1/15 60/1/15 70/1/15
f 72/1/16 59/1/16 58/1/16
f 73/1/16 71/1/16 59/1/16 72/1/16
