# Authored in Blender; exported by tools-export-modern.py
mtllib materials.mtl
s off
v 0.787660785 0.000000000 0.510000229
v 0.710000038 0.000000000 0.510000229
v 0.710000038 0.049999952 0.510000229
v 0.789999962 0.049999952 0.510000229
v 0.789999962 0.000000000 0.510000229
v 0.787660785 0.000000000 0.590000153
v 0.789999962 0.000000000 0.590000153
v 0.789999962 0.049999952 0.590000153
v 0.710000038 0.000000000 0.590000153
v 0.710000038 0.049999952 0.590000153
v 0.710000038 0.000000000 0.587660976
v 0.789999962 0.000000000 0.587660976
v 0.049999952 0.000000000 0.599999905
v 0.099999905 0.000000000 0.599999905
v 0.099999905 0.069999933 0.599999905
v 0.049999952 0.069999933 0.599999905
v 0.064705822 0.000000000 0.000000000
v 0.099999905 0.000000000 0.000000000
v 0.049999952 0.000000000 0.000000000
v 0.064705822 0.069999933 0.000000000
v 0.049999952 0.069999933 0.000000000
v 0.099999905 0.069999933 0.000000000
v 0.049999952 0.020588218 0.000000000
v 0.099999905 0.020588218 0.000000000
v 0.150000095 0.000000000 0.599999905
v 0.200000048 0.000000000 0.599999905
v 0.200000048 0.069999933 0.599999905
v 0.150000095 0.069999933 0.599999905
v 0.164705965 0.000000000 0.000000000
v 0.200000048 0.000000000 0.000000000
v 0.150000095 0.000000000 0.000000000
v 0.164705965 0.069999933 0.000000000
v 0.150000095 0.069999933 0.000000000
v 0.200000048 0.069999933 0.000000000
v 0.150000095 0.020588218 0.000000000
v 0.200000048 0.020588218 0.000000000
v 0.250000000 0.000000000 0.599999905
v 0.299999952 0.000000000 0.599999905
v 0.299999952 0.069999933 0.599999905
v 0.250000000 0.069999933 0.599999905
v 0.264705870 0.000000000 0.000000000
v 0.299999952 0.000000000 0.000000000
v 0.250000000 0.000000000 0.000000000
v 0.264705870 0.069999933 0.000000000
v 0.250000000 0.069999933 0.000000000
v 0.299999952 0.069999933 0.000000000
v 0.250000000 0.020588218 0.000000000
v 0.299999952 0.020588218 0.000000000
v 0.349999905 0.000000000 0.599999905
v 0.400000095 0.000000000 0.599999905
v 0.400000095 0.069999933 0.599999905
v 0.349999905 0.069999933 0.599999905
v 0.364705845 0.000000000 0.000000000
v 0.400000095 0.000000000 0.000000000
v 0.349999905 0.000000000 0.000000000
v 0.364705845 0.069999933 0.000000000
v 0.349999905 0.069999933 0.000000000
v 0.400000095 0.069999933 0.000000000
v 0.349999905 0.020588218 0.000000000
v 0.400000095 0.020588218 0.000000000
v 0.450000048 0.000000000 0.599999905
v 0.500000000 0.000000000 0.599999905
v 0.500000000 0.069999933 0.599999905
v 0.450000048 0.069999933 0.599999905
v 0.464705918 0.000000000 0.000000000
v 0.500000000 0.000000000 0.000000000
v 0.450000048 0.000000000 0.000000000
v 0.464705918 0.069999933 0.000000000
v 0.450000048 0.069999933 0.000000000
v 0.500000000 0.069999933 0.000000000
v 0.450000048 0.020588218 0.000000000
v 0.500000000 0.020588218 0.000000000
v 0.549999952 0.000000000 0.599999905
v 0.599999905 0.000000000 0.599999905
v 0.599999905 0.069999933 0.599999905
v 0.549999952 0.069999933 0.599999905
v 0.564705822 0.000000000 0.000000000
v 0.599999905 0.000000000 0.000000000
v 0.549999952 0.000000000 0.000000000
v 0.564705822 0.069999933 0.000000000
v 0.549999952 0.069999933 0.000000000
v 0.599999905 0.069999933 0.000000000
v 0.549999952 0.020588218 0.000000000
v 0.599999905 0.020588218 0.000000000
v 0.650000095 0.000000000 0.599999905
v 0.700000048 0.000000000 0.599999905
v 0.700000048 0.069999933 0.599999905
v 0.650000095 0.069999933 0.599999905
v 0.664705965 0.000000000 0.000000000
v 0.700000048 0.000000000 0.000000000
v 0.650000095 0.000000000 0.000000000
v 0.664705965 0.069999933 0.000000000
v 0.650000095 0.069999933 0.000000000
v 0.700000048 0.069999933 0.000000000
v 0.650000095 0.020588218 0.000000000
v 0.700000048 0.020588218 0.000000000
v 0.750000000 0.000000000 0.599999905
v 0.799999952 0.000000000 0.599999905
v 0.799999952 0.069999933 0.599999905
v 0.750000000 0.069999933 0.599999905
v 0.764705870 0.000000000 0.000000000
v 0.799999952 0.000000000 0.000000000
v 0.750000000 0.000000000 0.000000000
v 0.764705870 0.069999933 0.000000000
v 0.750000000 0.069999933 0.000000000
v 0.799999952 0.069999933 0.000000000
v 0.750000000 0.020588218 0.000000000
v 0.799999952 0.020588218 0.000000000
v 0.739623330 1.000000000 0.542064392
v 0.750000000 0.059999943 0.539999962
v 0.738519430 0.059999943 0.542284012
v 0.738519430 1.000000000 0.542284012
v 0.750000000 1.000000000 0.539999962
v 0.729722545 1.000000000 0.548161819
v 0.728786707 0.059999943 0.548787117
v 0.728786707 1.000000000 0.548787117
v 0.722908900 1.000000000 0.557584002
v 0.722283602 0.059999943 0.558519840
v 0.722283602 1.000000000 0.558519840
v 0.720219603 1.000000000 0.568896295
v 0.720000029 0.059999943 0.570000172
v 0.720000029 1.000000000 0.570000172
v 0.722064028 1.000000000 0.580376626
v 0.722283602 0.059999943 0.581480503
v 0.722283602 1.000000000 0.581480503
v 0.728161409 1.000000000 0.590277388
v 0.728786707 0.059999943 0.591213226
v 0.728786707 1.000000000 0.591213226
v 0.737583592 1.000000000 0.597091033
v 0.738519430 0.059999943 0.597716331
v 0.738519430 1.000000000 0.597716331
v 0.748896100 1.000000000 0.599780761
v 0.750000000 0.059999943 0.600000381
v 0.750000000 1.000000000 0.600000381
v 0.760376670 1.000000000 0.597935951
v 0.761480570 0.059999943 0.597716331
v 0.761480570 1.000000000 0.597716331
v 0.770277455 1.000000000 0.591838524
v 0.771213293 0.059999943 0.591213226
v 0.771213293 1.000000000 0.591213226
v 0.777091100 1.000000000 0.582416341
v 0.777716398 0.059999943 0.581480503
v 0.777716398 1.000000000 0.581480503
v 0.779780397 1.000000000 0.571104049
v 0.779999971 0.059999943 0.570000172
v 0.779999971 1.000000000 0.570000172
v 0.777935972 1.000000000 0.559623717
v 0.777716398 0.059999943 0.558519840
v 0.777716398 1.000000000 0.558519840
v 0.771838591 1.000000000 0.549722955
v 0.771213293 0.059999943 0.548787117
v 0.771213293 1.000000000 0.548787117
v 0.762416408 1.000000000 0.542909310
v 0.761480570 0.059999943 0.542284012
v 0.761480570 1.000000000 0.542284012
v 0.751103900 1.000000000 0.540219582
v 0.000000000 0.550495667 0.600109855
v 0.000000000 0.547754049 0.599564552
v 0.750000000 0.547754049 0.599564552
v 0.000000000 0.559999943 0.602000237
v 0.750000000 0.559999943 0.602000237
v 0.000000000 0.539696797 0.594180591
v 0.000000000 0.537372589 0.592627525
v 0.750000000 0.537372589 0.592627525
v 0.000000000 0.531988813 0.584570088
v 0.000000000 0.530435801 0.582245827
v 0.750000000 0.530435801 0.582245827
v 0.000000000 0.528545234 0.572741736
v 0.000000000 0.527999878 0.570000172
v 0.750000000 0.527999878 0.570000172
v 0.000000000 0.529890445 0.560496081
v 0.000000000 0.530435801 0.557754517
v 0.750000000 0.530435801 0.557754517
v 0.000000000 0.535819577 0.549697079
v 0.000000000 0.537372589 0.547372818
v 0.750000000 0.537372589 0.547372818
v 0.000000000 0.545429842 0.541988857
v 0.000000000 0.547754049 0.540435791
v 0.750000000 0.547754049 0.540435791
v 0.000000000 0.557258325 0.538545409
v 0.000000000 0.559999943 0.538000107
v 0.750000000 0.559999943 0.538000107
v 0.000000000 0.569504218 0.539890489
v 0.000000000 0.572245836 0.540435791
v 0.750000000 0.572245836 0.540435791
v 0.000000000 0.580303089 0.545819752
v 0.000000000 0.582627296 0.547372818
v 0.750000000 0.582627296 0.547372818
v 0.000000000 0.588011073 0.555430256
v 0.000000000 0.589564085 0.557754517
v 0.750000000 0.589564085 0.557754517
v 0.000000000 0.591454652 0.567258607
v 0.000000000 0.592000008 0.570000172
v 0.750000000 0.592000008 0.570000172
v 0.000000000 0.590109441 0.579504262
v 0.000000000 0.589564085 0.582245827
v 0.750000000 0.589564085 0.582245827
v 0.000000000 0.584180309 0.590303264
v 0.000000000 0.582627296 0.592627525
v 0.750000000 0.582627296 0.592627525
v 0.000000000 0.574570044 0.598011487
v 0.000000000 0.572245836 0.599564552
v 0.750000000 0.572245836 0.599564552
v 0.000000000 0.562741561 0.601454934
v 0.090658408 0.000000000 0.723858320
v 0.089284658 0.000000000 0.724131584
v 0.089284658 0.250000000 0.724131584
v 0.099999905 0.000000000 0.722000122
v 0.099999905 0.250000000 0.722000122
v 0.081365494 0.000000000 0.729423083
v 0.080200911 0.000000000 0.730201244
v 0.080200911 0.250000000 0.730201244
v 0.074909412 0.000000000 0.738120409
v 0.074131250 0.000000000 0.739284992
v 0.074131250 0.250000000 0.739284992
v 0.072273053 0.000000000 0.748626281
v 0.071999788 0.000000000 0.750000000
v 0.071999788 0.250000000 0.750000000
v 0.073857986 0.000000000 0.759341289
v 0.074131250 0.000000000 0.760715008
v 0.074131250 0.250000000 0.760715008
v 0.079422749 0.000000000 0.768634173
v 0.080200911 0.000000000 0.769798756
v 0.080200911 0.250000000 0.769798756
v 0.088120075 0.000000000 0.775090254
v 0.089284658 0.000000000 0.775868416
v 0.089284658 0.250000000 0.775868416
v 0.098626155 0.000000000 0.777726614
v 0.099999905 0.000000000 0.777999878
v 0.099999905 0.250000000 0.777999878
v 0.109341401 0.000000000 0.776141680
v 0.110715151 0.000000000 0.775868416
v 0.110715151 0.250000000 0.775868416
v 0.118634316 0.000000000 0.770576917
v 0.119798899 0.000000000 0.769798756
v 0.119798899 0.250000000 0.769798756
v 0.125090397 0.000000000 0.761879591
v 0.125868559 0.000000000 0.760715008
v 0.125868559 0.250000000 0.760715008
v 0.127726757 0.000000000 0.751373719
v 0.128000021 0.000000000 0.750000000
v 0.128000021 0.250000000 0.750000000
v 0.126141823 0.000000000 0.740658711
v 0.125868559 0.000000000 0.739284992
v 0.125868559 0.250000000 0.739284992
v 0.120577060 0.000000000 0.731365827
v 0.119798899 0.000000000 0.730201244
v 0.119798899 0.250000000 0.730201244
v 0.111879734 0.000000000 0.724909746
v 0.110715151 0.000000000 0.724131584
v 0.110715151 0.250000000 0.724131584
v 0.101373654 0.000000000 0.722273386
v 0.610658389 0.000000000 0.723858320
v 0.609284639 0.000000000 0.724131584
v 0.609284639 0.250000000 0.724131584
v 0.619999886 0.000000000 0.722000122
v 0.619999886 0.250000000 0.722000122
v 0.601365475 0.000000000 0.729423083
v 0.600200891 0.000000000 0.730201244
v 0.600200891 0.250000000 0.730201244
v 0.594909393 0.000000000 0.738120409
v 0.594131231 0.000000000 0.739284992
v 0.594131231 0.250000000 0.739284992
v 0.592273034 0.000000000 0.748626281
v 0.591999769 0.000000000 0.750000000
v 0.591999769 0.250000000 0.750000000
v 0.593857967 0.000000000 0.759341289
v 0.594131231 0.000000000 0.760715008
v 0.594131231 0.250000000 0.760715008
v 0.599422730 0.000000000 0.768634173
v 0.600200891 0.000000000 0.769798756
v 0.600200891 0.250000000 0.769798756
v 0.608120056 0.000000000 0.775090254
v 0.609284639 0.000000000 0.775868416
v 0.609284639 0.250000000 0.775868416
v 0.618626136 0.000000000 0.777726614
v 0.619999886 0.000000000 0.777999878
v 0.619999886 0.250000000 0.777999878
v 0.629341382 0.000000000 0.776141680
v 0.630715132 0.000000000 0.775868416
v 0.630715132 0.250000000 0.775868416
v 0.638634297 0.000000000 0.770576917
v 0.639798880 0.000000000 0.769798756
v 0.639798880 0.250000000 0.769798756
v 0.645090378 0.000000000 0.761879591
v 0.645868540 0.000000000 0.760715008
v 0.645868540 0.250000000 0.760715008
v 0.647726738 0.000000000 0.751373719
v 0.648000002 0.000000000 0.750000000
v 0.648000002 0.250000000 0.750000000
v 0.646141804 0.000000000 0.740658711
v 0.645868540 0.000000000 0.739284992
v 0.645868540 0.250000000 0.739284992
v 0.640577041 0.000000000 0.731365827
v 0.639798880 0.000000000 0.730201244
v 0.639798880 0.250000000 0.730201244
v 0.631879715 0.000000000 0.724909746
v 0.630715132 0.000000000 0.724131584
v 0.630715132 0.250000000 0.724131584
v 0.621373635 0.000000000 0.722273386
v 0.322830894 0.000000000 0.735797747
v 0.099999905 0.000000000 0.735797747
v 0.099999905 0.003097057 0.740432739
v 0.619999886 0.003097057 0.740432739
v 0.619999886 0.000000000 0.735797747
v 0.099999905 0.005000114 0.750000000
v 0.619999886 0.005000114 0.750000000
v 0.099999905 0.003097057 0.759567261
v 0.619999886 0.003097057 0.759567261
v 0.397168896 0.000000000 0.764202253
v 0.099999905 0.000000000 0.764202253
v 0.619999886 0.000000000 0.764202253
v 0.099999905 0.000000000 0.762071257
v 0.099999905 0.000000000 0.737928743
v 0.099999905 0.000000000 0.755000114
v 0.099999905 0.000000000 0.744999886
v 0.619999886 0.000000000 0.737335709
v 0.619999886 0.000000000 0.762664291
v 0.619999886 0.000000000 0.739149912
v 0.619999886 0.000000000 0.747909752
vt 0.500000000 0.500000000
vn 0.000000000 0.000000000 -1.000000000
vn 0.000000000 0.000000000 1.000000000
vn 0.000000000 1.000000000 0.000000000
vn -1.000000000 0.000000000 0.000000000
vn 1.000000000 0.000000000 0.000000000
vn 0.000000000 -1.000000000 0.000000000
vn -0.195125055 0.000000000 -0.980778371
vn -0.555564764 0.000000000 -0.831473266
vn -0.831473266 0.000000000 -0.555564764
vn -0.980785391 0.000000000 -0.195089767
vn -0.980785391 0.000000000 0.195089767
vn -0.831473266 0.000000000 0.555564764
vn -0.555564764 0.000000000 0.831473266
vn -0.195125055 0.000000000 0.980778371
vn 0.195125055 0.000000000 0.980778371
vn 0.555564764 0.000000000 0.831473266
vn 0.831473266 0.000000000 0.555564764
vn 0.980785391 0.000000000 0.195089767
vn 0.980785391 0.000000000 -0.195089767
vn 0.831473266 0.000000000 -0.555564764
vn 0.555564764 0.000000000 -0.831473266
vn 0.195125055 0.000000000 -0.980778371
vn 0.000000000 -0.195076804 0.980787969
vn 0.000000000 -0.555590003 0.831456402
vn 0.000000000 -0.831471117 0.555567981
vn 0.000000000 -0.980783589 0.195098826
vn 0.000000000 -0.980783589 -0.195098826
vn 0.000000000 -0.831471117 -0.555567981
vn 0.000000000 -0.555590003 -0.831456402
vn 0.000000000 -0.195076804 -0.980787969
vn 0.000000000 0.195076804 -0.980787969
vn 0.000000000 0.555590003 -0.831456402
vn 0.000000000 0.831471117 -0.555567981
vn 0.000000000 0.980783589 -0.195098826
vn 0.000000000 0.980783589 0.195098826
vn 0.000000000 0.831471117 0.555567981
vn 0.000000000 0.555590003 0.831456402
vn 0.000000000 0.195076804 0.980787969
vn -0.195096231 0.000000000 -0.980784105
vn -0.555576176 0.000000000 -0.831465641
vn -0.831465641 0.000000000 -0.555576176
vn -0.980783274 0.000000000 -0.195100407
vn -0.980783274 0.000000000 0.195100407
vn -0.831465641 0.000000000 0.555576176
vn -0.555576176 0.000000000 0.831465641
vn -0.195096231 0.000000000 0.980784105
vn 0.195096231 0.000000000 0.980784105
vn 0.555576176 0.000000000 0.831465641
vn 0.831465641 0.000000000 0.555576176
vn 0.980783274 0.000000000 0.195100407
vn 0.980783274 0.000000000 -0.195100407
vn 0.831465641 0.000000000 -0.555576176
vn 0.555576176 0.000000000 -0.831465641
vn 0.195096231 0.000000000 -0.980784105
vn 0.000000000 0.831465106 -0.555576977
vn 0.000000000 0.980785072 -0.195091369
vn 0.000000000 0.980785072 0.195091369
vn 0.000000000 0.831465106 0.555576977
usemtl mat_2
f 1/1/1 2/1/1 3/1/1 4/1/1
f 1/1/1 4/1/1 5/1/1
f 6/1/2 7/1/2 8/1/2
f 9/1/2 6/1/2 8/1/2 10/1/2
f 3/1/3 10/1/3 8/1/3
f 3/1/3 8/1/3 4/1/3
f 11/1/4 9/1/4 10/1/4
f 2/1/4 11/1/4 10/1/4 3/1/4
f 12/1/5 5/1/5 4/1/5 8/1/5
f 12/1/5 8/1/5 7/1/5
f 13/1/2 14/1/2 15/1/2
f 13/1/2 15/1/2 16/1/2
f 17/1/6 18/1/6 14/1/6
f 19/1/6 17/1/6 14/1/6 13/1/6
f 20/1/3 21/1/3 16/1/3 15/1/3
f 20/1/3 15/1/3 22/1/3
f 23/1/4 19/1/4 13/1/4 16/1/4
f 23/1/4 16/1/4 21/1/4
f 24/1/5 22/1/5 15/1/5
f 18/1/5 24/1/5 15/1/5 14/1/5
f 25/1/2 26/1/2 27/1/2
f 25/1/2 27/1/2 28/1/2
f 29/1/6 30/1/6 26/1/6
f 31/1/6 29/1/6 26/1/6 25/1/6
f 32/1/3 33/1/3 28/1/3 27/1/3
f 32/1/3 27/1/3 34/1/3
f 35/1/4 31/1/4 25/1/4 28/1/4
f 35/1/4 28/1/4 33/1/4
f 36/1/5 34/1/5 27/1/5
f 30/1/5 36/1/5 27/1/5 26/1/5
f 37/1/2 38/1/2 39/1/2
f 37/1/2 39/1/2 40/1/2
f 41/1/6 42/1/6 38/1/6
f 43/1/6 41/1/6 38/1/6 37/1/6
f 44/1/3 45/1/3 40/1/3 39/1/3
f 44/1/3 39/1/3 46/1/3
f 47/1/4 43/1/4 37/1/4 40/1/4
f 47/1/4 40/1/4 45/1/4
f 48/1/5 46/1/5 39/1/5
f 42/1/5 48/1/5 39/1/5 38/1/5
f 49/1/2 50/1/2 51/1/2
f 49/1/2 51/1/2 52/1/2
f 53/1/6 54/1/6 50/1/6
f 55/1/6 53/1/6 50/1/6 49/1/6
f 56/1/3 57/1/3 52/1/3 51/1/3
f 56/1/3 51/1/3 58/1/3
f 59/1/4 55/1/4 49/1/4 52/1/4
f 59/1/4 52/1/4 57/1/4
f 60/1/5 58/1/5 51/1/5
f 54/1/5 60/1/5 51/1/5 50/1/5
f 61/1/2 62/1/2 63/1/2
f 61/1/2 63/1/2 64/1/2
f 65/1/6 66/1/6 62/1/6
f 67/1/6 65/1/6 62/1/6 61/1/6
f 68/1/3 69/1/3 64/1/3 63/1/3
f 68/1/3 63/1/3 70/1/3
f 71/1/4 67/1/4 61/1/4 64/1/4
f 71/1/4 64/1/4 69/1/4
f 72/1/5 70/1/5 63/1/5
f 66/1/5 72/1/5 63/1/5 62/1/5
f 73/1/2 74/1/2 75/1/2
f 73/1/2 75/1/2 76/1/2
f 77/1/6 78/1/6 74/1/6
f 79/1/6 77/1/6 74/1/6 73/1/6
f 80/1/3 81/1/3 76/1/3 75/1/3
f 80/1/3 75/1/3 82/1/3
f 83/1/4 79/1/4 73/1/4 76/1/4
f 83/1/4 76/1/4 81/1/4
f 84/1/5 82/1/5 75/1/5
f 78/1/5 84/1/5 75/1/5 74/1/5
f 85/1/2 86/1/2 87/1/2
f 85/1/2 87/1/2 88/1/2
f 89/1/6 90/1/6 86/1/6
f 91/1/6 89/1/6 86/1/6 85/1/6
f 92/1/3 93/1/3 88/1/3 87/1/3
f 92/1/3 87/1/3 94/1/3
f 95/1/4 91/1/4 85/1/4 88/1/4
f 95/1/4 88/1/4 93/1/4
f 96/1/5 94/1/5 87/1/5
f 90/1/5 96/1/5 87/1/5 86/1/5
f 97/1/2 98/1/2 99/1/2
f 97/1/2 99/1/2 100/1/2
f 101/1/6 102/1/6 98/1/6
f 103/1/6 101/1/6 98/1/6 97/1/6
f 104/1/3 105/1/3 100/1/3 99/1/3
f 104/1/3 99/1/3 106/1/3
f 107/1/4 103/1/4 97/1/4 100/1/4
f 107/1/4 100/1/4 105/1/4
f 108/1/5 106/1/5 99/1/5
f 102/1/5 108/1/5 99/1/5 98/1/5
f 109/1/7 110/1/7 111/1/7 112/1/7
f 113/1/7 110/1/7 109/1/7
f 114/1/8 111/1/8 115/1/8 116/1/8
f 112/1/8 111/1/8 114/1/8
f 117/1/9 115/1/9 118/1/9 119/1/9
f 116/1/9 115/1/9 117/1/9
f 120/1/10 118/1/10 121/1/10 122/1/10
f 119/1/10 118/1/10 120/1/10
f 123/1/11 121/1/11 124/1/11 125/1/11
f 122/1/11 121/1/11 123/1/11
f 126/1/12 124/1/12 127/1/12 128/1/12
f 125/1/12 124/1/12 126/1/12
f 129/1/13 127/1/13 130/1/13 131/1/13
f 128/1/13 127/1/13 129/1/13
f 132/1/14 130/1/14 133/1/14 134/1/14
f 131/1/14 130/1/14 132/1/14
f 135/1/15 133/1/15 136/1/15 137/1/15
f 134/1/15 133/1/15 135/1/15
f 138/1/16 136/1/16 139/1/16 140/1/16
f 137/1/16 136/1/16 138/1/16
f 141/1/17 139/1/17 142/1/17 143/1/17
f 140/1/17 139/1/17 141/1/17
f 144/1/18 142/1/18 145/1/18 146/1/18
f 143/1/18 142/1/18 144/1/18
f 147/1/19 145/1/19 148/1/19 149/1/19
f 146/1/19 145/1/19 147/1/19
f 150/1/20 148/1/20 151/1/20 152/1/20
f 149/1/20 148/1/20 150/1/20
f 153/1/21 151/1/21 154/1/21 155/1/21
f 152/1/21 151/1/21 153/1/21
f 156/1/22 154/1/22 110/1/22 113/1/22
f 155/1/22 154/1/22 156/1/22
f 110/1/6 154/1/6 151/1/6
f 151/1/6 148/1/6 145/1/6
f 145/1/6 142/1/6 139/1/6
f 139/1/6 136/1/6 133/1/6
f 133/1/6 130/1/6 127/1/6
f 127/1/6 124/1/6 121/1/6
f 121/1/6 118/1/6 115/1/6
f 115/1/6 111/1/6 110/1/6
f 110/1/6 151/1/6 145/1/6
f 145/1/6 139/1/6 133/1/6
f 133/1/6 127/1/6 121/1/6
f 121/1/6 115/1/6 110/1/6
f 110/1/6 145/1/6 133/1/6
f 133/1/6 121/1/6 110/1/6
f 157/1/23 158/1/23 159/1/23
f 160/1/23 157/1/23 159/1/23 161/1/23
f 162/1/24 163/1/24 164/1/24
f 158/1/24 162/1/24 164/1/24 159/1/24
f 165/1/25 166/1/25 167/1/25
f 163/1/25 165/1/25 167/1/25 164/1/25
f 168/1/26 169/1/26 170/1/26
f 166/1/26 168/1/26 170/1/26 167/1/26
f 171/1/27 172/1/27 173/1/27
f 169/1/27 171/1/27 173/1/27 170/1/27
f 174/1/28 175/1/28 176/1/28
f 172/1/28 174/1/28 176/1/28 173/1/28
f 177/1/29 178/1/29 179/1/29
f 175/1/29 177/1/29 179/1/29 176/1/29
f 180/1/30 181/1/30 182/1/30
f 178/1/30 180/1/30 182/1/30 179/1/30
f 183/1/31 184/1/31 185/1/31
f 181/1/31 183/1/31 185/1/31 182/1/31
f 186/1/32 187/1/32 188/1/32
f 184/1/32 186/1/32 188/1/32 185/1/32
f 189/1/33 190/1/33 191/1/33
f 187/1/33 189/1/33 191/1/33 188/1/33
f 192/1/34 193/1/34 194/1/34
f 190/1/34 192/1/34 194/1/34 191/1/34
f 195/1/35 196/1/35 197/1/35
f 193/1/35 195/1/35 197/1/35 194/1/35
f 198/1/36 199/1/36 200/1/36
f 196/1/36 198/1/36 200/1/36 197/1/36
f 201/1/37 202/1/37 203/1/37
f 199/1/37 201/1/37 203/1/37 200/1/37
f 204/1/38 160/1/38 161/1/38
f 202/1/38 204/1/38 161/1/38 203/1/38
f 203/1/5 161/1/5 159/1/5
f 159/1/5 164/1/5 167/1/5
f 167/1/5 170/1/5 173/1/5
f 173/1/5 176/1/5 179/1/5
f 179/1/5 182/1/5 185/1/5
f 185/1/5 188/1/5 191/1/5
f 191/1/5 194/1/5 197/1/5
f 197/1/5 200/1/5 203/1/5
f 203/1/5 159/1/5 167/1/5
f 167/1/5 173/1/5 179/1/5
f 179/1/5 185/1/5 191/1/5
f 191/1/5 197/1/5 203/1/5
f 203/1/5 167/1/5 179/1/5
f 179/1/5 191/1/5 203/1/5
f 205/1/39 206/1/39 207/1/39
f 208/1/39 205/1/39 207/1/39 209/1/39
f 210/1/40 211/1/40 212/1/40
f 206/1/40 210/1/40 212/1/40 207/1/40
f 213/1/41 214/1/41 215/1/41
f 211/1/41 213/1/41 215/1/41 212/1/41
f 216/1/42 217/1/42 218/1/42
f 214/1/42 216/1/42 218/1/42 215/1/42
f 219/1/43 220/1/43 221/1/43
f 217/1/43 219/1/43 221/1/43 218/1/43
f 222/1/44 223/1/44 224/1/44
f 220/1/44 222/1/44 224/1/44 221/1/44
f 225/1/45 226/1/45 227/1/45
f 223/1/45 225/1/45 227/1/45 224/1/45
f 228/1/46 229/1/46 230/1/46
f 226/1/46 228/1/46 230/1/46 227/1/46
f 231/1/47 232/1/47 233/1/47
f 229/1/47 231/1/47 233/1/47 230/1/47
f 234/1/48 235/1/48 236/1/48
f 232/1/48 234/1/48 236/1/48 233/1/48
f 237/1/49 238/1/49 239/1/49
f 235/1/49 237/1/49 239/1/49 236/1/49
f 240/1/50 241/1/50 242/1/50
f 238/1/50 240/1/50 242/1/50 239/1/50
f 243/1/51 244/1/51 245/1/51
f 241/1/51 243/1/51 245/1/51 242/1/51
f 246/1/52 247/1/52 248/1/52
f 244/1/52 246/1/52 248/1/52 245/1/52
f 249/1/53 250/1/53 251/1/53
f 247/1/53 249/1/53 251/1/53 248/1/53
f 252/1/54 208/1/54 209/1/54
f 250/1/54 252/1/54 209/1/54 251/1/54
f 251/1/3 209/1/3 207/1/3
f 207/1/3 212/1/3 215/1/3
f 215/1/3 218/1/3 221/1/3
f 221/1/3 224/1/3 227/1/3
f 227/1/3 230/1/3 233/1/3
f 233/1/3 236/1/3 239/1/3
f 239/1/3 242/1/3 245/1/3
f 245/1/3 248/1/3 251/1/3
f 251/1/3 207/1/3 215/1/3
f 215/1/3 221/1/3 227/1/3
f 227/1/3 233/1/3 239/1/3
f 239/1/3 245/1/3 251/1/3
f 251/1/3 215/1/3 227/1/3
f 227/1/3 239/1/3 251/1/3
f 253/1/39 254/1/39 255/1/39
f 256/1/39 253/1/39 255/1/39 257/1/39
f 258/1/40 259/1/40 260/1/40
f 254/1/40 258/1/40 260/1/40 255/1/40
f 261/1/41 262/1/41 263/1/41
f 259/1/41 261/1/41 263/1/41 260/1/41
f 264/1/42 265/1/42 266/1/42
f 262/1/42 264/1/42 266/1/42 263/1/42
f 267/1/43 268/1/43 269/1/43
f 265/1/43 267/1/43 269/1/43 266/1/43
f 270/1/44 271/1/44 272/1/44
f 268/1/44 270/1/44 272/1/44 269/1/44
f 273/1/45 274/1/45 275/1/45
f 271/1/45 273/1/45 275/1/45 272/1/45
f 276/1/46 277/1/46 278/1/46
f 274/1/46 276/1/46 278/1/46 275/1/46
f 279/1/47 280/1/47 281/1/47
f 277/1/47 279/1/47 281/1/47 278/1/47
f 282/1/48 283/1/48 284/1/48
f 280/1/48 282/1/48 284/1/48 281/1/48
f 285/1/49 286/1/49 287/1/49
f 283/1/49 285/1/49 287/1/49 284/1/49
f 288/1/50 289/1/50 290/1/50
f 286/1/50 288/1/50 290/1/50 287/1/50
f 291/1/51 292/1/51 293/1/51
f 289/1/51 291/1/51 293/1/51 290/1/51
f 294/1/52 295/1/52 296/1/52
f 292/1/52 294/1/52 296/1/52 293/1/52
f 297/1/53 298/1/53 299/1/53
f 295/1/53 297/1/53 299/1/53 296/1/53
f 300/1/54 256/1/54 257/1/54
f 298/1/54 300/1/54 257/1/54 299/1/54
f 299/1/3 257/1/3 255/1/3
f 255/1/3 260/1/3 263/1/3
f 263/1/3 266/1/3 269/1/3
f 269/1/3 272/1/3 275/1/3
f 275/1/3 278/1/3 281/1/3
f 281/1/3 284/1/3 287/1/3
f 287/1/3 290/1/3 293/1/3
f 293/1/3 296/1/3 299/1/3
f 299/1/3 255/1/3 263/1/3
f 263/1/3 269/1/3 275/1/3
f 275/1/3 281/1/3 287/1/3
f 287/1/3 293/1/3 299/1/3
f 299/1/3 263/1/3 275/1/3
f 275/1/3 287/1/3 299/1/3
f 301/1/55 302/1/55 303/1/55 304/1/55
f 301/1/55 304/1/55 305/1/55
f 303/1/56 306/1/56 307/1/56
f 303/1/56 307/1/56 304/1/56
f 306/1/57 308/1/57 309/1/57
f 306/1/57 309/1/57 307/1/57
f 310/1/58 308/1/58 311/1/58
f 308/1/58 310/1/58 312/1/58 309/1/58
f 313/1/4 311/1/4 308/1/4 306/1/4
f 314/1/4 306/1/4 303/1/4 302/1/4
f 315/1/4 313/1/4 306/1/4
f 316/1/4 306/1/4 314/1/4
f 315/1/4 306/1/4 316/1/4
f 317/1/5 305/1/5 304/1/5
f 304/1/5 307/1/5 309/1/5
f 318/1/5 309/1/5 312/1/5
f 319/1/5 317/1/5 304/1/5
f 320/1/5 304/1/5 309/1/5 318/1/5
f 319/1/5 304/1/5 320/1/5
