# Authored in Blender; exported by tools-export-modern.py
mtllib materials.mtl
s off
v 0.720000029 0.000000000 0.704979897
v 0.720000029 0.320850134 0.704979897
v 0.720000029 0.130000114 0.720000029
v 0.720000029 0.000000000 0.709768859
v 0.720000029 1.000000000 0.352582268
v 0.720000029 1.000000000 0.354088700
v 0.720000029 0.992670536 0.362670422
v 0.720000029 0.847098112 0.487000704
v 0.720000029 0.683868408 0.587028027
v 0.720000029 0.507000923 0.660289049
v 0.720000029 0.000000000 0.654162203
v 0.720000029 1.000000000 0.348285534
v 0.720000029 0.000000000 0.541498533
v 0.720000029 1.000000000 0.025830030
v 0.720000029 0.000000000 0.075276008
v 0.720000029 0.000000000 0.000000000
v 0.720000029 1.000000000 0.000000000
v 0.324643072 0.000000000 0.709768859
v 0.000000000 0.049966239 0.713701264
v 0.000000000 0.000000000 0.709768859
v 0.000000000 0.130000114 0.720000029
v 0.646900095 1.000000000 0.354088700
v 0.000000000 1.000000000 0.354088700
v 0.000000000 0.992670536 0.362670422
v 0.000000000 0.931624038 0.414808925
v 0.000000000 0.847098112 0.487000704
v 0.000000000 0.778646949 0.528947644
v 0.000000000 0.683868408 0.587028027
v 0.000000000 0.609698176 0.617750390
v 0.000000000 0.507000923 0.660289049
v 0.000000000 0.428937692 0.679030371
v 0.000000000 0.320850134 0.704979897
v 0.000000000 0.240816258 0.711278661
v 0.682716159 0.000000000 0.762196114
v 0.620000124 0.130000114 0.775000095
v 0.620000124 0.000000000 0.762196114
v 0.740000010 0.000000000 0.762196114
v 0.740000010 0.130000114 0.775000095
v 0.639602513 1.000000000 0.427462971
v 0.620000124 1.000000000 0.427462971
v 0.620000124 0.838352203 0.560123682
v 0.740000010 0.838352203 0.560123682
v 0.740000010 1.000000000 0.427462971
v 0.620000124 0.617921352 0.677946329
v 0.740000010 0.617921352 0.677946329
v 0.620000124 0.378740311 0.750501156
v 0.740000010 0.378740311 0.750501156
v 0.740000010 0.111394530 0.000000000
v 0.740000010 0.000000000 0.153554340
v 0.740000010 0.030543852 0.000000000
v 0.740000010 0.130000114 0.000000000
v 0.740000010 0.011902632 0.000000000
v 0.740000010 0.000000000 0.068376862
v 0.740000010 0.000000000 0.000000000
v 0.740000010 1.000000000 0.000000000
v 0.740000010 1.000000000 0.081315401
v 0.740000010 0.878302929 0.000000000
v 0.740000010 0.861493559 0.000000000
v 0.740000010 1.000000000 0.087813302
v 0.740000010 1.000000000 0.369999886
v 0.740000010 0.630000114 0.000000000
v 0.740000010 0.610245191 0.000000000
v 0.740000010 1.000000000 0.371479754
v 0.740000010 0.464089441 0.000000000
v 0.740000010 0.444321954 0.000000000
v 0.740000010 0.337106933 0.000000000
v 0.740000010 0.317847417 0.000000000
v 0.740000010 0.229456377 0.000000000
v 0.740000010 0.210636188 0.000000000
v 0.620000124 0.000000000 0.220385848
v 0.620000124 0.049364041 0.000000000
v 0.620000124 0.030543852 0.000000000
v 0.620000124 0.000000000 0.153554340
v 0.620000124 0.130000114 0.000000000
v 0.620000124 0.000000000 0.000000000
v 0.620000124 1.000000000 0.074605687
v 0.620000124 0.893946182 0.000000000
v 0.620000124 0.878302929 0.000000000
v 0.620000124 1.000000000 0.081315401
v 0.620000124 1.000000000 0.000000000
v 0.620000124 1.000000000 0.368447215
v 0.620000124 0.648828757 0.000000000
v 0.620000124 0.630000114 0.000000000
v 0.620000124 1.000000000 0.369999886
v 0.620000124 0.483232906 0.000000000
v 0.620000124 0.464089441 0.000000000
v 0.620000124 0.355987045 0.000000000
v 0.620000124 0.337106933 0.000000000
v 0.620000124 0.248097597 0.000000000
v 0.620000124 0.229456377 0.000000000
v 0.620000124 0.148605699 0.000000000
v 0.606332350 0.000000000 0.711196090
v 0.589999914 0.130000114 0.723999977
v 0.589999914 0.000000000 0.711196090
v 0.620000124 0.000000000 0.711196090
v 0.620000124 0.130000114 0.723999977
v 0.619112980 1.000000000 0.360013650
v 0.589999914 1.000000000 0.360013650
v 0.589999914 0.995498657 0.365498543
v 0.620000124 0.995498657 0.365498543
v 0.620000124 1.000000000 0.360013650
v 0.589999914 0.810018063 0.517718792
v 0.620000124 0.810018063 0.517718792
v 0.589999914 0.598404646 0.630828381
v 0.620000124 0.598404646 0.630828381
v 0.589999914 0.368790627 0.700481176
v 0.620000124 0.368790627 0.700481176
v 0.620000124 0.111803172 0.000000000
v 0.620000124 0.000000000 0.153554569
v 0.620000124 0.030543883 0.000000000
v 0.620000124 0.012332589 0.000000000
v 0.620000124 0.000000000 0.071322108
v 0.620000124 1.000000000 0.081315324
v 0.620000124 0.878303026 0.000000000
v 0.620000124 0.863071339 0.000000000
v 0.620000124 1.000000000 0.086596969
v 0.620000124 0.611153678 0.000000000
v 0.620000124 0.464089402 0.000000000
v 0.620000124 0.444946309 0.000000000
v 0.620000124 0.337106998 0.000000000
v 0.620000124 0.318336130 0.000000000
v 0.620000124 0.229456345 0.000000000
v 0.620000124 0.211061966 0.000000000
v 0.589999914 0.000000000 0.217337368
v 0.589999914 0.048938263 0.000000000
v 0.589999914 0.030543883 0.000000000
v 0.589999914 0.000000000 0.153554569
v 0.589999914 0.130000114 0.000000000
v 0.589999914 0.000000000 0.000000000
v 0.589999914 1.000000000 0.075853292
v 0.589999914 0.892430257 0.000000000
v 0.589999914 0.878303026 0.000000000
v 0.589999914 1.000000000 0.081315324
v 0.589999914 1.000000000 0.000000000
v 0.589999914 0.647922412 0.000000000
v 0.589999914 0.630000114 0.000000000
v 0.589999914 0.482600283 0.000000000
v 0.589999914 0.464089402 0.000000000
v 0.589999914 0.355490921 0.000000000
v 0.589999914 0.337106998 0.000000000
v 0.589999914 0.247667639 0.000000000
v 0.589999914 0.229456345 0.000000000
v 0.589999914 0.148197057 0.000000000
v 0.539999962 0.130000114 0.641125202
v 0.539999962 0.190730095 0.606062651
v 0.539999962 0.190730095 0.535937548
v 0.539999962 0.130000114 0.500874996
v 0.539999962 0.069270134 0.535937548
v 0.539999962 0.069270134 0.606062651
v 0.775000095 0.190730095 0.606062651
v 0.775000095 0.130000114 0.641125202
v 0.775000095 0.069270134 0.606062651
v 0.775000095 0.069270134 0.535937548
v 0.775000095 0.130000114 0.500874996
v 0.775000095 0.190730095 0.535937548
v 0.539999962 1.000000000 0.193507051
v 0.539999962 0.996457338 0.199643135
v 0.539999962 1.000000000 0.197597774
v 0.539999962 1.000000000 0.094455481
v 0.539999962 1.000000000 0.061438290
v 0.539999962 0.996457338 0.059392929
v 0.539999962 0.935727358 0.094455481
v 0.539999962 0.935727358 0.164580584
v 0.775000095 1.000000000 0.164580584
v 0.775000095 1.000000000 0.197597774
v 0.775000095 0.996457338 0.199643135
v 0.775000095 0.935727358 0.164580584
v 0.775000095 0.935727358 0.094455481
v 0.775000095 0.996457338 0.059392929
v 0.775000095 1.000000000 0.065529013
v 0.775000095 1.000000000 0.061438290
v 0.553708611 1.000000000 0.061438290
v 0.761291447 1.000000000 0.197597774
v 0.539999962 0.759518147 0.436582327
v 0.539999962 0.820248127 0.401519775
v 0.539999962 0.820248127 0.331394672
v 0.539999962 0.759518147 0.296332121
v 0.539999962 0.698788166 0.331394672
v 0.539999962 0.698788166 0.401519775
v 0.775000095 0.820248127 0.401519775
v 0.775000095 0.759518147 0.436582327
v 0.775000095 0.698788166 0.401519775
v 0.775000095 0.698788166 0.331394672
v 0.775000095 0.759518147 0.296332121
v 0.775000095 0.820248127 0.331394672
v 0.539999962 0.460957289 0.588706493
v 0.539999962 0.521687269 0.553643942
v 0.539999962 0.521687269 0.483518839
v 0.539999962 0.460957289 0.448456287
v 0.539999962 0.400227308 0.483518839
v 0.539999962 0.400227308 0.553643942
v 0.775000095 0.521687269 0.553643942
v 0.775000095 0.460957289 0.588706493
v 0.775000095 0.400227308 0.553643942
v 0.775000095 0.400227308 0.483518839
v 0.775000095 0.460957289 0.448456287
v 0.775000095 0.521687269 0.483518839
v 0.740000010 0.130000114 0.256400108
v 0.740000010 0.277566433 0.241865873
v 0.740000010 0.419461727 0.198822498
v 0.740000010 0.550233364 0.128923655
v 0.740000010 0.664855719 0.034855604
v 0.740000010 0.688145470 0.000000000
v 0.740000010 0.693460948 0.000000000
v 0.740000010 0.000000000 0.230541437
v 0.740000010 0.000000000 0.243596020
v 0.740000010 0.679293386 0.000000000
v 0.740000010 0.000000000 0.202552283
v 0.740000010 0.386400223 0.000000000
v 0.740000010 0.000000000 0.126399973
v 0.829999924 0.000000000 0.241865873
v 0.829999924 0.277566433 0.241865873
v 0.829999924 0.130000114 0.256400108
v 0.829999924 0.000000000 0.243596020
v 0.829999924 0.679157019 0.000000000
v 0.829999924 0.693460948 0.000000000
v 0.829999924 0.664855719 0.034855604
v 0.829999924 0.550233364 0.128923655
v 0.829999924 0.419461727 0.198822498
v 0.829999924 0.000000000 0.186654556
v 0.829999924 0.639544366 0.000000000
v 0.829999924 0.000000000 0.056401923
v 0.829999924 0.439176033 0.000000000
v 0.829999924 0.000000000 0.000000000
v 0.829999924 0.229456313 0.000000000
v 0.819286389 0.000000000 0.243596020
v 0.802631777 0.693460948 0.000000000
v 0.000000000 0.122361116 0.684999943
v 0.000000000 0.184999943 0.684999943
v 0.819999933 0.184999943 0.684999943
v 0.000000000 0.075000048 0.684999943
v 0.819999933 0.075000048 0.684999943
v 0.000000000 0.122361116 0.755000114
v 0.000000000 0.075000048 0.755000114
v 0.819999933 0.075000048 0.755000114
v 0.819999933 0.184999943 0.755000114
v 0.000000000 0.184999943 0.755000114
v 0.000000000 0.075000048 0.715138907
v 0.000000000 0.184999943 0.715138907
v 0.150000095 0.009999990 0.691999912
v 0.174248695 0.009999990 0.706000090
v 0.174248695 0.009999990 0.733999968
v 0.150000095 0.009999990 0.748000145
v 0.125751495 0.009999990 0.733999968
v 0.125751495 0.009999990 0.706000090
v 0.174248695 0.269999981 0.706000090
v 0.150000095 0.269999981 0.691999912
v 0.125751495 0.269999981 0.706000090
v 0.125751495 0.269999981 0.733999968
v 0.150000095 0.269999981 0.748000145
v 0.174248695 0.269999981 0.733999968
v 0.470000029 0.009999990 0.691999912
v 0.494248629 0.009999990 0.706000090
v 0.494248629 0.009999990 0.733999968
v 0.470000029 0.009999990 0.748000145
v 0.445751429 0.009999990 0.733999968
v 0.445751429 0.009999990 0.706000090
v 0.494248629 0.269999981 0.706000090
v 0.470000029 0.269999981 0.691999912
v 0.445751429 0.269999981 0.706000090
v 0.445751429 0.269999981 0.733999968
v 0.470000029 0.269999981 0.748000145
v 0.494248629 0.269999981 0.733999968
v 0.690000057 0.009999990 0.691999912
v 0.714248657 0.009999990 0.706000090
v 0.714248657 0.009999990 0.733999968
v 0.690000057 0.009999990 0.748000145
v 0.665751457 0.009999990 0.733999968
v 0.665751457 0.009999990 0.706000090
v 0.714248657 0.269999981 0.706000090
v 0.690000057 0.269999981 0.691999912
v 0.665751457 0.269999981 0.706000090
v 0.665751457 0.269999981 0.733999968
v 0.690000057 0.269999981 0.748000145
v 0.714248657 0.269999981 0.733999968
v 0.306283122 0.000000000 0.721768810
v 0.282000065 0.130000114 0.731999874
v 0.282000065 0.000000000 0.721768810
v 0.318000078 0.000000000 0.721768810
v 0.318000078 0.130000114 0.731999874
v 0.282283065 1.000000000 0.372142489
v 0.282000065 1.000000000 0.372142489
v 0.282000065 0.854151487 0.496708870
v 0.318000078 0.854151487 0.496708870
v 0.318000078 1.000000000 0.372142489
v 0.282000065 0.689316273 0.597720146
v 0.318000078 0.689316273 0.597720146
v 0.282000065 0.510709047 0.671701670
v 0.318000078 0.510709047 0.671701670
v 0.282000065 0.322727442 0.716832161
v 0.318000078 0.322727442 0.716832161
v 0.318000078 0.000000000 0.713594845
v 0.318000078 0.000000000 0.709768859
v 0.318000078 0.130000114 0.720000029
v 0.318000078 1.000000000 0.355095950
v 0.318000078 1.000000000 0.369999886
v 0.318000078 0.992670536 0.362670422
v 0.318000078 1.000000000 0.354088700
v 0.318000078 1.000000000 0.372024477
v 0.318000078 0.847098112 0.487000704
v 0.318000078 0.683868408 0.587028027
v 0.318000078 0.507000923 0.660289049
v 0.318000078 0.320850134 0.704979897
v 0.293478174 0.000000000 0.709768859
v 0.282000065 0.000000000 0.709768859
v 0.282000065 0.130000114 0.720000029
v 0.284122322 1.000000000 0.354088700
v 0.282000065 0.992670536 0.362670422
v 0.282000065 1.000000000 0.354088700
v 0.282000065 0.847098112 0.487000704
v 0.282000065 0.683868408 0.587028027
v 0.282000065 0.507000923 0.660289049
v 0.282000065 0.320850134 0.704979897
v 0.282000065 0.000000000 0.717863210
v 0.282000065 1.000000000 0.369999886
v 0.586283094 0.000000000 0.721768810
v 0.562000036 0.130000114 0.731999874
v 0.562000036 0.000000000 0.721768810
v 0.598000050 0.000000000 0.721768810
v 0.598000050 0.130000114 0.731999874
v 0.562283036 1.000000000 0.372142489
v 0.562000036 1.000000000 0.372142489
v 0.562000036 0.854151487 0.496708870
v 0.598000050 0.854151487 0.496708870
v 0.598000050 1.000000000 0.372142489
v 0.562000036 0.689316273 0.597720146
v 0.598000050 0.689316273 0.597720146
v 0.562000036 0.510709047 0.671701670
v 0.598000050 0.510709047 0.671701670
v 0.562000036 0.322727442 0.716832161
v 0.598000050 0.322727442 0.716832161
v 0.598000050 0.000000000 0.713594845
v 0.598000050 0.000000000 0.709768859
v 0.598000050 0.130000114 0.720000029
v 0.598000050 1.000000000 0.355095950
v 0.598000050 1.000000000 0.369999886
v 0.598000050 0.992670536 0.362670422
v 0.598000050 1.000000000 0.354088700
v 0.598000050 1.000000000 0.372024477
v 0.598000050 0.847098112 0.487000704
v 0.598000050 0.683868408 0.587028027
v 0.598000050 0.507000923 0.660289049
v 0.598000050 0.320850134 0.704979897
v 0.573478146 0.000000000 0.709768859
v 0.562000036 0.000000000 0.709768859
v 0.562000036 0.130000114 0.720000029
v 0.564122293 1.000000000 0.354088700
v 0.562000036 0.992670536 0.362670422
v 0.562000036 1.000000000 0.354088700
v 0.562000036 0.847098112 0.487000704
v 0.562000036 0.683868408 0.587028027
v 0.562000036 0.507000923 0.660289049
v 0.562000036 0.320850134 0.704979897
v 0.562000036 0.000000000 0.717863210
v 0.562000036 1.000000000 0.369999886
v 0.049999952 0.000000000 0.750000000
v 0.049999952 0.069999933 0.750000000
v 0.099999905 0.069999933 0.750000000
v 0.099999905 0.000000000 0.750000000
v 0.064705822 0.000000000 1.000000000
v 0.099999905 0.000000000 1.000000000
v 0.049999952 0.000000000 1.000000000
v 0.064705822 0.069999933 1.000000000
v 0.049999952 0.069999933 1.000000000
v 0.099999905 0.069999933 1.000000000
v 0.049999952 0.020588218 1.000000000
v 0.099999905 0.020588218 1.000000000
v 0.150000095 0.000000000 0.750000000
v 0.150000095 0.069999933 0.750000000
v 0.200000048 0.069999933 0.750000000
v 0.200000048 0.000000000 0.750000000
v 0.164705965 0.000000000 1.000000000
v 0.200000048 0.000000000 1.000000000
v 0.150000095 0.000000000 1.000000000
v 0.164705965 0.069999933 1.000000000
v 0.150000095 0.069999933 1.000000000
v 0.200000048 0.069999933 1.000000000
v 0.150000095 0.020588218 1.000000000
v 0.200000048 0.020588218 1.000000000
v 0.250000000 0.000000000 0.750000000
v 0.250000000 0.069999933 0.750000000
v 0.299999952 0.069999933 0.750000000
v 0.299999952 0.000000000 0.750000000
v 0.264705870 0.000000000 1.000000000
v 0.299999952 0.000000000 1.000000000
v 0.250000000 0.000000000 1.000000000
v 0.264705870 0.069999933 1.000000000
v 0.250000000 0.069999933 1.000000000
v 0.299999952 0.069999933 1.000000000
v 0.250000000 0.020588218 1.000000000
v 0.299999952 0.020588218 1.000000000
v 0.349999905 0.000000000 0.750000000
v 0.349999905 0.069999933 0.750000000
v 0.400000095 0.069999933 0.750000000
v 0.400000095 0.000000000 0.750000000
v 0.364705845 0.000000000 1.000000000
v 0.400000095 0.000000000 1.000000000
v 0.349999905 0.000000000 1.000000000
v 0.364705845 0.069999933 1.000000000
v 0.349999905 0.069999933 1.000000000
v 0.400000095 0.069999933 1.000000000
v 0.349999905 0.020588218 1.000000000
v 0.400000095 0.020588218 1.000000000
v 0.450000048 0.000000000 0.750000000
v 0.450000048 0.069999933 0.750000000
v 0.500000000 0.069999933 0.750000000
v 0.500000000 0.000000000 0.750000000
v 0.464705918 0.000000000 1.000000000
v 0.500000000 0.000000000 1.000000000
v 0.450000048 0.000000000 1.000000000
v 0.464705918 0.069999933 1.000000000
v 0.450000048 0.069999933 1.000000000
v 0.500000000 0.069999933 1.000000000
v 0.450000048 0.020588218 1.000000000
v 0.500000000 0.020588218 1.000000000
v 0.549999952 0.000000000 0.750000000
v 0.549999952 0.069999933 0.750000000
v 0.599999905 0.069999933 0.750000000
v 0.599999905 0.000000000 0.750000000
v 0.564705822 0.000000000 1.000000000
v 0.599999905 0.000000000 1.000000000
v 0.549999952 0.000000000 1.000000000
v 0.564705822 0.069999933 1.000000000
v 0.549999952 0.069999933 1.000000000
v 0.599999905 0.069999933 1.000000000
v 0.549999952 0.020588218 1.000000000
v 0.599999905 0.020588218 1.000000000
v 0.650000095 0.000000000 0.750000000
v 0.650000095 0.069999933 0.750000000
v 0.700000048 0.069999933 0.750000000
v 0.700000048 0.000000000 0.750000000
v 0.664705965 0.000000000 1.000000000
v 0.700000048 0.000000000 1.000000000
v 0.650000095 0.000000000 1.000000000
v 0.664705965 0.069999933 1.000000000
v 0.650000095 0.069999933 1.000000000
v 0.700000048 0.069999933 1.000000000
v 0.650000095 0.020588218 1.000000000
v 0.700000048 0.020588218 1.000000000
v 0.750000000 0.000000000 0.750000000
v 0.750000000 0.069999933 0.750000000
v 0.799999952 0.069999933 0.750000000
v 0.799999952 0.000000000 0.750000000
v 0.764705870 0.000000000 1.000000000
v 0.799999952 0.000000000 1.000000000
v 0.750000000 0.000000000 1.000000000
v 0.764705870 0.069999933 1.000000000
v 0.750000000 0.069999933 1.000000000
v 0.799999952 0.069999933 1.000000000
v 0.750000000 0.020588218 1.000000000
v 0.799999952 0.020588218 1.000000000
v 0.849999905 0.000000000 0.750000000
v 0.849999905 0.069999933 0.750000000
v 0.900000095 0.069999933 0.750000000
v 0.900000095 0.000000000 0.750000000
v 0.864705845 0.000000000 1.000000000
v 0.900000095 0.000000000 1.000000000
v 0.849999905 0.000000000 1.000000000
v 0.864705845 0.069999933 1.000000000
v 0.849999905 0.069999933 1.000000000
v 0.900000095 0.069999933 1.000000000
v 0.849999905 0.020588218 1.000000000
v 0.900000095 0.020588218 1.000000000
v 0.950000048 0.000000000 0.750000000
v 0.950000048 0.069999933 0.750000000
v 1.000000000 0.069999933 0.750000000
v 1.000000000 0.000000000 0.750000000
v 0.964705918 0.000000000 1.000000000
v 1.000000000 0.000000000 1.000000000
v 0.950000048 0.000000000 1.000000000
v 0.964705918 0.069999933 1.000000000
v 0.950000048 0.069999933 1.000000000
v 1.000000000 0.069999933 1.000000000
v 0.950000048 0.020588218 1.000000000
v 1.000000000 0.020588218 1.000000000
vt 0.500000000 0.500000000
vn 1.000000000 0.000000000 0.000000000
vn 0.000000000 -0.078458627 0.996917371
vn 0.000000000 0.760406774 0.649447102
vn 0.000000000 0.649447102 0.760406774
vn 0.000000000 0.522498685 0.852640091
vn 0.000000000 0.382683930 0.923879327
vn 0.000000000 0.233445349 0.972369924
vn 0.000000000 0.078458627 0.996917371
vn 0.000000000 -0.098017808 0.995184661
vn 0.000000000 0.634392693 0.773010939
vn 0.000000000 0.471396434 0.881921426
vn 0.000000000 0.290284864 0.956940279
vn 0.000000000 0.098017808 0.995184661
vn -1.000000000 -0.000000000 0.000000000
vn 0.000000000 -0.098017091 0.995184732
vn 0.000000000 0.773009924 0.634393929
vn 0.000000000 0.634393929 0.773009924
vn 0.000000000 0.471396286 0.881921505
vn 0.000000000 0.290285229 0.956940168
vn 0.000000000 0.098017091 0.995184732
vn 0.000000000 -0.500000866 0.866024904
vn 0.000000000 -1.000000000 0.000000000
vn 0.000000000 -0.500000866 -0.866024904
vn 0.000000000 0.500000866 -0.866024904
vn 0.000000000 1.000000000 0.000000000
vn 0.000000000 0.500000866 0.866024904
vn 0.000000000 -0.098018618 0.995184581
vn 0.000000000 0.773010734 0.634392942
vn 0.000000000 0.634392942 0.773010734
vn 0.000000000 0.471396462 0.881921411
vn 0.000000000 0.290284110 0.956940508
vn 0.000000000 0.098018618 0.995184581
vn 0.000000000 0.000000000 -1.000000000
vn 0.000000000 0.000000000 1.000000000
vn -0.500006473 0.000000000 -0.866021667
vn -0.500006473 0.000000000 0.866021667
vn 0.500006473 0.000000000 0.866021667
vn 0.500006473 0.000000000 -0.866021667
vn 0.000000000 -0.078457826 0.996917434
vn 0.000000000 0.649447999 0.760406008
vn 0.000000000 0.522499042 0.852639872
vn 0.000000000 0.382683381 0.923879554
vn 0.000000000 0.233445856 0.972369802
vn 0.000000000 0.078457777 0.996917437
vn 0.000000000 0.078458627 -0.996917371
vn 0.000000000 -0.760406774 -0.649447102
vn 0.000000000 -0.649447102 -0.760406774
vn 0.000000000 -0.522498685 -0.852640091
vn 0.000000000 -0.382683930 -0.923879327
vn 0.000000000 -0.233445349 -0.972369924
vn 0.000000000 -0.078458627 -0.996917371
usemtl mat_3
f 1/1/1 2/1/1 3/1/1 4/1/1
f 5/1/1 6/1/1 7/1/1
f 7/1/1 8/1/1 9/1/1
f 9/1/1 10/1/1 2/1/1
f 11/1/1 2/1/1 1/1/1
f 12/1/1 5/1/1 7/1/1
f 7/1/1 9/1/1 2/1/1
f 13/1/1 2/1/1 11/1/1
f 14/1/1 12/1/1 7/1/1 2/1/1
f 15/1/1 2/1/1 13/1/1
f 15/1/1 16/1/1 17/1/1
f 15/1/1 17/1/1 14/1/1
f 15/1/1 14/1/1 2/1/1
f 18/1/2 19/1/2 20/1/2
f 21/1/2 19/1/2 18/1/2
f 21/1/2 18/1/2 4/1/2
f 21/1/2 4/1/2 3/1/2
f 22/1/3 23/1/3 24/1/3 7/1/3
f 22/1/3 7/1/3 6/1/3
f 25/1/4 26/1/4 8/1/4
f 24/1/4 25/1/4 8/1/4 7/1/4
f 27/1/5 28/1/5 9/1/5
f 26/1/5 27/1/5 9/1/5 8/1/5
f 29/1/6 30/1/6 10/1/6
f 28/1/6 29/1/6 10/1/6 9/1/6
f 31/1/7 32/1/7 2/1/7
f 30/1/7 31/1/7 2/1/7 10/1/7
f 33/1/8 21/1/8 3/1/8
f 32/1/8 33/1/8 3/1/8 2/1/8
usemtl mat_2
f 34/1/9 35/1/9 36/1/9
f 35/1/9 34/1/9 37/1/9 38/1/9
f 39/1/10 40/1/10 41/1/10 42/1/10
f 39/1/10 42/1/10 43/1/10
f 41/1/11 44/1/11 45/1/11
f 41/1/11 45/1/11 42/1/11
f 44/1/12 46/1/12 47/1/12
f 44/1/12 47/1/12 45/1/12
f 46/1/13 35/1/13 38/1/13
f 46/1/13 38/1/13 47/1/13
f 48/1/1 38/1/1 37/1/1
f 48/1/1 37/1/1 49/1/1
f 48/1/1 49/1/1 50/1/1
f 51/1/1 38/1/1 48/1/1
f 52/1/1 53/1/1 54/1/1
f 50/1/1 49/1/1 53/1/1 52/1/1
f 55/1/1 56/1/1 57/1/1
f 58/1/1 59/1/1 60/1/1 61/1/1
f 57/1/1 56/1/1 59/1/1 58/1/1
f 62/1/1 63/1/1 43/1/1
f 62/1/1 43/1/1 42/1/1
f 62/1/1 42/1/1 64/1/1
f 61/1/1 60/1/1 63/1/1 62/1/1
f 65/1/1 42/1/1 45/1/1 66/1/1
f 64/1/1 42/1/1 65/1/1
f 67/1/1 45/1/1 47/1/1 68/1/1
f 66/1/1 45/1/1 67/1/1
f 69/1/1 47/1/1 38/1/1 51/1/1
f 68/1/1 47/1/1 69/1/1
f 70/1/14 71/1/14 72/1/14 73/1/14
f 74/1/14 71/1/14 70/1/14
f 74/1/14 70/1/14 36/1/14
f 74/1/14 36/1/14 35/1/14
f 75/1/14 73/1/14 72/1/14
f 76/1/14 77/1/14 78/1/14 79/1/14
f 80/1/14 77/1/14 76/1/14
f 81/1/14 82/1/14 83/1/14 84/1/14
f 79/1/14 78/1/14 82/1/14 81/1/14
f 85/1/14 86/1/14 41/1/14
f 84/1/14 83/1/14 85/1/14
f 84/1/14 85/1/14 41/1/14
f 84/1/14 41/1/14 40/1/14
f 87/1/14 88/1/14 44/1/14
f 86/1/14 87/1/14 44/1/14 41/1/14
f 89/1/14 90/1/14 46/1/14
f 88/1/14 89/1/14 46/1/14 44/1/14
f 91/1/14 74/1/14 35/1/14
f 90/1/14 91/1/14 35/1/14 46/1/14
usemtl mat_1
f 92/1/15 93/1/15 94/1/15
f 93/1/15 92/1/15 95/1/15 96/1/15
f 97/1/16 98/1/16 99/1/16 100/1/16
f 97/1/16 100/1/16 101/1/16
f 99/1/17 102/1/17 103/1/17
f 99/1/17 103/1/17 100/1/17
f 102/1/18 104/1/18 105/1/18
f 102/1/18 105/1/18 103/1/18
f 104/1/19 106/1/19 107/1/19
f 104/1/19 107/1/19 105/1/19
f 106/1/20 93/1/20 96/1/20
f 106/1/20 96/1/20 107/1/20
f 108/1/1 96/1/1 95/1/1
f 108/1/1 95/1/1 109/1/1
f 108/1/1 109/1/1 110/1/1
f 74/1/1 96/1/1 108/1/1
f 111/1/1 112/1/1 75/1/1
f 110/1/1 109/1/1 112/1/1 111/1/1
f 80/1/1 113/1/1 114/1/1
f 115/1/1 116/1/1 101/1/1
f 115/1/1 101/1/1 100/1/1
f 115/1/1 100/1/1 83/1/1
f 114/1/1 113/1/1 116/1/1 115/1/1
f 117/1/1 100/1/1 103/1/1 118/1/1
f 83/1/1 100/1/1 117/1/1
f 119/1/1 103/1/1 105/1/1 120/1/1
f 118/1/1 103/1/1 119/1/1
f 121/1/1 105/1/1 107/1/1 122/1/1
f 120/1/1 105/1/1 121/1/1
f 123/1/1 107/1/1 96/1/1 74/1/1
f 122/1/1 107/1/1 123/1/1
f 124/1/14 125/1/14 126/1/14 127/1/14
f 128/1/14 125/1/14 124/1/14
f 128/1/14 124/1/14 94/1/14
f 128/1/14 94/1/14 93/1/14
f 129/1/14 127/1/14 126/1/14
f 130/1/14 131/1/14 132/1/14 133/1/14
f 134/1/14 131/1/14 130/1/14
f 135/1/14 136/1/14 99/1/14
f 133/1/14 132/1/14 135/1/14
f 133/1/14 135/1/14 99/1/14
f 133/1/14 99/1/14 98/1/14
f 137/1/14 138/1/14 102/1/14
f 136/1/14 137/1/14 102/1/14 99/1/14
f 139/1/14 140/1/14 104/1/14
f 138/1/14 139/1/14 104/1/14 102/1/14
f 141/1/14 142/1/14 106/1/14
f 140/1/14 141/1/14 106/1/14 104/1/14
f 143/1/14 128/1/14 93/1/14
f 142/1/14 143/1/14 93/1/14 106/1/14
usemtl mat_2
f 144/1/14 145/1/14 146/1/14
f 146/1/14 147/1/14 148/1/14
f 148/1/14 149/1/14 144/1/14
f 146/1/14 148/1/14 144/1/14
f 150/1/1 151/1/1 152/1/1
f 152/1/1 153/1/1 154/1/1
f 154/1/1 155/1/1 150/1/1
f 152/1/1 154/1/1 150/1/1
f 144/1/21 149/1/21 152/1/21
f 144/1/21 152/1/21 151/1/21
f 149/1/22 148/1/22 153/1/22
f 149/1/22 153/1/22 152/1/22
f 148/1/23 147/1/23 154/1/23
f 148/1/23 154/1/23 153/1/23
f 147/1/24 146/1/24 155/1/24
f 147/1/24 155/1/24 154/1/24
f 146/1/25 145/1/25 150/1/25
f 146/1/25 150/1/25 155/1/25
f 145/1/26 144/1/26 151/1/26
f 145/1/26 151/1/26 150/1/26
f 156/1/14 157/1/14 158/1/14
f 159/1/14 160/1/14 161/1/14 162/1/14
f 162/1/14 163/1/14 157/1/14
f 156/1/14 159/1/14 162/1/14 157/1/14
f 164/1/1 165/1/1 166/1/1 167/1/1
f 167/1/1 168/1/1 169/1/1
f 170/1/1 169/1/1 171/1/1
f 164/1/1 167/1/1 169/1/1 170/1/1
f 157/1/21 163/1/21 167/1/21
f 157/1/21 167/1/21 166/1/21
f 163/1/22 162/1/22 168/1/22
f 163/1/22 168/1/22 167/1/22
f 162/1/23 161/1/23 169/1/23
f 162/1/23 169/1/23 168/1/23
f 172/1/24 161/1/24 160/1/24
f 161/1/24 172/1/24 171/1/24 169/1/24
f 173/1/26 158/1/26 157/1/26 166/1/26
f 173/1/26 166/1/26 165/1/26
f 174/1/14 175/1/14 176/1/14
f 176/1/14 177/1/14 178/1/14
f 178/1/14 179/1/14 174/1/14
f 176/1/14 178/1/14 174/1/14
f 180/1/1 181/1/1 182/1/1
f 182/1/1 183/1/1 184/1/1
f 184/1/1 185/1/1 180/1/1
f 182/1/1 184/1/1 180/1/1
f 174/1/21 179/1/21 182/1/21
f 174/1/21 182/1/21 181/1/21
f 179/1/22 178/1/22 183/1/22
f 179/1/22 183/1/22 182/1/22
f 178/1/23 177/1/23 184/1/23
f 178/1/23 184/1/23 183/1/23
f 177/1/24 176/1/24 185/1/24
f 177/1/24 185/1/24 184/1/24
f 176/1/25 175/1/25 180/1/25
f 176/1/25 180/1/25 185/1/25
f 175/1/26 174/1/26 181/1/26
f 175/1/26 181/1/26 180/1/26
f 186/1/14 187/1/14 188/1/14
f 188/1/14 189/1/14 190/1/14
f 190/1/14 191/1/14 186/1/14
f 188/1/14 190/1/14 186/1/14
f 192/1/1 193/1/1 194/1/1
f 194/1/1 195/1/1 196/1/1
f 196/1/1 197/1/1 192/1/1
f 194/1/1 196/1/1 192/1/1
f 186/1/21 191/1/21 194/1/21
f 186/1/21 194/1/21 193/1/21
f 191/1/22 190/1/22 195/1/22
f 191/1/22 195/1/22 194/1/22
f 190/1/23 189/1/23 196/1/23
f 190/1/23 196/1/23 195/1/23
f 189/1/24 188/1/24 197/1/24
f 189/1/24 197/1/24 196/1/24
f 188/1/25 187/1/25 192/1/25
f 188/1/25 192/1/25 197/1/25
f 187/1/26 186/1/26 193/1/26
f 187/1/26 193/1/26 192/1/26
usemtl mat_3
f 198/1/14 199/1/14 200/1/14
f 200/1/14 201/1/14 202/1/14
f 203/1/14 202/1/14 204/1/14
f 205/1/14 206/1/14 198/1/14
f 198/1/14 200/1/14 202/1/14
f 207/1/14 202/1/14 203/1/14
f 208/1/14 205/1/14 198/1/14
f 209/1/14 198/1/14 202/1/14 207/1/14
f 210/1/14 208/1/14 198/1/14
f 51/1/14 198/1/14 209/1/14
f 51/1/14 54/1/14 210/1/14 198/1/14
f 211/1/1 212/1/1 213/1/1 214/1/1
f 215/1/1 216/1/1 217/1/1 218/1/1
f 218/1/1 219/1/1 212/1/1
f 220/1/1 212/1/1 211/1/1
f 221/1/1 215/1/1 218/1/1 212/1/1
f 222/1/1 212/1/1 220/1/1
f 223/1/1 221/1/1 212/1/1
f 224/1/1 225/1/1 212/1/1 222/1/1
f 225/1/1 223/1/1 212/1/1
f 226/1/27 198/1/27 206/1/27
f 198/1/27 226/1/27 214/1/27 213/1/27
f 227/1/28 204/1/28 202/1/28 217/1/28
f 227/1/28 217/1/28 216/1/28
f 202/1/29 201/1/29 218/1/29
f 202/1/29 218/1/29 217/1/29
f 201/1/30 200/1/30 219/1/30
f 201/1/30 219/1/30 218/1/30
f 200/1/31 199/1/31 212/1/31
f 200/1/31 212/1/31 219/1/31
f 199/1/32 198/1/32 213/1/32
f 199/1/32 213/1/32 212/1/32
usemtl mat_2
f 228/1/33 229/1/33 230/1/33
f 231/1/33 228/1/33 230/1/33 232/1/33
f 233/1/34 234/1/34 235/1/34 236/1/34
f 233/1/34 236/1/34 237/1/34
f 238/1/22 231/1/22 232/1/22 235/1/22
f 238/1/22 235/1/22 234/1/22
f 239/1/25 237/1/25 236/1/25
f 229/1/25 239/1/25 236/1/25 230/1/25
f 232/1/1 230/1/1 236/1/1
f 232/1/1 236/1/1 235/1/1
f 240/1/22 241/1/22 242/1/22
f 242/1/22 243/1/22 244/1/22
f 244/1/22 245/1/22 240/1/22
f 242/1/22 244/1/22 240/1/22
f 246/1/25 247/1/25 248/1/25
f 248/1/25 249/1/25 250/1/25
f 250/1/25 251/1/25 246/1/25
f 248/1/25 250/1/25 246/1/25
f 240/1/35 245/1/35 248/1/35
f 240/1/35 248/1/35 247/1/35
f 245/1/14 244/1/14 249/1/14
f 245/1/14 249/1/14 248/1/14
f 244/1/36 243/1/36 250/1/36
f 244/1/36 250/1/36 249/1/36
f 243/1/37 242/1/37 251/1/37
f 243/1/37 251/1/37 250/1/37
f 242/1/1 241/1/1 246/1/1
f 242/1/1 246/1/1 251/1/1
f 241/1/38 240/1/38 247/1/38
f 241/1/38 247/1/38 246/1/38
f 252/1/22 253/1/22 254/1/22
f 254/1/22 255/1/22 256/1/22
f 256/1/22 257/1/22 252/1/22
f 254/1/22 256/1/22 252/1/22
f 258/1/25 259/1/25 260/1/25
f 260/1/25 261/1/25 262/1/25
f 262/1/25 263/1/25 258/1/25
f 260/1/25 262/1/25 258/1/25
f 252/1/35 257/1/35 260/1/35
f 252/1/35 260/1/35 259/1/35
f 257/1/14 256/1/14 261/1/14
f 257/1/14 261/1/14 260/1/14
f 256/1/36 255/1/36 262/1/36
f 256/1/36 262/1/36 261/1/36
f 255/1/37 254/1/37 263/1/37
f 255/1/37 263/1/37 262/1/37
f 254/1/1 253/1/1 258/1/1
f 254/1/1 258/1/1 263/1/1
f 253/1/38 252/1/38 259/1/38
f 253/1/38 259/1/38 258/1/38
f 264/1/22 265/1/22 266/1/22
f 266/1/22 267/1/22 268/1/22
f 268/1/22 269/1/22 264/1/22
f 266/1/22 268/1/22 264/1/22
f 270/1/25 271/1/25 272/1/25
f 272/1/25 273/1/25 274/1/25
f 274/1/25 275/1/25 270/1/25
f 272/1/25 274/1/25 270/1/25
f 264/1/35 269/1/35 272/1/35
f 264/1/35 272/1/35 271/1/35
f 269/1/14 268/1/14 273/1/14
f 269/1/14 273/1/14 272/1/14
f 268/1/36 267/1/36 274/1/36
f 268/1/36 274/1/36 273/1/36
f 267/1/37 266/1/37 275/1/37
f 267/1/37 275/1/37 274/1/37
f 266/1/1 265/1/1 270/1/1
f 266/1/1 270/1/1 275/1/1
f 265/1/38 264/1/38 271/1/38
f 265/1/38 271/1/38 270/1/38
f 276/1/39 277/1/39 278/1/39
f 277/1/39 276/1/39 279/1/39 280/1/39
f 281/1/40 282/1/40 283/1/40 284/1/40
f 281/1/40 284/1/40 285/1/40
f 283/1/41 286/1/41 287/1/41
f 283/1/41 287/1/41 284/1/41
f 286/1/42 288/1/42 289/1/42
f 286/1/42 289/1/42 287/1/42
f 288/1/43 290/1/43 291/1/43
f 288/1/43 291/1/43 289/1/43
f 290/1/44 277/1/44 280/1/44
f 290/1/44 280/1/44 291/1/44
f 292/1/1 280/1/1 279/1/1
f 280/1/1 292/1/1 293/1/1 294/1/1
f 295/1/1 296/1/1 297/1/1
f 295/1/1 297/1/1 298/1/1
f 299/1/1 285/1/1 284/1/1 300/1/1
f 296/1/1 299/1/1 300/1/1 297/1/1
f 284/1/1 287/1/1 301/1/1
f 284/1/1 301/1/1 300/1/1
f 287/1/1 289/1/1 302/1/1
f 287/1/1 302/1/1 301/1/1
f 289/1/1 291/1/1 303/1/1
f 289/1/1 303/1/1 302/1/1
f 291/1/1 280/1/1 294/1/1
f 291/1/1 294/1/1 303/1/1
f 304/1/45 294/1/45 293/1/45
f 294/1/45 304/1/45 305/1/45 306/1/45
f 307/1/46 298/1/46 297/1/46 308/1/46
f 307/1/46 308/1/46 309/1/46
f 297/1/47 300/1/47 310/1/47
f 297/1/47 310/1/47 308/1/47
f 300/1/48 301/1/48 311/1/48
f 300/1/48 311/1/48 310/1/48
f 301/1/49 302/1/49 312/1/49
f 301/1/49 312/1/49 311/1/49
f 302/1/50 303/1/50 313/1/50
f 302/1/50 313/1/50 312/1/50
f 303/1/51 294/1/51 306/1/51
f 303/1/51 306/1/51 313/1/51
f 314/1/14 306/1/14 305/1/14
f 306/1/14 314/1/14 278/1/14 277/1/14
f 309/1/14 308/1/14 315/1/14
f 308/1/14 310/1/14 283/1/14
f 315/1/14 308/1/14 283/1/14 282/1/14
f 310/1/14 311/1/14 286/1/14
f 310/1/14 286/1/14 283/1/14
f 311/1/14 312/1/14 288/1/14
f 311/1/14 288/1/14 286/1/14
f 312/1/14 313/1/14 290/1/14
f 312/1/14 290/1/14 288/1/14
f 313/1/14 306/1/14 277/1/14
f 313/1/14 277/1/14 290/1/14
f 316/1/39 317/1/39 318/1/39
f 317/1/39 316/1/39 319/1/39 320/1/39
f 321/1/40 322/1/40 323/1/40 324/1/40
f 321/1/40 324/1/40 325/1/40
f 323/1/41 326/1/41 327/1/41
f 323/1/41 327/1/41 324/1/41
f 326/1/42 328/1/42 329/1/42
f 326/1/42 329/1/42 327/1/42
f 328/1/43 330/1/43 331/1/43
f 328/1/43 331/1/43 329/1/43
f 330/1/44 317/1/44 320/1/44
f 330/1/44 320/1/44 331/1/44
f 332/1/1 320/1/1 319/1/1
f 320/1/1 332/1/1 333/1/1 334/1/1
f 335/1/1 336/1/1 337/1/1
f 335/1/1 337/1/1 338/1/1
f 339/1/1 325/1/1 324/1/1 340/1/1
f 336/1/1 339/1/1 340/1/1 337/1/1
f 324/1/1 327/1/1 341/1/1
f 324/1/1 341/1/1 340/1/1
f 327/1/1 329/1/1 342/1/1
f 327/1/1 342/1/1 341/1/1
f 329/1/1 331/1/1 343/1/1
f 329/1/1 343/1/1 342/1/1
f 331/1/1 320/1/1 334/1/1
f 331/1/1 334/1/1 343/1/1
f 344/1/45 334/1/45 333/1/45
f 334/1/45 344/1/45 345/1/45 346/1/45
f 347/1/46 338/1/46 337/1/46 348/1/46
f 347/1/46 348/1/46 349/1/46
f 337/1/47 340/1/47 350/1/47
f 337/1/47 350/1/47 348/1/47
f 340/1/48 341/1/48 351/1/48
f 340/1/48 351/1/48 350/1/48
f 341/1/49 342/1/49 352/1/49
f 341/1/49 352/1/49 351/1/49
f 342/1/50 343/1/50 353/1/50
f 342/1/50 353/1/50 352/1/50
f 343/1/51 334/1/51 346/1/51
f 343/1/51 346/1/51 353/1/51
f 354/1/14 346/1/14 345/1/14
f 346/1/14 354/1/14 318/1/14 317/1/14
f 349/1/14 348/1/14 355/1/14
f 348/1/14 350/1/14 323/1/14
f 355/1/14 348/1/14 323/1/14 322/1/14
f 350/1/14 351/1/14 326/1/14
f 350/1/14 326/1/14 323/1/14
f 351/1/14 352/1/14 328/1/14
f 351/1/14 328/1/14 326/1/14
f 352/1/14 353/1/14 330/1/14
f 352/1/14 330/1/14 328/1/14
f 353/1/14 346/1/14 317/1/14
f 353/1/14 317/1/14 330/1/14
f 356/1/33 357/1/33 358/1/33
f 356/1/33 358/1/33 359/1/33
f 360/1/22 356/1/22 359/1/22 361/1/22
f 362/1/22 356/1/22 360/1/22
f 363/1/25 357/1/25 364/1/25
f 357/1/25 363/1/25 365/1/25 358/1/25
f 366/1/14 356/1/14 362/1/14
f 356/1/14 366/1/14 364/1/14 357/1/14
f 367/1/1 359/1/1 358/1/1 365/1/1
f 361/1/1 359/1/1 367/1/1
f 368/1/33 369/1/33 370/1/33
f 368/1/33 370/1/33 371/1/33
f 372/1/22 368/1/22 371/1/22 373/1/22
f 374/1/22 368/1/22 372/1/22
f 375/1/25 369/1/25 376/1/25
f 369/1/25 375/1/25 377/1/25 370/1/25
f 378/1/14 368/1/14 374/1/14
f 368/1/14 378/1/14 376/1/14 369/1/14
f 379/1/1 371/1/1 370/1/1 377/1/1
f 373/1/1 371/1/1 379/1/1
f 380/1/33 381/1/33 382/1/33
f 380/1/33 382/1/33 383/1/33
f 384/1/22 380/1/22 383/1/22 385/1/22
f 386/1/22 380/1/22 384/1/22
f 387/1/25 381/1/25 388/1/25
f 381/1/25 387/1/25 389/1/25 382/1/25
f 390/1/14 380/1/14 386/1/14
f 380/1/14 390/1/14 388/1/14 381/1/14
f 391/1/1 383/1/1 382/1/1 389/1/1
f 385/1/1 383/1/1 391/1/1
f 392/1/33 393/1/33 394/1/33
f 392/1/33 394/1/33 395/1/33
f 396/1/22 392/1/22 395/1/22 397/1/22
f 398/1/22 392/1/22 396/1/22
f 399/1/25 393/1/25 400/1/25
f 393/1/25 399/1/25 401/1/25 394/1/25
f 402/1/14 392/1/14 398/1/14
f 392/1/14 402/1/14 400/1/14 393/1/14
f 403/1/1 395/1/1 394/1/1 401/1/1
f 397/1/1 395/1/1 403/1/1
f 404/1/33 405/1/33 406/1/33
f 404/1/33 406/1/33 407/1/33
f 408/1/22 404/1/22 407/1/22 409/1/22
f 410/1/22 404/1/22 408/1/22
f 411/1/25 405/1/25 412/1/25
f 405/1/25 411/1/25 413/1/25 406/1/25
f 414/1/14 404/1/14 410/1/14
f 404/1/14 414/1/14 412/1/14 405/1/14
f 415/1/1 407/1/1 406/1/1 413/1/1
f 409/1/1 407/1/1 415/1/1
f 416/1/33 417/1/33 418/1/33
f 416/1/33 418/1/33 419/1/33
f 420/1/22 416/1/22 419/1/22 421/1/22
f 422/1/22 416/1/22 420/1/22
f 423/1/25 417/1/25 424/1/25
f 417/1/25 423/1/25 425/1/25 418/1/25
f 426/1/14 416/1/14 422/1/14
f 416/1/14 426/1/14 424/1/14 417/1/14
f 427/1/1 419/1/1 418/1/1 425/1/1
f 421/1/1 419/1/1 427/1/1
f 428/1/33 429/1/33 430/1/33
f 428/1/33 430/1/33 431/1/33
f 432/1/22 428/1/22 431/1/22 433/1/22
f 434/1/22 428/1/22 432/1/22
f 435/1/25 429/1/25 436/1/25
f 429/1/25 435/1/25 437/1/25 430/1/25
f 438/1/14 428/1/14 434/1/14
f 428/1/14 438/1/14 436/1/14 429/1/14
f 439/1/1 431/1/1 430/1/1 437/1/1
f 433/1/1 431/1/1 439/1/1
f 440/1/33 441/1/33 442/1/33
f 440/1/33 442/1/33 443/1/33
f 444/1/22 440/1/22 443/1/22 445/1/22
f 446/1/22 440/1/22 444/1/22
f 447/1/25 441/1/25 448/1/25
f 441/1/25 447/1/25 449/1/25 442/1/25
f 450/1/14 440/1/14 446/1/14
f 440/1/14 450/1/14 448/1/14 441/1/14
f 451/1/1 443/1/1 442/1/1 449/1/1
f 445/1/1 443/1/1 451/1/1
f 452/1/33 453/1/33 454/1/33
f 452/1/33 454/1/33 455/1/33
f 456/1/22 452/1/22 455/1/22 457/1/22
f 458/1/22 452/1/22 456/1/22
f 459/1/25 453/1/25 460/1/25
f 453/1/25 459/1/25 461/1/25 454/1/25
f 462/1/14 452/1/14 458/1/14
f 452/1/14 462/1/14 460/1/14 453/1/14
f 463/1/1 455/1/1 454/1/1 461/1/1
f 457/1/1 455/1/1 463/1/1
f 464/1/33 465/1/33 466/1/33
f 464/1/33 466/1/33 467/1/33
f 468/1/22 464/1/22 467/1/22 469/1/22
f 470/1/22 464/1/22 468/1/22
f 471/1/25 465/1/25 472/1/25
f 465/1/25 471/1/25 473/1/25 466/1/25
f 474/1/14 464/1/14 470/1/14
f 464/1/14 474/1/14 472/1/14 465/1/14
f 475/1/1 467/1/1 466/1/1 473/1/1
f 469/1/1 467/1/1 475/1/1
