# Authored in Blender; exported by tools-export-modern.py
mtllib materials.mtl
s off
v 0.787660785 1.000000000 0.759999990
v 0.740877202 0.000000000 0.759999990
v 0.710000038 0.000000000 0.759999990
v 0.710000038 1.000000000 0.759999990
v 0.789999962 1.000000000 0.759999990
v 0.789999962 0.000000000 0.759999990
v 0.787660785 1.000000000 0.839999914
v 0.740877202 0.000000000 0.839999914
v 0.789999962 0.000000000 0.839999914
v 0.789999962 1.000000000 0.839999914
v 0.710000038 1.000000000 0.839999914
v 0.710000038 0.000000000 0.839999914
v 0.710000038 1.000000000 0.837660737
v 0.710000038 0.000000000 0.790877155
v 0.789999962 1.000000000 0.837660737
v 0.789999962 0.000000000 0.790877155
vt 0.500000000 0.500000000
vn 0.000000000 0.000000000 -1.000000000
vn 0.000000000 0.000000000 1.000000000
vn -1.000000000 0.000000000 0.000000000
vn 1.000000000 0.000000000 0.000000000
usemtl mat_2
f 1/1/1 2/1/1 3/1/1 4/1/1
f 2/1/1 1/1/1 5/1/1 6/1/1
f 7/1/2 8/1/2 9/1/2 10/1/2
f 11/1/2 12/1/2 8/1/2 7/1/2
f 13/1/3 14/1/3 12/1/3 11/1/3
f 4/1/3 3/1/3 14/1/3 13/1/3
f 15/1/4 16/1/4 6/1/4 5/1/4
f 16/1/4 15/1/4 10/1/4 9/1/4
