# Authored in Blender; exported by tools-export-modern.py
mtllib materials.mtl
s off
v 0.986858964 0.000000000 0.863457703
v 0.869999886 0.000000000 0.863457703
v 0.869999886 0.003191471 0.862489581
v 0.989999771 0.003191471 0.862489581
v 0.989999771 0.000000000 0.863457703
v 0.869999886 0.130000114 0.850000024
v 0.989999771 0.130000114 0.850000024
v 0.869999886 0.256808758 0.862489581
v 0.989999771 0.256808758 0.862489581
v 0.869999886 0.378744364 0.899478316
v 0.989999771 0.378744364 0.899478316
v 0.869999886 0.491120815 0.959544778
v 0.989999771 0.491120815 0.959544778
v 0.930055130 0.540415499 1.000000000
v 0.869999886 0.540415499 1.000000000
v 0.989999771 0.540415499 1.000000000
v 0.989999771 0.000000000 1.000000000
v 0.989999771 0.030543968 1.000000000
v 0.989999771 0.042157071 1.000000000
v 0.989999771 0.130000114 1.000000000
v 0.989999771 0.141992060 1.000000000
v 0.989999771 0.229456261 1.000000000
v 0.989999771 0.240705761 1.000000000
v 0.989999771 0.337106901 1.000000000
v 0.989999771 0.346220289 1.000000000
v 0.989999771 0.464089497 1.000000000
v 0.989999771 0.468530479 1.000000000
v 0.869999886 0.019294468 1.000000000
v 0.869999886 0.030543968 1.000000000
v 0.869999886 0.000000000 1.000000000
v 0.869999886 0.118008169 1.000000000
v 0.869999886 0.130000114 1.000000000
v 0.869999886 0.217843158 1.000000000
v 0.869999886 0.229456261 1.000000000
v 0.869999886 0.327369310 1.000000000
v 0.869999886 0.337106901 1.000000000
v 0.869999886 0.459147266 1.000000000
v 0.869999886 0.464089497 1.000000000
v 0.867881994 0.000000000 0.890496796
v 0.839999676 0.000000000 0.890496796
v 0.839999676 0.008263826 0.887989998
v 0.869999886 0.008263826 0.887989998
v 0.869999886 0.000000000 0.890496796
v 0.839999676 0.130000114 0.875999928
v 0.869999886 0.130000114 0.875999928
v 0.839999676 0.251736403 0.887989998
v 0.869999886 0.251736403 0.887989998
v 0.839999676 0.368794680 0.923499107
v 0.869999886 0.368794680 0.923499107
v 0.839999676 0.476675987 0.981163025
v 0.869999886 0.476675987 0.981163025
v 0.847281838 0.499628892 1.000000000
v 0.839999676 0.499628892 1.000000000
v 0.869999886 0.499628892 1.000000000
v 0.869999886 0.030543976 1.000000000
v 0.869999886 0.040575107 1.000000000
v 0.869999886 0.140502394 1.000000000
v 0.869999886 0.229456253 1.000000000
v 0.869999886 0.239154963 1.000000000
v 0.869999886 0.337106948 1.000000000
v 0.869999886 0.344440656 1.000000000
v 0.869999886 0.464089520 1.000000000
v 0.869999886 0.466273620 1.000000000
v 0.839999676 0.020845266 1.000000000
v 0.839999676 0.030543976 1.000000000
v 0.839999676 0.000000000 1.000000000
v 0.839999676 0.119497835 1.000000000
v 0.839999676 0.130000114 1.000000000
v 0.839999676 0.219425122 1.000000000
v 0.839999676 0.229456253 1.000000000
v 0.839999676 0.329240004 1.000000000
v 0.839999676 0.337106948 1.000000000
v 0.839999676 0.461643380 1.000000000
v 0.839999676 0.464089520 1.000000000
v 0.789999962 0.130000114 0.989750028
v 0.789999962 0.160960436 0.971874952
v 0.789999962 0.160960436 0.936125040
v 0.789999962 0.130000114 0.918249965
v 0.789999962 0.099039793 0.936125040
v 0.789999962 0.099039793 0.971874952
v 1.000000000 0.102333399 0.973776530
v 1.000000000 0.099039793 0.971874952
v 1.000000000 0.130000114 0.989750028
v 1.000000000 0.099039793 0.939928170
v 1.000000000 0.099039793 0.936125040
v 1.000000000 0.126706509 0.920151542
v 1.000000000 0.130000114 0.918249965
v 1.000000000 0.157666830 0.934223463
v 1.000000000 0.160960436 0.936125040
v 1.000000000 0.160960436 0.968071823
v 1.000000000 0.160960436 0.971874952
v 1.000000000 0.133293720 0.987848450
v 0.789999962 0.417895436 1.000000000
v 0.789999962 0.403000116 0.991400123
v 0.789999962 0.388104796 1.000000000
v 1.000000000 0.399706511 0.993301700
v 0.911938936 0.388104796 1.000000000
v 1.000000000 0.403000116 0.991400123
v 1.000000000 0.388104796 1.000000000
v 0.903060645 0.417895436 1.000000000
v 1.000000000 0.417895436 1.000000000
v 0.909999847 0.394768050 1.000000000
v 0.909999847 0.394858588 1.000000000
v 0.909999847 0.394694805 0.999774575
v 0.909999847 0.380000114 0.995000005
v 0.909999847 0.365305424 0.999774575
v 0.909999847 0.365232178 1.000000000
v 0.909999847 0.365141641 1.000000000
v 0.909999847 0.394621560 1.000000000
v 0.909999847 0.394384534 1.000000000
v 1.000000000 0.365141641 1.000000000
v 1.000000000 0.365305424 0.999774575
v 1.000000000 0.366426207 0.999410413
v 1.000000000 0.380000114 0.995000005
v 1.000000000 0.381120898 0.995364167
v 1.000000000 0.394694805 0.999774575
v 0.931280073 0.394858588 1.000000000
v 1.000000000 0.394858588 1.000000000
vt 0.500000000 0.500000000
vn 0.000000000 -0.290284487 -0.956940393
vn 0.000000000 -0.098017109 -0.995184730
vn 0.000000000 0.098017109 -0.995184730
vn 0.000000000 0.290284487 -0.956940393
vn 0.000000000 0.471396717 -0.881921275
vn 0.000000000 0.634394412 -0.773009527
vn 1.000000000 -0.000000000 0.000000000
vn -1.000000000 0.000000000 -0.000000000
vn 0.000000000 -0.290283970 -0.956940550
vn 0.000000000 -0.098017889 -0.995184653
vn 0.000000000 0.098017889 -0.995184653
vn 0.000000000 0.290283699 -0.956940632
vn 0.000000000 0.471397737 -0.881920730
vn 0.000000000 0.634393548 -0.773010237
vn 0.000000000 -0.500002631 0.866023885
vn 0.000000000 -1.000000000 0.000000000
vn 0.000000000 -0.500002631 -0.866023885
vn 0.000000000 0.500002631 -0.866023885
vn 0.000000000 1.000000000 0.000000000
vn 0.000000000 0.500002631 0.866023885
vn 0.000000000 -0.809013582 -0.587789949
vn 0.000000000 -0.309015591 -0.951056972
vn 0.000000000 0.309015591 -0.951056972
vn 0.000000000 0.809013582 -0.587789949
usemtl mat_0
f 1/1/1 2/1/1 3/1/1 4/1/1
f 1/1/1 4/1/1 5/1/1
f 3/1/2 6/1/2 7/1/2
f 3/1/2 7/1/2 4/1/2
f 6/1/3 8/1/3 9/1/3
f 6/1/3 9/1/3 7/1/3
f 8/1/4 10/1/4 11/1/4
f 8/1/4 11/1/4 9/1/4
f 10/1/5 12/1/5 13/1/5
f 10/1/5 13/1/5 11/1/5
f 14/1/6 12/1/6 15/1/6
f 12/1/6 14/1/6 16/1/6 13/1/6
f 17/1/7 5/1/7 4/1/7 18/1/7
f 19/1/7 4/1/7 7/1/7 20/1/7
f 18/1/7 4/1/7 19/1/7
f 21/1/7 7/1/7 9/1/7 22/1/7
f 20/1/7 7/1/7 21/1/7
f 23/1/7 9/1/7 11/1/7 24/1/7
f 22/1/7 9/1/7 23/1/7
f 25/1/7 11/1/7 13/1/7 26/1/7
f 24/1/7 11/1/7 25/1/7
f 27/1/7 13/1/7 16/1/7
f 26/1/7 13/1/7 27/1/7
f 28/1/8 29/1/8 3/1/8
f 30/1/8 28/1/8 3/1/8 2/1/8
f 31/1/8 32/1/8 6/1/8
f 29/1/8 31/1/8 6/1/8 3/1/8
f 33/1/8 34/1/8 8/1/8
f 32/1/8 33/1/8 8/1/8 6/1/8
f 35/1/8 36/1/8 10/1/8
f 34/1/8 35/1/8 10/1/8 8/1/8
f 37/1/8 38/1/8 12/1/8
f 36/1/8 37/1/8 12/1/8 10/1/8
f 38/1/8 15/1/8 12/1/8
usemtl mat_1
f 39/1/9 40/1/9 41/1/9 42/1/9
f 39/1/9 42/1/9 43/1/9
f 41/1/10 44/1/10 45/1/10
f 41/1/10 45/1/10 42/1/10
f 44/1/11 46/1/11 47/1/11
f 44/1/11 47/1/11 45/1/11
f 46/1/12 48/1/12 49/1/12
f 46/1/12 49/1/12 47/1/12
f 48/1/13 50/1/13 51/1/13
f 48/1/13 51/1/13 49/1/13
f 52/1/14 50/1/14 53/1/14
f 50/1/14 52/1/14 54/1/14 51/1/14
f 30/1/7 43/1/7 42/1/7 55/1/7
f 56/1/7 42/1/7 45/1/7 32/1/7
f 55/1/7 42/1/7 56/1/7
f 57/1/7 45/1/7 47/1/7 58/1/7
f 32/1/7 45/1/7 57/1/7
f 59/1/7 47/1/7 49/1/7 60/1/7
f 58/1/7 47/1/7 59/1/7
f 61/1/7 49/1/7 51/1/7 62/1/7
f 60/1/7 49/1/7 61/1/7
f 63/1/7 51/1/7 54/1/7
f 62/1/7 51/1/7 63/1/7
f 64/1/8 65/1/8 41/1/8
f 66/1/8 64/1/8 41/1/8 40/1/8
f 67/1/8 68/1/8 44/1/8
f 65/1/8 67/1/8 44/1/8 41/1/8
f 69/1/8 70/1/8 46/1/8
f 68/1/8 69/1/8 46/1/8 44/1/8
f 71/1/8 72/1/8 48/1/8
f 70/1/8 71/1/8 48/1/8 46/1/8
f 73/1/8 74/1/8 50/1/8
f 72/1/8 73/1/8 50/1/8 48/1/8
f 74/1/8 53/1/8 50/1/8
usemtl mat_2
f 75/1/8 76/1/8 77/1/8
f 77/1/8 78/1/8 79/1/8
f 79/1/8 80/1/8 75/1/8
f 77/1/8 79/1/8 75/1/8
f 81/1/15 75/1/15 80/1/15 82/1/15
f 83/1/15 75/1/15 81/1/15
f 84/1/16 80/1/16 79/1/16 85/1/16
f 82/1/16 80/1/16 84/1/16
f 86/1/17 79/1/17 78/1/17 87/1/17
f 85/1/17 79/1/17 86/1/17
f 88/1/18 78/1/18 77/1/18 89/1/18
f 87/1/18 78/1/18 88/1/18
f 90/1/19 77/1/19 76/1/19 91/1/19
f 89/1/19 77/1/19 90/1/19
f 92/1/20 76/1/20 75/1/20 83/1/20
f 91/1/20 76/1/20 92/1/20
f 93/1/8 94/1/8 95/1/8
f 96/1/17 97/1/17 95/1/17
f 96/1/17 95/1/17 94/1/17
f 96/1/17 94/1/17 98/1/17
f 99/1/17 97/1/17 96/1/17
f 100/1/18 94/1/18 93/1/18
f 101/1/18 98/1/18 94/1/18 100/1/18
f 102/1/8 103/1/8 104/1/8
f 104/1/8 105/1/8 106/1/8
f 107/1/8 106/1/8 108/1/8
f 109/1/8 102/1/8 104/1/8
f 110/1/8 104/1/8 106/1/8 107/1/8
f 109/1/8 104/1/8 110/1/8
f 111/1/21 108/1/21 106/1/21 112/1/21
f 113/1/22 106/1/22 105/1/22 114/1/22
f 112/1/22 106/1/22 113/1/22
f 115/1/23 105/1/23 104/1/23 116/1/23
f 114/1/23 105/1/23 115/1/23
f 117/1/24 104/1/24 103/1/24
f 118/1/24 116/1/24 104/1/24 117/1/24
