# Authored in Blender; exported by tools-export-modern.py
mtllib materials.mtl
s off
v 0.700000000 0.000000000 0.380000114
v 0.890000105 0.000000000 0.380000114
v 0.890000105 0.950000048 0.380000114
v 0.569999933 0.000000000 0.380000114
v 0.569999933 0.950000048 0.380000114
v 0.820909142 0.950000048 0.000000000
v 0.569999933 0.950000048 0.000000000
v 0.890000105 0.950000048 0.000000000
v 0.569999933 0.604545408 0.000000000
v 0.569999933 0.000000000 0.000000000
v 0.890000105 0.604545408 0.000000000
v 0.890000105 0.000000000 0.000000000
v 0.720000029 1.000000000 0.704979897
v 0.720000029 1.000000000 0.709768859
v 0.720000029 0.939150095 0.704979897
v 0.720000029 0.752999306 0.660289049
v 0.720000029 0.576131701 0.587028027
v 0.720000029 0.412902117 0.487000704
v 0.720000029 0.267329812 0.362670422
v 0.720000029 0.142999411 0.217097998
v 0.720000029 0.042972088 0.053868294
v 0.720000029 0.025469224 0.000000000
v 0.720000029 0.020659076 0.000000000
v 0.720000029 1.000000000 0.654162203
v 0.720000029 0.034440191 0.000000000
v 0.720000029 1.000000000 0.541498533
v 0.720000029 0.051503989 0.000000000
v 0.720000029 0.961644961 0.000000000
v 0.720000029 1.000000000 0.075276008
v 0.720000029 1.000000000 0.000000000
v 0.324643072 1.000000000 0.709768859
v 0.000000000 1.000000000 0.709768859
v 0.000000000 0.939150095 0.704979897
v 0.000000000 0.861086864 0.686238574
v 0.000000000 0.752999306 0.660289049
v 0.000000000 0.678829023 0.629566686
v 0.000000000 0.576131701 0.587028027
v 0.000000000 0.507680588 0.545081087
v 0.000000000 0.412902117 0.487000704
v 0.000000000 0.351855669 0.434862201
v 0.000000000 0.267329812 0.362670422
v 0.000000000 0.215191259 0.301623924
v 0.000000000 0.142999411 0.217097998
v 0.000000000 0.101052471 0.148646835
v 0.000000000 0.042972088 0.053868294
v 0.000000000 0.020659076 0.000000000
v 0.682716159 1.000000000 0.762196114
v 0.620000124 1.000000000 0.762196114
v 0.620000124 0.881259918 0.750501156
v 0.740000010 0.881259918 0.750501156
v 0.740000010 1.000000000 0.762196114
v 0.620000124 0.642078757 0.677946329
v 0.740000010 0.642078757 0.677946329
v 0.620000124 0.421648026 0.560123682
v 0.740000010 0.421648026 0.560123682
v 0.620000124 0.228438973 0.401561260
v 0.740000010 0.228438973 0.401561260
v 0.620000124 0.069876432 0.208352089
v 0.740000010 0.069876432 0.208352089
v 0.691167799 0.000000000 0.077622371
v 0.620000124 0.000000000 0.077622371
v 0.740000010 0.000000000 0.077622371
v 0.740000010 1.000000000 0.153554340
v 0.740000010 1.000000000 0.000000000
v 0.740000010 1.000000000 0.068376862
v 0.740000010 0.922893254 0.000000000
v 0.740000010 0.904013141 0.000000000
v 0.740000010 0.795910788 0.000000000
v 0.740000010 0.776767323 0.000000000
v 0.740000010 0.630000174 0.000000000
v 0.740000010 0.611171533 0.000000000
v 0.740000010 0.381697300 0.000000000
v 0.740000010 0.366054047 0.000000000
v 0.740000010 0.000000000 0.000000000
v 0.620000124 1.000000000 0.220385848
v 0.620000124 1.000000000 0.153554340
v 0.620000124 0.942152770 0.000000000
v 0.620000124 0.922893254 0.000000000
v 0.620000124 1.000000000 0.000000000
v 0.620000124 0.815678275 0.000000000
v 0.620000124 0.795910788 0.000000000
v 0.620000124 0.649755096 0.000000000
v 0.620000124 0.630000174 0.000000000
v 0.620000124 0.398506670 0.000000000
v 0.620000124 0.381697300 0.000000000
v 0.620000124 0.000000000 0.000000000
v 0.606332350 1.000000000 0.711196090
v 0.589999914 1.000000000 0.711196090
v 0.589999914 0.891209602 0.700481176
v 0.620000124 0.891209602 0.700481176
v 0.620000124 1.000000000 0.711196090
v 0.589999914 0.661595583 0.630828381
v 0.620000124 0.661595583 0.630828381
v 0.589999914 0.449982166 0.517718792
v 0.620000124 0.449982166 0.517718792
v 0.589999914 0.264501452 0.365498543
v 0.620000124 0.264501452 0.365498543
v 0.589999914 0.112281322 0.180017948
v 0.620000124 0.112281322 0.180017948
v 0.615520868 0.016059741 0.000000000
v 0.589999914 0.016059741 0.000000000
v 0.620000124 0.016059741 0.000000000
v 0.620000124 1.000000000 0.153554569
v 0.620000124 1.000000000 0.071322108
v 0.620000124 0.922893231 0.000000000
v 0.620000124 0.904509308 0.000000000
v 0.620000124 0.795910827 0.000000000
v 0.620000124 0.777399946 0.000000000
v 0.620000124 0.630000052 0.000000000
v 0.620000124 0.612077753 0.000000000
v 0.620000124 0.381697203 0.000000000
v 0.620000124 0.367569971 0.000000000
v 0.589999914 1.000000000 0.217337368
v 0.589999914 1.000000000 0.153554569
v 0.589999914 0.941664099 0.000000000
v 0.589999914 0.922893231 0.000000000
v 0.589999914 1.000000000 0.000000000
v 0.589999914 0.815053920 0.000000000
v 0.589999914 0.795910827 0.000000000
v 0.589999914 0.648846490 0.000000000
v 0.589999914 0.630000052 0.000000000
v 0.589999914 0.396928890 0.000000000
v 0.589999914 0.381697203 0.000000000
v 0.539999962 0.799042940 0.588706493
v 0.539999962 0.859772921 0.553643942
v 0.539999962 0.859772921 0.483518839
v 0.539999962 0.799042940 0.448456287
v 0.539999962 0.738312960 0.483518839
v 0.539999962 0.738312960 0.553643942
v 0.775000095 0.859772921 0.553643942
v 0.775000095 0.799042940 0.588706493
v 0.775000095 0.738312960 0.553643942
v 0.775000095 0.738312960 0.483518839
v 0.775000095 0.799042940 0.448456287
v 0.775000095 0.859772921 0.483518839
v 0.539999962 0.500482082 0.436582327
v 0.539999962 0.561212063 0.401519775
v 0.539999962 0.561212063 0.331394672
v 0.539999962 0.500482082 0.296332121
v 0.539999962 0.439752102 0.331394672
v 0.539999962 0.439752102 0.401519775
v 0.775000095 0.561212063 0.401519775
v 0.775000095 0.500482082 0.436582327
v 0.775000095 0.439752102 0.401519775
v 0.775000095 0.439752102 0.331394672
v 0.775000095 0.500482082 0.296332121
v 0.775000095 0.561212063 0.331394672
v 0.539999962 0.263542891 0.199643135
v 0.539999962 0.324272871 0.164580584
v 0.539999962 0.324272871 0.094455481
v 0.539999962 0.263542891 0.059392929
v 0.539999962 0.202812910 0.094455481
v 0.539999962 0.202812910 0.164580584
v 0.775000095 0.324272871 0.164580584
v 0.775000095 0.263542891 0.199643135
v 0.775000095 0.202812910 0.164580584
v 0.775000095 0.202812910 0.094455481
v 0.775000095 0.263542891 0.059392929
v 0.775000095 0.324272871 0.094455481
v 0.740000010 0.571854758 0.000000000
v 0.740000010 0.566539281 0.000000000
v 0.740000010 0.595144510 0.034855604
v 0.740000010 0.709766746 0.128923655
v 0.740000010 0.840538383 0.198822498
v 0.740000010 1.000000000 0.230541437
v 0.740000010 0.982433796 0.241865873
v 0.740000010 1.000000000 0.243596020
v 0.740000010 0.580706850 0.000000000
v 0.740000010 1.000000000 0.202552283
v 0.740000010 1.000000000 0.126399973
v 0.740000010 0.873600047 0.000000000
v 0.829999924 1.000000000 0.241865873
v 0.829999924 1.000000000 0.243596020
v 0.829999924 0.982433796 0.241865873
v 0.829999924 0.840538383 0.198822498
v 0.829999924 0.709766746 0.128923655
v 0.829999924 0.580843165 0.000000000
v 0.829999924 0.595144510 0.034855604
v 0.829999924 0.566539281 0.000000000
v 0.829999924 1.000000000 0.186654556
v 0.829999924 0.623622763 0.000000000
v 0.829999924 0.915588551 0.000000000
v 0.829999924 1.000000000 0.056401923
v 0.829999924 1.000000000 0.000000000
v 0.819286389 1.000000000 0.243596020
v 0.767368156 0.566539281 0.000000000
v 0.306283122 1.000000000 0.721768810
v 0.282000065 1.000000000 0.721768810
v 0.282000065 0.937272906 0.716832161
v 0.318000078 0.937272906 0.716832161
v 0.318000078 1.000000000 0.721768810
v 0.282000065 0.749291182 0.671701670
v 0.318000078 0.749291182 0.671701670
v 0.282000065 0.570683837 0.597720146
v 0.318000078 0.570683837 0.597720146
v 0.282000065 0.405848742 0.496708870
v 0.318000078 0.405848742 0.496708870
v 0.282000065 0.258844614 0.371155500
v 0.318000078 0.258844614 0.371155500
v 0.282000065 0.133291245 0.224151373
v 0.318000078 0.133291245 0.224151373
v 0.282000065 0.032280087 0.059316158
v 0.318000078 0.032280087 0.059316158
v 0.293955810 0.007710494 0.000000000
v 0.282000065 0.007710494 0.000000000
v 0.318000078 0.007710494 0.000000000
v 0.318000078 1.000000000 0.713594845
v 0.318000078 0.939150095 0.704979897
v 0.318000078 1.000000000 0.709768859
v 0.318000078 0.752999306 0.660289049
v 0.318000078 0.576131701 0.587028027
v 0.318000078 0.412902117 0.487000704
v 0.318000078 0.267329812 0.362670422
v 0.318000078 0.142999411 0.217097998
v 0.318000078 0.042972088 0.053868294
v 0.318000078 0.011923304 0.000000000
v 0.318000078 0.020659076 0.000000000
v 0.293478174 1.000000000 0.709768859
v 0.282000065 0.939150095 0.704979897
v 0.282000065 1.000000000 0.709768859
v 0.282000065 0.752999306 0.660289049
v 0.282000065 0.576131701 0.587028027
v 0.282000065 0.412902117 0.487000704
v 0.282000065 0.267329812 0.362670422
v 0.282000065 0.142999411 0.217097998
v 0.282000065 0.042972088 0.053868294
v 0.307035602 0.020659076 0.000000000
v 0.282000065 0.020659076 0.000000000
v 0.282000065 1.000000000 0.717863210
v 0.282000065 0.016630892 0.000000000
v 0.586283094 1.000000000 0.721768810
v 0.562000036 1.000000000 0.721768810
v 0.562000036 0.937272906 0.716832161
v 0.598000050 0.937272906 0.716832161
v 0.598000050 1.000000000 0.721768810
v 0.562000036 0.749291182 0.671701670
v 0.598000050 0.749291182 0.671701670
v 0.562000036 0.570683837 0.597720146
v 0.598000050 0.570683837 0.597720146
v 0.562000036 0.405848742 0.496708870
v 0.598000050 0.405848742 0.496708870
v 0.562000036 0.258844614 0.371155500
v 0.598000050 0.258844614 0.371155500
v 0.562000036 0.133291245 0.224151373
v 0.598000050 0.133291245 0.224151373
v 0.562000036 0.032280087 0.059316158
v 0.598000050 0.032280087 0.059316158
v 0.573955782 0.007710494 0.000000000
v 0.562000036 0.007710494 0.000000000
v 0.598000050 0.007710494 0.000000000
v 0.598000050 1.000000000 0.713594845
v 0.598000050 0.939150095 0.704979897
v 0.598000050 1.000000000 0.709768859
v 0.598000050 0.752999306 0.660289049
v 0.598000050 0.576131701 0.587028027
v 0.598000050 0.412902117 0.487000704
v 0.598000050 0.267329812 0.362670422
v 0.598000050 0.142999411 0.217097998
v 0.598000050 0.042972088 0.053868294
v 0.598000050 0.011923304 0.000000000
v 0.598000050 0.020659076 0.000000000
v 0.573478146 1.000000000 0.709768859
v 0.562000036 0.939150095 0.704979897
v 0.562000036 1.000000000 0.709768859
v 0.562000036 0.752999306 0.660289049
v 0.562000036 0.576131701 0.587028027
v 0.562000036 0.412902117 0.487000704
v 0.562000036 0.267329812 0.362670422
v 0.562000036 0.142999411 0.217097998
v 0.562000036 0.042972088 0.053868294
v 0.587035574 0.020659076 0.000000000
v 0.562000036 0.020659076 0.000000000
v 0.562000036 1.000000000 0.717863210
v 0.562000036 0.016630892 0.000000000
vt 0.500000000 0.500000000
vn 0.000000000 0.000000000 1.000000000
vn 0.000000000 1.000000000 0.000000000
vn -1.000000000 0.000000000 0.000000000
vn 1.000000000 0.000000000 0.000000000
vn 0.000000000 -0.078458627 0.996917371
vn 0.000000000 -0.233445349 0.972369924
vn 0.000000000 -0.382683709 0.923879418
vn 0.000000000 -0.522498962 0.852639921
vn 0.000000000 -0.649447409 0.760406511
vn 0.000000000 -0.760406467 0.649447462
vn 0.000000000 -0.852640091 0.522498685
vn 0.000000000 -0.923879327 0.382683930
vn 0.000000000 -0.098017808 0.995184661
vn 0.000000000 -0.290284731 0.956940319
vn 0.000000000 -0.471396632 0.881921320
vn 0.000000000 -0.634392927 0.773010747
vn 0.000000000 -0.773010705 0.634392978
vn 0.000000000 -0.881921426 0.471396434
vn 0.000000000 -0.098017091 0.995184732
vn 0.000000000 -0.290285229 0.956940168
vn 0.000000000 -0.471396286 0.881921505
vn 0.000000000 -0.634393686 0.773010124
vn 0.000000000 -0.773010168 0.634393632
vn 0.000000000 -0.881921299 0.471396672
vn 0.000000000 -0.500000866 0.866024904
vn 0.000000000 -1.000000000 0.000000000
vn 0.000000000 -0.500000866 -0.866024904
vn 0.000000000 0.500000866 -0.866024904
vn 0.000000000 0.500000866 0.866024904
vn 0.000000000 -0.098018618 0.995184581
vn 0.000000000 -0.290283886 0.956940576
vn 0.000000000 -0.471396462 0.881921411
vn 0.000000000 -0.634393336 0.773010411
vn 0.000000000 -0.773010734 0.634392942
vn 0.000000000 -0.078457826 0.996917434
vn 0.000000000 -0.233445716 0.972369836
vn 0.000000000 -0.382683163 0.923879644
vn 0.000000000 -0.522499316 0.852639704
vn 0.000000000 -0.649447999 0.760406008
vn 0.000000000 -0.760406008 0.649447999
vn 0.000000000 -0.852640147 0.522498593
vn 0.000000000 -0.923879336 0.382683908
vn 0.000000000 0.078458627 -0.996917371
vn 0.000000000 0.233445349 -0.972369924
vn 0.000000000 0.382683709 -0.923879418
vn 0.000000000 0.522498962 -0.852639921
vn 0.000000000 0.649447409 -0.760406511
vn 0.000000000 0.760406467 -0.649447462
vn 0.000000000 0.852640091 -0.522498685
vn 0.000000000 0.923879327 -0.382683930
usemtl mat_0
f 1/1/1 2/1/1 3/1/1
f 4/1/1 1/1/1 3/1/1 5/1/1
f 6/1/2 7/1/2 5/1/2 3/1/2
f 6/1/2 3/1/2 8/1/2
f 9/1/3 10/1/3 4/1/3 5/1/3
f 9/1/3 5/1/3 7/1/3
f 11/1/4 8/1/4 3/1/4
f 12/1/4 11/1/4 3/1/4 2/1/4
usemtl mat_3
f 13/1/4 14/1/4 15/1/4
f 15/1/4 16/1/4 17/1/4
f 17/1/4 18/1/4 19/1/4
f 19/1/4 20/1/4 21/1/4
f 22/1/4 21/1/4 23/1/4
f 24/1/4 13/1/4 15/1/4 17/1/4
f 17/1/4 19/1/4 21/1/4
f 25/1/4 21/1/4 22/1/4
f 26/1/4 24/1/4 17/1/4 21/1/4
f 27/1/4 21/1/4 25/1/4
f 28/1/4 29/1/4 26/1/4
f 28/1/4 26/1/4 21/1/4
f 28/1/4 21/1/4 27/1/4
f 30/1/4 29/1/4 28/1/4
f 31/1/5 32/1/5 33/1/5 15/1/5
f 31/1/5 15/1/5 14/1/5
f 34/1/6 35/1/6 16/1/6
f 33/1/6 34/1/6 16/1/6 15/1/6
f 36/1/7 37/1/7 17/1/7
f 35/1/7 36/1/7 17/1/7 16/1/7
f 38/1/8 39/1/8 18/1/8
f 37/1/8 38/1/8 18/1/8 17/1/8
f 40/1/9 41/1/9 19/1/9
f 39/1/9 40/1/9 19/1/9 18/1/9
f 42/1/10 43/1/10 20/1/10
f 41/1/10 42/1/10 20/1/10 19/1/10
f 44/1/11 45/1/11 21/1/11
f 43/1/11 44/1/11 21/1/11 20/1/11
f 45/1/12 46/1/12 23/1/12 21/1/12
usemtl mat_2
f 47/1/13 48/1/13 49/1/13 50/1/13
f 47/1/13 50/1/13 51/1/13
f 49/1/14 52/1/14 53/1/14
f 49/1/14 53/1/14 50/1/14
f 52/1/15 54/1/15 55/1/15
f 52/1/15 55/1/15 53/1/15
f 54/1/16 56/1/16 57/1/16
f 54/1/16 57/1/16 55/1/16
f 56/1/17 58/1/17 59/1/17
f 56/1/17 59/1/17 57/1/17
f 60/1/18 58/1/18 61/1/18
f 58/1/18 60/1/18 62/1/18 59/1/18
f 51/1/4 50/1/4 63/1/4
f 64/1/4 65/1/4 50/1/4
f 64/1/4 50/1/4 53/1/4
f 64/1/4 53/1/4 66/1/4
f 63/1/4 50/1/4 65/1/4
f 67/1/4 53/1/4 55/1/4 68/1/4
f 66/1/4 53/1/4 67/1/4
f 69/1/4 55/1/4 57/1/4 70/1/4
f 68/1/4 55/1/4 69/1/4
f 71/1/4 57/1/4 59/1/4 72/1/4
f 70/1/4 57/1/4 71/1/4
f 73/1/4 59/1/4 62/1/4 74/1/4
f 72/1/4 59/1/4 73/1/4
f 75/1/3 76/1/3 49/1/3
f 75/1/3 49/1/3 48/1/3
f 77/1/3 78/1/3 52/1/3
f 76/1/3 79/1/3 77/1/3
f 76/1/3 77/1/3 52/1/3
f 76/1/3 52/1/3 49/1/3
f 80/1/3 81/1/3 54/1/3
f 78/1/3 80/1/3 54/1/3 52/1/3
f 82/1/3 83/1/3 56/1/3
f 81/1/3 82/1/3 56/1/3 54/1/3
f 84/1/3 85/1/3 58/1/3
f 83/1/3 84/1/3 58/1/3 56/1/3
f 85/1/3 86/1/3 61/1/3 58/1/3
usemtl mat_1
f 87/1/19 88/1/19 89/1/19 90/1/19
f 87/1/19 90/1/19 91/1/19
f 89/1/20 92/1/20 93/1/20
f 89/1/20 93/1/20 90/1/20
f 92/1/21 94/1/21 95/1/21
f 92/1/21 95/1/21 93/1/21
f 94/1/22 96/1/22 97/1/22
f 94/1/22 97/1/22 95/1/22
f 96/1/23 98/1/23 99/1/23
f 96/1/23 99/1/23 97/1/23
f 100/1/24 98/1/24 101/1/24
f 98/1/24 100/1/24 102/1/24 99/1/24
f 91/1/4 90/1/4 103/1/4
f 79/1/4 104/1/4 90/1/4
f 79/1/4 90/1/4 93/1/4
f 79/1/4 93/1/4 105/1/4
f 103/1/4 90/1/4 104/1/4
f 106/1/4 93/1/4 95/1/4 107/1/4
f 105/1/4 93/1/4 106/1/4
f 108/1/4 95/1/4 97/1/4 109/1/4
f 107/1/4 95/1/4 108/1/4
f 110/1/4 97/1/4 99/1/4 111/1/4
f 109/1/4 97/1/4 110/1/4
f 112/1/4 99/1/4 102/1/4
f 111/1/4 99/1/4 112/1/4
f 113/1/3 114/1/3 89/1/3
f 113/1/3 89/1/3 88/1/3
f 115/1/3 116/1/3 92/1/3
f 114/1/3 117/1/3 115/1/3
f 114/1/3 115/1/3 92/1/3
f 114/1/3 92/1/3 89/1/3
f 118/1/3 119/1/3 94/1/3
f 116/1/3 118/1/3 94/1/3 92/1/3
f 120/1/3 121/1/3 96/1/3
f 119/1/3 120/1/3 96/1/3 94/1/3
f 122/1/3 123/1/3 98/1/3
f 121/1/3 122/1/3 98/1/3 96/1/3
f 123/1/3 101/1/3 98/1/3
usemtl mat_2
f 124/1/3 125/1/3 126/1/3
f 126/1/3 127/1/3 128/1/3
f 128/1/3 129/1/3 124/1/3
f 126/1/3 128/1/3 124/1/3
f 130/1/4 131/1/4 132/1/4
f 132/1/4 133/1/4 134/1/4
f 134/1/4 135/1/4 130/1/4
f 132/1/4 134/1/4 130/1/4
f 124/1/25 129/1/25 132/1/25
f 124/1/25 132/1/25 131/1/25
f 129/1/26 128/1/26 133/1/26
f 129/1/26 133/1/26 132/1/26
f 128/1/27 127/1/27 134/1/27
f 128/1/27 134/1/27 133/1/27
f 127/1/28 126/1/28 135/1/28
f 127/1/28 135/1/28 134/1/28
f 126/1/2 125/1/2 130/1/2
f 126/1/2 130/1/2 135/1/2
f 125/1/29 124/1/29 131/1/29
f 125/1/29 131/1/29 130/1/29
f 136/1/3 137/1/3 138/1/3
f 138/1/3 139/1/3 140/1/3
f 140/1/3 141/1/3 136/1/3
f 138/1/3 140/1/3 136/1/3
f 142/1/4 143/1/4 144/1/4
f 144/1/4 145/1/4 146/1/4
f 146/1/4 147/1/4 142/1/4
f 144/1/4 146/1/4 142/1/4
f 136/1/25 141/1/25 144/1/25
f 136/1/25 144/1/25 143/1/25
f 141/1/26 140/1/26 145/1/26
f 141/1/26 145/1/26 144/1/26
f 140/1/27 139/1/27 146/1/27
f 140/1/27 146/1/27 145/1/27
f 139/1/28 138/1/28 147/1/28
f 139/1/28 147/1/28 146/1/28
f 138/1/2 137/1/2 142/1/2
f 138/1/2 142/1/2 147/1/2
f 137/1/29 136/1/29 143/1/29
f 137/1/29 143/1/29 142/1/29
f 148/1/3 149/1/3 150/1/3
f 150/1/3 151/1/3 152/1/3
f 152/1/3 153/1/3 148/1/3
f 150/1/3 152/1/3 148/1/3
f 154/1/4 155/1/4 156/1/4
f 156/1/4 157/1/4 158/1/4
f 158/1/4 159/1/4 154/1/4
f 156/1/4 158/1/4 154/1/4
f 148/1/25 153/1/25 156/1/25
f 148/1/25 156/1/25 155/1/25
f 153/1/26 152/1/26 157/1/26
f 153/1/26 157/1/26 156/1/26
f 152/1/27 151/1/27 158/1/27
f 152/1/27 158/1/27 157/1/27
f 151/1/28 150/1/28 159/1/28
f 151/1/28 159/1/28 158/1/28
f 150/1/2 149/1/2 154/1/2
f 150/1/2 154/1/2 159/1/2
f 149/1/29 148/1/29 155/1/29
f 149/1/29 155/1/29 154/1/29
usemtl mat_3
f 160/1/3 161/1/3 162/1/3
f 162/1/3 163/1/3 164/1/3
f 165/1/3 164/1/3 166/1/3 167/1/3
f 168/1/3 160/1/3 162/1/3
f 169/1/3 162/1/3 164/1/3 165/1/3
f 170/1/3 171/1/3 168/1/3
f 170/1/3 168/1/3 162/1/3
f 170/1/3 162/1/3 169/1/3
f 64/1/3 171/1/3 170/1/3
f 172/1/4 173/1/4 174/1/4
f 174/1/4 175/1/4 176/1/4
f 177/1/4 176/1/4 178/1/4 179/1/4
f 180/1/4 172/1/4 174/1/4 176/1/4
f 181/1/4 176/1/4 177/1/4
f 182/1/4 183/1/4 180/1/4
f 182/1/4 180/1/4 176/1/4
f 182/1/4 176/1/4 181/1/4
f 184/1/4 183/1/4 182/1/4
f 185/1/30 167/1/30 166/1/30 174/1/30
f 185/1/30 174/1/30 173/1/30
f 166/1/31 164/1/31 175/1/31
f 166/1/31 175/1/31 174/1/31
f 164/1/32 163/1/32 176/1/32
f 164/1/32 176/1/32 175/1/32
f 163/1/33 162/1/33 178/1/33
f 163/1/33 178/1/33 176/1/33
f 186/1/34 162/1/34 161/1/34
f 162/1/34 186/1/34 179/1/34 178/1/34
usemtl mat_2
f 187/1/35 188/1/35 189/1/35 190/1/35
f 187/1/35 190/1/35 191/1/35
f 189/1/36 192/1/36 193/1/36
f 189/1/36 193/1/36 190/1/36
f 192/1/37 194/1/37 195/1/37
f 192/1/37 195/1/37 193/1/37
f 194/1/38 196/1/38 197/1/38
f 194/1/38 197/1/38 195/1/38
f 196/1/39 198/1/39 199/1/39
f 196/1/39 199/1/39 197/1/39
f 198/1/40 200/1/40 201/1/40
f 198/1/40 201/1/40 199/1/40
f 200/1/41 202/1/41 203/1/41
f 200/1/41 203/1/41 201/1/41
f 204/1/42 202/1/42 205/1/42
f 202/1/42 204/1/42 206/1/42 203/1/42
f 207/1/4 191/1/4 190/1/4 208/1/4
f 207/1/4 208/1/4 209/1/4
f 190/1/4 193/1/4 210/1/4
f 190/1/4 210/1/4 208/1/4
f 193/1/4 195/1/4 211/1/4
f 193/1/4 211/1/4 210/1/4
f 195/1/4 197/1/4 212/1/4
f 195/1/4 212/1/4 211/1/4
f 197/1/4 199/1/4 213/1/4
f 197/1/4 213/1/4 212/1/4
f 199/1/4 201/1/4 214/1/4
f 199/1/4 214/1/4 213/1/4
f 201/1/4 203/1/4 215/1/4
f 201/1/4 215/1/4 214/1/4
f 216/1/4 203/1/4 206/1/4
f 203/1/4 216/1/4 217/1/4 215/1/4
f 218/1/43 209/1/43 208/1/43 219/1/43
f 218/1/43 219/1/43 220/1/43
f 208/1/44 210/1/44 221/1/44
f 208/1/44 221/1/44 219/1/44
f 210/1/45 211/1/45 222/1/45
f 210/1/45 222/1/45 221/1/45
f 211/1/46 212/1/46 223/1/46
f 211/1/46 223/1/46 222/1/46
f 212/1/47 213/1/47 224/1/47
f 212/1/47 224/1/47 223/1/47
f 213/1/48 214/1/48 225/1/48
f 213/1/48 225/1/48 224/1/48
f 214/1/49 215/1/49 226/1/49
f 214/1/49 226/1/49 225/1/49
f 227/1/50 215/1/50 217/1/50
f 215/1/50 227/1/50 228/1/50 226/1/50
f 229/1/3 220/1/3 219/1/3 189/1/3
f 229/1/3 189/1/3 188/1/3
f 219/1/3 221/1/3 192/1/3
f 219/1/3 192/1/3 189/1/3
f 221/1/3 222/1/3 194/1/3
f 221/1/3 194/1/3 192/1/3
f 222/1/3 223/1/3 196/1/3
f 222/1/3 196/1/3 194/1/3
f 223/1/3 224/1/3 198/1/3
f 223/1/3 198/1/3 196/1/3
f 224/1/3 225/1/3 200/1/3
f 224/1/3 200/1/3 198/1/3
f 225/1/3 226/1/3 202/1/3
f 225/1/3 202/1/3 200/1/3
f 230/1/3 226/1/3 228/1/3
f 226/1/3 230/1/3 205/1/3 202/1/3
f 231/1/35 232/1/35 233/1/35 234/1/35
f 231/1/35 234/1/35 235/1/35
f 233/1/36 236/1/36 237/1/36
f 233/1/36 237/1/36 234/1/36
f 236/1/37 238/1/37 239/1/37
f 236/1/37 239/1/37 237/1/37
f 238/1/38 240/1/38 241/1/38
f 238/1/38 241/1/38 239/1/38
f 240/1/39 242/1/39 243/1/39
f 240/1/39 243/1/39 241/1/39
f 242/1/40 244/1/40 245/1/40
f 242/1/40 245/1/40 243/1/40
f 244/1/41 246/1/41 247/1/41
f 244/1/41 247/1/41 245/1/41
f 248/1/42 246/1/42 249/1/42
f 246/1/42 248/1/42 250/1/42 247/1/42
f 251/1/4 235/1/4 234/1/4 252/1/4
f 251/1/4 252/1/4 253/1/4
f 234/1/4 237/1/4 254/1/4
f 234/1/4 254/1/4 252/1/4
f 237/1/4 239/1/4 255/1/4
f 237/1/4 255/1/4 254/1/4
f 239/1/4 241/1/4 256/1/4
f 239/1/4 256/1/4 255/1/4
f 241/1/4 243/1/4 257/1/4
f 241/1/4 257/1/4 256/1/4
f 243/1/4 245/1/4 258/1/4
f 243/1/4 258/1/4 257/1/4
f 245/1/4 247/1/4 259/1/4
f 245/1/4 259/1/4 258/1/4
f 260/1/4 247/1/4 250/1/4
f 247/1/4 260/1/4 261/1/4 259/1/4
f 262/1/43 253/1/43 252/1/43 263/1/43
f 262/1/43 263/1/43 264/1/43
f 252/1/44 254/1/44 265/1/44
f 252/1/44 265/1/44 263/1/44
f 254/1/45 255/1/45 266/1/45
f 254/1/45 266/1/45 265/1/45
f 255/1/46 256/1/46 267/1/46
f 255/1/46 267/1/46 266/1/46
f 256/1/47 257/1/47 268/1/47
f 256/1/47 268/1/47 267/1/47
f 257/1/48 258/1/48 269/1/48
f 257/1/48 269/1/48 268/1/48
f 258/1/49 259/1/49 270/1/49
f 258/1/49 270/1/49 269/1/49
f 271/1/50 259/1/50 261/1/50
f 259/1/50 271/1/50 272/1/50 270/1/50
f 273/1/3 264/1/3 263/1/3 233/1/3
f 273/1/3 233/1/3 232/1/3
f 263/1/3 265/1/3 236/1/3
f 263/1/3 236/1/3 233/1/3
f 265/1/3 266/1/3 238/1/3
f 265/1/3 238/1/3 236/1/3
f 266/1/3 267/1/3 240/1/3
f 266/1/3 240/1/3 238/1/3
f 267/1/3 268/1/3 242/1/3
f 267/1/3 242/1/3 240/1/3
f 268/1/3 269/1/3 244/1/3
f 268/1/3 244/1/3 242/1/3
f 269/1/3 270/1/3 246/1/3
f 269/1/3 246/1/3 244/1/3
f 274/1/3 270/1/3 272/1/3
f 270/1/3 274/1/3 249/1/3 246/1/3
