# Authored in Blender; exported by tools-export-modern.py
mtllib materials.mtl
s off
v 1.000000000 0.130447763 0.349999994
v 0.150000006 0.100000001 0.349999994
v 0.150000006 0.340000004 0.349999994
v 1.000000000 0.340000004 0.349999994
v 1.000000000 0.100000001 0.349999994
v 1.000000000 0.130447763 0.699999988
v 0.150000006 0.100000001 0.699999988
v 1.000000000 0.100000001 0.699999988
v 1.000000000 0.340000004 0.699999988
v 0.150000006 0.340000004 0.699999988
v 1.000000000 0.100000001 0.394402979
v 1.000000000 0.340000004 0.394402979
v 1.000000000 0.319264707 0.280000001
v 0.100000001 0.310000002 0.280000001
v 0.100000001 0.379999995 0.280000001
v 1.000000000 0.379999995 0.280000001
v 1.000000000 0.310000002 0.280000001
v 1.000000000 0.319264707 0.769999981
v 0.100000001 0.310000002 0.769999981
v 1.000000000 0.310000002 0.769999981
v 1.000000000 0.379999995 0.769999981
v 0.100000001 0.379999995 0.769999981
v 1.000000000 0.310000002 0.344852939
v 1.000000000 0.379999995 0.344852939
v 0.230000004 0.159999996 0.349999994
v 0.230000004 0.319999993 0.349999994
v 0.469999999 0.319999993 0.349999994
v 0.469999999 0.159999996 0.349999994
v 0.270000004 0.159999996 1.000000000
v 0.469999999 0.159999996 1.000000000
v 0.230000004 0.159999996 1.000000000
v 0.270000004 0.319999993 1.000000000
v 0.230000004 0.319999993 1.000000000
v 0.469999999 0.319999993 1.000000000
v 0.230000004 0.186666663 1.000000000
v 0.469999999 0.186666663 1.000000000
v 0.100000001 0.029999999 0.200000003
v 0.100000001 0.140000001 0.200000003
v 0.600000024 0.140000001 0.200000003
v 0.600000024 0.029999999 0.200000003
v 0.100000001 0.029999999 0.600000024
v 0.600000024 0.029999999 0.600000024
v 0.600000024 0.140000001 0.600000024
v 0.100000001 0.140000001 0.600000024
v 0.180000007 0.150000006 0.365000010
v 0.210310891 0.150000006 0.382499993
v 0.210310891 0.150000006 0.417500019
v 0.180000007 0.150000006 0.435000002
v 0.149689123 0.150000006 0.417500019
v 0.149689123 0.150000006 0.382499993
v 0.210310891 0.239999995 0.382499993
v 0.180000007 0.239999995 0.365000010
v 0.149689123 0.239999995 0.382499993
v 0.149689123 0.239999995 0.417500019
v 0.180000007 0.239999995 0.435000002
v 0.210310891 0.239999995 0.417500019
v 0.519999981 0.150000006 0.365000010
v 0.550310850 0.150000006 0.382499993
v 0.550310850 0.150000006 0.417500019
v 0.519999981 0.150000006 0.435000002
v 0.489689082 0.150000006 0.417500019
v 0.489689082 0.150000006 0.382499993
v 0.550310850 0.239999995 0.382499993
v 0.519999981 0.239999995 0.365000010
v 0.489689082 0.239999995 0.382499993
v 0.489689082 0.239999995 0.417500019
v 0.519999981 0.239999995 0.435000002
v 0.550310850 0.239999995 0.417500019
v 1.000000000 0.430000004 0.819999993
v 0.649999976 0.379999995 0.819999993
v 0.649999976 0.730000019 0.819999993
v 1.000000000 0.730000019 0.819999993
v 1.000000000 0.379999995 0.819999993
v 1.000000000 0.379999995 0.885714282
v 0.649999976 0.379999995 1.000000000
v 1.000000000 0.379999995 1.000000000
v 1.000000000 0.730000019 1.000000000
v 1.000000000 0.730000019 0.885714282
v 0.649999976 0.730000019 1.000000000
v 0.649999976 0.516956538 1.000000000
v 0.699999988 1.000000000 0.919747608
v 0.699999988 1.000000000 0.914751566
v 0.699999988 0.970000029 0.910000026
v 0.699999988 0.911286771 0.919299304
v 0.699999988 0.858320832 0.946286798
v 0.699999988 0.819295928 1.000000000
v 0.699999988 0.816286802 0.988320827
v 0.699999988 0.810335974 1.000000000
v 0.699999988 1.000000000 0.946286798
v 0.699999988 0.840868356 1.000000000
v 0.699999988 1.000000000 1.000000000
v 1.000000000 0.810335974 1.000000000
v 1.000000000 0.816286802 0.988320827
v 1.000000000 0.821891340 0.982716290
v 1.000000000 0.858320832 0.946286798
v 1.000000000 0.865382958 0.942688465
v 1.000000000 0.911286771 0.919299304
v 1.000000000 0.919115206 0.918059401
v 1.000000000 0.970000029 0.910000026
v 1.000000000 1.000000000 0.914751566
v 1.000000000 0.977828455 0.911239930
v 0.696161784 0.763912675 1.000000000
v 0.659999967 0.763912675 1.000000000
v 0.659999967 0.778761983 0.972218871
v 0.779999971 0.778761983 0.972218871
v 0.779999971 0.763912675 1.000000000
v 0.659999967 0.807365477 0.937365472
v 0.779999971 0.807365477 0.937365472
v 0.659999967 0.842218876 0.908761978
v 0.779999971 0.842218876 0.908761978
v 0.659999967 0.881982863 0.887507737
v 0.779999971 0.881982863 0.887507737
v 0.659999967 0.925129235 0.874419391
v 0.779999971 0.925129235 0.874419391
v 0.659999967 0.970000029 0.870000005
v 0.779999971 0.970000029 0.870000005
v 0.740230361 1.000000000 0.872954747
v 0.659999967 1.000000000 0.872954747
v 0.779999971 1.000000000 0.872954747
v 0.779999971 0.820339367 1.000000000
v 0.779999971 0.824261320 1.000000000
v 0.779999971 0.870000033 1.000000000
v 0.779999971 0.875342840 1.000000000
v 0.779999971 0.903182159 1.000000000
v 0.779999971 0.908732386 1.000000000
v 0.779999971 0.928578704 1.000000000
v 0.779999971 0.934062733 1.000000000
v 0.779999971 0.950108779 1.000000000
v 0.779999971 0.955492858 1.000000000
v 0.779999971 0.970000029 1.000000000
v 0.779999971 0.975317835 1.000000000
v 0.779999971 1.000000000 0.949179861
v 0.779999971 0.989891259 1.000000000
v 0.779999971 0.995188402 1.000000000
v 0.779999971 1.000000000 0.969300256
v 0.779999971 1.000000000 1.000000000
v 0.659999967 0.816869973 1.000000000
v 0.659999967 0.820339367 1.000000000
v 0.659999967 0.865077077 1.000000000
v 0.659999967 0.870000033 1.000000000
v 0.659999967 0.897927329 1.000000000
v 0.659999967 0.903182159 1.000000000
v 0.659999967 0.923277351 1.000000000
v 0.659999967 0.928578704 1.000000000
v 0.659999967 0.944811636 1.000000000
v 0.659999967 0.950108779 1.000000000
v 0.659999967 0.964682223 1.000000000
v 0.659999967 0.970000029 1.000000000
v 0.659999967 1.000000000 0.935923313
v 0.659999967 0.984507180 1.000000000
v 0.659999967 0.989891259 1.000000000
v 0.659999967 1.000000000 0.949179861
v 0.659999967 1.000000000 1.000000000
v 0.642184000 0.774294220 1.000000000
v 0.629999995 0.774294220 1.000000000
v 0.629999995 0.786411524 0.977330089
v 0.659999967 0.786411524 0.977330089
v 0.659999967 0.774294220 1.000000000
v 0.629999995 0.813870847 0.943870842
v 0.659999967 0.813870847 0.943870842
v 0.629999995 0.847330093 0.916411519
v 0.659999967 0.847330093 0.916411519
v 0.629999995 0.885503531 0.896007419
v 0.659999967 0.885503531 0.896007419
v 0.629999995 0.926924109 0.883442640
v 0.659999967 0.926924109 0.883442640
v 0.629999995 0.970000029 0.879200041
v 0.659999967 0.970000029 0.879200041
v 0.650893299 1.000000000 0.882154775
v 0.629999995 1.000000000 0.882154775
v 0.659999967 1.000000000 0.882154775
v 0.659999967 0.820339418 1.000000000
v 0.659999967 0.823713112 1.000000000
v 0.659999967 0.870000031 1.000000000
v 0.659999967 0.875041416 1.000000000
v 0.659999967 0.903182141 1.000000000
v 0.659999967 0.908532296 1.000000000
v 0.659999967 0.928578698 1.000000000
v 0.659999967 0.933909898 1.000000000
v 0.659999967 0.950108792 1.000000000
v 0.659999967 0.955361404 1.000000000
v 0.659999967 0.975191879 1.000000000
v 0.659999967 1.000000000 0.949179919
v 0.659999967 0.989891265 1.000000000
v 0.659999967 0.995054804 1.000000000
v 0.659999967 1.000000000 0.968015405
v 0.629999995 0.817373550 1.000000000
v 0.629999995 0.820339418 1.000000000
v 0.629999995 0.865374061 1.000000000
v 0.629999995 0.870000031 1.000000000
v 0.629999995 0.898130756 1.000000000
v 0.629999995 0.903182141 1.000000000
v 0.629999995 0.923433926 1.000000000
v 0.629999995 0.928578698 1.000000000
v 0.629999995 0.944945253 1.000000000
v 0.629999995 0.950108792 1.000000000
v 0.629999995 0.964808178 1.000000000
v 0.629999995 0.970000029 1.000000000
v 0.629999995 1.000000000 0.937037681
v 0.629999995 0.984638653 1.000000000
v 0.629999995 0.989891265 1.000000000
v 0.629999995 1.000000000 0.949179919
v 0.629999995 1.000000000 1.000000000
v 0.579999983 0.833387017 0.976037025
v 0.579999983 0.844342232 0.969712019
v 0.579999983 0.844342232 0.957062006
v 0.579999983 0.833387017 0.950737000
v 0.579999983 0.822431803 0.957062006
v 0.579999983 0.822431803 0.969712019
v 0.814999998 0.844342232 0.969712019
v 0.814999998 0.833387017 0.976037025
v 0.814999998 0.822431803 0.969712019
v 0.814999998 0.822431803 0.957062006
v 0.814999998 0.833387017 0.950737000
v 0.814999998 0.844342232 0.957062006
v 0.579999983 0.970000029 0.919450045
v 0.579999983 0.980955243 0.913125038
v 0.579999983 0.980955243 0.900475025
v 0.579999983 0.970000029 0.894150019
v 0.579999983 0.959044814 0.900475025
v 0.579999983 0.959044814 0.913125038
v 0.814999998 0.980955243 0.913125038
v 0.814999998 0.970000029 0.919450045
v 0.814999998 0.959044814 0.913125038
v 0.814999998 0.959044814 0.900475025
v 0.814999998 0.970000029 0.894150019
v 0.814999998 0.980955243 0.900475025
vt 0.500000000 0.500000000
vn 0.000000000 0.000000000 -1.000000000
vn 0.000000000 0.000000000 1.000000000
vn 0.000000000 -1.000000000 0.000000000
vn 0.000000000 1.000000000 0.000000000
vn -1.000000000 0.000000000 0.000000000
vn 1.000000000 0.000000000 0.000000000
vn -0.499999704 0.000000000 -0.866025574
vn -0.499999704 0.000000000 0.866025574
vn 0.499999704 0.000000000 0.866025574
vn 0.499999704 0.000000000 -0.866025574
vn -0.499999520 0.000000000 -0.866025681
vn -0.499999520 0.000000000 0.866025681
vn 0.499999889 0.000000000 0.866025468
vn 0.499999889 0.000000000 -0.866025468
vn 0.000000000 -0.891006737 -0.453990083
vn 0.000000000 -0.707106781 -0.707106781
vn 0.000000000 -0.453990488 -0.891006530
vn 0.000000000 -0.156434660 -0.987688310
vn 0.000000000 0.156434815 -0.987688285
vn 0.000000000 -0.881921454 -0.471396382
vn 0.000000000 -0.773009921 -0.634393933
vn 0.000000000 -0.634393933 -0.773009921
vn 0.000000000 -0.471395832 -0.881921748
vn 0.000000000 -0.290285423 -0.956940110
vn 0.000000000 -0.098017117 -0.995184729
vn 0.000000000 0.098017246 -0.995184716
vn 0.000000000 -0.881921522 -0.471396255
vn 0.000000000 -0.773010117 -0.634393695
vn 0.000000000 -0.634393695 -0.773010117
vn 0.000000000 -0.471396255 -0.881921522
vn 0.000000000 -0.290284319 -0.956940444
vn 0.000000000 -0.098016941 -0.995184746
vn 0.000000000 0.098016941 -0.995184746
vn 0.000000000 -0.500000619 0.866025046
vn 0.000000000 -0.500000619 -0.866025046
vn 0.000000000 0.500000619 -0.866025046
vn 0.000000000 0.500000619 0.866025046
usemtl mat_0
f 1/1/1 2/1/1 3/1/1 4/1/1
f 5/1/1 2/1/1 1/1/1
f 6/1/2 7/1/2 8/1/2
f 7/1/2 6/1/2 9/1/2 10/1/2
f 11/1/3 2/1/3 5/1/3
f 2/1/3 11/1/3 8/1/3 7/1/3
f 12/1/4 3/1/4 10/1/4 9/1/4
f 4/1/4 3/1/4 12/1/4
f 2/1/5 7/1/5 10/1/5
f 2/1/5 10/1/5 3/1/5
f 13/1/1 14/1/1 15/1/1 16/1/1
f 17/1/1 14/1/1 13/1/1
f 18/1/2 19/1/2 20/1/2
f 19/1/2 18/1/2 21/1/2 22/1/2
f 23/1/3 14/1/3 17/1/3
f 14/1/3 23/1/3 20/1/3 19/1/3
f 24/1/4 15/1/4 22/1/4 21/1/4
f 16/1/4 15/1/4 24/1/4
f 14/1/5 19/1/5 22/1/5
f 14/1/5 22/1/5 15/1/5
f 25/1/1 26/1/1 27/1/1
f 25/1/1 27/1/1 28/1/1
f 29/1/3 25/1/3 28/1/3 30/1/3
f 31/1/3 25/1/3 29/1/3
f 32/1/4 26/1/4 33/1/4
f 26/1/4 32/1/4 34/1/4 27/1/4
f 35/1/5 25/1/5 31/1/5
f 25/1/5 35/1/5 33/1/5 26/1/5
f 36/1/6 28/1/6 27/1/6 34/1/6
f 30/1/6 28/1/6 36/1/6
usemtl mat_1
f 37/1/1 38/1/1 39/1/1
f 37/1/1 39/1/1 40/1/1
f 41/1/2 42/1/2 43/1/2
f 41/1/2 43/1/2 44/1/2
f 37/1/3 40/1/3 42/1/3
f 37/1/3 42/1/3 41/1/3
f 38/1/4 44/1/4 43/1/4
f 38/1/4 43/1/4 39/1/4
f 37/1/5 41/1/5 44/1/5
f 37/1/5 44/1/5 38/1/5
f 40/1/6 39/1/6 43/1/6
f 40/1/6 43/1/6 42/1/6
usemtl mat_2
f 45/1/3 46/1/3 47/1/3
f 47/1/3 48/1/3 49/1/3
f 49/1/3 50/1/3 45/1/3
f 47/1/3 49/1/3 45/1/3
f 51/1/4 52/1/4 53/1/4
f 53/1/4 54/1/4 55/1/4
f 55/1/4 56/1/4 51/1/4
f 53/1/4 55/1/4 51/1/4
f 45/1/7 50/1/7 53/1/7
f 45/1/7 53/1/7 52/1/7
f 50/1/5 49/1/5 54/1/5
f 50/1/5 54/1/5 53/1/5
f 49/1/8 48/1/8 55/1/8
f 49/1/8 55/1/8 54/1/8
f 48/1/9 47/1/9 56/1/9
f 48/1/9 56/1/9 55/1/9
f 47/1/6 46/1/6 51/1/6
f 47/1/6 51/1/6 56/1/6
f 46/1/10 45/1/10 52/1/10
f 46/1/10 52/1/10 51/1/10
f 57/1/3 58/1/3 59/1/3
f 59/1/3 60/1/3 61/1/3
f 61/1/3 62/1/3 57/1/3
f 59/1/3 61/1/3 57/1/3
f 63/1/4 64/1/4 65/1/4
f 65/1/4 66/1/4 67/1/4
f 67/1/4 68/1/4 63/1/4
f 65/1/4 67/1/4 63/1/4
f 57/1/11 62/1/11 65/1/11
f 57/1/11 65/1/11 64/1/11
f 62/1/5 61/1/5 66/1/5
f 62/1/5 66/1/5 65/1/5
f 61/1/12 60/1/12 67/1/12
f 61/1/12 67/1/12 66/1/12
f 60/1/13 59/1/13 68/1/13
f 60/1/13 68/1/13 67/1/13
f 59/1/6 58/1/6 63/1/6
f 59/1/6 63/1/6 68/1/6
f 58/1/14 57/1/14 64/1/14
f 58/1/14 64/1/14 63/1/14
usemtl mat_0
f 69/1/1 70/1/1 71/1/1 72/1/1
f 73/1/1 70/1/1 69/1/1
f 74/1/3 70/1/3 73/1/3
f 75/1/3 70/1/3 74/1/3 76/1/3
f 77/1/4 78/1/4 71/1/4 79/1/4
f 72/1/4 71/1/4 78/1/4
f 80/1/5 70/1/5 75/1/5
f 70/1/5 80/1/5 79/1/5 71/1/5
usemtl mat_2
f 81/1/5 82/1/5 83/1/5
f 83/1/5 84/1/5 85/1/5
f 86/1/5 85/1/5 87/1/5 88/1/5
f 89/1/5 81/1/5 83/1/5 85/1/5
f 90/1/5 85/1/5 86/1/5
f 91/1/5 89/1/5 85/1/5 90/1/5
f 92/1/15 88/1/15 87/1/15 93/1/15
f 94/1/16 87/1/16 85/1/16 95/1/16
f 93/1/16 87/1/16 94/1/16
f 96/1/17 85/1/17 84/1/17 97/1/17
f 95/1/17 85/1/17 96/1/17
f 98/1/18 84/1/18 83/1/18 99/1/18
f 97/1/18 84/1/18 98/1/18
f 100/1/19 101/1/19 83/1/19 82/1/19
f 99/1/19 83/1/19 101/1/19
f 102/1/20 103/1/20 104/1/20 105/1/20
f 102/1/20 105/1/20 106/1/20
f 104/1/21 107/1/21 108/1/21
f 104/1/21 108/1/21 105/1/21
f 107/1/22 109/1/22 110/1/22
f 107/1/22 110/1/22 108/1/22
f 109/1/23 111/1/23 112/1/23
f 109/1/23 112/1/23 110/1/23
f 111/1/24 113/1/24 114/1/24
f 111/1/24 114/1/24 112/1/24
f 113/1/25 115/1/25 116/1/25
f 113/1/25 116/1/25 114/1/25
f 117/1/26 115/1/26 118/1/26
f 115/1/26 117/1/26 119/1/26 116/1/26
f 106/1/6 105/1/6 120/1/6
f 121/1/6 105/1/6 108/1/6 122/1/6
f 120/1/6 105/1/6 121/1/6
f 123/1/6 108/1/6 110/1/6 124/1/6
f 122/1/6 108/1/6 123/1/6
f 125/1/6 110/1/6 112/1/6 126/1/6
f 124/1/6 110/1/6 125/1/6
f 127/1/6 112/1/6 114/1/6 128/1/6
f 126/1/6 112/1/6 127/1/6
f 129/1/6 114/1/6 116/1/6 130/1/6
f 128/1/6 114/1/6 129/1/6
f 131/1/6 116/1/6 119/1/6
f 131/1/6 119/1/6 132/1/6
f 131/1/6 132/1/6 133/1/6
f 130/1/6 116/1/6 131/1/6
f 134/1/6 135/1/6 136/1/6
f 133/1/6 132/1/6 135/1/6 134/1/6
f 137/1/5 138/1/5 104/1/5
f 137/1/5 104/1/5 103/1/5
f 139/1/5 140/1/5 107/1/5
f 138/1/5 139/1/5 107/1/5 104/1/5
f 141/1/5 142/1/5 109/1/5
f 140/1/5 141/1/5 109/1/5 107/1/5
f 143/1/5 144/1/5 111/1/5
f 142/1/5 143/1/5 111/1/5 109/1/5
f 145/1/5 146/1/5 113/1/5
f 144/1/5 145/1/5 113/1/5 111/1/5
f 147/1/5 148/1/5 115/1/5
f 146/1/5 147/1/5 115/1/5 113/1/5
f 149/1/5 150/1/5 151/1/5 152/1/5
f 148/1/5 150/1/5 149/1/5
f 148/1/5 149/1/5 118/1/5
f 148/1/5 118/1/5 115/1/5
f 153/1/5 152/1/5 151/1/5
usemtl mat_1
f 154/1/27 155/1/27 156/1/27 157/1/27
f 154/1/27 157/1/27 158/1/27
f 156/1/28 159/1/28 160/1/28
f 156/1/28 160/1/28 157/1/28
f 159/1/29 161/1/29 162/1/29
f 159/1/29 162/1/29 160/1/29
f 161/1/30 163/1/30 164/1/30
f 161/1/30 164/1/30 162/1/30
f 163/1/31 165/1/31 166/1/31
f 163/1/31 166/1/31 164/1/31
f 165/1/32 167/1/32 168/1/32
f 165/1/32 168/1/32 166/1/32
f 169/1/33 167/1/33 170/1/33
f 167/1/33 169/1/33 171/1/33 168/1/33
f 158/1/6 157/1/6 172/1/6
f 173/1/6 157/1/6 160/1/6 174/1/6
f 172/1/6 157/1/6 173/1/6
f 175/1/6 160/1/6 162/1/6 176/1/6
f 174/1/6 160/1/6 175/1/6
f 177/1/6 162/1/6 164/1/6 178/1/6
f 176/1/6 162/1/6 177/1/6
f 179/1/6 164/1/6 166/1/6 180/1/6
f 178/1/6 164/1/6 179/1/6
f 181/1/6 166/1/6 168/1/6 148/1/6
f 180/1/6 166/1/6 181/1/6
f 182/1/6 168/1/6 171/1/6
f 182/1/6 171/1/6 183/1/6
f 182/1/6 183/1/6 184/1/6
f 148/1/6 168/1/6 182/1/6
f 185/1/6 186/1/6 153/1/6
f 184/1/6 183/1/6 186/1/6 185/1/6
f 187/1/5 188/1/5 156/1/5
f 187/1/5 156/1/5 155/1/5
f 189/1/5 190/1/5 159/1/5
f 188/1/5 189/1/5 159/1/5 156/1/5
f 191/1/5 192/1/5 161/1/5
f 190/1/5 191/1/5 161/1/5 159/1/5
f 193/1/5 194/1/5 163/1/5
f 192/1/5 193/1/5 163/1/5 161/1/5
f 195/1/5 196/1/5 165/1/5
f 194/1/5 195/1/5 165/1/5 163/1/5
f 197/1/5 198/1/5 167/1/5
f 196/1/5 197/1/5 167/1/5 165/1/5
f 199/1/5 200/1/5 201/1/5 202/1/5
f 198/1/5 200/1/5 199/1/5
f 198/1/5 199/1/5 170/1/5
f 198/1/5 170/1/5 167/1/5
f 203/1/5 202/1/5 201/1/5
usemtl mat_2
f 204/1/5 205/1/5 206/1/5
f 206/1/5 207/1/5 208/1/5
f 208/1/5 209/1/5 204/1/5
f 206/1/5 208/1/5 204/1/5
f 210/1/6 211/1/6 212/1/6
f 212/1/6 213/1/6 214/1/6
f 214/1/6 215/1/6 210/1/6
f 212/1/6 214/1/6 210/1/6
f 204/1/34 209/1/34 212/1/34
f 204/1/34 212/1/34 211/1/34
f 209/1/3 208/1/3 213/1/3
f 209/1/3 213/1/3 212/1/3
f 208/1/35 207/1/35 214/1/35
f 208/1/35 214/1/35 213/1/35
f 207/1/36 206/1/36 215/1/36
f 207/1/36 215/1/36 214/1/36
f 206/1/4 205/1/4 210/1/4
f 206/1/4 210/1/4 215/1/4
f 205/1/37 204/1/37 211/1/37
f 205/1/37 211/1/37 210/1/37
f 216/1/5 217/1/5 218/1/5
f 218/1/5 219/1/5 220/1/5
f 220/1/5 221/1/5 216/1/5
f 218/1/5 220/1/5 216/1/5
f 222/1/6 223/1/6 224/1/6
f 224/1/6 225/1/6 226/1/6
f 226/1/6 227/1/6 222/1/6
f 224/1/6 226/1/6 222/1/6
f 216/1/34 221/1/34 224/1/34
f 216/1/34 224/1/34 223/1/34
f 221/1/3 220/1/3 225/1/3
f 221/1/3 225/1/3 224/1/3
f 220/1/35 219/1/35 226/1/35
f 220/1/35 226/1/35 225/1/35
f 219/1/36 218/1/36 227/1/36
f 219/1/36 227/1/36 226/1/36
f 218/1/4 217/1/4 222/1/4
f 218/1/4 222/1/4 227/1/4
f 217/1/37 216/1/37 223/1/37
f 217/1/37 223/1/37 222/1/37
