# metre = block; Y up; per-cell coordinates; atlas UVs preserved
mtllib materials.mtl
o cell_39
usemtl pump_atlas
v 0.9418257 0.5340894 0.0000000
v 1.0000000 0.5512593 0.0256967
v 1.0000000 0.5825708 0.0000000
v 0.8286045 0.4071068 0.0000000
v 1.0000000 0.4419516 0.0841228
v 1.0000000 0.5246780 0.0399047
v 0.8286045 0.4071068 0.0000000
v 1.0000000 0.5246780 0.0399047
v 0.8765777 0.4609109 0.0000000
v 0.8765777 0.4609109 0.0000000
v 1.0000000 0.5246780 0.0399047
v 1.0000000 0.5512593 0.0256967
v 0.8765777 0.4609109 0.0000000
v 1.0000000 0.5512593 0.0256967
v 0.9418257 0.5340894 0.0000000
v 0.7694976 0.2994562 0.0000000
v 1.0000000 0.3233459 0.1201014
v 1.0000000 0.4131092 0.0928721
v 0.7694976 0.2994562 0.0000000
v 1.0000000 0.4131092 0.0928721
v 0.7777651 0.3145137 0.0000000
v 0.7777651 0.3145137 0.0000000
v 1.0000000 0.4131092 0.0928721
v 1.0000000 0.4419516 0.0841228
v 0.7777651 0.3145137 0.0000000
v 1.0000000 0.4419516 0.0841228
v 0.8286045 0.4071068 0.0000000
v 0.7510589 0.2000000 0.0000000
v 1.0000000 0.2000000 0.1322499
v 1.0000000 0.2933507 0.1230557
v 0.7510589 0.2000000 0.0000000
v 1.0000000 0.2933507 0.1230557
v 0.7521154 0.2056984 0.0000000
v 0.7521154 0.2056984 0.0000000
v 1.0000000 0.2933507 0.1230557
v 1.0000000 0.3233459 0.1201014
v 0.7521154 0.2056984 0.0000000
v 1.0000000 0.3233459 0.1201014
v 0.7694976 0.2994562 0.0000000
v 0.7694976 0.1005439 0.0000000
v 1.0000000 0.0766542 0.1201014
v 1.0000000 0.1066494 0.1230557
v 0.7694976 0.1005439 0.0000000
v 1.0000000 0.1066494 0.1230557
v 0.7521154 0.1943016 0.0000000
v 0.7521154 0.1943016 0.0000000
v 1.0000000 0.1066494 0.1230557
v 1.0000000 0.2000000 0.1322499
v 0.7521154 0.1943016 0.0000000
v 1.0000000 0.2000000 0.1322499
v 0.7510589 0.2000000 0.0000000
v 0.8247025 0.0000000 0.0000000
v 0.9704521 0.0000000 0.0805240
v 0.7777651 0.0854864 0.0000000
v 0.7777651 0.0854864 0.0000000
v 0.9704521 0.0000000 0.0805240
v 1.0000000 0.0000000 0.0968487
v 0.7777651 0.0854864 0.0000000
v 1.0000000 0.0000000 0.0968487
v 1.0000000 0.0766542 0.1201014
v 0.7777651 0.0854864 0.0000000
v 1.0000000 0.0766542 0.1201014
v 0.7694976 0.1005439 0.0000000
v 0.5800000 0.1940000 0.2320000
v 0.6220000 0.1520001 0.2320000
v 0.6220000 0.1940000 0.2740000
v 0.5800000 0.2060001 0.2320000
v 0.6220000 0.2060001 0.2740000
v 0.6220000 0.2480000 0.2320000
v 0.6220000 0.1940000 0.2740000
v 0.6220000 0.1520001 0.2320000
v 1.0000000 0.1520001 0.2320000
v 0.6220000 0.1940000 0.2740000
v 1.0000000 0.1520001 0.2320000
v 1.0000000 0.1840527 0.2640526
v 0.6220000 0.1940000 0.2740000
v 1.0000000 0.1840527 0.2640526
v 1.0000000 0.1940000 0.2740000
v 0.5800000 0.1940000 0.2320000
v 0.5800000 0.1940000 0.0000000
v 0.5866557 0.1873443 0.0000000
v 0.5800000 0.1940000 0.2320000
v 0.5866557 0.1873443 0.0000000
v 0.6220000 0.1520001 0.0000000
v 0.5800000 0.1940000 0.2320000
v 0.6220000 0.1520001 0.0000000
v 0.6220000 0.1520001 0.2320000
v 0.5800000 0.2060001 0.2320000
v 0.6220000 0.2480000 0.2320000
v 0.6220000 0.2480000 0.0000000
v 0.5800000 0.2060001 0.2320000
v 0.6220000 0.2480000 0.0000000
v 0.5866557 0.2126558 0.0000000
v 0.5800000 0.2060001 0.2320000
v 0.5866557 0.2126558 0.0000000
v 0.5800000 0.2060001 0.0000000
v 0.6220000 0.2060001 0.2740000
v 1.0000000 0.2060001 0.2740000
v 1.0000000 0.2159474 0.2640526
v 0.6220000 0.2060001 0.2740000
v 1.0000000 0.2159474 0.2640526
v 1.0000000 0.2480000 0.2320000
v 0.6220000 0.2060001 0.2740000
v 1.0000000 0.2480000 0.2320000
v 0.6220000 0.2480000 0.2320000
v 0.5800000 0.1940000 0.2320000
v 0.6220000 0.1940000 0.2740000
v 0.6220000 0.2060001 0.2740000
v 0.5800000 0.1940000 0.2320000
v 0.6220000 0.2060001 0.2740000
v 0.5800000 0.2060001 0.2320000
v 0.6220000 0.1940000 0.2740000
v 1.0000000 0.1940000 0.2740000
v 1.0000000 0.1968421 0.2740000
v 0.6220000 0.1940000 0.2740000
v 1.0000000 0.1968421 0.2740000
v 1.0000000 0.2060001 0.2740000
v 0.6220000 0.1940000 0.2740000
v 1.0000000 0.2060001 0.2740000
v 0.6220000 0.2060001 0.2740000
v 0.6220000 0.1520001 0.2320000
v 0.6220000 0.1520001 0.0000000
v 0.8749181 0.1520001 0.0000000
v 0.6220000 0.1520001 0.2320000
v 0.8749181 0.1520001 0.0000000
v 1.0000000 0.1520001 0.0000000
v 0.6220000 0.1520001 0.2320000
v 1.0000000 0.1520001 0.0000000
v 1.0000000 0.1520001 0.2320000
v 0.5800000 0.1940000 0.2320000
v 0.5800000 0.2060001 0.2320000
v 0.5800000 0.2060001 0.0000000
v 0.5800000 0.1940000 0.2320000
v 0.5800000 0.2060001 0.0000000
v 0.5800000 0.1959017 0.0000000
v 0.5800000 0.1940000 0.2320000
v 0.5800000 0.1959017 0.0000000
v 0.5800000 0.1940000 0.0000000
v 0.6220000 0.2480000 0.2320000
v 1.0000000 0.2480000 0.2320000
v 1.0000000 0.2480000 0.0000000
v 0.6220000 0.2480000 0.2320000
v 1.0000000 0.2480000 0.0000000
v 0.8749181 0.2480000 0.0000000
v 0.6220000 0.2480000 0.2320000
v 0.8749181 0.2480000 0.0000000
v 0.6220000 0.2480000 0.0000000
v 0.7798002 0.2516000 0.2000593
v 0.7798002 0.2924000 0.2000593
v 0.7636001 0.2924000 0.1720001
v 0.7798002 0.2516000 0.2000593
v 0.7636001 0.2924000 0.1720001
v 0.7636001 0.2516000 0.1720001
v 0.8122001 0.2516000 0.2000593
v 0.8122001 0.2924000 0.2000593
v 0.7798002 0.2924000 0.2000593
v 0.8122001 0.2516000 0.2000593
v 0.7798002 0.2924000 0.2000593
v 0.7798002 0.2516000 0.2000593
v 0.8284001 0.2516000 0.1720001
v 0.8284001 0.2924000 0.1720001
v 0.8122001 0.2924000 0.2000593
v 0.8284001 0.2516000 0.1720001
v 0.8122001 0.2924000 0.2000593
v 0.8122001 0.2516000 0.2000593
v 0.8284001 0.2516000 0.1720001
v 0.8122001 0.2516000 0.1439408
v 0.8122001 0.2924000 0.1439408
v 0.8284001 0.2516000 0.1720001
v 0.8122001 0.2924000 0.1439408
v 0.8284001 0.2924000 0.1720001
v 0.8122001 0.2516000 0.1439408
v 0.7798002 0.2516000 0.1439408
v 0.7798002 0.2924000 0.1439408
v 0.8122001 0.2516000 0.1439408
v 0.7798002 0.2924000 0.1439408
v 0.8122001 0.2924000 0.1439408
v 0.7798002 0.2516000 0.1439408
v 0.7636001 0.2516000 0.1720001
v 0.7636001 0.2924000 0.1720001
v 0.7798002 0.2516000 0.1439408
v 0.7636001 0.2924000 0.1720001
v 0.7798002 0.2924000 0.1439408
v 0.8284001 0.2516000 0.1720001
v 0.8122001 0.2516000 0.2000593
v 0.7798002 0.2516000 0.2000593
v 0.8284001 0.2516000 0.1720001
v 0.7798002 0.2516000 0.2000593
v 0.7636001 0.2516000 0.1720001
v 0.8284001 0.2516000 0.1720001
v 0.7636001 0.2516000 0.1720001
v 0.7798002 0.2516000 0.1439408
v 0.8284001 0.2516000 0.1720001
v 0.7798002 0.2516000 0.1439408
v 0.8122001 0.2516000 0.1439408
v 0.8284001 0.2924000 0.1720001
v 0.8122001 0.2924000 0.1439408
v 0.7798002 0.2924000 0.1439408
v 0.8284001 0.2924000 0.1720001
v 0.7798002 0.2924000 0.1439408
v 0.7636001 0.2924000 0.1720001
v 0.8284001 0.2924000 0.1720001
v 0.7636001 0.2924000 0.1720001
v 0.7798002 0.2924000 0.2000593
v 0.8284001 0.2924000 0.1720001
v 0.7798002 0.2924000 0.2000593
v 0.8122001 0.2924000 0.2000593
vt 0.6563689 0.0896882
vt 0.6601563 0.0910855
vt 0.6601563 0.0936337
vt 0.6489977 0.0793544
vt 0.6601563 0.0821901
vt 0.6601563 0.0889223
vt 0.6489977 0.0793544
vt 0.6601563 0.0889223
vt 0.6521210 0.0837330
vt 0.6521210 0.0837330
vt 0.6601563 0.0889223
vt 0.6601563 0.0910855
vt 0.6521210 0.0837330
vt 0.6601563 0.0910855
vt 0.6563689 0.0896882
vt 0.6451496 0.0705937
vt 0.6601563 0.0725379
vt 0.6601563 0.0798428
vt 0.6451496 0.0705937
vt 0.6601563 0.0798428
vt 0.6456879 0.0718191
vt 0.6456879 0.0718191
vt 0.6601563 0.0798428
vt 0.6601563 0.0821901
vt 0.6456879 0.0718191
vt 0.6601563 0.0821901
vt 0.6489977 0.0793544
vt 0.6439492 0.0625000
vt 0.6601563 0.0625000
vt 0.6601563 0.0700969
vt 0.6439492 0.0625000
vt 0.6601563 0.0700969
vt 0.6440180 0.0629637
vt 0.6440180 0.0629637
vt 0.6601563 0.0700969
vt 0.6601563 0.0725379
vt 0.6440180 0.0629637
vt 0.6601563 0.0725379
vt 0.6451496 0.0705937
vt 0.6451496 0.0544063
vt 0.6601563 0.0524621
vt 0.6601563 0.0549031
vt 0.6451496 0.0544063
vt 0.6601563 0.0549031
vt 0.6440180 0.0620363
vt 0.6440180 0.0620363
vt 0.6601563 0.0549031
vt 0.6601563 0.0625000
vt 0.6440180 0.0620363
vt 0.6601563 0.0625000
vt 0.6439492 0.0625000
vt 0.6487437 0.0462240
vt 0.6582326 0.0462240
vt 0.6456879 0.0531809
vt 0.6456879 0.0531809
vt 0.6582326 0.0462240
vt 0.6601563 0.0462240
vt 0.6456879 0.0531809
vt 0.6601563 0.0462240
vt 0.6601563 0.0524621
vt 0.6456879 0.0531809
vt 0.6601563 0.0524621
vt 0.6451496 0.0544063
vt 0.6304960 0.0311308
vt 0.6318359 0.0070858
vt 0.6318359 0.0423584
vt 0.6320858 0.0698242
vt 0.6311035 0.0698242
vt 0.6320025 0.1210938
vt 0.6318359 0.0423584
vt 0.6318359 0.0070858
vt 0.6582031 0.0070858
vt 0.6318359 0.0423584
vt 0.6582031 0.0070858
vt 0.6582031 0.0340044
vt 0.6318359 0.0423584
vt 0.6582031 0.0340044
vt 0.6582031 0.0423584
vt 0.6304960 0.0311308
vt 0.6302441 0.0448834
vt 0.6307083 0.0448834
vt 0.6304960 0.0311308
vt 0.6307083 0.0448834
vt 0.6318359 0.0246488
vt 0.6304960 0.0311308
vt 0.6318359 0.0246488
vt 0.6318359 0.0070858
vt 0.6320858 0.0698242
vt 0.6320025 0.1210938
vt 0.6495787 0.1210938
vt 0.6320858 0.0698242
vt 0.6495787 0.1210938
vt 0.6496488 0.0779489
vt 0.6320858 0.0698242
vt 0.6496488 0.0779489
vt 0.6496488 0.0698242
vt 0.6311035 0.0698242
vt 0.6576442 0.0698242
vt 0.6576442 0.0819670
vt 0.6311035 0.0698242
vt 0.6576442 0.0819670
vt 0.6583302 0.1210938
vt 0.6311035 0.0698242
vt 0.6583302 0.1210938
vt 0.6320025 0.1210938
vt 0.6304960 0.0311308
vt 0.6318359 0.0423584
vt 0.6311035 0.0698242
vt 0.6304960 0.0311308
vt 0.6311035 0.0698242
vt 0.6320858 0.0698242
vt 0.6318359 0.0423584
vt 0.6582031 0.0423584
vt 0.6582031 0.0488635
vt 0.6318359 0.0423584
vt 0.6582031 0.0488635
vt 0.6576442 0.0698242
vt 0.6318359 0.0423584
vt 0.6576442 0.0698242
vt 0.6311035 0.0698242
vt 0.6318359 0.0070858
vt 0.6318359 0.0246488
vt 0.6494781 0.0246488
vt 0.6318359 0.0070858
vt 0.6494781 0.0246488
vt 0.6582031 0.0246488
vt 0.6318359 0.0070858
vt 0.6582031 0.0246488
vt 0.6582031 0.0070858
vt 0.6304960 0.0311308
vt 0.6320858 0.0698242
vt 0.6496488 0.0698242
vt 0.6304960 0.0311308
vt 0.6496488 0.0698242
vt 0.6483109 0.0372625
vt 0.6304960 0.0311308
vt 0.6483109 0.0372625
vt 0.6483109 0.0349412
vt 0.6318359 0.0070858
vt 0.6582031 0.0070858
vt 0.6581932 0.0249007
vt 0.6318359 0.0070858
vt 0.6581932 0.0249007
vt 0.6494682 0.0249007
vt 0.6318359 0.0070858
vt 0.6494682 0.0249007
vt 0.6318359 0.0246488
vt 0.9960938 0.0039062
vt 0.9960938 0.1210938
vt 0.9375000 0.1210938
vt 0.9960938 0.0039062
vt 0.9375000 0.1210938
vt 0.9375000 0.0039062
vt 0.9082031 0.0039062
vt 0.9082031 0.1210938
vt 0.9667969 0.1210938
vt 0.9082031 0.0039062
vt 0.9667969 0.1210938
vt 0.9667969 0.0039062
vt 0.9375000 0.0039062
vt 0.9375000 0.1210938
vt 0.9960938 0.1210938
vt 0.9375000 0.0039062
vt 0.9960938 0.1210938
vt 0.9960938 0.0039062
vt 0.9375000 0.0039062
vt 0.8789062 0.0039062
vt 0.8789062 0.1210938
vt 0.9375000 0.0039062
vt 0.8789062 0.1210938
vt 0.9375000 0.1210938
vt 0.9082031 0.0039062
vt 0.9667969 0.0039062
vt 0.9667969 0.1210938
vt 0.9082031 0.0039062
vt 0.9667969 0.1210938
vt 0.9082031 0.1210938
vt 0.8789062 0.0039062
vt 0.9375000 0.0039062
vt 0.9375000 0.1210938
vt 0.8789062 0.0039062
vt 0.9375000 0.1210938
vt 0.8789062 0.1210938
vt 0.8789062 0.0625000
vt 0.9082031 0.1210938
vt 0.9667969 0.1210938
vt 0.8789062 0.0625000
vt 0.9667969 0.1210938
vt 0.9960938 0.0625000
vt 0.8789062 0.0625000
vt 0.9960938 0.0625000
vt 0.9667969 0.0039062
vt 0.8789062 0.0625000
vt 0.9667969 0.0039062
vt 0.9082031 0.0039062
vt 0.8789062 0.0625000
vt 0.9082031 0.0039062
vt 0.9667969 0.0039062
vt 0.8789062 0.0625000
vt 0.9667969 0.0039062
vt 0.9960938 0.0625000
vt 0.8789062 0.0625000
vt 0.9960938 0.0625000
vt 0.9667969 0.1210938
vt 0.8789062 0.0625000
vt 0.9667969 0.1210938
vt 0.9082031 0.1210938
vn -0.4691551 0.4906328 0.7342840
vn -0.4691551 0.4906328 0.7342840
vn -0.4706296 0.5320290 0.7038842
vn -0.4691555 0.3379534 0.8158925
vn -0.4691554 0.3379534 0.8158926
vn -0.4706731 0.4443534 0.7622447
vn -0.4691555 0.3379534 0.8158925
vn -0.4706731 0.4443534 0.7622447
vn -0.4707955 0.3952243 0.7887645
vn -0.4707955 0.3952243 0.7887645
vn -0.4706731 0.4443534 0.7622447
vn -0.4691551 0.4906328 0.7342840
vn -0.4707955 0.3952243 0.7887645
vn -0.4691551 0.4906328 0.7342840
vn -0.4691551 0.4906328 0.7342840
vn -0.4691552 0.1722872 0.8661470
vn -0.4691552 0.1722872 0.8661469
vn -0.4706731 0.2871085 0.8342874
vn -0.4691552 0.1722872 0.8661470
vn -0.4706731 0.2871085 0.8342874
vn -0.4698382 0.1905826 0.8619341
vn -0.4698382 0.1905826 0.8619341
vn -0.4706731 0.2871085 0.8342874
vn -0.4691554 0.3379534 0.8158926
vn -0.4698382 0.1905826 0.8619341
vn -0.4691554 0.3379534 0.8158926
vn -0.4691555 0.3379534 0.8158925
vn -0.4691550 0.0000000 0.8831159
vn -0.4691550 0.0000000 0.8831159
vn -0.4706729 0.1188306 0.8742690
vn -0.4691550 0.0000000 0.8831159
vn -0.4706729 0.1188306 0.8742690
vn -0.4694379 0.0072347 0.8829358
vn -0.4694379 0.0072347 0.8829358
vn -0.4706729 0.1188306 0.8742690
vn -0.4691552 0.1722872 0.8661469
vn -0.4694379 0.0072347 0.8829358
vn -0.4691552 0.1722872 0.8661469
vn -0.4691552 0.1722872 0.8661470
vn -0.4691552 -0.1722872 0.8661469
vn -0.4691552 -0.1722872 0.8661469
vn -0.4706729 -0.1188306 0.8742690
vn -0.4691552 -0.1722872 0.8661469
vn -0.4706729 -0.1188306 0.8742690
vn -0.4694379 -0.0072347 0.8829358
vn -0.4694379 -0.0072347 0.8829358
vn -0.4706729 -0.1188306 0.8742690
vn -0.4691550 0.0000000 0.8831159
vn -0.4694379 -0.0072347 0.8829358
vn -0.4691550 0.0000000 0.8831159
vn -0.4691550 0.0000000 0.8831159
vn -0.4696038 -0.3269336 0.8201138
vn -0.4708358 -0.2744146 0.8384570
vn -0.4698382 -0.1905826 0.8619341
vn -0.4698382 -0.1905826 0.8619341
vn -0.4708358 -0.2744146 0.8384570
vn -0.4708688 -0.2705340 0.8396987
vn -0.4698382 -0.1905826 0.8619341
vn -0.4708688 -0.2705340 0.8396987
vn -0.4691552 -0.1722872 0.8661469
vn -0.4698382 -0.1905826 0.8619341
vn -0.4691552 -0.1722872 0.8661469
vn -0.4691552 -0.1722872 0.8661469
vn -0.5773500 -0.5773510 0.5773498
vn -0.5773500 -0.5773510 0.5773498
vn -0.5773500 -0.5773510 0.5773498
vn -0.5773499 0.5773510 0.5773498
vn -0.5773499 0.5773510 0.5773498
vn -0.5773499 0.5773510 0.5773498
vn 0.0000000 -0.7071066 0.7071069
vn 0.0000000 -0.7071066 0.7071069
vn 0.0000000 -0.7071066 0.7071069
vn 0.0000000 -0.7071066 0.7071069
vn 0.0000000 -0.7071066 0.7071069
vn 0.0000000 -0.7071066 0.7071069
vn 0.0000000 -0.7071066 0.7071069
vn 0.0000000 -0.7071066 0.7071069
vn 0.0000000 -0.7071066 0.7071069
vn -0.7071068 -0.7071068 0.0000000
vn -0.7071068 -0.7071068 0.0000000
vn -0.7071068 -0.7071068 0.0000000
vn -0.7071068 -0.7071068 0.0000000
vn -0.7071068 -0.7071068 0.0000000
vn -0.7071068 -0.7071068 0.0000000
vn -0.7071068 -0.7071068 0.0000000
vn -0.7071068 -0.7071068 0.0000000
vn -0.7071068 -0.7071068 0.0000000
vn -0.7071068 0.7071068 0.0000000
vn -0.7071068 0.7071068 0.0000000
vn -0.7071068 0.7071068 0.0000000
vn -0.7071068 0.7071068 0.0000000
vn -0.7071068 0.7071068 0.0000000
vn -0.7071068 0.7071068 0.0000000
vn -0.7071068 0.7071068 0.0000000
vn -0.7071068 0.7071068 0.0000000
vn -0.7071068 0.7071068 0.0000000
vn 0.0000000 0.7071066 0.7071069
vn 0.0000000 0.7071066 0.7071069
vn 0.0000000 0.7071066 0.7071069
vn 0.0000000 0.7071066 0.7071069
vn 0.0000000 0.7071066 0.7071069
vn 0.0000000 0.7071066 0.7071069
vn 0.0000000 0.7071066 0.7071069
vn 0.0000000 0.7071066 0.7071069
vn 0.0000000 0.7071066 0.7071069
vn -0.7071074 0.0000000 0.7071062
vn -0.7071074 0.0000000 0.7071062
vn -0.7071074 0.0000000 0.7071062
vn -0.7071074 0.0000000 0.7071062
vn -0.7071074 0.0000000 0.7071062
vn -0.7071074 0.0000000 0.7071062
vn 0.0000000 0.0000000 1.0000000
vn 0.0000000 0.0000000 1.0000000
vn 0.0000000 0.0000000 1.0000000
vn 0.0000000 0.0000000 1.0000000
vn 0.0000000 0.0000000 1.0000000
vn 0.0000000 0.0000000 1.0000000
vn 0.0000000 0.0000000 1.0000000
vn 0.0000000 0.0000000 1.0000000
vn 0.0000000 0.0000000 1.0000000
vn 0.0000000 -1.0000000 0.0000000
vn 0.0000000 -1.0000000 0.0000000
vn 0.0000000 -1.0000000 0.0000000
vn 0.0000000 -1.0000000 0.0000000
vn 0.0000000 -1.0000000 0.0000000
vn 0.0000000 -1.0000000 0.0000000
vn 0.0000000 -1.0000000 0.0000000
vn 0.0000000 -1.0000000 0.0000000
vn 0.0000000 -1.0000000 0.0000000
vn -1.0000000 0.0000000 0.0000000
vn -1.0000000 0.0000000 0.0000000
vn -1.0000000 0.0000000 0.0000000
vn -1.0000000 0.0000000 0.0000000
vn -1.0000000 0.0000000 0.0000000
vn -1.0000000 0.0000000 0.0000000
vn -1.0000000 0.0000000 0.0000000
vn -1.0000000 0.0000000 0.0000000
vn -1.0000000 0.0000000 0.0000000
vn 0.0000000 1.0000000 0.0000000
vn 0.0000000 1.0000000 0.0000000
vn 0.0000000 1.0000000 0.0000000
vn 0.0000000 1.0000000 0.0000000
vn 0.0000000 1.0000000 0.0000000
vn 0.0000000 1.0000000 0.0000000
vn 0.0000000 1.0000000 0.0000000
vn 0.0000000 1.0000000 0.0000000
vn 0.0000000 1.0000000 0.0000000
vn -0.8660254 0.0000000 0.5000001
vn -0.8660254 0.0000000 0.5000001
vn -0.8660254 0.0000000 0.5000001
vn -0.8660254 0.0000000 0.5000001
vn -0.8660254 0.0000000 0.5000001
vn -0.8660254 0.0000000 0.5000001
vn 0.0000002 0.0000000 1.0000000
vn 0.0000002 0.0000000 1.0000000
vn 0.0000002 0.0000000 1.0000000
vn 0.0000002 0.0000000 1.0000000
vn 0.0000002 0.0000000 1.0000000
vn 0.0000002 0.0000000 1.0000000
vn 0.8660255 0.0000000 0.4999999
vn 0.8660255 0.0000000 0.4999999
vn 0.8660255 0.0000000 0.4999999
vn 0.8660255 0.0000000 0.4999999
vn 0.8660255 0.0000000 0.4999999
vn 0.8660255 0.0000000 0.4999999
vn 0.8660254 0.0000000 -0.5000001
vn 0.8660254 0.0000000 -0.5000001
vn 0.8660254 0.0000000 -0.5000001
vn 0.8660254 0.0000000 -0.5000001
vn 0.8660254 0.0000000 -0.5000001
vn 0.8660254 0.0000000 -0.5000001
vn -0.0000002 0.0000000 -1.0000000
vn -0.0000002 0.0000000 -1.0000000
vn -0.0000002 0.0000000 -1.0000000
vn -0.0000002 0.0000000 -1.0000000
vn -0.0000002 0.0000000 -1.0000000
vn -0.0000002 0.0000000 -1.0000000
vn -0.8660255 0.0000000 -0.4999999
vn -0.8660255 0.0000000 -0.4999999
vn -0.8660255 0.0000000 -0.4999999
vn -0.8660255 0.0000000 -0.4999999
vn -0.8660255 0.0000000 -0.4999999
vn -0.8660255 0.0000000 -0.4999999
vn 0.0000000 -1.0000000 0.0000000
vn 0.0000000 -1.0000000 0.0000000
vn 0.0000000 -1.0000000 0.0000000
vn 0.0000000 -1.0000000 0.0000000
vn 0.0000000 -1.0000000 0.0000000
vn 0.0000000 -1.0000000 0.0000000
vn 0.0000000 -1.0000000 0.0000000
vn 0.0000000 -1.0000000 0.0000000
vn 0.0000000 -1.0000000 0.0000000
vn 0.0000000 -1.0000000 0.0000000
vn 0.0000000 -1.0000000 0.0000000
vn 0.0000000 -1.0000000 0.0000000
vn 0.0000000 1.0000000 0.0000000
vn 0.0000000 1.0000000 0.0000000
vn 0.0000000 1.0000000 0.0000000
vn 0.0000000 1.0000000 0.0000000
vn 0.0000000 1.0000000 0.0000000
vn 0.0000000 1.0000000 0.0000000
vn 0.0000000 1.0000000 0.0000000
vn 0.0000000 1.0000000 0.0000000
vn 0.0000000 1.0000000 0.0000000
vn 0.0000000 1.0000000 0.0000000
vn 0.0000000 1.0000000 0.0000000
vn 0.0000000 1.0000000 0.0000000
f 1/1/1 2/2/2 3/3/3
f 4/4/4 5/5/5 6/6/6
f 7/7/7 8/8/8 9/9/9
f 10/10/10 11/11/11 12/12/12
f 13/13/13 14/14/14 15/15/15
f 16/16/16 17/17/17 18/18/18
f 19/19/19 20/20/20 21/21/21
f 22/22/22 23/23/23 24/24/24
f 25/25/25 26/26/26 27/27/27
f 28/28/28 29/29/29 30/30/30
f 31/31/31 32/32/32 33/33/33
f 34/34/34 35/35/35 36/36/36
f 37/37/37 38/38/38 39/39/39
f 40/40/40 41/41/41 42/42/42
f 43/43/43 44/44/44 45/45/45
f 46/46/46 47/47/47 48/48/48
f 49/49/49 50/50/50 51/51/51
f 52/52/52 53/53/53 54/54/54
f 55/55/55 56/56/56 57/57/57
f 58/58/58 59/59/59 60/60/60
f 61/61/61 62/62/62 63/63/63
f 64/64/64 65/65/65 66/66/66
f 67/67/67 68/68/68 69/69/69
f 70/70/70 71/71/71 72/72/72
f 73/73/73 74/74/74 75/75/75
f 76/76/76 77/77/77 78/78/78
f 79/79/79 80/80/80 81/81/81
f 82/82/82 83/83/83 84/84/84
f 85/85/85 86/86/86 87/87/87
f 88/88/88 89/89/89 90/90/90
f 91/91/91 92/92/92 93/93/93
f 94/94/94 95/95/95 96/96/96
f 97/97/97 98/98/98 99/99/99
f 100/100/100 101/101/101 102/102/102
f 103/103/103 104/104/104 105/105/105
f 106/106/106 107/107/107 108/108/108
f 109/109/109 110/110/110 111/111/111
f 112/112/112 113/113/113 114/114/114
f 115/115/115 116/116/116 117/117/117
f 118/118/118 119/119/119 120/120/120
f 121/121/121 122/122/122 123/123/123
f 124/124/124 125/125/125 126/126/126
f 127/127/127 128/128/128 129/129/129
f 130/130/130 131/131/131 132/132/132
f 133/133/133 134/134/134 135/135/135
f 136/136/136 137/137/137 138/138/138
f 139/139/139 140/140/140 141/141/141
f 142/142/142 143/143/143 144/144/144
f 145/145/145 146/146/146 147/147/147
f 148/148/148 149/149/149 150/150/150
f 151/151/151 152/152/152 153/153/153
f 154/154/154 155/155/155 156/156/156
f 157/157/157 158/158/158 159/159/159
f 160/160/160 161/161/161 162/162/162
f 163/163/163 164/164/164 165/165/165
f 166/166/166 167/167/167 168/168/168
f 169/169/169 170/170/170 171/171/171
f 172/172/172 173/173/173 174/174/174
f 175/175/175 176/176/176 177/177/177
f 178/178/178 179/179/179 180/180/180
f 181/181/181 182/182/182 183/183/183
f 184/184/184 185/185/185 186/186/186
f 187/187/187 188/188/188 189/189/189
f 190/190/190 191/191/191 192/192/192
f 193/193/193 194/194/194 195/195/195
f 196/196/196 197/197/197 198/198/198
f 199/199/199 200/200/200 201/201/201
f 202/202/202 203/203/203 204/204/204
f 205/205/205 206/206/206 207/207/207
