# metre = block; Y up; per-cell coordinates; atlas UVs preserved
mtllib materials.mtl
o cell_22
usemtl pump_atlas
v 0.0000000 0.3123720 0.9350677
v 1.0000000 0.3123720 0.9350677
v 1.0000000 0.2450967 0.9284416
v 0.0000000 0.3123720 0.9350677
v 1.0000000 0.2450967 0.9284416
v 0.0000000 0.3067041 0.9345095
v 0.0000000 0.3067041 0.9345095
v 1.0000000 0.2450967 0.9284416
v 1.0000000 0.2000000 0.9240000
v 0.0000000 0.3067041 0.9345095
v 1.0000000 0.2000000 0.9240000
v 0.0000000 0.2000000 0.9240000
v 0.0000000 0.4204257 0.9678454
v 1.0000000 0.4204257 0.9678454
v 1.0000000 0.3557357 0.9482219
v 0.0000000 0.4204257 0.9678454
v 1.0000000 0.3557357 0.9482219
v 0.0000000 0.4149756 0.9661921
v 0.0000000 0.4149756 0.9661921
v 1.0000000 0.3557357 0.9482219
v 1.0000000 0.3123720 0.9350677
v 0.0000000 0.4149756 0.9661921
v 1.0000000 0.3123720 0.9350677
v 0.0000000 0.3123720 0.9350677
v 1.0000000 0.4805827 1.0000000
v 1.0000000 0.4603898 0.9892067
v 0.6301386 0.4805827 1.0000000
v 0.6301386 0.4805827 1.0000000
v 1.0000000 0.4603898 0.9892067
v 1.0000000 0.4204257 0.9678454
v 0.6301386 0.4805827 1.0000000
v 1.0000000 0.4204257 0.9678454
v 0.0000000 0.4204257 0.9678454
v 0.6301386 0.4805827 1.0000000
v 0.0000000 0.4204257 0.9678454
v 0.0000000 0.4805827 1.0000000
v 0.0000000 0.0876280 0.9350677
v 1.0000000 0.0876280 0.9350677
v 1.0000000 0.0442644 0.9482219
v 0.0000000 0.0876280 0.9350677
v 1.0000000 0.0442644 0.9482219
v 0.2527946 0.0000000 0.9616494
v 0.0000000 0.0876280 0.9350677
v 0.2527946 0.0000000 0.9616494
v 0.0000000 0.0000000 0.9616494
v 0.2527946 0.0000000 0.9616494
v 1.0000000 0.0442644 0.9482219
v 1.0000000 0.0000000 0.9616494
v 0.0000000 0.2000000 0.9240000
v 1.0000000 0.2000000 0.9240000
v 1.0000000 0.1549033 0.9284416
v 0.0000000 0.2000000 0.9240000
v 1.0000000 0.1549033 0.9284416
v 0.0000000 0.0932959 0.9345095
v 0.0000000 0.0932959 0.9345095
v 1.0000000 0.1549033 0.9284416
v 1.0000000 0.0876280 0.9350677
v 0.0000000 0.0932959 0.9345095
v 1.0000000 0.0876280 0.9350677
v 0.0000000 0.0876280 0.9350677
v 0.5860000 0.0848000 0.8964000
v 0.5907999 0.0800000 0.8964000
v 0.5907999 0.0848000 0.9012000
v 0.5860000 0.0848000 0.8916000
v 0.5907999 0.0848000 0.8868000
v 0.5907999 0.0800000 0.8916000
v 0.5860000 0.3152001 0.8964000
v 0.5907999 0.3152001 0.9012000
v 0.5907999 0.3200001 0.8964000
v 0.5860000 0.3152001 0.8916000
v 0.5907999 0.3200001 0.8916000
v 0.5907999 0.3152001 0.8868000
v 0.5907999 0.0848000 0.9012000
v 0.5907999 0.0800000 0.8964000
v 1.0000000 0.0800000 0.8964000
v 0.5907999 0.0848000 0.9012000
v 1.0000000 0.0800000 0.8964000
v 1.0000000 0.0805152 0.8969152
v 0.5907999 0.0848000 0.9012000
v 1.0000000 0.0805152 0.8969152
v 1.0000000 0.0848000 0.9012000
v 0.5860000 0.0848000 0.8964000
v 0.5860000 0.0848000 0.8916000
v 0.5907999 0.0800000 0.8916000
v 0.5860000 0.0848000 0.8964000
v 0.5907999 0.0800000 0.8916000
v 0.5907999 0.0800000 0.8964000
v 0.5907999 0.0800000 0.8916000
v 0.5907999 0.0848000 0.8868000
v 1.0000000 0.0848000 0.8868000
v 0.5907999 0.0800000 0.8916000
v 1.0000000 0.0848000 0.8868000
v 1.0000000 0.0842848 0.8873152
v 0.5907999 0.0800000 0.8916000
v 1.0000000 0.0842848 0.8873152
v 1.0000000 0.0800000 0.8916000
v 0.5860000 0.3152001 0.8964000
v 0.5907999 0.3200001 0.8964000
v 0.5907999 0.3200001 0.8916000
v 0.5860000 0.3152001 0.8964000
v 0.5907999 0.3200001 0.8916000
v 0.5860000 0.3152001 0.8916000
v 0.5907999 0.3152001 0.9012000
v 1.0000000 0.3152001 0.9012000
v 1.0000000 0.3194849 0.8969152
v 0.5907999 0.3152001 0.9012000
v 1.0000000 0.3194849 0.8969152
v 1.0000000 0.3200001 0.8964000
v 0.5907999 0.3152001 0.9012000
v 1.0000000 0.3200001 0.8964000
v 0.5907999 0.3200001 0.8964000
v 0.5907999 0.3200001 0.8916000
v 1.0000000 0.3200001 0.8916000
v 1.0000000 0.3157153 0.8873152
v 0.5907999 0.3200001 0.8916000
v 1.0000000 0.3157153 0.8873152
v 1.0000000 0.3152001 0.8868000
v 0.5907999 0.3200001 0.8916000
v 1.0000000 0.3152001 0.8868000
v 0.5907999 0.3152001 0.8868000
v 0.5860000 0.0848000 0.8964000
v 0.5907999 0.0848000 0.9012000
v 0.5907999 0.3152001 0.9012000
v 0.5860000 0.0848000 0.8964000
v 0.5907999 0.3152001 0.9012000
v 0.5860000 0.3152001 0.8964000
v 0.5860000 0.0848000 0.8916000
v 0.5860000 0.3152001 0.8916000
v 0.5907999 0.3152001 0.8868000
v 0.5860000 0.0848000 0.8916000
v 0.5907999 0.3152001 0.8868000
v 0.5907999 0.0848000 0.8868000
v 0.5907999 0.0848000 0.9012000
v 1.0000000 0.0848000 0.9012000
v 1.0000000 0.2904713 0.9012000
v 0.5907999 0.0848000 0.9012000
v 1.0000000 0.2904713 0.9012000
v 1.0000000 0.3152001 0.9012000
v 0.5907999 0.0848000 0.9012000
v 1.0000000 0.3152001 0.9012000
v 0.5907999 0.3152001 0.9012000
v 0.5907999 0.0800000 0.8964000
v 0.5907999 0.0800000 0.8916000
v 1.0000000 0.0800000 0.8916000
v 0.5907999 0.0800000 0.8964000
v 1.0000000 0.0800000 0.8916000
v 1.0000000 0.0800000 0.8921152
v 0.5907999 0.0800000 0.8964000
v 1.0000000 0.0800000 0.8921152
v 1.0000000 0.0800000 0.8964000
v 0.5860000 0.0848000 0.8964000
v 0.5860000 0.3152001 0.8964000
v 0.5860000 0.3152001 0.8916000
v 0.5860000 0.0848000 0.8964000
v 0.5860000 0.3152001 0.8916000
v 0.5860000 0.0848000 0.8916000
v 0.5907999 0.0848000 0.8868000
v 0.5907999 0.3152001 0.8868000
v 1.0000000 0.3152001 0.8868000
v 0.5907999 0.0848000 0.8868000
v 1.0000000 0.3152001 0.8868000
v 1.0000000 0.2904713 0.8868000
v 0.5907999 0.0848000 0.8868000
v 1.0000000 0.2904713 0.8868000
v 1.0000000 0.0848000 0.8868000
v 0.5907999 0.3200001 0.8964000
v 1.0000000 0.3200001 0.8964000
v 1.0000000 0.3200001 0.8921152
v 0.5907999 0.3200001 0.8964000
v 1.0000000 0.3200001 0.8921152
v 1.0000000 0.3200001 0.8916000
v 0.5907999 0.3200001 0.8964000
v 1.0000000 0.3200001 0.8916000
v 0.5907999 0.3200001 0.8916000
vt 0.6430121 0.0739311
vt 0.6972656 0.0739311
vt 0.6972656 0.0670875
vt 0.6430121 0.0739311
vt 0.6972656 0.0670875
vt 0.6430121 0.0733545
vt 0.6430121 0.0733545
vt 0.6972656 0.0670875
vt 0.6972656 0.0625000
vt 0.6430121 0.0733545
vt 0.6972656 0.0625000
vt 0.6430121 0.0625000
vt 0.6430121 0.0849229
vt 0.6972656 0.0849229
vt 0.6972656 0.0783423
vt 0.6430121 0.0849229
vt 0.6972656 0.0783423
vt 0.6430121 0.0843685
vt 0.6430121 0.0843685
vt 0.6972656 0.0783423
vt 0.6972656 0.0739311
vt 0.6430121 0.0843685
vt 0.6972656 0.0739311
vt 0.6430121 0.0739311
vt 0.6972656 0.0910423
vt 0.6972656 0.0889882
vt 0.6771994 0.0910423
vt 0.6771994 0.0910423
vt 0.6972656 0.0889882
vt 0.6972656 0.0849229
vt 0.6771994 0.0910423
vt 0.6972656 0.0849229
vt 0.6430121 0.0849229
vt 0.6771994 0.0910423
vt 0.6430121 0.0849229
vt 0.6430121 0.0910423
vt 0.6430121 0.0510689
vt 0.6972656 0.0510689
vt 0.6972656 0.0466577
vt 0.6430121 0.0510689
vt 0.6972656 0.0466577
vt 0.6567271 0.0421549
vt 0.6430121 0.0510689
vt 0.6567271 0.0421549
vt 0.6430121 0.0421549
vt 0.6567271 0.0421549
vt 0.6972656 0.0466577
vt 0.6972656 0.0421549
vt 0.6430121 0.0625000
vt 0.6972656 0.0625000
vt 0.6972656 0.0579125
vt 0.6430121 0.0625000
vt 0.6972656 0.0579125
vt 0.6430121 0.0516455
vt 0.6430121 0.0516455
vt 0.6972656 0.0579125
vt 0.6972656 0.0510689
vt 0.6430121 0.0516455
vt 0.6972656 0.0510689
vt 0.6430121 0.0510689
vt 0.5332031 0.3904297
vt 0.5145733 0.4082031
vt 0.5048077 0.3812500
vt 0.5820312 0.3812500
vt 0.6202925 0.3812500
vt 0.5820312 0.3789062
vt 0.5429688 0.4937500
vt 0.5048077 0.4937500
vt 0.5303485 0.4960938
vt 0.5820312 0.4937500
vt 0.5946515 0.4960938
vt 0.6201923 0.4937500
vt 0.5048077 0.3812500
vt 0.5145733 0.4082031
vt 0.6085880 0.4169207
vt 0.5048077 0.3812500
vt 0.6085880 0.4169207
vt 0.6075399 0.4140278
vt 0.5048077 0.3812500
vt 0.6075399 0.4140278
vt 0.6075400 0.3807270
vt 0.5332031 0.3904297
vt 0.5039062 0.4570312
vt 0.5051082 0.4570312
vt 0.5332031 0.3904297
vt 0.5051082 0.4570312
vt 0.5145733 0.4082031
vt 0.5051082 0.4570312
vt 0.5051082 0.4960937
vt 0.6075721 0.4960938
vt 0.5051082 0.4570312
vt 0.6075721 0.4960938
vt 0.6075721 0.4919012
vt 0.5051082 0.4570312
vt 0.6075721 0.4919012
vt 0.6075721 0.4570312
vt 0.5429688 0.4937500
vt 0.5303485 0.4960938
vt 0.5946515 0.4960938
vt 0.5429688 0.4937500
vt 0.5946515 0.4960938
vt 0.5820312 0.4937500
vt 0.5048077 0.4937500
vt 0.6075400 0.4937500
vt 0.6075399 0.4958422
vt 0.5048077 0.4937500
vt 0.6075399 0.4958422
vt 0.6102812 0.4960938
vt 0.5048077 0.4937500
vt 0.6102812 0.4960938
vt 0.5303485 0.4960938
vt 0.5946515 0.4960938
vt 0.5147188 0.4960938
vt 0.5147188 0.4940016
vt 0.5946515 0.4960938
vt 0.5147188 0.4940016
vt 0.5174601 0.4937500
vt 0.5946515 0.4960938
vt 0.5174601 0.4937500
vt 0.6201923 0.4937500
vt 0.5332031 0.3904297
vt 0.5048077 0.3812500
vt 0.5048077 0.4937500
vt 0.5332031 0.3904297
vt 0.5048077 0.4937500
vt 0.5429688 0.4937500
vt 0.5820312 0.3812500
vt 0.5820312 0.4937500
vt 0.6201923 0.4937500
vt 0.5820312 0.3812500
vt 0.6201923 0.4937500
vt 0.6202925 0.3812500
vt 0.5048077 0.3812500
vt 0.6075400 0.3807270
vt 0.6075400 0.4816754
vt 0.5048077 0.3812500
vt 0.6075400 0.4816754
vt 0.6075400 0.4937500
vt 0.5048077 0.3812500
vt 0.6075400 0.4937500
vt 0.5048077 0.4937500
vt 0.5145733 0.4082031
vt 0.5051082 0.4570312
vt 0.6075721 0.4570312
vt 0.5145733 0.4082031
vt 0.6075721 0.4570312
vt 0.6085880 0.4517905
vt 0.5145733 0.4082031
vt 0.6085880 0.4517905
vt 0.6085880 0.4169207
vt 0.5332031 0.3904297
vt 0.5429688 0.4937500
vt 0.5820312 0.4937500
vt 0.5332031 0.3904297
vt 0.5820312 0.4937500
vt 0.5820312 0.3812500
vt 0.6202925 0.3812500
vt 0.6201923 0.4937500
vt 0.5174601 0.4937500
vt 0.6202925 0.3812500
vt 0.5174601 0.4937500
vt 0.5174709 0.4816754
vt 0.6202925 0.3812500
vt 0.5174709 0.4816754
vt 0.5174709 0.3812500
vt 0.5051081 0.4179688
vt 0.6075721 0.4179688
vt 0.6075721 0.4528386
vt 0.5051081 0.4179688
vt 0.6075721 0.4528386
vt 0.6075721 0.4570312
vt 0.5051081 0.4179688
vt 0.6075721 0.4570312
vt 0.5051082 0.4570312
vn 0.0000000 0.1950903 -0.9807853
vn 0.0000000 0.1950903 -0.9807853
vn 0.0000000 0.0786568 -0.9969018
vn 0.0000000 0.1950903 -0.9807853
vn 0.0000000 0.0786568 -0.9969018
vn 0.0000000 0.1854209 -0.9826592
vn 0.0000000 0.1854209 -0.9826592
vn 0.0000000 0.0786568 -0.9969018
vn 0.0000000 0.0000000 -1.0000000
vn 0.0000000 0.1854209 -0.9826592
vn 0.0000000 0.0000000 -1.0000000
vn 0.0000000 0.0000000 -1.0000000
vn 0.0000000 0.3826835 -0.9238795
vn 0.0000000 0.3826835 -0.9238795
vn 0.0000000 0.2716313 -0.9624014
vn 0.0000000 0.3826835 -0.9238795
vn 0.0000000 0.2716313 -0.9624014
vn 0.0000000 0.3735655 -0.9276038
vn 0.0000000 0.3735655 -0.9276038
vn 0.0000000 0.2716313 -0.9624014
vn 0.0000000 0.1950903 -0.9807853
vn 0.0000000 0.3735655 -0.9276038
vn 0.0000000 0.1950903 -0.9807853
vn 0.0000000 0.1950903 -0.9807853
vn 0.0000000 0.4893767 -0.8720725
vn 0.0000000 0.4541671 -0.8909165
vn 0.0000000 0.4893767 -0.8720725
vn 0.0000000 0.4893767 -0.8720725
vn 0.0000000 0.4541671 -0.8909165
vn 0.0000000 0.3826835 -0.9238795
vn 0.0000000 0.4893767 -0.8720725
vn 0.0000000 0.3826835 -0.9238795
vn 0.0000000 0.3826835 -0.9238795
vn 0.0000000 0.4893767 -0.8720725
vn 0.0000000 0.3826835 -0.9238795
vn 0.0000000 0.4893767 -0.8720725
vn 0.0000000 -0.1950904 -0.9807853
vn 0.0000000 -0.1950904 -0.9807853
vn 0.0000000 -0.2716314 -0.9624014
vn 0.0000000 -0.1950904 -0.9807853
vn 0.0000000 -0.2716314 -0.9624014
vn 0.0000000 -0.3482497 -0.9374018
vn 0.0000000 -0.1950904 -0.9807853
vn 0.0000000 -0.3482497 -0.9374018
vn 0.0000000 -0.3482497 -0.9374018
vn 0.0000000 -0.3482497 -0.9374018
vn 0.0000000 -0.2716314 -0.9624014
vn 0.0000000 -0.3482497 -0.9374018
vn 0.0000000 0.0000000 -1.0000000
vn 0.0000000 0.0000000 -1.0000000
vn 0.0000000 -0.0786568 -0.9969018
vn 0.0000000 0.0000000 -1.0000000
vn 0.0000000 -0.0786568 -0.9969018
vn 0.0000000 -0.1854210 -0.9826592
vn 0.0000000 -0.1854210 -0.9826592
vn 0.0000000 -0.0786568 -0.9969018
vn 0.0000000 -0.1950904 -0.9807853
vn 0.0000000 -0.1854210 -0.9826592
vn 0.0000000 -0.1950904 -0.9807853
vn 0.0000000 -0.1950904 -0.9807853
vn -0.5773520 -0.5773500 0.5773489
vn -0.5773520 -0.5773500 0.5773489
vn -0.5773520 -0.5773500 0.5773489
vn -0.5773518 -0.5773501 -0.5773489
vn -0.5773518 -0.5773501 -0.5773489
vn -0.5773518 -0.5773501 -0.5773489
vn -0.5773518 0.5773501 0.5773489
vn -0.5773518 0.5773501 0.5773489
vn -0.5773518 0.5773501 0.5773489
vn -0.5773518 0.5773501 -0.5773489
vn -0.5773518 0.5773501 -0.5773489
vn -0.5773518 0.5773501 -0.5773489
vn 0.0000000 -0.7071069 0.7071067
vn 0.0000000 -0.7071069 0.7071067
vn 0.0000000 -0.7071069 0.7071067
vn 0.0000000 -0.7071069 0.7071067
vn 0.0000000 -0.7071069 0.7071067
vn 0.0000000 -0.7071069 0.7071067
vn 0.0000000 -0.7071069 0.7071067
vn 0.0000000 -0.7071069 0.7071067
vn 0.0000000 -0.7071069 0.7071067
vn -0.7071070 -0.7071065 0.0000000
vn -0.7071070 -0.7071065 0.0000000
vn -0.7071070 -0.7071065 0.0000000
vn -0.7071070 -0.7071065 0.0000000
vn -0.7071070 -0.7071065 0.0000000
vn -0.7071070 -0.7071065 0.0000000
vn 0.0000000 -0.7071069 -0.7071067
vn 0.0000000 -0.7071069 -0.7071067
vn 0.0000000 -0.7071069 -0.7071067
vn 0.0000000 -0.7071069 -0.7071067
vn 0.0000000 -0.7071069 -0.7071067
vn 0.0000000 -0.7071069 -0.7071067
vn 0.0000000 -0.7071069 -0.7071067
vn 0.0000000 -0.7071069 -0.7071067
vn 0.0000000 -0.7071069 -0.7071067
vn -0.7071070 0.7071065 0.0000000
vn -0.7071070 0.7071065 0.0000000
vn -0.7071070 0.7071065 0.0000000
vn -0.7071070 0.7071065 0.0000000
vn -0.7071070 0.7071065 0.0000000
vn -0.7071070 0.7071065 0.0000000
vn -0.0000000 0.7071069 0.7071067
vn 0.0000000 0.7071069 0.7071067
vn 0.0000000 0.7071069 0.7071067
vn -0.0000000 0.7071069 0.7071067
vn 0.0000000 0.7071069 0.7071067
vn 0.0000000 0.7071069 0.7071067
vn -0.0000000 0.7071069 0.7071067
vn 0.0000000 0.7071069 0.7071067
vn -0.0000000 0.7071069 0.7071067
vn 0.0000000 0.7071069 -0.7071067
vn 0.0000000 0.7071069 -0.7071067
vn 0.0000000 0.7071069 -0.7071067
vn 0.0000000 0.7071069 -0.7071067
vn 0.0000000 0.7071069 -0.7071067
vn 0.0000000 0.7071069 -0.7071067
vn 0.0000000 0.7071069 -0.7071067
vn 0.0000000 0.7071069 -0.7071067
vn 0.0000000 0.7071069 -0.7071067
vn -0.7071070 0.0000000 0.7071066
vn -0.7071070 0.0000000 0.7071066
vn -0.7071070 0.0000000 0.7071066
vn -0.7071070 0.0000000 0.7071066
vn -0.7071070 0.0000000 0.7071066
vn -0.7071070 0.0000000 0.7071066
vn -0.7071070 0.0000000 -0.7071066
vn -0.7071070 0.0000000 -0.7071066
vn -0.7071070 0.0000000 -0.7071066
vn -0.7071070 0.0000000 -0.7071066
vn -0.7071070 0.0000000 -0.7071066
vn -0.7071070 0.0000000 -0.7071066
vn 0.0000000 0.0000000 1.0000000
vn 0.0000000 0.0000000 1.0000000
vn 0.0000000 0.0000000 1.0000000
vn 0.0000000 0.0000000 1.0000000
vn 0.0000000 0.0000000 1.0000000
vn 0.0000000 0.0000000 1.0000000
vn 0.0000000 0.0000000 1.0000000
vn 0.0000000 0.0000000 1.0000000
vn 0.0000000 0.0000000 1.0000000
vn 0.0000000 -1.0000000 0.0000000
vn 0.0000000 -1.0000000 0.0000000
vn 0.0000000 -1.0000000 0.0000000
vn 0.0000000 -1.0000000 0.0000000
vn 0.0000000 -1.0000000 0.0000000
vn 0.0000000 -1.0000000 0.0000000
vn 0.0000000 -1.0000000 0.0000000
vn 0.0000000 -1.0000000 0.0000000
vn 0.0000000 -1.0000000 0.0000000
vn -1.0000000 0.0000000 0.0000000
vn -1.0000000 0.0000000 0.0000000
vn -1.0000000 0.0000000 0.0000000
vn -1.0000000 0.0000000 0.0000000
vn -1.0000000 0.0000000 0.0000000
vn -1.0000000 0.0000000 0.0000000
vn 0.0000000 0.0000000 -1.0000000
vn 0.0000000 0.0000000 -1.0000000
vn 0.0000000 0.0000000 -1.0000000
vn 0.0000000 0.0000000 -1.0000000
vn 0.0000000 0.0000000 -1.0000000
vn 0.0000000 0.0000000 -1.0000000
vn 0.0000000 0.0000000 -1.0000000
vn 0.0000000 0.0000000 -1.0000000
vn 0.0000000 0.0000000 -1.0000000
vn -0.0000000 1.0000000 0.0000000
vn 0.0000000 1.0000000 0.0000000
vn 0.0000000 1.0000000 0.0000000
vn -0.0000000 1.0000000 0.0000000
vn 0.0000000 1.0000000 0.0000000
vn 0.0000000 1.0000000 0.0000000
vn -0.0000000 1.0000000 0.0000000
vn 0.0000000 1.0000000 0.0000000
vn -0.0000000 1.0000000 0.0000000
f 1/1/1 2/2/2 3/3/3
f 4/4/4 5/5/5 6/6/6
f 7/7/7 8/8/8 9/9/9
f 10/10/10 11/11/11 12/12/12
f 13/13/13 14/14/14 15/15/15
f 16/16/16 17/17/17 18/18/18
f 19/19/19 20/20/20 21/21/21
f 22/22/22 23/23/23 24/24/24
f 25/25/25 26/26/26 27/27/27
f 28/28/28 29/29/29 30/30/30
f 31/31/31 32/32/32 33/33/33
f 34/34/34 35/35/35 36/36/36
f 37/37/37 38/38/38 39/39/39
f 40/40/40 41/41/41 42/42/42
f 43/43/43 44/44/44 45/45/45
f 46/46/46 47/47/47 48/48/48
f 49/49/49 50/50/50 51/51/51
f 52/52/52 53/53/53 54/54/54
f 55/55/55 56/56/56 57/57/57
f 58/58/58 59/59/59 60/60/60
f 61/61/61 62/62/62 63/63/63
f 64/64/64 65/65/65 66/66/66
f 67/67/67 68/68/68 69/69/69
f 70/70/70 71/71/71 72/72/72
f 73/73/73 74/74/74 75/75/75
f 76/76/76 77/77/77 78/78/78
f 79/79/79 80/80/80 81/81/81
f 82/82/82 83/83/83 84/84/84
f 85/85/85 86/86/86 87/87/87
f 88/88/88 89/89/89 90/90/90
f 91/91/91 92/92/92 93/93/93
f 94/94/94 95/95/95 96/96/96
f 97/97/97 98/98/98 99/99/99
f 100/100/100 101/101/101 102/102/102
f 103/103/103 104/104/104 105/105/105
f 106/106/106 107/107/107 108/108/108
f 109/109/109 110/110/110 111/111/111
f 112/112/112 113/113/113 114/114/114
f 115/115/115 116/116/116 117/117/117
f 118/118/118 119/119/119 120/120/120
f 121/121/121 122/122/122 123/123/123
f 124/124/124 125/125/125 126/126/126
f 127/127/127 128/128/128 129/129/129
f 130/130/130 131/131/131 132/132/132
f 133/133/133 134/134/134 135/135/135
f 136/136/136 137/137/137 138/138/138
f 139/139/139 140/140/140 141/141/141
f 142/142/142 143/143/143 144/144/144
f 145/145/145 146/146/146 147/147/147
f 148/148/148 149/149/149 150/150/150
f 151/151/151 152/152/152 153/153/153
f 154/154/154 155/155/155 156/156/156
f 157/157/157 158/158/158 159/159/159
f 160/160/160 161/161/161 162/162/162
f 163/163/163 164/164/164 165/165/165
f 166/166/166 167/167/167 168/168/168
f 169/169/169 170/170/170 171/171/171
f 172/172/172 173/173/173 174/174/174
