# metre = block; Y up; per-cell coordinates; atlas UVs preserved
mtllib materials.mtl
o cell_41
usemtl pump_atlas
v 0.0000000 0.5595335 0.0380796
v 0.0854896 0.5340895 0.0000000
v 0.0168875 0.5917416 0.0000000
v 0.0000000 0.5595335 0.0380796
v 0.0168875 0.5917416 0.0000000
v 0.0000000 0.5926550 0.0108975
v 0.0000000 0.5926550 0.0108975
v 0.0168875 0.5917416 0.0000000
v 0.0000000 0.6059336 0.0000000
v 0.0000000 0.4476510 0.0978821
v 0.1977672 0.4071068 0.0000000
v 0.1207300 0.4942337 0.0000000
v 0.0000000 0.4476510 0.0978821
v 0.1207300 0.4942337 0.0000000
v 0.0000000 0.4854391 0.0776839
v 0.0000000 0.4854391 0.0776839
v 0.1207300 0.4942337 0.0000000
v 0.0854896 0.5340895 0.0000000
v 0.0000000 0.4854391 0.0776839
v 0.0854896 0.5340895 0.0000000
v 0.0000000 0.5595335 0.0380796
v 0.0000000 0.3262514 0.1347082
v 0.2000000 0.3053488 0.0296240
v 0.2000000 0.4030061 0.0000000
v 0.0000000 0.3262514 0.1347082
v 0.2000000 0.4030061 0.0000000
v 0.1982086 0.4062962 0.0000000
v 0.0000000 0.3262514 0.1347082
v 0.1982086 0.4062962 0.0000000
v 0.0000000 0.3672539 0.1222702
v 0.0000000 0.3672539 0.1222702
v 0.1982086 0.4062962 0.0000000
v 0.1977672 0.4071068 0.0000000
v 0.0000000 0.3672539 0.1222702
v 0.1977672 0.4071068 0.0000000
v 0.0000000 0.4476510 0.0978821
v 0.0000000 0.2000000 0.1471429
v 0.2000000 0.2000000 0.0400000
v 0.2000000 0.3053488 0.0296240
v 0.0000000 0.2000000 0.1471429
v 0.2000000 0.3053488 0.0296240
v 0.0000000 0.2426412 0.1429431
v 0.0000000 0.2426412 0.1429431
v 0.2000000 0.3053488 0.0296240
v 0.0000000 0.3262514 0.1347082
v 0.0000000 0.0737487 0.1347082
v 0.2000000 0.0946512 0.0296240
v 0.0000000 0.1573588 0.1429431
v 0.0000000 0.1573588 0.1429431
v 0.2000000 0.0946512 0.0296240
v 0.2000000 0.2000000 0.0400000
v 0.0000000 0.1573588 0.1429431
v 0.2000000 0.2000000 0.0400000
v 0.0000000 0.2000000 0.1471429
v 0.1662447 0.0000000 0.0197178
v 0.0000000 0.0327462 0.1222702
v 0.0000000 0.0000000 0.1123368
v 0.0000000 0.0327462 0.1222702
v 0.1662447 0.0000000 0.0197178
v 0.2000000 0.0000000 0.0009119
v 0.0000000 0.0327462 0.1222702
v 0.2000000 0.0000000 0.0009119
v 0.2000000 0.0946512 0.0296240
v 0.0000000 0.0327462 0.1222702
v 0.2000000 0.0946512 0.0296240
v 0.0000000 0.0737487 0.1347082
v 0.2000000 0.3053488 0.0296240
v 0.2188777 0.2994562 0.0000000
v 0.2170814 0.3093096 0.0000000
v 0.2000000 0.3053488 0.0296240
v 0.2170814 0.3093096 0.0000000
v 0.2000000 0.4030061 0.0000000
v 0.2000000 0.2000000 0.0400000
v 0.2250000 0.2000000 0.0000000
v 0.2241586 0.2136680 0.0000000
v 0.2000000 0.2000000 0.0400000
v 0.2241586 0.2136680 0.0000000
v 0.2188777 0.2994562 0.0000000
v 0.2000000 0.2000000 0.0400000
v 0.2188777 0.2994562 0.0000000
v 0.2000000 0.3053488 0.0296240
v 0.2000000 0.2000000 0.0400000
v 0.2000000 0.0946512 0.0296240
v 0.2188777 0.1005438 0.0000000
v 0.2000000 0.2000000 0.0400000
v 0.2188777 0.1005438 0.0000000
v 0.2241586 0.1863320 0.0000000
v 0.2000000 0.2000000 0.0400000
v 0.2241586 0.1863320 0.0000000
v 0.2250000 0.2000000 0.0000000
v 0.2000000 0.0946512 0.0296240
v 0.2000000 0.0000000 0.0009119
v 0.2005480 0.0000000 0.0000000
v 0.2000000 0.0946512 0.0296240
v 0.2005480 0.0000000 0.0000000
v 0.2170814 0.0906904 0.0000000
v 0.2000000 0.0946512 0.0296240
v 0.2170814 0.0906904 0.0000000
v 0.2188777 0.1005438 0.0000000
v 0.2180002 0.1940000 0.2740000
v 0.2180002 0.1520001 0.2320000
v 0.2600002 0.1940000 0.2320000
v 0.2180002 0.2060001 0.2740000
v 0.2600002 0.2060001 0.2320000
v 0.2180002 0.2480000 0.2320000
v 0.0000000 0.1520001 0.2320000
v 0.2180002 0.1520001 0.2320000
v 0.0000000 0.1577369 0.2377368
v 0.0000000 0.1577369 0.2377368
v 0.2180002 0.1520001 0.2320000
v 0.2180002 0.1940000 0.2740000
v 0.0000000 0.1577369 0.2377368
v 0.2180002 0.1940000 0.2740000
v 0.0000000 0.1940000 0.2740000
v 0.2180002 0.1520001 0.2320000
v 0.2180002 0.1520001 0.0000000
v 0.2246559 0.1586558 0.0000000
v 0.2180002 0.1520001 0.2320000
v 0.2246559 0.1586558 0.0000000
v 0.2600002 0.1940000 0.0000000
v 0.2180002 0.1520001 0.2320000
v 0.2600002 0.1940000 0.0000000
v 0.2600002 0.1940000 0.2320000
v 0.0000000 0.2060001 0.2740000
v 0.2180002 0.2060001 0.2740000
v 0.2180002 0.2480000 0.2320000
v 0.0000000 0.2060001 0.2740000
v 0.2180002 0.2480000 0.2320000
v 0.0000000 0.2422632 0.2377368
v 0.0000000 0.2422632 0.2377368
v 0.2180002 0.2480000 0.2320000
v 0.0000000 0.2480000 0.2320000
v 0.2180002 0.2480000 0.2320000
v 0.2600002 0.2060001 0.2320000
v 0.2600002 0.2060001 0.0000000
v 0.2180002 0.2480000 0.2320000
v 0.2600002 0.2060001 0.0000000
v 0.2246559 0.2413443 0.0000000
v 0.2180002 0.2480000 0.2320000
v 0.2246559 0.2413443 0.0000000
v 0.2180002 0.2480000 0.0000000
v 0.2180002 0.1940000 0.2740000
v 0.2600002 0.1940000 0.2320000
v 0.2600002 0.2060001 0.2320000
v 0.2180002 0.1940000 0.2740000
v 0.2600002 0.2060001 0.2320000
v 0.2180002 0.2060001 0.2740000
v 0.0000000 0.1940000 0.2740000
v 0.2180002 0.1940000 0.2740000
v 0.2180002 0.2060001 0.2740000
v 0.0000000 0.1940000 0.2740000
v 0.2180002 0.2060001 0.2740000
v 0.0000000 0.2043610 0.2740000
v 0.0000000 0.2043610 0.2740000
v 0.2180002 0.2060001 0.2740000
v 0.0000000 0.2060001 0.2740000
v 0.2180002 0.1520001 0.0000000
v 0.2180002 0.1520001 0.2320000
v 0.0000000 0.1520001 0.2320000
v 0.2180002 0.1520001 0.0000000
v 0.0000000 0.1520001 0.2320000
v 0.0000000 0.1520001 0.0000000
v 0.2600002 0.1940000 0.2320000
v 0.2600002 0.1940000 0.0000000
v 0.2600002 0.1959017 0.0000000
v 0.2600002 0.1940000 0.2320000
v 0.2600002 0.1959017 0.0000000
v 0.2600002 0.2060001 0.0000000
v 0.2600002 0.1940000 0.2320000
v 0.2600002 0.2060001 0.0000000
v 0.2600002 0.2060001 0.2320000
v 0.0000000 0.2480000 0.2320000
v 0.2180002 0.2480000 0.2320000
v 0.2180002 0.2480000 0.0000000
v 0.0000000 0.2480000 0.2320000
v 0.2180002 0.2480000 0.0000000
v 0.0000000 0.2480000 0.0000000
v 0.1598001 0.2516000 0.2000593
v 0.1598001 0.2924000 0.2000593
v 0.1436002 0.2924000 0.1720001
v 0.1598001 0.2516000 0.2000593
v 0.1436002 0.2924000 0.1720001
v 0.1436002 0.2516000 0.1720001
v 0.1922002 0.2516000 0.2000593
v 0.1922002 0.2924000 0.2000593
v 0.1598001 0.2924000 0.2000593
v 0.1922002 0.2516000 0.2000593
v 0.1598001 0.2924000 0.2000593
v 0.1598001 0.2516000 0.2000593
v 0.2084000 0.2516000 0.1720001
v 0.2084000 0.2924000 0.1720001
v 0.1922002 0.2924000 0.2000593
v 0.2084000 0.2516000 0.1720001
v 0.1922002 0.2924000 0.2000593
v 0.1922002 0.2516000 0.2000593
v 0.2084000 0.2516000 0.1720001
v 0.1922002 0.2516000 0.1439408
v 0.1922002 0.2924000 0.1439408
v 0.2084000 0.2516000 0.1720001
v 0.1922002 0.2924000 0.1439408
v 0.2084000 0.2924000 0.1720001
v 0.1922002 0.2516000 0.1439408
v 0.1598001 0.2516000 0.1439408
v 0.1598001 0.2924000 0.1439408
v 0.1922002 0.2516000 0.1439408
v 0.1598001 0.2924000 0.1439408
v 0.1922002 0.2924000 0.1439408
v 0.1598001 0.2516000 0.1439408
v 0.1436002 0.2516000 0.1720001
v 0.1436002 0.2924000 0.1720001
v 0.1598001 0.2516000 0.1439408
v 0.1436002 0.2924000 0.1720001
v 0.1598001 0.2924000 0.1439408
v 0.2084000 0.2516000 0.1720001
v 0.1922002 0.2516000 0.2000593
v 0.1598001 0.2516000 0.2000593
v 0.2084000 0.2516000 0.1720001
v 0.1598001 0.2516000 0.2000593
v 0.1436002 0.2516000 0.1720001
v 0.2084000 0.2516000 0.1720001
v 0.1436002 0.2516000 0.1720001
v 0.1598001 0.2516000 0.1439408
v 0.2084000 0.2516000 0.1720001
v 0.1598001 0.2516000 0.1439408
v 0.1922002 0.2516000 0.1439408
v 0.2084000 0.2924000 0.1720001
v 0.1922002 0.2924000 0.1439408
v 0.1598001 0.2924000 0.1439408
v 0.2084000 0.2924000 0.1720001
v 0.1598001 0.2924000 0.1439408
v 0.1436002 0.2924000 0.1720001
v 0.2084000 0.2924000 0.1720001
v 0.1436002 0.2924000 0.1720001
v 0.1598001 0.2924000 0.2000593
v 0.2084000 0.2924000 0.1720001
v 0.1598001 0.2924000 0.2000593
v 0.1922002 0.2924000 0.2000593
v 0.1533689 0.2207516 0.4540001
v 0.1640000 0.1400000 0.4540001
v 0.1640000 0.1400000 0.0000000
v 0.1533689 0.2207516 0.4540001
v 0.1640000 0.1400000 0.0000000
v 0.1601287 0.1694053 0.0000000
v 0.1533689 0.2207516 0.4540001
v 0.1601287 0.1694053 0.0000000
v 0.1533689 0.2207516 0.0000000
v 0.1222000 0.2960000 0.4540001
v 0.1533689 0.2207516 0.4540001
v 0.1533689 0.2207516 0.0000000
v 0.1222000 0.2960000 0.4540001
v 0.1533689 0.2207516 0.0000000
v 0.1420189 0.2481530 0.0000000
v 0.1222000 0.2960000 0.4540001
v 0.1420189 0.2481530 0.0000000
v 0.1222000 0.2960000 0.0000000
v 0.0726173 0.3606173 0.4540001
v 0.1222000 0.2960000 0.4540001
v 0.1222000 0.2960000 0.0000000
v 0.0726173 0.3606173 0.4540001
v 0.1222000 0.2960000 0.0000000
v 0.1041447 0.3195301 0.0000000
v 0.0726173 0.3606173 0.4540001
v 0.1041447 0.3195301 0.0000000
v 0.0726173 0.3606173 0.0000000
v 0.0080004 0.4102000 0.4540001
v 0.0726173 0.3606173 0.4540001
v 0.0726173 0.3606173 0.0000000
v 0.0080004 0.4102000 0.4540001
v 0.0726173 0.3606173 0.0000000
v 0.0490873 0.3786726 0.0000000
v 0.0080004 0.4102000 0.4540001
v 0.0490873 0.3786726 0.0000000
v 0.0080004 0.4102000 0.0000000
v 0.0000000 0.4135138 0.4540001
v 0.0080004 0.4102000 0.4540001
v 0.0080004 0.4102000 0.0000000
v 0.0000000 0.4135138 0.4540001
v 0.0080004 0.4102000 0.0000000
v 0.0000000 0.4135138 0.0000000
v 0.1420189 0.0318472 0.0000000
v 0.1288274 0.0000000 0.3021833
v 0.1288274 0.0000000 0.0000000
v 0.1288274 0.0000000 0.3021833
v 0.1420189 0.0318472 0.0000000
v 0.1533689 0.0592486 0.0000000
v 0.1288274 0.0000000 0.3021833
v 0.1533689 0.0592486 0.0000000
v 0.1533689 0.0592486 0.4540001
v 0.1288274 0.0000000 0.3021833
v 0.1533689 0.0592486 0.4540001
v 0.1288274 0.0000000 0.4540001
v 0.1533689 0.0592486 0.4540001
v 0.1533689 0.0592486 0.0000000
v 0.1601287 0.1105947 0.0000000
v 0.1533689 0.0592486 0.4540001
v 0.1601287 0.1105947 0.0000000
v 0.1640000 0.1400000 0.0000000
v 0.1533689 0.0592486 0.4540001
v 0.1640000 0.1400000 0.0000000
v 0.1640000 0.1400000 0.4540001
v 0.1232319 0.2126764 0.4540001
v 0.1328001 0.1400000 0.4540001
v 0.1640000 0.1400000 0.4540001
v 0.1232319 0.2126764 0.4540001
v 0.1640000 0.1400000 0.4540001
v 0.1533689 0.2207516 0.4540001
v 0.0951800 0.2804000 0.4540001
v 0.1232319 0.2126764 0.4540001
v 0.1533689 0.2207516 0.4540001
v 0.0951800 0.2804000 0.4540001
v 0.1533689 0.2207516 0.4540001
v 0.1222000 0.2960000 0.4540001
v 0.0505557 0.3385557 0.4540001
v 0.0951800 0.2804000 0.4540001
v 0.1222000 0.2960000 0.4540001
v 0.0505557 0.3385557 0.4540001
v 0.1222000 0.2960000 0.4540001
v 0.0726173 0.3606173 0.4540001
v 0.0000000 0.3773484 0.4540001
v 0.0505557 0.3385557 0.4540001
v 0.0726173 0.3606173 0.4540001
v 0.0000000 0.3773484 0.4540001
v 0.0726173 0.3606173 0.4540001
v 0.0000000 0.3810423 0.4540001
v 0.0000000 0.3810423 0.4540001
v 0.0726173 0.3606173 0.4540001
v 0.0080004 0.4102000 0.4540001
v 0.0000000 0.3810423 0.4540001
v 0.0080004 0.4102000 0.4540001
v 0.0000000 0.3963430 0.4540001
v 0.0000000 0.3963430 0.4540001
v 0.0080004 0.4102000 0.4540001
v 0.0000000 0.4102991 0.4540001
v 0.0000000 0.4102991 0.4540001
v 0.0080004 0.4102000 0.4540001
v 0.0000000 0.4135138 0.4540001
v 0.1288274 0.0000000 0.4540001
v 0.1533689 0.0592486 0.4540001
v 0.0955701 0.0000000 0.4540001
v 0.0955701 0.0000000 0.4540001
v 0.1533689 0.0592486 0.4540001
v 0.1232319 0.0673237 0.4540001
v 0.0955701 0.0000000 0.4540001
v 0.1232319 0.0673237 0.4540001
v 0.0953456 0.0000000 0.4540001
v 0.1232319 0.0673237 0.4540001
v 0.1533689 0.0592486 0.4540001
v 0.1640000 0.1400000 0.4540001
v 0.1232319 0.0673237 0.4540001
v 0.1640000 0.1400000 0.4540001
v 0.1328001 0.1400000 0.4540001
v 0.1232319 0.2126764 0.4540001
v 0.1232319 0.2126764 0.0000000
v 0.1293159 0.1664648 0.0000000
v 0.1232319 0.2126764 0.4540001
v 0.1293159 0.1664648 0.0000000
v 0.1328001 0.1400000 0.0000000
v 0.1232319 0.2126764 0.4540001
v 0.1328001 0.1400000 0.0000000
v 0.1328001 0.1400000 0.4540001
v 0.0951800 0.2804000 0.4540001
v 0.0951800 0.2804000 0.0000000
v 0.1130169 0.2373376 0.0000000
v 0.0951800 0.2804000 0.4540001
v 0.1130169 0.2373376 0.0000000
v 0.1232319 0.2126764 0.0000000
v 0.0951800 0.2804000 0.4540001
v 0.1232319 0.2126764 0.0000000
v 0.1232319 0.2126764 0.4540001
v 0.0505557 0.3385557 0.4540001
v 0.0505557 0.3385557 0.0000000
v 0.0789303 0.3015771 0.0000000
v 0.0505557 0.3385557 0.4540001
v 0.0789303 0.3015771 0.0000000
v 0.0951800 0.2804000 0.0000000
v 0.0505557 0.3385557 0.4540001
v 0.0951800 0.2804000 0.0000000
v 0.0951800 0.2804000 0.4540001
v 0.0293786 0.3548054 0.0000000
v 0.0000000 0.3773484 0.3606941
v 0.0000000 0.3773484 0.0000000
v 0.0000000 0.3773484 0.3606941
v 0.0293786 0.3548054 0.0000000
v 0.0505557 0.3385557 0.0000000
v 0.0000000 0.3773484 0.3606941
v 0.0505557 0.3385557 0.0000000
v 0.0505557 0.3385557 0.4540001
v 0.0000000 0.3773484 0.3606941
v 0.0505557 0.3385557 0.4540001
v 0.0000000 0.3773484 0.4540001
v 0.0953456 0.0000000 0.4540001
v 0.1232319 0.0673237 0.4540001
v 0.1232319 0.0673237 0.0000000
v 0.0953456 0.0000000 0.4540001
v 0.1232319 0.0673237 0.0000000
v 0.1130169 0.0426625 0.0000000
v 0.0953456 0.0000000 0.4540001
v 0.1130169 0.0426625 0.0000000
v 0.0953456 0.0000000 0.4497840
v 0.0953456 0.0000000 0.4497840
v 0.1130169 0.0426625 0.0000000
v 0.0953456 0.0000000 0.0000000
v 0.1232319 0.0673237 0.4540001
v 0.1328001 0.1400000 0.4540001
v 0.1328001 0.1400000 0.0000000
v 0.1232319 0.0673237 0.4540001
v 0.1328001 0.1400000 0.0000000
v 0.1293159 0.1135353 0.0000000
v 0.1232319 0.0673237 0.4540001
v 0.1293159 0.1135353 0.0000000
v 0.1232319 0.0673237 0.0000000
v 0.2498071 0.2465920 0.5200001
v 0.2638402 0.1400000 0.5200001
v 0.2638402 0.1400000 0.4300001
v 0.2498071 0.2465920 0.5200001
v 0.2638402 0.1400000 0.4300001
v 0.2498071 0.2465920 0.4300001
v 0.2086642 0.3459201 0.5200001
v 0.2498071 0.2465920 0.5200001
v 0.2498071 0.2465920 0.4300001
v 0.2086642 0.3459201 0.5200001
v 0.2498071 0.2465920 0.4300001
v 0.2086642 0.3459201 0.4300001
v 0.1432152 0.4312149 0.5200001
v 0.2086642 0.3459201 0.5200001
v 0.2086642 0.3459201 0.4300001
v 0.1432152 0.4312149 0.5200001
v 0.2086642 0.3459201 0.4300001
v 0.1432152 0.4312149 0.4300001
v 0.0579202 0.4966639 0.5200001
v 0.1432152 0.4312149 0.5200001
v 0.1432152 0.4312149 0.4300001
v 0.0579202 0.4966639 0.5200001
v 0.1432152 0.4312149 0.4300001
v 0.0579202 0.4966639 0.4300001
v 0.0000000 0.5206552 0.5200001
v 0.0579202 0.4966639 0.5200001
v 0.0579202 0.4966639 0.4300001
v 0.0000000 0.5206552 0.5200001
v 0.0579202 0.4966639 0.4300001
v 0.0000000 0.5206552 0.4824810
v 0.0000000 0.5206552 0.4824810
v 0.0579202 0.4966639 0.4300001
v 0.0000000 0.5206552 0.4300001
v 0.2359691 0.0000000 0.4300001
v 0.2498071 0.0334079 0.4300001
v 0.2359691 0.0000000 0.4602707
v 0.2359691 0.0000000 0.4602707
v 0.2498071 0.0334079 0.4300001
v 0.2498071 0.0334079 0.5200001
v 0.2359691 0.0000000 0.4602707
v 0.2498071 0.0334079 0.5200001
v 0.2359691 0.0000000 0.5200001
v 0.2498071 0.0334079 0.5200001
v 0.2498071 0.0334079 0.4300001
v 0.2638402 0.1400000 0.4300001
v 0.2498071 0.0334079 0.5200001
v 0.2638402 0.1400000 0.4300001
v 0.2638402 0.1400000 0.5200001
v 0.1145527 0.2103508 0.5200001
v 0.1238146 0.1400000 0.5200001
v 0.2638402 0.1400000 0.5200001
v 0.1145527 0.2103508 0.5200001
v 0.2638402 0.1400000 0.5200001
v 0.2498071 0.2465920 0.5200001
v 0.0873983 0.2759073 0.5200001
v 0.1145527 0.2103508 0.5200001
v 0.2498071 0.2465920 0.5200001
v 0.0873983 0.2759073 0.5200001
v 0.2498071 0.2465920 0.5200001
v 0.2086642 0.3459201 0.5200001
v 0.0442019 0.3322020 0.5200001
v 0.0873983 0.2759073 0.5200001
v 0.2086642 0.3459201 0.5200001
v 0.0442019 0.3322020 0.5200001
v 0.2086642 0.3459201 0.5200001
v 0.1432152 0.4312149 0.5200001
v 0.0000000 0.3661192 0.5200001
v 0.0442019 0.3322020 0.5200001
v 0.1432152 0.4312149 0.5200001
v 0.0000000 0.3661192 0.5200001
v 0.1432152 0.4312149 0.5200001
v 0.0000000 0.3797442 0.5200001
v 0.0000000 0.3797442 0.5200001
v 0.1432152 0.4312149 0.5200001
v 0.0579202 0.4966639 0.5200001
v 0.0000000 0.3797442 0.5200001
v 0.0579202 0.4966639 0.5200001
v 0.0000000 0.3963432 0.5200001
v 0.0000000 0.3963432 0.5200001
v 0.0579202 0.4966639 0.5200001
v 0.0000000 0.4564561 0.5200001
v 0.0000000 0.4564561 0.5200001
v 0.0579202 0.4966639 0.5200001
v 0.0000000 0.5206552 0.5200001
v 0.0944873 0.0000000 0.5200001
v 0.0873983 0.0040928 0.5200001
v 0.0842578 0.0000000 0.5200001
v 0.0873983 0.0040928 0.5200001
v 0.0944873 0.0000000 0.5200001
v 0.2359691 0.0000000 0.5200001
v 0.0873983 0.0040928 0.5200001
v 0.2359691 0.0000000 0.5200001
v 0.2498071 0.0334079 0.5200001
v 0.0873983 0.0040928 0.5200001
v 0.2498071 0.0334079 0.5200001
v 0.1145527 0.0696492 0.5200001
v 0.1145527 0.0696492 0.5200001
v 0.2498071 0.0334079 0.5200001
v 0.2638402 0.1400000 0.5200001
v 0.1145527 0.0696492 0.5200001
v 0.2638402 0.1400000 0.5200001
v 0.1238146 0.1400000 0.5200001
v 0.1145527 0.2103508 0.5200001
v 0.1145527 0.2103508 0.4300001
v 0.1238146 0.1400000 0.4300001
v 0.1145527 0.2103508 0.5200001
v 0.1238146 0.1400000 0.4300001
v 0.1238146 0.1400000 0.5200001
v 0.0873983 0.2759073 0.5200001
v 0.0873983 0.2759073 0.4300001
v 0.1145527 0.2103508 0.4300001
v 0.0873983 0.2759073 0.5200001
v 0.1145527 0.2103508 0.4300001
v 0.1145527 0.2103508 0.5200001
v 0.0442019 0.3322020 0.5200001
v 0.0442019 0.3322020 0.4300001
v 0.0873983 0.2759073 0.4300001
v 0.0442019 0.3322020 0.5200001
v 0.0873983 0.2759073 0.4300001
v 0.0873983 0.2759073 0.5200001
v 0.0000000 0.3661192 0.4300001
v 0.0442019 0.3322020 0.4300001
v 0.0000000 0.3661192 0.5006672
v 0.0000000 0.3661192 0.5006672
v 0.0442019 0.3322020 0.4300001
v 0.0442019 0.3322020 0.5200001
v 0.0000000 0.3661192 0.5006672
v 0.0442019 0.3322020 0.5200001
v 0.0000000 0.3661192 0.5200001
v 0.0842578 0.0000000 0.5200001
v 0.0873983 0.0040928 0.5200001
v 0.0873983 0.0040928 0.4300001
v 0.0842578 0.0000000 0.5200001
v 0.0873983 0.0040928 0.4300001
v 0.0842578 0.0000000 0.4365434
v 0.0842578 0.0000000 0.4365434
v 0.0873983 0.0040928 0.4300001
v 0.0842578 0.0000000 0.4300001
v 0.0873983 0.0040928 0.5200001
v 0.1145527 0.0696492 0.5200001
v 0.1145527 0.0696492 0.4300001
v 0.0873983 0.0040928 0.5200001
v 0.1145527 0.0696492 0.4300001
v 0.0873983 0.0040928 0.4300001
v 0.1145527 0.0696492 0.5200001
v 0.1238146 0.1400000 0.5200001
v 0.1238146 0.1400000 0.4300001
v 0.1145527 0.0696492 0.5200001
v 0.1238146 0.1400000 0.4300001
v 0.1145527 0.0696492 0.4300001
v 0.1145527 0.2103508 0.4300001
v 0.2498071 0.2465920 0.4300001
v 0.2638402 0.1400000 0.4300001
v 0.1145527 0.2103508 0.4300001
v 0.2638402 0.1400000 0.4300001
v 0.1238146 0.1400000 0.4300001
v 0.0873983 0.2759073 0.4300001
v 0.2086642 0.3459201 0.4300001
v 0.2498071 0.2465920 0.4300001
v 0.0873983 0.2759073 0.4300001
v 0.2498071 0.2465920 0.4300001
v 0.1145527 0.2103508 0.4300001
v 0.0442019 0.3322020 0.4300001
v 0.1432152 0.4312149 0.4300001
v 0.2086642 0.3459201 0.4300001
v 0.0442019 0.3322020 0.4300001
v 0.2086642 0.3459201 0.4300001
v 0.0873983 0.2759073 0.4300001
v 0.0000000 0.3963432 0.4300001
v 0.0579202 0.4966639 0.4300001
v 0.1432152 0.4312149 0.4300001
v 0.0000000 0.3963432 0.4300001
v 0.1432152 0.4312149 0.4300001
v 0.0000000 0.3797442 0.4300001
v 0.0000000 0.3797442 0.4300001
v 0.1432152 0.4312149 0.4300001
v 0.0442019 0.3322020 0.4300001
v 0.0000000 0.3797442 0.4300001
v 0.0442019 0.3322020 0.4300001
v 0.0000000 0.3661192 0.4300001
v 0.0000000 0.5206552 0.4300001
v 0.0579202 0.4966639 0.4300001
v 0.0000000 0.4564561 0.4300001
v 0.0000000 0.4564561 0.4300001
v 0.0579202 0.4966639 0.4300001
v 0.0000000 0.3963432 0.4300001
v 0.0842578 0.0000000 0.4300001
v 0.0873983 0.0040928 0.4300001
v 0.0944873 0.0000000 0.4300001
v 0.0873983 0.0040928 0.4300001
v 0.1145527 0.0696492 0.4300001
v 0.2498071 0.0334079 0.4300001
v 0.0873983 0.0040928 0.4300001
v 0.2498071 0.0334079 0.4300001
v 0.2359691 0.0000000 0.4300001
v 0.0873983 0.0040928 0.4300001
v 0.2359691 0.0000000 0.4300001
v 0.0944873 0.0000000 0.4300001
v 0.1145527 0.0696492 0.4300001
v 0.1238146 0.1400000 0.4300001
v 0.2638402 0.1400000 0.4300001
v 0.1145527 0.0696492 0.4300001
v 0.2638402 0.1400000 0.4300001
v 0.2498071 0.0334079 0.4300001
v 0.1908610 0.3007137 0.5200001
v 0.1908610 0.3007135 0.5447105
v 0.2063050 0.2739638 0.5447105
v 0.1908610 0.3007137 0.5200001
v 0.2063050 0.2739638 0.5447105
v 0.2063050 0.2739638 0.5200001
v 0.1599729 0.3007137 0.5200001
v 0.1599729 0.3007135 0.5447105
v 0.1908610 0.3007135 0.5447105
v 0.1599729 0.3007137 0.5200001
v 0.1908610 0.3007135 0.5447105
v 0.1908610 0.3007137 0.5200001
v 0.1445289 0.2739638 0.5200001
v 0.1445289 0.2739638 0.5447105
v 0.1599729 0.3007135 0.5447105
v 0.1445289 0.2739638 0.5200001
v 0.1599729 0.3007135 0.5447105
v 0.1599729 0.3007137 0.5200001
v 0.1445289 0.2739638 0.5200001
v 0.1599729 0.2472140 0.5200001
v 0.1599729 0.2472140 0.5447105
v 0.1445289 0.2739638 0.5200001
v 0.1599729 0.2472140 0.5447105
v 0.1445289 0.2739638 0.5447105
v 0.1599729 0.2472140 0.5200001
v 0.1908610 0.2472140 0.5200001
v 0.1908610 0.2472140 0.5447105
v 0.1599729 0.2472140 0.5200001
v 0.1908610 0.2472140 0.5447105
v 0.1599729 0.2472140 0.5447105
v 0.1908610 0.2472140 0.5200001
v 0.2063050 0.2739638 0.5200001
v 0.2063050 0.2739638 0.5447105
v 0.1908610 0.2472140 0.5200001
v 0.2063050 0.2739638 0.5447105
v 0.1908610 0.2472140 0.5447105
v 0.1445289 0.2739638 0.5200001
v 0.1599729 0.3007137 0.5200001
v 0.1908610 0.3007137 0.5200001
v 0.1445289 0.2739638 0.5200001
v 0.1908610 0.3007137 0.5200001
v 0.2063050 0.2739638 0.5200001
v 0.1445289 0.2739638 0.5200001
v 0.2063050 0.2739638 0.5200001
v 0.1908610 0.2472140 0.5200001
v 0.1445289 0.2739638 0.5200001
v 0.1908610 0.2472140 0.5200001
v 0.1599729 0.2472140 0.5200001
v 0.1445289 0.2739638 0.5447105
v 0.1599729 0.2472140 0.5447105
v 0.1908610 0.2472140 0.5447105
v 0.1445289 0.2739638 0.5447105
v 0.1908610 0.2472140 0.5447105
v 0.2063050 0.2739638 0.5447105
v 0.1445289 0.2739638 0.5447105
v 0.2063050 0.2739638 0.5447105
v 0.1908610 0.3007135 0.5447105
v 0.1445289 0.2739638 0.5447105
v 0.1908610 0.3007135 0.5447105
v 0.1599729 0.3007135 0.5447105
v 0.0014079 0.4901669 0.5200001
v 0.0014079 0.4901668 0.5447105
v 0.0168519 0.4634171 0.5447105
v 0.0014079 0.4901669 0.5200001
v 0.0168519 0.4634171 0.5447105
v 0.0168519 0.4634171 0.5200001
v 0.0000000 0.4901668 0.5447105
v 0.0014079 0.4901668 0.5447105
v 0.0000000 0.4901668 0.5435842
v 0.0000000 0.4901668 0.5435842
v 0.0014079 0.4901668 0.5447105
v 0.0014079 0.4901669 0.5200001
v 0.0000000 0.4901668 0.5435842
v 0.0014079 0.4901669 0.5200001
v 0.0000000 0.4901669 0.5200001
v 0.0000000 0.4366672 0.5200001
v 0.0014079 0.4366672 0.5200001
v 0.0014079 0.4366672 0.5447105
v 0.0000000 0.4366672 0.5200001
v 0.0014079 0.4366672 0.5447105
v 0.0000000 0.4366672 0.5435842
v 0.0000000 0.4366672 0.5435842
v 0.0014079 0.4366672 0.5447105
v 0.0000000 0.4366672 0.5447105
v 0.0014079 0.4366672 0.5200001
v 0.0168519 0.4634171 0.5200001
v 0.0168519 0.4634171 0.5447105
v 0.0014079 0.4366672 0.5200001
v 0.0168519 0.4634171 0.5447105
v 0.0014079 0.4366672 0.5447105
v 0.0000000 0.4901669 0.5200001
v 0.0014079 0.4901669 0.5200001
v 0.0000000 0.4893541 0.5200001
v 0.0000000 0.4893541 0.5200001
v 0.0014079 0.4901669 0.5200001
v 0.0168519 0.4634171 0.5200001
v 0.0000000 0.4893541 0.5200001
v 0.0168519 0.4634171 0.5200001
v 0.0000000 0.4634171 0.5200001
v 0.0000000 0.4634171 0.5200001
v 0.0168519 0.4634171 0.5200001
v 0.0014079 0.4366672 0.5200001
v 0.0000000 0.4634171 0.5200001
v 0.0014079 0.4366672 0.5200001
v 0.0000000 0.4374801 0.5200001
v 0.0000000 0.4374801 0.5200001
v 0.0014079 0.4366672 0.5200001
v 0.0000000 0.4366672 0.5200001
v 0.0000000 0.4366672 0.5447105
v 0.0014079 0.4366672 0.5447105
v 0.0000000 0.4374801 0.5447105
v 0.0000000 0.4374801 0.5447105
v 0.0014079 0.4366672 0.5447105
v 0.0168519 0.4634171 0.5447105
v 0.0000000 0.4374801 0.5447105
v 0.0168519 0.4634171 0.5447105
v 0.0000000 0.4634171 0.5447105
v 0.0000000 0.4634171 0.5447105
v 0.0168519 0.4634171 0.5447105
v 0.0014079 0.4901668 0.5447105
v 0.0000000 0.4634171 0.5447105
v 0.0014079 0.4901668 0.5447105
v 0.0000000 0.4893540 0.5447105
v 0.0000000 0.4893540 0.5447105
v 0.0014079 0.4901668 0.5447105
v 0.0000000 0.4901668 0.5447105
v 0.1908610 0.0327863 0.5200001
v 0.1908610 0.0327861 0.5447105
v 0.2063050 0.0060364 0.5447105
v 0.1908610 0.0327863 0.5200001
v 0.2063050 0.0060364 0.5447105
v 0.2063050 0.0060364 0.5200001
v 0.1599729 0.0327863 0.5200001
v 0.1599729 0.0327861 0.5447105
v 0.1908610 0.0327861 0.5447105
v 0.1599729 0.0327863 0.5200001
v 0.1908610 0.0327861 0.5447105
v 0.1908610 0.0327863 0.5200001
v 0.1445289 0.0060364 0.5200001
v 0.1445289 0.0060364 0.5447105
v 0.1599729 0.0327861 0.5447105
v 0.1445289 0.0060364 0.5200001
v 0.1599729 0.0327861 0.5447105
v 0.1599729 0.0327863 0.5200001
v 0.1445289 0.0060364 0.5200001
v 0.1480140 0.0000000 0.5200001
v 0.1480140 0.0000000 0.5255763
v 0.1445289 0.0060364 0.5200001
v 0.1480140 0.0000000 0.5255763
v 0.1480140 0.0000000 0.5447105
v 0.1445289 0.0060364 0.5200001
v 0.1480140 0.0000000 0.5447105
v 0.1445289 0.0060364 0.5447105
v 0.2028199 0.0000000 0.5200001
v 0.2063050 0.0060364 0.5200001
v 0.2063050 0.0060364 0.5447105
v 0.2028199 0.0000000 0.5200001
v 0.2063050 0.0060364 0.5447105
v 0.2028199 0.0000000 0.5391343
v 0.2028199 0.0000000 0.5391343
v 0.2063050 0.0060364 0.5447105
v 0.2028199 0.0000000 0.5447105
v 0.1445289 0.0060364 0.5200001
v 0.1599729 0.0327863 0.5200001
v 0.1908610 0.0327863 0.5200001
v 0.1445289 0.0060364 0.5200001
v 0.1908610 0.0327863 0.5200001
v 0.2063050 0.0060364 0.5200001
v 0.1445289 0.0060364 0.5200001
v 0.2063050 0.0060364 0.5200001
v 0.2028199 0.0000000 0.5200001
v 0.1445289 0.0060364 0.5200001
v 0.2028199 0.0000000 0.5200001
v 0.1549843 0.0000000 0.5200001
v 0.1445289 0.0060364 0.5200001
v 0.1549843 0.0000000 0.5200001
v 0.1480140 0.0000000 0.5200001
v 0.1445289 0.0060364 0.5447105
v 0.1480140 0.0000000 0.5447105
v 0.1549843 0.0000000 0.5447105
v 0.1445289 0.0060364 0.5447105
v 0.1549843 0.0000000 0.5447105
v 0.2028199 0.0000000 0.5447105
v 0.1445289 0.0060364 0.5447105
v 0.2028199 0.0000000 0.5447105
v 0.2063050 0.0060364 0.5447105
v 0.1445289 0.0060364 0.5447105
v 0.2063050 0.0060364 0.5447105
v 0.1908610 0.0327861 0.5447105
v 0.1445289 0.0060364 0.5447105
v 0.1908610 0.0327861 0.5447105
v 0.1599729 0.0327861 0.5447105
vt 0.7252604 0.0917589
vt 0.7308261 0.0896883
vt 0.7263599 0.0943800
vt 0.7252604 0.0917589
vt 0.7263599 0.0943800
vt 0.7252604 0.0944544
vt 0.7252604 0.0944544
vt 0.7263599 0.0943800
vt 0.7252604 0.0955350
vt 0.7252604 0.0826539
vt 0.7381358 0.0793544
vt 0.7331204 0.0864448
vt 0.7252604 0.0826539
vt 0.7331204 0.0864448
vt 0.7252604 0.0857291
vt 0.7252604 0.0857291
vt 0.7331204 0.0864448
vt 0.7308261 0.0896883
vt 0.7252604 0.0857291
vt 0.7308261 0.0896883
vt 0.7252604 0.0917589
vt 0.7252604 0.0727744
vt 0.7382812 0.0710733
vt 0.7382812 0.0790206
vt 0.7252604 0.0727744
vt 0.7382812 0.0790206
vt 0.7381646 0.0792884
vt 0.7252604 0.0727744
vt 0.7381646 0.0792884
vt 0.7252604 0.0761111
vt 0.7252604 0.0761111
vt 0.7381646 0.0792884
vt 0.7381358 0.0793544
vt 0.7252604 0.0761111
vt 0.7381358 0.0793544
vt 0.7252604 0.0826539
vt 0.7252604 0.0625000
vt 0.7382812 0.0625000
vt 0.7382812 0.0710733
vt 0.7252604 0.0625000
vt 0.7382812 0.0710733
vt 0.7252604 0.0659701
vt 0.7252604 0.0659701
vt 0.7382812 0.0710733
vt 0.7252604 0.0727744
vt 0.7252604 0.0522256
vt 0.7382812 0.0539267
vt 0.7252604 0.0590299
vt 0.7252604 0.0590299
vt 0.7382812 0.0539267
vt 0.7382812 0.0625000
vt 0.7252604 0.0590299
vt 0.7382812 0.0625000
vt 0.7252604 0.0625000
vt 0.7360836 0.0462240
vt 0.7252604 0.0488889
vt 0.7252604 0.0462240
vt 0.7252604 0.0488889
vt 0.7360836 0.0462240
vt 0.7382812 0.0462240
vt 0.7252604 0.0488889
vt 0.7382812 0.0462240
vt 0.7382812 0.0539267
vt 0.7252604 0.0488889
vt 0.7382812 0.0539267
vt 0.7252604 0.0522256
vt 0.6443991 0.0710733
vt 0.6468099 0.0705938
vt 0.6468099 0.0713956
vt 0.6443991 0.0710733
vt 0.6468099 0.0713956
vt 0.6468099 0.0790206
vt 0.6435547 0.0625000
vt 0.6468099 0.0625000
vt 0.6468099 0.0636123
vt 0.6435547 0.0625000
vt 0.6468099 0.0636123
vt 0.6468099 0.0705938
vt 0.6435547 0.0625000
vt 0.6468099 0.0705938
vt 0.6443991 0.0710733
vt 0.6435547 0.0625000
vt 0.6443991 0.0539267
vt 0.6468099 0.0544062
vt 0.6435547 0.0625000
vt 0.6468099 0.0544062
vt 0.6468099 0.0613877
vt 0.6435547 0.0625000
vt 0.6468099 0.0613877
vt 0.6468099 0.0625000
vt 0.6443991 0.0539267
vt 0.6467357 0.0462240
vt 0.6468099 0.0462240
vt 0.6443991 0.0539267
vt 0.6468099 0.0462240
vt 0.6468099 0.0536044
vt 0.6443991 0.0539267
vt 0.6468099 0.0536044
vt 0.6468099 0.0544062
vt 0.7431641 0.0423584
vt 0.7431641 0.0070858
vt 0.7460938 0.0231158
vt 0.7431641 0.0698242
vt 0.7460938 0.0698242
vt 0.7431641 0.1210938
vt 0.7279576 0.0070858
vt 0.7431641 0.0070858
vt 0.7279576 0.0119037
vt 0.7279576 0.0119037
vt 0.7431641 0.0070858
vt 0.7431641 0.0423584
vt 0.7279576 0.0119037
vt 0.7431641 0.0423584
vt 0.7279576 0.0423584
vt 0.7431641 0.0070858
vt 0.7431641 0.0246488
vt 0.7436284 0.0246488
vt 0.7431641 0.0070858
vt 0.7436284 0.0246488
vt 0.7460938 0.0381385
vt 0.7431641 0.0070858
vt 0.7460938 0.0381385
vt 0.7460938 0.0231158
vt 0.7278576 0.0698242
vt 0.7431641 0.0698242
vt 0.7431641 0.1210938
vt 0.7278576 0.0698242
vt 0.7431641 0.1210938
vt 0.7278576 0.1140908
vt 0.7278576 0.1140908
vt 0.7431641 0.1210938
vt 0.7279804 0.1210938
vt 0.6320857 0.1210938
vt 0.6320858 0.0698242
vt 0.6497748 0.0698242
vt 0.6320857 0.1210938
vt 0.6497748 0.0698242
vt 0.6497747 0.1129691
vt 0.6320857 0.1210938
vt 0.6497747 0.1129691
vt 0.6496784 0.1208419
vt 0.7431641 0.0423584
vt 0.7460938 0.0231158
vt 0.7460938 0.0698242
vt 0.7431641 0.0423584
vt 0.7460938 0.0698242
vt 0.7431641 0.0698242
vt 0.7279576 0.0423584
vt 0.7431641 0.0423584
vt 0.7431641 0.0698242
vt 0.7279576 0.0423584
vt 0.7431641 0.0698242
vt 0.7279576 0.0660726
vt 0.7279576 0.0660726
vt 0.7431641 0.0698242
vt 0.7278576 0.0698242
vt 0.7431641 0.0246488
vt 0.7431641 0.0070858
vt 0.7279576 0.0070858
vt 0.7431641 0.0246488
vt 0.7279576 0.0070858
vt 0.7279576 0.0246488
vt 0.6320858 0.0551758
vt 0.6496488 0.0551758
vt 0.6497748 0.0574971
vt 0.6320858 0.0551758
vt 0.6497748 0.0574971
vt 0.6497748 0.0698242
vt 0.6320858 0.0551758
vt 0.6497748 0.0698242
vt 0.6320858 0.0698242
vt 0.7279576 0.0070858
vt 0.7431641 0.0070858
vt 0.7431542 0.0249007
vt 0.7279576 0.0070858
vt 0.7431542 0.0249007
vt 0.7279477 0.0249007
vt 0.9960938 0.0039062
vt 0.9960938 0.1210938
vt 0.9375000 0.1210938
vt 0.9960938 0.0039062
vt 0.9375000 0.1210938
vt 0.9375000 0.0039062
vt 0.9082031 0.0039062
vt 0.9082031 0.1210938
vt 0.9667969 0.1210938
vt 0.9082031 0.0039062
vt 0.9667969 0.1210938
vt 0.9667969 0.0039062
vt 0.9375000 0.0039062
vt 0.9375000 0.1210938
vt 0.9960938 0.1210938
vt 0.9375000 0.0039062
vt 0.9960938 0.1210938
vt 0.9960938 0.0039062
vt 0.9375000 0.0039062
vt 0.8789062 0.0039062
vt 0.8789062 0.1210938
vt 0.9375000 0.0039062
vt 0.8789062 0.1210938
vt 0.9375000 0.1210938
vt 0.9082031 0.0039062
vt 0.9667969 0.0039062
vt 0.9667969 0.1210938
vt 0.9082031 0.0039062
vt 0.9667969 0.1210938
vt 0.9082031 0.1210938
vt 0.8789062 0.0039062
vt 0.9375000 0.0039062
vt 0.9375000 0.1210938
vt 0.8789062 0.0039062
vt 0.9375000 0.1210938
vt 0.8789062 0.1210938
vt 0.8789062 0.0625000
vt 0.9082031 0.1210938
vt 0.9667969 0.1210938
vt 0.8789062 0.0625000
vt 0.9667969 0.1210938
vt 0.9960938 0.0625000
vt 0.8789062 0.0625000
vt 0.9960938 0.0625000
vt 0.9667969 0.0039062
vt 0.8789062 0.0625000
vt 0.9667969 0.0039062
vt 0.9082031 0.0039062
vt 0.8789062 0.0625000
vt 0.9082031 0.0039062
vt 0.9667969 0.0039062
vt 0.8789062 0.0625000
vt 0.9667969 0.0039062
vt 0.9960938 0.0625000
vt 0.8789062 0.0625000
vt 0.9960938 0.0625000
vt 0.9667969 0.1210938
vt 0.8789062 0.0625000
vt 0.9667969 0.1210938
vt 0.9082031 0.1210938
vt 0.6289062 0.0776652
vt 0.6289062 0.0625000
vt 0.7034205 0.0625000
vt 0.6289062 0.0776652
vt 0.7034205 0.0625000
vt 0.7034205 0.0680223
vt 0.6289062 0.0776652
vt 0.7034205 0.0680223
vt 0.7034205 0.0776652
vt 0.6289062 0.0917969
vt 0.6289062 0.0776652
vt 0.7034205 0.0776652
vt 0.6289062 0.0917969
vt 0.7034205 0.0776652
vt 0.7034205 0.0828112
vt 0.6289062 0.0917969
vt 0.7034205 0.0828112
vt 0.7034205 0.0917969
vt 0.6289062 0.1039320
vt 0.6289062 0.0917969
vt 0.7034205 0.0917969
vt 0.6289062 0.1039320
vt 0.7034205 0.0917969
vt 0.7034205 0.0962158
vt 0.6289062 0.1039320
vt 0.7034205 0.0962158
vt 0.7034205 0.1039320
vt 0.7167969 0.0039062
vt 0.7289320 0.0039062
vt 0.7289320 0.0784205
vt 0.7167969 0.0039062
vt 0.7289320 0.0784205
vt 0.7245131 0.0784205
vt 0.7167969 0.0039062
vt 0.7245131 0.0784205
vt 0.7167969 0.0784205
vt 0.7152944 0.0039062
vt 0.7167969 0.0039062
vt 0.7167969 0.0784205
vt 0.7152944 0.0039062
vt 0.7167969 0.0784205
vt 0.7152944 0.0784205
vt 0.7034205 0.0421888
vt 0.6538236 0.0362079
vt 0.7034205 0.0362079
vt 0.6538236 0.0362079
vt 0.7034205 0.0421888
vt 0.7034205 0.0473348
vt 0.6538236 0.0362079
vt 0.7034205 0.0473348
vt 0.6289062 0.0473348
vt 0.6538236 0.0362079
vt 0.6289062 0.0473348
vt 0.6289062 0.0362079
vt 0.6289062 0.0473348
vt 0.7034205 0.0473348
vt 0.7034205 0.0569777
vt 0.6289062 0.0473348
vt 0.7034205 0.0569777
vt 0.7034205 0.0625000
vt 0.6289062 0.0473348
vt 0.7034205 0.0625000
vt 0.6289062 0.0625000
vt 0.7384375 0.0761486
vt 0.7402344 0.0625000
vt 0.7460938 0.0625000
vt 0.7384375 0.0761486
vt 0.7460938 0.0625000
vt 0.7440972 0.0776652
vt 0.7331693 0.0888672
vt 0.7384375 0.0761486
vt 0.7440972 0.0776652
vt 0.7331693 0.0888672
vt 0.7440972 0.0776652
vt 0.7382436 0.0917969
vt 0.7247888 0.0997888
vt 0.7331693 0.0888672
vt 0.7382436 0.0917969
vt 0.7247888 0.0997888
vt 0.7382436 0.0917969
vt 0.7289320 0.1039320
vt 0.7152944 0.1070741
vt 0.7247888 0.0997888
vt 0.7289320 0.1039320
vt 0.7152944 0.1070741
vt 0.7289320 0.1039320
vt 0.7152944 0.1077679
vt 0.7152944 0.1077679
vt 0.7289320 0.1039320
vt 0.7167969 0.1132437
vt 0.7152944 0.1077679
vt 0.7167969 0.1132437
vt 0.7152944 0.1106413
vt 0.7152944 0.1106413
vt 0.7167969 0.1132437
vt 0.7152944 0.1132623
vt 0.7152944 0.1132623
vt 0.7167969 0.1132437
vt 0.7152944 0.1138660
vt 0.7394882 0.0362079
vt 0.7440972 0.0473348
vt 0.7332426 0.0362079
vt 0.7332426 0.0362079
vt 0.7440972 0.0473348
vt 0.7384375 0.0488513
vt 0.7332426 0.0362079
vt 0.7384375 0.0488513
vt 0.7332004 0.0362079
vt 0.7384375 0.0488513
vt 0.7440972 0.0473348
vt 0.7460938 0.0625000
vt 0.7384375 0.0488513
vt 0.7460938 0.0625000
vt 0.7402344 0.0625000
vt 0.6289062 0.0761486
vt 0.7034205 0.0761486
vt 0.7034205 0.0674701
vt 0.6289062 0.0761486
vt 0.7034205 0.0674701
vt 0.7034205 0.0625000
vt 0.6289062 0.0761486
vt 0.7034205 0.0625000
vt 0.6289062 0.0625000
vt 0.6289062 0.0888672
vt 0.7034205 0.0888672
vt 0.7034205 0.0807800
vt 0.6289062 0.0888672
vt 0.7034205 0.0807800
vt 0.7034205 0.0761486
vt 0.6289062 0.0888672
vt 0.7034205 0.0761486
vt 0.6289062 0.0761486
vt 0.6289062 0.0997888
vt 0.7034205 0.0997888
vt 0.7034205 0.0928443
vt 0.6289062 0.0997888
vt 0.7034205 0.0928443
vt 0.7034205 0.0888672
vt 0.6289062 0.0997888
vt 0.7034205 0.0888672
vt 0.6289062 0.0888672
vt 0.7208117 0.0784205
vt 0.7152944 0.0192204
vt 0.7152944 0.0784205
vt 0.7152944 0.0192204
vt 0.7208117 0.0784205
vt 0.7247888 0.0784205
vt 0.7152944 0.0192204
vt 0.7247888 0.0784205
vt 0.7247888 0.0039062
vt 0.7152944 0.0192204
vt 0.7247888 0.0039062
vt 0.7152944 0.0039062
vt 0.6289062 0.0362079
vt 0.6289062 0.0488513
vt 0.7034205 0.0488513
vt 0.6289062 0.0362079
vt 0.7034205 0.0488513
vt 0.7034205 0.0442199
vt 0.6289062 0.0362079
vt 0.7034205 0.0442199
vt 0.6295982 0.0362079
vt 0.6295982 0.0362079
vt 0.7034205 0.0442199
vt 0.7034205 0.0362079
vt 0.6289062 0.0488513
vt 0.6289062 0.0625000
vt 0.7034205 0.0625000
vt 0.6289062 0.0488513
vt 0.7034205 0.0625000
vt 0.7034205 0.0575299
vt 0.6289062 0.0488513
vt 0.7034205 0.0575299
vt 0.7034205 0.0488513
vt 0.6289062 0.0776652
vt 0.6289062 0.0625000
vt 0.7460938 0.0625000
vt 0.6289062 0.0776652
vt 0.7460938 0.0625000
vt 0.7460938 0.0776652
vt 0.6289062 0.0917969
vt 0.6289062 0.0776652
vt 0.7460938 0.0776652
vt 0.6289062 0.0917969
vt 0.7460938 0.0776652
vt 0.7460938 0.0917969
vt 0.6289062 0.1039320
vt 0.6289062 0.0917969
vt 0.7460938 0.0917969
vt 0.6289062 0.1039320
vt 0.7460938 0.0917969
vt 0.7460938 0.1039320
vt 0.7167969 0.0039062
vt 0.7289321 0.0039062
vt 0.7289321 0.1210938
vt 0.7167969 0.0039062
vt 0.7289321 0.1210938
vt 0.7167969 0.1210938
vt 0.7085564 0.0039062
vt 0.7167969 0.0039062
vt 0.7167969 0.1210938
vt 0.7085564 0.0039062
vt 0.7167969 0.1210938
vt 0.7085564 0.0527593
vt 0.7085564 0.0527593
vt 0.7167969 0.1210938
vt 0.7085564 0.1210938
vt 0.7460938 0.0425817
vt 0.7460938 0.0473348
vt 0.7066789 0.0425817
vt 0.7066789 0.0425817
vt 0.7460938 0.0473348
vt 0.6289062 0.0473348
vt 0.7066789 0.0425817
vt 0.6289062 0.0473348
vt 0.6289062 0.0425817
vt 0.6289062 0.0473348
vt 0.7460938 0.0473348
vt 0.7460938 0.0625000
vt 0.6289062 0.0473348
vt 0.7460938 0.0625000
vt 0.6289062 0.0625000
vt 0.7248542 0.0725090
vt 0.7261719 0.0625000
vt 0.7460938 0.0625000
vt 0.7248542 0.0725090
vt 0.7460938 0.0625000
vt 0.7440972 0.0776652
vt 0.7209908 0.0818359
vt 0.7248542 0.0725090
vt 0.7440972 0.0776652
vt 0.7209908 0.0818359
vt 0.7440972 0.0776652
vt 0.7382437 0.0917969
vt 0.7148451 0.0898452
vt 0.7209908 0.0818359
vt 0.7382437 0.0917969
vt 0.7148451 0.0898452
vt 0.7382437 0.0917969
vt 0.7289321 0.1039320
vt 0.7085564 0.0946707
vt 0.7148451 0.0898452
vt 0.7289321 0.1039320
vt 0.7085564 0.0946707
vt 0.7289321 0.1039320
vt 0.7085564 0.0966091
vt 0.7085564 0.0966091
vt 0.7289321 0.1039320
vt 0.7167969 0.1132437
vt 0.7085564 0.0966091
vt 0.7167969 0.1132437
vt 0.7085564 0.0989707
vt 0.7085564 0.0989707
vt 0.7167969 0.1132437
vt 0.7085564 0.1075232
vt 0.7085564 0.1075232
vt 0.7167969 0.1132437
vt 0.7085564 0.1166570
vt 0.7219994 0.0425818
vt 0.7209908 0.0431641
vt 0.7205440 0.0425818
vt 0.7209908 0.0431641
vt 0.7219994 0.0425818
vt 0.7421284 0.0425817
vt 0.7209908 0.0431641
vt 0.7421284 0.0425817
vt 0.7440972 0.0473348
vt 0.7209908 0.0431641
vt 0.7440972 0.0473348
vt 0.7248542 0.0524910
vt 0.7248542 0.0524910
vt 0.7440972 0.0473348
vt 0.7460938 0.0625000
vt 0.7248542 0.0524910
vt 0.7460938 0.0625000
vt 0.7261719 0.0625000
vt 0.6289062 0.0725090
vt 0.7460938 0.0725090
vt 0.7460938 0.0625000
vt 0.6289062 0.0725090
vt 0.7460938 0.0625000
vt 0.6289062 0.0625000
vt 0.6289062 0.0818359
vt 0.7460938 0.0818359
vt 0.7460938 0.0725090
vt 0.6289062 0.0818359
vt 0.7460938 0.0725090
vt 0.6289062 0.0725090
vt 0.6289062 0.0898452
vt 0.7460938 0.0898452
vt 0.7460938 0.0818359
vt 0.6289062 0.0898452
vt 0.7460938 0.0818359
vt 0.6289062 0.0818359
vt 0.7085564 0.1210938
vt 0.7148451 0.1210938
vt 0.7085564 0.0290792
vt 0.7085564 0.0290792
vt 0.7148451 0.1210938
vt 0.7148451 0.0039062
vt 0.7085564 0.0290792
vt 0.7148451 0.0039062
vt 0.7085564 0.0039062
vt 0.6289062 0.0425818
vt 0.6289062 0.0431641
vt 0.7460938 0.0431641
vt 0.6289062 0.0425818
vt 0.7460938 0.0431641
vt 0.7375739 0.0425818
vt 0.7375739 0.0425818
vt 0.7460938 0.0431641
vt 0.7460938 0.0425818
vt 0.6289062 0.0431641
vt 0.6289062 0.0524910
vt 0.7460938 0.0524910
vt 0.6289062 0.0431641
vt 0.7460938 0.0524910
vt 0.7460938 0.0431641
vt 0.6289062 0.0524910
vt 0.6289062 0.0625000
vt 0.7460938 0.0625000
vt 0.6289062 0.0524910
vt 0.7460938 0.0625000
vt 0.7460938 0.0524910
vt 0.7248542 0.0725090
vt 0.7440972 0.0776652
vt 0.7460938 0.0625000
vt 0.7248542 0.0725090
vt 0.7460938 0.0625000
vt 0.7261719 0.0625000
vt 0.7209908 0.0818359
vt 0.7382437 0.0917969
vt 0.7440972 0.0776652
vt 0.7209908 0.0818359
vt 0.7440972 0.0776652
vt 0.7248542 0.0725090
vt 0.7148451 0.0898452
vt 0.7289321 0.1039320
vt 0.7382437 0.0917969
vt 0.7148451 0.0898452
vt 0.7382437 0.0917969
vt 0.7209908 0.0818359
vt 0.7085564 0.0989707
vt 0.7167969 0.1132437
vt 0.7289321 0.1039320
vt 0.7085564 0.0989707
vt 0.7289321 0.1039320
vt 0.7085564 0.0966091
vt 0.7085564 0.0966091
vt 0.7289321 0.1039320
vt 0.7148451 0.0898452
vt 0.7085564 0.0966091
vt 0.7148451 0.0898452
vt 0.7085564 0.0946707
vt 0.7085564 0.1166570
vt 0.7167969 0.1132437
vt 0.7085564 0.1075232
vt 0.7085564 0.1075232
vt 0.7167969 0.1132437
vt 0.7085564 0.0989707
vt 0.7205440 0.0425818
vt 0.7209908 0.0431641
vt 0.7219994 0.0425818
vt 0.7209908 0.0431641
vt 0.7248542 0.0524910
vt 0.7440972 0.0473348
vt 0.7209908 0.0431641
vt 0.7440972 0.0473348
vt 0.7421284 0.0425817
vt 0.7209908 0.0431641
vt 0.7421284 0.0425817
vt 0.7219994 0.0425818
vt 0.7248542 0.0524910
vt 0.7261719 0.0625000
vt 0.7460938 0.0625000
vt 0.7248542 0.0524910
vt 0.7460938 0.0625000
vt 0.7440972 0.0473348
vt 0.9960938 0.0039062
vt 0.9960938 0.1210938
vt 0.9375000 0.1210938
vt 0.9960938 0.0039062
vt 0.9375000 0.1210938
vt 0.9375000 0.0039062
vt 0.9082031 0.0039062
vt 0.9082031 0.1210938
vt 0.9667969 0.1210938
vt 0.9082031 0.0039062
vt 0.9667969 0.1210938
vt 0.9667969 0.0039062
vt 0.9375000 0.0039062
vt 0.9375000 0.1210938
vt 0.9960938 0.1210938
vt 0.9375000 0.0039062
vt 0.9960938 0.1210938
vt 0.9960938 0.0039062
vt 0.9375000 0.0039062
vt 0.8789062 0.0039062
vt 0.8789062 0.1210938
vt 0.9375000 0.0039062
vt 0.8789062 0.1210938
vt 0.9375000 0.1210938
vt 0.9082031 0.0039062
vt 0.9667969 0.0039062
vt 0.9667969 0.1210938
vt 0.9082031 0.0039062
vt 0.9667969 0.1210938
vt 0.9082031 0.1210938
vt 0.8789062 0.0039062
vt 0.9375000 0.0039062
vt 0.9375000 0.1210938
vt 0.8789062 0.0039062
vt 0.9375000 0.1210938
vt 0.8789062 0.1210938
vt 0.8789062 0.0625000
vt 0.9082031 0.1210938
vt 0.9667969 0.1210938
vt 0.8789062 0.0625000
vt 0.9667969 0.1210938
vt 0.9960938 0.0625000
vt 0.8789062 0.0625000
vt 0.9960938 0.0625000
vt 0.9667969 0.0039062
vt 0.8789062 0.0625000
vt 0.9667969 0.0039062
vt 0.9082031 0.0039062
vt 0.8789062 0.0625000
vt 0.9082031 0.0039062
vt 0.9667969 0.0039062
vt 0.8789062 0.0625000
vt 0.9667969 0.0039062
vt 0.9960938 0.0625000
vt 0.8789062 0.0625000
vt 0.9960938 0.0625000
vt 0.9667969 0.1210938
vt 0.8789062 0.0625000
vt 0.9667969 0.1210938
vt 0.9082031 0.1210938
vt 0.9960938 0.0039062
vt 0.9960938 0.1210938
vt 0.9375000 0.1210938
vt 0.9960938 0.0039062
vt 0.9375000 0.1210938
vt 0.9375000 0.0039062
vt 0.9641262 0.1210938
vt 0.9667969 0.1210938
vt 0.9641262 0.1157523
vt 0.9641262 0.1157523
vt 0.9667969 0.1210938
vt 0.9667969 0.0039062
vt 0.9641262 0.1157523
vt 0.9667969 0.0039062
vt 0.9641262 0.0039062
vt 0.9641262 0.0039062
vt 0.9667969 0.0039062
vt 0.9667969 0.1210938
vt 0.9641262 0.0039062
vt 0.9667969 0.1210938
vt 0.9641262 0.1157523
vt 0.9641262 0.1157523
vt 0.9667969 0.1210938
vt 0.9641262 0.1210938
vt 0.8789062 0.0039062
vt 0.9375000 0.0039062
vt 0.9375000 0.1210938
vt 0.8789062 0.0039062
vt 0.9375000 0.1210938
vt 0.8789062 0.1210938
vt 0.9641262 0.1210938
vt 0.9667969 0.1210938
vt 0.9641262 0.1193133
vt 0.9641262 0.1193133
vt 0.9667969 0.1210938
vt 0.9960938 0.0625000
vt 0.9641262 0.1193133
vt 0.9960938 0.0625000
vt 0.9641263 0.0625000
vt 0.9641263 0.0625000
vt 0.9960938 0.0625000
vt 0.9667969 0.0039062
vt 0.9641263 0.0625000
vt 0.9667969 0.0039062
vt 0.9641262 0.0056867
vt 0.9641262 0.0056867
vt 0.9667969 0.0039062
vt 0.9641262 0.0039062
vt 0.9641262 0.0039062
vt 0.9667969 0.0039062
vt 0.9641262 0.0056867
vt 0.9641262 0.0056867
vt 0.9667969 0.0039062
vt 0.9960938 0.0625000
vt 0.9641262 0.0056867
vt 0.9960938 0.0625000
vt 0.9641263 0.0625000
vt 0.9641263 0.0625000
vt 0.9960938 0.0625000
vt 0.9667969 0.1210938
vt 0.9641263 0.0625000
vt 0.9667969 0.1210938
vt 0.9641262 0.1193133
vt 0.9641262 0.1193133
vt 0.9667969 0.1210938
vt 0.9641262 0.1210938
vt 0.9960938 0.0039062
vt 0.9960938 0.1210938
vt 0.9375000 0.1210938
vt 0.9960938 0.0039062
vt 0.9375000 0.1210938
vt 0.9375000 0.0039062
vt 0.9082031 0.0039062
vt 0.9082031 0.1210938
vt 0.9667969 0.1210938
vt 0.9082031 0.0039062
vt 0.9667969 0.1210938
vt 0.9667969 0.0039062
vt 0.9375000 0.0039062
vt 0.9375000 0.1210938
vt 0.9960938 0.1210938
vt 0.9375000 0.0039062
vt 0.9960938 0.1210938
vt 0.9960938 0.0039062
vt 0.9375000 0.0039062
vt 0.9242776 0.0039062
vt 0.9242776 0.0303509
vt 0.9375000 0.0039062
vt 0.9242776 0.0303509
vt 0.9242776 0.1210938
vt 0.9375000 0.0039062
vt 0.9242776 0.1210938
vt 0.9375000 0.1210938
vt 0.9242776 0.0039062
vt 0.9375000 0.0039062
vt 0.9375000 0.1210938
vt 0.9242776 0.0039062
vt 0.9375000 0.1210938
vt 0.9242776 0.0946491
vt 0.9242776 0.0946491
vt 0.9375000 0.1210938
vt 0.9242776 0.1210938
vt 0.8789062 0.0625000
vt 0.9082031 0.1210938
vt 0.9667969 0.1210938
vt 0.8789062 0.0625000
vt 0.9667969 0.1210938
vt 0.9960938 0.0625000
vt 0.8789062 0.0625000
vt 0.9960938 0.0625000
vt 0.9894826 0.0492776
vt 0.8789062 0.0625000
vt 0.9894826 0.0492776
vt 0.8987397 0.0492776
vt 0.8789062 0.0625000
vt 0.8987397 0.0492776
vt 0.8855174 0.0492776
vt 0.8789062 0.0625000
vt 0.8855174 0.0492776
vt 0.8987397 0.0492776
vt 0.8789062 0.0625000
vt 0.8987397 0.0492776
vt 0.9894826 0.0492776
vt 0.8789062 0.0625000
vt 0.9894826 0.0492776
vt 0.9960938 0.0625000
vt 0.8789062 0.0625000
vt 0.9960938 0.0625000
vt 0.9667969 0.1210938
vt 0.8789062 0.0625000
vt 0.9667969 0.1210938
vt 0.9082031 0.1210938
vn 0.4722218 0.4897241 0.7329235
vn 0.4722218 0.4897241 0.7329235
vn 0.4739798 0.5525537 0.6855855
vn 0.4722218 0.4897241 0.7329235
vn 0.4739798 0.5525537 0.6855855
vn 0.4739296 0.5457573 0.6910425
vn 0.4739296 0.5457573 0.6910425
vn 0.4739798 0.5525537 0.6855855
vn 0.4739893 0.5621435 0.6777380
vn 0.4722213 0.3373276 0.8143815
vn 0.4722213 0.3373276 0.8143815
vn 0.4734977 0.4549965 0.7541738
vn 0.4722213 0.3373276 0.8143815
vn 0.4734977 0.4549965 0.7541738
vn 0.4739293 0.4004549 0.7842365
vn 0.4739293 0.4004549 0.7842365
vn 0.4734977 0.4549965 0.7541738
vn 0.4722218 0.4897241 0.7329235
vn 0.4739293 0.4004549 0.7842365
vn 0.4722218 0.4897241 0.7329235
vn 0.4722218 0.4897241 0.7329235
vn 0.4722213 0.1719682 0.8645426
vn 0.4722213 0.1719682 0.8645426
vn 0.4724659 0.3315525 0.8166082
vn 0.4722213 0.1719682 0.8645426
vn 0.4724659 0.3315525 0.8166082
vn 0.4722587 0.3364726 0.8147134
vn 0.4722213 0.1719682 0.8645426
vn 0.4722587 0.3364726 0.8147134
vn 0.4739292 0.2397634 0.8472926
vn 0.4739292 0.2397634 0.8472926
vn 0.4722587 0.3364726 0.8147134
vn 0.4722213 0.3373276 0.8143815
vn 0.4739292 0.2397634 0.8472926
vn 0.4722213 0.3373276 0.8143815
vn 0.4722213 0.3373276 0.8143815
vn 0.4722217 0.0000000 0.8814798
vn 0.4722217 0.0000000 0.8814798
vn 0.4722213 0.1719682 0.8645426
vn 0.4722217 0.0000000 0.8814798
vn 0.4722213 0.1719682 0.8645426
vn 0.4739294 0.0698579 0.8777875
vn 0.4739294 0.0698579 0.8777875
vn 0.4722213 0.1719682 0.8645426
vn 0.4722213 0.1719682 0.8645426
vn 0.4722215 -0.1719681 0.8645425
vn 0.4722216 -0.1719682 0.8645425
vn 0.4739295 -0.0698579 0.8777874
vn 0.4739295 -0.0698579 0.8777874
vn 0.4722216 -0.1719682 0.8645425
vn 0.4722217 0.0000000 0.8814798
vn 0.4739295 -0.0698579 0.8777874
vn 0.4722217 0.0000000 0.8814798
vn 0.4722217 0.0000000 0.8814798
vn 0.4728601 -0.3211489 0.8205283
vn 0.4739294 -0.2397634 0.8472924
vn 0.4738397 -0.2799458 0.8349289
vn 0.4739294 -0.2397634 0.8472924
vn 0.4728601 -0.3211489 0.8205283
vn 0.4726547 -0.3267734 0.8184233
vn 0.4739294 -0.2397634 0.8472924
vn 0.4726547 -0.3267734 0.8184233
vn 0.4722216 -0.1719682 0.8645425
vn 0.4739294 -0.2397634 0.8472924
vn 0.4722216 -0.1719682 0.8645425
vn 0.4722215 -0.1719681 0.8645425
vn 0.8479984 0.1033976 0.5198151
vn 0.8479984 0.1033976 0.5198151
vn 0.8485577 0.1176276 0.5158619
vn 0.8479984 0.1033976 0.5198151
vn 0.8485577 0.1176276 0.5158619
vn 0.8481573 0.1992832 0.4908314
vn 0.8479984 -0.0000000 0.5299988
vn 0.8479984 0.0000000 0.5299988
vn 0.8487353 0.0208343 0.5284074
vn 0.8479984 -0.0000000 0.5299988
vn 0.8487353 0.0208343 0.5284074
vn 0.8479984 0.1033976 0.5198151
vn 0.8479984 -0.0000000 0.5299988
vn 0.8479984 0.1033976 0.5198151
vn 0.8479984 0.1033976 0.5198151
vn 0.8479984 -0.0000000 0.5299988
vn 0.8479985 -0.1033977 0.5198148
vn 0.8479985 -0.1033977 0.5198148
vn 0.8479984 -0.0000000 0.5299988
vn 0.8479985 -0.1033977 0.5198148
vn 0.8487353 -0.0208343 0.5284073
vn 0.8479984 -0.0000000 0.5299988
vn 0.8487353 -0.0208343 0.5284073
vn 0.8479984 0.0000000 0.5299988
vn 0.8479985 -0.1033977 0.5198148
vn 0.8482795 -0.1963609 0.4917969
vn 0.8482663 -0.1966872 0.4916893
vn 0.8479985 -0.1033977 0.5198148
vn 0.8482663 -0.1966872 0.4916893
vn 0.8485579 -0.1176277 0.5158617
vn 0.8479985 -0.1033977 0.5198148
vn 0.8485579 -0.1176277 0.5158617
vn 0.8479985 -0.1033977 0.5198148
vn 0.5773499 -0.5773510 0.5773498
vn 0.5773499 -0.5773510 0.5773498
vn 0.5773499 -0.5773510 0.5773498
vn 0.5773500 0.5773510 0.5773498
vn 0.5773500 0.5773510 0.5773498
vn 0.5773500 0.5773510 0.5773498
vn 0.0000000 -0.7071066 0.7071069
vn 0.0000000 -0.7071066 0.7071069
vn 0.0000000 -0.7071066 0.7071069
vn 0.0000000 -0.7071066 0.7071069
vn 0.0000000 -0.7071066 0.7071069
vn 0.0000000 -0.7071066 0.7071069
vn 0.0000000 -0.7071066 0.7071069
vn 0.0000000 -0.7071066 0.7071069
vn 0.0000000 -0.7071066 0.7071069
vn 0.7071068 -0.7071068 0.0000000
vn 0.7071068 -0.7071068 0.0000000
vn 0.7071068 -0.7071068 0.0000000
vn 0.7071068 -0.7071068 0.0000000
vn 0.7071068 -0.7071068 0.0000000
vn 0.7071068 -0.7071068 0.0000000
vn 0.7071068 -0.7071068 0.0000000
vn 0.7071068 -0.7071068 0.0000000
vn 0.7071068 -0.7071068 0.0000000
vn 0.0000000 0.7071066 0.7071069
vn 0.0000000 0.7071066 0.7071069
vn 0.0000000 0.7071066 0.7071069
vn 0.0000000 0.7071066 0.7071069
vn 0.0000000 0.7071066 0.7071069
vn 0.0000000 0.7071066 0.7071069
vn 0.0000000 0.7071066 0.7071069
vn 0.0000000 0.7071066 0.7071069
vn 0.0000000 0.7071066 0.7071069
vn 0.7071068 0.7071068 0.0000000
vn 0.7071068 0.7071068 0.0000000
vn 0.7071068 0.7071068 0.0000000
vn 0.7071068 0.7071068 0.0000000
vn 0.7071068 0.7071068 0.0000000
vn 0.7071068 0.7071068 0.0000000
vn 0.7071068 0.7071068 0.0000000
vn 0.7071068 0.7071068 0.0000000
vn 0.7071068 0.7071068 0.0000000
vn 0.7071074 0.0000000 0.7071062
vn 0.7071074 0.0000000 0.7071062
vn 0.7071074 0.0000000 0.7071062
vn 0.7071074 0.0000000 0.7071062
vn 0.7071074 0.0000000 0.7071062
vn 0.7071074 0.0000000 0.7071062
vn 0.0000000 0.0000000 1.0000000
vn 0.0000000 0.0000000 1.0000000
vn 0.0000000 0.0000000 1.0000000
vn 0.0000000 0.0000000 1.0000000
vn 0.0000000 0.0000000 1.0000000
vn 0.0000000 0.0000000 1.0000000
vn 0.0000000 0.0000000 1.0000000
vn 0.0000000 0.0000000 1.0000000
vn 0.0000000 0.0000000 1.0000000
vn 0.0000000 -1.0000000 0.0000000
vn 0.0000000 -1.0000000 0.0000000
vn 0.0000000 -1.0000000 0.0000000
vn 0.0000000 -1.0000000 0.0000000
vn 0.0000000 -1.0000000 0.0000000
vn 0.0000000 -1.0000000 0.0000000
vn 1.0000000 0.0000000 -0.0000000
vn 1.0000000 0.0000000 0.0000000
vn 1.0000000 0.0000000 0.0000000
vn 1.0000000 0.0000000 -0.0000000
vn 1.0000000 0.0000000 0.0000000
vn 1.0000000 0.0000000 0.0000000
vn 1.0000000 0.0000000 -0.0000000
vn 1.0000000 0.0000000 0.0000000
vn 1.0000000 0.0000000 -0.0000000
vn 0.0000000 1.0000000 0.0000000
vn 0.0000000 1.0000000 0.0000000
vn 0.0000000 1.0000000 0.0000000
vn 0.0000000 1.0000000 0.0000000
vn 0.0000000 1.0000000 0.0000000
vn 0.0000000 1.0000000 0.0000000
vn -0.8660254 0.0000000 0.5000001
vn -0.8660254 0.0000000 0.5000001
vn -0.8660254 0.0000000 0.5000001
vn -0.8660254 0.0000000 0.5000001
vn -0.8660254 0.0000000 0.5000001
vn -0.8660254 0.0000000 0.5000001
vn 0.0000002 0.0000000 1.0000000
vn 0.0000002 0.0000000 1.0000000
vn 0.0000002 0.0000000 1.0000000
vn 0.0000002 0.0000000 1.0000000
vn 0.0000002 0.0000000 1.0000000
vn 0.0000002 0.0000000 1.0000000
vn 0.8660255 0.0000000 0.4999999
vn 0.8660255 0.0000000 0.4999999
vn 0.8660255 0.0000000 0.4999999
vn 0.8660255 0.0000000 0.4999999
vn 0.8660255 0.0000000 0.4999999
vn 0.8660255 0.0000000 0.4999999
vn 0.8660254 0.0000000 -0.5000001
vn 0.8660254 0.0000000 -0.5000001
vn 0.8660254 0.0000000 -0.5000001
vn 0.8660254 0.0000000 -0.5000001
vn 0.8660254 0.0000000 -0.5000001
vn 0.8660254 0.0000000 -0.5000001
vn -0.0000002 0.0000000 -1.0000000
vn -0.0000002 0.0000000 -1.0000000
vn -0.0000002 0.0000000 -1.0000000
vn -0.0000002 0.0000000 -1.0000000
vn -0.0000002 0.0000000 -1.0000000
vn -0.0000002 0.0000000 -1.0000000
vn -0.8660255 0.0000000 -0.4999999
vn -0.8660255 0.0000000 -0.4999999
vn -0.8660255 0.0000000 -0.4999999
vn -0.8660255 0.0000000 -0.4999999
vn -0.8660255 0.0000000 -0.4999999
vn -0.8660255 0.0000000 -0.4999999
vn 0.0000000 -1.0000000 0.0000000
vn 0.0000000 -1.0000000 0.0000000
vn 0.0000000 -1.0000000 0.0000000
vn 0.0000000 -1.0000000 0.0000000
vn 0.0000000 -1.0000000 0.0000000
vn 0.0000000 -1.0000000 0.0000000
vn 0.0000000 -1.0000000 0.0000000
vn 0.0000000 -1.0000000 0.0000000
vn 0.0000000 -1.0000000 0.0000000
vn 0.0000000 -1.0000000 0.0000000
vn 0.0000000 -1.0000000 0.0000000
vn 0.0000000 -1.0000000 0.0000000
vn 0.0000000 1.0000000 0.0000000
vn 0.0000000 1.0000000 0.0000000
vn 0.0000000 1.0000000 0.0000000
vn 0.0000000 1.0000000 0.0000000
vn 0.0000000 1.0000000 0.0000000
vn 0.0000000 1.0000000 0.0000000
vn 0.0000000 1.0000000 0.0000000
vn 0.0000000 1.0000000 0.0000000
vn 0.0000000 1.0000000 0.0000000
vn 0.0000000 1.0000000 0.0000000
vn 0.0000000 1.0000000 0.0000000
vn 0.0000000 1.0000000 0.0000000
vn 0.9659259 0.2588188 0.0000000
vn 1.0000000 -0.0000003 0.0000000
vn 1.0000000 -0.0000003 0.0000000
vn 0.9659259 0.2588188 0.0000000
vn 1.0000000 -0.0000003 0.0000000
vn 0.9954773 0.0950000 0.0000000
vn 0.9659259 0.2588188 0.0000000
vn 0.9954773 0.0950000 0.0000000
vn 0.9659259 0.2588188 0.0000000
vn 0.8660250 0.5000008 0.0000000
vn 0.9659259 0.2588188 0.0000000
vn 0.9659259 0.2588188 0.0000000
vn 0.8660250 0.5000008 0.0000000
vn 0.9659259 0.2588188 0.0000000
vn 0.9369692 0.3494119 0.0000000
vn 0.8660250 0.5000008 0.0000000
vn 0.9369692 0.3494119 0.0000000
vn 0.8660250 0.5000008 0.0000000
vn 0.7071077 0.7071059 0.0000000
vn 0.8660250 0.5000008 0.0000000
vn 0.8660250 0.5000008 0.0000000
vn 0.7071077 0.7071059 0.0000000
vn 0.8660250 0.5000008 0.0000000
vn 0.8146084 0.5800114 0.0000000
vn 0.7071077 0.7071059 0.0000000
vn 0.8146084 0.5800114 0.0000000
vn 0.7071077 0.7071059 0.0000000
vn 0.5000010 0.8660248 0.0000000
vn 0.7071077 0.7071059 0.0000000
vn 0.7071077 0.7071059 0.0000000
vn 0.5000010 0.8660248 0.0000000
vn 0.7071077 0.7071059 0.0000000
vn 0.6367343 0.7710833 0.0000000
vn 0.5000010 0.8660248 0.0000000
vn 0.6367343 0.7710833 0.0000000
vn 0.5000010 0.8660248 0.0000000
vn 0.4759019 0.8794984 0.0000000
vn 0.5000010 0.8660248 0.0000000
vn 0.5000010 0.8660248 0.0000000
vn 0.4759019 0.8794984 0.0000000
vn 0.5000010 0.8660248 0.0000000
vn 0.4759019 0.8794984 0.0000000
vn 0.9369694 -0.3494115 0.0000000
vn 0.8923722 -0.4513001 0.0000000
vn 0.8923722 -0.4513001 0.0000000
vn 0.8923722 -0.4513001 0.0000000
vn 0.9369694 -0.3494115 0.0000000
vn 0.9659260 -0.2588185 0.0000000
vn 0.8923722 -0.4513001 0.0000000
vn 0.9659260 -0.2588185 0.0000000
vn 0.9659260 -0.2588185 0.0000000
vn 0.8923722 -0.4513001 0.0000000
vn 0.9659260 -0.2588185 0.0000000
vn 0.8923722 -0.4513001 0.0000000
vn 0.9659260 -0.2588185 0.0000000
vn 0.9659260 -0.2588185 0.0000000
vn 0.9954772 -0.0950003 0.0000000
vn 0.9659260 -0.2588185 0.0000000
vn 0.9954772 -0.0950003 0.0000000
vn 1.0000000 -0.0000003 0.0000000
vn 0.9659260 -0.2588185 0.0000000
vn 1.0000000 -0.0000003 0.0000000
vn 1.0000000 -0.0000003 0.0000000
vn 0.0000000 -0.0000004 1.0000000
vn 0.0000000 -0.0000004 1.0000000
vn 0.0000000 -0.0000004 1.0000000
vn 0.0000000 -0.0000004 1.0000000
vn 0.0000000 -0.0000004 1.0000000
vn 0.0000000 -0.0000004 1.0000000
vn 0.0000000 0.0000000 1.0000000
vn 0.0000000 -0.0000004 1.0000000
vn 0.0000000 -0.0000004 1.0000000
vn 0.0000000 0.0000000 1.0000000
vn 0.0000000 -0.0000004 1.0000000
vn 0.0000000 0.0000000 1.0000000
vn 0.0000000 0.0000008 1.0000000
vn 0.0000000 0.0000000 1.0000000
vn 0.0000000 0.0000000 1.0000000
vn 0.0000000 0.0000008 1.0000000
vn 0.0000000 0.0000000 1.0000000
vn 0.0000000 0.0000008 1.0000000
vn 0.0000000 0.0000008 1.0000000
vn 0.0000000 0.0000008 1.0000000
vn 0.0000000 0.0000008 1.0000000
vn 0.0000000 0.0000008 1.0000000
vn 0.0000000 0.0000008 1.0000000
vn 0.0000000 0.0000008 1.0000000
vn 0.0000000 0.0000008 1.0000000
vn 0.0000000 0.0000008 1.0000000
vn 0.0000000 0.0000008 1.0000000
vn 0.0000000 0.0000008 1.0000000
vn 0.0000000 0.0000008 1.0000000
vn 0.0000000 0.0000008 1.0000000
vn 0.0000000 0.0000008 1.0000000
vn 0.0000000 0.0000008 1.0000000
vn 0.0000000 0.0000007 1.0000000
vn 0.0000000 0.0000007 1.0000000
vn 0.0000000 0.0000008 1.0000000
vn 0.0000000 0.0000007 1.0000000
vn 0.0000000 0.0000002 1.0000000
vn 0.0000000 -0.0000004 1.0000000
vn 0.0000000 0.0000004 1.0000000
vn 0.0000000 0.0000004 1.0000000
vn 0.0000000 -0.0000004 1.0000000
vn 0.0000000 -0.0000004 1.0000000
vn 0.0000000 0.0000004 1.0000000
vn 0.0000000 -0.0000004 1.0000000
vn 0.0000000 0.0000004 1.0000000
vn 0.0000000 -0.0000004 1.0000000
vn 0.0000000 -0.0000004 1.0000000
vn 0.0000000 -0.0000004 1.0000000
vn 0.0000000 -0.0000004 1.0000000
vn 0.0000000 -0.0000004 1.0000000
vn 0.0000000 -0.0000004 1.0000000
vn -0.9659258 -0.2588190 0.0000000
vn -0.9659258 -0.2588190 0.0000000
vn -0.9954773 -0.0950002 0.0000000
vn -0.9659258 -0.2588190 0.0000000
vn -0.9954773 -0.0950002 0.0000000
vn -1.0000000 0.0000001 0.0000000
vn -0.9659258 -0.2588190 0.0000000
vn -1.0000000 0.0000001 0.0000000
vn -1.0000000 0.0000001 0.0000000
vn -0.8660263 -0.4999985 0.0000000
vn -0.8660263 -0.4999985 0.0000000
vn -0.9369695 -0.3494111 0.0000000
vn -0.8660263 -0.4999985 0.0000000
vn -0.9369695 -0.3494111 0.0000000
vn -0.9659258 -0.2588190 0.0000000
vn -0.8660263 -0.4999985 0.0000000
vn -0.9659258 -0.2588190 0.0000000
vn -0.9659258 -0.2588190 0.0000000
vn -0.7071066 -0.7071069 0.0000000
vn -0.7071066 -0.7071069 0.0000000
vn -0.8146090 -0.5800104 0.0000000
vn -0.7071066 -0.7071069 0.0000000
vn -0.8146090 -0.5800104 0.0000000
vn -0.8660263 -0.4999985 0.0000000
vn -0.7071066 -0.7071069 0.0000000
vn -0.8660263 -0.4999985 0.0000000
vn -0.8660263 -0.4999985 0.0000000
vn -0.6367330 -0.7710843 0.0000000
vn -0.5291164 -0.8485493 0.0000000
vn -0.5291164 -0.8485493 0.0000000
vn -0.5291164 -0.8485493 0.0000000
vn -0.6367330 -0.7710843 0.0000000
vn -0.7071066 -0.7071069 0.0000000
vn -0.5291164 -0.8485493 0.0000000
vn -0.7071066 -0.7071069 0.0000000
vn -0.7071066 -0.7071069 0.0000000
vn -0.5291164 -0.8485493 0.0000000
vn -0.7071066 -0.7071069 0.0000000
vn -0.5291164 -0.8485493 0.0000000
vn -0.8667894 0.4986744 0.0000000
vn -0.9659258 0.2588192 0.0000000
vn -0.9659258 0.2588192 0.0000000
vn -0.8667894 0.4986744 0.0000000
vn -0.9659258 0.2588192 0.0000000
vn -0.9369695 0.3494113 0.0000000
vn -0.8667894 0.4986744 0.0000000
vn -0.9369695 0.3494113 0.0000000
vn -0.8667894 0.4986744 0.0000000
vn -0.8667894 0.4986744 0.0000000
vn -0.9369695 0.3494113 0.0000000
vn -0.8667894 0.4986744 0.0000000
vn -0.9659258 0.2588192 0.0000000
vn -1.0000000 0.0000001 0.0000000
vn -1.0000000 0.0000001 0.0000000
vn -0.9659258 0.2588192 0.0000000
vn -1.0000000 0.0000001 0.0000000
vn -0.9954772 0.0950004 0.0000000
vn -0.9659258 0.2588192 0.0000000
vn -0.9954772 0.0950004 0.0000000
vn -0.9659258 0.2588192 0.0000000
vn 0.9659259 0.2588187 0.0000000
vn 1.0000000 0.0000001 0.0000000
vn 1.0000000 0.0000001 0.0000000
vn 0.9659259 0.2588187 0.0000000
vn 1.0000000 0.0000001 0.0000000
vn 0.9659259 0.2588187 0.0000000
vn 0.8660257 0.4999996 0.0000000
vn 0.9659259 0.2588187 0.0000000
vn 0.9659259 0.2588187 0.0000000
vn 0.8660257 0.4999996 0.0000000
vn 0.9659259 0.2588187 0.0000000
vn 0.8660257 0.4999996 0.0000000
vn 0.7071067 0.7071069 0.0000000
vn 0.8660257 0.4999996 0.0000000
vn 0.8660257 0.4999996 0.0000000
vn 0.7071067 0.7071069 0.0000000
vn 0.8660257 0.4999996 0.0000000
vn 0.7071067 0.7071069 0.0000000
vn 0.4999993 0.8660258 0.0000000
vn 0.7071067 0.7071069 0.0000000
vn 0.7071067 0.7071069 0.0000000
vn 0.4999993 0.8660258 0.0000000
vn 0.7071067 0.7071069 0.0000000
vn 0.4999993 0.8660258 0.0000000
vn 0.3623764 0.9320318 0.0000000
vn 0.4999993 0.8660258 0.0000000
vn 0.4999993 0.8660258 0.0000000
vn 0.3623764 0.9320318 0.0000000
vn 0.4999993 0.8660258 0.0000000
vn 0.3623764 0.9320318 0.0000000
vn 0.3623764 0.9320318 0.0000000
vn 0.4999993 0.8660258 0.0000000
vn 0.3623764 0.9320318 0.0000000
vn 0.9394985 -0.3425531 0.0000000
vn 0.9659258 -0.2588191 0.0000000
vn 0.9394985 -0.3425531 0.0000000
vn 0.9394985 -0.3425531 0.0000000
vn 0.9659258 -0.2588191 0.0000000
vn 0.9659258 -0.2588191 0.0000000
vn 0.9394985 -0.3425531 0.0000000
vn 0.9659258 -0.2588191 0.0000000
vn 0.9394985 -0.3425531 0.0000000
vn 0.9659258 -0.2588191 0.0000000
vn 0.9659258 -0.2588191 0.0000000
vn 1.0000000 0.0000001 0.0000000
vn 0.9659258 -0.2588191 0.0000000
vn 1.0000000 0.0000001 0.0000000
vn 1.0000000 0.0000001 0.0000000
vn 0.0000000 -0.0000001 1.0000000
vn 0.0000000 0.0000000 1.0000000
vn 0.0000000 0.0000000 1.0000000
vn 0.0000000 -0.0000001 1.0000000
vn 0.0000000 0.0000000 1.0000000
vn 0.0000000 -0.0000001 1.0000000
vn 0.0000000 -0.0000002 1.0000000
vn 0.0000000 -0.0000001 1.0000000
vn 0.0000000 -0.0000001 1.0000000
vn 0.0000000 -0.0000002 1.0000000
vn 0.0000000 -0.0000001 1.0000000
vn 0.0000000 -0.0000002 1.0000000
vn 0.0000000 0.0000000 1.0000000
vn 0.0000000 -0.0000002 1.0000000
vn 0.0000000 -0.0000002 1.0000000
vn 0.0000000 0.0000000 1.0000000
vn 0.0000000 -0.0000002 1.0000000
vn 0.0000000 0.0000000 1.0000000
vn 0.0000000 0.0000000 1.0000000
vn 0.0000000 0.0000000 1.0000000
vn 0.0000000 0.0000000 1.0000000
vn 0.0000000 0.0000000 1.0000000
vn 0.0000000 0.0000000 1.0000000
vn 0.0000000 0.0000000 1.0000000
vn 0.0000000 0.0000000 1.0000000
vn 0.0000000 0.0000000 1.0000000
vn 0.0000000 0.0000000 1.0000000
vn 0.0000000 0.0000000 1.0000000
vn 0.0000000 0.0000000 1.0000000
vn 0.0000000 0.0000000 1.0000000
vn 0.0000000 0.0000000 1.0000000
vn 0.0000000 0.0000000 1.0000000
vn 0.0000000 0.0000000 1.0000000
vn 0.0000000 0.0000000 1.0000000
vn 0.0000000 0.0000000 1.0000000
vn 0.0000000 0.0000000 1.0000000
vn 0.0000000 -0.0000005 1.0000000
vn 0.0000000 -0.0000005 1.0000000
vn 0.0000000 -0.0000005 1.0000000
vn 0.0000000 -0.0000005 1.0000000
vn 0.0000000 -0.0000005 1.0000000
vn 0.0000000 -0.0000003 1.0000000
vn 0.0000000 -0.0000005 1.0000000
vn 0.0000000 -0.0000003 1.0000000
vn 0.0000000 -0.0000002 1.0000000
vn 0.0000000 -0.0000005 1.0000000
vn 0.0000000 -0.0000002 1.0000000
vn 0.0000000 -0.0000002 1.0000000
vn 0.0000000 -0.0000002 1.0000000
vn 0.0000000 -0.0000002 1.0000000
vn 0.0000000 0.0000000 1.0000000
vn 0.0000000 -0.0000002 1.0000000
vn 0.0000000 0.0000000 1.0000000
vn 0.0000000 0.0000000 1.0000000
vn -0.9659258 -0.2588192 0.0000000
vn -0.9659258 -0.2588192 0.0000000
vn -1.0000000 0.0000000 0.0000000
vn -0.9659258 -0.2588192 0.0000000
vn -1.0000000 0.0000000 0.0000000
vn -1.0000000 0.0000000 0.0000000
vn -0.8660253 -0.5000002 0.0000000
vn -0.8660253 -0.5000002 0.0000000
vn -0.9659258 -0.2588192 0.0000000
vn -0.8660253 -0.5000002 0.0000000
vn -0.9659258 -0.2588192 0.0000000
vn -0.9659258 -0.2588192 0.0000000
vn -0.7071065 -0.7071070 0.0000000
vn -0.7071065 -0.7071070 0.0000000
vn -0.8660253 -0.5000002 0.0000000
vn -0.7071065 -0.7071070 0.0000000
vn -0.8660253 -0.5000002 0.0000000
vn -0.8660253 -0.5000002 0.0000000
vn -0.5476447 -0.8367110 0.0000000
vn -0.7071065 -0.7071070 0.0000000
vn -0.5476447 -0.8367110 0.0000000
vn -0.5476447 -0.8367110 0.0000000
vn -0.7071065 -0.7071070 0.0000000
vn -0.7071065 -0.7071070 0.0000000
vn -0.5476447 -0.8367110 0.0000000
vn -0.7071065 -0.7071070 0.0000000
vn -0.5476447 -0.8367110 0.0000000
vn -0.8564409 0.5162451 0.0000000
vn -0.8660251 0.5000006 0.0000000
vn -0.8660251 0.5000006 0.0000000
vn -0.8564409 0.5162451 0.0000000
vn -0.8660251 0.5000006 0.0000000
vn -0.8564409 0.5162451 0.0000000
vn -0.8564409 0.5162451 0.0000000
vn -0.8660251 0.5000006 0.0000000
vn -0.8564409 0.5162451 0.0000000
vn -0.8660251 0.5000006 0.0000000
vn -0.9659257 0.2588196 0.0000000
vn -0.9659257 0.2588196 0.0000000
vn -0.8660251 0.5000006 0.0000000
vn -0.9659257 0.2588196 0.0000000
vn -0.8660251 0.5000006 0.0000000
vn -0.9659257 0.2588196 0.0000000
vn -1.0000000 0.0000000 0.0000000
vn -1.0000000 0.0000000 0.0000000
vn -0.9659257 0.2588196 0.0000000
vn -1.0000000 0.0000000 0.0000000
vn -0.9659257 0.2588196 0.0000000
vn 0.0000000 0.0000005 -1.0000000
vn 0.0000000 0.0000005 -1.0000000
vn 0.0000000 0.0000003 -1.0000000
vn 0.0000000 0.0000005 -1.0000000
vn 0.0000000 0.0000003 -1.0000000
vn 0.0000000 0.0000003 -1.0000000
vn 0.0000000 0.0000000 -1.0000000
vn 0.0000000 0.0000000 -1.0000000
vn 0.0000000 0.0000005 -1.0000000
vn 0.0000000 0.0000000 -1.0000000
vn 0.0000000 0.0000005 -1.0000000
vn 0.0000000 0.0000005 -1.0000000
vn 0.0000000 -0.0000002 -1.0000000
vn 0.0000000 -0.0000002 -1.0000000
vn 0.0000000 0.0000000 -1.0000000
vn 0.0000000 -0.0000002 -1.0000000
vn 0.0000000 0.0000000 -1.0000000
vn 0.0000000 0.0000000 -1.0000000
vn 0.0000000 -0.0000003 -1.0000000
vn 0.0000000 -0.0000003 -1.0000000
vn 0.0000000 -0.0000002 -1.0000000
vn 0.0000000 -0.0000003 -1.0000000
vn 0.0000000 -0.0000002 -1.0000000
vn 0.0000000 -0.0000003 -1.0000000
vn 0.0000000 -0.0000003 -1.0000000
vn 0.0000000 -0.0000002 -1.0000000
vn 0.0000000 -0.0000002 -1.0000000
vn 0.0000000 -0.0000003 -1.0000000
vn 0.0000000 -0.0000002 -1.0000000
vn 0.0000000 -0.0000003 -1.0000000
vn 0.0000000 -0.0000001 -1.0000000
vn 0.0000000 -0.0000003 -1.0000000
vn 0.0000000 -0.0000002 -1.0000000
vn 0.0000000 -0.0000002 -1.0000000
vn 0.0000000 -0.0000003 -1.0000000
vn 0.0000000 -0.0000003 -1.0000000
vn 0.0000000 0.0000002 -1.0000000
vn 0.0000000 0.0000002 -1.0000000
vn 0.0000000 0.0000002 -1.0000000
vn 0.0000000 0.0000002 -1.0000000
vn 0.0000000 -0.0000002 -1.0000000
vn 0.0000000 -0.0000002 -1.0000000
vn 0.0000000 0.0000002 -1.0000000
vn 0.0000000 -0.0000002 -1.0000000
vn 0.0000000 -0.0000001 -1.0000000
vn 0.0000000 0.0000002 -1.0000000
vn 0.0000000 -0.0000001 -1.0000000
vn 0.0000000 0.0000002 -1.0000000
vn 0.0000000 -0.0000002 -1.0000000
vn 0.0000000 0.0000003 -1.0000000
vn 0.0000000 0.0000003 -1.0000000
vn 0.0000000 -0.0000002 -1.0000000
vn 0.0000000 0.0000003 -1.0000000
vn 0.0000000 -0.0000002 -1.0000000
vn 0.8660254 0.5000000 0.0000001
vn 0.8660254 0.5000000 0.0000001
vn 0.8660254 0.5000000 0.0000001
vn 0.8660254 0.5000000 0.0000001
vn 0.8660254 0.5000000 0.0000001
vn 0.8660254 0.5000000 0.0000001
vn 0.0000000 1.0000000 0.0000002
vn 0.0000000 1.0000000 0.0000002
vn 0.0000000 1.0000000 0.0000002
vn 0.0000000 1.0000000 0.0000002
vn 0.0000000 1.0000000 0.0000002
vn 0.0000000 1.0000000 0.0000002
vn -0.8660254 0.5000000 0.0000001
vn -0.8660254 0.5000000 0.0000001
vn -0.8660254 0.5000000 0.0000001
vn -0.8660254 0.5000000 0.0000001
vn -0.8660254 0.5000000 0.0000001
vn -0.8660254 0.5000000 0.0000001
vn -0.8660254 -0.5000000 -0.0000001
vn -0.8660254 -0.5000000 -0.0000001
vn -0.8660254 -0.5000000 -0.0000001
vn -0.8660254 -0.5000000 -0.0000001
vn -0.8660254 -0.5000000 -0.0000001
vn -0.8660254 -0.5000000 -0.0000001
vn 0.0000000 -1.0000000 -0.0000002
vn 0.0000000 -1.0000000 -0.0000002
vn 0.0000000 -1.0000000 -0.0000002
vn 0.0000000 -1.0000000 -0.0000002
vn 0.0000000 -1.0000000 -0.0000002
vn 0.0000000 -1.0000000 -0.0000002
vn 0.8660254 -0.5000000 -0.0000001
vn 0.8660254 -0.5000000 -0.0000001
vn 0.8660254 -0.5000000 -0.0000001
vn 0.8660254 -0.5000000 -0.0000001
vn 0.8660254 -0.5000000 -0.0000001
vn 0.8660254 -0.5000000 -0.0000001
vn 0.0000000 0.0000002 -1.0000000
vn 0.0000000 0.0000002 -1.0000000
vn 0.0000000 0.0000002 -1.0000000
vn 0.0000000 0.0000002 -1.0000000
vn 0.0000000 0.0000002 -1.0000000
vn 0.0000000 0.0000002 -1.0000000
vn 0.0000000 0.0000002 -1.0000000
vn 0.0000000 0.0000002 -1.0000000
vn 0.0000000 0.0000002 -1.0000000
vn 0.0000000 0.0000002 -1.0000000
vn 0.0000000 0.0000002 -1.0000000
vn 0.0000000 0.0000002 -1.0000000
vn 0.0000000 -0.0000002 1.0000000
vn 0.0000000 -0.0000002 1.0000000
vn 0.0000000 -0.0000002 1.0000000
vn 0.0000000 -0.0000002 1.0000000
vn 0.0000000 -0.0000002 1.0000000
vn 0.0000000 -0.0000002 1.0000000
vn 0.0000000 -0.0000002 1.0000000
vn 0.0000000 -0.0000002 1.0000000
vn 0.0000000 -0.0000002 1.0000000
vn 0.0000000 -0.0000002 1.0000000
vn 0.0000000 -0.0000002 1.0000000
vn 0.0000000 -0.0000002 1.0000000
vn 0.8660254 0.5000000 0.0000001
vn 0.8660254 0.5000000 0.0000001
vn 0.8660254 0.5000000 0.0000001
vn 0.8660254 0.5000000 0.0000001
vn 0.8660254 0.5000000 0.0000001
vn 0.8660254 0.5000000 0.0000001
vn 0.0000000 1.0000000 0.0000002
vn 0.0000000 1.0000000 0.0000002
vn 0.0000000 1.0000000 0.0000002
vn 0.0000000 1.0000000 0.0000002
vn 0.0000000 1.0000000 0.0000002
vn 0.0000000 1.0000000 0.0000002
vn 0.0000000 1.0000000 0.0000002
vn 0.0000000 1.0000000 0.0000002
vn 0.0000000 1.0000000 0.0000002
vn 0.0000000 -1.0000000 -0.0000002
vn 0.0000000 -1.0000000 -0.0000002
vn 0.0000000 -1.0000000 -0.0000002
vn 0.0000000 -1.0000000 -0.0000002
vn 0.0000000 -1.0000000 -0.0000002
vn 0.0000000 -1.0000000 -0.0000002
vn 0.0000000 -1.0000000 -0.0000002
vn 0.0000000 -1.0000000 -0.0000002
vn 0.0000000 -1.0000000 -0.0000002
vn 0.8660254 -0.5000000 -0.0000001
vn 0.8660254 -0.5000000 -0.0000001
vn 0.8660254 -0.5000000 -0.0000001
vn 0.8660254 -0.5000000 -0.0000001
vn 0.8660254 -0.5000000 -0.0000001
vn 0.8660254 -0.5000000 -0.0000001
vn 0.0000000 0.0000002 -1.0000000
vn 0.0000000 0.0000002 -1.0000000
vn 0.0000000 0.0000002 -1.0000000
vn 0.0000000 0.0000002 -1.0000000
vn 0.0000000 0.0000002 -1.0000000
vn 0.0000000 0.0000002 -1.0000000
vn 0.0000000 0.0000002 -1.0000000
vn 0.0000000 0.0000002 -1.0000000
vn 0.0000000 0.0000002 -1.0000000
vn 0.0000000 0.0000002 -1.0000000
vn 0.0000000 0.0000002 -1.0000000
vn 0.0000000 0.0000002 -1.0000000
vn 0.0000000 0.0000002 -1.0000000
vn 0.0000000 0.0000002 -1.0000000
vn 0.0000000 0.0000002 -1.0000000
vn 0.0000000 0.0000002 -1.0000000
vn 0.0000000 0.0000002 -1.0000000
vn 0.0000000 0.0000002 -1.0000000
vn 0.0000000 -0.0000002 1.0000000
vn 0.0000000 -0.0000002 1.0000000
vn 0.0000000 -0.0000002 1.0000000
vn 0.0000000 -0.0000002 1.0000000
vn 0.0000000 -0.0000002 1.0000000
vn 0.0000000 -0.0000002 1.0000000
vn 0.0000000 -0.0000002 1.0000000
vn 0.0000000 -0.0000002 1.0000000
vn 0.0000000 -0.0000002 1.0000000
vn 0.0000000 -0.0000002 1.0000000
vn 0.0000000 -0.0000002 1.0000000
vn 0.0000000 -0.0000002 1.0000000
vn 0.0000000 -0.0000002 1.0000000
vn 0.0000000 -0.0000002 1.0000000
vn 0.0000000 -0.0000002 1.0000000
vn 0.0000000 -0.0000002 1.0000000
vn 0.0000000 -0.0000002 1.0000000
vn 0.0000000 -0.0000002 1.0000000
vn 0.8660254 0.5000000 0.0000001
vn 0.8660254 0.5000000 0.0000001
vn 0.8660254 0.5000000 0.0000001
vn 0.8660254 0.5000000 0.0000001
vn 0.8660254 0.5000000 0.0000001
vn 0.8660254 0.5000000 0.0000001
vn 0.0000000 1.0000000 0.0000002
vn 0.0000000 1.0000000 0.0000002
vn 0.0000000 1.0000000 0.0000002
vn 0.0000000 1.0000000 0.0000002
vn 0.0000000 1.0000000 0.0000002
vn 0.0000000 1.0000000 0.0000002
vn -0.8660254 0.5000000 0.0000001
vn -0.8660254 0.5000000 0.0000001
vn -0.8660254 0.5000000 0.0000001
vn -0.8660254 0.5000000 0.0000001
vn -0.8660254 0.5000000 0.0000001
vn -0.8660254 0.5000000 0.0000001
vn -0.8660254 -0.5000000 -0.0000001
vn -0.8660254 -0.5000000 -0.0000001
vn -0.8660254 -0.5000000 -0.0000001
vn -0.8660254 -0.5000000 -0.0000001
vn -0.8660254 -0.5000000 -0.0000001
vn -0.8660254 -0.5000000 -0.0000001
vn -0.8660254 -0.5000000 -0.0000001
vn -0.8660254 -0.5000000 -0.0000001
vn -0.8660254 -0.5000000 -0.0000001
vn 0.8660254 -0.5000000 -0.0000001
vn 0.8660254 -0.5000000 -0.0000001
vn 0.8660254 -0.5000000 -0.0000001
vn 0.8660254 -0.5000000 -0.0000001
vn 0.8660254 -0.5000000 -0.0000001
vn 0.8660254 -0.5000000 -0.0000001
vn 0.8660254 -0.5000000 -0.0000001
vn 0.8660254 -0.5000000 -0.0000001
vn 0.8660254 -0.5000000 -0.0000001
vn 0.0000000 0.0000002 -1.0000000
vn 0.0000000 0.0000002 -1.0000000
vn 0.0000000 0.0000002 -1.0000000
vn 0.0000000 0.0000002 -1.0000000
vn 0.0000000 0.0000002 -1.0000000
vn 0.0000000 0.0000002 -1.0000000
vn 0.0000000 0.0000002 -1.0000000
vn 0.0000000 0.0000002 -1.0000000
vn 0.0000000 0.0000002 -1.0000000
vn 0.0000000 0.0000002 -1.0000000
vn 0.0000000 0.0000002 -1.0000000
vn 0.0000000 0.0000002 -1.0000000
vn 0.0000000 0.0000002 -1.0000000
vn 0.0000000 0.0000002 -1.0000000
vn 0.0000000 0.0000002 -1.0000000
vn 0.0000000 -0.0000002 1.0000000
vn 0.0000000 -0.0000002 1.0000000
vn 0.0000000 -0.0000002 1.0000000
vn 0.0000000 -0.0000002 1.0000000
vn 0.0000000 -0.0000002 1.0000000
vn 0.0000000 -0.0000002 1.0000000
vn 0.0000000 -0.0000002 1.0000000
vn 0.0000000 -0.0000002 1.0000000
vn 0.0000000 -0.0000002 1.0000000
vn 0.0000000 -0.0000002 1.0000000
vn 0.0000000 -0.0000002 1.0000000
vn 0.0000000 -0.0000002 1.0000000
vn 0.0000000 -0.0000002 1.0000000
vn 0.0000000 -0.0000002 1.0000000
vn 0.0000000 -0.0000002 1.0000000
f 1/1/1 2/2/2 3/3/3
f 4/4/4 5/5/5 6/6/6
f 7/7/7 8/8/8 9/9/9
f 10/10/10 11/11/11 12/12/12
f 13/13/13 14/14/14 15/15/15
f 16/16/16 17/17/17 18/18/18
f 19/19/19 20/20/20 21/21/21
f 22/22/22 23/23/23 24/24/24
f 25/25/25 26/26/26 27/27/27
f 28/28/28 29/29/29 30/30/30
f 31/31/31 32/32/32 33/33/33
f 34/34/34 35/35/35 36/36/36
f 37/37/37 38/38/38 39/39/39
f 40/40/40 41/41/41 42/42/42
f 43/43/43 44/44/44 45/45/45
f 46/46/46 47/47/47 48/48/48
f 49/49/49 50/50/50 51/51/51
f 52/52/52 53/53/53 54/54/54
f 55/55/55 56/56/56 57/57/57
f 58/58/58 59/59/59 60/60/60
f 61/61/61 62/62/62 63/63/63
f 64/64/64 65/65/65 66/66/66
f 67/67/67 68/68/68 69/69/69
f 70/70/70 71/71/71 72/72/72
f 73/73/73 74/74/74 75/75/75
f 76/76/76 77/77/77 78/78/78
f 79/79/79 80/80/80 81/81/81
f 82/82/82 83/83/83 84/84/84
f 85/85/85 86/86/86 87/87/87
f 88/88/88 89/89/89 90/90/90
f 91/91/91 92/92/92 93/93/93
f 94/94/94 95/95/95 96/96/96
f 97/97/97 98/98/98 99/99/99
f 100/100/100 101/101/101 102/102/102
f 103/103/103 104/104/104 105/105/105
f 106/106/106 107/107/107 108/108/108
f 109/109/109 110/110/110 111/111/111
f 112/112/112 113/113/113 114/114/114
f 115/115/115 116/116/116 117/117/117
f 118/118/118 119/119/119 120/120/120
f 121/121/121 122/122/122 123/123/123
f 124/124/124 125/125/125 126/126/126
f 127/127/127 128/128/128 129/129/129
f 130/130/130 131/131/131 132/132/132
f 133/133/133 134/134/134 135/135/135
f 136/136/136 137/137/137 138/138/138
f 139/139/139 140/140/140 141/141/141
f 142/142/142 143/143/143 144/144/144
f 145/145/145 146/146/146 147/147/147
f 148/148/148 149/149/149 150/150/150
f 151/151/151 152/152/152 153/153/153
f 154/154/154 155/155/155 156/156/156
f 157/157/157 158/158/158 159/159/159
f 160/160/160 161/161/161 162/162/162
f 163/163/163 164/164/164 165/165/165
f 166/166/166 167/167/167 168/168/168
f 169/169/169 170/170/170 171/171/171
f 172/172/172 173/173/173 174/174/174
f 175/175/175 176/176/176 177/177/177
f 178/178/178 179/179/179 180/180/180
f 181/181/181 182/182/182 183/183/183
f 184/184/184 185/185/185 186/186/186
f 187/187/187 188/188/188 189/189/189
f 190/190/190 191/191/191 192/192/192
f 193/193/193 194/194/194 195/195/195
f 196/196/196 197/197/197 198/198/198
f 199/199/199 200/200/200 201/201/201
f 202/202/202 203/203/203 204/204/204
f 205/205/205 206/206/206 207/207/207
f 208/208/208 209/209/209 210/210/210
f 211/211/211 212/212/212 213/213/213
f 214/214/214 215/215/215 216/216/216
f 217/217/217 218/218/218 219/219/219
f 220/220/220 221/221/221 222/222/222
f 223/223/223 224/224/224 225/225/225
f 226/226/226 227/227/227 228/228/228
f 229/229/229 230/230/230 231/231/231
f 232/232/232 233/233/233 234/234/234
f 235/235/235 236/236/236 237/237/237
f 238/238/238 239/239/239 240/240/240
f 241/241/241 242/242/242 243/243/243
f 244/244/244 245/245/245 246/246/246
f 247/247/247 248/248/248 249/249/249
f 250/250/250 251/251/251 252/252/252
f 253/253/253 254/254/254 255/255/255
f 256/256/256 257/257/257 258/258/258
f 259/259/259 260/260/260 261/261/261
f 262/262/262 263/263/263 264/264/264
f 265/265/265 266/266/266 267/267/267
f 268/268/268 269/269/269 270/270/270
f 271/271/271 272/272/272 273/273/273
f 274/274/274 275/275/275 276/276/276
f 277/277/277 278/278/278 279/279/279
f 280/280/280 281/281/281 282/282/282
f 283/283/283 284/284/284 285/285/285
f 286/286/286 287/287/287 288/288/288
f 289/289/289 290/290/290 291/291/291
f 292/292/292 293/293/293 294/294/294
f 295/295/295 296/296/296 297/297/297
f 298/298/298 299/299/299 300/300/300
f 301/301/301 302/302/302 303/303/303
f 304/304/304 305/305/305 306/306/306
f 307/307/307 308/308/308 309/309/309
f 310/310/310 311/311/311 312/312/312
f 313/313/313 314/314/314 315/315/315
f 316/316/316 317/317/317 318/318/318
f 319/319/319 320/320/320 321/321/321
f 322/322/322 323/323/323 324/324/324
f 325/325/325 326/326/326 327/327/327
f 328/328/328 329/329/329 330/330/330
f 331/331/331 332/332/332 333/333/333
f 334/334/334 335/335/335 336/336/336
f 337/337/337 338/338/338 339/339/339
f 340/340/340 341/341/341 342/342/342
f 343/343/343 344/344/344 345/345/345
f 346/346/346 347/347/347 348/348/348
f 349/349/349 350/350/350 351/351/351
f 352/352/352 353/353/353 354/354/354
f 355/355/355 356/356/356 357/357/357
f 358/358/358 359/359/359 360/360/360
f 361/361/361 362/362/362 363/363/363
f 364/364/364 365/365/365 366/366/366
f 367/367/367 368/368/368 369/369/369
f 370/370/370 371/371/371 372/372/372
f 373/373/373 374/374/374 375/375/375
f 376/376/376 377/377/377 378/378/378
f 379/379/379 380/380/380 381/381/381
f 382/382/382 383/383/383 384/384/384
f 385/385/385 386/386/386 387/387/387
f 388/388/388 389/389/389 390/390/390
f 391/391/391 392/392/392 393/393/393
f 394/394/394 395/395/395 396/396/396
f 397/397/397 398/398/398 399/399/399
f 400/400/400 401/401/401 402/402/402
f 403/403/403 404/404/404 405/405/405
f 406/406/406 407/407/407 408/408/408
f 409/409/409 410/410/410 411/411/411
f 412/412/412 413/413/413 414/414/414
f 415/415/415 416/416/416 417/417/417
f 418/418/418 419/419/419 420/420/420
f 421/421/421 422/422/422 423/423/423
f 424/424/424 425/425/425 426/426/426
f 427/427/427 428/428/428 429/429/429
f 430/430/430 431/431/431 432/432/432
f 433/433/433 434/434/434 435/435/435
f 436/436/436 437/437/437 438/438/438
f 439/439/439 440/440/440 441/441/441
f 442/442/442 443/443/443 444/444/444
f 445/445/445 446/446/446 447/447/447
f 448/448/448 449/449/449 450/450/450
f 451/451/451 452/452/452 453/453/453
f 454/454/454 455/455/455 456/456/456
f 457/457/457 458/458/458 459/459/459
f 460/460/460 461/461/461 462/462/462
f 463/463/463 464/464/464 465/465/465
f 466/466/466 467/467/467 468/468/468
f 469/469/469 470/470/470 471/471/471
f 472/472/472 473/473/473 474/474/474
f 475/475/475 476/476/476 477/477/477
f 478/478/478 479/479/479 480/480/480
f 481/481/481 482/482/482 483/483/483
f 484/484/484 485/485/485 486/486/486
f 487/487/487 488/488/488 489/489/489
f 490/490/490 491/491/491 492/492/492
f 493/493/493 494/494/494 495/495/495
f 496/496/496 497/497/497 498/498/498
f 499/499/499 500/500/500 501/501/501
f 502/502/502 503/503/503 504/504/504
f 505/505/505 506/506/506 507/507/507
f 508/508/508 509/509/509 510/510/510
f 511/511/511 512/512/512 513/513/513
f 514/514/514 515/515/515 516/516/516
f 517/517/517 518/518/518 519/519/519
f 520/520/520 521/521/521 522/522/522
f 523/523/523 524/524/524 525/525/525
f 526/526/526 527/527/527 528/528/528
f 529/529/529 530/530/530 531/531/531
f 532/532/532 533/533/533 534/534/534
f 535/535/535 536/536/536 537/537/537
f 538/538/538 539/539/539 540/540/540
f 541/541/541 542/542/542 543/543/543
f 544/544/544 545/545/545 546/546/546
f 547/547/547 548/548/548 549/549/549
f 550/550/550 551/551/551 552/552/552
f 553/553/553 554/554/554 555/555/555
f 556/556/556 557/557/557 558/558/558
f 559/559/559 560/560/560 561/561/561
f 562/562/562 563/563/563 564/564/564
f 565/565/565 566/566/566 567/567/567
f 568/568/568 569/569/569 570/570/570
f 571/571/571 572/572/572 573/573/573
f 574/574/574 575/575/575 576/576/576
f 577/577/577 578/578/578 579/579/579
f 580/580/580 581/581/581 582/582/582
f 583/583/583 584/584/584 585/585/585
f 586/586/586 587/587/587 588/588/588
f 589/589/589 590/590/590 591/591/591
f 592/592/592 593/593/593 594/594/594
f 595/595/595 596/596/596 597/597/597
f 598/598/598 599/599/599 600/600/600
f 601/601/601 602/602/602 603/603/603
f 604/604/604 605/605/605 606/606/606
f 607/607/607 608/608/608 609/609/609
f 610/610/610 611/611/611 612/612/612
f 613/613/613 614/614/614 615/615/615
f 616/616/616 617/617/617 618/618/618
f 619/619/619 620/620/620 621/621/621
f 622/622/622 623/623/623 624/624/624
f 625/625/625 626/626/626 627/627/627
f 628/628/628 629/629/629 630/630/630
f 631/631/631 632/632/632 633/633/633
f 634/634/634 635/635/635 636/636/636
f 637/637/637 638/638/638 639/639/639
f 640/640/640 641/641/641 642/642/642
f 643/643/643 644/644/644 645/645/645
f 646/646/646 647/647/647 648/648/648
f 649/649/649 650/650/650 651/651/651
f 652/652/652 653/653/653 654/654/654
f 655/655/655 656/656/656 657/657/657
f 658/658/658 659/659/659 660/660/660
f 661/661/661 662/662/662 663/663/663
f 664/664/664 665/665/665 666/666/666
f 667/667/667 668/668/668 669/669/669
f 670/670/670 671/671/671 672/672/672
f 673/673/673 674/674/674 675/675/675
f 676/676/676 677/677/677 678/678/678
f 679/679/679 680/680/680 681/681/681
f 682/682/682 683/683/683 684/684/684
f 685/685/685 686/686/686 687/687/687
f 688/688/688 689/689/689 690/690/690
f 691/691/691 692/692/692 693/693/693
f 694/694/694 695/695/695 696/696/696
f 697/697/697 698/698/698 699/699/699
f 700/700/700 701/701/701 702/702/702
f 703/703/703 704/704/704 705/705/705
f 706/706/706 707/707/707 708/708/708
f 709/709/709 710/710/710 711/711/711
f 712/712/712 713/713/713 714/714/714
f 715/715/715 716/716/716 717/717/717
f 718/718/718 719/719/719 720/720/720
f 721/721/721 722/722/722 723/723/723
f 724/724/724 725/725/725 726/726/726
f 727/727/727 728/728/728 729/729/729
f 730/730/730 731/731/731 732/732/732
f 733/733/733 734/734/734 735/735/735
f 736/736/736 737/737/737 738/738/738
f 739/739/739 740/740/740 741/741/741
f 742/742/742 743/743/743 744/744/744
f 745/745/745 746/746/746 747/747/747
f 748/748/748 749/749/749 750/750/750
f 751/751/751 752/752/752 753/753/753
f 754/754/754 755/755/755 756/756/756
f 757/757/757 758/758/758 759/759/759
f 760/760/760 761/761/761 762/762/762
f 763/763/763 764/764/764 765/765/765
f 766/766/766 767/767/767 768/768/768
f 769/769/769 770/770/770 771/771/771
f 772/772/772 773/773/773 774/774/774
f 775/775/775 776/776/776 777/777/777
f 778/778/778 779/779/779 780/780/780
f 781/781/781 782/782/782 783/783/783
f 784/784/784 785/785/785 786/786/786
f 787/787/787 788/788/788 789/789/789
f 790/790/790 791/791/791 792/792/792
f 793/793/793 794/794/794 795/795/795
f 796/796/796 797/797/797 798/798/798
f 799/799/799 800/800/800 801/801/801
f 802/802/802 803/803/803 804/804/804
f 805/805/805 806/806/806 807/807/807
