# metre = block; Y up; per-cell coordinates; atlas UVs preserved
mtllib materials.mtl
o cell_53
usemtl pump_atlas
v 0.8920000 0.0039999 0.4460000
v 0.9002210 0.0453298 0.4460000
v 0.9002210 0.0453298 0.3620000
v 0.8920000 0.0039999 0.4460000
v 0.9002210 0.0453298 0.3620000
v 0.8920000 0.0039999 0.3620000
v 0.9002210 0.0453298 0.4460000
v 0.9236325 0.0803676 0.4460000
v 0.9236325 0.0803676 0.3620000
v 0.9002210 0.0453298 0.4460000
v 0.9236325 0.0803676 0.3620000
v 0.9002210 0.0453298 0.3620000
v 0.9236325 0.0803676 0.4460000
v 0.9586703 0.1037791 0.4460000
v 0.9586703 0.1037791 0.3620000
v 0.9236325 0.0803676 0.4460000
v 0.9586703 0.1037791 0.3620000
v 0.9236325 0.0803676 0.3620000
v 0.9586703 0.1037791 0.4460000
v 1.0000000 0.1120000 0.4460000
v 1.0000000 0.1120000 0.3620000
v 0.9586703 0.1037791 0.4460000
v 1.0000000 0.1120000 0.3620000
v 0.9586703 0.1037791 0.3620000
v 0.8920000 0.0039999 0.4460000
v 0.8920000 0.0039999 0.3620000
v 0.8927956 0.0000000 0.3620000
v 0.8920000 0.0039999 0.4460000
v 0.8927956 0.0000000 0.3620000
v 0.8927956 0.0000000 0.4378705
v 0.8920000 0.0039999 0.4460000
v 0.8927956 0.0000000 0.4378705
v 0.8927956 0.0000000 0.4460000
v 0.8920000 0.0039999 0.3620000
v 0.9002210 0.0453298 0.3620000
v 0.9431261 0.0275581 0.3620000
v 0.8920000 0.0039999 0.3620000
v 0.9431261 0.0275581 0.3620000
v 0.9384400 0.0039999 0.3620000
v 0.9002210 0.0453298 0.3620000
v 0.9236325 0.0803676 0.3620000
v 0.9564706 0.0475295 0.3620000
v 0.9002210 0.0453298 0.3620000
v 0.9564706 0.0475295 0.3620000
v 0.9431261 0.0275581 0.3620000
v 0.9236325 0.0803676 0.3620000
v 0.9586703 0.1037791 0.3620000
v 0.9764421 0.0608740 0.3620000
v 0.9236325 0.0803676 0.3620000
v 0.9764421 0.0608740 0.3620000
v 0.9564706 0.0475295 0.3620000
v 0.9586703 0.1037791 0.3620000
v 1.0000000 0.1120000 0.3620000
v 1.0000000 0.0655601 0.3620000
v 0.9586703 0.1037791 0.3620000
v 1.0000000 0.0655601 0.3620000
v 0.9764421 0.0608740 0.3620000
v 0.8920000 0.0039999 0.3620000
v 0.9384400 0.0039999 0.3620000
v 0.9392357 0.0000000 0.3620000
v 0.8920000 0.0039999 0.3620000
v 0.9392357 0.0000000 0.3620000
v 0.9006807 0.0000000 0.3620000
v 0.8920000 0.0039999 0.3620000
v 0.9006807 0.0000000 0.3620000
v 0.8927956 0.0000000 0.3620000
v 0.9384400 0.0039999 0.4460000
v 0.9384400 0.0039999 0.3620000
v 0.9431261 0.0275581 0.3620000
v 0.9384400 0.0039999 0.4460000
v 0.9431261 0.0275581 0.3620000
v 0.9431261 0.0275581 0.4460000
v 0.9431261 0.0275581 0.4460000
v 0.9431261 0.0275581 0.3620000
v 0.9564706 0.0475295 0.3620000
v 0.9431261 0.0275581 0.4460000
v 0.9564706 0.0475295 0.3620000
v 0.9564706 0.0475295 0.4460000
v 0.9564706 0.0475295 0.4460000
v 0.9564706 0.0475295 0.3620000
v 0.9764421 0.0608740 0.3620000
v 0.9564706 0.0475295 0.4460000
v 0.9764421 0.0608740 0.3620000
v 0.9764421 0.0608740 0.4460000
v 0.9764421 0.0608740 0.4460000
v 0.9764421 0.0608740 0.3620000
v 1.0000000 0.0655601 0.3620000
v 0.9764421 0.0608740 0.4460000
v 1.0000000 0.0655601 0.3620000
v 1.0000000 0.0655601 0.4460000
v 0.9384400 0.0039999 0.4460000
v 0.9392357 0.0000000 0.4460000
v 0.9392357 0.0000000 0.4317376
v 0.9384400 0.0039999 0.4460000
v 0.9392357 0.0000000 0.4317376
v 0.9392357 0.0000000 0.3620000
v 0.9384400 0.0039999 0.4460000
v 0.9392357 0.0000000 0.3620000
v 0.9384400 0.0039999 0.3620000
v 0.8920000 0.0039999 0.4460000
v 0.9384400 0.0039999 0.4460000
v 0.9431261 0.0275581 0.4460000
v 0.8920000 0.0039999 0.4460000
v 0.9431261 0.0275581 0.4460000
v 0.9002210 0.0453298 0.4460000
v 0.9002210 0.0453298 0.4460000
v 0.9431261 0.0275581 0.4460000
v 0.9564706 0.0475295 0.4460000
v 0.9002210 0.0453298 0.4460000
v 0.9564706 0.0475295 0.4460000
v 0.9236325 0.0803676 0.4460000
v 0.9236325 0.0803676 0.4460000
v 0.9564706 0.0475295 0.4460000
v 0.9764421 0.0608740 0.4460000
v 0.9236325 0.0803676 0.4460000
v 0.9764421 0.0608740 0.4460000
v 0.9586703 0.1037791 0.4460000
v 0.9586703 0.1037791 0.4460000
v 0.9764421 0.0608740 0.4460000
v 1.0000000 0.0655601 0.4460000
v 0.9586703 0.1037791 0.4460000
v 1.0000000 0.0655601 0.4460000
v 1.0000000 0.1120000 0.4460000
v 0.8920000 0.0039999 0.4460000
v 0.8927956 0.0000000 0.4460000
v 0.9006807 0.0000000 0.4460000
v 0.8920000 0.0039999 0.4460000
v 0.9006807 0.0000000 0.4460000
v 0.9392357 0.0000000 0.4460000
v 0.8920000 0.0039999 0.4460000
v 0.9392357 0.0000000 0.4460000
v 0.9384400 0.0039999 0.4460000
v 0.9952924 0.0000000 0.4280000
v 0.9952924 0.2980001 0.4280000
v 1.0000000 0.2980001 0.4218649
v 0.9952924 0.0000000 0.4280000
v 1.0000000 0.2980001 0.4218649
v 1.0000000 0.0000000 0.4218649
v 0.9809067 0.0000000 0.4627301
v 0.9809067 0.2980001 0.4627301
v 0.9952924 0.2980001 0.4280000
v 0.9809067 0.0000000 0.4627301
v 0.9952924 0.2980001 0.4280000
v 0.9880753 0.0000000 0.4454235
v 0.9880753 0.0000000 0.4454235
v 0.9952924 0.2980001 0.4280000
v 0.9952924 0.0000000 0.4280000
v 0.9760001 0.0000000 0.5000000
v 0.9760001 0.2980001 0.5000000
v 0.9809067 0.2980001 0.4627301
v 0.9760001 0.0000000 0.5000000
v 0.9809067 0.2980001 0.4627301
v 0.9784451 0.0000000 0.4814278
v 0.9784451 0.0000000 0.4814278
v 0.9809067 0.2980001 0.4627301
v 0.9809067 0.0000000 0.4627301
v 0.9809067 0.0000000 0.5372699
v 0.9809067 0.2980001 0.5372699
v 0.9784451 0.0000000 0.5185722
v 0.9784451 0.0000000 0.5185722
v 0.9809067 0.2980001 0.5372699
v 0.9760001 0.2980001 0.5000000
v 0.9784451 0.0000000 0.5185722
v 0.9760001 0.2980001 0.5000000
v 0.9760001 0.0000000 0.5000000
v 0.9952924 0.0000000 0.5720000
v 0.9952924 0.2980001 0.5720000
v 0.9880753 0.0000000 0.5545765
v 0.9880753 0.0000000 0.5545765
v 0.9952924 0.2980001 0.5720000
v 0.9809067 0.2980001 0.5372699
v 0.9880753 0.0000000 0.5545765
v 0.9809067 0.2980001 0.5372699
v 0.9809067 0.0000000 0.5372699
v 1.0000000 0.0000000 0.5781351
v 1.0000000 0.2980001 0.5781351
v 0.9952924 0.2980001 0.5720000
v 1.0000000 0.0000000 0.5781351
v 0.9952924 0.2980001 0.5720000
v 0.9952924 0.0000000 0.5720000
v 0.9952924 0.2980001 0.4280000
v 1.0000000 0.2980001 0.4307179
v 1.0000000 0.2980001 0.4262050
v 0.9952924 0.2980001 0.4280000
v 1.0000000 0.2980001 0.4262050
v 1.0000000 0.2980001 0.4218649
v 0.9809067 0.2980001 0.4627301
v 1.0000000 0.2980001 0.4678461
v 1.0000000 0.2980001 0.4489230
v 0.9809067 0.2980001 0.4627301
v 1.0000000 0.2980001 0.4489230
v 1.0000000 0.2980001 0.4307179
v 0.9809067 0.2980001 0.4627301
v 1.0000000 0.2980001 0.4307179
v 0.9952924 0.2980001 0.4280000
v 0.9760001 0.2980001 0.5000000
v 0.9976001 0.2980001 0.5000000
v 1.0000000 0.2980001 0.4817706
v 0.9760001 0.2980001 0.5000000
v 1.0000000 0.2980001 0.4817706
v 1.0000000 0.2980001 0.4704972
v 0.9760001 0.2980001 0.5000000
v 1.0000000 0.2980001 0.4704972
v 1.0000000 0.2980001 0.4678461
v 0.9760001 0.2980001 0.5000000
v 1.0000000 0.2980001 0.4678461
v 0.9809067 0.2980001 0.4627301
v 0.9760001 0.2980001 0.5000000
v 0.9809067 0.2980001 0.5372699
v 1.0000000 0.2980001 0.5321539
v 0.9760001 0.2980001 0.5000000
v 1.0000000 0.2980001 0.5321539
v 1.0000000 0.2980001 0.5295028
v 0.9760001 0.2980001 0.5000000
v 1.0000000 0.2980001 0.5295028
v 1.0000000 0.2980001 0.5182294
v 0.9760001 0.2980001 0.5000000
v 1.0000000 0.2980001 0.5182294
v 0.9976001 0.2980001 0.5000000
v 0.9809067 0.2980001 0.5372699
v 0.9952924 0.2980001 0.5720000
v 1.0000000 0.2980001 0.5692821
v 0.9809067 0.2980001 0.5372699
v 1.0000000 0.2980001 0.5692821
v 1.0000000 0.2980001 0.5510770
v 0.9809067 0.2980001 0.5372699
v 1.0000000 0.2980001 0.5510770
v 1.0000000 0.2980001 0.5321539
v 0.9952924 0.2980001 0.5720000
v 1.0000000 0.2980001 0.5781351
v 1.0000000 0.2980001 0.5737950
v 0.9952924 0.2980001 0.5720000
v 1.0000000 0.2980001 0.5737950
v 1.0000000 0.2980001 0.5692821
v 1.0000000 0.0000000 0.4817706
v 1.0000000 0.0458072 0.4817706
v 0.9996784 0.0000000 0.4842136
v 0.9996784 0.0000000 0.4842136
v 1.0000000 0.0458072 0.4817706
v 1.0000000 0.2980001 0.4817706
v 0.9996784 0.0000000 0.4842136
v 1.0000000 0.2980001 0.4817706
v 0.9976001 0.2980001 0.5000000
v 0.9996784 0.0000000 0.4842136
v 0.9976001 0.2980001 0.5000000
v 0.9976001 0.0000000 0.5000000
v 0.9976001 0.0000000 0.5000000
v 0.9976001 0.2980001 0.5000000
v 1.0000000 0.2980001 0.5182294
v 0.9976001 0.0000000 0.5000000
v 1.0000000 0.2980001 0.5182294
v 1.0000000 0.0458072 0.5182294
v 0.9976001 0.0000000 0.5000000
v 1.0000000 0.0458072 0.5182294
v 0.9996784 0.0000000 0.5157864
v 0.9996784 0.0000000 0.5157864
v 1.0000000 0.0458072 0.5182294
v 1.0000000 0.0000000 0.5182294
v 0.9855932 0.2740002 0.3655931
v 0.9855932 0.3640001 0.3655931
v 1.0000000 0.3640001 0.3545384
v 0.9855932 0.2740002 0.3655931
v 1.0000000 0.3640001 0.3545384
v 1.0000000 0.3069369 0.3545384
v 0.9855932 0.2740002 0.3655931
v 1.0000000 0.3069369 0.3545384
v 1.0000000 0.2740002 0.3545384
v 0.9553859 0.2740002 0.4049600
v 0.9553859 0.3640001 0.4049600
v 0.9855932 0.3640001 0.3655931
v 0.9553859 0.2740002 0.4049600
v 0.9855932 0.3640001 0.3655931
v 0.9855932 0.2740002 0.3655931
v 0.9363970 0.2740002 0.4508037
v 0.9363970 0.3640001 0.4508037
v 0.9553859 0.3640001 0.4049600
v 0.9363970 0.2740002 0.4508037
v 0.9553859 0.3640001 0.4049600
v 0.9553859 0.2740002 0.4049600
v 0.9299202 0.2740002 0.5000000
v 0.9299202 0.3640001 0.5000000
v 0.9363970 0.3640001 0.4508037
v 0.9299202 0.2740002 0.5000000
v 0.9363970 0.3640001 0.4508037
v 0.9363970 0.2740002 0.4508037
v 0.9299202 0.2740002 0.5000000
v 0.9363970 0.2740002 0.5491963
v 0.9363970 0.3640001 0.5491963
v 0.9299202 0.2740002 0.5000000
v 0.9363970 0.3640001 0.5491963
v 0.9299202 0.3640001 0.5000000
v 0.9363970 0.2740002 0.5491963
v 0.9553859 0.2740002 0.5950400
v 0.9553859 0.3640001 0.5950400
v 0.9363970 0.2740002 0.5491963
v 0.9553859 0.3640001 0.5950400
v 0.9363970 0.3640001 0.5491963
v 0.9553859 0.2740002 0.5950400
v 0.9855932 0.2740002 0.6344069
v 0.9855932 0.3640001 0.6344069
v 0.9553859 0.2740002 0.5950400
v 0.9855932 0.3640001 0.6344069
v 0.9553859 0.3640001 0.5950400
v 0.9855932 0.2740002 0.6344069
v 1.0000000 0.2740002 0.6454616
v 1.0000000 0.3069369 0.6454616
v 0.9855932 0.2740002 0.6344069
v 1.0000000 0.3069369 0.6454616
v 1.0000000 0.3640001 0.6454616
v 0.9855932 0.2740002 0.6344069
v 1.0000000 0.3640001 0.6454616
v 0.9855932 0.3640001 0.6344069
v 0.9855932 0.3640001 0.3655931
v 1.0000000 0.3640001 0.3799999
v 1.0000000 0.3640001 0.3707708
v 0.9855932 0.3640001 0.3655931
v 1.0000000 0.3640001 0.3707708
v 1.0000000 0.3640001 0.3545384
v 0.9553859 0.3640001 0.4049600
v 1.0000000 0.3640001 0.4307179
v 1.0000000 0.3640001 0.4086814
v 0.9553859 0.3640001 0.4049600
v 1.0000000 0.3640001 0.4086814
v 1.0000000 0.3640001 0.3799999
v 0.9553859 0.3640001 0.4049600
v 1.0000000 0.3640001 0.3799999
v 0.9855932 0.3640001 0.3655931
v 0.9363970 0.3640001 0.4508037
v 0.9988220 0.3640001 0.4675304
v 1.0000000 0.3640001 0.4646865
v 0.9363970 0.3640001 0.4508037
v 1.0000000 0.3640001 0.4646865
v 1.0000000 0.3640001 0.4393232
v 0.9363970 0.3640001 0.4508037
v 1.0000000 0.3640001 0.4393232
v 1.0000000 0.3640001 0.4307179
v 0.9363970 0.3640001 0.4508037
v 1.0000000 0.3640001 0.4307179
v 0.9553859 0.3640001 0.4049600
v 0.9299202 0.3640001 0.5000000
v 0.9945472 0.3640001 0.5000000
v 0.9988220 0.3640001 0.4675304
v 0.9299202 0.3640001 0.5000000
v 0.9988220 0.3640001 0.4675304
v 0.9363970 0.3640001 0.4508037
v 0.9299202 0.3640001 0.5000000
v 0.9363970 0.3640001 0.5491963
v 0.9988220 0.3640001 0.5324696
v 0.9299202 0.3640001 0.5000000
v 0.9988220 0.3640001 0.5324696
v 0.9945472 0.3640001 0.5000000
v 0.9363970 0.3640001 0.5491963
v 0.9553859 0.3640001 0.5950400
v 1.0000000 0.3640001 0.5692821
v 0.9363970 0.3640001 0.5491963
v 1.0000000 0.3640001 0.5692821
v 1.0000000 0.3640001 0.5606768
v 0.9363970 0.3640001 0.5491963
v 1.0000000 0.3640001 0.5606768
v 1.0000000 0.3640001 0.5353135
v 0.9363970 0.3640001 0.5491963
v 1.0000000 0.3640001 0.5353135
v 0.9988220 0.3640001 0.5324696
v 0.9553859 0.3640001 0.5950400
v 0.9855932 0.3640001 0.6344069
v 1.0000000 0.3640001 0.6200001
v 0.9553859 0.3640001 0.5950400
v 1.0000000 0.3640001 0.6200001
v 1.0000000 0.3640001 0.5913186
v 0.9553859 0.3640001 0.5950400
v 1.0000000 0.3640001 0.5913186
v 1.0000000 0.3640001 0.5692821
v 0.9855932 0.3640001 0.6344069
v 1.0000000 0.3640001 0.6454616
v 1.0000000 0.3640001 0.6292292
v 0.9855932 0.3640001 0.6344069
v 1.0000000 0.3640001 0.6292292
v 1.0000000 0.3640001 0.6200001
v 0.9988220 0.2740002 0.4675304
v 1.0000000 0.2740002 0.4646865
v 1.0000000 0.2824596 0.4646865
v 0.9988220 0.2740002 0.4675304
v 1.0000000 0.2824596 0.4646865
v 1.0000000 0.3640001 0.4646865
v 0.9988220 0.2740002 0.4675304
v 1.0000000 0.3640001 0.4646865
v 0.9988220 0.3640001 0.4675304
v 0.9945472 0.2740002 0.5000000
v 0.9988220 0.2740002 0.4675304
v 0.9988220 0.3640001 0.4675304
v 0.9945472 0.2740002 0.5000000
v 0.9988220 0.3640001 0.4675304
v 0.9945472 0.3640001 0.5000000
v 0.9945472 0.2740002 0.5000000
v 0.9945472 0.3640001 0.5000000
v 0.9988220 0.3640001 0.5324696
v 0.9945472 0.2740002 0.5000000
v 0.9988220 0.3640001 0.5324696
v 0.9988220 0.2740002 0.5324696
v 0.9988220 0.2740002 0.5324696
v 0.9988220 0.3640001 0.5324696
v 1.0000000 0.3640001 0.5353135
v 0.9988220 0.2740002 0.5324696
v 1.0000000 0.3640001 0.5353135
v 1.0000000 0.2824596 0.5353135
v 0.9988220 0.2740002 0.5324696
v 1.0000000 0.2824596 0.5353135
v 1.0000000 0.2740002 0.5353135
v 0.9855932 0.2740002 0.3655931
v 1.0000000 0.2740002 0.3545384
v 1.0000000 0.2740002 0.3707708
v 0.9855932 0.2740002 0.3655931
v 1.0000000 0.2740002 0.3707708
v 1.0000000 0.2740002 0.3799999
v 0.9553859 0.2740002 0.4049600
v 0.9855932 0.2740002 0.3655931
v 1.0000000 0.2740002 0.3799999
v 0.9553859 0.2740002 0.4049600
v 1.0000000 0.2740002 0.3799999
v 1.0000000 0.2740002 0.4086814
v 0.9553859 0.2740002 0.4049600
v 1.0000000 0.2740002 0.4086814
v 1.0000000 0.2740002 0.4307179
v 0.9363970 0.2740002 0.4508037
v 0.9553859 0.2740002 0.4049600
v 1.0000000 0.2740002 0.4307179
v 0.9363970 0.2740002 0.4508037
v 1.0000000 0.2740002 0.4307179
v 1.0000000 0.2740002 0.4393232
v 0.9363970 0.2740002 0.4508037
v 1.0000000 0.2740002 0.4393232
v 1.0000000 0.2740002 0.4646865
v 0.9363970 0.2740002 0.4508037
v 1.0000000 0.2740002 0.4646865
v 0.9988220 0.2740002 0.4675304
v 0.9299202 0.2740002 0.5000000
v 0.9363970 0.2740002 0.4508037
v 0.9988220 0.2740002 0.4675304
v 0.9299202 0.2740002 0.5000000
v 0.9988220 0.2740002 0.4675304
v 0.9945472 0.2740002 0.5000000
v 0.9299202 0.2740002 0.5000000
v 0.9945472 0.2740002 0.5000000
v 0.9988220 0.2740002 0.5324696
v 0.9299202 0.2740002 0.5000000
v 0.9988220 0.2740002 0.5324696
v 0.9363970 0.2740002 0.5491963
v 0.9363970 0.2740002 0.5491963
v 0.9988220 0.2740002 0.5324696
v 1.0000000 0.2740002 0.5353135
v 0.9363970 0.2740002 0.5491963
v 1.0000000 0.2740002 0.5353135
v 1.0000000 0.2740002 0.5606768
v 0.9363970 0.2740002 0.5491963
v 1.0000000 0.2740002 0.5606768
v 1.0000000 0.2740002 0.5692821
v 0.9363970 0.2740002 0.5491963
v 1.0000000 0.2740002 0.5692821
v 0.9553859 0.2740002 0.5950400
v 0.9553859 0.2740002 0.5950400
v 1.0000000 0.2740002 0.5692821
v 1.0000000 0.2740002 0.5913186
v 0.9553859 0.2740002 0.5950400
v 1.0000000 0.2740002 0.5913186
v 1.0000000 0.2740002 0.6200001
v 0.9553859 0.2740002 0.5950400
v 1.0000000 0.2740002 0.6200001
v 0.9855932 0.2740002 0.6344069
v 0.9855932 0.2740002 0.6344069
v 1.0000000 0.2740002 0.6200001
v 1.0000000 0.2740002 0.6292292
v 0.9855932 0.2740002 0.6344069
v 1.0000000 0.2740002 0.6292292
v 1.0000000 0.2740002 0.6454616
v 0.9636028 0.3640001 0.4505167
v 0.9636028 0.3754048 0.4505167
v 0.9564748 0.3754048 0.4381706
v 0.9636028 0.3640001 0.4505167
v 0.9564748 0.3754048 0.4381706
v 0.9564748 0.3640001 0.4381706
v 0.9778588 0.3640001 0.4505167
v 0.9778588 0.3754048 0.4505167
v 0.9636028 0.3754048 0.4505167
v 0.9778588 0.3640001 0.4505167
v 0.9636028 0.3754048 0.4505167
v 0.9636028 0.3640001 0.4505167
v 0.9849868 0.3640001 0.4381706
v 0.9849868 0.3754048 0.4381706
v 0.9778588 0.3754048 0.4505167
v 0.9849868 0.3640001 0.4381706
v 0.9778588 0.3754048 0.4505167
v 0.9778588 0.3640001 0.4505167
v 0.9849868 0.3640001 0.4381706
v 0.9778588 0.3640001 0.4258245
v 0.9778588 0.3754048 0.4258245
v 0.9849868 0.3640001 0.4381706
v 0.9778588 0.3754048 0.4258245
v 0.9849868 0.3754048 0.4381706
v 0.9778588 0.3640001 0.4258245
v 0.9636028 0.3640001 0.4258245
v 0.9636028 0.3754048 0.4258245
v 0.9778588 0.3640001 0.4258245
v 0.9636028 0.3754048 0.4258245
v 0.9778588 0.3754048 0.4258245
v 0.9636028 0.3640001 0.4258245
v 0.9564748 0.3640001 0.4381706
v 0.9564748 0.3754048 0.4381706
v 0.9636028 0.3640001 0.4258245
v 0.9564748 0.3754048 0.4381706
v 0.9636028 0.3754048 0.4258245
v 0.9849868 0.3640001 0.4381706
v 0.9778588 0.3640001 0.4505167
v 0.9636028 0.3640001 0.4505167
v 0.9849868 0.3640001 0.4381706
v 0.9636028 0.3640001 0.4505167
v 0.9564748 0.3640001 0.4381706
v 0.9849868 0.3640001 0.4381706
v 0.9564748 0.3640001 0.4381706
v 0.9636028 0.3640001 0.4258245
v 0.9849868 0.3640001 0.4381706
v 0.9636028 0.3640001 0.4258245
v 0.9778588 0.3640001 0.4258245
v 0.9849868 0.3754048 0.4381706
v 0.9778588 0.3754048 0.4258245
v 0.9636028 0.3754048 0.4258245
v 0.9849868 0.3754048 0.4381706
v 0.9636028 0.3754048 0.4258245
v 0.9564748 0.3754048 0.4381706
v 0.9849868 0.3754048 0.4381706
v 0.9564748 0.3754048 0.4381706
v 0.9636028 0.3754048 0.4505167
v 0.9849868 0.3754048 0.4381706
v 0.9636028 0.3754048 0.4505167
v 0.9778588 0.3754048 0.4505167
v 0.9636028 0.3640001 0.5741755
v 0.9636028 0.3754048 0.5741755
v 0.9564748 0.3754048 0.5618294
v 0.9636028 0.3640001 0.5741755
v 0.9564748 0.3754048 0.5618294
v 0.9564748 0.3640001 0.5618294
v 0.9778588 0.3640001 0.5741755
v 0.9778588 0.3754048 0.5741755
v 0.9636028 0.3754048 0.5741755
v 0.9778588 0.3640001 0.5741755
v 0.9636028 0.3754048 0.5741755
v 0.9636028 0.3640001 0.5741755
v 0.9849868 0.3640001 0.5618294
v 0.9849868 0.3754048 0.5618294
v 0.9778588 0.3754048 0.5741755
v 0.9849868 0.3640001 0.5618294
v 0.9778588 0.3754048 0.5741755
v 0.9778588 0.3640001 0.5741755
v 0.9849868 0.3640001 0.5618294
v 0.9778588 0.3640001 0.5494833
v 0.9778588 0.3754048 0.5494833
v 0.9849868 0.3640001 0.5618294
v 0.9778588 0.3754048 0.5494833
v 0.9849868 0.3754048 0.5618294
v 0.9778588 0.3640001 0.5494833
v 0.9636028 0.3640001 0.5494833
v 0.9636028 0.3754048 0.5494833
v 0.9778588 0.3640001 0.5494833
v 0.9636028 0.3754048 0.5494833
v 0.9778588 0.3754048 0.5494833
v 0.9636028 0.3640001 0.5494833
v 0.9564748 0.3640001 0.5618294
v 0.9564748 0.3754048 0.5618294
v 0.9636028 0.3640001 0.5494833
v 0.9564748 0.3754048 0.5618294
v 0.9636028 0.3754048 0.5494833
v 0.9849868 0.3640001 0.5618294
v 0.9778588 0.3640001 0.5741755
v 0.9636028 0.3640001 0.5741755
v 0.9849868 0.3640001 0.5618294
v 0.9636028 0.3640001 0.5741755
v 0.9564748 0.3640001 0.5618294
v 0.9849868 0.3640001 0.5618294
v 0.9564748 0.3640001 0.5618294
v 0.9636028 0.3640001 0.5494833
v 0.9849868 0.3640001 0.5618294
v 0.9636028 0.3640001 0.5494833
v 0.9778588 0.3640001 0.5494833
v 0.9849868 0.3754048 0.5618294
v 0.9778588 0.3754048 0.5494833
v 0.9636028 0.3754048 0.5494833
v 0.9849868 0.3754048 0.5618294
v 0.9636028 0.3754048 0.5494833
v 0.9564748 0.3754048 0.5618294
v 0.9849868 0.3754048 0.5618294
v 0.9564748 0.3754048 0.5618294
v 0.9636028 0.3754048 0.5741755
v 0.9849868 0.3754048 0.5618294
v 0.9636028 0.3754048 0.5741755
v 0.9778588 0.3754048 0.5741755
vt 0.6289062 0.0625000
vt 0.6289062 0.0849228
vt 0.7460938 0.0849228
vt 0.6289062 0.0625000
vt 0.7460938 0.0849228
vt 0.7460938 0.0625000
vt 0.6289062 0.0849228
vt 0.6289062 0.1039320
vt 0.7460938 0.1039320
vt 0.6289062 0.0849228
vt 0.7460938 0.1039320
vt 0.7460938 0.0849228
vt 0.6460680 0.0039062
vt 0.6650771 0.0039062
vt 0.6650771 0.1210938
vt 0.6460680 0.0039062
vt 0.6650771 0.1210938
vt 0.6460680 0.1210938
vt 0.6650771 0.0039062
vt 0.6875000 0.0039062
vt 0.6875000 0.1210938
vt 0.6650771 0.0039062
vt 0.6875000 0.1210938
vt 0.6650771 0.1210938
vt 0.6289062 0.0625000
vt 0.7460938 0.0625000
vt 0.7460938 0.0603299
vt 0.6289062 0.0625000
vt 0.7460938 0.0603299
vt 0.6402476 0.0603299
vt 0.6289062 0.0625000
vt 0.6402476 0.0603299
vt 0.6289062 0.0603299
vt 0.6289062 0.0625000
vt 0.6333664 0.0849228
vt 0.6566439 0.0752810
vt 0.6289062 0.0625000
vt 0.6566439 0.0752810
vt 0.6541016 0.0625000
vt 0.6333664 0.0849228
vt 0.6460680 0.1039320
vt 0.6638837 0.0861162
vt 0.6333664 0.0849228
vt 0.6638837 0.0861162
vt 0.6566439 0.0752810
vt 0.6460680 0.1039320
vt 0.6650771 0.1166336
vt 0.6747190 0.0933561
vt 0.6460680 0.1039320
vt 0.6747190 0.0933561
vt 0.6638837 0.0861162
vt 0.6650771 0.1166336
vt 0.6875000 0.1210938
vt 0.6875000 0.0958985
vt 0.6650771 0.1166336
vt 0.6875000 0.0958985
vt 0.6747190 0.0933561
vt 0.6289062 0.0625000
vt 0.6541016 0.0625000
vt 0.6545333 0.0603299
vt 0.6289062 0.0625000
vt 0.6545333 0.0603299
vt 0.6336158 0.0603299
vt 0.6289062 0.0625000
vt 0.6336158 0.0603299
vt 0.6293379 0.0603299
vt 0.6289062 0.0625000
vt 0.7460938 0.0625000
vt 0.7460938 0.0752810
vt 0.6289062 0.0625000
vt 0.7460938 0.0752810
vt 0.6289062 0.0752810
vt 0.6289062 0.0752810
vt 0.7460938 0.0752810
vt 0.7460938 0.0861162
vt 0.6289062 0.0752810
vt 0.7460938 0.0861162
vt 0.6289062 0.0861162
vt 0.6638837 0.0039062
vt 0.6638837 0.1210938
vt 0.6747190 0.1210938
vt 0.6638837 0.0039062
vt 0.6747190 0.1210938
vt 0.6747190 0.0039062
vt 0.6747190 0.0039062
vt 0.6747190 0.1210938
vt 0.6875000 0.1210938
vt 0.6747190 0.0039062
vt 0.6875000 0.1210938
vt 0.6875000 0.0039062
vt 0.6289062 0.0625000
vt 0.6289062 0.0603299
vt 0.6488035 0.0603299
vt 0.6289062 0.0625000
vt 0.6488035 0.0603299
vt 0.7460938 0.0603299
vt 0.6289062 0.0625000
vt 0.7460938 0.0603299
vt 0.7460938 0.0625000
vt 0.6289062 0.0625000
vt 0.6541016 0.0625000
vt 0.6566439 0.0752810
vt 0.6289062 0.0625000
vt 0.6566439 0.0752810
vt 0.6333664 0.0849228
vt 0.6333664 0.0849228
vt 0.6566439 0.0752810
vt 0.6638837 0.0861162
vt 0.6333664 0.0849228
vt 0.6638837 0.0861162
vt 0.6460680 0.1039320
vt 0.6460680 0.1039320
vt 0.6638837 0.0861162
vt 0.6747190 0.0933561
vt 0.6460680 0.1039320
vt 0.6747190 0.0933561
vt 0.6650771 0.1166336
vt 0.6650771 0.1166336
vt 0.6747190 0.0933561
vt 0.6875000 0.0958985
vt 0.6650771 0.1166336
vt 0.6875000 0.0958985
vt 0.6875000 0.1210938
vt 0.6289062 0.0625000
vt 0.6293379 0.0603299
vt 0.6336158 0.0603299
vt 0.6289062 0.0625000
vt 0.6336158 0.0603299
vt 0.6545333 0.0603299
vt 0.6289062 0.0625000
vt 0.6545333 0.0603299
vt 0.6541016 0.0625000
vt 0.7167969 0.0623027
vt 0.7167969 0.1210938
vt 0.7192932 0.1210938
vt 0.7167969 0.0623027
vt 0.7192932 0.1210938
vt 0.7192932 0.0623027
vt 0.7026652 0.0623027
vt 0.7026652 0.1210938
vt 0.7167969 0.1210938
vt 0.7026652 0.0623027
vt 0.7167969 0.1210938
vt 0.7097073 0.0623027
vt 0.7097073 0.0623027
vt 0.7167969 0.1210938
vt 0.7167969 0.0623027
vt 0.6875000 0.0623027
vt 0.6875000 0.1210938
vt 0.7026652 0.1210938
vt 0.6875000 0.0623027
vt 0.7026652 0.1210938
vt 0.6950571 0.0623027
vt 0.6950571 0.0623027
vt 0.7026652 0.1210938
vt 0.7026652 0.0623027
vt 0.6723348 0.0623027
vt 0.6723348 0.1210938
vt 0.6799429 0.0623027
vt 0.6799429 0.0623027
vt 0.6723348 0.1210938
vt 0.6875000 0.1210938
vt 0.6799429 0.0623027
vt 0.6875000 0.1210938
vt 0.6875000 0.0623027
vt 0.6582031 0.0623027
vt 0.6582031 0.1210938
vt 0.6652927 0.0623027
vt 0.6652927 0.0623027
vt 0.6582031 0.1210938
vt 0.6723348 0.1210938
vt 0.6652927 0.0623027
vt 0.6723348 0.1210938
vt 0.6723348 0.0623027
vt 0.6557068 0.0623027
vt 0.6557068 0.1210938
vt 0.6582031 0.1210938
vt 0.6557068 0.0623027
vt 0.6582031 0.1210938
vt 0.6582031 0.0623027
vt 0.6367563 0.0917969
vt 0.6386718 0.0906910
vt 0.6386718 0.0925273
vt 0.6367563 0.0917969
vt 0.6386718 0.0925273
vt 0.6386718 0.0942932
vt 0.6309028 0.0776652
vt 0.6386719 0.0755835
vt 0.6386719 0.0832833
vt 0.6309028 0.0776652
vt 0.6386719 0.0832833
vt 0.6386718 0.0906910
vt 0.6309028 0.0776652
vt 0.6386718 0.0906910
vt 0.6367563 0.0917969
vt 0.6289062 0.0625000
vt 0.6376953 0.0625000
vt 0.6386719 0.0699176
vt 0.6289062 0.0625000
vt 0.6386719 0.0699176
vt 0.6386719 0.0745047
vt 0.6289062 0.0625000
vt 0.6386719 0.0745047
vt 0.6386719 0.0755835
vt 0.6289062 0.0625000
vt 0.6386719 0.0755835
vt 0.6309028 0.0776652
vt 0.6289062 0.0625000
vt 0.6309028 0.0473348
vt 0.6386719 0.0494165
vt 0.6289062 0.0625000
vt 0.6386719 0.0494165
vt 0.6386719 0.0504953
vt 0.6289062 0.0625000
vt 0.6386719 0.0504953
vt 0.6386719 0.0550824
vt 0.6289062 0.0625000
vt 0.6386719 0.0550824
vt 0.6376953 0.0625000
vt 0.6309028 0.0473348
vt 0.6367563 0.0332031
vt 0.6386718 0.0343090
vt 0.6309028 0.0473348
vt 0.6386718 0.0343090
vt 0.6386719 0.0417167
vt 0.6309028 0.0473348
vt 0.6386719 0.0417167
vt 0.6386719 0.0494165
vt 0.6367563 0.0332031
vt 0.6386718 0.0307068
vt 0.6386718 0.0324727
vt 0.6367563 0.0332031
vt 0.6386718 0.0324727
vt 0.6386718 0.0343090
vt 0.6949176 0.0623027
vt 0.6949176 0.0713398
vt 0.6939235 0.0623027
vt 0.6939235 0.0623027
vt 0.6949176 0.0713398
vt 0.6949176 0.1210938
vt 0.6939235 0.0623027
vt 0.6949176 0.1210938
vt 0.6875000 0.1210938
vt 0.6939235 0.0623027
vt 0.6875000 0.1210938
vt 0.6875000 0.0623027
vt 0.6875000 0.0623027
vt 0.6875000 0.1210938
vt 0.6800824 0.1210938
vt 0.6875000 0.0623027
vt 0.6800824 0.1210938
vt 0.6800824 0.0713398
vt 0.6875000 0.0623027
vt 0.6800824 0.0713398
vt 0.6810765 0.0623027
vt 0.6810765 0.0623027
vt 0.6800824 0.0713398
vt 0.6800824 0.0623027
vt 0.6460680 0.0039062
vt 0.6460680 0.1210938
vt 0.6505090 0.1210938
vt 0.6460680 0.0039062
vt 0.6505090 0.1210938
vt 0.6505090 0.0467925
vt 0.6460680 0.0039062
vt 0.6505090 0.0467925
vt 0.6505090 0.0039062
vt 0.7167969 0.0039062
vt 0.7167969 0.1210938
vt 0.7289320 0.1210938
vt 0.7167969 0.0039062
vt 0.7289320 0.1210938
vt 0.7289320 0.0039062
vt 0.7026652 0.0039062
vt 0.7026652 0.1210938
vt 0.7167969 0.1210938
vt 0.7026652 0.0039062
vt 0.7167969 0.1210938
vt 0.7167969 0.0039062
vt 0.6875000 0.0039062
vt 0.6875000 0.1210938
vt 0.7026652 0.1210938
vt 0.6875000 0.0039062
vt 0.7026652 0.1210938
vt 0.7026652 0.0039062
vt 0.6875000 0.0039062
vt 0.6723348 0.0039062
vt 0.6723348 0.1210938
vt 0.6875000 0.0039062
vt 0.6723348 0.1210938
vt 0.6875000 0.1210938
vt 0.6723348 0.0039062
vt 0.6582031 0.0039062
vt 0.6582031 0.1210938
vt 0.6723348 0.0039062
vt 0.6582031 0.1210938
vt 0.6723348 0.1210938
vt 0.6582031 0.0039062
vt 0.6460680 0.0039062
vt 0.6460680 0.1210938
vt 0.6582031 0.0039062
vt 0.6460680 0.1210938
vt 0.6582031 0.1210938
vt 0.6460680 0.0039062
vt 0.6505090 0.0039062
vt 0.6505090 0.0467925
vt 0.6460680 0.0039062
vt 0.6505090 0.0467925
vt 0.6505090 0.1210938
vt 0.6460680 0.0039062
vt 0.6505090 0.1210938
vt 0.6460680 0.1210938
vt 0.6460680 0.1039320
vt 0.6505090 0.0994910
vt 0.6505090 0.1023359
vt 0.6460680 0.1039320
vt 0.6505090 0.1023359
vt 0.6505090 0.1073397
vt 0.6367563 0.0917969
vt 0.6505090 0.0838568
vt 0.6505090 0.0906497
vt 0.6367563 0.0917969
vt 0.6505090 0.0906497
vt 0.6505090 0.0994910
vt 0.6367563 0.0917969
vt 0.6505090 0.0994910
vt 0.6460680 0.1039320
vt 0.6309028 0.0776652
vt 0.6501458 0.0725090
vt 0.6505089 0.0733857
vt 0.6309028 0.0776652
vt 0.6505089 0.0733857
vt 0.6505090 0.0812041
vt 0.6309028 0.0776652
vt 0.6505090 0.0812041
vt 0.6505090 0.0838568
vt 0.6309028 0.0776652
vt 0.6505090 0.0838568
vt 0.6367563 0.0917969
vt 0.6289062 0.0625000
vt 0.6488281 0.0625000
vt 0.6501458 0.0725090
vt 0.6289062 0.0625000
vt 0.6501458 0.0725090
vt 0.6309028 0.0776652
vt 0.6289062 0.0625000
vt 0.6309028 0.0473348
vt 0.6501458 0.0524910
vt 0.6289062 0.0625000
vt 0.6501458 0.0524910
vt 0.6488281 0.0625000
vt 0.6309028 0.0473348
vt 0.6367563 0.0332031
vt 0.6505090 0.0411432
vt 0.6309028 0.0473348
vt 0.6505090 0.0411432
vt 0.6505090 0.0437959
vt 0.6309028 0.0473348
vt 0.6505090 0.0437959
vt 0.6505089 0.0516143
vt 0.6309028 0.0473348
vt 0.6505089 0.0516143
vt 0.6501458 0.0524910
vt 0.6367563 0.0332031
vt 0.6460680 0.0210680
vt 0.6505090 0.0255090
vt 0.6367563 0.0332031
vt 0.6505090 0.0255090
vt 0.6505090 0.0343503
vt 0.6367563 0.0332031
vt 0.6505090 0.0343503
vt 0.6505090 0.0411432
vt 0.6460680 0.0210680
vt 0.6505090 0.0176603
vt 0.6505090 0.0226641
vt 0.6460680 0.0210680
vt 0.6505090 0.0226641
vt 0.6505090 0.0255090
vt 0.6975090 0.0039062
vt 0.6983857 0.0039062
vt 0.6983857 0.0149211
vt 0.6975090 0.0039062
vt 0.6983857 0.0149211
vt 0.6983857 0.1210938
vt 0.6975090 0.0039062
vt 0.6983857 0.1210938
vt 0.6975090 0.1210938
vt 0.6875000 0.0039062
vt 0.6975090 0.0039062
vt 0.6975090 0.1210938
vt 0.6875000 0.0039062
vt 0.6975090 0.1210938
vt 0.6875000 0.1210938
vt 0.6875000 0.0039062
vt 0.6875000 0.1210938
vt 0.6774910 0.1210938
vt 0.6875000 0.0039062
vt 0.6774910 0.1210938
vt 0.6774910 0.0039062
vt 0.6774910 0.0039062
vt 0.6774910 0.1210938
vt 0.6766143 0.1210938
vt 0.6774910 0.0039062
vt 0.6766143 0.1210938
vt 0.6766143 0.0149211
vt 0.6774910 0.0039062
vt 0.6766143 0.0149211
vt 0.6766143 0.0039062
vt 0.6460680 0.1039320
vt 0.6505090 0.1073397
vt 0.6505090 0.1023359
vt 0.6460680 0.1039320
vt 0.6505090 0.1023359
vt 0.6505090 0.0994910
vt 0.6367563 0.0917969
vt 0.6460680 0.1039320
vt 0.6505090 0.0994910
vt 0.6367563 0.0917969
vt 0.6505090 0.0994910
vt 0.6505090 0.0906497
vt 0.6367563 0.0917969
vt 0.6505090 0.0906497
vt 0.6505090 0.0838568
vt 0.6309028 0.0776652
vt 0.6367563 0.0917969
vt 0.6505090 0.0838568
vt 0.6309028 0.0776652
vt 0.6505090 0.0838568
vt 0.6505090 0.0812041
vt 0.6309028 0.0776652
vt 0.6505090 0.0812041
vt 0.6505089 0.0733857
vt 0.6309028 0.0776652
vt 0.6505089 0.0733857
vt 0.6501458 0.0725090
vt 0.6289062 0.0625000
vt 0.6309028 0.0776652
vt 0.6501458 0.0725090
vt 0.6289062 0.0625000
vt 0.6501458 0.0725090
vt 0.6488281 0.0625000
vt 0.6289062 0.0625000
vt 0.6488281 0.0625000
vt 0.6501458 0.0524910
vt 0.6289062 0.0625000
vt 0.6501458 0.0524910
vt 0.6309028 0.0473348
vt 0.6309028 0.0473348
vt 0.6501458 0.0524910
vt 0.6505089 0.0516143
vt 0.6309028 0.0473348
vt 0.6505089 0.0516143
vt 0.6505090 0.0437959
vt 0.6309028 0.0473348
vt 0.6505090 0.0437959
vt 0.6505090 0.0411432
vt 0.6309028 0.0473348
vt 0.6505090 0.0411432
vt 0.6367563 0.0332031
vt 0.6367563 0.0332031
vt 0.6505090 0.0411432
vt 0.6505090 0.0343503
vt 0.6367563 0.0332031
vt 0.6505090 0.0343503
vt 0.6505090 0.0255090
vt 0.6367563 0.0332031
vt 0.6505090 0.0255090
vt 0.6460680 0.0210680
vt 0.6460680 0.0210680
vt 0.6505090 0.0255090
vt 0.6505090 0.0226641
vt 0.6460680 0.0210680
vt 0.6505090 0.0226641
vt 0.6505090 0.0176603
vt 0.9960938 0.0039062
vt 0.9960938 0.1210938
vt 0.9375000 0.1210938
vt 0.9960938 0.0039062
vt 0.9375000 0.1210938
vt 0.9375000 0.0039062
vt 0.9082031 0.0039062
vt 0.9082031 0.1210938
vt 0.9667969 0.1210938
vt 0.9082031 0.0039062
vt 0.9667969 0.1210938
vt 0.9667969 0.0039062
vt 0.9375000 0.0039062
vt 0.9375000 0.1210938
vt 0.9960938 0.1210938
vt 0.9375000 0.0039062
vt 0.9960938 0.1210938
vt 0.9960938 0.0039062
vt 0.9375000 0.0039062
vt 0.8789062 0.0039062
vt 0.8789062 0.1210938
vt 0.9375000 0.0039062
vt 0.8789062 0.1210938
vt 0.9375000 0.1210938
vt 0.9082031 0.0039062
vt 0.9667969 0.0039062
vt 0.9667969 0.1210938
vt 0.9082031 0.0039062
vt 0.9667969 0.1210938
vt 0.9082031 0.1210938
vt 0.8789062 0.0039062
vt 0.9375000 0.0039062
vt 0.9375000 0.1210938
vt 0.8789062 0.0039062
vt 0.9375000 0.1210938
vt 0.8789062 0.1210938
vt 0.8789062 0.0625000
vt 0.9082031 0.1210938
vt 0.9667969 0.1210938
vt 0.8789062 0.0625000
vt 0.9667969 0.1210938
vt 0.9960938 0.0625000
vt 0.8789062 0.0625000
vt 0.9960938 0.0625000
vt 0.9667969 0.0039062
vt 0.8789062 0.0625000
vt 0.9667969 0.0039062
vt 0.9082031 0.0039062
vt 0.8789062 0.0625000
vt 0.9082031 0.0039062
vt 0.9667969 0.0039062
vt 0.8789062 0.0625000
vt 0.9667969 0.0039062
vt 0.9960938 0.0625000
vt 0.8789062 0.0625000
vt 0.9960938 0.0625000
vt 0.9667969 0.1210938
vt 0.8789062 0.0625000
vt 0.9667969 0.1210938
vt 0.9082031 0.1210938
vt 0.9960938 0.0039062
vt 0.9960938 0.1210938
vt 0.9375000 0.1210938
vt 0.9960938 0.0039062
vt 0.9375000 0.1210938
vt 0.9375000 0.0039062
vt 0.9082031 0.0039062
vt 0.9082031 0.1210938
vt 0.9667969 0.1210938
vt 0.9082031 0.0039062
vt 0.9667969 0.1210938
vt 0.9667969 0.0039062
vt 0.9375000 0.0039062
vt 0.9375000 0.1210938
vt 0.9960938 0.1210938
vt 0.9375000 0.0039062
vt 0.9960938 0.1210938
vt 0.9960938 0.0039062
vt 0.9375000 0.0039062
vt 0.8789062 0.0039062
vt 0.8789062 0.1210938
vt 0.9375000 0.0039062
vt 0.8789062 0.1210938
vt 0.9375000 0.1210938
vt 0.9082031 0.0039062
vt 0.9667969 0.0039062
vt 0.9667969 0.1210938
vt 0.9082031 0.0039062
vt 0.9667969 0.1210938
vt 0.9082031 0.1210938
vt 0.8789062 0.0039062
vt 0.9375000 0.0039062
vt 0.9375000 0.1210938
vt 0.8789062 0.0039062
vt 0.9375000 0.1210938
vt 0.8789062 0.1210938
vt 0.8789062 0.0625000
vt 0.9082031 0.1210938
vt 0.9667969 0.1210938
vt 0.8789062 0.0625000
vt 0.9667969 0.1210938
vt 0.9960938 0.0625000
vt 0.8789062 0.0625000
vt 0.9960938 0.0625000
vt 0.9667969 0.0039062
vt 0.8789062 0.0625000
vt 0.9667969 0.0039062
vt 0.9082031 0.0039062
vt 0.8789062 0.0625000
vt 0.9082031 0.0039062
vt 0.9667969 0.0039062
vt 0.8789062 0.0625000
vt 0.9667969 0.0039062
vt 0.9960938 0.0625000
vt 0.8789062 0.0625000
vt 0.9960938 0.0625000
vt 0.9667969 0.1210938
vt 0.8789062 0.0625000
vt 0.9667969 0.1210938
vt 0.9082031 0.1210938
vn -1.0000000 -0.0000008 0.0000000
vn -0.9238795 0.3826835 0.0000000
vn -0.9238795 0.3826835 0.0000000
vn -1.0000000 -0.0000008 0.0000000
vn -0.9238795 0.3826835 0.0000000
vn -1.0000000 -0.0000008 0.0000000
vn -0.9238795 0.3826835 0.0000000
vn -0.7071068 0.7071068 0.0000000
vn -0.7071068 0.7071068 0.0000000
vn -0.9238795 0.3826835 0.0000000
vn -0.7071068 0.7071068 0.0000000
vn -0.9238795 0.3826835 0.0000000
vn -0.7071068 0.7071068 0.0000000
vn -0.3826818 0.9238802 0.0000000
vn -0.3826818 0.9238802 0.0000000
vn -0.7071068 0.7071068 0.0000000
vn -0.3826818 0.9238802 0.0000000
vn -0.7071068 0.7071068 0.0000000
vn -0.3826818 0.9238802 0.0000000
vn -0.0000003 1.0000000 0.0000000
vn -0.0000003 1.0000000 0.0000000
vn -0.3826818 0.9238802 0.0000000
vn -0.0000003 1.0000000 0.0000000
vn -0.3826818 0.9238802 0.0000000
vn -1.0000000 -0.0000008 0.0000000
vn -1.0000000 -0.0000008 0.0000000
vn -0.9993046 -0.0372859 0.0000000
vn -1.0000000 -0.0000008 0.0000000
vn -0.9993046 -0.0372859 0.0000000
vn -0.9993046 -0.0372859 0.0000000
vn -1.0000000 -0.0000008 0.0000000
vn -0.9993046 -0.0372859 0.0000000
vn -0.9993046 -0.0372859 0.0000000
vn 0.0000000 -0.0000000 -1.0000000
vn 0.0000000 0.0000000 -1.0000000
vn 0.0000000 0.0000000 -1.0000000
vn 0.0000000 -0.0000000 -1.0000000
vn 0.0000000 0.0000000 -1.0000000
vn 0.0000000 -0.0000000 -1.0000000
vn 0.0000000 0.0000000 -1.0000000
vn 0.0000000 -0.0000001 -1.0000000
vn 0.0000000 -0.0000001 -1.0000000
vn 0.0000000 0.0000000 -1.0000000
vn 0.0000000 -0.0000001 -1.0000000
vn 0.0000000 0.0000000 -1.0000000
vn 0.0000000 -0.0000001 -1.0000000
vn 0.0000000 0.0000000 -1.0000000
vn 0.0000000 0.0000000 -1.0000000
vn 0.0000000 -0.0000001 -1.0000000
vn 0.0000000 0.0000000 -1.0000000
vn 0.0000000 -0.0000001 -1.0000000
vn 0.0000000 0.0000000 -1.0000000
vn 0.0000000 0.0000001 -1.0000000
vn 0.0000000 0.0000001 -1.0000000
vn 0.0000000 0.0000000 -1.0000000
vn 0.0000000 0.0000001 -1.0000000
vn 0.0000000 0.0000000 -1.0000000
vn 0.0000000 -0.0000000 -1.0000000
vn 0.0000000 -0.0000000 -1.0000000
vn 0.0000000 -0.0000000 -1.0000000
vn 0.0000000 -0.0000000 -1.0000000
vn 0.0000000 -0.0000000 -1.0000000
vn 0.0000000 -0.0000000 -1.0000000
vn 0.0000000 -0.0000000 -1.0000000
vn 0.0000000 -0.0000000 -1.0000000
vn 0.0000000 -0.0000000 -1.0000000
vn 1.0000000 0.0000014 0.0000000
vn 1.0000000 0.0000014 0.0000000
vn 0.9238778 -0.3826876 0.0000000
vn 1.0000000 0.0000014 0.0000000
vn 0.9238778 -0.3826876 0.0000000
vn 0.9238778 -0.3826876 0.0000000
vn 0.9238778 -0.3826876 0.0000000
vn 0.9238778 -0.3826876 0.0000000
vn 0.7071050 -0.7071086 0.0000000
vn 0.9238778 -0.3826876 0.0000000
vn 0.7071050 -0.7071086 0.0000000
vn 0.7071050 -0.7071086 0.0000000
vn 0.7071050 -0.7071086 0.0000000
vn 0.7071050 -0.7071086 0.0000000
vn 0.3826888 -0.9238773 0.0000000
vn 0.7071050 -0.7071086 0.0000000
vn 0.3826888 -0.9238773 0.0000000
vn 0.3826888 -0.9238773 0.0000000
vn 0.3826888 -0.9238773 0.0000000
vn 0.3826888 -0.9238773 0.0000000
vn 0.0000005 -1.0000000 0.0000000
vn 0.3826888 -0.9238773 0.0000000
vn 0.0000005 -1.0000000 0.0000000
vn 0.0000005 -1.0000000 0.0000000
vn 1.0000000 0.0000014 0.0000000
vn 0.9978403 0.0656863 0.0000000
vn 0.9978403 0.0656863 0.0000000
vn 1.0000000 0.0000014 0.0000000
vn 0.9978403 0.0656863 0.0000000
vn 0.9978403 0.0656863 0.0000000
vn 1.0000000 0.0000014 0.0000000
vn 0.9978403 0.0656863 0.0000000
vn 1.0000000 0.0000014 0.0000000
vn 0.0000000 -0.0000000 1.0000000
vn 0.0000000 -0.0000000 1.0000000
vn 0.0000000 -0.0000001 1.0000000
vn 0.0000000 -0.0000000 1.0000000
vn 0.0000000 -0.0000001 1.0000000
vn 0.0000000 -0.0000001 1.0000000
vn 0.0000000 -0.0000001 1.0000000
vn 0.0000000 -0.0000001 1.0000000
vn 0.0000000 -0.0000000 1.0000000
vn 0.0000000 -0.0000001 1.0000000
vn 0.0000000 -0.0000000 1.0000000
vn 0.0000000 -0.0000000 1.0000000
vn 0.0000000 -0.0000000 1.0000000
vn 0.0000000 -0.0000000 1.0000000
vn 0.0000000 0.0000000 1.0000000
vn 0.0000000 -0.0000000 1.0000000
vn 0.0000000 0.0000000 1.0000000
vn 0.0000000 0.0000000 1.0000000
vn 0.0000000 0.0000000 1.0000000
vn 0.0000000 0.0000000 1.0000000
vn 0.0000000 0.0000000 1.0000000
vn 0.0000000 0.0000000 1.0000000
vn 0.0000000 0.0000000 1.0000000
vn 0.0000000 0.0000000 1.0000000
vn 0.0000000 -0.0000000 1.0000000
vn 0.0000000 0.0000000 1.0000000
vn 0.0000000 0.0000000 1.0000000
vn 0.0000000 -0.0000000 1.0000000
vn 0.0000000 0.0000000 1.0000000
vn 0.0000000 0.0000000 1.0000000
vn 0.0000000 -0.0000000 1.0000000
vn 0.0000000 0.0000000 1.0000000
vn 0.0000000 -0.0000000 1.0000000
vn -0.8660253 0.0000000 -0.5000002
vn -0.8660253 0.0000000 -0.5000002
vn -0.8380123 0.0000000 -0.5456513
vn -0.8660253 0.0000000 -0.5000002
vn -0.8380123 0.0000000 -0.5456513
vn -0.8380123 0.0000000 -0.5456513
vn -0.9659258 0.0000000 -0.2588190
vn -0.9659258 0.0000000 -0.2588190
vn -0.8660253 0.0000000 -0.5000002
vn -0.9659258 0.0000000 -0.2588190
vn -0.8660253 0.0000000 -0.5000002
vn -0.9240491 0.0000000 -0.3822739
vn -0.9240491 0.0000000 -0.3822739
vn -0.8660253 0.0000000 -0.5000002
vn -0.8660253 0.0000000 -0.5000002
vn -1.0000000 0.0000000 0.0000000
vn -1.0000000 0.0000000 0.0000000
vn -0.9659258 0.0000000 -0.2588190
vn -1.0000000 0.0000000 0.0000000
vn -0.9659258 0.0000000 -0.2588190
vn -0.9915026 0.0000000 -0.1300866
vn -0.9915026 0.0000000 -0.1300866
vn -0.9659258 0.0000000 -0.2588190
vn -0.9659258 0.0000000 -0.2588190
vn -0.9659258 0.0000000 0.2588190
vn -0.9659258 0.0000000 0.2588190
vn -0.9915026 0.0000000 0.1300866
vn -0.9915026 0.0000000 0.1300866
vn -0.9659258 0.0000000 0.2588190
vn -1.0000000 0.0000000 0.0000000
vn -0.9915026 0.0000000 0.1300866
vn -1.0000000 0.0000000 0.0000000
vn -1.0000000 0.0000000 0.0000000
vn -0.8660253 0.0000000 0.5000002
vn -0.8660253 0.0000000 0.5000002
vn -0.9240491 0.0000000 0.3822739
vn -0.9240491 0.0000000 0.3822739
vn -0.8660253 0.0000000 0.5000002
vn -0.9659258 0.0000000 0.2588190
vn -0.9240491 0.0000000 0.3822739
vn -0.9659258 0.0000000 0.2588190
vn -0.9659258 0.0000000 0.2588190
vn -0.8380123 0.0000000 0.5456513
vn -0.8380123 0.0000000 0.5456513
vn -0.8660253 0.0000000 0.5000002
vn -0.8380123 0.0000000 0.5456513
vn -0.8660253 0.0000000 0.5000002
vn -0.8660253 0.0000000 0.5000002
vn 0.0000000 1.0000000 0.0000000
vn 0.0000000 1.0000000 0.0000000
vn 0.0000000 1.0000000 0.0000000
vn 0.0000000 1.0000000 0.0000000
vn 0.0000000 1.0000000 0.0000000
vn 0.0000000 1.0000000 0.0000000
vn 0.0000000 1.0000000 0.0000000
vn 0.0000000 1.0000000 0.0000000
vn 0.0000000 1.0000000 0.0000000
vn 0.0000000 1.0000000 0.0000000
vn 0.0000000 1.0000000 0.0000000
vn 0.0000000 1.0000000 0.0000000
vn 0.0000000 1.0000000 0.0000000
vn 0.0000000 1.0000000 0.0000000
vn 0.0000000 1.0000000 0.0000000
vn 0.0000000 1.0000000 0.0000000
vn 0.0000000 1.0000000 0.0000000
vn 0.0000000 1.0000000 0.0000000
vn 0.0000000 1.0000000 0.0000000
vn 0.0000000 1.0000000 0.0000000
vn 0.0000000 1.0000000 0.0000000
vn 0.0000000 1.0000000 0.0000000
vn 0.0000000 1.0000000 0.0000000
vn 0.0000000 1.0000000 0.0000000
vn 0.0000000 1.0000000 0.0000000
vn 0.0000000 1.0000000 0.0000000
vn 0.0000000 1.0000000 0.0000000
vn 0.0000000 1.0000000 0.0000000
vn 0.0000000 1.0000000 0.0000000
vn 0.0000000 1.0000000 0.0000000
vn 0.0000000 1.0000000 0.0000000
vn 0.0000000 1.0000000 0.0000000
vn 0.0000000 1.0000000 0.0000000
vn 0.0000000 1.0000000 0.0000000
vn 0.0000000 1.0000000 0.0000000
vn 0.0000000 1.0000000 0.0000000
vn 0.0000000 1.0000000 0.0000000
vn 0.0000000 1.0000000 0.0000000
vn 0.0000000 1.0000000 0.0000000
vn 0.0000000 1.0000000 0.0000000
vn 0.0000025 1.0000000 0.0000000
vn 0.0000025 1.0000000 0.0000000
vn 0.0000000 1.0000000 0.0000000
vn 0.0000025 1.0000000 0.0000000
vn 0.0000014 1.0000000 0.0000000
vn 0.0000000 1.0000000 0.0000000
vn 0.0000014 1.0000000 0.0000000
vn 0.0000000 1.0000000 0.0000000
vn 0.0000025 1.0000000 0.0000000
vn 0.0000025 1.0000000 0.0000000
vn 0.0000025 1.0000000 0.0000000
vn 0.0000025 1.0000000 0.0000000
vn 0.0000025 1.0000000 0.0000000
vn 0.0000025 1.0000000 0.0000000
vn 0.9886572 0.0000000 0.1501895
vn 0.9886572 0.0000000 0.1501895
vn 0.9915025 0.0000000 0.1300875
vn 0.9915025 0.0000000 0.1300875
vn 0.9886572 0.0000000 0.1501895
vn 0.9886572 0.0000000 0.1501895
vn 0.9915025 0.0000000 0.1300875
vn 0.9886572 0.0000000 0.1501895
vn 1.0000000 0.0000000 0.0000000
vn 0.9915025 0.0000000 0.1300875
vn 1.0000000 0.0000000 0.0000000
vn 1.0000000 0.0000000 0.0000000
vn 1.0000000 0.0000000 0.0000000
vn 1.0000000 0.0000000 0.0000000
vn 0.9886572 0.0000000 -0.1501895
vn 1.0000000 0.0000000 0.0000000
vn 0.9886572 0.0000000 -0.1501895
vn 0.9886572 0.0000000 -0.1501895
vn 1.0000000 0.0000000 0.0000000
vn 0.9886572 0.0000000 -0.1501895
vn 0.9915025 0.0000000 -0.1300875
vn 0.9915025 0.0000000 -0.1300875
vn 0.9886572 0.0000000 -0.1501895
vn 0.9886572 0.0000000 -0.1501895
vn -0.7071071 0.0000000 -0.7071065
vn -0.7071071 0.0000000 -0.7071065
vn -0.6363649 0.0000000 -0.7713881
vn -0.7071071 0.0000000 -0.7071065
vn -0.6363649 0.0000000 -0.7713881
vn -0.6363649 0.0000000 -0.7713881
vn -0.7071071 0.0000000 -0.7071065
vn -0.6363649 0.0000000 -0.7713881
vn -0.6363649 0.0000000 -0.7713881
vn -0.8660262 0.0000000 -0.4999987
vn -0.8660262 0.0000000 -0.4999987
vn -0.7071071 0.0000000 -0.7071065
vn -0.8660262 0.0000000 -0.4999987
vn -0.7071071 0.0000000 -0.7071065
vn -0.7071071 0.0000000 -0.7071065
vn -0.9659265 0.0000000 -0.2588164
vn -0.9659265 0.0000000 -0.2588164
vn -0.8660262 0.0000000 -0.4999987
vn -0.9659265 0.0000000 -0.2588164
vn -0.8660262 0.0000000 -0.4999987
vn -0.8660262 0.0000000 -0.4999987
vn -1.0000000 0.0000000 0.0000000
vn -1.0000000 0.0000000 0.0000000
vn -0.9659265 0.0000000 -0.2588164
vn -1.0000000 0.0000000 0.0000000
vn -0.9659265 0.0000000 -0.2588164
vn -0.9659265 0.0000000 -0.2588164
vn -1.0000000 0.0000000 0.0000000
vn -0.9659265 0.0000000 0.2588164
vn -0.9659265 0.0000000 0.2588164
vn -1.0000000 0.0000000 0.0000000
vn -0.9659265 0.0000000 0.2588164
vn -1.0000000 0.0000000 0.0000000
vn -0.9659265 0.0000000 0.2588164
vn -0.8660262 0.0000000 0.4999987
vn -0.8660262 0.0000000 0.4999987
vn -0.9659265 0.0000000 0.2588164
vn -0.8660262 0.0000000 0.4999987
vn -0.9659265 0.0000000 0.2588164
vn -0.8660262 0.0000000 0.4999987
vn -0.7071071 0.0000000 0.7071065
vn -0.7071071 0.0000000 0.7071065
vn -0.8660262 0.0000000 0.4999987
vn -0.7071071 0.0000000 0.7071065
vn -0.8660262 0.0000000 0.4999987
vn -0.7071071 0.0000000 0.7071065
vn -0.6363649 0.0000000 0.7713881
vn -0.6363649 0.0000000 0.7713881
vn -0.7071071 0.0000000 0.7071065
vn -0.6363649 0.0000000 0.7713881
vn -0.6363649 0.0000000 0.7713881
vn -0.7071071 0.0000000 0.7071065
vn -0.6363649 0.0000000 0.7713881
vn -0.7071071 0.0000000 0.7071065
vn -0.0000000 1.0000000 0.0000000
vn 0.0000000 1.0000000 0.0000000
vn -0.0000001 1.0000000 0.0000000
vn -0.0000000 1.0000000 0.0000000
vn -0.0000001 1.0000000 0.0000000
vn -0.0000003 1.0000000 0.0000000
vn 0.0000007 1.0000000 0.0000000
vn 0.0000007 1.0000000 0.0000000
vn 0.0000003 1.0000000 0.0000000
vn 0.0000007 1.0000000 0.0000000
vn 0.0000003 1.0000000 0.0000000
vn 0.0000000 1.0000000 0.0000000
vn 0.0000007 1.0000000 0.0000000
vn 0.0000000 1.0000000 0.0000000
vn -0.0000000 1.0000000 0.0000000
vn 0.0000000 1.0000000 0.0000000
vn -0.0000000 1.0000000 0.0000000
vn 0.0000001 1.0000000 0.0000000
vn 0.0000000 1.0000000 0.0000000
vn 0.0000001 1.0000000 0.0000000
vn 0.0000006 1.0000000 0.0000000
vn 0.0000000 1.0000000 0.0000000
vn 0.0000006 1.0000000 0.0000000
vn 0.0000007 1.0000000 0.0000000
vn 0.0000000 1.0000000 0.0000000
vn 0.0000007 1.0000000 0.0000000
vn 0.0000007 1.0000000 0.0000000
vn -0.0000028 1.0000000 0.0000000
vn -0.0000028 1.0000000 0.0000000
vn -0.0000000 1.0000000 0.0000000
vn -0.0000028 1.0000000 0.0000000
vn -0.0000000 1.0000000 0.0000000
vn 0.0000000 1.0000000 0.0000000
vn -0.0000028 1.0000000 0.0000000
vn 0.0000000 1.0000000 0.0000000
vn -0.0000000 1.0000000 0.0000000
vn -0.0000028 1.0000000 0.0000000
vn -0.0000000 1.0000000 0.0000000
vn -0.0000028 1.0000000 0.0000000
vn 0.0000000 1.0000000 0.0000000
vn 0.0000007 1.0000000 0.0000000
vn 0.0000007 1.0000000 0.0000000
vn 0.0000000 1.0000000 0.0000000
vn 0.0000007 1.0000000 0.0000000
vn 0.0000006 1.0000000 0.0000000
vn 0.0000000 1.0000000 0.0000000
vn 0.0000006 1.0000000 0.0000000
vn 0.0000001 1.0000000 0.0000000
vn 0.0000000 1.0000000 0.0000000
vn 0.0000001 1.0000000 0.0000000
vn -0.0000000 1.0000000 0.0000000
vn 0.0000007 1.0000000 0.0000000
vn -0.0000000 1.0000000 0.0000000
vn 0.0000000 1.0000000 0.0000000
vn 0.0000007 1.0000000 0.0000000
vn 0.0000000 1.0000000 0.0000000
vn 0.0000003 1.0000000 0.0000000
vn 0.0000007 1.0000000 0.0000000
vn 0.0000003 1.0000000 0.0000000
vn 0.0000007 1.0000000 0.0000000
vn -0.0000000 1.0000000 0.0000000
vn -0.0000003 1.0000000 0.0000000
vn -0.0000001 1.0000000 0.0000000
vn -0.0000000 1.0000000 0.0000000
vn -0.0000001 1.0000000 0.0000000
vn 0.0000000 1.0000000 0.0000000
vn 0.9659257 0.0000000 0.2588196
vn 0.9593234 0.0000000 0.2823094
vn 0.9593234 0.0000000 0.2823094
vn 0.9659257 0.0000000 0.2588196
vn 0.9593234 0.0000000 0.2823094
vn 0.9593234 0.0000000 0.2823094
vn 0.9659257 0.0000000 0.2588196
vn 0.9593234 0.0000000 0.2823094
vn 0.9659257 0.0000000 0.2588196
vn 1.0000000 0.0000000 0.0000000
vn 0.9659257 0.0000000 0.2588196
vn 0.9659257 0.0000000 0.2588196
vn 1.0000000 0.0000000 0.0000000
vn 0.9659257 0.0000000 0.2588196
vn 1.0000000 0.0000000 0.0000000
vn 1.0000000 0.0000000 0.0000000
vn 1.0000000 0.0000000 0.0000000
vn 0.9659257 0.0000000 -0.2588196
vn 1.0000000 0.0000000 0.0000000
vn 0.9659257 0.0000000 -0.2588196
vn 0.9659257 0.0000000 -0.2588196
vn 0.9659257 0.0000000 -0.2588196
vn 0.9659257 0.0000000 -0.2588196
vn 0.9593234 0.0000000 -0.2823094
vn 0.9659257 0.0000000 -0.2588196
vn 0.9593234 0.0000000 -0.2823094
vn 0.9593234 0.0000000 -0.2823094
vn 0.9659257 0.0000000 -0.2588196
vn 0.9593234 0.0000000 -0.2823094
vn 0.9593234 0.0000000 -0.2823094
vn 0.0000000 -1.0000000 0.0000000
vn 0.0000000 -1.0000000 0.0000000
vn 0.0000000 -1.0000000 0.0000000
vn 0.0000000 -1.0000000 0.0000000
vn 0.0000000 -1.0000000 0.0000000
vn 0.0000000 -1.0000000 0.0000000
vn 0.0000028 -1.0000000 0.0000000
vn 0.0000000 -1.0000000 0.0000000
vn 0.0000000 -1.0000000 0.0000000
vn 0.0000028 -1.0000000 0.0000000
vn 0.0000000 -1.0000000 0.0000000
vn 0.0000012 -1.0000000 0.0000000
vn 0.0000028 -1.0000000 0.0000000
vn 0.0000012 -1.0000000 0.0000000
vn 0.0000028 -1.0000000 0.0000000
vn 0.0000028 -1.0000000 0.0000000
vn 0.0000028 -1.0000000 0.0000000
vn 0.0000028 -1.0000000 0.0000000
vn 0.0000028 -1.0000000 0.0000000
vn 0.0000028 -1.0000000 0.0000000
vn 0.0000028 -1.0000000 0.0000000
vn 0.0000028 -1.0000000 0.0000000
vn 0.0000028 -1.0000000 0.0000000
vn 0.0000028 -1.0000000 0.0000000
vn 0.0000028 -1.0000000 0.0000000
vn 0.0000028 -1.0000000 0.0000000
vn 0.0000028 -1.0000000 0.0000000
vn 0.0000000 -1.0000000 0.0000000
vn 0.0000028 -1.0000000 0.0000000
vn 0.0000028 -1.0000000 0.0000000
vn 0.0000000 -1.0000000 0.0000000
vn 0.0000028 -1.0000000 0.0000000
vn 0.0000000 -1.0000000 0.0000000
vn 0.0000000 -1.0000000 0.0000000
vn 0.0000000 -1.0000000 0.0000000
vn 0.0000000 -1.0000000 0.0000000
vn 0.0000000 -1.0000000 0.0000000
vn 0.0000000 -1.0000000 0.0000000
vn 0.0000000 -1.0000000 0.0000000
vn 0.0000000 -1.0000000 0.0000000
vn 0.0000000 -1.0000000 0.0000000
vn 0.0000000 -1.0000000 0.0000000
vn 0.0000000 -1.0000000 0.0000000
vn 0.0000000 -1.0000000 0.0000000
vn 0.0000000 -1.0000000 0.0000000
vn 0.0000000 -1.0000000 0.0000000
vn 0.0000000 -1.0000000 0.0000000
vn 0.0000000 -1.0000000 0.0000000
vn 0.0000000 -1.0000000 0.0000000
vn 0.0000000 -1.0000000 0.0000000
vn 0.0000000 -1.0000000 0.0000000
vn 0.0000000 -1.0000000 0.0000000
vn 0.0000000 -1.0000000 0.0000000
vn -0.0000008 -1.0000000 0.0000000
vn 0.0000000 -1.0000000 0.0000000
vn -0.0000008 -1.0000000 0.0000000
vn -0.0000014 -1.0000000 0.0000000
vn 0.0000000 -1.0000000 0.0000000
vn -0.0000014 -1.0000000 0.0000000
vn -0.0000014 -1.0000000 0.0000000
vn -0.0000014 -1.0000000 0.0000000
vn -0.0000014 -1.0000000 0.0000000
vn -0.0000014 -1.0000000 0.0000000
vn -0.0000014 -1.0000000 0.0000000
vn -0.0000014 -1.0000000 0.0000000
vn -0.0000014 -1.0000000 0.0000000
vn -0.8660254 0.0000000 0.5000001
vn -0.8660254 0.0000000 0.5000001
vn -0.8660254 0.0000000 0.5000001
vn -0.8660254 0.0000000 0.5000001
vn -0.8660254 0.0000000 0.5000001
vn -0.8660254 0.0000000 0.5000001
vn 0.0000002 0.0000000 1.0000000
vn 0.0000002 0.0000000 1.0000000
vn 0.0000002 0.0000000 1.0000000
vn 0.0000002 0.0000000 1.0000000
vn 0.0000002 0.0000000 1.0000000
vn 0.0000002 0.0000000 1.0000000
vn 0.8660255 0.0000000 0.4999999
vn 0.8660255 0.0000000 0.4999999
vn 0.8660255 0.0000000 0.4999999
vn 0.8660255 0.0000000 0.4999999
vn 0.8660255 0.0000000 0.4999999
vn 0.8660255 0.0000000 0.4999999
vn 0.8660254 0.0000000 -0.5000001
vn 0.8660254 0.0000000 -0.5000001
vn 0.8660254 0.0000000 -0.5000001
vn 0.8660254 0.0000000 -0.5000001
vn 0.8660254 0.0000000 -0.5000001
vn 0.8660254 0.0000000 -0.5000001
vn -0.0000002 0.0000000 -1.0000000
vn -0.0000002 0.0000000 -1.0000000
vn -0.0000002 0.0000000 -1.0000000
vn -0.0000002 0.0000000 -1.0000000
vn -0.0000002 0.0000000 -1.0000000
vn -0.0000002 0.0000000 -1.0000000
vn -0.8660255 0.0000000 -0.4999999
vn -0.8660255 0.0000000 -0.4999999
vn -0.8660255 0.0000000 -0.4999999
vn -0.8660255 0.0000000 -0.4999999
vn -0.8660255 0.0000000 -0.4999999
vn -0.8660255 0.0000000 -0.4999999
vn 0.0000000 -1.0000000 0.0000000
vn 0.0000000 -1.0000000 0.0000000
vn 0.0000000 -1.0000000 0.0000000
vn 0.0000000 -1.0000000 0.0000000
vn 0.0000000 -1.0000000 0.0000000
vn 0.0000000 -1.0000000 0.0000000
vn 0.0000000 -1.0000000 0.0000000
vn 0.0000000 -1.0000000 0.0000000
vn 0.0000000 -1.0000000 0.0000000
vn 0.0000000 -1.0000000 0.0000000
vn 0.0000000 -1.0000000 0.0000000
vn 0.0000000 -1.0000000 0.0000000
vn 0.0000000 1.0000000 0.0000000
vn 0.0000000 1.0000000 0.0000000
vn 0.0000000 1.0000000 0.0000000
vn 0.0000000 1.0000000 0.0000000
vn 0.0000000 1.0000000 0.0000000
vn 0.0000000 1.0000000 0.0000000
vn 0.0000000 1.0000000 0.0000000
vn 0.0000000 1.0000000 0.0000000
vn 0.0000000 1.0000000 0.0000000
vn 0.0000000 1.0000000 0.0000000
vn 0.0000000 1.0000000 0.0000000
vn 0.0000000 1.0000000 0.0000000
vn -0.8660254 0.0000000 0.5000001
vn -0.8660254 0.0000000 0.5000001
vn -0.8660254 0.0000000 0.5000001
vn -0.8660254 0.0000000 0.5000001
vn -0.8660254 0.0000000 0.5000001
vn -0.8660254 0.0000000 0.5000001
vn 0.0000002 0.0000000 1.0000000
vn 0.0000002 0.0000000 1.0000000
vn 0.0000002 0.0000000 1.0000000
vn 0.0000002 0.0000000 1.0000000
vn 0.0000002 0.0000000 1.0000000
vn 0.0000002 0.0000000 1.0000000
vn 0.8660255 0.0000000 0.4999999
vn 0.8660255 0.0000000 0.4999999
vn 0.8660255 0.0000000 0.4999999
vn 0.8660255 0.0000000 0.4999999
vn 0.8660255 0.0000000 0.4999999
vn 0.8660255 0.0000000 0.4999999
vn 0.8660254 0.0000000 -0.5000001
vn 0.8660254 0.0000000 -0.5000001
vn 0.8660254 0.0000000 -0.5000001
vn 0.8660254 0.0000000 -0.5000001
vn 0.8660254 0.0000000 -0.5000001
vn 0.8660254 0.0000000 -0.5000001
vn -0.0000002 0.0000000 -1.0000000
vn -0.0000002 0.0000000 -1.0000000
vn -0.0000002 0.0000000 -1.0000000
vn -0.0000002 0.0000000 -1.0000000
vn -0.0000002 0.0000000 -1.0000000
vn -0.0000002 0.0000000 -1.0000000
vn -0.8660255 0.0000000 -0.4999999
vn -0.8660255 0.0000000 -0.4999999
vn -0.8660255 0.0000000 -0.4999999
vn -0.8660255 0.0000000 -0.4999999
vn -0.8660255 0.0000000 -0.4999999
vn -0.8660255 0.0000000 -0.4999999
vn 0.0000000 -1.0000000 0.0000000
vn 0.0000000 -1.0000000 0.0000000
vn 0.0000000 -1.0000000 0.0000000
vn 0.0000000 -1.0000000 0.0000000
vn 0.0000000 -1.0000000 0.0000000
vn 0.0000000 -1.0000000 0.0000000
vn 0.0000000 -1.0000000 0.0000000
vn 0.0000000 -1.0000000 0.0000000
vn 0.0000000 -1.0000000 0.0000000
vn 0.0000000 -1.0000000 0.0000000
vn 0.0000000 -1.0000000 0.0000000
vn 0.0000000 -1.0000000 0.0000000
vn 0.0000000 1.0000000 0.0000000
vn 0.0000000 1.0000000 0.0000000
vn 0.0000000 1.0000000 0.0000000
vn 0.0000000 1.0000000 0.0000000
vn 0.0000000 1.0000000 0.0000000
vn 0.0000000 1.0000000 0.0000000
vn 0.0000000 1.0000000 0.0000000
vn 0.0000000 1.0000000 0.0000000
vn 0.0000000 1.0000000 0.0000000
vn 0.0000000 1.0000000 0.0000000
vn 0.0000000 1.0000000 0.0000000
vn 0.0000000 1.0000000 0.0000000
f 1/1/1 2/2/2 3/3/3
f 4/4/4 5/5/5 6/6/6
f 7/7/7 8/8/8 9/9/9
f 10/10/10 11/11/11 12/12/12
f 13/13/13 14/14/14 15/15/15
f 16/16/16 17/17/17 18/18/18
f 19/19/19 20/20/20 21/21/21
f 22/22/22 23/23/23 24/24/24
f 25/25/25 26/26/26 27/27/27
f 28/28/28 29/29/29 30/30/30
f 31/31/31 32/32/32 33/33/33
f 34/34/34 35/35/35 36/36/36
f 37/37/37 38/38/38 39/39/39
f 40/40/40 41/41/41 42/42/42
f 43/43/43 44/44/44 45/45/45
f 46/46/46 47/47/47 48/48/48
f 49/49/49 50/50/50 51/51/51
f 52/52/52 53/53/53 54/54/54
f 55/55/55 56/56/56 57/57/57
f 58/58/58 59/59/59 60/60/60
f 61/61/61 62/62/62 63/63/63
f 64/64/64 65/65/65 66/66/66
f 67/67/67 68/68/68 69/69/69
f 70/70/70 71/71/71 72/72/72
f 73/73/73 74/74/74 75/75/75
f 76/76/76 77/77/77 78/78/78
f 79/79/79 80/80/80 81/81/81
f 82/82/82 83/83/83 84/84/84
f 85/85/85 86/86/86 87/87/87
f 88/88/88 89/89/89 90/90/90
f 91/91/91 92/92/92 93/93/93
f 94/94/94 95/95/95 96/96/96
f 97/97/97 98/98/98 99/99/99
f 100/100/100 101/101/101 102/102/102
f 103/103/103 104/104/104 105/105/105
f 106/106/106 107/107/107 108/108/108
f 109/109/109 110/110/110 111/111/111
f 112/112/112 113/113/113 114/114/114
f 115/115/115 116/116/116 117/117/117
f 118/118/118 119/119/119 120/120/120
f 121/121/121 122/122/122 123/123/123
f 124/124/124 125/125/125 126/126/126
f 127/127/127 128/128/128 129/129/129
f 130/130/130 131/131/131 132/132/132
f 133/133/133 134/134/134 135/135/135
f 136/136/136 137/137/137 138/138/138
f 139/139/139 140/140/140 141/141/141
f 142/142/142 143/143/143 144/144/144
f 145/145/145 146/146/146 147/147/147
f 148/148/148 149/149/149 150/150/150
f 151/151/151 152/152/152 153/153/153
f 154/154/154 155/155/155 156/156/156
f 157/157/157 158/158/158 159/159/159
f 160/160/160 161/161/161 162/162/162
f 163/163/163 164/164/164 165/165/165
f 166/166/166 167/167/167 168/168/168
f 169/169/169 170/170/170 171/171/171
f 172/172/172 173/173/173 174/174/174
f 175/175/175 176/176/176 177/177/177
f 178/178/178 179/179/179 180/180/180
f 181/181/181 182/182/182 183/183/183
f 184/184/184 185/185/185 186/186/186
f 187/187/187 188/188/188 189/189/189
f 190/190/190 191/191/191 192/192/192
f 193/193/193 194/194/194 195/195/195
f 196/196/196 197/197/197 198/198/198
f 199/199/199 200/200/200 201/201/201
f 202/202/202 203/203/203 204/204/204
f 205/205/205 206/206/206 207/207/207
f 208/208/208 209/209/209 210/210/210
f 211/211/211 212/212/212 213/213/213
f 214/214/214 215/215/215 216/216/216
f 217/217/217 218/218/218 219/219/219
f 220/220/220 221/221/221 222/222/222
f 223/223/223 224/224/224 225/225/225
f 226/226/226 227/227/227 228/228/228
f 229/229/229 230/230/230 231/231/231
f 232/232/232 233/233/233 234/234/234
f 235/235/235 236/236/236 237/237/237
f 238/238/238 239/239/239 240/240/240
f 241/241/241 242/242/242 243/243/243
f 244/244/244 245/245/245 246/246/246
f 247/247/247 248/248/248 249/249/249
f 250/250/250 251/251/251 252/252/252
f 253/253/253 254/254/254 255/255/255
f 256/256/256 257/257/257 258/258/258
f 259/259/259 260/260/260 261/261/261
f 262/262/262 263/263/263 264/264/264
f 265/265/265 266/266/266 267/267/267
f 268/268/268 269/269/269 270/270/270
f 271/271/271 272/272/272 273/273/273
f 274/274/274 275/275/275 276/276/276
f 277/277/277 278/278/278 279/279/279
f 280/280/280 281/281/281 282/282/282
f 283/283/283 284/284/284 285/285/285
f 286/286/286 287/287/287 288/288/288
f 289/289/289 290/290/290 291/291/291
f 292/292/292 293/293/293 294/294/294
f 295/295/295 296/296/296 297/297/297
f 298/298/298 299/299/299 300/300/300
f 301/301/301 302/302/302 303/303/303
f 304/304/304 305/305/305 306/306/306
f 307/307/307 308/308/308 309/309/309
f 310/310/310 311/311/311 312/312/312
f 313/313/313 314/314/314 315/315/315
f 316/316/316 317/317/317 318/318/318
f 319/319/319 320/320/320 321/321/321
f 322/322/322 323/323/323 324/324/324
f 325/325/325 326/326/326 327/327/327
f 328/328/328 329/329/329 330/330/330
f 331/331/331 332/332/332 333/333/333
f 334/334/334 335/335/335 336/336/336
f 337/337/337 338/338/338 339/339/339
f 340/340/340 341/341/341 342/342/342
f 343/343/343 344/344/344 345/345/345
f 346/346/346 347/347/347 348/348/348
f 349/349/349 350/350/350 351/351/351
f 352/352/352 353/353/353 354/354/354
f 355/355/355 356/356/356 357/357/357
f 358/358/358 359/359/359 360/360/360
f 361/361/361 362/362/362 363/363/363
f 364/364/364 365/365/365 366/366/366
f 367/367/367 368/368/368 369/369/369
f 370/370/370 371/371/371 372/372/372
f 373/373/373 374/374/374 375/375/375
f 376/376/376 377/377/377 378/378/378
f 379/379/379 380/380/380 381/381/381
f 382/382/382 383/383/383 384/384/384
f 385/385/385 386/386/386 387/387/387
f 388/388/388 389/389/389 390/390/390
f 391/391/391 392/392/392 393/393/393
f 394/394/394 395/395/395 396/396/396
f 397/397/397 398/398/398 399/399/399
f 400/400/400 401/401/401 402/402/402
f 403/403/403 404/404/404 405/405/405
f 406/406/406 407/407/407 408/408/408
f 409/409/409 410/410/410 411/411/411
f 412/412/412 413/413/413 414/414/414
f 415/415/415 416/416/416 417/417/417
f 418/418/418 419/419/419 420/420/420
f 421/421/421 422/422/422 423/423/423
f 424/424/424 425/425/425 426/426/426
f 427/427/427 428/428/428 429/429/429
f 430/430/430 431/431/431 432/432/432
f 433/433/433 434/434/434 435/435/435
f 436/436/436 437/437/437 438/438/438
f 439/439/439 440/440/440 441/441/441
f 442/442/442 443/443/443 444/444/444
f 445/445/445 446/446/446 447/447/447
f 448/448/448 449/449/449 450/450/450
f 451/451/451 452/452/452 453/453/453
f 454/454/454 455/455/455 456/456/456
f 457/457/457 458/458/458 459/459/459
f 460/460/460 461/461/461 462/462/462
f 463/463/463 464/464/464 465/465/465
f 466/466/466 467/467/467 468/468/468
f 469/469/469 470/470/470 471/471/471
f 472/472/472 473/473/473 474/474/474
f 475/475/475 476/476/476 477/477/477
f 478/478/478 479/479/479 480/480/480
f 481/481/481 482/482/482 483/483/483
f 484/484/484 485/485/485 486/486/486
f 487/487/487 488/488/488 489/489/489
f 490/490/490 491/491/491 492/492/492
f 493/493/493 494/494/494 495/495/495
f 496/496/496 497/497/497 498/498/498
f 499/499/499 500/500/500 501/501/501
f 502/502/502 503/503/503 504/504/504
f 505/505/505 506/506/506 507/507/507
f 508/508/508 509/509/509 510/510/510
f 511/511/511 512/512/512 513/513/513
f 514/514/514 515/515/515 516/516/516
f 517/517/517 518/518/518 519/519/519
f 520/520/520 521/521/521 522/522/522
f 523/523/523 524/524/524 525/525/525
f 526/526/526 527/527/527 528/528/528
f 529/529/529 530/530/530 531/531/531
f 532/532/532 533/533/533 534/534/534
f 535/535/535 536/536/536 537/537/537
f 538/538/538 539/539/539 540/540/540
f 541/541/541 542/542/542 543/543/543
f 544/544/544 545/545/545 546/546/546
f 547/547/547 548/548/548 549/549/549
f 550/550/550 551/551/551 552/552/552
f 553/553/553 554/554/554 555/555/555
f 556/556/556 557/557/557 558/558/558
f 559/559/559 560/560/560 561/561/561
f 562/562/562 563/563/563 564/564/564
f 565/565/565 566/566/566 567/567/567
f 568/568/568 569/569/569 570/570/570
f 571/571/571 572/572/572 573/573/573
f 574/574/574 575/575/575 576/576/576
f 577/577/577 578/578/578 579/579/579
f 580/580/580 581/581/581 582/582/582
f 583/583/583 584/584/584 585/585/585
f 586/586/586 587/587/587 588/588/588
f 589/589/589 590/590/590 591/591/591
f 592/592/592 593/593/593 594/594/594
