# metre = block; Y up; per-cell coordinates; atlas UVs preserved
mtllib materials.mtl
o cell_27
usemtl pump_atlas
v 0.0000000 0.3262514 0.8652918
v 0.2000000 0.3053488 0.9703760
v 0.2000000 0.2000000 0.9600000
v 0.0000000 0.3262514 0.8652918
v 0.2000000 0.2000000 0.9600000
v 0.0000000 0.2836102 0.8610920
v 0.0000000 0.2836102 0.8610920
v 0.2000000 0.2000000 0.9600000
v 0.0000000 0.2000000 0.8528571
v 0.0000000 0.4476510 0.9021179
v 0.1977672 0.4071068 1.0000000
v 0.2000000 0.4030061 1.0000000
v 0.0000000 0.4476510 0.9021179
v 0.2000000 0.4030061 1.0000000
v 0.2000000 0.3053488 0.9703760
v 0.0000000 0.4476510 0.9021179
v 0.2000000 0.3053488 0.9703760
v 0.0000000 0.4066485 0.8896800
v 0.0000000 0.4066485 0.8896800
v 0.2000000 0.3053488 0.9703760
v 0.0000000 0.3262514 0.8652918
v 0.0000000 0.5595335 0.9619204
v 0.0854896 0.5340895 1.0000000
v 0.1962781 0.4087910 1.0000000
v 0.0000000 0.5595335 0.9619204
v 0.1962781 0.4087910 1.0000000
v 0.0000000 0.5217454 0.9417222
v 0.0000000 0.5217454 0.9417222
v 0.1962781 0.4087910 1.0000000
v 0.1977672 0.4071068 1.0000000
v 0.0000000 0.5217454 0.9417222
v 0.1977672 0.4071068 1.0000000
v 0.0000000 0.4476510 0.9021179
v 0.0854896 0.5340895 1.0000000
v 0.0000000 0.5595335 0.9619204
v 0.0000000 0.6059336 1.0000000
v 0.0000000 0.0737487 0.8652918
v 0.2000000 0.0946512 0.9703760
v 0.0131262 0.0000000 0.8949761
v 0.0000000 0.0737487 0.8652918
v 0.0131262 0.0000000 0.8949761
v 0.0000000 0.0000000 0.8876632
v 0.0131262 0.0000000 0.8949761
v 0.2000000 0.0946512 0.9703760
v 0.2000000 0.0000000 0.9990881
v 0.0000000 0.2000000 0.8528571
v 0.2000000 0.2000000 0.9600000
v 0.0000000 0.1163899 0.8610920
v 0.0000000 0.1163899 0.8610920
v 0.2000000 0.2000000 0.9600000
v 0.2000000 0.0946512 0.9703760
v 0.0000000 0.1163899 0.8610920
v 0.2000000 0.0946512 0.9703760
v 0.0000000 0.0737487 0.8652918
v 0.2000000 0.3053488 0.9703760
v 0.2188777 0.2994562 1.0000000
v 0.2195727 0.2881658 1.0000000
v 0.2000000 0.3053488 0.9703760
v 0.2195727 0.2881658 1.0000000
v 0.2250000 0.2000000 1.0000000
v 0.2000000 0.3053488 0.9703760
v 0.2250000 0.2000000 1.0000000
v 0.2000000 0.2000000 0.9600000
v 0.2188777 0.2994562 1.0000000
v 0.2000000 0.3053488 0.9703760
v 0.2000000 0.4030061 1.0000000
v 0.2000000 0.0000000 0.9990881
v 0.2000000 0.0946512 0.9703760
v 0.2188777 0.1005438 1.0000000
v 0.2000000 0.0000000 0.9990881
v 0.2188777 0.1005438 1.0000000
v 0.2005480 0.0000000 1.0000000
v 0.2000000 0.0946512 0.9703760
v 0.2000000 0.2000000 0.9600000
v 0.2250000 0.2000000 1.0000000
v 0.2000000 0.0946512 0.9703760
v 0.2250000 0.2000000 1.0000000
v 0.2195727 0.1118342 1.0000000
v 0.2000000 0.0946512 0.9703760
v 0.2195727 0.1118342 1.0000000
v 0.2188777 0.1005438 1.0000000
v 0.2180002 0.1520001 0.7680000
v 0.2180002 0.1940000 0.7260000
v 0.2600002 0.1940000 0.7680000
v 0.2180002 0.2480000 0.7680000
v 0.2600002 0.2060001 0.7680000
v 0.2180002 0.2060001 0.7260000
v 0.0000000 0.1940000 0.7260000
v 0.2180002 0.1940000 0.7260000
v 0.0000000 0.1882632 0.7317368
v 0.0000000 0.1882632 0.7317368
v 0.2180002 0.1940000 0.7260000
v 0.2180002 0.1520001 0.7680000
v 0.0000000 0.1882632 0.7317368
v 0.2180002 0.1520001 0.7680000
v 0.0000000 0.1520001 0.7680000
v 0.2180002 0.1520001 1.0000000
v 0.2180002 0.1520001 0.7680000
v 0.2600002 0.1940000 0.7680000
v 0.2180002 0.1520001 1.0000000
v 0.2600002 0.1940000 0.7680000
v 0.2533445 0.1873443 1.0000000
v 0.2533445 0.1873443 1.0000000
v 0.2600002 0.1940000 0.7680000
v 0.2600002 0.1940000 1.0000000
v 0.2600002 0.2060001 1.0000000
v 0.2600002 0.2060001 0.7680000
v 0.2533445 0.2126558 1.0000000
v 0.2533445 0.2126558 1.0000000
v 0.2600002 0.2060001 0.7680000
v 0.2180002 0.2480000 0.7680000
v 0.2533445 0.2126558 1.0000000
v 0.2180002 0.2480000 0.7680000
v 0.2180002 0.2480000 1.0000000
v 0.0000000 0.2480000 0.7680000
v 0.2180002 0.2480000 0.7680000
v 0.2180002 0.2060001 0.7260000
v 0.0000000 0.2480000 0.7680000
v 0.2180002 0.2060001 0.7260000
v 0.0000000 0.2117369 0.7317368
v 0.0000000 0.2117369 0.7317368
v 0.2180002 0.2060001 0.7260000
v 0.0000000 0.2060001 0.7260000
v 0.2180002 0.1940000 0.7260000
v 0.2180002 0.2060001 0.7260000
v 0.2600002 0.2060001 0.7680000
v 0.2180002 0.1940000 0.7260000
v 0.2600002 0.2060001 0.7680000
v 0.2600002 0.1940000 0.7680000
v 0.0000000 0.1520001 0.7680000
v 0.2180002 0.1520001 0.7680000
v 0.0000000 0.1520001 0.9679701
v 0.0000000 0.1520001 0.9679701
v 0.2180002 0.1520001 0.7680000
v 0.2180002 0.1520001 1.0000000
v 0.0000000 0.1520001 0.9679701
v 0.2180002 0.1520001 1.0000000
v 0.0000000 0.1520001 1.0000000
v 0.2600002 0.1940000 1.0000000
v 0.2600002 0.1940000 0.7680000
v 0.2600002 0.2060001 0.7680000
v 0.2600002 0.1940000 1.0000000
v 0.2600002 0.2060001 0.7680000
v 0.2600002 0.2040984 1.0000000
v 0.2600002 0.2040984 1.0000000
v 0.2600002 0.2060001 0.7680000
v 0.2600002 0.2060001 1.0000000
v 0.0000000 0.2060001 0.7260000
v 0.2180002 0.2060001 0.7260000
v 0.0000000 0.2043610 0.7260000
v 0.0000000 0.2043610 0.7260000
v 0.2180002 0.2060001 0.7260000
v 0.2180002 0.1940000 0.7260000
v 0.0000000 0.2043610 0.7260000
v 0.2180002 0.1940000 0.7260000
v 0.0000000 0.1940000 0.7260000
v 0.2180002 0.2480000 1.0000000
v 0.2180002 0.2480000 0.7680000
v 0.0000000 0.2480000 0.9679701
v 0.2180002 0.2480000 1.0000000
v 0.0000000 0.2480000 0.9679701
v 0.0000000 0.2480000 1.0000000
v 0.0000000 0.2480000 0.9679701
v 0.2180002 0.2480000 0.7680000
v 0.0000000 0.2480000 0.7680000
v 0.1598001 0.2516000 0.8560592
v 0.1598001 0.2924000 0.8560592
v 0.1436002 0.2924000 0.8279999
v 0.1598001 0.2516000 0.8560592
v 0.1436002 0.2924000 0.8279999
v 0.1436002 0.2516000 0.8279999
v 0.1922002 0.2516000 0.8560592
v 0.1922002 0.2924000 0.8560592
v 0.1598001 0.2924000 0.8560592
v 0.1922002 0.2516000 0.8560592
v 0.1598001 0.2924000 0.8560592
v 0.1598001 0.2516000 0.8560592
v 0.2084000 0.2516000 0.8279999
v 0.2084000 0.2924000 0.8279999
v 0.1922002 0.2924000 0.8560592
v 0.2084000 0.2516000 0.8279999
v 0.1922002 0.2924000 0.8560592
v 0.1922002 0.2516000 0.8560592
v 0.2084000 0.2516000 0.8279999
v 0.1922002 0.2516000 0.7999407
v 0.1922002 0.2924000 0.7999407
v 0.2084000 0.2516000 0.8279999
v 0.1922002 0.2924000 0.7999407
v 0.2084000 0.2924000 0.8279999
v 0.1922002 0.2516000 0.7999407
v 0.1598001 0.2516000 0.7999407
v 0.1598001 0.2924000 0.7999407
v 0.1922002 0.2516000 0.7999407
v 0.1598001 0.2924000 0.7999407
v 0.1922002 0.2924000 0.7999407
v 0.1598001 0.2516000 0.7999407
v 0.1436002 0.2516000 0.8279999
v 0.1436002 0.2924000 0.8279999
v 0.1598001 0.2516000 0.7999407
v 0.1436002 0.2924000 0.8279999
v 0.1598001 0.2924000 0.7999407
v 0.2084000 0.2516000 0.8279999
v 0.1922002 0.2516000 0.8560592
v 0.1598001 0.2516000 0.8560592
v 0.2084000 0.2516000 0.8279999
v 0.1598001 0.2516000 0.8560592
v 0.1436002 0.2516000 0.8279999
v 0.2084000 0.2516000 0.8279999
v 0.1436002 0.2516000 0.8279999
v 0.1598001 0.2516000 0.7999407
v 0.2084000 0.2516000 0.8279999
v 0.1598001 0.2516000 0.7999407
v 0.1922002 0.2516000 0.7999407
v 0.2084000 0.2924000 0.8279999
v 0.1922002 0.2924000 0.7999407
v 0.1598001 0.2924000 0.7999407
v 0.2084000 0.2924000 0.8279999
v 0.1598001 0.2924000 0.7999407
v 0.1436002 0.2924000 0.8279999
v 0.2084000 0.2924000 0.8279999
v 0.1436002 0.2924000 0.8279999
v 0.1598001 0.2924000 0.8560592
v 0.2084000 0.2924000 0.8279999
v 0.1598001 0.2924000 0.8560592
v 0.1922002 0.2924000 0.8560592
vt 0.7252604 0.0727744
vt 0.7382812 0.0710733
vt 0.7382812 0.0625000
vt 0.7252604 0.0727744
vt 0.7382812 0.0625000
vt 0.7252604 0.0693042
vt 0.7252604 0.0693042
vt 0.7382812 0.0625000
vt 0.7252604 0.0625000
vt 0.7252604 0.0826539
vt 0.7381358 0.0793544
vt 0.7382812 0.0790206
vt 0.7252604 0.0826539
vt 0.7382812 0.0790206
vt 0.7382812 0.0710733
vt 0.7252604 0.0826539
vt 0.7382812 0.0710733
vt 0.7252604 0.0793171
vt 0.7252604 0.0793171
vt 0.7382812 0.0710733
vt 0.7252604 0.0727744
vt 0.7252604 0.0917589
vt 0.7308261 0.0896883
vt 0.7380389 0.0794914
vt 0.7252604 0.0917589
vt 0.7380389 0.0794914
vt 0.7252604 0.0886837
vt 0.7252604 0.0886837
vt 0.7380389 0.0794914
vt 0.7381358 0.0793544
vt 0.7252604 0.0886837
vt 0.7381358 0.0793544
vt 0.7252604 0.0826539
vt 0.7308261 0.0896883
vt 0.7252604 0.0917589
vt 0.7252604 0.0955349
vt 0.7252604 0.0522256
vt 0.7382812 0.0539267
vt 0.7261150 0.0462239
vt 0.7252604 0.0522256
vt 0.7261150 0.0462239
vt 0.7252604 0.0462239
vt 0.7261150 0.0462239
vt 0.7382812 0.0539267
vt 0.7382812 0.0462240
vt 0.7252604 0.0625000
vt 0.7382812 0.0625000
vt 0.7252604 0.0556958
vt 0.7252604 0.0556958
vt 0.7382812 0.0625000
vt 0.7382812 0.0539267
vt 0.7252604 0.0556958
vt 0.7382812 0.0539267
vt 0.7252604 0.0522256
vt 0.7306009 0.0710733
vt 0.7281901 0.0705938
vt 0.7281901 0.0696749
vt 0.7306009 0.0710733
vt 0.7281901 0.0696749
vt 0.7281901 0.0625000
vt 0.7306009 0.0710733
vt 0.7281901 0.0625000
vt 0.7314453 0.0625000
vt 0.7281901 0.0705938
vt 0.7306009 0.0710733
vt 0.7281901 0.0790206
vt 0.7282643 0.0462240
vt 0.7306009 0.0539267
vt 0.7281901 0.0544062
vt 0.7282643 0.0462240
vt 0.7281901 0.0544062
vt 0.7281901 0.0462240
vt 0.7306009 0.0539267
vt 0.7314453 0.0625000
vt 0.7281901 0.0625000
vt 0.7306009 0.0539267
vt 0.7281901 0.0625000
vt 0.7281901 0.0553251
vt 0.7306009 0.0539267
vt 0.7281901 0.0553251
vt 0.7281901 0.0544062
vt 0.7431641 0.1179142
vt 0.7431640 0.1210938
vt 0.7460938 0.1179143
vt 0.7431016 0.1195040
vt 0.7437092 0.0698242
vt 0.7431641 0.0698242
vt 0.7279575 0.1210938
vt 0.7431640 0.1210938
vt 0.7279575 0.1206595
vt 0.7279575 0.1206595
vt 0.7431640 0.1210938
vt 0.7431641 0.1179142
vt 0.7279575 0.1206595
vt 0.7431641 0.1179142
vt 0.7279576 0.1179142
vt 0.7431641 0.1003512
vt 0.7431641 0.1179142
vt 0.7460938 0.1179143
vt 0.7431641 0.1003512
vt 0.7460938 0.1179143
vt 0.7456295 0.1003513
vt 0.7456295 0.1003513
vt 0.7460938 0.1179143
vt 0.7460938 0.1028916
vt 0.7260202 0.0698242
vt 0.7437092 0.0698242
vt 0.7260202 0.0779489
vt 0.7260202 0.0779489
vt 0.7437092 0.0698242
vt 0.7431016 0.1195040
vt 0.7260202 0.0779489
vt 0.7431016 0.1195040
vt 0.7255089 0.1197559
vt 0.7279036 0.1192868
vt 0.7431016 0.1195040
vt 0.7431641 0.0698242
vt 0.7279036 0.1192868
vt 0.7431641 0.0698242
vt 0.7279576 0.0763929
vt 0.7279576 0.0763929
vt 0.7431641 0.0698242
vt 0.7279576 0.0698242
vt 0.7431641 0.0551758
vt 0.7431641 0.0698242
vt 0.7437092 0.0698242
vt 0.7431641 0.0551758
vt 0.7437092 0.0698242
vt 0.7429142 0.0551758
vt 0.7279576 0.1179142
vt 0.7431641 0.1179142
vt 0.7279576 0.1027760
vt 0.7279576 0.1027760
vt 0.7431641 0.1179142
vt 0.7431641 0.1003512
vt 0.7279576 0.1027760
vt 0.7431641 0.1003512
vt 0.7279576 0.1003512
vt 0.7253512 0.0551758
vt 0.7429142 0.0551758
vt 0.7437092 0.0698242
vt 0.7253512 0.0551758
vt 0.7437092 0.0698242
vt 0.7260202 0.0675029
vt 0.7260202 0.0675029
vt 0.7437092 0.0698242
vt 0.7260202 0.0698242
vt 0.7279576 0.0698242
vt 0.7431641 0.0698242
vt 0.7279576 0.0678234
vt 0.7279576 0.0678234
vt 0.7431641 0.0698242
vt 0.7431641 0.0551758
vt 0.7279576 0.0678234
vt 0.7431641 0.0551758
vt 0.7279576 0.0551758
vt 0.7431115 0.1016891
vt 0.7431016 0.1195040
vt 0.7279036 0.1041486
vt 0.7431115 0.1016891
vt 0.7279036 0.1041486
vt 0.7279050 0.1016891
vt 0.7279036 0.1041486
vt 0.7431016 0.1195040
vt 0.7279036 0.1192868
vt 0.9960938 0.0039062
vt 0.9960938 0.1210938
vt 0.9375000 0.1210938
vt 0.9960938 0.0039062
vt 0.9375000 0.1210938
vt 0.9375000 0.0039062
vt 0.9082031 0.0039062
vt 0.9082031 0.1210938
vt 0.9667969 0.1210938
vt 0.9082031 0.0039062
vt 0.9667969 0.1210938
vt 0.9667969 0.0039062
vt 0.9375000 0.0039062
vt 0.9375000 0.1210938
vt 0.9960938 0.1210938
vt 0.9375000 0.0039062
vt 0.9960938 0.1210938
vt 0.9960938 0.0039062
vt 0.9375000 0.0039062
vt 0.8789062 0.0039062
vt 0.8789062 0.1210938
vt 0.9375000 0.0039062
vt 0.8789062 0.1210938
vt 0.9375000 0.1210938
vt 0.9082031 0.0039062
vt 0.9667969 0.0039062
vt 0.9667969 0.1210938
vt 0.9082031 0.0039062
vt 0.9667969 0.1210938
vt 0.9082031 0.1210938
vt 0.8789062 0.0039062
vt 0.9375000 0.0039062
vt 0.9375000 0.1210938
vt 0.8789062 0.0039062
vt 0.9375000 0.1210938
vt 0.8789062 0.1210938
vt 0.8789062 0.0625000
vt 0.9082031 0.1210938
vt 0.9667969 0.1210938
vt 0.8789062 0.0625000
vt 0.9667969 0.1210938
vt 0.9960938 0.0625000
vt 0.8789062 0.0625000
vt 0.9960938 0.0625000
vt 0.9667969 0.0039062
vt 0.8789062 0.0625000
vt 0.9667969 0.0039062
vt 0.9082031 0.0039062
vt 0.8789062 0.0625000
vt 0.9082031 0.0039062
vt 0.9667969 0.0039062
vt 0.8789062 0.0625000
vt 0.9667969 0.0039062
vt 0.9960938 0.0625000
vt 0.8789062 0.0625000
vt 0.9960938 0.0625000
vt 0.9667969 0.1210938
vt 0.8789062 0.0625000
vt 0.9667969 0.1210938
vt 0.9082031 0.1210938
vn 0.4722214 0.1719682 -0.8645426
vn 0.4722215 0.1719682 -0.8645425
vn 0.4722217 0.0000000 -0.8814798
vn 0.4722214 0.1719682 -0.8645426
vn 0.4722217 0.0000000 -0.8814798
vn 0.4739294 0.1027323 -0.8745496
vn 0.4739294 0.1027323 -0.8745496
vn 0.4722217 0.0000000 -0.8814798
vn 0.4722217 0.0000000 -0.8814798
vn 0.4722215 0.3373275 -0.8143814
vn 0.4722215 0.3373275 -0.8143814
vn 0.4724661 0.3315524 -0.8166081
vn 0.4722215 0.3373275 -0.8143814
vn 0.4724661 0.3315524 -0.8166081
vn 0.4722215 0.1719682 -0.8645425
vn 0.4722215 0.3373275 -0.8143814
vn 0.4722215 0.1719682 -0.8645425
vn 0.4739293 0.2713743 -0.8377034
vn 0.4739293 0.2713743 -0.8377034
vn 0.4722215 0.1719682 -0.8645425
vn 0.4722214 0.1719682 -0.8645426
vn 0.4722216 0.4897242 -0.7329236
vn 0.4722216 0.4897242 -0.7329236
vn 0.4722987 0.3390711 -0.8136121
vn 0.4722216 0.4897242 -0.7329236
vn 0.4722987 0.3390711 -0.8136121
vn 0.4739294 0.4295879 -0.7686645
vn 0.4739294 0.4295879 -0.7686645
vn 0.4722987 0.3390711 -0.8136121
vn 0.4722215 0.3373275 -0.8143814
vn 0.4739294 0.4295879 -0.7686645
vn 0.4722215 0.3373275 -0.8143814
vn 0.4722215 0.3373275 -0.8143814
vn 0.4722216 0.4897242 -0.7329236
vn 0.4722216 0.4897242 -0.7329236
vn 0.4739543 0.5485362 -0.6888217
vn 0.4722215 -0.1719681 -0.8645425
vn 0.4722216 -0.1719682 -0.8645425
vn 0.4739716 -0.2649147 -0.8397447
vn 0.4722215 -0.1719681 -0.8645425
vn 0.4739716 -0.2649147 -0.8397447
vn 0.4739790 -0.2632330 -0.8402692
vn 0.4739716 -0.2649147 -0.8397447
vn 0.4722216 -0.1719682 -0.8645425
vn 0.4726547 -0.3267734 -0.8184233
vn 0.4722217 0.0000000 -0.8814798
vn 0.4722217 0.0000000 -0.8814798
vn 0.4739294 -0.1027322 -0.8745496
vn 0.4739294 -0.1027322 -0.8745496
vn 0.4722217 0.0000000 -0.8814798
vn 0.4722216 -0.1719682 -0.8645425
vn 0.4739294 -0.1027322 -0.8745496
vn 0.4722216 -0.1719682 -0.8645425
vn 0.4722215 -0.1719681 -0.8645425
vn 0.8479986 0.1033976 -0.5198147
vn 0.8479986 0.1033976 -0.5198147
vn 0.8486240 0.0865966 -0.5218604
vn 0.8479986 0.1033976 -0.5198147
vn 0.8486240 0.0865966 -0.5218604
vn 0.8479984 0.0000000 -0.5299988
vn 0.8479986 0.1033976 -0.5198147
vn 0.8479984 0.0000000 -0.5299988
vn 0.8479984 -0.0000000 -0.5299988
vn 0.8479986 0.1033976 -0.5198147
vn 0.8479986 0.1033976 -0.5198147
vn 0.8481576 0.1992832 -0.4908309
vn 0.8482797 -0.1963609 -0.4917966
vn 0.8479987 -0.1033977 -0.5198145
vn 0.8479987 -0.1033977 -0.5198145
vn 0.8482797 -0.1963609 -0.4917966
vn 0.8479987 -0.1033977 -0.5198145
vn 0.8482730 -0.1965272 -0.4917418
vn 0.8479987 -0.1033977 -0.5198145
vn 0.8479984 -0.0000000 -0.5299988
vn 0.8479984 0.0000000 -0.5299988
vn 0.8479987 -0.1033977 -0.5198145
vn 0.8479984 0.0000000 -0.5299988
vn 0.8486241 -0.0865967 -0.5218603
vn 0.8479987 -0.1033977 -0.5198145
vn 0.8486241 -0.0865967 -0.5218603
vn 0.8479987 -0.1033977 -0.5198145
vn 0.5773500 -0.5773510 -0.5773498
vn 0.5773500 -0.5773510 -0.5773498
vn 0.5773500 -0.5773510 -0.5773498
vn 0.5773499 0.5773510 -0.5773498
vn 0.5773499 0.5773510 -0.5773498
vn 0.5773499 0.5773510 -0.5773498
vn 0.0000000 -0.7071066 -0.7071069
vn 0.0000000 -0.7071066 -0.7071069
vn 0.0000000 -0.7071066 -0.7071069
vn 0.0000000 -0.7071066 -0.7071069
vn 0.0000000 -0.7071066 -0.7071069
vn 0.0000000 -0.7071066 -0.7071069
vn 0.0000000 -0.7071066 -0.7071069
vn 0.0000000 -0.7071066 -0.7071069
vn 0.0000000 -0.7071066 -0.7071069
vn 0.7071068 -0.7071068 0.0000000
vn 0.7071068 -0.7071068 0.0000000
vn 0.7071068 -0.7071068 0.0000000
vn 0.7071068 -0.7071068 0.0000000
vn 0.7071068 -0.7071068 0.0000000
vn 0.7071068 -0.7071068 0.0000000
vn 0.7071068 -0.7071068 0.0000000
vn 0.7071068 -0.7071068 0.0000000
vn 0.7071068 -0.7071068 0.0000000
vn 0.7071068 0.7071068 0.0000000
vn 0.7071068 0.7071068 0.0000000
vn 0.7071068 0.7071068 0.0000000
vn 0.7071068 0.7071068 0.0000000
vn 0.7071068 0.7071068 0.0000000
vn 0.7071068 0.7071068 0.0000000
vn 0.7071068 0.7071068 0.0000000
vn 0.7071068 0.7071068 0.0000000
vn 0.7071068 0.7071068 0.0000000
vn 0.0000000 0.7071066 -0.7071069
vn 0.0000000 0.7071066 -0.7071069
vn 0.0000000 0.7071066 -0.7071069
vn 0.0000000 0.7071066 -0.7071069
vn 0.0000000 0.7071066 -0.7071069
vn 0.0000000 0.7071066 -0.7071069
vn 0.0000000 0.7071066 -0.7071069
vn 0.0000000 0.7071066 -0.7071069
vn 0.0000000 0.7071066 -0.7071069
vn 0.7071074 0.0000000 -0.7071062
vn 0.7071074 0.0000000 -0.7071062
vn 0.7071074 0.0000000 -0.7071062
vn 0.7071074 0.0000000 -0.7071062
vn 0.7071074 0.0000000 -0.7071062
vn 0.7071074 0.0000000 -0.7071062
vn 0.0000000 -1.0000000 0.0000000
vn 0.0000000 -1.0000000 0.0000000
vn 0.0000000 -1.0000000 0.0000000
vn 0.0000000 -1.0000000 0.0000000
vn 0.0000000 -1.0000000 0.0000000
vn 0.0000000 -1.0000000 0.0000000
vn 0.0000000 -1.0000000 0.0000000
vn 0.0000000 -1.0000000 0.0000000
vn 0.0000000 -1.0000000 0.0000000
vn 1.0000000 0.0000000 0.0000000
vn 1.0000000 0.0000000 -0.0000000
vn 1.0000000 0.0000000 -0.0000000
vn 1.0000000 0.0000000 0.0000000
vn 1.0000000 0.0000000 -0.0000000
vn 1.0000000 0.0000000 0.0000000
vn 1.0000000 0.0000000 0.0000000
vn 1.0000000 0.0000000 -0.0000000
vn 1.0000000 0.0000000 0.0000000
vn 0.0000000 0.0000000 -1.0000000
vn 0.0000000 0.0000000 -1.0000000
vn 0.0000000 0.0000000 -1.0000000
vn 0.0000000 0.0000000 -1.0000000
vn 0.0000000 0.0000000 -1.0000000
vn 0.0000000 0.0000000 -1.0000000
vn 0.0000000 0.0000000 -1.0000000
vn 0.0000000 0.0000000 -1.0000000
vn 0.0000000 0.0000000 -1.0000000
vn 0.0000000 1.0000000 0.0000000
vn 0.0000000 1.0000000 0.0000000
vn 0.0000000 1.0000000 0.0000000
vn 0.0000000 1.0000000 0.0000000
vn 0.0000000 1.0000000 0.0000000
vn 0.0000000 1.0000000 0.0000000
vn 0.0000000 1.0000000 0.0000000
vn 0.0000000 1.0000000 0.0000000
vn 0.0000000 1.0000000 0.0000000
vn -0.8660254 0.0000000 0.5000001
vn -0.8660254 0.0000000 0.5000001
vn -0.8660254 0.0000000 0.5000001
vn -0.8660254 0.0000000 0.5000001
vn -0.8660254 0.0000000 0.5000001
vn -0.8660254 0.0000000 0.5000001
vn 0.0000002 0.0000000 1.0000000
vn 0.0000002 0.0000000 1.0000000
vn 0.0000002 0.0000000 1.0000000
vn 0.0000002 0.0000000 1.0000000
vn 0.0000002 0.0000000 1.0000000
vn 0.0000002 0.0000000 1.0000000
vn 0.8660255 0.0000000 0.4999999
vn 0.8660255 0.0000000 0.4999999
vn 0.8660255 0.0000000 0.4999999
vn 0.8660255 0.0000000 0.4999999
vn 0.8660255 0.0000000 0.4999999
vn 0.8660255 0.0000000 0.4999999
vn 0.8660254 0.0000000 -0.5000001
vn 0.8660254 0.0000000 -0.5000001
vn 0.8660254 0.0000000 -0.5000001
vn 0.8660254 0.0000000 -0.5000001
vn 0.8660254 0.0000000 -0.5000001
vn 0.8660254 0.0000000 -0.5000001
vn -0.0000002 0.0000000 -1.0000000
vn -0.0000002 0.0000000 -1.0000000
vn -0.0000002 0.0000000 -1.0000000
vn -0.0000002 0.0000000 -1.0000000
vn -0.0000002 0.0000000 -1.0000000
vn -0.0000002 0.0000000 -1.0000000
vn -0.8660255 0.0000000 -0.4999999
vn -0.8660255 0.0000000 -0.4999999
vn -0.8660255 0.0000000 -0.4999999
vn -0.8660255 0.0000000 -0.4999999
vn -0.8660255 0.0000000 -0.4999999
vn -0.8660255 0.0000000 -0.4999999
vn 0.0000000 -1.0000000 0.0000000
vn 0.0000000 -1.0000000 0.0000000
vn 0.0000000 -1.0000000 0.0000000
vn 0.0000000 -1.0000000 0.0000000
vn 0.0000000 -1.0000000 0.0000000
vn 0.0000000 -1.0000000 0.0000000
vn 0.0000000 -1.0000000 0.0000000
vn 0.0000000 -1.0000000 0.0000000
vn 0.0000000 -1.0000000 0.0000000
vn 0.0000000 -1.0000000 0.0000000
vn 0.0000000 -1.0000000 0.0000000
vn 0.0000000 -1.0000000 0.0000000
vn 0.0000000 1.0000000 0.0000000
vn 0.0000000 1.0000000 0.0000000
vn 0.0000000 1.0000000 0.0000000
vn 0.0000000 1.0000000 0.0000000
vn 0.0000000 1.0000000 0.0000000
vn 0.0000000 1.0000000 0.0000000
vn 0.0000000 1.0000000 0.0000000
vn 0.0000000 1.0000000 0.0000000
vn 0.0000000 1.0000000 0.0000000
vn 0.0000000 1.0000000 0.0000000
vn 0.0000000 1.0000000 0.0000000
vn 0.0000000 1.0000000 0.0000000
f 1/1/1 2/2/2 3/3/3
f 4/4/4 5/5/5 6/6/6
f 7/7/7 8/8/8 9/9/9
f 10/10/10 11/11/11 12/12/12
f 13/13/13 14/14/14 15/15/15
f 16/16/16 17/17/17 18/18/18
f 19/19/19 20/20/20 21/21/21
f 22/22/22 23/23/23 24/24/24
f 25/25/25 26/26/26 27/27/27
f 28/28/28 29/29/29 30/30/30
f 31/31/31 32/32/32 33/33/33
f 34/34/34 35/35/35 36/36/36
f 37/37/37 38/38/38 39/39/39
f 40/40/40 41/41/41 42/42/42
f 43/43/43 44/44/44 45/45/45
f 46/46/46 47/47/47 48/48/48
f 49/49/49 50/50/50 51/51/51
f 52/52/52 53/53/53 54/54/54
f 55/55/55 56/56/56 57/57/57
f 58/58/58 59/59/59 60/60/60
f 61/61/61 62/62/62 63/63/63
f 64/64/64 65/65/65 66/66/66
f 67/67/67 68/68/68 69/69/69
f 70/70/70 71/71/71 72/72/72
f 73/73/73 74/74/74 75/75/75
f 76/76/76 77/77/77 78/78/78
f 79/79/79 80/80/80 81/81/81
f 82/82/82 83/83/83 84/84/84
f 85/85/85 86/86/86 87/87/87
f 88/88/88 89/89/89 90/90/90
f 91/91/91 92/92/92 93/93/93
f 94/94/94 95/95/95 96/96/96
f 97/97/97 98/98/98 99/99/99
f 100/100/100 101/101/101 102/102/102
f 103/103/103 104/104/104 105/105/105
f 106/106/106 107/107/107 108/108/108
f 109/109/109 110/110/110 111/111/111
f 112/112/112 113/113/113 114/114/114
f 115/115/115 116/116/116 117/117/117
f 118/118/118 119/119/119 120/120/120
f 121/121/121 122/122/122 123/123/123
f 124/124/124 125/125/125 126/126/126
f 127/127/127 128/128/128 129/129/129
f 130/130/130 131/131/131 132/132/132
f 133/133/133 134/134/134 135/135/135
f 136/136/136 137/137/137 138/138/138
f 139/139/139 140/140/140 141/141/141
f 142/142/142 143/143/143 144/144/144
f 145/145/145 146/146/146 147/147/147
f 148/148/148 149/149/149 150/150/150
f 151/151/151 152/152/152 153/153/153
f 154/154/154 155/155/155 156/156/156
f 157/157/157 158/158/158 159/159/159
f 160/160/160 161/161/161 162/162/162
f 163/163/163 164/164/164 165/165/165
f 166/166/166 167/167/167 168/168/168
f 169/169/169 170/170/170 171/171/171
f 172/172/172 173/173/173 174/174/174
f 175/175/175 176/176/176 177/177/177
f 178/178/178 179/179/179 180/180/180
f 181/181/181 182/182/182 183/183/183
f 184/184/184 185/185/185 186/186/186
f 187/187/187 188/188/188 189/189/189
f 190/190/190 191/191/191 192/192/192
f 193/193/193 194/194/194 195/195/195
f 196/196/196 197/197/197 198/198/198
f 199/199/199 200/200/200 201/201/201
f 202/202/202 203/203/203 204/204/204
f 205/205/205 206/206/206 207/207/207
f 208/208/208 209/209/209 210/210/210
f 211/211/211 212/212/212 213/213/213
f 214/214/214 215/215/215 216/216/216
f 217/217/217 218/218/218 219/219/219
f 220/220/220 221/221/221 222/222/222
f 223/223/223 224/224/224 225/225/225
