# Authored in Blender; exported by tools-export-modern.py
mtllib materials.mtl
s off
v 0.544085217 0.000000000 0.050000191
v 0.581987441 0.000000000 0.050000191
v 0.339882374 0.148362160 0.050000191
v 0.000000000 0.258796496 0.050000191
v 0.071681499 0.259454727 0.050000191
v 0.000000000 0.276663847 0.050000191
v 0.000000000 0.219919114 0.050000191
v 0.431615563 0.000000000 0.050000191
v 0.000000000 0.116626978 0.050000191
v 0.116626978 0.000000000 0.050000191
v 0.000000000 0.000000000 0.050000191
v 0.393691367 0.115387970 0.000000000
v 0.339882374 0.148362160 0.000000000
v 0.581987441 0.000000000 0.000000000
v 0.129986255 0.235304079 0.000000000
v 0.071681499 0.259454727 0.000000000
v 0.000000000 0.276663847 0.000000000
vt 0.500000000 0.500000000
vn 0.000000000 0.000000000 1.000000000
vn 0.522498522 0.852640190 0.000000000
vn 0.382683808 0.923879377 0.000000000
vn 0.233444271 0.972370183 -0.000000000
usemtl mat_5
f 1/1/1 2/1/1 3/1/1
f 4/1/1 3/1/1 5/1/1 6/1/1
f 7/1/1 8/1/1 1/1/1
f 7/1/1 1/1/1 3/1/1
f 7/1/1 3/1/1 4/1/1
f 9/1/1 10/1/1 8/1/1 7/1/1
f 11/1/1 10/1/1 9/1/1
f 12/1/2 13/1/2 3/1/2
f 14/1/2 12/1/2 3/1/2 2/1/2
f 15/1/3 16/1/3 5/1/3
f 13/1/3 15/1/3 5/1/3 3/1/3
f 16/1/4 17/1/4 6/1/4 5/1/4
