# metre = block; Y up; per-cell coordinates; atlas UVs preserved
mtllib materials.mtl
o cell_10
usemtl pump_atlas
v 0.7800000 0.2000000 0.0000000
v 0.7874963 0.2000000 0.0569402
v 0.7874963 0.5500000 0.0569402
v 0.7800000 0.2000000 0.0000000
v 0.7874963 0.5500000 0.0569402
v 0.7800000 0.5500000 0.0000000
v 0.7874963 0.2000000 0.0569402
v 0.8094744 0.2000000 0.1100000
v 0.8094744 0.5500000 0.1100000
v 0.7874963 0.2000000 0.0569402
v 0.8094744 0.5500000 0.1100000
v 0.7874963 0.5500000 0.0569402
v 0.8094744 0.2000000 0.1100000
v 0.8444365 0.2000000 0.1555635
v 0.8444365 0.5500000 0.1555635
v 0.8094744 0.2000000 0.1100000
v 0.8444365 0.5500000 0.1555635
v 0.8094744 0.5500000 0.1100000
v 0.8444365 0.2000000 0.1555635
v 0.8900000 0.2000000 0.1905256
v 0.8900000 0.5500000 0.1905256
v 0.8444365 0.2000000 0.1555635
v 0.8900000 0.5500000 0.1905256
v 0.8444365 0.5500000 0.1555635
v 0.8900000 0.2000000 0.1905256
v 0.9430598 0.2000000 0.2125037
v 0.9430598 0.5500000 0.2125037
v 0.8900000 0.2000000 0.1905256
v 0.9430598 0.5500000 0.2125037
v 0.8900000 0.5500000 0.1905256
v 0.9430598 0.2000000 0.2125037
v 1.0000000 0.2000000 0.2200000
v 1.0000000 0.5500000 0.2200000
v 0.9430598 0.2000000 0.2125037
v 1.0000000 0.5500000 0.2200000
v 0.9430598 0.5500000 0.2125037
v 0.7200000 0.6000000 0.0000000
v 0.7800000 0.5500000 0.0000000
v 0.7874963 0.5500000 0.0569402
v 0.7200000 0.6000000 0.0000000
v 0.7874963 0.5500000 0.0569402
v 0.7295408 0.6000000 0.0724693
v 0.7295408 0.6000000 0.0724693
v 0.7874963 0.5500000 0.0569402
v 0.8094744 0.5500000 0.1100000
v 0.7295408 0.6000000 0.0724693
v 0.8094744 0.5500000 0.1100000
v 0.7575129 0.6000000 0.1400000
v 0.7575129 0.6000000 0.1400000
v 0.8094744 0.5500000 0.1100000
v 0.8444365 0.5500000 0.1555635
v 0.7575129 0.6000000 0.1400000
v 0.8444365 0.5500000 0.1555635
v 0.8020101 0.6000000 0.1979899
v 0.8020101 0.6000000 0.1979899
v 0.8444365 0.5500000 0.1555635
v 0.8900000 0.5500000 0.1905256
v 0.8020101 0.6000000 0.1979899
v 0.8900000 0.5500000 0.1905256
v 0.8600000 0.6000000 0.2424871
v 0.8600000 0.6000000 0.2424871
v 0.8900000 0.5500000 0.1905256
v 0.9430598 0.5500000 0.2125037
v 0.8600000 0.6000000 0.2424871
v 0.9430598 0.5500000 0.2125037
v 0.9275307 0.6000000 0.2704592
v 0.9275307 0.6000000 0.2704592
v 0.9430598 0.5500000 0.2125037
v 1.0000000 0.5500000 0.2200000
v 0.9275307 0.6000000 0.2704592
v 1.0000000 0.5500000 0.2200000
v 1.0000000 0.6000000 0.2800000
v 0.7200000 0.6000000 0.0000000
v 0.7295408 0.6000000 0.0724693
v 0.7295408 0.9000000 0.0724693
v 0.7200000 0.6000000 0.0000000
v 0.7295408 0.9000000 0.0724693
v 0.7200000 0.9000000 0.0000000
v 0.7295408 0.6000000 0.0724693
v 0.7575129 0.6000000 0.1400000
v 0.7575129 0.9000000 0.1400000
v 0.7295408 0.6000000 0.0724693
v 0.7575129 0.9000000 0.1400000
v 0.7295408 0.9000000 0.0724693
v 0.7575129 0.6000000 0.1400000
v 0.8020101 0.6000000 0.1979899
v 0.8020101 0.9000000 0.1979899
v 0.7575129 0.6000000 0.1400000
v 0.8020101 0.9000000 0.1979899
v 0.7575129 0.9000000 0.1400000
v 0.8020101 0.6000000 0.1979899
v 0.8600000 0.6000000 0.2424871
v 0.8600000 0.9000000 0.2424871
v 0.8020101 0.6000000 0.1979899
v 0.8600000 0.9000000 0.2424871
v 0.8020101 0.9000000 0.1979899
v 0.8600000 0.6000000 0.2424871
v 0.9275307 0.6000000 0.2704592
v 0.9275307 0.9000000 0.2704592
v 0.8600000 0.6000000 0.2424871
v 0.9275307 0.9000000 0.2704592
v 0.8600000 0.9000000 0.2424871
v 0.9275307 0.6000000 0.2704592
v 1.0000000 0.6000000 0.2800000
v 1.0000000 0.9000000 0.2800000
v 0.9275307 0.6000000 0.2704592
v 1.0000000 0.9000000 0.2800000
v 0.9275307 0.9000000 0.2704592
v 0.6800000 0.9800000 0.0000000
v 0.7200000 0.9000000 0.0000000
v 0.7295408 0.9000000 0.0724693
v 0.6800000 0.9800000 0.0000000
v 0.7295408 0.9000000 0.0724693
v 0.6909038 0.9800000 0.0828221
v 0.6909038 0.9800000 0.0828221
v 0.7295408 0.9000000 0.0724693
v 0.7575129 0.9000000 0.1400000
v 0.6909038 0.9800000 0.0828221
v 0.7575129 0.9000000 0.1400000
v 0.7228719 0.9800000 0.1600000
v 0.7228719 0.9800000 0.1600000
v 0.7575129 0.9000000 0.1400000
v 0.8020101 0.9000000 0.1979899
v 0.7228719 0.9800000 0.1600000
v 0.8020101 0.9000000 0.1979899
v 0.7737258 0.9800000 0.2262742
v 0.7737258 0.9800000 0.2262742
v 0.8020101 0.9000000 0.1979899
v 0.8600000 0.9000000 0.2424871
v 0.7737258 0.9800000 0.2262742
v 0.8600000 0.9000000 0.2424871
v 0.8400000 0.9800000 0.2771281
v 0.8400000 0.9800000 0.2771281
v 0.8600000 0.9000000 0.2424871
v 0.9275307 0.9000000 0.2704592
v 0.8400000 0.9800000 0.2771281
v 0.9275307 0.9000000 0.2704592
v 0.9171779 0.9800000 0.3090962
v 0.9171779 0.9800000 0.3090962
v 0.9275307 0.9000000 0.2704592
v 1.0000000 0.9000000 0.2800000
v 0.9171779 0.9800000 0.3090962
v 1.0000000 0.9000000 0.2800000
v 1.0000000 0.9800000 0.3200000
v 0.7800000 0.2000000 0.0000000
v 1.0000000 0.2000000 0.0000000
v 1.0000000 0.2000000 0.0289636
v 0.7800000 0.2000000 0.0000000
v 1.0000000 0.2000000 0.0289636
v 1.0000000 0.2000000 0.0589488
v 0.7800000 0.2000000 0.0000000
v 1.0000000 0.2000000 0.0589488
v 1.0000000 0.2000000 0.0911270
v 0.7800000 0.2000000 0.0000000
v 1.0000000 0.2000000 0.0911270
v 1.0000000 0.2000000 0.1270171
v 0.7800000 0.2000000 0.0000000
v 1.0000000 0.2000000 0.1270171
v 1.0000000 0.2000000 0.1688119
v 0.7800000 0.2000000 0.0000000
v 1.0000000 0.2000000 0.1688119
v 1.0000000 0.2000000 0.2200000
v 0.7800000 0.2000000 0.0000000
v 1.0000000 0.2000000 0.2200000
v 0.9430598 0.2000000 0.2125037
v 0.7800000 0.2000000 0.0000000
v 0.9430598 0.2000000 0.2125037
v 0.8900000 0.2000000 0.1905256
v 0.7800000 0.2000000 0.0000000
v 0.8900000 0.2000000 0.1905256
v 0.8444365 0.2000000 0.1555635
v 0.7800000 0.2000000 0.0000000
v 0.8444365 0.2000000 0.1555635
v 0.8094744 0.2000000 0.1100000
v 0.7800000 0.2000000 0.0000000
v 0.8094744 0.2000000 0.1100000
v 0.7874963 0.2000000 0.0569402
v 0.6800000 0.9800000 0.0000000
v 0.6909038 0.9800000 0.0828221
v 0.7228719 0.9800000 0.1600000
v 0.6800000 0.9800000 0.0000000
v 0.7228719 0.9800000 0.1600000
v 0.7737258 0.9800000 0.2262742
v 0.6800000 0.9800000 0.0000000
v 0.7737258 0.9800000 0.2262742
v 0.8400000 0.9800000 0.2771281
v 0.6800000 0.9800000 0.0000000
v 0.8400000 0.9800000 0.2771281
v 0.9171779 0.9800000 0.3090962
v 0.6800000 0.9800000 0.0000000
v 0.9171779 0.9800000 0.3090962
v 1.0000000 0.9800000 0.3200000
v 0.6800000 0.9800000 0.0000000
v 1.0000000 0.9800000 0.3200000
v 1.0000000 0.9800000 0.2455446
v 0.6800000 0.9800000 0.0000000
v 1.0000000 0.9800000 0.2455446
v 1.0000000 0.9800000 0.1847521
v 0.6800000 0.9800000 0.0000000
v 1.0000000 0.9800000 0.1847521
v 1.0000000 0.9800000 0.1325484
v 0.6800000 0.9800000 0.0000000
v 1.0000000 0.9800000 0.1325484
v 1.0000000 0.9800000 0.0857437
v 0.6800000 0.9800000 0.0000000
v 1.0000000 0.9800000 0.0857437
v 1.0000000 0.9800000 0.0421288
v 0.6800000 0.9800000 0.0000000
v 1.0000000 0.9800000 0.0421288
v 1.0000000 0.9800000 0.0000000
v 0.4500000 0.8500000 0.0000000
v 0.4687408 0.8500000 0.1423505
v 0.4687408 1.0000000 0.1423505
v 0.4500000 0.8500000 0.0000000
v 0.4687408 1.0000000 0.1423505
v 0.4500000 1.0000000 0.0000000
v 0.4687408 0.8500000 0.1423505
v 0.5236860 0.8500000 0.2750000
v 0.5236860 1.0000000 0.2750000
v 0.4687408 0.8500000 0.1423505
v 0.5236860 1.0000000 0.2750000
v 0.4687408 1.0000000 0.1423505
v 0.5236860 0.8500000 0.2750000
v 0.6110913 0.8500000 0.3889087
v 0.6110913 1.0000000 0.3889087
v 0.5236860 0.8500000 0.2750000
v 0.6110913 1.0000000 0.3889087
v 0.5236860 1.0000000 0.2750000
v 0.6110913 0.8500000 0.3889087
v 0.7250000 0.8500000 0.4763140
v 0.7250000 1.0000000 0.4763140
v 0.6110913 0.8500000 0.3889087
v 0.7250000 1.0000000 0.4763140
v 0.6110913 1.0000000 0.3889087
v 0.7250000 0.8500000 0.4763140
v 0.8576495 0.8500000 0.5312592
v 0.8576495 1.0000000 0.5312592
v 0.7250000 0.8500000 0.4763140
v 0.8576495 1.0000000 0.5312592
v 0.7250000 1.0000000 0.4763140
v 0.8576495 0.8500000 0.5312592
v 1.0000000 0.8500000 0.5500000
v 1.0000000 1.0000000 0.5500000
v 0.8576495 0.8500000 0.5312592
v 1.0000000 1.0000000 0.5500000
v 0.8576495 1.0000000 0.5312592
v 0.6370000 0.8500000 0.0000000
v 0.6370000 1.0000000 0.0000000
v 0.6493689 1.0000000 0.0939513
v 0.6370000 0.8500000 0.0000000
v 0.6493689 1.0000000 0.0939513
v 0.6493689 0.8500000 0.0939513
v 0.6493689 0.8500000 0.0939513
v 0.6493689 1.0000000 0.0939513
v 0.6856328 1.0000000 0.1815000
v 0.6493689 0.8500000 0.0939513
v 0.6856328 1.0000000 0.1815000
v 0.6856328 0.8500000 0.1815000
v 0.6856328 0.8500000 0.1815000
v 0.6856328 1.0000000 0.1815000
v 0.7433202 1.0000000 0.2566798
v 0.6856328 0.8500000 0.1815000
v 0.7433202 1.0000000 0.2566798
v 0.7433202 0.8500000 0.2566798
v 0.7433202 0.8500000 0.2566798
v 0.7433202 1.0000000 0.2566798
v 0.8185000 1.0000000 0.3143672
v 0.7433202 0.8500000 0.2566798
v 0.8185000 1.0000000 0.3143672
v 0.8185000 0.8500000 0.3143672
v 0.8185000 0.8500000 0.3143672
v 0.8185000 1.0000000 0.3143672
v 0.9060487 1.0000000 0.3506311
v 0.8185000 0.8500000 0.3143672
v 0.9060487 1.0000000 0.3506311
v 0.9060487 0.8500000 0.3506311
v 0.9060487 0.8500000 0.3506311
v 0.9060487 1.0000000 0.3506311
v 1.0000000 1.0000000 0.3630000
v 0.9060487 0.8500000 0.3506311
v 1.0000000 1.0000000 0.3630000
v 1.0000000 0.8500000 0.3630000
v 0.4500000 0.8500000 0.0000000
v 0.6370000 0.8500000 0.0000000
v 0.6493689 0.8500000 0.0939513
v 0.4500000 0.8500000 0.0000000
v 0.6493689 0.8500000 0.0939513
v 0.4687408 0.8500000 0.1423505
v 0.4687408 0.8500000 0.1423505
v 0.6493689 0.8500000 0.0939513
v 0.6856328 0.8500000 0.1815000
v 0.4687408 0.8500000 0.1423505
v 0.6856328 0.8500000 0.1815000
v 0.5236860 0.8500000 0.2750000
v 0.5236860 0.8500000 0.2750000
v 0.6856328 0.8500000 0.1815000
v 0.7433202 0.8500000 0.2566798
v 0.5236860 0.8500000 0.2750000
v 0.7433202 0.8500000 0.2566798
v 0.6110913 0.8500000 0.3889087
v 0.6110913 0.8500000 0.3889087
v 0.7433202 0.8500000 0.2566798
v 0.8185000 0.8500000 0.3143672
v 0.6110913 0.8500000 0.3889087
v 0.8185000 0.8500000 0.3143672
v 0.7250000 0.8500000 0.4763140
v 0.7250000 0.8500000 0.4763140
v 0.8185000 0.8500000 0.3143672
v 0.9060487 0.8500000 0.3506311
v 0.7250000 0.8500000 0.4763140
v 0.9060487 0.8500000 0.3506311
v 0.8576495 0.8500000 0.5312592
v 0.8576495 0.8500000 0.5312592
v 0.9060487 0.8500000 0.3506311
v 1.0000000 0.8500000 0.3630000
v 0.8576495 0.8500000 0.5312592
v 1.0000000 0.8500000 0.3630000
v 1.0000000 0.8500000 0.5500000
v 0.6136297 0.0000000 0.1035276
v 0.6136297 0.1100000 0.1035276
v 0.6122790 0.0000000 0.0932681
v 0.6122790 0.0000000 0.0932681
v 0.6136297 0.1100000 0.1035276
v 0.6000000 0.1100000 0.0000000
v 0.6122790 0.0000000 0.0932681
v 0.6000000 0.1100000 0.0000000
v 0.6000000 0.0000000 0.0000000
v 0.6535898 0.0000000 0.2000000
v 0.6535898 0.1100000 0.2000000
v 0.6496298 0.0000000 0.1904397
v 0.6496298 0.0000000 0.1904397
v 0.6535898 0.1100000 0.2000000
v 0.6136297 0.1100000 0.1035276
v 0.6496298 0.0000000 0.1904397
v 0.6136297 0.1100000 0.1035276
v 0.6136297 0.0000000 0.1035276
v 0.7171573 0.0000000 0.2828427
v 0.7171573 0.1100000 0.2828427
v 0.7108578 0.0000000 0.2746331
v 0.7108578 0.0000000 0.2746331
v 0.7171573 0.1100000 0.2828427
v 0.6535898 0.1100000 0.2000000
v 0.7108578 0.0000000 0.2746331
v 0.6535898 0.1100000 0.2000000
v 0.6535898 0.0000000 0.2000000
v 0.8000000 0.0000000 0.3464102
v 0.8000000 0.1100000 0.3464102
v 0.7917904 0.0000000 0.3401107
v 0.7917904 0.0000000 0.3401107
v 0.8000000 0.1100000 0.3464102
v 0.7171573 0.1100000 0.2828427
v 0.7917904 0.0000000 0.3401107
v 0.7171573 0.1100000 0.2828427
v 0.7171573 0.0000000 0.2828427
v 0.8964724 0.0000000 0.3863703
v 0.8964724 0.1100000 0.3863703
v 0.8869121 0.0000000 0.3824103
v 0.8869121 0.0000000 0.3824103
v 0.8964724 0.1100000 0.3863703
v 0.8000000 0.1100000 0.3464102
v 0.8869121 0.0000000 0.3824103
v 0.8000000 0.1100000 0.3464102
v 0.8000000 0.0000000 0.3464102
v 1.0000000 0.0000000 0.4000000
v 1.0000000 0.1100000 0.4000000
v 0.9897405 0.0000000 0.3986493
v 0.9897405 0.0000000 0.3986493
v 1.0000000 0.1100000 0.4000000
v 0.8964724 0.1100000 0.3863703
v 0.9897405 0.0000000 0.3986493
v 0.8964724 0.1100000 0.3863703
v 0.8964724 0.0000000 0.3863703
v 0.6000000 0.1100000 0.0000000
v 0.6136297 0.1100000 0.1035276
v 0.7005630 0.2200000 0.0802339
v 0.6000000 0.1100000 0.0000000
v 0.7005630 0.2200000 0.0802339
v 0.6900000 0.2200000 0.0000000
v 0.6136297 0.1100000 0.1035276
v 0.6535898 0.1100000 0.2000000
v 0.7315321 0.2200000 0.1550000
v 0.6136297 0.1100000 0.1035276
v 0.7315321 0.2200000 0.1550000
v 0.7005630 0.2200000 0.0802339
v 0.6535898 0.1100000 0.2000000
v 0.7171573 0.1100000 0.2828427
v 0.7807969 0.2200000 0.2192031
v 0.6535898 0.1100000 0.2000000
v 0.7807969 0.2200000 0.2192031
v 0.7315321 0.2200000 0.1550000
v 0.7171573 0.1100000 0.2828427
v 0.8000000 0.1100000 0.3464102
v 0.8450000 0.2200000 0.2684679
v 0.7171573 0.1100000 0.2828427
v 0.8450000 0.2200000 0.2684679
v 0.7807969 0.2200000 0.2192031
v 0.8000000 0.1100000 0.3464102
v 0.8964724 0.1100000 0.3863703
v 0.9197661 0.2200000 0.2994370
v 0.8000000 0.1100000 0.3464102
v 0.9197661 0.2200000 0.2994370
v 0.8450000 0.2200000 0.2684679
v 0.8964724 0.1100000 0.3863703
v 1.0000000 0.1100000 0.4000000
v 1.0000000 0.2200000 0.3100000
v 0.8964724 0.1100000 0.3863703
v 1.0000000 0.2200000 0.3100000
v 0.9197661 0.2200000 0.2994370
v 0.6900000 0.2200000 0.0000000
v 0.7005630 0.2200000 0.0802339
v 0.7315321 0.2200000 0.1550000
v 0.6900000 0.2200000 0.0000000
v 0.7315321 0.2200000 0.1550000
v 0.7807969 0.2200000 0.2192031
v 0.6900000 0.2200000 0.0000000
v 0.7807969 0.2200000 0.2192031
v 0.8450000 0.2200000 0.2684679
v 0.6900000 0.2200000 0.0000000
v 0.8450000 0.2200000 0.2684679
v 0.9197661 0.2200000 0.2994370
v 0.6900000 0.2200000 0.0000000
v 0.9197661 0.2200000 0.2994370
v 1.0000000 0.2200000 0.3100000
v 0.6900000 0.2200000 0.0000000
v 1.0000000 0.2200000 0.3100000
v 1.0000000 0.2200000 0.2378714
v 0.6900000 0.2200000 0.0000000
v 1.0000000 0.2200000 0.2378714
v 1.0000000 0.2200000 0.1789786
v 0.6900000 0.2200000 0.0000000
v 1.0000000 0.2200000 0.1789786
v 1.0000000 0.2200000 0.1284062
v 0.6900000 0.2200000 0.0000000
v 1.0000000 0.2200000 0.1284062
v 1.0000000 0.2200000 0.0830642
v 0.6900000 0.2200000 0.0000000
v 1.0000000 0.2200000 0.0830642
v 1.0000000 0.2200000 0.0408123
v 0.6900000 0.2200000 0.0000000
v 1.0000000 0.2200000 0.0408123
v 1.0000000 0.2200000 0.0000000
v 0.5894815 0.0000000 0.1099981
v 0.5894815 0.0150000 0.1099981
v 0.5861396 0.0000000 0.0846139
v 0.5861396 0.0000000 0.0846139
v 0.5894815 0.0150000 0.1099981
v 0.5750000 0.0150000 0.0000000
v 0.5861396 0.0000000 0.0846139
v 0.5750000 0.0150000 0.0000000
v 0.5750000 0.0000000 0.0000000
v 0.6319392 0.0000000 0.2125000
v 0.6319392 0.0150000 0.2125000
v 0.6221413 0.0000000 0.1888457
v 0.6221413 0.0000000 0.1888457
v 0.6319392 0.0150000 0.2125000
v 0.5894815 0.0150000 0.1099981
v 0.6221413 0.0000000 0.1888457
v 0.5894815 0.0150000 0.1099981
v 0.5894815 0.0000000 0.1099981
v 0.6994796 0.0000000 0.3005204
v 0.6994796 0.0150000 0.3005204
v 0.6838934 0.0000000 0.2802080
v 0.6838934 0.0000000 0.2802080
v 0.6994796 0.0150000 0.3005204
v 0.6319392 0.0150000 0.2125000
v 0.6838934 0.0000000 0.2802080
v 0.6319392 0.0150000 0.2125000
v 0.6319392 0.0000000 0.2125000
v 0.7875000 0.0000000 0.3680608
v 0.7875000 0.0150000 0.3680608
v 0.7671876 0.0000000 0.3524746
v 0.7671876 0.0000000 0.3524746
v 0.7875000 0.0150000 0.3680608
v 0.6994796 0.0150000 0.3005204
v 0.7671876 0.0000000 0.3524746
v 0.6994796 0.0150000 0.3005204
v 0.6994796 0.0000000 0.3005204
v 0.8900019 0.0000000 0.4105185
v 0.8900019 0.0150000 0.4105185
v 0.8663476 0.0000000 0.4007206
v 0.8663476 0.0000000 0.4007206
v 0.8900019 0.0150000 0.4105185
v 0.7875000 0.0150000 0.3680608
v 0.8663476 0.0000000 0.4007206
v 0.7875000 0.0150000 0.3680608
v 0.7875000 0.0000000 0.3680608
v 1.0000000 0.0000000 0.4250000
v 1.0000000 0.0150000 0.4250000
v 0.9746158 0.0000000 0.4216581
v 0.9746158 0.0000000 0.4216581
v 1.0000000 0.0150000 0.4250000
v 0.8900019 0.0150000 0.4105185
v 0.9746158 0.0000000 0.4216581
v 0.8900019 0.0150000 0.4105185
v 0.8900019 0.0000000 0.4105185
v 0.5750000 0.0150000 0.0000000
v 0.5894815 0.0150000 0.1099981
v 0.6474371 0.0150000 0.0944690
v 0.5750000 0.0150000 0.0000000
v 0.6474371 0.0150000 0.0944690
v 0.6350000 0.0150000 0.0000000
v 0.5894815 0.0150000 0.1099981
v 0.6319392 0.0150000 0.2125000
v 0.6839007 0.0150000 0.1825000
v 0.5894815 0.0150000 0.1099981
v 0.6839007 0.0150000 0.1825000
v 0.6474371 0.0150000 0.0944690
v 0.6319392 0.0150000 0.2125000
v 0.6994796 0.0150000 0.3005204
v 0.7419060 0.0150000 0.2580940
v 0.6319392 0.0150000 0.2125000
v 0.7419060 0.0150000 0.2580940
v 0.6839007 0.0150000 0.1825000
v 0.6994796 0.0150000 0.3005204
v 0.7875000 0.0150000 0.3680608
v 0.8175000 0.0150000 0.3160993
v 0.6994796 0.0150000 0.3005204
v 0.8175000 0.0150000 0.3160993
v 0.7419060 0.0150000 0.2580940
v 0.7875000 0.0150000 0.3680608
v 0.8900019 0.0150000 0.4105185
v 0.9055310 0.0150000 0.3525629
v 0.7875000 0.0150000 0.3680608
v 0.9055310 0.0150000 0.3525629
v 0.8175000 0.0150000 0.3160993
v 0.8900019 0.0150000 0.4105185
v 1.0000000 0.0150000 0.4250000
v 1.0000000 0.0150000 0.3650000
v 0.8900019 0.0150000 0.4105185
v 1.0000000 0.0150000 0.3650000
v 0.9055310 0.0150000 0.3525629
v 0.6350000 0.0000000 0.0000000
v 0.6350000 0.0150000 0.0000000
v 0.6474371 0.0150000 0.0944690
v 0.6350000 0.0000000 0.0000000
v 0.6474371 0.0150000 0.0944690
v 0.6445670 0.0000000 0.0726685
v 0.6445670 0.0000000 0.0726685
v 0.6474371 0.0150000 0.0944690
v 0.6474371 0.0000000 0.0944690
v 0.6474371 0.0000000 0.0944690
v 0.6474371 0.0150000 0.0944690
v 0.6839007 0.0150000 0.1825000
v 0.6474371 0.0000000 0.0944690
v 0.6839007 0.0150000 0.1825000
v 0.6754860 0.0000000 0.1621852
v 0.6754860 0.0000000 0.1621852
v 0.6839007 0.0150000 0.1825000
v 0.6839007 0.0000000 0.1825000
v 0.6839007 0.0000000 0.1825000
v 0.6839007 0.0150000 0.1825000
v 0.7419060 0.0150000 0.2580940
v 0.6839007 0.0000000 0.1825000
v 0.7419060 0.0150000 0.2580940
v 0.7285202 0.0000000 0.2406492
v 0.7285202 0.0000000 0.2406492
v 0.7419060 0.0150000 0.2580940
v 0.7419060 0.0000000 0.2580940
v 0.7419060 0.0000000 0.2580940
v 0.7419060 0.0150000 0.2580940
v 0.8175000 0.0150000 0.3160993
v 0.7419060 0.0000000 0.2580940
v 0.8175000 0.0150000 0.3160993
v 0.8000552 0.0000000 0.3027135
v 0.8000552 0.0000000 0.3027135
v 0.8175000 0.0150000 0.3160993
v 0.8175000 0.0000000 0.3160993
v 0.8175000 0.0000000 0.3160993
v 0.8175000 0.0150000 0.3160993
v 0.9055310 0.0150000 0.3525629
v 0.8175000 0.0000000 0.3160993
v 0.9055310 0.0150000 0.3525629
v 0.8852162 0.0000000 0.3441482
v 0.8852162 0.0000000 0.3441482
v 0.9055310 0.0150000 0.3525629
v 0.9055310 0.0000000 0.3525629
v 0.9055310 0.0000000 0.3525629
v 0.9055310 0.0150000 0.3525629
v 1.0000000 0.0150000 0.3650000
v 0.9055310 0.0000000 0.3525629
v 1.0000000 0.0150000 0.3650000
v 0.9781995 0.0000000 0.3621299
v 0.9781995 0.0000000 0.3621299
v 1.0000000 0.0150000 0.3650000
v 1.0000000 0.0000000 0.3650000
v 0.9400000 0.1000000 0.0000000
v 0.9420445 0.1000000 0.0155291
v 0.9420445 1.0000000 0.0155291
v 0.9400000 0.1000000 0.0000000
v 0.9420445 1.0000000 0.0155291
v 0.9411429 1.0000000 0.0086809
v 0.9400000 0.1000000 0.0000000
v 0.9411429 1.0000000 0.0086809
v 0.9400000 1.0000000 0.0000000
v 0.9420445 0.1000000 0.0155291
v 0.9480385 0.1000000 0.0300000
v 0.9480385 1.0000000 0.0300000
v 0.9420445 0.1000000 0.0155291
v 0.9480385 1.0000000 0.0300000
v 0.9453952 1.0000000 0.0236184
v 0.9420445 0.1000000 0.0155291
v 0.9453952 1.0000000 0.0236184
v 0.9420445 1.0000000 0.0155291
v 0.9480385 0.1000000 0.0300000
v 0.9575736 0.1000000 0.0424264
v 0.9575736 1.0000000 0.0424264
v 0.9480385 0.1000000 0.0300000
v 0.9575736 1.0000000 0.0424264
v 0.9533687 1.0000000 0.0369464
v 0.9480385 0.1000000 0.0300000
v 0.9533687 1.0000000 0.0369464
v 0.9480385 1.0000000 0.0300000
v 0.9575736 0.1000000 0.0424264
v 0.9700000 0.1000000 0.0519615
v 0.9700000 1.0000000 0.0519615
v 0.9575736 0.1000000 0.0424264
v 0.9700000 1.0000000 0.0519615
v 0.9645200 1.0000000 0.0477566
v 0.9575736 0.1000000 0.0424264
v 0.9645200 1.0000000 0.0477566
v 0.9575736 1.0000000 0.0424264
v 0.9700000 0.1000000 0.0519615
v 0.9844709 0.1000000 0.0579555
v 0.9844709 1.0000000 0.0579555
v 0.9700000 0.1000000 0.0519615
v 0.9844709 1.0000000 0.0579555
v 0.9780893 1.0000000 0.0553122
v 0.9700000 0.1000000 0.0519615
v 0.9780893 1.0000000 0.0553122
v 0.9700000 1.0000000 0.0519615
v 0.9844709 0.1000000 0.0579555
v 1.0000000 0.1000000 0.0600000
v 1.0000000 1.0000000 0.0600000
v 0.9844709 0.1000000 0.0579555
v 1.0000000 1.0000000 0.0600000
v 0.9931518 1.0000000 0.0590984
v 0.9844709 0.1000000 0.0579555
v 0.9931518 1.0000000 0.0590984
v 0.9844709 1.0000000 0.0579555
v 0.9400000 0.1000000 0.0000000
v 1.0000000 0.1000000 0.0000000
v 1.0000000 0.1000000 0.0078991
v 0.9400000 0.1000000 0.0000000
v 1.0000000 0.1000000 0.0078991
v 1.0000000 0.1000000 0.0160770
v 0.9400000 0.1000000 0.0000000
v 1.0000000 0.1000000 0.0160770
v 1.0000000 0.1000000 0.0248528
v 0.9400000 0.1000000 0.0000000
v 1.0000000 0.1000000 0.0248528
v 1.0000000 0.1000000 0.0346410
v 0.9400000 0.1000000 0.0000000
v 1.0000000 0.1000000 0.0346410
v 1.0000000 0.1000000 0.0460396
v 0.9400000 0.1000000 0.0000000
v 1.0000000 0.1000000 0.0460396
v 1.0000000 0.1000000 0.0600000
v 0.9400000 0.1000000 0.0000000
v 1.0000000 0.1000000 0.0600000
v 0.9844709 0.1000000 0.0579555
v 0.9400000 0.1000000 0.0000000
v 0.9844709 0.1000000 0.0579555
v 0.9700000 0.1000000 0.0519615
v 0.9400000 0.1000000 0.0000000
v 0.9700000 0.1000000 0.0519615
v 0.9575736 0.1000000 0.0424264
v 0.9400000 0.1000000 0.0000000
v 0.9575736 0.1000000 0.0424264
v 0.9480385 0.1000000 0.0300000
v 0.9400000 0.1000000 0.0000000
v 0.9480385 0.1000000 0.0300000
v 0.9420445 0.1000000 0.0155291
vt 0.6875000 0.0039062
vt 0.6770740 0.0039062
vt 0.6770740 0.0564904
vt 0.6875000 0.0039062
vt 0.6770740 0.0564904
vt 0.6875000 0.0564904
vt 0.6770740 0.0039062
vt 0.6673584 0.0039062
vt 0.6673584 0.0564904
vt 0.6770740 0.0039062
vt 0.6673584 0.0564904
vt 0.6770740 0.0564904
vt 0.6673584 0.0039062
vt 0.6590155 0.0039062
vt 0.6590155 0.0564904
vt 0.6673584 0.0039062
vt 0.6590155 0.0564904
vt 0.6673584 0.0564904
vt 0.6590155 0.0039062
vt 0.6673584 0.0039062
vt 0.6673584 0.0564904
vt 0.6590155 0.0039062
vt 0.6673584 0.0564904
vt 0.6590155 0.0564904
vt 0.6673584 0.0039062
vt 0.6770740 0.0039062
vt 0.6770740 0.0564904
vt 0.6673584 0.0039062
vt 0.6770740 0.0564904
vt 0.6673584 0.0564904
vt 0.6770740 0.0039062
vt 0.6875000 0.0039062
vt 0.6875000 0.0564904
vt 0.6770740 0.0039062
vt 0.6875000 0.0564904
vt 0.6770740 0.0564904
vt 0.6362305 0.0625000
vt 0.6472168 0.0625000
vt 0.6485894 0.0520739
vt 0.6362305 0.0625000
vt 0.6485894 0.0520739
vt 0.6379774 0.0492305
vt 0.6379774 0.0492305
vt 0.6485894 0.0520739
vt 0.6526137 0.0423584
vt 0.6379774 0.0492305
vt 0.6526137 0.0423584
vt 0.6430993 0.0368652
vt 0.6430993 0.0368652
vt 0.6526137 0.0423584
vt 0.6590155 0.0340155
vt 0.6430993 0.0368652
vt 0.6590155 0.0340155
vt 0.6512470 0.0262470
vt 0.6512470 0.0262470
vt 0.6590155 0.0340155
vt 0.6673584 0.0276137
vt 0.6512470 0.0262470
vt 0.6673584 0.0276137
vt 0.6618652 0.0180993
vt 0.6618652 0.0180993
vt 0.6673584 0.0276137
vt 0.6770740 0.0235894
vt 0.6618652 0.0180993
vt 0.6770740 0.0235894
vt 0.6742305 0.0129774
vt 0.6742305 0.0129774
vt 0.6770740 0.0235894
vt 0.6875000 0.0222168
vt 0.6742305 0.0129774
vt 0.6875000 0.0222168
vt 0.6875000 0.0112305
vt 0.6875000 0.0640024
vt 0.6742305 0.0640024
vt 0.6742305 0.1090745
vt 0.6875000 0.0640024
vt 0.6742305 0.1090745
vt 0.6875000 0.1090745
vt 0.6742305 0.0640024
vt 0.6618652 0.0640024
vt 0.6618652 0.1090745
vt 0.6742305 0.0640024
vt 0.6618652 0.1090745
vt 0.6742305 0.1090745
vt 0.6618652 0.0640024
vt 0.6512470 0.0640024
vt 0.6512470 0.1090745
vt 0.6618652 0.0640024
vt 0.6512470 0.1090745
vt 0.6618652 0.1090745
vt 0.6512470 0.0640024
vt 0.6618652 0.0640024
vt 0.6618652 0.1090745
vt 0.6512470 0.0640024
vt 0.6618652 0.1090745
vt 0.6512470 0.1090745
vt 0.6618652 0.0640024
vt 0.6742305 0.0640024
vt 0.6742305 0.1090745
vt 0.6618652 0.0640024
vt 0.6742305 0.1090745
vt 0.6618652 0.1090745
vt 0.6742305 0.0640024
vt 0.6875000 0.0640024
vt 0.6875000 0.1090745
vt 0.6742305 0.0640024
vt 0.6875000 0.1090745
vt 0.6742305 0.1090745
vt 0.6875000 0.1210938
vt 0.6875000 0.1090745
vt 0.6742305 0.1090745
vt 0.6875000 0.1210938
vt 0.6742305 0.1090745
vt 0.6723348 0.1210938
vt 0.6723348 0.1210938
vt 0.6742305 0.1090745
vt 0.6618652 0.1090745
vt 0.6723348 0.1210938
vt 0.6618652 0.1090745
vt 0.6582031 0.1210938
vt 0.6582031 0.1210938
vt 0.6618652 0.1090745
vt 0.6512470 0.1090745
vt 0.6582031 0.1210938
vt 0.6512470 0.1090745
vt 0.6460680 0.1210938
vt 0.6460680 0.1210938
vt 0.6512470 0.1090745
vt 0.6618652 0.1090745
vt 0.6460680 0.1210938
vt 0.6618652 0.1090745
vt 0.6582031 0.1210938
vt 0.6582031 0.1210938
vt 0.6618652 0.1090745
vt 0.6742305 0.1090745
vt 0.6582031 0.1210938
vt 0.6742305 0.1090745
vt 0.6723348 0.1210938
vt 0.6723348 0.1210938
vt 0.6742305 0.1090745
vt 0.6875000 0.1090745
vt 0.6723348 0.1210938
vt 0.6875000 0.1090745
vt 0.6875000 0.1210938
vt 0.6472168 0.0625000
vt 0.6875000 0.0625000
vt 0.6875000 0.0571966
vt 0.6472168 0.0625000
vt 0.6875000 0.0571966
vt 0.6875000 0.0517061
vt 0.6472168 0.0625000
vt 0.6875000 0.0517061
vt 0.6875000 0.0458142
vt 0.6472168 0.0625000
vt 0.6875000 0.0458142
vt 0.6875000 0.0392425
vt 0.6472168 0.0625000
vt 0.6875000 0.0392425
vt 0.6875000 0.0315896
vt 0.6472168 0.0625000
vt 0.6875000 0.0315896
vt 0.6875000 0.0222168
vt 0.6472168 0.0625000
vt 0.6875000 0.0222168
vt 0.6770740 0.0235894
vt 0.6472168 0.0625000
vt 0.6770740 0.0235894
vt 0.6673584 0.0276137
vt 0.6472168 0.0625000
vt 0.6673584 0.0276137
vt 0.6590155 0.0340155
vt 0.6472168 0.0625000
vt 0.6590155 0.0340155
vt 0.6526137 0.0423584
vt 0.6472168 0.0625000
vt 0.6526137 0.0423584
vt 0.6485894 0.0520739
vt 0.6289062 0.0625000
vt 0.6309028 0.0473348
vt 0.6367563 0.0332031
vt 0.6289062 0.0625000
vt 0.6367563 0.0332031
vt 0.6460680 0.0210680
vt 0.6289062 0.0625000
vt 0.6460680 0.0210680
vt 0.6582031 0.0117563
vt 0.6289062 0.0625000
vt 0.6582031 0.0117563
vt 0.6723348 0.0059028
vt 0.6289062 0.0625000
vt 0.6723348 0.0059028
vt 0.6875000 0.0039062
vt 0.6289062 0.0625000
vt 0.6875000 0.0039062
vt 0.6875000 0.0175394
vt 0.6289062 0.0625000
vt 0.6875000 0.0175394
vt 0.6875000 0.0286709
vt 0.6289062 0.0625000
vt 0.6875000 0.0286709
vt 0.6875000 0.0382297
vt 0.6289062 0.0625000
vt 0.6875000 0.0382297
vt 0.6875000 0.0467998
vt 0.6289062 0.0625000
vt 0.6875000 0.0467998
vt 0.6875000 0.0547860
vt 0.6289062 0.0625000
vt 0.6875000 0.0547860
vt 0.6875000 0.0625000
vt 0.6875000 0.0039062
vt 0.6723348 0.0039062
vt 0.6723348 0.1210938
vt 0.6875000 0.0039062
vt 0.6723348 0.1210938
vt 0.6875000 0.1210938
vt 0.6723348 0.0039062
vt 0.6582031 0.0039062
vt 0.6582031 0.1210938
vt 0.6723348 0.0039062
vt 0.6582031 0.1210938
vt 0.6723348 0.1210938
vt 0.6582031 0.0039062
vt 0.6460680 0.0039062
vt 0.6460680 0.1210938
vt 0.6582031 0.0039062
vt 0.6460680 0.1210938
vt 0.6582031 0.1210938
vt 0.6460680 0.0039062
vt 0.6582031 0.0039062
vt 0.6582031 0.1210938
vt 0.6460680 0.0039062
vt 0.6582031 0.1210938
vt 0.6460680 0.1210938
vt 0.6582031 0.0039062
vt 0.6723348 0.0039062
vt 0.6723348 0.1210938
vt 0.6582031 0.0039062
vt 0.6723348 0.1210938
vt 0.6582031 0.1210938
vt 0.6723348 0.0039062
vt 0.6875000 0.0039062
vt 0.6875000 0.1210938
vt 0.6723348 0.0039062
vt 0.6875000 0.1210938
vt 0.6723348 0.1210938
vt 0.6875000 0.0039062
vt 0.6875000 0.1210938
vt 0.6774910 0.1210938
vt 0.6875000 0.0039062
vt 0.6774910 0.1210938
vt 0.6774910 0.0039062
vt 0.6774910 0.0039062
vt 0.6774910 0.1210938
vt 0.6681641 0.1210938
vt 0.6774910 0.0039062
vt 0.6681641 0.1210938
vt 0.6681641 0.0039062
vt 0.6681641 0.0039062
vt 0.6681641 0.1210938
vt 0.6601549 0.1210938
vt 0.6681641 0.0039062
vt 0.6601549 0.1210938
vt 0.6601549 0.0039062
vt 0.6601549 0.0039062
vt 0.6601549 0.1210938
vt 0.6681641 0.1210938
vt 0.6601549 0.0039062
vt 0.6681641 0.1210938
vt 0.6681641 0.0039062
vt 0.6681641 0.0039062
vt 0.6681641 0.1210938
vt 0.6774910 0.1210938
vt 0.6681641 0.0039062
vt 0.6774910 0.1210938
vt 0.6774910 0.0039062
vt 0.6774910 0.0039062
vt 0.6774910 0.1210938
vt 0.6875000 0.1210938
vt 0.6774910 0.0039062
vt 0.6875000 0.1210938
vt 0.6875000 0.0039062
vt 0.6289062 0.0625000
vt 0.6488281 0.0625000
vt 0.6501458 0.0524910
vt 0.6289062 0.0625000
vt 0.6501458 0.0524910
vt 0.6309028 0.0473348
vt 0.6309028 0.0473348
vt 0.6501458 0.0524910
vt 0.6540092 0.0431641
vt 0.6309028 0.0473348
vt 0.6540092 0.0431641
vt 0.6367563 0.0332031
vt 0.6367563 0.0332031
vt 0.6540092 0.0431641
vt 0.6601549 0.0351549
vt 0.6367563 0.0332031
vt 0.6601549 0.0351549
vt 0.6460680 0.0210680
vt 0.6460680 0.0210680
vt 0.6601549 0.0351549
vt 0.6681641 0.0290092
vt 0.6460680 0.0210680
vt 0.6681641 0.0290092
vt 0.6582031 0.0117563
vt 0.6582031 0.0117563
vt 0.6681641 0.0290092
vt 0.6774910 0.0251458
vt 0.6582031 0.0117563
vt 0.6774910 0.0251458
vt 0.6723348 0.0059028
vt 0.6723348 0.0059028
vt 0.6774910 0.0251458
vt 0.6875000 0.0238281
vt 0.6723348 0.0059028
vt 0.6875000 0.0238281
vt 0.6875000 0.0039062
vt 0.4223348 0.1035555
vt 0.4223348 0.1123246
vt 0.4238377 0.1035555
vt 0.4238377 0.1035555
vt 0.4223348 0.1123246
vt 0.4375000 0.1123246
vt 0.4238377 0.1035555
vt 0.4375000 0.1123246
vt 0.4375000 0.1035555
vt 0.4082031 0.1035555
vt 0.4082031 0.1123246
vt 0.4096035 0.1035555
vt 0.4096035 0.1035555
vt 0.4082031 0.1123246
vt 0.4223348 0.1123246
vt 0.4096035 0.1035555
vt 0.4223348 0.1123246
vt 0.4223348 0.1035555
vt 0.3960679 0.1035555
vt 0.3960679 0.1123246
vt 0.3972705 0.1035555
vt 0.3972705 0.1035555
vt 0.3960679 0.1123246
vt 0.4082031 0.1123246
vt 0.3972705 0.1035555
vt 0.4082031 0.1123246
vt 0.4082031 0.1035555
vt 0.4082031 0.1035555
vt 0.4082031 0.1123246
vt 0.4070005 0.1035555
vt 0.4070005 0.1035555
vt 0.4082031 0.1123246
vt 0.3960679 0.1123246
vt 0.4070005 0.1035555
vt 0.3960679 0.1123246
vt 0.3960679 0.1035555
vt 0.4223348 0.1035555
vt 0.4223348 0.1123246
vt 0.4209344 0.1035555
vt 0.4209344 0.1035555
vt 0.4223348 0.1123246
vt 0.4082031 0.1123246
vt 0.4209344 0.1035555
vt 0.4082031 0.1123246
vt 0.4082031 0.1035555
vt 0.4375000 0.1035555
vt 0.4375000 0.1123246
vt 0.4359971 0.1035555
vt 0.4359971 0.1035555
vt 0.4375000 0.1123246
vt 0.4223348 0.1123246
vt 0.4359971 0.1035555
vt 0.4223348 0.1123246
vt 0.4223348 0.1035555
vt 0.4375000 0.1123246
vt 0.4223348 0.1123246
vt 0.4257470 0.1210938
vt 0.4375000 0.1123246
vt 0.4257470 0.1210938
vt 0.4375000 0.1210938
vt 0.4223348 0.1123246
vt 0.4082031 0.1123246
vt 0.4147949 0.1210938
vt 0.4223348 0.1123246
vt 0.4147949 0.1210938
vt 0.4257470 0.1210938
vt 0.3867563 0.0332031
vt 0.3960679 0.0210680
vt 0.4053902 0.0303902
vt 0.3867563 0.0332031
vt 0.4053902 0.0303902
vt 0.3981737 0.0397949
vt 0.3960679 0.0210680
vt 0.4082031 0.0117563
vt 0.4147949 0.0231737
vt 0.3960679 0.0210680
vt 0.4147949 0.0231737
vt 0.4053902 0.0303902
vt 0.4082031 0.1123246
vt 0.4223348 0.1123246
vt 0.4257470 0.1210938
vt 0.4082031 0.1123246
vt 0.4257470 0.1210938
vt 0.4147949 0.1210938
vt 0.4223348 0.1123246
vt 0.4375000 0.1123246
vt 0.4375000 0.1210938
vt 0.4223348 0.1123246
vt 0.4375000 0.1210938
vt 0.4257470 0.1210938
vt 0.3920898 0.0625000
vt 0.3936372 0.0507470
vt 0.3981737 0.0397949
vt 0.3920898 0.0625000
vt 0.3981737 0.0397949
vt 0.4053902 0.0303902
vt 0.3920898 0.0625000
vt 0.4053902 0.0303902
vt 0.4147949 0.0231737
vt 0.3920898 0.0625000
vt 0.4147949 0.0231737
vt 0.4257470 0.0186372
vt 0.3920898 0.0625000
vt 0.4257470 0.0186372
vt 0.4375000 0.0170898
vt 0.3920898 0.0625000
vt 0.4375000 0.0170898
vt 0.4375000 0.0276556
vt 0.3920898 0.0625000
vt 0.4375000 0.0276556
vt 0.4375000 0.0362825
vt 0.3920898 0.0625000
vt 0.4375000 0.0362825
vt 0.4375000 0.0436905
vt 0.3920898 0.0625000
vt 0.4375000 0.0436905
vt 0.4375000 0.0503324
vt 0.3920898 0.0625000
vt 0.4375000 0.0503324
vt 0.4375000 0.0565216
vt 0.3920898 0.0625000
vt 0.4375000 0.0565216
vt 0.4375000 0.0625000
vt 0.6723348 0.0940505
vt 0.6723348 0.1210938
vt 0.6758345 0.0940505
vt 0.6758345 0.0940505
vt 0.6723348 0.1210938
vt 0.6875000 0.1210938
vt 0.6758345 0.0940505
vt 0.6875000 0.1210938
vt 0.6875000 0.0940505
vt 0.6582031 0.0940505
vt 0.6582031 0.1210938
vt 0.6614643 0.0940505
vt 0.6614643 0.0940505
vt 0.6582031 0.1210938
vt 0.6723348 0.1210938
vt 0.6614643 0.0940505
vt 0.6723348 0.1210938
vt 0.6723348 0.0940505
vt 0.6460680 0.0940505
vt 0.6460680 0.1210938
vt 0.6488684 0.0940505
vt 0.6488684 0.0940505
vt 0.6460680 0.1210938
vt 0.6582031 0.1210938
vt 0.6488684 0.0940505
vt 0.6582031 0.1210938
vt 0.6582031 0.0940505
vt 0.6582031 0.0940505
vt 0.6582031 0.1210938
vt 0.6554027 0.0940505
vt 0.6554027 0.0940505
vt 0.6582031 0.1210938
vt 0.6460680 0.1210938
vt 0.6554027 0.0940505
vt 0.6460680 0.1210938
vt 0.6460680 0.0940505
vt 0.6723348 0.0940505
vt 0.6723348 0.1210938
vt 0.6690736 0.0940505
vt 0.6690736 0.0940505
vt 0.6723348 0.1210938
vt 0.6582031 0.1210938
vt 0.6690736 0.0940505
vt 0.6582031 0.1210938
vt 0.6582031 0.0940505
vt 0.6875000 0.0940505
vt 0.6875000 0.1210938
vt 0.6840003 0.0940505
vt 0.6840003 0.0940505
vt 0.6875000 0.1210938
vt 0.6723348 0.1210938
vt 0.6840003 0.0940505
vt 0.6723348 0.1210938
vt 0.6723348 0.0940505
vt 0.6289062 0.0625000
vt 0.6309028 0.0473348
vt 0.6388930 0.0494758
vt 0.6289062 0.0625000
vt 0.6388930 0.0494758
vt 0.6371783 0.0625000
vt 0.6309028 0.0473348
vt 0.6367563 0.0332031
vt 0.6439201 0.0373392
vt 0.6309028 0.0473348
vt 0.6439201 0.0373392
vt 0.6388930 0.0494758
vt 0.6367563 0.0332031
vt 0.6460680 0.0210680
vt 0.6519172 0.0269172
vt 0.6367563 0.0332031
vt 0.6519172 0.0269172
vt 0.6439201 0.0373392
vt 0.6460680 0.0210680
vt 0.6582031 0.0117563
vt 0.6623392 0.0189201
vt 0.6460680 0.0210680
vt 0.6623392 0.0189201
vt 0.6519172 0.0269172
vt 0.6582031 0.0117563
vt 0.6723348 0.0059028
vt 0.6744758 0.0138930
vt 0.6582031 0.0117563
vt 0.6744758 0.0138930
vt 0.6623392 0.0189201
vt 0.6723348 0.0059028
vt 0.6875000 0.0039062
vt 0.6875000 0.0121783
vt 0.6723348 0.0059028
vt 0.6875000 0.0121783
vt 0.6744758 0.0138930
vt 0.6875000 0.0940505
vt 0.6875000 0.1210938
vt 0.6744758 0.1210938
vt 0.6875000 0.0940505
vt 0.6744758 0.1210938
vt 0.6774814 0.0940505
vt 0.6774814 0.0940505
vt 0.6744758 0.1210938
vt 0.6744758 0.0940505
vt 0.6744758 0.0940505
vt 0.6744758 0.1210938
vt 0.6623392 0.1210938
vt 0.6744758 0.0940505
vt 0.6623392 0.1210938
vt 0.6651400 0.0940505
vt 0.6651400 0.0940505
vt 0.6623392 0.1210938
vt 0.6623392 0.0940505
vt 0.6623392 0.0940505
vt 0.6623392 0.1210938
vt 0.6519172 0.1210938
vt 0.6623392 0.0940505
vt 0.6519172 0.1210938
vt 0.6543223 0.0940505
vt 0.6543223 0.0940505
vt 0.6519172 0.1210938
vt 0.6519172 0.0940505
vt 0.6519172 0.0940505
vt 0.6519172 0.1210938
vt 0.6623392 0.1210938
vt 0.6519172 0.0940505
vt 0.6623392 0.1210938
vt 0.6599341 0.0940505
vt 0.6599341 0.0940505
vt 0.6623392 0.1210938
vt 0.6623392 0.0940505
vt 0.6623392 0.0940505
vt 0.6623392 0.1210938
vt 0.6744758 0.1210938
vt 0.6623392 0.0940505
vt 0.6744758 0.1210938
vt 0.6716750 0.0940505
vt 0.6716750 0.0940505
vt 0.6744758 0.1210938
vt 0.6744758 0.0940505
vt 0.6744758 0.0940505
vt 0.6744758 0.1210938
vt 0.6875000 0.1210938
vt 0.6744758 0.0940505
vt 0.6875000 0.1210938
vt 0.6844944 0.0940505
vt 0.6844944 0.0940505
vt 0.6875000 0.1210938
vt 0.6875000 0.0940505
vt 0.8125000 0.0039062
vt 0.7973348 0.0039062
vt 0.7973348 0.0694148
vt 0.8125000 0.0039062
vt 0.7973348 0.0694148
vt 0.8040226 0.0694148
vt 0.8125000 0.0039062
vt 0.8040226 0.0694148
vt 0.8125000 0.0694148
vt 0.7973348 0.0039062
vt 0.7832031 0.0039062
vt 0.7832031 0.0694148
vt 0.7973348 0.0039062
vt 0.7832031 0.0694148
vt 0.7894351 0.0694148
vt 0.7973348 0.0039062
vt 0.7894351 0.0694148
vt 0.7973348 0.0694148
vt 0.7832031 0.0039062
vt 0.7710680 0.0039062
vt 0.7710680 0.0694148
vt 0.7832031 0.0039062
vt 0.7710680 0.0694148
vt 0.7764195 0.0694148
vt 0.7832031 0.0039062
vt 0.7764195 0.0694148
vt 0.7832031 0.0694148
vt 0.7710680 0.0039062
vt 0.7832031 0.0039062
vt 0.7832031 0.0694148
vt 0.7710680 0.0039062
vt 0.7832031 0.0694148
vt 0.7778516 0.0694148
vt 0.7710680 0.0039062
vt 0.7778516 0.0694148
vt 0.7710680 0.0694148
vt 0.7832031 0.0039062
vt 0.7973348 0.0039062
vt 0.7973348 0.0694148
vt 0.7832031 0.0039062
vt 0.7973348 0.0694148
vt 0.7911028 0.0694148
vt 0.7832031 0.0039062
vt 0.7911028 0.0694148
vt 0.7832031 0.0694148
vt 0.7973348 0.0039062
vt 0.8125000 0.0039062
vt 0.8125000 0.0694148
vt 0.7973348 0.0039062
vt 0.8125000 0.0694148
vt 0.8058122 0.0694148
vt 0.7973348 0.0039062
vt 0.8058122 0.0694148
vt 0.7973348 0.0694148
vt 0.7539062 0.0625000
vt 0.8125000 0.0625000
vt 0.8125000 0.0547860
vt 0.7539062 0.0625000
vt 0.8125000 0.0547860
vt 0.8125000 0.0467998
vt 0.7539062 0.0625000
vt 0.8125000 0.0467998
vt 0.8125000 0.0382297
vt 0.7539062 0.0625000
vt 0.8125000 0.0382297
vt 0.8125000 0.0286709
vt 0.7539062 0.0625000
vt 0.8125000 0.0286709
vt 0.8125000 0.0175394
vt 0.7539062 0.0625000
vt 0.8125000 0.0175394
vt 0.8125000 0.0039062
vt 0.7539062 0.0625000
vt 0.8125000 0.0039062
vt 0.7973348 0.0059028
vt 0.7539062 0.0625000
vt 0.7973348 0.0059028
vt 0.7832031 0.0117563
vt 0.7539062 0.0625000
vt 0.7832031 0.0117563
vt 0.7710680 0.0210680
vt 0.7539062 0.0625000
vt 0.7710680 0.0210680
vt 0.7617563 0.0332031
vt 0.7539062 0.0625000
vt 0.7617563 0.0332031
vt 0.7559028 0.0473348
vn -1.0000000 0.0000000 0.0000000
vn -0.9659258 0.0000000 0.2588191
vn -0.9659258 0.0000000 0.2588191
vn -1.0000000 0.0000000 0.0000000
vn -0.9659258 0.0000000 0.2588191
vn -1.0000000 0.0000000 0.0000000
vn -0.9659258 0.0000000 0.2588191
vn -0.8660254 0.0000000 0.5000001
vn -0.8660254 0.0000000 0.5000001
vn -0.9659258 0.0000000 0.2588191
vn -0.8660254 0.0000000 0.5000001
vn -0.9659258 0.0000000 0.2588191
vn -0.8660254 0.0000000 0.5000001
vn -0.7071068 0.0000000 0.7071068
vn -0.7071068 0.0000000 0.7071068
vn -0.8660254 0.0000000 0.5000001
vn -0.7071068 0.0000000 0.7071068
vn -0.8660254 0.0000000 0.5000001
vn -0.7071068 0.0000000 0.7071068
vn -0.5000000 0.0000000 0.8660254
vn -0.5000000 0.0000000 0.8660254
vn -0.7071068 0.0000000 0.7071068
vn -0.5000000 0.0000000 0.8660254
vn -0.7071068 0.0000000 0.7071068
vn -0.5000000 0.0000000 0.8660254
vn -0.2588190 0.0000000 0.9659258
vn -0.2588190 0.0000000 0.9659258
vn -0.5000000 0.0000000 0.8660254
vn -0.2588190 0.0000000 0.9659258
vn -0.5000000 0.0000000 0.8660254
vn -0.2588190 0.0000000 0.9659258
vn 0.0000000 0.0000000 1.0000000
vn 0.0000000 0.0000000 1.0000000
vn -0.2588190 0.0000000 0.9659258
vn 0.0000000 0.0000000 1.0000000
vn -0.2588190 0.0000000 0.9659258
vn -0.6401843 -0.7682214 0.0000000
vn -0.6401843 -0.7682214 0.0000000
vn -0.6183707 -0.7682213 0.1656919
vn -0.6401843 -0.7682214 0.0000000
vn -0.6183707 -0.7682213 0.1656919
vn -0.6183707 -0.7682212 0.1656919
vn -0.6183707 -0.7682212 0.1656919
vn -0.6183707 -0.7682213 0.1656919
vn -0.5544162 -0.7682211 0.3200922
vn -0.6183707 -0.7682212 0.1656919
vn -0.5544162 -0.7682211 0.3200922
vn -0.5544162 -0.7682211 0.3200922
vn -0.5544162 -0.7682211 0.3200922
vn -0.5544162 -0.7682211 0.3200922
vn -0.4526790 -0.7682211 0.4526787
vn -0.5544162 -0.7682211 0.3200922
vn -0.4526790 -0.7682211 0.4526787
vn -0.4526790 -0.7682211 0.4526787
vn -0.4526790 -0.7682211 0.4526787
vn -0.4526790 -0.7682211 0.4526787
vn -0.3200922 -0.7682213 0.5544159
vn -0.4526790 -0.7682211 0.4526787
vn -0.3200922 -0.7682213 0.5544159
vn -0.3200922 -0.7682213 0.5544159
vn -0.3200922 -0.7682213 0.5544159
vn -0.3200922 -0.7682213 0.5544159
vn -0.1656918 -0.7682213 0.6183707
vn -0.3200922 -0.7682213 0.5544159
vn -0.1656918 -0.7682213 0.6183707
vn -0.1656918 -0.7682213 0.6183707
vn -0.1656918 -0.7682213 0.6183707
vn -0.1656918 -0.7682213 0.6183707
vn 0.0000000 -0.7682213 0.6401843
vn -0.1656918 -0.7682213 0.6183707
vn 0.0000000 -0.7682213 0.6401843
vn 0.0000000 -0.7682213 0.6401844
vn -1.0000000 0.0000000 0.0000000
vn -0.9659258 0.0000000 0.2588191
vn -0.9659258 0.0000000 0.2588191
vn -1.0000000 0.0000000 0.0000000
vn -0.9659258 0.0000000 0.2588191
vn -1.0000000 0.0000000 0.0000000
vn -0.9659258 0.0000000 0.2588191
vn -0.8660254 0.0000000 0.5000001
vn -0.8660254 0.0000000 0.5000001
vn -0.9659258 0.0000000 0.2588191
vn -0.8660254 0.0000000 0.5000001
vn -0.9659258 0.0000000 0.2588191
vn -0.8660254 0.0000000 0.5000001
vn -0.7071068 0.0000000 0.7071068
vn -0.7071068 0.0000000 0.7071068
vn -0.8660254 0.0000000 0.5000001
vn -0.7071068 0.0000000 0.7071068
vn -0.8660254 0.0000000 0.5000001
vn -0.7071068 0.0000000 0.7071068
vn -0.5000001 0.0000000 0.8660254
vn -0.5000001 0.0000000 0.8660254
vn -0.7071068 0.0000000 0.7071068
vn -0.5000001 0.0000000 0.8660254
vn -0.7071068 0.0000000 0.7071068
vn -0.5000001 0.0000000 0.8660254
vn -0.2588191 0.0000000 0.9659258
vn -0.2588191 0.0000000 0.9659258
vn -0.5000001 0.0000000 0.8660254
vn -0.2588191 0.0000000 0.9659258
vn -0.5000001 0.0000000 0.8660254
vn -0.2588191 0.0000000 0.9659258
vn 0.0000000 0.0000000 1.0000000
vn 0.0000000 0.0000000 1.0000000
vn -0.2588191 0.0000000 0.9659258
vn 0.0000000 0.0000000 1.0000000
vn -0.2588191 0.0000000 0.9659258
vn -0.8944272 -0.4472136 0.0000000
vn -0.8944272 -0.4472136 0.0000000
vn -0.8639503 -0.4472136 0.2314949
vn -0.8944272 -0.4472136 0.0000000
vn -0.8639503 -0.4472136 0.2314949
vn -0.8639503 -0.4472136 0.2314949
vn -0.8639503 -0.4472136 0.2314949
vn -0.8639503 -0.4472136 0.2314949
vn -0.7745966 -0.4472137 0.4472136
vn -0.8639503 -0.4472136 0.2314949
vn -0.7745966 -0.4472137 0.4472136
vn -0.7745966 -0.4472137 0.4472136
vn -0.7745966 -0.4472137 0.4472136
vn -0.7745966 -0.4472137 0.4472136
vn -0.6324556 -0.4472136 0.6324555
vn -0.7745966 -0.4472137 0.4472136
vn -0.6324556 -0.4472136 0.6324555
vn -0.6324556 -0.4472136 0.6324555
vn -0.6324556 -0.4472136 0.6324555
vn -0.6324556 -0.4472136 0.6324555
vn -0.4472136 -0.4472136 0.7745967
vn -0.6324556 -0.4472136 0.6324555
vn -0.4472136 -0.4472136 0.7745967
vn -0.4472136 -0.4472136 0.7745967
vn -0.4472136 -0.4472136 0.7745967
vn -0.4472136 -0.4472136 0.7745967
vn -0.2314948 -0.4472136 0.8639503
vn -0.4472136 -0.4472136 0.7745967
vn -0.2314948 -0.4472136 0.8639503
vn -0.2314948 -0.4472136 0.8639503
vn -0.2314948 -0.4472136 0.8639503
vn -0.2314948 -0.4472136 0.8639503
vn 0.0000000 -0.4472134 0.8944273
vn -0.2314948 -0.4472136 0.8639503
vn 0.0000000 -0.4472134 0.8944273
vn 0.0000000 -0.4472134 0.8944273
vn 0.0000000 -1.0000000 0.0000000
vn 0.0000000 -1.0000000 0.0000000
vn 0.0000000 -1.0000000 0.0000000
vn 0.0000000 -1.0000000 0.0000000
vn 0.0000000 -1.0000000 0.0000000
vn 0.0000000 -1.0000000 0.0000000
vn 0.0000000 -1.0000000 0.0000000
vn 0.0000000 -1.0000000 0.0000000
vn 0.0000000 -1.0000000 0.0000000
vn 0.0000000 -1.0000000 0.0000000
vn 0.0000000 -1.0000000 0.0000000
vn 0.0000000 -1.0000000 0.0000000
vn 0.0000000 -1.0000000 0.0000000
vn 0.0000000 -1.0000000 0.0000000
vn 0.0000000 -1.0000000 0.0000000
vn 0.0000000 -1.0000000 0.0000000
vn 0.0000000 -1.0000000 0.0000000
vn 0.0000000 -1.0000000 0.0000000
vn 0.0000000 -1.0000000 0.0000000
vn 0.0000000 -1.0000000 0.0000000
vn 0.0000000 -1.0000000 0.0000000
vn 0.0000000 -1.0000000 0.0000000
vn 0.0000000 -1.0000000 0.0000000
vn 0.0000000 -1.0000000 0.0000000
vn 0.0000000 -1.0000000 0.0000000
vn 0.0000000 -1.0000000 0.0000000
vn 0.0000000 -1.0000000 0.0000000
vn 0.0000000 -1.0000000 0.0000000
vn 0.0000000 -1.0000000 0.0000000
vn 0.0000000 -1.0000000 0.0000000
vn 0.0000000 -1.0000000 0.0000000
vn 0.0000000 -1.0000000 0.0000000
vn 0.0000000 -1.0000000 0.0000000
vn 0.0000000 1.0000000 0.0000000
vn 0.0000000 1.0000000 0.0000000
vn 0.0000000 1.0000000 0.0000000
vn 0.0000000 1.0000000 0.0000000
vn 0.0000000 1.0000000 0.0000000
vn 0.0000000 1.0000000 0.0000000
vn 0.0000000 1.0000000 0.0000000
vn 0.0000000 1.0000000 0.0000000
vn 0.0000000 1.0000000 0.0000000
vn 0.0000000 1.0000000 0.0000000
vn 0.0000000 1.0000000 0.0000000
vn 0.0000000 1.0000000 0.0000000
vn 0.0000000 1.0000000 0.0000000
vn 0.0000000 1.0000000 0.0000000
vn 0.0000000 1.0000000 0.0000000
vn 0.0000000 1.0000000 0.0000000
vn 0.0000000 1.0000000 0.0000000
vn 0.0000000 1.0000000 0.0000000
vn 0.0000000 1.0000000 0.0000000
vn 0.0000000 1.0000000 0.0000000
vn 0.0000000 1.0000000 0.0000000
vn 0.0000000 1.0000000 0.0000000
vn 0.0000000 1.0000000 0.0000000
vn 0.0000000 1.0000000 0.0000000
vn 0.0000000 1.0000000 0.0000000
vn 0.0000000 1.0000000 0.0000000
vn 0.0000000 1.0000000 0.0000000
vn 0.0000000 1.0000000 0.0000000
vn 0.0000000 1.0000000 0.0000000
vn 0.0000000 1.0000000 0.0000000
vn 0.0000000 1.0000000 0.0000000
vn 0.0000000 1.0000000 0.0000000
vn 0.0000000 1.0000000 0.0000000
vn -1.0000000 0.0000000 0.0000000
vn -0.9659258 0.0000000 0.2588191
vn -0.9659258 0.0000000 0.2588191
vn -1.0000000 0.0000000 0.0000000
vn -0.9659258 0.0000000 0.2588191
vn -1.0000000 0.0000000 0.0000000
vn -0.9659258 0.0000000 0.2588191
vn -0.8660255 0.0000000 0.4999998
vn -0.8660255 0.0000000 0.4999998
vn -0.9659258 0.0000000 0.2588191
vn -0.8660255 0.0000000 0.4999998
vn -0.9659258 0.0000000 0.2588191
vn -0.8660255 0.0000000 0.4999998
vn -0.7071069 0.0000000 0.7071067
vn -0.7071069 0.0000000 0.7071067
vn -0.8660255 0.0000000 0.4999998
vn -0.7071069 0.0000000 0.7071067
vn -0.8660255 0.0000000 0.4999998
vn -0.7071069 0.0000000 0.7071067
vn -0.4999999 0.0000000 0.8660255
vn -0.4999999 0.0000000 0.8660255
vn -0.7071069 0.0000000 0.7071067
vn -0.4999999 0.0000000 0.8660255
vn -0.7071069 0.0000000 0.7071067
vn -0.4999999 0.0000000 0.8660255
vn -0.2588191 0.0000000 0.9659258
vn -0.2588191 0.0000000 0.9659258
vn -0.4999999 0.0000000 0.8660255
vn -0.2588191 0.0000000 0.9659258
vn -0.4999999 0.0000000 0.8660255
vn -0.2588191 0.0000000 0.9659258
vn 0.0000000 0.0000000 1.0000000
vn 0.0000000 0.0000000 1.0000000
vn -0.2588191 0.0000000 0.9659258
vn 0.0000000 0.0000000 1.0000000
vn -0.2588191 0.0000000 0.9659258
vn 1.0000000 0.0000000 0.0000000
vn 1.0000000 0.0000000 0.0000000
vn 0.9659258 0.0000000 -0.2588190
vn 1.0000000 0.0000000 0.0000000
vn 0.9659258 0.0000000 -0.2588190
vn 0.9659258 0.0000000 -0.2588190
vn 0.9659258 0.0000000 -0.2588190
vn 0.9659258 0.0000000 -0.2588190
vn 0.8660254 0.0000000 -0.5000000
vn 0.9659258 0.0000000 -0.2588190
vn 0.8660254 0.0000000 -0.5000000
vn 0.8660254 0.0000000 -0.5000000
vn 0.8660254 0.0000000 -0.5000000
vn 0.8660254 0.0000000 -0.5000000
vn 0.7071068 0.0000000 -0.7071068
vn 0.8660254 0.0000000 -0.5000000
vn 0.7071068 0.0000000 -0.7071068
vn 0.7071068 0.0000000 -0.7071068
vn 0.7071068 0.0000000 -0.7071068
vn 0.7071068 0.0000000 -0.7071068
vn 0.5000000 0.0000000 -0.8660254
vn 0.7071068 0.0000000 -0.7071068
vn 0.5000000 0.0000000 -0.8660254
vn 0.5000000 0.0000000 -0.8660254
vn 0.5000000 0.0000000 -0.8660254
vn 0.5000000 0.0000000 -0.8660254
vn 0.2588190 0.0000000 -0.9659258
vn 0.5000000 0.0000000 -0.8660254
vn 0.2588190 0.0000000 -0.9659258
vn 0.2588190 0.0000000 -0.9659258
vn 0.2588190 0.0000000 -0.9659258
vn 0.2588190 0.0000000 -0.9659258
vn 0.0000000 0.0000000 -1.0000000
vn 0.2588190 0.0000000 -0.9659258
vn 0.0000000 0.0000000 -1.0000000
vn 0.0000000 0.0000000 -1.0000000
vn 0.0000000 -1.0000000 0.0000000
vn 0.0000000 -1.0000000 0.0000000
vn 0.0000000 -1.0000000 0.0000000
vn 0.0000000 -1.0000000 0.0000000
vn 0.0000000 -1.0000000 0.0000000
vn 0.0000000 -1.0000000 0.0000000
vn 0.0000000 -1.0000000 0.0000000
vn 0.0000000 -1.0000000 0.0000000
vn 0.0000000 -1.0000000 0.0000000
vn 0.0000000 -1.0000000 0.0000000
vn 0.0000000 -1.0000000 0.0000000
vn 0.0000000 -1.0000000 0.0000000
vn 0.0000000 -1.0000000 0.0000000
vn 0.0000000 -1.0000000 0.0000000
vn 0.0000000 -1.0000000 0.0000000
vn 0.0000000 -1.0000000 0.0000000
vn 0.0000000 -1.0000000 0.0000000
vn 0.0000000 -1.0000000 0.0000000
vn 0.0000000 -1.0000000 0.0000000
vn 0.0000000 -1.0000000 0.0000000
vn 0.0000000 -1.0000000 0.0000000
vn 0.0000000 -1.0000000 0.0000000
vn 0.0000000 -1.0000000 0.0000000
vn 0.0000000 -1.0000000 0.0000000
vn 0.0000000 -1.0000000 0.0000000
vn 0.0000000 -1.0000000 0.0000000
vn 0.0000000 -1.0000000 0.0000000
vn 0.0000000 -1.0000000 0.0000000
vn 0.0000000 -1.0000000 0.0000000
vn 0.0000000 -1.0000000 0.0000000
vn 0.0000000 -1.0000000 0.0000000
vn 0.0000000 -1.0000000 0.0000000
vn 0.0000000 -1.0000000 0.0000000
vn 0.0000000 -1.0000000 0.0000000
vn 0.0000000 -1.0000000 0.0000000
vn 0.0000000 -1.0000000 0.0000000
vn -0.9659258 0.0000000 0.2588190
vn -0.9659258 0.0000000 0.2588190
vn -0.9722648 0.0000000 0.2338829
vn -0.9722648 0.0000000 0.2338829
vn -0.9659258 0.0000000 0.2588190
vn -1.0000000 0.0000000 0.0000000
vn -0.9722648 0.0000000 0.2338829
vn -1.0000000 0.0000000 0.0000000
vn -1.0000000 0.0000000 0.0000000
vn -0.8660254 0.0000000 0.4999999
vn -0.8660254 0.0000000 0.4999999
vn -0.8786023 0.0000000 0.4775541
vn -0.8786023 0.0000000 0.4775541
vn -0.8660254 0.0000000 0.4999999
vn -0.9659258 0.0000000 0.2588190
vn -0.8786023 0.0000000 0.4775541
vn -0.9659258 0.0000000 0.2588190
vn -0.9659258 0.0000000 0.2588190
vn -0.7071068 0.0000000 0.7071068
vn -0.7071068 0.0000000 0.7071068
vn -0.7250646 0.0000000 0.6886809
vn -0.7250646 0.0000000 0.6886809
vn -0.7071068 0.0000000 0.7071068
vn -0.8660254 0.0000000 0.4999999
vn -0.7250646 0.0000000 0.6886809
vn -0.8660254 0.0000000 0.4999999
vn -0.8660254 0.0000000 0.4999999
vn -0.4999999 0.0000000 0.8660255
vn -0.4999999 0.0000000 0.8660255
vn -0.5221147 0.0000000 0.8528753
vn -0.5221147 0.0000000 0.8528753
vn -0.4999999 0.0000000 0.8660255
vn -0.7071068 0.0000000 0.7071068
vn -0.5221147 0.0000000 0.8528753
vn -0.7071068 0.0000000 0.7071068
vn -0.7071068 0.0000000 0.7071068
vn -0.2588191 0.0000000 0.9659258
vn -0.2588191 0.0000000 0.9659258
vn -0.2835839 0.0000000 0.9589474
vn -0.2835839 0.0000000 0.9589474
vn -0.2588191 0.0000000 0.9659258
vn -0.4999999 0.0000000 0.8660255
vn -0.2835839 0.0000000 0.9589474
vn -0.4999999 0.0000000 0.8660255
vn -0.4999999 0.0000000 0.8660255
vn 0.0000000 0.0000000 1.0000000
vn 0.0000000 0.0000000 1.0000000
vn -0.0257271 0.0000000 0.9996690
vn -0.0257271 0.0000000 0.9996690
vn 0.0000000 0.0000000 1.0000000
vn -0.2588191 0.0000000 0.9659258
vn -0.0257271 0.0000000 0.9996690
vn -0.2588191 0.0000000 0.9659258
vn -0.2588191 0.0000000 0.9659258
vn -0.7739573 0.6332378 0.0000000
vn -0.7475854 0.6332378 0.2003149
vn -0.7475853 0.6332378 0.2003149
vn -0.7739573 0.6332378 0.0000000
vn -0.7475853 0.6332378 0.2003149
vn -0.7739573 0.6332377 0.0000000
vn -0.7475854 0.6332378 0.2003149
vn -0.6702666 0.6332378 0.3869788
vn -0.6702666 0.6332378 0.3869788
vn -0.7475854 0.6332378 0.2003149
vn -0.6702666 0.6332378 0.3869788
vn -0.7475853 0.6332378 0.2003149
vn -0.6702666 0.6332378 0.3869788
vn -0.5472704 0.6332378 0.5472705
vn -0.5472704 0.6332378 0.5472705
vn -0.6702666 0.6332378 0.3869788
vn -0.5472704 0.6332378 0.5472705
vn -0.6702666 0.6332378 0.3869788
vn -0.5472704 0.6332378 0.5472705
vn -0.3869787 0.6332378 0.6702666
vn -0.3869787 0.6332378 0.6702666
vn -0.5472704 0.6332378 0.5472705
vn -0.3869787 0.6332378 0.6702666
vn -0.5472704 0.6332378 0.5472705
vn -0.3869787 0.6332378 0.6702666
vn -0.2003151 0.6332377 0.7475854
vn -0.2003151 0.6332377 0.7475854
vn -0.3869787 0.6332378 0.6702666
vn -0.2003151 0.6332377 0.7475854
vn -0.3869787 0.6332378 0.6702666
vn -0.2003151 0.6332377 0.7475854
vn 0.0000000 0.6332377 0.7739574
vn 0.0000000 0.6332377 0.7739574
vn -0.2003151 0.6332377 0.7475854
vn 0.0000000 0.6332377 0.7739574
vn -0.2003151 0.6332377 0.7475854
vn -0.0000000 1.0000000 0.0000000
vn -0.0000000 1.0000000 0.0000000
vn -0.0000000 1.0000000 0.0000000
vn -0.0000000 1.0000000 0.0000000
vn -0.0000000 1.0000000 0.0000000
vn -0.0000000 1.0000000 0.0000000
vn -0.0000000 1.0000000 0.0000000
vn -0.0000000 1.0000000 0.0000000
vn -0.0000000 1.0000000 0.0000000
vn -0.0000000 1.0000000 0.0000000
vn -0.0000000 1.0000000 0.0000000
vn -0.0000000 1.0000000 0.0000000
vn -0.0000000 1.0000000 0.0000000
vn -0.0000000 1.0000000 0.0000000
vn -0.0000000 1.0000000 0.0000000
vn -0.0000000 1.0000000 0.0000000
vn -0.0000000 1.0000000 0.0000000
vn 0.0000000 1.0000000 0.0000000
vn -0.0000000 1.0000000 0.0000000
vn 0.0000000 1.0000000 0.0000000
vn 0.0000000 1.0000000 0.0000000
vn -0.0000000 1.0000000 0.0000000
vn 0.0000000 1.0000000 0.0000000
vn 0.0000000 1.0000000 0.0000000
vn -0.0000000 1.0000000 0.0000000
vn 0.0000000 1.0000000 0.0000000
vn 0.0000000 1.0000000 0.0000000
vn -0.0000000 1.0000000 0.0000000
vn 0.0000000 1.0000000 0.0000000
vn 0.0000000 1.0000000 0.0000000
vn -0.0000000 1.0000000 0.0000000
vn 0.0000000 1.0000000 0.0000000
vn 0.0000000 1.0000000 0.0000000
vn -0.9659258 0.0000000 0.2588191
vn -0.9659258 0.0000000 0.2588191
vn -0.9797332 0.0000000 0.2003069
vn -0.9797332 0.0000000 0.2003069
vn -0.9659258 0.0000000 0.2588191
vn -1.0000000 0.0000000 0.0000000
vn -0.9797332 0.0000000 0.2003069
vn -1.0000000 0.0000000 0.0000000
vn -1.0000000 0.0000000 0.0000000
vn -0.8660254 0.0000000 0.5000001
vn -0.8660254 0.0000000 0.5000001
vn -0.8945064 0.0000000 0.4470552
vn -0.8945064 0.0000000 0.4470552
vn -0.8660254 0.0000000 0.5000001
vn -0.9659258 0.0000000 0.2588191
vn -0.8945064 0.0000000 0.4470552
vn -0.9659258 0.0000000 0.2588191
vn -0.9659258 0.0000000 0.2588191
vn -0.7071069 0.0000000 0.7071067
vn -0.7071069 0.0000000 0.7071067
vn -0.7483205 0.0000000 0.6633374
vn -0.7483205 0.0000000 0.6633374
vn -0.7071069 0.0000000 0.7071067
vn -0.8660254 0.0000000 0.5000001
vn -0.7483205 0.0000000 0.6633374
vn -0.8660254 0.0000000 0.5000001
vn -0.8660254 0.0000000 0.5000001
vn -0.5000002 0.0000000 0.8660253
vn -0.5000002 0.0000000 0.8660253
vn -0.5511378 0.0000000 0.8344142
vn -0.5511378 0.0000000 0.8344142
vn -0.5000002 0.0000000 0.8660253
vn -0.7071069 0.0000000 0.7071067
vn -0.5511378 0.0000000 0.8344142
vn -0.7071069 0.0000000 0.7071067
vn -0.7071069 0.0000000 0.7071067
vn -0.2588191 0.0000000 0.9659258
vn -0.2588191 0.0000000 0.9659258
vn -0.3163959 0.0000000 0.9486272
vn -0.3163959 0.0000000 0.9486272
vn -0.2588191 0.0000000 0.9659258
vn -0.5000002 0.0000000 0.8660253
vn -0.3163959 0.0000000 0.9486272
vn -0.5000002 0.0000000 0.8660253
vn -0.5000002 0.0000000 0.8660253
vn 0.0000000 0.0000000 1.0000000
vn 0.0000000 0.0000000 1.0000000
vn -0.0600921 0.0000000 0.9981928
vn -0.0600921 0.0000000 0.9981928
vn 0.0000000 0.0000000 1.0000000
vn -0.2588191 0.0000000 0.9659258
vn -0.0600921 0.0000000 0.9981928
vn -0.2588191 0.0000000 0.9659258
vn -0.2588191 0.0000000 0.9659258
vn 0.0000000 1.0000000 0.0000000
vn -0.0000006 1.0000000 0.0000000
vn -0.0000006 1.0000000 0.0000000
vn 0.0000000 1.0000000 0.0000000
vn -0.0000006 1.0000000 0.0000000
vn 0.0000000 1.0000000 0.0000000
vn -0.0000006 1.0000000 0.0000000
vn -0.0000012 1.0000000 0.0000000
vn -0.0000012 1.0000000 0.0000000
vn -0.0000006 1.0000000 0.0000000
vn -0.0000012 1.0000000 0.0000000
vn -0.0000006 1.0000000 0.0000000
vn -0.0000012 1.0000000 0.0000000
vn -0.0000006 1.0000000 0.0000000
vn -0.0000006 1.0000000 0.0000000
vn -0.0000012 1.0000000 0.0000000
vn -0.0000006 1.0000000 0.0000000
vn -0.0000012 1.0000000 0.0000000
vn -0.0000006 1.0000000 0.0000000
vn -0.0000006 1.0000000 0.0000000
vn -0.0000006 1.0000000 0.0000000
vn -0.0000006 1.0000000 0.0000000
vn -0.0000006 1.0000000 0.0000000
vn -0.0000006 1.0000000 0.0000000
vn -0.0000006 1.0000000 0.0000000
vn -0.0000007 1.0000000 0.0000000
vn -0.0000007 1.0000000 0.0000000
vn -0.0000006 1.0000000 0.0000000
vn -0.0000007 1.0000000 0.0000000
vn -0.0000006 1.0000000 0.0000000
vn -0.0000007 1.0000000 0.0000000
vn 0.0000000 1.0000000 0.0000000
vn 0.0000000 1.0000000 0.0000000
vn -0.0000007 1.0000000 0.0000000
vn 0.0000000 1.0000000 0.0000000
vn -0.0000007 1.0000000 0.0000000
vn 1.0000000 0.0000000 0.0000000
vn 1.0000000 0.0000000 0.0000000
vn 0.9659258 0.0000000 -0.2588190
vn 1.0000000 0.0000000 0.0000000
vn 0.9659258 0.0000000 -0.2588190
vn 0.9797332 0.0000000 -0.2003068
vn 0.9797332 0.0000000 -0.2003068
vn 0.9659258 0.0000000 -0.2588190
vn 0.9659258 0.0000000 -0.2588190
vn 0.9659258 0.0000000 -0.2588190
vn 0.9659258 0.0000000 -0.2588190
vn 0.8660255 0.0000000 -0.4999998
vn 0.9659258 0.0000000 -0.2588190
vn 0.8660255 0.0000000 -0.4999998
vn 0.8945065 0.0000000 -0.4470550
vn 0.8945065 0.0000000 -0.4470550
vn 0.8660255 0.0000000 -0.4999998
vn 0.8660255 0.0000000 -0.4999998
vn 0.8660255 0.0000000 -0.4999998
vn 0.8660255 0.0000000 -0.4999998
vn 0.7071068 0.0000000 -0.7071068
vn 0.8660255 0.0000000 -0.4999998
vn 0.7071068 0.0000000 -0.7071068
vn 0.7483205 0.0000000 -0.6633374
vn 0.7483205 0.0000000 -0.6633374
vn 0.7071068 0.0000000 -0.7071068
vn 0.7071068 0.0000000 -0.7071068
vn 0.7071068 0.0000000 -0.7071068
vn 0.7071068 0.0000000 -0.7071068
vn 0.4999999 0.0000000 -0.8660255
vn 0.7071068 0.0000000 -0.7071068
vn 0.4999999 0.0000000 -0.8660255
vn 0.5511376 0.0000000 -0.8344144
vn 0.5511376 0.0000000 -0.8344144
vn 0.4999999 0.0000000 -0.8660255
vn 0.4999999 0.0000000 -0.8660255
vn 0.4999999 0.0000000 -0.8660255
vn 0.4999999 0.0000000 -0.8660255
vn 0.2588190 0.0000000 -0.9659258
vn 0.4999999 0.0000000 -0.8660255
vn 0.2588190 0.0000000 -0.9659258
vn 0.3163957 0.0000000 -0.9486273
vn 0.3163957 0.0000000 -0.9486273
vn 0.2588190 0.0000000 -0.9659258
vn 0.2588190 0.0000000 -0.9659258
vn 0.2588190 0.0000000 -0.9659258
vn 0.2588190 0.0000000 -0.9659258
vn 0.0000000 0.0000000 -1.0000000
vn 0.2588190 0.0000000 -0.9659258
vn 0.0000000 0.0000000 -1.0000000
vn 0.0600920 0.0000000 -0.9981928
vn 0.0600920 0.0000000 -0.9981928
vn 0.0000000 0.0000000 -1.0000000
vn 0.0000000 0.0000000 -1.0000000
vn -1.0000000 0.0000000 0.0000000
vn -0.9659258 0.0000000 0.2588190
vn -0.9659258 0.0000000 0.2588190
vn -1.0000000 0.0000000 0.0000000
vn -0.9659258 0.0000000 0.2588190
vn -0.9892975 0.0000000 0.1459123
vn -1.0000000 0.0000000 0.0000000
vn -0.9892975 0.0000000 0.1459123
vn -1.0000000 0.0000000 0.0000000
vn -0.9659258 0.0000000 0.2588190
vn -0.8660254 0.0000000 0.5000001
vn -0.8660254 0.0000000 0.5000001
vn -0.9659258 0.0000000 0.2588190
vn -0.8660254 0.0000000 0.5000001
vn -0.9178231 0.0000000 0.3969895
vn -0.9659258 0.0000000 0.2588190
vn -0.9178231 0.0000000 0.3969895
vn -0.9659258 0.0000000 0.2588190
vn -0.8660254 0.0000000 0.5000001
vn -0.7071067 0.0000000 0.7071068
vn -0.7071067 0.0000000 0.7071068
vn -0.8660254 0.0000000 0.5000001
vn -0.7071067 0.0000000 0.7071068
vn -0.7838006 0.0000000 0.6210126
vn -0.8660254 0.0000000 0.5000001
vn -0.7838006 0.0000000 0.6210126
vn -0.8660254 0.0000000 0.5000001
vn -0.7071067 0.0000000 0.7071068
vn -0.5000001 0.0000000 0.8660254
vn -0.5000001 0.0000000 0.8660254
vn -0.7071067 0.0000000 0.7071068
vn -0.5000001 0.0000000 0.8660254
vn -0.5963634 0.0000000 0.8027146
vn -0.7071067 0.0000000 0.7071068
vn -0.5963634 0.0000000 0.8027146
vn -0.7071067 0.0000000 0.7071068
vn -0.5000001 0.0000000 0.8660254
vn -0.2588191 0.0000000 0.9659258
vn -0.2588191 0.0000000 0.9659258
vn -0.5000001 0.0000000 0.8660254
vn -0.2588191 0.0000000 0.9659258
vn -0.3682851 0.0000000 0.9297129
vn -0.5000001 0.0000000 0.8660254
vn -0.3682851 0.0000000 0.9297129
vn -0.5000001 0.0000000 0.8660254
vn -0.2588191 0.0000000 0.9659258
vn 0.0000000 0.0000000 1.0000000
vn 0.0000000 0.0000000 1.0000000
vn -0.2588191 0.0000000 0.9659258
vn 0.0000000 0.0000000 1.0000000
vn -0.1151086 0.0000000 0.9933529
vn -0.2588191 0.0000000 0.9659258
vn -0.1151086 0.0000000 0.9933529
vn -0.2588191 0.0000000 0.9659258
vn 0.0000000 -1.0000000 0.0000000
vn 0.0000000 -1.0000000 0.0000000
vn 0.0000000 -1.0000000 0.0000000
vn 0.0000000 -1.0000000 0.0000000
vn 0.0000000 -1.0000000 0.0000000
vn 0.0000000 -1.0000000 0.0000000
vn 0.0000000 -1.0000000 0.0000000
vn 0.0000000 -1.0000000 0.0000000
vn 0.0000000 -1.0000000 0.0000000
vn 0.0000000 -1.0000000 0.0000000
vn 0.0000000 -1.0000000 0.0000000
vn 0.0000000 -1.0000000 0.0000000
vn 0.0000000 -1.0000000 0.0000000
vn 0.0000000 -1.0000000 0.0000000
vn 0.0000000 -1.0000000 0.0000000
vn 0.0000000 -1.0000000 0.0000000
vn 0.0000000 -1.0000000 0.0000000
vn 0.0000000 -1.0000000 0.0000000
vn 0.0000000 -1.0000000 0.0000000
vn 0.0000000 -1.0000000 0.0000000
vn 0.0000000 -1.0000000 0.0000000
vn 0.0000000 -1.0000000 0.0000000
vn 0.0000000 -1.0000000 0.0000000
vn 0.0000000 -1.0000000 0.0000000
vn 0.0000000 -1.0000000 0.0000000
vn 0.0000000 -1.0000000 0.0000000
vn 0.0000000 -1.0000000 0.0000000
vn 0.0000000 -1.0000000 0.0000000
vn 0.0000000 -1.0000000 0.0000000
vn 0.0000000 -1.0000000 0.0000000
vn 0.0000000 -1.0000000 0.0000000
vn 0.0000000 -1.0000000 0.0000000
vn 0.0000000 -1.0000000 0.0000000
f 1/1/1 2/2/2 3/3/3
f 4/4/4 5/5/5 6/6/6
f 7/7/7 8/8/8 9/9/9
f 10/10/10 11/11/11 12/12/12
f 13/13/13 14/14/14 15/15/15
f 16/16/16 17/17/17 18/18/18
f 19/19/19 20/20/20 21/21/21
f 22/22/22 23/23/23 24/24/24
f 25/25/25 26/26/26 27/27/27
f 28/28/28 29/29/29 30/30/30
f 31/31/31 32/32/32 33/33/33
f 34/34/34 35/35/35 36/36/36
f 37/37/37 38/38/38 39/39/39
f 40/40/40 41/41/41 42/42/42
f 43/43/43 44/44/44 45/45/45
f 46/46/46 47/47/47 48/48/48
f 49/49/49 50/50/50 51/51/51
f 52/52/52 53/53/53 54/54/54
f 55/55/55 56/56/56 57/57/57
f 58/58/58 59/59/59 60/60/60
f 61/61/61 62/62/62 63/63/63
f 64/64/64 65/65/65 66/66/66
f 67/67/67 68/68/68 69/69/69
f 70/70/70 71/71/71 72/72/72
f 73/73/73 74/74/74 75/75/75
f 76/76/76 77/77/77 78/78/78
f 79/79/79 80/80/80 81/81/81
f 82/82/82 83/83/83 84/84/84
f 85/85/85 86/86/86 87/87/87
f 88/88/88 89/89/89 90/90/90
f 91/91/91 92/92/92 93/93/93
f 94/94/94 95/95/95 96/96/96
f 97/97/97 98/98/98 99/99/99
f 100/100/100 101/101/101 102/102/102
f 103/103/103 104/104/104 105/105/105
f 106/106/106 107/107/107 108/108/108
f 109/109/109 110/110/110 111/111/111
f 112/112/112 113/113/113 114/114/114
f 115/115/115 116/116/116 117/117/117
f 118/118/118 119/119/119 120/120/120
f 121/121/121 122/122/122 123/123/123
f 124/124/124 125/125/125 126/126/126
f 127/127/127 128/128/128 129/129/129
f 130/130/130 131/131/131 132/132/132
f 133/133/133 134/134/134 135/135/135
f 136/136/136 137/137/137 138/138/138
f 139/139/139 140/140/140 141/141/141
f 142/142/142 143/143/143 144/144/144
f 145/145/145 146/146/146 147/147/147
f 148/148/148 149/149/149 150/150/150
f 151/151/151 152/152/152 153/153/153
f 154/154/154 155/155/155 156/156/156
f 157/157/157 158/158/158 159/159/159
f 160/160/160 161/161/161 162/162/162
f 163/163/163 164/164/164 165/165/165
f 166/166/166 167/167/167 168/168/168
f 169/169/169 170/170/170 171/171/171
f 172/172/172 173/173/173 174/174/174
f 175/175/175 176/176/176 177/177/177
f 178/178/178 179/179/179 180/180/180
f 181/181/181 182/182/182 183/183/183
f 184/184/184 185/185/185 186/186/186
f 187/187/187 188/188/188 189/189/189
f 190/190/190 191/191/191 192/192/192
f 193/193/193 194/194/194 195/195/195
f 196/196/196 197/197/197 198/198/198
f 199/199/199 200/200/200 201/201/201
f 202/202/202 203/203/203 204/204/204
f 205/205/205 206/206/206 207/207/207
f 208/208/208 209/209/209 210/210/210
f 211/211/211 212/212/212 213/213/213
f 214/214/214 215/215/215 216/216/216
f 217/217/217 218/218/218 219/219/219
f 220/220/220 221/221/221 222/222/222
f 223/223/223 224/224/224 225/225/225
f 226/226/226 227/227/227 228/228/228
f 229/229/229 230/230/230 231/231/231
f 232/232/232 233/233/233 234/234/234
f 235/235/235 236/236/236 237/237/237
f 238/238/238 239/239/239 240/240/240
f 241/241/241 242/242/242 243/243/243
f 244/244/244 245/245/245 246/246/246
f 247/247/247 248/248/248 249/249/249
f 250/250/250 251/251/251 252/252/252
f 253/253/253 254/254/254 255/255/255
f 256/256/256 257/257/257 258/258/258
f 259/259/259 260/260/260 261/261/261
f 262/262/262 263/263/263 264/264/264
f 265/265/265 266/266/266 267/267/267
f 268/268/268 269/269/269 270/270/270
f 271/271/271 272/272/272 273/273/273
f 274/274/274 275/275/275 276/276/276
f 277/277/277 278/278/278 279/279/279
f 280/280/280 281/281/281 282/282/282
f 283/283/283 284/284/284 285/285/285
f 286/286/286 287/287/287 288/288/288
f 289/289/289 290/290/290 291/291/291
f 292/292/292 293/293/293 294/294/294
f 295/295/295 296/296/296 297/297/297
f 298/298/298 299/299/299 300/300/300
f 301/301/301 302/302/302 303/303/303
f 304/304/304 305/305/305 306/306/306
f 307/307/307 308/308/308 309/309/309
f 310/310/310 311/311/311 312/312/312
f 313/313/313 314/314/314 315/315/315
f 316/316/316 317/317/317 318/318/318
f 319/319/319 320/320/320 321/321/321
f 322/322/322 323/323/323 324/324/324
f 325/325/325 326/326/326 327/327/327
f 328/328/328 329/329/329 330/330/330
f 331/331/331 332/332/332 333/333/333
f 334/334/334 335/335/335 336/336/336
f 337/337/337 338/338/338 339/339/339
f 340/340/340 341/341/341 342/342/342
f 343/343/343 344/344/344 345/345/345
f 346/346/346 347/347/347 348/348/348
f 349/349/349 350/350/350 351/351/351
f 352/352/352 353/353/353 354/354/354
f 355/355/355 356/356/356 357/357/357
f 358/358/358 359/359/359 360/360/360
f 361/361/361 362/362/362 363/363/363
f 364/364/364 365/365/365 366/366/366
f 367/367/367 368/368/368 369/369/369
f 370/370/370 371/371/371 372/372/372
f 373/373/373 374/374/374 375/375/375
f 376/376/376 377/377/377 378/378/378
f 379/379/379 380/380/380 381/381/381
f 382/382/382 383/383/383 384/384/384
f 385/385/385 386/386/386 387/387/387
f 388/388/388 389/389/389 390/390/390
f 391/391/391 392/392/392 393/393/393
f 394/394/394 395/395/395 396/396/396
f 397/397/397 398/398/398 399/399/399
f 400/400/400 401/401/401 402/402/402
f 403/403/403 404/404/404 405/405/405
f 406/406/406 407/407/407 408/408/408
f 409/409/409 410/410/410 411/411/411
f 412/412/412 413/413/413 414/414/414
f 415/415/415 416/416/416 417/417/417
f 418/418/418 419/419/419 420/420/420
f 421/421/421 422/422/422 423/423/423
f 424/424/424 425/425/425 426/426/426
f 427/427/427 428/428/428 429/429/429
f 430/430/430 431/431/431 432/432/432
f 433/433/433 434/434/434 435/435/435
f 436/436/436 437/437/437 438/438/438
f 439/439/439 440/440/440 441/441/441
f 442/442/442 443/443/443 444/444/444
f 445/445/445 446/446/446 447/447/447
f 448/448/448 449/449/449 450/450/450
f 451/451/451 452/452/452 453/453/453
f 454/454/454 455/455/455 456/456/456
f 457/457/457 458/458/458 459/459/459
f 460/460/460 461/461/461 462/462/462
f 463/463/463 464/464/464 465/465/465
f 466/466/466 467/467/467 468/468/468
f 469/469/469 470/470/470 471/471/471
f 472/472/472 473/473/473 474/474/474
f 475/475/475 476/476/476 477/477/477
f 478/478/478 479/479/479 480/480/480
f 481/481/481 482/482/482 483/483/483
f 484/484/484 485/485/485 486/486/486
f 487/487/487 488/488/488 489/489/489
f 490/490/490 491/491/491 492/492/492
f 493/493/493 494/494/494 495/495/495
f 496/496/496 497/497/497 498/498/498
f 499/499/499 500/500/500 501/501/501
f 502/502/502 503/503/503 504/504/504
f 505/505/505 506/506/506 507/507/507
f 508/508/508 509/509/509 510/510/510
f 511/511/511 512/512/512 513/513/513
f 514/514/514 515/515/515 516/516/516
f 517/517/517 518/518/518 519/519/519
f 520/520/520 521/521/521 522/522/522
f 523/523/523 524/524/524 525/525/525
f 526/526/526 527/527/527 528/528/528
f 529/529/529 530/530/530 531/531/531
f 532/532/532 533/533/533 534/534/534
f 535/535/535 536/536/536 537/537/537
f 538/538/538 539/539/539 540/540/540
f 541/541/541 542/542/542 543/543/543
f 544/544/544 545/545/545 546/546/546
f 547/547/547 548/548/548 549/549/549
f 550/550/550 551/551/551 552/552/552
f 553/553/553 554/554/554 555/555/555
f 556/556/556 557/557/557 558/558/558
f 559/559/559 560/560/560 561/561/561
f 562/562/562 563/563/563 564/564/564
f 565/565/565 566/566/566 567/567/567
f 568/568/568 569/569/569 570/570/570
f 571/571/571 572/572/572 573/573/573
f 574/574/574 575/575/575 576/576/576
f 577/577/577 578/578/578 579/579/579
f 580/580/580 581/581/581 582/582/582
f 583/583/583 584/584/584 585/585/585
f 586/586/586 587/587/587 588/588/588
f 589/589/589 590/590/590 591/591/591
f 592/592/592 593/593/593 594/594/594
f 595/595/595 596/596/596 597/597/597
f 598/598/598 599/599/599 600/600/600
f 601/601/601 602/602/602 603/603/603
f 604/604/604 605/605/605 606/606/606
f 607/607/607 608/608/608 609/609/609
f 610/610/610 611/611/611 612/612/612
f 613/613/613 614/614/614 615/615/615
f 616/616/616 617/617/617 618/618/618
f 619/619/619 620/620/620 621/621/621
f 622/622/622 623/623/623 624/624/624
f 625/625/625 626/626/626 627/627/627
f 628/628/628 629/629/629 630/630/630
f 631/631/631 632/632/632 633/633/633
f 634/634/634 635/635/635 636/636/636
f 637/637/637 638/638/638 639/639/639
f 640/640/640 641/641/641 642/642/642
f 643/643/643 644/644/644 645/645/645
f 646/646/646 647/647/647 648/648/648
f 649/649/649 650/650/650 651/651/651
f 652/652/652 653/653/653 654/654/654
f 655/655/655 656/656/656 657/657/657
f 658/658/658 659/659/659 660/660/660
f 661/661/661 662/662/662 663/663/663
f 664/664/664 665/665/665 666/666/666
f 667/667/667 668/668/668 669/669/669
f 670/670/670 671/671/671 672/672/672
