# metre = block; Y up; per-cell coordinates; atlas UVs preserved
mtllib materials.mtl
o cell_0
usemtl pump_atlas
v 0.8964724 0.8499999 0.6136297
v 1.0000000 0.8499999 0.6000000
v 1.0000000 0.7500000 0.7100000
v 0.8964724 0.8499999 0.6136297
v 1.0000000 0.7500000 0.7100000
v 0.9249425 0.7500000 0.7198815
v 0.8000000 0.8499999 0.6535898
v 0.8964724 0.8499999 0.6136297
v 0.9249425 0.7500000 0.7198815
v 0.8000000 0.8499999 0.6535898
v 0.9249425 0.7500000 0.7198815
v 0.8550000 0.7500000 0.7488526
v 0.7171573 0.8499999 0.7171573
v 0.8000000 0.8499999 0.6535898
v 0.8550000 0.7500000 0.7488526
v 0.7171573 0.8499999 0.7171573
v 0.8550000 0.7500000 0.7488526
v 0.7949390 0.7500000 0.7949390
v 0.6535898 0.8499999 0.8000000
v 0.7171573 0.8499999 0.7171573
v 0.7949390 0.7500000 0.7949390
v 0.6535898 0.8499999 0.8000000
v 0.7949390 0.7500000 0.7949390
v 0.7488526 0.7500000 0.8550000
v 0.6136297 0.8499999 0.8964724
v 0.6535898 0.8499999 0.8000000
v 0.7488526 0.7500000 0.8550000
v 0.6136297 0.8499999 0.8964724
v 0.7488526 0.7500000 0.8550000
v 0.7198815 0.7500000 0.9249425
v 0.6000000 0.8499999 1.0000000
v 0.6136297 0.8499999 0.8964724
v 0.7198815 0.7500000 0.9249425
v 0.6000000 0.8499999 1.0000000
v 0.7198815 0.7500000 0.9249425
v 0.7100000 0.7500000 1.0000000
v 0.8964724 0.8499999 0.6136297
v 0.8964724 1.0000000 0.6136297
v 1.0000000 1.0000000 0.6000000
v 0.8964724 0.8499999 0.6136297
v 1.0000000 1.0000000 0.6000000
v 1.0000000 0.8499999 0.6000000
v 0.8000000 0.8499999 0.6535898
v 0.8000000 1.0000000 0.6535898
v 0.8964724 1.0000000 0.6136297
v 0.8000000 0.8499999 0.6535898
v 0.8964724 1.0000000 0.6136297
v 0.8964724 0.8499999 0.6136297
v 0.7171573 0.8499999 0.7171573
v 0.7171573 1.0000000 0.7171573
v 0.8000000 1.0000000 0.6535898
v 0.7171573 0.8499999 0.7171573
v 0.8000000 1.0000000 0.6535898
v 0.8000000 0.8499999 0.6535898
v 0.6535898 0.8499999 0.8000000
v 0.6535898 1.0000000 0.8000000
v 0.7171573 1.0000000 0.7171573
v 0.6535898 0.8499999 0.8000000
v 0.7171573 1.0000000 0.7171573
v 0.7171573 0.8499999 0.7171573
v 0.6136297 0.8499999 0.8964724
v 0.6136297 1.0000000 0.8964724
v 0.6535898 1.0000000 0.8000000
v 0.6136297 0.8499999 0.8964724
v 0.6535898 1.0000000 0.8000000
v 0.6535898 0.8499999 0.8000000
v 0.6000000 0.8499999 1.0000000
v 0.6000000 1.0000000 1.0000000
v 0.6136297 1.0000000 0.8964724
v 0.6000000 0.8499999 1.0000000
v 0.6136297 1.0000000 0.8964724
v 0.6136297 0.8499999 0.8964724
v 0.7100000 0.7500000 1.0000000
v 0.7198815 0.7500000 0.9249425
v 0.7488526 0.7500000 0.8550000
v 0.7100000 0.7500000 1.0000000
v 0.7488526 0.7500000 0.8550000
v 0.7949390 0.7500000 0.7949390
v 0.7100000 0.7500000 1.0000000
v 0.7949390 0.7500000 0.7949390
v 0.8550000 0.7500000 0.7488526
v 0.7100000 0.7500000 1.0000000
v 0.8550000 0.7500000 0.7488526
v 0.9249425 0.7500000 0.7198815
v 0.7100000 0.7500000 1.0000000
v 0.9249425 0.7500000 0.7198815
v 1.0000000 0.7500000 0.7100000
v 0.7100000 0.7500000 1.0000000
v 1.0000000 0.7500000 0.7100000
v 1.0000000 0.7500000 0.7774752
v 0.7100000 0.7500000 1.0000000
v 1.0000000 0.7500000 0.7774752
v 1.0000000 0.7500000 0.8325684
v 0.7100000 0.7500000 1.0000000
v 1.0000000 0.7500000 0.8325684
v 1.0000000 0.7500000 0.8798781
v 0.7100000 0.7500000 1.0000000
v 1.0000000 0.7500000 0.8798781
v 1.0000000 0.7500000 0.9222947
v 0.7100000 0.7500000 1.0000000
v 1.0000000 0.7500000 0.9222947
v 1.0000000 0.7500000 0.9618208
v 0.7100000 0.7500000 1.0000000
v 1.0000000 0.7500000 0.9618208
v 1.0000000 0.7500000 1.0000000
v 0.8900019 0.9600000 0.5894815
v 0.8900019 1.0000000 0.5894815
v 0.9576930 1.0000000 0.5805698
v 0.8900019 0.9600000 0.5894815
v 0.9576930 1.0000000 0.5805698
v 1.0000000 1.0000000 0.5750000
v 0.8900019 0.9600000 0.5894815
v 1.0000000 1.0000000 0.5750000
v 1.0000000 0.9600000 0.5750000
v 0.7875000 0.9600000 0.6319392
v 0.7875000 1.0000000 0.6319392
v 0.8505781 1.0000000 0.6058114
v 0.7875000 0.9600000 0.6319392
v 0.8505781 1.0000000 0.6058114
v 0.8900019 1.0000000 0.5894815
v 0.7875000 0.9600000 0.6319392
v 0.8900019 1.0000000 0.5894815
v 0.8900019 0.9600000 0.5894815
v 0.6994796 0.9600000 0.6994796
v 0.6994796 1.0000000 0.6994796
v 0.7536460 1.0000000 0.6579163
v 0.6994796 0.9600000 0.6994796
v 0.7536460 1.0000000 0.6579163
v 0.7875000 1.0000000 0.6319392
v 0.6994796 0.9600000 0.6994796
v 0.7875000 1.0000000 0.6319392
v 0.7875000 0.9600000 0.6319392
v 0.6319392 0.9600000 0.7875000
v 0.6319392 1.0000000 0.7875000
v 0.6735025 1.0000000 0.7333336
v 0.6319392 0.9600000 0.7875000
v 0.6735025 1.0000000 0.7333336
v 0.6994796 1.0000000 0.6994796
v 0.6319392 0.9600000 0.7875000
v 0.6994796 1.0000000 0.6994796
v 0.6994796 0.9600000 0.6994796
v 0.5894815 0.9600000 0.8900019
v 0.5894815 1.0000000 0.8900019
v 0.6156093 1.0000000 0.8269238
v 0.5894815 0.9600000 0.8900019
v 0.6156093 1.0000000 0.8269238
v 0.6319392 1.0000000 0.7875000
v 0.5894815 0.9600000 0.8900019
v 0.6319392 1.0000000 0.7875000
v 0.6319392 0.9600000 0.7875000
v 0.5750000 0.9600000 1.0000000
v 0.5750000 1.0000000 1.0000000
v 0.5839117 1.0000000 0.9323089
v 0.5750000 0.9600000 1.0000000
v 0.5839117 1.0000000 0.9323089
v 0.5894815 1.0000000 0.8900019
v 0.5750000 0.9600000 1.0000000
v 0.5894815 1.0000000 0.8900019
v 0.5894815 0.9600000 0.8900019
v 0.9055310 0.9600000 0.6474371
v 1.0000000 0.9600000 0.6350000
v 1.0000000 1.0000000 0.6350000
v 0.9055310 0.9600000 0.6474371
v 1.0000000 1.0000000 0.6350000
v 0.9636658 1.0000000 0.6397835
v 0.9055310 0.9600000 0.6474371
v 0.9636658 1.0000000 0.6397835
v 0.9055310 1.0000000 0.6474371
v 0.8175000 0.9600000 0.6839007
v 0.9055310 0.9600000 0.6474371
v 0.9055310 1.0000000 0.6474371
v 0.8175000 0.9600000 0.6839007
v 0.9055310 1.0000000 0.6474371
v 0.8716729 1.0000000 0.6614616
v 0.8175000 0.9600000 0.6839007
v 0.8716729 1.0000000 0.6614616
v 0.8175000 1.0000000 0.6839007
v 0.7419060 0.9600000 0.7419060
v 0.8175000 0.9600000 0.6839007
v 0.8175000 1.0000000 0.6839007
v 0.7419060 0.9600000 0.7419060
v 0.8175000 1.0000000 0.6839007
v 0.7884254 1.0000000 0.7062104
v 0.7419060 0.9600000 0.7419060
v 0.7884254 1.0000000 0.7062104
v 0.7419060 1.0000000 0.7419060
v 0.6839007 0.9600000 0.8175000
v 0.7419060 0.9600000 0.7419060
v 0.7419060 1.0000000 0.7419060
v 0.6839007 0.9600000 0.8175000
v 0.7419060 1.0000000 0.7419060
v 0.7195963 1.0000000 0.7709806
v 0.6839007 0.9600000 0.8175000
v 0.7195963 1.0000000 0.7709806
v 0.6839007 1.0000000 0.8175000
v 0.6474371 0.9600000 0.9055310
v 0.6839007 0.9600000 0.8175000
v 0.6839007 1.0000000 0.8175000
v 0.6474371 0.9600000 0.9055310
v 0.6839007 1.0000000 0.8175000
v 0.6698762 1.0000000 0.8513581
v 0.6474371 0.9600000 0.9055310
v 0.6698762 1.0000000 0.8513581
v 0.6474371 1.0000000 0.9055310
v 0.6350000 0.9600000 1.0000000
v 0.6474371 0.9600000 0.9055310
v 0.6474371 1.0000000 0.9055310
v 0.6350000 0.9600000 1.0000000
v 0.6474371 1.0000000 0.9055310
v 0.6426536 1.0000000 0.9418652
v 0.6350000 0.9600000 1.0000000
v 0.6426536 1.0000000 0.9418652
v 0.6350000 1.0000000 1.0000000
v 0.8900019 0.9600000 0.5894815
v 1.0000000 0.9600000 0.5750000
v 1.0000000 0.9600000 0.6350000
v 0.8900019 0.9600000 0.5894815
v 1.0000000 0.9600000 0.6350000
v 0.9055310 0.9600000 0.6474371
v 0.7875000 0.9600000 0.6319392
v 0.8900019 0.9600000 0.5894815
v 0.9055310 0.9600000 0.6474371
v 0.7875000 0.9600000 0.6319392
v 0.9055310 0.9600000 0.6474371
v 0.8175000 0.9600000 0.6839007
v 0.6994796 0.9600000 0.6994796
v 0.7875000 0.9600000 0.6319392
v 0.8175000 0.9600000 0.6839007
v 0.6994796 0.9600000 0.6994796
v 0.8175000 0.9600000 0.6839007
v 0.7419060 0.9600000 0.7419060
v 0.6319392 0.9600000 0.7875000
v 0.6994796 0.9600000 0.6994796
v 0.7419060 0.9600000 0.7419060
v 0.6319392 0.9600000 0.7875000
v 0.7419060 0.9600000 0.7419060
v 0.6839007 0.9600000 0.8175000
v 0.5894815 0.9600000 0.8900019
v 0.6319392 0.9600000 0.7875000
v 0.6839007 0.9600000 0.8175000
v 0.5894815 0.9600000 0.8900019
v 0.6839007 0.9600000 0.8175000
v 0.6474371 0.9600000 0.9055310
v 0.5750000 0.9600000 1.0000000
v 0.5894815 0.9600000 0.8900019
v 0.6474371 0.9600000 0.9055310
v 0.5750000 0.9600000 1.0000000
v 0.6474371 0.9600000 0.9055310
v 0.6350000 0.9600000 1.0000000
vt 0.4223348 0.1190972
vt 0.4375000 0.1210938
vt 0.4375000 0.1049805
vt 0.4223348 0.1190972
vt 0.4375000 0.1049805
vt 0.4265052 0.1035330
vt 0.4082031 0.1132437
vt 0.4223348 0.1190972
vt 0.4265052 0.1035330
vt 0.4082031 0.1132437
vt 0.4265052 0.1035330
vt 0.4162598 0.0992892
vt 0.3960679 0.1039320
vt 0.4082031 0.1132437
vt 0.4162598 0.0992892
vt 0.3960679 0.1039320
vt 0.4162598 0.0992892
vt 0.4074618 0.0925382
vt 0.3867563 0.0917969
vt 0.3960679 0.1039320
vt 0.4074618 0.0925382
vt 0.3867563 0.0917969
vt 0.4074618 0.0925382
vt 0.4007109 0.0837402
vt 0.3809028 0.0776652
vt 0.3867563 0.0917969
vt 0.4007109 0.0837402
vt 0.3809028 0.0776652
vt 0.4007109 0.0837402
vt 0.3964670 0.0734948
vt 0.3789062 0.0625000
vt 0.3809028 0.0776652
vt 0.3964670 0.0734948
vt 0.3789062 0.0625000
vt 0.3964670 0.0734948
vt 0.3950195 0.0625000
vt 0.4223348 0.0118782
vt 0.4223348 0.0238361
vt 0.4375000 0.0238361
vt 0.4223348 0.0118782
vt 0.4375000 0.0238361
vt 0.4375000 0.0118782
vt 0.4082031 0.0118782
vt 0.4082031 0.0238361
vt 0.4223348 0.0238361
vt 0.4082031 0.0118782
vt 0.4223348 0.0238361
vt 0.4223348 0.0118782
vt 0.3960679 0.0118782
vt 0.3960679 0.0238361
vt 0.4082031 0.0238361
vt 0.3960679 0.0118782
vt 0.4082031 0.0238361
vt 0.4082031 0.0118782
vt 0.4667969 0.0118782
vt 0.4667969 0.0238361
vt 0.4789321 0.0238361
vt 0.4667969 0.0118782
vt 0.4789321 0.0238361
vt 0.4789321 0.0118782
vt 0.4526652 0.0118782
vt 0.4526652 0.0238361
vt 0.4667969 0.0238361
vt 0.4526652 0.0118782
vt 0.4667969 0.0238361
vt 0.4667969 0.0118782
vt 0.4375000 0.0118782
vt 0.4375000 0.0238361
vt 0.4526652 0.0238361
vt 0.4375000 0.0118782
vt 0.4526652 0.0238361
vt 0.4526652 0.0118782
vt 0.3950195 0.0625000
vt 0.3964670 0.0734948
vt 0.4007109 0.0837402
vt 0.3950195 0.0625000
vt 0.4007109 0.0837402
vt 0.4074618 0.0925382
vt 0.3950195 0.0625000
vt 0.4074618 0.0925382
vt 0.4162598 0.0992892
vt 0.3950195 0.0625000
vt 0.4162598 0.0992892
vt 0.4265052 0.1035330
vt 0.3950195 0.0625000
vt 0.4265052 0.1035330
vt 0.4375000 0.1049805
vt 0.3950195 0.0625000
vt 0.4375000 0.1049805
vt 0.4375000 0.0950964
vt 0.3950195 0.0625000
vt 0.4375000 0.0950964
vt 0.4375000 0.0870261
vt 0.3950195 0.0625000
vt 0.4375000 0.0870261
vt 0.4375000 0.0800960
vt 0.3950195 0.0625000
vt 0.4375000 0.0800960
vt 0.4374999 0.0738826
vt 0.3950195 0.0625000
vt 0.4374999 0.0738826
vt 0.4375000 0.0680927
vt 0.3950195 0.0625000
vt 0.4375000 0.0680927
vt 0.4375000 0.0625000
vt 0.6723348 0.0039062
vt 0.6723348 0.0760216
vt 0.6816672 0.0760216
vt 0.6723348 0.0039062
vt 0.6816672 0.0760216
vt 0.6875000 0.0760216
vt 0.6723348 0.0039062
vt 0.6875000 0.0760216
vt 0.6875000 0.0039062
vt 0.6582031 0.0039062
vt 0.6582031 0.0760216
vt 0.6668995 0.0760216
vt 0.6582031 0.0039062
vt 0.6668995 0.0760216
vt 0.6723348 0.0760216
vt 0.6582031 0.0039062
vt 0.6723348 0.0760216
vt 0.6723348 0.0039062
vt 0.6460680 0.0039062
vt 0.6460680 0.0760216
vt 0.6535358 0.0760216
vt 0.6460680 0.0039062
vt 0.6535358 0.0760216
vt 0.6582031 0.0760216
vt 0.6460680 0.0039062
vt 0.6582031 0.0760216
vt 0.6582031 0.0039062
vt 0.7167969 0.0039062
vt 0.7167969 0.0760216
vt 0.7242647 0.0760216
vt 0.7167969 0.0039062
vt 0.7242647 0.0760216
vt 0.7289320 0.0760216
vt 0.7167969 0.0039062
vt 0.7289320 0.0760216
vt 0.7289320 0.0039062
vt 0.7026652 0.0039062
vt 0.7026652 0.0760216
vt 0.7113616 0.0760216
vt 0.7026652 0.0039062
vt 0.7113616 0.0760216
vt 0.7167969 0.0760216
vt 0.7026652 0.0039062
vt 0.7167969 0.0760216
vt 0.7167969 0.0039062
vt 0.6875000 0.0039062
vt 0.6875000 0.0760216
vt 0.6968324 0.0760216
vt 0.6875000 0.0039062
vt 0.6968324 0.0760216
vt 0.7026652 0.0760216
vt 0.6875000 0.0039062
vt 0.7026652 0.0760216
vt 0.7026652 0.0039062
vt 0.6744758 0.0039062
vt 0.6875000 0.0039062
vt 0.6875000 0.0760216
vt 0.6744758 0.0039062
vt 0.6875000 0.0760216
vt 0.6824907 0.0760216
vt 0.6744758 0.0039062
vt 0.6824907 0.0760216
vt 0.6744758 0.0760216
vt 0.6623392 0.0039062
vt 0.6744758 0.0039062
vt 0.6744758 0.0760216
vt 0.6623392 0.0039062
vt 0.6744758 0.0760216
vt 0.6698079 0.0760216
vt 0.6623392 0.0039062
vt 0.6698079 0.0760216
vt 0.6623392 0.0760216
vt 0.6519172 0.0039062
vt 0.6623392 0.0039062
vt 0.6623392 0.0760216
vt 0.6519172 0.0039062
vt 0.6623392 0.0760216
vt 0.6583307 0.0760216
vt 0.6519172 0.0039062
vt 0.6583307 0.0760216
vt 0.6519172 0.0760216
vt 0.7126608 0.0039062
vt 0.7230828 0.0039062
vt 0.7230828 0.0760216
vt 0.7126608 0.0039062
vt 0.7230828 0.0760216
vt 0.7190743 0.0760216
vt 0.7126608 0.0039062
vt 0.7190743 0.0760216
vt 0.7126608 0.0760216
vt 0.7005242 0.0039062
vt 0.7126608 0.0039062
vt 0.7126608 0.0760216
vt 0.7005242 0.0039062
vt 0.7126608 0.0760216
vt 0.7079929 0.0760216
vt 0.7005242 0.0039062
vt 0.7079929 0.0760216
vt 0.7005242 0.0760216
vt 0.6875000 0.0039062
vt 0.7005242 0.0039062
vt 0.7005242 0.0760216
vt 0.6875000 0.0039062
vt 0.7005242 0.0760216
vt 0.6955149 0.0760216
vt 0.6875000 0.0039062
vt 0.6955149 0.0760216
vt 0.6875000 0.0760216
vt 0.6723348 0.1190972
vt 0.6875000 0.1210938
vt 0.6875000 0.1128217
vt 0.6723348 0.1190972
vt 0.6875000 0.1128217
vt 0.6744758 0.1111070
vt 0.6582031 0.1132437
vt 0.6723348 0.1190972
vt 0.6744758 0.1111070
vt 0.6582031 0.1132437
vt 0.6744758 0.1111070
vt 0.6623392 0.1060799
vt 0.6460680 0.1039320
vt 0.6582031 0.1132437
vt 0.6623392 0.1060799
vt 0.6460680 0.1039320
vt 0.6623392 0.1060799
vt 0.6519172 0.0980828
vt 0.6367563 0.0917969
vt 0.6460680 0.1039320
vt 0.6519172 0.0980828
vt 0.6367563 0.0917969
vt 0.6519172 0.0980828
vt 0.6439201 0.0876608
vt 0.6309028 0.0776652
vt 0.6367563 0.0917969
vt 0.6439201 0.0876608
vt 0.6309028 0.0776652
vt 0.6439201 0.0876608
vt 0.6388930 0.0755242
vt 0.6289062 0.0625000
vt 0.6309028 0.0776652
vt 0.6388930 0.0755242
vt 0.6289062 0.0625000
vt 0.6388930 0.0755242
vt 0.6371783 0.0625000
vn -0.1741007 -0.7399403 -0.6497517
vn 0.0000005 -0.7399405 -0.6726724
vn 0.0000006 -0.7399405 -0.6726723
vn -0.1741007 -0.7399403 -0.6497517
vn 0.0000006 -0.7399405 -0.6726723
vn -0.1741007 -0.7399403 -0.6497517
vn -0.3363371 -0.7399401 -0.5825513
vn -0.1741007 -0.7399403 -0.6497517
vn -0.1741007 -0.7399403 -0.6497517
vn -0.3363371 -0.7399401 -0.5825513
vn -0.1741007 -0.7399403 -0.6497517
vn -0.3363371 -0.7399401 -0.5825512
vn -0.4756518 -0.7399402 -0.4756511
vn -0.3363371 -0.7399401 -0.5825513
vn -0.3363371 -0.7399401 -0.5825512
vn -0.4756518 -0.7399402 -0.4756511
vn -0.3363371 -0.7399401 -0.5825512
vn -0.4756518 -0.7399402 -0.4756511
vn -0.5825515 -0.7399404 -0.3363361
vn -0.4756518 -0.7399402 -0.4756511
vn -0.4756518 -0.7399402 -0.4756511
vn -0.5825515 -0.7399404 -0.3363361
vn -0.4756518 -0.7399402 -0.4756511
vn -0.5825515 -0.7399404 -0.3363360
vn -0.6497517 -0.7399404 -0.1741003
vn -0.5825515 -0.7399404 -0.3363361
vn -0.5825515 -0.7399404 -0.3363360
vn -0.6497517 -0.7399404 -0.1741003
vn -0.5825515 -0.7399404 -0.3363360
vn -0.6497517 -0.7399404 -0.1741003
vn -0.6726726 -0.7399403 0.0000000
vn -0.6497517 -0.7399404 -0.1741003
vn -0.6497517 -0.7399404 -0.1741003
vn -0.6726726 -0.7399403 0.0000000
vn -0.6497517 -0.7399404 -0.1741003
vn -0.6726726 -0.7399403 0.0000000
vn -0.2588190 0.0000000 -0.9659258
vn -0.2588190 0.0000000 -0.9659258
vn 0.0000000 0.0000000 -1.0000000
vn -0.2588190 0.0000000 -0.9659258
vn 0.0000000 0.0000000 -1.0000000
vn 0.0000000 0.0000000 -1.0000000
vn -0.4999999 0.0000000 -0.8660255
vn -0.4999999 0.0000000 -0.8660255
vn -0.2588190 0.0000000 -0.9659258
vn -0.4999999 0.0000000 -0.8660255
vn -0.2588190 0.0000000 -0.9659258
vn -0.2588190 0.0000000 -0.9659258
vn -0.7071069 0.0000000 -0.7071067
vn -0.7071069 0.0000000 -0.7071067
vn -0.4999999 0.0000000 -0.8660255
vn -0.7071069 0.0000000 -0.7071067
vn -0.4999999 0.0000000 -0.8660255
vn -0.4999999 0.0000000 -0.8660255
vn -0.8660255 0.0000000 -0.4999999
vn -0.8660255 0.0000000 -0.4999999
vn -0.7071069 0.0000000 -0.7071067
vn -0.8660255 0.0000000 -0.4999999
vn -0.7071069 0.0000000 -0.7071067
vn -0.7071069 0.0000000 -0.7071067
vn -0.9659258 0.0000000 -0.2588192
vn -0.9659258 0.0000000 -0.2588192
vn -0.8660255 0.0000000 -0.4999999
vn -0.9659258 0.0000000 -0.2588192
vn -0.8660255 0.0000000 -0.4999999
vn -0.8660255 0.0000000 -0.4999999
vn -1.0000000 0.0000000 0.0000000
vn -1.0000000 0.0000000 0.0000000
vn -0.9659258 0.0000000 -0.2588192
vn -1.0000000 0.0000000 0.0000000
vn -0.9659258 0.0000000 -0.2588192
vn -0.9659258 0.0000000 -0.2588192
vn 0.0000001 -1.0000000 0.0000000
vn 0.0000001 -1.0000000 0.0000000
vn 0.0000001 -1.0000000 0.0000000
vn 0.0000001 -1.0000000 0.0000000
vn 0.0000001 -1.0000000 0.0000000
vn 0.0000001 -1.0000000 0.0000000
vn 0.0000001 -1.0000000 0.0000000
vn 0.0000001 -1.0000000 0.0000000
vn 0.0000001 -1.0000000 0.0000000
vn 0.0000001 -1.0000000 0.0000000
vn 0.0000001 -1.0000000 0.0000000
vn 0.0000001 -1.0000000 0.0000000
vn 0.0000001 -1.0000000 0.0000000
vn 0.0000001 -1.0000000 0.0000000
vn 0.0000001 -1.0000000 0.0000000
vn 0.0000001 -1.0000000 0.0000000
vn 0.0000001 -1.0000000 0.0000000
vn 0.0000001 -1.0000000 0.0000000
vn 0.0000001 -1.0000000 0.0000000
vn 0.0000001 -1.0000000 0.0000000
vn 0.0000001 -1.0000000 0.0000000
vn 0.0000001 -1.0000000 0.0000000
vn 0.0000001 -1.0000000 0.0000000
vn 0.0000001 -1.0000000 0.0000000
vn 0.0000001 -1.0000000 0.0000000
vn 0.0000001 -1.0000000 0.0000000
vn 0.0000001 -1.0000000 0.0000000
vn 0.0000001 -1.0000000 0.0000000
vn 0.0000001 -1.0000000 0.0000000
vn 0.0000001 -1.0000000 0.0000000
vn 0.0000001 -1.0000000 0.0000000
vn 0.0000001 -1.0000000 0.0000000
vn 0.0000001 -1.0000000 0.0000000
vn -0.2588193 0.0000000 -0.9659258
vn -0.2588193 0.0000000 -0.9659258
vn -0.1003586 0.0000000 -0.9949513
vn -0.2588193 0.0000000 -0.9659258
vn -0.1003586 0.0000000 -0.9949513
vn 0.0000000 0.0000000 -1.0000000
vn -0.2588193 0.0000000 -0.9659258
vn 0.0000000 0.0000000 -1.0000000
vn 0.0000000 0.0000000 -1.0000000
vn -0.4999999 0.0000000 -0.8660255
vn -0.4999999 0.0000000 -0.8660255
vn -0.3544513 0.0000000 -0.9350745
vn -0.4999999 0.0000000 -0.8660255
vn -0.3544513 0.0000000 -0.9350745
vn -0.2588193 0.0000000 -0.9659258
vn -0.4999999 0.0000000 -0.8660255
vn -0.2588193 0.0000000 -0.9659258
vn -0.2588193 0.0000000 -0.9659258
vn -0.7071071 0.0000000 -0.7071065
vn -0.7071071 0.0000000 -0.7071065
vn -0.5843887 0.0000000 -0.8114739
vn -0.7071071 0.0000000 -0.7071065
vn -0.5843887 0.0000000 -0.8114739
vn -0.4999999 0.0000000 -0.8660255
vn -0.7071071 0.0000000 -0.7071065
vn -0.4999999 0.0000000 -0.8660255
vn -0.4999999 0.0000000 -0.8660255
vn -0.8660256 0.0000000 -0.4999997
vn -0.8660256 0.0000000 -0.4999997
vn -0.7745012 0.0000000 -0.6325724
vn -0.8660256 0.0000000 -0.4999997
vn -0.7745012 0.0000000 -0.6325724
vn -0.7071071 0.0000000 -0.7071065
vn -0.8660256 0.0000000 -0.4999997
vn -0.7071071 0.0000000 -0.7071065
vn -0.7071071 0.0000000 -0.7071065
vn -0.9659258 0.0000000 -0.2588192
vn -0.9659258 0.0000000 -0.2588192
vn -0.9118324 0.0000000 -0.4105626
vn -0.9659258 0.0000000 -0.2588192
vn -0.9118324 0.0000000 -0.4105626
vn -0.8660256 0.0000000 -0.4999997
vn -0.9659258 0.0000000 -0.2588192
vn -0.8660256 0.0000000 -0.4999997
vn -0.8660256 0.0000000 -0.4999997
vn -1.0000000 0.0000000 0.0000000
vn -1.0000000 0.0000000 0.0000000
vn -0.9870239 0.0000000 -0.1605736
vn -1.0000000 0.0000000 0.0000000
vn -0.9870239 0.0000000 -0.1605736
vn -0.9659258 0.0000000 -0.2588192
vn -1.0000000 0.0000000 0.0000000
vn -0.9659258 0.0000000 -0.2588192
vn -0.9659258 0.0000000 -0.2588192
vn 0.2588194 0.0000000 0.9659257
vn 0.0000000 0.0000000 1.0000000
vn 0.0000000 0.0000000 1.0000000
vn 0.2588194 0.0000000 0.9659257
vn 0.0000000 0.0000000 1.0000000
vn 0.1003586 0.0000000 0.9949513
vn 0.2588194 0.0000000 0.9659257
vn 0.1003586 0.0000000 0.9949513
vn 0.2588194 0.0000000 0.9659257
vn 0.5000002 0.0000000 0.8660253
vn 0.2588194 0.0000000 0.9659257
vn 0.2588194 0.0000000 0.9659257
vn 0.5000002 0.0000000 0.8660253
vn 0.2588194 0.0000000 0.9659257
vn 0.3544515 0.0000000 0.9350744
vn 0.5000002 0.0000000 0.8660253
vn 0.3544515 0.0000000 0.9350744
vn 0.5000002 0.0000000 0.8660253
vn 0.7071069 0.0000000 0.7071066
vn 0.5000002 0.0000000 0.8660253
vn 0.5000002 0.0000000 0.8660253
vn 0.7071069 0.0000000 0.7071066
vn 0.5000002 0.0000000 0.8660253
vn 0.5843888 0.0000000 0.8114738
vn 0.7071069 0.0000000 0.7071066
vn 0.5843888 0.0000000 0.8114738
vn 0.7071069 0.0000000 0.7071066
vn 0.8660255 0.0000000 0.4999999
vn 0.7071069 0.0000000 0.7071066
vn 0.7071069 0.0000000 0.7071066
vn 0.8660255 0.0000000 0.4999999
vn 0.7071069 0.0000000 0.7071066
vn 0.7745011 0.0000000 0.6325726
vn 0.8660255 0.0000000 0.4999999
vn 0.7745011 0.0000000 0.6325726
vn 0.8660255 0.0000000 0.4999999
vn 0.9659257 0.0000000 0.2588195
vn 0.8660255 0.0000000 0.4999999
vn 0.8660255 0.0000000 0.4999999
vn 0.9659257 0.0000000 0.2588195
vn 0.8660255 0.0000000 0.4999999
vn 0.9118323 0.0000000 0.4105628
vn 0.9659257 0.0000000 0.2588195
vn 0.9118323 0.0000000 0.4105628
vn 0.9659257 0.0000000 0.2588195
vn 1.0000000 0.0000000 0.0000000
vn 0.9659257 0.0000000 0.2588195
vn 0.9659257 0.0000000 0.2588195
vn 1.0000000 0.0000000 0.0000000
vn 0.9659257 0.0000000 0.2588195
vn 0.9870238 0.0000000 0.1605738
vn 1.0000000 0.0000000 0.0000000
vn 0.9870238 0.0000000 0.1605738
vn 1.0000000 0.0000000 0.0000000
vn 0.0000014 -1.0000000 0.0000000
vn 0.0000006 -1.0000000 0.0000000
vn 0.0000006 -1.0000000 0.0000000
vn 0.0000014 -1.0000000 0.0000000
vn 0.0000006 -1.0000000 0.0000000
vn 0.0000014 -1.0000000 0.0000000
vn 0.0000006 -1.0000000 0.0000000
vn 0.0000014 -1.0000000 0.0000000
vn 0.0000014 -1.0000000 0.0000000
vn 0.0000006 -1.0000000 0.0000000
vn 0.0000014 -1.0000000 0.0000000
vn 0.0000006 -1.0000000 0.0000000
vn 0.0000000 -1.0000000 0.0000000
vn 0.0000006 -1.0000000 0.0000000
vn 0.0000006 -1.0000000 0.0000000
vn 0.0000000 -1.0000000 0.0000000
vn 0.0000006 -1.0000000 0.0000000
vn 0.0000000 -1.0000000 0.0000000
vn 0.0000012 -1.0000000 0.0000000
vn 0.0000000 -1.0000000 0.0000000
vn 0.0000000 -1.0000000 0.0000000
vn 0.0000012 -1.0000000 0.0000000
vn 0.0000000 -1.0000000 0.0000000
vn 0.0000012 -1.0000000 0.0000000
vn 0.0000012 -1.0000000 0.0000000
vn 0.0000012 -1.0000000 0.0000000
vn 0.0000012 -1.0000000 0.0000000
vn 0.0000012 -1.0000000 0.0000000
vn 0.0000012 -1.0000000 0.0000000
vn 0.0000012 -1.0000000 0.0000000
vn 0.0000000 -1.0000000 0.0000000
vn 0.0000012 -1.0000000 0.0000000
vn 0.0000012 -1.0000000 0.0000000
vn 0.0000000 -1.0000000 0.0000000
vn 0.0000012 -1.0000000 0.0000000
vn 0.0000000 -1.0000000 0.0000000
f 1/1/1 2/2/2 3/3/3
f 4/4/4 5/5/5 6/6/6
f 7/7/7 8/8/8 9/9/9
f 10/10/10 11/11/11 12/12/12
f 13/13/13 14/14/14 15/15/15
f 16/16/16 17/17/17 18/18/18
f 19/19/19 20/20/20 21/21/21
f 22/22/22 23/23/23 24/24/24
f 25/25/25 26/26/26 27/27/27
f 28/28/28 29/29/29 30/30/30
f 31/31/31 32/32/32 33/33/33
f 34/34/34 35/35/35 36/36/36
f 37/37/37 38/38/38 39/39/39
f 40/40/40 41/41/41 42/42/42
f 43/43/43 44/44/44 45/45/45
f 46/46/46 47/47/47 48/48/48
f 49/49/49 50/50/50 51/51/51
f 52/52/52 53/53/53 54/54/54
f 55/55/55 56/56/56 57/57/57
f 58/58/58 59/59/59 60/60/60
f 61/61/61 62/62/62 63/63/63
f 64/64/64 65/65/65 66/66/66
f 67/67/67 68/68/68 69/69/69
f 70/70/70 71/71/71 72/72/72
f 73/73/73 74/74/74 75/75/75
f 76/76/76 77/77/77 78/78/78
f 79/79/79 80/80/80 81/81/81
f 82/82/82 83/83/83 84/84/84
f 85/85/85 86/86/86 87/87/87
f 88/88/88 89/89/89 90/90/90
f 91/91/91 92/92/92 93/93/93
f 94/94/94 95/95/95 96/96/96
f 97/97/97 98/98/98 99/99/99
f 100/100/100 101/101/101 102/102/102
f 103/103/103 104/104/104 105/105/105
f 106/106/106 107/107/107 108/108/108
f 109/109/109 110/110/110 111/111/111
f 112/112/112 113/113/113 114/114/114
f 115/115/115 116/116/116 117/117/117
f 118/118/118 119/119/119 120/120/120
f 121/121/121 122/122/122 123/123/123
f 124/124/124 125/125/125 126/126/126
f 127/127/127 128/128/128 129/129/129
f 130/130/130 131/131/131 132/132/132
f 133/133/133 134/134/134 135/135/135
f 136/136/136 137/137/137 138/138/138
f 139/139/139 140/140/140 141/141/141
f 142/142/142 143/143/143 144/144/144
f 145/145/145 146/146/146 147/147/147
f 148/148/148 149/149/149 150/150/150
f 151/151/151 152/152/152 153/153/153
f 154/154/154 155/155/155 156/156/156
f 157/157/157 158/158/158 159/159/159
f 160/160/160 161/161/161 162/162/162
f 163/163/163 164/164/164 165/165/165
f 166/166/166 167/167/167 168/168/168
f 169/169/169 170/170/170 171/171/171
f 172/172/172 173/173/173 174/174/174
f 175/175/175 176/176/176 177/177/177
f 178/178/178 179/179/179 180/180/180
f 181/181/181 182/182/182 183/183/183
f 184/184/184 185/185/185 186/186/186
f 187/187/187 188/188/188 189/189/189
f 190/190/190 191/191/191 192/192/192
f 193/193/193 194/194/194 195/195/195
f 196/196/196 197/197/197 198/198/198
f 199/199/199 200/200/200 201/201/201
f 202/202/202 203/203/203 204/204/204
f 205/205/205 206/206/206 207/207/207
f 208/208/208 209/209/209 210/210/210
f 211/211/211 212/212/212 213/213/213
f 214/214/214 215/215/215 216/216/216
f 217/217/217 218/218/218 219/219/219
f 220/220/220 221/221/221 222/222/222
f 223/223/223 224/224/224 225/225/225
f 226/226/226 227/227/227 228/228/228
f 229/229/229 230/230/230 231/231/231
f 232/232/232 233/233/233 234/234/234
f 235/235/235 236/236/236 237/237/237
f 238/238/238 239/239/239 240/240/240
f 241/241/241 242/242/242 243/243/243
f 244/244/244 245/245/245 246/246/246
f 247/247/247 248/248/248 249/249/249
