# Authored in Blender; exported by tools-export-modern.py
mtllib materials.mtl
s off
v 1.000000000 0.461677853 0.216069642
v 1.000000000 0.410385132 0.224193573
v 0.129999995 0.410385132 0.224193573
v 1.000000000 0.500000000 0.210000038
v 0.129999995 0.500000000 0.210000038
v 1.000000000 0.375814176 0.241808392
v 1.000000000 0.329542279 0.265385151
v 0.129999995 0.329542279 0.265385151
v 1.000000000 0.302106615 0.292820713
v 1.000000000 0.265385032 0.329542160
v 0.129999995 0.265385032 0.329542160
v 1.000000000 0.247770264 0.364113167
v 1.000000000 0.224193573 0.410385132
v 0.129999995 0.224193573 0.410385132
v 1.000000000 0.218123969 0.448707278
v 1.000000000 0.210000038 0.500000000
v 0.129999995 0.210000038 0.500000000
v 1.000000000 0.216069642 0.538322147
v 1.000000000 0.224193573 0.589614868
v 0.129999995 0.224193573 0.589614868
v 1.000000000 0.241808341 0.624185875
v 1.000000000 0.265385032 0.670457840
v 0.129999995 0.265385032 0.670457840
v 1.000000000 0.292820696 0.697893402
v 1.000000000 0.329542279 0.734614849
v 0.129999995 0.329542279 0.734614849
v 1.000000000 0.364113235 0.752229668
v 1.000000000 0.410385132 0.775806427
v 0.129999995 0.410385132 0.775806427
v 1.000000000 0.448707278 0.781876031
v 1.000000000 0.500000000 0.789999962
v 0.129999995 0.500000000 0.789999962
v 1.000000000 0.538322147 0.783930358
v 1.000000000 0.589614868 0.775806427
v 0.129999995 0.589614868 0.775806427
v 1.000000000 0.624185824 0.758191608
v 1.000000000 0.670457721 0.734614849
v 0.129999995 0.670457721 0.734614849
v 1.000000000 0.697893385 0.707179287
v 1.000000000 0.734614968 0.670457840
v 0.129999995 0.734614968 0.670457840
v 1.000000000 0.752229736 0.635886833
v 1.000000000 0.775806427 0.589614868
v 0.129999995 0.775806427 0.589614868
v 1.000000000 0.781876031 0.551292722
v 1.000000000 0.789999962 0.500000000
v 0.129999995 0.789999962 0.500000000
v 1.000000000 0.783930358 0.461677853
v 1.000000000 0.775806427 0.410385132
v 0.129999995 0.775806427 0.410385132
v 1.000000000 0.758191659 0.375814125
v 1.000000000 0.734614968 0.329542160
v 0.129999995 0.734614968 0.329542160
v 1.000000000 0.707179304 0.302106598
v 1.000000000 0.670457721 0.265385151
v 0.129999995 0.670457721 0.265385151
v 1.000000000 0.635886765 0.247770332
v 1.000000000 0.589614868 0.224193573
v 0.129999995 0.589614868 0.224193573
v 1.000000000 0.551292722 0.218123969
v 0.129999995 0.436651468 0.305033207
v 0.129999995 0.500000000 0.295000076
v 0.129999995 0.379503965 0.334151745
v 0.129999995 0.334151506 0.379504204
v 0.129999995 0.305033445 0.436651707
v 0.129999995 0.294999957 0.500000000
v 0.129999995 0.305033445 0.563348293
v 0.129999995 0.334151506 0.620495796
v 0.129999995 0.379503965 0.665848255
v 0.129999995 0.436651468 0.694966793
v 0.129999995 0.500000000 0.704999924
v 0.129999995 0.563348532 0.694966793
v 0.129999995 0.620496035 0.665848255
v 0.129999995 0.665848494 0.620495796
v 0.129999995 0.694966555 0.563348293
v 0.129999995 0.705000043 0.500000000
v 0.129999995 0.694966555 0.436651707
v 0.129999995 0.665848494 0.379504204
v 0.129999995 0.620496035 0.334151745
v 0.129999995 0.563348532 0.305033207
v 1.000000000 0.463741300 0.300742724
v 1.000000000 0.436651468 0.305033207
v 1.000000000 0.500000000 0.295000076
v 1.000000000 0.403942042 0.321699739
v 1.000000000 0.379503965 0.334151745
v 1.000000000 0.353545650 0.360110061
v 1.000000000 0.334151506 0.379504204
v 1.000000000 0.317485247 0.412213630
v 1.000000000 0.305033445 0.436651707
v 1.000000000 0.299290593 0.472910270
v 1.000000000 0.294999957 0.500000000
v 1.000000000 0.300742809 0.536258563
v 1.000000000 0.305033445 0.563348293
v 1.000000000 0.321699704 0.596057720
v 1.000000000 0.334151506 0.620495796
v 1.000000000 0.360109822 0.646454112
v 1.000000000 0.379503965 0.665848255
v 1.000000000 0.412213392 0.682514787
v 1.000000000 0.436651468 0.694966793
v 1.000000000 0.472910168 0.700709440
v 1.000000000 0.500000000 0.704999924
v 1.000000000 0.536258700 0.699257276
v 1.000000000 0.563348532 0.694966793
v 1.000000000 0.596057958 0.678300261
v 1.000000000 0.620496035 0.665848255
v 1.000000000 0.646454350 0.639889939
v 1.000000000 0.665848494 0.620495796
v 1.000000000 0.682514753 0.587786370
v 1.000000000 0.694966555 0.563348293
v 1.000000000 0.700709407 0.527089730
v 1.000000000 0.705000043 0.500000000
v 1.000000000 0.699257191 0.463741437
v 1.000000000 0.694966555 0.436651707
v 1.000000000 0.678300296 0.403942280
v 1.000000000 0.665848494 0.379504204
v 1.000000000 0.639890178 0.353545888
v 1.000000000 0.620496035 0.334151745
v 1.000000000 0.587786608 0.317485213
v 1.000000000 0.563348532 0.305033207
v 1.000000000 0.527089832 0.299290560
v 0.349999994 0.500000000 0.199999809
v 0.349999994 0.407294869 0.214683056
v 0.250000000 0.407294869 0.214683056
v 0.250000000 0.500000000 0.199999809
v 0.349999994 0.323664427 0.257294655
v 0.250000000 0.323664427 0.257294655
v 0.349999994 0.257294893 0.323664665
v 0.250000000 0.257294893 0.323664665
v 0.349999994 0.214683056 0.407294750
v 0.250000000 0.214683056 0.407294750
v 0.349999994 0.200000048 0.500000000
v 0.250000000 0.200000048 0.500000000
v 0.349999994 0.214683056 0.592705250
v 0.250000000 0.214683056 0.592705250
v 0.349999994 0.257294893 0.676335335
v 0.250000000 0.257294893 0.676335335
v 0.349999994 0.323664427 0.742705345
v 0.250000000 0.323664427 0.742705345
v 0.349999994 0.407294869 0.785316944
v 0.250000000 0.407294869 0.785316944
v 0.349999994 0.500000000 0.800000191
v 0.250000000 0.500000000 0.800000191
v 0.349999994 0.592705131 0.785316944
v 0.250000000 0.592705131 0.785316944
v 0.349999994 0.676335573 0.742705345
v 0.250000000 0.676335573 0.742705345
v 0.349999994 0.742705107 0.676335335
v 0.250000000 0.742705107 0.676335335
v 0.349999994 0.785316944 0.592705250
v 0.250000000 0.785316944 0.592705250
v 0.349999994 0.799999952 0.500000000
v 0.250000000 0.799999952 0.500000000
v 0.349999994 0.785316944 0.407294750
v 0.250000000 0.785316944 0.407294750
v 0.349999994 0.742705107 0.323664665
v 0.250000000 0.742705107 0.323664665
v 0.349999994 0.676335573 0.257294655
v 0.250000000 0.676335573 0.257294655
v 0.349999994 0.592705131 0.214683056
v 0.250000000 0.592705131 0.214683056
v 0.250000000 0.436651468 0.305033207
v 0.250000000 0.500000000 0.295000076
v 0.250000000 0.379503965 0.334151745
v 0.250000000 0.334151506 0.379504204
v 0.250000000 0.305033445 0.436651707
v 0.250000000 0.294999957 0.500000000
v 0.250000000 0.305033445 0.563348293
v 0.250000000 0.334151506 0.620495796
v 0.250000000 0.379503965 0.665848255
v 0.250000000 0.436651468 0.694966793
v 0.250000000 0.500000000 0.704999924
v 0.250000000 0.563348532 0.694966793
v 0.250000000 0.620496035 0.665848255
v 0.250000000 0.665848494 0.620495796
v 0.250000000 0.694966555 0.563348293
v 0.250000000 0.705000043 0.500000000
v 0.250000000 0.694966555 0.436651707
v 0.250000000 0.665848494 0.379504204
v 0.250000000 0.620496035 0.334151745
v 0.250000000 0.563348532 0.305033207
v 0.349999994 0.436651468 0.305033207
v 0.349999994 0.500000000 0.295000076
v 0.349999994 0.379503965 0.334151745
v 0.349999994 0.334151506 0.379504204
v 0.349999994 0.305033445 0.436651707
v 0.349999994 0.294999957 0.500000000
v 0.349999994 0.305033445 0.563348293
v 0.349999994 0.334151506 0.620495796
v 0.349999994 0.379503965 0.665848255
v 0.349999994 0.436651468 0.694966793
v 0.349999994 0.500000000 0.704999924
v 0.349999994 0.563348532 0.694966793
v 0.349999994 0.620496035 0.665848255
v 0.349999994 0.665848494 0.620495796
v 0.349999994 0.694966555 0.563348293
v 0.349999994 0.705000043 0.500000000
v 0.349999994 0.694966555 0.436651707
v 0.349999994 0.665848494 0.379504204
v 0.349999994 0.620496035 0.334151745
v 0.349999994 0.563348532 0.305033207
v 0.119999997 0.500000000 0.090000153
v 0.119999997 0.373303056 0.110066891
v 0.025000000 0.373303056 0.110066891
v 0.025000000 0.500000000 0.090000153
v 0.119999997 0.259008050 0.168303013
v 0.025000000 0.259008050 0.168303013
v 0.119999997 0.168303013 0.259007931
v 0.025000000 0.168303013 0.259007931
v 0.119999997 0.110066891 0.373302937
v 0.025000000 0.110066891 0.373302937
v 0.119999997 0.090000033 0.500000000
v 0.025000000 0.090000033 0.500000000
v 0.119999997 0.110066891 0.626697063
v 0.025000000 0.110066891 0.626697063
v 0.119999997 0.168303013 0.740992069
v 0.025000000 0.168303013 0.740992069
v 0.119999997 0.259008050 0.831696987
v 0.025000000 0.259008050 0.831696987
v 0.119999997 0.373303056 0.889933109
v 0.025000000 0.373303056 0.889933109
v 0.119999997 0.500000000 0.909999847
v 0.025000000 0.500000000 0.909999847
v 0.119999997 0.626696944 0.889933109
v 0.025000000 0.626696944 0.889933109
v 0.119999997 0.740991950 0.831696987
v 0.025000000 0.740991950 0.831696987
v 0.119999997 0.831696987 0.740992069
v 0.025000000 0.831696987 0.740992069
v 0.119999997 0.889933109 0.626697063
v 0.025000000 0.889933109 0.626697063
v 0.119999997 0.909999967 0.500000000
v 0.025000000 0.909999967 0.500000000
v 0.119999997 0.889933109 0.373302937
v 0.025000000 0.889933109 0.373302937
v 0.119999997 0.831696987 0.259007931
v 0.025000000 0.831696987 0.259007931
v 0.119999997 0.740991950 0.168303013
v 0.025000000 0.740991950 0.168303013
v 0.119999997 0.626696944 0.110066891
v 0.025000000 0.626696944 0.110066891
v 0.025000000 0.436651468 0.305033207
v 0.025000000 0.500000000 0.295000076
v 0.025000000 0.379503965 0.334151745
v 0.025000000 0.334151506 0.379504204
v 0.025000000 0.305033445 0.436651707
v 0.025000000 0.294999957 0.500000000
v 0.025000000 0.305033445 0.563348293
v 0.025000000 0.334151506 0.620495796
v 0.025000000 0.379503965 0.665848255
v 0.025000000 0.436651468 0.694966793
v 0.025000000 0.500000000 0.704999924
v 0.025000000 0.563348532 0.694966793
v 0.025000000 0.620496035 0.665848255
v 0.025000000 0.665848494 0.620495796
v 0.025000000 0.694966555 0.563348293
v 0.025000000 0.705000043 0.500000000
v 0.025000000 0.694966555 0.436651707
v 0.025000000 0.665848494 0.379504204
v 0.025000000 0.620496035 0.334151745
v 0.025000000 0.563348532 0.305033207
v 0.119999997 0.436651468 0.305033207
v 0.119999997 0.500000000 0.295000076
v 0.119999997 0.379503965 0.334151745
v 0.119999997 0.334151506 0.379504204
v 0.119999997 0.305033445 0.436651707
v 0.119999997 0.294999957 0.500000000
v 0.119999997 0.305033445 0.563348293
v 0.119999997 0.334151506 0.620495796
v 0.119999997 0.379503965 0.665848255
v 0.119999997 0.436651468 0.694966793
v 0.119999997 0.500000000 0.704999924
v 0.119999997 0.563348532 0.694966793
v 0.119999997 0.620496035 0.665848255
v 0.119999997 0.665848494 0.620495796
v 0.119999997 0.694966555 0.563348293
v 0.119999997 0.705000043 0.500000000
v 0.119999997 0.694966555 0.436651707
v 0.119999997 0.665848494 0.379504204
v 0.119999997 0.620496035 0.334151745
v 0.119999997 0.563348532 0.305033207
v 0.025000000 0.500000000 0.118700027
v 0.025000000 0.382171869 0.137362003
v 0.000000000 0.382171869 0.137362003
v 0.000000000 0.500000000 0.118700027
v 0.025000000 0.275877476 0.191521645
v 0.000000000 0.275877476 0.191521645
v 0.025000000 0.191521883 0.275877476
v 0.000000000 0.191521883 0.275877476
v 0.025000000 0.137362123 0.382171631
v 0.000000000 0.137362123 0.382171631
v 0.025000000 0.118700027 0.500000000
v 0.000000000 0.118700027 0.500000000
v 0.025000000 0.137362123 0.617828369
v 0.000000000 0.137362123 0.617828369
v 0.025000000 0.191521883 0.724122524
v 0.000000000 0.191521883 0.724122524
v 0.025000000 0.275877476 0.808478355
v 0.000000000 0.275877476 0.808478355
v 0.025000000 0.382171869 0.862637997
v 0.000000000 0.382171869 0.862637997
v 0.025000000 0.500000000 0.881299973
v 0.000000000 0.500000000 0.881299973
v 0.025000000 0.617828131 0.862637997
v 0.000000000 0.617828131 0.862637997
v 0.025000000 0.724122524 0.808478355
v 0.000000000 0.724122524 0.808478355
v 0.025000000 0.808478117 0.724122524
v 0.000000000 0.808478117 0.724122524
v 0.025000000 0.862637877 0.617828369
v 0.000000000 0.862637877 0.617828369
v 0.025000000 0.881299973 0.500000000
v 0.000000000 0.881299973 0.500000000
v 0.025000000 0.862637877 0.382171631
v 0.000000000 0.862637877 0.382171631
v 0.025000000 0.808478117 0.275877476
v 0.000000000 0.808478117 0.275877476
v 0.025000000 0.724122524 0.191521645
v 0.000000000 0.724122524 0.191521645
v 0.025000000 0.617828131 0.137362003
v 0.000000000 0.617828131 0.137362003
v 0.000000000 0.436651468 0.305033207
v 0.000000000 0.500000000 0.295000076
v 0.000000000 0.379503965 0.334151745
v 0.000000000 0.334151506 0.379504204
v 0.000000000 0.305033445 0.436651707
v 0.000000000 0.294999957 0.500000000
v 0.000000000 0.305033445 0.563348293
v 0.000000000 0.334151506 0.620495796
v 0.000000000 0.379503965 0.665848255
v 0.000000000 0.436651468 0.694966793
v 0.000000000 0.500000000 0.704999924
v 0.000000000 0.563348532 0.694966793
v 0.000000000 0.620496035 0.665848255
v 0.000000000 0.665848494 0.620495796
v 0.000000000 0.694966555 0.563348293
v 0.000000000 0.705000043 0.500000000
v 0.000000000 0.694966555 0.436651707
v 0.000000000 0.665848494 0.379504204
v 0.000000000 0.620496035 0.334151745
v 0.000000000 0.563348532 0.305033207
v 0.140000001 0.500000000 0.141900063
v 0.140000001 0.522516608 0.154900074
v 0.140000001 0.522516608 0.180900097
v 0.140000001 0.500000000 0.193900108
v 0.140000001 0.477483392 0.180900097
v 0.140000001 0.477483392 0.154900074
v 0.017999999 0.522516608 0.154900074
v 0.017999999 0.500000000 0.141900063
v 0.017999999 0.477483392 0.154900074
v 0.017999999 0.477483392 0.180900097
v 0.017999999 0.500000000 0.193900108
v 0.017999999 0.522516608 0.180900097
v 0.140000001 0.265169859 0.239169598
v 0.140000001 0.287686467 0.252169609
v 0.140000001 0.287686467 0.278169632
v 0.140000001 0.265169859 0.291169643
v 0.140000001 0.242653251 0.278169632
v 0.140000001 0.242653251 0.252169609
v 0.017999999 0.287686467 0.252169609
v 0.017999999 0.265169859 0.239169598
v 0.017999999 0.242653251 0.252169609
v 0.017999999 0.242653251 0.278169632
v 0.017999999 0.265169859 0.291169643
v 0.017999999 0.287686467 0.278169632
v 0.140000001 0.167899966 0.473999977
v 0.140000001 0.190416574 0.486999989
v 0.140000001 0.190416574 0.513000011
v 0.140000001 0.167899966 0.526000023
v 0.140000001 0.145383358 0.513000011
v 0.140000001 0.145383358 0.486999989
v 0.017999999 0.190416574 0.486999989
v 0.017999999 0.167899966 0.473999977
v 0.017999999 0.145383358 0.486999989
v 0.017999999 0.145383358 0.513000011
v 0.017999999 0.167899966 0.526000023
v 0.017999999 0.190416574 0.513000011
v 0.140000001 0.265169859 0.708830357
v 0.140000001 0.287686467 0.721830368
v 0.140000001 0.287686467 0.747830391
v 0.140000001 0.265169859 0.760830402
v 0.140000001 0.242653251 0.747830391
v 0.140000001 0.242653251 0.721830368
v 0.017999999 0.287686467 0.721830368
v 0.017999999 0.265169859 0.708830357
v 0.017999999 0.242653251 0.721830368
v 0.017999999 0.242653251 0.747830391
v 0.017999999 0.265169859 0.760830402
v 0.017999999 0.287686467 0.747830391
v 0.140000001 0.500000000 0.806099892
v 0.140000001 0.522516608 0.819099903
v 0.140000001 0.522516608 0.845099926
v 0.140000001 0.500000000 0.858099937
v 0.140000001 0.477483392 0.845099926
v 0.140000001 0.477483392 0.819099903
v 0.017999999 0.522516608 0.819099903
v 0.017999999 0.500000000 0.806099892
v 0.017999999 0.477483392 0.819099903
v 0.017999999 0.477483392 0.845099926
v 0.017999999 0.500000000 0.858099937
v 0.017999999 0.522516608 0.845099926
v 0.140000001 0.734830141 0.708830357
v 0.140000001 0.757346749 0.721830368
v 0.140000001 0.757346749 0.747830391
v 0.140000001 0.734830141 0.760830402
v 0.140000001 0.712313533 0.747830391
v 0.140000001 0.712313533 0.721830368
v 0.017999999 0.757346749 0.721830368
v 0.017999999 0.734830141 0.708830357
v 0.017999999 0.712313533 0.721830368
v 0.017999999 0.712313533 0.747830391
v 0.017999999 0.734830141 0.760830402
v 0.017999999 0.757346749 0.747830391
v 0.140000001 0.832100034 0.473999977
v 0.140000001 0.854616642 0.486999989
v 0.140000001 0.854616642 0.513000011
v 0.140000001 0.832100034 0.526000023
v 0.140000001 0.809583426 0.513000011
v 0.140000001 0.809583426 0.486999989
v 0.017999999 0.854616642 0.486999989
v 0.017999999 0.832100034 0.473999977
v 0.017999999 0.809583426 0.486999989
v 0.017999999 0.809583426 0.513000011
v 0.017999999 0.832100034 0.526000023
v 0.017999999 0.854616642 0.513000011
v 0.140000001 0.734830141 0.239169598
v 0.140000001 0.757346749 0.252169609
v 0.140000001 0.757346749 0.278169632
v 0.140000001 0.734830141 0.291169643
v 0.140000001 0.712313533 0.278169632
v 0.140000001 0.712313533 0.252169609
v 0.017999999 0.757346749 0.252169609
v 0.017999999 0.734830141 0.239169598
v 0.017999999 0.712313533 0.252169609
v 0.017999999 0.712313533 0.278169632
v 0.017999999 0.734830141 0.291169643
v 0.017999999 0.757346749 0.278169632
vt 0.500000000 0.500000000
vn 0.000000000 -0.156433757 -0.987688453
vn 0.000000000 -0.453991262 -0.891006136
vn 0.000000000 -0.707105467 -0.707108095
vn 0.000000000 -0.891006938 -0.453989687
vn 0.000000000 -0.987688453 -0.156433757
vn 0.000000000 -0.987688453 0.156433757
vn 0.000000000 -0.891006938 0.453989687
vn 0.000000000 -0.707105467 0.707108095
vn 0.000000000 -0.453991262 0.891006136
vn 0.000000000 -0.156433757 0.987688453
vn 0.000000000 0.156433757 0.987688453
vn 0.000000000 0.453991262 0.891006136
vn 0.000000000 0.707105467 0.707108095
vn 0.000000000 0.891006938 0.453989687
vn 0.000000000 0.987688453 0.156433757
vn 0.000000000 0.987688453 -0.156433757
vn 0.000000000 0.891006938 -0.453989687
vn 0.000000000 0.707105467 -0.707108095
vn 0.000000000 0.453991262 -0.891006136
vn 0.000000000 0.156433757 -0.987688453
vn -1.000000000 0.000000000 0.000000000
vn 0.000000000 0.156430038 0.987689042
vn 0.000000000 0.453995832 0.891003807
vn 0.000000000 0.707106781 0.707106781
vn 0.000000000 0.891006815 0.453989930
vn 0.000000000 0.987688089 0.156436051
vn 0.000000000 0.987688089 -0.156436051
vn 0.000000000 0.891006815 -0.453989930
vn 0.000000000 0.707106781 -0.707106781
vn 0.000000000 0.453995832 -0.891003807
vn 0.000000000 0.156430038 -0.987689042
vn 0.000000000 -0.156430038 -0.987689042
vn 0.000000000 -0.453995832 -0.891003807
vn 0.000000000 -0.707106781 -0.707106781
vn 0.000000000 -0.891006815 -0.453989930
vn 0.000000000 -0.987688089 -0.156436051
vn 0.000000000 -0.987688089 0.156436051
vn 0.000000000 -0.891006815 0.453989930
vn 0.000000000 -0.707106781 0.707106781
vn 0.000000000 -0.453995832 0.891003807
vn 0.000000000 -0.156430038 0.987689042
vn 0.000000000 -0.156436506 -0.987688017
vn 0.000000000 -0.453988471 -0.891007558
vn 0.000000000 -0.707109321 -0.707104241
vn 0.000000000 -0.891005745 -0.453992028
vn 0.000000000 -0.987688441 -0.156433832
vn 0.000000000 -0.987688441 0.156433832
vn 0.000000000 -0.891005745 0.453992028
vn 0.000000000 -0.707109321 0.707104241
vn 0.000000000 -0.453988471 0.891007558
vn 0.000000000 -0.156436506 0.987688017
vn 0.000000000 0.156436506 0.987688017
vn 0.000000000 0.453988471 0.891007558
vn 0.000000000 0.707109321 0.707104241
vn 0.000000000 0.891005745 0.453992028
vn 0.000000000 0.987688441 0.156433832
vn 0.000000000 0.987688441 -0.156433832
vn 0.000000000 0.891005745 -0.453992028
vn 0.000000000 0.707109321 -0.707104241
vn 0.000000000 0.453988471 -0.891007558
vn 0.000000000 0.156436506 -0.987688017
vn 1.000000000 0.000000000 0.000000000
vn 0.000000000 -0.156433807 -0.987688445
vn 0.000000000 -0.453989930 -0.891006815
vn 0.000000000 -0.707106317 -0.707107246
vn 0.000000000 -0.987688324 -0.156434570
vn 0.000000000 -0.987688324 0.156434570
vn 0.000000000 -0.707106317 0.707107246
vn 0.000000000 -0.453989930 0.891006815
vn 0.000000000 -0.156433807 0.987688445
vn 0.000000000 0.156433807 0.987688445
vn 0.000000000 0.453989930 0.891006815
vn 0.000000000 0.707106317 0.707107246
vn 0.000000000 0.987688324 0.156434570
vn 0.000000000 0.987688324 -0.156434570
vn 0.000000000 0.707106317 -0.707107246
vn 0.000000000 0.453989930 -0.891006815
vn 0.000000000 0.156433807 -0.987688445
vn 0.000000000 -0.156433102 -0.987688556
vn 0.000000000 -0.453990118 -0.891006719
vn 0.000000000 -0.707107780 -0.707105782
vn 0.000000000 -0.891005903 -0.453991720
vn 0.000000000 -0.987688451 -0.156433768
vn 0.000000000 -0.987688451 0.156433768
vn 0.000000000 -0.891005903 0.453991720
vn 0.000000000 -0.707107780 0.707105782
vn 0.000000000 -0.453990118 0.891006719
vn 0.000000000 -0.156433102 0.987688556
vn 0.000000000 0.156433102 0.987688556
vn 0.000000000 0.453990118 0.891006719
vn 0.000000000 0.707107780 0.707105782
vn 0.000000000 0.891005903 0.453991720
vn 0.000000000 0.987688451 0.156433768
vn 0.000000000 0.987688451 -0.156433768
vn 0.000000000 0.891005903 -0.453991720
vn 0.000000000 0.707107780 -0.707105782
vn 0.000000000 0.453990118 -0.891006719
vn 0.000000000 0.156433102 -0.987688556
vn 0.000000000 -0.500001200 -0.866024711
vn 0.000000000 -1.000000000 0.000000000
vn 0.000000000 -0.500001200 0.866024711
vn 0.000000000 0.500001200 0.866024711
vn 0.000000000 1.000000000 0.000000000
vn 0.000000000 0.500001200 -0.866024711
usemtl mat_4
f 1/1/1 2/1/1 3/1/1
f 4/1/1 1/1/1 3/1/1 5/1/1
f 6/1/2 7/1/2 8/1/2
f 2/1/2 6/1/2 8/1/2 3/1/2
f 9/1/3 10/1/3 11/1/3
f 7/1/3 9/1/3 11/1/3 8/1/3
f 12/1/4 13/1/4 14/1/4
f 10/1/4 12/1/4 14/1/4 11/1/4
f 15/1/5 16/1/5 17/1/5
f 13/1/5 15/1/5 17/1/5 14/1/5
f 18/1/6 19/1/6 20/1/6
f 16/1/6 18/1/6 20/1/6 17/1/6
f 21/1/7 22/1/7 23/1/7
f 19/1/7 21/1/7 23/1/7 20/1/7
f 24/1/8 25/1/8 26/1/8
f 22/1/8 24/1/8 26/1/8 23/1/8
f 27/1/9 28/1/9 29/1/9
f 25/1/9 27/1/9 29/1/9 26/1/9
f 30/1/10 31/1/10 32/1/10
f 28/1/10 30/1/10 32/1/10 29/1/10
f 33/1/11 34/1/11 35/1/11
f 31/1/11 33/1/11 35/1/11 32/1/11
f 36/1/12 37/1/12 38/1/12
f 34/1/12 36/1/12 38/1/12 35/1/12
f 39/1/13 40/1/13 41/1/13
f 37/1/13 39/1/13 41/1/13 38/1/13
f 42/1/14 43/1/14 44/1/14
f 40/1/14 42/1/14 44/1/14 41/1/14
f 45/1/15 46/1/15 47/1/15
f 43/1/15 45/1/15 47/1/15 44/1/15
f 48/1/16 49/1/16 50/1/16
f 46/1/16 48/1/16 50/1/16 47/1/16
f 51/1/17 52/1/17 53/1/17
f 49/1/17 51/1/17 53/1/17 50/1/17
f 54/1/18 55/1/18 56/1/18
f 52/1/18 54/1/18 56/1/18 53/1/18
f 57/1/19 58/1/19 59/1/19
f 55/1/19 57/1/19 59/1/19 56/1/19
f 60/1/20 4/1/20 5/1/20
f 58/1/20 60/1/20 5/1/20 59/1/20
f 5/1/21 3/1/21 61/1/21
f 5/1/21 61/1/21 62/1/21
f 3/1/21 8/1/21 63/1/21
f 3/1/21 63/1/21 61/1/21
f 8/1/21 11/1/21 64/1/21
f 8/1/21 64/1/21 63/1/21
f 11/1/21 14/1/21 65/1/21
f 11/1/21 65/1/21 64/1/21
f 14/1/21 17/1/21 66/1/21
f 14/1/21 66/1/21 65/1/21
f 17/1/21 20/1/21 67/1/21
f 17/1/21 67/1/21 66/1/21
f 20/1/21 23/1/21 68/1/21
f 20/1/21 68/1/21 67/1/21
f 23/1/21 26/1/21 69/1/21
f 23/1/21 69/1/21 68/1/21
f 26/1/21 29/1/21 70/1/21
f 26/1/21 70/1/21 69/1/21
f 29/1/21 32/1/21 71/1/21
f 29/1/21 71/1/21 70/1/21
f 32/1/21 35/1/21 72/1/21
f 32/1/21 72/1/21 71/1/21
f 35/1/21 38/1/21 73/1/21
f 35/1/21 73/1/21 72/1/21
f 38/1/21 41/1/21 74/1/21
f 38/1/21 74/1/21 73/1/21
f 41/1/21 44/1/21 75/1/21
f 41/1/21 75/1/21 74/1/21
f 44/1/21 47/1/21 76/1/21
f 44/1/21 76/1/21 75/1/21
f 47/1/21 50/1/21 77/1/21
f 47/1/21 77/1/21 76/1/21
f 50/1/21 53/1/21 78/1/21
f 50/1/21 78/1/21 77/1/21
f 53/1/21 56/1/21 79/1/21
f 53/1/21 79/1/21 78/1/21
f 56/1/21 59/1/21 80/1/21
f 56/1/21 80/1/21 79/1/21
f 59/1/21 5/1/21 62/1/21
f 59/1/21 62/1/21 80/1/21
f 81/1/22 62/1/22 61/1/22 82/1/22
f 83/1/22 62/1/22 81/1/22
f 84/1/23 61/1/23 63/1/23 85/1/23
f 82/1/23 61/1/23 84/1/23
f 86/1/24 63/1/24 64/1/24 87/1/24
f 85/1/24 63/1/24 86/1/24
f 88/1/25 64/1/25 65/1/25 89/1/25
f 87/1/25 64/1/25 88/1/25
f 90/1/26 65/1/26 66/1/26 91/1/26
f 89/1/26 65/1/26 90/1/26
f 92/1/27 66/1/27 67/1/27 93/1/27
f 91/1/27 66/1/27 92/1/27
f 94/1/28 67/1/28 68/1/28 95/1/28
f 93/1/28 67/1/28 94/1/28
f 96/1/29 68/1/29 69/1/29 97/1/29
f 95/1/29 68/1/29 96/1/29
f 98/1/30 69/1/30 70/1/30 99/1/30
f 97/1/30 69/1/30 98/1/30
f 100/1/31 70/1/31 71/1/31 101/1/31
f 99/1/31 70/1/31 100/1/31
f 102/1/32 71/1/32 72/1/32 103/1/32
f 101/1/32 71/1/32 102/1/32
f 104/1/33 72/1/33 73/1/33 105/1/33
f 103/1/33 72/1/33 104/1/33
f 106/1/34 73/1/34 74/1/34 107/1/34
f 105/1/34 73/1/34 106/1/34
f 108/1/35 74/1/35 75/1/35 109/1/35
f 107/1/35 74/1/35 108/1/35
f 110/1/36 75/1/36 76/1/36 111/1/36
f 109/1/36 75/1/36 110/1/36
f 112/1/37 76/1/37 77/1/37 113/1/37
f 111/1/37 76/1/37 112/1/37
f 114/1/38 77/1/38 78/1/38 115/1/38
f 113/1/38 77/1/38 114/1/38
f 116/1/39 78/1/39 79/1/39 117/1/39
f 115/1/39 78/1/39 116/1/39
f 118/1/40 79/1/40 80/1/40 119/1/40
f 117/1/40 79/1/40 118/1/40
f 120/1/41 80/1/41 62/1/41 83/1/41
f 119/1/41 80/1/41 120/1/41
usemtl mat_5
f 121/1/42 122/1/42 123/1/42
f 121/1/42 123/1/42 124/1/42
f 122/1/43 125/1/43 126/1/43
f 122/1/43 126/1/43 123/1/43
f 125/1/44 127/1/44 128/1/44
f 125/1/44 128/1/44 126/1/44
f 127/1/45 129/1/45 130/1/45
f 127/1/45 130/1/45 128/1/45
f 129/1/46 131/1/46 132/1/46
f 129/1/46 132/1/46 130/1/46
f 131/1/47 133/1/47 134/1/47
f 131/1/47 134/1/47 132/1/47
f 133/1/48 135/1/48 136/1/48
f 133/1/48 136/1/48 134/1/48
f 135/1/49 137/1/49 138/1/49
f 135/1/49 138/1/49 136/1/49
f 137/1/50 139/1/50 140/1/50
f 137/1/50 140/1/50 138/1/50
f 139/1/51 141/1/51 142/1/51
f 139/1/51 142/1/51 140/1/51
f 141/1/52 143/1/52 144/1/52
f 141/1/52 144/1/52 142/1/52
f 143/1/53 145/1/53 146/1/53
f 143/1/53 146/1/53 144/1/53
f 145/1/54 147/1/54 148/1/54
f 145/1/54 148/1/54 146/1/54
f 147/1/55 149/1/55 150/1/55
f 147/1/55 150/1/55 148/1/55
f 149/1/56 151/1/56 152/1/56
f 149/1/56 152/1/56 150/1/56
f 151/1/57 153/1/57 154/1/57
f 151/1/57 154/1/57 152/1/57
f 153/1/58 155/1/58 156/1/58
f 153/1/58 156/1/58 154/1/58
f 155/1/59 157/1/59 158/1/59
f 155/1/59 158/1/59 156/1/59
f 157/1/60 159/1/60 160/1/60
f 157/1/60 160/1/60 158/1/60
f 159/1/61 121/1/61 124/1/61
f 159/1/61 124/1/61 160/1/61
f 124/1/21 123/1/21 161/1/21
f 124/1/21 161/1/21 162/1/21
f 123/1/21 126/1/21 163/1/21
f 123/1/21 163/1/21 161/1/21
f 126/1/21 128/1/21 164/1/21
f 126/1/21 164/1/21 163/1/21
f 128/1/21 130/1/21 165/1/21
f 128/1/21 165/1/21 164/1/21
f 130/1/21 132/1/21 166/1/21
f 130/1/21 166/1/21 165/1/21
f 132/1/21 134/1/21 167/1/21
f 132/1/21 167/1/21 166/1/21
f 134/1/21 136/1/21 168/1/21
f 134/1/21 168/1/21 167/1/21
f 136/1/21 138/1/21 169/1/21
f 136/1/21 169/1/21 168/1/21
f 138/1/21 140/1/21 170/1/21
f 138/1/21 170/1/21 169/1/21
f 140/1/21 142/1/21 171/1/21
f 140/1/21 171/1/21 170/1/21
f 142/1/21 144/1/21 172/1/21
f 142/1/21 172/1/21 171/1/21
f 144/1/21 146/1/21 173/1/21
f 144/1/21 173/1/21 172/1/21
f 146/1/21 148/1/21 174/1/21
f 146/1/21 174/1/21 173/1/21
f 148/1/21 150/1/21 175/1/21
f 148/1/21 175/1/21 174/1/21
f 150/1/21 152/1/21 176/1/21
f 150/1/21 176/1/21 175/1/21
f 152/1/21 154/1/21 177/1/21
f 152/1/21 177/1/21 176/1/21
f 154/1/21 156/1/21 178/1/21
f 154/1/21 178/1/21 177/1/21
f 156/1/21 158/1/21 179/1/21
f 156/1/21 179/1/21 178/1/21
f 158/1/21 160/1/21 180/1/21
f 158/1/21 180/1/21 179/1/21
f 160/1/21 124/1/21 162/1/21
f 160/1/21 162/1/21 180/1/21
f 162/1/22 161/1/22 181/1/22
f 162/1/22 181/1/22 182/1/22
f 161/1/23 163/1/23 183/1/23
f 161/1/23 183/1/23 181/1/23
f 163/1/24 164/1/24 184/1/24
f 163/1/24 184/1/24 183/1/24
f 164/1/25 165/1/25 185/1/25
f 164/1/25 185/1/25 184/1/25
f 165/1/26 166/1/26 186/1/26
f 165/1/26 186/1/26 185/1/26
f 166/1/27 167/1/27 187/1/27
f 166/1/27 187/1/27 186/1/27
f 167/1/28 168/1/28 188/1/28
f 167/1/28 188/1/28 187/1/28
f 168/1/29 169/1/29 189/1/29
f 168/1/29 189/1/29 188/1/29
f 169/1/30 170/1/30 190/1/30
f 169/1/30 190/1/30 189/1/30
f 170/1/31 171/1/31 191/1/31
f 170/1/31 191/1/31 190/1/31
f 171/1/32 172/1/32 192/1/32
f 171/1/32 192/1/32 191/1/32
f 172/1/33 173/1/33 193/1/33
f 172/1/33 193/1/33 192/1/33
f 173/1/34 174/1/34 194/1/34
f 173/1/34 194/1/34 193/1/34
f 174/1/35 175/1/35 195/1/35
f 174/1/35 195/1/35 194/1/35
f 175/1/36 176/1/36 196/1/36
f 175/1/36 196/1/36 195/1/36
f 176/1/37 177/1/37 197/1/37
f 176/1/37 197/1/37 196/1/37
f 177/1/38 178/1/38 198/1/38
f 177/1/38 198/1/38 197/1/38
f 178/1/39 179/1/39 199/1/39
f 178/1/39 199/1/39 198/1/39
f 179/1/40 180/1/40 200/1/40
f 179/1/40 200/1/40 199/1/40
f 180/1/41 162/1/41 182/1/41
f 180/1/41 182/1/41 200/1/41
f 182/1/62 181/1/62 122/1/62
f 182/1/62 122/1/62 121/1/62
f 181/1/62 183/1/62 125/1/62
f 181/1/62 125/1/62 122/1/62
f 183/1/62 184/1/62 127/1/62
f 183/1/62 127/1/62 125/1/62
f 184/1/62 185/1/62 129/1/62
f 184/1/62 129/1/62 127/1/62
f 185/1/62 186/1/62 131/1/62
f 185/1/62 131/1/62 129/1/62
f 186/1/62 187/1/62 133/1/62
f 186/1/62 133/1/62 131/1/62
f 187/1/62 188/1/62 135/1/62
f 187/1/62 135/1/62 133/1/62
f 188/1/62 189/1/62 137/1/62
f 188/1/62 137/1/62 135/1/62
f 189/1/62 190/1/62 139/1/62
f 189/1/62 139/1/62 137/1/62
f 190/1/62 191/1/62 141/1/62
f 190/1/62 141/1/62 139/1/62
f 191/1/62 192/1/62 143/1/62
f 191/1/62 143/1/62 141/1/62
f 192/1/62 193/1/62 145/1/62
f 192/1/62 145/1/62 143/1/62
f 193/1/62 194/1/62 147/1/62
f 193/1/62 147/1/62 145/1/62
f 194/1/62 195/1/62 149/1/62
f 194/1/62 149/1/62 147/1/62
f 195/1/62 196/1/62 151/1/62
f 195/1/62 151/1/62 149/1/62
f 196/1/62 197/1/62 153/1/62
f 196/1/62 153/1/62 151/1/62
f 197/1/62 198/1/62 155/1/62
f 197/1/62 155/1/62 153/1/62
f 198/1/62 199/1/62 157/1/62
f 198/1/62 157/1/62 155/1/62
f 199/1/62 200/1/62 159/1/62
f 199/1/62 159/1/62 157/1/62
f 200/1/62 182/1/62 121/1/62
f 200/1/62 121/1/62 159/1/62
usemtl mat_2
f 201/1/63 202/1/63 203/1/63
f 201/1/63 203/1/63 204/1/63
f 202/1/64 205/1/64 206/1/64
f 202/1/64 206/1/64 203/1/64
f 205/1/65 207/1/65 208/1/65
f 205/1/65 208/1/65 206/1/65
f 207/1/35 209/1/35 210/1/35
f 207/1/35 210/1/35 208/1/35
f 209/1/66 211/1/66 212/1/66
f 209/1/66 212/1/66 210/1/66
f 211/1/67 213/1/67 214/1/67
f 211/1/67 214/1/67 212/1/67
f 213/1/38 215/1/38 216/1/38
f 213/1/38 216/1/38 214/1/38
f 215/1/68 217/1/68 218/1/68
f 215/1/68 218/1/68 216/1/68
f 217/1/69 219/1/69 220/1/69
f 217/1/69 220/1/69 218/1/69
f 219/1/70 221/1/70 222/1/70
f 219/1/70 222/1/70 220/1/70
f 221/1/71 223/1/71 224/1/71
f 221/1/71 224/1/71 222/1/71
f 223/1/72 225/1/72 226/1/72
f 223/1/72 226/1/72 224/1/72
f 225/1/73 227/1/73 228/1/73
f 225/1/73 228/1/73 226/1/73
f 227/1/25 229/1/25 230/1/25
f 227/1/25 230/1/25 228/1/25
f 229/1/74 231/1/74 232/1/74
f 229/1/74 232/1/74 230/1/74
f 231/1/75 233/1/75 234/1/75
f 231/1/75 234/1/75 232/1/75
f 233/1/28 235/1/28 236/1/28
f 233/1/28 236/1/28 234/1/28
f 235/1/76 237/1/76 238/1/76
f 235/1/76 238/1/76 236/1/76
f 237/1/77 239/1/77 240/1/77
f 237/1/77 240/1/77 238/1/77
f 239/1/78 201/1/78 204/1/78
f 239/1/78 204/1/78 240/1/78
f 204/1/21 203/1/21 241/1/21
f 204/1/21 241/1/21 242/1/21
f 203/1/21 206/1/21 243/1/21
f 203/1/21 243/1/21 241/1/21
f 206/1/21 208/1/21 244/1/21
f 206/1/21 244/1/21 243/1/21
f 208/1/21 210/1/21 245/1/21
f 208/1/21 245/1/21 244/1/21
f 210/1/21 212/1/21 246/1/21
f 210/1/21 246/1/21 245/1/21
f 212/1/21 214/1/21 247/1/21
f 212/1/21 247/1/21 246/1/21
f 214/1/21 216/1/21 248/1/21
f 214/1/21 248/1/21 247/1/21
f 216/1/21 218/1/21 249/1/21
f 216/1/21 249/1/21 248/1/21
f 218/1/21 220/1/21 250/1/21
f 218/1/21 250/1/21 249/1/21
f 220/1/21 222/1/21 251/1/21
f 220/1/21 251/1/21 250/1/21
f 222/1/21 224/1/21 252/1/21
f 222/1/21 252/1/21 251/1/21
f 224/1/21 226/1/21 253/1/21
f 224/1/21 253/1/21 252/1/21
f 226/1/21 228/1/21 254/1/21
f 226/1/21 254/1/21 253/1/21
f 228/1/21 230/1/21 255/1/21
f 228/1/21 255/1/21 254/1/21
f 230/1/21 232/1/21 256/1/21
f 230/1/21 256/1/21 255/1/21
f 232/1/21 234/1/21 257/1/21
f 232/1/21 257/1/21 256/1/21
f 234/1/21 236/1/21 258/1/21
f 234/1/21 258/1/21 257/1/21
f 236/1/21 238/1/21 259/1/21
f 236/1/21 259/1/21 258/1/21
f 238/1/21 240/1/21 260/1/21
f 238/1/21 260/1/21 259/1/21
f 240/1/21 204/1/21 242/1/21
f 240/1/21 242/1/21 260/1/21
f 242/1/22 241/1/22 261/1/22
f 242/1/22 261/1/22 262/1/22
f 241/1/23 243/1/23 263/1/23
f 241/1/23 263/1/23 261/1/23
f 243/1/24 244/1/24 264/1/24
f 243/1/24 264/1/24 263/1/24
f 244/1/25 245/1/25 265/1/25
f 244/1/25 265/1/25 264/1/25
f 245/1/26 246/1/26 266/1/26
f 245/1/26 266/1/26 265/1/26
f 246/1/27 247/1/27 267/1/27
f 246/1/27 267/1/27 266/1/27
f 247/1/28 248/1/28 268/1/28
f 247/1/28 268/1/28 267/1/28
f 248/1/29 249/1/29 269/1/29
f 248/1/29 269/1/29 268/1/29
f 249/1/30 250/1/30 270/1/30
f 249/1/30 270/1/30 269/1/30
f 250/1/31 251/1/31 271/1/31
f 250/1/31 271/1/31 270/1/31
f 251/1/32 252/1/32 272/1/32
f 251/1/32 272/1/32 271/1/32
f 252/1/33 253/1/33 273/1/33
f 252/1/33 273/1/33 272/1/33
f 253/1/34 254/1/34 274/1/34
f 253/1/34 274/1/34 273/1/34
f 254/1/35 255/1/35 275/1/35
f 254/1/35 275/1/35 274/1/35
f 255/1/36 256/1/36 276/1/36
f 255/1/36 276/1/36 275/1/36
f 256/1/37 257/1/37 277/1/37
f 256/1/37 277/1/37 276/1/37
f 257/1/38 258/1/38 278/1/38
f 257/1/38 278/1/38 277/1/38
f 258/1/39 259/1/39 279/1/39
f 258/1/39 279/1/39 278/1/39
f 259/1/40 260/1/40 280/1/40
f 259/1/40 280/1/40 279/1/40
f 260/1/41 242/1/41 262/1/41
f 260/1/41 262/1/41 280/1/41
f 262/1/62 261/1/62 202/1/62
f 262/1/62 202/1/62 201/1/62
f 261/1/62 263/1/62 205/1/62
f 261/1/62 205/1/62 202/1/62
f 263/1/62 264/1/62 207/1/62
f 263/1/62 207/1/62 205/1/62
f 264/1/62 265/1/62 209/1/62
f 264/1/62 209/1/62 207/1/62
f 265/1/62 266/1/62 211/1/62
f 265/1/62 211/1/62 209/1/62
f 266/1/62 267/1/62 213/1/62
f 266/1/62 213/1/62 211/1/62
f 267/1/62 268/1/62 215/1/62
f 267/1/62 215/1/62 213/1/62
f 268/1/62 269/1/62 217/1/62
f 268/1/62 217/1/62 215/1/62
f 269/1/62 270/1/62 219/1/62
f 269/1/62 219/1/62 217/1/62
f 270/1/62 271/1/62 221/1/62
f 270/1/62 221/1/62 219/1/62
f 271/1/62 272/1/62 223/1/62
f 271/1/62 223/1/62 221/1/62
f 272/1/62 273/1/62 225/1/62
f 272/1/62 225/1/62 223/1/62
f 273/1/62 274/1/62 227/1/62
f 273/1/62 227/1/62 225/1/62
f 274/1/62 275/1/62 229/1/62
f 274/1/62 229/1/62 227/1/62
f 275/1/62 276/1/62 231/1/62
f 275/1/62 231/1/62 229/1/62
f 276/1/62 277/1/62 233/1/62
f 276/1/62 233/1/62 231/1/62
f 277/1/62 278/1/62 235/1/62
f 277/1/62 235/1/62 233/1/62
f 278/1/62 279/1/62 237/1/62
f 278/1/62 237/1/62 235/1/62
f 279/1/62 280/1/62 239/1/62
f 279/1/62 239/1/62 237/1/62
f 280/1/62 262/1/62 201/1/62
f 280/1/62 201/1/62 239/1/62
usemtl mat_3
f 281/1/79 282/1/79 283/1/79
f 281/1/79 283/1/79 284/1/79
f 282/1/80 285/1/80 286/1/80
f 282/1/80 286/1/80 283/1/80
f 285/1/81 287/1/81 288/1/81
f 285/1/81 288/1/81 286/1/81
f 287/1/82 289/1/82 290/1/82
f 287/1/82 290/1/82 288/1/82
f 289/1/83 291/1/83 292/1/83
f 289/1/83 292/1/83 290/1/83
f 291/1/84 293/1/84 294/1/84
f 291/1/84 294/1/84 292/1/84
f 293/1/85 295/1/85 296/1/85
f 293/1/85 296/1/85 294/1/85
f 295/1/86 297/1/86 298/1/86
f 295/1/86 298/1/86 296/1/86
f 297/1/87 299/1/87 300/1/87
f 297/1/87 300/1/87 298/1/87
f 299/1/88 301/1/88 302/1/88
f 299/1/88 302/1/88 300/1/88
f 301/1/89 303/1/89 304/1/89
f 301/1/89 304/1/89 302/1/89
f 303/1/90 305/1/90 306/1/90
f 303/1/90 306/1/90 304/1/90
f 305/1/91 307/1/91 308/1/91
f 305/1/91 308/1/91 306/1/91
f 307/1/92 309/1/92 310/1/92
f 307/1/92 310/1/92 308/1/92
f 309/1/93 311/1/93 312/1/93
f 309/1/93 312/1/93 310/1/93
f 311/1/94 313/1/94 314/1/94
f 311/1/94 314/1/94 312/1/94
f 313/1/95 315/1/95 316/1/95
f 313/1/95 316/1/95 314/1/95
f 315/1/96 317/1/96 318/1/96
f 315/1/96 318/1/96 316/1/96
f 317/1/97 319/1/97 320/1/97
f 317/1/97 320/1/97 318/1/97
f 319/1/98 281/1/98 284/1/98
f 319/1/98 284/1/98 320/1/98
f 284/1/21 283/1/21 321/1/21
f 284/1/21 321/1/21 322/1/21
f 283/1/21 286/1/21 323/1/21
f 283/1/21 323/1/21 321/1/21
f 286/1/21 288/1/21 324/1/21
f 286/1/21 324/1/21 323/1/21
f 288/1/21 290/1/21 325/1/21
f 288/1/21 325/1/21 324/1/21
f 290/1/21 292/1/21 326/1/21
f 290/1/21 326/1/21 325/1/21
f 292/1/21 294/1/21 327/1/21
f 292/1/21 327/1/21 326/1/21
f 294/1/21 296/1/21 328/1/21
f 294/1/21 328/1/21 327/1/21
f 296/1/21 298/1/21 329/1/21
f 296/1/21 329/1/21 328/1/21
f 298/1/21 300/1/21 330/1/21
f 298/1/21 330/1/21 329/1/21
f 300/1/21 302/1/21 331/1/21
f 300/1/21 331/1/21 330/1/21
f 302/1/21 304/1/21 332/1/21
f 302/1/21 332/1/21 331/1/21
f 304/1/21 306/1/21 333/1/21
f 304/1/21 333/1/21 332/1/21
f 306/1/21 308/1/21 334/1/21
f 306/1/21 334/1/21 333/1/21
f 308/1/21 310/1/21 335/1/21
f 308/1/21 335/1/21 334/1/21
f 310/1/21 312/1/21 336/1/21
f 310/1/21 336/1/21 335/1/21
f 312/1/21 314/1/21 337/1/21
f 312/1/21 337/1/21 336/1/21
f 314/1/21 316/1/21 338/1/21
f 314/1/21 338/1/21 337/1/21
f 316/1/21 318/1/21 339/1/21
f 316/1/21 339/1/21 338/1/21
f 318/1/21 320/1/21 340/1/21
f 318/1/21 340/1/21 339/1/21
f 320/1/21 284/1/21 322/1/21
f 320/1/21 322/1/21 340/1/21
f 322/1/22 321/1/22 241/1/22
f 322/1/22 241/1/22 242/1/22
f 321/1/23 323/1/23 243/1/23
f 321/1/23 243/1/23 241/1/23
f 323/1/24 324/1/24 244/1/24
f 323/1/24 244/1/24 243/1/24
f 324/1/25 325/1/25 245/1/25
f 324/1/25 245/1/25 244/1/25
f 325/1/26 326/1/26 246/1/26
f 325/1/26 246/1/26 245/1/26
f 326/1/27 327/1/27 247/1/27
f 326/1/27 247/1/27 246/1/27
f 327/1/28 328/1/28 248/1/28
f 327/1/28 248/1/28 247/1/28
f 328/1/29 329/1/29 249/1/29
f 328/1/29 249/1/29 248/1/29
f 329/1/30 330/1/30 250/1/30
f 329/1/30 250/1/30 249/1/30
f 330/1/31 331/1/31 251/1/31
f 330/1/31 251/1/31 250/1/31
f 331/1/32 332/1/32 252/1/32
f 331/1/32 252/1/32 251/1/32
f 332/1/33 333/1/33 253/1/33
f 332/1/33 253/1/33 252/1/33
f 333/1/34 334/1/34 254/1/34
f 333/1/34 254/1/34 253/1/34
f 334/1/35 335/1/35 255/1/35
f 334/1/35 255/1/35 254/1/35
f 335/1/36 336/1/36 256/1/36
f 335/1/36 256/1/36 255/1/36
f 336/1/37 337/1/37 257/1/37
f 336/1/37 257/1/37 256/1/37
f 337/1/38 338/1/38 258/1/38
f 337/1/38 258/1/38 257/1/38
f 338/1/39 339/1/39 259/1/39
f 338/1/39 259/1/39 258/1/39
f 339/1/40 340/1/40 260/1/40
f 339/1/40 260/1/40 259/1/40
f 340/1/41 322/1/41 242/1/41
f 340/1/41 242/1/41 260/1/41
f 242/1/62 241/1/62 282/1/62
f 242/1/62 282/1/62 281/1/62
f 241/1/62 243/1/62 285/1/62
f 241/1/62 285/1/62 282/1/62
f 243/1/62 244/1/62 287/1/62
f 243/1/62 287/1/62 285/1/62
f 244/1/62 245/1/62 289/1/62
f 244/1/62 289/1/62 287/1/62
f 245/1/62 246/1/62 291/1/62
f 245/1/62 291/1/62 289/1/62
f 246/1/62 247/1/62 293/1/62
f 246/1/62 293/1/62 291/1/62
f 247/1/62 248/1/62 295/1/62
f 247/1/62 295/1/62 293/1/62
f 248/1/62 249/1/62 297/1/62
f 248/1/62 297/1/62 295/1/62
f 249/1/62 250/1/62 299/1/62
f 249/1/62 299/1/62 297/1/62
f 250/1/62 251/1/62 301/1/62
f 250/1/62 301/1/62 299/1/62
f 251/1/62 252/1/62 303/1/62
f 251/1/62 303/1/62 301/1/62
f 252/1/62 253/1/62 305/1/62
f 252/1/62 305/1/62 303/1/62
f 253/1/62 254/1/62 307/1/62
f 253/1/62 307/1/62 305/1/62
f 254/1/62 255/1/62 309/1/62
f 254/1/62 309/1/62 307/1/62
f 255/1/62 256/1/62 311/1/62
f 255/1/62 311/1/62 309/1/62
f 256/1/62 257/1/62 313/1/62
f 256/1/62 313/1/62 311/1/62
f 257/1/62 258/1/62 315/1/62
f 257/1/62 315/1/62 313/1/62
f 258/1/62 259/1/62 317/1/62
f 258/1/62 317/1/62 315/1/62
f 259/1/62 260/1/62 319/1/62
f 259/1/62 319/1/62 317/1/62
f 260/1/62 242/1/62 281/1/62
f 260/1/62 281/1/62 319/1/62
usemtl mat_2
f 341/1/62 342/1/62 343/1/62
f 343/1/62 344/1/62 345/1/62
f 345/1/62 346/1/62 341/1/62
f 343/1/62 345/1/62 341/1/62
f 347/1/21 348/1/21 349/1/21
f 349/1/21 350/1/21 351/1/21
f 351/1/21 352/1/21 347/1/21
f 349/1/21 351/1/21 347/1/21
f 341/1/99 346/1/99 349/1/99
f 341/1/99 349/1/99 348/1/99
f 346/1/100 345/1/100 350/1/100
f 346/1/100 350/1/100 349/1/100
f 345/1/101 344/1/101 351/1/101
f 345/1/101 351/1/101 350/1/101
f 344/1/102 343/1/102 352/1/102
f 344/1/102 352/1/102 351/1/102
f 343/1/103 342/1/103 347/1/103
f 343/1/103 347/1/103 352/1/103
f 342/1/104 341/1/104 348/1/104
f 342/1/104 348/1/104 347/1/104
f 353/1/62 354/1/62 355/1/62
f 355/1/62 356/1/62 357/1/62
f 357/1/62 358/1/62 353/1/62
f 355/1/62 357/1/62 353/1/62
f 359/1/21 360/1/21 361/1/21
f 361/1/21 362/1/21 363/1/21
f 363/1/21 364/1/21 359/1/21
f 361/1/21 363/1/21 359/1/21
f 353/1/99 358/1/99 361/1/99
f 353/1/99 361/1/99 360/1/99
f 358/1/100 357/1/100 362/1/100
f 358/1/100 362/1/100 361/1/100
f 357/1/101 356/1/101 363/1/101
f 357/1/101 363/1/101 362/1/101
f 356/1/102 355/1/102 364/1/102
f 356/1/102 364/1/102 363/1/102
f 355/1/103 354/1/103 359/1/103
f 355/1/103 359/1/103 364/1/103
f 354/1/104 353/1/104 360/1/104
f 354/1/104 360/1/104 359/1/104
f 365/1/62 366/1/62 367/1/62
f 367/1/62 368/1/62 369/1/62
f 369/1/62 370/1/62 365/1/62
f 367/1/62 369/1/62 365/1/62
f 371/1/21 372/1/21 373/1/21
f 373/1/21 374/1/21 375/1/21
f 375/1/21 376/1/21 371/1/21
f 373/1/21 375/1/21 371/1/21
f 365/1/99 370/1/99 373/1/99
f 365/1/99 373/1/99 372/1/99
f 370/1/100 369/1/100 374/1/100
f 370/1/100 374/1/100 373/1/100
f 369/1/101 368/1/101 375/1/101
f 369/1/101 375/1/101 374/1/101
f 368/1/102 367/1/102 376/1/102
f 368/1/102 376/1/102 375/1/102
f 367/1/103 366/1/103 371/1/103
f 367/1/103 371/1/103 376/1/103
f 366/1/104 365/1/104 372/1/104
f 366/1/104 372/1/104 371/1/104
f 377/1/62 378/1/62 379/1/62
f 379/1/62 380/1/62 381/1/62
f 381/1/62 382/1/62 377/1/62
f 379/1/62 381/1/62 377/1/62
f 383/1/21 384/1/21 385/1/21
f 385/1/21 386/1/21 387/1/21
f 387/1/21 388/1/21 383/1/21
f 385/1/21 387/1/21 383/1/21
f 377/1/99 382/1/99 385/1/99
f 377/1/99 385/1/99 384/1/99
f 382/1/100 381/1/100 386/1/100
f 382/1/100 386/1/100 385/1/100
f 381/1/101 380/1/101 387/1/101
f 381/1/101 387/1/101 386/1/101
f 380/1/102 379/1/102 388/1/102
f 380/1/102 388/1/102 387/1/102
f 379/1/103 378/1/103 383/1/103
f 379/1/103 383/1/103 388/1/103
f 378/1/104 377/1/104 384/1/104
f 378/1/104 384/1/104 383/1/104
f 389/1/62 390/1/62 391/1/62
f 391/1/62 392/1/62 393/1/62
f 393/1/62 394/1/62 389/1/62
f 391/1/62 393/1/62 389/1/62
f 395/1/21 396/1/21 397/1/21
f 397/1/21 398/1/21 399/1/21
f 399/1/21 400/1/21 395/1/21
f 397/1/21 399/1/21 395/1/21
f 389/1/99 394/1/99 397/1/99
f 389/1/99 397/1/99 396/1/99
f 394/1/100 393/1/100 398/1/100
f 394/1/100 398/1/100 397/1/100
f 393/1/101 392/1/101 399/1/101
f 393/1/101 399/1/101 398/1/101
f 392/1/102 391/1/102 400/1/102
f 392/1/102 400/1/102 399/1/102
f 391/1/103 390/1/103 395/1/103
f 391/1/103 395/1/103 400/1/103
f 390/1/104 389/1/104 396/1/104
f 390/1/104 396/1/104 395/1/104
f 401/1/62 402/1/62 403/1/62
f 403/1/62 404/1/62 405/1/62
f 405/1/62 406/1/62 401/1/62
f 403/1/62 405/1/62 401/1/62
f 407/1/21 408/1/21 409/1/21
f 409/1/21 410/1/21 411/1/21
f 411/1/21 412/1/21 407/1/21
f 409/1/21 411/1/21 407/1/21
f 401/1/99 406/1/99 409/1/99
f 401/1/99 409/1/99 408/1/99
f 406/1/100 405/1/100 410/1/100
f 406/1/100 410/1/100 409/1/100
f 405/1/101 404/1/101 411/1/101
f 405/1/101 411/1/101 410/1/101
f 404/1/102 403/1/102 412/1/102
f 404/1/102 412/1/102 411/1/102
f 403/1/103 402/1/103 407/1/103
f 403/1/103 407/1/103 412/1/103
f 402/1/104 401/1/104 408/1/104
f 402/1/104 408/1/104 407/1/104
f 413/1/62 414/1/62 415/1/62
f 415/1/62 416/1/62 417/1/62
f 417/1/62 418/1/62 413/1/62
f 415/1/62 417/1/62 413/1/62
f 419/1/21 420/1/21 421/1/21
f 421/1/21 422/1/21 423/1/21
f 423/1/21 424/1/21 419/1/21
f 421/1/21 423/1/21 419/1/21
f 413/1/99 418/1/99 421/1/99
f 413/1/99 421/1/99 420/1/99
f 418/1/100 417/1/100 422/1/100
f 418/1/100 422/1/100 421/1/100
f 417/1/101 416/1/101 423/1/101
f 417/1/101 423/1/101 422/1/101
f 416/1/102 415/1/102 424/1/102
f 416/1/102 424/1/102 423/1/102
f 415/1/103 414/1/103 419/1/103
f 415/1/103 419/1/103 424/1/103
f 414/1/104 413/1/104 420/1/104
f 414/1/104 420/1/104 419/1/104
f 425/1/62 426/1/62 427/1/62
f 427/1/62 428/1/62 429/1/62
f 429/1/62 430/1/62 425/1/62
f 427/1/62 429/1/62 425/1/62
f 431/1/21 432/1/21 433/1/21
f 433/1/21 434/1/21 435/1/21
f 435/1/21 436/1/21 431/1/21
f 433/1/21 435/1/21 431/1/21
f 425/1/99 430/1/99 433/1/99
f 425/1/99 433/1/99 432/1/99
f 430/1/100 429/1/100 434/1/100
f 430/1/100 434/1/100 433/1/100
f 429/1/101 428/1/101 435/1/101
f 429/1/101 435/1/101 434/1/101
f 428/1/102 427/1/102 436/1/102
f 428/1/102 436/1/102 435/1/102
f 427/1/103 426/1/103 431/1/103
f 427/1/103 431/1/103 436/1/103
f 426/1/104 425/1/104 432/1/104
f 426/1/104 432/1/104 431/1/104
