# Authored in Blender; exported by tools-export-modern.py
mtllib materials.mtl
s off
v 0.000000000 0.356720497 1.000000000
v 0.000000000 0.356720497 0.000000000
v 0.021645784 0.345150590 0.000000000
v 0.021645784 0.345150590 1.000000000
v 0.119350513 0.315512180 1.000000000
v 0.080268621 0.327367544 0.000000000
v 0.256137133 0.274018407 0.000000000
v 0.256137133 0.274018407 1.000000000
v 0.357746661 0.264010737 1.000000000
v 0.317102849 0.268013805 0.000000000
v 0.500000000 0.250000000 0.000000000
v 0.500000000 0.250000000 1.000000000
v 0.601609528 0.260007670 1.000000000
v 0.560965717 0.256004602 0.000000000
v 0.743862867 0.274018407 0.000000000
v 0.743862867 0.274018407 1.000000000
v 0.841567596 0.303656816 1.000000000
v 0.802485704 0.291801453 0.000000000
v 0.978354216 0.345150590 0.000000000
v 0.978354216 0.345150590 1.000000000
v 1.000000000 0.356720497 0.000000000
v 1.000000000 0.356720497 1.000000000
v 0.000000000 0.300299059 0.187988645
v 0.000000000 0.300299059 0.009999990
v 0.002511501 0.298956633 0.009999990
v 0.002511501 0.298956633 0.190000057
v 0.000000000 0.300299059 0.190000057
v 0.246382713 0.224979162 0.009999990
v 0.246382713 0.224979162 0.190000057
v 0.500000000 0.200000048 0.009999990
v 0.500000000 0.200000048 0.190000057
v 0.753617287 0.224979162 0.009999990
v 0.753617287 0.224979162 0.190000057
v 0.997488499 0.298956633 0.009999990
v 0.997488499 0.298956633 0.190000057
v 1.000000000 0.300299058 0.012011401
v 1.000000000 0.300299058 0.009999990
v 1.000000000 0.300299058 0.190000057
v 0.000000000 0.378862954 0.190000057
v 0.033126116 0.372866988 0.190000057
v 0.000000000 0.390573267 0.190000057
v 0.261989832 0.303442001 0.190000057
v 0.500000000 0.279999971 0.190000057
v 0.738010168 0.303442001 0.190000057
v 0.966873884 0.372866988 0.190000057
v 1.000000000 0.301556489 0.190000057
v 1.000000000 0.390573267 0.190000057
v 0.000000000 0.390573267 0.038269729
v 0.033126116 0.372866988 0.009999990
v 0.000000000 0.390573267 0.009999990
v 0.261989832 0.303442001 0.009999990
v 0.500000000 0.279999971 0.009999990
v 0.738010168 0.303442001 0.009999990
v 0.966873884 0.372866988 0.009999990
v 1.000000000 0.390573267 0.161730319
v 1.000000000 0.390573267 0.009999990
v 0.000000000 0.301556489 0.009999990
v 1.000000000 0.378862951 0.009999990
vt 0.500000000 0.500000000
vn -0.471396543 -0.881921368 0.000000000
vn -0.290284716 -0.956940324 0.000000000
vn -0.098017184 -0.995184722 0.000000000
vn 0.098017184 -0.995184722 0.000000000
vn 0.290284716 -0.956940324 0.000000000
vn 0.471396543 -0.881921368 0.000000000
vn -0.471396912 -0.881921171 0.000000000
vn -0.290284487 -0.956940393 0.000000000
vn -0.098017109 -0.995184730 0.000000000
vn 0.098017109 -0.995184730 0.000000000
vn 0.290284487 -0.956940393 0.000000000
vn 0.471396717 -0.881921275 0.000000000
vn 0.000000000 0.000000000 1.000000000
vn 0.471396763 0.881921251 0.000000000
vn 0.290284438 0.956940408 0.000000000
vn 0.098017449 0.995184696 0.000000000
vn -0.098017449 0.995184696 0.000000000
vn -0.290284438 0.956940408 0.000000000
vn -0.471396763 0.881921251 0.000000000
vn 0.000000000 0.000000000 -1.000000000
usemtl mat_4
f 1/1/1 2/1/1 3/1/1 4/1/1
f 5/1/2 6/1/2 7/1/2 8/1/2
f 4/1/2 3/1/2 6/1/2 5/1/2
f 9/1/3 10/1/3 11/1/3 12/1/3
f 8/1/3 7/1/3 10/1/3 9/1/3
f 13/1/4 14/1/4 15/1/4 16/1/4
f 12/1/4 11/1/4 14/1/4 13/1/4
f 17/1/5 18/1/5 19/1/5 20/1/5
f 16/1/5 15/1/5 18/1/5 17/1/5
f 20/1/6 19/1/6 21/1/6 22/1/6
usemtl mat_1
f 23/1/7 24/1/7 25/1/7 26/1/7
f 23/1/7 26/1/7 27/1/7
f 25/1/8 28/1/8 29/1/8
f 25/1/8 29/1/8 26/1/8
f 28/1/9 30/1/9 31/1/9
f 28/1/9 31/1/9 29/1/9
f 30/1/10 32/1/10 33/1/10
f 30/1/10 33/1/10 31/1/10
f 32/1/11 34/1/11 35/1/11
f 32/1/11 35/1/11 33/1/11
f 36/1/12 34/1/12 37/1/12
f 34/1/12 36/1/12 38/1/12 35/1/12
f 39/1/13 27/1/13 26/1/13 40/1/13
f 39/1/13 40/1/13 41/1/13
f 26/1/13 29/1/13 42/1/13
f 26/1/13 42/1/13 40/1/13
f 29/1/13 31/1/13 43/1/13
f 29/1/13 43/1/13 42/1/13
f 31/1/13 33/1/13 44/1/13
f 31/1/13 44/1/13 43/1/13
f 33/1/13 35/1/13 45/1/13
f 33/1/13 45/1/13 44/1/13
f 46/1/13 35/1/13 38/1/13
f 35/1/13 46/1/13 47/1/13 45/1/13
f 48/1/14 41/1/14 40/1/14 49/1/14
f 48/1/14 49/1/14 50/1/14
f 40/1/15 42/1/15 51/1/15
f 40/1/15 51/1/15 49/1/15
f 42/1/16 43/1/16 52/1/16
f 42/1/16 52/1/16 51/1/16
f 43/1/17 44/1/17 53/1/17
f 43/1/17 53/1/17 52/1/17
f 44/1/18 45/1/18 54/1/18
f 44/1/18 54/1/18 53/1/18
f 55/1/19 45/1/19 47/1/19
f 45/1/19 55/1/19 56/1/19 54/1/19
f 57/1/20 50/1/20 49/1/20 25/1/20
f 57/1/20 25/1/20 24/1/20
f 49/1/20 51/1/20 28/1/20
f 49/1/20 28/1/20 25/1/20
f 51/1/20 52/1/20 30/1/20
f 51/1/20 30/1/20 28/1/20
f 52/1/20 53/1/20 32/1/20
f 52/1/20 32/1/20 30/1/20
f 53/1/20 54/1/20 34/1/20
f 53/1/20 34/1/20 32/1/20
f 58/1/20 54/1/20 56/1/20
f 54/1/20 58/1/20 37/1/20 34/1/20
