# Authored in Blender; exported by tools-export-modern.py
mtllib materials.mtl
s off
v 0.359613838 0.000000000 0.500000000
v 0.356720497 0.000000000 0.500000000
v 0.460662961 0.194462776 0.500000000
v 0.616116524 0.383883476 0.500000000
v 1.000000000 0.640386275 0.500000000
v 0.805537224 0.539337158 0.500000000
v 1.000000000 0.643279623 0.500000000
v 0.457106781 0.000000000 0.500000000
v 1.000000000 0.542893219 0.500000000
v 1.000000000 0.250000000 0.500000000
v 0.750000000 0.000000000 0.500000000
v 1.000000000 0.000000000 0.500000000
v 1.000000000 0.643279623 1.000000000
v 0.805537224 0.539337158 1.000000000
v 0.789752165 0.526382685 1.000000000
v 0.616116524 0.383883476 1.000000000
v 0.603162060 0.368098418 1.000000000
v 0.460662961 0.194462776 1.000000000
v 0.356720497 0.000000000 1.000000000
v 0.451036930 0.176453729 1.000000000
v 1.000000000 0.699700941 0.412011378
v 1.000000000 0.699700941 0.409999967
v 0.777758718 0.580910444 0.409999967
v 0.777758718 0.580910444 0.590000033
v 1.000000000 0.699700941 0.590000033
v 0.580761194 0.419238806 0.409999967
v 0.580761194 0.419238806 0.590000033
v 0.419089556 0.222241402 0.409999967
v 0.419089556 0.222241402 0.590000033
v 0.300299058 0.000000000 0.587988623
v 0.300299058 0.000000000 0.409999967
v 0.300299058 0.000000000 0.590000033
v 1.000000000 0.698443509 0.590000033
v 0.822204351 0.514392853 0.590000033
v 1.000000000 0.609426614 0.590000033
v 0.637329698 0.362670422 0.590000033
v 0.485607028 0.177795649 0.590000033
v 0.378862951 0.000000000 0.590000033
v 0.390573267 0.000000000 0.590000033
v 1.000000000 0.609426614 0.561730295
v 0.822204351 0.514392853 0.409999967
v 1.000000000 0.609426614 0.409999967
v 0.637329698 0.362670422 0.409999967
v 0.485607028 0.177795649 0.409999967
v 0.390573267 0.000000000 0.438269705
v 0.390573267 0.000000000 0.409999967
v 1.000000000 0.621136943 0.409999967
v 0.301556489 0.000000000 0.409999967
vt 0.500000000 0.500000000
vn 0.000000000 0.000000000 -1.000000000
vn -0.471396543 0.881921368 0.000000000
vn -0.634393603 0.773010191 0.000000000
vn -0.773010430 0.634393313 0.000000000
vn -0.881921368 0.471396543 0.000000000
vn -0.471396912 0.881921171 0.000000000
vn -0.634393165 0.773010551 0.000000000
vn -0.773010363 0.634393395 0.000000000
vn -0.881921275 0.471396717 0.000000000
vn 0.000000000 0.000000000 1.000000000
vn 0.471396763 -0.881921251 0.000000000
vn 0.634392594 -0.773011020 0.000000000
vn 0.773010731 -0.634392945 0.000000000
vn 0.881921251 -0.471396763 0.000000000
usemtl mat_4
f 1/1/1 2/1/1 3/1/1 4/1/1
f 5/1/1 4/1/1 6/1/1 7/1/1
f 8/1/1 1/1/1 4/1/1
f 9/1/1 4/1/1 5/1/1
f 10/1/1 11/1/1 8/1/1
f 10/1/1 8/1/1 4/1/1
f 10/1/1 4/1/1 9/1/1
f 12/1/1 11/1/1 10/1/1
f 13/1/2 7/1/2 6/1/2 14/1/2
f 15/1/3 6/1/3 4/1/3 16/1/3
f 14/1/3 6/1/3 15/1/3
f 17/1/4 4/1/4 3/1/4 18/1/4
f 16/1/4 4/1/4 17/1/4
f 19/1/5 20/1/5 3/1/5 2/1/5
f 18/1/5 3/1/5 20/1/5
usemtl mat_1
f 21/1/6 22/1/6 23/1/6 24/1/6
f 21/1/6 24/1/6 25/1/6
f 23/1/7 26/1/7 27/1/7
f 23/1/7 27/1/7 24/1/7
f 26/1/8 28/1/8 29/1/8
f 26/1/8 29/1/8 27/1/8
f 30/1/9 28/1/9 31/1/9
f 28/1/9 30/1/9 32/1/9 29/1/9
f 33/1/10 25/1/10 24/1/10 34/1/10
f 33/1/10 34/1/10 35/1/10
f 24/1/10 27/1/10 36/1/10
f 24/1/10 36/1/10 34/1/10
f 27/1/10 29/1/10 37/1/10
f 27/1/10 37/1/10 36/1/10
f 38/1/10 29/1/10 32/1/10
f 29/1/10 38/1/10 39/1/10 37/1/10
f 40/1/11 35/1/11 34/1/11 41/1/11
f 40/1/11 41/1/11 42/1/11
f 34/1/12 36/1/12 43/1/12
f 34/1/12 43/1/12 41/1/12
f 36/1/13 37/1/13 44/1/13
f 36/1/13 44/1/13 43/1/13
f 45/1/14 37/1/14 39/1/14
f 37/1/14 45/1/14 46/1/14 44/1/14
f 47/1/1 42/1/1 41/1/1 23/1/1
f 47/1/1 23/1/1 22/1/1
f 41/1/1 43/1/1 26/1/1
f 41/1/1 26/1/1 23/1/1
f 43/1/1 44/1/1 28/1/1
f 43/1/1 28/1/1 26/1/1
f 48/1/1 44/1/1 46/1/1
f 44/1/1 48/1/1 31/1/1 28/1/1
