# Authored in Blender; exported by tools-export-modern.py
mtllib materials.mtl
s off
v 0.766666847 0.000000000 0.150000095
v 0.980000019 0.000000000 0.150000095
v 0.980000019 0.199999809 0.150000095
v 0.019999981 0.000000000 0.150000095
v 0.019999981 0.199999809 0.150000095
v 0.869230730 0.199999809 0.000000000
v 0.019999981 0.199999809 0.000000000
v 0.980000019 0.199999809 0.000000000
v 0.019999981 0.096153621 0.000000000
v 0.019999981 0.000000000 0.000000000
v 0.980000019 0.096153621 0.000000000
v 0.980000019 0.000000000 0.000000000
vt 0.500000000 0.500000000
vn 0.000000000 0.000000000 1.000000000
vn 0.000000000 1.000000000 0.000000000
vn -1.000000000 0.000000000 0.000000000
vn 1.000000000 0.000000000 0.000000000
usemtl mat_4
f 1/1/1 2/1/1 3/1/1
f 4/1/1 1/1/1 3/1/1 5/1/1
f 6/1/2 7/1/2 5/1/2 3/1/2
f 6/1/2 3/1/2 8/1/2
f 9/1/3 10/1/3 4/1/3 5/1/3
f 9/1/3 5/1/3 7/1/3
f 11/1/4 8/1/4 3/1/4
f 12/1/4 11/1/4 3/1/4 2/1/4
