# Authored in Blender; exported by tools-export-modern.py
mtllib materials.mtl
s off
v 1.000000000 0.185210081 0.880000114
v 0.000000000 0.134789914 0.880000114
v 0.000000000 0.039999999 0.880000114
v 1.000000000 0.039999999 0.880000114
v 1.000000000 0.280000001 0.880000114
v 0.000000000 0.280000001 0.880000114
v 0.000000000 0.039999999 0.000000000
v 1.000000000 0.039999999 0.000000000
v 1.000000000 0.280000001 0.000000000
v 0.000000000 0.280000001 0.000000000
v 0.277777785 1.000000000 0.619999886
v 0.000000000 0.500000000 0.619999886
v 1.000000000 0.500000000 0.619999886
v 1.000000000 1.000000000 0.619999886
v 0.000000000 1.000000000 0.619999886
v 0.031249977 0.500000000 0.000000000
v 1.000000000 0.500000000 0.000000000
v 0.000000000 0.500000000 0.000000000
v 0.000000000 1.000000000 0.157777764
v 0.000000000 0.556249957 0.000000000
v 0.000000000 1.000000000 0.000000000
v 1.000000000 1.000000000 0.000000000
v 1.000000000 1.000000000 0.157777764
v 1.000000000 0.556249957 0.000000000
vt 0.500000000 0.500000000
vn 0.000000000 0.000000000 1.000000000
vn 0.000000000 -1.000000000 0.000000000
vn 0.000000000 1.000000000 0.000000000
vn -1.000000000 0.000000000 0.000000000
vn 1.000000000 0.000000000 0.000000000
usemtl mat_0
f 1/1/1 2/1/1 3/1/1 4/1/1
f 2/1/1 1/1/1 5/1/1 6/1/1
f 7/1/2 8/1/2 4/1/2 3/1/2
f 9/1/3 10/1/3 6/1/3 5/1/3
f 11/1/1 12/1/1 13/1/1 14/1/1
f 15/1/1 12/1/1 11/1/1
f 16/1/2 17/1/2 13/1/2
f 18/1/2 16/1/2 13/1/2 12/1/2
f 19/1/4 20/1/4 18/1/4
f 19/1/4 18/1/4 12/1/4
f 19/1/4 12/1/4 15/1/4
f 21/1/4 20/1/4 19/1/4
f 22/1/5 23/1/5 24/1/5
f 17/1/5 24/1/5 23/1/5
f 17/1/5 23/1/5 14/1/5
f 17/1/5 14/1/5 13/1/5
