# Authored in Blender; exported by tools-export-modern.py
mtllib materials.mtl
s off
v 0.305639493 0.945139125 0.000000000
v 0.000000000 0.963267088 0.009689580
v 0.000000000 0.945139125 0.000000000
v 0.000000000 1.000000000 0.029323693
v 0.668750048 0.945139125 0.000000000
v 0.668750048 1.000000000 0.029323693
v 0.737697027 0.945139125 0.000000000
v 0.690436216 1.000000000 0.029323693
v 0.756250143 0.945139125 0.000000000
v 0.756250143 1.000000000 0.029323693
v 0.777751794 1.000000000 0.000000000
v 0.669504514 1.000000000 0.059156512
v 0.650000095 1.000000000 0.059156512
v 0.650000095 0.908914566 0.010470390
v 0.787499905 0.908914566 0.010470390
v 0.787499905 1.000000000 0.059156512
v 0.668856113 0.896156365 0.000000000
v 0.650000095 0.896156365 0.000000000
v 0.787499905 0.896156365 0.000000000
v 0.650000095 1.000000000 0.057143973
v 0.650000095 0.914477985 0.000000000
v 0.650000095 1.000000000 0.010384051
v 0.650000095 0.974930668 0.000000000
v 0.650000095 1.000000000 0.000000000
v 0.787499905 1.000000000 0.048199218
v 0.787499905 0.898444179 0.000000000
v 0.787499905 1.000000000 0.028588413
v 0.787499905 0.901918475 0.000000000
v 0.787499905 1.000000000 0.000000000
v 0.337499857 0.364999980 0.126950026
v 0.322499752 0.364999980 0.111949921
v 0.337499857 0.349999964 0.111949921
v 0.607499838 0.364999980 0.126950026
v 0.607499838 0.349999964 0.111949921
v 0.622499943 0.364999980 0.111949921
v 0.322499752 0.941249967 0.111949921
v 0.337499857 0.941249967 0.126950026
v 0.337499857 0.956250012 0.111949921
v 0.607499838 0.941249967 0.126950026
v 0.622499943 0.941249967 0.111949921
v 0.607499838 0.956250012 0.111949921
v 0.327367175 0.360132586 0.000000000
v 0.322499752 0.364999980 0.000000000
v 0.337499857 0.349999964 0.000000000
v 0.612367261 0.354867358 0.000000000
v 0.607499838 0.349999964 0.000000000
v 0.622499943 0.364999980 0.000000000
v 0.332632434 0.951382608 0.000000000
v 0.337499857 0.956250012 0.000000000
v 0.322499752 0.941249967 0.000000000
v 0.617632520 0.946117370 0.000000000
v 0.622499943 0.941249967 0.000000000
v 0.607499838 0.956250012 0.000000000
v 0.425112855 0.349999964 0.000000000
v 0.322499752 0.754261105 0.000000000
v 0.622499943 0.551988841 0.000000000
v 0.425112855 0.956250012 0.000000000
v 0.218749762 0.327499986 0.208199978
v 0.203749895 0.327499986 0.193200111
v 0.218749762 0.312500000 0.193200111
v 0.726249933 0.327499986 0.208199978
v 0.726249933 0.312500000 0.193200111
v 0.741249800 0.327499986 0.193200111
v 0.203749895 0.422500014 0.193200111
v 0.218749762 0.422500014 0.208199978
v 0.218749762 0.437500000 0.193200111
v 0.726249933 0.422500014 0.208199978
v 0.741249800 0.422500014 0.193200111
v 0.726249933 0.437500000 0.193200111
v 0.209460190 0.321789645 0.000000000
v 0.203749895 0.327499986 0.000000000
v 0.218749762 0.312500000 0.000000000
v 0.731960229 0.318210341 0.000000000
v 0.726249933 0.312500000 0.000000000
v 0.741249800 0.327499986 0.000000000
v 0.213039466 0.431789659 0.000000000
v 0.218749762 0.437500000 0.000000000
v 0.203749895 0.422500014 0.000000000
v 0.735539504 0.428210355 0.000000000
v 0.741249800 0.422500014 0.000000000
v 0.726249933 0.437500000 0.000000000
v 0.411949873 0.312500000 0.000000000
v 0.203749895 0.386334478 0.000000000
v 0.741249800 0.363665522 0.000000000
v 0.411949873 0.437500000 0.000000000
v 1.000000000 0.006362775 0.541362804
v 0.000000000 0.004088325 0.539088374
v 0.000000000 0.000000000 0.535000086
v 1.000000000 0.000000000 0.535000086
v 1.000000000 0.015000001 0.549999952
v 0.000000000 0.015000001 0.549999952
v 0.000000000 0.010911676 0.229088431
v 1.000000000 0.008637225 0.231362861
v 1.000000000 0.000000000 0.240000010
v 0.000000000 0.000000000 0.240000010
v 0.000000000 0.015000001 0.225000143
v 1.000000000 0.015000001 0.225000143
v 1.000000000 0.316362771 0.543637234
v 0.000000000 0.314088323 0.545911664
v 0.000000000 0.310000002 0.549999952
v 1.000000000 0.310000002 0.549999952
v 1.000000000 0.324999988 0.535000086
v 0.000000000 0.324999988 0.535000086
v 0.000000000 0.320911667 0.235911721
v 1.000000000 0.318637219 0.233637291
v 1.000000000 0.310000002 0.225000143
v 0.000000000 0.310000002 0.225000143
v 0.000000000 0.324999988 0.240000010
v 1.000000000 0.324999988 0.240000010
v 1.000000000 0.140134574 0.549999952
v 0.000000000 0.095403719 0.549999952
v 1.000000000 0.000000000 0.409865481
v 0.000000000 0.000000000 0.454596347
v 0.000000000 0.229596284 0.225000143
v 1.000000000 0.184865429 0.225000143
v 1.000000000 0.324999988 0.409865481
v 0.000000000 0.324999988 0.454596347
v 1.000000000 0.217249847 0.468499748
v 0.000000000 0.215499555 0.466749453
v 0.000000000 0.212499991 0.463749886
v 1.000000000 0.212499991 0.463749886
v 1.000000000 0.223749995 0.474999905
v 0.000000000 0.223749995 0.474999905
v 1.000000000 0.268499836 0.470250042
v 0.000000000 0.266749546 0.472000337
v 0.000000000 0.263749987 0.474999905
v 1.000000000 0.263749987 0.474999905
v 1.000000000 0.274999976 0.463749886
v 0.000000000 0.274999976 0.463749886
v 1.000000000 0.240638362 0.474999905
v 0.000000000 0.234415104 0.474999905
v 1.000000000 0.212499991 0.000000000
v 0.000000000 0.212499991 0.000000000
v 1.000000000 0.274999976 0.000000000
v 0.000000000 0.274999976 0.000000000
vt 0.715519282 0.032094992
vt 0.698153402 0.033902966
vt 0.698153402 0.032094992
vt 0.698153402 0.037566487
vt 0.736150563 0.032094992
vt 0.736150563 0.037566487
vt 0.740068026 0.032094992
vt 0.737382738 0.037566487
vt 0.741122186 0.032094992
vt 0.741122186 0.037566487
vt 0.637632992 0.037566488
vt 0.634708430 0.037566487
vt 0.637632983 0.032094992
vt 0.645529357 0.038640188
vt 0.628906250 0.038640188
vt 0.628906250 0.029947056
vt 0.746093750 0.029947056
vt 0.746093750 0.038640188
vt 0.644976742 0.028729422
vt 0.628906250 0.028729422
vt 0.746093750 0.028729422
vt 0.634326554 0.038640188
vt 0.639780352 0.030478026
vt 0.639780360 0.028729422
vt 0.638781071 0.029947056
vt 0.634134479 0.038640188
vt 0.638789318 0.038640182
vt 0.639780366 0.036247583
vt 0.639780364 0.038640182
vt 0.635180266 0.038640182
vt 0.639780357 0.028947769
vt 0.637051903 0.038640183
vt 0.639780357 0.029279354
vt 0.639780360 0.038640183
vt 0.633300781 0.006805733
vt 0.632421911 0.007252737
vt 0.634472668 0.007421874
vt 0.740234375 0.006080862
vt 0.740234375 0.008593749
vt 0.746093750 0.007997736
vt 0.633593798 0.118194267
vt 0.633300781 0.118194260
vt 0.633984447 0.121093750
vt 0.740234435 0.118194275
vt 0.746093750 0.118194267
vt 0.740234375 0.121093750
vt 0.633182467 0.042672249
vt 0.631281105 0.042672249
vt 0.634567769 0.042786502
vt 0.742135699 0.043578110
vt 0.740234375 0.043578108
vt 0.746093750 0.043175499
vt 0.668842032 0.120152889
vt 0.668842032 0.121093750
vt 0.668578145 0.118194267
vt 0.668292899 0.118374600
vt 0.633593738 0.118194267
vt 0.668958355 0.118194267
vt 0.668292899 0.120333222
vt 0.633593738 0.121093750
vt 0.668791560 0.042786497
vt 0.668578126 0.082049511
vt 0.667786508 0.007107688
vt 0.668958395 0.042950489
vt 0.633593798 0.006805733
vt 0.669085157 0.006805733
vt 0.669084557 0.044338640
vt 0.634765685 0.008593749
vt 0.740234315 0.008593747
vt 0.740329397 0.044338639
vt 0.634765685 0.043578113
vt 0.631358981 0.017968748
vt 0.631359041 0.015270711
vt 0.632176638 0.006359011
vt 0.742823422 0.014453124
vt 0.742823482 0.007176598
vt 0.746093750 0.010773975
vt 0.632176638 0.107031256
vt 0.631358981 0.107031241
vt 0.632176578 0.121093750
vt 0.742823482 0.107031256
vt 0.746093750 0.107031241
vt 0.742823422 0.121093750
vt 0.631670269 0.054311471
vt 0.630425288 0.054311474
vt 0.632176615 0.048792364
vt 0.744068439 0.049298703
vt 0.742823482 0.049298703
vt 0.746093750 0.051526596
vt 0.674298652 0.115740297
vt 0.674298697 0.121093750
vt 0.674298688 0.107031250
vt 0.674298674 0.111762198
vt 0.632176578 0.107031241
vt 0.674609948 0.107031247
vt 0.674298674 0.120471254
vt 0.674298757 0.048792364
vt 0.674298711 0.073126072
vt 0.673792365 0.016297826
vt 0.674609948 0.051873931
vt 0.632176578 0.017968748
vt 0.674713713 0.017968749
vt 0.674298711 0.049921194
vt 0.632176638 0.007176598
vt 0.742823422 0.007176598
vt 0.742823399 0.049921194
vt 0.632176638 0.049298707
vt 0.054396062 0.132962734
vt 0.036902355 0.132962734
vt 0.036902352 0.133331272
vt 0.054396059 0.133536300
vt 0.053617466 0.133741328
vt 0.035918730 0.133946356
vt 0.035966981 0.244619600
vt 0.053655659 0.243799480
vt 0.053655659 0.240685076
vt 0.035966981 0.240685076
vt 0.035966984 0.246093761
vt 0.053655662 0.246093759
vt 0.053617466 0.242979360
vt 0.035918730 0.242159241
vt 0.035918728 0.240685076
vt 0.053617463 0.240685076
vt 0.055630063 0.246093756
vt 0.038461306 0.246093754
vt 0.053655658 0.240685076
vt 0.035616522 0.241422156
vt 0.053110229 0.241832215
vt 0.053617463 0.179435529
vt 0.035918728 0.163306617
vt 0.054396059 0.178656934
vt 0.036902352 0.162322994
vt 0.035966981 0.211693354
vt 0.053655658 0.195564441
vt 0.053655659 0.134314895
vt 0.035966981 0.134314895
vt 0.053110229 0.180582668
vt 0.035616522 0.164043697
vt 0.053483828 0.135878719
vt 0.035333571 0.133496260
vt 0.035333573 0.129458384
vt 0.053483831 0.129484679
vt 0.053386169 0.147773514
vt 0.035209615 0.148593963
vt 0.053386166 0.233905973
vt 0.035209613 0.230624175
vt 0.035209615 0.224999994
vt 0.053386169 0.224999994
vt 0.053597381 0.246093750
vt 0.035477702 0.246093750
vt 0.053386169 0.181665695
vt 0.035209615 0.169997085
vt 0.053483831 0.157354270
vt 0.035333573 0.157327975
vt 0.053387324 0.157533248
vt 0.035218719 0.157533248
vt 0.035247093 0.129582331
vt 0.053415697 0.129582331
vn 0.000000000 -0.471396038 0.881921638
vn 0.768942416 -0.301371993 0.563828416
vn 0.000000000 -0.471396306 0.881921495
vn 0.000000000 -0.634393488 0.773010286
vn -1.000000000 0.000000000 0.000000000
vn 1.000000000 0.000000000 0.000000000
vn -0.577349122 -0.577352563 0.577349122
vn 0.577349122 -0.577352563 0.577349122
vn -0.577349504 0.577351799 0.577349504
vn 0.577349504 0.577351799 0.577349504
vn 0.000000000 -0.707108889 0.707104674
vn -0.707104674 -0.707108889 -0.000000000
vn 0.707104674 -0.707108889 0.000000000
vn -0.707105376 0.707108186 0.000000000
vn -0.000000000 0.707108186 0.707105376
vn 0.707105376 0.707108186 0.000000000
vn -0.707106781 0.000000000 0.707106781
vn 0.707106781 -0.000000000 0.707106781
vn 0.000000000 0.000000000 1.000000000
vn 0.000000000 -1.000000000 0.000000000
vn -0.000000000 1.000000000 0.000000000
vn -0.577351799 -0.577347210 0.577351799
vn 0.577351799 -0.577347210 0.577351799
vn -0.577351799 0.577347210 0.577351799
vn 0.577351799 0.577347210 0.577351799
vn 0.000000000 -0.707103971 0.707109591
vn -0.707109591 -0.707103971 -0.000000000
vn 0.707109591 -0.707103971 0.000000000
vn -0.707109591 0.707103971 0.000000000
vn -0.000000000 0.707103971 0.707109591
vn 0.707109591 0.707103971 0.000000000
vn 0.000000000 -0.707103620 0.707109942
vn -0.000000000 -0.707103620 -0.707109942
vn 0.000000000 0.707103971 -0.707109591
vn 0.000000000 0.000000000 -1.000000000
vn 0.000000000 -0.707107249 0.707106313
vn -0.000000000 0.707107718 0.707105845
usemtl mat_0
f 1/1/1 2/2/1 3/3/1
f 4/4/1 2/2/1 1/1/1
f 4/4/1 1/1/1 5/5/1
f 4/4/1 5/5/1 6/6/1
f 7/7/1 8/8/1 6/6/1 5/5/1
f 8/8/1 7/7/1 9/9/1 10/10/1
f 11/11/2 10/12/2 9/13/2
f 12/14/3 13/15/3 14/16/3 15/17/3
f 12/14/3 15/17/3 16/18/3
f 17/19/4 14/16/4 18/20/4
f 14/16/4 17/19/4 19/21/4 15/17/4
f 20/22/5 21/23/5 18/24/5
f 20/22/5 18/24/5 14/25/5
f 20/22/5 14/25/5 13/26/5
f 22/27/5 23/28/5 21/23/5 20/22/5
f 24/29/5 23/28/5 22/27/5
f 25/30/6 16/26/6 15/25/6
f 26/31/6 15/25/6 19/24/6
f 27/32/6 25/30/6 15/25/6
f 28/33/6 15/25/6 26/31/6
f 29/34/6 27/32/6 15/25/6 28/33/6
f 30/35/7 31/36/7 32/37/7
f 33/38/8 34/39/8 35/40/8
f 36/41/9 37/42/9 38/43/9
f 39/44/10 40/45/10 41/46/10
f 32/37/11 34/39/11 33/38/11
f 32/37/11 33/38/11 30/35/11
f 42/47/12 31/36/12 43/48/12
f 31/36/12 42/47/12 44/49/12 32/37/12
f 45/50/13 34/39/13 46/51/13
f 34/39/13 45/50/13 47/52/13 35/40/13
f 48/53/14 38/43/14 49/54/14
f 38/43/14 48/53/14 50/55/14 36/41/14
f 37/42/15 39/44/15 41/46/15
f 37/42/15 41/46/15 38/43/15
f 51/56/16 40/57/16 52/58/16
f 40/57/16 51/56/16 53/59/16 41/60/16
f 30/35/17 37/42/17 36/41/17
f 30/35/17 36/41/17 31/36/17
f 35/40/18 40/45/18 39/44/18
f 35/40/18 39/44/18 33/38/18
f 30/35/19 33/38/19 39/44/19
f 30/35/19 39/44/19 37/42/19
f 54/61/20 32/37/20 44/49/20
f 32/37/20 54/61/20 46/51/20 34/39/20
f 55/62/5 43/63/5 31/36/5 36/41/5
f 55/62/5 36/41/5 50/55/5
f 56/64/6 35/65/6 47/66/6
f 35/65/6 56/64/6 52/58/6 40/57/6
f 57/67/21 38/68/21 41/69/21 53/70/21
f 49/71/21 38/68/21 57/67/21
f 58/72/22 59/73/22 60/74/22
f 61/75/23 62/76/23 63/77/23
f 64/78/24 65/79/24 66/80/24
f 67/81/25 68/82/25 69/83/25
f 60/74/26 62/76/26 61/75/26
f 60/74/26 61/75/26 58/72/26
f 70/84/27 59/73/27 71/85/27
f 59/73/27 70/84/27 72/86/27 60/74/27
f 73/87/28 62/76/28 74/88/28
f 62/76/28 73/87/28 75/89/28 63/77/28
f 76/90/29 66/80/29 77/91/29
f 66/80/29 76/90/29 78/92/29 64/78/29
f 65/79/30 67/81/30 69/83/30
f 65/79/30 69/83/30 66/80/30
f 79/93/31 68/94/31 80/95/31
f 68/94/31 79/93/31 81/96/31 69/80/31
f 58/72/17 65/79/17 64/78/17
f 58/72/17 64/78/17 59/73/17
f 63/77/18 68/82/18 67/81/18
f 63/77/18 67/81/18 61/75/18
f 58/72/19 61/75/19 67/81/19
f 58/72/19 67/81/19 65/79/19
f 82/97/20 60/74/20 72/86/20
f 60/74/20 82/97/20 74/88/20 62/76/20
f 83/98/5 71/99/5 59/73/5 64/78/5
f 83/98/5 64/78/5 78/92/5
f 84/100/6 63/101/6 75/102/6
f 63/101/6 84/100/6 80/95/6 68/94/6
f 85/103/21 66/104/21 69/105/21 81/106/21
f 77/107/21 66/104/21 85/103/21
usemtl mat_2
f 86/108/32 87/109/32 88/110/32 89/111/32
f 87/109/32 86/108/32 90/112/32 91/113/32
f 92/114/33 93/115/33 94/116/33 95/117/33
f 93/115/33 92/114/33 96/118/33 97/119/33
f 98/120/30 99/121/30 100/122/30 101/123/30
f 99/121/30 98/120/30 102/124/30 103/125/30
f 104/117/34 105/116/34 106/126/34 107/117/34
f 105/116/34 104/117/34 108/127/34 109/128/34
f 110/129/19 111/130/19 91/113/19 90/112/19
f 111/130/19 110/129/19 101/123/19 100/122/19
f 112/131/20 113/132/20 95/117/20 94/116/20
f 89/111/20 88/110/20 113/132/20 112/131/20
f 114/133/35 115/134/35 97/135/35 96/136/35
f 115/134/35 114/133/35 107/117/35 106/126/35
f 116/137/21 117/138/21 103/136/21 102/135/21
f 117/138/21 116/137/21 109/128/21 108/127/21
f 118/139/36 119/140/36 120/141/36 121/142/36
f 119/140/36 118/139/36 122/143/36 123/144/36
f 124/145/37 125/146/37 126/147/37 127/148/37
f 125/146/37 124/145/37 128/149/37 129/150/37
f 130/151/19 131/152/19 123/144/19 122/143/19
f 131/152/19 130/151/19 127/148/19 126/147/19
f 132/153/20 121/142/20 120/141/20 133/154/20
f 134/155/21 135/156/21 129/157/21 128/158/21
