# Authored in Blender; exported by tools-export-modern.py
mtllib materials.mtl
s off
v 0.847248386 1.000000000 1.000000000
v 0.868750095 1.000000000 0.970676307
v 0.868750095 0.945139125 1.000000000
v 0.934564023 1.000000000 0.970676307
v 0.887303211 0.945139125 1.000000000
v 0.956250191 1.000000000 0.970676307
v 0.956250191 0.945139125 1.000000000
v 1.000000000 1.000000000 0.970676307
v 1.000000000 0.945139125 1.000000000
v 0.981144075 0.896156428 1.000000000
v 0.862500191 0.896156428 1.000000000
v 0.862500191 0.908914566 0.989529669
v 1.000000000 0.908914566 0.989529669
v 1.000000000 0.896156428 1.000000000
v 0.980495582 1.000000000 0.940843445
v 0.862500191 1.000000000 0.940843445
v 1.000000000 1.000000000 0.940843445
v 0.862500191 0.914477941 1.000000000
v 0.862500191 1.000000000 0.942855972
v 0.862500191 0.974930563 1.000000000
v 0.862500191 1.000000000 0.989615899
v 0.862500191 1.000000000 1.000000000
v 1.000000000 0.898444235 1.000000000
v 1.000000000 1.000000000 0.951800842
v 1.000000000 1.000000000 0.984873869
v 1.000000000 0.977362144 1.000000000
v 1.000000000 1.000000000 1.000000000
v 0.883749902 0.327499986 0.806799948
v 0.898749888 0.327499986 0.791799963
v 0.898749888 0.312500000 0.806799948
v 0.883749902 0.422500014 0.806799948
v 0.898749888 0.437500000 0.806799948
v 0.898749888 0.422500014 0.791799963
v 0.893039548 0.318210340 1.000000000
v 0.883749902 0.327499986 1.000000000
v 0.898749888 0.312500000 1.000000000
v 1.000000000 0.324507375 0.794792573
v 1.000000000 0.312500000 0.806799948
v 1.000000000 0.327499986 0.791799963
v 0.889460242 0.428210354 1.000000000
v 0.898749888 0.437500000 1.000000000
v 0.883749902 0.422500014 1.000000000
v 1.000000000 0.434507389 0.803807338
v 1.000000000 0.422500014 0.791799963
v 1.000000000 0.437500000 0.806799948
v 1.000000000 0.312500000 1.000000000
v 0.883749902 0.363665516 1.000000000
v 1.000000000 0.403546790 0.791799963
v 1.000000000 0.437500000 1.000000000
v 0.202499866 0.015000001 0.774999976
v 0.187500000 0.015000001 0.759999990
v 0.202499866 0.000000000 0.759999990
v 0.187500000 0.015000001 0.465000033
v 0.202499866 0.015000001 0.450000018
v 0.202499866 0.000000000 0.465000033
v 0.187500000 0.310000002 0.759999990
v 0.202499866 0.310000002 0.774999976
v 0.202499866 0.324999988 0.759999990
v 0.187500000 0.310000002 0.465000033
v 0.202499866 0.324999988 0.465000033
v 0.202499866 0.310000002 0.450000018
v 1.000000000 0.001813874 0.761813863
v 1.000000000 0.000000000 0.759999990
v 1.000000000 0.015000001 0.774999976
v 1.000000000 0.013186126 0.451813894
v 1.000000000 0.000000000 0.465000033
v 1.000000000 0.015000001 0.450000018
v 1.000000000 0.311813875 0.773186104
v 1.000000000 0.310000002 0.774999976
v 1.000000000 0.324999988 0.759999990
v 1.000000000 0.323186115 0.463186157
v 1.000000000 0.310000002 0.450000018
v 1.000000000 0.324999988 0.465000033
v 1.000000000 0.050672864 0.774999976
v 1.000000000 0.000000000 0.724327133
v 1.000000000 0.274327139 0.450000018
v 1.000000000 0.324999988 0.724327133
v 0.839999974 0.064999998 0.637499988
v 0.854999959 0.064999998 0.652500033
v 0.839999974 0.049999997 0.652500033
v 0.579999983 0.064999998 0.652500033
v 0.594999969 0.064999998 0.637499988
v 0.594999969 0.049999997 0.652500033
v 0.854999959 0.284999996 0.652500033
v 0.839999974 0.284999996 0.637499988
v 0.839999974 0.300000012 0.652500033
v 0.579999983 0.284999996 0.652500033
v 0.594999969 0.300000012 0.652500033
v 0.594999969 0.284999996 0.637499988
v 0.591924751 0.053075218 1.000000000
v 0.579999983 0.064999998 1.000000000
v 0.594999969 0.049999997 1.000000000
v 0.851924741 0.061924776 1.000000000
v 0.839999974 0.049999997 1.000000000
v 0.854999959 0.064999998 1.000000000
v 0.583075202 0.288075221 1.000000000
v 0.594999969 0.300000012 1.000000000
v 0.579999983 0.284999996 1.000000000
v 0.843075192 0.296924787 1.000000000
v 0.854999959 0.284999996 1.000000000
v 0.839999974 0.300000012 1.000000000
v 0.789771359 0.049999997 1.000000000
v 0.579999983 0.110103243 1.000000000
v 0.854999959 0.239896751 1.000000000
v 0.789771359 0.300000012 1.000000000
v 0.275000095 0.223749995 0.536250055
v 0.286250114 0.223749995 0.525000036
v 0.286250114 0.212499991 0.536250055
v 0.275000095 0.263749987 0.536250055
v 0.286250114 0.274999976 0.536250055
v 0.286250114 0.263749987 0.525000036
v 0.283543398 0.215206704 1.000000000
v 0.275000095 0.223749995 1.000000000
v 0.286250114 0.212499991 1.000000000
v 1.000000000 0.222500724 0.526249308
v 1.000000000 0.212499991 0.536250055
v 1.000000000 0.223749995 0.525000036
v 0.277706812 0.266456696 1.000000000
v 0.286250114 0.274999976 1.000000000
v 0.275000095 0.263749987 1.000000000
v 1.000000000 0.273750707 0.535000782
v 1.000000000 0.263749987 0.525000036
v 1.000000000 0.274999976 0.536250055
v 1.000000000 0.212499991 1.000000000
v 0.275000095 0.233373858 1.000000000
v 1.000000000 0.259308137 0.525000036
v 1.000000000 0.274999976 1.000000000
v 0.417499900 0.340000033 0.599999964
v 0.446249902 0.340000033 0.649796426
v 0.446249902 0.396250039 0.649796426
v 0.417499900 0.396250039 0.599999964
v 0.503749907 0.340000033 0.649796426
v 0.503749907 0.396250039 0.649796426
v 0.532499909 0.340000033 0.599999964
v 0.532499909 0.396250039 0.599999964
v 0.503749907 0.340000033 0.550203502
v 0.503749907 0.396250039 0.550203502
v 0.446249902 0.340000033 0.550203502
v 0.446249902 0.396250039 0.550203502
vt 0.737367008 0.037566488
vt 0.740291570 0.037566487
vt 0.737367017 0.032094992
vt 0.637617262 0.037566487
vt 0.634931974 0.032094992
vt 0.633877814 0.032094992
vt 0.633877814 0.037566487
vt 0.638849437 0.037566487
vt 0.638849437 0.032094992
vt 0.641335222 0.037566487
vt 0.641335222 0.032094992
vt 0.730023337 0.028729428
vt 0.628906250 0.028729428
vt 0.628906250 0.029947056
vt 0.746093750 0.029947056
vt 0.746093750 0.028729428
vt 0.729470643 0.038640188
vt 0.628906250 0.038640188
vt 0.746093750 0.038640188
vt 0.735219645 0.030478022
vt 0.740673446 0.038640188
vt 0.740865521 0.038640188
vt 0.736218929 0.029947056
vt 0.735219645 0.028729428
vt 0.735219630 0.036247573
vt 0.736210682 0.038640182
vt 0.735219631 0.038640182
vt 0.735219649 0.028947775
vt 0.739819734 0.038640182
vt 0.736663263 0.038640180
vt 0.735219637 0.036479640
vt 0.735219635 0.038640181
vt 0.742823362 0.017968748
vt 0.746093750 0.017968757
vt 0.742823422 0.003906250
vt 0.742823303 0.107031241
vt 0.742823422 0.121093750
vt 0.746093750 0.107031249
vt 0.631865350 0.078782655
vt 0.629840002 0.078782659
vt 0.628906250 0.117823415
vt 0.632176578 0.117823407
vt 0.632176601 0.075390063
vt 0.654251472 0.120441292
vt 0.654251472 0.117823407
vt 0.632176578 0.121093750
vt 0.654251461 0.121093750
vt 0.700701237 0.112384693
vt 0.700701311 0.121093750
vt 0.700701260 0.107031247
vt 0.654251484 0.115670294
vt 0.654251484 0.107031253
vt 0.632176638 0.107031256
vt 0.632176638 0.117823415
vt 0.654251496 0.118149641
vt 0.654251495 0.075390063
vt 0.700701297 0.051873925
vt 0.700390046 0.016941633
vt 0.654251496 0.089262612
vt 0.654251496 0.017968749
vt 0.632176638 0.017968750
vt 0.632176638 0.075701314
vt 0.654251496 0.076027540
vt 0.004105249 0.134314895
vt 0.007962741 0.134314910
vt 0.005457412 0.132962734
vt 0.115685098 0.134314895
vt 0.121093750 0.134314910
vt 0.115685098 0.128906250
vt 0.009314904 0.240685105
vt 0.004105249 0.240685076
vt 0.007600463 0.246093750
vt 0.115685098 0.240685105
vt 0.115685098 0.246093750
vt 0.121093750 0.240685090
vt 0.019408647 0.132962734
vt 0.019408646 0.133126244
vt 0.018219994 0.134151385
vt 0.003906250 0.240685090
vt 0.004171582 0.240685076
vt 0.018278304 0.245439719
vt 0.018278304 0.240685076
vt 0.004171582 0.246093765
vt 0.018278305 0.246093763
vt 0.018219994 0.241339121
vt 0.018219993 0.240685076
vt 0.021292549 0.246093752
vt 0.004171581 0.240685076
vt 0.018122816 0.241012097
vt 0.018219993 0.147177704
vt 0.019408646 0.145989053
vt 0.018278304 0.227822266
vt 0.018278304 0.134314895
vt 0.004171582 0.134314895
vt 0.018122816 0.147504726
vt 0.114701711 0.135937497
vt 0.120414399 0.135937512
vt 0.114701711 0.128906250
vt 0.120074712 0.135937482
vt 0.121093750 0.135937512
vt 0.120074734 0.128906250
vt 0.120329484 0.239062503
vt 0.114701696 0.239062503
vt 0.116044961 0.245584235
vt 0.120074712 0.239062473
vt 0.120074734 0.246093750
vt 0.121093743 0.239062488
vt 0.009144521 0.222391858
vt 0.004062936 0.222391858
vt 0.003906250 0.245074749
vt 0.010298299 0.245074749
vt 0.010022911 0.221415182
vt 0.114701711 0.245074734
vt 0.010298293 0.246093765
vt 0.114701718 0.246093750
vt 0.119783288 0.221467409
vt 0.114701711 0.221467397
vt 0.121093750 0.245074749
vt 0.121093750 0.221878271
vt 0.096834561 0.240503989
vt 0.096834578 0.246093750
vt 0.096467378 0.239062479
vt 0.093263786 0.244247177
vt 0.096669919 0.239062497
vt 0.093263784 0.245688693
vt 0.010298297 0.239062488
vt 0.010298298 0.245074734
vt 0.093022083 0.221415170
vt 0.096467378 0.157079633
vt 0.096415149 0.135629341
vt 0.096669919 0.217920352
vt 0.096737424 0.135937506
vt 0.010298298 0.135937512
vt 0.094365335 0.221872443
vt 0.115769575 0.221872443
vt 0.010298298 0.221467397
vt 0.120417677 0.150000006
vt 0.121093750 0.150000006
vt 0.120417669 0.128906265
vt 0.120417662 0.224999979
vt 0.120417669 0.246093750
vt 0.121093750 0.224999994
vt 0.004183468 0.221232407
vt 0.004028247 0.221232384
vt 0.003906250 0.245417655
vt 0.004110648 0.245417684
vt 0.004139020 0.217507427
vt 0.017078492 0.246018662
vt 0.017078488 0.245417684
vt 0.004110653 0.246093735
vt 0.017078492 0.246093737
vt 0.092510245 0.230075069
vt 0.092510250 0.246093750
vt 0.092548073 0.224999983
vt 0.017078488 0.243150363
vt 0.017078488 0.224999994
vt 0.004110648 0.224999994
vt 0.004110648 0.245417669
vt 0.017065392 0.245455207
vt 0.017106859 0.217507427
vt 0.092548084 0.168044750
vt 0.092507419 0.148771899
vt 0.017078488 0.216671525
vt 0.017078487 0.150000006
vt 0.004110648 0.150000006
vt 0.004110648 0.217548078
vt 0.017065392 0.217585616
vt 0.937500000 0.003906250
vt 0.996093750 0.003906250
vt 0.996093750 0.121093750
vt 0.937500000 0.121093750
vt 0.966796875 0.003906250
vt 0.908203125 0.003906250
vt 0.908203125 0.121093750
vt 0.966796875 0.121093750
vt 0.878906250 0.003906250
vt 0.878906250 0.121093750
vt 0.996093750 0.062500000
vt 0.878906250 0.062500000
vn -0.768941560 -0.301372478 -0.563829325
vn 0.000000000 -0.471396038 -0.881921638
vn 0.000000000 -0.634393192 -0.773010529
vn 0.000000000 -0.471397076 -0.881921083
vn -1.000000000 0.000000000 0.000000000
vn 1.000000000 0.000000000 0.000000000
vn -0.577350269 -0.577350269 -0.577350269
vn -0.577350269 0.577350269 -0.577350269
vn -0.707106781 -0.707106781 -0.000000000
vn -0.000000000 -0.707106781 -0.707106781
vn -0.707106781 0.707106781 0.000000000
vn 0.000000000 0.707106781 -0.707106781
vn -0.707106781 0.000000000 -0.707106781
vn 0.000000000 -1.000000000 0.000000000
vn 0.000000000 0.000000000 -1.000000000
vn 0.000000000 1.000000000 0.000000000
vn -0.577353519 -0.577348357 0.577348931
vn -0.577353902 -0.577348740 -0.577348166
vn -0.577353328 0.577348740 0.577348740
vn -0.577353710 0.577349122 -0.577347975
vn 0.000000000 -0.707106430 0.707107132
vn -0.707109942 -0.707103620 -0.000000000
vn -0.000000000 -0.707107132 -0.707106430
vn -0.707109591 0.707103971 0.000000000
vn -0.000000000 0.707106781 0.707106781
vn 0.000000000 0.707107484 -0.707106079
vn -0.707109591 0.000000000 0.707103971
vn -0.707110293 0.000000000 -0.707103269
vn 0.000000000 0.000000000 1.000000000
vn 0.577351225 -0.577350652 -0.577348931
vn -0.577351225 -0.577350652 -0.577348931
vn 0.577351416 0.577350269 -0.577349122
vn -0.577351416 0.577350269 -0.577349122
vn -0.707107132 -0.707106430 -0.000000000
vn -0.000000000 -0.707107835 -0.707105728
vn 0.707107132 -0.707106430 0.000000000
vn -0.707107484 0.707106079 0.000000000
vn 0.707107484 0.707106079 0.000000000
vn 0.707108186 0.000000000 -0.707105376
vn -0.707108186 0.000000000 -0.707105376
vn -0.577350014 -0.577350779 -0.577350014
vn -0.577349759 0.577351289 -0.577349759
vn -0.707106313 -0.707107249 -0.000000000
vn -0.000000000 -0.707107249 -0.707106313
vn -0.707105845 0.707107718 0.000000000
vn 0.000000000 0.707107718 -0.707105845
vn -0.866025392 0.000000000 0.500000021
vn 0.866025392 0.000000000 0.500000021
vn 0.866025392 0.000000000 -0.500000021
vn -0.866025392 0.000000000 -0.500000021
usemtl mat_0
f 1/1/1 2/2/1 3/3/1
f 4/4/2 5/5/2 3/6/2 2/7/2
f 5/5/2 4/4/2 6/8/2 7/9/2
f 8/10/2 9/11/2 7/9/2 6/8/2
f 10/12/3 11/13/3 12/14/3 13/15/3
f 10/12/3 13/15/3 14/16/3
f 15/17/4 12/14/4 16/18/4
f 12/14/4 15/17/4 17/19/4 13/15/4
f 18/20/5 19/21/5 16/22/5
f 18/20/5 16/22/5 12/23/5
f 18/20/5 12/23/5 11/24/5
f 20/25/5 21/26/5 19/21/5 18/20/5
f 22/27/5 21/26/5 20/25/5
f 23/28/6 14/24/6 13/23/6
f 24/29/6 13/23/6 17/22/6
f 25/30/6 26/31/6 23/28/6
f 25/30/6 23/28/6 13/23/6
f 25/30/6 13/23/6 24/29/6
f 27/32/6 26/31/6 25/30/6
f 28/33/7 29/34/7 30/35/7
f 31/36/8 32/37/8 33/38/8
f 34/39/9 35/40/9 28/41/9 30/42/9
f 34/39/9 30/42/9 36/43/9
f 37/44/10 38/45/10 30/42/10 29/46/10
f 37/44/10 29/46/10 39/47/10
f 40/48/11 41/49/11 32/37/11 31/36/11
f 40/48/11 31/36/11 42/50/11
f 43/51/12 44/52/12 33/53/12 32/54/12
f 43/51/12 32/54/12 45/55/12
f 28/33/13 31/36/13 33/38/13
f 28/33/13 33/38/13 29/34/13
f 46/56/14 36/43/14 30/42/14 38/45/14
f 47/57/5 28/33/5 35/58/5
f 28/33/5 47/57/5 42/50/5 31/36/5
f 48/59/15 39/60/15 29/61/15 33/53/15
f 48/59/15 33/53/15 44/52/15
f 41/62/16 49/63/16 45/55/16 32/54/16
usemtl mat_2
f 50/64/17 51/65/17 52/66/17
f 53/67/18 54/68/18 55/69/18
f 56/70/19 57/71/19 58/72/19
f 59/73/20 60/74/20 61/75/20
f 62/76/21 52/66/21 63/77/21
f 52/66/21 62/76/21 64/78/21 50/64/21
f 51/65/22 53/79/22 55/80/22
f 51/65/22 55/80/22 52/66/22
f 65/81/23 66/82/23 55/80/23 54/83/23
f 65/81/23 54/83/23 67/84/23
f 58/72/24 60/74/24 59/73/24
f 58/72/24 59/73/24 56/70/24
f 68/85/25 57/71/25 69/86/25
f 57/71/25 68/85/25 70/87/25 58/72/25
f 71/82/26 72/82/26 61/88/26 60/80/26
f 71/82/26 60/80/26 73/89/26
f 50/64/27 57/71/27 56/70/27
f 50/64/27 56/70/27 51/65/27
f 53/67/28 59/73/28 61/75/28
f 53/67/28 61/75/28 54/68/28
f 74/90/29 50/64/29 64/78/29
f 50/64/29 74/90/29 69/86/29 57/71/29
f 75/91/14 52/66/14 55/80/14 66/82/14
f 63/77/14 52/66/14 75/91/14
f 53/67/5 51/65/5 56/70/5
f 53/67/5 56/70/5 59/73/5
f 76/92/15 67/93/15 54/94/15 61/88/15
f 76/92/15 61/88/15 72/82/15
f 77/95/16 58/94/16 70/93/16
f 58/94/16 77/95/16 73/89/16 60/80/16
f 78/96/30 79/97/30 80/98/30
f 81/99/31 82/100/31 83/101/31
f 84/102/32 85/103/32 86/104/32
f 87/105/33 88/106/33 89/107/33
f 90/108/34 91/109/34 81/110/34 83/111/34
f 90/108/34 83/111/34 92/112/34
f 80/113/35 83/111/35 82/114/35
f 80/113/35 82/114/35 78/115/35
f 93/116/36 94/117/36 80/113/36 79/118/36
f 93/116/36 79/118/36 95/119/36
f 96/120/37 97/121/37 88/106/37 87/105/37
f 96/120/37 87/105/37 98/122/37
f 99/123/38 100/124/38 84/102/38 86/104/38
f 99/123/38 86/104/38 101/125/38
f 85/103/26 89/126/26 88/127/26
f 85/103/26 88/127/26 86/104/26
f 78/96/39 85/103/39 84/102/39
f 78/96/39 84/102/39 79/97/39
f 81/99/40 87/105/40 89/107/40
f 81/99/40 89/107/40 82/100/40
f 102/128/14 92/112/14 83/111/14 80/113/14
f 102/128/14 80/113/14 94/117/14
f 103/129/5 81/99/5 91/130/5
f 81/99/5 103/129/5 98/122/5 87/105/5
f 104/131/6 95/132/6 79/97/6 84/102/6
f 104/131/6 84/102/6 100/124/6
f 78/96/15 82/133/15 89/126/15
f 78/96/15 89/126/15 85/103/15
f 105/134/16 101/135/16 86/104/16
f 97/136/16 105/134/16 86/104/16 88/127/16
f 106/137/41 107/138/41 108/139/41
f 109/140/42 110/141/42 111/142/42
f 112/143/43 113/144/43 106/145/43 108/146/43
f 112/143/43 108/146/43 114/147/43
f 115/148/44 116/149/44 108/146/44 107/150/44
f 115/148/44 107/150/44 117/151/44
f 118/152/45 119/153/45 110/141/45 109/140/45
f 118/152/45 109/140/45 120/154/45
f 121/155/46 122/156/46 111/157/46 110/158/46
f 121/155/46 110/158/46 123/159/46
f 106/137/13 109/140/13 111/142/13
f 106/137/13 111/142/13 107/138/13
f 124/160/14 114/147/14 108/146/14 116/149/14
f 125/161/5 106/137/5 113/162/5
f 106/137/5 125/161/5 120/154/5 109/140/5
f 126/163/15 117/164/15 107/165/15 111/157/15
f 126/163/15 111/157/15 122/156/15
f 119/166/16 127/167/16 123/159/16 110/158/16
usemtl mat_1
f 128/168/47 129/169/47 130/170/47
f 128/168/47 130/170/47 131/171/47
f 129/172/29 132/173/29 133/174/29
f 129/172/29 133/174/29 130/175/29
f 132/169/48 134/168/48 135/171/48
f 132/169/48 135/171/48 133/170/48
f 134/168/49 136/176/49 137/177/49
f 134/168/49 137/177/49 135/171/49
f 136/173/15 138/172/15 139/175/15
f 136/173/15 139/175/15 137/174/15
f 138/176/50 128/168/50 131/171/50
f 138/176/50 131/171/50 139/177/50
f 128/178/14 138/172/14 136/173/14
f 136/173/14 134/179/14 132/174/14
f 132/174/14 129/175/14 128/178/14
f 136/173/14 132/174/14 128/178/14
f 139/172/16 131/178/16 130/175/16
f 130/175/16 133/174/16 135/179/16
f 135/179/16 137/173/16 139/172/16
f 130/175/16 135/179/16 139/172/16
