# Authored in Blender; exported by tools-export-modern.py
mtllib materials.mtl
s off
v 0.533857426 0.850593338 1.000000000
v 0.490120689 0.915910707 1.000000000
v 0.593750000 0.861100852 0.917971313
v 0.593750000 0.761148576 1.000000000
v 0.481672419 0.932890067 1.000000000
v 0.468750000 0.958861649 1.000000000
v 0.468750000 1.000000000 0.978011106
v 0.544675953 1.000000000 0.896446581
v 0.593750000 0.982121587 0.853284299
v 0.593750000 1.000000000 0.847860948
v 0.602408890 0.761148576 1.000000000
v 0.743750095 0.861100852 0.917971313
v 0.743750095 0.761148576 1.000000000
v 0.743750095 0.982121587 0.853284299
v 0.614172354 1.000000000 0.847860948
v 0.743750095 1.000000000 0.847860948
v 1.000000000 0.773611153 0.989772231
v 0.828174225 0.761148576 1.000000000
v 1.000000000 0.861100852 0.917971313
v 1.000000000 0.761148576 1.000000000
v 1.000000000 0.882305331 0.906637269
v 1.000000000 0.982121587 0.853284299
v 0.942867932 1.000000000 0.847860948
v 1.000000000 1.000000000 0.847860948
v 0.468750000 0.972624772 1.000000000
v 0.468750000 1.000000000 0.981708472
v 0.468750000 1.000000000 1.000000000
v 0.587168233 0.795775351 1.000000000
v 0.568749905 0.795775351 1.000000000
v 0.568749905 0.910499990 0.911968708
v 0.668749809 0.910499990 0.911968708
v 0.668749809 0.795775351 1.000000000
v 0.623402371 1.000000000 0.874896620
v 0.568749905 1.000000000 0.874896620
v 0.668749809 1.000000000 0.874896620
v 0.568749905 1.000000000 0.887987259
v 0.568749905 0.822468719 1.000000000
v 0.568749905 0.939962912 1.000000000
v 0.568749905 1.000000000 0.965337566
v 0.568749905 1.000000000 1.000000000
v 0.668749809 1.000000000 0.887011468
v 0.668749809 0.804298033 1.000000000
v 0.668749809 1.000000000 0.918398261
v 0.668749809 0.918398261 1.000000000
v 0.668749809 1.000000000 1.000000000
v 0.750000000 0.990911245 0.767328322
v 0.755000114 0.989366174 0.762573063
v 0.755000114 0.986155927 0.768873394
v 0.751245162 1.000000000 0.763065994
v 0.755000114 1.000000000 0.759117914
v 0.750000000 1.000000000 0.764375198
v 1.000000000 0.988815203 0.763654381
v 1.000000000 0.986155927 0.768873394
v 1.000000000 0.989366174 0.762573063
v 0.752740583 1.000000000 0.804169141
v 0.750000000 1.000000000 0.795300590
v 0.755000114 1.000000000 0.811481102
v 1.000000000 0.990597704 0.782543788
v 1.000000000 1.000000000 0.811481102
v 1.000000000 1.000000000 0.759117914
v 0.755000114 0.862816751 0.924555480
v 0.750000000 0.858771682 0.927494407
v 0.755000114 0.861710608 0.931539476
v 0.750000000 0.826411009 0.951005816
v 0.755000114 0.822365940 0.953944743
v 0.755000114 0.829349935 0.955050886
v 0.750000000 0.809544683 0.859739184
v 0.755000114 0.813589752 0.856800258
v 0.755000114 0.806605756 0.855694115
v 0.750000000 0.777184010 0.883250594
v 0.755000114 0.774245083 0.879205525
v 0.755000114 0.773138940 0.886189520
v 1.000000000 0.861900454 0.930340822
v 1.000000000 0.861710608 0.931539476
v 1.000000000 0.862816751 0.924555480
v 1.000000000 0.823564593 0.954134589
v 1.000000000 0.829349935 0.955050886
v 1.000000000 0.822365940 0.953944743
v 1.000000000 0.812391098 0.856610412
v 1.000000000 0.813589752 0.856800258
v 1.000000000 0.806605756 0.855694115
v 1.000000000 0.774055237 0.880404179
v 1.000000000 0.773138940 0.886189520
v 1.000000000 0.774245083 0.879205525
v 1.000000000 0.854367987 0.912926742
v 1.000000000 0.856156589 0.935574708
v 1.000000000 0.781587705 0.897818259
v 1.000000000 0.801051737 0.859729347
v 0.952500343 0.365000010 0.765100002
v 0.967500210 0.365000010 0.780099988
v 0.952500343 0.349999994 0.780099988
v 0.667500019 0.365000010 0.780099988
v 0.682499886 0.365000010 0.765100002
v 0.682499886 0.349999994 0.780099988
v 0.967500210 0.884999990 0.780099988
v 0.952500343 0.884999990 0.765100002
v 0.952500343 0.899999976 0.780099988
v 0.667500019 0.884999990 0.780099988
v 0.682499886 0.899999976 0.780099988
v 0.682499886 0.884999990 0.765100002
v 0.672939101 0.359560873 1.000000000
v 0.667500019 0.365000010 1.000000000
v 0.682499886 0.349999994 1.000000000
v 0.957939426 0.355439130 1.000000000
v 0.952500343 0.349999994 1.000000000
v 0.967500210 0.365000010 1.000000000
v 0.677060803 0.894560851 1.000000000
v 0.682499886 0.899999976 1.000000000
v 0.667500019 0.884999990 1.000000000
v 0.962061128 0.890439116 1.000000000
v 0.967500210 0.884999990 1.000000000
v 0.952500343 0.899999976 1.000000000
v 0.780404404 0.349999994 1.000000000
v 0.667500019 0.696443466 1.000000000
v 0.967500210 0.553556534 1.000000000
v 0.780404404 0.899999976 1.000000000
v 0.548749924 0.327499986 0.698849976
v 0.563750267 0.327499986 0.683849990
v 0.563750267 0.312500000 0.698849976
v 0.548749924 0.422500014 0.698849976
v 0.563750267 0.437500000 0.698849976
v 0.563750267 0.422500014 0.683849990
v 0.554849079 0.321400975 1.000000000
v 0.548749924 0.327499986 1.000000000
v 0.563750267 0.312500000 1.000000000
v 1.000000000 0.314605909 0.696744067
v 1.000000000 0.312500000 0.698849976
v 1.000000000 0.327499986 0.683849990
v 0.557651111 0.431400990 1.000000000
v 0.563750267 0.437500000 1.000000000
v 0.548749924 0.422500014 1.000000000
v 1.000000000 0.424605924 0.685955900
v 1.000000000 0.422500014 0.683849990
v 1.000000000 0.437500000 0.698849976
v 1.000000000 0.312500000 0.770099996
v 0.770100186 0.312500000 1.000000000
v 1.000000000 0.312500000 1.000000000
v 0.548749924 0.383872901 1.000000000
v 1.000000000 0.340837429 0.683849990
v 1.000000000 0.437500000 1.000000000
v 1.000000000 0.437500000 0.770099996
v 0.770100186 0.437500000 1.000000000
v 0.617499828 0.444999993 0.952600002
v 0.636249542 0.444999993 0.985075951
v 0.636249542 0.487500012 0.985075951
v 0.617499828 0.487500012 0.952600002
v 0.673749924 0.444999993 0.985075951
v 0.673749924 0.487500012 0.985075951
v 0.692499638 0.444999993 0.952600002
v 0.692499638 0.487500012 0.952600002
v 0.673749924 0.444999993 0.920124054
v 0.673749924 0.487500012 0.920124054
v 0.636249542 0.444999993 0.920124054
v 0.636249542 0.487500012 0.920124054
v 0.942500114 0.444999993 0.952600002
v 0.961249828 0.444999993 0.985075951
v 0.961249828 0.487500012 0.985075951
v 0.942500114 0.487500012 0.952600002
v 0.998750210 0.444999993 0.985075951
v 0.998750210 0.487500012 0.985075951
v 1.000000000 0.447832895 0.982911218
v 1.000000000 0.444999993 0.982911218
v 1.000000000 0.487500012 0.982911218
v 1.000000000 0.484667110 0.922288787
v 1.000000000 0.444999993 0.922288787
v 0.998750210 0.444999993 0.920124054
v 0.998750210 0.487500012 0.920124054
v 1.000000000 0.487500012 0.922288787
v 0.961249828 0.444999993 0.920124054
v 0.961249828 0.487500012 0.920124054
v 1.000000000 0.487500012 0.962703569
v 1.000000000 0.487500012 0.942496435
v 1.000000000 0.010911676 0.770911655
v 0.000000000 0.008637225 0.768637207
v 0.000000000 0.000000000 0.759999990
v 1.000000000 0.000000000 0.759999990
v 1.000000000 0.015000001 0.774999976
v 0.000000000 0.015000001 0.774999976
v 0.000000000 0.006362775 0.458637252
v 1.000000000 0.004088325 0.460911705
v 1.000000000 0.000000000 0.465000033
v 0.000000000 0.000000000 0.465000033
v 0.000000000 0.015000001 0.450000018
v 1.000000000 0.015000001 0.450000018
v 1.000000000 0.320911667 0.764088311
v 0.000000000 0.318637219 0.766362759
v 0.000000000 0.310000002 0.774999976
v 1.000000000 0.310000002 0.774999976
v 1.000000000 0.324999988 0.759999990
v 0.000000000 0.324999988 0.759999990
v 0.000000000 0.316362771 0.456362799
v 1.000000000 0.314088323 0.454088347
v 1.000000000 0.310000002 0.450000018
v 0.000000000 0.310000002 0.450000018
v 0.000000000 0.324999988 0.465000033
v 1.000000000 0.324999988 0.465000033
v 1.000000000 0.229596284 0.774999976
v 0.000000000 0.184865429 0.774999976
v 1.000000000 0.000000000 0.545403739
v 0.000000000 0.000000000 0.590134588
v 0.000000000 0.140134574 0.450000018
v 1.000000000 0.095403719 0.450000018
v 1.000000000 0.324999988 0.545403739
v 0.000000000 0.324999988 0.590134588
v 0.000000000 0.217249847 0.531500193
v 1.000000000 0.215499555 0.533250487
v 1.000000000 0.212499991 0.536250055
v 0.000000000 0.212499991 0.536250055
v 0.000000000 0.223749995 0.525000036
v 1.000000000 0.223749995 0.525000036
v 0.000000000 0.268499836 0.529749898
v 1.000000000 0.266749546 0.527999603
v 1.000000000 0.263749987 0.525000036
v 0.000000000 0.263749987 0.525000036
v 0.000000000 0.274999976 0.536250055
v 1.000000000 0.274999976 0.536250055
v 1.000000000 0.212499991 1.000000000
v 0.000000000 0.212499991 1.000000000
v 0.000000000 0.240638362 0.525000036
v 1.000000000 0.234415104 0.525000036
v 0.000000000 0.274999976 1.000000000
v 1.000000000 0.274999976 1.000000000
vt 0.479352688 0.029067525
vt 0.479352688 0.034534938
vt 0.486218929 0.029947059
vt 0.479352666 0.021580521
vt 0.479352686 0.035956202
vt 0.479352681 0.038130163
vt 0.481193261 0.041573663
vt 0.488020647 0.041573664
vt 0.491633564 0.040077146
vt 0.383498550 0.041573664
vt 0.386466742 0.041573666
vt 0.386466742 0.040077146
vt 0.386990464 0.021580521
vt 0.386466742 0.021580521
vt 0.386466742 0.029947059
vt 0.395539314 0.029947059
vt 0.395539314 0.021580521
vt 0.395539314 0.040077146
vt 0.387701963 0.041573666
vt 0.395539314 0.041573666
vt 0.411038301 0.022623705
vt 0.400645612 0.021580521
vt 0.411038301 0.029947059
vt 0.411038301 0.021580521
vt 0.411038301 0.031721988
vt 0.411038301 0.040077146
vt 0.407582732 0.041573666
vt 0.411038301 0.041573666
vt 0.479352672 0.039282210
vt 0.480883768 0.041573664
vt 0.479352674 0.041573663
vt 0.400490249 0.023303057
vt 0.378906250 0.023303057
vt 0.378906250 0.033203125
vt 0.496093750 0.033203125
vt 0.496093750 0.023303057
vt 0.442952170 0.040926454
vt 0.378906250 0.040926454
vt 0.496093750 0.040926454
vt 0.490313131 0.040926455
vt 0.491442773 0.040926454
vt 0.488243669 0.033203125
vt 0.480647086 0.025606540
vt 0.480647074 0.023303057
vt 0.480647093 0.035745605
vt 0.483638259 0.040926456
vt 0.480647092 0.040926456
vt 0.490397329 0.040926454
vt 0.480647073 0.024038515
vt 0.487688836 0.040926454
vt 0.480647083 0.033884699
vt 0.480647082 0.040926454
vt 0.484374970 0.114843741
vt 0.484375000 0.121093750
vt 0.496093780 0.114843749
vt 0.460089811 0.116400160
vt 0.457115409 0.121093750
vt 0.461976929 0.114843743
vt 0.399286697 0.110313593
vt 0.399286672 0.114843741
vt 0.379313856 0.114843741
vt 0.379313886 0.109375000
vt 0.398801371 0.110380637
vt 0.490798084 0.067535898
vt 0.484374960 0.078079022
vt 0.496093764 0.058843266
vt 0.399286677 0.096876366
vt 0.399286677 0.058843262
vt 0.379313856 0.058843262
vt 0.379313886 0.083169326
vt 0.398801371 0.084174963
vt 0.379211932 0.010156251
vt 0.387695312 0.011523439
vt 0.382141650 0.012695314
vt 0.484374940 0.010156250
vt 0.496093750 0.010156251
vt 0.484375000 0.003906250
vt 0.390625000 0.114843749
vt 0.379211962 0.114843749
vt 0.386854649 0.121093750
vt 0.401629135 0.011991368
vt 0.401629145 0.013198133
vt 0.399202241 0.009888081
vt 0.378906250 0.109375000
vt 0.399286707 0.119082483
vt 0.399286707 0.109375000
vt 0.379313886 0.121093757
vt 0.399286697 0.121093756
vt 0.399202271 0.115916428
vt 0.399202266 0.114843747
vt 0.405533253 0.121093750
vt 0.399202241 0.028123625
vt 0.401629145 0.029288320
vt 0.399286677 0.010156251
vt 0.379313856 0.010156251
vt 0.398801371 0.032720828
vt 0.379313886 0.015625004
vt 0.399286707 0.015625003
vt 0.490234375 0.007102271
vt 0.492968738 0.007102273
vt 0.490234375 0.003906250
vt 0.491406262 0.007102272
vt 0.496093750 0.007102277
vt 0.491406262 0.003906250
vt 0.492578119 0.117897734
vt 0.490234375 0.117897734
vt 0.490527332 0.118750006
vt 0.491406232 0.117897734
vt 0.491406262 0.121093750
vt 0.496093780 0.117897727
vt 0.383271746 0.046974514
vt 0.381147064 0.046974514
vt 0.378906250 0.116406262
vt 0.384765685 0.116406262
vt 0.384578918 0.046940562
vt 0.490234345 0.116406247
vt 0.384765655 0.121093750
vt 0.490234375 0.121093750
vt 0.492359054 0.047687503
vt 0.490234383 0.047687500
vt 0.496093750 0.116406254
vt 0.496093750 0.047370614
vt 0.422936484 0.119934847
vt 0.422936495 0.121093750
vt 0.422687488 0.117897734
vt 0.422368791 0.118206775
vt 0.423112424 0.117897734
vt 0.422368791 0.120243888
vt 0.384765625 0.117897734
vt 0.384765655 0.116406262
vt 0.422822774 0.046940557
vt 0.422687499 0.077722334
vt 0.421940548 0.007339935
vt 0.423112424 0.047277672
vt 0.423254066 0.007102272
vt 0.384765625 0.007102271
vt 0.423115760 0.048537368
vt 0.490340604 0.048537367
vt 0.384765655 0.047687506
vt 0.492823333 0.017968748
vt 0.496093750 0.017968757
vt 0.492823422 0.003906250
vt 0.492823362 0.107031241
vt 0.492823422 0.121093750
vt 0.496093780 0.107031249
vt 0.381691464 0.056968747
vt 0.380361733 0.056968750
vt 0.378906250 0.117823415
vt 0.382176608 0.117823407
vt 0.382176626 0.051680554
vt 0.477289284 0.118282544
vt 0.477289288 0.117823407
vt 0.382176578 0.121093750
vt 0.477289258 0.121093750
vt 0.427165679 0.115375919
vt 0.427165703 0.121093750
vt 0.427165697 0.107031250
vt 0.477289215 0.108546399
vt 0.477289211 0.107031243
vt 0.382176608 0.107031256
vt 0.382176638 0.117823415
vt 0.477289266 0.119229005
vt 0.477289292 0.102174464
vt 0.427165751 0.051680554
vt 0.477289292 0.052050924
vt 0.427165684 0.070818345
vt 0.426680541 0.016367736
vt 0.477289185 0.030472598
vt 0.477289185 0.017968748
vt 0.382176608 0.017968750
vt 0.477289266 0.052830568
vt 0.477289266 0.103694845
vt 0.427165738 0.052830568
vt 0.382176638 0.052165712
vt 0.937500000 0.003906250
vt 0.996093750 0.003906250
vt 0.996093750 0.121093750
vt 0.937500000 0.121093750
vt 0.966796875 0.003906250
vt 0.908203125 0.003906250
vt 0.908203125 0.121093750
vt 0.966796875 0.121093750
vt 0.878906250 0.003906250
vt 0.878906250 0.121093750
vt 0.996093750 0.062500000
vt 0.878906250 0.062500000
vt 0.992188096 0.011717558
vt 0.992188096 0.003906250
vt 0.992188096 0.121093750
vt 0.882811904 0.113282442
vt 0.882811904 0.003906250
vt 0.882811904 0.121093750
vt 0.906250298 0.007811904
vt 0.906250298 0.117188096
vt 0.906249834 0.080729056
vt 0.906249834 0.044270944
vt 0.089383478 0.132962734
vt 0.071889770 0.132962734
vt 0.071889766 0.133741328
vt 0.089383472 0.133946356
vt 0.089014939 0.133331272
vt 0.071316203 0.133536300
vt 0.071344336 0.242979360
vt 0.089033013 0.242159241
vt 0.089033013 0.240685076
vt 0.071344336 0.240685076
vt 0.071344340 0.246093756
vt 0.089033018 0.246093754
vt 0.089014939 0.244619600
vt 0.071316203 0.243799480
vt 0.071316198 0.240685076
vt 0.089014934 0.240685076
vt 0.089967577 0.246093761
vt 0.072798820 0.246093759
vt 0.070603936 0.242242273
vt 0.088097643 0.242652332
vt 0.089014934 0.211693354
vt 0.071316198 0.195564441
vt 0.089383472 0.211324815
vt 0.071889766 0.194990875
vt 0.071344336 0.179435529
vt 0.089033013 0.163306617
vt 0.089033013 0.134314895
vt 0.071344336 0.134314895
vt 0.088097643 0.213660610
vt 0.070603936 0.197121639
vt 0.071584304 0.245703119
vt 0.089752908 0.245597938
vt 0.089752907 0.245417684
vt 0.071584302 0.245417684
vt 0.071584300 0.246093744
vt 0.089752902 0.246093746
vt 0.071584302 0.233620526
vt 0.089752907 0.230443913
vt 0.089752907 0.224999994
vt 0.071584302 0.224999994
vt 0.071516164 0.245612982
vt 0.089666422 0.245665573
vt 0.089781278 0.217507427
vt 0.071612673 0.217507427
vt 0.071584302 0.181665695
vt 0.089752907 0.169997085
vt 0.089752906 0.150000006
vt 0.071584302 0.150000006
vt 0.071516164 0.217743391
vt 0.089666422 0.217795982
vn -0.687762754 -0.460528328 -0.561155998
vn -0.687762611 -0.460528622 -0.561155931
vn -0.687763031 -0.342203360 -0.640217833
vn -0.687762731 -0.342203994 -0.640217816
vn -0.687762997 -0.210727696 -0.694676830
vn 0.000000000 -0.634393162 -0.773010554
vn 0.000000000 -0.471397210 -0.881921012
vn 0.000000000 -0.290284405 -0.956940418
vn -1.000000000 0.000000000 0.000000000
vn 0.000000000 -0.608761344 -0.793353405
vn 0.000000000 -0.382683168 -0.923879642
vn 1.000000000 0.000000000 0.000000000
vn -0.577342274 -0.727505641 -0.370690492
vn -0.707096781 -0.218511677 -0.672507835
vn -0.000000000 -0.891002634 -0.453998135
vn -0.707100790 -0.672504112 0.218510165
vn -0.707104798 -0.672500448 0.218508471
vn 0.000000000 -0.951056587 0.309016777
vn 0.000000000 -0.309017807 -0.951056252
vn -0.577340477 0.806451228 0.127727801
vn -0.577340477 -0.127727801 0.806451228
vn -0.577340477 0.127727801 -0.806451228
vn -0.577340477 -0.806451228 -0.127727801
vn -0.000000000 0.987688629 0.156432642
vn -0.707097786 0.415632278 0.572068641
vn 0.000000000 -0.156432642 0.987688629
vn -0.707097786 -0.415632278 -0.572068641
vn 0.000000000 0.156432642 -0.987688629
vn -0.000000000 -0.987688629 -0.156432642
vn -0.707097786 0.572068886 -0.415631942
vn -0.707097786 -0.572068886 0.415631942
vn 0.000000000 0.809017285 -0.587784852
vn 0.000000000 0.587785328 0.809016939
vn 0.000000000 -0.809017285 0.587784852
vn 0.000000000 -0.587785328 -0.809016939
vn 0.577353710 -0.577347975 -0.577349122
vn -0.577353710 -0.577347975 -0.577349122
vn 0.577353328 0.577348740 -0.577348740
vn -0.577353328 0.577348740 -0.577348740
vn -0.707110293 -0.707103269 -0.000000000
vn -0.000000000 -0.707106079 -0.707107484
vn 0.707110293 -0.707103269 0.000000000
vn -0.707109591 0.707103971 0.000000000
vn 0.707109591 0.707103971 0.000000000
vn 0.000000000 0.707106781 -0.707106781
vn 0.707109591 0.000000000 -0.707103971
vn -0.707109591 0.000000000 -0.707103971
vn 0.000000000 -1.000000000 0.000000000
vn 0.000000000 0.000000000 -1.000000000
vn -0.000000000 1.000000000 0.000000000
vn -0.577341093 -0.577354857 -0.577354857
vn -0.577341093 0.577354857 -0.577354857
vn -0.707098352 -0.707115210 -0.000000000
vn -0.000000000 -0.707106781 -0.707106781
vn -0.707098352 0.707115210 0.000000000
vn -0.707098352 0.000000000 -0.707115210
vn -0.866028679 0.000000000 0.499994328
vn 0.000000000 0.000000000 1.000000000
vn 0.866028679 0.000000000 0.499994328
vn 0.866028679 0.000000000 -0.499994328
vn -0.866028679 0.000000000 -0.499994328
vn 0.000000000 -0.707106430 0.707107132
vn -0.000000000 -0.707107132 -0.707106430
vn -0.000000000 0.707106781 0.707106781
vn 0.000000000 0.707107484 -0.707106079
vn -0.000000000 -0.707107249 -0.707106313
vn 0.000000000 0.707107718 -0.707105845
usemtl mat_4
f 1/1/1 2/2/1 3/3/1
f 1/1/2 3/3/2 4/4/2
f 5/5/3 6/6/3 7/7/3
f 5/5/3 7/7/3 8/8/3
f 5/5/3 8/8/3 9/9/3
f 2/2/4 5/5/4 9/9/4 3/3/4
f 8/10/5 10/11/5 9/12/5
f 11/13/6 4/14/6 3/15/6 12/16/6
f 11/13/6 12/16/6 13/17/6
f 3/15/7 9/12/7 14/18/7
f 3/15/7 14/18/7 12/16/7
f 15/19/8 9/12/8 10/11/8
f 9/12/8 15/19/8 16/20/8 14/18/8
f 17/21/6 18/22/6 13/17/6
f 17/21/6 13/17/6 12/16/6
f 17/21/6 12/16/6 19/23/6
f 20/24/6 18/22/6 17/21/6
f 21/25/7 12/16/7 14/18/7 22/26/7
f 19/23/7 12/16/7 21/25/7
f 23/27/8 14/18/8 16/20/8
f 24/28/8 22/26/8 14/18/8 23/27/8
f 25/29/9 26/30/9 7/7/9 6/6/9
f 27/31/9 26/30/9 25/29/9
f 28/32/10 29/33/10 30/34/10 31/35/10
f 28/32/10 31/35/10 32/36/10
f 33/37/11 30/34/11 34/38/11
f 30/34/11 33/37/11 35/39/11 31/35/11
f 36/40/9 34/41/9 30/42/9
f 37/43/9 30/42/9 29/44/9
f 38/45/9 39/46/9 36/40/9
f 38/45/9 36/40/9 30/42/9
f 38/45/9 30/42/9 37/43/9
f 40/47/9 39/46/9 38/45/9
f 41/48/12 42/49/12 32/44/12
f 41/48/12 32/44/12 31/42/12
f 41/48/12 31/42/12 35/41/12
f 43/50/12 44/51/12 42/49/12 41/48/12
f 45/52/12 44/51/12 43/50/12
f 46/53/13 47/54/13 48/55/13
f 49/56/14 50/57/14 47/54/14 46/53/14
f 49/56/14 46/53/14 51/58/14
f 52/59/15 53/60/15 48/61/15 47/62/15
f 52/59/15 47/62/15 54/63/15
f 55/64/16 56/65/16 46/53/16 48/55/16
f 55/64/17 48/55/17 57/66/17
f 56/65/9 51/58/9 46/53/9
f 58/67/18 59/68/18 57/69/18 48/61/18
f 58/67/18 48/61/18 53/60/18
f 50/70/19 60/71/19 54/63/19 47/62/19
f 61/72/20 62/73/20 63/74/20
f 64/75/21 65/76/21 66/77/21
f 67/78/22 68/79/22 69/80/22
f 70/53/23 71/54/23 72/55/23
f 73/81/24 63/74/24 74/82/24
f 63/74/24 73/81/24 75/83/24 61/72/24
f 62/73/25 64/84/25 66/62/25
f 62/73/25 66/62/25 63/74/25
f 76/85/26 77/86/26 66/62/26 65/87/26
f 76/85/26 65/87/26 78/88/26
f 69/80/27 71/54/27 70/53/27
f 69/80/27 70/53/27 67/78/27
f 79/89/28 68/79/28 80/90/28
f 68/79/28 79/89/28 81/91/28 69/80/28
f 82/59/29 83/60/29 72/61/29 71/62/29
f 82/59/29 71/62/29 84/63/29
f 61/72/30 68/79/30 67/78/30
f 61/72/30 67/78/30 62/73/30
f 64/75/31 70/53/31 72/55/31
f 64/75/31 72/55/31 65/76/31
f 85/92/32 61/72/32 75/83/32
f 61/72/32 85/92/32 80/90/32 68/79/32
f 86/93/33 63/74/33 66/62/33 77/86/33
f 74/82/33 63/74/33 86/93/33
f 64/75/9 62/73/9 67/78/9
f 64/75/9 67/78/9 70/53/9
f 87/67/34 78/94/34 65/95/34 72/61/34
f 87/67/34 72/61/34 83/60/34
f 88/96/35 69/97/35 81/98/35
f 69/97/35 88/96/35 84/63/35 71/62/35
f 89/99/36 90/100/36 91/101/36
f 92/102/37 93/103/37 94/104/37
f 95/105/38 96/106/38 97/107/38
f 98/108/39 99/109/39 100/110/39
f 101/111/40 102/112/40 92/113/40 94/114/40
f 101/111/40 94/114/40 103/115/40
f 91/116/41 94/114/41 93/117/41
f 91/116/41 93/117/41 89/118/41
f 104/119/42 105/120/42 91/116/42 90/121/42
f 104/119/42 90/121/42 106/122/42
f 107/123/43 108/124/43 99/109/43 98/108/43
f 107/123/43 98/108/43 109/125/43
f 110/126/44 111/127/44 95/105/44 97/107/44
f 110/126/44 97/107/44 112/128/44
f 96/106/45 100/129/45 99/130/45
f 96/106/45 99/130/45 97/107/45
f 89/99/46 96/106/46 95/105/46
f 89/99/46 95/105/46 90/100/46
f 92/102/47 98/108/47 100/110/47
f 92/102/47 100/110/47 93/103/47
f 113/131/48 103/115/48 94/114/48 91/116/48
f 113/131/48 91/116/48 105/120/48
f 114/132/9 92/102/9 102/133/9
f 92/102/9 114/132/9 109/125/9 98/108/9
f 115/134/12 106/135/12 90/100/12 95/105/12
f 115/134/12 95/105/12 111/127/12
f 89/99/49 93/136/49 100/129/49
f 89/99/49 100/129/49 96/106/49
f 116/137/50 112/138/50 97/107/50
f 108/139/50 116/137/50 97/107/50 99/130/50
f 117/140/51 118/141/51 119/142/51
f 120/143/52 121/144/52 122/145/52
f 123/146/53 124/147/53 117/148/53 119/149/53
f 123/146/53 119/149/53 125/150/53
f 126/151/54 127/152/54 119/149/54 118/153/54
f 126/151/54 118/153/54 128/154/54
f 129/155/55 130/156/55 121/144/55 120/143/55
f 129/155/55 120/143/55 131/157/55
f 132/158/45 133/159/45 122/160/45 121/161/45
f 132/158/45 121/161/45 134/162/45
f 117/140/56 120/143/56 122/145/56
f 117/140/56 122/145/56 118/141/56
f 135/163/48 136/164/48 125/150/48
f 135/163/48 125/150/48 119/149/48
f 135/163/48 119/149/48 127/152/48
f 137/165/48 136/164/48 135/163/48
f 138/166/9 117/140/9 124/167/9
f 117/140/9 138/166/9 131/157/9 120/143/9
f 139/168/49 128/169/49 118/170/49 122/160/49
f 139/168/49 122/160/49 133/159/49
f 140/171/50 141/172/50 142/173/50
f 130/174/50 142/173/50 141/172/50
f 130/174/50 141/172/50 134/162/50
f 130/174/50 134/162/50 121/161/50
usemtl mat_1
f 143/175/57 144/176/57 145/177/57
f 143/175/57 145/177/57 146/178/57
f 144/179/58 147/180/58 148/181/58
f 144/179/58 148/181/58 145/182/58
f 147/176/59 149/175/59 150/178/59
f 147/176/59 150/178/59 148/177/59
f 149/175/60 151/183/60 152/184/60
f 149/175/60 152/184/60 150/178/60
f 151/180/49 153/179/49 154/182/49
f 151/180/49 154/182/49 152/181/49
f 153/183/61 143/175/61 146/178/61
f 153/183/61 146/178/61 154/184/61
f 143/185/48 153/179/48 151/180/48
f 151/180/48 149/186/48 147/181/48
f 147/181/48 144/182/48 143/185/48
f 151/180/48 147/181/48 143/185/48
f 154/179/50 146/185/50 145/182/50
f 145/182/50 148/181/50 150/186/50
f 150/186/50 152/180/50 154/179/50
f 145/182/50 150/186/50 154/179/50
f 155/175/57 156/176/57 157/177/57
f 155/175/57 157/177/57 158/178/57
f 156/179/58 159/180/58 160/181/58
f 156/179/58 160/181/58 157/182/58
f 161/187/59 159/176/59 162/188/59
f 159/176/59 161/187/59 163/189/59 160/177/59
f 164/190/60 165/191/60 166/183/60 167/184/60
f 164/190/60 167/184/60 168/192/60
f 166/180/49 169/179/49 170/182/49
f 166/180/49 170/182/49 167/181/49
f 169/183/61 155/175/61 158/178/61
f 169/183/61 158/178/61 170/184/61
f 155/185/48 169/179/48 166/180/48
f 166/180/48 165/193/48 162/194/48 159/181/48
f 159/181/48 156/182/48 155/185/48
f 166/180/48 159/181/48 155/185/48
f 170/179/50 158/185/50 157/182/50
f 171/195/50 157/182/50 160/181/50 163/194/50
f 172/196/50 168/193/50 167/180/50 170/179/50
f 157/182/50 171/195/50 172/196/50 170/179/50
usemtl mat_2
f 173/197/62 174/198/62 175/199/62 176/200/62
f 174/198/62 173/197/62 177/201/62 178/202/62
f 179/203/63 180/204/63 181/205/63 182/206/63
f 180/204/63 179/203/63 183/207/63 184/208/63
f 185/209/64 186/210/64 187/211/64 188/212/64
f 186/210/64 185/209/64 189/213/64 190/214/64
f 191/206/65 192/205/65 193/205/65 194/206/65
f 192/205/65 191/206/65 195/215/65 196/216/65
f 197/217/58 198/218/58 178/202/58 177/201/58
f 198/218/58 197/217/58 188/212/58 187/211/58
f 199/219/48 200/220/48 182/206/48 181/205/48
f 176/200/48 175/199/48 200/220/48 199/219/48
f 201/221/49 202/222/49 184/223/49 183/224/49
f 202/222/49 201/221/49 194/206/49 193/205/49
f 203/225/50 204/226/50 190/224/50 189/223/50
f 204/226/50 203/225/50 196/216/50 195/215/50
f 205/227/66 206/228/66 207/229/66 208/230/66
f 206/228/66 205/227/66 209/231/66 210/232/66
f 211/233/67 212/234/67 213/235/67 214/236/67
f 212/234/67 211/233/67 215/237/67 216/238/67
f 217/239/48 218/240/48 208/230/48 207/229/48
f 219/241/49 220/242/49 210/243/49 209/244/49
f 220/242/49 219/241/49 214/236/49 213/235/49
f 221/245/50 222/246/50 216/238/50 215/237/50
