# Authored in Blender; exported by tools-export-modern.py
mtllib materials.mtl
s off
v 0.244321256 1.000000000 0.970676307
v 0.000000000 0.985508919 0.978421937
v 0.000000000 1.000000000 0.970676307
v 0.000000000 0.945139125 1.000000000
v 0.668750048 1.000000000 0.970676307
v 0.668750048 0.945139125 1.000000000
v 0.734563975 1.000000000 0.970676307
v 0.687303163 0.945139125 1.000000000
v 0.756250143 1.000000000 0.970676307
v 0.756250143 0.945139125 1.000000000
v 0.777751810 1.000000000 1.000000000
v 0.768643980 0.896156428 1.000000000
v 0.650000095 0.896156428 1.000000000
v 0.650000095 0.908914566 0.989529669
v 0.787499905 0.908914566 0.989529669
v 0.787499905 0.896156428 1.000000000
v 0.767995486 1.000000000 0.940843445
v 0.650000095 1.000000000 0.940843445
v 0.787499905 1.000000000 0.940843445
v 0.650000095 0.914477941 1.000000000
v 0.650000095 1.000000000 0.942855972
v 0.650000095 0.974930563 1.000000000
v 0.650000095 1.000000000 0.989615899
v 0.650000095 1.000000000 1.000000000
v 0.787499905 0.898444235 1.000000000
v 0.787499905 1.000000000 0.951800842
v 0.787499905 1.000000000 0.984873869
v 0.787499905 0.977362144 1.000000000
v 0.787499905 1.000000000 1.000000000
v 0.607499838 0.364999980 0.873049974
v 0.622499943 0.364999980 0.888049960
v 0.607499838 0.349999964 0.888049960
v 0.322499752 0.364999980 0.888049960
v 0.337499857 0.364999980 0.873049974
v 0.337499857 0.349999964 0.888049960
v 0.622499943 0.941249967 0.888049960
v 0.607499838 0.941249967 0.873049974
v 0.607499838 0.956250012 0.888049960
v 0.322499752 0.941249967 0.888049960
v 0.337499857 0.956250012 0.888049960
v 0.337499857 0.941249967 0.873049974
v 0.332632430 0.354867362 1.000000000
v 0.322499752 0.364999980 1.000000000
v 0.337499857 0.349999964 1.000000000
v 0.617632516 0.360132582 1.000000000
v 0.607499838 0.349999964 1.000000000
v 0.622499943 0.364999980 1.000000000
v 0.327367179 0.946117374 1.000000000
v 0.337499857 0.956250012 1.000000000
v 0.322499752 0.941249967 1.000000000
v 0.612367265 0.951382605 1.000000000
v 0.622499943 0.941249967 1.000000000
v 0.607499838 0.956250012 1.000000000
v 0.519886777 0.349999964 1.000000000
v 0.322499752 0.551988976 1.000000000
v 0.622499943 0.754260971 1.000000000
v 0.519886777 0.956250012 1.000000000
v 0.726249933 0.327499986 0.791799963
v 0.741249800 0.327499986 0.806799948
v 0.726249933 0.312500000 0.806799948
v 0.203749895 0.327499986 0.806799948
v 0.218749762 0.327499986 0.791799963
v 0.218749762 0.312500000 0.806799948
v 0.741249800 0.422500014 0.806799948
v 0.726249933 0.422500014 0.791799963
v 0.726249933 0.437500000 0.806799948
v 0.203749895 0.422500014 0.806799948
v 0.218749762 0.437500000 0.806799948
v 0.218749762 0.422500014 0.791799963
v 0.213039467 0.318210340 1.000000000
v 0.203749895 0.327499986 1.000000000
v 0.218749762 0.312500000 1.000000000
v 0.735539505 0.321789646 1.000000000
v 0.726249933 0.312500000 1.000000000
v 0.741249800 0.327499986 1.000000000
v 0.209460189 0.428210354 1.000000000
v 0.218749762 0.437500000 1.000000000
v 0.203749895 0.422500014 1.000000000
v 0.731960228 0.431789660 1.000000000
v 0.741249800 0.422500014 1.000000000
v 0.726249933 0.437500000 1.000000000
v 0.533049859 0.312500000 1.000000000
v 0.203749895 0.363665516 1.000000000
v 0.741249800 0.386334484 1.000000000
v 0.533049859 0.437500000 1.000000000
v 1.000000000 0.006362775 0.766362759
v 0.000000000 0.004088325 0.764088311
v 0.000000000 0.000000000 0.759999990
v 1.000000000 0.000000000 0.759999990
v 1.000000000 0.015000001 0.774999976
v 0.000000000 0.015000001 0.774999976
v 0.000000000 0.010911676 0.454088347
v 1.000000000 0.008637225 0.456362799
v 1.000000000 0.000000000 0.465000033
v 0.000000000 0.000000000 0.465000033
v 0.000000000 0.015000001 0.450000018
v 1.000000000 0.015000001 0.450000018
v 1.000000000 0.316362771 0.768637207
v 0.000000000 0.314088323 0.770911655
v 0.000000000 0.310000002 0.774999976
v 1.000000000 0.310000002 0.774999976
v 1.000000000 0.324999988 0.759999990
v 0.000000000 0.324999988 0.759999990
v 0.000000000 0.320911667 0.460911705
v 1.000000000 0.318637219 0.458637252
v 1.000000000 0.310000002 0.450000018
v 0.000000000 0.310000002 0.450000018
v 0.000000000 0.324999988 0.465000033
v 1.000000000 0.324999988 0.465000033
v 1.000000000 0.140134574 0.774999976
v 0.000000000 0.095403719 0.774999976
v 1.000000000 0.000000000 0.634865436
v 0.000000000 0.000000000 0.679596285
v 0.000000000 0.229596284 0.450000018
v 1.000000000 0.184865429 0.450000018
v 1.000000000 0.324999988 0.634865436
v 0.000000000 0.324999988 0.679596285
v 0.000000000 0.220750432 0.527999603
v 1.000000000 0.219000139 0.529749898
v 1.000000000 0.212499991 0.536250055
v 0.000000000 0.212499991 0.536250055
v 0.000000000 0.223749995 0.525000036
v 1.000000000 0.223749995 0.525000036
v 0.000000000 0.272000417 0.533250487
v 1.000000000 0.270250127 0.531500193
v 1.000000000 0.263749987 0.525000036
v 0.000000000 0.263749987 0.525000036
v 0.000000000 0.274999976 0.536250055
v 1.000000000 0.274999976 0.536250055
v 1.000000000 0.212499991 1.000000000
v 0.000000000 0.212499991 1.000000000
v 0.000000000 0.253084879 0.525000036
v 1.000000000 0.246861620 0.525000036
v 0.000000000 0.274999976 1.000000000
v 1.000000000 0.274999976 1.000000000
vt 0.712035291 0.037566487
vt 0.698153402 0.036121233
vt 0.698153402 0.037566487
vt 0.698153402 0.032094992
vt 0.736150563 0.037566487
vt 0.736150563 0.032094992
vt 0.739890011 0.037566487
vt 0.737204723 0.032094992
vt 0.741122186 0.037566487
vt 0.741122186 0.032094992
vt 0.737367015 0.037566488
vt 0.737367017 0.032094992
vt 0.740291570 0.037566487
vt 0.730023337 0.028729428
vt 0.628906250 0.028729428
vt 0.628906250 0.029947056
vt 0.746093750 0.029947056
vt 0.746093750 0.028729428
vt 0.729470643 0.038640188
vt 0.628906250 0.038640188
vt 0.746093750 0.038640188
vt 0.735219645 0.030478022
vt 0.740673446 0.038640188
vt 0.740865521 0.038640188
vt 0.736218929 0.029947056
vt 0.735219645 0.028729428
vt 0.735219630 0.036247573
vt 0.736210682 0.038640182
vt 0.735219631 0.038640182
vt 0.735219649 0.028947775
vt 0.739819734 0.038640182
vt 0.736663263 0.038640180
vt 0.735219637 0.036479640
vt 0.735219635 0.038640181
vt 0.740234315 0.006805732
vt 0.742968738 0.006805733
vt 0.740234375 0.003906250
vt 0.741406202 0.006805734
vt 0.746093750 0.006805732
vt 0.741406262 0.003906250
vt 0.742578089 0.118194267
vt 0.740234315 0.118194260
vt 0.740527332 0.118749999
vt 0.741406262 0.118194267
vt 0.741406262 0.121093750
vt 0.746093750 0.118194267
vt 0.634005187 0.080986724
vt 0.630047057 0.080986724
vt 0.628906250 0.116406262
vt 0.634765744 0.116406262
vt 0.634670643 0.081041608
vt 0.740234375 0.116406247
vt 0.634765625 0.121093750
vt 0.740234375 0.121093750
vt 0.744192425 0.081421868
vt 0.740234375 0.081421863
vt 0.746093750 0.116406254
vt 0.746093750 0.081228466
vt 0.706548652 0.119135129
vt 0.706548652 0.121093750
vt 0.706421889 0.118194267
vt 0.705828146 0.118569668
vt 0.707213447 0.118194267
vt 0.705828146 0.119510529
vt 0.634765685 0.118194275
vt 0.634765685 0.116406262
vt 0.705915458 0.081041598
vt 0.706421849 0.042950516
vt 0.706041580 0.006950783
vt 0.707213467 0.082049485
vt 0.707477353 0.006805733
vt 0.634765685 0.006805733
vt 0.706208434 0.083005084
vt 0.740432250 0.083005083
vt 0.634765685 0.081421873
vt 0.742823362 0.017968748
vt 0.743913591 0.017968751
vt 0.742823422 0.003906250
vt 0.746093750 0.017968757
vt 0.743641019 0.107031256
vt 0.742823303 0.107031241
vt 0.742823362 0.119458571
vt 0.742823422 0.121093750
vt 0.746093750 0.107031249
vt 0.631865350 0.078782655
vt 0.629840002 0.078782659
vt 0.628906250 0.117823415
vt 0.632176578 0.117823407
vt 0.632176601 0.075390063
vt 0.742823482 0.117823407
vt 0.632176578 0.121093750
vt 0.744848793 0.075701309
vt 0.742823482 0.075701309
vt 0.746093750 0.117823407
vt 0.746093750 0.077070794
vt 0.700701237 0.112384693
vt 0.700701311 0.121093750
vt 0.700701260 0.107031247
vt 0.700701274 0.114727615
vt 0.701207657 0.107031250
vt 0.700701274 0.120081067
vt 0.632176638 0.107031256
vt 0.632176638 0.117823415
vt 0.700701371 0.075390063
vt 0.700701297 0.051873925
vt 0.700390046 0.016941633
vt 0.701207657 0.073126079
vt 0.701376464 0.017968750
vt 0.632176638 0.017968750
vt 0.700701297 0.076713983
vt 0.742823385 0.076713983
vt 0.632176638 0.075701314
vt 0.054396062 0.132962734
vt 0.036902355 0.132962734
vt 0.036902352 0.133331272
vt 0.054396059 0.133536300
vt 0.053617466 0.133741328
vt 0.035918730 0.133946356
vt 0.035966981 0.244619600
vt 0.053655659 0.243799480
vt 0.053655659 0.240685076
vt 0.035966981 0.240685076
vt 0.035966984 0.246093761
vt 0.053655662 0.246093759
vt 0.053617466 0.242979360
vt 0.035918730 0.242159241
vt 0.035918728 0.240685076
vt 0.053617463 0.240685076
vt 0.055630063 0.246093756
vt 0.038461306 0.246093754
vt 0.053655658 0.240685076
vt 0.035616522 0.241422156
vt 0.053110229 0.241832215
vt 0.053617463 0.179435529
vt 0.035918728 0.163306617
vt 0.054396059 0.178656934
vt 0.036902352 0.162322994
vt 0.035966981 0.211693354
vt 0.053655658 0.195564441
vt 0.053655659 0.134314895
vt 0.035966981 0.134314895
vt 0.053110229 0.180582668
vt 0.035616522 0.164043697
vt 0.035247096 0.245913481
vt 0.053415700 0.245808300
vt 0.053415697 0.245417684
vt 0.035247093 0.245417684
vt 0.035247094 0.246093739
vt 0.053415697 0.246093741
vt 0.035247093 0.239973750
vt 0.053415697 0.236797138
vt 0.053415697 0.224999994
vt 0.035247093 0.224999994
vt 0.035215650 0.245507798
vt 0.053365907 0.245560390
vt 0.053444069 0.217507427
vt 0.035275464 0.217507427
vt 0.035247093 0.205002915
vt 0.053415697 0.193334305
vt 0.053415697 0.150000006
vt 0.035247092 0.150000006
vt 0.035215650 0.217638207
vt 0.053365907 0.217690799
vn 0.000000000 -0.471396038 -0.881921638
vn 0.768942181 -0.301372126 -0.563828665
vn 0.000000000 -0.634393192 -0.773010529
vn 0.000000000 -0.471397076 -0.881921083
vn -1.000000000 0.000000000 0.000000000
vn 1.000000000 0.000000000 0.000000000
vn 0.577347593 -0.577351034 -0.577352181
vn -0.577347593 -0.577351034 -0.577352181
vn 0.577347975 0.577350269 -0.577352563
vn -0.577347975 0.577350269 -0.577352563
vn -0.707104674 -0.707108889 -0.000000000
vn -0.000000000 -0.707106079 -0.707107484
vn 0.707104674 -0.707108889 0.000000000
vn -0.707105376 0.707108186 0.000000000
vn 0.707105376 0.707108186 0.000000000
vn 0.000000000 0.707105376 -0.707108186
vn 0.707103971 0.000000000 -0.707109591
vn -0.707103971 0.000000000 -0.707109591
vn 0.000000000 -1.000000000 0.000000000
vn 0.000000000 0.000000000 -1.000000000
vn -0.000000000 1.000000000 0.000000000
vn 0.577353328 -0.577348740 -0.577348740
vn -0.577353328 -0.577348740 -0.577348740
vn 0.577353328 0.577348740 -0.577348740
vn -0.577353328 0.577348740 -0.577348740
vn -0.707109591 -0.707103971 -0.000000000
vn -0.000000000 -0.707106781 -0.707106781
vn 0.707109591 -0.707103971 0.000000000
vn -0.707109591 0.707103971 0.000000000
vn 0.707109591 0.707103971 0.000000000
vn 0.000000000 0.707106781 -0.707106781
vn 0.707109591 0.000000000 -0.707103971
vn -0.707109591 0.000000000 -0.707103971
vn 0.000000000 -0.707106430 0.707107132
vn -0.000000000 -0.707107132 -0.707106430
vn -0.000000000 0.707106781 0.707106781
vn 0.000000000 0.707107484 -0.707106079
vn 0.000000000 0.000000000 1.000000000
vn -0.000000000 -0.707107249 -0.707106313
vn 0.000000000 0.707107718 -0.707105845
usemtl mat_0
f 1/1/1 2/2/1 3/3/1
f 4/4/1 2/2/1 1/1/1
f 4/4/1 1/1/1 5/5/1
f 4/4/1 5/5/1 6/6/1
f 7/7/1 8/8/1 6/6/1 5/5/1
f 8/8/1 7/7/1 9/9/1 10/10/1
f 11/11/2 10/12/2 9/13/2
f 12/14/3 13/15/3 14/16/3 15/17/3
f 12/14/3 15/17/3 16/18/3
f 17/19/4 14/16/4 18/20/4
f 14/16/4 17/19/4 19/21/4 15/17/4
f 20/22/5 21/23/5 18/24/5
f 20/22/5 18/24/5 14/25/5
f 20/22/5 14/25/5 13/26/5
f 22/27/5 23/28/5 21/23/5 20/22/5
f 24/29/5 23/28/5 22/27/5
f 25/30/6 16/26/6 15/25/6
f 26/31/6 15/25/6 19/24/6
f 27/32/6 28/33/6 25/30/6
f 27/32/6 25/30/6 15/25/6
f 27/32/6 15/25/6 26/31/6
f 29/34/6 28/33/6 27/32/6
f 30/35/7 31/36/7 32/37/7
f 33/38/8 34/39/8 35/40/8
f 36/41/9 37/42/9 38/43/9
f 39/44/10 40/45/10 41/46/10
f 42/47/11 43/48/11 33/49/11 35/50/11
f 42/47/11 35/50/11 44/51/11
f 32/52/12 35/50/12 34/53/12
f 32/52/12 34/53/12 30/54/12
f 45/55/13 46/56/13 32/52/13 31/57/13
f 45/55/13 31/57/13 47/58/13
f 48/59/14 49/60/14 40/45/14 39/44/14
f 48/59/14 39/44/14 50/61/14
f 51/62/15 52/63/15 36/41/15 38/43/15
f 51/62/15 38/43/15 53/64/15
f 37/42/16 41/65/16 40/66/16
f 37/42/16 40/66/16 38/43/16
f 30/35/17 37/42/17 36/41/17
f 30/35/17 36/41/17 31/36/17
f 33/38/18 39/44/18 41/46/18
f 33/38/18 41/46/18 34/39/18
f 54/67/19 44/51/19 35/50/19 32/52/19
f 54/67/19 32/52/19 46/56/19
f 55/68/5 33/38/5 43/69/5
f 33/38/5 55/68/5 50/61/5 39/44/5
f 56/70/6 47/71/6 31/36/6 36/41/6
f 56/70/6 36/41/6 52/63/6
f 30/35/20 34/72/20 41/65/20
f 30/35/20 41/65/20 37/42/20
f 57/73/21 53/74/21 38/43/21
f 49/75/21 57/73/21 38/43/21 40/66/21
f 58/76/22 59/77/22 60/78/22
f 61/76/23 62/79/23 63/78/23
f 64/80/24 65/81/24 66/82/24
f 67/81/25 68/83/25 69/84/25
f 70/85/26 71/86/26 61/87/26 63/88/26
f 70/85/26 63/88/26 72/89/26
f 60/90/27 63/88/27 62/91/27
f 60/90/27 62/91/27 58/83/27
f 73/92/28 74/93/28 60/90/28 59/94/28
f 73/92/28 59/94/28 75/95/28
f 76/96/29 77/97/29 68/83/29 67/81/29
f 76/96/29 67/81/29 78/98/29
f 79/99/30 80/100/30 64/80/30 66/82/30
f 79/99/30 66/82/30 81/101/30
f 65/81/31 69/102/31 68/103/31
f 65/81/31 68/103/31 66/82/31
f 58/76/32 65/81/32 64/80/32
f 58/76/32 64/80/32 59/77/32
f 61/76/33 67/81/33 69/84/33
f 61/76/33 69/84/33 62/79/33
f 82/104/19 72/89/19 63/88/19 60/90/19
f 82/104/19 60/90/19 74/93/19
f 83/105/5 61/76/5 71/106/5
f 61/76/5 83/105/5 78/98/5 67/81/5
f 84/107/6 75/108/6 59/77/6 64/80/6
f 84/107/6 64/80/6 80/100/6
f 58/76/20 62/109/20 69/102/20
f 58/76/20 69/102/20 65/81/20
f 85/110/21 81/111/21 66/82/21
f 77/112/21 85/110/21 66/82/21 68/103/21
usemtl mat_2
f 86/113/34 87/114/34 88/115/34 89/116/34
f 87/114/34 86/113/34 90/117/34 91/118/34
f 92/119/35 93/120/35 94/121/35 95/122/35
f 93/120/35 92/119/35 96/123/35 97/124/35
f 98/125/36 99/126/36 100/127/36 101/128/36
f 99/126/36 98/125/36 102/129/36 103/130/36
f 104/122/37 105/121/37 106/131/37 107/122/37
f 105/121/37 104/122/37 108/132/37 109/133/37
f 110/134/38 111/135/38 91/118/38 90/117/38
f 111/135/38 110/134/38 101/128/38 100/127/38
f 112/136/19 113/137/19 95/122/19 94/121/19
f 89/116/19 88/115/19 113/137/19 112/136/19
f 114/138/20 115/139/20 97/140/20 96/141/20
f 115/139/20 114/138/20 107/122/20 106/131/20
f 116/142/21 117/143/21 103/141/21 102/140/21
f 117/143/21 116/142/21 109/133/21 108/132/21
f 118/144/39 119/145/39 120/146/39 121/147/39
f 119/145/39 118/144/39 122/148/39 123/149/39
f 124/150/40 125/151/40 126/152/40 127/153/40
f 125/151/40 124/150/40 128/154/40 129/155/40
f 130/156/19 131/157/19 121/147/19 120/146/19
f 132/158/20 133/159/20 123/160/20 122/161/20
f 133/159/20 132/158/20 127/153/20 126/152/20
f 134/162/21 135/163/21 129/155/21 128/154/21
