# Authored in Blender; exported by tools-export-modern.py
mtllib materials.mtl
s off
v 0.305639493 0.945139125 1.000000000
v 0.000000000 0.945139125 1.000000000
v 0.000000000 0.923602462 0.988488436
v 0.668750048 0.923602462 0.988488436
v 0.668750048 0.945139125 1.000000000
v 0.000000000 0.869341057 0.943957259
v 0.000000000 0.834574759 0.915425301
v 0.668750048 0.834574759 0.915425301
v 0.000000000 0.790043583 0.861163860
v 0.000000000 0.761511624 0.826397538
v 0.668750048 0.761511624 0.826397538
v 0.000000000 0.728421960 0.764491081
v 0.000000000 0.707220793 0.724826455
v 0.668750048 0.707220793 0.724826455
v 0.000000000 0.686844280 0.657654128
v 0.000000000 0.673788667 0.614615560
v 0.668750048 0.673788667 0.614615560
v 0.000000000 0.666908327 0.544758638
v 0.000000000 0.662499964 0.500000000
v 0.668750048 0.662499964 0.500000000
v 0.000000000 0.669380304 0.430143078
v 0.000000000 0.673788667 0.385384440
v 0.668750048 0.673788667 0.385384440
v 0.000000000 0.694165179 0.318212113
v 0.000000000 0.707220793 0.275173545
v 0.668750048 0.707220793 0.275173545
v 0.000000000 0.740310457 0.213267088
v 0.000000000 0.761511624 0.173602462
v 0.668750048 0.761511624 0.173602462
v 0.000000000 0.806042800 0.119341021
v 0.000000000 0.834574759 0.084574699
v 0.668750048 0.834574759 0.084574699
v 0.000000000 0.888836164 0.040043523
v 0.000000000 0.923602462 0.011511564
v 0.668750048 0.923602462 0.011511564
v 0.000000000 0.945139125 0.000000000
v 0.668750048 0.945139125 0.000000000
v 0.737697027 0.945139125 1.000000000
v 0.756250143 0.923602462 0.988488436
v 0.756250143 0.945139125 1.000000000
v 0.756250143 0.834574759 0.915425301
v 0.756250143 0.761511624 0.826397538
v 0.756250143 0.707220793 0.724826455
v 0.756250143 0.673788667 0.614615560
v 0.756250143 0.662499964 0.500000000
v 0.756250143 0.673788667 0.385384440
v 0.756250143 0.707220793 0.275173545
v 0.756250143 0.761511624 0.173602462
v 0.756250143 0.834574759 0.084574699
v 0.756250143 0.923602462 0.011511564
v 0.687303163 0.945139125 0.000000000
v 0.756250143 0.945139125 0.000000000
v 0.807691229 1.000000000 0.959168958
v 0.777751794 1.000000000 1.000000000
v 0.843750000 0.982354045 0.900560498
v 0.843750000 1.000000000 0.909992459
v 0.843750000 0.909351349 0.840648651
v 0.843750000 0.849439502 0.767645955
v 0.843750000 0.804921091 0.684357762
v 0.843750000 0.777506709 0.593984723
v 0.843750000 0.768249989 0.500000000
v 0.843750000 0.777506709 0.406015277
v 0.843750000 0.804921091 0.315642238
v 0.843750000 0.849439502 0.232354045
v 0.843750000 0.909351349 0.159351349
v 0.843750000 0.982354045 0.099439502
v 0.777751810 1.000000000 0.000000000
v 0.803312831 1.000000000 0.034859787
v 0.843750000 1.000000000 0.090007541
v 0.843750000 1.000000000 0.907869688
v 0.843750000 1.000000000 0.092130312
v 0.843750000 1.000000000 0.904070496
v 0.843750000 1.000000000 0.131752760
v 0.843750000 1.000000000 0.742650011
v 0.843750000 1.000000000 0.261000035
v 0.668856113 0.896156365 1.000000000
v 0.650000095 0.896156365 1.000000000
v 0.650000095 0.815880597 0.934119344
v 0.787499905 0.815880597 0.934119344
v 0.787499905 0.896156365 1.000000000
v 0.650000095 0.739529669 0.841085434
v 0.787499905 0.739529669 0.841085434
v 0.650000095 0.682795703 0.734943748
v 0.787499905 0.682795703 0.734943748
v 0.650000095 0.647859097 0.619773269
v 0.787499905 0.647859097 0.619773269
v 0.650000095 0.636062503 0.500000000
v 0.787499905 0.636062503 0.500000000
v 0.650000095 0.647859097 0.380226731
v 0.787499905 0.647859097 0.380226731
v 0.650000095 0.682795703 0.265056252
v 0.787499905 0.682795703 0.265056252
v 0.650000095 0.739529669 0.158914566
v 0.787499905 0.739529669 0.158914566
v 0.650000095 0.815880597 0.065880656
v 0.787499905 0.815880597 0.065880656
v 0.768643980 0.896156428 0.000000000
v 0.650000095 0.896156428 0.000000000
v 0.787499905 0.896156428 0.000000000
v 0.650000095 0.914477941 0.000000000
v 0.650000095 0.914477985 1.000000000
v 0.650000095 0.974930563 0.000000000
v 0.650000095 0.974930668 1.000000000
v 0.650000095 1.000000000 0.136062503
v 0.650000095 1.000000000 0.000000000
v 0.650000095 1.000000000 1.000000000
v 0.650000095 1.000000000 0.863937426
v 0.787499905 0.898444179 1.000000000
v 0.787499905 0.898444235 0.000000000
v 0.787499905 0.901918475 1.000000000
v 0.787499905 0.977362144 0.000000000
v 0.787499905 1.000000000 0.855066301
v 0.787499905 1.000000000 1.000000000
v 0.787499905 1.000000000 0.000000000
v 0.787499905 1.000000000 0.092757214
v 0.644999981 0.952978253 0.090475559
v 0.644999981 0.983289123 0.072975636
v 0.616999865 0.983289123 0.072975636
v 0.616999865 0.952978253 0.090475559
v 0.644999981 0.983289123 0.037975550
v 0.616999865 0.983289123 0.037975550
v 0.644999981 0.952978253 0.020475626
v 0.616999865 0.952978253 0.020475626
v 0.644999981 0.922667384 0.037975550
v 0.617000103 0.922667384 0.037975550
v 0.644999981 0.922667384 0.072975636
v 0.616999865 0.922667384 0.072975636
v 0.644999981 0.805475593 0.237978220
v 0.644999981 0.835786462 0.220478296
v 0.616999865 0.835786462 0.220478296
v 0.616999865 0.805475593 0.237978220
v 0.644999981 0.835786462 0.185478210
v 0.616999865 0.835786462 0.185478210
v 0.644999981 0.805475593 0.167978287
v 0.616999865 0.805475593 0.167978287
v 0.644999981 0.775164723 0.185478210
v 0.617000103 0.775164723 0.185478210
v 0.644999981 0.775164723 0.220478296
v 0.616999865 0.775164723 0.220478296
v 0.644999981 0.725647688 0.430699825
v 0.644999981 0.755958557 0.413199902
v 0.616999865 0.755958557 0.413199902
v 0.616999865 0.725647688 0.430699825
v 0.644999981 0.755958557 0.378199816
v 0.616999865 0.755958557 0.378199816
v 0.644999981 0.725647688 0.360699892
v 0.616999865 0.725647688 0.360699892
v 0.644999981 0.695336819 0.378199816
v 0.617000103 0.695336819 0.378199816
v 0.644999981 0.695336819 0.413199902
v 0.616999865 0.695336819 0.413199902
v 0.644999981 0.725647688 0.639300108
v 0.644999981 0.755958557 0.621800184
v 0.616999865 0.755958557 0.621800184
v 0.616999865 0.725647688 0.639300108
v 0.644999981 0.755958557 0.586800098
v 0.616999865 0.755958557 0.586800098
v 0.644999981 0.725647688 0.569300175
v 0.616999865 0.725647688 0.569300175
v 0.644999981 0.695336819 0.586800098
v 0.617000103 0.695336819 0.586800098
v 0.644999981 0.695336819 0.621800184
v 0.616999865 0.695336819 0.621800184
v 0.644999981 0.805475593 0.832021713
v 0.644999981 0.835786462 0.814521790
v 0.616999865 0.835786462 0.814521790
v 0.616999865 0.805475593 0.832021713
v 0.644999981 0.835786462 0.779521704
v 0.616999865 0.835786462 0.779521704
v 0.644999981 0.805475593 0.762021780
v 0.616999865 0.805475593 0.762021780
v 0.644999981 0.775164723 0.779521704
v 0.617000103 0.775164723 0.779521704
v 0.644999981 0.775164723 0.814521790
v 0.616999865 0.775164723 0.814521790
v 0.644999981 0.952978253 0.979524374
v 0.644999981 0.983289123 0.962024450
v 0.616999865 0.983289123 0.962024450
v 0.616999865 0.952978253 0.979524374
v 0.644999981 0.983289123 0.927024364
v 0.616999865 0.983289123 0.927024364
v 0.644999981 0.952978253 0.909524441
v 0.616999865 0.952978253 0.909524441
v 0.644999981 0.922667384 0.927024364
v 0.617000103 0.922667384 0.927024364
v 0.644999981 0.922667384 0.962024450
v 0.616999865 0.922667384 0.962024450
v 0.793750048 1.000000000 0.642264505
v 0.793750048 0.971934140 0.574507475
v 0.889291721 1.000000000 0.566987267
v 0.902550579 1.000000000 0.536359436
v 0.793750048 0.962125003 0.500000000
v 0.918290639 1.000000000 0.500000000
v 0.905174677 1.000000000 0.469702265
v 0.793750048 0.971934140 0.425492525
v 0.889291721 1.000000000 0.433012733
v 0.864141828 1.000000000 0.413197149
v 0.793750048 1.000000000 0.357735495
v 0.793750048 1.000000000 0.358648705
v 0.793750048 1.000000000 0.641351295
v 0.607499838 0.364999980 0.751950026
v 0.622499943 0.364999980 0.766950011
v 0.607499838 0.349999964 0.766950011
v 0.322499752 0.364999980 0.766950011
v 0.337499857 0.364999980 0.751950026
v 0.337499857 0.349999964 0.766950011
v 0.622499943 0.941249967 0.766950011
v 0.607499838 0.941249967 0.751950026
v 0.607499838 0.956250012 0.766950011
v 0.322499752 0.941249967 0.766950011
v 0.337499857 0.956250012 0.766950011
v 0.337499857 0.941249967 0.751950026
v 0.327367175 0.360132586 1.000000000
v 0.322499752 0.364999980 1.000000000
v 0.337499857 0.349999964 1.000000000
v 0.612367261 0.354867358 1.000000000
v 0.607499838 0.349999964 1.000000000
v 0.622499943 0.364999980 1.000000000
v 0.332632434 0.951382608 1.000000000
v 0.337499857 0.956250012 1.000000000
v 0.322499752 0.941249967 1.000000000
v 0.617632520 0.946117370 1.000000000
v 0.622499943 0.941249967 1.000000000
v 0.607499838 0.956250012 1.000000000
v 0.425112855 0.349999964 1.000000000
v 0.322499752 0.754261105 1.000000000
v 0.622499943 0.551988841 1.000000000
v 0.425112855 0.956250012 1.000000000
v 0.726249933 0.327499986 0.670700073
v 0.741249800 0.327499986 0.685699940
v 0.726249933 0.312500000 0.685699940
v 0.203749895 0.327499986 0.685699940
v 0.218749762 0.327499986 0.670700073
v 0.218749762 0.312500000 0.685699940
v 0.741249800 0.422500014 0.685699940
v 0.726249933 0.422500014 0.670700073
v 0.726249933 0.437500000 0.685699940
v 0.203749895 0.422500014 0.685699940
v 0.218749762 0.437500000 0.685699940
v 0.218749762 0.422500014 0.670700073
v 0.209460190 0.321789645 1.000000000
v 0.203749895 0.327499986 1.000000000
v 0.218749762 0.312500000 1.000000000
v 0.731960229 0.318210341 1.000000000
v 0.726249933 0.312500000 1.000000000
v 0.741249800 0.327499986 1.000000000
v 0.213039466 0.431789659 1.000000000
v 0.218749762 0.437500000 1.000000000
v 0.203749895 0.422500014 1.000000000
v 0.735539504 0.428210355 1.000000000
v 0.741249800 0.422500014 1.000000000
v 0.726249933 0.437500000 1.000000000
v 0.411949873 0.312500000 1.000000000
v 0.203749895 0.386334478 1.000000000
v 0.741249800 0.363665522 1.000000000
v 0.411949873 0.437500000 1.000000000
v 0.272500038 0.444999993 0.939450026
v 0.291249990 0.444999993 0.971925974
v 0.291249990 0.487500012 0.971925974
v 0.272500038 0.487500012 0.939450026
v 0.328749895 0.444999993 0.971925974
v 0.328749895 0.487500012 0.971925974
v 0.347499847 0.444999993 0.939450026
v 0.347499847 0.487500012 0.939450026
v 0.328749895 0.444999993 0.906974077
v 0.328749895 0.487500012 0.906974077
v 0.291249990 0.444999993 0.906974077
v 0.291249990 0.487500012 0.906974077
v 0.597500086 0.444999993 0.939450026
v 0.616250038 0.444999993 0.971925974
v 0.616250038 0.487500012 0.971925974
v 0.597500086 0.487500012 0.939450026
v 0.653749943 0.444999993 0.971925974
v 0.653749943 0.487500012 0.971925974
v 0.672499895 0.444999993 0.939450026
v 0.672499895 0.487500012 0.939450026
v 0.653749943 0.444999993 0.906974077
v 0.653749943 0.487500012 0.906974077
v 0.616250038 0.444999993 0.906974077
v 0.616250038 0.487500012 0.906974077
v 0.337499857 0.364999980 0.248049974
v 0.322499752 0.364999980 0.233049989
v 0.337499857 0.349999964 0.233049989
v 0.607499838 0.364999980 0.248049974
v 0.607499838 0.349999964 0.233049989
v 0.622499943 0.364999980 0.233049989
v 0.322499752 0.941249967 0.233049989
v 0.337499857 0.941249967 0.248049974
v 0.337499857 0.956250012 0.233049989
v 0.607499838 0.941249967 0.248049974
v 0.622499943 0.941249967 0.233049989
v 0.607499838 0.956250012 0.233049989
v 0.332632430 0.354867362 0.000000000
v 0.322499752 0.364999980 0.000000000
v 0.337499857 0.349999964 0.000000000
v 0.617632516 0.360132582 0.000000000
v 0.607499838 0.349999964 0.000000000
v 0.622499943 0.364999980 0.000000000
v 0.327367179 0.946117374 0.000000000
v 0.337499857 0.956250012 0.000000000
v 0.322499752 0.941249967 0.000000000
v 0.612367265 0.951382605 0.000000000
v 0.622499943 0.941249967 0.000000000
v 0.607499838 0.956250012 0.000000000
v 0.519886777 0.349999964 0.000000000
v 0.322499752 0.551988976 0.000000000
v 0.622499943 0.754260971 0.000000000
v 0.519886777 0.956250012 0.000000000
v 0.218749762 0.327499986 0.329299927
v 0.203749895 0.327499986 0.314300060
v 0.218749762 0.312500000 0.314300060
v 0.726249933 0.327499986 0.329299927
v 0.726249933 0.312500000 0.314300060
v 0.741249800 0.327499986 0.314300060
v 0.203749895 0.422500014 0.314300060
v 0.218749762 0.422500014 0.329299927
v 0.218749762 0.437500000 0.314300060
v 0.726249933 0.422500014 0.329299927
v 0.741249800 0.422500014 0.314300060
v 0.726249933 0.437500000 0.314300060
v 0.213039467 0.318210340 0.000000000
v 0.203749895 0.327499986 0.000000000
v 0.218749762 0.312500000 0.000000000
v 0.735539505 0.321789646 0.000000000
v 0.726249933 0.312500000 0.000000000
v 0.741249800 0.327499986 0.000000000
v 0.209460189 0.428210354 0.000000000
v 0.218749762 0.437500000 0.000000000
v 0.203749895 0.422500014 0.000000000
v 0.731960228 0.431789660 0.000000000
v 0.741249800 0.422500014 0.000000000
v 0.726249933 0.437500000 0.000000000
v 0.533049859 0.312500000 0.000000000
v 0.203749895 0.363665516 0.000000000
v 0.741249800 0.386334484 0.000000000
v 0.533049859 0.437500000 0.000000000
v 0.272500038 0.444999993 0.060549974
v 0.291249990 0.444999993 0.093025923
v 0.291249990 0.487500012 0.093025923
v 0.272500038 0.487500012 0.060549974
v 0.328749895 0.444999993 0.093025923
v 0.328749895 0.487500012 0.093025923
v 0.347499847 0.444999993 0.060549974
v 0.347499847 0.487500012 0.060549974
v 0.328749895 0.444999993 0.028074026
v 0.328749895 0.487500012 0.028074026
v 0.291249990 0.444999993 0.028074026
v 0.291249990 0.487500012 0.028074026
v 0.597500086 0.444999993 0.060549974
v 0.616250038 0.444999993 0.093025923
v 0.616250038 0.487500012 0.093025923
v 0.597500086 0.487500012 0.060549974
v 0.653749943 0.444999993 0.093025923
v 0.653749943 0.487500012 0.093025923
v 0.672499895 0.444999993 0.060549974
v 0.672499895 0.487500012 0.060549974
v 0.653749943 0.444999993 0.028074026
v 0.653749943 0.487500012 0.028074026
v 0.616250038 0.444999993 0.028074026
v 0.616250038 0.487500012 0.028074026
v 1.000000000 0.212499991 0.000000000
v 1.000000000 0.212499991 0.649941619
v 0.000000000 0.212499991 0.949824918
v 0.000000000 0.212499991 0.000000000
v 1.000000000 0.212499991 1.000000000
v 0.000000000 0.212499991 1.000000000
v 1.000000000 0.274999976 1.000000000
v 1.000000000 0.274999976 0.649941619
v 0.000000000 0.274999976 0.949824918
v 0.000000000 0.274999976 1.000000000
v 0.000000000 0.274999976 0.000000000
v 1.000000000 0.274999976 0.000000000
vt 0.715519282 0.032094992
vt 0.698153402 0.032094992
vt 0.698153402 0.029947054
vt 0.736150563 0.029947054
vt 0.736150563 0.032094992
vt 0.698153402 0.024535347
vt 0.698153402 0.021067966
vt 0.736150563 0.021067966
vt 0.698153402 0.026479672
vt 0.698153402 0.029947056
vt 0.736150563 0.029947056
vt 0.698153402 0.021067962
vt 0.736150563 0.021067962
vt 0.698153402 0.036121232
vt 0.698153402 0.040077142
vt 0.736150563 0.040077142
vt 0.698153402 0.046776513
vt 0.698153402 0.051068924
vt 0.736150563 0.051068924
vt 0.698153402 0.058036039
vt 0.698153402 0.062500000
vt 0.736150563 0.062500000
vt 0.698153402 0.069467115
vt 0.698153402 0.073931076
vt 0.736150563 0.073931076
vt 0.698153402 0.080630446
vt 0.698153402 0.084922858
vt 0.736150563 0.084922858
vt 0.698153402 0.091097033
vt 0.698153402 0.095052943
vt 0.736150563 0.095052943
vt 0.698153402 0.100464653
vt 0.698153402 0.103932038
vt 0.736150563 0.103932038
vt 0.740068026 0.032094992
vt 0.741122186 0.029947054
vt 0.741122186 0.032094992
vt 0.741122186 0.021067966
vt 0.741122186 0.029947056
vt 0.741122186 0.021067962
vt 0.741122186 0.040077142
vt 0.741122186 0.051068924
vt 0.741122186 0.062500000
vt 0.741122186 0.073931076
vt 0.741122186 0.084922858
vt 0.741122186 0.095052943
vt 0.741122186 0.103932038
vt 0.737204723 0.032094992
vt 0.641705225 0.037566489
vt 0.637632992 0.037566488
vt 0.637632983 0.032094992
vt 0.638781071 0.029947054
vt 0.647550464 0.035806589
vt 0.646609776 0.037566491
vt 0.646067977 0.021067966
vt 0.653525710 0.028525734
vt 0.654947042 0.013781083
vt 0.660806596 0.022550484
vt 0.665077150 0.008366440
vt 0.669113278 0.018110484
vt 0.676068902 0.005032115
vt 0.678126514 0.015376334
vt 0.687500000 0.003906250
vt 0.687500000 0.014453128
vt 0.698931098 0.005032115
vt 0.696873486 0.015376334
vt 0.709922850 0.008366440
vt 0.705886722 0.018110484
vt 0.720052958 0.013781083
vt 0.714193404 0.022550484
vt 0.728932023 0.021067966
vt 0.721474290 0.028525734
vt 0.736218929 0.029947054
vt 0.727449536 0.035806589
vt 0.737367015 0.037566488
vt 0.733890326 0.037566490
vt 0.737367017 0.032094992
vt 0.728390224 0.037566491
vt 0.646821490 0.037566491
vt 0.728178510 0.037566491
vt 0.647200398 0.037566491
vt 0.724226783 0.037566489
vt 0.663299526 0.037566490
vt 0.711336431 0.037566488
vt 0.644976742 0.028729422
vt 0.628906250 0.028729422
vt 0.628906250 0.021067960
vt 0.746093750 0.021067960
vt 0.746093750 0.028729422
vt 0.628906250 0.021067962
vt 0.628906250 0.029947054
vt 0.746093750 0.029947054
vt 0.746093750 0.021067962
vt 0.628906250 0.040077142
vt 0.746093750 0.040077142
vt 0.628906250 0.051068928
vt 0.746093750 0.051068928
vt 0.628906250 0.062500000
vt 0.746093750 0.062500000
vt 0.628906250 0.073931076
vt 0.746093750 0.073931076
vt 0.628906250 0.084922858
vt 0.746093750 0.084922858
vt 0.628906250 0.095052943
vt 0.746093750 0.095052943
vt 0.628906250 0.103932038
vt 0.746093750 0.103932038
vt 0.730023337 0.028729428
vt 0.628906250 0.028729428
vt 0.746093750 0.028729428
vt 0.735219645 0.030478022
vt 0.735219645 0.028729428
vt 0.728932023 0.021067960
vt 0.709922850 0.008366437
vt 0.698931098 0.005032114
vt 0.676068902 0.005032114
vt 0.665077150 0.008366437
vt 0.646067977 0.021067960
vt 0.639780352 0.030478026
vt 0.639780360 0.028729422
vt 0.735219630 0.036247573
vt 0.639780366 0.036247583
vt 0.722233931 0.038640181
vt 0.735219631 0.038640182
vt 0.639780364 0.038640182
vt 0.652766069 0.038640181
vt 0.639780357 0.028947769
vt 0.735219649 0.028947775
vt 0.639780357 0.029279354
vt 0.735219637 0.036479640
vt 0.653612724 0.038640185
vt 0.639780360 0.038640183
vt 0.735219635 0.038640181
vt 0.726366944 0.038640181
vt 0.937500000 0.003906250
vt 0.996093750 0.003906250
vt 0.996093750 0.121093750
vt 0.937500000 0.121093750
vt 0.966796875 0.003906250
vt 0.908203125 0.003906250
vt 0.908203125 0.121093750
vt 0.966796875 0.121093750
vt 0.878906250 0.003906250
vt 0.878906250 0.121093750
vt 0.996093750 0.062500000
vt 0.878906250 0.062500000
vt 0.628906250 0.033543638
vt 0.628906250 0.047334824
vt 0.662080458 0.048865480
vt 0.666684231 0.055099437
vt 0.672149532 0.062500000
vt 0.667595377 0.068666767
vt 0.628906250 0.077665180
vt 0.662080458 0.076134520
vt 0.653347852 0.080167765
vt 0.628906250 0.091456362
vt 0.716270488 0.011615293
vt 0.716456361 0.011615293
vt 0.702665150 0.005902790
vt 0.658729512 0.011615293
vt 0.672334850 0.005902790
vt 0.658543639 0.011615293
vt 0.740234315 0.006805732
vt 0.742968738 0.006805733
vt 0.740234375 0.003906250
vt 0.741406202 0.006805734
vt 0.746093750 0.006805732
vt 0.741406262 0.003906250
vt 0.742578089 0.118194267
vt 0.740234315 0.118194260
vt 0.740527332 0.118750006
vt 0.741406262 0.118194267
vt 0.741406262 0.121093750
vt 0.746093750 0.118194267
vt 0.633182467 0.042672249
vt 0.631281105 0.042672249
vt 0.628906250 0.116406262
vt 0.634765744 0.116406262
vt 0.634567769 0.042786502
vt 0.740234375 0.116406247
vt 0.634765625 0.121093750
vt 0.740234375 0.121093750
vt 0.742135699 0.043578110
vt 0.740234375 0.043578108
vt 0.746093750 0.116406254
vt 0.746093750 0.043175499
vt 0.668842032 0.120152889
vt 0.668842032 0.121093750
vt 0.668578145 0.118194267
vt 0.668292899 0.118374600
vt 0.668958355 0.118194267
vt 0.668292899 0.120333222
vt 0.634765685 0.118194275
vt 0.634765685 0.116406262
vt 0.668791560 0.042786497
vt 0.668578126 0.082049511
vt 0.667786508 0.007107688
vt 0.668958395 0.042950489
vt 0.669085157 0.006805733
vt 0.634765685 0.006805733
vt 0.669084557 0.044338640
vt 0.740329397 0.044338639
vt 0.634765685 0.043578113
vt 0.742823362 0.017968748
vt 0.743913591 0.017968751
vt 0.742823422 0.003906250
vt 0.746093750 0.017968757
vt 0.743641019 0.107031256
vt 0.742823303 0.107031241
vt 0.742823362 0.119458571
vt 0.742823422 0.121093750
vt 0.746093750 0.107031249
vt 0.631670269 0.054311471
vt 0.630425288 0.054311474
vt 0.628906250 0.117823415
vt 0.632176578 0.117823407
vt 0.632176615 0.048792364
vt 0.742823482 0.117823407
vt 0.632176578 0.121093750
vt 0.744068439 0.049298703
vt 0.742823482 0.049298703
vt 0.746093750 0.117823407
vt 0.746093750 0.051526596
vt 0.674298652 0.115740297
vt 0.674298697 0.121093750
vt 0.674298688 0.107031250
vt 0.674298674 0.111762198
vt 0.674609948 0.107031247
vt 0.674298674 0.120471254
vt 0.632176638 0.107031256
vt 0.632176638 0.117823415
vt 0.674298757 0.048792364
vt 0.674298711 0.073126072
vt 0.673792365 0.016297826
vt 0.674609948 0.051873931
vt 0.674713713 0.017968749
vt 0.632176638 0.017968750
vt 0.674298711 0.049921194
vt 0.742823399 0.049921194
vt 0.632176638 0.049298707
vt 0.633300781 0.006805733
vt 0.632421911 0.007252737
vt 0.634472668 0.007421874
vt 0.740234435 0.006080863
vt 0.740234375 0.008593749
vt 0.746093750 0.007997736
vt 0.633593798 0.118194267
vt 0.633300781 0.118194260
vt 0.633984447 0.121093750
vt 0.740234435 0.118194275
vt 0.634005187 0.080986724
vt 0.630047057 0.080986724
vt 0.634670643 0.081041608
vt 0.744192425 0.081421868
vt 0.740234375 0.081421863
vt 0.746093750 0.081228466
vt 0.706548652 0.119135129
vt 0.706548652 0.121093750
vt 0.706421889 0.118194267
vt 0.705828146 0.118569668
vt 0.633593738 0.118194267
vt 0.707213447 0.118194267
vt 0.705828146 0.119510529
vt 0.633593738 0.121093750
vt 0.705915458 0.081041598
vt 0.706421849 0.042950516
vt 0.706041580 0.006950783
vt 0.707213467 0.082049485
vt 0.633593798 0.006805733
vt 0.707477353 0.006805733
vt 0.706208434 0.083005084
vt 0.634765685 0.008593749
vt 0.740234315 0.008593747
vt 0.740432250 0.083005083
vt 0.634765685 0.081421873
vt 0.631358981 0.017968748
vt 0.631359041 0.015270711
vt 0.632176638 0.006359011
vt 0.742823422 0.014453124
vt 0.742823482 0.007176598
vt 0.746093750 0.010773975
vt 0.631358981 0.107031241
vt 0.742823482 0.107031256
vt 0.746093750 0.107031241
vt 0.631865350 0.078782655
vt 0.629840002 0.078782659
vt 0.632176601 0.075390063
vt 0.744848793 0.075701309
vt 0.742823482 0.075701309
vt 0.746093750 0.077070794
vt 0.700701237 0.112384693
vt 0.700701311 0.121093750
vt 0.700701260 0.107031247
vt 0.700701274 0.114727615
vt 0.632176578 0.107031241
vt 0.701207657 0.107031250
vt 0.700701274 0.120081067
vt 0.700701371 0.075390063
vt 0.700701297 0.051873925
vt 0.700390046 0.016941633
vt 0.701207657 0.073126079
vt 0.632176578 0.017968748
vt 0.701376464 0.017968750
vt 0.700701297 0.076713983
vt 0.632176638 0.007176598
vt 0.742823422 0.007176598
vt 0.742823385 0.076713983
vt 0.632176638 0.075701314
vt 0.053444069 0.217507427
vt 0.053483831 0.178391437
vt 0.035333573 0.160343305
vt 0.035275464 0.217507427
vt 0.053483831 0.157354270
vt 0.035333573 0.157327975
vt 0.053387324 0.157533248
vt 0.053365907 0.178631803
vt 0.035215650 0.160557377
vt 0.035218719 0.157533248
vt 0.035215650 0.217638207
vt 0.053365907 0.217690799
vn 0.000000000 -0.471396038 0.881921638
vn 0.000000000 -0.634393220 0.773010506
vn 0.000000000 -0.773010714 0.634392966
vn 0.000000000 -0.881921423 0.471396440
vn 0.000000000 -0.956940296 0.290284808
vn 0.000000000 -0.995184680 0.098017615
vn 0.000000000 -0.995184680 -0.098017615
vn 0.000000000 -0.956940296 -0.290284808
vn 0.000000000 -0.881921423 -0.471396440
vn 0.000000000 -0.773010714 -0.634392966
vn 0.000000000 -0.634393220 -0.773010506
vn 0.000000000 -0.471396038 -0.881921638
vn 0.768942416 -0.301371993 0.563828416
vn 0.768942156 -0.301372610 0.563828442
vn 0.768942664 -0.405578843 0.494199333
vn 0.768942426 -0.405579400 0.494199246
vn 0.768942322 -0.494199785 0.405578942
vn 0.768942663 -0.494199026 0.405579220
vn 0.768942324 -0.563828376 0.301372302
vn 0.768942268 -0.563828491 0.301372232
vn 0.768942352 -0.611789272 0.185584338
vn 0.768942372 -0.611789237 0.185584370
vn 0.768942386 -0.636239558 0.062664433
vn 0.768942347 -0.636239614 0.062664358
vn 0.768942350 -0.636239601 -0.062664437
vn 0.768942390 -0.636239562 -0.062664353
vn 0.768942370 -0.611789251 -0.185584331
vn 0.768942350 -0.611789262 -0.185584378
vn 0.768942273 -0.563828430 -0.301372331
vn 0.768942330 -0.563828425 -0.301372197
vn 0.768942629 -0.494199499 -0.405578707
vn 0.768942289 -0.494199374 -0.405579505
vn 0.768942450 -0.405579007 -0.494199533
vn 0.768942688 -0.405579201 -0.494199003
vn 0.768942181 -0.301372126 -0.563828665
vn 0.768942442 -0.301372447 -0.563828138
vn 1.000000000 0.000000000 0.000000000
vn 0.000000000 -0.634393488 0.773010286
vn 0.000000000 -0.773010573 0.634393139
vn 0.000000000 -0.881921083 0.471397076
vn 0.000000000 -0.956940280 0.290284861
vn 0.000000000 -0.995184762 0.098016781
vn 0.000000000 -0.995184762 -0.098016781
vn 0.000000000 -0.956940280 -0.290284861
vn 0.000000000 -0.881921083 -0.471397076
vn 0.000000000 -0.773010573 -0.634393139
vn 0.000000000 -0.634393192 -0.773010529
vn -1.000000000 0.000000000 0.000000000
vn 0.000000000 0.499998612 0.866026205
vn 0.000000000 1.000000000 0.000000000
vn 0.000000000 0.499998612 -0.866026205
vn 0.000000000 -0.499998612 -0.866026205
vn 0.000000000 -1.000000000 0.000000000
vn 0.000000000 -0.499998612 0.866026205
vn -1.000000000 -0.000011799 -0.000006812
vn 0.288679134 -0.884546290 0.366390801
vn 0.288679130 -0.949234924 0.124969674
vn 0.288679191 -0.949234878 0.124969879
vn 0.288679183 -0.949234908 -0.124969672
vn 0.288679123 -0.949234899 -0.124969882
vn 0.288679159 -0.884546283 -0.366390798
vn 0.288679130 -0.884546253 -0.366390893
vn 0.577347593 -0.577351034 -0.577352181
vn -0.577347593 -0.577351034 -0.577352181
vn 0.577347975 0.577350269 -0.577352563
vn -0.577347975 0.577350269 -0.577352563
vn -0.707104674 -0.707108889 -0.000000000
vn -0.000000000 -0.707106079 -0.707107484
vn 0.707104674 -0.707108889 0.000000000
vn -0.707105376 0.707108186 0.000000000
vn 0.707105376 0.707108186 0.000000000
vn 0.000000000 0.707105376 -0.707108186
vn 0.707103971 0.000000000 -0.707109591
vn -0.707103971 0.000000000 -0.707109591
vn 0.000000000 0.000000000 -1.000000000
vn 0.577351799 -0.577347210 -0.577351799
vn -0.577351799 -0.577347210 -0.577351799
vn 0.577351799 0.577347210 -0.577351799
vn -0.577351799 0.577347210 -0.577351799
vn -0.707109591 -0.707103971 -0.000000000
vn -0.000000000 -0.707103971 -0.707109591
vn 0.707109591 -0.707103971 0.000000000
vn -0.707109591 0.707103971 0.000000000
vn 0.707109591 0.707103971 0.000000000
vn 0.000000000 0.707103971 -0.707109591
vn 0.707106781 0.000000000 -0.707106781
vn -0.707106781 0.000000000 -0.707106781
vn -0.866025926 0.000000000 0.499999096
vn 0.000000000 0.000000000 1.000000000
vn 0.866025926 0.000000000 0.499999096
vn 0.866025926 0.000000000 -0.499999096
vn -0.866025926 0.000000000 -0.499999096
vn -0.577347593 -0.577351034 0.577352181
vn 0.577347593 -0.577351034 0.577352181
vn -0.577347975 0.577350269 0.577352563
vn 0.577347975 0.577350269 0.577352563
vn 0.000000000 -0.707106079 0.707107484
vn -0.000000000 0.707105376 0.707108186
vn -0.707103971 0.000000000 0.707109591
vn 0.707103971 -0.000000000 0.707109591
vn -0.577351799 -0.577347210 0.577351799
vn 0.577351799 -0.577347210 0.577351799
vn -0.577351799 0.577347210 0.577351799
vn 0.577351799 0.577347210 0.577351799
vn 0.000000000 -0.707103971 0.707109591
vn -0.000000000 0.707103971 0.707109591
vn -0.707106781 0.000000000 0.707106781
vn 0.707106781 -0.000000000 0.707106781
usemtl mat_0
f 1/1/1 2/2/1 3/3/1 4/4/1
f 1/1/1 4/4/1 5/5/1
f 6/6/2 7/7/2 8/8/2
f 3/3/2 6/6/2 8/8/2 4/4/2
f 9/9/3 10/10/3 11/11/3
f 7/12/3 9/9/3 11/11/3 8/13/3
f 12/14/4 13/15/4 14/16/4
f 10/10/4 12/14/4 14/16/4 11/11/4
f 15/17/5 16/18/5 17/19/5
f 13/15/5 15/17/5 17/19/5 14/16/5
f 18/20/6 19/21/6 20/22/6
f 16/18/6 18/20/6 20/22/6 17/19/6
f 21/23/7 22/24/7 23/25/7
f 19/21/7 21/23/7 23/25/7 20/22/7
f 24/26/8 25/27/8 26/28/8
f 22/24/8 24/26/8 26/28/8 23/25/8
f 27/29/9 28/30/9 29/31/9
f 25/27/9 27/29/9 29/31/9 26/28/9
f 30/32/10 31/33/10 32/34/10
f 28/30/10 30/32/10 32/34/10 29/31/10
f 33/9/11 34/3/11 35/4/11
f 31/7/11 33/9/11 35/4/11 32/8/11
f 34/3/12 36/2/12 37/5/12 35/4/12
f 38/35/1 5/5/1 4/4/1 39/36/1
f 38/35/1 39/36/1 40/37/1
f 4/4/2 8/8/2 41/38/2
f 4/4/2 41/38/2 39/36/2
f 8/13/3 11/11/3 42/39/3
f 8/13/3 42/39/3 41/40/3
f 11/11/4 14/16/4 43/41/4
f 11/11/4 43/41/4 42/39/4
f 14/16/5 17/19/5 44/42/5
f 14/16/5 44/42/5 43/41/5
f 17/19/6 20/22/6 45/43/6
f 17/19/6 45/43/6 44/42/6
f 20/22/7 23/25/7 46/44/7
f 20/22/7 46/44/7 45/43/7
f 23/25/8 26/28/8 47/45/8
f 23/25/8 47/45/8 46/44/8
f 26/28/9 29/31/9 48/46/9
f 26/28/9 48/46/9 47/45/9
f 29/31/10 32/34/10 49/47/10
f 29/31/10 49/47/10 48/46/10
f 32/8/11 35/4/11 50/36/11
f 32/8/11 50/36/11 49/38/11
f 51/48/12 35/4/12 37/5/12
f 35/4/12 51/48/12 52/37/12 50/36/12
f 53/49/13 54/50/13 40/51/13
f 53/49/13 40/51/13 39/52/13
f 53/49/13 39/52/13 55/53/13
f 53/49/14 55/53/14 56/54/14
f 39/52/15 41/55/15 57/56/15
f 39/52/16 57/56/16 55/53/16
f 41/55/17 42/57/17 58/58/17
f 41/55/18 58/58/18 57/56/18
f 42/57/19 43/59/19 59/60/19
f 42/57/20 59/60/20 58/58/20
f 43/59/21 44/61/21 60/62/21
f 43/59/22 60/62/22 59/60/22
f 44/61/23 45/63/23 61/64/23
f 44/61/24 61/64/24 60/62/24
f 45/63/25 46/65/25 62/66/25
f 45/63/26 62/66/26 61/64/26
f 46/65/27 47/67/27 63/68/27
f 46/65/28 63/68/28 62/66/28
f 47/67/29 48/69/29 64/70/29
f 47/67/30 64/70/30 63/68/30
f 48/69/31 49/71/31 65/72/31
f 48/69/32 65/72/32 64/70/32
f 49/71/33 50/73/33 66/74/33
f 49/71/34 66/74/34 65/72/34
f 67/75/35 68/76/35 50/73/35 52/77/35
f 50/73/36 68/76/36 69/78/36 66/74/36
f 70/79/37 56/54/37 55/53/37
f 55/53/37 57/56/37 58/58/37
f 58/58/37 59/60/37 60/62/37
f 60/62/37 61/64/37 62/66/37
f 62/66/37 63/68/37 64/70/37
f 64/70/37 65/72/37 66/74/37
f 71/80/37 66/74/37 69/78/37
f 72/81/37 70/79/37 55/53/37
f 55/53/37 58/58/37 60/62/37
f 60/62/37 62/66/37 64/70/37
f 73/82/37 64/70/37 66/74/37 71/80/37
f 74/83/37 72/81/37 55/53/37 60/62/37
f 75/84/37 60/62/37 64/70/37 73/82/37
f 74/83/37 60/62/37 75/84/37
f 76/85/38 77/86/38 78/87/38 79/88/38
f 76/85/38 79/88/38 80/89/38
f 78/90/39 81/91/39 82/92/39
f 78/90/39 82/92/39 79/93/39
f 81/91/40 83/94/40 84/95/40
f 81/91/40 84/95/40 82/92/40
f 83/94/41 85/96/41 86/97/41
f 83/94/41 86/97/41 84/95/41
f 85/96/42 87/98/42 88/99/42
f 85/96/42 88/99/42 86/97/42
f 87/98/43 89/100/43 90/101/43
f 87/98/43 90/101/43 88/99/43
f 89/100/44 91/102/44 92/103/44
f 89/100/44 92/103/44 90/101/44
f 91/102/45 93/104/45 94/105/45
f 91/102/45 94/105/45 92/103/45
f 93/104/46 95/106/46 96/107/46
f 93/104/46 96/107/46 94/105/46
f 97/108/47 95/87/47 98/109/47
f 95/87/47 97/108/47 99/110/47 96/88/47
f 100/111/48 98/112/48 95/113/48
f 95/113/48 93/69/48 91/114/48
f 91/114/48 89/115/48 87/63/48
f 87/63/48 85/116/48 83/117/48
f 83/117/48 81/57/48 78/118/48
f 101/119/48 78/118/48 77/120/48
f 102/121/48 100/111/48 95/113/48
f 95/113/48 91/114/48 87/63/48
f 87/63/48 83/117/48 78/118/48
f 103/122/48 78/118/48 101/119/48
f 104/123/48 105/124/48 102/121/48
f 104/123/48 102/121/48 95/113/48
f 104/123/48 95/113/48 87/63/48
f 106/125/48 107/126/48 87/63/48
f 106/125/48 87/63/48 78/118/48
f 106/125/48 78/118/48 103/122/48
f 104/123/48 87/63/48 107/126/48
f 108/127/37 80/120/37 79/118/37 82/57/37
f 82/57/37 84/117/37 86/116/37
f 86/116/37 88/63/37 90/115/37
f 90/115/37 92/114/37 94/69/37
f 109/128/37 94/69/37 96/113/37 99/112/37
f 110/129/37 108/127/37 82/57/37 86/116/37
f 86/116/37 90/115/37 94/69/37
f 111/130/37 94/69/37 109/128/37
f 112/131/37 113/132/37 110/129/37 86/116/37
f 114/133/37 115/134/37 86/116/37
f 114/133/37 86/116/37 94/69/37
f 114/133/37 94/69/37 111/130/37
f 112/131/37 86/116/37 115/134/37
usemtl mat_1
f 116/135/49 117/136/49 118/137/49
f 116/135/49 118/137/49 119/138/49
f 117/139/50 120/140/50 121/141/50
f 117/139/50 121/141/50 118/142/50
f 120/136/51 122/135/51 123/138/51
f 120/136/51 123/138/51 121/137/51
f 122/135/52 124/143/52 125/144/52
f 122/135/52 125/144/52 123/138/52
f 124/140/53 126/139/53 127/142/53
f 124/140/53 127/142/53 125/141/53
f 126/143/54 116/135/54 119/138/54
f 126/143/54 119/138/54 127/144/54
f 116/145/37 126/139/37 124/140/37
f 124/140/37 122/146/37 120/141/37
f 120/141/37 117/142/37 116/145/37
f 124/140/37 120/141/37 116/145/37
f 127/139/48 119/145/48 118/142/48
f 118/142/48 121/141/48 123/146/48
f 123/146/55 125/140/55 127/139/55
f 118/142/48 123/146/48 127/139/48
f 128/135/49 129/136/49 130/137/49
f 128/135/49 130/137/49 131/138/49
f 129/139/50 132/140/50 133/141/50
f 129/139/50 133/141/50 130/142/50
f 132/136/51 134/135/51 135/138/51
f 132/136/51 135/138/51 133/137/51
f 134/135/52 136/143/52 137/144/52
f 134/135/52 137/144/52 135/138/52
f 136/140/53 138/139/53 139/142/53
f 136/140/53 139/142/53 137/141/53
f 138/143/54 128/135/54 131/138/54
f 138/143/54 131/138/54 139/144/54
f 128/145/37 138/139/37 136/140/37
f 136/140/37 134/146/37 132/141/37
f 132/141/37 129/142/37 128/145/37
f 136/140/37 132/141/37 128/145/37
f 139/139/48 131/145/48 130/142/48
f 130/142/48 133/141/48 135/146/48
f 135/146/55 137/140/55 139/139/55
f 130/142/48 135/146/48 139/139/48
f 140/135/49 141/136/49 142/137/49
f 140/135/49 142/137/49 143/138/49
f 141/139/50 144/140/50 145/141/50
f 141/139/50 145/141/50 142/142/50
f 144/136/51 146/135/51 147/138/51
f 144/136/51 147/138/51 145/137/51
f 146/135/52 148/143/52 149/144/52
f 146/135/52 149/144/52 147/138/52
f 148/140/53 150/139/53 151/142/53
f 148/140/53 151/142/53 149/141/53
f 150/143/54 140/135/54 143/138/54
f 150/143/54 143/138/54 151/144/54
f 140/145/37 150/139/37 148/140/37
f 148/140/37 146/146/37 144/141/37
f 144/141/37 141/142/37 140/145/37
f 148/140/37 144/141/37 140/145/37
f 151/139/48 143/145/48 142/142/48
f 142/142/48 145/141/48 147/146/48
f 147/146/55 149/140/55 151/139/55
f 142/142/48 147/146/48 151/139/48
f 152/135/49 153/136/49 154/137/49
f 152/135/49 154/137/49 155/138/49
f 153/139/50 156/140/50 157/141/50
f 153/139/50 157/141/50 154/142/50
f 156/136/51 158/135/51 159/138/51
f 156/136/51 159/138/51 157/137/51
f 158/135/52 160/143/52 161/144/52
f 158/135/52 161/144/52 159/138/52
f 160/140/53 162/139/53 163/142/53
f 160/140/53 163/142/53 161/141/53
f 162/143/54 152/135/54 155/138/54
f 162/143/54 155/138/54 163/144/54
f 152/145/37 162/139/37 160/140/37
f 160/140/37 158/146/37 156/141/37
f 156/141/37 153/142/37 152/145/37
f 160/140/37 156/141/37 152/145/37
f 163/139/48 155/145/48 154/142/48
f 154/142/48 157/141/48 159/146/48
f 159/146/55 161/140/55 163/139/55
f 154/142/48 159/146/48 163/139/48
f 164/135/49 165/136/49 166/137/49
f 164/135/49 166/137/49 167/138/49
f 165/139/50 168/140/50 169/141/50
f 165/139/50 169/141/50 166/142/50
f 168/136/51 170/135/51 171/138/51
f 168/136/51 171/138/51 169/137/51
f 170/135/52 172/143/52 173/144/52
f 170/135/52 173/144/52 171/138/52
f 172/140/53 174/139/53 175/142/53
f 172/140/53 175/142/53 173/141/53
f 174/143/54 164/135/54 167/138/54
f 174/143/54 167/138/54 175/144/54
f 164/145/37 174/139/37 172/140/37
f 172/140/37 170/146/37 168/141/37
f 168/141/37 165/142/37 164/145/37
f 172/140/37 168/141/37 164/145/37
f 175/139/48 167/145/48 166/142/48
f 166/142/48 169/141/48 171/146/48
f 171/146/55 173/140/55 175/139/55
f 166/142/48 171/146/48 175/139/48
f 176/135/49 177/136/49 178/137/49
f 176/135/49 178/137/49 179/138/49
f 177/139/50 180/140/50 181/141/50
f 177/139/50 181/141/50 178/142/50
f 180/136/51 182/135/51 183/138/51
f 180/136/51 183/138/51 181/137/51
f 182/135/52 184/143/52 185/144/52
f 182/135/52 185/144/52 183/138/52
f 184/140/53 186/139/53 187/142/53
f 184/140/53 187/142/53 185/141/53
f 186/143/54 176/135/54 179/138/54
f 186/143/54 179/138/54 187/144/54
f 176/145/37 186/139/37 184/140/37
f 184/140/37 182/146/37 180/141/37
f 180/141/37 177/142/37 176/145/37
f 184/140/37 180/141/37 176/145/37
f 187/139/48 179/145/48 178/142/48
f 178/142/48 181/141/48 183/146/48
f 183/146/55 185/140/55 187/139/55
f 178/142/48 183/146/48 187/139/48
usemtl mat_0
f 188/147/56 189/148/56 190/149/56
f 191/150/57 189/148/57 192/98/57 193/151/57
f 190/149/58 189/148/58 191/150/58
f 194/152/59 192/98/59 195/153/59 196/154/59
f 193/151/60 192/98/60 194/152/60
f 197/155/61 195/153/61 198/156/61
f 196/154/62 195/153/62 197/155/62
f 199/157/48 198/158/48 195/159/48 192/63/48
f 200/160/48 192/63/48 189/161/48 188/162/48
f 199/157/48 192/63/48 200/160/48
f 201/163/63 202/164/63 203/165/63
f 204/166/64 205/167/64 206/168/64
f 207/169/65 208/170/65 209/171/65
f 210/172/66 211/173/66 212/174/66
f 213/175/67 214/176/67 204/177/67 206/178/67
f 213/175/67 206/178/67 215/179/67
f 203/180/68 206/178/68 205/181/68
f 203/180/68 205/181/68 201/182/68
f 216/183/69 217/184/69 203/180/69 202/185/69
f 216/183/69 202/185/69 218/186/69
f 219/187/70 220/188/70 211/173/70 210/172/70
f 219/187/70 210/172/70 221/189/70
f 222/190/71 223/191/71 207/169/71 209/171/71
f 222/190/71 209/171/71 224/192/71
f 208/170/72 212/193/72 211/194/72
f 208/170/72 211/194/72 209/171/72
f 201/163/73 208/170/73 207/169/73
f 201/163/73 207/169/73 202/164/73
f 204/166/74 210/172/74 212/174/74
f 204/166/74 212/174/74 205/167/74
f 225/195/53 215/179/53 206/178/53 203/180/53
f 225/195/53 203/180/53 217/184/53
f 226/196/48 204/166/48 214/197/48
f 204/166/48 226/196/48 221/189/48 210/172/48
f 227/198/37 218/199/37 202/164/37 207/169/37
f 227/198/37 207/169/37 223/191/37
f 201/163/75 205/200/75 212/193/75
f 201/163/75 212/193/75 208/170/75
f 228/201/50 224/202/50 209/171/50
f 220/203/50 228/201/50 209/171/50 211/194/50
f 229/204/76 230/205/76 231/206/76
f 232/204/77 233/207/77 234/206/77
f 235/208/78 236/209/78 237/210/78
f 238/209/79 239/211/79 240/212/79
f 241/213/80 242/214/80 232/215/80 234/216/80
f 241/213/80 234/216/80 243/217/80
f 231/218/81 234/216/81 233/219/81
f 231/218/81 233/219/81 229/211/81
f 244/220/82 245/221/82 231/218/82 230/222/82
f 244/220/82 230/222/82 246/223/82
f 247/224/83 248/225/83 239/211/83 238/209/83
f 247/224/83 238/209/83 249/226/83
f 250/227/84 251/228/84 235/208/84 237/210/84
f 250/227/84 237/210/84 252/229/84
f 236/209/85 240/230/85 239/231/85
f 236/209/85 239/231/85 237/210/85
f 229/204/86 236/209/86 235/208/86
f 229/204/86 235/208/86 230/205/86
f 232/204/87 238/209/87 240/212/87
f 232/204/87 240/212/87 233/207/87
f 253/232/53 243/217/53 234/216/53 231/218/53
f 253/232/53 231/218/53 245/221/53
f 254/233/48 232/204/48 242/234/48
f 232/204/48 254/233/48 249/226/48 238/209/48
f 255/235/37 246/236/37 230/205/37 235/208/37
f 255/235/37 235/208/37 251/228/37
f 229/204/75 233/237/75 240/230/75
f 229/204/75 240/230/75 236/209/75
f 256/238/50 252/239/50 237/210/50
f 248/240/50 256/238/50 237/210/50 239/231/50
usemtl mat_1
f 257/135/88 258/136/88 259/137/88
f 257/135/88 259/137/88 260/138/88
f 258/139/89 261/140/89 262/141/89
f 258/139/89 262/141/89 259/142/89
f 261/136/90 263/135/90 264/138/90
f 261/136/90 264/138/90 262/137/90
f 263/135/91 265/143/91 266/144/91
f 263/135/91 266/144/91 264/138/91
f 265/140/75 267/139/75 268/142/75
f 265/140/75 268/142/75 266/141/75
f 267/143/92 257/135/92 260/138/92
f 267/143/92 260/138/92 268/144/92
f 257/145/53 267/139/53 265/140/53
f 265/140/53 263/146/53 261/141/53
f 261/141/53 258/142/53 257/145/53
f 265/140/53 261/141/53 257/145/53
f 268/139/50 260/145/50 259/142/50
f 259/142/50 262/141/50 264/146/50
f 264/146/50 266/140/50 268/139/50
f 259/142/50 264/146/50 268/139/50
f 269/135/88 270/136/88 271/137/88
f 269/135/88 271/137/88 272/138/88
f 270/139/89 273/140/89 274/141/89
f 270/139/89 274/141/89 271/142/89
f 273/136/90 275/135/90 276/138/90
f 273/136/90 276/138/90 274/137/90
f 275/135/91 277/143/91 278/144/91
f 275/135/91 278/144/91 276/138/91
f 277/140/75 279/139/75 280/142/75
f 277/140/75 280/142/75 278/141/75
f 279/143/92 269/135/92 272/138/92
f 279/143/92 272/138/92 280/144/92
f 269/145/53 279/139/53 277/140/53
f 277/140/53 275/146/53 273/141/53
f 273/141/53 270/142/53 269/145/53
f 277/140/53 273/141/53 269/145/53
f 280/139/50 272/145/50 271/142/50
f 271/142/50 274/141/50 276/146/50
f 276/146/50 278/140/50 280/139/50
f 271/142/50 276/146/50 280/139/50
usemtl mat_0
f 281/241/93 282/242/93 283/243/93
f 284/244/94 285/245/94 286/246/94
f 287/247/95 288/248/95 289/249/95
f 290/250/96 291/174/96 292/182/96
f 283/243/97 285/245/97 284/244/97
f 283/243/97 284/244/97 281/241/97
f 293/251/67 282/242/67 294/252/67
f 282/242/67 293/251/67 295/253/67 283/243/67
f 296/254/69 285/245/69 297/255/69
f 285/245/69 296/254/69 298/256/69 286/246/69
f 299/257/70 289/249/70 300/258/70
f 289/249/70 299/257/70 301/259/70 287/247/70
f 288/248/98 290/250/98 292/182/98
f 288/248/98 292/182/98 289/249/98
f 302/260/71 291/261/71 303/262/71
f 291/261/71 302/260/71 304/263/71 292/264/71
f 281/241/99 288/248/99 287/247/99
f 281/241/99 287/247/99 282/242/99
f 286/246/100 291/174/100 290/250/100
f 286/246/100 290/250/100 284/244/100
f 281/241/89 284/244/89 290/250/89
f 281/241/89 290/250/89 288/248/89
f 305/265/53 283/243/53 295/253/53
f 283/243/53 305/265/53 297/255/53 285/245/53
f 306/266/48 294/267/48 282/242/48 287/247/48
f 306/266/48 287/247/48 301/259/48
f 307/268/37 286/269/37 298/270/37
f 286/269/37 307/268/37 303/262/37 291/261/37
f 308/271/50 289/272/50 292/273/50 304/274/50
f 300/275/50 289/272/50 308/271/50
f 309/276/101 310/277/101 311/278/101
f 312/279/102 313/280/102 314/281/102
f 315/230/103 316/282/103 317/219/103
f 318/283/104 319/284/104 320/211/104
f 311/278/105 313/280/105 312/279/105
f 311/278/105 312/279/105 309/276/105
f 321/285/80 310/277/80 322/286/80
f 310/277/80 321/285/80 323/287/80 311/278/80
f 324/288/82 313/280/82 325/289/82
f 313/280/82 324/288/82 326/290/82 314/281/82
f 327/291/83 317/219/83 328/292/83
f 317/219/83 327/291/83 329/293/83 315/230/83
f 316/282/106 318/283/106 320/211/106
f 316/282/106 320/211/106 317/219/106
f 330/294/84 319/295/84 331/296/84
f 319/295/84 330/294/84 332/297/84 320/219/84
f 309/276/107 316/282/107 315/230/107
f 309/276/107 315/230/107 310/277/107
f 314/281/108 319/284/108 318/283/108
f 314/281/108 318/283/108 312/279/108
f 309/276/89 312/279/89 318/283/89
f 309/276/89 318/283/89 316/282/89
f 333/298/53 311/278/53 323/287/53
f 311/278/53 333/298/53 325/289/53 313/280/53
f 334/299/48 322/300/48 310/277/48 315/230/48
f 334/299/48 315/230/48 329/293/48
f 335/301/37 314/302/37 326/303/37
f 314/302/37 335/301/37 331/296/37 319/295/37
f 336/304/50 317/305/50 320/306/50 332/307/50
f 328/308/50 317/305/50 336/304/50
usemtl mat_1
f 337/135/88 338/136/88 339/137/88
f 337/135/88 339/137/88 340/138/88
f 338/139/89 341/140/89 342/141/89
f 338/139/89 342/141/89 339/142/89
f 341/136/90 343/135/90 344/138/90
f 341/136/90 344/138/90 342/137/90
f 343/135/91 345/143/91 346/144/91
f 343/135/91 346/144/91 344/138/91
f 345/140/75 347/139/75 348/142/75
f 345/140/75 348/142/75 346/141/75
f 347/143/92 337/135/92 340/138/92
f 347/143/92 340/138/92 348/144/92
f 337/145/53 347/139/53 345/140/53
f 345/140/53 343/146/53 341/141/53
f 341/141/53 338/142/53 337/145/53
f 345/140/53 341/141/53 337/145/53
f 348/139/50 340/145/50 339/142/50
f 339/142/50 342/141/50 344/146/50
f 344/146/50 346/140/50 348/139/50
f 339/142/50 344/146/50 348/139/50
f 349/135/88 350/136/88 351/137/88
f 349/135/88 351/137/88 352/138/88
f 350/139/89 353/140/89 354/141/89
f 350/139/89 354/141/89 351/142/89
f 353/136/90 355/135/90 356/138/90
f 353/136/90 356/138/90 354/137/90
f 355/135/91 357/143/91 358/144/91
f 355/135/91 358/144/91 356/138/91
f 357/140/75 359/139/75 360/142/75
f 357/140/75 360/142/75 358/141/75
f 359/143/92 349/135/92 352/138/92
f 359/143/92 352/138/92 360/144/92
f 349/145/53 359/139/53 357/140/53
f 357/140/53 355/146/53 353/141/53
f 353/141/53 350/142/53 349/145/53
f 357/140/53 353/141/53 349/145/53
f 360/139/50 352/145/50 351/142/50
f 351/142/50 354/141/50 356/146/50
f 356/146/50 358/140/50 360/139/50
f 351/142/50 356/146/50 360/139/50
usemtl mat_2
f 361/309/53 362/310/53 363/311/53 364/312/53
f 365/313/53 366/314/53 363/311/53 362/310/53
f 367/315/50 368/316/50 369/317/50 370/318/50
f 371/319/50 369/317/50 368/316/50 372/320/50
