# Authored in Blender; exported by tools-export-modern.py
mtllib materials.mtl
s off
v 0.821687279 1.000000000 0.965140213
v 0.781250000 1.000000000 0.909992459
v 0.781250000 0.982354045 0.900560498
v 0.868750095 0.923602462 0.988488436
v 0.847248370 1.000000000 1.000000000
v 0.868750095 0.945139125 1.000000000
v 0.781250000 0.909351349 0.840648651
v 0.868750095 0.834574759 0.915425301
v 0.781250000 0.849439502 0.767645955
v 0.868750095 0.761511624 0.826397538
v 0.781250000 0.804921091 0.684357762
v 0.868750095 0.707220793 0.724826455
v 0.781250000 0.777506709 0.593984723
v 0.868750095 0.673788667 0.614615560
v 0.781250000 0.768249989 0.500000000
v 0.868750095 0.662499964 0.500000000
v 0.781250000 0.777506709 0.406015277
v 0.868750095 0.673788667 0.385384440
v 0.781250000 0.804921091 0.315642238
v 0.868750095 0.707220793 0.275173545
v 0.781250000 0.849439502 0.232354045
v 0.868750095 0.761511624 0.173602462
v 0.781250000 0.909351349 0.159351349
v 0.868750095 0.834574759 0.084574699
v 0.781250000 0.982354045 0.099439502
v 0.868750095 0.923602462 0.011511564
v 0.817308869 1.000000000 0.040831042
v 0.781250000 1.000000000 0.090007541
v 0.847248386 1.000000000 0.000000000
v 0.868750095 0.945139125 0.000000000
v 0.937697075 0.945139125 1.000000000
v 0.956250191 0.923602462 0.988488436
v 0.956250191 0.945139125 1.000000000
v 0.956250191 0.834574759 0.915425301
v 0.956250191 0.761511624 0.826397538
v 0.956250191 0.707220793 0.724826455
v 0.956250191 0.673788667 0.614615560
v 0.956250191 0.662499964 0.500000000
v 0.956250191 0.673788667 0.385384440
v 0.956250191 0.707220793 0.275173545
v 0.956250191 0.761511624 0.173602462
v 0.956250191 0.834574759 0.084574699
v 0.956250191 0.923602462 0.011511564
v 0.887303211 0.945139125 0.000000000
v 0.956250191 0.945139125 0.000000000
v 1.000000000 0.945139125 1.000000000
v 1.000000000 0.923602462 0.988488436
v 1.000000000 0.921328041 0.986621867
v 1.000000000 0.834574759 0.915425301
v 1.000000000 0.832708191 0.913150878
v 1.000000000 0.761511624 0.826397538
v 1.000000000 0.760124638 0.823802668
v 1.000000000 0.707220793 0.724826455
v 1.000000000 0.706366691 0.722010860
v 1.000000000 0.673788667 0.614615560
v 1.000000000 0.673500270 0.611687437
v 1.000000000 0.662499964 0.500000000
v 1.000000000 0.662788361 0.497071878
v 1.000000000 0.673788667 0.385384440
v 1.000000000 0.674642768 0.382568846
v 1.000000000 0.707220793 0.275173545
v 1.000000000 0.708607779 0.272578674
v 1.000000000 0.761511624 0.173602462
v 1.000000000 0.763378192 0.171328040
v 1.000000000 0.834574759 0.084574699
v 1.000000000 0.836849180 0.082708131
v 1.000000000 0.923602462 0.011511564
v 1.000000000 0.945139125 0.000000000
v 1.000000000 0.926197332 0.010124580
v 0.781250000 1.000000000 0.098781808
v 0.781250000 1.000000000 0.901218192
v 0.781250000 1.000000000 0.121803430
v 0.781250000 1.000000000 0.878196570
v 0.781250000 1.000000000 0.268249989
v 0.781250000 1.000000000 0.731750011
v 0.881356208 0.896156365 1.000000000
v 0.862500191 0.896156365 1.000000000
v 0.862500191 0.815880597 0.934119344
v 1.000000000 0.815880597 0.934119344
v 1.000000000 0.896156365 1.000000000
v 0.862500191 0.739529669 0.841085434
v 1.000000000 0.739529669 0.841085434
v 0.862500191 0.682795703 0.734943748
v 1.000000000 0.682795703 0.734943748
v 0.862500191 0.647859097 0.619773269
v 1.000000000 0.647859097 0.619773269
v 0.862500191 0.636062503 0.500000000
v 1.000000000 0.636062503 0.500000000
v 0.862500191 0.647859097 0.380226731
v 1.000000000 0.647859097 0.380226731
v 0.862500191 0.682795703 0.265056252
v 1.000000000 0.682795703 0.265056252
v 0.862500191 0.739529669 0.158914566
v 1.000000000 0.739529669 0.158914566
v 0.862500191 0.815880597 0.065880656
v 1.000000000 0.815880597 0.065880656
v 0.981144075 0.896156428 0.000000000
v 0.862500191 0.896156428 0.000000000
v 1.000000000 0.896156428 0.000000000
v 0.862500191 0.914477941 0.000000000
v 0.862500191 0.914477985 1.000000000
v 0.862500191 0.974930563 0.000000000
v 0.862500191 0.974930668 1.000000000
v 0.862500191 1.000000000 0.136062503
v 0.862500191 1.000000000 0.000000000
v 0.862500191 1.000000000 1.000000000
v 0.862500191 1.000000000 0.863937426
v 1.000000000 0.898444179 1.000000000
v 1.000000000 0.898444235 0.000000000
v 1.000000000 0.901918475 1.000000000
v 1.000000000 0.977362144 0.000000000
v 1.000000000 1.000000000 0.855066301
v 1.000000000 1.000000000 1.000000000
v 1.000000000 1.000000000 0.000000000
v 1.000000000 1.000000000 0.092757214
v 0.857499838 0.952978253 0.090475559
v 0.857499838 0.983289123 0.072975636
v 0.829499841 0.983289123 0.072975636
v 0.829499841 0.952978253 0.090475559
v 0.857499838 0.983289123 0.037975550
v 0.829499841 0.983289123 0.037975550
v 0.857499838 0.952978253 0.020475626
v 0.829499841 0.952978253 0.020475626
v 0.857499838 0.922667384 0.037975550
v 0.829499841 0.922667384 0.037975550
v 0.857499838 0.922667384 0.072975636
v 0.829499841 0.922667384 0.072975636
v 0.857499838 0.805475593 0.237978220
v 0.857499838 0.835786462 0.220478296
v 0.829499841 0.835786462 0.220478296
v 0.829499841 0.805475593 0.237978220
v 0.857499838 0.835786462 0.185478210
v 0.829499841 0.835786462 0.185478210
v 0.857499838 0.805475593 0.167978287
v 0.829499841 0.805475593 0.167978287
v 0.857499838 0.775164723 0.185478210
v 0.829499841 0.775164723 0.185478210
v 0.857499838 0.775164723 0.220478296
v 0.829499841 0.775164723 0.220478296
v 0.857499838 0.725647688 0.430699825
v 0.857499838 0.755958557 0.413199902
v 0.829499841 0.755958557 0.413199902
v 0.829499841 0.725647688 0.430699825
v 0.857499838 0.755958557 0.378199816
v 0.829499841 0.755958557 0.378199816
v 0.857499838 0.725647688 0.360699892
v 0.829499841 0.725647688 0.360699892
v 0.857499838 0.695336819 0.378199816
v 0.829499841 0.695336819 0.378199816
v 0.857499838 0.695336819 0.413199902
v 0.829499841 0.695336819 0.413199902
v 0.857499838 0.725647688 0.639300108
v 0.857499838 0.755958557 0.621800184
v 0.829499841 0.755958557 0.621800184
v 0.829499841 0.725647688 0.639300108
v 0.857499838 0.755958557 0.586800098
v 0.829499841 0.755958557 0.586800098
v 0.857499838 0.725647688 0.569300175
v 0.829499841 0.725647688 0.569300175
v 0.857499838 0.695336819 0.586800098
v 0.829499841 0.695336819 0.586800098
v 0.857499838 0.695336819 0.621800184
v 0.829499841 0.695336819 0.621800184
v 0.857499838 0.805475593 0.832021713
v 0.857499838 0.835786462 0.814521790
v 0.829499841 0.835786462 0.814521790
v 0.829499841 0.805475593 0.832021713
v 0.857499838 0.835786462 0.779521704
v 0.829499841 0.835786462 0.779521704
v 0.857499838 0.805475593 0.762021780
v 0.829499841 0.805475593 0.762021780
v 0.857499838 0.775164723 0.779521704
v 0.829499841 0.775164723 0.779521704
v 0.857499838 0.775164723 0.814521790
v 0.829499841 0.775164723 0.814521790
v 0.857499838 0.952978253 0.979524374
v 0.857499838 0.983289123 0.962024450
v 0.829499841 0.983289123 0.962024450
v 0.829499841 0.952978253 0.979524374
v 0.857499838 0.983289123 0.927024364
v 0.829499841 0.983289123 0.927024364
v 0.857499838 0.952978253 0.909524441
v 0.829499841 0.952978253 0.909524441
v 0.857499838 0.922667384 0.927024364
v 0.829499841 0.922667384 0.927024364
v 0.857499838 0.922667384 0.962024450
v 0.829499841 0.922667384 0.962024450
v 0.883749902 0.327499986 0.685699940
v 0.898749888 0.327499986 0.670700073
v 0.898749888 0.312500000 0.685699940
v 0.883749902 0.422500014 0.685699940
v 0.898749888 0.437500000 0.685699940
v 0.898749888 0.422500014 0.670700073
v 0.889460243 0.321789645 1.000000000
v 0.883749902 0.327499986 1.000000000
v 0.898749888 0.312500000 1.000000000
v 1.000000000 0.324507375 0.673692660
v 1.000000000 0.312500000 0.685699940
v 1.000000000 0.327499986 0.670700073
v 0.893039547 0.431789659 1.000000000
v 0.898749888 0.437500000 1.000000000
v 0.883749902 0.422500014 1.000000000
v 1.000000000 0.434507389 0.682707353
v 1.000000000 0.422500014 0.670700073
v 1.000000000 0.437500000 0.685699940
v 1.000000000 0.312500000 1.000000000
v 0.883749902 0.386334478 1.000000000
v 1.000000000 0.403546790 0.670700073
v 1.000000000 0.437500000 1.000000000
v 0.952500224 0.444999993 0.939450026
v 0.971250236 0.444999993 0.971925974
v 0.971250236 0.487500012 0.971925974
v 0.952500224 0.487500012 0.939450026
v 1.000000000 0.477583104 0.971925974
v 1.000000000 0.444999993 0.971925974
v 1.000000000 0.487500012 0.971925974
v 1.000000000 0.454916900 0.906974077
v 1.000000000 0.444999993 0.906974077
v 0.971250236 0.444999993 0.906974077
v 0.971250236 0.487500012 0.906974077
v 1.000000000 0.487500012 0.906974077
v 1.000000000 0.444999993 0.912026009
v 1.000000000 0.444999993 0.966874042
v 1.000000000 0.487500012 0.955327303
v 1.000000000 0.487500012 0.923572748
v 0.898749888 0.327499986 0.329299927
v 0.883749902 0.327499986 0.314300060
v 0.898749888 0.312500000 0.314300060
v 0.883749902 0.422500014 0.314300060
v 0.898749888 0.422500014 0.329299927
v 0.898749888 0.437500000 0.314300060
v 1.000000000 0.315492611 0.317292647
v 1.000000000 0.312500000 0.314300060
v 1.000000000 0.327499986 0.329299927
v 0.893039548 0.318210340 0.000000000
v 0.883749902 0.327499986 0.000000000
v 0.898749888 0.312500000 0.000000000
v 0.889460242 0.428210354 0.000000000
v 0.898749888 0.437500000 0.000000000
v 0.883749902 0.422500014 0.000000000
v 1.000000000 0.425492625 0.326307340
v 1.000000000 0.422500014 0.329299927
v 1.000000000 0.437500000 0.314300060
v 1.000000000 0.346453210 0.329299927
v 1.000000000 0.312500000 0.000000000
v 1.000000000 0.312500000 0.213049948
v 0.883749902 0.363665516 0.000000000
v 1.000000000 0.437500000 0.213049948
v 1.000000000 0.437500000 0.000000000
v 0.952500224 0.444999993 0.060549974
v 0.971250236 0.444999993 0.093025923
v 0.971250236 0.487500012 0.093025923
v 0.952500224 0.487500012 0.060549974
v 1.000000000 0.477583104 0.093025923
v 1.000000000 0.444999993 0.093025923
v 1.000000000 0.487500012 0.093025923
v 1.000000000 0.454916900 0.028074026
v 1.000000000 0.444999993 0.028074026
v 0.971250236 0.444999993 0.028074026
v 0.971250236 0.487500012 0.028074026
v 1.000000000 0.487500012 0.028074026
v 1.000000000 0.444999993 0.033125958
v 1.000000000 0.444999993 0.087973991
v 1.000000000 0.487500012 0.076427252
v 1.000000000 0.487500012 0.044672697
v 0.591924751 0.053075218 0.000000000
v 0.583075201 0.061924777 1.000000000
v 0.579999983 0.064999998 1.000000000
v 0.579999983 0.064999998 0.000000000
v 0.594999969 0.049999997 0.000000000
v 0.594999969 0.049999997 1.000000000
v 0.851924741 0.061924776 0.000000000
v 0.843075191 0.053075217 1.000000000
v 0.839999974 0.049999997 1.000000000
v 0.839999974 0.049999997 0.000000000
v 0.854999959 0.064999998 0.000000000
v 0.854999959 0.064999998 1.000000000
v 0.583075202 0.288075221 0.000000000
v 0.591924752 0.296924789 1.000000000
v 0.594999969 0.300000012 1.000000000
v 0.594999969 0.300000012 0.000000000
v 0.579999983 0.284999996 0.000000000
v 0.579999983 0.284999996 1.000000000
v 0.843075192 0.296924787 0.000000000
v 0.851924742 0.288075220 1.000000000
v 0.854999959 0.284999996 1.000000000
v 0.854999959 0.284999996 0.000000000
v 0.839999974 0.300000012 0.000000000
v 0.839999974 0.300000012 1.000000000
v 0.789771359 0.049999997 0.000000000
v 0.645228567 0.049999997 1.000000000
v 0.579999983 0.239896767 1.000000000
v 0.579999983 0.110103243 0.000000000
v 0.854999959 0.239896751 0.000000000
v 0.854999959 0.110103227 1.000000000
v 0.789771359 0.300000012 0.000000000
v 0.645228567 0.300000012 1.000000000
v 0.283543398 0.215206704 0.000000000
v 0.277706812 0.221043283 1.000000000
v 0.275000095 0.223749995 1.000000000
v 0.275000095 0.223749995 0.000000000
v 0.286250114 0.212499991 0.000000000
v 0.286250114 0.212499991 1.000000000
v 0.277706812 0.266456696 0.000000000
v 0.283543398 0.272293267 1.000000000
v 0.286250114 0.274999976 1.000000000
v 0.286250114 0.274999976 0.000000000
v 0.275000095 0.263749987 0.000000000
v 0.275000095 0.263749987 1.000000000
v 1.000000000 0.212499991 0.000000000
v 1.000000000 0.212499991 1.000000000
v 0.275000095 0.254126125 1.000000000
v 0.275000095 0.233373858 0.000000000
v 1.000000000 0.274999976 1.000000000
v 1.000000000 0.274999976 0.000000000
vt 0.641109674 0.037566490
vt 0.646609776 0.037566491
vt 0.647550464 0.035806589
vt 0.638781071 0.029947054
vt 0.637632985 0.037566488
vt 0.637632983 0.032094992
vt 0.653525710 0.028525734
vt 0.646067977 0.021067966
vt 0.660806596 0.022550484
vt 0.654947042 0.013781083
vt 0.669113278 0.018110484
vt 0.665077150 0.008366440
vt 0.678126514 0.015376334
vt 0.676068902 0.005032115
vt 0.687500000 0.014453128
vt 0.687500000 0.003906250
vt 0.696873486 0.015376334
vt 0.698931098 0.005032115
vt 0.705886722 0.018110484
vt 0.709922850 0.008366440
vt 0.714193404 0.022550484
vt 0.720052958 0.013781083
vt 0.721474290 0.028525734
vt 0.728932023 0.021067966
vt 0.727449536 0.035806589
vt 0.736218929 0.029947054
vt 0.733294775 0.037566489
vt 0.728390224 0.037566491
vt 0.737367008 0.037566488
vt 0.737367017 0.032094992
vt 0.637795277 0.032094992
vt 0.633877814 0.032094992
vt 0.633877814 0.029947054
vt 0.638849437 0.029947054
vt 0.638849437 0.032094992
vt 0.633877814 0.021067966
vt 0.638849437 0.021067966
vt 0.633877814 0.021067962
vt 0.633877814 0.029947056
vt 0.638849437 0.029947056
vt 0.638849437 0.021067962
vt 0.633877814 0.040077142
vt 0.638849437 0.040077142
vt 0.633877814 0.051068924
vt 0.638849437 0.051068924
vt 0.633877814 0.062500000
vt 0.638849437 0.062500000
vt 0.633877814 0.073931076
vt 0.638849437 0.073931076
vt 0.633877814 0.084922858
vt 0.638849437 0.084922858
vt 0.633877814 0.095052943
vt 0.638849437 0.095052943
vt 0.633877814 0.103932038
vt 0.638849437 0.103932038
vt 0.634931974 0.032094992
vt 0.641335222 0.032094992
vt 0.641335222 0.029947054
vt 0.641335222 0.029720217
vt 0.641335222 0.021067966
vt 0.641335222 0.021294799
vt 0.641335222 0.029947056
vt 0.641335222 0.021067962
vt 0.641335222 0.030205852
vt 0.641335222 0.040077142
vt 0.641335222 0.040357953
vt 0.641335222 0.051068924
vt 0.641335222 0.051360958
vt 0.641335222 0.062500000
vt 0.641335222 0.062792034
vt 0.641335222 0.073931076
vt 0.641335222 0.074211886
vt 0.641335222 0.084922858
vt 0.641335222 0.085181654
vt 0.641335222 0.095052943
vt 0.641335222 0.095279780
vt 0.641335222 0.103932038
vt 0.641335222 0.021294803
vt 0.641335222 0.030205851
vt 0.727515134 0.037566490
vt 0.647484866 0.037566490
vt 0.725219092 0.037566490
vt 0.649780908 0.037566490
vt 0.710613371 0.037566492
vt 0.664386629 0.037566492
vt 0.644976742 0.028729422
vt 0.628906250 0.028729422
vt 0.628906250 0.021067960
vt 0.746093750 0.021067960
vt 0.746093750 0.028729422
vt 0.628906250 0.021067962
vt 0.628906250 0.029947054
vt 0.746093750 0.029947054
vt 0.746093750 0.021067962
vt 0.628906250 0.040077142
vt 0.746093750 0.040077142
vt 0.628906250 0.051068928
vt 0.746093750 0.051068928
vt 0.628906250 0.062500000
vt 0.746093750 0.062500000
vt 0.628906250 0.073931076
vt 0.746093750 0.073931076
vt 0.628906250 0.084922858
vt 0.746093750 0.084922858
vt 0.628906250 0.095052943
vt 0.746093750 0.095052943
vt 0.628906250 0.103932038
vt 0.746093750 0.103932038
vt 0.730023337 0.028729428
vt 0.628906250 0.028729428
vt 0.746093750 0.028729428
vt 0.735219645 0.030478022
vt 0.735219645 0.028729428
vt 0.728932023 0.021067960
vt 0.709922850 0.008366437
vt 0.698931098 0.005032114
vt 0.676068902 0.005032114
vt 0.665077150 0.008366437
vt 0.646067977 0.021067960
vt 0.639780352 0.030478026
vt 0.639780360 0.028729422
vt 0.735219630 0.036247573
vt 0.639780366 0.036247583
vt 0.722233931 0.038640181
vt 0.735219631 0.038640182
vt 0.639780364 0.038640182
vt 0.652766069 0.038640181
vt 0.639780357 0.028947769
vt 0.735219649 0.028947775
vt 0.639780357 0.029279354
vt 0.735219637 0.036479640
vt 0.653612724 0.038640185
vt 0.639780360 0.038640183
vt 0.735219635 0.038640181
vt 0.726366944 0.038640181
vt 0.937500000 0.003906250
vt 0.996093750 0.003906250
vt 0.996093750 0.121093750
vt 0.937500000 0.121093750
vt 0.966796875 0.003906250
vt 0.908203125 0.003906250
vt 0.908203125 0.121093750
vt 0.966796875 0.121093750
vt 0.878906250 0.003906250
vt 0.878906250 0.121093750
vt 0.996093750 0.062500000
vt 0.878906250 0.062500000
vt 0.742823362 0.017968748
vt 0.746093750 0.017968757
vt 0.742823422 0.003906250
vt 0.742823303 0.107031241
vt 0.742823422 0.121093750
vt 0.746093750 0.107031249
vt 0.631670269 0.054311471
vt 0.630425288 0.054311474
vt 0.628906250 0.117823415
vt 0.632176578 0.117823407
vt 0.632176615 0.048792364
vt 0.654251472 0.120441292
vt 0.654251472 0.117823407
vt 0.632176578 0.121093750
vt 0.654251461 0.121093750
vt 0.674298652 0.115740297
vt 0.674298697 0.121093750
vt 0.674298688 0.107031250
vt 0.654251484 0.115670294
vt 0.654251484 0.107031253
vt 0.632176638 0.107031256
vt 0.632176638 0.117823415
vt 0.654251496 0.118149641
vt 0.654251509 0.048792364
vt 0.674298711 0.073126072
vt 0.673792365 0.016297826
vt 0.654251496 0.089262612
vt 0.654251496 0.017968749
vt 0.632176638 0.017968750
vt 0.632176638 0.049298707
vt 0.654251496 0.049624933
vt 0.921875326 0.093749348
vt 0.921875326 0.003906250
vt 0.921875326 0.121093750
vt 0.921875326 0.031250652
vt 0.921875319 0.013021046
vt 0.921875319 0.111978954
vt 0.921875397 0.091146098
vt 0.921875397 0.033853902
vt 0.631358981 0.017968748
vt 0.631359041 0.015270711
vt 0.632176638 0.006359011
vt 0.631358981 0.107031241
vt 0.654251508 0.007973848
vt 0.654251520 0.006522126
vt 0.653596980 0.017267354
vt 0.631865350 0.078782655
vt 0.629840002 0.078782659
vt 0.632176601 0.075390063
vt 0.700701237 0.112384693
vt 0.700701311 0.121093750
vt 0.700701260 0.107031247
vt 0.653596980 0.109836818
vt 0.653596992 0.107031244
vt 0.653596992 0.035737392
vt 0.654251495 0.075390063
vt 0.654251520 0.028597002
vt 0.700701297 0.051873925
vt 0.700390046 0.016941633
vt 0.654251496 0.029577701
vt 0.632176638 0.007176598
vt 0.654251508 0.007176598
vt 0.632176638 0.075701314
vt 0.654251496 0.076027540
vt 0.009144521 0.222391858
vt 0.005824295 0.157117345
vt 0.004513831 0.157117345
vt 0.004062936 0.222391858
vt 0.010022911 0.221415182
vt 0.009230428 0.153330090
vt 0.119783288 0.221467409
vt 0.116012173 0.153532612
vt 0.114701711 0.153532609
vt 0.114701711 0.221467397
vt 0.121093750 0.221878271
vt 0.121093750 0.155125808
vt 0.096834561 0.240503989
vt 0.029956422 0.244652235
vt 0.029956426 0.246093750
vt 0.096834578 0.246093750
vt 0.096467378 0.239062479
vt 0.028532599 0.239062497
vt 0.093263786 0.244247177
vt 0.027706441 0.240399530
vt 0.028584831 0.239062479
vt 0.096669919 0.239062497
vt 0.093263784 0.245688693
vt 0.027706435 0.245989292
vt 0.093022083 0.221415170
vt 0.030634660 0.153330087
vt 0.028532599 0.217920360
vt 0.096467378 0.157079633
vt 0.096415149 0.135629341
vt 0.028330072 0.134742603
vt 0.096669919 0.217920352
vt 0.028584831 0.157079625
vt 0.028602239 0.135937488
vt 0.096737424 0.135937506
vt 0.094365335 0.221872443
vt 0.031977916 0.153637064
vt 0.114977097 0.153637064
vt 0.115769575 0.221872443
vt 0.010298298 0.221467397
vt 0.010298298 0.153532609
vt 0.004183468 0.221232407
vt 0.004340492 0.169080858
vt 0.004291314 0.169080851
vt 0.004028247 0.221232384
vt 0.004139020 0.217507427
vt 0.004200198 0.157323576
vt 0.092510245 0.230075069
vt 0.032332518 0.241018661
vt 0.032332520 0.246093750
vt 0.092510250 0.246093750
vt 0.092548073 0.224999983
vt 0.032451917 0.224999990
vt 0.017106859 0.217507427
vt 0.017168038 0.157323576
vt 0.032451921 0.206955253
vt 0.092548084 0.168044750
vt 0.092507419 0.148771899
vt 0.032323566 0.146123690
vt 0.004110648 0.217548078
vt 0.004110648 0.157451918
vt 0.017065392 0.157489455
vt 0.017065392 0.217585616
vn -0.768941585 -0.301372933 0.563829046
vn -0.768941325 -0.301372611 0.563829573
vn -0.768941831 -0.405579854 0.494199799
vn -0.768941593 -0.405579660 0.494200329
vn -0.768941432 -0.494200170 0.405580159
vn -0.768941773 -0.494200295 0.405579361
vn -0.768941473 -0.563829333 0.301372682
vn -0.768941417 -0.563829338 0.301372816
vn -0.768941493 -0.611790248 0.185584677
vn -0.768941513 -0.611790237 0.185584630
vn -0.768941534 -0.636240587 0.062664453
vn -0.768941494 -0.636240626 0.062664538
vn -0.768941490 -0.636240639 -0.062664459
vn -0.768941530 -0.636240584 -0.062664534
vn -0.768941515 -0.611790223 -0.185584669
vn -0.768941495 -0.611790258 -0.185584637
vn -0.768941411 -0.563829399 -0.301372718
vn -0.768941468 -0.563829284 -0.301372788
vn -0.768941807 -0.494199822 -0.405579873
vn -0.768941466 -0.494200581 -0.405579595
vn -0.768941570 -0.405580054 -0.494200043
vn -0.768941808 -0.405579496 -0.494200130
vn -0.768941299 -0.301373095 -0.563829350
vn -0.768941560 -0.301372478 -0.563829325
vn 0.000000000 -0.471396038 0.881921638
vn 0.000000000 -0.634393220 0.773010506
vn 0.000000000 -0.773010714 0.634392966
vn 0.000000000 -0.881921423 0.471396440
vn 0.000000000 -0.956940296 0.290284808
vn 0.000000000 -0.995184680 0.098017615
vn 0.000000000 -0.995184680 -0.098017615
vn 0.000000000 -0.956940296 -0.290284808
vn 0.000000000 -0.881921423 -0.471396440
vn 0.000000000 -0.773010714 -0.634392966
vn 0.000000000 -0.634393220 -0.773010506
vn 0.000000000 -0.471396038 -0.881921638
vn -1.000000000 0.000000000 0.000000000
vn 0.000000000 -0.634393488 0.773010286
vn 0.000000000 -0.773010573 0.634393139
vn 0.000000000 -0.881921083 0.471397076
vn 0.000000000 -0.956940280 0.290284861
vn 0.000000000 -0.995184762 0.098016781
vn 0.000000000 -0.995184762 -0.098016781
vn 0.000000000 -0.956940280 -0.290284861
vn 0.000000000 -0.881921083 -0.471397076
vn 0.000000000 -0.773010573 -0.634393139
vn 0.000000000 -0.634393192 -0.773010529
vn 1.000000000 0.000000000 0.000000000
vn 0.000000000 0.499998612 0.866026205
vn 0.000000000 1.000000000 0.000000000
vn 0.000000000 0.499998612 -0.866026205
vn 0.000000000 -0.499998612 -0.866026205
vn 0.000000000 -1.000000000 0.000000000
vn 0.000000000 -0.499998612 0.866026205
vn -0.577348740 -0.577348740 -0.577353328
vn -0.577348740 0.577348740 -0.577353328
vn -0.707106781 -0.707106781 -0.000000000
vn -0.000000000 -0.707103971 -0.707109591
vn -0.707106781 0.707106781 0.000000000
vn 0.000000000 0.707103971 -0.707109591
vn -0.707103971 0.000000000 -0.707109591
vn 0.000000000 0.000000000 -1.000000000
vn -0.866025237 0.000000000 0.500000288
vn 0.000000000 0.000000000 1.000000000
vn -0.866025237 0.000000000 -0.500000288
vn -0.577348740 -0.577348740 0.577353328
vn -0.577348740 0.577348740 0.577353328
vn 0.000000000 -0.707103971 0.707109591
vn -0.000000000 0.707103971 0.707109591
vn -0.707103971 0.000000000 0.707109591
vn -0.707107132 -0.707106430 -0.000000000
vn 0.707107132 -0.707106430 0.000000000
vn -0.707107484 0.707106079 0.000000000
vn 0.707107484 0.707106079 0.000000000
vn -0.707106313 -0.707107249 -0.000000000
vn -0.707105845 0.707107718 0.000000000
usemtl mat_0
f 1/1/1 2/2/1 3/3/1 4/4/1
f 5/5/2 1/1/2 4/4/2 6/6/2
f 3/3/3 7/7/3 8/8/3
f 3/3/4 8/8/4 4/4/4
f 7/7/5 9/9/5 10/10/5
f 7/7/6 10/10/6 8/8/6
f 9/9/7 11/11/7 12/12/7
f 9/9/8 12/12/8 10/10/8
f 11/11/9 13/13/9 14/14/9
f 11/11/10 14/14/10 12/12/10
f 13/13/11 15/15/11 16/16/11
f 13/13/12 16/16/12 14/14/12
f 15/15/13 17/17/13 18/18/13
f 15/15/14 18/18/14 16/16/14
f 17/17/15 19/19/15 20/20/15
f 17/17/16 20/20/16 18/18/16
f 19/19/17 21/21/17 22/22/17
f 19/19/18 22/22/18 20/20/18
f 21/21/19 23/23/19 24/24/19
f 21/21/20 24/24/20 22/22/20
f 23/23/21 25/25/21 26/26/21
f 23/23/22 26/26/22 24/24/22
f 27/27/23 25/25/23 28/28/23
f 25/25/24 27/27/24 29/29/24
f 25/25/24 29/29/24 30/30/24
f 25/25/24 30/30/24 26/26/24
f 31/31/25 6/32/25 4/33/25 32/34/25
f 31/31/25 32/34/25 33/35/25
f 4/33/26 8/36/26 34/37/26
f 4/33/26 34/37/26 32/34/26
f 8/38/27 10/39/27 35/40/27
f 8/38/27 35/40/27 34/41/27
f 10/39/28 12/42/28 36/43/28
f 10/39/28 36/43/28 35/40/28
f 12/42/29 14/44/29 37/45/29
f 12/42/29 37/45/29 36/43/29
f 14/44/30 16/46/30 38/47/30
f 14/44/30 38/47/30 37/45/30
f 16/46/31 18/48/31 39/49/31
f 16/46/31 39/49/31 38/47/31
f 18/48/32 20/50/32 40/51/32
f 18/48/32 40/51/32 39/49/32
f 20/50/33 22/52/33 41/53/33
f 20/50/33 41/53/33 40/51/33
f 22/52/34 24/54/34 42/55/34
f 22/52/34 42/55/34 41/53/34
f 24/36/35 26/33/35 43/34/35
f 24/36/35 43/34/35 42/37/35
f 44/56/36 26/33/36 30/32/36
f 26/33/36 44/56/36 45/35/36 43/34/36
f 46/57/25 33/35/25 32/34/25 47/58/25
f 48/59/26 32/34/26 34/37/26 49/60/26
f 47/58/26 32/34/26 48/59/26
f 50/61/27 34/41/27 35/40/27 51/62/27
f 49/63/27 34/41/27 50/61/27
f 52/64/28 35/40/28 36/43/28 53/65/28
f 51/62/28 35/40/28 52/64/28
f 54/66/29 36/43/29 37/45/29 55/67/29
f 53/65/29 36/43/29 54/66/29
f 56/68/30 37/45/30 38/47/30 57/69/30
f 55/67/30 37/45/30 56/68/30
f 58/70/31 38/47/31 39/49/31 59/71/31
f 57/69/31 38/47/31 58/70/31
f 60/72/32 39/49/32 40/51/32 61/73/32
f 59/71/32 39/49/32 60/72/32
f 62/74/33 40/51/33 41/53/33 63/75/33
f 61/73/33 40/51/33 62/74/33
f 64/76/34 41/53/34 42/55/34 65/77/34
f 63/75/34 41/53/34 64/76/34
f 66/78/35 42/37/35 43/34/35 67/58/35
f 65/60/35 42/37/35 66/78/35
f 68/57/36 69/79/36 43/34/36 45/35/36
f 67/58/36 43/34/36 69/79/36
f 70/80/37 28/28/37 25/25/37 23/23/37
f 23/23/37 21/21/37 19/19/37
f 19/19/37 17/17/37 15/15/37
f 15/15/37 13/13/37 11/11/37
f 11/11/37 9/9/37 7/7/37
f 71/81/37 7/7/37 3/3/37 2/2/37
f 72/82/37 70/80/37 23/23/37
f 23/23/37 19/19/37 15/15/37
f 15/15/37 11/11/37 7/7/37
f 73/83/37 7/7/37 71/81/37
f 74/84/37 72/82/37 23/23/37 15/15/37
f 75/85/37 15/15/37 7/7/37 73/83/37
f 74/84/37 15/15/37 75/85/37
f 76/86/38 77/87/38 78/88/38 79/89/38
f 76/86/38 79/89/38 80/90/38
f 78/91/39 81/92/39 82/93/39
f 78/91/39 82/93/39 79/94/39
f 81/92/40 83/95/40 84/96/40
f 81/92/40 84/96/40 82/93/40
f 83/95/41 85/97/41 86/98/41
f 83/95/41 86/98/41 84/96/41
f 85/97/42 87/99/42 88/100/42
f 85/97/42 88/100/42 86/98/42
f 87/99/43 89/101/43 90/102/43
f 87/99/43 90/102/43 88/100/43
f 89/101/44 91/103/44 92/104/44
f 89/101/44 92/104/44 90/102/44
f 91/103/45 93/105/45 94/106/45
f 91/103/45 94/106/45 92/104/45
f 93/105/46 95/107/46 96/108/46
f 93/105/46 96/108/46 94/106/46
f 97/109/47 95/88/47 98/110/47
f 95/88/47 97/109/47 99/111/47 96/89/47
f 100/112/37 98/113/37 95/114/37
f 95/114/37 93/22/37 91/115/37
f 91/115/37 89/116/37 87/16/37
f 87/16/37 85/117/37 83/118/37
f 83/118/37 81/10/37 78/119/37
f 101/120/37 78/119/37 77/121/37
f 102/122/37 100/112/37 95/114/37
f 95/114/37 91/115/37 87/16/37
f 87/16/37 83/118/37 78/119/37
f 103/123/37 78/119/37 101/120/37
f 104/124/37 105/125/37 102/122/37
f 104/124/37 102/122/37 95/114/37
f 104/124/37 95/114/37 87/16/37
f 106/126/37 107/127/37 87/16/37
f 106/126/37 87/16/37 78/119/37
f 106/126/37 78/119/37 103/123/37
f 104/124/37 87/16/37 107/127/37
f 108/128/48 80/121/48 79/119/48 82/10/48
f 82/10/48 84/118/48 86/117/48
f 86/117/48 88/16/48 90/116/48
f 90/116/48 92/115/48 94/22/48
f 109/129/48 94/22/48 96/114/48 99/113/48
f 110/130/48 108/128/48 82/10/48 86/117/48
f 86/117/48 90/116/48 94/22/48
f 111/131/48 94/22/48 109/129/48
f 112/132/48 113/133/48 110/130/48 86/117/48
f 114/134/48 115/135/48 86/117/48
f 114/134/48 86/117/48 94/22/48
f 114/134/48 94/22/48 111/131/48
f 112/132/48 86/117/48 115/135/48
usemtl mat_1
f 116/136/49 117/137/49 118/138/49
f 116/136/49 118/138/49 119/139/49
f 117/140/50 120/141/50 121/142/50
f 117/140/50 121/142/50 118/143/50
f 120/137/51 122/136/51 123/139/51
f 120/137/51 123/139/51 121/138/51
f 122/136/52 124/144/52 125/145/52
f 122/136/52 125/145/52 123/139/52
f 124/141/53 126/140/53 127/143/53
f 124/141/53 127/143/53 125/142/53
f 126/144/54 116/136/54 119/139/54
f 126/144/54 119/139/54 127/145/54
f 116/146/48 126/140/48 124/141/48
f 124/141/48 122/147/48 120/142/48
f 120/142/48 117/143/48 116/146/48
f 124/141/48 120/142/48 116/146/48
f 127/140/37 119/146/37 118/143/37
f 118/143/37 121/142/37 123/147/37
f 123/147/37 125/141/37 127/140/37
f 118/143/37 123/147/37 127/140/37
f 128/136/49 129/137/49 130/138/49
f 128/136/49 130/138/49 131/139/49
f 129/140/50 132/141/50 133/142/50
f 129/140/50 133/142/50 130/143/50
f 132/137/51 134/136/51 135/139/51
f 132/137/51 135/139/51 133/138/51
f 134/136/52 136/144/52 137/145/52
f 134/136/52 137/145/52 135/139/52
f 136/141/53 138/140/53 139/143/53
f 136/141/53 139/143/53 137/142/53
f 138/144/54 128/136/54 131/139/54
f 138/144/54 131/139/54 139/145/54
f 128/146/48 138/140/48 136/141/48
f 136/141/48 134/147/48 132/142/48
f 132/142/48 129/143/48 128/146/48
f 136/141/48 132/142/48 128/146/48
f 139/140/37 131/146/37 130/143/37
f 130/143/37 133/142/37 135/147/37
f 135/147/37 137/141/37 139/140/37
f 130/143/37 135/147/37 139/140/37
f 140/136/49 141/137/49 142/138/49
f 140/136/49 142/138/49 143/139/49
f 141/140/50 144/141/50 145/142/50
f 141/140/50 145/142/50 142/143/50
f 144/137/51 146/136/51 147/139/51
f 144/137/51 147/139/51 145/138/51
f 146/136/52 148/144/52 149/145/52
f 146/136/52 149/145/52 147/139/52
f 148/141/53 150/140/53 151/143/53
f 148/141/53 151/143/53 149/142/53
f 150/144/54 140/136/54 143/139/54
f 150/144/54 143/139/54 151/145/54
f 140/146/48 150/140/48 148/141/48
f 148/141/48 146/147/48 144/142/48
f 144/142/48 141/143/48 140/146/48
f 148/141/48 144/142/48 140/146/48
f 151/140/37 143/146/37 142/143/37
f 142/143/37 145/142/37 147/147/37
f 147/147/37 149/141/37 151/140/37
f 142/143/37 147/147/37 151/140/37
f 152/136/49 153/137/49 154/138/49
f 152/136/49 154/138/49 155/139/49
f 153/140/50 156/141/50 157/142/50
f 153/140/50 157/142/50 154/143/50
f 156/137/51 158/136/51 159/139/51
f 156/137/51 159/139/51 157/138/51
f 158/136/52 160/144/52 161/145/52
f 158/136/52 161/145/52 159/139/52
f 160/141/53 162/140/53 163/143/53
f 160/141/53 163/143/53 161/142/53
f 162/144/54 152/136/54 155/139/54
f 162/144/54 155/139/54 163/145/54
f 152/146/48 162/140/48 160/141/48
f 160/141/48 158/147/48 156/142/48
f 156/142/48 153/143/48 152/146/48
f 160/141/48 156/142/48 152/146/48
f 163/140/37 155/146/37 154/143/37
f 154/143/37 157/142/37 159/147/37
f 159/147/37 161/141/37 163/140/37
f 154/143/37 159/147/37 163/140/37
f 164/136/49 165/137/49 166/138/49
f 164/136/49 166/138/49 167/139/49
f 165/140/50 168/141/50 169/142/50
f 165/140/50 169/142/50 166/143/50
f 168/137/51 170/136/51 171/139/51
f 168/137/51 171/139/51 169/138/51
f 170/136/52 172/144/52 173/145/52
f 170/136/52 173/145/52 171/139/52
f 172/141/53 174/140/53 175/143/53
f 172/141/53 175/143/53 173/142/53
f 174/144/54 164/136/54 167/139/54
f 174/144/54 167/139/54 175/145/54
f 164/146/48 174/140/48 172/141/48
f 172/141/48 170/147/48 168/142/48
f 168/142/48 165/143/48 164/146/48
f 172/141/48 168/142/48 164/146/48
f 175/140/37 167/146/37 166/143/37
f 166/143/37 169/142/37 171/147/37
f 171/147/37 173/141/37 175/140/37
f 166/143/37 171/147/37 175/140/37
f 176/136/49 177/137/49 178/138/49
f 176/136/49 178/138/49 179/139/49
f 177/140/50 180/141/50 181/142/50
f 177/140/50 181/142/50 178/143/50
f 180/137/51 182/136/51 183/139/51
f 180/137/51 183/139/51 181/138/51
f 182/136/52 184/144/52 185/145/52
f 182/136/52 185/145/52 183/139/52
f 184/141/53 186/140/53 187/143/53
f 184/141/53 187/143/53 185/142/53
f 186/144/54 176/136/54 179/139/54
f 186/144/54 179/139/54 187/145/54
f 176/146/48 186/140/48 184/141/48
f 184/141/48 182/147/48 180/142/48
f 180/142/48 177/143/48 176/146/48
f 184/141/48 180/142/48 176/146/48
f 187/140/37 179/146/37 178/143/37
f 178/143/37 181/142/37 183/147/37
f 183/147/37 185/141/37 187/140/37
f 178/143/37 183/147/37 187/140/37
usemtl mat_0
f 188/148/55 189/149/55 190/150/55
f 191/151/56 192/152/56 193/153/56
f 194/154/57 195/155/57 188/156/57 190/157/57
f 194/154/57 190/157/57 196/158/57
f 197/159/58 198/160/58 190/157/58 189/161/58
f 197/159/58 189/161/58 199/162/58
f 200/163/59 201/164/59 192/152/59 191/151/59
f 200/163/59 191/151/59 202/165/59
f 203/166/60 204/167/60 193/168/60 192/169/60
f 203/166/60 192/169/60 205/170/60
f 188/148/61 191/151/61 193/153/61
f 188/148/61 193/153/61 189/149/61
f 206/171/53 196/158/53 190/157/53 198/160/53
f 207/172/37 188/148/37 195/173/37
f 188/148/37 207/172/37 202/165/37 191/151/37
f 208/174/62 199/175/62 189/176/62 193/168/62
f 208/174/62 193/168/62 204/167/62
f 201/177/50 209/178/50 205/170/50 192/169/50
usemtl mat_1
f 210/136/63 211/137/63 212/138/63
f 210/136/63 212/138/63 213/139/63
f 214/179/64 211/140/64 215/180/64
f 211/140/64 214/179/64 216/181/64 212/143/64
f 217/182/62 218/180/62 219/140/62 220/143/62
f 217/182/62 220/143/62 221/181/62
f 219/144/65 210/136/65 213/139/65
f 219/144/65 213/139/65 220/145/65
f 222/183/53 210/146/53 219/140/53 218/180/53
f 223/184/53 215/181/53 211/143/53 210/146/53
f 222/183/53 223/184/53 210/146/53
f 220/140/50 213/146/50 212/143/50
f 224/185/50 212/143/50 216/181/50
f 225/186/50 221/180/50 220/140/50
f 212/143/50 224/185/50 225/186/50 220/140/50
usemtl mat_0
f 226/187/66 227/188/66 228/189/66
f 229/168/67 230/190/67 231/161/67
f 232/191/68 228/189/68 233/192/68
f 228/189/68 232/191/68 234/193/68 226/187/68
f 235/194/57 227/188/57 236/195/57
f 227/188/57 235/194/57 237/196/57 228/189/57
f 238/197/59 231/161/59 239/198/59
f 231/161/59 238/197/59 240/199/59 229/168/59
f 241/200/69 230/190/69 242/201/69
f 230/190/69 241/200/69 243/162/69 231/161/69
f 226/187/70 230/190/70 229/168/70
f 226/187/70 229/168/70 227/188/70
f 244/202/64 226/187/64 234/193/64
f 226/187/64 244/202/64 242/201/64 230/190/64
f 245/203/53 246/204/53 228/189/53 237/196/53
f 233/192/53 228/189/53 246/204/53
f 247/205/37 236/206/37 227/188/37 229/168/37
f 247/205/37 229/168/37 240/199/37
f 248/207/50 231/208/50 243/209/50
f 239/210/50 231/208/50 248/207/50 249/211/50
usemtl mat_1
f 250/136/63 251/137/63 252/138/63
f 250/136/63 252/138/63 253/139/63
f 254/179/64 251/140/64 255/180/64
f 251/140/64 254/179/64 256/181/64 252/143/64
f 257/182/62 258/180/62 259/140/62 260/143/62
f 257/182/62 260/143/62 261/181/62
f 259/144/65 250/136/65 253/139/65
f 259/144/65 253/139/65 260/145/65
f 262/183/53 250/146/53 259/140/53 258/180/53
f 263/184/53 255/181/53 251/143/53 250/146/53
f 262/183/53 263/184/53 250/146/53
f 260/140/50 253/146/50 252/143/50
f 264/185/50 252/143/50 256/181/50
f 265/186/50 261/180/50 260/140/50
f 252/143/50 264/185/50 265/186/50 260/140/50
usemtl mat_2
f 266/212/71 267/213/71 268/214/71 269/215/71
f 267/213/71 266/212/71 270/216/71 271/217/71
f 272/218/72 273/219/72 274/220/72 275/221/72
f 273/219/72 272/218/72 276/222/72 277/223/72
f 278/224/73 279/225/73 280/226/73 281/227/73
f 279/225/73 278/224/73 282/228/73 283/229/73
f 284/230/74 285/231/74 286/232/74 287/233/74
f 285/231/74 284/230/74 288/234/74 289/235/74
f 290/236/53 291/237/53 271/217/53 270/216/53
f 291/237/53 290/236/53 275/221/53 274/220/53
f 292/238/37 293/239/37 269/240/37 268/241/37
f 293/239/37 292/238/37 283/229/37 282/228/37
f 294/242/48 295/243/48 277/244/48 276/245/48
f 295/243/48 294/242/48 287/233/48 286/232/48
f 296/246/50 297/247/50 289/248/50 288/249/50
f 281/250/50 280/251/50 297/247/50 296/246/50
f 298/252/75 299/253/75 300/254/75 301/255/75
f 299/253/75 298/252/75 302/256/75 303/257/75
f 304/258/76 305/259/76 306/260/76 307/261/76
f 305/259/76 304/258/76 308/262/76 309/263/76
f 310/264/53 311/265/53 303/257/53 302/256/53
f 312/266/37 313/267/37 301/268/37 300/269/37
f 313/267/37 312/266/37 309/263/37 308/262/37
f 307/270/50 306/271/50 314/272/50 315/273/50
