# Authored in Blender; exported by tools-export-modern.py
mtllib materials.mtl
s off
v 1.000000000 0.653858487 0.069751785
v 0.000000000 0.726388837 0.010227759
v 0.000000000 0.638899088 0.082028627
v 1.000000000 0.638899088 0.082028627
v 1.000000000 0.738851416 0.000000000
v 0.000000000 0.738851416 0.000000000
v 1.000000000 0.534945548 0.137593106
v 0.000000000 0.617694641 0.093362672
v 0.000000000 0.517878532 0.146715641
v 1.000000000 0.517878532 0.146715641
v 1.000000000 0.405082029 0.180932040
v 0.000000000 0.494870297 0.153695103
v 0.000000000 0.386563182 0.186549664
v 1.000000000 0.386563182 0.186549664
v 1.000000000 0.269258927 0.198103197
v 0.000000000 0.362635455 0.188906354
v 0.000000000 0.250000000 0.200000048
v 1.000000000 0.250000000 0.200000048
v 1.000000000 0.132695643 0.188446514
v 0.000000000 0.226072253 0.197643357
v 0.000000000 0.113436699 0.186549664
v 1.000000000 0.113436699 0.186549664
v 1.000000000 0.000000000 0.152139001
v 1.000000000 0.000640401 0.152333264
v 0.000000000 0.090428506 0.179570201
v 0.000000000 0.000000000 0.152139001
v 1.000000000 0.012841571 0.151065244
v 0.000000000 0.017255197 0.148816342
v 0.000000000 0.018336535 0.148265362
v 1.000000000 0.018336535 0.148265362
v 1.000000000 0.012036085 0.151475668
v 0.000000000 0.012036085 0.151475668
v 0.000000000 0.059037949 0.165845285
v 1.000000000 0.056789131 0.161431659
v 1.000000000 0.056378722 0.160626173
v 0.000000000 0.056378722 0.160626173
v 0.000000000 0.059588909 0.166926622
v 1.000000000 0.059588909 0.166926622
v 0.000000000 0.028489699 0.249236827
v 1.000000000 0.032903325 0.246987926
v 1.000000000 0.033708811 0.246577501
v 0.000000000 0.033708811 0.246577501
v 0.000000000 0.027408361 0.249787807
v 1.000000000 0.027408361 0.249787807
v 1.000000000 0.000000000 0.188518902
v 0.418887437 0.000000000 0.188518902
v 0.000000000 0.007594308 0.165146042
v 0.000000000 0.000000000 0.188518902
v 1.000000000 0.051515187 0.159045895
v 0.000000000 0.024865665 0.150386831
v 0.000000000 0.038150578 0.232907127
v 1.000000000 0.056280247 0.177109655
v 1.000000000 0.000000000 0.240882193
v 1.000000000 0.022544819 0.248207529
v 0.154026742 0.000000000 0.240882193
v 0.000000000 0.000000000 0.240882193
v 1.000000000 0.225639252 0.192486004
v 0.000000000 0.229141877 0.188983297
v 0.000000000 0.230000019 0.188125134
v 1.000000000 0.230000019 0.188125134
v 1.000000000 0.225000024 0.193125248
v 0.000000000 0.225000024 0.193125248
v 0.000000000 0.274141834 0.192267085
v 1.000000000 0.270639209 0.188764377
v 1.000000000 0.269999981 0.188125134
v 0.000000000 0.269999981 0.188125134
v 0.000000000 0.274999976 0.193125248
v 1.000000000 0.274999976 0.193125248
v 1.000000000 0.229360791 0.281235890
v 0.000000000 0.225858166 0.277733182
v 0.000000000 0.225000024 0.276875019
v 1.000000000 0.225000024 0.276875019
v 1.000000000 0.230000019 0.281875134
v 0.000000000 0.230000019 0.281875134
v 0.000000000 0.270858123 0.281016971
v 1.000000000 0.274360748 0.277514263
v 1.000000000 0.274999976 0.276875019
v 0.000000000 0.274999976 0.276875019
v 0.000000000 0.269999981 0.281875134
v 1.000000000 0.269999981 0.281875134
v 1.000000000 0.225000024 0.266167961
v 0.000000000 0.225000024 0.207499110
v 1.000000000 0.264886153 0.188125134
v 0.000000000 0.236865159 0.188125134
v 0.000000000 0.274999976 0.262501157
v 1.000000000 0.274999976 0.203832307
v 1.000000000 0.264886153 0.281875134
v 0.000000000 0.236865159 0.281875134
v 1.000000000 0.440821500 0.166121136
v 0.000000000 0.443070318 0.161707511
v 0.000000000 0.443621278 0.160626173
v 1.000000000 0.443621278 0.160626173
v 1.000000000 0.440411091 0.166926622
v 0.000000000 0.440411091 0.166926622
v 0.000000000 0.486882577 0.150924687
v 1.000000000 0.482468952 0.148675786
v 1.000000000 0.481663465 0.148265362
v 0.000000000 0.481663465 0.148265362
v 0.000000000 0.487963915 0.151475668
v 1.000000000 0.487963915 0.151475668
v 1.000000000 0.471786152 0.249377383
v 0.000000000 0.467372527 0.247128482
v 0.000000000 0.466291189 0.246577501
v 1.000000000 0.466291189 0.246577501
v 1.000000000 0.472591639 0.249787807
v 0.000000000 0.472591639 0.249787807
v 0.000000000 0.511184786 0.236345658
v 1.000000000 0.513433604 0.231932033
v 1.000000000 0.513844013 0.231126547
v 0.000000000 0.513844013 0.231126547
v 0.000000000 0.510633826 0.237426996
v 1.000000000 0.510633826 0.237426996
v 1.000000000 0.462982527 0.236394469
v 0.000000000 0.444852858 0.180596997
v 1.000000000 0.476799931 0.149845640
v 0.000000000 0.450150408 0.158504703
v 0.000000000 0.509402246 0.217456173
v 1.000000000 0.491272577 0.161658700
v 1.000000000 0.505770291 0.239007274
v 0.000000000 0.479120769 0.247666338
v 1.000000000 0.637324724 0.074551585
v 0.000000000 0.638099606 0.069659118
v 0.000000000 0.638289452 0.068460464
v 1.000000000 0.638289452 0.068460464
v 1.000000000 0.637183309 0.075444460
v 0.000000000 0.637183309 0.075444460
v 0.000000000 0.676435466 0.045865253
v 1.000000000 0.671542999 0.045090455
v 1.000000000 0.670650125 0.044949055
v 0.000000000 0.670650125 0.044949055
v 0.000000000 0.677634120 0.046055079
v 1.000000000 0.677634120 0.046055079
v 1.000000000 0.692501429 0.144164306
v 0.000000000 0.687608962 0.143389508
v 0.000000000 0.686410308 0.143199682
v 1.000000000 0.686410308 0.143199682
v 1.000000000 0.693394303 0.144305706
v 0.000000000 0.693394303 0.144305706
v 0.000000000 0.725944822 0.119595642
v 1.000000000 0.726719704 0.114703175
v 1.000000000 0.726861119 0.113810301
v 0.000000000 0.726861119 0.113810301
v 0.000000000 0.725754976 0.120794296
v 1.000000000 0.725754976 0.120794296
v 1.000000000 0.680116842 0.134537460
v 0.000000000 0.645632073 0.087073199
v 1.000000000 0.666512948 0.047954890
v 0.000000000 0.643843471 0.064425233
v 0.000000000 0.718412355 0.102181562
v 1.000000000 0.683927586 0.054717301
v 1.000000000 0.721617799 0.123800132
v 0.000000000 0.698948323 0.140270474
vt 0.471522176 0.096305130
vt 0.411038301 0.102376301
vt 0.411038301 0.095052950
vt 0.471522176 0.095052950
vt 0.471522176 0.103419484
vt 0.411038301 0.103419484
vt 0.471522176 0.086351468
vt 0.411038301 0.093278021
vt 0.411038301 0.084922865
vt 0.471522176 0.084922865
vt 0.471522176 0.075481201
vt 0.411038301 0.082996954
vt 0.411038301 0.073931076
vt 0.471522176 0.073931076
vt 0.471522176 0.064112076
vt 0.411038301 0.071928196
vt 0.411038301 0.062500000
vt 0.471522176 0.062500000
vt 0.471522176 0.052681004
vt 0.411038301 0.060497121
vt 0.411038301 0.051068928
vt 0.471522176 0.051068928
vt 0.471522176 0.041573666
vt 0.471522176 0.041627271
vt 0.411038301 0.049143018
vt 0.411038301 0.041573666
vt 0.481169950 0.009118118
vt 0.401629115 0.011991368
vt 0.401629121 0.013198133
vt 0.481169976 0.015250455
vt 0.480795402 0.008793509
vt 0.399202246 0.009888081
vt 0.399286707 0.119082483
vt 0.480808462 0.110873194
vt 0.480808462 0.109375000
vt 0.399286707 0.109375000
vt 0.399286697 0.121093756
vt 0.480808410 0.121093751
vt 0.399286697 0.110313593
vt 0.480808410 0.114144585
vt 0.480808407 0.114843741
vt 0.399286672 0.114843741
vt 0.398801371 0.110380637
vt 0.478342165 0.114485278
vt 0.480795388 0.058207193
vt 0.433380580 0.058843263
vt 0.399202241 0.028123626
vt 0.399202241 0.058843263
vt 0.481169976 0.097014906
vt 0.401629121 0.029288320
vt 0.399286677 0.096876366
vt 0.480808433 0.023540109
vt 0.480808433 0.010156251
vt 0.399286677 0.010156251
vt 0.480018006 0.043468644
vt 0.478342165 0.102499733
vt 0.411052781 0.043468645
vt 0.398801371 0.042836420
vt 0.480795402 0.120294712
vt 0.399202246 0.115916422
vt 0.399202241 0.114843741
vt 0.480795376 0.114843741
vt 0.481772491 0.121093750
vt 0.405533253 0.121093750
vt 0.398801377 0.110380637
vt 0.478342191 0.114485278
vt 0.480795376 0.101459883
vt 0.478342191 0.102499733
vt 0.398801377 0.032720828
vt 0.399286707 0.015625003
vt 0.480808462 0.015625002
vt 0.481169928 0.009118118
vt 0.401629135 0.011991368
vt 0.401629145 0.013198133
vt 0.481169980 0.015250455
vt 0.480795376 0.008793509
vt 0.399202241 0.009888081
vt 0.480795406 0.120294713
vt 0.399202271 0.115916428
vt 0.399202266 0.114843747
vt 0.480795380 0.114843742
vt 0.481169980 0.097014906
vt 0.401629145 0.029288320
vt 0.398801371 0.032720828
vn 0.000000000 0.634392689 0.773010942
vn 0.000000000 0.471397752 0.881920722
vn 0.000000000 0.290284320 0.956940444
vn 0.000000000 0.098017752 0.995184666
vn 0.000000000 -0.098017667 0.995184675
vn 0.000000000 -0.290284802 0.956940298
vn 0.000000000 -0.453998007 -0.891002699
vn 0.000000000 0.891009518 -0.453984623
vn 0.000000000 0.453998007 0.891002699
vn 0.000000000 -0.951056451 -0.309017195
vn 0.000000000 0.309020503 -0.951055376
vn 0.000000000 0.951056660 0.309016551
vn 0.000000000 -0.309020065 0.951055519
vn 0.000000000 -0.707115210 -0.707098352
vn 0.000000000 0.707115210 -0.707098352
vn 0.000000000 -0.707115210 0.707098352
vn 0.000000000 0.707115210 0.707098352
vn 0.000000000 -1.000000000 0.000000000
vn 0.000000000 0.000000000 -1.000000000
vn 0.000000000 1.000000000 0.000000000
vn 0.000000000 0.000000000 1.000000000
vn 0.000000000 -0.891009518 -0.453984623
vn 0.000000000 0.453998007 -0.891002699
vn 0.000000000 -0.453998007 0.891002699
vn 0.000000000 0.891009518 0.453984623
vn 0.000000000 -0.951056660 0.309016551
vn 0.000000000 -0.309020503 -0.951055376
vn 0.000000000 0.951056660 -0.309016551
vn -0.000000000 0.309020503 0.951055376
vn 0.000000000 -0.987688629 -0.156432642
vn 0.000000000 0.156416196 -0.987691234
vn 0.000000000 -0.156416196 0.987691234
vn 0.000000000 0.987688629 0.156432642
vn 0.000000000 -0.809017285 0.587784852
vn 0.000000000 -0.587785328 -0.809016939
vn 0.000000000 0.809017285 -0.587784852
vn -0.000000000 0.587785328 0.809016939
usemtl mat_4
f 1/1/1 2/2/1 3/3/1 4/4/1
f 5/5/1 6/6/1 2/2/1 1/1/1
f 7/7/2 8/8/2 9/9/2 10/10/2
f 4/4/2 3/3/2 8/8/2 7/7/2
f 11/11/3 12/12/3 13/13/3 14/14/3
f 10/10/3 9/9/3 12/12/3 11/11/3
f 15/15/4 16/16/4 17/17/4 18/18/4
f 14/14/4 13/13/4 16/16/4 15/15/4
f 19/19/5 20/20/5 21/21/5 22/22/5
f 18/18/5 17/17/5 20/20/5 19/19/5
f 23/23/6 24/24/6 25/25/6 26/26/6
f 22/22/6 21/21/6 25/25/6 24/24/6
f 27/27/7 28/28/7 29/29/7 30/30/7
f 28/28/7 27/27/7 31/31/7 32/32/7
f 33/33/8 34/34/8 35/35/8 36/36/8
f 34/34/8 33/33/8 37/37/8 38/38/8
f 39/39/9 40/40/9 41/41/9 42/42/9
f 40/40/9 39/39/9 43/43/9 44/44/9
f 45/45/10 46/46/10 47/47/10
f 45/45/10 47/47/10 32/32/10
f 45/45/10 32/32/10 31/31/10
f 48/48/10 47/47/10 46/46/10
f 49/49/11 50/50/11 36/36/11 35/35/11
f 30/30/11 29/29/11 50/50/11 49/49/11
f 51/51/12 52/52/12 38/53/12 37/54/12
f 52/52/12 51/51/12 42/42/12 41/41/12
f 53/55/13 54/56/13 55/57/13
f 56/58/13 55/57/13 54/56/13
f 56/58/13 54/56/13 44/44/13
f 56/58/13 44/44/13 43/43/13
f 57/27/14 58/28/14 59/29/14 60/30/14
f 58/28/14 57/27/14 61/31/14 62/32/14
f 63/33/15 64/34/15 65/35/15 66/36/15
f 64/34/15 63/33/15 67/37/15 68/38/15
f 69/59/16 70/60/16 71/61/16 72/62/16
f 70/60/16 69/59/16 73/63/16 74/64/16
f 75/39/17 76/40/17 77/41/17 78/42/17
f 76/40/17 75/39/17 79/65/17 80/66/17
f 81/67/18 82/47/18 62/32/18 61/31/18
f 82/47/18 81/67/18 72/62/18 71/61/18
f 83/49/19 84/50/19 66/36/19 65/35/19
f 60/30/19 59/29/19 84/50/19 83/49/19
f 85/51/20 86/52/20 68/53/20 67/54/20
f 86/52/20 85/51/20 78/42/20 77/41/20
f 87/68/21 88/69/21 74/70/21 73/71/21
f 88/69/21 87/68/21 80/66/21 79/65/21
f 89/27/22 90/28/22 91/29/22 92/30/22
f 90/28/22 89/27/22 93/31/22 94/32/22
f 95/33/23 96/34/23 97/35/23 98/36/23
f 96/34/23 95/33/23 99/37/23 100/38/23
f 101/59/24 102/60/24 103/61/24 104/62/24
f 102/60/24 101/59/24 105/63/24 106/64/24
f 107/39/25 108/40/25 109/41/25 110/42/25
f 108/40/25 107/39/25 111/65/25 112/66/25
f 113/67/26 114/47/26 94/32/26 93/31/26
f 114/47/26 113/67/26 104/62/26 103/61/26
f 115/49/27 116/50/27 98/36/27 97/35/27
f 92/30/27 91/29/27 116/50/27 115/49/27
f 117/51/28 118/52/28 100/53/28 99/54/28
f 118/52/28 117/51/28 110/42/28 109/41/28
f 119/68/29 120/69/29 106/70/29 105/71/29
f 120/69/29 119/68/29 112/66/29 111/65/29
f 121/72/30 122/73/30 123/74/30 124/75/30
f 122/73/30 121/72/30 125/76/30 126/77/30
f 127/33/31 128/34/31 129/35/31 130/36/31
f 128/34/31 127/33/31 131/37/31 132/38/31
f 133/78/32 134/79/32 135/80/32 136/81/32
f 134/79/32 133/78/32 137/63/32 138/64/32
f 139/39/33 140/40/33 141/41/33 142/42/33
f 140/40/33 139/39/33 143/43/33 144/44/33
f 145/67/34 146/47/34 126/77/34 125/76/34
f 146/47/34 145/67/34 136/81/34 135/80/34
f 147/82/35 148/83/35 130/36/35 129/35/35
f 124/75/35 123/74/35 148/83/35 147/82/35
f 149/51/36 150/52/36 132/53/36 131/54/36
f 150/52/36 149/51/36 142/42/36 141/41/36
f 151/56/37 152/84/37 138/70/37 137/71/37
f 152/84/37 151/56/37 144/44/37 143/43/37
