# Authored in Blender; exported by tools-export-modern.py
mtllib materials.mtl
s off
v 0.000000000 0.514491081 0.021578063
v 0.000000000 0.474826455 0.042779207
v 0.668750048 0.474826455 0.042779207
v 0.000000000 0.554860875 0.000000000
v 0.668750048 0.554860875 0.000000000
v 0.000000000 0.407654128 0.063155793
v 0.000000000 0.364615560 0.076211452
v 0.668750048 0.364615560 0.076211452
v 0.000000000 0.294758638 0.083091756
v 0.000000000 0.250000000 0.087500095
v 0.668750048 0.250000000 0.087500095
v 0.000000000 0.180143078 0.080619792
v 0.000000000 0.135384440 0.076211452
v 0.668750048 0.135384440 0.076211452
v 0.000000000 0.068212113 0.055834867
v 0.000000000 0.025173545 0.042779207
v 0.668750048 0.025173545 0.042779207
v 0.000000000 0.000000000 0.029323693
v 0.668750048 0.000000000 0.029323693
v 0.687303163 0.554860875 0.000000000
v 0.756250143 0.474826455 0.042779207
v 0.756250143 0.554860875 0.000000000
v 0.756250143 0.364615560 0.076211452
v 0.756250143 0.250000000 0.087500095
v 0.756250143 0.135384440 0.076211452
v 0.756250143 0.025173545 0.042779207
v 0.690436216 0.000000000 0.029323693
v 0.756250143 0.000000000 0.029323693
v 0.794562992 0.457106758 0.000000000
v 0.809506538 0.395190223 0.000000000
v 0.820544487 0.349456151 0.000000000
v 0.826844992 0.272143772 0.000000000
v 0.828649573 0.250000000 0.000000000
v 0.822822255 0.178494038 0.000000000
v 0.820544487 0.150543849 0.000000000
v 0.807103227 0.094851733 0.000000000
v 0.794562992 0.042893242 0.000000000
v 0.777751794 0.000000000 0.000000000
v 0.782569989 0.012293494 0.000000000
v 0.768643887 0.603843643 0.000000000
v 0.650000095 0.603843643 0.000000000
v 0.650000095 0.591085434 0.010470390
v 0.787499905 0.591085434 0.010470390
v 0.787499905 0.603843643 0.000000000
v 0.650000095 0.484943628 0.067204237
v 0.787499905 0.484943628 0.067204237
v 0.650000095 0.369773269 0.102140903
v 0.787499905 0.369773269 0.102140903
v 0.650000095 0.250000000 0.113937378
v 0.787499905 0.250000000 0.113937378
v 0.650000095 0.130226731 0.102140903
v 0.787499905 0.130226731 0.102140903
v 0.650000095 0.015056252 0.067204237
v 0.787499905 0.015056252 0.067204237
v 0.669504514 0.000000000 0.059156512
v 0.650000095 0.000000000 0.059156512
v 0.787499905 0.000000000 0.059156512
v 0.650000095 0.000000000 0.057143973
v 0.650000095 0.585521986 0.000000000
v 0.650000095 0.000000000 0.010384051
v 0.650000095 0.525069370 0.000000000
v 0.650000095 0.136062600 0.000000000
v 0.650000095 0.000000000 0.000000000
v 0.650000095 0.363937400 0.000000000
v 0.650000095 0.250000000 0.000000000
v 0.787499905 0.601555817 0.000000000
v 0.787499905 0.000000000 0.048199218
v 0.787499905 0.522637887 0.000000000
v 0.787499905 0.000000000 0.028588413
v 0.787499905 0.438021639 0.000000000
v 0.787499905 0.000000000 0.000000000
v 0.787499905 0.216908606 0.000000000
v 0.787499905 0.349456179 0.000000000
v 0.644999981 0.354300261 0.059352398
v 0.644999981 0.384611130 0.041852236
v 0.616999865 0.384611130 0.041852236
v 0.616999865 0.354300261 0.059352398
v 0.644999981 0.384611130 0.006852388
v 0.616999865 0.384611130 0.006852388
v 0.634036141 0.372742482 0.000000000
v 0.644999981 0.372742482 0.000000000
v 0.616999865 0.372742482 0.000000000
v 0.627963850 0.335858039 0.000000000
v 0.644999981 0.335858039 0.000000000
v 0.644999981 0.323989391 0.006852388
v 0.617000103 0.323989391 0.006852388
v 0.617000010 0.335858039 0.000000000
v 0.644999981 0.323989391 0.041852236
v 0.616999865 0.323989391 0.041852236
v 0.616999865 0.360447696 0.000000000
v 0.616999865 0.348152826 0.000000000
v 0.644999981 0.145699859 0.059352398
v 0.644999981 0.176010728 0.041852236
v 0.616999865 0.176010728 0.041852236
v 0.616999865 0.145699859 0.059352398
v 0.644999981 0.176010728 0.006852388
v 0.616999865 0.176010728 0.006852388
v 0.634036141 0.164142080 0.000000000
v 0.644999981 0.164142080 0.000000000
v 0.616999865 0.164142080 0.000000000
v 0.627963850 0.127257637 0.000000000
v 0.644999981 0.127257637 0.000000000
v 0.644999981 0.115388989 0.006852388
v 0.617000103 0.115388989 0.006852388
v 0.617000010 0.127257637 0.000000000
v 0.644999981 0.115388989 0.041852236
v 0.616999865 0.115388989 0.041852236
v 0.616999865 0.151847294 0.000000000
v 0.616999865 0.139552424 0.000000000
vt 0.698153402 0.088878766
vt 0.698153402 0.084922850
vt 0.736150563 0.084922850
vt 0.698153402 0.092905011
vt 0.736150563 0.092905011
vt 0.698153402 0.078223485
vt 0.698153402 0.073931076
vt 0.736150563 0.073931076
vt 0.698153402 0.066963961
vt 0.698153402 0.062500000
vt 0.736150563 0.062500000
vt 0.698153402 0.055532888
vt 0.698153402 0.051068928
vt 0.736150563 0.051068928
vt 0.698153402 0.044369558
vt 0.698153402 0.040077146
vt 0.736150563 0.040077146
vt 0.698153402 0.037566487
vt 0.736150563 0.037566487
vt 0.737204723 0.092905011
vt 0.741122186 0.084922850
vt 0.741122186 0.092905011
vt 0.741122186 0.073931076
vt 0.741122186 0.062500000
vt 0.741122186 0.051068928
vt 0.741122186 0.040077146
vt 0.737382738 0.037566487
vt 0.741122186 0.037566487
vt 0.637632983 0.092905011
vt 0.633366466 0.084922850
vt 0.637632986 0.083155593
vt 0.637632988 0.076980409
vt 0.630032122 0.073931076
vt 0.637632981 0.072419166
vt 0.637632974 0.064708488
vt 0.628906250 0.062500000
vt 0.637632971 0.062500000
vt 0.637632978 0.055368420
vt 0.630032122 0.051068928
vt 0.637632981 0.052580835
vt 0.637632975 0.047026437
vt 0.633366466 0.040077146
vt 0.637632986 0.041844405
vt 0.637632992 0.037566488
vt 0.637632994 0.038792568
vt 0.634708430 0.037566487
vt 0.730023258 0.096270583
vt 0.628906250 0.096270583
vt 0.628906250 0.095052950
vt 0.746093750 0.095052950
vt 0.746093750 0.096270583
vt 0.628906250 0.084922850
vt 0.746093750 0.084922850
vt 0.628906250 0.073931076
vt 0.746093750 0.073931076
vt 0.746093750 0.062500000
vt 0.628906250 0.051068924
vt 0.746093750 0.051068924
vt 0.628906250 0.040077146
vt 0.746093750 0.040077146
vt 0.645529357 0.038640188
vt 0.628906250 0.038640188
vt 0.746093750 0.038640188
vt 0.634326554 0.038640188
vt 0.634134479 0.038640188
vt 0.633366406 0.040077146
vt 0.630032122 0.051068924
vt 0.633366406 0.084922850
vt 0.639780352 0.094521971
vt 0.638781071 0.095052950
vt 0.639780360 0.096270583
vt 0.638789318 0.038640182
vt 0.639780366 0.088752416
vt 0.639780353 0.051625897
vt 0.639780364 0.038640182
vt 0.639780353 0.073374103
vt 0.639780352 0.062500000
vt 0.639780357 0.096052235
vt 0.635180266 0.038640182
vt 0.639780366 0.088520361
vt 0.637051903 0.038640183
vt 0.639780377 0.080444650
vt 0.639780360 0.038640183
vt 0.639780368 0.059341784
vt 0.639780374 0.071992027
vt 0.937500000 0.003906250
vt 0.996093750 0.003906250
vt 0.996093750 0.121093750
vt 0.937500000 0.121093750
vt 0.966796875 0.003906250
vt 0.908203125 0.003906250
vt 0.908203125 0.121093750
vt 0.966796875 0.121093750
vt 0.973150542 0.049792667
vt 0.973150542 0.003906250
vt 0.973150542 0.121093750
vt 0.901849458 0.075207333
vt 0.901849458 0.003906250
vt 0.878906250 0.003906250
vt 0.878906250 0.121093750
vt 0.901849458 0.121093750
vt 0.996093750 0.062500000
vt 0.896731521 0.026849458
vt 0.896731521 0.098150542
vt 0.896731602 0.074383568
vt 0.896731602 0.050616432
vn 0.000000000 0.471396038 0.881921638
vn 0.000000000 0.290285755 0.956940009
vn 0.000000000 0.098017102 0.995184730
vn 0.000000000 -0.098017102 0.995184730
vn 0.000000000 -0.290285755 0.956940009
vn 0.000000000 -0.471396038 0.881921638
vn 0.768942181 0.301372126 0.563828665
vn 0.768942662 0.185584835 0.611788731
vn 0.768942183 0.185584066 0.611789567
vn 0.768942579 0.062664083 0.636239360
vn 0.768942701 0.062664316 0.636239190
vn 0.768942689 -0.062664070 0.636239228
vn 0.768942567 -0.062664332 0.636239350
vn 0.768942230 -0.185584986 0.611789228
vn 0.768942709 -0.185583883 0.611788961
vn 0.768942416 -0.301371993 0.563828416
vn 0.768942156 -0.301372610 0.563828442
vn 0.000000000 0.634393245 0.773010485
vn 0.000000000 0.471395894 0.881921715
vn 0.000000000 0.290285589 0.956940059
vn 0.000000000 0.098015800 0.995184859
vn 0.000000000 -0.098015800 0.995184859
vn 0.000000000 -0.290285314 0.956940143
vn 0.000000000 -0.471396306 0.881921495
vn -1.000000000 0.000000000 0.000000000
vn 1.000000000 0.000000000 0.000000000
vn 0.000000000 0.500003720 0.866023256
vn 0.000000000 1.000000000 0.000000000
vn 0.000000000 0.500001166 -0.866024731
vn 0.000000000 -0.500001166 -0.866024731
vn 0.000000000 -1.000000000 0.000000000
vn 0.000000000 -0.500003720 0.866023256
vn -1.000000000 -0.000011799 -0.000006812
usemtl mat_0
f 1/1/1 2/2/1 3/3/1
f 4/4/1 1/1/1 3/3/1 5/5/1
f 6/6/2 7/7/2 8/8/2
f 2/2/2 6/6/2 8/8/2 3/3/2
f 9/9/3 10/10/3 11/11/3
f 7/7/3 9/9/3 11/11/3 8/8/3
f 12/12/4 13/13/4 14/14/4
f 10/10/4 12/12/4 14/14/4 11/11/4
f 15/15/5 16/16/5 17/17/5
f 13/13/5 15/15/5 17/17/5 14/14/5
f 16/16/6 18/18/6 19/19/6 17/17/6
f 20/20/1 5/5/1 3/3/1 21/21/1
f 20/20/1 21/21/1 22/22/1
f 3/3/2 8/8/2 23/23/2
f 3/3/2 23/23/2 21/21/2
f 8/8/3 11/11/3 24/24/3
f 8/8/3 24/24/3 23/23/3
f 11/11/4 14/14/4 25/25/4
f 11/11/4 25/25/4 24/24/4
f 14/14/5 17/17/5 26/26/5
f 14/14/5 26/26/5 25/25/5
f 27/27/6 17/17/6 19/19/6
f 17/17/6 27/27/6 28/28/6 26/26/6
f 22/29/7 21/30/7 29/31/7
f 30/32/8 21/30/8 23/33/8 31/34/8
f 29/31/9 21/30/9 30/32/9
f 32/35/10 23/33/10 24/36/10 33/37/10
f 31/34/11 23/33/11 32/35/11
f 34/38/12 24/36/12 25/39/12 35/40/12
f 33/37/13 24/36/13 34/38/13
f 36/41/14 25/39/14 26/42/14 37/43/14
f 35/40/15 25/39/15 36/41/15
f 38/44/16 39/45/16 26/42/16 28/46/16
f 37/43/17 26/42/17 39/45/17
f 40/47/18 41/48/18 42/49/18 43/50/18
f 40/47/18 43/50/18 44/51/18
f 42/49/19 45/52/19 46/53/19
f 42/49/19 46/53/19 43/50/19
f 45/52/20 47/54/20 48/55/20
f 45/52/20 48/55/20 46/53/20
f 47/54/21 49/36/21 50/56/21
f 47/54/21 50/56/21 48/55/21
f 49/36/22 51/57/22 52/58/22
f 49/36/22 52/58/22 50/56/22
f 51/57/23 53/59/23 54/60/23
f 51/57/23 54/60/23 52/58/23
f 55/61/24 53/59/24 56/62/24
f 53/59/24 55/61/24 57/63/24 54/60/24
f 58/64/25 56/65/25 53/66/25
f 53/66/25 51/67/25 49/36/25
f 49/36/25 47/33/25 45/68/25
f 59/69/25 45/68/25 42/70/25 41/71/25
f 60/72/25 58/64/25 53/66/25 49/36/25
f 61/73/25 49/36/25 45/68/25 59/69/25
f 62/74/25 63/75/25 60/72/25 49/36/25
f 64/76/25 49/36/25 61/73/25
f 65/77/25 62/74/25 49/36/25
f 65/77/25 49/36/25 64/76/25
f 66/78/26 44/71/26 43/70/26
f 43/70/26 46/68/26 48/33/26
f 48/33/26 50/36/26 52/67/26
f 67/79/26 52/67/26 54/66/26 57/65/26
f 68/80/26 66/78/26 43/70/26 48/33/26
f 69/81/26 48/33/26 52/67/26 67/79/26
f 70/82/26 68/80/26 48/33/26
f 71/83/26 72/84/26 48/33/26 69/81/26
f 73/85/26 70/82/26 48/33/26
f 73/85/26 48/33/26 72/84/26
usemtl mat_1
f 74/86/27 75/87/27 76/88/27
f 74/86/27 76/88/27 77/89/27
f 75/90/28 78/91/28 79/92/28
f 75/90/28 79/92/28 76/93/28
f 80/94/29 78/87/29 81/95/29
f 78/87/29 80/94/29 82/96/29 79/88/29
f 83/97/30 84/98/30 85/99/30 86/100/30
f 83/97/30 86/100/30 87/101/30
f 85/91/31 88/90/31 89/93/31
f 85/91/31 89/93/31 86/92/31
f 88/99/32 74/86/32 77/89/32
f 88/99/32 77/89/32 89/100/32
f 74/102/26 88/90/26 85/91/26
f 85/91/26 84/103/26 81/104/26 78/92/26
f 78/92/26 75/93/26 74/102/26
f 85/91/26 78/92/26 74/102/26
f 89/90/25 77/102/25 76/93/25
f 90/105/25 76/93/25 79/92/25 82/104/25
f 91/106/33 87/103/33 86/91/33 89/90/33
f 76/93/25 90/105/25 91/106/25 89/90/25
f 92/86/27 93/87/27 94/88/27
f 92/86/27 94/88/27 95/89/27
f 93/90/28 96/91/28 97/92/28
f 93/90/28 97/92/28 94/93/28
f 98/94/29 96/87/29 99/95/29
f 96/87/29 98/94/29 100/96/29 97/88/29
f 101/97/30 102/98/30 103/99/30 104/100/30
f 101/97/30 104/100/30 105/101/30
f 103/91/31 106/90/31 107/93/31
f 103/91/31 107/93/31 104/92/31
f 106/99/32 92/86/32 95/89/32
f 106/99/32 95/89/32 107/100/32
f 92/102/26 106/90/26 103/91/26
f 103/91/26 102/103/26 99/104/26 96/92/26
f 96/92/26 93/93/26 92/102/26
f 103/91/26 96/92/26 92/102/26
f 107/90/25 95/102/25 94/93/25
f 108/105/25 94/93/25 97/92/25 100/104/25
f 109/106/33 105/103/33 104/91/33 107/90/33
f 94/93/25 108/105/25 109/106/25 107/90/25
