# Authored in Blender; exported by tools-export-modern.py
mtllib materials.mtl
s off
v 0.000000000 0.653858487 0.069751785
v 0.000000000 0.638899088 0.082028627
v 0.206250191 0.638899088 0.082028627
v 0.000000000 0.738851416 0.000000000
v 0.206250191 0.738851416 0.000000000
v 0.000000000 0.534945548 0.137593106
v 0.000000000 0.517878532 0.146715641
v 0.206250191 0.517878532 0.146715641
v 0.000000000 0.405082029 0.180932040
v 0.000000000 0.386563182 0.186549664
v 0.206250191 0.386563182 0.186549664
v 0.000000000 0.269258927 0.198103197
v 0.000000000 0.250000000 0.200000048
v 0.206250191 0.250000000 0.200000048
v 0.000000000 0.132695643 0.188446514
v 0.000000000 0.113436699 0.186549664
v 0.206250191 0.113436699 0.186549664
v 0.007132354 0.000000000 0.152139001
v 0.000000000 0.000640401 0.152333264
v 0.000000000 0.000000000 0.152139001
v 0.206250191 0.000000000 0.152139001
v 0.217094602 0.732500361 0.000000000
v 0.318750381 0.615565300 0.047106981
v 0.318750381 0.672965263 0.000000000
v 0.318750381 0.501805782 0.107912779
v 0.318750381 0.378369451 0.145356655
v 0.318750381 0.250000000 0.157999992
v 0.318750381 0.121630549 0.145356655
v 0.316987627 0.000000000 0.109144933
v 0.318750381 0.000000000 0.108460537
v 0.356023303 0.584089384 0.000000000
v 0.385156475 0.490602511 0.000000000
v 0.395594707 0.457106778 0.000000000
v 0.406250000 0.352422357 0.014912128
v 0.406250000 0.401581274 0.000000000
v 0.406250000 0.250000000 0.025000095
v 0.406250000 0.147577643 0.014912128
v 0.398083327 0.055861592 0.000000000
v 0.321854695 0.000000000 0.103553380
v 0.395594707 0.042893229 0.000000000
v 0.406250000 0.098418726 0.000000000
v 0.382227960 0.000000000 0.000000000
v 0.406250000 0.388423490 0.000000000
v 0.406250000 0.111576510 0.000000000
v 0.406250000 0.374739952 0.000000000
v 0.406250000 0.277453914 0.000000000
v 0.406250000 0.362386327 0.000000000
v 0.406250000 0.330104772 0.000000000
v 0.406250000 0.349456151 0.000000000
v 0.224668431 0.704224638 0.000000000
v 0.206250191 0.704224638 0.000000000
v 0.206250191 0.589499950 0.088031292
v 0.306249619 0.589499950 0.088031292
v 0.306249619 0.704224638 0.000000000
v 0.206250191 0.425738215 0.155863762
v 0.306249619 0.425738215 0.155863762
v 0.206250191 0.250000000 0.178999901
v 0.306249619 0.250000000 0.178999901
v 0.206250191 0.074261904 0.155863762
v 0.306249619 0.074261904 0.155863762
v 0.251597413 0.000000000 0.125103445
v 0.206250191 0.000000000 0.125103445
v 0.306249619 0.000000000 0.125103445
v 0.206250191 0.000000000 0.112012709
v 0.206250191 0.677531242 0.000000000
v 0.206250191 0.000000000 0.034662365
v 0.206250191 0.560036991 0.000000000
v 0.206250191 0.000000000 0.000000000
v 0.306249619 0.695702004 0.000000000
v 0.306249619 0.000000000 0.112988622
v 0.306249619 0.581601861 0.000000000
v 0.306249619 0.000000000 0.041787518
v 0.306249619 0.000000000 0.000000000
v 0.199999809 0.458945155 0.033188105
v 0.199999809 0.483843327 0.018813133
v 0.177000046 0.483843327 0.018813133
v 0.177000046 0.458945155 0.033188105
v 0.184949427 0.483843327 0.000000000
v 0.199999809 0.483843327 0.000000000
v 0.177000046 0.483843327 0.000000000
v 0.192050428 0.434046984 0.000000000
v 0.199999809 0.434046984 0.000000000
v 0.199999809 0.434046984 0.018813133
v 0.177000046 0.434046984 0.018813133
v 0.177000046 0.434046984 0.000000000
v 0.199999809 0.439784001 0.000000000
v 0.199999809 0.478106309 0.000000000
v 0.177000046 0.472981563 0.000000000
v 0.177000046 0.444908747 0.000000000
v 0.199999809 0.041054845 0.033188105
v 0.199999809 0.065953016 0.018813133
v 0.177000046 0.065953016 0.018813133
v 0.177000046 0.041054845 0.033188105
v 0.184949427 0.065953016 0.000000000
v 0.199999809 0.065953016 0.000000000
v 0.177000046 0.065953016 0.000000000
v 0.192050428 0.016156673 0.000000000
v 0.199999809 0.016156673 0.000000000
v 0.199999809 0.016156673 0.018813133
v 0.177000046 0.016156673 0.018813133
v 0.177000046 0.016156673 0.000000000
v 0.199999809 0.021893691 0.000000000
v 0.199999809 0.060215999 0.000000000
v 0.177000046 0.055091253 0.000000000
v 0.177000046 0.027018437 0.000000000
v 0.182499886 0.012036085 0.151475668
v 0.182499886 0.018336535 0.148265362
v 0.187500000 0.016791463 0.153020859
v 0.182499886 0.059588909 0.166926622
v 0.187500000 0.054833651 0.165381432
v 0.182499886 0.056378722 0.160626173
v 0.187500000 0.028953433 0.245032310
v 0.182499886 0.033708811 0.246577501
v 0.182499886 0.027408361 0.249787807
v 0.000000000 0.012841571 0.151065244
v 0.000000000 0.018336535 0.148265362
v 0.000000000 0.012036085 0.151475668
v 0.000000000 0.056789131 0.161431659
v 0.000000000 0.056378722 0.160626173
v 0.000000000 0.059588909 0.166926622
v 0.186254838 0.000000000 0.236934095
v 0.187500000 0.000000000 0.235624833
v 0.182499886 0.000000000 0.240882193
v 0.000000000 0.032903325 0.246987926
v 0.000000000 0.033708811 0.246577501
v 0.000000000 0.027408361 0.249787807
v 0.184759417 0.000000000 0.195830907
v 0.187500000 0.000000000 0.204699512
v 0.182499886 0.000000000 0.188518902
v 0.000000000 0.000000000 0.188518902
v 0.000000000 0.051515187 0.159045895
v 0.000000000 0.056280247 0.177109655
v 0.000000000 0.022544819 0.248207529
v 0.000000000 0.000000000 0.240882193
v 0.182499886 0.225000024 0.193125248
v 0.182499886 0.230000019 0.188125134
v 0.187500000 0.230000019 0.193125248
v 0.182499886 0.274999976 0.193125248
v 0.187500000 0.269999981 0.193125248
v 0.182499886 0.269999981 0.188125134
v 0.182499886 0.225000024 0.276875019
v 0.187500000 0.230000019 0.276875019
v 0.182499886 0.230000019 0.281875134
v 0.187500000 0.269999981 0.276875019
v 0.182499886 0.274999976 0.276875019
v 0.182499886 0.269999981 0.281875134
v 0.000000000 0.225639252 0.192486004
v 0.000000000 0.230000019 0.188125134
v 0.000000000 0.225000024 0.193125248
v 0.000000000 0.270639209 0.188764377
v 0.000000000 0.269999981 0.188125134
v 0.000000000 0.274999976 0.193125248
v 0.000000000 0.229360791 0.281235890
v 0.000000000 0.225000024 0.276875019
v 0.000000000 0.230000019 0.281875134
v 0.000000000 0.274360748 0.277514263
v 0.000000000 0.274999976 0.276875019
v 0.000000000 0.269999981 0.281875134
v 0.000000000 0.225000024 0.266167961
v 0.000000000 0.264886153 0.188125134
v 0.000000000 0.274999976 0.203832307
v 0.000000000 0.264886153 0.281875134
v 0.182499886 0.440411091 0.166926622
v 0.182499886 0.443621278 0.160626173
v 0.187500000 0.445166349 0.165381432
v 0.182499886 0.487963915 0.151475668
v 0.187500000 0.483208537 0.153020859
v 0.182499886 0.481663465 0.148265362
v 0.182499886 0.466291189 0.246577501
v 0.187500000 0.471046567 0.245032310
v 0.182499886 0.472591639 0.249787807
v 0.187500000 0.509088755 0.232671738
v 0.182499886 0.513844013 0.231126547
v 0.182499886 0.510633826 0.237426996
v 0.000000000 0.440821500 0.166121136
v 0.000000000 0.443621278 0.160626173
v 0.000000000 0.440411091 0.166926622
v 0.000000000 0.482468952 0.148675786
v 0.000000000 0.481663465 0.148265362
v 0.000000000 0.487963915 0.151475668
v 0.000000000 0.471786152 0.249377383
v 0.000000000 0.466291189 0.246577501
v 0.000000000 0.472591639 0.249787807
v 0.000000000 0.513433604 0.231932033
v 0.000000000 0.513844013 0.231126547
v 0.000000000 0.510633826 0.237426996
v 0.000000000 0.462982527 0.236394469
v 0.000000000 0.476799931 0.149845640
v 0.000000000 0.491272577 0.161658700
v 0.000000000 0.505770291 0.239007274
v 0.182499886 0.637183309 0.075444460
v 0.182499886 0.638289452 0.068460464
v 0.187500000 0.641228318 0.072505474
v 0.182499886 0.677634120 0.046055079
v 0.187500000 0.673588991 0.048994064
v 0.182499886 0.670650125 0.044949055
v 0.182499886 0.686410308 0.143199682
v 0.187500000 0.690455437 0.140260696
v 0.182499886 0.693394303 0.144305706
v 0.187500000 0.722816110 0.116749287
v 0.182499886 0.726861119 0.113810301
v 0.182499886 0.725754976 0.120794296
v 0.000000000 0.637324724 0.074551585
v 0.000000000 0.638289452 0.068460464
v 0.000000000 0.637183309 0.075444460
v 0.000000000 0.671542999 0.045090455
v 0.000000000 0.670650125 0.044949055
v 0.000000000 0.677634120 0.046055079
v 0.000000000 0.692501429 0.144164306
v 0.000000000 0.686410308 0.143199682
v 0.000000000 0.693394303 0.144305706
v 0.000000000 0.726719704 0.114703175
v 0.000000000 0.726861119 0.113810301
v 0.000000000 0.725754976 0.120794296
v 0.000000000 0.680116842 0.134537460
v 0.000000000 0.666512948 0.047954890
v 0.000000000 0.683927586 0.054717301
v 0.000000000 0.721617799 0.123800132
v 0.347595140 0.762988117 0.000000000
v 0.181250095 0.762988117 0.000000000
v 0.181250095 0.757349014 0.007349014
v 0.356249809 0.757349014 0.007349014
v 0.356249809 0.762988117 0.000000000
v 0.181250095 0.608749866 0.121373177
v 0.356249809 0.608749866 0.121373177
v 0.181250095 0.435702801 0.193051815
v 0.356249809 0.435702801 0.193051815
v 0.181250095 0.250000000 0.217499971
v 0.356249809 0.250000000 0.217499971
v 0.181250095 0.064297318 0.193051815
v 0.356249809 0.064297318 0.193051815
v 0.246272850 0.000000000 0.166418957
v 0.181250095 0.000000000 0.166418957
v 0.356249809 0.000000000 0.166418957
v 0.370329143 0.750000000 0.000000000
v 0.493750095 0.557999969 0.033471584
v 0.493750095 0.601621005 0.000000000
v 0.493750095 0.409432650 0.095010281
v 0.493750095 0.250000000 0.115999937
v 0.493750095 0.090567470 0.095010281
v 0.428540045 0.000000000 0.109153135
v 0.493750095 0.000000000 0.057495977
v 0.181250095 0.000000000 0.150512655
v 0.181250095 0.730123098 0.000000000
v 0.181250095 0.000000000 0.073162398
v 0.181250095 0.626720985 0.000000000
v 0.181250095 0.000000000 0.000000000
v 0.493750095 0.573995198 0.000000000
v 0.493750095 0.000000000 0.042721123
v 0.493750095 0.504442904 0.000000000
v 0.493750095 0.000000000 0.000000000
v 0.493750095 0.054849398 0.000000000
vt 0.471522176 0.096305130
vt 0.471522176 0.095052950
vt 0.483996987 0.095052950
vt 0.471522176 0.103419484
vt 0.483996987 0.103419484
vt 0.471522176 0.086351468
vt 0.471522176 0.084922865
vt 0.483996987 0.084922865
vt 0.471522176 0.075481201
vt 0.471522176 0.073931076
vt 0.483996987 0.073931076
vt 0.471522176 0.064112076
vt 0.471522176 0.062500000
vt 0.483996987 0.062500000
vt 0.471522176 0.052681004
vt 0.471522176 0.051068928
vt 0.483996987 0.051068928
vt 0.471953569 0.041573666
vt 0.471522176 0.041627271
vt 0.471522176 0.041573666
vt 0.483996987 0.041573666
vt 0.484652898 0.102887866
vt 0.490801424 0.093099773
vt 0.490801424 0.097904463
vt 0.490801424 0.083577499
vt 0.490801424 0.073245220
vt 0.490801424 0.062500000
vt 0.490801424 0.051754788
vt 0.490694806 0.041573665
vt 0.490801424 0.041573665
vt 0.395647311 0.097904463
vt 0.391704202 0.093099773
vt 0.395647311 0.090465075
vt 0.395647312 0.082639722
vt 0.386614442 0.083577499
vt 0.395647314 0.079835951
vt 0.383480191 0.073245220
vt 0.394399077 0.071073309
vt 0.395647308 0.075188171
vt 0.382421881 0.062500000
vt 0.393554688 0.062500000
vt 0.383480191 0.051754788
vt 0.394399077 0.053926699
vt 0.395647314 0.046249578
vt 0.386568592 0.041573665
vt 0.386979347 0.041573665
vt 0.395647314 0.045164057
vt 0.395647308 0.049811837
vt 0.395647316 0.041573665
vt 0.395647304 0.074086797
vt 0.395647304 0.050913212
vt 0.395647302 0.072941410
vt 0.395647304 0.064798048
vt 0.395647302 0.071907346
vt 0.395647303 0.069205207
vt 0.395647302 0.070825021
vt 0.400490249 0.101696942
vt 0.378906250 0.101696942
vt 0.378906250 0.091796875
vt 0.496093750 0.091796875
vt 0.496093750 0.101696942
vt 0.378906250 0.077665180
vt 0.496093750 0.077665180
vt 0.378906250 0.062500000
vt 0.496093750 0.062500000
vt 0.378906250 0.047334824
vt 0.496093750 0.047334824
vt 0.432047830 0.040926454
vt 0.378906250 0.040926454
vt 0.496093750 0.040926454
vt 0.384686869 0.040926455
vt 0.383557227 0.040926454
vt 0.380902797 0.047334824
vt 0.380902797 0.077665180
vt 0.386756331 0.091796875
vt 0.394352914 0.099393461
vt 0.394352926 0.101696942
vt 0.391361741 0.040926456
vt 0.394352902 0.089254387
vt 0.394352902 0.040926456
vt 0.394352928 0.100961486
vt 0.384602671 0.040926454
vt 0.394352924 0.091115309
vt 0.390746909 0.040926454
vt 0.394352927 0.040926455
vt 0.937500000 0.003906250
vt 0.996093750 0.003906250
vt 0.996093750 0.121093750
vt 0.937500000 0.121093750
vt 0.928454815 0.080590370
vt 0.966796875 0.003906250
vt 0.928454815 0.003906250
vt 0.928454815 0.121093750
vt 0.966796875 0.121093750
vt 0.928454815 0.044409630
vt 0.878906250 0.003906250
vt 0.878906250 0.121093750
vt 0.928454815 0.017407377
vt 0.996093750 0.062500000
vt 0.928454815 0.107592623
vt 0.928454815 0.095532377
vt 0.928454815 0.029467623
vt 0.495686144 0.008593750
vt 0.495686173 0.015625004
vt 0.496093750 0.013802087
vt 0.495686144 0.010156251
vt 0.488281250 0.010156251
vt 0.495686144 0.003906250
vt 0.487304688 0.114843749
vt 0.495686114 0.114843741
vt 0.492858350 0.115234375
vt 0.481169950 0.009118118
vt 0.481169976 0.015250455
vt 0.480795402 0.008793509
vt 0.480808462 0.110873194
vt 0.495686173 0.109375000
vt 0.480808462 0.109375000
vt 0.480808410 0.121093751
vt 0.495686114 0.121093750
vt 0.496093750 0.109375000
vt 0.416083829 0.114941019
vt 0.413722987 0.114843743
vt 0.419202118 0.119455889
vt 0.480808410 0.114144585
vt 0.480808407 0.114843741
vt 0.478342165 0.114485278
vt 0.495870323 0.069183432
vt 0.496093750 0.079359392
vt 0.495686130 0.058007434
vt 0.480795388 0.058207193
vt 0.481169976 0.097014906
vt 0.390625000 0.010156250
vt 0.390625000 0.078079022
vt 0.480808433 0.023540109
vt 0.480808433 0.010156251
vt 0.478342165 0.102499733
vt 0.480018006 0.043468644
vt 0.494895717 0.043468644
vt 0.496093750 0.114843749
vt 0.495686144 0.121093750
vt 0.492858380 0.115234375
vt 0.480795402 0.120294712
vt 0.480795376 0.114843741
vt 0.481772491 0.121093750
vt 0.390625000 0.114843741
vt 0.390625000 0.121093750
vt 0.478342191 0.114485278
vt 0.480795376 0.101459883
vt 0.478342191 0.102499733
vt 0.480808462 0.015625002
vt 0.495686173 0.015625002
vt 0.495686114 0.008593750
vt 0.481169928 0.009118118
vt 0.481169980 0.015250455
vt 0.480795376 0.008793509
vt 0.480795406 0.120294713
vt 0.480795380 0.114843742
vt 0.481169980 0.097014906
vt 0.441285784 0.021668111
vt 0.378906250 0.021668111
vt 0.378906250 0.021067962
vt 0.444531292 0.021067962
vt 0.444531292 0.021668111
vt 0.378906250 0.103932038
vt 0.378906250 0.091796868
vt 0.444531292 0.091796868
vt 0.444531292 0.103932038
vt 0.378906250 0.077665187
vt 0.444531292 0.077665187
vt 0.444531292 0.062500000
vt 0.378906250 0.047334820
vt 0.444531292 0.047334820
vt 0.403289838 0.042084059
vt 0.378906250 0.042084059
vt 0.444531292 0.042084059
vt 0.449811027 0.021668111
vt 0.496093750 0.087652437
vt 0.449811027 0.103331889
vt 0.496093750 0.091214695
vt 0.496093750 0.075519867
vt 0.496093750 0.049480140
vt 0.471640052 0.042084059
vt 0.496093750 0.042084059
vt 0.384376690 0.042084058
vt 0.383077731 0.042084059
vt 0.380902797 0.047334820
vt 0.380902797 0.077665187
vt 0.386756331 0.091796868
vt 0.396668119 0.101708663
vt 0.396067977 0.103932038
vt 0.396668125 0.104392548
vt 0.390693400 0.042084058
vt 0.396668117 0.093264456
vt 0.396668117 0.042084059
vt 0.396668117 0.088958667
vt 0.396668114 0.091214695
vt 0.393934697 0.087652437
vt 0.388909221 0.075519867
vt 0.387195110 0.062500000
vt 0.388909221 0.049480140
vt 0.393179350 0.042084059
vt 0.391972777 0.042084059
vt 0.396668118 0.083278761
vt 0.396668117 0.042084057
vt 0.396668117 0.046563264
vn 0.000000000 0.634392689 0.773010942
vn 0.000000000 0.471397752 0.881920722
vn 0.000000000 0.290284320 0.956940444
vn 0.000000000 0.098017752 0.995184666
vn 0.000000000 -0.098017667 0.995184675
vn 0.000000000 -0.290284802 0.956940298
vn 0.348273032 0.594675354 0.724615152
vn 0.348274280 0.594675987 0.724614032
vn 0.348273819 0.441884880 0.826706175
vn 0.348273154 0.441884433 0.826706694
vn 0.348274265 0.272110396 0.897028967
vn 0.348273721 0.272109954 0.897029313
vn 0.348274584 0.091881111 0.932878703
vn 0.348274361 0.091880906 0.932878807
vn 0.348274451 -0.091881037 0.932878761
vn 0.348274591 -0.091880897 0.932878722
vn 0.348273627 -0.272110918 0.897029057
vn 0.348274532 -0.272109987 0.897028988
vn 0.834196927 0.349846969 0.426289321
vn 0.834197052 0.259959727 0.486349894
vn 0.834196908 0.259959515 0.486350255
vn 0.834197072 0.160081769 0.527720638
vn 0.834197006 0.160081640 0.527720782
vn 0.834196643 0.054053439 0.548811613
vn 0.834197084 0.054054464 0.548810841
vn 0.834197035 -0.054053381 0.548811023
vn 0.834196593 -0.054054537 0.548811581
vn 0.834196984 -0.160081878 0.527720745
vn 0.834197080 -0.160081608 0.527720675
vn 0.834197014 -0.259959439 0.486350113
vn 1.000000000 0.000000000 0.000000000
vn 0.000000000 0.608761182 0.793353530
vn 0.000000000 0.382684098 0.923879257
vn 0.000000000 0.130524883 0.991445034
vn 0.000000000 -0.130524970 0.991445022
vn 0.000000000 -0.382683742 0.923879404
vn -1.000000000 0.000000000 0.000000000
vn 0.000000000 0.500000141 0.866025322
vn 0.000000000 1.000000000 0.000000000
vn 0.000000000 -1.000000000 0.000000000
vn 0.000000000 -0.500000141 0.866025322
vn 0.577359673 -0.370684802 -0.727494732
vn 0.577336437 0.727514940 -0.370681333
vn 0.577359673 0.370684802 0.727494732
vn 0.000000000 -0.453998007 -0.891002699
vn 0.000000000 0.891009518 -0.453984623
vn 0.707096781 0.218513583 -0.672507216
vn 0.707112815 0.218504817 -0.672493206
vn 0.707112815 -0.218504817 0.672493206
vn 0.707098084 -0.218512871 0.672506078
vn 0.000000000 0.453998007 0.891002699
vn 0.707103395 -0.672501539 -0.218509656
vn 0.707107403 -0.672497874 -0.218507962
vn 0.707107403 0.672498022 0.218507507
vn 0.707099386 0.672505351 0.218510894
vn 0.000000000 -0.951056451 -0.309017195
vn 0.000000000 0.309020503 -0.951055376
vn 0.000000000 0.951056660 0.309016551
vn 0.000000000 -0.309020065 0.951055519
vn 0.577345681 -0.577359446 -0.577345681
vn 0.577345681 0.577359446 -0.577345681
vn 0.577345681 -0.577359446 0.577345681
vn 0.577345681 0.577359446 0.577345681
vn 0.000000000 -0.707115210 -0.707098352
vn 0.000000000 0.707115210 -0.707098352
vn 0.707106781 0.000000000 -0.707106781
vn 0.000000000 -0.707115210 0.707098352
vn 0.707106781 -0.000000000 0.707106781
vn 0.000000000 0.707115210 0.707098352
vn 0.707098352 -0.707115210 0.000000000
vn 0.707098352 0.707115210 -0.000000000
vn 0.000000000 0.000000000 -1.000000000
vn 0.000000000 0.000000000 1.000000000
vn 0.577336437 -0.727514940 -0.370681333
vn 0.577359673 0.370684802 -0.727494732
vn 0.577359673 -0.370684802 0.727494732
vn 0.577336437 0.727514940 0.370681333
vn 0.000000000 -0.891009518 -0.453984623
vn 0.000000000 0.453998007 -0.891002699
vn 0.707112815 -0.218508629 -0.672491967
vn 0.707096781 -0.218509771 -0.672508455
vn 0.000000000 -0.453998007 0.891002699
vn 0.707096781 0.218509771 0.672508455
vn 0.707112815 0.218508629 0.672491967
vn 0.000000000 0.891009518 0.453984623
vn 0.707107403 -0.672497727 0.218508417
vn 0.707099386 -0.672505647 0.218509984
vn 0.707099386 0.672505647 -0.218509984
vn 0.707107403 0.672497727 -0.218508417
vn 0.000000000 -0.951056660 0.309016551
vn 0.000000000 -0.309020503 -0.951055376
vn 0.000000000 0.951056660 -0.309016551
vn -0.000000000 0.309020503 0.951055376
vn 0.577333052 -0.806456413 -0.127728622
vn 0.577341492 0.127714260 -0.806452646
vn 0.577341492 -0.127714260 0.806452646
vn 0.577333052 0.806456413 0.127728622
vn 0.000000000 -0.987688629 -0.156432642
vn 0.000000000 0.156416196 -0.987691234
vn 0.707091899 -0.415635739 -0.572073404
vn 0.000000000 -0.156416196 0.987691234
vn 0.707091899 0.415635739 0.572073404
vn 0.000000000 0.987688629 0.156432642
vn 0.707103673 -0.572063644 0.415629140
vn 0.707096854 -0.572069640 0.415632490
vn 0.707096854 0.572069640 -0.415632490
vn 0.707103673 0.572063644 -0.415629140
vn 0.000000000 -0.809017285 0.587784852
vn 0.000000000 -0.587785328 -0.809016939
vn 0.000000000 0.809017285 -0.587784852
vn -0.000000000 0.587785328 0.809016939
vn 0.000000000 0.793353038 0.608761823
vn 0.000000000 0.608761516 0.793353274
vn 0.000000000 0.382684330 0.923879161
vn 0.000000000 0.130525766 0.991444917
vn 0.000000000 -0.130525849 0.991444907
vn 0.000000000 -0.382683880 0.923879347
vn 0.590592518 0.640212050 0.491252489
vn 0.590592690 0.491252165 0.640212141
vn 0.590592483 0.491252058 0.640212414
vn 0.590593091 0.308814589 0.745542320
vn 0.590592819 0.308814360 0.745542630
vn 0.590593043 0.105330319 0.800065861
vn 0.590593123 0.105330408 0.800065790
vn 0.590593121 -0.105330378 0.800065795
vn 0.590593032 -0.105330494 0.800065846
vn 0.590592989 -0.308814254 0.745542539
vn 0.590593126 -0.308814062 0.745542510
usemtl mat_4
f 1/1/1 2/2/1 3/3/1
f 4/4/1 1/1/1 3/3/1 5/5/1
f 6/6/2 7/7/2 8/8/2
f 2/2/2 6/6/2 8/8/2 3/3/2
f 9/9/3 10/10/3 11/11/3
f 7/7/3 9/9/3 11/11/3 8/8/3
f 12/12/4 13/13/4 14/14/4
f 10/10/4 12/12/4 14/14/4 11/11/4
f 15/15/5 16/16/5 17/17/5
f 13/13/5 15/15/5 17/17/5 14/14/5
f 18/18/6 19/19/6 20/20/6
f 16/16/6 19/19/6 18/18/6
f 16/16/6 18/18/6 21/21/6
f 16/16/6 21/21/6 17/17/6
f 22/22/7 5/5/7 3/3/7 23/23/7
f 22/22/8 23/23/8 24/24/8
f 3/3/9 8/8/9 25/25/9
f 3/3/10 25/25/10 23/23/10
f 8/8/11 11/11/11 26/26/11
f 8/8/12 26/26/12 25/25/12
f 11/11/13 14/14/13 27/27/13
f 11/11/14 27/27/14 26/26/14
f 14/14/15 17/17/15 28/28/15
f 14/14/16 28/28/16 27/27/16
f 29/29/17 17/17/17 21/21/17
f 17/17/18 29/29/18 30/30/18 28/28/18
f 24/31/19 23/32/19 31/33/19
f 32/34/20 23/32/20 25/35/20 33/36/20
f 31/33/21 23/32/21 32/34/21
f 25/35/22 26/37/22 34/38/22
f 33/36/23 25/35/23 34/38/23 35/39/23
f 26/37/24 27/40/24 36/41/24
f 26/37/25 36/41/25 34/38/25
f 27/40/26 28/42/26 37/43/26
f 27/40/27 37/43/27 36/41/27
f 38/44/28 28/42/28 30/45/28
f 38/44/28 30/45/28 39/46/28
f 38/44/28 39/46/28 40/47/28
f 28/42/29 38/44/29 41/48/29 37/43/29
f 40/47/30 39/46/30 42/49/30
f 43/50/31 35/39/31 34/38/31
f 34/38/31 36/41/31 37/43/31
f 44/51/31 37/43/31 41/48/31
f 45/52/31 43/50/31 34/38/31
f 46/53/31 34/38/31 37/43/31 44/51/31
f 47/54/31 45/52/31 34/38/31
f 48/55/31 34/38/31 46/53/31
f 49/56/31 47/54/31 34/38/31
f 49/56/31 34/38/31 48/55/31
f 50/57/32 51/58/32 52/59/32 53/60/32
f 50/57/32 53/60/32 54/61/32
f 52/59/33 55/62/33 56/63/33
f 52/59/33 56/63/33 53/60/33
f 55/62/34 57/64/34 58/65/34
f 55/62/34 58/65/34 56/63/34
f 57/64/35 59/66/35 60/67/35
f 57/64/35 60/67/35 58/65/35
f 61/68/36 59/66/36 62/69/36
f 59/66/36 61/68/36 63/70/36 60/67/36
f 64/71/37 62/72/37 59/73/37 57/64/37
f 57/64/37 55/74/37 52/75/37
f 65/76/37 52/75/37 51/77/37
f 66/78/37 64/71/37 57/64/37
f 67/79/37 57/64/37 52/75/37 65/76/37
f 68/80/37 66/78/37 57/64/37 67/79/37
f 69/81/31 54/77/31 53/75/31 56/74/31
f 56/74/31 58/64/31 60/73/31
f 70/82/31 60/73/31 63/72/31
f 71/83/31 69/81/31 56/74/31
f 72/84/31 56/74/31 60/73/31 70/82/31
f 73/85/31 71/83/31 56/74/31 72/84/31
usemtl mat_1
f 74/86/38 75/87/38 76/88/38
f 74/86/38 76/88/38 77/89/38
f 78/90/39 75/91/39 79/92/39
f 75/91/39 78/90/39 80/93/39 76/94/39
f 81/95/40 82/92/40 83/91/40 84/94/40
f 81/95/40 84/94/40 85/93/40
f 83/96/41 74/86/41 77/89/41
f 83/96/41 77/89/41 84/97/41
f 86/98/31 74/99/31 83/91/31 82/92/31
f 87/100/31 79/93/31 75/94/31 74/99/31
f 86/98/31 87/100/31 74/99/31
f 84/91/37 77/99/37 76/94/37
f 88/101/37 76/94/37 80/93/37
f 89/102/37 85/92/37 84/91/37
f 76/94/37 88/101/37 89/102/37 84/91/37
f 90/86/38 91/87/38 92/88/38
f 90/86/38 92/88/38 93/89/38
f 94/90/39 91/91/39 95/92/39
f 91/91/39 94/90/39 96/93/39 92/94/39
f 97/95/40 98/92/40 99/91/40 100/94/40
f 97/95/40 100/94/40 101/93/40
f 99/96/41 90/86/41 93/89/41
f 99/96/41 93/89/41 100/97/41
f 102/98/31 90/99/31 99/91/31 98/92/31
f 103/100/31 95/93/31 91/94/31 90/99/31
f 102/98/31 103/100/31 90/99/31
f 100/91/37 93/99/37 92/94/37
f 104/101/37 92/94/37 96/93/37
f 105/102/37 101/92/37 100/91/37
f 92/94/37 104/101/37 105/102/37 100/91/37
usemtl mat_4
f 106/103/42 107/104/42 108/105/42
f 109/106/43 110/107/43 111/108/43
f 112/109/44 113/110/44 114/111/44
f 115/112/45 116/113/45 107/104/45 106/103/45
f 115/112/45 106/103/45 117/114/45
f 118/115/46 111/116/46 119/117/46
f 111/116/46 118/115/46 120/118/46 109/119/46
f 107/104/47 111/116/47 110/120/47
f 107/104/48 110/120/48 108/105/48
f 121/121/49 122/122/49 112/109/49 114/111/49
f 121/121/50 114/111/50 123/123/50
f 124/124/51 113/110/51 125/125/51
f 113/110/51 124/124/51 126/126/51 114/111/51
f 127/127/52 108/105/52 128/128/52
f 108/105/53 127/127/53 129/129/53 106/103/53
f 109/106/54 113/110/54 112/109/54
f 109/106/55 112/109/55 110/107/55
f 130/130/56 117/114/56 106/103/56 129/129/56
f 131/131/57 119/117/57 111/116/57
f 116/113/57 131/131/57 111/116/57 107/104/57
f 108/132/31 110/107/31 112/109/31
f 128/133/31 108/132/31 112/109/31 122/122/31
f 132/134/58 109/106/58 120/135/58
f 109/106/58 132/134/58 125/125/58 113/110/58
f 133/136/59 134/137/59 123/138/59 114/111/59
f 133/136/59 114/111/59 126/126/59
f 135/103/60 136/104/60 137/105/60
f 138/106/61 139/107/61 140/108/61
f 141/110/62 142/139/62 143/140/62
f 144/109/63 145/110/63 146/141/63
f 147/112/64 148/113/64 136/104/64 135/103/64
f 147/112/64 135/103/64 149/114/64
f 150/115/65 140/116/65 151/117/65
f 140/116/65 150/115/65 152/118/65 138/119/65
f 136/104/66 140/116/66 139/120/66
f 136/104/66 139/120/66 137/105/66
f 153/142/67 154/143/67 141/110/67 143/140/67
f 153/142/67 143/140/67 155/144/67
f 142/145/68 144/109/68 146/141/68
f 142/145/68 146/141/68 143/146/68
f 156/124/69 145/110/69 157/125/69
f 145/110/69 156/124/69 158/147/69 146/141/69
f 137/105/70 142/139/70 141/110/70
f 137/105/70 141/110/70 135/103/70
f 138/106/71 145/110/71 144/109/71
f 138/106/71 144/109/71 139/107/71
f 159/148/40 149/114/40 135/103/40 141/110/40
f 159/148/40 141/110/40 154/143/40
f 160/131/72 151/117/72 140/116/72
f 148/113/72 160/131/72 140/116/72 136/104/72
f 137/132/31 139/107/31 144/109/31
f 137/132/31 144/109/31 142/145/31
f 161/134/39 138/106/39 152/135/39
f 138/106/39 161/134/39 157/125/39 145/110/39
f 162/149/73 155/150/73 143/151/73 146/141/73
f 162/149/73 146/141/73 158/147/73
f 163/103/74 164/104/74 165/105/74
f 166/106/75 167/107/75 168/108/75
f 169/110/76 170/139/76 171/140/76
f 172/109/77 173/110/77 174/141/77
f 175/112/78 176/113/78 164/104/78 163/103/78
f 175/112/78 163/103/78 177/114/78
f 178/115/79 168/116/79 179/117/79
f 168/116/79 178/115/79 180/118/79 166/119/79
f 164/104/80 168/116/80 167/120/80
f 164/104/81 167/120/81 165/105/81
f 181/142/82 182/143/82 169/110/82 171/140/82
f 181/142/82 171/140/82 183/144/82
f 170/145/83 172/109/83 174/141/83
f 170/145/84 174/141/84 171/146/84
f 184/124/85 173/110/85 185/125/85
f 173/110/85 184/124/85 186/147/85 174/141/85
f 165/105/86 170/139/86 169/110/86
f 165/105/87 169/110/87 163/103/87
f 166/106/88 173/110/88 172/109/88
f 166/106/89 172/109/89 167/107/89
f 187/148/90 177/114/90 163/103/90 169/110/90
f 187/148/90 169/110/90 182/143/90
f 188/131/91 179/117/91 168/116/91
f 176/113/91 188/131/91 168/116/91 164/104/91
f 165/132/31 167/107/31 172/109/31
f 165/132/31 172/109/31 170/145/31
f 189/134/92 166/106/92 180/135/92
f 166/106/92 189/134/92 185/125/92 173/110/92
f 190/149/93 183/150/93 171/151/93 174/141/93
f 190/149/93 174/141/93 186/147/93
f 191/152/94 192/104/94 193/105/94
f 194/106/95 195/107/95 196/108/95
f 197/110/96 198/139/96 199/140/96
f 200/109/97 201/110/97 202/111/97
f 203/153/98 204/154/98 192/104/98 191/152/98
f 203/153/98 191/152/98 205/155/98
f 206/115/99 196/116/99 207/117/99
f 196/116/99 206/115/99 208/118/99 194/119/99
f 192/104/100 196/116/100 195/120/100
f 192/104/100 195/120/100 193/105/100
f 209/156/101 210/157/101 197/110/101 199/140/101
f 209/156/101 199/140/101 211/144/101
f 198/145/102 200/109/102 202/111/102
f 198/145/102 202/111/102 199/146/102
f 212/124/103 201/110/103 213/125/103
f 201/110/103 212/124/103 214/126/103 202/111/103
f 193/105/104 198/139/104 197/110/104
f 193/105/105 197/110/105 191/152/105
f 194/106/106 201/110/106 200/109/106
f 194/106/107 200/109/107 195/107/107
f 215/148/108 205/155/108 191/152/108 197/110/108
f 215/148/108 197/110/108 210/157/108
f 216/158/109 207/117/109 196/116/109
f 204/154/109 216/158/109 196/116/109 192/104/109
f 193/132/31 195/107/31 200/109/31
f 193/132/31 200/109/31 198/145/31
f 217/134/110 194/106/110 208/135/110
f 194/106/110 217/134/110 213/125/110 201/110/110
f 218/136/111 211/150/111 199/151/111 202/111/111
f 218/136/111 202/111/111 214/126/111
f 219/159/112 220/160/112 221/161/112 222/162/112
f 219/159/112 222/162/112 223/163/112
f 221/164/113 224/165/113 225/166/113
f 221/164/113 225/166/113 222/167/113
f 224/165/114 226/168/114 227/169/114
f 224/165/114 227/169/114 225/166/114
f 226/168/115 228/64/115 229/170/115
f 226/168/115 229/170/115 227/169/115
f 228/64/116 230/171/116 231/172/116
f 228/64/116 231/172/116 229/170/116
f 232/173/117 230/171/117 233/174/117
f 230/171/117 232/173/117 234/175/117 231/172/117
f 223/163/118 222/162/118 235/176/118
f 222/167/119 225/166/119 236/177/119
f 235/178/120 222/167/120 236/177/120 237/179/120
f 225/166/121 227/169/121 238/180/121
f 225/166/122 238/180/122 236/177/122
f 227/169/123 229/170/123 239/65/123
f 227/169/124 239/65/124 238/180/124
f 229/170/125 231/172/125 240/181/125
f 229/170/126 240/181/126 239/65/126
f 241/182/127 231/172/127 234/175/127
f 231/172/128 241/182/128 242/183/128 240/181/128
f 243/184/37 233/185/37 230/186/37 228/64/37
f 228/64/37 226/187/37 224/188/37
f 244/189/37 224/188/37 221/190/37 220/191/37
f 245/192/37 243/184/37 228/64/37
f 246/193/37 228/64/37 224/188/37 244/189/37
f 247/194/37 245/192/37 228/64/37 246/193/37
f 248/195/31 237/196/31 236/197/31 238/198/31
f 238/198/31 239/199/31 240/200/31
f 249/201/31 240/200/31 242/202/31
f 250/203/31 248/195/31 238/198/31
f 251/204/31 252/205/31 238/198/31
f 251/204/31 238/198/31 240/200/31
f 251/204/31 240/200/31 249/201/31
f 250/203/31 238/198/31 252/205/31
