# Authored in Blender; exported by tools-export-modern.py
mtllib materials.mtl
s off
v 1.000000000 0.073007128 0.699766425
v 0.081780154 0.000000000 0.660743277
v 0.000000000 0.000000000 0.660743277
v 0.000000000 0.098569393 0.713429749
v 1.000000000 0.098569393 0.713429749
v 1.000000000 0.000000000 0.660743277
v 1.000000000 0.219517352 0.812689195
v 0.000000000 0.149826791 0.755495617
v 0.000000000 0.241922855 0.831076920
v 1.000000000 0.241922855 0.831076920
v 1.000000000 0.341182502 0.952025030
v 0.000000000 0.283988809 0.882334382
v 0.000000000 0.359570265 0.974430561
v 1.000000000 0.359570265 0.974430561
v 1.000000000 0.373237414 1.000000000
v 0.000000000 0.373237414 1.000000000
v 1.000000000 0.345454851 0.965165209
v 0.000000000 0.342421610 0.964684801
v 0.000000000 0.340220690 0.964336216
v 1.000000000 0.340220690 0.964336216
v 1.000000000 0.346366644 0.965309620
v 0.000000000 0.346366644 0.965309620
v 0.000000000 0.320155583 0.931913752
v 1.000000000 0.319675145 0.934946994
v 1.000000000 0.319530725 0.935858786
v 0.000000000 0.319530725 0.935858786
v 0.000000000 0.320504189 0.929712832
v 1.000000000 0.320504189 0.929712832
v 1.000000000 0.406820121 0.916755696
v 0.000000000 0.406339683 0.919788938
v 0.000000000 0.405991077 0.921989858
v 1.000000000 0.405991077 0.921989858
v 1.000000000 0.406964540 0.915843904
v 0.000000000 0.406964540 0.915843904
v 0.000000000 0.384073656 0.887017889
v 1.000000000 0.381040415 0.886537481
v 1.000000000 0.380128622 0.886393070
v 0.000000000 0.380128622 0.886393070
v 0.000000000 0.386274576 0.887366474
v 1.000000000 0.386274576 0.887366474
v 1.000000000 0.397145403 0.928416628
v 0.000000000 0.367718681 0.949796430
v 1.000000000 0.322600217 0.940083599
v 0.000000000 0.332811431 0.954138197
v 0.000000000 0.358776585 0.901906260
v 1.000000000 0.329349863 0.923286062
v 1.000000000 0.389344068 0.891591287
v 0.000000000 0.399555281 0.905645884
v 1.000000000 0.142375389 0.752640176
v 0.000000000 0.139342148 0.753120585
v 0.000000000 0.137141228 0.753469169
v 1.000000000 0.137141228 0.753469169
v 1.000000000 0.143287182 0.752495766
v 0.000000000 0.143287182 0.752495766
v 0.000000000 0.108038940 0.728834112
v 1.000000000 0.108519378 0.731867353
v 1.000000000 0.108663797 0.732779145
v 0.000000000 0.108663797 0.732779145
v 0.000000000 0.107690334 0.726633191
v 1.000000000 0.107690334 0.726633191
v 1.000000000 0.185777841 0.687637051
v 0.000000000 0.186258278 0.690670292
v 0.000000000 0.186606884 0.692871213
v 1.000000000 0.186606884 0.692871213
v 1.000000000 0.185633421 0.686725259
v 0.000000000 0.185633421 0.686725259
v 0.000000000 0.154955070 0.666383819
v 1.000000000 0.151921829 0.666864228
v 1.000000000 0.151010036 0.667008638
v 0.000000000 0.151010036 0.667008638
v 0.000000000 0.157155991 0.666035235
v 1.000000000 0.157155991 0.666035235
v 1.000000000 0.180180123 0.701716905
v 0.000000000 0.158800350 0.731143686
v 1.000000000 0.112888610 0.735848645
v 0.000000000 0.126943208 0.746059889
v 0.000000000 0.135496868 0.688360718
v 1.000000000 0.114117095 0.717787499
v 1.000000000 0.161380803 0.669104735
v 0.000000000 0.175435401 0.679315978
v 0.128000259 0.007499933 0.893239975
v 0.166500092 0.007499933 0.931739986
v 0.166500092 0.046000004 0.893239975
v 0.617500305 0.007499933 0.931739986
v 0.656000137 0.007499933 0.893239975
v 0.617500305 0.046000004 0.893239975
v 0.656000137 0.007499933 0.574239969
v 0.617500305 0.007499933 0.535739958
v 0.617500305 0.046000004 0.574239969
v 0.128000259 0.007499933 0.574239969
v 0.166500092 0.046000004 0.574239969
v 0.166500092 0.007499933 0.535739958
v 0.128847022 0.000000000 0.894086742
v 0.166500092 0.000000000 0.931739986
v 0.128000259 0.000000000 0.893239975
v 0.618347068 0.000000000 0.930893219
v 0.656000137 0.000000000 0.893239975
v 0.617500305 0.000000000 0.931739986
v 0.655153374 0.000000000 0.573393202
v 0.617500305 0.000000000 0.535739958
v 0.656000137 0.000000000 0.574239969
v 0.165653328 0.000000000 0.536586725
v 0.128000259 0.000000000 0.574239969
v 0.166500092 0.000000000 0.535739958
v 0.607581033 0.000000000 0.931739986
v 0.128000259 0.000000000 0.886223907
v 0.656000137 0.000000000 0.581256037
v 0.176419364 0.000000000 0.535739958
v 0.106000423 0.037750006 0.528039992
v 0.125250340 0.037750006 0.547289968
v 0.125250340 0.056999922 0.528039992
v 0.658750057 0.037750006 0.547289968
v 0.677999973 0.037750006 0.528039992
v 0.658750057 0.056999922 0.528039992
v 0.658750057 0.037750006 0.508790016
v 0.125250340 0.037750006 0.508790016
v 0.107810347 0.000000000 0.529849921
v 0.125250340 0.000000000 0.547289968
v 0.106000423 0.000000000 0.528039992
v 0.660559981 0.000000000 0.545480038
v 0.677999973 0.000000000 0.528039992
v 0.658750057 0.000000000 0.547289968
v 0.676190049 0.000000000 0.526230062
v 0.658750057 0.000000000 0.508790016
v 0.123440416 0.000000000 0.510599946
v 0.125250340 0.000000000 0.508790016
v 0.608589116 0.000000000 0.547289968
v 0.175411281 0.000000000 0.508790016
vt 0.472537892 0.093469662
vt 0.429061565 0.088947711
vt 0.425189398 0.088947711
vt 0.425189398 0.095052950
vt 0.472537892 0.095052950
vt 0.472537892 0.088947711
vt 0.472537892 0.102544270
vt 0.425189398 0.098227750
vt 0.425189398 0.103932030
vt 0.472537892 0.103932030
vt 0.472537892 0.096440705
vt 0.425189398 0.100757233
vt 0.425189398 0.095052943
vt 0.472537892 0.095052943
vt 0.472537892 0.103932038
vt 0.425189398 0.103932038
vt 0.472537892 0.093469211
vt 0.425189398 0.093469211
vt 0.478955233 0.009202243
vt 0.422783894 0.011226506
vt 0.422783926 0.013744460
vt 0.478955310 0.015190362
vt 0.478520591 0.008825556
vt 0.420903335 0.009596704
vt 0.420944045 0.116897167
vt 0.478530046 0.111113554
vt 0.478530046 0.109375000
vt 0.420944045 0.109375000
vt 0.420944035 0.121093755
vt 0.478530020 0.121093751
vt 0.478520616 0.120166527
vt 0.420903345 0.117081927
vt 0.420903335 0.114843741
vt 0.478520591 0.114843741
vt 0.479663995 0.121093756
vt 0.425850381 0.121093753
vt 0.420944043 0.111333409
vt 0.478529999 0.114032419
vt 0.478529991 0.114843741
vt 0.420944005 0.114843741
vt 0.419917575 0.111473299
vt 0.476088885 0.114365100
vt 0.478520591 0.099312668
vt 0.420903335 0.047645765
vt 0.478955284 0.095031937
vt 0.422783916 0.047317164
vt 0.420944015 0.077354225
vt 0.478530016 0.025687323
vt 0.478530016 0.010156249
vt 0.420944015 0.010156249
vt 0.476088880 0.100456674
vt 0.419917556 0.051295999
vt 0.420944035 0.015625001
vt 0.478530020 0.015625000
vt 0.390299469 0.110300168
vt 0.385314912 0.110300168
vt 0.389350057 0.121093750
vt 0.487548798 0.110300168
vt 0.496093750 0.110300168
vt 0.487548828 0.121093750
vt 0.487548858 0.110300168
vt 0.486836731 0.115397133
vt 0.484700531 0.110300168
vt 0.484700531 0.121093750
vt 0.390299499 0.110300168
vt 0.390299469 0.121093750
vt 0.387451142 0.110300168
vt 0.387451172 0.109700523
vt 0.390236824 0.108138192
vt 0.385361896 0.108138192
vt 0.390174179 0.108204134
vt 0.487736735 0.108206333
vt 0.496093750 0.108206333
vt 0.487548799 0.108138192
vt 0.487548857 0.108197540
vt 0.487548799 0.108197540
vt 0.487486213 0.108197540
vt 0.495843169 0.108197540
vt 0.484700531 0.108197540
vt 0.496093750 0.108197540
vt 0.485347257 0.108138192
vt 0.392375721 0.108197540
vt 0.485409961 0.108197540
vt 0.390299499 0.108197540
vt 0.389652685 0.108197540
vt 0.387451142 0.108197540
vt 0.387451172 0.015299479
vt 0.487548828 0.015299479
vt 0.437500000 0.115966797
vt 0.381864071 0.115966789
vt 0.419283360 0.121093750
vt 0.492149949 0.115966804
vt 0.496093750 0.115966797
vt 0.492149949 0.121093750
vt 0.452148438 0.115966797
vt 0.492149889 0.115966789
vt 0.478487462 0.091796875
vt 0.437500000 0.121093750
vt 0.382850081 0.115966804
vt 0.382850051 0.062500015
vt 0.432361679 0.105792128
vt 0.381956775 0.105792121
vt 0.434745437 0.108426179
vt 0.492520755 0.109264032
vt 0.496093750 0.109264025
vt 0.492149949 0.105792135
vt 0.455909471 0.105912640
vt 0.492149889 0.105912633
vt 0.450771156 0.105912640
vt 0.490584623 0.105912640
vt 0.437500000 0.105912640
vt 0.496093750 0.105912641
vt 0.481873307 0.105792135
vt 0.393126715 0.105912647
vt 0.382850081 0.105912647
vn 0.000000000 0.471396969 -0.881921140
vn 0.000000000 0.634393365 -0.773010387
vn 0.000000000 0.773010145 -0.634393660
vn 0.000000000 0.881921274 -0.471396719
vn 0.000000000 -0.156431321 0.987688838
vn -0.000000000 -0.987687358 -0.156440666
vn -0.000000000 0.987687358 0.156440666
vn 0.000000000 0.156431321 -0.987688838
vn -0.000000000 0.587785919 0.809016510
vn 0.000000000 -0.809018344 0.587783394
vn -0.000000000 -0.587785919 -0.809016510
vn 0.000000000 0.809018344 -0.587783394
vn -0.000000000 0.156431321 0.987688838
vn 0.000000000 -0.987687358 0.156440666
vn 0.000000000 0.987687358 -0.156440666
vn -0.000000000 -0.156431321 -0.987688838
vn -0.000000000 0.809017453 0.587784621
vn 0.000000000 -0.587784502 0.809017539
vn -0.000000000 -0.809017453 -0.587784621
vn 0.000000000 0.587784502 -0.809017539
vn -0.577352355 0.577348779 0.577349673
vn 0.577352355 0.577348779 0.577349673
vn 0.577352355 0.577348779 -0.577349673
vn -0.577352355 0.577348779 -0.577349673
vn -0.707108971 0.707104592 0.000000000
vn -0.000000000 0.707106234 0.707107329
vn 0.707108971 0.707104592 0.000000000
vn 0.000000000 0.707106234 -0.707107329
vn -0.707108423 0.000000000 0.707105139
vn 0.707108423 -0.000000000 0.707105139
vn 0.707108423 0.000000000 -0.707105139
vn -0.707108423 0.000000000 -0.707105139
vn 0.000000000 0.000000000 1.000000000
vn -1.000000000 0.000000000 0.000000000
vn 1.000000000 0.000000000 0.000000000
vn 0.000000000 0.000000000 -1.000000000
vn -0.000000000 1.000000000 0.000000000
vn -0.577350865 0.577350865 0.577349077
vn 0.577350865 0.577350865 0.577349077
vn 0.577350865 0.577350865 -0.577349077
vn -0.577350865 0.577350865 -0.577349077
vn -0.000000000 0.707107876 0.707105686
vn 0.000000000 0.707107876 -0.707105686
vn -0.707107876 0.000000000 0.707105686
vn 0.707107876 -0.000000000 0.707105686
vn 0.707107876 0.000000000 -0.707105686
vn -0.707107876 0.000000000 -0.707105686
usemtl mat_5
f 1/1/1 2/2/1 3/3/1
f 1/1/1 3/3/1 4/4/1
f 1/1/1 4/4/1 5/5/1
f 6/6/1 2/2/1 1/1/1
f 7/7/2 8/8/2 9/9/2 10/10/2
f 5/5/2 4/4/2 8/8/2 7/7/2
f 11/11/3 12/12/3 13/13/3 14/14/3
f 10/15/3 9/16/3 12/12/3 11/11/3
f 15/17/4 14/14/4 13/13/4 16/18/4
f 17/19/5 18/20/5 19/21/5 20/22/5
f 18/20/5 17/19/5 21/23/5 22/24/5
f 23/25/6 24/26/6 25/27/6 26/28/6
f 24/26/6 23/25/6 27/29/6 28/30/6
f 29/31/7 30/32/7 31/33/7 32/34/7
f 30/32/7 29/31/7 33/35/7 34/36/7
f 35/37/8 36/38/8 37/39/8 38/40/8
f 36/38/8 35/37/8 39/41/8 40/42/8
f 41/43/9 42/44/9 22/24/9 21/23/9
f 42/44/9 41/43/9 32/34/9 31/33/9
f 43/45/10 44/46/10 26/28/10 25/27/10
f 20/22/10 19/21/10 44/46/10 43/45/10
f 45/47/11 46/48/11 28/49/11 27/50/11
f 46/48/11 45/47/11 38/40/11 37/39/11
f 47/51/12 48/52/12 34/53/12 33/54/12
f 48/52/12 47/51/12 40/42/12 39/41/12
f 49/19/13 50/20/13 51/21/13 52/22/13
f 50/20/13 49/19/13 53/23/13 54/24/13
f 55/25/14 56/26/14 57/27/14 58/28/14
f 56/26/14 55/25/14 59/29/14 60/30/14
f 61/31/15 62/32/15 63/33/15 64/34/15
f 62/32/15 61/31/15 65/35/15 66/36/15
f 67/37/16 68/38/16 69/39/16 70/40/16
f 68/38/16 67/37/16 71/41/16 72/42/16
f 73/43/17 74/44/17 54/24/17 53/23/17
f 74/44/17 73/43/17 64/34/17 63/33/17
f 75/45/18 76/46/18 58/28/18 57/27/18
f 52/22/18 51/21/18 76/46/18 75/45/18
f 77/47/19 78/48/19 60/49/19 59/50/19
f 78/48/19 77/47/19 70/40/19 69/39/19
f 79/51/20 80/52/20 66/53/20 65/54/20
f 80/52/20 79/51/20 72/42/20 71/41/20
f 81/55/21 82/56/21 83/57/21
f 84/58/22 85/59/22 86/60/22
f 87/61/23 88/58/23 89/62/23
f 90/63/24 91/64/24 92/59/24
f 83/57/25 91/64/25 90/63/25
f 83/57/25 90/63/25 81/55/25
f 82/56/26 84/58/26 86/60/26
f 82/56/26 86/60/26 83/57/26
f 85/65/27 87/61/27 89/62/27
f 85/65/27 89/62/27 86/66/27
f 88/58/28 92/67/28 91/68/28
f 88/58/28 91/68/28 89/62/28
f 93/69/29 94/70/29 82/56/29 81/55/29
f 93/69/29 81/55/29 95/71/29
f 96/72/30 97/73/30 85/59/30 84/58/30
f 96/72/30 84/58/30 98/74/30
f 99/75/31 100/76/31 88/58/31 87/61/31
f 99/75/31 87/61/31 101/77/31
f 102/78/32 103/79/32 90/63/32 92/59/32
f 102/78/32 92/59/32 104/80/32
f 105/81/33 98/74/33 84/58/33
f 94/70/33 105/81/33 84/58/33 82/56/33
f 106/82/34 95/71/34 81/55/34
f 103/79/34 106/82/34 81/55/34 90/63/34
f 107/83/35 101/77/35 87/61/35
f 97/84/35 107/83/35 87/61/35 85/65/35
f 108/85/36 104/86/36 92/67/36
f 100/76/36 108/85/36 92/67/36 88/58/36
f 83/87/37 86/88/37 89/62/37
f 83/87/37 89/62/37 91/68/37
f 109/89/38 110/90/38 111/91/38
f 112/92/39 113/93/39 114/94/39
f 113/95/40 115/96/40 114/97/40
f 109/89/41 111/98/41 116/93/41
f 110/90/42 112/92/42 114/94/42
f 110/90/42 114/94/42 111/91/42
f 115/96/43 116/99/43 111/100/43
f 115/96/43 111/100/43 114/97/43
f 117/101/44 118/102/44 110/90/44 109/89/44
f 117/101/44 109/89/44 119/103/44
f 120/104/45 121/105/45 113/93/45 112/92/45
f 120/104/45 112/92/45 122/106/45
f 123/107/46 124/108/46 115/96/46 113/95/46
f 123/107/46 113/95/46 121/109/46
f 125/110/47 119/111/47 109/89/47 116/93/47
f 125/110/47 116/93/47 126/112/47
f 127/113/33 122/106/33 112/92/33
f 118/102/33 127/113/33 112/92/33 110/90/33
f 128/114/36 126/115/36 116/99/36
f 124/108/36 128/114/36 116/99/36 115/96/36
