# Authored in Blender; exported by tools-export-modern.py
mtllib materials.mtl
s off
v 0.557499886 0.572999954 0.876300037
v 0.557499886 0.694677830 0.888284266
v 0.667499781 0.744894028 0.635830045
v 0.667499781 0.572999954 0.618900001
v 0.557499886 0.811679721 0.923776388
v 0.667499781 0.910182357 0.685969770
v 0.640085503 1.000000000 0.806366339
v 0.557499886 0.919509053 0.981412411
v 0.619414285 1.000000000 0.860949214
v 0.667499781 1.000000000 0.733978283
v 0.573257131 1.000000000 1.000000000
v 0.589518935 1.000000000 0.951010526
v 0.557499886 0.942158149 1.000000000
v 0.617375694 0.000000000 1.000000000
v 0.593143767 0.072999954 1.000000000
v 0.637262327 0.000000000 0.927000046
v 0.579749002 0.122169533 1.000000000
v 0.557499886 0.203841788 1.000000000
v 0.557499886 0.226490855 0.981412411
v 0.667499781 0.083487034 0.767392099
v 0.667499781 0.000000000 0.835908135
v 0.557499886 0.334320307 0.923776388
v 0.667499781 0.235817671 0.685969770
v 0.557499886 0.451322198 0.888284266
v 0.667499781 0.401106000 0.635830045
v 0.799499989 0.766139507 0.529022634
v 0.799499989 0.572999954 0.509999990
v 0.799499989 0.951856613 0.585359275
v 0.723205419 1.000000000 0.682119066
v 0.799499989 1.000000000 0.611092477
v 0.757947023 0.000000000 0.739842814
v 0.799499989 0.022985458 0.676845133
v 0.799499989 0.000000000 0.695708813
v 0.799499989 0.194143414 0.585359275
v 0.799499989 0.379860520 0.529022634
v 1.000000000 0.601163214 0.512773838
v 1.000000000 0.766139507 0.529022634
v 1.000000000 0.572999954 0.509999990
v 1.000000000 0.793220440 0.537237541
v 1.000000000 0.951856613 0.585359275
v 1.000000000 1.000000000 0.611092477
v 1.000000000 0.976814539 0.598699578
v 1.000000000 0.000000000 0.695708813
v 1.000000000 0.022985458 0.676845133
v 1.000000000 0.047943402 0.663504831
v 1.000000000 0.194143414 0.585359275
v 1.000000000 0.221224347 0.577144368
v 1.000000000 0.379860520 0.529022634
v 1.000000000 0.408023763 0.526248787
v 0.557499886 0.220243538 1.000000000
v 0.557499886 0.925756490 1.000000000
v 0.557499886 0.274361729 1.000000000
v 0.557499886 0.871638261 1.000000000
v 0.557499886 0.449299991 1.000000000
v 0.557499886 0.696699953 1.000000000
v 0.557499886 0.572999954 1.000000000
v 0.628999949 0.572999954 0.465449929
v 0.628999949 0.774830580 0.485328555
v 0.750000000 0.774830580 0.485328555
v 0.750000000 0.572999954 0.465449929
v 0.628999949 0.968905091 0.544200420
v 0.750000000 0.968905091 0.544200420
v 0.650035866 1.000000000 0.560820994
v 0.628999949 1.000000000 0.560820994
v 0.750000000 1.000000000 0.560820994
v 0.630194152 0.000000000 0.638859566
v 0.628999949 0.000000000 0.638859566
v 0.628999949 0.177094936 0.544200420
v 0.750000000 0.177094936 0.544200420
v 0.750000000 0.000000000 0.638859566
v 0.628999949 0.371169329 0.485328555
v 0.750000000 0.371169329 0.485328555
v 0.628999949 0.000000000 0.662531415
v 0.628999949 1.000000000 0.564977371
v 0.628999949 0.000000000 0.702794313
v 0.628999949 1.000000000 0.642319163
v 0.628999949 0.000000000 1.000000000
v 0.628999949 0.038449914 1.000000000
v 0.628999949 1.000000000 0.892449926
v 0.628999949 0.572999954 1.000000000
v 0.628999949 1.000000000 1.000000000
v 0.750000000 1.000000000 0.578596780
v 0.750000000 0.000000000 0.639071921
v 0.750000000 1.000000000 0.610410786
v 0.750000000 0.000000000 0.733335975
v 0.750000000 1.000000000 0.905499820
v 0.750000000 0.027276871 1.000000000
v 0.750000000 0.000000000 1.000000000
v 0.750000000 0.473543813 1.000000000
v 0.750000000 1.000000000 1.000000000
v 0.624599934 0.748756886 0.654910564
v 0.624599934 0.782098889 0.635660529
v 0.593799949 0.782098889 0.635660529
v 0.593799949 0.748756886 0.654910564
v 0.624599934 0.782098889 0.597160578
v 0.593799949 0.782098889 0.597160578
v 0.624599934 0.748756886 0.577910542
v 0.593799949 0.748756886 0.577910542
v 0.624599934 0.715414882 0.597160578
v 0.593799949 0.715414882 0.597160578
v 0.624599934 0.715414882 0.635660529
v 0.593799949 0.715414882 0.635660529
v 0.624599934 0.397243142 0.654910564
v 0.624599934 0.430585146 0.635660529
v 0.593799949 0.430585146 0.635660529
v 0.593799949 0.397243142 0.654910564
v 0.624599934 0.430585146 0.597160578
v 0.593799949 0.430585146 0.597160578
v 0.624599934 0.397243142 0.577910542
v 0.593799949 0.397243142 0.577910542
v 0.624599934 0.363901138 0.597160578
v 0.593799949 0.363901138 0.597160578
v 0.624599934 0.363901138 0.635660529
v 0.593799949 0.363901138 0.635660529
v 0.624599934 0.072486758 0.789429069
v 0.624599934 0.105828762 0.770179033
v 0.593799949 0.105828762 0.770179033
v 0.593799949 0.072486758 0.789429069
v 0.624599934 0.105828762 0.731679082
v 0.593799949 0.105828762 0.731679082
v 0.624599934 0.072486758 0.712429047
v 0.593799949 0.072486758 0.712429047
v 0.624599934 0.039144754 0.731679082
v 0.593799949 0.039144754 0.731679082
v 0.624599934 0.039144754 0.770179033
v 0.593799949 0.039144754 0.770179033
v 0.752199888 0.064800024 0.911280036
v 0.765399814 0.064800024 0.924480021
v 0.765399814 0.078000069 0.911280036
v 0.752199888 0.064800024 0.607679963
v 0.765399814 0.078000069 0.607679963
v 0.765399814 0.064800024 0.594479978
v 1.000000000 0.077833413 0.911446690
v 1.000000000 0.064800024 0.924480021
v 1.000000000 0.078000069 0.911280036
v 1.000000000 0.064966679 0.594646633
v 1.000000000 0.064800024 0.594479978
v 1.000000000 0.078000069 0.607679963
v 0.753350178 0.000000000 0.912430331
v 0.765399814 0.000000000 0.924480021
v 0.752199888 0.000000000 0.911280036
v 0.764249524 0.000000000 0.595630273
v 0.752199888 0.000000000 0.607679963
v 0.765399814 0.000000000 0.594479978
v 1.000000000 0.000000000 0.924480021
v 1.000000000 0.055411814 0.924480021
v 0.982294452 0.000000000 0.924480021
v 0.752199888 0.000000000 0.884823215
v 0.786105144 0.000000000 0.594479978
v 1.000000000 0.000000000 0.594479978
v 1.000000000 0.078000069 0.611513020
vt 0.349414051 0.062500000
vt 0.348704755 0.069701575
vt 0.363646418 0.072673649
vt 0.364648432 0.062500000
vt 0.346604139 0.076626405
vt 0.360678881 0.082456343
vt 0.353553130 0.087772256
vt 0.343192905 0.083008349
vt 0.350322603 0.087772256
vt 0.357837465 0.087772256
vt 0.342092795 0.087772253
vt 0.344992260 0.087772255
vt 0.342092791 0.084348848
vt 0.342092793 0.028586650
vt 0.342092800 0.032907196
vt 0.346413341 0.028586649
vt 0.342092804 0.035817328
vt 0.342092791 0.040651149
vt 0.343192905 0.041991647
vt 0.355859846 0.033527881
vt 0.351804674 0.028586649
vt 0.346604139 0.048373599
vt 0.360678881 0.042543657
vt 0.348704755 0.055298425
vt 0.363646418 0.052326348
vt 0.261008531 0.062500000
vt 0.261008531 0.072673649
vt 0.269531250 0.073931076
vt 0.269531250 0.062500000
vt 0.261008531 0.082456343
vt 0.269531250 0.084922858
vt 0.264605218 0.087772256
vt 0.261008531 0.087772256
vt 0.269531250 0.087772254
vt 0.357490367 0.028586646
vt 0.361218929 0.029947054
vt 0.360102467 0.028586646
vt 0.261008531 0.033527881
vt 0.261008531 0.042543657
vt 0.269531250 0.040077142
vt 0.269531250 0.029947054
vt 0.261008531 0.052326348
vt 0.269531250 0.051068924
vt 0.282476757 0.064166859
vt 0.282476757 0.073931076
vt 0.282476757 0.062500000
vt 0.282476757 0.075533877
vt 0.282476757 0.084922858
vt 0.282476757 0.087772254
vt 0.282476757 0.086400008
vt 0.282476757 0.028586646
vt 0.269531250 0.028586646
vt 0.282476757 0.029947054
vt 0.282476757 0.031424205
vt 0.282476757 0.040077142
vt 0.282476757 0.041679944
vt 0.282476757 0.051068924
vt 0.282476757 0.052735783
vt 0.342092801 0.041621897
vt 0.342092801 0.083378105
vt 0.342092800 0.044824915
vt 0.342092800 0.080175085
vt 0.342092795 0.055178742
vt 0.342092795 0.069821258
vt 0.342092795 0.062500000
vt 0.253906250 0.062499996
vt 0.253906250 0.073931068
vt 0.371093750 0.073931068
vt 0.371093750 0.062499996
vt 0.253906250 0.084922850
vt 0.371093750 0.084922850
vt 0.274279353 0.086683970
vt 0.253906250 0.086683970
vt 0.371093750 0.086683970
vt 0.255062826 0.030047034
vt 0.253906250 0.030047034
vt 0.253906250 0.040077146
vt 0.371093750 0.040077146
vt 0.371093750 0.030047034
vt 0.253906250 0.051068924
vt 0.371093750 0.051068924
vt 0.369967878 0.051068924
vt 0.366633564 0.040077146
vt 0.359931651 0.030047033
vt 0.361272369 0.030047034
vt 0.365456820 0.086683971
vt 0.365692227 0.086683970
vt 0.366633564 0.084922850
vt 0.369967878 0.073931068
vt 0.357651280 0.030047034
vt 0.361076410 0.086683971
vt 0.340818469 0.030047033
vt 0.340818470 0.032224718
vt 0.346909777 0.086683971
vt 0.340818472 0.062499996
vt 0.340818470 0.086683971
vt 0.364685462 0.086683971
vt 0.361260342 0.030047034
vt 0.362883617 0.086683969
vt 0.355921509 0.030047030
vt 0.346170663 0.086683972
vt 0.340818469 0.031591909
vt 0.340818470 0.030047031
vt 0.340818464 0.056867103
vt 0.340818463 0.086683972
vt 0.937500000 0.003906250
vt 0.996093750 0.003906250
vt 0.996093750 0.121093750
vt 0.937500000 0.121093750
vt 0.966796875 0.003906250
vt 0.908203125 0.003906250
vt 0.908203125 0.121093750
vt 0.966796875 0.121093750
vt 0.878906250 0.003906250
vt 0.878906250 0.121093750
vt 0.996093750 0.062500000
vt 0.878906250 0.062500000
vt 0.258593738 0.119084820
vt 0.258300811 0.119084820
vt 0.258984387 0.121093750
vt 0.366406232 0.119084820
vt 0.366406232 0.121093750
vt 0.371093750 0.119084820
vt 0.363884301 0.121068379
vt 0.363884301 0.119084828
vt 0.363892932 0.121093743
vt 0.363902825 0.119051010
vt 0.363902825 0.119084828
vt 0.259765655 0.119084828
vt 0.259765625 0.116406247
vt 0.364192053 0.118720415
vt 0.258568211 0.109222804
vt 0.258300811 0.109222804
vt 0.258491613 0.109281159
vt 0.370685265 0.109222804
vt 0.366406235 0.109222804
vt 0.371093750 0.109222804
vt 0.363884301 0.109185385
vt 0.363884301 0.117656021
vt 0.355915793 0.109222810
vt 0.267988916 0.109222804
vt 0.268956590 0.109222810
vt 0.259765652 0.109222810
vt 0.363902828 0.109222810
vt 0.364192053 0.117359245
vt 0.259765625 0.008593749
vt 0.363902766 0.008593749
vn -0.918863267 0.038675235 -0.392676103
vn -0.918863243 0.038675125 -0.392676171
vn -0.918863220 0.114539387 -0.377585901
vn -0.918863255 0.114539526 -0.377585772
vn -0.918863252 0.186002011 -0.347985023
vn -0.918863214 0.186001891 -0.347985187
vn -0.918863178 0.250316210 -0.305011893
vn -0.918863253 0.250316377 -0.305011531
vn -0.918863217 -0.305011514 -0.250316531
vn -0.918863257 -0.250316283 -0.305011596
vn -0.918863215 -0.250316500 -0.305011544
vn -0.918863214 -0.186001893 -0.347985187
vn -0.918863241 -0.186001748 -0.347985192
vn -0.918863261 -0.114539359 -0.377585808
vn -0.918863226 -0.114539546 -0.377585838
vn -0.918863238 -0.038675279 -0.392676168
vn -0.918863264 -0.038675146 -0.392676119
vn -0.634553341 0.075755198 -0.769157466
vn -0.634553697 0.075755596 -0.769157133
vn -0.634553760 0.224355092 -0.739598755
vn -0.634553466 0.224354824 -0.739599089
vn -0.634553396 0.364332549 -0.681618501
vn -0.634553748 0.364332787 -0.681618046
vn -0.634553418 -0.490309245 -0.597443558
vn -0.634553382 -0.490309297 -0.597443553
vn -0.634553781 -0.364332178 -0.681618341
vn -0.634553406 -0.364332722 -0.681618400
vn -0.634553449 -0.224355166 -0.739598999
vn -0.634553743 -0.224354758 -0.739598871
vn -0.634553715 -0.075755220 -0.769157155
vn -0.634553364 -0.075755669 -0.769157401
vn 0.000000000 0.098017436 -0.995184698
vn 0.000000000 0.290284551 -0.956940374
vn 0.000000000 0.471397090 -0.881921076
vn 0.000000000 -0.634393318 -0.773010425
vn 0.000000000 -0.471396835 -0.881921212
vn 0.000000000 -0.290284551 -0.956940374
vn 0.000000000 -0.098017496 -0.995184692
vn -1.000000000 0.000000000 0.000000000
vn 0.000000000 0.098017357 -0.995184705
vn 0.000000000 0.290284704 -0.956940328
vn 0.000000000 0.471396710 -0.881921279
vn 0.000000000 -0.471396465 -0.881921410
vn 0.000000000 -0.290284867 -0.956940278
vn 0.000000000 -0.098017357 -0.995184705
vn 1.000000000 -0.000000000 0.000000000
vn 0.000000000 0.500000397 0.866025174
vn 0.000000000 1.000000000 0.000000000
vn 0.000000000 0.500000397 -0.866025174
vn 0.000000000 -0.500000397 -0.866025174
vn 0.000000000 -1.000000000 0.000000000
vn 0.000000000 -0.500000397 0.866025174
vn -0.577352876 0.577347662 0.577350269
vn -0.577352876 0.577347662 -0.577350269
vn -0.707109974 0.707103588 0.000000000
vn -0.000000000 0.707105185 0.707108378
vn 0.000000000 0.707105185 -0.707108378
vn -0.707108378 0.000000000 0.707105185
vn -0.707108378 0.000000000 -0.707105185
vn 0.000000000 0.000000000 1.000000000
vn 0.000000000 0.000000000 -1.000000000
usemtl mat_0
f 1/1/1 2/2/1 3/3/1
f 1/1/2 3/3/2 4/4/2
f 2/2/3 5/5/3 6/6/3
f 2/2/4 6/6/4 3/3/4
f 7/7/5 5/5/5 8/8/5 9/9/5
f 5/5/6 7/7/6 10/10/6 6/6/6
f 11/11/7 12/12/7 8/8/7 13/13/7
f 9/9/8 8/8/8 12/12/8
f 14/14/9 15/15/9 16/16/9
f 17/17/10 18/18/10 19/19/10 20/20/10
f 16/16/11 15/15/11 17/17/11
f 16/16/11 17/17/11 20/20/11
f 16/16/11 20/20/11 21/21/11
f 19/19/12 22/22/12 23/23/12
f 19/19/13 23/23/13 20/20/13
f 22/22/14 24/24/14 25/25/14
f 22/22/15 25/25/15 23/23/15
f 24/24/16 1/1/16 4/4/16
f 24/24/17 4/4/17 25/25/17
f 4/26/18 3/27/18 26/28/18
f 4/26/19 26/28/19 27/29/19
f 3/27/20 6/30/20 28/31/20
f 3/27/21 28/31/21 26/28/21
f 29/32/22 6/30/22 10/33/22
f 6/30/23 29/32/23 30/34/23 28/31/23
f 31/35/24 21/21/24 20/20/24 32/36/24
f 31/35/25 32/36/25 33/37/25
f 20/38/26 23/39/26 34/40/26
f 20/38/27 34/40/27 32/41/27
f 23/39/28 25/42/28 35/43/28
f 23/39/29 35/43/29 34/40/29
f 25/42/30 4/26/30 27/29/30
f 25/42/31 27/29/31 35/43/31
f 36/44/32 27/29/32 26/28/32 37/45/32
f 38/46/32 27/29/32 36/44/32
f 39/47/33 26/28/33 28/31/33 40/48/33
f 37/45/33 26/28/33 39/47/33
f 41/49/34 42/50/34 28/31/34 30/34/34
f 40/48/34 28/31/34 42/50/34
f 43/51/35 33/52/35 32/41/35 44/53/35
f 45/54/36 32/41/36 34/40/36 46/55/36
f 44/53/36 32/41/36 45/54/36
f 47/56/37 34/40/37 35/43/37 48/57/37
f 46/55/37 34/40/37 47/56/37
f 49/58/38 35/43/38 27/29/38 38/46/38
f 48/57/38 35/43/38 49/58/38
f 1/1/39 24/24/39 22/22/39
f 50/59/39 22/22/39 19/19/39 18/18/39
f 51/60/39 13/13/39 8/8/39 5/5/39
f 5/5/39 2/2/39 1/1/39
f 52/61/39 1/1/39 22/22/39 50/59/39
f 53/62/39 51/60/39 5/5/39 1/1/39
f 54/63/39 1/1/39 52/61/39
f 55/64/39 53/62/39 1/1/39
f 56/65/39 1/1/39 54/63/39
f 56/65/39 55/64/39 1/1/39
f 57/66/40 58/67/40 59/68/40
f 57/66/40 59/68/40 60/69/40
f 58/67/41 61/70/41 62/71/41
f 58/67/41 62/71/41 59/68/41
f 63/72/42 61/70/42 64/73/42
f 61/70/42 63/72/42 65/74/42 62/71/42
f 66/75/43 67/76/43 68/77/43 69/78/43
f 66/75/43 69/78/43 70/79/43
f 68/77/44 71/80/44 72/81/44
f 68/77/44 72/81/44 69/78/44
f 71/80/45 57/66/45 60/69/45
f 71/80/45 60/69/45 72/81/45
f 57/69/39 71/82/39 68/83/39
f 73/84/39 68/83/39 67/85/39
f 74/86/39 64/87/39 61/88/39
f 61/88/39 58/89/39 57/69/39
f 75/90/39 57/69/39 68/83/39 73/84/39
f 76/91/39 74/86/39 61/88/39 57/69/39
f 77/92/39 78/93/39 57/69/39 75/90/39
f 79/94/39 76/91/39 57/69/39
f 80/95/39 57/69/39 78/93/39
f 80/95/39 81/96/39 79/94/39 57/69/39
f 72/82/46 60/69/46 59/89/46
f 82/97/46 59/89/46 62/88/46 65/87/46
f 83/98/46 70/85/46 69/83/46 72/82/46
f 84/99/46 72/82/46 59/89/46 82/97/46
f 85/100/46 83/98/46 72/82/46
f 86/101/46 72/82/46 84/99/46
f 87/102/46 88/103/46 85/100/46 72/82/46
f 89/104/46 72/82/46 86/101/46 90/105/46
f 89/104/46 87/102/46 72/82/46
usemtl mat_1
f 91/106/47 92/107/47 93/108/47
f 91/106/47 93/108/47 94/109/47
f 92/110/48 95/111/48 96/112/48
f 92/110/48 96/112/48 93/113/48
f 95/107/49 97/106/49 98/109/49
f 95/107/49 98/109/49 96/108/49
f 97/106/50 99/114/50 100/115/50
f 97/106/50 100/115/50 98/109/50
f 99/111/51 101/110/51 102/113/51
f 99/111/51 102/113/51 100/112/51
f 101/114/52 91/106/52 94/109/52
f 101/114/52 94/109/52 102/115/52
f 91/116/46 101/110/46 99/111/46
f 99/111/46 97/117/46 95/112/46
f 95/112/46 92/113/46 91/116/46
f 99/111/46 95/112/46 91/116/46
f 102/110/39 94/116/39 93/113/39
f 93/113/39 96/112/39 98/117/39
f 98/117/39 100/111/39 102/110/39
f 93/113/39 98/117/39 102/110/39
f 103/106/47 104/107/47 105/108/47
f 103/106/47 105/108/47 106/109/47
f 104/110/48 107/111/48 108/112/48
f 104/110/48 108/112/48 105/113/48
f 107/107/49 109/106/49 110/109/49
f 107/107/49 110/109/49 108/108/49
f 109/106/50 111/114/50 112/115/50
f 109/106/50 112/115/50 110/109/50
f 111/111/51 113/110/51 114/113/51
f 111/111/51 114/113/51 112/112/51
f 113/114/52 103/106/52 106/109/52
f 113/114/52 106/109/52 114/115/52
f 103/116/46 113/110/46 111/111/46
f 111/111/46 109/117/46 107/112/46
f 107/112/46 104/113/46 103/116/46
f 111/111/46 107/112/46 103/116/46
f 114/110/39 106/116/39 105/113/39
f 105/113/39 108/112/39 110/117/39
f 110/117/39 112/111/39 114/110/39
f 105/113/39 110/117/39 114/110/39
f 115/106/47 116/107/47 117/108/47
f 115/106/47 117/108/47 118/109/47
f 116/110/48 119/111/48 120/112/48
f 116/110/48 120/112/48 117/113/48
f 119/107/49 121/106/49 122/109/49
f 119/107/49 122/109/49 120/108/49
f 121/106/50 123/114/50 124/115/50
f 121/106/50 124/115/50 122/109/50
f 123/111/51 125/110/51 126/113/51
f 123/111/51 126/113/51 124/112/51
f 125/114/52 115/106/52 118/109/52
f 125/114/52 118/109/52 126/115/52
f 115/116/46 125/110/46 123/111/46
f 123/111/46 121/117/46 119/112/46
f 119/112/46 116/113/46 115/116/46
f 123/111/46 119/112/46 115/116/46
f 126/110/39 118/116/39 117/113/39
f 117/113/39 120/112/39 122/117/39
f 122/117/39 124/111/39 126/110/39
f 117/113/39 122/117/39 126/110/39
usemtl mat_0
f 127/118/53 128/119/53 129/120/53
f 130/121/54 131/122/54 132/123/54
f 129/120/55 131/122/55 130/121/55
f 129/120/55 130/121/55 127/118/55
f 133/124/56 128/119/56 134/125/56
f 128/119/56 133/124/56 135/126/56 129/120/56
f 136/127/57 137/128/57 132/129/57 131/130/57
f 136/127/57 131/130/57 138/131/57
f 139/132/58 140/133/58 128/119/58 127/118/58
f 139/132/58 127/118/58 141/134/58
f 142/135/59 143/136/59 130/121/59 132/123/59
f 142/135/59 132/123/59 144/137/59
f 145/138/60 146/139/60 147/140/60
f 140/133/60 147/140/60 146/139/60
f 140/133/60 146/139/60 134/125/60
f 140/133/60 134/125/60 128/119/60
f 148/141/39 141/134/39 127/118/39
f 143/136/39 148/141/39 127/118/39 130/121/39
f 149/142/61 144/143/61 132/129/61
f 150/144/61 149/142/61 132/129/61 137/128/61
f 151/145/48 129/146/48 135/147/48
f 129/146/48 151/145/48 138/131/48 131/130/48
