# Authored in Blender; exported by tools-export-modern.py
mtllib materials.mtl
s off
v 0.000000000 0.476030456 0.099421954
v 0.000000000 0.487640858 0.121143460
v 0.174499989 0.487640858 0.121143460
v 0.000000000 0.422888250 0.000000000
v 0.174499989 0.422888250 0.000000000
v 0.000000000 0.536827868 0.283291379
v 0.000000000 0.543977499 0.306860566
v 0.174499989 0.543977499 0.306860566
v 0.000000000 0.560585840 0.475488852
v 0.000000000 0.562999964 0.500000000
v 0.174499989 0.562999964 0.500000000
v 0.000000000 0.546391623 0.668628285
v 0.000000000 0.543977499 0.693139434
v 0.174499989 0.543977499 0.693139434
v 0.000000000 0.494790489 0.855287352
v 0.000000000 0.487640858 0.878856540
v 0.174499989 0.487640858 0.878856540
v 0.000000000 0.422888227 1.000000000
v 0.174499989 0.422888227 1.000000000
v 0.211387465 0.405597877 0.000000000
v 0.317500114 0.432762146 0.143874764
v 0.317500114 0.355859724 0.000000000
v 0.317500114 0.485718727 0.318448901
v 0.317500114 0.503600121 0.500000000
v 0.317500114 0.485718727 0.681551099
v 0.317500114 0.432762146 0.856125236
v 0.299890152 0.364114030 1.000000000
v 0.317500114 0.355859667 1.000000000
v 0.371908760 0.070240295 0.000000000
v 0.371483820 0.073000071 0.000000000
v 0.372499943 0.070025444 0.002974629
v 0.372499943 0.066400847 0.000000000
v 0.349990076 0.187559723 0.000000000
v 0.324897143 0.321302979 0.000000000
v 0.372499943 0.157439947 0.109489679
v 0.321272907 0.338234361 0.000000000
v 0.372499943 0.222394943 0.231011868
v 0.372499943 0.262393951 0.362871051
v 0.372499943 0.275900126 0.500000000
v 0.372499943 0.262393951 0.637128949
v 0.372499943 0.222394943 0.768988132
v 0.324897098 0.321303133 1.000000000
v 0.372499943 0.157439947 0.890510321
v 0.364314900 0.111209779 1.000000000
v 0.371483820 0.073000071 1.000000000
v 0.372499943 0.070025444 0.997025371
v 0.372499943 0.066400847 1.000000000
v 0.372499943 0.047950335 0.000000000
v 0.372499943 0.047950335 1.000000000
v 0.372499943 0.019931370 0.000000000
v 0.372499943 0.000000000 1.000000000
v 0.372499943 0.000000000 0.995708356
v 0.372499943 0.000000000 0.187545020
v 0.372499943 0.000000000 0.000000000
v 0.372499943 0.000000000 0.755571385
v 0.252579211 0.473159640 0.000000000
v 0.202000141 0.473159640 0.000000000
v 0.202000141 0.528799534 0.104094863
v 0.322999954 0.528799534 0.104094863
v 0.322999954 0.473159640 0.000000000
v 0.202000141 0.587671280 0.298169255
v 0.322999954 0.587671280 0.298169255
v 0.202000141 0.607550144 0.500000000
v 0.322999954 0.607550144 0.500000000
v 0.202000141 0.587671280 0.701830745
v 0.322999954 0.587671280 0.701830745
v 0.202000141 0.528799534 0.895905137
v 0.322999954 0.528799534 0.895905137
v 0.272420884 0.473159640 1.000000000
v 0.202000141 0.473159640 1.000000000
v 0.322999954 0.473159640 1.000000000
v 0.202000141 0.459245580 1.000000000
v 0.202000141 0.459245580 0.000000000
v 0.202000141 0.400443254 1.000000000
v 0.202000141 0.400443254 0.000000000
v 0.202000141 0.107550144 1.000000000
v 0.202000141 0.107550087 0.000000000
v 0.202000141 0.000000000 0.000000000
v 0.202000141 0.000000000 1.000000000
v 0.322999954 0.464165542 0.000000000
v 0.322999954 0.464165542 1.000000000
v 0.322999954 0.388440986 0.000000000
v 0.322999954 0.448068503 1.000000000
v 0.322999954 0.141429500 0.000000000
v 0.322999954 0.118722967 1.000000000
v 0.322999954 0.000000000 1.000000000
v 0.322999954 0.000000000 0.000000000
v 0.181789229 0.355412960 1.000000000
v 0.197599888 0.355412960 1.000000000
v 0.197599888 0.355412960 0.981263280
v 0.166799784 0.355412960 0.981263280
v 0.166799784 0.355412960 1.000000000
v 0.197599888 0.322071075 0.962013364
v 0.166799784 0.322071075 0.962013364
v 0.197599888 0.288729191 0.981263280
v 0.166799784 0.288729191 0.981263280
v 0.182610442 0.288729191 1.000000000
v 0.197599888 0.288729191 1.000000000
v 0.166799784 0.288729191 1.000000000
v 0.197599888 0.299546791 1.000000000
v 0.197599888 0.344595360 1.000000000
v 0.166799784 0.344002659 1.000000000
v 0.166799784 0.300139492 1.000000000
v 0.197599888 0.456589460 0.714256883
v 0.197599888 0.489931345 0.695006967
v 0.166799784 0.489931345 0.695006967
v 0.166799784 0.456589460 0.714256883
v 0.197599888 0.489931345 0.656506896
v 0.166799784 0.489931345 0.656506896
v 0.197599888 0.456589460 0.637256980
v 0.166799784 0.456589460 0.637256980
v 0.197599888 0.423247576 0.656506896
v 0.166799784 0.423247576 0.656506896
v 0.197599888 0.423247576 0.695006967
v 0.166799784 0.423247576 0.695006967
v 0.197599888 0.456589460 0.362743020
v 0.197599888 0.489931345 0.343493104
v 0.166799784 0.489931345 0.343493104
v 0.166799784 0.456589460 0.362743020
v 0.197599888 0.489931345 0.304993033
v 0.166799784 0.489931345 0.304993033
v 0.197599888 0.456589460 0.285743117
v 0.166799784 0.456589460 0.285743117
v 0.197599888 0.423247576 0.304993033
v 0.166799784 0.423247576 0.304993033
v 0.197599888 0.423247576 0.343493104
v 0.166799784 0.423247576 0.343493104
v 0.197599888 0.322071075 0.037986755
v 0.197599888 0.355412960 0.018736720
v 0.166799784 0.355412960 0.018736720
v 0.166799784 0.322071075 0.037986755
v 0.182610442 0.355412960 0.000000000
v 0.197599888 0.355412960 0.000000000
v 0.166799784 0.355412960 0.000000000
v 0.181789229 0.288729191 0.000000000
v 0.197599888 0.288729191 0.000000000
v 0.197599888 0.288729191 0.018736720
v 0.166799784 0.288729191 0.018736720
v 0.166799784 0.288729191 0.000000000
v 0.197599888 0.300139468 0.000000000
v 0.197599888 0.344002682 0.000000000
v 0.166799784 0.344595337 0.000000000
v 0.166799784 0.299546813 0.000000000
v 0.328499794 0.000000000 0.274086367
v 0.328499794 0.041570663 0.374446869
v 0.402402023 0.000000000 0.385585684
v 0.412657773 0.000000000 0.430951052
v 0.328499794 0.058099985 0.500000000
v 0.428267637 0.000000000 0.500000000
v 0.417760672 0.000000000 0.546476574
v 0.328499794 0.041570663 0.625553131
v 0.402402023 0.000000000 0.614414316
v 0.382948385 0.000000000 0.643764804
v 0.328499794 0.000000000 0.725913633
v 0.328499794 0.000000000 0.716832375
v 0.328499794 0.000000000 0.283167625
vt 0.347042870 0.086208457
vt 0.347042870 0.084922858
vt 0.358309656 0.084922858
vt 0.347042870 0.092092803
vt 0.358309656 0.092092803
vt 0.347042870 0.075326033
vt 0.347042870 0.073931076
vt 0.358309656 0.073931076
vt 0.347042870 0.063950707
vt 0.347042870 0.062500000
vt 0.358309656 0.062500000
vt 0.347042870 0.052519632
vt 0.347042870 0.051068924
vt 0.358309656 0.051068924
vt 0.347042870 0.041472099
vt 0.347042870 0.040077142
vt 0.358309656 0.040077142
vt 0.347042870 0.032907192
vt 0.358309656 0.032907192
vt 0.360691339 0.092092800
vt 0.367542624 0.083577484
vt 0.367542624 0.092092801
vt 0.367542624 0.073245212
vt 0.367542624 0.062500000
vt 0.367542624 0.051754791
vt 0.367542624 0.041422512
vt 0.366405617 0.032907189
vt 0.367542624 0.032907189
vt 0.342092795 0.091929463
vt 0.342092795 0.092092803
vt 0.341916740 0.091916747
vt 0.342092795 0.091702224
vt 0.342092808 0.098873091
vt 0.342092809 0.106788761
vt 0.335612595 0.097090431
vt 0.342092808 0.107790856
vt 0.342092808 0.108834024
vt 0.333577484 0.113385551
vt 0.328420222 0.100934841
vt 0.323245198 0.116519809
vt 0.320616066 0.103302196
vt 0.312500000 0.117578134
vt 0.312500000 0.104101568
vt 0.301754802 0.116519809
vt 0.304383934 0.103302196
vt 0.291422516 0.113385551
vt 0.296579778 0.100934841
vt 0.282907186 0.108834021
vt 0.282907185 0.106788770
vt 0.289387405 0.097090431
vt 0.282907202 0.094354267
vt 0.282907205 0.092092803
vt 0.283083260 0.091916747
vt 0.282907205 0.091702224
vt 0.342092798 0.090610223
vt 0.282907202 0.090610223
vt 0.342092794 0.088951904
vt 0.282907192 0.087772253
vt 0.283161194 0.087772253
vt 0.330992845 0.087772253
vt 0.342092796 0.087772254
vt 0.297373852 0.087772253
vt 0.302891737 0.090818471
vt 0.253906250 0.090818471
vt 0.253906250 0.084922858
vt 0.371093750 0.084922858
vt 0.371093750 0.090818471
vt 0.253906250 0.073931076
vt 0.371093750 0.073931076
vt 0.253906250 0.062500000
vt 0.371093750 0.062500000
vt 0.253906250 0.051068928
vt 0.371093750 0.051068928
vt 0.253906250 0.040077142
vt 0.371093750 0.040077142
vt 0.322108263 0.034181529
vt 0.253906250 0.034181529
vt 0.371093750 0.034181529
vt 0.284181538 0.112694239
vt 0.284181523 0.113482285
vt 0.290077150 0.116633564
vt 0.301068932 0.119967878
vt 0.312500000 0.121093750
vt 0.323931068 0.119967878
vt 0.334922850 0.116633564
vt 0.340818462 0.112694239
vt 0.340818477 0.113482285
vt 0.284181539 0.109363850
vt 0.340818461 0.109363850
vt 0.284181533 0.092775282
vt 0.340818470 0.092775278
vt 0.340818470 0.086683971
vt 0.284181534 0.086683971
vt 0.340818481 0.112972884
vt 0.284181519 0.112972884
vt 0.340818470 0.108684081
vt 0.284181516 0.112061196
vt 0.340818462 0.094694107
vt 0.284181527 0.093408081
vt 0.284181528 0.086683975
vt 0.340818463 0.086683972
vt 0.936718867 0.064062265
vt 0.936718867 0.003906250
vt 0.908203125 0.003906250
vt 0.908203125 0.121093750
vt 0.936718867 0.121093750
vt 0.996093750 0.003906250
vt 0.937500000 0.003906250
vt 0.937500000 0.121093750
vt 0.996093750 0.121093750
vt 0.878906250 0.003906250
vt 0.878906250 0.121093750
vt 0.936718867 0.060937735
vt 0.936718779 0.022916686
vt 0.878906250 0.062500000
vt 0.936718779 0.102083314
vt 0.936718836 0.101041724
vt 0.936718836 0.023958276
vt 0.966796875 0.003906250
vt 0.966796875 0.121093750
vt 0.996093750 0.062500000
vt 0.938281133 0.060937735
vt 0.938281133 0.003906250
vt 0.938281133 0.121093750
vt 0.938281133 0.064062265
vt 0.938281102 0.023958234
vt 0.938281102 0.101041766
vt 0.938281162 0.102083275
vt 0.938281162 0.022916725
vt 0.628906250 0.089787417
vt 0.628906250 0.077665180
vt 0.658065857 0.076319754
vt 0.662112469 0.070840212
vt 0.628906250 0.062500000
vt 0.668271653 0.062500000
vt 0.664125920 0.056886239
vt 0.628906250 0.047334824
vt 0.658065857 0.048680248
vt 0.650390034 0.045135090
vt 0.628906250 0.035212583
vt 0.661309480 0.114076029
vt 0.660212587 0.114076028
vt 0.672334850 0.119097218
vt 0.687500000 0.121093750
vt 0.713690520 0.114076029
vt 0.702665150 0.119097218
vt 0.714787413 0.114076028
vn 0.000000000 0.881921025 -0.471397185
vn 0.000000000 0.956940374 -0.290284551
vn 0.000000000 0.995184782 -0.098016583
vn 0.000000000 0.995184782 0.098016583
vn 0.000000000 0.956940374 0.290284551
vn -0.000000000 0.881920957 0.471397312
vn 0.382030063 0.815027224 -0.435641659
vn 0.382028179 0.815028700 -0.435640549
vn 0.382029639 0.884356515 -0.268266488
vn 0.382030298 0.884356084 -0.268266970
vn 0.382028173 0.919700690 -0.090582092
vn 0.382029723 0.919699917 -0.090583401
vn 0.382029675 0.919700072 0.090582031
vn 0.382028125 0.919700575 0.090583466
vn 0.382030278 0.884356263 0.268266412
vn 0.382029618 0.884356353 0.268267052
vn 0.382028397 0.815027768 0.435642102
vn 0.382030111 0.815027862 0.435640424
vn 0.971785615 0.149631766 -0.182326774
vn 0.971785626 0.149631689 -0.182326782
vn 0.971785655 0.182326595 -0.149631723
vn 0.971785606 0.182326944 -0.149631617
vn 0.971785606 0.208015324 -0.111186158
vn 0.971785664 0.208014944 -0.111186361
vn 0.971785620 0.225709531 -0.068468362
vn 0.971785591 0.225709699 -0.068468224
vn 0.971785618 0.234730098 -0.023119118
vn 0.971785624 0.234730069 -0.023119153
vn 0.971785623 0.234730076 0.023119116
vn 0.971785617 0.234730098 0.023119156
vn 0.971785595 0.225709630 0.068468392
vn 0.971785624 0.225709568 0.068468184
vn 0.971785644 0.208015151 0.111186148
vn 0.971785598 0.208015184 0.111186489
vn 0.971785611 0.182326799 0.149631764
vn 0.971785644 0.182326823 0.149631518
vn 0.971785614 0.149631720 0.182326820
vn 1.000000000 0.000000000 0.000000000
vn 0.000000000 0.881921157 -0.471396938
vn 0.000000000 0.956940442 -0.290284329
vn 0.000000000 0.995184596 -0.098018464
vn 0.000000000 0.995184596 0.098018464
vn 0.000000000 0.956940442 0.290284329
vn 0.000000000 0.881921157 0.471396938
vn -1.000000000 0.000000000 0.000000000
vn 0.000000000 1.000000000 0.000000000
vn 0.000000000 0.499999416 -0.866025741
vn 0.000000000 -0.499999416 -0.866025741
vn 0.000000000 -1.000000000 0.000000000
vn 0.000000000 0.499999416 0.866025741
vn 0.000000000 -0.499999416 0.866025741
vn 0.000000000 0.500001738 0.866024400
vn 0.000000000 -0.500001738 0.866024400
vn 0.500012780 0.800096378 -0.331410630
vn 0.500012659 0.858609244 -0.113037630
vn 0.500012788 0.858609134 -0.113037903
vn 0.500012772 0.858609180 0.113037622
vn 0.500012643 0.858609217 0.113037914
vn 0.500012837 0.800096348 0.331410617
vn 0.500012771 0.800096327 0.331410767
usemtl mat_0
f 1/1/1 2/2/1 3/3/1
f 4/4/1 1/1/1 3/3/1 5/5/1
f 6/6/2 7/7/2 8/8/2
f 2/2/2 6/6/2 8/8/2 3/3/2
f 9/9/3 10/10/3 11/11/3
f 7/7/3 9/9/3 11/11/3 8/8/3
f 12/12/4 13/13/4 14/14/4
f 10/10/4 12/12/4 14/14/4 11/11/4
f 15/15/5 16/16/5 17/17/5
f 13/13/5 15/15/5 17/17/5 14/14/5
f 16/16/6 18/18/6 19/19/6 17/17/6
f 20/20/7 5/5/7 3/3/7 21/21/7
f 20/20/8 21/21/8 22/22/8
f 3/3/9 8/8/9 23/23/9
f 3/3/10 23/23/10 21/21/10
f 8/8/11 11/11/11 24/24/11
f 8/8/12 24/24/12 23/23/12
f 11/11/13 14/14/13 25/25/13
f 11/11/14 25/25/14 24/24/14
f 14/14/15 17/17/15 26/26/15
f 14/14/16 26/26/16 25/25/16
f 27/27/17 17/17/17 19/19/17
f 17/17/18 27/27/18 28/28/18 26/26/18
f 29/29/19 30/30/19 31/31/19
f 29/29/20 31/31/20 32/32/20
f 33/33/21 34/34/21 35/35/21
f 30/30/22 33/33/22 35/35/22 31/31/22
f 36/36/23 22/37/23 21/38/23 37/39/23
f 34/34/24 36/36/24 37/39/24 35/35/24
f 21/38/25 23/40/25 38/41/25
f 21/38/26 38/41/26 37/39/26
f 23/40/27 24/42/27 39/43/27
f 23/40/28 39/43/28 38/41/28
f 24/42/29 25/44/29 40/45/29
f 24/42/30 40/45/30 39/43/30
f 25/44/31 26/46/31 41/47/31
f 25/44/32 41/47/32 40/45/32
f 26/46/33 28/48/33 42/49/33 43/50/33
f 26/46/34 43/50/34 41/47/34
f 44/51/35 45/52/35 46/53/35
f 42/49/36 44/51/36 46/53/36 43/50/36
f 45/52/37 47/54/37 46/53/37
f 48/55/38 32/32/38 31/31/38 35/35/38
f 35/35/38 37/39/38 38/41/38
f 38/41/38 39/43/38 40/45/38
f 40/45/38 41/47/38 43/50/38
f 49/56/38 43/50/38 46/53/38 47/54/38
f 50/57/38 48/55/38 35/35/38 38/41/38
f 38/41/38 40/45/38 43/50/38
f 51/58/38 52/59/38 43/50/38 49/56/38
f 53/60/38 54/61/38 50/57/38 38/41/38
f 55/62/38 38/41/38 43/50/38 52/59/38
f 53/60/38 38/41/38 55/62/38
f 56/63/39 57/64/39 58/65/39 59/66/39
f 56/63/39 59/66/39 60/67/39
f 58/65/40 61/68/40 62/69/40
f 58/65/40 62/69/40 59/66/40
f 61/68/41 63/70/41 64/71/41
f 61/68/41 64/71/41 62/69/41
f 63/70/42 65/72/42 66/73/42
f 63/70/42 66/73/42 64/71/42
f 65/72/43 67/74/43 68/75/43
f 65/72/43 68/75/43 66/73/43
f 69/76/44 67/74/44 70/77/44
f 67/74/44 69/76/44 71/78/44 68/75/44
f 72/79/45 70/80/45 67/81/45
f 67/81/45 65/82/45 63/83/45
f 63/83/45 61/84/45 58/85/45
f 73/86/45 58/85/45 57/87/45
f 74/88/45 72/79/45 67/81/45 63/83/45
f 75/89/45 63/83/45 58/85/45 73/86/45
f 76/90/45 74/88/45 63/83/45
f 77/91/45 63/83/45 75/89/45
f 78/92/45 79/93/45 76/90/45
f 78/92/45 76/90/45 63/83/45
f 78/92/45 63/83/45 77/91/45
f 80/94/38 60/87/38 59/85/38 62/84/38
f 62/84/38 64/83/38 66/82/38
f 81/95/38 66/82/38 68/81/38 71/80/38
f 82/96/38 80/94/38 62/84/38
f 83/97/38 62/84/38 66/82/38 81/95/38
f 84/98/38 82/96/38 62/84/38
f 85/99/38 62/84/38 83/97/38
f 86/100/38 87/101/38 84/98/38
f 86/100/38 84/98/38 62/84/38
f 86/100/38 62/84/38 85/99/38
usemtl mat_1
f 88/102/46 89/103/46 90/104/46 91/105/46
f 88/102/46 91/105/46 92/106/46
f 90/107/47 93/108/47 94/109/47
f 90/107/47 94/109/47 91/110/47
f 93/108/48 95/111/48 96/112/48
f 93/108/48 96/112/48 94/109/48
f 97/113/49 95/104/49 98/103/49
f 95/104/49 97/113/49 99/106/49 96/105/49
f 100/114/38 98/103/38 95/104/38
f 95/104/38 93/115/38 90/105/38
f 101/116/38 90/105/38 89/106/38
f 100/114/38 95/104/38 90/105/38 101/116/38
f 102/117/45 92/106/45 91/105/45 94/115/45
f 103/118/45 94/115/45 96/104/45 99/103/45
f 102/117/45 94/115/45 103/118/45
f 104/108/50 105/107/50 106/110/50
f 104/108/50 106/110/50 107/109/50
f 105/119/46 108/104/46 109/105/46
f 105/119/46 109/105/46 106/120/46
f 108/107/47 110/108/47 111/109/47
f 108/107/47 111/109/47 109/110/47
f 110/108/48 112/111/48 113/112/48
f 110/108/48 113/112/48 111/109/48
f 112/104/49 114/119/49 115/120/49
f 112/104/49 115/120/49 113/105/49
f 114/111/51 104/108/51 107/109/51
f 114/111/51 107/109/51 115/112/51
f 104/121/38 114/119/38 112/104/38
f 112/104/38 110/115/38 108/105/38
f 108/105/38 105/120/38 104/121/38
f 112/104/38 108/105/38 104/121/38
f 115/119/45 107/121/45 106/120/45
f 106/120/45 109/105/45 111/115/45
f 111/115/45 113/104/45 115/119/45
f 106/120/45 111/115/45 115/119/45
f 116/108/50 117/107/50 118/110/50
f 116/108/50 118/110/50 119/109/50
f 117/119/46 120/104/46 121/105/46
f 117/119/46 121/105/46 118/120/46
f 120/107/47 122/108/47 123/109/47
f 120/107/47 123/109/47 121/110/47
f 122/108/48 124/111/48 125/112/48
f 122/108/48 125/112/48 123/109/48
f 124/104/49 126/119/49 127/120/49
f 124/104/49 127/120/49 125/105/49
f 126/111/51 116/108/51 119/109/51
f 126/111/51 119/109/51 127/112/51
f 116/121/38 126/119/38 124/104/38
f 124/104/38 122/115/38 120/105/38
f 120/105/38 117/120/38 116/121/38
f 124/104/38 120/105/38 116/121/38
f 127/119/45 119/121/45 118/120/45
f 118/120/45 121/105/45 123/115/45
f 123/115/45 125/104/45 127/119/45
f 118/120/45 123/115/45 127/119/45
f 128/108/52 129/107/52 130/110/52
f 128/108/52 130/110/52 131/109/52
f 132/122/46 129/119/46 133/123/46
f 129/119/46 132/122/46 134/124/46 130/120/46
f 135/125/49 136/123/49 137/119/49 138/120/49
f 135/125/49 138/120/49 139/124/49
f 137/111/53 128/108/53 131/109/53
f 137/111/53 131/109/53 138/112/53
f 140/126/38 128/121/38 137/119/38 136/123/38
f 141/127/38 133/124/38 129/120/38 128/121/38
f 140/126/38 141/127/38 128/121/38
f 138/119/45 131/121/45 130/120/45
f 142/128/45 130/120/45 134/124/45
f 143/129/45 139/123/45 138/119/45
f 130/120/45 142/128/45 143/129/45 138/119/45
usemtl mat_2
f 144/130/54 145/131/54 146/132/54
f 147/133/55 145/131/55 148/134/55 149/135/55
f 146/132/56 145/131/56 147/133/56
f 150/136/57 148/134/57 151/137/57 152/138/57
f 149/135/58 148/134/58 150/136/58
f 153/139/59 151/137/59 154/140/59
f 152/138/60 151/137/60 153/139/60
f 155/141/45 154/142/45 151/143/45 148/144/45
f 156/145/45 148/144/45 145/146/45 144/147/45
f 155/141/45 148/144/45 156/145/45
