# Authored in Blender; exported by tools-export-modern.py
mtllib materials.mtl
s off
v 0.120004767 0.793376974 1.000000000
v 0.101020110 0.824697089 1.000000000
v 0.132500172 0.786429703 0.974430561
v 0.132500172 0.772762545 1.000000000
v 0.052648307 0.915742341 1.000000000
v 0.022500038 0.972487311 1.000000000
v 0.022500038 1.000000000 0.966475671
v 0.039712243 1.000000000 0.927000087
v 0.132500172 0.904076934 0.831076920
v 0.132500172 1.000000000 0.752354943
v 0.243863348 0.772762545 1.000000000
v 0.264500141 0.786429703 0.974430561
v 0.264500141 0.772762545 1.000000000
v 0.264500141 0.904076934 0.831076920
v 0.220826125 1.000000000 0.752354943
v 0.264500141 1.000000000 0.752354943
v 1.000000000 0.772762545 1.000000000
v 1.000000000 0.786429703 0.974430561
v 1.000000000 0.828495593 0.923173099
v 1.000000000 0.904076934 0.831076920
v 1.000000000 1.000000000 0.752354943
v 1.000000000 0.955334374 0.789011052
v 0.022500038 0.980906250 1.000000000
v 0.022500038 1.000000000 0.971424164
v 0.022500038 0.994926656 1.000000000
v 0.022500038 1.000000000 0.987751862
v 0.022500038 1.000000000 1.000000000
v 0.129572814 0.809923886 1.000000000
v 0.110499859 0.809923886 1.000000000
v 0.110499859 0.924144626 0.851144671
v 0.198500156 0.924144626 0.851144671
v 0.198500156 0.809923886 1.000000000
v 0.145624630 1.000000000 0.792938757
v 0.110499859 1.000000000 0.792938757
v 0.198500156 1.000000000 0.792938757
v 0.110499859 0.819507651 1.000000000
v 0.110499859 1.000000000 0.819507619
v 0.110499859 0.849660767 1.000000000
v 0.110499859 1.000000000 0.913201606
v 0.110499859 1.000000000 1.000000000
v 0.198500156 0.838202942 1.000000000
v 0.198500156 1.000000000 0.807349541
v 0.198500156 1.000000000 0.949149489
v 0.198500156 0.949149489 1.000000000
v 0.198500156 1.000000000 1.000000000
v 0.269999981 0.991430223 0.669594884
v 0.274399757 0.994989932 0.667008638
v 0.274399757 0.988843977 0.666035235
v 0.269999981 0.962952852 0.690284967
v 0.274399757 0.960366607 0.686725259
v 0.274399757 0.959393144 0.692871213
v 1.000000000 0.992789011 0.666660054
v 1.000000000 0.994989932 0.667008638
v 1.000000000 0.988843977 0.666035235
v 1.000000000 0.960018001 0.688926179
v 1.000000000 0.959393144 0.692871213
v 1.000000000 0.960366607 0.686725259
v 0.270804280 1.000000000 0.680021742
v 0.274399757 1.000000000 0.673904408
v 0.269999981 1.000000000 0.681390173
v 0.270588679 1.000000000 0.742277686
v 0.269999981 1.000000000 0.741276076
v 0.274399757 1.000000000 0.748761694
v 1.000000000 1.000000000 0.673904408
v 0.269999981 1.000000000 0.715967553
v 1.000000000 0.974906355 0.714223293
v 1.000000000 1.000000000 0.748761694
v 1.000000000 0.978645979 0.673444515
v 0.274399757 0.825495780 0.929712832
v 0.269999981 0.822909534 0.933272541
v 0.274399757 0.826469183 0.935858786
v 0.269999981 0.802219450 0.961749911
v 0.274399757 0.799633205 0.965309620
v 0.274399757 0.805779159 0.964336157
v 0.269999981 0.763284981 0.889952779
v 0.274399757 0.765871227 0.886393070
v 0.274399757 0.759725273 0.887366533
v 0.269999981 0.742594898 0.918430150
v 0.274399757 0.739035249 0.915843904
v 0.274399757 0.740008652 0.921989858
v 1.000000000 0.826120599 0.933657866
v 1.000000000 0.826469183 0.935858786
v 1.000000000 0.825495780 0.929712832
v 1.000000000 0.801834125 0.964961014
v 1.000000000 0.805779159 0.964336157
v 1.000000000 0.799633205 0.965309620
v 1.000000000 0.763670306 0.886741676
v 1.000000000 0.765871227 0.886393070
v 1.000000000 0.759725273 0.887366533
v 1.000000000 0.739383833 0.918044825
v 1.000000000 0.740008652 0.921989858
v 1.000000000 0.739035249 0.915843904
v 1.000000000 0.804143700 0.914199642
v 1.000000000 0.819059902 0.946056784
v 1.000000000 0.761360732 0.937503048
v 1.000000000 0.752315992 0.897564532
v 0.349199772 0.321199954 0.925228000
v 0.335999966 0.321199954 0.912027955
v 0.349199772 0.307999969 0.912027955
v 0.586800098 0.321199954 0.925228000
v 0.586800098 0.307999969 0.912027955
v 0.599999905 0.321199954 0.912027955
v 0.586800098 0.321199954 0.595227957
v 0.599999905 0.321199954 0.608428001
v 0.586800098 0.307999969 0.608428001
v 0.335999966 0.321199954 0.608428001
v 0.349199772 0.321199954 0.595227957
v 0.349199772 0.307999969 0.608428001
v 0.337496497 1.000000000 0.913524513
v 0.349199772 1.000000000 0.925228000
v 0.335999966 1.000000000 0.912027955
v 0.588296630 1.000000000 0.923731441
v 0.599999905 1.000000000 0.912027955
v 0.586800098 1.000000000 0.925228000
v 0.598503373 1.000000000 0.606931443
v 0.586800098 1.000000000 0.595227957
v 0.599999905 1.000000000 0.608428001
v 0.347703241 1.000000000 0.596724515
v 0.335999966 1.000000000 0.608428001
v 0.349199772 1.000000000 0.595227957
v 0.559862105 1.000000000 0.925228000
v 0.335999966 1.000000000 0.877607238
v 0.599999905 1.000000000 0.642848718
v 0.376137765 1.000000000 0.595227957
v 0.244699955 0.288200021 0.996728003
v 0.231500149 0.288200021 0.983528018
v 0.244699955 0.275000006 0.983528018
v 0.691299915 0.288200021 0.996728003
v 0.691299915 0.275000006 0.983528018
v 0.704499722 0.288200021 0.983528018
v 0.691299915 0.288200021 0.523727953
v 0.704499722 0.288200021 0.536927938
v 0.691299915 0.275000006 0.536927938
v 0.231500149 0.288200021 0.536927938
v 0.244699955 0.288200021 0.523727953
v 0.244699955 0.275000006 0.536927938
v 0.231500149 0.371800005 0.983528018
v 0.244699955 0.371800005 0.996728003
v 0.244699955 0.385000020 0.983528018
v 0.691299915 0.371800005 0.996728003
v 0.704499722 0.371800005 0.983528018
v 0.691299915 0.385000020 0.983528018
v 0.704499722 0.371800005 0.536927938
v 0.691299915 0.371800005 0.523727953
v 0.691299915 0.385000020 0.536927938
v 0.231500149 0.371800005 0.536927938
v 0.244699955 0.385000020 0.536927938
v 0.244699955 0.371800005 0.523727953
v 0.291999817 0.391600013 0.760227978
v 0.308499813 0.391600013 0.788806796
v 0.308499813 0.429000020 0.788806796
v 0.291999817 0.429000020 0.760227978
v 0.341499805 0.391600013 0.788806796
v 0.341499805 0.429000020 0.788806796
v 0.357999802 0.391600013 0.760227978
v 0.357999802 0.429000020 0.760227978
v 0.341499805 0.391600013 0.731649160
v 0.341499805 0.429000020 0.731649160
v 0.308499813 0.391600013 0.731649160
v 0.308499813 0.429000020 0.731649160
v 0.578000069 0.391600013 0.760227978
v 0.594500065 0.391600013 0.788806796
v 0.594500065 0.429000020 0.788806796
v 0.578000069 0.429000020 0.760227978
v 0.627500057 0.391600013 0.788806796
v 0.627500057 0.429000020 0.788806796
v 0.644000053 0.391600013 0.760227978
v 0.644000053 0.429000020 0.760227978
v 0.627500057 0.391600013 0.731649160
v 0.627500057 0.429000020 0.731649160
v 0.594500065 0.391600013 0.731649160
v 0.594500065 0.429000020 0.731649160
v 1.000000000 0.009256435 0.352056496
v 0.000000000 0.007485478 0.350285538
v 0.000000000 0.000000000 0.342800051
v 1.000000000 0.000000000 0.342800051
v 1.000000000 0.013200000 0.356000066
v 0.000000000 0.013200000 0.356000066
v 0.000000000 0.005714522 0.077485546
v 1.000000000 0.003943565 0.079256502
v 1.000000000 0.000000000 0.083200067
v 0.000000000 0.000000000 0.083200067
v 0.000000000 0.013200000 0.070000067
v 1.000000000 0.013200000 0.070000067
v 1.000000000 0.282056414 0.346743621
v 0.000000000 0.280285455 0.348514579
v 0.000000000 0.272799969 0.356000066
v 1.000000000 0.272799969 0.356000066
v 1.000000000 0.285999984 0.342800051
v 0.000000000 0.285999984 0.342800051
v 0.000000000 0.278514497 0.075714589
v 1.000000000 0.276743539 0.073943633
v 1.000000000 0.272799969 0.070000067
v 0.000000000 0.272799969 0.070000067
v 0.000000000 0.285999984 0.083200067
v 1.000000000 0.285999984 0.083200067
v 1.000000000 0.195243192 0.356000066
v 0.000000000 0.160414390 0.356000066
v 1.000000000 0.000000000 0.160756848
v 0.000000000 0.000000000 0.195585653
v 0.000000000 0.125585579 0.070000067
v 1.000000000 0.090756776 0.070000067
v 1.000000000 0.285999984 0.160756848
v 0.000000000 0.285999984 0.195585653
v 0.000000000 0.191272486 0.141627410
v 1.000000000 0.189917472 0.142982420
v 1.000000000 0.186999992 0.145899892
v 0.000000000 0.186999992 0.145899892
v 0.000000000 0.196899995 0.135999918
v 1.000000000 0.196899995 0.135999918
v 0.000000000 0.236372490 0.140272400
v 1.000000000 0.235017476 0.138917390
v 1.000000000 0.232099995 0.135999918
v 0.000000000 0.232099995 0.135999918
v 0.000000000 0.241999999 0.145899892
v 1.000000000 0.241999999 0.145899892
v 1.000000000 0.186999992 0.943992766
v 0.848903329 0.186999992 1.000000000
v 0.000000000 0.186999992 1.000000000
v 1.000000000 0.186999992 1.000000000
v 0.000000000 0.212091082 0.135999918
v 1.000000000 0.207273256 0.135999918
v 1.000000000 0.241999999 1.000000000
v 1.000000000 0.241999999 0.943992766
v 0.848903329 0.241999999 1.000000000
v 0.000000000 0.241999999 1.000000000
vt 0.468469227 0.014211381
vt 0.468469220 0.016151300
vt 0.470052958 0.013781078
vt 0.468469223 0.012934556
vt 0.468469208 0.021790500
vt 0.468469212 0.025305196
vt 0.470545662 0.027009289
vt 0.472990722 0.027009288
vt 0.478932053 0.021067960
vt 0.483807965 0.027009284
vt 0.389387467 0.093469211
vt 0.384114593 0.093469211
vt 0.384114593 0.095052943
vt 0.390364587 0.095052943
vt 0.390364587 0.093469211
vt 0.384114593 0.103932038
vt 0.390364587 0.103932038
vt 0.388296690 0.027009284
vt 0.384114593 0.021067960
vt 0.384114593 0.027009284
vt 0.390364587 0.027009284
vt 0.390364587 0.021067960
vt 0.425189398 0.093469211
vt 0.425189398 0.095052943
vt 0.425189398 0.098227748
vt 0.425189398 0.103932038
vt 0.425189398 0.027009284
vt 0.425189398 0.024242765
vt 0.425189398 0.021067960
vt 0.468469223 0.025826652
vt 0.470239164 0.027009289
vt 0.468469221 0.026695054
vt 0.469227851 0.027009289
vt 0.468469220 0.027009289
vt 0.404305163 0.094427019
vt 0.378906250 0.094427019
vt 0.378906250 0.103932038
vt 0.496093750 0.103932038
vt 0.496093750 0.094427019
vt 0.425680912 0.025911635
vt 0.378906250 0.021067962
vt 0.378906250 0.025911635
vt 0.496093750 0.025911635
vt 0.496093750 0.021067962
vt 0.469427017 0.014386467
vt 0.480952184 0.025911636
vt 0.482648709 0.025911635
vt 0.478932023 0.021067962
vt 0.469427015 0.013774505
vt 0.469427018 0.016311866
vt 0.474969447 0.025911634
vt 0.469427019 0.025911634
vt 0.469427013 0.015580239
vt 0.481728519 0.025911635
vt 0.472674026 0.025911636
vt 0.469427016 0.022664626
vt 0.469427016 0.025911636
vt 0.390624970 0.114843749
vt 0.379096240 0.114843741
vt 0.386803210 0.121093750
vt 0.484375000 0.114843749
vt 0.484375000 0.121093750
vt 0.496093750 0.114843749
vt 0.420903345 0.117081927
vt 0.420903335 0.114843741
vt 0.425850381 0.121093753
vt 0.420944043 0.111333409
vt 0.420944005 0.114843741
vt 0.379159600 0.114843741
vt 0.379159659 0.109375007
vt 0.419917575 0.111473299
vt 0.388517467 0.095706405
vt 0.379096240 0.102736299
vt 0.390045408 0.094404300
vt 0.485942965 0.024163636
vt 0.484374975 0.025314665
vt 0.496093750 0.016712454
vt 0.420903335 0.102736299
vt 0.444755051 0.054398493
vt 0.420944015 0.077354225
vt 0.420944015 0.016712451
vt 0.379159600 0.016712451
vt 0.419917556 0.051295999
vt 0.379159629 0.015625002
vt 0.420944035 0.015625001
vt 0.379096240 0.010156249
vt 0.387695312 0.011523437
vt 0.382025957 0.012695312
vt 0.484374970 0.010156250
vt 0.496093750 0.010156251
vt 0.484374970 0.003906250
vt 0.422783894 0.011226506
vt 0.422783926 0.013744460
vt 0.420903335 0.009596704
vt 0.378906250 0.109375007
vt 0.379159629 0.109375000
vt 0.420944045 0.116897167
vt 0.420944045 0.109375000
vt 0.379159629 0.121093757
vt 0.420944035 0.121093755
vt 0.420903335 0.047645765
vt 0.422783916 0.047317164
vt 0.420944015 0.010156249
vt 0.379159600 0.010156249
vt 0.383300781 0.005859373
vt 0.382421821 0.006542966
vt 0.384472728 0.007421875
vt 0.490234375 0.005371092
vt 0.490234345 0.008593749
vt 0.496093750 0.007682293
vt 0.490234375 0.005859373
vt 0.492968738 0.005859375
vt 0.490234375 0.003906250
vt 0.491406262 0.005859373
vt 0.496093750 0.005859366
vt 0.491406262 0.003906250
vt 0.378906250 0.116406254
vt 0.384765685 0.116406247
vt 0.490234345 0.116406247
vt 0.384765625 0.121093743
vt 0.490234375 0.121093750
vt 0.496093750 0.116406254
vt 0.383560524 0.106297343
vt 0.383300808 0.106297343
vt 0.383460872 0.106374845
vt 0.490898683 0.106504010
vt 0.496093750 0.106504010
vt 0.490234375 0.106241977
vt 0.492312370 0.106297343
vt 0.490234375 0.106297343
vt 0.492622379 0.106297343
vt 0.495562305 0.106297343
vt 0.491406262 0.106297343
vt 0.496093750 0.106297342
vt 0.478110753 0.106297336
vt 0.395817009 0.106297343
vt 0.480221966 0.106297343
vt 0.383593768 0.005859372
vt 0.383593768 0.106297343
vt 0.396723196 0.106297336
vt 0.384765655 0.005859373
vt 0.384765655 0.106297336
vt 0.381359041 0.017968750
vt 0.381359041 0.015270712
vt 0.382176578 0.006359012
vt 0.492823392 0.014453124
vt 0.492823392 0.007176599
vt 0.496093750 0.010773981
vt 0.492823422 0.017968750
vt 0.493913502 0.017968751
vt 0.492823422 0.003906250
vt 0.496093750 0.017968757
vt 0.492823392 0.003906250
vt 0.382176608 0.107031256
vt 0.381358981 0.107031249
vt 0.382176608 0.121093750
vt 0.492823422 0.107031256
vt 0.496093750 0.107031249
vt 0.492823422 0.121093750
vt 0.493641019 0.107031256
vt 0.492823392 0.107031249
vt 0.492823422 0.119458571
vt 0.378906250 0.117823407
vt 0.382176578 0.117823407
vt 0.492823422 0.117823407
vt 0.382176578 0.121093750
vt 0.496093750 0.117823400
vt 0.382176578 0.107031249
vt 0.382176578 0.117823400
vt 0.382176608 0.017968750
vt 0.382176578 0.007176599
vt 0.937500000 0.003906250
vt 0.996093750 0.003906250
vt 0.996093750 0.121093750
vt 0.937500000 0.121093750
vt 0.966796875 0.003906250
vt 0.908203125 0.003906250
vt 0.908203125 0.121093750
vt 0.966796875 0.121093750
vt 0.878906250 0.003906250
vt 0.878906250 0.121093750
vt 0.996093750 0.062500000
vt 0.878906250 0.062500000
vt 0.086388685 0.132962738
vt 0.070896383 0.132962740
vt 0.070896379 0.133729534
vt 0.086388680 0.133910945
vt 0.085984720 0.133366698
vt 0.070311006 0.133548109
vt 0.070333390 0.243026605
vt 0.086000167 0.242300959
vt 0.086000166 0.240685104
vt 0.070333389 0.240685110
vt 0.070333390 0.246093756
vt 0.086000167 0.246093754
vt 0.085984720 0.244477886
vt 0.070311006 0.243752242
vt 0.070311006 0.240685099
vt 0.085984720 0.240685101
vt 0.087036218 0.246093750
vt 0.071834707 0.246093750
vt 0.070333384 0.240685090
vt 0.086000160 0.240685090
vt 0.086000160 0.240685095
vt 0.070333384 0.240685097
vt 0.069595925 0.242218671
vt 0.085088229 0.242581494
vt 0.085984720 0.208906478
vt 0.070311006 0.194635494
vt 0.086388685 0.208502507
vt 0.070896383 0.194050117
vt 0.070333389 0.180364506
vt 0.086000166 0.166093522
vt 0.086000166 0.134314899
vt 0.070333389 0.134314901
vt 0.085088229 0.210802871
vt 0.069595925 0.196169066
vt 0.070333389 0.134314903
vt 0.086000166 0.134314905
vt 0.070498059 0.245852006
vt 0.086494170 0.245793798
vt 0.086494170 0.245668471
vt 0.070498059 0.245668471
vt 0.070498051 0.246093750
vt 0.086494159 0.246093750
vt 0.070498059 0.233919793
vt 0.086494170 0.231090900
vt 0.086494170 0.225000005
vt 0.070498059 0.225000003
vt 0.070460121 0.245789343
vt 0.086447096 0.245818447
vt 0.086513835 0.211353234
vt 0.084098256 0.208945116
vt 0.070519104 0.208945116
vt 0.086513835 0.208947315
vt 0.070498059 0.182367374
vt 0.086494170 0.172102121
vt 0.086494170 0.150000002
vt 0.070498059 0.150000000
vt 0.086448476 0.209124225
vt 0.086447096 0.211534541
vt 0.084031517 0.209124225
vt 0.070460121 0.209099518
vn -0.824116931 -0.499537657 -0.267008265
vn -0.824117081 -0.499537321 -0.267008430
vn -0.824116921 -0.437848476 -0.359332732
vn -0.824116935 -0.437848443 -0.359332741
vn -0.824116948 -0.359332709 -0.437848444
vn 0.000000000 -0.881921140 -0.471396969
vn 0.000000000 -0.773010618 -0.634393084
vn 0.000000000 -0.634393049 -0.773010646
vn -1.000000000 0.000000000 0.000000000
vn 0.000000000 -0.793353267 -0.608761525
vn 0.000000000 -0.608761681 -0.793353147
vn 1.000000000 0.000000000 0.000000000
vn -0.577368084 0.127723669 -0.806432117
vn -0.577371726 -0.806428366 -0.127730895
vn -0.707126490 -0.415615392 -0.572045429
vn -0.707122615 -0.415618453 -0.572047995
vn 0.000000000 0.156431321 -0.987688838
vn -0.000000000 -0.987687358 -0.156440666
vn -0.707126490 0.572045510 -0.415615281
vn -0.707126490 -0.572045782 0.415614906
vn -0.707118741 -0.572051508 0.415620210
vn 0.000000000 0.809017069 -0.587785150
vn 0.000000000 -0.809016684 0.587785679
vn 0.000000000 -0.587785308 -0.809016954
vn -0.577368084 0.806432117 -0.127723669
vn -0.577371726 0.127730895 0.806428366
vn -0.577371726 -0.127730895 -0.806428366
vn -0.577368084 -0.806432117 0.127723669
vn 0.000000000 0.987688838 -0.156431321
vn -0.707126490 0.572044860 0.415616176
vn -0.707122615 0.572048564 0.415617670
vn 0.000000000 0.156440666 0.987687358
vn -0.707122615 -0.572048564 -0.415617670
vn -0.707126490 -0.572044860 -0.415616176
vn 0.000000000 -0.156440666 -0.987687358
vn 0.000000000 -0.987688838 0.156431321
vn -0.707126490 0.415615281 -0.572045510
vn -0.707126490 -0.415615281 0.572045510
vn 0.000000000 0.587785150 -0.809017069
vn 0.000000000 0.809016954 0.587785308
vn 0.000000000 -0.587785150 0.809017069
vn 0.000000000 -0.809016954 -0.587785308
vn -0.577356352 -0.577348531 0.577345924
vn 0.577356352 -0.577348531 0.577345924
vn 0.577356352 -0.577348531 -0.577345924
vn -0.577356352 -0.577348531 -0.577345924
vn 0.000000000 -0.707108378 0.707105185
vn -0.707111571 -0.707101992 -0.000000000
vn -0.000000000 -0.707108378 -0.707105185
vn 0.707111571 -0.707101992 0.000000000
vn -0.707113167 0.000000000 0.707100395
vn 0.707113167 -0.000000000 0.707100395
vn 0.707113167 0.000000000 -0.707100395
vn -0.707113167 0.000000000 -0.707100395
vn 0.000000000 0.000000000 1.000000000
vn 0.000000000 -1.000000000 0.000000000
vn 0.000000000 0.000000000 -1.000000000
vn -0.577355918 -0.577346793 0.577348097
vn 0.577355918 -0.577346793 0.577348097
vn 0.577355918 -0.577346793 -0.577348097
vn -0.577355918 -0.577346793 -0.577348097
vn -0.577355918 0.577346793 0.577348097
vn 0.577355918 0.577346793 0.577348097
vn 0.577355918 0.577346793 -0.577348097
vn -0.577355918 0.577346793 -0.577348097
vn 0.000000000 -0.707105983 0.707107579
vn -0.707112369 -0.707101193 -0.000000000
vn -0.000000000 -0.707105983 -0.707107579
vn 0.707112369 -0.707101193 0.000000000
vn -0.707112369 0.707101193 0.000000000
vn -0.000000000 0.707105983 0.707107579
vn 0.707112369 0.707101193 0.000000000
vn 0.000000000 0.707105983 -0.707107579
vn -0.707111571 0.000000000 0.707101992
vn 0.707111571 -0.000000000 0.707101992
vn 0.707111571 0.000000000 -0.707101992
vn -0.707111571 0.000000000 -0.707101992
vn -0.000000000 1.000000000 0.000000000
vn -0.866025299 0.000000000 0.500000182
vn 0.866025299 0.000000000 0.500000182
vn 0.866025299 0.000000000 -0.500000182
vn -0.866025299 0.000000000 -0.500000182
vn 0.000000000 -0.707107180 0.707106382
vn -0.000000000 -0.707106781 -0.707106781
vn -0.000000000 0.707106781 0.707106781
vn 0.000000000 0.707106382 -0.707107180
vn -0.000000000 -0.707105717 -0.707107846
vn 0.000000000 0.707105717 -0.707107846
usemtl mat_5
f 1/1/1 2/2/1 3/3/1
f 1/1/2 3/3/2 4/4/2
f 5/5/3 6/6/3 7/7/3
f 5/5/3 7/7/3 8/8/3
f 5/5/3 8/8/3 9/9/3
f 2/2/4 5/5/4 9/9/4 3/3/4
f 8/8/5 10/10/5 9/9/5
f 11/11/6 4/12/6 3/13/6 12/14/6
f 11/11/6 12/14/6 13/15/6
f 3/13/7 9/16/7 14/17/7
f 3/13/7 14/17/7 12/14/7
f 15/18/8 9/19/8 10/20/8
f 9/19/8 15/18/8 16/21/8 14/22/8
f 17/23/6 13/15/6 12/14/6 18/24/6
f 19/25/7 12/14/7 14/17/7 20/26/7
f 18/24/7 12/14/7 19/25/7
f 21/27/8 22/28/8 14/22/8 16/21/8
f 20/29/8 14/22/8 22/28/8
f 23/30/9 24/31/9 7/7/9 6/6/9
f 25/32/9 26/33/9 24/31/9 23/30/9
f 27/34/9 26/33/9 25/32/9
f 28/35/10 29/36/10 30/37/10 31/38/10
f 28/35/10 31/38/10 32/39/10
f 33/40/11 30/41/11 34/42/11
f 30/41/11 33/40/11 35/43/11 31/44/11
f 36/45/9 37/46/9 34/47/9
f 36/45/9 34/47/9 30/48/9
f 36/45/9 30/48/9 29/49/9
f 38/50/9 39/51/9 37/46/9 36/45/9
f 40/52/9 39/51/9 38/50/9
f 41/53/12 32/49/12 31/48/12
f 42/54/12 31/48/12 35/47/12
f 43/55/12 44/56/12 41/53/12
f 43/55/12 41/53/12 31/48/12
f 43/55/12 31/48/12 42/54/12
f 45/57/12 44/56/12 43/55/12
f 46/58/13 47/59/13 48/60/13
f 49/61/14 50/62/14 51/63/14
f 48/60/15 50/62/15 49/61/15
f 48/60/16 49/61/16 46/58/16
f 52/64/17 47/59/17 53/65/17
f 47/59/17 52/64/17 54/66/17 48/60/17
f 55/67/18 56/68/18 51/69/18 50/70/18
f 55/67/18 50/70/18 57/71/18
f 58/72/19 59/73/19 47/59/19 46/58/19
f 58/72/19 46/58/19 60/74/19
f 61/75/20 62/76/20 49/61/20 51/63/20
f 61/75/21 51/63/21 63/77/21
f 59/73/22 64/78/22 53/65/22 47/59/22
f 65/79/9 60/74/9 46/58/9
f 62/76/9 65/79/9 46/58/9 49/61/9
f 66/80/23 67/81/23 63/82/23 51/69/23
f 66/80/23 51/69/23 56/68/23
f 68/83/24 48/84/24 54/85/24
f 48/84/24 68/83/24 57/71/24 50/70/24
f 69/86/25 70/87/25 71/88/25
f 72/89/26 73/90/26 74/91/26
f 75/58/27 76/59/27 77/60/27
f 78/61/28 79/62/28 80/63/28
f 81/92/29 71/88/29 82/93/29
f 71/88/29 81/92/29 83/94/29 69/86/29
f 70/87/30 72/95/30 74/96/30
f 70/87/31 74/96/31 71/88/31
f 84/97/32 85/98/32 74/96/32 73/99/32
f 84/97/32 73/99/32 86/100/32
f 77/60/33 79/62/33 78/61/33
f 77/60/34 78/61/34 75/58/34
f 87/64/35 76/59/35 88/65/35
f 76/59/35 87/64/35 89/66/35 77/60/35
f 90/67/36 91/68/36 80/69/36 79/70/36
f 90/67/36 79/70/36 92/71/36
f 69/86/37 76/59/37 75/58/37
f 69/86/37 75/58/37 70/87/37
f 72/89/38 78/61/38 80/63/38
f 72/89/38 80/63/38 73/90/38
f 93/101/39 69/86/39 83/94/39
f 69/86/39 93/101/39 88/65/39 76/59/39
f 94/102/40 71/88/40 74/96/40 85/98/40
f 82/93/40 71/88/40 94/102/40
f 72/89/9 70/87/9 75/58/9
f 72/89/9 75/58/9 78/61/9
f 95/80/41 86/103/41 73/104/41 80/69/41
f 95/80/41 80/69/41 91/68/41
f 96/83/42 77/84/42 89/85/42
f 77/84/42 96/83/42 92/71/42 79/70/42
f 97/105/43 98/106/43 99/107/43
f 100/108/44 101/109/44 102/110/44
f 103/111/45 104/112/45 105/113/45
f 106/114/46 107/115/46 108/116/46
f 99/107/47 101/109/47 100/108/47
f 99/107/47 100/108/47 97/105/47
f 98/106/48 106/117/48 108/118/48
f 98/106/48 108/118/48 99/107/48
f 105/119/49 108/118/49 107/120/49
f 105/119/49 107/120/49 103/121/49
f 101/109/50 105/119/50 104/122/50
f 101/109/50 104/122/50 102/110/50
f 109/123/51 97/105/51 110/124/51
f 97/105/51 109/123/51 111/125/51 98/106/51
f 112/126/52 102/110/52 113/127/52
f 102/110/52 112/126/52 114/128/52 100/108/52
f 115/129/53 103/111/53 116/130/53
f 103/111/53 115/129/53 117/131/53 104/112/53
f 118/132/54 106/114/54 119/133/54
f 106/114/54 118/132/54 120/134/54 107/115/54
f 121/135/55 97/105/55 100/108/55 114/128/55
f 110/124/55 97/105/55 121/135/55
f 99/107/56 108/118/56 105/119/56
f 99/107/56 105/119/56 101/109/56
f 122/136/9 106/114/9 98/106/9 111/125/9
f 119/133/9 106/114/9 122/136/9
f 123/137/12 102/138/12 104/112/12 117/131/12
f 113/139/12 102/138/12 123/137/12
f 124/140/57 103/111/57 107/141/57 120/142/57
f 116/130/57 103/111/57 124/140/57
f 125/143/58 126/144/58 127/145/58
f 128/146/59 129/147/59 130/148/59
f 131/149/60 132/150/60 133/151/60
f 134/149/61 135/152/61 136/153/61
f 137/154/62 138/155/62 139/156/62
f 140/157/63 141/158/63 142/159/63
f 143/160/64 144/161/64 145/162/64
f 146/161/65 147/159/65 148/158/65
f 127/145/66 129/147/66 128/146/66
f 127/145/66 128/146/66 125/143/66
f 126/144/67 134/163/67 136/164/67
f 126/144/67 136/164/67 127/145/67
f 133/165/68 136/164/68 135/166/68
f 133/165/68 135/166/68 131/159/68
f 129/147/69 133/165/69 132/167/69
f 129/147/69 132/167/69 130/148/69
f 139/156/70 147/159/70 146/161/70
f 139/156/70 146/161/70 137/154/70
f 138/155/71 140/157/71 142/159/71
f 138/155/71 142/159/71 139/156/71
f 141/168/72 143/160/72 145/162/72
f 141/168/72 145/162/72 142/166/72
f 144/161/73 148/154/73 147/169/73
f 144/161/73 147/169/73 145/162/73
f 125/143/74 138/155/74 137/154/74
f 125/143/74 137/154/74 126/144/74
f 130/148/75 141/158/75 140/157/75
f 130/148/75 140/157/75 128/146/75
f 131/149/76 144/161/76 143/160/76
f 131/149/76 143/160/76 132/150/76
f 134/149/77 146/161/77 148/158/77
f 134/149/77 148/158/77 135/152/77
f 125/143/55 128/146/55 140/157/55
f 125/143/55 140/157/55 138/155/55
f 127/145/56 136/164/56 133/165/56
f 127/145/56 133/165/56 129/147/56
f 134/149/9 126/144/9 137/154/9
f 134/149/9 137/154/9 146/161/9
f 130/170/12 132/150/12 143/160/12
f 130/170/12 143/160/12 141/168/12
f 131/149/57 135/170/57 148/154/57
f 131/149/57 148/154/57 144/161/57
f 139/171/78 142/147/78 145/162/78
f 139/171/78 145/162/78 147/169/78
usemtl mat_1
f 149/172/79 150/173/79 151/174/79
f 149/172/79 151/174/79 152/175/79
f 150/176/55 153/177/55 154/178/55
f 150/176/55 154/178/55 151/179/55
f 153/173/80 155/172/80 156/175/80
f 153/173/80 156/175/80 154/174/80
f 155/172/81 157/180/81 158/181/81
f 155/172/81 158/181/81 156/175/81
f 157/177/57 159/176/57 160/179/57
f 157/177/57 160/179/57 158/178/57
f 159/180/82 149/172/82 152/175/82
f 159/180/82 152/175/82 160/181/82
f 149/182/56 159/176/56 157/177/56
f 157/177/56 155/183/56 153/178/56
f 153/178/56 150/179/56 149/182/56
f 157/177/56 153/178/56 149/182/56
f 160/176/78 152/182/78 151/179/78
f 151/179/78 154/178/78 156/183/78
f 156/183/78 158/177/78 160/176/78
f 151/179/78 156/183/78 160/176/78
f 161/172/79 162/173/79 163/174/79
f 161/172/79 163/174/79 164/175/79
f 162/176/55 165/177/55 166/178/55
f 162/176/55 166/178/55 163/179/55
f 165/173/80 167/172/80 168/175/80
f 165/173/80 168/175/80 166/174/80
f 167/172/81 169/180/81 170/181/81
f 167/172/81 170/181/81 168/175/81
f 169/177/57 171/176/57 172/179/57
f 169/177/57 172/179/57 170/178/57
f 171/180/82 161/172/82 164/175/82
f 171/180/82 164/175/82 172/181/82
f 161/182/56 171/176/56 169/177/56
f 169/177/56 167/183/56 165/178/56
f 165/178/56 162/179/56 161/182/56
f 169/177/56 165/178/56 161/182/56
f 172/176/78 164/182/78 163/179/78
f 163/179/78 166/178/78 168/183/78
f 168/183/78 170/177/78 172/176/78
f 163/179/78 168/183/78 172/176/78
usemtl mat_3
f 173/184/83 174/185/83 175/186/83 176/187/83
f 174/185/83 173/184/83 177/188/83 178/189/83
f 179/190/84 180/191/84 181/192/84 182/193/84
f 180/191/84 179/190/84 183/194/84 184/195/84
f 185/196/85 186/197/85 187/198/85 188/199/85
f 186/197/85 185/196/85 189/200/85 190/201/85
f 191/202/86 192/203/86 193/204/86 194/205/86
f 192/203/86 191/202/86 195/206/86 196/207/86
f 197/208/55 198/209/55 178/189/55 177/188/55
f 198/209/55 197/208/55 188/199/55 187/198/55
f 199/210/56 200/211/56 182/193/56 181/192/56
f 176/187/56 175/186/56 200/211/56 199/210/56
f 201/212/57 202/213/57 184/214/57 183/215/57
f 202/213/57 201/212/57 194/205/57 193/204/57
f 203/216/78 204/217/78 190/218/78 189/219/78
f 204/217/78 203/216/78 196/207/78 195/206/78
f 205/220/87 206/221/87 207/222/87 208/223/87
f 206/221/87 205/220/87 209/224/87 210/225/87
f 211/226/88 212/227/88 213/228/88 214/229/88
f 212/227/88 211/226/88 215/230/88 216/231/88
f 217/232/56 218/233/56 219/234/56
f 217/232/56 219/234/56 208/223/56
f 217/232/56 208/223/56 207/222/56
f 220/235/56 218/233/56 217/232/56
f 221/236/57 222/237/57 210/238/57 209/239/57
f 222/237/57 221/236/57 214/229/57 213/228/57
f 223/240/78 224/241/78 225/242/78
f 226/243/78 225/242/78 224/241/78
f 226/243/78 224/241/78 216/231/78
f 226/243/78 216/231/78 215/230/78
