# Authored in Blender; exported by tools-export-modern.py
mtllib materials.mtl
s off
v 0.000000000 0.728710183 0.569336105
v 0.000000000 0.757555366 0.572177112
v 0.321499825 0.757555366 0.572177112
v 0.000000000 0.572999954 0.553999960
v 0.321499825 0.572999954 0.553999960
v 0.000000000 0.907281841 0.617596111
v 0.000000000 0.935018539 0.626009941
v 0.321499825 0.935018539 0.626009941
v 0.000000000 1.000000000 0.660743277
v 0.321499825 1.000000000 0.660743277
v 0.000000000 0.025024993 0.731817474
v 0.000000000 0.047430515 0.713429749
v 0.321499825 0.047430515 0.713429749
v 0.000000000 0.000000000 0.752354943
v 0.321499825 0.000000000 0.752354943
v 0.000000000 0.185419205 0.639673265
v 0.000000000 0.210981488 0.626009941
v 0.321499825 0.210981488 0.626009941
v 0.000000000 0.360707863 0.580590942
v 0.000000000 0.388444543 0.572177112
v 0.321499825 0.388444543 0.572177112
v 0.000000000 0.544154771 0.556840968
v 0.420499802 0.746482134 0.627846539
v 0.420499802 0.572999954 0.610760033
v 0.420499802 0.913297415 0.678449452
v 0.370229759 1.000000000 0.692269865
v 0.420499802 1.000000000 0.724792906
v 0.375799682 0.000000000 0.792434616
v 0.420499802 0.078964710 0.760623932
v 0.420499802 0.000000000 0.825428595
v 0.420499802 0.232702494 0.678449452
v 0.420499802 0.399517894 0.627846539
v 0.497499943 0.711416602 0.804132879
v 0.497499943 0.572999954 0.790499985
v 0.497499943 0.844513893 0.844507515
v 0.472190314 1.000000000 0.860949256
v 0.497499943 0.967177033 0.910072327
v 0.497499943 1.000000000 0.937009433
v 0.480482506 0.018778306 1.000000000
v 0.474233873 0.000000000 1.000000000
v 0.454298518 0.000000000 0.927000072
v 0.497499943 0.071307659 0.998307765
v 0.497499943 0.069918879 1.000000000
v 0.438809546 0.000000000 0.880452814
v 0.497499943 0.178822875 0.910072327
v 0.497499943 0.301486015 0.844507515
v 0.497499943 0.434583426 0.804132879
v 0.497499943 1.000000000 0.942895293
v 0.497499943 0.088895229 1.000000000
v 0.497499943 1.000000000 0.959195387
v 0.497499943 0.141447544 1.000000000
v 0.497499943 1.000000000 1.000000000
v 0.497499943 0.727719225 1.000000000
v 0.497499943 0.303709195 1.000000000
v 0.497499943 0.473543823 1.000000000
v 0.321499825 0.572999954 0.582379937
v 0.321499825 0.810497522 0.613647103
v 0.409500122 0.810497522 0.613647103
v 0.409500122 0.572999954 0.582379937
v 0.396851523 1.000000000 0.692141586
v 0.321499825 1.000000000 0.692141586
v 0.409500122 1.000000000 0.692141586
v 0.356624596 0.000000000 0.792938757
v 0.321499825 0.000000000 0.792938757
v 0.321499825 0.114189863 0.705317736
v 0.409500122 0.114189863 0.705317736
v 0.409500122 0.000000000 0.792938757
v 0.321499825 0.335502386 0.613647103
v 0.409500122 0.335502386 0.613647103
v 0.321499825 0.000000000 0.819507619
v 0.321499825 1.000000000 0.696794259
v 0.321499825 0.000000000 0.913201606
v 0.321499825 1.000000000 0.828908503
v 0.321499825 0.000000000 1.000000000
v 0.321499825 0.331886933 1.000000000
v 0.321499825 0.814112993 1.000000000
v 0.321499825 1.000000000 1.000000000
v 0.409500122 1.000000000 0.723056467
v 0.409500122 0.000000000 0.807349541
v 0.409500122 1.000000000 0.791698745
v 0.409500122 0.000000000 0.949149489
v 0.409500122 1.000000000 1.000000000
v 0.409500122 0.721855242 1.000000000
v 0.409500122 0.231979442 1.000000000
v 0.409500122 0.000000000 1.000000000
v 0.315999985 0.855374336 0.843587816
v 0.315999985 0.877284765 0.830937803
v 0.295760155 0.877284765 0.830937803
v 0.295760155 0.855374336 0.843587816
v 0.315999985 0.877284765 0.805637777
v 0.295760155 0.877284765 0.805637777
v 0.315999985 0.855374336 0.792987764
v 0.295760155 0.855374336 0.792987764
v 0.315999985 0.833463907 0.805637777
v 0.295760155 0.833463907 0.805637777
v 0.315999985 0.833463907 0.830937803
v 0.295760155 0.833463907 0.830937803
v 0.315999985 0.290625572 0.843587816
v 0.315999985 0.312536001 0.830937803
v 0.295760155 0.312536001 0.830937803
v 0.295760155 0.290625572 0.843587816
v 0.315999985 0.312536001 0.805637777
v 0.295760155 0.312536001 0.805637777
v 0.315999985 0.290625572 0.792987764
v 0.295760155 0.290625572 0.792987764
v 0.315999985 0.268715143 0.805637777
v 0.295760155 0.268715143 0.805637777
v 0.315999985 0.268715143 0.830937803
v 0.295760155 0.268715143 0.830937803
v 0.300600052 0.884383917 0.612852752
v 0.300600052 0.878839493 0.615677774
v 0.304999828 0.880199194 0.611493111
v 0.300600052 0.842537403 0.599256039
v 0.304999828 0.846722007 0.600615680
v 0.300600052 0.845362306 0.604800344
v 0.300600052 0.907158375 0.542759895
v 0.304999828 0.902973771 0.541400254
v 0.300600052 0.904333472 0.537215590
v 0.304999828 0.869496584 0.530522823
v 0.300600052 0.865311861 0.529163182
v 0.300600052 0.870856285 0.526338160
v 0.000000000 0.883561365 0.613271863
v 0.000000000 0.878839493 0.615677774
v 0.000000000 0.884383917 0.612852752
v 0.000000000 0.844943213 0.603977810
v 0.000000000 0.845362306 0.604800344
v 0.000000000 0.842537403 0.599256039
v 0.000000000 0.904752565 0.538038124
v 0.000000000 0.907158375 0.542759895
v 0.000000000 0.904333472 0.537215590
v 0.000000000 0.866134413 0.528744071
v 0.000000000 0.865311861 0.529163182
v 0.000000000 0.870856285 0.526338160
v 0.000000000 0.903779635 0.553158629
v 0.000000000 0.850328865 0.606414081
v 0.000000000 0.845916143 0.588857305
v 0.000000000 0.875822845 0.527951898
v 0.300600052 0.594999909 0.560049951
v 0.300600052 0.590599895 0.564449966
v 0.304999828 0.590599895 0.560049951
v 0.300600052 0.550999999 0.560049951
v 0.304999828 0.555399895 0.560049951
v 0.300600052 0.555399895 0.564449966
v 0.300600052 0.594999909 0.486349970
v 0.304999828 0.590600014 0.486349970
v 0.300600052 0.590600014 0.481949985
v 0.304999828 0.555400014 0.486349970
v 0.300600052 0.550999999 0.486349970
v 0.300600052 0.555400014 0.481949985
v 0.000000000 0.594347138 0.560702722
v 0.000000000 0.590599895 0.564449966
v 0.000000000 0.594999909 0.560049951
v 0.000000000 0.554747141 0.563797195
v 0.000000000 0.555399895 0.564449966
v 0.000000000 0.550999999 0.560049951
v 0.000000000 0.591252767 0.482602752
v 0.000000000 0.594999909 0.486349970
v 0.000000000 0.590600014 0.481949985
v 0.000000000 0.551652770 0.485697204
v 0.000000000 0.550999999 0.486349970
v 0.000000000 0.555400014 0.481949985
v 0.000000000 0.594999909 0.497283844
v 0.000000000 0.560622045 0.564449966
v 0.000000000 0.550999999 0.549116077
v 0.000000000 0.560622164 0.481949985
v 0.300600052 0.303462744 0.599256039
v 0.300600052 0.300637841 0.604800344
v 0.304999828 0.299278140 0.600615680
v 0.300600052 0.261616349 0.612852752
v 0.304999828 0.265800953 0.611493111
v 0.300600052 0.267160654 0.615677774
v 0.300600052 0.280688167 0.529163182
v 0.304999828 0.276503563 0.530522823
v 0.300600052 0.275143862 0.526338160
v 0.304999828 0.243026376 0.541400254
v 0.300600052 0.238841772 0.542759895
v 0.300600052 0.241666675 0.537215590
v 0.000000000 0.303043651 0.600078573
v 0.000000000 0.300637841 0.604800344
v 0.000000000 0.303462744 0.599256039
v 0.000000000 0.266338120 0.615258664
v 0.000000000 0.267160654 0.615677774
v 0.000000000 0.261616349 0.612852752
v 0.000000000 0.275966396 0.526757270
v 0.000000000 0.280688167 0.529163182
v 0.000000000 0.275143862 0.526338160
v 0.000000000 0.239260865 0.541937361
v 0.000000000 0.238841772 0.542759895
v 0.000000000 0.241666675 0.537215590
v 0.000000000 0.284066924 0.539561915
v 0.000000000 0.272127214 0.614064036
v 0.000000000 0.258237592 0.602454019
v 0.000000000 0.246633234 0.535601853
v 0.300600052 0.038309693 0.726633191
v 0.300600052 0.037336230 0.732779145
v 0.304999828 0.034749985 0.729219437
v 0.300600052 0.002712965 0.752495766
v 0.304999828 0.006272554 0.749909520
v 0.300600052 0.008858800 0.753469169
v 0.000000000 0.038165274 0.727544984
v 0.000000000 0.037336230 0.732779145
v 0.000000000 0.038309693 0.726633191
v 0.000000000 0.007947025 0.753324758
v 0.000000000 0.008858800 0.753469169
v 0.000000000 0.002712965 0.752495766
v 0.301154457 0.000000000 0.674847671
v 0.304999828 0.000000000 0.681390173
v 0.300600052 0.000000000 0.673904408
v 0.300900263 0.000000000 0.748250916
v 0.300600052 0.000000000 0.748761694
v 0.304999828 0.000000000 0.741276076
v 0.066263535 0.000000000 0.673904408
v 0.000000000 0.001416701 0.675854330
v 0.000000000 0.000000000 0.673904408
v 0.000000000 0.013083613 0.750399669
v 0.304999828 0.000000000 0.710375060
v 0.000000000 0.000000000 0.748761694
v 0.173706396 0.000000000 0.748761694
v 0.299500465 0.572999954 0.530349970
v 0.299500465 0.823963761 0.563390017
v 0.453500271 0.823963761 0.563390017
v 0.453500271 0.572999954 0.530349970
v 0.415421925 1.000000000 0.636306555
v 0.299500465 1.000000000 0.636306555
v 0.453500271 1.000000000 0.636306555
v 0.385883236 0.000000000 0.727917485
v 0.299500465 0.000000000 0.727917485
v 0.299500465 0.088174939 0.660258472
v 0.453500271 0.088174939 0.660258472
v 0.453500271 0.000000000 0.727917485
v 0.299500465 0.322036147 0.563390017
v 0.453500271 0.322036147 0.563390017
v 0.574500084 0.788461566 0.695886075
v 0.574500084 0.572999954 0.667519987
v 0.555516876 1.000000000 0.760414240
v 0.574500084 0.989239931 0.779051185
v 0.574500084 1.000000000 0.787307665
v 0.504093626 0.000000000 0.799592853
v 0.574500084 0.156759977 0.779051185
v 0.574500084 0.000000000 0.899337264
v 0.574500084 0.357538342 0.695886075
v 0.299500465 0.000000000 0.748433411
v 0.299500465 1.000000000 0.644764286
v 0.299500465 0.000000000 0.861171660
v 0.299500465 1.000000000 0.776878588
v 0.299500465 0.000000000 1.000000000
v 0.299500465 0.301847393 1.000000000
v 0.299500465 0.844152496 1.000000000
v 0.299500465 1.000000000 1.000000000
v 0.574500084 1.000000000 0.818017748
v 0.574500084 0.000000000 0.902310833
v 0.574500084 1.000000000 0.868033093
v 0.574500084 0.053424356 1.000000000
v 0.574500084 0.000000000 1.000000000
v 0.574500084 1.000000000 1.000000000
v 0.574500084 0.661652285 1.000000000
v 0.574500084 0.276051254 1.000000000
v 0.576700211 0.572999954 0.837799966
v 0.576700211 0.744389892 0.860363901
v 0.588800430 0.744389892 0.860363901
v 0.588800430 0.572999954 0.837799966
v 0.576700211 0.904099941 0.926517963
v 0.588800430 0.904099941 0.926517963
v 0.585149309 0.999863662 1.000000000
v 0.576700211 0.999863662 1.000000000
v 0.588800430 0.999863662 1.000000000
v 0.580351332 0.146136330 1.000000000
v 0.576700211 0.146136330 1.000000000
v 0.576700211 0.241899967 0.926517963
v 0.588800430 0.241899967 0.926517963
v 0.588800430 0.146136330 1.000000000
v 0.576700211 0.401610017 0.860363901
v 0.588800430 0.401610017 0.860363901
v 0.576700211 0.168417949 1.000000000
v 0.576700211 0.977581978 1.000000000
v 0.576700211 0.292061317 1.000000000
v 0.576700211 0.853938621 1.000000000
v 0.576700211 0.479353730 1.000000000
v 0.576700211 0.666646188 1.000000000
v 0.588800430 0.986246793 1.000000000
v 0.588800430 0.159753213 1.000000000
v 0.588800430 0.922739020 1.000000000
v 0.588800430 0.261973917 1.000000000
v 0.588800430 0.541246106 1.000000000
v 0.588800430 0.364194634 1.000000000
v 0.608600616 0.572999954 0.878279984
v 0.596500397 0.560899973 0.878279984
v 0.596500397 0.572999954 0.866180003
v 0.584400654 0.572999954 0.878279984
v 0.596500397 0.585100055 0.878279984
v 0.607416129 0.571815479 1.000000000
v 0.596500397 0.560899961 1.000000000
v 0.608600570 0.572999954 1.000000000
v 0.595315909 0.562084437 1.000000000
v 0.584400607 0.572999954 1.000000000
v 0.585585094 0.574184418 1.000000000
v 0.596500397 0.585100043 1.000000000
v 0.597684837 0.583915579 1.000000000
v 0.608600140 0.810921907 0.925605595
v 0.596500397 0.799743056 0.920975149
v 0.596500397 0.815552473 0.914426684
v 0.584400177 0.810922027 0.925605595
v 0.596500397 0.822100878 0.930236042
v 0.607813401 0.779255156 1.000000000
v 0.596500397 0.767009881 1.000000000
v 0.608600170 0.780106730 1.000000000
v 0.595671400 0.767907196 1.000000000
v 0.584400208 0.780106841 1.000000000
v 0.585180629 0.780951579 1.000000000
v 0.596500397 0.793203691 1.000000000
v 0.584400208 0.780106849 1.000000000
v 0.597238196 0.792405127 1.000000000
v 0.608600170 0.780106737 1.000000000
v 0.596500397 0.323899031 0.930236042
v 0.584400177 0.335077882 0.925605595
v 0.596500397 0.330447435 0.914426684
v 0.608600616 0.335077882 0.925605595
v 0.596500397 0.346256852 0.920975149
v 0.608600616 0.335078001 0.925605595
v 0.584400177 0.335078001 0.925605595
v 0.595762597 0.353594782 1.000000000
v 0.596500397 0.352796217 1.000000000
v 0.584400177 0.365893059 1.000000000
v 0.607820164 0.365048329 1.000000000
v 0.608600616 0.365893059 1.000000000
v 0.597329426 0.378092713 1.000000000
v 0.596500397 0.378990027 1.000000000
v 0.608600616 0.365893179 1.000000000
v 0.585186946 0.366744753 1.000000000
v 0.584400177 0.365893179 1.000000000
v 0.584400177 0.365893171 1.000000000
v 0.608600616 0.365893067 1.000000000
v 0.170800209 0.086800098 0.925228000
v 0.184000015 0.086800098 0.912027955
v 0.170800209 0.100000024 0.912027955
v 0.184000015 0.086800098 0.608428001
v 0.170800209 0.086800098 0.595227957
v 0.170800209 0.100000024 0.608428001
v 0.000000000 0.090511190 0.921516875
v 0.000000000 0.086800098 0.925228000
v 0.000000000 0.100000024 0.912027955
v 0.000000000 0.096288932 0.604716876
v 0.000000000 0.086800098 0.595227957
v 0.000000000 0.100000024 0.608428001
v 0.172296740 0.000000000 0.923731441
v 0.184000015 0.000000000 0.912027955
v 0.170800209 0.000000000 0.925228000
v 0.182503484 0.000000000 0.606931443
v 0.170800209 0.000000000 0.595227957
v 0.184000015 0.000000000 0.608428001
v 0.143862216 0.000000000 0.925228000
v 0.000000000 0.000000000 0.925228000
v 0.184000015 0.000000000 0.642848718
v 0.000000000 0.000000000 0.595227957
v 0.000000000 0.100000024 0.826672380
vt 0.472537892 0.072144450
vt 0.472537892 0.073931076
vt 0.487760425 0.073931076
vt 0.472537892 0.062500000
vt 0.487760425 0.062500000
vt 0.472537892 0.083204891
vt 0.472537892 0.084922858
vt 0.487760425 0.084922858
vt 0.472537892 0.088947711
vt 0.487760425 0.088947711
vt 0.472537892 0.028559293
vt 0.472537892 0.029947056
vt 0.487760425 0.029947056
vt 0.472537892 0.027009284
vt 0.487760425 0.027009284
vt 0.472537892 0.038493855
vt 0.472537892 0.040077142
vt 0.487760425 0.040077142
vt 0.472537892 0.049350961
vt 0.472537892 0.051068928
vt 0.487760425 0.051068928
vt 0.472537892 0.060713375
vt 0.492447913 0.073245212
vt 0.492447913 0.062500000
vt 0.492447913 0.083577491
vt 0.490067708 0.088947713
vt 0.492447913 0.088947716
vt 0.490331435 0.027009284
vt 0.492447913 0.031900235
vt 0.492447913 0.027009286
vt 0.492447913 0.041422512
vt 0.492447913 0.051754791
vt 0.492578119 0.062500000
vt 0.491519809 0.073245212
vt 0.480600923 0.071073309
vt 0.481445312 0.062500000
vt 0.488385558 0.083577491
vt 0.478100181 0.079317145
vt 0.485515116 0.088947716
vt 0.477081804 0.088947710
vt 0.474039197 0.086914703
vt 0.472370750 0.088947708
vt 0.468469207 0.028172386
vt 0.468469208 0.027009287
vt 0.472990712 0.027009287
vt 0.468574017 0.031425972
vt 0.468469203 0.031339953
vt 0.475873783 0.027009287
vt 0.479281898 0.027009286
vt 0.483295798 0.031900235
vt 0.474039197 0.038085297
vt 0.488385558 0.041422512
vt 0.478100181 0.045682855
vt 0.491519809 0.051754791
vt 0.480600923 0.053926695
vt 0.472006195 0.088947707
vt 0.468469221 0.032515318
vt 0.470996590 0.088947706
vt 0.468469223 0.035770322
vt 0.468469216 0.088947707
vt 0.468469216 0.072083065
vt 0.468469222 0.045820552
vt 0.468469219 0.056339841
vt 0.378906250 0.062500000
vt 0.378906250 0.077665180
vt 0.496093750 0.077665180
vt 0.496093750 0.062500000
vt 0.479249969 0.089765682
vt 0.378906250 0.089765682
vt 0.496093750 0.089765682
vt 0.425680912 0.025911635
vt 0.378906250 0.025911635
vt 0.378906250 0.033203121
vt 0.496093750 0.033203121
vt 0.496093750 0.025911635
vt 0.378906250 0.047334820
vt 0.496093750 0.047334820
vt 0.494097203 0.047334820
vt 0.488243669 0.033203121
vt 0.480952184 0.025911636
vt 0.482648709 0.025911635
vt 0.488787928 0.089765682
vt 0.489085019 0.089765682
vt 0.494097203 0.077665180
vt 0.474969447 0.025911634
vt 0.480351903 0.089765680
vt 0.469427019 0.025911634
vt 0.469427022 0.047103958
vt 0.469427022 0.077896043
vt 0.469427020 0.089765680
vt 0.487110973 0.089765680
vt 0.481728519 0.025911635
vt 0.482727886 0.089765681
vt 0.472674026 0.025911636
vt 0.469427012 0.089765681
vt 0.469427013 0.072005013
vt 0.469427013 0.040724461
vt 0.469427016 0.025911636
vt 0.937500000 0.003906250
vt 0.996093750 0.003906250
vt 0.996093750 0.121093750
vt 0.937500000 0.121093750
vt 0.966796875 0.003906250
vt 0.908203125 0.003906250
vt 0.908203125 0.121093750
vt 0.966796875 0.121093750
vt 0.878906250 0.003906250
vt 0.878906250 0.121093750
vt 0.996093750 0.062500000
vt 0.878906250 0.062500000
vt 0.495840371 0.008593749
vt 0.495840430 0.015625000
vt 0.496093750 0.013802081
vt 0.495840371 0.010156250
vt 0.488281250 0.010156251
vt 0.495840371 0.003906250
vt 0.495840341 0.114843741
vt 0.496093750 0.114843749
vt 0.495840371 0.121093757
vt 0.487304688 0.114843749
vt 0.492973983 0.115234375
vt 0.478955259 0.009202243
vt 0.478955310 0.015190362
vt 0.478520616 0.008825556
vt 0.478530046 0.111113554
vt 0.495840400 0.109375000
vt 0.478530046 0.109375000
vt 0.478530020 0.121093751
vt 0.495840371 0.121093750
vt 0.496093720 0.109375000
vt 0.478520616 0.120166527
vt 0.478520591 0.114843741
vt 0.479663995 0.121093756
vt 0.390624970 0.114843749
vt 0.390625000 0.121093750
vt 0.478529999 0.114032419
vt 0.478529991 0.114843741
vt 0.476088885 0.114365100
vt 0.478520591 0.099312668
vt 0.478955284 0.095031937
vt 0.390624970 0.010156250
vt 0.478530016 0.025687323
vt 0.478530016 0.010156249
vt 0.476088880 0.100456674
vt 0.478530020 0.015625000
vt 0.495840371 0.015625000
vt 0.495840341 0.008593749
vt 0.478955233 0.009202243
vt 0.478520591 0.008825556
vt 0.495872272 0.102111725
vt 0.496093750 0.094855075
vt 0.495840344 0.102555591
vt 0.495257953 0.017299427
vt 0.495840369 0.016712452
vt 0.488139847 0.025314666
vt 0.482338514 0.102736299
vt 0.478520591 0.102736299
vt 0.437418186 0.060825251
vt 0.390624970 0.094133835
vt 0.478530016 0.016712452
vt 0.488533073 0.016712452
vt 0.378906250 0.062499996
vt 0.378906250 0.077665173
vt 0.444531292 0.077665173
vt 0.444531292 0.062499996
vt 0.428304693 0.088302632
vt 0.378906250 0.088302632
vt 0.444531292 0.088302632
vt 0.415717159 0.027874910
vt 0.378906250 0.027874910
vt 0.444531292 0.033203121
vt 0.444531292 0.027874910
vt 0.378906250 0.047334824
vt 0.444531292 0.047334824
vt 0.496093750 0.062499996
vt 0.494097203 0.077665173
vt 0.486090779 0.075519852
vt 0.487804890 0.062499996
vt 0.489691027 0.088302632
vt 0.482191490 0.088302635
vt 0.481065303 0.087652430
vt 0.480566382 0.088302636
vt 0.479824006 0.027874911
vt 0.484155184 0.027874910
vt 0.481065303 0.037347563
vt 0.473796683 0.027874910
vt 0.494097203 0.047334824
vt 0.486090779 0.049480140
vt 0.482915459 0.027874910
vt 0.489179948 0.088302630
vt 0.476102946 0.027874911
vt 0.481196585 0.088302641
vt 0.467713865 0.027874911
vt 0.467713865 0.046114863
vt 0.467713865 0.078885130
vt 0.467713865 0.088302641
vt 0.478710637 0.088302638
vt 0.473616996 0.027874910
vt 0.475688323 0.088302637
vt 0.467713863 0.031103224
vt 0.467713862 0.027874911
vt 0.467713864 0.088302637
vt 0.467713866 0.067857053
vt 0.467713867 0.044556060
vt 0.253906250 0.187500000
vt 0.253906250 0.202665165
vt 0.371093750 0.202665165
vt 0.371093750 0.187500000
vt 0.253906250 0.216796860
vt 0.371093750 0.216796860
vt 0.335733586 0.225270358
vt 0.253906250 0.225270358
vt 0.371093750 0.225270358
vt 0.289266414 0.149729627
vt 0.253906250 0.149729627
vt 0.253906250 0.158203125
vt 0.371093750 0.158203125
vt 0.371093750 0.149729627
vt 0.253906250 0.172334820
vt 0.371093750 0.172334820
vt 0.369097203 0.172334820
vt 0.363243669 0.158203125
vt 0.356741727 0.151701183
vt 0.356741741 0.149729627
vt 0.356741727 0.223298807
vt 0.356741741 0.225270358
vt 0.363243669 0.216796860
vt 0.369097203 0.202665165
vt 0.356741731 0.162641577
vt 0.356741731 0.212358423
vt 0.356741729 0.179213858
vt 0.356741729 0.195786142
vt 0.356741742 0.224065490
vt 0.356741742 0.150934495
vt 0.356741742 0.218446103
vt 0.356741723 0.159979336
vt 0.356741719 0.184690304
vt 0.356741717 0.169024178
vt 0.437500000 0.119975165
vt 0.422851562 0.119975165
vt 0.437500000 0.121093750
vt 0.496093750 0.119975157
vt 0.452148438 0.119975165
vt 0.437500000 0.091796875
vt 0.436066063 0.108722708
vt 0.422851557 0.108722708
vt 0.436066068 0.110129265
vt 0.443235726 0.112473526
vt 0.496093750 0.112473519
vt 0.437500000 0.108695333
vt 0.450714503 0.108722708
vt 0.437499997 0.108722708
vt 0.452626415 0.108722708
vt 0.490358021 0.108722701
vt 0.496093750 0.108722701
vt 0.436547543 0.112500970
vt 0.422851562 0.112067764
vt 0.436551380 0.113461606
vt 0.441514466 0.114724727
vt 0.496093750 0.115012446
vt 0.437499998 0.112048527
vt 0.451203626 0.112560981
vt 0.437499998 0.112994430
vt 0.452464643 0.112531098
vt 0.492521051 0.112966172
vt 0.437499998 0.112531098
vt 0.496093750 0.112994422
vt 0.422851503 0.005024837
vt 0.422851562 0.019393627
vt 0.437500030 0.047851562
vt 0.437500000 0.004745190
vt 0.437500000 0.062499996
vt 0.496093750 0.043341603
vt 0.437499970 0.005024837
vt 0.457031250 0.005024837
vt 0.437500000 0.003906250
vt 0.496093750 0.005024836
vt 0.378906250 0.062500022
vt 0.437500000 0.062500015
vt 0.496093750 0.062500007
vt 0.423744681 0.012033823
vt 0.422851507 0.012005572
vt 0.423800180 0.025907185
vt 0.492314511 0.048284393
vt 0.496093750 0.048304315
vt 0.437500000 0.011742908
vt 0.438503589 0.012900492
vt 0.437499972 0.012932238
vt 0.456715044 0.012468904
vt 0.441309801 0.012499031
vt 0.437499972 0.012468904
vt 0.496093750 0.012932236
vt 0.438448562 0.012468904
vt 0.437499940 0.005024837
vt 0.490234375 0.119140625
vt 0.496093750 0.119140625
vt 0.490234375 0.121093743
vt 0.492578119 0.119140632
vt 0.490234375 0.119140632
vt 0.490527332 0.118750006
vt 0.413364636 0.119689739
vt 0.413364636 0.119140630
vt 0.413856028 0.121093748
vt 0.383593768 0.119140632
vt 0.383593738 0.121093750
vt 0.414417625 0.117175006
vt 0.414417646 0.119140627
vt 0.414499988 0.117065183
vt 0.490898683 0.106504010
vt 0.496093750 0.106504010
vt 0.490234375 0.106241977
vt 0.492312397 0.106297343
vt 0.490234375 0.106297343
vt 0.492622406 0.106297343
vt 0.478110753 0.106297336
vt 0.413364633 0.106297341
vt 0.480221992 0.106297343
vt 0.383593768 0.106297343
vt 0.414417646 0.106297337
vt 0.414500010 0.039563618
vt 0.414417646 0.008593749
vt 0.490234375 0.008593749
vn 0.000000000 0.098017302 -0.995184711
vn 0.000000000 0.290284498 -0.956940390
vn 0.000000000 0.471396969 -0.881921140
vn 0.000000000 -0.634393049 -0.773010646
vn 0.000000000 -0.471396702 -0.881921283
vn 0.000000000 -0.290284677 -0.956940336
vn 0.000000000 -0.098017302 -0.995184711
vn 0.495578750 0.085134203 -0.864380628
vn 0.495578926 0.085134065 -0.864380541
vn 0.495579153 0.252130311 -0.831162805
vn 0.495578599 0.252130789 -0.831162991
vn 0.495578358 0.409438076 -0.766004278
vn 0.495579136 0.409437365 -0.766004154
vn 0.495578413 -0.551010459 -0.671408602
vn 0.495578778 -0.551010532 -0.671408272
vn 0.495578751 -0.409437738 -0.766004204
vn 0.495578334 -0.409437581 -0.766004558
vn 0.495578839 -0.252130518 -0.831162930
vn 0.495578934 -0.252130569 -0.831162858
vn 0.495578921 -0.085134193 -0.864380531
vn 0.495578825 -0.085134129 -0.864380592
vn 0.918512383 0.038755220 -0.393488292
vn 0.918512345 0.038755346 -0.393488367
vn 0.918512359 0.114776423 -0.378366780
vn 0.918512381 0.114776341 -0.378366750
vn 0.918512404 0.186386439 -0.348704830
vn 0.918512358 0.186386619 -0.348704856
vn 0.918512404 0.250834101 -0.305642304
vn 0.918512379 -0.305642386 -0.250834090
vn 0.918512409 -0.305642392 -0.250833974
vn 0.918512402 -0.250834137 -0.305642279
vn 0.918512388 -0.250834124 -0.305642332
vn 0.918512363 -0.186386485 -0.348704914
vn 0.918512410 -0.186386563 -0.348704750
vn 0.918512381 -0.114776332 -0.378366752
vn 0.918512353 -0.114776266 -0.378366842
vn 0.918512348 -0.038755254 -0.393488368
vn 0.918512388 -0.038755369 -0.393488265
vn 1.000000000 -0.000000000 0.000000000
vn 0.000000000 0.130526267 -0.991444852
vn 0.000000000 0.382683375 -0.923879556
vn 0.000000000 -0.608761681 -0.793353147
vn 0.000000000 -0.382683375 -0.923879556
vn 0.000000000 -0.130526267 -0.991444852
vn -1.000000000 0.000000000 0.000000000
vn 0.000000000 0.500000619 0.866025046
vn 0.000000000 1.000000000 0.000000000
vn 0.000000000 0.500000619 -0.866025046
vn 0.000000000 -0.500000619 -0.866025046
vn 0.000000000 -1.000000000 0.000000000
vn 0.000000000 -0.500000619 0.866025046
vn 0.577370143 0.370674955 0.727491440
vn 0.577370143 -0.727494544 0.370668864
vn 0.577370143 0.727494544 -0.370668864
vn 0.577370143 -0.370674955 -0.727491440
vn -0.000000000 0.453990064 0.891006746
vn 0.000000000 -0.891010547 0.453982604
vn 0.707126516 -0.218502512 0.672479548
vn 0.000000000 0.891010547 -0.453982604
vn 0.707126516 0.218502512 -0.672479548
vn -0.000000000 -0.453990064 -0.891006746
vn 0.707120481 0.672485405 0.218504016
vn 0.707129591 0.672477077 0.218500166
vn 0.707129591 -0.672477077 -0.218500166
vn 0.707120481 -0.672485405 -0.218504016
vn -0.000000000 0.951056883 0.309015867
vn 0.000000000 -0.309017841 0.951056241
vn -0.000000000 -0.951056883 -0.309015867
vn 0.000000000 0.309017841 -0.951056241
vn 0.577371126 0.577339841 0.577339841
vn 0.577365912 -0.577350269 0.577334627
vn 0.577364608 0.577348965 -0.577337234
vn 0.577369822 -0.577338537 -0.577342448
vn -0.000000000 0.707106781 0.707106781
vn 0.000000000 -0.707116360 0.707097202
vn 0.707125939 0.000000000 0.707087623
vn 0.000000000 0.707113965 -0.707099597
vn 0.707123544 0.000000000 -0.707090018
vn -0.000000000 -0.707104386 -0.707109176
vn 0.707116360 0.707097202 0.000001144
vn 0.707125939 0.707087623 0.000000000
vn 0.707125939 -0.707087623 0.000000000
vn 0.707116360 -0.707097202 -0.000001144
vn 0.000000000 0.000000000 1.000000000
vn 0.000000000 0.000000000 -1.000000000
vn 0.577370143 0.727494544 0.370668864
vn 0.577366795 -0.370682357 0.727490326
vn 0.577366795 0.370682357 -0.727490326
vn 0.577370143 -0.727494544 -0.370668864
vn -0.000000000 0.891010547 0.453982604
vn 0.000000000 -0.453997813 0.891002798
vn 0.707126516 0.218502512 0.672479548
vn 0.000000000 0.453997813 -0.891002798
vn 0.707126516 -0.218502512 -0.672479548
vn -0.000000000 -0.891010547 -0.453982604
vn 0.707120481 0.672485405 -0.218504016
vn 0.707120481 -0.672485405 0.218504016
vn 0.000000000 0.951056407 -0.309017330
vn 0.000000000 0.309017841 0.951056241
vn 0.000000000 -0.951056407 0.309017330
vn 0.000000000 -0.309017841 -0.951056241
vn 0.577371726 0.806428366 0.127730895
vn 0.577366931 -0.127726213 0.806432540
vn -0.000000000 0.987687358 0.156440666
vn 0.000000000 -0.156434281 0.987688370
vn 0.707122615 0.415617100 0.572048978
vn 0.707126490 0.415615606 0.572045274
vn 0.707126490 0.572045510 -0.415615281
vn 0.707126490 -0.572045238 0.415615655
vn 0.707118741 -0.572052052 0.415619461
vn 0.000000000 0.809017069 -0.587785150
vn 0.000000000 0.587784502 0.809017539
vn 0.000000000 -0.809016684 0.587785679
vn 0.000000000 0.130526327 -0.991444844
vn 0.000000000 0.382683169 -0.923879641
vn 0.000000000 -0.608761444 -0.793353329
vn 0.000000000 -0.382683336 -0.923879573
vn 0.000000000 -0.130526327 -0.991444844
vn 0.747098183 0.086762638 -0.659026971
vn 0.747098184 0.086762637 -0.659026971
vn 0.747098301 0.254374695 -0.614115333
vn 0.747098170 0.254374893 -0.614115411
vn 0.747098426 0.404651547 -0.527352886
vn 0.747098221 -0.404652047 -0.527352794
vn 0.747098022 -0.404651999 -0.527353112
vn 0.747098172 -0.254374861 -0.614115422
vn 0.747098201 -0.254374880 -0.614115379
vn 0.747098184 -0.086762638 -0.659026971
vn 0.747098183 -0.086762637 -0.659026971
vn 0.000000000 0.130526312 -0.991444846
vn 0.000000000 0.382683403 -0.923879544
vn 0.000000000 0.608761164 -0.793353544
vn 0.000000000 -0.608761497 -0.793353288
vn 0.000000000 -0.382683403 -0.923879544
vn 0.000000000 -0.130526312 -0.991444846
vn 0.577342685 -0.577354061 -0.577354061
vn -0.577357853 -0.577346477 -0.577346477
vn -0.577359749 0.577342685 -0.577348373
vn 0.577344581 0.577350269 -0.577355957
vn 0.707099815 -0.707113748 -0.000000068
vn 0.707117231 -0.707096331 0.000000271
vn -0.707113748 -0.707099815 -0.000000271
vn -0.707103298 -0.707110264 -0.000000068
vn -0.707117231 0.707096331 0.000000068
vn -0.707099815 0.707113748 -0.000000271
vn 0.707103298 0.707110264 0.000000271
vn 0.707113748 0.707099815 0.000000068
vn 0.577355699 -0.312457816 -0.754341110
vn -0.577342583 -0.312461365 -0.754349679
vn -0.577340831 0.754351412 -0.312460417
vn 0.577360954 0.754338266 -0.312454972
vn 0.707111573 -0.653277026 -0.270596287
vn 0.707098973 -0.653288573 -0.270601335
vn -0.707100858 -0.653287015 -0.270600170
vn -0.707112906 -0.653275795 -0.270595777
vn -0.707097640 0.653289898 0.270601618
vn -0.707110240 0.653278164 0.270597023
vn 0.707114791 0.653274191 0.270594723
vn 0.707096307 0.653291130 0.270602129
vn -0.577340831 -0.754351412 -0.312460417
vn 0.577340831 -0.754351412 -0.312460417
vn 0.577340530 0.312461920 -0.754351019
vn -0.577340530 0.312461920 -0.754351019
vn -0.678590661 0.000000000 -0.734516654
vn 0.678590661 0.000000000 -0.734516654
vn -0.707096307 -0.653291130 0.270602129
vn -0.707097640 -0.653289908 0.270601595
vn 0.707096307 -0.653291140 0.270602105
vn 0.707097640 -0.653289898 0.270601618
vn 0.707098973 0.653288667 -0.270601108
vn 0.707097640 0.653289908 -0.270601595
vn -0.707098973 0.653288677 -0.270601084
vn -0.707097640 0.653289898 -0.270601618
vn 0.577355483 0.577350269 0.577345055
vn 0.577355483 0.577350269 -0.577345055
vn -0.000000000 0.707109974 0.707103588
vn 0.707109974 0.707103588 0.000000000
vn 0.000000000 0.707109974 -0.707103588
vn 0.707113167 -0.000000000 0.707100395
vn 0.707113167 0.000000000 -0.707100395
usemtl mat_5
f 1/1/1 2/2/1 3/3/1
f 4/4/1 1/1/1 3/3/1 5/5/1
f 6/6/2 7/7/2 8/8/2
f 2/2/2 6/6/2 8/8/2 3/3/2
f 7/7/3 9/9/3 10/10/3 8/8/3
f 11/11/4 12/12/4 13/13/4
f 14/14/4 11/11/4 13/13/4 15/15/4
f 16/16/5 17/17/5 18/18/5
f 12/12/5 16/16/5 18/18/5 13/13/5
f 19/19/6 20/20/6 21/21/6
f 17/17/6 19/19/6 21/21/6 18/18/6
f 22/22/7 4/4/7 5/5/7
f 20/20/7 22/22/7 5/5/7 21/21/7
f 5/5/8 3/3/8 23/23/8
f 5/5/9 23/23/9 24/24/9
f 3/3/10 8/8/10 25/25/10
f 3/3/11 25/25/11 23/23/11
f 26/26/12 8/8/12 10/10/12
f 8/8/13 26/26/13 27/27/13 25/25/13
f 28/28/14 15/15/14 13/13/14 29/29/14
f 28/28/15 29/29/15 30/30/15
f 13/13/16 18/18/16 31/31/16
f 13/13/17 31/31/17 29/29/17
f 18/18/18 21/21/18 32/32/18
f 18/18/19 32/32/19 31/31/19
f 21/21/20 5/5/20 24/24/20
f 21/21/21 24/24/21 32/32/21
f 24/33/22 23/34/22 33/35/22
f 24/33/23 33/35/23 34/36/23
f 23/34/24 25/37/24 35/38/24
f 23/34/25 35/38/25 33/35/25
f 25/37/26 27/39/26 36/40/26 37/41/26
f 25/37/27 37/41/27 35/38/27
f 36/40/28 38/42/28 37/41/28
f 39/43/29 40/44/29 41/45/29 42/46/29
f 39/43/30 42/46/30 43/47/30
f 44/48/31 30/49/31 29/50/31 45/51/31
f 41/45/32 44/48/32 45/51/32 42/46/32
f 29/50/33 31/52/33 46/53/33
f 29/50/34 46/53/34 45/51/34
f 31/52/35 32/54/35 47/55/35
f 31/52/36 47/55/36 46/53/36
f 32/54/37 24/33/37 34/36/37
f 32/54/38 34/36/38 47/55/38
f 47/55/39 34/36/39 33/35/39
f 33/35/39 35/38/39 37/41/39
f 48/56/39 37/41/39 38/42/39
f 49/57/39 43/47/39 42/46/39 45/51/39
f 45/51/39 46/53/39 47/55/39
f 47/55/39 33/35/39 37/41/39
f 50/58/39 37/41/39 48/56/39
f 51/59/39 49/57/39 45/51/39 47/55/39
f 52/60/39 53/61/39 47/55/39
f 52/60/39 47/55/39 37/41/39
f 52/60/39 37/41/39 50/58/39
f 54/62/39 51/59/39 47/55/39
f 55/63/39 47/55/39 53/61/39
f 55/63/39 54/62/39 47/55/39
f 56/64/40 57/65/40 58/66/40
f 56/64/40 58/66/40 59/67/40
f 60/68/41 57/65/41 61/69/41
f 57/65/41 60/68/41 62/70/41 58/66/41
f 63/71/42 64/72/42 65/73/42 66/74/42
f 63/71/42 66/74/42 67/75/42
f 65/73/43 68/76/43 69/77/43
f 65/73/43 69/77/43 66/74/43
f 68/76/44 56/64/44 59/67/44
f 68/76/44 59/67/44 69/77/44
f 56/67/45 68/78/45 65/79/45
f 70/80/45 65/79/45 64/81/45
f 71/82/45 61/83/45 57/84/45 56/67/45
f 72/85/45 56/67/45 65/79/45 70/80/45
f 73/86/45 71/82/45 56/67/45
f 74/87/45 75/88/45 56/67/45 72/85/45
f 76/89/45 77/90/45 73/86/45 56/67/45
f 75/88/45 76/89/45 56/67/45
f 69/78/39 59/67/39 58/84/39
f 78/91/39 58/84/39 62/83/39
f 79/92/39 67/81/39 66/79/39 69/78/39
f 80/93/39 69/78/39 58/84/39 78/91/39
f 81/94/39 79/92/39 69/78/39
f 82/95/39 83/96/39 69/78/39 80/93/39
f 84/97/39 85/98/39 81/94/39 69/78/39
f 83/96/39 84/97/39 69/78/39
usemtl mat_1
f 86/99/46 87/100/46 88/101/46
f 86/99/46 88/101/46 89/102/46
f 87/103/47 90/104/47 91/105/47
f 87/103/47 91/105/47 88/106/47
f 90/100/48 92/99/48 93/102/48
f 90/100/48 93/102/48 91/101/48
f 92/99/49 94/107/49 95/108/49
f 92/99/49 95/108/49 93/102/49
f 94/104/50 96/103/50 97/106/50
f 94/104/50 97/106/50 95/105/50
f 96/107/51 86/99/51 89/102/51
f 96/107/51 89/102/51 97/108/51
f 86/109/39 96/103/39 94/104/39
f 94/104/39 92/110/39 90/105/39
f 90/105/39 87/106/39 86/109/39
f 94/104/39 90/105/39 86/109/39
f 97/103/45 89/109/45 88/106/45
f 88/106/45 91/105/45 93/110/45
f 93/110/45 95/104/45 97/103/45
f 88/106/45 93/110/45 97/103/45
f 98/99/46 99/100/46 100/101/46
f 98/99/46 100/101/46 101/102/46
f 99/103/47 102/104/47 103/105/47
f 99/103/47 103/105/47 100/106/47
f 102/100/48 104/99/48 105/102/48
f 102/100/48 105/102/48 103/101/48
f 104/99/49 106/107/49 107/108/49
f 104/99/49 107/108/49 105/102/49
f 106/104/50 108/103/50 109/106/50
f 106/104/50 109/106/50 107/105/50
f 108/107/51 98/99/51 101/102/51
f 108/107/51 101/102/51 109/108/51
f 98/109/39 108/103/39 106/104/39
f 106/104/39 104/110/39 102/105/39
f 102/105/39 99/106/39 98/109/39
f 106/104/39 102/105/39 98/109/39
f 109/103/45 101/109/45 100/106/45
f 100/106/45 103/105/45 105/110/45
f 105/110/45 107/104/45 109/103/45
f 100/106/45 105/110/45 109/103/45
usemtl mat_5
f 110/111/52 111/112/52 112/113/52
f 113/114/53 114/115/53 115/116/53
f 116/117/54 117/118/54 118/119/54
f 119/120/55 120/117/55 121/121/55
f 122/122/56 123/123/56 111/112/56 110/111/56
f 122/122/56 110/111/56 124/124/56
f 125/125/57 115/126/57 126/127/57
f 115/126/57 125/125/57 127/128/57 113/129/57
f 111/112/58 115/126/58 114/130/58
f 111/112/58 114/130/58 112/113/58
f 128/131/59 129/132/59 116/117/59 118/119/59
f 128/131/59 118/119/59 130/133/59
f 117/134/60 119/120/60 121/121/60
f 117/134/60 121/121/60 118/135/60
f 131/136/61 120/117/61 132/137/61
f 120/117/61 131/136/61 133/138/61 121/121/61
f 112/113/62 117/118/62 116/117/62
f 112/113/63 116/117/63 110/111/63
f 113/114/64 120/117/64 119/120/64
f 113/114/65 119/120/65 114/115/65
f 134/139/66 124/124/66 110/111/66 116/117/66
f 134/139/66 116/117/66 129/132/66
f 135/140/67 126/127/67 115/126/67
f 123/123/67 135/140/67 115/126/67 111/112/67
f 112/141/39 114/115/39 119/120/39
f 112/141/39 119/120/39 117/134/39
f 136/142/68 113/114/68 127/143/68
f 113/114/68 136/142/68 132/137/68 120/117/68
f 137/144/69 130/145/69 118/146/69 121/121/69
f 137/144/69 121/121/69 133/138/69
f 138/147/70 139/112/70 140/113/70
f 141/114/71 142/115/71 143/116/71
f 144/117/72 145/118/72 146/119/72
f 147/120/73 148/117/73 149/121/73
f 150/148/74 151/123/74 139/112/74 138/147/74
f 150/148/74 138/147/74 152/149/74
f 153/125/75 143/126/75 154/127/75
f 143/126/75 153/125/75 155/128/75 141/129/75
f 139/112/76 143/126/76 142/130/76
f 139/112/76 142/130/76 140/113/76
f 156/131/77 157/132/77 144/117/77 146/119/77
f 156/131/77 146/119/77 158/133/77
f 145/134/78 147/120/78 149/121/78
f 145/134/78 149/121/78 146/135/78
f 159/136/79 148/117/79 160/137/79
f 148/117/79 159/136/79 161/138/79 149/121/79
f 140/113/80 145/118/80 144/117/80
f 140/113/81 144/117/81 138/147/81
f 141/114/82 148/117/82 147/120/82
f 141/114/83 147/120/83 142/115/83
f 162/139/47 152/149/47 138/147/47 144/117/47
f 162/139/47 144/117/47 157/132/47
f 163/140/84 154/127/84 143/126/84
f 151/123/84 163/140/84 143/126/84 139/112/84
f 140/141/39 142/115/39 147/120/39
f 140/141/39 147/120/39 145/134/39
f 164/142/50 141/114/50 155/143/50
f 141/114/50 164/142/50 160/137/50 148/117/50
f 165/144/85 158/145/85 146/146/85 149/121/85
f 165/144/85 149/121/85 161/138/85
f 166/111/86 167/112/86 168/113/86
f 169/114/87 170/115/87 171/116/87
f 172/117/88 173/118/88 174/119/88
f 175/120/89 176/117/89 177/121/89
f 178/122/90 179/123/90 167/112/90 166/111/90
f 178/122/90 166/111/90 180/124/90
f 181/125/91 171/126/91 182/127/91
f 171/126/91 181/125/91 183/128/91 169/129/91
f 167/112/92 171/126/92 170/130/92
f 167/112/92 170/130/92 168/113/92
f 184/131/93 185/132/93 172/117/93 174/119/93
f 184/131/93 174/119/93 186/133/93
f 173/134/94 175/120/94 177/121/94
f 173/134/94 177/121/94 174/135/94
f 187/136/95 176/117/95 188/137/95
f 176/117/95 187/136/95 189/138/95 177/121/95
f 168/113/96 173/118/96 172/117/96
f 168/113/96 172/117/96 166/111/96
f 169/114/97 176/117/97 175/120/97
f 169/114/97 175/120/97 170/115/97
f 190/139/98 180/124/98 166/111/98 172/117/98
f 190/139/98 172/117/98 185/132/98
f 191/140/99 182/127/99 171/126/99
f 179/123/99 191/140/99 171/126/99 167/112/99
f 168/141/39 170/115/39 175/120/39
f 168/141/39 175/120/39 173/134/39
f 192/142/100 169/114/100 183/143/100
f 169/114/100 192/142/100 188/137/100 176/117/100
f 193/144/101 186/145/101 174/146/101 177/121/101
f 193/144/101 177/121/101 189/138/101
f 194/111/102 195/112/102 196/113/102
f 197/114/103 198/115/103 199/116/103
f 200/122/104 201/123/104 195/112/104 194/111/104
f 200/122/104 194/111/104 202/124/104
f 203/125/105 199/126/105 204/127/105
f 199/126/105 203/125/105 205/128/105 197/129/105
f 195/112/106 199/126/106 198/130/106
f 195/112/107 198/130/107 196/113/107
f 206/150/108 196/113/108 207/151/108
f 196/113/108 206/150/108 208/152/108 194/111/108
f 209/153/109 197/114/109 210/154/109
f 197/114/110 209/153/110 211/155/110 198/115/110
f 212/156/111 213/139/111 202/124/111
f 212/156/111 202/124/111 194/111/111
f 212/156/111 194/111/111 208/152/111
f 214/157/111 213/139/111 212/156/111
f 215/140/112 204/127/112 199/126/112
f 201/123/112 215/140/112 199/126/112 195/112/112
f 216/158/39 196/141/39 198/115/39 211/155/39
f 207/159/39 196/141/39 216/158/39
f 217/160/113 218/161/113 197/114/113 205/143/113
f 210/154/113 197/114/113 218/161/113
f 219/162/114 220/163/114 221/164/114
f 219/162/114 221/164/114 222/165/114
f 223/166/115 220/163/115 224/167/115
f 220/163/115 223/166/115 225/168/115 221/164/115
f 226/169/116 227/170/116 228/73/116 229/171/116
f 226/169/116 229/171/116 230/172/116
f 228/73/117 231/173/117 232/174/117
f 228/73/117 232/174/117 229/171/117
f 231/173/118 219/162/118 222/165/118
f 231/173/118 222/165/118 232/174/118
f 222/175/119 221/176/119 233/177/119
f 222/175/120 233/177/120 234/178/120
f 221/176/121 225/179/121 235/180/121 236/181/121
f 221/176/122 236/181/122 233/177/122
f 235/180/123 237/182/123 236/181/123
f 238/183/124 230/184/124 229/79/124 239/185/124
f 238/183/125 239/185/125 240/186/125
f 229/79/126 232/187/126 241/188/126
f 229/79/127 241/188/127 239/185/127
f 232/187/128 222/175/128 234/178/128
f 232/187/129 234/178/129 241/188/129
f 219/175/45 231/187/45 228/79/45
f 242/189/45 228/79/45 227/184/45
f 243/190/45 224/179/45 220/176/45 219/175/45
f 244/191/45 219/175/45 228/79/45 242/189/45
f 245/192/45 243/190/45 219/175/45
f 246/193/45 247/194/45 219/175/45 244/191/45
f 248/195/45 249/196/45 245/192/45 219/175/45
f 247/194/45 248/195/45 219/175/45
f 241/188/39 234/178/39 233/177/39
f 250/197/39 233/177/39 236/181/39 237/182/39
f 251/198/39 240/186/39 239/185/39 241/188/39
f 252/199/39 241/188/39 233/177/39 250/197/39
f 253/200/39 254/201/39 251/198/39 241/188/39
f 255/202/39 256/203/39 241/188/39 252/199/39
f 257/204/39 253/200/39 241/188/39
f 256/203/39 257/204/39 241/188/39
usemtl mat_6
f 258/205/130 259/206/130 260/207/130
f 258/205/130 260/207/130 261/208/130
f 259/206/131 262/209/131 263/210/131
f 259/206/131 263/210/131 260/207/131
f 264/211/132 262/209/132 265/212/132
f 262/209/132 264/211/132 266/213/132 263/210/132
f 267/214/133 268/215/133 269/216/133 270/217/133
f 267/214/133 270/217/133 271/218/133
f 269/216/134 272/219/134 273/220/134
f 269/216/134 273/220/134 270/217/134
f 272/219/135 258/205/135 261/208/135
f 272/219/135 261/208/135 273/220/135
f 258/208/45 272/221/45 269/222/45
f 274/223/45 269/222/45 268/224/45
f 275/225/45 265/226/45 262/227/45
f 262/227/45 259/228/45 258/208/45
f 276/229/45 258/208/45 269/222/45 274/223/45
f 277/230/45 275/225/45 262/227/45 258/208/45
f 278/231/45 258/208/45 276/229/45
f 279/232/45 277/230/45 258/208/45
f 278/231/45 279/232/45 258/208/45
f 273/221/39 261/208/39 260/228/39
f 280/233/39 260/228/39 263/227/39 266/226/39
f 281/234/39 271/224/39 270/222/39 273/221/39
f 282/235/39 273/221/39 260/228/39 280/233/39
f 283/236/39 281/234/39 273/221/39
f 284/237/39 273/221/39 282/235/39
f 285/238/39 283/236/39 273/221/39
f 284/237/39 285/238/39 273/221/39
usemtl mat_5
f 286/239/136 287/240/136 288/241/136
f 287/239/137 289/242/137 288/241/137
f 289/243/138 290/239/138 288/244/138
f 286/239/139 288/241/139 290/242/139
f 291/245/140 292/246/140 287/240/140 286/239/140
f 291/245/141 286/239/141 293/247/141
f 294/248/142 295/249/142 289/242/142 287/239/142
f 294/248/143 287/239/143 292/250/143
f 296/251/144 297/252/144 290/239/144 289/243/144
f 296/251/145 289/243/145 295/253/145
f 298/254/146 293/252/146 286/239/146 290/242/146
f 298/254/147 290/242/147 297/255/147
f 299/239/148 300/240/148 301/241/148
f 300/239/149 302/242/149 301/241/149
f 302/243/150 303/239/150 301/244/150
f 299/239/151 301/241/151 303/242/151
f 304/256/152 305/257/152 300/240/152 299/239/152
f 304/256/153 299/239/153 306/258/153
f 307/259/154 308/260/154 302/242/154 300/239/154
f 307/259/155 300/239/155 305/261/155
f 309/262/156 310/263/156 303/239/156 302/243/156
f 309/262/157 302/243/157 311/264/157
f 312/265/158 313/266/158 299/239/158 303/242/158
f 312/265/159 303/242/159 310/267/159
f 314/268/160 315/269/160 316/270/160
f 314/271/161 316/272/161 317/273/161
f 318/274/162 319/275/162 316/276/162
f 320/274/163 318/277/163 316/276/163
f 315/269/164 320/278/164 316/279/164
f 316/272/165 319/280/165 317/273/165
f 321/281/166 314/268/166 322/282/166
f 314/268/167 321/281/167 323/283/167 315/269/167
f 324/284/168 317/273/168 325/285/168
f 317/273/169 324/284/169 322/286/169 314/271/169
f 326/287/170 318/274/170 327/288/170
f 318/274/171 326/287/171 328/289/171 319/275/171
f 329/290/172 320/274/172 330/291/172
f 320/274/173 329/290/173 327/292/173 318/277/173
f 331/291/45 320/274/45 315/269/45 323/283/45
f 332/293/39 317/294/39 319/275/39 328/289/39
f 333/295/174 334/296/174 335/297/174
f 336/298/175 337/299/175 338/300/175
f 339/301/176 340/302/176 333/295/176 335/297/176
f 339/301/176 335/297/176 341/303/176
f 334/304/177 336/298/177 338/300/177
f 334/304/177 338/300/177 335/305/177
f 342/306/178 337/299/178 343/307/178
f 337/299/178 342/306/178 344/308/178 338/300/178
f 345/309/179 346/310/179 334/296/179 333/295/179
f 345/309/179 333/295/179 347/311/179
f 348/312/180 349/313/180 337/299/180 336/298/180
f 348/312/180 336/298/180 350/314/180
f 351/315/84 347/311/84 333/295/84
f 352/316/84 351/315/84 333/295/84 340/302/84
f 353/317/39 350/314/39 336/298/39
f 346/318/39 353/317/39 336/298/39 334/304/39
f 349/313/85 354/319/85 343/307/85 337/299/85
f 355/320/47 341/321/47 335/322/47 338/300/47
f 355/320/47 338/300/47 344/308/47
