# Authored in Blender; exported by tools-export-modern.py
mtllib materials.mtl
s off
v 0.000000000 0.738234709 0.971706951
v 0.000000000 0.749845088 0.949985445
v 0.174499989 0.749845088 0.949985445
v 0.000000000 0.723111770 1.000000000
v 0.174499989 0.723111770 1.000000000
v 0.000000000 0.857339373 0.819003353
v 0.000000000 0.872964323 0.799964309
v 0.174499989 0.872964323 0.799964309
v 0.000000000 1.000000000 0.695708813
v 0.174499989 1.000000000 0.695708813
v 0.299890044 0.781886011 1.000000000
v 0.317500114 0.799234390 0.982986331
v 0.317500114 0.790140385 1.000000000
v 0.317500114 0.914966345 0.841966391
v 0.273756480 1.000000000 0.748788309
v 0.317500114 1.000000000 0.772181109
v 0.324897143 0.824697136 1.000000000
v 0.357400622 1.000000000 0.997487163
v 0.346547302 1.000000000 0.927000046
v 0.357787538 1.000000000 1.000000000
v 0.334982093 1.000000000 0.865358501
v 0.272420884 0.672840269 1.000000000
v 0.202000141 0.672840269 1.000000000
v 0.202000141 0.712803125 0.925234795
v 0.322999954 0.712803125 0.925234795
v 0.322999954 0.672840269 1.000000000
v 0.202000141 0.841462612 0.768462658
v 0.322999954 0.841462612 0.768462658
v 0.202000141 0.998234749 0.639803112
v 0.322999954 0.998234749 0.639803112
v 0.203194342 1.000000000 0.638859566
v 0.202000141 1.000000000 0.638859566
v 0.322999954 1.000000000 0.638859566
v 0.202000141 1.000000000 0.662531415
v 0.202000141 0.686754328 1.000000000
v 0.202000141 1.000000000 0.702794313
v 0.202000141 0.745556711 1.000000000
v 0.202000141 1.000000000 1.000000000
v 0.322999954 0.681834354 1.000000000
v 0.322999954 1.000000000 0.639071921
v 0.322999954 0.697931400 1.000000000
v 0.322999954 1.000000000 0.733335975
v 0.322999954 1.000000000 1.000000000
v 0.182610442 0.857271016 1.000000000
v 0.197599888 0.857271016 1.000000000
v 0.197599888 0.857271016 0.980236769
v 0.166799784 0.857271016 0.980236769
v 0.166799784 0.857271016 1.000000000
v 0.197599888 0.823929012 0.960986733
v 0.166799784 0.823929012 0.960986733
v 0.197599888 0.790587008 0.980236769
v 0.166799784 0.790587008 0.980236769
v 0.181789229 0.790587008 1.000000000
v 0.197599888 0.790587008 1.000000000
v 0.166799784 0.790587008 1.000000000
v 0.197599888 0.801997326 1.000000000
v 0.197599888 0.845860697 1.000000000
v 0.166799784 0.846453354 1.000000000
v 0.166799784 0.801404669 1.000000000
v 0.164599895 0.321200013 0.924480021
v 0.164599895 0.308000028 0.911280036
v 0.177799940 0.321200013 0.911280036
v 0.164599895 0.321200013 0.594479978
v 0.177799940 0.321200013 0.607679963
v 0.164599895 0.308000028 0.607679963
v 0.000000000 0.312055579 0.915335587
v 0.000000000 0.308000028 0.911280036
v 0.000000000 0.321200013 0.924480021
v 0.000000000 0.317144462 0.598535529
v 0.000000000 0.308000028 0.607679963
v 0.000000000 0.321200013 0.594479978
v 0.165750196 1.000000000 0.923329726
v 0.177799940 1.000000000 0.911280036
v 0.164599895 1.000000000 0.924480021
v 0.176649640 1.000000000 0.606529668
v 0.164599895 1.000000000 0.594479978
v 0.177799940 1.000000000 0.607679963
v 0.143894576 1.000000000 0.924480021
v 0.000000000 0.549662981 0.924480021
v 0.000000000 1.000000000 0.924480021
v 0.000000000 0.308000028 0.818002235
v 0.177799940 1.000000000 0.634136784
v 0.000000000 0.836337056 0.594479978
v 0.000000000 1.000000000 0.594479978
v 0.269099951 0.288200021 0.995980024
v 0.269099951 0.275000006 0.982779980
v 0.282299995 0.288200021 0.982779980
v 0.269099951 0.288200021 0.522979975
v 0.282299995 0.288200021 0.536180019
v 0.269099951 0.275000006 0.536180019
v 0.269099951 0.371800005 0.995980024
v 0.282299995 0.371800005 0.982779980
v 0.269099951 0.385000020 0.982779980
v 0.282299995 0.371800005 0.536180019
v 0.269099951 0.371800005 0.522979975
v 0.269099951 0.385000020 0.536180019
v 0.000000000 0.280246318 0.988026304
v 0.000000000 0.275000006 0.982779980
v 0.000000000 0.288200021 0.995980024
v 0.000000000 0.282953709 0.528226299
v 0.000000000 0.275000006 0.536180019
v 0.000000000 0.288200021 0.522979975
v 0.000000000 0.377046317 0.990733700
v 0.000000000 0.371800005 0.995980024
v 0.000000000 0.385000020 0.982779980
v 0.000000000 0.379753708 0.530933695
v 0.000000000 0.371800005 0.522979975
v 0.000000000 0.385000020 0.536180019
v 0.000000000 0.321426620 0.995980024
v 0.000000000 0.275000006 0.805279970
v 0.000000000 0.338573406 0.522979975
v 0.000000000 0.385000020 0.805279970
v 0.155799866 0.391600013 0.759480000
v 0.172299862 0.391600013 0.788058817
v 0.172299862 0.429000020 0.788058817
v 0.155799866 0.429000020 0.759480000
v 0.205299854 0.391600013 0.788058817
v 0.205299854 0.429000020 0.788058817
v 0.221799850 0.391600013 0.759480000
v 0.221799850 0.429000020 0.759480000
v 0.205299854 0.391600013 0.730901182
v 0.205299854 0.429000020 0.730901182
v 0.172299862 0.391600013 0.730901182
v 0.172299862 0.429000020 0.730901182
v 1.000000000 0.005714522 0.348514579
v 0.000000000 0.003943566 0.346743621
v 0.000000000 0.000000000 0.342800051
v 1.000000000 0.000000000 0.342800051
v 1.000000000 0.013200000 0.356000066
v 0.000000000 0.013200000 0.356000066
v 0.000000000 0.009256434 0.073943633
v 1.000000000 0.007485478 0.075714589
v 1.000000000 0.000000000 0.083200067
v 0.000000000 0.000000000 0.083200067
v 0.000000000 0.013200000 0.070000067
v 1.000000000 0.013200000 0.070000067
v 1.000000000 0.278514497 0.350285537
v 0.000000000 0.276743539 0.352056496
v 0.000000000 0.272799969 0.356000066
v 1.000000000 0.272799969 0.356000066
v 1.000000000 0.285999984 0.342800051
v 0.000000000 0.285999984 0.342800051
v 0.000000000 0.282056413 0.079256502
v 1.000000000 0.280285455 0.077485545
v 1.000000000 0.272799969 0.070000067
v 0.000000000 0.272799969 0.070000067
v 0.000000000 0.285999984 0.083200067
v 1.000000000 0.285999984 0.083200067
v 1.000000000 0.125585587 0.356000066
v 0.000000000 0.090756785 0.356000066
v 1.000000000 0.000000000 0.230414457
v 0.000000000 0.000000000 0.265243262
v 0.000000000 0.195243184 0.070000067
v 1.000000000 0.160414381 0.070000067
v 1.000000000 0.285999984 0.230414457
v 0.000000000 0.285999984 0.265243262
v 0.000000000 0.193982514 0.138917390
v 1.000000000 0.192627500 0.140272400
v 1.000000000 0.186999992 0.145899892
v 0.000000000 0.186999992 0.145899892
v 0.000000000 0.196899995 0.135999918
v 1.000000000 0.196899995 0.135999918
v 0.000000000 0.239082518 0.142982420
v 1.000000000 0.237727504 0.141627410
v 1.000000000 0.232099995 0.135999918
v 0.000000000 0.232099995 0.135999918
v 0.000000000 0.241999999 0.145899892
v 1.000000000 0.241999999 0.145899892
v 1.000000000 0.186999992 1.000000000
v 0.000000000 0.186999992 1.000000000
v 0.000000000 0.221726734 0.135999918
v 1.000000000 0.216908908 0.135999918
v 0.000000000 0.241999999 1.000000000
v 1.000000000 0.241999999 1.000000000
vt 0.347042870 0.093767343
vt 0.347042870 0.095052943
vt 0.358309656 0.095052943
vt 0.347042870 0.092092803
vt 0.358309656 0.092092803
vt 0.347042870 0.102805200
vt 0.347042870 0.103932038
vt 0.358309656 0.103932038
vt 0.347042870 0.021067964
vt 0.347042870 0.028586646
vt 0.358309656 0.028586646
vt 0.358309656 0.021067964
vt 0.366405610 0.092092802
vt 0.367542624 0.093099765
vt 0.367542624 0.092092801
vt 0.367542624 0.101446122
vt 0.364718266 0.028586648
vt 0.367542624 0.028586649
vt 0.367542624 0.023553882
vt 0.342092808 0.016165979
vt 0.343099773 0.016704213
vt 0.342092809 0.018211241
vt 0.342241523 0.028586650
vt 0.351446122 0.023553882
vt 0.346413347 0.028586651
vt 0.342092799 0.028586650
vt 0.350061641 0.028586649
vt 0.355576410 0.028586649
vt 0.322108263 0.090818471
vt 0.253906250 0.090818471
vt 0.253906250 0.095052943
vt 0.371093750 0.095052943
vt 0.371093750 0.090818471
vt 0.253906250 0.103932038
vt 0.371093750 0.103932038
vt 0.253906250 0.021067962
vt 0.253906250 0.029947056
vt 0.371093750 0.029947056
vt 0.371093750 0.021067962
vt 0.255062826 0.030047034
vt 0.253906250 0.030047034
vt 0.371093750 0.030047034
vt 0.359931651 0.030047033
vt 0.361272369 0.030047034
vt 0.361218929 0.029947056
vt 0.353932023 0.021067962
vt 0.340818462 0.012305758
vt 0.345052958 0.013781079
vt 0.340818477 0.011517706
vt 0.357651280 0.030047034
vt 0.340818461 0.015636145
vt 0.340818469 0.030047033
vt 0.340818481 0.012027103
vt 0.361260342 0.030047034
vt 0.340818484 0.012938790
vt 0.355921509 0.030047030
vt 0.340818470 0.030047031
vt 0.938281133 0.060937735
vt 0.938281133 0.003906250
vt 0.908203125 0.003906250
vt 0.908203125 0.121093750
vt 0.938281133 0.121093750
vt 0.996093750 0.003906250
vt 0.937500000 0.003906250
vt 0.937500000 0.121093750
vt 0.996093750 0.121093750
vt 0.878906250 0.003906250
vt 0.878906250 0.121093750
vt 0.938281133 0.064062265
vt 0.938281102 0.023958234
vt 0.878906250 0.062500000
vt 0.938281102 0.101041766
vt 0.938281162 0.102083275
vt 0.938281162 0.022916725
vt 0.365234375 0.005412944
vt 0.365234345 0.008593749
vt 0.371093750 0.007700894
vt 0.365234435 0.005915177
vt 0.367968738 0.005915179
vt 0.365234375 0.003906250
vt 0.291966795 0.006804653
vt 0.291966786 0.007781921
vt 0.291154958 0.005760871
vt 0.292169735 0.119653561
vt 0.365234345 0.116406247
vt 0.292169735 0.116406247
vt 0.292169744 0.121093745
vt 0.365234375 0.121093750
vt 0.371093750 0.116406254
vt 0.365744982 0.109378424
vt 0.371093750 0.109378418
vt 0.365234375 0.109179044
vt 0.367373855 0.109222804
vt 0.365234407 0.109222810
vt 0.367612132 0.109222804
vt 0.355915791 0.109222810
vt 0.291154958 0.040685313
vt 0.291154976 0.109222810
vt 0.291966786 0.040906131
vt 0.358080792 0.109222804
vt 0.258593708 0.005915176
vt 0.258593735 0.109222804
vt 0.292169783 0.084314691
vt 0.292169763 0.005915176
vt 0.292169777 0.109222810
vt 0.367823392 0.014453124
vt 0.367823362 0.007176599
vt 0.371093750 0.010773981
vt 0.367823422 0.017968750
vt 0.368913502 0.017968751
vt 0.367823422 0.003906250
vt 0.367823392 0.107031256
vt 0.371093750 0.107031249
vt 0.367823422 0.121093750
vt 0.368640989 0.107031256
vt 0.367823392 0.107031249
vt 0.367823392 0.119458571
vt 0.301152871 0.009575996
vt 0.301152859 0.006683960
vt 0.300660244 0.016571473
vt 0.301152859 0.119793961
vt 0.367823362 0.117823407
vt 0.301152877 0.117823407
vt 0.301152871 0.121093750
vt 0.367823392 0.121093750
vt 0.371093750 0.117823400
vt 0.300660237 0.112620354
vt 0.300660226 0.107031251
vt 0.301152901 0.121093750
vt 0.257176578 0.107031249
vt 0.257176578 0.121093750
vt 0.301152889 0.113534087
vt 0.301152871 0.107031253
vt 0.301152889 0.118473294
vt 0.300660244 0.053366414
vt 0.301152859 0.050660250
vt 0.257176608 0.017968750
vt 0.301152883 0.071633591
vt 0.301152901 0.017968750
vt 0.301152889 0.051802781
vt 0.301152889 0.007176599
vt 0.367823392 0.007176599
vt 0.966796875 0.003906250
vt 0.966796875 0.121093750
vt 0.996093750 0.062500000
vt 0.055404080 0.132962742
vt 0.039911778 0.132962744
vt 0.039911775 0.133366713
vt 0.055404077 0.133548124
vt 0.054637293 0.133729519
vt 0.038963580 0.133910930
vt 0.038999837 0.244477896
vt 0.054666614 0.243752251
vt 0.054666612 0.240685116
vt 0.038999835 0.240685122
vt 0.038999837 0.246093760
vt 0.054666614 0.246093758
vt 0.054637293 0.243026598
vt 0.038963580 0.242300954
vt 0.038963580 0.240685095
vt 0.054637293 0.240685097
vt 0.056633195 0.246093750
vt 0.041431683 0.246093750
vt 0.038999832 0.240685090
vt 0.054666608 0.240685090
vt 0.054666608 0.240685099
vt 0.038999832 0.240685101
vt 0.038611317 0.241493025
vt 0.054103621 0.241855848
vt 0.054637293 0.180364510
vt 0.038963580 0.166093525
vt 0.055404080 0.179597726
vt 0.039911778 0.165145335
vt 0.038999834 0.208906475
vt 0.054666611 0.194635490
vt 0.054666611 0.134314903
vt 0.038999834 0.134314905
vt 0.054103621 0.181535260
vt 0.038611317 0.166901455
vt 0.038999834 0.134314899
vt 0.054666611 0.134314901
vt 0.038505839 0.245968422
vt 0.054501949 0.245910214
vt 0.054501949 0.245668471
vt 0.038505839 0.245668471
vt 0.038505834 0.246093750
vt 0.054501943 0.246093750
vt 0.038505839 0.239577580
vt 0.054501949 0.236748687
vt 0.054501949 0.225000000
vt 0.038505839 0.224999998
vt 0.038486170 0.245731135
vt 0.054473145 0.245760239
vt 0.054522994 0.208945116
vt 0.038526884 0.208945116
vt 0.038505839 0.202897879
vt 0.054501949 0.192632626
vt 0.054501949 0.149999997
vt 0.038505838 0.149999995
vt 0.038486170 0.209041310
vt 0.054473145 0.209070414
vn 0.000000000 -0.881921408 -0.471396468
vn 0.000000000 -0.773010275 -0.634393502
vn 0.000000000 -0.634393318 -0.773010425
vn 0.382029082 -0.815027935 -0.435641188
vn 0.382028325 -0.815027894 -0.435641930
vn 0.382028297 -0.714377929 -0.586275152
vn 0.382029117 -0.714378130 -0.586274374
vn 0.382028636 -0.586274894 -0.714377960
vn 0.382028326 -0.586274762 -0.714378234
vn 0.971785615 -0.208015099 -0.111186500
vn 0.971785630 -0.182326828 -0.149631606
vn 0.971785615 -0.182326817 -0.149631717
vn 0.971785626 -0.149631661 -0.182326801
vn 0.971785632 -0.149631672 -0.182326762
vn 0.000000000 -0.881921157 -0.471396938
vn 0.000000000 -0.773010649 -0.634393046
vn 0.000000000 -0.634393222 -0.773010505
vn 0.000000000 -0.471396465 -0.881921410
vn -1.000000000 0.000000000 0.000000000
vn 1.000000000 0.000000000 0.000000000
vn 0.000000000 1.000000000 0.000000000
vn 0.000000000 0.500000397 -0.866025174
vn 0.000000000 -0.500000397 -0.866025174
vn 0.000000000 -1.000000000 0.000000000
vn 0.577348531 -0.577351138 0.577351138
vn 0.577348531 -0.577351138 -0.577351138
vn 0.000000000 -0.707106781 0.707106781
vn -0.000000000 -0.707106781 -0.707106781
vn 0.707105185 -0.707108378 0.000000000
vn 0.707105185 -0.000000000 0.707108378
vn 0.707105185 0.000000000 -0.707108378
vn 0.000000000 0.000000000 1.000000000
vn 0.000000000 0.000000000 -1.000000000
vn 0.577349835 -0.577351138 0.577349835
vn 0.577349835 -0.577351138 -0.577349835
vn 0.577349835 0.577351138 0.577349835
vn 0.577349835 0.577351138 -0.577349835
vn 0.000000000 -0.707107579 0.707105983
vn -0.000000000 -0.707107579 -0.707105983
vn 0.707105983 -0.707107579 0.000000000
vn -0.000000000 0.707107579 0.707105983
vn 0.707105983 0.707107579 0.000000000
vn 0.000000000 0.707107579 -0.707105983
vn 0.707106781 -0.000000000 0.707106781
vn 0.707106781 0.000000000 -0.707106781
vn -0.866025299 0.000000000 0.500000182
vn 0.866025299 0.000000000 0.500000182
vn 0.866025299 0.000000000 -0.500000182
vn -0.866025299 0.000000000 -0.500000182
vn 0.000000000 -0.707107180 0.707106382
vn -0.000000000 0.707106781 0.707106781
vn 0.000000000 0.707106382 -0.707107180
vn -0.000000000 -0.707105717 -0.707107846
vn 0.000000000 0.707105717 -0.707107846
usemtl mat_0
f 1/1/1 2/2/1 3/3/1
f 4/4/1 1/1/1 3/3/1 5/5/1
f 6/6/2 7/7/2 8/8/2
f 2/2/2 6/6/2 8/8/2 3/3/2
f 7/9/3 9/10/3 10/11/3 8/12/3
f 11/13/4 5/5/4 3/3/4 12/14/4
f 11/13/5 12/14/5 13/15/5
f 3/3/6 8/8/6 14/16/6
f 3/3/7 14/16/7 12/14/7
f 15/17/8 8/12/8 10/11/8
f 8/12/9 15/17/9 16/18/9 14/19/9
f 13/20/10 12/21/10 17/22/10
f 18/23/11 12/21/11 14/24/11 19/25/11
f 17/22/12 12/21/12 18/23/12 20/26/12
f 21/27/13 14/24/13 16/28/13
f 19/25/14 14/24/14 21/27/14
f 22/29/15 23/30/15 24/31/15 25/32/15
f 22/29/15 25/32/15 26/33/15
f 24/31/16 27/34/16 28/35/16
f 24/31/16 28/35/16 25/32/16
f 27/36/17 29/37/17 30/38/17
f 27/36/17 30/38/17 28/39/17
f 31/40/18 29/37/18 32/41/18
f 29/37/18 31/40/18 33/42/18 30/38/18
f 34/43/19 32/44/19 29/45/19 27/46/19
f 35/47/19 27/46/19 24/48/19 23/49/19
f 36/50/19 34/43/19 27/46/19
f 37/51/19 27/46/19 35/47/19
f 38/52/19 36/50/19 27/46/19 37/51/19
f 39/53/20 26/49/20 25/48/20
f 25/48/20 28/46/20 30/45/20
f 40/54/20 30/45/20 33/44/20
f 41/55/20 39/53/20 25/48/20
f 42/56/20 25/48/20 30/45/20 40/54/20
f 43/57/20 41/55/20 25/48/20 42/56/20
usemtl mat_1
f 44/58/21 45/59/21 46/60/21 47/61/21
f 44/58/21 47/61/21 48/62/21
f 46/63/22 49/64/22 50/65/22
f 46/63/22 50/65/22 47/66/22
f 49/64/23 51/67/23 52/68/23
f 49/64/23 52/68/23 50/65/23
f 53/69/24 51/60/24 54/59/24
f 51/60/24 53/69/24 55/62/24 52/61/24
f 56/70/20 54/59/20 51/60/20
f 51/60/20 49/71/20 46/61/20
f 57/72/20 46/61/20 45/62/20
f 56/70/20 51/60/20 46/61/20 57/72/20
f 58/73/19 48/62/19 47/61/19 50/71/19
f 59/74/19 50/71/19 52/60/19 55/59/19
f 58/73/19 50/71/19 59/74/19
usemtl mat_0
f 60/75/25 61/76/25 62/77/25
f 63/78/26 64/79/26 65/80/26
f 66/81/27 67/82/27 61/76/27 60/75/27
f 66/81/27 60/75/27 68/83/27
f 69/84/28 65/85/28 70/86/28
f 65/85/28 69/84/28 71/87/28 63/88/28
f 61/76/29 65/85/29 64/89/29
f 61/76/29 64/89/29 62/77/29
f 72/90/30 62/77/30 73/91/30
f 62/77/30 72/90/30 74/92/30 60/75/30
f 75/93/31 63/78/31 76/94/31
f 63/78/31 75/93/31 77/95/31 64/79/31
f 78/96/32 79/97/32 68/83/32
f 78/96/32 68/83/32 60/75/32
f 78/96/32 60/75/32 74/92/32
f 80/98/32 79/97/32 78/96/32
f 81/99/24 70/86/24 65/85/24
f 67/82/24 81/99/24 65/85/24 61/76/24
f 82/100/20 62/101/20 64/79/20 77/95/20
f 73/102/20 62/101/20 82/100/20
f 83/103/33 63/78/33 71/104/33
f 76/94/33 63/78/33 83/103/33 84/105/33
f 85/106/34 86/107/34 87/108/34
f 88/109/35 89/110/35 90/111/35
f 91/112/36 92/113/36 93/114/36
f 94/115/37 95/116/37 96/117/37
f 97/118/38 98/119/38 86/107/38 85/106/38
f 97/118/38 85/106/38 99/120/38
f 100/121/39 90/122/39 101/123/39
f 90/122/39 100/121/39 102/124/39 88/125/39
f 86/107/40 90/122/40 89/126/40
f 86/107/40 89/126/40 87/108/40
f 103/127/41 104/128/41 91/112/41 93/114/41
f 103/127/41 93/114/41 105/129/41
f 92/130/42 94/115/42 96/117/42
f 92/130/42 96/117/42 93/131/42
f 106/132/43 95/116/43 107/133/43
f 95/116/43 106/132/43 108/134/43 96/117/43
f 87/108/44 92/113/44 91/112/44
f 87/108/44 91/112/44 85/106/44
f 88/109/45 95/116/45 94/115/45
f 88/109/45 94/115/45 89/110/45
f 109/135/32 99/120/32 85/106/32 91/112/32
f 109/135/32 91/112/32 104/128/32
f 110/136/24 101/123/24 90/122/24
f 98/119/24 110/136/24 90/122/24 86/107/24
f 87/137/20 89/110/20 94/115/20
f 87/137/20 94/115/20 92/130/20
f 111/138/33 88/109/33 102/139/33
f 88/109/33 111/138/33 107/133/33 95/116/33
f 112/140/21 105/141/21 93/142/21 96/117/21
f 112/140/21 96/117/21 108/134/21
usemtl mat_1
f 113/64/46 114/63/46 115/66/46
f 113/64/46 115/66/46 116/65/46
f 114/143/32 117/60/32 118/61/32
f 114/143/32 118/61/32 115/144/32
f 117/63/47 119/64/47 120/65/47
f 117/63/47 120/65/47 118/66/47
f 119/64/48 121/67/48 122/68/48
f 119/64/48 122/68/48 120/65/48
f 121/60/33 123/143/33 124/144/33
f 121/60/33 124/144/33 122/61/33
f 123/67/49 113/64/49 116/65/49
f 123/67/49 116/65/49 124/68/49
f 113/145/24 123/143/24 121/60/24
f 121/60/24 119/71/24 117/61/24
f 117/61/24 114/144/24 113/145/24
f 121/60/24 117/61/24 113/145/24
f 124/143/21 116/145/21 115/144/21
f 115/144/21 118/61/21 120/71/21
f 120/71/21 122/60/21 124/143/21
f 115/144/21 120/71/21 124/143/21
usemtl mat_3
f 125/146/50 126/147/50 127/148/50 128/149/50
f 126/147/50 125/146/50 129/150/50 130/151/50
f 131/152/28 132/153/28 133/154/28 134/155/28
f 132/153/28 131/152/28 135/156/28 136/157/28
f 137/158/51 138/159/51 139/160/51 140/161/51
f 138/159/51 137/158/51 141/162/51 142/163/51
f 143/164/52 144/165/52 145/166/52 146/167/52
f 144/165/52 143/164/52 147/168/52 148/169/52
f 149/170/32 150/171/32 130/151/32 129/150/32
f 150/171/32 149/170/32 140/161/32 139/160/32
f 151/172/24 152/173/24 134/155/24 133/154/24
f 128/149/24 127/148/24 152/173/24 151/172/24
f 153/174/33 154/175/33 136/176/33 135/177/33
f 154/175/33 153/174/33 146/167/33 145/166/33
f 155/178/21 156/179/21 142/180/21 141/181/21
f 156/179/21 155/178/21 148/169/21 147/168/21
f 157/182/53 158/183/53 159/184/53 160/185/53
f 158/183/53 157/182/53 161/186/53 162/187/53
f 163/188/54 164/189/54 165/190/54 166/191/54
f 164/189/54 163/188/54 167/192/54 168/193/54
f 169/194/24 170/195/24 160/185/24 159/184/24
f 171/196/33 172/197/33 162/198/33 161/199/33
f 172/197/33 171/196/33 166/191/33 165/190/33
f 173/200/21 174/201/21 168/193/21 167/192/21
