# Authored in Blender; exported by tools-export-modern.py
mtllib materials.mtl
s off
v 1.000000000 0.007485478 0.350285538
v 0.000000000 0.005714522 0.348514579
v 0.000000000 0.000000000 0.342800051
v 1.000000000 0.000000000 0.342800051
v 1.000000000 0.013200000 0.356000066
v 0.000000000 0.013200000 0.356000066
v 0.000000000 0.007485478 0.075714589
v 1.000000000 0.005714522 0.077485546
v 1.000000000 0.000000000 0.083200067
v 0.000000000 0.000000000 0.083200067
v 0.000000000 0.013200000 0.070000067
v 1.000000000 0.013200000 0.070000067
v 1.000000000 0.280285455 0.348514579
v 0.000000000 0.278514497 0.350285537
v 0.000000000 0.272799969 0.356000066
v 1.000000000 0.272799969 0.356000066
v 1.000000000 0.285999984 0.342800051
v 0.000000000 0.285999984 0.342800051
v 0.000000000 0.280285455 0.077485545
v 1.000000000 0.278514497 0.075714589
v 1.000000000 0.272799969 0.070000067
v 0.000000000 0.272799969 0.070000067
v 0.000000000 0.285999984 0.083200067
v 1.000000000 0.285999984 0.083200067
v 1.000000000 0.160414390 0.356000066
v 0.000000000 0.125585587 0.356000066
v 1.000000000 0.000000000 0.195585653
v 0.000000000 0.000000000 0.230414457
v 0.000000000 0.160414381 0.070000067
v 1.000000000 0.125585579 0.070000067
v 1.000000000 0.285999984 0.195585653
v 0.000000000 0.285999984 0.230414457
v 0.607800007 0.057199992 0.235000014
v 0.620999813 0.057199992 0.248200059
v 0.607800007 0.043999992 0.248200059
v 0.379000187 0.057199992 0.248200059
v 0.392199993 0.057199992 0.235000014
v 0.392199993 0.043999992 0.248200059
v 0.620999813 0.250800014 0.248200059
v 0.607800007 0.250800014 0.235000014
v 0.607800007 0.263999999 0.248200059
v 0.379000187 0.250800014 0.248200059
v 0.392199993 0.263999999 0.248200059
v 0.392199993 0.250800014 0.235000014
v 0.388236256 0.047963788 1.000000000
v 0.379000187 0.057199992 1.000000000
v 0.392199993 0.043999992 1.000000000
v 0.617036075 0.053236196 1.000000000
v 0.607800007 0.043999992 1.000000000
v 0.620999813 0.057199992 1.000000000
v 0.382963925 0.254763805 1.000000000
v 0.392199993 0.263999999 1.000000000
v 0.379000187 0.250800014 1.000000000
v 0.611763744 0.260036207 1.000000000
v 0.620999813 0.250800014 1.000000000
v 0.607800007 0.263999999 1.000000000
v 0.543058004 0.043999992 1.000000000
v 0.379000187 0.115335671 1.000000000
v 0.620999813 0.192664335 1.000000000
v 0.543058004 0.263999999 1.000000000
v 0.000000000 0.192627500 0.140272400
v 1.000000000 0.191272486 0.141627410
v 1.000000000 0.186999992 0.145899892
v 0.000000000 0.186999992 0.145899892
v 0.000000000 0.196899995 0.135999918
v 1.000000000 0.196899995 0.135999918
v 0.000000000 0.237727504 0.141627410
v 1.000000000 0.236372490 0.140272400
v 1.000000000 0.232099995 0.135999918
v 0.000000000 0.232099995 0.135999918
v 0.000000000 0.241999999 0.145899892
v 1.000000000 0.241999999 0.145899892
v 1.000000000 0.186999992 1.000000000
v 0.000000000 0.186999992 1.000000000
v 0.000000000 0.216908908 0.135999918
v 1.000000000 0.212091082 0.135999918
v 0.000000000 0.241999999 1.000000000
v 1.000000000 0.241999999 1.000000000
vt 0.070896383 0.132962740
vt 0.055404080 0.132962742
vt 0.055404077 0.133548124
vt 0.070896379 0.133729534
vt 0.070311006 0.133548109
vt 0.054637293 0.133729519
vt 0.054666614 0.243752251
vt 0.070333390 0.243026605
vt 0.070333389 0.240685110
vt 0.054666612 0.240685116
vt 0.054666614 0.246093758
vt 0.070333390 0.246093756
vt 0.070311006 0.243752242
vt 0.054637293 0.243026598
vt 0.054637293 0.240685097
vt 0.070311006 0.240685099
vt 0.071834707 0.246093750
vt 0.056633195 0.246093750
vt 0.054666608 0.240685090
vt 0.070333384 0.240685090
vt 0.070333384 0.240685097
vt 0.054666608 0.240685099
vt 0.054103621 0.241855848
vt 0.069595925 0.242218671
vt 0.070311006 0.194635494
vt 0.054637293 0.180364510
vt 0.070896383 0.194050117
vt 0.055404080 0.179597726
vt 0.054666611 0.194635490
vt 0.070333389 0.180364506
vt 0.070333389 0.134314901
vt 0.054666611 0.134314903
vt 0.069595925 0.196169066
vt 0.054103621 0.181535260
vt 0.054666611 0.134314901
vt 0.070333389 0.134314903
vt 0.114701718 0.135937512
vt 0.120686159 0.135937497
vt 0.114701711 0.128906250
vt 0.120482340 0.135937497
vt 0.121093750 0.135937497
vt 0.120482326 0.128906250
vt 0.120635182 0.239062488
vt 0.114701696 0.239062488
vt 0.116146863 0.245788053
vt 0.120482326 0.239062488
vt 0.120482326 0.246093750
vt 0.121093750 0.239062503
vt 0.008516544 0.212105448
vt 0.004043950 0.212105437
vt 0.003906250 0.245482340
vt 0.010298296 0.245482355
vt 0.009864333 0.210613703
vt 0.114701711 0.245482355
vt 0.010298295 0.246093750
vt 0.114701711 0.246093750
vt 0.119174293 0.210659594
vt 0.114701708 0.210659604
vt 0.121093743 0.245482340
vt 0.121093745 0.211302187
vt 0.086238198 0.241173889
vt 0.086238198 0.246093750
vt 0.085659580 0.239062488
vt 0.082626003 0.243768449
vt 0.085766536 0.239062488
vt 0.082626004 0.245879850
vt 0.010298295 0.239062488
vt 0.010298296 0.245482340
vt 0.082916701 0.210613703
vt 0.085659591 0.166904649
vt 0.085613691 0.135455548
vt 0.085766536 0.208095336
vt 0.085802205 0.135937497
vt 0.010298297 0.135937512
vt 0.084361854 0.210873504
vt 0.115712901 0.210873504
vt 0.010298296 0.210659594
vt 0.054501949 0.245910214
vt 0.070498059 0.245852006
vt 0.070498059 0.245668471
vt 0.054501949 0.245668471
vt 0.054501943 0.246093750
vt 0.070498051 0.246093750
vt 0.054501949 0.236748687
vt 0.070498059 0.233919793
vt 0.070498059 0.225000003
vt 0.054501949 0.225000000
vt 0.054473145 0.245760239
vt 0.070460121 0.245789343
vt 0.070519104 0.208945116
vt 0.054522994 0.208945116
vt 0.054501949 0.192632626
vt 0.070498059 0.182367374
vt 0.070498059 0.150000000
vt 0.054501949 0.149999997
vt 0.054473145 0.209070414
vt 0.070460121 0.209099518
vn 0.000000000 -0.707107180 0.707106382
vn -0.000000000 -0.707106781 -0.707106781
vn -0.000000000 0.707106781 0.707106781
vn 0.000000000 0.707106382 -0.707107180
vn 0.000000000 0.000000000 1.000000000
vn 0.000000000 -1.000000000 0.000000000
vn 0.000000000 0.000000000 -1.000000000
vn -0.000000000 1.000000000 0.000000000
vn 0.577356570 -0.577348097 -0.577346141
vn -0.577356570 -0.577348097 -0.577346141
vn 0.577356352 0.577348531 -0.577345924
vn -0.577356352 0.577348531 -0.577345924
vn -0.707111970 -0.707101593 -0.000000000
vn -0.000000000 -0.707107979 -0.707105584
vn 0.707111970 -0.707101593 0.000000000
vn -0.707111571 0.707101992 0.000000000
vn 0.707111571 0.707101992 0.000000000
vn 0.000000000 0.707108378 -0.707105185
vn 0.707113167 0.000000000 -0.707100395
vn -0.707113167 0.000000000 -0.707100395
vn -1.000000000 0.000000000 0.000000000
vn 1.000000000 0.000000000 0.000000000
vn -0.000000000 -0.707105717 -0.707107846
vn 0.000000000 0.707105717 -0.707107846
usemtl mat_3
f 1/1/1 2/2/1 3/3/1 4/4/1
f 2/2/1 1/1/1 5/5/1 6/6/1
f 7/7/2 8/8/2 9/9/2 10/10/2
f 8/8/2 7/7/2 11/11/2 12/12/2
f 13/13/3 14/14/3 15/15/3 16/16/3
f 14/14/3 13/13/3 17/17/3 18/18/3
f 19/19/4 20/20/4 21/21/4 22/22/4
f 20/20/4 19/19/4 23/23/4 24/24/4
f 25/25/5 26/26/5 6/6/5 5/5/5
f 26/26/5 25/25/5 16/16/5 15/15/5
f 27/27/6 28/28/6 10/10/6 9/9/6
f 4/4/6 3/3/6 28/28/6 27/27/6
f 29/29/7 30/30/7 12/31/7 11/32/7
f 30/30/7 29/29/7 22/22/7 21/21/7
f 31/33/8 32/34/8 18/35/8 17/36/8
f 32/34/8 31/33/8 24/24/8 23/23/8
f 33/37/9 34/38/9 35/39/9
f 36/40/10 37/41/10 38/42/10
f 39/43/11 40/44/11 41/45/11
f 42/46/12 43/47/12 44/48/12
f 45/49/13 46/50/13 36/51/13 38/52/13
f 45/49/13 38/52/13 47/53/13
f 35/54/14 38/52/14 37/55/14
f 35/54/14 37/55/14 33/56/14
f 48/57/15 49/58/15 35/54/15 34/59/15
f 48/57/15 34/59/15 50/60/15
f 51/61/16 52/62/16 43/47/16 42/46/16
f 51/61/16 42/46/16 53/63/16
f 54/64/17 55/65/17 39/43/17 41/45/17
f 54/64/17 41/45/17 56/66/17
f 40/44/18 44/67/18 43/68/18
f 40/44/18 43/68/18 41/45/18
f 33/37/19 40/44/19 39/43/19
f 33/37/19 39/43/19 34/38/19
f 36/40/20 42/46/20 44/48/20
f 36/40/20 44/48/20 37/41/20
f 57/69/6 47/53/6 38/52/6 35/54/6
f 57/69/6 35/54/6 49/58/6
f 58/70/21 36/40/21 46/71/21
f 36/40/21 58/70/21 53/63/21 42/46/21
f 59/72/22 50/73/22 34/38/22 39/43/22
f 59/72/22 39/43/22 55/65/22
f 33/37/7 37/74/7 44/67/7
f 33/37/7 44/67/7 40/44/7
f 60/75/8 56/76/8 41/45/8
f 52/77/8 60/75/8 41/45/8 43/68/8
f 61/78/23 62/79/23 63/80/23 64/81/23
f 62/79/23 61/78/23 65/82/23 66/83/23
f 67/84/24 68/85/24 69/86/24 70/87/24
f 68/85/24 67/84/24 71/88/24 72/89/24
f 73/90/6 74/91/6 64/81/6 63/80/6
f 75/92/7 76/93/7 66/94/7 65/95/7
f 76/93/7 75/92/7 70/87/7 69/86/7
f 77/96/8 78/97/8 72/89/8 71/88/8
