# Authored in Blender; exported by tools-export-modern.py
mtllib materials.mtl
s off
v 0.773199797 0.013200000 0.356000066
v 0.759999752 0.013200000 0.342800051
v 0.773199797 0.000000000 0.342800051
v 0.759999752 0.013200000 0.083200067
v 0.773199797 0.013200000 0.070000067
v 0.773199797 0.000000000 0.083200067
v 0.759999752 0.272799969 0.342800051
v 0.773199797 0.272799969 0.356000066
v 0.773199797 0.285999984 0.342800051
v 0.759999752 0.272799969 0.083200067
v 0.773199797 0.285999984 0.083200067
v 0.773199797 0.272799969 0.070000067
v 1.000000000 0.000401653 0.343201705
v 1.000000000 0.000000000 0.342800051
v 1.000000000 0.013200000 0.356000066
v 1.000000000 0.012798347 0.070401721
v 1.000000000 0.000000000 0.083200067
v 1.000000000 0.013200000 0.070000067
v 1.000000000 0.273201622 0.355598412
v 1.000000000 0.272799969 0.356000066
v 1.000000000 0.285999984 0.342800051
v 1.000000000 0.285598330 0.082798414
v 1.000000000 0.272799969 0.070000067
v 1.000000000 0.285999984 0.083200067
v 1.000000000 0.021099179 0.356000066
v 1.000000000 0.000000000 0.334900871
v 1.000000000 0.264900789 0.070000067
v 1.000000000 0.285999984 0.334900871
v 0.836999893 0.196899995 0.145899892
v 0.846899986 0.196899995 0.135999918
v 0.846899986 0.186999992 0.145899892
v 0.836999893 0.232099995 0.145899892
v 0.846899986 0.241999999 0.145899892
v 0.846899986 0.232099995 0.135999918
v 0.843777739 0.190122210 1.000000000
v 0.836999893 0.196899995 1.000000000
v 0.846899986 0.186999992 1.000000000
v 1.000000000 0.196692543 0.136207370
v 1.000000000 0.186999992 0.145899892
v 1.000000000 0.196899995 0.135999918
v 0.840122140 0.235222214 1.000000000
v 0.846899986 0.241999999 1.000000000
v 0.836999893 0.232099995 1.000000000
v 1.000000000 0.241792546 0.145692440
v 1.000000000 0.232099995 0.135999918
v 1.000000000 0.241999999 0.145899892
v 1.000000000 0.186999992 1.000000000
v 0.836999893 0.208001214 1.000000000
v 1.000000000 0.231362386 0.135999918
v 1.000000000 0.241999999 1.000000000
v 0.962399781 0.299200028 0.202000037
v 0.987699807 0.299200028 0.245820910
v 0.987699807 0.348700047 0.245820910
v 0.962399781 0.348700047 0.202000037
v 1.000000000 0.311232832 0.245820906
v 1.000000000 0.299200028 0.245820906
v 1.000000000 0.348700047 0.245820906
v 1.000000000 0.336667198 0.158179145
v 1.000000000 0.299200028 0.158179145
v 0.987699747 0.299200028 0.158179149
v 0.987699747 0.348700047 0.158179149
v 1.000000000 0.348700047 0.158179145
v 1.000000000 0.299200028 0.180291537
v 1.000000000 0.299200028 0.223708515
v 1.000000000 0.348700047 0.238719389
v 1.000000000 0.348700047 0.165280692
vt 0.004061352 0.134314895
vt 0.007962740 0.134314895
vt 0.005413515 0.132962748
vt 0.115685090 0.134314895
vt 0.121093750 0.134314910
vt 0.115685105 0.128906250
vt 0.009314904 0.240685076
vt 0.004061352 0.240685090
vt 0.007580954 0.246093750
vt 0.115685090 0.240685090
vt 0.115685105 0.246093750
vt 0.121093750 0.240685105
vt 0.008927172 0.132962748
vt 0.008927172 0.133003892
vt 0.007616153 0.134273751
vt 0.003906250 0.240685105
vt 0.004113053 0.240685135
vt 0.007666284 0.245929188
vt 0.007666281 0.240685134
vt 0.004113056 0.246093765
vt 0.007666284 0.246093764
vt 0.007616153 0.240849667
vt 0.007616153 0.240685091
vt 0.011028660 0.246093750
vt 0.007666280 0.240685090
vt 0.007666280 0.240685105
vt 0.004113052 0.240685105
vt 0.004113052 0.240685090
vt 0.007626710 0.240767379
vt 0.007616153 0.137551557
vt 0.008927172 0.136240554
vt 0.007666280 0.237448443
vt 0.007666280 0.134314909
vt 0.004113052 0.134314910
vt 0.007626710 0.137633845
vt 0.004113052 0.134314895
vt 0.007666280 0.134314895
vt 0.120668463 0.150000006
vt 0.121093750 0.150000006
vt 0.120668471 0.128906250
vt 0.120668471 0.225000009
vt 0.120668471 0.246093750
vt 0.121093757 0.225000009
vt 0.004115261 0.213867388
vt 0.004006841 0.213867378
vt 0.003906250 0.245668456
vt 0.004064613 0.245668471
vt 0.004085658 0.208945116
vt 0.006513618 0.246084838
vt 0.006513618 0.245668471
vt 0.004064613 0.246093750
vt 0.006513617 0.246093750
vt 0.083950586 0.231652459
vt 0.083950586 0.246093750
vt 0.083978646 0.225000014
vt 0.006513618 0.245235367
vt 0.006513618 0.224999994
vt 0.004064613 0.224999994
vt 0.006512219 0.245672927
vt 0.006534663 0.208945116
vt 0.083978641 0.173653176
vt 0.083945110 0.148370416
vt 0.006513618 0.223428384
vt 0.006513617 0.149999991
vt 0.004064613 0.149999991
vt 0.004064613 0.208978647
vt 0.006512219 0.208983102
vt 0.937500000 0.003906250
vt 0.996093750 0.003906250
vt 0.996093750 0.121093750
vt 0.937500000 0.121093750
vt 0.952553504 0.032392992
vt 0.966796875 0.003906250
vt 0.952553504 0.003906250
vt 0.952553504 0.121093750
vt 0.966796875 0.121093750
vt 0.952553452 0.092606904
vt 0.952553452 0.003906250
vt 0.952553452 0.121093750
vt 0.878906250 0.003906250
vt 0.878906250 0.121093750
vt 0.952553487 0.033473158
vt 0.996093750 0.062500000
vt 0.952553487 0.091526842
vt 0.952553510 0.111598173
vt 0.952553452 0.013401865
vn -0.577349183 -0.577351138 0.577350486
vn -0.577348966 -0.577350921 -0.577350921
vn -0.577349400 0.577350704 0.577350704
vn -0.577349183 0.577350486 -0.577351138
vn 0.000000000 -0.707107180 0.707106382
vn -0.707105584 -0.707107979 -0.000000000
vn -0.000000000 -0.707106781 -0.707106781
vn -0.707105983 0.707107579 0.000000000
vn -0.000000000 0.707106781 0.707106781
vn 0.000000000 0.707106382 -0.707107180
vn -0.707105983 0.000000000 0.707107579
vn -0.707105584 0.000000000 -0.707107979
vn 0.000000000 0.000000000 1.000000000
vn 0.000000000 -1.000000000 0.000000000
vn -1.000000000 0.000000000 0.000000000
vn 0.000000000 0.000000000 -1.000000000
vn -0.000000000 1.000000000 0.000000000
vn -0.577346214 -0.577351428 -0.577353166
vn -0.577346214 0.577351428 -0.577353166
vn -0.707103588 -0.707109974 -0.000000000
vn -0.000000000 -0.707105717 -0.707107846
vn -0.707103588 0.707109974 0.000000000
vn 0.000000000 0.707105717 -0.707107846
vn -0.707102524 0.000000000 -0.707111038
vn -0.866025120 0.000000000 0.500000492
vn 0.000000294 0.000000000 1.000000000
vn -0.000000294 0.000000000 -1.000000000
vn -0.866025704 0.000000000 -0.499999481
usemtl mat_3
f 1/1/1 2/2/1 3/3/1
f 4/4/2 5/5/2 6/6/2
f 7/7/3 8/8/3 9/9/3
f 10/10/4 11/11/4 12/12/4
f 13/13/5 3/3/5 14/14/5
f 3/3/5 13/13/5 15/15/5 1/1/5
f 2/2/6 4/16/6 6/17/6
f 2/2/6 6/17/6 3/3/6
f 16/18/7 17/19/7 6/17/7 5/20/7
f 16/18/7 5/20/7 18/21/7
f 9/9/8 11/11/8 10/10/8
f 9/9/8 10/10/8 7/7/8
f 19/22/9 8/8/9 20/23/9
f 8/8/9 19/22/9 21/24/9 9/9/9
f 22/25/10 23/26/10 12/27/10 11/28/10
f 22/25/10 11/28/10 24/29/10
f 1/1/11 8/8/11 7/7/11
f 1/1/11 7/7/11 2/2/11
f 4/4/12 10/10/12 12/12/12
f 4/4/12 12/12/12 5/5/12
f 25/30/13 1/1/13 15/15/13
f 1/1/13 25/30/13 20/23/13 8/8/13
f 26/31/14 3/3/14 6/17/14 17/19/14
f 14/14/14 3/3/14 26/31/14
f 4/4/15 2/2/15 7/7/15
f 4/4/15 7/7/15 10/10/15
f 27/32/16 18/33/16 5/34/16 12/27/16
f 27/32/16 12/27/16 23/26/16
f 28/35/17 9/36/17 21/37/17
f 9/36/17 28/35/17 24/29/17 11/28/17
f 29/38/18 30/39/18 31/40/18
f 32/41/19 33/42/19 34/43/19
f 35/44/20 36/45/20 29/46/20 31/47/20
f 35/44/20 31/47/20 37/48/20
f 38/49/21 39/50/21 31/47/21 30/51/21
f 38/49/21 30/51/21 40/52/21
f 41/53/22 42/54/22 33/42/22 32/41/22
f 41/53/22 32/41/22 43/55/22
f 44/56/23 45/57/23 34/58/23 33/47/23
f 44/56/23 33/47/23 46/59/23
f 29/38/24 32/41/24 34/43/24
f 29/38/24 34/43/24 30/39/24
f 47/60/14 37/48/14 31/47/14 39/50/14
f 48/61/15 29/38/15 36/62/15
f 29/38/15 48/61/15 43/55/15 32/41/15
f 49/63/16 40/64/16 30/65/16 34/58/16
f 49/63/16 34/58/16 45/57/16
f 42/66/17 50/67/17 46/59/17 33/47/17
usemtl mat_1
f 51/68/25 52/69/25 53/70/25
f 51/68/25 53/70/25 54/71/25
f 55/72/26 52/73/26 56/74/26
f 52/73/26 55/72/26 57/75/26 53/76/26
f 58/77/27 59/78/27 60/73/27 61/76/27
f 58/77/27 61/76/27 62/79/27
f 60/80/28 51/68/28 54/71/28
f 60/80/28 54/71/28 61/81/28
f 63/82/14 51/83/14 60/73/14 59/78/14
f 64/84/14 56/75/14 52/76/14 51/83/14
f 63/82/14 64/84/14 51/83/14
f 61/73/17 54/83/17 53/76/17
f 65/85/17 53/76/17 57/75/17
f 66/86/17 62/78/17 61/73/17
f 53/76/17 65/85/17 66/86/17 61/73/17
