# Authored in Blender; exported by tools-export-modern.py
mtllib materials.mtl
s off
v 1.000000000 0.741628344 0.526608488
v 0.000000000 0.601163214 0.512773838
v 0.000000000 0.766139507 0.529022634
v 1.000000000 0.766139507 0.529022634
v 1.000000000 0.572999954 0.509999990
v 0.000000000 0.572999954 0.509999990
v 1.000000000 0.928287426 0.578209644
v 0.000000000 0.793220440 0.537237541
v 0.000000000 0.951856613 0.585359275
v 1.000000000 0.951856613 0.585359275
v 0.186260876 1.000000000 0.611092477
v 0.000000000 0.976814539 0.598699578
v 0.000000000 1.000000000 0.611092477
v 1.000000000 1.000000000 0.611092477
v 1.000000000 0.003946414 0.692470075
v 0.963829638 0.000000000 0.695708813
v 0.000000000 0.000000000 0.695708813
v 0.000000000 0.022985458 0.676845133
v 1.000000000 0.022985458 0.676845133
v 1.000000000 0.000000000 0.695708813
v 1.000000000 0.172421915 0.596969662
v 0.000000000 0.047943402 0.663504831
v 0.000000000 0.194143414 0.585359275
v 1.000000000 0.194143414 0.585359275
v 1.000000000 0.356291333 0.536172265
v 0.000000000 0.221224347 0.577144368
v 0.000000000 0.379860520 0.529022634
v 1.000000000 0.379860520 0.529022634
v 1.000000000 0.548488806 0.512414137
v 0.000000000 0.408023763 0.526248787
v 0.002999783 0.064800024 0.924480021
v 0.016199827 0.064800024 0.911280036
v 0.002999783 0.078000069 0.911280036
v 0.016199827 0.064800024 0.607679963
v 0.002999783 0.064800024 0.594479978
v 0.002999783 0.078000069 0.607679963
v 0.000000000 0.077833413 0.911446690
v 0.000000000 0.064800024 0.924480021
v 0.000000000 0.078000069 0.911280036
v 0.000000000 0.064966679 0.594646633
v 0.000000000 0.064800024 0.594479978
v 0.000000000 0.078000069 0.607679963
v 0.004150083 0.000000000 0.923329726
v 0.016199827 0.000000000 0.911280036
v 0.002999783 0.000000000 0.924480021
v 0.015049527 0.000000000 0.606529668
v 0.002999783 0.000000000 0.594479978
v 0.016199827 0.000000000 0.607679963
v 0.000000000 0.055411814 0.924480021
v 0.000000000 0.000000000 0.924480021
v 0.016199827 0.000000000 0.634136784
v 0.000000000 0.000000000 0.594479978
v 0.000000000 0.078000069 0.611513020
v 0.913800001 0.064800024 0.911280036
v 0.927000046 0.064800024 0.924480021
v 0.927000046 0.078000069 0.911280036
v 0.913800001 0.064800024 0.607679963
v 0.927000046 0.078000069 0.607679963
v 0.927000046 0.064800024 0.594479978
v 1.000000000 0.068855593 0.920424470
v 1.000000000 0.064800024 0.924480021
v 1.000000000 0.078000069 0.911280036
v 1.000000000 0.073944499 0.603624412
v 1.000000000 0.064800024 0.594479978
v 1.000000000 0.078000069 0.607679963
v 0.914950301 0.000000000 0.912430331
v 0.927000046 0.000000000 0.924480021
v 0.913800001 0.000000000 0.911280036
v 0.925849746 0.000000000 0.595630273
v 0.913800001 0.000000000 0.607679963
v 0.927000046 0.000000000 0.594479978
v 1.000000000 0.000000000 0.924480021
v 0.913800001 0.000000000 0.884823215
v 0.947705365 0.000000000 0.594479978
v 1.000000000 0.000000000 0.594479978
v 1.000000000 0.078000069 0.818002235
v 0.194399834 0.428900003 0.489099950
v 0.189999819 0.428900003 0.484699965
v 0.194399834 0.424499989 0.484699965
v 0.735599995 0.428900003 0.489099950
v 0.735599995 0.424499989 0.484699965
v 0.740000010 0.428900003 0.484699965
v 0.735599995 0.428900003 0.475899965
v 0.740000010 0.428900003 0.480299950
v 0.735599995 0.424499989 0.480299950
v 0.189999819 0.428900003 0.480299950
v 0.194399834 0.428900003 0.475899965
v 0.194399834 0.424499989 0.480299950
v 0.189999819 0.717099905 0.484699965
v 0.194399834 0.717099905 0.489099950
v 0.194399834 0.721499920 0.484699965
v 0.735599995 0.717099905 0.489099950
v 0.740000010 0.717099905 0.484699965
v 0.735599995 0.721499920 0.484699965
v 0.740000010 0.717099905 0.480299950
v 0.735599995 0.717099905 0.475899965
v 0.735599995 0.721499920 0.480299950
v 0.189999819 0.717099905 0.480299950
v 0.194399834 0.721499920 0.480299950
v 0.194399834 0.717099905 0.475899965
vt 0.347042870 0.072480368
vt 0.282476757 0.064166859
vt 0.282476757 0.073931076
vt 0.347042870 0.073931076
vt 0.347042870 0.062500000
vt 0.282476757 0.062500000
vt 0.347042870 0.083527901
vt 0.282476757 0.075533877
vt 0.282476757 0.084922858
vt 0.347042870 0.084922858
vt 0.294502897 0.087772254
vt 0.282476757 0.086400008
vt 0.282476757 0.087772254
vt 0.347042870 0.087772254
vt 0.347042870 0.028820217
vt 0.344707491 0.028586646
vt 0.282476757 0.028586646
vt 0.282476757 0.029947054
vt 0.347042870 0.029947054
vt 0.347042870 0.028586646
vt 0.347042870 0.038791542
vt 0.282476757 0.031424205
vt 0.282476757 0.040077142
vt 0.347042870 0.040077142
vt 0.347042870 0.049673967
vt 0.282476757 0.041679944
vt 0.282476757 0.051068924
vt 0.347042870 0.051068924
vt 0.347042870 0.061049293
vt 0.282476757 0.052735783
vt 0.365234375 0.119084828
vt 0.371093750 0.119084820
vt 0.365234375 0.121093743
vt 0.367578119 0.119084820
vt 0.365234405 0.119084828
vt 0.365527332 0.118750006
vt 0.363884301 0.121068379
vt 0.363884301 0.119084828
vt 0.363892932 0.121093743
vt 0.258593738 0.119084820
vt 0.258593738 0.121093750
vt 0.363902825 0.119051010
vt 0.363902825 0.119084828
vt 0.364192053 0.118720415
vt 0.365744982 0.109378424
vt 0.371093750 0.109378418
vt 0.365234375 0.109179044
vt 0.367373882 0.109222804
vt 0.365234407 0.109222810
vt 0.367612159 0.109222804
vt 0.363884301 0.117656021
vt 0.363884301 0.109185385
vt 0.358080819 0.109222804
vt 0.258593735 0.109222804
vt 0.363902828 0.109222810
vt 0.364192053 0.117359245
vt 0.363902766 0.008593749
vt 0.365234345 0.008593749
vt 0.258300811 0.119084828
vt 0.258984387 0.121093750
vt 0.366406232 0.119084820
vt 0.366406232 0.121093750
vt 0.291154979 0.119702045
vt 0.291154979 0.119084828
vt 0.291628533 0.121093748
vt 0.292169754 0.117229212
vt 0.292169774 0.119084828
vt 0.259765655 0.119084828
vt 0.259765625 0.116406247
vt 0.292259752 0.117126341
vt 0.258568209 0.109222804
vt 0.258300808 0.109222810
vt 0.258491616 0.109281159
vt 0.370685265 0.109222804
vt 0.366406235 0.109222804
vt 0.371093750 0.109222804
vt 0.291154976 0.109222810
vt 0.267988916 0.109222804
vt 0.268956590 0.109222810
vt 0.259765652 0.109222810
vt 0.292169777 0.109222810
vt 0.292259752 0.042438054
vt 0.259765625 0.008593749
vt 0.292169735 0.008593749
vt 0.254609406 0.380642414
vt 0.283203125 0.389973938
vt 0.264375031 0.408203095
vt 0.370156258 0.380208373
vt 0.370156229 0.417968720
vt 0.371093750 0.405526638
vt 0.254843771 0.380642414
vt 0.253906250 0.380642354
vt 0.254843742 0.378906280
vt 0.332031310 0.380642414
vt 0.370468795 0.380642384
vt 0.332031250 0.378906250
vt 0.292968750 0.494357646
vt 0.254609406 0.494357705
vt 0.280260414 0.496093750
vt 0.370156288 0.494357646
vt 0.371093750 0.494357646
vt 0.370156288 0.496093780
vt 0.253906250 0.494357675
vt 0.254843771 0.494357705
vt 0.254843742 0.496093750
vt 0.332031250 0.494357646
vt 0.344739616 0.496093750
vt 0.370390654 0.494357675
vt 0.253906250 0.457031250
vt 0.254843771 0.457031250
vt 0.370156258 0.457031250
vt 0.254843742 0.496093780
vt 0.370156258 0.496093750
vt 0.371093750 0.457031250
vt 0.371093750 0.417968750
vt 0.351562500 0.475694448
vt 0.370156258 0.457031280
vt 0.292968780 0.380642414
vt 0.332031250 0.380642354
vt 0.254843742 0.417968720
vt 0.254843742 0.457031250
vn 0.000000000 0.098017436 -0.995184698
vn 0.000000000 0.290284551 -0.956940374
vn 0.000000000 0.471397090 -0.881921076
vn 0.000000000 -0.634393318 -0.773010425
vn 0.000000000 -0.471396835 -0.881921212
vn 0.000000000 -0.290284551 -0.956940374
vn 0.000000000 -0.098017496 -0.995184692
vn 0.577349400 0.577349400 0.577352007
vn 0.577349400 0.577349400 -0.577352007
vn -0.000000000 0.707105185 0.707108378
vn 0.707106781 0.707106781 0.000000000
vn 0.000000000 0.707105185 -0.707108378
vn 0.707105185 -0.000000000 0.707108378
vn 0.707105185 0.000000000 -0.707108378
vn 0.000000000 0.000000000 1.000000000
vn 1.000000000 0.000000000 0.000000000
vn 0.000000000 0.000000000 -1.000000000
vn -0.000000000 1.000000000 0.000000000
vn -0.577349400 0.577349400 0.577352007
vn -0.577349400 0.577349400 -0.577352007
vn -0.707106781 0.707106781 0.000000000
vn -0.707105185 0.000000000 0.707108378
vn -0.707105185 0.000000000 -0.707108378
vn -1.000000000 0.000000000 0.000000000
vn -0.577348966 -0.577348966 0.577352876
vn 0.577348966 -0.577348966 0.577352876
vn 0.577348966 -0.577348966 -0.577352876
vn -0.577348966 -0.577348966 -0.577352876
vn -0.577348966 0.577348966 0.577352876
vn 0.577348966 0.577348966 0.577352876
vn 0.577348966 0.577348966 -0.577352876
vn -0.577348966 0.577348966 -0.577352876
vn 0.000000000 -0.707104386 0.707109176
vn -0.707106781 -0.707106781 -0.000000000
vn -0.000000000 -0.707104386 -0.707109176
vn 0.707106781 -0.707106781 0.000000000
vn -0.000000000 0.707104386 0.707109176
vn 0.000000000 0.707104386 -0.707109176
vn -0.707104386 0.000000000 0.707109176
vn 0.707104386 -0.000000000 0.707109176
vn 0.707104386 0.000000000 -0.707109176
vn -0.707104386 0.000000000 -0.707109176
vn 0.000000000 -1.000000000 0.000000000
usemtl mat_0
f 1/1/1 2/2/1 3/3/1 4/4/1
f 5/5/1 6/6/1 2/2/1 1/1/1
f 7/7/2 8/8/2 9/9/2 10/10/2
f 4/4/2 3/3/2 8/8/2 7/7/2
f 11/11/3 12/12/3 13/13/3
f 14/14/3 10/10/3 9/9/3
f 14/14/3 9/9/3 12/12/3
f 14/14/3 12/12/3 11/11/3
f 15/15/4 16/16/4 17/17/4
f 15/15/4 17/17/4 18/18/4
f 15/15/4 18/18/4 19/19/4
f 20/20/4 16/16/4 15/15/4
f 21/21/5 22/22/5 23/23/5 24/24/5
f 19/19/5 18/18/5 22/22/5 21/21/5
f 25/25/6 26/26/6 27/27/6 28/28/6
f 24/24/6 23/23/6 26/26/6 25/25/6
f 29/29/7 30/30/7 6/6/7 5/5/7
f 28/28/7 27/27/7 30/30/7 29/29/7
f 31/31/8 32/32/8 33/33/8
f 34/34/9 35/35/9 36/36/9
f 37/37/10 38/38/10 31/31/10 33/33/10
f 37/37/10 33/33/10 39/39/10
f 32/40/11 34/34/11 36/36/11
f 32/40/11 36/36/11 33/41/11
f 40/42/12 35/35/12 41/43/12
f 35/35/12 40/42/12 42/44/12 36/36/12
f 43/45/13 44/46/13 32/32/13 31/31/13
f 43/45/13 31/31/13 45/47/13
f 46/48/14 47/49/14 35/35/14 34/34/14
f 46/48/14 34/34/14 48/50/14
f 49/51/15 50/52/15 45/47/15 31/31/15
f 49/51/15 31/31/15 38/38/15
f 51/53/16 48/50/16 34/34/16
f 44/54/16 51/53/16 34/34/16 32/40/16
f 47/49/17 52/55/17 41/43/17 35/35/17
f 53/56/18 39/57/18 33/58/18 36/36/18
f 53/56/18 36/36/18 42/44/18
f 54/40/19 55/59/19 56/60/19
f 57/61/20 58/62/20 59/32/20
f 56/60/21 58/62/21 57/61/21
f 56/60/21 57/61/21 54/40/21
f 60/63/10 55/59/10 61/64/10
f 55/59/10 60/63/10 62/65/10 56/60/10
f 63/66/12 64/67/12 59/68/12 58/69/12
f 63/66/12 58/69/12 65/70/12
f 66/71/22 67/72/22 55/59/22 54/40/22
f 66/71/22 54/40/22 68/73/22
f 69/74/23 70/75/23 57/61/23 59/32/23
f 69/74/23 59/32/23 71/76/23
f 67/72/15 72/77/15 61/64/15 55/59/15
f 73/78/24 68/73/24 54/40/24
f 70/75/24 73/78/24 54/40/24 57/61/24
f 74/79/17 71/80/17 59/68/17
f 75/81/17 74/79/17 59/68/17 64/67/17
f 76/82/18 56/83/18 62/84/18
f 56/83/18 76/82/18 65/70/18 58/69/18
usemtl mat_10
f 77/85/25 78/86/25 79/87/25
f 80/88/26 81/89/26 82/90/26
f 83/91/27 84/92/27 85/93/27
f 86/94/28 87/95/28 88/96/28
f 89/97/29 90/98/29 91/99/29
f 92/100/30 93/101/30 94/102/30
f 95/103/31 96/104/31 97/105/31
f 98/106/32 99/107/32 100/108/32
f 79/87/33 81/89/33 80/88/33
f 79/87/33 80/88/33 77/85/33
f 78/86/34 86/109/34 88/110/34
f 78/86/34 88/110/34 79/87/34
f 85/111/35 88/110/35 87/112/35
f 85/111/35 87/112/35 83/113/35
f 81/89/36 85/111/36 84/114/36
f 81/89/36 84/114/36 82/90/36
f 91/99/21 99/107/21 98/106/21
f 91/99/21 98/106/21 89/97/21
f 90/98/37 92/100/37 94/102/37
f 90/98/37 94/102/37 91/99/37
f 93/115/11 95/116/11 97/117/11
f 93/115/11 97/117/11 94/89/11
f 96/104/38 100/108/38 99/107/38
f 96/104/38 99/107/38 97/105/38
f 77/85/39 90/98/39 89/97/39
f 77/85/39 89/97/39 78/86/39
f 82/90/40 93/101/40 92/100/40
f 82/90/40 92/100/40 80/88/40
f 83/91/41 96/104/41 95/103/41
f 83/91/41 95/103/41 84/92/41
f 86/94/42 98/106/42 100/108/42
f 86/94/42 100/108/42 87/95/42
f 77/85/15 80/88/15 92/100/15
f 77/85/15 92/100/15 90/98/15
f 79/87/43 88/110/43 85/111/43
f 79/87/43 85/111/43 81/89/43
f 86/94/24 78/86/24 89/97/24
f 86/94/24 89/97/24 98/106/24
f 82/118/16 84/119/16 95/116/16
f 82/118/16 95/116/16 93/97/16
f 83/91/17 87/95/17 100/108/17
f 83/91/17 100/108/17 96/104/17
f 91/120/18 94/89/18 97/117/18
f 91/120/18 97/117/18 99/121/18
