# Authored in Blender; exported by tools-export-modern.py
mtllib materials.mtl
s off
v 0.000000000 0.407765282 0.028292997
v 0.000000000 0.396154881 0.050014496
v 0.174499989 0.396154881 0.050014496
v 0.000000000 0.422888227 0.000000000
v 0.174499989 0.422888227 0.000000000
v 0.000000000 0.288660699 0.180996535
v 0.000000000 0.273035765 0.200035572
v 0.174499989 0.273035765 0.200035572
v 0.000000000 0.142053517 0.307529962
v 0.000000000 0.123014450 0.323154926
v 0.174499989 0.123014450 0.323154926
v 0.000000000 0.000000000 0.388907497
v 0.174499989 0.000000000 0.388907497
v 0.299890152 0.364114030 0.000000000
v 0.317500114 0.346765757 0.017013550
v 0.317500114 0.355859667 0.000000000
v 0.317500114 0.231033564 0.158033609
v 0.317500114 0.090013742 0.273765564
v 0.265227458 0.000000000 0.346380672
v 0.317500114 0.000000000 0.321878858
v 0.324897098 0.321303133 0.000000000
v 0.364314900 0.111209779 0.000000000
v 0.371483820 0.073000071 0.000000000
v 0.364998080 0.000000000 0.094478010
v 0.356635366 0.000000000 0.139050527
v 0.372499943 0.000000000 0.054493754
v 0.372499943 0.066400847 0.000000000
v 0.337460722 0.000000000 0.228628837
v 0.372499943 0.000000000 0.047950365
v 0.372499943 0.047950335 0.000000000
v 0.372499943 0.000000000 0.000000000
v 0.272420884 0.473159640 0.000000000
v 0.202000141 0.473159640 0.000000000
v 0.202000141 0.433196783 0.074765205
v 0.322999954 0.433196783 0.074765205
v 0.322999954 0.473159640 0.000000000
v 0.202000141 0.304537296 0.231537342
v 0.322999954 0.304537296 0.231537342
v 0.202000141 0.147765160 0.360196829
v 0.322999954 0.147765160 0.360196829
v 0.301964079 0.000000000 0.439178996
v 0.202000141 0.000000000 0.439178996
v 0.322999954 0.000000000 0.439178996
v 0.202000141 0.000000000 0.435022629
v 0.202000141 0.459245580 0.000000000
v 0.202000141 0.000000000 0.357680887
v 0.202000141 0.400443254 0.000000000
v 0.202000141 0.107550144 0.000000000
v 0.202000141 0.000000000 0.107550144
v 0.202000141 0.000000000 0.000000000
v 0.322999954 0.464165542 0.000000000
v 0.322999954 0.000000000 0.421403137
v 0.322999954 0.448068503 0.000000000
v 0.322999954 0.000000000 0.364217968
v 0.322999954 0.000000000 0.177681475
v 0.322999954 0.118722967 0.000000000
v 0.322999954 0.000000000 0.000000000
v 0.197599888 0.073513031 0.287570953
v 0.197599888 0.106854916 0.268320799
v 0.166799784 0.106854916 0.268320799
v 0.166799784 0.073513031 0.287570953
v 0.197599888 0.106854916 0.229820967
v 0.166799784 0.106854916 0.229820967
v 0.197599888 0.073513031 0.210570812
v 0.166799784 0.073513031 0.210570812
v 0.197599888 0.040171146 0.229820967
v 0.166799784 0.040171146 0.229820967
v 0.197599888 0.040171146 0.268320799
v 0.166799784 0.040171146 0.268320799
v 0.197599888 0.322071075 0.039013386
v 0.197599888 0.355412960 0.019763231
v 0.166799784 0.355412960 0.019763231
v 0.166799784 0.322071075 0.039013386
v 0.181789229 0.355412960 0.000000000
v 0.197599888 0.355412960 0.000000000
v 0.166799784 0.355412960 0.000000000
v 0.182610442 0.288729191 0.000000000
v 0.197599888 0.288729191 0.000000000
v 0.197599888 0.288729191 0.019763231
v 0.166799784 0.288729191 0.019763231
v 0.166799784 0.288729191 0.000000000
v 0.197599888 0.299546791 0.000000000
v 0.197599888 0.344595360 0.000000000
v 0.166799784 0.344002659 0.000000000
v 0.166799784 0.300139492 0.000000000
vt 0.347042870 0.031232654
vt 0.347042870 0.029947054
vt 0.358309656 0.029947054
vt 0.347042870 0.032907192
vt 0.358309656 0.032907192
vt 0.347042870 0.022194801
vt 0.347042870 0.021067964
vt 0.358309656 0.021067964
vt 0.347042870 0.096179780
vt 0.347042870 0.095052943
vt 0.358309656 0.095052943
vt 0.347042870 0.103932038
vt 0.358309656 0.103932038
vt 0.347042870 0.087772254
vt 0.358309656 0.087772254
vt 0.366405617 0.032907189
vt 0.367542624 0.031900231
vt 0.367542624 0.032907189
vt 0.367542624 0.023553882
vt 0.367542624 0.093099765
vt 0.367542624 0.101446122
vt 0.364167580 0.087772254
vt 0.367542624 0.087772250
vt 0.282907186 0.108834021
vt 0.281900227 0.108295791
vt 0.282907185 0.106788770
vt 0.282907202 0.094354267
vt 0.273553878 0.101446122
vt 0.282907205 0.092092803
vt 0.277315469 0.087772255
vt 0.266704202 0.093099765
vt 0.274677412 0.087772253
vt 0.279681962 0.087772253
vt 0.282907205 0.091702224
vt 0.269375652 0.087772250
vt 0.263856589 0.087772250
vt 0.280069234 0.087772254
vt 0.282907202 0.090610223
vt 0.282907192 0.087772253
vt 0.322108263 0.034181529
vt 0.253906250 0.034181529
vt 0.253906250 0.029947057
vt 0.371093750 0.029947057
vt 0.371093750 0.034181529
vt 0.253906250 0.021067962
vt 0.371093750 0.021067962
vt 0.253906250 0.103932030
vt 0.253906250 0.095052935
vt 0.371093750 0.095052935
vt 0.371093750 0.103932030
vt 0.350720647 0.086683970
vt 0.253906250 0.086683970
vt 0.371093750 0.086683970
vt 0.259543180 0.086683971
vt 0.259307773 0.086683970
vt 0.263781071 0.095052935
vt 0.271067977 0.103932030
vt 0.284181538 0.112694239
vt 0.279947042 0.111218907
vt 0.284181523 0.113482285
vt 0.263923590 0.086683971
vt 0.284181539 0.109363850
vt 0.284181533 0.092775282
vt 0.278090223 0.086683971
vt 0.284181534 0.086683971
vt 0.284181519 0.112972884
vt 0.260314538 0.086683971
vt 0.284181516 0.112061196
vt 0.263553334 0.086683972
vt 0.274118194 0.086683975
vt 0.284181527 0.093408081
vt 0.284181528 0.086683975
vt 0.937500000 0.003906250
vt 0.996093750 0.003906250
vt 0.996093750 0.121093750
vt 0.937500000 0.121093750
vt 0.966796875 0.003906250
vt 0.908203125 0.003906250
vt 0.908203125 0.121093750
vt 0.966796875 0.121093750
vt 0.878906250 0.003906250
vt 0.878906250 0.121093750
vt 0.996093750 0.062500000
vt 0.878906250 0.062500000
vt 0.936718867 0.064062265
vt 0.936718867 0.003906250
vt 0.936718867 0.121093750
vt 0.936718867 0.060937735
vt 0.936718779 0.022916686
vt 0.936718779 0.102083314
vt 0.936718836 0.101041724
vt 0.936718836 0.023958276
vn 0.000000000 0.881920957 0.471397312
vn 0.000000000 0.773010452 0.634393285
vn 0.000000000 0.634393417 0.773010344
vn -0.000000000 0.471396612 0.881921331
vn 0.382028397 0.815027768 0.435642102
vn 0.382030111 0.815027862 0.435640424
vn 0.382028634 0.714377986 0.586274864
vn 0.382028543 0.714377964 0.586274950
vn 0.382028723 0.586274962 0.714377858
vn 0.382028449 0.586274845 0.714378100
vn 0.382029234 0.435641292 0.815027809
vn 0.382028902 0.435641096 0.815028069
vn 0.971785644 0.208015151 0.111186148
vn 0.971785611 0.182326799 0.149631764
vn 0.971785644 0.182326823 0.149631518
vn 0.971785615 0.149631721 0.182326814
vn 0.971785614 0.149631720 0.182326820
vn 0.971785588 0.111186368 0.208015295
vn 0.971785613 0.111186459 0.208015127
vn 1.000000000 0.000000000 0.000000000
vn 0.000000000 0.881921157 0.471396938
vn 0.000000000 0.773010649 0.634393046
vn 0.000000000 0.634393046 0.773010649
vn 0.000000000 0.471396938 0.881921157
vn -1.000000000 0.000000000 0.000000000
vn 0.000000000 0.500004060 0.866023059
vn 0.000000000 1.000000000 0.000000000
vn 0.000000000 0.500004060 -0.866023059
vn 0.000000000 -0.500004060 -0.866023059
vn 0.000000000 -1.000000000 0.000000000
vn 0.000000000 -0.500004060 0.866023059
usemtl mat_0
f 1/1/1 2/2/1 3/3/1
f 4/4/1 1/1/1 3/3/1 5/5/1
f 6/6/2 7/7/2 8/8/2
f 2/2/2 6/6/2 8/8/2 3/3/2
f 9/9/3 10/10/3 11/11/3
f 7/12/3 9/9/3 11/11/3 8/13/3
f 10/10/4 12/14/4 13/15/4 11/11/4
f 14/16/5 5/5/5 3/3/5 15/17/5
f 14/16/6 15/17/6 16/18/6
f 3/3/7 8/8/7 17/19/7
f 3/3/8 17/19/8 15/17/8
f 8/13/9 11/11/9 18/20/9
f 8/13/10 18/20/10 17/21/10
f 19/22/11 11/11/11 13/15/11
f 11/11/12 19/22/12 20/23/12 18/20/12
f 16/24/13 15/25/13 21/26/13
f 22/27/14 15/25/14 17/28/14 23/29/14
f 21/26/15 15/25/15 22/27/15
f 24/30/16 17/28/16 18/31/16 25/32/16
f 23/29/17 17/28/17 24/30/17
f 23/29/17 24/30/17 26/33/17
f 23/29/17 26/33/17 27/34/17
f 28/35/18 18/31/18 20/36/18
f 25/32/19 18/31/19 28/35/19
f 29/37/20 30/38/20 27/34/20 26/33/20
f 31/39/20 30/38/20 29/37/20
f 32/40/21 33/41/21 34/42/21 35/43/21
f 32/40/21 35/43/21 36/44/21
f 34/42/22 37/45/22 38/46/22
f 34/42/22 38/46/22 35/43/22
f 37/47/23 39/48/23 40/49/23
f 37/47/23 40/49/23 38/50/23
f 41/51/24 39/48/24 42/52/24
f 39/48/24 41/51/24 43/53/24 40/49/24
f 44/54/25 42/55/25 39/56/25 37/57/25
f 45/58/25 37/57/25 34/59/25 33/60/25
f 46/61/25 44/54/25 37/57/25
f 47/62/25 37/57/25 45/58/25
f 48/63/25 49/64/25 46/61/25
f 48/63/25 46/61/25 37/57/25
f 48/63/25 37/57/25 47/62/25
f 50/65/25 49/64/25 48/63/25
f 51/66/20 36/60/20 35/59/20
f 35/59/20 38/57/20 40/56/20
f 52/67/20 40/56/20 43/55/20
f 53/68/20 51/66/20 35/59/20
f 54/69/20 35/59/20 40/56/20 52/67/20
f 55/70/20 56/71/20 53/68/20
f 55/70/20 53/68/20 35/59/20
f 55/70/20 35/59/20 54/69/20
f 57/72/20 56/71/20 55/70/20
usemtl mat_1
f 58/73/26 59/74/26 60/75/26
f 58/73/26 60/75/26 61/76/26
f 59/77/27 62/78/27 63/79/27
f 59/77/27 63/79/27 60/80/27
f 62/74/28 64/73/28 65/76/28
f 62/74/28 65/76/28 63/75/28
f 64/73/29 66/81/29 67/82/29
f 64/73/29 67/82/29 65/76/29
f 66/78/30 68/77/30 69/80/30
f 66/78/30 69/80/30 67/79/30
f 68/81/31 58/73/31 61/76/31
f 68/81/31 61/76/31 69/82/31
f 58/83/20 68/77/20 66/78/20
f 66/78/20 64/84/20 62/79/20
f 62/79/20 59/80/20 58/83/20
f 66/78/20 62/79/20 58/83/20
f 69/77/25 61/83/25 60/80/25
f 60/80/25 63/79/25 65/84/25
f 65/84/25 67/78/25 69/77/25
f 60/80/25 65/84/25 69/77/25
f 70/73/26 71/74/26 72/75/26
f 70/73/26 72/75/26 73/76/26
f 74/85/27 71/77/27 75/86/27
f 71/77/27 74/85/27 76/87/27 72/80/27
f 77/88/30 78/86/30 79/77/30 80/80/30
f 77/88/30 80/80/30 81/87/30
f 79/81/31 70/73/31 73/76/31
f 79/81/31 73/76/31 80/82/31
f 82/89/20 70/83/20 79/77/20 78/86/20
f 83/90/20 75/87/20 71/80/20 70/83/20
f 82/89/20 83/90/20 70/83/20
f 80/77/25 73/83/25 72/80/25
f 84/91/25 72/80/25 76/87/25
f 85/92/25 81/86/25 80/77/25
f 72/80/25 84/91/25 85/92/25 80/77/25
