# Generated by tools-import-turbines.py; estimated STEP scale.
mtllib materials.mtl
s off
v 0.162500000 0.087500000 0.150000000
v 0.162500000 0.087500000 0.100000000
v 0.162500000 0.037500000 0.100000000
v 0.162500000 0.037500000 0.150000000
v 0.212500000 0.037500000 0.150000000
v 0.212500000 0.037500000 0.100000000
v 0.212500000 0.087500000 0.100000000
v 0.212500000 0.087500000 0.150000000
v 0.062500000 0.312500000 1.000000000
v 0.062500000 0.312500000 0.125000000
v 0.062500000 0.062500000 0.125000000
v 0.062500000 0.062500000 1.000000000
v 0.187500000 0.062500000 1.000000000
v 0.187500000 0.062500000 0.125000000
v 0.187500000 0.312500000 0.125000000
v 0.187500000 0.312500000 1.000000000
v 0.937500000 0.312500000 1.000000000
v 0.937500000 0.312500000 0.125000000
v 0.937500000 0.062500000 0.125000000
v 0.937500000 0.062500000 1.000000000
v 1.000000000 0.062500000 1.000000000
v 1.000000000 0.062500000 0.125000000
v 1.000000000 0.312500000 1.000000000
v 1.000000000 0.312500000 0.125000000
v 0.456250000 1.000000000 1.000000000
v 0.456250000 1.000000000 0.906250000
v 0.456250000 0.375000000 0.906250000
v 0.456250000 0.375000000 1.000000000
v 0.543750000 1.000000000 1.000000000
v 0.543750000 0.375000000 1.000000000
v 0.543750000 0.375000000 0.906250000
v 0.543750000 1.000000000 0.906250000
v 0.831250000 1.000000000 1.000000000
v 0.831250000 1.000000000 0.906250000
v 0.831250000 0.375000000 0.906250000
v 0.831250000 0.375000000 1.000000000
v 0.918750000 1.000000000 1.000000000
v 0.918750000 0.375000000 1.000000000
v 0.918750000 0.375000000 0.906250000
v 0.918750000 1.000000000 0.906250000
v 0.000000000 0.082812500 0.237500000
v 0.000000000 0.082812500 0.012500000
v 0.000000000 0.042187500 0.012500000
v 0.000000000 0.042187500 0.237500000
v 1.000000000 0.042187500 0.237500000
v 1.000000000 0.042187500 0.012500000
v 1.000000000 0.082812500 0.012500000
v 1.000000000 0.082812500 0.237500000
v 0.000000000 0.332812500 0.237500000
v 0.000000000 0.332812500 0.012500000
v 0.000000000 0.292187500 0.012500000
v 0.000000000 0.292187500 0.237500000
v 1.000000000 0.292187500 0.237500000
v 1.000000000 0.292187500 0.012500000
v 1.000000000 0.332812500 0.012500000
v 1.000000000 0.332812500 0.237500000
v 0.000000000 0.312500000 0.156250000
v 0.000000000 0.312500000 0.093750000
v 0.000000000 0.062500000 0.093750000
v 0.000000000 0.062500000 0.156250000
v 1.000000000 0.062500000 0.156250000
v 1.000000000 0.062500000 0.093750000
v 1.000000000 0.312500000 0.093750000
v 1.000000000 0.312500000 0.156250000
v 0.031250000 0.368750000 1.000000000
v 0.031250000 0.368750000 0.125000000
v 0.031250000 0.318750000 0.125000000
v 0.031250000 0.318750000 1.000000000
v 1.000000000 0.318750000 1.000000000
v 1.000000000 0.318750000 0.125000000
v 1.000000000 0.368750000 1.000000000
v 1.000000000 0.368750000 0.125000000
v 0.031250000 0.050000000 0.250000000
v 0.031250000 0.050000000 0.000000000
v 0.031250000 0.006250000 0.000000000
v 0.031250000 0.006250000 0.250000000
v 0.343750000 0.006250000 0.250000000
v 0.343750000 0.006250000 0.000000000
v 0.343750000 0.050000000 0.000000000
v 0.343750000 0.050000000 0.250000000
vt 0 0
vt 1 0
vt 1 1
vt 0 1
vn -1.000000000 -0.000000000 0.000000000
vn 0.000000000 -1.000000000 -0.000000000
vn -0.000000000 -0.000000000 -1.000000000
vn 0.000000000 0.000000000 1.000000000
vn -0.000000000 1.000000000 0.000000000
vn 1.000000000 0.000000000 -0.000000000
usemtl step_color_001
f 1/1/1 2/2/1 3/3/1 4/4/1
f 5/1/6 6/2/6 7/3/6 8/4/6
f 5/1/2 4/2/2 3/3/2 6/4/2
f 7/1/5 2/2/5 1/3/5 8/4/5
f 7/1/3 6/2/3 3/3/3 2/4/3
f 1/1/4 4/2/4 5/3/4 8/4/4
usemtl step_color_002
f 9/1/1 10/2/1 11/3/1 12/4/1
f 13/1/6 14/2/6 15/3/6 16/4/6
f 13/1/2 12/2/2 11/3/2 14/4/2
f 16/1/5 15/2/5 10/3/5 9/4/5
f 15/1/3 14/2/3 11/3/3 10/4/3
f 17/1/1 18/2/1 19/3/1 20/4/1
f 21/1/2 20/2/2 19/3/2 22/4/2
f 23/1/5 24/2/5 18/3/5 17/4/5
f 24/1/3 22/2/3 19/3/3 18/4/3
f 25/1/1 26/2/1 27/3/1 28/4/1
f 29/1/6 30/2/6 31/3/6 32/4/6
f 30/1/2 28/2/2 27/3/2 31/4/2
f 32/1/3 31/2/3 27/3/3 26/4/3
f 33/1/1 34/2/1 35/3/1 36/4/1
f 37/1/6 38/2/6 39/3/6 40/4/6
f 38/1/2 36/2/2 35/3/2 39/4/2
f 40/1/3 39/2/3 35/3/3 34/4/3
f 41/1/1 42/2/1 43/3/1 44/4/1
f 45/1/2 44/2/2 43/3/2 46/4/2
f 47/1/5 42/2/5 41/3/5 48/4/5
f 47/1/3 46/2/3 43/3/3 42/4/3
f 48/1/4 41/2/4 44/3/4 45/4/4
f 49/1/1 50/2/1 51/3/1 52/4/1
f 53/1/2 52/2/2 51/3/2 54/4/2
f 55/1/5 50/2/5 49/3/5 56/4/5
f 55/1/3 54/2/3 51/3/3 50/4/3
f 56/1/4 49/2/4 52/3/4 53/4/4
f 57/1/1 58/2/1 59/3/1 60/4/1
f 61/1/2 60/2/2 59/3/2 62/4/2
f 63/1/5 58/2/5 57/3/5 64/4/5
f 63/1/3 62/2/3 59/3/3 58/4/3
f 64/1/4 57/2/4 60/3/4 61/4/4
usemtl step_color_003
f 65/1/1 66/2/1 67/3/1 68/4/1
f 69/1/2 68/2/2 67/3/2 70/4/2
f 71/1/5 72/2/5 66/3/5 65/4/5
f 72/1/3 70/2/3 67/3/3 66/4/3
usemtl step_color_004
f 73/1/1 74/2/1 75/3/1 76/4/1
f 77/1/6 78/2/6 79/3/6 80/4/6
f 77/1/2 76/2/2 75/3/2 78/4/2
f 79/1/5 74/2/5 73/3/5 80/4/5
f 79/1/3 78/2/3 75/3/3 74/4/3
f 73/1/4 76/2/4 77/3/4 80/4/4
