# Generated by tools-import-turbines.py; estimated STEP scale.
mtllib materials.mtl
s off
v 0.168965727 0.917551684 0.849375000
v 0.168965727 0.917551684 0.844375000
v 0.215568812 0.850995581 0.844375000
v 0.215568812 0.850995581 0.849375000
v 0.224784273 0.857448316 0.849375000
v 0.224784273 0.857448316 0.844375000
v 0.178181188 0.924004419 0.844375000
v 0.178181188 0.924004419 0.849375000
v 0.132500000 0.880000000 0.849375000
v 0.132500000 0.880000000 0.844375000
v 0.132500000 0.870000000 0.844375000
v 0.132500000 0.870000000 0.849375000
v 0.142500000 0.870000000 0.849375000
v 0.142500000 0.870000000 0.844375000
v 0.142500000 0.880000000 0.844375000
v 0.142500000 0.880000000 0.849375000
v 0.232500000 0.880000000 0.849375000
v 0.232500000 0.880000000 0.844375000
v 0.232500000 0.870000000 0.844375000
v 0.232500000 0.870000000 0.849375000
v 0.242500000 0.870000000 0.849375000
v 0.242500000 0.870000000 0.844375000
v 0.242500000 0.880000000 0.844375000
v 0.242500000 0.880000000 0.849375000
v 0.182500000 0.930000000 0.849375000
v 0.182500000 0.930000000 0.844375000
v 0.182500000 0.920000000 0.844375000
v 0.182500000 0.920000000 0.849375000
v 0.192500000 0.920000000 0.849375000
v 0.192500000 0.920000000 0.844375000
v 0.192500000 0.930000000 0.844375000
v 0.192500000 0.930000000 0.849375000
v 0.787500000 0.087500000 0.900000000
v 0.787500000 0.087500000 0.850000000
v 0.787500000 0.037500000 0.850000000
v 0.787500000 0.037500000 0.900000000
v 0.837500000 0.037500000 0.900000000
v 0.837500000 0.037500000 0.850000000
v 0.837500000 0.087500000 0.850000000
v 0.837500000 0.087500000 0.900000000
v 0.351562500 0.973437500 0.017187500
v 0.351562500 0.973437500 0.000000000
v 0.351562500 0.939062500 0.000000000
v 0.351562500 0.939062500 0.017187500
v 0.385937500 0.939062500 0.017187500
v 0.385937500 0.939062500 0.000000000
v 0.385937500 0.973437500 0.000000000
v 0.385937500 0.973437500 0.017187500
v 0.145139245 0.809375000 0.837500000
v 0.145139245 0.809375000 0.787500000
v 0.145139245 0.787500000 0.787500000
v 0.145139245 0.787500000 0.837500000
v 0.229860755 0.787500000 0.837500000
v 0.229860755 0.787500000 0.787500000
v 0.229860755 0.809375000 0.787500000
v 0.229860755 0.809375000 0.837500000
v 0.119195334 0.831250000 0.837500000
v 0.119195334 0.831250000 0.787500000
v 0.119195334 0.809375000 0.787500000
v 0.119195334 0.809375000 0.837500000
v 0.255804666 0.809375000 0.837500000
v 0.255804666 0.809375000 0.787500000
v 0.255804666 0.831250000 0.787500000
v 0.255804666 0.831250000 0.837500000
v 0.106385329 0.853125000 0.837500000
v 0.106385329 0.853125000 0.787500000
v 0.106385329 0.831250000 0.787500000
v 0.106385329 0.831250000 0.837500000
v 0.268614671 0.831250000 0.837500000
v 0.268614671 0.831250000 0.787500000
v 0.268614671 0.853125000 0.787500000
v 0.268614671 0.853125000 0.837500000
v 0.100686285 0.875000000 0.837500000
v 0.100686285 0.875000000 0.787500000
v 0.100686285 0.853125000 0.787500000
v 0.100686285 0.853125000 0.837500000
v 0.274313715 0.853125000 0.837500000
v 0.274313715 0.853125000 0.787500000
v 0.274313715 0.875000000 0.787500000
v 0.274313715 0.875000000 0.837500000
v 0.100686285 0.896875000 0.837500000
v 0.100686285 0.896875000 0.787500000
v 0.274313715 0.896875000 0.787500000
v 0.274313715 0.896875000 0.837500000
v 0.106385329 0.918750000 0.837500000
v 0.106385329 0.918750000 0.787500000
v 0.106385329 0.896875000 0.787500000
v 0.106385329 0.896875000 0.837500000
v 0.268614671 0.896875000 0.837500000
v 0.268614671 0.896875000 0.787500000
v 0.268614671 0.918750000 0.787500000
v 0.268614671 0.918750000 0.837500000
v 0.119195334 0.940625000 0.837500000
v 0.119195334 0.940625000 0.787500000
v 0.119195334 0.918750000 0.787500000
v 0.119195334 0.918750000 0.837500000
v 0.255804666 0.918750000 0.837500000
v 0.255804666 0.918750000 0.787500000
v 0.255804666 0.940625000 0.787500000
v 0.255804666 0.940625000 0.837500000
v 0.145139245 0.962500000 0.837500000
v 0.145139245 0.962500000 0.787500000
v 0.145139245 0.940625000 0.787500000
v 0.145139245 0.940625000 0.837500000
v 0.229860755 0.940625000 0.837500000
v 0.229860755 0.940625000 0.787500000
v 0.229860755 0.962500000 0.787500000
v 0.229860755 0.962500000 0.837500000
v 0.062500000 0.062500000 0.875000000
v 0.062500000 0.062500000 0.000000000
v 0.062500000 0.312500000 0.000000000
v 0.062500000 0.312500000 0.875000000
v 0.000000000 0.062500000 0.875000000
v 0.000000000 0.062500000 0.000000000
v 0.000000000 0.312500000 0.000000000
v 0.000000000 0.312500000 0.875000000
v 0.812500000 0.312500000 0.875000000
v 0.812500000 0.312500000 0.000000000
v 0.812500000 0.062500000 0.000000000
v 0.812500000 0.062500000 0.875000000
v 0.937500000 0.062500000 0.875000000
v 0.937500000 0.062500000 0.000000000
v 0.937500000 0.312500000 0.000000000
v 0.937500000 0.312500000 0.875000000
v 0.531250000 1.000000000 0.775000000
v 0.531250000 0.406250000 0.775000000
v 0.531250000 0.406250000 0.725000000
v 0.531250000 1.000000000 0.725000000
v 0.000000000 0.406250000 0.775000000
v 0.000000000 0.406250000 0.725000000
v 0.000000000 1.000000000 0.725000000
v 0.000000000 1.000000000 0.775000000
v 1.000000000 0.042187500 0.987500000
v 1.000000000 0.042187500 0.762500000
v 1.000000000 0.082812500 0.762500000
v 1.000000000 0.082812500 0.987500000
v 0.000000000 0.042187500 0.987500000
v 0.000000000 0.042187500 0.762500000
v 0.000000000 0.082812500 0.762500000
v 0.000000000 0.082812500 0.987500000
v 1.000000000 0.292187500 0.987500000
v 1.000000000 0.292187500 0.762500000
v 1.000000000 0.332812500 0.762500000
v 1.000000000 0.332812500 0.987500000
v 0.000000000 0.292187500 0.987500000
v 0.000000000 0.292187500 0.762500000
v 0.000000000 0.332812500 0.762500000
v 0.000000000 0.332812500 0.987500000
v 1.000000000 0.062500000 0.906250000
v 1.000000000 0.062500000 0.843750000
v 1.000000000 0.312500000 0.843750000
v 1.000000000 0.312500000 0.906250000
v 0.000000000 0.062500000 0.906250000
v 0.000000000 0.062500000 0.843750000
v 0.000000000 0.312500000 0.843750000
v 0.000000000 0.312500000 0.906250000
v 0.109375000 0.343750000 0.406250000
v 0.109375000 0.343750000 0.218750000
v 0.109375000 0.906250000 0.218750000
v 0.109375000 0.906250000 0.406250000
v 0.000000000 0.343750000 0.406250000
v 0.000000000 0.343750000 0.218750000
v 0.000000000 0.906250000 0.218750000
v 0.000000000 0.906250000 0.406250000
v 0.968750000 0.318750000 0.875000000
v 0.968750000 0.318750000 0.000000000
v 0.968750000 0.368750000 0.000000000
v 0.968750000 0.368750000 0.875000000
v 0.000000000 0.318750000 0.875000000
v 0.000000000 0.318750000 0.000000000
v 0.000000000 0.368750000 0.000000000
v 0.000000000 0.368750000 0.875000000
v 0.250000000 1.000000000 0.125000000
v 0.250000000 0.878921629 0.125000000
v 0.250000000 0.878921629 0.000000000
v 0.250000000 1.000000000 0.000000000
v 0.000000000 0.878921629 0.125000000
v 0.000000000 0.878921629 0.000000000
v 0.000000000 1.000000000 0.000000000
v 0.000000000 1.000000000 0.125000000
v 0.250000000 1.000000000 0.250000000
v 0.250000000 0.911487595 0.250000000
v 0.250000000 0.911487595 0.125000000
v 0.000000000 0.911487595 0.250000000
v 0.000000000 0.911487595 0.125000000
v 0.000000000 1.000000000 0.250000000
v 0.250000000 1.000000000 0.375000000
v 0.250000000 0.984687625 0.375000000
v 0.250000000 0.984687625 0.250000000
v 0.000000000 0.984687625 0.375000000
v 0.000000000 0.984687625 0.250000000
v 0.000000000 1.000000000 0.375000000
v 0.656250000 0.050000000 1.000000000
v 0.656250000 0.050000000 0.750000000
v 0.656250000 0.006250000 0.750000000
v 0.656250000 0.006250000 1.000000000
v 0.968750000 0.006250000 1.000000000
v 0.968750000 0.006250000 0.750000000
v 0.968750000 0.050000000 0.750000000
v 0.968750000 0.050000000 1.000000000
v 0.293750000 1.000000000 0.243750000
v 0.293750000 1.000000000 0.175000000
v 0.293750000 0.977976862 0.175000000
v 0.293750000 0.977976862 0.243750000
v 0.356250000 1.000000000 0.243750000
v 0.356250000 0.977976862 0.243750000
v 0.356250000 0.977976862 0.175000000
v 0.356250000 1.000000000 0.175000000
v 0.293750000 0.990625000 0.034375000
v 0.293750000 0.990625000 0.000000000
v 0.293750000 0.921875000 0.000000000
v 0.293750000 0.921875000 0.034375000
v 0.356250000 0.921875000 0.034375000
v 0.356250000 0.921875000 0.000000000
v 0.356250000 0.990625000 0.000000000
v 0.356250000 0.990625000 0.034375000
v 0.007812500 1.000000000 0.801562500
v 0.007812500 0.500000000 0.801562500
v 0.007812500 0.500000000 0.785937500
v 0.007812500 1.000000000 0.785937500
v 0.000000000 0.500000000 0.801562500
v 0.000000000 0.500000000 0.785937500
v 0.000000000 1.000000000 0.785937500
v 0.000000000 1.000000000 0.801562500
v 0.367187500 1.000000000 0.801562500
v 0.367187500 1.000000000 0.785937500
v 0.367187500 0.500000000 0.785937500
v 0.367187500 0.500000000 0.801562500
v 0.382812500 1.000000000 0.801562500
v 0.382812500 0.500000000 0.801562500
v 0.382812500 0.500000000 0.785937500
v 0.382812500 1.000000000 0.785937500
v 0.179687500 0.781250000 0.801562500
v 0.179687500 0.781250000 0.785937500
v 0.179687500 0.500000000 0.785937500
v 0.179687500 0.500000000 0.801562500
v 0.195312500 0.500000000 0.801562500
v 0.195312500 0.500000000 0.785937500
v 0.195312500 0.781250000 0.785937500
v 0.195312500 0.781250000 0.801562500
v 0.250000000 0.507812500 0.801562500
v 0.250000000 0.507812500 0.785937500
v 0.250000000 0.492187500 0.785937500
v 0.250000000 0.492187500 0.801562500
v 0.375000000 0.492187500 0.801562500
v 0.375000000 0.492187500 0.785937500
v 0.375000000 0.507812500 0.785937500
v 0.375000000 0.507812500 0.801562500
v 0.062500000 0.507812500 0.801562500
v 0.062500000 0.507812500 0.785937500
v 0.062500000 0.492187500 0.785937500
v 0.062500000 0.492187500 0.801562500
v 0.187500000 0.492187500 0.801562500
v 0.187500000 0.492187500 0.785937500
v 0.187500000 0.507812500 0.785937500
v 0.187500000 0.507812500 0.801562500
v 0.242187500 0.507812500 0.793750000
v 0.242187500 0.507812500 0.437500000
v 0.242187500 0.492187500 0.437500000
v 0.242187500 0.492187500 0.793750000
v 0.257812500 0.492187500 0.793750000
v 0.257812500 0.492187500 0.437500000
v 0.257812500 0.507812500 0.437500000
v 0.257812500 0.507812500 0.793750000
v 0.054687500 0.507812500 0.793750000
v 0.054687500 0.507812500 0.437500000
v 0.054687500 0.492187500 0.437500000
v 0.054687500 0.492187500 0.793750000
v 0.070312500 0.492187500 0.793750000
v 0.070312500 0.492187500 0.437500000
v 0.070312500 0.507812500 0.437500000
v 0.070312500 0.507812500 0.793750000
v 0.056250000 0.614062500 0.823437500
v 0.056250000 0.614062500 0.801562500
v 0.056250000 0.635937500 0.801562500
v 0.056250000 0.635937500 0.823437500
v 0.000000000 0.614062500 0.823437500
v 0.000000000 0.614062500 0.801562500
v 0.000000000 0.635937500 0.801562500
v 0.000000000 0.635937500 0.823437500
v 0.318750000 0.635937500 0.823437500
v 0.318750000 0.635937500 0.801562500
v 0.318750000 0.614062500 0.801562500
v 0.318750000 0.614062500 0.823437500
v 0.431250000 0.614062500 0.823437500
v 0.431250000 0.614062500 0.801562500
v 0.431250000 0.635937500 0.801562500
v 0.431250000 0.635937500 0.823437500
v 0.131250000 0.635937500 0.823437500
v 0.131250000 0.635937500 0.801562500
v 0.131250000 0.614062500 0.801562500
v 0.131250000 0.614062500 0.823437500
v 0.243750000 0.614062500 0.823437500
v 0.243750000 0.614062500 0.801562500
v 0.243750000 0.635937500 0.801562500
v 0.243750000 0.635937500 0.823437500
v 0.221875000 1.000000000 0.114062500
v 0.221875000 1.000000000 0.000000000
v 0.221875000 0.922328487 0.000000000
v 0.221875000 0.922328487 0.114062500
v 0.315625000 1.000000000 0.114062500
v 0.315625000 0.922328487 0.114062500
v 0.315625000 0.922328487 0.000000000
v 0.315625000 1.000000000 0.000000000
v 0.221875000 1.000000000 0.228125000
v 0.221875000 0.952044930 0.114062500
v 0.221875000 0.952044930 0.228125000
v 0.315625000 1.000000000 0.228125000
v 0.315625000 0.952044930 0.228125000
v 0.315625000 0.952044930 0.114062500
v 0.154216549 0.823437500 0.844375000
v 0.154216549 0.823437500 0.836875000
v 0.154216549 0.806250000 0.836875000
v 0.154216549 0.806250000 0.844375000
v 0.220783451 0.806250000 0.844375000
v 0.220783451 0.806250000 0.836875000
v 0.220783451 0.823437500 0.836875000
v 0.220783451 0.823437500 0.844375000
v 0.133832048 0.840625000 0.844375000
v 0.133832048 0.840625000 0.836875000
v 0.133832048 0.823437500 0.836875000
v 0.133832048 0.823437500 0.844375000
v 0.241167952 0.823437500 0.844375000
v 0.241167952 0.823437500 0.836875000
v 0.241167952 0.840625000 0.836875000
v 0.241167952 0.840625000 0.844375000
v 0.123767044 0.857812500 0.844375000
v 0.123767044 0.857812500 0.836875000
v 0.123767044 0.840625000 0.836875000
v 0.123767044 0.840625000 0.844375000
v 0.251232956 0.840625000 0.844375000
v 0.251232956 0.840625000 0.836875000
v 0.251232956 0.857812500 0.836875000
v 0.251232956 0.857812500 0.844375000
v 0.119289224 0.875000000 0.844375000
v 0.119289224 0.875000000 0.836875000
v 0.119289224 0.857812500 0.836875000
v 0.119289224 0.857812500 0.844375000
v 0.255710776 0.857812500 0.844375000
v 0.255710776 0.857812500 0.836875000
v 0.255710776 0.875000000 0.836875000
v 0.255710776 0.875000000 0.844375000
v 0.119289224 0.892187500 0.844375000
v 0.119289224 0.892187500 0.836875000
v 0.255710776 0.892187500 0.836875000
v 0.255710776 0.892187500 0.844375000
v 0.123767044 0.909375000 0.844375000
v 0.123767044 0.909375000 0.836875000
v 0.123767044 0.892187500 0.836875000
v 0.123767044 0.892187500 0.844375000
v 0.251232956 0.892187500 0.844375000
v 0.251232956 0.892187500 0.836875000
v 0.251232956 0.909375000 0.836875000
v 0.251232956 0.909375000 0.844375000
v 0.133832048 0.926562500 0.844375000
v 0.133832048 0.926562500 0.836875000
v 0.133832048 0.909375000 0.836875000
v 0.133832048 0.909375000 0.844375000
v 0.241167952 0.909375000 0.844375000
v 0.241167952 0.909375000 0.836875000
v 0.241167952 0.926562500 0.836875000
v 0.241167952 0.926562500 0.844375000
v 0.154216549 0.943750000 0.844375000
v 0.154216549 0.943750000 0.836875000
v 0.154216549 0.926562500 0.836875000
v 0.154216549 0.926562500 0.844375000
v 0.220783451 0.926562500 0.844375000
v 0.220783451 0.926562500 0.836875000
v 0.220783451 0.943750000 0.836875000
v 0.220783451 0.943750000 0.844375000
vt 0 0
vt 1 0
vt 1 1
vt 0 1
vn -1.000000000 -0.000000000 0.000000000
vn -0.819152044 -0.573576436 -0.000000000
vn -0.573576436 0.819152044 0.000000000
vn 0.000000000 -1.000000000 -0.000000000
vn -0.000000000 -0.000000000 -1.000000000
vn 0.000000000 0.000000000 1.000000000
vn -0.000000000 1.000000000 0.000000000
vn 0.573576436 -0.819152044 -0.000000000
vn 0.819152044 0.573576436 0.000000000
vn 1.000000000 0.000000000 -0.000000000
usemtl step_color_000
f 1/1/2 2/2/2 3/3/2 4/4/2
f 5/1/9 6/2/9 7/3/9 8/4/9
f 5/1/8 4/2/8 3/3/8 6/4/8
f 7/1/3 2/2/3 1/3/3 8/4/3
f 7/1/5 6/2/5 3/3/5 2/4/5
f 1/1/6 4/2/6 5/3/6 8/4/6
f 9/1/1 10/2/1 11/3/1 12/4/1
f 13/1/10 14/2/10 15/3/10 16/4/10
f 13/1/4 12/2/4 11/3/4 14/4/4
f 15/1/7 10/2/7 9/3/7 16/4/7
f 15/1/5 14/2/5 11/3/5 10/4/5
f 9/1/6 12/2/6 13/3/6 16/4/6
f 17/1/1 18/2/1 19/3/1 20/4/1
f 21/1/10 22/2/10 23/3/10 24/4/10
f 21/1/4 20/2/4 19/3/4 22/4/4
f 23/1/7 18/2/7 17/3/7 24/4/7
f 23/1/5 22/2/5 19/3/5 18/4/5
f 17/1/6 20/2/6 21/3/6 24/4/6
f 25/1/1 26/2/1 27/3/1 28/4/1
f 29/1/10 30/2/10 31/3/10 32/4/10
f 29/1/4 28/2/4 27/3/4 30/4/4
f 31/1/7 26/2/7 25/3/7 32/4/7
f 31/1/5 30/2/5 27/3/5 26/4/5
f 25/1/6 28/2/6 29/3/6 32/4/6
usemtl step_color_001
f 33/1/1 34/2/1 35/3/1 36/4/1
f 37/1/10 38/2/10 39/3/10 40/4/10
f 37/1/4 36/2/4 35/3/4 38/4/4
f 39/1/7 34/2/7 33/3/7 40/4/7
f 39/1/5 38/2/5 35/3/5 34/4/5
f 33/1/6 36/2/6 37/3/6 40/4/6
f 41/1/1 42/2/1 43/3/1 44/4/1
f 45/1/10 46/2/10 47/3/10 48/4/10
f 46/1/4 45/2/4 44/3/4 43/4/4
f 47/1/7 42/2/7 41/3/7 48/4/7
f 41/1/6 44/2/6 45/3/6 48/4/6
f 49/1/1 50/2/1 51/3/1 52/4/1
f 53/1/10 54/2/10 55/3/10 56/4/10
f 53/1/4 52/2/4 51/3/4 54/4/4
f 55/1/7 50/2/7 49/3/7 56/4/7
f 55/1/5 54/2/5 51/3/5 50/4/5
f 49/1/6 52/2/6 53/3/6 56/4/6
f 57/1/1 58/2/1 59/3/1 60/4/1
f 61/1/10 62/2/10 63/3/10 64/4/10
f 61/1/4 60/2/4 59/3/4 62/4/4
f 63/1/7 58/2/7 57/3/7 64/4/7
f 63/1/5 62/2/5 59/3/5 58/4/5
f 57/1/6 60/2/6 61/3/6 64/4/6
f 65/1/1 66/2/1 67/3/1 68/4/1
f 69/1/10 70/2/10 71/3/10 72/4/10
f 69/1/4 68/2/4 67/3/4 70/4/4
f 71/1/7 66/2/7 65/3/7 72/4/7
f 71/1/5 70/2/5 67/3/5 66/4/5
f 65/1/6 68/2/6 69/3/6 72/4/6
f 73/1/1 74/2/1 75/3/1 76/4/1
f 77/1/10 78/2/10 79/3/10 80/4/10
f 77/1/4 76/2/4 75/3/4 78/4/4
f 79/1/7 74/2/7 73/3/7 80/4/7
f 79/1/5 78/2/5 75/3/5 74/4/5
f 73/1/6 76/2/6 77/3/6 80/4/6
f 81/1/1 82/2/1 74/3/1 73/4/1
f 80/1/10 79/2/10 83/3/10 84/4/10
f 80/1/4 73/2/4 74/3/4 79/4/4
f 83/1/7 82/2/7 81/3/7 84/4/7
f 83/1/5 79/2/5 74/3/5 82/4/5
f 81/1/6 73/2/6 80/3/6 84/4/6
f 85/1/1 86/2/1 87/3/1 88/4/1
f 89/1/10 90/2/10 91/3/10 92/4/10
f 89/1/4 88/2/4 87/3/4 90/4/4
f 91/1/7 86/2/7 85/3/7 92/4/7
f 91/1/5 90/2/5 87/3/5 86/4/5
f 85/1/6 88/2/6 89/3/6 92/4/6
f 93/1/1 94/2/1 95/3/1 96/4/1
f 97/1/10 98/2/10 99/3/10 100/4/10
f 97/1/4 96/2/4 95/3/4 98/4/4
f 99/1/7 94/2/7 93/3/7 100/4/7
f 99/1/5 98/2/5 95/3/5 94/4/5
f 93/1/6 96/2/6 97/3/6 100/4/6
f 101/1/1 102/2/1 103/3/1 104/4/1
f 105/1/10 106/2/10 107/3/10 108/4/10
f 105/1/4 104/2/4 103/3/4 106/4/4
f 107/1/7 102/2/7 101/3/7 108/4/7
f 107/1/5 106/2/5 103/3/5 102/4/5
f 101/1/6 104/2/6 105/3/6 108/4/6
usemtl step_color_002
f 109/1/10 110/2/10 111/3/10 112/4/10
f 110/1/4 109/2/4 113/3/4 114/4/4
f 111/1/7 115/2/7 116/3/7 112/4/7
f 116/1/6 113/2/6 109/3/6 112/4/6
f 117/1/1 118/2/1 119/3/1 120/4/1
f 121/1/10 122/2/10 123/3/10 124/4/10
f 122/1/4 121/2/4 120/3/4 119/4/4
f 123/1/7 118/2/7 117/3/7 124/4/7
f 117/1/6 120/2/6 121/3/6 124/4/6
f 125/1/10 126/2/10 127/3/10 128/4/10
f 126/1/4 129/2/4 130/3/4 127/4/4
f 131/1/5 128/2/5 127/3/5 130/4/5
f 132/1/6 129/2/6 126/3/6 125/4/6
f 133/1/10 134/2/10 135/3/10 136/4/10
f 133/1/4 137/2/4 138/3/4 134/4/4
f 135/1/7 139/2/7 140/3/7 136/4/7
f 139/1/5 135/2/5 134/3/5 138/4/5
f 140/1/6 137/2/6 133/3/6 136/4/6
f 141/1/10 142/2/10 143/3/10 144/4/10
f 141/1/4 145/2/4 146/3/4 142/4/4
f 143/1/7 147/2/7 148/3/7 144/4/7
f 147/1/5 143/2/5 142/3/5 146/4/5
f 148/1/6 145/2/6 141/3/6 144/4/6
f 149/1/10 150/2/10 151/3/10 152/4/10
f 149/1/4 153/2/4 154/3/4 150/4/4
f 151/1/7 155/2/7 156/3/7 152/4/7
f 155/1/5 151/2/5 150/3/5 154/4/5
f 156/1/6 153/2/6 149/3/6 152/4/6
usemtl step_color_003
f 157/1/10 158/2/10 159/3/10 160/4/10
f 157/1/4 161/2/4 162/3/4 158/4/4
f 159/1/7 163/2/7 164/3/7 160/4/7
f 163/1/5 159/2/5 158/3/5 162/4/5
f 164/1/6 161/2/6 157/3/6 160/4/6
f 165/1/10 166/2/10 167/3/10 168/4/10
f 166/1/4 165/2/4 169/3/4 170/4/4
f 167/1/7 171/2/7 172/3/7 168/4/7
f 172/1/6 169/2/6 165/3/6 168/4/6
f 173/1/10 174/2/10 175/3/10 176/4/10
f 174/1/4 177/2/4 178/3/4 175/4/4
f 179/1/5 176/2/5 175/3/5 178/4/5
f 180/1/6 177/2/6 174/3/6 173/4/6
f 181/1/10 182/2/10 183/3/10 173/4/10
f 182/1/4 184/2/4 185/3/4 183/4/4
f 180/1/5 173/2/5 183/3/5 185/4/5
f 186/1/6 184/2/6 182/3/6 181/4/6
f 187/1/10 188/2/10 189/3/10 181/4/10
f 188/1/4 190/2/4 191/3/4 189/4/4
f 186/1/5 181/2/5 189/3/5 191/4/5
f 192/1/6 190/2/6 188/3/6 187/4/6
usemtl step_color_004
f 193/1/1 194/2/1 195/3/1 196/4/1
f 197/1/10 198/2/10 199/3/10 200/4/10
f 197/1/4 196/2/4 195/3/4 198/4/4
f 199/1/7 194/2/7 193/3/7 200/4/7
f 199/1/5 198/2/5 195/3/5 194/4/5
f 193/1/6 196/2/6 197/3/6 200/4/6
f 201/1/1 202/2/1 203/3/1 204/4/1
f 205/1/10 206/2/10 207/3/10 208/4/10
f 206/1/4 204/2/4 203/3/4 207/4/4
f 208/1/5 207/2/5 203/3/5 202/4/5
f 201/1/6 204/2/6 206/3/6 205/4/6
f 209/1/1 210/2/1 211/3/1 212/4/1
f 213/1/10 214/2/10 215/3/10 216/4/10
f 214/1/4 213/2/4 212/3/4 211/4/4
f 215/1/7 210/2/7 209/3/7 216/4/7
f 209/1/6 212/2/6 213/3/6 216/4/6
f 217/1/10 218/2/10 219/3/10 220/4/10
f 218/1/4 221/2/4 222/3/4 219/4/4
f 223/1/5 220/2/5 219/3/5 222/4/5
f 224/1/6 221/2/6 218/3/6 217/4/6
f 225/1/1 226/2/1 227/3/1 228/4/1
f 229/1/10 230/2/10 231/3/10 232/4/10
f 230/1/4 228/2/4 227/3/4 231/4/4
f 232/1/5 231/2/5 227/3/5 226/4/5
f 225/1/6 228/2/6 230/3/6 229/4/6
f 233/1/1 234/2/1 235/3/1 236/4/1
f 237/1/10 238/2/10 239/3/10 240/4/10
f 237/1/4 236/2/4 235/3/4 238/4/4
f 239/1/7 234/2/7 233/3/7 240/4/7
f 239/1/5 238/2/5 235/3/5 234/4/5
f 233/1/6 236/2/6 237/3/6 240/4/6
f 241/1/1 242/2/1 243/3/1 244/4/1
f 245/1/10 246/2/10 247/3/10 248/4/10
f 245/1/4 244/2/4 243/3/4 246/4/4
f 247/1/7 242/2/7 241/3/7 248/4/7
f 247/1/5 246/2/5 243/3/5 242/4/5
f 241/1/6 244/2/6 245/3/6 248/4/6
f 249/1/1 250/2/1 251/3/1 252/4/1
f 253/1/10 254/2/10 255/3/10 256/4/10
f 253/1/4 252/2/4 251/3/4 254/4/4
f 255/1/7 250/2/7 249/3/7 256/4/7
f 255/1/5 254/2/5 251/3/5 250/4/5
f 249/1/6 252/2/6 253/3/6 256/4/6
f 257/1/1 258/2/1 259/3/1 260/4/1
f 261/1/10 262/2/10 263/3/10 264/4/10
f 261/1/4 260/2/4 259/3/4 262/4/4
f 263/1/7 258/2/7 257/3/7 264/4/7
f 263/1/5 262/2/5 259/3/5 258/4/5
f 257/1/6 260/2/6 261/3/6 264/4/6
f 265/1/1 266/2/1 267/3/1 268/4/1
f 269/1/10 270/2/10 271/3/10 272/4/10
f 269/1/4 268/2/4 267/3/4 270/4/4
f 271/1/7 266/2/7 265/3/7 272/4/7
f 271/1/5 270/2/5 267/3/5 266/4/5
f 265/1/6 268/2/6 269/3/6 272/4/6
f 273/1/10 274/2/10 275/3/10 276/4/10
f 273/1/4 277/2/4 278/3/4 274/4/4
f 275/1/7 279/2/7 280/3/7 276/4/7
f 279/1/5 275/2/5 274/3/5 278/4/5
f 280/1/6 277/2/6 273/3/6 276/4/6
f 281/1/1 282/2/1 283/3/1 284/4/1
f 285/1/10 286/2/10 287/3/10 288/4/10
f 285/1/4 284/2/4 283/3/4 286/4/4
f 287/1/7 282/2/7 281/3/7 288/4/7
f 287/1/5 286/2/5 283/3/5 282/4/5
f 281/1/6 284/2/6 285/3/6 288/4/6
f 289/1/1 290/2/1 291/3/1 292/4/1
f 293/1/10 294/2/10 295/3/10 296/4/10
f 293/1/4 292/2/4 291/3/4 294/4/4
f 295/1/7 290/2/7 289/3/7 296/4/7
f 295/1/5 294/2/5 291/3/5 290/4/5
f 289/1/6 292/2/6 293/3/6 296/4/6
f 297/1/1 298/2/1 299/3/1 300/4/1
f 301/1/10 302/2/10 303/3/10 304/4/10
f 302/1/4 300/2/4 299/3/4 303/4/4
f 304/1/5 303/2/5 299/3/5 298/4/5
f 297/1/6 300/2/6 302/3/6 301/4/6
f 305/1/1 297/2/1 306/3/1 307/4/1
f 308/1/10 309/2/10 310/3/10 301/4/10
f 309/1/4 307/2/4 306/3/4 310/4/4
f 301/1/5 310/2/5 306/3/5 297/4/5
f 305/1/6 307/2/6 309/3/6 308/4/6
usemtl step_color_006
f 311/1/1 312/2/1 313/3/1 314/4/1
f 315/1/10 316/2/10 317/3/10 318/4/10
f 315/1/4 314/2/4 313/3/4 316/4/4
f 317/1/7 312/2/7 311/3/7 318/4/7
f 317/1/5 316/2/5 313/3/5 312/4/5
f 311/1/6 314/2/6 315/3/6 318/4/6
f 319/1/1 320/2/1 321/3/1 322/4/1
f 323/1/10 324/2/10 325/3/10 326/4/10
f 323/1/4 322/2/4 321/3/4 324/4/4
f 325/1/7 320/2/7 319/3/7 326/4/7
f 325/1/5 324/2/5 321/3/5 320/4/5
f 319/1/6 322/2/6 323/3/6 326/4/6
f 327/1/1 328/2/1 329/3/1 330/4/1
f 331/1/10 332/2/10 333/3/10 334/4/10
f 331/1/4 330/2/4 329/3/4 332/4/4
f 333/1/7 328/2/7 327/3/7 334/4/7
f 333/1/5 332/2/5 329/3/5 328/4/5
f 327/1/6 330/2/6 331/3/6 334/4/6
f 335/1/1 336/2/1 337/3/1 338/4/1
f 339/1/10 340/2/10 341/3/10 342/4/10
f 339/1/4 338/2/4 337/3/4 340/4/4
f 341/1/7 336/2/7 335/3/7 342/4/7
f 341/1/5 340/2/5 337/3/5 336/4/5
f 335/1/6 338/2/6 339/3/6 342/4/6
f 343/1/1 344/2/1 336/3/1 335/4/1
f 342/1/10 341/2/10 345/3/10 346/4/10
f 342/1/4 335/2/4 336/3/4 341/4/4
f 345/1/7 344/2/7 343/3/7 346/4/7
f 345/1/5 341/2/5 336/3/5 344/4/5
f 343/1/6 335/2/6 342/3/6 346/4/6
f 347/1/1 348/2/1 349/3/1 350/4/1
f 351/1/10 352/2/10 353/3/10 354/4/10
f 351/1/4 350/2/4 349/3/4 352/4/4
f 353/1/7 348/2/7 347/3/7 354/4/7
f 353/1/5 352/2/5 349/3/5 348/4/5
f 347/1/6 350/2/6 351/3/6 354/4/6
f 355/1/1 356/2/1 357/3/1 358/4/1
f 359/1/10 360/2/10 361/3/10 362/4/10
f 359/1/4 358/2/4 357/3/4 360/4/4
f 361/1/7 356/2/7 355/3/7 362/4/7
f 361/1/5 360/2/5 357/3/5 356/4/5
f 355/1/6 358/2/6 359/3/6 362/4/6
f 363/1/1 364/2/1 365/3/1 366/4/1
f 367/1/10 368/2/10 369/3/10 370/4/10
f 367/1/4 366/2/4 365/3/4 368/4/4
f 369/1/7 364/2/7 363/3/7 370/4/7
f 369/1/5 368/2/5 365/3/5 364/4/5
f 363/1/6 366/2/6 367/3/6 370/4/6
