# Generated by tools-import-turbines.py; estimated STEP scale.
mtllib materials.mtl
s off
v 0.456250000 0.000000000 1.000000000
v 0.456250000 0.125000000 1.000000000
v 0.456250000 0.125000000 0.906250000
v 0.456250000 0.000000000 0.906250000
v 0.543750000 0.000000000 1.000000000
v 0.543750000 0.000000000 0.906250000
v 0.543750000 0.125000000 0.906250000
v 0.543750000 0.125000000 1.000000000
v 0.831250000 0.000000000 1.000000000
v 0.831250000 0.125000000 1.000000000
v 0.831250000 0.125000000 0.906250000
v 0.831250000 0.000000000 0.906250000
v 0.918750000 0.000000000 1.000000000
v 0.918750000 0.000000000 0.906250000
v 0.918750000 0.125000000 0.906250000
v 0.918750000 0.125000000 1.000000000
v 0.317510403 1.000000000 0.973437500
v 0.317510403 1.000000000 0.943750000
v 0.317510403 0.437500000 0.943750000
v 0.317510403 0.437500000 0.973437500
v 0.432489597 1.000000000 0.973437500
v 0.432489597 0.437500000 0.973437500
v 0.432489597 0.437500000 0.943750000
v 0.432489597 1.000000000 0.943750000
v 0.282300811 1.000000000 1.000000000
v 0.282300811 1.000000000 0.973437500
v 0.282300811 0.437500000 0.973437500
v 0.282300811 0.437500000 1.000000000
v 0.467699189 1.000000000 1.000000000
v 0.467699189 0.437500000 1.000000000
v 0.467699189 0.437500000 0.973437500
v 0.467699189 1.000000000 0.973437500
v 0.557391966 0.812500000 0.798437500
v 0.557391966 0.812500000 0.731250000
v 0.557391966 0.187500000 0.731250000
v 0.557391966 0.187500000 0.798437500
v 0.817608034 0.187500000 0.798437500
v 0.817608034 0.187500000 0.731250000
v 0.817608034 0.812500000 0.731250000
v 0.817608034 0.812500000 0.798437500
v 0.477707098 0.812500000 0.865625000
v 0.477707098 0.812500000 0.798437500
v 0.477707098 0.187500000 0.798437500
v 0.477707098 0.187500000 0.865625000
v 0.897292902 0.187500000 0.865625000
v 0.897292902 0.187500000 0.798437500
v 0.897292902 0.812500000 0.798437500
v 0.897292902 0.812500000 0.865625000
v 0.438362082 0.812500000 0.932812500
v 0.438362082 0.812500000 0.865625000
v 0.438362082 0.187500000 0.865625000
v 0.438362082 0.187500000 0.932812500
v 0.936637918 0.187500000 0.932812500
v 0.936637918 0.187500000 0.865625000
v 0.936637918 0.812500000 0.865625000
v 0.936637918 0.812500000 0.932812500
v 0.420857876 0.812500000 1.000000000
v 0.420857876 0.812500000 0.932812500
v 0.420857876 0.187500000 0.932812500
v 0.420857876 0.187500000 1.000000000
v 0.954142124 0.187500000 1.000000000
v 0.954142124 0.187500000 0.932812500
v 0.954142124 0.812500000 0.932812500
v 0.954142124 0.812500000 1.000000000
v 0.531250000 1.000000000 1.000000000
v 0.531250000 1.000000000 0.843750000
v 0.531250000 0.812500000 0.843750000
v 0.531250000 0.812500000 1.000000000
v 0.843750000 1.000000000 1.000000000
v 0.843750000 0.812500000 1.000000000
v 0.843750000 0.812500000 0.843750000
v 0.843750000 1.000000000 0.843750000
v 0.542263125 0.843750000 0.775000000
v 0.542263125 0.843750000 0.700000000
v 0.542263125 0.781250000 0.700000000
v 0.542263125 0.781250000 0.775000000
v 0.832736875 0.781250000 0.775000000
v 0.832736875 0.781250000 0.700000000
v 0.832736875 0.843750000 0.700000000
v 0.832736875 0.843750000 0.775000000
v 0.453312575 0.843750000 0.850000000
v 0.453312575 0.843750000 0.775000000
v 0.453312575 0.781250000 0.775000000
v 0.453312575 0.781250000 0.850000000
v 0.921687425 0.781250000 0.850000000
v 0.921687425 0.781250000 0.775000000
v 0.921687425 0.843750000 0.775000000
v 0.921687425 0.843750000 0.850000000
v 0.409392557 0.843750000 0.925000000
v 0.409392557 0.843750000 0.850000000
v 0.409392557 0.781250000 0.850000000
v 0.409392557 0.781250000 0.925000000
v 0.965607443 0.781250000 0.925000000
v 0.965607443 0.781250000 0.850000000
v 0.965607443 0.843750000 0.850000000
v 0.965607443 0.843750000 0.925000000
v 0.389852978 0.843750000 1.000000000
v 0.389852978 0.843750000 0.925000000
v 0.389852978 0.781250000 0.925000000
v 0.389852978 0.781250000 1.000000000
v 0.985147022 0.781250000 1.000000000
v 0.985147022 0.781250000 0.925000000
v 0.985147022 0.843750000 0.925000000
v 0.985147022 0.843750000 1.000000000
v 0.735937500 1.000000000 0.576562500
v 0.735937500 1.000000000 0.548437500
v 0.735937500 0.437500000 0.548437500
v 0.735937500 0.437500000 0.576562500
v 0.764062500 1.000000000 0.576562500
v 0.764062500 0.437500000 0.576562500
v 0.764062500 0.437500000 0.548437500
v 0.764062500 1.000000000 0.548437500
vt 0 0
vt 1 0
vt 1 1
vt 0 1
vn -1.000000000 -0.000000000 0.000000000
vn 0.000000000 -1.000000000 -0.000000000
vn -0.000000000 -0.000000000 -1.000000000
vn 0.000000000 0.000000000 1.000000000
vn -0.000000000 1.000000000 0.000000000
vn 1.000000000 0.000000000 -0.000000000
usemtl step_color_002
f 1/1/1 2/2/1 3/3/1 4/4/1
f 5/1/6 6/2/6 7/3/6 8/4/6
f 8/1/5 7/2/5 3/3/5 2/4/5
f 7/1/3 6/2/3 4/3/3 3/4/3
f 9/1/1 10/2/1 11/3/1 12/4/1
f 13/1/6 14/2/6 15/3/6 16/4/6
f 16/1/5 15/2/5 11/3/5 10/4/5
f 15/1/3 14/2/3 12/3/3 11/4/3
usemtl step_color_003
f 17/1/1 18/2/1 19/3/1 20/4/1
f 21/1/6 22/2/6 23/3/6 24/4/6
f 22/1/2 20/2/2 19/3/2 23/4/2
f 24/1/3 23/2/3 19/3/3 18/4/3
f 17/1/4 20/2/4 22/3/4 21/4/4
f 25/1/1 26/2/1 27/3/1 28/4/1
f 29/1/6 30/2/6 31/3/6 32/4/6
f 30/1/2 28/2/2 27/3/2 31/4/2
f 32/1/3 31/2/3 27/3/3 26/4/3
f 33/1/1 34/2/1 35/3/1 36/4/1
f 37/1/6 38/2/6 39/3/6 40/4/6
f 37/1/2 36/2/2 35/3/2 38/4/2
f 39/1/5 34/2/5 33/3/5 40/4/5
f 39/1/3 38/2/3 35/3/3 34/4/3
f 33/1/4 36/2/4 37/3/4 40/4/4
f 41/1/1 42/2/1 43/3/1 44/4/1
f 45/1/6 46/2/6 47/3/6 48/4/6
f 45/1/2 44/2/2 43/3/2 46/4/2
f 47/1/5 42/2/5 41/3/5 48/4/5
f 47/1/3 46/2/3 43/3/3 42/4/3
f 41/1/4 44/2/4 45/3/4 48/4/4
f 49/1/1 50/2/1 51/3/1 52/4/1
f 53/1/6 54/2/6 55/3/6 56/4/6
f 53/1/2 52/2/2 51/3/2 54/4/2
f 55/1/5 50/2/5 49/3/5 56/4/5
f 55/1/3 54/2/3 51/3/3 50/4/3
f 49/1/4 52/2/4 53/3/4 56/4/4
f 57/1/1 58/2/1 59/3/1 60/4/1
f 61/1/6 62/2/6 63/3/6 64/4/6
f 61/1/2 60/2/2 59/3/2 62/4/2
f 63/1/5 58/2/5 57/3/5 64/4/5
f 63/1/3 62/2/3 59/3/3 58/4/3
f 57/1/4 60/2/4 61/3/4 64/4/4
f 65/1/1 66/2/1 67/3/1 68/4/1
f 69/1/6 70/2/6 71/3/6 72/4/6
f 70/1/2 68/2/2 67/3/2 71/4/2
f 72/1/3 71/2/3 67/3/3 66/4/3
usemtl step_color_004
f 73/1/1 74/2/1 75/3/1 76/4/1
f 77/1/6 78/2/6 79/3/6 80/4/6
f 77/1/2 76/2/2 75/3/2 78/4/2
f 79/1/5 74/2/5 73/3/5 80/4/5
f 79/1/3 78/2/3 75/3/3 74/4/3
f 73/1/4 76/2/4 77/3/4 80/4/4
f 81/1/1 82/2/1 83/3/1 84/4/1
f 85/1/6 86/2/6 87/3/6 88/4/6
f 85/1/2 84/2/2 83/3/2 86/4/2
f 87/1/5 82/2/5 81/3/5 88/4/5
f 87/1/3 86/2/3 83/3/3 82/4/3
f 81/1/4 84/2/4 85/3/4 88/4/4
f 89/1/1 90/2/1 91/3/1 92/4/1
f 93/1/6 94/2/6 95/3/6 96/4/6
f 93/1/2 92/2/2 91/3/2 94/4/2
f 95/1/5 90/2/5 89/3/5 96/4/5
f 95/1/3 94/2/3 91/3/3 90/4/3
f 89/1/4 92/2/4 93/3/4 96/4/4
f 97/1/1 98/2/1 99/3/1 100/4/1
f 101/1/6 102/2/6 103/3/6 104/4/6
f 101/1/2 100/2/2 99/3/2 102/4/2
f 103/1/5 98/2/5 97/3/5 104/4/5
f 103/1/3 102/2/3 99/3/3 98/4/3
f 97/1/4 100/2/4 101/3/4 104/4/4
f 105/1/1 106/2/1 107/3/1 108/4/1
f 109/1/6 110/2/6 111/3/6 112/4/6
f 110/1/2 108/2/2 107/3/2 111/4/2
f 112/1/3 111/2/3 107/3/3 106/4/3
f 105/1/4 108/2/4 110/3/4 109/4/4
