# Generated by tools-import-turbines.py; estimated STEP scale.
mtllib materials.mtl
s off
v 0.155596031 0.853750000 0.882500000
v 0.155596031 0.853750000 0.875000000
v 0.155596031 0.805000000 0.875000000
v 0.155596031 0.805000000 0.882500000
v 0.344403969 0.805000000 0.882500000
v 0.344403969 0.805000000 0.875000000
v 0.344403969 0.853750000 0.875000000
v 0.344403969 0.853750000 0.882500000
v 0.097778174 0.902500000 0.882500000
v 0.097778174 0.902500000 0.875000000
v 0.097778174 0.853750000 0.875000000
v 0.097778174 0.853750000 0.882500000
v 0.402221826 0.853750000 0.882500000
v 0.402221826 0.853750000 0.875000000
v 0.402221826 0.902500000 0.875000000
v 0.402221826 0.902500000 0.882500000
v 0.069230162 0.951250000 0.882500000
v 0.069230162 0.951250000 0.875000000
v 0.069230162 0.902500000 0.875000000
v 0.069230162 0.902500000 0.882500000
v 0.430769838 0.902500000 0.882500000
v 0.430769838 0.902500000 0.875000000
v 0.430769838 0.951250000 0.875000000
v 0.430769838 0.951250000 0.882500000
v 0.056529435 1.000000000 0.882500000
v 0.056529435 1.000000000 0.875000000
v 0.056529435 0.951250000 0.875000000
v 0.056529435 0.951250000 0.882500000
v 0.443470565 0.951250000 0.882500000
v 0.443470565 0.951250000 0.875000000
v 0.443470565 1.000000000 0.875000000
v 0.443470565 1.000000000 0.882500000
v 0.496812500 1.000000000 0.939687500
v 0.496812500 1.000000000 0.905312500
v 0.496812500 0.982812500 0.905312500
v 0.496812500 0.982812500 0.939687500
v 0.531187500 1.000000000 0.939687500
v 0.531187500 0.982812500 0.939687500
v 0.531187500 0.982812500 0.905312500
v 0.531187500 1.000000000 0.905312500
v 0.003187500 1.000000000 0.939687500
v 0.003187500 0.982812500 0.939687500
v 0.003187500 0.982812500 0.905312500
v 0.003187500 1.000000000 0.905312500
v 0.000000000 0.982812500 0.939687500
v 0.000000000 0.982812500 0.905312500
v 0.000000000 1.000000000 0.905312500
v 0.000000000 1.000000000 0.939687500
v 0.100812500 0.788556793 0.939687500
v 0.100812500 0.788556793 0.905312500
v 0.100812500 0.754181793 0.905312500
v 0.100812500 0.754181793 0.939687500
v 0.135187500 0.754181793 0.939687500
v 0.135187500 0.754181793 0.905312500
v 0.135187500 0.788556793 0.905312500
v 0.135187500 0.788556793 0.939687500
v 0.364812500 0.788556793 0.939687500
v 0.364812500 0.788556793 0.905312500
v 0.364812500 0.754181793 0.905312500
v 0.364812500 0.754181793 0.939687500
v 0.399187500 0.754181793 0.939687500
v 0.399187500 0.754181793 0.905312500
v 0.399187500 0.788556793 0.905312500
v 0.399187500 0.788556793 0.939687500
v 0.062500000 0.062500000 0.875000000
v 0.062500000 0.062500000 0.000000000
v 0.062500000 0.312500000 0.000000000
v 0.062500000 0.312500000 0.875000000
v 0.000000000 0.062500000 0.875000000
v 0.000000000 0.062500000 0.000000000
v 0.000000000 0.312500000 0.000000000
v 0.000000000 0.312500000 0.875000000
v 0.937500000 0.312500000 0.875000000
v 0.937500000 0.312500000 0.000000000
v 0.937500000 0.062500000 0.000000000
v 0.937500000 0.062500000 0.875000000
v 1.000000000 0.062500000 0.000000000
v 1.000000000 0.062500000 0.875000000
v 1.000000000 0.312500000 0.000000000
v 1.000000000 0.312500000 0.875000000
v 0.843750000 1.000000000 0.775000000
v 0.843750000 1.000000000 0.725000000
v 0.843750000 0.406250000 0.725000000
v 0.843750000 0.406250000 0.775000000
v 1.000000000 0.406250000 0.775000000
v 1.000000000 0.406250000 0.725000000
v 1.000000000 1.000000000 0.725000000
v 1.000000000 1.000000000 0.775000000
v 1.000000000 0.042187500 0.987500000
v 0.000000000 0.042187500 0.987500000
v 0.000000000 0.042187500 0.762500000
v 1.000000000 0.042187500 0.762500000
v 1.000000000 0.082812500 0.762500000
v 0.000000000 0.082812500 0.762500000
v 0.000000000 0.082812500 0.987500000
v 1.000000000 0.082812500 0.987500000
v 1.000000000 0.292187500 0.987500000
v 0.000000000 0.292187500 0.987500000
v 0.000000000 0.292187500 0.762500000
v 1.000000000 0.292187500 0.762500000
v 1.000000000 0.332812500 0.762500000
v 0.000000000 0.332812500 0.762500000
v 0.000000000 0.332812500 0.987500000
v 1.000000000 0.332812500 0.987500000
v 1.000000000 0.062500000 0.906250000
v 0.000000000 0.062500000 0.906250000
v 0.000000000 0.062500000 0.843750000
v 1.000000000 0.062500000 0.843750000
v 1.000000000 0.312500000 0.843750000
v 0.000000000 0.312500000 0.843750000
v 0.000000000 0.312500000 0.906250000
v 1.000000000 0.312500000 0.906250000
v 0.078125000 0.906250000 0.406250000
v 0.078125000 0.906250000 0.218750000
v 0.078125000 0.343750000 0.218750000
v 0.078125000 0.343750000 0.406250000
v 0.296875000 0.343750000 0.406250000
v 0.296875000 0.343750000 0.218750000
v 0.296875000 0.906250000 0.218750000
v 0.296875000 0.906250000 0.406250000
v 0.890625000 0.906250000 0.406250000
v 0.890625000 0.906250000 0.218750000
v 0.890625000 0.343750000 0.218750000
v 0.890625000 0.343750000 0.406250000
v 1.000000000 0.343750000 0.406250000
v 1.000000000 0.343750000 0.218750000
v 1.000000000 0.906250000 0.218750000
v 1.000000000 0.906250000 0.406250000
v 1.000000000 0.318750000 0.000000000
v 1.000000000 0.318750000 0.875000000
v 0.000000000 0.318750000 0.875000000
v 0.000000000 0.318750000 0.000000000
v 1.000000000 0.368750000 0.000000000
v 0.000000000 0.368750000 0.000000000
v 0.000000000 0.368750000 0.875000000
v 1.000000000 0.368750000 0.875000000
v 0.625000000 1.000000000 0.125000000
v 0.625000000 1.000000000 0.000000000
v 0.625000000 0.878921629 0.000000000
v 0.625000000 0.878921629 0.125000000
v 1.000000000 0.878921629 0.125000000
v 1.000000000 0.878921629 0.000000000
v 1.000000000 1.000000000 0.000000000
v 1.000000000 1.000000000 0.125000000
v 0.625000000 1.000000000 0.250000000
v 0.625000000 0.911487595 0.125000000
v 0.625000000 0.911487595 0.250000000
v 1.000000000 0.911487595 0.250000000
v 1.000000000 0.911487595 0.125000000
v 1.000000000 1.000000000 0.250000000
v 0.625000000 1.000000000 0.375000000
v 0.625000000 0.984687625 0.250000000
v 0.625000000 0.984687625 0.375000000
v 1.000000000 0.984687625 0.375000000
v 1.000000000 0.984687625 0.250000000
v 1.000000000 1.000000000 0.375000000
v 0.143977081 0.835750000 0.843750000
v 0.143977081 0.835750000 0.531250000
v 0.143977081 0.781000000 0.531250000
v 0.143977081 0.781000000 0.843750000
v 0.356022919 0.781000000 0.843750000
v 0.356022919 0.781000000 0.531250000
v 0.356022919 0.835750000 0.531250000
v 0.356022919 0.835750000 0.843750000
v 0.079043180 0.890500000 0.843750000
v 0.079043180 0.890500000 0.531250000
v 0.079043180 0.835750000 0.531250000
v 0.079043180 0.835750000 0.843750000
v 0.420956820 0.835750000 0.843750000
v 0.420956820 0.835750000 0.531250000
v 0.420956820 0.890500000 0.531250000
v 0.420956820 0.890500000 0.843750000
v 0.046981566 0.945250000 0.843750000
v 0.046981566 0.945250000 0.531250000
v 0.046981566 0.890500000 0.531250000
v 0.046981566 0.890500000 0.843750000
v 0.453018434 0.890500000 0.843750000
v 0.453018434 0.890500000 0.531250000
v 0.453018434 0.945250000 0.531250000
v 0.453018434 0.945250000 0.843750000
v 0.032717674 1.000000000 0.843750000
v 0.032717674 1.000000000 0.531250000
v 0.032717674 0.945250000 0.531250000
v 0.032717674 0.945250000 0.843750000
v 0.467282326 0.945250000 0.843750000
v 0.467282326 0.945250000 0.531250000
v 0.467282326 1.000000000 0.531250000
v 0.467282326 1.000000000 0.843750000
v 0.000000000 1.000000000 0.156250000
v 0.000000000 1.000000000 0.000000000
v 0.000000000 0.754902036 0.000000000
v 0.000000000 0.754902036 0.156250000
v 0.625000000 1.000000000 0.156250000
v 0.625000000 0.754902036 0.156250000
v 0.625000000 0.754902036 0.000000000
v 0.000000000 1.000000000 0.312500000
v 0.000000000 0.795609493 0.156250000
v 0.000000000 0.795609493 0.312500000
v 0.625000000 1.000000000 0.312500000
v 0.625000000 0.795609493 0.312500000
v 0.625000000 0.795609493 0.156250000
v 0.000000000 1.000000000 0.468750000
v 0.000000000 0.887109531 0.312500000
v 0.000000000 0.887109531 0.468750000
v 0.625000000 1.000000000 0.468750000
v 0.625000000 0.887109531 0.468750000
v 0.625000000 0.887109531 0.312500000
v 0.992187500 1.000000000 0.801562500
v 0.992187500 1.000000000 0.785937500
v 0.992187500 0.500000000 0.785937500
v 0.992187500 0.500000000 0.801562500
v 1.000000000 0.500000000 0.801562500
v 1.000000000 0.500000000 0.785937500
v 1.000000000 1.000000000 0.785937500
v 1.000000000 1.000000000 0.801562500
v 0.875000000 0.507812500 0.801562500
v 0.875000000 0.507812500 0.785937500
v 0.875000000 0.492187500 0.785937500
v 0.875000000 0.492187500 0.801562500
v 1.000000000 0.492187500 0.801562500
v 1.000000000 0.492187500 0.785937500
v 1.000000000 0.507812500 0.785937500
v 1.000000000 0.507812500 0.801562500
v 0.867187500 0.507812500 0.793750000
v 0.867187500 0.507812500 0.437500000
v 0.867187500 0.492187500 0.437500000
v 0.867187500 0.492187500 0.793750000
v 0.882812500 0.492187500 0.793750000
v 0.882812500 0.492187500 0.437500000
v 0.882812500 0.507812500 0.437500000
v 0.882812500 0.507812500 0.793750000
v 0.943750000 0.635937500 0.823437500
v 0.943750000 0.635937500 0.801562500
v 0.943750000 0.614062500 0.801562500
v 0.943750000 0.614062500 0.823437500
v 1.000000000 0.614062500 0.823437500
v 1.000000000 0.614062500 0.801562500
v 1.000000000 0.635937500 0.801562500
v 1.000000000 0.635937500 0.823437500
v 0.625000000 0.487500000 0.450000000
v 0.625000000 0.487500000 0.425000000
v 0.625000000 0.512500000 0.425000000
v 0.625000000 0.512500000 0.450000000
v 0.000000000 0.487500000 0.450000000
v 0.000000000 0.487500000 0.425000000
v 0.000000000 0.512500000 0.425000000
v 0.000000000 0.512500000 0.450000000
v 0.612500000 0.937500000 0.450000000
v 0.612500000 0.937500000 0.425000000
v 0.612500000 0.500000000 0.425000000
v 0.612500000 0.500000000 0.450000000
v 0.637500000 0.500000000 0.450000000
v 0.637500000 0.500000000 0.425000000
v 0.637500000 0.937500000 0.425000000
v 0.637500000 0.937500000 0.450000000
v 0.625000000 0.550000000 0.493750000
v 0.625000000 0.550000000 0.468750000
v 0.625000000 0.575000000 0.468750000
v 0.625000000 0.575000000 0.493750000
v 0.000000000 0.550000000 0.493750000
v 0.000000000 0.550000000 0.468750000
v 0.000000000 0.575000000 0.468750000
v 0.000000000 0.575000000 0.493750000
v 0.612500000 0.937500000 0.493750000
v 0.612500000 0.937500000 0.468750000
v 0.612500000 0.562500000 0.468750000
v 0.612500000 0.562500000 0.493750000
v 0.637500000 0.562500000 0.493750000
v 0.637500000 0.562500000 0.468750000
v 0.637500000 0.937500000 0.468750000
v 0.637500000 0.937500000 0.493750000
v 0.625000000 0.612500000 0.537500000
v 0.625000000 0.612500000 0.512500000
v 0.625000000 0.637500000 0.512500000
v 0.625000000 0.637500000 0.537500000
v 0.000000000 0.612500000 0.537500000
v 0.000000000 0.612500000 0.512500000
v 0.000000000 0.637500000 0.512500000
v 0.000000000 0.637500000 0.537500000
v 0.612500000 0.937500000 0.537500000
v 0.612500000 0.937500000 0.512500000
v 0.612500000 0.625000000 0.512500000
v 0.612500000 0.625000000 0.537500000
v 0.637500000 0.625000000 0.537500000
v 0.637500000 0.625000000 0.512500000
v 0.637500000 0.937500000 0.512500000
v 0.637500000 0.937500000 0.537500000
v 0.104763125 0.775000000 0.875000000
v 0.104763125 0.775000000 0.812500000
v 0.104763125 0.700000000 0.812500000
v 0.104763125 0.700000000 0.875000000
v 0.395236875 0.700000000 0.875000000
v 0.395236875 0.700000000 0.812500000
v 0.395236875 0.775000000 0.812500000
v 0.395236875 0.775000000 0.875000000
v 0.015812575 0.850000000 0.875000000
v 0.015812575 0.850000000 0.812500000
v 0.015812575 0.775000000 0.812500000
v 0.015812575 0.775000000 0.875000000
v 0.484187425 0.775000000 0.875000000
v 0.484187425 0.775000000 0.812500000
v 0.484187425 0.850000000 0.812500000
v 0.484187425 0.850000000 0.875000000
v 0.528107443 0.850000000 0.875000000
v 0.528107443 0.850000000 0.812500000
v 0.528107443 0.925000000 0.812500000
v 0.528107443 0.925000000 0.875000000
v 0.000000000 0.850000000 0.875000000
v 0.000000000 0.850000000 0.812500000
v 0.000000000 0.925000000 0.812500000
v 0.000000000 0.925000000 0.875000000
v 0.547647022 0.925000000 0.875000000
v 0.547647022 0.925000000 0.812500000
v 0.547647022 1.000000000 0.812500000
v 0.547647022 1.000000000 0.875000000
v 0.000000000 1.000000000 0.812500000
v 0.000000000 1.000000000 0.875000000
v 0.479625000 1.000000000 0.910000000
v 0.479625000 1.000000000 0.847500000
v 0.479625000 0.965625000 0.847500000
v 0.479625000 0.965625000 0.910000000
v 0.548375000 1.000000000 0.910000000
v 0.548375000 0.965625000 0.910000000
v 0.548375000 0.965625000 0.847500000
v 0.548375000 1.000000000 0.847500000
v 0.020375000 1.000000000 0.910000000
v 0.020375000 0.965625000 0.910000000
v 0.020375000 0.965625000 0.847500000
v 0.020375000 1.000000000 0.847500000
v 0.000000000 0.965625000 0.910000000
v 0.000000000 0.965625000 0.847500000
v 0.000000000 1.000000000 0.847500000
v 0.000000000 1.000000000 0.910000000
v 0.055744293 0.833625000 0.910000000
v 0.055744293 0.833625000 0.847500000
v 0.055744293 0.902375000 0.847500000
v 0.055744293 0.902375000 0.910000000
v 0.000000000 0.833625000 0.910000000
v 0.000000000 0.833625000 0.847500000
v 0.000000000 0.902375000 0.847500000
v 0.000000000 0.902375000 0.910000000
v 0.083625000 0.805744293 0.910000000
v 0.083625000 0.805744293 0.847500000
v 0.083625000 0.736994293 0.847500000
v 0.083625000 0.736994293 0.910000000
v 0.152375000 0.736994293 0.910000000
v 0.152375000 0.736994293 0.847500000
v 0.152375000 0.805744293 0.847500000
v 0.152375000 0.805744293 0.910000000
v 0.215625000 0.770375000 0.910000000
v 0.215625000 0.770375000 0.847500000
v 0.215625000 0.701625000 0.847500000
v 0.215625000 0.701625000 0.910000000
v 0.284375000 0.701625000 0.910000000
v 0.284375000 0.701625000 0.847500000
v 0.284375000 0.770375000 0.847500000
v 0.284375000 0.770375000 0.910000000
v 0.347625000 0.805744293 0.910000000
v 0.347625000 0.805744293 0.847500000
v 0.347625000 0.736994293 0.847500000
v 0.347625000 0.736994293 0.910000000
v 0.416375000 0.736994293 0.910000000
v 0.416375000 0.736994293 0.847500000
v 0.416375000 0.805744293 0.847500000
v 0.416375000 0.805744293 0.910000000
v 0.444255707 0.902375000 0.910000000
v 0.444255707 0.902375000 0.847500000
v 0.444255707 0.833625000 0.847500000
v 0.444255707 0.833625000 0.910000000
v 0.513005707 0.833625000 0.910000000
v 0.513005707 0.833625000 0.847500000
v 0.513005707 0.902375000 0.847500000
v 0.513005707 0.902375000 0.910000000
v 0.409375000 1.000000000 0.162500000
v 0.409375000 1.000000000 0.000000000
v 0.409375000 0.730098118 0.000000000
v 0.409375000 0.730098118 0.162500000
v 0.465625000 1.000000000 0.162500000
v 0.465625000 0.730098118 0.162500000
v 0.465625000 0.730098118 0.000000000
v 0.465625000 1.000000000 0.000000000
v 0.409375000 1.000000000 0.325000000
v 0.409375000 0.772433873 0.162500000
v 0.409375000 0.772433873 0.325000000
v 0.465625000 1.000000000 0.325000000
v 0.465625000 0.772433873 0.325000000
v 0.465625000 0.772433873 0.162500000
v 0.409375000 1.000000000 0.487500000
v 0.409375000 0.867593913 0.325000000
v 0.409375000 0.867593913 0.487500000
v 0.465625000 1.000000000 0.487500000
v 0.465625000 0.867593913 0.487500000
v 0.465625000 0.867593913 0.325000000
v 0.160000000 0.910000000 1.000000000
v 0.160000000 1.000000000 1.000000000
v 0.160000000 1.000000000 0.753750000
v 0.160000000 0.910000000 0.753750000
v 0.340000000 0.910000000 0.753750000
v 0.340000000 1.000000000 0.753750000
v 0.340000000 1.000000000 1.000000000
v 0.340000000 0.910000000 1.000000000
v 0.160000000 1.000000000 0.847500000
v 0.160000000 0.910000000 0.847500000
v 0.590000000 0.910000000 0.847500000
v 0.590000000 1.000000000 0.847500000
v 0.590000000 1.000000000 1.000000000
v 0.590000000 0.910000000 1.000000000
v 0.410000000 0.910000000 1.000000000
v 0.410000000 1.000000000 1.000000000
v 0.410000000 1.000000000 0.847500000
v 0.410000000 0.910000000 0.847500000
vt 0 0
vt 1 0
vt 1 1
vt 0 1
vn -1.000000000 -0.000000000 0.000000000
vn 0.000000000 -1.000000000 -0.000000000
vn -0.000000000 -0.000000000 -1.000000000
vn 0.000000000 0.000000000 1.000000000
vn -0.000000000 1.000000000 0.000000000
vn 1.000000000 0.000000000 -0.000000000
usemtl step_color_000
f 1/1/1 2/2/1 3/3/1 4/4/1
f 5/1/6 6/2/6 7/3/6 8/4/6
f 5/1/2 4/2/2 3/3/2 6/4/2
f 7/1/5 2/2/5 1/3/5 8/4/5
f 7/1/3 6/2/3 3/3/3 2/4/3
f 1/1/4 4/2/4 5/3/4 8/4/4
f 9/1/1 10/2/1 11/3/1 12/4/1
f 13/1/6 14/2/6 15/3/6 16/4/6
f 13/1/2 12/2/2 11/3/2 14/4/2
f 15/1/5 10/2/5 9/3/5 16/4/5
f 15/1/3 14/2/3 11/3/3 10/4/3
f 9/1/4 12/2/4 13/3/4 16/4/4
f 17/1/1 18/2/1 19/3/1 20/4/1
f 21/1/6 22/2/6 23/3/6 24/4/6
f 21/1/2 20/2/2 19/3/2 22/4/2
f 23/1/5 18/2/5 17/3/5 24/4/5
f 23/1/3 22/2/3 19/3/3 18/4/3
f 17/1/4 20/2/4 21/3/4 24/4/4
f 25/1/1 26/2/1 27/3/1 28/4/1
f 29/1/6 30/2/6 31/3/6 32/4/6
f 29/1/2 28/2/2 27/3/2 30/4/2
f 31/1/5 26/2/5 25/3/5 32/4/5
f 31/1/3 30/2/3 27/3/3 26/4/3
f 25/1/4 28/2/4 29/3/4 32/4/4
usemtl step_color_001
f 33/1/1 34/2/1 35/3/1 36/4/1
f 37/1/6 38/2/6 39/3/6 40/4/6
f 38/1/2 36/2/2 35/3/2 39/4/2
f 40/1/3 39/2/3 35/3/3 34/4/3
f 33/1/4 36/2/4 38/3/4 37/4/4
f 41/1/6 42/2/6 43/3/6 44/4/6
f 42/1/2 45/2/2 46/3/2 43/4/2
f 47/1/3 44/2/3 43/3/3 46/4/3
f 48/1/4 45/2/4 42/3/4 41/4/4
f 49/1/1 50/2/1 51/3/1 52/4/1
f 53/1/6 54/2/6 55/3/6 56/4/6
f 53/1/2 52/2/2 51/3/2 54/4/2
f 55/1/5 50/2/5 49/3/5 56/4/5
f 55/1/3 54/2/3 51/3/3 50/4/3
f 49/1/4 52/2/4 53/3/4 56/4/4
f 57/1/1 58/2/1 59/3/1 60/4/1
f 61/1/6 62/2/6 63/3/6 64/4/6
f 61/1/2 60/2/2 59/3/2 62/4/2
f 63/1/5 58/2/5 57/3/5 64/4/5
f 63/1/3 62/2/3 59/3/3 58/4/3
f 57/1/4 60/2/4 61/3/4 64/4/4
usemtl step_color_002
f 65/1/6 66/2/6 67/3/6 68/4/6
f 66/1/2 65/2/2 69/3/2 70/4/2
f 67/1/5 71/2/5 72/3/5 68/4/5
f 72/1/4 69/2/4 65/3/4 68/4/4
f 73/1/1 74/2/1 75/3/1 76/4/1
f 77/1/2 78/2/2 76/3/2 75/4/2
f 79/1/5 74/2/5 73/3/5 80/4/5
f 80/1/4 73/2/4 76/3/4 78/4/4
f 81/1/1 82/2/1 83/3/1 84/4/1
f 85/1/2 84/2/2 83/3/2 86/4/2
f 87/1/3 86/2/3 83/3/3 82/4/3
f 88/1/4 81/2/4 84/3/4 85/4/4
f 89/1/2 90/2/2 91/3/2 92/4/2
f 93/1/5 94/2/5 95/3/5 96/4/5
f 94/1/3 93/2/3 92/3/3 91/4/3
f 96/1/4 95/2/4 90/3/4 89/4/4
f 97/1/2 98/2/2 99/3/2 100/4/2
f 101/1/5 102/2/5 103/3/5 104/4/5
f 102/1/3 101/2/3 100/3/3 99/4/3
f 104/1/4 103/2/4 98/3/4 97/4/4
f 105/1/2 106/2/2 107/3/2 108/4/2
f 109/1/5 110/2/5 111/3/5 112/4/5
f 110/1/3 109/2/3 108/3/3 107/4/3
f 112/1/4 111/2/4 106/3/4 105/4/4
usemtl step_color_003
f 113/1/1 114/2/1 115/3/1 116/4/1
f 117/1/6 118/2/6 119/3/6 120/4/6
f 117/1/2 116/2/2 115/3/2 118/4/2
f 119/1/5 114/2/5 113/3/5 120/4/5
f 119/1/3 118/2/3 115/3/3 114/4/3
f 113/1/4 116/2/4 117/3/4 120/4/4
f 121/1/1 122/2/1 123/3/1 124/4/1
f 125/1/2 124/2/2 123/3/2 126/4/2
f 127/1/5 122/2/5 121/3/5 128/4/5
f 127/1/3 126/2/3 123/3/3 122/4/3
f 128/1/4 121/2/4 124/3/4 125/4/4
f 129/1/2 130/2/2 131/3/2 132/4/2
f 133/1/5 134/2/5 135/3/5 136/4/5
f 136/1/4 135/2/4 131/3/4 130/4/4
f 137/1/1 138/2/1 139/3/1 140/4/1
f 141/1/2 140/2/2 139/3/2 142/4/2
f 143/1/3 142/2/3 139/3/3 138/4/3
f 144/1/4 137/2/4 140/3/4 141/4/4
f 145/1/1 137/2/1 146/3/1 147/4/1
f 148/1/2 147/2/2 146/3/2 149/4/2
f 144/1/3 149/2/3 146/3/3 137/4/3
f 150/1/4 145/2/4 147/3/4 148/4/4
f 151/1/1 145/2/1 152/3/1 153/4/1
f 154/1/2 153/2/2 152/3/2 155/4/2
f 150/1/3 155/2/3 152/3/3 145/4/3
f 156/1/4 151/2/4 153/3/4 154/4/4
f 157/1/1 158/2/1 159/3/1 160/4/1
f 161/1/6 162/2/6 163/3/6 164/4/6
f 161/1/2 160/2/2 159/3/2 162/4/2
f 163/1/5 158/2/5 157/3/5 164/4/5
f 163/1/3 162/2/3 159/3/3 158/4/3
f 157/1/4 160/2/4 161/3/4 164/4/4
f 165/1/1 166/2/1 167/3/1 168/4/1
f 169/1/6 170/2/6 171/3/6 172/4/6
f 169/1/2 168/2/2 167/3/2 170/4/2
f 171/1/5 166/2/5 165/3/5 172/4/5
f 171/1/3 170/2/3 167/3/3 166/4/3
f 165/1/4 168/2/4 169/3/4 172/4/4
f 173/1/1 174/2/1 175/3/1 176/4/1
f 177/1/6 178/2/6 179/3/6 180/4/6
f 177/1/2 176/2/2 175/3/2 178/4/2
f 179/1/5 174/2/5 173/3/5 180/4/5
f 179/1/3 178/2/3 175/3/3 174/4/3
f 173/1/4 176/2/4 177/3/4 180/4/4
f 181/1/1 182/2/1 183/3/1 184/4/1
f 185/1/6 186/2/6 187/3/6 188/4/6
f 185/1/2 184/2/2 183/3/2 186/4/2
f 187/1/5 182/2/5 181/3/5 188/4/5
f 187/1/3 186/2/3 183/3/3 182/4/3
f 181/1/4 184/2/4 185/3/4 188/4/4
f 189/1/1 190/2/1 191/3/1 192/4/1
f 193/1/6 194/2/6 195/3/6 138/4/6
f 194/1/2 192/2/2 191/3/2 195/4/2
f 138/1/3 195/2/3 191/3/3 190/4/3
f 189/1/4 192/2/4 194/3/4 193/4/4
f 196/1/1 189/2/1 197/3/1 198/4/1
f 199/1/6 200/2/6 201/3/6 193/4/6
f 200/1/2 198/2/2 197/3/2 201/4/2
f 193/1/3 201/2/3 197/3/3 189/4/3
f 196/1/4 198/2/4 200/3/4 199/4/4
f 202/1/1 196/2/1 203/3/1 204/4/1
f 205/1/6 206/2/6 207/3/6 199/4/6
f 206/1/2 204/2/2 203/3/2 207/4/2
f 199/1/3 207/2/3 203/3/3 196/4/3
f 202/1/4 204/2/4 206/3/4 205/4/4
usemtl step_color_004
f 208/1/1 209/2/1 210/3/1 211/4/1
f 212/1/2 211/2/2 210/3/2 213/4/2
f 214/1/3 213/2/3 210/3/3 209/4/3
f 215/1/4 208/2/4 211/3/4 212/4/4
f 216/1/1 217/2/1 218/3/1 219/4/1
f 220/1/6 221/2/6 222/3/6 223/4/6
f 220/1/2 219/2/2 218/3/2 221/4/2
f 222/1/5 217/2/5 216/3/5 223/4/5
f 222/1/3 221/2/3 218/3/3 217/4/3
f 216/1/4 219/2/4 220/3/4 223/4/4
f 224/1/1 225/2/1 226/3/1 227/4/1
f 228/1/6 229/2/6 230/3/6 231/4/6
f 228/1/2 227/2/2 226/3/2 229/4/2
f 230/1/5 225/2/5 224/3/5 231/4/5
f 230/1/3 229/2/3 226/3/3 225/4/3
f 224/1/4 227/2/4 228/3/4 231/4/4
f 232/1/1 233/2/1 234/3/1 235/4/1
f 236/1/2 235/2/2 234/3/2 237/4/2
f 238/1/5 233/2/5 232/3/5 239/4/5
f 238/1/3 237/2/3 234/3/3 233/4/3
f 239/1/4 232/2/4 235/3/4 236/4/4
f 240/1/6 241/2/6 242/3/6 243/4/6
f 240/1/2 244/2/2 245/3/2 241/4/2
f 242/1/5 246/2/5 247/3/5 243/4/5
f 246/1/3 242/2/3 241/3/3 245/4/3
f 247/1/4 244/2/4 240/3/4 243/4/4
f 248/1/1 249/2/1 250/3/1 251/4/1
f 252/1/6 253/2/6 254/3/6 255/4/6
f 252/1/2 251/2/2 250/3/2 253/4/2
f 254/1/5 249/2/5 248/3/5 255/4/5
f 254/1/3 253/2/3 250/3/3 249/4/3
f 248/1/4 251/2/4 252/3/4 255/4/4
f 256/1/6 257/2/6 258/3/6 259/4/6
f 256/1/2 260/2/2 261/3/2 257/4/2
f 258/1/5 262/2/5 263/3/5 259/4/5
f 262/1/3 258/2/3 257/3/3 261/4/3
f 263/1/4 260/2/4 256/3/4 259/4/4
f 264/1/1 265/2/1 266/3/1 267/4/1
f 268/1/6 269/2/6 270/3/6 271/4/6
f 268/1/2 267/2/2 266/3/2 269/4/2
f 270/1/5 265/2/5 264/3/5 271/4/5
f 270/1/3 269/2/3 266/3/3 265/4/3
f 264/1/4 267/2/4 268/3/4 271/4/4
f 272/1/6 273/2/6 274/3/6 275/4/6
f 272/1/2 276/2/2 277/3/2 273/4/2
f 274/1/5 278/2/5 279/3/5 275/4/5
f 278/1/3 274/2/3 273/3/3 277/4/3
f 279/1/4 276/2/4 272/3/4 275/4/4
f 280/1/1 281/2/1 282/3/1 283/4/1
f 284/1/6 285/2/6 286/3/6 287/4/6
f 284/1/2 283/2/2 282/3/2 285/4/2
f 286/1/5 281/2/5 280/3/5 287/4/5
f 286/1/3 285/2/3 282/3/3 281/4/3
f 280/1/4 283/2/4 284/3/4 287/4/4
f 288/1/1 289/2/1 290/3/1 291/4/1
f 292/1/6 293/2/6 294/3/6 295/4/6
f 292/1/2 291/2/2 290/3/2 293/4/2
f 294/1/5 289/2/5 288/3/5 295/4/5
f 294/1/3 293/2/3 290/3/3 289/4/3
f 288/1/4 291/2/4 292/3/4 295/4/4
f 296/1/1 297/2/1 298/3/1 299/4/1
f 300/1/6 301/2/6 302/3/6 303/4/6
f 300/1/2 299/2/2 298/3/2 301/4/2
f 302/1/5 297/2/5 296/3/5 303/4/5
f 302/1/3 301/2/3 298/3/3 297/4/3
f 296/1/4 299/2/4 300/3/4 303/4/4
f 304/1/6 305/2/6 306/3/6 307/4/6
f 304/1/2 308/2/2 309/3/2 305/4/2
f 306/1/5 310/2/5 311/3/5 307/4/5
f 310/1/3 306/2/3 305/3/3 309/4/3
f 311/1/4 308/2/4 304/3/4 307/4/4
f 312/1/6 313/2/6 314/3/6 315/4/6
f 312/1/2 311/2/2 310/3/2 313/4/2
f 314/1/5 316/2/5 317/3/5 315/4/5
f 316/1/3 314/2/3 313/3/3 310/4/3
f 317/1/4 311/2/4 312/3/4 315/4/4
f 318/1/1 319/2/1 320/3/1 321/4/1
f 322/1/6 323/2/6 324/3/6 325/4/6
f 323/1/2 321/2/2 320/3/2 324/4/2
f 325/1/3 324/2/3 320/3/3 319/4/3
f 318/1/4 321/2/4 323/3/4 322/4/4
f 326/1/6 327/2/6 328/3/6 329/4/6
f 327/1/2 330/2/2 331/3/2 328/4/2
f 332/1/3 329/2/3 328/3/3 331/4/3
f 333/1/4 330/2/4 327/3/4 326/4/4
f 334/1/6 335/2/6 336/3/6 337/4/6
f 334/1/2 338/2/2 339/3/2 335/4/2
f 336/1/5 340/2/5 341/3/5 337/4/5
f 340/1/3 336/2/3 335/3/3 339/4/3
f 341/1/4 338/2/4 334/3/4 337/4/4
f 342/1/1 343/2/1 344/3/1 345/4/1
f 346/1/6 347/2/6 348/3/6 349/4/6
f 346/1/2 345/2/2 344/3/2 347/4/2
f 348/1/5 343/2/5 342/3/5 349/4/5
f 348/1/3 347/2/3 344/3/3 343/4/3
f 342/1/4 345/2/4 346/3/4 349/4/4
f 350/1/1 351/2/1 352/3/1 353/4/1
f 354/1/6 355/2/6 356/3/6 357/4/6
f 354/1/2 353/2/2 352/3/2 355/4/2
f 356/1/5 351/2/5 350/3/5 357/4/5
f 356/1/3 355/2/3 352/3/3 351/4/3
f 350/1/4 353/2/4 354/3/4 357/4/4
f 358/1/1 359/2/1 360/3/1 361/4/1
f 362/1/6 363/2/6 364/3/6 365/4/6
f 362/1/2 361/2/2 360/3/2 363/4/2
f 364/1/5 359/2/5 358/3/5 365/4/5
f 364/1/3 363/2/3 360/3/3 359/4/3
f 358/1/4 361/2/4 362/3/4 365/4/4
f 366/1/1 367/2/1 368/3/1 369/4/1
f 370/1/6 371/2/6 372/3/6 373/4/6
f 370/1/2 369/2/2 368/3/2 371/4/2
f 372/1/5 367/2/5 366/3/5 373/4/5
f 372/1/3 371/2/3 368/3/3 367/4/3
f 366/1/4 369/2/4 370/3/4 373/4/4
f 374/1/1 375/2/1 376/3/1 377/4/1
f 378/1/6 379/2/6 380/3/6 381/4/6
f 379/1/2 377/2/2 376/3/2 380/4/2
f 381/1/3 380/2/3 376/3/3 375/4/3
f 374/1/4 377/2/4 379/3/4 378/4/4
f 382/1/1 374/2/1 383/3/1 384/4/1
f 385/1/6 386/2/6 387/3/6 378/4/6
f 386/1/2 384/2/2 383/3/2 387/4/2
f 378/1/3 387/2/3 383/3/3 374/4/3
f 382/1/4 384/2/4 386/3/4 385/4/4
f 388/1/1 382/2/1 389/3/1 390/4/1
f 391/1/6 392/2/6 393/3/6 385/4/6
f 392/1/2 390/2/2 389/3/2 393/4/2
f 385/1/3 393/2/3 389/3/3 382/4/3
f 388/1/4 390/2/4 392/3/4 391/4/4
f 394/1/1 395/2/1 396/3/1 397/4/1
f 398/1/6 399/2/6 400/3/6 401/4/6
f 397/1/2 398/2/2 401/3/2 394/4/2
f 396/1/3 399/2/3 398/3/3 397/4/3
f 395/1/4 394/2/4 401/3/4 400/4/4
f 394/1/1 395/2/1 402/3/1 403/4/1
f 404/1/6 405/2/6 406/3/6 407/4/6
f 403/1/2 404/2/2 407/3/2 394/4/2
f 402/1/3 405/2/3 404/3/3 403/4/3
f 395/1/4 394/2/4 407/3/4 406/4/4
f 408/1/1 409/2/1 410/3/1 411/4/1
f 404/1/6 405/2/6 406/3/6 407/4/6
f 411/1/2 404/2/2 407/3/2 408/4/2
f 410/1/3 405/2/3 404/3/3 411/4/3
f 409/1/4 408/2/4 407/3/4 406/4/4
