# metre = block; Y up; per-cell coordinates; atlas UVs preserved
mtllib materials.mtl
o cell_2
usemtl pump_atlas
v 0.0000000 0.7498451 0.9499854
v 0.6745001 0.7498451 0.9499854
v 0.2727071 0.7231118 1.0000000
v 0.0000000 0.7498451 0.9499854
v 0.2727071 0.7231118 1.0000000
v 0.0000000 0.7231118 1.0000000
v 0.2727071 0.7231118 1.0000000
v 0.6745001 0.7498451 0.9499854
v 0.6745001 0.7231118 1.0000000
v 0.0000000 0.8729643 0.7999643
v 0.6745001 0.8729643 0.7999643
v 0.0000000 0.8125687 0.8735565
v 0.0000000 0.8125687 0.8735565
v 0.6745001 0.8729643 0.7999643
v 0.6745001 0.7498451 0.9499854
v 0.0000000 0.8125687 0.8735565
v 0.6745001 0.7498451 0.9499854
v 0.0000000 0.7498451 0.9499854
v 0.4638294 1.0000000 0.6957088
v 0.0000000 0.9493933 0.7372407
v 0.0000000 1.0000000 0.6957088
v 0.0000000 0.9493933 0.7372407
v 0.4638294 1.0000000 0.6957088
v 0.6745001 1.0000000 0.6957088
v 0.0000000 0.9493933 0.7372407
v 0.6745001 1.0000000 0.6957088
v 0.6745001 0.8729643 0.7999643
v 0.0000000 0.9493933 0.7372407
v 0.6745001 0.8729643 0.7999643
v 0.0000000 0.8729643 0.7999643
v 0.6745001 0.7231118 1.0000000
v 0.6745001 0.7498451 0.9499854
v 0.8175000 0.7992344 0.9829863
v 0.6745001 0.7231118 1.0000000
v 0.8175000 0.7992344 0.9829863
v 0.7998899 0.7818860 1.0000000
v 0.7998899 0.7818860 1.0000000
v 0.8175000 0.7992344 0.9829863
v 0.8175000 0.7901404 1.0000000
v 0.6745001 0.7498451 0.9499854
v 0.6745001 0.8729643 0.7999643
v 0.8175000 0.9149663 0.8419664
v 0.6745001 0.7498451 0.9499854
v 0.8175000 0.9149663 0.8419664
v 0.8175000 0.7992344 0.9829863
v 0.6745001 0.8729643 0.7999643
v 0.6745001 1.0000000 0.6957088
v 0.7737564 1.0000000 0.7487883
v 0.6745001 0.8729643 0.7999643
v 0.7737564 1.0000000 0.7487883
v 0.8175000 1.0000000 0.7721811
v 0.6745001 0.8729643 0.7999643
v 0.8175000 1.0000000 0.7721811
v 0.8175000 0.9149663 0.8419664
v 0.8175000 0.7901404 1.0000000
v 0.8175000 0.7992344 0.9829863
v 0.8248970 0.8246972 1.0000000
v 0.8175000 0.7992344 0.9829863
v 0.8175000 0.9149663 0.8419664
v 0.8465472 1.0000000 0.9270000
v 0.8175000 0.7992344 0.9829863
v 0.8465472 1.0000000 0.9270000
v 0.8574006 1.0000000 0.9974871
v 0.8175000 0.7992344 0.9829863
v 0.8574006 1.0000000 0.9974871
v 0.8577875 1.0000000 1.0000000
v 0.8175000 0.7992344 0.9829863
v 0.8577875 1.0000000 1.0000000
v 0.8248970 0.8246972 1.0000000
v 0.8175000 0.9149663 0.8419664
v 0.8175000 1.0000000 0.7721811
v 0.8349820 1.0000000 0.8653585
v 0.8175000 0.9149663 0.8419664
v 0.8349820 1.0000000 0.8653585
v 0.8465472 1.0000000 0.9270000
v 0.7020000 0.6728403 1.0000000
v 0.7020000 0.7128031 0.9252348
v 0.8230001 0.7128031 0.9252348
v 0.7020000 0.6728403 1.0000000
v 0.8230001 0.7128031 0.9252348
v 0.7724209 0.6728403 1.0000000
v 0.7724209 0.6728403 1.0000000
v 0.8230001 0.7128031 0.9252348
v 0.8230001 0.6728403 1.0000000
v 0.7020000 0.7128031 0.9252348
v 0.7020000 0.8414626 0.7684627
v 0.8230001 0.8414626 0.7684627
v 0.7020000 0.7128031 0.9252348
v 0.8230001 0.8414626 0.7684627
v 0.8230001 0.7128031 0.9252348
v 0.7020000 0.8414626 0.7684627
v 0.7020000 0.9982347 0.6398031
v 0.8230001 0.9982347 0.6398031
v 0.7020000 0.8414626 0.7684627
v 0.8230001 0.9982347 0.6398031
v 0.8230001 0.8414626 0.7684627
v 0.7020000 0.9982347 0.6398031
v 0.7020000 1.0000000 0.6388595
v 0.7031942 1.0000000 0.6388595
v 0.7020000 0.9982347 0.6398031
v 0.7031942 1.0000000 0.6388595
v 0.8230001 1.0000000 0.6388595
v 0.7020000 0.9982347 0.6398031
v 0.8230001 1.0000000 0.6388595
v 0.8230001 0.9982347 0.6398031
v 0.7020000 1.0000000 0.6388595
v 0.7020000 0.9982347 0.6398031
v 0.7020000 1.0000000 0.6456225
v 0.7020000 1.0000000 0.6456225
v 0.7020000 0.9982347 0.6398031
v 0.7020000 0.8414626 0.7684627
v 0.7020000 1.0000000 0.6456225
v 0.7020000 0.8414626 0.7684627
v 0.7020000 0.9373685 1.0000000
v 0.7020000 1.0000000 0.6456225
v 0.7020000 0.9373685 1.0000000
v 0.7020000 1.0000000 1.0000000
v 0.7020000 0.9373685 1.0000000
v 0.7020000 0.8414626 0.7684627
v 0.7020000 0.7128031 0.9252348
v 0.7020000 0.9373685 1.0000000
v 0.7020000 0.7128031 0.9252348
v 0.7020000 0.7527659 1.0000000
v 0.7020000 0.7527659 1.0000000
v 0.7020000 0.7128031 0.9252348
v 0.7020000 0.6728403 1.0000000
v 0.8230001 0.6728403 1.0000000
v 0.8230001 0.7128031 0.9252348
v 0.8230001 0.7527659 1.0000000
v 0.8230001 0.7527659 1.0000000
v 0.8230001 0.7128031 0.9252348
v 0.8230001 0.8414626 0.7684627
v 0.8230001 0.7527659 1.0000000
v 0.8230001 0.8414626 0.7684627
v 0.8230001 0.9373685 1.0000000
v 0.8230001 0.9373685 1.0000000
v 0.8230001 0.8414626 0.7684627
v 0.8230001 0.9982347 0.6398031
v 0.8230001 0.9373685 1.0000000
v 0.8230001 0.9982347 0.6398031
v 0.8230001 1.0000000 0.6456225
v 0.8230001 0.9373685 1.0000000
v 0.8230001 1.0000000 0.6456225
v 0.8230001 1.0000000 1.0000000
v 0.8230001 1.0000000 0.6456225
v 0.8230001 0.9982347 0.6398031
v 0.8230001 1.0000000 0.6388595
v 0.6976000 0.8572710 0.9802368
v 0.6668000 0.8572710 0.9802368
v 0.6668000 0.8572710 1.0000000
v 0.6976000 0.8572710 0.9802368
v 0.6668000 0.8572710 1.0000000
v 0.6817894 0.8572710 1.0000000
v 0.6976000 0.8572710 0.9802368
v 0.6817894 0.8572710 1.0000000
v 0.6976000 0.8572710 1.0000000
v 0.6976000 0.8239290 0.9609867
v 0.6668000 0.8239290 0.9609867
v 0.6668000 0.8572710 0.9802368
v 0.6976000 0.8239290 0.9609867
v 0.6668000 0.8572710 0.9802368
v 0.6976000 0.8572710 0.9802368
v 0.6976000 0.8239290 0.9609867
v 0.6976000 0.7905870 0.9802368
v 0.6668000 0.7905870 0.9802368
v 0.6976000 0.8239290 0.9609867
v 0.6668000 0.7905870 0.9802368
v 0.6668000 0.8239290 0.9609867
v 0.6976000 0.7905870 0.9802368
v 0.6976000 0.7905870 1.0000000
v 0.6817894 0.7905870 1.0000000
v 0.6976000 0.7905870 0.9802368
v 0.6817894 0.7905870 1.0000000
v 0.6668000 0.7905870 1.0000000
v 0.6976000 0.7905870 0.9802368
v 0.6668000 0.7905870 1.0000000
v 0.6668000 0.7905870 0.9802368
v 0.6976000 0.8239290 0.9609867
v 0.6976000 0.8572710 0.9802368
v 0.6976000 0.8572710 1.0000000
v 0.6976000 0.8239290 0.9609867
v 0.6976000 0.8572710 1.0000000
v 0.6976000 0.8464534 1.0000000
v 0.6976000 0.8239290 0.9609867
v 0.6976000 0.8464534 1.0000000
v 0.6976000 0.8239290 1.0000000
v 0.6976000 0.8239290 0.9609867
v 0.6976000 0.8239290 1.0000000
v 0.6976000 0.8014046 1.0000000
v 0.6976000 0.8239290 0.9609867
v 0.6976000 0.8014046 1.0000000
v 0.6976000 0.7905870 1.0000000
v 0.6976000 0.8239290 0.9609867
v 0.6976000 0.7905870 1.0000000
v 0.6976000 0.7905870 0.9802368
v 0.6668000 0.8239290 0.9609867
v 0.6668000 0.7905870 0.9802368
v 0.6668000 0.7905870 1.0000000
v 0.6668000 0.8239290 0.9609867
v 0.6668000 0.7905870 1.0000000
v 0.6668000 0.8014046 1.0000000
v 0.6668000 0.8239290 0.9609867
v 0.6668000 0.8014046 1.0000000
v 0.6668000 0.8239290 1.0000000
v 0.6668000 0.8239290 0.9609867
v 0.6668000 0.8239290 1.0000000
v 0.6668000 0.8464534 1.0000000
v 0.6668000 0.8239290 0.9609867
v 0.6668000 0.8464534 1.0000000
v 0.6668000 0.8572710 1.0000000
v 0.6668000 0.8239290 0.9609867
v 0.6668000 0.8572710 1.0000000
v 0.6668000 0.8572710 0.9802368
v 0.4138000 0.3212000 0.9112800
v 0.4269999 0.3080000 0.9112800
v 0.4269999 0.3212000 0.9244800
v 0.6646000 0.3212000 0.9244800
v 0.6646000 0.3080000 0.9112800
v 0.6777999 0.3212000 0.9112800
v 0.6646000 0.3080000 0.6076800
v 0.6646000 0.3212000 0.5944800
v 0.6777999 0.3212000 0.6076800
v 0.4138000 0.3212000 0.6076800
v 0.4269999 0.3212000 0.5944800
v 0.4269999 0.3080000 0.6076800
v 0.4269999 0.3212000 0.9244800
v 0.4269999 0.3080000 0.9112800
v 0.6646000 0.3080000 0.9112800
v 0.4269999 0.3212000 0.9244800
v 0.6646000 0.3080000 0.9112800
v 0.6646000 0.3212000 0.9244800
v 0.4138000 0.3212000 0.9112800
v 0.4138000 0.3212000 0.6076800
v 0.4269999 0.3080000 0.6076800
v 0.4138000 0.3212000 0.9112800
v 0.4269999 0.3080000 0.6076800
v 0.4269999 0.3080000 0.9112800
v 0.4269999 0.3080000 0.6076800
v 0.4269999 0.3212000 0.5944800
v 0.6646000 0.3212000 0.5944800
v 0.4269999 0.3080000 0.6076800
v 0.6646000 0.3212000 0.5944800
v 0.6646000 0.3080000 0.6076800
v 0.6646000 0.3080000 0.9112800
v 0.6646000 0.3080000 0.6076800
v 0.6777999 0.3212000 0.6076800
v 0.6646000 0.3080000 0.9112800
v 0.6777999 0.3212000 0.6076800
v 0.6777999 0.3212000 0.9112800
v 0.4138000 0.3212000 0.9112800
v 0.4269999 0.3212000 0.9244800
v 0.4269999 1.0000000 0.9244800
v 0.4138000 0.3212000 0.9112800
v 0.4269999 1.0000000 0.9244800
v 0.4258496 1.0000000 0.9233297
v 0.4138000 0.3212000 0.9112800
v 0.4258496 1.0000000 0.9233297
v 0.4138000 1.0000000 0.9112800
v 0.6646000 0.3212000 0.9244800
v 0.6777999 0.3212000 0.9112800
v 0.6777999 1.0000000 0.9112800
v 0.6646000 0.3212000 0.9244800
v 0.6777999 1.0000000 0.9112800
v 0.6766496 1.0000000 0.9124303
v 0.6646000 0.3212000 0.9244800
v 0.6766496 1.0000000 0.9124303
v 0.6646000 1.0000000 0.9244800
v 0.6646000 0.3212000 0.5944800
v 0.6646000 1.0000000 0.5944800
v 0.6766496 1.0000000 0.6065297
v 0.6646000 0.3212000 0.5944800
v 0.6766496 1.0000000 0.6065297
v 0.6777999 1.0000000 0.6076800
v 0.6646000 0.3212000 0.5944800
v 0.6777999 1.0000000 0.6076800
v 0.6777999 0.3212000 0.6076800
v 0.4138000 0.3212000 0.6076800
v 0.4138000 1.0000000 0.6076800
v 0.4258496 1.0000000 0.5956303
v 0.4138000 0.3212000 0.6076800
v 0.4258496 1.0000000 0.5956303
v 0.4269999 1.0000000 0.5944800
v 0.4138000 0.3212000 0.6076800
v 0.4269999 1.0000000 0.5944800
v 0.4269999 0.3212000 0.5944800
v 0.4269999 0.3212000 0.9244800
v 0.6646000 0.3212000 0.9244800
v 0.6646000 1.0000000 0.9244800
v 0.4269999 0.3212000 0.9244800
v 0.6646000 1.0000000 0.9244800
v 0.6438947 1.0000000 0.9244800
v 0.4269999 0.3212000 0.9244800
v 0.6438947 1.0000000 0.9244800
v 0.4269999 1.0000000 0.9244800
v 0.4269999 0.3080000 0.9112800
v 0.4269999 0.3080000 0.6076800
v 0.6646000 0.3080000 0.6076800
v 0.4269999 0.3080000 0.9112800
v 0.6646000 0.3080000 0.6076800
v 0.6646000 0.3080000 0.9112800
v 0.4138000 0.3212000 0.9112800
v 0.4138000 1.0000000 0.9112800
v 0.4138000 1.0000000 0.6341368
v 0.4138000 0.3212000 0.9112800
v 0.4138000 1.0000000 0.6341368
v 0.4138000 1.0000000 0.6076800
v 0.4138000 0.3212000 0.9112800
v 0.4138000 1.0000000 0.6076800
v 0.4138000 0.3212000 0.6076800
v 0.6777999 0.3212000 0.9112800
v 0.6777999 0.3212000 0.6076800
v 0.6777999 1.0000000 0.6076800
v 0.6777999 0.3212000 0.9112800
v 0.6777999 1.0000000 0.6076800
v 0.6777999 1.0000000 0.6341368
v 0.6777999 0.3212000 0.9112800
v 0.6777999 1.0000000 0.6341368
v 0.6777999 1.0000000 0.9112800
v 0.4269999 0.3212000 0.5944800
v 0.4269999 1.0000000 0.5944800
v 0.6438947 1.0000000 0.5944800
v 0.4269999 0.3212000 0.5944800
v 0.6438947 1.0000000 0.5944800
v 0.6646000 1.0000000 0.5944800
v 0.4269999 0.3212000 0.5944800
v 0.6646000 1.0000000 0.5944800
v 0.6646000 0.3212000 0.5944800
v 0.3092999 0.2882000 0.9827800
v 0.3225000 0.2750000 0.9827800
v 0.3225000 0.2882000 0.9959800
v 0.7691000 0.2882000 0.9959800
v 0.7691000 0.2750000 0.9827800
v 0.7823000 0.2882000 0.9827800
v 0.7691000 0.2750000 0.5361800
v 0.7691000 0.2882000 0.5229800
v 0.7823000 0.2882000 0.5361800
v 0.3092999 0.2882000 0.5361800
v 0.3225000 0.2882000 0.5229800
v 0.3225000 0.2750000 0.5361800
v 0.3092999 0.3718000 0.9827800
v 0.3225000 0.3718000 0.9959800
v 0.3225000 0.3850000 0.9827800
v 0.7691000 0.3718000 0.9959800
v 0.7823000 0.3718000 0.9827800
v 0.7691000 0.3850000 0.9827800
v 0.7691000 0.3850000 0.5361800
v 0.7823000 0.3718000 0.5361800
v 0.7691000 0.3718000 0.5229800
v 0.3092999 0.3718000 0.5361800
v 0.3225000 0.3850000 0.5361800
v 0.3225000 0.3718000 0.5229800
v 0.3225000 0.2882000 0.9959800
v 0.3225000 0.2750000 0.9827800
v 0.7691000 0.2750000 0.9827800
v 0.3225000 0.2882000 0.9959800
v 0.7691000 0.2750000 0.9827800
v 0.7691000 0.2882000 0.9959800
v 0.3092999 0.2882000 0.9827800
v 0.3092999 0.2882000 0.5361800
v 0.3225000 0.2750000 0.5361800
v 0.3092999 0.2882000 0.9827800
v 0.3225000 0.2750000 0.5361800
v 0.3225000 0.2750000 0.9827800
v 0.3225000 0.2750000 0.5361800
v 0.3225000 0.2882000 0.5229800
v 0.7691000 0.2882000 0.5229800
v 0.3225000 0.2750000 0.5361800
v 0.7691000 0.2882000 0.5229800
v 0.7691000 0.2750000 0.5361800
v 0.7691000 0.2750000 0.9827800
v 0.7691000 0.2750000 0.5361800
v 0.7823000 0.2882000 0.5361800
v 0.7691000 0.2750000 0.9827800
v 0.7823000 0.2882000 0.5361800
v 0.7823000 0.2882000 0.9827800
v 0.3092999 0.3718000 0.9827800
v 0.3225000 0.3850000 0.9827800
v 0.3225000 0.3850000 0.5361800
v 0.3092999 0.3718000 0.9827800
v 0.3225000 0.3850000 0.5361800
v 0.3092999 0.3718000 0.5361800
v 0.3225000 0.3718000 0.9959800
v 0.7691000 0.3718000 0.9959800
v 0.7691000 0.3850000 0.9827800
v 0.3225000 0.3718000 0.9959800
v 0.7691000 0.3850000 0.9827800
v 0.3225000 0.3850000 0.9827800
v 0.7691000 0.3850000 0.9827800
v 0.7823000 0.3718000 0.9827800
v 0.7823000 0.3718000 0.5361800
v 0.7691000 0.3850000 0.9827800
v 0.7823000 0.3718000 0.5361800
v 0.7691000 0.3850000 0.5361800
v 0.3225000 0.3850000 0.5361800
v 0.7691000 0.3850000 0.5361800
v 0.7691000 0.3718000 0.5229800
v 0.3225000 0.3850000 0.5361800
v 0.7691000 0.3718000 0.5229800
v 0.3225000 0.3718000 0.5229800
v 0.3092999 0.2882000 0.9827800
v 0.3225000 0.2882000 0.9959800
v 0.3225000 0.3718000 0.9959800
v 0.3092999 0.2882000 0.9827800
v 0.3225000 0.3718000 0.9959800
v 0.3092999 0.3718000 0.9827800
v 0.7691000 0.2882000 0.9959800
v 0.7823000 0.2882000 0.9827800
v 0.7823000 0.3718000 0.9827800
v 0.7691000 0.2882000 0.9959800
v 0.7823000 0.3718000 0.9827800
v 0.7691000 0.3718000 0.9959800
v 0.7691000 0.2882000 0.5229800
v 0.7691000 0.3718000 0.5229800
v 0.7823000 0.3718000 0.5361800
v 0.7691000 0.2882000 0.5229800
v 0.7823000 0.3718000 0.5361800
v 0.7823000 0.2882000 0.5361800
v 0.3092999 0.2882000 0.5361800
v 0.3092999 0.3718000 0.5361800
v 0.3225000 0.3718000 0.5229800
v 0.3092999 0.2882000 0.5361800
v 0.3225000 0.3718000 0.5229800
v 0.3225000 0.2882000 0.5229800
v 0.3225000 0.2882000 0.9959800
v 0.7691000 0.2882000 0.9959800
v 0.7691000 0.3718000 0.9959800
v 0.3225000 0.2882000 0.9959800
v 0.7691000 0.3718000 0.9959800
v 0.3225000 0.3718000 0.9959800
v 0.3225000 0.2750000 0.9827800
v 0.3225000 0.2750000 0.5361800
v 0.7691000 0.2750000 0.5361800
v 0.3225000 0.2750000 0.9827800
v 0.7691000 0.2750000 0.5361800
v 0.7691000 0.2750000 0.9827800
v 0.3092999 0.2882000 0.9827800
v 0.3092999 0.3718000 0.9827800
v 0.3092999 0.3718000 0.5361800
v 0.3092999 0.2882000 0.9827800
v 0.3092999 0.3718000 0.5361800
v 0.3092999 0.2882000 0.5361800
v 0.7823000 0.2882000 0.9827800
v 0.7823000 0.2882000 0.5361800
v 0.7823000 0.3718000 0.5361800
v 0.7823000 0.2882000 0.9827800
v 0.7823000 0.3718000 0.5361800
v 0.7823000 0.3718000 0.9827800
v 0.3225000 0.2882000 0.5229800
v 0.3225000 0.3718000 0.5229800
v 0.7691000 0.3718000 0.5229800
v 0.3225000 0.2882000 0.5229800
v 0.7691000 0.3718000 0.5229800
v 0.7691000 0.2882000 0.5229800
v 0.3225000 0.3850000 0.9827800
v 0.7691000 0.3850000 0.9827800
v 0.7691000 0.3850000 0.5361800
v 0.3225000 0.3850000 0.9827800
v 0.7691000 0.3850000 0.5361800
v 0.3225000 0.3850000 0.5361800
v 0.3863000 0.3916000 0.7880588
v 0.3863000 0.4290000 0.7880588
v 0.3698000 0.4290000 0.7594800
v 0.3863000 0.3916000 0.7880588
v 0.3698000 0.4290000 0.7594800
v 0.3698000 0.3916000 0.7594800
v 0.4193000 0.3916000 0.7880588
v 0.4193000 0.4290000 0.7880588
v 0.3863000 0.4290000 0.7880588
v 0.4193000 0.3916000 0.7880588
v 0.3863000 0.4290000 0.7880588
v 0.3863000 0.3916000 0.7880588
v 0.4358000 0.3916000 0.7594800
v 0.4358000 0.4290000 0.7594800
v 0.4193000 0.4290000 0.7880588
v 0.4358000 0.3916000 0.7594800
v 0.4193000 0.4290000 0.7880588
v 0.4193000 0.3916000 0.7880588
v 0.4358000 0.3916000 0.7594800
v 0.4193000 0.3916000 0.7309012
v 0.4193000 0.4290000 0.7309012
v 0.4358000 0.3916000 0.7594800
v 0.4193000 0.4290000 0.7309012
v 0.4358000 0.4290000 0.7594800
v 0.4193000 0.3916000 0.7309012
v 0.3863000 0.3916000 0.7309012
v 0.3863000 0.4290000 0.7309012
v 0.4193000 0.3916000 0.7309012
v 0.3863000 0.4290000 0.7309012
v 0.4193000 0.4290000 0.7309012
v 0.3863000 0.3916000 0.7309012
v 0.3698000 0.3916000 0.7594800
v 0.3698000 0.4290000 0.7594800
v 0.3863000 0.3916000 0.7309012
v 0.3698000 0.4290000 0.7594800
v 0.3863000 0.4290000 0.7309012
v 0.4358000 0.3916000 0.7594800
v 0.4193000 0.3916000 0.7880588
v 0.3863000 0.3916000 0.7880588
v 0.4358000 0.3916000 0.7594800
v 0.3863000 0.3916000 0.7880588
v 0.3698000 0.3916000 0.7594800
v 0.4358000 0.3916000 0.7594800
v 0.3698000 0.3916000 0.7594800
v 0.3863000 0.3916000 0.7309012
v 0.4358000 0.3916000 0.7594800
v 0.3863000 0.3916000 0.7309012
v 0.4193000 0.3916000 0.7309012
v 0.4358000 0.4290000 0.7594800
v 0.4193000 0.4290000 0.7309012
v 0.3863000 0.4290000 0.7309012
v 0.4358000 0.4290000 0.7594800
v 0.3863000 0.4290000 0.7309012
v 0.3698000 0.4290000 0.7594800
v 0.4358000 0.4290000 0.7594800
v 0.3698000 0.4290000 0.7594800
v 0.3863000 0.4290000 0.7880588
v 0.4358000 0.4290000 0.7594800
v 0.3863000 0.4290000 0.7880588
v 0.4193000 0.4290000 0.7880588
v 0.6723000 0.3916000 0.7880588
v 0.6723000 0.4290000 0.7880588
v 0.6558000 0.4290000 0.7594800
v 0.6723000 0.3916000 0.7880588
v 0.6558000 0.4290000 0.7594800
v 0.6558000 0.3916000 0.7594800
v 0.7053000 0.3916000 0.7880588
v 0.7053000 0.4290000 0.7880588
v 0.6723000 0.4290000 0.7880588
v 0.7053000 0.3916000 0.7880588
v 0.6723000 0.4290000 0.7880588
v 0.6723000 0.3916000 0.7880588
v 0.7218000 0.3916000 0.7594800
v 0.7218000 0.4290000 0.7594800
v 0.7053000 0.4290000 0.7880588
v 0.7218000 0.3916000 0.7594800
v 0.7053000 0.4290000 0.7880588
v 0.7053000 0.3916000 0.7880588
v 0.7218000 0.3916000 0.7594800
v 0.7053000 0.3916000 0.7309012
v 0.7053000 0.4290000 0.7309012
v 0.7218000 0.3916000 0.7594800
v 0.7053000 0.4290000 0.7309012
v 0.7218000 0.4290000 0.7594800
v 0.7053000 0.3916000 0.7309012
v 0.6723000 0.3916000 0.7309012
v 0.6723000 0.4290000 0.7309012
v 0.7053000 0.3916000 0.7309012
v 0.6723000 0.4290000 0.7309012
v 0.7053000 0.4290000 0.7309012
v 0.6723000 0.3916000 0.7309012
v 0.6558000 0.3916000 0.7594800
v 0.6558000 0.4290000 0.7594800
v 0.6723000 0.3916000 0.7309012
v 0.6558000 0.4290000 0.7594800
v 0.6723000 0.4290000 0.7309012
v 0.7218000 0.3916000 0.7594800
v 0.7053000 0.3916000 0.7880588
v 0.6723000 0.3916000 0.7880588
v 0.7218000 0.3916000 0.7594800
v 0.6723000 0.3916000 0.7880588
v 0.6558000 0.3916000 0.7594800
v 0.7218000 0.3916000 0.7594800
v 0.6558000 0.3916000 0.7594800
v 0.6723000 0.3916000 0.7309012
v 0.7218000 0.3916000 0.7594800
v 0.6723000 0.3916000 0.7309012
v 0.7053000 0.3916000 0.7309012
v 0.7218000 0.4290000 0.7594800
v 0.7053000 0.4290000 0.7309012
v 0.6723000 0.4290000 0.7309012
v 0.7218000 0.4290000 0.7594800
v 0.6723000 0.4290000 0.7309012
v 0.6558000 0.4290000 0.7594800
v 0.7218000 0.4290000 0.7594800
v 0.6558000 0.4290000 0.7594800
v 0.6723000 0.4290000 0.7880588
v 0.7218000 0.4290000 0.7594800
v 0.6723000 0.4290000 0.7880588
v 0.7053000 0.4290000 0.7880588
v 0.0000000 0.0000000 0.3428000
v 1.0000000 0.0000000 0.3428000
v 1.0000000 0.0083710 0.3511710
v 0.0000000 0.0000000 0.3428000
v 1.0000000 0.0083710 0.3511710
v 0.0000000 0.0101419 0.3529420
v 0.0000000 0.0101419 0.3529420
v 1.0000000 0.0083710 0.3511710
v 1.0000000 0.0132000 0.3560001
v 0.0000000 0.0101419 0.3529420
v 1.0000000 0.0132000 0.3560001
v 0.0000000 0.0132000 0.3560001
v 0.0000000 0.0132000 0.0700001
v 1.0000000 0.0132000 0.0700001
v 1.0000000 0.0048290 0.0783711
v 0.0000000 0.0132000 0.0700001
v 1.0000000 0.0048290 0.0783711
v 0.0000000 0.0030581 0.0801420
v 0.0000000 0.0030581 0.0801420
v 1.0000000 0.0048290 0.0783711
v 1.0000000 0.0000000 0.0832001
v 0.0000000 0.0030581 0.0801420
v 1.0000000 0.0000000 0.0832001
v 0.0000000 0.0000000 0.0832001
v 0.0000000 0.2728000 0.3560001
v 1.0000000 0.2728000 0.3560001
v 1.0000000 0.2776290 0.3511710
v 0.0000000 0.2728000 0.3560001
v 1.0000000 0.2776290 0.3511710
v 0.0000000 0.2758581 0.3529420
v 0.0000000 0.2758581 0.3529420
v 1.0000000 0.2776290 0.3511710
v 1.0000000 0.2860000 0.3428000
v 0.0000000 0.2758581 0.3529420
v 1.0000000 0.2860000 0.3428000
v 0.0000000 0.2860000 0.3428000
v 0.0000000 0.2860000 0.0832001
v 1.0000000 0.2860000 0.0832001
v 1.0000000 0.2811710 0.0783711
v 0.0000000 0.2860000 0.0832001
v 1.0000000 0.2811710 0.0783711
v 0.0000000 0.2829419 0.0801420
v 0.0000000 0.2829419 0.0801420
v 1.0000000 0.2811710 0.0783711
v 1.0000000 0.2728000 0.0700001
v 0.0000000 0.2829419 0.0801420
v 1.0000000 0.2728000 0.0700001
v 0.0000000 0.2728000 0.0700001
v 0.0000000 0.0132000 0.3560001
v 1.0000000 0.0132000 0.3560001
v 1.0000000 0.1081712 0.3560001
v 0.0000000 0.0132000 0.3560001
v 1.0000000 0.1081712 0.3560001
v 0.0000000 0.0733424 0.3560001
v 0.0000000 0.0733424 0.3560001
v 1.0000000 0.1081712 0.3560001
v 1.0000000 0.2728000 0.3560001
v 0.0000000 0.0733424 0.3560001
v 1.0000000 0.2728000 0.3560001
v 0.0000000 0.2728000 0.3560001
v 0.0000000 0.0000000 0.0832001
v 1.0000000 0.0000000 0.0832001
v 1.0000000 0.0000000 0.2478288
v 0.0000000 0.0000000 0.0832001
v 1.0000000 0.0000000 0.2478288
v 0.0000000 0.0000000 0.2826576
v 0.0000000 0.0000000 0.2826576
v 1.0000000 0.0000000 0.2478288
v 1.0000000 0.0000000 0.3428000
v 0.0000000 0.0000000 0.2826576
v 1.0000000 0.0000000 0.3428000
v 0.0000000 0.0000000 0.3428000
v 0.0000000 0.2728000 0.0700001
v 1.0000000 0.2728000 0.0700001
v 1.0000000 0.1081712 0.0700001
v 0.0000000 0.2728000 0.0700001
v 1.0000000 0.1081712 0.0700001
v 0.0000000 0.0733424 0.0700001
v 0.0000000 0.0733424 0.0700001
v 1.0000000 0.1081712 0.0700001
v 1.0000000 0.0132000 0.0700001
v 0.0000000 0.0733424 0.0700001
v 1.0000000 0.0132000 0.0700001
v 0.0000000 0.0132000 0.0700001
v 0.0000000 0.2860000 0.3428000
v 1.0000000 0.2860000 0.3428000
v 1.0000000 0.2860000 0.2478288
v 0.0000000 0.2860000 0.3428000
v 1.0000000 0.2860000 0.2478288
v 0.0000000 0.2860000 0.2826576
v 0.0000000 0.2860000 0.2826576
v 1.0000000 0.2860000 0.2478288
v 1.0000000 0.2860000 0.0832001
v 0.0000000 0.2860000 0.2826576
v 1.0000000 0.2860000 0.0832001
v 0.0000000 0.2860000 0.0832001
v 0.0000000 0.1969000 0.1359999
v 1.0000000 0.1969000 0.1359999
v 1.0000000 0.1905950 0.1423049
v 0.0000000 0.1969000 0.1359999
v 1.0000000 0.1905950 0.1423049
v 0.0000000 0.1892400 0.1436599
v 0.0000000 0.1892400 0.1436599
v 1.0000000 0.1905950 0.1423049
v 1.0000000 0.1870000 0.1458999
v 0.0000000 0.1892400 0.1436599
v 1.0000000 0.1870000 0.1458999
v 0.0000000 0.1870000 0.1458999
v 0.0000000 0.2420000 0.1458999
v 1.0000000 0.2420000 0.1458999
v 1.0000000 0.2384050 0.1423049
v 0.0000000 0.2420000 0.1458999
v 1.0000000 0.2384050 0.1423049
v 0.0000000 0.2397600 0.1436599
v 0.0000000 0.2397600 0.1436599
v 1.0000000 0.2384050 0.1423049
v 1.0000000 0.2321000 0.1359999
v 0.0000000 0.2397600 0.1436599
v 1.0000000 0.2321000 0.1359999
v 0.0000000 0.2321000 0.1359999
v 0.0000000 0.1870000 0.1458999
v 1.0000000 0.1870000 0.1458999
v 1.0000000 0.1870000 1.0000000
v 0.0000000 0.1870000 0.1458999
v 1.0000000 0.1870000 1.0000000
v 0.0000000 0.1870000 1.0000000
v 0.0000000 0.2321000 0.1359999
v 1.0000000 0.2321000 0.1359999
v 1.0000000 0.2096822 0.1359999
v 0.0000000 0.2321000 0.1359999
v 1.0000000 0.2096822 0.1359999
v 0.0000000 0.2048643 0.1359999
v 0.0000000 0.2048643 0.1359999
v 1.0000000 0.2096822 0.1359999
v 1.0000000 0.1969000 0.1359999
v 0.0000000 0.2048643 0.1359999
v 1.0000000 0.1969000 0.1359999
v 0.0000000 0.1969000 0.1359999
v 1.0000000 0.2420000 1.0000000
v 1.0000000 0.2420000 0.1458999
v 0.0000000 0.2420000 0.1458999
v 1.0000000 0.2420000 1.0000000
v 0.0000000 0.2420000 0.1458999
v 0.0000000 0.2420000 1.0000000
vt 0.3147598 0.0950529
vt 0.3583097 0.0950529
vt 0.3323675 0.0920928
vt 0.3147598 0.0950529
vt 0.3323675 0.0920928
vt 0.3147598 0.0920928
vt 0.3323675 0.0920928
vt 0.3583097 0.0950529
vt 0.3583097 0.0920928
vt 0.3147598 0.1039320
vt 0.3583097 0.1039320
vt 0.3147598 0.0995764
vt 0.3147598 0.0995764
vt 0.3583097 0.1039320
vt 0.3583097 0.0950529
vt 0.3147598 0.0995764
vt 0.3583097 0.0950529
vt 0.3147598 0.0950529
vt 0.3447075 0.0285867
vt 0.3147598 0.0255915
vt 0.3147598 0.0285867
vt 0.3147598 0.0255915
vt 0.3447075 0.0285867
vt 0.3583097 0.0285867
vt 0.3147598 0.0255915
vt 0.3583097 0.0285867
vt 0.3583097 0.0210680
vt 0.3147598 0.0255915
vt 0.3583097 0.0210680
vt 0.3147598 0.0210680
vt 0.3583097 0.0920928
vt 0.3583097 0.0950529
vt 0.3675426 0.0930998
vt 0.3583097 0.0920928
vt 0.3675426 0.0930998
vt 0.3664056 0.0920928
vt 0.3664056 0.0920928
vt 0.3675426 0.0930998
vt 0.3675426 0.0920928
vt 0.3583097 0.0950529
vt 0.3583097 0.1039320
vt 0.3675426 0.1014461
vt 0.3583097 0.0950529
vt 0.3675426 0.1014461
vt 0.3675426 0.0930998
vt 0.3583097 0.0210680
vt 0.3583097 0.0285867
vt 0.3647183 0.0285866
vt 0.3583097 0.0210680
vt 0.3647183 0.0285866
vt 0.3675426 0.0285866
vt 0.3583097 0.0210680
vt 0.3675426 0.0285866
vt 0.3675426 0.0235539
vt 0.3420928 0.0161660
vt 0.3430998 0.0167042
vt 0.3420928 0.0182112
vt 0.3430998 0.0167042
vt 0.3514461 0.0235539
vt 0.3464133 0.0285867
vt 0.3430998 0.0167042
vt 0.3464133 0.0285867
vt 0.3422415 0.0285867
vt 0.3430998 0.0167042
vt 0.3422415 0.0285867
vt 0.3420928 0.0285867
vt 0.3430998 0.0167042
vt 0.3420928 0.0285867
vt 0.3420928 0.0182112
vt 0.3514461 0.0235539
vt 0.3555764 0.0285866
vt 0.3500616 0.0285867
vt 0.3514461 0.0235539
vt 0.3500616 0.0285867
vt 0.3464133 0.0285867
vt 0.2539062 0.0908185
vt 0.2539062 0.0950529
vt 0.3710938 0.0950529
vt 0.2539062 0.0908185
vt 0.3710938 0.0950529
vt 0.3221083 0.0908185
vt 0.3221083 0.0908185
vt 0.3710938 0.0950529
vt 0.3710938 0.0908185
vt 0.2539062 0.0950529
vt 0.2539062 0.1039320
vt 0.3710938 0.1039320
vt 0.2539062 0.0950529
vt 0.3710938 0.1039320
vt 0.3710938 0.0950529
vt 0.2539062 0.0210680
vt 0.2539062 0.0299471
vt 0.3710938 0.0299471
vt 0.2539062 0.0210680
vt 0.3710938 0.0299471
vt 0.3710938 0.0210680
vt 0.2539062 0.0299471
vt 0.2539062 0.0300471
vt 0.2550628 0.0300471
vt 0.2539062 0.0299471
vt 0.2550628 0.0300471
vt 0.3710938 0.0300471
vt 0.2539062 0.0299471
vt 0.3710938 0.0300471
vt 0.3710938 0.0299471
vt 0.3612723 0.0300471
vt 0.3612189 0.0299471
vt 0.3608893 0.0300471
vt 0.3608893 0.0300471
vt 0.3612189 0.0299471
vt 0.3539320 0.0210680
vt 0.3608893 0.0300471
vt 0.3539320 0.0210680
vt 0.3408184 0.0264998
vt 0.3608893 0.0300471
vt 0.3408184 0.0264998
vt 0.3408184 0.0300471
vt 0.3408184 0.0264998
vt 0.3539320 0.0210680
vt 0.3450530 0.0137811
vt 0.3408184 0.0264998
vt 0.3450530 0.0137811
vt 0.3408185 0.0160445
vt 0.3408185 0.0160445
vt 0.3450530 0.0137811
vt 0.3408185 0.0115177
vt 0.3408185 0.0115177
vt 0.3450530 0.0137811
vt 0.3408185 0.0160445
vt 0.3408185 0.0160445
vt 0.3450530 0.0137811
vt 0.3539320 0.0210680
vt 0.3408185 0.0160445
vt 0.3539320 0.0210680
vt 0.3408184 0.0264998
vt 0.3408184 0.0264998
vt 0.3539320 0.0210680
vt 0.3612189 0.0299471
vt 0.3408184 0.0264998
vt 0.3612189 0.0299471
vt 0.3608893 0.0300471
vt 0.3408184 0.0264998
vt 0.3608893 0.0300471
vt 0.3408184 0.0300471
vt 0.3608893 0.0300471
vt 0.3612189 0.0299471
vt 0.3612723 0.0300471
vt 0.9082031 0.0039062
vt 0.9082031 0.1210938
vt 0.9382811 0.1210938
vt 0.9082031 0.0039062
vt 0.9382811 0.1210938
vt 0.9382811 0.0640623
vt 0.9082031 0.0039062
vt 0.9382811 0.0640623
vt 0.9382811 0.0039062
vt 0.9375000 0.0039062
vt 0.9375000 0.1210938
vt 0.9960938 0.1210938
vt 0.9375000 0.0039062
vt 0.9960938 0.1210938
vt 0.9960938 0.0039062
vt 0.9375000 0.0039062
vt 0.8789062 0.0039062
vt 0.8789062 0.1210938
vt 0.9375000 0.0039062
vt 0.8789062 0.1210938
vt 0.9375000 0.1210938
vt 0.9082031 0.0039062
vt 0.9382811 0.0039062
vt 0.9382811 0.0640623
vt 0.9082031 0.0039062
vt 0.9382811 0.0640623
vt 0.9382811 0.1210938
vt 0.9082031 0.0039062
vt 0.9382811 0.1210938
vt 0.9082031 0.1210938
vt 0.8789062 0.0625000
vt 0.9082031 0.1210938
vt 0.9382811 0.1210938
vt 0.8789062 0.0625000
vt 0.9382811 0.1210938
vt 0.9382812 0.1020833
vt 0.8789062 0.0625000
vt 0.9382812 0.1020833
vt 0.9382811 0.0625000
vt 0.8789062 0.0625000
vt 0.9382811 0.0625000
vt 0.9382812 0.0229167
vt 0.8789062 0.0625000
vt 0.9382812 0.0229167
vt 0.9382811 0.0039062
vt 0.8789062 0.0625000
vt 0.9382811 0.0039062
vt 0.9082031 0.0039062
vt 0.8789062 0.0625000
vt 0.9082031 0.0039062
vt 0.9382811 0.0039062
vt 0.8789062 0.0625000
vt 0.9382811 0.0039062
vt 0.9382812 0.0229167
vt 0.8789062 0.0625000
vt 0.9382812 0.0229167
vt 0.9382811 0.0625000
vt 0.8789062 0.0625000
vt 0.9382811 0.0625000
vt 0.9382812 0.1020833
vt 0.8789062 0.0625000
vt 0.9382812 0.1020833
vt 0.9382811 0.1210938
vt 0.8789062 0.0625000
vt 0.9382811 0.1210938
vt 0.9082031 0.1210938
vt 0.2574219 0.0065848
vt 0.2594727 0.0074219
vt 0.2583008 0.0059152
vt 0.3652344 0.0054129
vt 0.3652343 0.0085937
vt 0.3710938 0.0077009
vt 0.3652344 0.0039062
vt 0.3652344 0.0059152
vt 0.3679687 0.0059152
vt 0.3664063 0.0059152
vt 0.3710938 0.0059152
vt 0.3664063 0.0039062
vt 0.2583008 0.0059152
vt 0.2594727 0.0074219
vt 0.3652343 0.0085937
vt 0.2583008 0.0059152
vt 0.3652343 0.0085937
vt 0.3652344 0.0054129
vt 0.2574219 0.0065848
vt 0.2539062 0.1164063
vt 0.2597656 0.1164062
vt 0.2574219 0.0065848
vt 0.2597656 0.1164062
vt 0.2594727 0.0074219
vt 0.2597656 0.1164062
vt 0.2597656 0.1210937
vt 0.3652344 0.1210938
vt 0.2597656 0.1164062
vt 0.3652344 0.1210938
vt 0.3652343 0.1164062
vt 0.3652343 0.0085937
vt 0.3652343 0.1164062
vt 0.3710938 0.1164063
vt 0.3652343 0.0085937
vt 0.3710938 0.1164063
vt 0.3710938 0.0077009
vt 0.2574219 0.0065848
vt 0.2583008 0.0059152
vt 0.2583008 0.1092228
vt 0.2574219 0.0065848
vt 0.2583008 0.1092228
vt 0.2582242 0.1092811
vt 0.2574219 0.0065848
vt 0.2582242 0.1092811
vt 0.2584916 0.1092811
vt 0.3652344 0.0054129
vt 0.3710938 0.0077009
vt 0.3710938 0.1093784
vt 0.3652344 0.0054129
vt 0.3710938 0.1093784
vt 0.3705832 0.1091790
vt 0.3652344 0.0054129
vt 0.3705832 0.1091790
vt 0.3652344 0.1091790
vt 0.3652344 0.0059152
vt 0.3652344 0.1092228
vt 0.3673739 0.1092228
vt 0.3652344 0.0059152
vt 0.3673739 0.1092228
vt 0.3676121 0.1092228
vt 0.3652344 0.0059152
vt 0.3676121 0.1092228
vt 0.3679687 0.0059152
vt 0.3664063 0.0059152
vt 0.3664062 0.1092228
vt 0.3706853 0.1092228
vt 0.3664063 0.0059152
vt 0.3706853 0.1092228
vt 0.3710938 0.1092228
vt 0.3664063 0.0059152
vt 0.3710938 0.1092228
vt 0.3710938 0.0059152
vt 0.2583008 0.0059152
vt 0.3652344 0.0054129
vt 0.3652344 0.1091790
vt 0.2583008 0.0059152
vt 0.3652344 0.1091790
vt 0.3559158 0.1092228
vt 0.2583008 0.0059152
vt 0.3559158 0.1092228
vt 0.2583008 0.1092228
vt 0.2594727 0.0074219
vt 0.2597656 0.1164062
vt 0.3652343 0.1164062
vt 0.2594727 0.0074219
vt 0.3652343 0.1164062
vt 0.3652343 0.0085937
vt 0.2574219 0.0065848
vt 0.2584916 0.1092811
vt 0.3569089 0.1092811
vt 0.2574219 0.0065848
vt 0.3569089 0.1092811
vt 0.3664062 0.1092228
vt 0.2574219 0.0065848
vt 0.3664062 0.1092228
vt 0.3664063 0.0059152
vt 0.2585937 0.0059152
vt 0.3679687 0.0059152
vt 0.3676121 0.1092228
vt 0.2585937 0.0059152
vt 0.3676121 0.1092228
vt 0.3580808 0.1092228
vt 0.2585937 0.0059152
vt 0.3580808 0.1092228
vt 0.2585937 0.1092228
vt 0.2597656 0.0059152
vt 0.2597657 0.1092228
vt 0.3560435 0.1092228
vt 0.2597656 0.0059152
vt 0.3560435 0.1092228
vt 0.3652344 0.1092228
vt 0.2597656 0.0059152
vt 0.3652344 0.1092228
vt 0.3652344 0.0059152
vt 0.2563590 0.0152707
vt 0.2571766 0.0063590
vt 0.2563590 0.0179687
vt 0.3678234 0.0144531
vt 0.3678234 0.0071766
vt 0.3710938 0.0107740
vt 0.3678234 0.0039062
vt 0.3678234 0.0179687
vt 0.3689135 0.0179688
vt 0.3678234 0.0179687
vt 0.3710938 0.0179688
vt 0.3678234 0.0039062
vt 0.2571766 0.1070313
vt 0.2563590 0.1070312
vt 0.2571766 0.1210938
vt 0.3678234 0.1070313
vt 0.3710938 0.1070312
vt 0.3678234 0.1210938
vt 0.3678234 0.1194586
vt 0.3686410 0.1070313
vt 0.3678234 0.1070312
vt 0.3678234 0.1070312
vt 0.3678234 0.1210938
vt 0.3710938 0.1070312
vt 0.2563590 0.0179687
vt 0.2571766 0.0063590
vt 0.3678234 0.0071766
vt 0.2563590 0.0179687
vt 0.3678234 0.0071766
vt 0.3678234 0.0144531
vt 0.2563590 0.0152707
vt 0.2539062 0.1178234
vt 0.2571766 0.1178234
vt 0.2563590 0.0152707
vt 0.2571766 0.1178234
vt 0.2571766 0.0063590
vt 0.2571766 0.1178234
vt 0.2571766 0.1210938
vt 0.3678234 0.1210938
vt 0.2571766 0.1178234
vt 0.3678234 0.1210938
vt 0.3678234 0.1178234
vt 0.3678234 0.0071766
vt 0.3678234 0.1178234
vt 0.3710938 0.1178234
vt 0.3678234 0.0071766
vt 0.3710938 0.1178234
vt 0.3710938 0.0107740
vt 0.2571766 0.1070313
vt 0.2571766 0.1210938
vt 0.3678234 0.1210938
vt 0.2571766 0.1070313
vt 0.3678234 0.1210938
vt 0.3678234 0.1070312
vt 0.2563590 0.1070312
vt 0.3678234 0.1070313
vt 0.3678234 0.1210938
vt 0.2563590 0.1070312
vt 0.3678234 0.1210938
vt 0.2571766 0.1210938
vt 0.2571766 0.1210938
vt 0.2571766 0.1070312
vt 0.3686410 0.1070313
vt 0.2571766 0.1210938
vt 0.3686410 0.1070313
vt 0.3678234 0.1194586
vt 0.2571766 0.1178234
vt 0.3678234 0.1194586
vt 0.3678234 0.1070312
vt 0.2571766 0.1178234
vt 0.3678234 0.1070312
vt 0.2571766 0.1070313
vt 0.2563590 0.0152707
vt 0.2563590 0.0179687
vt 0.2563590 0.1070312
vt 0.2563590 0.0152707
vt 0.2563590 0.1070312
vt 0.2571766 0.1070313
vt 0.3678234 0.0144531
vt 0.3710938 0.0107740
vt 0.3710938 0.1070312
vt 0.3678234 0.0144531
vt 0.3710938 0.1070312
vt 0.3678234 0.1070313
vt 0.3678234 0.0179687
vt 0.3678234 0.1070312
vt 0.3686410 0.1070313
vt 0.3678234 0.0179687
vt 0.3686410 0.1070313
vt 0.3689135 0.0179688
vt 0.3678234 0.0179687
vt 0.3678234 0.1070312
vt 0.3710938 0.1070312
vt 0.3678234 0.0179687
vt 0.3710938 0.1070312
vt 0.3710938 0.0179688
vt 0.2563590 0.0179687
vt 0.3678234 0.0144531
vt 0.3678234 0.1070313
vt 0.2563590 0.0179687
vt 0.3678234 0.1070313
vt 0.2563590 0.1070312
vt 0.2571766 0.0063590
vt 0.2571766 0.1178234
vt 0.3678234 0.1178234
vt 0.2571766 0.0063590
vt 0.3678234 0.1178234
vt 0.3678234 0.0071766
vt 0.2563590 0.0152707
vt 0.2571766 0.1070313
vt 0.3678234 0.1070312
vt 0.2563590 0.0152707
vt 0.3678234 0.1070312
vt 0.3678234 0.0179687
vt 0.2571766 0.0179687
vt 0.3689135 0.0179688
vt 0.3686410 0.1070313
vt 0.2571766 0.0179687
vt 0.3686410 0.1070313
vt 0.2571766 0.1070312
vt 0.2571766 0.0179687
vt 0.2571766 0.1070313
vt 0.3678234 0.1070312
vt 0.2571766 0.0179687
vt 0.3678234 0.1070312
vt 0.3678234 0.0179687
vt 0.2571766 0.0071766
vt 0.3678234 0.0071766
vt 0.3678234 0.1194586
vt 0.2571766 0.0071766
vt 0.3678234 0.1194586
vt 0.2571766 0.1178234
vt 0.9960938 0.0039062
vt 0.9960938 0.1210938
vt 0.9375000 0.1210938
vt 0.9960938 0.0039062
vt 0.9375000 0.1210938
vt 0.9375000 0.0039062
vt 0.9082031 0.0039062
vt 0.9082031 0.1210938
vt 0.9667969 0.1210938
vt 0.9082031 0.0039062
vt 0.9667969 0.1210938
vt 0.9667969 0.0039062
vt 0.9375000 0.0039062
vt 0.9375000 0.1210938
vt 0.9960938 0.1210938
vt 0.9375000 0.0039062
vt 0.9960938 0.1210938
vt 0.9960938 0.0039062
vt 0.9375000 0.0039062
vt 0.8789062 0.0039062
vt 0.8789062 0.1210938
vt 0.9375000 0.0039062
vt 0.8789062 0.1210938
vt 0.9375000 0.1210938
vt 0.9082031 0.0039062
vt 0.9667969 0.0039062
vt 0.9667969 0.1210938
vt 0.9082031 0.0039062
vt 0.9667969 0.1210938
vt 0.9082031 0.1210938
vt 0.8789062 0.0039062
vt 0.9375000 0.0039062
vt 0.9375000 0.1210938
vt 0.8789062 0.0039062
vt 0.9375000 0.1210938
vt 0.8789062 0.1210938
vt 0.8789062 0.0625000
vt 0.9082031 0.1210938
vt 0.9667969 0.1210938
vt 0.8789062 0.0625000
vt 0.9667969 0.1210938
vt 0.9960938 0.0625000
vt 0.8789062 0.0625000
vt 0.9960938 0.0625000
vt 0.9667969 0.0039062
vt 0.8789062 0.0625000
vt 0.9667969 0.0039062
vt 0.9082031 0.0039062
vt 0.8789062 0.0625000
vt 0.9082031 0.0039062
vt 0.9667969 0.0039062
vt 0.8789062 0.0625000
vt 0.9667969 0.0039062
vt 0.9960938 0.0625000
vt 0.8789062 0.0625000
vt 0.9960938 0.0625000
vt 0.9667969 0.1210938
vt 0.8789062 0.0625000
vt 0.9667969 0.1210938
vt 0.9082031 0.1210938
vt 0.9960938 0.0039062
vt 0.9960938 0.1210938
vt 0.9375000 0.1210938
vt 0.9960938 0.0039062
vt 0.9375000 0.1210938
vt 0.9375000 0.0039062
vt 0.9082031 0.0039062
vt 0.9082031 0.1210938
vt 0.9667969 0.1210938
vt 0.9082031 0.0039062
vt 0.9667969 0.1210938
vt 0.9667969 0.0039062
vt 0.9375000 0.0039062
vt 0.9375000 0.1210938
vt 0.9960938 0.1210938
vt 0.9375000 0.0039062
vt 0.9960938 0.1210938
vt 0.9960938 0.0039062
vt 0.9375000 0.0039062
vt 0.8789062 0.0039062
vt 0.8789062 0.1210938
vt 0.9375000 0.0039062
vt 0.8789062 0.1210938
vt 0.9375000 0.1210938
vt 0.9082031 0.0039062
vt 0.9667969 0.0039062
vt 0.9667969 0.1210938
vt 0.9082031 0.0039062
vt 0.9667969 0.1210938
vt 0.9082031 0.1210938
vt 0.8789062 0.0039062
vt 0.9375000 0.0039062
vt 0.9375000 0.1210938
vt 0.8789062 0.0039062
vt 0.9375000 0.1210938
vt 0.8789062 0.1210938
vt 0.8789062 0.0625000
vt 0.9082031 0.1210938
vt 0.9667969 0.1210938
vt 0.8789062 0.0625000
vt 0.9667969 0.1210938
vt 0.9960938 0.0625000
vt 0.8789062 0.0625000
vt 0.9960938 0.0625000
vt 0.9667969 0.0039062
vt 0.8789062 0.0625000
vt 0.9667969 0.0039062
vt 0.9082031 0.0039062
vt 0.8789062 0.0625000
vt 0.9082031 0.0039062
vt 0.9667969 0.0039062
vt 0.8789062 0.0625000
vt 0.9667969 0.0039062
vt 0.9960938 0.0625000
vt 0.8789062 0.0625000
vt 0.9960938 0.0625000
vt 0.9667969 0.1210938
vt 0.8789062 0.0625000
vt 0.9667969 0.1210938
vt 0.9082031 0.1210938
vt 0.0321656 0.1332760
vt 0.0476579 0.1334574
vt 0.0468004 0.1343149
vt 0.0321656 0.1332760
vt 0.0468004 0.1343149
vt 0.0311267 0.1343149
vt 0.0311267 0.1343149
vt 0.0468004 0.1343149
vt 0.0468004 0.1338202
vt 0.0311267 0.1343149
vt 0.0468004 0.1338202
vt 0.0311267 0.1340016
vt 0.0311665 0.2460938
vt 0.0468332 0.2460938
vt 0.0468332 0.2426638
vt 0.0311665 0.2460938
vt 0.0468332 0.2426638
vt 0.0311665 0.2419382
vt 0.0311665 0.2419382
vt 0.0468332 0.2426638
vt 0.0468332 0.2406851
vt 0.0311665 0.2419382
vt 0.0468332 0.2406851
vt 0.0311665 0.2406851
vt 0.0311267 0.2406851
vt 0.0468004 0.2406851
vt 0.0468004 0.2426638
vt 0.0311267 0.2406851
vt 0.0468004 0.2426638
vt 0.0311267 0.2419382
vt 0.0311267 0.2419382
vt 0.0468004 0.2426638
vt 0.0490325 0.2460938
vt 0.0311267 0.2419382
vt 0.0490325 0.2460938
vt 0.0338310 0.2460938
vt 0.0308652 0.2413116
vt 0.0463575 0.2416744
vt 0.0468332 0.2406851
vt 0.0308652 0.2413116
vt 0.0468332 0.2406851
vt 0.0311665 0.2406851
vt 0.0311665 0.2406851
vt 0.0468332 0.2406851
vt 0.0468332 0.2406851
vt 0.0311665 0.2406851
vt 0.0468332 0.2406851
vt 0.0311665 0.2406851
vt 0.0311267 0.1340016
vt 0.0468004 0.1338202
vt 0.0468004 0.1732290
vt 0.0311267 0.1340016
vt 0.0468004 0.1732290
vt 0.0311267 0.1589580
vt 0.0311267 0.1589580
vt 0.0468004 0.1732290
vt 0.0468004 0.2406851
vt 0.0311267 0.1589580
vt 0.0468004 0.2406851
vt 0.0311267 0.2406851
vt 0.0311665 0.2406851
vt 0.0468332 0.2406851
vt 0.0476579 0.1723715
vt 0.0311665 0.2406851
vt 0.0476579 0.1723715
vt 0.0321656 0.1579191
vt 0.0321656 0.1579191
vt 0.0476579 0.1723715
vt 0.0476579 0.1334574
vt 0.0321656 0.1579191
vt 0.0476579 0.1334574
vt 0.0321656 0.1332760
vt 0.0311665 0.2406851
vt 0.0468332 0.2406851
vt 0.0468332 0.1732290
vt 0.0311665 0.2406851
vt 0.0468332 0.1732290
vt 0.0311665 0.1589580
vt 0.0311665 0.1589580
vt 0.0468332 0.1732290
vt 0.0468332 0.1343149
vt 0.0311665 0.1589580
vt 0.0468332 0.1343149
vt 0.0311665 0.1343149
vt 0.0311665 0.1343149
vt 0.0468332 0.1343149
vt 0.0463575 0.1742183
vt 0.0311665 0.1343149
vt 0.0463575 0.1742183
vt 0.0308652 0.1595845
vt 0.0308652 0.1595845
vt 0.0463575 0.1742183
vt 0.0463575 0.2416744
vt 0.0308652 0.1595845
vt 0.0463575 0.2416744
vt 0.0308652 0.2413116
vt 0.0305078 0.2460938
vt 0.0465039 0.2460938
vt 0.0465039 0.2458229
vt 0.0305078 0.2460938
vt 0.0465039 0.2458229
vt 0.0305078 0.2457647
vt 0.0305078 0.2457647
vt 0.0465039 0.2458229
vt 0.0465039 0.2456685
vt 0.0305078 0.2457647
vt 0.0465039 0.2456685
vt 0.0305078 0.2456685
vt 0.0304927 0.2457166
vt 0.0464797 0.2457457
vt 0.0465039 0.2381631
vt 0.0304927 0.2457166
vt 0.0465039 0.2381631
vt 0.0305078 0.2409920
vt 0.0305078 0.2409920
vt 0.0465039 0.2381631
vt 0.0465039 0.2250000
vt 0.0305078 0.2409920
vt 0.0465039 0.2250000
vt 0.0305078 0.2250000
vt 0.0305078 0.2456685
vt 0.0465039 0.2456685
vt 0.0465249 0.2089451
vt 0.0305078 0.2456685
vt 0.0465249 0.2089451
vt 0.0305288 0.2089451
vt 0.0305078 0.2250000
vt 0.0465039 0.2250000
vt 0.0465039 0.1772347
vt 0.0305078 0.2250000
vt 0.0465039 0.1772347
vt 0.0305078 0.1669695
vt 0.0305078 0.1669695
vt 0.0465039 0.1772347
vt 0.0465039 0.1500000
vt 0.0305078 0.1669695
vt 0.0465039 0.1500000
vt 0.0305078 0.1500000
vt 0.0464797 0.2090559
vt 0.0464797 0.2457457
vt 0.0304927 0.2457166
vt 0.0464797 0.2090559
vt 0.0304927 0.2457166
vt 0.0304927 0.2090268
vn 0.0000000 -0.8314696 -0.5555702
vn 0.0000000 -0.8314696 -0.5555702
vn 0.0000000 -0.8619051 -0.5070696
vn 0.0000000 -0.8314696 -0.5555702
vn 0.0000000 -0.8619051 -0.5070696
vn 0.0000000 -0.8619051 -0.5070696
vn 0.0000000 -0.8619051 -0.5070696
vn 0.0000000 -0.8314696 -0.5555702
vn 0.0000000 -0.8619051 -0.5070696
vn 0.0000000 -0.7071068 -0.7071068
vn 0.0000000 -0.7071068 -0.7071068
vn 0.0000000 -0.7718276 -0.6358318
vn 0.0000000 -0.7718276 -0.6358318
vn 0.0000000 -0.7071068 -0.7071068
vn 0.0000000 -0.8314696 -0.5555702
vn 0.0000000 -0.7718276 -0.6358318
vn 0.0000000 -0.8314696 -0.5555702
vn 0.0000000 -0.8314696 -0.5555702
vn 0.0000000 -0.5802362 -0.8144483
vn 0.0000000 -0.6329525 -0.7741906
vn 0.0000000 -0.5802362 -0.8144483
vn 0.0000000 -0.6329525 -0.7741906
vn 0.0000000 -0.5802362 -0.8144483
vn 0.0000000 -0.5802362 -0.8144483
vn 0.0000000 -0.6329525 -0.7741906
vn 0.0000000 -0.5802362 -0.8144483
vn 0.0000000 -0.7071068 -0.7071068
vn 0.0000000 -0.6329525 -0.7741906
vn 0.0000000 -0.7071068 -0.7071068
vn 0.0000000 -0.7071068 -0.7071068
vn 0.3849130 -0.7954978 -0.4680013
vn 0.3836063 -0.7678595 -0.5130672
vn 0.3836063 -0.7678595 -0.5130672
vn 0.3849130 -0.7954978 -0.4680013
vn 0.3836063 -0.7678595 -0.5130672
vn 0.3842869 -0.7797500 -0.4942809
vn 0.3842869 -0.7797500 -0.4942809
vn 0.3836063 -0.7678595 -0.5130672
vn 0.3842021 -0.7780908 -0.4969541
vn 0.3836063 -0.7678595 -0.5130672
vn 0.3836060 -0.6530107 -0.6530110
vn 0.3836060 -0.6530107 -0.6530110
vn 0.3836063 -0.7678595 -0.5130672
vn 0.3836060 -0.6530107 -0.6530110
vn 0.3836063 -0.7678595 -0.5130672
vn 0.3836060 -0.6530107 -0.6530110
vn 0.3844241 -0.5356487 -0.7518634
vn 0.3849477 -0.5578201 -0.7352904
vn 0.3836060 -0.6530107 -0.6530110
vn 0.3849477 -0.5578201 -0.7352904
vn 0.3851198 -0.5708700 -0.7251139
vn 0.3836060 -0.6530107 -0.6530110
vn 0.3851198 -0.5708700 -0.7251139
vn 0.3836060 -0.6530107 -0.6530110
vn 0.9721427 -0.1975377 -0.1261643
vn 0.9720453 -0.1952235 -0.1304443
vn 0.9720453 -0.1952235 -0.1304443
vn 0.9720453 -0.1952235 -0.1304443
vn 0.9720453 -0.1660239 -0.1660242
vn 0.9720453 -0.1660239 -0.1660242
vn 0.9720453 -0.1952235 -0.1304443
vn 0.9720453 -0.1660239 -0.1660242
vn 0.9722504 -0.1740769 -0.1562893
vn 0.9720453 -0.1952235 -0.1304443
vn 0.9722504 -0.1740769 -0.1562893
vn 0.9722573 -0.1745231 -0.1557482
vn 0.9720453 -0.1952235 -0.1304443
vn 0.9722573 -0.1745231 -0.1557482
vn 0.9720453 -0.1952235 -0.1304443
vn 0.9720453 -0.1660239 -0.1660242
vn 0.9722919 -0.1446063 -0.1836777
vn 0.9722686 -0.1547502 -0.1753456
vn 0.9720453 -0.1660239 -0.1660242
vn 0.9722686 -0.1547502 -0.1753456
vn 0.9720453 -0.1660239 -0.1660242
vn 0.0000000 -0.8741938 -0.4855772
vn 0.0000000 -0.8314695 -0.5555703
vn 0.0000000 -0.8314695 -0.5555703
vn 0.0000000 -0.8741938 -0.4855772
vn 0.0000000 -0.8314695 -0.5555703
vn 0.0000000 -0.8741938 -0.4855772
vn 0.0000000 -0.8741938 -0.4855772
vn 0.0000000 -0.8314695 -0.5555703
vn 0.0000000 -0.8741938 -0.4855772
vn 0.0000000 -0.8314695 -0.5555703
vn 0.0000000 -0.7071068 -0.7071067
vn 0.0000000 -0.7071068 -0.7071067
vn 0.0000000 -0.8314695 -0.5555703
vn 0.0000000 -0.7071068 -0.7071067
vn 0.0000000 -0.8314695 -0.5555703
vn 0.0000000 -0.7071068 -0.7071067
vn 0.0000000 -0.5555702 -0.8314696
vn 0.0000000 -0.5555702 -0.8314696
vn 0.0000000 -0.7071068 -0.7071067
vn 0.0000000 -0.5555702 -0.8314696
vn 0.0000000 -0.7071068 -0.7071067
vn 0.0000000 -0.5555702 -0.8314696
vn 0.0000000 -0.5539679 -0.8325380
vn 0.0000000 -0.5539679 -0.8325380
vn 0.0000000 -0.5555702 -0.8314696
vn 0.0000000 -0.5539679 -0.8325380
vn 0.0000000 -0.5539679 -0.8325380
vn 0.0000000 -0.5555702 -0.8314696
vn 0.0000000 -0.5539679 -0.8325380
vn 0.0000000 -0.5555702 -0.8314696
vn -1.0000000 0.0000000 0.0000000
vn -1.0000000 0.0000000 -0.0000000
vn -1.0000000 0.0000000 0.0000000
vn -1.0000000 0.0000000 0.0000000
vn -1.0000000 0.0000000 -0.0000000
vn -1.0000000 0.0000000 -0.0000000
vn -1.0000000 0.0000000 0.0000000
vn -1.0000000 0.0000000 -0.0000000
vn -1.0000000 0.0000000 0.0000000
vn -1.0000000 0.0000000 0.0000000
vn -1.0000000 0.0000000 0.0000000
vn -1.0000000 0.0000000 0.0000000
vn -1.0000000 0.0000000 0.0000000
vn -1.0000000 0.0000000 -0.0000000
vn -1.0000000 0.0000000 -0.0000000
vn -1.0000000 0.0000000 0.0000000
vn -1.0000000 0.0000000 -0.0000000
vn -1.0000000 0.0000000 0.0000000
vn -1.0000000 0.0000000 0.0000000
vn -1.0000000 0.0000000 -0.0000000
vn -1.0000000 0.0000000 0.0000000
vn 1.0000000 0.0000000 0.0000000
vn 1.0000000 0.0000000 0.0000000
vn 1.0000000 0.0000000 0.0000000
vn 1.0000000 0.0000000 0.0000000
vn 1.0000000 0.0000000 0.0000000
vn 1.0000000 0.0000000 0.0000000
vn 1.0000000 0.0000000 0.0000000
vn 1.0000000 0.0000000 0.0000000
vn 1.0000000 0.0000000 0.0000000
vn 1.0000000 0.0000000 0.0000000
vn 1.0000000 0.0000000 0.0000000
vn 1.0000000 0.0000000 0.0000000
vn 1.0000000 0.0000000 0.0000000
vn 1.0000000 0.0000000 0.0000000
vn 1.0000000 0.0000000 0.0000000
vn 1.0000000 0.0000000 0.0000000
vn 1.0000000 0.0000000 0.0000000
vn 1.0000000 0.0000000 0.0000000
vn 1.0000000 0.0000000 0.0000000
vn 1.0000000 0.0000000 0.0000000
vn 1.0000000 0.0000000 0.0000000
vn -0.0000000 1.0000000 -0.0000000
vn -0.0000000 1.0000000 -0.0000000
vn 0.0000000 1.0000000 0.0000000
vn -0.0000000 1.0000000 -0.0000000
vn 0.0000000 1.0000000 0.0000000
vn 0.0000000 1.0000000 0.0000000
vn -0.0000000 1.0000000 -0.0000000
vn 0.0000000 1.0000000 0.0000000
vn 0.0000000 1.0000000 0.0000000
vn 0.0000000 0.5000000 -0.8660254
vn 0.0000000 0.5000000 -0.8660254
vn 0.0000000 0.5000000 -0.8660254
vn 0.0000000 0.5000000 -0.8660254
vn 0.0000000 0.5000000 -0.8660254
vn 0.0000000 0.5000000 -0.8660254
vn 0.0000001 -0.5000000 -0.8660254
vn 0.0000001 -0.5000000 -0.8660254
vn 0.0000001 -0.5000000 -0.8660254
vn 0.0000001 -0.5000000 -0.8660254
vn 0.0000001 -0.5000000 -0.8660254
vn 0.0000001 -0.5000000 -0.8660254
vn 0.0000000 -1.0000000 0.0000000
vn 0.0000000 -1.0000000 0.0000000
vn 0.0000000 -1.0000000 0.0000000
vn 0.0000000 -1.0000000 0.0000000
vn 0.0000000 -1.0000000 0.0000000
vn 0.0000000 -1.0000000 0.0000000
vn 0.0000000 -1.0000000 0.0000000
vn 0.0000000 -1.0000000 0.0000000
vn 0.0000000 -1.0000000 0.0000000
vn 1.0000000 0.0000000 0.0000000
vn 1.0000000 0.0000000 0.0000000
vn 1.0000000 0.0000000 0.0000000
vn 1.0000000 0.0000000 0.0000000
vn 1.0000000 0.0000000 0.0000000
vn 1.0000000 0.0000000 0.0000000
vn 1.0000000 0.0000000 0.0000000
vn 1.0000000 0.0000000 0.0000000
vn 1.0000000 0.0000000 0.0000000
vn 1.0000000 0.0000000 0.0000000
vn 1.0000000 0.0000000 0.0000000
vn 1.0000000 0.0000000 0.0000000
vn 1.0000000 0.0000000 0.0000000
vn 1.0000000 0.0000000 0.0000000
vn 1.0000000 0.0000000 0.0000000
vn 1.0000000 0.0000000 0.0000000
vn 1.0000000 0.0000000 0.0000000
vn 1.0000000 0.0000000 0.0000000
vn -1.0000000 -0.0000000 -0.0000000
vn -1.0000000 -0.0000000 -0.0000000
vn -1.0000000 0.0000000 0.0000000
vn -1.0000000 -0.0000000 -0.0000000
vn -1.0000000 0.0000000 0.0000000
vn -1.0000000 0.0000000 0.0000000
vn -1.0000000 -0.0000000 -0.0000000
vn -1.0000000 0.0000000 0.0000000
vn -1.0000000 0.0000000 0.0000000
vn -1.0000000 -0.0000000 -0.0000000
vn -1.0000000 0.0000000 0.0000000
vn -1.0000000 0.0000000 0.0000000
vn -1.0000000 -0.0000000 -0.0000000
vn -1.0000000 0.0000000 0.0000000
vn -1.0000000 0.0000000 0.0000000
vn -1.0000000 -0.0000000 -0.0000000
vn -1.0000000 0.0000000 0.0000000
vn -1.0000000 -0.0000000 -0.0000000
vn -0.5773508 -0.5773493 0.5773508
vn -0.5773508 -0.5773493 0.5773508
vn -0.5773508 -0.5773493 0.5773508
vn 0.5773508 -0.5773493 0.5773508
vn 0.5773508 -0.5773493 0.5773508
vn 0.5773508 -0.5773493 0.5773508
vn 0.5773508 -0.5773493 -0.5773508
vn 0.5773508 -0.5773493 -0.5773508
vn 0.5773508 -0.5773493 -0.5773508
vn -0.5773508 -0.5773493 -0.5773508
vn -0.5773508 -0.5773493 -0.5773508
vn -0.5773508 -0.5773493 -0.5773508
vn 0.0000000 -0.7071074 0.7071062
vn 0.0000000 -0.7071074 0.7071062
vn 0.0000000 -0.7071074 0.7071062
vn 0.0000000 -0.7071074 0.7071062
vn 0.0000000 -0.7071074 0.7071062
vn 0.0000000 -0.7071074 0.7071062
vn -0.7071066 -0.7071069 0.0000000
vn -0.7071066 -0.7071069 0.0000000
vn -0.7071066 -0.7071069 0.0000000
vn -0.7071066 -0.7071069 0.0000000
vn -0.7071066 -0.7071069 0.0000000
vn -0.7071066 -0.7071069 0.0000000
vn 0.0000000 -0.7071074 -0.7071062
vn 0.0000000 -0.7071074 -0.7071062
vn 0.0000000 -0.7071074 -0.7071062
vn 0.0000000 -0.7071074 -0.7071062
vn 0.0000000 -0.7071074 -0.7071062
vn 0.0000000 -0.7071074 -0.7071062
vn 0.7071066 -0.7071069 0.0000000
vn 0.7071066 -0.7071069 0.0000000
vn 0.7071066 -0.7071069 0.0000000
vn 0.7071066 -0.7071069 0.0000000
vn 0.7071066 -0.7071069 0.0000000
vn 0.7071066 -0.7071069 0.0000000
vn -0.7071067 0.0000000 0.7071069
vn -0.7071067 0.0000000 0.7071069
vn -0.7071067 0.0000000 0.7071069
vn -0.7071067 0.0000000 0.7071069
vn -0.7071067 0.0000000 0.7071069
vn -0.7071067 0.0000000 0.7071069
vn -0.7071067 0.0000000 0.7071069
vn -0.7071067 0.0000000 0.7071069
vn -0.7071067 0.0000000 0.7071069
vn 0.7071067 0.0000000 0.7071069
vn 0.7071067 0.0000000 0.7071069
vn 0.7071067 0.0000000 0.7071069
vn 0.7071067 0.0000000 0.7071069
vn 0.7071067 0.0000000 0.7071069
vn 0.7071067 0.0000000 0.7071069
vn 0.7071067 0.0000000 0.7071069
vn 0.7071067 0.0000000 0.7071069
vn 0.7071067 0.0000000 0.7071069
vn 0.7071067 0.0000000 -0.7071069
vn 0.7071067 0.0000000 -0.7071069
vn 0.7071067 0.0000000 -0.7071069
vn 0.7071067 0.0000000 -0.7071069
vn 0.7071067 0.0000000 -0.7071069
vn 0.7071067 0.0000000 -0.7071069
vn 0.7071067 0.0000000 -0.7071069
vn 0.7071067 0.0000000 -0.7071069
vn 0.7071067 0.0000000 -0.7071069
vn -0.7071067 0.0000000 -0.7071069
vn -0.7071067 0.0000000 -0.7071069
vn -0.7071067 0.0000000 -0.7071069
vn -0.7071067 0.0000000 -0.7071069
vn -0.7071067 0.0000000 -0.7071069
vn -0.7071067 0.0000000 -0.7071069
vn -0.7071067 0.0000000 -0.7071069
vn -0.7071067 0.0000000 -0.7071069
vn -0.7071067 0.0000000 -0.7071069
vn 0.0000000 0.0000000 1.0000000
vn 0.0000000 0.0000000 1.0000000
vn 0.0000000 0.0000000 1.0000000
vn 0.0000000 0.0000000 1.0000000
vn 0.0000000 0.0000000 1.0000000
vn 0.0000000 0.0000000 1.0000000
vn 0.0000000 0.0000000 1.0000000
vn 0.0000000 0.0000000 1.0000000
vn 0.0000000 0.0000000 1.0000000
vn 0.0000000 -1.0000000 0.0000000
vn 0.0000000 -1.0000000 0.0000000
vn 0.0000000 -1.0000000 0.0000000
vn 0.0000000 -1.0000000 0.0000000
vn 0.0000000 -1.0000000 0.0000000
vn 0.0000000 -1.0000000 0.0000000
vn -1.0000000 0.0000000 0.0000000
vn -1.0000000 0.0000000 0.0000000
vn -1.0000000 0.0000000 0.0000000
vn -1.0000000 0.0000000 0.0000000
vn -1.0000000 0.0000000 0.0000000
vn -1.0000000 0.0000000 0.0000000
vn -1.0000000 0.0000000 0.0000000
vn -1.0000000 0.0000000 0.0000000
vn -1.0000000 0.0000000 0.0000000
vn 1.0000000 0.0000000 0.0000000
vn 1.0000000 0.0000000 0.0000000
vn 1.0000000 0.0000000 0.0000000
vn 1.0000000 0.0000000 0.0000000
vn 1.0000000 0.0000000 0.0000000
vn 1.0000000 0.0000000 0.0000000
vn 1.0000000 0.0000000 0.0000000
vn 1.0000000 0.0000000 0.0000000
vn 1.0000000 0.0000000 0.0000000
vn 0.0000000 0.0000000 -1.0000000
vn 0.0000000 0.0000000 -1.0000000
vn 0.0000000 0.0000000 -1.0000000
vn 0.0000000 0.0000000 -1.0000000
vn 0.0000000 0.0000000 -1.0000000
vn 0.0000000 0.0000000 -1.0000000
vn 0.0000000 0.0000000 -1.0000000
vn 0.0000000 0.0000000 -1.0000000
vn 0.0000000 0.0000000 -1.0000000
vn -0.5773510 -0.5773499 0.5773499
vn -0.5773510 -0.5773499 0.5773499
vn -0.5773510 -0.5773499 0.5773499
vn 0.5773510 -0.5773499 0.5773499
vn 0.5773510 -0.5773499 0.5773499
vn 0.5773510 -0.5773499 0.5773499
vn 0.5773510 -0.5773499 -0.5773499
vn 0.5773510 -0.5773499 -0.5773499
vn 0.5773510 -0.5773499 -0.5773499
vn -0.5773510 -0.5773499 -0.5773499
vn -0.5773510 -0.5773499 -0.5773499
vn -0.5773510 -0.5773499 -0.5773499
vn -0.5773510 0.5773499 0.5773499
vn -0.5773510 0.5773499 0.5773499
vn -0.5773510 0.5773499 0.5773499
vn 0.5773510 0.5773499 0.5773499
vn 0.5773510 0.5773499 0.5773499
vn 0.5773510 0.5773499 0.5773499
vn 0.5773510 0.5773499 -0.5773499
vn 0.5773510 0.5773499 -0.5773499
vn 0.5773510 0.5773499 -0.5773499
vn -0.5773510 0.5773499 -0.5773499
vn -0.5773510 0.5773499 -0.5773499
vn -0.5773510 0.5773499 -0.5773499
vn 0.0000000 -0.7071065 0.7071071
vn 0.0000000 -0.7071065 0.7071071
vn 0.0000000 -0.7071065 0.7071071
vn 0.0000000 -0.7071065 0.7071071
vn 0.0000000 -0.7071065 0.7071071
vn 0.0000000 -0.7071065 0.7071071
vn -0.7071068 -0.7071067 0.0000000
vn -0.7071068 -0.7071067 0.0000000
vn -0.7071068 -0.7071067 0.0000000
vn -0.7071068 -0.7071067 0.0000000
vn -0.7071068 -0.7071067 0.0000000
vn -0.7071068 -0.7071067 0.0000000
vn 0.0000000 -0.7071065 -0.7071071
vn 0.0000000 -0.7071065 -0.7071071
vn 0.0000000 -0.7071065 -0.7071071
vn 0.0000000 -0.7071065 -0.7071071
vn 0.0000000 -0.7071065 -0.7071071
vn 0.0000000 -0.7071065 -0.7071071
vn 0.7071068 -0.7071067 0.0000000
vn 0.7071068 -0.7071067 0.0000000
vn 0.7071068 -0.7071067 0.0000000
vn 0.7071068 -0.7071067 0.0000000
vn 0.7071068 -0.7071067 0.0000000
vn 0.7071068 -0.7071067 0.0000000
vn -0.7071068 0.7071067 0.0000000
vn -0.7071068 0.7071067 0.0000000
vn -0.7071068 0.7071067 0.0000000
vn -0.7071068 0.7071067 0.0000000
vn -0.7071068 0.7071067 0.0000000
vn -0.7071068 0.7071067 0.0000000
vn 0.0000000 0.7071065 0.7071071
vn 0.0000000 0.7071065 0.7071071
vn 0.0000000 0.7071065 0.7071071
vn 0.0000000 0.7071065 0.7071071
vn 0.0000000 0.7071065 0.7071071
vn 0.0000000 0.7071065 0.7071071
vn 0.7071068 0.7071067 0.0000000
vn 0.7071068 0.7071067 0.0000000
vn 0.7071068 0.7071067 0.0000000
vn 0.7071068 0.7071067 0.0000000
vn 0.7071068 0.7071067 0.0000000
vn 0.7071068 0.7071067 0.0000000
vn 0.0000000 0.7071065 -0.7071071
vn 0.0000000 0.7071065 -0.7071071
vn 0.0000000 0.7071065 -0.7071071
vn 0.0000000 0.7071065 -0.7071071
vn 0.0000000 0.7071065 -0.7071071
vn 0.0000000 0.7071065 -0.7071071
vn -0.7071066 0.0000000 0.7071069
vn -0.7071066 0.0000000 0.7071069
vn -0.7071066 0.0000000 0.7071069
vn -0.7071066 0.0000000 0.7071069
vn -0.7071066 0.0000000 0.7071069
vn -0.7071066 0.0000000 0.7071069
vn 0.7071066 0.0000000 0.7071069
vn 0.7071066 0.0000000 0.7071069
vn 0.7071066 0.0000000 0.7071069
vn 0.7071066 0.0000000 0.7071069
vn 0.7071066 0.0000000 0.7071069
vn 0.7071066 0.0000000 0.7071069
vn 0.7071066 0.0000000 -0.7071069
vn 0.7071066 0.0000000 -0.7071069
vn 0.7071066 0.0000000 -0.7071069
vn 0.7071066 0.0000000 -0.7071069
vn 0.7071066 0.0000000 -0.7071069
vn 0.7071066 0.0000000 -0.7071069
vn -0.7071066 0.0000000 -0.7071069
vn -0.7071066 0.0000000 -0.7071069
vn -0.7071066 0.0000000 -0.7071069
vn -0.7071066 0.0000000 -0.7071069
vn -0.7071066 0.0000000 -0.7071069
vn -0.7071066 0.0000000 -0.7071069
vn 0.0000000 0.0000000 1.0000000
vn 0.0000000 0.0000000 1.0000000
vn 0.0000000 0.0000000 1.0000000
vn 0.0000000 0.0000000 1.0000000
vn 0.0000000 0.0000000 1.0000000
vn 0.0000000 0.0000000 1.0000000
vn 0.0000000 -1.0000000 0.0000000
vn 0.0000000 -1.0000000 0.0000000
vn 0.0000000 -1.0000000 0.0000000
vn 0.0000000 -1.0000000 0.0000000
vn 0.0000000 -1.0000000 0.0000000
vn 0.0000000 -1.0000000 0.0000000
vn -1.0000000 0.0000000 0.0000000
vn -1.0000000 0.0000000 0.0000000
vn -1.0000000 0.0000000 0.0000000
vn -1.0000000 0.0000000 0.0000000
vn -1.0000000 0.0000000 0.0000000
vn -1.0000000 0.0000000 0.0000000
vn 1.0000000 0.0000000 0.0000000
vn 1.0000000 0.0000000 0.0000000
vn 1.0000000 0.0000000 0.0000000
vn 1.0000000 0.0000000 0.0000000
vn 1.0000000 0.0000000 0.0000000
vn 1.0000000 0.0000000 0.0000000
vn 0.0000000 0.0000000 -1.0000000
vn 0.0000000 0.0000000 -1.0000000
vn 0.0000000 0.0000000 -1.0000000
vn 0.0000000 0.0000000 -1.0000000
vn 0.0000000 0.0000000 -1.0000000
vn 0.0000000 0.0000000 -1.0000000
vn 0.0000000 1.0000000 0.0000000
vn 0.0000000 1.0000000 0.0000000
vn 0.0000000 1.0000000 0.0000000
vn 0.0000000 1.0000000 0.0000000
vn 0.0000000 1.0000000 0.0000000
vn 0.0000000 1.0000000 0.0000000
vn -0.8660254 0.0000000 0.5000001
vn -0.8660254 0.0000000 0.5000001
vn -0.8660254 0.0000000 0.5000001
vn -0.8660254 0.0000000 0.5000001
vn -0.8660254 0.0000000 0.5000001
vn -0.8660254 0.0000000 0.5000001
vn 0.0000002 0.0000000 1.0000000
vn 0.0000002 0.0000000 1.0000000
vn 0.0000002 0.0000000 1.0000000
vn 0.0000002 0.0000000 1.0000000
vn 0.0000002 0.0000000 1.0000000
vn 0.0000002 0.0000000 1.0000000
vn 0.8660255 0.0000000 0.4999999
vn 0.8660255 0.0000000 0.4999999
vn 0.8660255 0.0000000 0.4999999
vn 0.8660255 0.0000000 0.4999999
vn 0.8660255 0.0000000 0.4999999
vn 0.8660255 0.0000000 0.4999999
vn 0.8660254 0.0000000 -0.5000001
vn 0.8660254 0.0000000 -0.5000001
vn 0.8660254 0.0000000 -0.5000001
vn 0.8660254 0.0000000 -0.5000001
vn 0.8660254 0.0000000 -0.5000001
vn 0.8660254 0.0000000 -0.5000001
vn -0.0000002 0.0000000 -1.0000000
vn -0.0000002 0.0000000 -1.0000000
vn -0.0000002 0.0000000 -1.0000000
vn -0.0000002 0.0000000 -1.0000000
vn -0.0000002 0.0000000 -1.0000000
vn -0.0000002 0.0000000 -1.0000000
vn -0.8660255 0.0000000 -0.4999999
vn -0.8660255 0.0000000 -0.4999999
vn -0.8660255 0.0000000 -0.4999999
vn -0.8660255 0.0000000 -0.4999999
vn -0.8660255 0.0000000 -0.4999999
vn -0.8660255 0.0000000 -0.4999999
vn 0.0000000 -1.0000000 0.0000000
vn 0.0000000 -1.0000000 0.0000000
vn 0.0000000 -1.0000000 0.0000000
vn 0.0000000 -1.0000000 0.0000000
vn 0.0000000 -1.0000000 0.0000000
vn 0.0000000 -1.0000000 0.0000000
vn 0.0000000 -1.0000000 0.0000000
vn 0.0000000 -1.0000000 0.0000000
vn 0.0000000 -1.0000000 0.0000000
vn 0.0000000 -1.0000000 0.0000000
vn 0.0000000 -1.0000000 0.0000000
vn 0.0000000 -1.0000000 0.0000000
vn 0.0000000 1.0000000 0.0000000
vn 0.0000000 1.0000000 0.0000000
vn 0.0000000 1.0000000 0.0000000
vn 0.0000000 1.0000000 0.0000000
vn 0.0000000 1.0000000 0.0000000
vn 0.0000000 1.0000000 0.0000000
vn 0.0000000 1.0000000 0.0000000
vn 0.0000000 1.0000000 0.0000000
vn 0.0000000 1.0000000 0.0000000
vn 0.0000000 1.0000000 0.0000000
vn 0.0000000 1.0000000 0.0000000
vn 0.0000000 1.0000000 0.0000000
vn -0.8660254 0.0000000 0.5000001
vn -0.8660254 0.0000000 0.5000001
vn -0.8660254 0.0000000 0.5000001
vn -0.8660254 0.0000000 0.5000001
vn -0.8660254 0.0000000 0.5000001
vn -0.8660254 0.0000000 0.5000001
vn 0.0000002 0.0000000 1.0000000
vn 0.0000002 0.0000000 1.0000000
vn 0.0000002 0.0000000 1.0000000
vn 0.0000002 0.0000000 1.0000000
vn 0.0000002 0.0000000 1.0000000
vn 0.0000002 0.0000000 1.0000000
vn 0.8660255 0.0000000 0.4999999
vn 0.8660255 0.0000000 0.4999999
vn 0.8660255 0.0000000 0.4999999
vn 0.8660255 0.0000000 0.4999999
vn 0.8660255 0.0000000 0.4999999
vn 0.8660255 0.0000000 0.4999999
vn 0.8660254 0.0000000 -0.5000001
vn 0.8660254 0.0000000 -0.5000001
vn 0.8660254 0.0000000 -0.5000001
vn 0.8660254 0.0000000 -0.5000001
vn 0.8660254 0.0000000 -0.5000001
vn 0.8660254 0.0000000 -0.5000001
vn -0.0000002 0.0000000 -1.0000000
vn -0.0000002 0.0000000 -1.0000000
vn -0.0000002 0.0000000 -1.0000000
vn -0.0000002 0.0000000 -1.0000000
vn -0.0000002 0.0000000 -1.0000000
vn -0.0000002 0.0000000 -1.0000000
vn -0.8660255 0.0000000 -0.4999999
vn -0.8660255 0.0000000 -0.4999999
vn -0.8660255 0.0000000 -0.4999999
vn -0.8660255 0.0000000 -0.4999999
vn -0.8660255 0.0000000 -0.4999999
vn -0.8660255 0.0000000 -0.4999999
vn 0.0000000 -1.0000000 0.0000000
vn 0.0000000 -1.0000000 0.0000000
vn 0.0000000 -1.0000000 0.0000000
vn 0.0000000 -1.0000000 0.0000000
vn 0.0000000 -1.0000000 0.0000000
vn 0.0000000 -1.0000000 0.0000000
vn 0.0000000 -1.0000000 0.0000000
vn 0.0000000 -1.0000000 0.0000000
vn 0.0000000 -1.0000000 0.0000000
vn 0.0000000 -1.0000000 0.0000000
vn 0.0000000 -1.0000000 0.0000000
vn 0.0000000 -1.0000000 0.0000000
vn 0.0000000 1.0000000 0.0000000
vn 0.0000000 1.0000000 0.0000000
vn 0.0000000 1.0000000 0.0000000
vn 0.0000000 1.0000000 0.0000000
vn 0.0000000 1.0000000 0.0000000
vn 0.0000000 1.0000000 0.0000000
vn 0.0000000 1.0000000 0.0000000
vn 0.0000000 1.0000000 0.0000000
vn 0.0000000 1.0000000 0.0000000
vn 0.0000000 1.0000000 0.0000000
vn 0.0000000 1.0000000 0.0000000
vn 0.0000000 1.0000000 0.0000000
vn 0.0000000 -0.7071068 0.7071067
vn 0.0000000 -0.7071068 0.7071067
vn 0.0000000 -0.7071068 0.7071067
vn 0.0000000 -0.7071068 0.7071067
vn 0.0000000 -0.7071068 0.7071067
vn 0.0000000 -0.7071068 0.7071067
vn 0.0000000 -0.7071068 0.7071067
vn 0.0000000 -0.7071068 0.7071067
vn 0.0000000 -0.7071068 0.7071067
vn 0.0000000 -0.7071068 0.7071067
vn 0.0000000 -0.7071068 0.7071067
vn 0.0000000 -0.7071068 0.7071067
vn 0.0000000 -0.7071068 -0.7071067
vn 0.0000000 -0.7071068 -0.7071067
vn 0.0000000 -0.7071068 -0.7071067
vn 0.0000000 -0.7071068 -0.7071067
vn 0.0000000 -0.7071068 -0.7071067
vn 0.0000000 -0.7071068 -0.7071067
vn 0.0000000 -0.7071068 -0.7071067
vn 0.0000000 -0.7071068 -0.7071067
vn 0.0000000 -0.7071068 -0.7071067
vn 0.0000000 -0.7071068 -0.7071067
vn 0.0000000 -0.7071068 -0.7071067
vn 0.0000000 -0.7071068 -0.7071067
vn 0.0000000 0.7071068 0.7071067
vn 0.0000000 0.7071068 0.7071067
vn 0.0000000 0.7071068 0.7071067
vn 0.0000000 0.7071068 0.7071067
vn 0.0000000 0.7071068 0.7071067
vn 0.0000000 0.7071068 0.7071067
vn 0.0000000 0.7071068 0.7071067
vn 0.0000000 0.7071068 0.7071067
vn 0.0000000 0.7071068 0.7071067
vn 0.0000000 0.7071068 0.7071067
vn 0.0000000 0.7071068 0.7071067
vn 0.0000000 0.7071068 0.7071067
vn 0.0000000 0.7071068 -0.7071067
vn 0.0000000 0.7071068 -0.7071067
vn 0.0000000 0.7071068 -0.7071067
vn 0.0000000 0.7071068 -0.7071067
vn 0.0000000 0.7071068 -0.7071067
vn 0.0000000 0.7071068 -0.7071067
vn 0.0000000 0.7071068 -0.7071067
vn 0.0000000 0.7071068 -0.7071067
vn 0.0000000 0.7071068 -0.7071067
vn 0.0000000 0.7071068 -0.7071067
vn 0.0000000 0.7071068 -0.7071067
vn 0.0000000 0.7071068 -0.7071067
vn 0.0000000 0.0000000 1.0000000
vn 0.0000000 0.0000000 1.0000000
vn 0.0000000 0.0000000 1.0000000
vn 0.0000000 0.0000000 1.0000000
vn 0.0000000 0.0000000 1.0000000
vn 0.0000000 0.0000000 1.0000000
vn 0.0000000 0.0000000 1.0000000
vn 0.0000000 0.0000000 1.0000000
vn 0.0000000 0.0000000 1.0000000
vn 0.0000000 0.0000000 1.0000000
vn 0.0000000 0.0000000 1.0000000
vn 0.0000000 0.0000000 1.0000000
vn 0.0000000 -1.0000000 0.0000000
vn 0.0000000 -1.0000000 0.0000000
vn 0.0000000 -1.0000000 0.0000000
vn 0.0000000 -1.0000000 0.0000000
vn 0.0000000 -1.0000000 0.0000000
vn 0.0000000 -1.0000000 0.0000000
vn 0.0000000 -1.0000000 0.0000000
vn 0.0000000 -1.0000000 0.0000000
vn 0.0000000 -1.0000000 0.0000000
vn 0.0000000 -1.0000000 0.0000000
vn 0.0000000 -1.0000000 0.0000000
vn 0.0000000 -1.0000000 0.0000000
vn 0.0000000 0.0000000 -1.0000000
vn 0.0000000 0.0000000 -1.0000000
vn 0.0000000 0.0000000 -1.0000000
vn 0.0000000 0.0000000 -1.0000000
vn 0.0000000 0.0000000 -1.0000000
vn 0.0000000 0.0000000 -1.0000000
vn 0.0000000 0.0000000 -1.0000000
vn 0.0000000 0.0000000 -1.0000000
vn 0.0000000 0.0000000 -1.0000000
vn 0.0000000 0.0000000 -1.0000000
vn 0.0000000 0.0000000 -1.0000000
vn 0.0000000 0.0000000 -1.0000000
vn 0.0000000 1.0000000 0.0000000
vn 0.0000000 1.0000000 0.0000000
vn 0.0000000 1.0000000 0.0000000
vn 0.0000000 1.0000000 0.0000000
vn 0.0000000 1.0000000 0.0000000
vn 0.0000000 1.0000000 0.0000000
vn 0.0000000 1.0000000 0.0000000
vn 0.0000000 1.0000000 0.0000000
vn 0.0000000 1.0000000 0.0000000
vn 0.0000000 1.0000000 0.0000000
vn 0.0000000 1.0000000 0.0000000
vn 0.0000000 1.0000000 0.0000000
vn 0.0000000 -0.7071070 -0.7071065
vn 0.0000000 -0.7071070 -0.7071065
vn 0.0000000 -0.7071070 -0.7071065
vn 0.0000000 -0.7071070 -0.7071065
vn 0.0000000 -0.7071070 -0.7071065
vn 0.0000000 -0.7071070 -0.7071065
vn 0.0000000 -0.7071070 -0.7071065
vn 0.0000000 -0.7071070 -0.7071065
vn 0.0000000 -0.7071070 -0.7071065
vn 0.0000000 -0.7071070 -0.7071065
vn 0.0000000 -0.7071070 -0.7071065
vn 0.0000000 -0.7071070 -0.7071065
vn 0.0000000 0.7071070 -0.7071065
vn 0.0000000 0.7071070 -0.7071065
vn 0.0000000 0.7071070 -0.7071065
vn 0.0000000 0.7071070 -0.7071065
vn 0.0000000 0.7071070 -0.7071065
vn 0.0000000 0.7071070 -0.7071065
vn 0.0000000 0.7071070 -0.7071065
vn 0.0000000 0.7071070 -0.7071065
vn 0.0000000 0.7071070 -0.7071065
vn 0.0000000 0.7071070 -0.7071065
vn 0.0000000 0.7071070 -0.7071065
vn 0.0000000 0.7071070 -0.7071065
vn 0.0000000 -1.0000000 0.0000000
vn 0.0000000 -1.0000000 0.0000000
vn 0.0000000 -1.0000000 0.0000000
vn 0.0000000 -1.0000000 0.0000000
vn 0.0000000 -1.0000000 0.0000000
vn 0.0000000 -1.0000000 0.0000000
vn 0.0000000 0.0000000 -1.0000000
vn 0.0000000 0.0000000 -1.0000000
vn 0.0000000 0.0000000 -1.0000000
vn 0.0000000 0.0000000 -1.0000000
vn 0.0000000 0.0000000 -1.0000000
vn 0.0000000 0.0000000 -1.0000000
vn 0.0000000 0.0000000 -1.0000000
vn 0.0000000 0.0000000 -1.0000000
vn 0.0000000 0.0000000 -1.0000000
vn 0.0000000 0.0000000 -1.0000000
vn 0.0000000 0.0000000 -1.0000000
vn 0.0000000 0.0000000 -1.0000000
vn 0.0000000 1.0000000 0.0000000
vn 0.0000000 1.0000000 0.0000000
vn 0.0000000 1.0000000 0.0000000
vn 0.0000000 1.0000000 0.0000000
vn 0.0000000 1.0000000 0.0000000
vn 0.0000000 1.0000000 0.0000000
f 1/1/1 2/2/2 3/3/3
f 4/4/4 5/5/5 6/6/6
f 7/7/7 8/8/8 9/9/9
f 10/10/10 11/11/11 12/12/12
f 13/13/13 14/14/14 15/15/15
f 16/16/16 17/17/17 18/18/18
f 19/19/19 20/20/20 21/21/21
f 22/22/22 23/23/23 24/24/24
f 25/25/25 26/26/26 27/27/27
f 28/28/28 29/29/29 30/30/30
f 31/31/31 32/32/32 33/33/33
f 34/34/34 35/35/35 36/36/36
f 37/37/37 38/38/38 39/39/39
f 40/40/40 41/41/41 42/42/42
f 43/43/43 44/44/44 45/45/45
f 46/46/46 47/47/47 48/48/48
f 49/49/49 50/50/50 51/51/51
f 52/52/52 53/53/53 54/54/54
f 55/55/55 56/56/56 57/57/57
f 58/58/58 59/59/59 60/60/60
f 61/61/61 62/62/62 63/63/63
f 64/64/64 65/65/65 66/66/66
f 67/67/67 68/68/68 69/69/69
f 70/70/70 71/71/71 72/72/72
f 73/73/73 74/74/74 75/75/75
f 76/76/76 77/77/77 78/78/78
f 79/79/79 80/80/80 81/81/81
f 82/82/82 83/83/83 84/84/84
f 85/85/85 86/86/86 87/87/87
f 88/88/88 89/89/89 90/90/90
f 91/91/91 92/92/92 93/93/93
f 94/94/94 95/95/95 96/96/96
f 97/97/97 98/98/98 99/99/99
f 100/100/100 101/101/101 102/102/102
f 103/103/103 104/104/104 105/105/105
f 106/106/106 107/107/107 108/108/108
f 109/109/109 110/110/110 111/111/111
f 112/112/112 113/113/113 114/114/114
f 115/115/115 116/116/116 117/117/117
f 118/118/118 119/119/119 120/120/120
f 121/121/121 122/122/122 123/123/123
f 124/124/124 125/125/125 126/126/126
f 127/127/127 128/128/128 129/129/129
f 130/130/130 131/131/131 132/132/132
f 133/133/133 134/134/134 135/135/135
f 136/136/136 137/137/137 138/138/138
f 139/139/139 140/140/140 141/141/141
f 142/142/142 143/143/143 144/144/144
f 145/145/145 146/146/146 147/147/147
f 148/148/148 149/149/149 150/150/150
f 151/151/151 152/152/152 153/153/153
f 154/154/154 155/155/155 156/156/156
f 157/157/157 158/158/158 159/159/159
f 160/160/160 161/161/161 162/162/162
f 163/163/163 164/164/164 165/165/165
f 166/166/166 167/167/167 168/168/168
f 169/169/169 170/170/170 171/171/171
f 172/172/172 173/173/173 174/174/174
f 175/175/175 176/176/176 177/177/177
f 178/178/178 179/179/179 180/180/180
f 181/181/181 182/182/182 183/183/183
f 184/184/184 185/185/185 186/186/186
f 187/187/187 188/188/188 189/189/189
f 190/190/190 191/191/191 192/192/192
f 193/193/193 194/194/194 195/195/195
f 196/196/196 197/197/197 198/198/198
f 199/199/199 200/200/200 201/201/201
f 202/202/202 203/203/203 204/204/204
f 205/205/205 206/206/206 207/207/207
f 208/208/208 209/209/209 210/210/210
f 211/211/211 212/212/212 213/213/213
f 214/214/214 215/215/215 216/216/216
f 217/217/217 218/218/218 219/219/219
f 220/220/220 221/221/221 222/222/222
f 223/223/223 224/224/224 225/225/225
f 226/226/226 227/227/227 228/228/228
f 229/229/229 230/230/230 231/231/231
f 232/232/232 233/233/233 234/234/234
f 235/235/235 236/236/236 237/237/237
f 238/238/238 239/239/239 240/240/240
f 241/241/241 242/242/242 243/243/243
f 244/244/244 245/245/245 246/246/246
f 247/247/247 248/248/248 249/249/249
f 250/250/250 251/251/251 252/252/252
f 253/253/253 254/254/254 255/255/255
f 256/256/256 257/257/257 258/258/258
f 259/259/259 260/260/260 261/261/261
f 262/262/262 263/263/263 264/264/264
f 265/265/265 266/266/266 267/267/267
f 268/268/268 269/269/269 270/270/270
f 271/271/271 272/272/272 273/273/273
f 274/274/274 275/275/275 276/276/276
f 277/277/277 278/278/278 279/279/279
f 280/280/280 281/281/281 282/282/282
f 283/283/283 284/284/284 285/285/285
f 286/286/286 287/287/287 288/288/288
f 289/289/289 290/290/290 291/291/291
f 292/292/292 293/293/293 294/294/294
f 295/295/295 296/296/296 297/297/297
f 298/298/298 299/299/299 300/300/300
f 301/301/301 302/302/302 303/303/303
f 304/304/304 305/305/305 306/306/306
f 307/307/307 308/308/308 309/309/309
f 310/310/310 311/311/311 312/312/312
f 313/313/313 314/314/314 315/315/315
f 316/316/316 317/317/317 318/318/318
f 319/319/319 320/320/320 321/321/321
f 322/322/322 323/323/323 324/324/324
f 325/325/325 326/326/326 327/327/327
f 328/328/328 329/329/329 330/330/330
f 331/331/331 332/332/332 333/333/333
f 334/334/334 335/335/335 336/336/336
f 337/337/337 338/338/338 339/339/339
f 340/340/340 341/341/341 342/342/342
f 343/343/343 344/344/344 345/345/345
f 346/346/346 347/347/347 348/348/348
f 349/349/349 350/350/350 351/351/351
f 352/352/352 353/353/353 354/354/354
f 355/355/355 356/356/356 357/357/357
f 358/358/358 359/359/359 360/360/360
f 361/361/361 362/362/362 363/363/363
f 364/364/364 365/365/365 366/366/366
f 367/367/367 368/368/368 369/369/369
f 370/370/370 371/371/371 372/372/372
f 373/373/373 374/374/374 375/375/375
f 376/376/376 377/377/377 378/378/378
f 379/379/379 380/380/380 381/381/381
f 382/382/382 383/383/383 384/384/384
f 385/385/385 386/386/386 387/387/387
f 388/388/388 389/389/389 390/390/390
f 391/391/391 392/392/392 393/393/393
f 394/394/394 395/395/395 396/396/396
f 397/397/397 398/398/398 399/399/399
f 400/400/400 401/401/401 402/402/402
f 403/403/403 404/404/404 405/405/405
f 406/406/406 407/407/407 408/408/408
f 409/409/409 410/410/410 411/411/411
f 412/412/412 413/413/413 414/414/414
f 415/415/415 416/416/416 417/417/417
f 418/418/418 419/419/419 420/420/420
f 421/421/421 422/422/422 423/423/423
f 424/424/424 425/425/425 426/426/426
f 427/427/427 428/428/428 429/429/429
f 430/430/430 431/431/431 432/432/432
f 433/433/433 434/434/434 435/435/435
f 436/436/436 437/437/437 438/438/438
f 439/439/439 440/440/440 441/441/441
f 442/442/442 443/443/443 444/444/444
f 445/445/445 446/446/446 447/447/447
f 448/448/448 449/449/449 450/450/450
f 451/451/451 452/452/452 453/453/453
f 454/454/454 455/455/455 456/456/456
f 457/457/457 458/458/458 459/459/459
f 460/460/460 461/461/461 462/462/462
f 463/463/463 464/464/464 465/465/465
f 466/466/466 467/467/467 468/468/468
f 469/469/469 470/470/470 471/471/471
f 472/472/472 473/473/473 474/474/474
f 475/475/475 476/476/476 477/477/477
f 478/478/478 479/479/479 480/480/480
f 481/481/481 482/482/482 483/483/483
f 484/484/484 485/485/485 486/486/486
f 487/487/487 488/488/488 489/489/489
f 490/490/490 491/491/491 492/492/492
f 493/493/493 494/494/494 495/495/495
f 496/496/496 497/497/497 498/498/498
f 499/499/499 500/500/500 501/501/501
f 502/502/502 503/503/503 504/504/504
f 505/505/505 506/506/506 507/507/507
f 508/508/508 509/509/509 510/510/510
f 511/511/511 512/512/512 513/513/513
f 514/514/514 515/515/515 516/516/516
f 517/517/517 518/518/518 519/519/519
f 520/520/520 521/521/521 522/522/522
f 523/523/523 524/524/524 525/525/525
f 526/526/526 527/527/527 528/528/528
f 529/529/529 530/530/530 531/531/531
f 532/532/532 533/533/533 534/534/534
f 535/535/535 536/536/536 537/537/537
f 538/538/538 539/539/539 540/540/540
f 541/541/541 542/542/542 543/543/543
f 544/544/544 545/545/545 546/546/546
f 547/547/547 548/548/548 549/549/549
f 550/550/550 551/551/551 552/552/552
f 553/553/553 554/554/554 555/555/555
f 556/556/556 557/557/557 558/558/558
f 559/559/559 560/560/560 561/561/561
f 562/562/562 563/563/563 564/564/564
f 565/565/565 566/566/566 567/567/567
f 568/568/568 569/569/569 570/570/570
f 571/571/571 572/572/572 573/573/573
f 574/574/574 575/575/575 576/576/576
f 577/577/577 578/578/578 579/579/579
f 580/580/580 581/581/581 582/582/582
f 583/583/583 584/584/584 585/585/585
f 586/586/586 587/587/587 588/588/588
f 589/589/589 590/590/590 591/591/591
f 592/592/592 593/593/593 594/594/594
f 595/595/595 596/596/596 597/597/597
f 598/598/598 599/599/599 600/600/600
f 601/601/601 602/602/602 603/603/603
f 604/604/604 605/605/605 606/606/606
f 607/607/607 608/608/608 609/609/609
f 610/610/610 611/611/611 612/612/612
f 613/613/613 614/614/614 615/615/615
f 616/616/616 617/617/617 618/618/618
f 619/619/619 620/620/620 621/621/621
f 622/622/622 623/623/623 624/624/624
f 625/625/625 626/626/626 627/627/627
f 628/628/628 629/629/629 630/630/630
f 631/631/631 632/632/632 633/633/633
f 634/634/634 635/635/635 636/636/636
f 637/637/637 638/638/638 639/639/639
f 640/640/640 641/641/641 642/642/642
f 643/643/643 644/644/644 645/645/645
f 646/646/646 647/647/647 648/648/648
f 649/649/649 650/650/650 651/651/651
f 652/652/652 653/653/653 654/654/654
f 655/655/655 656/656/656 657/657/657
f 658/658/658 659/659/659 660/660/660
f 661/661/661 662/662/662 663/663/663
f 664/664/664 665/665/665 666/666/666
f 667/667/667 668/668/668 669/669/669
f 670/670/670 671/671/671 672/672/672
f 673/673/673 674/674/674 675/675/675
f 676/676/676 677/677/677 678/678/678
f 679/679/679 680/680/680 681/681/681
f 682/682/682 683/683/683 684/684/684
f 685/685/685 686/686/686 687/687/687
f 688/688/688 689/689/689 690/690/690
f 691/691/691 692/692/692 693/693/693
f 694/694/694 695/695/695 696/696/696
f 697/697/697 698/698/698 699/699/699
f 700/700/700 701/701/701 702/702/702
f 703/703/703 704/704/704 705/705/705
f 706/706/706 707/707/707 708/708/708
f 709/709/709 710/710/710 711/711/711
f 712/712/712 713/713/713 714/714/714
f 715/715/715 716/716/716 717/717/717
f 718/718/718 719/719/719 720/720/720
f 721/721/721 722/722/722 723/723/723
