# metre = block; Y up; per-cell coordinates; atlas UVs preserved
mtllib materials.mtl
o cell_71
usemtl pump_atlas
v 0.0000000 0.2213719 0.1483718
v 0.0745001 0.1616523 0.0886523
v 0.0745001 0.2296776 0.0000000
v 0.0000000 0.2213719 0.1483718
v 0.0745001 0.2296776 0.0000000
v 0.0368805 0.2829731 0.0000000
v 0.0000000 0.2213719 0.1483718
v 0.0368805 0.2829731 0.0000000
v 0.0000000 0.2722129 0.0821145
v 0.0000000 0.2722129 0.0821145
v 0.0368805 0.2829731 0.0000000
v 0.0000000 0.3352214 0.0000000
v 0.0000000 0.0314681 0.2940900
v 0.0555169 0.0000000 0.2395858
v 0.0745001 0.0000000 0.2126923
v 0.0000000 0.0314681 0.2940900
v 0.0745001 0.0000000 0.2126923
v 0.0745001 0.1616523 0.0886523
v 0.0000000 0.0314681 0.2940900
v 0.0745001 0.1616523 0.0886523
v 0.0000000 0.0977254 0.2432490
v 0.0000000 0.0977254 0.2432490
v 0.0745001 0.1616523 0.0886523
v 0.0000000 0.2213719 0.1483718
v 0.0555169 0.0000000 0.2395858
v 0.0000000 0.0314681 0.2940900
v 0.0000000 0.0000000 0.3071245
v 0.0745001 0.0062965 0.0000000
v 0.0745001 0.0000000 0.0048315
v 0.0745001 0.0000000 0.0000000
v 0.0745001 0.0000000 0.0048315
v 0.0745001 0.0062965 0.0000000
v 0.0745001 0.1488723 0.0000000
v 0.0745001 0.0000000 0.0048315
v 0.0745001 0.1488723 0.0000000
v 0.0745001 0.0000000 0.0859515
v 0.0745001 0.0000000 0.0859515
v 0.0745001 0.1488723 0.0000000
v 0.0745001 0.2296776 0.0000000
v 0.0745001 0.0000000 0.0859515
v 0.0745001 0.2296776 0.0000000
v 0.0745001 0.1616523 0.0886523
v 0.0745001 0.0000000 0.0859515
v 0.0745001 0.1616523 0.0886523
v 0.0745001 0.0000000 0.1556109
v 0.0745001 0.0000000 0.1556109
v 0.0745001 0.1616523 0.0886523
v 0.0745001 0.0000000 0.2126923
vt 0.3983204 0.1016796
vt 0.4019291 0.0980709
vt 0.4072862 0.1021815
vt 0.3983204 0.1016796
vt 0.4072862 0.1021815
vt 0.4072862 0.1054020
vt 0.3983204 0.1016796
vt 0.4072862 0.1054020
vt 0.4023242 0.1047518
vt 0.4023242 0.1047518
vt 0.4072862 0.1054020
vt 0.4072861 0.1085593
vt 0.3895149 0.0902042
vt 0.3928085 0.0883026
vt 0.3944336 0.0883026
vt 0.3895149 0.0902042
vt 0.3944336 0.0883026
vt 0.4019291 0.0980709
vt 0.3895149 0.0902042
vt 0.4019291 0.0980709
vt 0.3925871 0.0942080
vt 0.3925871 0.0942080
vt 0.4019291 0.0980709
vt 0.3983204 0.1016796
vt 0.3928085 0.0883026
vt 0.3895149 0.0902042
vt 0.3887273 0.0883026
vt 0.4072861 0.0886831
vt 0.4069941 0.0883026
vt 0.4072861 0.0883026
vt 0.4069941 0.0883026
vt 0.4072861 0.0886831
vt 0.4072862 0.0972987
vt 0.4069941 0.0883026
vt 0.4072862 0.0972987
vt 0.4020923 0.0883026
vt 0.4020923 0.0883026
vt 0.4072862 0.0972987
vt 0.4072862 0.1021815
vt 0.4020923 0.0883026
vt 0.4072862 0.1021815
vt 0.4019291 0.0980709
vt 0.4020923 0.0883026
vt 0.4019291 0.0980709
vt 0.3978829 0.0883026
vt 0.3978829 0.0883026
vt 0.4019291 0.0980709
vt 0.3944336 0.0883026
vn 0.7499262 0.4677664 0.4677663
vn 0.7499262 0.4677664 0.4677663
vn 0.7527352 0.5237768 0.3988078
vn 0.7499262 0.4677664 0.4677663
vn 0.7527352 0.5237768 0.3988078
vn 0.7523334 0.5419438 0.3745548
vn 0.7499262 0.4677664 0.4677663
vn 0.7523334 0.5419438 0.3745548
vn 0.7525862 0.5099692 0.4165879
vn 0.7525862 0.5099692 0.4165879
vn 0.7523334 0.5419438 0.3745548
vn 0.7517672 0.5525062 0.3599763
vn 0.7499259 0.3307603 0.5728951
vn 0.7499259 0.3307602 0.5728952
vn 0.7505811 0.3396071 0.5668290
vn 0.7499259 0.3307603 0.5728951
vn 0.7505811 0.3396071 0.5668290
vn 0.7499262 0.4677664 0.4677663
vn 0.7499259 0.3307603 0.5728951
vn 0.7499262 0.4677664 0.4677663
vn 0.7525860 0.3847711 0.5343833
vn 0.7525860 0.3847711 0.5343833
vn 0.7499262 0.4677664 0.4677663
vn 0.7499262 0.4677664 0.4677663
vn 0.7499259 0.3307602 0.5728952
vn 0.7499259 0.3307603 0.5728951
vn 0.7512315 0.3098304 0.5828005
vn 1.0000000 0.0000000 0.0000000
vn 1.0000000 0.0000000 0.0000000
vn 1.0000000 0.0000000 0.0000000
vn 1.0000000 0.0000000 0.0000000
vn 1.0000000 0.0000000 0.0000000
vn 1.0000000 0.0000000 0.0000000
vn 1.0000000 0.0000000 0.0000000
vn 1.0000000 0.0000000 0.0000000
vn 1.0000000 0.0000000 0.0000000
vn 1.0000000 0.0000000 0.0000000
vn 1.0000000 0.0000000 0.0000000
vn 1.0000000 0.0000000 0.0000000
vn 1.0000000 0.0000000 0.0000000
vn 1.0000000 0.0000000 0.0000000
vn 1.0000000 0.0000000 0.0000000
vn 1.0000000 0.0000000 0.0000000
vn 1.0000000 0.0000000 0.0000000
vn 1.0000000 0.0000000 0.0000000
vn 1.0000000 0.0000000 0.0000000
vn 1.0000000 0.0000000 0.0000000
vn 1.0000000 0.0000000 0.0000000
f 1/1/1 2/2/2 3/3/3
f 4/4/4 5/5/5 6/6/6
f 7/7/7 8/8/8 9/9/9
f 10/10/10 11/11/11 12/12/12
f 13/13/13 14/14/14 15/15/15
f 16/16/16 17/17/17 18/18/18
f 19/19/19 20/20/20 21/21/21
f 22/22/22 23/23/23 24/24/24
f 25/25/25 26/26/26 27/27/27
f 28/28/28 29/29/29 30/30/30
f 31/31/31 32/32/32 33/33/33
f 34/34/34 35/35/35 36/36/36
f 37/37/37 38/38/38 39/39/39
f 40/40/40 41/41/41 42/42/42
f 43/43/43 44/44/44 45/45/45
f 46/46/46 47/47/47 48/48/48
