# metre = block; Y up; per-cell coordinates; atlas UVs preserved
mtllib materials.mtl
o cell_15
usemtl pump_atlas
v 0.0000000 0.7789099 0.9584681
v 0.0745001 0.8520511 0.9162400
v 0.0368805 0.8630270 1.0000000
v 0.0000000 0.7789099 0.9584681
v 0.0368805 0.8630270 1.0000000
v 0.0000000 0.8107785 1.0000000
v 0.0368805 0.8630270 1.0000000
v 0.0745001 0.8520511 0.9162400
v 0.0745001 0.9163224 1.0000000
v 0.0000000 0.6873076 0.7373206
v 0.0745001 0.7688860 0.7154617
v 0.0000000 0.7469499 0.8813098
v 0.0000000 0.7469499 0.8813098
v 0.0745001 0.7688860 0.7154617
v 0.0745001 0.8520511 0.9162400
v 0.0000000 0.7469499 0.8813098
v 0.0745001 0.8520511 0.9162400
v 0.0000000 0.7789099 0.9584681
v 0.0000000 0.6560637 0.5000000
v 0.0745001 0.7405199 0.5000000
v 0.0000000 0.6764067 0.6545196
v 0.0000000 0.6764067 0.6545196
v 0.0745001 0.7405199 0.5000000
v 0.0745001 0.7688860 0.7154617
v 0.0000000 0.6764067 0.6545196
v 0.0745001 0.7688860 0.7154617
v 0.0000000 0.6873076 0.7373206
v 0.0000000 0.6873076 0.2626794
v 0.0745001 0.7688860 0.2845383
v 0.0000000 0.6669647 0.4171990
v 0.0000000 0.6669647 0.4171990
v 0.0745001 0.7688860 0.2845383
v 0.0745001 0.7405199 0.5000000
v 0.0000000 0.6669647 0.4171990
v 0.0745001 0.7405199 0.5000000
v 0.0000000 0.6560637 0.5000000
v 0.0000000 0.7789099 0.0415319
v 0.0745001 0.8520511 0.0837600
v 0.0000000 0.7192676 0.1855212
v 0.0000000 0.7192676 0.1855212
v 0.0745001 0.8520511 0.0837600
v 0.0745001 0.7688860 0.2845383
v 0.0000000 0.7192676 0.1855212
v 0.0745001 0.7688860 0.2845383
v 0.0000000 0.6873076 0.2626794
v 0.0745001 0.9163224 0.0000000
v 0.0745001 0.8520511 0.0837600
v 0.0000000 0.7789099 0.0415319
v 0.0745001 0.9163224 0.0000000
v 0.0000000 0.7789099 0.0415319
v 0.0000000 0.8107785 0.0000000
v 0.0745001 0.9163224 1.0000000
v 0.0745001 0.8520511 0.9162400
v 0.0745001 0.9971277 1.0000000
v 0.0745001 0.9971277 1.0000000
v 0.0745001 0.8520511 0.9162400
v 0.0745001 0.7688860 0.7154617
v 0.0745001 0.9971277 1.0000000
v 0.0745001 0.7688860 0.7154617
v 0.0745001 1.0000000 0.8928017
v 0.0745001 0.9971277 1.0000000
v 0.0745001 1.0000000 0.8928017
v 0.0745001 1.0000000 1.0000000
v 0.0745001 1.0000000 0.8928017
v 0.0745001 0.7688860 0.7154617
v 0.0745001 0.7405199 0.5000000
v 0.0745001 1.0000000 0.8928017
v 0.0745001 0.7405199 0.5000000
v 0.0745001 1.0000000 0.7594801
v 0.0745001 1.0000000 0.7594801
v 0.0745001 0.7405199 0.5000000
v 0.0745001 0.7688860 0.2845383
v 0.0745001 1.0000000 0.7594801
v 0.0745001 0.7688860 0.2845383
v 0.0745001 1.0000000 0.5857319
v 0.0745001 1.0000000 0.5857319
v 0.0745001 0.7688860 0.2845383
v 0.0745001 0.8520511 0.0837600
v 0.0745001 1.0000000 0.5857319
v 0.0745001 0.8520511 0.0837600
v 0.0745001 1.0000000 0.3400150
v 0.0745001 1.0000000 0.3400150
v 0.0745001 0.8520511 0.0837600
v 0.0745001 0.9163224 0.0000000
v 0.0745001 1.0000000 0.3400150
v 0.0745001 0.9163224 0.0000000
v 0.0745001 1.0000000 0.0000000
v 0.0767000 1.0000000 0.8317282
v 0.0767000 0.9995180 0.8311000
v 0.0888002 0.9995180 0.8311000
v 0.0767000 1.0000000 0.8317282
v 0.0888002 0.9995180 0.8311000
v 0.0887448 1.0000000 0.8317282
v 0.0887448 1.0000000 0.8317282
v 0.0888002 0.9995180 0.8311000
v 0.0888002 1.0000000 0.8317282
v 0.0767000 0.9995180 0.8311000
v 0.0767000 0.9333639 0.6713900
v 0.0888002 0.9333639 0.6713900
v 0.0767000 0.9995180 0.8311000
v 0.0888002 0.9333639 0.6713900
v 0.0888002 0.9995180 0.8311000
v 0.0767000 0.9333639 0.6713900
v 0.0767000 0.9108000 0.5000000
v 0.0888002 0.9108000 0.5000000
v 0.0767000 0.9333639 0.6713900
v 0.0888002 0.9108000 0.5000000
v 0.0888002 0.9333639 0.6713900
v 0.0767000 0.9108000 0.5000000
v 0.0767000 0.9333639 0.3286100
v 0.0888002 0.9333639 0.3286100
v 0.0767000 0.9108000 0.5000000
v 0.0888002 0.9333639 0.3286100
v 0.0888002 0.9108000 0.5000000
v 0.0767000 0.9333639 0.3286100
v 0.0767000 0.9995180 0.1689000
v 0.0888002 0.9995180 0.1689000
v 0.0767000 0.9333639 0.3286100
v 0.0888002 0.9995180 0.1689000
v 0.0888002 0.9333639 0.3286100
v 0.0767000 0.9995180 0.1689000
v 0.0767000 1.0000000 0.1682718
v 0.0767554 1.0000000 0.1682718
v 0.0767000 0.9995180 0.1689000
v 0.0767554 1.0000000 0.1682718
v 0.0888002 1.0000000 0.1682718
v 0.0767000 0.9995180 0.1689000
v 0.0888002 1.0000000 0.1682718
v 0.0888002 0.9995180 0.1689000
v 0.0767000 1.0000000 0.1682718
v 0.0767000 0.9995180 0.1689000
v 0.0767000 1.0000000 0.1697348
v 0.0767000 1.0000000 0.1697348
v 0.0767000 0.9995180 0.1689000
v 0.0767000 0.9333639 0.3286100
v 0.0767000 1.0000000 0.1697348
v 0.0767000 0.9333639 0.3286100
v 0.0767000 1.0000000 0.4154519
v 0.0767000 1.0000000 0.4154519
v 0.0767000 0.9333639 0.3286100
v 0.0767000 0.9108000 0.5000000
v 0.0767000 1.0000000 0.4154519
v 0.0767000 0.9108000 0.5000000
v 0.0767000 1.0000000 0.5892000
v 0.0767000 1.0000000 0.5892000
v 0.0767000 0.9108000 0.5000000
v 0.0767000 0.9333639 0.6713900
v 0.0767000 1.0000000 0.5892000
v 0.0767000 0.9333639 0.6713900
v 0.0767000 1.0000000 0.7225217
v 0.0767000 1.0000000 0.7225217
v 0.0767000 0.9333639 0.6713900
v 0.0767000 0.9995180 0.8311000
v 0.0767000 1.0000000 0.7225217
v 0.0767000 0.9995180 0.8311000
v 0.0767000 1.0000000 0.8313783
v 0.0767000 1.0000000 0.8313783
v 0.0767000 0.9995180 0.8311000
v 0.0767000 1.0000000 0.8317282
v 0.0888002 1.0000000 0.8317282
v 0.0888002 0.9995180 0.8311000
v 0.0888002 1.0000000 0.8313783
v 0.0888002 1.0000000 0.8313783
v 0.0888002 0.9995180 0.8311000
v 0.0888002 0.9333639 0.6713900
v 0.0888002 1.0000000 0.8313783
v 0.0888002 0.9333639 0.6713900
v 0.0888002 1.0000000 0.7225217
v 0.0888002 1.0000000 0.7225217
v 0.0888002 0.9333639 0.6713900
v 0.0888002 0.9108000 0.5000000
v 0.0888002 1.0000000 0.7225217
v 0.0888002 0.9108000 0.5000000
v 0.0888002 1.0000000 0.5892000
v 0.0888002 1.0000000 0.5892000
v 0.0888002 0.9108000 0.5000000
v 0.0888002 0.9333639 0.3286100
v 0.0888002 1.0000000 0.5892000
v 0.0888002 0.9333639 0.3286100
v 0.0888002 1.0000000 0.4154519
v 0.0888002 1.0000000 0.4154519
v 0.0888002 0.9333639 0.3286100
v 0.0888002 0.9995180 0.1689000
v 0.0888002 1.0000000 0.4154519
v 0.0888002 0.9995180 0.1689000
v 0.0888002 1.0000000 0.1697348
v 0.0888002 1.0000000 0.1697348
v 0.0888002 0.9995180 0.1689000
v 0.0888002 1.0000000 0.1682718
v 0.1086001 0.9986055 0.7379220
v 0.0965002 0.9874265 0.7425525
v 0.0965002 0.9939750 0.7267431
v 0.0965002 0.9939750 0.7267431
v 0.0965002 0.9874265 0.7425525
v 0.0844002 0.9986055 0.7379220
v 0.0965002 0.9874265 0.7425525
v 0.0965002 1.0000000 0.7477606
v 0.0880443 1.0000000 0.7412887
v 0.0965002 0.9874265 0.7425525
v 0.0880443 1.0000000 0.7412887
v 0.0844002 0.9986055 0.7379220
v 0.1086001 0.9986055 0.7379220
v 0.1049561 1.0000000 0.7412887
v 0.0965002 1.0000000 0.7477606
v 0.1086001 0.9986055 0.7379220
v 0.0965002 1.0000000 0.7477606
v 0.0965002 0.9874265 0.7425525
v 0.1086001 0.9986055 0.7379220
v 0.0965002 0.9939750 0.7267431
v 0.0965002 1.0000000 0.7242475
v 0.1086001 0.9986055 0.7379220
v 0.0965002 1.0000000 0.7242475
v 0.1085854 1.0000000 0.7373284
v 0.1086001 0.9986055 0.7379220
v 0.1085854 1.0000000 0.7373284
v 0.1086001 1.0000000 0.7373444
v 0.0965002 0.9939750 0.7267431
v 0.0844002 0.9986055 0.7379220
v 0.0844002 1.0000000 0.7373444
v 0.0965002 0.9939750 0.7267431
v 0.0844002 1.0000000 0.7373444
v 0.0964370 1.0000000 0.7243159
v 0.0965002 0.9939750 0.7267431
v 0.0964370 1.0000000 0.7243159
v 0.0965002 1.0000000 0.7242475
v 0.0844002 1.0000000 0.7373444
v 0.0844002 0.9986055 0.7379220
v 0.0880443 1.0000000 0.7412887
v 0.1086001 0.9986055 0.7379220
v 0.1086001 1.0000000 0.7373444
v 0.1085855 1.0000000 0.7373602
v 0.1086001 0.9986055 0.7379220
v 0.1085855 1.0000000 0.7373602
v 0.1049561 1.0000000 0.7412887
v 0.1086001 0.9512799 0.5000000
v 0.0965002 0.9391799 0.5000000
v 0.0965002 0.9512799 0.4879000
v 0.0965002 0.9512799 0.4879000
v 0.0965002 0.9391799 0.5000000
v 0.0844002 0.9512799 0.5000000
v 0.0965002 0.9391799 0.5000000
v 0.0965002 0.9512799 0.5121000
v 0.0844002 0.9512799 0.5000000
v 0.1086001 0.9512799 0.5000000
v 0.0965002 0.9512799 0.5121000
v 0.0965002 0.9391799 0.5000000
v 0.1086001 0.9512799 0.5000000
v 0.0965002 0.9512799 0.4879000
v 0.0965002 1.0000000 0.4879000
v 0.1086001 0.9512799 0.5000000
v 0.0965002 1.0000000 0.4879000
v 0.1081260 1.0000000 0.4995259
v 0.1086001 0.9512799 0.5000000
v 0.1081260 1.0000000 0.4995259
v 0.1086001 1.0000000 0.5000000
v 0.0965002 0.9512799 0.4879000
v 0.0844002 0.9512799 0.5000000
v 0.0844002 1.0000000 0.5000000
v 0.0965002 0.9512799 0.4879000
v 0.0844002 1.0000000 0.5000000
v 0.0960261 1.0000000 0.4883741
v 0.0965002 0.9512799 0.4879000
v 0.0960261 1.0000000 0.4883741
v 0.0965002 1.0000000 0.4879000
v 0.0965002 0.9512799 0.5121000
v 0.0965002 1.0000000 0.5121000
v 0.0960261 1.0000000 0.5116259
v 0.0965002 0.9512799 0.5121000
v 0.0960261 1.0000000 0.5116259
v 0.0844002 1.0000000 0.5000000
v 0.0965002 0.9512799 0.5121000
v 0.0844002 1.0000000 0.5000000
v 0.0844002 0.9512799 0.5000000
v 0.1086001 0.9512799 0.5000000
v 0.1086001 1.0000000 0.5000000
v 0.1081260 1.0000000 0.5004741
v 0.1086001 0.9512799 0.5000000
v 0.1081260 1.0000000 0.5004741
v 0.0965002 1.0000000 0.5121000
v 0.1086001 0.9512799 0.5000000
v 0.0965002 1.0000000 0.5121000
v 0.0965002 0.9512799 0.5121000
v 0.0844002 0.9986054 0.2620780
v 0.0965002 0.9874265 0.2574476
v 0.0965002 0.9939750 0.2732570
v 0.0965002 0.9939750 0.2732570
v 0.0965002 0.9874265 0.2574476
v 0.1086001 0.9986054 0.2620780
v 0.0965002 0.9874265 0.2574476
v 0.0965002 1.0000000 0.2522395
v 0.1049559 1.0000000 0.2587112
v 0.0965002 0.9874265 0.2574476
v 0.1049559 1.0000000 0.2587112
v 0.1086001 0.9986054 0.2620780
v 0.0844002 0.9986054 0.2620780
v 0.0880444 1.0000000 0.2587112
v 0.0965002 1.0000000 0.2522395
v 0.0844002 0.9986054 0.2620780
v 0.0965002 1.0000000 0.2522395
v 0.0965002 0.9874265 0.2574476
v 0.0844002 0.9986054 0.2620780
v 0.0965002 0.9939750 0.2732570
v 0.0965002 1.0000000 0.2757526
v 0.0844002 0.9986054 0.2620780
v 0.0965002 1.0000000 0.2757526
v 0.0844149 1.0000000 0.2626716
v 0.0844002 0.9986054 0.2620780
v 0.0844149 1.0000000 0.2626716
v 0.0844002 1.0000000 0.2626557
v 0.0965002 0.9939750 0.2732570
v 0.1086001 0.9986054 0.2620780
v 0.1086001 1.0000000 0.2626557
v 0.0965002 0.9939750 0.2732570
v 0.1086001 1.0000000 0.2626557
v 0.0965634 1.0000000 0.2756842
v 0.0965002 0.9939750 0.2732570
v 0.0965634 1.0000000 0.2756842
v 0.0965002 1.0000000 0.2757526
v 0.1086001 1.0000000 0.2626557
v 0.1086001 0.9986054 0.2620780
v 0.1049559 1.0000000 0.2587112
v 0.0844002 0.9986054 0.2620780
v 0.0844002 1.0000000 0.2626557
v 0.0844148 1.0000000 0.2626398
v 0.0844002 0.9986054 0.2620780
v 0.0844148 1.0000000 0.2626398
v 0.0880444 1.0000000 0.2587112
v 0.0205998 0.0572000 1.0000000
v 0.0205998 0.0572000 0.0000000
v 0.0298361 0.0479638 0.0000000
v 0.0205998 0.0572000 1.0000000
v 0.0298361 0.0479638 0.0000000
v 0.0245636 0.0532362 1.0000000
v 0.0245636 0.0532362 1.0000000
v 0.0298361 0.0479638 0.0000000
v 0.0337999 0.0440000 0.0000000
v 0.0245636 0.0532362 1.0000000
v 0.0337999 0.0440000 0.0000000
v 0.0337999 0.0440000 1.0000000
v 0.2493999 0.0440000 1.0000000
v 0.2493999 0.0440000 0.0000000
v 0.2586361 0.0532362 0.0000000
v 0.2493999 0.0440000 1.0000000
v 0.2586361 0.0532362 0.0000000
v 0.2533637 0.0479638 1.0000000
v 0.2533637 0.0479638 1.0000000
v 0.2586361 0.0532362 0.0000000
v 0.2625999 0.0572000 0.0000000
v 0.2533637 0.0479638 1.0000000
v 0.2625999 0.0572000 0.0000000
v 0.2625999 0.0572000 1.0000000
v 0.0337999 0.2640000 1.0000000
v 0.0337999 0.2640000 0.0000000
v 0.0298361 0.2600362 0.0000000
v 0.0337999 0.2640000 1.0000000
v 0.0298361 0.2600362 0.0000000
v 0.0245636 0.2547638 1.0000000
v 0.0245636 0.2547638 1.0000000
v 0.0298361 0.2600362 0.0000000
v 0.0205998 0.2508000 0.0000000
v 0.0245636 0.2547638 1.0000000
v 0.0205998 0.2508000 0.0000000
v 0.0205998 0.2508000 1.0000000
v 0.2625999 0.2508000 1.0000000
v 0.2625999 0.2508000 0.0000000
v 0.2586361 0.2547638 0.0000000
v 0.2625999 0.2508000 1.0000000
v 0.2586361 0.2547638 0.0000000
v 0.2533637 0.2600362 1.0000000
v 0.2533637 0.2600362 1.0000000
v 0.2586361 0.2547638 0.0000000
v 0.2493999 0.2640000 0.0000000
v 0.2533637 0.2600362 1.0000000
v 0.2493999 0.2640000 0.0000000
v 0.2493999 0.2640000 1.0000000
v 0.0337999 0.0440000 1.0000000
v 0.0337999 0.0440000 0.0000000
v 0.1846579 0.0440000 0.0000000
v 0.0337999 0.0440000 1.0000000
v 0.1846579 0.0440000 0.0000000
v 0.0985419 0.0440000 1.0000000
v 0.0985419 0.0440000 1.0000000
v 0.1846579 0.0440000 0.0000000
v 0.2493999 0.0440000 0.0000000
v 0.0985419 0.0440000 1.0000000
v 0.2493999 0.0440000 0.0000000
v 0.2493999 0.0440000 1.0000000
v 0.0205998 0.2508000 1.0000000
v 0.0205998 0.2508000 0.0000000
v 0.0205998 0.1926643 0.0000000
v 0.0205998 0.2508000 1.0000000
v 0.0205998 0.1926643 0.0000000
v 0.0205998 0.1153357 1.0000000
v 0.0205998 0.1153357 1.0000000
v 0.0205998 0.1926643 0.0000000
v 0.0205998 0.0572000 0.0000000
v 0.0205998 0.1153357 1.0000000
v 0.0205998 0.0572000 0.0000000
v 0.0205998 0.0572000 1.0000000
v 0.2625999 0.0572000 1.0000000
v 0.2625999 0.0572000 0.0000000
v 0.2625999 0.1926643 0.0000000
v 0.2625999 0.0572000 1.0000000
v 0.2625999 0.1926643 0.0000000
v 0.2625999 0.1153357 1.0000000
v 0.2625999 0.1153357 1.0000000
v 0.2625999 0.1926643 0.0000000
v 0.2625999 0.2508000 0.0000000
v 0.2625999 0.1153357 1.0000000
v 0.2625999 0.2508000 0.0000000
v 0.2625999 0.2508000 1.0000000
v 0.2493999 0.2640000 1.0000000
v 0.2493999 0.2640000 0.0000000
v 0.1846579 0.2640000 0.0000000
v 0.2493999 0.2640000 1.0000000
v 0.1846579 0.2640000 0.0000000
v 0.0985419 0.2640000 1.0000000
v 0.0985419 0.2640000 1.0000000
v 0.1846579 0.2640000 0.0000000
v 0.0337999 0.2640000 0.0000000
v 0.0985419 0.2640000 1.0000000
v 0.0337999 0.2640000 0.0000000
v 0.0337999 0.2640000 1.0000000
v 0.6531000 0.1870000 1.0000000
v 0.6531000 0.1870000 0.0000000
v 0.6598779 0.1937778 0.0000000
v 0.6531000 0.1870000 1.0000000
v 0.6598779 0.1937778 0.0000000
v 0.6562222 0.1901222 1.0000000
v 0.6562222 0.1901222 1.0000000
v 0.6598779 0.1937778 0.0000000
v 0.6630001 0.1969000 0.0000000
v 0.6562222 0.1901222 1.0000000
v 0.6630001 0.1969000 0.0000000
v 0.6630001 0.1969000 1.0000000
v 0.6630001 0.2321000 1.0000000
v 0.6630001 0.2321000 0.0000000
v 0.6598779 0.2352222 0.0000000
v 0.6630001 0.2321000 1.0000000
v 0.6598779 0.2352222 0.0000000
v 0.6562222 0.2388778 1.0000000
v 0.6562222 0.2388778 1.0000000
v 0.6598779 0.2352222 0.0000000
v 0.6531000 0.2420000 0.0000000
v 0.6562222 0.2388778 1.0000000
v 0.6531000 0.2420000 0.0000000
v 0.6531000 0.2420000 1.0000000
v 0.6531000 0.1870000 0.0000000
v 0.6531000 0.1870000 1.0000000
v 0.0000000 0.1870000 1.0000000
v 0.6531000 0.1870000 0.0000000
v 0.0000000 0.1870000 1.0000000
v 0.0000000 0.1870000 0.0000000
v 0.6630001 0.1969000 1.0000000
v 0.6630001 0.1969000 0.0000000
v 0.6630001 0.2209988 0.0000000
v 0.6630001 0.1969000 1.0000000
v 0.6630001 0.2209988 0.0000000
v 0.6630001 0.2080012 1.0000000
v 0.6630001 0.2080012 1.0000000
v 0.6630001 0.2209988 0.0000000
v 0.6630001 0.2321000 0.0000000
v 0.6630001 0.2080012 1.0000000
v 0.6630001 0.2321000 0.0000000
v 0.6630001 0.2321000 1.0000000
v 0.6531000 0.2420000 1.0000000
v 0.6531000 0.2420000 0.0000000
v 0.0000000 0.2420000 0.0000000
v 0.6531000 0.2420000 1.0000000
v 0.0000000 0.2420000 0.0000000
v 0.0000000 0.2420000 1.0000000
vt 0.4097958 0.0145149
vt 0.4123476 0.0189347
vt 0.4072862 0.0195980
vt 0.4097958 0.0145149
vt 0.4072862 0.0195980
vt 0.4072861 0.0164407
vt 0.4072862 0.0195980
vt 0.4123476 0.0189347
vt 0.4072862 0.0228185
vt 0.4231592 0.0089796
vt 0.4244801 0.0139092
vt 0.4144583 0.0125837
vt 0.4144583 0.0125837
vt 0.4244801 0.0139092
vt 0.4123476 0.0189347
vt 0.4144583 0.0125837
vt 0.4123476 0.0189347
vt 0.4097958 0.0145149
vt 0.4375000 0.0070916
vt 0.4375000 0.0121951
vt 0.4281627 0.0083209
vt 0.4281627 0.0083209
vt 0.4375000 0.0121951
vt 0.4244801 0.0139092
vt 0.4281627 0.0083209
vt 0.4244801 0.0139092
vt 0.4231592 0.0089796
vt 0.4518408 0.0089796
vt 0.4505199 0.0139092
vt 0.4425035 0.0077503
vt 0.4425035 0.0077503
vt 0.4505199 0.0139092
vt 0.4375000 0.0121951
vt 0.4425035 0.0077503
vt 0.4375000 0.0121951
vt 0.4375000 0.0070916
vt 0.4652042 0.0145149
vt 0.4626524 0.0189347
vt 0.4565032 0.0109109
vt 0.4565032 0.0109109
vt 0.4626524 0.0189347
vt 0.4505199 0.0139092
vt 0.4565032 0.0109109
vt 0.4505199 0.0139092
vt 0.4518408 0.0089796
vt 0.4677138 0.0228185
vt 0.4626524 0.0189347
vt 0.4652042 0.0145149
vt 0.4677138 0.0228185
vt 0.4652042 0.0145149
vt 0.4677139 0.0164407
vt 0.4072862 0.0228185
vt 0.4123476 0.0189347
vt 0.4072862 0.0277013
vt 0.4072862 0.0277013
vt 0.4123476 0.0189347
vt 0.4244801 0.0139092
vt 0.4072862 0.0277013
vt 0.4244801 0.0139092
vt 0.4137639 0.0278749
vt 0.4072862 0.0277013
vt 0.4137639 0.0278749
vt 0.4072862 0.0278749
vt 0.4137639 0.0278749
vt 0.4244801 0.0139092
vt 0.4375000 0.0121951
vt 0.4137639 0.0278749
vt 0.4375000 0.0121951
vt 0.4218202 0.0278749
vt 0.4218202 0.0278749
vt 0.4375000 0.0121951
vt 0.4505199 0.0139092
vt 0.4218202 0.0278749
vt 0.4505199 0.0139092
vt 0.4323194 0.0278749
vt 0.4323194 0.0278749
vt 0.4505199 0.0139092
vt 0.4626524 0.0189347
vt 0.4323194 0.0278749
vt 0.4626524 0.0189347
vt 0.4471675 0.0278749
vt 0.4471675 0.0278749
vt 0.4626524 0.0189347
vt 0.4677138 0.0228185
vt 0.4471675 0.0278749
vt 0.4677138 0.0228185
vt 0.4677138 0.0278749
vt 0.2539062 0.1581475
vt 0.2539062 0.1582031
vt 0.3710938 0.1582031
vt 0.2539062 0.1581475
vt 0.3710938 0.1582031
vt 0.3705571 0.1581475
vt 0.3705571 0.1581475
vt 0.3710938 0.1582031
vt 0.3710938 0.1581475
vt 0.2539062 0.1582031
vt 0.2539062 0.1723348
vt 0.3710938 0.1723348
vt 0.2539062 0.1582031
vt 0.3710938 0.1723348
vt 0.3710938 0.1582031
vt 0.2539062 0.1723348
vt 0.2539062 0.1875000
vt 0.3710938 0.1875000
vt 0.2539062 0.1723348
vt 0.3710938 0.1875000
vt 0.3710938 0.1723348
vt 0.2539062 0.1875000
vt 0.2539062 0.2026652
vt 0.3710938 0.2026652
vt 0.2539062 0.1875000
vt 0.3710938 0.2026652
vt 0.3710938 0.1875000
vt 0.2539062 0.2026652
vt 0.2539062 0.2167969
vt 0.3710938 0.2167969
vt 0.2539062 0.2026652
vt 0.3710938 0.2167969
vt 0.3710938 0.2026652
vt 0.2539062 0.2167969
vt 0.2539062 0.2168525
vt 0.2544429 0.2168525
vt 0.2539062 0.2167969
vt 0.2544429 0.2168525
vt 0.3710938 0.2168525
vt 0.2539062 0.2167969
vt 0.3710938 0.2168525
vt 0.3710938 0.2167969
vt 0.3418525 0.1367989
vt 0.3417969 0.1367563
vt 0.3417230 0.1367989
vt 0.3417230 0.1367989
vt 0.3417969 0.1367563
vt 0.3276652 0.1309028
vt 0.3417230 0.1367989
vt 0.3276652 0.1309028
vt 0.3199811 0.1367990
vt 0.3199811 0.1367990
vt 0.3276652 0.1309028
vt 0.3125000 0.1289062
vt 0.3199811 0.1367990
vt 0.3125000 0.1289062
vt 0.3046073 0.1367989
vt 0.3046073 0.1367989
vt 0.3125000 0.1289062
vt 0.2973348 0.1309028
vt 0.3046073 0.1367989
vt 0.2973348 0.1309028
vt 0.2928105 0.1367990
vt 0.2928105 0.1367990
vt 0.2973348 0.1309028
vt 0.2832031 0.1367563
vt 0.2928105 0.1367990
vt 0.2832031 0.1367563
vt 0.2831785 0.1367989
vt 0.2831785 0.1367989
vt 0.2832031 0.1367563
vt 0.2831475 0.1367989
vt 0.2831475 0.1367989
vt 0.2832031 0.1367563
vt 0.2831785 0.1367989
vt 0.2831785 0.1367989
vt 0.2832031 0.1367563
vt 0.2973348 0.1309028
vt 0.2831785 0.1367989
vt 0.2973348 0.1309028
vt 0.2928105 0.1367990
vt 0.2928105 0.1367990
vt 0.2973348 0.1309028
vt 0.3125000 0.1289062
vt 0.2928105 0.1367990
vt 0.3125000 0.1289062
vt 0.3046073 0.1367989
vt 0.3046073 0.1367989
vt 0.3125000 0.1289062
vt 0.3276652 0.1309028
vt 0.3046073 0.1367989
vt 0.3276652 0.1309028
vt 0.3199811 0.1367990
vt 0.3199811 0.1367990
vt 0.3276652 0.1309028
vt 0.3417969 0.1367563
vt 0.3199811 0.1367990
vt 0.3417969 0.1367563
vt 0.3417230 0.1367989
vt 0.3417230 0.1367989
vt 0.3417969 0.1367563
vt 0.3418525 0.1367989
vt 0.4228515 0.0193936
vt 0.4375000 0.0478516
vt 0.4228516 0.0050248
vt 0.4375000 0.0047452
vt 0.4375000 0.0625000
vt 0.4960938 0.0433416
vt 0.4375000 0.0039062
vt 0.4375000 0.0047958
vt 0.4511491 0.0050248
vt 0.4375000 0.0039062
vt 0.4511491 0.0050248
vt 0.4570312 0.0050248
vt 0.4375000 0.0050248
vt 0.4551462 0.0050248
vt 0.4841007 0.0047958
vt 0.4375000 0.0050248
vt 0.4841007 0.0047958
vt 0.4375000 0.0039062
vt 0.4228515 0.0193936
vt 0.4228516 0.0050248
vt 0.4228516 0.0056277
vt 0.4228515 0.0193936
vt 0.4228516 0.0056277
vt 0.4228515 0.0195162
vt 0.4228515 0.0193936
vt 0.4228515 0.0195162
vt 0.4228693 0.0195157
vt 0.4375000 0.0047452
vt 0.4960938 0.0433416
vt 0.4960938 0.0434346
vt 0.4375000 0.0047452
vt 0.4960938 0.0434346
vt 0.4378061 0.0053471
vt 0.4375000 0.0047452
vt 0.4378061 0.0053471
vt 0.4375000 0.0053495
vt 0.4570253 0.0051643
vt 0.4570312 0.0050248
vt 0.4511491 0.0050248
vt 0.4375000 0.0050248
vt 0.4375000 0.0051643
vt 0.4375708 0.0051638
vt 0.4375000 0.0050248
vt 0.4375708 0.0051638
vt 0.4551462 0.0050248
vt 0.4228515 0.0193936
vt 0.4375000 0.0478516
vt 0.4228516 0.0050248
vt 0.4375000 0.0047452
vt 0.4375000 0.0625000
vt 0.4960938 0.0433416
vt 0.4375000 0.0039062
vt 0.4375000 0.0050248
vt 0.4570312 0.0050248
vt 0.4375000 0.0050248
vt 0.4960938 0.0050248
vt 0.4375000 0.0039062
vt 0.4228515 0.0193936
vt 0.4228516 0.0050248
vt 0.4228516 0.0095288
vt 0.4228515 0.0193936
vt 0.4228516 0.0095288
vt 0.4228515 0.0233346
vt 0.4228515 0.0193936
vt 0.4228515 0.0233346
vt 0.4234255 0.0233346
vt 0.4375000 0.0047452
vt 0.4960938 0.0433416
vt 0.4960938 0.0463442
vt 0.4375000 0.0047452
vt 0.4960938 0.0463442
vt 0.4397958 0.0092601
vt 0.4375000 0.0047452
vt 0.4397958 0.0092601
vt 0.4375000 0.0092601
vt 0.4375000 0.0050248
vt 0.4375000 0.0095288
vt 0.4380739 0.0095288
vt 0.4375000 0.0050248
vt 0.4380739 0.0095288
vt 0.4568399 0.0095288
vt 0.4375000 0.0050248
vt 0.4568399 0.0095288
vt 0.4570312 0.0050248
vt 0.4375000 0.0050248
vt 0.4375000 0.0095288
vt 0.4397958 0.0095288
vt 0.4375000 0.0050248
vt 0.4397958 0.0095288
vt 0.4960938 0.0095288
vt 0.4375000 0.0050248
vt 0.4960938 0.0095288
vt 0.4960938 0.0050248
vt 0.4228515 0.0193936
vt 0.4375000 0.0478516
vt 0.4228516 0.0050248
vt 0.4375000 0.0047452
vt 0.4375000 0.0625000
vt 0.4960938 0.0433416
vt 0.4375000 0.0039062
vt 0.4375000 0.0047958
vt 0.4511489 0.0050248
vt 0.4375000 0.0039062
vt 0.4511489 0.0050248
vt 0.4570312 0.0050248
vt 0.4375000 0.0050248
vt 0.4551471 0.0050248
vt 0.4841007 0.0047958
vt 0.4375000 0.0050248
vt 0.4841007 0.0047958
vt 0.4375000 0.0039062
vt 0.4228515 0.0193936
vt 0.4228516 0.0050248
vt 0.4228516 0.0056277
vt 0.4228515 0.0193936
vt 0.4228516 0.0056277
vt 0.4228515 0.0195162
vt 0.4228515 0.0193936
vt 0.4228515 0.0195162
vt 0.4228693 0.0195157
vt 0.4375000 0.0047452
vt 0.4960938 0.0433416
vt 0.4960938 0.0434346
vt 0.4375000 0.0047452
vt 0.4960938 0.0434346
vt 0.4378061 0.0053471
vt 0.4375000 0.0047452
vt 0.4378061 0.0053471
vt 0.4375000 0.0053495
vt 0.4570253 0.0051643
vt 0.4570312 0.0050248
vt 0.4511489 0.0050248
vt 0.4375000 0.0050248
vt 0.4375000 0.0051643
vt 0.4375708 0.0051638
vt 0.4375000 0.0050248
vt 0.4375708 0.0051638
vt 0.4551471 0.0050248
vt 0.0042271 0.1677094
vt 0.0040439 0.2121054
vt 0.0085165 0.2121055
vt 0.0042271 0.1677094
vt 0.0085165 0.2121055
vt 0.0061466 0.1677094
vt 0.0061466 0.1677094
vt 0.0085165 0.2121055
vt 0.0098643 0.2106137
vt 0.0061466 0.1677094
vt 0.0098643 0.2106137
vt 0.0092871 0.1642335
vt 0.1147017 0.1643405
vt 0.1147017 0.2106596
vt 0.1191743 0.2106596
vt 0.1147017 0.1643405
vt 0.1191743 0.2106596
vt 0.1166211 0.1643404
vt 0.1166211 0.1643404
vt 0.1191743 0.2106596
vt 0.1210937 0.2113022
vt 0.1166211 0.1643404
vt 0.1210937 0.2113022
vt 0.1210938 0.1658377
vt 0.0406886 0.2460938
vt 0.0862382 0.2460938
vt 0.0856596 0.2439824
vt 0.0406886 0.2460938
vt 0.0856596 0.2439824
vt 0.0393404 0.2411739
vt 0.0393404 0.2411739
vt 0.0856596 0.2439824
vt 0.0856596 0.2390625
vt 0.0393404 0.2411739
vt 0.0856596 0.2390625
vt 0.0393404 0.2390625
vt 0.0393863 0.2390625
vt 0.0857666 0.2390625
vt 0.0857666 0.2411739
vt 0.0393863 0.2390625
vt 0.0857666 0.2411739
vt 0.0393863 0.2439824
vt 0.0393863 0.2439824
vt 0.0857666 0.2411739
vt 0.0826260 0.2458798
vt 0.0393863 0.2439824
vt 0.0826260 0.2458798
vt 0.0380386 0.2460020
vt 0.0092871 0.1642335
vt 0.0098643 0.2106137
vt 0.0829167 0.2106137
vt 0.0092871 0.1642335
vt 0.0829167 0.2106137
vt 0.0406381 0.1642335
vt 0.0406381 0.1642335
vt 0.0829167 0.2106137
vt 0.1147017 0.2106596
vt 0.0406381 0.1642335
vt 0.1147017 0.2106596
vt 0.1147017 0.1643405
vt 0.0393404 0.2390625
vt 0.0856596 0.2390625
vt 0.0856137 0.2076134
vt 0.0393404 0.2390625
vt 0.0856137 0.2076134
vt 0.0392334 0.1657816
vt 0.0392334 0.1657816
vt 0.0856137 0.2076134
vt 0.0856137 0.1354555
vt 0.0392334 0.1657816
vt 0.0856137 0.1354555
vt 0.0392334 0.1348145
vt 0.0394017 0.1359375
vt 0.0858022 0.1359375
vt 0.0857666 0.2080953
vt 0.0394017 0.1359375
vt 0.0857666 0.2080953
vt 0.0393863 0.1669047
vt 0.0393863 0.1669047
vt 0.0857666 0.2080953
vt 0.0857666 0.2390625
vt 0.0393863 0.1669047
vt 0.0857666 0.2390625
vt 0.0393863 0.2390625
vt 0.1151357 0.1644322
vt 0.1157129 0.2108735
vt 0.0843619 0.2108735
vt 0.1151357 0.1644322
vt 0.0843619 0.2108735
vt 0.0420833 0.1644322
vt 0.0420833 0.1644322
vt 0.0843619 0.2108735
vt 0.0102983 0.2106596
vt 0.0420833 0.1644322
vt 0.0102983 0.2106596
vt 0.0102983 0.1643404
vt 0.1209354 0.1660213
vt 0.1209354 0.2089787
vt 0.1210438 0.2089787
vt 0.1209354 0.1660213
vt 0.1210438 0.2089787
vt 0.1209854 0.1660213
vt 0.1209854 0.1660213
vt 0.1210438 0.2089787
vt 0.1210938 0.2111514
vt 0.1209854 0.1660213
vt 0.1210938 0.2111514
vt 0.1210938 0.1707381
vt 0.0410549 0.2250000
vt 0.0840514 0.2250000
vt 0.0840514 0.2316525
vt 0.0410549 0.2250000
vt 0.0840514 0.2316525
vt 0.0410549 0.2394413
vt 0.0410549 0.2394413
vt 0.0840514 0.2316525
vt 0.0841157 0.2459482
vt 0.0410549 0.2394413
vt 0.0841157 0.2459482
vt 0.0410845 0.2460267
vt 0.1209354 0.2089787
vt 0.1209354 0.1660213
vt 0.1104943 0.1660118
vt 0.1209354 0.2089787
vt 0.1104943 0.1660118
vt 0.1104943 0.2089692
vt 0.0410660 0.1500000
vt 0.0840757 0.1500000
vt 0.0840514 0.2013468
vt 0.0410660 0.1500000
vt 0.0840514 0.2013468
vt 0.0410549 0.1736532
vt 0.0410549 0.1736532
vt 0.0840514 0.2013468
vt 0.0840514 0.2250000
vt 0.0410549 0.1736532
vt 0.0840514 0.2250000
vt 0.0410549 0.2250000
vt 0.1209144 0.1660884
vt 0.1208897 0.2091242
vt 0.1104427 0.2091242
vt 0.1209144 0.1660884
vt 0.1104427 0.2091242
vt 0.1104673 0.1660884
vn 0.7499261 -0.5728946 0.3307607
vn 0.7499261 -0.5728946 0.3307607
vn 0.7523334 -0.5419437 0.3745551
vn 0.7499261 -0.5728946 0.3307607
vn 0.7523334 -0.5419437 0.3745551
vn 0.7517672 -0.5525061 0.3599765
vn 0.7523334 -0.5419437 0.3745551
vn 0.7499261 -0.5728946 0.3307607
vn 0.7527351 -0.5237768 0.3988080
vn 0.7499260 -0.6389809 0.1712147
vn 0.7499260 -0.6389809 0.1712146
vn 0.7525860 -0.6004134 0.2704035
vn 0.7525860 -0.6004134 0.2704035
vn 0.7499260 -0.6389809 0.1712146
vn 0.7499261 -0.5728946 0.3307607
vn 0.7525860 -0.6004134 0.2704035
vn 0.7499261 -0.5728946 0.3307607
vn 0.7499261 -0.5728946 0.3307607
vn 0.7499261 -0.6615216 0.0000000
vn 0.7499261 -0.6615216 0.0000000
vn 0.7525860 -0.6499404 0.1057915
vn 0.7525860 -0.6499404 0.1057915
vn 0.7499261 -0.6615216 0.0000000
vn 0.7499260 -0.6389809 0.1712146
vn 0.7525860 -0.6499404 0.1057915
vn 0.7499260 -0.6389809 0.1712146
vn 0.7499260 -0.6389809 0.1712147
vn 0.7499260 -0.6389809 -0.1712147
vn 0.7499260 -0.6389809 -0.1712146
vn 0.7525860 -0.6551750 -0.0660304
vn 0.7525860 -0.6551750 -0.0660304
vn 0.7499260 -0.6389809 -0.1712146
vn 0.7499261 -0.6615216 0.0000000
vn 0.7525860 -0.6551750 -0.0660304
vn 0.7499261 -0.6615216 0.0000000
vn 0.7499261 -0.6615216 0.0000000
vn 0.7499261 -0.5728946 -0.3307607
vn 0.7499261 -0.5728946 -0.3307607
vn 0.7525860 -0.6157606 -0.2333523
vn 0.7525860 -0.6157606 -0.2333523
vn 0.7499261 -0.5728946 -0.3307607
vn 0.7499260 -0.6389809 -0.1712146
vn 0.7525860 -0.6157606 -0.2333523
vn 0.7499260 -0.6389809 -0.1712146
vn 0.7499260 -0.6389809 -0.1712147
vn 0.7527350 -0.5237767 -0.3988082
vn 0.7499261 -0.5728946 -0.3307607
vn 0.7499261 -0.5728946 -0.3307607
vn 0.7527350 -0.5237767 -0.3988082
vn 0.7499261 -0.5728946 -0.3307607
vn 0.7519792 -0.5490698 -0.3647597
vn 1.0000000 0.0000000 0.0000000
vn 1.0000000 0.0000000 0.0000000
vn 1.0000000 0.0000000 0.0000000
vn 1.0000000 0.0000000 0.0000000
vn 1.0000000 0.0000000 0.0000000
vn 1.0000000 0.0000000 0.0000000
vn 1.0000000 0.0000000 0.0000000
vn 1.0000000 0.0000000 0.0000000
vn 1.0000000 0.0000000 0.0000000
vn 1.0000000 0.0000000 0.0000000
vn 1.0000000 0.0000000 0.0000000
vn 1.0000000 0.0000000 0.0000000
vn 1.0000000 0.0000000 0.0000000
vn 1.0000000 0.0000000 0.0000000
vn 1.0000000 0.0000000 0.0000000
vn 1.0000000 0.0000000 0.0000000
vn 1.0000000 0.0000000 0.0000000
vn 1.0000000 0.0000000 0.0000000
vn 1.0000000 0.0000000 0.0000000
vn 1.0000000 0.0000000 0.0000000
vn 1.0000000 0.0000000 0.0000000
vn 1.0000000 0.0000000 0.0000000
vn 1.0000000 0.0000000 0.0000000
vn 1.0000000 0.0000000 0.0000000
vn 1.0000000 0.0000000 0.0000000
vn 1.0000000 0.0000000 0.0000000
vn 1.0000000 0.0000000 0.0000000
vn 1.0000000 0.0000000 0.0000000
vn 1.0000000 0.0000000 0.0000000
vn 1.0000000 0.0000000 0.0000000
vn 1.0000000 0.0000000 0.0000000
vn 1.0000000 0.0000000 0.0000000
vn 1.0000000 0.0000000 0.0000000
vn 1.0000000 0.0000000 0.0000000
vn 1.0000000 0.0000000 0.0000000
vn 1.0000000 0.0000000 0.0000000
vn 0.0000000 -0.8654337 0.5010235
vn 0.0000000 -0.8660271 0.4999971
vn 0.0000000 -0.8660271 0.4999971
vn 0.0000000 -0.8654337 0.5010235
vn 0.0000000 -0.8660271 0.4999971
vn 0.0000000 -0.8654337 0.5010235
vn 0.0000000 -0.8654337 0.5010235
vn 0.0000000 -0.8660271 0.4999971
vn 0.0000000 -0.8654337 0.5010235
vn 0.0000000 -0.8660271 0.4999971
vn 0.0000000 -0.9659261 0.2588179
vn 0.0000000 -0.9659261 0.2588179
vn 0.0000000 -0.8660271 0.4999971
vn 0.0000000 -0.9659261 0.2588179
vn 0.0000000 -0.8660271 0.4999971
vn 0.0000000 -0.9659261 0.2588179
vn 0.0000000 -1.0000000 0.0000000
vn 0.0000000 -1.0000000 0.0000000
vn 0.0000000 -0.9659261 0.2588179
vn 0.0000000 -1.0000000 0.0000000
vn 0.0000000 -0.9659261 0.2588179
vn 0.0000000 -1.0000000 0.0000000
vn 0.0000000 -0.9659261 -0.2588179
vn 0.0000000 -0.9659261 -0.2588179
vn 0.0000000 -1.0000000 0.0000000
vn 0.0000000 -0.9659261 -0.2588179
vn 0.0000000 -1.0000000 0.0000000
vn 0.0000000 -0.9659261 -0.2588179
vn 0.0000000 -0.8660271 -0.4999971
vn 0.0000000 -0.8660271 -0.4999971
vn 0.0000000 -0.9659261 -0.2588179
vn 0.0000000 -0.8660271 -0.4999971
vn 0.0000000 -0.9659261 -0.2588179
vn 0.0000000 -0.8660271 -0.4999971
vn 0.0000000 -0.8654337 -0.5010235
vn 0.0000000 -0.8654337 -0.5010235
vn 0.0000000 -0.8660271 -0.4999971
vn 0.0000000 -0.8654337 -0.5010235
vn 0.0000000 -0.8654337 -0.5010235
vn 0.0000000 -0.8660271 -0.4999971
vn 0.0000000 -0.8654337 -0.5010235
vn 0.0000000 -0.8660271 -0.4999971
vn -1.0000000 0.0000000 0.0000000
vn -1.0000000 0.0000000 0.0000000
vn -1.0000000 0.0000000 0.0000000
vn -1.0000000 0.0000000 0.0000000
vn -1.0000000 0.0000000 0.0000000
vn -1.0000000 0.0000000 0.0000000
vn -1.0000000 0.0000000 0.0000000
vn -1.0000000 0.0000000 0.0000000
vn -1.0000000 0.0000000 0.0000000
vn -1.0000000 0.0000000 0.0000000
vn -1.0000000 0.0000000 0.0000000
vn -1.0000000 0.0000000 0.0000000
vn -1.0000000 0.0000000 0.0000000
vn -1.0000000 0.0000000 0.0000000
vn -1.0000000 0.0000000 0.0000000
vn -1.0000000 0.0000000 0.0000000
vn -1.0000000 0.0000000 0.0000000
vn -1.0000000 0.0000000 0.0000000
vn -1.0000000 0.0000000 0.0000000
vn -1.0000000 0.0000000 0.0000000
vn -1.0000000 0.0000000 0.0000000
vn -1.0000000 0.0000000 0.0000000
vn -1.0000000 0.0000000 0.0000000
vn -1.0000000 0.0000000 0.0000000
vn -1.0000000 0.0000000 0.0000000
vn -1.0000000 0.0000000 0.0000000
vn -1.0000000 0.0000000 0.0000000
vn -1.0000000 0.0000000 0.0000000
vn -1.0000000 0.0000000 0.0000000
vn -1.0000000 0.0000000 0.0000000
vn 1.0000000 0.0000000 0.0000002
vn 1.0000000 0.0000000 0.0000002
vn 1.0000000 0.0000000 0.0000002
vn 1.0000000 0.0000000 0.0000002
vn 1.0000000 0.0000000 0.0000002
vn 1.0000000 0.0000000 0.0000002
vn 1.0000000 0.0000000 0.0000002
vn 1.0000000 0.0000000 0.0000002
vn 1.0000000 0.0000000 0.0000002
vn 1.0000000 0.0000000 0.0000002
vn 1.0000000 0.0000000 0.0000002
vn 1.0000000 0.0000000 0.0000002
vn 1.0000000 0.0000000 0.0000002
vn 1.0000000 0.0000000 0.0000002
vn 1.0000000 0.0000000 0.0000002
vn 1.0000000 0.0000000 0.0000002
vn 1.0000000 0.0000000 0.0000002
vn 1.0000000 0.0000000 0.0000002
vn 1.0000000 0.0000000 0.0000002
vn 1.0000000 0.0000000 0.0000002
vn 1.0000000 0.0000000 0.0000002
vn 1.0000000 0.0000000 0.0000002
vn 1.0000000 0.0000000 0.0000002
vn 1.0000000 0.0000000 0.0000002
vn 1.0000000 0.0000000 0.0000002
vn 1.0000000 0.0000000 0.0000002
vn 1.0000000 0.0000000 0.0000002
vn 1.0000000 0.0000000 0.0000002
vn 1.0000000 0.0000000 0.0000002
vn 1.0000000 0.0000000 0.0000002
vn 0.5773486 -0.7543458 -0.3124596
vn 0.5773486 -0.7543458 -0.3124596
vn 0.5773486 -0.7543458 -0.3124596
vn -0.5773494 -0.7543453 -0.3124593
vn -0.5773494 -0.7543453 -0.3124593
vn -0.5773494 -0.7543453 -0.3124593
vn -0.5773486 -0.3124606 0.7543454
vn -0.5773486 -0.3124606 0.7543454
vn -0.5773486 -0.3124606 0.7543454
vn -0.5773486 -0.3124606 0.7543454
vn -0.5773486 -0.3124606 0.7543454
vn -0.5773486 -0.3124606 0.7543454
vn 0.5773494 -0.3124605 0.7543448
vn 0.5773494 -0.3124605 0.7543448
vn 0.5773494 -0.3124605 0.7543448
vn 0.5773494 -0.3124605 0.7543448
vn 0.5773494 -0.3124605 0.7543448
vn 0.5773494 -0.3124605 0.7543448
vn 0.7071066 -0.2705981 -0.6532816
vn 0.7071066 -0.2705981 -0.6532816
vn 0.7071066 -0.2705981 -0.6532816
vn 0.7071066 -0.2705981 -0.6532816
vn 0.7071066 -0.2705981 -0.6532816
vn 0.7071066 -0.2705981 -0.6532816
vn 0.7071066 -0.2705981 -0.6532816
vn 0.7071066 -0.2705981 -0.6532816
vn 0.7071066 -0.2705981 -0.6532816
vn -0.7071069 -0.2705981 -0.6532814
vn -0.7071069 -0.2705981 -0.6532814
vn -0.7071069 -0.2705981 -0.6532814
vn -0.7071069 -0.2705981 -0.6532814
vn -0.7071069 -0.2705981 -0.6532814
vn -0.7071069 -0.2705981 -0.6532814
vn -0.7071069 -0.2705981 -0.6532814
vn -0.7071069 -0.2705981 -0.6532814
vn -0.7071069 -0.2705981 -0.6532814
vn -0.7071066 0.2705981 0.6532816
vn -0.7071066 0.2705981 0.6532816
vn -0.7071066 0.2705981 0.6532816
vn 0.7071069 0.2705981 0.6532814
vn 0.7071069 0.2705981 0.6532814
vn 0.7071069 0.2705981 0.6532814
vn 0.7071069 0.2705981 0.6532814
vn 0.7071069 0.2705981 0.6532814
vn 0.7071069 0.2705981 0.6532814
vn 0.5773511 -0.5773503 -0.5773495
vn 0.5773511 -0.5773503 -0.5773495
vn 0.5773511 -0.5773503 -0.5773495
vn -0.5773518 -0.5773500 -0.5773491
vn -0.5773518 -0.5773500 -0.5773491
vn -0.5773518 -0.5773500 -0.5773491
vn -0.5773511 -0.5773503 0.5773495
vn -0.5773511 -0.5773503 0.5773495
vn -0.5773511 -0.5773503 0.5773495
vn 0.5773518 -0.5773500 0.5773491
vn 0.5773518 -0.5773500 0.5773491
vn 0.5773518 -0.5773500 0.5773491
vn 0.7071066 -0.0000000 -0.7071069
vn 0.7071066 -0.0000000 -0.7071069
vn 0.7071066 0.0000000 -0.7071069
vn 0.7071066 -0.0000000 -0.7071069
vn 0.7071066 0.0000000 -0.7071069
vn 0.7071066 0.0000000 -0.7071069
vn 0.7071066 -0.0000000 -0.7071069
vn 0.7071066 0.0000000 -0.7071069
vn 0.7071066 0.0000000 -0.7071069
vn -0.7071069 -0.0000000 -0.7071067
vn -0.7071069 -0.0000000 -0.7071067
vn -0.7071069 0.0000000 -0.7071067
vn -0.7071069 -0.0000000 -0.7071067
vn -0.7071069 0.0000000 -0.7071067
vn -0.7071069 0.0000000 -0.7071067
vn -0.7071069 -0.0000000 -0.7071067
vn -0.7071069 0.0000000 -0.7071067
vn -0.7071069 0.0000000 -0.7071067
vn -0.7071066 0.0000000 0.7071069
vn -0.7071066 0.0000000 0.7071069
vn -0.7071066 0.0000000 0.7071069
vn -0.7071066 0.0000000 0.7071069
vn -0.7071066 0.0000000 0.7071069
vn -0.7071066 0.0000000 0.7071069
vn -0.7071066 0.0000000 0.7071069
vn -0.7071066 0.0000000 0.7071069
vn -0.7071066 0.0000000 0.7071069
vn 0.7071069 0.0000000 0.7071067
vn 0.7071069 0.0000000 0.7071067
vn 0.7071069 0.0000000 0.7071067
vn 0.7071069 0.0000000 0.7071067
vn 0.7071069 0.0000000 0.7071067
vn 0.7071069 0.0000000 0.7071067
vn 0.7071069 0.0000000 0.7071067
vn 0.7071069 0.0000000 0.7071067
vn 0.7071069 0.0000000 0.7071067
vn -0.5773486 -0.7543458 0.3124596
vn -0.5773486 -0.7543458 0.3124596
vn -0.5773486 -0.7543458 0.3124596
vn 0.5773493 -0.7543453 0.3124595
vn 0.5773493 -0.7543453 0.3124595
vn 0.5773493 -0.7543453 0.3124595
vn 0.5773486 -0.3124608 -0.7543453
vn 0.5773486 -0.3124608 -0.7543453
vn 0.5773486 -0.3124608 -0.7543453
vn 0.5773486 -0.3124608 -0.7543453
vn 0.5773486 -0.3124608 -0.7543453
vn 0.5773486 -0.3124608 -0.7543453
vn -0.5773493 -0.3124606 -0.7543448
vn -0.5773493 -0.3124606 -0.7543448
vn -0.5773493 -0.3124606 -0.7543448
vn -0.5773493 -0.3124606 -0.7543448
vn -0.5773493 -0.3124606 -0.7543448
vn -0.5773493 -0.3124606 -0.7543448
vn -0.7071068 -0.2705980 0.6532815
vn -0.7071068 -0.2705980 0.6532815
vn -0.7071068 -0.2705980 0.6532815
vn -0.7071068 -0.2705980 0.6532815
vn -0.7071068 -0.2705980 0.6532815
vn -0.7071068 -0.2705980 0.6532815
vn -0.7071068 -0.2705980 0.6532815
vn -0.7071068 -0.2705980 0.6532815
vn -0.7071068 -0.2705980 0.6532815
vn 0.7071068 -0.2705980 0.6532815
vn 0.7071068 -0.2705980 0.6532815
vn 0.7071068 -0.2705980 0.6532815
vn 0.7071068 -0.2705980 0.6532815
vn 0.7071068 -0.2705980 0.6532815
vn 0.7071068 -0.2705980 0.6532815
vn 0.7071068 -0.2705980 0.6532815
vn 0.7071068 -0.2705980 0.6532815
vn 0.7071068 -0.2705980 0.6532815
vn 0.7071068 0.2705980 -0.6532815
vn 0.7071068 0.2705980 -0.6532815
vn 0.7071068 0.2705980 -0.6532815
vn -0.7071068 0.2705980 -0.6532815
vn -0.7071068 0.2705980 -0.6532815
vn -0.7071068 0.2705980 -0.6532815
vn -0.7071068 0.2705980 -0.6532815
vn -0.7071068 0.2705980 -0.6532815
vn -0.7071068 0.2705980 -0.6532815
vn -0.7071065 -0.7071070 0.0000000
vn -0.7071065 -0.7071070 0.0000000
vn -0.7071065 -0.7071070 0.0000000
vn -0.7071065 -0.7071070 0.0000000
vn -0.7071065 -0.7071070 0.0000000
vn -0.7071065 -0.7071070 0.0000000
vn -0.7071065 -0.7071070 0.0000000
vn -0.7071065 -0.7071070 0.0000000
vn -0.7071065 -0.7071070 0.0000000
vn -0.7071065 -0.7071070 0.0000000
vn -0.7071065 -0.7071070 0.0000000
vn -0.7071065 -0.7071070 0.0000000
vn 0.7071065 -0.7071070 0.0000000
vn 0.7071065 -0.7071070 0.0000000
vn 0.7071065 -0.7071070 0.0000000
vn 0.7071065 -0.7071070 0.0000000
vn 0.7071065 -0.7071070 0.0000000
vn 0.7071065 -0.7071070 0.0000000
vn 0.7071065 -0.7071070 0.0000000
vn 0.7071065 -0.7071070 0.0000000
vn 0.7071065 -0.7071070 0.0000000
vn 0.7071065 -0.7071070 0.0000000
vn 0.7071065 -0.7071070 0.0000000
vn 0.7071065 -0.7071070 0.0000000
vn -0.7071065 0.7071070 0.0000000
vn -0.7071065 0.7071070 0.0000000
vn -0.7071065 0.7071070 0.0000000
vn -0.7071065 0.7071070 0.0000000
vn -0.7071065 0.7071070 0.0000000
vn -0.7071065 0.7071070 0.0000000
vn -0.7071065 0.7071070 0.0000000
vn -0.7071065 0.7071070 0.0000000
vn -0.7071065 0.7071070 0.0000000
vn -0.7071065 0.7071070 0.0000000
vn -0.7071065 0.7071070 0.0000000
vn -0.7071065 0.7071070 0.0000000
vn 0.7071065 0.7071070 0.0000000
vn 0.7071065 0.7071070 0.0000000
vn 0.7071065 0.7071070 0.0000000
vn 0.7071065 0.7071070 0.0000000
vn 0.7071065 0.7071070 0.0000000
vn 0.7071065 0.7071070 0.0000000
vn 0.7071065 0.7071070 0.0000000
vn 0.7071065 0.7071070 0.0000000
vn 0.7071065 0.7071070 0.0000000
vn 0.7071065 0.7071070 0.0000000
vn 0.7071065 0.7071070 0.0000000
vn 0.7071065 0.7071070 0.0000000
vn 0.0000000 -1.0000000 0.0000000
vn 0.0000000 -1.0000000 0.0000000
vn 0.0000000 -1.0000000 0.0000000
vn 0.0000000 -1.0000000 0.0000000
vn 0.0000000 -1.0000000 0.0000000
vn 0.0000000 -1.0000000 0.0000000
vn 0.0000000 -1.0000000 0.0000000
vn 0.0000000 -1.0000000 0.0000000
vn 0.0000000 -1.0000000 0.0000000
vn 0.0000000 -1.0000000 0.0000000
vn 0.0000000 -1.0000000 0.0000000
vn 0.0000000 -1.0000000 0.0000000
vn -1.0000000 0.0000000 0.0000000
vn -1.0000000 0.0000000 0.0000000
vn -1.0000000 0.0000000 0.0000000
vn -1.0000000 0.0000000 0.0000000
vn -1.0000000 0.0000000 0.0000000
vn -1.0000000 0.0000000 0.0000000
vn -1.0000000 0.0000000 0.0000000
vn -1.0000000 0.0000000 0.0000000
vn -1.0000000 0.0000000 0.0000000
vn -1.0000000 0.0000000 0.0000000
vn -1.0000000 0.0000000 0.0000000
vn -1.0000000 0.0000000 0.0000000
vn 1.0000000 0.0000000 0.0000000
vn 1.0000000 0.0000000 0.0000000
vn 1.0000000 0.0000000 0.0000000
vn 1.0000000 0.0000000 0.0000000
vn 1.0000000 0.0000000 0.0000000
vn 1.0000000 0.0000000 0.0000000
vn 1.0000000 0.0000000 0.0000000
vn 1.0000000 0.0000000 0.0000000
vn 1.0000000 0.0000000 0.0000000
vn 1.0000000 0.0000000 0.0000000
vn 1.0000000 0.0000000 0.0000000
vn 1.0000000 0.0000000 0.0000000
vn 0.0000000 1.0000000 0.0000000
vn 0.0000000 1.0000000 0.0000000
vn 0.0000000 1.0000000 0.0000000
vn 0.0000000 1.0000000 0.0000000
vn 0.0000000 1.0000000 0.0000000
vn 0.0000000 1.0000000 0.0000000
vn 0.0000000 1.0000000 0.0000000
vn 0.0000000 1.0000000 0.0000000
vn 0.0000000 1.0000000 0.0000000
vn 0.0000000 1.0000000 0.0000000
vn 0.0000000 1.0000000 0.0000000
vn 0.0000000 1.0000000 0.0000000
vn 0.7071034 -0.7071101 0.0000000
vn 0.7071034 -0.7071101 0.0000000
vn 0.7071034 -0.7071101 0.0000000
vn 0.7071034 -0.7071101 0.0000000
vn 0.7071034 -0.7071101 0.0000000
vn 0.7071034 -0.7071101 0.0000000
vn 0.7071034 -0.7071101 0.0000000
vn 0.7071034 -0.7071101 0.0000000
vn 0.7071034 -0.7071101 0.0000000
vn 0.7071034 -0.7071101 0.0000000
vn 0.7071034 -0.7071101 0.0000000
vn 0.7071034 -0.7071101 0.0000000
vn 0.7071034 0.7071101 0.0000000
vn 0.7071034 0.7071101 0.0000000
vn 0.7071034 0.7071101 0.0000000
vn 0.7071034 0.7071101 0.0000000
vn 0.7071034 0.7071101 0.0000000
vn 0.7071034 0.7071101 0.0000000
vn 0.7071034 0.7071101 0.0000000
vn 0.7071034 0.7071101 0.0000000
vn 0.7071034 0.7071101 0.0000000
vn 0.7071034 0.7071101 0.0000000
vn 0.7071034 0.7071101 0.0000000
vn 0.7071034 0.7071101 0.0000000
vn 0.0000000 -1.0000000 0.0000000
vn 0.0000000 -1.0000000 0.0000000
vn 0.0000000 -1.0000000 0.0000000
vn 0.0000000 -1.0000000 0.0000000
vn 0.0000000 -1.0000000 0.0000000
vn 0.0000000 -1.0000000 0.0000000
vn 1.0000000 0.0000000 0.0000000
vn 1.0000000 0.0000000 0.0000000
vn 1.0000000 0.0000000 0.0000000
vn 1.0000000 0.0000000 0.0000000
vn 1.0000000 0.0000000 0.0000000
vn 1.0000000 0.0000000 0.0000000
vn 1.0000000 0.0000000 0.0000000
vn 1.0000000 0.0000000 0.0000000
vn 1.0000000 0.0000000 0.0000000
vn 1.0000000 0.0000000 0.0000000
vn 1.0000000 0.0000000 0.0000000
vn 1.0000000 0.0000000 0.0000000
vn 0.0000000 1.0000000 0.0000000
vn 0.0000000 1.0000000 0.0000000
vn 0.0000000 1.0000000 0.0000000
vn 0.0000000 1.0000000 0.0000000
vn 0.0000000 1.0000000 0.0000000
vn 0.0000000 1.0000000 0.0000000
f 1/1/1 2/2/2 3/3/3
f 4/4/4 5/5/5 6/6/6
f 7/7/7 8/8/8 9/9/9
f 10/10/10 11/11/11 12/12/12
f 13/13/13 14/14/14 15/15/15
f 16/16/16 17/17/17 18/18/18
f 19/19/19 20/20/20 21/21/21
f 22/22/22 23/23/23 24/24/24
f 25/25/25 26/26/26 27/27/27
f 28/28/28 29/29/29 30/30/30
f 31/31/31 32/32/32 33/33/33
f 34/34/34 35/35/35 36/36/36
f 37/37/37 38/38/38 39/39/39
f 40/40/40 41/41/41 42/42/42
f 43/43/43 44/44/44 45/45/45
f 46/46/46 47/47/47 48/48/48
f 49/49/49 50/50/50 51/51/51
f 52/52/52 53/53/53 54/54/54
f 55/55/55 56/56/56 57/57/57
f 58/58/58 59/59/59 60/60/60
f 61/61/61 62/62/62 63/63/63
f 64/64/64 65/65/65 66/66/66
f 67/67/67 68/68/68 69/69/69
f 70/70/70 71/71/71 72/72/72
f 73/73/73 74/74/74 75/75/75
f 76/76/76 77/77/77 78/78/78
f 79/79/79 80/80/80 81/81/81
f 82/82/82 83/83/83 84/84/84
f 85/85/85 86/86/86 87/87/87
f 88/88/88 89/89/89 90/90/90
f 91/91/91 92/92/92 93/93/93
f 94/94/94 95/95/95 96/96/96
f 97/97/97 98/98/98 99/99/99
f 100/100/100 101/101/101 102/102/102
f 103/103/103 104/104/104 105/105/105
f 106/106/106 107/107/107 108/108/108
f 109/109/109 110/110/110 111/111/111
f 112/112/112 113/113/113 114/114/114
f 115/115/115 116/116/116 117/117/117
f 118/118/118 119/119/119 120/120/120
f 121/121/121 122/122/122 123/123/123
f 124/124/124 125/125/125 126/126/126
f 127/127/127 128/128/128 129/129/129
f 130/130/130 131/131/131 132/132/132
f 133/133/133 134/134/134 135/135/135
f 136/136/136 137/137/137 138/138/138
f 139/139/139 140/140/140 141/141/141
f 142/142/142 143/143/143 144/144/144
f 145/145/145 146/146/146 147/147/147
f 148/148/148 149/149/149 150/150/150
f 151/151/151 152/152/152 153/153/153
f 154/154/154 155/155/155 156/156/156
f 157/157/157 158/158/158 159/159/159
f 160/160/160 161/161/161 162/162/162
f 163/163/163 164/164/164 165/165/165
f 166/166/166 167/167/167 168/168/168
f 169/169/169 170/170/170 171/171/171
f 172/172/172 173/173/173 174/174/174
f 175/175/175 176/176/176 177/177/177
f 178/178/178 179/179/179 180/180/180
f 181/181/181 182/182/182 183/183/183
f 184/184/184 185/185/185 186/186/186
f 187/187/187 188/188/188 189/189/189
f 190/190/190 191/191/191 192/192/192
f 193/193/193 194/194/194 195/195/195
f 196/196/196 197/197/197 198/198/198
f 199/199/199 200/200/200 201/201/201
f 202/202/202 203/203/203 204/204/204
f 205/205/205 206/206/206 207/207/207
f 208/208/208 209/209/209 210/210/210
f 211/211/211 212/212/212 213/213/213
f 214/214/214 215/215/215 216/216/216
f 217/217/217 218/218/218 219/219/219
f 220/220/220 221/221/221 222/222/222
f 223/223/223 224/224/224 225/225/225
f 226/226/226 227/227/227 228/228/228
f 229/229/229 230/230/230 231/231/231
f 232/232/232 233/233/233 234/234/234
f 235/235/235 236/236/236 237/237/237
f 238/238/238 239/239/239 240/240/240
f 241/241/241 242/242/242 243/243/243
f 244/244/244 245/245/245 246/246/246
f 247/247/247 248/248/248 249/249/249
f 250/250/250 251/251/251 252/252/252
f 253/253/253 254/254/254 255/255/255
f 256/256/256 257/257/257 258/258/258
f 259/259/259 260/260/260 261/261/261
f 262/262/262 263/263/263 264/264/264
f 265/265/265 266/266/266 267/267/267
f 268/268/268 269/269/269 270/270/270
f 271/271/271 272/272/272 273/273/273
f 274/274/274 275/275/275 276/276/276
f 277/277/277 278/278/278 279/279/279
f 280/280/280 281/281/281 282/282/282
f 283/283/283 284/284/284 285/285/285
f 286/286/286 287/287/287 288/288/288
f 289/289/289 290/290/290 291/291/291
f 292/292/292 293/293/293 294/294/294
f 295/295/295 296/296/296 297/297/297
f 298/298/298 299/299/299 300/300/300
f 301/301/301 302/302/302 303/303/303
f 304/304/304 305/305/305 306/306/306
f 307/307/307 308/308/308 309/309/309
f 310/310/310 311/311/311 312/312/312
f 313/313/313 314/314/314 315/315/315
f 316/316/316 317/317/317 318/318/318
f 319/319/319 320/320/320 321/321/321
f 322/322/322 323/323/323 324/324/324
f 325/325/325 326/326/326 327/327/327
f 328/328/328 329/329/329 330/330/330
f 331/331/331 332/332/332 333/333/333
f 334/334/334 335/335/335 336/336/336
f 337/337/337 338/338/338 339/339/339
f 340/340/340 341/341/341 342/342/342
f 343/343/343 344/344/344 345/345/345
f 346/346/346 347/347/347 348/348/348
f 349/349/349 350/350/350 351/351/351
f 352/352/352 353/353/353 354/354/354
f 355/355/355 356/356/356 357/357/357
f 358/358/358 359/359/359 360/360/360
f 361/361/361 362/362/362 363/363/363
f 364/364/364 365/365/365 366/366/366
f 367/367/367 368/368/368 369/369/369
f 370/370/370 371/371/371 372/372/372
f 373/373/373 374/374/374 375/375/375
f 376/376/376 377/377/377 378/378/378
f 379/379/379 380/380/380 381/381/381
f 382/382/382 383/383/383 384/384/384
f 385/385/385 386/386/386 387/387/387
f 388/388/388 389/389/389 390/390/390
f 391/391/391 392/392/392 393/393/393
f 394/394/394 395/395/395 396/396/396
f 397/397/397 398/398/398 399/399/399
f 400/400/400 401/401/401 402/402/402
f 403/403/403 404/404/404 405/405/405
f 406/406/406 407/407/407 408/408/408
f 409/409/409 410/410/410 411/411/411
f 412/412/412 413/413/413 414/414/414
f 415/415/415 416/416/416 417/417/417
f 418/418/418 419/419/419 420/420/420
f 421/421/421 422/422/422 423/423/423
f 424/424/424 425/425/425 426/426/426
f 427/427/427 428/428/428 429/429/429
f 430/430/430 431/431/431 432/432/432
f 433/433/433 434/434/434 435/435/435
f 436/436/436 437/437/437 438/438/438
f 439/439/439 440/440/440 441/441/441
f 442/442/442 443/443/443 444/444/444
f 445/445/445 446/446/446 447/447/447
f 448/448/448 449/449/449 450/450/450
f 451/451/451 452/452/452 453/453/453
f 454/454/454 455/455/455 456/456/456
f 457/457/457 458/458/458 459/459/459
f 460/460/460 461/461/461 462/462/462
f 463/463/463 464/464/464 465/465/465
f 466/466/466 467/467/467 468/468/468
f 469/469/469 470/470/470 471/471/471
