# metre = block; Y up; per-cell coordinates; atlas UVs preserved
mtllib materials.mtl
o cell_61
usemtl pump_atlas
v 0.0000000 0.4469900 0.1379814
v 1.0000000 0.4469900 0.1379814
v 1.0000000 0.3944829 0.0397475
v 0.0000000 0.4469900 0.1379814
v 1.0000000 0.3944829 0.0397475
v 0.0000000 0.4369816 0.1192569
v 0.0000000 0.4369816 0.1192569
v 1.0000000 0.3944829 0.0397475
v 1.0000000 0.3732374 0.0000000
v 0.0000000 0.4369816 0.1192569
v 1.0000000 0.3732374 0.0000000
v 0.0000000 0.3732374 0.0000000
v 0.0000000 0.5008228 0.3154445
v 1.0000000 0.5008228 0.3154445
v 1.0000000 0.4684891 0.2088545
v 0.0000000 0.5008228 0.3154445
v 1.0000000 0.4684891 0.2088545
v 0.0000000 0.4946596 0.2951273
v 0.0000000 0.4946596 0.2951273
v 1.0000000 0.4684891 0.2088545
v 1.0000000 0.4469900 0.1379814
v 0.0000000 0.4946596 0.2951273
v 1.0000000 0.4469900 0.1379814
v 0.0000000 0.4469900 0.1379814
v 0.0000000 0.5190001 0.5000000
v 1.0000000 0.5190001 0.5000000
v 1.0000000 0.5080822 0.3891501
v 0.0000000 0.5190001 0.5000000
v 1.0000000 0.5080822 0.3891501
v 0.0000000 0.5169190 0.4788708
v 0.0000000 0.5169190 0.4788708
v 1.0000000 0.5080822 0.3891501
v 1.0000000 0.5008228 0.3154445
v 0.0000000 0.5169190 0.4788708
v 1.0000000 0.5008228 0.3154445
v 0.0000000 0.5008228 0.3154445
v 0.0000000 0.5008228 0.6845555
v 1.0000000 0.5008228 0.6845555
v 1.0000000 0.5117407 0.5737056
v 0.0000000 0.5008228 0.6845555
v 1.0000000 0.5117407 0.5737056
v 0.0000000 0.5029039 0.6634263
v 0.0000000 0.5029039 0.6634263
v 1.0000000 0.5117407 0.5737056
v 1.0000000 0.5190001 0.5000000
v 0.0000000 0.5029039 0.6634263
v 1.0000000 0.5190001 0.5000000
v 0.0000000 0.5190001 0.5000000
v 0.0000000 0.4469900 0.8620186
v 1.0000000 0.4469900 0.8620186
v 1.0000000 0.4793237 0.7554286
v 0.0000000 0.4469900 0.8620186
v 1.0000000 0.4793237 0.7554286
v 0.0000000 0.4531532 0.8417014
v 0.0000000 0.4531532 0.8417014
v 1.0000000 0.4793237 0.7554286
v 1.0000000 0.5008228 0.6845555
v 0.0000000 0.4531532 0.8417014
v 1.0000000 0.5008228 0.6845555
v 0.0000000 0.5008228 0.6845555
v 1.0000000 0.3732374 1.0000000
v 1.0000000 0.4120774 0.9273355
v 0.0860897 0.3732374 1.0000000
v 0.0860897 0.3732374 1.0000000
v 1.0000000 0.4120774 0.9273355
v 1.0000000 0.4469900 0.8620186
v 0.0860897 0.3732374 1.0000000
v 1.0000000 0.4469900 0.8620186
v 0.0000000 0.4469900 0.8620186
v 0.0860897 0.3732374 1.0000000
v 0.0000000 0.4469900 0.8620186
v 0.0000000 0.3732374 1.0000000
v 0.0000000 0.5085502 0.5176000
v 1.0000000 0.5085502 0.5176000
v 1.0000000 0.5102887 0.5193385
v 0.0000000 0.5085502 0.5176000
v 1.0000000 0.5102887 0.5193385
v 0.0000000 0.5124603 0.5215101
v 0.0000000 0.5124603 0.5215101
v 1.0000000 0.5102887 0.5193385
v 1.0000000 0.5129502 0.5220000
v 0.0000000 0.5124603 0.5215101
v 1.0000000 0.5129502 0.5220000
v 0.0000000 0.5129502 0.5220000
v 0.0000000 0.5129502 0.4780000
v 1.0000000 0.5129502 0.4780000
v 1.0000000 0.5112117 0.4797385
v 0.0000000 0.5129502 0.4780000
v 1.0000000 0.5112117 0.4797385
v 0.0000000 0.5090401 0.4819101
v 0.0000000 0.5090401 0.4819101
v 1.0000000 0.5112117 0.4797385
v 1.0000000 0.5085502 0.4824000
v 0.0000000 0.5090401 0.4819101
v 1.0000000 0.5085502 0.4824000
v 0.0000000 0.5085502 0.4824000
v 0.0000000 0.5866501 0.5220000
v 1.0000000 0.5866501 0.5220000
v 1.0000000 0.5893116 0.5193385
v 0.0000000 0.5866501 0.5220000
v 1.0000000 0.5893116 0.5193385
v 0.0000000 0.5871400 0.5215101
v 0.0000000 0.5871400 0.5215101
v 1.0000000 0.5893116 0.5193385
v 1.0000000 0.5910501 0.5176000
v 0.0000000 0.5871400 0.5215101
v 1.0000000 0.5910501 0.5176000
v 0.0000000 0.5910501 0.5176000
v 0.0000000 0.5910501 0.4824000
v 1.0000000 0.5910501 0.4824000
v 1.0000000 0.5883886 0.4797385
v 0.0000000 0.5910501 0.4824000
v 1.0000000 0.5883886 0.4797385
v 0.0000000 0.5905602 0.4819101
v 0.0000000 0.5905602 0.4819101
v 1.0000000 0.5883886 0.4797385
v 1.0000000 0.5866501 0.4780000
v 0.0000000 0.5905602 0.4819101
v 1.0000000 0.5866501 0.4780000
v 0.0000000 0.5866501 0.4780000
v 0.0000000 0.5129502 0.5220000
v 1.0000000 0.5129502 0.5220000
v 1.0000000 0.5575295 0.5220000
v 0.0000000 0.5129502 0.5220000
v 1.0000000 0.5575295 0.5220000
v 0.0000000 0.5211561 0.5220000
v 0.0000000 0.5211561 0.5220000
v 1.0000000 0.5575295 0.5220000
v 1.0000000 0.5866501 0.5220000
v 0.0000000 0.5211561 0.5220000
v 1.0000000 0.5866501 0.5220000
v 0.0000000 0.5866501 0.5220000
v 0.0000000 0.5085502 0.4824000
v 1.0000000 0.5085502 0.4824000
v 1.0000000 0.5085502 0.4963084
v 0.0000000 0.5085502 0.4824000
v 1.0000000 0.5085502 0.4963084
v 0.0000000 0.5085502 0.5136808
v 0.0000000 0.5085502 0.5136808
v 1.0000000 0.5085502 0.4963084
v 1.0000000 0.5085502 0.5176000
v 0.0000000 0.5085502 0.5136808
v 1.0000000 0.5085502 0.5176000
v 0.0000000 0.5085502 0.5176000
v 0.0000000 0.5866501 0.4780000
v 1.0000000 0.5866501 0.4780000
v 1.0000000 0.5575295 0.4780000
v 0.0000000 0.5866501 0.4780000
v 1.0000000 0.5575295 0.4780000
v 0.0000000 0.5211561 0.4780000
v 0.0000000 0.5211561 0.4780000
v 1.0000000 0.5575295 0.4780000
v 1.0000000 0.5129502 0.4780000
v 0.0000000 0.5211561 0.4780000
v 1.0000000 0.5129502 0.4780000
v 0.0000000 0.5129502 0.4780000
v 0.0000000 0.5910501 0.5176000
v 1.0000000 0.5910501 0.5176000
v 1.0000000 0.5910501 0.4963084
v 0.0000000 0.5910501 0.5176000
v 1.0000000 0.5910501 0.4963084
v 0.0000000 0.5910501 0.5136808
v 0.0000000 0.5910501 0.5136808
v 1.0000000 0.5910501 0.4963084
v 1.0000000 0.5910501 0.4824000
v 0.0000000 0.5910501 0.5136808
v 1.0000000 0.5910501 0.4824000
v 0.0000000 0.5910501 0.4824000
v 0.0000000 0.4681997 0.2276377
v 1.0000000 0.4681997 0.2276377
v 1.0000000 0.4703905 0.2287539
v 0.0000000 0.4681997 0.2276377
v 1.0000000 0.4703905 0.2287539
v 0.0000000 0.4731269 0.2301482
v 0.0000000 0.4731269 0.2301482
v 1.0000000 0.4703905 0.2287539
v 1.0000000 0.4737442 0.2304627
v 0.0000000 0.4731269 0.2301482
v 1.0000000 0.4737442 0.2304627
v 0.0000000 0.4737442 0.2304627
v 0.0000000 0.4601474 0.1886162
v 1.0000000 0.4601474 0.1886162
v 1.0000000 0.4590312 0.1908069
v 0.0000000 0.4601474 0.1886162
v 1.0000000 0.4590312 0.1908069
v 0.0000000 0.4576369 0.1935433
v 0.0000000 0.4576369 0.1935433
v 1.0000000 0.4590312 0.1908069
v 1.0000000 0.4573224 0.1941606
v 0.0000000 0.4576369 0.1935433
v 1.0000000 0.4573224 0.1941606
v 0.0000000 0.4573224 0.1941606
v 0.0000000 0.5438371 0.2076882
v 1.0000000 0.5438371 0.2076882
v 1.0000000 0.5455459 0.2043345
v 0.0000000 0.5438371 0.2076882
v 1.0000000 0.5455459 0.2043345
v 0.0000000 0.5441516 0.2070709
v 0.0000000 0.5441516 0.2070709
v 1.0000000 0.5455459 0.2043345
v 1.0000000 0.5466621 0.2021438
v 0.0000000 0.5441516 0.2070709
v 1.0000000 0.5466621 0.2021438
v 0.0000000 0.5466621 0.2021438
v 0.0000000 0.5357847 0.1686666
v 1.0000000 0.5357847 0.1686666
v 1.0000000 0.5324310 0.1669579
v 0.0000000 0.5357847 0.1686666
v 1.0000000 0.5324310 0.1669579
v 0.0000000 0.5351674 0.1683521
v 0.0000000 0.5351674 0.1683521
v 1.0000000 0.5324310 0.1669579
v 1.0000000 0.5302403 0.1658417
v 0.0000000 0.5351674 0.1683521
v 1.0000000 0.5302403 0.1658417
v 0.0000000 0.5302403 0.1658417
v 0.0000000 0.4737442 0.2304627
v 1.0000000 0.4737442 0.2304627
v 1.0000000 0.5161417 0.2166869
v 0.0000000 0.4737442 0.2304627
v 1.0000000 0.5161417 0.2166869
v 0.0000000 0.4815484 0.2279270
v 0.0000000 0.4815484 0.2279270
v 1.0000000 0.5161417 0.2166869
v 1.0000000 0.5438371 0.2076882
v 0.0000000 0.4815484 0.2279270
v 1.0000000 0.5438371 0.2076882
v 0.0000000 0.5438371 0.2076882
v 0.0000000 0.4573224 0.1941606
v 1.0000000 0.4573224 0.1941606
v 1.0000000 0.4616203 0.2073882
v 0.0000000 0.4573224 0.1941606
v 1.0000000 0.4616203 0.2073882
v 0.0000000 0.4669886 0.2239103
v 0.0000000 0.4669886 0.2239103
v 1.0000000 0.4616203 0.2073882
v 1.0000000 0.4681997 0.2276377
v 0.0000000 0.4669886 0.2239103
v 1.0000000 0.4681997 0.2276377
v 0.0000000 0.4681997 0.2276377
v 0.0000000 0.5302403 0.1658417
v 1.0000000 0.5302403 0.1658417
v 1.0000000 0.5025449 0.1748404
v 0.0000000 0.5302403 0.1658417
v 1.0000000 0.5025449 0.1748404
v 0.0000000 0.4679516 0.1860805
v 0.0000000 0.4679516 0.1860805
v 1.0000000 0.5025449 0.1748404
v 1.0000000 0.4601474 0.1886162
v 0.0000000 0.4679516 0.1860805
v 1.0000000 0.4601474 0.1886162
v 0.0000000 0.4601474 0.1886162
v 0.0000000 0.5466621 0.2021438
v 1.0000000 0.5466621 0.2021438
v 1.0000000 0.5400826 0.1818942
v 0.0000000 0.5466621 0.2021438
v 1.0000000 0.5400826 0.1818942
v 0.0000000 0.5454510 0.1984164
v 0.0000000 0.5454510 0.1984164
v 1.0000000 0.5400826 0.1818942
v 1.0000000 0.5357847 0.1686666
v 0.0000000 0.5454510 0.1984164
v 1.0000000 0.5357847 0.1686666
v 0.0000000 0.5357847 0.1686666
v 0.0000000 0.4573224 0.8058394
v 1.0000000 0.4573224 0.8058394
v 1.0000000 0.4584386 0.8080301
v 0.0000000 0.4573224 0.8058394
v 1.0000000 0.4584386 0.8080301
v 0.0000000 0.4598329 0.8107665
v 0.0000000 0.4598329 0.8107665
v 1.0000000 0.4584386 0.8080301
v 1.0000000 0.4601474 0.8113838
v 0.0000000 0.4598329 0.8107665
v 1.0000000 0.4601474 0.8113838
v 0.0000000 0.4601474 0.8113838
v 0.0000000 0.4737442 0.7695373
v 1.0000000 0.4737442 0.7695373
v 1.0000000 0.4715534 0.7706535
v 0.0000000 0.4737442 0.7695373
v 1.0000000 0.4715534 0.7706535
v 0.0000000 0.4688170 0.7720478
v 0.0000000 0.4688170 0.7720478
v 1.0000000 0.4715534 0.7706535
v 1.0000000 0.4681997 0.7723623
v 0.0000000 0.4688170 0.7720478
v 1.0000000 0.4681997 0.7723623
v 0.0000000 0.4681997 0.7723623
v 0.0000000 0.5302403 0.8341583
v 1.0000000 0.5302403 0.8341583
v 1.0000000 0.5335940 0.8324496
v 0.0000000 0.5302403 0.8341583
v 1.0000000 0.5335940 0.8324496
v 0.0000000 0.5308576 0.8338438
v 0.0000000 0.5308576 0.8338438
v 1.0000000 0.5335940 0.8324496
v 1.0000000 0.5357847 0.8313334
v 0.0000000 0.5308576 0.8338438
v 1.0000000 0.5357847 0.8313334
v 0.0000000 0.5357847 0.8313334
v 0.0000000 0.5466621 0.7978562
v 1.0000000 0.5466621 0.7978562
v 1.0000000 0.5449533 0.7945025
v 0.0000000 0.5466621 0.7978562
v 1.0000000 0.5449533 0.7945025
v 0.0000000 0.5463476 0.7972389
v 0.0000000 0.5463476 0.7972389
v 1.0000000 0.5449533 0.7945025
v 1.0000000 0.5438371 0.7923118
v 0.0000000 0.5463476 0.7972389
v 1.0000000 0.5438371 0.7923118
v 0.0000000 0.5438371 0.7923118
v 0.0000000 0.4601474 0.8113838
v 1.0000000 0.4601474 0.8113838
v 1.0000000 0.5025449 0.8251596
v 0.0000000 0.4601474 0.8113838
v 1.0000000 0.5025449 0.8251596
v 0.0000000 0.4679516 0.8139195
v 0.0000000 0.4679516 0.8139195
v 1.0000000 0.5025449 0.8251596
v 1.0000000 0.5302403 0.8341583
v 0.0000000 0.4679516 0.8139195
v 1.0000000 0.5302403 0.8341583
v 0.0000000 0.5302403 0.8341583
v 0.0000000 0.4681997 0.7723623
v 1.0000000 0.4681997 0.7723623
v 1.0000000 0.4639018 0.7855899
v 0.0000000 0.4681997 0.7723623
v 1.0000000 0.4639018 0.7855899
v 0.0000000 0.4585335 0.8021120
v 0.0000000 0.4585335 0.8021120
v 1.0000000 0.4639018 0.7855899
v 1.0000000 0.4573224 0.8058394
v 0.0000000 0.4585335 0.8021120
v 1.0000000 0.4573224 0.8058394
v 0.0000000 0.4573224 0.8058394
v 0.0000000 0.5438371 0.7923118
v 1.0000000 0.5438371 0.7923118
v 1.0000000 0.5161417 0.7833131
v 0.0000000 0.5438371 0.7923118
v 1.0000000 0.5161417 0.7833131
v 0.0000000 0.4815484 0.7720730
v 0.0000000 0.4815484 0.7720730
v 1.0000000 0.5161417 0.7833131
v 1.0000000 0.4737442 0.7695373
v 0.0000000 0.4815484 0.7720730
v 1.0000000 0.4737442 0.7695373
v 0.0000000 0.4737442 0.7695373
v 0.0000000 0.5357847 0.8313334
v 1.0000000 0.5357847 0.8313334
v 1.0000000 0.5423642 0.8110838
v 0.0000000 0.5357847 0.8313334
v 1.0000000 0.5423642 0.8110838
v 0.0000000 0.5369958 0.8276060
v 0.0000000 0.5369958 0.8276060
v 1.0000000 0.5423642 0.8110838
v 1.0000000 0.5466621 0.7978562
v 0.0000000 0.5369958 0.8276060
v 1.0000000 0.5466621 0.7978562
v 0.0000000 0.5466621 0.7978562
v 0.0000000 0.6803768 0.5385000
v 0.0139683 0.7012818 0.5385000
v 0.0139683 0.7012818 0.4615000
v 0.0000000 0.6803768 0.5385000
v 0.0139683 0.7012818 0.4615000
v 0.0000000 0.6803768 0.5066063
v 0.0000000 0.6803768 0.5066063
v 0.0139683 0.7012818 0.4615000
v 0.0000000 0.6803768 0.4615000
v 0.0139683 0.7012818 0.5385000
v 0.0496548 0.7251267 0.5385000
v 0.0496548 0.7251267 0.4615000
v 0.0139683 0.7012818 0.5385000
v 0.0496548 0.7251267 0.4615000
v 0.0139683 0.7012818 0.4615000
v 0.0496548 0.7251267 0.5385000
v 0.0917500 0.7335000 0.5385000
v 0.0917500 0.7335000 0.4615000
v 0.0496548 0.7251267 0.5385000
v 0.0917500 0.7335000 0.4615000
v 0.0496548 0.7251267 0.4615000
v 0.0917500 0.7335000 0.5385000
v 0.1338452 0.7251267 0.5385000
v 0.1338452 0.7251267 0.4615000
v 0.0917500 0.7335000 0.5385000
v 0.1338452 0.7251267 0.4615000
v 0.0917500 0.7335000 0.4615000
v 0.1338452 0.7251267 0.5385000
v 0.1695318 0.7012818 0.5385000
v 0.1695318 0.7012818 0.4615000
v 0.1338452 0.7251267 0.5385000
v 0.1695318 0.7012818 0.4615000
v 0.1338452 0.7251267 0.4615000
v 0.1695318 0.7012818 0.5385000
v 0.1933768 0.6655953 0.5385000
v 0.1933768 0.6655953 0.4615000
v 0.1695318 0.7012818 0.5385000
v 0.1933768 0.6655953 0.4615000
v 0.1695318 0.7012818 0.4615000
v 0.1933768 0.6655953 0.5385000
v 0.2017500 0.6235001 0.5385000
v 0.2017500 0.6235001 0.4615000
v 0.1933768 0.6655953 0.5385000
v 0.2017500 0.6235001 0.4615000
v 0.1933768 0.6655953 0.4615000
v 0.1933768 0.5814049 0.5385000
v 0.1933768 0.5814049 0.4615000
v 0.2017500 0.6235001 0.4615000
v 0.1933768 0.5814049 0.5385000
v 0.2017500 0.6235001 0.4615000
v 0.2017500 0.6235001 0.5385000
v 0.1695318 0.5457184 0.5385000
v 0.1695318 0.5457184 0.4615000
v 0.1933768 0.5814049 0.4615000
v 0.1695318 0.5457184 0.5385000
v 0.1933768 0.5814049 0.4615000
v 0.1933768 0.5814049 0.5385000
v 0.1338452 0.5218732 0.5385000
v 0.1338452 0.5218732 0.4615000
v 0.1695318 0.5457184 0.4615000
v 0.1338452 0.5218732 0.5385000
v 0.1695318 0.5457184 0.4615000
v 0.1695318 0.5457184 0.5385000
v 0.0917500 0.5135002 0.5385000
v 0.0917500 0.5135002 0.4615000
v 0.1338452 0.5218732 0.4615000
v 0.0917500 0.5135002 0.5385000
v 0.1338452 0.5218732 0.4615000
v 0.1338452 0.5218732 0.5385000
v 0.0496548 0.5218732 0.5385000
v 0.0496548 0.5218732 0.4615000
v 0.0917500 0.5135002 0.4615000
v 0.0496548 0.5218732 0.5385000
v 0.0917500 0.5135002 0.4615000
v 0.0917500 0.5135002 0.5385000
v 0.0139683 0.5457184 0.5385000
v 0.0139683 0.5457184 0.4615000
v 0.0496548 0.5218732 0.4615000
v 0.0139683 0.5457184 0.5385000
v 0.0496548 0.5218732 0.4615000
v 0.0496548 0.5218732 0.5385000
v 0.0000000 0.5666234 0.4615000
v 0.0139683 0.5457184 0.4615000
v 0.0000000 0.5666234 0.5066063
v 0.0000000 0.5666234 0.5066063
v 0.0139683 0.5457184 0.4615000
v 0.0139683 0.5457184 0.5385000
v 0.0000000 0.5666234 0.5066063
v 0.0139683 0.5457184 0.5385000
v 0.0000000 0.5666234 0.5385000
v 0.0000000 0.6615042 0.4615000
v 0.0338228 0.6474943 0.4615000
v 0.0000000 0.6319094 0.4615000
v 0.0000000 0.6319094 0.4615000
v 0.0338228 0.6474943 0.4615000
v 0.0290500 0.6235001 0.4615000
v 0.0000000 0.6319094 0.4615000
v 0.0290500 0.6235001 0.4615000
v 0.0000000 0.6235001 0.4615000
v 0.0000000 0.6803768 0.4615000
v 0.0139683 0.7012818 0.4615000
v 0.0474144 0.6678357 0.4615000
v 0.0000000 0.6803768 0.4615000
v 0.0474144 0.6678357 0.4615000
v 0.0000000 0.6659815 0.4615000
v 0.0000000 0.6659815 0.4615000
v 0.0474144 0.6678357 0.4615000
v 0.0338228 0.6474943 0.4615000
v 0.0000000 0.6659815 0.4615000
v 0.0338228 0.6474943 0.4615000
v 0.0000000 0.6615042 0.4615000
v 0.0139683 0.7012818 0.4615000
v 0.0496548 0.7251267 0.4615000
v 0.0677557 0.6814272 0.4615000
v 0.0139683 0.7012818 0.4615000
v 0.0677557 0.6814272 0.4615000
v 0.0474144 0.6678357 0.4615000
v 0.0496548 0.7251267 0.4615000
v 0.0917500 0.7335000 0.4615000
v 0.0917500 0.6861999 0.4615000
v 0.0496548 0.7251267 0.4615000
v 0.0917500 0.6861999 0.4615000
v 0.0677557 0.6814272 0.4615000
v 0.0917500 0.6861999 0.4615000
v 0.0917500 0.7335000 0.4615000
v 0.1338452 0.7251267 0.4615000
v 0.0917500 0.6861999 0.4615000
v 0.1338452 0.7251267 0.4615000
v 0.1157444 0.6814272 0.4615000
v 0.1157444 0.6814272 0.4615000
v 0.1338452 0.7251267 0.4615000
v 0.1695318 0.7012818 0.4615000
v 0.1157444 0.6814272 0.4615000
v 0.1695318 0.7012818 0.4615000
v 0.1360856 0.6678357 0.4615000
v 0.1360856 0.6678357 0.4615000
v 0.1695318 0.7012818 0.4615000
v 0.1933768 0.6655953 0.4615000
v 0.1360856 0.6678357 0.4615000
v 0.1933768 0.6655953 0.4615000
v 0.1496773 0.6474943 0.4615000
v 0.1496773 0.6474943 0.4615000
v 0.1933768 0.6655953 0.4615000
v 0.2017500 0.6235001 0.4615000
v 0.1496773 0.6474943 0.4615000
v 0.2017500 0.6235001 0.4615000
v 0.1544501 0.6235001 0.4615000
v 0.1496773 0.5995059 0.4615000
v 0.1544501 0.6235001 0.4615000
v 0.2017500 0.6235001 0.4615000
v 0.1496773 0.5995059 0.4615000
v 0.2017500 0.6235001 0.4615000
v 0.1933768 0.5814049 0.4615000
v 0.1360856 0.5791645 0.4615000
v 0.1496773 0.5995059 0.4615000
v 0.1933768 0.5814049 0.4615000
v 0.1360856 0.5791645 0.4615000
v 0.1933768 0.5814049 0.4615000
v 0.1695318 0.5457184 0.4615000
v 0.1157444 0.5655727 0.4615000
v 0.1360856 0.5791645 0.4615000
v 0.1695318 0.5457184 0.4615000
v 0.1157444 0.5655727 0.4615000
v 0.1695318 0.5457184 0.4615000
v 0.1338452 0.5218732 0.4615000
v 0.0917500 0.5135002 0.4615000
v 0.0917500 0.5608001 0.4615000
v 0.1157444 0.5655727 0.4615000
v 0.0917500 0.5135002 0.4615000
v 0.1157444 0.5655727 0.4615000
v 0.1338452 0.5218732 0.4615000
v 0.0496548 0.5218732 0.4615000
v 0.0677557 0.5655727 0.4615000
v 0.0917500 0.5608001 0.4615000
v 0.0496548 0.5218732 0.4615000
v 0.0917500 0.5608001 0.4615000
v 0.0917500 0.5135002 0.4615000
v 0.0139683 0.5457184 0.4615000
v 0.0474144 0.5791645 0.4615000
v 0.0677557 0.5655727 0.4615000
v 0.0139683 0.5457184 0.4615000
v 0.0677557 0.5655727 0.4615000
v 0.0496548 0.5218732 0.4615000
v 0.0000000 0.5854960 0.4615000
v 0.0338228 0.5995059 0.4615000
v 0.0474144 0.5791645 0.4615000
v 0.0000000 0.5854960 0.4615000
v 0.0474144 0.5791645 0.4615000
v 0.0000000 0.5810187 0.4615000
v 0.0000000 0.5810187 0.4615000
v 0.0474144 0.5791645 0.4615000
v 0.0139683 0.5457184 0.4615000
v 0.0000000 0.5810187 0.4615000
v 0.0139683 0.5457184 0.4615000
v 0.0000000 0.5666234 0.4615000
v 0.0000000 0.6235001 0.4615000
v 0.0290500 0.6235001 0.4615000
v 0.0338228 0.5995059 0.4615000
v 0.0000000 0.6235001 0.4615000
v 0.0338228 0.5995059 0.4615000
v 0.0000000 0.6150908 0.4615000
v 0.0000000 0.6150908 0.4615000
v 0.0338228 0.5995059 0.4615000
v 0.0000000 0.5854960 0.4615000
v 0.0290500 0.6235001 0.5385000
v 0.0290500 0.6235001 0.4615000
v 0.0338228 0.6474943 0.4615000
v 0.0290500 0.6235001 0.5385000
v 0.0338228 0.6474943 0.4615000
v 0.0338228 0.6474943 0.5385000
v 0.0338228 0.6474943 0.5385000
v 0.0338228 0.6474943 0.4615000
v 0.0474144 0.6678357 0.4615000
v 0.0338228 0.6474943 0.5385000
v 0.0474144 0.6678357 0.4615000
v 0.0474144 0.6678357 0.5385000
v 0.0474144 0.6678357 0.5385000
v 0.0474144 0.6678357 0.4615000
v 0.0677557 0.6814272 0.4615000
v 0.0474144 0.6678357 0.5385000
v 0.0677557 0.6814272 0.4615000
v 0.0677557 0.6814272 0.5385000
v 0.0677557 0.6814272 0.5385000
v 0.0677557 0.6814272 0.4615000
v 0.0917500 0.6861999 0.4615000
v 0.0677557 0.6814272 0.5385000
v 0.0917500 0.6861999 0.4615000
v 0.0917500 0.6861999 0.5385000
v 0.0917500 0.6861999 0.5385000
v 0.0917500 0.6861999 0.4615000
v 0.1157444 0.6814272 0.4615000
v 0.0917500 0.6861999 0.5385000
v 0.1157444 0.6814272 0.4615000
v 0.1157444 0.6814272 0.5385000
v 0.1157444 0.6814272 0.5385000
v 0.1157444 0.6814272 0.4615000
v 0.1360856 0.6678357 0.4615000
v 0.1157444 0.6814272 0.5385000
v 0.1360856 0.6678357 0.4615000
v 0.1360856 0.6678357 0.5385000
v 0.1360856 0.6678357 0.5385000
v 0.1360856 0.6678357 0.4615000
v 0.1496773 0.6474943 0.4615000
v 0.1360856 0.6678357 0.5385000
v 0.1496773 0.6474943 0.4615000
v 0.1496773 0.6474943 0.5385000
v 0.1496773 0.6474943 0.5385000
v 0.1496773 0.6474943 0.4615000
v 0.1544501 0.6235001 0.4615000
v 0.1496773 0.6474943 0.5385000
v 0.1544501 0.6235001 0.4615000
v 0.1544501 0.6235001 0.5385000
v 0.1496773 0.5995059 0.5385000
v 0.1544501 0.6235001 0.5385000
v 0.1544501 0.6235001 0.4615000
v 0.1496773 0.5995059 0.5385000
v 0.1544501 0.6235001 0.4615000
v 0.1496773 0.5995059 0.4615000
v 0.1360856 0.5791645 0.5385000
v 0.1496773 0.5995059 0.5385000
v 0.1496773 0.5995059 0.4615000
v 0.1360856 0.5791645 0.5385000
v 0.1496773 0.5995059 0.4615000
v 0.1360856 0.5791645 0.4615000
v 0.1157444 0.5655727 0.5385000
v 0.1360856 0.5791645 0.5385000
v 0.1360856 0.5791645 0.4615000
v 0.1157444 0.5655727 0.5385000
v 0.1360856 0.5791645 0.4615000
v 0.1157444 0.5655727 0.4615000
v 0.0917500 0.5608001 0.5385000
v 0.1157444 0.5655727 0.5385000
v 0.1157444 0.5655727 0.4615000
v 0.0917500 0.5608001 0.5385000
v 0.1157444 0.5655727 0.4615000
v 0.0917500 0.5608001 0.4615000
v 0.0677557 0.5655727 0.5385000
v 0.0917500 0.5608001 0.5385000
v 0.0917500 0.5608001 0.4615000
v 0.0677557 0.5655727 0.5385000
v 0.0917500 0.5608001 0.4615000
v 0.0677557 0.5655727 0.4615000
v 0.0474144 0.5791645 0.5385000
v 0.0677557 0.5655727 0.5385000
v 0.0677557 0.5655727 0.4615000
v 0.0474144 0.5791645 0.5385000
v 0.0677557 0.5655727 0.4615000
v 0.0474144 0.5791645 0.4615000
v 0.0338228 0.5995059 0.5385000
v 0.0474144 0.5791645 0.5385000
v 0.0474144 0.5791645 0.4615000
v 0.0338228 0.5995059 0.5385000
v 0.0474144 0.5791645 0.4615000
v 0.0338228 0.5995059 0.4615000
v 0.0290500 0.6235001 0.5385000
v 0.0338228 0.5995059 0.5385000
v 0.0338228 0.5995059 0.4615000
v 0.0290500 0.6235001 0.5385000
v 0.0338228 0.5995059 0.4615000
v 0.0290500 0.6235001 0.4615000
v 0.0000000 0.6235001 0.5385000
v 0.0290500 0.6235001 0.5385000
v 0.0338228 0.6474943 0.5385000
v 0.0000000 0.6235001 0.5385000
v 0.0338228 0.6474943 0.5385000
v 0.0000000 0.6319094 0.5385000
v 0.0000000 0.6319094 0.5385000
v 0.0338228 0.6474943 0.5385000
v 0.0000000 0.6615042 0.5385000
v 0.0000000 0.6615042 0.5385000
v 0.0338228 0.6474943 0.5385000
v 0.0474144 0.6678357 0.5385000
v 0.0000000 0.6615042 0.5385000
v 0.0474144 0.6678357 0.5385000
v 0.0000000 0.6659815 0.5385000
v 0.0000000 0.6659815 0.5385000
v 0.0474144 0.6678357 0.5385000
v 0.0139683 0.7012818 0.5385000
v 0.0000000 0.6659815 0.5385000
v 0.0139683 0.7012818 0.5385000
v 0.0000000 0.6803768 0.5385000
v 0.0139683 0.7012818 0.5385000
v 0.0474144 0.6678357 0.5385000
v 0.0677557 0.6814272 0.5385000
v 0.0139683 0.7012818 0.5385000
v 0.0677557 0.6814272 0.5385000
v 0.0496548 0.7251267 0.5385000
v 0.0496548 0.7251267 0.5385000
v 0.0677557 0.6814272 0.5385000
v 0.0917500 0.6861999 0.5385000
v 0.0496548 0.7251267 0.5385000
v 0.0917500 0.6861999 0.5385000
v 0.0917500 0.7335000 0.5385000
v 0.0917500 0.6861999 0.5385000
v 0.1157444 0.6814272 0.5385000
v 0.1338452 0.7251267 0.5385000
v 0.0917500 0.6861999 0.5385000
v 0.1338452 0.7251267 0.5385000
v 0.0917500 0.7335000 0.5385000
v 0.1157444 0.6814272 0.5385000
v 0.1360856 0.6678357 0.5385000
v 0.1695318 0.7012818 0.5385000
v 0.1157444 0.6814272 0.5385000
v 0.1695318 0.7012818 0.5385000
v 0.1338452 0.7251267 0.5385000
v 0.1360856 0.6678357 0.5385000
v 0.1496773 0.6474943 0.5385000
v 0.1933768 0.6655953 0.5385000
v 0.1360856 0.6678357 0.5385000
v 0.1933768 0.6655953 0.5385000
v 0.1695318 0.7012818 0.5385000
v 0.1496773 0.6474943 0.5385000
v 0.1544501 0.6235001 0.5385000
v 0.2017500 0.6235001 0.5385000
v 0.1496773 0.6474943 0.5385000
v 0.2017500 0.6235001 0.5385000
v 0.1933768 0.6655953 0.5385000
v 0.1496773 0.5995059 0.5385000
v 0.1933768 0.5814049 0.5385000
v 0.2017500 0.6235001 0.5385000
v 0.1496773 0.5995059 0.5385000
v 0.2017500 0.6235001 0.5385000
v 0.1544501 0.6235001 0.5385000
v 0.1360856 0.5791645 0.5385000
v 0.1695318 0.5457184 0.5385000
v 0.1933768 0.5814049 0.5385000
v 0.1360856 0.5791645 0.5385000
v 0.1933768 0.5814049 0.5385000
v 0.1496773 0.5995059 0.5385000
v 0.1157444 0.5655727 0.5385000
v 0.1338452 0.5218732 0.5385000
v 0.1695318 0.5457184 0.5385000
v 0.1157444 0.5655727 0.5385000
v 0.1695318 0.5457184 0.5385000
v 0.1360856 0.5791645 0.5385000
v 0.0917500 0.5135002 0.5385000
v 0.1338452 0.5218732 0.5385000
v 0.1157444 0.5655727 0.5385000
v 0.0917500 0.5135002 0.5385000
v 0.1157444 0.5655727 0.5385000
v 0.0917500 0.5608001 0.5385000
v 0.0496548 0.5218732 0.5385000
v 0.0917500 0.5135002 0.5385000
v 0.0917500 0.5608001 0.5385000
v 0.0496548 0.5218732 0.5385000
v 0.0917500 0.5608001 0.5385000
v 0.0677557 0.5655727 0.5385000
v 0.0139683 0.5457184 0.5385000
v 0.0496548 0.5218732 0.5385000
v 0.0677557 0.5655727 0.5385000
v 0.0139683 0.5457184 0.5385000
v 0.0677557 0.5655727 0.5385000
v 0.0474144 0.5791645 0.5385000
v 0.0000000 0.5666234 0.5385000
v 0.0139683 0.5457184 0.5385000
v 0.0474144 0.5791645 0.5385000
v 0.0000000 0.5666234 0.5385000
v 0.0474144 0.5791645 0.5385000
v 0.0000000 0.5810187 0.5385000
v 0.0000000 0.5810187 0.5385000
v 0.0474144 0.5791645 0.5385000
v 0.0338228 0.5995059 0.5385000
v 0.0000000 0.5810187 0.5385000
v 0.0338228 0.5995059 0.5385000
v 0.0000000 0.5854960 0.5385000
v 0.0000000 0.5854960 0.5385000
v 0.0338228 0.5995059 0.5385000
v 0.0000000 0.6150908 0.5385000
v 0.0000000 0.6150908 0.5385000
v 0.0338228 0.5995059 0.5385000
v 0.0290500 0.6235001 0.5385000
v 0.0000000 0.6150908 0.5385000
v 0.0290500 0.6235001 0.5385000
v 0.0000000 0.6235001 0.5385000
vt 0.4015152 0.0849229
vt 0.4488636 0.0849229
vt 0.4488636 0.0910073
vt 0.4015152 0.0849229
vt 0.4488636 0.0910073
vt 0.4015152 0.0860827
vt 0.4015152 0.0860827
vt 0.4488636 0.0910073
vt 0.4488636 0.0934692
vt 0.4015152 0.0860827
vt 0.4488636 0.0934692
vt 0.4015152 0.0934692
vt 0.4015152 0.0739311
vt 0.4488636 0.0739311
vt 0.4488636 0.0805331
vt 0.4015152 0.0739311
vt 0.4488636 0.0805331
vt 0.4015152 0.0751895
vt 0.4015152 0.0751895
vt 0.4488636 0.0805331
vt 0.4488636 0.0849229
vt 0.4015152 0.0751895
vt 0.4488636 0.0849229
vt 0.4015152 0.0849229
vt 0.4015152 0.0625000
vt 0.4488636 0.0625000
vt 0.4488636 0.0693659
vt 0.4015152 0.0625000
vt 0.4488636 0.0693659
vt 0.4015152 0.0638087
vt 0.4015152 0.0638087
vt 0.4488636 0.0693659
vt 0.4488636 0.0739311
vt 0.4015152 0.0638087
vt 0.4488636 0.0739311
vt 0.4015152 0.0739311
vt 0.4015152 0.0510689
vt 0.4488636 0.0510689
vt 0.4488636 0.0579348
vt 0.4015152 0.0510689
vt 0.4488636 0.0579348
vt 0.4015152 0.0523776
vt 0.4015152 0.0523776
vt 0.4488636 0.0579348
vt 0.4488636 0.0625000
vt 0.4015152 0.0523776
vt 0.4488636 0.0625000
vt 0.4015152 0.0625000
vt 0.4015152 0.0400771
vt 0.4488636 0.0400771
vt 0.4488636 0.0466791
vt 0.4015152 0.0400771
vt 0.4488636 0.0466791
vt 0.4015152 0.0413355
vt 0.4015152 0.0413355
vt 0.4488636 0.0466791
vt 0.4488636 0.0510689
vt 0.4015152 0.0413355
vt 0.4488636 0.0510689
vt 0.4015152 0.0510689
vt 0.4488636 0.0315308
vt 0.4488636 0.0360315
vt 0.4055914 0.0315308
vt 0.4055914 0.0315308
vt 0.4488636 0.0360315
vt 0.4488636 0.0400771
vt 0.4055914 0.0315308
vt 0.4488636 0.0400771
vt 0.4015152 0.0400771
vt 0.4055914 0.0315308
vt 0.4015152 0.0400771
vt 0.4015152 0.0315308
vt 0.3946983 0.0130215
vt 0.4508696 0.0144674
vt 0.4497120 0.0134641
vt 0.3946983 0.0130215
vt 0.4497120 0.0134641
vt 0.3920947 0.0107651
vt 0.3920947 0.0107651
vt 0.4497120 0.0134641
vt 0.4497120 0.0092111
vt 0.3920947 0.0107651
vt 0.4497120 0.0092111
vt 0.3920947 0.0099822
vt 0.3921510 0.1210938
vt 0.4497370 0.1210938
vt 0.4497370 0.1164634
vt 0.3921510 0.1210938
vt 0.4497370 0.1164634
vt 0.3921510 0.1106798
vt 0.3921510 0.1106798
vt 0.4497370 0.1164634
vt 0.4497370 0.1093750
vt 0.3921510 0.1106798
vt 0.4497370 0.1093750
vt 0.3921510 0.1093750
vt 0.3920947 0.1148437
vt 0.4497119 0.1148437
vt 0.4497120 0.1186242
vt 0.3920947 0.1148437
vt 0.4497120 0.1186242
vt 0.3920947 0.1155396
vt 0.3920947 0.1155396
vt 0.4497120 0.1186242
vt 0.4527572 0.1210938
vt 0.3920947 0.1155396
vt 0.4527572 0.1210938
vt 0.3989436 0.1210938
vt 0.3918319 0.1100274
vt 0.4480032 0.1129192
vt 0.4497370 0.1126829
vt 0.3918319 0.1100274
vt 0.4497370 0.1126829
vt 0.3921511 0.1099839
vt 0.3921511 0.1099839
vt 0.4497370 0.1126829
vt 0.4497370 0.1148437
vt 0.3921511 0.1099839
vt 0.4497370 0.1148437
vt 0.3921510 0.1148437
vt 0.3920947 0.0099822
vt 0.4497120 0.0092111
vt 0.4497119 0.0734792
vt 0.3920947 0.0099822
vt 0.4497119 0.0734792
vt 0.3920947 0.0218123
vt 0.3920947 0.0218123
vt 0.4497119 0.0734792
vt 0.4497119 0.1148437
vt 0.3920947 0.0218123
vt 0.4497119 0.1148437
vt 0.3920947 0.1148437
vt 0.3921510 0.1093750
vt 0.4497370 0.1093750
vt 0.4508696 0.0711745
vt 0.3921510 0.1093750
vt 0.4508696 0.0711745
vt 0.3946983 0.0234598
vt 0.3946983 0.0234598
vt 0.4508696 0.0711745
vt 0.4508696 0.0144674
vt 0.3946983 0.0234598
vt 0.4508696 0.0144674
vt 0.3946983 0.0130215
vt 0.3921510 0.1148437
vt 0.4497370 0.1148437
vt 0.4497370 0.0734792
vt 0.3921510 0.1148437
vt 0.4497370 0.0734792
vt 0.3921510 0.0218123
vt 0.3921510 0.0218123
vt 0.4497370 0.0734792
vt 0.4497370 0.0101562
vt 0.3921510 0.0218123
vt 0.4497370 0.0101562
vt 0.3921510 0.0101562
vt 0.3921510 0.0156250
vt 0.4497370 0.0156250
vt 0.4480032 0.0758763
vt 0.3921510 0.0156250
vt 0.4480032 0.0758763
vt 0.3918319 0.0267157
vt 0.3918319 0.0267157
vt 0.4480032 0.0758763
vt 0.4480032 0.1129192
vt 0.3918319 0.0267157
vt 0.4480032 0.1129192
vt 0.3918319 0.1100274
vt 0.3946983 0.0130215
vt 0.4508696 0.0144674
vt 0.4497120 0.0134641
vt 0.3946983 0.0130215
vt 0.4497120 0.0134641
vt 0.3920947 0.0107651
vt 0.3920947 0.0107651
vt 0.4497120 0.0134641
vt 0.4497119 0.0092111
vt 0.3920947 0.0107651
vt 0.4497119 0.0092111
vt 0.3920947 0.0099822
vt 0.3921510 0.1210938
vt 0.4497370 0.1210938
vt 0.4497370 0.1164634
vt 0.3921510 0.1210938
vt 0.4497370 0.1164634
vt 0.3921510 0.1106798
vt 0.3921510 0.1106798
vt 0.4497370 0.1164634
vt 0.4497370 0.1093750
vt 0.3921510 0.1106798
vt 0.4497370 0.1093750
vt 0.3921510 0.1093750
vt 0.3920947 0.1148437
vt 0.4497119 0.1148437
vt 0.4497120 0.1186242
vt 0.3920947 0.1148437
vt 0.4497120 0.1186242
vt 0.3920947 0.1155396
vt 0.3920947 0.1155396
vt 0.4497120 0.1186242
vt 0.4527572 0.1210938
vt 0.3920947 0.1155396
vt 0.4527572 0.1210938
vt 0.3989436 0.1210938
vt 0.3918319 0.1100274
vt 0.4480032 0.1129192
vt 0.4497370 0.1126829
vt 0.3918319 0.1100274
vt 0.4497370 0.1126829
vt 0.3921511 0.1099839
vt 0.3921511 0.1099839
vt 0.4497370 0.1126829
vt 0.4497370 0.1148437
vt 0.3921511 0.1099839
vt 0.4497370 0.1148437
vt 0.3921510 0.1148437
vt 0.3920947 0.0099822
vt 0.4497119 0.0092111
vt 0.4497119 0.0734792
vt 0.3920947 0.0099822
vt 0.4497119 0.0734792
vt 0.3920947 0.0218123
vt 0.3920947 0.0218123
vt 0.4497119 0.0734792
vt 0.4497119 0.1148437
vt 0.3920947 0.0218123
vt 0.4497119 0.1148437
vt 0.3920947 0.1148437
vt 0.3921510 0.1093750
vt 0.4497370 0.1093750
vt 0.4508696 0.0711745
vt 0.3921510 0.1093750
vt 0.4508696 0.0711745
vt 0.3946983 0.0234598
vt 0.3946983 0.0234598
vt 0.4508696 0.0711745
vt 0.4508696 0.0144674
vt 0.3946983 0.0234598
vt 0.4508696 0.0144674
vt 0.3946983 0.0130215
vt 0.3921510 0.1148437
vt 0.4497370 0.1148437
vt 0.4497370 0.0734792
vt 0.3921510 0.1148437
vt 0.4497370 0.0734792
vt 0.3921510 0.0218123
vt 0.3921510 0.0218123
vt 0.4497370 0.0734792
vt 0.4497370 0.0101562
vt 0.3921510 0.0218123
vt 0.4497370 0.0101562
vt 0.3921510 0.0101562
vt 0.3921510 0.0156250
vt 0.4497370 0.0156250
vt 0.4480032 0.0758763
vt 0.3921510 0.0156250
vt 0.4480032 0.0758763
vt 0.3918319 0.0267157
vt 0.3918319 0.0267157
vt 0.4480032 0.0758763
vt 0.4480032 0.1129192
vt 0.3918319 0.0267157
vt 0.4480032 0.1129192
vt 0.3918319 0.1100274
vt 0.3946983 0.0130215
vt 0.4508696 0.0144674
vt 0.4497120 0.0134641
vt 0.3946983 0.0130215
vt 0.4497120 0.0134641
vt 0.3920947 0.0107651
vt 0.3920947 0.0107651
vt 0.4497120 0.0134641
vt 0.4497119 0.0092111
vt 0.3920947 0.0107651
vt 0.4497119 0.0092111
vt 0.3920947 0.0099822
vt 0.3921510 0.1210938
vt 0.4497370 0.1210938
vt 0.4497370 0.1164634
vt 0.3921510 0.1210938
vt 0.4497370 0.1164634
vt 0.3921510 0.1106798
vt 0.3921510 0.1106798
vt 0.4497370 0.1164634
vt 0.4497370 0.1093750
vt 0.3921510 0.1106798
vt 0.4497370 0.1093750
vt 0.3921510 0.1093750
vt 0.3920947 0.1148437
vt 0.4497120 0.1148437
vt 0.4497120 0.1186242
vt 0.3920947 0.1148437
vt 0.4497120 0.1186242
vt 0.3920948 0.1155396
vt 0.3920948 0.1155396
vt 0.4497120 0.1186242
vt 0.4527572 0.1210938
vt 0.3920948 0.1155396
vt 0.4527572 0.1210938
vt 0.3989436 0.1210938
vt 0.3918319 0.1100274
vt 0.4480032 0.1129192
vt 0.4497370 0.1126829
vt 0.3918319 0.1100274
vt 0.4497370 0.1126829
vt 0.3921511 0.1099839
vt 0.3921511 0.1099839
vt 0.4497370 0.1126829
vt 0.4497370 0.1148437
vt 0.3921511 0.1099839
vt 0.4497370 0.1148437
vt 0.3921510 0.1148437
vt 0.3920947 0.0099822
vt 0.4497119 0.0092111
vt 0.4497119 0.0734792
vt 0.3920947 0.0099822
vt 0.4497119 0.0734792
vt 0.3920947 0.0218123
vt 0.3920947 0.0218123
vt 0.4497119 0.0734792
vt 0.4497120 0.1148437
vt 0.3920947 0.0218123
vt 0.4497120 0.1148437
vt 0.3920947 0.1148437
vt 0.3921510 0.1093750
vt 0.4497370 0.1093750
vt 0.4508696 0.0711745
vt 0.3921510 0.1093750
vt 0.4508696 0.0711745
vt 0.3946983 0.0234598
vt 0.3946983 0.0234598
vt 0.4508696 0.0711745
vt 0.4508696 0.0144674
vt 0.3946983 0.0234598
vt 0.4508696 0.0144674
vt 0.3946983 0.0130215
vt 0.3921510 0.1148437
vt 0.4497370 0.1148437
vt 0.4497370 0.0734792
vt 0.3921510 0.1148437
vt 0.4497370 0.0734792
vt 0.3921510 0.0218123
vt 0.3921510 0.0218123
vt 0.4497370 0.0734792
vt 0.4497370 0.0101562
vt 0.3921510 0.0218123
vt 0.4497370 0.0101562
vt 0.3921510 0.0101562
vt 0.3921510 0.0156250
vt 0.4497370 0.0156250
vt 0.4480032 0.0758763
vt 0.3921510 0.0156250
vt 0.4480032 0.0758763
vt 0.3918319 0.0267157
vt 0.3918319 0.0267157
vt 0.4480032 0.0758763
vt 0.4480032 0.1129192
vt 0.3918319 0.0267157
vt 0.4480032 0.1129192
vt 0.3918319 0.1100274
vt 0.3789062 0.0927966
vt 0.3789062 0.1039321
vt 0.4960938 0.1039321
vt 0.3789062 0.0927966
vt 0.4960938 0.1039321
vt 0.4274458 0.0927966
vt 0.4274458 0.0927966
vt 0.4960938 0.1039321
vt 0.4960938 0.0927966
vt 0.3960680 0.0039062
vt 0.4150772 0.0039062
vt 0.4150772 0.1210938
vt 0.3960680 0.0039062
vt 0.4150772 0.1210938
vt 0.3960680 0.1210938
vt 0.4150772 0.0039062
vt 0.4375000 0.0039062
vt 0.4375000 0.1210938
vt 0.4150772 0.0039062
vt 0.4375000 0.1210938
vt 0.4150772 0.1210938
vt 0.4375000 0.0039062
vt 0.4599229 0.0039062
vt 0.4599229 0.1210938
vt 0.4375000 0.0039062
vt 0.4599229 0.1210938
vt 0.4375000 0.1210938
vt 0.4599229 0.0039062
vt 0.4789321 0.0039062
vt 0.4789321 0.1210938
vt 0.4599229 0.0039062
vt 0.4789321 0.1210938
vt 0.4599229 0.1210938
vt 0.3789062 0.1039321
vt 0.3789062 0.0849229
vt 0.4960938 0.0849229
vt 0.3789062 0.1039321
vt 0.4960938 0.0849229
vt 0.4960938 0.1039321
vt 0.3789062 0.0849229
vt 0.3789062 0.0625000
vt 0.4960938 0.0625000
vt 0.3789062 0.0849229
vt 0.4960938 0.0625000
vt 0.4960938 0.0849229
vt 0.3789062 0.0400771
vt 0.4960938 0.0400771
vt 0.4960938 0.0625000
vt 0.3789062 0.0400771
vt 0.4960938 0.0625000
vt 0.3789062 0.0625000
vt 0.3789062 0.0210679
vt 0.4960938 0.0210679
vt 0.4960938 0.0400771
vt 0.3789062 0.0210679
vt 0.4960938 0.0400771
vt 0.3789062 0.0400771
vt 0.4599229 0.0039062
vt 0.4599229 0.1210938
vt 0.4789321 0.1210938
vt 0.4599229 0.0039062
vt 0.4789321 0.1210938
vt 0.4789321 0.0039062
vt 0.4375000 0.0039062
vt 0.4375000 0.1210938
vt 0.4599229 0.1210938
vt 0.4375000 0.0039062
vt 0.4599229 0.1210938
vt 0.4599229 0.0039062
vt 0.4150772 0.0039062
vt 0.4150772 0.1210938
vt 0.4375000 0.1210938
vt 0.4150772 0.0039062
vt 0.4375000 0.1210938
vt 0.4375000 0.0039062
vt 0.3960680 0.0039062
vt 0.3960680 0.1210938
vt 0.4150772 0.1210938
vt 0.3960680 0.0039062
vt 0.4150772 0.1210938
vt 0.4150772 0.0039062
vt 0.4960938 0.0322034
vt 0.4960938 0.0210679
vt 0.4274458 0.0322034
vt 0.4274458 0.0322034
vt 0.4960938 0.0210679
vt 0.3789062 0.0210679
vt 0.4274458 0.0322034
vt 0.3789062 0.0210679
vt 0.3789062 0.0322034
vt 0.3886274 0.0827437
vt 0.4066439 0.0752810
vt 0.3886275 0.0669794
vt 0.3886275 0.0669794
vt 0.4066439 0.0752810
vt 0.4041016 0.0625000
vt 0.3886275 0.0669794
vt 0.4041016 0.0625000
vt 0.3886275 0.0625000
vt 0.3886275 0.0927966
vt 0.3960680 0.1039321
vt 0.4138837 0.0861163
vt 0.3886275 0.0927966
vt 0.4138837 0.0861163
vt 0.3886274 0.0851286
vt 0.3886274 0.0851286
vt 0.4138837 0.0861163
vt 0.4066439 0.0752810
vt 0.3886274 0.0851286
vt 0.4066439 0.0752810
vt 0.3886274 0.0827437
vt 0.3960680 0.1039321
vt 0.4150772 0.1166336
vt 0.4247190 0.0933562
vt 0.3960680 0.1039321
vt 0.4247190 0.0933562
vt 0.4138837 0.0861163
vt 0.4150772 0.1166336
vt 0.4375000 0.1210938
vt 0.4375000 0.0958984
vt 0.4150772 0.1166336
vt 0.4375000 0.0958984
vt 0.4247190 0.0933562
vt 0.4375000 0.0958984
vt 0.4375000 0.1210938
vt 0.4599229 0.1166336
vt 0.4375000 0.0958984
vt 0.4599229 0.1166336
vt 0.4502811 0.0933562
vt 0.4502811 0.0933562
vt 0.4599229 0.1166336
vt 0.4789321 0.1039321
vt 0.4502811 0.0933562
vt 0.4789321 0.1039321
vt 0.4611163 0.0861163
vt 0.4611163 0.0861163
vt 0.4789321 0.1039321
vt 0.4916336 0.0849229
vt 0.4611163 0.0861163
vt 0.4916336 0.0849229
vt 0.4683561 0.0752810
vt 0.4683561 0.0752810
vt 0.4916336 0.0849229
vt 0.4960938 0.0625000
vt 0.4683561 0.0752810
vt 0.4960938 0.0625000
vt 0.4708984 0.0625000
vt 0.4683561 0.0497190
vt 0.4708984 0.0625000
vt 0.4960938 0.0625000
vt 0.4683561 0.0497190
vt 0.4960938 0.0625000
vt 0.4916336 0.0400771
vt 0.4611163 0.0388837
vt 0.4683561 0.0497190
vt 0.4916336 0.0400771
vt 0.4611163 0.0388837
vt 0.4916336 0.0400771
vt 0.4789321 0.0210679
vt 0.4502811 0.0316438
vt 0.4611163 0.0388837
vt 0.4789321 0.0210679
vt 0.4502811 0.0316438
vt 0.4789321 0.0210679
vt 0.4599229 0.0083664
vt 0.4375000 0.0039062
vt 0.4375000 0.0291016
vt 0.4502811 0.0316438
vt 0.4375000 0.0039062
vt 0.4502811 0.0316438
vt 0.4599229 0.0083664
vt 0.4150772 0.0083664
vt 0.4247190 0.0316438
vt 0.4375000 0.0291016
vt 0.4150772 0.0083664
vt 0.4375000 0.0291016
vt 0.4375000 0.0039062
vt 0.3960680 0.0210679
vt 0.4138837 0.0388837
vt 0.4247190 0.0316438
vt 0.3960680 0.0210679
vt 0.4247190 0.0316438
vt 0.4150772 0.0083664
vt 0.3886274 0.0422563
vt 0.4066439 0.0497190
vt 0.4138837 0.0388837
vt 0.3886274 0.0422563
vt 0.4138837 0.0388837
vt 0.3886274 0.0398714
vt 0.3886274 0.0398714
vt 0.4138837 0.0388837
vt 0.3960680 0.0210679
vt 0.3886274 0.0398714
vt 0.3960680 0.0210679
vt 0.3886275 0.0322034
vt 0.3886275 0.0625000
vt 0.4041016 0.0625000
vt 0.4066439 0.0497190
vt 0.3886275 0.0625000
vt 0.4066439 0.0497190
vt 0.3886275 0.0580206
vt 0.3886275 0.0580206
vt 0.4066439 0.0497190
vt 0.3886274 0.0422563
vt 0.3789062 0.0625000
vt 0.4960938 0.0625000
vt 0.4960938 0.0752810
vt 0.3789062 0.0625000
vt 0.4960938 0.0752810
vt 0.3789062 0.0752810
vt 0.3789062 0.0752810
vt 0.4960938 0.0752810
vt 0.4960938 0.0861163
vt 0.3789062 0.0752810
vt 0.4960938 0.0861163
vt 0.3789062 0.0861163
vt 0.4138837 0.0039062
vt 0.4138837 0.1210938
vt 0.4247190 0.1210938
vt 0.4138837 0.0039062
vt 0.4247190 0.1210938
vt 0.4247190 0.0039062
vt 0.4247190 0.0039062
vt 0.4247190 0.1210938
vt 0.4375000 0.1210938
vt 0.4247190 0.0039062
vt 0.4375000 0.1210938
vt 0.4375000 0.0039062
vt 0.4375000 0.0039062
vt 0.4375000 0.1210938
vt 0.4502811 0.1210938
vt 0.4375000 0.0039062
vt 0.4502811 0.1210938
vt 0.4502811 0.0039062
vt 0.4502811 0.0039062
vt 0.4502811 0.1210938
vt 0.4611163 0.1210938
vt 0.4502811 0.0039062
vt 0.4611163 0.1210938
vt 0.4611163 0.0039062
vt 0.3789062 0.0861163
vt 0.4960938 0.0861163
vt 0.4960938 0.0752810
vt 0.3789062 0.0861163
vt 0.4960938 0.0752810
vt 0.3789062 0.0752810
vt 0.3789062 0.0752810
vt 0.4960938 0.0752810
vt 0.4960938 0.0625000
vt 0.3789062 0.0752810
vt 0.4960938 0.0625000
vt 0.3789062 0.0625000
vt 0.3789062 0.0497190
vt 0.3789062 0.0625000
vt 0.4960938 0.0625000
vt 0.3789062 0.0497190
vt 0.4960938 0.0625000
vt 0.4960938 0.0497190
vt 0.3789062 0.0388837
vt 0.3789062 0.0497190
vt 0.4960938 0.0497190
vt 0.3789062 0.0388837
vt 0.4960938 0.0497190
vt 0.4960938 0.0388837
vt 0.4502811 0.0039062
vt 0.4611163 0.0039062
vt 0.4611163 0.1210938
vt 0.4502811 0.0039062
vt 0.4611163 0.1210938
vt 0.4502811 0.1210938
vt 0.4375000 0.0039062
vt 0.4502811 0.0039062
vt 0.4502811 0.1210938
vt 0.4375000 0.0039062
vt 0.4502811 0.1210938
vt 0.4375000 0.1210938
vt 0.4247190 0.0039062
vt 0.4375000 0.0039062
vt 0.4375000 0.1210938
vt 0.4247190 0.0039062
vt 0.4375000 0.1210938
vt 0.4247190 0.1210938
vt 0.4138837 0.0039062
vt 0.4247190 0.0039062
vt 0.4247190 0.1210938
vt 0.4138837 0.0039062
vt 0.4247190 0.1210938
vt 0.4138837 0.1210938
vt 0.3789062 0.0497190
vt 0.3789062 0.0388837
vt 0.4960938 0.0388837
vt 0.3789062 0.0497190
vt 0.4960938 0.0388837
vt 0.4960938 0.0497190
vt 0.3789062 0.0625000
vt 0.3789062 0.0497190
vt 0.4960938 0.0497190
vt 0.3789062 0.0625000
vt 0.4960938 0.0497190
vt 0.4960938 0.0625000
vt 0.3886275 0.0625000
vt 0.4041016 0.0625000
vt 0.4066439 0.0752810
vt 0.3886275 0.0625000
vt 0.4066439 0.0752810
vt 0.3886275 0.0669794
vt 0.3886275 0.0669794
vt 0.4066439 0.0752810
vt 0.3886274 0.0827437
vt 0.3886274 0.0827437
vt 0.4066439 0.0752810
vt 0.4138837 0.0861163
vt 0.3886274 0.0827437
vt 0.4138837 0.0861163
vt 0.3886274 0.0851286
vt 0.3886274 0.0851286
vt 0.4138837 0.0861163
vt 0.3960680 0.1039321
vt 0.3886274 0.0851286
vt 0.3960680 0.1039321
vt 0.3886275 0.0927966
vt 0.3960680 0.1039321
vt 0.4138837 0.0861163
vt 0.4247190 0.0933562
vt 0.3960680 0.1039321
vt 0.4247190 0.0933562
vt 0.4150772 0.1166336
vt 0.4150772 0.1166336
vt 0.4247190 0.0933562
vt 0.4375000 0.0958984
vt 0.4150772 0.1166336
vt 0.4375000 0.0958984
vt 0.4375000 0.1210938
vt 0.4375000 0.0958984
vt 0.4502811 0.0933562
vt 0.4599229 0.1166336
vt 0.4375000 0.0958984
vt 0.4599229 0.1166336
vt 0.4375000 0.1210938
vt 0.4502811 0.0933562
vt 0.4611163 0.0861163
vt 0.4789321 0.1039321
vt 0.4502811 0.0933562
vt 0.4789321 0.1039321
vt 0.4599229 0.1166336
vt 0.4611163 0.0861163
vt 0.4683561 0.0752810
vt 0.4916336 0.0849229
vt 0.4611163 0.0861163
vt 0.4916336 0.0849229
vt 0.4789321 0.1039321
vt 0.4683561 0.0752810
vt 0.4708984 0.0625000
vt 0.4960938 0.0625000
vt 0.4683561 0.0752810
vt 0.4960938 0.0625000
vt 0.4916336 0.0849229
vt 0.4683561 0.0497190
vt 0.4916336 0.0400771
vt 0.4960938 0.0625000
vt 0.4683561 0.0497190
vt 0.4960938 0.0625000
vt 0.4708984 0.0625000
vt 0.4611163 0.0388837
vt 0.4789321 0.0210679
vt 0.4916336 0.0400771
vt 0.4611163 0.0388837
vt 0.4916336 0.0400771
vt 0.4683561 0.0497190
vt 0.4502811 0.0316438
vt 0.4599229 0.0083664
vt 0.4789321 0.0210679
vt 0.4502811 0.0316438
vt 0.4789321 0.0210679
vt 0.4611163 0.0388837
vt 0.4375000 0.0039062
vt 0.4599229 0.0083664
vt 0.4502811 0.0316438
vt 0.4375000 0.0039062
vt 0.4502811 0.0316438
vt 0.4375000 0.0291016
vt 0.4150772 0.0083664
vt 0.4375000 0.0039062
vt 0.4375000 0.0291016
vt 0.4150772 0.0083664
vt 0.4375000 0.0291016
vt 0.4247190 0.0316438
vt 0.3960680 0.0210679
vt 0.4150772 0.0083664
vt 0.4247190 0.0316438
vt 0.3960680 0.0210679
vt 0.4247190 0.0316438
vt 0.4138837 0.0388837
vt 0.3886275 0.0322034
vt 0.3960680 0.0210679
vt 0.4138837 0.0388837
vt 0.3886275 0.0322034
vt 0.4138837 0.0388837
vt 0.3886274 0.0398714
vt 0.3886274 0.0398714
vt 0.4138837 0.0388837
vt 0.4066439 0.0497190
vt 0.3886274 0.0398714
vt 0.4066439 0.0497190
vt 0.3886274 0.0422563
vt 0.3886274 0.0422563
vt 0.4066439 0.0497190
vt 0.3886275 0.0580206
vt 0.3886275 0.0580206
vt 0.4066439 0.0497190
vt 0.4041016 0.0625000
vt 0.3886275 0.0580206
vt 0.4041016 0.0625000
vt 0.3886275 0.0625000
vn 0.0000000 0.9238796 -0.3826832
vn 0.0000000 0.9238796 -0.3826832
vn 0.0000000 0.8724055 -0.4887829
vn 0.0000000 0.9238796 -0.3826832
vn 0.0000000 0.8724055 -0.4887829
vn 0.0000000 0.9150842 -0.4032629
vn 0.0000000 0.9150842 -0.4032629
vn 0.0000000 0.8724055 -0.4887829
vn 0.0000000 0.8480689 -0.5298860
vn 0.0000000 0.9150842 -0.4032629
vn 0.0000000 0.8480689 -0.5298860
vn 0.0000000 0.8480689 -0.5298860
vn 0.0000000 0.9807852 -0.1950905
vn 0.0000000 0.9807852 -0.1950905
vn 0.0000000 0.9509993 -0.3091931
vn 0.0000000 0.9807852 -0.1950905
vn 0.0000000 0.9509993 -0.3091931
vn 0.0000000 0.9761737 -0.2169905
vn 0.0000000 0.9761737 -0.2169905
vn 0.0000000 0.9509993 -0.3091931
vn 0.0000000 0.9238796 -0.3826832
vn 0.0000000 0.9761737 -0.2169905
vn 0.0000000 0.9238796 -0.3826832
vn 0.0000000 0.9238796 -0.3826832
vn 0.0000000 1.0000000 0.0000000
vn 0.0000000 1.0000000 0.0000000
vn 0.0000000 0.9930467 -0.1177214
vn 0.0000000 1.0000000 0.0000000
vn 0.0000000 0.9930467 -0.1177214
vn 0.0000000 0.9997496 -0.0223790
vn 0.0000000 0.9997496 -0.0223790
vn 0.0000000 0.9930467 -0.1177214
vn 0.0000000 0.9807852 -0.1950905
vn 0.0000000 0.9997496 -0.0223790
vn 0.0000000 0.9807852 -0.1950905
vn 0.0000000 0.9807852 -0.1950905
vn 0.0000000 0.9807852 0.1950905
vn 0.0000000 0.9807852 0.1950905
vn 0.0000000 0.9969318 0.0782745
vn 0.0000000 0.9807852 0.1950905
vn 0.0000000 0.9969318 0.0782745
vn 0.0000000 0.9849055 0.1730927
vn 0.0000000 0.9849055 0.1730927
vn 0.0000000 0.9969318 0.0782745
vn 0.0000000 1.0000000 0.0000000
vn 0.0000000 0.9849055 0.1730927
vn 0.0000000 1.0000000 0.0000000
vn 0.0000000 1.0000000 0.0000000
vn 0.0000000 0.9238796 0.3826832
vn 0.0000000 0.9238796 0.3826832
vn 0.0000000 0.9625055 0.2712622
vn 0.0000000 0.9238796 0.3826832
vn 0.0000000 0.9625055 0.2712622
vn 0.0000000 0.9322123 0.3619119
vn 0.0000000 0.9322123 0.3619119
vn 0.0000000 0.9625055 0.2712622
vn 0.0000000 0.9807852 0.1950905
vn 0.0000000 0.9322123 0.3619119
vn 0.0000000 0.9807852 0.1950905
vn 0.0000000 0.9807852 0.1950905
vn 0.0000000 0.8480689 0.5298860
vn 0.0000000 0.8910906 0.4538254
vn 0.0000000 0.8480689 0.5298860
vn 0.0000000 0.8480689 0.5298860
vn 0.0000000 0.8910906 0.4538254
vn 0.0000000 0.9238796 0.3826832
vn 0.0000000 0.8480689 0.5298860
vn 0.0000000 0.9238796 0.3826832
vn 0.0000000 0.9238796 0.3826832
vn 0.0000000 0.8480689 0.5298860
vn 0.0000000 0.9238796 0.3826832
vn 0.0000000 0.8480689 0.5298860
vn 0.0000000 -0.7071069 0.7071067
vn 0.0000000 -0.7071069 0.7071067
vn 0.0000000 -0.7071069 0.7071067
vn 0.0000000 -0.7071069 0.7071067
vn 0.0000000 -0.7071069 0.7071067
vn 0.0000000 -0.7071069 0.7071067
vn 0.0000000 -0.7071069 0.7071067
vn 0.0000000 -0.7071069 0.7071067
vn 0.0000000 -0.7071069 0.7071067
vn 0.0000000 -0.7071069 0.7071067
vn 0.0000000 -0.7071069 0.7071067
vn 0.0000000 -0.7071069 0.7071067
vn 0.0000000 -0.7071069 -0.7071067
vn 0.0000000 -0.7071069 -0.7071067
vn 0.0000000 -0.7071069 -0.7071067
vn 0.0000000 -0.7071069 -0.7071067
vn 0.0000000 -0.7071069 -0.7071067
vn 0.0000000 -0.7071069 -0.7071067
vn 0.0000000 -0.7071069 -0.7071067
vn 0.0000000 -0.7071069 -0.7071067
vn 0.0000000 -0.7071069 -0.7071067
vn 0.0000000 -0.7071069 -0.7071067
vn 0.0000000 -0.7071069 -0.7071067
vn 0.0000000 -0.7071069 -0.7071067
vn 0.0000000 0.7071069 0.7071067
vn 0.0000000 0.7071069 0.7071067
vn 0.0000000 0.7071069 0.7071067
vn 0.0000000 0.7071069 0.7071067
vn 0.0000000 0.7071069 0.7071067
vn 0.0000000 0.7071069 0.7071067
vn 0.0000000 0.7071069 0.7071067
vn 0.0000000 0.7071069 0.7071067
vn 0.0000000 0.7071069 0.7071067
vn 0.0000000 0.7071069 0.7071067
vn 0.0000000 0.7071069 0.7071067
vn 0.0000000 0.7071069 0.7071067
vn 0.0000000 0.7071069 -0.7071067
vn 0.0000000 0.7071069 -0.7071067
vn 0.0000000 0.7071069 -0.7071067
vn 0.0000000 0.7071069 -0.7071067
vn 0.0000000 0.7071069 -0.7071067
vn 0.0000000 0.7071069 -0.7071067
vn 0.0000000 0.7071069 -0.7071067
vn 0.0000000 0.7071069 -0.7071067
vn 0.0000000 0.7071069 -0.7071067
vn 0.0000000 0.7071069 -0.7071067
vn 0.0000000 0.7071069 -0.7071067
vn 0.0000000 0.7071069 -0.7071067
vn 0.0000000 0.0000000 1.0000000
vn 0.0000000 0.0000000 1.0000000
vn 0.0000000 0.0000000 1.0000000
vn 0.0000000 0.0000000 1.0000000
vn 0.0000000 0.0000000 1.0000000
vn 0.0000000 0.0000000 1.0000000
vn 0.0000000 0.0000000 1.0000000
vn 0.0000000 0.0000000 1.0000000
vn 0.0000000 0.0000000 1.0000000
vn 0.0000000 0.0000000 1.0000000
vn 0.0000000 0.0000000 1.0000000
vn 0.0000000 0.0000000 1.0000000
vn 0.0000000 -1.0000000 0.0000000
vn 0.0000000 -1.0000000 0.0000000
vn 0.0000000 -1.0000000 0.0000000
vn 0.0000000 -1.0000000 0.0000000
vn 0.0000000 -1.0000000 0.0000000
vn 0.0000000 -1.0000000 0.0000000
vn 0.0000000 -1.0000000 0.0000000
vn 0.0000000 -1.0000000 0.0000000
vn 0.0000000 -1.0000000 0.0000000
vn 0.0000000 -1.0000000 0.0000000
vn 0.0000000 -1.0000000 0.0000000
vn 0.0000000 -1.0000000 0.0000000
vn 0.0000000 0.0000000 -1.0000000
vn 0.0000000 0.0000000 -1.0000000
vn 0.0000000 0.0000000 -1.0000000
vn 0.0000000 0.0000000 -1.0000000
vn 0.0000000 0.0000000 -1.0000000
vn 0.0000000 0.0000000 -1.0000000
vn 0.0000000 0.0000000 -1.0000000
vn 0.0000000 0.0000000 -1.0000000
vn 0.0000000 0.0000000 -1.0000000
vn 0.0000000 0.0000000 -1.0000000
vn 0.0000000 0.0000000 -1.0000000
vn 0.0000000 0.0000000 -1.0000000
vn 0.0000000 1.0000000 0.0000000
vn 0.0000000 1.0000000 0.0000000
vn 0.0000000 1.0000000 0.0000000
vn 0.0000000 1.0000000 0.0000000
vn 0.0000000 1.0000000 0.0000000
vn 0.0000000 1.0000000 0.0000000
vn 0.0000000 1.0000000 0.0000000
vn 0.0000000 1.0000000 0.0000000
vn 0.0000000 1.0000000 0.0000000
vn 0.0000000 1.0000000 0.0000000
vn 0.0000000 1.0000000 0.0000000
vn 0.0000000 1.0000000 0.0000000
vn 0.0000000 -0.4539906 0.8910065
vn 0.0000000 -0.4539906 0.8910065
vn 0.0000000 -0.4539906 0.8910065
vn 0.0000000 -0.4539906 0.8910065
vn 0.0000000 -0.4539906 0.8910065
vn 0.0000000 -0.4539906 0.8910065
vn 0.0000000 -0.4539906 0.8910065
vn 0.0000000 -0.4539906 0.8910065
vn 0.0000000 -0.4539906 0.8910065
vn 0.0000000 -0.4539906 0.8910065
vn 0.0000000 -0.4539906 0.8910065
vn 0.0000000 -0.4539906 0.8910065
vn 0.0000000 -0.8910066 -0.4539904
vn 0.0000000 -0.8910066 -0.4539904
vn 0.0000000 -0.8910066 -0.4539904
vn 0.0000000 -0.8910066 -0.4539904
vn 0.0000000 -0.8910066 -0.4539904
vn 0.0000000 -0.8910066 -0.4539904
vn 0.0000000 -0.8910066 -0.4539904
vn 0.0000000 -0.8910066 -0.4539904
vn 0.0000000 -0.8910066 -0.4539904
vn 0.0000000 -0.8910066 -0.4539904
vn 0.0000000 -0.8910066 -0.4539904
vn 0.0000000 -0.8910066 -0.4539904
vn 0.0000000 0.8910066 0.4539904
vn 0.0000000 0.8910066 0.4539904
vn 0.0000000 0.8910066 0.4539904
vn 0.0000000 0.8910066 0.4539904
vn 0.0000000 0.8910066 0.4539904
vn 0.0000000 0.8910066 0.4539904
vn 0.0000000 0.8910066 0.4539904
vn 0.0000000 0.8910066 0.4539904
vn 0.0000000 0.8910066 0.4539904
vn 0.0000000 0.8910066 0.4539904
vn 0.0000000 0.8910066 0.4539904
vn 0.0000000 0.8910066 0.4539904
vn 0.0000000 0.4539906 -0.8910065
vn 0.0000000 0.4539906 -0.8910065
vn 0.0000000 0.4539906 -0.8910065
vn 0.0000000 0.4539906 -0.8910065
vn 0.0000000 0.4539906 -0.8910065
vn 0.0000000 0.4539906 -0.8910065
vn 0.0000000 0.4539906 -0.8910065
vn 0.0000000 0.4539906 -0.8910065
vn 0.0000000 0.4539906 -0.8910065
vn 0.0000000 0.4539906 -0.8910065
vn 0.0000000 0.4539906 -0.8910065
vn 0.0000000 0.4539906 -0.8910065
vn 0.0000000 0.3090170 0.9510565
vn 0.0000000 0.3090170 0.9510565
vn 0.0000000 0.3090170 0.9510565
vn 0.0000000 0.3090170 0.9510565
vn 0.0000000 0.3090170 0.9510565
vn 0.0000000 0.3090170 0.9510565
vn 0.0000000 0.3090170 0.9510565
vn 0.0000000 0.3090170 0.9510565
vn 0.0000000 0.3090170 0.9510565
vn 0.0000000 0.3090170 0.9510565
vn 0.0000000 0.3090170 0.9510565
vn 0.0000000 0.3090170 0.9510565
vn 0.0000000 -0.9510565 0.3090170
vn 0.0000000 -0.9510565 0.3090170
vn 0.0000000 -0.9510565 0.3090170
vn 0.0000000 -0.9510565 0.3090170
vn 0.0000000 -0.9510565 0.3090170
vn 0.0000000 -0.9510565 0.3090170
vn 0.0000000 -0.9510565 0.3090170
vn 0.0000000 -0.9510565 0.3090170
vn 0.0000000 -0.9510565 0.3090170
vn 0.0000000 -0.9510565 0.3090170
vn 0.0000000 -0.9510565 0.3090170
vn 0.0000000 -0.9510565 0.3090170
vn 0.0000000 -0.3090170 -0.9510565
vn 0.0000000 -0.3090170 -0.9510565
vn 0.0000000 -0.3090170 -0.9510565
vn 0.0000000 -0.3090170 -0.9510565
vn 0.0000000 -0.3090170 -0.9510565
vn 0.0000000 -0.3090170 -0.9510565
vn 0.0000000 -0.3090170 -0.9510565
vn 0.0000000 -0.3090170 -0.9510565
vn 0.0000000 -0.3090170 -0.9510565
vn 0.0000000 -0.3090170 -0.9510565
vn 0.0000000 -0.3090170 -0.9510565
vn 0.0000000 -0.3090170 -0.9510565
vn 0.0000000 0.9510565 -0.3090170
vn 0.0000000 0.9510565 -0.3090170
vn 0.0000000 0.9510565 -0.3090170
vn 0.0000000 0.9510565 -0.3090170
vn 0.0000000 0.9510565 -0.3090170
vn 0.0000000 0.9510565 -0.3090170
vn 0.0000000 0.9510565 -0.3090170
vn 0.0000000 0.9510565 -0.3090170
vn 0.0000000 0.9510565 -0.3090170
vn 0.0000000 0.9510565 -0.3090170
vn 0.0000000 0.9510565 -0.3090170
vn 0.0000000 0.9510565 -0.3090170
vn 0.0000000 -0.8910065 0.4539905
vn 0.0000000 -0.8910065 0.4539905
vn 0.0000000 -0.8910065 0.4539905
vn 0.0000000 -0.8910065 0.4539905
vn 0.0000000 -0.8910065 0.4539905
vn 0.0000000 -0.8910065 0.4539905
vn 0.0000000 -0.8910065 0.4539905
vn 0.0000000 -0.8910065 0.4539905
vn 0.0000000 -0.8910065 0.4539905
vn 0.0000000 -0.8910065 0.4539905
vn 0.0000000 -0.8910065 0.4539905
vn 0.0000000 -0.8910065 0.4539905
vn 0.0000000 -0.4539907 -0.8910064
vn 0.0000000 -0.4539907 -0.8910064
vn 0.0000000 -0.4539907 -0.8910064
vn 0.0000000 -0.4539907 -0.8910064
vn 0.0000000 -0.4539907 -0.8910064
vn 0.0000000 -0.4539907 -0.8910064
vn 0.0000000 -0.4539907 -0.8910064
vn 0.0000000 -0.4539907 -0.8910064
vn 0.0000000 -0.4539907 -0.8910064
vn 0.0000000 -0.4539907 -0.8910064
vn 0.0000000 -0.4539907 -0.8910064
vn 0.0000000 -0.4539907 -0.8910064
vn 0.0000000 0.4539907 0.8910064
vn 0.0000000 0.4539907 0.8910064
vn 0.0000000 0.4539907 0.8910064
vn 0.0000000 0.4539907 0.8910064
vn 0.0000000 0.4539907 0.8910064
vn 0.0000000 0.4539907 0.8910064
vn 0.0000000 0.4539907 0.8910064
vn 0.0000000 0.4539907 0.8910064
vn 0.0000000 0.4539907 0.8910064
vn 0.0000000 0.4539907 0.8910064
vn 0.0000000 0.4539907 0.8910064
vn 0.0000000 0.4539907 0.8910064
vn 0.0000000 0.8910065 -0.4539905
vn 0.0000000 0.8910065 -0.4539905
vn 0.0000000 0.8910065 -0.4539905
vn 0.0000000 0.8910065 -0.4539905
vn 0.0000000 0.8910065 -0.4539905
vn 0.0000000 0.8910065 -0.4539905
vn 0.0000000 0.8910065 -0.4539905
vn 0.0000000 0.8910065 -0.4539905
vn 0.0000000 0.8910065 -0.4539905
vn 0.0000000 0.8910065 -0.4539905
vn 0.0000000 0.8910065 -0.4539905
vn 0.0000000 0.8910065 -0.4539905
vn 0.0000000 -0.3090169 0.9510565
vn 0.0000000 -0.3090169 0.9510565
vn 0.0000000 -0.3090169 0.9510565
vn 0.0000000 -0.3090169 0.9510565
vn 0.0000000 -0.3090169 0.9510565
vn 0.0000000 -0.3090169 0.9510565
vn 0.0000000 -0.3090169 0.9510565
vn 0.0000000 -0.3090169 0.9510565
vn 0.0000000 -0.3090169 0.9510565
vn 0.0000000 -0.3090169 0.9510565
vn 0.0000000 -0.3090169 0.9510565
vn 0.0000000 -0.3090169 0.9510565
vn 0.0000000 -0.9510565 -0.3090169
vn 0.0000000 -0.9510565 -0.3090169
vn 0.0000000 -0.9510565 -0.3090169
vn 0.0000000 -0.9510565 -0.3090169
vn 0.0000000 -0.9510565 -0.3090169
vn 0.0000000 -0.9510565 -0.3090169
vn 0.0000000 -0.9510565 -0.3090169
vn 0.0000000 -0.9510565 -0.3090169
vn 0.0000000 -0.9510565 -0.3090169
vn 0.0000000 -0.9510565 -0.3090169
vn 0.0000000 -0.9510565 -0.3090169
vn 0.0000000 -0.9510565 -0.3090169
vn 0.0000000 0.3090169 -0.9510565
vn 0.0000000 0.3090169 -0.9510565
vn 0.0000000 0.3090169 -0.9510565
vn 0.0000000 0.3090169 -0.9510565
vn 0.0000000 0.3090169 -0.9510565
vn 0.0000000 0.3090169 -0.9510565
vn 0.0000000 0.3090169 -0.9510565
vn 0.0000000 0.3090169 -0.9510565
vn 0.0000000 0.3090169 -0.9510565
vn 0.0000000 0.3090169 -0.9510565
vn 0.0000000 0.3090169 -0.9510565
vn 0.0000000 0.3090169 -0.9510565
vn 0.0000000 0.9510565 0.3090169
vn 0.0000000 0.9510565 0.3090169
vn 0.0000000 0.9510565 0.3090169
vn 0.0000000 0.9510565 0.3090169
vn 0.0000000 0.9510565 0.3090169
vn 0.0000000 0.9510565 0.3090169
vn 0.0000000 0.9510565 0.3090169
vn 0.0000000 0.9510565 0.3090169
vn 0.0000000 0.9510565 0.3090169
vn 0.0000000 0.9510565 0.3090169
vn 0.0000000 0.9510565 0.3090169
vn 0.0000000 0.9510565 0.3090169
vn -0.8499366 0.5268850 0.0000000
vn -0.7071062 0.7071074 0.0000000
vn -0.7071062 0.7071074 0.0000000
vn -0.8499366 0.5268850 0.0000000
vn -0.7071062 0.7071074 0.0000000
vn -0.8499366 0.5268850 0.0000000
vn -0.8499366 0.5268850 0.0000000
vn -0.7071062 0.7071074 0.0000000
vn -0.8499366 0.5268850 0.0000000
vn -0.7071062 0.7071074 0.0000000
vn -0.3826839 0.9238793 0.0000000
vn -0.3826839 0.9238793 0.0000000
vn -0.7071062 0.7071074 0.0000000
vn -0.3826839 0.9238793 0.0000000
vn -0.7071062 0.7071074 0.0000000
vn -0.3826839 0.9238793 0.0000000
vn 0.0000000 1.0000000 0.0000000
vn 0.0000000 1.0000000 0.0000000
vn -0.3826839 0.9238793 0.0000000
vn 0.0000000 1.0000000 0.0000000
vn -0.3826839 0.9238793 0.0000000
vn 0.0000000 1.0000000 0.0000000
vn 0.3826831 0.9238797 0.0000000
vn 0.3826831 0.9238797 0.0000000
vn 0.0000000 1.0000000 0.0000000
vn 0.3826831 0.9238797 0.0000000
vn 0.0000000 1.0000000 0.0000000
vn 0.3826831 0.9238797 0.0000000
vn 0.7071065 0.7071071 0.0000000
vn 0.7071065 0.7071071 0.0000000
vn 0.3826831 0.9238797 0.0000000
vn 0.7071065 0.7071071 0.0000000
vn 0.3826831 0.9238797 0.0000000
vn 0.7071065 0.7071071 0.0000000
vn 0.9238794 0.3826837 0.0000000
vn 0.9238794 0.3826837 0.0000000
vn 0.7071065 0.7071071 0.0000000
vn 0.9238794 0.3826837 0.0000000
vn 0.7071065 0.7071071 0.0000000
vn 0.9238794 0.3826837 0.0000000
vn 1.0000000 0.0000004 0.0000000
vn 1.0000000 0.0000004 0.0000000
vn 0.9238794 0.3826837 0.0000000
vn 1.0000000 0.0000004 0.0000000
vn 0.9238794 0.3826837 0.0000000
vn 0.9238796 -0.3826832 0.0000000
vn 0.9238796 -0.3826832 0.0000000
vn 1.0000000 0.0000004 0.0000000
vn 0.9238796 -0.3826832 0.0000000
vn 1.0000000 0.0000004 0.0000000
vn 1.0000000 0.0000004 0.0000000
vn 0.7071077 -0.7071058 0.0000000
vn 0.7071077 -0.7071058 0.0000000
vn 0.9238796 -0.3826832 0.0000000
vn 0.7071077 -0.7071058 0.0000000
vn 0.9238796 -0.3826832 0.0000000
vn 0.9238796 -0.3826832 0.0000000
vn 0.3826829 -0.9238798 0.0000000
vn 0.3826829 -0.9238798 0.0000000
vn 0.7071077 -0.7071058 0.0000000
vn 0.3826829 -0.9238798 0.0000000
vn 0.7071077 -0.7071058 0.0000000
vn 0.7071077 -0.7071058 0.0000000
vn 0.0000000 -1.0000000 0.0000000
vn 0.0000000 -1.0000000 0.0000000
vn 0.3826829 -0.9238798 0.0000000
vn 0.0000000 -1.0000000 0.0000000
vn 0.3826829 -0.9238798 0.0000000
vn 0.3826829 -0.9238798 0.0000000
vn -0.3826836 -0.9238795 0.0000000
vn -0.3826836 -0.9238795 0.0000000
vn 0.0000000 -1.0000000 0.0000000
vn -0.3826836 -0.9238795 0.0000000
vn 0.0000000 -1.0000000 0.0000000
vn 0.0000000 -1.0000000 0.0000000
vn -0.7071075 -0.7071061 0.0000000
vn -0.7071075 -0.7071061 0.0000000
vn -0.3826836 -0.9238795 0.0000000
vn -0.7071075 -0.7071061 0.0000000
vn -0.3826836 -0.9238795 0.0000000
vn -0.3826836 -0.9238795 0.0000000
vn -0.8499371 -0.5268841 0.0000000
vn -0.7071075 -0.7071061 0.0000000
vn -0.8499371 -0.5268841 0.0000000
vn -0.8499371 -0.5268841 0.0000000
vn -0.7071075 -0.7071061 0.0000000
vn -0.7071075 -0.7071061 0.0000000
vn -0.8499371 -0.5268841 0.0000000
vn -0.7071075 -0.7071061 0.0000000
vn -0.8499371 -0.5268841 0.0000000
vn 0.0000000 0.0000000 -1.0000000
vn 0.0000000 -0.0000000 -1.0000000
vn 0.0000000 0.0000000 -1.0000000
vn 0.0000000 0.0000000 -1.0000000
vn 0.0000000 -0.0000000 -1.0000000
vn 0.0000000 -0.0000000 -1.0000000
vn 0.0000000 0.0000000 -1.0000000
vn 0.0000000 -0.0000000 -1.0000000
vn 0.0000000 0.0000000 -1.0000000
vn 0.0000000 0.0000000 -1.0000000
vn 0.0000000 -0.0000000 -1.0000000
vn 0.0000000 -0.0000000 -1.0000000
vn 0.0000000 0.0000000 -1.0000000
vn 0.0000000 -0.0000000 -1.0000000
vn 0.0000000 0.0000000 -1.0000000
vn 0.0000000 0.0000000 -1.0000000
vn 0.0000000 -0.0000000 -1.0000000
vn 0.0000000 -0.0000000 -1.0000000
vn 0.0000000 0.0000000 -1.0000000
vn 0.0000000 -0.0000000 -1.0000000
vn 0.0000000 0.0000000 -1.0000000
vn 0.0000000 -0.0000000 -1.0000000
vn 0.0000000 -0.0000000 -1.0000000
vn 0.0000000 -0.0000000 -1.0000000
vn 0.0000000 -0.0000000 -1.0000000
vn 0.0000000 -0.0000000 -1.0000000
vn 0.0000000 -0.0000000 -1.0000000
vn 0.0000000 -0.0000000 -1.0000000
vn 0.0000000 0.0000000 -1.0000000
vn 0.0000000 0.0000000 -1.0000000
vn 0.0000000 -0.0000000 -1.0000000
vn 0.0000000 0.0000000 -1.0000000
vn 0.0000000 -0.0000000 -1.0000000
vn 0.0000000 0.0000000 -1.0000000
vn 0.0000000 0.0000000 -1.0000000
vn 0.0000000 -0.0000000 -1.0000000
vn 0.0000000 0.0000000 -1.0000000
vn 0.0000000 -0.0000000 -1.0000000
vn 0.0000000 -0.0000000 -1.0000000
vn 0.0000000 -0.0000000 -1.0000000
vn 0.0000000 -0.0000000 -1.0000000
vn 0.0000000 -0.0000000 -1.0000000
vn 0.0000000 -0.0000000 -1.0000000
vn 0.0000000 -0.0000000 -1.0000000
vn 0.0000000 -0.0000000 -1.0000000
vn 0.0000000 -0.0000000 -1.0000000
vn 0.0000000 -0.0000000 -1.0000000
vn 0.0000000 0.0000000 -1.0000000
vn 0.0000000 -0.0000000 -1.0000000
vn 0.0000000 0.0000000 -1.0000000
vn 0.0000000 0.0000000 -1.0000000
vn 0.0000000 0.0000000 -1.0000000
vn 0.0000000 0.0000000 -1.0000000
vn 0.0000000 0.0000000 -1.0000000
vn 0.0000000 0.0000000 -1.0000000
vn 0.0000000 0.0000000 -1.0000000
vn 0.0000000 0.0000000 -1.0000000
vn 0.0000000 -0.0000000 -1.0000000
vn 0.0000000 0.0000000 -1.0000000
vn 0.0000000 0.0000000 -1.0000000
vn 0.0000000 -0.0000000 -1.0000000
vn 0.0000000 0.0000000 -1.0000000
vn 0.0000000 -0.0000000 -1.0000000
vn 0.0000000 -0.0000000 -1.0000000
vn 0.0000000 -0.0000000 -1.0000000
vn 0.0000000 -0.0000000 -1.0000000
vn 0.0000000 -0.0000000 -1.0000000
vn 0.0000000 -0.0000000 -1.0000000
vn 0.0000000 -0.0000000 -1.0000000
vn 0.0000000 0.0000000 -1.0000000
vn 0.0000000 -0.0000000 -1.0000000
vn 0.0000000 -0.0000000 -1.0000000
vn 0.0000000 0.0000000 -1.0000000
vn 0.0000000 -0.0000000 -1.0000000
vn 0.0000000 0.0000000 -1.0000000
vn 0.0000000 0.0000000 -1.0000000
vn 0.0000000 0.0000000 -1.0000000
vn 0.0000000 0.0000000 -1.0000000
vn 0.0000000 0.0000000 -1.0000000
vn 0.0000000 0.0000000 -1.0000000
vn 0.0000000 0.0000000 -1.0000000
vn 0.0000000 0.0000000 -1.0000000
vn 0.0000000 0.0000000 -1.0000000
vn 0.0000000 0.0000000 -1.0000000
vn 0.0000000 0.0000000 -1.0000000
vn 0.0000000 0.0000000 -1.0000000
vn 0.0000000 0.0000000 -1.0000000
vn 0.0000000 -0.0000000 -1.0000000
vn 0.0000000 -0.0000000 -1.0000000
vn 0.0000000 0.0000000 -1.0000000
vn 0.0000000 -0.0000000 -1.0000000
vn 0.0000000 0.0000000 -1.0000000
vn 0.0000000 0.0000000 -1.0000000
vn 0.0000000 0.0000000 -1.0000000
vn 0.0000000 -0.0000000 -1.0000000
vn 0.0000000 -0.0000000 -1.0000000
vn 0.0000000 0.0000000 -1.0000000
vn 0.0000000 -0.0000000 -1.0000000
vn 0.0000000 0.0000000 -1.0000000
vn 0.0000000 0.0000000 -1.0000000
vn 0.0000000 -0.0000000 -1.0000000
vn 0.0000000 -0.0000000 -1.0000000
vn 0.0000000 0.0000000 -1.0000000
vn 0.0000000 -0.0000000 -1.0000000
vn 0.0000000 0.0000000 -1.0000000
vn 0.0000000 0.0000000 -1.0000000
vn 0.0000000 -0.0000000 -1.0000000
vn 0.0000000 -0.0000000 -1.0000000
vn 0.0000000 0.0000000 -1.0000000
vn 0.0000000 -0.0000000 -1.0000000
vn 0.0000000 0.0000000 -1.0000000
vn 0.0000000 0.0000000 -1.0000000
vn 0.0000000 -0.0000000 -1.0000000
vn 0.0000000 0.0000000 -1.0000000
vn 1.0000000 -0.0000008 0.0000000
vn 1.0000000 -0.0000008 0.0000000
vn 0.9238796 -0.3826832 0.0000000
vn 1.0000000 -0.0000008 0.0000000
vn 0.9238796 -0.3826832 0.0000000
vn 0.9238796 -0.3826832 0.0000000
vn 0.9238796 -0.3826832 0.0000000
vn 0.9238796 -0.3826832 0.0000000
vn 0.7071052 -0.7071084 0.0000000
vn 0.9238796 -0.3826832 0.0000000
vn 0.7071052 -0.7071084 0.0000000
vn 0.7071052 -0.7071084 0.0000000
vn 0.7071052 -0.7071084 0.0000000
vn 0.7071052 -0.7071084 0.0000000
vn 0.3826777 -0.9238819 0.0000000
vn 0.7071052 -0.7071084 0.0000000
vn 0.3826777 -0.9238819 0.0000000
vn 0.3826777 -0.9238819 0.0000000
vn 0.3826777 -0.9238819 0.0000000
vn 0.3826777 -0.9238819 0.0000000
vn 0.0000000 -1.0000000 0.0000000
vn 0.3826777 -0.9238819 0.0000000
vn 0.0000000 -1.0000000 0.0000000
vn 0.0000000 -1.0000000 0.0000000
vn 0.0000000 -1.0000000 0.0000000
vn 0.0000000 -1.0000000 0.0000000
vn -0.3826777 -0.9238819 0.0000000
vn 0.0000000 -1.0000000 0.0000000
vn -0.3826777 -0.9238819 0.0000000
vn -0.3826777 -0.9238819 0.0000000
vn -0.3826777 -0.9238819 0.0000000
vn -0.3826777 -0.9238819 0.0000000
vn -0.7071052 -0.7071084 0.0000000
vn -0.3826777 -0.9238819 0.0000000
vn -0.7071052 -0.7071084 0.0000000
vn -0.7071052 -0.7071084 0.0000000
vn -0.7071052 -0.7071084 0.0000000
vn -0.7071052 -0.7071084 0.0000000
vn -0.9238796 -0.3826832 0.0000000
vn -0.7071052 -0.7071084 0.0000000
vn -0.9238796 -0.3826832 0.0000000
vn -0.9238796 -0.3826832 0.0000000
vn -0.9238796 -0.3826832 0.0000000
vn -0.9238796 -0.3826832 0.0000000
vn -1.0000000 -0.0000008 0.0000000
vn -0.9238796 -0.3826832 0.0000000
vn -1.0000000 -0.0000008 0.0000000
vn -1.0000000 -0.0000008 0.0000000
vn -0.9238791 0.3826845 0.0000000
vn -1.0000000 -0.0000008 0.0000000
vn -1.0000000 -0.0000008 0.0000000
vn -0.9238791 0.3826845 0.0000000
vn -1.0000000 -0.0000008 0.0000000
vn -0.9238791 0.3826845 0.0000000
vn -0.7071083 0.7071053 0.0000000
vn -0.9238791 0.3826845 0.0000000
vn -0.9238791 0.3826845 0.0000000
vn -0.7071083 0.7071053 0.0000000
vn -0.9238791 0.3826845 0.0000000
vn -0.7071083 0.7071053 0.0000000
vn -0.3826874 0.9238779 0.0000000
vn -0.7071083 0.7071053 0.0000000
vn -0.7071083 0.7071053 0.0000000
vn -0.3826874 0.9238779 0.0000000
vn -0.7071083 0.7071053 0.0000000
vn -0.3826874 0.9238779 0.0000000
vn 0.0000000 1.0000000 0.0000000
vn -0.3826874 0.9238779 0.0000000
vn -0.3826874 0.9238779 0.0000000
vn 0.0000000 1.0000000 0.0000000
vn -0.3826874 0.9238779 0.0000000
vn 0.0000000 1.0000000 0.0000000
vn 0.3826874 0.9238779 0.0000000
vn 0.0000000 1.0000000 0.0000000
vn 0.0000000 1.0000000 0.0000000
vn 0.3826874 0.9238779 0.0000000
vn 0.0000000 1.0000000 0.0000000
vn 0.3826874 0.9238779 0.0000000
vn 0.7071083 0.7071053 0.0000000
vn 0.3826874 0.9238779 0.0000000
vn 0.3826874 0.9238779 0.0000000
vn 0.7071083 0.7071053 0.0000000
vn 0.3826874 0.9238779 0.0000000
vn 0.7071083 0.7071053 0.0000000
vn 0.9238791 0.3826845 0.0000000
vn 0.7071083 0.7071053 0.0000000
vn 0.7071083 0.7071053 0.0000000
vn 0.9238791 0.3826845 0.0000000
vn 0.7071083 0.7071053 0.0000000
vn 0.9238791 0.3826845 0.0000000
vn 1.0000000 -0.0000008 0.0000000
vn 0.9238791 0.3826845 0.0000000
vn 0.9238791 0.3826845 0.0000000
vn 1.0000000 -0.0000008 0.0000000
vn 0.9238791 0.3826845 0.0000000
vn 1.0000000 -0.0000008 0.0000000
vn 0.0000000 0.0000000 1.0000000
vn 0.0000000 -0.0000000 1.0000000
vn 0.0000000 -0.0000000 1.0000000
vn 0.0000000 0.0000000 1.0000000
vn 0.0000000 -0.0000000 1.0000000
vn 0.0000000 0.0000000 1.0000000
vn 0.0000000 0.0000000 1.0000000
vn 0.0000000 -0.0000000 1.0000000
vn 0.0000000 0.0000000 1.0000000
vn 0.0000000 0.0000000 1.0000000
vn 0.0000000 -0.0000000 1.0000000
vn 0.0000000 -0.0000001 1.0000000
vn 0.0000000 0.0000000 1.0000000
vn 0.0000000 -0.0000001 1.0000000
vn 0.0000000 -0.0000000 1.0000000
vn 0.0000000 -0.0000000 1.0000000
vn 0.0000000 -0.0000001 1.0000000
vn 0.0000000 -0.0000001 1.0000000
vn 0.0000000 -0.0000000 1.0000000
vn 0.0000000 -0.0000001 1.0000000
vn 0.0000000 -0.0000000 1.0000000
vn 0.0000000 -0.0000001 1.0000000
vn 0.0000000 -0.0000001 1.0000000
vn 0.0000000 -0.0000000 1.0000000
vn 0.0000000 -0.0000001 1.0000000
vn 0.0000000 -0.0000000 1.0000000
vn 0.0000000 -0.0000000 1.0000000
vn 0.0000000 -0.0000000 1.0000000
vn 0.0000000 -0.0000000 1.0000000
vn 0.0000000 0.0000000 1.0000000
vn 0.0000000 -0.0000000 1.0000000
vn 0.0000000 0.0000000 1.0000000
vn 0.0000000 0.0000000 1.0000000
vn 0.0000000 0.0000000 1.0000000
vn 0.0000000 0.0000000 1.0000000
vn 0.0000000 0.0000000 1.0000000
vn 0.0000000 0.0000000 1.0000000
vn 0.0000000 0.0000000 1.0000000
vn 0.0000000 0.0000000 1.0000000
vn 0.0000000 0.0000000 1.0000000
vn 0.0000000 0.0000000 1.0000000
vn 0.0000000 0.0000000 1.0000000
vn 0.0000000 0.0000000 1.0000000
vn 0.0000000 0.0000000 1.0000000
vn 0.0000000 0.0000000 1.0000000
vn 0.0000000 0.0000000 1.0000000
vn 0.0000000 0.0000000 1.0000000
vn 0.0000000 0.0000000 1.0000000
vn 0.0000000 0.0000000 1.0000000
vn 0.0000000 0.0000000 1.0000000
vn 0.0000000 0.0000000 1.0000000
vn 0.0000000 0.0000000 1.0000000
vn 0.0000000 0.0000000 1.0000000
vn 0.0000000 0.0000000 1.0000000
vn 0.0000000 0.0000000 1.0000000
vn 0.0000000 0.0000000 1.0000000
vn 0.0000000 0.0000000 1.0000000
vn 0.0000000 0.0000000 1.0000000
vn 0.0000000 0.0000000 1.0000000
vn 0.0000000 0.0000000 1.0000000
vn 0.0000000 0.0000000 1.0000000
vn 0.0000000 0.0000000 1.0000000
vn 0.0000000 0.0000000 1.0000000
vn 0.0000000 0.0000000 1.0000000
vn 0.0000000 0.0000000 1.0000000
vn 0.0000000 0.0000000 1.0000000
vn 0.0000000 0.0000000 1.0000000
vn 0.0000000 0.0000000 1.0000000
vn 0.0000000 0.0000000 1.0000000
vn 0.0000000 0.0000000 1.0000000
vn 0.0000000 0.0000000 1.0000000
vn 0.0000000 0.0000000 1.0000000
vn 0.0000000 0.0000000 1.0000000
vn 0.0000000 0.0000000 1.0000000
vn 0.0000000 0.0000000 1.0000000
vn 0.0000000 0.0000000 1.0000000
vn 0.0000000 0.0000000 1.0000000
vn 0.0000000 0.0000000 1.0000000
vn 0.0000000 0.0000000 1.0000000
vn 0.0000000 0.0000000 1.0000000
vn 0.0000000 0.0000000 1.0000000
vn 0.0000000 0.0000000 1.0000000
vn 0.0000000 0.0000000 1.0000000
vn 0.0000000 0.0000000 1.0000000
vn 0.0000000 0.0000000 1.0000000
vn 0.0000000 0.0000000 1.0000000
vn 0.0000000 0.0000000 1.0000000
vn 0.0000000 0.0000000 1.0000000
vn 0.0000000 0.0000000 1.0000000
vn 0.0000000 0.0000000 1.0000000
vn 0.0000000 0.0000000 1.0000000
vn 0.0000000 0.0000000 1.0000000
vn 0.0000000 0.0000000 1.0000000
vn 0.0000000 0.0000000 1.0000000
vn 0.0000000 0.0000000 1.0000000
vn 0.0000000 0.0000000 1.0000000
vn 0.0000000 0.0000000 1.0000000
vn 0.0000000 0.0000000 1.0000000
vn 0.0000000 0.0000000 1.0000000
vn 0.0000000 0.0000000 1.0000000
vn 0.0000000 0.0000000 1.0000000
vn 0.0000000 -0.0000000 1.0000000
vn 0.0000000 0.0000000 1.0000000
vn 0.0000000 -0.0000000 1.0000000
vn 0.0000000 0.0000000 1.0000000
vn 0.0000000 0.0000000 1.0000000
vn 0.0000000 -0.0000000 1.0000000
vn 0.0000000 0.0000000 1.0000000
vn 0.0000000 0.0000000 1.0000000
vn 0.0000000 -0.0000000 1.0000000
vn 0.0000000 -0.0000000 1.0000000
vn 0.0000000 0.0000000 1.0000000
vn 0.0000000 -0.0000000 1.0000000
vn 0.0000000 0.0000000 1.0000000
f 1/1/1 2/2/2 3/3/3
f 4/4/4 5/5/5 6/6/6
f 7/7/7 8/8/8 9/9/9
f 10/10/10 11/11/11 12/12/12
f 13/13/13 14/14/14 15/15/15
f 16/16/16 17/17/17 18/18/18
f 19/19/19 20/20/20 21/21/21
f 22/22/22 23/23/23 24/24/24
f 25/25/25 26/26/26 27/27/27
f 28/28/28 29/29/29 30/30/30
f 31/31/31 32/32/32 33/33/33
f 34/34/34 35/35/35 36/36/36
f 37/37/37 38/38/38 39/39/39
f 40/40/40 41/41/41 42/42/42
f 43/43/43 44/44/44 45/45/45
f 46/46/46 47/47/47 48/48/48
f 49/49/49 50/50/50 51/51/51
f 52/52/52 53/53/53 54/54/54
f 55/55/55 56/56/56 57/57/57
f 58/58/58 59/59/59 60/60/60
f 61/61/61 62/62/62 63/63/63
f 64/64/64 65/65/65 66/66/66
f 67/67/67 68/68/68 69/69/69
f 70/70/70 71/71/71 72/72/72
f 73/73/73 74/74/74 75/75/75
f 76/76/76 77/77/77 78/78/78
f 79/79/79 80/80/80 81/81/81
f 82/82/82 83/83/83 84/84/84
f 85/85/85 86/86/86 87/87/87
f 88/88/88 89/89/89 90/90/90
f 91/91/91 92/92/92 93/93/93
f 94/94/94 95/95/95 96/96/96
f 97/97/97 98/98/98 99/99/99
f 100/100/100 101/101/101 102/102/102
f 103/103/103 104/104/104 105/105/105
f 106/106/106 107/107/107 108/108/108
f 109/109/109 110/110/110 111/111/111
f 112/112/112 113/113/113 114/114/114
f 115/115/115 116/116/116 117/117/117
f 118/118/118 119/119/119 120/120/120
f 121/121/121 122/122/122 123/123/123
f 124/124/124 125/125/125 126/126/126
f 127/127/127 128/128/128 129/129/129
f 130/130/130 131/131/131 132/132/132
f 133/133/133 134/134/134 135/135/135
f 136/136/136 137/137/137 138/138/138
f 139/139/139 140/140/140 141/141/141
f 142/142/142 143/143/143 144/144/144
f 145/145/145 146/146/146 147/147/147
f 148/148/148 149/149/149 150/150/150
f 151/151/151 152/152/152 153/153/153
f 154/154/154 155/155/155 156/156/156
f 157/157/157 158/158/158 159/159/159
f 160/160/160 161/161/161 162/162/162
f 163/163/163 164/164/164 165/165/165
f 166/166/166 167/167/167 168/168/168
f 169/169/169 170/170/170 171/171/171
f 172/172/172 173/173/173 174/174/174
f 175/175/175 176/176/176 177/177/177
f 178/178/178 179/179/179 180/180/180
f 181/181/181 182/182/182 183/183/183
f 184/184/184 185/185/185 186/186/186
f 187/187/187 188/188/188 189/189/189
f 190/190/190 191/191/191 192/192/192
f 193/193/193 194/194/194 195/195/195
f 196/196/196 197/197/197 198/198/198
f 199/199/199 200/200/200 201/201/201
f 202/202/202 203/203/203 204/204/204
f 205/205/205 206/206/206 207/207/207
f 208/208/208 209/209/209 210/210/210
f 211/211/211 212/212/212 213/213/213
f 214/214/214 215/215/215 216/216/216
f 217/217/217 218/218/218 219/219/219
f 220/220/220 221/221/221 222/222/222
f 223/223/223 224/224/224 225/225/225
f 226/226/226 227/227/227 228/228/228
f 229/229/229 230/230/230 231/231/231
f 232/232/232 233/233/233 234/234/234
f 235/235/235 236/236/236 237/237/237
f 238/238/238 239/239/239 240/240/240
f 241/241/241 242/242/242 243/243/243
f 244/244/244 245/245/245 246/246/246
f 247/247/247 248/248/248 249/249/249
f 250/250/250 251/251/251 252/252/252
f 253/253/253 254/254/254 255/255/255
f 256/256/256 257/257/257 258/258/258
f 259/259/259 260/260/260 261/261/261
f 262/262/262 263/263/263 264/264/264
f 265/265/265 266/266/266 267/267/267
f 268/268/268 269/269/269 270/270/270
f 271/271/271 272/272/272 273/273/273
f 274/274/274 275/275/275 276/276/276
f 277/277/277 278/278/278 279/279/279
f 280/280/280 281/281/281 282/282/282
f 283/283/283 284/284/284 285/285/285
f 286/286/286 287/287/287 288/288/288
f 289/289/289 290/290/290 291/291/291
f 292/292/292 293/293/293 294/294/294
f 295/295/295 296/296/296 297/297/297
f 298/298/298 299/299/299 300/300/300
f 301/301/301 302/302/302 303/303/303
f 304/304/304 305/305/305 306/306/306
f 307/307/307 308/308/308 309/309/309
f 310/310/310 311/311/311 312/312/312
f 313/313/313 314/314/314 315/315/315
f 316/316/316 317/317/317 318/318/318
f 319/319/319 320/320/320 321/321/321
f 322/322/322 323/323/323 324/324/324
f 325/325/325 326/326/326 327/327/327
f 328/328/328 329/329/329 330/330/330
f 331/331/331 332/332/332 333/333/333
f 334/334/334 335/335/335 336/336/336
f 337/337/337 338/338/338 339/339/339
f 340/340/340 341/341/341 342/342/342
f 343/343/343 344/344/344 345/345/345
f 346/346/346 347/347/347 348/348/348
f 349/349/349 350/350/350 351/351/351
f 352/352/352 353/353/353 354/354/354
f 355/355/355 356/356/356 357/357/357
f 358/358/358 359/359/359 360/360/360
f 361/361/361 362/362/362 363/363/363
f 364/364/364 365/365/365 366/366/366
f 367/367/367 368/368/368 369/369/369
f 370/370/370 371/371/371 372/372/372
f 373/373/373 374/374/374 375/375/375
f 376/376/376 377/377/377 378/378/378
f 379/379/379 380/380/380 381/381/381
f 382/382/382 383/383/383 384/384/384
f 385/385/385 386/386/386 387/387/387
f 388/388/388 389/389/389 390/390/390
f 391/391/391 392/392/392 393/393/393
f 394/394/394 395/395/395 396/396/396
f 397/397/397 398/398/398 399/399/399
f 400/400/400 401/401/401 402/402/402
f 403/403/403 404/404/404 405/405/405
f 406/406/406 407/407/407 408/408/408
f 409/409/409 410/410/410 411/411/411
f 412/412/412 413/413/413 414/414/414
f 415/415/415 416/416/416 417/417/417
f 418/418/418 419/419/419 420/420/420
f 421/421/421 422/422/422 423/423/423
f 424/424/424 425/425/425 426/426/426
f 427/427/427 428/428/428 429/429/429
f 430/430/430 431/431/431 432/432/432
f 433/433/433 434/434/434 435/435/435
f 436/436/436 437/437/437 438/438/438
f 439/439/439 440/440/440 441/441/441
f 442/442/442 443/443/443 444/444/444
f 445/445/445 446/446/446 447/447/447
f 448/448/448 449/449/449 450/450/450
f 451/451/451 452/452/452 453/453/453
f 454/454/454 455/455/455 456/456/456
f 457/457/457 458/458/458 459/459/459
f 460/460/460 461/461/461 462/462/462
f 463/463/463 464/464/464 465/465/465
f 466/466/466 467/467/467 468/468/468
f 469/469/469 470/470/470 471/471/471
f 472/472/472 473/473/473 474/474/474
f 475/475/475 476/476/476 477/477/477
f 478/478/478 479/479/479 480/480/480
f 481/481/481 482/482/482 483/483/483
f 484/484/484 485/485/485 486/486/486
f 487/487/487 488/488/488 489/489/489
f 490/490/490 491/491/491 492/492/492
f 493/493/493 494/494/494 495/495/495
f 496/496/496 497/497/497 498/498/498
f 499/499/499 500/500/500 501/501/501
f 502/502/502 503/503/503 504/504/504
f 505/505/505 506/506/506 507/507/507
f 508/508/508 509/509/509 510/510/510
f 511/511/511 512/512/512 513/513/513
f 514/514/514 515/515/515 516/516/516
f 517/517/517 518/518/518 519/519/519
f 520/520/520 521/521/521 522/522/522
f 523/523/523 524/524/524 525/525/525
f 526/526/526 527/527/527 528/528/528
f 529/529/529 530/530/530 531/531/531
f 532/532/532 533/533/533 534/534/534
f 535/535/535 536/536/536 537/537/537
f 538/538/538 539/539/539 540/540/540
f 541/541/541 542/542/542 543/543/543
f 544/544/544 545/545/545 546/546/546
f 547/547/547 548/548/548 549/549/549
f 550/550/550 551/551/551 552/552/552
f 553/553/553 554/554/554 555/555/555
f 556/556/556 557/557/557 558/558/558
f 559/559/559 560/560/560 561/561/561
f 562/562/562 563/563/563 564/564/564
f 565/565/565 566/566/566 567/567/567
f 568/568/568 569/569/569 570/570/570
f 571/571/571 572/572/572 573/573/573
f 574/574/574 575/575/575 576/576/576
f 577/577/577 578/578/578 579/579/579
f 580/580/580 581/581/581 582/582/582
f 583/583/583 584/584/584 585/585/585
f 586/586/586 587/587/587 588/588/588
f 589/589/589 590/590/590 591/591/591
f 592/592/592 593/593/593 594/594/594
f 595/595/595 596/596/596 597/597/597
f 598/598/598 599/599/599 600/600/600
f 601/601/601 602/602/602 603/603/603
f 604/604/604 605/605/605 606/606/606
f 607/607/607 608/608/608 609/609/609
f 610/610/610 611/611/611 612/612/612
f 613/613/613 614/614/614 615/615/615
f 616/616/616 617/617/617 618/618/618
f 619/619/619 620/620/620 621/621/621
f 622/622/622 623/623/623 624/624/624
f 625/625/625 626/626/626 627/627/627
f 628/628/628 629/629/629 630/630/630
f 631/631/631 632/632/632 633/633/633
f 634/634/634 635/635/635 636/636/636
f 637/637/637 638/638/638 639/639/639
f 640/640/640 641/641/641 642/642/642
f 643/643/643 644/644/644 645/645/645
f 646/646/646 647/647/647 648/648/648
f 649/649/649 650/650/650 651/651/651
f 652/652/652 653/653/653 654/654/654
f 655/655/655 656/656/656 657/657/657
f 658/658/658 659/659/659 660/660/660
f 661/661/661 662/662/662 663/663/663
f 664/664/664 665/665/665 666/666/666
f 667/667/667 668/668/668 669/669/669
f 670/670/670 671/671/671 672/672/672
f 673/673/673 674/674/674 675/675/675
f 676/676/676 677/677/677 678/678/678
f 679/679/679 680/680/680 681/681/681
f 682/682/682 683/683/683 684/684/684
f 685/685/685 686/686/686 687/687/687
f 688/688/688 689/689/689 690/690/690
f 691/691/691 692/692/692 693/693/693
f 694/694/694 695/695/695 696/696/696
f 697/697/697 698/698/698 699/699/699
f 700/700/700 701/701/701 702/702/702
f 703/703/703 704/704/704 705/705/705
f 706/706/706 707/707/707 708/708/708
f 709/709/709 710/710/710 711/711/711
f 712/712/712 713/713/713 714/714/714
f 715/715/715 716/716/716 717/717/717
f 718/718/718 719/719/719 720/720/720
f 721/721/721 722/722/722 723/723/723
f 724/724/724 725/725/725 726/726/726
f 727/727/727 728/728/728 729/729/729
f 730/730/730 731/731/731 732/732/732
f 733/733/733 734/734/734 735/735/735
f 736/736/736 737/737/737 738/738/738
f 739/739/739 740/740/740 741/741/741
f 742/742/742 743/743/743 744/744/744
f 745/745/745 746/746/746 747/747/747
f 748/748/748 749/749/749 750/750/750
f 751/751/751 752/752/752 753/753/753
f 754/754/754 755/755/755 756/756/756
f 757/757/757 758/758/758 759/759/759
f 760/760/760 761/761/761 762/762/762
f 763/763/763 764/764/764 765/765/765
f 766/766/766 767/767/767 768/768/768
f 769/769/769 770/770/770 771/771/771
f 772/772/772 773/773/773 774/774/774
