# metre = block; Y up; per-cell coordinates; atlas UVs preserved
mtllib materials.mtl
o cell_53
usemtl pump_atlas
v 0.0000000 0.0985694 0.7134297
v 1.0000000 0.0985694 0.7134297
v 1.0000000 0.0003355 0.6609226
v 0.0000000 0.0985694 0.7134297
v 1.0000000 0.0003355 0.6609226
v 0.0000000 0.0798449 0.7034213
v 0.0000000 0.0798449 0.7034213
v 1.0000000 0.0003355 0.6609226
v 1.0000000 0.0000000 0.6607432
v 0.0000000 0.0798449 0.7034213
v 1.0000000 0.0000000 0.6607432
v 0.0000000 0.0000000 0.6607432
v 0.0000000 0.2419229 0.8310769
v 1.0000000 0.2419229 0.8310769
v 1.0000000 0.1558202 0.7604142
v 0.0000000 0.2419229 0.8310769
v 1.0000000 0.1558202 0.7604142
v 0.0000000 0.2255108 0.8176078
v 0.0000000 0.2255108 0.8176078
v 1.0000000 0.1558202 0.7604142
v 1.0000000 0.0985694 0.7134297
v 0.0000000 0.2255108 0.8176078
v 1.0000000 0.0985694 0.7134297
v 0.0000000 0.0985694 0.7134297
v 0.0000000 0.3595703 0.9744306
v 1.0000000 0.3595703 0.9744306
v 1.0000000 0.2889075 0.8883278
v 0.0000000 0.3595703 0.9744306
v 1.0000000 0.2889075 0.8883278
v 0.0000000 0.3461012 0.9580184
v 0.0000000 0.3461012 0.9580184
v 1.0000000 0.2889075 0.8883278
v 1.0000000 0.2419229 0.8310769
v 0.0000000 0.3461012 0.9580184
v 1.0000000 0.2419229 0.8310769
v 0.0000000 0.2419229 0.8310769
v 1.0000000 0.3732374 1.0000000
v 1.0000000 0.3595703 0.9744306
v 0.0000000 0.3595703 0.9744306
v 1.0000000 0.3732374 1.0000000
v 0.0000000 0.3595703 0.9744306
v 0.0000000 0.3732374 1.0000000
v 0.0000000 0.3402207 0.9643362
v 1.0000000 0.3402207 0.9643362
v 1.0000000 0.3426491 0.9647208
v 0.0000000 0.3402207 0.9643362
v 1.0000000 0.3426491 0.9647208
v 0.0000000 0.3456823 0.9652012
v 0.0000000 0.3456823 0.9652012
v 1.0000000 0.3426491 0.9647208
v 1.0000000 0.3463666 0.9653096
v 0.0000000 0.3456823 0.9652012
v 1.0000000 0.3463666 0.9653096
v 0.0000000 0.3463666 0.9653096
v 0.0000000 0.3205042 0.9297128
v 1.0000000 0.3205042 0.9297128
v 1.0000000 0.3201195 0.9321412
v 0.0000000 0.3205042 0.9297128
v 1.0000000 0.3201195 0.9321412
v 0.0000000 0.3196391 0.9351745
v 0.0000000 0.3196391 0.9351745
v 1.0000000 0.3201195 0.9321412
v 1.0000000 0.3195307 0.9358588
v 0.0000000 0.3196391 0.9351745
v 1.0000000 0.3195307 0.9358588
v 0.0000000 0.3195307 0.9358588
v 0.0000000 0.4059911 0.9219899
v 1.0000000 0.4059911 0.9219899
v 1.0000000 0.4065799 0.9182723
v 0.0000000 0.4059911 0.9219899
v 1.0000000 0.4065799 0.9182723
v 0.0000000 0.4060995 0.9213056
v 0.0000000 0.4060995 0.9213056
v 1.0000000 0.4065799 0.9182723
v 1.0000000 0.4069645 0.9158439
v 0.0000000 0.4060995 0.9213056
v 1.0000000 0.4069645 0.9158439
v 0.0000000 0.4069645 0.9158439
v 0.0000000 0.3862746 0.8873665
v 1.0000000 0.3862746 0.8873665
v 1.0000000 0.3825570 0.8867777
v 0.0000000 0.3862746 0.8873665
v 1.0000000 0.3825570 0.8867777
v 0.0000000 0.3855903 0.8872581
v 0.0000000 0.3855903 0.8872581
v 1.0000000 0.3825570 0.8867777
v 1.0000000 0.3801286 0.8863931
v 0.0000000 0.3855903 0.8872581
v 1.0000000 0.3801286 0.8863931
v 0.0000000 0.3801286 0.8863931
v 0.0000000 0.3463666 0.9653096
v 1.0000000 0.3463666 0.9653096
v 1.0000000 0.3824320 0.9391065
v 0.0000000 0.3463666 0.9653096
v 1.0000000 0.3824320 0.9391065
v 0.0000000 0.3530053 0.9604863
v 0.0000000 0.3530053 0.9604863
v 1.0000000 0.3824320 0.9391065
v 1.0000000 0.4059911 0.9219899
v 0.0000000 0.3530053 0.9604863
v 1.0000000 0.4059911 0.9219899
v 0.0000000 0.4059911 0.9219899
v 0.0000000 0.3195307 0.9358588
v 1.0000000 0.3195307 0.9358588
v 1.0000000 0.3277058 0.9471109
v 0.0000000 0.3195307 0.9358588
v 1.0000000 0.3277058 0.9471109
v 0.0000000 0.3379170 0.9611655
v 0.0000000 0.3379170 0.9611655
v 1.0000000 0.3277058 0.9471109
v 1.0000000 0.3402207 0.9643362
v 0.0000000 0.3379170 0.9611655
v 1.0000000 0.3402207 0.9643362
v 0.0000000 0.3402207 0.9643362
v 0.0000000 0.3801286 0.8863931
v 1.0000000 0.3801286 0.8863931
v 1.0000000 0.3565696 0.9035097
v 0.0000000 0.3801286 0.8863931
v 1.0000000 0.3565696 0.9035097
v 0.0000000 0.3271429 0.9248895
v 0.0000000 0.3271429 0.9248895
v 1.0000000 0.3565696 0.9035097
v 1.0000000 0.3205042 0.9297128
v 0.0000000 0.3271429 0.9248895
v 1.0000000 0.3205042 0.9297128
v 0.0000000 0.3205042 0.9297128
v 0.0000000 0.4069645 0.9158439
v 1.0000000 0.4069645 0.9158439
v 1.0000000 0.3944497 0.8986186
v 0.0000000 0.4069645 0.9158439
v 1.0000000 0.3944497 0.8986186
v 0.0000000 0.4046609 0.9126732
v 0.0000000 0.4046609 0.9126732
v 1.0000000 0.3944497 0.8986186
v 1.0000000 0.3862746 0.8873665
v 0.0000000 0.4046609 0.9126732
v 1.0000000 0.3862746 0.8873665
v 0.0000000 0.3862746 0.8873665
v 0.0000000 0.1371412 0.7534692
v 1.0000000 0.1371412 0.7534692
v 1.0000000 0.1395696 0.7530846
v 0.0000000 0.1371412 0.7534692
v 1.0000000 0.1395696 0.7530846
v 0.0000000 0.1426029 0.7526042
v 0.0000000 0.1426029 0.7526042
v 1.0000000 0.1395696 0.7530846
v 1.0000000 0.1432872 0.7524958
v 0.0000000 0.1426029 0.7526042
v 1.0000000 0.1432872 0.7524958
v 0.0000000 0.1432872 0.7524958
v 0.0000000 0.1076903 0.7266332
v 1.0000000 0.1076903 0.7266332
v 1.0000000 0.1080750 0.7290616
v 0.0000000 0.1076903 0.7266332
v 1.0000000 0.1080750 0.7290616
v 0.0000000 0.1085554 0.7320948
v 0.0000000 0.1085554 0.7320948
v 1.0000000 0.1080750 0.7290616
v 1.0000000 0.1086638 0.7327791
v 0.0000000 0.1085554 0.7320948
v 1.0000000 0.1086638 0.7327791
v 0.0000000 0.1086638 0.7327791
v 0.0000000 0.1866069 0.6928712
v 1.0000000 0.1866069 0.6928712
v 1.0000000 0.1860181 0.6891537
v 0.0000000 0.1866069 0.6928712
v 1.0000000 0.1860181 0.6891537
v 0.0000000 0.1864985 0.6921869
v 0.0000000 0.1864985 0.6921869
v 1.0000000 0.1860181 0.6891537
v 1.0000000 0.1856334 0.6867253
v 0.0000000 0.1864985 0.6921869
v 1.0000000 0.1856334 0.6867253
v 0.0000000 0.1856334 0.6867253
v 0.0000000 0.1571560 0.6660352
v 1.0000000 0.1571560 0.6660352
v 1.0000000 0.1534384 0.6666240
v 0.0000000 0.1571560 0.6660352
v 1.0000000 0.1534384 0.6666240
v 0.0000000 0.1564717 0.6661436
v 0.0000000 0.1564717 0.6661436
v 1.0000000 0.1534384 0.6666240
v 1.0000000 0.1510100 0.6670086
v 0.0000000 0.1564717 0.6661436
v 1.0000000 0.1510100 0.6670086
v 0.0000000 0.1510100 0.6670086
v 0.0000000 0.1432872 0.7524958
v 1.0000000 0.1432872 0.7524958
v 1.0000000 0.1694903 0.7164303
v 0.0000000 0.1432872 0.7524958
v 1.0000000 0.1694903 0.7164303
v 0.0000000 0.1481105 0.7458571
v 0.0000000 0.1481105 0.7458571
v 1.0000000 0.1694903 0.7164303
v 1.0000000 0.1866069 0.6928712
v 0.0000000 0.1481105 0.7458571
v 1.0000000 0.1866069 0.6928712
v 0.0000000 0.1866069 0.6928712
v 0.0000000 0.1086638 0.7327791
v 1.0000000 0.1086638 0.7327791
v 1.0000000 0.1199159 0.7409543
v 0.0000000 0.1086638 0.7327791
v 1.0000000 0.1199159 0.7409543
v 0.0000000 0.1339705 0.7511655
v 0.0000000 0.1339705 0.7511655
v 1.0000000 0.1199159 0.7409543
v 1.0000000 0.1371412 0.7534692
v 0.0000000 0.1339705 0.7511655
v 1.0000000 0.1371412 0.7534692
v 0.0000000 0.1371412 0.7534692
v 0.0000000 0.1510100 0.6670086
v 1.0000000 0.1510100 0.6670086
v 1.0000000 0.1338934 0.6905677
v 0.0000000 0.1510100 0.6670086
v 1.0000000 0.1338934 0.6905677
v 0.0000000 0.1125136 0.7199945
v 0.0000000 0.1125136 0.7199945
v 1.0000000 0.1338934 0.6905677
v 1.0000000 0.1076903 0.7266332
v 0.0000000 0.1125136 0.7199945
v 1.0000000 0.1076903 0.7266332
v 0.0000000 0.1076903 0.7266332
v 0.0000000 0.1856334 0.6867253
v 1.0000000 0.1856334 0.6867253
v 1.0000000 0.1684081 0.6742104
v 0.0000000 0.1856334 0.6867253
v 1.0000000 0.1684081 0.6742104
v 0.0000000 0.1824627 0.6844216
v 0.0000000 0.1824627 0.6844216
v 1.0000000 0.1684081 0.6742104
v 1.0000000 0.1571560 0.6660352
v 0.0000000 0.1824627 0.6844216
v 1.0000000 0.1571560 0.6660352
v 0.0000000 0.1571560 0.6660352
v 0.6280000 0.0074999 0.8932400
v 0.6665001 0.0074999 0.9317400
v 0.6665001 0.0460000 0.8932400
v 0.6280000 0.0074999 0.5742400
v 0.6665001 0.0460000 0.5742400
v 0.6665001 0.0074999 0.5357400
v 0.6280000 0.0074999 0.8932400
v 0.6665001 0.0460000 0.8932400
v 0.6665001 0.0460000 0.5742400
v 0.6280000 0.0074999 0.8932400
v 0.6665001 0.0460000 0.5742400
v 0.6280000 0.0074999 0.5742400
v 0.6665001 0.0074999 0.9317400
v 1.0000000 0.0074999 0.9317400
v 1.0000000 0.0359695 0.9032705
v 0.6665001 0.0074999 0.9317400
v 1.0000000 0.0359695 0.9032705
v 1.0000000 0.0460000 0.8932400
v 0.6665001 0.0074999 0.9317400
v 1.0000000 0.0460000 0.8932400
v 0.6665001 0.0460000 0.8932400
v 0.6665001 0.0460000 0.5742400
v 1.0000000 0.0460000 0.5742400
v 1.0000000 0.0175304 0.5457705
v 0.6665001 0.0460000 0.5742400
v 1.0000000 0.0175304 0.5457705
v 1.0000000 0.0074999 0.5357400
v 0.6665001 0.0460000 0.5742400
v 1.0000000 0.0074999 0.5357400
v 0.6665001 0.0074999 0.5357400
v 0.6665001 0.0000000 0.9317400
v 0.6665001 0.0074999 0.9317400
v 0.6656533 0.0000000 0.9308932
v 0.6656533 0.0000000 0.9308932
v 0.6665001 0.0074999 0.9317400
v 0.6280000 0.0074999 0.8932400
v 0.6656533 0.0000000 0.9308932
v 0.6280000 0.0074999 0.8932400
v 0.6280000 0.0000000 0.8932400
v 0.6280000 0.0000000 0.5742400
v 0.6280000 0.0074999 0.5742400
v 0.6665001 0.0074999 0.5357400
v 0.6280000 0.0000000 0.5742400
v 0.6665001 0.0074999 0.5357400
v 0.6656533 0.0000000 0.5365868
v 0.6656533 0.0000000 0.5365868
v 0.6665001 0.0074999 0.5357400
v 0.6665001 0.0000000 0.5357400
v 1.0000000 0.0000000 0.9317400
v 1.0000000 0.0074999 0.9317400
v 0.6665001 0.0074999 0.9317400
v 1.0000000 0.0000000 0.9317400
v 0.6665001 0.0074999 0.9317400
v 0.6665001 0.0000000 0.9317400
v 0.6280000 0.0000000 0.8932400
v 0.6280000 0.0074999 0.8932400
v 0.6280000 0.0074999 0.5742400
v 0.6280000 0.0000000 0.8932400
v 0.6280000 0.0074999 0.5742400
v 0.6280000 0.0000000 0.5812560
v 0.6280000 0.0000000 0.5812560
v 0.6280000 0.0074999 0.5742400
v 0.6280000 0.0000000 0.5742400
v 0.6665001 0.0000000 0.5357400
v 0.6665001 0.0074999 0.5357400
v 1.0000000 0.0074999 0.5357400
v 0.6665001 0.0000000 0.5357400
v 1.0000000 0.0074999 0.5357400
v 1.0000000 0.0000000 0.5357400
v 0.6665001 0.0460000 0.8932400
v 1.0000000 0.0460000 0.8932400
v 1.0000000 0.0460000 0.6573498
v 0.6665001 0.0460000 0.8932400
v 1.0000000 0.0460000 0.6573498
v 1.0000000 0.0460000 0.5742400
v 0.6665001 0.0460000 0.8932400
v 1.0000000 0.0460000 0.5742400
v 0.6665001 0.0460000 0.5742400
v 0.6060001 0.0377500 0.5280400
v 0.6252501 0.0377500 0.5472900
v 0.6252501 0.0569999 0.5280400
v 0.6060001 0.0377500 0.5280400
v 0.6252501 0.0569999 0.5280400
v 0.6252501 0.0377500 0.5087900
v 0.6252501 0.0377500 0.5472900
v 1.0000000 0.0377500 0.5472900
v 1.0000000 0.0512718 0.5337681
v 0.6252501 0.0377500 0.5472900
v 1.0000000 0.0512718 0.5337681
v 1.0000000 0.0569999 0.5280400
v 0.6252501 0.0377500 0.5472900
v 1.0000000 0.0569999 0.5280400
v 0.6252501 0.0569999 0.5280400
v 0.6252501 0.0569999 0.5280400
v 1.0000000 0.0569999 0.5280400
v 1.0000000 0.0434781 0.5145181
v 0.6252501 0.0569999 0.5280400
v 1.0000000 0.0434781 0.5145181
v 1.0000000 0.0377500 0.5087900
v 0.6252501 0.0569999 0.5280400
v 1.0000000 0.0377500 0.5087900
v 0.6252501 0.0377500 0.5087900
v 0.6252501 0.0000000 0.5472900
v 0.6252501 0.0377500 0.5472900
v 0.6234402 0.0000000 0.5454801
v 0.6234402 0.0000000 0.5454801
v 0.6252501 0.0377500 0.5472900
v 0.6060001 0.0377500 0.5280400
v 0.6234402 0.0000000 0.5454801
v 0.6060001 0.0377500 0.5280400
v 0.6060001 0.0000000 0.5280400
v 0.6060001 0.0000000 0.5280400
v 0.6060001 0.0377500 0.5280400
v 0.6252501 0.0377500 0.5087900
v 0.6060001 0.0000000 0.5280400
v 0.6252501 0.0377500 0.5087900
v 0.6234402 0.0000000 0.5105999
v 0.6234402 0.0000000 0.5105999
v 0.6252501 0.0377500 0.5087900
v 0.6252501 0.0000000 0.5087900
v 1.0000000 0.0000000 0.5472900
v 1.0000000 0.0377500 0.5472900
v 0.6252501 0.0377500 0.5472900
v 1.0000000 0.0000000 0.5472900
v 0.6252501 0.0377500 0.5472900
v 0.6252501 0.0000000 0.5472900
v 0.6252501 0.0000000 0.5087900
v 0.6252501 0.0377500 0.5087900
v 1.0000000 0.0377500 0.5087900
v 0.6252501 0.0000000 0.5087900
v 1.0000000 0.0377500 0.5087900
v 1.0000000 0.0000000 0.5087900
vt 0.4015152 0.0950530
vt 0.4488636 0.0950530
vt 0.4488636 0.0889685
vt 0.4015152 0.0950530
vt 0.4488636 0.0889685
vt 0.4015152 0.0938932
vt 0.4015152 0.0938932
vt 0.4488636 0.0889685
vt 0.4488636 0.0889478
vt 0.4015152 0.0938932
vt 0.4488636 0.0889478
vt 0.4015152 0.0889478
vt 0.4015152 0.1039320
vt 0.4488636 0.1039320
vt 0.4488636 0.0985990
vt 0.4015152 0.1039320
vt 0.4488636 0.0985990
vt 0.4015152 0.1029155
vt 0.4015152 0.1029155
vt 0.4488636 0.0985990
vt 0.4488636 0.0950530
vt 0.4015152 0.1029155
vt 0.4488636 0.0950530
vt 0.4015152 0.0950530
vt 0.4015152 0.0950529
vt 0.4488636 0.0950529
vt 0.4488636 0.1003860
vt 0.4015152 0.0950529
vt 0.4488636 0.1003860
vt 0.4015152 0.0960694
vt 0.4015152 0.0960694
vt 0.4488636 0.1003860
vt 0.4488636 0.1039320
vt 0.4015152 0.0960694
vt 0.4488636 0.1039320
vt 0.4015152 0.1039320
vt 0.4488636 0.0934692
vt 0.4488636 0.0950529
vt 0.4015152 0.0950529
vt 0.4488636 0.0934692
vt 0.4015152 0.0950529
vt 0.4015152 0.0934692
vt 0.3946983 0.0130215
vt 0.4508696 0.0144674
vt 0.4497120 0.0134641
vt 0.3946983 0.0130215
vt 0.4497120 0.0134641
vt 0.3920947 0.0107651
vt 0.3920947 0.0107651
vt 0.4497120 0.0134641
vt 0.4497119 0.0092111
vt 0.3920947 0.0107651
vt 0.4497119 0.0092111
vt 0.3920947 0.0099822
vt 0.3921510 0.1210938
vt 0.4497370 0.1210938
vt 0.4497370 0.1164634
vt 0.3921510 0.1210938
vt 0.4497370 0.1164634
vt 0.3921510 0.1106798
vt 0.3921510 0.1106798
vt 0.4497370 0.1164634
vt 0.4497370 0.1093750
vt 0.3921510 0.1106798
vt 0.4497370 0.1093750
vt 0.3921510 0.1093750
vt 0.3920947 0.1148437
vt 0.4497119 0.1148437
vt 0.4497120 0.1186242
vt 0.3920947 0.1148437
vt 0.4497120 0.1186242
vt 0.3920947 0.1155396
vt 0.3920947 0.1155396
vt 0.4497120 0.1186242
vt 0.4527572 0.1210938
vt 0.3920947 0.1155396
vt 0.4527572 0.1210938
vt 0.3989436 0.1210938
vt 0.3918319 0.1100274
vt 0.4480032 0.1129192
vt 0.4497370 0.1126829
vt 0.3918319 0.1100274
vt 0.4497370 0.1126829
vt 0.3921511 0.1099839
vt 0.3921511 0.1099839
vt 0.4497370 0.1126829
vt 0.4497370 0.1148437
vt 0.3921511 0.1099839
vt 0.4497370 0.1148437
vt 0.3921510 0.1148437
vt 0.3920947 0.0099822
vt 0.4497119 0.0092111
vt 0.4497119 0.0734792
vt 0.3920947 0.0099822
vt 0.4497119 0.0734792
vt 0.3920947 0.0218123
vt 0.3920947 0.0218123
vt 0.4497119 0.0734792
vt 0.4497119 0.1148437
vt 0.3920947 0.0218123
vt 0.4497119 0.1148437
vt 0.3920947 0.1148437
vt 0.3921510 0.1093750
vt 0.4497370 0.1093750
vt 0.4508696 0.0711745
vt 0.3921510 0.1093750
vt 0.4508696 0.0711745
vt 0.3946983 0.0234598
vt 0.3946983 0.0234598
vt 0.4508696 0.0711745
vt 0.4508696 0.0144674
vt 0.3946983 0.0234598
vt 0.4508696 0.0144674
vt 0.3946983 0.0130215
vt 0.3921510 0.1148437
vt 0.4497370 0.1148437
vt 0.4497370 0.0734792
vt 0.3921510 0.1148437
vt 0.4497370 0.0734792
vt 0.3921510 0.0218123
vt 0.3921510 0.0218123
vt 0.4497370 0.0734792
vt 0.4497370 0.0101562
vt 0.3921510 0.0218123
vt 0.4497370 0.0101562
vt 0.3921510 0.0101562
vt 0.3921510 0.0156250
vt 0.4497370 0.0156250
vt 0.4480032 0.0758763
vt 0.3921510 0.0156250
vt 0.4480032 0.0758763
vt 0.3918319 0.0267157
vt 0.3918319 0.0267157
vt 0.4480032 0.0758763
vt 0.4480032 0.1129192
vt 0.3918319 0.0267157
vt 0.4480032 0.1129192
vt 0.3918319 0.1100274
vt 0.3946983 0.0130215
vt 0.4508696 0.0144674
vt 0.4497120 0.0134641
vt 0.3946983 0.0130215
vt 0.4497120 0.0134641
vt 0.3920947 0.0107651
vt 0.3920947 0.0107651
vt 0.4497120 0.0134641
vt 0.4497120 0.0092111
vt 0.3920947 0.0107651
vt 0.4497120 0.0092111
vt 0.3920947 0.0099822
vt 0.3921510 0.1210938
vt 0.4497370 0.1210938
vt 0.4497370 0.1164634
vt 0.3921510 0.1210938
vt 0.4497370 0.1164634
vt 0.3921510 0.1106798
vt 0.3921510 0.1106798
vt 0.4497370 0.1164634
vt 0.4497370 0.1093750
vt 0.3921510 0.1106798
vt 0.4497370 0.1093750
vt 0.3921510 0.1093750
vt 0.3920947 0.1148437
vt 0.4497119 0.1148437
vt 0.4497120 0.1186242
vt 0.3920947 0.1148437
vt 0.4497120 0.1186242
vt 0.3920947 0.1155396
vt 0.3920947 0.1155396
vt 0.4497120 0.1186242
vt 0.4527572 0.1210938
vt 0.3920947 0.1155396
vt 0.4527572 0.1210938
vt 0.3989436 0.1210938
vt 0.3918319 0.1100274
vt 0.4480032 0.1129192
vt 0.4497370 0.1126829
vt 0.3918319 0.1100274
vt 0.4497370 0.1126829
vt 0.3921511 0.1099839
vt 0.3921511 0.1099839
vt 0.4497370 0.1126829
vt 0.4497370 0.1148437
vt 0.3921511 0.1099839
vt 0.4497370 0.1148437
vt 0.3921510 0.1148437
vt 0.3920947 0.0099822
vt 0.4497120 0.0092111
vt 0.4497119 0.0734792
vt 0.3920947 0.0099822
vt 0.4497119 0.0734792
vt 0.3920947 0.0218123
vt 0.3920947 0.0218123
vt 0.4497119 0.0734792
vt 0.4497119 0.1148437
vt 0.3920947 0.0218123
vt 0.4497119 0.1148437
vt 0.3920947 0.1148437
vt 0.3921510 0.1093750
vt 0.4497370 0.1093750
vt 0.4508696 0.0711745
vt 0.3921510 0.1093750
vt 0.4508696 0.0711745
vt 0.3946983 0.0234598
vt 0.3946983 0.0234598
vt 0.4508696 0.0711745
vt 0.4508696 0.0144674
vt 0.3946983 0.0234598
vt 0.4508696 0.0144674
vt 0.3946983 0.0130215
vt 0.3921510 0.1148437
vt 0.4497370 0.1148437
vt 0.4497370 0.0734792
vt 0.3921510 0.1148437
vt 0.4497370 0.0734792
vt 0.3921510 0.0218123
vt 0.3921510 0.0218123
vt 0.4497370 0.0734792
vt 0.4497370 0.0101562
vt 0.3921510 0.0218123
vt 0.4497370 0.0101562
vt 0.3921510 0.0101562
vt 0.3921510 0.0156250
vt 0.4497370 0.0156250
vt 0.4480032 0.0758763
vt 0.3921510 0.0156250
vt 0.4480032 0.0758763
vt 0.3918319 0.0267157
vt 0.3918319 0.0267157
vt 0.4480032 0.0758763
vt 0.4480032 0.1129192
vt 0.3918319 0.0267157
vt 0.4480032 0.1129192
vt 0.3918319 0.1100274
vt 0.3902995 0.1103002
vt 0.3853149 0.1103002
vt 0.3893501 0.1210938
vt 0.4847005 0.1103002
vt 0.4847005 0.1210938
vt 0.4960938 0.1103002
vt 0.3902995 0.1103002
vt 0.3893501 0.1210938
vt 0.4847005 0.1210938
vt 0.3902995 0.1103002
vt 0.4847005 0.1210938
vt 0.4847005 0.1103002
vt 0.3853149 0.1103002
vt 0.4609136 0.1103002
vt 0.4609136 0.1182817
vt 0.3853149 0.1103002
vt 0.4609136 0.1182817
vt 0.4619649 0.1210938
vt 0.3853149 0.1103002
vt 0.4619649 0.1210938
vt 0.3893501 0.1210938
vt 0.3874512 0.1097005
vt 0.4609436 0.1139130
vt 0.4614701 0.1101440
vt 0.3874512 0.1097005
vt 0.4614701 0.1101440
vt 0.4614701 0.1103002
vt 0.3874512 0.1097005
vt 0.4614701 0.1103002
vt 0.3874511 0.1103002
vt 0.3853619 0.1081382
vt 0.3853149 0.1103002
vt 0.3852992 0.1082042
vt 0.3852992 0.1082042
vt 0.3853149 0.1103002
vt 0.3902995 0.1103002
vt 0.3852992 0.1082042
vt 0.3902995 0.1103002
vt 0.3901742 0.1082042
vt 0.4847005 0.1081976
vt 0.4847005 0.1103002
vt 0.4960938 0.1103002
vt 0.4847005 0.1081976
vt 0.4960938 0.1103002
vt 0.4958432 0.1081976
vt 0.4958432 0.1081976
vt 0.4960938 0.1103002
vt 0.4960938 0.1081976
vt 0.4609605 0.1081382
vt 0.4609136 0.1103002
vt 0.3853149 0.1103002
vt 0.4609605 0.1081382
vt 0.3853149 0.1103002
vt 0.3853619 0.1081382
vt 0.3901742 0.1082042
vt 0.3902995 0.1103002
vt 0.4847005 0.1103002
vt 0.3901742 0.1082042
vt 0.4847005 0.1103002
vt 0.4824990 0.1082042
vt 0.4824990 0.1082042
vt 0.4847005 0.1103002
vt 0.4847005 0.1081976
vt 0.3874511 0.1081976
vt 0.3874511 0.1103002
vt 0.4614701 0.1103002
vt 0.3874511 0.1081976
vt 0.4614701 0.1103002
vt 0.4614701 0.1081976
vt 0.3874512 0.0152995
vt 0.4614701 0.0152995
vt 0.4609436 0.0893184
vt 0.3874512 0.0152995
vt 0.4609436 0.0893184
vt 0.4609436 0.1139130
vt 0.3874512 0.0152995
vt 0.4609436 0.1139130
vt 0.3874512 0.1097005
vt 0.4375000 0.1159668
vt 0.3818641 0.1159668
vt 0.4192834 0.1210938
vt 0.4375000 0.1159668
vt 0.4375000 0.1210938
vt 0.4960938 0.1159668
vt 0.3818641 0.1159668
vt 0.4593329 0.1159668
vt 0.4593329 0.1195682
vt 0.3818641 0.1159668
vt 0.4593329 0.1195682
vt 0.4704675 0.1210938
vt 0.3818641 0.1159668
vt 0.4704675 0.1210938
vt 0.4192834 0.1210938
vt 0.3828501 0.0625000
vt 0.4500293 0.0830792
vt 0.4596263 0.1000570
vt 0.3828501 0.0625000
vt 0.4596263 0.1000570
vt 0.4596263 0.1159668
vt 0.3828501 0.0625000
vt 0.4596263 0.1159668
vt 0.3828501 0.1159668
vt 0.3819568 0.1057921
vt 0.3818641 0.1159668
vt 0.3843406 0.1084262
vt 0.3843406 0.1084262
vt 0.3818641 0.1159668
vt 0.4375000 0.1159668
vt 0.3843406 0.1084262
vt 0.4375000 0.1159668
vt 0.4347454 0.1084262
vt 0.4375000 0.1059126
vt 0.4375000 0.1159668
vt 0.4960938 0.1159668
vt 0.4375000 0.1059126
vt 0.4960938 0.1159668
vt 0.4905847 0.1059126
vt 0.4905847 0.1059126
vt 0.4960938 0.1159668
vt 0.4960938 0.1059126
vt 0.4594256 0.1057921
vt 0.4593329 0.1159668
vt 0.3818641 0.1159668
vt 0.4594256 0.1057921
vt 0.3818641 0.1159668
vt 0.3819568 0.1057921
vt 0.3828501 0.1059126
vt 0.3828501 0.1159668
vt 0.4596263 0.1159668
vt 0.3828501 0.1059126
vt 0.4596263 0.1159668
vt 0.4596263 0.1059126
vn 0.0000000 0.5555704 -0.8314695
vn 0.0000000 0.5555704 -0.8314695
vn 0.0000000 0.4538256 -0.8910905
vn 0.0000000 0.5555704 -0.8314695
vn 0.0000000 0.4538256 -0.8910905
vn 0.0000000 0.5368238 -0.8436944
vn 0.0000000 0.5368238 -0.8436944
vn 0.0000000 0.4538256 -0.8910905
vn 0.0000000 0.4534656 -0.8912738
vn 0.0000000 0.5368238 -0.8436944
vn 0.0000000 0.4534656 -0.8912738
vn 0.0000000 0.4534656 -0.8912738
vn 0.0000000 0.7071066 -0.7071069
vn 0.0000000 0.7071066 -0.7071069
vn 0.0000000 0.6189485 -0.7854316
vn 0.0000000 0.7071066 -0.7071069
vn 0.0000000 0.6189485 -0.7854316
vn 0.0000000 0.6911053 -0.7227541
vn 0.0000000 0.6911053 -0.7227541
vn 0.0000000 0.6189485 -0.7854316
vn 0.0000000 0.5555704 -0.8314695
vn 0.0000000 0.6911053 -0.7227541
vn 0.0000000 0.5555704 -0.8314695
vn 0.0000000 0.5555704 -0.8314695
vn 0.0000000 0.8314695 -0.5555704
vn 0.0000000 0.8314695 -0.5555704
vn 0.0000000 0.7602855 -0.6495890
vn 0.0000000 0.8314695 -0.5555704
vn 0.0000000 0.7602855 -0.6495890
vn 0.0000000 0.8188282 -0.5740387
vn 0.0000000 0.8188282 -0.5740387
vn 0.0000000 0.7602855 -0.6495890
vn 0.0000000 0.7071066 -0.7071069
vn 0.0000000 0.8188282 -0.5740387
vn 0.0000000 0.7071066 -0.7071069
vn 0.0000000 0.7071066 -0.7071069
vn 0.0000000 0.8480689 -0.5298860
vn 0.0000000 0.8314695 -0.5555704
vn 0.0000000 0.8314695 -0.5555704
vn 0.0000000 0.8480689 -0.5298860
vn 0.0000000 0.8314695 -0.5555704
vn 0.0000000 0.8480689 -0.5298860
vn 0.0000000 -0.1564346 0.9876883
vn 0.0000000 -0.1564346 0.9876883
vn 0.0000000 -0.1564346 0.9876883
vn 0.0000000 -0.1564346 0.9876883
vn 0.0000000 -0.1564346 0.9876883
vn 0.0000000 -0.1564346 0.9876883
vn 0.0000000 -0.1564346 0.9876883
vn 0.0000000 -0.1564346 0.9876883
vn 0.0000000 -0.1564346 0.9876883
vn 0.0000000 -0.1564346 0.9876883
vn 0.0000000 -0.1564346 0.9876883
vn 0.0000000 -0.1564346 0.9876883
vn 0.0000000 -0.9876884 -0.1564344
vn 0.0000000 -0.9876884 -0.1564344
vn 0.0000000 -0.9876884 -0.1564344
vn 0.0000000 -0.9876884 -0.1564344
vn 0.0000000 -0.9876884 -0.1564344
vn 0.0000000 -0.9876884 -0.1564344
vn 0.0000000 -0.9876884 -0.1564344
vn 0.0000000 -0.9876884 -0.1564344
vn 0.0000000 -0.9876884 -0.1564344
vn 0.0000000 -0.9876884 -0.1564344
vn 0.0000000 -0.9876884 -0.1564344
vn 0.0000000 -0.9876884 -0.1564344
vn 0.0000000 0.9876884 0.1564344
vn 0.0000000 0.9876884 0.1564344
vn 0.0000000 0.9876884 0.1564344
vn 0.0000000 0.9876884 0.1564344
vn 0.0000000 0.9876884 0.1564344
vn 0.0000000 0.9876884 0.1564344
vn 0.0000000 0.9876884 0.1564344
vn 0.0000000 0.9876884 0.1564344
vn 0.0000000 0.9876884 0.1564344
vn 0.0000000 0.9876884 0.1564344
vn 0.0000000 0.9876884 0.1564344
vn 0.0000000 0.9876884 0.1564344
vn 0.0000000 0.1564346 -0.9876883
vn 0.0000000 0.1564346 -0.9876883
vn 0.0000000 0.1564346 -0.9876883
vn 0.0000000 0.1564346 -0.9876883
vn 0.0000000 0.1564346 -0.9876883
vn 0.0000000 0.1564346 -0.9876883
vn 0.0000000 0.1564346 -0.9876883
vn 0.0000000 0.1564346 -0.9876883
vn 0.0000000 0.1564346 -0.9876883
vn 0.0000000 0.1564346 -0.9876883
vn 0.0000000 0.1564346 -0.9876883
vn 0.0000000 0.1564346 -0.9876883
vn 0.0000000 0.5877852 0.8090170
vn 0.0000000 0.5877852 0.8090170
vn 0.0000000 0.5877852 0.8090170
vn 0.0000000 0.5877852 0.8090170
vn 0.0000000 0.5877852 0.8090170
vn 0.0000000 0.5877852 0.8090170
vn 0.0000000 0.5877852 0.8090170
vn 0.0000000 0.5877852 0.8090170
vn 0.0000000 0.5877852 0.8090170
vn 0.0000000 0.5877852 0.8090170
vn 0.0000000 0.5877852 0.8090170
vn 0.0000000 0.5877852 0.8090170
vn 0.0000000 -0.8090170 0.5877852
vn 0.0000000 -0.8090170 0.5877852
vn 0.0000000 -0.8090170 0.5877852
vn 0.0000000 -0.8090170 0.5877852
vn 0.0000000 -0.8090170 0.5877852
vn 0.0000000 -0.8090170 0.5877852
vn 0.0000000 -0.8090170 0.5877852
vn 0.0000000 -0.8090170 0.5877852
vn 0.0000000 -0.8090170 0.5877852
vn 0.0000000 -0.8090170 0.5877852
vn 0.0000000 -0.8090170 0.5877852
vn 0.0000000 -0.8090170 0.5877852
vn 0.0000000 -0.5877852 -0.8090170
vn 0.0000000 -0.5877852 -0.8090170
vn 0.0000000 -0.5877852 -0.8090170
vn 0.0000000 -0.5877852 -0.8090170
vn 0.0000000 -0.5877852 -0.8090170
vn 0.0000000 -0.5877852 -0.8090170
vn 0.0000000 -0.5877852 -0.8090170
vn 0.0000000 -0.5877852 -0.8090170
vn 0.0000000 -0.5877852 -0.8090170
vn 0.0000000 -0.5877852 -0.8090170
vn 0.0000000 -0.5877852 -0.8090170
vn 0.0000000 -0.5877852 -0.8090170
vn 0.0000000 0.8090170 -0.5877852
vn 0.0000000 0.8090170 -0.5877852
vn 0.0000000 0.8090170 -0.5877852
vn 0.0000000 0.8090170 -0.5877852
vn 0.0000000 0.8090170 -0.5877852
vn 0.0000000 0.8090170 -0.5877852
vn 0.0000000 0.8090170 -0.5877852
vn 0.0000000 0.8090170 -0.5877852
vn 0.0000000 0.8090170 -0.5877852
vn 0.0000000 0.8090170 -0.5877852
vn 0.0000000 0.8090170 -0.5877852
vn 0.0000000 0.8090170 -0.5877852
vn 0.0000000 0.1564344 0.9876884
vn 0.0000000 0.1564344 0.9876884
vn 0.0000000 0.1564344 0.9876884
vn 0.0000000 0.1564344 0.9876884
vn 0.0000000 0.1564344 0.9876884
vn 0.0000000 0.1564344 0.9876884
vn 0.0000000 0.1564344 0.9876884
vn 0.0000000 0.1564344 0.9876884
vn 0.0000000 0.1564344 0.9876884
vn 0.0000000 0.1564344 0.9876884
vn 0.0000000 0.1564344 0.9876884
vn 0.0000000 0.1564344 0.9876884
vn 0.0000000 -0.9876883 0.1564346
vn 0.0000000 -0.9876883 0.1564346
vn 0.0000000 -0.9876883 0.1564346
vn 0.0000000 -0.9876883 0.1564346
vn 0.0000000 -0.9876883 0.1564346
vn 0.0000000 -0.9876883 0.1564346
vn 0.0000000 -0.9876883 0.1564346
vn 0.0000000 -0.9876883 0.1564346
vn 0.0000000 -0.9876883 0.1564346
vn 0.0000000 -0.9876883 0.1564346
vn 0.0000000 -0.9876883 0.1564346
vn 0.0000000 -0.9876883 0.1564346
vn 0.0000000 0.9876883 -0.1564346
vn 0.0000000 0.9876883 -0.1564346
vn 0.0000000 0.9876883 -0.1564346
vn 0.0000000 0.9876883 -0.1564346
vn 0.0000000 0.9876883 -0.1564346
vn 0.0000000 0.9876883 -0.1564346
vn 0.0000000 0.9876883 -0.1564346
vn 0.0000000 0.9876883 -0.1564346
vn 0.0000000 0.9876883 -0.1564346
vn 0.0000000 0.9876883 -0.1564346
vn 0.0000000 0.9876883 -0.1564346
vn 0.0000000 0.9876883 -0.1564346
vn 0.0000000 -0.1564344 -0.9876884
vn 0.0000000 -0.1564344 -0.9876884
vn 0.0000000 -0.1564344 -0.9876884
vn 0.0000000 -0.1564344 -0.9876884
vn 0.0000000 -0.1564344 -0.9876884
vn 0.0000000 -0.1564344 -0.9876884
vn 0.0000000 -0.1564344 -0.9876884
vn 0.0000000 -0.1564344 -0.9876884
vn 0.0000000 -0.1564344 -0.9876884
vn 0.0000000 -0.1564344 -0.9876884
vn 0.0000000 -0.1564344 -0.9876884
vn 0.0000000 -0.1564344 -0.9876884
vn 0.0000000 0.8090170 0.5877852
vn 0.0000000 0.8090170 0.5877852
vn 0.0000000 0.8090170 0.5877852
vn 0.0000000 0.8090170 0.5877852
vn 0.0000000 0.8090170 0.5877852
vn 0.0000000 0.8090170 0.5877852
vn 0.0000000 0.8090170 0.5877852
vn 0.0000000 0.8090170 0.5877852
vn 0.0000000 0.8090170 0.5877852
vn 0.0000000 0.8090170 0.5877852
vn 0.0000000 0.8090170 0.5877852
vn 0.0000000 0.8090170 0.5877852
vn 0.0000000 -0.5877852 0.8090170
vn 0.0000000 -0.5877852 0.8090170
vn 0.0000000 -0.5877852 0.8090170
vn 0.0000000 -0.5877852 0.8090170
vn 0.0000000 -0.5877852 0.8090170
vn 0.0000000 -0.5877852 0.8090170
vn 0.0000000 -0.5877852 0.8090170
vn 0.0000000 -0.5877852 0.8090170
vn 0.0000000 -0.5877852 0.8090170
vn 0.0000000 -0.5877852 0.8090170
vn 0.0000000 -0.5877852 0.8090170
vn 0.0000000 -0.5877852 0.8090170
vn 0.0000000 -0.8090170 -0.5877852
vn 0.0000000 -0.8090170 -0.5877852
vn 0.0000000 -0.8090170 -0.5877852
vn 0.0000000 -0.8090170 -0.5877852
vn 0.0000000 -0.8090170 -0.5877852
vn 0.0000000 -0.8090170 -0.5877852
vn 0.0000000 -0.8090170 -0.5877852
vn 0.0000000 -0.8090170 -0.5877852
vn 0.0000000 -0.8090170 -0.5877852
vn 0.0000000 -0.8090170 -0.5877852
vn 0.0000000 -0.8090170 -0.5877852
vn 0.0000000 -0.8090170 -0.5877852
vn 0.0000000 0.5877852 -0.8090170
vn 0.0000000 0.5877852 -0.8090170
vn 0.0000000 0.5877852 -0.8090170
vn 0.0000000 0.5877852 -0.8090170
vn 0.0000000 0.5877852 -0.8090170
vn 0.0000000 0.5877852 -0.8090170
vn 0.0000000 0.5877852 -0.8090170
vn 0.0000000 0.5877852 -0.8090170
vn 0.0000000 0.5877852 -0.8090170
vn 0.0000000 0.5877852 -0.8090170
vn 0.0000000 0.5877852 -0.8090170
vn 0.0000000 0.5877852 -0.8090170
vn -0.5773504 0.5773500 0.5773504
vn -0.5773504 0.5773500 0.5773504
vn -0.5773504 0.5773500 0.5773504
vn -0.5773504 0.5773500 -0.5773504
vn -0.5773504 0.5773500 -0.5773504
vn -0.5773504 0.5773500 -0.5773504
vn -0.7071066 0.7071069 0.0000000
vn -0.7071066 0.7071069 0.0000000
vn -0.7071066 0.7071069 0.0000000
vn -0.7071066 0.7071069 0.0000000
vn -0.7071066 0.7071069 0.0000000
vn -0.7071066 0.7071069 0.0000000
vn 0.0000000 0.7071069 0.7071066
vn 0.0000000 0.7071069 0.7071066
vn 0.0000000 0.7071069 0.7071066
vn 0.0000000 0.7071069 0.7071066
vn 0.0000000 0.7071069 0.7071066
vn 0.0000000 0.7071069 0.7071066
vn 0.0000000 0.7071069 0.7071066
vn 0.0000000 0.7071069 0.7071066
vn 0.0000000 0.7071069 0.7071066
vn 0.0000000 0.7071069 -0.7071066
vn 0.0000000 0.7071069 -0.7071066
vn 0.0000000 0.7071069 -0.7071066
vn 0.0000000 0.7071069 -0.7071066
vn 0.0000000 0.7071069 -0.7071066
vn 0.0000000 0.7071069 -0.7071066
vn 0.0000000 0.7071069 -0.7071066
vn 0.0000000 0.7071069 -0.7071066
vn 0.0000000 0.7071069 -0.7071066
vn -0.7071068 0.0000000 0.7071067
vn -0.7071068 0.0000000 0.7071067
vn -0.7071068 0.0000000 0.7071067
vn -0.7071068 0.0000000 0.7071067
vn -0.7071068 0.0000000 0.7071067
vn -0.7071068 0.0000000 0.7071067
vn -0.7071068 0.0000000 0.7071067
vn -0.7071068 0.0000000 0.7071067
vn -0.7071068 0.0000000 0.7071067
vn -0.7071068 0.0000000 -0.7071067
vn -0.7071068 0.0000000 -0.7071067
vn -0.7071068 0.0000000 -0.7071067
vn -0.7071068 0.0000000 -0.7071067
vn -0.7071068 0.0000000 -0.7071067
vn -0.7071068 0.0000000 -0.7071067
vn -0.7071068 0.0000000 -0.7071067
vn -0.7071068 0.0000000 -0.7071067
vn -0.7071068 0.0000000 -0.7071067
vn 0.0000000 0.0000000 1.0000000
vn 0.0000000 0.0000000 1.0000000
vn 0.0000000 0.0000000 1.0000000
vn 0.0000000 0.0000000 1.0000000
vn 0.0000000 0.0000000 1.0000000
vn 0.0000000 0.0000000 1.0000000
vn -1.0000000 0.0000000 0.0000000
vn -1.0000000 0.0000000 0.0000000
vn -1.0000000 0.0000000 0.0000000
vn -1.0000000 0.0000000 0.0000000
vn -1.0000000 0.0000000 0.0000000
vn -1.0000000 0.0000000 0.0000000
vn -1.0000000 0.0000000 0.0000000
vn -1.0000000 0.0000000 0.0000000
vn -1.0000000 0.0000000 0.0000000
vn 0.0000000 0.0000000 -1.0000000
vn 0.0000000 0.0000000 -1.0000000
vn 0.0000000 0.0000000 -1.0000000
vn 0.0000000 0.0000000 -1.0000000
vn 0.0000000 0.0000000 -1.0000000
vn 0.0000000 0.0000000 -1.0000000
vn 0.0000000 1.0000000 0.0000000
vn 0.0000000 1.0000000 0.0000000
vn 0.0000000 1.0000000 0.0000000
vn 0.0000000 1.0000000 0.0000000
vn 0.0000000 1.0000000 0.0000000
vn 0.0000000 1.0000000 0.0000000
vn 0.0000000 1.0000000 0.0000000
vn 0.0000000 1.0000000 0.0000000
vn 0.0000000 1.0000000 0.0000000
vn -0.5773500 0.5773500 0.5773507
vn -0.5773500 0.5773500 0.5773507
vn -0.5773500 0.5773500 0.5773507
vn -0.5773500 0.5773500 -0.5773507
vn -0.5773500 0.5773500 -0.5773507
vn -0.5773500 0.5773500 -0.5773507
vn 0.0000000 0.7071069 0.7071067
vn 0.0000000 0.7071069 0.7071067
vn 0.0000000 0.7071069 0.7071067
vn 0.0000000 0.7071069 0.7071067
vn 0.0000000 0.7071069 0.7071067
vn 0.0000000 0.7071069 0.7071067
vn 0.0000000 0.7071069 0.7071067
vn 0.0000000 0.7071069 0.7071067
vn 0.0000000 0.7071069 0.7071067
vn 0.0000000 0.7071069 -0.7071067
vn 0.0000000 0.7071069 -0.7071067
vn 0.0000000 0.7071069 -0.7071067
vn 0.0000000 0.7071069 -0.7071067
vn 0.0000000 0.7071069 -0.7071067
vn 0.0000000 0.7071069 -0.7071067
vn 0.0000000 0.7071069 -0.7071067
vn 0.0000000 0.7071069 -0.7071067
vn 0.0000000 0.7071069 -0.7071067
vn -0.7071068 0.0000000 0.7071068
vn -0.7071068 0.0000000 0.7071068
vn -0.7071068 0.0000000 0.7071068
vn -0.7071068 0.0000000 0.7071068
vn -0.7071068 0.0000000 0.7071068
vn -0.7071068 0.0000000 0.7071068
vn -0.7071068 0.0000000 0.7071068
vn -0.7071068 0.0000000 0.7071068
vn -0.7071068 0.0000000 0.7071068
vn -0.7071068 0.0000000 -0.7071068
vn -0.7071068 0.0000000 -0.7071068
vn -0.7071068 0.0000000 -0.7071068
vn -0.7071068 0.0000000 -0.7071068
vn -0.7071068 0.0000000 -0.7071068
vn -0.7071068 0.0000000 -0.7071068
vn -0.7071068 0.0000000 -0.7071068
vn -0.7071068 0.0000000 -0.7071068
vn -0.7071068 0.0000000 -0.7071068
vn 0.0000000 0.0000000 1.0000000
vn 0.0000000 0.0000000 1.0000000
vn 0.0000000 0.0000000 1.0000000
vn 0.0000000 0.0000000 1.0000000
vn 0.0000000 0.0000000 1.0000000
vn 0.0000000 0.0000000 1.0000000
vn 0.0000000 0.0000000 -1.0000000
vn 0.0000000 0.0000000 -1.0000000
vn 0.0000000 0.0000000 -1.0000000
vn 0.0000000 0.0000000 -1.0000000
vn 0.0000000 0.0000000 -1.0000000
vn 0.0000000 0.0000000 -1.0000000
f 1/1/1 2/2/2 3/3/3
f 4/4/4 5/5/5 6/6/6
f 7/7/7 8/8/8 9/9/9
f 10/10/10 11/11/11 12/12/12
f 13/13/13 14/14/14 15/15/15
f 16/16/16 17/17/17 18/18/18
f 19/19/19 20/20/20 21/21/21
f 22/22/22 23/23/23 24/24/24
f 25/25/25 26/26/26 27/27/27
f 28/28/28 29/29/29 30/30/30
f 31/31/31 32/32/32 33/33/33
f 34/34/34 35/35/35 36/36/36
f 37/37/37 38/38/38 39/39/39
f 40/40/40 41/41/41 42/42/42
f 43/43/43 44/44/44 45/45/45
f 46/46/46 47/47/47 48/48/48
f 49/49/49 50/50/50 51/51/51
f 52/52/52 53/53/53 54/54/54
f 55/55/55 56/56/56 57/57/57
f 58/58/58 59/59/59 60/60/60
f 61/61/61 62/62/62 63/63/63
f 64/64/64 65/65/65 66/66/66
f 67/67/67 68/68/68 69/69/69
f 70/70/70 71/71/71 72/72/72
f 73/73/73 74/74/74 75/75/75
f 76/76/76 77/77/77 78/78/78
f 79/79/79 80/80/80 81/81/81
f 82/82/82 83/83/83 84/84/84
f 85/85/85 86/86/86 87/87/87
f 88/88/88 89/89/89 90/90/90
f 91/91/91 92/92/92 93/93/93
f 94/94/94 95/95/95 96/96/96
f 97/97/97 98/98/98 99/99/99
f 100/100/100 101/101/101 102/102/102
f 103/103/103 104/104/104 105/105/105
f 106/106/106 107/107/107 108/108/108
f 109/109/109 110/110/110 111/111/111
f 112/112/112 113/113/113 114/114/114
f 115/115/115 116/116/116 117/117/117
f 118/118/118 119/119/119 120/120/120
f 121/121/121 122/122/122 123/123/123
f 124/124/124 125/125/125 126/126/126
f 127/127/127 128/128/128 129/129/129
f 130/130/130 131/131/131 132/132/132
f 133/133/133 134/134/134 135/135/135
f 136/136/136 137/137/137 138/138/138
f 139/139/139 140/140/140 141/141/141
f 142/142/142 143/143/143 144/144/144
f 145/145/145 146/146/146 147/147/147
f 148/148/148 149/149/149 150/150/150
f 151/151/151 152/152/152 153/153/153
f 154/154/154 155/155/155 156/156/156
f 157/157/157 158/158/158 159/159/159
f 160/160/160 161/161/161 162/162/162
f 163/163/163 164/164/164 165/165/165
f 166/166/166 167/167/167 168/168/168
f 169/169/169 170/170/170 171/171/171
f 172/172/172 173/173/173 174/174/174
f 175/175/175 176/176/176 177/177/177
f 178/178/178 179/179/179 180/180/180
f 181/181/181 182/182/182 183/183/183
f 184/184/184 185/185/185 186/186/186
f 187/187/187 188/188/188 189/189/189
f 190/190/190 191/191/191 192/192/192
f 193/193/193 194/194/194 195/195/195
f 196/196/196 197/197/197 198/198/198
f 199/199/199 200/200/200 201/201/201
f 202/202/202 203/203/203 204/204/204
f 205/205/205 206/206/206 207/207/207
f 208/208/208 209/209/209 210/210/210
f 211/211/211 212/212/212 213/213/213
f 214/214/214 215/215/215 216/216/216
f 217/217/217 218/218/218 219/219/219
f 220/220/220 221/221/221 222/222/222
f 223/223/223 224/224/224 225/225/225
f 226/226/226 227/227/227 228/228/228
f 229/229/229 230/230/230 231/231/231
f 232/232/232 233/233/233 234/234/234
f 235/235/235 236/236/236 237/237/237
f 238/238/238 239/239/239 240/240/240
f 241/241/241 242/242/242 243/243/243
f 244/244/244 245/245/245 246/246/246
f 247/247/247 248/248/248 249/249/249
f 250/250/250 251/251/251 252/252/252
f 253/253/253 254/254/254 255/255/255
f 256/256/256 257/257/257 258/258/258
f 259/259/259 260/260/260 261/261/261
f 262/262/262 263/263/263 264/264/264
f 265/265/265 266/266/266 267/267/267
f 268/268/268 269/269/269 270/270/270
f 271/271/271 272/272/272 273/273/273
f 274/274/274 275/275/275 276/276/276
f 277/277/277 278/278/278 279/279/279
f 280/280/280 281/281/281 282/282/282
f 283/283/283 284/284/284 285/285/285
f 286/286/286 287/287/287 288/288/288
f 289/289/289 290/290/290 291/291/291
f 292/292/292 293/293/293 294/294/294
f 295/295/295 296/296/296 297/297/297
f 298/298/298 299/299/299 300/300/300
f 301/301/301 302/302/302 303/303/303
f 304/304/304 305/305/305 306/306/306
f 307/307/307 308/308/308 309/309/309
f 310/310/310 311/311/311 312/312/312
f 313/313/313 314/314/314 315/315/315
f 316/316/316 317/317/317 318/318/318
f 319/319/319 320/320/320 321/321/321
f 322/322/322 323/323/323 324/324/324
f 325/325/325 326/326/326 327/327/327
f 328/328/328 329/329/329 330/330/330
f 331/331/331 332/332/332 333/333/333
f 334/334/334 335/335/335 336/336/336
f 337/337/337 338/338/338 339/339/339
f 340/340/340 341/341/341 342/342/342
f 343/343/343 344/344/344 345/345/345
f 346/346/346 347/347/347 348/348/348
f 349/349/349 350/350/350 351/351/351
f 352/352/352 353/353/353 354/354/354
f 355/355/355 356/356/356 357/357/357
f 358/358/358 359/359/359 360/360/360
f 361/361/361 362/362/362 363/363/363
f 364/364/364 365/365/365 366/366/366
