# metre = block; Y up; per-cell coordinates; atlas UVs preserved
mtllib materials.mtl
o cell_82
usemtl pump_atlas
v 0.2412547 0.0000000 0.4259778
v 0.2412547 0.0195000 0.4259778
v 0.2509999 0.0195000 0.5000000
v 0.2412547 0.0000000 0.4259778
v 0.2509999 0.0195000 0.5000000
v 0.2507770 0.0000000 0.4983068
v 0.2507770 0.0000000 0.4983068
v 0.2509999 0.0195000 0.5000000
v 0.2509999 0.0000000 0.5000000
v 0.2126832 0.0000000 0.3570000
v 0.2126832 0.0195000 0.3570000
v 0.2412547 0.0195000 0.4259778
v 0.2126832 0.0000000 0.3570000
v 0.2412547 0.0195000 0.4259778
v 0.2406012 0.0000000 0.4244000
v 0.2406012 0.0000000 0.4244000
v 0.2412547 0.0195000 0.4259778
v 0.2412547 0.0000000 0.4259778
v 0.1672325 0.0000000 0.2977675
v 0.1672325 0.0195000 0.2977675
v 0.2126832 0.0195000 0.3570000
v 0.1672325 0.0000000 0.2977675
v 0.2126832 0.0195000 0.3570000
v 0.2116436 0.0000000 0.3556451
v 0.2116436 0.0000000 0.3556451
v 0.2126832 0.0195000 0.3570000
v 0.2126832 0.0000000 0.3570000
v 0.1079999 0.0000000 0.2523167
v 0.1079999 0.0195000 0.2523167
v 0.1672325 0.0195000 0.2977675
v 0.1079999 0.0000000 0.2523167
v 0.1672325 0.0195000 0.2977675
v 0.1658776 0.0000000 0.2967279
v 0.1658776 0.0000000 0.2967279
v 0.1672325 0.0195000 0.2977675
v 0.1672325 0.0000000 0.2977675
v 0.0390222 0.0000000 0.2237452
v 0.0390222 0.0195000 0.2237452
v 0.1079999 0.0195000 0.2523167
v 0.0390222 0.0000000 0.2237452
v 0.1079999 0.0195000 0.2523167
v 0.1064221 0.0000000 0.2516632
v 0.1064221 0.0000000 0.2516632
v 0.1079999 0.0195000 0.2523167
v 0.1079999 0.0000000 0.2523167
v 0.0000000 0.0195000 0.2186078
v 0.0390222 0.0195000 0.2237452
v 0.0373290 0.0000000 0.2235223
v 0.0000000 0.0195000 0.2186078
v 0.0373290 0.0000000 0.2235223
v 0.0000000 0.0000000 0.2186078
v 0.0373290 0.0000000 0.2235223
v 0.0390222 0.0195000 0.2237452
v 0.0390222 0.0000000 0.2237452
v 0.0390222 0.0000000 0.7762548
v 0.0390222 0.0195000 0.7762548
v 0.0373290 0.0000000 0.7764777
v 0.0373290 0.0000000 0.7764777
v 0.0390222 0.0195000 0.7762548
v 0.0000000 0.0195000 0.7813922
v 0.0373290 0.0000000 0.7764777
v 0.0000000 0.0195000 0.7813922
v 0.0000000 0.0000000 0.7813922
v 0.1079999 0.0000000 0.7476833
v 0.1079999 0.0195000 0.7476833
v 0.1064221 0.0000000 0.7483368
v 0.1064221 0.0000000 0.7483368
v 0.1079999 0.0195000 0.7476833
v 0.0390222 0.0195000 0.7762548
v 0.1064221 0.0000000 0.7483368
v 0.0390222 0.0195000 0.7762548
v 0.0390222 0.0000000 0.7762548
v 0.1672325 0.0000000 0.7022325
v 0.1672325 0.0195000 0.7022325
v 0.1658776 0.0000000 0.7032721
v 0.1658776 0.0000000 0.7032721
v 0.1672325 0.0195000 0.7022325
v 0.1079999 0.0195000 0.7476833
v 0.1658776 0.0000000 0.7032721
v 0.1079999 0.0195000 0.7476833
v 0.1079999 0.0000000 0.7476833
v 0.2126832 0.0000000 0.6430000
v 0.2126832 0.0195000 0.6430000
v 0.2116436 0.0000000 0.6443549
v 0.2116436 0.0000000 0.6443549
v 0.2126832 0.0195000 0.6430000
v 0.1672325 0.0195000 0.7022325
v 0.2116436 0.0000000 0.6443549
v 0.1672325 0.0195000 0.7022325
v 0.1672325 0.0000000 0.7022325
v 0.2412547 0.0000000 0.5740222
v 0.2412547 0.0195000 0.5740222
v 0.2406012 0.0000000 0.5756000
v 0.2406012 0.0000000 0.5756000
v 0.2412547 0.0195000 0.5740222
v 0.2126832 0.0195000 0.6430000
v 0.2406012 0.0000000 0.5756000
v 0.2126832 0.0195000 0.6430000
v 0.2126832 0.0000000 0.6430000
v 0.2509999 0.0000000 0.5000000
v 0.2509999 0.0195000 0.5000000
v 0.2507770 0.0000000 0.5016932
v 0.2507770 0.0000000 0.5016932
v 0.2509999 0.0195000 0.5000000
v 0.2412547 0.0195000 0.5740222
v 0.2507770 0.0000000 0.5016932
v 0.2412547 0.0195000 0.5740222
v 0.2412547 0.0000000 0.5740222
v 0.2136292 0.0195000 0.4333800
v 0.2224000 0.0195000 0.5000000
v 0.2509999 0.0195000 0.5000000
v 0.2136292 0.0195000 0.4333800
v 0.2509999 0.0195000 0.5000000
v 0.2412547 0.0195000 0.4259778
v 0.1879148 0.0195000 0.3713000
v 0.2136292 0.0195000 0.4333800
v 0.2412547 0.0195000 0.4259778
v 0.1879148 0.0195000 0.3713000
v 0.2412547 0.0195000 0.4259778
v 0.2126832 0.0195000 0.3570000
v 0.1470093 0.0195000 0.3179907
v 0.1879148 0.0195000 0.3713000
v 0.2126832 0.0195000 0.3570000
v 0.1470093 0.0195000 0.3179907
v 0.2126832 0.0195000 0.3570000
v 0.1672325 0.0195000 0.2977675
v 0.0936999 0.0195000 0.2770851
v 0.1470093 0.0195000 0.3179907
v 0.1672325 0.0195000 0.2977675
v 0.0936999 0.0195000 0.2770851
v 0.1672325 0.0195000 0.2977675
v 0.1079999 0.0195000 0.2523167
v 0.0316200 0.0195000 0.2513707
v 0.0936999 0.0195000 0.2770851
v 0.1079999 0.0195000 0.2523167
v 0.0316200 0.0195000 0.2513707
v 0.1079999 0.0195000 0.2523167
v 0.0390222 0.0195000 0.2237452
v 0.0000000 0.0195000 0.2472078
v 0.0316200 0.0195000 0.2513707
v 0.0390222 0.0195000 0.2237452
v 0.0000000 0.0195000 0.2472078
v 0.0390222 0.0195000 0.2237452
v 0.0000000 0.0195000 0.2336849
v 0.0000000 0.0195000 0.2336849
v 0.0390222 0.0195000 0.2237452
v 0.0000000 0.0195000 0.2186078
v 0.0000000 0.0195000 0.7813922
v 0.0390222 0.0195000 0.7762548
v 0.0316200 0.0195000 0.7486293
v 0.0000000 0.0195000 0.7813922
v 0.0316200 0.0195000 0.7486293
v 0.0000000 0.0195000 0.7663666
v 0.0000000 0.0195000 0.7663666
v 0.0316200 0.0195000 0.7486293
v 0.0000000 0.0195000 0.7527922
v 0.0316200 0.0195000 0.7486293
v 0.0390222 0.0195000 0.7762548
v 0.1079999 0.0195000 0.7476833
v 0.0316200 0.0195000 0.7486293
v 0.1079999 0.0195000 0.7476833
v 0.0936999 0.0195000 0.7229149
v 0.0936999 0.0195000 0.7229149
v 0.1079999 0.0195000 0.7476833
v 0.1672325 0.0195000 0.7022325
v 0.0936999 0.0195000 0.7229149
v 0.1672325 0.0195000 0.7022325
v 0.1470093 0.0195000 0.6820093
v 0.1470093 0.0195000 0.6820093
v 0.1672325 0.0195000 0.7022325
v 0.2126832 0.0195000 0.6430000
v 0.1470093 0.0195000 0.6820093
v 0.2126832 0.0195000 0.6430000
v 0.1879148 0.0195000 0.6287000
v 0.1879148 0.0195000 0.6287000
v 0.2126832 0.0195000 0.6430000
v 0.2412547 0.0195000 0.5740222
v 0.1879148 0.0195000 0.6287000
v 0.2412547 0.0195000 0.5740222
v 0.2136292 0.0195000 0.5666200
v 0.2136292 0.0195000 0.5666200
v 0.2412547 0.0195000 0.5740222
v 0.2509999 0.0195000 0.5000000
v 0.2136292 0.0195000 0.5666200
v 0.2509999 0.0195000 0.5000000
v 0.2224000 0.0195000 0.5000000
v 0.2224000 0.0000000 0.5000000
v 0.2224000 0.0195000 0.5000000
v 0.2221994 0.0000000 0.4984761
v 0.2221994 0.0000000 0.4984761
v 0.2224000 0.0195000 0.5000000
v 0.2136292 0.0195000 0.4333800
v 0.2221994 0.0000000 0.4984761
v 0.2136292 0.0195000 0.4333800
v 0.2136292 0.0000000 0.4333800
v 0.2136292 0.0000000 0.4333800
v 0.2136292 0.0195000 0.4333800
v 0.2130410 0.0000000 0.4319600
v 0.2130410 0.0000000 0.4319600
v 0.2136292 0.0195000 0.4333800
v 0.1879148 0.0195000 0.3713000
v 0.2130410 0.0000000 0.4319600
v 0.1879148 0.0195000 0.3713000
v 0.1879148 0.0000000 0.3713000
v 0.1879148 0.0000000 0.3713000
v 0.1879148 0.0195000 0.3713000
v 0.1869791 0.0000000 0.3700806
v 0.1869791 0.0000000 0.3700806
v 0.1879148 0.0195000 0.3713000
v 0.1470093 0.0195000 0.3179907
v 0.1869791 0.0000000 0.3700806
v 0.1470093 0.0195000 0.3179907
v 0.1470093 0.0000000 0.3179907
v 0.1470093 0.0000000 0.3179907
v 0.1470093 0.0195000 0.3179907
v 0.1457899 0.0000000 0.3170550
v 0.1457899 0.0000000 0.3170550
v 0.1470093 0.0195000 0.3179907
v 0.0936999 0.0195000 0.2770851
v 0.1457899 0.0000000 0.3170550
v 0.0936999 0.0195000 0.2770851
v 0.0936999 0.0000000 0.2770851
v 0.0936999 0.0000000 0.2770851
v 0.0936999 0.0195000 0.2770851
v 0.0922799 0.0000000 0.2764969
v 0.0922799 0.0000000 0.2764969
v 0.0936999 0.0195000 0.2770851
v 0.0316200 0.0195000 0.2513707
v 0.0922799 0.0000000 0.2764969
v 0.0316200 0.0195000 0.2513707
v 0.0316200 0.0000000 0.2513707
v 0.0316200 0.0000000 0.2513707
v 0.0316200 0.0195000 0.2513707
v 0.0300961 0.0000000 0.2511701
v 0.0300961 0.0000000 0.2511701
v 0.0316200 0.0195000 0.2513707
v 0.0000000 0.0195000 0.2472078
v 0.0300961 0.0000000 0.2511701
v 0.0000000 0.0195000 0.2472078
v 0.0000000 0.0000000 0.2472078
v 0.0000000 0.0195000 0.7527922
v 0.0316200 0.0195000 0.7486293
v 0.0300961 0.0000000 0.7488299
v 0.0000000 0.0195000 0.7527922
v 0.0300961 0.0000000 0.7488299
v 0.0000000 0.0000000 0.7527922
v 0.0300961 0.0000000 0.7488299
v 0.0316200 0.0195000 0.7486293
v 0.0316200 0.0000000 0.7486293
v 0.0316200 0.0000000 0.7486293
v 0.0316200 0.0195000 0.7486293
v 0.0936999 0.0195000 0.7229149
v 0.0316200 0.0000000 0.7486293
v 0.0936999 0.0195000 0.7229149
v 0.0922799 0.0000000 0.7235031
v 0.0922799 0.0000000 0.7235031
v 0.0936999 0.0195000 0.7229149
v 0.0936999 0.0000000 0.7229149
v 0.0936999 0.0000000 0.7229149
v 0.0936999 0.0195000 0.7229149
v 0.1470093 0.0195000 0.6820093
v 0.0936999 0.0000000 0.7229149
v 0.1470093 0.0195000 0.6820093
v 0.1457899 0.0000000 0.6829450
v 0.1457899 0.0000000 0.6829450
v 0.1470093 0.0195000 0.6820093
v 0.1470093 0.0000000 0.6820093
v 0.1470093 0.0000000 0.6820093
v 0.1470093 0.0195000 0.6820093
v 0.1879148 0.0195000 0.6287000
v 0.1470093 0.0000000 0.6820093
v 0.1879148 0.0195000 0.6287000
v 0.1869791 0.0000000 0.6299194
v 0.1869791 0.0000000 0.6299194
v 0.1879148 0.0195000 0.6287000
v 0.1879148 0.0000000 0.6287000
v 0.1879148 0.0000000 0.6287000
v 0.1879148 0.0195000 0.6287000
v 0.2136292 0.0195000 0.5666200
v 0.1879148 0.0000000 0.6287000
v 0.2136292 0.0195000 0.5666200
v 0.2130410 0.0000000 0.5680400
v 0.2130410 0.0000000 0.5680400
v 0.2136292 0.0195000 0.5666200
v 0.2136292 0.0000000 0.5666200
v 0.2136292 0.0000000 0.5666200
v 0.2136292 0.0195000 0.5666200
v 0.2224000 0.0195000 0.5000000
v 0.2136292 0.0000000 0.5666200
v 0.2224000 0.0195000 0.5000000
v 0.2221994 0.0000000 0.5015239
v 0.2221994 0.0000000 0.5015239
v 0.2224000 0.0195000 0.5000000
v 0.2224000 0.0000000 0.5000000
v 0.3296562 0.0000000 0.4022906
v 0.3296562 0.0799999 0.4022906
v 0.3425199 0.0799999 0.5000000
v 0.3296562 0.0000000 0.4022906
v 0.3425199 0.0799999 0.5000000
v 0.3300460 0.0000000 0.4052516
v 0.3300460 0.0000000 0.4052516
v 0.3425199 0.0799999 0.5000000
v 0.3425199 0.0000000 0.5000000
v 0.2919418 0.0000000 0.3112400
v 0.2919418 0.0799999 0.3112400
v 0.3296562 0.0799999 0.4022906
v 0.2919418 0.0000000 0.3112400
v 0.3296562 0.0799999 0.4022906
v 0.2930847 0.0000000 0.3139992
v 0.2930847 0.0000000 0.3139992
v 0.3296562 0.0799999 0.4022906
v 0.3296562 0.0000000 0.4022906
v 0.2319468 0.0000000 0.2330531
v 0.2319468 0.0799999 0.2330531
v 0.2919418 0.0799999 0.3112400
v 0.2319468 0.0000000 0.2330531
v 0.2919418 0.0799999 0.3112400
v 0.2337649 0.0000000 0.2354225
v 0.2337649 0.0000000 0.2354225
v 0.2919418 0.0799999 0.3112400
v 0.2919418 0.0000000 0.3112400
v 0.1537600 0.0000000 0.1730581
v 0.1537600 0.0799999 0.1730581
v 0.2319468 0.0799999 0.2330531
v 0.1537600 0.0000000 0.1730581
v 0.2319468 0.0799999 0.2330531
v 0.1561294 0.0000000 0.1748762
v 0.1561294 0.0000000 0.1748762
v 0.2319468 0.0799999 0.2330531
v 0.2319468 0.0000000 0.2330531
v 0.0627092 0.0000000 0.1353437
v 0.0627092 0.0799999 0.1353437
v 0.1537600 0.0799999 0.1730581
v 0.0627092 0.0000000 0.1353437
v 0.1537600 0.0799999 0.1730581
v 0.0654684 0.0000000 0.1364866
v 0.0654684 0.0000000 0.1364866
v 0.1537600 0.0799999 0.1730581
v 0.1537600 0.0000000 0.1730581
v 0.0000000 0.0799999 0.1270879
v 0.0627092 0.0799999 0.1353437
v 0.0000000 0.0270519 0.1270879
v 0.0000000 0.0270519 0.1270879
v 0.0627092 0.0799999 0.1353437
v 0.0627092 0.0000000 0.1353437
v 0.0000000 0.0270519 0.1270879
v 0.0627092 0.0000000 0.1353437
v 0.0000000 0.0000000 0.1270879
v 0.0627092 0.0000000 0.8646563
v 0.0627092 0.0799999 0.8646563
v 0.0000000 0.0270519 0.8729121
v 0.0627092 0.0000000 0.8646563
v 0.0000000 0.0270519 0.8729121
v 0.0000000 0.0000000 0.8729121
v 0.0000000 0.0270519 0.8729121
v 0.0627092 0.0799999 0.8646563
v 0.0000000 0.0799999 0.8729121
v 0.1537600 0.0000000 0.8269419
v 0.1537600 0.0799999 0.8269419
v 0.0654684 0.0000000 0.8635134
v 0.0654684 0.0000000 0.8635134
v 0.1537600 0.0799999 0.8269419
v 0.0627092 0.0799999 0.8646563
v 0.0654684 0.0000000 0.8635134
v 0.0627092 0.0799999 0.8646563
v 0.0627092 0.0000000 0.8646563
v 0.2319468 0.0000000 0.7669469
v 0.2319468 0.0799999 0.7669469
v 0.1561294 0.0000000 0.8251238
v 0.1561294 0.0000000 0.8251238
v 0.2319468 0.0799999 0.7669469
v 0.1537600 0.0799999 0.8269419
v 0.1561294 0.0000000 0.8251238
v 0.1537600 0.0799999 0.8269419
v 0.1537600 0.0000000 0.8269419
v 0.2919418 0.0000000 0.6887600
v 0.2919418 0.0799999 0.6887600
v 0.2337649 0.0000000 0.7645775
v 0.2337649 0.0000000 0.7645775
v 0.2919418 0.0799999 0.6887600
v 0.2319468 0.0799999 0.7669469
v 0.2337649 0.0000000 0.7645775
v 0.2319468 0.0799999 0.7669469
v 0.2319468 0.0000000 0.7669469
v 0.3296562 0.0000000 0.5977094
v 0.3296562 0.0799999 0.5977094
v 0.2930847 0.0000000 0.6860008
v 0.2930847 0.0000000 0.6860008
v 0.3296562 0.0799999 0.5977094
v 0.2919418 0.0799999 0.6887600
v 0.2930847 0.0000000 0.6860008
v 0.2919418 0.0799999 0.6887600
v 0.2919418 0.0000000 0.6887600
v 0.3425199 0.0000000 0.5000000
v 0.3425199 0.0799999 0.5000000
v 0.3300460 0.0000000 0.5947484
v 0.3300460 0.0000000 0.5947484
v 0.3425199 0.0799999 0.5000000
v 0.3296562 0.0799999 0.5977094
v 0.3300460 0.0000000 0.5947484
v 0.3296562 0.0799999 0.5977094
v 0.3296562 0.0000000 0.5977094
v 0.2056731 0.0799999 0.4355118
v 0.2141631 0.0799999 0.5000000
v 0.3425199 0.0799999 0.5000000
v 0.2056731 0.0799999 0.4355118
v 0.3425199 0.0799999 0.5000000
v 0.3296562 0.0799999 0.4022906
v 0.1807816 0.0799999 0.3754184
v 0.2056731 0.0799999 0.4355118
v 0.3296562 0.0799999 0.4022906
v 0.1807816 0.0799999 0.3754184
v 0.3296562 0.0799999 0.4022906
v 0.2919418 0.0799999 0.3112400
v 0.1411849 0.0799999 0.3238150
v 0.1807816 0.0799999 0.3754184
v 0.2919418 0.0799999 0.3112400
v 0.1411849 0.0799999 0.3238150
v 0.2919418 0.0799999 0.3112400
v 0.2319468 0.0799999 0.2330531
v 0.0895815 0.0799999 0.2842183
v 0.1411849 0.0799999 0.3238150
v 0.2319468 0.0799999 0.2330531
v 0.0895815 0.0799999 0.2842183
v 0.2319468 0.0799999 0.2330531
v 0.1537600 0.0799999 0.1730581
v 0.0294881 0.0799999 0.2593268
v 0.0895815 0.0799999 0.2842183
v 0.1537600 0.0799999 0.1730581
v 0.0294881 0.0799999 0.2593268
v 0.1537600 0.0799999 0.1730581
v 0.0627092 0.0799999 0.1353437
v 0.0000000 0.0799999 0.2554446
v 0.0294881 0.0799999 0.2593268
v 0.0627092 0.0799999 0.1353437
v 0.0000000 0.0799999 0.2554446
v 0.0627092 0.0799999 0.1353437
v 0.0000000 0.0799999 0.2094664
v 0.0000000 0.0799999 0.2094664
v 0.0627092 0.0799999 0.1353437
v 0.0000000 0.0799999 0.1270879
v 0.0000000 0.0799999 0.8729121
v 0.0627092 0.0799999 0.8646563
v 0.0294881 0.0799999 0.7406732
v 0.0000000 0.0799999 0.8729121
v 0.0294881 0.0799999 0.7406732
v 0.0000000 0.0799999 0.8032482
v 0.0000000 0.0799999 0.8032482
v 0.0294881 0.0799999 0.7406732
v 0.0000000 0.0799999 0.7445554
v 0.0294881 0.0799999 0.7406732
v 0.0627092 0.0799999 0.8646563
v 0.1537600 0.0799999 0.8269419
v 0.0294881 0.0799999 0.7406732
v 0.1537600 0.0799999 0.8269419
v 0.0895815 0.0799999 0.7157817
v 0.0895815 0.0799999 0.7157817
v 0.1537600 0.0799999 0.8269419
v 0.2319468 0.0799999 0.7669469
v 0.0895815 0.0799999 0.7157817
v 0.2319468 0.0799999 0.7669469
v 0.1411849 0.0799999 0.6761850
v 0.1411849 0.0799999 0.6761850
v 0.2319468 0.0799999 0.7669469
v 0.2919418 0.0799999 0.6887600
v 0.1411849 0.0799999 0.6761850
v 0.2919418 0.0799999 0.6887600
v 0.1807816 0.0799999 0.6245816
v 0.1807816 0.0799999 0.6245816
v 0.2919418 0.0799999 0.6887600
v 0.3296562 0.0799999 0.5977094
v 0.1807816 0.0799999 0.6245816
v 0.3296562 0.0799999 0.5977094
v 0.2056731 0.0799999 0.5644882
v 0.2056731 0.0799999 0.5644882
v 0.3296562 0.0799999 0.5977094
v 0.3425199 0.0799999 0.5000000
v 0.2056731 0.0799999 0.5644882
v 0.3425199 0.0799999 0.5000000
v 0.2141631 0.0799999 0.5000000
v 0.2141631 0.0000000 0.5000000
v 0.2141631 0.0799999 0.5000000
v 0.2059304 0.0000000 0.4374661
v 0.2059304 0.0000000 0.4374661
v 0.2141631 0.0799999 0.5000000
v 0.2056731 0.0799999 0.4355118
v 0.2059304 0.0000000 0.4374661
v 0.2056731 0.0799999 0.4355118
v 0.2056731 0.0000000 0.4355118
v 0.2056731 0.0000000 0.4355118
v 0.2056731 0.0799999 0.4355118
v 0.1815359 0.0000000 0.3772395
v 0.1815359 0.0000000 0.3772395
v 0.2056731 0.0799999 0.4355118
v 0.1807816 0.0799999 0.3754184
v 0.1815359 0.0000000 0.3772395
v 0.1807816 0.0799999 0.3754184
v 0.1807816 0.0000000 0.3754184
v 0.1807816 0.0000000 0.3754184
v 0.1807816 0.0799999 0.3754184
v 0.1423848 0.0000000 0.3253788
v 0.1423848 0.0000000 0.3253788
v 0.1807816 0.0799999 0.3754184
v 0.1411849 0.0799999 0.3238150
v 0.1423848 0.0000000 0.3253788
v 0.1411849 0.0799999 0.3238150
v 0.1411849 0.0000000 0.3238150
v 0.1411849 0.0000000 0.3238150
v 0.1411849 0.0799999 0.3238150
v 0.0911453 0.0000000 0.2854182
v 0.0911453 0.0000000 0.2854182
v 0.1411849 0.0799999 0.3238150
v 0.0895815 0.0799999 0.2842183
v 0.0911453 0.0000000 0.2854182
v 0.0895815 0.0799999 0.2842183
v 0.0895815 0.0000000 0.2842183
v 0.0895815 0.0000000 0.2842183
v 0.0895815 0.0799999 0.2842183
v 0.0313092 0.0000000 0.2600811
v 0.0313092 0.0000000 0.2600811
v 0.0895815 0.0799999 0.2842183
v 0.0294881 0.0799999 0.2593268
v 0.0313092 0.0000000 0.2600811
v 0.0294881 0.0799999 0.2593268
v 0.0294881 0.0000000 0.2593268
v 0.0294881 0.0000000 0.2593268
v 0.0294881 0.0799999 0.2593268
v 0.0000000 0.0422757 0.2554446
v 0.0294881 0.0000000 0.2593268
v 0.0000000 0.0422757 0.2554446
v 0.0000000 0.0000000 0.2554446
v 0.0000000 0.0422757 0.2554446
v 0.0294881 0.0799999 0.2593268
v 0.0000000 0.0799999 0.2554446
v 0.0000000 0.0799999 0.7445554
v 0.0294881 0.0799999 0.7406732
v 0.0000000 0.0422757 0.7445554
v 0.0000000 0.0422757 0.7445554
v 0.0294881 0.0799999 0.7406732
v 0.0294881 0.0000000 0.7406732
v 0.0000000 0.0422757 0.7445554
v 0.0294881 0.0000000 0.7406732
v 0.0000000 0.0000000 0.7445554
v 0.0294881 0.0000000 0.7406732
v 0.0294881 0.0799999 0.7406732
v 0.0895815 0.0799999 0.7157817
v 0.0294881 0.0000000 0.7406732
v 0.0895815 0.0799999 0.7157817
v 0.0313092 0.0000000 0.7399189
v 0.0313092 0.0000000 0.7399189
v 0.0895815 0.0799999 0.7157817
v 0.0895815 0.0000000 0.7157817
v 0.0895815 0.0000000 0.7157817
v 0.0895815 0.0799999 0.7157817
v 0.1411849 0.0799999 0.6761850
v 0.0895815 0.0000000 0.7157817
v 0.1411849 0.0799999 0.6761850
v 0.0911453 0.0000000 0.7145818
v 0.0911453 0.0000000 0.7145818
v 0.1411849 0.0799999 0.6761850
v 0.1411849 0.0000000 0.6761850
v 0.1411849 0.0000000 0.6761850
v 0.1411849 0.0799999 0.6761850
v 0.1807816 0.0799999 0.6245816
v 0.1411849 0.0000000 0.6761850
v 0.1807816 0.0799999 0.6245816
v 0.1423848 0.0000000 0.6746212
v 0.1423848 0.0000000 0.6746212
v 0.1807816 0.0799999 0.6245816
v 0.1807816 0.0000000 0.6245816
v 0.1807816 0.0000000 0.6245816
v 0.1807816 0.0799999 0.6245816
v 0.2056731 0.0799999 0.5644882
v 0.1807816 0.0000000 0.6245816
v 0.2056731 0.0799999 0.5644882
v 0.1815359 0.0000000 0.6227605
v 0.1815359 0.0000000 0.6227605
v 0.2056731 0.0799999 0.5644882
v 0.2056731 0.0000000 0.5644882
v 0.2056731 0.0000000 0.5644882
v 0.2056731 0.0799999 0.5644882
v 0.2141631 0.0799999 0.5000000
v 0.2056731 0.0000000 0.5644882
v 0.2141631 0.0799999 0.5000000
v 0.2059304 0.0000000 0.5625339
v 0.2059304 0.0000000 0.5625339
v 0.2141631 0.0799999 0.5000000
v 0.2141631 0.0000000 0.5000000
v 0.2473086 0.0799999 0.4017206
v 0.2473086 0.1026511 0.4017206
v 0.2331516 0.1026511 0.3772000
v 0.2473086 0.0799999 0.4017206
v 0.2331516 0.1026511 0.3772000
v 0.2331516 0.0799999 0.3772000
v 0.2756226 0.0799999 0.4017206
v 0.2756226 0.1026511 0.4017206
v 0.2473086 0.1026511 0.4017206
v 0.2756226 0.0799999 0.4017206
v 0.2473086 0.1026511 0.4017206
v 0.2473086 0.0799999 0.4017206
v 0.2897795 0.0799999 0.3771999
v 0.2897795 0.1026511 0.3771999
v 0.2756226 0.1026511 0.4017206
v 0.2897795 0.0799999 0.3771999
v 0.2756226 0.1026511 0.4017206
v 0.2756226 0.0799999 0.4017206
v 0.2897795 0.0799999 0.3771999
v 0.2756225 0.0799999 0.3526793
v 0.2756225 0.1026511 0.3526793
v 0.2897795 0.0799999 0.3771999
v 0.2756225 0.1026511 0.3526793
v 0.2897795 0.1026511 0.3771999
v 0.2756225 0.0799999 0.3526793
v 0.2473085 0.0799999 0.3526793
v 0.2473085 0.1026511 0.3526793
v 0.2756225 0.0799999 0.3526793
v 0.2473085 0.1026511 0.3526793
v 0.2756225 0.1026511 0.3526793
v 0.2473085 0.0799999 0.3526793
v 0.2331516 0.0799999 0.3772000
v 0.2331516 0.1026511 0.3772000
v 0.2473085 0.0799999 0.3526793
v 0.2331516 0.1026511 0.3772000
v 0.2473085 0.1026511 0.3526793
v 0.2897795 0.0799999 0.3771999
v 0.2756226 0.0799999 0.4017206
v 0.2473086 0.0799999 0.4017206
v 0.2897795 0.0799999 0.3771999
v 0.2473086 0.0799999 0.4017206
v 0.2331516 0.0799999 0.3772000
v 0.2897795 0.0799999 0.3771999
v 0.2331516 0.0799999 0.3772000
v 0.2473085 0.0799999 0.3526793
v 0.2897795 0.0799999 0.3771999
v 0.2473085 0.0799999 0.3526793
v 0.2756225 0.0799999 0.3526793
v 0.2897795 0.1026511 0.3771999
v 0.2756225 0.1026511 0.3526793
v 0.2473085 0.1026511 0.3526793
v 0.2897795 0.1026511 0.3771999
v 0.2473085 0.1026511 0.3526793
v 0.2331516 0.1026511 0.3772000
v 0.2897795 0.1026511 0.3771999
v 0.2331516 0.1026511 0.3772000
v 0.2473086 0.1026511 0.4017206
v 0.2897795 0.1026511 0.3771999
v 0.2473086 0.1026511 0.4017206
v 0.2756226 0.1026511 0.4017206
v 0.0736431 0.0799999 0.2280551
v 0.0736431 0.1026511 0.2280551
v 0.0594860 0.1026511 0.2035344
v 0.0736431 0.0799999 0.2280551
v 0.0594860 0.1026511 0.2035344
v 0.0594860 0.0799999 0.2035344
v 0.1019571 0.0799999 0.2280551
v 0.1019571 0.1026511 0.2280551
v 0.0736431 0.1026511 0.2280551
v 0.1019571 0.0799999 0.2280551
v 0.0736431 0.1026511 0.2280551
v 0.0736431 0.0799999 0.2280551
v 0.1161140 0.0799999 0.2035344
v 0.1161140 0.1026511 0.2035344
v 0.1019571 0.1026511 0.2280551
v 0.1161140 0.0799999 0.2035344
v 0.1019571 0.1026511 0.2280551
v 0.1019571 0.0799999 0.2280551
v 0.1161140 0.0799999 0.2035344
v 0.1019570 0.0799999 0.1790138
v 0.1019570 0.1026511 0.1790138
v 0.1161140 0.0799999 0.2035344
v 0.1019570 0.1026511 0.1790138
v 0.1161140 0.1026511 0.2035344
v 0.1019570 0.0799999 0.1790138
v 0.0736430 0.0799999 0.1790138
v 0.0736430 0.1026511 0.1790138
v 0.1019570 0.0799999 0.1790138
v 0.0736430 0.1026511 0.1790138
v 0.1019570 0.1026511 0.1790138
v 0.0736430 0.0799999 0.1790138
v 0.0594860 0.0799999 0.2035344
v 0.0594860 0.1026511 0.2035344
v 0.0736430 0.0799999 0.1790138
v 0.0594860 0.1026511 0.2035344
v 0.0736430 0.1026511 0.1790138
v 0.1161140 0.0799999 0.2035344
v 0.1019571 0.0799999 0.2280551
v 0.0736431 0.0799999 0.2280551
v 0.1161140 0.0799999 0.2035344
v 0.0736431 0.0799999 0.2280551
v 0.0594860 0.0799999 0.2035344
v 0.1161140 0.0799999 0.2035344
v 0.0594860 0.0799999 0.2035344
v 0.0736430 0.0799999 0.1790138
v 0.1161140 0.0799999 0.2035344
v 0.0736430 0.0799999 0.1790138
v 0.1019570 0.0799999 0.1790138
v 0.1161140 0.1026511 0.2035344
v 0.1019570 0.1026511 0.1790138
v 0.0736430 0.1026511 0.1790138
v 0.1161140 0.1026511 0.2035344
v 0.0736430 0.1026511 0.1790138
v 0.0594860 0.1026511 0.2035344
v 0.1161140 0.1026511 0.2035344
v 0.0594860 0.1026511 0.2035344
v 0.0736431 0.1026511 0.2280551
v 0.1161140 0.1026511 0.2035344
v 0.0736431 0.1026511 0.2280551
v 0.1019571 0.1026511 0.2280551
v 0.0736431 0.0799999 0.8209862
v 0.0736431 0.1026511 0.8209862
v 0.0594860 0.1026511 0.7964656
v 0.0736431 0.0799999 0.8209862
v 0.0594860 0.1026511 0.7964656
v 0.0594860 0.0799999 0.7964656
v 0.1019571 0.0799999 0.8209862
v 0.1019571 0.1026511 0.8209862
v 0.0736431 0.1026511 0.8209862
v 0.1019571 0.0799999 0.8209862
v 0.0736431 0.1026511 0.8209862
v 0.0736431 0.0799999 0.8209862
v 0.1161140 0.0799999 0.7964656
v 0.1161140 0.1026511 0.7964656
v 0.1019571 0.1026511 0.8209862
v 0.1161140 0.0799999 0.7964656
v 0.1019571 0.1026511 0.8209862
v 0.1019571 0.0799999 0.8209862
v 0.1161140 0.0799999 0.7964656
v 0.1019570 0.0799999 0.7719449
v 0.1019570 0.1026511 0.7719449
v 0.1161140 0.0799999 0.7964656
v 0.1019570 0.1026511 0.7719449
v 0.1161140 0.1026511 0.7964656
v 0.1019570 0.0799999 0.7719449
v 0.0736430 0.0799999 0.7719449
v 0.0736430 0.1026511 0.7719449
v 0.1019570 0.0799999 0.7719449
v 0.0736430 0.1026511 0.7719449
v 0.1019570 0.1026511 0.7719449
v 0.0736430 0.0799999 0.7719449
v 0.0594860 0.0799999 0.7964656
v 0.0594860 0.1026511 0.7964656
v 0.0736430 0.0799999 0.7719449
v 0.0594860 0.1026511 0.7964656
v 0.0736430 0.1026511 0.7719449
v 0.1161140 0.0799999 0.7964656
v 0.1019571 0.0799999 0.8209862
v 0.0736431 0.0799999 0.8209862
v 0.1161140 0.0799999 0.7964656
v 0.0736431 0.0799999 0.8209862
v 0.0594860 0.0799999 0.7964656
v 0.1161140 0.0799999 0.7964656
v 0.0594860 0.0799999 0.7964656
v 0.0736430 0.0799999 0.7719449
v 0.1161140 0.0799999 0.7964656
v 0.0736430 0.0799999 0.7719449
v 0.1019570 0.0799999 0.7719449
v 0.1161140 0.1026511 0.7964656
v 0.1019570 0.1026511 0.7719449
v 0.0736430 0.1026511 0.7719449
v 0.1161140 0.1026511 0.7964656
v 0.0736430 0.1026511 0.7719449
v 0.0594860 0.1026511 0.7964656
v 0.1161140 0.1026511 0.7964656
v 0.0594860 0.1026511 0.7964656
v 0.0736431 0.1026511 0.8209862
v 0.1161140 0.1026511 0.7964656
v 0.0736431 0.1026511 0.8209862
v 0.1019571 0.1026511 0.8209862
v 0.2473086 0.0799999 0.6473207
v 0.2473086 0.1026511 0.6473207
v 0.2331516 0.1026511 0.6228001
v 0.2473086 0.0799999 0.6473207
v 0.2331516 0.1026511 0.6228001
v 0.2331516 0.0799999 0.6228001
v 0.2756226 0.0799999 0.6473207
v 0.2756226 0.1026511 0.6473207
v 0.2473086 0.1026511 0.6473207
v 0.2756226 0.0799999 0.6473207
v 0.2473086 0.1026511 0.6473207
v 0.2473086 0.0799999 0.6473207
v 0.2897795 0.0799999 0.6228000
v 0.2897795 0.1026511 0.6228000
v 0.2756226 0.1026511 0.6473207
v 0.2897795 0.0799999 0.6228000
v 0.2756226 0.1026511 0.6473207
v 0.2756226 0.0799999 0.6473207
v 0.2897795 0.0799999 0.6228000
v 0.2756225 0.0799999 0.5982794
v 0.2756225 0.1026511 0.5982794
v 0.2897795 0.0799999 0.6228000
v 0.2756225 0.1026511 0.5982794
v 0.2897795 0.1026511 0.6228000
v 0.2756225 0.0799999 0.5982794
v 0.2473085 0.0799999 0.5982794
v 0.2473085 0.1026511 0.5982794
v 0.2756225 0.0799999 0.5982794
v 0.2473085 0.1026511 0.5982794
v 0.2756225 0.1026511 0.5982794
v 0.2473085 0.0799999 0.5982794
v 0.2331516 0.0799999 0.6228001
v 0.2331516 0.1026511 0.6228001
v 0.2473085 0.0799999 0.5982794
v 0.2331516 0.1026511 0.6228001
v 0.2473085 0.1026511 0.5982794
v 0.2897795 0.0799999 0.6228000
v 0.2756226 0.0799999 0.6473207
v 0.2473086 0.0799999 0.6473207
v 0.2897795 0.0799999 0.6228000
v 0.2473086 0.0799999 0.6473207
v 0.2331516 0.0799999 0.6228001
v 0.2897795 0.0799999 0.6228000
v 0.2331516 0.0799999 0.6228001
v 0.2473085 0.0799999 0.5982794
v 0.2897795 0.0799999 0.6228000
v 0.2473085 0.0799999 0.5982794
v 0.2756225 0.0799999 0.5982794
v 0.2897795 0.1026511 0.6228000
v 0.2756225 0.1026511 0.5982794
v 0.2473085 0.1026511 0.5982794
v 0.2897795 0.1026511 0.6228000
v 0.2473085 0.1026511 0.5982794
v 0.2331516 0.1026511 0.6228001
v 0.2897795 0.1026511 0.6228000
v 0.2331516 0.1026511 0.6228001
v 0.2473086 0.1026511 0.6473207
v 0.2897795 0.1026511 0.6228000
v 0.2473086 0.1026511 0.6473207
v 0.2756226 0.1026511 0.6473207
vt 0.3276652 0.1184133
vt 0.3276652 0.1210938
vt 0.3125000 0.1210938
vt 0.3276652 0.1184133
vt 0.3125000 0.1210938
vt 0.3128469 0.1184133
vt 0.3128469 0.1184133
vt 0.3125000 0.1210938
vt 0.3125000 0.1184133
vt 0.3417969 0.1184133
vt 0.3417969 0.1210938
vt 0.3276652 0.1210938
vt 0.3417969 0.1184133
vt 0.3276652 0.1210938
vt 0.3279884 0.1184133
vt 0.3279884 0.1184133
vt 0.3276652 0.1210938
vt 0.3276652 0.1184133
vt 0.3539320 0.1184133
vt 0.3539320 0.1210938
vt 0.3417969 0.1210938
vt 0.3539320 0.1184133
vt 0.3417969 0.1210938
vt 0.3420745 0.1184133
vt 0.3420745 0.1184133
vt 0.3417969 0.1210938
vt 0.3417969 0.1184133
vt 0.3417969 0.1184133
vt 0.3417969 0.1210938
vt 0.3539321 0.1210938
vt 0.3417969 0.1184133
vt 0.3539321 0.1210938
vt 0.3536545 0.1184133
vt 0.3536545 0.1184133
vt 0.3539321 0.1210938
vt 0.3539321 0.1184133
vt 0.3276652 0.1184133
vt 0.3276652 0.1210938
vt 0.3417969 0.1210938
vt 0.3276652 0.1184133
vt 0.3417969 0.1210938
vt 0.3414737 0.1184133
vt 0.3414737 0.1184133
vt 0.3417969 0.1210938
vt 0.3417969 0.1184133
vt 0.3196706 0.1210938
vt 0.3276652 0.1210938
vt 0.3273183 0.1184133
vt 0.3196706 0.1210938
vt 0.3273183 0.1184133
vt 0.3196706 0.1184133
vt 0.3273183 0.1184133
vt 0.3276652 0.1210938
vt 0.3276652 0.1184133
vt 0.3276652 0.1184133
vt 0.3276652 0.1210938
vt 0.3273183 0.1184133
vt 0.3273183 0.1184133
vt 0.3276652 0.1210938
vt 0.3196706 0.1210938
vt 0.3273183 0.1184133
vt 0.3196706 0.1210938
vt 0.3196706 0.1184133
vt 0.3417969 0.1184133
vt 0.3417969 0.1210938
vt 0.3414737 0.1184133
vt 0.3414737 0.1184133
vt 0.3417969 0.1210938
vt 0.3276652 0.1210938
vt 0.3414737 0.1184133
vt 0.3276652 0.1210938
vt 0.3276652 0.1184133
vt 0.3539321 0.1184133
vt 0.3539321 0.1210938
vt 0.3536545 0.1184133
vt 0.3536545 0.1184133
vt 0.3539321 0.1210938
vt 0.3417969 0.1210938
vt 0.3536545 0.1184133
vt 0.3417969 0.1210938
vt 0.3417969 0.1184133
vt 0.2832031 0.1184133
vt 0.2832031 0.1210938
vt 0.2829255 0.1184133
vt 0.2829255 0.1184133
vt 0.2832031 0.1210938
vt 0.2710680 0.1210938
vt 0.2829255 0.1184133
vt 0.2710680 0.1210938
vt 0.2710680 0.1184133
vt 0.2973348 0.1184133
vt 0.2973348 0.1210938
vt 0.2970116 0.1184133
vt 0.2970116 0.1184133
vt 0.2973348 0.1210938
vt 0.2832031 0.1210938
vt 0.2970116 0.1184133
vt 0.2832031 0.1210938
vt 0.2832031 0.1184133
vt 0.3125000 0.1184133
vt 0.3125000 0.1210938
vt 0.3121531 0.1184133
vt 0.3121531 0.1184133
vt 0.3125000 0.1210938
vt 0.2973348 0.1210938
vt 0.3121531 0.1184133
vt 0.2973348 0.1210938
vt 0.2973348 0.1184133
vt 0.3634375 0.0761487
vt 0.3652344 0.0625000
vt 0.3710938 0.0625000
vt 0.3634375 0.0761487
vt 0.3710938 0.0625000
vt 0.3690972 0.0776652
vt 0.3581693 0.0888672
vt 0.3634375 0.0761487
vt 0.3690972 0.0776652
vt 0.3581693 0.0888672
vt 0.3690972 0.0776652
vt 0.3632437 0.0917969
vt 0.3497888 0.0997888
vt 0.3581693 0.0888672
vt 0.3632437 0.0917969
vt 0.3497888 0.0997888
vt 0.3632437 0.0917969
vt 0.3539321 0.1039320
vt 0.3388672 0.1081693
vt 0.3497888 0.0997888
vt 0.3539321 0.1039320
vt 0.3388672 0.1081693
vt 0.3539321 0.1039320
vt 0.3417969 0.1132437
vt 0.3261487 0.1134375
vt 0.3388672 0.1081693
vt 0.3417969 0.1132437
vt 0.3261487 0.1134375
vt 0.3417969 0.1132437
vt 0.3276652 0.1190972
vt 0.3196706 0.1142904
vt 0.3261487 0.1134375
vt 0.3276652 0.1190972
vt 0.3196706 0.1142904
vt 0.3276652 0.1190972
vt 0.3196706 0.1170609
vt 0.3196706 0.1170609
vt 0.3276652 0.1190972
vt 0.3196706 0.1201497
vt 0.3196706 0.0048503
vt 0.3276652 0.0059028
vt 0.3261487 0.0115625
vt 0.3196706 0.0048503
vt 0.3261487 0.0115625
vt 0.3196706 0.0079286
vt 0.3196706 0.0079286
vt 0.3261487 0.0115625
vt 0.3196706 0.0107096
vt 0.3261487 0.0115625
vt 0.3276652 0.0059028
vt 0.3417969 0.0117563
vt 0.3261487 0.0115625
vt 0.3417969 0.0117563
vt 0.3388672 0.0168307
vt 0.3388672 0.0168307
vt 0.3417969 0.0117563
vt 0.3539321 0.0210680
vt 0.3388672 0.0168307
vt 0.3539321 0.0210680
vt 0.3497888 0.0252112
vt 0.3497888 0.0252112
vt 0.3539321 0.0210680
vt 0.3632437 0.0332031
vt 0.3497888 0.0252112
vt 0.3632437 0.0332031
vt 0.3581693 0.0361328
vt 0.3581693 0.0361328
vt 0.3632437 0.0332031
vt 0.3690972 0.0473348
vt 0.3581693 0.0361328
vt 0.3690972 0.0473348
vt 0.3634375 0.0488513
vt 0.3634375 0.0488513
vt 0.3690972 0.0473348
vt 0.3710938 0.0625000
vt 0.3634375 0.0488513
vt 0.3710938 0.0625000
vt 0.3652344 0.0625000
vt 0.3125000 0.1184133
vt 0.3125000 0.1210938
vt 0.3128122 0.1184133
vt 0.3128122 0.1184133
vt 0.3125000 0.1210938
vt 0.3261487 0.1210938
vt 0.3128122 0.1184133
vt 0.3261487 0.1210938
vt 0.3261487 0.1184133
vt 0.3261487 0.1184133
vt 0.3261487 0.1210938
vt 0.3264396 0.1184133
vt 0.3264396 0.1184133
vt 0.3261487 0.1210938
vt 0.3388672 0.1210938
vt 0.3264396 0.1184133
vt 0.3388672 0.1210938
vt 0.3388672 0.1184133
vt 0.3388672 0.1184133
vt 0.3388672 0.1210938
vt 0.3391170 0.1184133
vt 0.3391170 0.1184133
vt 0.3388672 0.1210938
vt 0.3497888 0.1210938
vt 0.3391170 0.1184133
vt 0.3497888 0.1210938
vt 0.3497888 0.1184133
vt 0.3497888 0.1184133
vt 0.3497888 0.1210938
vt 0.3495390 0.1184133
vt 0.3495390 0.1184133
vt 0.3497888 0.1210938
vt 0.3388672 0.1210938
vt 0.3495390 0.1184133
vt 0.3388672 0.1210938
vt 0.3388672 0.1184133
vt 0.3388672 0.1184133
vt 0.3388672 0.1210938
vt 0.3385763 0.1184133
vt 0.3385763 0.1184133
vt 0.3388672 0.1210938
vt 0.3261487 0.1210938
vt 0.3385763 0.1184133
vt 0.3261487 0.1210938
vt 0.3261487 0.1184133
vt 0.3261487 0.1184133
vt 0.3261487 0.1210938
vt 0.3258365 0.1184133
vt 0.3258365 0.1184133
vt 0.3261487 0.1210938
vt 0.3196706 0.1210938
vt 0.3258365 0.1184133
vt 0.3196706 0.1210938
vt 0.3196706 0.1184133
vt 0.3196706 0.1210938
vt 0.3261487 0.1210938
vt 0.3258365 0.1184133
vt 0.3196706 0.1210938
vt 0.3258365 0.1184133
vt 0.3196706 0.1184133
vt 0.3258365 0.1184133
vt 0.3261487 0.1210938
vt 0.3261487 0.1184133
vt 0.3261487 0.1184133
vt 0.3261487 0.1210938
vt 0.3388672 0.1210938
vt 0.3261487 0.1184133
vt 0.3388672 0.1210938
vt 0.3385763 0.1184133
vt 0.3385763 0.1184133
vt 0.3388672 0.1210938
vt 0.3388672 0.1184133
vt 0.3388672 0.1184133
vt 0.3388672 0.1210938
vt 0.3497888 0.1210938
vt 0.3388672 0.1184133
vt 0.3497888 0.1210938
vt 0.3495390 0.1184133
vt 0.3495390 0.1184133
vt 0.3497888 0.1210938
vt 0.3497888 0.1184133
vt 0.2752112 0.1184133
vt 0.2752112 0.1210938
vt 0.2861328 0.1210938
vt 0.2752112 0.1184133
vt 0.2861328 0.1210938
vt 0.2858830 0.1184133
vt 0.2858830 0.1184133
vt 0.2861328 0.1210938
vt 0.2861328 0.1184133
vt 0.2861328 0.1184133
vt 0.2861328 0.1210938
vt 0.2988513 0.1210938
vt 0.2861328 0.1184133
vt 0.2988513 0.1210938
vt 0.2985604 0.1184133
vt 0.2985604 0.1184133
vt 0.2988513 0.1210938
vt 0.2988513 0.1184133
vt 0.2988513 0.1184133
vt 0.2988513 0.1210938
vt 0.3125000 0.1210938
vt 0.2988513 0.1184133
vt 0.3125000 0.1210938
vt 0.3121878 0.1184133
vt 0.3121878 0.1184133
vt 0.3125000 0.1210938
vt 0.3125000 0.1184133
vt 0.3276652 0.0074575
vt 0.3276652 0.1210938
vt 0.3125000 0.1210938
vt 0.3276652 0.0074575
vt 0.3125000 0.1210938
vt 0.3272056 0.0074575
vt 0.3272056 0.0074575
vt 0.3125000 0.1210938
vt 0.3125000 0.0074575
vt 0.3417969 0.0074575
vt 0.3417969 0.1210938
vt 0.3276652 0.1210938
vt 0.3417969 0.0074575
vt 0.3276652 0.1210938
vt 0.3413686 0.0074575
vt 0.3413686 0.0074575
vt 0.3276652 0.1210938
vt 0.3276652 0.0074575
vt 0.3539320 0.0074575
vt 0.3539320 0.1210938
vt 0.3417969 0.1210938
vt 0.3539320 0.0074575
vt 0.3417969 0.1210938
vt 0.3535643 0.0074575
vt 0.3535643 0.0074575
vt 0.3417969 0.1210938
vt 0.3417969 0.0074575
vt 0.3417969 0.0074575
vt 0.3417969 0.1210938
vt 0.3539320 0.1210938
vt 0.3417969 0.0074575
vt 0.3539320 0.1210938
vt 0.3421646 0.0074575
vt 0.3421646 0.0074575
vt 0.3539320 0.1210938
vt 0.3539320 0.0074575
vt 0.3276652 0.0074575
vt 0.3276652 0.1210938
vt 0.3417969 0.1210938
vt 0.3276652 0.0074575
vt 0.3417969 0.1210938
vt 0.3280935 0.0074575
vt 0.3280935 0.0074575
vt 0.3417969 0.1210938
vt 0.3417969 0.0074575
vt 0.3179323 0.1210938
vt 0.3276652 0.1210938
vt 0.3179323 0.0458836
vt 0.3179323 0.0458836
vt 0.3276652 0.1210938
vt 0.3276652 0.0074575
vt 0.3179323 0.0458836
vt 0.3276652 0.0074575
vt 0.3179323 0.0074575
vt 0.3276652 0.0074575
vt 0.3276652 0.1210938
vt 0.3179323 0.0458836
vt 0.3276652 0.0074575
vt 0.3179323 0.0458836
vt 0.3179323 0.0074575
vt 0.3179323 0.0458836
vt 0.3276652 0.1210938
vt 0.3179323 0.1210938
vt 0.3417969 0.0074575
vt 0.3417969 0.1210938
vt 0.3280935 0.0074575
vt 0.3280935 0.0074575
vt 0.3417969 0.1210938
vt 0.3276652 0.1210938
vt 0.3280935 0.0074575
vt 0.3276652 0.1210938
vt 0.3276652 0.0074575
vt 0.3539320 0.0074575
vt 0.3539320 0.1210938
vt 0.3421646 0.0074575
vt 0.3421646 0.0074575
vt 0.3539320 0.1210938
vt 0.3417969 0.1210938
vt 0.3421646 0.0074575
vt 0.3417969 0.1210938
vt 0.3417969 0.0074575
vt 0.2832031 0.0074575
vt 0.2832031 0.1210938
vt 0.2714357 0.0074575
vt 0.2714357 0.0074575
vt 0.2832031 0.1210938
vt 0.2710680 0.1210938
vt 0.2714357 0.0074575
vt 0.2710680 0.1210938
vt 0.2710680 0.0074575
vt 0.2973348 0.0074575
vt 0.2973348 0.1210938
vt 0.2836314 0.0074575
vt 0.2836314 0.0074575
vt 0.2973348 0.1210938
vt 0.2832031 0.1210938
vt 0.2836314 0.0074575
vt 0.2832031 0.1210938
vt 0.2832031 0.0074575
vt 0.3125000 0.0074575
vt 0.3125000 0.1210938
vt 0.2977944 0.0074575
vt 0.2977944 0.0074575
vt 0.3125000 0.1210938
vt 0.2973348 0.1210938
vt 0.2977944 0.0074575
vt 0.2973348 0.1210938
vt 0.2973348 0.0074575
vt 0.3498542 0.0725090
vt 0.3511719 0.0625000
vt 0.3710938 0.0625000
vt 0.3498542 0.0725090
vt 0.3710938 0.0625000
vt 0.3690972 0.0776652
vt 0.3459908 0.0818359
vt 0.3498542 0.0725090
vt 0.3690972 0.0776652
vt 0.3459908 0.0818359
vt 0.3690972 0.0776652
vt 0.3632437 0.0917969
vt 0.3398452 0.0898451
vt 0.3459908 0.0818359
vt 0.3632437 0.0917969
vt 0.3398452 0.0898451
vt 0.3632437 0.0917969
vt 0.3539320 0.1039320
vt 0.3318360 0.0959908
vt 0.3398452 0.0898451
vt 0.3539320 0.1039320
vt 0.3318360 0.0959908
vt 0.3539320 0.1039320
vt 0.3417969 0.1132437
vt 0.3225090 0.0998542
vt 0.3318360 0.0959908
vt 0.3417969 0.1132437
vt 0.3225090 0.0998542
vt 0.3417969 0.1132437
vt 0.3276652 0.1190972
vt 0.3179322 0.1004567
vt 0.3225090 0.0998542
vt 0.3276652 0.1190972
vt 0.3179322 0.1004567
vt 0.3276652 0.1190972
vt 0.3179323 0.1075929
vt 0.3179323 0.1075929
vt 0.3276652 0.1190972
vt 0.3179323 0.1203786
vt 0.3179323 0.0046214
vt 0.3276652 0.0059028
vt 0.3225090 0.0251458
vt 0.3179323 0.0046214
vt 0.3225090 0.0251458
vt 0.3179322 0.0154337
vt 0.3179322 0.0154337
vt 0.3225090 0.0251458
vt 0.3179322 0.0245433
vt 0.3225090 0.0251458
vt 0.3276652 0.0059028
vt 0.3417969 0.0117563
vt 0.3225090 0.0251458
vt 0.3417969 0.0117563
vt 0.3318360 0.0290092
vt 0.3318360 0.0290092
vt 0.3417969 0.0117563
vt 0.3539320 0.0210680
vt 0.3318360 0.0290092
vt 0.3539320 0.0210680
vt 0.3398452 0.0351549
vt 0.3398452 0.0351549
vt 0.3539320 0.0210680
vt 0.3632437 0.0332031
vt 0.3398452 0.0351549
vt 0.3632437 0.0332031
vt 0.3459908 0.0431641
vt 0.3459908 0.0431641
vt 0.3632437 0.0332031
vt 0.3690972 0.0473348
vt 0.3459908 0.0431641
vt 0.3690972 0.0473348
vt 0.3498542 0.0524910
vt 0.3498542 0.0524910
vt 0.3690972 0.0473348
vt 0.3710938 0.0625000
vt 0.3498542 0.0524910
vt 0.3710938 0.0625000
vt 0.3511719 0.0625000
vt 0.3125000 0.0074575
vt 0.3125000 0.1210938
vt 0.3222057 0.0074575
vt 0.3222057 0.0074575
vt 0.3125000 0.1210938
vt 0.3225090 0.1210938
vt 0.3222057 0.0074575
vt 0.3225090 0.1210938
vt 0.3225090 0.0074575
vt 0.3225090 0.0074575
vt 0.3225090 0.1210938
vt 0.3315533 0.0074575
vt 0.3315533 0.0074575
vt 0.3225090 0.1210938
vt 0.3318359 0.1210938
vt 0.3315533 0.0074575
vt 0.3318359 0.1210938
vt 0.3318359 0.0074575
vt 0.3318359 0.0074575
vt 0.3318359 0.1210938
vt 0.3396025 0.0074575
vt 0.3396025 0.0074575
vt 0.3318359 0.1210938
vt 0.3398452 0.1210938
vt 0.3396025 0.0074575
vt 0.3398452 0.1210938
vt 0.3398452 0.0074575
vt 0.3398452 0.0074575
vt 0.3398452 0.1210938
vt 0.3320787 0.0074575
vt 0.3320787 0.0074575
vt 0.3398452 0.1210938
vt 0.3318360 0.1210938
vt 0.3320787 0.0074575
vt 0.3318360 0.1210938
vt 0.3318360 0.0074575
vt 0.3318360 0.0074575
vt 0.3318360 0.1210938
vt 0.3227916 0.0074575
vt 0.3227916 0.0074575
vt 0.3318360 0.1210938
vt 0.3225090 0.1210938
vt 0.3227916 0.0074575
vt 0.3225090 0.1210938
vt 0.3225090 0.0074575
vt 0.3225090 0.0074575
vt 0.3225090 0.1210938
vt 0.3179322 0.0675082
vt 0.3225090 0.0074575
vt 0.3179322 0.0675082
vt 0.3179322 0.0074575
vt 0.3179322 0.0675082
vt 0.3225090 0.1210938
vt 0.3179322 0.1210938
vt 0.3179322 0.1210938
vt 0.3225090 0.1210938
vt 0.3179322 0.0675082
vt 0.3179322 0.0675082
vt 0.3225090 0.1210938
vt 0.3225090 0.0074575
vt 0.3179322 0.0675082
vt 0.3225090 0.0074575
vt 0.3179322 0.0074575
vt 0.3225090 0.0074575
vt 0.3225090 0.1210938
vt 0.3318360 0.1210938
vt 0.3225090 0.0074575
vt 0.3318360 0.1210938
vt 0.3227916 0.0074575
vt 0.3227916 0.0074575
vt 0.3318360 0.1210938
vt 0.3318360 0.0074575
vt 0.3318360 0.0074575
vt 0.3318360 0.1210938
vt 0.3398452 0.1210938
vt 0.3318360 0.0074575
vt 0.3398452 0.1210938
vt 0.3320787 0.0074575
vt 0.3320787 0.0074575
vt 0.3398452 0.1210938
vt 0.3398452 0.0074575
vt 0.2851548 0.0074575
vt 0.2851548 0.1210938
vt 0.2931641 0.1210938
vt 0.2851548 0.0074575
vt 0.2931641 0.1210938
vt 0.2853975 0.0074575
vt 0.2853975 0.0074575
vt 0.2931641 0.1210938
vt 0.2931641 0.0074575
vt 0.2931641 0.0074575
vt 0.2931641 0.1210938
vt 0.3024910 0.1210938
vt 0.2931641 0.0074575
vt 0.3024910 0.1210938
vt 0.2934467 0.0074575
vt 0.2934467 0.0074575
vt 0.3024910 0.1210938
vt 0.3024910 0.0074575
vt 0.3024910 0.0074575
vt 0.3024910 0.1210938
vt 0.3125000 0.1210938
vt 0.3024910 0.0074575
vt 0.3125000 0.1210938
vt 0.3027943 0.0074575
vt 0.3027943 0.0074575
vt 0.3125000 0.1210938
vt 0.3125000 0.0074575
vt 0.9960938 0.0039062
vt 0.9960938 0.1210938
vt 0.9375000 0.1210938
vt 0.9960938 0.0039062
vt 0.9375000 0.1210938
vt 0.9375000 0.0039062
vt 0.9082031 0.0039062
vt 0.9082031 0.1210938
vt 0.9667969 0.1210938
vt 0.9082031 0.0039062
vt 0.9667969 0.1210938
vt 0.9667969 0.0039062
vt 0.9375000 0.0039062
vt 0.9375000 0.1210938
vt 0.9960938 0.1210938
vt 0.9375000 0.0039062
vt 0.9960938 0.1210938
vt 0.9960938 0.0039062
vt 0.9375000 0.0039062
vt 0.8789062 0.0039062
vt 0.8789062 0.1210938
vt 0.9375000 0.0039062
vt 0.8789062 0.1210938
vt 0.9375000 0.1210938
vt 0.9082031 0.0039062
vt 0.9667969 0.0039062
vt 0.9667969 0.1210938
vt 0.9082031 0.0039062
vt 0.9667969 0.1210938
vt 0.9082031 0.1210938
vt 0.8789062 0.0039062
vt 0.9375000 0.0039062
vt 0.9375000 0.1210938
vt 0.8789062 0.0039062
vt 0.9375000 0.1210938
vt 0.8789062 0.1210938
vt 0.8789062 0.0625000
vt 0.9082031 0.1210938
vt 0.9667969 0.1210938
vt 0.8789062 0.0625000
vt 0.9667969 0.1210938
vt 0.9960938 0.0625000
vt 0.8789062 0.0625000
vt 0.9960938 0.0625000
vt 0.9667969 0.0039062
vt 0.8789062 0.0625000
vt 0.9667969 0.0039062
vt 0.9082031 0.0039062
vt 0.8789062 0.0625000
vt 0.9082031 0.0039062
vt 0.9667969 0.0039062
vt 0.8789062 0.0625000
vt 0.9667969 0.0039062
vt 0.9960938 0.0625000
vt 0.8789062 0.0625000
vt 0.9960938 0.0625000
vt 0.9667969 0.1210938
vt 0.8789062 0.0625000
vt 0.9667969 0.1210938
vt 0.9082031 0.1210938
vt 0.9960938 0.0039062
vt 0.9960938 0.1210938
vt 0.9375000 0.1210938
vt 0.9960938 0.0039062
vt 0.9375000 0.1210938
vt 0.9375000 0.0039062
vt 0.9082031 0.0039062
vt 0.9082031 0.1210938
vt 0.9667969 0.1210938
vt 0.9082031 0.0039062
vt 0.9667969 0.1210938
vt 0.9667969 0.0039062
vt 0.9375000 0.0039062
vt 0.9375000 0.1210938
vt 0.9960938 0.1210938
vt 0.9375000 0.0039062
vt 0.9960938 0.1210938
vt 0.9960938 0.0039062
vt 0.9375000 0.0039062
vt 0.8789062 0.0039062
vt 0.8789062 0.1210938
vt 0.9375000 0.0039062
vt 0.8789062 0.1210938
vt 0.9375000 0.1210938
vt 0.9082031 0.0039062
vt 0.9667969 0.0039062
vt 0.9667969 0.1210938
vt 0.9082031 0.0039062
vt 0.9667969 0.1210938
vt 0.9082031 0.1210938
vt 0.8789062 0.0039062
vt 0.9375000 0.0039062
vt 0.9375000 0.1210938
vt 0.8789062 0.0039062
vt 0.9375000 0.1210938
vt 0.8789062 0.1210938
vt 0.8789062 0.0625000
vt 0.9082031 0.1210938
vt 0.9667969 0.1210938
vt 0.8789062 0.0625000
vt 0.9667969 0.1210938
vt 0.9960938 0.0625000
vt 0.8789062 0.0625000
vt 0.9960938 0.0625000
vt 0.9667969 0.0039062
vt 0.8789062 0.0625000
vt 0.9667969 0.0039062
vt 0.9082031 0.0039062
vt 0.8789062 0.0625000
vt 0.9082031 0.0039062
vt 0.9667969 0.0039062
vt 0.8789062 0.0625000
vt 0.9667969 0.0039062
vt 0.9960938 0.0625000
vt 0.8789062 0.0625000
vt 0.9960938 0.0625000
vt 0.9667969 0.1210938
vt 0.8789062 0.0625000
vt 0.9667969 0.1210938
vt 0.9082031 0.1210938
vt 0.9960938 0.0039062
vt 0.9960938 0.1210938
vt 0.9375000 0.1210938
vt 0.9960938 0.0039062
vt 0.9375000 0.1210938
vt 0.9375000 0.0039062
vt 0.9082031 0.0039062
vt 0.9082031 0.1210938
vt 0.9667969 0.1210938
vt 0.9082031 0.0039062
vt 0.9667969 0.1210938
vt 0.9667969 0.0039062
vt 0.9375000 0.0039062
vt 0.9375000 0.1210938
vt 0.9960938 0.1210938
vt 0.9375000 0.0039062
vt 0.9960938 0.1210938
vt 0.9960938 0.0039062
vt 0.9375000 0.0039062
vt 0.8789062 0.0039062
vt 0.8789062 0.1210938
vt 0.9375000 0.0039062
vt 0.8789062 0.1210938
vt 0.9375000 0.1210938
vt 0.9082031 0.0039062
vt 0.9667969 0.0039062
vt 0.9667969 0.1210938
vt 0.9082031 0.0039062
vt 0.9667969 0.1210938
vt 0.9082031 0.1210938
vt 0.8789062 0.0039062
vt 0.9375000 0.0039062
vt 0.9375000 0.1210938
vt 0.8789062 0.0039062
vt 0.9375000 0.1210938
vt 0.8789062 0.1210938
vt 0.8789062 0.0625000
vt 0.9082031 0.1210938
vt 0.9667969 0.1210938
vt 0.8789062 0.0625000
vt 0.9667969 0.1210938
vt 0.9960938 0.0625000
vt 0.8789062 0.0625000
vt 0.9960938 0.0625000
vt 0.9667969 0.0039062
vt 0.8789062 0.0625000
vt 0.9667969 0.0039062
vt 0.9082031 0.0039062
vt 0.8789062 0.0625000
vt 0.9082031 0.0039062
vt 0.9667969 0.0039062
vt 0.8789062 0.0625000
vt 0.9667969 0.0039062
vt 0.9960938 0.0625000
vt 0.8789062 0.0625000
vt 0.9960938 0.0625000
vt 0.9667969 0.1210938
vt 0.8789062 0.0625000
vt 0.9667969 0.1210938
vt 0.9082031 0.1210938
vt 0.9960938 0.0039062
vt 0.9960938 0.1210938
vt 0.9375000 0.1210938
vt 0.9960938 0.0039062
vt 0.9375000 0.1210938
vt 0.9375000 0.0039062
vt 0.9082031 0.0039062
vt 0.9082031 0.1210938
vt 0.9667969 0.1210938
vt 0.9082031 0.0039062
vt 0.9667969 0.1210938
vt 0.9667969 0.0039062
vt 0.9375000 0.0039062
vt 0.9375000 0.1210938
vt 0.9960938 0.1210938
vt 0.9375000 0.0039062
vt 0.9960938 0.1210938
vt 0.9960938 0.0039062
vt 0.9375000 0.0039062
vt 0.8789062 0.0039062
vt 0.8789062 0.1210938
vt 0.9375000 0.0039062
vt 0.8789062 0.1210938
vt 0.9375000 0.1210938
vt 0.9082031 0.0039062
vt 0.9667969 0.0039062
vt 0.9667969 0.1210938
vt 0.9082031 0.0039062
vt 0.9667969 0.1210938
vt 0.9082031 0.1210938
vt 0.8789062 0.0039062
vt 0.9375000 0.0039062
vt 0.9375000 0.1210938
vt 0.8789062 0.0039062
vt 0.9375000 0.1210938
vt 0.8789062 0.1210938
vt 0.8789062 0.0625000
vt 0.9082031 0.1210938
vt 0.9667969 0.1210938
vt 0.8789062 0.0625000
vt 0.9667969 0.1210938
vt 0.9960938 0.0625000
vt 0.8789062 0.0625000
vt 0.9960938 0.0625000
vt 0.9667969 0.0039062
vt 0.8789062 0.0625000
vt 0.9667969 0.0039062
vt 0.9082031 0.0039062
vt 0.8789062 0.0625000
vt 0.9082031 0.0039062
vt 0.9667969 0.0039062
vt 0.8789062 0.0625000
vt 0.9667969 0.0039062
vt 0.9960938 0.0625000
vt 0.8789062 0.0625000
vt 0.9960938 0.0625000
vt 0.9667969 0.1210938
vt 0.8789062 0.0625000
vt 0.9667969 0.1210938
vt 0.9082031 0.1210938
vn 0.9659258 0.0000000 -0.2588191
vn 0.9659258 0.0000000 -0.2588191
vn 1.0000000 0.0000000 0.0000000
vn 0.9659258 0.0000000 -0.2588191
vn 1.0000000 0.0000000 0.0000000
vn 0.9999824 0.0000000 -0.0059247
vn 0.9999824 0.0000000 -0.0059247
vn 1.0000000 0.0000000 0.0000000
vn 1.0000000 0.0000000 0.0000000
vn 0.8660256 0.0000000 -0.4999997
vn 0.8660256 0.0000000 -0.4999997
vn 0.9659258 0.0000000 -0.2588191
vn 0.8660256 0.0000000 -0.4999997
vn 0.9659258 0.0000000 -0.2588191
vn 0.9643754 0.0000000 -0.2645374
vn 0.9643754 0.0000000 -0.2645374
vn 0.9659258 0.0000000 -0.2588191
vn 0.9659258 0.0000000 -0.2588191
vn 0.7071069 0.0000000 -0.7071066
vn 0.7071069 0.0000000 -0.7071066
vn 0.8660256 0.0000000 -0.4999997
vn 0.7071069 0.0000000 -0.7071066
vn 0.8660256 0.0000000 -0.4999997
vn 0.8630480 0.0000000 -0.5051219
vn 0.8630480 0.0000000 -0.5051219
vn 0.8660256 0.0000000 -0.4999997
vn 0.8660256 0.0000000 -0.4999997
vn 0.5000001 0.0000000 -0.8660254
vn 0.5000001 0.0000000 -0.8660254
vn 0.7071069 0.0000000 -0.7071066
vn 0.5000001 0.0000000 -0.8660254
vn 0.7071069 0.0000000 -0.7071066
vn 0.7029051 0.0000000 -0.7112836
vn 0.7029051 0.0000000 -0.7112836
vn 0.7071069 0.0000000 -0.7071066
vn 0.7071069 0.0000000 -0.7071066
vn 0.2588188 0.0000000 -0.9659259
vn 0.2588188 0.0000000 -0.9659259
vn 0.5000001 0.0000000 -0.8660254
vn 0.2588188 0.0000000 -0.9659259
vn 0.5000001 0.0000000 -0.8660254
vn 0.4948603 0.0000000 -0.8689725
vn 0.4948603 0.0000000 -0.8689725
vn 0.5000001 0.0000000 -0.8660254
vn 0.5000001 0.0000000 -0.8660254
vn 0.1234305 0.0000000 -0.9923532
vn 0.2588188 0.0000000 -0.9659259
vn 0.2530914 0.0000000 -0.9674424
vn 0.1234305 0.0000000 -0.9923532
vn 0.2530914 0.0000000 -0.9674424
vn 0.1234305 0.0000000 -0.9923532
vn 0.2530914 0.0000000 -0.9674424
vn 0.2588188 0.0000000 -0.9659259
vn 0.2588188 0.0000000 -0.9659259
vn 0.2588188 0.0000000 0.9659259
vn 0.2588188 0.0000000 0.9659259
vn 0.2530914 0.0000000 0.9674424
vn 0.2530914 0.0000000 0.9674424
vn 0.2588188 0.0000000 0.9659259
vn 0.1234305 0.0000000 0.9923532
vn 0.2530914 0.0000000 0.9674424
vn 0.1234305 0.0000000 0.9923532
vn 0.1234305 0.0000000 0.9923532
vn 0.5000001 0.0000000 0.8660254
vn 0.5000001 0.0000000 0.8660254
vn 0.4948603 0.0000000 0.8689725
vn 0.4948603 0.0000000 0.8689725
vn 0.5000001 0.0000000 0.8660254
vn 0.2588188 0.0000000 0.9659259
vn 0.4948603 0.0000000 0.8689725
vn 0.2588188 0.0000000 0.9659259
vn 0.2588188 0.0000000 0.9659259
vn 0.7071069 0.0000000 0.7071066
vn 0.7071069 0.0000000 0.7071066
vn 0.7029051 0.0000000 0.7112836
vn 0.7029051 0.0000000 0.7112836
vn 0.7071069 0.0000000 0.7071066
vn 0.5000001 0.0000000 0.8660254
vn 0.7029051 0.0000000 0.7112836
vn 0.5000001 0.0000000 0.8660254
vn 0.5000001 0.0000000 0.8660254
vn 0.8660256 0.0000000 0.4999997
vn 0.8660256 0.0000000 0.4999997
vn 0.8630480 0.0000000 0.5051219
vn 0.8630480 0.0000000 0.5051219
vn 0.8660256 0.0000000 0.4999997
vn 0.7071069 0.0000000 0.7071066
vn 0.8630480 0.0000000 0.5051219
vn 0.7071069 0.0000000 0.7071066
vn 0.7071069 0.0000000 0.7071066
vn 0.9659258 0.0000000 0.2588191
vn 0.9659258 0.0000000 0.2588191
vn 0.9643754 0.0000000 0.2645374
vn 0.9643754 0.0000000 0.2645374
vn 0.9659258 0.0000000 0.2588191
vn 0.8660256 0.0000000 0.4999997
vn 0.9643754 0.0000000 0.2645374
vn 0.8660256 0.0000000 0.4999997
vn 0.8660256 0.0000000 0.4999997
vn 1.0000000 0.0000000 0.0000000
vn 1.0000000 0.0000000 0.0000000
vn 0.9999824 0.0000000 0.0059247
vn 0.9999824 0.0000000 0.0059247
vn 1.0000000 0.0000000 0.0000000
vn 0.9659258 0.0000000 0.2588191
vn 0.9999824 0.0000000 0.0059247
vn 0.9659258 0.0000000 0.2588191
vn 0.9659258 0.0000000 0.2588191
vn 0.0000000 1.0000000 0.0000000
vn 0.0000074 1.0000000 0.0000000
vn 0.0000074 1.0000000 0.0000000
vn 0.0000000 1.0000000 0.0000000
vn 0.0000074 1.0000000 0.0000000
vn 0.0000000 1.0000000 0.0000000
vn -0.0000037 1.0000000 0.0000000
vn 0.0000000 1.0000000 0.0000000
vn 0.0000000 1.0000000 0.0000000
vn -0.0000037 1.0000000 0.0000000
vn 0.0000000 1.0000000 0.0000000
vn -0.0000037 1.0000000 0.0000000
vn -0.0000019 1.0000000 0.0000000
vn -0.0000037 1.0000000 0.0000000
vn -0.0000037 1.0000000 0.0000000
vn -0.0000019 1.0000000 0.0000000
vn -0.0000037 1.0000000 0.0000000
vn -0.0000019 1.0000000 0.0000000
vn -0.0000019 1.0000000 0.0000000
vn -0.0000019 1.0000000 0.0000000
vn -0.0000019 1.0000000 0.0000000
vn -0.0000019 1.0000000 0.0000000
vn -0.0000019 1.0000000 0.0000000
vn -0.0000019 1.0000000 0.0000000
vn 0.0000000 1.0000000 0.0000000
vn -0.0000019 1.0000000 0.0000000
vn -0.0000019 1.0000000 0.0000000
vn 0.0000000 1.0000000 0.0000000
vn -0.0000019 1.0000000 0.0000000
vn 0.0000000 1.0000000 0.0000000
vn 0.0000004 1.0000000 0.0000000
vn 0.0000000 1.0000000 0.0000000
vn 0.0000000 1.0000000 0.0000000
vn 0.0000004 1.0000000 0.0000000
vn 0.0000000 1.0000000 0.0000000
vn 0.0000005 1.0000000 0.0000000
vn 0.0000005 1.0000000 0.0000000
vn 0.0000000 1.0000000 0.0000000
vn 0.0000005 1.0000000 0.0000000
vn -0.0000009 1.0000000 0.0000000
vn -0.0000009 1.0000000 0.0000000
vn -0.0000009 1.0000000 0.0000000
vn -0.0000009 1.0000000 0.0000000
vn -0.0000009 1.0000000 0.0000000
vn -0.0000009 1.0000000 0.0000000
vn -0.0000009 1.0000000 0.0000000
vn -0.0000009 1.0000000 0.0000000
vn -0.0000009 1.0000000 0.0000000
vn -0.0000009 1.0000000 0.0000000
vn -0.0000009 1.0000000 0.0000000
vn 0.0000000 1.0000000 0.0000000
vn -0.0000009 1.0000000 0.0000000
vn 0.0000000 1.0000000 0.0000000
vn 0.0000000 1.0000000 0.0000000
vn 0.0000000 1.0000000 0.0000000
vn 0.0000000 1.0000000 0.0000000
vn 0.0000000 1.0000000 0.0000000
vn 0.0000000 1.0000000 0.0000000
vn 0.0000000 1.0000000 0.0000000
vn 0.0000000 1.0000000 0.0000000
vn 0.0000000 1.0000000 0.0000000
vn 0.0000000 1.0000000 0.0000000
vn -0.0000037 1.0000000 0.0000000
vn 0.0000000 1.0000000 0.0000000
vn -0.0000037 1.0000000 0.0000000
vn -0.0000037 1.0000000 0.0000000
vn -0.0000037 1.0000000 0.0000000
vn -0.0000037 1.0000000 0.0000000
vn 0.0000000 1.0000000 0.0000000
vn -0.0000037 1.0000000 0.0000000
vn 0.0000000 1.0000000 0.0000000
vn 0.0000000 1.0000000 0.0000000
vn 0.0000000 1.0000000 0.0000000
vn 0.0000000 1.0000000 0.0000000
vn 0.0000074 1.0000000 0.0000000
vn 0.0000000 1.0000000 0.0000000
vn 0.0000074 1.0000000 0.0000000
vn 0.0000074 1.0000000 0.0000000
vn -1.0000000 0.0000000 0.0000000
vn -1.0000000 0.0000000 0.0000000
vn -0.9999824 0.0000000 0.0059247
vn -0.9999824 0.0000000 0.0059247
vn -1.0000000 0.0000000 0.0000000
vn -0.9659257 0.0000000 0.2588194
vn -0.9999824 0.0000000 0.0059247
vn -0.9659257 0.0000000 0.2588194
vn -0.9659257 0.0000000 0.2588194
vn -0.9659257 0.0000000 0.2588194
vn -0.9659257 0.0000000 0.2588194
vn -0.9643754 0.0000000 0.2645377
vn -0.9643754 0.0000000 0.2645377
vn -0.9659257 0.0000000 0.2588194
vn -0.8660258 0.0000000 0.4999993
vn -0.9643754 0.0000000 0.2645377
vn -0.8660258 0.0000000 0.4999993
vn -0.8660258 0.0000000 0.4999993
vn -0.8660258 0.0000000 0.4999993
vn -0.8660258 0.0000000 0.4999993
vn -0.8630482 0.0000000 0.5051215
vn -0.8630482 0.0000000 0.5051215
vn -0.8660258 0.0000000 0.4999993
vn -0.7071070 0.0000000 0.7071066
vn -0.8630482 0.0000000 0.5051215
vn -0.7071070 0.0000000 0.7071066
vn -0.7071070 0.0000000 0.7071066
vn -0.7071070 0.0000000 0.7071066
vn -0.7071070 0.0000000 0.7071066
vn -0.7029052 0.0000000 0.7112836
vn -0.7029052 0.0000000 0.7112836
vn -0.7071070 0.0000000 0.7071066
vn -0.4999996 0.0000000 0.8660256
vn -0.7029052 0.0000000 0.7112836
vn -0.4999996 0.0000000 0.8660256
vn -0.4999996 0.0000000 0.8660256
vn -0.4999996 0.0000000 0.8660256
vn -0.4999996 0.0000000 0.8660256
vn -0.4948599 0.0000000 0.8689728
vn -0.4948599 0.0000000 0.8689728
vn -0.4999996 0.0000000 0.8660256
vn -0.2588193 0.0000000 0.9659258
vn -0.4948599 0.0000000 0.8689728
vn -0.2588193 0.0000000 0.9659258
vn -0.2588193 0.0000000 0.9659258
vn -0.2588193 0.0000000 0.9659258
vn -0.2588193 0.0000000 0.9659258
vn -0.2530919 0.0000000 0.9674422
vn -0.2530919 0.0000000 0.9674422
vn -0.2588193 0.0000000 0.9659258
vn -0.1371457 0.0000000 0.9905509
vn -0.2530919 0.0000000 0.9674422
vn -0.1371457 0.0000000 0.9905509
vn -0.1371457 0.0000000 0.9905509
vn -0.1371457 0.0000000 -0.9905509
vn -0.2588193 0.0000000 -0.9659258
vn -0.2530919 0.0000000 -0.9674422
vn -0.1371457 0.0000000 -0.9905509
vn -0.2530919 0.0000000 -0.9674422
vn -0.1371457 0.0000000 -0.9905509
vn -0.2530919 0.0000000 -0.9674422
vn -0.2588193 0.0000000 -0.9659258
vn -0.2588193 0.0000000 -0.9659258
vn -0.2588193 0.0000000 -0.9659258
vn -0.2588193 0.0000000 -0.9659258
vn -0.4999996 0.0000000 -0.8660256
vn -0.2588193 0.0000000 -0.9659258
vn -0.4999996 0.0000000 -0.8660256
vn -0.4948599 0.0000000 -0.8689728
vn -0.4948599 0.0000000 -0.8689728
vn -0.4999996 0.0000000 -0.8660256
vn -0.4999996 0.0000000 -0.8660256
vn -0.4999996 0.0000000 -0.8660256
vn -0.4999996 0.0000000 -0.8660256
vn -0.7071070 0.0000000 -0.7071066
vn -0.4999996 0.0000000 -0.8660256
vn -0.7071070 0.0000000 -0.7071066
vn -0.7029052 0.0000000 -0.7112836
vn -0.7029052 0.0000000 -0.7112836
vn -0.7071070 0.0000000 -0.7071066
vn -0.7071070 0.0000000 -0.7071066
vn -0.7071070 0.0000000 -0.7071066
vn -0.7071070 0.0000000 -0.7071066
vn -0.8660258 0.0000000 -0.4999993
vn -0.7071070 0.0000000 -0.7071066
vn -0.8660258 0.0000000 -0.4999993
vn -0.8630482 0.0000000 -0.5051215
vn -0.8630482 0.0000000 -0.5051215
vn -0.8660258 0.0000000 -0.4999993
vn -0.8660258 0.0000000 -0.4999993
vn -0.8660258 0.0000000 -0.4999993
vn -0.8660258 0.0000000 -0.4999993
vn -0.9659257 0.0000000 -0.2588194
vn -0.8660258 0.0000000 -0.4999993
vn -0.9659257 0.0000000 -0.2588194
vn -0.9643754 0.0000000 -0.2645377
vn -0.9643754 0.0000000 -0.2645377
vn -0.9659257 0.0000000 -0.2588194
vn -0.9659257 0.0000000 -0.2588194
vn -0.9659257 0.0000000 -0.2588194
vn -0.9659257 0.0000000 -0.2588194
vn -1.0000000 0.0000000 0.0000000
vn -0.9659257 0.0000000 -0.2588194
vn -1.0000000 0.0000000 0.0000000
vn -0.9999824 0.0000000 -0.0059247
vn -0.9999824 0.0000000 -0.0059247
vn -1.0000000 0.0000000 0.0000000
vn -1.0000000 0.0000000 0.0000000
vn 0.9659260 0.0000000 -0.2588185
vn 0.9659260 0.0000000 -0.2588185
vn 1.0000000 0.0000000 0.0000000
vn 0.9659260 0.0000000 -0.2588185
vn 1.0000000 0.0000000 0.0000000
vn 0.9679282 0.0000000 -0.2512269
vn 0.9679282 0.0000000 -0.2512269
vn 1.0000000 0.0000000 0.0000000
vn 1.0000000 0.0000000 0.0000000
vn 0.8660255 0.0000000 -0.4999998
vn 0.8660255 0.0000000 -0.4999998
vn 0.9659260 0.0000000 -0.2588185
vn 0.8660255 0.0000000 -0.4999998
vn 0.9659260 0.0000000 -0.2588185
vn 0.8699244 0.0000000 -0.4931850
vn 0.8699244 0.0000000 -0.4931850
vn 0.9659260 0.0000000 -0.2588185
vn 0.9659260 0.0000000 -0.2588185
vn 0.7071072 0.0000000 -0.7071064
vn 0.7071072 0.0000000 -0.7071064
vn 0.8660255 0.0000000 -0.4999998
vn 0.7071072 0.0000000 -0.7071064
vn 0.8660255 0.0000000 -0.4999998
vn 0.7126370 0.0000000 -0.7015330
vn 0.7126370 0.0000000 -0.7015330
vn 0.8660255 0.0000000 -0.4999998
vn 0.8660255 0.0000000 -0.4999998
vn 0.5000000 0.0000000 -0.8660254
vn 0.5000000 0.0000000 -0.8660254
vn 0.7071072 0.0000000 -0.7071064
vn 0.5000000 0.0000000 -0.8660254
vn 0.7071072 0.0000000 -0.7071064
vn 0.5067839 0.0000000 -0.8620731
vn 0.5067839 0.0000000 -0.8620731
vn 0.7071072 0.0000000 -0.7071064
vn 0.7071072 0.0000000 -0.7071064
vn 0.2588188 0.0000000 -0.9659259
vn 0.2588188 0.0000000 -0.9659259
vn 0.5000000 0.0000000 -0.8660254
vn 0.2588188 0.0000000 -0.9659259
vn 0.5000000 0.0000000 -0.8660254
vn 0.2663945 0.0000000 -0.9638641
vn 0.2663945 0.0000000 -0.9638641
vn 0.5000000 0.0000000 -0.8660254
vn 0.5000000 0.0000000 -0.8660254
vn 0.0934456 0.0000000 -0.9956244
vn 0.2588188 0.0000000 -0.9659259
vn 0.0934456 0.0000000 -0.9956244
vn 0.0934456 0.0000000 -0.9956244
vn 0.2588188 0.0000000 -0.9659259
vn 0.2588188 0.0000000 -0.9659259
vn 0.0934456 0.0000000 -0.9956244
vn 0.2588188 0.0000000 -0.9659259
vn 0.0934456 0.0000000 -0.9956244
vn 0.2588188 0.0000000 0.9659259
vn 0.2588188 0.0000000 0.9659259
vn 0.0934456 0.0000000 0.9956244
vn 0.2588188 0.0000000 0.9659259
vn 0.0934456 0.0000000 0.9956244
vn 0.0934456 0.0000000 0.9956244
vn 0.0934456 0.0000000 0.9956244
vn 0.2588188 0.0000000 0.9659259
vn 0.0934456 0.0000000 0.9956244
vn 0.5000000 0.0000000 0.8660254
vn 0.5000000 0.0000000 0.8660254
vn 0.2663945 0.0000000 0.9638641
vn 0.2663945 0.0000000 0.9638641
vn 0.5000000 0.0000000 0.8660254
vn 0.2588188 0.0000000 0.9659259
vn 0.2663945 0.0000000 0.9638641
vn 0.2588188 0.0000000 0.9659259
vn 0.2588188 0.0000000 0.9659259
vn 0.7071072 0.0000000 0.7071064
vn 0.7071072 0.0000000 0.7071064
vn 0.5067839 0.0000000 0.8620731
vn 0.5067839 0.0000000 0.8620731
vn 0.7071072 0.0000000 0.7071064
vn 0.5000000 0.0000000 0.8660254
vn 0.5067839 0.0000000 0.8620731
vn 0.5000000 0.0000000 0.8660254
vn 0.5000000 0.0000000 0.8660254
vn 0.8660255 0.0000000 0.4999998
vn 0.8660255 0.0000000 0.4999998
vn 0.7126370 0.0000000 0.7015330
vn 0.7126370 0.0000000 0.7015330
vn 0.8660255 0.0000000 0.4999998
vn 0.7071072 0.0000000 0.7071064
vn 0.7126370 0.0000000 0.7015330
vn 0.7071072 0.0000000 0.7071064
vn 0.7071072 0.0000000 0.7071064
vn 0.9659260 0.0000000 0.2588185
vn 0.9659260 0.0000000 0.2588185
vn 0.8699244 0.0000000 0.4931850
vn 0.8699244 0.0000000 0.4931850
vn 0.9659260 0.0000000 0.2588185
vn 0.8660255 0.0000000 0.4999998
vn 0.8699244 0.0000000 0.4931850
vn 0.8660255 0.0000000 0.4999998
vn 0.8660255 0.0000000 0.4999998
vn 1.0000000 0.0000000 0.0000000
vn 1.0000000 0.0000000 0.0000000
vn 0.9679282 0.0000000 0.2512269
vn 0.9679282 0.0000000 0.2512269
vn 1.0000000 0.0000000 0.0000000
vn 0.9659260 0.0000000 0.2588185
vn 0.9679282 0.0000000 0.2512269
vn 0.9659260 0.0000000 0.2588185
vn 0.9659260 0.0000000 0.2588185
vn -0.0000007 1.0000000 0.0000000
vn -0.0000014 1.0000000 0.0000000
vn -0.0000014 1.0000000 0.0000000
vn -0.0000007 1.0000000 0.0000000
vn -0.0000014 1.0000000 0.0000000
vn -0.0000007 1.0000000 0.0000000
vn 0.0000000 1.0000000 0.0000000
vn -0.0000007 1.0000000 0.0000000
vn -0.0000007 1.0000000 0.0000000
vn 0.0000000 1.0000000 0.0000000
vn -0.0000007 1.0000000 0.0000000
vn 0.0000000 1.0000000 0.0000000
vn 0.0000000 1.0000000 0.0000000
vn 0.0000000 1.0000000 0.0000000
vn 0.0000000 1.0000000 0.0000000
vn 0.0000000 1.0000000 0.0000000
vn 0.0000000 1.0000000 0.0000000
vn 0.0000000 1.0000000 0.0000000
vn -0.0000007 1.0000000 0.0000000
vn 0.0000000 1.0000000 0.0000000
vn 0.0000000 1.0000000 0.0000000
vn -0.0000007 1.0000000 0.0000000
vn 0.0000000 1.0000000 0.0000000
vn -0.0000007 1.0000000 0.0000000
vn -0.0000004 1.0000000 0.0000000
vn -0.0000007 1.0000000 0.0000000
vn -0.0000007 1.0000000 0.0000000
vn -0.0000004 1.0000000 0.0000000
vn -0.0000007 1.0000000 0.0000000
vn -0.0000004 1.0000000 0.0000000
vn -0.0000002 1.0000000 0.0000000
vn -0.0000004 1.0000000 0.0000000
vn -0.0000004 1.0000000 0.0000000
vn -0.0000002 1.0000000 0.0000000
vn -0.0000004 1.0000000 0.0000000
vn -0.0000001 1.0000000 0.0000000
vn -0.0000001 1.0000000 0.0000000
vn -0.0000004 1.0000000 0.0000000
vn -0.0000001 1.0000000 0.0000000
vn -0.0000001 1.0000000 0.0000000
vn -0.0000004 1.0000000 0.0000000
vn -0.0000004 1.0000000 0.0000000
vn -0.0000001 1.0000000 0.0000000
vn -0.0000004 1.0000000 0.0000000
vn -0.0000002 1.0000000 0.0000000
vn -0.0000002 1.0000000 0.0000000
vn -0.0000004 1.0000000 0.0000000
vn -0.0000002 1.0000000 0.0000000
vn -0.0000004 1.0000000 0.0000000
vn -0.0000004 1.0000000 0.0000000
vn -0.0000014 1.0000000 0.0000000
vn -0.0000004 1.0000000 0.0000000
vn -0.0000014 1.0000000 0.0000000
vn -0.0000014 1.0000000 0.0000000
vn -0.0000014 1.0000000 0.0000000
vn -0.0000014 1.0000000 0.0000000
vn -0.0000007 1.0000000 0.0000000
vn -0.0000014 1.0000000 0.0000000
vn -0.0000007 1.0000000 0.0000000
vn -0.0000007 1.0000000 0.0000000
vn -0.0000007 1.0000000 0.0000000
vn -0.0000007 1.0000000 0.0000000
vn 0.0000000 1.0000000 0.0000000
vn -0.0000007 1.0000000 0.0000000
vn 0.0000000 1.0000000 0.0000000
vn 0.0000000 1.0000000 0.0000000
vn 0.0000000 1.0000000 0.0000000
vn 0.0000000 1.0000000 0.0000000
vn -0.0000007 1.0000000 0.0000000
vn 0.0000000 1.0000000 0.0000000
vn -0.0000007 1.0000000 0.0000000
vn -0.0000007 1.0000000 0.0000000
vn -0.0000007 1.0000000 0.0000000
vn -0.0000007 1.0000000 0.0000000
vn -0.0000014 1.0000000 0.0000000
vn -0.0000007 1.0000000 0.0000000
vn -0.0000014 1.0000000 0.0000000
vn -0.0000014 1.0000000 0.0000000
vn -1.0000000 0.0000000 0.0000000
vn -1.0000000 0.0000000 0.0000000
vn -0.9679281 0.0000000 0.2512273
vn -0.9679281 0.0000000 0.2512273
vn -1.0000000 0.0000000 0.0000000
vn -0.9659259 0.0000000 0.2588189
vn -0.9679281 0.0000000 0.2512273
vn -0.9659259 0.0000000 0.2588189
vn -0.9659259 0.0000000 0.2588189
vn -0.9659259 0.0000000 0.2588189
vn -0.9659259 0.0000000 0.2588189
vn -0.8699246 0.0000000 0.4931848
vn -0.8699246 0.0000000 0.4931848
vn -0.9659259 0.0000000 0.2588189
vn -0.8660257 0.0000000 0.4999995
vn -0.8699246 0.0000000 0.4931848
vn -0.8660257 0.0000000 0.4999995
vn -0.8660257 0.0000000 0.4999995
vn -0.8660257 0.0000000 0.4999995
vn -0.8660257 0.0000000 0.4999995
vn -0.7126364 0.0000000 0.7015335
vn -0.7126364 0.0000000 0.7015335
vn -0.8660257 0.0000000 0.4999995
vn -0.7071066 0.0000000 0.7071070
vn -0.7126364 0.0000000 0.7015335
vn -0.7071066 0.0000000 0.7071070
vn -0.7071066 0.0000000 0.7071070
vn -0.7071066 0.0000000 0.7071070
vn -0.7071066 0.0000000 0.7071070
vn -0.5067832 0.0000000 0.8620735
vn -0.5067832 0.0000000 0.8620735
vn -0.7071066 0.0000000 0.7071070
vn -0.4999993 0.0000000 0.8660258
vn -0.5067832 0.0000000 0.8620735
vn -0.4999993 0.0000000 0.8660258
vn -0.4999993 0.0000000 0.8660258
vn -0.4999993 0.0000000 0.8660258
vn -0.4999993 0.0000000 0.8660258
vn -0.2663941 0.0000000 0.9638642
vn -0.2663941 0.0000000 0.9638642
vn -0.4999993 0.0000000 0.8660258
vn -0.2588185 0.0000000 0.9659260
vn -0.2663941 0.0000000 0.9638642
vn -0.2588185 0.0000000 0.9659260
vn -0.2588185 0.0000000 0.9659260
vn -0.2588185 0.0000000 0.9659260
vn -0.2588185 0.0000000 0.9659260
vn -0.1416735 0.0000000 0.9899134
vn -0.2588185 0.0000000 0.9659260
vn -0.1416735 0.0000000 0.9899134
vn -0.1416735 0.0000000 0.9899134
vn -0.1416735 0.0000000 0.9899134
vn -0.2588185 0.0000000 0.9659260
vn -0.1416735 0.0000000 0.9899134
vn -0.1416735 0.0000000 -0.9899134
vn -0.2588185 0.0000000 -0.9659260
vn -0.1416735 0.0000000 -0.9899134
vn -0.1416735 0.0000000 -0.9899134
vn -0.2588185 0.0000000 -0.9659260
vn -0.2588185 0.0000000 -0.9659260
vn -0.1416735 0.0000000 -0.9899134
vn -0.2588185 0.0000000 -0.9659260
vn -0.1416735 0.0000000 -0.9899134
vn -0.2588185 0.0000000 -0.9659260
vn -0.2588185 0.0000000 -0.9659260
vn -0.4999993 0.0000000 -0.8660258
vn -0.2588185 0.0000000 -0.9659260
vn -0.4999993 0.0000000 -0.8660258
vn -0.2663941 0.0000000 -0.9638642
vn -0.2663941 0.0000000 -0.9638642
vn -0.4999993 0.0000000 -0.8660258
vn -0.4999993 0.0000000 -0.8660258
vn -0.4999993 0.0000000 -0.8660258
vn -0.4999993 0.0000000 -0.8660258
vn -0.7071066 0.0000000 -0.7071070
vn -0.4999993 0.0000000 -0.8660258
vn -0.7071066 0.0000000 -0.7071070
vn -0.5067832 0.0000000 -0.8620735
vn -0.5067832 0.0000000 -0.8620735
vn -0.7071066 0.0000000 -0.7071070
vn -0.7071066 0.0000000 -0.7071070
vn -0.7071066 0.0000000 -0.7071070
vn -0.7071066 0.0000000 -0.7071070
vn -0.8660257 0.0000000 -0.4999995
vn -0.7071066 0.0000000 -0.7071070
vn -0.8660257 0.0000000 -0.4999995
vn -0.7126364 0.0000000 -0.7015335
vn -0.7126364 0.0000000 -0.7015335
vn -0.8660257 0.0000000 -0.4999995
vn -0.8660257 0.0000000 -0.4999995
vn -0.8660257 0.0000000 -0.4999995
vn -0.8660257 0.0000000 -0.4999995
vn -0.9659259 0.0000000 -0.2588189
vn -0.8660257 0.0000000 -0.4999995
vn -0.9659259 0.0000000 -0.2588189
vn -0.8699246 0.0000000 -0.4931848
vn -0.8699246 0.0000000 -0.4931848
vn -0.9659259 0.0000000 -0.2588189
vn -0.9659259 0.0000000 -0.2588189
vn -0.9659259 0.0000000 -0.2588189
vn -0.9659259 0.0000000 -0.2588189
vn -1.0000000 0.0000000 0.0000000
vn -0.9659259 0.0000000 -0.2588189
vn -1.0000000 0.0000000 0.0000000
vn -0.9679281 0.0000000 -0.2512273
vn -0.9679281 0.0000000 -0.2512273
vn -1.0000000 0.0000000 0.0000000
vn -1.0000000 0.0000000 0.0000000
vn -0.8660254 0.0000000 0.5000001
vn -0.8660254 0.0000000 0.5000001
vn -0.8660254 0.0000000 0.5000001
vn -0.8660254 0.0000000 0.5000001
vn -0.8660254 0.0000000 0.5000001
vn -0.8660254 0.0000000 0.5000001
vn 0.0000002 0.0000000 1.0000000
vn 0.0000002 0.0000000 1.0000000
vn 0.0000002 0.0000000 1.0000000
vn 0.0000002 0.0000000 1.0000000
vn 0.0000002 0.0000000 1.0000000
vn 0.0000002 0.0000000 1.0000000
vn 0.8660255 0.0000000 0.4999999
vn 0.8660255 0.0000000 0.4999999
vn 0.8660255 0.0000000 0.4999999
vn 0.8660255 0.0000000 0.4999999
vn 0.8660255 0.0000000 0.4999999
vn 0.8660255 0.0000000 0.4999999
vn 0.8660254 0.0000000 -0.5000001
vn 0.8660254 0.0000000 -0.5000001
vn 0.8660254 0.0000000 -0.5000001
vn 0.8660254 0.0000000 -0.5000001
vn 0.8660254 0.0000000 -0.5000001
vn 0.8660254 0.0000000 -0.5000001
vn -0.0000002 0.0000000 -1.0000000
vn -0.0000002 0.0000000 -1.0000000
vn -0.0000002 0.0000000 -1.0000000
vn -0.0000002 0.0000000 -1.0000000
vn -0.0000002 0.0000000 -1.0000000
vn -0.0000002 0.0000000 -1.0000000
vn -0.8660255 0.0000000 -0.4999999
vn -0.8660255 0.0000000 -0.4999999
vn -0.8660255 0.0000000 -0.4999999
vn -0.8660255 0.0000000 -0.4999999
vn -0.8660255 0.0000000 -0.4999999
vn -0.8660255 0.0000000 -0.4999999
vn 0.0000000 -1.0000000 0.0000000
vn 0.0000000 -1.0000000 0.0000000
vn 0.0000000 -1.0000000 0.0000000
vn 0.0000000 -1.0000000 0.0000000
vn 0.0000000 -1.0000000 0.0000000
vn 0.0000000 -1.0000000 0.0000000
vn 0.0000000 -1.0000000 0.0000000
vn 0.0000000 -1.0000000 0.0000000
vn 0.0000000 -1.0000000 0.0000000
vn 0.0000000 -1.0000000 0.0000000
vn 0.0000000 -1.0000000 0.0000000
vn 0.0000000 -1.0000000 0.0000000
vn 0.0000000 1.0000000 0.0000000
vn 0.0000000 1.0000000 0.0000000
vn 0.0000000 1.0000000 0.0000000
vn 0.0000000 1.0000000 0.0000000
vn 0.0000000 1.0000000 0.0000000
vn 0.0000000 1.0000000 0.0000000
vn 0.0000000 1.0000000 0.0000000
vn 0.0000000 1.0000000 0.0000000
vn 0.0000000 1.0000000 0.0000000
vn 0.0000000 1.0000000 0.0000000
vn 0.0000000 1.0000000 0.0000000
vn 0.0000000 1.0000000 0.0000000
vn -0.8660254 0.0000000 0.5000001
vn -0.8660254 0.0000000 0.5000001
vn -0.8660254 0.0000000 0.5000001
vn -0.8660254 0.0000000 0.5000001
vn -0.8660254 0.0000000 0.5000001
vn -0.8660254 0.0000000 0.5000001
vn 0.0000002 0.0000000 1.0000000
vn 0.0000002 0.0000000 1.0000000
vn 0.0000002 0.0000000 1.0000000
vn 0.0000002 0.0000000 1.0000000
vn 0.0000002 0.0000000 1.0000000
vn 0.0000002 0.0000000 1.0000000
vn 0.8660255 0.0000000 0.4999999
vn 0.8660255 0.0000000 0.4999999
vn 0.8660255 0.0000000 0.4999999
vn 0.8660255 0.0000000 0.4999999
vn 0.8660255 0.0000000 0.4999999
vn 0.8660255 0.0000000 0.4999999
vn 0.8660254 0.0000000 -0.5000001
vn 0.8660254 0.0000000 -0.5000001
vn 0.8660254 0.0000000 -0.5000001
vn 0.8660254 0.0000000 -0.5000001
vn 0.8660254 0.0000000 -0.5000001
vn 0.8660254 0.0000000 -0.5000001
vn -0.0000002 0.0000000 -1.0000000
vn -0.0000002 0.0000000 -1.0000000
vn -0.0000002 0.0000000 -1.0000000
vn -0.0000002 0.0000000 -1.0000000
vn -0.0000002 0.0000000 -1.0000000
vn -0.0000002 0.0000000 -1.0000000
vn -0.8660255 0.0000000 -0.4999999
vn -0.8660255 0.0000000 -0.4999999
vn -0.8660255 0.0000000 -0.4999999
vn -0.8660255 0.0000000 -0.4999999
vn -0.8660255 0.0000000 -0.4999999
vn -0.8660255 0.0000000 -0.4999999
vn 0.0000000 -1.0000000 0.0000000
vn 0.0000000 -1.0000000 0.0000000
vn 0.0000000 -1.0000000 0.0000000
vn 0.0000000 -1.0000000 0.0000000
vn 0.0000000 -1.0000000 0.0000000
vn 0.0000000 -1.0000000 0.0000000
vn 0.0000000 -1.0000000 0.0000000
vn 0.0000000 -1.0000000 0.0000000
vn 0.0000000 -1.0000000 0.0000000
vn 0.0000000 -1.0000000 0.0000000
vn 0.0000000 -1.0000000 0.0000000
vn 0.0000000 -1.0000000 0.0000000
vn 0.0000000 1.0000000 0.0000000
vn 0.0000000 1.0000000 0.0000000
vn 0.0000000 1.0000000 0.0000000
vn 0.0000000 1.0000000 0.0000000
vn 0.0000000 1.0000000 0.0000000
vn 0.0000000 1.0000000 0.0000000
vn 0.0000000 1.0000000 0.0000000
vn 0.0000000 1.0000000 0.0000000
vn 0.0000000 1.0000000 0.0000000
vn 0.0000000 1.0000000 0.0000000
vn 0.0000000 1.0000000 0.0000000
vn 0.0000000 1.0000000 0.0000000
vn -0.8660254 0.0000000 0.5000001
vn -0.8660254 0.0000000 0.5000001
vn -0.8660254 0.0000000 0.5000001
vn -0.8660254 0.0000000 0.5000001
vn -0.8660254 0.0000000 0.5000001
vn -0.8660254 0.0000000 0.5000001
vn 0.0000002 0.0000000 1.0000000
vn 0.0000002 0.0000000 1.0000000
vn 0.0000002 0.0000000 1.0000000
vn 0.0000002 0.0000000 1.0000000
vn 0.0000002 0.0000000 1.0000000
vn 0.0000002 0.0000000 1.0000000
vn 0.8660255 0.0000000 0.4999999
vn 0.8660255 0.0000000 0.4999999
vn 0.8660255 0.0000000 0.4999999
vn 0.8660255 0.0000000 0.4999999
vn 0.8660255 0.0000000 0.4999999
vn 0.8660255 0.0000000 0.4999999
vn 0.8660254 0.0000000 -0.5000001
vn 0.8660254 0.0000000 -0.5000001
vn 0.8660254 0.0000000 -0.5000001
vn 0.8660254 0.0000000 -0.5000001
vn 0.8660254 0.0000000 -0.5000001
vn 0.8660254 0.0000000 -0.5000001
vn -0.0000002 0.0000000 -1.0000000
vn -0.0000002 0.0000000 -1.0000000
vn -0.0000002 0.0000000 -1.0000000
vn -0.0000002 0.0000000 -1.0000000
vn -0.0000002 0.0000000 -1.0000000
vn -0.0000002 0.0000000 -1.0000000
vn -0.8660255 0.0000000 -0.4999999
vn -0.8660255 0.0000000 -0.4999999
vn -0.8660255 0.0000000 -0.4999999
vn -0.8660255 0.0000000 -0.4999999
vn -0.8660255 0.0000000 -0.4999999
vn -0.8660255 0.0000000 -0.4999999
vn 0.0000000 -1.0000000 0.0000000
vn 0.0000000 -1.0000000 0.0000000
vn 0.0000000 -1.0000000 0.0000000
vn 0.0000000 -1.0000000 0.0000000
vn 0.0000000 -1.0000000 0.0000000
vn 0.0000000 -1.0000000 0.0000000
vn 0.0000000 -1.0000000 0.0000000
vn 0.0000000 -1.0000000 0.0000000
vn 0.0000000 -1.0000000 0.0000000
vn 0.0000000 -1.0000000 0.0000000
vn 0.0000000 -1.0000000 0.0000000
vn 0.0000000 -1.0000000 0.0000000
vn 0.0000000 1.0000000 0.0000000
vn 0.0000000 1.0000000 0.0000000
vn 0.0000000 1.0000000 0.0000000
vn 0.0000000 1.0000000 0.0000000
vn 0.0000000 1.0000000 0.0000000
vn 0.0000000 1.0000000 0.0000000
vn 0.0000000 1.0000000 0.0000000
vn 0.0000000 1.0000000 0.0000000
vn 0.0000000 1.0000000 0.0000000
vn 0.0000000 1.0000000 0.0000000
vn 0.0000000 1.0000000 0.0000000
vn 0.0000000 1.0000000 0.0000000
vn -0.8660254 0.0000000 0.5000001
vn -0.8660254 0.0000000 0.5000001
vn -0.8660254 0.0000000 0.5000001
vn -0.8660254 0.0000000 0.5000001
vn -0.8660254 0.0000000 0.5000001
vn -0.8660254 0.0000000 0.5000001
vn 0.0000002 0.0000000 1.0000000
vn 0.0000002 0.0000000 1.0000000
vn 0.0000002 0.0000000 1.0000000
vn 0.0000002 0.0000000 1.0000000
vn 0.0000002 0.0000000 1.0000000
vn 0.0000002 0.0000000 1.0000000
vn 0.8660255 0.0000000 0.4999999
vn 0.8660255 0.0000000 0.4999999
vn 0.8660255 0.0000000 0.4999999
vn 0.8660255 0.0000000 0.4999999
vn 0.8660255 0.0000000 0.4999999
vn 0.8660255 0.0000000 0.4999999
vn 0.8660254 0.0000000 -0.5000001
vn 0.8660254 0.0000000 -0.5000001
vn 0.8660254 0.0000000 -0.5000001
vn 0.8660254 0.0000000 -0.5000001
vn 0.8660254 0.0000000 -0.5000001
vn 0.8660254 0.0000000 -0.5000001
vn -0.0000002 0.0000000 -1.0000000
vn -0.0000002 0.0000000 -1.0000000
vn -0.0000002 0.0000000 -1.0000000
vn -0.0000002 0.0000000 -1.0000000
vn -0.0000002 0.0000000 -1.0000000
vn -0.0000002 0.0000000 -1.0000000
vn -0.8660255 0.0000000 -0.4999999
vn -0.8660255 0.0000000 -0.4999999
vn -0.8660255 0.0000000 -0.4999999
vn -0.8660255 0.0000000 -0.4999999
vn -0.8660255 0.0000000 -0.4999999
vn -0.8660255 0.0000000 -0.4999999
vn 0.0000000 -1.0000000 0.0000000
vn 0.0000000 -1.0000000 0.0000000
vn 0.0000000 -1.0000000 0.0000000
vn 0.0000000 -1.0000000 0.0000000
vn 0.0000000 -1.0000000 0.0000000
vn 0.0000000 -1.0000000 0.0000000
vn 0.0000000 -1.0000000 0.0000000
vn 0.0000000 -1.0000000 0.0000000
vn 0.0000000 -1.0000000 0.0000000
vn 0.0000000 -1.0000000 0.0000000
vn 0.0000000 -1.0000000 0.0000000
vn 0.0000000 -1.0000000 0.0000000
vn 0.0000000 1.0000000 0.0000000
vn 0.0000000 1.0000000 0.0000000
vn 0.0000000 1.0000000 0.0000000
vn 0.0000000 1.0000000 0.0000000
vn 0.0000000 1.0000000 0.0000000
vn 0.0000000 1.0000000 0.0000000
vn 0.0000000 1.0000000 0.0000000
vn 0.0000000 1.0000000 0.0000000
vn 0.0000000 1.0000000 0.0000000
vn 0.0000000 1.0000000 0.0000000
vn 0.0000000 1.0000000 0.0000000
vn 0.0000000 1.0000000 0.0000000
f 1/1/1 2/2/2 3/3/3
f 4/4/4 5/5/5 6/6/6
f 7/7/7 8/8/8 9/9/9
f 10/10/10 11/11/11 12/12/12
f 13/13/13 14/14/14 15/15/15
f 16/16/16 17/17/17 18/18/18
f 19/19/19 20/20/20 21/21/21
f 22/22/22 23/23/23 24/24/24
f 25/25/25 26/26/26 27/27/27
f 28/28/28 29/29/29 30/30/30
f 31/31/31 32/32/32 33/33/33
f 34/34/34 35/35/35 36/36/36
f 37/37/37 38/38/38 39/39/39
f 40/40/40 41/41/41 42/42/42
f 43/43/43 44/44/44 45/45/45
f 46/46/46 47/47/47 48/48/48
f 49/49/49 50/50/50 51/51/51
f 52/52/52 53/53/53 54/54/54
f 55/55/55 56/56/56 57/57/57
f 58/58/58 59/59/59 60/60/60
f 61/61/61 62/62/62 63/63/63
f 64/64/64 65/65/65 66/66/66
f 67/67/67 68/68/68 69/69/69
f 70/70/70 71/71/71 72/72/72
f 73/73/73 74/74/74 75/75/75
f 76/76/76 77/77/77 78/78/78
f 79/79/79 80/80/80 81/81/81
f 82/82/82 83/83/83 84/84/84
f 85/85/85 86/86/86 87/87/87
f 88/88/88 89/89/89 90/90/90
f 91/91/91 92/92/92 93/93/93
f 94/94/94 95/95/95 96/96/96
f 97/97/97 98/98/98 99/99/99
f 100/100/100 101/101/101 102/102/102
f 103/103/103 104/104/104 105/105/105
f 106/106/106 107/107/107 108/108/108
f 109/109/109 110/110/110 111/111/111
f 112/112/112 113/113/113 114/114/114
f 115/115/115 116/116/116 117/117/117
f 118/118/118 119/119/119 120/120/120
f 121/121/121 122/122/122 123/123/123
f 124/124/124 125/125/125 126/126/126
f 127/127/127 128/128/128 129/129/129
f 130/130/130 131/131/131 132/132/132
f 133/133/133 134/134/134 135/135/135
f 136/136/136 137/137/137 138/138/138
f 139/139/139 140/140/140 141/141/141
f 142/142/142 143/143/143 144/144/144
f 145/145/145 146/146/146 147/147/147
f 148/148/148 149/149/149 150/150/150
f 151/151/151 152/152/152 153/153/153
f 154/154/154 155/155/155 156/156/156
f 157/157/157 158/158/158 159/159/159
f 160/160/160 161/161/161 162/162/162
f 163/163/163 164/164/164 165/165/165
f 166/166/166 167/167/167 168/168/168
f 169/169/169 170/170/170 171/171/171
f 172/172/172 173/173/173 174/174/174
f 175/175/175 176/176/176 177/177/177
f 178/178/178 179/179/179 180/180/180
f 181/181/181 182/182/182 183/183/183
f 184/184/184 185/185/185 186/186/186
f 187/187/187 188/188/188 189/189/189
f 190/190/190 191/191/191 192/192/192
f 193/193/193 194/194/194 195/195/195
f 196/196/196 197/197/197 198/198/198
f 199/199/199 200/200/200 201/201/201
f 202/202/202 203/203/203 204/204/204
f 205/205/205 206/206/206 207/207/207
f 208/208/208 209/209/209 210/210/210
f 211/211/211 212/212/212 213/213/213
f 214/214/214 215/215/215 216/216/216
f 217/217/217 218/218/218 219/219/219
f 220/220/220 221/221/221 222/222/222
f 223/223/223 224/224/224 225/225/225
f 226/226/226 227/227/227 228/228/228
f 229/229/229 230/230/230 231/231/231
f 232/232/232 233/233/233 234/234/234
f 235/235/235 236/236/236 237/237/237
f 238/238/238 239/239/239 240/240/240
f 241/241/241 242/242/242 243/243/243
f 244/244/244 245/245/245 246/246/246
f 247/247/247 248/248/248 249/249/249
f 250/250/250 251/251/251 252/252/252
f 253/253/253 254/254/254 255/255/255
f 256/256/256 257/257/257 258/258/258
f 259/259/259 260/260/260 261/261/261
f 262/262/262 263/263/263 264/264/264
f 265/265/265 266/266/266 267/267/267
f 268/268/268 269/269/269 270/270/270
f 271/271/271 272/272/272 273/273/273
f 274/274/274 275/275/275 276/276/276
f 277/277/277 278/278/278 279/279/279
f 280/280/280 281/281/281 282/282/282
f 283/283/283 284/284/284 285/285/285
f 286/286/286 287/287/287 288/288/288
f 289/289/289 290/290/290 291/291/291
f 292/292/292 293/293/293 294/294/294
f 295/295/295 296/296/296 297/297/297
f 298/298/298 299/299/299 300/300/300
f 301/301/301 302/302/302 303/303/303
f 304/304/304 305/305/305 306/306/306
f 307/307/307 308/308/308 309/309/309
f 310/310/310 311/311/311 312/312/312
f 313/313/313 314/314/314 315/315/315
f 316/316/316 317/317/317 318/318/318
f 319/319/319 320/320/320 321/321/321
f 322/322/322 323/323/323 324/324/324
f 325/325/325 326/326/326 327/327/327
f 328/328/328 329/329/329 330/330/330
f 331/331/331 332/332/332 333/333/333
f 334/334/334 335/335/335 336/336/336
f 337/337/337 338/338/338 339/339/339
f 340/340/340 341/341/341 342/342/342
f 343/343/343 344/344/344 345/345/345
f 346/346/346 347/347/347 348/348/348
f 349/349/349 350/350/350 351/351/351
f 352/352/352 353/353/353 354/354/354
f 355/355/355 356/356/356 357/357/357
f 358/358/358 359/359/359 360/360/360
f 361/361/361 362/362/362 363/363/363
f 364/364/364 365/365/365 366/366/366
f 367/367/367 368/368/368 369/369/369
f 370/370/370 371/371/371 372/372/372
f 373/373/373 374/374/374 375/375/375
f 376/376/376 377/377/377 378/378/378
f 379/379/379 380/380/380 381/381/381
f 382/382/382 383/383/383 384/384/384
f 385/385/385 386/386/386 387/387/387
f 388/388/388 389/389/389 390/390/390
f 391/391/391 392/392/392 393/393/393
f 394/394/394 395/395/395 396/396/396
f 397/397/397 398/398/398 399/399/399
f 400/400/400 401/401/401 402/402/402
f 403/403/403 404/404/404 405/405/405
f 406/406/406 407/407/407 408/408/408
f 409/409/409 410/410/410 411/411/411
f 412/412/412 413/413/413 414/414/414
f 415/415/415 416/416/416 417/417/417
f 418/418/418 419/419/419 420/420/420
f 421/421/421 422/422/422 423/423/423
f 424/424/424 425/425/425 426/426/426
f 427/427/427 428/428/428 429/429/429
f 430/430/430 431/431/431 432/432/432
f 433/433/433 434/434/434 435/435/435
f 436/436/436 437/437/437 438/438/438
f 439/439/439 440/440/440 441/441/441
f 442/442/442 443/443/443 444/444/444
f 445/445/445 446/446/446 447/447/447
f 448/448/448 449/449/449 450/450/450
f 451/451/451 452/452/452 453/453/453
f 454/454/454 455/455/455 456/456/456
f 457/457/457 458/458/458 459/459/459
f 460/460/460 461/461/461 462/462/462
f 463/463/463 464/464/464 465/465/465
f 466/466/466 467/467/467 468/468/468
f 469/469/469 470/470/470 471/471/471
f 472/472/472 473/473/473 474/474/474
f 475/475/475 476/476/476 477/477/477
f 478/478/478 479/479/479 480/480/480
f 481/481/481 482/482/482 483/483/483
f 484/484/484 485/485/485 486/486/486
f 487/487/487 488/488/488 489/489/489
f 490/490/490 491/491/491 492/492/492
f 493/493/493 494/494/494 495/495/495
f 496/496/496 497/497/497 498/498/498
f 499/499/499 500/500/500 501/501/501
f 502/502/502 503/503/503 504/504/504
f 505/505/505 506/506/506 507/507/507
f 508/508/508 509/509/509 510/510/510
f 511/511/511 512/512/512 513/513/513
f 514/514/514 515/515/515 516/516/516
f 517/517/517 518/518/518 519/519/519
f 520/520/520 521/521/521 522/522/522
f 523/523/523 524/524/524 525/525/525
f 526/526/526 527/527/527 528/528/528
f 529/529/529 530/530/530 531/531/531
f 532/532/532 533/533/533 534/534/534
f 535/535/535 536/536/536 537/537/537
f 538/538/538 539/539/539 540/540/540
f 541/541/541 542/542/542 543/543/543
f 544/544/544 545/545/545 546/546/546
f 547/547/547 548/548/548 549/549/549
f 550/550/550 551/551/551 552/552/552
f 553/553/553 554/554/554 555/555/555
f 556/556/556 557/557/557 558/558/558
f 559/559/559 560/560/560 561/561/561
f 562/562/562 563/563/563 564/564/564
f 565/565/565 566/566/566 567/567/567
f 568/568/568 569/569/569 570/570/570
f 571/571/571 572/572/572 573/573/573
f 574/574/574 575/575/575 576/576/576
f 577/577/577 578/578/578 579/579/579
f 580/580/580 581/581/581 582/582/582
f 583/583/583 584/584/584 585/585/585
f 586/586/586 587/587/587 588/588/588
f 589/589/589 590/590/590 591/591/591
f 592/592/592 593/593/593 594/594/594
f 595/595/595 596/596/596 597/597/597
f 598/598/598 599/599/599 600/600/600
f 601/601/601 602/602/602 603/603/603
f 604/604/604 605/605/605 606/606/606
f 607/607/607 608/608/608 609/609/609
f 610/610/610 611/611/611 612/612/612
f 613/613/613 614/614/614 615/615/615
f 616/616/616 617/617/617 618/618/618
f 619/619/619 620/620/620 621/621/621
f 622/622/622 623/623/623 624/624/624
f 625/625/625 626/626/626 627/627/627
f 628/628/628 629/629/629 630/630/630
f 631/631/631 632/632/632 633/633/633
f 634/634/634 635/635/635 636/636/636
f 637/637/637 638/638/638 639/639/639
f 640/640/640 641/641/641 642/642/642
f 643/643/643 644/644/644 645/645/645
f 646/646/646 647/647/647 648/648/648
f 649/649/649 650/650/650 651/651/651
f 652/652/652 653/653/653 654/654/654
f 655/655/655 656/656/656 657/657/657
f 658/658/658 659/659/659 660/660/660
f 661/661/661 662/662/662 663/663/663
f 664/664/664 665/665/665 666/666/666
f 667/667/667 668/668/668 669/669/669
f 670/670/670 671/671/671 672/672/672
f 673/673/673 674/674/674 675/675/675
f 676/676/676 677/677/677 678/678/678
f 679/679/679 680/680/680 681/681/681
f 682/682/682 683/683/683 684/684/684
f 685/685/685 686/686/686 687/687/687
f 688/688/688 689/689/689 690/690/690
f 691/691/691 692/692/692 693/693/693
f 694/694/694 695/695/695 696/696/696
f 697/697/697 698/698/698 699/699/699
f 700/700/700 701/701/701 702/702/702
f 703/703/703 704/704/704 705/705/705
f 706/706/706 707/707/707 708/708/708
f 709/709/709 710/710/710 711/711/711
f 712/712/712 713/713/713 714/714/714
f 715/715/715 716/716/716 717/717/717
f 718/718/718 719/719/719 720/720/720
f 721/721/721 722/722/722 723/723/723
f 724/724/724 725/725/725 726/726/726
f 727/727/727 728/728/728 729/729/729
f 730/730/730 731/731/731 732/732/732
f 733/733/733 734/734/734 735/735/735
f 736/736/736 737/737/737 738/738/738
f 739/739/739 740/740/740 741/741/741
f 742/742/742 743/743/743 744/744/744
f 745/745/745 746/746/746 747/747/747
f 748/748/748 749/749/749 750/750/750
f 751/751/751 752/752/752 753/753/753
f 754/754/754 755/755/755 756/756/756
f 757/757/757 758/758/758 759/759/759
f 760/760/760 761/761/761 762/762/762
f 763/763/763 764/764/764 765/765/765
f 766/766/766 767/767/767 768/768/768
f 769/769/769 770/770/770 771/771/771
f 772/772/772 773/773/773 774/774/774
f 775/775/775 776/776/776 777/777/777
f 778/778/778 779/779/779 780/780/780
f 781/781/781 782/782/782 783/783/783
f 784/784/784 785/785/785 786/786/786
f 787/787/787 788/788/788 789/789/789
f 790/790/790 791/791/791 792/792/792
f 793/793/793 794/794/794 795/795/795
f 796/796/796 797/797/797 798/798/798
f 799/799/799 800/800/800 801/801/801
f 802/802/802 803/803/803 804/804/804
f 805/805/805 806/806/806 807/807/807
f 808/808/808 809/809/809 810/810/810
f 811/811/811 812/812/812 813/813/813
f 814/814/814 815/815/815 816/816/816
f 817/817/817 818/818/818 819/819/819
f 820/820/820 821/821/821 822/822/822
f 823/823/823 824/824/824 825/825/825
f 826/826/826 827/827/827 828/828/828

usemtl pump_atlas
v 0.0000000 0.0000000 0.3950000
v 0.0699999 0.0000000 0.3950000
v 0.0699999 0.9650000 0.3950000
v 0.0000000 0.9650000 0.3950000
v 0.0000000 0.0000000 0.6050000
v 0.0699999 0.0000000 0.6050000
v 0.0699999 0.9650000 0.6050000
v 0.0000000 0.9650000 0.6050000
vt 0.05 0.05
f 829/829 832/829 831/829 830/829
f 833/829 834/829 835/829 836/829
f 829/829 833/829 836/829 832/829
f 830/829 831/829 835/829 834/829
f 832/829 836/829 835/829 831/829
f 829/829 830/829 834/829 833/829

usemtl pump_atlas
v 0.0000000 0.7550000 0.3950000
v 0.0699999 0.7550000 0.3950000
v 0.0699999 0.9650000 0.3950000
v 0.0000000 0.9650000 0.3950000
v 0.0000000 0.7550000 0.6050000
v 0.0699999 0.7550000 0.6050000
v 0.0699999 0.9650000 0.6050000
v 0.0000000 0.9650000 0.6050000
vt 0.05 0.05
f 837/830 840/830 839/830 838/830
f 841/830 842/830 843/830 844/830
f 837/830 841/830 844/830 840/830
f 838/830 839/830 843/830 842/830
f 840/830 844/830 843/830 839/830
f 837/830 838/830 842/830 841/830
