# metre = block; Y up; per-cell coordinates; atlas UVs preserved
mtllib materials.mtl
o cell_68
usemtl pump_atlas
v 0.6010200 0.3213029 0.0000000
v 0.6325000 0.3595703 0.0255694
v 0.6325000 0.3732374 0.0000000
v 0.5225000 0.1282060 0.0552061
v 0.6325000 0.2419229 0.1689231
v 0.6325000 0.3595703 0.0255694
v 0.5225000 0.1282060 0.0552061
v 0.6325000 0.3595703 0.0255694
v 0.6010200 0.3213029 0.0000000
v 0.5225000 0.1282060 0.0552061
v 0.6010200 0.3213029 0.0000000
v 0.5225000 0.1735125 0.0000000
v 0.5225000 0.0092225 0.1528533
v 0.6325000 0.0985694 0.2865703
v 0.6325000 0.2419229 0.1689231
v 0.5225000 0.0092225 0.1528533
v 0.6325000 0.2419229 0.1689231
v 0.5225000 0.1282060 0.0552061
v 0.6325000 0.0000000 0.3392568
v 0.6325000 0.0985694 0.2865703
v 0.5843307 0.0000000 0.2597888
v 0.5843307 0.0000000 0.2597888
v 0.6325000 0.0985694 0.2865703
v 0.5225000 0.0092225 0.1528533
v 0.5843307 0.0000000 0.2597888
v 0.5225000 0.0092225 0.1528533
v 0.5225000 0.0000000 0.1577828
v 0.6325000 0.3595703 0.0255694
v 0.7645000 0.3595703 0.0255694
v 0.7645000 0.3732374 0.0000000
v 0.6325000 0.3595703 0.0255694
v 0.7645000 0.3732374 0.0000000
v 0.6531368 0.3732374 0.0000000
v 0.6325000 0.3595703 0.0255694
v 0.6531368 0.3732374 0.0000000
v 0.6325000 0.3732374 0.0000000
v 0.6325000 0.2419229 0.1689231
v 0.7645000 0.2419229 0.1689231
v 0.7645000 0.3595703 0.0255694
v 0.6325000 0.2419229 0.1689231
v 0.7645000 0.3595703 0.0255694
v 0.6325000 0.3595703 0.0255694
v 0.6325000 0.0985694 0.2865703
v 0.7645000 0.0985694 0.2865703
v 0.7645000 0.2419229 0.1689231
v 0.6325000 0.0985694 0.2865703
v 0.7645000 0.2419229 0.1689231
v 0.6325000 0.2419229 0.1689231
v 0.7645000 0.0000000 0.3392568
v 0.7645000 0.0985694 0.2865703
v 0.6849458 0.0000000 0.3392568
v 0.6849458 0.0000000 0.3392568
v 0.7645000 0.0985694 0.2865703
v 0.6325000 0.0985694 0.2865703
v 0.6849458 0.0000000 0.3392568
v 0.6325000 0.0985694 0.2865703
v 0.6325000 0.0000000 0.3392568
v 0.7645000 0.3595703 0.0255694
v 1.0000000 0.3595703 0.0255694
v 1.0000000 0.3695787 0.0068449
v 0.7645000 0.3595703 0.0255694
v 1.0000000 0.3695787 0.0068449
v 1.0000000 0.3732374 0.0000000
v 0.7645000 0.3595703 0.0255694
v 1.0000000 0.3732374 0.0000000
v 0.7645000 0.3732374 0.0000000
v 0.7645000 0.2419229 0.1689231
v 1.0000000 0.2419229 0.1689231
v 1.0000000 0.2553920 0.1525109
v 0.7645000 0.2419229 0.1689231
v 1.0000000 0.2553920 0.1525109
v 1.0000000 0.3595703 0.0255694
v 0.7645000 0.2419229 0.1689231
v 1.0000000 0.3595703 0.0255694
v 0.7645000 0.3595703 0.0255694
v 0.7645000 0.0985694 0.2865703
v 1.0000000 0.0985694 0.2865703
v 1.0000000 0.1149815 0.2731012
v 0.7645000 0.0985694 0.2865703
v 1.0000000 0.1149815 0.2731012
v 1.0000000 0.2419229 0.1689231
v 0.7645000 0.0985694 0.2865703
v 1.0000000 0.2419229 0.1689231
v 0.7645000 0.2419229 0.1689231
v 1.0000000 0.0000000 0.3392568
v 1.0000000 0.0985694 0.2865703
v 0.7645000 0.0985694 0.2865703
v 1.0000000 0.0000000 0.3392568
v 0.7645000 0.0985694 0.2865703
v 0.7645000 0.0000000 0.3392568
v 0.5225000 0.0000000 0.1577828
v 0.5225000 0.0092225 0.1528533
v 0.5225000 0.0000000 0.1556509
v 0.5225000 0.0000000 0.1556509
v 0.5225000 0.0092225 0.1528533
v 0.5225000 0.1282060 0.0552061
v 0.5225000 0.0000000 0.1556509
v 0.5225000 0.1282060 0.0552061
v 0.5225000 0.0000000 0.1083108
v 0.5225000 0.0000000 0.1083108
v 0.5225000 0.1282060 0.0552061
v 0.5225000 0.1735125 0.0000000
v 0.5225000 0.0000000 0.1083108
v 0.5225000 0.1735125 0.0000000
v 0.5225000 0.1065341 0.0000000
v 0.5225000 0.0000000 0.1083108
v 0.5225000 0.1065341 0.0000000
v 0.5225000 0.0000000 0.0569437
v 0.5225000 0.0000000 0.0569437
v 0.5225000 0.1065341 0.0000000
v 0.5225000 0.0000000 0.0000000
v 0.6105000 0.2218552 0.1488553
v 0.6985000 0.2218552 0.1488553
v 0.6985000 0.3360760 0.0000000
v 0.6105000 0.2218552 0.1488553
v 0.6985000 0.3360760 0.0000000
v 0.6794271 0.3360760 0.0000000
v 0.6105000 0.2218552 0.1488553
v 0.6794271 0.3360760 0.0000000
v 0.6105000 0.3360760 0.0000000
v 0.6105000 0.0318100 0.2946823
v 0.6985000 0.0318100 0.2946823
v 0.6985000 0.2218552 0.1488553
v 0.6105000 0.0318100 0.2946823
v 0.6985000 0.2218552 0.1488553
v 0.6105000 0.2218552 0.1488553
v 0.6985000 0.0000000 0.3078584
v 0.6985000 0.0318100 0.2946823
v 0.6858515 0.0000000 0.3078584
v 0.6858515 0.0000000 0.3078584
v 0.6985000 0.0318100 0.2946823
v 0.6105000 0.0318100 0.2946823
v 0.6858515 0.0000000 0.3078584
v 0.6105000 0.0318100 0.2946823
v 0.6105000 0.0000000 0.3078584
v 0.6105000 0.0000000 0.3078584
v 0.6105000 0.0318100 0.2946823
v 0.6105000 0.0000000 0.3032058
v 0.6105000 0.0000000 0.3032058
v 0.6105000 0.0318100 0.2946823
v 0.6105000 0.2218552 0.1488553
v 0.6105000 0.0000000 0.3032058
v 0.6105000 0.2218552 0.1488553
v 0.6105000 0.0000000 0.2407508
v 0.6105000 0.0000000 0.2407508
v 0.6105000 0.2218552 0.1488553
v 0.6105000 0.3360760 0.0000000
v 0.6105000 0.0000000 0.2407508
v 0.6105000 0.3360760 0.0000000
v 0.6105000 0.2963390 0.0000000
v 0.6105000 0.0000000 0.2407508
v 0.6105000 0.2963390 0.0000000
v 0.6105000 0.0000000 0.1710915
v 0.6105000 0.0000000 0.1710915
v 0.6105000 0.2963390 0.0000000
v 0.6105000 0.1172530 0.0000000
v 0.6105000 0.0000000 0.1710915
v 0.6105000 0.1172530 0.0000000
v 0.6105000 0.0000000 0.0899714
v 0.6105000 0.0000000 0.0899714
v 0.6105000 0.1172530 0.0000000
v 0.6105000 0.0000000 0.0000000
v 0.6985000 0.1172530 0.0000000
v 0.6985000 0.0000000 0.0899714
v 0.6985000 0.0000000 0.0000000
v 0.6985000 0.0000000 0.0899714
v 0.6985000 0.1172530 0.0000000
v 0.6985000 0.2963390 0.0000000
v 0.6985000 0.0000000 0.0899714
v 0.6985000 0.2963390 0.0000000
v 0.6985000 0.0000000 0.1710915
v 0.6985000 0.0000000 0.1710915
v 0.6985000 0.2963390 0.0000000
v 0.6985000 0.3360760 0.0000000
v 0.6985000 0.0000000 0.1710915
v 0.6985000 0.3360760 0.0000000
v 0.6985000 0.2218552 0.1488553
v 0.6985000 0.0000000 0.1710915
v 0.6985000 0.2218552 0.1488553
v 0.6985000 0.0000000 0.2407508
v 0.6985000 0.0000000 0.2407508
v 0.6985000 0.2218552 0.1488553
v 0.6985000 0.0318100 0.2946823
v 0.6985000 0.0000000 0.2407508
v 0.6985000 0.0318100 0.2946823
v 0.6985000 0.0000000 0.3032058
v 0.6985000 0.0000000 0.3032058
v 0.6985000 0.0318100 0.2946823
v 0.6985000 0.0000000 0.3078584
v 0.7700000 0.1112499 0.2707806
v 0.7744000 0.1086638 0.2672209
v 0.7744000 0.1076903 0.2733668
v 0.7700000 0.1397274 0.2500905
v 0.7744000 0.1432872 0.2475042
v 0.7744000 0.1371412 0.2465308
v 0.7700000 0.1545699 0.3304051
v 0.7744000 0.1510100 0.3329914
v 0.7744000 0.1571560 0.3339648
v 0.7700000 0.1830473 0.3097150
v 0.7744000 0.1856334 0.3132747
v 0.7744000 0.1866069 0.3071288
v 0.7744000 0.1076903 0.2733668
v 0.7744000 0.1086638 0.2672209
v 1.0000000 0.1086638 0.2672209
v 0.7744000 0.1076903 0.2733668
v 1.0000000 0.1086638 0.2672209
v 1.0000000 0.1077987 0.2726825
v 0.7744000 0.1076903 0.2733668
v 1.0000000 0.1077987 0.2726825
v 1.0000000 0.1076903 0.2733668
v 0.7700000 0.1112499 0.2707806
v 0.7700000 0.1397274 0.2500905
v 0.7744000 0.1371412 0.2465308
v 0.7700000 0.1112499 0.2707806
v 0.7744000 0.1371412 0.2465308
v 0.7744000 0.1086638 0.2672209
v 0.7744000 0.1371412 0.2465308
v 0.7744000 0.1432872 0.2475042
v 1.0000000 0.1432872 0.2475042
v 0.7744000 0.1371412 0.2465308
v 1.0000000 0.1432872 0.2475042
v 1.0000000 0.1378255 0.2466392
v 0.7744000 0.1371412 0.2465308
v 1.0000000 0.1378255 0.2466392
v 1.0000000 0.1371412 0.2465308
v 0.7700000 0.1545699 0.3304051
v 0.7744000 0.1571560 0.3339648
v 0.7744000 0.1856334 0.3132747
v 0.7700000 0.1545699 0.3304051
v 0.7744000 0.1856334 0.3132747
v 0.7700000 0.1830473 0.3097150
v 0.7744000 0.1510100 0.3329914
v 1.0000000 0.1510100 0.3329914
v 1.0000000 0.1516943 0.3330998
v 0.7744000 0.1510100 0.3329914
v 1.0000000 0.1516943 0.3330998
v 1.0000000 0.1571560 0.3339648
v 0.7744000 0.1510100 0.3329914
v 1.0000000 0.1571560 0.3339648
v 0.7744000 0.1571560 0.3339648
v 0.7744000 0.1856334 0.3132747
v 1.0000000 0.1856334 0.3132747
v 1.0000000 0.1857418 0.3125904
v 0.7744000 0.1856334 0.3132747
v 1.0000000 0.1857418 0.3125904
v 1.0000000 0.1866069 0.3071288
v 0.7744000 0.1856334 0.3132747
v 1.0000000 0.1866069 0.3071288
v 0.7744000 0.1866069 0.3071288
v 0.7700000 0.1112499 0.2707806
v 0.7744000 0.1076903 0.2733668
v 0.7744000 0.1510100 0.3329914
v 0.7700000 0.1112499 0.2707806
v 0.7744000 0.1510100 0.3329914
v 0.7700000 0.1545699 0.3304051
v 0.7700000 0.1397274 0.2500905
v 0.7700000 0.1830473 0.3097150
v 0.7744000 0.1866069 0.3071288
v 0.7700000 0.1397274 0.2500905
v 0.7744000 0.1866069 0.3071288
v 0.7744000 0.1432872 0.2475042
v 0.7744000 0.1076903 0.2733668
v 1.0000000 0.1076903 0.2733668
v 1.0000000 0.1125136 0.2800055
v 0.7744000 0.1076903 0.2733668
v 1.0000000 0.1125136 0.2800055
v 1.0000000 0.1510100 0.3329914
v 0.7744000 0.1076903 0.2733668
v 1.0000000 0.1510100 0.3329914
v 0.7744000 0.1510100 0.3329914
v 0.7744000 0.1086638 0.2672209
v 0.7744000 0.1371412 0.2465308
v 1.0000000 0.1371412 0.2465308
v 0.7744000 0.1086638 0.2672209
v 1.0000000 0.1371412 0.2465308
v 1.0000000 0.1118345 0.2649172
v 0.7744000 0.1086638 0.2672209
v 1.0000000 0.1118345 0.2649172
v 1.0000000 0.1086638 0.2672209
v 0.7700000 0.1112499 0.2707806
v 0.7700000 0.1545699 0.3304051
v 0.7700000 0.1830473 0.3097150
v 0.7700000 0.1112499 0.2707806
v 0.7700000 0.1830473 0.3097150
v 0.7700000 0.1397274 0.2500905
v 0.7744000 0.1432872 0.2475042
v 0.7744000 0.1866069 0.3071288
v 1.0000000 0.1866069 0.3071288
v 0.7744000 0.1432872 0.2475042
v 1.0000000 0.1866069 0.3071288
v 1.0000000 0.1481105 0.2541429
v 0.7744000 0.1432872 0.2475042
v 1.0000000 0.1481105 0.2541429
v 1.0000000 0.1432872 0.2475042
v 0.7744000 0.1571560 0.3339648
v 1.0000000 0.1571560 0.3339648
v 1.0000000 0.1603267 0.3316611
v 0.7744000 0.1571560 0.3339648
v 1.0000000 0.1603267 0.3316611
v 1.0000000 0.1856334 0.3132747
v 0.7744000 0.1571560 0.3339648
v 1.0000000 0.1856334 0.3132747
v 0.7744000 0.1856334 0.3132747
v 0.7700000 0.3230903 0.0667275
v 0.7744000 0.3195307 0.0641412
v 0.7744000 0.3205042 0.0702871
v 0.7700000 0.3437803 0.0382501
v 0.7744000 0.3463666 0.0346904
v 0.7744000 0.3402207 0.0356638
v 0.7700000 0.3827150 0.1100472
v 0.7744000 0.3801286 0.1136069
v 0.7744000 0.3862746 0.1126335
v 0.7700000 0.4034050 0.0815699
v 0.7744000 0.4069645 0.0841561
v 0.7744000 0.4059911 0.0780102
v 0.7744000 0.3205042 0.0702871
v 0.7744000 0.3195307 0.0641412
v 1.0000000 0.3195307 0.0641412
v 0.7744000 0.3205042 0.0702871
v 1.0000000 0.3195307 0.0641412
v 1.0000000 0.3203958 0.0696028
v 0.7744000 0.3205042 0.0702871
v 1.0000000 0.3203958 0.0696028
v 1.0000000 0.3205042 0.0702871
v 0.7700000 0.3230903 0.0667275
v 0.7700000 0.3437803 0.0382501
v 0.7744000 0.3402207 0.0356638
v 0.7700000 0.3230903 0.0667275
v 0.7744000 0.3402207 0.0356638
v 0.7744000 0.3195307 0.0641412
v 0.7744000 0.3402207 0.0356638
v 0.7744000 0.3463666 0.0346904
v 1.0000000 0.3463666 0.0346904
v 0.7744000 0.3402207 0.0356638
v 1.0000000 0.3463666 0.0346904
v 1.0000000 0.3409050 0.0355554
v 0.7744000 0.3402207 0.0356638
v 1.0000000 0.3409050 0.0355554
v 1.0000000 0.3402207 0.0356638
v 0.7700000 0.3827150 0.1100472
v 0.7744000 0.3862746 0.1126335
v 0.7744000 0.4069645 0.0841561
v 0.7700000 0.3827150 0.1100472
v 0.7744000 0.4069645 0.0841561
v 0.7700000 0.4034050 0.0815699
v 0.7744000 0.3801286 0.1136069
v 1.0000000 0.3801286 0.1136069
v 1.0000000 0.3808129 0.1134985
v 0.7744000 0.3801286 0.1136069
v 1.0000000 0.3808129 0.1134985
v 1.0000000 0.3862746 0.1126335
v 0.7744000 0.3801286 0.1136069
v 1.0000000 0.3862746 0.1126335
v 0.7744000 0.3862746 0.1126335
v 0.7744000 0.4069645 0.0841561
v 1.0000000 0.4069645 0.0841561
v 1.0000000 0.4068561 0.0834718
v 0.7744000 0.4069645 0.0841561
v 1.0000000 0.4068561 0.0834718
v 1.0000000 0.4059911 0.0780102
v 0.7744000 0.4069645 0.0841561
v 1.0000000 0.4059911 0.0780102
v 0.7744000 0.4059911 0.0780102
v 0.7700000 0.3230903 0.0667275
v 0.7744000 0.3205042 0.0702871
v 0.7744000 0.3801286 0.1136069
v 0.7700000 0.3230903 0.0667275
v 0.7744000 0.3801286 0.1136069
v 0.7700000 0.3827150 0.1100472
v 0.7700000 0.3437803 0.0382501
v 0.7700000 0.4034050 0.0815699
v 0.7744000 0.4059911 0.0780102
v 0.7700000 0.3437803 0.0382501
v 0.7744000 0.4059911 0.0780102
v 0.7744000 0.3463666 0.0346904
v 0.7744000 0.3205042 0.0702871
v 1.0000000 0.3205042 0.0702871
v 1.0000000 0.3271429 0.0751104
v 0.7744000 0.3205042 0.0702871
v 1.0000000 0.3271429 0.0751104
v 1.0000000 0.3801286 0.1136069
v 0.7744000 0.3205042 0.0702871
v 1.0000000 0.3801286 0.1136069
v 0.7744000 0.3801286 0.1136069
v 0.7744000 0.3195307 0.0641412
v 0.7744000 0.3402207 0.0356638
v 1.0000000 0.3402207 0.0356638
v 0.7744000 0.3195307 0.0641412
v 1.0000000 0.3402207 0.0356638
v 1.0000000 0.3218344 0.0609705
v 0.7744000 0.3195307 0.0641412
v 1.0000000 0.3218344 0.0609705
v 1.0000000 0.3195307 0.0641412
v 0.7700000 0.3230903 0.0667275
v 0.7700000 0.3827150 0.1100472
v 0.7700000 0.4034050 0.0815699
v 0.7700000 0.3230903 0.0667275
v 0.7700000 0.4034050 0.0815699
v 0.7700000 0.3437803 0.0382501
v 0.7744000 0.3463666 0.0346904
v 0.7744000 0.4059911 0.0780102
v 1.0000000 0.4059911 0.0780102
v 0.7744000 0.3463666 0.0346904
v 1.0000000 0.4059911 0.0780102
v 1.0000000 0.3530053 0.0395137
v 0.7744000 0.3463666 0.0346904
v 1.0000000 0.3530053 0.0395137
v 1.0000000 0.3463666 0.0346904
v 0.7744000 0.3862746 0.1126335
v 1.0000000 0.3862746 0.1126335
v 1.0000000 0.3885782 0.1094628
v 0.7744000 0.3862746 0.1126335
v 1.0000000 0.3885782 0.1094628
v 1.0000000 0.4069645 0.0841561
v 0.7744000 0.3862746 0.1126335
v 1.0000000 0.4069645 0.0841561
v 0.7744000 0.4069645 0.0841561
vt 0.4065308 0.1088487
vt 0.4049470 0.1112189
vt 0.4065307 0.1120654
vt 0.4031114 0.0968886
vt 0.3960679 0.1039320
vt 0.4049470 0.1112189
vt 0.4031114 0.0968886
vt 0.4049470 0.1112189
vt 0.4065308 0.1088487
vt 0.4031114 0.0968886
vt 0.4065308 0.1088487
vt 0.4065308 0.0996948
vt 0.3970633 0.0895189
vt 0.3887811 0.0950530
vt 0.3960679 0.1039320
vt 0.3970633 0.0895189
vt 0.3960679 0.1039320
vt 0.4031114 0.0968886
vt 0.3855178 0.0889478
vt 0.3887811 0.0950530
vt 0.3904399 0.0889478
vt 0.3904399 0.0889478
vt 0.3887811 0.0950530
vt 0.3970633 0.0895189
vt 0.3904399 0.0889478
vt 0.3970633 0.0895189
vt 0.3967580 0.0889477
vt 0.3841146 0.0299471
vt 0.3903646 0.0299471
vt 0.3903646 0.0315308
vt 0.3841146 0.0299471
vt 0.3903646 0.0315308
vt 0.3850917 0.0315308
vt 0.3841146 0.0299471
vt 0.3850917 0.0315308
vt 0.3841146 0.0315308
vt 0.3841146 0.0210680
vt 0.3903646 0.0210680
vt 0.3903646 0.0299471
vt 0.3841146 0.0210680
vt 0.3903646 0.0299471
vt 0.3841146 0.0299471
vt 0.3841146 0.0950530
vt 0.3903646 0.0950530
vt 0.3903646 0.1039320
vt 0.3841146 0.0950530
vt 0.3903646 0.1039320
vt 0.3841146 0.1039320
vt 0.3903646 0.0889478
vt 0.3903646 0.0950530
vt 0.3865978 0.0889478
vt 0.3865978 0.0889478
vt 0.3903646 0.0950530
vt 0.3841146 0.0950530
vt 0.3865978 0.0889478
vt 0.3841146 0.0950530
vt 0.3841146 0.0889478
vt 0.3903646 0.0299471
vt 0.4015152 0.0299471
vt 0.4015152 0.0311069
vt 0.3903646 0.0299471
vt 0.4015152 0.0311069
vt 0.4015152 0.0315308
vt 0.3903646 0.0299471
vt 0.4015152 0.0315308
vt 0.3903646 0.0315308
vt 0.3903646 0.0210680
vt 0.4015152 0.0210680
vt 0.4015152 0.0220845
vt 0.3903646 0.0210680
vt 0.4015152 0.0220845
vt 0.4015152 0.0299471
vt 0.3903646 0.0210680
vt 0.4015152 0.0299471
vt 0.3903646 0.0299471
vt 0.3903646 0.0950530
vt 0.4015152 0.0950530
vt 0.4015152 0.0960695
vt 0.3903646 0.0950530
vt 0.4015152 0.0960695
vt 0.4015152 0.1039320
vt 0.3903646 0.0950530
vt 0.4015152 0.1039320
vt 0.3903646 0.1039320
vt 0.4015152 0.0889478
vt 0.4015152 0.0950530
vt 0.3903646 0.0950530
vt 0.4015152 0.0889478
vt 0.3903646 0.0950530
vt 0.3903646 0.0889478
vt 0.3967580 0.0889477
vt 0.3970633 0.0895189
vt 0.3968900 0.0889477
vt 0.3968900 0.0889477
vt 0.3970633 0.0895189
vt 0.4031114 0.0968886
vt 0.3968900 0.0889477
vt 0.4031114 0.0968886
vt 0.3998222 0.0889477
vt 0.3998222 0.0889477
vt 0.4031114 0.0968886
vt 0.4065308 0.0996948
vt 0.3998222 0.0889477
vt 0.4065308 0.0996948
vt 0.4065308 0.0955463
vt 0.3998222 0.0889477
vt 0.4065308 0.0955463
vt 0.4030038 0.0889477
vt 0.4030038 0.0889477
vt 0.4065308 0.0955463
vt 0.4065308 0.0889477
vt 0.3789062 0.0210680
vt 0.4960938 0.0210680
vt 0.4960938 0.0305730
vt 0.3789062 0.0210680
vt 0.4960938 0.0305730
vt 0.4706948 0.0305730
vt 0.3789062 0.0210680
vt 0.4706948 0.0305730
vt 0.3789062 0.0305730
vt 0.3789062 0.0917969
vt 0.4960938 0.0917969
vt 0.4960938 0.1039320
vt 0.3789062 0.0917969
vt 0.4960938 0.1039320
vt 0.3789062 0.1039320
vt 0.4960938 0.0897657
vt 0.4960938 0.0917969
vt 0.4792500 0.0897657
vt 0.4792500 0.0897657
vt 0.4960938 0.0917969
vt 0.3789062 0.0917969
vt 0.4792500 0.0897657
vt 0.3789062 0.0917969
vt 0.3789062 0.0897657
vt 0.3859150 0.0897657
vt 0.3867563 0.0917969
vt 0.3862120 0.0897657
vt 0.3862120 0.0897657
vt 0.3867563 0.0917969
vt 0.3960680 0.1039320
vt 0.3862120 0.0897657
vt 0.3960680 0.1039320
vt 0.3902001 0.0897657
vt 0.3902001 0.0897657
vt 0.3960680 0.1039320
vt 0.4055730 0.1112255
vt 0.3902001 0.0897657
vt 0.4055730 0.1112255
vt 0.4055730 0.1086881
vt 0.3902001 0.0897657
vt 0.4055730 0.1086881
vt 0.3946481 0.0897657
vt 0.3946481 0.0897657
vt 0.4055730 0.1086881
vt 0.4055729 0.0972528
vt 0.3946481 0.0897657
vt 0.4055729 0.0972528
vt 0.3998279 0.0897657
vt 0.3998279 0.0897657
vt 0.4055729 0.0972528
vt 0.4055730 0.0897657
vt 0.4055729 0.0972528
vt 0.3998279 0.0897657
vt 0.4055730 0.0897657
vt 0.3998279 0.0897657
vt 0.4055729 0.0972528
vt 0.4055730 0.1086881
vt 0.3998279 0.0897657
vt 0.4055730 0.1086881
vt 0.3946481 0.0897657
vt 0.3946481 0.0897657
vt 0.4055730 0.1086881
vt 0.4055730 0.1112255
vt 0.3946481 0.0897657
vt 0.4055730 0.1112255
vt 0.3960680 0.1039320
vt 0.3946481 0.0897657
vt 0.3960680 0.1039320
vt 0.3902001 0.0897657
vt 0.3902001 0.0897657
vt 0.3960680 0.1039320
vt 0.3867563 0.0917969
vt 0.3902001 0.0897657
vt 0.3867563 0.0917969
vt 0.3862120 0.0897657
vt 0.3862120 0.0897657
vt 0.3867563 0.0917969
vt 0.3859150 0.0897657
vt 0.3876953 0.0115234
vt 0.3820260 0.0126953
vt 0.3790962 0.0101562
vt 0.4843750 0.0101562
vt 0.4960938 0.0101563
vt 0.4843750 0.0039062
vt 0.3906250 0.1148437
vt 0.3790963 0.1148437
vt 0.3868032 0.1210938
vt 0.4843750 0.1148437
vt 0.4843750 0.1210938
vt 0.4960938 0.1148437
vt 0.3790962 0.0101562
vt 0.3820260 0.0126953
vt 0.3946983 0.0130215
vt 0.3790962 0.0101562
vt 0.3946983 0.0130215
vt 0.3920947 0.0107651
vt 0.3790962 0.0101562
vt 0.3920947 0.0107651
vt 0.3920947 0.0099822
vt 0.3876953 0.0115234
vt 0.3789062 0.1093750
vt 0.3791596 0.1093750
vt 0.3876953 0.0115234
vt 0.3791596 0.1093750
vt 0.3820260 0.0126953
vt 0.3791596 0.1093750
vt 0.3791596 0.1210938
vt 0.3921510 0.1210938
vt 0.3791596 0.1093750
vt 0.3921510 0.1210938
vt 0.3921510 0.1106798
vt 0.3791596 0.1093750
vt 0.3921510 0.1106798
vt 0.3921510 0.1093750
vt 0.3906250 0.1148437
vt 0.3868032 0.1210938
vt 0.4843750 0.1210938
vt 0.3906250 0.1148437
vt 0.4843750 0.1210938
vt 0.4843750 0.1148437
vt 0.3790963 0.1148437
vt 0.3920947 0.1148437
vt 0.3920948 0.1155396
vt 0.3790963 0.1148437
vt 0.3920948 0.1155396
vt 0.3989436 0.1210938
vt 0.3790963 0.1148437
vt 0.3989436 0.1210938
vt 0.3868032 0.1210938
vt 0.3791597 0.1093750
vt 0.3918319 0.1100274
vt 0.3921511 0.1099839
vt 0.3791597 0.1093750
vt 0.3921511 0.1099839
vt 0.3921510 0.1148437
vt 0.3791597 0.1093750
vt 0.3921510 0.1148437
vt 0.3791596 0.1148437
vt 0.3876953 0.0115234
vt 0.3790962 0.0101562
vt 0.3790963 0.1148437
vt 0.3876953 0.0115234
vt 0.3790963 0.1148437
vt 0.3906250 0.1148437
vt 0.4843750 0.0101562
vt 0.4843750 0.1148437
vt 0.4960938 0.1148437
vt 0.4843750 0.0101562
vt 0.4960938 0.1148437
vt 0.4960938 0.0101563
vt 0.3790962 0.0101562
vt 0.3920947 0.0099822
vt 0.3920947 0.0218123
vt 0.3790962 0.0101562
vt 0.3920947 0.0218123
vt 0.3920947 0.1148437
vt 0.3790962 0.0101562
vt 0.3920947 0.1148437
vt 0.3790963 0.1148437
vt 0.3820260 0.0126953
vt 0.3791596 0.1093750
vt 0.3921510 0.1093750
vt 0.3820260 0.0126953
vt 0.3921510 0.1093750
vt 0.3946983 0.0234598
vt 0.3820260 0.0126953
vt 0.3946983 0.0234598
vt 0.3946983 0.0130215
vt 0.3876953 0.0115234
vt 0.3906250 0.1148437
vt 0.4843750 0.1148437
vt 0.3876953 0.0115234
vt 0.4843750 0.1148437
vt 0.4843750 0.0101562
vt 0.3791596 0.0101562
vt 0.3791596 0.1148437
vt 0.3921510 0.1148437
vt 0.3791596 0.0101562
vt 0.3921510 0.1148437
vt 0.3921510 0.0218123
vt 0.3791596 0.0101562
vt 0.3921510 0.0218123
vt 0.3921510 0.0101562
vt 0.3791596 0.0156250
vt 0.3921510 0.0156250
vt 0.3918319 0.0267157
vt 0.3791596 0.0156250
vt 0.3918319 0.0267157
vt 0.3918319 0.1100274
vt 0.3791596 0.0156250
vt 0.3918319 0.1100274
vt 0.3791597 0.1093750
vt 0.3876953 0.0115234
vt 0.3820260 0.0126953
vt 0.3790962 0.0101562
vt 0.4843750 0.0101562
vt 0.4960938 0.0101563
vt 0.4843750 0.0039062
vt 0.3906250 0.1148437
vt 0.3790963 0.1148437
vt 0.3868032 0.1210938
vt 0.4843750 0.1148437
vt 0.4843750 0.1210938
vt 0.4960938 0.1148437
vt 0.3790962 0.0101562
vt 0.3820260 0.0126953
vt 0.3946983 0.0130215
vt 0.3790962 0.0101562
vt 0.3946983 0.0130215
vt 0.3920947 0.0107651
vt 0.3790962 0.0101562
vt 0.3920947 0.0107651
vt 0.3920947 0.0099822
vt 0.3876953 0.0115234
vt 0.3789062 0.1093750
vt 0.3791596 0.1093750
vt 0.3876953 0.0115234
vt 0.3791596 0.1093750
vt 0.3820260 0.0126953
vt 0.3791596 0.1093750
vt 0.3791596 0.1210938
vt 0.3921510 0.1210938
vt 0.3791596 0.1093750
vt 0.3921510 0.1210938
vt 0.3921510 0.1106798
vt 0.3791596 0.1093750
vt 0.3921510 0.1106798
vt 0.3921510 0.1093750
vt 0.3906250 0.1148437
vt 0.3868032 0.1210938
vt 0.4843750 0.1210938
vt 0.3906250 0.1148437
vt 0.4843750 0.1210938
vt 0.4843750 0.1148437
vt 0.3790963 0.1148437
vt 0.3920947 0.1148437
vt 0.3920948 0.1155396
vt 0.3790963 0.1148437
vt 0.3920948 0.1155396
vt 0.3989436 0.1210938
vt 0.3790963 0.1148437
vt 0.3989436 0.1210938
vt 0.3868032 0.1210938
vt 0.3791597 0.1093750
vt 0.3918319 0.1100274
vt 0.3921511 0.1099839
vt 0.3791597 0.1093750
vt 0.3921511 0.1099839
vt 0.3921510 0.1148437
vt 0.3791597 0.1093750
vt 0.3921510 0.1148437
vt 0.3791596 0.1148437
vt 0.3876953 0.0115234
vt 0.3790962 0.0101562
vt 0.3790963 0.1148437
vt 0.3876953 0.0115234
vt 0.3790963 0.1148437
vt 0.3906250 0.1148437
vt 0.4843750 0.0101562
vt 0.4843750 0.1148437
vt 0.4960938 0.1148437
vt 0.4843750 0.0101562
vt 0.4960938 0.1148437
vt 0.4960938 0.0101563
vt 0.3790962 0.0101562
vt 0.3920947 0.0099822
vt 0.3920947 0.0218123
vt 0.3790962 0.0101562
vt 0.3920947 0.0218123
vt 0.3920947 0.1148437
vt 0.3790962 0.0101562
vt 0.3920947 0.1148437
vt 0.3790963 0.1148437
vt 0.3820260 0.0126953
vt 0.3791596 0.1093750
vt 0.3921510 0.1093750
vt 0.3820260 0.0126953
vt 0.3921510 0.1093750
vt 0.3946983 0.0234598
vt 0.3820260 0.0126953
vt 0.3946983 0.0234598
vt 0.3946983 0.0130215
vt 0.3876953 0.0115234
vt 0.3906250 0.1148437
vt 0.4843750 0.1148437
vt 0.3876953 0.0115234
vt 0.4843750 0.1148437
vt 0.4843750 0.0101562
vt 0.3791596 0.0101562
vt 0.3791596 0.1148437
vt 0.3921510 0.1148437
vt 0.3791596 0.0101562
vt 0.3921510 0.1148437
vt 0.3921510 0.0218123
vt 0.3791596 0.0101562
vt 0.3921510 0.0218123
vt 0.3921510 0.0101562
vt 0.3791596 0.0156250
vt 0.3921510 0.0156250
vt 0.3918319 0.0267157
vt 0.3791596 0.0156250
vt 0.3918319 0.0267157
vt 0.3918319 0.1100274
vt 0.3791596 0.0156250
vt 0.3918319 0.1100274
vt 0.3791597 0.1093750
vn -0.8253903 0.4694165 0.3136541
vn -0.8253903 0.4694165 0.3136541
vn -0.8260580 0.4779591 0.2986358
vn -0.8253904 0.3992059 0.3992060
vn -0.8253904 0.3992058 0.3992060
vn -0.8253903 0.4694165 0.3136541
vn -0.8253904 0.3992059 0.3992060
vn -0.8253903 0.4694165 0.3136541
vn -0.8253903 0.4694165 0.3136541
vn -0.8253904 0.3992059 0.3992060
vn -0.8253903 0.4694165 0.3136541
vn -0.8266504 0.4324415 0.3600604
vn -0.8253903 0.3136541 0.4694166
vn -0.8253903 0.3136541 0.4694166
vn -0.8253904 0.3992058 0.3992060
vn -0.8253903 0.3136541 0.4694166
vn -0.8253904 0.3992058 0.3992060
vn -0.8253904 0.3992059 0.3992060
vn -0.8266033 0.2552035 0.5015956
vn -0.8253903 0.3136541 0.4694166
vn -0.8266373 0.2713218 0.4930063
vn -0.8266373 0.2713218 0.4930063
vn -0.8253903 0.3136541 0.4694166
vn -0.8253903 0.3136541 0.4694166
vn -0.8266373 0.2713218 0.4930063
vn -0.8253903 0.3136541 0.4694166
vn -0.8257106 0.3071421 0.4731446
vn 0.0000000 0.8314695 0.5555704
vn 0.0000000 0.8314695 0.5555704
vn 0.0000000 0.8480689 0.5298860
vn 0.0000000 0.8314695 0.5555704
vn 0.0000000 0.8480689 0.5298860
vn 0.0000000 0.8480689 0.5298860
vn 0.0000000 0.8314695 0.5555704
vn 0.0000000 0.8480689 0.5298860
vn 0.0000000 0.8480689 0.5298860
vn 0.0000000 0.7071066 0.7071069
vn 0.0000000 0.7071066 0.7071069
vn 0.0000000 0.8314695 0.5555704
vn 0.0000000 0.7071066 0.7071069
vn 0.0000000 0.8314695 0.5555704
vn 0.0000000 0.8314695 0.5555704
vn 0.0000000 0.5555704 0.8314695
vn 0.0000000 0.5555704 0.8314695
vn 0.0000000 0.7071066 0.7071069
vn 0.0000000 0.5555704 0.8314695
vn 0.0000000 0.7071066 0.7071069
vn 0.0000000 0.7071066 0.7071069
vn 0.0000000 0.4534656 0.8912738
vn 0.0000000 0.5555704 0.8314695
vn 0.0000000 0.4534656 0.8912738
vn 0.0000000 0.4534656 0.8912738
vn 0.0000000 0.5555704 0.8314695
vn 0.0000000 0.5555704 0.8314695
vn 0.0000000 0.4534656 0.8912738
vn 0.0000000 0.5555704 0.8314695
vn 0.0000000 0.4534656 0.8912738
vn 0.0000000 0.8314695 0.5555704
vn 0.0000000 0.8314695 0.5555704
vn 0.0000000 0.8436944 0.5368238
vn 0.0000000 0.8314695 0.5555704
vn 0.0000000 0.8436944 0.5368238
vn 0.0000000 0.8480689 0.5298860
vn 0.0000000 0.8314695 0.5555704
vn 0.0000000 0.8480689 0.5298860
vn 0.0000000 0.8480689 0.5298860
vn 0.0000000 0.7071066 0.7071069
vn 0.0000000 0.7071066 0.7071069
vn 0.0000000 0.7227539 0.6911055
vn 0.0000000 0.7071066 0.7071069
vn 0.0000000 0.7227539 0.6911055
vn 0.0000000 0.8314695 0.5555704
vn 0.0000000 0.7071066 0.7071069
vn 0.0000000 0.8314695 0.5555704
vn 0.0000000 0.8314695 0.5555704
vn 0.0000000 0.5555704 0.8314695
vn 0.0000000 0.5555704 0.8314695
vn 0.0000000 0.5740387 0.8188282
vn 0.0000000 0.5555704 0.8314695
vn 0.0000000 0.5740387 0.8188282
vn 0.0000000 0.7071066 0.7071069
vn 0.0000000 0.5555704 0.8314695
vn 0.0000000 0.7071066 0.7071069
vn 0.0000000 0.7071066 0.7071069
vn 0.0000000 0.4534656 0.8912738
vn 0.0000000 0.5555704 0.8314695
vn 0.0000000 0.5555704 0.8314695
vn 0.0000000 0.4534656 0.8912738
vn 0.0000000 0.5555704 0.8314695
vn 0.0000000 0.4534656 0.8912738
vn -1.0000000 0.0000000 0.0000000
vn -1.0000000 0.0000000 0.0000000
vn -1.0000000 0.0000000 0.0000000
vn -1.0000000 0.0000000 0.0000000
vn -1.0000000 0.0000000 0.0000000
vn -1.0000000 0.0000000 0.0000000
vn -1.0000000 0.0000000 0.0000000
vn -1.0000000 0.0000000 0.0000000
vn -1.0000000 0.0000000 0.0000000
vn -1.0000000 0.0000000 0.0000000
vn -1.0000000 0.0000000 0.0000000
vn -1.0000000 0.0000000 0.0000000
vn -1.0000000 0.0000000 0.0000000
vn -1.0000000 0.0000000 0.0000000
vn -1.0000000 0.0000000 0.0000000
vn -1.0000000 0.0000000 0.0000000
vn -1.0000000 0.0000000 0.0000000
vn -1.0000000 0.0000000 0.0000000
vn -1.0000000 0.0000000 0.0000000
vn -1.0000000 0.0000000 0.0000000
vn -1.0000000 0.0000000 0.0000000
vn 0.0000000 0.7071066 0.7071069
vn 0.0000000 0.7071066 0.7071069
vn 0.0000000 0.8364341 0.5480676
vn 0.0000000 0.7071066 0.7071069
vn 0.0000000 0.8364341 0.5480676
vn 0.0000000 0.8364341 0.5480676
vn 0.0000000 0.7071066 0.7071069
vn 0.0000000 0.8364341 0.5480676
vn 0.0000000 0.8364341 0.5480676
vn 0.0000000 0.5000002 0.8660253
vn 0.0000000 0.5000002 0.8660253
vn 0.0000000 0.7071066 0.7071069
vn 0.0000000 0.5000002 0.8660253
vn 0.0000000 0.7071066 0.7071069
vn 0.0000000 0.7071066 0.7071069
vn 0.0000000 0.4672982 0.8840998
vn 0.0000000 0.5000002 0.8660253
vn 0.0000000 0.4672982 0.8840998
vn 0.0000000 0.4672982 0.8840998
vn 0.0000000 0.5000002 0.8660253
vn 0.0000000 0.5000002 0.8660253
vn 0.0000000 0.4672982 0.8840998
vn 0.0000000 0.5000002 0.8660253
vn 0.0000000 0.4672982 0.8840998
vn -1.0000000 0.0000000 0.0000000
vn -1.0000000 0.0000000 -0.0000000
vn -1.0000000 0.0000000 0.0000000
vn -1.0000000 0.0000000 0.0000000
vn -1.0000000 0.0000000 -0.0000000
vn -1.0000000 0.0000000 -0.0000000
vn -1.0000000 0.0000000 0.0000000
vn -1.0000000 0.0000000 -0.0000000
vn -1.0000000 0.0000000 0.0000000
vn -1.0000000 0.0000000 0.0000000
vn -1.0000000 0.0000000 -0.0000000
vn -1.0000000 0.0000000 0.0000000
vn -1.0000000 0.0000000 0.0000000
vn -1.0000000 0.0000000 0.0000000
vn -1.0000000 0.0000000 0.0000000
vn -1.0000000 0.0000000 0.0000000
vn -1.0000000 0.0000000 0.0000000
vn -1.0000000 0.0000000 0.0000000
vn -1.0000000 0.0000000 0.0000000
vn -1.0000000 0.0000000 0.0000000
vn -1.0000000 0.0000000 0.0000000
vn -1.0000000 0.0000000 0.0000000
vn -1.0000000 0.0000000 0.0000000
vn -1.0000000 0.0000000 0.0000000
vn -1.0000000 0.0000000 0.0000000
vn -1.0000000 0.0000000 0.0000000
vn -1.0000000 0.0000000 0.0000000
vn 1.0000000 0.0000000 0.0000000
vn 1.0000000 0.0000000 0.0000000
vn 1.0000000 0.0000000 0.0000000
vn 1.0000000 0.0000000 0.0000000
vn 1.0000000 0.0000000 0.0000000
vn 1.0000000 0.0000000 0.0000000
vn 1.0000000 0.0000000 0.0000000
vn 1.0000000 0.0000000 0.0000000
vn 1.0000000 0.0000000 0.0000000
vn 1.0000000 0.0000000 0.0000000
vn 1.0000000 0.0000000 0.0000000
vn 1.0000000 0.0000000 0.0000000
vn 1.0000000 0.0000000 0.0000000
vn 1.0000000 0.0000000 0.0000000
vn 1.0000000 0.0000000 -0.0000000
vn 1.0000000 0.0000000 0.0000000
vn 1.0000000 0.0000000 -0.0000000
vn 1.0000000 0.0000000 0.0000000
vn 1.0000000 0.0000000 0.0000000
vn 1.0000000 0.0000000 -0.0000000
vn 1.0000000 0.0000000 -0.0000000
vn 1.0000000 0.0000000 0.0000000
vn 1.0000000 0.0000000 -0.0000000
vn 1.0000000 0.0000000 0.0000000
vn 1.0000000 0.0000000 0.0000000
vn 1.0000000 0.0000000 -0.0000000
vn 1.0000000 0.0000000 0.0000000
vn -0.5773465 -0.8064476 -0.1277234
vn -0.5773465 -0.8064476 -0.1277234
vn -0.5773465 -0.8064476 -0.1277234
vn -0.5773465 0.1277343 -0.8064459
vn -0.5773465 0.1277343 -0.8064459
vn -0.5773465 0.1277343 -0.8064459
vn -0.5773465 -0.1277343 0.8064459
vn -0.5773465 -0.1277343 0.8064459
vn -0.5773465 -0.1277343 0.8064459
vn -0.5773465 0.8064476 0.1277234
vn -0.5773465 0.8064476 0.1277234
vn -0.5773465 0.8064476 0.1277234
vn 0.0000000 -0.9876883 -0.1564348
vn 0.0000000 -0.9876883 -0.1564348
vn 0.0000000 -0.9876883 -0.1564348
vn 0.0000000 -0.9876883 -0.1564348
vn 0.0000000 -0.9876883 -0.1564348
vn 0.0000000 -0.9876883 -0.1564348
vn 0.0000000 -0.9876883 -0.1564348
vn 0.0000000 -0.9876883 -0.1564348
vn 0.0000000 -0.9876883 -0.1564348
vn -0.7071056 -0.4156275 -0.5720624
vn -0.7071056 -0.4156275 -0.5720624
vn -0.7071056 -0.4156275 -0.5720624
vn -0.7071056 -0.4156275 -0.5720624
vn -0.7071056 -0.4156275 -0.5720624
vn -0.7071056 -0.4156275 -0.5720624
vn 0.0000000 0.1564346 -0.9876883
vn 0.0000000 0.1564346 -0.9876883
vn 0.0000000 0.1564346 -0.9876883
vn 0.0000000 0.1564346 -0.9876883
vn 0.0000000 0.1564346 -0.9876883
vn 0.0000000 0.1564346 -0.9876883
vn 0.0000000 0.1564346 -0.9876883
vn 0.0000000 0.1564346 -0.9876883
vn 0.0000000 0.1564346 -0.9876883
vn -0.7071056 0.4156275 0.5720624
vn -0.7071056 0.4156275 0.5720624
vn -0.7071056 0.4156275 0.5720624
vn -0.7071056 0.4156275 0.5720624
vn -0.7071056 0.4156275 0.5720624
vn -0.7071056 0.4156275 0.5720624
vn 0.0000000 -0.1564346 0.9876883
vn 0.0000000 -0.1564346 0.9876883
vn 0.0000000 -0.1564346 0.9876883
vn 0.0000000 -0.1564346 0.9876883
vn 0.0000000 -0.1564346 0.9876883
vn 0.0000000 -0.1564346 0.9876883
vn 0.0000000 -0.1564346 0.9876883
vn 0.0000000 -0.1564346 0.9876883
vn 0.0000000 -0.1564346 0.9876883
vn 0.0000000 0.9876883 0.1564348
vn 0.0000000 0.9876883 0.1564348
vn 0.0000000 0.9876883 0.1564348
vn 0.0000000 0.9876883 0.1564348
vn 0.0000000 0.9876883 0.1564348
vn 0.0000000 0.9876883 0.1564348
vn 0.0000000 0.9876883 0.1564348
vn 0.0000000 0.9876883 0.1564348
vn 0.0000000 0.9876883 0.1564348
vn -0.7070997 -0.5720673 0.4156310
vn -0.7070997 -0.5720673 0.4156310
vn -0.7070997 -0.5720673 0.4156310
vn -0.7070997 -0.5720673 0.4156310
vn -0.7070997 -0.5720673 0.4156310
vn -0.7070997 -0.5720673 0.4156310
vn -0.7070997 0.5720673 -0.4156310
vn -0.7070997 0.5720673 -0.4156310
vn -0.7070997 0.5720673 -0.4156310
vn -0.7070997 0.5720673 -0.4156310
vn -0.7070997 0.5720673 -0.4156310
vn -0.7070997 0.5720673 -0.4156310
vn 0.0000000 -0.8090171 0.5877851
vn 0.0000000 -0.8090171 0.5877851
vn 0.0000000 -0.8090171 0.5877851
vn 0.0000000 -0.8090171 0.5877851
vn 0.0000000 -0.8090171 0.5877851
vn 0.0000000 -0.8090171 0.5877851
vn 0.0000000 -0.8090171 0.5877851
vn 0.0000000 -0.8090171 0.5877851
vn 0.0000000 -0.8090171 0.5877851
vn 0.0000000 -0.5877851 -0.8090171
vn 0.0000000 -0.5877851 -0.8090171
vn 0.0000000 -0.5877851 -0.8090171
vn 0.0000000 -0.5877851 -0.8090171
vn 0.0000000 -0.5877851 -0.8090171
vn 0.0000000 -0.5877851 -0.8090171
vn 0.0000000 -0.5877851 -0.8090171
vn 0.0000000 -0.5877851 -0.8090171
vn 0.0000000 -0.5877851 -0.8090171
vn -1.0000000 0.0000000 0.0000000
vn -1.0000000 0.0000000 0.0000000
vn -1.0000000 0.0000000 0.0000000
vn -1.0000000 0.0000000 0.0000000
vn -1.0000000 0.0000000 0.0000000
vn -1.0000000 0.0000000 0.0000000
vn 0.0000000 0.8090171 -0.5877851
vn 0.0000000 0.8090171 -0.5877851
vn 0.0000000 0.8090171 -0.5877851
vn 0.0000000 0.8090171 -0.5877851
vn 0.0000000 0.8090171 -0.5877851
vn 0.0000000 0.8090171 -0.5877851
vn 0.0000000 0.8090171 -0.5877851
vn 0.0000000 0.8090171 -0.5877851
vn 0.0000000 0.8090171 -0.5877851
vn 0.0000000 0.5877851 0.8090171
vn 0.0000000 0.5877851 0.8090171
vn 0.0000000 0.5877851 0.8090171
vn 0.0000000 0.5877851 0.8090171
vn 0.0000000 0.5877851 0.8090171
vn 0.0000000 0.5877851 0.8090171
vn 0.0000000 0.5877851 0.8090171
vn 0.0000000 0.5877851 0.8090171
vn 0.0000000 0.5877851 0.8090171
vn -0.5773465 -0.8064459 0.1277340
vn -0.5773465 -0.8064459 0.1277340
vn -0.5773465 -0.8064459 0.1277340
vn -0.5773465 -0.1277231 -0.8064476
vn -0.5773465 -0.1277231 -0.8064476
vn -0.5773465 -0.1277231 -0.8064476
vn -0.5773465 0.1277231 0.8064476
vn -0.5773465 0.1277231 0.8064476
vn -0.5773465 0.1277231 0.8064476
vn -0.5773465 0.8064459 -0.1277340
vn -0.5773465 0.8064459 -0.1277340
vn -0.5773465 0.8064459 -0.1277340
vn 0.0000000 -0.9876884 0.1564343
vn 0.0000000 -0.9876884 0.1564343
vn 0.0000000 -0.9876884 0.1564343
vn 0.0000000 -0.9876884 0.1564343
vn 0.0000000 -0.9876884 0.1564343
vn 0.0000000 -0.9876884 0.1564343
vn 0.0000000 -0.9876884 0.1564343
vn 0.0000000 -0.9876884 0.1564343
vn 0.0000000 -0.9876884 0.1564343
vn -0.7071056 -0.5720624 -0.4156277
vn -0.7071056 -0.5720624 -0.4156277
vn -0.7071056 -0.5720624 -0.4156277
vn -0.7071056 -0.5720624 -0.4156277
vn -0.7071056 -0.5720624 -0.4156277
vn -0.7071056 -0.5720624 -0.4156277
vn 0.0000000 -0.1564345 -0.9876883
vn 0.0000000 -0.1564345 -0.9876883
vn 0.0000000 -0.1564345 -0.9876883
vn 0.0000000 -0.1564345 -0.9876883
vn 0.0000000 -0.1564345 -0.9876883
vn 0.0000000 -0.1564345 -0.9876883
vn 0.0000000 -0.1564345 -0.9876883
vn 0.0000000 -0.1564345 -0.9876883
vn 0.0000000 -0.1564345 -0.9876883
vn -0.7071056 0.5720624 0.4156277
vn -0.7071056 0.5720624 0.4156277
vn -0.7071056 0.5720624 0.4156277
vn -0.7071056 0.5720624 0.4156277
vn -0.7071056 0.5720624 0.4156277
vn -0.7071056 0.5720624 0.4156277
vn 0.0000000 0.1564345 0.9876883
vn 0.0000000 0.1564345 0.9876883
vn 0.0000000 0.1564345 0.9876883
vn 0.0000000 0.1564345 0.9876883
vn 0.0000000 0.1564345 0.9876883
vn 0.0000000 0.1564345 0.9876883
vn 0.0000000 0.1564345 0.9876883
vn 0.0000000 0.1564345 0.9876883
vn 0.0000000 0.1564345 0.9876883
vn 0.0000000 0.9876884 -0.1564343
vn 0.0000000 0.9876884 -0.1564343
vn 0.0000000 0.9876884 -0.1564343
vn 0.0000000 0.9876884 -0.1564343
vn 0.0000000 0.9876884 -0.1564343
vn 0.0000000 0.9876884 -0.1564343
vn 0.0000000 0.9876884 -0.1564343
vn 0.0000000 0.9876884 -0.1564343
vn 0.0000000 0.9876884 -0.1564343
vn -0.7070997 -0.4156311 0.5720671
vn -0.7070997 -0.4156311 0.5720671
vn -0.7070997 -0.4156311 0.5720671
vn -0.7070997 -0.4156311 0.5720671
vn -0.7070997 -0.4156311 0.5720671
vn -0.7070997 -0.4156311 0.5720671
vn -0.7070997 0.4156311 -0.5720671
vn -0.7070997 0.4156311 -0.5720671
vn -0.7070997 0.4156311 -0.5720671
vn -0.7070997 0.4156311 -0.5720671
vn -0.7070997 0.4156311 -0.5720671
vn -0.7070997 0.4156311 -0.5720671
vn 0.0000000 -0.5877853 0.8090169
vn 0.0000000 -0.5877853 0.8090169
vn 0.0000000 -0.5877853 0.8090169
vn 0.0000000 -0.5877853 0.8090169
vn 0.0000000 -0.5877853 0.8090169
vn 0.0000000 -0.5877853 0.8090169
vn 0.0000000 -0.5877853 0.8090169
vn 0.0000000 -0.5877853 0.8090169
vn 0.0000000 -0.5877853 0.8090169
vn 0.0000000 -0.8090169 -0.5877853
vn 0.0000000 -0.8090169 -0.5877853
vn 0.0000000 -0.8090169 -0.5877853
vn 0.0000000 -0.8090169 -0.5877853
vn 0.0000000 -0.8090169 -0.5877853
vn 0.0000000 -0.8090169 -0.5877853
vn 0.0000000 -0.8090169 -0.5877853
vn 0.0000000 -0.8090169 -0.5877853
vn 0.0000000 -0.8090169 -0.5877853
vn -1.0000000 0.0000000 0.0000000
vn -1.0000000 0.0000000 0.0000000
vn -1.0000000 0.0000000 0.0000000
vn -1.0000000 0.0000000 0.0000000
vn -1.0000000 0.0000000 0.0000000
vn -1.0000000 0.0000000 0.0000000
vn 0.0000000 0.5877853 -0.8090169
vn 0.0000000 0.5877853 -0.8090169
vn 0.0000000 0.5877853 -0.8090169
vn 0.0000000 0.5877853 -0.8090169
vn 0.0000000 0.5877853 -0.8090169
vn 0.0000000 0.5877853 -0.8090169
vn 0.0000000 0.5877853 -0.8090169
vn 0.0000000 0.5877853 -0.8090169
vn 0.0000000 0.5877853 -0.8090169
vn 0.0000000 0.8090169 0.5877853
vn 0.0000000 0.8090169 0.5877853
vn 0.0000000 0.8090169 0.5877853
vn 0.0000000 0.8090169 0.5877853
vn 0.0000000 0.8090169 0.5877853
vn 0.0000000 0.8090169 0.5877853
vn 0.0000000 0.8090169 0.5877853
vn 0.0000000 0.8090169 0.5877853
vn 0.0000000 0.8090169 0.5877853
f 1/1/1 2/2/2 3/3/3
f 4/4/4 5/5/5 6/6/6
f 7/7/7 8/8/8 9/9/9
f 10/10/10 11/11/11 12/12/12
f 13/13/13 14/14/14 15/15/15
f 16/16/16 17/17/17 18/18/18
f 19/19/19 20/20/20 21/21/21
f 22/22/22 23/23/23 24/24/24
f 25/25/25 26/26/26 27/27/27
f 28/28/28 29/29/29 30/30/30
f 31/31/31 32/32/32 33/33/33
f 34/34/34 35/35/35 36/36/36
f 37/37/37 38/38/38 39/39/39
f 40/40/40 41/41/41 42/42/42
f 43/43/43 44/44/44 45/45/45
f 46/46/46 47/47/47 48/48/48
f 49/49/49 50/50/50 51/51/51
f 52/52/52 53/53/53 54/54/54
f 55/55/55 56/56/56 57/57/57
f 58/58/58 59/59/59 60/60/60
f 61/61/61 62/62/62 63/63/63
f 64/64/64 65/65/65 66/66/66
f 67/67/67 68/68/68 69/69/69
f 70/70/70 71/71/71 72/72/72
f 73/73/73 74/74/74 75/75/75
f 76/76/76 77/77/77 78/78/78
f 79/79/79 80/80/80 81/81/81
f 82/82/82 83/83/83 84/84/84
f 85/85/85 86/86/86 87/87/87
f 88/88/88 89/89/89 90/90/90
f 91/91/91 92/92/92 93/93/93
f 94/94/94 95/95/95 96/96/96
f 97/97/97 98/98/98 99/99/99
f 100/100/100 101/101/101 102/102/102
f 103/103/103 104/104/104 105/105/105
f 106/106/106 107/107/107 108/108/108
f 109/109/109 110/110/110 111/111/111
f 112/112/112 113/113/113 114/114/114
f 115/115/115 116/116/116 117/117/117
f 118/118/118 119/119/119 120/120/120
f 121/121/121 122/122/122 123/123/123
f 124/124/124 125/125/125 126/126/126
f 127/127/127 128/128/128 129/129/129
f 130/130/130 131/131/131 132/132/132
f 133/133/133 134/134/134 135/135/135
f 136/136/136 137/137/137 138/138/138
f 139/139/139 140/140/140 141/141/141
f 142/142/142 143/143/143 144/144/144
f 145/145/145 146/146/146 147/147/147
f 148/148/148 149/149/149 150/150/150
f 151/151/151 152/152/152 153/153/153
f 154/154/154 155/155/155 156/156/156
f 157/157/157 158/158/158 159/159/159
f 160/160/160 161/161/161 162/162/162
f 163/163/163 164/164/164 165/165/165
f 166/166/166 167/167/167 168/168/168
f 169/169/169 170/170/170 171/171/171
f 172/172/172 173/173/173 174/174/174
f 175/175/175 176/176/176 177/177/177
f 178/178/178 179/179/179 180/180/180
f 181/181/181 182/182/182 183/183/183
f 184/184/184 185/185/185 186/186/186
f 187/187/187 188/188/188 189/189/189
f 190/190/190 191/191/191 192/192/192
f 193/193/193 194/194/194 195/195/195
f 196/196/196 197/197/197 198/198/198
f 199/199/199 200/200/200 201/201/201
f 202/202/202 203/203/203 204/204/204
f 205/205/205 206/206/206 207/207/207
f 208/208/208 209/209/209 210/210/210
f 211/211/211 212/212/212 213/213/213
f 214/214/214 215/215/215 216/216/216
f 217/217/217 218/218/218 219/219/219
f 220/220/220 221/221/221 222/222/222
f 223/223/223 224/224/224 225/225/225
f 226/226/226 227/227/227 228/228/228
f 229/229/229 230/230/230 231/231/231
f 232/232/232 233/233/233 234/234/234
f 235/235/235 236/236/236 237/237/237
f 238/238/238 239/239/239 240/240/240
f 241/241/241 242/242/242 243/243/243
f 244/244/244 245/245/245 246/246/246
f 247/247/247 248/248/248 249/249/249
f 250/250/250 251/251/251 252/252/252
f 253/253/253 254/254/254 255/255/255
f 256/256/256 257/257/257 258/258/258
f 259/259/259 260/260/260 261/261/261
f 262/262/262 263/263/263 264/264/264
f 265/265/265 266/266/266 267/267/267
f 268/268/268 269/269/269 270/270/270
f 271/271/271 272/272/272 273/273/273
f 274/274/274 275/275/275 276/276/276
f 277/277/277 278/278/278 279/279/279
f 280/280/280 281/281/281 282/282/282
f 283/283/283 284/284/284 285/285/285
f 286/286/286 287/287/287 288/288/288
f 289/289/289 290/290/290 291/291/291
f 292/292/292 293/293/293 294/294/294
f 295/295/295 296/296/296 297/297/297
f 298/298/298 299/299/299 300/300/300
f 301/301/301 302/302/302 303/303/303
f 304/304/304 305/305/305 306/306/306
f 307/307/307 308/308/308 309/309/309
f 310/310/310 311/311/311 312/312/312
f 313/313/313 314/314/314 315/315/315
f 316/316/316 317/317/317 318/318/318
f 319/319/319 320/320/320 321/321/321
f 322/322/322 323/323/323 324/324/324
f 325/325/325 326/326/326 327/327/327
f 328/328/328 329/329/329 330/330/330
f 331/331/331 332/332/332 333/333/333
f 334/334/334 335/335/335 336/336/336
f 337/337/337 338/338/338 339/339/339
f 340/340/340 341/341/341 342/342/342
f 343/343/343 344/344/344 345/345/345
f 346/346/346 347/347/347 348/348/348
f 349/349/349 350/350/350 351/351/351
f 352/352/352 353/353/353 354/354/354
f 355/355/355 356/356/356 357/357/357
f 358/358/358 359/359/359 360/360/360
f 361/361/361 362/362/362 363/363/363
f 364/364/364 365/365/365 366/366/366
f 367/367/367 368/368/368 369/369/369
f 370/370/370 371/371/371 372/372/372
f 373/373/373 374/374/374 375/375/375
f 376/376/376 377/377/377 378/378/378
f 379/379/379 380/380/380 381/381/381
f 382/382/382 383/383/383 384/384/384
f 385/385/385 386/386/386 387/387/387
f 388/388/388 389/389/389 390/390/390
f 391/391/391 392/392/392 393/393/393
f 394/394/394 395/395/395 396/396/396
f 397/397/397 398/398/398 399/399/399
f 400/400/400 401/401/401 402/402/402
f 403/403/403 404/404/404 405/405/405
f 406/406/406 407/407/407 408/408/408
f 409/409/409 410/410/410 411/411/411
f 412/412/412 413/413/413 414/414/414
f 415/415/415 416/416/416 417/417/417
