# metre = block; Y up; per-cell coordinates; atlas UVs preserved
mtllib materials.mtl
o cell_9
usemtl pump_atlas
v 0.0854662 1.0000000 0.8828664
v 0.1674998 0.8403921 0.9895130
v 0.1072881 1.0000000 0.9629703
v 0.1072881 1.0000000 0.9629703
v 0.1674998 0.8403921 0.9895130
v 0.1674998 0.8489986 1.0000000
v 0.1072881 1.0000000 0.9629703
v 0.1674998 0.8489986 1.0000000
v 0.1173757 1.0000000 1.0000000
v 0.0574999 1.0000000 0.7447107
v 0.0574999 0.9967763 0.7386796
v 0.1674998 0.7589697 0.8371824
v 0.0574999 1.0000000 0.7447107
v 0.1674998 0.7589697 0.8371824
v 0.0777588 1.0000000 0.8447915
v 0.0777588 1.0000000 0.8447915
v 0.1674998 0.7589697 0.8371824
v 0.1674998 0.8403921 0.9895130
v 0.0777588 1.0000000 0.8447915
v 0.1674998 0.8403921 0.9895130
v 0.0854662 1.0000000 0.8828664
v 0.0574999 0.9967763 0.7386796
v 0.0574999 0.9612842 0.6216778
v 0.1674998 0.7088301 0.6718941
v 0.0574999 0.9967763 0.7386796
v 0.1674998 0.7088301 0.6718941
v 0.1674998 0.7589697 0.8371824
v 0.0574999 0.9612842 0.6216778
v 0.0574999 0.9493000 0.5000000
v 0.1674998 0.6919000 0.5000000
v 0.0574999 0.9612842 0.6216778
v 0.1674998 0.6919000 0.5000000
v 0.1674998 0.7088301 0.6718941
v 0.0574999 0.9493000 0.5000000
v 0.0574999 0.9612842 0.3783222
v 0.1674998 0.7088301 0.3281059
v 0.0574999 0.9493000 0.5000000
v 0.1674998 0.7088301 0.3281059
v 0.1674998 0.6919000 0.5000000
v 0.0574999 0.9612842 0.3783222
v 0.0574999 0.9967763 0.2613204
v 0.1674998 0.7589697 0.1628176
v 0.0574999 0.9612842 0.3783222
v 0.1674998 0.7589697 0.1628176
v 0.1674998 0.7088301 0.3281059
v 0.0574999 0.9967763 0.2613204
v 0.0574999 1.0000000 0.2552893
v 0.0854662 1.0000000 0.1171336
v 0.0574999 0.9967763 0.2613204
v 0.0854662 1.0000000 0.1171336
v 0.1674998 0.8403921 0.0104870
v 0.0574999 0.9967763 0.2613204
v 0.1674998 0.8403921 0.0104870
v 0.1674998 0.7589697 0.1628176
v 0.1185581 0.9964380 0.0000000
v 0.1148067 1.0000000 0.0094305
v 0.1173757 1.0000000 0.0000000
v 0.1148067 1.0000000 0.0094305
v 0.1185581 0.9964380 0.0000000
v 0.1674998 0.8489986 0.0000000
v 0.1148067 1.0000000 0.0094305
v 0.1674998 0.8489986 0.0000000
v 0.1674998 0.8403921 0.0104870
v 0.1148067 1.0000000 0.0094305
v 0.1674998 0.8403921 0.0104870
v 0.0854662 1.0000000 0.1171336
v 0.1674998 0.8489986 1.0000000
v 0.1674998 0.8403921 0.9895130
v 0.1903800 0.8246972 1.0000000
v 0.1674998 0.8403921 0.9895130
v 0.1674998 0.7589697 0.8371824
v 0.2995000 0.6583593 0.8788566
v 0.1674998 0.8403921 0.9895130
v 0.2995000 0.6583593 0.8788566
v 0.2995000 0.7231118 1.0000000
v 0.1674998 0.8403921 0.9895130
v 0.2995000 0.7231118 1.0000000
v 0.1903800 0.8246972 1.0000000
v 0.1674998 0.7589697 0.8371824
v 0.1674998 0.7088301 0.6718941
v 0.2995000 0.6020226 0.6931394
v 0.1674998 0.7589697 0.8371824
v 0.2995000 0.6020226 0.6931394
v 0.2995000 0.6583593 0.8788566
v 0.1674998 0.7088301 0.6718941
v 0.1674998 0.6919000 0.5000000
v 0.2995000 0.5830000 0.5000000
v 0.1674998 0.7088301 0.6718941
v 0.2995000 0.5830000 0.5000000
v 0.2995000 0.6020226 0.6931394
v 0.1674998 0.6919000 0.5000000
v 0.1674998 0.7088301 0.3281059
v 0.2995000 0.6020226 0.3068606
v 0.1674998 0.6919000 0.5000000
v 0.2995000 0.6020226 0.3068606
v 0.2995000 0.5830000 0.5000000
v 0.1674998 0.7088301 0.3281059
v 0.1674998 0.7589697 0.1628176
v 0.2995000 0.6583593 0.1211434
v 0.1674998 0.7088301 0.3281059
v 0.2995000 0.6583593 0.1211434
v 0.2995000 0.6020226 0.3068606
v 0.1674998 0.7589697 0.1628176
v 0.1674998 0.8403921 0.0104870
v 0.1903800 0.8246972 0.0000000
v 0.1674998 0.7589697 0.1628176
v 0.1903800 0.8246972 0.0000000
v 0.2684806 0.7519893 0.0000000
v 0.1674998 0.7589697 0.1628176
v 0.2684806 0.7519893 0.0000000
v 0.2995000 0.7231118 0.0000000
v 0.1674998 0.7589697 0.1628176
v 0.2995000 0.7231118 0.0000000
v 0.2995000 0.6583593 0.1211434
v 0.1674998 0.8403921 0.0104870
v 0.1674998 0.8489986 0.0000000
v 0.1740753 0.8420147 0.0000000
v 0.1674998 0.8403921 0.0104870
v 0.1740753 0.8420147 0.0000000
v 0.1903800 0.8246972 0.0000000
v 0.2995000 0.7231118 1.0000000
v 0.2995000 0.6583593 0.8788566
v 1.0000000 0.6583593 0.8788566
v 0.2995000 0.7231118 1.0000000
v 1.0000000 0.6583593 0.8788566
v 1.0000000 0.7032372 0.9628174
v 0.2995000 0.7231118 1.0000000
v 1.0000000 0.7032372 0.9628174
v 0.7012930 0.7231118 1.0000000
v 0.7012930 0.7231118 1.0000000
v 1.0000000 0.7032372 0.9628174
v 1.0000000 0.7231118 1.0000000
v 0.2995000 0.6583593 0.8788566
v 0.2995000 0.6020226 0.6931394
v 1.0000000 0.6020226 0.6931394
v 0.2995000 0.6583593 0.8788566
v 1.0000000 0.6020226 0.6931394
v 1.0000000 0.6296583 0.7842421
v 0.2995000 0.6583593 0.8788566
v 1.0000000 0.6296583 0.7842421
v 1.0000000 0.6583593 0.8788566
v 0.2995000 0.6020226 0.6931394
v 0.2995000 0.5830000 0.5000000
v 1.0000000 0.5830000 0.5000000
v 0.2995000 0.6020226 0.6931394
v 1.0000000 0.5830000 0.5000000
v 1.0000000 0.5923315 0.5947437
v 0.2995000 0.6020226 0.6931394
v 1.0000000 0.5923315 0.5947437
v 1.0000000 0.6020226 0.6931394
v 0.2995000 0.5830000 0.5000000
v 0.2995000 0.6020226 0.3068606
v 1.0000000 0.6020226 0.3068606
v 0.2995000 0.5830000 0.5000000
v 1.0000000 0.6020226 0.3068606
v 1.0000000 0.5926911 0.4016043
v 0.2995000 0.5830000 0.5000000
v 1.0000000 0.5926911 0.4016043
v 1.0000000 0.5830000 0.5000000
v 0.2995000 0.6020226 0.3068606
v 0.2995000 0.6583593 0.1211434
v 1.0000000 0.6583593 0.1211434
v 0.2995000 0.6020226 0.3068606
v 1.0000000 0.6583593 0.1211434
v 1.0000000 0.6307236 0.2122461
v 0.2995000 0.6020226 0.3068606
v 1.0000000 0.6307236 0.2122461
v 1.0000000 0.6020226 0.3068606
v 0.2995000 0.6583593 0.1211434
v 0.2995000 0.7231118 0.0000000
v 1.0000000 0.7231118 0.0000000
v 0.2995000 0.6583593 0.1211434
v 1.0000000 0.7231118 0.0000000
v 1.0000000 0.7049672 0.0339462
v 0.2995000 0.6583593 0.1211434
v 1.0000000 0.7049672 0.0339462
v 1.0000000 0.6583593 0.1211434
v 0.0574999 1.0000000 0.2552893
v 0.0574999 0.9967763 0.2613204
v 0.0574999 1.0000000 0.2661450
v 0.0574999 1.0000000 0.2661450
v 0.0574999 0.9967763 0.2613204
v 0.0574999 0.9612842 0.3783222
v 0.0574999 1.0000000 0.2661450
v 0.0574999 0.9612842 0.3783222
v 0.0574999 1.0000000 0.4254975
v 0.0574999 1.0000000 0.4254975
v 0.0574999 0.9612842 0.3783222
v 0.0574999 0.9493000 0.5000000
v 0.0574999 1.0000000 0.4254975
v 0.0574999 0.9493000 0.5000000
v 0.0574999 1.0000000 0.5507000
v 0.0574999 1.0000000 0.5507000
v 0.0574999 0.9493000 0.5000000
v 0.0574999 0.9612842 0.6216778
v 0.0574999 1.0000000 0.5507000
v 0.0574999 0.9612842 0.6216778
v 0.0574999 1.0000000 0.6534510
v 0.0574999 1.0000000 0.6534510
v 0.0574999 0.9612842 0.6216778
v 0.0574999 0.9967763 0.7386796
v 0.0574999 1.0000000 0.6534510
v 0.0574999 0.9967763 0.7386796
v 0.0574999 1.0000000 0.7408336
v 0.0574999 1.0000000 0.7408336
v 0.0574999 0.9967763 0.7386796
v 0.0574999 1.0000000 0.7447107
v 0.1289999 0.6728403 1.0000000
v 0.1289999 0.6172004 0.8959051
v 0.2500000 0.6172004 0.8959051
v 0.1289999 0.6728403 1.0000000
v 0.2500000 0.6172004 0.8959051
v 0.1795791 0.6728403 1.0000000
v 0.1795791 0.6728403 1.0000000
v 0.2500000 0.6172004 0.8959051
v 0.2500000 0.6728403 1.0000000
v 0.1289999 0.6172004 0.8959051
v 0.1289999 0.5583286 0.7018307
v 0.2500000 0.5583286 0.7018307
v 0.1289999 0.6172004 0.8959051
v 0.2500000 0.5583286 0.7018307
v 0.2500000 0.6172004 0.8959051
v 0.1289999 0.5583286 0.7018307
v 0.1289999 0.5384499 0.5000000
v 0.2500000 0.5384499 0.5000000
v 0.1289999 0.5583286 0.7018307
v 0.2500000 0.5384499 0.5000000
v 0.2500000 0.5583286 0.7018307
v 0.1289999 0.5384499 0.5000000
v 0.1289999 0.5583286 0.2981693
v 0.2500000 0.5583286 0.2981693
v 0.1289999 0.5384499 0.5000000
v 0.2500000 0.5583286 0.2981693
v 0.2500000 0.5384499 0.5000000
v 0.1289999 0.5583286 0.2981693
v 0.1289999 0.6172004 0.1040949
v 0.2500000 0.6172004 0.1040949
v 0.1289999 0.5583286 0.2981693
v 0.2500000 0.6172004 0.1040949
v 0.2500000 0.5583286 0.2981693
v 0.1289999 0.6172004 0.1040949
v 0.1289999 0.6728403 0.0000000
v 0.1994208 0.6728403 0.0000000
v 0.1289999 0.6172004 0.1040949
v 0.1994208 0.6728403 0.0000000
v 0.2500000 0.6728403 0.0000000
v 0.1289999 0.6172004 0.1040949
v 0.2500000 0.6728403 0.0000000
v 0.2500000 0.6172004 0.1040949
v 0.1289999 0.9373685 0.0000000
v 0.1289999 1.0000000 0.1512058
v 0.1289999 1.0000000 0.0000000
v 0.1289999 1.0000000 0.1512058
v 0.1289999 0.9373685 0.0000000
v 0.1289999 0.7527659 0.0000000
v 0.1289999 1.0000000 0.1512058
v 0.1289999 0.7527659 0.0000000
v 0.1289999 1.0000000 0.4625424
v 0.1289999 1.0000000 0.4625424
v 0.1289999 0.7527659 0.0000000
v 0.1289999 0.6728403 0.0000000
v 0.1289999 1.0000000 0.4625424
v 0.1289999 0.6728403 0.0000000
v 0.1289999 0.6172004 0.1040949
v 0.1289999 1.0000000 0.4625424
v 0.1289999 0.6172004 0.1040949
v 0.1289999 1.0000000 0.6769950
v 0.1289999 1.0000000 0.6769950
v 0.1289999 0.6172004 0.1040949
v 0.1289999 0.5583286 0.2981693
v 0.1289999 1.0000000 0.6769950
v 0.1289999 0.5583286 0.2981693
v 0.1289999 1.0000000 0.8363475
v 0.1289999 1.0000000 0.8363475
v 0.1289999 0.5583286 0.2981693
v 0.1289999 0.5384499 0.5000000
v 0.1289999 1.0000000 0.8363475
v 0.1289999 0.5384499 0.5000000
v 0.1289999 1.0000000 0.9615501
v 0.1289999 1.0000000 0.9615501
v 0.1289999 0.5384499 0.5000000
v 0.1289999 0.5583286 0.7018307
v 0.1289999 1.0000000 0.9615501
v 0.1289999 0.5583286 0.7018307
v 0.1289999 0.9216489 1.0000000
v 0.1289999 1.0000000 0.9615501
v 0.1289999 0.9216489 1.0000000
v 0.1289999 1.0000000 1.0000000
v 0.1289999 0.9216489 1.0000000
v 0.1289999 0.5583286 0.7018307
v 0.1289999 0.6172004 0.8959051
v 0.1289999 0.9216489 1.0000000
v 0.1289999 0.6172004 0.8959051
v 0.1289999 0.7729894 1.0000000
v 0.1289999 0.7729894 1.0000000
v 0.1289999 0.6172004 0.8959051
v 0.1289999 0.6728403 1.0000000
v 0.2500000 0.6728403 1.0000000
v 0.2500000 0.6172004 0.8959051
v 0.2500000 0.7729894 1.0000000
v 0.2500000 0.7729894 1.0000000
v 0.2500000 0.6172004 0.8959051
v 0.2500000 0.5583286 0.7018307
v 0.2500000 0.7729894 1.0000000
v 0.2500000 0.5583286 0.7018307
v 0.2500000 0.9216489 1.0000000
v 0.2500000 0.9216489 1.0000000
v 0.2500000 0.5583286 0.7018307
v 0.2500000 0.5384499 0.5000000
v 0.2500000 0.9216489 1.0000000
v 0.2500000 0.5384499 0.5000000
v 0.2500000 1.0000000 0.9615501
v 0.2500000 0.9216489 1.0000000
v 0.2500000 1.0000000 0.9615501
v 0.2500000 1.0000000 1.0000000
v 0.2500000 1.0000000 0.9615501
v 0.2500000 0.5384499 0.5000000
v 0.2500000 0.5583286 0.2981693
v 0.2500000 1.0000000 0.9615501
v 0.2500000 0.5583286 0.2981693
v 0.2500000 1.0000000 0.8363475
v 0.2500000 1.0000000 0.8363475
v 0.2500000 0.5583286 0.2981693
v 0.2500000 0.6172004 0.1040949
v 0.2500000 1.0000000 0.8363475
v 0.2500000 0.6172004 0.1040949
v 0.2500000 1.0000000 0.6769950
v 0.2500000 1.0000000 0.6769950
v 0.2500000 0.6172004 0.1040949
v 0.2500000 0.6728403 0.0000000
v 0.2500000 1.0000000 0.6769950
v 0.2500000 0.6728403 0.0000000
v 0.2500000 0.7527659 0.0000000
v 0.2500000 1.0000000 0.6769950
v 0.2500000 0.7527659 0.0000000
v 0.2500000 1.0000000 0.4625424
v 0.2500000 1.0000000 0.4625424
v 0.2500000 0.7527659 0.0000000
v 0.2500000 0.9373685 0.0000000
v 0.2500000 1.0000000 0.4625424
v 0.2500000 0.9373685 0.0000000
v 0.2500000 1.0000000 0.1512058
v 0.2500000 1.0000000 0.1512058
v 0.2500000 0.9373685 0.0000000
v 0.2500000 1.0000000 0.0000000
v 0.1245999 0.8572710 0.0187367
v 0.0937998 0.8572710 0.0187367
v 0.0937998 0.8239290 0.0379868
v 0.1245999 0.8572710 0.0187367
v 0.0937998 0.8239290 0.0379868
v 0.1245999 0.8239290 0.0379868
v 0.0937998 0.8572710 0.0000000
v 0.0937998 0.8572710 0.0187367
v 0.1087892 0.8572710 0.0000000
v 0.1087892 0.8572710 0.0000000
v 0.0937998 0.8572710 0.0187367
v 0.1245999 0.8572710 0.0187367
v 0.1087892 0.8572710 0.0000000
v 0.1245999 0.8572710 0.0187367
v 0.1245999 0.8572710 0.0000000
v 0.1245999 0.7905870 0.0000000
v 0.1245999 0.7905870 0.0187367
v 0.0937998 0.7905870 0.0187367
v 0.1245999 0.7905870 0.0000000
v 0.0937998 0.7905870 0.0187367
v 0.1087892 0.7905870 0.0000000
v 0.1087892 0.7905870 0.0000000
v 0.0937998 0.7905870 0.0187367
v 0.0937998 0.7905870 0.0000000
v 0.1245999 0.7905870 0.0187367
v 0.1245999 0.8239290 0.0379868
v 0.0937998 0.8239290 0.0379868
v 0.1245999 0.7905870 0.0187367
v 0.0937998 0.8239290 0.0379868
v 0.0937998 0.7905870 0.0187367
v 0.1245999 0.8572710 0.0000000
v 0.1245999 0.8572710 0.0187367
v 0.1245999 0.8464534 0.0000000
v 0.1245999 0.8464534 0.0000000
v 0.1245999 0.8572710 0.0187367
v 0.1245999 0.8239290 0.0379868
v 0.1245999 0.8464534 0.0000000
v 0.1245999 0.8239290 0.0379868
v 0.1245999 0.8239290 0.0000000
v 0.1245999 0.8239290 0.0000000
v 0.1245999 0.8239290 0.0379868
v 0.1245999 0.7905870 0.0187367
v 0.1245999 0.8239290 0.0000000
v 0.1245999 0.7905870 0.0187367
v 0.1245999 0.8014046 0.0000000
v 0.1245999 0.8014046 0.0000000
v 0.1245999 0.7905870 0.0187367
v 0.1245999 0.7905870 0.0000000
v 0.0937998 0.7905870 0.0000000
v 0.0937998 0.7905870 0.0187367
v 0.0937998 0.8014046 0.0000000
v 0.0937998 0.8014046 0.0000000
v 0.0937998 0.7905870 0.0187367
v 0.0937998 0.8239290 0.0379868
v 0.0937998 0.8014046 0.0000000
v 0.0937998 0.8239290 0.0379868
v 0.0937998 0.8239290 0.0000000
v 0.0937998 0.8239290 0.0000000
v 0.0937998 0.8239290 0.0379868
v 0.0937998 0.8572710 0.0187367
v 0.0937998 0.8239290 0.0000000
v 0.0937998 0.8572710 0.0187367
v 0.0937998 0.8464534 0.0000000
v 0.0937998 0.8464534 0.0000000
v 0.0937998 0.8572710 0.0187367
v 0.0937998 0.8572710 0.0000000
v 0.1245999 0.7227525 0.3434931
v 0.0937998 0.7227525 0.3434931
v 0.0937998 0.6894105 0.3627431
v 0.1245999 0.7227525 0.3434931
v 0.0937998 0.6894105 0.3627431
v 0.1245999 0.6894105 0.3627431
v 0.1245999 0.7227525 0.3049931
v 0.0937998 0.7227525 0.3049931
v 0.0937998 0.7227525 0.3434931
v 0.1245999 0.7227525 0.3049931
v 0.0937998 0.7227525 0.3434931
v 0.1245999 0.7227525 0.3434931
v 0.1245999 0.6894105 0.2857431
v 0.0937998 0.6894105 0.2857431
v 0.0937998 0.7227525 0.3049931
v 0.1245999 0.6894105 0.2857431
v 0.0937998 0.7227525 0.3049931
v 0.1245999 0.7227525 0.3049931
v 0.1245999 0.6894105 0.2857431
v 0.1245999 0.6560685 0.3049931
v 0.0937998 0.6560685 0.3049931
v 0.1245999 0.6894105 0.2857431
v 0.0937998 0.6560685 0.3049931
v 0.0937998 0.6894105 0.2857431
v 0.1245999 0.6560685 0.3049931
v 0.1245999 0.6560685 0.3434931
v 0.0937998 0.6560685 0.3434931
v 0.1245999 0.6560685 0.3049931
v 0.0937998 0.6560685 0.3434931
v 0.0937998 0.6560685 0.3049931
v 0.1245999 0.6560685 0.3434931
v 0.1245999 0.6894105 0.3627431
v 0.0937998 0.6894105 0.3627431
v 0.1245999 0.6560685 0.3434931
v 0.0937998 0.6894105 0.3627431
v 0.0937998 0.6560685 0.3434931
v 0.1245999 0.6894105 0.2857431
v 0.1245999 0.7227525 0.3049931
v 0.1245999 0.7227525 0.3434931
v 0.1245999 0.6894105 0.2857431
v 0.1245999 0.7227525 0.3434931
v 0.1245999 0.6894105 0.3627431
v 0.1245999 0.6894105 0.2857431
v 0.1245999 0.6894105 0.3627431
v 0.1245999 0.6560685 0.3434931
v 0.1245999 0.6894105 0.2857431
v 0.1245999 0.6560685 0.3434931
v 0.1245999 0.6560685 0.3049931
v 0.0937998 0.6894105 0.2857431
v 0.0937998 0.6560685 0.3049931
v 0.0937998 0.6560685 0.3434931
v 0.0937998 0.6894105 0.2857431
v 0.0937998 0.6560685 0.3434931
v 0.0937998 0.6894105 0.3627431
v 0.0937998 0.6894105 0.2857431
v 0.0937998 0.6894105 0.3627431
v 0.0937998 0.7227525 0.3434931
v 0.0937998 0.6894105 0.2857431
v 0.0937998 0.7227525 0.3434931
v 0.0937998 0.7227525 0.3049931
v 0.1245999 0.7227525 0.6950069
v 0.0937998 0.7227525 0.6950069
v 0.0937998 0.6894105 0.7142569
v 0.1245999 0.7227525 0.6950069
v 0.0937998 0.6894105 0.7142569
v 0.1245999 0.6894105 0.7142569
v 0.1245999 0.7227525 0.6565069
v 0.0937998 0.7227525 0.6565069
v 0.0937998 0.7227525 0.6950069
v 0.1245999 0.7227525 0.6565069
v 0.0937998 0.7227525 0.6950069
v 0.1245999 0.7227525 0.6950069
v 0.1245999 0.6894105 0.6372569
v 0.0937998 0.6894105 0.6372569
v 0.0937998 0.7227525 0.6565069
v 0.1245999 0.6894105 0.6372569
v 0.0937998 0.7227525 0.6565069
v 0.1245999 0.7227525 0.6565069
v 0.1245999 0.6894105 0.6372569
v 0.1245999 0.6560685 0.6565069
v 0.0937998 0.6560685 0.6565069
v 0.1245999 0.6894105 0.6372569
v 0.0937998 0.6560685 0.6565069
v 0.0937998 0.6894105 0.6372569
v 0.1245999 0.6560685 0.6565069
v 0.1245999 0.6560685 0.6950069
v 0.0937998 0.6560685 0.6950069
v 0.1245999 0.6560685 0.6565069
v 0.0937998 0.6560685 0.6950069
v 0.0937998 0.6560685 0.6565069
v 0.1245999 0.6560685 0.6950069
v 0.1245999 0.6894105 0.7142569
v 0.0937998 0.6894105 0.7142569
v 0.1245999 0.6560685 0.6950069
v 0.0937998 0.6894105 0.7142569
v 0.0937998 0.6560685 0.6950069
v 0.1245999 0.6894105 0.6372569
v 0.1245999 0.7227525 0.6565069
v 0.1245999 0.7227525 0.6950069
v 0.1245999 0.6894105 0.6372569
v 0.1245999 0.7227525 0.6950069
v 0.1245999 0.6894105 0.7142569
v 0.1245999 0.6894105 0.6372569
v 0.1245999 0.6894105 0.7142569
v 0.1245999 0.6560685 0.6950069
v 0.1245999 0.6894105 0.6372569
v 0.1245999 0.6560685 0.6950069
v 0.1245999 0.6560685 0.6565069
v 0.0937998 0.6894105 0.6372569
v 0.0937998 0.6560685 0.6565069
v 0.0937998 0.6560685 0.6950069
v 0.0937998 0.6894105 0.6372569
v 0.0937998 0.6560685 0.6950069
v 0.0937998 0.6894105 0.7142569
v 0.0937998 0.6894105 0.6372569
v 0.0937998 0.6894105 0.7142569
v 0.0937998 0.7227525 0.6950069
v 0.0937998 0.6894105 0.6372569
v 0.0937998 0.7227525 0.6950069
v 0.0937998 0.7227525 0.6565069
v 0.1245999 0.8572710 0.9812633
v 0.0937998 0.8572710 0.9812633
v 0.0937998 0.8572710 1.0000000
v 0.1245999 0.8572710 0.9812633
v 0.0937998 0.8572710 1.0000000
v 0.1096105 0.8572710 1.0000000
v 0.1245999 0.8572710 0.9812633
v 0.1096105 0.8572710 1.0000000
v 0.1245999 0.8572710 1.0000000
v 0.1245999 0.8239290 0.9620132
v 0.0937998 0.8239290 0.9620132
v 0.0937998 0.8572710 0.9812633
v 0.1245999 0.8239290 0.9620132
v 0.0937998 0.8572710 0.9812633
v 0.1245999 0.8572710 0.9812633
v 0.1245999 0.8239290 0.9620132
v 0.1245999 0.7905870 0.9812633
v 0.0937998 0.7905870 0.9812633
v 0.1245999 0.8239290 0.9620132
v 0.0937998 0.7905870 0.9812633
v 0.0937998 0.8239290 0.9620132
v 0.1245999 0.7905870 0.9812633
v 0.1245999 0.7905870 1.0000000
v 0.1096105 0.7905870 1.0000000
v 0.1245999 0.7905870 0.9812633
v 0.1096105 0.7905870 1.0000000
v 0.0937998 0.7905870 1.0000000
v 0.1245999 0.7905870 0.9812633
v 0.0937998 0.7905870 1.0000000
v 0.0937998 0.7905870 0.9812633
v 0.1245999 0.8239290 0.9620132
v 0.1245999 0.8572710 0.9812633
v 0.1245999 0.8572710 1.0000000
v 0.1245999 0.8239290 0.9620132
v 0.1245999 0.8572710 1.0000000
v 0.1245999 0.8458607 1.0000000
v 0.1245999 0.8239290 0.9620132
v 0.1245999 0.8458607 1.0000000
v 0.1245999 0.8239290 1.0000000
v 0.1245999 0.8239290 0.9620132
v 0.1245999 0.8239290 1.0000000
v 0.1245999 0.8019973 1.0000000
v 0.1245999 0.8239290 0.9620132
v 0.1245999 0.8019973 1.0000000
v 0.1245999 0.7905870 1.0000000
v 0.1245999 0.8239290 0.9620132
v 0.1245999 0.7905870 1.0000000
v 0.1245999 0.7905870 0.9812633
v 0.0937998 0.8239290 0.9620132
v 0.0937998 0.7905870 0.9812633
v 0.0937998 0.7905870 1.0000000
v 0.0937998 0.8239290 0.9620132
v 0.0937998 0.7905870 1.0000000
v 0.0937998 0.8019973 1.0000000
v 0.0937998 0.8239290 0.9620132
v 0.0937998 0.8019973 1.0000000
v 0.0937998 0.8239290 1.0000000
v 0.0937998 0.8239290 0.9620132
v 0.0937998 0.8239290 1.0000000
v 0.0937998 0.8458607 1.0000000
v 0.0937998 0.8239290 0.9620132
v 0.0937998 0.8458607 1.0000000
v 0.0937998 0.8572710 1.0000000
v 0.0937998 0.8239290 0.9620132
v 0.0937998 0.8572710 1.0000000
v 0.0937998 0.8572710 0.9812633
v 1.0000000 0.1870000 0.0000000
v 1.0000000 0.1870000 1.0000000
v 0.0000000 0.1870000 1.0000000
v 1.0000000 0.1870000 0.0000000
v 0.0000000 0.1870000 1.0000000
v 0.0000000 0.1870000 0.0000000
v 1.0000000 0.2420000 1.0000000
v 1.0000000 0.2420000 0.0000000
v 0.0000000 0.2420000 0.0000000
v 1.0000000 0.2420000 1.0000000
v 0.0000000 0.2420000 0.0000000
v 0.0000000 0.2420000 1.0000000
vt 0.2898399 0.0285867
vt 0.2835279 0.0191402
vt 0.2850988 0.0285867
vt 0.2850988 0.0285867
vt 0.2835279 0.0191402
vt 0.2829072 0.0196496
vt 0.2850988 0.0285867
vt 0.2829072 0.0196496
vt 0.2829072 0.0285867
vt 0.2980166 0.0285867
vt 0.2983736 0.0283959
vt 0.2925436 0.0143211
vt 0.2980166 0.0285867
vt 0.2925436 0.0143211
vt 0.2920933 0.0285867
vt 0.2920933 0.0285867
vt 0.2925436 0.0143211
vt 0.2835279 0.0191402
vt 0.2920933 0.0285867
vt 0.2835279 0.0191402
vt 0.2898399 0.0285867
vt 0.2983736 0.0283959
vt 0.3052984 0.0262952
vt 0.3023264 0.0113536
vt 0.2983736 0.0283959
vt 0.3023264 0.0113536
vt 0.2925436 0.0143211
vt 0.3052984 0.0262952
vt 0.3125000 0.0255859
vt 0.3125000 0.0103516
vt 0.3052984 0.0262952
vt 0.3125000 0.0103516
vt 0.3023264 0.0113536
vt 0.3125000 0.0255859
vt 0.3197016 0.0262952
vt 0.3226736 0.0113536
vt 0.3125000 0.0255859
vt 0.3226736 0.0113536
vt 0.3125000 0.0103516
vt 0.3197016 0.0262952
vt 0.3266264 0.0283959
vt 0.3324564 0.0143211
vt 0.3197016 0.0262952
vt 0.3324564 0.0143211
vt 0.3226736 0.0113536
vt 0.3266264 0.0283959
vt 0.3269834 0.0285867
vt 0.3351601 0.0285867
vt 0.3266264 0.0283959
vt 0.3351601 0.0285867
vt 0.3414721 0.0191402
vt 0.3266264 0.0283959
vt 0.3414721 0.0191402
vt 0.3324564 0.0143211
vt 0.3420928 0.0283758
vt 0.3415346 0.0285867
vt 0.3420928 0.0285867
vt 0.3415346 0.0285867
vt 0.3420928 0.0283758
vt 0.3420928 0.0196496
vt 0.3415346 0.0285867
vt 0.3420928 0.0196496
vt 0.3414721 0.0191402
vt 0.3415346 0.0285867
vt 0.3414721 0.0191402
vt 0.3351601 0.0285867
vt 0.2829072 0.0196496
vt 0.2835279 0.0191402
vt 0.2829072 0.0182113
vt 0.2610085 0.0335279
vt 0.2610085 0.0425437
vt 0.2695312 0.0400771
vt 0.2610085 0.0335279
vt 0.2695312 0.0400771
vt 0.2695312 0.0329072
vt 0.2610085 0.0335279
vt 0.2695312 0.0329072
vt 0.2624858 0.0329072
vt 0.2610085 0.0425437
vt 0.2610085 0.0523263
vt 0.2695312 0.0510689
vt 0.2610085 0.0425437
vt 0.2695312 0.0510689
vt 0.2695312 0.0400771
vt 0.2610085 0.0523263
vt 0.2610085 0.0625000
vt 0.2695312 0.0625000
vt 0.2610085 0.0523263
vt 0.2695312 0.0625000
vt 0.2695312 0.0510689
vt 0.2610085 0.0625000
vt 0.2610085 0.0726737
vt 0.2695312 0.0739311
vt 0.2610085 0.0625000
vt 0.2695312 0.0739311
vt 0.2695312 0.0625000
vt 0.2610085 0.0726737
vt 0.2610085 0.0824563
vt 0.2695312 0.0849229
vt 0.2610085 0.0726737
vt 0.2695312 0.0849229
vt 0.2695312 0.0739311
vt 0.2610085 0.0824563
vt 0.2610085 0.0914721
vt 0.2624858 0.0920928
vt 0.2610085 0.0824563
vt 0.2624858 0.0920928
vt 0.2675284 0.0920928
vt 0.2610085 0.0824563
vt 0.2675284 0.0920928
vt 0.2695312 0.0920928
vt 0.2610085 0.0824563
vt 0.2695312 0.0920928
vt 0.2695312 0.0849229
vt 0.3414721 0.0191402
vt 0.3420928 0.0196496
vt 0.3420928 0.0192362
vt 0.3414721 0.0191402
vt 0.3420928 0.0192362
vt 0.3420928 0.0182113
vt 0.2695312 0.0329072
vt 0.2695312 0.0400771
vt 0.3147598 0.0400771
vt 0.2695312 0.0329072
vt 0.3147598 0.0400771
vt 0.3147598 0.0351079
vt 0.2695312 0.0329072
vt 0.3147598 0.0351079
vt 0.2954734 0.0329072
vt 0.2954734 0.0329072
vt 0.3147598 0.0351079
vt 0.3147598 0.0329072
vt 0.2695312 0.0400771
vt 0.2695312 0.0510689
vt 0.3147598 0.0510689
vt 0.2695312 0.0400771
vt 0.3147598 0.0510689
vt 0.3147598 0.0456769
vt 0.2695312 0.0400771
vt 0.3147598 0.0456769
vt 0.3147598 0.0400771
vt 0.2695312 0.0510689
vt 0.2695312 0.0625000
vt 0.3147598 0.0625000
vt 0.2695312 0.0510689
vt 0.3147598 0.0625000
vt 0.3147598 0.0568925
vt 0.2695312 0.0510689
vt 0.3147598 0.0568925
vt 0.3147598 0.0510689
vt 0.2695312 0.0625000
vt 0.2695312 0.0739311
vt 0.3147598 0.0739311
vt 0.2695312 0.0625000
vt 0.3147598 0.0739311
vt 0.3147598 0.0683236
vt 0.2695312 0.0625000
vt 0.3147598 0.0683236
vt 0.3147598 0.0625000
vt 0.2695312 0.0739311
vt 0.2695312 0.0849229
vt 0.3147598 0.0849229
vt 0.2695312 0.0739311
vt 0.3147598 0.0849229
vt 0.3147598 0.0795309
vt 0.2695312 0.0739311
vt 0.3147598 0.0795309
vt 0.3147598 0.0739311
vt 0.2695312 0.0849229
vt 0.2695312 0.0920928
vt 0.3147598 0.0920928
vt 0.2695312 0.0849229
vt 0.3147598 0.0920928
vt 0.3147598 0.0900837
vt 0.2695312 0.0849229
vt 0.3147598 0.0900837
vt 0.3147598 0.0849229
vt 0.3269834 0.0285867
vt 0.3266264 0.0283959
vt 0.3263409 0.0285867
vt 0.3263409 0.0285867
vt 0.3266264 0.0283959
vt 0.3197016 0.0262952
vt 0.3263409 0.0285867
vt 0.3197016 0.0262952
vt 0.3169095 0.0285866
vt 0.3169095 0.0285866
vt 0.3197016 0.0262952
vt 0.3125000 0.0255859
vt 0.3169095 0.0285866
vt 0.3125000 0.0255859
vt 0.3094993 0.0285866
vt 0.3094993 0.0285866
vt 0.3125000 0.0255859
vt 0.3052984 0.0262952
vt 0.3094993 0.0285866
vt 0.3052984 0.0262952
vt 0.3034179 0.0285866
vt 0.3034179 0.0285866
vt 0.3052984 0.0262952
vt 0.2983736 0.0283959
vt 0.3034179 0.0285866
vt 0.2983736 0.0283959
vt 0.2982461 0.0285867
vt 0.2982461 0.0285867
vt 0.2983736 0.0283959
vt 0.2980166 0.0285867
vt 0.2539062 0.0341815
vt 0.2539062 0.0400771
vt 0.3710938 0.0400771
vt 0.2539062 0.0341815
vt 0.3710938 0.0400771
vt 0.3028917 0.0341815
vt 0.3028917 0.0341815
vt 0.3710938 0.0400771
vt 0.3710938 0.0341815
vt 0.2539062 0.0400771
vt 0.2539062 0.0510689
vt 0.3710938 0.0510689
vt 0.2539062 0.0400771
vt 0.3710938 0.0510689
vt 0.3710938 0.0400771
vt 0.2539062 0.0510689
vt 0.2539062 0.0625000
vt 0.3710938 0.0625000
vt 0.2539062 0.0510689
vt 0.3710938 0.0625000
vt 0.3710938 0.0510689
vt 0.2539062 0.0625000
vt 0.2539062 0.0739311
vt 0.3710938 0.0739311
vt 0.2539062 0.0625000
vt 0.3710938 0.0739311
vt 0.3710938 0.0625000
vt 0.2539062 0.0739311
vt 0.2539062 0.0849229
vt 0.3710938 0.0849229
vt 0.2539062 0.0739311
vt 0.3710938 0.0849229
vt 0.3710938 0.0739311
vt 0.2539062 0.0849229
vt 0.2539062 0.0908185
vt 0.3221083 0.0908185
vt 0.2539062 0.0849229
vt 0.3221083 0.0908185
vt 0.3710938 0.0908185
vt 0.2539062 0.0849229
vt 0.3710938 0.0908185
vt 0.3710938 0.0849229
vt 0.3408184 0.0264998
vt 0.3322546 0.0300471
vt 0.3408184 0.0300471
vt 0.3322546 0.0300471
vt 0.3408184 0.0264998
vt 0.3408185 0.0160445
vt 0.3322546 0.0300471
vt 0.3408185 0.0160445
vt 0.3146215 0.0300470
vt 0.3146215 0.0300470
vt 0.3408185 0.0160445
vt 0.3408185 0.0115177
vt 0.3146215 0.0300470
vt 0.3408185 0.0115177
vt 0.3349229 0.0083664
vt 0.3146215 0.0300470
vt 0.3349229 0.0083664
vt 0.3024756 0.0300470
vt 0.3024756 0.0300470
vt 0.3349229 0.0083664
vt 0.3239311 0.0050321
vt 0.3024756 0.0300470
vt 0.3239311 0.0050321
vt 0.2934503 0.0300470
vt 0.2934503 0.0300470
vt 0.3239311 0.0050321
vt 0.3125000 0.0039062
vt 0.2934503 0.0300470
vt 0.3125000 0.0039062
vt 0.2863592 0.0300470
vt 0.2863592 0.0300470
vt 0.3125000 0.0039062
vt 0.3010689 0.0050321
vt 0.2863592 0.0300470
vt 0.3010689 0.0050321
vt 0.2841815 0.0256095
vt 0.2863592 0.0300470
vt 0.2841815 0.0256095
vt 0.2841815 0.0300470
vt 0.2841815 0.0256095
vt 0.3010689 0.0050321
vt 0.2900771 0.0083664
vt 0.2841815 0.0256095
vt 0.2900771 0.0083664
vt 0.2841815 0.0171898
vt 0.2841815 0.0171898
vt 0.2900771 0.0083664
vt 0.2841815 0.0115177
vt 0.2841815 0.0115177
vt 0.2900771 0.0083664
vt 0.2841815 0.0171898
vt 0.2841815 0.0171898
vt 0.2900771 0.0083664
vt 0.3010689 0.0050321
vt 0.2841815 0.0171898
vt 0.3010689 0.0050321
vt 0.2841815 0.0256095
vt 0.2841815 0.0256095
vt 0.3010689 0.0050321
vt 0.3125000 0.0039062
vt 0.2841815 0.0256095
vt 0.3125000 0.0039062
vt 0.2863592 0.0300470
vt 0.2841815 0.0256095
vt 0.2863592 0.0300470
vt 0.2841815 0.0300470
vt 0.2863592 0.0300470
vt 0.3125000 0.0039062
vt 0.3239311 0.0050321
vt 0.2863592 0.0300470
vt 0.3239311 0.0050321
vt 0.2934503 0.0300470
vt 0.2934503 0.0300470
vt 0.3239311 0.0050321
vt 0.3349229 0.0083664
vt 0.2934503 0.0300470
vt 0.3349229 0.0083664
vt 0.3024756 0.0300470
vt 0.3024756 0.0300470
vt 0.3349229 0.0083664
vt 0.3408185 0.0115177
vt 0.3024756 0.0300470
vt 0.3408185 0.0115177
vt 0.3408185 0.0160445
vt 0.3024756 0.0300470
vt 0.3408185 0.0160445
vt 0.3146215 0.0300470
vt 0.3146215 0.0300470
vt 0.3408185 0.0160445
vt 0.3408184 0.0264998
vt 0.3146215 0.0300470
vt 0.3408184 0.0264998
vt 0.3322546 0.0300471
vt 0.3322546 0.0300471
vt 0.3408184 0.0264998
vt 0.3408184 0.0300471
vt 0.9960938 0.0039062
vt 0.9960938 0.1210938
vt 0.9375000 0.1210938
vt 0.9960938 0.0039062
vt 0.9375000 0.1210938
vt 0.9375000 0.0039062
vt 0.9382811 0.1210938
vt 0.9667969 0.1210938
vt 0.9382811 0.0640623
vt 0.9382811 0.0640623
vt 0.9667969 0.1210938
vt 0.9667969 0.0039062
vt 0.9382811 0.0640623
vt 0.9667969 0.0039062
vt 0.9382811 0.0039062
vt 0.9382811 0.0039062
vt 0.9667969 0.0039062
vt 0.9667969 0.1210938
vt 0.9382811 0.0039062
vt 0.9667969 0.1210938
vt 0.9382811 0.0640623
vt 0.9382811 0.0640623
vt 0.9667969 0.1210938
vt 0.9382811 0.1210938
vt 0.8789062 0.0039062
vt 0.9375000 0.0039062
vt 0.9375000 0.1210938
vt 0.8789062 0.0039062
vt 0.9375000 0.1210938
vt 0.8789062 0.1210938
vt 0.9382811 0.1210938
vt 0.9667969 0.1210938
vt 0.9382812 0.1020833
vt 0.9382812 0.1020833
vt 0.9667969 0.1210938
vt 0.9960938 0.0625000
vt 0.9382812 0.1020833
vt 0.9960938 0.0625000
vt 0.9382811 0.0625000
vt 0.9382811 0.0625000
vt 0.9960938 0.0625000
vt 0.9667969 0.0039062
vt 0.9382811 0.0625000
vt 0.9667969 0.0039062
vt 0.9382812 0.0229167
vt 0.9382812 0.0229167
vt 0.9667969 0.0039062
vt 0.9382811 0.0039062
vt 0.9382811 0.0039062
vt 0.9667969 0.0039062
vt 0.9382812 0.0229167
vt 0.9382812 0.0229167
vt 0.9667969 0.0039062
vt 0.9960938 0.0625000
vt 0.9382812 0.0229167
vt 0.9960938 0.0625000
vt 0.9382811 0.0625000
vt 0.9382811 0.0625000
vt 0.9960938 0.0625000
vt 0.9667969 0.1210938
vt 0.9382811 0.0625000
vt 0.9667969 0.1210938
vt 0.9382812 0.1020833
vt 0.9382812 0.1020833
vt 0.9667969 0.1210938
vt 0.9382811 0.1210938
vt 0.9960938 0.0039062
vt 0.9960938 0.1210938
vt 0.9375000 0.1210938
vt 0.9960938 0.0039062
vt 0.9375000 0.1210938
vt 0.9375000 0.0039062
vt 0.9082031 0.0039062
vt 0.9082031 0.1210938
vt 0.9667969 0.1210938
vt 0.9082031 0.0039062
vt 0.9667969 0.1210938
vt 0.9667969 0.0039062
vt 0.9375000 0.0039062
vt 0.9375000 0.1210938
vt 0.9960938 0.1210938
vt 0.9375000 0.0039062
vt 0.9960938 0.1210938
vt 0.9960938 0.0039062
vt 0.9375000 0.0039062
vt 0.8789062 0.0039062
vt 0.8789062 0.1210938
vt 0.9375000 0.0039062
vt 0.8789062 0.1210938
vt 0.9375000 0.1210938
vt 0.9082031 0.0039062
vt 0.9667969 0.0039062
vt 0.9667969 0.1210938
vt 0.9082031 0.0039062
vt 0.9667969 0.1210938
vt 0.9082031 0.1210938
vt 0.8789062 0.0039062
vt 0.9375000 0.0039062
vt 0.9375000 0.1210938
vt 0.8789062 0.0039062
vt 0.9375000 0.1210938
vt 0.8789062 0.1210938
vt 0.8789062 0.0625000
vt 0.9082031 0.1210938
vt 0.9667969 0.1210938
vt 0.8789062 0.0625000
vt 0.9667969 0.1210938
vt 0.9960938 0.0625000
vt 0.8789062 0.0625000
vt 0.9960938 0.0625000
vt 0.9667969 0.0039062
vt 0.8789062 0.0625000
vt 0.9667969 0.0039062
vt 0.9082031 0.0039062
vt 0.8789062 0.0625000
vt 0.9082031 0.0039062
vt 0.9667969 0.0039062
vt 0.8789062 0.0625000
vt 0.9667969 0.0039062
vt 0.9960938 0.0625000
vt 0.8789062 0.0625000
vt 0.9960938 0.0625000
vt 0.9667969 0.1210938
vt 0.8789062 0.0625000
vt 0.9667969 0.1210938
vt 0.9082031 0.1210938
vt 0.9960938 0.0039062
vt 0.9960938 0.1210938
vt 0.9375000 0.1210938
vt 0.9960938 0.0039062
vt 0.9375000 0.1210938
vt 0.9375000 0.0039062
vt 0.9082031 0.0039062
vt 0.9082031 0.1210938
vt 0.9667969 0.1210938
vt 0.9082031 0.0039062
vt 0.9667969 0.1210938
vt 0.9667969 0.0039062
vt 0.9375000 0.0039062
vt 0.9375000 0.1210938
vt 0.9960938 0.1210938
vt 0.9375000 0.0039062
vt 0.9960938 0.1210938
vt 0.9960938 0.0039062
vt 0.9375000 0.0039062
vt 0.8789062 0.0039062
vt 0.8789062 0.1210938
vt 0.9375000 0.0039062
vt 0.8789062 0.1210938
vt 0.9375000 0.1210938
vt 0.9082031 0.0039062
vt 0.9667969 0.0039062
vt 0.9667969 0.1210938
vt 0.9082031 0.0039062
vt 0.9667969 0.1210938
vt 0.9082031 0.1210938
vt 0.8789062 0.0039062
vt 0.9375000 0.0039062
vt 0.9375000 0.1210938
vt 0.8789062 0.0039062
vt 0.9375000 0.1210938
vt 0.8789062 0.1210938
vt 0.8789062 0.0625000
vt 0.9082031 0.1210938
vt 0.9667969 0.1210938
vt 0.8789062 0.0625000
vt 0.9667969 0.1210938
vt 0.9960938 0.0625000
vt 0.8789062 0.0625000
vt 0.9960938 0.0625000
vt 0.9667969 0.0039062
vt 0.8789062 0.0625000
vt 0.9667969 0.0039062
vt 0.9082031 0.0039062
vt 0.8789062 0.0625000
vt 0.9082031 0.0039062
vt 0.9667969 0.0039062
vt 0.8789062 0.0625000
vt 0.9667969 0.0039062
vt 0.9960938 0.0625000
vt 0.8789062 0.0625000
vt 0.9960938 0.0625000
vt 0.9667969 0.1210938
vt 0.8789062 0.0625000
vt 0.9667969 0.1210938
vt 0.9082031 0.1210938
vt 0.9082031 0.0039062
vt 0.9082031 0.1210938
vt 0.9367189 0.1210938
vt 0.9082031 0.0039062
vt 0.9367189 0.1210938
vt 0.9367189 0.0609377
vt 0.9082031 0.0039062
vt 0.9367189 0.0609377
vt 0.9367189 0.0039062
vt 0.9375000 0.0039062
vt 0.9375000 0.1210938
vt 0.9960938 0.1210938
vt 0.9375000 0.0039062
vt 0.9960938 0.1210938
vt 0.9960938 0.0039062
vt 0.9375000 0.0039062
vt 0.8789062 0.0039062
vt 0.8789062 0.1210938
vt 0.9375000 0.0039062
vt 0.8789062 0.1210938
vt 0.9375000 0.1210938
vt 0.9082031 0.0039062
vt 0.9367189 0.0039062
vt 0.9367189 0.0609377
vt 0.9082031 0.0039062
vt 0.9367189 0.0609377
vt 0.9367189 0.1210938
vt 0.9082031 0.0039062
vt 0.9367189 0.1210938
vt 0.9082031 0.1210938
vt 0.8789062 0.0625000
vt 0.9082031 0.1210938
vt 0.9367189 0.1210938
vt 0.8789062 0.0625000
vt 0.9367189 0.1210938
vt 0.9367190 0.1010418
vt 0.8789062 0.0625000
vt 0.9367190 0.1010418
vt 0.9367189 0.0625000
vt 0.8789062 0.0625000
vt 0.9367189 0.0625000
vt 0.9367190 0.0239582
vt 0.8789062 0.0625000
vt 0.9367190 0.0239582
vt 0.9367189 0.0039062
vt 0.8789062 0.0625000
vt 0.9367189 0.0039062
vt 0.9082031 0.0039062
vt 0.8789062 0.0625000
vt 0.9082031 0.0039062
vt 0.9367189 0.0039062
vt 0.8789062 0.0625000
vt 0.9367189 0.0039062
vt 0.9367190 0.0239582
vt 0.8789062 0.0625000
vt 0.9367190 0.0239582
vt 0.9367189 0.0625000
vt 0.8789062 0.0625000
vt 0.9367189 0.0625000
vt 0.9367190 0.1010418
vt 0.8789062 0.0625000
vt 0.9367190 0.1010418
vt 0.9367189 0.1210938
vt 0.8789062 0.0625000
vt 0.9367189 0.1210938
vt 0.9082031 0.1210938
vt 0.0305288 0.2089451
vt 0.0305534 0.1659486
vt 0.0145573 0.1659486
vt 0.0305288 0.2089451
vt 0.0145573 0.1659486
vt 0.0145327 0.2089451
vt 0.0304927 0.1660694
vt 0.0304927 0.2090268
vt 0.0145057 0.2089977
vt 0.0304927 0.1660694
vt 0.0145057 0.2089977
vt 0.0145057 0.1660403
vn -0.9195513 -0.3267428 0.2183223
vn -0.9195513 -0.3267428 0.2183223
vn -0.9202280 -0.3002126 0.2511031
vn -0.9202280 -0.3002126 0.2511031
vn -0.9195513 -0.3267428 0.2183223
vn -0.9197488 -0.3229737 0.2230474
vn -0.9202280 -0.3002126 0.2511031
vn -0.9197488 -0.3229737 0.2230474
vn -0.9201251 -0.2927301 0.2601517
vn -0.9196953 -0.3610826 0.1542073
vn -0.9195512 -0.3630572 0.1503832
vn -0.9195512 -0.3630572 0.1503832
vn -0.9196953 -0.3610826 0.1542073
vn -0.9195512 -0.3630572 0.1503832
vn -0.9199615 -0.3335796 0.2059016
vn -0.9199615 -0.3335796 0.2059016
vn -0.9195512 -0.3630572 0.1503832
vn -0.9195513 -0.3267428 0.2183223
vn -0.9199615 -0.3335796 0.2059016
vn -0.9195513 -0.3267428 0.2183223
vn -0.9195513 -0.3267428 0.2183223
vn -0.9195512 -0.3630572 0.1503832
vn -0.9195511 -0.3854195 0.0766648
vn -0.9195511 -0.3854195 0.0766648
vn -0.9195512 -0.3630572 0.1503832
vn -0.9195511 -0.3854195 0.0766648
vn -0.9195512 -0.3630572 0.1503832
vn -0.9195511 -0.3854195 0.0766648
vn -0.9195512 -0.3929702 0.0000000
vn -0.9195512 -0.3929702 0.0000000
vn -0.9195511 -0.3854195 0.0766648
vn -0.9195512 -0.3929702 0.0000000
vn -0.9195511 -0.3854195 0.0766648
vn -0.9195512 -0.3929702 0.0000000
vn -0.9195512 -0.3854194 -0.0766648
vn -0.9195512 -0.3854194 -0.0766648
vn -0.9195512 -0.3929702 0.0000000
vn -0.9195512 -0.3854194 -0.0766648
vn -0.9195512 -0.3929702 0.0000000
vn -0.9195512 -0.3854194 -0.0766648
vn -0.9195512 -0.3630571 -0.1503832
vn -0.9195512 -0.3630571 -0.1503832
vn -0.9195512 -0.3854194 -0.0766648
vn -0.9195512 -0.3630571 -0.1503832
vn -0.9195512 -0.3854194 -0.0766648
vn -0.9195512 -0.3630571 -0.1503832
vn -0.9196953 -0.3610826 -0.1542073
vn -0.9195513 -0.3267428 -0.2183223
vn -0.9195512 -0.3630571 -0.1503832
vn -0.9195513 -0.3267428 -0.2183223
vn -0.9195513 -0.3267428 -0.2183223
vn -0.9195512 -0.3630571 -0.1503832
vn -0.9195513 -0.3267428 -0.2183223
vn -0.9195512 -0.3630571 -0.1503832
vn -0.9202259 -0.2998356 -0.2515611
vn -0.9202329 -0.3015058 -0.2495307
vn -0.9202184 -0.2988208 -0.2527927
vn -0.9202329 -0.3015058 -0.2495307
vn -0.9202259 -0.2998356 -0.2515611
vn -0.9197488 -0.3229737 -0.2230474
vn -0.9202329 -0.3015058 -0.2495307
vn -0.9197488 -0.3229737 -0.2230474
vn -0.9195513 -0.3267428 -0.2183223
vn -0.9202329 -0.3015058 -0.2495307
vn -0.9195513 -0.3267428 -0.2183223
vn -0.9195513 -0.3267428 -0.2183223
vn -0.6369096 -0.6343644 0.4380959
vn -0.6363824 -0.6413739 0.4285522
vn -0.6363824 -0.6413739 0.4285522
vn -0.6363824 -0.6413739 0.4285522
vn -0.6363822 -0.7126566 0.2951920
vn -0.6363822 -0.7126566 0.2951920
vn -0.6363824 -0.6413739 0.4285522
vn -0.6363822 -0.7126566 0.2951920
vn -0.6378925 -0.6637751 0.3905071
vn -0.6363824 -0.6413739 0.4285522
vn -0.6378925 -0.6637751 0.3905071
vn -0.6363824 -0.6413739 0.4285522
vn -0.6363822 -0.7126566 0.2951920
vn -0.6363821 -0.7565522 0.1504877
vn -0.6363822 -0.7565522 0.1504878
vn -0.6363822 -0.7126566 0.2951920
vn -0.6363822 -0.7565522 0.1504878
vn -0.6363822 -0.7126566 0.2951920
vn -0.6363821 -0.7565522 0.1504877
vn -0.6363822 -0.7713739 0.0000000
vn -0.6363823 -0.7713739 0.0000000
vn -0.6363821 -0.7565522 0.1504877
vn -0.6363823 -0.7713739 0.0000000
vn -0.6363822 -0.7565522 0.1504878
vn -0.6363822 -0.7713739 0.0000000
vn -0.6363821 -0.7565522 -0.1504877
vn -0.6363822 -0.7565522 -0.1504878
vn -0.6363822 -0.7713739 0.0000000
vn -0.6363822 -0.7565522 -0.1504878
vn -0.6363823 -0.7713739 0.0000000
vn -0.6363821 -0.7565522 -0.1504877
vn -0.6363822 -0.7126566 -0.2951920
vn -0.6363822 -0.7126566 -0.2951920
vn -0.6363821 -0.7565522 -0.1504877
vn -0.6363822 -0.7126566 -0.2951920
vn -0.6363822 -0.7565522 -0.1504878
vn -0.6363822 -0.7126566 -0.2951920
vn -0.6363822 -0.6413738 -0.4285527
vn -0.6363822 -0.6413738 -0.4285527
vn -0.6363822 -0.7126566 -0.2951920
vn -0.6363822 -0.6413738 -0.4285527
vn -0.6376942 -0.6594818 -0.3980325
vn -0.6363822 -0.7126566 -0.2951920
vn -0.6376942 -0.6594818 -0.3980325
vn -0.6378924 -0.6637750 -0.3905075
vn -0.6363822 -0.7126566 -0.2951920
vn -0.6378924 -0.6637750 -0.3905075
vn -0.6363822 -0.7126566 -0.2951920
vn -0.6363822 -0.6413738 -0.4285527
vn -0.6369094 -0.6343642 -0.4380964
vn -0.6367268 -0.6369399 -0.4346108
vn -0.6363822 -0.6413738 -0.4285527
vn -0.6367268 -0.6369399 -0.4346108
vn -0.6363822 -0.6413738 -0.4285527
vn 0.0000000 -0.8619051 0.5070696
vn 0.0000000 -0.9238796 0.3826833
vn 0.0000000 -0.9238796 0.3826833
vn 0.0000000 -0.8619051 0.5070696
vn 0.0000000 -0.9238796 0.3826833
vn 0.0000000 -0.8827977 0.4697534
vn 0.0000000 -0.8619051 0.5070696
vn 0.0000000 -0.8827977 0.4697534
vn 0.0000000 -0.8619051 0.5070696
vn 0.0000000 -0.8619051 0.5070696
vn 0.0000000 -0.8827977 0.4697534
vn 0.0000000 -0.8619051 0.5070696
vn 0.0000000 -0.9238796 0.3826833
vn 0.0000000 -0.9807853 0.1950904
vn 0.0000000 -0.9807853 0.1950904
vn 0.0000000 -0.9238796 0.3826833
vn 0.0000000 -0.9807853 0.1950904
vn 0.0000000 -0.9574793 0.2885020
vn 0.0000000 -0.9238796 0.3826833
vn 0.0000000 -0.9574793 0.2885020
vn 0.0000000 -0.9238796 0.3826833
vn 0.0000000 -0.9807853 0.1950904
vn 0.0000000 -1.0000000 0.0000000
vn 0.0000000 -1.0000000 0.0000000
vn 0.0000000 -0.9807853 0.1950904
vn 0.0000000 -1.0000000 0.0000000
vn 0.0000000 -0.9953655 0.0961636
vn 0.0000000 -0.9807853 0.1950904
vn 0.0000000 -0.9953655 0.0961636
vn 0.0000000 -0.9807853 0.1950904
vn 0.0000000 -1.0000000 0.0000000
vn 0.0000000 -0.9807853 -0.1950904
vn 0.0000000 -0.9807853 -0.1950904
vn 0.0000000 -1.0000000 0.0000000
vn 0.0000000 -0.9807853 -0.1950904
vn 0.0000000 -0.9950005 -0.0998704
vn 0.0000000 -1.0000000 0.0000000
vn 0.0000000 -0.9950005 -0.0998704
vn 0.0000000 -1.0000000 0.0000000
vn 0.0000000 -0.9807853 -0.1950904
vn 0.0000000 -0.9238796 -0.3826833
vn 0.0000000 -0.9238796 -0.3826833
vn 0.0000000 -0.9807853 -0.1950904
vn 0.0000000 -0.9238796 -0.3826833
vn 0.0000000 -0.9563981 -0.2920663
vn 0.0000000 -0.9807853 -0.1950904
vn 0.0000000 -0.9563981 -0.2920663
vn 0.0000000 -0.9807853 -0.1950904
vn 0.0000000 -0.9238796 -0.3826833
vn 0.0000000 -0.8619051 -0.5070696
vn 0.0000000 -0.8619051 -0.5070696
vn 0.0000000 -0.9238796 -0.3826833
vn 0.0000000 -0.8619051 -0.5070696
vn 0.0000000 -0.8810418 -0.4730383
vn 0.0000000 -0.9238796 -0.3826833
vn 0.0000000 -0.8810418 -0.4730383
vn 0.0000000 -0.9238796 -0.3826833
vn -1.0000000 0.0000000 -0.0000001
vn -1.0000000 0.0000000 -0.0000001
vn -1.0000000 0.0000000 -0.0000001
vn -1.0000000 0.0000000 -0.0000001
vn -1.0000000 0.0000000 -0.0000001
vn -1.0000000 0.0000000 -0.0000001
vn -1.0000000 0.0000000 -0.0000001
vn -1.0000000 0.0000000 -0.0000001
vn -1.0000000 0.0000000 -0.0000001
vn -1.0000000 0.0000000 -0.0000001
vn -1.0000000 0.0000000 -0.0000001
vn -1.0000000 0.0000000 -0.0000001
vn -1.0000000 0.0000000 -0.0000001
vn -1.0000000 0.0000000 -0.0000001
vn -1.0000000 0.0000000 -0.0000001
vn -1.0000000 0.0000000 -0.0000001
vn -1.0000000 0.0000000 -0.0000001
vn -1.0000000 0.0000000 -0.0000001
vn -1.0000000 0.0000000 -0.0000001
vn -1.0000000 0.0000000 -0.0000001
vn -1.0000000 0.0000000 -0.0000001
vn -1.0000000 0.0000000 -0.0000001
vn -1.0000000 0.0000000 -0.0000001
vn -1.0000000 0.0000000 -0.0000001
vn -1.0000000 0.0000000 -0.0000001
vn -1.0000000 0.0000000 -0.0000001
vn -1.0000000 0.0000000 -0.0000001
vn -1.0000000 0.0000000 -0.0000001
vn -1.0000000 0.0000000 -0.0000001
vn -1.0000000 0.0000000 -0.0000001
vn 0.0000000 -0.8741938 0.4855772
vn 0.0000000 -0.9238795 0.3826836
vn 0.0000000 -0.9238795 0.3826836
vn 0.0000000 -0.8741938 0.4855772
vn 0.0000000 -0.9238795 0.3826836
vn 0.0000000 -0.8741938 0.4855772
vn 0.0000000 -0.8741938 0.4855772
vn 0.0000000 -0.9238795 0.3826836
vn 0.0000000 -0.8741938 0.4855772
vn 0.0000000 -0.9238795 0.3826836
vn 0.0000000 -0.9807853 0.1950902
vn 0.0000000 -0.9807853 0.1950902
vn 0.0000000 -0.9238795 0.3826836
vn 0.0000000 -0.9807853 0.1950902
vn 0.0000000 -0.9238795 0.3826836
vn 0.0000000 -0.9807853 0.1950902
vn 0.0000000 -1.0000000 0.0000000
vn 0.0000000 -1.0000000 0.0000000
vn 0.0000000 -0.9807853 0.1950902
vn 0.0000000 -1.0000000 0.0000000
vn 0.0000000 -0.9807853 0.1950902
vn 0.0000000 -1.0000000 0.0000000
vn 0.0000000 -0.9807853 -0.1950902
vn 0.0000000 -0.9807853 -0.1950902
vn 0.0000000 -1.0000000 0.0000000
vn 0.0000000 -0.9807853 -0.1950902
vn 0.0000000 -1.0000000 0.0000000
vn 0.0000000 -0.9807853 -0.1950902
vn 0.0000000 -0.9238795 -0.3826836
vn 0.0000000 -0.9238795 -0.3826836
vn 0.0000000 -0.9807853 -0.1950902
vn 0.0000000 -0.9238795 -0.3826836
vn 0.0000000 -0.9807853 -0.1950902
vn 0.0000000 -0.9238795 -0.3826836
vn 0.0000000 -0.8741938 -0.4855772
vn 0.0000000 -0.8741938 -0.4855772
vn 0.0000000 -0.9238795 -0.3826836
vn 0.0000000 -0.8741938 -0.4855772
vn 0.0000000 -0.8741938 -0.4855772
vn 0.0000000 -0.9238795 -0.3826836
vn 0.0000000 -0.8741938 -0.4855772
vn 0.0000000 -0.9238795 -0.3826836
vn -1.0000000 0.0000000 0.0000000
vn -1.0000000 0.0000000 0.0000000
vn -1.0000000 0.0000000 0.0000000
vn -1.0000000 0.0000000 0.0000000
vn -1.0000000 0.0000000 0.0000000
vn -1.0000000 0.0000000 0.0000000
vn -1.0000000 0.0000000 0.0000000
vn -1.0000000 0.0000000 0.0000000
vn -1.0000000 0.0000000 0.0000000
vn -1.0000000 0.0000000 0.0000000
vn -1.0000000 0.0000000 0.0000000
vn -1.0000000 0.0000000 0.0000000
vn -1.0000000 0.0000000 0.0000000
vn -1.0000000 0.0000000 0.0000000
vn -1.0000000 0.0000000 -0.0000000
vn -1.0000000 0.0000000 0.0000000
vn -1.0000000 0.0000000 -0.0000000
vn -1.0000000 0.0000000 0.0000000
vn -1.0000000 0.0000000 0.0000000
vn -1.0000000 0.0000000 -0.0000000
vn -1.0000000 0.0000000 -0.0000000
vn -1.0000000 0.0000000 0.0000000
vn -1.0000000 0.0000000 -0.0000000
vn -1.0000000 0.0000000 0.0000000
vn -1.0000000 0.0000000 0.0000000
vn -1.0000000 0.0000000 -0.0000000
vn -1.0000000 0.0000000 -0.0000000
vn -1.0000000 0.0000000 0.0000000
vn -1.0000000 0.0000000 -0.0000000
vn -1.0000000 0.0000000 0.0000000
vn -1.0000000 0.0000000 0.0000000
vn -1.0000000 0.0000000 -0.0000000
vn -1.0000000 0.0000000 -0.0000000
vn -1.0000000 0.0000000 0.0000000
vn -1.0000000 0.0000000 -0.0000000
vn -1.0000000 0.0000000 0.0000000
vn -1.0000000 0.0000000 0.0000000
vn -1.0000000 0.0000000 0.0000000
vn -1.0000000 0.0000000 0.0000000
vn -1.0000000 0.0000000 0.0000000
vn -1.0000000 0.0000000 -0.0000000
vn -1.0000000 0.0000000 -0.0000000
vn -1.0000000 0.0000000 0.0000000
vn -1.0000000 0.0000000 -0.0000000
vn -1.0000000 0.0000000 0.0000000
vn -1.0000000 0.0000000 0.0000000
vn -1.0000000 0.0000000 -0.0000000
vn -1.0000000 0.0000000 0.0000000
vn 1.0000000 0.0000000 -0.0000001
vn 1.0000000 0.0000000 -0.0000001
vn 1.0000000 0.0000000 -0.0000001
vn 1.0000000 0.0000000 -0.0000001
vn 1.0000000 0.0000000 -0.0000001
vn 1.0000000 0.0000000 -0.0000001
vn 1.0000000 0.0000000 -0.0000001
vn 1.0000000 0.0000000 -0.0000001
vn 1.0000000 0.0000000 -0.0000001
vn 1.0000000 0.0000000 -0.0000001
vn 1.0000000 0.0000000 -0.0000001
vn 1.0000000 0.0000000 -0.0000001
vn 1.0000000 0.0000000 -0.0000001
vn 1.0000000 0.0000000 -0.0000001
vn 1.0000000 0.0000000 -0.0000001
vn 1.0000000 0.0000000 -0.0000001
vn 1.0000000 0.0000000 -0.0000001
vn 1.0000000 0.0000000 -0.0000001
vn 1.0000000 0.0000000 -0.0000001
vn 1.0000000 0.0000000 -0.0000001
vn 1.0000000 0.0000000 -0.0000001
vn 1.0000000 0.0000000 -0.0000001
vn 1.0000000 0.0000000 -0.0000001
vn 1.0000000 0.0000000 -0.0000001
vn 1.0000000 0.0000000 -0.0000001
vn 1.0000000 0.0000000 -0.0000001
vn 1.0000000 0.0000000 -0.0000001
vn 1.0000000 0.0000000 -0.0000001
vn 1.0000000 0.0000000 -0.0000001
vn 1.0000000 0.0000000 -0.0000001
vn 1.0000000 0.0000000 -0.0000001
vn 1.0000000 0.0000000 -0.0000001
vn 1.0000000 0.0000000 -0.0000001
vn 1.0000000 0.0000000 -0.0000001
vn 1.0000000 0.0000000 -0.0000001
vn 1.0000000 0.0000000 -0.0000001
vn 1.0000000 0.0000000 -0.0000001
vn 1.0000000 0.0000000 -0.0000001
vn 1.0000000 0.0000000 -0.0000001
vn 1.0000000 0.0000000 -0.0000001
vn 1.0000000 0.0000000 -0.0000001
vn 1.0000000 0.0000000 -0.0000001
vn 1.0000000 0.0000000 -0.0000001
vn 1.0000000 0.0000000 -0.0000001
vn 1.0000000 0.0000000 -0.0000001
vn 1.0000000 0.0000000 -0.0000001
vn 1.0000000 0.0000000 -0.0000001
vn 1.0000000 0.0000000 -0.0000001
vn -0.0000001 0.5000000 0.8660254
vn -0.0000001 0.5000000 0.8660254
vn -0.0000001 0.5000000 0.8660254
vn -0.0000001 0.5000000 0.8660254
vn -0.0000001 0.5000000 0.8660254
vn -0.0000001 0.5000000 0.8660254
vn 0.0000000 1.0000000 0.0000000
vn -0.0000000 1.0000000 -0.0000000
vn 0.0000000 1.0000000 0.0000000
vn 0.0000000 1.0000000 0.0000000
vn -0.0000000 1.0000000 -0.0000000
vn -0.0000000 1.0000000 -0.0000000
vn 0.0000000 1.0000000 0.0000000
vn -0.0000000 1.0000000 -0.0000000
vn 0.0000000 1.0000000 0.0000000
vn 0.0000000 -1.0000000 0.0000000
vn 0.0000000 -1.0000000 0.0000000
vn 0.0000000 -1.0000000 0.0000000
vn 0.0000000 -1.0000000 0.0000000
vn 0.0000000 -1.0000000 0.0000000
vn 0.0000000 -1.0000000 0.0000000
vn 0.0000000 -1.0000000 0.0000000
vn 0.0000000 -1.0000000 0.0000000
vn 0.0000000 -1.0000000 0.0000000
vn -0.0000000 -0.5000000 0.8660254
vn -0.0000000 -0.5000000 0.8660254
vn -0.0000000 -0.5000000 0.8660254
vn -0.0000000 -0.5000000 0.8660254
vn -0.0000000 -0.5000000 0.8660254
vn -0.0000000 -0.5000000 0.8660254
vn 1.0000000 0.0000000 0.0000000
vn 1.0000000 0.0000000 0.0000000
vn 1.0000000 0.0000000 0.0000000
vn 1.0000000 0.0000000 0.0000000
vn 1.0000000 0.0000000 0.0000000
vn 1.0000000 0.0000000 0.0000000
vn 1.0000000 0.0000000 0.0000000
vn 1.0000000 0.0000000 0.0000000
vn 1.0000000 0.0000000 0.0000000
vn 1.0000000 0.0000000 0.0000000
vn 1.0000000 0.0000000 0.0000000
vn 1.0000000 0.0000000 0.0000000
vn 1.0000000 0.0000000 0.0000000
vn 1.0000000 0.0000000 0.0000000
vn 1.0000000 0.0000000 0.0000000
vn 1.0000000 0.0000000 0.0000000
vn 1.0000000 0.0000000 0.0000000
vn 1.0000000 0.0000000 0.0000000
vn -1.0000000 0.0000000 0.0000000
vn -1.0000000 -0.0000000 -0.0000000
vn -1.0000000 0.0000000 0.0000000
vn -1.0000000 0.0000000 0.0000000
vn -1.0000000 -0.0000000 -0.0000000
vn -1.0000000 -0.0000000 -0.0000000
vn -1.0000000 0.0000000 0.0000000
vn -1.0000000 -0.0000000 -0.0000000
vn -1.0000000 0.0000000 0.0000000
vn -1.0000000 0.0000000 0.0000000
vn -1.0000000 -0.0000000 -0.0000000
vn -1.0000000 -0.0000000 -0.0000000
vn -1.0000000 0.0000000 0.0000000
vn -1.0000000 -0.0000000 -0.0000000
vn -1.0000000 0.0000000 0.0000000
vn -1.0000000 0.0000000 0.0000000
vn -1.0000000 -0.0000000 -0.0000000
vn -1.0000000 0.0000000 0.0000000
vn -0.0000001 0.5000000 0.8660254
vn -0.0000001 0.5000000 0.8660254
vn -0.0000001 0.5000000 0.8660254
vn -0.0000001 0.5000000 0.8660254
vn -0.0000001 0.5000000 0.8660254
vn -0.0000001 0.5000000 0.8660254
vn -0.0000000 1.0000000 -0.0000000
vn -0.0000000 1.0000000 -0.0000000
vn -0.0000000 1.0000000 -0.0000000
vn -0.0000000 1.0000000 -0.0000000
vn -0.0000000 1.0000000 -0.0000000
vn -0.0000000 1.0000000 -0.0000000
vn 0.0000000 0.5000000 -0.8660254
vn 0.0000000 0.5000000 -0.8660254
vn 0.0000000 0.5000000 -0.8660254
vn 0.0000000 0.5000000 -0.8660254
vn 0.0000000 0.5000000 -0.8660254
vn 0.0000000 0.5000000 -0.8660254
vn 0.0000001 -0.5000000 -0.8660254
vn 0.0000001 -0.5000000 -0.8660254
vn 0.0000001 -0.5000000 -0.8660254
vn 0.0000001 -0.5000000 -0.8660254
vn 0.0000001 -0.5000000 -0.8660254
vn 0.0000001 -0.5000000 -0.8660254
vn 0.0000000 -1.0000000 0.0000000
vn 0.0000000 -1.0000000 0.0000000
vn 0.0000000 -1.0000000 0.0000000
vn 0.0000000 -1.0000000 0.0000000
vn 0.0000000 -1.0000000 0.0000000
vn 0.0000000 -1.0000000 0.0000000
vn -0.0000000 -0.5000000 0.8660254
vn -0.0000000 -0.5000000 0.8660254
vn -0.0000000 -0.5000000 0.8660254
vn -0.0000000 -0.5000000 0.8660254
vn -0.0000000 -0.5000000 0.8660254
vn -0.0000000 -0.5000000 0.8660254
vn 1.0000000 0.0000000 0.0000000
vn 1.0000000 0.0000000 0.0000000
vn 1.0000000 0.0000000 0.0000000
vn 1.0000000 0.0000000 0.0000000
vn 1.0000000 0.0000000 0.0000000
vn 1.0000000 0.0000000 0.0000000
vn 1.0000000 0.0000000 0.0000000
vn 1.0000000 0.0000000 0.0000000
vn 1.0000000 0.0000000 0.0000000
vn 1.0000000 0.0000000 0.0000000
vn 1.0000000 0.0000000 0.0000000
vn 1.0000000 0.0000000 0.0000000
vn -1.0000000 -0.0000000 -0.0000000
vn -1.0000000 -0.0000000 -0.0000000
vn -1.0000000 -0.0000000 -0.0000000
vn -1.0000000 -0.0000000 -0.0000000
vn -1.0000000 -0.0000000 -0.0000000
vn -1.0000000 -0.0000000 -0.0000000
vn -1.0000000 -0.0000000 -0.0000000
vn -1.0000000 -0.0000000 -0.0000000
vn -1.0000000 -0.0000000 -0.0000000
vn -1.0000000 -0.0000000 -0.0000000
vn -1.0000000 -0.0000000 -0.0000000
vn -1.0000000 -0.0000000 -0.0000000
vn -0.0000001 0.5000000 0.8660254
vn -0.0000001 0.5000000 0.8660254
vn -0.0000001 0.5000000 0.8660254
vn -0.0000001 0.5000000 0.8660254
vn -0.0000001 0.5000000 0.8660254
vn -0.0000001 0.5000000 0.8660254
vn -0.0000000 1.0000000 -0.0000000
vn -0.0000000 1.0000000 -0.0000000
vn -0.0000000 1.0000000 -0.0000000
vn -0.0000000 1.0000000 -0.0000000
vn -0.0000000 1.0000000 -0.0000000
vn -0.0000000 1.0000000 -0.0000000
vn 0.0000000 0.5000000 -0.8660254
vn 0.0000000 0.5000000 -0.8660254
vn 0.0000000 0.5000000 -0.8660254
vn 0.0000000 0.5000000 -0.8660254
vn 0.0000000 0.5000000 -0.8660254
vn 0.0000000 0.5000000 -0.8660254
vn 0.0000001 -0.5000000 -0.8660254
vn 0.0000001 -0.5000000 -0.8660254
vn 0.0000001 -0.5000000 -0.8660254
vn 0.0000001 -0.5000000 -0.8660254
vn 0.0000001 -0.5000000 -0.8660254
vn 0.0000001 -0.5000000 -0.8660254
vn 0.0000000 -1.0000000 0.0000000
vn 0.0000000 -1.0000000 0.0000000
vn 0.0000000 -1.0000000 0.0000000
vn 0.0000000 -1.0000000 0.0000000
vn 0.0000000 -1.0000000 0.0000000
vn 0.0000000 -1.0000000 0.0000000
vn -0.0000000 -0.5000000 0.8660254
vn -0.0000000 -0.5000000 0.8660254
vn -0.0000000 -0.5000000 0.8660254
vn -0.0000000 -0.5000000 0.8660254
vn -0.0000000 -0.5000000 0.8660254
vn -0.0000000 -0.5000000 0.8660254
vn 1.0000000 0.0000000 0.0000000
vn 1.0000000 0.0000000 0.0000000
vn 1.0000000 0.0000000 0.0000000
vn 1.0000000 0.0000000 0.0000000
vn 1.0000000 0.0000000 0.0000000
vn 1.0000000 0.0000000 0.0000000
vn 1.0000000 0.0000000 0.0000000
vn 1.0000000 0.0000000 0.0000000
vn 1.0000000 0.0000000 0.0000000
vn 1.0000000 0.0000000 0.0000000
vn 1.0000000 0.0000000 0.0000000
vn 1.0000000 0.0000000 0.0000000
vn -1.0000000 -0.0000000 -0.0000000
vn -1.0000000 -0.0000000 -0.0000000
vn -1.0000000 -0.0000000 -0.0000000
vn -1.0000000 -0.0000000 -0.0000000
vn -1.0000000 -0.0000000 -0.0000000
vn -1.0000000 -0.0000000 -0.0000000
vn -1.0000000 -0.0000000 -0.0000000
vn -1.0000000 -0.0000000 -0.0000000
vn -1.0000000 -0.0000000 -0.0000000
vn -1.0000000 -0.0000000 -0.0000000
vn -1.0000000 -0.0000000 -0.0000000
vn -1.0000000 -0.0000000 -0.0000000
vn -0.0000000 1.0000000 -0.0000000
vn -0.0000000 1.0000000 -0.0000000
vn 0.0000000 1.0000000 0.0000000
vn -0.0000000 1.0000000 -0.0000000
vn 0.0000000 1.0000000 0.0000000
vn 0.0000000 1.0000000 0.0000000
vn -0.0000000 1.0000000 -0.0000000
vn 0.0000000 1.0000000 0.0000000
vn 0.0000000 1.0000000 0.0000000
vn 0.0000000 0.5000000 -0.8660254
vn 0.0000000 0.5000000 -0.8660254
vn 0.0000000 0.5000000 -0.8660254
vn 0.0000000 0.5000000 -0.8660254
vn 0.0000000 0.5000000 -0.8660254
vn 0.0000000 0.5000000 -0.8660254
vn 0.0000001 -0.5000000 -0.8660254
vn 0.0000001 -0.5000000 -0.8660254
vn 0.0000001 -0.5000000 -0.8660254
vn 0.0000001 -0.5000000 -0.8660254
vn 0.0000001 -0.5000000 -0.8660254
vn 0.0000001 -0.5000000 -0.8660254
vn 0.0000000 -1.0000000 0.0000000
vn 0.0000000 -1.0000000 0.0000000
vn 0.0000000 -1.0000000 0.0000000
vn 0.0000000 -1.0000000 0.0000000
vn 0.0000000 -1.0000000 0.0000000
vn 0.0000000 -1.0000000 0.0000000
vn 0.0000000 -1.0000000 0.0000000
vn 0.0000000 -1.0000000 0.0000000
vn 0.0000000 -1.0000000 0.0000000
vn 1.0000000 0.0000000 0.0000000
vn 1.0000000 0.0000000 0.0000000
vn 1.0000000 0.0000000 0.0000000
vn 1.0000000 0.0000000 0.0000000
vn 1.0000000 0.0000000 0.0000000
vn 1.0000000 0.0000000 0.0000000
vn 1.0000000 0.0000000 0.0000000
vn 1.0000000 0.0000000 0.0000000
vn 1.0000000 0.0000000 0.0000000
vn 1.0000000 0.0000000 0.0000000
vn 1.0000000 0.0000000 0.0000000
vn 1.0000000 0.0000000 0.0000000
vn 1.0000000 0.0000000 0.0000000
vn 1.0000000 0.0000000 0.0000000
vn 1.0000000 0.0000000 0.0000000
vn 1.0000000 0.0000000 0.0000000
vn 1.0000000 0.0000000 0.0000000
vn 1.0000000 0.0000000 0.0000000
vn -1.0000000 -0.0000000 -0.0000000
vn -1.0000000 -0.0000000 -0.0000000
vn -1.0000000 0.0000000 0.0000000
vn -1.0000000 -0.0000000 -0.0000000
vn -1.0000000 0.0000000 0.0000000
vn -1.0000000 0.0000000 0.0000000
vn -1.0000000 -0.0000000 -0.0000000
vn -1.0000000 0.0000000 0.0000000
vn -1.0000000 0.0000000 0.0000000
vn -1.0000000 -0.0000000 -0.0000000
vn -1.0000000 0.0000000 0.0000000
vn -1.0000000 0.0000000 0.0000000
vn -1.0000000 -0.0000000 -0.0000000
vn -1.0000000 0.0000000 0.0000000
vn -1.0000000 0.0000000 0.0000000
vn -1.0000000 -0.0000000 -0.0000000
vn -1.0000000 0.0000000 0.0000000
vn -1.0000000 -0.0000000 -0.0000000
vn 0.0000000 -1.0000000 0.0000000
vn 0.0000000 -1.0000000 0.0000000
vn 0.0000000 -1.0000000 0.0000000
vn 0.0000000 -1.0000000 0.0000000
vn 0.0000000 -1.0000000 0.0000000
vn 0.0000000 -1.0000000 0.0000000
vn 0.0000000 1.0000000 0.0000000
vn 0.0000000 1.0000000 0.0000000
vn 0.0000000 1.0000000 0.0000000
vn 0.0000000 1.0000000 0.0000000
vn 0.0000000 1.0000000 0.0000000
vn 0.0000000 1.0000000 0.0000000
f 1/1/1 2/2/2 3/3/3
f 4/4/4 5/5/5 6/6/6
f 7/7/7 8/8/8 9/9/9
f 10/10/10 11/11/11 12/12/12
f 13/13/13 14/14/14 15/15/15
f 16/16/16 17/17/17 18/18/18
f 19/19/19 20/20/20 21/21/21
f 22/22/22 23/23/23 24/24/24
f 25/25/25 26/26/26 27/27/27
f 28/28/28 29/29/29 30/30/30
f 31/31/31 32/32/32 33/33/33
f 34/34/34 35/35/35 36/36/36
f 37/37/37 38/38/38 39/39/39
f 40/40/40 41/41/41 42/42/42
f 43/43/43 44/44/44 45/45/45
f 46/46/46 47/47/47 48/48/48
f 49/49/49 50/50/50 51/51/51
f 52/52/52 53/53/53 54/54/54
f 55/55/55 56/56/56 57/57/57
f 58/58/58 59/59/59 60/60/60
f 61/61/61 62/62/62 63/63/63
f 64/64/64 65/65/65 66/66/66
f 67/67/67 68/68/68 69/69/69
f 70/70/70 71/71/71 72/72/72
f 73/73/73 74/74/74 75/75/75
f 76/76/76 77/77/77 78/78/78
f 79/79/79 80/80/80 81/81/81
f 82/82/82 83/83/83 84/84/84
f 85/85/85 86/86/86 87/87/87
f 88/88/88 89/89/89 90/90/90
f 91/91/91 92/92/92 93/93/93
f 94/94/94 95/95/95 96/96/96
f 97/97/97 98/98/98 99/99/99
f 100/100/100 101/101/101 102/102/102
f 103/103/103 104/104/104 105/105/105
f 106/106/106 107/107/107 108/108/108
f 109/109/109 110/110/110 111/111/111
f 112/112/112 113/113/113 114/114/114
f 115/115/115 116/116/116 117/117/117
f 118/118/118 119/119/119 120/120/120
f 121/121/121 122/122/122 123/123/123
f 124/124/124 125/125/125 126/126/126
f 127/127/127 128/128/128 129/129/129
f 130/130/130 131/131/131 132/132/132
f 133/133/133 134/134/134 135/135/135
f 136/136/136 137/137/137 138/138/138
f 139/139/139 140/140/140 141/141/141
f 142/142/142 143/143/143 144/144/144
f 145/145/145 146/146/146 147/147/147
f 148/148/148 149/149/149 150/150/150
f 151/151/151 152/152/152 153/153/153
f 154/154/154 155/155/155 156/156/156
f 157/157/157 158/158/158 159/159/159
f 160/160/160 161/161/161 162/162/162
f 163/163/163 164/164/164 165/165/165
f 166/166/166 167/167/167 168/168/168
f 169/169/169 170/170/170 171/171/171
f 172/172/172 173/173/173 174/174/174
f 175/175/175 176/176/176 177/177/177
f 178/178/178 179/179/179 180/180/180
f 181/181/181 182/182/182 183/183/183
f 184/184/184 185/185/185 186/186/186
f 187/187/187 188/188/188 189/189/189
f 190/190/190 191/191/191 192/192/192
f 193/193/193 194/194/194 195/195/195
f 196/196/196 197/197/197 198/198/198
f 199/199/199 200/200/200 201/201/201
f 202/202/202 203/203/203 204/204/204
f 205/205/205 206/206/206 207/207/207
f 208/208/208 209/209/209 210/210/210
f 211/211/211 212/212/212 213/213/213
f 214/214/214 215/215/215 216/216/216
f 217/217/217 218/218/218 219/219/219
f 220/220/220 221/221/221 222/222/222
f 223/223/223 224/224/224 225/225/225
f 226/226/226 227/227/227 228/228/228
f 229/229/229 230/230/230 231/231/231
f 232/232/232 233/233/233 234/234/234
f 235/235/235 236/236/236 237/237/237
f 238/238/238 239/239/239 240/240/240
f 241/241/241 242/242/242 243/243/243
f 244/244/244 245/245/245 246/246/246
f 247/247/247 248/248/248 249/249/249
f 250/250/250 251/251/251 252/252/252
f 253/253/253 254/254/254 255/255/255
f 256/256/256 257/257/257 258/258/258
f 259/259/259 260/260/260 261/261/261
f 262/262/262 263/263/263 264/264/264
f 265/265/265 266/266/266 267/267/267
f 268/268/268 269/269/269 270/270/270
f 271/271/271 272/272/272 273/273/273
f 274/274/274 275/275/275 276/276/276
f 277/277/277 278/278/278 279/279/279
f 280/280/280 281/281/281 282/282/282
f 283/283/283 284/284/284 285/285/285
f 286/286/286 287/287/287 288/288/288
f 289/289/289 290/290/290 291/291/291
f 292/292/292 293/293/293 294/294/294
f 295/295/295 296/296/296 297/297/297
f 298/298/298 299/299/299 300/300/300
f 301/301/301 302/302/302 303/303/303
f 304/304/304 305/305/305 306/306/306
f 307/307/307 308/308/308 309/309/309
f 310/310/310 311/311/311 312/312/312
f 313/313/313 314/314/314 315/315/315
f 316/316/316 317/317/317 318/318/318
f 319/319/319 320/320/320 321/321/321
f 322/322/322 323/323/323 324/324/324
f 325/325/325 326/326/326 327/327/327
f 328/328/328 329/329/329 330/330/330
f 331/331/331 332/332/332 333/333/333
f 334/334/334 335/335/335 336/336/336
f 337/337/337 338/338/338 339/339/339
f 340/340/340 341/341/341 342/342/342
f 343/343/343 344/344/344 345/345/345
f 346/346/346 347/347/347 348/348/348
f 349/349/349 350/350/350 351/351/351
f 352/352/352 353/353/353 354/354/354
f 355/355/355 356/356/356 357/357/357
f 358/358/358 359/359/359 360/360/360
f 361/361/361 362/362/362 363/363/363
f 364/364/364 365/365/365 366/366/366
f 367/367/367 368/368/368 369/369/369
f 370/370/370 371/371/371 372/372/372
f 373/373/373 374/374/374 375/375/375
f 376/376/376 377/377/377 378/378/378
f 379/379/379 380/380/380 381/381/381
f 382/382/382 383/383/383 384/384/384
f 385/385/385 386/386/386 387/387/387
f 388/388/388 389/389/389 390/390/390
f 391/391/391 392/392/392 393/393/393
f 394/394/394 395/395/395 396/396/396
f 397/397/397 398/398/398 399/399/399
f 400/400/400 401/401/401 402/402/402
f 403/403/403 404/404/404 405/405/405
f 406/406/406 407/407/407 408/408/408
f 409/409/409 410/410/410 411/411/411
f 412/412/412 413/413/413 414/414/414
f 415/415/415 416/416/416 417/417/417
f 418/418/418 419/419/419 420/420/420
f 421/421/421 422/422/422 423/423/423
f 424/424/424 425/425/425 426/426/426
f 427/427/427 428/428/428 429/429/429
f 430/430/430 431/431/431 432/432/432
f 433/433/433 434/434/434 435/435/435
f 436/436/436 437/437/437 438/438/438
f 439/439/439 440/440/440 441/441/441
f 442/442/442 443/443/443 444/444/444
f 445/445/445 446/446/446 447/447/447
f 448/448/448 449/449/449 450/450/450
f 451/451/451 452/452/452 453/453/453
f 454/454/454 455/455/455 456/456/456
f 457/457/457 458/458/458 459/459/459
f 460/460/460 461/461/461 462/462/462
f 463/463/463 464/464/464 465/465/465
f 466/466/466 467/467/467 468/468/468
f 469/469/469 470/470/470 471/471/471
f 472/472/472 473/473/473 474/474/474
f 475/475/475 476/476/476 477/477/477
f 478/478/478 479/479/479 480/480/480
f 481/481/481 482/482/482 483/483/483
f 484/484/484 485/485/485 486/486/486
f 487/487/487 488/488/488 489/489/489
f 490/490/490 491/491/491 492/492/492
f 493/493/493 494/494/494 495/495/495
f 496/496/496 497/497/497 498/498/498
f 499/499/499 500/500/500 501/501/501
f 502/502/502 503/503/503 504/504/504
f 505/505/505 506/506/506 507/507/507
f 508/508/508 509/509/509 510/510/510
f 511/511/511 512/512/512 513/513/513
f 514/514/514 515/515/515 516/516/516
f 517/517/517 518/518/518 519/519/519
f 520/520/520 521/521/521 522/522/522
f 523/523/523 524/524/524 525/525/525
f 526/526/526 527/527/527 528/528/528
f 529/529/529 530/530/530 531/531/531
f 532/532/532 533/533/533 534/534/534
f 535/535/535 536/536/536 537/537/537
f 538/538/538 539/539/539 540/540/540
f 541/541/541 542/542/542 543/543/543
f 544/544/544 545/545/545 546/546/546
f 547/547/547 548/548/548 549/549/549
f 550/550/550 551/551/551 552/552/552
f 553/553/553 554/554/554 555/555/555
f 556/556/556 557/557/557 558/558/558
f 559/559/559 560/560/560 561/561/561
f 562/562/562 563/563/563 564/564/564
f 565/565/565 566/566/566 567/567/567
f 568/568/568 569/569/569 570/570/570
f 571/571/571 572/572/572 573/573/573
f 574/574/574 575/575/575 576/576/576
f 577/577/577 578/578/578 579/579/579
f 580/580/580 581/581/581 582/582/582
f 583/583/583 584/584/584 585/585/585
f 586/586/586 587/587/587 588/588/588
f 589/589/589 590/590/590 591/591/591
f 592/592/592 593/593/593 594/594/594
f 595/595/595 596/596/596 597/597/597
f 598/598/598 599/599/599 600/600/600
f 601/601/601 602/602/602 603/603/603
f 604/604/604 605/605/605 606/606/606
f 607/607/607 608/608/608 609/609/609
