# metre = block; Y up; per-cell coordinates; atlas UVs preserved
mtllib materials.mtl
o cell_54
usemtl pump_atlas
v 0.0000000 0.0985694 0.7134297
v 0.8214998 0.0985694 0.7134297
v 0.8214998 0.0000000 0.6607432
v 0.0000000 0.0985694 0.7134297
v 0.8214998 0.0000000 0.6607432
v 0.0042195 0.0000000 0.6607432
v 0.0000000 0.0985694 0.7134297
v 0.0042195 0.0000000 0.6607432
v 0.0000000 0.0003355 0.6609226
v 0.0000000 0.0003355 0.6609226
v 0.0042195 0.0000000 0.6607432
v 0.0000000 0.0000000 0.6607432
v 0.0000000 0.2419229 0.8310769
v 0.8214998 0.2419229 0.8310769
v 0.8214998 0.0985694 0.7134297
v 0.0000000 0.2419229 0.8310769
v 0.8214998 0.0985694 0.7134297
v 0.0000000 0.1558202 0.7604142
v 0.0000000 0.1558202 0.7604142
v 0.8214998 0.0985694 0.7134297
v 0.0000000 0.0985694 0.7134297
v 0.0000000 0.3595703 0.9744306
v 0.8214998 0.3595703 0.9744306
v 0.8214998 0.2419229 0.8310769
v 0.0000000 0.3595703 0.9744306
v 0.8214998 0.2419229 0.8310769
v 0.0000000 0.2889075 0.8883278
v 0.0000000 0.2889075 0.8883278
v 0.8214998 0.2419229 0.8310769
v 0.0000000 0.2419229 0.8310769
v 0.8214998 0.3732374 1.0000000
v 0.8214998 0.3595703 0.9744306
v 0.4999101 0.3732374 1.0000000
v 0.4999101 0.3732374 1.0000000
v 0.8214998 0.3595703 0.9744306
v 0.0000000 0.3595703 0.9744306
v 0.4999101 0.3732374 1.0000000
v 0.0000000 0.3595703 0.9744306
v 0.0000000 0.3732374 1.0000000
v 0.8214998 0.0985694 0.7134297
v 0.9205000 0.0670352 0.7606239
v 0.9205000 0.0000000 0.7247929
v 0.8214998 0.0985694 0.7134297
v 0.9205000 0.0000000 0.7247929
v 0.8741704 0.0000000 0.6948193
v 0.8214998 0.0985694 0.7134297
v 0.8741704 0.0000000 0.6948193
v 0.8214998 0.0000000 0.6607432
v 0.8214998 0.2419229 0.8310769
v 0.9205000 0.2017877 0.8712124
v 0.9205000 0.0670352 0.7606239
v 0.8214998 0.2419229 0.8310769
v 0.9205000 0.0670352 0.7606239
v 0.8214998 0.0985694 0.7134297
v 0.8214998 0.3595703 0.9744306
v 0.9017740 0.3213028 1.0000000
v 0.9205000 0.3074809 1.0000000
v 0.8214998 0.3595703 0.9744306
v 0.9205000 0.3074809 1.0000000
v 0.9205000 0.2017877 0.8712124
v 0.8214998 0.3595703 0.9744306
v 0.9205000 0.2017877 0.8712124
v 0.8214998 0.2419229 0.8310769
v 0.9017740 0.3213028 1.0000000
v 0.8214998 0.3595703 0.9744306
v 0.8214998 0.3732374 1.0000000
v 0.9205000 0.0670352 0.7606239
v 0.9721903 0.0000000 0.8609492
v 0.9436964 0.0000000 0.7858941
v 0.9205000 0.0670352 0.7606239
v 0.9436964 0.0000000 0.7858941
v 0.9205000 0.0000000 0.7247929
v 0.9205000 0.2017877 0.8712124
v 0.9974999 0.0746922 0.9983078
v 0.9974999 0.0000000 0.9370095
v 0.9205000 0.2017877 0.8712124
v 0.9974999 0.0000000 0.9370095
v 0.9867273 0.0000000 0.9046356
v 0.9205000 0.2017877 0.8712124
v 0.9867273 0.0000000 0.9046356
v 0.9721903 0.0000000 0.8609492
v 0.9205000 0.2017877 0.8712124
v 0.9721903 0.0000000 0.8609492
v 0.9205000 0.0670352 0.7606239
v 0.9974999 0.0760810 1.0000000
v 0.9974999 0.0746922 0.9983078
v 0.9804827 0.1272211 1.0000000
v 0.9804827 0.1272211 1.0000000
v 0.9974999 0.0746922 0.9983078
v 0.9205000 0.2017877 0.8712124
v 0.9804827 0.1272211 1.0000000
v 0.9205000 0.2017877 0.8712124
v 0.9205000 0.3074809 1.0000000
v 0.9974999 0.0000000 0.9370095
v 0.9974999 0.0746922 0.9983078
v 0.9974999 0.0739913 1.0000000
v 0.9974999 0.0000000 0.9370095
v 0.9974999 0.0739913 1.0000000
v 0.9974999 0.0000000 1.0000000
v 0.9974999 0.0739913 1.0000000
v 0.9974999 0.0746922 0.9983078
v 0.9974999 0.0760810 1.0000000
v 0.8215001 0.0318100 0.7053177
v 0.9095001 0.0318100 0.7053177
v 0.9095001 0.0000000 0.6921416
v 0.8215001 0.0318100 0.7053177
v 0.9095001 0.0000000 0.6921416
v 0.8341486 0.0000000 0.6921416
v 0.8215001 0.0318100 0.7053177
v 0.8341486 0.0000000 0.6921416
v 0.8215001 0.0000000 0.6921416
v 0.8215001 0.2218552 0.8511447
v 0.9095001 0.2218552 0.8511447
v 0.9095001 0.0318100 0.7053177
v 0.8215001 0.2218552 0.8511447
v 0.9095001 0.0318100 0.7053177
v 0.8215001 0.0318100 0.7053177
v 0.9095001 0.3360760 1.0000000
v 0.9095001 0.2218552 0.8511447
v 0.8405730 0.3360760 1.0000000
v 0.8405730 0.3360760 1.0000000
v 0.9095001 0.2218552 0.8511447
v 0.8215001 0.2218552 0.8511447
v 0.8405730 0.3360760 1.0000000
v 0.8215001 0.2218552 0.8511447
v 0.8215001 0.3360760 1.0000000
v 0.8215001 0.3360760 1.0000000
v 0.8215001 0.2218552 0.8511447
v 0.8215001 0.1601973 1.0000000
v 0.8215001 0.1601973 1.0000000
v 0.8215001 0.2218552 0.8511447
v 0.8215001 0.0318100 0.7053177
v 0.8215001 0.1601973 1.0000000
v 0.8215001 0.0318100 0.7053177
v 0.8215001 0.0000000 0.8240342
v 0.8215001 0.1601973 1.0000000
v 0.8215001 0.0000000 0.8240342
v 0.8215001 0.0000000 1.0000000
v 0.8215001 0.0000000 0.8240342
v 0.8215001 0.0318100 0.7053177
v 0.8215001 0.0000000 0.6921416
v 0.9095001 0.0000000 0.6921416
v 0.9095001 0.0318100 0.7053177
v 0.9095001 0.0000000 0.8240342
v 0.9095001 0.0000000 0.8240342
v 0.9095001 0.0318100 0.7053177
v 0.9095001 0.2218552 0.8511447
v 0.9095001 0.0000000 0.8240342
v 0.9095001 0.2218552 0.8511447
v 0.9095001 0.1601973 1.0000000
v 0.9095001 0.0000000 0.8240342
v 0.9095001 0.1601973 1.0000000
v 0.9095001 0.0000000 1.0000000
v 0.9095001 0.1601973 1.0000000
v 0.9095001 0.2218552 0.8511447
v 0.9095001 0.3360760 1.0000000
v 0.8006001 0.3463666 0.9653096
v 0.8006001 0.3402207 0.9643362
v 0.8050001 0.3437803 0.9617499
v 0.8006001 0.3195307 0.9358588
v 0.8006001 0.3205042 0.9297128
v 0.8050001 0.3230903 0.9332725
v 0.8006001 0.4059911 0.9219899
v 0.8050001 0.4034050 0.9184301
v 0.8006001 0.4069645 0.9158439
v 0.8006001 0.3862746 0.8873665
v 0.8050001 0.3827150 0.8899528
v 0.8006001 0.3801286 0.8863931
v 0.0000000 0.3402207 0.9643362
v 0.8006001 0.3402207 0.9643362
v 0.0000000 0.3426491 0.9647208
v 0.0000000 0.3426491 0.9647208
v 0.8006001 0.3402207 0.9643362
v 0.8006001 0.3463666 0.9653096
v 0.0000000 0.3426491 0.9647208
v 0.8006001 0.3463666 0.9653096
v 0.0000000 0.3463666 0.9653096
v 0.0000000 0.3205042 0.9297128
v 0.8006001 0.3205042 0.9297128
v 0.0000000 0.3201195 0.9321412
v 0.0000000 0.3201195 0.9321412
v 0.8006001 0.3205042 0.9297128
v 0.8006001 0.3195307 0.9358588
v 0.0000000 0.3201195 0.9321412
v 0.8006001 0.3195307 0.9358588
v 0.0000000 0.3195307 0.9358588
v 0.8006001 0.3402207 0.9643362
v 0.8006001 0.3195307 0.9358588
v 0.8050001 0.3230903 0.9332725
v 0.8006001 0.3402207 0.9643362
v 0.8050001 0.3230903 0.9332725
v 0.8050001 0.3437803 0.9617499
v 0.0000000 0.4059911 0.9219899
v 0.8006001 0.4059911 0.9219899
v 0.8006001 0.4069645 0.9158439
v 0.0000000 0.4059911 0.9219899
v 0.8006001 0.4069645 0.9158439
v 0.0000000 0.4065799 0.9182723
v 0.0000000 0.4065799 0.9182723
v 0.8006001 0.4069645 0.9158439
v 0.0000000 0.4069645 0.9158439
v 0.8006001 0.4069645 0.9158439
v 0.8050001 0.4034050 0.9184301
v 0.8050001 0.3827150 0.8899528
v 0.8006001 0.4069645 0.9158439
v 0.8050001 0.3827150 0.8899528
v 0.8006001 0.3862746 0.8873665
v 0.0000000 0.3862746 0.8873665
v 0.8006001 0.3862746 0.8873665
v 0.8006001 0.3801286 0.8863931
v 0.0000000 0.3862746 0.8873665
v 0.8006001 0.3801286 0.8863931
v 0.0000000 0.3825570 0.8867777
v 0.0000000 0.3825570 0.8867777
v 0.8006001 0.3801286 0.8863931
v 0.0000000 0.3801286 0.8863931
v 0.8006001 0.3463666 0.9653096
v 0.8050001 0.3437803 0.9617499
v 0.8050001 0.4034050 0.9184301
v 0.8006001 0.3463666 0.9653096
v 0.8050001 0.4034050 0.9184301
v 0.8006001 0.4059911 0.9219899
v 0.8006001 0.3205042 0.9297128
v 0.8006001 0.3801286 0.8863931
v 0.8050001 0.3827150 0.8899528
v 0.8006001 0.3205042 0.9297128
v 0.8050001 0.3827150 0.8899528
v 0.8050001 0.3230903 0.9332725
v 0.0000000 0.3463666 0.9653096
v 0.8006001 0.3463666 0.9653096
v 0.8006001 0.4059911 0.9219899
v 0.0000000 0.3463666 0.9653096
v 0.8006001 0.4059911 0.9219899
v 0.0000000 0.3824320 0.9391065
v 0.0000000 0.3824320 0.9391065
v 0.8006001 0.4059911 0.9219899
v 0.0000000 0.4059911 0.9219899
v 0.0000000 0.3195307 0.9358588
v 0.8006001 0.3195307 0.9358588
v 0.0000000 0.3277058 0.9471109
v 0.0000000 0.3277058 0.9471109
v 0.8006001 0.3195307 0.9358588
v 0.8006001 0.3402207 0.9643362
v 0.0000000 0.3277058 0.9471109
v 0.8006001 0.3402207 0.9643362
v 0.0000000 0.3402207 0.9643362
v 0.8050001 0.3437803 0.9617499
v 0.8050001 0.3230903 0.9332725
v 0.8050001 0.3827150 0.8899528
v 0.8050001 0.3437803 0.9617499
v 0.8050001 0.3827150 0.8899528
v 0.8050001 0.4034050 0.9184301
v 0.0000000 0.3801286 0.8863931
v 0.8006001 0.3801286 0.8863931
v 0.0000000 0.3565696 0.9035097
v 0.0000000 0.3565696 0.9035097
v 0.8006001 0.3801286 0.8863931
v 0.8006001 0.3205042 0.9297128
v 0.0000000 0.3565696 0.9035097
v 0.8006001 0.3205042 0.9297128
v 0.0000000 0.3205042 0.9297128
v 0.0000000 0.4069645 0.9158439
v 0.8006001 0.4069645 0.9158439
v 0.8006001 0.3862746 0.8873665
v 0.0000000 0.4069645 0.9158439
v 0.8006001 0.3862746 0.8873665
v 0.0000000 0.3944497 0.8986186
v 0.0000000 0.3944497 0.8986186
v 0.8006001 0.3862746 0.8873665
v 0.0000000 0.3862746 0.8873665
v 0.8006001 0.1432872 0.7524958
v 0.8006001 0.1371412 0.7534692
v 0.8050001 0.1397274 0.7499095
v 0.8006001 0.1086638 0.7327791
v 0.8006001 0.1076903 0.7266332
v 0.8050001 0.1112499 0.7292194
v 0.8006001 0.1866069 0.6928712
v 0.8050001 0.1830473 0.6902850
v 0.8006001 0.1856334 0.6867253
v 0.8006001 0.1571560 0.6660352
v 0.8050001 0.1545699 0.6695949
v 0.8006001 0.1510100 0.6670086
v 0.0000000 0.1371412 0.7534692
v 0.8006001 0.1371412 0.7534692
v 0.0000000 0.1395696 0.7530846
v 0.0000000 0.1395696 0.7530846
v 0.8006001 0.1371412 0.7534692
v 0.8006001 0.1432872 0.7524958
v 0.0000000 0.1395696 0.7530846
v 0.8006001 0.1432872 0.7524958
v 0.0000000 0.1432872 0.7524958
v 0.0000000 0.1076903 0.7266332
v 0.8006001 0.1076903 0.7266332
v 0.0000000 0.1080750 0.7290616
v 0.0000000 0.1080750 0.7290616
v 0.8006001 0.1076903 0.7266332
v 0.8006001 0.1086638 0.7327791
v 0.0000000 0.1080750 0.7290616
v 0.8006001 0.1086638 0.7327791
v 0.0000000 0.1086638 0.7327791
v 0.8006001 0.1371412 0.7534692
v 0.8006001 0.1086638 0.7327791
v 0.8050001 0.1112499 0.7292194
v 0.8006001 0.1371412 0.7534692
v 0.8050001 0.1112499 0.7292194
v 0.8050001 0.1397274 0.7499095
v 0.0000000 0.1866069 0.6928712
v 0.8006001 0.1866069 0.6928712
v 0.8006001 0.1856334 0.6867253
v 0.0000000 0.1866069 0.6928712
v 0.8006001 0.1856334 0.6867253
v 0.0000000 0.1860181 0.6891537
v 0.0000000 0.1860181 0.6891537
v 0.8006001 0.1856334 0.6867253
v 0.0000000 0.1856334 0.6867253
v 0.8006001 0.1856334 0.6867253
v 0.8050001 0.1830473 0.6902850
v 0.8050001 0.1545699 0.6695949
v 0.8006001 0.1856334 0.6867253
v 0.8050001 0.1545699 0.6695949
v 0.8006001 0.1571560 0.6660352
v 0.0000000 0.1571560 0.6660352
v 0.8006001 0.1571560 0.6660352
v 0.8006001 0.1510100 0.6670086
v 0.0000000 0.1571560 0.6660352
v 0.8006001 0.1510100 0.6670086
v 0.0000000 0.1534384 0.6666240
v 0.0000000 0.1534384 0.6666240
v 0.8006001 0.1510100 0.6670086
v 0.0000000 0.1510100 0.6670086
v 0.8006001 0.1432872 0.7524958
v 0.8050001 0.1397274 0.7499095
v 0.8050001 0.1830473 0.6902850
v 0.8006001 0.1432872 0.7524958
v 0.8050001 0.1830473 0.6902850
v 0.8006001 0.1866069 0.6928712
v 0.8006001 0.1076903 0.7266332
v 0.8006001 0.1510100 0.6670086
v 0.8050001 0.1545699 0.6695949
v 0.8006001 0.1076903 0.7266332
v 0.8050001 0.1545699 0.6695949
v 0.8050001 0.1112499 0.7292194
v 0.0000000 0.1432872 0.7524958
v 0.8006001 0.1432872 0.7524958
v 0.8006001 0.1866069 0.6928712
v 0.0000000 0.1432872 0.7524958
v 0.8006001 0.1866069 0.6928712
v 0.0000000 0.1694903 0.7164303
v 0.0000000 0.1694903 0.7164303
v 0.8006001 0.1866069 0.6928712
v 0.0000000 0.1866069 0.6928712
v 0.0000000 0.1086638 0.7327791
v 0.8006001 0.1086638 0.7327791
v 0.0000000 0.1199159 0.7409543
v 0.0000000 0.1199159 0.7409543
v 0.8006001 0.1086638 0.7327791
v 0.8006001 0.1371412 0.7534692
v 0.0000000 0.1199159 0.7409543
v 0.8006001 0.1371412 0.7534692
v 0.0000000 0.1371412 0.7534692
v 0.8050001 0.1397274 0.7499095
v 0.8050001 0.1112499 0.7292194
v 0.8050001 0.1545699 0.6695949
v 0.8050001 0.1397274 0.7499095
v 0.8050001 0.1545699 0.6695949
v 0.8050001 0.1830473 0.6902850
v 0.0000000 0.1510100 0.6670086
v 0.8006001 0.1510100 0.6670086
v 0.0000000 0.1338934 0.6905677
v 0.0000000 0.1338934 0.6905677
v 0.8006001 0.1510100 0.6670086
v 0.8006001 0.1076903 0.7266332
v 0.0000000 0.1338934 0.6905677
v 0.8006001 0.1076903 0.7266332
v 0.0000000 0.1076903 0.7266332
v 0.0000000 0.1856334 0.6867253
v 0.8006001 0.1856334 0.6867253
v 0.8006001 0.1571560 0.6660352
v 0.0000000 0.1856334 0.6867253
v 0.8006001 0.1571560 0.6660352
v 0.0000000 0.1684081 0.6742104
v 0.0000000 0.1684081 0.6742104
v 0.8006001 0.1571560 0.6660352
v 0.0000000 0.1571560 0.6660352
v 0.7995002 0.0578251 0.6602585
v 0.9535003 0.0578251 0.6602585
v 0.9535003 0.0000000 0.6363066
v 0.7995002 0.0578251 0.6602585
v 0.9535003 0.0000000 0.6363066
v 0.8375786 0.0000000 0.6363066
v 0.7995002 0.0578251 0.6602585
v 0.8375786 0.0000000 0.6363066
v 0.7995002 0.0000000 0.6363066
v 0.7995002 0.2586462 0.8143539
v 0.9535003 0.2586462 0.8143539
v 0.9535003 0.0578251 0.6602585
v 0.7995002 0.2586462 0.8143539
v 0.9535003 0.0578251 0.6602585
v 0.7995002 0.0578251 0.6602585
v 0.9535003 0.4010972 1.0000000
v 0.9535003 0.2586462 0.8143539
v 0.8111372 0.4010972 1.0000000
v 0.8111372 0.4010972 1.0000000
v 0.9535003 0.2586462 0.8143539
v 0.7995002 0.2586462 0.8143539
v 0.8111372 0.4010972 1.0000000
v 0.7995002 0.2586462 0.8143539
v 0.7995002 0.4010972 1.0000000
v 0.9535003 0.0578251 0.6602585
v 1.0000000 0.0314681 0.7059100
v 1.0000000 0.0000000 0.6928755
v 0.9535003 0.0578251 0.6602585
v 1.0000000 0.0000000 0.6928755
v 0.9794757 0.0000000 0.6679068
v 0.9535003 0.0578251 0.6602585
v 0.9794757 0.0000000 0.6679068
v 0.9535003 0.0000000 0.6363066
v 0.9535003 0.2586462 0.8143539
v 1.0000000 0.2213719 0.8516282
v 1.0000000 0.1551145 0.8007872
v 0.9535003 0.2586462 0.8143539
v 1.0000000 0.1551145 0.8007872
v 1.0000000 0.0314681 0.7059100
v 0.9535003 0.2586462 0.8143539
v 1.0000000 0.0314681 0.7059100
v 0.9535003 0.0578251 0.6602585
v 1.0000000 0.3352214 1.0000000
v 1.0000000 0.3162489 0.9752746
v 0.9711852 0.3760432 1.0000000
v 0.9711852 0.3760432 1.0000000
v 1.0000000 0.3162489 0.9752746
v 1.0000000 0.2213719 0.8516282
v 0.9711852 0.3760432 1.0000000
v 1.0000000 0.2213719 0.8516282
v 0.9535003 0.2586462 0.8143539
v 0.9711852 0.3760432 1.0000000
v 0.9535003 0.2586462 0.8143539
v 0.9535003 0.4010972 1.0000000
v 0.7995002 0.4010972 1.0000000
v 0.7995002 0.2586462 0.8143539
v 0.7995002 0.1817491 1.0000000
v 0.7995002 0.1817491 1.0000000
v 0.7995002 0.2586462 0.8143539
v 0.7995002 0.0578251 0.6602585
v 0.7995002 0.1817491 1.0000000
v 0.7995002 0.0578251 0.6602585
v 0.7995002 0.0000000 0.8760647
v 0.7995002 0.1817491 1.0000000
v 0.7995002 0.0000000 0.8760647
v 0.7995002 0.0000000 1.0000000
v 0.7995002 0.0000000 0.8760647
v 0.7995002 0.0578251 0.6602585
v 0.7995002 0.0000000 0.6363066
v 0.1175001 0.0074999 0.9317400
v 0.1560001 0.0074999 0.8932400
v 0.1175001 0.0460000 0.8932400
v 0.1175001 0.0460000 0.5742400
v 0.1560001 0.0074999 0.5742400
v 0.1175001 0.0074999 0.5357400
v 0.0000000 0.0074999 0.9317400
v 0.1175001 0.0074999 0.9317400
v 0.1175001 0.0460000 0.8932400
v 0.0000000 0.0074999 0.9317400
v 0.1175001 0.0460000 0.8932400
v 0.0000000 0.0359695 0.9032705
v 0.0000000 0.0359695 0.9032705
v 0.1175001 0.0460000 0.8932400
v 0.0000000 0.0460000 0.8932400
v 0.1175001 0.0460000 0.8932400
v 0.1560001 0.0074999 0.8932400
v 0.1560001 0.0074999 0.5742400
v 0.1175001 0.0460000 0.8932400
v 0.1560001 0.0074999 0.5742400
v 0.1175001 0.0460000 0.5742400
v 0.0000000 0.0460000 0.5742400
v 0.1175001 0.0460000 0.5742400
v 0.1175001 0.0074999 0.5357400
v 0.0000000 0.0460000 0.5742400
v 0.1175001 0.0074999 0.5357400
v 0.0000000 0.0175304 0.5457705
v 0.0000000 0.0175304 0.5457705
v 0.1175001 0.0074999 0.5357400
v 0.0000000 0.0074999 0.5357400
v 0.1560001 0.0000000 0.8932400
v 0.1560001 0.0074999 0.8932400
v 0.1551533 0.0000000 0.8940868
v 0.1551533 0.0000000 0.8940868
v 0.1560001 0.0074999 0.8932400
v 0.1175001 0.0074999 0.9317400
v 0.1551533 0.0000000 0.8940868
v 0.1175001 0.0074999 0.9317400
v 0.1175001 0.0000000 0.9317400
v 0.1175001 0.0000000 0.5357400
v 0.1175001 0.0074999 0.5357400
v 0.1560001 0.0074999 0.5742400
v 0.1175001 0.0000000 0.5357400
v 0.1560001 0.0074999 0.5742400
v 0.1551533 0.0000000 0.5733932
v 0.1551533 0.0000000 0.5733932
v 0.1560001 0.0074999 0.5742400
v 0.1560001 0.0000000 0.5742400
v 0.1175001 0.0000000 0.9317400
v 0.1175001 0.0074999 0.9317400
v 0.1075809 0.0000000 0.9317400
v 0.1075809 0.0000000 0.9317400
v 0.1175001 0.0074999 0.9317400
v 0.0000000 0.0074999 0.9317400
v 0.1075809 0.0000000 0.9317400
v 0.0000000 0.0074999 0.9317400
v 0.0000000 0.0000000 0.9317400
v 0.1560001 0.0000000 0.5742400
v 0.1560001 0.0074999 0.5742400
v 0.1560001 0.0000000 0.5812560
v 0.1560001 0.0000000 0.5812560
v 0.1560001 0.0074999 0.5742400
v 0.1560001 0.0074999 0.8932400
v 0.1560001 0.0000000 0.5812560
v 0.1560001 0.0074999 0.8932400
v 0.1560001 0.0000000 0.8932400
v 0.0000000 0.0074999 0.5357400
v 0.1175001 0.0074999 0.5357400
v 0.1075809 0.0000000 0.5357400
v 0.0000000 0.0074999 0.5357400
v 0.1075809 0.0000000 0.5357400
v 0.0000000 0.0000000 0.5357400
v 0.1075809 0.0000000 0.5357400
v 0.1175001 0.0074999 0.5357400
v 0.1175001 0.0000000 0.5357400
v 0.0000000 0.0460000 0.8932400
v 0.1175001 0.0460000 0.8932400
v 0.1175001 0.0460000 0.5742400
v 0.0000000 0.0460000 0.8932400
v 0.1175001 0.0460000 0.5742400
v 0.0000000 0.0460000 0.6573498
v 0.0000000 0.0460000 0.6573498
v 0.1175001 0.0460000 0.5742400
v 0.0000000 0.0460000 0.5742400
v 0.1587501 0.0377500 0.5472900
v 0.1780000 0.0377500 0.5280400
v 0.1587501 0.0569999 0.5280400
v 0.1587501 0.0569999 0.5280400
v 0.1780000 0.0377500 0.5280400
v 0.1587501 0.0377500 0.5087900
v 0.0000000 0.0377500 0.5472900
v 0.1587501 0.0377500 0.5472900
v 0.1587501 0.0569999 0.5280400
v 0.0000000 0.0377500 0.5472900
v 0.1587501 0.0569999 0.5280400
v 0.0000000 0.0512718 0.5337681
v 0.0000000 0.0512718 0.5337681
v 0.1587501 0.0569999 0.5280400
v 0.0000000 0.0569999 0.5280400
v 0.0000000 0.0569999 0.5280400
v 0.1587501 0.0569999 0.5280400
v 0.1587501 0.0377500 0.5087900
v 0.0000000 0.0569999 0.5280400
v 0.1587501 0.0377500 0.5087900
v 0.0000000 0.0434781 0.5145181
v 0.0000000 0.0434781 0.5145181
v 0.1587501 0.0377500 0.5087900
v 0.0000000 0.0377500 0.5087900
v 0.1780000 0.0000000 0.5280400
v 0.1780000 0.0377500 0.5280400
v 0.1761901 0.0000000 0.5298499
v 0.1761901 0.0000000 0.5298499
v 0.1780000 0.0377500 0.5280400
v 0.1587501 0.0377500 0.5472900
v 0.1761901 0.0000000 0.5298499
v 0.1587501 0.0377500 0.5472900
v 0.1587501 0.0000000 0.5472900
v 0.1587501 0.0000000 0.5087900
v 0.1587501 0.0377500 0.5087900
v 0.1780000 0.0377500 0.5280400
v 0.1587501 0.0000000 0.5087900
v 0.1780000 0.0377500 0.5280400
v 0.1761901 0.0000000 0.5262301
v 0.1761901 0.0000000 0.5262301
v 0.1780000 0.0377500 0.5280400
v 0.1780000 0.0000000 0.5280400
v 0.1587501 0.0000000 0.5472900
v 0.1587501 0.0377500 0.5472900
v 0.1085891 0.0000000 0.5472900
v 0.1085891 0.0000000 0.5472900
v 0.1587501 0.0377500 0.5472900
v 0.0000000 0.0377500 0.5472900
v 0.1085891 0.0000000 0.5472900
v 0.0000000 0.0377500 0.5472900
v 0.0000000 0.0000000 0.5472900
v 0.0000000 0.0377500 0.5087900
v 0.1587501 0.0377500 0.5087900
v 0.1085891 0.0000000 0.5087900
v 0.0000000 0.0377500 0.5087900
v 0.1085891 0.0000000 0.5087900
v 0.0000000 0.0000000 0.5087900
v 0.1085891 0.0000000 0.5087900
v 0.1587501 0.0377500 0.5087900
v 0.1587501 0.0000000 0.5087900
vt 0.4488636 0.0950530
vt 0.4877604 0.0950530
vt 0.4877604 0.0889478
vt 0.4488636 0.0950530
vt 0.4877604 0.0889478
vt 0.4490634 0.0889478
vt 0.4488636 0.0950530
vt 0.4490634 0.0889478
vt 0.4488636 0.0889685
vt 0.4488636 0.0889685
vt 0.4490634 0.0889478
vt 0.4488636 0.0889478
vt 0.4488636 0.1039320
vt 0.4877604 0.1039320
vt 0.4877604 0.0950530
vt 0.4488636 0.1039320
vt 0.4877604 0.0950530
vt 0.4488636 0.0985990
vt 0.4488636 0.0985990
vt 0.4877604 0.0950530
vt 0.4488636 0.0950530
vt 0.4488636 0.0950529
vt 0.4877604 0.0950529
vt 0.4877604 0.1039320
vt 0.4488636 0.0950529
vt 0.4877604 0.1039320
vt 0.4488636 0.1003860
vt 0.4488636 0.1003860
vt 0.4877604 0.1039320
vt 0.4488636 0.1039320
vt 0.4877604 0.0934692
vt 0.4877604 0.0950529
vt 0.4725336 0.0934692
vt 0.4725336 0.0934692
vt 0.4877604 0.0950529
vt 0.4488636 0.0950529
vt 0.4725336 0.0934692
vt 0.4488636 0.0950529
vt 0.4488636 0.0934692
vt 0.4877604 0.0950530
vt 0.4924479 0.0930998
vt 0.4924479 0.0889477
vt 0.4877604 0.0950530
vt 0.4924479 0.0889477
vt 0.4902543 0.0889477
vt 0.4877604 0.0950530
vt 0.4902543 0.0889477
vt 0.4877604 0.0889478
vt 0.4877604 0.1039320
vt 0.4924479 0.1014461
vt 0.4924479 0.0930998
vt 0.4877604 0.1039320
vt 0.4924479 0.0930998
vt 0.4877604 0.0950530
vt 0.4877604 0.0950529
vt 0.4915613 0.0934692
vt 0.4924479 0.0934692
vt 0.4877604 0.0950529
vt 0.4924479 0.0934692
vt 0.4924479 0.1014461
vt 0.4877604 0.0950529
vt 0.4924479 0.1014461
vt 0.4877604 0.1039320
vt 0.4915613 0.0934692
vt 0.4877604 0.0950529
vt 0.4877604 0.0934692
vt 0.4832958 0.0930998
vt 0.4770818 0.0889477
vt 0.4817306 0.0889477
vt 0.4832958 0.0930998
vt 0.4817306 0.0889477
vt 0.4855151 0.0889477
vt 0.4764461 0.1014461
vt 0.4685740 0.0935740
vt 0.4723707 0.0889477
vt 0.4764461 0.1014461
vt 0.4723707 0.0889477
vt 0.4743759 0.0889477
vt 0.4764461 0.1014461
vt 0.4743759 0.0889477
vt 0.4770818 0.0889477
vt 0.4764461 0.1014461
vt 0.4770818 0.0889477
vt 0.4832958 0.0930998
vt 0.4684692 0.0936600
vt 0.4685740 0.0935740
vt 0.4684692 0.0968276
vt 0.4684692 0.0968276
vt 0.4685740 0.0935740
vt 0.4764461 0.1014461
vt 0.4684692 0.0968276
vt 0.4764461 0.1014461
vt 0.4684692 0.1079926
vt 0.4723707 0.0889477
vt 0.4685740 0.0935740
vt 0.4684692 0.0935306
vt 0.4723707 0.0889477
vt 0.4684692 0.0935306
vt 0.4684692 0.0889477
vt 0.4684692 0.0935306
vt 0.4685740 0.0935740
vt 0.4684692 0.0936600
vt 0.3789062 0.0917969
vt 0.4960938 0.0917969
vt 0.4960938 0.0897657
vt 0.3789062 0.0917969
vt 0.4960938 0.0897657
vt 0.3957500 0.0897657
vt 0.3789062 0.0917969
vt 0.3957500 0.0897657
vt 0.3789062 0.0897657
vt 0.3789062 0.1039320
vt 0.4960938 0.1039320
vt 0.4960938 0.0917969
vt 0.3789062 0.1039320
vt 0.4960938 0.0917969
vt 0.3789062 0.0917969
vt 0.4960938 0.0944270
vt 0.4960938 0.1039320
vt 0.4043052 0.0944270
vt 0.4043052 0.0944270
vt 0.4960938 0.1039320
vt 0.3789062 0.1039320
vt 0.4043052 0.0944270
vt 0.3789062 0.1039320
vt 0.3789062 0.0944270
vt 0.4694270 0.1112255
vt 0.4789320 0.1039320
vt 0.4694270 0.0999949
vt 0.4694270 0.0999949
vt 0.4789320 0.1039320
vt 0.4882437 0.0917969
vt 0.4694270 0.0999949
vt 0.4882437 0.0917969
vt 0.4806632 0.0897657
vt 0.4694270 0.0999949
vt 0.4806632 0.0897657
vt 0.4694270 0.0897657
vt 0.4806632 0.0897657
vt 0.4882437 0.0917969
vt 0.4890850 0.0897657
vt 0.4890850 0.0897657
vt 0.4882437 0.0917969
vt 0.4806632 0.0897657
vt 0.4806632 0.0897657
vt 0.4882437 0.0917969
vt 0.4789320 0.1039320
vt 0.4806632 0.0897657
vt 0.4789320 0.1039320
vt 0.4694270 0.0999949
vt 0.4806632 0.0897657
vt 0.4694270 0.0999949
vt 0.4694270 0.0897657
vt 0.4694270 0.0999949
vt 0.4789320 0.1039320
vt 0.4694270 0.1112255
vt 0.4958403 0.0085937
vt 0.4958404 0.0156250
vt 0.4960938 0.0138021
vt 0.4958404 0.0039062
vt 0.4958404 0.0101562
vt 0.4882812 0.0101563
vt 0.4958403 0.1148437
vt 0.4960938 0.1148437
vt 0.4958404 0.1210938
vt 0.4929740 0.1152344
vt 0.4873047 0.1148437
vt 0.4958403 0.1148437
vt 0.4508696 0.0144674
vt 0.4958404 0.0156250
vt 0.4497120 0.0134641
vt 0.4497120 0.0134641
vt 0.4958404 0.0156250
vt 0.4958403 0.0085937
vt 0.4497120 0.0134641
vt 0.4958403 0.0085937
vt 0.4497119 0.0092111
vt 0.4497370 0.1210938
vt 0.4958404 0.1210938
vt 0.4497370 0.1164634
vt 0.4497370 0.1164634
vt 0.4958404 0.1210938
vt 0.4958404 0.1093750
vt 0.4497370 0.1164634
vt 0.4958404 0.1093750
vt 0.4497370 0.1093750
vt 0.4958404 0.0156250
vt 0.4958404 0.1093750
vt 0.4960937 0.1093750
vt 0.4958404 0.0156250
vt 0.4960937 0.1093750
vt 0.4960938 0.0138021
vt 0.4497119 0.1148437
vt 0.4958403 0.1148437
vt 0.4958404 0.1210938
vt 0.4497119 0.1148437
vt 0.4958404 0.1210938
vt 0.4497120 0.1186242
vt 0.4497120 0.1186242
vt 0.4958404 0.1210938
vt 0.4527572 0.1210938
vt 0.3906250 0.1210938
vt 0.3906250 0.1148437
vt 0.4873047 0.1148437
vt 0.3906250 0.1210938
vt 0.4873047 0.1148437
vt 0.4929740 0.1152344
vt 0.4480032 0.1129192
vt 0.4929740 0.1152344
vt 0.4958403 0.1148437
vt 0.4480032 0.1129192
vt 0.4958403 0.1148437
vt 0.4497370 0.1126829
vt 0.4497370 0.1126829
vt 0.4958403 0.1148437
vt 0.4497370 0.1148437
vt 0.4958403 0.0085937
vt 0.4960938 0.0138021
vt 0.4960938 0.1148437
vt 0.4958403 0.0085937
vt 0.4960938 0.1148437
vt 0.4958403 0.1148437
vt 0.4958404 0.0101562
vt 0.4958403 0.1148437
vt 0.4873047 0.1148437
vt 0.4958404 0.0101562
vt 0.4873047 0.1148437
vt 0.4882812 0.0101563
vt 0.4497119 0.0092111
vt 0.4958403 0.0085937
vt 0.4958403 0.1148437
vt 0.4497119 0.0092111
vt 0.4958403 0.1148437
vt 0.4497119 0.0734792
vt 0.4497119 0.0734792
vt 0.4958403 0.1148437
vt 0.4497119 0.1148437
vt 0.4497370 0.1093750
vt 0.4958404 0.1093750
vt 0.4508696 0.0711745
vt 0.4508696 0.0711745
vt 0.4958404 0.1093750
vt 0.4958404 0.0156250
vt 0.4508696 0.0711745
vt 0.4958404 0.0156250
vt 0.4508696 0.0144674
vt 0.3906250 0.0101562
vt 0.4882812 0.0101563
vt 0.4873047 0.1148437
vt 0.3906250 0.0101562
vt 0.4873047 0.1148437
vt 0.3906250 0.1148437
vt 0.4497370 0.1148437
vt 0.4958403 0.1148437
vt 0.4497370 0.0734792
vt 0.4497370 0.0734792
vt 0.4958403 0.1148437
vt 0.4958404 0.0101562
vt 0.4497370 0.0734792
vt 0.4958404 0.0101562
vt 0.4497370 0.0101562
vt 0.4497370 0.0156250
vt 0.4958404 0.0156250
vt 0.4929740 0.1152344
vt 0.4497370 0.0156250
vt 0.4929740 0.1152344
vt 0.4480032 0.0758763
vt 0.4480032 0.0758763
vt 0.4929740 0.1152344
vt 0.4480032 0.1129192
vt 0.4958404 0.0085937
vt 0.4958404 0.0156250
vt 0.4960938 0.0138021
vt 0.4958404 0.0039062
vt 0.4958404 0.0101562
vt 0.4882812 0.0101563
vt 0.4958403 0.1148437
vt 0.4960938 0.1148437
vt 0.4958404 0.1210938
vt 0.4929740 0.1152344
vt 0.4873047 0.1148437
vt 0.4958403 0.1148437
vt 0.4508696 0.0144674
vt 0.4958404 0.0156250
vt 0.4497120 0.0134641
vt 0.4497120 0.0134641
vt 0.4958404 0.0156250
vt 0.4958404 0.0085937
vt 0.4497120 0.0134641
vt 0.4958404 0.0085937
vt 0.4497120 0.0092111
vt 0.4497370 0.1210938
vt 0.4958404 0.1210938
vt 0.4497370 0.1164634
vt 0.4497370 0.1164634
vt 0.4958404 0.1210938
vt 0.4958404 0.1093750
vt 0.4497370 0.1164634
vt 0.4958404 0.1093750
vt 0.4497370 0.1093750
vt 0.4958404 0.0156250
vt 0.4958404 0.1093750
vt 0.4960937 0.1093750
vt 0.4958404 0.0156250
vt 0.4960937 0.1093750
vt 0.4960938 0.0138021
vt 0.4497119 0.1148437
vt 0.4958403 0.1148437
vt 0.4958404 0.1210938
vt 0.4497119 0.1148437
vt 0.4958404 0.1210938
vt 0.4497120 0.1186242
vt 0.4497120 0.1186242
vt 0.4958404 0.1210938
vt 0.4527572 0.1210938
vt 0.3906250 0.1210938
vt 0.3906250 0.1148437
vt 0.4873047 0.1148437
vt 0.3906250 0.1210938
vt 0.4873047 0.1148437
vt 0.4929740 0.1152344
vt 0.4480032 0.1129192
vt 0.4929740 0.1152344
vt 0.4958403 0.1148437
vt 0.4480032 0.1129192
vt 0.4958403 0.1148437
vt 0.4497370 0.1126829
vt 0.4497370 0.1126829
vt 0.4958403 0.1148437
vt 0.4497370 0.1148437
vt 0.4958404 0.0085937
vt 0.4960938 0.0138021
vt 0.4960938 0.1148437
vt 0.4958404 0.0085937
vt 0.4960938 0.1148437
vt 0.4958403 0.1148437
vt 0.4958404 0.0101562
vt 0.4958403 0.1148437
vt 0.4873047 0.1148437
vt 0.4958404 0.0101562
vt 0.4873047 0.1148437
vt 0.4882812 0.0101563
vt 0.4497120 0.0092111
vt 0.4958404 0.0085937
vt 0.4958403 0.1148437
vt 0.4497120 0.0092111
vt 0.4958403 0.1148437
vt 0.4497119 0.0734792
vt 0.4497119 0.0734792
vt 0.4958403 0.1148437
vt 0.4497119 0.1148437
vt 0.4497370 0.1093750
vt 0.4958404 0.1093750
vt 0.4508696 0.0711745
vt 0.4508696 0.0711745
vt 0.4958404 0.1093750
vt 0.4958404 0.0156250
vt 0.4508696 0.0711745
vt 0.4958404 0.0156250
vt 0.4508696 0.0144674
vt 0.3906250 0.0101562
vt 0.4882812 0.0101563
vt 0.4873047 0.1148437
vt 0.3906250 0.0101562
vt 0.4873047 0.1148437
vt 0.3906250 0.1148437
vt 0.4497370 0.1148437
vt 0.4958403 0.1148437
vt 0.4497370 0.0734792
vt 0.4497370 0.0734792
vt 0.4958403 0.1148437
vt 0.4958404 0.0101562
vt 0.4497370 0.0734792
vt 0.4958404 0.0101562
vt 0.4497370 0.0101562
vt 0.4497370 0.0156250
vt 0.4958404 0.0156250
vt 0.4929740 0.1152344
vt 0.4497370 0.0156250
vt 0.4929740 0.1152344
vt 0.4480032 0.0758763
vt 0.4480032 0.0758763
vt 0.4929740 0.1152344
vt 0.4480032 0.1129192
vt 0.3789062 0.0917969
vt 0.4445313 0.0917969
vt 0.4445313 0.0883027
vt 0.3789062 0.0917969
vt 0.4445313 0.0883027
vt 0.3951328 0.0883027
vt 0.3789062 0.0917969
vt 0.3951328 0.0883027
vt 0.3789062 0.0883027
vt 0.3789062 0.1039320
vt 0.4445313 0.1039320
vt 0.4445313 0.0917969
vt 0.3789062 0.1039320
vt 0.4445313 0.0917969
vt 0.3789062 0.0917969
vt 0.4445313 0.0927139
vt 0.4445313 0.1039320
vt 0.3838651 0.0927139
vt 0.3838651 0.0927139
vt 0.4445313 0.1039320
vt 0.3789062 0.1039320
vt 0.3838651 0.0927139
vt 0.3789062 0.1039320
vt 0.3789062 0.0927139
vt 0.4882437 0.0917969
vt 0.4854851 0.0902042
vt 0.4862727 0.0883027
vt 0.4882437 0.0917969
vt 0.4862727 0.0883027
vt 0.4877815 0.0883027
vt 0.4882437 0.0917969
vt 0.4877815 0.0883027
vt 0.4896911 0.0883027
vt 0.4789320 0.1039320
vt 0.4766796 0.1016796
vt 0.4797518 0.0976758
vt 0.4789320 0.1039320
vt 0.4797518 0.0976758
vt 0.4854851 0.0902042
vt 0.4789320 0.1039320
vt 0.4854851 0.0902042
vt 0.4882437 0.0917969
vt 0.4677139 0.1085593
vt 0.4692080 0.1074129
vt 0.4677139 0.1110261
vt 0.4677139 0.1110261
vt 0.4692080 0.1074129
vt 0.4766796 0.1016796
vt 0.4677139 0.1110261
vt 0.4766796 0.1016796
vt 0.4789320 0.1039320
vt 0.4677139 0.1110261
vt 0.4789320 0.1039320
vt 0.4677139 0.1125401
vt 0.4677139 0.1125401
vt 0.4789320 0.1039320
vt 0.4677138 0.0992853
vt 0.4677138 0.0992853
vt 0.4789320 0.1039320
vt 0.4882437 0.0917969
vt 0.4677138 0.0992853
vt 0.4882437 0.0917969
vt 0.4752030 0.0883027
vt 0.4677138 0.0992853
vt 0.4752030 0.0883027
vt 0.4677139 0.0883026
vt 0.4752030 0.0883027
vt 0.4882437 0.0917969
vt 0.4896911 0.0883027
vt 0.4875488 0.1103002
vt 0.4960938 0.1103002
vt 0.4875488 0.1210938
vt 0.4868367 0.1153971
vt 0.4875489 0.1103002
vt 0.4875488 0.1103002
vt 0.4609136 0.1103002
vt 0.4875488 0.1103002
vt 0.4875488 0.1210938
vt 0.4609136 0.1103002
vt 0.4875488 0.1210938
vt 0.4609136 0.1182817
vt 0.4609136 0.1182817
vt 0.4875488 0.1210938
vt 0.4619649 0.1210938
vt 0.3902995 0.1210938
vt 0.3902995 0.1103002
vt 0.4875489 0.1103002
vt 0.3902995 0.1210938
vt 0.4875489 0.1103002
vt 0.4868367 0.1153971
vt 0.4609436 0.1139130
vt 0.4868367 0.1153971
vt 0.4875488 0.1103002
vt 0.4609436 0.1139130
vt 0.4875488 0.1103002
vt 0.4614701 0.1101440
vt 0.4614701 0.1101440
vt 0.4875488 0.1103002
vt 0.4614701 0.1103002
vt 0.4960938 0.1082064
vt 0.4960938 0.1103002
vt 0.4959059 0.1081382
vt 0.4959059 0.1081382
vt 0.4960938 0.1103002
vt 0.4875488 0.1103002
vt 0.4959059 0.1081382
vt 0.4875488 0.1103002
vt 0.4875488 0.1081382
vt 0.4875488 0.1081976
vt 0.4875488 0.1103002
vt 0.4875489 0.1103002
vt 0.4875488 0.1081976
vt 0.4875489 0.1103002
vt 0.4875489 0.1081976
vt 0.4875489 0.1081976
vt 0.4875489 0.1103002
vt 0.4874863 0.1081976
vt 0.4875488 0.1081382
vt 0.4875488 0.1103002
vt 0.4853473 0.1081382
vt 0.4853473 0.1081382
vt 0.4875488 0.1103002
vt 0.4609136 0.1103002
vt 0.4853473 0.1081382
vt 0.4609136 0.1103002
vt 0.4609605 0.1081382
vt 0.4874863 0.1081976
vt 0.4875489 0.1103002
vt 0.4854100 0.1081976
vt 0.4854100 0.1081976
vt 0.4875489 0.1103002
vt 0.3902995 0.1103002
vt 0.4854100 0.1081976
vt 0.3902995 0.1103002
vt 0.3902995 0.1081976
vt 0.4614701 0.1103002
vt 0.4875488 0.1103002
vt 0.4853473 0.1081976
vt 0.4614701 0.1103002
vt 0.4853473 0.1081976
vt 0.4614701 0.1081976
vt 0.4853473 0.1081976
vt 0.4875488 0.1103002
vt 0.4875488 0.1081976
vt 0.4614701 0.0152995
vt 0.4875488 0.0152995
vt 0.4868367 0.1153971
vt 0.4614701 0.0152995
vt 0.4868367 0.1153971
vt 0.4609436 0.0893184
vt 0.4609436 0.0893184
vt 0.4868367 0.1153971
vt 0.4609436 0.1139130
vt 0.4921499 0.1159668
vt 0.4960938 0.1159668
vt 0.4921499 0.1210938
vt 0.4784875 0.0917969
vt 0.4521484 0.1159668
vt 0.4921499 0.1159668
vt 0.4593329 0.1159668
vt 0.4921499 0.1159668
vt 0.4921499 0.1210938
vt 0.4593329 0.1159668
vt 0.4921499 0.1210938
vt 0.4593329 0.1195682
vt 0.4593329 0.1195682
vt 0.4921499 0.1210938
vt 0.4704675 0.1210938
vt 0.4500293 0.0830792
vt 0.4784875 0.0917969
vt 0.4921499 0.1159668
vt 0.4500293 0.0830792
vt 0.4921499 0.1159668
vt 0.4596263 0.1000570
vt 0.4596263 0.1000570
vt 0.4921499 0.1159668
vt 0.4596263 0.1159668
vt 0.4960938 0.1092640
vt 0.4960938 0.1159668
vt 0.4957230 0.1057921
vt 0.4957230 0.1057921
vt 0.4960938 0.1159668
vt 0.4921499 0.1159668
vt 0.4957230 0.1057921
vt 0.4921499 0.1159668
vt 0.4921499 0.1057921
vt 0.4921499 0.1059126
vt 0.4921499 0.1159668
vt 0.4521484 0.1159668
vt 0.4921499 0.1059126
vt 0.4521484 0.1159668
vt 0.4559094 0.1059126
vt 0.4559094 0.1059126
vt 0.4521484 0.1159668
vt 0.4507711 0.1059126
vt 0.4921499 0.1057921
vt 0.4921499 0.1159668
vt 0.4818733 0.1057921
vt 0.4818733 0.1057921
vt 0.4921499 0.1159668
vt 0.4593329 0.1159668
vt 0.4818733 0.1057921
vt 0.4593329 0.1159668
vt 0.4594256 0.1057921
vt 0.4596263 0.1159668
vt 0.4921499 0.1159668
vt 0.4818733 0.1059126
vt 0.4596263 0.1159668
vt 0.4818733 0.1059126
vt 0.4596263 0.1059126
vt 0.4818733 0.1059126
vt 0.4921499 0.1159668
vt 0.4921499 0.1059126
vn 0.0000000 0.5555704 -0.8314695
vn 0.0000000 0.5555704 -0.8314695
vn 0.0000000 0.4534656 -0.8912738
vn 0.0000000 0.5555704 -0.8314695
vn 0.0000000 0.4534656 -0.8912738
vn 0.0000000 0.4534656 -0.8912738
vn 0.0000000 0.5555704 -0.8314695
vn 0.0000000 0.4534656 -0.8912738
vn 0.0000000 0.4538256 -0.8910905
vn 0.0000000 0.4538256 -0.8910905
vn 0.0000000 0.4534656 -0.8912738
vn 0.0000000 0.4534656 -0.8912738
vn 0.0000000 0.7071066 -0.7071069
vn 0.0000000 0.7071066 -0.7071069
vn 0.0000000 0.5555704 -0.8314695
vn 0.0000000 0.7071066 -0.7071069
vn 0.0000000 0.5555704 -0.8314695
vn 0.0000000 0.6189485 -0.7854316
vn 0.0000000 0.6189485 -0.7854316
vn 0.0000000 0.5555704 -0.8314695
vn 0.0000000 0.5555704 -0.8314695
vn 0.0000000 0.8314695 -0.5555704
vn 0.0000000 0.8314695 -0.5555704
vn 0.0000000 0.7071066 -0.7071069
vn 0.0000000 0.8314695 -0.5555704
vn 0.0000000 0.7071066 -0.7071069
vn 0.0000000 0.7602855 -0.6495890
vn 0.0000000 0.7602855 -0.6495890
vn 0.0000000 0.7071066 -0.7071069
vn 0.0000000 0.7071066 -0.7071069
vn 0.0000000 0.8480689 -0.5298860
vn 0.0000000 0.8314695 -0.5555704
vn 0.0000000 0.8480689 -0.5298860
vn 0.0000000 0.8480689 -0.5298860
vn 0.0000000 0.8314695 -0.5555704
vn 0.0000000 0.8314695 -0.5555704
vn 0.0000000 0.8480689 -0.5298860
vn 0.0000000 0.8314695 -0.5555704
vn 0.0000000 0.8480689 -0.5298860
vn 0.4973833 0.4819742 -0.7213256
vn 0.4973833 0.4819742 -0.7213257
vn 0.4991618 0.4180649 -0.7589857
vn 0.4973833 0.4819742 -0.7213256
vn 0.4991618 0.4180649 -0.7589857
vn 0.4991841 0.4036345 -0.7667427
vn 0.4973833 0.4819742 -0.7213256
vn 0.4991841 0.4036345 -0.7667427
vn 0.4991149 0.3929440 -0.7723207
vn 0.4973829 0.6134372 -0.6134371
vn 0.4973828 0.6134374 -0.6134369
vn 0.4973833 0.4819742 -0.7213257
vn 0.4973829 0.6134372 -0.6134371
vn 0.4973833 0.4819742 -0.7213257
vn 0.4973833 0.4819742 -0.7213256
vn 0.4973833 0.7213257 -0.4819742
vn 0.4973832 0.7213258 -0.4819742
vn 0.4976877 0.7169890 -0.4880920
vn 0.4973833 0.7213257 -0.4819742
vn 0.4976877 0.7169890 -0.4880920
vn 0.4973828 0.6134374 -0.6134369
vn 0.4973833 0.7213257 -0.4819742
vn 0.4973828 0.6134374 -0.6134369
vn 0.4973829 0.6134372 -0.6134371
vn 0.4973832 0.7213258 -0.4819742
vn 0.4973833 0.7213257 -0.4819742
vn 0.4983349 0.7352628 -0.4594028
vn 0.9192036 0.2187741 -0.3274183
vn 0.9192036 0.2187741 -0.3274183
vn 0.9197807 0.1983893 -0.3385930
vn 0.9192036 0.2187741 -0.3274183
vn 0.9197807 0.1983893 -0.3385930
vn 0.9198779 0.1892275 -0.3435369
vn 0.9192033 0.2784467 -0.2784469
vn 0.9192033 0.2784466 -0.2784469
vn 0.9197849 0.2371412 -0.3126656
vn 0.9192033 0.2784467 -0.2784469
vn 0.9197849 0.2371412 -0.3126656
vn 0.9195333 0.2272040 -0.3206820
vn 0.9192033 0.2784467 -0.2784469
vn 0.9195333 0.2272040 -0.3206820
vn 0.9192036 0.2187741 -0.3274183
vn 0.9192033 0.2784467 -0.2784469
vn 0.9192036 0.2187741 -0.3274183
vn 0.9192036 0.2187741 -0.3274183
vn 0.9192458 0.2792303 -0.2775205
vn 0.9192033 0.2784466 -0.2784469
vn 0.9196752 0.2894181 -0.2653953
vn 0.9196752 0.2894181 -0.2653953
vn 0.9192033 0.2784466 -0.2784469
vn 0.9192033 0.2784467 -0.2784469
vn 0.9196752 0.2894181 -0.2653953
vn 0.9192033 0.2784467 -0.2784469
vn 0.9193191 0.3252920 -0.2214440
vn 1.0000000 0.0000000 0.0000000
vn 1.0000000 0.0000000 0.0000000
vn 1.0000000 0.0000000 0.0000000
vn 1.0000000 0.0000000 0.0000000
vn 1.0000000 0.0000000 0.0000000
vn 1.0000000 0.0000000 0.0000000
vn 1.0000000 0.0000000 0.0000000
vn 1.0000000 0.0000000 0.0000000
vn 1.0000000 0.0000000 0.0000000
vn 0.0000000 0.5000001 -0.8660254
vn 0.0000000 0.5000001 -0.8660254
vn 0.0000000 0.4672981 -0.8840998
vn 0.0000000 0.5000001 -0.8660254
vn 0.0000000 0.4672981 -0.8840998
vn 0.0000000 0.4672981 -0.8840998
vn 0.0000000 0.5000001 -0.8660254
vn 0.0000000 0.4672981 -0.8840998
vn 0.0000000 0.4672981 -0.8840998
vn 0.0000000 0.7071067 -0.7071069
vn 0.0000000 0.7071067 -0.7071069
vn 0.0000000 0.5000001 -0.8660254
vn 0.0000000 0.7071067 -0.7071069
vn 0.0000000 0.5000001 -0.8660254
vn 0.0000000 0.5000001 -0.8660254
vn 0.0000000 0.8364341 -0.5480675
vn 0.0000000 0.7071067 -0.7071069
vn 0.0000000 0.8364341 -0.5480675
vn 0.0000000 0.8364341 -0.5480675
vn 0.0000000 0.7071067 -0.7071069
vn 0.0000000 0.7071067 -0.7071069
vn 0.0000000 0.8364341 -0.5480675
vn 0.0000000 0.7071067 -0.7071069
vn 0.0000000 0.8364341 -0.5480675
vn -1.0000000 0.0000000 -0.0000001
vn -1.0000000 0.0000000 -0.0000001
vn -1.0000000 0.0000000 -0.0000001
vn -1.0000000 0.0000000 -0.0000001
vn -1.0000000 0.0000000 -0.0000001
vn -1.0000000 0.0000000 -0.0000001
vn -1.0000000 0.0000000 -0.0000001
vn -1.0000000 0.0000000 -0.0000001
vn -1.0000000 0.0000000 -0.0000001
vn -1.0000000 0.0000000 -0.0000001
vn -1.0000000 0.0000000 -0.0000001
vn -1.0000000 0.0000000 -0.0000001
vn -1.0000000 0.0000000 -0.0000001
vn -1.0000000 0.0000000 -0.0000001
vn -1.0000000 0.0000000 -0.0000001
vn 1.0000000 0.0000000 0.0000001
vn 1.0000000 0.0000000 0.0000001
vn 1.0000000 0.0000000 0.0000001
vn 1.0000000 0.0000000 0.0000001
vn 1.0000000 0.0000000 0.0000001
vn 1.0000000 0.0000000 0.0000001
vn 1.0000000 0.0000000 0.0000001
vn 1.0000000 0.0000000 0.0000001
vn 1.0000000 0.0000000 0.0000001
vn 1.0000000 0.0000000 0.0000001
vn 1.0000000 0.0000000 0.0000001
vn 1.0000000 0.0000000 0.0000001
vn 1.0000000 0.0000000 0.0000001
vn 1.0000000 0.0000000 0.0000001
vn 1.0000000 0.0000000 0.0000001
vn 0.5773465 -0.1277232 0.8064476
vn 0.5773465 -0.1277232 0.8064476
vn 0.5773465 -0.1277232 0.8064476
vn 0.5773465 -0.8064459 -0.1277341
vn 0.5773465 -0.8064459 -0.1277341
vn 0.5773465 -0.8064459 -0.1277341
vn 0.5773465 0.8064459 0.1277341
vn 0.5773465 0.8064459 0.1277341
vn 0.5773465 0.8064459 0.1277341
vn 0.5773465 0.1277232 -0.8064476
vn 0.5773465 0.1277232 -0.8064476
vn 0.5773465 0.1277232 -0.8064476
vn 0.0000000 -0.1564346 0.9876883
vn 0.0000000 -0.1564346 0.9876883
vn 0.0000000 -0.1564346 0.9876883
vn 0.0000000 -0.1564346 0.9876883
vn 0.0000000 -0.1564346 0.9876883
vn 0.0000000 -0.1564346 0.9876883
vn 0.0000000 -0.1564346 0.9876883
vn 0.0000000 -0.1564346 0.9876883
vn 0.0000000 -0.1564346 0.9876883
vn 0.0000000 -0.9876884 -0.1564344
vn 0.0000000 -0.9876884 -0.1564344
vn 0.0000000 -0.9876884 -0.1564344
vn 0.0000000 -0.9876884 -0.1564344
vn 0.0000000 -0.9876884 -0.1564344
vn 0.0000000 -0.9876884 -0.1564344
vn 0.0000000 -0.9876884 -0.1564344
vn 0.0000000 -0.9876884 -0.1564344
vn 0.0000000 -0.9876884 -0.1564344
vn 0.7071056 -0.5720624 0.4156276
vn 0.7071056 -0.5720624 0.4156276
vn 0.7071056 -0.5720624 0.4156276
vn 0.7071056 -0.5720624 0.4156276
vn 0.7071056 -0.5720624 0.4156276
vn 0.7071056 -0.5720624 0.4156276
vn 0.0000000 0.9876884 0.1564344
vn 0.0000000 0.9876884 0.1564344
vn 0.0000000 0.9876884 0.1564344
vn 0.0000000 0.9876884 0.1564344
vn 0.0000000 0.9876884 0.1564344
vn 0.0000000 0.9876884 0.1564344
vn 0.0000000 0.9876884 0.1564344
vn 0.0000000 0.9876884 0.1564344
vn 0.0000000 0.9876884 0.1564344
vn 0.7071056 0.5720624 -0.4156276
vn 0.7071056 0.5720624 -0.4156276
vn 0.7071056 0.5720624 -0.4156276
vn 0.7071056 0.5720624 -0.4156276
vn 0.7071056 0.5720624 -0.4156276
vn 0.7071056 0.5720624 -0.4156276
vn 0.0000000 0.1564346 -0.9876883
vn 0.0000000 0.1564346 -0.9876883
vn 0.0000000 0.1564346 -0.9876883
vn 0.0000000 0.1564346 -0.9876883
vn 0.0000000 0.1564346 -0.9876883
vn 0.0000000 0.1564346 -0.9876883
vn 0.0000000 0.1564346 -0.9876883
vn 0.0000000 0.1564346 -0.9876883
vn 0.0000000 0.1564346 -0.9876883
vn 0.7070997 0.4156311 0.5720672
vn 0.7070997 0.4156311 0.5720672
vn 0.7070997 0.4156311 0.5720672
vn 0.7070997 0.4156311 0.5720672
vn 0.7070997 0.4156311 0.5720672
vn 0.7070997 0.4156311 0.5720672
vn 0.7070997 -0.4156311 -0.5720672
vn 0.7070997 -0.4156311 -0.5720672
vn 0.7070997 -0.4156311 -0.5720672
vn 0.7070997 -0.4156311 -0.5720672
vn 0.7070997 -0.4156311 -0.5720672
vn 0.7070997 -0.4156311 -0.5720672
vn 0.0000000 0.5877852 0.8090170
vn 0.0000000 0.5877852 0.8090170
vn 0.0000000 0.5877852 0.8090170
vn 0.0000000 0.5877852 0.8090170
vn 0.0000000 0.5877852 0.8090170
vn 0.0000000 0.5877852 0.8090170
vn 0.0000000 0.5877852 0.8090170
vn 0.0000000 0.5877852 0.8090170
vn 0.0000000 0.5877852 0.8090170
vn 0.0000000 -0.8090170 0.5877852
vn 0.0000000 -0.8090170 0.5877852
vn 0.0000000 -0.8090170 0.5877852
vn 0.0000000 -0.8090170 0.5877852
vn 0.0000000 -0.8090170 0.5877852
vn 0.0000000 -0.8090170 0.5877852
vn 0.0000000 -0.8090170 0.5877852
vn 0.0000000 -0.8090170 0.5877852
vn 0.0000000 -0.8090170 0.5877852
vn 1.0000000 0.0000000 0.0000000
vn 1.0000000 0.0000000 0.0000000
vn 1.0000000 0.0000000 0.0000000
vn 1.0000000 0.0000000 0.0000000
vn 1.0000000 0.0000000 0.0000000
vn 1.0000000 0.0000000 0.0000000
vn 0.0000000 -0.5877852 -0.8090170
vn 0.0000000 -0.5877852 -0.8090170
vn 0.0000000 -0.5877852 -0.8090170
vn 0.0000000 -0.5877852 -0.8090170
vn 0.0000000 -0.5877852 -0.8090170
vn 0.0000000 -0.5877852 -0.8090170
vn 0.0000000 -0.5877852 -0.8090170
vn 0.0000000 -0.5877852 -0.8090170
vn 0.0000000 -0.5877852 -0.8090170
vn 0.0000000 0.8090170 -0.5877852
vn 0.0000000 0.8090170 -0.5877852
vn 0.0000000 0.8090170 -0.5877852
vn 0.0000000 0.8090170 -0.5877852
vn 0.0000000 0.8090170 -0.5877852
vn 0.0000000 0.8090170 -0.5877852
vn 0.0000000 0.8090170 -0.5877852
vn 0.0000000 0.8090170 -0.5877852
vn 0.0000000 0.8090170 -0.5877852
vn 0.5773465 0.1277341 0.8064459
vn 0.5773465 0.1277341 0.8064459
vn 0.5773465 0.1277341 0.8064459
vn 0.5773465 -0.8064476 0.1277232
vn 0.5773465 -0.8064476 0.1277232
vn 0.5773465 -0.8064476 0.1277232
vn 0.5773465 0.8064476 -0.1277232
vn 0.5773465 0.8064476 -0.1277232
vn 0.5773465 0.8064476 -0.1277232
vn 0.5773465 -0.1277341 -0.8064459
vn 0.5773465 -0.1277341 -0.8064459
vn 0.5773465 -0.1277341 -0.8064459
vn 0.0000000 0.1564344 0.9876884
vn 0.0000000 0.1564344 0.9876884
vn 0.0000000 0.1564344 0.9876884
vn 0.0000000 0.1564344 0.9876884
vn 0.0000000 0.1564344 0.9876884
vn 0.0000000 0.1564344 0.9876884
vn 0.0000000 0.1564344 0.9876884
vn 0.0000000 0.1564344 0.9876884
vn 0.0000000 0.1564344 0.9876884
vn 0.0000000 -0.9876883 0.1564346
vn 0.0000000 -0.9876883 0.1564346
vn 0.0000000 -0.9876883 0.1564346
vn 0.0000000 -0.9876883 0.1564346
vn 0.0000000 -0.9876883 0.1564346
vn 0.0000000 -0.9876883 0.1564346
vn 0.0000000 -0.9876883 0.1564346
vn 0.0000000 -0.9876883 0.1564346
vn 0.0000000 -0.9876883 0.1564346
vn 0.7071056 -0.4156276 0.5720624
vn 0.7071056 -0.4156276 0.5720624
vn 0.7071056 -0.4156276 0.5720624
vn 0.7071056 -0.4156276 0.5720624
vn 0.7071056 -0.4156276 0.5720624
vn 0.7071056 -0.4156276 0.5720624
vn 0.0000000 0.9876883 -0.1564346
vn 0.0000000 0.9876883 -0.1564346
vn 0.0000000 0.9876883 -0.1564346
vn 0.0000000 0.9876883 -0.1564346
vn 0.0000000 0.9876883 -0.1564346
vn 0.0000000 0.9876883 -0.1564346
vn 0.0000000 0.9876883 -0.1564346
vn 0.0000000 0.9876883 -0.1564346
vn 0.0000000 0.9876883 -0.1564346
vn 0.7071056 0.4156276 -0.5720624
vn 0.7071056 0.4156276 -0.5720624
vn 0.7071056 0.4156276 -0.5720624
vn 0.7071056 0.4156276 -0.5720624
vn 0.7071056 0.4156276 -0.5720624
vn 0.7071056 0.4156276 -0.5720624
vn 0.0000000 -0.1564344 -0.9876884
vn 0.0000000 -0.1564344 -0.9876884
vn 0.0000000 -0.1564344 -0.9876884
vn 0.0000000 -0.1564344 -0.9876884
vn 0.0000000 -0.1564344 -0.9876884
vn 0.0000000 -0.1564344 -0.9876884
vn 0.0000000 -0.1564344 -0.9876884
vn 0.0000000 -0.1564344 -0.9876884
vn 0.0000000 -0.1564344 -0.9876884
vn 0.7070997 0.5720672 0.4156311
vn 0.7070997 0.5720672 0.4156311
vn 0.7070997 0.5720672 0.4156311
vn 0.7070997 0.5720672 0.4156311
vn 0.7070997 0.5720672 0.4156311
vn 0.7070997 0.5720672 0.4156311
vn 0.7070997 -0.5720672 -0.4156311
vn 0.7070997 -0.5720672 -0.4156311
vn 0.7070997 -0.5720672 -0.4156311
vn 0.7070997 -0.5720672 -0.4156311
vn 0.7070997 -0.5720672 -0.4156311
vn 0.7070997 -0.5720672 -0.4156311
vn 0.0000000 0.8090170 0.5877852
vn 0.0000000 0.8090170 0.5877852
vn 0.0000000 0.8090170 0.5877852
vn 0.0000000 0.8090170 0.5877852
vn 0.0000000 0.8090170 0.5877852
vn 0.0000000 0.8090170 0.5877852
vn 0.0000000 0.8090170 0.5877852
vn 0.0000000 0.8090170 0.5877852
vn 0.0000000 0.8090170 0.5877852
vn 0.0000000 -0.5877852 0.8090170
vn 0.0000000 -0.5877852 0.8090170
vn 0.0000000 -0.5877852 0.8090170
vn 0.0000000 -0.5877852 0.8090170
vn 0.0000000 -0.5877852 0.8090170
vn 0.0000000 -0.5877852 0.8090170
vn 0.0000000 -0.5877852 0.8090170
vn 0.0000000 -0.5877852 0.8090170
vn 0.0000000 -0.5877852 0.8090170
vn 1.0000000 0.0000000 0.0000000
vn 1.0000000 0.0000000 0.0000000
vn 1.0000000 0.0000000 0.0000000
vn 1.0000000 0.0000000 0.0000000
vn 1.0000000 0.0000000 0.0000000
vn 1.0000000 0.0000000 0.0000000
vn 0.0000000 -0.8090170 -0.5877852
vn 0.0000000 -0.8090170 -0.5877852
vn 0.0000000 -0.8090170 -0.5877852
vn 0.0000000 -0.8090170 -0.5877852
vn 0.0000000 -0.8090170 -0.5877852
vn 0.0000000 -0.8090170 -0.5877852
vn 0.0000000 -0.8090170 -0.5877852
vn 0.0000000 -0.8090170 -0.5877852
vn 0.0000000 -0.8090170 -0.5877852
vn 0.0000000 0.5877852 -0.8090170
vn 0.0000000 0.5877852 -0.8090170
vn 0.0000000 0.5877852 -0.8090170
vn 0.0000000 0.5877852 -0.8090170
vn 0.0000000 0.5877852 -0.8090170
vn 0.0000000 0.5877852 -0.8090170
vn 0.0000000 0.5877852 -0.8090170
vn 0.0000000 0.5877852 -0.8090170
vn 0.0000000 0.5877852 -0.8090170
vn 0.0000000 0.4999999 -0.8660255
vn 0.0000000 0.4999999 -0.8660255
vn 0.0000000 0.4431846 -0.8964304
vn 0.0000000 0.4999999 -0.8660255
vn 0.0000000 0.4431846 -0.8964304
vn 0.0000000 0.4431846 -0.8964304
vn 0.0000000 0.4999999 -0.8660255
vn 0.0000000 0.4431846 -0.8964304
vn 0.0000000 0.4431846 -0.8964304
vn 0.0000000 0.7071070 -0.7071065
vn 0.0000000 0.7071070 -0.7071065
vn 0.0000000 0.4999999 -0.8660255
vn 0.0000000 0.7071070 -0.7071065
vn 0.0000000 0.4999999 -0.8660255
vn 0.0000000 0.4999999 -0.8660255
vn 0.0000000 0.8560569 -0.5168816
vn 0.0000000 0.7071070 -0.7071065
vn 0.0000000 0.8560569 -0.5168816
vn 0.0000000 0.8560569 -0.5168816
vn 0.0000000 0.7071070 -0.7071065
vn 0.0000000 0.7071070 -0.7071065
vn 0.0000000 0.8560569 -0.5168816
vn 0.0000000 0.7071070 -0.7071065
vn 0.0000000 0.8560569 -0.5168816
vn 0.7499264 0.3307606 -0.5728943
vn 0.7499264 0.3307606 -0.5728943
vn 0.7514086 0.3063591 -0.5844049
vn 0.7499264 0.3307606 -0.5728943
vn 0.7514086 0.3063591 -0.5844049
vn 0.7518187 0.2972585 -0.5885627
vn 0.7499264 0.3307606 -0.5728943
vn 0.7518187 0.2972585 -0.5885627
vn 0.7520163 0.2921227 -0.5908772
vn 0.7499266 0.4677666 -0.4677655
vn 0.7499266 0.4677666 -0.4677655
vn 0.7525865 0.4165882 -0.5099685
vn 0.7499266 0.4677666 -0.4677655
vn 0.7525865 0.4165882 -0.5099685
vn 0.7499264 0.3307606 -0.5728943
vn 0.7499266 0.4677666 -0.4677655
vn 0.7499264 0.3307606 -0.5728943
vn 0.7499264 0.3307606 -0.5728943
vn 0.7519795 0.5490699 -0.3647589
vn 0.7525863 0.5343832 -0.3847707
vn 0.7513256 0.5585700 -0.3514389
vn 0.7513256 0.5585700 -0.3514389
vn 0.7525863 0.5343832 -0.3847707
vn 0.7499266 0.4677666 -0.4677655
vn 0.7513256 0.5585700 -0.3514389
vn 0.7499266 0.4677666 -0.4677655
vn 0.7499266 0.4677666 -0.4677655
vn 0.7513256 0.5585700 -0.3514389
vn 0.7499266 0.4677666 -0.4677655
vn 0.7507086 0.5655402 -0.3414688
vn -1.0000000 0.0000000 0.0000000
vn -1.0000000 0.0000000 0.0000000
vn -1.0000000 0.0000000 0.0000000
vn -1.0000000 0.0000000 0.0000000
vn -1.0000000 0.0000000 0.0000000
vn -1.0000000 0.0000000 0.0000000
vn -1.0000000 0.0000000 0.0000000
vn -1.0000000 0.0000000 0.0000000
vn -1.0000000 0.0000000 0.0000000
vn -1.0000000 0.0000000 0.0000000
vn -1.0000000 0.0000000 0.0000000
vn -1.0000000 0.0000000 0.0000000
vn -1.0000000 0.0000000 0.0000000
vn -1.0000000 0.0000000 0.0000000
vn -1.0000000 0.0000000 0.0000000
vn 0.5773504 0.5773500 0.5773504
vn 0.5773504 0.5773500 0.5773504
vn 0.5773504 0.5773500 0.5773504
vn 0.5773504 0.5773500 -0.5773504
vn 0.5773504 0.5773500 -0.5773504
vn 0.5773504 0.5773500 -0.5773504
vn 0.0000000 0.7071069 0.7071066
vn 0.0000000 0.7071069 0.7071066
vn 0.0000000 0.7071069 0.7071066
vn 0.0000000 0.7071069 0.7071066
vn 0.0000000 0.7071069 0.7071066
vn 0.0000000 0.7071069 0.7071066
vn 0.0000000 0.7071069 0.7071066
vn 0.0000000 0.7071069 0.7071066
vn 0.0000000 0.7071069 0.7071066
vn 0.7071066 0.7071069 0.0000000
vn 0.7071066 0.7071069 0.0000000
vn 0.7071066 0.7071069 0.0000000
vn 0.7071066 0.7071069 0.0000000
vn 0.7071066 0.7071069 0.0000000
vn 0.7071066 0.7071069 0.0000000
vn 0.0000000 0.7071069 -0.7071066
vn 0.0000000 0.7071069 -0.7071066
vn 0.0000000 0.7071069 -0.7071066
vn 0.0000000 0.7071069 -0.7071066
vn 0.0000000 0.7071069 -0.7071066
vn 0.0000000 0.7071069 -0.7071066
vn 0.0000000 0.7071069 -0.7071066
vn 0.0000000 0.7071069 -0.7071066
vn 0.0000000 0.7071069 -0.7071066
vn 0.7071068 0.0000000 0.7071067
vn 0.7071068 0.0000000 0.7071067
vn 0.7071068 0.0000000 0.7071067
vn 0.7071068 0.0000000 0.7071067
vn 0.7071068 0.0000000 0.7071067
vn 0.7071068 0.0000000 0.7071067
vn 0.7071068 0.0000000 0.7071067
vn 0.7071068 0.0000000 0.7071067
vn 0.7071068 0.0000000 0.7071067
vn 0.7071068 0.0000000 -0.7071067
vn 0.7071068 0.0000000 -0.7071067
vn 0.7071068 0.0000000 -0.7071067
vn 0.7071068 0.0000000 -0.7071067
vn 0.7071068 0.0000000 -0.7071067
vn 0.7071068 0.0000000 -0.7071067
vn 0.7071068 0.0000000 -0.7071067
vn 0.7071068 0.0000000 -0.7071067
vn 0.7071068 0.0000000 -0.7071067
vn 0.0000000 0.0000000 1.0000000
vn 0.0000000 0.0000000 1.0000000
vn 0.0000000 0.0000000 1.0000000
vn 0.0000000 0.0000000 1.0000000
vn 0.0000000 0.0000000 1.0000000
vn 0.0000000 0.0000000 1.0000000
vn 0.0000000 0.0000000 1.0000000
vn 0.0000000 0.0000000 1.0000000
vn 0.0000000 0.0000000 1.0000000
vn 1.0000000 0.0000000 0.0000000
vn 1.0000000 0.0000000 0.0000000
vn 1.0000000 0.0000000 0.0000000
vn 1.0000000 0.0000000 0.0000000
vn 1.0000000 0.0000000 0.0000000
vn 1.0000000 0.0000000 0.0000000
vn 1.0000000 0.0000000 0.0000000
vn 1.0000000 0.0000000 0.0000000
vn 1.0000000 0.0000000 0.0000000
vn 0.0000000 0.0000000 -1.0000000
vn 0.0000000 0.0000000 -1.0000000
vn 0.0000000 0.0000000 -1.0000000
vn 0.0000000 0.0000000 -1.0000000
vn 0.0000000 0.0000000 -1.0000000
vn 0.0000000 0.0000000 -1.0000000
vn 0.0000000 0.0000000 -1.0000000
vn 0.0000000 0.0000000 -1.0000000
vn 0.0000000 0.0000000 -1.0000000
vn 0.0000000 1.0000000 0.0000000
vn 0.0000000 1.0000000 0.0000000
vn 0.0000000 1.0000000 0.0000000
vn 0.0000000 1.0000000 0.0000000
vn 0.0000000 1.0000000 0.0000000
vn 0.0000000 1.0000000 0.0000000
vn 0.0000000 1.0000000 0.0000000
vn 0.0000000 1.0000000 0.0000000
vn 0.0000000 1.0000000 0.0000000
vn 0.5773500 0.5773500 0.5773507
vn 0.5773500 0.5773500 0.5773507
vn 0.5773500 0.5773500 0.5773507
vn 0.5773500 0.5773500 -0.5773507
vn 0.5773500 0.5773500 -0.5773507
vn 0.5773500 0.5773500 -0.5773507
vn 0.0000000 0.7071069 0.7071067
vn 0.0000000 0.7071069 0.7071067
vn 0.0000000 0.7071069 0.7071067
vn 0.0000000 0.7071069 0.7071067
vn 0.0000000 0.7071069 0.7071067
vn 0.0000000 0.7071069 0.7071067
vn 0.0000000 0.7071069 0.7071067
vn 0.0000000 0.7071069 0.7071067
vn 0.0000000 0.7071069 0.7071067
vn 0.0000000 0.7071069 -0.7071067
vn 0.0000000 0.7071069 -0.7071067
vn 0.0000000 0.7071069 -0.7071067
vn 0.0000000 0.7071069 -0.7071067
vn 0.0000000 0.7071069 -0.7071067
vn 0.0000000 0.7071069 -0.7071067
vn 0.0000000 0.7071069 -0.7071067
vn 0.0000000 0.7071069 -0.7071067
vn 0.0000000 0.7071069 -0.7071067
vn 0.7071068 0.0000000 0.7071068
vn 0.7071068 0.0000000 0.7071068
vn 0.7071068 0.0000000 0.7071068
vn 0.7071068 0.0000000 0.7071068
vn 0.7071068 0.0000000 0.7071068
vn 0.7071068 0.0000000 0.7071068
vn 0.7071068 0.0000000 0.7071068
vn 0.7071068 0.0000000 0.7071068
vn 0.7071068 0.0000000 0.7071068
vn 0.7071068 0.0000000 -0.7071068
vn 0.7071068 0.0000000 -0.7071068
vn 0.7071068 0.0000000 -0.7071068
vn 0.7071068 0.0000000 -0.7071068
vn 0.7071068 0.0000000 -0.7071068
vn 0.7071068 0.0000000 -0.7071068
vn 0.7071068 0.0000000 -0.7071068
vn 0.7071068 0.0000000 -0.7071068
vn 0.7071068 0.0000000 -0.7071068
vn 0.0000000 0.0000000 1.0000000
vn 0.0000000 0.0000000 1.0000000
vn 0.0000000 0.0000000 1.0000000
vn 0.0000000 0.0000000 1.0000000
vn 0.0000000 0.0000000 1.0000000
vn 0.0000000 0.0000000 1.0000000
vn 0.0000000 0.0000000 1.0000000
vn 0.0000000 0.0000000 1.0000000
vn 0.0000000 0.0000000 1.0000000
vn 0.0000000 0.0000000 -1.0000000
vn 0.0000000 0.0000000 -1.0000000
vn 0.0000000 0.0000000 -1.0000000
vn 0.0000000 0.0000000 -1.0000000
vn 0.0000000 0.0000000 -1.0000000
vn 0.0000000 0.0000000 -1.0000000
vn 0.0000000 0.0000000 -1.0000000
vn 0.0000000 0.0000000 -1.0000000
vn 0.0000000 0.0000000 -1.0000000
f 1/1/1 2/2/2 3/3/3
f 4/4/4 5/5/5 6/6/6
f 7/7/7 8/8/8 9/9/9
f 10/10/10 11/11/11 12/12/12
f 13/13/13 14/14/14 15/15/15
f 16/16/16 17/17/17 18/18/18
f 19/19/19 20/20/20 21/21/21
f 22/22/22 23/23/23 24/24/24
f 25/25/25 26/26/26 27/27/27
f 28/28/28 29/29/29 30/30/30
f 31/31/31 32/32/32 33/33/33
f 34/34/34 35/35/35 36/36/36
f 37/37/37 38/38/38 39/39/39
f 40/40/40 41/41/41 42/42/42
f 43/43/43 44/44/44 45/45/45
f 46/46/46 47/47/47 48/48/48
f 49/49/49 50/50/50 51/51/51
f 52/52/52 53/53/53 54/54/54
f 55/55/55 56/56/56 57/57/57
f 58/58/58 59/59/59 60/60/60
f 61/61/61 62/62/62 63/63/63
f 64/64/64 65/65/65 66/66/66
f 67/67/67 68/68/68 69/69/69
f 70/70/70 71/71/71 72/72/72
f 73/73/73 74/74/74 75/75/75
f 76/76/76 77/77/77 78/78/78
f 79/79/79 80/80/80 81/81/81
f 82/82/82 83/83/83 84/84/84
f 85/85/85 86/86/86 87/87/87
f 88/88/88 89/89/89 90/90/90
f 91/91/91 92/92/92 93/93/93
f 94/94/94 95/95/95 96/96/96
f 97/97/97 98/98/98 99/99/99
f 100/100/100 101/101/101 102/102/102
f 103/103/103 104/104/104 105/105/105
f 106/106/106 107/107/107 108/108/108
f 109/109/109 110/110/110 111/111/111
f 112/112/112 113/113/113 114/114/114
f 115/115/115 116/116/116 117/117/117
f 118/118/118 119/119/119 120/120/120
f 121/121/121 122/122/122 123/123/123
f 124/124/124 125/125/125 126/126/126
f 127/127/127 128/128/128 129/129/129
f 130/130/130 131/131/131 132/132/132
f 133/133/133 134/134/134 135/135/135
f 136/136/136 137/137/137 138/138/138
f 139/139/139 140/140/140 141/141/141
f 142/142/142 143/143/143 144/144/144
f 145/145/145 146/146/146 147/147/147
f 148/148/148 149/149/149 150/150/150
f 151/151/151 152/152/152 153/153/153
f 154/154/154 155/155/155 156/156/156
f 157/157/157 158/158/158 159/159/159
f 160/160/160 161/161/161 162/162/162
f 163/163/163 164/164/164 165/165/165
f 166/166/166 167/167/167 168/168/168
f 169/169/169 170/170/170 171/171/171
f 172/172/172 173/173/173 174/174/174
f 175/175/175 176/176/176 177/177/177
f 178/178/178 179/179/179 180/180/180
f 181/181/181 182/182/182 183/183/183
f 184/184/184 185/185/185 186/186/186
f 187/187/187 188/188/188 189/189/189
f 190/190/190 191/191/191 192/192/192
f 193/193/193 194/194/194 195/195/195
f 196/196/196 197/197/197 198/198/198
f 199/199/199 200/200/200 201/201/201
f 202/202/202 203/203/203 204/204/204
f 205/205/205 206/206/206 207/207/207
f 208/208/208 209/209/209 210/210/210
f 211/211/211 212/212/212 213/213/213
f 214/214/214 215/215/215 216/216/216
f 217/217/217 218/218/218 219/219/219
f 220/220/220 221/221/221 222/222/222
f 223/223/223 224/224/224 225/225/225
f 226/226/226 227/227/227 228/228/228
f 229/229/229 230/230/230 231/231/231
f 232/232/232 233/233/233 234/234/234
f 235/235/235 236/236/236 237/237/237
f 238/238/238 239/239/239 240/240/240
f 241/241/241 242/242/242 243/243/243
f 244/244/244 245/245/245 246/246/246
f 247/247/247 248/248/248 249/249/249
f 250/250/250 251/251/251 252/252/252
f 253/253/253 254/254/254 255/255/255
f 256/256/256 257/257/257 258/258/258
f 259/259/259 260/260/260 261/261/261
f 262/262/262 263/263/263 264/264/264
f 265/265/265 266/266/266 267/267/267
f 268/268/268 269/269/269 270/270/270
f 271/271/271 272/272/272 273/273/273
f 274/274/274 275/275/275 276/276/276
f 277/277/277 278/278/278 279/279/279
f 280/280/280 281/281/281 282/282/282
f 283/283/283 284/284/284 285/285/285
f 286/286/286 287/287/287 288/288/288
f 289/289/289 290/290/290 291/291/291
f 292/292/292 293/293/293 294/294/294
f 295/295/295 296/296/296 297/297/297
f 298/298/298 299/299/299 300/300/300
f 301/301/301 302/302/302 303/303/303
f 304/304/304 305/305/305 306/306/306
f 307/307/307 308/308/308 309/309/309
f 310/310/310 311/311/311 312/312/312
f 313/313/313 314/314/314 315/315/315
f 316/316/316 317/317/317 318/318/318
f 319/319/319 320/320/320 321/321/321
f 322/322/322 323/323/323 324/324/324
f 325/325/325 326/326/326 327/327/327
f 328/328/328 329/329/329 330/330/330
f 331/331/331 332/332/332 333/333/333
f 334/334/334 335/335/335 336/336/336
f 337/337/337 338/338/338 339/339/339
f 340/340/340 341/341/341 342/342/342
f 343/343/343 344/344/344 345/345/345
f 346/346/346 347/347/347 348/348/348
f 349/349/349 350/350/350 351/351/351
f 352/352/352 353/353/353 354/354/354
f 355/355/355 356/356/356 357/357/357
f 358/358/358 359/359/359 360/360/360
f 361/361/361 362/362/362 363/363/363
f 364/364/364 365/365/365 366/366/366
f 367/367/367 368/368/368 369/369/369
f 370/370/370 371/371/371 372/372/372
f 373/373/373 374/374/374 375/375/375
f 376/376/376 377/377/377 378/378/378
f 379/379/379 380/380/380 381/381/381
f 382/382/382 383/383/383 384/384/384
f 385/385/385 386/386/386 387/387/387
f 388/388/388 389/389/389 390/390/390
f 391/391/391 392/392/392 393/393/393
f 394/394/394 395/395/395 396/396/396
f 397/397/397 398/398/398 399/399/399
f 400/400/400 401/401/401 402/402/402
f 403/403/403 404/404/404 405/405/405
f 406/406/406 407/407/407 408/408/408
f 409/409/409 410/410/410 411/411/411
f 412/412/412 413/413/413 414/414/414
f 415/415/415 416/416/416 417/417/417
f 418/418/418 419/419/419 420/420/420
f 421/421/421 422/422/422 423/423/423
f 424/424/424 425/425/425 426/426/426
f 427/427/427 428/428/428 429/429/429
f 430/430/430 431/431/431 432/432/432
f 433/433/433 434/434/434 435/435/435
f 436/436/436 437/437/437 438/438/438
f 439/439/439 440/440/440 441/441/441
f 442/442/442 443/443/443 444/444/444
f 445/445/445 446/446/446 447/447/447
f 448/448/448 449/449/449 450/450/450
f 451/451/451 452/452/452 453/453/453
f 454/454/454 455/455/455 456/456/456
f 457/457/457 458/458/458 459/459/459
f 460/460/460 461/461/461 462/462/462
f 463/463/463 464/464/464 465/465/465
f 466/466/466 467/467/467 468/468/468
f 469/469/469 470/470/470 471/471/471
f 472/472/472 473/473/473 474/474/474
f 475/475/475 476/476/476 477/477/477
f 478/478/478 479/479/479 480/480/480
f 481/481/481 482/482/482 483/483/483
f 484/484/484 485/485/485 486/486/486
f 487/487/487 488/488/488 489/489/489
f 490/490/490 491/491/491 492/492/492
f 493/493/493 494/494/494 495/495/495
f 496/496/496 497/497/497 498/498/498
f 499/499/499 500/500/500 501/501/501
f 502/502/502 503/503/503 504/504/504
f 505/505/505 506/506/506 507/507/507
f 508/508/508 509/509/509 510/510/510
f 511/511/511 512/512/512 513/513/513
f 514/514/514 515/515/515 516/516/516
f 517/517/517 518/518/518 519/519/519
f 520/520/520 521/521/521 522/522/522
f 523/523/523 524/524/524 525/525/525
f 526/526/526 527/527/527 528/528/528
f 529/529/529 530/530/530 531/531/531
f 532/532/532 533/533/533 534/534/534
f 535/535/535 536/536/536 537/537/537
f 538/538/538 539/539/539 540/540/540
f 541/541/541 542/542/542 543/543/543
f 544/544/544 545/545/545 546/546/546
f 547/547/547 548/548/548 549/549/549
f 550/550/550 551/551/551 552/552/552
f 553/553/553 554/554/554 555/555/555
f 556/556/556 557/557/557 558/558/558
f 559/559/559 560/560/560 561/561/561
f 562/562/562 563/563/563 564/564/564
f 565/565/565 566/566/566 567/567/567
f 568/568/568 569/569/569 570/570/570
f 571/571/571 572/572/572 573/573/573
f 574/574/574 575/575/575 576/576/576
f 577/577/577 578/578/578 579/579/579
f 580/580/580 581/581/581 582/582/582
f 583/583/583 584/584/584 585/585/585
f 586/586/586 587/587/587 588/588/588
f 589/589/589 590/590/590 591/591/591
f 592/592/592 593/593/593 594/594/594
f 595/595/595 596/596/596 597/597/597
