# metre = block; Y up; per-cell coordinates; atlas UVs preserved
mtllib materials.mtl
o cell_59
usemtl pump_atlas
v 0.0000000 0.0412892 0.0780963
v 0.0542880 0.0512040 0.0616367
v 0.0000000 0.0370616 0.0734947
v 0.0000000 0.0370616 0.0734947
v 0.0542880 0.0512040 0.0616367
v 0.0527508 0.0404558 0.0507153
v 0.0000000 0.0370616 0.0734947
v 0.0527508 0.0404558 0.0507153
v 0.0000000 0.0308228 0.0667076
v 0.0000000 0.0366798 0.0934415
v 0.0567964 0.0470321 0.0762470
v 0.0000000 0.0385980 0.0870309
v 0.0000000 0.0385980 0.0870309
v 0.0567964 0.0470321 0.0762470
v 0.0542880 0.0512040 0.0616367
v 0.0000000 0.0385980 0.0870309
v 0.0542880 0.0512040 0.0616367
v 0.0000000 0.0412892 0.0780963
v 0.0000000 0.0216068 0.0973946
v 0.0577677 0.0321121 0.0799361
v 0.0000000 0.0283425 0.0956411
v 0.0000000 0.0283425 0.0956411
v 0.0577677 0.0321121 0.0799361
v 0.0567964 0.0470321 0.0762470
v 0.0000000 0.0283425 0.0956411
v 0.0567964 0.0470321 0.0762470
v 0.0000000 0.0366798 0.0934415
v 0.0000000 0.0111395 0.0860071
v 0.0562306 0.0213640 0.0690148
v 0.0577677 0.0321121 0.0799361
v 0.0000000 0.0111395 0.0860071
v 0.0577677 0.0321121 0.0799361
v 0.0000000 0.0167281 0.0920855
v 0.0000000 0.0167281 0.0920855
v 0.0577677 0.0321121 0.0799361
v 0.0000000 0.0216068 0.0973946
v 0.0000000 0.0157462 0.0706653
v 0.0537221 0.0255358 0.0544044
v 0.0562306 0.0213640 0.0690148
v 0.0000000 0.0157462 0.0706653
v 0.0562306 0.0213640 0.0690148
v 0.0000000 0.0131197 0.0793860
v 0.0000000 0.0131197 0.0793860
v 0.0562306 0.0213640 0.0690148
v 0.0000000 0.0111395 0.0860071
v 0.0000000 0.0308228 0.0667076
v 0.0527508 0.0404558 0.0507153
v 0.0537221 0.0255358 0.0544044
v 0.0000000 0.0308228 0.0667076
v 0.0537221 0.0255358 0.0544044
v 0.0000000 0.0217865 0.0690919
v 0.0000000 0.0217865 0.0690919
v 0.0537221 0.0255358 0.0544044
v 0.0000000 0.0157462 0.0706653
v 0.0527508 0.0404558 0.0507153
v 0.0542880 0.0512040 0.0616367
v 0.1846933 0.0346732 0.0572948
v 0.0527508 0.0404558 0.0507153
v 0.1846933 0.0346732 0.0572948
v 0.1824471 0.0240300 0.0463936
v 0.0542880 0.0512040 0.0616367
v 0.0567964 0.0470321 0.0762470
v 0.1818995 0.0312858 0.0720555
v 0.0542880 0.0512040 0.0616367
v 0.1818995 0.0312858 0.0720555
v 0.1846933 0.0346732 0.0572948
v 0.0567964 0.0470321 0.0762470
v 0.0577677 0.0321121 0.0799361
v 0.1768596 0.0172551 0.0759150
v 0.0567964 0.0470321 0.0762470
v 0.1768596 0.0172551 0.0759150
v 0.1818995 0.0312858 0.0720555
v 0.0562306 0.0213640 0.0690148
v 0.1746134 0.0066118 0.0650138
v 0.1768596 0.0172551 0.0759150
v 0.0562306 0.0213640 0.0690148
v 0.1768596 0.0172551 0.0759150
v 0.0577677 0.0321121 0.0799361
v 0.0537221 0.0255358 0.0544044
v 0.1774072 0.0099993 0.0502531
v 0.1746134 0.0066118 0.0650138
v 0.0537221 0.0255358 0.0544044
v 0.1746134 0.0066118 0.0650138
v 0.0562306 0.0213640 0.0690148
v 0.0527508 0.0404558 0.0507153
v 0.1824471 0.0240300 0.0463936
v 0.1774072 0.0099993 0.0502531
v 0.0527508 0.0404558 0.0507153
v 0.1774072 0.0099993 0.0502531
v 0.0537221 0.0255358 0.0544044
v 0.1824471 0.0240300 0.0463936
v 0.1846933 0.0346732 0.0572948
v 0.2458862 0.0000000 0.0749319
v 0.1824471 0.0240300 0.0463936
v 0.2458862 0.0000000 0.0749319
v 0.2339348 0.0000000 0.0656599
v 0.1824471 0.0240300 0.0463936
v 0.2339348 0.0000000 0.0656599
v 0.2248743 0.0000000 0.0586157
v 0.1818995 0.0312858 0.0720555
v 0.2372345 0.0000000 0.0879620
v 0.2414759 0.0000000 0.0814869
v 0.1818995 0.0312858 0.0720555
v 0.2414759 0.0000000 0.0814869
v 0.2458862 0.0000000 0.0749319
v 0.1818995 0.0312858 0.0720555
v 0.2458862 0.0000000 0.0749319
v 0.1846933 0.0346732 0.0572948
v 0.1768596 0.0172551 0.0759150
v 0.2074672 0.0000000 0.0846823
v 0.2178441 0.0000000 0.0858356
v 0.1768596 0.0172551 0.0759150
v 0.2178441 0.0000000 0.0858356
v 0.2372345 0.0000000 0.0879620
v 0.1768596 0.0172551 0.0759150
v 0.2372345 0.0000000 0.0879620
v 0.1818995 0.0312858 0.0720555
v 0.1746134 0.0066118 0.0650138
v 0.1863477 0.0000000 0.0683729
v 0.1891953 0.0000000 0.0705763
v 0.1746134 0.0066118 0.0650138
v 0.1891953 0.0000000 0.0705763
v 0.2074672 0.0000000 0.0846823
v 0.1746134 0.0066118 0.0650138
v 0.2074672 0.0000000 0.0846823
v 0.1768596 0.0172551 0.0759150
v 0.1746134 0.0066118 0.0650138
v 0.1774072 0.0099993 0.0502531
v 0.1951094 0.0000000 0.0553359
v 0.1746134 0.0066118 0.0650138
v 0.1951094 0.0000000 0.0553359
v 0.1873097 0.0000000 0.0669046
v 0.1746134 0.0066118 0.0650138
v 0.1873097 0.0000000 0.0669046
v 0.1863477 0.0000000 0.0683729
v 0.1774072 0.0099993 0.0502531
v 0.1824471 0.0240300 0.0463936
v 0.2248743 0.0000000 0.0586157
v 0.1774072 0.0099993 0.0502531
v 0.2248743 0.0000000 0.0586157
v 0.2008320 0.0000000 0.0559731
v 0.1774072 0.0099993 0.0502531
v 0.2008320 0.0000000 0.0559731
v 0.1951094 0.0000000 0.0553359
vt 0.3991355 1.0000000
vt 0.4444444 1.0000000
vt 0.3995574 0.9326695
vt 0.3995574 0.9326695
vt 0.4444444 1.0000000
vt 0.4444444 0.8333333
vt 0.3995574 0.9326695
vt 0.4444444 0.8333333
vt 0.4003237 0.8333333
vt 0.3951593 0.1666667
vt 0.4444444 0.1666667
vt 0.3979186 0.0968780
vt 0.3979186 0.0968780
vt 0.4444444 0.1666667
vt 0.4444444 0.0000000
vt 0.3979186 0.0968780
vt 0.4444444 0.0000000
vt 0.3991355 0.0000000
vt 0.3921216 0.3333333
vt 0.4444444 0.3333333
vt 0.3946939 0.2587075
vt 0.3946939 0.2587075
vt 0.4444444 0.3333333
vt 0.4444444 0.1666667
vt 0.3946939 0.2587075
vt 0.4444444 0.1666667
vt 0.3951593 0.1666667
vt 0.3933950 0.5000000
vt 0.4444444 0.5000000
vt 0.4444444 0.3333333
vt 0.3933950 0.5000000
vt 0.4444444 0.3333333
vt 0.3926500 0.4110249
vt 0.3926500 0.4110249
vt 0.4444444 0.3333333
vt 0.3921216 0.3333333
vt 0.3976180 0.6666667
vt 0.4444444 0.6666667
vt 0.4444444 0.5000000
vt 0.3976180 0.6666667
vt 0.4444444 0.5000000
vt 0.3963774 0.5721006
vt 0.3963774 0.5721006
vt 0.4444444 0.5000000
vt 0.3933950 0.5000000
vt 0.4003237 0.8333333
vt 0.4444444 0.8333333
vt 0.4444444 0.6666667
vt 0.4003237 0.8333333
vt 0.4444444 0.6666667
vt 0.3998375 0.7335771
vt 0.3998375 0.7335771
vt 0.4444444 0.6666667
vt 0.3976180 0.6666667
vt 0.4444444 0.8333333
vt 0.4444444 1.0000000
vt 0.5555556 1.0000000
vt 0.4444444 0.8333333
vt 0.5555556 1.0000000
vt 0.5555556 0.8333333
vt 0.4444444 0.0000000
vt 0.4444444 0.1666667
vt 0.5555556 0.1666667
vt 0.4444444 0.0000000
vt 0.5555556 0.1666667
vt 0.5555556 0.0000000
vt 0.4444444 0.1666667
vt 0.4444444 0.3333333
vt 0.5555556 0.3333333
vt 0.4444444 0.1666667
vt 0.5555556 0.3333333
vt 0.5555556 0.1666667
vt 0.4444444 0.5000000
vt 0.5555556 0.5000000
vt 0.5555556 0.3333333
vt 0.4444444 0.5000000
vt 0.5555556 0.3333333
vt 0.4444444 0.3333333
vt 0.4444444 0.6666667
vt 0.5555556 0.6666667
vt 0.5555556 0.5000000
vt 0.4444444 0.6666667
vt 0.5555556 0.5000000
vt 0.4444444 0.5000000
vt 0.4444444 0.8333333
vt 0.5555556 0.8333333
vt 0.5555556 0.6666667
vt 0.4444444 0.8333333
vt 0.5555556 0.6666667
vt 0.4444444 0.6666667
vt 0.5555556 0.8333333
vt 0.5555556 1.0000000
vt 0.6136569 1.0000000
vt 0.5555556 0.8333333
vt 0.6136569 1.0000000
vt 0.6035214 0.9052820
vt 0.5555556 0.8333333
vt 0.6035214 0.9052820
vt 0.5961983 0.8333333
vt 0.5555556 0.1666667
vt 0.6105102 0.1666667
vt 0.6108031 0.0837954
vt 0.5555556 0.1666667
vt 0.6108031 0.0837954
vt 0.6136569 0.0000000
vt 0.5555556 0.1666667
vt 0.6136569 0.0000000
vt 0.5555556 0.0000000
vt 0.5555556 0.3333333
vt 0.5877291 0.3333333
vt 0.5945039 0.2749109
vt 0.5555556 0.3333333
vt 0.5945039 0.2749109
vt 0.6105102 0.1666667
vt 0.5555556 0.3333333
vt 0.6105102 0.1666667
vt 0.5555556 0.1666667
vt 0.5555556 0.5000000
vt 0.5680121 0.5000000
vt 0.5705645 0.4774866
vt 0.5555556 0.5000000
vt 0.5705645 0.4774866
vt 0.5877291 0.3333333
vt 0.5555556 0.5000000
vt 0.5877291 0.3333333
vt 0.5555556 0.3333333
vt 0.5555556 0.5000000
vt 0.5555556 0.6666667
vt 0.5734671 0.6666667
vt 0.5555556 0.5000000
vt 0.5734671 0.6666667
vt 0.5680833 0.5187916
vt 0.5555556 0.5000000
vt 0.5680833 0.5187916
vt 0.5680121 0.5000000
vt 0.5555556 0.6666667
vt 0.5555556 0.8333333
vt 0.5961983 0.8333333
vt 0.5555556 0.6666667
vt 0.5961983 0.8333333
vt 0.5770607 0.6989243
vt 0.5555556 0.6666667
vt 0.5770607 0.6989243
vt 0.5734671 0.6666667
vn -0.2153115 0.9503050 -0.2248587
vn -0.0668183 0.9618960 -0.2651253
vn -0.2786902 0.7726267 -0.5704207
vn -0.2786902 0.7726267 -0.5704207
vn -0.0668183 0.9618960 -0.2651253
vn -0.1621249 0.3021063 -0.9393867
vn -0.2786902 0.7726267 -0.5704207
vn -0.1621249 0.3021063 -0.9393867
vn -0.3007445 0.2813206 -0.9112692
vn 0.0705106 0.7402875 0.6685826
vn 0.0916775 0.7416916 0.6644462
vn -0.1409102 0.9197882 0.3662430
vn -0.1409102 0.9197882 0.3662430
vn 0.0916775 0.7416916 0.6644462
vn -0.0668183 0.9618960 -0.2651253
vn -0.1409102 0.9197882 0.3662430
vn -0.0668183 0.9618960 -0.2651253
vn -0.2153115 0.9503050 -0.2248587
vn 0.3195088 -0.2071344 0.9246672
vn 0.1636675 -0.2355873 0.9579726
vn 0.1277516 0.2325936 0.9641472
vn 0.1277516 0.2325936 0.9641472
vn 0.1636675 -0.2355873 0.9579726
vn 0.0916775 0.7416916 0.6644462
vn 0.1277516 0.2325936 0.9641472
vn 0.0916775 0.7416916 0.6644462
vn 0.0705106 0.7402875 0.6685826
vn 0.2188552 -0.9623240 0.1613531
vn 0.0587141 -0.9756441 0.2113559
vn 0.1636675 -0.2355873 0.9579726
vn 0.2188552 -0.9623240 0.1613531
vn 0.1636675 -0.2355873 0.9579726
vn 0.3297993 -0.6640904 0.6709817
vn 0.3297993 -0.6640904 0.6709817
vn 0.1636675 -0.2355873 0.9579726
vn 0.3195088 -0.2071344 0.9246672
vn -0.1121478 -0.6500704 -0.7515526
vn -0.1078833 -0.6520145 -0.7504920
vn 0.0587141 -0.9756441 0.2113559
vn -0.1121478 -0.6500704 -0.7515526
vn 0.0587141 -0.9756441 0.2113559
vn -0.0206464 -0.9706410 -0.2396451
vn -0.0206464 -0.9706410 -0.2396451
vn 0.0587141 -0.9756441 0.2113559
vn 0.2188552 -0.9623240 0.1613531
vn -0.3007445 0.2813206 -0.9112692
vn -0.1621249 0.3021063 -0.9393867
vn -0.1078833 -0.6520145 -0.7504920
vn -0.3007445 0.2813206 -0.9112692
vn -0.1078833 -0.6520145 -0.7504920
vn -0.3019010 -0.3353264 -0.8924192
vn -0.3019010 -0.3353264 -0.8924192
vn -0.1078833 -0.6520145 -0.7504920
vn -0.1121478 -0.6500704 -0.7515526
vn -0.1621249 0.3021063 -0.9393867
vn -0.0668183 0.9618960 -0.2651253
vn 0.3287699 0.9036958 -0.2743069
vn -0.1621249 0.3021063 -0.9393867
vn 0.3287699 0.9036958 -0.2743069
vn 0.1938472 0.2598329 -0.9459969
vn -0.0668183 0.9618960 -0.2651253
vn 0.0916775 0.7416916 0.6644462
vn 0.1675304 0.7366577 0.6551862
vn -0.0668183 0.9618960 -0.2651253
vn 0.1675304 0.7366577 0.6551862
vn 0.3287699 0.9036958 -0.2743069
vn 0.0916775 0.7416916 0.6644462
vn 0.1636675 -0.2355873 0.9579726
vn -0.1669001 -0.1730110 0.9706758
vn 0.0916775 0.7416916 0.6644462
vn -0.1669001 -0.1730110 0.9706758
vn 0.1675304 0.7366577 0.6551862
vn 0.0587141 -0.9756441 0.2113559
vn -0.3259159 -0.9192007 0.2210177
vn -0.1669001 -0.1730110 0.9706758
vn 0.0587141 -0.9756441 0.2113559
vn -0.1669001 -0.1730110 0.9706758
vn 0.1636675 -0.2355873 0.9579726
vn -0.1078833 -0.6520145 -0.7504920
vn -0.1229493 -0.6393611 -0.7590131
vn -0.3259159 -0.9192007 0.2210177
vn -0.1078833 -0.6520145 -0.7504920
vn -0.3259159 -0.9192007 0.2210177
vn 0.0587141 -0.9756441 0.2113559
vn -0.1621249 0.3021063 -0.9393867
vn 0.1938472 0.2598329 -0.9459969
vn -0.1229493 -0.6393611 -0.7590131
vn -0.1621249 0.3021063 -0.9393867
vn -0.1229493 -0.6393611 -0.7590131
vn -0.1078833 -0.6520145 -0.7504920
vn 0.1938472 0.2598329 -0.9459969
vn 0.3287699 0.9036958 -0.2743069
vn 0.5567281 0.8017477 -0.2173811
vn 0.1938472 0.2598329 -0.9459969
vn 0.5567281 0.8017477 -0.2173811
vn 0.4976772 0.5061837 -0.7043405
vn 0.1938472 0.2598329 -0.9459969
vn 0.4976772 0.5061837 -0.7043405
vn 0.3279327 0.1906941 -0.9252545
vn 0.1675304 0.7366577 0.6551862
vn 0.2204259 0.7115272 0.6671893
vn 0.5161807 0.8053631 0.2914580
vn 0.1675304 0.7366577 0.6551862
vn 0.5161807 0.8053631 0.2914580
vn 0.5567281 0.8017477 -0.2173811
vn 0.1675304 0.7366577 0.6551862
vn 0.5567281 0.8017477 -0.2173811
vn 0.3287699 0.9036958 -0.2743069
vn -0.1669001 -0.1730110 0.9706758
vn -0.2612857 -0.1166568 0.9581863
vn -0.0142142 0.1449441 0.9893377
vn -0.1669001 -0.1730110 0.9706758
vn -0.0142142 0.1449441 0.9893377
vn 0.2204259 0.7115272 0.6671893
vn -0.1669001 -0.1730110 0.9706758
vn 0.2204259 0.7115272 0.6671893
vn 0.1675304 0.7366577 0.6551862
vn -0.3259159 -0.9192007 0.2210177
vn -0.3744929 -0.9033321 0.2091561
vn -0.3777001 -0.8622518 0.3374380
vn -0.3259159 -0.9192007 0.2210177
vn -0.3777001 -0.8622518 0.3374380
vn -0.2612857 -0.1166568 0.9581863
vn -0.3259159 -0.9192007 0.2210177
vn -0.2612857 -0.1166568 0.9581863
vn -0.1669001 -0.1730110 0.9706758
vn -0.3259159 -0.9192007 0.2210177
vn -0.1229493 -0.6393611 -0.7590131
vn -0.1267643 -0.6350232 -0.7620213
vn -0.3259159 -0.9192007 0.2210177
vn -0.1267643 -0.6350232 -0.7620213
vn -0.3244558 -0.9388677 0.1151338
vn -0.3259159 -0.9192007 0.2210177
vn -0.3244558 -0.9388677 0.1151338
vn -0.3744929 -0.9033321 0.2091561
vn -0.1229493 -0.6393611 -0.7590131
vn 0.1938472 0.2598329 -0.9459969
vn 0.3279327 0.1906941 -0.9252545
vn -0.1229493 -0.6393611 -0.7590131
vn 0.3279327 0.1906941 -0.9252545
vn 0.0062760 -0.5454732 -0.8381047
vn -0.1229493 -0.6393611 -0.7590131
vn 0.0062760 -0.5454732 -0.8381047
vn -0.1267643 -0.6350232 -0.7620213
f 1/1/1 2/2/2 3/3/3
f 4/4/4 5/5/5 6/6/6
f 7/7/7 8/8/8 9/9/9
f 10/10/10 11/11/11 12/12/12
f 13/13/13 14/14/14 15/15/15
f 16/16/16 17/17/17 18/18/18
f 19/19/19 20/20/20 21/21/21
f 22/22/22 23/23/23 24/24/24
f 25/25/25 26/26/26 27/27/27
f 28/28/28 29/29/29 30/30/30
f 31/31/31 32/32/32 33/33/33
f 34/34/34 35/35/35 36/36/36
f 37/37/37 38/38/38 39/39/39
f 40/40/40 41/41/41 42/42/42
f 43/43/43 44/44/44 45/45/45
f 46/46/46 47/47/47 48/48/48
f 49/49/49 50/50/50 51/51/51
f 52/52/52 53/53/53 54/54/54
f 55/55/55 56/56/56 57/57/57
f 58/58/58 59/59/59 60/60/60
f 61/61/61 62/62/62 63/63/63
f 64/64/64 65/65/65 66/66/66
f 67/67/67 68/68/68 69/69/69
f 70/70/70 71/71/71 72/72/72
f 73/73/73 74/74/74 75/75/75
f 76/76/76 77/77/77 78/78/78
f 79/79/79 80/80/80 81/81/81
f 82/82/82 83/83/83 84/84/84
f 85/85/85 86/86/86 87/87/87
f 88/88/88 89/89/89 90/90/90
f 91/91/91 92/92/92 93/93/93
f 94/94/94 95/95/95 96/96/96
f 97/97/97 98/98/98 99/99/99
f 100/100/100 101/101/101 102/102/102
f 103/103/103 104/104/104 105/105/105
f 106/106/106 107/107/107 108/108/108
f 109/109/109 110/110/110 111/111/111
f 112/112/112 113/113/113 114/114/114
f 115/115/115 116/116/116 117/117/117
f 118/118/118 119/119/119 120/120/120
f 121/121/121 122/122/122 123/123/123
f 124/124/124 125/125/125 126/126/126
f 127/127/127 128/128/128 129/129/129
f 130/130/130 131/131/131 132/132/132
f 133/133/133 134/134/134 135/135/135
f 136/136/136 137/137/137 138/138/138
f 139/139/139 140/140/140 141/141/141
f 142/142/142 143/143/143 144/144/144
