# metre = block; Y up; per-cell coordinates; atlas UVs preserved
mtllib materials.mtl
o cell_6
usemtl pump_atlas
v 0.0000000 0.7864297 0.9744306
v 0.8214998 0.7864297 0.9744306
v 0.4999101 0.7727626 1.0000000
v 0.0000000 0.7864297 0.9744306
v 0.4999101 0.7727626 1.0000000
v 0.0000000 0.7727626 1.0000000
v 0.4999101 0.7727626 1.0000000
v 0.8214998 0.7864297 0.9744306
v 0.8214998 0.7727626 1.0000000
v 0.0000000 0.9040769 0.8310769
v 0.8214998 0.9040769 0.8310769
v 0.0000000 0.8570924 0.8883278
v 0.0000000 0.8570924 0.8883278
v 0.8214998 0.9040769 0.8310769
v 0.8214998 0.7864297 0.9744306
v 0.0000000 0.8570924 0.8883278
v 0.8214998 0.7864297 0.9744306
v 0.0000000 0.7864297 0.9744306
v 0.1409133 1.0000000 0.7523549
v 0.0000000 0.9901797 0.7604142
v 0.0000000 1.0000000 0.7523549
v 0.0000000 0.9901797 0.7604142
v 0.1409133 1.0000000 0.7523549
v 0.8214998 1.0000000 0.7523549
v 0.0000000 0.9901797 0.7604142
v 0.8214998 1.0000000 0.7523549
v 0.8214998 0.9040769 0.8310769
v 0.0000000 0.9901797 0.7604142
v 0.8214998 0.9040769 0.8310769
v 0.0000000 0.9040769 0.8310769
v 0.8214998 0.7727626 1.0000000
v 0.8214998 0.7864297 0.9744306
v 0.9017740 0.8246971 1.0000000
v 0.8214998 0.7864297 0.9744306
v 0.8214998 0.9040769 0.8310769
v 0.9205000 0.9442123 0.8712124
v 0.8214998 0.7864297 0.9744306
v 0.9205000 0.9442123 0.8712124
v 0.9205000 0.8385190 1.0000000
v 0.8214998 0.7864297 0.9744306
v 0.9205000 0.8385190 1.0000000
v 0.9017740 0.8246971 1.0000000
v 0.8214998 0.9040769 0.8310769
v 0.8214998 1.0000000 0.7523549
v 0.8757998 1.0000000 0.7924346
v 0.8214998 0.9040769 0.8310769
v 0.8757998 1.0000000 0.7924346
v 0.9205000 1.0000000 0.8254286
v 0.8214998 0.9040769 0.8310769
v 0.9205000 1.0000000 0.8254286
v 0.9205000 0.9442123 0.8712124
v 0.9205000 0.8385190 1.0000000
v 0.9205000 0.9442123 0.8712124
v 0.9542986 1.0000000 0.9270001
v 0.9205000 0.8385190 1.0000000
v 0.9542986 1.0000000 0.9270001
v 0.9742339 1.0000000 1.0000000
v 0.9205000 0.9442123 0.8712124
v 0.9205000 1.0000000 0.8254286
v 0.9388097 1.0000000 0.8804528
v 0.9205000 0.9442123 0.8712124
v 0.9388097 1.0000000 0.8804528
v 0.9542986 1.0000000 0.9270001
v 0.8215001 0.8099239 1.0000000
v 0.8215001 0.9241446 0.8511447
v 0.9095001 0.9241446 0.8511447
v 0.8215001 0.8099239 1.0000000
v 0.9095001 0.9241446 0.8511447
v 0.8405730 0.8099239 1.0000000
v 0.8405730 0.8099239 1.0000000
v 0.9095001 0.9241446 0.8511447
v 0.9095001 0.8099239 1.0000000
v 0.8215001 0.9241446 0.8511447
v 0.8215001 1.0000000 0.7929388
v 0.8566248 1.0000000 0.7929388
v 0.8215001 0.9241446 0.8511447
v 0.8566248 1.0000000 0.7929388
v 0.9095001 1.0000000 0.7929388
v 0.8215001 0.9241446 0.8511447
v 0.9095001 1.0000000 0.7929388
v 0.9095001 0.9241446 0.8511447
v 0.8215001 1.0000000 0.7929388
v 0.8215001 0.9241446 0.8511447
v 0.8215001 0.9858025 1.0000000
v 0.8215001 1.0000000 0.7929388
v 0.8215001 0.9858025 1.0000000
v 0.8215001 1.0000000 1.0000000
v 0.8215001 0.9858025 1.0000000
v 0.8215001 0.9241446 0.8511447
v 0.8215001 0.8099239 1.0000000
v 0.9095001 0.8099239 1.0000000
v 0.9095001 0.9241446 0.8511447
v 0.9095001 0.9858025 1.0000000
v 0.9095001 0.9858025 1.0000000
v 0.9095001 0.9241446 0.8511447
v 0.9095001 1.0000000 0.7929388
v 0.9095001 0.9858025 1.0000000
v 0.9095001 1.0000000 0.7929388
v 0.9095001 1.0000000 1.0000000
v 0.8006001 0.9949899 0.6670086
v 0.8050001 0.9914302 0.6695949
v 0.8006001 0.9888440 0.6660352
v 0.8006001 0.9603666 0.6867253
v 0.8050001 0.9629529 0.6902850
v 0.8006001 0.9593931 0.6928712
v 0.0000000 0.9949899 0.6670086
v 0.8006001 0.9949899 0.6670086
v 0.8006001 0.9888440 0.6660352
v 0.0000000 0.9949899 0.6670086
v 0.8006001 0.9888440 0.6660352
v 0.0000000 0.9912724 0.6664198
v 0.0000000 0.9912724 0.6664198
v 0.8006001 0.9888440 0.6660352
v 0.0000000 0.9888440 0.6660352
v 0.8006001 0.9888440 0.6660352
v 0.8050001 0.9914302 0.6695949
v 0.8050001 0.9629529 0.6902850
v 0.8006001 0.9888440 0.6660352
v 0.8050001 0.9629529 0.6902850
v 0.8006001 0.9603666 0.6867253
v 0.0000000 0.9603666 0.6867253
v 0.8006001 0.9603666 0.6867253
v 0.8006001 0.9593931 0.6928712
v 0.0000000 0.9603666 0.6867253
v 0.8006001 0.9593931 0.6928712
v 0.0000000 0.9597778 0.6904428
v 0.0000000 0.9597778 0.6904428
v 0.8006001 0.9593931 0.6928712
v 0.0000000 0.9593931 0.6928712
v 0.8050001 1.0000000 0.6813902
v 0.8050001 0.9914302 0.6695949
v 0.8041958 1.0000000 0.6800218
v 0.8041958 1.0000000 0.6800218
v 0.8050001 0.9914302 0.6695949
v 0.8006001 0.9949899 0.6670086
v 0.8041958 1.0000000 0.6800218
v 0.8006001 0.9949899 0.6670086
v 0.8006001 1.0000000 0.6739044
v 0.8006001 1.0000000 0.7487617
v 0.8006001 0.9593931 0.6928712
v 0.8050001 0.9629529 0.6902850
v 0.8006001 1.0000000 0.7487617
v 0.8050001 0.9629529 0.6902850
v 0.8009003 1.0000000 0.7482509
v 0.8009003 1.0000000 0.7482509
v 0.8050001 0.9629529 0.6902850
v 0.8050001 1.0000000 0.7412760
v 0.8006001 1.0000000 0.6739044
v 0.8006001 0.9949899 0.6670086
v 0.5662623 1.0000000 0.6739044
v 0.5662623 1.0000000 0.6739044
v 0.8006001 0.9949899 0.6670086
v 0.0000000 0.9949899 0.6670086
v 0.5662623 1.0000000 0.6739044
v 0.0000000 0.9949899 0.6670086
v 0.0000000 1.0000000 0.6739044
v 0.8050001 1.0000000 0.7412760
v 0.8050001 0.9629529 0.6902850
v 0.8050001 1.0000000 0.7103750
v 0.8050001 1.0000000 0.7103750
v 0.8050001 0.9629529 0.6902850
v 0.8050001 0.9914302 0.6695949
v 0.8050001 1.0000000 0.7103750
v 0.8050001 0.9914302 0.6695949
v 0.8050001 1.0000000 0.6813902
v 0.0000000 0.9593931 0.6928712
v 0.8006001 0.9593931 0.6928712
v 0.0000000 0.9765098 0.7164303
v 0.0000000 0.9765098 0.7164303
v 0.8006001 0.9593931 0.6928712
v 0.8006001 1.0000000 0.7487617
v 0.0000000 0.9765098 0.7164303
v 0.8006001 1.0000000 0.7487617
v 0.0000000 1.0000000 0.7487617
v 0.0000000 0.9888440 0.6660352
v 0.8006001 0.9888440 0.6660352
v 0.8006001 0.9603666 0.6867253
v 0.0000000 0.9888440 0.6660352
v 0.8006001 0.9603666 0.6867253
v 0.0000000 0.9716187 0.6785501
v 0.0000000 0.9716187 0.6785501
v 0.8006001 0.9603666 0.6867253
v 0.0000000 0.9603666 0.6867253
v 0.8006001 0.8254958 0.9297128
v 0.8006001 0.8264692 0.9358588
v 0.8050001 0.8229095 0.9332725
v 0.8006001 0.8057792 0.9643362
v 0.8006001 0.7996332 0.9653096
v 0.8050001 0.8022195 0.9617499
v 0.8006001 0.7658712 0.8863931
v 0.8050001 0.7632850 0.8899528
v 0.8006001 0.7597253 0.8873665
v 0.8006001 0.7390352 0.9158439
v 0.8050001 0.7425949 0.9184301
v 0.8006001 0.7400087 0.9219899
v 0.0000000 0.8264692 0.9358588
v 0.8006001 0.8264692 0.9358588
v 0.0000000 0.8260846 0.9334304
v 0.0000000 0.8260846 0.9334304
v 0.8006001 0.8264692 0.9358588
v 0.8006001 0.8254958 0.9297128
v 0.0000000 0.8260846 0.9334304
v 0.8006001 0.8254958 0.9297128
v 0.0000000 0.8254958 0.9297128
v 0.0000000 0.7996332 0.9653096
v 0.8006001 0.7996332 0.9653096
v 0.0000000 0.8020616 0.9649250
v 0.0000000 0.8020616 0.9649250
v 0.8006001 0.7996332 0.9653096
v 0.8006001 0.8057792 0.9643362
v 0.0000000 0.8020616 0.9649250
v 0.8006001 0.8057792 0.9643362
v 0.0000000 0.8057792 0.9643362
v 0.8006001 0.8264692 0.9358588
v 0.8006001 0.8057792 0.9643362
v 0.8050001 0.8022195 0.9617499
v 0.8006001 0.8264692 0.9358588
v 0.8050001 0.8022195 0.9617499
v 0.8050001 0.8229095 0.9332725
v 0.0000000 0.7658712 0.8863931
v 0.8006001 0.7658712 0.8863931
v 0.8006001 0.7597253 0.8873665
v 0.0000000 0.7658712 0.8863931
v 0.8006001 0.7597253 0.8873665
v 0.0000000 0.7621537 0.8869819
v 0.0000000 0.7621537 0.8869819
v 0.8006001 0.7597253 0.8873665
v 0.0000000 0.7597253 0.8873665
v 0.8006001 0.7597253 0.8873665
v 0.8050001 0.7632850 0.8899528
v 0.8050001 0.7425949 0.9184301
v 0.8006001 0.7597253 0.8873665
v 0.8050001 0.7425949 0.9184301
v 0.8006001 0.7390352 0.9158439
v 0.0000000 0.7390352 0.9158439
v 0.8006001 0.7390352 0.9158439
v 0.8006001 0.7400087 0.9219899
v 0.0000000 0.7390352 0.9158439
v 0.8006001 0.7400087 0.9219899
v 0.0000000 0.7396240 0.9195615
v 0.0000000 0.7396240 0.9195615
v 0.8006001 0.7400087 0.9219899
v 0.0000000 0.7400087 0.9219899
v 0.8006001 0.8254958 0.9297128
v 0.8050001 0.8229095 0.9332725
v 0.8050001 0.7632850 0.8899528
v 0.8006001 0.8254958 0.9297128
v 0.8050001 0.7632850 0.8899528
v 0.8006001 0.7658712 0.8863931
v 0.8006001 0.7996332 0.9653096
v 0.8006001 0.7400087 0.9219899
v 0.8050001 0.7425949 0.9184301
v 0.8006001 0.7996332 0.9653096
v 0.8050001 0.7425949 0.9184301
v 0.8050001 0.8022195 0.9617499
v 0.0000000 0.8254958 0.9297128
v 0.8006001 0.8254958 0.9297128
v 0.8006001 0.7658712 0.8863931
v 0.0000000 0.8254958 0.9297128
v 0.8006001 0.7658712 0.8863931
v 0.0000000 0.7894303 0.9035097
v 0.0000000 0.7894303 0.9035097
v 0.8006001 0.7658712 0.8863931
v 0.0000000 0.7658712 0.8863931
v 0.0000000 0.8057792 0.9643362
v 0.8006001 0.8057792 0.9643362
v 0.0000000 0.8139543 0.9530841
v 0.0000000 0.8139543 0.9530841
v 0.8006001 0.8057792 0.9643362
v 0.8006001 0.8264692 0.9358588
v 0.0000000 0.8139543 0.9530841
v 0.8006001 0.8264692 0.9358588
v 0.0000000 0.8264692 0.9358588
v 0.8050001 0.8229095 0.9332725
v 0.8050001 0.8022195 0.9617499
v 0.8050001 0.7425949 0.9184301
v 0.8050001 0.8229095 0.9332725
v 0.8050001 0.7425949 0.9184301
v 0.8050001 0.7632850 0.8899528
v 0.0000000 0.7400087 0.9219899
v 0.8006001 0.7400087 0.9219899
v 0.0000000 0.7635678 0.9391065
v 0.0000000 0.7635678 0.9391065
v 0.8006001 0.7400087 0.9219899
v 0.8006001 0.7996332 0.9653096
v 0.0000000 0.7635678 0.9391065
v 0.8006001 0.7996332 0.9653096
v 0.0000000 0.7996332 0.9653096
v 0.0000000 0.7597253 0.8873665
v 0.8006001 0.7597253 0.8873665
v 0.8006001 0.7390352 0.9158439
v 0.0000000 0.7597253 0.8873665
v 0.8006001 0.7390352 0.9158439
v 0.0000000 0.7472104 0.9045918
v 0.0000000 0.7472104 0.9045918
v 0.8006001 0.7390352 0.9158439
v 0.0000000 0.7390352 0.9158439
v 0.7995002 0.7449026 1.0000000
v 0.7995002 0.8873539 0.8143539
v 0.9535003 0.8873539 0.8143539
v 0.7995002 0.7449026 1.0000000
v 0.9535003 0.8873539 0.8143539
v 0.8111372 0.7449026 1.0000000
v 0.8111372 0.7449026 1.0000000
v 0.9535003 0.8873539 0.8143539
v 0.9535003 0.7449026 1.0000000
v 0.7995002 0.8873539 0.8143539
v 0.7995002 1.0000000 0.7279175
v 0.8858832 1.0000000 0.7279175
v 0.7995002 0.8873539 0.8143539
v 0.8858832 1.0000000 0.7279175
v 0.9535003 1.0000000 0.7279175
v 0.7995002 0.8873539 0.8143539
v 0.9535003 1.0000000 0.7279175
v 0.9535003 0.8873539 0.8143539
v 0.9535003 0.7449026 1.0000000
v 0.9535003 0.8873539 0.8143539
v 1.0000000 0.9246282 0.8516282
v 0.9535003 0.7449026 1.0000000
v 1.0000000 0.9246282 0.8516282
v 1.0000000 0.8297509 0.9752746
v 0.9535003 0.7449026 1.0000000
v 1.0000000 0.8297509 0.9752746
v 0.9711852 0.7699566 1.0000000
v 0.9711852 0.7699566 1.0000000
v 1.0000000 0.8297509 0.9752746
v 1.0000000 0.8107785 1.0000000
v 0.9535003 0.8873539 0.8143539
v 0.9535003 1.0000000 0.7279175
v 1.0000000 1.0000000 0.7937934
v 0.9535003 0.8873539 0.8143539
v 1.0000000 1.0000000 0.7937934
v 1.0000000 0.9908855 0.8007872
v 0.9535003 0.8873539 0.8143539
v 1.0000000 0.9908855 0.8007872
v 1.0000000 0.9246282 0.8516282
v 0.7995002 1.0000000 0.7279175
v 0.7995002 0.8873539 0.8143539
v 0.7995002 0.9642510 1.0000000
v 0.7995002 1.0000000 0.7279175
v 0.7995002 0.9642510 1.0000000
v 0.7995002 1.0000000 1.0000000
v 0.7995002 0.9642510 1.0000000
v 0.7995002 0.8873539 0.8143539
v 0.7995002 0.7449026 1.0000000
v 0.4200001 0.3212000 0.9120280
v 0.4332001 0.3080000 0.9120280
v 0.4332001 0.3212000 0.9252280
v 0.6708000 0.3212000 0.9252280
v 0.6708000 0.3080000 0.9120280
v 0.6840000 0.3212000 0.9120280
v 0.6708000 0.3080000 0.6084280
v 0.6708000 0.3212000 0.5952280
v 0.6840000 0.3212000 0.6084280
v 0.4200001 0.3212000 0.6084280
v 0.4332001 0.3212000 0.5952280
v 0.4332001 0.3080000 0.6084280
v 0.4332001 0.3212000 0.9252280
v 0.4332001 0.3080000 0.9120280
v 0.6708000 0.3080000 0.9120280
v 0.4332001 0.3212000 0.9252280
v 0.6708000 0.3080000 0.9120280
v 0.6708000 0.3212000 0.9252280
v 0.4200001 0.3212000 0.9120280
v 0.4200001 0.3212000 0.6084280
v 0.4332001 0.3080000 0.6084280
v 0.4200001 0.3212000 0.9120280
v 0.4332001 0.3080000 0.6084280
v 0.4332001 0.3080000 0.9120280
v 0.4332001 0.3080000 0.6084280
v 0.4332001 0.3212000 0.5952280
v 0.6708000 0.3212000 0.5952280
v 0.4332001 0.3080000 0.6084280
v 0.6708000 0.3212000 0.5952280
v 0.6708000 0.3080000 0.6084280
v 0.6708000 0.3080000 0.9120280
v 0.6708000 0.3080000 0.6084280
v 0.6840000 0.3212000 0.6084280
v 0.6708000 0.3080000 0.9120280
v 0.6840000 0.3212000 0.6084280
v 0.6840000 0.3212000 0.9120280
v 0.4200001 0.3212000 0.9120280
v 0.4332001 0.3212000 0.9252280
v 0.4332001 1.0000000 0.9252280
v 0.4200001 0.3212000 0.9120280
v 0.4332001 1.0000000 0.9252280
v 0.4317035 1.0000000 0.9237314
v 0.4200001 0.3212000 0.9120280
v 0.4317035 1.0000000 0.9237314
v 0.4200001 1.0000000 0.9120280
v 0.6708000 0.3212000 0.9252280
v 0.6840000 0.3212000 0.9120280
v 0.6840000 1.0000000 0.9120280
v 0.6708000 0.3212000 0.9252280
v 0.6840000 1.0000000 0.9120280
v 0.6825034 1.0000000 0.9135246
v 0.6708000 0.3212000 0.9252280
v 0.6825034 1.0000000 0.9135246
v 0.6708000 1.0000000 0.9252280
v 0.6708000 0.3212000 0.5952280
v 0.6708000 1.0000000 0.5952280
v 0.6825034 1.0000000 0.6069314
v 0.6708000 0.3212000 0.5952280
v 0.6825034 1.0000000 0.6069314
v 0.6840000 1.0000000 0.6084280
v 0.6708000 0.3212000 0.5952280
v 0.6840000 1.0000000 0.6084280
v 0.6840000 0.3212000 0.6084280
v 0.4200001 0.3212000 0.6084280
v 0.4200001 1.0000000 0.6084280
v 0.4317035 1.0000000 0.5967246
v 0.4200001 0.3212000 0.6084280
v 0.4317035 1.0000000 0.5967246
v 0.4332001 1.0000000 0.5952280
v 0.4200001 0.3212000 0.6084280
v 0.4332001 1.0000000 0.5952280
v 0.4332001 0.3212000 0.5952280
v 0.4332001 0.3212000 0.9252280
v 0.6708000 0.3212000 0.9252280
v 0.6708000 1.0000000 0.9252280
v 0.4332001 0.3212000 0.9252280
v 0.6708000 1.0000000 0.9252280
v 0.6438621 1.0000000 0.9252280
v 0.4332001 0.3212000 0.9252280
v 0.6438621 1.0000000 0.9252280
v 0.4332001 1.0000000 0.9252280
v 0.4332001 0.3080000 0.9120280
v 0.4332001 0.3080000 0.6084280
v 0.6708000 0.3080000 0.6084280
v 0.4332001 0.3080000 0.9120280
v 0.6708000 0.3080000 0.6084280
v 0.6708000 0.3080000 0.9120280
v 0.4200001 0.3212000 0.9120280
v 0.4200001 1.0000000 0.9120280
v 0.4200001 1.0000000 0.6428487
v 0.4200001 0.3212000 0.9120280
v 0.4200001 1.0000000 0.6428487
v 0.4200001 1.0000000 0.6084280
v 0.4200001 0.3212000 0.9120280
v 0.4200001 1.0000000 0.6084280
v 0.4200001 0.3212000 0.6084280
v 0.6840000 0.3212000 0.9120280
v 0.6840000 0.3212000 0.6084280
v 0.6840000 1.0000000 0.6084280
v 0.6840000 0.3212000 0.9120280
v 0.6840000 1.0000000 0.6084280
v 0.6840000 1.0000000 0.6428487
v 0.6840000 0.3212000 0.9120280
v 0.6840000 1.0000000 0.6428487
v 0.6840000 1.0000000 0.9120280
v 0.4332001 0.3212000 0.5952280
v 0.4332001 1.0000000 0.5952280
v 0.6438621 1.0000000 0.5952280
v 0.4332001 0.3212000 0.5952280
v 0.6438621 1.0000000 0.5952280
v 0.6708000 1.0000000 0.5952280
v 0.4332001 0.3212000 0.5952280
v 0.6708000 1.0000000 0.5952280
v 0.6708000 0.3212000 0.5952280
v 0.3155000 0.2882000 0.9835280
v 0.3287001 0.2750000 0.9835280
v 0.3287001 0.2882000 0.9967280
v 0.7753000 0.2882000 0.9967280
v 0.7753000 0.2750000 0.9835280
v 0.7885001 0.2882000 0.9835280
v 0.7753000 0.2750000 0.5369279
v 0.7753000 0.2882000 0.5237280
v 0.7885001 0.2882000 0.5369279
v 0.3155000 0.2882000 0.5369279
v 0.3287001 0.2882000 0.5237280
v 0.3287001 0.2750000 0.5369279
v 0.3155000 0.3718000 0.9835280
v 0.3287001 0.3718000 0.9967280
v 0.3287001 0.3850000 0.9835280
v 0.7753000 0.3718000 0.9967280
v 0.7885001 0.3718000 0.9835280
v 0.7753000 0.3850000 0.9835280
v 0.7753000 0.3850000 0.5369279
v 0.7885001 0.3718000 0.5369279
v 0.7753000 0.3718000 0.5237280
v 0.3155000 0.3718000 0.5369279
v 0.3287001 0.3850000 0.5369279
v 0.3287001 0.3718000 0.5237280
v 0.3287001 0.2882000 0.9967280
v 0.3287001 0.2750000 0.9835280
v 0.7753000 0.2750000 0.9835280
v 0.3287001 0.2882000 0.9967280
v 0.7753000 0.2750000 0.9835280
v 0.7753000 0.2882000 0.9967280
v 0.3155000 0.2882000 0.9835280
v 0.3155000 0.2882000 0.5369279
v 0.3287001 0.2750000 0.5369279
v 0.3155000 0.2882000 0.9835280
v 0.3287001 0.2750000 0.5369279
v 0.3287001 0.2750000 0.9835280
v 0.3287001 0.2750000 0.5369279
v 0.3287001 0.2882000 0.5237280
v 0.7753000 0.2882000 0.5237280
v 0.3287001 0.2750000 0.5369279
v 0.7753000 0.2882000 0.5237280
v 0.7753000 0.2750000 0.5369279
v 0.7753000 0.2750000 0.9835280
v 0.7753000 0.2750000 0.5369279
v 0.7885001 0.2882000 0.5369279
v 0.7753000 0.2750000 0.9835280
v 0.7885001 0.2882000 0.5369279
v 0.7885001 0.2882000 0.9835280
v 0.3155000 0.3718000 0.9835280
v 0.3287001 0.3850000 0.9835280
v 0.3287001 0.3850000 0.5369279
v 0.3155000 0.3718000 0.9835280
v 0.3287001 0.3850000 0.5369279
v 0.3155000 0.3718000 0.5369279
v 0.3287001 0.3718000 0.9967280
v 0.7753000 0.3718000 0.9967280
v 0.7753000 0.3850000 0.9835280
v 0.3287001 0.3718000 0.9967280
v 0.7753000 0.3850000 0.9835280
v 0.3287001 0.3850000 0.9835280
v 0.7753000 0.3850000 0.9835280
v 0.7885001 0.3718000 0.9835280
v 0.7885001 0.3718000 0.5369279
v 0.7753000 0.3850000 0.9835280
v 0.7885001 0.3718000 0.5369279
v 0.7753000 0.3850000 0.5369279
v 0.3287001 0.3850000 0.5369279
v 0.7753000 0.3850000 0.5369279
v 0.7753000 0.3718000 0.5237280
v 0.3287001 0.3850000 0.5369279
v 0.7753000 0.3718000 0.5237280
v 0.3287001 0.3718000 0.5237280
v 0.3155000 0.2882000 0.9835280
v 0.3287001 0.2882000 0.9967280
v 0.3287001 0.3718000 0.9967280
v 0.3155000 0.2882000 0.9835280
v 0.3287001 0.3718000 0.9967280
v 0.3155000 0.3718000 0.9835280
v 0.7753000 0.2882000 0.9967280
v 0.7885001 0.2882000 0.9835280
v 0.7885001 0.3718000 0.9835280
v 0.7753000 0.2882000 0.9967280
v 0.7885001 0.3718000 0.9835280
v 0.7753000 0.3718000 0.9967280
v 0.7753000 0.2882000 0.5237280
v 0.7753000 0.3718000 0.5237280
v 0.7885001 0.3718000 0.5369279
v 0.7753000 0.2882000 0.5237280
v 0.7885001 0.3718000 0.5369279
v 0.7885001 0.2882000 0.5369279
v 0.3155000 0.2882000 0.5369279
v 0.3155000 0.3718000 0.5369279
v 0.3287001 0.3718000 0.5237280
v 0.3155000 0.2882000 0.5369279
v 0.3287001 0.3718000 0.5237280
v 0.3287001 0.2882000 0.5237280
v 0.3287001 0.2882000 0.9967280
v 0.7753000 0.2882000 0.9967280
v 0.7753000 0.3718000 0.9967280
v 0.3287001 0.2882000 0.9967280
v 0.7753000 0.3718000 0.9967280
v 0.3287001 0.3718000 0.9967280
v 0.3287001 0.2750000 0.9835280
v 0.3287001 0.2750000 0.5369279
v 0.7753000 0.2750000 0.5369279
v 0.3287001 0.2750000 0.9835280
v 0.7753000 0.2750000 0.5369279
v 0.7753000 0.2750000 0.9835280
v 0.3155000 0.2882000 0.9835280
v 0.3155000 0.3718000 0.9835280
v 0.3155000 0.3718000 0.5369279
v 0.3155000 0.2882000 0.9835280
v 0.3155000 0.3718000 0.5369279
v 0.3155000 0.2882000 0.5369279
v 0.7885001 0.2882000 0.9835280
v 0.7885001 0.2882000 0.5369279
v 0.7885001 0.3718000 0.5369279
v 0.7885001 0.2882000 0.9835280
v 0.7885001 0.3718000 0.5369279
v 0.7885001 0.3718000 0.9835280
v 0.3287001 0.2882000 0.5237280
v 0.3287001 0.3718000 0.5237280
v 0.7753000 0.3718000 0.5237280
v 0.3287001 0.2882000 0.5237280
v 0.7753000 0.3718000 0.5237280
v 0.7753000 0.2882000 0.5237280
v 0.3287001 0.3850000 0.9835280
v 0.7753000 0.3850000 0.9835280
v 0.7753000 0.3850000 0.5369279
v 0.3287001 0.3850000 0.9835280
v 0.7753000 0.3850000 0.5369279
v 0.3287001 0.3850000 0.5369279
v 0.3925002 0.3916000 0.7888068
v 0.3925002 0.4290000 0.7888068
v 0.3760002 0.4290000 0.7602280
v 0.3925002 0.3916000 0.7888068
v 0.3760002 0.4290000 0.7602280
v 0.3760002 0.3916000 0.7602280
v 0.4255002 0.3916000 0.7888068
v 0.4255002 0.4290000 0.7888068
v 0.3925002 0.4290000 0.7888068
v 0.4255002 0.3916000 0.7888068
v 0.3925002 0.4290000 0.7888068
v 0.3925002 0.3916000 0.7888068
v 0.4420002 0.3916000 0.7602280
v 0.4420002 0.4290000 0.7602280
v 0.4255002 0.4290000 0.7888068
v 0.4420002 0.3916000 0.7602280
v 0.4255002 0.4290000 0.7888068
v 0.4255002 0.3916000 0.7888068
v 0.4420002 0.3916000 0.7602280
v 0.4255002 0.3916000 0.7316492
v 0.4255002 0.4290000 0.7316492
v 0.4420002 0.3916000 0.7602280
v 0.4255002 0.4290000 0.7316492
v 0.4420002 0.4290000 0.7602280
v 0.4255002 0.3916000 0.7316492
v 0.3925002 0.3916000 0.7316492
v 0.3925002 0.4290000 0.7316492
v 0.4255002 0.3916000 0.7316492
v 0.3925002 0.4290000 0.7316492
v 0.4255002 0.4290000 0.7316492
v 0.3925002 0.3916000 0.7316492
v 0.3760002 0.3916000 0.7602280
v 0.3760002 0.4290000 0.7602280
v 0.3925002 0.3916000 0.7316492
v 0.3760002 0.4290000 0.7602280
v 0.3925002 0.4290000 0.7316492
v 0.4420002 0.3916000 0.7602280
v 0.4255002 0.3916000 0.7888068
v 0.3925002 0.3916000 0.7888068
v 0.4420002 0.3916000 0.7602280
v 0.3925002 0.3916000 0.7888068
v 0.3760002 0.3916000 0.7602280
v 0.4420002 0.3916000 0.7602280
v 0.3760002 0.3916000 0.7602280
v 0.3925002 0.3916000 0.7316492
v 0.4420002 0.3916000 0.7602280
v 0.3925002 0.3916000 0.7316492
v 0.4255002 0.3916000 0.7316492
v 0.4420002 0.4290000 0.7602280
v 0.4255002 0.4290000 0.7316492
v 0.3925002 0.4290000 0.7316492
v 0.4420002 0.4290000 0.7602280
v 0.3925002 0.4290000 0.7316492
v 0.3760002 0.4290000 0.7602280
v 0.4420002 0.4290000 0.7602280
v 0.3760002 0.4290000 0.7602280
v 0.3925002 0.4290000 0.7888068
v 0.4420002 0.4290000 0.7602280
v 0.3925002 0.4290000 0.7888068
v 0.4255002 0.4290000 0.7888068
v 0.6785002 0.3916000 0.7888068
v 0.6785002 0.4290000 0.7888068
v 0.6620002 0.4290000 0.7602280
v 0.6785002 0.3916000 0.7888068
v 0.6620002 0.4290000 0.7602280
v 0.6620002 0.3916000 0.7602280
v 0.7115002 0.3916000 0.7888068
v 0.7115002 0.4290000 0.7888068
v 0.6785002 0.4290000 0.7888068
v 0.7115002 0.3916000 0.7888068
v 0.6785002 0.4290000 0.7888068
v 0.6785002 0.3916000 0.7888068
v 0.7280002 0.3916000 0.7602280
v 0.7280002 0.4290000 0.7602280
v 0.7115002 0.4290000 0.7888068
v 0.7280002 0.3916000 0.7602280
v 0.7115002 0.4290000 0.7888068
v 0.7115002 0.3916000 0.7888068
v 0.7280002 0.3916000 0.7602280
v 0.7115002 0.3916000 0.7316492
v 0.7115002 0.4290000 0.7316492
v 0.7280002 0.3916000 0.7602280
v 0.7115002 0.4290000 0.7316492
v 0.7280002 0.4290000 0.7602280
v 0.7115002 0.3916000 0.7316492
v 0.6785002 0.3916000 0.7316492
v 0.6785002 0.4290000 0.7316492
v 0.7115002 0.3916000 0.7316492
v 0.6785002 0.4290000 0.7316492
v 0.7115002 0.4290000 0.7316492
v 0.6785002 0.3916000 0.7316492
v 0.6620002 0.3916000 0.7602280
v 0.6620002 0.4290000 0.7602280
v 0.6785002 0.3916000 0.7316492
v 0.6620002 0.4290000 0.7602280
v 0.6785002 0.4290000 0.7316492
v 0.7280002 0.3916000 0.7602280
v 0.7115002 0.3916000 0.7888068
v 0.6785002 0.3916000 0.7888068
v 0.7280002 0.3916000 0.7602280
v 0.6785002 0.3916000 0.7888068
v 0.6620002 0.3916000 0.7602280
v 0.7280002 0.3916000 0.7602280
v 0.6620002 0.3916000 0.7602280
v 0.6785002 0.3916000 0.7316492
v 0.7280002 0.3916000 0.7602280
v 0.6785002 0.3916000 0.7316492
v 0.7115002 0.3916000 0.7316492
v 0.7280002 0.4290000 0.7602280
v 0.7115002 0.4290000 0.7316492
v 0.6785002 0.4290000 0.7316492
v 0.7280002 0.4290000 0.7602280
v 0.6785002 0.4290000 0.7316492
v 0.6620002 0.4290000 0.7602280
v 0.7280002 0.4290000 0.7602280
v 0.6620002 0.4290000 0.7602280
v 0.6785002 0.4290000 0.7888068
v 0.7280002 0.4290000 0.7602280
v 0.6785002 0.4290000 0.7888068
v 0.7115002 0.4290000 0.7888068
v 0.0000000 0.0000000 0.3428000
v 1.0000000 0.0000000 0.3428000
v 1.0000000 0.0012871 0.3440871
v 0.0000000 0.0000000 0.3428000
v 1.0000000 0.0012871 0.3440871
v 0.0000000 0.0030581 0.3458581
v 0.0000000 0.0030581 0.3458581
v 1.0000000 0.0012871 0.3440871
v 1.0000000 0.0132000 0.3560001
v 0.0000000 0.0030581 0.3458581
v 1.0000000 0.0132000 0.3560001
v 0.0000000 0.0132000 0.3560001
v 0.0000000 0.0132000 0.0700001
v 1.0000000 0.0132000 0.0700001
v 1.0000000 0.0119129 0.0712872
v 0.0000000 0.0132000 0.0700001
v 1.0000000 0.0119129 0.0712872
v 0.0000000 0.0101419 0.0730582
v 0.0000000 0.0101419 0.0730582
v 1.0000000 0.0119129 0.0712872
v 1.0000000 0.0000000 0.0832001
v 0.0000000 0.0101419 0.0730582
v 1.0000000 0.0000000 0.0832001
v 0.0000000 0.0000000 0.0832001
v 0.0000000 0.2728000 0.3560001
v 1.0000000 0.2728000 0.3560001
v 1.0000000 0.2847129 0.3440871
v 0.0000000 0.2728000 0.3560001
v 1.0000000 0.2847129 0.3440871
v 0.0000000 0.2829419 0.3458581
v 0.0000000 0.2829419 0.3458581
v 1.0000000 0.2847129 0.3440871
v 1.0000000 0.2860000 0.3428000
v 0.0000000 0.2829419 0.3458581
v 1.0000000 0.2860000 0.3428000
v 0.0000000 0.2860000 0.3428000
v 0.0000000 0.2860000 0.0832001
v 1.0000000 0.2860000 0.0832001
v 1.0000000 0.2740871 0.0712872
v 0.0000000 0.2860000 0.0832001
v 1.0000000 0.2740871 0.0712872
v 0.0000000 0.2758581 0.0730582
v 0.0000000 0.2758581 0.0730582
v 1.0000000 0.2740871 0.0712872
v 1.0000000 0.2728000 0.0700001
v 0.0000000 0.2758581 0.0730582
v 1.0000000 0.2728000 0.0700001
v 0.0000000 0.2728000 0.0700001
v 0.0000000 0.0132000 0.3560001
v 1.0000000 0.0132000 0.3560001
v 1.0000000 0.2474864 0.3560001
v 0.0000000 0.0132000 0.3560001
v 1.0000000 0.2474864 0.3560001
v 0.0000000 0.2126576 0.3560001
v 0.0000000 0.2126576 0.3560001
v 1.0000000 0.2474864 0.3560001
v 1.0000000 0.2728000 0.3560001
v 0.0000000 0.2126576 0.3560001
v 1.0000000 0.2728000 0.3560001
v 0.0000000 0.2728000 0.3560001
v 0.0000000 0.0000000 0.0832001
v 1.0000000 0.0000000 0.0832001
v 1.0000000 0.0000000 0.1085137
v 0.0000000 0.0000000 0.0832001
v 1.0000000 0.0000000 0.1085137
v 0.0000000 0.0000000 0.1433425
v 0.0000000 0.0000000 0.1433425
v 1.0000000 0.0000000 0.1085137
v 1.0000000 0.0000000 0.3428000
v 0.0000000 0.0000000 0.1433425
v 1.0000000 0.0000000 0.3428000
v 0.0000000 0.0000000 0.3428000
v 0.0000000 0.2728000 0.0700001
v 1.0000000 0.2728000 0.0700001
v 1.0000000 0.2474864 0.0700001
v 0.0000000 0.2728000 0.0700001
v 1.0000000 0.2474864 0.0700001
v 0.0000000 0.2126576 0.0700001
v 0.0000000 0.2126576 0.0700001
v 1.0000000 0.2474864 0.0700001
v 1.0000000 0.0132000 0.0700001
v 0.0000000 0.2126576 0.0700001
v 1.0000000 0.0132000 0.0700001
v 0.0000000 0.0132000 0.0700001
v 0.0000000 0.2860000 0.3428000
v 1.0000000 0.2860000 0.3428000
v 1.0000000 0.2860000 0.1085137
v 0.0000000 0.2860000 0.3428000
v 1.0000000 0.2860000 0.1085137
v 0.0000000 0.2860000 0.1433425
v 0.0000000 0.2860000 0.1433425
v 1.0000000 0.2860000 0.1085137
v 1.0000000 0.2860000 0.0832001
v 0.0000000 0.2860000 0.1433425
v 1.0000000 0.2860000 0.0832001
v 0.0000000 0.2860000 0.0832001
v 0.0000000 0.1969000 0.1359999
v 1.0000000 0.1969000 0.1359999
v 1.0000000 0.1960150 0.1368849
v 0.0000000 0.1969000 0.1359999
v 1.0000000 0.1960150 0.1368849
v 0.0000000 0.1946600 0.1382399
v 0.0000000 0.1946600 0.1382399
v 1.0000000 0.1960150 0.1368849
v 1.0000000 0.1870000 0.1458999
v 0.0000000 0.1946600 0.1382399
v 1.0000000 0.1870000 0.1458999
v 0.0000000 0.1870000 0.1458999
v 0.0000000 0.2420000 0.1458999
v 1.0000000 0.2420000 0.1458999
v 1.0000000 0.2329850 0.1368849
v 0.0000000 0.2420000 0.1458999
v 1.0000000 0.2329850 0.1368849
v 0.0000000 0.2343400 0.1382399
v 0.0000000 0.2343400 0.1382399
v 1.0000000 0.2329850 0.1368849
v 1.0000000 0.2321000 0.1359999
v 0.0000000 0.2343400 0.1382399
v 1.0000000 0.2321000 0.1359999
v 0.0000000 0.2321000 0.1359999
v 0.0000000 0.1870000 0.1458999
v 1.0000000 0.1870000 0.1458999
v 1.0000000 0.1870000 0.3879855
v 0.0000000 0.1870000 0.1458999
v 1.0000000 0.1870000 0.3879855
v 0.0000000 0.1870000 0.7586570
v 0.0000000 0.1870000 0.7586570
v 1.0000000 0.1870000 0.3879855
v 1.0000000 0.1870000 1.0000000
v 0.0000000 0.1870000 0.7586570
v 1.0000000 0.1870000 1.0000000
v 0.0000000 0.1870000 1.0000000
v 0.0000000 0.2321000 0.1359999
v 1.0000000 0.2321000 0.1359999
v 1.0000000 0.2289535 0.1359999
v 0.0000000 0.2321000 0.1359999
v 1.0000000 0.2289535 0.1359999
v 0.0000000 0.2241357 0.1359999
v 0.0000000 0.2241357 0.1359999
v 1.0000000 0.2289535 0.1359999
v 1.0000000 0.1969000 0.1359999
v 0.0000000 0.2241357 0.1359999
v 1.0000000 0.1969000 0.1359999
v 0.0000000 0.1969000 0.1359999
v 1.0000000 0.2420000 1.0000000
v 1.0000000 0.2420000 0.3879855
v 0.0000000 0.2420000 0.7586570
v 1.0000000 0.2420000 1.0000000
v 0.0000000 0.2420000 0.7586570
v 0.0000000 0.2420000 1.0000000
v 0.0000000 0.2420000 0.7586570
v 1.0000000 0.2420000 0.3879855
v 1.0000000 0.2420000 0.1458999
v 0.0000000 0.2420000 0.7586570
v 1.0000000 0.2420000 0.1458999
v 0.0000000 0.2420000 0.1458999
vt 0.4488636 0.0950529
vt 0.4877604 0.0950529
vt 0.4725336 0.0934692
vt 0.4488636 0.0950529
vt 0.4725336 0.0934692
vt 0.4488636 0.0934692
vt 0.4725336 0.0934692
vt 0.4877604 0.0950529
vt 0.4877604 0.0934692
vt 0.4488636 0.1039320
vt 0.4877604 0.1039320
vt 0.4488636 0.1003860
vt 0.4488636 0.1003860
vt 0.4877604 0.1039320
vt 0.4877604 0.0950529
vt 0.4488636 0.1003860
vt 0.4877604 0.0950529
vt 0.4488636 0.0950529
vt 0.4555357 0.0270093
vt 0.4488636 0.0264011
vt 0.4488636 0.0270093
vt 0.4488636 0.0264011
vt 0.4555357 0.0270093
vt 0.4877604 0.0270093
vt 0.4488636 0.0264011
vt 0.4877604 0.0270093
vt 0.4877604 0.0210680
vt 0.4488636 0.0264011
vt 0.4877604 0.0210680
vt 0.4488636 0.0210680
vt 0.4877604 0.0934692
vt 0.4877604 0.0950529
vt 0.4915613 0.0934692
vt 0.4877604 0.0950529
vt 0.4877604 0.1039320
vt 0.4924479 0.1014461
vt 0.4877604 0.0950529
vt 0.4924479 0.1014461
vt 0.4924479 0.0934692
vt 0.4877604 0.0950529
vt 0.4924479 0.0934692
vt 0.4915613 0.0934692
vt 0.4877604 0.0210680
vt 0.4877604 0.0270093
vt 0.4903314 0.0270093
vt 0.4877604 0.0210680
vt 0.4903314 0.0270093
vt 0.4924479 0.0270093
vt 0.4877604 0.0210680
vt 0.4924479 0.0270093
vt 0.4924479 0.0235539
vt 0.4684692 0.0170074
vt 0.4764461 0.0235539
vt 0.4729907 0.0270093
vt 0.4684692 0.0170074
vt 0.4729907 0.0270093
vt 0.4684692 0.0270093
vt 0.4764461 0.0235539
vt 0.4792819 0.0270093
vt 0.4758738 0.0270093
vt 0.4764461 0.0235539
vt 0.4758738 0.0270093
vt 0.4729907 0.0270093
vt 0.3789062 0.0944270
vt 0.3789062 0.1039320
vt 0.4960938 0.1039320
vt 0.3789062 0.0944270
vt 0.4960938 0.1039320
vt 0.4043052 0.0944270
vt 0.4043052 0.0944270
vt 0.4960938 0.1039320
vt 0.4960938 0.0944270
vt 0.3789062 0.0210680
vt 0.3789062 0.0259116
vt 0.4256809 0.0259116
vt 0.3789062 0.0210680
vt 0.4256809 0.0259116
vt 0.4960938 0.0259116
vt 0.3789062 0.0210680
vt 0.4960938 0.0259116
vt 0.4960938 0.0210680
vt 0.4826487 0.0259116
vt 0.4789320 0.0210680
vt 0.4694270 0.0250051
vt 0.4826487 0.0259116
vt 0.4694270 0.0250051
vt 0.4694270 0.0259117
vt 0.4694270 0.0250051
vt 0.4789320 0.0210680
vt 0.4694270 0.0137745
vt 0.4694270 0.0137745
vt 0.4789320 0.0210680
vt 0.4694270 0.0250051
vt 0.4694270 0.0250051
vt 0.4789320 0.0210680
vt 0.4826487 0.0259116
vt 0.4694270 0.0250051
vt 0.4826487 0.0259116
vt 0.4694270 0.0259117
vt 0.4958403 0.1148437
vt 0.4960938 0.1148437
vt 0.4958404 0.1210938
vt 0.4929740 0.1152344
vt 0.4873047 0.1148437
vt 0.4958403 0.1148437
vt 0.4497120 0.1148437
vt 0.4958403 0.1148437
vt 0.4958404 0.1210938
vt 0.4497120 0.1148437
vt 0.4958404 0.1210938
vt 0.4497120 0.1186242
vt 0.4497120 0.1186242
vt 0.4958404 0.1210938
vt 0.4527572 0.1210938
vt 0.3906250 0.1210938
vt 0.3906250 0.1148437
vt 0.4873047 0.1148437
vt 0.3906250 0.1210938
vt 0.4873047 0.1148437
vt 0.4929740 0.1152344
vt 0.4480032 0.1129192
vt 0.4929740 0.1152344
vt 0.4958403 0.1148437
vt 0.4480032 0.1129192
vt 0.4958403 0.1148437
vt 0.4497370 0.1126829
vt 0.4497370 0.1126829
vt 0.4958403 0.1148437
vt 0.4497370 0.1148437
vt 0.4960938 0.0948550
vt 0.4960938 0.1148437
vt 0.4960475 0.0954207
vt 0.4960475 0.0954207
vt 0.4960938 0.1148437
vt 0.4958403 0.1148437
vt 0.4960475 0.0954207
vt 0.4958403 0.1148437
vt 0.4958403 0.1025555
vt 0.4958404 0.0167125
vt 0.4958403 0.1148437
vt 0.4873047 0.1148437
vt 0.4958404 0.0167125
vt 0.4873047 0.1148437
vt 0.4952580 0.0172995
vt 0.4952580 0.0172995
vt 0.4873047 0.1148437
vt 0.4881398 0.0253148
vt 0.4958403 0.1025555
vt 0.4958403 0.1148437
vt 0.4823384 0.1027362
vt 0.4823384 0.1027362
vt 0.4958403 0.1148437
vt 0.4497120 0.1148437
vt 0.4823384 0.1027362
vt 0.4497120 0.1148437
vt 0.4497119 0.1027362
vt 0.4881398 0.0253148
vt 0.4873047 0.1148437
vt 0.4374182 0.0608252
vt 0.4374182 0.0608252
vt 0.4873047 0.1148437
vt 0.3906250 0.1148437
vt 0.4374182 0.0608252
vt 0.3906250 0.1148437
vt 0.3906250 0.0941337
vt 0.4497370 0.1148437
vt 0.4958403 0.1148437
vt 0.4497370 0.0734792
vt 0.4497370 0.0734792
vt 0.4958403 0.1148437
vt 0.4958404 0.0167125
vt 0.4497370 0.0734792
vt 0.4958404 0.0167125
vt 0.4497370 0.0167125
vt 0.4497370 0.0156250
vt 0.4958404 0.0156250
vt 0.4929740 0.1152344
vt 0.4497370 0.0156250
vt 0.4929740 0.1152344
vt 0.4480032 0.0758763
vt 0.4480032 0.0758763
vt 0.4929740 0.1152344
vt 0.4480032 0.1129192
vt 0.4958403 0.0085937
vt 0.4958404 0.0156250
vt 0.4960938 0.0138021
vt 0.4958404 0.0039062
vt 0.4958404 0.0101562
vt 0.4882812 0.0101563
vt 0.4958403 0.1148437
vt 0.4960938 0.1148437
vt 0.4958404 0.1210938
vt 0.4929740 0.1152344
vt 0.4873047 0.1148437
vt 0.4958403 0.1148437
vt 0.4508696 0.0144674
vt 0.4958404 0.0156250
vt 0.4497120 0.0134641
vt 0.4497120 0.0134641
vt 0.4958404 0.0156250
vt 0.4958403 0.0085937
vt 0.4497120 0.0134641
vt 0.4958403 0.0085937
vt 0.4497119 0.0092111
vt 0.4497370 0.1210938
vt 0.4958404 0.1210938
vt 0.4497370 0.1164634
vt 0.4497370 0.1164634
vt 0.4958404 0.1210938
vt 0.4958404 0.1093750
vt 0.4497370 0.1164634
vt 0.4958404 0.1093750
vt 0.4497370 0.1093750
vt 0.4958404 0.0156250
vt 0.4958404 0.1093750
vt 0.4960937 0.1093750
vt 0.4958404 0.0156250
vt 0.4960937 0.1093750
vt 0.4960938 0.0138021
vt 0.4497120 0.1148437
vt 0.4958403 0.1148437
vt 0.4958404 0.1210938
vt 0.4497120 0.1148437
vt 0.4958404 0.1210938
vt 0.4497120 0.1186242
vt 0.4497120 0.1186242
vt 0.4958404 0.1210938
vt 0.4527572 0.1210938
vt 0.3906250 0.1210938
vt 0.3906250 0.1148437
vt 0.4873047 0.1148437
vt 0.3906250 0.1210938
vt 0.4873047 0.1148437
vt 0.4929740 0.1152344
vt 0.4480032 0.1129192
vt 0.4929740 0.1152344
vt 0.4958403 0.1148437
vt 0.4480032 0.1129192
vt 0.4958403 0.1148437
vt 0.4497370 0.1126829
vt 0.4497370 0.1126829
vt 0.4958403 0.1148437
vt 0.4497370 0.1148437
vt 0.4958403 0.0085937
vt 0.4960938 0.0138021
vt 0.4960938 0.1148437
vt 0.4958403 0.0085937
vt 0.4960938 0.1148437
vt 0.4958403 0.1148437
vt 0.4958404 0.0101562
vt 0.4958403 0.1148437
vt 0.4873047 0.1148437
vt 0.4958404 0.0101562
vt 0.4873047 0.1148437
vt 0.4882812 0.0101563
vt 0.4497119 0.0092111
vt 0.4958403 0.0085937
vt 0.4958403 0.1148437
vt 0.4497119 0.0092111
vt 0.4958403 0.1148437
vt 0.4497119 0.0734792
vt 0.4497119 0.0734792
vt 0.4958403 0.1148437
vt 0.4497120 0.1148437
vt 0.4497370 0.1093750
vt 0.4958404 0.1093750
vt 0.4508696 0.0711745
vt 0.4508696 0.0711745
vt 0.4958404 0.1093750
vt 0.4958404 0.0156250
vt 0.4508696 0.0711745
vt 0.4958404 0.0156250
vt 0.4508696 0.0144674
vt 0.3906250 0.0101562
vt 0.4882812 0.0101563
vt 0.4873047 0.1148437
vt 0.3906250 0.0101562
vt 0.4873047 0.1148437
vt 0.3906250 0.1148437
vt 0.4497370 0.1148437
vt 0.4958403 0.1148437
vt 0.4497370 0.0734792
vt 0.4497370 0.0734792
vt 0.4958403 0.1148437
vt 0.4958404 0.0101562
vt 0.4497370 0.0734792
vt 0.4958404 0.0101562
vt 0.4497370 0.0101562
vt 0.4497370 0.0156250
vt 0.4958404 0.0156250
vt 0.4929740 0.1152344
vt 0.4497370 0.0156250
vt 0.4929740 0.1152344
vt 0.4480032 0.0758763
vt 0.4480032 0.0758763
vt 0.4929740 0.1152344
vt 0.4480032 0.1129192
vt 0.3789062 0.0927139
vt 0.3789062 0.1039320
vt 0.4445313 0.1039320
vt 0.3789062 0.0927139
vt 0.4445313 0.1039320
vt 0.3838651 0.0927139
vt 0.3838651 0.0927139
vt 0.4445313 0.1039320
vt 0.4445313 0.0927139
vt 0.3789062 0.0210680
vt 0.3789062 0.0278749
vt 0.4157171 0.0278749
vt 0.3789062 0.0210680
vt 0.4157171 0.0278749
vt 0.4445313 0.0278749
vt 0.3789062 0.0210680
vt 0.4445313 0.0278749
vt 0.4445313 0.0210680
vt 0.4677139 0.0124599
vt 0.4789320 0.0210680
vt 0.4766796 0.0233204
vt 0.4677139 0.0124599
vt 0.4766796 0.0233204
vt 0.4692080 0.0175871
vt 0.4677139 0.0124599
vt 0.4692080 0.0175871
vt 0.4677139 0.0139739
vt 0.4677139 0.0139739
vt 0.4692080 0.0175871
vt 0.4677139 0.0164407
vt 0.4789320 0.0210680
vt 0.4841552 0.0278749
vt 0.4801744 0.0278749
vt 0.4789320 0.0210680
vt 0.4801744 0.0278749
vt 0.4797518 0.0273242
vt 0.4789320 0.0210680
vt 0.4797518 0.0273242
vt 0.4766796 0.0233204
vt 0.4841552 0.0278749
vt 0.4789320 0.0210680
vt 0.4677138 0.0257147
vt 0.4841552 0.0278749
vt 0.4677138 0.0257147
vt 0.4677138 0.0278749
vt 0.4677138 0.0257147
vt 0.4789320 0.0210680
vt 0.4677139 0.0124599
vt 0.3824218 0.0065430
vt 0.3844727 0.0074219
vt 0.3833008 0.0058594
vt 0.4902344 0.0053711
vt 0.4902343 0.0085937
vt 0.4960938 0.0076823
vt 0.4902344 0.0039062
vt 0.4902344 0.0058594
vt 0.4929687 0.0058594
vt 0.4914063 0.0058594
vt 0.4960938 0.0058594
vt 0.4914063 0.0039062
vt 0.3833008 0.0058594
vt 0.3844727 0.0074219
vt 0.4902343 0.0085937
vt 0.3833008 0.0058594
vt 0.4902343 0.0085937
vt 0.4902344 0.0053711
vt 0.3824218 0.0065430
vt 0.3789062 0.1164063
vt 0.3847657 0.1164062
vt 0.3824218 0.0065430
vt 0.3847657 0.1164062
vt 0.3844727 0.0074219
vt 0.3847657 0.1164062
vt 0.3847656 0.1210937
vt 0.4902344 0.1210938
vt 0.3847657 0.1164062
vt 0.4902344 0.1210938
vt 0.4902343 0.1164062
vt 0.4902343 0.0085937
vt 0.4902343 0.1164062
vt 0.4960938 0.1164063
vt 0.4902343 0.0085937
vt 0.4960938 0.1164063
vt 0.4960938 0.0076823
vt 0.3824218 0.0065430
vt 0.3833008 0.0058594
vt 0.3833008 0.1062973
vt 0.3824218 0.0065430
vt 0.3833008 0.1062973
vt 0.3832011 0.1063748
vt 0.3824218 0.0065430
vt 0.3832011 0.1063748
vt 0.3834608 0.1063748
vt 0.4902344 0.0053711
vt 0.4960938 0.0076823
vt 0.4960938 0.1065040
vt 0.4902344 0.0053711
vt 0.4960938 0.1065040
vt 0.4954295 0.1062420
vt 0.4902344 0.0053711
vt 0.4954295 0.1062420
vt 0.4902344 0.1062420
vt 0.4902344 0.0058594
vt 0.4902344 0.1062973
vt 0.4923124 0.1062973
vt 0.4902344 0.0058594
vt 0.4923124 0.1062973
vt 0.4926224 0.1062973
vt 0.4902344 0.0058594
vt 0.4926224 0.1062973
vt 0.4929687 0.0058594
vt 0.4914063 0.0058594
vt 0.4914063 0.1062973
vt 0.4955624 0.1062973
vt 0.4914063 0.0058594
vt 0.4955624 0.1062973
vt 0.4960938 0.1062973
vt 0.4914063 0.0058594
vt 0.4960938 0.1062973
vt 0.4960938 0.0058594
vt 0.3833008 0.0058594
vt 0.4902344 0.0053711
vt 0.4902344 0.1062420
vt 0.3833008 0.0058594
vt 0.4902344 0.1062420
vt 0.4781108 0.1062973
vt 0.3833008 0.0058594
vt 0.4781108 0.1062973
vt 0.3833008 0.1062973
vt 0.3844727 0.0074219
vt 0.3847657 0.1164062
vt 0.4902343 0.1164062
vt 0.3844727 0.0074219
vt 0.4902343 0.1164062
vt 0.4902343 0.0085937
vt 0.3824218 0.0065430
vt 0.3834608 0.1063748
vt 0.4790502 0.1063748
vt 0.3824218 0.0065430
vt 0.4790502 0.1063748
vt 0.4914063 0.1062973
vt 0.3824218 0.0065430
vt 0.4914063 0.1062973
vt 0.4914063 0.0058594
vt 0.3835938 0.0058594
vt 0.4929687 0.0058594
vt 0.4926224 0.1062973
vt 0.3835938 0.0058594
vt 0.4926224 0.1062973
vt 0.4802220 0.1062973
vt 0.3835938 0.0058594
vt 0.4802220 0.1062973
vt 0.3835938 0.1062973
vt 0.3847657 0.0058594
vt 0.3847657 0.1062973
vt 0.4782769 0.1062973
vt 0.3847657 0.0058594
vt 0.4782769 0.1062973
vt 0.4902344 0.1062973
vt 0.3847657 0.0058594
vt 0.4902344 0.1062973
vt 0.4902344 0.0058594
vt 0.3813590 0.0152707
vt 0.3821766 0.0063590
vt 0.3813590 0.0179687
vt 0.4928234 0.0144531
vt 0.4928234 0.0071766
vt 0.4960938 0.0107740
vt 0.4928234 0.0039062
vt 0.4928234 0.0179687
vt 0.4939135 0.0179688
vt 0.4928234 0.0179687
vt 0.4960938 0.0179688
vt 0.4928234 0.0039062
vt 0.3821766 0.1070313
vt 0.3813590 0.1070312
vt 0.3821766 0.1210938
vt 0.4928234 0.1070313
vt 0.4960938 0.1070312
vt 0.4928234 0.1210938
vt 0.4928234 0.1194586
vt 0.4936410 0.1070313
vt 0.4928234 0.1070312
vt 0.4928234 0.1070312
vt 0.4928234 0.1210938
vt 0.4960938 0.1070312
vt 0.3813590 0.0179687
vt 0.3821766 0.0063590
vt 0.4928234 0.0071766
vt 0.3813590 0.0179687
vt 0.4928234 0.0071766
vt 0.4928234 0.0144531
vt 0.3813590 0.0152707
vt 0.3789062 0.1178234
vt 0.3821766 0.1178234
vt 0.3813590 0.0152707
vt 0.3821766 0.1178234
vt 0.3821766 0.0063590
vt 0.3821766 0.1178234
vt 0.3821766 0.1210938
vt 0.4928234 0.1210938
vt 0.3821766 0.1178234
vt 0.4928234 0.1210938
vt 0.4928234 0.1178234
vt 0.4928234 0.0071766
vt 0.4928234 0.1178234
vt 0.4960938 0.1178234
vt 0.4928234 0.0071766
vt 0.4960938 0.1178234
vt 0.4960938 0.0107740
vt 0.3821766 0.1070313
vt 0.3821766 0.1210938
vt 0.4928234 0.1210938
vt 0.3821766 0.1070313
vt 0.4928234 0.1210938
vt 0.4928234 0.1070312
vt 0.3813590 0.1070312
vt 0.4928234 0.1070313
vt 0.4928234 0.1210938
vt 0.3813590 0.1070312
vt 0.4928234 0.1210938
vt 0.3821766 0.1210938
vt 0.3821766 0.1210938
vt 0.3821766 0.1070312
vt 0.4936410 0.1070313
vt 0.3821766 0.1210938
vt 0.4936410 0.1070313
vt 0.4928234 0.1194586
vt 0.3821766 0.1178234
vt 0.4928234 0.1194586
vt 0.4928234 0.1070312
vt 0.3821766 0.1178234
vt 0.4928234 0.1070312
vt 0.3821766 0.1070313
vt 0.3813590 0.0152707
vt 0.3813590 0.0179687
vt 0.3813590 0.1070312
vt 0.3813590 0.0152707
vt 0.3813590 0.1070312
vt 0.3821766 0.1070313
vt 0.4928234 0.0144531
vt 0.4960938 0.0107740
vt 0.4960938 0.1070312
vt 0.4928234 0.0144531
vt 0.4960938 0.1070312
vt 0.4928234 0.1070313
vt 0.4928234 0.0179687
vt 0.4928234 0.1070312
vt 0.4936410 0.1070313
vt 0.4928234 0.0179687
vt 0.4936410 0.1070313
vt 0.4939135 0.0179688
vt 0.4928234 0.0179687
vt 0.4928234 0.1070312
vt 0.4960938 0.1070312
vt 0.4928234 0.0179687
vt 0.4960938 0.1070312
vt 0.4960938 0.0179688
vt 0.3813590 0.0179687
vt 0.4928234 0.0144531
vt 0.4928234 0.1070313
vt 0.3813590 0.0179687
vt 0.4928234 0.1070313
vt 0.3813590 0.1070312
vt 0.3821766 0.0063590
vt 0.3821766 0.1178234
vt 0.4928234 0.1178234
vt 0.3821766 0.0063590
vt 0.4928234 0.1178234
vt 0.4928234 0.0071766
vt 0.3813590 0.0152707
vt 0.3821766 0.1070313
vt 0.4928234 0.1070312
vt 0.3813590 0.0152707
vt 0.4928234 0.1070312
vt 0.4928234 0.0179687
vt 0.3821766 0.0179687
vt 0.4939135 0.0179688
vt 0.4936410 0.1070313
vt 0.3821766 0.0179687
vt 0.4936410 0.1070313
vt 0.3821766 0.1070312
vt 0.3821766 0.0179687
vt 0.3821766 0.1070313
vt 0.4928234 0.1070312
vt 0.3821766 0.0179687
vt 0.4928234 0.1070312
vt 0.4928234 0.0179687
vt 0.3821766 0.0071766
vt 0.4928234 0.0071766
vt 0.4928234 0.1194586
vt 0.3821766 0.0071766
vt 0.4928234 0.1194586
vt 0.3821766 0.1178234
vt 0.9960938 0.0039062
vt 0.9960938 0.1210938
vt 0.9375000 0.1210938
vt 0.9960938 0.0039062
vt 0.9375000 0.1210938
vt 0.9375000 0.0039062
vt 0.9082031 0.0039062
vt 0.9082031 0.1210938
vt 0.9667969 0.1210938
vt 0.9082031 0.0039062
vt 0.9667969 0.1210938
vt 0.9667969 0.0039062
vt 0.9375000 0.0039062
vt 0.9375000 0.1210938
vt 0.9960938 0.1210938
vt 0.9375000 0.0039062
vt 0.9960938 0.1210938
vt 0.9960938 0.0039062
vt 0.9375000 0.0039062
vt 0.8789062 0.0039062
vt 0.8789062 0.1210938
vt 0.9375000 0.0039062
vt 0.8789062 0.1210938
vt 0.9375000 0.1210938
vt 0.9082031 0.0039062
vt 0.9667969 0.0039062
vt 0.9667969 0.1210938
vt 0.9082031 0.0039062
vt 0.9667969 0.1210938
vt 0.9082031 0.1210938
vt 0.8789062 0.0039062
vt 0.9375000 0.0039062
vt 0.9375000 0.1210938
vt 0.8789062 0.0039062
vt 0.9375000 0.1210938
vt 0.8789062 0.1210938
vt 0.8789062 0.0625000
vt 0.9082031 0.1210938
vt 0.9667969 0.1210938
vt 0.8789062 0.0625000
vt 0.9667969 0.1210938
vt 0.9960938 0.0625000
vt 0.8789062 0.0625000
vt 0.9960938 0.0625000
vt 0.9667969 0.0039062
vt 0.8789062 0.0625000
vt 0.9667969 0.0039062
vt 0.9082031 0.0039062
vt 0.8789062 0.0625000
vt 0.9082031 0.0039062
vt 0.9667969 0.0039062
vt 0.8789062 0.0625000
vt 0.9667969 0.0039062
vt 0.9960938 0.0625000
vt 0.8789062 0.0625000
vt 0.9960938 0.0625000
vt 0.9667969 0.1210938
vt 0.8789062 0.0625000
vt 0.9667969 0.1210938
vt 0.9082031 0.1210938
vt 0.9960938 0.0039062
vt 0.9960938 0.1210938
vt 0.9375000 0.1210938
vt 0.9960938 0.0039062
vt 0.9375000 0.1210938
vt 0.9375000 0.0039062
vt 0.9082031 0.0039062
vt 0.9082031 0.1210938
vt 0.9667969 0.1210938
vt 0.9082031 0.0039062
vt 0.9667969 0.1210938
vt 0.9667969 0.0039062
vt 0.9375000 0.0039062
vt 0.9375000 0.1210938
vt 0.9960938 0.1210938
vt 0.9375000 0.0039062
vt 0.9960938 0.1210938
vt 0.9960938 0.0039062
vt 0.9375000 0.0039062
vt 0.8789062 0.0039062
vt 0.8789062 0.1210938
vt 0.9375000 0.0039062
vt 0.8789062 0.1210938
vt 0.9375000 0.1210938
vt 0.9082031 0.0039062
vt 0.9667969 0.0039062
vt 0.9667969 0.1210938
vt 0.9082031 0.0039062
vt 0.9667969 0.1210938
vt 0.9082031 0.1210938
vt 0.8789062 0.0039062
vt 0.9375000 0.0039062
vt 0.9375000 0.1210938
vt 0.8789062 0.0039062
vt 0.9375000 0.1210938
vt 0.8789062 0.1210938
vt 0.8789062 0.0625000
vt 0.9082031 0.1210938
vt 0.9667969 0.1210938
vt 0.8789062 0.0625000
vt 0.9667969 0.1210938
vt 0.9960938 0.0625000
vt 0.8789062 0.0625000
vt 0.9960938 0.0625000
vt 0.9667969 0.0039062
vt 0.8789062 0.0625000
vt 0.9667969 0.0039062
vt 0.9082031 0.0039062
vt 0.8789062 0.0625000
vt 0.9082031 0.0039062
vt 0.9667969 0.0039062
vt 0.8789062 0.0625000
vt 0.9667969 0.0039062
vt 0.9960938 0.0625000
vt 0.8789062 0.0625000
vt 0.9960938 0.0625000
vt 0.9667969 0.1210938
vt 0.8789062 0.0625000
vt 0.9667969 0.1210938
vt 0.9082031 0.1210938
vt 0.0941348 0.1340016
vt 0.1096271 0.1341830
vt 0.1094953 0.1343149
vt 0.0941348 0.1340016
vt 0.1094953 0.1343149
vt 0.0938216 0.1343149
vt 0.0938216 0.1343149
vt 0.1094953 0.1343149
vt 0.1094953 0.1330946
vt 0.0938216 0.1343149
vt 0.1094953 0.1330946
vt 0.0938216 0.1332760
vt 0.0938335 0.2460938
vt 0.1095003 0.2460938
vt 0.1095003 0.2455664
vt 0.0938335 0.2460938
vt 0.1095003 0.2455664
vt 0.0938335 0.2448407
vt 0.0938335 0.2448407
vt 0.1095003 0.2455664
vt 0.1095003 0.2406851
vt 0.0938335 0.2448407
vt 0.1095003 0.2406851
vt 0.0938335 0.2406851
vt 0.0938216 0.2406851
vt 0.1094953 0.2406851
vt 0.1094953 0.2455664
vt 0.0938216 0.2406851
vt 0.1094953 0.2455664
vt 0.0938216 0.2448407
vt 0.0938216 0.2448407
vt 0.1094953 0.2455664
vt 0.1098384 0.2460938
vt 0.0938216 0.2448407
vt 0.1098384 0.2460938
vt 0.0946369 0.2460938
vt 0.0928344 0.2427629
vt 0.1083267 0.2431257
vt 0.1095003 0.2406851
vt 0.0928344 0.2427629
vt 0.1095003 0.2406851
vt 0.0938335 0.2406851
vt 0.0938335 0.2406851
vt 0.1095003 0.2406851
vt 0.1095003 0.2406851
vt 0.0938335 0.2406851
vt 0.1095003 0.2406851
vt 0.0938335 0.2406851
vt 0.0938216 0.1332760
vt 0.1094953 0.1330946
vt 0.1094953 0.2303129
vt 0.0938216 0.1332760
vt 0.1094953 0.2303129
vt 0.0938216 0.2160420
vt 0.0938216 0.2160420
vt 0.1094953 0.2303129
vt 0.1094953 0.2406851
vt 0.0938216 0.2160420
vt 0.1094953 0.2406851
vt 0.0938216 0.2406851
vt 0.0938335 0.2406851
vt 0.1095003 0.2406851
vt 0.1096271 0.2301811
vt 0.0938335 0.2406851
vt 0.1096271 0.2301811
vt 0.0941348 0.2157287
vt 0.0941348 0.2157287
vt 0.1096271 0.2301811
vt 0.1096271 0.1341830
vt 0.0941348 0.2157287
vt 0.1096271 0.1341830
vt 0.0941348 0.1340016
vt 0.0938335 0.2406851
vt 0.1095003 0.2406851
vt 0.1095003 0.2303129
vt 0.0938335 0.2406851
vt 0.1095003 0.2303129
vt 0.0938335 0.2160420
vt 0.0938335 0.2160420
vt 0.1095003 0.2303129
vt 0.1095003 0.1343149
vt 0.0938335 0.2160420
vt 0.1095003 0.1343149
vt 0.0938335 0.1343149
vt 0.0938335 0.1343149
vt 0.1095003 0.1343149
vt 0.1083267 0.2327536
vt 0.0938335 0.1343149
vt 0.1083267 0.2327536
vt 0.0928344 0.2181198
vt 0.0928344 0.2181198
vt 0.1083267 0.2327536
vt 0.1083267 0.2431257
vt 0.0928344 0.2181198
vt 0.1083267 0.2431257
vt 0.0928344 0.2427629
vt 0.0944922 0.2460938
vt 0.1104883 0.2460938
vt 0.1104883 0.2460558
vt 0.0944922 0.2460938
vt 0.1104883 0.2460558
vt 0.0944922 0.2459976
vt 0.0944922 0.2459976
vt 0.1104883 0.2460558
vt 0.1104883 0.2456685
vt 0.0944922 0.2459976
vt 0.1104883 0.2456685
vt 0.0944922 0.2456685
vt 0.0944406 0.2458330
vt 0.1104276 0.2458621
vt 0.1104883 0.2268476
vt 0.0944406 0.2458330
vt 0.1104883 0.2268476
vt 0.0944922 0.2296765
vt 0.0944922 0.2296765
vt 0.1104883 0.2268476
vt 0.1104883 0.2250000
vt 0.0944922 0.2296765
vt 0.1104883 0.2250000
vt 0.0944922 0.2250000
vt 0.0944922 0.2456685
vt 0.1104883 0.2456685
vt 0.1104943 0.2352597
vt 0.0944922 0.2456685
vt 0.1104943 0.2352597
vt 0.0945073 0.2193221
vt 0.0945073 0.2193221
vt 0.1104943 0.2352597
vt 0.1104943 0.2089692
vt 0.0945073 0.2193221
vt 0.1104943 0.2089692
vt 0.0945073 0.2089546
vt 0.0944922 0.2250000
vt 0.1104883 0.2250000
vt 0.1104883 0.2182958
vt 0.0944922 0.2250000
vt 0.1104883 0.2182958
vt 0.0944922 0.2080305
vt 0.0944922 0.2080305
vt 0.1104883 0.2182958
vt 0.1104883 0.1500000
vt 0.0944922 0.2080305
vt 0.1104883 0.1500000
vt 0.0944922 0.1500000
vt 0.1104427 0.2091242
vt 0.1104276 0.2354628
vt 0.0944406 0.2195106
vt 0.1104427 0.2091242
vt 0.0944406 0.2195106
vt 0.0944466 0.2091242
vt 0.0944406 0.2195106
vt 0.1104276 0.2354628
vt 0.1104276 0.2458621
vt 0.0944406 0.2195106
vt 0.1104276 0.2458621
vt 0.0944406 0.2458330
vn 0.0000000 -0.8314696 -0.5555702
vn 0.0000000 -0.8314696 -0.5555702
vn 0.0000000 -0.8480689 -0.5298859
vn 0.0000000 -0.8314696 -0.5555702
vn 0.0000000 -0.8480689 -0.5298859
vn 0.0000000 -0.8480689 -0.5298859
vn 0.0000000 -0.8480689 -0.5298859
vn 0.0000000 -0.8314696 -0.5555702
vn 0.0000000 -0.8480689 -0.5298859
vn 0.0000000 -0.7071068 -0.7071068
vn 0.0000000 -0.7071068 -0.7071068
vn 0.0000000 -0.7602857 -0.6495889
vn 0.0000000 -0.7602857 -0.6495889
vn 0.0000000 -0.7071068 -0.7071068
vn 0.0000000 -0.8314696 -0.5555702
vn 0.0000000 -0.7602857 -0.6495889
vn 0.0000000 -0.8314696 -0.5555702
vn 0.0000000 -0.8314696 -0.5555702
vn 0.0000000 -0.6083013 -0.7937062
vn 0.0000000 -0.6189484 -0.7854317
vn 0.0000000 -0.6083013 -0.7937062
vn 0.0000000 -0.6189484 -0.7854317
vn 0.0000000 -0.6083013 -0.7937062
vn 0.0000000 -0.6083013 -0.7937062
vn 0.0000000 -0.6189484 -0.7854317
vn 0.0000000 -0.6083013 -0.7937062
vn 0.0000000 -0.7071068 -0.7071068
vn 0.0000000 -0.6189484 -0.7854317
vn 0.0000000 -0.7071068 -0.7071068
vn 0.0000000 -0.7071068 -0.7071068
vn 0.4983351 -0.7352627 -0.4594028
vn 0.4973837 -0.7213254 -0.4819742
vn 0.4973837 -0.7213254 -0.4819742
vn 0.4973837 -0.7213254 -0.4819742
vn 0.4973833 -0.6134366 -0.6134373
vn 0.4973833 -0.6134367 -0.6134372
vn 0.4973837 -0.7213254 -0.4819742
vn 0.4973833 -0.6134367 -0.6134372
vn 0.4976882 -0.7169886 -0.4880920
vn 0.4973837 -0.7213254 -0.4819742
vn 0.4976882 -0.7169886 -0.4880920
vn 0.4973837 -0.7213254 -0.4819742
vn 0.4973833 -0.6134366 -0.6134373
vn 0.4989835 -0.5271608 -0.6878350
vn 0.4991742 -0.5432808 -0.6750341
vn 0.4973833 -0.6134366 -0.6134373
vn 0.4991742 -0.5432808 -0.6750341
vn 0.4991376 -0.5609826 -0.6604242
vn 0.4973833 -0.6134366 -0.6134373
vn 0.4991376 -0.5609826 -0.6604242
vn 0.4973833 -0.6134367 -0.6134372
vn 0.9193192 -0.3252920 -0.2214437
vn 0.9192033 -0.2784467 -0.2784470
vn 0.9192033 -0.2784467 -0.2784470
vn 0.9193192 -0.3252920 -0.2214437
vn 0.9192033 -0.2784467 -0.2784470
vn 0.9197763 -0.2932008 -0.2608542
vn 0.9192033 -0.2784467 -0.2784470
vn 0.9198686 -0.2539258 -0.2989373
vn 0.9197001 -0.2644001 -0.2902486
vn 0.9192033 -0.2784467 -0.2784470
vn 0.9197001 -0.2644001 -0.2902486
vn 0.9192033 -0.2784467 -0.2784470
vn 0.0000000 -0.8364341 -0.5480675
vn 0.0000000 -0.7071067 -0.7071069
vn 0.0000000 -0.7071067 -0.7071069
vn 0.0000000 -0.8364341 -0.5480675
vn 0.0000000 -0.7071067 -0.7071069
vn 0.0000000 -0.8364341 -0.5480675
vn 0.0000000 -0.8364341 -0.5480675
vn 0.0000000 -0.7071067 -0.7071069
vn 0.0000000 -0.8364341 -0.5480675
vn 0.0000000 -0.7071067 -0.7071069
vn 0.0000000 -0.6296077 -0.7769132
vn 0.0000000 -0.6296077 -0.7769132
vn 0.0000000 -0.7071067 -0.7071069
vn 0.0000000 -0.6296077 -0.7769132
vn 0.0000000 -0.6296077 -0.7769132
vn 0.0000000 -0.7071067 -0.7071069
vn 0.0000000 -0.6296077 -0.7769132
vn 0.0000000 -0.7071067 -0.7071069
vn -1.0000000 0.0000000 -0.0000001
vn -1.0000000 0.0000000 -0.0000001
vn -1.0000000 0.0000000 -0.0000001
vn -1.0000000 0.0000000 -0.0000001
vn -1.0000000 0.0000000 -0.0000001
vn -1.0000000 0.0000000 -0.0000001
vn -1.0000000 0.0000000 -0.0000001
vn -1.0000000 0.0000000 -0.0000001
vn -1.0000000 0.0000000 -0.0000001
vn 1.0000000 0.0000000 0.0000001
vn 1.0000000 0.0000000 0.0000001
vn 1.0000000 0.0000000 0.0000001
vn 1.0000000 0.0000000 0.0000001
vn 1.0000000 0.0000000 0.0000001
vn 1.0000000 0.0000000 0.0000001
vn 1.0000000 0.0000000 0.0000001
vn 1.0000000 0.0000000 0.0000001
vn 1.0000000 0.0000000 0.0000001
vn 0.5773465 0.1277341 -0.8064459
vn 0.5773465 0.1277341 -0.8064459
vn 0.5773465 0.1277341 -0.8064459
vn 0.5773465 -0.8064476 -0.1277232
vn 0.5773465 -0.8064476 -0.1277232
vn 0.5773465 -0.8064476 -0.1277232
vn 0.0000000 0.1564344 -0.9876883
vn 0.0000000 0.1564344 -0.9876883
vn 0.0000000 0.1564344 -0.9876883
vn 0.0000000 0.1564344 -0.9876883
vn 0.0000000 0.1564344 -0.9876883
vn 0.0000000 0.1564344 -0.9876883
vn 0.0000000 0.1564344 -0.9876883
vn 0.0000000 0.1564344 -0.9876883
vn 0.0000000 0.1564344 -0.9876883
vn 0.7071056 -0.4156276 -0.5720624
vn 0.7071056 -0.4156276 -0.5720624
vn 0.7071056 -0.4156276 -0.5720624
vn 0.7071056 -0.4156276 -0.5720624
vn 0.7071056 -0.4156276 -0.5720624
vn 0.7071056 -0.4156276 -0.5720624
vn 0.0000000 -0.9876883 -0.1564346
vn 0.0000000 -0.9876883 -0.1564346
vn 0.0000000 -0.9876883 -0.1564346
vn 0.0000000 -0.9876883 -0.1564346
vn 0.0000000 -0.9876883 -0.1564346
vn 0.0000000 -0.9876883 -0.1564346
vn 0.0000000 -0.9876883 -0.1564346
vn 0.0000000 -0.9876883 -0.1564346
vn 0.0000000 -0.9876883 -0.1564346
vn 0.7070997 0.5720672 -0.4156311
vn 0.7070997 0.5720672 -0.4156311
vn 0.7070997 0.5720672 -0.4156311
vn 0.7070997 0.5720672 -0.4156311
vn 0.7070997 0.5720672 -0.4156311
vn 0.7070997 0.5720672 -0.4156311
vn 0.7070997 0.5720672 -0.4156311
vn 0.7070997 0.5720672 -0.4156311
vn 0.7070997 0.5720672 -0.4156311
vn 0.7070997 -0.5720672 0.4156311
vn 0.7070997 -0.5720672 0.4156311
vn 0.7070997 -0.5720672 0.4156311
vn 0.7070997 -0.5720672 0.4156311
vn 0.7070997 -0.5720672 0.4156311
vn 0.7070997 -0.5720672 0.4156311
vn 0.7070997 -0.5720672 0.4156311
vn 0.7070997 -0.5720672 0.4156311
vn 0.7070997 -0.5720672 0.4156311
vn 0.0000000 0.8090171 -0.5877852
vn 0.0000000 0.8090171 -0.5877852
vn 0.0000000 0.8090171 -0.5877852
vn 0.0000000 0.8090171 -0.5877852
vn 0.0000000 0.8090171 -0.5877852
vn 0.0000000 0.8090171 -0.5877852
vn 0.0000000 0.8090171 -0.5877852
vn 0.0000000 0.8090171 -0.5877852
vn 0.0000000 0.8090171 -0.5877852
vn 1.0000000 0.0000000 0.0000000
vn 1.0000000 0.0000000 0.0000000
vn 1.0000000 0.0000000 0.0000000
vn 1.0000000 0.0000000 0.0000000
vn 1.0000000 0.0000000 0.0000000
vn 1.0000000 0.0000000 0.0000000
vn 1.0000000 0.0000000 0.0000000
vn 1.0000000 0.0000000 0.0000000
vn 1.0000000 0.0000000 0.0000000
vn 0.0000000 -0.8090171 0.5877852
vn 0.0000000 -0.8090171 0.5877852
vn 0.0000000 -0.8090171 0.5877852
vn 0.0000000 -0.8090171 0.5877852
vn 0.0000000 -0.8090171 0.5877852
vn 0.0000000 -0.8090171 0.5877852
vn 0.0000000 -0.8090171 0.5877852
vn 0.0000000 -0.8090171 0.5877852
vn 0.0000000 -0.8090171 0.5877852
vn 0.0000000 -0.5877852 -0.8090171
vn 0.0000000 -0.5877852 -0.8090171
vn 0.0000000 -0.5877852 -0.8090171
vn 0.0000000 -0.5877852 -0.8090171
vn 0.0000000 -0.5877852 -0.8090171
vn 0.0000000 -0.5877852 -0.8090171
vn 0.0000000 -0.5877852 -0.8090171
vn 0.0000000 -0.5877852 -0.8090171
vn 0.0000000 -0.5877852 -0.8090171
vn 0.5773465 0.8064459 -0.1277341
vn 0.5773465 0.8064459 -0.1277341
vn 0.5773465 0.8064459 -0.1277341
vn 0.5773465 0.1277232 0.8064476
vn 0.5773465 0.1277232 0.8064476
vn 0.5773465 0.1277232 0.8064476
vn 0.5773465 -0.1277232 -0.8064476
vn 0.5773465 -0.1277232 -0.8064476
vn 0.5773465 -0.1277232 -0.8064476
vn 0.5773465 -0.8064459 0.1277341
vn 0.5773465 -0.8064459 0.1277341
vn 0.5773465 -0.8064459 0.1277341
vn 0.0000000 0.9876883 -0.1564345
vn 0.0000000 0.9876883 -0.1564345
vn 0.0000000 0.9876883 -0.1564345
vn 0.0000000 0.9876883 -0.1564345
vn 0.0000000 0.9876883 -0.1564345
vn 0.0000000 0.9876883 -0.1564345
vn 0.0000000 0.9876883 -0.1564345
vn 0.0000000 0.9876883 -0.1564345
vn 0.0000000 0.9876883 -0.1564345
vn 0.0000000 0.1564347 0.9876883
vn 0.0000000 0.1564347 0.9876883
vn 0.0000000 0.1564347 0.9876883
vn 0.0000000 0.1564347 0.9876883
vn 0.0000000 0.1564347 0.9876883
vn 0.0000000 0.1564347 0.9876883
vn 0.0000000 0.1564347 0.9876883
vn 0.0000000 0.1564347 0.9876883
vn 0.0000000 0.1564347 0.9876883
vn 0.7071056 0.5720624 0.4156276
vn 0.7071056 0.5720624 0.4156276
vn 0.7071056 0.5720624 0.4156276
vn 0.7071056 0.5720624 0.4156276
vn 0.7071056 0.5720624 0.4156276
vn 0.7071056 0.5720624 0.4156276
vn 0.0000000 -0.1564347 -0.9876883
vn 0.0000000 -0.1564347 -0.9876883
vn 0.0000000 -0.1564347 -0.9876883
vn 0.0000000 -0.1564347 -0.9876883
vn 0.0000000 -0.1564347 -0.9876883
vn 0.0000000 -0.1564347 -0.9876883
vn 0.0000000 -0.1564347 -0.9876883
vn 0.0000000 -0.1564347 -0.9876883
vn 0.0000000 -0.1564347 -0.9876883
vn 0.7071056 -0.5720624 -0.4156276
vn 0.7071056 -0.5720624 -0.4156276
vn 0.7071056 -0.5720624 -0.4156276
vn 0.7071056 -0.5720624 -0.4156276
vn 0.7071056 -0.5720624 -0.4156276
vn 0.7071056 -0.5720624 -0.4156276
vn 0.0000000 -0.9876883 0.1564345
vn 0.0000000 -0.9876883 0.1564345
vn 0.0000000 -0.9876883 0.1564345
vn 0.0000000 -0.9876883 0.1564345
vn 0.0000000 -0.9876883 0.1564345
vn 0.0000000 -0.9876883 0.1564345
vn 0.0000000 -0.9876883 0.1564345
vn 0.0000000 -0.9876883 0.1564345
vn 0.0000000 -0.9876883 0.1564345
vn 0.7070997 0.4156311 -0.5720672
vn 0.7070997 0.4156311 -0.5720672
vn 0.7070997 0.4156311 -0.5720672
vn 0.7070997 0.4156311 -0.5720672
vn 0.7070997 0.4156311 -0.5720672
vn 0.7070997 0.4156311 -0.5720672
vn 0.7070997 -0.4156311 0.5720672
vn 0.7070997 -0.4156311 0.5720672
vn 0.7070997 -0.4156311 0.5720672
vn 0.7070997 -0.4156311 0.5720672
vn 0.7070997 -0.4156311 0.5720672
vn 0.7070997 -0.4156311 0.5720672
vn 0.0000000 0.5877852 -0.8090171
vn 0.0000000 0.5877852 -0.8090171
vn 0.0000000 0.5877852 -0.8090171
vn 0.0000000 0.5877852 -0.8090171
vn 0.0000000 0.5877852 -0.8090171
vn 0.0000000 0.5877852 -0.8090171
vn 0.0000000 0.5877852 -0.8090171
vn 0.0000000 0.5877852 -0.8090171
vn 0.0000000 0.5877852 -0.8090171
vn 0.0000000 0.8090171 0.5877852
vn 0.0000000 0.8090171 0.5877852
vn 0.0000000 0.8090171 0.5877852
vn 0.0000000 0.8090171 0.5877852
vn 0.0000000 0.8090171 0.5877852
vn 0.0000000 0.8090171 0.5877852
vn 0.0000000 0.8090171 0.5877852
vn 0.0000000 0.8090171 0.5877852
vn 0.0000000 0.8090171 0.5877852
vn 1.0000000 0.0000000 0.0000000
vn 1.0000000 0.0000000 0.0000000
vn 1.0000000 0.0000000 0.0000000
vn 1.0000000 0.0000000 0.0000000
vn 1.0000000 0.0000000 0.0000000
vn 1.0000000 0.0000000 0.0000000
vn 0.0000000 -0.5877852 0.8090171
vn 0.0000000 -0.5877852 0.8090171
vn 0.0000000 -0.5877852 0.8090171
vn 0.0000000 -0.5877852 0.8090171
vn 0.0000000 -0.5877852 0.8090171
vn 0.0000000 -0.5877852 0.8090171
vn 0.0000000 -0.5877852 0.8090171
vn 0.0000000 -0.5877852 0.8090171
vn 0.0000000 -0.5877852 0.8090171
vn 0.0000000 -0.8090171 -0.5877852
vn 0.0000000 -0.8090171 -0.5877852
vn 0.0000000 -0.8090171 -0.5877852
vn 0.0000000 -0.8090171 -0.5877852
vn 0.0000000 -0.8090171 -0.5877852
vn 0.0000000 -0.8090171 -0.5877852
vn 0.0000000 -0.8090171 -0.5877852
vn 0.0000000 -0.8090171 -0.5877852
vn 0.0000000 -0.8090171 -0.5877852
vn 0.0000000 -0.8560568 -0.5168818
vn 0.0000000 -0.7071071 -0.7071065
vn 0.0000000 -0.7071071 -0.7071065
vn 0.0000000 -0.8560568 -0.5168818
vn 0.0000000 -0.7071071 -0.7071065
vn 0.0000000 -0.8560568 -0.5168818
vn 0.0000000 -0.8560568 -0.5168818
vn 0.0000000 -0.7071071 -0.7071065
vn 0.0000000 -0.8560568 -0.5168818
vn 0.0000000 -0.7071071 -0.7071065
vn 0.0000000 -0.5959576 -0.8030159
vn 0.0000000 -0.5959576 -0.8030159
vn 0.0000000 -0.7071071 -0.7071065
vn 0.0000000 -0.5959576 -0.8030159
vn 0.0000000 -0.5959576 -0.8030159
vn 0.0000000 -0.7071071 -0.7071065
vn 0.0000000 -0.5959576 -0.8030159
vn 0.0000000 -0.7071071 -0.7071065
vn 0.7507084 -0.5655401 -0.3414694
vn 0.7499258 -0.4677665 -0.4677668
vn 0.7499258 -0.4677665 -0.4677668
vn 0.7507084 -0.5655401 -0.3414694
vn 0.7499258 -0.4677665 -0.4677668
vn 0.7525859 -0.5343831 -0.3847715
vn 0.7507084 -0.5655401 -0.3414694
vn 0.7525859 -0.5343831 -0.3847715
vn 0.7513254 -0.5585699 -0.3514396
vn 0.7513254 -0.5585699 -0.3514396
vn 0.7525859 -0.5343831 -0.3847715
vn 0.7519792 -0.5490698 -0.3647597
vn 0.7499258 -0.4677665 -0.4677668
vn 0.7526950 -0.3923596 -0.5286815
vn 0.7526811 -0.4103999 -0.5148234
vn 0.7499258 -0.4677665 -0.4677668
vn 0.7526811 -0.4103999 -0.5148234
vn 0.7525857 -0.4165881 -0.5099698
vn 0.7499258 -0.4677665 -0.4677668
vn 0.7525857 -0.4165881 -0.5099698
vn 0.7499258 -0.4677665 -0.4677668
vn -1.0000000 0.0000000 0.0000000
vn -1.0000000 0.0000000 0.0000000
vn -1.0000000 0.0000000 0.0000000
vn -1.0000000 0.0000000 0.0000000
vn -1.0000000 0.0000000 0.0000000
vn -1.0000000 0.0000000 0.0000000
vn -1.0000000 0.0000000 0.0000000
vn -1.0000000 0.0000000 0.0000000
vn -1.0000000 0.0000000 0.0000000
vn -0.5773508 -0.5773493 0.5773508
vn -0.5773508 -0.5773493 0.5773508
vn -0.5773508 -0.5773493 0.5773508
vn 0.5773508 -0.5773493 0.5773508
vn 0.5773508 -0.5773493 0.5773508
vn 0.5773508 -0.5773493 0.5773508
vn 0.5773508 -0.5773493 -0.5773508
vn 0.5773508 -0.5773493 -0.5773508
vn 0.5773508 -0.5773493 -0.5773508
vn -0.5773508 -0.5773493 -0.5773508
vn -0.5773508 -0.5773493 -0.5773508
vn -0.5773508 -0.5773493 -0.5773508
vn 0.0000000 -0.7071074 0.7071062
vn 0.0000000 -0.7071074 0.7071062
vn 0.0000000 -0.7071074 0.7071062
vn 0.0000000 -0.7071074 0.7071062
vn 0.0000000 -0.7071074 0.7071062
vn 0.0000000 -0.7071074 0.7071062
vn -0.7071066 -0.7071069 0.0000000
vn -0.7071066 -0.7071069 0.0000000
vn -0.7071066 -0.7071069 0.0000000
vn -0.7071066 -0.7071069 0.0000000
vn -0.7071066 -0.7071069 0.0000000
vn -0.7071066 -0.7071069 0.0000000
vn 0.0000000 -0.7071074 -0.7071062
vn 0.0000000 -0.7071074 -0.7071062
vn 0.0000000 -0.7071074 -0.7071062
vn 0.0000000 -0.7071074 -0.7071062
vn 0.0000000 -0.7071074 -0.7071062
vn 0.0000000 -0.7071074 -0.7071062
vn 0.7071066 -0.7071069 0.0000000
vn 0.7071066 -0.7071069 0.0000000
vn 0.7071066 -0.7071069 0.0000000
vn 0.7071066 -0.7071069 0.0000000
vn 0.7071066 -0.7071069 0.0000000
vn 0.7071066 -0.7071069 0.0000000
vn -0.7071067 0.0000000 0.7071069
vn -0.7071067 0.0000000 0.7071069
vn -0.7071067 0.0000000 0.7071069
vn -0.7071067 0.0000000 0.7071069
vn -0.7071067 0.0000000 0.7071069
vn -0.7071067 0.0000000 0.7071069
vn -0.7071067 0.0000000 0.7071069
vn -0.7071067 0.0000000 0.7071069
vn -0.7071067 0.0000000 0.7071069
vn 0.7071067 0.0000000 0.7071069
vn 0.7071067 0.0000000 0.7071069
vn 0.7071067 0.0000000 0.7071069
vn 0.7071067 0.0000000 0.7071069
vn 0.7071067 0.0000000 0.7071069
vn 0.7071067 0.0000000 0.7071069
vn 0.7071067 0.0000000 0.7071069
vn 0.7071067 0.0000000 0.7071069
vn 0.7071067 0.0000000 0.7071069
vn 0.7071067 0.0000000 -0.7071069
vn 0.7071067 0.0000000 -0.7071069
vn 0.7071067 0.0000000 -0.7071069
vn 0.7071067 0.0000000 -0.7071069
vn 0.7071067 0.0000000 -0.7071069
vn 0.7071067 0.0000000 -0.7071069
vn 0.7071067 0.0000000 -0.7071069
vn 0.7071067 0.0000000 -0.7071069
vn 0.7071067 0.0000000 -0.7071069
vn -0.7071067 0.0000000 -0.7071069
vn -0.7071067 0.0000000 -0.7071069
vn -0.7071067 0.0000000 -0.7071069
vn -0.7071067 0.0000000 -0.7071069
vn -0.7071067 0.0000000 -0.7071069
vn -0.7071067 0.0000000 -0.7071069
vn -0.7071067 0.0000000 -0.7071069
vn -0.7071067 0.0000000 -0.7071069
vn -0.7071067 0.0000000 -0.7071069
vn 0.0000000 0.0000000 1.0000000
vn 0.0000000 0.0000000 1.0000000
vn 0.0000000 0.0000000 1.0000000
vn 0.0000000 0.0000000 1.0000000
vn 0.0000000 0.0000000 1.0000000
vn 0.0000000 0.0000000 1.0000000
vn 0.0000000 0.0000000 1.0000000
vn 0.0000000 0.0000000 1.0000000
vn 0.0000000 0.0000000 1.0000000
vn 0.0000000 -1.0000000 0.0000000
vn 0.0000000 -1.0000000 0.0000000
vn 0.0000000 -1.0000000 0.0000000
vn 0.0000000 -1.0000000 0.0000000
vn 0.0000000 -1.0000000 0.0000000
vn 0.0000000 -1.0000000 0.0000000
vn -1.0000000 0.0000000 0.0000000
vn -1.0000000 0.0000000 0.0000000
vn -1.0000000 0.0000000 0.0000000
vn -1.0000000 0.0000000 0.0000000
vn -1.0000000 0.0000000 0.0000000
vn -1.0000000 0.0000000 0.0000000
vn -1.0000000 0.0000000 0.0000000
vn -1.0000000 0.0000000 0.0000000
vn -1.0000000 0.0000000 0.0000000
vn 1.0000000 0.0000000 0.0000000
vn 1.0000000 0.0000000 0.0000000
vn 1.0000000 0.0000000 0.0000000
vn 1.0000000 0.0000000 0.0000000
vn 1.0000000 0.0000000 0.0000000
vn 1.0000000 0.0000000 0.0000000
vn 1.0000000 0.0000000 0.0000000
vn 1.0000000 0.0000000 0.0000000
vn 1.0000000 0.0000000 0.0000000
vn 0.0000000 0.0000000 -1.0000000
vn 0.0000000 0.0000000 -1.0000000
vn 0.0000000 0.0000000 -1.0000000
vn 0.0000000 0.0000000 -1.0000000
vn 0.0000000 0.0000000 -1.0000000
vn 0.0000000 0.0000000 -1.0000000
vn 0.0000000 0.0000000 -1.0000000
vn 0.0000000 0.0000000 -1.0000000
vn 0.0000000 0.0000000 -1.0000000
vn -0.5773510 -0.5773499 0.5773499
vn -0.5773510 -0.5773499 0.5773499
vn -0.5773510 -0.5773499 0.5773499
vn 0.5773510 -0.5773499 0.5773499
vn 0.5773510 -0.5773499 0.5773499
vn 0.5773510 -0.5773499 0.5773499
vn 0.5773510 -0.5773499 -0.5773499
vn 0.5773510 -0.5773499 -0.5773499
vn 0.5773510 -0.5773499 -0.5773499
vn -0.5773510 -0.5773499 -0.5773499
vn -0.5773510 -0.5773499 -0.5773499
vn -0.5773510 -0.5773499 -0.5773499
vn -0.5773510 0.5773499 0.5773499
vn -0.5773510 0.5773499 0.5773499
vn -0.5773510 0.5773499 0.5773499
vn 0.5773510 0.5773499 0.5773499
vn 0.5773510 0.5773499 0.5773499
vn 0.5773510 0.5773499 0.5773499
vn 0.5773510 0.5773499 -0.5773499
vn 0.5773510 0.5773499 -0.5773499
vn 0.5773510 0.5773499 -0.5773499
vn -0.5773510 0.5773499 -0.5773499
vn -0.5773510 0.5773499 -0.5773499
vn -0.5773510 0.5773499 -0.5773499
vn 0.0000000 -0.7071065 0.7071071
vn 0.0000000 -0.7071065 0.7071071
vn 0.0000000 -0.7071065 0.7071071
vn 0.0000000 -0.7071065 0.7071071
vn 0.0000000 -0.7071065 0.7071071
vn 0.0000000 -0.7071065 0.7071071
vn -0.7071068 -0.7071067 0.0000000
vn -0.7071068 -0.7071067 0.0000000
vn -0.7071068 -0.7071067 0.0000000
vn -0.7071068 -0.7071067 0.0000000
vn -0.7071068 -0.7071067 0.0000000
vn -0.7071068 -0.7071067 0.0000000
vn 0.0000000 -0.7071065 -0.7071071
vn 0.0000000 -0.7071065 -0.7071071
vn 0.0000000 -0.7071065 -0.7071071
vn 0.0000000 -0.7071065 -0.7071071
vn 0.0000000 -0.7071065 -0.7071071
vn 0.0000000 -0.7071065 -0.7071071
vn 0.7071068 -0.7071067 0.0000000
vn 0.7071068 -0.7071067 0.0000000
vn 0.7071068 -0.7071067 0.0000000
vn 0.7071068 -0.7071067 0.0000000
vn 0.7071068 -0.7071067 0.0000000
vn 0.7071068 -0.7071067 0.0000000
vn -0.7071068 0.7071067 0.0000000
vn -0.7071068 0.7071067 0.0000000
vn -0.7071068 0.7071067 0.0000000
vn -0.7071068 0.7071067 0.0000000
vn -0.7071068 0.7071067 0.0000000
vn -0.7071068 0.7071067 0.0000000
vn 0.0000000 0.7071065 0.7071071
vn 0.0000000 0.7071065 0.7071071
vn 0.0000000 0.7071065 0.7071071
vn 0.0000000 0.7071065 0.7071071
vn 0.0000000 0.7071065 0.7071071
vn 0.0000000 0.7071065 0.7071071
vn 0.7071068 0.7071067 0.0000000
vn 0.7071068 0.7071067 0.0000000
vn 0.7071068 0.7071067 0.0000000
vn 0.7071068 0.7071067 0.0000000
vn 0.7071068 0.7071067 0.0000000
vn 0.7071068 0.7071067 0.0000000
vn 0.0000000 0.7071065 -0.7071071
vn 0.0000000 0.7071065 -0.7071071
vn 0.0000000 0.7071065 -0.7071071
vn 0.0000000 0.7071065 -0.7071071
vn 0.0000000 0.7071065 -0.7071071
vn 0.0000000 0.7071065 -0.7071071
vn -0.7071066 0.0000000 0.7071069
vn -0.7071066 0.0000000 0.7071069
vn -0.7071066 0.0000000 0.7071069
vn -0.7071066 0.0000000 0.7071069
vn -0.7071066 0.0000000 0.7071069
vn -0.7071066 0.0000000 0.7071069
vn 0.7071066 0.0000000 0.7071069
vn 0.7071066 0.0000000 0.7071069
vn 0.7071066 0.0000000 0.7071069
vn 0.7071066 0.0000000 0.7071069
vn 0.7071066 0.0000000 0.7071069
vn 0.7071066 0.0000000 0.7071069
vn 0.7071066 0.0000000 -0.7071069
vn 0.7071066 0.0000000 -0.7071069
vn 0.7071066 0.0000000 -0.7071069
vn 0.7071066 0.0000000 -0.7071069
vn 0.7071066 0.0000000 -0.7071069
vn 0.7071066 0.0000000 -0.7071069
vn -0.7071066 0.0000000 -0.7071069
vn -0.7071066 0.0000000 -0.7071069
vn -0.7071066 0.0000000 -0.7071069
vn -0.7071066 0.0000000 -0.7071069
vn -0.7071066 0.0000000 -0.7071069
vn -0.7071066 0.0000000 -0.7071069
vn 0.0000000 0.0000000 1.0000000
vn 0.0000000 0.0000000 1.0000000
vn 0.0000000 0.0000000 1.0000000
vn 0.0000000 0.0000000 1.0000000
vn 0.0000000 0.0000000 1.0000000
vn 0.0000000 0.0000000 1.0000000
vn 0.0000000 -1.0000000 0.0000000
vn 0.0000000 -1.0000000 0.0000000
vn 0.0000000 -1.0000000 0.0000000
vn 0.0000000 -1.0000000 0.0000000
vn 0.0000000 -1.0000000 0.0000000
vn 0.0000000 -1.0000000 0.0000000
vn -1.0000000 0.0000000 0.0000000
vn -1.0000000 0.0000000 0.0000000
vn -1.0000000 0.0000000 0.0000000
vn -1.0000000 0.0000000 0.0000000
vn -1.0000000 0.0000000 0.0000000
vn -1.0000000 0.0000000 0.0000000
vn 1.0000000 0.0000000 0.0000000
vn 1.0000000 0.0000000 0.0000000
vn 1.0000000 0.0000000 0.0000000
vn 1.0000000 0.0000000 0.0000000
vn 1.0000000 0.0000000 0.0000000
vn 1.0000000 0.0000000 0.0000000
vn 0.0000000 0.0000000 -1.0000000
vn 0.0000000 0.0000000 -1.0000000
vn 0.0000000 0.0000000 -1.0000000
vn 0.0000000 0.0000000 -1.0000000
vn 0.0000000 0.0000000 -1.0000000
vn 0.0000000 0.0000000 -1.0000000
vn 0.0000000 1.0000000 0.0000000
vn 0.0000000 1.0000000 0.0000000
vn 0.0000000 1.0000000 0.0000000
vn 0.0000000 1.0000000 0.0000000
vn 0.0000000 1.0000000 0.0000000
vn 0.0000000 1.0000000 0.0000000
vn -0.8660254 0.0000000 0.5000001
vn -0.8660254 0.0000000 0.5000001
vn -0.8660254 0.0000000 0.5000001
vn -0.8660254 0.0000000 0.5000001
vn -0.8660254 0.0000000 0.5000001
vn -0.8660254 0.0000000 0.5000001
vn 0.0000002 0.0000000 1.0000000
vn 0.0000002 0.0000000 1.0000000
vn 0.0000002 0.0000000 1.0000000
vn 0.0000002 0.0000000 1.0000000
vn 0.0000002 0.0000000 1.0000000
vn 0.0000002 0.0000000 1.0000000
vn 0.8660255 0.0000000 0.4999999
vn 0.8660255 0.0000000 0.4999999
vn 0.8660255 0.0000000 0.4999999
vn 0.8660255 0.0000000 0.4999999
vn 0.8660255 0.0000000 0.4999999
vn 0.8660255 0.0000000 0.4999999
vn 0.8660254 0.0000000 -0.5000001
vn 0.8660254 0.0000000 -0.5000001
vn 0.8660254 0.0000000 -0.5000001
vn 0.8660254 0.0000000 -0.5000001
vn 0.8660254 0.0000000 -0.5000001
vn 0.8660254 0.0000000 -0.5000001
vn -0.0000002 0.0000000 -1.0000000
vn -0.0000002 0.0000000 -1.0000000
vn -0.0000002 0.0000000 -1.0000000
vn -0.0000002 0.0000000 -1.0000000
vn -0.0000002 0.0000000 -1.0000000
vn -0.0000002 0.0000000 -1.0000000
vn -0.8660255 0.0000000 -0.4999999
vn -0.8660255 0.0000000 -0.4999999
vn -0.8660255 0.0000000 -0.4999999
vn -0.8660255 0.0000000 -0.4999999
vn -0.8660255 0.0000000 -0.4999999
vn -0.8660255 0.0000000 -0.4999999
vn 0.0000000 -1.0000000 0.0000000
vn 0.0000000 -1.0000000 0.0000000
vn 0.0000000 -1.0000000 0.0000000
vn 0.0000000 -1.0000000 0.0000000
vn 0.0000000 -1.0000000 0.0000000
vn 0.0000000 -1.0000000 0.0000000
vn 0.0000000 -1.0000000 0.0000000
vn 0.0000000 -1.0000000 0.0000000
vn 0.0000000 -1.0000000 0.0000000
vn 0.0000000 -1.0000000 0.0000000
vn 0.0000000 -1.0000000 0.0000000
vn 0.0000000 -1.0000000 0.0000000
vn 0.0000000 1.0000000 0.0000000
vn 0.0000000 1.0000000 0.0000000
vn 0.0000000 1.0000000 0.0000000
vn 0.0000000 1.0000000 0.0000000
vn 0.0000000 1.0000000 0.0000000
vn 0.0000000 1.0000000 0.0000000
vn 0.0000000 1.0000000 0.0000000
vn 0.0000000 1.0000000 0.0000000
vn 0.0000000 1.0000000 0.0000000
vn 0.0000000 1.0000000 0.0000000
vn 0.0000000 1.0000000 0.0000000
vn 0.0000000 1.0000000 0.0000000
vn -0.8660254 0.0000000 0.5000001
vn -0.8660254 0.0000000 0.5000001
vn -0.8660254 0.0000000 0.5000001
vn -0.8660254 0.0000000 0.5000001
vn -0.8660254 0.0000000 0.5000001
vn -0.8660254 0.0000000 0.5000001
vn 0.0000002 0.0000000 1.0000000
vn 0.0000002 0.0000000 1.0000000
vn 0.0000002 0.0000000 1.0000000
vn 0.0000002 0.0000000 1.0000000
vn 0.0000002 0.0000000 1.0000000
vn 0.0000002 0.0000000 1.0000000
vn 0.8660255 0.0000000 0.4999999
vn 0.8660255 0.0000000 0.4999999
vn 0.8660255 0.0000000 0.4999999
vn 0.8660255 0.0000000 0.4999999
vn 0.8660255 0.0000000 0.4999999
vn 0.8660255 0.0000000 0.4999999
vn 0.8660254 0.0000000 -0.5000001
vn 0.8660254 0.0000000 -0.5000001
vn 0.8660254 0.0000000 -0.5000001
vn 0.8660254 0.0000000 -0.5000001
vn 0.8660254 0.0000000 -0.5000001
vn 0.8660254 0.0000000 -0.5000001
vn -0.0000002 0.0000000 -1.0000000
vn -0.0000002 0.0000000 -1.0000000
vn -0.0000002 0.0000000 -1.0000000
vn -0.0000002 0.0000000 -1.0000000
vn -0.0000002 0.0000000 -1.0000000
vn -0.0000002 0.0000000 -1.0000000
vn -0.8660255 0.0000000 -0.4999999
vn -0.8660255 0.0000000 -0.4999999
vn -0.8660255 0.0000000 -0.4999999
vn -0.8660255 0.0000000 -0.4999999
vn -0.8660255 0.0000000 -0.4999999
vn -0.8660255 0.0000000 -0.4999999
vn 0.0000000 -1.0000000 0.0000000
vn 0.0000000 -1.0000000 0.0000000
vn 0.0000000 -1.0000000 0.0000000
vn 0.0000000 -1.0000000 0.0000000
vn 0.0000000 -1.0000000 0.0000000
vn 0.0000000 -1.0000000 0.0000000
vn 0.0000000 -1.0000000 0.0000000
vn 0.0000000 -1.0000000 0.0000000
vn 0.0000000 -1.0000000 0.0000000
vn 0.0000000 -1.0000000 0.0000000
vn 0.0000000 -1.0000000 0.0000000
vn 0.0000000 -1.0000000 0.0000000
vn 0.0000000 1.0000000 0.0000000
vn 0.0000000 1.0000000 0.0000000
vn 0.0000000 1.0000000 0.0000000
vn 0.0000000 1.0000000 0.0000000
vn 0.0000000 1.0000000 0.0000000
vn 0.0000000 1.0000000 0.0000000
vn 0.0000000 1.0000000 0.0000000
vn 0.0000000 1.0000000 0.0000000
vn 0.0000000 1.0000000 0.0000000
vn 0.0000000 1.0000000 0.0000000
vn 0.0000000 1.0000000 0.0000000
vn 0.0000000 1.0000000 0.0000000
vn 0.0000000 -0.7071068 0.7071067
vn 0.0000000 -0.7071068 0.7071067
vn 0.0000000 -0.7071068 0.7071067
vn 0.0000000 -0.7071068 0.7071067
vn 0.0000000 -0.7071068 0.7071067
vn 0.0000000 -0.7071068 0.7071067
vn 0.0000000 -0.7071068 0.7071067
vn 0.0000000 -0.7071068 0.7071067
vn 0.0000000 -0.7071068 0.7071067
vn 0.0000000 -0.7071068 0.7071067
vn 0.0000000 -0.7071068 0.7071067
vn 0.0000000 -0.7071068 0.7071067
vn 0.0000000 -0.7071068 -0.7071067
vn 0.0000000 -0.7071068 -0.7071067
vn 0.0000000 -0.7071068 -0.7071067
vn 0.0000000 -0.7071068 -0.7071067
vn 0.0000000 -0.7071068 -0.7071067
vn 0.0000000 -0.7071068 -0.7071067
vn 0.0000000 -0.7071068 -0.7071067
vn 0.0000000 -0.7071068 -0.7071067
vn 0.0000000 -0.7071068 -0.7071067
vn 0.0000000 -0.7071068 -0.7071067
vn 0.0000000 -0.7071068 -0.7071067
vn 0.0000000 -0.7071068 -0.7071067
vn 0.0000000 0.7071068 0.7071067
vn 0.0000000 0.7071068 0.7071067
vn 0.0000000 0.7071068 0.7071067
vn 0.0000000 0.7071068 0.7071067
vn 0.0000000 0.7071068 0.7071067
vn 0.0000000 0.7071068 0.7071067
vn 0.0000000 0.7071068 0.7071067
vn 0.0000000 0.7071068 0.7071067
vn 0.0000000 0.7071068 0.7071067
vn 0.0000000 0.7071068 0.7071067
vn 0.0000000 0.7071068 0.7071067
vn 0.0000000 0.7071068 0.7071067
vn 0.0000000 0.7071068 -0.7071067
vn 0.0000000 0.7071068 -0.7071067
vn 0.0000000 0.7071068 -0.7071067
vn 0.0000000 0.7071068 -0.7071067
vn 0.0000000 0.7071068 -0.7071067
vn 0.0000000 0.7071068 -0.7071067
vn 0.0000000 0.7071068 -0.7071067
vn 0.0000000 0.7071068 -0.7071067
vn 0.0000000 0.7071068 -0.7071067
vn 0.0000000 0.7071068 -0.7071067
vn 0.0000000 0.7071068 -0.7071067
vn 0.0000000 0.7071068 -0.7071067
vn 0.0000000 0.0000000 1.0000000
vn 0.0000000 0.0000000 1.0000000
vn 0.0000000 0.0000000 1.0000000
vn 0.0000000 0.0000000 1.0000000
vn 0.0000000 0.0000000 1.0000000
vn 0.0000000 0.0000000 1.0000000
vn 0.0000000 0.0000000 1.0000000
vn 0.0000000 0.0000000 1.0000000
vn 0.0000000 0.0000000 1.0000000
vn 0.0000000 0.0000000 1.0000000
vn 0.0000000 0.0000000 1.0000000
vn 0.0000000 0.0000000 1.0000000
vn 0.0000000 -1.0000000 0.0000000
vn 0.0000000 -1.0000000 0.0000000
vn 0.0000000 -1.0000000 0.0000000
vn 0.0000000 -1.0000000 0.0000000
vn 0.0000000 -1.0000000 0.0000000
vn 0.0000000 -1.0000000 0.0000000
vn 0.0000000 -1.0000000 0.0000000
vn 0.0000000 -1.0000000 0.0000000
vn 0.0000000 -1.0000000 0.0000000
vn 0.0000000 -1.0000000 0.0000000
vn 0.0000000 -1.0000000 0.0000000
vn 0.0000000 -1.0000000 0.0000000
vn 0.0000000 0.0000000 -1.0000000
vn 0.0000000 0.0000000 -1.0000000
vn 0.0000000 0.0000000 -1.0000000
vn 0.0000000 0.0000000 -1.0000000
vn 0.0000000 0.0000000 -1.0000000
vn 0.0000000 0.0000000 -1.0000000
vn 0.0000000 0.0000000 -1.0000000
vn 0.0000000 0.0000000 -1.0000000
vn 0.0000000 0.0000000 -1.0000000
vn 0.0000000 0.0000000 -1.0000000
vn 0.0000000 0.0000000 -1.0000000
vn 0.0000000 0.0000000 -1.0000000
vn 0.0000000 1.0000000 0.0000000
vn 0.0000000 1.0000000 0.0000000
vn 0.0000000 1.0000000 0.0000000
vn 0.0000000 1.0000000 0.0000000
vn 0.0000000 1.0000000 0.0000000
vn 0.0000000 1.0000000 0.0000000
vn 0.0000000 1.0000000 0.0000000
vn 0.0000000 1.0000000 0.0000000
vn 0.0000000 1.0000000 0.0000000
vn 0.0000000 1.0000000 0.0000000
vn 0.0000000 1.0000000 0.0000000
vn 0.0000000 1.0000000 0.0000000
vn 0.0000000 -0.7071070 -0.7071065
vn 0.0000000 -0.7071070 -0.7071065
vn 0.0000000 -0.7071070 -0.7071065
vn 0.0000000 -0.7071070 -0.7071065
vn 0.0000000 -0.7071070 -0.7071065
vn 0.0000000 -0.7071070 -0.7071065
vn 0.0000000 -0.7071070 -0.7071065
vn 0.0000000 -0.7071070 -0.7071065
vn 0.0000000 -0.7071070 -0.7071065
vn 0.0000000 -0.7071070 -0.7071065
vn 0.0000000 -0.7071070 -0.7071065
vn 0.0000000 -0.7071070 -0.7071065
vn 0.0000000 0.7071070 -0.7071065
vn 0.0000000 0.7071070 -0.7071065
vn 0.0000000 0.7071070 -0.7071065
vn 0.0000000 0.7071070 -0.7071065
vn 0.0000000 0.7071070 -0.7071065
vn 0.0000000 0.7071070 -0.7071065
vn 0.0000000 0.7071070 -0.7071065
vn 0.0000000 0.7071070 -0.7071065
vn 0.0000000 0.7071070 -0.7071065
vn 0.0000000 0.7071070 -0.7071065
vn 0.0000000 0.7071070 -0.7071065
vn 0.0000000 0.7071070 -0.7071065
vn 0.0000000 -1.0000000 0.0000000
vn 0.0000000 -1.0000000 0.0000000
vn 0.0000000 -1.0000000 0.0000000
vn 0.0000000 -1.0000000 0.0000000
vn 0.0000000 -1.0000000 0.0000000
vn 0.0000000 -1.0000000 0.0000000
vn 0.0000000 -1.0000000 0.0000000
vn 0.0000000 -1.0000000 0.0000000
vn 0.0000000 -1.0000000 0.0000000
vn 0.0000000 -1.0000000 0.0000000
vn 0.0000000 -1.0000000 0.0000000
vn 0.0000000 -1.0000000 0.0000000
vn 0.0000000 0.0000000 -1.0000000
vn 0.0000000 0.0000000 -1.0000000
vn 0.0000000 0.0000000 -1.0000000
vn 0.0000000 0.0000000 -1.0000000
vn 0.0000000 0.0000000 -1.0000000
vn 0.0000000 0.0000000 -1.0000000
vn 0.0000000 0.0000000 -1.0000000
vn 0.0000000 0.0000000 -1.0000000
vn 0.0000000 0.0000000 -1.0000000
vn 0.0000000 0.0000000 -1.0000000
vn 0.0000000 0.0000000 -1.0000000
vn 0.0000000 0.0000000 -1.0000000
vn 0.0000000 1.0000000 0.0000000
vn 0.0000000 1.0000000 0.0000000
vn 0.0000000 1.0000000 0.0000000
vn 0.0000000 1.0000000 0.0000000
vn 0.0000000 1.0000000 0.0000000
vn 0.0000000 1.0000000 0.0000000
vn 0.0000000 1.0000000 0.0000000
vn 0.0000000 1.0000000 0.0000000
vn 0.0000000 1.0000000 0.0000000
vn 0.0000000 1.0000000 0.0000000
vn 0.0000000 1.0000000 0.0000000
vn 0.0000000 1.0000000 0.0000000
f 1/1/1 2/2/2 3/3/3
f 4/4/4 5/5/5 6/6/6
f 7/7/7 8/8/8 9/9/9
f 10/10/10 11/11/11 12/12/12
f 13/13/13 14/14/14 15/15/15
f 16/16/16 17/17/17 18/18/18
f 19/19/19 20/20/20 21/21/21
f 22/22/22 23/23/23 24/24/24
f 25/25/25 26/26/26 27/27/27
f 28/28/28 29/29/29 30/30/30
f 31/31/31 32/32/32 33/33/33
f 34/34/34 35/35/35 36/36/36
f 37/37/37 38/38/38 39/39/39
f 40/40/40 41/41/41 42/42/42
f 43/43/43 44/44/44 45/45/45
f 46/46/46 47/47/47 48/48/48
f 49/49/49 50/50/50 51/51/51
f 52/52/52 53/53/53 54/54/54
f 55/55/55 56/56/56 57/57/57
f 58/58/58 59/59/59 60/60/60
f 61/61/61 62/62/62 63/63/63
f 64/64/64 65/65/65 66/66/66
f 67/67/67 68/68/68 69/69/69
f 70/70/70 71/71/71 72/72/72
f 73/73/73 74/74/74 75/75/75
f 76/76/76 77/77/77 78/78/78
f 79/79/79 80/80/80 81/81/81
f 82/82/82 83/83/83 84/84/84
f 85/85/85 86/86/86 87/87/87
f 88/88/88 89/89/89 90/90/90
f 91/91/91 92/92/92 93/93/93
f 94/94/94 95/95/95 96/96/96
f 97/97/97 98/98/98 99/99/99
f 100/100/100 101/101/101 102/102/102
f 103/103/103 104/104/104 105/105/105
f 106/106/106 107/107/107 108/108/108
f 109/109/109 110/110/110 111/111/111
f 112/112/112 113/113/113 114/114/114
f 115/115/115 116/116/116 117/117/117
f 118/118/118 119/119/119 120/120/120
f 121/121/121 122/122/122 123/123/123
f 124/124/124 125/125/125 126/126/126
f 127/127/127 128/128/128 129/129/129
f 130/130/130 131/131/131 132/132/132
f 133/133/133 134/134/134 135/135/135
f 136/136/136 137/137/137 138/138/138
f 139/139/139 140/140/140 141/141/141
f 142/142/142 143/143/143 144/144/144
f 145/145/145 146/146/146 147/147/147
f 148/148/148 149/149/149 150/150/150
f 151/151/151 152/152/152 153/153/153
f 154/154/154 155/155/155 156/156/156
f 157/157/157 158/158/158 159/159/159
f 160/160/160 161/161/161 162/162/162
f 163/163/163 164/164/164 165/165/165
f 166/166/166 167/167/167 168/168/168
f 169/169/169 170/170/170 171/171/171
f 172/172/172 173/173/173 174/174/174
f 175/175/175 176/176/176 177/177/177
f 178/178/178 179/179/179 180/180/180
f 181/181/181 182/182/182 183/183/183
f 184/184/184 185/185/185 186/186/186
f 187/187/187 188/188/188 189/189/189
f 190/190/190 191/191/191 192/192/192
f 193/193/193 194/194/194 195/195/195
f 196/196/196 197/197/197 198/198/198
f 199/199/199 200/200/200 201/201/201
f 202/202/202 203/203/203 204/204/204
f 205/205/205 206/206/206 207/207/207
f 208/208/208 209/209/209 210/210/210
f 211/211/211 212/212/212 213/213/213
f 214/214/214 215/215/215 216/216/216
f 217/217/217 218/218/218 219/219/219
f 220/220/220 221/221/221 222/222/222
f 223/223/223 224/224/224 225/225/225
f 226/226/226 227/227/227 228/228/228
f 229/229/229 230/230/230 231/231/231
f 232/232/232 233/233/233 234/234/234
f 235/235/235 236/236/236 237/237/237
f 238/238/238 239/239/239 240/240/240
f 241/241/241 242/242/242 243/243/243
f 244/244/244 245/245/245 246/246/246
f 247/247/247 248/248/248 249/249/249
f 250/250/250 251/251/251 252/252/252
f 253/253/253 254/254/254 255/255/255
f 256/256/256 257/257/257 258/258/258
f 259/259/259 260/260/260 261/261/261
f 262/262/262 263/263/263 264/264/264
f 265/265/265 266/266/266 267/267/267
f 268/268/268 269/269/269 270/270/270
f 271/271/271 272/272/272 273/273/273
f 274/274/274 275/275/275 276/276/276
f 277/277/277 278/278/278 279/279/279
f 280/280/280 281/281/281 282/282/282
f 283/283/283 284/284/284 285/285/285
f 286/286/286 287/287/287 288/288/288
f 289/289/289 290/290/290 291/291/291
f 292/292/292 293/293/293 294/294/294
f 295/295/295 296/296/296 297/297/297
f 298/298/298 299/299/299 300/300/300
f 301/301/301 302/302/302 303/303/303
f 304/304/304 305/305/305 306/306/306
f 307/307/307 308/308/308 309/309/309
f 310/310/310 311/311/311 312/312/312
f 313/313/313 314/314/314 315/315/315
f 316/316/316 317/317/317 318/318/318
f 319/319/319 320/320/320 321/321/321
f 322/322/322 323/323/323 324/324/324
f 325/325/325 326/326/326 327/327/327
f 328/328/328 329/329/329 330/330/330
f 331/331/331 332/332/332 333/333/333
f 334/334/334 335/335/335 336/336/336
f 337/337/337 338/338/338 339/339/339
f 340/340/340 341/341/341 342/342/342
f 343/343/343 344/344/344 345/345/345
f 346/346/346 347/347/347 348/348/348
f 349/349/349 350/350/350 351/351/351
f 352/352/352 353/353/353 354/354/354
f 355/355/355 356/356/356 357/357/357
f 358/358/358 359/359/359 360/360/360
f 361/361/361 362/362/362 363/363/363
f 364/364/364 365/365/365 366/366/366
f 367/367/367 368/368/368 369/369/369
f 370/370/370 371/371/371 372/372/372
f 373/373/373 374/374/374 375/375/375
f 376/376/376 377/377/377 378/378/378
f 379/379/379 380/380/380 381/381/381
f 382/382/382 383/383/383 384/384/384
f 385/385/385 386/386/386 387/387/387
f 388/388/388 389/389/389 390/390/390
f 391/391/391 392/392/392 393/393/393
f 394/394/394 395/395/395 396/396/396
f 397/397/397 398/398/398 399/399/399
f 400/400/400 401/401/401 402/402/402
f 403/403/403 404/404/404 405/405/405
f 406/406/406 407/407/407 408/408/408
f 409/409/409 410/410/410 411/411/411
f 412/412/412 413/413/413 414/414/414
f 415/415/415 416/416/416 417/417/417
f 418/418/418 419/419/419 420/420/420
f 421/421/421 422/422/422 423/423/423
f 424/424/424 425/425/425 426/426/426
f 427/427/427 428/428/428 429/429/429
f 430/430/430 431/431/431 432/432/432
f 433/433/433 434/434/434 435/435/435
f 436/436/436 437/437/437 438/438/438
f 439/439/439 440/440/440 441/441/441
f 442/442/442 443/443/443 444/444/444
f 445/445/445 446/446/446 447/447/447
f 448/448/448 449/449/449 450/450/450
f 451/451/451 452/452/452 453/453/453
f 454/454/454 455/455/455 456/456/456
f 457/457/457 458/458/458 459/459/459
f 460/460/460 461/461/461 462/462/462
f 463/463/463 464/464/464 465/465/465
f 466/466/466 467/467/467 468/468/468
f 469/469/469 470/470/470 471/471/471
f 472/472/472 473/473/473 474/474/474
f 475/475/475 476/476/476 477/477/477
f 478/478/478 479/479/479 480/480/480
f 481/481/481 482/482/482 483/483/483
f 484/484/484 485/485/485 486/486/486
f 487/487/487 488/488/488 489/489/489
f 490/490/490 491/491/491 492/492/492
f 493/493/493 494/494/494 495/495/495
f 496/496/496 497/497/497 498/498/498
f 499/499/499 500/500/500 501/501/501
f 502/502/502 503/503/503 504/504/504
f 505/505/505 506/506/506 507/507/507
f 508/508/508 509/509/509 510/510/510
f 511/511/511 512/512/512 513/513/513
f 514/514/514 515/515/515 516/516/516
f 517/517/517 518/518/518 519/519/519
f 520/520/520 521/521/521 522/522/522
f 523/523/523 524/524/524 525/525/525
f 526/526/526 527/527/527 528/528/528
f 529/529/529 530/530/530 531/531/531
f 532/532/532 533/533/533 534/534/534
f 535/535/535 536/536/536 537/537/537
f 538/538/538 539/539/539 540/540/540
f 541/541/541 542/542/542 543/543/543
f 544/544/544 545/545/545 546/546/546
f 547/547/547 548/548/548 549/549/549
f 550/550/550 551/551/551 552/552/552
f 553/553/553 554/554/554 555/555/555
f 556/556/556 557/557/557 558/558/558
f 559/559/559 560/560/560 561/561/561
f 562/562/562 563/563/563 564/564/564
f 565/565/565 566/566/566 567/567/567
f 568/568/568 569/569/569 570/570/570
f 571/571/571 572/572/572 573/573/573
f 574/574/574 575/575/575 576/576/576
f 577/577/577 578/578/578 579/579/579
f 580/580/580 581/581/581 582/582/582
f 583/583/583 584/584/584 585/585/585
f 586/586/586 587/587/587 588/588/588
f 589/589/589 590/590/590 591/591/591
f 592/592/592 593/593/593 594/594/594
f 595/595/595 596/596/596 597/597/597
f 598/598/598 599/599/599 600/600/600
f 601/601/601 602/602/602 603/603/603
f 604/604/604 605/605/605 606/606/606
f 607/607/607 608/608/608 609/609/609
f 610/610/610 611/611/611 612/612/612
f 613/613/613 614/614/614 615/615/615
f 616/616/616 617/617/617 618/618/618
f 619/619/619 620/620/620 621/621/621
f 622/622/622 623/623/623 624/624/624
f 625/625/625 626/626/626 627/627/627
f 628/628/628 629/629/629 630/630/630
f 631/631/631 632/632/632 633/633/633
f 634/634/634 635/635/635 636/636/636
f 637/637/637 638/638/638 639/639/639
f 640/640/640 641/641/641 642/642/642
f 643/643/643 644/644/644 645/645/645
f 646/646/646 647/647/647 648/648/648
f 649/649/649 650/650/650 651/651/651
f 652/652/652 653/653/653 654/654/654
f 655/655/655 656/656/656 657/657/657
f 658/658/658 659/659/659 660/660/660
f 661/661/661 662/662/662 663/663/663
f 664/664/664 665/665/665 666/666/666
f 667/667/667 668/668/668 669/669/669
f 670/670/670 671/671/671 672/672/672
f 673/673/673 674/674/674 675/675/675
f 676/676/676 677/677/677 678/678/678
f 679/679/679 680/680/680 681/681/681
f 682/682/682 683/683/683 684/684/684
f 685/685/685 686/686/686 687/687/687
f 688/688/688 689/689/689 690/690/690
f 691/691/691 692/692/692 693/693/693
f 694/694/694 695/695/695 696/696/696
f 697/697/697 698/698/698 699/699/699
f 700/700/700 701/701/701 702/702/702
f 703/703/703 704/704/704 705/705/705
f 706/706/706 707/707/707 708/708/708
f 709/709/709 710/710/710 711/711/711
f 712/712/712 713/713/713 714/714/714
f 715/715/715 716/716/716 717/717/717
f 718/718/718 719/719/719 720/720/720
f 721/721/721 722/722/722 723/723/723
f 724/724/724 725/725/725 726/726/726
f 727/727/727 728/728/728 729/729/729
f 730/730/730 731/731/731 732/732/732
f 733/733/733 734/734/734 735/735/735
f 736/736/736 737/737/737 738/738/738
f 739/739/739 740/740/740 741/741/741
f 742/742/742 743/743/743 744/744/744
f 745/745/745 746/746/746 747/747/747
f 748/748/748 749/749/749 750/750/750
f 751/751/751 752/752/752 753/753/753
f 754/754/754 755/755/755 756/756/756
f 757/757/757 758/758/758 759/759/759
f 760/760/760 761/761/761 762/762/762
f 763/763/763 764/764/764 765/765/765
f 766/766/766 767/767/767 768/768/768
f 769/769/769 770/770/770 771/771/771
f 772/772/772 773/773/773 774/774/774
f 775/775/775 776/776/776 777/777/777
f 778/778/778 779/779/779 780/780/780
f 781/781/781 782/782/782 783/783/783
f 784/784/784 785/785/785 786/786/786
f 787/787/787 788/788/788 789/789/789
f 790/790/790 791/791/791 792/792/792
f 793/793/793 794/794/794 795/795/795
f 796/796/796 797/797/797 798/798/798
f 799/799/799 800/800/800 801/801/801
f 802/802/802 803/803/803 804/804/804
f 805/805/805 806/806/806 807/807/807
f 808/808/808 809/809/809 810/810/810
f 811/811/811 812/812/812 813/813/813
f 814/814/814 815/815/815 816/816/816
f 817/817/817 818/818/818 819/819/819
f 820/820/820 821/821/821 822/822/822
f 823/823/823 824/824/824 825/825/825
f 826/826/826 827/827/827 828/828/828
f 829/829/829 830/830/830 831/831/831
f 832/832/832 833/833/833 834/834/834
f 835/835/835 836/836/836 837/837/837
f 838/838/838 839/839/839 840/840/840
f 841/841/841 842/842/842 843/843/843
f 844/844/844 845/845/845 846/846/846
f 847/847/847 848/848/848 849/849/849
f 850/850/850 851/851/851 852/852/852
f 853/853/853 854/854/854 855/855/855
f 856/856/856 857/857/857 858/858/858
f 859/859/859 860/860/860 861/861/861
f 862/862/862 863/863/863 864/864/864
f 865/865/865 866/866/866 867/867/867
