# metre = block; Y up; per-cell coordinates; atlas UVs preserved
mtllib materials.mtl
o cell_63
usemtl pump_atlas
v 0.0000000 0.3670900 0.0415319
v 0.0745001 0.2939489 0.0837600
v 0.0745001 0.2296776 0.0000000
v 0.0000000 0.3670900 0.0415319
v 0.0745001 0.2296776 0.0000000
v 0.0000000 0.3352214 0.0000000
v 0.0000000 0.4586923 0.2626794
v 0.0745001 0.3771141 0.2845383
v 0.0745001 0.2939489 0.0837600
v 0.0000000 0.4586923 0.2626794
v 0.0745001 0.2939489 0.0837600
v 0.0000000 0.4267323 0.1855212
v 0.0000000 0.4267323 0.1855212
v 0.0745001 0.2939489 0.0837600
v 0.0000000 0.3670900 0.0415319
v 0.0000000 0.4899363 0.5000000
v 0.0745001 0.4054801 0.5000000
v 0.0745001 0.3771141 0.2845383
v 0.0000000 0.4899363 0.5000000
v 0.0745001 0.3771141 0.2845383
v 0.0000000 0.4790354 0.4171990
v 0.0000000 0.4790354 0.4171990
v 0.0745001 0.3771141 0.2845383
v 0.0000000 0.4586923 0.2626794
v 0.0000000 0.4586923 0.7373206
v 0.0745001 0.3771141 0.7154617
v 0.0745001 0.4054801 0.5000000
v 0.0000000 0.4586923 0.7373206
v 0.0745001 0.4054801 0.5000000
v 0.0000000 0.4695933 0.6545196
v 0.0000000 0.4695933 0.6545196
v 0.0745001 0.4054801 0.5000000
v 0.0000000 0.4899363 0.5000000
v 0.0000000 0.3670900 0.9584681
v 0.0745001 0.2939489 0.9162400
v 0.0745001 0.3771141 0.7154617
v 0.0000000 0.3670900 0.9584681
v 0.0745001 0.3771141 0.7154617
v 0.0000000 0.3990500 0.8813098
v 0.0000000 0.3990500 0.8813098
v 0.0745001 0.3771141 0.7154617
v 0.0000000 0.4586923 0.7373206
v 0.0745001 0.2296776 1.0000000
v 0.0745001 0.2939489 0.9162400
v 0.0368805 0.2829731 1.0000000
v 0.0368805 0.2829731 1.0000000
v 0.0745001 0.2939489 0.9162400
v 0.0000000 0.3670900 0.9584681
v 0.0368805 0.2829731 1.0000000
v 0.0000000 0.3670900 0.9584681
v 0.0000000 0.3352214 1.0000000
v 0.0745001 0.1249313 0.0000000
v 0.0745001 0.0000000 0.3016109
v 0.0745001 0.0000000 0.0000000
v 0.0745001 0.0000000 0.3016109
v 0.0745001 0.1249313 0.0000000
v 0.0745001 0.2296776 0.0000000
v 0.0745001 0.0000000 0.3016109
v 0.0745001 0.2296776 0.0000000
v 0.0745001 0.2939489 0.0837600
v 0.0745001 0.0000000 0.3016109
v 0.0745001 0.2939489 0.0837600
v 0.0745001 0.0000000 0.5928944
v 0.0745001 0.0000000 0.5928944
v 0.0745001 0.2939489 0.0837600
v 0.0745001 0.3771141 0.2845383
v 0.0745001 0.0000000 0.5928944
v 0.0745001 0.3771141 0.2845383
v 0.0745001 0.0000000 0.7760029
v 0.0745001 0.0000000 0.7760029
v 0.0745001 0.3771141 0.2845383
v 0.0745001 0.4054801 0.5000000
v 0.0745001 0.0000000 0.7760029
v 0.0745001 0.4054801 0.5000000
v 0.0745001 0.0000000 0.9054801
v 0.0745001 0.0000000 0.9054801
v 0.0745001 0.4054801 0.5000000
v 0.0745001 0.3771141 0.7154617
v 0.0745001 0.0000000 0.9054801
v 0.0745001 0.3771141 0.7154617
v 0.0745001 0.0062965 1.0000000
v 0.0745001 0.0000000 0.9054801
v 0.0745001 0.0062965 1.0000000
v 0.0745001 0.0000000 1.0000000
v 0.0745001 0.0062965 1.0000000
v 0.0745001 0.3771141 0.7154617
v 0.0745001 0.2939489 0.9162400
v 0.0745001 0.0062965 1.0000000
v 0.0745001 0.2939489 0.9162400
v 0.0745001 0.1488723 1.0000000
v 0.0745001 0.1488723 1.0000000
v 0.0745001 0.2939489 0.9162400
v 0.0745001 0.2296776 1.0000000
v 0.0767000 0.0412462 0.0317539
v 0.0888002 0.0412462 0.0317539
v 0.0888002 0.0000000 0.0001046
v 0.0767000 0.0412462 0.0317539
v 0.0888002 0.0000000 0.0001046
v 0.0803391 0.0000000 0.0001046
v 0.0767000 0.0412462 0.0317539
v 0.0803391 0.0000000 0.0001046
v 0.0767000 0.0000000 0.0001046
v 0.0767000 0.1464820 0.1689000
v 0.0888002 0.1464820 0.1689000
v 0.0888002 0.0412462 0.0317539
v 0.0767000 0.1464820 0.1689000
v 0.0888002 0.0412462 0.0317539
v 0.0767000 0.0412462 0.0317539
v 0.0767000 0.2126360 0.3286100
v 0.0888002 0.2126360 0.3286100
v 0.0888002 0.1464820 0.1689000
v 0.0767000 0.2126360 0.3286100
v 0.0888002 0.1464820 0.1689000
v 0.0767000 0.1464820 0.1689000
v 0.0767000 0.2352002 0.5000000
v 0.0888002 0.2352002 0.5000000
v 0.0888002 0.2126360 0.3286100
v 0.0767000 0.2352002 0.5000000
v 0.0888002 0.2126360 0.3286100
v 0.0767000 0.2126360 0.3286100
v 0.0767000 0.2126360 0.6713900
v 0.0888002 0.2126360 0.6713900
v 0.0888002 0.2352002 0.5000000
v 0.0767000 0.2126360 0.6713900
v 0.0888002 0.2352002 0.5000000
v 0.0767000 0.2352002 0.5000000
v 0.0767000 0.1464820 0.8311000
v 0.0888002 0.1464820 0.8311000
v 0.0888002 0.2126360 0.6713900
v 0.0767000 0.1464820 0.8311000
v 0.0888002 0.2126360 0.6713900
v 0.0767000 0.2126360 0.6713900
v 0.0767000 0.0412462 0.9682461
v 0.0888002 0.0412462 0.9682461
v 0.0888002 0.1464820 0.8311000
v 0.0767000 0.0412462 0.9682461
v 0.0888002 0.1464820 0.8311000
v 0.0767000 0.1464820 0.8311000
v 0.0888002 0.0000000 0.9998954
v 0.0888002 0.0412462 0.9682461
v 0.0851611 0.0000000 0.9998954
v 0.0851611 0.0000000 0.9998954
v 0.0888002 0.0412462 0.9682461
v 0.0767000 0.0412462 0.9682461
v 0.0851611 0.0000000 0.9998954
v 0.0767000 0.0412462 0.9682461
v 0.0767000 0.0000000 0.9998954
v 0.0767000 0.0000000 0.9998954
v 0.0767000 0.0412462 0.9682461
v 0.0767000 0.0000000 0.9853308
v 0.0767000 0.0000000 0.9853308
v 0.0767000 0.0412462 0.9682461
v 0.0767000 0.1464820 0.8311000
v 0.0767000 0.0000000 0.9853308
v 0.0767000 0.1464820 0.8311000
v 0.0767000 0.0000000 0.9156714
v 0.0767000 0.0000000 0.9156714
v 0.0767000 0.1464820 0.8311000
v 0.0767000 0.2126360 0.6713900
v 0.0767000 0.0000000 0.9156714
v 0.0767000 0.2126360 0.6713900
v 0.0767000 0.0000000 0.8345514
v 0.0767000 0.0000000 0.8345514
v 0.0767000 0.2126360 0.6713900
v 0.0767000 0.2352002 0.5000000
v 0.0767000 0.0000000 0.8345514
v 0.0767000 0.2352002 0.5000000
v 0.0767000 0.0000000 0.7352001
v 0.0767000 0.0000000 0.7352001
v 0.0767000 0.2352002 0.5000000
v 0.0767000 0.2126360 0.3286100
v 0.0767000 0.0000000 0.7352001
v 0.0767000 0.2126360 0.3286100
v 0.0767000 0.0000000 0.6057227
v 0.0767000 0.0000000 0.6057227
v 0.0767000 0.2126360 0.3286100
v 0.0767000 0.1464820 0.1689000
v 0.0767000 0.0000000 0.6057227
v 0.0767000 0.1464820 0.1689000
v 0.0767000 0.0000000 0.4226143
v 0.0767000 0.0000000 0.4226143
v 0.0767000 0.1464820 0.1689000
v 0.0767000 0.0412462 0.0317539
v 0.0767000 0.0000000 0.4226143
v 0.0767000 0.0412462 0.0317539
v 0.0767000 0.0000000 0.1313310
v 0.0767000 0.0000000 0.1313310
v 0.0767000 0.0412462 0.0317539
v 0.0767000 0.0000000 0.0001046
v 0.0888002 0.0000000 0.0001046
v 0.0888002 0.0412462 0.0317539
v 0.0888002 0.0000000 0.1313310
v 0.0888002 0.0000000 0.1313310
v 0.0888002 0.0412462 0.0317539
v 0.0888002 0.1464820 0.1689000
v 0.0888002 0.0000000 0.1313310
v 0.0888002 0.1464820 0.1689000
v 0.0888002 0.0000000 0.4226143
v 0.0888002 0.0000000 0.4226143
v 0.0888002 0.1464820 0.1689000
v 0.0888002 0.2126360 0.3286100
v 0.0888002 0.0000000 0.4226143
v 0.0888002 0.2126360 0.3286100
v 0.0888002 0.0000000 0.6057227
v 0.0888002 0.0000000 0.6057227
v 0.0888002 0.2126360 0.3286100
v 0.0888002 0.2352002 0.5000000
v 0.0888002 0.0000000 0.6057227
v 0.0888002 0.2352002 0.5000000
v 0.0888002 0.0000000 0.7352001
v 0.0888002 0.0000000 0.7352001
v 0.0888002 0.2352002 0.5000000
v 0.0888002 0.2126360 0.6713900
v 0.0888002 0.0000000 0.7352001
v 0.0888002 0.2126360 0.6713900
v 0.0888002 0.0000000 0.8345514
v 0.0888002 0.0000000 0.8345514
v 0.0888002 0.2126360 0.6713900
v 0.0888002 0.1464820 0.8311000
v 0.0888002 0.0000000 0.8345514
v 0.0888002 0.1464820 0.8311000
v 0.0888002 0.0000000 0.9156714
v 0.0888002 0.0000000 0.9156714
v 0.0888002 0.1464820 0.8311000
v 0.0888002 0.0412462 0.9682461
v 0.0888002 0.0000000 0.9156714
v 0.0888002 0.0412462 0.9682461
v 0.0888002 0.0000000 0.9853308
v 0.0888002 0.0000000 0.9853308
v 0.0888002 0.0412462 0.9682461
v 0.0888002 0.0000000 0.9998954
v 0.1086001 0.0126224 0.0603775
v 0.0965002 0.0040665 0.0518216
v 0.0965002 0.0211782 0.0518216
v 0.0965002 0.0040665 0.0518216
v 0.0844002 0.0126224 0.0603775
v 0.0965002 0.0211782 0.0518216
v 0.0965002 0.0211782 0.0518216
v 0.0844002 0.0126224 0.0603775
v 0.0965002 0.0211782 0.0689335
v 0.1086001 0.0126224 0.0603775
v 0.0965002 0.0211782 0.0518216
v 0.0965002 0.0211782 0.0689335
v 0.0965002 0.0000000 0.0558881
v 0.0965002 0.0040665 0.0518216
v 0.0965567 0.0000000 0.0559680
v 0.0965567 0.0000000 0.0559680
v 0.0965002 0.0040665 0.0518216
v 0.1086001 0.0126224 0.0603775
v 0.0965567 0.0000000 0.0559680
v 0.1086001 0.0126224 0.0603775
v 0.1086001 0.0000000 0.0729999
v 0.0844002 0.0000000 0.0729999
v 0.0844002 0.0126224 0.0603775
v 0.0845722 0.0000000 0.0727566
v 0.0845722 0.0000000 0.0727566
v 0.0844002 0.0126224 0.0603775
v 0.0965002 0.0040665 0.0518216
v 0.0845722 0.0000000 0.0727566
v 0.0965002 0.0040665 0.0518216
v 0.0965002 0.0000000 0.0558881
v 0.0965002 0.0000000 0.0901117
v 0.0965002 0.0211782 0.0689335
v 0.0844002 0.0126224 0.0603775
v 0.0965002 0.0000000 0.0901117
v 0.0844002 0.0126224 0.0603775
v 0.0845756 0.0000000 0.0732480
v 0.0845756 0.0000000 0.0732480
v 0.0844002 0.0126224 0.0603775
v 0.0844002 0.0000000 0.0729999
v 0.1086001 0.0000000 0.0729999
v 0.1086001 0.0126224 0.0603775
v 0.0965002 0.0211782 0.0689335
v 0.1086001 0.0000000 0.0729999
v 0.0965002 0.0211782 0.0689335
v 0.0967888 0.0000000 0.0897035
v 0.0967888 0.0000000 0.0897035
v 0.0965002 0.0211782 0.0689335
v 0.0965002 0.0000000 0.0901117
v 0.1086001 0.1473944 0.2620780
v 0.0965002 0.1427639 0.2508990
v 0.0965002 0.1585734 0.2574475
v 0.0965002 0.1427639 0.2508990
v 0.0844002 0.1473944 0.2620780
v 0.0965002 0.1585734 0.2574475
v 0.0965002 0.1585734 0.2574475
v 0.0844002 0.1473944 0.2620780
v 0.0965002 0.1520250 0.2732569
v 0.1086001 0.1473944 0.2620780
v 0.0965002 0.1585734 0.2574475
v 0.0965002 0.1520250 0.2732569
v 0.0965002 0.0000000 0.3100338
v 0.0965002 0.1427639 0.2508990
v 0.0980100 0.0000000 0.3116679
v 0.0980100 0.0000000 0.3116679
v 0.0965002 0.1427639 0.2508990
v 0.1086001 0.1473944 0.2620780
v 0.0980100 0.0000000 0.3116679
v 0.1086001 0.1473944 0.2620780
v 0.1086001 0.0000000 0.3231308
v 0.0844002 0.0000000 0.3231308
v 0.0844002 0.1473944 0.2620780
v 0.0859464 0.0000000 0.3214571
v 0.0859464 0.0000000 0.3214571
v 0.0844002 0.1473944 0.2620780
v 0.0965002 0.1427639 0.2508990
v 0.0859464 0.0000000 0.3214571
v 0.0965002 0.1427639 0.2508990
v 0.0965002 0.0000000 0.3100338
v 0.0965002 0.0000000 0.3362277
v 0.0965002 0.1520250 0.2732569
v 0.0844002 0.1473944 0.2620780
v 0.0965002 0.0000000 0.3362277
v 0.0844002 0.1473944 0.2620780
v 0.0859590 0.0000000 0.3248180
v 0.0859590 0.0000000 0.3248180
v 0.0844002 0.1473944 0.2620780
v 0.0844002 0.0000000 0.3231308
v 0.1086001 0.0000000 0.3231308
v 0.1086001 0.1473944 0.2620780
v 0.0965002 0.1520250 0.2732569
v 0.1086001 0.0000000 0.3231308
v 0.0965002 0.1520250 0.2732569
v 0.0980950 0.0000000 0.3345015
v 0.0980950 0.0000000 0.3345015
v 0.0965002 0.1520250 0.2732569
v 0.0965002 0.0000000 0.3362277
v 0.1086001 0.1947198 0.5000000
v 0.0965002 0.1947198 0.4879000
v 0.0965002 0.2068198 0.5000000
v 0.0965002 0.1947198 0.4879000
v 0.0844002 0.1947198 0.5000000
v 0.0965002 0.2068198 0.5000000
v 0.0965002 0.2068198 0.5000000
v 0.0844002 0.1947198 0.5000000
v 0.0965002 0.1947198 0.5121000
v 0.1086001 0.1947198 0.5000000
v 0.0965002 0.2068198 0.5000000
v 0.0965002 0.1947198 0.5121000
v 0.0965002 0.0000000 0.4879000
v 0.0965002 0.1947198 0.4879000
v 0.0983950 0.0000000 0.4897948
v 0.0983950 0.0000000 0.4897948
v 0.0965002 0.1947198 0.4879000
v 0.1086001 0.1947198 0.5000000
v 0.0983950 0.0000000 0.4897948
v 0.1086001 0.1947198 0.5000000
v 0.1086001 0.0000000 0.5000000
v 0.0844002 0.0000000 0.5000000
v 0.0844002 0.1947198 0.5000000
v 0.0862950 0.0000000 0.4981052
v 0.0862950 0.0000000 0.4981052
v 0.0844002 0.1947198 0.5000000
v 0.0965002 0.1947198 0.4879000
v 0.0862950 0.0000000 0.4981052
v 0.0965002 0.1947198 0.4879000
v 0.0965002 0.0000000 0.4879000
v 0.0965002 0.0000000 0.5121000
v 0.0965002 0.1947198 0.5121000
v 0.0844002 0.1947198 0.5000000
v 0.0965002 0.0000000 0.5121000
v 0.0844002 0.1947198 0.5000000
v 0.0862950 0.0000000 0.5018948
v 0.0862950 0.0000000 0.5018948
v 0.0844002 0.1947198 0.5000000
v 0.0844002 0.0000000 0.5000000
v 0.1086001 0.0000000 0.5000000
v 0.1086001 0.1947198 0.5000000
v 0.0965002 0.1947198 0.5121000
v 0.1086001 0.0000000 0.5000000
v 0.0965002 0.1947198 0.5121000
v 0.0983950 0.0000000 0.5102052
v 0.0983950 0.0000000 0.5102052
v 0.0965002 0.1947198 0.5121000
v 0.0965002 0.0000000 0.5121000
v 0.0844002 0.1473944 0.7379220
v 0.0965002 0.1427641 0.7491009
v 0.0965002 0.1585734 0.7425524
v 0.0965002 0.1427641 0.7491009
v 0.1086001 0.1473944 0.7379220
v 0.0965002 0.1585734 0.7425524
v 0.0965002 0.1585734 0.7425524
v 0.1086001 0.1473944 0.7379220
v 0.0965002 0.1520250 0.7267430
v 0.0844002 0.1473944 0.7379220
v 0.0965002 0.1585734 0.7425524
v 0.0965002 0.1520250 0.7267430
v 0.0965002 0.0000000 0.6899661
v 0.0965002 0.1427641 0.7491009
v 0.0949904 0.0000000 0.6883319
v 0.0949904 0.0000000 0.6883319
v 0.0965002 0.1427641 0.7491009
v 0.0844002 0.1473944 0.7379220
v 0.0949904 0.0000000 0.6883319
v 0.0844002 0.1473944 0.7379220
v 0.0844002 0.0000000 0.6768692
v 0.1086001 0.0000000 0.6768692
v 0.1086001 0.1473944 0.7379220
v 0.1070539 0.0000000 0.6785429
v 0.1070539 0.0000000 0.6785429
v 0.1086001 0.1473944 0.7379220
v 0.0965002 0.1427641 0.7491009
v 0.1070539 0.0000000 0.6785429
v 0.0965002 0.1427641 0.7491009
v 0.0965002 0.0000000 0.6899661
v 0.0965002 0.0000000 0.6637722
v 0.0965002 0.1520250 0.7267430
v 0.1086001 0.1473944 0.7379220
v 0.0965002 0.0000000 0.6637722
v 0.1086001 0.1473944 0.7379220
v 0.1070413 0.0000000 0.6751820
v 0.1070413 0.0000000 0.6751820
v 0.1086001 0.1473944 0.7379220
v 0.1086001 0.0000000 0.6768692
v 0.0844002 0.0000000 0.6768692
v 0.0844002 0.1473944 0.7379220
v 0.0965002 0.1520250 0.7267430
v 0.0844002 0.0000000 0.6768692
v 0.0965002 0.1520250 0.7267430
v 0.0949054 0.0000000 0.6654984
v 0.0949054 0.0000000 0.6654984
v 0.0965002 0.1520250 0.7267430
v 0.0965002 0.0000000 0.6637722
v 0.0844002 0.0126224 0.9396224
v 0.0965002 0.0040665 0.9481784
v 0.0965002 0.0211782 0.9481784
v 0.0965002 0.0040665 0.9481784
v 0.1086001 0.0126224 0.9396224
v 0.0965002 0.0211782 0.9481784
v 0.0965002 0.0211785 0.9481784
v 0.1086001 0.0126224 0.9396224
v 0.0965002 0.0211785 0.9310665
v 0.0844002 0.0126224 0.9396224
v 0.0965002 0.0211782 0.9481784
v 0.0965002 0.0211785 0.9310665
v 0.0965002 0.0211785 0.9481784
v 0.0965002 0.0211782 0.9481784
v 0.1086001 0.0126224 0.9396224
v 0.0965002 0.0211782 0.9481784
v 0.0965002 0.0211785 0.9481784
v 0.0965002 0.0211785 0.9310665
v 0.0965002 0.0000000 0.9441119
v 0.0965002 0.0040665 0.9481784
v 0.0964437 0.0000000 0.9440320
v 0.0964437 0.0000000 0.9440320
v 0.0965002 0.0040665 0.9481784
v 0.0844002 0.0126224 0.9396224
v 0.0964437 0.0000000 0.9440320
v 0.0844002 0.0126224 0.9396224
v 0.0844002 0.0000000 0.9270000
v 0.1086001 0.0000000 0.9270000
v 0.1086001 0.0126224 0.9396224
v 0.1084281 0.0000000 0.9272433
v 0.1084281 0.0000000 0.9272433
v 0.1086001 0.0126224 0.9396224
v 0.0965002 0.0040665 0.9481784
v 0.1084281 0.0000000 0.9272433
v 0.0965002 0.0040665 0.9481784
v 0.0965002 0.0000000 0.9441119
v 0.0965002 0.0000000 0.9098880
v 0.0965002 0.0211785 0.9310665
v 0.1086001 0.0126224 0.9396224
v 0.0965002 0.0000000 0.9098880
v 0.1086001 0.0126224 0.9396224
v 0.1084247 0.0000000 0.9267519
v 0.1084247 0.0000000 0.9267519
v 0.1086001 0.0126224 0.9396224
v 0.1086001 0.0000000 0.9270000
v 0.0844002 0.0000000 0.9270000
v 0.0844002 0.0126224 0.9396224
v 0.0965002 0.0211785 0.9310665
v 0.0844002 0.0000000 0.9270000
v 0.0965002 0.0211785 0.9310665
v 0.0962116 0.0000000 0.9102962
v 0.0962116 0.0000000 0.9102962
v 0.0965002 0.0211785 0.9310665
v 0.0965002 0.0000000 0.9098880
vt 0.4652042 0.1104851
vt 0.4626524 0.1060653
vt 0.4677138 0.1021815
vt 0.4652042 0.1104851
vt 0.4677138 0.1021815
vt 0.4677139 0.1085593
vt 0.4518408 0.1160204
vt 0.4505199 0.1110908
vt 0.4626524 0.1060653
vt 0.4518408 0.1160204
vt 0.4626524 0.1060653
vt 0.4565032 0.1140891
vt 0.4565032 0.1140891
vt 0.4626524 0.1060653
vt 0.4652042 0.1104851
vt 0.4375000 0.1179084
vt 0.4375000 0.1128049
vt 0.4505199 0.1110908
vt 0.4375000 0.1179084
vt 0.4505199 0.1110908
vt 0.4425035 0.1172497
vt 0.4425035 0.1172497
vt 0.4505199 0.1110908
vt 0.4518408 0.1160204
vt 0.4231592 0.1160204
vt 0.4244801 0.1110908
vt 0.4375000 0.1128049
vt 0.4231592 0.1160204
vt 0.4375000 0.1128049
vt 0.4281627 0.1166791
vt 0.4281627 0.1166791
vt 0.4375000 0.1128049
vt 0.4375000 0.1179084
vt 0.4097958 0.1104851
vt 0.4123476 0.1060653
vt 0.4244801 0.1110908
vt 0.4097958 0.1104851
vt 0.4244801 0.1110908
vt 0.4144583 0.1124163
vt 0.4144583 0.1124163
vt 0.4244801 0.1110908
vt 0.4231592 0.1160204
vt 0.4072862 0.1021815
vt 0.4123476 0.1060653
vt 0.4072862 0.1054020
vt 0.4072862 0.1054020
vt 0.4123476 0.1060653
vt 0.4097958 0.1104851
vt 0.4072862 0.1054020
vt 0.4097958 0.1104851
vt 0.4072861 0.1085593
vt 0.4677138 0.0958519
vt 0.4494882 0.0883026
vt 0.4677139 0.0883026
vt 0.4494882 0.0883026
vt 0.4677138 0.0958519
vt 0.4677138 0.1021815
vt 0.4494882 0.0883026
vt 0.4677138 0.1021815
vt 0.4626524 0.1060653
vt 0.4494882 0.0883026
vt 0.4626524 0.1060653
vt 0.4318866 0.0883026
vt 0.4318866 0.0883026
vt 0.4626524 0.1060653
vt 0.4505199 0.1110908
vt 0.4318866 0.0883026
vt 0.4505199 0.1110908
vt 0.4208218 0.0883026
vt 0.4208218 0.0883026
vt 0.4505199 0.1110908
vt 0.4375000 0.1128049
vt 0.4208218 0.0883026
vt 0.4375000 0.1128049
vt 0.4129977 0.0883026
vt 0.4129977 0.0883026
vt 0.4375000 0.1128049
vt 0.4244801 0.1110908
vt 0.4129977 0.0883026
vt 0.4244801 0.1110908
vt 0.4072861 0.0886831
vt 0.4129977 0.0883026
vt 0.4072861 0.0886831
vt 0.4072861 0.0883026
vt 0.4072861 0.0886831
vt 0.4244801 0.1110908
vt 0.4123476 0.1060653
vt 0.4072861 0.0886831
vt 0.4123476 0.1060653
vt 0.4072862 0.0972987
vt 0.4072862 0.0972987
vt 0.4123476 0.1060653
vt 0.4072862 0.1021815
vt 0.2539062 0.2289320
vt 0.3710938 0.2289320
vt 0.3710938 0.2252824
vt 0.2539062 0.2289320
vt 0.3710938 0.2252824
vt 0.2891499 0.2252824
vt 0.2539062 0.2289320
vt 0.2891499 0.2252824
vt 0.2539062 0.2252824
vt 0.2539062 0.2167969
vt 0.3710938 0.2167969
vt 0.3710938 0.2289320
vt 0.2539062 0.2167969
vt 0.3710938 0.2289320
vt 0.2539062 0.2289320
vt 0.2539062 0.2026652
vt 0.3710938 0.2026652
vt 0.3710938 0.2167969
vt 0.2539062 0.2026652
vt 0.3710938 0.2167969
vt 0.2539062 0.2167969
vt 0.2539062 0.1875000
vt 0.3710938 0.1875000
vt 0.3710938 0.2026652
vt 0.2539062 0.1875000
vt 0.3710938 0.2026652
vt 0.2539062 0.2026652
vt 0.2539062 0.1723348
vt 0.3710938 0.1723348
vt 0.3710938 0.1875000
vt 0.2539062 0.1723348
vt 0.3710938 0.1875000
vt 0.2539062 0.1875000
vt 0.2539062 0.1582031
vt 0.3710938 0.1582031
vt 0.3710938 0.1723348
vt 0.2539062 0.1582031
vt 0.3710938 0.1723348
vt 0.2539062 0.1723348
vt 0.2539062 0.1460680
vt 0.3710938 0.1460680
vt 0.3710938 0.1582031
vt 0.2539062 0.1460680
vt 0.3710938 0.1582031
vt 0.2539062 0.1582031
vt 0.3710938 0.2252824
vt 0.3710938 0.2289320
vt 0.3358501 0.2252824
vt 0.3358501 0.2252824
vt 0.3710938 0.2289320
vt 0.2539062 0.2289320
vt 0.3358501 0.2252824
vt 0.2539062 0.2289320
vt 0.2539062 0.2252824
vt 0.2682675 0.2252824
vt 0.2710679 0.2289320
vt 0.2695562 0.2252824
vt 0.2695562 0.2252824
vt 0.2710679 0.2289320
vt 0.2832031 0.2382437
vt 0.2695562 0.2252824
vt 0.2832031 0.2382437
vt 0.2757199 0.2252825
vt 0.2757199 0.2252825
vt 0.2832031 0.2382437
vt 0.2973348 0.2440972
vt 0.2757199 0.2252825
vt 0.2973348 0.2440972
vt 0.2828977 0.2252824
vt 0.2828977 0.2252824
vt 0.2973348 0.2440972
vt 0.3125000 0.2460938
vt 0.2828977 0.2252824
vt 0.3125000 0.2460938
vt 0.2916887 0.2252825
vt 0.2916887 0.2252825
vt 0.3125000 0.2460938
vt 0.3276652 0.2440972
vt 0.2916887 0.2252825
vt 0.3276652 0.2440972
vt 0.3031453 0.2252824
vt 0.3031453 0.2252824
vt 0.3276652 0.2440972
vt 0.3417969 0.2382437
vt 0.3031453 0.2252824
vt 0.3417969 0.2382437
vt 0.3193474 0.2252825
vt 0.3193474 0.2252825
vt 0.3417969 0.2382437
vt 0.3539321 0.2289320
vt 0.3193474 0.2252825
vt 0.3539321 0.2289320
vt 0.3451212 0.2252824
vt 0.3451212 0.2252824
vt 0.3539321 0.2289320
vt 0.3567325 0.2252824
vt 0.3567325 0.2252824
vt 0.3539321 0.2289320
vt 0.3451212 0.2252824
vt 0.3451212 0.2252824
vt 0.3539321 0.2289320
vt 0.3417969 0.2382437
vt 0.3451212 0.2252824
vt 0.3417969 0.2382437
vt 0.3193474 0.2252825
vt 0.3193474 0.2252825
vt 0.3417969 0.2382437
vt 0.3276652 0.2440972
vt 0.3193474 0.2252825
vt 0.3276652 0.2440972
vt 0.3031453 0.2252824
vt 0.3031453 0.2252824
vt 0.3276652 0.2440972
vt 0.3125000 0.2460938
vt 0.3031453 0.2252824
vt 0.3125000 0.2460938
vt 0.2916887 0.2252825
vt 0.2916887 0.2252825
vt 0.3125000 0.2460938
vt 0.2973348 0.2440972
vt 0.2916887 0.2252825
vt 0.2973348 0.2440972
vt 0.2828977 0.2252824
vt 0.2828977 0.2252824
vt 0.2973348 0.2440972
vt 0.2832031 0.2382437
vt 0.2828977 0.2252824
vt 0.2832031 0.2382437
vt 0.2757199 0.2252825
vt 0.2757199 0.2252825
vt 0.2832031 0.2382437
vt 0.2710679 0.2289320
vt 0.2757199 0.2252825
vt 0.2710679 0.2289320
vt 0.2695562 0.2252824
vt 0.2695562 0.2252824
vt 0.2710679 0.2289320
vt 0.2682675 0.2252824
vt 0.4375000 0.1199752
vt 0.4228516 0.1199752
vt 0.4375000 0.1210938
vt 0.4375000 0.1199752
vt 0.4960938 0.1199752
vt 0.4375000 0.1210938
vt 0.4375000 0.0917969
vt 0.4521484 0.1199752
vt 0.4375000 0.1199752
vt 0.4375000 0.1199752
vt 0.4375000 0.1210938
vt 0.4960938 0.1199752
vt 0.4228516 0.1194436
vt 0.4228516 0.1199752
vt 0.4228516 0.1195054
vt 0.4228516 0.1195054
vt 0.4228516 0.1199752
vt 0.4375000 0.1199752
vt 0.4228516 0.1195054
vt 0.4375000 0.1199752
vt 0.4372897 0.1185313
vt 0.4960938 0.1188751
vt 0.4960938 0.1199752
vt 0.4952607 0.1183369
vt 0.4952607 0.1183369
vt 0.4960938 0.1199752
vt 0.4375000 0.1199752
vt 0.4952607 0.1183369
vt 0.4375000 0.1199752
vt 0.4375000 0.1194423
vt 0.4375000 0.1172064
vt 0.4375000 0.1199752
vt 0.4521484 0.1199752
vt 0.4375000 0.1172064
vt 0.4521484 0.1199752
vt 0.4519360 0.1183088
vt 0.4519360 0.1183088
vt 0.4521484 0.1199752
vt 0.4522185 0.1183250
vt 0.4375000 0.1183250
vt 0.4375000 0.1199752
vt 0.4960938 0.1199752
vt 0.4375000 0.1183250
vt 0.4960938 0.1199752
vt 0.4946961 0.1172331
vt 0.4946961 0.1172331
vt 0.4960938 0.1199752
vt 0.4960938 0.1172064
vt 0.4375000 0.1199752
vt 0.4228516 0.1199752
vt 0.4375000 0.1210938
vt 0.4375000 0.1199752
vt 0.4960938 0.1199752
vt 0.4375000 0.1210938
vt 0.4375000 0.0917969
vt 0.4521484 0.1199752
vt 0.4375000 0.1199752
vt 0.4375000 0.1199752
vt 0.4375000 0.1210938
vt 0.4960938 0.1199752
vt 0.4228516 0.1056899
vt 0.4228516 0.1199752
vt 0.4228516 0.1074250
vt 0.4228516 0.1074250
vt 0.4228516 0.1199752
vt 0.4375000 0.1199752
vt 0.4228516 0.1074250
vt 0.4375000 0.1199752
vt 0.4356205 0.1070702
vt 0.4960938 0.1101428
vt 0.4960938 0.1199752
vt 0.4886062 0.1052501
vt 0.4886062 0.1052501
vt 0.4960938 0.1199752
vt 0.4375000 0.1199752
vt 0.4886062 0.1052501
vt 0.4375000 0.1199752
vt 0.4375000 0.1056552
vt 0.4375000 0.1047632
vt 0.4375000 0.1199752
vt 0.4521484 0.1199752
vt 0.4375000 0.1047632
vt 0.4521484 0.1199752
vt 0.4502613 0.1051669
vt 0.4502613 0.1051669
vt 0.4521484 0.1199752
vt 0.4527749 0.1052266
vt 0.4375000 0.1052266
vt 0.4375000 0.1199752
vt 0.4960938 0.1199752
vt 0.4375000 0.1052266
vt 0.4960938 0.1199752
vt 0.4883709 0.1048243
vt 0.4883709 0.1048243
vt 0.4960938 0.1199752
vt 0.4960938 0.1047632
vt 0.4375000 0.1199752
vt 0.4228516 0.1199752
vt 0.4375000 0.1210938
vt 0.4375000 0.1199752
vt 0.4960938 0.1199752
vt 0.4375000 0.1210938
vt 0.4375000 0.0917969
vt 0.4521484 0.1199752
vt 0.4375000 0.1199752
vt 0.4375000 0.1199752
vt 0.4375000 0.1210938
vt 0.4960938 0.1199752
vt 0.4228516 0.1019742
vt 0.4228516 0.1199752
vt 0.4228516 0.1042244
vt 0.4228516 0.1042244
vt 0.4228516 0.1199752
vt 0.4375000 0.1199752
vt 0.4228516 0.1042244
vt 0.4375000 0.1199752
vt 0.4352061 0.1042244
vt 0.4960938 0.1079746
vt 0.4960938 0.1199752
vt 0.4869181 0.1019304
vt 0.4869181 0.1019304
vt 0.4960938 0.1199752
vt 0.4375000 0.1199752
vt 0.4869181 0.1019304
vt 0.4375000 0.1199752
vt 0.4375000 0.1019304
vt 0.4375000 0.1019742
vt 0.4375000 0.1199752
vt 0.4521484 0.1199752
vt 0.4375000 0.1019742
vt 0.4521484 0.1199752
vt 0.4498545 0.1019742
vt 0.4498545 0.1019742
vt 0.4521484 0.1199752
vt 0.4529130 0.1019742
vt 0.4375000 0.1019742
vt 0.4375000 0.1199752
vt 0.4960938 0.1199752
vt 0.4375000 0.1019742
vt 0.4960938 0.1199752
vt 0.4869181 0.1019742
vt 0.4869181 0.1019742
vt 0.4960938 0.1199752
vt 0.4960938 0.1019742
vt 0.4375000 0.1199752
vt 0.4228516 0.1199752
vt 0.4375000 0.1210938
vt 0.4375000 0.1199752
vt 0.4960938 0.1199752
vt 0.4375000 0.1210938
vt 0.4375000 0.0917969
vt 0.4521484 0.1199752
vt 0.4375000 0.1199752
vt 0.4375000 0.1199752
vt 0.4375000 0.1210938
vt 0.4960938 0.1199752
vt 0.4228516 0.1056899
vt 0.4228516 0.1199752
vt 0.4228516 0.1074250
vt 0.4228516 0.1074250
vt 0.4228516 0.1199752
vt 0.4375000 0.1199752
vt 0.4228516 0.1074250
vt 0.4375000 0.1199752
vt 0.4356205 0.1070702
vt 0.4960938 0.1101428
vt 0.4960938 0.1199752
vt 0.4886062 0.1052501
vt 0.4886062 0.1052501
vt 0.4960938 0.1199752
vt 0.4375000 0.1199752
vt 0.4886062 0.1052501
vt 0.4375000 0.1199752
vt 0.4375000 0.1056552
vt 0.4375000 0.1047632
vt 0.4375000 0.1199752
vt 0.4521484 0.1199752
vt 0.4375000 0.1047632
vt 0.4521484 0.1199752
vt 0.4502613 0.1051669
vt 0.4502613 0.1051669
vt 0.4521484 0.1199752
vt 0.4527749 0.1052266
vt 0.4375000 0.1052266
vt 0.4375000 0.1199752
vt 0.4960938 0.1199752
vt 0.4375000 0.1052266
vt 0.4960938 0.1199752
vt 0.4883709 0.1048243
vt 0.4883709 0.1048243
vt 0.4960938 0.1199752
vt 0.4960938 0.1047632
vt 0.4375000 0.1199752
vt 0.4228516 0.1199752
vt 0.4375000 0.1210938
vt 0.4375000 0.1199752
vt 0.4960938 0.1199752
vt 0.4375000 0.1210938
vt 0.4375000 0.0917969
vt 0.4521484 0.1199752
vt 0.4375000 0.1199752
vt 0.4375000 0.1199752
vt 0.4375000 0.1210938
vt 0.4960938 0.1199752
vt 0.4375000 0.0917969
vt 0.4375000 0.1210938
vt 0.4375000 0.1199752
vt 0.4375000 0.0625000
vt 0.4375000 0.0917969
vt 0.4375000 0.1199752
vt 0.4228516 0.1194436
vt 0.4228516 0.1199752
vt 0.4228516 0.1195054
vt 0.4228516 0.1195054
vt 0.4228516 0.1199752
vt 0.4375000 0.1199752
vt 0.4228516 0.1195054
vt 0.4375000 0.1199752
vt 0.4372897 0.1185313
vt 0.4960938 0.1188751
vt 0.4960938 0.1199752
vt 0.4952607 0.1183369
vt 0.4952607 0.1183369
vt 0.4960938 0.1199752
vt 0.4375000 0.1199752
vt 0.4952607 0.1183369
vt 0.4375000 0.1199752
vt 0.4375000 0.1194423
vt 0.4375000 0.1172064
vt 0.4375000 0.1199752
vt 0.4521484 0.1199752
vt 0.4375000 0.1172064
vt 0.4521484 0.1199752
vt 0.4519360 0.1183088
vt 0.4519360 0.1183088
vt 0.4521484 0.1199752
vt 0.4522185 0.1183250
vt 0.4375000 0.1183250
vt 0.4375000 0.1199752
vt 0.4960938 0.1199752
vt 0.4375000 0.1183250
vt 0.4960938 0.1199752
vt 0.4946960 0.1172331
vt 0.4946960 0.1172331
vt 0.4960938 0.1199752
vt 0.4960938 0.1172064
vn 0.7499262 0.5728948 -0.3307601
vn 0.7499262 0.5728949 -0.3307601
vn 0.7527354 0.5237768 -0.3988072
vn 0.7499262 0.5728948 -0.3307601
vn 0.7527354 0.5237768 -0.3988072
vn 0.7519795 0.5490699 -0.3647589
vn 0.7499261 0.6389808 -0.1712146
vn 0.7499261 0.6389807 -0.1712146
vn 0.7499262 0.5728949 -0.3307601
vn 0.7499261 0.6389808 -0.1712146
vn 0.7499262 0.5728949 -0.3307601
vn 0.7525860 0.6157606 -0.2333520
vn 0.7525860 0.6157606 -0.2333520
vn 0.7499262 0.5728949 -0.3307601
vn 0.7499262 0.5728948 -0.3307601
vn 0.7499263 0.6615214 0.0000000
vn 0.7499262 0.6615215 0.0000000
vn 0.7499261 0.6389807 -0.1712146
vn 0.7499263 0.6615214 0.0000000
vn 0.7499261 0.6389807 -0.1712146
vn 0.7525862 0.6551748 -0.0660304
vn 0.7525862 0.6551748 -0.0660304
vn 0.7499261 0.6389807 -0.1712146
vn 0.7499261 0.6389808 -0.1712146
vn 0.7499261 0.6389808 0.1712146
vn 0.7499261 0.6389807 0.1712146
vn 0.7499262 0.6615215 0.0000000
vn 0.7499261 0.6389808 0.1712146
vn 0.7499262 0.6615215 0.0000000
vn 0.7525861 0.6499402 0.1057915
vn 0.7525861 0.6499402 0.1057915
vn 0.7499262 0.6615215 0.0000000
vn 0.7499263 0.6615214 0.0000000
vn 0.7499261 0.5728948 0.3307604
vn 0.7499261 0.5728948 0.3307604
vn 0.7499261 0.6389807 0.1712146
vn 0.7499261 0.5728948 0.3307604
vn 0.7499261 0.6389807 0.1712146
vn 0.7525860 0.6004134 0.2704034
vn 0.7525860 0.6004134 0.2704034
vn 0.7499261 0.6389807 0.1712146
vn 0.7499261 0.6389808 0.1712146
vn 0.7527352 0.5237768 0.3988078
vn 0.7499261 0.5728948 0.3307604
vn 0.7523334 0.5419438 0.3745548
vn 0.7523334 0.5419438 0.3745548
vn 0.7499261 0.5728948 0.3307604
vn 0.7499261 0.5728948 0.3307604
vn 0.7523334 0.5419438 0.3745548
vn 0.7499261 0.5728948 0.3307604
vn 0.7517672 0.5525062 0.3599763
vn 1.0000000 0.0000000 0.0000000
vn 1.0000000 0.0000000 0.0000000
vn 1.0000000 0.0000000 0.0000000
vn 1.0000000 0.0000000 0.0000000
vn 1.0000000 0.0000000 0.0000000
vn 1.0000000 0.0000000 0.0000000
vn 1.0000000 0.0000000 0.0000000
vn 1.0000000 0.0000000 0.0000000
vn 1.0000000 0.0000000 0.0000000
vn 1.0000000 0.0000000 0.0000000
vn 1.0000000 0.0000000 0.0000000
vn 1.0000000 0.0000000 0.0000000
vn 1.0000000 0.0000000 0.0000000
vn 1.0000000 0.0000000 0.0000000
vn 1.0000000 0.0000000 0.0000000
vn 1.0000000 0.0000000 0.0000000
vn 1.0000000 0.0000000 0.0000000
vn 1.0000000 0.0000000 0.0000000
vn 1.0000000 0.0000000 0.0000000
vn 1.0000000 0.0000000 0.0000000
vn 1.0000000 0.0000000 0.0000000
vn 1.0000000 0.0000000 0.0000000
vn 1.0000000 0.0000000 0.0000000
vn 1.0000000 0.0000000 0.0000000
vn 1.0000000 0.0000000 0.0000000
vn 1.0000000 0.0000000 0.0000000
vn 1.0000000 0.0000000 0.0000000
vn 1.0000000 0.0000000 0.0000000
vn 1.0000000 0.0000000 0.0000000
vn 1.0000000 0.0000000 0.0000000
vn 1.0000000 0.0000000 0.0000000
vn 1.0000000 0.0000000 0.0000000
vn 1.0000000 0.0000000 0.0000000
vn 1.0000000 0.0000000 0.0000000
vn 1.0000000 0.0000000 0.0000000
vn 1.0000000 0.0000000 0.0000000
vn 1.0000000 0.0000000 0.0000000
vn 1.0000000 0.0000000 0.0000000
vn 1.0000000 0.0000000 0.0000000
vn 1.0000000 0.0000000 0.0000000
vn 1.0000000 0.0000000 0.0000000
vn 1.0000000 0.0000000 0.0000000
vn 0.0000000 0.7071062 -0.7071074
vn 0.0000000 0.7071062 -0.7071074
vn 0.0000000 0.6494917 -0.7603687
vn 0.0000000 0.7071062 -0.7071074
vn 0.0000000 0.6494917 -0.7603687
vn 0.0000000 0.6494917 -0.7603687
vn 0.0000000 0.7071062 -0.7071074
vn 0.0000000 0.6494917 -0.7603687
vn 0.0000000 0.6494917 -0.7603687
vn 0.0000000 0.8660243 -0.5000020
vn 0.0000000 0.8660243 -0.5000020
vn 0.0000000 0.7071062 -0.7071074
vn 0.0000000 0.8660243 -0.5000020
vn 0.0000000 0.7071062 -0.7071074
vn 0.0000000 0.7071062 -0.7071074
vn 0.0000000 0.9659261 -0.2588179
vn 0.0000000 0.9659261 -0.2588179
vn 0.0000000 0.8660243 -0.5000020
vn 0.0000000 0.9659261 -0.2588179
vn 0.0000000 0.8660243 -0.5000020
vn 0.0000000 0.8660243 -0.5000020
vn 0.0000000 1.0000000 0.0000000
vn 0.0000000 1.0000000 0.0000000
vn 0.0000000 0.9659261 -0.2588179
vn 0.0000000 1.0000000 0.0000000
vn 0.0000000 0.9659261 -0.2588179
vn 0.0000000 0.9659261 -0.2588179
vn 0.0000000 0.9659261 0.2588179
vn 0.0000000 0.9659261 0.2588179
vn 0.0000000 1.0000000 0.0000000
vn 0.0000000 0.9659261 0.2588179
vn 0.0000000 1.0000000 0.0000000
vn 0.0000000 1.0000000 0.0000000
vn 0.0000000 0.8660243 0.5000020
vn 0.0000000 0.8660243 0.5000020
vn 0.0000000 0.9659261 0.2588179
vn 0.0000000 0.8660243 0.5000020
vn 0.0000000 0.9659261 0.2588179
vn 0.0000000 0.9659261 0.2588179
vn 0.0000000 0.7071062 0.7071074
vn 0.0000000 0.7071062 0.7071074
vn 0.0000000 0.8660243 0.5000020
vn 0.0000000 0.7071062 0.7071074
vn 0.0000000 0.8660243 0.5000020
vn 0.0000000 0.8660243 0.5000020
vn 0.0000000 0.6494917 0.7603687
vn 0.0000000 0.7071062 0.7071074
vn 0.0000000 0.6494917 0.7603687
vn 0.0000000 0.6494917 0.7603687
vn 0.0000000 0.7071062 0.7071074
vn 0.0000000 0.7071062 0.7071074
vn 0.0000000 0.6494917 0.7603687
vn 0.0000000 0.7071062 0.7071074
vn 0.0000000 0.6494917 0.7603687
vn -1.0000000 0.0000000 0.0000000
vn -1.0000000 0.0000000 0.0000000
vn -1.0000000 0.0000000 0.0000000
vn -1.0000000 0.0000000 0.0000000
vn -1.0000000 0.0000000 0.0000000
vn -1.0000000 0.0000000 0.0000000
vn -1.0000000 0.0000000 0.0000000
vn -1.0000000 0.0000000 0.0000000
vn -1.0000000 0.0000000 0.0000000
vn -1.0000000 0.0000000 0.0000000
vn -1.0000000 0.0000000 0.0000000
vn -1.0000000 0.0000000 0.0000000
vn -1.0000000 0.0000000 0.0000000
vn -1.0000000 0.0000000 0.0000000
vn -1.0000000 0.0000000 0.0000000
vn -1.0000000 0.0000000 0.0000000
vn -1.0000000 0.0000000 0.0000000
vn -1.0000000 0.0000000 0.0000000
vn -1.0000000 0.0000000 0.0000000
vn -1.0000000 0.0000000 0.0000000
vn -1.0000000 0.0000000 0.0000000
vn -1.0000000 0.0000000 0.0000000
vn -1.0000000 0.0000000 0.0000000
vn -1.0000000 0.0000000 0.0000000
vn -1.0000000 0.0000000 0.0000000
vn -1.0000000 0.0000000 0.0000000
vn -1.0000000 0.0000000 0.0000000
vn -1.0000000 0.0000000 0.0000000
vn -1.0000000 0.0000000 0.0000000
vn -1.0000000 0.0000000 0.0000000
vn -1.0000000 0.0000000 0.0000000
vn -1.0000000 0.0000000 0.0000000
vn -1.0000000 0.0000000 0.0000000
vn -1.0000000 0.0000000 0.0000000
vn -1.0000000 0.0000000 0.0000000
vn -1.0000000 0.0000000 0.0000000
vn -1.0000000 0.0000000 0.0000000
vn -1.0000000 0.0000000 0.0000000
vn -1.0000000 0.0000000 0.0000000
vn -1.0000000 0.0000000 0.0000000
vn -1.0000000 0.0000000 0.0000000
vn -1.0000000 0.0000000 0.0000000
vn 1.0000000 0.0000000 0.0000002
vn 1.0000000 0.0000000 0.0000002
vn 1.0000000 0.0000000 0.0000002
vn 1.0000000 0.0000000 0.0000002
vn 1.0000000 0.0000000 0.0000002
vn 1.0000000 0.0000000 0.0000002
vn 1.0000000 0.0000000 0.0000002
vn 1.0000000 0.0000000 0.0000002
vn 1.0000000 0.0000000 0.0000002
vn 1.0000000 0.0000000 0.0000002
vn 1.0000000 0.0000000 0.0000002
vn 1.0000000 0.0000000 0.0000002
vn 1.0000000 0.0000000 0.0000002
vn 1.0000000 0.0000000 0.0000002
vn 1.0000000 0.0000000 0.0000002
vn 1.0000000 0.0000000 0.0000002
vn 1.0000000 0.0000000 0.0000002
vn 1.0000000 0.0000000 0.0000002
vn 1.0000000 0.0000000 0.0000002
vn 1.0000000 0.0000000 0.0000002
vn 1.0000000 0.0000000 0.0000002
vn 1.0000000 0.0000000 0.0000002
vn 1.0000000 0.0000000 0.0000002
vn 1.0000000 0.0000000 0.0000002
vn 1.0000000 0.0000000 0.0000002
vn 1.0000000 0.0000000 0.0000002
vn 1.0000000 0.0000000 0.0000002
vn 1.0000000 0.0000000 0.0000002
vn 1.0000000 0.0000000 0.0000002
vn 1.0000000 0.0000000 0.0000002
vn 1.0000000 0.0000000 0.0000002
vn 1.0000000 0.0000000 0.0000002
vn 1.0000000 0.0000000 0.0000002
vn 1.0000000 0.0000000 0.0000002
vn 1.0000000 0.0000000 0.0000002
vn 1.0000000 0.0000000 0.0000002
vn 1.0000000 0.0000000 0.0000002
vn 1.0000000 0.0000000 0.0000002
vn 1.0000000 0.0000000 0.0000002
vn 1.0000000 0.0000000 0.0000002
vn 1.0000000 0.0000000 0.0000002
vn 1.0000000 0.0000000 0.0000002
vn 0.5773492 0.0000005 -0.8164974
vn 0.5773492 0.0000005 -0.8164974
vn 0.5773492 0.0000005 -0.8164974
vn -0.5773488 0.0000007 -0.8164976
vn -0.5773488 0.0000007 -0.8164976
vn -0.5773488 0.0000007 -0.8164976
vn -0.5773492 0.8164973 -0.0000006
vn -0.5773492 0.8164973 -0.0000006
vn -0.5773492 0.8164973 -0.0000006
vn 0.5773494 0.8164972 -0.0000008
vn 0.5773494 0.8164972 -0.0000008
vn 0.5773494 0.8164972 -0.0000008
vn 0.7071067 -0.5000001 -0.5000001
vn 0.7071067 -0.5000001 -0.5000001
vn 0.7071067 -0.5000001 -0.5000001
vn 0.7071067 -0.5000001 -0.5000001
vn 0.7071067 -0.5000001 -0.5000001
vn 0.7071067 -0.5000001 -0.5000001
vn 0.7071067 -0.5000001 -0.5000001
vn 0.7071067 -0.5000001 -0.5000001
vn 0.7071067 -0.5000001 -0.5000001
vn -0.7071069 -0.5000000 -0.4999998
vn -0.7071069 -0.5000000 -0.4999998
vn -0.7071069 -0.5000000 -0.4999998
vn -0.7071069 -0.5000000 -0.4999998
vn -0.7071069 -0.5000000 -0.4999998
vn -0.7071069 -0.5000000 -0.4999998
vn -0.7071069 -0.5000000 -0.4999998
vn -0.7071069 -0.5000000 -0.4999998
vn -0.7071069 -0.5000000 -0.4999998
vn -0.7071067 0.5000001 0.5000001
vn -0.7071067 0.5000001 0.5000001
vn -0.7071067 0.5000001 0.5000001
vn -0.7071067 0.5000001 0.5000001
vn -0.7071067 0.5000001 0.5000001
vn -0.7071067 0.5000001 0.5000001
vn -0.7071067 0.5000001 0.5000001
vn -0.7071067 0.5000001 0.5000001
vn -0.7071067 0.5000001 0.5000001
vn 0.7071069 0.5000000 0.4999998
vn 0.7071069 0.5000000 0.4999998
vn 0.7071069 0.5000000 0.4999998
vn 0.7071069 0.5000000 0.4999998
vn 0.7071069 0.5000000 0.4999998
vn 0.7071069 0.5000000 0.4999998
vn 0.7071069 0.5000000 0.4999998
vn 0.7071069 0.5000000 0.4999998
vn 0.7071069 0.5000000 0.4999998
vn 0.5773492 0.3124605 -0.7543449
vn 0.5773492 0.3124605 -0.7543449
vn 0.5773492 0.3124605 -0.7543449
vn -0.5773488 0.3124607 -0.7543452
vn -0.5773488 0.3124607 -0.7543452
vn -0.5773488 0.3124607 -0.7543452
vn -0.5773492 0.7543453 0.3124595
vn -0.5773492 0.7543453 0.3124595
vn -0.5773492 0.7543453 0.3124595
vn 0.5773494 0.7543453 0.3124593
vn 0.5773494 0.7543453 0.3124593
vn 0.5773494 0.7543453 0.3124593
vn 0.7071066 -0.2705981 -0.6532816
vn 0.7071066 -0.2705981 -0.6532816
vn 0.7071066 -0.2705981 -0.6532816
vn 0.7071066 -0.2705981 -0.6532816
vn 0.7071066 -0.2705981 -0.6532816
vn 0.7071066 -0.2705981 -0.6532816
vn 0.7071066 -0.2705981 -0.6532816
vn 0.7071066 -0.2705981 -0.6532816
vn 0.7071066 -0.2705981 -0.6532816
vn -0.7071069 -0.2705981 -0.6532814
vn -0.7071069 -0.2705981 -0.6532814
vn -0.7071069 -0.2705981 -0.6532814
vn -0.7071069 -0.2705981 -0.6532814
vn -0.7071069 -0.2705981 -0.6532814
vn -0.7071069 -0.2705981 -0.6532814
vn -0.7071069 -0.2705981 -0.6532814
vn -0.7071069 -0.2705981 -0.6532814
vn -0.7071069 -0.2705981 -0.6532814
vn -0.7071066 0.2705981 0.6532816
vn -0.7071066 0.2705981 0.6532816
vn -0.7071066 0.2705981 0.6532816
vn -0.7071066 0.2705981 0.6532816
vn -0.7071066 0.2705981 0.6532816
vn -0.7071066 0.2705981 0.6532816
vn -0.7071066 0.2705981 0.6532816
vn -0.7071066 0.2705981 0.6532816
vn -0.7071066 0.2705981 0.6532816
vn 0.7071069 0.2705981 0.6532814
vn 0.7071069 0.2705981 0.6532814
vn 0.7071069 0.2705981 0.6532814
vn 0.7071069 0.2705981 0.6532814
vn 0.7071069 0.2705981 0.6532814
vn 0.7071069 0.2705981 0.6532814
vn 0.7071069 0.2705981 0.6532814
vn 0.7071069 0.2705981 0.6532814
vn 0.7071069 0.2705981 0.6532814
vn 0.5773517 0.5773500 -0.5773492
vn 0.5773517 0.5773500 -0.5773492
vn 0.5773517 0.5773500 -0.5773492
vn -0.5773512 0.5773503 -0.5773494
vn -0.5773512 0.5773503 -0.5773494
vn -0.5773512 0.5773503 -0.5773494
vn -0.5773517 0.5773500 0.5773492
vn -0.5773517 0.5773500 0.5773492
vn -0.5773517 0.5773500 0.5773492
vn 0.5773518 0.5773500 0.5773491
vn 0.5773518 0.5773500 0.5773491
vn 0.5773518 0.5773500 0.5773491
vn 0.7071066 0.0000000 -0.7071069
vn 0.7071066 -0.0000000 -0.7071069
vn 0.7071066 0.0000000 -0.7071069
vn 0.7071066 0.0000000 -0.7071069
vn 0.7071066 -0.0000000 -0.7071069
vn 0.7071066 -0.0000000 -0.7071069
vn 0.7071066 0.0000000 -0.7071069
vn 0.7071066 -0.0000000 -0.7071069
vn 0.7071066 0.0000000 -0.7071069
vn -0.7071069 0.0000000 -0.7071067
vn -0.7071069 -0.0000000 -0.7071067
vn -0.7071069 0.0000000 -0.7071067
vn -0.7071069 0.0000000 -0.7071067
vn -0.7071069 -0.0000000 -0.7071067
vn -0.7071069 -0.0000000 -0.7071067
vn -0.7071069 0.0000000 -0.7071067
vn -0.7071069 -0.0000000 -0.7071067
vn -0.7071069 0.0000000 -0.7071067
vn -0.7071066 0.0000000 0.7071069
vn -0.7071066 0.0000000 0.7071069
vn -0.7071066 0.0000000 0.7071069
vn -0.7071066 0.0000000 0.7071069
vn -0.7071066 0.0000000 0.7071069
vn -0.7071066 0.0000000 0.7071069
vn -0.7071066 0.0000000 0.7071069
vn -0.7071066 0.0000000 0.7071069
vn -0.7071066 0.0000000 0.7071069
vn 0.7071069 0.0000000 0.7071067
vn 0.7071069 0.0000000 0.7071067
vn 0.7071069 0.0000000 0.7071067
vn 0.7071069 0.0000000 0.7071067
vn 0.7071069 0.0000000 0.7071067
vn 0.7071069 0.0000000 0.7071067
vn 0.7071069 0.0000000 0.7071067
vn 0.7071069 0.0000000 0.7071067
vn 0.7071069 0.0000000 0.7071067
vn -0.5773493 0.3124606 0.7543448
vn -0.5773493 0.3124606 0.7543448
vn -0.5773493 0.3124606 0.7543448
vn 0.5773486 0.3124608 0.7543453
vn 0.5773486 0.3124608 0.7543453
vn 0.5773486 0.3124608 0.7543453
vn 0.5773493 0.7543453 -0.3124595
vn 0.5773493 0.7543453 -0.3124595
vn 0.5773493 0.7543453 -0.3124595
vn -0.5773493 0.7543453 -0.3124595
vn -0.5773493 0.7543453 -0.3124595
vn -0.5773493 0.7543453 -0.3124595
vn -0.7071068 -0.2705980 0.6532815
vn -0.7071068 -0.2705980 0.6532815
vn -0.7071068 -0.2705980 0.6532815
vn -0.7071068 -0.2705980 0.6532815
vn -0.7071068 -0.2705980 0.6532815
vn -0.7071068 -0.2705980 0.6532815
vn -0.7071068 -0.2705980 0.6532815
vn -0.7071068 -0.2705980 0.6532815
vn -0.7071068 -0.2705980 0.6532815
vn 0.7071068 -0.2705980 0.6532815
vn 0.7071068 -0.2705980 0.6532815
vn 0.7071068 -0.2705980 0.6532815
vn 0.7071068 -0.2705980 0.6532815
vn 0.7071068 -0.2705980 0.6532815
vn 0.7071068 -0.2705980 0.6532815
vn 0.7071068 -0.2705980 0.6532815
vn 0.7071068 -0.2705980 0.6532815
vn 0.7071068 -0.2705980 0.6532815
vn 0.7071068 0.2705980 -0.6532815
vn 0.7071068 0.2705980 -0.6532815
vn 0.7071068 0.2705980 -0.6532815
vn 0.7071068 0.2705980 -0.6532815
vn 0.7071068 0.2705980 -0.6532815
vn 0.7071068 0.2705980 -0.6532815
vn 0.7071068 0.2705980 -0.6532815
vn 0.7071068 0.2705980 -0.6532815
vn 0.7071068 0.2705980 -0.6532815
vn -0.7071068 0.2705980 -0.6532815
vn -0.7071068 0.2705980 -0.6532815
vn -0.7071068 0.2705980 -0.6532815
vn -0.7071068 0.2705980 -0.6532815
vn -0.7071068 0.2705980 -0.6532815
vn -0.7071068 0.2705980 -0.6532815
vn -0.7071068 0.2705980 -0.6532815
vn -0.7071068 0.2705980 -0.6532815
vn -0.7071068 0.2705980 -0.6532815
vn -0.5773492 0.0000006 0.8164973
vn -0.5773492 0.0000006 0.8164973
vn -0.5773492 0.0000006 0.8164973
vn 0.5773486 0.0000007 0.8164977
vn 0.5773486 0.0000007 0.8164977
vn 0.5773486 0.0000007 0.8164977
vn 0.5773492 0.8164973 0.0000006
vn 0.5773492 0.8164973 0.0000006
vn 0.5773492 0.8164973 0.0000006
vn -0.5773492 0.8164973 0.0000006
vn -0.5773492 0.8164973 0.0000006
vn -0.5773492 0.8164973 0.0000006
vn 0.6893727 0.6448282 0.3300937
vn 0.6893727 0.6448282 0.3300937
vn 0.6893727 0.6448282 0.3300937
vn -0.9688185 0.2477715 0.0000002
vn -0.9688185 0.2477715 0.0000002
vn -0.9688185 0.2477715 0.0000002
vn -0.7071068 -0.5000000 0.5000000
vn -0.7071068 -0.5000000 0.5000000
vn -0.7071068 -0.5000000 0.5000000
vn -0.7071068 -0.5000000 0.5000000
vn -0.7071068 -0.5000000 0.5000000
vn -0.7071068 -0.5000000 0.5000000
vn -0.7071068 -0.5000000 0.5000000
vn -0.7071068 -0.5000000 0.5000000
vn -0.7071068 -0.5000000 0.5000000
vn 0.7071068 -0.5000000 0.5000000
vn 0.7071068 -0.5000000 0.5000000
vn 0.7071068 -0.5000000 0.5000000
vn 0.7071068 -0.5000000 0.5000000
vn 0.7071068 -0.5000000 0.5000000
vn 0.7071068 -0.5000000 0.5000000
vn 0.7071068 -0.5000000 0.5000000
vn 0.7071068 -0.5000000 0.5000000
vn 0.7071068 -0.5000000 0.5000000
vn 0.7071068 0.5000000 -0.5000000
vn 0.7071068 0.5000000 -0.5000000
vn 0.7071068 0.5000000 -0.5000000
vn 0.7071068 0.5000000 -0.5000000
vn 0.7071068 0.5000000 -0.5000000
vn 0.7071068 0.5000000 -0.5000000
vn 0.7071068 0.5000000 -0.5000000
vn 0.7071068 0.5000000 -0.5000000
vn 0.7071068 0.5000000 -0.5000000
vn -0.7071068 0.5000000 -0.5000000
vn -0.7071068 0.5000000 -0.5000000
vn -0.7071068 0.5000000 -0.5000000
vn -0.7071068 0.5000000 -0.5000000
vn -0.7071068 0.5000000 -0.5000000
vn -0.7071068 0.5000000 -0.5000000
vn -0.7071068 0.5000000 -0.5000000
vn -0.7071068 0.5000000 -0.5000000
vn -0.7071068 0.5000000 -0.5000000
f 1/1/1 2/2/2 3/3/3
f 4/4/4 5/5/5 6/6/6
f 7/7/7 8/8/8 9/9/9
f 10/10/10 11/11/11 12/12/12
f 13/13/13 14/14/14 15/15/15
f 16/16/16 17/17/17 18/18/18
f 19/19/19 20/20/20 21/21/21
f 22/22/22 23/23/23 24/24/24
f 25/25/25 26/26/26 27/27/27
f 28/28/28 29/29/29 30/30/30
f 31/31/31 32/32/32 33/33/33
f 34/34/34 35/35/35 36/36/36
f 37/37/37 38/38/38 39/39/39
f 40/40/40 41/41/41 42/42/42
f 43/43/43 44/44/44 45/45/45
f 46/46/46 47/47/47 48/48/48
f 49/49/49 50/50/50 51/51/51
f 52/52/52 53/53/53 54/54/54
f 55/55/55 56/56/56 57/57/57
f 58/58/58 59/59/59 60/60/60
f 61/61/61 62/62/62 63/63/63
f 64/64/64 65/65/65 66/66/66
f 67/67/67 68/68/68 69/69/69
f 70/70/70 71/71/71 72/72/72
f 73/73/73 74/74/74 75/75/75
f 76/76/76 77/77/77 78/78/78
f 79/79/79 80/80/80 81/81/81
f 82/82/82 83/83/83 84/84/84
f 85/85/85 86/86/86 87/87/87
f 88/88/88 89/89/89 90/90/90
f 91/91/91 92/92/92 93/93/93
f 94/94/94 95/95/95 96/96/96
f 97/97/97 98/98/98 99/99/99
f 100/100/100 101/101/101 102/102/102
f 103/103/103 104/104/104 105/105/105
f 106/106/106 107/107/107 108/108/108
f 109/109/109 110/110/110 111/111/111
f 112/112/112 113/113/113 114/114/114
f 115/115/115 116/116/116 117/117/117
f 118/118/118 119/119/119 120/120/120
f 121/121/121 122/122/122 123/123/123
f 124/124/124 125/125/125 126/126/126
f 127/127/127 128/128/128 129/129/129
f 130/130/130 131/131/131 132/132/132
f 133/133/133 134/134/134 135/135/135
f 136/136/136 137/137/137 138/138/138
f 139/139/139 140/140/140 141/141/141
f 142/142/142 143/143/143 144/144/144
f 145/145/145 146/146/146 147/147/147
f 148/148/148 149/149/149 150/150/150
f 151/151/151 152/152/152 153/153/153
f 154/154/154 155/155/155 156/156/156
f 157/157/157 158/158/158 159/159/159
f 160/160/160 161/161/161 162/162/162
f 163/163/163 164/164/164 165/165/165
f 166/166/166 167/167/167 168/168/168
f 169/169/169 170/170/170 171/171/171
f 172/172/172 173/173/173 174/174/174
f 175/175/175 176/176/176 177/177/177
f 178/178/178 179/179/179 180/180/180
f 181/181/181 182/182/182 183/183/183
f 184/184/184 185/185/185 186/186/186
f 187/187/187 188/188/188 189/189/189
f 190/190/190 191/191/191 192/192/192
f 193/193/193 194/194/194 195/195/195
f 196/196/196 197/197/197 198/198/198
f 199/199/199 200/200/200 201/201/201
f 202/202/202 203/203/203 204/204/204
f 205/205/205 206/206/206 207/207/207
f 208/208/208 209/209/209 210/210/210
f 211/211/211 212/212/212 213/213/213
f 214/214/214 215/215/215 216/216/216
f 217/217/217 218/218/218 219/219/219
f 220/220/220 221/221/221 222/222/222
f 223/223/223 224/224/224 225/225/225
f 226/226/226 227/227/227 228/228/228
f 229/229/229 230/230/230 231/231/231
f 232/232/232 233/233/233 234/234/234
f 235/235/235 236/236/236 237/237/237
f 238/238/238 239/239/239 240/240/240
f 241/241/241 242/242/242 243/243/243
f 244/244/244 245/245/245 246/246/246
f 247/247/247 248/248/248 249/249/249
f 250/250/250 251/251/251 252/252/252
f 253/253/253 254/254/254 255/255/255
f 256/256/256 257/257/257 258/258/258
f 259/259/259 260/260/260 261/261/261
f 262/262/262 263/263/263 264/264/264
f 265/265/265 266/266/266 267/267/267
f 268/268/268 269/269/269 270/270/270
f 271/271/271 272/272/272 273/273/273
f 274/274/274 275/275/275 276/276/276
f 277/277/277 278/278/278 279/279/279
f 280/280/280 281/281/281 282/282/282
f 283/283/283 284/284/284 285/285/285
f 286/286/286 287/287/287 288/288/288
f 289/289/289 290/290/290 291/291/291
f 292/292/292 293/293/293 294/294/294
f 295/295/295 296/296/296 297/297/297
f 298/298/298 299/299/299 300/300/300
f 301/301/301 302/302/302 303/303/303
f 304/304/304 305/305/305 306/306/306
f 307/307/307 308/308/308 309/309/309
f 310/310/310 311/311/311 312/312/312
f 313/313/313 314/314/314 315/315/315
f 316/316/316 317/317/317 318/318/318
f 319/319/319 320/320/320 321/321/321
f 322/322/322 323/323/323 324/324/324
f 325/325/325 326/326/326 327/327/327
f 328/328/328 329/329/329 330/330/330
f 331/331/331 332/332/332 333/333/333
f 334/334/334 335/335/335 336/336/336
f 337/337/337 338/338/338 339/339/339
f 340/340/340 341/341/341 342/342/342
f 343/343/343 344/344/344 345/345/345
f 346/346/346 347/347/347 348/348/348
f 349/349/349 350/350/350 351/351/351
f 352/352/352 353/353/353 354/354/354
f 355/355/355 356/356/356 357/357/357
f 358/358/358 359/359/359 360/360/360
f 361/361/361 362/362/362 363/363/363
f 364/364/364 365/365/365 366/366/366
f 367/367/367 368/368/368 369/369/369
f 370/370/370 371/371/371 372/372/372
f 373/373/373 374/374/374 375/375/375
f 376/376/376 377/377/377 378/378/378
f 379/379/379 380/380/380 381/381/381
f 382/382/382 383/383/383 384/384/384
f 385/385/385 386/386/386 387/387/387
f 388/388/388 389/389/389 390/390/390
f 391/391/391 392/392/392 393/393/393
f 394/394/394 395/395/395 396/396/396
f 397/397/397 398/398/398 399/399/399
f 400/400/400 401/401/401 402/402/402
f 403/403/403 404/404/404 405/405/405
f 406/406/406 407/407/407 408/408/408
f 409/409/409 410/410/410 411/411/411
f 412/412/412 413/413/413 414/414/414
f 415/415/415 416/416/416 417/417/417
f 418/418/418 419/419/419 420/420/420
f 421/421/421 422/422/422 423/423/423
f 424/424/424 425/425/425 426/426/426
f 427/427/427 428/428/428 429/429/429
f 430/430/430 431/431/431 432/432/432
f 433/433/433 434/434/434 435/435/435
f 436/436/436 437/437/437 438/438/438
f 439/439/439 440/440/440 441/441/441
f 442/442/442 443/443/443 444/444/444
f 445/445/445 446/446/446 447/447/447
f 448/448/448 449/449/449 450/450/450
f 451/451/451 452/452/452 453/453/453
f 454/454/454 455/455/455 456/456/456
f 457/457/457 458/458/458 459/459/459
f 460/460/460 461/461/461 462/462/462
f 463/463/463 464/464/464 465/465/465
f 466/466/466 467/467/467 468/468/468
f 469/469/469 470/470/470 471/471/471
f 472/472/472 473/473/473 474/474/474
f 475/475/475 476/476/476 477/477/477
