# metre = block; Y up; per-cell coordinates; atlas UVs preserved
mtllib materials.mtl
o cell_5
usemtl pump_atlas
v 0.0000000 0.7864297 0.9744306
v 1.0000000 0.7864297 0.9744306
v 1.0000000 0.7727626 1.0000000
v 0.0000000 0.7864297 0.9744306
v 1.0000000 0.7727626 1.0000000
v 0.0000000 0.7727626 1.0000000
v 0.0000000 0.9040769 0.8310769
v 1.0000000 0.9040769 0.8310769
v 1.0000000 0.8570924 0.8883278
v 0.0000000 0.9040769 0.8310769
v 1.0000000 0.8570924 0.8883278
v 0.0000000 0.7998988 0.9580184
v 0.0000000 0.7998988 0.9580184
v 1.0000000 0.8570924 0.8883278
v 1.0000000 0.7864297 0.9744306
v 0.0000000 0.7998988 0.9580184
v 1.0000000 0.7864297 0.9744306
v 0.0000000 0.7864297 0.9744306
v 1.0000000 1.0000000 0.7523549
v 1.0000000 0.9901797 0.7604142
v 0.0000000 0.9204890 0.8176078
v 1.0000000 1.0000000 0.7523549
v 0.0000000 0.9204890 0.8176078
v 0.0000000 1.0000000 0.7523549
v 0.0000000 0.9204890 0.8176078
v 1.0000000 0.9901797 0.7604142
v 1.0000000 0.9040769 0.8310769
v 0.0000000 0.9204890 0.8176078
v 1.0000000 0.9040769 0.8310769
v 0.0000000 0.9040769 0.8310769
v 0.0000000 0.9949899 0.6670086
v 1.0000000 0.9949899 0.6670086
v 1.0000000 0.9912724 0.6664198
v 0.0000000 0.9949899 0.6670086
v 1.0000000 0.9912724 0.6664198
v 0.0000000 0.9943056 0.6669002
v 0.0000000 0.9943056 0.6669002
v 1.0000000 0.9912724 0.6664198
v 1.0000000 0.9888440 0.6660352
v 0.0000000 0.9943056 0.6669002
v 1.0000000 0.9888440 0.6660352
v 0.0000000 0.9888440 0.6660352
v 0.0000000 0.9603666 0.6867253
v 1.0000000 0.9603666 0.6867253
v 1.0000000 0.9597778 0.6904428
v 0.0000000 0.9603666 0.6867253
v 1.0000000 0.9597778 0.6904428
v 0.0000000 0.9602582 0.6874096
v 0.0000000 0.9602582 0.6874096
v 1.0000000 0.9597778 0.6904428
v 1.0000000 0.9593931 0.6928712
v 0.0000000 0.9602582 0.6874096
v 1.0000000 0.9593931 0.6928712
v 0.0000000 0.9593931 0.6928712
v 1.0000000 1.0000000 0.6739044
v 1.0000000 0.9949899 0.6670086
v 0.0000000 0.9949899 0.6670086
v 1.0000000 1.0000000 0.6739044
v 0.0000000 0.9949899 0.6670086
v 0.0000000 1.0000000 0.6739044
v 0.0000000 0.9593931 0.6928712
v 1.0000000 0.9593931 0.6928712
v 1.0000000 0.9765098 0.7164303
v 0.0000000 0.9593931 0.6928712
v 1.0000000 0.9765098 0.7164303
v 0.0000000 0.9978897 0.7458571
v 0.0000000 0.9978897 0.7458571
v 1.0000000 0.9765098 0.7164303
v 1.0000000 1.0000000 0.7487617
v 0.0000000 0.9978897 0.7458571
v 1.0000000 1.0000000 0.7487617
v 0.0000000 1.0000000 0.7487617
v 0.0000000 0.9888440 0.6660352
v 1.0000000 0.9888440 0.6660352
v 1.0000000 0.9716187 0.6785501
v 0.0000000 0.9888440 0.6660352
v 1.0000000 0.9716187 0.6785501
v 0.0000000 0.9856733 0.6683389
v 0.0000000 0.9856733 0.6683389
v 1.0000000 0.9716187 0.6785501
v 1.0000000 0.9603666 0.6867253
v 0.0000000 0.9856733 0.6683389
v 1.0000000 0.9603666 0.6867253
v 0.0000000 0.9603666 0.6867253
v 0.0000000 0.8264692 0.9358588
v 1.0000000 0.8264692 0.9358588
v 1.0000000 0.8260846 0.9334304
v 0.0000000 0.8264692 0.9358588
v 1.0000000 0.8260846 0.9334304
v 0.0000000 0.8256042 0.9303971
v 0.0000000 0.8256042 0.9303971
v 1.0000000 0.8260846 0.9334304
v 1.0000000 0.8254958 0.9297128
v 0.0000000 0.8256042 0.9303971
v 1.0000000 0.8254958 0.9297128
v 0.0000000 0.8254958 0.9297128
v 0.0000000 0.7996332 0.9653096
v 1.0000000 0.7996332 0.9653096
v 1.0000000 0.8020616 0.9649250
v 0.0000000 0.7996332 0.9653096
v 1.0000000 0.8020616 0.9649250
v 0.0000000 0.8050949 0.9644446
v 0.0000000 0.8050949 0.9644446
v 1.0000000 0.8020616 0.9649250
v 1.0000000 0.8057792 0.9643362
v 0.0000000 0.8050949 0.9644446
v 1.0000000 0.8057792 0.9643362
v 0.0000000 0.8057792 0.9643362
v 0.0000000 0.7658712 0.8863931
v 1.0000000 0.7658712 0.8863931
v 1.0000000 0.7621537 0.8869819
v 0.0000000 0.7658712 0.8863931
v 1.0000000 0.7621537 0.8869819
v 0.0000000 0.7651869 0.8865015
v 0.0000000 0.7651869 0.8865015
v 1.0000000 0.7621537 0.8869819
v 1.0000000 0.7597253 0.8873665
v 0.0000000 0.7651869 0.8865015
v 1.0000000 0.7597253 0.8873665
v 0.0000000 0.7597253 0.8873665
v 0.0000000 0.7390352 0.9158439
v 1.0000000 0.7390352 0.9158439
v 1.0000000 0.7396240 0.9195615
v 0.0000000 0.7390352 0.9158439
v 1.0000000 0.7396240 0.9195615
v 0.0000000 0.7391436 0.9165282
v 0.0000000 0.7391436 0.9165282
v 1.0000000 0.7396240 0.9195615
v 1.0000000 0.7400087 0.9219899
v 0.0000000 0.7391436 0.9165282
v 1.0000000 0.7400087 0.9219899
v 0.0000000 0.7400087 0.9219899
v 0.0000000 0.8254958 0.9297128
v 1.0000000 0.8254958 0.9297128
v 1.0000000 0.7894303 0.9035097
v 0.0000000 0.8254958 0.9297128
v 1.0000000 0.7894303 0.9035097
v 0.0000000 0.8188571 0.9248895
v 0.0000000 0.8188571 0.9248895
v 1.0000000 0.7894303 0.9035097
v 1.0000000 0.7658712 0.8863931
v 0.0000000 0.8188571 0.9248895
v 1.0000000 0.7658712 0.8863931
v 0.0000000 0.7658712 0.8863931
v 0.0000000 0.8057792 0.9643362
v 1.0000000 0.8057792 0.9643362
v 1.0000000 0.8139543 0.9530841
v 0.0000000 0.8057792 0.9643362
v 1.0000000 0.8139543 0.9530841
v 0.0000000 0.8241655 0.9390295
v 0.0000000 0.8241655 0.9390295
v 1.0000000 0.8139543 0.9530841
v 1.0000000 0.8264692 0.9358588
v 0.0000000 0.8241655 0.9390295
v 1.0000000 0.8264692 0.9358588
v 0.0000000 0.8264692 0.9358588
v 0.0000000 0.7400087 0.9219899
v 1.0000000 0.7400087 0.9219899
v 1.0000000 0.7635678 0.9391065
v 0.0000000 0.7400087 0.9219899
v 1.0000000 0.7635678 0.9391065
v 0.0000000 0.7929945 0.9604863
v 0.0000000 0.7929945 0.9604863
v 1.0000000 0.7635678 0.9391065
v 1.0000000 0.7996332 0.9653096
v 0.0000000 0.7929945 0.9604863
v 1.0000000 0.7996332 0.9653096
v 0.0000000 0.7996332 0.9653096
v 0.0000000 0.7597253 0.8873665
v 1.0000000 0.7597253 0.8873665
v 1.0000000 0.7472104 0.9045918
v 0.0000000 0.7597253 0.8873665
v 1.0000000 0.7472104 0.9045918
v 0.0000000 0.7574216 0.8905372
v 0.0000000 0.7574216 0.8905372
v 1.0000000 0.7472104 0.9045918
v 1.0000000 0.7390352 0.9158439
v 0.0000000 0.7574216 0.8905372
v 1.0000000 0.7390352 0.9158439
v 0.0000000 0.7390352 0.9158439
v 0.0868000 0.3212000 0.9252280
v 0.0868000 0.3080000 0.9120280
v 0.1000000 0.3212000 0.9120280
v 0.0868000 0.3080000 0.6084280
v 0.0868000 0.3212000 0.5952280
v 0.1000000 0.3212000 0.6084280
v 0.0000000 0.3080000 0.9120280
v 0.0868000 0.3080000 0.9120280
v 0.0000000 0.3128222 0.9168502
v 0.0000000 0.3128222 0.9168502
v 0.0868000 0.3080000 0.9120280
v 0.0868000 0.3212000 0.9252280
v 0.0000000 0.3128222 0.9168502
v 0.0868000 0.3212000 0.9252280
v 0.0000000 0.3212000 0.9252280
v 0.0000000 0.3212000 0.5952280
v 0.0868000 0.3212000 0.5952280
v 0.0000000 0.3163778 0.6000502
v 0.0000000 0.3163778 0.6000502
v 0.0868000 0.3212000 0.5952280
v 0.0868000 0.3080000 0.6084280
v 0.0000000 0.3163778 0.6000502
v 0.0868000 0.3080000 0.6084280
v 0.0000000 0.3080000 0.6084280
v 0.0868000 0.3080000 0.9120280
v 0.0868000 0.3080000 0.6084280
v 0.1000000 0.3212000 0.6084280
v 0.0868000 0.3080000 0.9120280
v 0.1000000 0.3212000 0.6084280
v 0.1000000 0.3212000 0.9120280
v 0.0868000 0.3212000 0.9252280
v 0.1000000 0.3212000 0.9120280
v 0.1000000 1.0000000 0.9120280
v 0.0868000 0.3212000 0.9252280
v 0.1000000 1.0000000 0.9120280
v 0.0985034 1.0000000 0.9135246
v 0.0868000 0.3212000 0.9252280
v 0.0985034 1.0000000 0.9135246
v 0.0868000 1.0000000 0.9252280
v 0.0868000 0.3212000 0.5952280
v 0.0868000 1.0000000 0.5952280
v 0.0985034 1.0000000 0.6069314
v 0.0868000 0.3212000 0.5952280
v 0.0985034 1.0000000 0.6069314
v 0.1000000 1.0000000 0.6084280
v 0.0868000 0.3212000 0.5952280
v 0.1000000 1.0000000 0.6084280
v 0.1000000 0.3212000 0.6084280
v 0.0000000 0.3212000 0.9252280
v 0.0868000 0.3212000 0.9252280
v 0.0868000 1.0000000 0.9252280
v 0.0000000 0.3212000 0.9252280
v 0.0868000 1.0000000 0.9252280
v 0.0598620 1.0000000 0.9252280
v 0.0000000 0.3212000 0.9252280
v 0.0598620 1.0000000 0.9252280
v 0.0000000 0.8071112 0.9252280
v 0.0000000 0.8071112 0.9252280
v 0.0598620 1.0000000 0.9252280
v 0.0000000 1.0000000 0.9252280
v 0.0000000 0.3080000 0.6084280
v 0.0868000 0.3080000 0.6084280
v 0.0000000 0.3080000 0.7193391
v 0.0000000 0.3080000 0.7193391
v 0.0868000 0.3080000 0.6084280
v 0.0868000 0.3080000 0.9120280
v 0.0000000 0.3080000 0.7193391
v 0.0868000 0.3080000 0.9120280
v 0.0000000 0.3080000 0.9120280
v 0.1000000 0.3212000 0.9120280
v 0.1000000 0.3212000 0.6084280
v 0.1000000 1.0000000 0.6084280
v 0.1000000 0.3212000 0.9120280
v 0.1000000 1.0000000 0.6084280
v 0.1000000 1.0000000 0.6428487
v 0.1000000 0.3212000 0.9120280
v 0.1000000 1.0000000 0.6428487
v 0.1000000 1.0000000 0.9120280
v 0.0598620 1.0000000 0.5952280
v 0.0000000 0.8071112 0.5952280
v 0.0000000 1.0000000 0.5952280
v 0.0000000 0.8071112 0.5952280
v 0.0598620 1.0000000 0.5952280
v 0.0868000 1.0000000 0.5952280
v 0.0000000 0.8071112 0.5952280
v 0.0868000 1.0000000 0.5952280
v 0.0868000 0.3212000 0.5952280
v 0.0000000 0.8071112 0.5952280
v 0.0868000 0.3212000 0.5952280
v 0.0000000 0.3212000 0.5952280
v 0.1913000 0.2882000 0.9967280
v 0.1913000 0.2750000 0.9835280
v 0.2045000 0.2882000 0.9835280
v 0.1913000 0.2750000 0.5369279
v 0.1913000 0.2882000 0.5237280
v 0.2045000 0.2882000 0.5369279
v 0.1913000 0.3718000 0.9967280
v 0.2045000 0.3718000 0.9835280
v 0.1913000 0.3850000 0.9835280
v 0.1913000 0.3850000 0.5369279
v 0.2045000 0.3718000 0.5369279
v 0.1913000 0.3718000 0.5237280
v 0.0000000 0.2750000 0.9835280
v 0.1913000 0.2750000 0.9835280
v 0.0000000 0.2806542 0.9891822
v 0.0000000 0.2806542 0.9891822
v 0.1913000 0.2750000 0.9835280
v 0.1913000 0.2882000 0.9967280
v 0.0000000 0.2806542 0.9891822
v 0.1913000 0.2882000 0.9967280
v 0.0000000 0.2882000 0.9967280
v 0.0000000 0.2882000 0.5237280
v 0.1913000 0.2882000 0.5237280
v 0.0000000 0.2825458 0.5293821
v 0.0000000 0.2825458 0.5293821
v 0.1913000 0.2882000 0.5237280
v 0.1913000 0.2750000 0.5369279
v 0.0000000 0.2825458 0.5293821
v 0.1913000 0.2750000 0.5369279
v 0.0000000 0.2750000 0.5369279
v 0.1913000 0.2750000 0.9835280
v 0.1913000 0.2750000 0.5369279
v 0.2045000 0.2882000 0.5369279
v 0.1913000 0.2750000 0.9835280
v 0.2045000 0.2882000 0.5369279
v 0.2045000 0.2882000 0.9835280
v 0.0000000 0.3718000 0.9967280
v 0.1913000 0.3718000 0.9967280
v 0.1913000 0.3850000 0.9835280
v 0.0000000 0.3718000 0.9967280
v 0.1913000 0.3850000 0.9835280
v 0.0000000 0.3793458 0.9891822
v 0.0000000 0.3793458 0.9891822
v 0.1913000 0.3850000 0.9835280
v 0.0000000 0.3850000 0.9835280
v 0.1913000 0.3850000 0.9835280
v 0.2045000 0.3718000 0.9835280
v 0.2045000 0.3718000 0.5369279
v 0.1913000 0.3850000 0.9835280
v 0.2045000 0.3718000 0.5369279
v 0.1913000 0.3850000 0.5369279
v 0.0000000 0.3850000 0.5369279
v 0.1913000 0.3850000 0.5369279
v 0.1913000 0.3718000 0.5237280
v 0.0000000 0.3850000 0.5369279
v 0.1913000 0.3718000 0.5237280
v 0.0000000 0.3774542 0.5293821
v 0.0000000 0.3774542 0.5293821
v 0.1913000 0.3718000 0.5237280
v 0.0000000 0.3718000 0.5237280
v 0.1913000 0.2882000 0.9967280
v 0.2045000 0.2882000 0.9835280
v 0.2045000 0.3718000 0.9835280
v 0.1913000 0.2882000 0.9967280
v 0.2045000 0.3718000 0.9835280
v 0.1913000 0.3718000 0.9967280
v 0.1913000 0.2882000 0.5237280
v 0.1913000 0.3718000 0.5237280
v 0.2045000 0.3718000 0.5369279
v 0.1913000 0.2882000 0.5237280
v 0.2045000 0.3718000 0.5369279
v 0.2045000 0.2882000 0.5369279
v 0.0000000 0.2882000 0.9967280
v 0.1913000 0.2882000 0.9967280
v 0.1913000 0.3718000 0.9967280
v 0.0000000 0.2882000 0.9967280
v 0.1913000 0.3718000 0.9967280
v 0.0000000 0.3359901 0.9967280
v 0.0000000 0.3359901 0.9967280
v 0.1913000 0.3718000 0.9967280
v 0.0000000 0.3718000 0.9967280
v 0.0000000 0.2750000 0.5369279
v 0.1913000 0.2750000 0.5369279
v 0.0000000 0.2750000 0.7282279
v 0.0000000 0.2750000 0.7282279
v 0.1913000 0.2750000 0.5369279
v 0.1913000 0.2750000 0.9835280
v 0.0000000 0.2750000 0.7282279
v 0.1913000 0.2750000 0.9835280
v 0.0000000 0.2750000 0.9835280
v 0.2045000 0.2882000 0.9835280
v 0.2045000 0.2882000 0.5369279
v 0.2045000 0.3718000 0.5369279
v 0.2045000 0.2882000 0.9835280
v 0.2045000 0.3718000 0.5369279
v 0.2045000 0.3718000 0.9835280
v 0.0000000 0.3718000 0.5237280
v 0.1913000 0.3718000 0.5237280
v 0.0000000 0.3359901 0.5237280
v 0.0000000 0.3359901 0.5237280
v 0.1913000 0.3718000 0.5237280
v 0.1913000 0.2882000 0.5237280
v 0.0000000 0.3359901 0.5237280
v 0.1913000 0.2882000 0.5237280
v 0.0000000 0.2882000 0.5237280
v 0.0000000 0.3850000 0.9835280
v 0.1913000 0.3850000 0.9835280
v 0.1913000 0.3850000 0.5369279
v 0.0000000 0.3850000 0.9835280
v 0.1913000 0.3850000 0.5369279
v 0.0000000 0.3850000 0.7282279
v 0.0000000 0.3850000 0.7282279
v 0.1913000 0.3850000 0.5369279
v 0.0000000 0.3850000 0.5369279
v 0.0945001 0.3916000 0.7888068
v 0.0945001 0.4290000 0.7888068
v 0.0780001 0.4290000 0.7602280
v 0.0945001 0.3916000 0.7888068
v 0.0780001 0.4290000 0.7602280
v 0.0780001 0.3916000 0.7602280
v 0.1275001 0.3916000 0.7888068
v 0.1275001 0.4290000 0.7888068
v 0.0945001 0.4290000 0.7888068
v 0.1275001 0.3916000 0.7888068
v 0.0945001 0.4290000 0.7888068
v 0.0945001 0.3916000 0.7888068
v 0.1440001 0.3916000 0.7602280
v 0.1440001 0.4290000 0.7602280
v 0.1275001 0.4290000 0.7888068
v 0.1440001 0.3916000 0.7602280
v 0.1275001 0.4290000 0.7888068
v 0.1275001 0.3916000 0.7888068
v 0.1440001 0.3916000 0.7602280
v 0.1275001 0.3916000 0.7316492
v 0.1275001 0.4290000 0.7316492
v 0.1440001 0.3916000 0.7602280
v 0.1275001 0.4290000 0.7316492
v 0.1440001 0.4290000 0.7602280
v 0.1275001 0.3916000 0.7316492
v 0.0945001 0.3916000 0.7316492
v 0.0945001 0.4290000 0.7316492
v 0.1275001 0.3916000 0.7316492
v 0.0945001 0.4290000 0.7316492
v 0.1275001 0.4290000 0.7316492
v 0.0945001 0.3916000 0.7316492
v 0.0780001 0.3916000 0.7602280
v 0.0780001 0.4290000 0.7602280
v 0.0945001 0.3916000 0.7316492
v 0.0780001 0.4290000 0.7602280
v 0.0945001 0.4290000 0.7316492
v 0.1440001 0.3916000 0.7602280
v 0.1275001 0.3916000 0.7888068
v 0.0945001 0.3916000 0.7888068
v 0.1440001 0.3916000 0.7602280
v 0.0945001 0.3916000 0.7888068
v 0.0780001 0.3916000 0.7602280
v 0.1440001 0.3916000 0.7602280
v 0.0780001 0.3916000 0.7602280
v 0.0945001 0.3916000 0.7316492
v 0.1440001 0.3916000 0.7602280
v 0.0945001 0.3916000 0.7316492
v 0.1275001 0.3916000 0.7316492
v 0.1440001 0.4290000 0.7602280
v 0.1275001 0.4290000 0.7316492
v 0.0945001 0.4290000 0.7316492
v 0.1440001 0.4290000 0.7602280
v 0.0945001 0.4290000 0.7316492
v 0.0780001 0.4290000 0.7602280
v 0.1440001 0.4290000 0.7602280
v 0.0780001 0.4290000 0.7602280
v 0.0945001 0.4290000 0.7888068
v 0.1440001 0.4290000 0.7602280
v 0.0945001 0.4290000 0.7888068
v 0.1275001 0.4290000 0.7888068
v 0.0000000 0.0000000 0.3428000
v 1.0000000 0.0000000 0.3428000
v 1.0000000 0.0030581 0.3458581
v 0.0000000 0.0000000 0.3428000
v 1.0000000 0.0030581 0.3458581
v 0.0000000 0.0048290 0.3476291
v 0.0000000 0.0048290 0.3476291
v 1.0000000 0.0030581 0.3458581
v 1.0000000 0.0132000 0.3560001
v 0.0000000 0.0048290 0.3476291
v 1.0000000 0.0132000 0.3560001
v 0.0000000 0.0132000 0.3560001
v 0.0000000 0.0132000 0.0700001
v 1.0000000 0.0132000 0.0700001
v 1.0000000 0.0101419 0.0730582
v 0.0000000 0.0132000 0.0700001
v 1.0000000 0.0101419 0.0730582
v 0.0000000 0.0083710 0.0748291
v 0.0000000 0.0083710 0.0748291
v 1.0000000 0.0101419 0.0730582
v 1.0000000 0.0000000 0.0832001
v 0.0000000 0.0083710 0.0748291
v 1.0000000 0.0000000 0.0832001
v 0.0000000 0.0000000 0.0832001
v 0.0000000 0.2728000 0.3560001
v 1.0000000 0.2728000 0.3560001
v 1.0000000 0.2829419 0.3458581
v 0.0000000 0.2728000 0.3560001
v 1.0000000 0.2829419 0.3458581
v 0.0000000 0.2811710 0.3476291
v 0.0000000 0.2811710 0.3476291
v 1.0000000 0.2829419 0.3458581
v 1.0000000 0.2860000 0.3428000
v 0.0000000 0.2811710 0.3476291
v 1.0000000 0.2860000 0.3428000
v 0.0000000 0.2860000 0.3428000
v 0.0000000 0.2860000 0.0832001
v 1.0000000 0.2860000 0.0832001
v 1.0000000 0.2758581 0.0730582
v 0.0000000 0.2860000 0.0832001
v 1.0000000 0.2758581 0.0730582
v 0.0000000 0.2776290 0.0748291
v 0.0000000 0.2776290 0.0748291
v 1.0000000 0.2758581 0.0730582
v 1.0000000 0.2728000 0.0700001
v 0.0000000 0.2776290 0.0748291
v 1.0000000 0.2728000 0.0700001
v 0.0000000 0.2728000 0.0700001
v 0.0000000 0.0132000 0.3560001
v 1.0000000 0.0132000 0.3560001
v 1.0000000 0.2126576 0.3560001
v 0.0000000 0.0132000 0.3560001
v 1.0000000 0.2126576 0.3560001
v 0.0000000 0.1778288 0.3560001
v 0.0000000 0.1778288 0.3560001
v 1.0000000 0.2126576 0.3560001
v 1.0000000 0.2728000 0.3560001
v 0.0000000 0.1778288 0.3560001
v 1.0000000 0.2728000 0.3560001
v 0.0000000 0.2728000 0.3560001
v 0.0000000 0.0000000 0.0832001
v 1.0000000 0.0000000 0.0832001
v 1.0000000 0.0000000 0.1433425
v 0.0000000 0.0000000 0.0832001
v 1.0000000 0.0000000 0.1433425
v 0.0000000 0.0000000 0.1781713
v 0.0000000 0.0000000 0.1781713
v 1.0000000 0.0000000 0.1433425
v 1.0000000 0.0000000 0.3428000
v 0.0000000 0.0000000 0.1781713
v 1.0000000 0.0000000 0.3428000
v 0.0000000 0.0000000 0.3428000
v 0.0000000 0.2728000 0.0700001
v 1.0000000 0.2728000 0.0700001
v 1.0000000 0.2126576 0.0700001
v 0.0000000 0.2728000 0.0700001
v 1.0000000 0.2126576 0.0700001
v 0.0000000 0.1778288 0.0700001
v 0.0000000 0.1778288 0.0700001
v 1.0000000 0.2126576 0.0700001
v 1.0000000 0.0132000 0.0700001
v 0.0000000 0.1778288 0.0700001
v 1.0000000 0.0132000 0.0700001
v 0.0000000 0.0132000 0.0700001
v 0.0000000 0.2860000 0.3428000
v 1.0000000 0.2860000 0.3428000
v 1.0000000 0.2860000 0.1433425
v 0.0000000 0.2860000 0.3428000
v 1.0000000 0.2860000 0.1433425
v 0.0000000 0.2860000 0.1781713
v 0.0000000 0.2860000 0.1781713
v 1.0000000 0.2860000 0.1433425
v 1.0000000 0.2860000 0.0832001
v 0.0000000 0.2860000 0.1781713
v 1.0000000 0.2860000 0.0832001
v 0.0000000 0.2860000 0.0832001
v 0.0000000 0.1969000 0.1359999
v 1.0000000 0.1969000 0.1359999
v 1.0000000 0.1946600 0.1382399
v 0.0000000 0.1969000 0.1359999
v 1.0000000 0.1946600 0.1382399
v 0.0000000 0.1933050 0.1395949
v 0.0000000 0.1933050 0.1395949
v 1.0000000 0.1946600 0.1382399
v 1.0000000 0.1870000 0.1458999
v 0.0000000 0.1933050 0.1395949
v 1.0000000 0.1870000 0.1458999
v 0.0000000 0.1870000 0.1458999
v 0.0000000 0.2420000 0.1458999
v 1.0000000 0.2420000 0.1458999
v 1.0000000 0.2343400 0.1382399
v 0.0000000 0.2420000 0.1458999
v 1.0000000 0.2343400 0.1382399
v 0.0000000 0.2356950 0.1395949
v 0.0000000 0.2356950 0.1395949
v 1.0000000 0.2343400 0.1382399
v 1.0000000 0.2321000 0.1359999
v 0.0000000 0.2356950 0.1395949
v 1.0000000 0.2321000 0.1359999
v 0.0000000 0.2321000 0.1359999
v 0.0000000 0.1870000 0.1458999
v 1.0000000 0.1870000 0.1458999
v 1.0000000 0.1870000 0.7586570
v 0.0000000 0.1870000 0.1458999
v 1.0000000 0.1870000 0.7586570
v 0.3489032 0.1870000 1.0000000
v 0.0000000 0.1870000 0.1458999
v 0.3489032 0.1870000 1.0000000
v 0.0000000 0.1870000 1.0000000
v 0.3489032 0.1870000 1.0000000
v 1.0000000 0.1870000 0.7586570
v 1.0000000 0.1870000 1.0000000
v 0.0000000 0.2321000 0.1359999
v 1.0000000 0.2321000 0.1359999
v 1.0000000 0.2241357 0.1359999
v 0.0000000 0.2321000 0.1359999
v 1.0000000 0.2241357 0.1359999
v 0.0000000 0.2193178 0.1359999
v 0.0000000 0.2193178 0.1359999
v 1.0000000 0.2241357 0.1359999
v 1.0000000 0.1969000 0.1359999
v 0.0000000 0.2193178 0.1359999
v 1.0000000 0.1969000 0.1359999
v 0.0000000 0.1969000 0.1359999
v 1.0000000 0.2420000 1.0000000
v 1.0000000 0.2420000 0.7586570
v 0.3489032 0.2420000 1.0000000
v 0.3489032 0.2420000 1.0000000
v 1.0000000 0.2420000 0.7586570
v 1.0000000 0.2420000 0.1458999
v 0.3489032 0.2420000 1.0000000
v 1.0000000 0.2420000 0.1458999
v 0.0000000 0.2420000 0.1458999
v 0.3489032 0.2420000 1.0000000
v 0.0000000 0.2420000 0.1458999
v 0.0000000 0.2420000 1.0000000
vt 0.4015152 0.0950529
vt 0.4488636 0.0950529
vt 0.4488636 0.0934692
vt 0.4015152 0.0950529
vt 0.4488636 0.0934692
vt 0.4015152 0.0934692
vt 0.4015152 0.1039320
vt 0.4488636 0.1039320
vt 0.4488636 0.1003860
vt 0.4015152 0.1039320
vt 0.4488636 0.1003860
vt 0.4015152 0.0960694
vt 0.4015152 0.0960694
vt 0.4488636 0.1003860
vt 0.4488636 0.0950529
vt 0.4015152 0.0960694
vt 0.4488636 0.0950529
vt 0.4015152 0.0950529
vt 0.4488636 0.0270093
vt 0.4488636 0.0264011
vt 0.4015152 0.0220845
vt 0.4488636 0.0270093
vt 0.4015152 0.0220845
vt 0.4015152 0.0270093
vt 0.4015152 0.0220845
vt 0.4488636 0.0264011
vt 0.4488636 0.0210680
vt 0.4015152 0.0220845
vt 0.4488636 0.0210680
vt 0.4015152 0.0210680
vt 0.3920947 0.1148437
vt 0.4497120 0.1148437
vt 0.4497120 0.1186242
vt 0.3920947 0.1148437
vt 0.4497120 0.1186242
vt 0.3920948 0.1155396
vt 0.3920948 0.1155396
vt 0.4497120 0.1186242
vt 0.4527572 0.1210938
vt 0.3920948 0.1155396
vt 0.4527572 0.1210938
vt 0.3989436 0.1210938
vt 0.3918319 0.1100274
vt 0.4480032 0.1129192
vt 0.4497370 0.1126829
vt 0.3918319 0.1100274
vt 0.4497370 0.1126829
vt 0.3921511 0.1099839
vt 0.3921511 0.1099839
vt 0.4497370 0.1126829
vt 0.4497370 0.1148437
vt 0.3921511 0.1099839
vt 0.4497370 0.1148437
vt 0.3921510 0.1148437
vt 0.4497119 0.1027362
vt 0.4497120 0.1148437
vt 0.3920947 0.1148437
vt 0.4497119 0.1027362
vt 0.3920947 0.1148437
vt 0.3920947 0.1027362
vt 0.3921510 0.1148437
vt 0.4497370 0.1148437
vt 0.4497370 0.0734792
vt 0.3921510 0.1148437
vt 0.4497370 0.0734792
vt 0.3921510 0.0218123
vt 0.3921510 0.0218123
vt 0.4497370 0.0734792
vt 0.4497370 0.0167125
vt 0.3921510 0.0218123
vt 0.4497370 0.0167125
vt 0.3921510 0.0167125
vt 0.3921510 0.0156250
vt 0.4497370 0.0156250
vt 0.4480032 0.0758763
vt 0.3921510 0.0156250
vt 0.4480032 0.0758763
vt 0.3918319 0.0267157
vt 0.3918319 0.0267157
vt 0.4480032 0.0758763
vt 0.4480032 0.1129192
vt 0.3918319 0.0267157
vt 0.4480032 0.1129192
vt 0.3918319 0.1100274
vt 0.3946983 0.0130215
vt 0.4508696 0.0144674
vt 0.4497120 0.0134641
vt 0.3946983 0.0130215
vt 0.4497120 0.0134641
vt 0.3920947 0.0107651
vt 0.3920947 0.0107651
vt 0.4497120 0.0134641
vt 0.4497119 0.0092111
vt 0.3920947 0.0107651
vt 0.4497119 0.0092111
vt 0.3920947 0.0099822
vt 0.3921510 0.1210938
vt 0.4497370 0.1210938
vt 0.4497370 0.1164634
vt 0.3921510 0.1210938
vt 0.4497370 0.1164634
vt 0.3921510 0.1106798
vt 0.3921510 0.1106798
vt 0.4497370 0.1164634
vt 0.4497370 0.1093750
vt 0.3921510 0.1106798
vt 0.4497370 0.1093750
vt 0.3921510 0.1093750
vt 0.3920947 0.1148437
vt 0.4497120 0.1148437
vt 0.4497120 0.1186242
vt 0.3920947 0.1148437
vt 0.4497120 0.1186242
vt 0.3920948 0.1155396
vt 0.3920948 0.1155396
vt 0.4497120 0.1186242
vt 0.4527572 0.1210938
vt 0.3920948 0.1155396
vt 0.4527572 0.1210938
vt 0.3989436 0.1210938
vt 0.3918319 0.1100274
vt 0.4480032 0.1129192
vt 0.4497370 0.1126829
vt 0.3918319 0.1100274
vt 0.4497370 0.1126829
vt 0.3921511 0.1099839
vt 0.3921511 0.1099839
vt 0.4497370 0.1126829
vt 0.4497370 0.1148437
vt 0.3921511 0.1099839
vt 0.4497370 0.1148437
vt 0.3921510 0.1148437
vt 0.3920947 0.0099822
vt 0.4497119 0.0092111
vt 0.4497119 0.0734792
vt 0.3920947 0.0099822
vt 0.4497119 0.0734792
vt 0.3920947 0.0218123
vt 0.3920947 0.0218123
vt 0.4497119 0.0734792
vt 0.4497120 0.1148437
vt 0.3920947 0.0218123
vt 0.4497120 0.1148437
vt 0.3920947 0.1148437
vt 0.3921510 0.1093750
vt 0.4497370 0.1093750
vt 0.4508696 0.0711745
vt 0.3921510 0.1093750
vt 0.4508696 0.0711745
vt 0.3946983 0.0234598
vt 0.3946983 0.0234598
vt 0.4508696 0.0711745
vt 0.4508696 0.0144674
vt 0.3946983 0.0234598
vt 0.4508696 0.0144674
vt 0.3946983 0.0130215
vt 0.3921510 0.1148437
vt 0.4497370 0.1148437
vt 0.4497370 0.0734792
vt 0.3921510 0.1148437
vt 0.4497370 0.0734792
vt 0.3921510 0.0218123
vt 0.3921510 0.0218123
vt 0.4497370 0.0734792
vt 0.4497370 0.0101562
vt 0.3921510 0.0218123
vt 0.4497370 0.0101562
vt 0.3921510 0.0101562
vt 0.3921510 0.0156250
vt 0.4497370 0.0156250
vt 0.4480032 0.0758763
vt 0.3921510 0.0156250
vt 0.4480032 0.0758763
vt 0.3918319 0.0267157
vt 0.3918319 0.0267157
vt 0.4480032 0.0758763
vt 0.4480032 0.1129192
vt 0.3918319 0.0267157
vt 0.4480032 0.1129192
vt 0.3918319 0.1100274
vt 0.4902344 0.0053711
vt 0.4902343 0.0085937
vt 0.4960938 0.0076823
vt 0.4902344 0.0039062
vt 0.4902344 0.0058594
vt 0.4929687 0.0058594
vt 0.4515975 0.0081656
vt 0.4902343 0.0085937
vt 0.4511694 0.0075948
vt 0.4511694 0.0075948
vt 0.4902343 0.0085937
vt 0.4902344 0.0053711
vt 0.4511694 0.0075948
vt 0.4902344 0.0053711
vt 0.4511694 0.0055495
vt 0.4517046 0.1210938
vt 0.4902344 0.1210938
vt 0.4517046 0.1193813
vt 0.4517046 0.1193813
vt 0.4902344 0.1210938
vt 0.4902343 0.1164062
vt 0.4517046 0.1193813
vt 0.4902343 0.1164062
vt 0.4517045 0.1164062
vt 0.4902343 0.0085937
vt 0.4902343 0.1164062
vt 0.4960938 0.1164063
vt 0.4902343 0.0085937
vt 0.4960938 0.1164063
vt 0.4960938 0.0076823
vt 0.4902344 0.0053711
vt 0.4960938 0.0076823
vt 0.4960938 0.1065040
vt 0.4902344 0.0053711
vt 0.4960938 0.1065040
vt 0.4954295 0.1062420
vt 0.4902344 0.0053711
vt 0.4954295 0.1062420
vt 0.4902344 0.1062420
vt 0.4902344 0.0058594
vt 0.4902344 0.1062973
vt 0.4923124 0.1062973
vt 0.4902344 0.0058594
vt 0.4923124 0.1062973
vt 0.4926224 0.1062973
vt 0.4902344 0.0058594
vt 0.4926224 0.1062973
vt 0.4929687 0.0058594
vt 0.4511694 0.0055495
vt 0.4902344 0.0053711
vt 0.4902344 0.1062420
vt 0.4511694 0.0055495
vt 0.4902344 0.1062420
vt 0.4781108 0.1062973
vt 0.4511694 0.0055495
vt 0.4781108 0.1062973
vt 0.4511694 0.0777567
vt 0.4511694 0.0777567
vt 0.4781108 0.1062973
vt 0.4511694 0.1062973
vt 0.4517045 0.1164062
vt 0.4902343 0.1164062
vt 0.4515975 0.0765921
vt 0.4515975 0.0765921
vt 0.4902343 0.1164062
vt 0.4902343 0.0085937
vt 0.4515975 0.0765921
vt 0.4902343 0.0085937
vt 0.4515975 0.0081656
vt 0.3835938 0.0058594
vt 0.4929687 0.0058594
vt 0.4926224 0.1062973
vt 0.3835938 0.0058594
vt 0.4926224 0.1062973
vt 0.4802220 0.1062973
vt 0.3835938 0.0058594
vt 0.4802220 0.1062973
vt 0.3835938 0.1062973
vt 0.4782769 0.1062973
vt 0.4517046 0.0777567
vt 0.4517046 0.1062973
vt 0.4517046 0.0777567
vt 0.4782769 0.1062973
vt 0.4902344 0.1062973
vt 0.4517046 0.0777567
vt 0.4902344 0.1062973
vt 0.4902344 0.0058594
vt 0.4517046 0.0777567
vt 0.4902344 0.0058594
vt 0.4517046 0.0058594
vt 0.4928234 0.0144531
vt 0.4928234 0.0071766
vt 0.4960938 0.0107740
vt 0.4928234 0.0039062
vt 0.4928234 0.0179687
vt 0.4939135 0.0179688
vt 0.4928234 0.1070313
vt 0.4960938 0.1070312
vt 0.4928234 0.1210938
vt 0.4928234 0.1194586
vt 0.4936410 0.1070313
vt 0.4928234 0.1070312
vt 0.4454281 0.0068264
vt 0.4928234 0.0071766
vt 0.4450779 0.0117994
vt 0.4450779 0.0117994
vt 0.4928234 0.0071766
vt 0.4928234 0.0144531
vt 0.4450779 0.0117994
vt 0.4928234 0.0144531
vt 0.4450779 0.0159590
vt 0.4454281 0.1210938
vt 0.4928234 0.1210938
vt 0.4454281 0.1196929
vt 0.4454281 0.1196929
vt 0.4928234 0.1210938
vt 0.4928234 0.1178234
vt 0.4454281 0.1196929
vt 0.4928234 0.1178234
vt 0.4454281 0.1178234
vt 0.4928234 0.0071766
vt 0.4928234 0.1178234
vt 0.4960938 0.1178234
vt 0.4928234 0.0071766
vt 0.4960938 0.1178234
vt 0.4960938 0.0107740
vt 0.4450779 0.1070313
vt 0.4928234 0.1070313
vt 0.4928234 0.1210938
vt 0.4450779 0.1070313
vt 0.4928234 0.1210938
vt 0.4450779 0.1150701
vt 0.4450779 0.1150701
vt 0.4928234 0.1210938
vt 0.4454281 0.1210938
vt 0.3821766 0.1210938
vt 0.3821766 0.1070312
vt 0.4936410 0.1070313
vt 0.3821766 0.1210938
vt 0.4936410 0.1070313
vt 0.4928234 0.1194586
vt 0.4454281 0.1187582
vt 0.4928234 0.1194586
vt 0.4928234 0.1070312
vt 0.4454281 0.1187582
vt 0.4928234 0.1070312
vt 0.4454281 0.1116540
vt 0.4454281 0.1116540
vt 0.4928234 0.1070312
vt 0.4454281 0.1070312
vt 0.4928234 0.0144531
vt 0.4960938 0.0107740
vt 0.4960938 0.1070312
vt 0.4928234 0.0144531
vt 0.4960938 0.1070312
vt 0.4928234 0.1070313
vt 0.4928234 0.0179687
vt 0.4928234 0.1070312
vt 0.4936410 0.1070313
vt 0.4928234 0.0179687
vt 0.4936410 0.1070313
vt 0.4939135 0.0179688
vt 0.4450779 0.0159590
vt 0.4928234 0.0144531
vt 0.4928234 0.1070313
vt 0.4450779 0.0159590
vt 0.4928234 0.1070313
vt 0.4450779 0.0688816
vt 0.4450779 0.0688816
vt 0.4928234 0.1070313
vt 0.4450779 0.1070313
vt 0.4454281 0.1178234
vt 0.4928234 0.1178234
vt 0.4454281 0.0700779
vt 0.4454281 0.0700779
vt 0.4928234 0.1178234
vt 0.4928234 0.0071766
vt 0.4454281 0.0700779
vt 0.4928234 0.0071766
vt 0.4454281 0.0068264
vt 0.3821766 0.0179687
vt 0.4939135 0.0179688
vt 0.4936410 0.1070313
vt 0.3821766 0.0179687
vt 0.4936410 0.1070313
vt 0.3821766 0.1070312
vt 0.4454281 0.1070312
vt 0.4928234 0.1070312
vt 0.4454281 0.0688815
vt 0.4454281 0.0688815
vt 0.4928234 0.1070312
vt 0.4928234 0.0179687
vt 0.4454281 0.0688815
vt 0.4928234 0.0179687
vt 0.4454281 0.0179687
vt 0.4454281 0.0071766
vt 0.4928234 0.0071766
vt 0.4928234 0.1194586
vt 0.4454281 0.0071766
vt 0.4928234 0.1194586
vt 0.4454281 0.0713629
vt 0.4454281 0.0713629
vt 0.4928234 0.1194586
vt 0.4454281 0.1187582
vt 0.9960938 0.0039062
vt 0.9960938 0.1210938
vt 0.9375000 0.1210938
vt 0.9960938 0.0039062
vt 0.9375000 0.1210938
vt 0.9375000 0.0039062
vt 0.9082031 0.0039062
vt 0.9082031 0.1210938
vt 0.9667969 0.1210938
vt 0.9082031 0.0039062
vt 0.9667969 0.1210938
vt 0.9667969 0.0039062
vt 0.9375000 0.0039062
vt 0.9375000 0.1210938
vt 0.9960938 0.1210938
vt 0.9375000 0.0039062
vt 0.9960938 0.1210938
vt 0.9960938 0.0039062
vt 0.9375000 0.0039062
vt 0.8789062 0.0039062
vt 0.8789062 0.1210938
vt 0.9375000 0.0039062
vt 0.8789062 0.1210938
vt 0.9375000 0.1210938
vt 0.9082031 0.0039062
vt 0.9667969 0.0039062
vt 0.9667969 0.1210938
vt 0.9082031 0.0039062
vt 0.9667969 0.1210938
vt 0.9082031 0.1210938
vt 0.8789062 0.0039062
vt 0.9375000 0.0039062
vt 0.9375000 0.1210938
vt 0.8789062 0.0039062
vt 0.9375000 0.1210938
vt 0.8789062 0.1210938
vt 0.8789062 0.0625000
vt 0.9082031 0.1210938
vt 0.9667969 0.1210938
vt 0.8789062 0.0625000
vt 0.9667969 0.1210938
vt 0.9960938 0.0625000
vt 0.8789062 0.0625000
vt 0.9960938 0.0625000
vt 0.9667969 0.0039062
vt 0.8789062 0.0625000
vt 0.9667969 0.0039062
vt 0.9082031 0.0039062
vt 0.8789062 0.0625000
vt 0.9082031 0.0039062
vt 0.9667969 0.0039062
vt 0.8789062 0.0625000
vt 0.9667969 0.0039062
vt 0.9960938 0.0625000
vt 0.8789062 0.0625000
vt 0.9960938 0.0625000
vt 0.9667969 0.1210938
vt 0.8789062 0.0625000
vt 0.9667969 0.1210938
vt 0.9082031 0.1210938
vt 0.0786425 0.1338202
vt 0.0941348 0.1340016
vt 0.0938216 0.1343149
vt 0.0786425 0.1338202
vt 0.0938216 0.1343149
vt 0.0781479 0.1343149
vt 0.0781479 0.1343149
vt 0.0938216 0.1343149
vt 0.0938216 0.1332760
vt 0.0781479 0.1343149
vt 0.0938216 0.1332760
vt 0.0781479 0.1334574
vt 0.0781668 0.2460938
vt 0.0938335 0.2460938
vt 0.0938335 0.2448407
vt 0.0781668 0.2460938
vt 0.0938335 0.2448407
vt 0.0781668 0.2441151
vt 0.0781668 0.2441151
vt 0.0938335 0.2448407
vt 0.0938335 0.2406851
vt 0.0781668 0.2441151
vt 0.0938335 0.2406851
vt 0.0781668 0.2406851
vt 0.0781479 0.2406851
vt 0.0938216 0.2406851
vt 0.0938216 0.2448407
vt 0.0781479 0.2406851
vt 0.0938216 0.2448407
vt 0.0781479 0.2441151
vt 0.0781479 0.2441151
vt 0.0938216 0.2448407
vt 0.0946369 0.2460938
vt 0.0781479 0.2441151
vt 0.0946369 0.2460938
vt 0.0794354 0.2460938
vt 0.0773421 0.2424001
vt 0.0928344 0.2427629
vt 0.0938335 0.2406851
vt 0.0773421 0.2424001
vt 0.0938335 0.2406851
vt 0.0781668 0.2406851
vt 0.0781668 0.2406851
vt 0.0938335 0.2406851
vt 0.0938335 0.2406851
vt 0.0781668 0.2406851
vt 0.0938335 0.2406851
vt 0.0781668 0.2406851
vt 0.0781479 0.1334574
vt 0.0938216 0.1332760
vt 0.0938216 0.2160420
vt 0.0781479 0.1334574
vt 0.0938216 0.2160420
vt 0.0781479 0.2017710
vt 0.0781479 0.2017710
vt 0.0938216 0.2160420
vt 0.0938216 0.2406851
vt 0.0781479 0.2017710
vt 0.0938216 0.2406851
vt 0.0781479 0.2406851
vt 0.0781668 0.2406851
vt 0.0938335 0.2406851
vt 0.0941348 0.2157287
vt 0.0781668 0.2406851
vt 0.0941348 0.2157287
vt 0.0786425 0.2012763
vt 0.0786425 0.2012763
vt 0.0941348 0.2157287
vt 0.0941348 0.1340016
vt 0.0786425 0.2012763
vt 0.0941348 0.1340016
vt 0.0786425 0.1338202
vt 0.0781668 0.2406851
vt 0.0938335 0.2406851
vt 0.0938335 0.2160420
vt 0.0781668 0.2406851
vt 0.0938335 0.2160420
vt 0.0781668 0.2017710
vt 0.0781668 0.2017710
vt 0.0938335 0.2160420
vt 0.0938335 0.1343149
vt 0.0781668 0.2017710
vt 0.0938335 0.1343149
vt 0.0781668 0.1343149
vt 0.0781668 0.1343149
vt 0.0938335 0.1343149
vt 0.0928344 0.2181198
vt 0.0781668 0.1343149
vt 0.0928344 0.2181198
vt 0.0773421 0.2034860
vt 0.0773421 0.2034860
vt 0.0928344 0.2181198
vt 0.0928344 0.2427629
vt 0.0773421 0.2034860
vt 0.0928344 0.2427629
vt 0.0773421 0.2424001
vt 0.0784961 0.2460938
vt 0.0944922 0.2460938
vt 0.0944922 0.2459976
vt 0.0784961 0.2460938
vt 0.0944922 0.2459976
vt 0.0784961 0.2459394
vt 0.0784961 0.2459394
vt 0.0944922 0.2459976
vt 0.0944922 0.2456685
vt 0.0784961 0.2459394
vt 0.0944922 0.2456685
vt 0.0784961 0.2456685
vt 0.0784536 0.2458039
vt 0.0944406 0.2458330
vt 0.0944922 0.2296765
vt 0.0784536 0.2458039
vt 0.0944922 0.2296765
vt 0.0784961 0.2325054
vt 0.0784961 0.2325054
vt 0.0944922 0.2296765
vt 0.0944922 0.2250000
vt 0.0784961 0.2325054
vt 0.0944922 0.2250000
vt 0.0784961 0.2250000
vt 0.0784961 0.2456685
vt 0.0944922 0.2456685
vt 0.0945073 0.2193221
vt 0.0784961 0.2456685
vt 0.0945073 0.2193221
vt 0.0840982 0.2089451
vt 0.0784961 0.2456685
vt 0.0840982 0.2089451
vt 0.0785171 0.2089451
vt 0.0840982 0.2089451
vt 0.0945073 0.2193221
vt 0.0945073 0.2089546
vt 0.0784961 0.2250000
vt 0.0944922 0.2250000
vt 0.0944922 0.2080305
vt 0.0784961 0.2250000
vt 0.0944922 0.2080305
vt 0.0784961 0.1977653
vt 0.0784961 0.1977653
vt 0.0944922 0.2080305
vt 0.0944922 0.1500000
vt 0.0784961 0.1977653
vt 0.0944922 0.1500000
vt 0.0784961 0.1500000
vt 0.0944466 0.2091242
vt 0.0944406 0.2195106
vt 0.0840315 0.2091242
vt 0.0840315 0.2091242
vt 0.0944406 0.2195106
vt 0.0944406 0.2458330
vt 0.0840315 0.2091242
vt 0.0944406 0.2458330
vt 0.0784536 0.2458039
vt 0.0840315 0.2091242
vt 0.0784536 0.2458039
vt 0.0784536 0.2091141
vn 0.0000000 -0.8314696 -0.5555702
vn 0.0000000 -0.8314696 -0.5555702
vn 0.0000000 -0.8480689 -0.5298859
vn 0.0000000 -0.8314696 -0.5555702
vn 0.0000000 -0.8480689 -0.5298859
vn 0.0000000 -0.8480689 -0.5298859
vn 0.0000000 -0.7071068 -0.7071068
vn 0.0000000 -0.7071068 -0.7071068
vn 0.0000000 -0.7602857 -0.6495889
vn 0.0000000 -0.7071068 -0.7071068
vn 0.0000000 -0.7602857 -0.6495889
vn 0.0000000 -0.8188283 -0.5740385
vn 0.0000000 -0.8188283 -0.5740385
vn 0.0000000 -0.7602857 -0.6495889
vn 0.0000000 -0.8314696 -0.5555702
vn 0.0000000 -0.8188283 -0.5740385
vn 0.0000000 -0.8314696 -0.5555702
vn 0.0000000 -0.8314696 -0.5555702
vn 0.0000000 -0.6083013 -0.7937062
vn 0.0000000 -0.6189484 -0.7854317
vn 0.0000000 -0.6911054 -0.7227540
vn 0.0000000 -0.6083013 -0.7937062
vn 0.0000000 -0.6911054 -0.7227540
vn 0.0000000 -0.6083013 -0.7937062
vn 0.0000000 -0.6911054 -0.7227540
vn 0.0000000 -0.6189484 -0.7854317
vn 0.0000000 -0.7071068 -0.7071068
vn 0.0000000 -0.6911054 -0.7227540
vn 0.0000000 -0.7071068 -0.7071068
vn 0.0000000 -0.7071068 -0.7071068
vn 0.0000000 0.1564344 -0.9876883
vn 0.0000000 0.1564344 -0.9876883
vn 0.0000000 0.1564344 -0.9876883
vn 0.0000000 0.1564344 -0.9876883
vn 0.0000000 0.1564344 -0.9876883
vn 0.0000000 0.1564344 -0.9876883
vn 0.0000000 0.1564344 -0.9876883
vn 0.0000000 0.1564344 -0.9876883
vn 0.0000000 0.1564344 -0.9876883
vn 0.0000000 0.1564344 -0.9876883
vn 0.0000000 0.1564344 -0.9876883
vn 0.0000000 0.1564344 -0.9876883
vn 0.0000000 -0.9876883 -0.1564346
vn 0.0000000 -0.9876883 -0.1564346
vn 0.0000000 -0.9876883 -0.1564346
vn 0.0000000 -0.9876883 -0.1564346
vn 0.0000000 -0.9876883 -0.1564346
vn 0.0000000 -0.9876883 -0.1564346
vn 0.0000000 -0.9876883 -0.1564346
vn 0.0000000 -0.9876883 -0.1564346
vn 0.0000000 -0.9876883 -0.1564346
vn 0.0000000 -0.9876883 -0.1564346
vn 0.0000000 -0.9876883 -0.1564346
vn 0.0000000 -0.9876883 -0.1564346
vn 0.0000000 0.8090171 -0.5877852
vn 0.0000000 0.8090171 -0.5877852
vn 0.0000000 0.8090171 -0.5877852
vn 0.0000000 0.8090171 -0.5877852
vn 0.0000000 0.8090171 -0.5877852
vn 0.0000000 0.8090171 -0.5877852
vn 0.0000000 -0.8090171 0.5877852
vn 0.0000000 -0.8090171 0.5877852
vn 0.0000000 -0.8090171 0.5877852
vn 0.0000000 -0.8090171 0.5877852
vn 0.0000000 -0.8090171 0.5877852
vn 0.0000000 -0.8090171 0.5877852
vn 0.0000000 -0.8090171 0.5877852
vn 0.0000000 -0.8090171 0.5877852
vn 0.0000000 -0.8090171 0.5877852
vn 0.0000000 -0.8090171 0.5877852
vn 0.0000000 -0.8090171 0.5877852
vn 0.0000000 -0.8090171 0.5877852
vn 0.0000000 -0.5877852 -0.8090171
vn 0.0000000 -0.5877852 -0.8090171
vn 0.0000000 -0.5877852 -0.8090171
vn 0.0000000 -0.5877852 -0.8090171
vn 0.0000000 -0.5877852 -0.8090171
vn 0.0000000 -0.5877852 -0.8090171
vn 0.0000000 -0.5877852 -0.8090171
vn 0.0000000 -0.5877852 -0.8090171
vn 0.0000000 -0.5877852 -0.8090171
vn 0.0000000 -0.5877852 -0.8090171
vn 0.0000000 -0.5877852 -0.8090171
vn 0.0000000 -0.5877852 -0.8090171
vn 0.0000000 0.9876883 -0.1564345
vn 0.0000000 0.9876883 -0.1564345
vn 0.0000000 0.9876883 -0.1564345
vn 0.0000000 0.9876883 -0.1564345
vn 0.0000000 0.9876883 -0.1564345
vn 0.0000000 0.9876883 -0.1564345
vn 0.0000000 0.9876883 -0.1564345
vn 0.0000000 0.9876883 -0.1564345
vn 0.0000000 0.9876883 -0.1564345
vn 0.0000000 0.9876883 -0.1564345
vn 0.0000000 0.9876883 -0.1564345
vn 0.0000000 0.9876883 -0.1564345
vn 0.0000000 0.1564347 0.9876883
vn 0.0000000 0.1564347 0.9876883
vn 0.0000000 0.1564347 0.9876883
vn 0.0000000 0.1564347 0.9876883
vn 0.0000000 0.1564347 0.9876883
vn 0.0000000 0.1564347 0.9876883
vn 0.0000000 0.1564347 0.9876883
vn 0.0000000 0.1564347 0.9876883
vn 0.0000000 0.1564347 0.9876883
vn 0.0000000 0.1564347 0.9876883
vn 0.0000000 0.1564347 0.9876883
vn 0.0000000 0.1564347 0.9876883
vn 0.0000000 -0.1564347 -0.9876883
vn 0.0000000 -0.1564347 -0.9876883
vn 0.0000000 -0.1564347 -0.9876883
vn 0.0000000 -0.1564347 -0.9876883
vn 0.0000000 -0.1564347 -0.9876883
vn 0.0000000 -0.1564347 -0.9876883
vn 0.0000000 -0.1564347 -0.9876883
vn 0.0000000 -0.1564347 -0.9876883
vn 0.0000000 -0.1564347 -0.9876883
vn 0.0000000 -0.1564347 -0.9876883
vn 0.0000000 -0.1564347 -0.9876883
vn 0.0000000 -0.1564347 -0.9876883
vn 0.0000000 -0.9876883 0.1564345
vn 0.0000000 -0.9876883 0.1564345
vn 0.0000000 -0.9876883 0.1564345
vn 0.0000000 -0.9876883 0.1564345
vn 0.0000000 -0.9876883 0.1564345
vn 0.0000000 -0.9876883 0.1564345
vn 0.0000000 -0.9876883 0.1564345
vn 0.0000000 -0.9876883 0.1564345
vn 0.0000000 -0.9876883 0.1564345
vn 0.0000000 -0.9876883 0.1564345
vn 0.0000000 -0.9876883 0.1564345
vn 0.0000000 -0.9876883 0.1564345
vn 0.0000000 0.5877852 -0.8090171
vn 0.0000000 0.5877852 -0.8090171
vn 0.0000000 0.5877852 -0.8090171
vn 0.0000000 0.5877852 -0.8090171
vn 0.0000000 0.5877852 -0.8090171
vn 0.0000000 0.5877852 -0.8090171
vn 0.0000000 0.5877852 -0.8090171
vn 0.0000000 0.5877852 -0.8090171
vn 0.0000000 0.5877852 -0.8090171
vn 0.0000000 0.5877852 -0.8090171
vn 0.0000000 0.5877852 -0.8090171
vn 0.0000000 0.5877852 -0.8090171
vn 0.0000000 0.8090171 0.5877852
vn 0.0000000 0.8090171 0.5877852
vn 0.0000000 0.8090171 0.5877852
vn 0.0000000 0.8090171 0.5877852
vn 0.0000000 0.8090171 0.5877852
vn 0.0000000 0.8090171 0.5877852
vn 0.0000000 0.8090171 0.5877852
vn 0.0000000 0.8090171 0.5877852
vn 0.0000000 0.8090171 0.5877852
vn 0.0000000 0.8090171 0.5877852
vn 0.0000000 0.8090171 0.5877852
vn 0.0000000 0.8090171 0.5877852
vn 0.0000000 -0.5877852 0.8090171
vn 0.0000000 -0.5877852 0.8090171
vn 0.0000000 -0.5877852 0.8090171
vn 0.0000000 -0.5877852 0.8090171
vn 0.0000000 -0.5877852 0.8090171
vn 0.0000000 -0.5877852 0.8090171
vn 0.0000000 -0.5877852 0.8090171
vn 0.0000000 -0.5877852 0.8090171
vn 0.0000000 -0.5877852 0.8090171
vn 0.0000000 -0.5877852 0.8090171
vn 0.0000000 -0.5877852 0.8090171
vn 0.0000000 -0.5877852 0.8090171
vn 0.0000000 -0.8090171 -0.5877852
vn 0.0000000 -0.8090171 -0.5877852
vn 0.0000000 -0.8090171 -0.5877852
vn 0.0000000 -0.8090171 -0.5877852
vn 0.0000000 -0.8090171 -0.5877852
vn 0.0000000 -0.8090171 -0.5877852
vn 0.0000000 -0.8090171 -0.5877852
vn 0.0000000 -0.8090171 -0.5877852
vn 0.0000000 -0.8090171 -0.5877852
vn 0.0000000 -0.8090171 -0.5877852
vn 0.0000000 -0.8090171 -0.5877852
vn 0.0000000 -0.8090171 -0.5877852
vn 0.5773508 -0.5773493 0.5773508
vn 0.5773508 -0.5773493 0.5773508
vn 0.5773508 -0.5773493 0.5773508
vn 0.5773508 -0.5773493 -0.5773508
vn 0.5773508 -0.5773493 -0.5773508
vn 0.5773508 -0.5773493 -0.5773508
vn 0.0000000 -0.7071074 0.7071062
vn 0.0000000 -0.7071074 0.7071062
vn 0.0000000 -0.7071074 0.7071062
vn 0.0000000 -0.7071074 0.7071062
vn 0.0000000 -0.7071074 0.7071062
vn 0.0000000 -0.7071074 0.7071062
vn 0.0000000 -0.7071074 0.7071062
vn 0.0000000 -0.7071074 0.7071062
vn 0.0000000 -0.7071074 0.7071062
vn 0.0000000 -0.7071074 -0.7071062
vn 0.0000000 -0.7071074 -0.7071062
vn 0.0000000 -0.7071074 -0.7071062
vn 0.0000000 -0.7071074 -0.7071062
vn 0.0000000 -0.7071074 -0.7071062
vn 0.0000000 -0.7071074 -0.7071062
vn 0.0000000 -0.7071074 -0.7071062
vn 0.0000000 -0.7071074 -0.7071062
vn 0.0000000 -0.7071074 -0.7071062
vn 0.7071066 -0.7071069 0.0000000
vn 0.7071066 -0.7071069 0.0000000
vn 0.7071066 -0.7071069 0.0000000
vn 0.7071066 -0.7071069 0.0000000
vn 0.7071066 -0.7071069 0.0000000
vn 0.7071066 -0.7071069 0.0000000
vn 0.7071067 0.0000000 0.7071069
vn 0.7071067 0.0000000 0.7071069
vn 0.7071067 0.0000000 0.7071069
vn 0.7071067 0.0000000 0.7071069
vn 0.7071067 0.0000000 0.7071069
vn 0.7071067 0.0000000 0.7071069
vn 0.7071067 0.0000000 0.7071069
vn 0.7071067 0.0000000 0.7071069
vn 0.7071067 0.0000000 0.7071069
vn 0.7071067 0.0000000 -0.7071069
vn 0.7071067 0.0000000 -0.7071069
vn 0.7071067 0.0000000 -0.7071069
vn 0.7071067 0.0000000 -0.7071069
vn 0.7071067 0.0000000 -0.7071069
vn 0.7071067 0.0000000 -0.7071069
vn 0.7071067 0.0000000 -0.7071069
vn 0.7071067 0.0000000 -0.7071069
vn 0.7071067 0.0000000 -0.7071069
vn 0.0000000 0.0000000 1.0000000
vn 0.0000000 0.0000000 1.0000000
vn 0.0000000 0.0000000 1.0000000
vn 0.0000000 0.0000000 1.0000000
vn 0.0000000 0.0000000 1.0000000
vn 0.0000000 0.0000000 1.0000000
vn 0.0000000 0.0000000 1.0000000
vn 0.0000000 0.0000000 1.0000000
vn 0.0000000 0.0000000 1.0000000
vn 0.0000000 0.0000000 1.0000000
vn 0.0000000 0.0000000 1.0000000
vn 0.0000000 0.0000000 1.0000000
vn 0.0000000 -1.0000000 0.0000000
vn 0.0000000 -1.0000000 0.0000000
vn 0.0000000 -1.0000000 0.0000000
vn 0.0000000 -1.0000000 0.0000000
vn 0.0000000 -1.0000000 0.0000000
vn 0.0000000 -1.0000000 0.0000000
vn 0.0000000 -1.0000000 0.0000000
vn 0.0000000 -1.0000000 0.0000000
vn 0.0000000 -1.0000000 0.0000000
vn 1.0000000 0.0000000 0.0000000
vn 1.0000000 0.0000000 0.0000000
vn 1.0000000 0.0000000 0.0000000
vn 1.0000000 0.0000000 0.0000000
vn 1.0000000 0.0000000 0.0000000
vn 1.0000000 0.0000000 0.0000000
vn 1.0000000 0.0000000 0.0000000
vn 1.0000000 0.0000000 0.0000000
vn 1.0000000 0.0000000 0.0000000
vn 0.0000000 0.0000000 -1.0000000
vn 0.0000000 0.0000000 -1.0000000
vn 0.0000000 0.0000000 -1.0000000
vn 0.0000000 0.0000000 -1.0000000
vn 0.0000000 0.0000000 -1.0000000
vn 0.0000000 0.0000000 -1.0000000
vn 0.0000000 0.0000000 -1.0000000
vn 0.0000000 0.0000000 -1.0000000
vn 0.0000000 0.0000000 -1.0000000
vn 0.0000000 0.0000000 -1.0000000
vn 0.0000000 0.0000000 -1.0000000
vn 0.0000000 0.0000000 -1.0000000
vn 0.5773510 -0.5773499 0.5773499
vn 0.5773510 -0.5773499 0.5773499
vn 0.5773510 -0.5773499 0.5773499
vn 0.5773510 -0.5773499 -0.5773499
vn 0.5773510 -0.5773499 -0.5773499
vn 0.5773510 -0.5773499 -0.5773499
vn 0.5773510 0.5773499 0.5773499
vn 0.5773510 0.5773499 0.5773499
vn 0.5773510 0.5773499 0.5773499
vn 0.5773510 0.5773499 -0.5773499
vn 0.5773510 0.5773499 -0.5773499
vn 0.5773510 0.5773499 -0.5773499
vn 0.0000000 -0.7071065 0.7071071
vn 0.0000000 -0.7071065 0.7071071
vn 0.0000000 -0.7071065 0.7071071
vn 0.0000000 -0.7071065 0.7071071
vn 0.0000000 -0.7071065 0.7071071
vn 0.0000000 -0.7071065 0.7071071
vn 0.0000000 -0.7071065 0.7071071
vn 0.0000000 -0.7071065 0.7071071
vn 0.0000000 -0.7071065 0.7071071
vn 0.0000000 -0.7071065 -0.7071071
vn 0.0000000 -0.7071065 -0.7071071
vn 0.0000000 -0.7071065 -0.7071071
vn 0.0000000 -0.7071065 -0.7071071
vn 0.0000000 -0.7071065 -0.7071071
vn 0.0000000 -0.7071065 -0.7071071
vn 0.0000000 -0.7071065 -0.7071071
vn 0.0000000 -0.7071065 -0.7071071
vn 0.0000000 -0.7071065 -0.7071071
vn 0.7071068 -0.7071067 0.0000000
vn 0.7071068 -0.7071067 0.0000000
vn 0.7071068 -0.7071067 0.0000000
vn 0.7071068 -0.7071067 0.0000000
vn 0.7071068 -0.7071067 0.0000000
vn 0.7071068 -0.7071067 0.0000000
vn 0.0000000 0.7071065 0.7071071
vn 0.0000000 0.7071065 0.7071071
vn 0.0000000 0.7071065 0.7071071
vn 0.0000000 0.7071065 0.7071071
vn 0.0000000 0.7071065 0.7071071
vn 0.0000000 0.7071065 0.7071071
vn 0.0000000 0.7071065 0.7071071
vn 0.0000000 0.7071065 0.7071071
vn 0.0000000 0.7071065 0.7071071
vn 0.7071068 0.7071067 0.0000000
vn 0.7071068 0.7071067 0.0000000
vn 0.7071068 0.7071067 0.0000000
vn 0.7071068 0.7071067 0.0000000
vn 0.7071068 0.7071067 0.0000000
vn 0.7071068 0.7071067 0.0000000
vn 0.0000000 0.7071065 -0.7071071
vn 0.0000000 0.7071065 -0.7071071
vn 0.0000000 0.7071065 -0.7071071
vn 0.0000000 0.7071065 -0.7071071
vn 0.0000000 0.7071065 -0.7071071
vn 0.0000000 0.7071065 -0.7071071
vn 0.0000000 0.7071065 -0.7071071
vn 0.0000000 0.7071065 -0.7071071
vn 0.0000000 0.7071065 -0.7071071
vn 0.7071066 0.0000000 0.7071069
vn 0.7071066 0.0000000 0.7071069
vn 0.7071066 0.0000000 0.7071069
vn 0.7071066 0.0000000 0.7071069
vn 0.7071066 0.0000000 0.7071069
vn 0.7071066 0.0000000 0.7071069
vn 0.7071066 0.0000000 -0.7071069
vn 0.7071066 0.0000000 -0.7071069
vn 0.7071066 0.0000000 -0.7071069
vn 0.7071066 0.0000000 -0.7071069
vn 0.7071066 0.0000000 -0.7071069
vn 0.7071066 0.0000000 -0.7071069
vn 0.0000000 0.0000000 1.0000000
vn 0.0000000 0.0000000 1.0000000
vn 0.0000000 0.0000000 1.0000000
vn 0.0000000 0.0000000 1.0000000
vn 0.0000000 0.0000000 1.0000000
vn 0.0000000 0.0000000 1.0000000
vn 0.0000000 0.0000000 1.0000000
vn 0.0000000 0.0000000 1.0000000
vn 0.0000000 0.0000000 1.0000000
vn 0.0000000 -1.0000000 0.0000000
vn 0.0000000 -1.0000000 0.0000000
vn 0.0000000 -1.0000000 0.0000000
vn 0.0000000 -1.0000000 0.0000000
vn 0.0000000 -1.0000000 0.0000000
vn 0.0000000 -1.0000000 0.0000000
vn 0.0000000 -1.0000000 0.0000000
vn 0.0000000 -1.0000000 0.0000000
vn 0.0000000 -1.0000000 0.0000000
vn 1.0000000 0.0000000 0.0000000
vn 1.0000000 0.0000000 0.0000000
vn 1.0000000 0.0000000 0.0000000
vn 1.0000000 0.0000000 0.0000000
vn 1.0000000 0.0000000 0.0000000
vn 1.0000000 0.0000000 0.0000000
vn 0.0000000 0.0000000 -1.0000000
vn 0.0000000 0.0000000 -1.0000000
vn 0.0000000 0.0000000 -1.0000000
vn 0.0000000 0.0000000 -1.0000000
vn 0.0000000 0.0000000 -1.0000000
vn 0.0000000 0.0000000 -1.0000000
vn 0.0000000 0.0000000 -1.0000000
vn 0.0000000 0.0000000 -1.0000000
vn 0.0000000 0.0000000 -1.0000000
vn 0.0000000 1.0000000 0.0000000
vn 0.0000000 1.0000000 0.0000000
vn 0.0000000 1.0000000 0.0000000
vn 0.0000000 1.0000000 0.0000000
vn 0.0000000 1.0000000 0.0000000
vn 0.0000000 1.0000000 0.0000000
vn 0.0000000 1.0000000 0.0000000
vn 0.0000000 1.0000000 0.0000000
vn 0.0000000 1.0000000 0.0000000
vn -0.8660254 0.0000000 0.5000001
vn -0.8660254 0.0000000 0.5000001
vn -0.8660254 0.0000000 0.5000001
vn -0.8660254 0.0000000 0.5000001
vn -0.8660254 0.0000000 0.5000001
vn -0.8660254 0.0000000 0.5000001
vn 0.0000002 0.0000000 1.0000000
vn 0.0000002 0.0000000 1.0000000
vn 0.0000002 0.0000000 1.0000000
vn 0.0000002 0.0000000 1.0000000
vn 0.0000002 0.0000000 1.0000000
vn 0.0000002 0.0000000 1.0000000
vn 0.8660255 0.0000000 0.4999999
vn 0.8660255 0.0000000 0.4999999
vn 0.8660255 0.0000000 0.4999999
vn 0.8660255 0.0000000 0.4999999
vn 0.8660255 0.0000000 0.4999999
vn 0.8660255 0.0000000 0.4999999
vn 0.8660254 0.0000000 -0.5000001
vn 0.8660254 0.0000000 -0.5000001
vn 0.8660254 0.0000000 -0.5000001
vn 0.8660254 0.0000000 -0.5000001
vn 0.8660254 0.0000000 -0.5000001
vn 0.8660254 0.0000000 -0.5000001
vn -0.0000002 0.0000000 -1.0000000
vn -0.0000002 0.0000000 -1.0000000
vn -0.0000002 0.0000000 -1.0000000
vn -0.0000002 0.0000000 -1.0000000
vn -0.0000002 0.0000000 -1.0000000
vn -0.0000002 0.0000000 -1.0000000
vn -0.8660255 0.0000000 -0.4999999
vn -0.8660255 0.0000000 -0.4999999
vn -0.8660255 0.0000000 -0.4999999
vn -0.8660255 0.0000000 -0.4999999
vn -0.8660255 0.0000000 -0.4999999
vn -0.8660255 0.0000000 -0.4999999
vn 0.0000000 -1.0000000 0.0000000
vn 0.0000000 -1.0000000 0.0000000
vn 0.0000000 -1.0000000 0.0000000
vn 0.0000000 -1.0000000 0.0000000
vn 0.0000000 -1.0000000 0.0000000
vn 0.0000000 -1.0000000 0.0000000
vn 0.0000000 -1.0000000 0.0000000
vn 0.0000000 -1.0000000 0.0000000
vn 0.0000000 -1.0000000 0.0000000
vn 0.0000000 -1.0000000 0.0000000
vn 0.0000000 -1.0000000 0.0000000
vn 0.0000000 -1.0000000 0.0000000
vn 0.0000000 1.0000000 0.0000000
vn 0.0000000 1.0000000 0.0000000
vn 0.0000000 1.0000000 0.0000000
vn 0.0000000 1.0000000 0.0000000
vn 0.0000000 1.0000000 0.0000000
vn 0.0000000 1.0000000 0.0000000
vn 0.0000000 1.0000000 0.0000000
vn 0.0000000 1.0000000 0.0000000
vn 0.0000000 1.0000000 0.0000000
vn 0.0000000 1.0000000 0.0000000
vn 0.0000000 1.0000000 0.0000000
vn 0.0000000 1.0000000 0.0000000
vn 0.0000000 -0.7071068 0.7071067
vn 0.0000000 -0.7071068 0.7071067
vn 0.0000000 -0.7071068 0.7071067
vn 0.0000000 -0.7071068 0.7071067
vn 0.0000000 -0.7071068 0.7071067
vn 0.0000000 -0.7071068 0.7071067
vn 0.0000000 -0.7071068 0.7071067
vn 0.0000000 -0.7071068 0.7071067
vn 0.0000000 -0.7071068 0.7071067
vn 0.0000000 -0.7071068 0.7071067
vn 0.0000000 -0.7071068 0.7071067
vn 0.0000000 -0.7071068 0.7071067
vn 0.0000000 -0.7071068 -0.7071067
vn 0.0000000 -0.7071068 -0.7071067
vn 0.0000000 -0.7071068 -0.7071067
vn 0.0000000 -0.7071068 -0.7071067
vn 0.0000000 -0.7071068 -0.7071067
vn 0.0000000 -0.7071068 -0.7071067
vn 0.0000000 -0.7071068 -0.7071067
vn 0.0000000 -0.7071068 -0.7071067
vn 0.0000000 -0.7071068 -0.7071067
vn 0.0000000 -0.7071068 -0.7071067
vn 0.0000000 -0.7071068 -0.7071067
vn 0.0000000 -0.7071068 -0.7071067
vn 0.0000000 0.7071068 0.7071067
vn 0.0000000 0.7071068 0.7071067
vn 0.0000000 0.7071068 0.7071067
vn 0.0000000 0.7071068 0.7071067
vn 0.0000000 0.7071068 0.7071067
vn 0.0000000 0.7071068 0.7071067
vn 0.0000000 0.7071068 0.7071067
vn 0.0000000 0.7071068 0.7071067
vn 0.0000000 0.7071068 0.7071067
vn 0.0000000 0.7071068 0.7071067
vn 0.0000000 0.7071068 0.7071067
vn 0.0000000 0.7071068 0.7071067
vn 0.0000000 0.7071068 -0.7071067
vn 0.0000000 0.7071068 -0.7071067
vn 0.0000000 0.7071068 -0.7071067
vn 0.0000000 0.7071068 -0.7071067
vn 0.0000000 0.7071068 -0.7071067
vn 0.0000000 0.7071068 -0.7071067
vn 0.0000000 0.7071068 -0.7071067
vn 0.0000000 0.7071068 -0.7071067
vn 0.0000000 0.7071068 -0.7071067
vn 0.0000000 0.7071068 -0.7071067
vn 0.0000000 0.7071068 -0.7071067
vn 0.0000000 0.7071068 -0.7071067
vn 0.0000000 0.0000000 1.0000000
vn 0.0000000 0.0000000 1.0000000
vn 0.0000000 0.0000000 1.0000000
vn 0.0000000 0.0000000 1.0000000
vn 0.0000000 0.0000000 1.0000000
vn 0.0000000 0.0000000 1.0000000
vn 0.0000000 0.0000000 1.0000000
vn 0.0000000 0.0000000 1.0000000
vn 0.0000000 0.0000000 1.0000000
vn 0.0000000 0.0000000 1.0000000
vn 0.0000000 0.0000000 1.0000000
vn 0.0000000 0.0000000 1.0000000
vn 0.0000000 -1.0000000 0.0000000
vn 0.0000000 -1.0000000 0.0000000
vn 0.0000000 -1.0000000 0.0000000
vn 0.0000000 -1.0000000 0.0000000
vn 0.0000000 -1.0000000 0.0000000
vn 0.0000000 -1.0000000 0.0000000
vn 0.0000000 -1.0000000 0.0000000
vn 0.0000000 -1.0000000 0.0000000
vn 0.0000000 -1.0000000 0.0000000
vn 0.0000000 -1.0000000 0.0000000
vn 0.0000000 -1.0000000 0.0000000
vn 0.0000000 -1.0000000 0.0000000
vn 0.0000000 0.0000000 -1.0000000
vn 0.0000000 0.0000000 -1.0000000
vn 0.0000000 0.0000000 -1.0000000
vn 0.0000000 0.0000000 -1.0000000
vn 0.0000000 0.0000000 -1.0000000
vn 0.0000000 0.0000000 -1.0000000
vn 0.0000000 0.0000000 -1.0000000
vn 0.0000000 0.0000000 -1.0000000
vn 0.0000000 0.0000000 -1.0000000
vn 0.0000000 0.0000000 -1.0000000
vn 0.0000000 0.0000000 -1.0000000
vn 0.0000000 0.0000000 -1.0000000
vn 0.0000000 1.0000000 0.0000000
vn 0.0000000 1.0000000 0.0000000
vn 0.0000000 1.0000000 0.0000000
vn 0.0000000 1.0000000 0.0000000
vn 0.0000000 1.0000000 0.0000000
vn 0.0000000 1.0000000 0.0000000
vn 0.0000000 1.0000000 0.0000000
vn 0.0000000 1.0000000 0.0000000
vn 0.0000000 1.0000000 0.0000000
vn 0.0000000 1.0000000 0.0000000
vn 0.0000000 1.0000000 0.0000000
vn 0.0000000 1.0000000 0.0000000
vn 0.0000000 -0.7071070 -0.7071065
vn 0.0000000 -0.7071070 -0.7071065
vn 0.0000000 -0.7071070 -0.7071065
vn 0.0000000 -0.7071070 -0.7071065
vn 0.0000000 -0.7071070 -0.7071065
vn 0.0000000 -0.7071070 -0.7071065
vn 0.0000000 -0.7071070 -0.7071065
vn 0.0000000 -0.7071070 -0.7071065
vn 0.0000000 -0.7071070 -0.7071065
vn 0.0000000 -0.7071070 -0.7071065
vn 0.0000000 -0.7071070 -0.7071065
vn 0.0000000 -0.7071070 -0.7071065
vn 0.0000000 0.7071070 -0.7071065
vn 0.0000000 0.7071070 -0.7071065
vn 0.0000000 0.7071070 -0.7071065
vn 0.0000000 0.7071070 -0.7071065
vn 0.0000000 0.7071070 -0.7071065
vn 0.0000000 0.7071070 -0.7071065
vn 0.0000000 0.7071070 -0.7071065
vn 0.0000000 0.7071070 -0.7071065
vn 0.0000000 0.7071070 -0.7071065
vn 0.0000000 0.7071070 -0.7071065
vn 0.0000000 0.7071070 -0.7071065
vn 0.0000000 0.7071070 -0.7071065
vn 0.0000000 -1.0000000 0.0000000
vn 0.0000000 -1.0000000 0.0000000
vn 0.0000000 -1.0000000 0.0000000
vn 0.0000000 -1.0000000 0.0000000
vn 0.0000000 -1.0000000 0.0000000
vn 0.0000000 -1.0000000 0.0000000
vn 0.0000000 -1.0000000 0.0000000
vn 0.0000000 -1.0000000 0.0000000
vn 0.0000000 -1.0000000 0.0000000
vn 0.0000000 -1.0000000 0.0000000
vn 0.0000000 -1.0000000 0.0000000
vn 0.0000000 -1.0000000 0.0000000
vn 0.0000000 0.0000000 -1.0000000
vn 0.0000000 0.0000000 -1.0000000
vn 0.0000000 0.0000000 -1.0000000
vn 0.0000000 0.0000000 -1.0000000
vn 0.0000000 0.0000000 -1.0000000
vn 0.0000000 0.0000000 -1.0000000
vn 0.0000000 0.0000000 -1.0000000
vn 0.0000000 0.0000000 -1.0000000
vn 0.0000000 0.0000000 -1.0000000
vn 0.0000000 0.0000000 -1.0000000
vn 0.0000000 0.0000000 -1.0000000
vn 0.0000000 0.0000000 -1.0000000
vn 0.0000000 1.0000000 0.0000000
vn 0.0000000 1.0000000 0.0000000
vn 0.0000000 1.0000000 0.0000000
vn 0.0000000 1.0000000 0.0000000
vn 0.0000000 1.0000000 0.0000000
vn 0.0000000 1.0000000 0.0000000
vn 0.0000000 1.0000000 0.0000000
vn 0.0000000 1.0000000 0.0000000
vn 0.0000000 1.0000000 0.0000000
vn 0.0000000 1.0000000 0.0000000
vn 0.0000000 1.0000000 0.0000000
vn 0.0000000 1.0000000 0.0000000
f 1/1/1 2/2/2 3/3/3
f 4/4/4 5/5/5 6/6/6
f 7/7/7 8/8/8 9/9/9
f 10/10/10 11/11/11 12/12/12
f 13/13/13 14/14/14 15/15/15
f 16/16/16 17/17/17 18/18/18
f 19/19/19 20/20/20 21/21/21
f 22/22/22 23/23/23 24/24/24
f 25/25/25 26/26/26 27/27/27
f 28/28/28 29/29/29 30/30/30
f 31/31/31 32/32/32 33/33/33
f 34/34/34 35/35/35 36/36/36
f 37/37/37 38/38/38 39/39/39
f 40/40/40 41/41/41 42/42/42
f 43/43/43 44/44/44 45/45/45
f 46/46/46 47/47/47 48/48/48
f 49/49/49 50/50/50 51/51/51
f 52/52/52 53/53/53 54/54/54
f 55/55/55 56/56/56 57/57/57
f 58/58/58 59/59/59 60/60/60
f 61/61/61 62/62/62 63/63/63
f 64/64/64 65/65/65 66/66/66
f 67/67/67 68/68/68 69/69/69
f 70/70/70 71/71/71 72/72/72
f 73/73/73 74/74/74 75/75/75
f 76/76/76 77/77/77 78/78/78
f 79/79/79 80/80/80 81/81/81
f 82/82/82 83/83/83 84/84/84
f 85/85/85 86/86/86 87/87/87
f 88/88/88 89/89/89 90/90/90
f 91/91/91 92/92/92 93/93/93
f 94/94/94 95/95/95 96/96/96
f 97/97/97 98/98/98 99/99/99
f 100/100/100 101/101/101 102/102/102
f 103/103/103 104/104/104 105/105/105
f 106/106/106 107/107/107 108/108/108
f 109/109/109 110/110/110 111/111/111
f 112/112/112 113/113/113 114/114/114
f 115/115/115 116/116/116 117/117/117
f 118/118/118 119/119/119 120/120/120
f 121/121/121 122/122/122 123/123/123
f 124/124/124 125/125/125 126/126/126
f 127/127/127 128/128/128 129/129/129
f 130/130/130 131/131/131 132/132/132
f 133/133/133 134/134/134 135/135/135
f 136/136/136 137/137/137 138/138/138
f 139/139/139 140/140/140 141/141/141
f 142/142/142 143/143/143 144/144/144
f 145/145/145 146/146/146 147/147/147
f 148/148/148 149/149/149 150/150/150
f 151/151/151 152/152/152 153/153/153
f 154/154/154 155/155/155 156/156/156
f 157/157/157 158/158/158 159/159/159
f 160/160/160 161/161/161 162/162/162
f 163/163/163 164/164/164 165/165/165
f 166/166/166 167/167/167 168/168/168
f 169/169/169 170/170/170 171/171/171
f 172/172/172 173/173/173 174/174/174
f 175/175/175 176/176/176 177/177/177
f 178/178/178 179/179/179 180/180/180
f 181/181/181 182/182/182 183/183/183
f 184/184/184 185/185/185 186/186/186
f 187/187/187 188/188/188 189/189/189
f 190/190/190 191/191/191 192/192/192
f 193/193/193 194/194/194 195/195/195
f 196/196/196 197/197/197 198/198/198
f 199/199/199 200/200/200 201/201/201
f 202/202/202 203/203/203 204/204/204
f 205/205/205 206/206/206 207/207/207
f 208/208/208 209/209/209 210/210/210
f 211/211/211 212/212/212 213/213/213
f 214/214/214 215/215/215 216/216/216
f 217/217/217 218/218/218 219/219/219
f 220/220/220 221/221/221 222/222/222
f 223/223/223 224/224/224 225/225/225
f 226/226/226 227/227/227 228/228/228
f 229/229/229 230/230/230 231/231/231
f 232/232/232 233/233/233 234/234/234
f 235/235/235 236/236/236 237/237/237
f 238/238/238 239/239/239 240/240/240
f 241/241/241 242/242/242 243/243/243
f 244/244/244 245/245/245 246/246/246
f 247/247/247 248/248/248 249/249/249
f 250/250/250 251/251/251 252/252/252
f 253/253/253 254/254/254 255/255/255
f 256/256/256 257/257/257 258/258/258
f 259/259/259 260/260/260 261/261/261
f 262/262/262 263/263/263 264/264/264
f 265/265/265 266/266/266 267/267/267
f 268/268/268 269/269/269 270/270/270
f 271/271/271 272/272/272 273/273/273
f 274/274/274 275/275/275 276/276/276
f 277/277/277 278/278/278 279/279/279
f 280/280/280 281/281/281 282/282/282
f 283/283/283 284/284/284 285/285/285
f 286/286/286 287/287/287 288/288/288
f 289/289/289 290/290/290 291/291/291
f 292/292/292 293/293/293 294/294/294
f 295/295/295 296/296/296 297/297/297
f 298/298/298 299/299/299 300/300/300
f 301/301/301 302/302/302 303/303/303
f 304/304/304 305/305/305 306/306/306
f 307/307/307 308/308/308 309/309/309
f 310/310/310 311/311/311 312/312/312
f 313/313/313 314/314/314 315/315/315
f 316/316/316 317/317/317 318/318/318
f 319/319/319 320/320/320 321/321/321
f 322/322/322 323/323/323 324/324/324
f 325/325/325 326/326/326 327/327/327
f 328/328/328 329/329/329 330/330/330
f 331/331/331 332/332/332 333/333/333
f 334/334/334 335/335/335 336/336/336
f 337/337/337 338/338/338 339/339/339
f 340/340/340 341/341/341 342/342/342
f 343/343/343 344/344/344 345/345/345
f 346/346/346 347/347/347 348/348/348
f 349/349/349 350/350/350 351/351/351
f 352/352/352 353/353/353 354/354/354
f 355/355/355 356/356/356 357/357/357
f 358/358/358 359/359/359 360/360/360
f 361/361/361 362/362/362 363/363/363
f 364/364/364 365/365/365 366/366/366
f 367/367/367 368/368/368 369/369/369
f 370/370/370 371/371/371 372/372/372
f 373/373/373 374/374/374 375/375/375
f 376/376/376 377/377/377 378/378/378
f 379/379/379 380/380/380 381/381/381
f 382/382/382 383/383/383 384/384/384
f 385/385/385 386/386/386 387/387/387
f 388/388/388 389/389/389 390/390/390
f 391/391/391 392/392/392 393/393/393
f 394/394/394 395/395/395 396/396/396
f 397/397/397 398/398/398 399/399/399
f 400/400/400 401/401/401 402/402/402
f 403/403/403 404/404/404 405/405/405
f 406/406/406 407/407/407 408/408/408
f 409/409/409 410/410/410 411/411/411
f 412/412/412 413/413/413 414/414/414
f 415/415/415 416/416/416 417/417/417
f 418/418/418 419/419/419 420/420/420
f 421/421/421 422/422/422 423/423/423
f 424/424/424 425/425/425 426/426/426
f 427/427/427 428/428/428 429/429/429
f 430/430/430 431/431/431 432/432/432
f 433/433/433 434/434/434 435/435/435
f 436/436/436 437/437/437 438/438/438
f 439/439/439 440/440/440 441/441/441
f 442/442/442 443/443/443 444/444/444
f 445/445/445 446/446/446 447/447/447
f 448/448/448 449/449/449 450/450/450
f 451/451/451 452/452/452 453/453/453
f 454/454/454 455/455/455 456/456/456
f 457/457/457 458/458/458 459/459/459
f 460/460/460 461/461/461 462/462/462
f 463/463/463 464/464/464 465/465/465
f 466/466/466 467/467/467 468/468/468
f 469/469/469 470/470/470 471/471/471
f 472/472/472 473/473/473 474/474/474
f 475/475/475 476/476/476 477/477/477
f 478/478/478 479/479/479 480/480/480
f 481/481/481 482/482/482 483/483/483
f 484/484/484 485/485/485 486/486/486
f 487/487/487 488/488/488 489/489/489
f 490/490/490 491/491/491 492/492/492
f 493/493/493 494/494/494 495/495/495
f 496/496/496 497/497/497 498/498/498
f 499/499/499 500/500/500 501/501/501
f 502/502/502 503/503/503 504/504/504
f 505/505/505 506/506/506 507/507/507
f 508/508/508 509/509/509 510/510/510
f 511/511/511 512/512/512 513/513/513
f 514/514/514 515/515/515 516/516/516
f 517/517/517 518/518/518 519/519/519
f 520/520/520 521/521/521 522/522/522
f 523/523/523 524/524/524 525/525/525
f 526/526/526 527/527/527 528/528/528
f 529/529/529 530/530/530 531/531/531
f 532/532/532 533/533/533 534/534/534
f 535/535/535 536/536/536 537/537/537
f 538/538/538 539/539/539 540/540/540
f 541/541/541 542/542/542 543/543/543
f 544/544/544 545/545/545 546/546/546
f 547/547/547 548/548/548 549/549/549
f 550/550/550 551/551/551 552/552/552
f 553/553/553 554/554/554 555/555/555
f 556/556/556 557/557/557 558/558/558
f 559/559/559 560/560/560 561/561/561
f 562/562/562 563/563/563 564/564/564
f 565/565/565 566/566/566 567/567/567
f 568/568/568 569/569/569 570/570/570
f 571/571/571 572/572/572 573/573/573
f 574/574/574 575/575/575 576/576/576
f 577/577/577 578/578/578 579/579/579
f 580/580/580 581/581/581 582/582/582
f 583/583/583 584/584/584 585/585/585
f 586/586/586 587/587/587 588/588/588
f 589/589/589 590/590/590 591/591/591
f 592/592/592 593/593/593 594/594/594
f 595/595/595 596/596/596 597/597/597
f 598/598/598 599/599/599 600/600/600
