# Authored in Blender; exported by tools-export-modern.py
mtllib materials.mtl
s off
v 0.750000000 0.070193824 0.000000000
v 0.750000000 0.000000000 0.046902013
v 0.750000000 0.000000000 0.052976686
v 0.750000000 0.028895259 0.037531853
v 0.750000000 0.074627931 0.000000000
v 0.750000000 0.055563358 0.000000000
v 0.750000000 0.000000000 0.023015088
v 0.750000000 0.000000000 0.000000000
v 1.000000000 0.074627931 0.000000000
v 1.000000000 0.028895259 0.037531853
v 1.000000000 0.000000000 0.052976686
v 1.000000000 0.008244884 0.048569705
v 0.809999943 0.087763071 0.035699606
v 0.809999943 0.105440736 0.028377295
v 0.809999943 0.112763047 0.010699511
v 0.809999943 0.102063537 0.000000000
v 0.809999943 0.108331175 0.000000000
v 0.809999943 0.073462605 0.000000000
v 0.809999943 0.067194967 0.000000000
v 0.809999943 0.062763095 0.010699511
v 0.809999943 0.070085406 0.028377295
v 0.809999943 0.087763071 0.000000000
v 1.000000000 0.083098131 0.033767329
v 1.000000000 0.070085406 0.028377295
v 1.000000000 0.087763071 0.035699606
v 1.000000000 0.068153129 0.023712323
v 1.000000000 0.062763095 0.010699511
v 1.000000000 0.067194967 0.000000000
v 1.000000000 0.064695372 0.006034570
v 1.000000000 0.108331175 0.000000000
v 1.000000000 0.112763047 0.010699511
v 1.000000000 0.110830770 0.015364483
v 1.000000000 0.105440736 0.028377295
v 1.000000000 0.100775795 0.030309572
v 0.223023272 0.000000000 0.130000114
v 0.379999995 0.000000000 0.130000114
v 0.379999995 0.149999976 0.130000114
v 0.000000000 0.000000000 0.130000114
v 0.000000000 0.149999976 0.130000114
v 0.245517136 0.149999976 0.000000000
v 0.000000000 0.149999976 0.000000000
v 0.379999995 0.149999976 0.000000000
v 0.379999995 0.021494137 0.000000000
v 0.379999995 0.000000000 0.000000000
vt 0.500000000 0.500000000
vn -1.000000000 0.000000000 0.000000000
vn 0.000000000 0.634393477 0.773010295
vn 0.000000000 0.471396625 0.881921324
vn 0.000000000 -0.382682670 0.923879848
vn 0.000000000 -0.923880761 0.382680467
vn 0.000000000 -0.923879848 -0.382682670
vn 0.000000000 0.923879848 -0.382682670
vn 0.000000000 0.923880761 0.382680467
vn 0.000000000 0.382682670 0.923879848
vn 0.000000000 0.000000000 1.000000000
vn 0.000000000 1.000000000 0.000000000
vn 1.000000000 0.000000000 0.000000000
usemtl mat_2
f 1/1/1 2/1/1 3/1/1
f 1/1/1 3/1/1 4/1/1
f 1/1/1 4/1/1 5/1/1
f 6/1/1 7/1/1 2/1/1 1/1/1
f 8/1/1 7/1/1 6/1/1
f 9/1/2 5/1/2 4/1/2 10/1/2
f 11/1/3 12/1/3 4/1/3 3/1/3
f 10/1/3 4/1/3 12/1/3
f 13/1/1 14/1/1 15/1/1
f 16/1/1 15/1/1 17/1/1
f 18/1/1 19/1/1 20/1/1
f 20/1/1 21/1/1 13/1/1
f 22/1/1 13/1/1 15/1/1 16/1/1
f 22/1/1 18/1/1 20/1/1 13/1/1
f 23/1/4 13/1/4 21/1/4 24/1/4
f 25/1/4 13/1/4 23/1/4
f 26/1/5 21/1/5 20/1/5 27/1/5
f 24/1/5 21/1/5 26/1/5
f 28/1/6 29/1/6 20/1/6 19/1/6
f 27/1/6 20/1/6 29/1/6
f 30/1/7 17/1/7 15/1/7 31/1/7
f 32/1/8 15/1/8 14/1/8 33/1/8
f 31/1/8 15/1/8 32/1/8
f 34/1/9 14/1/9 13/1/9 25/1/9
f 33/1/9 14/1/9 34/1/9
f 35/1/10 36/1/10 37/1/10
f 38/1/10 35/1/10 37/1/10 39/1/10
f 40/1/11 41/1/11 39/1/11 37/1/11
f 40/1/11 37/1/11 42/1/11
f 43/1/12 42/1/12 37/1/12
f 44/1/12 43/1/12 37/1/12 36/1/12
