# Authored in Blender; exported by tools-export-modern.py
mtllib materials.mtl
s off
v 0.479999989 0.000000000 0.130000114
v 1.000000000 0.000000000 0.130000114
v 1.000000000 0.149999976 0.130000114
v 0.479999989 0.149999976 0.130000114
v 1.000000000 0.149999976 0.000000000
v 0.479999989 0.149999976 0.000000000
v 0.479999989 0.021494137 0.000000000
v 0.479999989 0.000000000 0.000000000
vt 0.500000000 0.500000000
vn 0.000000000 0.000000000 1.000000000
vn 0.000000000 1.000000000 0.000000000
vn -1.000000000 0.000000000 0.000000000
usemtl mat_2
f 1/1/1 2/1/1 3/1/1 4/1/1
f 5/1/2 6/1/2 4/1/2 3/1/2
f 7/1/3 8/1/3 1/1/3 4/1/3
f 7/1/3 4/1/3 6/1/3
