# Authored in Blender; exported by tools-export-modern.py
mtllib materials.mtl
s off
v 1.000000000 0.155362317 0.450000048
v 0.000000000 0.104637679 0.450000048
v 0.000000000 0.059999999 0.450000048
v 1.000000000 0.059999999 0.450000048
v 1.000000000 0.200000003 0.450000048
v 0.000000000 0.200000003 0.450000048
v 0.000000000 0.059999999 0.000000000
v 1.000000000 0.059999999 0.000000000
v 1.000000000 0.200000003 0.000000000
v 0.000000000 0.200000003 0.000000000
v 1.000000000 0.208611115 0.269999981
v 0.000000000 0.111388891 0.269999981
v 0.000000000 0.300000012 0.269999981
v 1.000000000 0.300000012 0.269999981
v 1.000000000 0.020000000 0.269999981
v 0.000000000 0.020000000 0.269999981
v 1.000000000 0.208611115 0.410000086
v 0.000000000 0.111388891 0.410000086
v 0.000000000 0.020000000 0.410000086
v 1.000000000 0.020000000 0.410000086
v 1.000000000 0.300000012 0.410000086
v 0.000000000 0.300000012 0.410000086
v 1.000000000 0.020000000 0.364305605
v 0.000000000 0.020000000 0.315694459
v 1.000000000 0.300000012 0.364305605
v 0.000000000 0.300000012 0.315694459
v 0.750000000 0.790000021 0.109999895
v 0.750000000 0.873888850 0.101737499
v 0.750000000 0.954553902 0.077268124
v 0.750000000 1.000000000 0.046902013
v 0.750000000 1.000000000 0.052976686
v 0.750000000 0.509806170 0.000000000
v 0.750000000 0.505372071 0.000000000
v 0.750000000 0.551104784 0.037531853
v 0.750000000 0.625446141 0.077268124
v 0.750000000 0.706111193 0.101737499
v 0.750000000 1.000000000 0.023015088
v 0.750000000 0.524436633 0.000000000
v 0.750000000 1.000000000 0.000000000
v 0.750000000 0.899999932 0.000000000
v 0.750000000 0.680000111 0.000000000
v 0.750000000 0.790000021 0.000000000
v 1.000000000 0.766697571 0.107704785
v 1.000000000 0.706111193 0.101737499
v 1.000000000 0.790000021 0.109999895
v 1.000000000 0.683704236 0.094940451
v 1.000000000 0.625446141 0.077268124
v 1.000000000 0.604795766 0.066230272
v 1.000000000 0.551104784 0.037531853
v 1.000000000 0.505372071 0.000000000
v 1.000000000 0.533004594 0.022677417
v 1.000000000 1.000000000 0.052976686
v 1.000000000 0.954553902 0.077268124
v 1.000000000 0.932146946 0.084065172
v 1.000000000 0.873888850 0.101737499
v 1.000000000 0.850586400 0.104032609
v 0.809999943 0.927512586 0.128220320
v 0.809999943 0.945190251 0.120898008
v 0.809999943 0.952512562 0.103220224
v 0.809999943 0.945190251 0.085542440
v 0.809999943 0.927512586 0.078220129
v 0.809999943 0.909834921 0.085542440
v 0.809999943 0.902512610 0.103220224
v 0.809999943 0.909834921 0.120898008
v 1.000000000 0.922847646 0.126288043
v 1.000000000 0.909834921 0.120898008
v 1.000000000 0.927512586 0.128220320
v 1.000000000 0.907902644 0.116233036
v 1.000000000 0.902512610 0.103220224
v 1.000000000 0.904444887 0.098555252
v 1.000000000 0.909834921 0.085542440
v 1.000000000 0.914499862 0.083610163
v 1.000000000 0.927512586 0.078220129
v 1.000000000 0.932177527 0.080152406
v 1.000000000 0.945190251 0.085542440
v 1.000000000 0.947122528 0.090207412
v 1.000000000 0.952512562 0.103220224
v 1.000000000 0.950580285 0.107885196
v 1.000000000 0.945190251 0.120898008
v 1.000000000 0.940525310 0.122830285
v 0.809999943 0.743484855 0.147562265
v 0.809999943 0.761162519 0.140239954
v 0.809999943 0.768484831 0.122562170
v 0.809999943 0.761162519 0.104884386
v 0.809999943 0.743484855 0.097562075
v 0.809999943 0.725807190 0.104884386
v 0.809999943 0.718484879 0.122562170
v 0.809999943 0.725807190 0.140239954
v 1.000000000 0.738819914 0.145629988
v 1.000000000 0.725807190 0.140239954
v 1.000000000 0.743484855 0.147562265
v 1.000000000 0.723874913 0.135574982
v 1.000000000 0.718484879 0.122562170
v 1.000000000 0.720417156 0.117897198
v 1.000000000 0.725807190 0.104884386
v 1.000000000 0.730472130 0.102952109
v 1.000000000 0.743484855 0.097562075
v 1.000000000 0.748149795 0.099494352
v 1.000000000 0.761162519 0.104884386
v 1.000000000 0.763094797 0.109549358
v 1.000000000 0.768484831 0.122562170
v 1.000000000 0.766552554 0.127227142
v 1.000000000 0.761162519 0.140239954
v 1.000000000 0.756497579 0.142172231
v 0.809999943 0.567499995 0.090381384
v 0.809999943 0.585177660 0.083059072
v 0.809999943 0.592499971 0.065381289
v 0.809999943 0.585177660 0.047703505
v 0.809999943 0.567499995 0.040381193
v 0.809999943 0.549822330 0.047703505
v 0.809999943 0.542500019 0.065381289
v 0.809999943 0.549822330 0.083059072
v 1.000000000 0.562835055 0.088449107
v 1.000000000 0.549822330 0.083059072
v 1.000000000 0.567499995 0.090381384
v 1.000000000 0.547890053 0.078394101
v 1.000000000 0.542500019 0.065381289
v 1.000000000 0.544432296 0.060716317
v 1.000000000 0.549822330 0.047703505
v 1.000000000 0.554487271 0.045771227
v 1.000000000 0.567499995 0.040381193
v 1.000000000 0.572164936 0.042313470
v 1.000000000 0.585177660 0.047703505
v 1.000000000 0.587109937 0.052368477
v 1.000000000 0.592499971 0.065381289
v 1.000000000 0.590567694 0.070046261
v 1.000000000 0.585177660 0.083059072
v 1.000000000 0.580512719 0.084991350
v 0.223023272 1.000000000 0.130000114
v 0.000000000 0.786888879 0.130000114
v 0.000000000 0.289999992 0.130000114
v 0.379999995 0.289999992 0.130000114
v 0.379999995 1.000000000 0.130000114
v 0.000000000 1.000000000 0.130000114
v 0.245517136 0.289999992 0.000000000
v 0.379999995 0.289999992 0.000000000
v 0.000000000 0.289999992 0.000000000
v 0.379999995 1.000000000 0.000000000
vt 0.500000000 0.500000000
vn 0.000000000 0.000000000 1.000000000
vn 0.000000000 -1.000000000 0.000000000
vn 0.000000000 1.000000000 0.000000000
vn 0.000000000 0.000000000 -1.000000000
vn -1.000000000 0.000000000 0.000000000
vn 0.000000000 -0.098017932 0.995184649
vn 0.000000000 -0.290283587 0.956940667
vn 0.000000000 -0.471396625 0.881921324
vn 0.000000000 -0.634393130 0.773010580
vn 0.000000000 0.471396625 0.881921324
vn 0.000000000 0.290283587 0.956940667
vn 0.000000000 0.098017932 0.995184649
vn 0.000000000 -0.382682670 0.923879848
vn 0.000000000 -0.923880761 0.382680467
vn 0.000000000 -0.923880761 -0.382680467
vn 0.000000000 -0.382682670 -0.923879848
vn 0.000000000 0.382682670 -0.923879848
vn 0.000000000 0.923880761 -0.382680467
vn 0.000000000 0.923880761 0.382680467
vn 0.000000000 0.382682670 0.923879848
vn 1.000000000 0.000000000 0.000000000
usemtl mat_0
f 1/1/1 2/1/1 3/1/1 4/1/1
f 2/1/1 1/1/1 5/1/1 6/1/1
f 7/1/2 8/1/2 4/1/2 3/1/2
f 9/1/3 10/1/3 6/1/3 5/1/3
usemtl mat_1
f 11/1/4 12/1/4 13/1/4 14/1/4
f 15/1/4 16/1/4 12/1/4 11/1/4
f 17/1/1 18/1/1 19/1/1 20/1/1
f 18/1/1 17/1/1 21/1/1 22/1/1
f 23/1/2 24/1/2 16/1/2 15/1/2
f 24/1/2 23/1/2 20/1/2 19/1/2
f 25/1/3 26/1/3 22/1/3 21/1/3
f 14/1/3 13/1/3 26/1/3 25/1/3
usemtl mat_2
f 27/1/5 28/1/5 29/1/5
f 30/1/5 29/1/5 31/1/5
f 32/1/5 33/1/5 34/1/5 35/1/5
f 35/1/5 36/1/5 27/1/5
f 37/1/5 27/1/5 29/1/5 30/1/5
f 38/1/5 32/1/5 35/1/5 27/1/5
f 39/1/5 40/1/5 27/1/5 37/1/5
f 41/1/5 38/1/5 27/1/5
f 42/1/5 27/1/5 40/1/5
f 42/1/5 41/1/5 27/1/5
f 43/1/6 27/1/6 36/1/6 44/1/6
f 45/1/6 27/1/6 43/1/6
f 46/1/7 36/1/7 35/1/7 47/1/7
f 44/1/7 36/1/7 46/1/7
f 48/1/8 35/1/8 34/1/8 49/1/8
f 47/1/8 35/1/8 48/1/8
f 50/1/9 51/1/9 34/1/9 33/1/9
f 49/1/9 34/1/9 51/1/9
f 52/1/10 31/1/10 29/1/10 53/1/10
f 54/1/11 29/1/11 28/1/11 55/1/11
f 53/1/11 29/1/11 54/1/11
f 56/1/12 28/1/12 27/1/12 45/1/12
f 55/1/12 28/1/12 56/1/12
f 57/1/5 58/1/5 59/1/5
f 59/1/5 60/1/5 61/1/5
f 61/1/5 62/1/5 63/1/5
f 63/1/5 64/1/5 57/1/5
f 57/1/5 59/1/5 61/1/5
f 61/1/5 63/1/5 57/1/5
f 65/1/13 57/1/13 64/1/13 66/1/13
f 67/1/13 57/1/13 65/1/13
f 68/1/14 64/1/14 63/1/14 69/1/14
f 66/1/14 64/1/14 68/1/14
f 70/1/15 63/1/15 62/1/15 71/1/15
f 69/1/15 63/1/15 70/1/15
f 72/1/16 62/1/16 61/1/16 73/1/16
f 71/1/16 62/1/16 72/1/16
f 74/1/17 61/1/17 60/1/17 75/1/17
f 73/1/17 61/1/17 74/1/17
f 76/1/18 60/1/18 59/1/18 77/1/18
f 75/1/18 60/1/18 76/1/18
f 78/1/19 59/1/19 58/1/19 79/1/19
f 77/1/19 59/1/19 78/1/19
f 80/1/20 58/1/20 57/1/20 67/1/20
f 79/1/20 58/1/20 80/1/20
f 81/1/5 82/1/5 83/1/5
f 83/1/5 84/1/5 85/1/5
f 85/1/5 86/1/5 87/1/5
f 87/1/5 88/1/5 81/1/5
f 81/1/5 83/1/5 85/1/5
f 85/1/5 87/1/5 81/1/5
f 89/1/13 81/1/13 88/1/13 90/1/13
f 91/1/13 81/1/13 89/1/13
f 92/1/14 88/1/14 87/1/14 93/1/14
f 90/1/14 88/1/14 92/1/14
f 94/1/15 87/1/15 86/1/15 95/1/15
f 93/1/15 87/1/15 94/1/15
f 96/1/16 86/1/16 85/1/16 97/1/16
f 95/1/16 86/1/16 96/1/16
f 98/1/17 85/1/17 84/1/17 99/1/17
f 97/1/17 85/1/17 98/1/17
f 100/1/18 84/1/18 83/1/18 101/1/18
f 99/1/18 84/1/18 100/1/18
f 102/1/19 83/1/19 82/1/19 103/1/19
f 101/1/19 83/1/19 102/1/19
f 104/1/20 82/1/20 81/1/20 91/1/20
f 103/1/20 82/1/20 104/1/20
f 105/1/5 106/1/5 107/1/5
f 107/1/5 108/1/5 109/1/5
f 109/1/5 110/1/5 111/1/5
f 111/1/5 112/1/5 105/1/5
f 105/1/5 107/1/5 109/1/5
f 109/1/5 111/1/5 105/1/5
f 113/1/13 105/1/13 112/1/13 114/1/13
f 115/1/13 105/1/13 113/1/13
f 116/1/14 112/1/14 111/1/14 117/1/14
f 114/1/14 112/1/14 116/1/14
f 118/1/15 111/1/15 110/1/15 119/1/15
f 117/1/15 111/1/15 118/1/15
f 120/1/16 110/1/16 109/1/16 121/1/16
f 119/1/16 110/1/16 120/1/16
f 122/1/17 109/1/17 108/1/17 123/1/17
f 121/1/17 109/1/17 122/1/17
f 124/1/18 108/1/18 107/1/18 125/1/18
f 123/1/18 108/1/18 124/1/18
f 126/1/19 107/1/19 106/1/19 127/1/19
f 125/1/19 107/1/19 126/1/19
f 128/1/20 106/1/20 105/1/20 115/1/20
f 127/1/20 106/1/20 128/1/20
f 129/1/1 130/1/1 131/1/1
f 129/1/1 131/1/1 132/1/1
f 129/1/1 132/1/1 133/1/1
f 134/1/1 130/1/1 129/1/1
f 135/1/2 136/1/2 132/1/2
f 137/1/2 135/1/2 132/1/2 131/1/2
f 136/1/21 138/1/21 133/1/21 132/1/21
