# Authored in Blender; exported by tools-export-modern.py
mtllib materials.mtl
s off
v 1.000000000 0.245531920 0.349999994
v 0.000000000 0.194468089 0.349999994
v 0.000000000 0.340000004 0.349999994
v 1.000000000 0.340000004 0.349999994
v 1.000000000 0.100000001 0.349999994
v 0.000000000 0.100000001 0.349999994
v 1.000000000 0.245531920 0.699999988
v 0.000000000 0.194468089 0.699999988
v 0.000000000 0.100000001 0.699999988
v 1.000000000 0.100000001 0.699999988
v 1.000000000 0.340000004 0.699999988
v 0.000000000 0.340000004 0.699999988
v 1.000000000 0.100000001 0.562234037
v 0.000000000 0.100000001 0.487765952
v 1.000000000 0.340000004 0.562234037
v 0.000000000 0.340000004 0.487765952
v 1.000000000 0.352291664 0.280000001
v 0.000000000 0.337708332 0.280000001
v 0.000000000 0.379999995 0.280000001
v 1.000000000 0.379999995 0.280000001
v 1.000000000 0.310000002 0.280000001
v 0.000000000 0.310000002 0.280000001
v 1.000000000 0.352291664 0.769999981
v 0.000000000 0.337708332 0.769999981
v 0.000000000 0.310000002 0.769999981
v 1.000000000 0.310000002 0.769999981
v 1.000000000 0.379999995 0.769999981
v 0.000000000 0.379999995 0.769999981
v 1.000000000 0.310000002 0.576041650
v 0.000000000 0.310000002 0.473958323
v 1.000000000 0.379999995 0.576041650
v 0.000000000 0.379999995 0.473958323
v 0.380000114 0.159999996 0.349999994
v 0.380000114 0.319999993 0.349999994
v 0.619999886 0.319999993 0.349999994
v 0.619999886 0.159999996 0.349999994
v 0.420000077 0.159999996 1.000000000
v 0.619999886 0.159999996 1.000000000
v 0.380000114 0.159999996 1.000000000
v 0.420000077 0.319999993 1.000000000
v 0.380000114 0.319999993 1.000000000
v 0.619999886 0.319999993 1.000000000
v 0.380000114 0.186666663 1.000000000
v 0.619999886 0.186666663 1.000000000
v 0.250000000 0.029999999 0.200000003
v 0.250000000 0.140000001 0.200000003
v 0.750000000 0.140000001 0.200000003
v 0.750000000 0.029999999 0.200000003
v 0.250000000 0.029999999 0.600000024
v 0.750000000 0.029999999 0.600000024
v 0.750000000 0.140000001 0.600000024
v 0.250000000 0.140000001 0.600000024
v 0.329999924 0.150000006 0.365000010
v 0.360310793 0.150000006 0.382499993
v 0.360310793 0.150000006 0.417500019
v 0.329999924 0.150000006 0.435000002
v 0.299689054 0.150000006 0.417500019
v 0.299689054 0.150000006 0.382499993
v 0.360310793 0.239999995 0.382499993
v 0.329999924 0.239999995 0.365000010
v 0.299689054 0.239999995 0.382499993
v 0.299689054 0.239999995 0.417500019
v 0.329999924 0.239999995 0.435000002
v 0.360310793 0.239999995 0.417500019
v 0.670000076 0.150000006 0.365000010
v 0.700310946 0.150000006 0.382499993
v 0.700310946 0.150000006 0.417500019
v 0.670000076 0.150000006 0.435000002
v 0.639689207 0.150000006 0.417500019
v 0.639689207 0.150000006 0.382499993
v 0.700310946 0.239999995 0.382499993
v 0.670000076 0.239999995 0.365000010
v 0.639689207 0.239999995 0.382499993
v 0.639689207 0.239999995 0.417500019
v 0.670000076 0.239999995 0.435000002
v 0.700310946 0.239999995 0.417500019
v 0.000000000 0.650000000 0.819999993
v 0.000000000 0.730000019 0.819999993
v 0.400000095 0.730000019 0.819999993
v 0.000000000 0.379999995 0.819999993
v 0.400000095 0.379999995 0.819999993
v 0.000000000 0.379999995 1.000000000
v 0.400000095 0.379999995 1.000000000
v 0.000000000 0.730000019 1.000000000
v 0.400000095 0.730000019 1.000000000
v 0.400000095 0.516956538 1.000000000
v 0.250000000 0.812492009 1.000000000
v 0.250000000 0.810335974 1.000000000
v 0.250000000 0.816286802 0.988320827
v 0.250000000 0.858320832 0.946286798
v 0.250000000 0.911286771 0.919299304
v 0.250000000 1.000000000 0.919299304
v 0.250000000 0.970000029 0.910000026
v 0.250000000 1.000000000 0.914751566
v 0.250000000 0.816286802 1.000000000
v 0.250000000 1.000000000 0.928628796
v 0.250000000 0.824772215 1.000000000
v 0.250000000 1.000000000 1.000000000
v 0.250000000 0.852231605 1.000000000
v 0.000000000 0.811933981 0.996863730
v 0.000000000 0.816286802 0.988320827
v 0.000000000 0.810335974 1.000000000
v 0.000000000 0.851541150 0.953066480
v 0.000000000 0.858320832 0.946286798
v 0.000000000 0.902743878 0.923652126
v 0.000000000 0.911286771 0.919299304
v 0.000000000 0.960530148 0.911499910
v 0.000000000 0.970000029 0.910000026
v 0.000000000 1.000000000 0.914751566
v 0.046162010 0.763912675 1.000000000
v 0.010000229 0.763912675 1.000000000
v 0.010000229 0.778761983 0.972218871
v 0.130000114 0.778761983 0.972218871
v 0.130000114 0.763912675 1.000000000
v 0.010000229 0.807365477 0.937365472
v 0.130000114 0.807365477 0.937365472
v 0.010000229 0.842218876 0.908761978
v 0.130000114 0.842218876 0.908761978
v 0.010000229 0.881982863 0.887507737
v 0.130000114 0.881982863 0.887507737
v 0.010000229 0.925129235 0.874419391
v 0.130000114 0.925129235 0.874419391
v 0.010000229 0.970000029 0.870000005
v 0.130000114 0.970000029 0.870000005
v 0.090230544 1.000000000 0.872954747
v 0.010000229 1.000000000 0.872954747
v 0.130000114 1.000000000 0.872954747
v 0.130000114 0.820339367 1.000000000
v 0.130000114 0.824261320 1.000000000
v 0.130000114 0.870000033 1.000000000
v 0.130000114 0.875342840 1.000000000
v 0.130000114 0.903182159 1.000000000
v 0.130000114 0.908732386 1.000000000
v 0.130000114 0.928578704 1.000000000
v 0.130000114 0.934062733 1.000000000
v 0.130000114 0.950108779 1.000000000
v 0.130000114 0.955492858 1.000000000
v 0.130000114 0.970000029 1.000000000
v 0.130000114 0.975317835 1.000000000
v 0.130000114 1.000000000 0.949179861
v 0.130000114 0.989891259 1.000000000
v 0.130000114 0.995188402 1.000000000
v 0.130000114 1.000000000 0.969300256
v 0.130000114 1.000000000 1.000000000
v 0.010000229 0.816869973 1.000000000
v 0.010000229 0.820339367 1.000000000
v 0.010000229 0.865077077 1.000000000
v 0.010000229 0.870000033 1.000000000
v 0.010000229 0.897927329 1.000000000
v 0.010000229 0.903182159 1.000000000
v 0.010000229 0.923277351 1.000000000
v 0.010000229 0.928578704 1.000000000
v 0.010000229 0.944811636 1.000000000
v 0.010000229 0.950108779 1.000000000
v 0.010000229 0.964682223 1.000000000
v 0.010000229 0.970000029 1.000000000
v 0.010000229 1.000000000 0.935923313
v 0.010000229 0.984507180 1.000000000
v 0.010000229 0.989891259 1.000000000
v 0.010000229 1.000000000 0.949179861
v 0.010000229 1.000000000 1.000000000
v 0.000000000 0.779610022 0.990054820
v 0.000000000 0.786411524 0.977330089
v 0.010000229 0.786411524 0.977330089
v 0.000000000 0.774294220 1.000000000
v 0.010000229 0.774294220 1.000000000
v 0.000000000 0.804717558 0.955024146
v 0.000000000 0.813870847 0.943870842
v 0.010000229 0.813870847 0.943870842
v 0.000000000 0.836176790 0.925564809
v 0.000000000 0.847330093 0.916411519
v 0.010000229 0.847330093 0.916411519
v 0.000000000 0.872778799 0.902808921
v 0.000000000 0.885503531 0.896007419
v 0.010000229 0.885503531 0.896007419
v 0.000000000 0.913116975 0.887630983
v 0.000000000 0.926924109 0.883442640
v 0.010000229 0.926924109 0.883442640
v 0.000000000 0.955641104 0.880614269
v 0.000000000 0.970000029 0.879200041
v 0.010000229 0.970000029 0.879200041
v 0.000893526 1.000000000 0.882154775
v 0.000000000 0.998717023 0.882028413
v 0.000000000 1.000000000 0.882154775
v 0.010000229 1.000000000 0.882154775
v 0.010000229 0.820339418 1.000000000
v 0.010000229 0.823713112 1.000000000
v 0.010000229 0.870000031 1.000000000
v 0.010000229 0.875041416 1.000000000
v 0.010000229 0.903182141 1.000000000
v 0.010000229 0.908532296 1.000000000
v 0.010000229 0.928578698 1.000000000
v 0.010000229 0.933909898 1.000000000
v 0.010000229 0.950108792 1.000000000
v 0.010000229 0.955361404 1.000000000
v 0.010000229 0.975191879 1.000000000
v 0.010000229 1.000000000 0.949179919
v 0.010000229 0.989891265 1.000000000
v 0.010000229 0.995054804 1.000000000
v 0.010000229 1.000000000 0.968015405
v 0.165000200 0.844342232 0.969712019
v 0.165000200 0.833387017 0.976037025
v 0.165000200 0.822431803 0.969712019
v 0.165000200 0.822431803 0.957062006
v 0.165000200 0.833387017 0.950737000
v 0.165000200 0.844342232 0.957062006
v 0.000000000 0.830123767 0.974152984
v 0.000000000 0.822431803 0.969712019
v 0.000000000 0.833387017 0.976037025
v 0.000000000 0.822431803 0.965943936
v 0.000000000 0.822431803 0.957062006
v 0.000000000 0.825695053 0.955177964
v 0.000000000 0.833387017 0.950737000
v 0.000000000 0.836650268 0.952621041
v 0.000000000 0.844342232 0.957062006
v 0.000000000 0.844342232 0.960830089
v 0.000000000 0.844342232 0.969712019
v 0.000000000 0.841078981 0.971596061
v 0.165000200 0.980955243 0.913125038
v 0.165000200 0.970000029 0.919450045
v 0.165000200 0.959044814 0.913125038
v 0.165000200 0.959044814 0.900475025
v 0.165000200 0.970000029 0.894150019
v 0.165000200 0.980955243 0.900475025
v 0.000000000 0.966736778 0.917566003
v 0.000000000 0.959044814 0.913125038
v 0.000000000 0.970000029 0.919450045
v 0.000000000 0.959044814 0.909356955
v 0.000000000 0.959044814 0.900475025
v 0.000000000 0.962308065 0.898590984
v 0.000000000 0.970000029 0.894150019
v 0.000000000 0.973263279 0.896034060
v 0.000000000 0.980955243 0.900475025
v 0.000000000 0.980955243 0.904243108
v 0.000000000 0.980955243 0.913125038
v 0.000000000 0.977691993 0.915009080
vt 0.500000000 0.500000000
vn 0.000000000 0.000000000 -1.000000000
vn 0.000000000 0.000000000 1.000000000
vn 0.000000000 -1.000000000 0.000000000
vn 0.000000000 1.000000000 0.000000000
vn -1.000000000 0.000000000 0.000000000
vn 1.000000000 0.000000000 0.000000000
vn -0.499999889 0.000000000 -0.866025468
vn -0.499999889 0.000000000 0.866025468
vn 0.499999889 0.000000000 0.866025468
vn 0.499999889 0.000000000 -0.866025468
vn 0.000000000 -0.891006737 -0.453990083
vn 0.000000000 -0.707106781 -0.707106781
vn 0.000000000 -0.453990488 -0.891006530
vn 0.000000000 -0.156434660 -0.987688310
vn 0.000000000 0.156434815 -0.987688285
vn 0.000000000 -0.881921454 -0.471396382
vn 0.000000000 -0.773009921 -0.634393933
vn 0.000000000 -0.634393933 -0.773009921
vn 0.000000000 -0.471395832 -0.881921748
vn 0.000000000 -0.290285423 -0.956940110
vn 0.000000000 -0.098017117 -0.995184729
vn 0.000000000 0.098017246 -0.995184716
vn 0.000000000 -0.881921522 -0.471396255
vn 0.000000000 -0.773010117 -0.634393695
vn 0.000000000 -0.634393695 -0.773010117
vn 0.000000000 -0.471396255 -0.881921522
vn 0.000000000 -0.290284319 -0.956940444
vn 0.000000000 -0.098016941 -0.995184746
vn 0.000000000 0.098016941 -0.995184746
vn 0.000000000 -0.500000619 0.866025046
vn 0.000000000 -0.500000619 -0.866025046
vn 0.000000000 0.500000619 -0.866025046
vn 0.000000000 0.500000619 0.866025046
usemtl mat_0
f 1/1/1 2/1/1 3/1/1 4/1/1
f 5/1/1 6/1/1 2/1/1 1/1/1
f 7/1/2 8/1/2 9/1/2 10/1/2
f 8/1/2 7/1/2 11/1/2 12/1/2
f 13/1/3 14/1/3 6/1/3 5/1/3
f 14/1/3 13/1/3 10/1/3 9/1/3
f 15/1/4 16/1/4 12/1/4 11/1/4
f 4/1/4 3/1/4 16/1/4 15/1/4
f 17/1/1 18/1/1 19/1/1 20/1/1
f 21/1/1 22/1/1 18/1/1 17/1/1
f 23/1/2 24/1/2 25/1/2 26/1/2
f 24/1/2 23/1/2 27/1/2 28/1/2
f 29/1/3 30/1/3 22/1/3 21/1/3
f 30/1/3 29/1/3 26/1/3 25/1/3
f 31/1/4 32/1/4 28/1/4 27/1/4
f 20/1/4 19/1/4 32/1/4 31/1/4
f 33/1/1 34/1/1 35/1/1
f 33/1/1 35/1/1 36/1/1
f 37/1/3 33/1/3 36/1/3 38/1/3
f 39/1/3 33/1/3 37/1/3
f 40/1/4 34/1/4 41/1/4
f 34/1/4 40/1/4 42/1/4 35/1/4
f 43/1/5 33/1/5 39/1/5
f 33/1/5 43/1/5 41/1/5 34/1/5
f 44/1/6 36/1/6 35/1/6 42/1/6
f 38/1/6 36/1/6 44/1/6
usemtl mat_1
f 45/1/1 46/1/1 47/1/1
f 45/1/1 47/1/1 48/1/1
f 49/1/2 50/1/2 51/1/2
f 49/1/2 51/1/2 52/1/2
f 45/1/3 48/1/3 50/1/3
f 45/1/3 50/1/3 49/1/3
f 46/1/4 52/1/4 51/1/4
f 46/1/4 51/1/4 47/1/4
f 45/1/5 49/1/5 52/1/5
f 45/1/5 52/1/5 46/1/5
f 48/1/6 47/1/6 51/1/6
f 48/1/6 51/1/6 50/1/6
usemtl mat_2
f 53/1/3 54/1/3 55/1/3
f 55/1/3 56/1/3 57/1/3
f 57/1/3 58/1/3 53/1/3
f 55/1/3 57/1/3 53/1/3
f 59/1/4 60/1/4 61/1/4
f 61/1/4 62/1/4 63/1/4
f 63/1/4 64/1/4 59/1/4
f 61/1/4 63/1/4 59/1/4
f 53/1/7 58/1/7 61/1/7
f 53/1/7 61/1/7 60/1/7
f 58/1/5 57/1/5 62/1/5
f 58/1/5 62/1/5 61/1/5
f 57/1/8 56/1/8 63/1/8
f 57/1/8 63/1/8 62/1/8
f 56/1/9 55/1/9 64/1/9
f 56/1/9 64/1/9 63/1/9
f 55/1/6 54/1/6 59/1/6
f 55/1/6 59/1/6 64/1/6
f 54/1/10 53/1/10 60/1/10
f 54/1/10 60/1/10 59/1/10
f 65/1/3 66/1/3 67/1/3
f 67/1/3 68/1/3 69/1/3
f 69/1/3 70/1/3 65/1/3
f 67/1/3 69/1/3 65/1/3
f 71/1/4 72/1/4 73/1/4
f 73/1/4 74/1/4 75/1/4
f 75/1/4 76/1/4 71/1/4
f 73/1/4 75/1/4 71/1/4
f 65/1/7 70/1/7 73/1/7
f 65/1/7 73/1/7 72/1/7
f 70/1/5 69/1/5 74/1/5
f 70/1/5 74/1/5 73/1/5
f 69/1/8 68/1/8 75/1/8
f 69/1/8 75/1/8 74/1/8
f 68/1/9 67/1/9 76/1/9
f 68/1/9 76/1/9 75/1/9
f 67/1/6 66/1/6 71/1/6
f 67/1/6 71/1/6 76/1/6
f 66/1/10 65/1/10 72/1/10
f 66/1/10 72/1/10 71/1/10
usemtl mat_0
f 77/1/1 78/1/1 79/1/1
f 80/1/1 77/1/1 79/1/1 81/1/1
f 82/1/3 80/1/3 81/1/3 83/1/3
f 78/1/4 84/1/4 85/1/4 79/1/4
f 86/1/6 81/1/6 79/1/6 85/1/6
f 83/1/6 81/1/6 86/1/6
usemtl mat_2
f 87/1/6 88/1/6 89/1/6
f 89/1/6 90/1/6 91/1/6
f 92/1/6 91/1/6 93/1/6 94/1/6
f 95/1/6 87/1/6 89/1/6
f 96/1/6 89/1/6 91/1/6 92/1/6
f 97/1/6 95/1/6 89/1/6
f 98/1/6 99/1/6 89/1/6 96/1/6
f 97/1/6 89/1/6 99/1/6
f 100/1/11 101/1/11 89/1/11
f 102/1/11 100/1/11 89/1/11 88/1/11
f 103/1/12 104/1/12 90/1/12
f 101/1/12 103/1/12 90/1/12 89/1/12
f 105/1/13 106/1/13 91/1/13
f 104/1/13 105/1/13 91/1/13 90/1/13
f 107/1/14 108/1/14 93/1/14
f 106/1/14 107/1/14 93/1/14 91/1/14
f 108/1/15 109/1/15 94/1/15 93/1/15
f 110/1/16 111/1/16 112/1/16 113/1/16
f 110/1/16 113/1/16 114/1/16
f 112/1/17 115/1/17 116/1/17
f 112/1/17 116/1/17 113/1/17
f 115/1/18 117/1/18 118/1/18
f 115/1/18 118/1/18 116/1/18
f 117/1/19 119/1/19 120/1/19
f 117/1/19 120/1/19 118/1/19
f 119/1/20 121/1/20 122/1/20
f 119/1/20 122/1/20 120/1/20
f 121/1/21 123/1/21 124/1/21
f 121/1/21 124/1/21 122/1/21
f 125/1/22 123/1/22 126/1/22
f 123/1/22 125/1/22 127/1/22 124/1/22
f 114/1/6 113/1/6 128/1/6
f 129/1/6 113/1/6 116/1/6 130/1/6
f 128/1/6 113/1/6 129/1/6
f 131/1/6 116/1/6 118/1/6 132/1/6
f 130/1/6 116/1/6 131/1/6
f 133/1/6 118/1/6 120/1/6 134/1/6
f 132/1/6 118/1/6 133/1/6
f 135/1/6 120/1/6 122/1/6 136/1/6
f 134/1/6 120/1/6 135/1/6
f 137/1/6 122/1/6 124/1/6 138/1/6
f 136/1/6 122/1/6 137/1/6
f 139/1/6 124/1/6 127/1/6
f 139/1/6 127/1/6 140/1/6
f 139/1/6 140/1/6 141/1/6
f 138/1/6 124/1/6 139/1/6
f 142/1/6 143/1/6 144/1/6
f 141/1/6 140/1/6 143/1/6 142/1/6
f 145/1/5 146/1/5 112/1/5
f 145/1/5 112/1/5 111/1/5
f 147/1/5 148/1/5 115/1/5
f 146/1/5 147/1/5 115/1/5 112/1/5
f 149/1/5 150/1/5 117/1/5
f 148/1/5 149/1/5 117/1/5 115/1/5
f 151/1/5 152/1/5 119/1/5
f 150/1/5 151/1/5 119/1/5 117/1/5
f 153/1/5 154/1/5 121/1/5
f 152/1/5 153/1/5 121/1/5 119/1/5
f 155/1/5 156/1/5 123/1/5
f 154/1/5 155/1/5 123/1/5 121/1/5
f 157/1/5 158/1/5 159/1/5 160/1/5
f 156/1/5 158/1/5 157/1/5
f 156/1/5 157/1/5 126/1/5
f 156/1/5 126/1/5 123/1/5
f 161/1/5 160/1/5 159/1/5
usemtl mat_1
f 162/1/23 163/1/23 164/1/23
f 165/1/23 162/1/23 164/1/23 166/1/23
f 167/1/24 168/1/24 169/1/24
f 163/1/24 167/1/24 169/1/24 164/1/24
f 170/1/25 171/1/25 172/1/25
f 168/1/25 170/1/25 172/1/25 169/1/25
f 173/1/26 174/1/26 175/1/26
f 171/1/26 173/1/26 175/1/26 172/1/26
f 176/1/27 177/1/27 178/1/27
f 174/1/27 176/1/27 178/1/27 175/1/27
f 179/1/28 180/1/28 181/1/28
f 177/1/28 179/1/28 181/1/28 178/1/28
f 182/1/29 183/1/29 184/1/29
f 180/1/29 183/1/29 182/1/29
f 180/1/29 182/1/29 185/1/29
f 180/1/29 185/1/29 181/1/29
f 166/1/6 164/1/6 186/1/6
f 187/1/6 164/1/6 169/1/6 188/1/6
f 186/1/6 164/1/6 187/1/6
f 189/1/6 169/1/6 172/1/6 190/1/6
f 188/1/6 169/1/6 189/1/6
f 191/1/6 172/1/6 175/1/6 192/1/6
f 190/1/6 172/1/6 191/1/6
f 193/1/6 175/1/6 178/1/6 194/1/6
f 192/1/6 175/1/6 193/1/6
f 195/1/6 178/1/6 181/1/6 156/1/6
f 194/1/6 178/1/6 195/1/6
f 196/1/6 181/1/6 185/1/6
f 196/1/6 185/1/6 197/1/6
f 196/1/6 197/1/6 198/1/6
f 156/1/6 181/1/6 196/1/6
f 199/1/6 200/1/6 161/1/6
f 198/1/6 197/1/6 200/1/6 199/1/6
usemtl mat_2
f 201/1/6 202/1/6 203/1/6
f 203/1/6 204/1/6 205/1/6
f 205/1/6 206/1/6 201/1/6
f 203/1/6 205/1/6 201/1/6
f 207/1/30 208/1/30 203/1/30
f 209/1/30 207/1/30 203/1/30 202/1/30
f 210/1/3 211/1/3 204/1/3
f 208/1/3 210/1/3 204/1/3 203/1/3
f 212/1/31 213/1/31 205/1/31
f 211/1/31 212/1/31 205/1/31 204/1/31
f 214/1/32 215/1/32 206/1/32
f 213/1/32 214/1/32 206/1/32 205/1/32
f 216/1/4 217/1/4 201/1/4
f 215/1/4 216/1/4 201/1/4 206/1/4
f 218/1/33 209/1/33 202/1/33
f 217/1/33 218/1/33 202/1/33 201/1/33
f 219/1/6 220/1/6 221/1/6
f 221/1/6 222/1/6 223/1/6
f 223/1/6 224/1/6 219/1/6
f 221/1/6 223/1/6 219/1/6
f 225/1/30 226/1/30 221/1/30
f 227/1/30 225/1/30 221/1/30 220/1/30
f 228/1/3 229/1/3 222/1/3
f 226/1/3 228/1/3 222/1/3 221/1/3
f 230/1/31 231/1/31 223/1/31
f 229/1/31 230/1/31 223/1/31 222/1/31
f 232/1/32 233/1/32 224/1/32
f 231/1/32 232/1/32 224/1/32 223/1/32
f 234/1/4 235/1/4 219/1/4
f 233/1/4 234/1/4 219/1/4 224/1/4
f 236/1/33 227/1/33 220/1/33
f 235/1/33 236/1/33 220/1/33 219/1/33
