# Authored in Blender; exported by tools-export-modern.py
mtllib materials.mtl
s off
v 1.000000000 0.245531920 0.250000000
v 0.000000000 0.194468089 0.250000000
v 0.000000000 0.100000001 0.250000000
v 1.000000000 0.100000001 0.250000000
v 1.000000000 0.340000004 0.250000000
v 0.000000000 0.340000004 0.250000000
v 1.000000000 0.100000001 0.000000000
v 1.000000000 0.100000001 0.112234084
v 0.000000000 0.100000001 0.037766018
v 0.000000000 0.100000001 0.000000000
v 1.000000000 0.340000004 0.112234084
v 0.000000000 0.340000004 0.037766018
v 1.000000000 0.340000004 0.000000000
v 0.000000000 0.340000004 0.000000000
v 1.000000000 0.352291664 0.320000172
v 0.000000000 0.337708332 0.320000172
v 0.000000000 0.310000002 0.320000172
v 1.000000000 0.310000002 0.320000172
v 1.000000000 0.379999995 0.320000172
v 0.000000000 0.379999995 0.320000172
v 1.000000000 0.310000002 0.000000000
v 1.000000000 0.310000002 0.126041734
v 0.000000000 0.310000002 0.023958351
v 0.000000000 0.310000002 0.000000000
v 1.000000000 0.379999995 0.126041734
v 0.000000000 0.379999995 0.023958351
v 1.000000000 0.379999995 0.000000000
v 0.000000000 0.379999995 0.000000000
v 0.380000114 0.159999996 0.250000000
v 0.619999886 0.159999996 0.250000000
v 0.619999886 0.319999993 0.250000000
v 0.380000114 0.319999993 0.250000000
v 0.604615285 0.159999996 0.000000000
v 0.619999886 0.159999996 0.000000000
v 0.380000114 0.159999996 0.000000000
v 0.604615285 0.319999993 0.000000000
v 0.380000114 0.319999993 0.000000000
v 0.619999886 0.319999993 0.000000000
v 0.380000114 0.309743583 0.000000000
v 0.619999886 0.309743583 0.000000000
v 0.250000000 0.029999999 0.320000172
v 0.750000000 0.029999999 0.320000172
v 0.750000000 0.140000001 0.320000172
v 0.250000000 0.140000001 0.320000172
v 0.349999881 0.029999999 0.000000000
v 0.750000000 0.029999999 0.000000000
v 0.250000000 0.029999999 0.000000000
v 0.349999881 0.140000001 0.000000000
v 0.250000000 0.140000001 0.000000000
v 0.750000000 0.140000001 0.000000000
v 0.250000000 0.051999973 0.000000000
v 0.750000000 0.051999973 0.000000000
v 0.329999924 0.150000006 0.085000038
v 0.360310793 0.150000006 0.102499962
v 0.360310793 0.150000006 0.137499809
v 0.329999924 0.150000006 0.154999733
v 0.299689054 0.150000006 0.137499809
v 0.299689054 0.150000006 0.102499962
v 0.360310793 0.239999995 0.102499962
v 0.329999924 0.239999995 0.085000038
v 0.299689054 0.239999995 0.102499962
v 0.299689054 0.239999995 0.137499809
v 0.329999924 0.239999995 0.154999733
v 0.360310793 0.239999995 0.137499809
v 0.670000076 0.150000006 0.085000038
v 0.700310946 0.150000006 0.102499962
v 0.700310946 0.150000006 0.137499809
v 0.670000076 0.150000006 0.154999733
v 0.639689207 0.150000006 0.137499809
v 0.639689207 0.150000006 0.102499962
v 0.700310946 0.239999995 0.102499962
v 0.670000076 0.239999995 0.085000038
v 0.639689207 0.239999995 0.102499962
v 0.639689207 0.239999995 0.137499809
v 0.670000076 0.239999995 0.154999733
v 0.700310946 0.239999995 0.137499809
vt 0.500000000 0.500000000
vn 0.000000000 0.000000000 1.000000000
vn 0.000000000 -1.000000000 0.000000000
vn 0.000000000 1.000000000 0.000000000
vn -1.000000000 0.000000000 0.000000000
vn 1.000000000 0.000000000 0.000000000
vn -0.499998612 0.000000000 -0.866026205
vn -0.499998612 0.000000000 0.866026205
vn 0.499998612 0.000000000 0.866026205
vn 0.499998612 0.000000000 -0.866026205
usemtl mat_0
f 1/1/1 2/1/1 3/1/1 4/1/1
f 2/1/1 1/1/1 5/1/1 6/1/1
f 7/1/2 8/1/2 9/1/2 10/1/2
f 9/1/2 8/1/2 4/1/2 3/1/2
f 11/1/3 12/1/3 6/1/3 5/1/3
f 13/1/3 14/1/3 12/1/3 11/1/3
f 15/1/1 16/1/1 17/1/1 18/1/1
f 16/1/1 15/1/1 19/1/1 20/1/1
f 21/1/2 22/1/2 23/1/2 24/1/2
f 23/1/2 22/1/2 18/1/2 17/1/2
f 25/1/3 26/1/3 20/1/3 19/1/3
f 27/1/3 28/1/3 26/1/3 25/1/3
f 29/1/1 30/1/1 31/1/1
f 29/1/1 31/1/1 32/1/1
f 33/1/2 34/1/2 30/1/2
f 35/1/2 33/1/2 30/1/2 29/1/2
f 36/1/3 37/1/3 32/1/3 31/1/3
f 36/1/3 31/1/3 38/1/3
f 39/1/4 35/1/4 29/1/4 32/1/4
f 39/1/4 32/1/4 37/1/4
f 40/1/5 38/1/5 31/1/5
f 34/1/5 40/1/5 31/1/5 30/1/5
usemtl mat_1
f 41/1/1 42/1/1 43/1/1
f 41/1/1 43/1/1 44/1/1
f 45/1/2 46/1/2 42/1/2
f 47/1/2 45/1/2 42/1/2 41/1/2
f 48/1/3 49/1/3 44/1/3 43/1/3
f 48/1/3 43/1/3 50/1/3
f 51/1/4 47/1/4 41/1/4 44/1/4
f 51/1/4 44/1/4 49/1/4
f 52/1/5 50/1/5 43/1/5
f 46/1/5 52/1/5 43/1/5 42/1/5
usemtl mat_2
f 53/1/2 54/1/2 55/1/2
f 55/1/2 56/1/2 57/1/2
f 57/1/2 58/1/2 53/1/2
f 55/1/2 57/1/2 53/1/2
f 59/1/3 60/1/3 61/1/3
f 61/1/3 62/1/3 63/1/3
f 63/1/3 64/1/3 59/1/3
f 61/1/3 63/1/3 59/1/3
f 53/1/6 58/1/6 61/1/6
f 53/1/6 61/1/6 60/1/6
f 58/1/4 57/1/4 62/1/4
f 58/1/4 62/1/4 61/1/4
f 57/1/7 56/1/7 63/1/7
f 57/1/7 63/1/7 62/1/7
f 56/1/8 55/1/8 64/1/8
f 56/1/8 64/1/8 63/1/8
f 55/1/5 54/1/5 59/1/5
f 55/1/5 59/1/5 64/1/5
f 54/1/9 53/1/9 60/1/9
f 54/1/9 60/1/9 59/1/9
f 65/1/2 66/1/2 67/1/2
f 67/1/2 68/1/2 69/1/2
f 69/1/2 70/1/2 65/1/2
f 67/1/2 69/1/2 65/1/2
f 71/1/3 72/1/3 73/1/3
f 73/1/3 74/1/3 75/1/3
f 75/1/3 76/1/3 71/1/3
f 73/1/3 75/1/3 71/1/3
f 65/1/6 70/1/6 73/1/6
f 65/1/6 73/1/6 72/1/6
f 70/1/4 69/1/4 74/1/4
f 70/1/4 74/1/4 73/1/4
f 69/1/7 68/1/7 75/1/7
f 69/1/7 75/1/7 74/1/7
f 68/1/8 67/1/8 76/1/8
f 68/1/8 76/1/8 75/1/8
f 67/1/5 66/1/5 71/1/5
f 67/1/5 71/1/5 76/1/5
f 66/1/9 65/1/9 72/1/9
f 66/1/9 72/1/9 71/1/9
