# Authored in Blender; exported by tools-export-modern.py
mtllib materials.mtl
s off
v 0.860909083 0.539999962 1.000000000
v 0.679090917 0.539999962 0.000000000
v 0.610000014 0.539999962 0.000000000
v 0.610000014 0.539999962 1.000000000
v 0.930000007 0.539999962 1.000000000
v 0.930000007 0.539999962 0.000000000
v 0.610000014 0.283068089 1.000000000
v 0.610000014 0.000000000 0.581344637
v 0.610000014 0.000000000 1.000000000
v 0.610000014 0.000000000 0.000000000
v 0.930000007 0.283068089 1.000000000
v 0.930000007 0.000000000 0.581344637
v 0.930000007 0.000000000 0.000000000
v 0.930000007 0.000000000 1.000000000
v 0.779999971 0.000000000 0.000000000
v 0.779999971 0.000000000 0.067125060
v 0.779999971 0.048769206 0.000000000
v 0.779999971 0.048769206 1.000000000
v 0.779999971 0.000000000 0.932874940
v 0.779999971 0.000000000 1.000000000
v 0.779999971 0.000000000 0.412062312
v 0.779999971 0.133887150 0.000000000
v 0.779999971 0.196974810 1.000000000
v 0.779999971 0.000000000 0.856889404
v 0.779999971 1.000000000 1.000000000
v 0.779999971 1.000000000 0.518248690
v 0.779999971 0.843469533 1.000000000
v 0.779999971 0.000000000 0.686980569
v 0.779999971 0.945547517 0.000000000
v 0.779999971 1.000000000 0.000000000
v 0.759999990 0.705105776 0.000000000
v 0.759999990 0.620543872 0.000000000
v 0.759999990 0.692687392 0.362689972
v 0.759999990 0.720000029 0.000000000
v 0.759999990 0.720000029 0.359999895
v 0.759999990 0.605800205 0.000000000
v 0.759999990 0.512893217 0.000000000
v 0.759999990 0.666424394 0.370656967
v 0.759999990 0.498502610 0.000000000
v 0.759999990 0.385910680 0.000000000
v 0.759999990 0.642220140 0.383594275
v 0.759999990 0.372478200 0.000000000
v 0.759999990 0.220000029 0.000000000
v 0.759999990 0.621005058 0.401005030
v 0.759999990 0.209330254 0.000000000
v 0.759999990 0.000000000 0.000000000
v 0.759999990 0.000000000 0.018911365
v 0.759999990 0.603594303 0.422220230
v 0.759999990 0.000000000 0.021821953
v 0.759999990 0.000000000 0.201766159
v 0.759999990 0.590656877 0.446424246
v 0.759999990 0.000000000 0.207618679
v 0.759999990 0.000000000 0.356783001
v 0.759999990 0.582690120 0.472687244
v 0.759999990 0.000000000 0.363844437
v 0.759999990 0.000000000 0.500000000
v 0.759999990 0.580000043 0.500000000
v 0.759999990 0.000000000 0.507361558
v 0.759999990 0.000000000 0.643216999
v 0.759999990 0.582690120 0.527312756
v 0.759999990 0.000000000 0.650182859
v 0.759999990 0.000000000 0.798233841
v 0.759999990 0.590656877 0.553575754
v 0.759999990 0.000000000 0.803922663
v 0.759999990 0.000000000 0.981088743
v 0.759999990 0.603594303 0.577779770
v 0.759999990 0.000000000 0.983869146
v 0.759999990 0.000000000 1.000000000
v 0.759999990 0.219999944 1.000000000
v 0.759999990 0.621005058 0.598994970
v 0.759999990 0.231426242 1.000000000
v 0.759999990 0.385910680 1.000000000
v 0.759999990 0.642220140 0.616405725
v 0.759999990 0.399972219 1.000000000
v 0.759999990 0.512893192 1.000000000
v 0.759999990 0.666424394 0.629343033
v 0.759999990 0.527697849 1.000000000
v 0.759999990 0.620543872 1.000000000
v 0.759999990 0.692687392 0.637310028
v 0.759999990 0.635489746 1.000000000
v 0.759999990 0.720000029 1.000000000
v 0.759999990 0.720000029 0.640000105
v 0.759999990 0.734894281 1.000000000
v 0.759999990 0.819456185 1.000000000
v 0.759999990 0.747312665 0.637310028
v 0.759999990 0.834199852 1.000000000
v 0.759999990 0.927106865 1.000000000
v 0.759999990 0.773575664 0.629343033
v 0.759999990 0.941497470 1.000000000
v 0.759999990 1.000000000 1.000000000
v 0.759999990 1.000000000 0.919049595
v 0.759999990 0.797779918 0.616405725
v 0.759999990 1.000000000 0.891051679
v 0.759999990 1.000000000 0.779999895
v 0.759999990 0.818994999 0.598994970
v 0.759999990 1.000000000 0.752973960
v 0.759999990 1.000000000 0.687089992
v 0.759999990 0.836405754 0.577779770
v 0.759999990 1.000000000 0.661877629
v 0.759999990 1.000000000 0.615979841
v 0.759999990 0.849343181 0.553575754
v 0.759999990 1.000000000 0.592223147
v 0.759999990 1.000000000 0.555695569
v 0.759999990 0.857309937 0.527312756
v 0.759999990 1.000000000 0.532865133
v 0.759999990 1.000000000 0.500000000
v 0.759999990 0.860000014 0.500000000
v 0.759999990 1.000000000 0.477572925
v 0.759999990 1.000000000 0.444304431
v 0.759999990 0.857309937 0.472687244
v 0.759999990 1.000000000 0.421783002
v 0.759999990 1.000000000 0.384020159
v 0.759999990 0.849343181 0.446424246
v 0.759999990 1.000000000 0.360927951
v 0.759999990 1.000000000 0.312910037
v 0.759999990 0.836405754 0.422220230
v 0.759999990 1.000000000 0.288825379
v 0.759999990 1.000000000 0.220000067
v 0.759999990 0.818994999 0.401005030
v 0.759999990 1.000000000 0.194763653
v 0.759999990 1.000000000 0.080950405
v 0.759999990 0.797779918 0.383594275
v 0.759999990 1.000000000 0.055681947
v 0.759999990 1.000000000 0.000000000
v 0.759999990 0.927106840 0.000000000
v 0.759999990 0.773575664 0.370656967
v 0.759999990 0.912302181 0.000000000
v 0.759999990 0.819456185 0.000000000
v 0.759999990 0.747312665 0.362689972
v 0.759999990 0.804510312 0.000000000
v 0.879999995 0.692687392 0.362689972
v 0.879999995 0.720000029 0.359999895
v 0.879999995 0.666424394 0.370656967
v 0.879999995 0.642220140 0.383594275
v 0.879999995 0.621005058 0.401005030
v 0.879999995 0.603594303 0.422220230
v 0.879999995 0.590656877 0.446424246
v 0.879999995 0.582690120 0.472687244
v 0.879999995 0.580000043 0.500000000
v 0.879999995 0.582690120 0.527312756
v 0.879999995 0.590656877 0.553575754
v 0.879999995 0.603594303 0.577779770
v 0.879999995 0.621005058 0.598994970
v 0.879999995 0.642220140 0.616405725
v 0.879999995 0.666424394 0.629343033
v 0.879999995 0.692687392 0.637310028
v 0.879999995 0.720000029 0.640000105
v 0.879999995 0.747312665 0.637310028
v 0.879999995 0.773575664 0.629343033
v 0.879999995 0.797779918 0.616405725
v 0.879999995 0.818994999 0.598994970
v 0.879999995 0.836405754 0.577779770
v 0.879999995 0.849343181 0.553575754
v 0.879999995 0.857309937 0.527312756
v 0.879999995 0.860000014 0.500000000
v 0.879999995 0.857309937 0.472687244
v 0.879999995 0.849343181 0.446424246
v 0.879999995 0.836405754 0.422220230
v 0.879999995 0.818994999 0.401005030
v 0.879999995 0.797779918 0.383594275
v 0.879999995 0.773575664 0.370656967
v 0.879999995 0.747312665 0.362689972
v 0.879999995 0.635489746 0.000000000
v 0.879999995 0.620543872 0.000000000
v 0.879999995 0.720000029 0.000000000
v 0.879999995 0.527697876 0.000000000
v 0.879999995 0.512893217 0.000000000
v 0.879999995 0.399972219 0.000000000
v 0.879999995 0.385910680 0.000000000
v 0.879999995 0.231426332 0.000000000
v 0.879999995 0.220000029 0.000000000
v 0.879999995 0.000000000 0.016130963
v 0.879999995 0.000000000 0.018911365
v 0.879999995 0.000000000 0.000000000
v 0.879999995 0.000000000 0.196077337
v 0.879999995 0.000000000 0.201766159
v 0.879999995 0.000000000 0.349817141
v 0.879999995 0.000000000 0.356783001
v 0.879999995 0.000000000 0.492638442
v 0.879999995 0.000000000 0.500000000
v 0.879999995 0.000000000 0.636155563
v 0.879999995 0.000000000 0.643216999
v 0.879999995 0.000000000 0.792381321
v 0.879999995 0.000000000 0.798233841
v 0.879999995 0.000000000 0.978178156
v 0.879999995 0.000000000 0.981088743
v 0.879999995 0.209330173 1.000000000
v 0.879999995 0.219999944 1.000000000
v 0.879999995 0.000000000 1.000000000
v 0.879999995 0.372478200 1.000000000
v 0.879999995 0.385910680 1.000000000
v 0.879999995 0.498502587 1.000000000
v 0.879999995 0.512893192 1.000000000
v 0.879999995 0.605800205 1.000000000
v 0.879999995 0.620543872 1.000000000
v 0.879999995 0.705105776 1.000000000
v 0.879999995 0.720000029 1.000000000
v 0.879999995 0.804510312 1.000000000
v 0.879999995 0.819456185 1.000000000
v 0.879999995 0.912302208 1.000000000
v 0.879999995 0.927106865 1.000000000
v 0.879999995 1.000000000 0.944318053
v 0.879999995 1.000000000 0.919049595
v 0.879999995 1.000000000 1.000000000
v 0.879999995 1.000000000 0.805236306
v 0.879999995 1.000000000 0.779999895
v 0.879999995 1.000000000 0.711174653
v 0.879999995 1.000000000 0.687089992
v 0.879999995 1.000000000 0.639072049
v 0.879999995 1.000000000 0.615979841
v 0.879999995 1.000000000 0.578216998
v 0.879999995 1.000000000 0.555695569
v 0.879999995 1.000000000 0.522427075
v 0.879999995 1.000000000 0.500000000
v 0.879999995 1.000000000 0.467134867
v 0.879999995 1.000000000 0.444304431
v 0.879999995 1.000000000 0.407776853
v 0.879999995 1.000000000 0.384020159
v 0.879999995 1.000000000 0.338122398
v 0.879999995 1.000000000 0.312910037
v 0.879999995 1.000000000 0.247026004
v 0.879999995 1.000000000 0.220000067
v 0.879999995 1.000000000 0.108948321
v 0.879999995 1.000000000 0.080950405
v 0.879999995 0.941497447 0.000000000
v 0.879999995 0.927106840 0.000000000
v 0.879999995 1.000000000 0.000000000
v 0.879999995 0.834199852 0.000000000
v 0.879999995 0.819456185 0.000000000
v 0.879999995 0.734894281 0.000000000
v 0.879999995 0.705716658 0.000000000
v 0.879999995 0.620543853 0.000000000
v 0.879999995 0.606440223 0.000000000
v 0.879999995 0.512893213 0.000000000
v 0.879999995 0.499238023 0.000000000
v 0.879999995 0.385910676 0.000000000
v 0.879999995 0.373410918 0.000000000
v 0.879999995 0.210657775 0.000000000
v 0.879999995 0.000000000 0.018911316
v 0.879999995 0.000000000 0.020312982
v 0.879999995 0.000000000 0.201766276
v 0.879999995 0.000000000 0.206434821
v 0.879999995 0.000000000 0.356783149
v 0.879999995 0.000000000 0.362814706
v 0.879999995 0.000000000 0.506380123
v 0.879999995 0.000000000 0.643216851
v 0.879999995 0.000000000 0.649162786
v 0.879999995 0.000000000 0.798233724
v 0.879999995 0.000000000 0.802765358
v 0.879999995 0.000000000 0.981088684
v 0.879999995 0.000000000 0.982424644
v 0.879999995 0.220000029 1.000000000
v 0.879999995 0.230038485 1.000000000
v 0.879999995 0.385910676 1.000000000
v 0.879999995 0.399025314 1.000000000
v 0.879999995 0.512893213 1.000000000
v 0.879999995 0.526960913 1.000000000
v 0.879999995 0.620543864 1.000000000
v 0.879999995 0.634850509 1.000000000
v 0.879999995 0.734283399 1.000000000
v 0.879999995 0.819456193 1.000000000
v 0.879999995 0.833559825 1.000000000
v 0.879999995 0.927106782 1.000000000
v 0.879999995 0.940761970 1.000000000
v 0.879999995 1.000000000 0.919049509
v 0.879999995 1.000000000 0.892151810
v 0.879999995 1.000000000 0.779999971
v 0.879999995 1.000000000 0.753565922
v 0.879999995 1.000000000 0.687089966
v 0.879999995 1.000000000 0.662262479
v 0.879999995 1.000000000 0.615979827
v 0.879999995 1.000000000 0.592513069
v 0.879999995 1.000000000 0.555695535
v 0.879999995 1.000000000 0.533113691
v 0.879999995 1.000000000 0.477813260
v 0.879999995 1.000000000 0.444304465
v 0.879999995 1.000000000 0.422043186
v 0.879999995 1.000000000 0.384020173
v 0.879999995 1.000000000 0.361241605
v 0.879999995 1.000000000 0.312910034
v 0.879999995 1.000000000 0.289246387
v 0.879999995 1.000000000 0.220000029
v 0.879999995 1.000000000 0.195399422
v 0.879999995 1.000000000 0.080950491
v 0.879999995 1.000000000 0.056797406
v 0.879999995 0.927106782 0.000000000
v 0.879999995 0.913039081 0.000000000
v 0.879999995 0.819456204 0.000000000
v 0.879999995 0.805149562 0.000000000
v 0.909999967 0.692687392 0.362689972
v 0.909999967 0.720000029 0.359999895
v 0.909999967 0.666424394 0.370656967
v 0.909999967 0.642220140 0.383594275
v 0.909999967 0.621005058 0.401005030
v 0.909999967 0.603594303 0.422220230
v 0.909999967 0.590656877 0.446424246
v 0.909999967 0.582690120 0.472687244
v 0.909999967 0.580000043 0.500000000
v 0.909999967 0.582690120 0.527312756
v 0.909999967 0.590656877 0.553575754
v 0.909999967 0.603594303 0.577779770
v 0.909999967 0.621005058 0.598994970
v 0.909999967 0.642220140 0.616405725
v 0.909999967 0.666424394 0.629343033
v 0.909999967 0.692687392 0.637310028
v 0.909999967 0.720000029 0.640000105
v 0.909999967 0.747312665 0.637310028
v 0.909999967 0.773575664 0.629343033
v 0.909999967 0.797779918 0.616405725
v 0.909999967 0.818994999 0.598994970
v 0.909999967 0.836405754 0.577779770
v 0.909999967 0.849343181 0.553575754
v 0.909999967 0.857309937 0.527312756
v 0.909999967 0.860000014 0.500000000
v 0.909999967 0.857309937 0.472687244
v 0.909999967 0.849343181 0.446424246
v 0.909999967 0.836405754 0.422220230
v 0.909999967 0.818994999 0.401005030
v 0.909999967 0.797779918 0.383594275
v 0.909999967 0.773575664 0.370656967
v 0.909999967 0.747312665 0.362689972
v 0.909999967 0.634850495 0.000000000
v 0.909999967 0.620543853 0.000000000
v 0.909999967 0.720000029 0.000000000
v 0.909999967 0.526960913 0.000000000
v 0.909999967 0.512893213 0.000000000
v 0.909999967 0.399025314 0.000000000
v 0.909999967 0.385910676 0.000000000
v 0.909999967 0.230038485 0.000000000
v 0.909999967 0.220000029 0.000000000
v 0.909999967 0.000000000 0.017575356
v 0.909999967 0.000000000 0.018911316
v 0.909999967 0.000000000 0.000000000
v 0.909999967 0.000000000 0.197234642
v 0.909999967 0.000000000 0.201766276
v 0.909999967 0.000000000 0.350837214
v 0.909999967 0.000000000 0.356783149
v 0.909999967 0.000000000 0.493619877
v 0.909999967 0.000000000 0.500000000
v 0.909999967 0.000000000 0.637185294
v 0.909999967 0.000000000 0.643216851
v 0.909999967 0.000000000 0.793565179
v 0.909999967 0.000000000 0.798233724
v 0.909999967 0.000000000 0.979687018
v 0.909999967 0.000000000 0.981088684
v 0.909999967 0.210657775 1.000000000
v 0.909999967 0.220000029 1.000000000
v 0.909999967 0.000000000 1.000000000
v 0.909999967 0.373410918 1.000000000
v 0.909999967 0.385910676 1.000000000
v 0.909999967 0.499238023 1.000000000
v 0.909999967 0.512893213 1.000000000
v 0.909999967 0.606440232 1.000000000
v 0.909999967 0.620543864 1.000000000
v 0.909999967 0.705716658 1.000000000
v 0.909999967 0.720000029 1.000000000
v 0.909999967 0.805149548 1.000000000
v 0.909999967 0.819456193 1.000000000
v 0.909999967 0.913039081 1.000000000
v 0.909999967 0.927106782 1.000000000
v 0.909999967 1.000000000 0.943202594
v 0.909999967 1.000000000 0.919049509
v 0.909999967 1.000000000 1.000000000
v 0.909999967 1.000000000 0.804600578
v 0.909999967 1.000000000 0.779999971
v 0.909999967 1.000000000 0.710753613
v 0.909999967 1.000000000 0.687089966
v 0.909999967 1.000000000 0.638758395
v 0.909999967 1.000000000 0.615979827
v 0.909999967 1.000000000 0.577956814
v 0.909999967 1.000000000 0.555695535
v 0.909999967 1.000000000 0.522186740
v 0.909999967 1.000000000 0.500000000
v 0.909999967 1.000000000 0.466886309
v 0.909999967 1.000000000 0.444304465
v 0.909999967 1.000000000 0.407486931
v 0.909999967 1.000000000 0.384020173
v 0.909999967 1.000000000 0.337737521
v 0.909999967 1.000000000 0.312910034
v 0.909999967 1.000000000 0.246434078
v 0.909999967 1.000000000 0.220000029
v 0.909999967 1.000000000 0.107848190
v 0.909999967 1.000000000 0.080950491
v 0.909999967 0.940761970 0.000000000
v 0.909999967 0.927106782 0.000000000
v 0.909999967 1.000000000 0.000000000
v 0.909999967 0.833559834 0.000000000
v 0.909999967 0.819456204 0.000000000
v 0.909999967 0.734283399 0.000000000
v 0.959999979 0.092144930 0.000000000
v 0.959999979 0.107238661 0.000000000
v 0.959999979 0.129133463 0.012640953
v 0.959999979 0.129133463 0.064065933
v 0.959999979 0.084598064 0.089778423
v 0.959999979 0.040062666 0.064065933
v 0.959999979 0.077051199 0.000000000
v 0.959999979 0.040062666 0.012640953
v 0.959999979 0.061957468 0.000000000
v 0.724999964 0.129133463 0.012640953
v 0.724999964 0.107238661 0.000000000
v 0.724999964 0.061957468 0.000000000
v 0.724999964 0.040062666 0.012640953
v 0.724999964 0.040062666 0.064065933
v 0.724999964 0.084598064 0.089778423
v 0.724999964 0.129133463 0.064065933
v 0.840532304 0.061957468 0.000000000
v 0.844467638 0.107238661 0.000000000
v 0.959999979 0.000000000 0.252568654
v 0.959999979 0.000000000 0.221438226
v 0.959999979 0.017575622 0.231585503
v 0.959999979 0.017575622 0.283010483
v 0.959999979 0.000000000 0.283010483
v 0.959999979 0.000000000 0.293157759
v 0.724999964 0.000000000 0.231585503
v 0.724999964 0.017575622 0.231585503
v 0.724999964 0.000000000 0.221438226
v 0.724999964 0.000000000 0.262027332
v 0.724999964 0.000000000 0.293157759
v 0.724999964 0.017575622 0.283010483
v 0.817741277 0.000000000 0.293157759
v 0.867258666 0.000000000 0.221438226
v 0.959999979 0.000000000 0.737972668
v 0.959999979 0.000000000 0.706842241
v 0.959999979 0.017575622 0.716989517
v 0.959999979 0.017575622 0.768414497
v 0.959999979 0.000000000 0.768414497
v 0.959999979 0.000000000 0.778561774
v 0.724999964 0.000000000 0.716989517
v 0.724999964 0.017575622 0.716989517
v 0.724999964 0.000000000 0.706842241
v 0.724999964 0.000000000 0.747431346
v 0.724999964 0.000000000 0.778561774
v 0.724999964 0.017575622 0.768414497
v 0.817741277 0.000000000 0.778561774
v 0.867258666 0.000000000 0.706842241
v 0.959999979 0.084598064 0.910221577
v 0.959999979 0.129133463 0.935934067
v 0.959999979 0.129133463 0.987359047
v 0.959999979 0.107238661 1.000000000
v 0.959999979 0.061957468 1.000000000
v 0.959999979 0.040062666 0.987359047
v 0.959999979 0.040062666 0.935934067
v 0.724999964 0.129133463 0.935934067
v 0.724999964 0.084598064 0.910221577
v 0.724999964 0.040062666 0.935934067
v 0.724999964 0.077051199 1.000000000
v 0.724999964 0.040062666 0.987359047
v 0.724999964 0.061957468 1.000000000
v 0.724999964 0.092144930 1.000000000
v 0.724999964 0.107238661 1.000000000
v 0.724999964 0.129133463 0.987359047
v 0.844467638 0.061957468 1.000000000
v 0.840532304 0.107238661 1.000000000
v 0.759999990 1.000000000 0.043510923
v 0.759999990 0.934881235 0.000000000
v 0.759999990 0.936403963 0.000000000
v 0.759999990 1.000000000 0.033992772
v 0.759999990 0.934881235 1.000000000
v 0.759999990 1.000000000 0.956489077
v 0.759999990 1.000000000 0.966007228
v 0.759999990 0.936403963 1.000000000
v 0.759999990 0.505118822 1.000000000
v 0.759999990 0.503596094 1.000000000
v 0.759999990 0.416880846 0.953649759
v 0.759999990 0.334202528 0.885797501
v 0.759999990 0.266350269 0.803119183
v 0.759999990 0.215931416 0.708791971
v 0.759999990 0.184883595 0.606441259
v 0.759999990 0.174400091 0.500000000
v 0.759999990 0.184883595 0.393558741
v 0.759999990 0.215931416 0.291208029
v 0.759999990 0.266350269 0.196880817
v 0.759999990 0.334202528 0.114202499
v 0.759999990 0.505118822 0.000000000
v 0.759999990 0.416880846 0.046350241
v 0.759999990 0.503596094 0.000000000
v 0.759999990 1.000000000 0.070379761
v 0.759999990 0.830088099 0.000000000
v 0.759999990 0.830088099 1.000000000
v 0.759999990 1.000000000 0.929620239
v 0.759999990 0.609911958 1.000000000
v 0.759999990 0.609911958 0.000000000
v 0.759999990 1.000000000 0.234400034
v 0.759999990 0.765599966 0.000000000
v 0.759999990 0.765599966 1.000000000
v 0.759999990 1.000000000 0.765599966
v 0.759999990 0.674400091 1.000000000
v 0.759999990 0.674400091 0.000000000
v 0.670000017 0.528780210 0.000000000
v 0.670000017 0.503596094 0.000000000
v 0.670000017 0.416880846 0.046350241
v 0.670000017 0.334202528 0.114202499
v 0.670000017 0.266350269 0.196880817
v 0.670000017 0.215931416 0.291208029
v 0.670000017 0.184883595 0.393558741
v 0.670000017 0.174400091 0.500000000
v 0.670000017 0.184883595 0.606441259
v 0.670000017 0.215931416 0.708791971
v 0.670000017 0.266350269 0.803119183
v 0.670000017 0.334202528 0.885797501
v 0.670000017 0.416880846 0.953649759
v 0.670000017 0.528780210 1.000000000
v 0.670000017 0.503596094 1.000000000
v 0.670000017 1.000000000 0.963226051
v 0.670000017 0.911219847 1.000000000
v 0.670000017 0.936403963 1.000000000
v 0.670000017 1.000000000 0.966007228
v 0.670000017 0.911219847 0.000000000
v 0.670000017 1.000000000 0.036773949
v 0.670000017 1.000000000 0.033992772
v 0.670000017 0.936403963 0.000000000
v 0.670000017 0.649899134 0.000000000
v 0.670000017 0.561003300 1.000000000
v 0.670000017 1.000000000 0.958248458
v 0.670000017 0.790100923 1.000000000
v 0.670000017 0.878996757 0.000000000
v 0.670000017 1.000000000 0.080851764
v 0.670000017 0.773885834 0.000000000
v 0.670000017 0.590094717 1.000000000
v 0.670000017 1.000000000 0.776904641
v 0.670000017 0.666114223 1.000000000
v 0.670000017 0.849905341 0.000000000
v 0.670000017 1.000000000 0.224632517
v 0.670000017 0.620543861 1.000000000
v 0.670000017 0.819456196 0.000000000
v 0.752737329 0.503596094 0.000000000
v 0.677262678 0.503596094 1.000000000
v 0.692058668 1.000000000 0.966007228
v 0.752737329 0.936403963 1.000000000
v 0.677262678 0.936403963 0.000000000
v 0.737941340 1.000000000 0.033992772
v 0.660000026 0.720000029 0.529999971
v 0.649340630 0.724263787 0.527716398
v 0.547121942 0.468716741 0.527716160
v 0.557781100 0.464452386 0.529999733
v 0.640304089 0.727878451 0.521213293
v 0.538092494 0.472349286 0.521213055
v 0.634266019 0.730293632 0.511480570
v 0.532067418 0.474797010 0.511480331
v 0.632145703 0.731141806 0.500000000
v 0.529963970 0.475687265 0.500000000
v 0.634266019 0.730293632 0.488519430
v 0.532102406 0.474884629 0.488519669
v 0.640304089 0.727878451 0.478786707
v 0.538157105 0.472511172 0.478786945
v 0.649340630 0.724263787 0.472283602
v 0.547206342 0.468928218 0.472283840
v 0.660000026 0.720000029 0.470000029
v 0.557872415 0.464681268 0.470000267
v 0.670659423 0.715736270 0.472283602
v 0.568531573 0.460416913 0.472283840
v 0.679695964 0.712121606 0.478786707
v 0.577561021 0.456784368 0.478786945
v 0.685734034 0.709706426 0.488519430
v 0.583586097 0.454336643 0.488519669
v 0.687854350 0.708858252 0.500000000
v 0.585689545 0.453446388 0.500000000
v 0.685734034 0.709706426 0.511480570
v 0.583551109 0.454249024 0.511480331
v 0.679695964 0.712121606 0.521213293
v 0.577496409 0.456622481 0.521213055
v 0.670659423 0.715736270 0.527716398
v 0.568447173 0.460205436 0.527716160
v 0.540044010 0.450048089 0.526152134
v 0.550701261 0.445763588 0.528406858
v 0.531264782 0.454379082 0.519734621
v 0.525700092 0.458096981 0.510131121
v 0.524197102 0.460636020 0.498803854
v 0.526984632 0.461609483 0.487476826
v 0.533638358 0.460869312 0.477874994
v 0.543145299 0.458528042 0.471459866
v 0.554058075 0.454942226 0.469208002
v 0.564715326 0.450657725 0.471462727
v 0.573494554 0.446326733 0.477880239
v 0.579059243 0.442608833 0.487483740
v 0.580562234 0.440069795 0.498811007
v 0.577774704 0.439096332 0.510138035
v 0.571120977 0.439836502 0.519739866
v 0.561614037 0.442177773 0.526154995
v 0.533887684 0.431881666 0.521158695
v 0.544549644 0.427586317 0.523370028
v 0.525362551 0.437020540 0.514999866
v 0.520271957 0.442220569 0.505831480
v 0.519391060 0.446690202 0.495048761
v 0.522853851 0.449748755 0.484293699
v 0.530133247 0.450930715 0.475203753
v 0.540120900 0.450056195 0.469162226
v 0.551296413 0.447258234 0.467089415
v 0.561958373 0.442962885 0.469300747
v 0.570483506 0.437824011 0.475459576
v 0.575574100 0.432623982 0.484627962
v 0.576454997 0.428154349 0.495410681
v 0.572992206 0.425095797 0.506165743
v 0.565712810 0.423913836 0.515255690
v 0.555725157 0.424788356 0.521297216
v 0.528942466 0.414854407 0.512505770
v 0.539617062 0.410566211 0.514668941
v 0.520629704 0.420805216 0.506804705
v 0.515944421 0.427512765 0.498433590
v 0.515599847 0.433955669 0.488667011
v 0.519648492 0.439153194 0.478991747
v 0.527473986 0.442314029 0.470880747
v 0.537884891 0.442957044 0.465568781
v 0.549296379 0.440984130 0.463864803
v 0.559970975 0.436695933 0.466027975
v 0.568283737 0.430745125 0.471729040
v 0.572969019 0.424037576 0.480100155
v 0.573313594 0.417594671 0.489866734
v 0.569264948 0.412397146 0.499541998
v 0.561439455 0.409236312 0.507652998
v 0.551028550 0.408593297 0.512964964
v 0.525435925 0.399681687 0.500382900
v 0.536128521 0.395418644 0.502506971
v 0.517262101 0.406339288 0.495295525
v 0.512851477 0.414378047 0.488019466
v 0.512875497 0.422574162 0.479662418
v 0.517330587 0.429679751 0.471496582
v 0.525538385 0.434612989 0.464765310
v 0.536249399 0.436623096 0.460493088
v 0.547832966 0.435403824 0.459330797
v 0.558525562 0.431140780 0.461454868
v 0.566699386 0.424483180 0.466542244
v 0.571110010 0.416444421 0.473818302
v 0.571085989 0.408248305 0.482175350
v 0.566630900 0.401142716 0.490341187
v 0.558423102 0.396209478 0.497072458
v 0.547712088 0.394199371 0.501344681
v 0.523435414 0.386876941 0.485368252
v 0.534145594 0.382647753 0.487471581
v 0.515322447 0.394067764 0.480953693
v 0.511041760 0.403125525 0.474899769
v 0.511245072 0.412671208 0.468128204
v 0.515901506 0.421251655 0.461669922
v 0.524302065 0.427560568 0.456508160
v 0.535167873 0.430637479 0.453428507
v 0.546844721 0.430013895 0.452899933
v 0.557554901 0.425784707 0.455003262
v 0.565667868 0.418593884 0.459417820
v 0.569948554 0.409536123 0.465471745
v 0.569745243 0.399990439 0.472243309
v 0.565088809 0.391409993 0.478701591
v 0.556688249 0.385101080 0.483863354
v 0.545822442 0.382024169 0.486943007
v 0.522841036 0.376533151 0.468092442
v 0.533564389 0.372335434 0.470191240
v 0.514729977 0.384080410 0.464315176
v 0.510466099 0.393827915 0.459434509
v 0.510698438 0.404291987 0.454193354
v 0.515391707 0.413879275 0.449389935
v 0.523831367 0.421130419 0.445755482
v 0.534732521 0.424941301 0.443842888
v 0.546435654 0.424731970 0.443943739
v 0.557159007 0.420534253 0.446042538
v 0.565270066 0.412986994 0.449819803
v 0.569533944 0.403239489 0.454700470
v 0.569301605 0.392775416 0.459941626
v 0.564608335 0.383188128 0.464745045
v 0.556168675 0.375936985 0.468379498
v 0.545267522 0.372126102 0.470292091
v 0.530061001 0.138954119 0.000000000
v 0.522841036 0.142486969 0.000000000
v 0.533564389 0.137239814 0.000000000
v 0.520205998 0.145552386 0.000000000
v 0.514729977 0.151922841 0.000000000
v 0.513356996 0.155847380 0.000000000
v 0.510466099 0.164110699 0.000000000
v 0.510540108 0.168278628 0.000000000
v 0.510698438 0.177195292 0.000000000
v 0.512176835 0.180971888 0.000000000
v 0.515391707 0.189184308 0.000000000
v 0.518024262 0.192012993 0.000000000
v 0.523831367 0.198252696 0.000000000
v 0.527208276 0.199729470 0.000000000
v 0.534732521 0.203019894 0.000000000
v 0.538347374 0.202939661 0.000000000
v 0.546435654 0.202760137 0.000000000
v 0.549753239 0.201136750 0.000000000
v 0.557159007 0.197512984 0.000000000
v 0.559683213 0.194576502 0.000000000
v 0.565270066 0.188077111 0.000000000
v 0.566609271 0.184249118 0.000000000
v 0.569533944 0.175889254 0.000000000
v 0.569460161 0.171734049 0.000000000
v 0.569301605 0.162804661 0.000000000
v 0.567794464 0.158954637 0.000000000
v 0.564608335 0.150815645 0.000000000
v 0.561872065 0.147875518 0.000000000
v 0.556168675 0.141747256 0.000000000
v 0.552610998 0.140191430 0.000000000
v 0.545267522 0.136980057 0.000000000
v 0.541437897 0.137065057 0.000000000
vt 0.500000000 0.500000000
vn 0.000000000 1.000000000 0.000000000
vn -1.000000000 0.000000000 0.000000000
vn 1.000000000 0.000000000 0.000000000
vn 0.000000000 0.098017752 0.995184666
vn 0.000000000 0.290291408 0.956938294
vn 0.000000000 0.471392882 0.881923325
vn 0.000000000 0.634393022 0.773010669
vn 0.000000000 0.773012417 0.634390892
vn 0.000000000 0.881919589 0.471399872
vn 0.000000000 0.956940707 0.290283453
vn 0.000000000 0.995184708 0.098017328
vn 0.000000000 0.995184708 -0.098017328
vn 0.000000000 0.956940707 -0.290283453
vn 0.000000000 0.881919589 -0.471399872
vn 0.000000000 0.773012417 -0.634390892
vn 0.000000000 0.634393022 -0.773010669
vn 0.000000000 0.471392882 -0.881923325
vn 0.000000000 0.290291408 -0.956938294
vn 0.000000000 0.098017752 -0.995184666
vn 0.000000000 -0.098017752 -0.995184666
vn 0.000000000 -0.290291408 -0.956938294
vn 0.000000000 -0.471392882 -0.881923325
vn 0.000000000 -0.634393022 -0.773010669
vn 0.000000000 -0.773012417 -0.634390892
vn 0.000000000 -0.881919589 -0.471399872
vn 0.000000000 -0.956940707 -0.290283453
vn 0.000000000 -0.995184708 -0.098017328
vn 0.000000000 -0.995184708 0.098017328
vn 0.000000000 -0.956940707 0.290283453
vn 0.000000000 -0.881919589 0.471399872
vn 0.000000000 -0.773012417 0.634390892
vn 0.000000000 -0.634393022 0.773010669
vn 0.000000000 -0.471392882 0.881923325
vn 0.000000000 -0.290291408 0.956938294
vn 0.000000000 -0.098017752 0.995184666
vn 0.000000000 -0.499999501 -0.866025692
vn 0.000000000 -1.000000000 0.000000000
vn 0.000000000 -0.499999501 0.866025692
vn 0.000000000 0.499999501 0.866025692
vn 0.000000000 0.499999501 -0.866025692
vn 0.000000000 -0.471396537 -0.881921371
vn 0.000000000 -0.634392818 -0.773010836
vn 0.000000000 -0.773010836 -0.634392818
vn 0.000000000 -0.881921619 -0.471396074
vn 0.000000000 -0.956940149 -0.290285294
vn 0.000000000 -0.995184768 -0.098016717
vn 0.000000000 -0.995184768 0.098016717
vn 0.000000000 -0.956940149 0.290285294
vn 0.000000000 -0.881921619 0.471396074
vn 0.000000000 -0.773010836 0.634392818
vn 0.000000000 -0.634392818 0.773010836
vn 0.000000000 -0.471396537 0.881921371
vn 0.000000000 0.471396537 0.881921371
vn 0.000000000 0.471396537 -0.881921371
vn -0.181133764 0.072452497 0.980786009
vn -0.515831194 0.206331558 0.831471868
vn -0.515829209 0.206330643 0.831473326
vn -0.772000945 0.308799715 0.555569327
vn -0.772000160 0.308799329 0.555570632
vn -0.910635757 0.364254006 0.195093661
vn -0.910635561 0.364253872 0.195094829
vn -0.910635703 0.364254142 -0.195093661
vn -0.910636381 0.364254255 -0.195090283
vn -0.772000821 0.308800026 -0.555569327
vn -0.772002910 0.308800681 -0.555566059
vn -0.515831103 0.206331785 -0.831471868
vn -0.515830688 0.206331643 -0.831472161
vn -0.181133706 0.072452642 -0.980786009
vn -0.181134388 0.072452882 -0.980785865
vn 0.181133074 -0.072454222 -0.980786009
vn 0.515830576 -0.206333103 -0.831471868
vn 0.515828506 -0.206332395 -0.831473328
vn 0.772000513 -0.308800796 -0.555569327
vn 0.771999676 -0.308800533 -0.555570636
vn 0.910635582 -0.364254445 -0.195093661
vn 0.910635347 -0.364254406 -0.195094831
vn 0.910635636 -0.364254309 0.195093661
vn 0.910636206 -0.364254695 0.195090281
vn 0.772000637 -0.308800485 0.555569327
vn 0.772002604 -0.308801452 0.555566057
vn 0.515830668 -0.206332874 0.831471868
vn 0.515830272 -0.206332692 0.831472159
vn 0.181133133 -0.072454075 0.980786009
vn 0.181133794 -0.072454374 0.980785865
vn -0.210311130 -0.002168017 0.977632103
vn -0.208643628 -0.004314859 0.977982218
vn -0.541799295 0.137638333 0.829161753
vn -0.540344328 0.135285685 0.830497315
vn -0.791461459 0.256960403 0.554581023
vn -0.790701226 0.254620154 0.556740648
vn -0.920970814 0.337379613 0.194904479
vn -0.921206036 0.335286863 0.197388346
vn -0.909896187 0.366103880 -0.195081722
vn -0.911048543 0.364396389 -0.192888113
vn -0.759779617 0.338395083 -0.555178981
vn -0.761480511 0.337055927 -0.553661208
vn -0.494074175 0.258687075 -0.830043196
vn -0.496107926 0.257516449 -0.829193707
vn -0.153760537 0.139794474 -0.978169312
vn -0.156289308 0.138507742 -0.977951562
vn 0.209599613 0.000306430 -0.977787251
vn 0.206493492 -0.001278047 -0.978447139
vn 0.541442009 -0.138644230 -0.829227549
vn 0.538161695 -0.140521496 -0.831044944
vn 0.791599055 -0.256566319 -0.554567092
vn 0.789052219 -0.258505630 -0.557289364
vn 0.921515354 -0.335898177 -0.194889371
vn 0.920224389 -0.337727925 -0.197805264
vn 0.910576020 -0.364405481 0.195089612
vn 0.910431739 -0.366091369 0.192590651
vn 0.760184535 -0.337449447 0.555200273
vn 0.760816612 -0.339052060 0.553355025
vn 0.493901366 -0.259084956 0.830021943
vn 0.495050390 -0.260762573 0.828811192
vn 0.153109753 -0.141362602 0.978046021
vn 0.154638521 -0.143265882 0.977528421
vn -0.268762680 -0.169544914 0.948167255
vn -0.266246457 -0.172668831 0.948313397
vn -0.595392034 -0.016655228 0.803262677
vn -0.593408716 -0.020078661 0.804650821
vn -0.832437750 0.139367904 0.536305864
vn -0.831491145 0.135789140 0.538687094
vn -0.943202637 0.274766301 0.186741173
vn -0.943646215 0.271298354 0.189549531
vn -0.909597763 0.368368035 -0.192189753
vn -0.911433078 0.365154980 -0.189609031
vn -0.736478191 0.405305992 -0.541596645
vn -0.739395350 0.402381001 -0.539800006
vn -0.451236734 0.380069269 -0.807423532
vn -0.454924316 0.377254556 -0.806673953
vn -0.098324890 0.297195564 -0.949740497
vn -0.102554111 0.294311496 -0.950191243
vn 0.268923712 0.170013667 -0.948037652
vn 0.264260258 0.166923760 -0.949896297
vn 0.595702346 0.017656917 -0.803011176
vn 0.591335615 0.014672486 -0.806292074
vn 0.833008754 -0.137480856 -0.535906177
vn 0.829808945 -0.140072172 -0.540182286
vn 0.944024110 -0.272243459 -0.186284671
vn 0.942501927 -0.274417467 -0.190748977
vn 0.910571714 -0.365707556 0.192658083
vn 0.910610509 -0.367712010 0.188617014
vn 0.737363555 -0.403097625 0.542039936
vn 0.738600033 -0.405171998 0.538800189
vn 0.451814405 -0.378656725 0.807764092
vn 0.453882950 -0.381007821 0.805495691
vn 0.098564830 -0.296572111 0.949910500
vn 0.101054416 -0.299271963 0.948801506
vn -0.323981678 -0.352133417 0.878087655
vn -0.320802328 -0.355774415 0.877787236
vn -0.646425458 -0.185375746 0.740114829
vn -0.644016723 -0.189594352 0.741145359
vn -0.871778859 0.010144805 0.489794554
vn -0.870692608 0.005581630 0.491795921
vn -0.964915885 0.205146824 0.163866149
vn -0.965490706 0.200437798 0.166290066
vn -0.910071501 0.369373491 -0.187970974
vn -0.912369692 0.364753728 -0.185839348
vn -0.715257204 0.476994068 -0.510767845
vn -0.719048864 0.472525029 -0.509596731
vn -0.411527315 0.511458480 -0.754357669
vn -0.416363335 0.507103304 -0.754644163
vn -0.046414562 0.468287750 -0.882356091
vn -0.051837012 0.463960683 -0.884337836
vn 0.324784353 0.354839976 -0.876700471
vn 0.319287235 0.350695076 -0.880379819
vn 0.647157101 0.188216595 -0.738757200
vn 0.642359511 0.184729061 -0.743807389
vn 0.872534047 -0.007125401 -0.488501346
vn 0.869262037 -0.009652802 -0.494257356
vn 0.965803285 -0.201944545 -0.162611243
vn 0.964417462 -0.203771910 -0.168451678
vn 0.911119604 -0.366132538 0.189230101
vn 0.911565859 -0.367732977 0.183902536
vn 0.716404118 -0.473837586 0.512096750
vn 0.718334397 -0.475657239 0.507686799
vn 0.412632358 -0.508495779 0.755755635
vn 0.415544533 -0.510813720 0.752590250
vn 0.047366519 -0.465528747 0.883764334
vn 0.050705829 -0.468493544 0.882010611
vn -0.367126129 -0.527363786 0.766228323
vn -0.363697483 -0.530832613 0.765467751
vn -0.686757027 -0.347900877 0.638223915
vn -0.684256032 -0.352103026 0.638605623
vn -0.903266026 -0.115048467 0.413369493
vn -0.902124686 -0.119780943 0.414516075
vn -0.982748413 0.136541726 0.124747400
vn -0.983254731 0.131512148 0.126153435
vn -0.911427581 0.368240514 -0.183572026
vn -0.913692829 0.363112448 -0.182523326
vn -0.699794404 0.543764227 -0.463258306
vn -0.703701964 0.538697185 -0.463258988
vn -0.381523894 0.636022750 -0.670756722
vn -0.386649662 0.631153300 -0.672419178
vn -0.006562822 0.631615799 -0.775253772
vn -0.012123552 0.627194509 -0.778768302
vn 0.368213592 0.531931109 -0.762540521
vn 0.363103353 0.528345999 -0.767467563
vn 0.687567179 0.352061615 -0.635062197
vn 0.683547295 0.349608187 -0.640731778
vn 0.903937679 0.118618572 -0.410884786
vn 0.901373394 0.117237230 -0.416871008
vn 0.983434915 -0.133412013 -0.122706983
vn 0.982576868 -0.134095960 -0.128689439
vn 0.912250137 -0.365200001 0.185549583
vn 0.913158268 -0.365730255 0.179953769
vn 0.700844762 -0.540423941 0.465573392
vn 0.703283179 -0.541331572 0.460817642
vn 0.382798242 -0.632103736 0.673728709
vn 0.386249609 -0.633768220 0.670185857
vn 0.007871780 -0.627154854 0.778854816
vn 0.011650745 -0.629735743 0.776722057
vn -0.392849052 -0.673208749 0.626465963
vn -0.389738556 -0.675904212 0.625505679
vn -0.711338391 -0.483618498 0.510010629
vn -0.709113952 -0.487048851 0.509843917
vn -0.922811188 -0.220178373 0.316134457
vn -0.921757229 -0.224126014 0.316435049
vn -0.994235506 0.077962973 0.073603900
vn -0.994533426 0.073673993 0.073995990
vn -0.913260281 0.365235779 -0.180439699
vn -0.915035195 0.360780490 -0.180410729
vn -0.691892192 0.596891399 -0.406209125
vn -0.695126182 0.592514680 -0.407094516
vn -0.365137770 0.737109992 -0.568632807
vn -0.369433428 0.733198931 -0.570910037
vn 0.015944307 0.765103549 -0.643709824
vn 0.011390105 0.762055469 -0.647411560
vn 0.393526898 0.677360166 -0.621546286
vn 0.389668047 0.675471376 -0.626016959
vn 0.711771183 0.487306768 -0.505879331
vn 0.708995995 0.486484672 -0.510546123
vn 0.923141173 0.223095859 -0.313111182
vn 0.921528999 0.223083602 -0.317833305
vn 0.994577332 -0.075665104 -0.071349299
vn 0.994259607 -0.075181239 -0.076128933
vn 0.913698256 -0.363085526 0.182549714
vn 0.914827510 -0.362534736 0.177930304
vn 0.692530379 -0.594335668 0.408860353
vn 0.695003291 -0.594228624 0.404799664
vn 0.365996614 -0.733807596 0.572339838
vn 0.369339902 -0.734554005 0.569226186
vn -0.015046908 -0.761102875 0.648456633
vn -0.011477778 -0.762876068 0.646442856
vn -0.402118940 -0.779380996 0.480484778
vn -0.399666843 -0.781173002 0.479619803
vn -0.720763418 -0.582706343 0.375437629
vn -0.719054147 -0.585066547 0.375044357
vn -0.930663260 -0.297240053 0.213340684
vn -0.929816944 -0.299990980 0.213180353
vn -0.999236422 0.034410616 0.018506308
vn -0.999339520 0.031373261 0.018336913
vn -0.914930668 0.361672761 -0.179149897
vn -0.916099889 0.358468069 -0.179615245
vn -0.690348458 0.633834688 -0.348815989
vn -0.692612664 0.630748136 -0.349920686
vn -0.360660432 0.808913065 -0.464309925
vn -0.363715904 0.806393354 -0.466305158
vn 0.022938921 0.860677628 -0.508633292
vn 0.019773744 0.859106273 -0.511415107
vn 0.402288432 0.782039483 -0.476002379
vn 0.399685129 0.781466581 -0.479126059
vn 0.720804758 0.585073393 -0.371657941
vn 0.719075187 0.585262241 -0.374698526
vn 0.930695250 0.299056335 -0.210645820
vn 0.929789489 0.299748423 -0.213640794
vn 0.999314131 -0.033084265 -0.016634256
vn 0.999291216 -0.032065128 -0.019720381
vn 0.915071194 -0.360468572 0.180851097
vn 0.916097930 -0.359400011 0.177753240
vn 0.690594946 -0.632322416 0.351065497
vn 0.692650949 -0.631629821 0.348250530
vn 0.361011410 -0.806857658 0.467601842
vn 0.363737240 -0.806923344 0.465370753
vn -0.022612215 -0.858161273 0.512881972
vn -0.019773840 -0.859134409 0.511367834
vn -0.400940488 -0.819388446 0.409694155
vn -0.400948132 -0.819385426 0.409692713
vn -0.721006087 -0.619774307 0.309887128
vn -0.721003900 -0.619776352 0.309888125
vn -0.931294470 -0.325810520 0.162905233
vn -0.931295075 -0.325809132 0.162904553
vn -0.999802998 0.017753102 -0.008876552
vn -0.999802992 0.017753346 -0.008876671
vn -0.916099841 0.358620783 -0.179310391
vn -0.916100573 0.358619280 -0.179309655
vn -0.692928420 0.644887725 -0.322443836
vn -0.692930787 0.644885679 -0.322442840
vn -0.364267942 0.832974873 -0.416487367
vn -0.364271892 0.832973477 -0.416486704
vn 0.019848359 0.894251020 -0.447125436
vn 0.400940488 0.819388418 -0.409694209
vn 0.400948132 0.819385453 -0.409692659
vn 0.721006087 0.619774307 -0.309887128
vn 0.721003900 0.619776331 -0.309888166
vn 0.931294470 0.325810509 -0.162905254
vn 0.931295075 0.325809132 -0.162904553
vn 0.999802998 -0.017753103 0.008876550
vn 0.999802992 -0.017753345 0.008876673
vn 0.916099841 -0.358620794 0.179310367
vn 0.916100573 -0.358619304 0.179309607
vn 0.692928420 -0.644887725 0.322443836
vn 0.692930787 -0.644885701 0.322442797
vn 0.364267942 -0.832974846 0.416487423
vn 0.364271892 -0.832973477 0.416486704
vn -0.019848359 -0.894250991 0.447125495
vn 0.371388886 0.928477407 -0.000009694
vn 0.371374046 0.928483343 -0.000007419
vn 0.371374046 0.928483343 0.000007419
vn 0.371388886 0.928477407 0.000009694
vn 0.371393015 0.928475755 0.000001044
vn 0.371393015 0.928475755 -0.000001044
vn 0.371392047 0.928476143 0.000000000
usemtl mat_0
f 1/1/1 2/1/1 3/1/1 4/1/1
f 2/1/1 1/1/1 5/1/1 6/1/1
f 7/1/2 8/1/2 9/1/2
f 10/1/2 8/1/2 7/1/2
f 10/1/2 7/1/2 4/1/2
f 10/1/2 4/1/2 3/1/2
f 11/1/3 12/1/3 13/1/3
f 11/1/3 13/1/3 6/1/3
f 11/1/3 6/1/3 5/1/3
f 14/1/3 12/1/3 11/1/3
f 15/1/2 16/1/2 17/1/2
f 18/1/2 19/1/2 20/1/2
f 21/1/2 22/1/2 17/1/2 16/1/2
f 23/1/2 24/1/2 19/1/2 18/1/2
f 25/1/2 26/1/2 27/1/2
f 28/1/2 29/1/2 22/1/2 21/1/2
f 27/1/2 26/1/2 30/1/2
f 27/1/2 30/1/2 29/1/2
f 27/1/2 29/1/2 28/1/2
f 27/1/2 28/1/2 24/1/2
f 27/1/2 24/1/2 23/1/2
usemtl mat_2
f 31/1/2 32/1/2 33/1/2
f 34/1/2 31/1/2 33/1/2 35/1/2
f 36/1/2 37/1/2 38/1/2
f 32/1/2 36/1/2 38/1/2 33/1/2
f 39/1/2 40/1/2 41/1/2
f 37/1/2 39/1/2 41/1/2 38/1/2
f 42/1/2 43/1/2 44/1/2
f 40/1/2 42/1/2 44/1/2 41/1/2
f 45/1/2 46/1/2 47/1/2 48/1/2
f 43/1/2 45/1/2 48/1/2 44/1/2
f 49/1/2 50/1/2 51/1/2
f 47/1/2 49/1/2 51/1/2 48/1/2
f 52/1/2 53/1/2 54/1/2
f 50/1/2 52/1/2 54/1/2 51/1/2
f 55/1/2 56/1/2 57/1/2
f 53/1/2 55/1/2 57/1/2 54/1/2
f 58/1/2 59/1/2 60/1/2
f 56/1/2 58/1/2 60/1/2 57/1/2
f 61/1/2 62/1/2 63/1/2
f 59/1/2 61/1/2 63/1/2 60/1/2
f 64/1/2 65/1/2 66/1/2
f 62/1/2 64/1/2 66/1/2 63/1/2
f 67/1/2 68/1/2 69/1/2 70/1/2
f 65/1/2 67/1/2 70/1/2 66/1/2
f 71/1/2 72/1/2 73/1/2
f 69/1/2 71/1/2 73/1/2 70/1/2
f 74/1/2 75/1/2 76/1/2
f 72/1/2 74/1/2 76/1/2 73/1/2
f 77/1/2 78/1/2 79/1/2
f 75/1/2 77/1/2 79/1/2 76/1/2
f 80/1/2 81/1/2 82/1/2
f 78/1/2 80/1/2 82/1/2 79/1/2
f 83/1/2 84/1/2 85/1/2
f 81/1/2 83/1/2 85/1/2 82/1/2
f 86/1/2 87/1/2 88/1/2
f 84/1/2 86/1/2 88/1/2 85/1/2
f 89/1/2 90/1/2 91/1/2 92/1/2
f 87/1/2 89/1/2 92/1/2 88/1/2
f 93/1/2 94/1/2 95/1/2
f 91/1/2 93/1/2 95/1/2 92/1/2
f 96/1/2 97/1/2 98/1/2
f 94/1/2 96/1/2 98/1/2 95/1/2
f 99/1/2 100/1/2 101/1/2
f 97/1/2 99/1/2 101/1/2 98/1/2
f 102/1/2 103/1/2 104/1/2
f 100/1/2 102/1/2 104/1/2 101/1/2
f 105/1/2 106/1/2 107/1/2
f 103/1/2 105/1/2 107/1/2 104/1/2
f 108/1/2 109/1/2 110/1/2
f 106/1/2 108/1/2 110/1/2 107/1/2
f 111/1/2 112/1/2 113/1/2
f 109/1/2 111/1/2 113/1/2 110/1/2
f 114/1/2 115/1/2 116/1/2
f 112/1/2 114/1/2 116/1/2 113/1/2
f 117/1/2 118/1/2 119/1/2
f 115/1/2 117/1/2 119/1/2 116/1/2
f 120/1/2 121/1/2 122/1/2
f 118/1/2 120/1/2 122/1/2 119/1/2
f 123/1/2 124/1/2 125/1/2 126/1/2
f 121/1/2 123/1/2 126/1/2 122/1/2
f 127/1/2 128/1/2 129/1/2
f 125/1/2 127/1/2 129/1/2 126/1/2
f 130/1/2 34/1/2 35/1/2
f 128/1/2 130/1/2 35/1/2 129/1/2
f 35/1/4 33/1/4 131/1/4
f 35/1/4 131/1/4 132/1/4
f 33/1/5 38/1/5 133/1/5
f 33/1/5 133/1/5 131/1/5
f 38/1/6 41/1/6 134/1/6
f 38/1/6 134/1/6 133/1/6
f 41/1/7 44/1/7 135/1/7
f 41/1/7 135/1/7 134/1/7
f 44/1/8 48/1/8 136/1/8
f 44/1/8 136/1/8 135/1/8
f 48/1/9 51/1/9 137/1/9
f 48/1/9 137/1/9 136/1/9
f 51/1/10 54/1/10 138/1/10
f 51/1/10 138/1/10 137/1/10
f 54/1/11 57/1/11 139/1/11
f 54/1/11 139/1/11 138/1/11
f 57/1/12 60/1/12 140/1/12
f 57/1/12 140/1/12 139/1/12
f 60/1/13 63/1/13 141/1/13
f 60/1/13 141/1/13 140/1/13
f 63/1/14 66/1/14 142/1/14
f 63/1/14 142/1/14 141/1/14
f 66/1/15 70/1/15 143/1/15
f 66/1/15 143/1/15 142/1/15
f 70/1/16 73/1/16 144/1/16
f 70/1/16 144/1/16 143/1/16
f 73/1/17 76/1/17 145/1/17
f 73/1/17 145/1/17 144/1/17
f 76/1/18 79/1/18 146/1/18
f 76/1/18 146/1/18 145/1/18
f 79/1/19 82/1/19 147/1/19
f 79/1/19 147/1/19 146/1/19
f 82/1/20 85/1/20 148/1/20
f 82/1/20 148/1/20 147/1/20
f 85/1/21 88/1/21 149/1/21
f 85/1/21 149/1/21 148/1/21
f 88/1/22 92/1/22 150/1/22
f 88/1/22 150/1/22 149/1/22
f 92/1/23 95/1/23 151/1/23
f 92/1/23 151/1/23 150/1/23
f 95/1/24 98/1/24 152/1/24
f 95/1/24 152/1/24 151/1/24
f 98/1/25 101/1/25 153/1/25
f 98/1/25 153/1/25 152/1/25
f 101/1/26 104/1/26 154/1/26
f 101/1/26 154/1/26 153/1/26
f 104/1/27 107/1/27 155/1/27
f 104/1/27 155/1/27 154/1/27
f 107/1/28 110/1/28 156/1/28
f 107/1/28 156/1/28 155/1/28
f 110/1/29 113/1/29 157/1/29
f 110/1/29 157/1/29 156/1/29
f 113/1/30 116/1/30 158/1/30
f 113/1/30 158/1/30 157/1/30
f 116/1/31 119/1/31 159/1/31
f 116/1/31 159/1/31 158/1/31
f 119/1/32 122/1/32 160/1/32
f 119/1/32 160/1/32 159/1/32
f 122/1/33 126/1/33 161/1/33
f 122/1/33 161/1/33 160/1/33
f 126/1/34 129/1/34 162/1/34
f 126/1/34 162/1/34 161/1/34
f 129/1/35 35/1/35 132/1/35
f 129/1/35 132/1/35 162/1/35
f 163/1/3 132/1/3 131/1/3 164/1/3
f 165/1/3 132/1/3 163/1/3
f 166/1/3 131/1/3 133/1/3 167/1/3
f 164/1/3 131/1/3 166/1/3
f 168/1/3 133/1/3 134/1/3 169/1/3
f 167/1/3 133/1/3 168/1/3
f 170/1/3 134/1/3 135/1/3 171/1/3
f 169/1/3 134/1/3 170/1/3
f 172/1/3 135/1/3 136/1/3 173/1/3
f 171/1/3 135/1/3 172/1/3 174/1/3
f 175/1/3 136/1/3 137/1/3 176/1/3
f 173/1/3 136/1/3 175/1/3
f 177/1/3 137/1/3 138/1/3 178/1/3
f 176/1/3 137/1/3 177/1/3
f 179/1/3 138/1/3 139/1/3 180/1/3
f 178/1/3 138/1/3 179/1/3
f 181/1/3 139/1/3 140/1/3 182/1/3
f 180/1/3 139/1/3 181/1/3
f 183/1/3 140/1/3 141/1/3 184/1/3
f 182/1/3 140/1/3 183/1/3
f 185/1/3 141/1/3 142/1/3 186/1/3
f 184/1/3 141/1/3 185/1/3
f 187/1/3 142/1/3 143/1/3 188/1/3
f 189/1/3 186/1/3 142/1/3 187/1/3
f 190/1/3 143/1/3 144/1/3 191/1/3
f 188/1/3 143/1/3 190/1/3
f 192/1/3 144/1/3 145/1/3 193/1/3
f 191/1/3 144/1/3 192/1/3
f 194/1/3 145/1/3 146/1/3 195/1/3
f 193/1/3 145/1/3 194/1/3
f 196/1/3 146/1/3 147/1/3 197/1/3
f 195/1/3 146/1/3 196/1/3
f 198/1/3 147/1/3 148/1/3 199/1/3
f 197/1/3 147/1/3 198/1/3
f 200/1/3 148/1/3 149/1/3 201/1/3
f 199/1/3 148/1/3 200/1/3
f 202/1/3 149/1/3 150/1/3 203/1/3
f 204/1/3 201/1/3 149/1/3 202/1/3
f 205/1/3 150/1/3 151/1/3 206/1/3
f 203/1/3 150/1/3 205/1/3
f 207/1/3 151/1/3 152/1/3 208/1/3
f 206/1/3 151/1/3 207/1/3
f 209/1/3 152/1/3 153/1/3 210/1/3
f 208/1/3 152/1/3 209/1/3
f 211/1/3 153/1/3 154/1/3 212/1/3
f 210/1/3 153/1/3 211/1/3
f 213/1/3 154/1/3 155/1/3 214/1/3
f 212/1/3 154/1/3 213/1/3
f 215/1/3 155/1/3 156/1/3 216/1/3
f 214/1/3 155/1/3 215/1/3
f 217/1/3 156/1/3 157/1/3 218/1/3
f 216/1/3 156/1/3 217/1/3
f 219/1/3 157/1/3 158/1/3 220/1/3
f 218/1/3 157/1/3 219/1/3
f 221/1/3 158/1/3 159/1/3 222/1/3
f 220/1/3 158/1/3 221/1/3
f 223/1/3 159/1/3 160/1/3 224/1/3
f 222/1/3 159/1/3 223/1/3
f 225/1/3 160/1/3 161/1/3 226/1/3
f 227/1/3 224/1/3 160/1/3 225/1/3
f 228/1/3 161/1/3 162/1/3 229/1/3
f 226/1/3 161/1/3 228/1/3
f 230/1/3 162/1/3 132/1/3 165/1/3
f 229/1/3 162/1/3 230/1/3
usemtl mat_1
f 231/1/2 232/1/2 131/1/2
f 165/1/2 231/1/2 131/1/2 132/1/2
f 233/1/2 234/1/2 133/1/2
f 232/1/2 233/1/2 133/1/2 131/1/2
f 235/1/2 236/1/2 134/1/2
f 234/1/2 235/1/2 134/1/2 133/1/2
f 237/1/2 171/1/2 135/1/2
f 236/1/2 237/1/2 135/1/2 134/1/2
f 238/1/2 174/1/2 239/1/2 136/1/2
f 171/1/2 238/1/2 136/1/2 135/1/2
f 240/1/2 241/1/2 137/1/2
f 239/1/2 240/1/2 137/1/2 136/1/2
f 242/1/2 243/1/2 138/1/2
f 241/1/2 242/1/2 138/1/2 137/1/2
f 244/1/2 180/1/2 139/1/2
f 243/1/2 244/1/2 139/1/2 138/1/2
f 245/1/2 246/1/2 140/1/2
f 180/1/2 245/1/2 140/1/2 139/1/2
f 247/1/2 248/1/2 141/1/2
f 246/1/2 247/1/2 141/1/2 140/1/2
f 249/1/2 250/1/2 142/1/2
f 248/1/2 249/1/2 142/1/2 141/1/2
f 251/1/2 189/1/2 252/1/2 143/1/2
f 250/1/2 251/1/2 143/1/2 142/1/2
f 253/1/2 254/1/2 144/1/2
f 252/1/2 253/1/2 144/1/2 143/1/2
f 255/1/2 256/1/2 145/1/2
f 254/1/2 255/1/2 145/1/2 144/1/2
f 257/1/2 258/1/2 146/1/2
f 256/1/2 257/1/2 146/1/2 145/1/2
f 259/1/2 197/1/2 147/1/2
f 258/1/2 259/1/2 147/1/2 146/1/2
f 260/1/2 261/1/2 148/1/2
f 197/1/2 260/1/2 148/1/2 147/1/2
f 262/1/2 263/1/2 149/1/2
f 261/1/2 262/1/2 149/1/2 148/1/2
f 264/1/2 204/1/2 265/1/2 150/1/2
f 263/1/2 264/1/2 150/1/2 149/1/2
f 266/1/2 267/1/2 151/1/2
f 265/1/2 266/1/2 151/1/2 150/1/2
f 268/1/2 269/1/2 152/1/2
f 267/1/2 268/1/2 152/1/2 151/1/2
f 270/1/2 271/1/2 153/1/2
f 269/1/2 270/1/2 153/1/2 152/1/2
f 272/1/2 273/1/2 154/1/2
f 271/1/2 272/1/2 154/1/2 153/1/2
f 274/1/2 214/1/2 155/1/2
f 273/1/2 274/1/2 155/1/2 154/1/2
f 275/1/2 276/1/2 156/1/2
f 214/1/2 275/1/2 156/1/2 155/1/2
f 277/1/2 278/1/2 157/1/2
f 276/1/2 277/1/2 157/1/2 156/1/2
f 279/1/2 280/1/2 158/1/2
f 278/1/2 279/1/2 158/1/2 157/1/2
f 281/1/2 282/1/2 159/1/2
f 280/1/2 281/1/2 159/1/2 158/1/2
f 283/1/2 284/1/2 160/1/2
f 282/1/2 283/1/2 160/1/2 159/1/2
f 285/1/2 227/1/2 286/1/2 161/1/2
f 284/1/2 285/1/2 161/1/2 160/1/2
f 287/1/2 288/1/2 162/1/2
f 286/1/2 287/1/2 162/1/2 161/1/2
f 289/1/2 165/1/2 132/1/2
f 288/1/2 289/1/2 132/1/2 162/1/2
f 132/1/4 131/1/4 290/1/4
f 132/1/4 290/1/4 291/1/4
f 131/1/5 133/1/5 292/1/5
f 131/1/5 292/1/5 290/1/5
f 133/1/6 134/1/6 293/1/6
f 133/1/6 293/1/6 292/1/6
f 134/1/7 135/1/7 294/1/7
f 134/1/7 294/1/7 293/1/7
f 135/1/8 136/1/8 295/1/8
f 135/1/8 295/1/8 294/1/8
f 136/1/9 137/1/9 296/1/9
f 136/1/9 296/1/9 295/1/9
f 137/1/10 138/1/10 297/1/10
f 137/1/10 297/1/10 296/1/10
f 138/1/11 139/1/11 298/1/11
f 138/1/11 298/1/11 297/1/11
f 139/1/12 140/1/12 299/1/12
f 139/1/12 299/1/12 298/1/12
f 140/1/13 141/1/13 300/1/13
f 140/1/13 300/1/13 299/1/13
f 141/1/14 142/1/14 301/1/14
f 141/1/14 301/1/14 300/1/14
f 142/1/15 143/1/15 302/1/15
f 142/1/15 302/1/15 301/1/15
f 143/1/16 144/1/16 303/1/16
f 143/1/16 303/1/16 302/1/16
f 144/1/17 145/1/17 304/1/17
f 144/1/17 304/1/17 303/1/17
f 145/1/18 146/1/18 305/1/18
f 145/1/18 305/1/18 304/1/18
f 146/1/19 147/1/19 306/1/19
f 146/1/19 306/1/19 305/1/19
f 147/1/20 148/1/20 307/1/20
f 147/1/20 307/1/20 306/1/20
f 148/1/21 149/1/21 308/1/21
f 148/1/21 308/1/21 307/1/21
f 149/1/22 150/1/22 309/1/22
f 149/1/22 309/1/22 308/1/22
f 150/1/23 151/1/23 310/1/23
f 150/1/23 310/1/23 309/1/23
f 151/1/24 152/1/24 311/1/24
f 151/1/24 311/1/24 310/1/24
f 152/1/25 153/1/25 312/1/25
f 152/1/25 312/1/25 311/1/25
f 153/1/26 154/1/26 313/1/26
f 153/1/26 313/1/26 312/1/26
f 154/1/27 155/1/27 314/1/27
f 154/1/27 314/1/27 313/1/27
f 155/1/28 156/1/28 315/1/28
f 155/1/28 315/1/28 314/1/28
f 156/1/29 157/1/29 316/1/29
f 156/1/29 316/1/29 315/1/29
f 157/1/30 158/1/30 317/1/30
f 157/1/30 317/1/30 316/1/30
f 158/1/31 159/1/31 318/1/31
f 158/1/31 318/1/31 317/1/31
f 159/1/32 160/1/32 319/1/32
f 159/1/32 319/1/32 318/1/32
f 160/1/33 161/1/33 320/1/33
f 160/1/33 320/1/33 319/1/33
f 161/1/34 162/1/34 321/1/34
f 161/1/34 321/1/34 320/1/34
f 162/1/35 132/1/35 291/1/35
f 162/1/35 291/1/35 321/1/35
f 322/1/3 291/1/3 290/1/3 323/1/3
f 324/1/3 291/1/3 322/1/3
f 325/1/3 290/1/3 292/1/3 326/1/3
f 323/1/3 290/1/3 325/1/3
f 327/1/3 292/1/3 293/1/3 328/1/3
f 326/1/3 292/1/3 327/1/3
f 329/1/3 293/1/3 294/1/3 330/1/3
f 328/1/3 293/1/3 329/1/3
f 331/1/3 294/1/3 295/1/3 332/1/3
f 330/1/3 294/1/3 331/1/3 333/1/3
f 334/1/3 295/1/3 296/1/3 335/1/3
f 332/1/3 295/1/3 334/1/3
f 336/1/3 296/1/3 297/1/3 337/1/3
f 335/1/3 296/1/3 336/1/3
f 338/1/3 297/1/3 298/1/3 339/1/3
f 337/1/3 297/1/3 338/1/3
f 340/1/3 298/1/3 299/1/3 341/1/3
f 339/1/3 298/1/3 340/1/3
f 342/1/3 299/1/3 300/1/3 343/1/3
f 341/1/3 299/1/3 342/1/3
f 344/1/3 300/1/3 301/1/3 345/1/3
f 343/1/3 300/1/3 344/1/3
f 346/1/3 301/1/3 302/1/3 347/1/3
f 348/1/3 345/1/3 301/1/3 346/1/3
f 349/1/3 302/1/3 303/1/3 350/1/3
f 347/1/3 302/1/3 349/1/3
f 351/1/3 303/1/3 304/1/3 352/1/3
f 350/1/3 303/1/3 351/1/3
f 353/1/3 304/1/3 305/1/3 354/1/3
f 352/1/3 304/1/3 353/1/3
f 355/1/3 305/1/3 306/1/3 356/1/3
f 354/1/3 305/1/3 355/1/3
f 357/1/3 306/1/3 307/1/3 358/1/3
f 356/1/3 306/1/3 357/1/3
f 359/1/3 307/1/3 308/1/3 360/1/3
f 358/1/3 307/1/3 359/1/3
f 361/1/3 308/1/3 309/1/3 362/1/3
f 363/1/3 360/1/3 308/1/3 361/1/3
f 364/1/3 309/1/3 310/1/3 365/1/3
f 362/1/3 309/1/3 364/1/3
f 366/1/3 310/1/3 311/1/3 367/1/3
f 365/1/3 310/1/3 366/1/3
f 368/1/3 311/1/3 312/1/3 369/1/3
f 367/1/3 311/1/3 368/1/3
f 370/1/3 312/1/3 313/1/3 371/1/3
f 369/1/3 312/1/3 370/1/3
f 372/1/3 313/1/3 314/1/3 373/1/3
f 371/1/3 313/1/3 372/1/3
f 374/1/3 314/1/3 315/1/3 375/1/3
f 373/1/3 314/1/3 374/1/3
f 376/1/3 315/1/3 316/1/3 377/1/3
f 375/1/3 315/1/3 376/1/3
f 378/1/3 316/1/3 317/1/3 379/1/3
f 377/1/3 316/1/3 378/1/3
f 380/1/3 317/1/3 318/1/3 381/1/3
f 379/1/3 317/1/3 380/1/3
f 382/1/3 318/1/3 319/1/3 383/1/3
f 381/1/3 318/1/3 382/1/3
f 384/1/3 319/1/3 320/1/3 385/1/3
f 386/1/3 383/1/3 319/1/3 384/1/3
f 387/1/3 320/1/3 321/1/3 388/1/3
f 385/1/3 320/1/3 387/1/3
f 389/1/3 321/1/3 291/1/3 324/1/3
f 388/1/3 321/1/3 389/1/3
usemtl mat_2
f 390/1/3 391/1/3 392/1/3 393/1/3
f 393/1/3 394/1/3 395/1/3
f 396/1/3 395/1/3 397/1/3 398/1/3
f 390/1/3 393/1/3 395/1/3 396/1/3
f 399/1/2 400/1/2 401/1/2 402/1/2
f 402/1/2 403/1/2 404/1/2
f 404/1/2 405/1/2 399/1/2
f 402/1/2 404/1/2 399/1/2
f 406/1/36 398/1/36 397/1/36 402/1/36
f 406/1/36 402/1/36 401/1/36
f 397/1/37 395/1/37 403/1/37
f 397/1/37 403/1/37 402/1/37
f 395/1/38 394/1/38 404/1/38
f 395/1/38 404/1/38 403/1/38
f 394/1/39 393/1/39 405/1/39
f 394/1/39 405/1/39 404/1/39
f 393/1/1 392/1/1 399/1/1
f 393/1/1 399/1/1 405/1/1
f 407/1/40 392/1/40 391/1/40
f 392/1/40 407/1/40 400/1/40 399/1/40
f 408/1/3 409/1/3 410/1/3 411/1/3
f 412/1/3 411/1/3 413/1/3
f 408/1/3 411/1/3 412/1/3
f 414/1/2 415/1/2 416/1/2
f 417/1/2 418/1/2 419/1/2 415/1/2
f 414/1/2 417/1/2 415/1/2
f 420/1/39 413/1/39 411/1/39 419/1/39
f 420/1/39 419/1/39 418/1/39
f 411/1/1 410/1/1 415/1/1
f 411/1/1 415/1/1 419/1/1
f 421/1/40 410/1/40 409/1/40
f 410/1/40 421/1/40 416/1/40 415/1/40
f 422/1/3 423/1/3 424/1/3 425/1/3
f 426/1/3 425/1/3 427/1/3
f 422/1/3 425/1/3 426/1/3
f 428/1/2 429/1/2 430/1/2
f 431/1/2 432/1/2 433/1/2 429/1/2
f 428/1/2 431/1/2 429/1/2
f 434/1/39 427/1/39 425/1/39 433/1/39
f 434/1/39 433/1/39 432/1/39
f 425/1/1 424/1/1 429/1/1
f 425/1/1 429/1/1 433/1/1
f 435/1/40 424/1/40 423/1/40
f 424/1/40 435/1/40 430/1/40 429/1/40
f 436/1/3 437/1/3 438/1/3
f 438/1/3 439/1/3 440/1/3 441/1/3
f 441/1/3 442/1/3 436/1/3
f 438/1/3 441/1/3 436/1/3
f 443/1/2 444/1/2 445/1/2
f 446/1/2 445/1/2 447/1/2 448/1/2
f 449/1/2 450/1/2 451/1/2 443/1/2
f 445/1/2 446/1/2 449/1/2 443/1/2
f 436/1/36 442/1/36 445/1/36
f 436/1/36 445/1/36 444/1/36
f 442/1/37 441/1/37 447/1/37
f 442/1/37 447/1/37 445/1/37
f 452/1/38 441/1/38 440/1/38
f 441/1/38 452/1/38 448/1/38 447/1/38
f 453/1/39 439/1/39 438/1/39 451/1/39
f 453/1/39 451/1/39 450/1/39
f 438/1/1 437/1/1 443/1/1
f 438/1/1 443/1/1 451/1/1
f 437/1/40 436/1/40 444/1/40
f 437/1/40 444/1/40 443/1/40
usemtl mat_0
f 454/1/3 455/1/3 456/1/3 457/1/3
f 458/1/3 459/1/3 460/1/3 461/1/3
f 462/1/3 463/1/3 464/1/3 465/1/3
f 465/1/3 466/1/3 467/1/3
f 467/1/3 468/1/3 469/1/3
f 469/1/3 470/1/3 471/1/3
f 471/1/3 472/1/3 473/1/3
f 474/1/3 473/1/3 475/1/3 476/1/3
f 477/1/3 478/1/3 455/1/3 454/1/3
f 479/1/3 480/1/3 459/1/3 458/1/3
f 481/1/3 462/1/3 465/1/3
f 465/1/3 467/1/3 469/1/3
f 469/1/3 471/1/3 473/1/3
f 482/1/3 473/1/3 474/1/3
f 483/1/3 484/1/3 478/1/3 477/1/3
f 485/1/3 486/1/3 480/1/3 479/1/3
f 487/1/3 481/1/3 465/1/3 469/1/3
f 488/1/3 469/1/3 473/1/3 482/1/3
f 81/1/3 34/1/3 484/1/3
f 81/1/3 484/1/3 483/1/3
f 81/1/3 483/1/3 486/1/3
f 81/1/3 486/1/3 485/1/3
f 34/1/3 81/1/3 487/1/3
f 34/1/3 487/1/3 469/1/3
f 34/1/3 469/1/3 488/1/3
f 489/1/2 490/1/2 491/1/2
f 491/1/2 492/1/2 493/1/2
f 493/1/2 494/1/2 495/1/2
f 495/1/2 496/1/2 497/1/2
f 497/1/2 498/1/2 499/1/2
f 499/1/2 500/1/2 501/1/2
f 502/1/2 501/1/2 503/1/2
f 504/1/2 505/1/2 506/1/2 507/1/2
f 508/1/2 509/1/2 510/1/2 511/1/2
f 512/1/2 489/1/2 491/1/2
f 491/1/2 493/1/2 495/1/2
f 495/1/2 497/1/2 499/1/2
f 513/1/2 499/1/2 501/1/2 502/1/2
f 514/1/2 515/1/2 505/1/2 504/1/2
f 516/1/2 517/1/2 509/1/2 508/1/2
f 518/1/2 512/1/2 491/1/2 495/1/2
f 519/1/2 495/1/2 499/1/2 513/1/2
f 520/1/2 521/1/2 515/1/2 514/1/2
f 522/1/2 523/1/2 517/1/2 516/1/2
f 524/1/2 525/1/2 518/1/2
f 524/1/2 518/1/2 495/1/2
f 524/1/2 495/1/2 519/1/2
f 525/1/2 524/1/2 521/1/2
f 525/1/2 521/1/2 520/1/2
f 525/1/2 520/1/2 523/1/2
f 525/1/2 523/1/2 522/1/2
f 526/1/41 476/1/41 475/1/41 491/1/41
f 526/1/41 491/1/41 490/1/41
f 475/1/42 473/1/42 492/1/42
f 475/1/42 492/1/42 491/1/42
f 473/1/43 472/1/43 493/1/43
f 473/1/43 493/1/43 492/1/43
f 472/1/44 471/1/44 494/1/44
f 472/1/44 494/1/44 493/1/44
f 471/1/45 470/1/45 495/1/45
f 471/1/45 495/1/45 494/1/45
f 470/1/46 469/1/46 496/1/46
f 470/1/46 496/1/46 495/1/46
f 469/1/47 468/1/47 497/1/47
f 469/1/47 497/1/47 496/1/47
f 468/1/48 467/1/48 498/1/48
f 468/1/48 498/1/48 497/1/48
f 467/1/49 466/1/49 499/1/49
f 467/1/49 499/1/49 498/1/49
f 466/1/50 465/1/50 500/1/50
f 466/1/50 500/1/50 499/1/50
f 465/1/51 464/1/51 501/1/51
f 465/1/51 501/1/51 500/1/51
f 527/1/52 464/1/52 463/1/52
f 464/1/52 527/1/52 503/1/52 501/1/52
f 528/1/53 529/1/53 461/1/53 460/1/53
f 529/1/53 528/1/53 507/1/53 506/1/53
f 530/1/54 531/1/54 457/1/54 456/1/54
f 531/1/54 530/1/54 511/1/54 510/1/54
usemtl mat_4
f 532/1/55 533/1/55 534/1/55
f 532/1/55 534/1/55 535/1/55
f 533/1/56 536/1/56 537/1/56
f 533/1/57 537/1/57 534/1/57
f 536/1/58 538/1/58 539/1/58
f 536/1/59 539/1/59 537/1/59
f 538/1/60 540/1/60 541/1/60
f 538/1/61 541/1/61 539/1/61
f 540/1/62 542/1/62 543/1/62
f 540/1/63 543/1/63 541/1/63
f 542/1/64 544/1/64 545/1/64
f 542/1/65 545/1/65 543/1/65
f 544/1/66 546/1/66 547/1/66
f 544/1/67 547/1/67 545/1/67
f 546/1/68 548/1/68 549/1/68
f 546/1/69 549/1/69 547/1/69
f 548/1/70 550/1/70 551/1/70
f 548/1/70 551/1/70 549/1/70
f 550/1/71 552/1/71 553/1/71
f 550/1/72 553/1/72 551/1/72
f 552/1/73 554/1/73 555/1/73
f 552/1/74 555/1/74 553/1/74
f 554/1/75 556/1/75 557/1/75
f 554/1/76 557/1/76 555/1/76
f 556/1/77 558/1/77 559/1/77
f 556/1/78 559/1/78 557/1/78
f 558/1/79 560/1/79 561/1/79
f 558/1/80 561/1/80 559/1/80
f 560/1/81 562/1/81 563/1/81
f 560/1/82 563/1/82 561/1/82
f 562/1/83 532/1/83 535/1/83
f 562/1/84 535/1/84 563/1/84
f 535/1/85 534/1/85 564/1/85
f 535/1/86 564/1/86 565/1/86
f 534/1/87 537/1/87 566/1/87
f 534/1/88 566/1/88 564/1/88
f 537/1/89 539/1/89 567/1/89
f 537/1/90 567/1/90 566/1/90
f 539/1/91 541/1/91 568/1/91
f 539/1/92 568/1/92 567/1/92
f 541/1/93 543/1/93 569/1/93
f 541/1/94 569/1/94 568/1/94
f 543/1/95 545/1/95 570/1/95
f 543/1/96 570/1/96 569/1/96
f 545/1/97 547/1/97 571/1/97
f 545/1/98 571/1/98 570/1/98
f 547/1/99 549/1/99 572/1/99
f 547/1/100 572/1/100 571/1/100
f 549/1/101 551/1/101 573/1/101
f 549/1/102 573/1/102 572/1/102
f 551/1/103 553/1/103 574/1/103
f 551/1/104 574/1/104 573/1/104
f 553/1/105 555/1/105 575/1/105
f 553/1/106 575/1/106 574/1/106
f 555/1/107 557/1/107 576/1/107
f 555/1/108 576/1/108 575/1/108
f 557/1/109 559/1/109 577/1/109
f 557/1/110 577/1/110 576/1/110
f 559/1/111 561/1/111 578/1/111
f 559/1/112 578/1/112 577/1/112
f 561/1/113 563/1/113 579/1/113
f 561/1/114 579/1/114 578/1/114
f 563/1/115 535/1/115 565/1/115
f 563/1/116 565/1/116 579/1/116
f 565/1/117 564/1/117 580/1/117
f 565/1/118 580/1/118 581/1/118
f 564/1/119 566/1/119 582/1/119
f 564/1/120 582/1/120 580/1/120
f 566/1/121 567/1/121 583/1/121
f 566/1/122 583/1/122 582/1/122
f 567/1/123 568/1/123 584/1/123
f 567/1/124 584/1/124 583/1/124
f 568/1/125 569/1/125 585/1/125
f 568/1/126 585/1/126 584/1/126
f 569/1/127 570/1/127 586/1/127
f 569/1/128 586/1/128 585/1/128
f 570/1/129 571/1/129 587/1/129
f 570/1/130 587/1/130 586/1/130
f 571/1/131 572/1/131 588/1/131
f 571/1/132 588/1/132 587/1/132
f 572/1/133 573/1/133 589/1/133
f 572/1/134 589/1/134 588/1/134
f 573/1/135 574/1/135 590/1/135
f 573/1/136 590/1/136 589/1/136
f 574/1/137 575/1/137 591/1/137
f 574/1/138 591/1/138 590/1/138
f 575/1/139 576/1/139 592/1/139
f 575/1/140 592/1/140 591/1/140
f 576/1/141 577/1/141 593/1/141
f 576/1/142 593/1/142 592/1/142
f 577/1/143 578/1/143 594/1/143
f 577/1/144 594/1/144 593/1/144
f 578/1/145 579/1/145 595/1/145
f 578/1/146 595/1/146 594/1/146
f 579/1/147 565/1/147 581/1/147
f 579/1/148 581/1/148 595/1/148
f 581/1/149 580/1/149 596/1/149
f 581/1/150 596/1/150 597/1/150
f 580/1/151 582/1/151 598/1/151
f 580/1/152 598/1/152 596/1/152
f 582/1/153 583/1/153 599/1/153
f 582/1/154 599/1/154 598/1/154
f 583/1/155 584/1/155 600/1/155
f 583/1/156 600/1/156 599/1/156
f 584/1/157 585/1/157 601/1/157
f 584/1/158 601/1/158 600/1/158
f 585/1/159 586/1/159 602/1/159
f 585/1/160 602/1/160 601/1/160
f 586/1/161 587/1/161 603/1/161
f 586/1/162 603/1/162 602/1/162
f 587/1/163 588/1/163 604/1/163
f 587/1/164 604/1/164 603/1/164
f 588/1/165 589/1/165 605/1/165
f 588/1/166 605/1/166 604/1/166
f 589/1/167 590/1/167 606/1/167
f 589/1/168 606/1/168 605/1/168
f 590/1/169 591/1/169 607/1/169
f 590/1/170 607/1/170 606/1/170
f 591/1/171 592/1/171 608/1/171
f 591/1/172 608/1/172 607/1/172
f 592/1/173 593/1/173 609/1/173
f 592/1/174 609/1/174 608/1/174
f 593/1/175 594/1/175 610/1/175
f 593/1/176 610/1/176 609/1/176
f 594/1/177 595/1/177 611/1/177
f 594/1/178 611/1/178 610/1/178
f 595/1/179 581/1/179 597/1/179
f 595/1/180 597/1/180 611/1/180
f 597/1/181 596/1/181 612/1/181
f 597/1/182 612/1/182 613/1/182
f 596/1/183 598/1/183 614/1/183
f 596/1/184 614/1/184 612/1/184
f 598/1/185 599/1/185 615/1/185
f 598/1/186 615/1/186 614/1/186
f 599/1/187 600/1/187 616/1/187
f 599/1/188 616/1/188 615/1/188
f 600/1/189 601/1/189 617/1/189
f 600/1/190 617/1/190 616/1/190
f 601/1/191 602/1/191 618/1/191
f 601/1/192 618/1/192 617/1/192
f 602/1/193 603/1/193 619/1/193
f 602/1/194 619/1/194 618/1/194
f 603/1/195 604/1/195 620/1/195
f 603/1/196 620/1/196 619/1/196
f 604/1/197 605/1/197 621/1/197
f 604/1/198 621/1/198 620/1/198
f 605/1/199 606/1/199 622/1/199
f 605/1/200 622/1/200 621/1/200
f 606/1/201 607/1/201 623/1/201
f 606/1/202 623/1/202 622/1/202
f 607/1/203 608/1/203 624/1/203
f 607/1/204 624/1/204 623/1/204
f 608/1/205 609/1/205 625/1/205
f 608/1/206 625/1/206 624/1/206
f 609/1/207 610/1/207 626/1/207
f 609/1/208 626/1/208 625/1/208
f 610/1/209 611/1/209 627/1/209
f 610/1/210 627/1/210 626/1/210
f 611/1/211 597/1/211 613/1/211
f 611/1/212 613/1/212 627/1/212
f 613/1/213 612/1/213 628/1/213
f 613/1/214 628/1/214 629/1/214
f 612/1/215 614/1/215 630/1/215
f 612/1/216 630/1/216 628/1/216
f 614/1/217 615/1/217 631/1/217
f 614/1/218 631/1/218 630/1/218
f 615/1/219 616/1/219 632/1/219
f 615/1/220 632/1/220 631/1/220
f 616/1/221 617/1/221 633/1/221
f 616/1/222 633/1/222 632/1/222
f 617/1/223 618/1/223 634/1/223
f 617/1/224 634/1/224 633/1/224
f 618/1/225 619/1/225 635/1/225
f 618/1/226 635/1/226 634/1/226
f 619/1/227 620/1/227 636/1/227
f 619/1/228 636/1/228 635/1/228
f 620/1/229 621/1/229 637/1/229
f 620/1/230 637/1/230 636/1/230
f 621/1/231 622/1/231 638/1/231
f 621/1/232 638/1/232 637/1/232
f 622/1/233 623/1/233 639/1/233
f 622/1/234 639/1/234 638/1/234
f 623/1/235 624/1/235 640/1/235
f 623/1/236 640/1/236 639/1/236
f 624/1/237 625/1/237 641/1/237
f 624/1/238 641/1/238 640/1/238
f 625/1/239 626/1/239 642/1/239
f 625/1/240 642/1/240 641/1/240
f 626/1/241 627/1/241 643/1/241
f 626/1/242 643/1/242 642/1/242
f 627/1/243 613/1/243 629/1/243
f 627/1/244 629/1/244 643/1/244
f 629/1/245 628/1/245 644/1/245
f 629/1/246 644/1/246 645/1/246
f 628/1/247 630/1/247 646/1/247
f 628/1/248 646/1/248 644/1/248
f 630/1/249 631/1/249 647/1/249
f 630/1/250 647/1/250 646/1/250
f 631/1/251 632/1/251 648/1/251
f 631/1/252 648/1/252 647/1/252
f 632/1/253 633/1/253 649/1/253
f 632/1/254 649/1/254 648/1/254
f 633/1/255 634/1/255 650/1/255
f 633/1/256 650/1/256 649/1/256
f 634/1/257 635/1/257 651/1/257
f 634/1/258 651/1/258 650/1/258
f 635/1/259 636/1/259 652/1/259
f 635/1/260 652/1/260 651/1/260
f 636/1/261 637/1/261 653/1/261
f 636/1/262 653/1/262 652/1/262
f 637/1/263 638/1/263 654/1/263
f 637/1/264 654/1/264 653/1/264
f 638/1/265 639/1/265 655/1/265
f 638/1/266 655/1/266 654/1/266
f 639/1/267 640/1/267 656/1/267
f 639/1/268 656/1/268 655/1/268
f 640/1/269 641/1/269 657/1/269
f 640/1/270 657/1/270 656/1/270
f 641/1/271 642/1/271 658/1/271
f 641/1/272 658/1/272 657/1/272
f 642/1/273 643/1/273 659/1/273
f 642/1/274 659/1/274 658/1/274
f 643/1/275 629/1/275 645/1/275
f 643/1/276 645/1/276 659/1/276
f 660/1/277 645/1/277 644/1/277 661/1/277
f 662/1/278 645/1/278 660/1/278
f 663/1/279 644/1/279 646/1/279 664/1/279
f 661/1/280 644/1/280 663/1/280
f 665/1/281 646/1/281 647/1/281 666/1/281
f 664/1/282 646/1/282 665/1/282
f 667/1/283 647/1/283 648/1/283 668/1/283
f 666/1/284 647/1/284 667/1/284
f 669/1/285 648/1/285 649/1/285 670/1/285
f 668/1/286 648/1/286 669/1/286
f 671/1/287 649/1/287 650/1/287 672/1/287
f 670/1/288 649/1/288 671/1/288
f 673/1/289 650/1/289 651/1/289 674/1/289
f 672/1/290 650/1/290 673/1/290
f 675/1/291 651/1/291 652/1/291 676/1/291
f 674/1/291 651/1/291 675/1/291
f 677/1/292 652/1/292 653/1/292 678/1/292
f 676/1/293 652/1/293 677/1/293
f 679/1/294 653/1/294 654/1/294 680/1/294
f 678/1/295 653/1/295 679/1/295
f 681/1/296 654/1/296 655/1/296 682/1/296
f 680/1/297 654/1/297 681/1/297
f 683/1/298 655/1/298 656/1/298 684/1/298
f 682/1/299 655/1/299 683/1/299
f 685/1/300 656/1/300 657/1/300 686/1/300
f 684/1/301 656/1/301 685/1/301
f 687/1/302 657/1/302 658/1/302 688/1/302
f 686/1/303 657/1/303 687/1/303
f 689/1/304 658/1/304 659/1/304 690/1/304
f 688/1/305 658/1/305 689/1/305
f 691/1/306 659/1/306 645/1/306 662/1/306
f 690/1/306 659/1/306 691/1/306
f 532/1/307 562/1/307 560/1/307
f 560/1/308 558/1/308 556/1/308
f 556/1/309 554/1/309 552/1/309
f 552/1/310 550/1/310 548/1/310
f 548/1/307 546/1/307 544/1/307
f 544/1/308 542/1/308 540/1/308
f 540/1/309 538/1/309 536/1/309
f 536/1/310 533/1/310 532/1/310
f 532/1/311 560/1/311 556/1/311
f 556/1/312 552/1/312 548/1/312
f 548/1/311 544/1/311 540/1/311
f 540/1/312 536/1/312 532/1/312
f 532/1/313 556/1/313 548/1/313
f 548/1/313 540/1/313 532/1/313
