# Authored in Blender; exported by tools-export-modern.py
mtllib materials.mtl
s off
v 0.000000000 0.089329140 0.033718843
v 0.000000000 0.081120729 0.040455341
v 0.010000229 0.081120729 0.040455341
v 0.000000000 0.130415486 0.000000000
v 0.010000229 0.130415486 0.000000000
v 0.000000000 0.000000000 0.083815100
v 0.010000229 0.000000000 0.083815100
v 0.010000229 0.054089340 0.000000000
v 0.010000229 0.000000000 0.000000000
v 0.010000229 0.049147097 0.000000000
v 0.045000076 0.000000000 0.000000000
v 0.045000076 0.007895243 0.000000000
v 0.045000076 0.000000000 0.004558322
v 0.000000000 0.007895243 0.000000000
v 0.000000000 0.000000000 0.004558322
vt 0.500000000 0.500000000
vn 0.000000000 0.634394971 0.773009069
vn -0.000000000 0.471395262 0.881922053
vn 1.000000000 0.000000000 0.000000000
vn -0.000000000 0.500000131 0.866025328
usemtl mat_0
f 1/1/1 2/1/1 3/1/1
f 4/1/1 1/1/1 3/1/1 5/1/1
f 2/1/2 6/1/2 7/1/2 3/1/2
f 5/1/3 3/1/3 8/1/3
f 9/1/3 10/1/3 3/1/3 7/1/3
f 8/1/3 3/1/3 10/1/3
usemtl mat_2
f 11/1/3 12/1/3 13/1/3
f 14/1/4 15/1/4 13/1/4 12/1/4
