# Authored in Blender; exported by tools-export-modern.py
mtllib materials.mtl
s off
v 0.287499905 0.240625143 0.500000000
v 0.260666609 0.240625143 0.296180010
v 0.260666609 0.371875048 0.296180010
v 0.287499905 0.371875048 0.500000000
v 0.181994915 0.240625143 0.106250048
v 0.181994915 0.371875048 0.106250048
v 0.100466472 0.326128508 0.000000000
v 0.100466472 0.240625143 0.000000000
v 0.100466472 0.371875048 0.000000000
v 0.100466501 0.286371714 1.000000000
v 0.100466501 0.240625143 1.000000000
v 0.181994915 0.240625143 0.893749952
v 0.181994915 0.371875048 0.893749952
v 0.100466501 0.371875048 1.000000000
v 0.260666609 0.240625143 0.703819990
v 0.260666609 0.371875048 0.703819990
v 0.142944336 0.371875048 0.327723622
v 0.165625095 0.371875048 0.500000000
v 0.076448202 0.371875048 0.167187452
v 0.000000000 0.371875048 0.040008247
v 0.000000000 0.371875048 0.000000000
v 0.000000000 0.371875048 0.067558391
v 0.061820343 0.371875048 1.000000000
v 0.076448202 0.371875048 0.832812548
v 0.000000000 0.371875048 1.000000000
v 0.000000000 0.371875048 0.932441609
v 0.142944336 0.371875048 0.672276378
v 0.142944336 0.240625143 0.327723622
v 0.165625095 0.240625143 0.500000000
v 0.076448202 0.240625143 0.167187452
v 0.000000000 0.277019831 0.067558391
v 0.000000000 0.240625143 0.067558391
v 0.000000000 0.335480360 0.932441609
v 0.076448202 0.240625143 0.832812548
v 0.000000000 0.240625143 0.932441609
v 0.142944336 0.240625143 0.672276378
v 0.061820339 0.240625143 0.000000000
v 0.000000000 0.240625143 0.000000000
v 0.000000000 0.240625143 0.959991753
v 0.000000000 0.240625143 1.000000000
v 0.092313945 0.230835285 0.000000000
v 0.092512846 0.230492830 0.000294805
v 0.092510014 0.230451947 0.000000000
v 0.000000000 0.259067816 0.088214968
v 0.077967224 0.243185817 0.000000000
v 0.076897868 0.244106384 0.000000000
v 0.000000000 0.265640964 0.076897940
v 0.000000000 0.256400248 0.092807737
v 0.060277425 0.000000000 0.028574338
v 0.060393583 0.000000000 0.016504351
v 0.076897926 0.117870395 0.000000000
v 0.060238988 0.000000000 0.032568692
v 0.043889232 0.000000000 0.000000000
v 0.025901713 0.000000000 0.066905969
v 0.000000000 0.000000000 0.092807705
v 0.000000000 0.254873669 0.000000000
v 0.000000000 0.256567504 0.012097044
v 0.048895662 0.248027270 0.000000000
v 0.092510013 0.230451931 1.000000000
v 0.092512846 0.230492830 0.999705076
v 0.092313867 0.230835419 1.000000000
v 0.000000000 0.262786392 0.918187289
v 0.000000000 0.256400248 0.907192230
v 0.000000000 0.265640964 0.923102060
v 0.076897868 0.244106384 1.000000000
v 0.078591652 0.130084146 1.000000000
v 0.060355331 0.000000000 0.979520468
v 0.060238988 0.000000000 0.967431219
v 0.076897845 0.117870020 1.000000000
v 0.060393524 0.000000000 0.983495694
v 0.043889218 0.000000000 1.000000000
v 0.000000000 0.000000000 0.907192230
v 0.000000000 0.254873669 1.000000000
v 0.204765558 0.371875048 0.500000000
v 0.191223621 0.371875048 0.362507105
v 0.212601662 0.493750095 0.358254671
v 0.226562500 0.493750095 0.500000000
v 0.151118517 0.371875048 0.230297804
v 0.171256065 0.493750095 0.221956611
v 0.085991144 0.371875048 0.108453155
v 0.104114532 0.493750095 0.096343517
v 0.021888604 0.480030615 0.000000000
v 0.000000000 0.371875048 0.003672785
v 0.000000000 0.384965971 0.000000000
v 0.025047489 0.493750095 0.000000000
v 0.000000000 0.373782711 0.996862425
v 0.000000000 0.371875048 0.996327215
v 0.085991144 0.371875048 0.891546845
v 0.104114532 0.493750095 0.903656483
v 0.000000000 0.384965971 1.000000000
v 0.025047489 0.493750095 1.000000000
v 0.151118517 0.371875048 0.769702196
v 0.171256065 0.493750095 0.778043389
v 0.191223621 0.371875048 0.637492895
v 0.212601662 0.493750095 0.641745329
v 0.222442909 1.000000000 0.458173513
v 0.212601662 1.000000000 0.358254671
v 0.226562500 1.000000000 0.500000000
v 0.200401323 1.000000000 0.318035574
v 0.171256065 1.000000000 0.221956611
v 0.151443811 1.000000000 0.184890455
v 0.104114532 1.000000000 0.096343517
v 0.025047489 1.000000000 0.000000000
v 0.077451724 1.000000000 0.063854775
v 0.040420038 1.000000000 0.981268487
v 0.025047489 0.708119606 1.000000000
v 0.104114532 1.000000000 0.903656483
v 0.025047489 1.000000000 1.000000000
v 0.123926787 1.000000000 0.866590327
v 0.171256065 1.000000000 0.778043389
v 0.183456404 1.000000000 0.737824293
v 0.212601662 1.000000000 0.641745329
v 0.216721253 1.000000000 0.599918842
v 0.000000000 0.371875048 0.995866795
v 0.000000000 0.371875048 0.004133205
v 0.000000000 0.371875048 0.994347622
v 0.000000000 0.371875048 0.005652378
v 0.000000000 0.371875048 0.704765558
v 0.000000000 0.371875048 0.295234424
v 0.000000000 0.371875048 0.500000000
v 0.235937595 0.540625095 0.500000000
v 0.221796751 0.540625095 0.356425762
v 0.221796751 0.831249952 0.356425762
v 0.235937595 0.831249952 0.500000000
v 0.179917574 0.540625095 0.218368888
v 0.179917574 0.831249952 0.218368888
v 0.111909628 0.540625095 0.091135025
v 0.111909628 0.831249952 0.091135025
v 0.037117124 0.778122994 0.000000000
v 0.037117124 0.540625095 0.000000000
v 0.037117124 0.831249952 0.000000000
v 0.037117164 0.593752180 1.000000000
v 0.037117164 0.540625095 1.000000000
v 0.111909628 0.540625095 0.908864975
v 0.111909628 0.831249952 0.908864975
v 0.037117164 0.831249952 1.000000000
v 0.179917574 0.540625095 0.781631112
v 0.179917574 0.831249952 0.781631112
v 0.221796751 0.540625095 0.643574238
v 0.221796751 0.831249952 0.643574238
v 0.248125076 0.523749828 0.500000000
v 0.233749866 0.523749828 0.354048014
v 0.233749866 0.557499886 0.354048014
v 0.248125076 0.557499886 0.500000000
v 0.191177368 0.523749828 0.213704944
v 0.191177368 0.557499886 0.213704944
v 0.122043133 0.523749828 0.084364057
v 0.122043133 0.557499886 0.084364057
v 0.052807481 0.548865235 0.000000000
v 0.052807481 0.523749828 0.000000000
v 0.052807481 0.557499886 0.000000000
v 0.052807518 0.532384492 1.000000000
v 0.052807518 0.523749828 1.000000000
v 0.122043133 0.523749828 0.915635943
v 0.122043133 0.557499886 0.915635943
v 0.052807518 0.557499886 1.000000000
v 0.191177368 0.523749828 0.786295056
v 0.191177368 0.557499886 0.786295056
v 0.233749866 0.523749828 0.645951986
v 0.233749866 0.557499886 0.645951986
v 0.209843397 0.557499886 0.358803391
v 0.223750114 0.557499886 0.500000000
v 0.168657780 0.557499886 0.223032832
v 0.101776123 0.557499886 0.097905993
v 0.025268416 0.557499886 0.000000000
v 0.021426797 0.557499886 0.000000000
v 0.045635742 0.557499886 1.000000000
v 0.101776123 0.557499886 0.902094007
v 0.021426797 0.557499886 1.000000000
v 0.168657780 0.557499886 0.776967168
v 0.209843397 0.557499886 0.641196609
v 0.209843397 0.523749828 0.358803391
v 0.223750114 0.523749828 0.500000000
v 0.168657780 0.523749828 0.223032832
v 0.101776123 0.523749828 0.097905993
v 0.021426797 0.527371363 0.000000000
v 0.021426797 0.523749828 0.000000000
v 0.021426797 0.553878351 1.000000000
v 0.101776123 0.523749828 0.902094007
v 0.021426797 0.523749828 1.000000000
v 0.168657780 0.523749828 0.776967168
v 0.209843397 0.523749828 0.641196609
v 0.045635716 0.523749828 0.000000000
v 0.025268416 0.523749828 1.000000000
v 0.248125076 0.659687519 0.500000000
v 0.233749866 0.659687519 0.354048014
v 0.233749866 0.693437338 0.354048014
v 0.248125076 0.693437338 0.500000000
v 0.191177368 0.659687519 0.213704944
v 0.191177368 0.693437338 0.213704944
v 0.122043133 0.659687519 0.084364057
v 0.122043133 0.693437338 0.084364057
v 0.052807481 0.684802748 0.000000000
v 0.052807481 0.659687519 0.000000000
v 0.052807481 0.693437338 0.000000000
v 0.052807518 0.668322122 1.000000000
v 0.052807518 0.659687519 1.000000000
v 0.122043133 0.659687519 0.915635943
v 0.122043133 0.693437338 0.915635943
v 0.052807518 0.693437338 1.000000000
v 0.191177368 0.659687519 0.786295056
v 0.191177368 0.693437338 0.786295056
v 0.233749866 0.659687519 0.645951986
v 0.233749866 0.693437338 0.645951986
v 0.209843397 0.693437338 0.358803391
v 0.223750114 0.693437338 0.500000000
v 0.168657780 0.693437338 0.223032832
v 0.101776123 0.693437338 0.097905993
v 0.025268416 0.693437338 0.000000000
v 0.021426797 0.693437338 0.000000000
v 0.045635742 0.693437338 1.000000000
v 0.101776123 0.693437338 0.902094007
v 0.021426797 0.693437338 1.000000000
v 0.168657780 0.693437338 0.776967168
v 0.209843397 0.693437338 0.641196609
v 0.209843397 0.659687519 0.358803391
v 0.223750114 0.659687519 0.500000000
v 0.168657780 0.659687519 0.223032832
v 0.101776123 0.659687519 0.097905993
v 0.021426797 0.663309028 0.000000000
v 0.021426797 0.659687519 0.000000000
v 0.021426797 0.689815829 1.000000000
v 0.101776123 0.659687519 0.902094007
v 0.021426797 0.659687519 1.000000000
v 0.168657780 0.659687519 0.776967168
v 0.209843397 0.659687519 0.641196609
v 0.045635716 0.659687519 0.000000000
v 0.025268416 0.659687519 1.000000000
v 0.248125076 0.814375162 0.500000000
v 0.233749866 0.814375162 0.354048014
v 0.233749866 0.848124981 0.354048014
v 0.248125076 0.848124981 0.500000000
v 0.191177368 0.814375162 0.213704944
v 0.191177368 0.848124981 0.213704944
v 0.122043133 0.814375162 0.084364057
v 0.122043133 0.848124981 0.084364057
v 0.052807481 0.839490391 0.000000000
v 0.052807481 0.814375162 0.000000000
v 0.052807481 0.848124981 0.000000000
v 0.052807518 0.823009765 1.000000000
v 0.052807518 0.814375162 1.000000000
v 0.122043133 0.814375162 0.915635943
v 0.122043133 0.848124981 0.915635943
v 0.052807518 0.848124981 1.000000000
v 0.191177368 0.814375162 0.786295056
v 0.191177368 0.848124981 0.786295056
v 0.233749866 0.814375162 0.645951986
v 0.233749866 0.848124981 0.645951986
v 0.209843397 0.848124981 0.358803391
v 0.223750114 0.848124981 0.500000000
v 0.168657780 0.848124981 0.223032832
v 0.101776123 0.848124981 0.097905993
v 0.025268416 0.848124981 0.000000000
v 0.021426797 0.848124981 0.000000000
v 0.045635742 0.848124981 1.000000000
v 0.101776123 0.848124981 0.902094007
v 0.021426797 0.848124981 1.000000000
v 0.168657780 0.848124981 0.776967168
v 0.209843397 0.848124981 0.641196609
v 0.209843397 0.814375162 0.358803391
v 0.223750114 0.814375162 0.500000000
v 0.168657780 0.814375162 0.223032832
v 0.101776123 0.814375162 0.097905993
v 0.021426797 0.817996671 0.000000000
v 0.021426797 0.814375162 0.000000000
v 0.021426797 0.844503472 1.000000000
v 0.101776123 0.814375162 0.902094007
v 0.021426797 0.814375162 1.000000000
v 0.168657780 0.814375162 0.776967168
v 0.209843397 0.814375162 0.641196609
v 0.045635716 0.814375162 0.000000000
v 0.025268416 0.814375162 1.000000000
v 0.239687443 0.388750076 0.500000000
v 0.225474596 0.388750076 0.355694175
v 0.225474596 0.411250114 0.355694175
v 0.239687443 0.411250114 0.500000000
v 0.183382034 0.388750076 0.216933846
v 0.183382034 0.411250114 0.216933846
v 0.115027666 0.388750076 0.089051723
v 0.115027666 0.411250114 0.089051723
v 0.041944748 0.406625637 0.000000000
v 0.041944748 0.388750076 0.000000000
v 0.041944748 0.411250114 0.000000000
v 0.041944670 0.393374535 1.000000000
v 0.041944670 0.388750076 1.000000000
v 0.115027666 0.388750076 0.910948277
v 0.115027666 0.411250114 0.910948277
v 0.041944670 0.411250114 1.000000000
v 0.183382034 0.388750076 0.783066154
v 0.183382034 0.411250114 0.783066154
v 0.225474596 0.388750076 0.644305825
v 0.225474596 0.411250114 0.644305825
v 0.205245972 0.411250114 0.359717846
v 0.219062567 0.411250114 0.500000000
v 0.164327145 0.411250114 0.224826694
v 0.097878695 0.411250114 0.100510240
v 0.017694039 0.411250114 0.000000000
v 0.015391854 0.411250114 0.000000000
v 0.036993403 0.411250114 1.000000000
v 0.097878695 0.411250114 0.899489760
v 0.015391764 0.411250114 1.000000000
v 0.164327145 0.411250114 0.775173306
v 0.205245972 0.411250114 0.640282154
v 0.205245972 0.388750076 0.359717846
v 0.219062567 0.388750076 0.500000000
v 0.164327145 0.388750076 0.224826694
v 0.097878695 0.388750076 0.100510240
v 0.015391854 0.390495737 0.000000000
v 0.015391854 0.388750076 0.000000000
v 0.015391764 0.409504476 1.000000000
v 0.097878695 0.388750076 0.899489760
v 0.015391764 0.388750076 1.000000000
v 0.164327145 0.388750076 0.775173306
v 0.205245972 0.388750076 0.640282154
v 0.036993462 0.388750076 0.000000000
v 0.017693920 0.388750076 1.000000000
v 0.159460783 0.453437328 0.799815178
v 0.161964655 0.453437328 0.798942327
v 0.161149025 0.451562405 0.800630689
v 0.144780636 0.453437328 0.830205202
v 0.146468878 0.451562405 0.831020832
v 0.145653486 0.453437328 0.832709193
v 0.165884733 0.453437328 0.840399742
v 0.163380861 0.453437328 0.841272593
v 0.164196491 0.451562405 0.839584231
v 0.179692030 0.453437328 0.807505727
v 0.180564880 0.453437328 0.810009718
v 0.178876638 0.451562405 0.809194088
v 0.160226658 1.000000000 0.799548194
v 0.159460783 1.000000000 0.799815178
v 0.161964655 1.000000000 0.798942327
v 0.145386502 1.000000000 0.831943282
v 0.145653486 1.000000000 0.832709193
v 0.144780636 1.000000000 0.830205202
v 0.165118858 1.000000000 0.840666726
v 0.165884733 1.000000000 0.840399742
v 0.163380861 1.000000000 0.841272593
v 0.179959014 1.000000000 0.808271638
v 0.179692030 1.000000000 0.807505727
v 0.180564880 1.000000000 0.810009718
v 0.154970475 1.000000000 0.809110764
v 0.174269647 1.000000000 0.804886386
v 0.151075869 1.000000000 0.835328534
v 0.170375041 1.000000000 0.831104156
vt 0.062500000 0.003906250
vt 0.077665180 0.003906250
vt 0.077665180 0.121093750
vt 0.062500000 0.121093750
vt 0.091796875 0.003906250
vt 0.091796875 0.121093750
vt 0.099702384 0.080248595
vt 0.099702384 0.003906250
vt 0.099702384 0.121093750
vt 0.025297620 0.044751433
vt 0.025297620 0.003906250
vt 0.033203125 0.003906250
vt 0.033203125 0.121093750
vt 0.025297620 0.121093750
vt 0.047334824 0.003906250
vt 0.047334824 0.121093750
vt 0.121093750 0.062500000
vt 0.119097218 0.077665180
vt 0.110338122 0.075318187
vt 0.112025671 0.062500000
vt 0.113243677 0.091796875
vt 0.105390489 0.087262832
vt 0.099702387 0.096725575
vt 0.107177566 0.099702384
vt 0.099702380 0.099702380
vt 0.099702384 0.094675711
vt 0.104302107 0.025297623
vt 0.107177568 0.025297620
vt 0.113243677 0.033203125
vt 0.105390489 0.037737165
vt 0.099702384 0.025297614
vt 0.099702384 0.030324285
vt 0.119097218 0.047334824
vt 0.110338122 0.049681813
vt 0.075318187 0.121093750
vt 0.075318187 0.003906250
vt 0.087262832 0.121093750
vt 0.087262832 0.003906250
vt 0.094675711 0.036401531
vt 0.094675711 0.121093750
vt 0.094675711 0.003906250
vt 0.030324285 0.088598469
vt 0.030324285 0.121093750
vt 0.037737165 0.121093750
vt 0.037737165 0.003906250
vt 0.030324285 0.003906250
vt 0.049681813 0.121093750
vt 0.049681813 0.003906250
vt 0.104302106 0.099702381
vt 0.099702384 0.099702384
vt 0.099702387 0.028274422
vt 0.099702378 0.025297620
vt 0.010336075 0.119770330
vt 0.010298293 0.119727947
vt 0.010319647 0.119727947
vt 0.084914467 0.120122215
vt 0.018451334 0.121001949
vt 0.018968285 0.121093750
vt 0.081223320 0.121093750
vt 0.086078644 0.119727941
vt 0.010582108 0.091268860
vt 0.011439733 0.091472074
vt 0.011439733 0.106059992
vt 0.009900014 0.091514792
vt 0.032818587 0.091472074
vt 0.037363809 0.090056430
vt 0.057780202 0.089192585
vt 0.062841447 0.050528432
vt 0.055247371 0.055634645
vt 0.031796227 0.029889366
vt 0.013950894 0.080828290
vt 0.013950895 0.017838687
vt 0.120905762 0.119727947
vt 0.121093750 0.119727947
vt 0.120781927 0.119770346
vt 0.080556994 0.118463107
vt 0.010298293 0.119727939
vt 0.087238550 0.119727945
vt 0.010298293 0.119770339
vt 0.078977653 0.118934673
vt 0.017640838 0.120862922
vt 0.112118476 0.107899536
vt 0.113534715 0.092234332
vt 0.121093750 0.092036755
vt 0.111049108 0.106019170
vt 0.111049108 0.091387779
vt 0.089670313 0.091461064
vt 0.010298293 0.091201608
vt 0.058506973 0.089192592
vt 0.062841390 0.050528432
vt 0.111115066 0.018069518
vt 0.111665992 0.082987378
vt 0.073588140 0.003906250
vt 0.073931076 0.011058546
vt 0.062500000 0.011058546
vt 0.084250174 0.003906250
vt 0.084922858 0.011058546
vt 0.094076358 0.003906250
vt 0.095052943 0.011058546
vt 0.102822584 0.010253411
vt 0.102526392 0.003906250
vt 0.102822585 0.004674497
vt 0.102822584 0.011058546
vt 0.022430447 0.004018202
vt 0.022473610 0.003906250
vt 0.030923644 0.003906250
vt 0.029947056 0.011058546
vt 0.022177417 0.004674497
vt 0.022177416 0.011058546
vt 0.040749829 0.003906250
vt 0.040077142 0.011058546
vt 0.051411860 0.003906250
vt 0.051068928 0.011058546
vt 0.065873104 0.040768047
vt 0.073931076 0.040768047
vt 0.062500000 0.040768047
vt 0.077174552 0.040768047
vt 0.084922858 0.040768047
vt 0.087912063 0.040768047
vt 0.095052943 0.040768047
vt 0.102822584 0.040768047
vt 0.097673003 0.040768047
vt 0.023688022 0.040768047
vt 0.022177416 0.023638916
vt 0.029947056 0.040768047
vt 0.022177416 0.040768047
vt 0.032936261 0.040768047
vt 0.040077142 0.040768047
vt 0.043320620 0.040768047
vt 0.051068928 0.040768047
vt 0.054442031 0.040768047
vt 0.119335942 0.062500000
vt 0.118243851 0.051411860
vt 0.115009561 0.040749829
vt 0.102822594 0.022510740
vt 0.109757356 0.030923644
vt 0.102822594 0.022473610
vt 0.102822594 0.102489262
vt 0.102822594 0.102526392
vt 0.109757356 0.094076358
vt 0.115009561 0.084250174
vt 0.118243851 0.073588140
vt 0.102822594 0.022633254
vt 0.102822594 0.102366748
vt 0.102822588 0.045986647
vt 0.102822588 0.079013354
vt 0.102822588 0.062500000
vt 0.003906250 0.253906250
vt 0.007568359 0.253906250
vt 0.007568359 0.371093750
vt 0.003906250 0.371093750
vt 0.011230469 0.253906250
vt 0.011230469 0.371093750
vt 0.014892578 0.253906250
vt 0.014892578 0.371093750
vt 0.017885245 0.349671579
vt 0.017885245 0.253906250
vt 0.017885245 0.371093750
vt 0.107114757 0.275328472
vt 0.107114757 0.253906250
vt 0.110107422 0.253906250
vt 0.110107422 0.371093750
vt 0.107114757 0.371093750
vt 0.113769531 0.253906250
vt 0.113769531 0.371093750
vt 0.117431641 0.253906250
vt 0.117431641 0.371093750
vt 0.121093750 0.253906250
vt 0.121093750 0.371093750
vt 0.073931076 0.003906250
vt 0.073931076 0.121093750
vt 0.084922858 0.003906250
vt 0.084922858 0.121093750
vt 0.095052943 0.003906250
vt 0.095052943 0.121093750
vt 0.101660401 0.091112374
vt 0.101660401 0.003906250
vt 0.101660401 0.121093750
vt 0.023339601 0.033887672
vt 0.023339601 0.003906250
vt 0.029947056 0.003906250
vt 0.029947056 0.121093750
vt 0.023339601 0.121093750
vt 0.040077142 0.003906250
vt 0.040077142 0.121093750
vt 0.051068928 0.003906250
vt 0.051068928 0.121093750
vt 0.119967885 0.073931076
vt 0.118095502 0.073558636
vt 0.119184680 0.062500000
vt 0.116633564 0.084922858
vt 0.114869818 0.084192291
vt 0.111218922 0.095052943
vt 0.109631591 0.093992323
vt 0.103639445 0.101660402
vt 0.105796322 0.101660401
vt 0.103338566 0.101660402
vt 0.105234625 0.023339603
vt 0.105796325 0.023339601
vt 0.111218922 0.029947056
vt 0.109631591 0.031007677
vt 0.103338566 0.023339600
vt 0.116633564 0.040077142
vt 0.114869818 0.040807713
vt 0.119967885 0.051068928
vt 0.118095502 0.051441368
vt 0.073558636 0.121093750
vt 0.073558636 0.003906250
vt 0.084192291 0.121093750
vt 0.084192291 0.003906250
vt 0.093992323 0.121093750
vt 0.093992323 0.003906250
vt 0.101660402 0.016481001
vt 0.101660402 0.121093750
vt 0.101660402 0.003906250
vt 0.023339600 0.108518999
vt 0.023339600 0.121093750
vt 0.031007677 0.121093750
vt 0.031007677 0.003906250
vt 0.023339600 0.003906250
vt 0.040807713 0.121093750
vt 0.040807713 0.003906250
vt 0.051441368 0.121093750
vt 0.051441368 0.003906250
vt 0.105234623 0.101660400
vt 0.103639445 0.023339599
vt 0.102107100 0.097007970
vt 0.102107100 0.003906250
vt 0.102107100 0.121093750
vt 0.022892893 0.027991931
vt 0.022892893 0.003906250
vt 0.029947057 0.003906250
vt 0.029947057 0.121093750
vt 0.022892893 0.121093750
vt 0.118365489 0.073612340
vt 0.119459957 0.062500000
vt 0.115124144 0.084297635
vt 0.109860480 0.094145261
vt 0.103508727 0.102107100
vt 0.105429726 0.102107100
vt 0.103326361 0.102107099
vt 0.105037509 0.022892893
vt 0.105429720 0.022892893
vt 0.111218922 0.029947057
vt 0.109860480 0.030854739
vt 0.103326354 0.022892894
vt 0.115124144 0.040702369
vt 0.118365489 0.051387664
vt 0.073612340 0.121093750
vt 0.073612340 0.003906250
vt 0.084297635 0.121093750
vt 0.084297635 0.003906250
vt 0.094145261 0.121093750
vt 0.094145261 0.003906250
vt 0.102107099 0.012998218
vt 0.102107099 0.121093750
vt 0.102107099 0.003906250
vt 0.022892894 0.112001900
vt 0.022892894 0.121093750
vt 0.030854739 0.121093750
vt 0.030854739 0.003906250
vt 0.022892894 0.003906250
vt 0.040702369 0.121093750
vt 0.040702369 0.003906250
vt 0.051387664 0.121093750
vt 0.051387664 0.003906250
vt 0.105037514 0.102107099
vt 0.103508717 0.022892894
vt 0.008300781 0.004028958
vt 0.010937502 0.006342031
vt 0.010644533 0.010937501
vt 0.115234375 0.003998281
vt 0.115234375 0.013281251
vt 0.121093750 0.010197157
vt 0.115234375 0.004028958
vt 0.114843749 0.004028959
vt 0.115234368 0.003906250
vt 0.111718744 0.004028958
vt 0.121093750 0.004028961
vt 0.111718737 0.003906250
vt 0.003906250 0.111718729
vt 0.009765625 0.111718759
vt 0.115234375 0.111718759
vt 0.009765632 0.121093743
vt 0.115234368 0.121093750
vt 0.121093750 0.111718737
vt 0.009824189 0.039798764
vt 0.008300782 0.039798762
vt 0.011654399 0.041404323
vt 0.119301506 0.044080257
vt 0.121093750 0.044080255
vt 0.115234375 0.039777470
vt 0.114875927 0.039798762
vt 0.115234375 0.039798764
vt 0.114604784 0.039798762
vt 0.114586336 0.039798762
vt 0.111718746 0.039798764
vt 0.121093750 0.039798763
vt 0.041009226 0.039798764
vt 0.081609055 0.039798764
vt 0.044107840 0.039798762
vt 0.013281250 0.004028958
vt 0.013281251 0.039798764
vt 0.082973991 0.039798764
vt 0.009765625 0.004028958
vt 0.009765625 0.039798764
vn 0.991444934 0.000000000 -0.130525643
vn 0.923879313 0.000000000 -0.382683962
vn 0.793353650 0.000000000 -0.608761026
vn 0.793353757 0.000000000 0.608760886
vn 0.923879313 0.000000000 0.382683962
vn 0.991444934 0.000000000 0.130525643
vn 0.000000000 1.000000000 0.000000000
vn -0.991444754 0.000000000 0.130527007
vn -0.923879787 0.000000000 0.382682818
vn -0.793352823 0.000000000 0.608762103
vn -0.793352823 0.000000000 -0.608762103
vn -0.923879787 0.000000000 -0.382682818
vn -0.991444754 0.000000000 -0.130527007
vn 0.000000000 -1.000000000 -0.000000000
vn 0.888022055 0.454204490 -0.071520001
vn 0.597124751 0.693636633 0.402877468
vn 0.990476310 -0.137352900 0.009532065
vn 0.990476302 -0.137353029 0.009531008
vn 0.693638131 -0.194248005 -0.693638131
vn 0.707106793 0.000000088 0.707106769
vn 0.707107099 -0.000000089 0.707106463
vn 0.137353558 0.980952598 -0.137353558
vn 0.888022134 0.454204464 0.071519187
vn 0.597124569 0.693636683 -0.402877649
vn 0.597123535 0.693638726 -0.402875665
vn 0.990476311 -0.137352899 -0.009531957
vn 0.990476124 -0.137355331 -0.009516343
vn 0.693638100 -0.194248220 0.693638100
vn 0.707106781 0.000000000 -0.707106781
vn 0.137353558 0.980952598 0.137353558
vn 0.979786540 -0.175230950 -0.096501041
vn 0.979786395 -0.175231496 -0.096501518
vn 0.942134447 -0.175229690 -0.285792301
vn 0.942133860 -0.175231055 -0.285793401
vn 0.868275541 -0.175230434 -0.464103308
vn 0.868276001 -0.175229640 -0.464102747
vn 0.761049459 -0.175231396 -0.624578001
vn 0.761050161 -0.175230402 -0.624577424
vn 0.761049598 -0.175230387 0.624578115
vn 0.761050026 -0.175231381 0.624577314
vn 0.868275667 -0.175229628 0.464103375
vn 0.868275878 -0.175230422 0.464102681
vn 0.942134211 -0.175231075 0.285792230
vn 0.942134088 -0.175229711 0.285793470
vn 0.979786441 -0.175231505 0.096501031
vn 0.979786490 -0.175230959 0.096501528
vn 0.995184629 0.000000000 -0.098018127
vn 0.956940274 0.000000000 -0.290284881
vn 0.881921452 0.000000000 -0.471396386
vn 0.773010603 0.000000000 -0.634393101
vn 0.773010603 0.000000000 0.634393101
vn 0.881921452 0.000000000 0.471396386
vn 0.956940274 0.000000000 0.290284881
vn 0.995184629 0.000000000 0.098018127
vn 0.995184716 0.000000000 -0.098017251
vn 0.956940178 0.000000000 -0.290285199
vn 0.881921180 0.000000000 -0.471396896
vn 0.773010780 0.000000000 -0.634392887
vn 0.773010946 0.000000000 0.634392684
vn 0.881921180 0.000000000 0.471396896
vn 0.956940178 0.000000000 0.290285199
vn 0.995184716 0.000000000 0.098017251
vn 0.995184598 0.000000000 -0.098018449
vn 0.956940538 0.000000000 -0.290284012
vn 0.881921007 0.000000000 -0.471397219
vn 0.773011084 0.000000000 -0.634392516
vn 0.773011247 0.000000000 0.634392317
vn 0.881921007 0.000000000 0.471397219
vn 0.956940538 0.000000000 0.290284012
vn 0.995184598 0.000000000 0.098018449
vn -0.995184682 0.000000000 0.098017595
vn -0.956940202 0.000000000 0.290285120
vn -0.881921358 0.000000000 0.471396561
vn -0.773010634 0.000000000 0.634393064
vn -0.773010634 0.000000000 -0.634393064
vn -0.881921358 0.000000000 -0.471396561
vn -0.956940202 0.000000000 -0.290285120
vn -0.995184682 0.000000000 -0.098017595
vn 0.995184751 0.000000000 -0.098016891
vn 0.956940190 0.000000000 -0.290285159
vn 0.881921409 0.000000000 -0.471396465
vn 0.773010208 0.000000000 -0.634393583
vn 0.773009877 0.000000000 0.634393986
vn 0.881921409 0.000000000 0.471396465
vn 0.956940190 0.000000000 0.290285159
vn 0.995184751 0.000000000 0.098016891
vn -0.995184721 0.000000000 0.098017203
vn -0.956940250 0.000000000 0.290284959
vn -0.881921497 0.000000000 0.471396301
vn -0.773009630 0.000000000 0.634394288
vn -0.773009289 0.000000000 -0.634394702
vn -0.881921497 0.000000000 -0.471396301
vn -0.956940250 0.000000000 -0.290284959
vn -0.995184721 0.000000000 -0.098017203
vn -0.268767425 -0.577354332 -0.770990303
vn -0.771012297 -0.577327347 0.268762297
vn 0.268767425 -0.577354332 0.770990303
vn 0.771012297 -0.577327347 -0.268762297
vn -0.636708608 -0.707110514 -0.307566041
vn -0.636716940 -0.707100736 -0.307571272
vn 0.307568098 -0.707111200 -0.636706853
vn 0.307556239 -0.707130754 -0.636690864
vn 0.636708608 -0.707110514 0.307566041
vn 0.636716940 -0.707100736 0.307571272
vn -0.307556239 -0.707130754 0.636690864
vn -0.307568098 -0.707111200 0.636706853
vn -0.329172684 0.000000000 -0.944269741
vn -0.944274612 0.000000000 0.329158710
vn 0.329172684 -0.000000000 0.944269741
vn 0.944274612 0.000000000 -0.329158710
vn -0.900446034 0.000000000 -0.434967745
vn 0.434969694 0.000000000 -0.900445093
vn -0.434969694 0.000000000 0.900445093
vn 0.900446034 0.000000000 0.434967745
usemtl mat_2
f 1/1/1 2/2/1 3/3/1
f 1/1/1 3/3/1 4/4/1
f 2/2/2 5/5/2 6/6/2
f 2/2/2 6/6/2 3/3/2
f 7/7/3 5/5/3 8/8/3
f 5/5/3 7/7/3 9/9/3 6/6/3
f 10/10/4 11/11/4 12/12/4 13/13/4
f 10/10/4 13/13/4 14/14/4
f 12/12/5 15/15/5 16/16/5
f 12/12/5 16/16/5 13/13/5
f 15/15/6 1/1/6 4/4/6
f 15/15/6 4/4/6 16/16/6
f 4/17/7 3/18/7 17/19/7
f 4/17/7 17/19/7 18/20/7
f 3/18/7 6/21/7 19/22/7
f 3/18/7 19/22/7 17/19/7
f 20/23/7 6/21/7 9/24/7 21/25/7
f 6/21/7 20/23/7 22/26/7 19/22/7
f 23/27/7 14/28/7 13/29/7 24/30/7
f 25/31/7 23/27/7 24/30/7
f 25/31/7 24/30/7 26/32/7
f 13/29/7 16/33/7 27/34/7
f 13/29/7 27/34/7 24/30/7
f 16/33/7 4/17/7 18/20/7
f 16/33/7 18/20/7 27/34/7
f 18/4/8 17/35/8 28/36/8
f 18/4/8 28/36/8 29/1/8
f 17/35/9 19/37/9 30/38/9
f 17/35/9 30/38/9 28/36/9
f 31/39/10 19/37/10 22/40/10
f 19/37/10 31/39/10 32/41/10 30/38/10
f 33/42/11 26/43/11 24/44/11 34/45/11
f 33/42/11 34/45/11 35/46/11
f 24/44/12 27/47/12 36/48/12
f 24/44/12 36/48/12 34/45/12
f 27/47/13 18/4/13 29/1/13
f 27/47/13 29/1/13 36/48/13
f 29/20/14 28/19/14 2/18/14
f 29/20/14 2/18/14 1/17/14
f 28/19/14 30/22/14 5/21/14
f 28/19/14 5/21/14 2/18/14
f 37/49/14 30/22/14 32/26/14 38/50/14
f 30/22/14 37/49/14 8/24/14 5/21/14
f 39/51/14 35/32/14 34/30/14 12/29/14
f 40/52/14 39/51/14 12/29/14
f 40/52/14 12/29/14 11/28/14
f 34/30/14 36/34/14 15/33/14
f 34/30/14 15/33/14 12/29/14
f 36/34/14 29/20/14 1/17/14
f 36/34/14 1/17/14 15/33/14
f 41/53/15 42/54/15 43/55/15
f 44/56/16 45/57/16 46/58/16 47/59/16
f 41/53/16 45/57/16 44/56/16
f 41/53/16 44/56/16 48/60/16
f 41/53/16 48/60/16 42/54/16
f 49/61/17 50/62/17 51/63/17
f 49/61/17 51/63/17 43/55/17
f 49/61/17 43/55/17 42/54/17
f 49/61/18 42/54/18 52/64/18
f 51/63/19 50/62/19 53/65/19
f 54/66/20 52/64/20 42/54/20
f 55/67/21 54/66/21 42/54/21 48/60/21
f 56/68/22 57/69/22 58/70/22
f 47/71/22 46/72/22 58/70/22 57/69/22
f 59/73/23 60/74/23 61/75/23
f 62/76/24 60/77/24 63/78/24
f 61/79/25 60/77/25 62/76/25
f 61/79/25 62/76/25 64/80/25
f 61/79/25 64/80/25 65/81/25
f 66/82/26 67/83/26 68/84/26
f 66/82/26 68/84/26 60/74/26
f 66/82/26 60/74/26 59/73/26
f 67/83/27 66/82/27 69/85/27 70/86/27
f 71/87/28 70/86/28 69/85/28
f 68/88/29 72/89/29 63/78/29 60/77/29
f 73/90/30 65/91/30 64/92/30
f 74/1/31 75/93/31 76/94/31
f 74/1/32 76/94/32 77/95/32
f 75/93/33 78/96/33 79/97/33
f 75/93/34 79/97/34 76/94/34
f 78/96/35 80/98/35 81/99/35
f 78/96/36 81/99/36 79/97/36
f 82/100/37 80/98/37 83/101/37 84/102/37
f 80/98/38 82/100/38 85/103/38 81/99/38
f 86/104/39 87/105/39 88/106/39 89/107/39
f 90/108/40 86/104/40 89/107/40 91/109/40
f 88/106/41 92/110/41 93/111/41
f 88/106/42 93/111/42 89/107/42
f 92/110/43 94/112/43 95/113/43
f 92/110/44 95/113/44 93/111/44
f 94/112/45 74/1/45 77/95/45
f 94/112/46 77/95/46 95/113/46
f 96/114/47 77/95/47 76/94/47 97/115/47
f 98/116/47 77/95/47 96/114/47
f 99/117/48 76/94/48 79/97/48 100/118/48
f 97/115/48 76/94/48 99/117/48
f 101/119/49 79/97/49 81/99/49 102/120/49
f 100/118/49 79/97/49 101/119/49
f 103/121/50 104/122/50 81/99/50 85/103/50
f 102/120/50 81/99/50 104/122/50
f 105/123/51 106/124/51 91/109/51
f 105/123/51 91/109/51 89/107/51
f 105/123/51 89/107/51 107/125/51
f 108/126/51 106/124/51 105/123/51
f 109/127/52 89/107/52 93/111/52 110/128/52
f 107/125/52 89/107/52 109/127/52
f 111/129/53 93/111/53 95/113/53 112/130/53
f 110/128/53 93/111/53 111/129/53
f 113/131/54 95/113/54 77/95/54 98/116/54
f 112/130/54 95/113/54 113/131/54
f 74/132/14 94/133/14 92/134/14
f 114/135/14 92/134/14 88/136/14 87/137/14
f 115/138/14 83/139/14 80/140/14 78/141/14
f 78/141/14 75/142/14 74/132/14
f 116/143/14 74/132/14 92/134/14 114/135/14
f 117/144/14 115/138/14 78/141/14 74/132/14
f 118/145/14 74/132/14 116/143/14
f 119/146/14 117/144/14 74/132/14
f 120/147/14 74/132/14 118/145/14
f 120/147/14 119/146/14 74/132/14
usemtl mat_3
f 121/148/55 122/149/55 123/150/55
f 121/148/55 123/150/55 124/151/55
f 122/149/56 125/152/56 126/153/56
f 122/149/56 126/153/56 123/150/56
f 125/152/57 127/154/57 128/155/57
f 125/152/57 128/155/57 126/153/57
f 129/156/58 127/154/58 130/157/58
f 127/154/58 129/156/58 131/158/58 128/155/58
f 132/159/59 133/160/59 134/161/59 135/162/59
f 132/159/59 135/162/59 136/163/59
f 134/161/60 137/164/60 138/165/60
f 134/161/60 138/165/60 135/162/60
f 137/164/61 139/166/61 140/167/61
f 137/164/61 140/167/61 138/165/61
f 139/166/62 121/168/62 124/169/62
f 139/166/62 124/169/62 140/167/62
usemtl mat_2
f 141/1/63 142/170/63 143/171/63
f 141/1/63 143/171/63 144/4/63
f 142/170/64 145/172/64 146/173/64
f 142/170/64 146/173/64 143/171/64
f 145/172/65 147/174/65 148/175/65
f 145/172/65 148/175/65 146/173/65
f 149/176/66 147/174/66 150/177/66
f 147/174/66 149/176/66 151/178/66 148/175/66
f 152/179/67 153/180/67 154/181/67 155/182/67
f 152/179/67 155/182/67 156/183/67
f 154/181/68 157/184/68 158/185/68
f 154/181/68 158/185/68 155/182/68
f 157/184/69 159/186/69 160/187/69
f 157/184/69 160/187/69 158/185/69
f 159/186/70 141/1/70 144/4/70
f 159/186/70 144/4/70 160/187/70
f 144/17/7 143/188/7 161/189/7
f 144/17/7 161/189/7 162/190/7
f 143/188/7 146/191/7 163/192/7
f 143/188/7 163/192/7 161/189/7
f 146/191/7 148/193/7 164/194/7
f 146/191/7 164/194/7 163/192/7
f 165/195/7 148/193/7 151/196/7
f 148/193/7 165/195/7 166/197/7 164/194/7
f 167/198/7 156/199/7 155/200/7 168/201/7
f 167/198/7 168/201/7 169/202/7
f 155/200/7 158/203/7 170/204/7
f 155/200/7 170/204/7 168/201/7
f 158/203/7 160/205/7 171/206/7
f 158/203/7 171/206/7 170/204/7
f 160/205/7 144/17/7 162/190/7
f 160/205/7 162/190/7 171/206/7
f 162/4/71 161/207/71 172/208/71
f 162/4/71 172/208/71 173/1/71
f 161/207/72 163/209/72 174/210/72
f 161/207/72 174/210/72 172/208/72
f 163/209/73 164/211/73 175/212/73
f 163/209/73 175/212/73 174/210/73
f 176/213/74 164/211/74 166/214/74
f 164/211/74 176/213/74 177/215/74 175/212/74
f 178/216/75 169/217/75 168/218/75 179/219/75
f 178/216/75 179/219/75 180/220/75
f 168/218/76 170/221/76 181/222/76
f 168/218/76 181/222/76 179/219/76
f 170/221/77 171/223/77 182/224/77
f 170/221/77 182/224/77 181/222/77
f 171/223/78 162/4/78 173/1/78
f 171/223/78 173/1/78 182/224/78
f 173/190/14 172/189/14 142/188/14
f 173/190/14 142/188/14 141/17/14
f 172/189/14 174/192/14 145/191/14
f 172/189/14 145/191/14 142/188/14
f 174/192/14 175/194/14 147/193/14
f 174/192/14 147/193/14 145/191/14
f 183/225/14 175/194/14 177/197/14
f 175/194/14 183/225/14 150/196/14 147/193/14
f 184/226/14 180/202/14 179/201/14 154/200/14
f 184/226/14 154/200/14 153/199/14
f 179/201/14 181/204/14 157/203/14
f 179/201/14 157/203/14 154/200/14
f 181/204/14 182/206/14 159/205/14
f 181/204/14 159/205/14 157/203/14
f 182/206/14 173/190/14 141/17/14
f 182/206/14 141/17/14 159/205/14
f 185/1/63 186/170/63 187/171/63
f 185/1/63 187/171/63 188/4/63
f 186/170/64 189/172/64 190/173/64
f 186/170/64 190/173/64 187/171/64
f 189/172/65 191/174/65 192/175/65
f 189/172/65 192/175/65 190/173/65
f 193/176/66 191/174/66 194/177/66
f 191/174/66 193/176/66 195/178/66 192/175/66
f 196/179/67 197/180/67 198/181/67 199/182/67
f 196/179/67 199/182/67 200/183/67
f 198/181/68 201/184/68 202/185/68
f 198/181/68 202/185/68 199/182/68
f 201/184/69 203/186/69 204/187/69
f 201/184/69 204/187/69 202/185/69
f 203/186/70 185/1/70 188/4/70
f 203/186/70 188/4/70 204/187/70
f 188/17/7 187/188/7 205/189/7
f 188/17/7 205/189/7 206/190/7
f 187/188/7 190/191/7 207/192/7
f 187/188/7 207/192/7 205/189/7
f 190/191/7 192/193/7 208/194/7
f 190/191/7 208/194/7 207/192/7
f 209/195/7 192/193/7 195/196/7
f 192/193/7 209/195/7 210/197/7 208/194/7
f 211/198/7 200/199/7 199/200/7 212/201/7
f 211/198/7 212/201/7 213/202/7
f 199/200/7 202/203/7 214/204/7
f 199/200/7 214/204/7 212/201/7
f 202/203/7 204/205/7 215/206/7
f 202/203/7 215/206/7 214/204/7
f 204/205/7 188/17/7 206/190/7
f 204/205/7 206/190/7 215/206/7
f 206/4/71 205/207/71 216/208/71
f 206/4/71 216/208/71 217/1/71
f 205/207/72 207/209/72 218/210/72
f 205/207/72 218/210/72 216/208/72
f 207/209/73 208/211/73 219/212/73
f 207/209/73 219/212/73 218/210/73
f 220/213/74 208/211/74 210/214/74
f 208/211/74 220/213/74 221/215/74 219/212/74
f 222/216/75 213/217/75 212/218/75 223/219/75
f 222/216/75 223/219/75 224/220/75
f 212/218/76 214/221/76 225/222/76
f 212/218/76 225/222/76 223/219/76
f 214/221/77 215/223/77 226/224/77
f 214/221/77 226/224/77 225/222/77
f 215/223/78 206/4/78 217/1/78
f 215/223/78 217/1/78 226/224/78
f 217/190/14 216/189/14 186/188/14
f 217/190/14 186/188/14 185/17/14
f 216/189/14 218/192/14 189/191/14
f 216/189/14 189/191/14 186/188/14
f 218/192/14 219/194/14 191/193/14
f 218/192/14 191/193/14 189/191/14
f 227/225/14 219/194/14 221/197/14
f 219/194/14 227/225/14 194/196/14 191/193/14
f 228/226/14 224/202/14 223/201/14 198/200/14
f 228/226/14 198/200/14 197/199/14
f 223/201/14 225/204/14 201/203/14
f 223/201/14 201/203/14 198/200/14
f 225/204/14 226/206/14 203/205/14
f 225/204/14 203/205/14 201/203/14
f 226/206/14 217/190/14 185/17/14
f 226/206/14 185/17/14 203/205/14
f 229/1/63 230/170/63 231/171/63
f 229/1/63 231/171/63 232/4/63
f 230/170/64 233/172/64 234/173/64
f 230/170/64 234/173/64 231/171/64
f 233/172/65 235/174/65 236/175/65
f 233/172/65 236/175/65 234/173/65
f 237/176/66 235/174/66 238/177/66
f 235/174/66 237/176/66 239/178/66 236/175/66
f 240/179/67 241/180/67 242/181/67 243/182/67
f 240/179/67 243/182/67 244/183/67
f 242/181/68 245/184/68 246/185/68
f 242/181/68 246/185/68 243/182/68
f 245/184/69 247/186/69 248/187/69
f 245/184/69 248/187/69 246/185/69
f 247/186/70 229/1/70 232/4/70
f 247/186/70 232/4/70 248/187/70
f 232/17/7 231/188/7 249/189/7
f 232/17/7 249/189/7 250/190/7
f 231/188/7 234/191/7 251/192/7
f 231/188/7 251/192/7 249/189/7
f 234/191/7 236/193/7 252/194/7
f 234/191/7 252/194/7 251/192/7
f 253/195/7 236/193/7 239/196/7
f 236/193/7 253/195/7 254/197/7 252/194/7
f 255/198/7 244/199/7 243/200/7 256/201/7
f 255/198/7 256/201/7 257/202/7
f 243/200/7 246/203/7 258/204/7
f 243/200/7 258/204/7 256/201/7
f 246/203/7 248/205/7 259/206/7
f 246/203/7 259/206/7 258/204/7
f 248/205/7 232/17/7 250/190/7
f 248/205/7 250/190/7 259/206/7
f 250/4/71 249/207/71 260/208/71
f 250/4/71 260/208/71 261/1/71
f 249/207/72 251/209/72 262/210/72
f 249/207/72 262/210/72 260/208/72
f 251/209/73 252/211/73 263/212/73
f 251/209/73 263/212/73 262/210/73
f 264/213/74 252/211/74 254/214/74
f 252/211/74 264/213/74 265/215/74 263/212/74
f 266/216/75 257/217/75 256/218/75 267/219/75
f 266/216/75 267/219/75 268/220/75
f 256/218/76 258/221/76 269/222/76
f 256/218/76 269/222/76 267/219/76
f 258/221/77 259/223/77 270/224/77
f 258/221/77 270/224/77 269/222/77
f 259/223/78 250/4/78 261/1/78
f 259/223/78 261/1/78 270/224/78
f 261/190/14 260/189/14 230/188/14
f 261/190/14 230/188/14 229/17/14
f 260/189/14 262/192/14 233/191/14
f 260/189/14 233/191/14 230/188/14
f 262/192/14 263/194/14 235/193/14
f 262/192/14 235/193/14 233/191/14
f 271/225/14 263/194/14 265/197/14
f 263/194/14 271/225/14 238/196/14 235/193/14
f 272/226/14 268/202/14 267/201/14 242/200/14
f 272/226/14 242/200/14 241/199/14
f 267/201/14 269/204/14 245/203/14
f 267/201/14 245/203/14 242/200/14
f 269/204/14 270/206/14 247/205/14
f 269/204/14 247/205/14 245/203/14
f 270/206/14 261/190/14 229/17/14
f 270/206/14 229/17/14 247/205/14
f 273/1/79 274/170/79 275/171/79
f 273/1/79 275/171/79 276/4/79
f 274/170/80 277/172/80 278/173/80
f 274/170/80 278/173/80 275/171/80
f 277/172/81 279/174/81 280/175/81
f 277/172/81 280/175/81 278/173/81
f 281/227/82 279/174/82 282/228/82
f 279/174/82 281/227/82 283/229/82 280/175/82
f 284/230/83 285/231/83 286/232/83 287/233/83
f 284/230/83 287/233/83 288/234/83
f 286/232/84 289/184/84 290/185/84
f 286/232/84 290/185/84 287/233/84
f 289/184/85 291/186/85 292/187/85
f 289/184/85 292/187/85 290/185/85
f 291/186/86 273/1/86 276/4/86
f 291/186/86 276/4/86 292/187/86
f 276/17/7 275/188/7 293/235/7
f 276/17/7 293/235/7 294/236/7
f 275/188/7 278/191/7 295/237/7
f 275/188/7 295/237/7 293/235/7
f 278/191/7 280/193/7 296/238/7
f 278/191/7 296/238/7 295/237/7
f 297/239/7 280/193/7 283/240/7
f 280/193/7 297/239/7 298/241/7 296/238/7
f 299/242/7 288/243/7 287/244/7 300/245/7
f 299/242/7 300/245/7 301/246/7
f 287/244/7 290/203/7 302/247/7
f 287/244/7 302/247/7 300/245/7
f 290/203/7 292/205/7 303/248/7
f 290/203/7 303/248/7 302/247/7
f 292/205/7 276/17/7 294/236/7
f 292/205/7 294/236/7 303/248/7
f 294/4/87 293/249/87 304/250/87
f 294/4/87 304/250/87 305/1/87
f 293/249/88 295/251/88 306/252/88
f 293/249/88 306/252/88 304/250/88
f 295/251/89 296/253/89 307/254/89
f 295/251/89 307/254/89 306/252/89
f 308/255/90 296/253/90 298/256/90
f 296/253/90 308/255/90 309/257/90 307/254/90
f 310/258/91 301/259/91 300/260/91 311/261/91
f 310/258/91 311/261/91 312/262/91
f 300/260/92 302/263/92 313/264/92
f 300/260/92 313/264/92 311/261/92
f 302/263/93 303/265/93 314/266/93
f 302/263/93 314/266/93 313/264/93
f 303/265/94 294/4/94 305/1/94
f 303/265/94 305/1/94 314/266/94
f 305/236/14 304/235/14 274/188/14
f 305/236/14 274/188/14 273/17/14
f 304/235/14 306/237/14 277/191/14
f 304/235/14 277/191/14 274/188/14
f 306/237/14 307/238/14 279/193/14
f 306/237/14 279/193/14 277/191/14
f 315/267/14 307/238/14 309/241/14
f 307/238/14 315/267/14 282/240/14 279/193/14
f 316/268/14 312/246/14 311/245/14 286/244/14
f 316/268/14 286/244/14 285/243/14
f 311/245/14 313/247/14 289/203/14
f 311/245/14 289/203/14 286/244/14
f 313/247/14 314/248/14 291/205/14
f 313/247/14 291/205/14 289/203/14
f 314/248/14 305/236/14 273/17/14
f 314/248/14 273/17/14 291/205/14
f 317/269/95 318/270/95 319/271/95
f 320/272/96 321/273/96 322/274/96
f 323/275/97 324/276/97 325/277/97
f 326/278/98 327/279/98 328/280/98
f 319/271/99 321/273/99 320/272/99
f 319/271/100 320/272/100 317/269/100
f 318/270/101 326/281/101 328/282/101
f 318/270/102 328/282/102 319/271/102
f 325/283/103 328/282/103 327/284/103
f 325/283/104 327/284/104 323/285/104
f 321/273/105 325/283/105 324/286/105
f 321/273/106 324/286/106 322/274/106
f 329/287/107 317/269/107 330/288/107
f 317/269/107 329/287/107 331/289/107 318/270/107
f 332/290/108 322/274/108 333/291/108
f 322/274/108 332/290/108 334/292/108 320/272/108
f 335/293/109 323/275/109 336/294/109
f 323/275/109 335/293/109 337/295/109 324/276/109
f 338/296/110 326/278/110 339/297/110
f 326/278/110 338/296/110 340/298/110 327/279/110
f 341/299/111 317/269/111 320/272/111 334/292/111
f 330/288/111 317/269/111 341/299/111
f 319/271/14 328/282/14 325/283/14
f 319/271/14 325/283/14 321/273/14
f 342/300/112 326/278/112 318/270/112 331/289/112
f 339/297/112 326/278/112 342/300/112
f 343/301/113 322/302/113 324/276/113 337/295/113
f 333/303/113 322/302/113 343/301/113
f 344/304/114 323/275/114 327/305/114 340/306/114
f 336/294/114 323/275/114 344/304/114
