# Authored in Blender; exported by tools-export-modern.py
mtllib materials.mtl
s off
v 0.100466472 0.326128508 1.000000000
v 0.100466472 0.240625143 1.000000000
v 0.056846619 0.240625143 0.943153441
v 0.056846619 0.371875048 0.943153441
v 0.100466472 0.371875048 1.000000000
v 0.000000000 0.286371714 0.899533517
v 0.000000000 0.240625143 0.899533517
v 0.000000000 0.371875048 0.899533517
v 0.000000000 0.371875048 1.000000000
v 0.000000000 0.371875048 0.938179716
v 0.000000000 0.371875048 0.999999942
v 0.061820339 0.240625143 1.000000000
v 0.000000000 0.240625143 1.000000000
v 0.000000000 0.240625143 0.999999942
v 0.092313945 0.230835285 1.000000000
v 0.092510014 0.230451947 1.000000000
v 0.092361450 0.228307486 0.984536469
v 0.086103201 0.241528511 0.990794659
v 0.015463591 0.228307486 0.907638609
v 0.000000000 0.230451931 0.907489930
v 0.000000000 0.230835419 0.907686076
v 0.009205341 0.241528511 0.913896799
v 0.077967224 0.243185817 1.000000000
v 0.076897868 0.244106384 1.000000000
v 0.000000000 0.244106387 0.923102149
v 0.076897926 0.117870395 1.000000000
v 0.000000000 0.130084146 0.921408401
v 0.000000000 0.117869918 0.923102207
v 0.002479597 0.000000000 0.958590365
v 0.000000000 0.000000000 0.956110768
v 0.043889232 0.000000000 1.000000000
v 0.000000000 0.254873669 1.000000000
v 0.048895662 0.248027270 1.000000000
v 0.021888604 0.480030615 1.000000000
v 0.000000000 0.384965971 1.000000000
v 0.000000000 0.384966350 0.999999894
v 0.013757229 0.493750095 0.986242771
v 0.025047489 0.493750095 1.000000000
v 0.000000000 0.493750095 0.974952503
v 0.025047489 1.000000000 1.000000000
v 0.013757229 1.000000000 0.986242771
v 0.000000000 0.708119606 0.974952503
v 0.000000000 1.000000000 0.974952503
v 0.037117124 0.778122994 1.000000000
v 0.037117124 0.540625095 1.000000000
v 0.020386457 0.540625095 0.979613602
v 0.020386457 0.831249952 0.979613602
v 0.037117124 0.831249952 1.000000000
v 0.000000000 0.593752180 0.962882874
v 0.000000000 0.540625095 0.962882874
v 0.000000000 0.831249952 0.962882874
v 0.052807481 0.548865235 1.000000000
v 0.052807481 0.523749828 1.000000000
v 0.029004335 0.523749828 0.970995724
v 0.029004335 0.557499886 0.970995724
v 0.052807481 0.557499886 1.000000000
v 0.000000000 0.532384501 0.947192502
v 0.000000000 0.523749828 0.947192502
v 0.000000000 0.557499886 0.947192502
v 0.025268416 0.557499886 1.000000000
v 0.011768579 0.557499886 0.988231421
v 0.021426797 0.557499886 1.000000000
v 0.000000000 0.557499886 0.954364319
v 0.000000000 0.557499886 0.978573213
v 0.021426797 0.527371363 1.000000000
v 0.011768579 0.523749828 0.988231421
v 0.021426797 0.523749828 1.000000000
v 0.000000000 0.553878355 0.978573213
v 0.000000000 0.523749828 0.978573213
v 0.045635716 0.523749828 1.000000000
v 0.000000000 0.523749828 0.974731568
v 0.052807481 0.684802748 1.000000000
v 0.052807481 0.659687519 1.000000000
v 0.029004335 0.659687519 0.970995724
v 0.029004335 0.693437338 0.970995724
v 0.052807481 0.693437338 1.000000000
v 0.000000000 0.668322131 0.947192502
v 0.000000000 0.659687519 0.947192502
v 0.000000000 0.693437338 0.947192502
v 0.025268416 0.693437338 1.000000000
v 0.011768579 0.693437338 0.988231421
v 0.021426797 0.693437338 1.000000000
v 0.000000000 0.693437338 0.954364319
v 0.000000000 0.693437338 0.978573213
v 0.021426797 0.663309028 1.000000000
v 0.011768579 0.659687519 0.988231421
v 0.021426797 0.659687519 1.000000000
v 0.000000000 0.689815833 0.978573213
v 0.000000000 0.659687519 0.978573213
v 0.045635716 0.659687519 1.000000000
v 0.000000000 0.659687519 0.974731568
v 0.052807481 0.839490391 1.000000000
v 0.052807481 0.814375162 1.000000000
v 0.029004335 0.814375162 0.970995724
v 0.029004335 0.848124981 0.970995724
v 0.052807481 0.848124981 1.000000000
v 0.000000000 0.823009774 0.947192502
v 0.000000000 0.814375162 0.947192502
v 0.000000000 0.848124981 0.947192502
v 0.025268416 0.848124981 1.000000000
v 0.011768579 0.848124981 0.988231421
v 0.021426797 0.848124981 1.000000000
v 0.000000000 0.848124981 0.954364319
v 0.000000000 0.848124981 0.978573213
v 0.021426797 0.817996671 1.000000000
v 0.011768579 0.814375162 0.988231421
v 0.021426797 0.814375162 1.000000000
v 0.000000000 0.844503476 0.978573213
v 0.000000000 0.814375162 0.978573213
v 0.045635716 0.814375162 1.000000000
v 0.000000000 0.814375162 0.974731568
v 0.041944748 0.406625637 1.000000000
v 0.041944748 0.388750076 1.000000000
v 0.023037910 0.388750076 0.976961970
v 0.023037910 0.411250114 0.976961970
v 0.041944748 0.411250114 1.000000000
v 0.000000000 0.393374535 0.958055248
v 0.000000000 0.388750076 0.958055248
v 0.000000000 0.411250114 0.958055248
v 0.017694039 0.411250114 1.000000000
v 0.008453846 0.411250114 0.991546035
v 0.015391854 0.411250114 1.000000000
v 0.000000000 0.411250114 0.963006498
v 0.000000000 0.411250114 0.984608123
v 0.015391854 0.390495737 1.000000000
v 0.008453846 0.388750076 0.991546035
v 0.015391854 0.388750076 1.000000000
v 0.000000000 0.409504474 0.984608123
v 0.000000000 0.388750076 0.984608123
v 0.036993462 0.388750076 1.000000000
v 0.000000000 0.388750076 0.982305976
vt 0.099702384 0.080248595
vt 0.099702384 0.003906250
vt 0.103932038 0.003906250
vt 0.103932038 0.121093750
vt 0.099702384 0.121093750
vt 0.099702381 0.044751433
vt 0.099702381 0.003906250
vt 0.099702381 0.121093750
vt 0.099702384 0.099702380
vt 0.107177566 0.099702384
vt 0.103932038 0.103932038
vt 0.099702378 0.104302107
vt 0.099702381 0.107177568
vt 0.099702384 0.099702384
vt 0.104302106 0.099702381
vt 0.010336075 0.119770330
vt 0.010319647 0.119727947
vt 0.011439733 0.119727947
vt 0.011515824 0.121093750
vt 0.111049108 0.119727947
vt 0.120905762 0.119727947
vt 0.120781927 0.119770346
vt 0.111049116 0.121093750
vt 0.018451334 0.121001949
vt 0.018968285 0.121093750
vt 0.010298293 0.119770339
vt 0.017640845 0.120862922
vt 0.010298297 0.121093750
vt 0.011439733 0.106059992
vt 0.112118476 0.107899536
vt 0.111049108 0.106019158
vt 0.086458414 0.091472074
vt 0.089670351 0.091461064
vt 0.032818587 0.091472074
vt 0.062841447 0.050528432
vt 0.031796227 0.029889366
vt 0.013950895 0.010298293
vt 0.111049116 0.010298295
vt 0.111115066 0.018069525
vt 0.013950895 0.017838687
vt 0.102822584 0.010253411
vt 0.102822585 0.004674497
vt 0.102822593 0.004674519
vt 0.103932038 0.011058546
vt 0.102822584 0.011058546
vt 0.102822584 0.040768047
vt 0.103932038 0.040768047
vt 0.102822584 0.023638916
vt 0.017885245 0.349671579
vt 0.017885245 0.253906250
vt 0.018554688 0.253906250
vt 0.018554688 0.371093750
vt 0.017885245 0.371093750
vt 0.019224132 0.275328472
vt 0.019224132 0.253906250
vt 0.019224132 0.371093750
vt 0.101660401 0.091112374
vt 0.101660401 0.003906250
vt 0.101660401 0.121093750
vt 0.101660395 0.033887703
vt 0.101660395 0.003906250
vt 0.101660395 0.121093750
vt 0.103639445 0.101660402
vt 0.105796322 0.101660401
vt 0.102582127 0.102582127
vt 0.103338566 0.101660402
vt 0.101660398 0.105234624
vt 0.101660395 0.105796327
vt 0.101660403 0.103338565
vt 0.101660402 0.016481001
vt 0.101660402 0.121093750
vt 0.102582127 0.121093750
vt 0.102582127 0.003906250
vt 0.101660402 0.003906250
vt 0.101660403 0.108519013
vt 0.101660403 0.121093750
vt 0.101660403 0.003906250
vt 0.105234623 0.101660400
vt 0.101660401 0.103639447
vt 0.102107100 0.097007970
vt 0.102107100 0.003906250
vt 0.102107100 0.121093750
vt 0.102107107 0.027991931
vt 0.102107107 0.003906250
vt 0.102107107 0.121093750
vt 0.103508727 0.102107100
vt 0.105429726 0.102107100
vt 0.102776773 0.102776773
vt 0.103326361 0.102107099
vt 0.102107105 0.105037510
vt 0.102107107 0.105429720
vt 0.102107107 0.103326355
vt 0.102107099 0.012998218
vt 0.102107099 0.121093750
vt 0.102776773 0.121093750
vt 0.102776773 0.003906250
vt 0.102107099 0.003906250
vt 0.102107107 0.112001890
vt 0.105037514 0.102107099
vt 0.102107108 0.103508717
vn 0.793353650 0.000000000 -0.608761026
vn 0.608761251 0.000000000 -0.793353477
vn 0.000000000 1.000000000 0.000000000
vn 0.000000000 -1.000000000 0.000000000
vn 0.888022055 0.454204490 -0.071520001
vn 0.071525777 0.454203550 -0.888022071
vn 0.597124751 0.693636633 0.402877468
vn 0.587599813 0.556284927 -0.587599813
vn -0.402874779 0.693640404 -0.597122183
vn 0.990476310 -0.137352900 0.009532065
vn -0.009524615 -0.137353979 -0.990476232
vn -0.009523598 -0.137354138 -0.990476220
vn 0.693638131 -0.194248005 -0.693638131
vn 0.137353558 0.980952598 -0.137353558
vn 0.761049459 -0.175231396 -0.624578001
vn 0.761050161 -0.175230402 -0.624577424
vn 0.624577574 -0.175231257 -0.761049841
vn 0.773010603 0.000000000 -0.634393101
vn 0.634393351 0.000000000 -0.773010398
vn 0.773010780 0.000000000 -0.634392887
vn 0.634393178 0.000000000 -0.773010541
vn 0.773011084 0.000000000 -0.634392516
vn 0.634392958 0.000000000 -0.773010721
vn -0.773010634 0.000000000 0.634393064
vn -0.634392652 0.000000000 0.773010972
vn 0.773010208 0.000000000 -0.634393583
vn 0.634393249 0.000000000 -0.773010482
vn -0.773009630 0.000000000 0.634394288
vn -0.634394359 0.000000000 0.773009571
usemtl mat_2
f 1/1/1 2/2/1 3/3/1 4/4/1
f 1/1/1 4/4/1 5/5/1
f 6/6/2 3/3/2 7/7/2
f 3/3/2 6/6/2 8/8/2 4/4/2
f 9/9/3 5/10/3 4/11/3
f 10/12/3 4/11/3 8/13/3
f 11/14/3 4/11/3 10/12/3
f 12/15/4 13/9/4 3/11/4
f 12/15/4 3/11/4 2/10/4
f 14/14/4 7/13/4 3/11/4
f 15/16/5 16/17/5 17/18/5 18/19/5
f 19/20/6 20/21/6 21/22/6 22/23/6
f 23/24/7 18/19/7 24/25/7
f 15/16/7 18/19/7 23/24/7
f 17/18/8 19/20/8 22/23/8
f 17/18/8 22/23/8 18/19/8
f 21/26/9 25/27/9 22/28/9
f 26/29/10 17/18/10 16/17/10
f 27/30/11 20/21/11 19/20/11
f 27/30/12 19/20/12 28/31/12
f 29/32/13 30/33/13 28/31/13 19/20/13
f 26/29/13 31/34/13 29/32/13
f 26/29/13 29/32/13 19/20/13
f 26/29/13 19/20/13 17/18/13
f 32/35/14 33/36/14 18/37/14
f 32/35/14 18/37/14 22/38/14
f 32/35/14 22/38/14 25/39/14
f 24/40/14 18/37/14 33/36/14
f 34/41/15 35/42/15 36/43/15 37/44/15
f 34/41/16 37/44/16 38/45/16
f 36/43/17 39/45/17 37/44/17
f 40/46/18 38/45/18 37/44/18 41/47/18
f 42/48/19 37/44/19 39/45/19
f 41/47/19 37/44/19 42/48/19 43/46/19
usemtl mat_3
f 44/49/20 45/50/20 46/51/20 47/52/20
f 44/49/20 47/52/20 48/53/20
f 49/54/21 46/51/21 50/55/21
f 46/51/21 49/54/21 51/56/21 47/52/21
usemtl mat_2
f 52/57/22 53/58/22 54/3/22 55/4/22
f 52/57/22 55/4/22 56/59/22
f 57/60/23 54/3/23 58/61/23
f 54/3/23 57/60/23 59/62/23 55/4/23
f 60/63/3 56/64/3 55/11/3 61/65/3
f 60/63/3 61/65/3 62/66/3
f 63/67/3 55/11/3 59/68/3
f 55/11/3 63/67/3 64/69/3 61/65/3
f 65/70/24 62/71/24 61/72/24 66/73/24
f 65/70/24 66/73/24 67/74/24
f 68/75/25 61/72/25 64/76/25
f 61/72/25 68/75/25 69/77/25 66/73/25
f 70/78/4 67/66/4 66/65/4 54/11/4
f 70/78/4 54/11/4 53/64/4
f 71/79/4 66/65/4 69/69/4
f 66/65/4 71/79/4 58/68/4 54/11/4
f 72/57/22 73/58/22 74/3/22 75/4/22
f 72/57/22 75/4/22 76/59/22
f 77/60/23 74/3/23 78/61/23
f 74/3/23 77/60/23 79/62/23 75/4/23
f 80/63/3 76/64/3 75/11/3 81/65/3
f 80/63/3 81/65/3 82/66/3
f 83/67/3 75/11/3 79/68/3
f 75/11/3 83/67/3 84/69/3 81/65/3
f 85/70/24 82/71/24 81/72/24 86/73/24
f 85/70/24 86/73/24 87/74/24
f 88/75/25 81/72/25 84/76/25
f 81/72/25 88/75/25 89/77/25 86/73/25
f 90/78/4 87/66/4 86/65/4 74/11/4
f 90/78/4 74/11/4 73/64/4
f 91/79/4 86/65/4 89/69/4
f 86/65/4 91/79/4 78/68/4 74/11/4
f 92/57/22 93/58/22 94/3/22 95/4/22
f 92/57/22 95/4/22 96/59/22
f 97/60/23 94/3/23 98/61/23
f 94/3/23 97/60/23 99/62/23 95/4/23
f 100/63/3 96/64/3 95/11/3 101/65/3
f 100/63/3 101/65/3 102/66/3
f 103/67/3 95/11/3 99/68/3
f 95/11/3 103/67/3 104/69/3 101/65/3
f 105/70/24 102/71/24 101/72/24 106/73/24
f 105/70/24 106/73/24 107/74/24
f 108/75/25 101/72/25 104/76/25
f 101/72/25 108/75/25 109/77/25 106/73/25
f 110/78/4 107/66/4 106/65/4 94/11/4
f 110/78/4 94/11/4 93/64/4
f 111/79/4 106/65/4 109/69/4
f 106/65/4 111/79/4 98/68/4 94/11/4
f 112/80/26 113/81/26 114/3/26 115/4/26
f 112/80/26 115/4/26 116/82/26
f 117/83/27 114/3/27 118/84/27
f 114/3/27 117/83/27 119/85/27 115/4/27
f 120/86/3 116/87/3 115/11/3 121/88/3
f 120/86/3 121/88/3 122/89/3
f 123/90/3 115/11/3 119/91/3
f 115/11/3 123/90/3 124/92/3 121/88/3
f 125/93/28 122/94/28 121/95/28 126/96/28
f 125/93/28 126/96/28 127/97/28
f 128/98/29 121/95/29 124/85/29
f 121/95/29 128/98/29 129/84/29 126/96/29
f 130/99/4 127/89/4 126/88/4 114/11/4
f 130/99/4 114/11/4 113/87/4
f 131/100/4 126/88/4 129/92/4
f 126/88/4 131/100/4 118/91/4 114/11/4
