# Authored in Blender; exported by tools-export-modern.py
mtllib materials.mtl
s off
v 0.002479597 1.000000000 0.958590365
v 0.000000000 0.956399358 0.968320792
v 0.000000000 1.000000000 0.956110768
v 0.043889232 1.000000000 1.000000000
v 0.000000000 0.843276410 1.000000000
vt 0.086458414 0.091472074
vt 0.081762247 0.086075955
vt 0.089670351 0.091461064
vt 0.032818587 0.091472074
vt 0.061244475 0.072075593
vn 0.693638131 -0.194248005 -0.693638131
usemtl mat_2
f 1/1/1 2/2/1 3/3/1
f 4/4/1 5/5/1 2/2/1 1/1/1
