# Authored in Blender; exported by tools-export-modern.py
mtllib materials.mtl
s off
v 0.917093181 0.000000000 0.906912623
v 0.903656483 0.000000000 0.895885408
v 0.903656483 0.209374905 0.895885408
v 1.000000000 0.000000000 0.974952503
v 1.000000000 0.209374905 0.974952503
v 0.793373320 0.000000000 0.836937777
v 0.778043509 0.000000000 0.828743815
v 0.778043509 0.209374905 0.828743815
v 0.658379163 0.000000000 0.792444089
v 0.641745329 0.000000000 0.787398279
v 0.641745329 0.209374905 0.787398279
v 0.517298604 0.000000000 0.775141274
v 0.500000000 0.000000000 0.773437500
v 0.500000000 0.209374905 0.773437500
v 0.375553275 0.000000000 0.785694505
v 0.358254671 0.000000000 0.787398279
v 0.358254671 0.209374905 0.787398279
v 0.238590326 0.000000000 0.823698005
v 0.221956491 0.000000000 0.828743815
v 0.221956491 0.209374905 0.828743815
v 0.111673329 0.000000000 0.887691446
v 0.096343517 0.000000000 0.895885408
v 0.096343517 0.209374905 0.895885408
v 0.000000000 0.000000000 0.974952503
v 0.000000000 0.209374905 0.974952503
v 1.000000000 0.221254304 0.979891084
v 0.883473635 0.321875095 0.926091075
v 0.999999936 0.269624908 1.000000000
v 1.000000000 0.269624629 0.999999936
v 0.973531848 0.321875095 1.000000000
v 0.764141321 0.321875095 0.862306595
v 0.634658098 0.321875095 0.823028326
v 0.500000000 0.321875095 0.809765637
v 0.365341902 0.321875095 0.823028326
v 0.235858679 0.321875095 0.862306595
v 0.116526365 0.321875095 0.926091075
v 0.020609171 0.310308970 1.000000000
v 0.000000000 0.269624629 0.999999936
v 0.000000064 0.269624908 1.000000000
v 0.026468152 0.321875095 1.000000000
v 0.944530440 0.336784066 1.000000000
v 0.851181030 0.368749619 0.974420249
v 0.882350058 0.368749619 1.000000000
v 0.741897821 0.368749619 0.916007102
v 0.623318434 0.368749619 0.880036473
v 0.500000000 0.368749619 0.867890596
v 0.376681566 0.368749619 0.880036473
v 0.258102179 0.368749619 0.916007102
v 0.148818970 0.368749619 0.974420249
v 0.079557292 0.349167060 1.000000000
v 0.117649942 0.368749619 1.000000000
v 0.876760790 0.368749619 1.000000000
v 0.123239210 0.368749619 1.000000000
v 0.802856540 0.368749619 1.000000000
v 0.131727122 0.368749619 1.000000000
v 0.703475513 0.368749619 1.000000000
v 0.443780316 0.368749619 1.000000000
v 0.935246539 0.000000000 0.909741096
v 0.908864975 0.000000000 0.888090312
v 0.908864975 0.068750381 0.888090312
v 1.000000000 0.000000000 0.962882874
v 1.000000000 0.068750381 0.962882874
v 0.811729511 0.000000000 0.836170397
v 0.781630993 0.000000000 0.820082426
v 0.781630993 0.068750381 0.820082426
v 0.676232996 0.000000000 0.788110248
v 0.643574238 0.000000000 0.778203309
v 0.643574238 0.068750381 0.778203309
v 0.533963976 0.000000000 0.767407628
v 0.500000000 0.000000000 0.764062464
v 0.500000000 0.068750381 0.764062464
v 0.390389738 0.000000000 0.774858145
v 0.356425762 0.000000000 0.778203309
v 0.356425762 0.068750381 0.778203309
v 0.251027765 0.000000000 0.810175486
v 0.218369007 0.000000000 0.820082426
v 0.218369007 0.068750381 0.820082426
v 0.121233544 0.000000000 0.872002341
v 0.091135025 0.000000000 0.888090312
v 0.091135025 0.068750381 0.888090312
v 0.000000000 0.000000000 0.962882874
v 0.000000000 0.015623253 0.962882874
v 0.005995106 0.000000000 0.957962818
v 0.000000000 0.068750381 0.962882874
v 1.000000000 0.060509666 0.947192502
v 1.000000000 0.051875114 0.947192502
v 0.915636063 0.051875114 0.877956867
v 0.915636063 0.085624695 0.877956867
v 1.000000000 0.085624695 0.947192502
v 0.786294937 0.051875114 0.808822691
v 0.786294937 0.085624695 0.808822691
v 0.645951986 0.051875114 0.766250014
v 0.645951986 0.085624695 0.766250014
v 0.500000000 0.051875114 0.751875043
v 0.500000000 0.085624695 0.751875043
v 0.354048014 0.051875114 0.766250014
v 0.354048014 0.085624695 0.766250014
v 0.213705063 0.051875114 0.808822691
v 0.213705063 0.085624695 0.808822691
v 0.084363937 0.051875114 0.877956867
v 0.084363937 0.085624695 0.877956867
v 0.000000000 0.076990144 0.947192502
v 0.000000000 0.051875114 0.947192502
v 0.000000000 0.085624695 0.947192502
v 1.000000000 0.085624695 0.954364319
v 0.902093887 0.085624695 0.898223877
v 1.000000000 0.085624695 0.978573213
v 0.776967049 0.085624695 0.831342161
v 0.641196728 0.085624695 0.790156662
v 0.500000000 0.085624695 0.776250005
v 0.358803272 0.085624695 0.790156662
v 0.223032951 0.085624695 0.831342161
v 0.097906113 0.085624695 0.898223877
v 0.000000000 0.085624695 0.974731568
v 0.000000000 0.085624695 0.978573213
v 1.000000000 0.082003216 0.978573213
v 0.902093887 0.051875114 0.898223877
v 1.000000000 0.051875114 0.978573213
v 0.776967049 0.051875114 0.831342161
v 0.641196728 0.051875114 0.790156662
v 0.500000000 0.051875114 0.776250005
v 0.358803272 0.051875114 0.790156662
v 0.223032951 0.051875114 0.831342161
v 0.097906113 0.051875114 0.898223877
v 0.000000000 0.055496594 0.978573213
v 0.000000000 0.051875114 0.978573213
v 1.000000000 0.051875114 0.974731568
v 0.000000000 0.051875114 0.954364319
v 1.000000000 0.212124439 0.958055248
v 1.000000000 0.207499981 0.958055248
v 0.910948277 0.207499981 0.884972394
v 0.910948277 0.230000019 0.884972394
v 1.000000000 0.230000019 0.958055248
v 0.783066273 0.207499981 0.816617906
v 0.783066273 0.230000019 0.816617906
v 0.644305944 0.207499981 0.774525464
v 0.644305944 0.230000019 0.774525464
v 0.500000000 0.207499981 0.760312498
v 0.500000000 0.230000019 0.760312498
v 0.355694056 0.207499981 0.774525464
v 0.355694056 0.230000019 0.774525464
v 0.216933727 0.207499981 0.816617906
v 0.216933727 0.230000019 0.816617906
v 0.089051723 0.207499981 0.884972394
v 0.089051723 0.230000019 0.884972394
v 0.000000000 0.225375542 0.958055170
v 0.000000000 0.207499981 0.958055170
v 0.000000000 0.230000019 0.958055170
v 1.000000000 0.230000019 0.963006498
v 0.899489880 0.230000019 0.902121365
v 1.000000000 0.230000019 0.984608123
v 0.775173187 0.230000019 0.835672855
v 0.640282154 0.230000019 0.794754088
v 0.500000000 0.230000019 0.780937493
v 0.359717846 0.230000019 0.794754088
v 0.224826813 0.230000019 0.835672855
v 0.100510120 0.230000019 0.902121365
v 0.000000000 0.230000019 0.982305857
v 0.000000000 0.230000019 0.984608033
v 1.000000000 0.228254379 0.984608123
v 0.899489880 0.207499981 0.902121365
v 1.000000000 0.207499981 0.984608123
v 0.775173187 0.207499981 0.835672855
v 0.640282154 0.207499981 0.794754088
v 0.500000000 0.207499981 0.780937493
v 0.359717846 0.207499981 0.794754088
v 0.224826813 0.207499981 0.835672855
v 0.100510120 0.207499981 0.902121365
v 0.000000000 0.209245644 0.984608033
v 0.000000000 0.207499981 0.984608033
v 1.000000000 0.207499981 0.982305976
v 0.000000000 0.207499981 0.963006439
v 0.423859596 0.240312576 0.777666032
v 0.425877094 0.240312576 0.779386818
v 0.425728798 0.242187500 0.777517676
v 0.459521294 0.240312576 0.776716471
v 0.461241961 0.240312576 0.774699032
v 0.459372997 0.242187500 0.774847388
v 0.459684372 0.240312576 0.755073249
v 0.457666874 0.240312576 0.753352463
v 0.457815170 0.242187500 0.755221605
v 0.422302008 0.240312576 0.758040249
v 0.424170971 0.242187500 0.757891893
v 0.424022675 0.240312576 0.756022811
v 0.424130925 0.000000000 0.777897457
v 0.425877094 0.000000000 0.779386818
v 0.423859596 0.000000000 0.777666032
v 0.459752702 0.000000000 0.776445150
v 0.461241961 0.000000000 0.774699032
v 0.459521294 0.000000000 0.776716471
v 0.459413043 0.000000000 0.754841825
v 0.457666874 0.000000000 0.753352463
v 0.459684372 0.000000000 0.755073249
v 0.423791266 0.000000000 0.756294131
v 0.422302008 0.000000000 0.758040249
v 0.424022675 0.000000000 0.756022811
v 0.454996566 0.000000000 0.777075599
v 0.423650120 0.000000000 0.775026608
v 0.459893848 0.000000000 0.757712674
v 0.428547402 0.000000000 0.755663682
vt 0.096136548 0.099453493
vt 0.095052943 0.099453493
vt 0.095052943 0.111740753
vt 0.102822584 0.099453493
vt 0.102822584 0.111740753
vt 0.086159133 0.099453493
vt 0.084922858 0.099453493
vt 0.084922858 0.111740753
vt 0.075272513 0.099453493
vt 0.073931076 0.099453493
vt 0.073931076 0.111740753
vt 0.063895049 0.099453493
vt 0.062500000 0.099453493
vt 0.062500000 0.111740753
vt 0.052463976 0.099453493
vt 0.051068928 0.099453493
vt 0.051068928 0.111740753
vt 0.041418580 0.099453493
vt 0.040077142 0.099453493
vt 0.040077142 0.111740753
vt 0.031183332 0.099453493
vt 0.029947056 0.099453493
vt 0.029947056 0.111740753
vt 0.022177416 0.099453493
vt 0.022177416 0.111740753
vt 0.102822584 0.112437902
vt 0.093425296 0.118342884
vt 0.102822581 0.115276555
vt 0.102822586 0.115276539
vt 0.100688058 0.118342884
vt 0.083801717 0.118342884
vt 0.073359519 0.118342884
vt 0.062500000 0.118342884
vt 0.051640481 0.118342884
vt 0.041198283 0.118342884
vt 0.031574704 0.118342884
vt 0.023839441 0.117664120
vt 0.022177413 0.115276539
vt 0.022177418 0.115276555
vt 0.024311940 0.118342884
vt 0.098349238 0.102822580
vt 0.100688058 0.102822578
vt 0.093425296 0.108782977
vt 0.090821065 0.104885466
vt 0.093334692 0.102822583
vt 0.083801717 0.113926888
vt 0.082007885 0.109596200
vt 0.073359519 0.117094494
vt 0.072445035 0.112497061
vt 0.062500000 0.118164062
vt 0.062500000 0.113476567
vt 0.051640481 0.117094494
vt 0.052554965 0.112497061
vt 0.041198283 0.113926888
vt 0.042992115 0.109596200
vt 0.031574704 0.108782977
vt 0.034178939 0.104885466
vt 0.028593327 0.102822581
vt 0.024311940 0.102822578
vt 0.031665310 0.102822583
vt 0.092883948 0.102822584
vt 0.032116056 0.102822584
vt 0.086923918 0.102822584
vt 0.032800564 0.102822583
vt 0.078909314 0.102822583
vt 0.057966154 0.102822583
vt 0.021350487 0.343371831
vt 0.022216797 0.343371831
vt 0.022216797 0.371093750
vt 0.019224132 0.343371831
vt 0.019224132 0.371093750
vt 0.025012596 0.343371831
vt 0.025878906 0.343371831
vt 0.025878906 0.371093750
vt 0.028674706 0.343371831
vt 0.029541016 0.343371831
vt 0.029541016 0.371093750
vt 0.032336815 0.343371831
vt 0.033203125 0.343371831
vt 0.033203125 0.371093750
vt 0.035998924 0.343371831
vt 0.036865234 0.343371831
vt 0.036865234 0.371093750
vt 0.039661034 0.343371831
vt 0.040527344 0.343371831
vt 0.040527344 0.371093750
vt 0.043323143 0.343371831
vt 0.044189453 0.343371831
vt 0.044189453 0.371093750
vt 0.047182118 0.343371831
vt 0.047182118 0.349671528
vt 0.046985253 0.343371831
vt 0.047182118 0.371093750
vt 0.101660395 0.033887703
vt 0.101660395 0.003906250
vt 0.095052943 0.003906250
vt 0.095052943 0.121093750
vt 0.101660395 0.121093750
vt 0.084922858 0.003906250
vt 0.084922858 0.121093750
vt 0.073931076 0.003906250
vt 0.073931076 0.121093750
vt 0.062500000 0.003906250
vt 0.062500000 0.121093750
vt 0.051068928 0.003906250
vt 0.051068928 0.121093750
vt 0.040077142 0.003906250
vt 0.040077142 0.121093750
vt 0.029947056 0.003906250
vt 0.029947056 0.121093750
vt 0.023339603 0.091112297
vt 0.023339603 0.003906250
vt 0.023339603 0.121093750
vt 0.101660398 0.105234624
vt 0.101660395 0.105796327
vt 0.095052943 0.111218922
vt 0.093992323 0.109631591
vt 0.101660403 0.103338565
vt 0.084922858 0.116633564
vt 0.084192291 0.114869818
vt 0.073931076 0.119967885
vt 0.073558636 0.118095502
vt 0.062500000 0.119184680
vt 0.051068928 0.119967885
vt 0.051441368 0.118095502
vt 0.040077142 0.116633564
vt 0.040807713 0.114869818
vt 0.029947056 0.111218922
vt 0.031007677 0.109631591
vt 0.023339600 0.103639447
vt 0.023339603 0.105796327
vt 0.023339599 0.103338565
vt 0.101660403 0.108519013
vt 0.101660403 0.121093750
vt 0.093992323 0.121093750
vt 0.093992323 0.003906250
vt 0.101660403 0.003906250
vt 0.084192291 0.121093750
vt 0.084192291 0.003906250
vt 0.073558636 0.121093750
vt 0.073558636 0.003906250
vt 0.051441368 0.121093750
vt 0.051441368 0.003906250
vt 0.040807713 0.121093750
vt 0.040807713 0.003906250
vt 0.031007677 0.121093750
vt 0.031007677 0.003906250
vt 0.023339599 0.016480987
vt 0.023339599 0.121093750
vt 0.023339599 0.003906250
vt 0.101660401 0.103639447
vt 0.023339600 0.105234624
vt 0.102107107 0.027991931
vt 0.102107107 0.003906250
vt 0.102107107 0.121093750
vt 0.029947057 0.003906250
vt 0.029947057 0.121093750
vt 0.022892900 0.097007970
vt 0.022892900 0.003906250
vt 0.022892900 0.121093750
vt 0.102107105 0.105037510
vt 0.102107107 0.105429720
vt 0.094145261 0.109860480
vt 0.102107107 0.103326355
vt 0.084297635 0.115124144
vt 0.073612340 0.118365489
vt 0.062500000 0.119459957
vt 0.051387664 0.118365489
vt 0.040702369 0.115124144
vt 0.029947057 0.111218922
vt 0.030854739 0.109860480
vt 0.022892902 0.103508727
vt 0.022892900 0.105429726
vt 0.022892903 0.103326362
vt 0.102107107 0.112001890
vt 0.094145261 0.121093750
vt 0.094145261 0.003906250
vt 0.084297635 0.121093750
vt 0.084297635 0.003906250
vt 0.073612340 0.121093750
vt 0.073612340 0.003906250
vt 0.051387664 0.121093750
vt 0.051387664 0.003906250
vt 0.040702369 0.121093750
vt 0.040702369 0.003906250
vt 0.030854739 0.121093750
vt 0.030854739 0.003906250
vt 0.022892903 0.012998228
vt 0.022892903 0.121093750
vt 0.022892903 0.003906250
vt 0.102107108 0.103508717
vt 0.022892903 0.105037515
vt 0.013281252 0.120971046
vt 0.008300782 0.120971039
vt 0.012109376 0.121093750
vt 0.115234375 0.120971046
vt 0.121093750 0.120971039
vt 0.115234360 0.121093750
vt 0.114062503 0.120971039
vt 0.114355467 0.116406247
vt 0.111718751 0.120971046
vt 0.111718737 0.121093750
vt 0.013281256 0.121093750
vt 0.009765625 0.120971046
vt 0.009765626 0.111718751
vt 0.012611441 0.105243785
vt 0.008300782 0.105243778
vt 0.012966047 0.105554864
vt 0.116022388 0.106073331
vt 0.121093750 0.106073325
vt 0.115234375 0.105239659
vt 0.114220105 0.105243778
vt 0.115234375 0.105243785
vt 0.114167571 0.105243778
vt 0.119832928 0.105243778
vt 0.111718750 0.105243785
vt 0.121093750 0.105243779
vt 0.100853132 0.105243785
vt 0.026519875 0.105243785
vt 0.100508673 0.105243778
vt 0.013281252 0.105243785
vt 0.023949865 0.105243785
vt 0.009765625 0.105243785
vt 0.009765625 0.013281251
vt 0.115234375 0.013281251
vn 0.634393351 0.000000000 -0.773010398
vn 0.471397059 0.000000000 -0.881921092
vn 0.290284265 0.000000000 -0.956940461
vn 0.098017713 0.000000000 -0.995184670
vn -0.098017713 0.000000000 -0.995184670
vn -0.290284265 0.000000000 -0.956940461
vn -0.471397059 0.000000000 -0.881921092
vn -0.634393351 0.000000000 -0.773010398
vn 0.603972501 0.305950761 -0.735942491
vn 0.603972661 0.305951090 -0.735942223
vn 0.448792298 0.305950869 -0.839630597
vn 0.448792182 0.305950686 -0.839630726
vn 0.276364372 0.305950655 -0.911052650
vn 0.276364506 0.305950832 -0.911052550
vn 0.093317492 0.305951112 -0.947462803
vn 0.093317127 0.305950687 -0.947462976
vn -0.093317505 0.305950698 -0.947462935
vn -0.093317114 0.305951123 -0.947462837
vn -0.276364356 0.305950827 -0.911052597
vn -0.276364523 0.305950651 -0.911052605
vn -0.448792325 0.305950690 -0.839630647
vn -0.448792153 0.305950874 -0.839630673
vn -0.603972435 0.305951082 -0.735942411
vn -0.603972730 0.305950753 -0.735942307
vn 0.399403694 0.776932881 -0.486674417
vn 0.399403725 0.776932482 -0.486675029
vn 0.296783793 0.776932692 -0.555243165
vn 0.296783824 0.776932833 -0.555242951
vn 0.182758337 0.776932677 -0.602474071
vn 0.182758333 0.776932669 -0.602474082
vn 0.061710140 0.776932373 -0.626552429
vn 0.061710355 0.776932646 -0.626552069
vn -0.061710108 0.776932634 -0.626552108
vn -0.061710389 0.776932361 -0.626552419
vn -0.182758340 0.776932670 -0.602474079
vn -0.182758330 0.776932677 -0.602474072
vn -0.296783714 0.776932827 -0.555243018
vn -0.296783909 0.776932686 -0.555243111
vn -0.399403993 0.776932499 -0.486674781
vn -0.399403399 0.776932898 -0.486674631
vn 0.000000000 1.000000000 0.000000000
vn 0.634393178 0.000000000 -0.773010541
vn 0.471396231 0.000000000 -0.881921535
vn 0.290285050 0.000000000 -0.956940223
vn 0.098017251 0.000000000 -0.995184716
vn -0.098017251 0.000000000 -0.995184716
vn -0.290285050 0.000000000 -0.956940223
vn -0.471396231 0.000000000 -0.881921535
vn -0.634393178 0.000000000 -0.773010541
vn 0.634392958 0.000000000 -0.773010721
vn 0.471396227 0.000000000 -0.881921537
vn 0.290285354 0.000000000 -0.956940130
vn 0.098016839 0.000000000 -0.995184756
vn -0.098016839 0.000000000 -0.995184756
vn -0.290285354 0.000000000 -0.956940130
vn -0.471396227 0.000000000 -0.881921537
vn -0.634392958 0.000000000 -0.773010721
vn -0.634392652 0.000000000 0.773010972
vn -0.471396888 0.000000000 0.881921184
vn -0.290284817 0.000000000 0.956940293
vn -0.098017097 0.000000000 0.995184731
vn 0.098017097 0.000000000 0.995184731
vn 0.290284817 0.000000000 0.956940293
vn 0.471396888 0.000000000 0.881921184
vn 0.634392652 0.000000000 0.773010972
vn 0.000000000 -1.000000000 0.000000000
vn 0.634393249 0.000000000 -0.773010482
vn 0.471397447 0.000000000 -0.881920885
vn 0.290284406 0.000000000 -0.956940418
vn 0.098017625 0.000000000 -0.995184679
vn -0.098017625 0.000000000 -0.995184679
vn -0.290284406 0.000000000 -0.956940418
vn -0.471397447 0.000000000 -0.881920885
vn -0.634392846 0.000000000 -0.773010813
vn -0.634394359 0.000000000 0.773009571
vn -0.471395927 0.000000000 0.881921697
vn -0.290284806 0.000000000 0.956940297
vn -0.098017203 0.000000000 0.995184721
vn 0.098017203 0.000000000 0.995184721
vn 0.290284806 0.000000000 0.956940297
vn 0.471395927 0.000000000 0.881921697
vn 0.634393944 0.000000000 0.773009912
vn -0.529844673 0.577381349 0.621204798
vn 0.621238421 0.577338173 0.529852298
vn 0.529844673 0.577381349 -0.621204798
vn -0.621238421 0.577338173 -0.529852298
vn -0.704904972 0.707091402 0.055952927
vn -0.704860971 0.707136218 0.055940871
vn 0.055946792 0.707112922 0.704883872
vn 0.055944664 0.707124126 0.704872801
vn 0.704860971 0.707136218 -0.055940871
vn 0.704904972 0.707091402 -0.055952927
vn -0.055946792 0.707112922 -0.704883872
vn -0.055944664 0.707124126 -0.704872801
vn -0.648942014 0.000000000 0.760837869
vn 0.760850600 -0.000000000 0.648927087
vn 0.648942014 0.000000000 -0.760837869
vn -0.760850600 0.000000000 -0.648927087
vn 0.079121399 0.000000000 0.996864988
vn -0.996865446 0.000000000 0.079115632
vn 0.996865446 0.000000000 -0.079115632
vn -0.079121399 0.000000000 -0.996864988
usemtl mat_2
f 1/1/1 2/2/1 3/3/1
f 4/4/1 1/1/1 3/3/1 5/5/1
f 6/6/2 7/7/2 8/8/2
f 2/2/2 6/6/2 8/8/2 3/3/2
f 9/9/3 10/10/3 11/11/3
f 7/7/3 9/9/3 11/11/3 8/8/3
f 12/12/4 13/13/4 14/14/4
f 10/10/4 12/12/4 14/14/4 11/11/4
f 15/15/5 16/16/5 17/17/5
f 13/13/5 15/15/5 17/17/5 14/14/5
f 18/18/6 19/19/6 20/20/6
f 16/16/6 18/18/6 20/20/6 17/17/6
f 21/21/7 22/22/7 23/23/7
f 19/19/7 21/21/7 23/23/7 20/20/7
f 22/22/8 24/24/8 25/25/8 23/23/8
f 26/26/9 5/5/9 3/3/9 27/27/9
f 28/28/10 29/29/10 26/26/10
f 28/28/10 26/26/10 27/27/10
f 28/28/10 27/27/10 30/30/10
f 3/3/11 8/8/11 31/31/11
f 3/3/12 31/31/12 27/27/12
f 8/8/13 11/11/13 32/32/13
f 8/8/14 32/32/14 31/31/14
f 11/11/15 14/14/15 33/33/15
f 11/11/16 33/33/16 32/32/16
f 14/14/17 17/17/17 34/34/17
f 14/14/18 34/34/18 33/33/18
f 17/17/19 20/20/19 35/35/19
f 17/17/20 35/35/20 34/34/20
f 20/20/21 23/23/21 36/36/21
f 20/20/22 36/36/22 35/35/22
f 37/37/23 23/23/23 25/25/23
f 37/37/23 25/25/23 38/38/23
f 37/37/23 38/38/23 39/39/23
f 23/23/24 37/37/24 40/40/24 36/36/24
f 41/41/25 30/42/25 27/43/25 42/44/25
f 41/41/26 42/44/26 43/45/26
f 27/43/27 31/46/27 44/47/27
f 27/43/28 44/47/28 42/44/28
f 31/46/29 32/48/29 45/49/29
f 31/46/30 45/49/30 44/47/30
f 32/48/31 33/50/31 46/51/31
f 32/48/32 46/51/32 45/49/32
f 33/50/33 34/52/33 47/53/33
f 33/50/34 47/53/34 46/51/34
f 34/52/35 35/54/35 48/55/35
f 34/52/36 48/55/36 47/53/36
f 35/54/37 36/56/37 49/57/37
f 35/54/38 49/57/38 48/55/38
f 50/58/39 36/56/39 40/59/39
f 36/56/40 50/58/40 51/60/40 49/57/40
f 52/61/41 43/45/41 42/44/41
f 42/44/41 44/47/41 45/49/41
f 45/49/41 46/51/41 47/53/41
f 47/53/41 48/55/41 49/57/41
f 53/62/41 49/57/41 51/60/41
f 54/63/41 52/61/41 42/44/41 45/49/41
f 45/49/41 47/53/41 49/57/41
f 55/64/41 49/57/41 53/62/41
f 56/65/41 54/63/41 45/49/41
f 57/66/41 45/49/41 49/57/41 55/64/41
f 56/65/41 45/49/41 57/66/41
usemtl mat_3
f 58/67/42 59/68/42 60/69/42
f 61/70/42 58/67/42 60/69/42 62/71/42
f 63/72/43 64/73/43 65/74/43
f 59/68/43 63/72/43 65/74/43 60/69/43
f 66/75/44 67/76/44 68/77/44
f 64/73/44 66/75/44 68/77/44 65/74/44
f 69/78/45 70/79/45 71/80/45
f 67/76/45 69/78/45 71/80/45 68/77/45
f 72/81/46 73/82/46 74/83/46
f 70/79/46 72/81/46 74/83/46 71/80/46
f 75/84/47 76/85/47 77/86/47
f 73/82/47 75/84/47 77/86/47 74/83/47
f 78/87/48 79/88/48 80/89/48
f 76/85/48 78/87/48 80/89/48 77/86/48
f 81/90/49 82/91/49 83/92/49
f 79/88/49 83/92/49 82/91/49
f 79/88/49 82/91/49 84/93/49
f 79/88/49 84/93/49 80/89/49
usemtl mat_2
f 85/94/50 86/95/50 87/96/50 88/97/50
f 85/94/50 88/97/50 89/98/50
f 87/96/51 90/99/51 91/100/51
f 87/96/51 91/100/51 88/97/51
f 90/99/52 92/101/52 93/102/52
f 90/99/52 93/102/52 91/100/52
f 92/101/53 94/103/53 95/104/53
f 92/101/53 95/104/53 93/102/53
f 94/103/54 96/105/54 97/106/54
f 94/103/54 97/106/54 95/104/54
f 96/105/55 98/107/55 99/108/55
f 96/105/55 99/108/55 97/106/55
f 98/107/56 100/109/56 101/110/56
f 98/107/56 101/110/56 99/108/56
f 102/111/57 100/109/57 103/112/57
f 100/109/57 102/111/57 104/113/57 101/110/57
f 105/114/41 89/115/41 88/116/41 106/117/41
f 105/114/41 106/117/41 107/118/41
f 88/116/41 91/119/41 108/120/41
f 88/116/41 108/120/41 106/117/41
f 91/119/41 93/121/41 109/122/41
f 91/119/41 109/122/41 108/120/41
f 93/121/41 95/104/41 110/123/41
f 93/121/41 110/123/41 109/122/41
f 95/104/41 97/124/41 111/125/41
f 95/104/41 111/125/41 110/123/41
f 97/124/41 99/126/41 112/127/41
f 97/124/41 112/127/41 111/125/41
f 99/126/41 101/128/41 113/129/41
f 99/126/41 113/129/41 112/127/41
f 114/130/41 101/128/41 104/131/41
f 101/128/41 114/130/41 115/132/41 113/129/41
f 116/133/58 107/134/58 106/135/58 117/136/58
f 116/133/58 117/136/58 118/137/58
f 106/135/59 108/138/59 119/139/59
f 106/135/59 119/139/59 117/136/59
f 108/138/60 109/140/60 120/141/60
f 108/138/60 120/141/60 119/139/60
f 109/140/61 110/104/61 121/103/61
f 109/140/61 121/103/61 120/141/61
f 110/104/62 111/142/62 122/143/62
f 110/104/62 122/143/62 121/103/62
f 111/142/63 112/144/63 123/145/63
f 111/142/63 123/145/63 122/143/63
f 112/144/64 113/146/64 124/147/64
f 112/144/64 124/147/64 123/145/64
f 125/148/65 113/146/65 115/149/65
f 113/146/65 125/148/65 126/150/65 124/147/65
f 127/151/66 118/118/66 117/117/66 87/116/66
f 127/151/66 87/116/66 86/115/66
f 117/117/66 119/120/66 90/119/66
f 117/117/66 90/119/66 87/116/66
f 119/120/66 120/122/66 92/121/66
f 119/120/66 92/121/66 90/119/66
f 120/122/66 121/123/66 94/104/66
f 120/122/66 94/104/66 92/121/66
f 121/123/66 122/125/66 96/124/66
f 121/123/66 96/124/66 94/104/66
f 122/125/66 123/127/66 98/126/66
f 122/125/66 98/126/66 96/124/66
f 123/127/66 124/129/66 100/128/66
f 123/127/66 100/128/66 98/126/66
f 128/152/66 124/129/66 126/132/66
f 124/129/66 128/152/66 103/131/66 100/128/66
f 129/153/67 130/154/67 131/96/67 132/97/67
f 129/153/67 132/97/67 133/155/67
f 131/96/68 134/99/68 135/100/68
f 131/96/68 135/100/68 132/97/68
f 134/99/69 136/101/69 137/102/69
f 134/99/69 137/102/69 135/100/69
f 136/101/70 138/103/70 139/104/70
f 136/101/70 139/104/70 137/102/70
f 138/103/71 140/105/71 141/106/71
f 138/103/71 141/106/71 139/104/71
f 140/105/72 142/107/72 143/108/72
f 140/105/72 143/108/72 141/106/72
f 142/107/73 144/156/73 145/157/73
f 142/107/73 145/157/73 143/108/73
f 146/158/74 144/156/74 147/159/74
f 144/156/74 146/158/74 148/160/74 145/157/74
f 149/161/41 133/162/41 132/116/41 150/163/41
f 149/161/41 150/163/41 151/164/41
f 132/116/41 135/119/41 152/165/41
f 132/116/41 152/165/41 150/163/41
f 135/119/41 137/121/41 153/166/41
f 135/119/41 153/166/41 152/165/41
f 137/121/41 139/104/41 154/167/41
f 137/121/41 154/167/41 153/166/41
f 139/104/41 141/124/41 155/168/41
f 139/104/41 155/168/41 154/167/41
f 141/124/41 143/126/41 156/169/41
f 141/124/41 156/169/41 155/168/41
f 143/126/41 145/170/41 157/171/41
f 143/126/41 157/171/41 156/169/41
f 158/172/41 145/170/41 148/173/41
f 145/170/41 158/172/41 159/174/41 157/171/41
f 160/175/75 151/155/75 150/176/75 161/177/75
f 160/175/75 161/177/75 162/154/75
f 150/176/76 152/178/76 163/179/76
f 150/176/76 163/179/76 161/177/76
f 152/178/77 153/180/77 164/181/77
f 152/178/77 164/181/77 163/179/77
f 153/180/78 154/104/78 165/103/78
f 153/180/78 165/103/78 164/181/78
f 154/104/79 155/182/79 166/183/79
f 154/104/79 166/183/79 165/103/79
f 155/182/80 156/184/80 167/185/80
f 155/182/80 167/185/80 166/183/80
f 156/184/81 157/186/81 168/187/81
f 156/184/81 168/187/81 167/185/81
f 169/188/82 157/186/82 159/189/82
f 157/186/82 169/188/82 170/190/82 168/187/82
f 171/191/66 162/164/66 161/163/66 131/116/66
f 171/191/66 131/116/66 130/162/66
f 161/163/66 163/165/66 134/119/66
f 161/163/66 134/119/66 131/116/66
f 163/165/66 164/166/66 136/121/66
f 163/165/66 136/121/66 134/119/66
f 164/166/66 165/167/66 138/104/66
f 164/166/66 138/104/66 136/121/66
f 165/167/66 166/168/66 140/124/66
f 165/167/66 140/124/66 138/104/66
f 166/168/66 167/169/66 142/126/66
f 166/168/66 142/126/66 140/124/66
f 167/169/66 168/171/66 144/170/66
f 167/169/66 144/170/66 142/126/66
f 172/192/66 168/171/66 170/174/66
f 168/171/66 172/192/66 147/173/66 144/170/66
f 173/193/83 174/194/83 175/195/83
f 176/196/84 177/197/84 178/198/84
f 179/199/85 180/196/85 181/200/85
f 182/201/86 183/202/86 184/197/86
f 175/195/87 183/202/87 182/201/87
f 175/195/88 182/201/88 173/193/88
f 174/194/89 176/196/89 178/198/89
f 174/194/90 178/198/90 175/195/90
f 177/193/91 179/199/91 181/200/91
f 177/193/92 181/200/92 178/203/92
f 180/196/93 184/204/93 183/205/93
f 180/196/94 183/205/94 181/200/94
f 185/206/95 186/207/95 174/194/95 173/193/95
f 185/206/95 173/193/95 187/208/95
f 188/209/96 189/210/96 177/197/96 176/196/96
f 188/209/96 176/196/96 190/211/96
f 191/212/97 192/213/97 180/196/97 179/199/97
f 191/212/97 179/199/97 193/214/97
f 194/215/98 195/216/98 182/201/98 184/197/98
f 194/215/98 184/197/98 196/217/98
f 197/218/99 190/211/99 176/196/99
f 186/207/99 197/218/99 176/196/99 174/194/99
f 198/219/100 187/208/100 173/193/100
f 195/216/100 198/219/100 173/193/100 182/201/100
f 199/220/101 193/214/101 179/199/101
f 189/221/101 199/220/101 179/199/101 177/193/101
f 200/222/102 196/223/102 184/204/102
f 192/213/102 200/222/102 184/204/102 180/196/102
f 175/224/41 178/225/41 181/200/41
f 175/224/41 181/200/41 183/205/41
