# Authored in Blender; exported by tools-export-modern.py
mtllib materials.mtl
s off
v 0.082906819 1.000000000 0.093087324
v 0.018731513 0.000000000 0.040420038
v 0.096343517 0.000000000 0.104114532
v 0.096343517 1.000000000 0.104114532
v 0.000000000 1.000000000 0.025047489
v 0.000000000 0.000000000 0.025047489
v 0.206626680 1.000000000 0.163062111
v 0.133409638 0.000000000 0.123926787
v 0.221956491 0.000000000 0.171256065
v 0.221956491 1.000000000 0.171256065
v 0.341620837 1.000000000 0.207555844
v 0.262175623 0.000000000 0.183456404
v 0.358254671 0.000000000 0.212601662
v 0.358254671 1.000000000 0.212601662
v 0.482701396 1.000000000 0.224858719
v 0.400081158 0.000000000 0.216721253
v 0.500000000 0.000000000 0.226562500
v 0.500000000 1.000000000 0.226562500
v 0.624446725 1.000000000 0.214305443
v 0.541826487 0.000000000 0.222442909
v 0.641745329 0.000000000 0.212601662
v 0.641745329 1.000000000 0.212601662
v 0.761409674 1.000000000 0.176301883
v 0.681964461 0.000000000 0.200401323
v 0.778043509 0.000000000 0.171256065
v 0.778043509 1.000000000 0.171256065
v 0.888326671 1.000000000 0.112308487
v 0.815109629 0.000000000 0.151443811
v 0.903656483 0.000000000 0.104114532
v 0.903656483 1.000000000 0.104114532
v 1.000000000 0.000000000 0.025047489
v 1.000000000 0.995005394 0.025047489
v 0.936145225 0.000000000 0.077451724
v 1.000000000 1.000000000 0.025047489
v 0.064753461 1.000000000 0.090258872
v 0.000000000 0.831252415 0.037117164
v 0.000000000 0.778125286 0.037117164
v 0.091135025 0.778125286 0.111909628
v 0.091135025 1.000000000 0.111909628
v 0.000000000 1.000000000 0.037117164
v 0.188270489 1.000000000 0.163829589
v 0.218369007 0.778125286 0.179917574
v 0.218369007 1.000000000 0.179917574
v 0.323767004 1.000000000 0.211889797
v 0.356425762 0.778125286 0.221796751
v 0.356425762 1.000000000 0.221796751
v 0.466036024 1.000000000 0.232592432
v 0.500000000 0.778125286 0.235937595
v 0.500000000 1.000000000 0.235937595
v 0.609610262 1.000000000 0.225141914
v 0.643574238 0.778125286 0.221796751
v 0.643574238 1.000000000 0.221796751
v 0.748972235 1.000000000 0.189824528
v 0.781630993 0.778125286 0.179917574
v 0.781630993 1.000000000 0.179917574
v 0.878766456 1.000000000 0.127997613
v 0.908864975 0.778125286 0.111909628
v 0.908864975 1.000000000 0.111909628
v 1.000000000 1.000000000 0.037117164
v 0.994004894 1.000000000 0.042037213
v 1.000000000 0.778125286 0.037117164
v 0.000000000 0.769884631 0.052807543
v 0.000000000 0.761250019 0.052807543
v 0.084363937 0.761250019 0.122043133
v 0.084363937 0.794999838 0.122043133
v 0.000000000 0.794999838 0.052807543
v 0.213705063 0.761250019 0.191177368
v 0.213705063 0.794999838 0.191177368
v 0.354048014 0.761250019 0.233749866
v 0.354048014 0.794999838 0.233749866
v 0.500000000 0.761250019 0.248125076
v 0.500000000 0.794999838 0.248125076
v 0.645951986 0.761250019 0.233749866
v 0.645951986 0.794999838 0.233749866
v 0.786294937 0.761250019 0.191177368
v 0.786294937 0.794999838 0.191177368
v 0.915636063 0.761250019 0.122043133
v 0.915636063 0.794999838 0.122043133
v 1.000000000 0.786365226 0.052807543
v 1.000000000 0.761250019 0.052807543
v 1.000000000 0.794999838 0.052807543
v 0.000000000 0.794999838 0.045635727
v 0.097906113 0.794999838 0.101776123
v 0.000000000 0.794999838 0.021426787
v 0.223032951 0.794999838 0.168657780
v 0.358803272 0.794999838 0.209843397
v 0.500000000 0.794999838 0.223750114
v 0.641196728 0.794999838 0.209843397
v 0.776967049 0.794999838 0.168657780
v 0.902093887 0.794999838 0.101776123
v 1.000000000 0.794999838 0.025268432
v 1.000000000 0.794999838 0.021426787
v 0.000000000 0.791378333 0.021426787
v 0.097906113 0.761250019 0.101776123
v 0.000000000 0.761250019 0.021426787
v 0.223032951 0.761250019 0.168657780
v 0.358803272 0.761250019 0.209843397
v 0.500000000 0.761250019 0.223750114
v 0.641196728 0.761250019 0.209843397
v 0.776967049 0.761250019 0.168657780
v 0.902093887 0.761250019 0.101776123
v 1.000000000 0.764871524 0.021426787
v 1.000000000 0.761250019 0.021426787
v 0.000000000 0.761250019 0.025268432
v 1.000000000 0.761250019 0.045635727
v 0.000000000 0.905822084 0.052807543
v 0.000000000 0.897187471 0.052807543
v 0.084363937 0.897187471 0.122043133
v 0.084363937 0.930937290 0.122043133
v 0.000000000 0.930937290 0.052807543
v 0.213705063 0.897187471 0.191177368
v 0.213705063 0.930937290 0.191177368
v 0.354048014 0.897187471 0.233749866
v 0.354048014 0.930937290 0.233749866
v 0.500000000 0.897187471 0.248125076
v 0.500000000 0.930937290 0.248125076
v 0.645951986 0.897187471 0.233749866
v 0.645951986 0.930937290 0.233749866
v 0.786294937 0.897187471 0.191177368
v 0.786294937 0.930937290 0.191177368
v 0.915636063 0.897187471 0.122043133
v 0.915636063 0.930937290 0.122043133
v 1.000000000 0.922302678 0.052807543
v 1.000000000 0.897187471 0.052807543
v 1.000000000 0.930937290 0.052807543
v 0.000000000 0.930937290 0.045635727
v 0.097906113 0.930937290 0.101776123
v 0.000000000 0.930937290 0.021426787
v 0.223032951 0.930937290 0.168657780
v 0.358803272 0.930937290 0.209843397
v 0.500000000 0.930937290 0.223750114
v 0.641196728 0.930937290 0.209843397
v 0.776967049 0.930937290 0.168657780
v 0.902093887 0.930937290 0.101776123
v 1.000000000 0.930937290 0.025268432
v 1.000000000 0.930937290 0.021426787
v 0.000000000 0.927315785 0.021426787
v 0.097906113 0.897187471 0.101776123
v 0.000000000 0.897187471 0.021426787
v 0.223032951 0.897187471 0.168657780
v 0.358803272 0.897187471 0.209843397
v 0.500000000 0.897187471 0.223750114
v 0.641196728 0.897187471 0.209843397
v 0.776967049 0.897187471 0.168657780
v 0.902093887 0.897187471 0.101776123
v 1.000000000 0.900808976 0.021426787
v 1.000000000 0.897187471 0.021426787
v 0.000000000 0.897187471 0.025268432
v 1.000000000 0.897187471 0.045635727
v 0.000000000 0.518374364 0.041944748
v 0.000000000 0.513749838 0.041944748
v 0.089051723 0.513749838 0.115027666
v 0.089051723 0.536250114 0.115027666
v 0.000000000 0.536250114 0.041944748
v 0.216933727 0.513749838 0.183382034
v 0.216933727 0.536250114 0.183382034
v 0.355694056 0.513749838 0.225474596
v 0.355694056 0.536250114 0.225474596
v 0.500000000 0.513749838 0.239687443
v 0.500000000 0.536250114 0.239687443
v 0.644305944 0.513749838 0.225474596
v 0.644305944 0.536250114 0.225474596
v 0.783066273 0.513749838 0.183382034
v 0.783066273 0.536250114 0.183382034
v 0.910948277 0.513749838 0.115027666
v 0.910948277 0.536250114 0.115027666
v 1.000000000 0.531625607 0.041944670
v 1.000000000 0.513749838 0.041944670
v 1.000000000 0.536250114 0.041944670
v 0.000000000 0.536250114 0.036993475
v 0.100510120 0.536250114 0.097878695
v 0.000000000 0.536250114 0.015391862
v 0.224826813 0.536250114 0.164327145
v 0.359717846 0.536250114 0.205245972
v 0.500000000 0.536250114 0.219062567
v 0.640282154 0.536250114 0.205245972
v 0.775173187 0.536250114 0.164327145
v 0.899489880 0.536250114 0.097878695
v 1.000000000 0.536250114 0.017693920
v 1.000000000 0.536250114 0.015391772
v 0.000000000 0.534504433 0.015391862
v 0.100510120 0.513749838 0.097878695
v 0.000000000 0.513749838 0.015391862
v 0.224826813 0.513749838 0.164327145
v 0.359717846 0.513749838 0.205245972
v 0.500000000 0.513749838 0.219062567
v 0.640282154 0.513749838 0.205245972
v 0.775173187 0.513749838 0.164327145
v 0.899489880 0.513749838 0.097878695
v 1.000000000 0.515495496 0.015391772
v 1.000000000 0.513749838 0.015391772
v 0.000000000 0.513749838 0.017694039
v 1.000000000 0.513749838 0.036993416
vt 0.028863451 0.099453493
vt 0.023688022 0.040768047
vt 0.029947056 0.040768047
vt 0.029947056 0.099453493
vt 0.022177416 0.099453493
vt 0.022177416 0.040768047
vt 0.038840866 0.099453493
vt 0.032936261 0.040768047
vt 0.040077142 0.040768047
vt 0.040077142 0.099453493
vt 0.049727490 0.099453493
vt 0.043320620 0.040768047
vt 0.051068928 0.040768047
vt 0.051068928 0.099453493
vt 0.061104952 0.099453493
vt 0.054442031 0.040768047
vt 0.062500000 0.040768047
vt 0.062500000 0.099453493
vt 0.072536027 0.099453493
vt 0.065873104 0.040768047
vt 0.073931076 0.040768047
vt 0.073931076 0.099453493
vt 0.083581420 0.099453493
vt 0.077174552 0.040768047
vt 0.084922858 0.040768047
vt 0.084922858 0.099453493
vt 0.093816667 0.099453493
vt 0.087912063 0.040768047
vt 0.095052943 0.040768047
vt 0.095052943 0.099453493
vt 0.102822584 0.040768047
vt 0.102822584 0.099160383
vt 0.097673003 0.040768047
vt 0.102822584 0.099453493
vt 0.079944237 0.343371831
vt 0.077817882 0.275328472
vt 0.077817882 0.253906250
vt 0.080810547 0.253906250
vt 0.080810547 0.343371831
vt 0.077817882 0.343371831
vt 0.083606346 0.343371831
vt 0.084472656 0.253906250
vt 0.084472656 0.343371831
vt 0.087268456 0.343371831
vt 0.088134766 0.253906250
vt 0.088134766 0.343371831
vt 0.090930565 0.343371831
vt 0.091796875 0.253906250
vt 0.091796875 0.343371831
vt 0.094592674 0.343371831
vt 0.095458984 0.253906250
vt 0.095458984 0.343371831
vt 0.098254784 0.343371831
vt 0.099121094 0.253906250
vt 0.099121094 0.343371831
vt 0.101916893 0.343371831
vt 0.102783203 0.253906250
vt 0.102783203 0.343371831
vt 0.105775868 0.343371831
vt 0.105579003 0.343371831
vt 0.105775868 0.253906250
vt 0.023339603 0.033887703
vt 0.023339603 0.003906250
vt 0.029947056 0.003906250
vt 0.029947056 0.121093750
vt 0.023339603 0.121093750
vt 0.040077142 0.003906250
vt 0.040077142 0.121093750
vt 0.051068928 0.003906250
vt 0.051068928 0.121093750
vt 0.062500000 0.003906250
vt 0.062500000 0.121093750
vt 0.073931076 0.003906250
vt 0.073931076 0.121093750
vt 0.084922858 0.003906250
vt 0.084922858 0.121093750
vt 0.095052943 0.003906250
vt 0.095052943 0.121093750
vt 0.101660395 0.091112297
vt 0.101660395 0.003906250
vt 0.101660395 0.121093750
vt 0.023339600 0.019765375
vt 0.023339603 0.019203672
vt 0.029947056 0.013781079
vt 0.031007677 0.015368411
vt 0.023339599 0.021661436
vt 0.040077142 0.008366436
vt 0.040807713 0.010130181
vt 0.051068928 0.005032113
vt 0.051441368 0.006904501
vt 0.062500000 0.005815317
vt 0.073931076 0.005032113
vt 0.073558636 0.006904501
vt 0.084922858 0.008366436
vt 0.084192291 0.010130181
vt 0.095052943 0.013781079
vt 0.093992323 0.015368411
vt 0.101660401 0.021360555
vt 0.101660395 0.019203672
vt 0.101660403 0.021661436
vt 0.023339599 0.108519013
vt 0.023339599 0.121093750
vt 0.031007677 0.121093750
vt 0.031007677 0.003906250
vt 0.023339599 0.003906250
vt 0.040807713 0.121093750
vt 0.040807713 0.003906250
vt 0.051441368 0.121093750
vt 0.051441368 0.003906250
vt 0.073558636 0.121093750
vt 0.073558636 0.003906250
vt 0.084192291 0.121093750
vt 0.084192291 0.003906250
vt 0.093992323 0.121093750
vt 0.093992323 0.003906250
vt 0.101660403 0.016480987
vt 0.101660403 0.121093750
vt 0.101660403 0.003906250
vt 0.023339600 0.021360555
vt 0.101660398 0.019765375
vt 0.022892900 0.027992030
vt 0.022892900 0.003906250
vt 0.029947057 0.003906250
vt 0.029947057 0.121093750
vt 0.022892900 0.121093750
vt 0.102107107 0.097008069
vt 0.102107107 0.003906250
vt 0.102107107 0.121093750
vt 0.022892903 0.019962486
vt 0.022892900 0.019570275
vt 0.029947057 0.013781080
vt 0.030854739 0.015139523
vt 0.022892903 0.021673640
vt 0.040702369 0.009875860
vt 0.051068928 0.005032115
vt 0.051387664 0.006634512
vt 0.062500000 0.005540039
vt 0.073931076 0.005032115
vt 0.073612340 0.006634512
vt 0.084297635 0.009875860
vt 0.095052943 0.013781080
vt 0.094145261 0.015139523
vt 0.102107108 0.021491285
vt 0.102107107 0.019570281
vt 0.102107107 0.021673647
vt 0.022892903 0.112001772
vt 0.022892903 0.121093750
vt 0.030854739 0.121093750
vt 0.030854739 0.003906250
vt 0.022892903 0.003906250
vt 0.040702369 0.121093750
vt 0.040702369 0.003906250
vt 0.051387664 0.121093750
vt 0.051387664 0.003906250
vt 0.073612340 0.121093750
vt 0.073612340 0.003906250
vt 0.084297635 0.121093750
vt 0.084297635 0.003906250
vt 0.094145261 0.121093750
vt 0.094145261 0.003906250
vt 0.102107107 0.012998110
vt 0.022892902 0.021491275
vt 0.102107105 0.019962490
vn -0.634393101 0.000000000 0.773010603
vn -0.471396733 0.000000000 0.881921266
vn -0.290284649 0.000000000 0.956940344
vn -0.098018127 0.000000000 0.995184629
vn 0.098018127 0.000000000 0.995184629
vn 0.290284649 0.000000000 0.956940344
vn 0.471396733 0.000000000 0.881921266
vn 0.634393101 0.000000000 0.773010603
vn -0.634392684 0.000000000 0.773010946
vn -0.471396552 0.000000000 0.881921363
vn -0.290285428 0.000000000 0.956940108
vn -0.098017251 0.000000000 0.995184716
vn 0.098017251 0.000000000 0.995184716
vn 0.290285428 0.000000000 0.956940108
vn 0.471396552 0.000000000 0.881921363
vn 0.634392684 0.000000000 0.773010946
vn -0.634392715 0.000000000 0.773010920
vn -0.471396543 0.000000000 0.881921368
vn -0.290284238 0.000000000 0.956940469
vn -0.098018449 0.000000000 0.995184598
vn 0.098018449 0.000000000 0.995184598
vn 0.290284238 0.000000000 0.956940469
vn 0.471396543 0.000000000 0.881921368
vn 0.634392715 0.000000000 0.773010920
vn 0.000000000 1.000000000 0.000000000
vn 0.634392652 0.000000000 -0.773010972
vn 0.471396561 0.000000000 -0.881921358
vn 0.290285586 0.000000000 -0.956940060
vn 0.098017513 0.000000000 -0.995184690
vn -0.098017513 0.000000000 -0.995184690
vn -0.290285586 0.000000000 -0.956940060
vn -0.471396561 0.000000000 -0.881921358
vn -0.634392652 0.000000000 -0.773010972
vn 0.000000000 -1.000000000 0.000000000
vn -0.634393583 0.000000000 0.773010208
vn -0.471396807 0.000000000 0.881921227
vn -0.290285159 0.000000000 0.956940190
vn -0.098016811 0.000000000 0.995184759
vn 0.098016811 0.000000000 0.995184759
vn 0.290285159 0.000000000 0.956940190
vn 0.471396807 0.000000000 0.881921227
vn 0.634393986 0.000000000 0.773009877
vn 0.634394702 0.000000000 -0.773009289
vn 0.471395598 0.000000000 -0.881921873
vn 0.290285194 0.000000000 -0.956940179
vn 0.098017203 0.000000000 -0.995184721
vn -0.098017203 0.000000000 -0.995184721
vn -0.290285194 0.000000000 -0.956940179
vn -0.471395598 0.000000000 -0.881921873
vn -0.634395117 0.000000000 -0.773008949
usemtl mat_2
f 1/1/1 2/2/1 3/3/1 4/4/1
f 5/5/1 6/6/1 2/2/1 1/1/1
f 7/7/2 8/8/2 9/9/2 10/10/2
f 4/4/2 3/3/2 8/8/2 7/7/2
f 11/11/3 12/12/3 13/13/3 14/14/3
f 10/10/3 9/9/3 12/12/3 11/11/3
f 15/15/4 16/16/4 17/17/4 18/18/4
f 14/14/4 13/13/4 16/16/4 15/15/4
f 19/19/5 20/20/5 21/21/5 22/22/5
f 18/18/5 17/17/5 20/20/5 19/19/5
f 23/23/6 24/24/6 25/25/6 26/26/6
f 22/22/6 21/21/6 24/24/6 23/23/6
f 27/27/7 28/28/7 29/29/7 30/30/7
f 26/26/7 25/25/7 28/28/7 27/27/7
f 31/31/8 32/32/8 33/33/8
f 30/30/8 29/29/8 33/33/8
f 30/30/8 33/33/8 32/32/8
f 30/30/8 32/32/8 34/34/8
usemtl mat_3
f 35/35/9 36/36/9 37/37/9
f 35/35/9 37/37/9 38/38/9
f 35/35/9 38/38/9 39/39/9
f 40/40/9 36/36/9 35/35/9
f 41/41/10 38/38/10 42/42/10 43/43/10
f 39/39/10 38/38/10 41/41/10
f 44/44/11 42/42/11 45/45/11 46/46/11
f 43/43/11 42/42/11 44/44/11
f 47/47/12 45/45/12 48/48/12 49/49/12
f 46/46/12 45/45/12 47/47/12
f 50/50/13 48/48/13 51/51/13 52/52/13
f 49/49/13 48/48/13 50/50/13
f 53/53/14 51/51/14 54/54/14 55/55/14
f 52/52/14 51/51/14 53/53/14
f 56/56/15 54/54/15 57/57/15 58/58/15
f 55/55/15 54/54/15 56/56/15
f 59/59/16 60/60/16 57/57/16 61/61/16
f 58/58/16 57/57/16 60/60/16
usemtl mat_2
f 62/62/17 63/63/17 64/64/17 65/65/17
f 62/62/17 65/65/17 66/66/17
f 64/64/18 67/67/18 68/68/18
f 64/64/18 68/68/18 65/65/18
f 67/67/19 69/69/19 70/70/19
f 67/67/19 70/70/19 68/68/19
f 69/69/20 71/71/20 72/72/20
f 69/69/20 72/72/20 70/70/20
f 71/71/21 73/73/21 74/74/21
f 71/71/21 74/74/21 72/72/21
f 73/73/22 75/75/22 76/76/22
f 73/73/22 76/76/22 74/74/22
f 75/75/23 77/77/23 78/78/23
f 75/75/23 78/78/23 76/76/23
f 79/79/24 77/77/24 80/80/24
f 77/77/24 79/79/24 81/81/24 78/78/24
f 82/82/25 66/83/25 65/84/25 83/85/25
f 82/82/25 83/85/25 84/86/25
f 65/84/25 68/87/25 85/88/25
f 65/84/25 85/88/25 83/85/25
f 68/87/25 70/89/25 86/90/25
f 68/87/25 86/90/25 85/88/25
f 70/89/25 72/71/25 87/91/25
f 70/89/25 87/91/25 86/90/25
f 72/71/25 74/92/25 88/93/25
f 72/71/25 88/93/25 87/91/25
f 74/92/25 76/94/25 89/95/25
f 74/92/25 89/95/25 88/93/25
f 76/94/25 78/96/25 90/97/25
f 76/94/25 90/97/25 89/95/25
f 91/98/25 78/96/25 81/99/25
f 78/96/25 91/98/25 92/100/25 90/97/25
f 93/101/26 84/102/26 83/103/26 94/104/26
f 93/101/26 94/104/26 95/105/26
f 83/103/27 85/106/27 96/107/27
f 83/103/27 96/107/27 94/104/27
f 85/106/28 86/108/28 97/109/28
f 85/106/28 97/109/28 96/107/28
f 86/108/29 87/72/29 98/71/29
f 86/108/29 98/71/29 97/109/29
f 87/72/30 88/110/30 99/111/30
f 87/72/30 99/111/30 98/71/30
f 88/110/31 89/112/31 100/113/31
f 88/110/31 100/113/31 99/111/31
f 89/112/32 90/114/32 101/115/32
f 89/112/32 101/115/32 100/113/32
f 102/116/33 90/114/33 92/117/33
f 90/114/33 102/116/33 103/118/33 101/115/33
f 104/119/34 95/86/34 94/85/34 64/84/34
f 104/119/34 64/84/34 63/83/34
f 94/85/34 96/88/34 67/87/34
f 94/85/34 67/87/34 64/84/34
f 96/88/34 97/90/34 69/89/34
f 96/88/34 69/89/34 67/87/34
f 97/90/34 98/91/34 71/71/34
f 97/90/34 71/71/34 69/89/34
f 98/91/34 99/93/34 73/92/34
f 98/91/34 73/92/34 71/71/34
f 99/93/34 100/95/34 75/94/34
f 99/93/34 75/94/34 73/92/34
f 100/95/34 101/97/34 77/96/34
f 100/95/34 77/96/34 75/94/34
f 105/120/34 101/97/34 103/100/34
f 101/97/34 105/120/34 80/99/34 77/96/34
f 106/62/17 107/63/17 108/64/17 109/65/17
f 106/62/17 109/65/17 110/66/17
f 108/64/18 111/67/18 112/68/18
f 108/64/18 112/68/18 109/65/18
f 111/67/19 113/69/19 114/70/19
f 111/67/19 114/70/19 112/68/19
f 113/69/20 115/71/20 116/72/20
f 113/69/20 116/72/20 114/70/20
f 115/71/21 117/73/21 118/74/21
f 115/71/21 118/74/21 116/72/21
f 117/73/22 119/75/22 120/76/22
f 117/73/22 120/76/22 118/74/22
f 119/75/23 121/77/23 122/78/23
f 119/75/23 122/78/23 120/76/23
f 123/79/24 121/77/24 124/80/24
f 121/77/24 123/79/24 125/81/24 122/78/24
f 126/82/25 110/83/25 109/84/25 127/85/25
f 126/82/25 127/85/25 128/86/25
f 109/84/25 112/87/25 129/88/25
f 109/84/25 129/88/25 127/85/25
f 112/87/25 114/89/25 130/90/25
f 112/87/25 130/90/25 129/88/25
f 114/89/25 116/71/25 131/91/25
f 114/89/25 131/91/25 130/90/25
f 116/71/25 118/92/25 132/93/25
f 116/71/25 132/93/25 131/91/25
f 118/92/25 120/94/25 133/95/25
f 118/92/25 133/95/25 132/93/25
f 120/94/25 122/96/25 134/97/25
f 120/94/25 134/97/25 133/95/25
f 135/98/25 122/96/25 125/99/25
f 122/96/25 135/98/25 136/100/25 134/97/25
f 137/101/26 128/102/26 127/103/26 138/104/26
f 137/101/26 138/104/26 139/105/26
f 127/103/27 129/106/27 140/107/27
f 127/103/27 140/107/27 138/104/27
f 129/106/28 130/108/28 141/109/28
f 129/106/28 141/109/28 140/107/28
f 130/108/29 131/72/29 142/71/29
f 130/108/29 142/71/29 141/109/29
f 131/72/30 132/110/30 143/111/30
f 131/72/30 143/111/30 142/71/30
f 132/110/31 133/112/31 144/113/31
f 132/110/31 144/113/31 143/111/31
f 133/112/32 134/114/32 145/115/32
f 133/112/32 145/115/32 144/113/32
f 146/116/33 134/114/33 136/117/33
f 134/114/33 146/116/33 147/118/33 145/115/33
f 148/119/34 139/86/34 138/85/34 108/84/34
f 148/119/34 108/84/34 107/83/34
f 138/85/34 140/88/34 111/87/34
f 138/85/34 111/87/34 108/84/34
f 140/88/34 141/90/34 113/89/34
f 140/88/34 113/89/34 111/87/34
f 141/90/34 142/91/34 115/71/34
f 141/90/34 115/71/34 113/89/34
f 142/91/34 143/93/34 117/92/34
f 142/91/34 117/92/34 115/71/34
f 143/93/34 144/95/34 119/94/34
f 143/93/34 119/94/34 117/92/34
f 144/95/34 145/97/34 121/96/34
f 144/95/34 121/96/34 119/94/34
f 149/120/34 145/97/34 147/100/34
f 145/97/34 149/120/34 124/99/34 121/96/34
f 150/121/35 151/122/35 152/123/35 153/124/35
f 150/121/35 153/124/35 154/125/35
f 152/123/36 155/67/36 156/68/36
f 152/123/36 156/68/36 153/124/36
f 155/67/37 157/69/37 158/70/37
f 155/67/37 158/70/37 156/68/37
f 157/69/38 159/71/38 160/72/38
f 157/69/38 160/72/38 158/70/38
f 159/71/39 161/73/39 162/74/39
f 159/71/39 162/74/39 160/72/39
f 161/73/40 163/75/40 164/76/40
f 161/73/40 164/76/40 162/74/40
f 163/75/41 165/77/41 166/78/41
f 163/75/41 166/78/41 164/76/41
f 167/126/42 165/77/42 168/127/42
f 165/77/42 167/126/42 169/128/42 166/78/42
f 170/129/25 154/130/25 153/131/25 171/132/25
f 170/129/25 171/132/25 172/133/25
f 153/131/25 156/87/25 173/134/25
f 153/131/25 173/134/25 171/132/25
f 156/87/25 158/135/25 174/136/25
f 156/87/25 174/136/25 173/134/25
f 158/135/25 160/71/25 175/137/25
f 158/135/25 175/137/25 174/136/25
f 160/71/25 162/138/25 176/139/25
f 160/71/25 176/139/25 175/137/25
f 162/138/25 164/94/25 177/140/25
f 162/138/25 177/140/25 176/139/25
f 164/94/25 166/141/25 178/142/25
f 164/94/25 178/142/25 177/140/25
f 179/143/25 166/141/25 169/144/25
f 166/141/25 179/143/25 180/145/25 178/142/25
f 181/146/43 172/147/43 171/148/43 182/149/43
f 181/146/43 182/149/43 183/150/43
f 171/148/44 173/151/44 184/152/44
f 171/148/44 184/152/44 182/149/44
f 173/151/45 174/153/45 185/154/45
f 173/151/45 185/154/45 184/152/45
f 174/153/46 175/72/46 186/71/46
f 174/153/46 186/71/46 185/154/46
f 175/72/47 176/155/47 187/156/47
f 175/72/47 187/156/47 186/71/47
f 176/155/48 177/157/48 188/158/48
f 176/155/48 188/158/48 187/156/48
f 177/157/49 178/159/49 189/160/49
f 177/157/49 189/160/49 188/158/49
f 190/161/50 178/159/50 180/128/50
f 178/159/50 190/161/50 191/127/50 189/160/50
f 192/162/34 183/133/34 182/132/34 152/131/34
f 192/162/34 152/131/34 151/130/34
f 182/132/34 184/134/34 155/87/34
f 182/132/34 155/87/34 152/131/34
f 184/134/34 185/136/34 157/135/34
f 184/134/34 157/135/34 155/87/34
f 185/136/34 186/137/34 159/71/34
f 185/136/34 159/71/34 157/135/34
f 186/137/34 187/139/34 161/138/34
f 186/137/34 161/138/34 159/71/34
f 187/139/34 188/140/34 163/94/34
f 187/139/34 163/94/34 161/138/34
f 188/140/34 189/142/34 165/141/34
f 188/140/34 165/141/34 163/94/34
f 193/163/34 189/142/34 191/145/34
f 189/142/34 193/163/34 168/144/34 165/141/34
