# Authored in Blender; exported by tools-export-modern.py
mtllib materials.mtl
s off
v 0.906912676 1.000000000 0.082906819
v 0.959579962 0.000000000 0.018731513
v 0.895885468 0.000000000 0.096343517
v 0.895885468 1.000000000 0.096343517
v 0.974952511 1.000000000 0.000000000
v 0.974952511 0.000000000 0.000000000
v 0.836937785 1.000000000 0.206626785
v 0.876073178 0.000000000 0.133409673
v 0.828743815 0.000000000 0.221956611
v 0.828743815 1.000000000 0.221956611
v 0.792444142 1.000000000 0.341620852
v 0.816543512 0.000000000 0.262175707
v 0.787398338 0.000000000 0.358254671
v 0.787398338 1.000000000 0.358254671
v 0.775141281 1.000000000 0.482701396
v 0.783278747 0.000000000 0.400081158
v 0.773437500 0.000000000 0.500000000
v 0.773437500 1.000000000 0.500000000
v 0.785694557 1.000000000 0.624446725
v 0.777557091 0.000000000 0.541826487
v 0.787398338 0.000000000 0.641745329
v 0.787398338 1.000000000 0.641745329
v 0.823698012 1.000000000 0.761409570
v 0.799598642 0.000000000 0.681964426
v 0.828743815 0.000000000 0.778043389
v 0.828743815 1.000000000 0.778043389
v 0.887691498 1.000000000 0.888326657
v 0.848556105 0.000000000 0.815109545
v 0.895885468 0.000000000 0.903656483
v 0.895885468 1.000000000 0.903656483
v 0.974952511 0.995005394 1.000000000
v 0.922548276 0.000000000 0.936145225
v 0.974952511 0.000000000 1.000000000
v 0.974952511 1.000000000 1.000000000
v 0.909741128 1.000000000 0.064753475
v 0.962882876 0.831252288 0.000000000
v 0.962882876 0.778125286 0.000000000
v 0.888090372 0.778125286 0.091135025
v 0.888090372 1.000000000 0.091135025
v 0.962882876 1.000000000 0.000000000
v 0.836170411 1.000000000 0.188270398
v 0.820082426 0.778125286 0.218368888
v 0.820082426 1.000000000 0.218368888
v 0.788110203 1.000000000 0.323766976
v 0.778203249 0.778125286 0.356425762
v 0.778203249 1.000000000 0.356425762
v 0.767407568 1.000000000 0.466036024
v 0.764062405 0.778125286 0.500000000
v 0.764062405 1.000000000 0.500000000
v 0.774858086 1.000000000 0.609610262
v 0.778203249 0.778125286 0.643574238
v 0.778203249 1.000000000 0.643574238
v 0.810175472 1.000000000 0.748972326
v 0.820082426 0.778125286 0.781631112
v 0.820082426 1.000000000 0.781631112
v 0.872002387 1.000000000 0.878766485
v 0.888090372 0.778125286 0.908864975
v 0.888090372 1.000000000 0.908864975
v 0.962882836 1.000000000 1.000000000
v 0.957962787 1.000000000 0.994004894
v 0.962882836 0.778125286 1.000000000
v 0.947192519 0.769884609 0.000000000
v 0.947192519 0.761250019 0.000000000
v 0.877956867 0.761250019 0.084364057
v 0.877956867 0.794999838 0.084364057
v 0.947192519 0.794999838 0.000000000
v 0.808822632 0.761250019 0.213704944
v 0.808822632 0.794999838 0.213704944
v 0.766250014 0.761250019 0.354048014
v 0.766250014 0.794999838 0.354048014
v 0.751875043 0.761250019 0.500000000
v 0.751875043 0.794999838 0.500000000
v 0.766250014 0.761250019 0.645951986
v 0.766250014 0.794999838 0.645951986
v 0.808822632 0.761250019 0.786295056
v 0.808822632 0.794999838 0.786295056
v 0.877956867 0.761250019 0.915635943
v 0.877956867 0.794999838 0.915635943
v 0.947192482 0.786365235 1.000000000
v 0.947192482 0.761250019 1.000000000
v 0.947192482 0.794999838 1.000000000
v 0.954364284 0.794999838 0.000000000
v 0.898223877 0.794999838 0.097905993
v 0.978573203 0.794999838 0.000000000
v 0.831342220 0.794999838 0.223032832
v 0.790156603 0.794999838 0.358803391
v 0.776250005 0.794999838 0.500000000
v 0.790156603 0.794999838 0.641196609
v 0.831342220 0.794999838 0.776967168
v 0.898223877 0.794999838 0.902094007
v 0.974731584 0.794999838 1.000000000
v 0.978573203 0.794999838 1.000000000
v 0.978573203 0.791378329 0.000000000
v 0.898223877 0.761250019 0.097905993
v 0.978573203 0.761250019 0.000000000
v 0.831342220 0.761250019 0.223032832
v 0.790156603 0.761250019 0.358803391
v 0.776250005 0.761250019 0.500000000
v 0.790156603 0.761250019 0.641196609
v 0.831342220 0.761250019 0.776967168
v 0.898223877 0.761250019 0.902094007
v 0.978573203 0.764871528 1.000000000
v 0.978573203 0.761250019 1.000000000
v 0.974731584 0.761250019 0.000000000
v 0.954364258 0.761250019 1.000000000
v 0.947192519 0.905822061 0.000000000
v 0.947192519 0.897187471 0.000000000
v 0.877956867 0.897187471 0.084364057
v 0.877956867 0.930937290 0.084364057
v 0.947192519 0.930937290 0.000000000
v 0.808822632 0.897187471 0.213704944
v 0.808822632 0.930937290 0.213704944
v 0.766250014 0.897187471 0.354048014
v 0.766250014 0.930937290 0.354048014
v 0.751875043 0.897187471 0.500000000
v 0.751875043 0.930937290 0.500000000
v 0.766250014 0.897187471 0.645951986
v 0.766250014 0.930937290 0.645951986
v 0.808822632 0.897187471 0.786295056
v 0.808822632 0.930937290 0.786295056
v 0.877956867 0.897187471 0.915635943
v 0.877956867 0.930937290 0.915635943
v 0.947192482 0.922302687 1.000000000
v 0.947192482 0.897187471 1.000000000
v 0.947192482 0.930937290 1.000000000
v 0.954364284 0.930937290 0.000000000
v 0.898223877 0.930937290 0.097905993
v 0.978573203 0.930937290 0.000000000
v 0.831342220 0.930937290 0.223032832
v 0.790156603 0.930937290 0.358803391
v 0.776250005 0.930937290 0.500000000
v 0.790156603 0.930937290 0.641196609
v 0.831342220 0.930937290 0.776967168
v 0.898223877 0.930937290 0.902094007
v 0.974731584 0.930937290 1.000000000
v 0.978573203 0.930937290 1.000000000
v 0.978573203 0.927315781 0.000000000
v 0.898223877 0.897187471 0.097905993
v 0.978573203 0.897187471 0.000000000
v 0.831342220 0.897187471 0.223032832
v 0.790156603 0.897187471 0.358803391
v 0.776250005 0.897187471 0.500000000
v 0.790156603 0.897187471 0.641196609
v 0.831342220 0.897187471 0.776967168
v 0.898223877 0.897187471 0.902094007
v 0.978573203 0.900808980 1.000000000
v 0.978573203 0.897187471 1.000000000
v 0.974731584 0.897187471 0.000000000
v 0.954364258 0.897187471 1.000000000
v 0.958055158 0.518374364 0.000000000
v 0.958055158 0.513749838 0.000000000
v 0.884972334 0.513749838 0.089051723
v 0.884972334 0.536250114 0.089051723
v 0.958055158 0.536250114 0.000000000
v 0.816617966 0.513749838 0.216933846
v 0.816617966 0.536250114 0.216933846
v 0.774525404 0.513749838 0.355694175
v 0.774525404 0.536250114 0.355694175
v 0.760312557 0.513749838 0.500000000
v 0.760312557 0.536250114 0.500000000
v 0.774525404 0.513749838 0.644305825
v 0.774525404 0.536250114 0.644305825
v 0.816617966 0.513749838 0.783066154
v 0.816617966 0.536250114 0.783066154
v 0.884972334 0.513749838 0.910948277
v 0.884972334 0.536250114 0.910948277
v 0.958055235 0.531625607 1.000000000
v 0.958055235 0.513749838 1.000000000
v 0.958055235 0.536250114 1.000000000
v 0.963006441 0.536250114 0.000000000
v 0.902121305 0.536250114 0.100510240
v 0.984608036 0.536250114 0.000000000
v 0.835672855 0.536250114 0.224826694
v 0.794754028 0.536250114 0.359717846
v 0.780937433 0.536250114 0.500000000
v 0.794754028 0.536250114 0.640282154
v 0.835672855 0.536250114 0.775173306
v 0.902121305 0.536250114 0.899489760
v 0.982305971 0.536250114 1.000000000
v 0.984608126 0.536250114 1.000000000
v 0.984608036 0.534504435 0.000000000
v 0.902121305 0.513749838 0.100510240
v 0.984608036 0.513749838 0.000000000
v 0.835672855 0.513749838 0.224826694
v 0.794754028 0.513749838 0.359717846
v 0.780937433 0.513749838 0.500000000
v 0.794754028 0.513749838 0.640282154
v 0.835672855 0.513749838 0.775173306
v 0.902121305 0.513749838 0.899489760
v 0.984608126 0.515495494 1.000000000
v 0.984608126 0.513749838 1.000000000
v 0.982305852 0.513749838 0.000000000
v 0.963006500 0.513749838 1.000000000
v 0.778811892 1.000000000 0.415881927
v 0.779998798 0.000000000 0.414991230
v 0.780647516 0.000000000 0.414504409
v 0.780647516 1.000000000 0.414504409
v 0.778526664 1.000000000 0.416095972
v 0.778526664 0.000000000 0.416095972
v 0.785196223 1.000000000 0.380806962
v 0.784305460 0.000000000 0.379620057
v 0.783818603 0.000000000 0.378971338
v 0.783818603 1.000000000 0.378971338
v 0.785410285 1.000000000 0.381092191
v 0.785410285 0.000000000 0.381092191
v 0.764042894 1.000000000 0.376407092
v 0.762855988 0.000000000 0.377297788
v 0.762207270 0.000000000 0.377784610
v 0.762207270 1.000000000 0.377784610
v 0.764328122 1.000000000 0.376193047
v 0.764328122 0.000000000 0.376193047
v 0.757658562 1.000000000 0.411482056
v 0.758549326 0.000000000 0.412668962
v 0.759036183 0.000000000 0.413317680
v 0.759036183 1.000000000 0.413317680
v 0.757444501 1.000000000 0.411196828
v 0.757444501 0.000000000 0.411196828
v 0.784769752 1.000000000 0.385585720
v 0.782104334 0.000000000 0.404284405
v 0.775905436 1.000000000 0.415722326
v 0.764997858 0.000000000 0.414167494
v 0.766949350 1.000000000 0.376566692
v 0.777856928 0.000000000 0.378121525
v 0.758085034 1.000000000 0.406703299
v 0.760750452 0.000000000 0.388004613
vt 0.096136548 0.099453493
vt 0.101311977 0.040768047
vt 0.095052943 0.040768047
vt 0.095052943 0.099453493
vt 0.102822584 0.099453493
vt 0.102822584 0.040768047
vt 0.086159133 0.099453493
vt 0.092063737 0.040768047
vt 0.084922858 0.040768047
vt 0.084922858 0.099453493
vt 0.075272513 0.099453493
vt 0.081679381 0.040768047
vt 0.073931076 0.040768047
vt 0.073931076 0.099453493
vt 0.063895049 0.099453493
vt 0.070557972 0.040768047
vt 0.062500000 0.040768047
vt 0.062500000 0.099453493
vt 0.052463976 0.099453493
vt 0.059126897 0.040768047
vt 0.051068928 0.040768047
vt 0.051068928 0.099453493
vt 0.041418580 0.099453493
vt 0.047825451 0.040768047
vt 0.040077142 0.040768047
vt 0.040077142 0.099453493
vt 0.031183332 0.099453493
vt 0.037087937 0.040768047
vt 0.029947056 0.040768047
vt 0.029947056 0.099453493
vt 0.022177416 0.099160383
vt 0.027326995 0.040768047
vt 0.022177416 0.040768047
vt 0.022177416 0.099453493
vt 0.050647362 0.343371831
vt 0.048521005 0.275328421
vt 0.048521005 0.253906250
vt 0.051513672 0.253906250
vt 0.051513672 0.343371831
vt 0.048521005 0.343371831
vt 0.054309471 0.343371831
vt 0.055175781 0.253906250
vt 0.055175781 0.343371831
vt 0.057971581 0.343371831
vt 0.058837891 0.253906250
vt 0.058837891 0.343371831
vt 0.061633690 0.343371831
vt 0.062500000 0.253906250
vt 0.062500000 0.343371831
vt 0.065295799 0.343371831
vt 0.066162109 0.253906250
vt 0.066162109 0.343371831
vt 0.068957909 0.343371831
vt 0.069824219 0.253906250
vt 0.069824219 0.343371831
vt 0.072620018 0.343371831
vt 0.073486328 0.253906250
vt 0.073486328 0.343371831
vt 0.076478993 0.343371831
vt 0.076282128 0.343371831
vt 0.076478993 0.253906250
vt 0.101660401 0.033887626
vt 0.101660401 0.003906250
vt 0.095052943 0.003906250
vt 0.095052943 0.121093750
vt 0.101660401 0.121093750
vt 0.084922858 0.003906250
vt 0.084922858 0.121093750
vt 0.073931076 0.003906250
vt 0.073931076 0.121093750
vt 0.062500000 0.003906250
vt 0.062500000 0.121093750
vt 0.051068928 0.003906250
vt 0.051068928 0.121093750
vt 0.040077142 0.003906250
vt 0.040077142 0.121093750
vt 0.029947056 0.003906250
vt 0.029947056 0.121093750
vt 0.023339601 0.091112328
vt 0.023339601 0.003906250
vt 0.023339601 0.121093750
vt 0.019765376 0.101660400
vt 0.019203677 0.101660401
vt 0.013781079 0.095052943
vt 0.015368411 0.093992323
vt 0.021661436 0.101660402
vt 0.008366436 0.084922858
vt 0.010130181 0.084192291
vt 0.005032113 0.073931076
vt 0.006904501 0.073558636
vt 0.003906250 0.062500000
vt 0.005815317 0.062500000
vt 0.005032113 0.051068928
vt 0.006904501 0.051441368
vt 0.008366436 0.040077142
vt 0.010130181 0.040807713
vt 0.013781079 0.029947056
vt 0.015368411 0.031007677
vt 0.021360556 0.023339599
vt 0.019203674 0.023339601
vt 0.021661436 0.023339600
vt 0.101660402 0.108518999
vt 0.101660402 0.121093750
vt 0.093992323 0.121093750
vt 0.093992323 0.003906250
vt 0.101660402 0.003906250
vt 0.084192291 0.121093750
vt 0.084192291 0.003906250
vt 0.073558636 0.121093750
vt 0.073558636 0.003906250
vt 0.051441368 0.121093750
vt 0.051441368 0.003906250
vt 0.040807713 0.121093750
vt 0.040807713 0.003906250
vt 0.031007677 0.121093750
vt 0.031007677 0.003906250
vt 0.023339600 0.016481001
vt 0.023339600 0.121093750
vt 0.023339600 0.003906250
vt 0.021360556 0.101660402
vt 0.019765374 0.023339603
vt 0.102107100 0.027992030
vt 0.102107100 0.003906250
vt 0.102107100 0.121093750
vt 0.029947057 0.003906250
vt 0.029947057 0.121093750
vt 0.022892893 0.097008069
vt 0.022892893 0.003906250
vt 0.022892893 0.121093750
vt 0.019962487 0.102107099
vt 0.019570275 0.102107100
vt 0.013781080 0.095052943
vt 0.015139523 0.094145261
vt 0.021673641 0.102107099
vt 0.009875860 0.084297635
vt 0.005032115 0.073931076
vt 0.006634512 0.073612340
vt 0.005540039 0.062500000
vt 0.005032115 0.051068928
vt 0.006634512 0.051387664
vt 0.009875860 0.040702369
vt 0.013781080 0.029947057
vt 0.015139523 0.030854739
vt 0.021491285 0.022892894
vt 0.019570281 0.022892893
vt 0.021673648 0.022892894
vt 0.102107099 0.112001782
vt 0.102107099 0.121093750
vt 0.094145261 0.121093750
vt 0.094145261 0.003906250
vt 0.102107099 0.003906250
vt 0.084297635 0.121093750
vt 0.084297635 0.003906250
vt 0.073612340 0.121093750
vt 0.073612340 0.003906250
vt 0.051387664 0.121093750
vt 0.051387664 0.003906250
vt 0.040702369 0.121093750
vt 0.040702369 0.003906250
vt 0.030854739 0.121093750
vt 0.030854739 0.003906250
vt 0.022892894 0.012998100
vt 0.022892894 0.121093750
vt 0.022892894 0.003906250
vt 0.021491275 0.102107100
vt 0.019962491 0.022892893
vt 0.012611441 0.105243785
vt 0.009824189 0.039798764
vt 0.008300782 0.039798762
vt 0.008300782 0.105243778
vt 0.012966047 0.105554864
vt 0.011654399 0.041404323
vt 0.116022388 0.106073331
vt 0.119301506 0.044080257
vt 0.121093750 0.044080255
vt 0.121093750 0.106073325
vt 0.115234375 0.105239659
vt 0.115234375 0.039777470
vt 0.114220105 0.105243778
vt 0.114875927 0.039798762
vt 0.115234375 0.039798764
vt 0.115234375 0.105243785
vt 0.114167571 0.105243778
vt 0.114604784 0.039798762
vt 0.119832928 0.105243778
vt 0.114586336 0.039798762
vt 0.111718746 0.039798764
vt 0.111718750 0.105243785
vt 0.121093750 0.105243779
vt 0.121093750 0.039798763
vt 0.100853132 0.105243785
vt 0.041009226 0.039798764
vt 0.026519875 0.105243785
vt 0.081609055 0.039798764
vt 0.100508673 0.105243778
vt 0.044107840 0.039798762
vt 0.013281252 0.105243785
vt 0.013281251 0.039798764
vt 0.023949865 0.105243785
vt 0.082973991 0.039798764
vt 0.009765625 0.039798764
vt 0.009765625 0.105243785
vn -0.773010603 0.000000000 -0.634393101
vn -0.881921104 0.000000000 -0.471397036
vn -0.956940506 0.000000000 -0.290284115
vn -0.995184629 0.000000000 -0.098018127
vn -0.995184629 0.000000000 0.098018127
vn -0.956940506 0.000000000 0.290284115
vn -0.881921104 0.000000000 0.471397036
vn -0.773010603 0.000000000 0.634393101
vn -0.773010780 0.000000000 -0.634392887
vn -0.881921180 0.000000000 -0.471396896
vn -0.956940178 0.000000000 -0.290285199
vn -0.995184716 0.000000000 -0.098017251
vn -0.995184716 0.000000000 0.098017251
vn -0.956940178 0.000000000 0.290285199
vn -0.881921180 0.000000000 0.471396896
vn -0.773010946 0.000000000 0.634392684
vn -0.773011084 0.000000000 -0.634392516
vn -0.881921007 0.000000000 -0.471397219
vn -0.956940312 0.000000000 -0.290284756
vn -0.995184756 0.000000000 -0.098016839
vn -0.995184756 0.000000000 0.098016839
vn -0.956940312 0.000000000 0.290284756
vn -0.881921007 0.000000000 0.471397219
vn -0.773011247 0.000000000 0.634392317
vn 0.000000000 1.000000000 0.000000000
vn 0.773010634 0.000000000 0.634393064
vn 0.881921358 0.000000000 0.471396561
vn 0.956940202 0.000000000 0.290285120
vn 0.995184764 0.000000000 0.098016763
vn 0.995184764 0.000000000 -0.098016763
vn 0.956940202 0.000000000 -0.290285120
vn 0.881921358 0.000000000 -0.471396561
vn 0.773010634 0.000000000 -0.634393064
vn 0.000000000 -1.000000000 0.000000000
vn -0.773010611 0.000000000 -0.634393092
vn -0.881921409 0.000000000 -0.471396465
vn -0.956940190 0.000000000 -0.290285159
vn -0.995184751 0.000000000 -0.098016891
vn -0.995184751 0.000000000 0.098016891
vn -0.956940190 0.000000000 0.290285159
vn -0.881921409 0.000000000 0.471396465
vn -0.773010280 0.000000000 0.634393495
vn 0.773010045 0.000000000 0.634393782
vn 0.881921497 0.000000000 0.471396301
vn 0.956940250 0.000000000 0.290284959
vn 0.995184721 0.000000000 0.098017203
vn 0.995184721 0.000000000 -0.098017203
vn 0.956940250 0.000000000 -0.290284959
vn 0.881921497 0.000000000 -0.471396301
vn 0.773009704 0.000000000 -0.634394197
vn 0.600222964 -0.000000000 0.799832728
vn 0.799811145 0.000000000 -0.600251724
vn -0.600222964 0.000000000 -0.799832728
vn -0.799811145 0.000000000 0.600251724
vn 0.989992610 0.000000000 0.141119211
vn -0.141119565 0.000000000 0.989992560
vn 0.141119565 0.000000000 -0.989992560
vn -0.989992610 0.000000000 -0.141119211
usemtl mat_2
f 1/1/1 2/2/1 3/3/1 4/4/1
f 5/5/1 6/6/1 2/2/1 1/1/1
f 7/7/2 8/8/2 9/9/2 10/10/2
f 4/4/2 3/3/2 8/8/2 7/7/2
f 11/11/3 12/12/3 13/13/3 14/14/3
f 10/10/3 9/9/3 12/12/3 11/11/3
f 15/15/4 16/16/4 17/17/4 18/18/4
f 14/14/4 13/13/4 16/16/4 15/15/4
f 19/19/5 20/20/5 21/21/5 22/22/5
f 18/18/5 17/17/5 20/20/5 19/19/5
f 23/23/6 24/24/6 25/25/6 26/26/6
f 22/22/6 21/21/6 24/24/6 23/23/6
f 27/27/7 28/28/7 29/29/7 30/30/7
f 26/26/7 25/25/7 28/28/7 27/27/7
f 31/31/8 32/32/8 33/33/8
f 34/34/8 30/30/8 29/29/8
f 34/34/8 29/29/8 32/32/8
f 34/34/8 32/32/8 31/31/8
usemtl mat_3
f 35/35/9 36/36/9 37/37/9
f 35/35/9 37/37/9 38/38/9
f 35/35/9 38/38/9 39/39/9
f 40/40/9 36/36/9 35/35/9
f 41/41/10 38/38/10 42/42/10 43/43/10
f 39/39/10 38/38/10 41/41/10
f 44/44/11 42/42/11 45/45/11 46/46/11
f 43/43/11 42/42/11 44/44/11
f 47/47/12 45/45/12 48/48/12 49/49/12
f 46/46/12 45/45/12 47/47/12
f 50/50/13 48/48/13 51/51/13 52/52/13
f 49/49/13 48/48/13 50/50/13
f 53/53/14 51/51/14 54/54/14 55/55/14
f 52/52/14 51/51/14 53/53/14
f 56/56/15 54/54/15 57/57/15 58/58/15
f 55/55/15 54/54/15 56/56/15
f 59/59/16 60/60/16 57/57/16 61/61/16
f 58/58/16 57/57/16 60/60/16
usemtl mat_2
f 62/62/17 63/63/17 64/64/17 65/65/17
f 62/62/17 65/65/17 66/66/17
f 64/64/18 67/67/18 68/68/18
f 64/64/18 68/68/18 65/65/18
f 67/67/19 69/69/19 70/70/19
f 67/67/19 70/70/19 68/68/19
f 69/69/20 71/71/20 72/72/20
f 69/69/20 72/72/20 70/70/20
f 71/71/21 73/73/21 74/74/21
f 71/71/21 74/74/21 72/72/21
f 73/73/22 75/75/22 76/76/22
f 73/73/22 76/76/22 74/74/22
f 75/75/23 77/77/23 78/78/23
f 75/75/23 78/78/23 76/76/23
f 79/79/24 77/77/24 80/80/24
f 77/77/24 79/79/24 81/81/24 78/78/24
f 82/82/25 66/83/25 65/84/25 83/85/25
f 82/82/25 83/85/25 84/86/25
f 65/84/25 68/87/25 85/88/25
f 65/84/25 85/88/25 83/85/25
f 68/87/25 70/89/25 86/90/25
f 68/87/25 86/90/25 85/88/25
f 70/89/25 72/91/25 87/92/25
f 70/89/25 87/92/25 86/90/25
f 72/91/25 74/93/25 88/94/25
f 72/91/25 88/94/25 87/92/25
f 74/93/25 76/95/25 89/96/25
f 74/93/25 89/96/25 88/94/25
f 76/95/25 78/97/25 90/98/25
f 76/95/25 90/98/25 89/96/25
f 91/99/25 78/97/25 81/100/25
f 78/97/25 91/99/25 92/101/25 90/98/25
f 93/102/26 84/103/26 83/104/26 94/105/26
f 93/102/26 94/105/26 95/106/26
f 83/104/27 85/107/27 96/108/27
f 83/104/27 96/108/27 94/105/27
f 85/107/28 86/109/28 97/110/28
f 85/107/28 97/110/28 96/108/28
f 86/109/29 87/72/29 98/71/29
f 86/109/29 98/71/29 97/110/29
f 87/72/30 88/111/30 99/112/30
f 87/72/30 99/112/30 98/71/30
f 88/111/31 89/113/31 100/114/31
f 88/111/31 100/114/31 99/112/31
f 89/113/32 90/115/32 101/116/32
f 89/113/32 101/116/32 100/114/32
f 102/117/33 90/115/33 92/118/33
f 90/115/33 102/117/33 103/119/33 101/116/33
f 104/120/34 95/86/34 94/85/34 64/84/34
f 104/120/34 64/84/34 63/83/34
f 94/85/34 96/88/34 67/87/34
f 94/85/34 67/87/34 64/84/34
f 96/88/34 97/90/34 69/89/34
f 96/88/34 69/89/34 67/87/34
f 97/90/34 98/92/34 71/91/34
f 97/90/34 71/91/34 69/89/34
f 98/92/34 99/94/34 73/93/34
f 98/92/34 73/93/34 71/91/34
f 99/94/34 100/96/34 75/95/34
f 99/94/34 75/95/34 73/93/34
f 100/96/34 101/98/34 77/97/34
f 100/96/34 77/97/34 75/95/34
f 105/121/34 101/98/34 103/101/34
f 101/98/34 105/121/34 80/100/34 77/97/34
f 106/62/17 107/63/17 108/64/17 109/65/17
f 106/62/17 109/65/17 110/66/17
f 108/64/18 111/67/18 112/68/18
f 108/64/18 112/68/18 109/65/18
f 111/67/19 113/69/19 114/70/19
f 111/67/19 114/70/19 112/68/19
f 113/69/20 115/71/20 116/72/20
f 113/69/20 116/72/20 114/70/20
f 115/71/21 117/73/21 118/74/21
f 115/71/21 118/74/21 116/72/21
f 117/73/22 119/75/22 120/76/22
f 117/73/22 120/76/22 118/74/22
f 119/75/23 121/77/23 122/78/23
f 119/75/23 122/78/23 120/76/23
f 123/79/24 121/77/24 124/80/24
f 121/77/24 123/79/24 125/81/24 122/78/24
f 126/82/25 110/83/25 109/84/25 127/85/25
f 126/82/25 127/85/25 128/86/25
f 109/84/25 112/87/25 129/88/25
f 109/84/25 129/88/25 127/85/25
f 112/87/25 114/89/25 130/90/25
f 112/87/25 130/90/25 129/88/25
f 114/89/25 116/91/25 131/92/25
f 114/89/25 131/92/25 130/90/25
f 116/91/25 118/93/25 132/94/25
f 116/91/25 132/94/25 131/92/25
f 118/93/25 120/95/25 133/96/25
f 118/93/25 133/96/25 132/94/25
f 120/95/25 122/97/25 134/98/25
f 120/95/25 134/98/25 133/96/25
f 135/99/25 122/97/25 125/100/25
f 122/97/25 135/99/25 136/101/25 134/98/25
f 137/102/26 128/103/26 127/104/26 138/105/26
f 137/102/26 138/105/26 139/106/26
f 127/104/27 129/107/27 140/108/27
f 127/104/27 140/108/27 138/105/27
f 129/107/28 130/109/28 141/110/28
f 129/107/28 141/110/28 140/108/28
f 130/109/29 131/72/29 142/71/29
f 130/109/29 142/71/29 141/110/29
f 131/72/30 132/111/30 143/112/30
f 131/72/30 143/112/30 142/71/30
f 132/111/31 133/113/31 144/114/31
f 132/111/31 144/114/31 143/112/31
f 133/113/32 134/115/32 145/116/32
f 133/113/32 145/116/32 144/114/32
f 146/117/33 134/115/33 136/118/33
f 134/115/33 146/117/33 147/119/33 145/116/33
f 148/120/34 139/86/34 138/85/34 108/84/34
f 148/120/34 108/84/34 107/83/34
f 138/85/34 140/88/34 111/87/34
f 138/85/34 111/87/34 108/84/34
f 140/88/34 141/90/34 113/89/34
f 140/88/34 113/89/34 111/87/34
f 141/90/34 142/92/34 115/91/34
f 141/90/34 115/91/34 113/89/34
f 142/92/34 143/94/34 117/93/34
f 142/92/34 117/93/34 115/91/34
f 143/94/34 144/96/34 119/95/34
f 143/94/34 119/95/34 117/93/34
f 144/96/34 145/98/34 121/97/34
f 144/96/34 121/97/34 119/95/34
f 149/121/34 145/98/34 147/101/34
f 145/98/34 149/121/34 124/100/34 121/97/34
f 150/122/35 151/123/35 152/64/35 153/65/35
f 150/122/35 153/65/35 154/124/35
f 152/64/36 155/67/36 156/68/36
f 152/64/36 156/68/36 153/65/36
f 155/67/37 157/69/37 158/70/37
f 155/67/37 158/70/37 156/68/37
f 157/69/38 159/71/38 160/72/38
f 157/69/38 160/72/38 158/70/38
f 159/71/39 161/73/39 162/74/39
f 159/71/39 162/74/39 160/72/39
f 161/73/40 163/75/40 164/76/40
f 161/73/40 164/76/40 162/74/40
f 163/75/41 165/125/41 166/126/41
f 163/75/41 166/126/41 164/76/41
f 167/127/42 165/125/42 168/128/42
f 165/125/42 167/127/42 169/129/42 166/126/42
f 170/130/25 154/131/25 153/132/25 171/133/25
f 170/130/25 171/133/25 172/134/25
f 153/132/25 156/87/25 173/135/25
f 153/132/25 173/135/25 171/133/25
f 156/87/25 158/136/25 174/137/25
f 156/87/25 174/137/25 173/135/25
f 158/136/25 160/91/25 175/138/25
f 158/136/25 175/138/25 174/137/25
f 160/91/25 162/139/25 176/140/25
f 160/91/25 176/140/25 175/138/25
f 162/139/25 164/95/25 177/141/25
f 162/139/25 177/141/25 176/140/25
f 164/95/25 166/142/25 178/143/25
f 164/95/25 178/143/25 177/141/25
f 179/144/25 166/142/25 169/145/25
f 166/142/25 179/144/25 180/146/25 178/143/25
f 181/147/43 172/148/43 171/149/43 182/150/43
f 181/147/43 182/150/43 183/151/43
f 171/149/44 173/152/44 184/153/44
f 171/149/44 184/153/44 182/150/44
f 173/152/45 174/154/45 185/155/45
f 173/152/45 185/155/45 184/153/45
f 174/154/46 175/72/46 186/71/46
f 174/154/46 186/71/46 185/155/46
f 175/72/47 176/156/47 187/157/47
f 175/72/47 187/157/47 186/71/47
f 176/156/48 177/158/48 188/159/48
f 176/156/48 188/159/48 187/157/48
f 177/158/49 178/160/49 189/161/49
f 177/158/49 189/161/49 188/159/49
f 190/162/50 178/160/50 180/163/50
f 178/160/50 190/162/50 191/164/50 189/161/50
f 192/165/34 183/134/34 182/133/34 152/132/34
f 192/165/34 152/132/34 151/131/34
f 182/133/34 184/135/34 155/87/34
f 182/133/34 155/87/34 152/132/34
f 184/135/34 185/137/34 157/136/34
f 184/135/34 157/136/34 155/87/34
f 185/137/34 186/138/34 159/91/34
f 185/137/34 159/91/34 157/136/34
f 186/138/34 187/140/34 161/139/34
f 186/138/34 161/139/34 159/91/34
f 187/140/34 188/141/34 163/95/34
f 187/140/34 163/95/34 161/139/34
f 188/141/34 189/143/34 165/142/34
f 188/141/34 165/142/34 163/95/34
f 193/166/34 189/143/34 191/146/34
f 189/143/34 193/166/34 168/145/34 165/142/34
f 194/167/51 195/168/51 196/169/51 197/170/51
f 195/168/51 194/167/51 198/171/51 199/172/51
f 200/173/52 201/174/52 202/175/52 203/176/52
f 201/174/52 200/173/52 204/177/52 205/178/52
f 206/179/53 207/180/53 208/181/53 209/182/53
f 207/180/53 206/179/53 210/183/53 211/184/53
f 212/185/54 213/186/54 214/187/54 215/188/54
f 213/186/54 212/185/54 216/189/54 217/190/54
f 218/191/55 219/192/55 205/178/55 204/177/55
f 197/170/55 196/169/55 219/192/55 218/191/55
f 220/193/56 221/194/56 199/172/56 198/171/56
f 215/188/56 214/187/56 221/194/56 220/193/56
f 222/195/57 223/196/57 211/184/57 210/183/57
f 203/197/57 202/198/57 223/196/57 222/195/57
f 224/199/58 225/200/58 217/201/58 216/202/58
f 209/182/58 208/181/58 225/200/58 224/199/58
