# Authored in Blender; exported by tools-export-modern.py
mtllib materials.mtl
s off
v 0.000000000 0.326128476 0.100466501
v 0.000000000 0.240625143 0.100466501
v 0.056846619 0.240625143 0.056846619
v 0.056846619 0.371875048 0.056846619
v 0.000000000 0.371875048 0.100466501
v 0.100466501 0.286371714 0.000000000
v 0.100466501 0.240625143 0.000000000
v 0.100466501 0.371875048 0.000000000
v 0.000000000 0.371875048 0.000000079
v 0.061820343 0.371875048 0.000000000
v 0.000000000 0.371875048 0.000000000
v 0.000000000 0.240625143 0.061820343
v 0.000000000 0.240625143 0.000000079
v 0.000000000 0.230835419 0.092313867
v 0.000000000 0.230451931 0.092510013
v 0.015463591 0.228307486 0.092361450
v 0.009205341 0.241528511 0.086103201
v 0.092361450 0.228307486 0.015463591
v 0.092510013 0.230451931 0.000000000
v 0.092313867 0.230835419 0.000000000
v 0.086103201 0.241528511 0.009205341
v 0.000000000 0.243185817 0.077967224
v 0.000000000 0.244106387 0.076897851
v 0.076897868 0.244106384 0.000000000
v 0.000000000 0.117870122 0.076897874
v 0.078591652 0.130084146 0.000000000
v 0.076897845 0.117870020 0.000000000
v 0.041409651 0.000000000 0.002479567
v 0.043889218 0.000000000 0.000000000
v 0.000000000 0.000000000 0.043889218
v 0.000000000 0.254873669 0.000000000
v 0.000000000 0.248027285 0.048895552
v 0.000000000 0.480030629 0.021888596
v 0.000000000 0.384966350 0.000000106
v 0.013757229 0.493750095 0.013757229
v 0.000000000 0.493750095 0.025047489
v 0.000000000 0.384965971 0.000000000
v 0.025047489 0.493750095 0.000000000
v 0.000000000 1.000000000 0.025047489
v 0.013757229 1.000000000 0.013757229
v 0.025047489 0.708119606 0.000000000
v 0.025047489 1.000000000 0.000000000
v 0.000000000 0.778122867 0.037117164
v 0.000000000 0.540625095 0.037117164
v 0.020386457 0.540625095 0.020386457
v 0.020386457 0.831249952 0.020386457
v 0.000000000 0.831249952 0.037117164
v 0.037117164 0.593752180 0.000000000
v 0.037117164 0.540625095 0.000000000
v 0.037117164 0.831249952 0.000000000
v 0.000000000 0.548865212 0.052807543
v 0.000000000 0.523749828 0.052807543
v 0.029004335 0.523749828 0.029004335
v 0.029004335 0.557499886 0.029004335
v 0.000000000 0.557499886 0.052807543
v 0.052807518 0.532384492 0.000000000
v 0.052807518 0.523749828 0.000000000
v 0.052807518 0.557499886 0.000000000
v 0.000000000 0.557499886 0.025268432
v 0.011768579 0.557499886 0.011768579
v 0.000000000 0.557499886 0.021426787
v 0.045635742 0.557499886 0.000000000
v 0.021426797 0.557499886 0.000000000
v 0.000000000 0.527371359 0.021426787
v 0.011768579 0.523749828 0.011768579
v 0.000000000 0.523749828 0.021426787
v 0.021426797 0.553878351 0.000000000
v 0.021426797 0.523749828 0.000000000
v 0.000000000 0.523749828 0.045635727
v 0.025268416 0.523749828 0.000000000
v 0.000000000 0.684802726 0.052807543
v 0.000000000 0.659687519 0.052807543
v 0.029004335 0.659687519 0.029004335
v 0.029004335 0.693437338 0.029004335
v 0.000000000 0.693437338 0.052807543
v 0.052807518 0.668322122 0.000000000
v 0.052807518 0.659687519 0.000000000
v 0.052807518 0.693437338 0.000000000
v 0.000000000 0.693437338 0.025268432
v 0.011768579 0.693437338 0.011768579
v 0.000000000 0.693437338 0.021426787
v 0.045635742 0.693437338 0.000000000
v 0.021426797 0.693437338 0.000000000
v 0.000000000 0.663309024 0.021426787
v 0.011768579 0.659687519 0.011768579
v 0.000000000 0.659687519 0.021426787
v 0.021426797 0.689815829 0.000000000
v 0.021426797 0.659687519 0.000000000
v 0.000000000 0.659687519 0.045635727
v 0.025268416 0.659687519 0.000000000
v 0.000000000 0.839490369 0.052807543
v 0.000000000 0.814375162 0.052807543
v 0.029004335 0.814375162 0.029004335
v 0.029004335 0.848124981 0.029004335
v 0.000000000 0.848124981 0.052807543
v 0.052807518 0.823009765 0.000000000
v 0.052807518 0.814375162 0.000000000
v 0.052807518 0.848124981 0.000000000
v 0.000000000 0.848124981 0.025268432
v 0.011768579 0.848124981 0.011768579
v 0.000000000 0.848124981 0.021426787
v 0.045635742 0.848124981 0.000000000
v 0.021426797 0.848124981 0.000000000
v 0.000000000 0.817996667 0.021426787
v 0.011768579 0.814375162 0.011768579
v 0.000000000 0.814375162 0.021426787
v 0.021426797 0.844503472 0.000000000
v 0.021426797 0.814375162 0.000000000
v 0.000000000 0.814375162 0.045635727
v 0.025268416 0.814375162 0.000000000
v 0.000000000 0.406625656 0.041944670
v 0.000000000 0.388750076 0.041944670
v 0.023037910 0.388750076 0.023037910
v 0.023037910 0.411250114 0.023037910
v 0.000000000 0.411250114 0.041944670
v 0.041944670 0.393374535 0.000000000
v 0.041944670 0.388750076 0.000000000
v 0.041944670 0.411250114 0.000000000
v 0.000000000 0.411250114 0.017693920
v 0.008453846 0.411250114 0.008453846
v 0.000000000 0.411250114 0.015391772
v 0.036993403 0.411250114 0.000000000
v 0.015391764 0.411250114 0.000000000
v 0.000000000 0.390495716 0.015391772
v 0.008453846 0.388750076 0.008453846
v 0.000000000 0.388750076 0.015391772
v 0.015391764 0.409504476 0.000000000
v 0.015391764 0.388750076 0.000000000
v 0.000000000 0.388750076 0.036993416
v 0.017693920 0.388750076 0.000000000
vt 0.099702381 0.080248567
vt 0.099702381 0.003906250
vt 0.103932038 0.003906250
vt 0.103932038 0.121093750
vt 0.099702381 0.121093750
vt 0.025297620 0.044751433
vt 0.021067964 0.003906250
vt 0.025297620 0.003906250
vt 0.025297620 0.121093750
vt 0.021067964 0.121093750
vt 0.099702381 0.017822434
vt 0.103932038 0.021067964
vt 0.099702384 0.025297614
vt 0.104302107 0.025297623
vt 0.107177568 0.025297620
vt 0.099702384 0.025297620
vt 0.099702378 0.020697895
vt 0.010336090 0.119770346
vt 0.010319655 0.119727947
vt 0.011439733 0.119727947
vt 0.011515824 0.121093750
vt 0.111049108 0.119727947
vt 0.120905762 0.119727947
vt 0.120781927 0.119770346
vt 0.111049116 0.121093750
vt 0.018451334 0.121001949
vt 0.018968291 0.121093750
vt 0.010298293 0.119770339
vt 0.017640838 0.120862922
vt 0.010298297 0.121093750
vt 0.011439733 0.106059958
vt 0.112118476 0.107899536
vt 0.111049108 0.106019170
vt 0.086458414 0.091472074
vt 0.089670313 0.091461064
vt 0.032818567 0.091472074
vt 0.062841390 0.050528432
vt 0.031796269 0.029889412
vt 0.013950895 0.010298293
vt 0.111049116 0.010298295
vt 0.111115066 0.018069518
vt 0.013950895 0.017838695
vt 0.102822585 0.010253412
vt 0.102822593 0.004674519
vt 0.103932038 0.011058546
vt 0.102822584 0.011058546
vt 0.022177408 0.004674519
vt 0.022177417 0.004674497
vt 0.022177416 0.011058546
vt 0.021067962 0.011058546
vt 0.102822584 0.040768047
vt 0.103932038 0.040768047
vt 0.022177416 0.023638916
vt 0.022177416 0.040768047
vt 0.021067962 0.040768047
vt 0.105775868 0.349671528
vt 0.105775868 0.253906250
vt 0.106445312 0.253906250
vt 0.106445312 0.371093750
vt 0.105775868 0.371093750
vt 0.107114757 0.275328472
vt 0.107114757 0.253906250
vt 0.107114757 0.371093750
vt 0.101660395 0.091112297
vt 0.101660395 0.003906250
vt 0.101660395 0.121093750
vt 0.023339601 0.033887672
vt 0.021067960 0.003906250
vt 0.023339601 0.003906250
vt 0.023339601 0.121093750
vt 0.021067960 0.121093750
vt 0.101660401 0.021360555
vt 0.101660395 0.019203672
vt 0.103932038 0.021067960
vt 0.102582127 0.022417875
vt 0.101660403 0.021661436
vt 0.105234625 0.023339603
vt 0.105796325 0.023339601
vt 0.103338566 0.023339600
vt 0.101660403 0.016480987
vt 0.101660403 0.121093750
vt 0.102582127 0.121093750
vt 0.102582127 0.003906250
vt 0.101660403 0.003906250
vt 0.023339600 0.108518999
vt 0.022417875 0.121093750
vt 0.023339600 0.121093750
vt 0.023339600 0.003906250
vt 0.022417875 0.003906250
vt 0.101660398 0.019765375
vt 0.103639445 0.023339599
vt 0.102107107 0.097008069
vt 0.102107107 0.003906250
vt 0.102107107 0.121093750
vt 0.022892893 0.027991931
vt 0.021067962 0.003906250
vt 0.022892893 0.003906250
vt 0.022892893 0.121093750
vt 0.021067962 0.121093750
vt 0.102107108 0.021491285
vt 0.102107107 0.019570281
vt 0.103932038 0.021067962
vt 0.102776773 0.022223229
vt 0.102107107 0.021673647
vt 0.105037509 0.022892893
vt 0.105429720 0.022892893
vt 0.103326354 0.022892894
vt 0.102107107 0.012998110
vt 0.102776773 0.121093750
vt 0.102776773 0.003906250
vt 0.022892894 0.112001900
vt 0.022223229 0.121093750
vt 0.022892894 0.121093750
vt 0.022892894 0.003906250
vt 0.022223229 0.003906250
vt 0.102107105 0.019962490
vt 0.103508717 0.022892894
vn 0.608760886 0.000000000 0.793353757
vn 0.793353757 0.000000000 0.608760886
vn 0.000000000 1.000000000 0.000000000
vn 0.000000000 -1.000000000 0.000000000
vn 0.071519187 0.454204464 0.888022134
vn 0.888022134 0.454204464 0.071519187
vn -0.402873444 0.693641956 0.597121282
vn -0.402875846 0.693638777 0.597123353
vn 0.587598947 0.556286757 0.587598947
vn 0.597123535 0.693638726 -0.402875665
vn -0.009531976 -0.137353036 0.990476292
vn 0.990476311 -0.137352899 -0.009531957
vn 0.990476124 -0.137355331 -0.009516343
vn 0.693638100 -0.194248220 0.693638100
vn 0.137353558 0.980952598 0.137353558
vn 0.624577509 -0.175231256 0.761049895
vn 0.624577357 -0.175230994 0.761050079
vn 0.761050026 -0.175231381 0.624577314
vn 0.634393101 0.000000000 0.773010603
vn 0.773010603 0.000000000 0.634393101
vn 0.634392684 0.000000000 0.773010946
vn 0.773010946 0.000000000 0.634392684
vn 0.634392715 0.000000000 0.773010920
vn 0.773011247 0.000000000 0.634392317
vn -0.634392652 0.000000000 -0.773010972
vn -0.773010634 0.000000000 -0.634393064
vn 0.634393986 0.000000000 0.773009877
vn 0.773009877 0.000000000 0.634393986
vn -0.634395117 0.000000000 -0.773008949
vn -0.773009289 0.000000000 -0.634394702
usemtl mat_2
f 1/1/1 2/2/1 3/3/1 4/4/1
f 1/1/1 4/4/1 5/5/1
f 6/6/2 3/7/2 7/8/2
f 3/7/2 6/6/2 8/9/2 4/10/2
f 5/11/3 4/12/3 9/13/3
f 10/14/3 4/12/3 8/15/3
f 11/16/3 4/12/3 10/14/3
f 12/17/4 13/13/4 3/12/4
f 12/17/4 3/12/4 2/11/4
f 13/13/4 7/15/4 3/12/4
f 14/18/5 15/19/5 16/20/5 17/21/5
f 18/22/6 19/23/6 20/24/6 21/25/6
f 22/26/7 17/21/7 23/27/7
f 14/18/8 17/21/8 22/26/8
f 16/20/9 18/22/9 21/25/9
f 16/20/9 21/25/9 17/21/9
f 20/28/10 24/29/10 21/30/10
f 25/31/11 16/20/11 15/19/11
f 26/32/12 19/23/12 18/22/12
f 26/32/13 18/22/13 27/33/13
f 28/34/14 29/35/14 27/33/14 18/22/14
f 25/31/14 30/36/14 28/34/14
f 25/31/14 28/34/14 18/22/14
f 25/31/14 18/22/14 16/20/14
f 31/37/15 32/38/15 17/39/15
f 31/37/15 17/39/15 21/40/15
f 31/37/15 21/40/15 24/41/15
f 23/42/15 17/39/15 32/38/15
f 33/43/16 34/44/16 35/45/16
f 33/43/17 35/45/17 36/46/17
f 34/47/18 37/48/18 38/49/18 35/50/18
f 39/51/19 36/46/19 35/45/19 40/52/19
f 41/53/20 35/50/20 38/49/20
f 42/54/20 40/55/20 35/50/20 41/53/20
usemtl mat_3
f 43/56/21 44/57/21 45/58/21 46/59/21
f 43/56/21 46/59/21 47/60/21
f 48/61/22 45/58/22 49/62/22
f 45/58/22 48/61/22 50/63/22 46/59/22
usemtl mat_2
f 51/64/23 52/65/23 53/3/23 54/4/23
f 51/64/23 54/4/23 55/66/23
f 56/67/24 53/68/24 57/69/24
f 53/68/24 56/67/24 58/70/24 54/71/24
f 59/72/3 55/73/3 54/74/3 60/75/3
f 59/72/3 60/75/3 61/76/3
f 62/77/3 54/74/3 58/78/3
f 54/74/3 62/77/3 63/79/3 60/75/3
f 64/80/25 61/81/25 60/82/25 65/83/25
f 64/80/25 65/83/25 66/84/25
f 67/85/26 60/86/26 63/87/26
f 60/86/26 67/85/26 68/88/26 65/89/26
f 69/90/4 66/76/4 65/75/4 53/74/4
f 69/90/4 53/74/4 52/73/4
f 70/91/4 65/75/4 68/79/4
f 65/75/4 70/91/4 57/78/4 53/74/4
f 71/64/23 72/65/23 73/3/23 74/4/23
f 71/64/23 74/4/23 75/66/23
f 76/67/24 73/68/24 77/69/24
f 73/68/24 76/67/24 78/70/24 74/71/24
f 79/72/3 75/73/3 74/74/3 80/75/3
f 79/72/3 80/75/3 81/76/3
f 82/77/3 74/74/3 78/78/3
f 74/74/3 82/77/3 83/79/3 80/75/3
f 84/80/25 81/81/25 80/82/25 85/83/25
f 84/80/25 85/83/25 86/84/25
f 87/85/26 80/86/26 83/87/26
f 80/86/26 87/85/26 88/88/26 85/89/26
f 89/90/4 86/76/4 85/75/4 73/74/4
f 89/90/4 73/74/4 72/73/4
f 90/91/4 85/75/4 88/79/4
f 85/75/4 90/91/4 77/78/4 73/74/4
f 91/64/23 92/65/23 93/3/23 94/4/23
f 91/64/23 94/4/23 95/66/23
f 96/67/24 93/68/24 97/69/24
f 93/68/24 96/67/24 98/70/24 94/71/24
f 99/72/3 95/73/3 94/74/3 100/75/3
f 99/72/3 100/75/3 101/76/3
f 102/77/3 94/74/3 98/78/3
f 94/74/3 102/77/3 103/79/3 100/75/3
f 104/80/25 101/81/25 100/82/25 105/83/25
f 104/80/25 105/83/25 106/84/25
f 107/85/26 100/86/26 103/87/26
f 100/86/26 107/85/26 108/88/26 105/89/26
f 109/90/4 106/76/4 105/75/4 93/74/4
f 109/90/4 93/74/4 92/73/4
f 110/91/4 105/75/4 108/79/4
f 105/75/4 110/91/4 97/78/4 93/74/4
f 111/92/27 112/93/27 113/3/27 114/4/27
f 111/92/27 114/4/27 115/94/27
f 116/95/28 113/96/28 117/97/28
f 113/96/28 116/95/28 118/98/28 114/99/28
f 119/100/3 115/101/3 114/102/3 120/103/3
f 119/100/3 120/103/3 121/104/3
f 122/105/3 114/102/3 118/106/3
f 114/102/3 122/105/3 123/107/3 120/103/3
f 124/108/29 121/94/29 120/109/29 125/110/29
f 124/108/29 125/110/29 126/93/29
f 127/111/30 120/112/30 123/113/30
f 120/112/30 127/111/30 128/114/30 125/115/30
f 129/116/4 126/104/4 125/103/4 113/102/4
f 129/116/4 113/102/4 112/101/4
f 130/117/4 125/103/4 128/107/4
f 125/103/4 130/117/4 117/106/4 113/102/4
