# Authored in Blender; exported by tools-export-modern.py
mtllib materials.mtl
s off
v 0.024784437 0.000000000 0.999679470
v 0.013757229 0.000000000 0.986242771
v 0.013757229 0.209374905 0.986242771
v 0.025047489 0.000000000 1.000000000
v 0.025047489 0.209374905 1.000000000
v 0.000000000 0.000000000 0.974952503
v 0.000000000 0.209374905 0.974952503
v 0.000000000 0.269624755 1.000000000
v 0.000000000 0.269624629 0.999999936
v 0.000000000 0.221254304 0.979891084
v 0.037117124 0.015623380 1.000000000
v 0.037117124 0.000000000 1.000000000
v 0.020386457 0.000000000 0.979613602
v 0.020386457 0.068750381 0.979613602
v 0.037117124 0.068750381 1.000000000
v 0.000000000 0.000000000 0.962882874
v 0.000000000 0.068750381 0.962882874
v 0.052807481 0.076990166 1.000000000
v 0.052807481 0.051875114 1.000000000
v 0.029004335 0.051875114 0.970995724
v 0.029004335 0.085624695 0.970995724
v 0.052807481 0.085624695 1.000000000
v 0.000000000 0.060509666 0.947192502
v 0.000000000 0.051875114 0.947192502
v 0.000000000 0.085624695 0.947192502
v 0.025268416 0.085624695 1.000000000
v 0.011768579 0.085624695 0.988231421
v 0.021426797 0.085624695 1.000000000
v 0.000000000 0.085624695 0.954364319
v 0.000000000 0.085624695 0.978573213
v 0.021426797 0.055496598 1.000000000
v 0.011768579 0.051875114 0.988231421
v 0.021426797 0.051875114 1.000000000
v 0.000000000 0.082003216 0.978573213
v 0.000000000 0.051875114 0.978573213
v 0.045635716 0.051875114 1.000000000
v 0.000000000 0.051875114 0.974731568
v 0.041944748 0.225375542 1.000000000
v 0.041944748 0.207499981 1.000000000
v 0.023037910 0.207499981 0.976961970
v 0.023037910 0.230000019 0.976961970
v 0.041944748 0.230000019 1.000000000
v 0.000000000 0.212124439 0.958055248
v 0.000000000 0.207499981 0.958055248
v 0.000000000 0.230000019 0.958055248
v 0.017694039 0.230000019 1.000000000
v 0.008453846 0.230000019 0.991546035
v 0.015391854 0.230000019 1.000000000
v 0.000000000 0.230000019 0.963006498
v 0.000000000 0.230000019 0.984608123
v 0.015391854 0.209245642 1.000000000
v 0.008453846 0.207499981 0.991546035
v 0.015391854 0.207499981 1.000000000
v 0.000000000 0.228254379 0.984608123
v 0.000000000 0.207499981 0.984608123
v 0.036993462 0.207499981 1.000000000
v 0.000000000 0.207499981 0.982305976
vt 0.102848433 0.099453493
vt 0.103932038 0.099453493
vt 0.103932038 0.111740753
vt 0.102822584 0.099453493
vt 0.102822584 0.111740753
vt 0.102822581 0.115276546
vt 0.102822586 0.115276539
vt 0.102822584 0.112437902
vt 0.017885245 0.349671579
vt 0.017885245 0.343371831
vt 0.018554688 0.343371831
vt 0.018554688 0.371093750
vt 0.017885245 0.371093750
vt 0.019224132 0.343371831
vt 0.019224132 0.371093750
vt 0.101660401 0.091112374
vt 0.101660401 0.003906250
vt 0.103932038 0.003906250
vt 0.103932038 0.121093750
vt 0.101660401 0.121093750
vt 0.101660395 0.033887703
vt 0.101660395 0.003906250
vt 0.101660395 0.121093750
vt 0.103639445 0.101660402
vt 0.105796322 0.101660401
vt 0.103932038 0.103932038
vt 0.102582127 0.102582127
vt 0.103338566 0.101660402
vt 0.101660398 0.105234624
vt 0.101660395 0.105796327
vt 0.101660403 0.103338565
vt 0.101660402 0.016481001
vt 0.101660402 0.121093750
vt 0.102582127 0.121093750
vt 0.102582127 0.003906250
vt 0.101660402 0.003906250
vt 0.101660403 0.108519013
vt 0.101660403 0.121093750
vt 0.101660403 0.003906250
vt 0.105234623 0.101660400
vt 0.101660401 0.103639447
vt 0.102107100 0.097007970
vt 0.102107100 0.003906250
vt 0.102107100 0.121093750
vt 0.102107107 0.027991931
vt 0.102107107 0.003906250
vt 0.102107107 0.121093750
vt 0.103508727 0.102107100
vt 0.105429726 0.102107100
vt 0.102776773 0.102776773
vt 0.103326361 0.102107099
vt 0.102107105 0.105037510
vt 0.102107107 0.105429720
vt 0.102107107 0.103326355
vt 0.102107099 0.012998218
vt 0.102107099 0.121093750
vt 0.102776773 0.121093750
vt 0.102776773 0.003906250
vt 0.102107099 0.003906250
vt 0.102107107 0.112001890
vt 0.105037514 0.102107099
vt 0.102107108 0.103508717
vn 0.773010603 0.000000000 -0.634393101
vn 0.634393351 0.000000000 -0.773010398
vn 0.735942578 0.305951200 -0.603972173
vn 0.603972501 0.305950761 -0.735942491
vn 0.603972661 0.305951090 -0.735942223
vn 0.773010780 0.000000000 -0.634392887
vn 0.634393178 0.000000000 -0.773010541
vn 0.773011084 0.000000000 -0.634392516
vn 0.634392958 0.000000000 -0.773010721
vn 0.000000000 1.000000000 0.000000000
vn -0.773010634 0.000000000 0.634393064
vn -0.634392652 0.000000000 0.773010972
vn 0.000000000 -1.000000000 0.000000000
vn 0.773010208 0.000000000 -0.634393583
vn 0.634393249 0.000000000 -0.773010482
vn -0.773009630 0.000000000 0.634394288
vn -0.634394359 0.000000000 0.773009571
usemtl mat_2
f 1/1/1 2/2/1 3/3/1
f 4/4/1 1/1/1 3/3/1 5/5/1
f 2/2/2 6/4/2 7/5/2 3/3/2
f 8/6/3 5/5/3 3/3/3 9/7/3
f 10/8/4 3/3/4 7/5/4
f 9/7/5 3/3/5 10/8/5
usemtl mat_3
f 11/9/6 12/10/6 13/11/6 14/12/6
f 11/9/6 14/12/6 15/13/6
f 13/11/7 16/14/7 17/15/7 14/12/7
usemtl mat_2
f 18/16/8 19/17/8 20/18/8 21/19/8
f 18/16/8 21/19/8 22/20/8
f 23/21/9 20/18/9 24/22/9
f 20/18/9 23/21/9 25/23/9 21/19/9
f 26/24/10 22/25/10 21/26/10 27/27/10
f 26/24/10 27/27/10 28/28/10
f 29/29/10 21/26/10 25/30/10
f 21/26/10 29/29/10 30/31/10 27/27/10
f 31/32/11 28/33/11 27/34/11 32/35/11
f 31/32/11 32/35/11 33/36/11
f 34/37/12 27/34/12 30/38/12
f 27/34/12 34/37/12 35/39/12 32/35/12
f 36/40/13 33/28/13 32/27/13 20/26/13
f 36/40/13 20/26/13 19/25/13
f 37/41/13 32/27/13 35/31/13
f 32/27/13 37/41/13 24/30/13 20/26/13
f 38/42/14 39/43/14 40/18/14 41/19/14
f 38/42/14 41/19/14 42/44/14
f 43/45/15 40/18/15 44/46/15
f 40/18/15 43/45/15 45/47/15 41/19/15
f 46/48/10 42/49/10 41/26/10 47/50/10
f 46/48/10 47/50/10 48/51/10
f 49/52/10 41/26/10 45/53/10
f 41/26/10 49/52/10 50/54/10 47/50/10
f 51/55/16 48/56/16 47/57/16 52/58/16
f 51/55/16 52/58/16 53/59/16
f 54/60/17 47/57/17 50/47/17
f 47/57/17 54/60/17 55/46/17 52/58/17
f 56/61/13 53/51/13 52/50/13 40/26/13
f 56/61/13 40/26/13 39/49/13
f 57/62/13 52/50/13 55/54/13
f 52/50/13 57/62/13 44/53/13 40/26/13
