# Authored in Blender; exported by tools-export-modern.py
mtllib materials.mtl
s off
v 0.906912676 0.000000000 0.082906819
v 0.895885468 0.000000000 0.096343517
v 0.895885468 0.209374905 0.096343517
v 0.974952511 0.000000000 0.000000000
v 0.974952511 0.209374905 0.000000000
v 0.836937785 0.000000000 0.206626785
v 0.828743815 0.000000000 0.221956611
v 0.828743815 0.209374905 0.221956611
v 0.792444142 0.000000000 0.341620852
v 0.787398338 0.000000000 0.358254671
v 0.787398338 0.209374905 0.358254671
v 0.775141281 0.000000000 0.482701396
v 0.773437500 0.000000000 0.500000000
v 0.773437500 0.209374905 0.500000000
v 0.785694557 0.000000000 0.624446725
v 0.787398338 0.000000000 0.641745329
v 0.787398338 0.209374905 0.641745329
v 0.823698012 0.000000000 0.761409570
v 0.828743815 0.000000000 0.778043389
v 0.828743815 0.209374905 0.778043389
v 0.887691498 0.000000000 0.888326657
v 0.895885468 0.000000000 0.903656483
v 0.895885468 0.209374905 0.903656483
v 0.974952511 0.000000000 1.000000000
v 0.974952511 0.209374905 1.000000000
v 0.979891084 0.221254304 0.000000000
v 0.926091075 0.321875095 0.116526365
v 1.000000000 0.269624629 0.000000000
v 1.000000000 0.269624908 0.000000000
v 1.000000000 0.321875095 0.026468175
v 0.862306595 0.321875095 0.235858679
v 0.823028326 0.321875095 0.365341902
v 0.809765577 0.321875095 0.500000000
v 0.823028326 0.321875095 0.634658098
v 0.862306595 0.321875095 0.764141321
v 0.926091075 0.321875095 0.883473635
v 1.000000000 0.310308860 0.979390854
v 1.000000000 0.269624908 1.000000000
v 1.000000000 0.269624629 1.000000000
v 1.000000000 0.321875095 0.973531825
v 1.000000000 0.336784191 0.055469806
v 0.974420309 0.368749619 0.148818851
v 1.000000000 0.368749619 0.117649910
v 0.916007042 0.368749619 0.258102179
v 0.880036473 0.368749619 0.376681566
v 0.867890596 0.368749619 0.500000000
v 0.880036473 0.368749619 0.623318434
v 0.916007042 0.368749619 0.741897821
v 0.974420309 0.368749619 0.851181149
v 1.000000000 0.349167060 0.920442708
v 1.000000000 0.368749619 0.882350090
v 1.000000000 0.368749619 0.123239168
v 1.000000000 0.368749619 0.876760823
v 1.000000000 0.368749619 0.197143513
v 1.000000000 0.368749619 0.868272960
v 1.000000000 0.368749619 0.296524506
v 1.000000000 0.368749619 0.556219713
v 1.000000000 0.368749619 0.400543797
v 0.909741128 0.000000000 0.064753475
v 0.888090372 0.000000000 0.091135025
v 0.888090372 0.068750381 0.091135025
v 0.962882876 0.000000000 0.000000000
v 0.962882876 0.068750381 0.000000000
v 0.836170411 0.000000000 0.188270398
v 0.820082426 0.000000000 0.218368888
v 0.820082426 0.068750381 0.218368888
v 0.788110203 0.000000000 0.323766976
v 0.778203249 0.000000000 0.356425762
v 0.778203249 0.068750381 0.356425762
v 0.767407568 0.000000000 0.466036024
v 0.764062405 0.000000000 0.500000000
v 0.764062405 0.068750381 0.500000000
v 0.774858086 0.000000000 0.609610262
v 0.778203249 0.000000000 0.643574238
v 0.778203249 0.068750381 0.643574238
v 0.810175472 0.000000000 0.748972326
v 0.820082426 0.000000000 0.781631112
v 0.820082426 0.068750381 0.781631112
v 0.872002387 0.000000000 0.878766485
v 0.888090372 0.000000000 0.908864975
v 0.888090372 0.068750381 0.908864975
v 0.962882836 0.015623253 1.000000000
v 0.957962787 0.000000000 0.994004894
v 0.962882836 0.000000000 1.000000000
v 0.962882836 0.068750381 1.000000000
v 0.947192519 0.060509643 0.000000000
v 0.947192519 0.051875114 0.000000000
v 0.877956867 0.051875114 0.084364057
v 0.877956867 0.085624695 0.084364057
v 0.947192519 0.085624695 0.000000000
v 0.808822632 0.051875114 0.213704944
v 0.808822632 0.085624695 0.213704944
v 0.766250014 0.051875114 0.354048014
v 0.766250014 0.085624695 0.354048014
v 0.751875043 0.051875114 0.500000000
v 0.751875043 0.085624695 0.500000000
v 0.766250014 0.051875114 0.645951986
v 0.766250014 0.085624695 0.645951986
v 0.808822632 0.051875114 0.786295056
v 0.808822632 0.085624695 0.786295056
v 0.877956867 0.051875114 0.915635943
v 0.877956867 0.085624695 0.915635943
v 0.947192482 0.076990153 1.000000000
v 0.947192482 0.051875114 1.000000000
v 0.947192482 0.085624695 1.000000000
v 0.954364284 0.085624695 0.000000000
v 0.898223877 0.085624695 0.097905993
v 0.978573203 0.085624695 0.000000000
v 0.831342220 0.085624695 0.223032832
v 0.790156603 0.085624695 0.358803391
v 0.776250005 0.085624695 0.500000000
v 0.790156603 0.085624695 0.641196609
v 0.831342220 0.085624695 0.776967168
v 0.898223877 0.085624695 0.902094007
v 0.974731584 0.085624695 1.000000000
v 0.978573203 0.085624695 1.000000000
v 0.978573203 0.082003212 0.000000000
v 0.898223877 0.051875114 0.097905993
v 0.978573203 0.051875114 0.000000000
v 0.831342220 0.051875114 0.223032832
v 0.790156603 0.051875114 0.358803391
v 0.776250005 0.051875114 0.500000000
v 0.790156603 0.051875114 0.641196609
v 0.831342220 0.051875114 0.776967168
v 0.898223877 0.051875114 0.902094007
v 0.978573203 0.055496598 1.000000000
v 0.978573203 0.051875114 1.000000000
v 0.974731584 0.051875114 0.000000000
v 0.954364258 0.051875114 1.000000000
v 0.958055158 0.212124458 0.000000000
v 0.958055158 0.207499981 0.000000000
v 0.884972334 0.207499981 0.089051723
v 0.884972334 0.230000019 0.089051723
v 0.958055158 0.230000019 0.000000000
v 0.816617966 0.207499981 0.216933846
v 0.816617966 0.230000019 0.216933846
v 0.774525404 0.207499981 0.355694175
v 0.774525404 0.230000019 0.355694175
v 0.760312557 0.207499981 0.500000000
v 0.760312557 0.230000019 0.500000000
v 0.774525404 0.207499981 0.644305825
v 0.774525404 0.230000019 0.644305825
v 0.816617966 0.207499981 0.783066154
v 0.816617966 0.230000019 0.783066154
v 0.884972334 0.207499981 0.910948277
v 0.884972334 0.230000019 0.910948277
v 0.958055235 0.225375561 1.000000000
v 0.958055235 0.207499981 1.000000000
v 0.958055235 0.230000019 1.000000000
v 0.963006441 0.230000019 0.000000000
v 0.902121305 0.230000019 0.100510240
v 0.984608036 0.230000019 0.000000000
v 0.835672855 0.230000019 0.224826694
v 0.794754028 0.230000019 0.359717846
v 0.780937433 0.230000019 0.500000000
v 0.794754028 0.230000019 0.640282154
v 0.835672855 0.230000019 0.775173306
v 0.902121305 0.230000019 0.899489760
v 0.982305971 0.230000019 1.000000000
v 0.984608126 0.230000019 1.000000000
v 0.984608036 0.228254358 0.000000000
v 0.902121305 0.207499981 0.100510240
v 0.984608036 0.207499981 0.000000000
v 0.835672855 0.207499981 0.224826694
v 0.794754028 0.207499981 0.359717846
v 0.780937433 0.207499981 0.500000000
v 0.794754028 0.207499981 0.640282154
v 0.835672855 0.207499981 0.775173306
v 0.902121305 0.207499981 0.899489760
v 0.984608126 0.209245619 1.000000000
v 0.984608126 0.207499981 1.000000000
v 0.982305852 0.207499981 0.000000000
v 0.963006500 0.207499981 1.000000000
v 0.778526664 0.240312576 0.416095972
v 0.780647516 0.240312576 0.414504409
v 0.778791189 0.242187500 0.414239764
v 0.785410285 0.240312576 0.381092191
v 0.783818603 0.240312576 0.378971338
v 0.783554077 0.242187500 0.380827546
v 0.764328122 0.240312576 0.376193047
v 0.762207270 0.240312576 0.377784610
v 0.764063597 0.242187500 0.378049254
v 0.759036183 0.240312576 0.413317680
v 0.759300709 0.242187500 0.411461473
v 0.757444501 0.240312576 0.411196828
v 0.778811892 0.000000000 0.415881927
v 0.780647516 0.000000000 0.414504409
v 0.778526664 0.000000000 0.416095972
v 0.785196223 0.000000000 0.380806962
v 0.783818603 0.000000000 0.378971338
v 0.785410285 0.000000000 0.381092191
v 0.764042894 0.000000000 0.376407092
v 0.762207270 0.000000000 0.377784610
v 0.764328122 0.000000000 0.376193047
v 0.757658562 0.000000000 0.411482056
v 0.759036183 0.000000000 0.413317680
v 0.757444501 0.000000000 0.411196828
v 0.784769752 0.000000000 0.385585720
v 0.775905436 0.000000000 0.415722326
v 0.766949350 0.000000000 0.376566692
v 0.758085034 0.000000000 0.406703299
v 0.946875095 0.396874905 0.532812476
v 0.954725027 0.436339378 0.532812476
v 0.954725027 0.436339378 0.467187524
v 0.946875095 0.396874905 0.467187524
v 0.977079630 0.469795227 0.532812476
v 0.977079630 0.469795227 0.467187524
v 1.000000000 0.485110428 0.487853596
v 1.000000000 0.485110428 0.532812476
v 1.000000000 0.485110428 0.467187524
v 1.000000000 0.308639708 0.512146404
v 1.000000000 0.308639708 0.532812476
v 0.977079630 0.323954582 0.532812476
v 0.977079630 0.323954582 0.467187524
v 1.000000000 0.308639708 0.467187524
v 0.954725027 0.357410908 0.532812476
v 0.954725027 0.357410908 0.467187524
v 0.995693207 0.419369698 0.467187524
v 0.991218805 0.396874905 0.467187524
v 1.000000000 0.438109555 0.467187524
v 1.000000000 0.446874857 0.467187524
v 1.000000000 0.425815100 0.467187524
v 1.000000000 0.461334779 0.467187524
v 1.000000000 0.346874952 0.467187524
v 0.995693207 0.374380112 0.467187524
v 1.000000000 0.367934709 0.467187524
v 0.995693207 0.419369698 0.532812476
v 0.991218805 0.396874905 0.532812476
v 1.000000000 0.425815100 0.489368254
v 1.000000000 0.425815100 0.532812476
v 1.000000000 0.367934709 0.510631746
v 0.995693207 0.374380112 0.532812476
v 1.000000000 0.367934709 0.532812476
v 1.000000000 0.446874857 0.532812476
v 1.000000000 0.332415247 0.532812476
v 1.000000000 0.346874952 0.532812476
v 1.000000000 0.355640329 0.532812476
vt 0.096136548 0.099453493
vt 0.095052943 0.099453493
vt 0.095052943 0.111740753
vt 0.102822584 0.099453493
vt 0.102822584 0.111740753
vt 0.086159133 0.099453493
vt 0.084922858 0.099453493
vt 0.084922858 0.111740753
vt 0.075272513 0.099453493
vt 0.073931076 0.099453493
vt 0.073931076 0.111740753
vt 0.063895049 0.099453493
vt 0.062500000 0.099453493
vt 0.062500000 0.111740753
vt 0.052463976 0.099453493
vt 0.051068928 0.099453493
vt 0.051068928 0.111740753
vt 0.041418580 0.099453493
vt 0.040077142 0.099453493
vt 0.040077142 0.111740753
vt 0.031183332 0.099453493
vt 0.029947056 0.099453493
vt 0.029947056 0.111740753
vt 0.022177416 0.099453493
vt 0.022177416 0.111740753
vt 0.102822584 0.112437902
vt 0.093425296 0.118342884
vt 0.102822586 0.115276539
vt 0.102822581 0.115276555
vt 0.100688048 0.118342884
vt 0.083801717 0.118342884
vt 0.073359519 0.118342884
vt 0.062500000 0.118342884
vt 0.051640481 0.118342884
vt 0.041198283 0.118342884
vt 0.031574704 0.118342884
vt 0.023839448 0.117664114
vt 0.022177418 0.115276555
vt 0.022177413 0.115276539
vt 0.024311950 0.118342884
vt 0.022177412 0.098349209
vt 0.022177412 0.100688048
vt 0.016217021 0.093425296
vt 0.020114535 0.090821065
vt 0.022177415 0.093334688
vt 0.011073111 0.083801717
vt 0.015403797 0.082007885
vt 0.007905508 0.073359519
vt 0.012502938 0.072445035
vt 0.006835937 0.062500000
vt 0.011523436 0.062500000
vt 0.007905508 0.051640481
vt 0.012502938 0.052554965
vt 0.011073111 0.041198283
vt 0.015403797 0.042992115
vt 0.016217021 0.031574704
vt 0.020114535 0.034178939
vt 0.022177417 0.028593327
vt 0.022177412 0.024311950
vt 0.022177415 0.031665314
vt 0.022177413 0.092883942
vt 0.022177413 0.032116061
vt 0.022177413 0.086923911
vt 0.022177414 0.032800567
vt 0.022177416 0.078909314
vt 0.022177416 0.057966154
vt 0.022177415 0.070520662
vt 0.050647362 0.343371831
vt 0.051513672 0.343371831
vt 0.051513672 0.371093750
vt 0.048521005 0.343371831
vt 0.048521005 0.371093750
vt 0.054309471 0.343371831
vt 0.055175781 0.343371831
vt 0.055175781 0.371093750
vt 0.057971581 0.343371831
vt 0.058837891 0.343371831
vt 0.058837891 0.371093750
vt 0.061633690 0.343371831
vt 0.062500000 0.343371831
vt 0.062500000 0.371093750
vt 0.065295799 0.343371831
vt 0.066162109 0.343371831
vt 0.066162109 0.371093750
vt 0.068957909 0.343371831
vt 0.069824219 0.343371831
vt 0.069824219 0.371093750
vt 0.072620018 0.343371831
vt 0.073486328 0.343371831
vt 0.073486328 0.371093750
vt 0.076478993 0.349671528
vt 0.076282128 0.343371831
vt 0.076478993 0.343371831
vt 0.076478993 0.371093750
vt 0.101660401 0.033887626
vt 0.101660401 0.003906250
vt 0.095052943 0.003906250
vt 0.095052943 0.121093750
vt 0.101660401 0.121093750
vt 0.084922858 0.003906250
vt 0.084922858 0.121093750
vt 0.073931076 0.003906250
vt 0.073931076 0.121093750
vt 0.062500000 0.003906250
vt 0.062500000 0.121093750
vt 0.051068928 0.003906250
vt 0.051068928 0.121093750
vt 0.040077142 0.003906250
vt 0.040077142 0.121093750
vt 0.029947056 0.003906250
vt 0.029947056 0.121093750
vt 0.023339601 0.091112328
vt 0.023339601 0.003906250
vt 0.023339601 0.121093750
vt 0.019765376 0.101660400
vt 0.019203677 0.101660401
vt 0.013781079 0.095052943
vt 0.015368411 0.093992323
vt 0.021661436 0.101660402
vt 0.008366436 0.084922858
vt 0.010130181 0.084192291
vt 0.005032113 0.073931076
vt 0.006904501 0.073558636
vt 0.003906250 0.062500000
vt 0.005815317 0.062500000
vt 0.005032113 0.051068928
vt 0.006904501 0.051441368
vt 0.008366436 0.040077142
vt 0.010130181 0.040807713
vt 0.013781079 0.029947056
vt 0.015368411 0.031007677
vt 0.021360556 0.023339599
vt 0.019203674 0.023339601
vt 0.021661436 0.023339600
vt 0.101660402 0.108518999
vt 0.101660402 0.121093750
vt 0.093992323 0.121093750
vt 0.093992323 0.003906250
vt 0.101660402 0.003906250
vt 0.084192291 0.121093750
vt 0.084192291 0.003906250
vt 0.073558636 0.121093750
vt 0.073558636 0.003906250
vt 0.051441368 0.121093750
vt 0.051441368 0.003906250
vt 0.040807713 0.121093750
vt 0.040807713 0.003906250
vt 0.031007677 0.121093750
vt 0.031007677 0.003906250
vt 0.023339600 0.016481001
vt 0.023339600 0.121093750
vt 0.023339600 0.003906250
vt 0.021360556 0.101660402
vt 0.019765374 0.023339603
vt 0.102107100 0.027992030
vt 0.102107100 0.003906250
vt 0.102107100 0.121093750
vt 0.029947057 0.003906250
vt 0.029947057 0.121093750
vt 0.022892893 0.097008069
vt 0.022892893 0.003906250
vt 0.022892893 0.121093750
vt 0.019962487 0.102107099
vt 0.019570275 0.102107100
vt 0.013781080 0.095052943
vt 0.015139523 0.094145261
vt 0.021673641 0.102107099
vt 0.009875860 0.084297635
vt 0.005032115 0.073931076
vt 0.006634512 0.073612340
vt 0.005540039 0.062500000
vt 0.005032115 0.051068928
vt 0.006634512 0.051387664
vt 0.009875860 0.040702369
vt 0.013781080 0.029947057
vt 0.015139523 0.030854739
vt 0.021491285 0.022892894
vt 0.019570281 0.022892893
vt 0.021673648 0.022892894
vt 0.102107099 0.112001782
vt 0.102107099 0.121093750
vt 0.094145261 0.121093750
vt 0.094145261 0.003906250
vt 0.102107099 0.003906250
vt 0.084297635 0.121093750
vt 0.084297635 0.003906250
vt 0.073612340 0.121093750
vt 0.073612340 0.003906250
vt 0.051387664 0.121093750
vt 0.051387664 0.003906250
vt 0.040702369 0.121093750
vt 0.040702369 0.003906250
vt 0.030854739 0.121093750
vt 0.030854739 0.003906250
vt 0.022892894 0.012998100
vt 0.022892894 0.121093750
vt 0.022892894 0.003906250
vt 0.021491275 0.102107100
vt 0.019962491 0.022892893
vt 0.013281252 0.120971046
vt 0.008300782 0.120971039
vt 0.012109376 0.121093750
vt 0.115234375 0.120971046
vt 0.121093750 0.120971039
vt 0.115234360 0.121093750
vt 0.114062503 0.120971039
vt 0.114355467 0.116406247
vt 0.111718751 0.120971046
vt 0.111718737 0.121093750
vt 0.013281256 0.121093750
vt 0.009765625 0.120971046
vt 0.009765626 0.111718751
vt 0.012611441 0.105243785
vt 0.008300782 0.105243778
vt 0.012966047 0.105554864
vt 0.116022388 0.106073331
vt 0.121093750 0.106073325
vt 0.115234375 0.105239659
vt 0.114220105 0.105243778
vt 0.115234375 0.105243785
vt 0.114167571 0.105243778
vt 0.119832928 0.105243778
vt 0.111718750 0.105243785
vt 0.121093750 0.105243779
vt 0.100853132 0.105243785
vt 0.026519875 0.105243785
vt 0.100508673 0.105243778
vt 0.013281252 0.105243785
vt 0.023949865 0.105243785
vt 0.009765625 0.105243785
vt 0.009765625 0.013281251
vt 0.115234375 0.013281251
vt 0.003906250 0.084922835
vt 0.121093750 0.084922835
vt 0.121093750 0.062500000
vt 0.003906250 0.103931949
vt 0.121093750 0.103931949
vt 0.034090929 0.084190022
vt 0.021067945 0.003906250
vt 0.034090929 0.003906250
vt 0.034090929 0.121093750
vt 0.021067945 0.121093750
vt 0.034090929 0.040809978
vt 0.003906250 0.021068050
vt 0.003906250 0.040077165
vt 0.121093750 0.040077165
vt 0.121093750 0.021068050
vt 0.008366439 0.084922835
vt 0.031643875 0.075281113
vt 0.029101556 0.062500000
vt 0.034090855 0.085928703
vt 0.021067945 0.103931949
vt 0.034090862 0.090909006
vt 0.034090896 0.078943260
vt 0.034090895 0.099124806
vt 0.034090929 0.112633675
vt 0.034090929 0.012366322
vt 0.021067945 0.021068050
vt 0.034090862 0.034090997
vt 0.008366439 0.040077165
vt 0.031643875 0.049718883
vt 0.034090896 0.046056739
vt 0.121093750 0.075281113
vt 0.003906250 0.075281113
vt 0.081485274 0.078943260
vt 0.121093750 0.078943260
vt 0.003906250 0.078943260
vt 0.043514726 0.046056739
vt 0.121093750 0.046056739
vt 0.121093750 0.049718883
vt 0.003906250 0.049718883
vt 0.003906250 0.046056739
vt 0.034090895 0.025875193
vt 0.034090855 0.039071300
vn -0.773010603 0.000000000 -0.634393101
vn -0.881921104 0.000000000 -0.471397036
vn -0.956940506 0.000000000 -0.290284115
vn -0.995184629 0.000000000 -0.098018127
vn -0.995184629 0.000000000 0.098018127
vn -0.956940506 0.000000000 0.290284115
vn -0.881921104 0.000000000 0.471397036
vn -0.773010603 0.000000000 0.634393101
vn -0.735942772 0.305950417 -0.603972333
vn -0.735942117 0.305951220 -0.603972724
vn -0.839630730 0.305950439 -0.448792342
vn -0.839630840 0.305950282 -0.448792243
vn -0.911052826 0.305950222 -0.276364269
vn -0.911052631 0.305950566 -0.276364531
vn -0.947462913 0.305950645 -0.093317901
vn -0.947463077 0.305950244 -0.093317557
vn -0.947463038 0.305950255 0.093317913
vn -0.947462945 0.305950656 0.093317544
vn -0.911052723 0.305950557 0.276364237
vn -0.911052740 0.305950213 0.276364564
vn -0.839630773 0.305950286 0.448792365
vn -0.839630795 0.305950443 0.448792218
vn -0.735942578 0.305951200 0.603972173
vn -0.735942322 0.305950396 0.603972892
vn -0.486674522 0.776932720 -0.399403879
vn -0.486675010 0.776932401 -0.399403904
vn -0.555243469 0.776932413 -0.296783955
vn -0.555242841 0.776932826 -0.296784047
vn -0.602474071 0.776932677 -0.182758337
vn -0.602474541 0.776932352 -0.182758170
vn -0.626552030 0.776932676 -0.061710378
vn -0.626552069 0.776932646 -0.061710355
vn -0.626552065 0.776932648 0.061710381
vn -0.626552031 0.776932677 0.061710351
vn -0.602474438 0.776932366 0.182758448
vn -0.602474140 0.776932691 0.182758048
vn -0.555243039 0.776932808 0.296783725
vn -0.555243311 0.776932394 0.296784299
vn -0.486674812 0.776932415 0.399404118
vn -0.486674693 0.776932734 0.399403644
vn 0.000000000 1.000000000 0.000000000
vn -0.773010780 0.000000000 -0.634392887
vn -0.881921180 0.000000000 -0.471396896
vn -0.956940178 0.000000000 -0.290285199
vn -0.995184716 0.000000000 -0.098017251
vn -0.995184716 0.000000000 0.098017251
vn -0.956940178 0.000000000 0.290285199
vn -0.881921180 0.000000000 0.471396896
vn -0.773010946 0.000000000 0.634392684
vn -0.773011084 0.000000000 -0.634392516
vn -0.881921007 0.000000000 -0.471397219
vn -0.956940312 0.000000000 -0.290284756
vn -0.995184756 0.000000000 -0.098016839
vn -0.995184756 0.000000000 0.098016839
vn -0.956940312 0.000000000 0.290284756
vn -0.881921007 0.000000000 0.471397219
vn -0.773011247 0.000000000 0.634392317
vn 0.773010634 0.000000000 0.634393064
vn 0.881921358 0.000000000 0.471396561
vn 0.956940202 0.000000000 0.290285120
vn 0.995184764 0.000000000 0.098016763
vn 0.995184764 0.000000000 -0.098016763
vn 0.956940202 0.000000000 -0.290285120
vn 0.881921358 0.000000000 -0.471396561
vn 0.773010634 0.000000000 -0.634393064
vn 0.000000000 -1.000000000 0.000000000
vn -0.773010611 0.000000000 -0.634393092
vn -0.881921409 0.000000000 -0.471396465
vn -0.956940190 0.000000000 -0.290285159
vn -0.995184751 0.000000000 -0.098016891
vn -0.995184751 0.000000000 0.098016891
vn -0.956940190 0.000000000 0.290285159
vn -0.881921409 0.000000000 0.471396465
vn -0.773010280 0.000000000 0.634393495
vn 0.773010045 0.000000000 0.634393782
vn 0.881921497 0.000000000 0.471396301
vn 0.956940250 0.000000000 0.290284959
vn 0.995184721 0.000000000 0.098017203
vn 0.995184721 0.000000000 -0.098017203
vn 0.956940250 0.000000000 -0.290284959
vn 0.881921497 0.000000000 -0.471396301
vn 0.773009704 0.000000000 -0.634394197
vn 0.490066408 0.577382288 0.653042578
vn 0.653044532 0.577347676 -0.490104581
vn -0.490066408 0.577382288 -0.653042578
vn -0.653044532 0.577347676 0.490104581
vn -0.099785591 0.707113940 0.700023365
vn 0.700020260 0.707117112 0.099784893
vn 0.699997881 0.707139364 0.099784201
vn 0.099785591 0.707113940 -0.700023365
vn -0.700020260 0.707117112 -0.099784893
vn -0.699997881 0.707139364 -0.099784201
vn 0.600222964 -0.000000000 0.799832728
vn 0.799811145 0.000000000 -0.600251724
vn -0.600222964 0.000000000 -0.799832728
vn -0.799811145 0.000000000 0.600251724
vn 0.989992610 0.000000000 0.141119211
vn -0.141119565 0.000000000 0.989992560
vn 0.141119565 0.000000000 -0.989992560
vn -0.989992610 0.000000000 -0.141119211
vn -0.980785471 0.195089361 0.000000000
vn -0.831468241 0.555572285 0.000000000
vn -0.555577740 0.831464596 0.000000000
vn -0.555569547 -0.831470070 0.000000000
vn -0.831471899 -0.555566810 0.000000000
vn -0.980785020 -0.195091629 0.000000000
vn 0.000000000 0.000000000 -1.000000000
vn 0.980786040 -0.195086504 0.000000000
vn 0.831462890 -0.555580293 0.000000000
vn 0.831462890 0.555580293 0.000000000
vn 0.980786040 0.195086504 0.000000000
vn 0.000000000 -0.000000000 1.000000000
usemtl mat_2
f 1/1/1 2/2/1 3/3/1
f 4/4/1 1/1/1 3/3/1 5/5/1
f 6/6/2 7/7/2 8/8/2
f 2/2/2 6/6/2 8/8/2 3/3/2
f 9/9/3 10/10/3 11/11/3
f 7/7/3 9/9/3 11/11/3 8/8/3
f 12/12/4 13/13/4 14/14/4
f 10/10/4 12/12/4 14/14/4 11/11/4
f 15/15/5 16/16/5 17/17/5
f 13/13/5 15/15/5 17/17/5 14/14/5
f 18/18/6 19/19/6 20/20/6
f 16/16/6 18/18/6 20/20/6 17/17/6
f 21/21/7 22/22/7 23/23/7
f 19/19/7 21/21/7 23/23/7 20/20/7
f 22/22/8 24/24/8 25/25/8 23/23/8
f 26/26/9 5/5/9 3/3/9 27/27/9
f 28/28/10 29/29/10 26/26/10
f 28/28/10 26/26/10 27/27/10
f 28/28/10 27/27/10 30/30/10
f 3/3/11 8/8/11 31/31/11
f 3/3/12 31/31/12 27/27/12
f 8/8/13 11/11/13 32/32/13
f 8/8/14 32/32/14 31/31/14
f 11/11/15 14/14/15 33/33/15
f 11/11/16 33/33/16 32/32/16
f 14/14/17 17/17/17 34/34/17
f 14/14/18 34/34/18 33/33/18
f 17/17/19 20/20/19 35/35/19
f 17/17/20 35/35/20 34/34/20
f 20/20/21 23/23/21 36/36/21
f 20/20/22 36/36/22 35/35/22
f 37/37/23 23/23/23 25/25/23
f 37/37/23 25/25/23 38/38/23
f 37/37/23 38/38/23 39/39/23
f 23/23/24 37/37/24 40/40/24 36/36/24
f 41/41/25 30/42/25 27/43/25 42/44/25
f 41/41/26 42/44/26 43/45/26
f 27/43/27 31/46/27 44/47/27
f 27/43/28 44/47/28 42/44/28
f 31/46/29 32/48/29 45/49/29
f 31/46/30 45/49/30 44/47/30
f 32/48/31 33/50/31 46/51/31
f 32/48/32 46/51/32 45/49/32
f 33/50/33 34/52/33 47/53/33
f 33/50/34 47/53/34 46/51/34
f 34/52/35 35/54/35 48/55/35
f 34/52/36 48/55/36 47/53/36
f 35/54/37 36/56/37 49/57/37
f 35/54/38 49/57/38 48/55/38
f 50/58/39 36/56/39 40/59/39
f 36/56/40 50/58/40 51/60/40 49/57/40
f 52/61/41 43/45/41 42/44/41
f 42/44/41 44/47/41 45/49/41
f 45/49/41 46/51/41 47/53/41
f 47/53/41 48/55/41 49/57/41
f 53/62/41 49/57/41 51/60/41
f 54/63/41 52/61/41 42/44/41 45/49/41
f 45/49/41 47/53/41 49/57/41
f 55/64/41 49/57/41 53/62/41
f 56/65/41 54/63/41 45/49/41
f 57/66/41 45/49/41 49/57/41 55/64/41
f 58/67/41 56/65/41 45/49/41
f 58/67/41 45/49/41 57/66/41
usemtl mat_3
f 59/68/42 60/69/42 61/70/42
f 62/71/42 59/68/42 61/70/42 63/72/42
f 64/73/43 65/74/43 66/75/43
f 60/69/43 64/73/43 66/75/43 61/70/43
f 67/76/44 68/77/44 69/78/44
f 65/74/44 67/76/44 69/78/44 66/75/44
f 70/79/45 71/80/45 72/81/45
f 68/77/45 70/79/45 72/81/45 69/78/45
f 73/82/46 74/83/46 75/84/46
f 71/80/46 73/82/46 75/84/46 72/81/46
f 76/85/47 77/86/47 78/87/47
f 74/83/47 76/85/47 78/87/47 75/84/47
f 79/88/48 80/89/48 81/90/48
f 77/86/48 79/88/48 81/90/48 78/87/48
f 82/91/49 83/92/49 84/93/49
f 80/89/49 83/92/49 82/91/49
f 80/89/49 82/91/49 85/94/49
f 80/89/49 85/94/49 81/90/49
usemtl mat_2
f 86/95/50 87/96/50 88/97/50 89/98/50
f 86/95/50 89/98/50 90/99/50
f 88/97/51 91/100/51 92/101/51
f 88/97/51 92/101/51 89/98/51
f 91/100/52 93/102/52 94/103/52
f 91/100/52 94/103/52 92/101/52
f 93/102/53 95/104/53 96/105/53
f 93/102/53 96/105/53 94/103/53
f 95/104/54 97/106/54 98/107/54
f 95/104/54 98/107/54 96/105/54
f 97/106/55 99/108/55 100/109/55
f 97/106/55 100/109/55 98/107/55
f 99/108/56 101/110/56 102/111/56
f 99/108/56 102/111/56 100/109/56
f 103/112/57 101/110/57 104/113/57
f 101/110/57 103/112/57 105/114/57 102/111/57
f 106/115/41 90/116/41 89/117/41 107/118/41
f 106/115/41 107/118/41 108/119/41
f 89/117/41 92/120/41 109/121/41
f 89/117/41 109/121/41 107/118/41
f 92/120/41 94/122/41 110/123/41
f 92/120/41 110/123/41 109/121/41
f 94/122/41 96/124/41 111/125/41
f 94/122/41 111/125/41 110/123/41
f 96/124/41 98/126/41 112/127/41
f 96/124/41 112/127/41 111/125/41
f 98/126/41 100/128/41 113/129/41
f 98/126/41 113/129/41 112/127/41
f 100/128/41 102/130/41 114/131/41
f 100/128/41 114/131/41 113/129/41
f 115/132/41 102/130/41 105/133/41
f 102/130/41 115/132/41 116/134/41 114/131/41
f 117/135/58 108/136/58 107/137/58 118/138/58
f 117/135/58 118/138/58 119/139/58
f 107/137/59 109/140/59 120/141/59
f 107/137/59 120/141/59 118/138/59
f 109/140/60 110/142/60 121/143/60
f 109/140/60 121/143/60 120/141/60
f 110/142/61 111/105/61 122/104/61
f 110/142/61 122/104/61 121/143/61
f 111/105/62 112/144/62 123/145/62
f 111/105/62 123/145/62 122/104/62
f 112/144/63 113/146/63 124/147/63
f 112/144/63 124/147/63 123/145/63
f 113/146/64 114/148/64 125/149/64
f 113/146/64 125/149/64 124/147/64
f 126/150/65 114/148/65 116/151/65
f 114/148/65 126/150/65 127/152/65 125/149/65
f 128/153/66 119/119/66 118/118/66 88/117/66
f 128/153/66 88/117/66 87/116/66
f 118/118/66 120/121/66 91/120/66
f 118/118/66 91/120/66 88/117/66
f 120/121/66 121/123/66 93/122/66
f 120/121/66 93/122/66 91/120/66
f 121/123/66 122/125/66 95/124/66
f 121/123/66 95/124/66 93/122/66
f 122/125/66 123/127/66 97/126/66
f 122/125/66 97/126/66 95/124/66
f 123/127/66 124/129/66 99/128/66
f 123/127/66 99/128/66 97/126/66
f 124/129/66 125/131/66 101/130/66
f 124/129/66 101/130/66 99/128/66
f 129/154/66 125/131/66 127/134/66
f 125/131/66 129/154/66 104/133/66 101/130/66
f 130/155/67 131/156/67 132/97/67 133/98/67
f 130/155/67 133/98/67 134/157/67
f 132/97/68 135/100/68 136/101/68
f 132/97/68 136/101/68 133/98/68
f 135/100/69 137/102/69 138/103/69
f 135/100/69 138/103/69 136/101/69
f 137/102/70 139/104/70 140/105/70
f 137/102/70 140/105/70 138/103/70
f 139/104/71 141/106/71 142/107/71
f 139/104/71 142/107/71 140/105/71
f 141/106/72 143/108/72 144/109/72
f 141/106/72 144/109/72 142/107/72
f 143/108/73 145/158/73 146/159/73
f 143/108/73 146/159/73 144/109/73
f 147/160/74 145/158/74 148/161/74
f 145/158/74 147/160/74 149/162/74 146/159/74
f 150/163/41 134/164/41 133/165/41 151/166/41
f 150/163/41 151/166/41 152/167/41
f 133/165/41 136/120/41 153/168/41
f 133/165/41 153/168/41 151/166/41
f 136/120/41 138/169/41 154/170/41
f 136/120/41 154/170/41 153/168/41
f 138/169/41 140/124/41 155/171/41
f 138/169/41 155/171/41 154/170/41
f 140/124/41 142/172/41 156/173/41
f 140/124/41 156/173/41 155/171/41
f 142/172/41 144/128/41 157/174/41
f 142/172/41 157/174/41 156/173/41
f 144/128/41 146/175/41 158/176/41
f 144/128/41 158/176/41 157/174/41
f 159/177/41 146/175/41 149/178/41
f 146/175/41 159/177/41 160/179/41 158/176/41
f 161/180/75 152/181/75 151/182/75 162/183/75
f 161/180/75 162/183/75 163/184/75
f 151/182/76 153/185/76 164/186/76
f 151/182/76 164/186/76 162/183/76
f 153/185/77 154/187/77 165/188/77
f 153/185/77 165/188/77 164/186/77
f 154/187/78 155/105/78 166/104/78
f 154/187/78 166/104/78 165/188/78
f 155/105/79 156/189/79 167/190/79
f 155/105/79 167/190/79 166/104/79
f 156/189/80 157/191/80 168/192/80
f 156/189/80 168/192/80 167/190/80
f 157/191/81 158/193/81 169/194/81
f 157/191/81 169/194/81 168/192/81
f 170/195/82 158/193/82 160/196/82
f 158/193/82 170/195/82 171/197/82 169/194/82
f 172/198/66 163/167/66 162/166/66 132/165/66
f 172/198/66 132/165/66 131/164/66
f 162/166/66 164/168/66 135/120/66
f 162/166/66 135/120/66 132/165/66
f 164/168/66 165/170/66 137/169/66
f 164/168/66 137/169/66 135/120/66
f 165/170/66 166/171/66 139/124/66
f 165/170/66 139/124/66 137/169/66
f 166/171/66 167/173/66 141/172/66
f 166/171/66 141/172/66 139/124/66
f 167/173/66 168/174/66 143/128/66
f 167/173/66 143/128/66 141/172/66
f 168/174/66 169/176/66 145/175/66
f 168/174/66 145/175/66 143/128/66
f 173/199/66 169/176/66 171/179/66
f 169/176/66 173/199/66 148/178/66 145/175/66
f 174/200/83 175/201/83 176/202/83
f 177/203/84 178/204/84 179/205/84
f 180/206/85 181/203/85 182/207/85
f 183/208/86 184/209/86 185/204/86
f 176/202/87 184/209/87 183/208/87
f 176/202/87 183/208/87 174/200/87
f 175/201/88 177/203/88 179/205/88
f 175/201/89 179/205/89 176/202/89
f 178/200/90 180/206/90 182/207/90
f 178/200/90 182/207/90 179/210/90
f 181/203/91 185/211/91 184/212/91
f 181/203/92 184/212/92 182/207/92
f 186/213/93 187/214/93 175/201/93 174/200/93
f 186/213/93 174/200/93 188/215/93
f 189/216/94 190/217/94 178/204/94 177/203/94
f 189/216/94 177/203/94 191/218/94
f 192/219/95 193/220/95 181/203/95 180/206/95
f 192/219/95 180/206/95 194/221/95
f 195/222/96 196/223/96 183/208/96 185/204/96
f 195/222/96 185/204/96 197/224/96
f 198/225/97 191/218/97 177/203/97
f 187/214/97 198/225/97 177/203/97 175/201/97
f 199/226/98 188/215/98 174/200/98
f 196/223/98 199/226/98 174/200/98 183/208/98
f 200/227/99 194/221/99 180/206/99
f 190/228/99 200/227/99 180/206/99 178/200/99
f 201/229/100 197/230/100 185/211/100
f 193/220/100 201/229/100 185/211/100 181/203/100
f 176/231/41 179/232/41 182/207/41
f 176/231/41 182/207/41 184/212/41
f 202/124/101 203/233/101 204/234/101
f 202/124/101 204/234/101 205/235/101
f 203/233/102 206/236/102 207/237/102
f 203/233/102 207/237/102 204/234/102
f 208/238/103 206/239/103 209/240/103
f 206/239/103 208/238/103 210/241/103 207/242/103
f 211/243/104 212/240/104 213/239/104 214/242/104
f 211/243/104 214/242/104 215/241/104
f 213/244/105 216/245/105 217/246/105
f 213/244/105 217/246/105 214/247/105
f 216/245/106 202/124/106 205/235/106
f 216/245/106 205/235/106 217/246/106
f 205/124/107 204/248/107 218/249/107
f 205/124/107 218/249/107 219/250/107
f 220/251/107 204/248/107 207/252/107 221/253/107
f 204/248/107 220/251/107 222/254/107 218/249/107
f 223/255/107 207/252/107 210/256/107
f 221/253/107 207/252/107 223/255/107
f 215/257/107 214/258/107 224/259/107
f 214/258/107 217/260/107 225/261/107
f 224/259/107 214/258/107 225/261/107 226/262/107
f 217/260/107 205/124/107 219/250/107
f 217/260/107 219/250/107 225/261/107
f 219/235/108 218/263/108 227/264/108
f 219/235/108 227/264/108 228/124/108
f 229/265/109 218/263/109 222/266/109
f 218/263/109 229/265/109 230/267/109 227/264/109
f 231/268/110 226/269/110 225/270/110 232/271/110
f 231/268/110 232/271/110 233/272/110
f 225/270/111 219/235/111 228/124/111
f 225/270/111 228/124/111 232/271/111
f 228/250/112 227/249/112 203/248/112
f 228/250/112 203/248/112 202/124/112
f 227/249/112 230/254/112 234/253/112 206/252/112
f 227/249/112 206/252/112 203/248/112
f 234/253/112 209/256/112 206/252/112
f 235/273/112 236/259/112 213/258/112
f 235/273/112 213/258/112 212/257/112
f 237/274/112 233/262/112 232/261/112 216/260/112
f 236/259/112 237/274/112 216/260/112 213/258/112
f 232/261/112 228/250/112 202/124/112
f 232/261/112 202/124/112 216/260/112
