# Authored in Blender; exported by tools-export-modern.py
mtllib materials.mtl
s off
v 0.214305443 0.000000000 0.375553275
v 0.212601662 0.000000000 0.358254671
v 0.212601662 0.209374905 0.358254671
v 0.226562500 0.000000000 0.500000000
v 0.226562500 0.209374905 0.500000000
v 0.176301883 0.000000000 0.238590430
v 0.171256065 0.000000000 0.221956611
v 0.171256065 0.209374905 0.221956611
v 0.112308487 0.000000000 0.111673343
v 0.104114532 0.000000000 0.096343517
v 0.104114532 0.209374905 0.096343517
v 0.025047489 0.000000000 0.000000000
v 0.025047489 0.209374905 0.000000000
v 0.093087324 0.000000000 0.917093181
v 0.104114532 0.000000000 0.903656483
v 0.104114532 0.209374905 0.903656483
v 0.025047489 0.000000000 1.000000000
v 0.025047489 0.209374905 1.000000000
v 0.163062111 0.000000000 0.793373215
v 0.171256065 0.000000000 0.778043389
v 0.171256065 0.209374905 0.778043389
v 0.207555844 0.000000000 0.658379148
v 0.212601662 0.000000000 0.641745329
v 0.212601662 0.209374905 0.641745329
v 0.224858719 0.000000000 0.517298604
v 0.176971674 0.321875095 0.365341902
v 0.190234423 0.321875095 0.500000000
v 0.137693405 0.321875095 0.235858679
v 0.073908806 0.321875095 0.116526365
v 0.000000000 0.310308860 0.020609146
v 0.000000000 0.269624908 0.000000000
v 0.000000000 0.269624629 0.000000000
v 0.000000000 0.321875095 0.026468195
v 0.020108904 0.221254304 1.000000000
v 0.073908806 0.321875095 0.883473635
v 0.000000000 0.269624629 1.000000000
v 0.000000000 0.269624908 1.000000000
v 0.000000000 0.321875095 0.973531805
v 0.137693405 0.321875095 0.764141321
v 0.176971674 0.321875095 0.634658098
v 0.119963646 0.368749619 0.376681566
v 0.132109404 0.368749619 0.500000000
v 0.083992958 0.368749619 0.258102179
v 0.025579691 0.368749619 0.148818851
v 0.000000000 0.349167042 0.079557317
v 0.000000000 0.368749619 0.117649910
v 0.000000000 0.336784191 0.944530194
v 0.025579691 0.368749619 0.851181149
v 0.000000000 0.368749619 0.882350090
v 0.083992958 0.368749619 0.741897821
v 0.119963646 0.368749619 0.623318434
v 0.000000000 0.368749619 0.123239168
v 0.000000000 0.368749619 0.876760823
v 0.000000000 0.368749619 0.131727048
v 0.000000000 0.368749619 0.802856559
v 0.000000000 0.368749619 0.443780180
v 0.000000000 0.368749619 0.703475580
v 0.000000000 0.368749619 0.599456179
v 0.225141914 0.000000000 0.390389738
v 0.221796751 0.000000000 0.356425762
v 0.221796751 0.068750381 0.356425762
v 0.235937595 0.000000000 0.500000000
v 0.235937595 0.068750381 0.500000000
v 0.189824528 0.000000000 0.251027674
v 0.179917574 0.000000000 0.218368888
v 0.179917574 0.068750381 0.218368888
v 0.127997613 0.000000000 0.121233515
v 0.111909628 0.000000000 0.091135025
v 0.111909628 0.068750381 0.091135025
v 0.037117124 0.015623380 0.000000000
v 0.042037213 0.000000000 0.005995152
v 0.037117124 0.000000000 0.000000000
v 0.037117124 0.068750381 0.000000000
v 0.090258872 0.000000000 0.935246539
v 0.111909628 0.000000000 0.908864975
v 0.111909628 0.068750381 0.908864975
v 0.037117164 0.000000000 1.000000000
v 0.037117164 0.068750381 1.000000000
v 0.163829589 0.000000000 0.811729602
v 0.179917574 0.000000000 0.781631112
v 0.179917574 0.068750381 0.781631112
v 0.211889797 0.000000000 0.676233024
v 0.221796751 0.000000000 0.643574238
v 0.221796751 0.068750381 0.643574238
v 0.232592432 0.000000000 0.533963976
v 0.248125076 0.051875114 0.500000000
v 0.233749866 0.051875114 0.354048014
v 0.233749866 0.085624695 0.354048014
v 0.248125076 0.085624695 0.500000000
v 0.191177368 0.051875114 0.213704944
v 0.191177368 0.085624695 0.213704944
v 0.122043133 0.051875114 0.084364057
v 0.122043133 0.085624695 0.084364057
v 0.052807481 0.076990166 0.000000000
v 0.052807481 0.051875114 0.000000000
v 0.052807481 0.085624695 0.000000000
v 0.052807518 0.060509657 1.000000000
v 0.052807518 0.051875114 1.000000000
v 0.122043133 0.051875114 0.915635943
v 0.122043133 0.085624695 0.915635943
v 0.052807518 0.085624695 1.000000000
v 0.191177368 0.051875114 0.786295056
v 0.191177368 0.085624695 0.786295056
v 0.233749866 0.051875114 0.645951986
v 0.233749866 0.085624695 0.645951986
v 0.209843397 0.085624695 0.358803391
v 0.223750114 0.085624695 0.500000000
v 0.168657780 0.085624695 0.223032832
v 0.101776123 0.085624695 0.097905993
v 0.025268416 0.085624695 0.000000000
v 0.021426797 0.085624695 0.000000000
v 0.045635742 0.085624695 1.000000000
v 0.101776123 0.085624695 0.902094007
v 0.021426797 0.085624695 1.000000000
v 0.168657780 0.085624695 0.776967168
v 0.209843397 0.085624695 0.641196609
v 0.209843397 0.051875114 0.358803391
v 0.223750114 0.051875114 0.500000000
v 0.168657780 0.051875114 0.223032832
v 0.101776123 0.051875114 0.097905993
v 0.021426797 0.055496598 0.000000000
v 0.021426797 0.051875114 0.000000000
v 0.021426797 0.082003212 1.000000000
v 0.101776123 0.051875114 0.902094007
v 0.021426797 0.051875114 1.000000000
v 0.168657780 0.051875114 0.776967168
v 0.209843397 0.051875114 0.641196609
v 0.045635716 0.051875114 0.000000000
v 0.025268416 0.051875114 1.000000000
v 0.239687443 0.207499981 0.500000000
v 0.225474596 0.207499981 0.355694175
v 0.225474596 0.230000019 0.355694175
v 0.239687443 0.230000019 0.500000000
v 0.183382034 0.207499981 0.216933846
v 0.183382034 0.230000019 0.216933846
v 0.115027666 0.207499981 0.089051723
v 0.115027666 0.230000019 0.089051723
v 0.041944748 0.225375542 0.000000000
v 0.041944748 0.207499981 0.000000000
v 0.041944748 0.230000019 0.000000000
v 0.041944670 0.212124439 1.000000000
v 0.041944670 0.207499981 1.000000000
v 0.115027666 0.207499981 0.910948277
v 0.115027666 0.230000019 0.910948277
v 0.041944670 0.230000019 1.000000000
v 0.183382034 0.207499981 0.783066154
v 0.183382034 0.230000019 0.783066154
v 0.225474596 0.207499981 0.644305825
v 0.225474596 0.230000019 0.644305825
v 0.205245972 0.230000019 0.359717846
v 0.219062567 0.230000019 0.500000000
v 0.164327145 0.230000019 0.224826694
v 0.097878695 0.230000019 0.100510240
v 0.017694039 0.230000019 0.000000000
v 0.015391854 0.230000019 0.000000000
v 0.036993403 0.230000019 1.000000000
v 0.097878695 0.230000019 0.899489760
v 0.015391764 0.230000019 1.000000000
v 0.164327145 0.230000019 0.775173306
v 0.205245972 0.230000019 0.640282154
v 0.205245972 0.207499981 0.359717846
v 0.219062567 0.207499981 0.500000000
v 0.164327145 0.207499981 0.224826694
v 0.097878695 0.207499981 0.100510240
v 0.015391854 0.209245642 0.000000000
v 0.015391854 0.207499981 0.000000000
v 0.015391764 0.228254381 1.000000000
v 0.097878695 0.207499981 0.899489760
v 0.015391764 0.207499981 1.000000000
v 0.164327145 0.207499981 0.775173306
v 0.205245972 0.207499981 0.640282154
v 0.036993462 0.207499981 0.000000000
v 0.017693920 0.207499981 1.000000000
v 0.161964655 0.240312576 0.798942327
v 0.159460783 0.240312576 0.799815178
v 0.161149025 0.242187500 0.800630689
v 0.144780636 0.240312576 0.830205202
v 0.145653486 0.240312576 0.832709193
v 0.146468878 0.242187500 0.831020832
v 0.163380861 0.240312576 0.841272593
v 0.165884733 0.240312576 0.840399742
v 0.164196491 0.242187500 0.839584231
v 0.179692030 0.240312576 0.807505727
v 0.178876638 0.242187500 0.809194088
v 0.180564880 0.240312576 0.810009718
v 0.161627915 0.000000000 0.799059715
v 0.159460783 0.000000000 0.799815178
v 0.161964655 0.000000000 0.798942327
v 0.144898023 0.000000000 0.830541958
v 0.145653486 0.000000000 0.832709193
v 0.144780636 0.000000000 0.830205202
v 0.163717601 0.000000000 0.841155205
v 0.165884733 0.000000000 0.840399742
v 0.163380861 0.000000000 0.841272593
v 0.180447493 0.000000000 0.809672962
v 0.179692030 0.000000000 0.807505727
v 0.180564880 0.000000000 0.810009718
v 0.146754934 0.000000000 0.826118120
v 0.164348767 0.000000000 0.800093999
v 0.160996749 0.000000000 0.840120921
v 0.178590583 0.000000000 0.814096800
v 0.000000000 0.485110428 0.512146404
v 0.000000000 0.485110428 0.532812476
v 0.022920370 0.469795227 0.532812476
v 0.022920370 0.469795227 0.467187524
v 0.000000000 0.485110428 0.467187524
v 0.045274973 0.436339378 0.532812476
v 0.045274973 0.436339378 0.467187524
v 0.053124905 0.396874905 0.532812476
v 0.053124905 0.396874905 0.467187524
v 0.045274973 0.357410908 0.532812476
v 0.045274973 0.357410908 0.467187524
v 0.022920370 0.323954582 0.532812476
v 0.022920370 0.323954582 0.467187524
v 0.000000000 0.308639708 0.487853596
v 0.000000000 0.308639708 0.532812476
v 0.000000000 0.308639708 0.467187524
v 0.000000000 0.446874857 0.467187524
v 0.004306793 0.419369698 0.467187524
v 0.000000000 0.425815100 0.467187524
v 0.008781195 0.396874905 0.467187524
v 0.004306793 0.374380112 0.467187524
v 0.000000000 0.355640329 0.467187524
v 0.000000000 0.346874952 0.467187524
v 0.000000000 0.367934709 0.467187524
v 0.000000000 0.332415247 0.467187524
v 0.000000000 0.425815100 0.510631746
v 0.004306793 0.419369698 0.532812476
v 0.000000000 0.425815100 0.532812476
v 0.008781195 0.396874905 0.532812476
v 0.004306793 0.374380112 0.532812476
v 0.000000000 0.367934709 0.489368254
v 0.000000000 0.367934709 0.532812476
v 0.000000000 0.461334779 0.532812476
v 0.000000000 0.446874857 0.532812476
v 0.000000000 0.438109555 0.532812476
v 0.000000000 0.346874952 0.532812476
vt 0.072536027 0.099453493
vt 0.073931076 0.099453493
vt 0.073931076 0.111740753
vt 0.062500000 0.099453493
vt 0.062500000 0.111740753
vt 0.083581420 0.099453493
vt 0.084922858 0.099453493
vt 0.084922858 0.111740753
vt 0.093816667 0.099453493
vt 0.095052943 0.099453493
vt 0.095052943 0.111740753
vt 0.102822584 0.099453493
vt 0.102822584 0.111740753
vt 0.028863451 0.099453493
vt 0.029947056 0.099453493
vt 0.029947056 0.111740753
vt 0.022177416 0.099453493
vt 0.022177416 0.111740753
vt 0.038840866 0.099453493
vt 0.040077142 0.099453493
vt 0.040077142 0.111740753
vt 0.049727490 0.099453493
vt 0.051068928 0.099453493
vt 0.051068928 0.111740753
vt 0.061104952 0.099453493
vt 0.073359519 0.118342884
vt 0.062500000 0.118342884
vt 0.083801717 0.118342884
vt 0.093425296 0.118342884
vt 0.101160550 0.117664114
vt 0.102822581 0.115276555
vt 0.102822586 0.115276539
vt 0.100688047 0.118342884
vt 0.022177416 0.112437902
vt 0.031574704 0.118342884
vt 0.022177413 0.115276539
vt 0.022177418 0.115276555
vt 0.024311952 0.118342884
vt 0.041198283 0.118342884
vt 0.051640481 0.118342884
vt 0.118164062 0.062500000
vt 0.117094494 0.073359519
vt 0.112497061 0.072445035
vt 0.113476567 0.062500000
vt 0.113926888 0.083801717
vt 0.109596200 0.082007885
vt 0.108782977 0.093425296
vt 0.104885466 0.090821065
vt 0.102822585 0.096406670
vt 0.102822588 0.100688047
vt 0.102822586 0.093334688
vt 0.102822588 0.026650791
vt 0.102822588 0.024311952
vt 0.108782977 0.031574704
vt 0.104885466 0.034178939
vt 0.102822586 0.031665314
vt 0.113926888 0.041198283
vt 0.109596200 0.042992115
vt 0.117094494 0.051640481
vt 0.112497061 0.052554965
vt 0.102822589 0.092883942
vt 0.102822589 0.032116061
vt 0.102822588 0.092199436
vt 0.102822583 0.038076081
vt 0.102822576 0.067033857
vt 0.102822575 0.046090680
vt 0.102822574 0.054479340
vt 0.006702049 0.343371831
vt 0.007568359 0.343371831
vt 0.007568359 0.371093750
vt 0.003906250 0.343371831
vt 0.003906250 0.371093750
vt 0.010364159 0.343371831
vt 0.011230469 0.343371831
vt 0.011230469 0.371093750
vt 0.014026268 0.343371831
vt 0.014892578 0.343371831
vt 0.014892578 0.371093750
vt 0.017885245 0.349671579
vt 0.017688378 0.343371831
vt 0.017885245 0.343371831
vt 0.017885245 0.371093750
vt 0.109241112 0.343371831
vt 0.110107422 0.343371831
vt 0.110107422 0.371093750
vt 0.107114757 0.343371831
vt 0.107114757 0.371093750
vt 0.112903221 0.343371831
vt 0.113769531 0.343371831
vt 0.113769531 0.371093750
vt 0.116565331 0.343371831
vt 0.117431641 0.343371831
vt 0.117431641 0.371093750
vt 0.120227440 0.343371831
vt 0.121093750 0.343371831
vt 0.121093750 0.371093750
vt 0.062500000 0.003906250
vt 0.073931076 0.003906250
vt 0.073931076 0.121093750
vt 0.062500000 0.121093750
vt 0.084922858 0.003906250
vt 0.084922858 0.121093750
vt 0.095052943 0.003906250
vt 0.095052943 0.121093750
vt 0.101660401 0.091112374
vt 0.101660401 0.003906250
vt 0.101660401 0.121093750
vt 0.023339601 0.033887672
vt 0.023339601 0.003906250
vt 0.029947056 0.003906250
vt 0.029947056 0.121093750
vt 0.023339601 0.121093750
vt 0.040077142 0.003906250
vt 0.040077142 0.121093750
vt 0.051068928 0.003906250
vt 0.051068928 0.121093750
vt 0.121093750 0.062500000
vt 0.119967885 0.073931076
vt 0.118095502 0.073558636
vt 0.119184680 0.062500000
vt 0.116633564 0.084922858
vt 0.114869818 0.084192291
vt 0.111218922 0.095052943
vt 0.109631591 0.093992323
vt 0.103639445 0.101660402
vt 0.105796322 0.101660401
vt 0.103338566 0.101660402
vt 0.105234625 0.023339603
vt 0.105796325 0.023339601
vt 0.111218922 0.029947056
vt 0.109631591 0.031007677
vt 0.103338566 0.023339600
vt 0.116633564 0.040077142
vt 0.114869818 0.040807713
vt 0.119967885 0.051068928
vt 0.118095502 0.051441368
vt 0.073558636 0.121093750
vt 0.073558636 0.003906250
vt 0.084192291 0.121093750
vt 0.084192291 0.003906250
vt 0.093992323 0.121093750
vt 0.093992323 0.003906250
vt 0.101660402 0.016481001
vt 0.101660402 0.121093750
vt 0.101660402 0.003906250
vt 0.023339600 0.108518999
vt 0.023339600 0.121093750
vt 0.031007677 0.121093750
vt 0.031007677 0.003906250
vt 0.023339600 0.003906250
vt 0.040807713 0.121093750
vt 0.040807713 0.003906250
vt 0.051441368 0.121093750
vt 0.051441368 0.003906250
vt 0.105234623 0.101660400
vt 0.103639445 0.023339599
vt 0.102107100 0.097007970
vt 0.102107100 0.003906250
vt 0.102107100 0.121093750
vt 0.022892893 0.027991931
vt 0.022892893 0.003906250
vt 0.029947057 0.003906250
vt 0.029947057 0.121093750
vt 0.022892893 0.121093750
vt 0.118365489 0.073612340
vt 0.119459957 0.062500000
vt 0.115124144 0.084297635
vt 0.109860480 0.094145261
vt 0.103508727 0.102107100
vt 0.105429726 0.102107100
vt 0.103326361 0.102107099
vt 0.105037509 0.022892893
vt 0.105429720 0.022892893
vt 0.111218922 0.029947057
vt 0.109860480 0.030854739
vt 0.103326354 0.022892894
vt 0.115124144 0.040702369
vt 0.118365489 0.051387664
vt 0.073612340 0.121093750
vt 0.073612340 0.003906250
vt 0.084297635 0.121093750
vt 0.084297635 0.003906250
vt 0.094145261 0.121093750
vt 0.094145261 0.003906250
vt 0.102107099 0.012998218
vt 0.102107099 0.121093750
vt 0.102107099 0.003906250
vt 0.022892894 0.112001900
vt 0.022892894 0.121093750
vt 0.030854739 0.121093750
vt 0.030854739 0.003906250
vt 0.022892894 0.003906250
vt 0.040702369 0.121093750
vt 0.040702369 0.003906250
vt 0.051387664 0.121093750
vt 0.051387664 0.003906250
vt 0.105037514 0.102107099
vt 0.103508717 0.022892894
vt 0.013281252 0.120971046
vt 0.008300782 0.120971039
vt 0.012109376 0.121093750
vt 0.115234375 0.120971046
vt 0.121093750 0.120971039
vt 0.115234360 0.121093750
vt 0.114062503 0.120971039
vt 0.114355467 0.116406247
vt 0.111718751 0.120971046
vt 0.111718737 0.121093750
vt 0.013281256 0.121093750
vt 0.009765625 0.120971046
vt 0.009765626 0.111718751
vt 0.012611441 0.105243785
vt 0.008300782 0.105243778
vt 0.012966047 0.105554864
vt 0.116022388 0.106073331
vt 0.121093750 0.106073325
vt 0.115234375 0.105239659
vt 0.114220105 0.105243778
vt 0.115234375 0.105243785
vt 0.114167571 0.105243778
vt 0.119832928 0.105243778
vt 0.111718750 0.105243785
vt 0.121093750 0.105243779
vt 0.100853132 0.105243785
vt 0.026519875 0.105243785
vt 0.100508673 0.105243778
vt 0.013281252 0.105243785
vt 0.023949865 0.105243785
vt 0.009765625 0.105243785
vt 0.009765625 0.013281251
vt 0.115234375 0.013281251
vt 0.090909073 0.040809978
vt 0.090909073 0.003906250
vt 0.103932053 0.003906250
vt 0.103932053 0.121093750
vt 0.090909073 0.121093750
vt 0.003906250 0.103931949
vt 0.003906250 0.084922835
vt 0.121093750 0.084922835
vt 0.121093750 0.103931949
vt 0.003906250 0.062500000
vt 0.003906250 0.040077165
vt 0.121093750 0.040077165
vt 0.003906250 0.021068050
vt 0.121093750 0.021068050
vt 0.090909073 0.084190022
vt 0.090909073 0.112633675
vt 0.103932053 0.103931949
vt 0.090909137 0.090909006
vt 0.116633564 0.084922835
vt 0.093356125 0.075281113
vt 0.090909104 0.078943260
vt 0.095898442 0.062500000
vt 0.116633564 0.040077165
vt 0.093356125 0.049718883
vt 0.090909146 0.039071300
vt 0.103932053 0.021068050
vt 0.090909137 0.034090997
vt 0.090909104 0.046056739
vt 0.090909104 0.025875193
vt 0.090909073 0.012366322
vt 0.043514726 0.078943260
vt 0.121093750 0.078943260
vt 0.121093750 0.075281113
vt 0.003906250 0.075281113
vt 0.003906250 0.078943260
vt 0.121093750 0.049718883
vt 0.003906250 0.049718883
vt 0.081485274 0.046056739
vt 0.121093750 0.046056739
vt 0.003906250 0.046056739
vt 0.090909104 0.099124806
vt 0.090909146 0.085928703
vn 0.995184629 0.000000000 -0.098018127
vn 0.956940274 0.000000000 -0.290284881
vn 0.881921452 0.000000000 -0.471396386
vn 0.773010603 0.000000000 -0.634393101
vn 0.773010603 0.000000000 0.634393101
vn 0.881921452 0.000000000 0.471396386
vn 0.956940274 0.000000000 0.290284881
vn 0.995184629 0.000000000 0.098018127
vn 0.947463038 0.305950255 -0.093317913
vn 0.947462945 0.305950656 -0.093317544
vn 0.911052764 0.305949704 -0.276365047
vn 0.911052740 0.305950213 -0.276364564
vn 0.839630882 0.305951073 -0.448791626
vn 0.839630681 0.305949615 -0.448792996
vn 0.735942578 0.305951200 -0.603972173
vn 0.735942553 0.305951121 -0.603972243
vn 0.735942596 0.305951123 0.603972189
vn 0.735942533 0.305951202 0.603972227
vn 0.839631284 0.305949652 0.448791841
vn 0.839630257 0.305951110 0.448792770
vn 0.911052612 0.305950200 0.276365000
vn 0.911052900 0.305949691 0.276364612
vn 0.947462913 0.305950645 0.093317901
vn 0.947463077 0.305950244 0.093317557
vn 0.626552841 0.776932016 -0.061710458
vn 0.626552055 0.776932706 -0.061709748
vn 0.602474438 0.776932366 -0.182758448
vn 0.602474722 0.776932056 -0.182758830
vn 0.555243392 0.776932272 -0.296784469
vn 0.555243311 0.776932394 -0.296784299
vn 0.486675104 0.776932394 -0.399403803
vn 0.486675161 0.776932243 -0.399404028
vn 0.486675242 0.776932250 0.399403916
vn 0.486675010 0.776932401 0.399403904
vn 0.555243264 0.776932389 0.296784400
vn 0.555243451 0.776932266 0.296784373
vn 0.602474788 0.776932069 0.182758555
vn 0.602474340 0.776932379 0.182758714
vn 0.626552030 0.776932676 0.061710378
vn 0.626552939 0.776931986 0.061709835
vn 0.000000000 1.000000000 0.000000000
vn 0.995184716 0.000000000 -0.098017251
vn 0.956940178 0.000000000 -0.290285199
vn 0.881921180 0.000000000 -0.471396896
vn 0.773010780 0.000000000 -0.634392887
vn 0.773010946 0.000000000 0.634392684
vn 0.881921180 0.000000000 0.471396896
vn 0.956940178 0.000000000 0.290285199
vn 0.995184716 0.000000000 0.098017251
vn 0.995184598 0.000000000 -0.098018449
vn 0.956940538 0.000000000 -0.290284012
vn 0.881921007 0.000000000 -0.471397219
vn 0.773011084 0.000000000 -0.634392516
vn 0.773011247 0.000000000 0.634392317
vn 0.881921007 0.000000000 0.471397219
vn 0.956940538 0.000000000 0.290284012
vn 0.995184598 0.000000000 0.098018449
vn -0.995184682 0.000000000 0.098017595
vn -0.956940202 0.000000000 0.290285120
vn -0.881921358 0.000000000 0.471396561
vn -0.773010634 0.000000000 0.634393064
vn -0.773010634 0.000000000 -0.634393064
vn -0.881921358 0.000000000 -0.471396561
vn -0.956940202 0.000000000 -0.290285120
vn -0.995184682 0.000000000 -0.098017595
vn 0.000000000 -1.000000000 -0.000000000
vn 0.995184751 0.000000000 -0.098016891
vn 0.956940190 0.000000000 -0.290285159
vn 0.881921409 0.000000000 -0.471396465
vn 0.773010208 0.000000000 -0.634393583
vn 0.773009877 0.000000000 0.634393986
vn 0.881921409 0.000000000 0.471396465
vn 0.956940190 0.000000000 0.290285159
vn 0.995184751 0.000000000 0.098016891
vn -0.995184721 0.000000000 0.098017203
vn -0.956940250 0.000000000 0.290284959
vn -0.881921497 0.000000000 0.471396301
vn -0.773009630 0.000000000 0.634394288
vn -0.773009289 0.000000000 -0.634394702
vn -0.881921497 0.000000000 -0.471396301
vn -0.956940250 0.000000000 -0.290284959
vn -0.995184721 0.000000000 -0.098017203
vn -0.268767425 0.577354332 -0.770990303
vn -0.771012297 0.577327347 0.268762297
vn 0.268767425 0.577354332 0.770990303
vn 0.771012297 0.577327347 -0.268762297
vn 0.307564744 0.707111200 -0.636708473
vn 0.307559592 0.707130754 -0.636689244
vn -0.636708136 0.707110514 -0.307567019
vn -0.636717413 0.707100736 -0.307570294
vn -0.307559592 0.707130754 0.636689244
vn -0.307564744 0.707111200 0.636708473
vn 0.636708136 0.707110514 0.307567019
vn 0.636717413 0.707100736 0.307570294
vn -0.329172684 0.000000000 -0.944269741
vn -0.944274612 0.000000000 0.329158710
vn 0.329172684 -0.000000000 0.944269741
vn 0.944274612 0.000000000 -0.329158710
vn -0.900446034 0.000000000 -0.434967745
vn 0.434969694 0.000000000 -0.900445093
vn -0.434969694 0.000000000 0.900445093
vn 0.900446034 0.000000000 0.434967745
vn 0.555577740 0.831464596 0.000000000
vn 0.831468241 0.555572285 0.000000000
vn 0.980785471 0.195089361 0.000000000
vn 0.980785020 -0.195091629 0.000000000
vn 0.831471899 -0.555566810 0.000000000
vn 0.555569547 -0.831470070 0.000000000
vn 0.000000000 0.000000000 -1.000000000
vn -0.831462890 -0.555580293 0.000000000
vn -0.980786040 -0.195086504 0.000000000
vn -0.980786040 0.195086504 0.000000000
vn -0.831462890 0.555580293 0.000000000
vn -0.000000000 0.000000000 1.000000000
usemtl mat_2
f 1/1/1 2/2/1 3/3/1
f 4/4/1 1/1/1 3/3/1 5/5/1
f 6/6/2 7/7/2 8/8/2
f 2/2/2 6/6/2 8/8/2 3/3/2
f 9/9/3 10/10/3 11/11/3
f 7/7/3 9/9/3 11/11/3 8/8/3
f 10/10/4 12/12/4 13/13/4 11/11/4
f 14/14/5 15/15/5 16/16/5
f 17/17/5 14/14/5 16/16/5 18/18/5
f 19/19/6 20/20/6 21/21/6
f 15/15/6 19/19/6 21/21/6 16/16/6
f 22/22/7 23/23/7 24/24/7
f 20/20/7 22/22/7 24/24/7 21/21/7
f 25/25/8 4/4/8 5/5/8
f 23/23/8 25/25/8 5/5/8 24/24/8
f 5/5/9 3/3/9 26/26/9
f 5/5/10 26/26/10 27/27/10
f 3/3/11 8/8/11 28/28/11
f 3/3/12 28/28/12 26/26/12
f 8/8/13 11/11/13 29/29/13
f 8/8/14 29/29/14 28/28/14
f 30/30/15 11/11/15 13/13/15
f 30/30/15 13/13/15 31/31/15
f 30/30/15 31/31/15 32/32/15
f 11/11/16 30/30/16 33/33/16 29/29/16
f 34/34/17 18/18/17 16/16/17 35/35/17
f 36/36/18 37/37/18 34/34/18
f 36/36/18 34/34/18 35/35/18
f 36/36/18 35/35/18 38/38/18
f 16/16/19 21/21/19 39/39/19
f 16/16/20 39/39/20 35/35/20
f 21/21/21 24/24/21 40/40/21
f 21/21/22 40/40/22 39/39/22
f 24/24/23 5/5/23 27/27/23
f 24/24/24 27/27/24 40/40/24
f 27/41/25 26/42/25 41/43/25
f 27/41/26 41/43/26 42/44/26
f 26/42/27 28/45/27 43/46/27
f 26/42/28 43/46/28 41/43/28
f 28/45/29 29/47/29 44/48/29
f 28/45/30 44/48/30 43/46/30
f 45/49/31 29/47/31 33/50/31
f 29/47/32 45/49/32 46/51/32 44/48/32
f 47/52/33 38/53/33 35/54/33 48/55/33
f 47/52/34 48/55/34 49/56/34
f 35/54/35 39/57/35 50/58/35
f 35/54/36 50/58/36 48/55/36
f 39/57/37 40/59/37 51/60/37
f 39/57/38 51/60/38 50/58/38
f 40/59/39 27/41/39 42/44/39
f 40/59/40 42/44/40 51/60/40
f 51/60/41 42/44/41 41/43/41
f 41/43/41 43/46/41 44/48/41
f 52/61/41 44/48/41 46/51/41
f 53/62/41 49/56/41 48/55/41
f 48/55/41 50/58/41 51/60/41
f 51/60/41 41/43/41 44/48/41
f 54/63/41 44/48/41 52/61/41
f 55/64/41 53/62/41 48/55/41 51/60/41
f 56/65/41 51/60/41 44/48/41 54/63/41
f 57/66/41 55/64/41 51/60/41
f 58/67/41 51/60/41 56/65/41
f 58/67/41 57/66/41 51/60/41
usemtl mat_3
f 59/68/42 60/69/42 61/70/42
f 62/71/42 59/68/42 61/70/42 63/72/42
f 64/73/43 65/74/43 66/75/43
f 60/69/43 64/73/43 66/75/43 61/70/43
f 67/76/44 68/77/44 69/78/44
f 65/74/44 67/76/44 69/78/44 66/75/44
f 70/79/45 71/80/45 72/81/45
f 68/77/45 71/80/45 70/79/45
f 68/77/45 70/79/45 73/82/45
f 68/77/45 73/82/45 69/78/45
f 74/83/46 75/84/46 76/85/46
f 77/86/46 74/83/46 76/85/46 78/87/46
f 79/88/47 80/89/47 81/90/47
f 75/84/47 79/88/47 81/90/47 76/85/47
f 82/91/48 83/92/48 84/93/48
f 80/89/48 82/91/48 84/93/48 81/90/48
f 85/94/49 62/95/49 63/96/49
f 83/92/49 85/94/49 63/96/49 84/93/49
usemtl mat_2
f 86/97/50 87/98/50 88/99/50
f 86/97/50 88/99/50 89/100/50
f 87/98/51 90/101/51 91/102/51
f 87/98/51 91/102/51 88/99/51
f 90/101/52 92/103/52 93/104/52
f 90/101/52 93/104/52 91/102/52
f 94/105/53 92/103/53 95/106/53
f 92/103/53 94/105/53 96/107/53 93/104/53
f 97/108/54 98/109/54 99/110/54 100/111/54
f 97/108/54 100/111/54 101/112/54
f 99/110/55 102/113/55 103/114/55
f 99/110/55 103/114/55 100/111/55
f 102/113/56 104/115/56 105/116/56
f 102/113/56 105/116/56 103/114/56
f 104/115/57 86/97/57 89/100/57
f 104/115/57 89/100/57 105/116/57
f 89/117/41 88/118/41 106/119/41
f 89/117/41 106/119/41 107/120/41
f 88/118/41 91/121/41 108/122/41
f 88/118/41 108/122/41 106/119/41
f 91/121/41 93/123/41 109/124/41
f 91/121/41 109/124/41 108/122/41
f 110/125/41 93/123/41 96/126/41
f 93/123/41 110/125/41 111/127/41 109/124/41
f 112/128/41 101/129/41 100/130/41 113/131/41
f 112/128/41 113/131/41 114/132/41
f 100/130/41 103/133/41 115/134/41
f 100/130/41 115/134/41 113/131/41
f 103/133/41 105/135/41 116/136/41
f 103/133/41 116/136/41 115/134/41
f 105/135/41 89/117/41 107/120/41
f 105/135/41 107/120/41 116/136/41
f 107/100/58 106/137/58 117/138/58
f 107/100/58 117/138/58 118/97/58
f 106/137/59 108/139/59 119/140/59
f 106/137/59 119/140/59 117/138/59
f 108/139/60 109/141/60 120/142/60
f 108/139/60 120/142/60 119/140/60
f 121/143/61 109/141/61 111/144/61
f 109/141/61 121/143/61 122/145/61 120/142/61
f 123/146/62 114/147/62 113/148/62 124/149/62
f 123/146/62 124/149/62 125/150/62
f 113/148/63 115/151/63 126/152/63
f 113/148/63 126/152/63 124/149/63
f 115/151/64 116/153/64 127/154/64
f 115/151/64 127/154/64 126/152/64
f 116/153/65 107/100/65 118/97/65
f 116/153/65 118/97/65 127/154/65
f 118/120/66 117/119/66 87/118/66
f 118/120/66 87/118/66 86/117/66
f 117/119/66 119/122/66 90/121/66
f 117/119/66 90/121/66 87/118/66
f 119/122/66 120/124/66 92/123/66
f 119/122/66 92/123/66 90/121/66
f 128/155/66 120/124/66 122/127/66
f 120/124/66 128/155/66 95/126/66 92/123/66
f 129/156/66 125/132/66 124/131/66 99/130/66
f 129/156/66 99/130/66 98/129/66
f 124/131/66 126/134/66 102/133/66
f 124/131/66 102/133/66 99/130/66
f 126/134/66 127/136/66 104/135/66
f 126/134/66 104/135/66 102/133/66
f 127/136/66 118/120/66 86/117/66
f 127/136/66 86/117/66 104/135/66
f 130/97/67 131/98/67 132/99/67
f 130/97/67 132/99/67 133/100/67
f 131/98/68 134/101/68 135/102/68
f 131/98/68 135/102/68 132/99/68
f 134/101/69 136/103/69 137/104/69
f 134/101/69 137/104/69 135/102/69
f 138/157/70 136/103/70 139/158/70
f 136/103/70 138/157/70 140/159/70 137/104/70
f 141/160/71 142/161/71 143/162/71 144/163/71
f 141/160/71 144/163/71 145/164/71
f 143/162/72 146/113/72 147/114/72
f 143/162/72 147/114/72 144/163/72
f 146/113/73 148/115/73 149/116/73
f 146/113/73 149/116/73 147/114/73
f 148/115/74 130/97/74 133/100/74
f 148/115/74 133/100/74 149/116/74
f 133/117/41 132/118/41 150/165/41
f 133/117/41 150/165/41 151/166/41
f 132/118/41 135/121/41 152/167/41
f 132/118/41 152/167/41 150/165/41
f 135/121/41 137/123/41 153/168/41
f 135/121/41 153/168/41 152/167/41
f 154/169/41 137/123/41 140/170/41
f 137/123/41 154/169/41 155/171/41 153/168/41
f 156/172/41 145/173/41 144/174/41 157/175/41
f 156/172/41 157/175/41 158/176/41
f 144/174/41 147/133/41 159/177/41
f 144/174/41 159/177/41 157/175/41
f 147/133/41 149/135/41 160/178/41
f 147/133/41 160/178/41 159/177/41
f 149/135/41 133/117/41 151/166/41
f 149/135/41 151/166/41 160/178/41
f 151/100/75 150/179/75 161/180/75
f 151/100/75 161/180/75 162/97/75
f 150/179/76 152/181/76 163/182/76
f 150/179/76 163/182/76 161/180/76
f 152/181/77 153/183/77 164/184/77
f 152/181/77 164/184/77 163/182/77
f 165/185/78 153/183/78 155/186/78
f 153/183/78 165/185/78 166/187/78 164/184/78
f 167/188/79 158/189/79 157/190/79 168/191/79
f 167/188/79 168/191/79 169/192/79
f 157/190/80 159/193/80 170/194/80
f 157/190/80 170/194/80 168/191/80
f 159/193/81 160/195/81 171/196/81
f 159/193/81 171/196/81 170/194/81
f 160/195/82 151/100/82 162/97/82
f 160/195/82 162/97/82 171/196/82
f 162/166/66 161/165/66 131/118/66
f 162/166/66 131/118/66 130/117/66
f 161/165/66 163/167/66 134/121/66
f 161/165/66 134/121/66 131/118/66
f 163/167/66 164/168/66 136/123/66
f 163/167/66 136/123/66 134/121/66
f 172/197/66 164/168/66 166/171/66
f 164/168/66 172/197/66 139/170/66 136/123/66
f 173/198/66 169/176/66 168/175/66 143/174/66
f 173/198/66 143/174/66 142/173/66
f 168/175/66 170/177/66 146/133/66
f 168/175/66 146/133/66 143/174/66
f 170/177/66 171/178/66 148/135/66
f 170/177/66 148/135/66 146/133/66
f 171/178/66 162/166/66 130/117/66
f 171/178/66 130/117/66 148/135/66
f 174/199/83 175/200/83 176/201/83
f 177/202/84 178/203/84 179/204/84
f 180/205/85 181/202/85 182/206/85
f 183/207/86 184/208/86 185/203/86
f 176/201/87 184/208/87 183/207/87
f 176/201/88 183/207/88 174/199/88
f 175/200/89 177/202/89 179/204/89
f 175/200/90 179/204/90 176/201/90
f 178/199/91 180/205/91 182/206/91
f 178/199/92 182/206/92 179/209/92
f 181/202/93 185/210/93 184/211/93
f 181/202/94 184/211/94 182/206/94
f 186/212/95 187/213/95 175/200/95 174/199/95
f 186/212/95 174/199/95 188/214/95
f 189/215/96 190/216/96 178/203/96 177/202/96
f 189/215/96 177/202/96 191/217/96
f 192/218/97 193/219/97 181/202/97 180/205/97
f 192/218/97 180/205/97 194/220/97
f 195/221/98 196/222/98 183/207/98 185/203/98
f 195/221/98 185/203/98 197/223/98
f 198/224/99 191/217/99 177/202/99
f 187/213/99 198/224/99 177/202/99 175/200/99
f 199/225/100 188/214/100 174/199/100
f 196/222/100 199/225/100 174/199/100 183/207/100
f 200/226/101 194/220/101 180/205/101
f 190/227/101 200/226/101 180/205/101 178/199/101
f 201/228/102 197/229/102 185/210/102
f 193/219/102 201/228/102 185/210/102 181/202/102
f 176/230/41 179/231/41 182/206/41
f 176/230/41 182/206/41 184/211/41
f 202/232/103 203/233/103 204/234/103 205/235/103
f 202/232/103 205/235/103 206/236/103
f 204/237/104 207/238/104 208/239/104
f 204/237/104 208/239/104 205/240/104
f 207/238/105 209/241/105 210/117/105
f 207/238/105 210/117/105 208/239/105
f 209/241/106 211/242/106 212/243/106
f 209/241/106 212/243/106 210/117/106
f 211/242/107 213/244/107 214/245/107
f 211/242/107 214/245/107 212/243/107
f 215/246/108 213/234/108 216/233/108
f 213/234/108 215/246/108 217/236/108 214/235/108
f 206/247/109 205/248/109 218/249/109
f 205/248/109 208/250/109 219/251/109
f 218/249/109 205/248/109 219/251/109 220/252/109
f 208/250/109 210/117/109 221/253/109
f 208/250/109 221/253/109 219/251/109
f 210/117/109 212/254/109 222/255/109
f 210/117/109 222/255/109 221/253/109
f 223/256/109 212/254/109 214/257/109 224/258/109
f 212/254/109 223/256/109 225/259/109 222/255/109
f 226/260/109 214/257/109 217/261/109
f 224/258/109 214/257/109 226/260/109
f 227/262/110 220/263/110 219/264/110 228/265/110
f 227/262/110 228/265/110 229/266/110
f 219/264/111 221/117/111 230/241/111
f 219/264/111 230/241/111 228/265/111
f 221/117/112 222/267/112 231/268/112
f 221/117/112 231/268/112 230/241/112
f 232/269/113 222/267/113 225/270/113
f 222/267/113 232/269/113 233/271/113 231/268/113
f 234/272/114 235/249/114 204/248/114
f 234/272/114 204/248/114 203/247/114
f 236/273/114 229/252/114 228/251/114 207/250/114
f 235/249/114 236/273/114 207/250/114 204/248/114
f 228/251/114 230/253/114 209/117/114
f 228/251/114 209/117/114 207/250/114
f 230/253/114 231/255/114 211/254/114
f 230/253/114 211/254/114 209/117/114
f 231/255/114 233/259/114 237/258/114 213/257/114
f 231/255/114 213/257/114 211/254/114
f 237/258/114 216/261/114 213/257/114
