# Authored in Blender; exported by tools-export-modern.py
mtllib materials.mtl
s off
v 0.901563372 0.000000000 0.924341382
v 0.890635252 0.000000000 0.915372908
v 0.890635252 0.049999952 0.915372908
v 0.993753690 0.000000000 1.000000000
v 0.993753690 0.049999952 1.000000000
v 0.781541991 0.000000000 0.857061396
v 0.769074202 0.000000000 0.850397229
v 0.769074202 0.049999952 0.850397229
v 0.650701261 0.000000000 0.814489179
v 0.637172937 0.000000000 0.810385406
v 0.637172937 0.049999952 0.810385406
v 0.514069007 0.000000000 0.798260681
v 0.500000000 0.000000000 0.796875000
v 0.500000000 0.049999952 0.796875000
v 0.376896070 0.000000000 0.808999725
v 0.362827063 0.000000000 0.810385406
v 0.362827063 0.049999952 0.810385406
v 0.244454122 0.000000000 0.846293456
v 0.230925798 0.000000000 0.850397229
v 0.230925798 0.049999952 0.850397229
v 0.121832537 0.000000000 0.908708742
v 0.109364748 0.000000000 0.915372908
v 0.109364748 0.049999952 0.915372908
v 0.006246310 0.034302736 1.000000000
v 0.013743605 0.000000000 0.993847130
v 0.006246310 0.000000000 1.000000000
v 0.006246310 0.049999952 1.000000000
v 0.834089245 0.160261766 1.000000000
v 0.726022482 0.171875000 0.954333663
v 0.811458041 0.171875000 1.000000000
v 0.615225315 0.171875000 0.920723736
v 0.500000000 0.171875000 0.909375012
v 0.384774685 0.171875000 0.920723736
v 0.273977518 0.171875000 0.954333663
v 0.175187297 0.165022027 1.000000000
v 0.165910755 0.160261766 1.000000000
v 0.188541959 0.171875000 1.000000000
v 0.095682025 0.111762929 1.000000000
v 0.806615037 0.171875000 1.000000000
v 0.193384963 0.171875000 1.000000000
v 0.733870629 0.171875000 1.000000000
v 0.216676507 0.171875000 1.000000000
v 0.668196017 0.171875000 1.000000000
v 0.496579979 0.171875000 1.000000000
v 0.901904836 0.145090634 1.000000000
v 0.901904836 0.106249928 1.000000000
v 0.823437452 0.106249928 0.939789772
v 0.823437452 0.199999928 0.939789772
v 0.901904836 0.199999928 1.000000000
v 0.667423487 0.106249928 0.875166714
v 0.667423487 0.199999928 0.875166714
v 0.500000000 0.106249928 0.853124976
v 0.500000000 0.199999928 0.853124976
v 0.332576513 0.106249928 0.875166714
v 0.332576513 0.199999928 0.875166714
v 0.176562548 0.106249928 0.939789772
v 0.176562548 0.199999928 0.939789772
v 0.098095164 0.161159223 1.000000000
v 0.098095164 0.106249928 1.000000000
v 0.098095164 0.199999928 1.000000000
v 0.788675101 0.199999928 1.000000000
v 0.736703485 0.199999928 1.000000000
v 0.633974592 0.199999928 1.000000000
v 0.561812244 0.199999928 1.000000000
v 0.500000000 0.199999928 1.000000000
v 0.430786053 0.199999928 1.000000000
v 0.366025408 0.199999928 1.000000000
v 0.310043748 0.199999928 1.000000000
v 0.211324899 0.199999928 1.000000000
v 0.181584827 0.199999928 1.000000000
v 0.818415173 0.106249928 1.000000000
v 0.788675101 0.106249928 1.000000000
v 0.689956252 0.106249928 1.000000000
v 0.633974592 0.106249928 1.000000000
v 0.569213947 0.106249928 1.000000000
v 0.500000000 0.106249928 1.000000000
v 0.438187756 0.106249928 1.000000000
v 0.366025408 0.106249928 1.000000000
v 0.263296515 0.106249928 1.000000000
v 0.211324899 0.106249928 1.000000000
v 0.610435247 0.199999928 0.968891740
v 0.626372576 0.199999928 0.996496320
v 0.626372576 0.225499868 0.996496320
v 0.610435247 0.225499868 0.968891740
v 0.658247709 0.199999928 0.996496320
v 0.658247709 0.225499868 0.996496320
v 0.674185038 0.199999928 0.968891740
v 0.674185038 0.225499868 0.968891740
v 0.658247709 0.199999928 0.941287160
v 0.658247709 0.225499868 0.941287160
v 0.626372576 0.199999928 0.941287160
v 0.626372576 0.225499868 0.941287160
v 0.325814962 0.199999928 0.968891740
v 0.341752291 0.199999928 0.996496320
v 0.341752291 0.225499868 0.996496320
v 0.325814962 0.225499868 0.968891740
v 0.373627424 0.199999928 0.996496320
v 0.373627424 0.225499868 0.996496320
v 0.389564753 0.199999928 0.968891740
v 0.389564753 0.225499868 0.968891740
v 0.373627424 0.199999928 0.941287160
v 0.373627424 0.225499868 0.941287160
v 0.341752291 0.199999928 0.941287160
v 0.341752291 0.225499868 0.941287160
v 0.917173338 0.248166929 1.000000000
v 0.917173338 0.209374905 1.000000000
v 0.828125000 0.209374905 0.931670845
v 0.828125000 0.321874976 0.931670845
v 0.917173338 0.321874976 1.000000000
v 0.669849873 0.209374905 0.866111219
v 0.669849873 0.321874976 0.866111219
v 0.500000000 0.209374905 0.843750000
v 0.500000000 0.321874976 0.843750000
v 0.330150127 0.209374905 0.866111219
v 0.330150127 0.321874976 0.866111219
v 0.171875000 0.209374905 0.931670845
v 0.171875000 0.321874976 0.931670845
v 0.082826662 0.283082952 1.000000000
v 0.082826662 0.209374905 1.000000000
v 0.082826662 0.321874976 1.000000000
v 0.788675178 0.321874976 1.000000000
v 0.638306379 0.321874976 0.983833432
v 0.677336046 0.321874976 1.000000000
v 0.500000000 0.321874976 0.965624988
v 0.361693621 0.321874976 0.983833432
v 0.253984483 0.321874976 1.000000000
v 0.211324822 0.321874976 1.000000000
v 0.322663954 0.321874976 1.000000000
v 0.154032958 0.321874976 1.000000000
v 0.677336046 0.243443797 1.000000000
v 0.638306379 0.209374905 0.983833432
v 0.677336046 0.209374905 1.000000000
v 0.500000000 0.209374905 0.965624988
v 0.361693621 0.209374905 0.983833432
v 0.322663954 0.287806084 1.000000000
v 0.322663954 0.209374905 1.000000000
v 0.845967042 0.209374905 1.000000000
v 0.788675178 0.209374905 1.000000000
v 0.746015517 0.209374905 1.000000000
v 0.211324822 0.209374905 1.000000000
v 0.979520468 1.000000000 0.939644714
v 0.911740980 0.569470774 1.000000000
v 0.907192213 0.569786201 1.000000000
v 0.967431219 1.000000000 0.939760967
v 0.983495723 1.000000000 0.939606491
v 0.923102243 0.568683028 1.000000000
v 1.000000000 1.000000000 0.956110768
v 1.000000000 0.956399358 0.968320792
v 0.991927213 0.814449382 1.000000000
v 1.000000000 0.843276410 1.000000000
v 0.907192214 1.000000000 1.000000000
v 0.028574397 1.000000000 0.939722560
v 0.081454486 0.568999008 1.000000000
v 0.076897792 0.568683028 1.000000000
v 0.016504366 1.000000000 0.939606491
v 0.032568781 1.000000000 0.939760967
v 0.092807787 0.569786201 1.000000000
v 0.000000000 0.843276659 1.000000000
v 0.000000000 1.000000000 0.956110858
v 0.066906057 1.000000000 0.974098274
v 0.092807765 0.910372972 1.000000000
v 0.092807770 1.000000000 1.000000000
vt 0.595963630 0.097222226
vt 0.595052958 0.097222226
vt 0.595052958 0.104166664
vt 0.603646122 0.097222226
vt 0.603646122 0.104166664
vt 0.585961835 0.097222226
vt 0.584922850 0.097222226
vt 0.584922850 0.104166664
vt 0.575058456 0.097222226
vt 0.573931098 0.097222226
vt 0.573931098 0.104166664
vt 0.563672419 0.097222226
vt 0.562500000 0.097222226
vt 0.562500000 0.104166664
vt 0.552241321 0.097222226
vt 0.551068902 0.097222226
vt 0.551068902 0.104166664
vt 0.541204508 0.097222226
vt 0.540077150 0.097222226
vt 0.540077150 0.104166664
vt 0.530986027 0.097222226
vt 0.529947042 0.097222226
vt 0.529947042 0.104166664
vt 0.521353878 0.101986495
vt 0.521978650 0.097222226
vt 0.521353878 0.097222226
vt 0.521353878 0.104166664
vt 0.603646122 0.104166671
vt 0.595052958 0.111218922
vt 0.590340772 0.104166666
vt 0.584922850 0.116633564
vt 0.581335187 0.107972190
vt 0.588454833 0.104166666
vt 0.572102129 0.121093750
vt 0.581335187 0.121093750
vt 0.562500000 0.121093750
vt 0.552897871 0.121093750
vt 0.543664813 0.121093750
vt 0.535432275 0.104166667
vt 0.540077150 0.116633564
vt 0.529947042 0.111218922
vt 0.534659228 0.104166666
vt 0.536545167 0.104166666
vt 0.543664813 0.107972190
vt 0.528806826 0.104166665
vt 0.521353878 0.104166671
vt 0.588051255 0.104166667
vt 0.572102129 0.110773027
vt 0.562500000 0.111718751
vt 0.552897871 0.110773027
vt 0.536948745 0.104166667
vt 0.581989233 0.104166669
vt 0.538889711 0.104166667
vt 0.576516352 0.104166671
vt 0.562215015 0.104166671
vt 0.598904421 0.052457132
vt 0.598904421 0.003906250
vt 0.591796875 0.003906250
vt 0.591796875 0.121093750
vt 0.598904421 0.121093750
vt 0.577665150 0.003906250
vt 0.577665150 0.121093750
vt 0.562500000 0.003906250
vt 0.547334850 0.003906250
vt 0.547334850 0.121093750
vt 0.533203125 0.003906250
vt 0.533203125 0.121093750
vt 0.526095579 0.072542868
vt 0.526095579 0.003906250
vt 0.526095579 0.121093750
vt 0.598904421 0.107789858
vt 0.591796875 0.113243677
vt 0.588648105 0.107789854
vt 0.583940522 0.107789852
vt 0.577665150 0.119097218
vt 0.574635352 0.107789854
vt 0.568098928 0.107789856
vt 0.562500000 0.107789856
vt 0.556230641 0.107789853
vt 0.547334850 0.119097218
vt 0.550364648 0.107789854
vt 0.545293836 0.107789858
vt 0.533203125 0.113243677
vt 0.536351895 0.107789854
vt 0.533658048 0.107789853
vt 0.526095579 0.107789858
vt 0.591341952 0.107789853
vt 0.579706164 0.107789858
vt 0.568769359 0.107789853
vt 0.556901072 0.107789856
vt 0.541059478 0.107789852
vt 0.937500000 0.003906250
vt 0.996093750 0.003906250
vt 0.996093750 0.121093750
vt 0.937500000 0.121093750
vt 0.966796875 0.003906250
vt 0.908203125 0.003906250
vt 0.908203125 0.121093750
vt 0.966796875 0.121093750
vt 0.878906250 0.003906250
vt 0.878906250 0.121093750
vt 0.996093750 0.062500000
vt 0.878906250 0.062500000
vt 0.099747618 0.044314583
vt 0.099747618 0.003906250
vt 0.091796875 0.003906250
vt 0.091796875 0.121093750
vt 0.099747618 0.121093750
vt 0.077665180 0.003906250
vt 0.077665180 0.121093750
vt 0.062500000 0.003906250
vt 0.062500000 0.121093750
vt 0.047334824 0.003906250
vt 0.047334824 0.121093750
vt 0.033203125 0.003906250
vt 0.033203125 0.121093750
vt 0.025252382 0.080685417
vt 0.025252382 0.003906250
vt 0.025252382 0.121093750
vt 0.099747618 0.107142856
vt 0.091796875 0.113243677
vt 0.088274565 0.107142852
vt 0.077665180 0.119097218
vt 0.074848786 0.108586304
vt 0.078333575 0.107142857
vt 0.062500000 0.110212050
vt 0.047334824 0.119097218
vt 0.050151210 0.108586304
vt 0.040534335 0.107142852
vt 0.033203125 0.113243677
vt 0.036725437 0.107142852
vt 0.046666423 0.107142857
vt 0.031610083 0.107142859
vt 0.025252382 0.107142856
vt 0.078333575 0.039394657
vt 0.078333575 0.121093750
vt 0.074848786 0.121093750
vt 0.074848786 0.003906250
vt 0.078333575 0.003906250
vt 0.050151210 0.121093750
vt 0.050151210 0.003906250
vt 0.046666423 0.085605343
vt 0.046666423 0.121093750
vt 0.046666423 0.003906250
vt 0.093389919 0.107142859
vt 0.084465669 0.107142852
vt 0.113534715 0.092234332
vt 0.118221931 0.040388443
vt 0.121093750 0.040351275
vt 0.121093750 0.092036755
vt 0.111049108 0.091387779
vt 0.111049108 0.037847725
vt 0.089670351 0.091461064
vt 0.081762247 0.086075955
vt 0.066473005 0.068507892
vt 0.061244475 0.072075593
vt 0.058506986 0.089192591
vt 0.010298293 0.091201608
vt 0.010298293 0.037957344
vt 0.010582108 0.091268860
vt 0.011112818 0.038052912
vt 0.011439733 0.038091268
vt 0.011439733 0.091472074
vt 0.009900014 0.091514792
vt 0.009156628 0.038855069
vt 0.061244411 0.072075623
vt 0.032818607 0.091472074
vt 0.037363809 0.090056430
vt 0.047888222 0.078518675
vt 0.057780203 0.089192585
vn 0.634393179 0.000000000 -0.773010540
vn 0.471396420 0.000000000 -0.881921434
vn 0.290284758 0.000000000 -0.956940311
vn 0.098017506 0.000000000 -0.995184691
vn -0.098017506 0.000000000 -0.995184691
vn -0.290284758 0.000000000 -0.956940311
vn -0.471396420 0.000000000 -0.881921434
vn -0.634393179 0.000000000 -0.773010540
vn 0.467187924 0.676510740 -0.569270290
vn 0.347151953 0.676510316 -0.649476185
vn 0.347152461 0.676510766 -0.649475444
vn 0.213775267 0.676510516 -0.704722397
vn 0.213775087 0.676510390 -0.704722572
vn 0.072183314 0.676510625 -0.732886719
vn 0.072183186 0.676510549 -0.732886803
vn -0.072183320 0.676510555 -0.732886783
vn -0.072183178 0.676510632 -0.732886727
vn -0.213775297 0.676510401 -0.704722498
vn -0.213775051 0.676510527 -0.704722452
vn -0.347151775 0.676510727 -0.649475852
vn -0.347152673 0.676510277 -0.649475840
vn -0.467188082 0.676510468 -0.569270483
vn -0.467187501 0.676510766 -0.569270606
vn 0.000000000 1.000000000 0.000000000
vn 0.608761979 0.000000000 -0.793352918
vn 0.382683217 0.000000000 -0.923879622
vn 0.130526296 0.000000000 -0.991444848
vn -0.130526296 0.000000000 -0.991444848
vn -0.382683217 0.000000000 -0.923879622
vn -0.608761979 0.000000000 -0.793352918
vn 0.000000000 -1.000000000 -0.000000000
vn -0.866027894 0.000000000 0.499995687
vn 0.000000000 0.000000000 1.000000000
vn 0.866027894 0.000000000 0.499995687
vn 0.866027894 0.000000000 -0.499995687
vn 0.000000000 0.000000000 -1.000000000
vn -0.866027894 0.000000000 -0.499995687
vn 0.608761217 0.000000000 -0.793353503
vn 0.382683040 0.000000000 -0.923879695
vn 0.130526531 0.000000000 -0.991444817
vn -0.130526531 0.000000000 -0.991444817
vn -0.382683040 0.000000000 -0.923879695
vn -0.608761217 0.000000000 -0.793353503
vn -0.382682436 0.000000000 0.923879945
vn -0.130526642 0.000000000 0.991444802
vn 0.130526642 0.000000000 0.991444802
vn 0.382682436 0.000000000 0.923879945
vn -0.009524615 -0.137353979 -0.990476232
vn -0.009523598 -0.137354138 -0.990476220
vn 0.693638131 -0.194248005 -0.693638131
vn -0.707106946 0.000000001 -0.707106616
vn 0.009524688 -0.137353988 -0.990476230
vn 0.009523595 -0.137354121 -0.990476222
vn -0.693638143 -0.194247919 -0.693638143
vn 0.707107106 0.000000045 -0.707106457
vn 0.707106953 -0.000000043 -0.707106610
usemtl mat_0
f 1/1/1 2/2/1 3/3/1
f 4/4/1 1/1/1 3/3/1 5/5/1
f 6/6/2 7/7/2 8/8/2
f 2/2/2 6/6/2 8/8/2 3/3/2
f 9/9/3 10/10/3 11/11/3
f 7/7/3 9/9/3 11/11/3 8/8/3
f 12/12/4 13/13/4 14/14/4
f 10/10/4 12/12/4 14/14/4 11/11/4
f 15/15/5 16/16/5 17/17/5
f 13/13/5 15/15/5 17/17/5 14/14/5
f 18/18/6 19/19/6 20/20/6
f 16/16/6 18/18/6 20/20/6 17/17/6
f 21/21/7 22/22/7 23/23/7
f 19/19/7 21/21/7 23/23/7 20/20/7
f 24/24/8 25/25/8 26/26/8
f 22/22/8 25/25/8 24/24/8
f 22/22/8 24/24/8 27/27/8
f 22/22/8 27/27/8 23/23/8
f 5/28/9 3/29/9 28/30/9
f 3/29/10 8/31/10 29/32/10
f 28/30/11 3/29/11 29/32/11 30/33/11
f 8/8/12 11/11/12 31/34/12
f 8/8/13 31/34/13 29/35/13
f 11/11/14 14/14/14 32/36/14
f 11/11/15 32/36/15 31/34/15
f 14/14/16 17/17/16 33/37/16
f 14/14/17 33/37/17 32/36/17
f 17/17/18 20/20/18 34/38/18
f 17/17/19 34/38/19 33/37/19
f 35/39/20 20/40/20 23/41/20 36/42/20
f 20/40/21 35/39/21 37/43/21 34/44/21
f 38/45/22 23/41/22 27/46/22
f 36/42/23 23/41/23 38/45/23
f 39/47/24 30/33/24 29/32/24 31/48/24
f 31/48/24 32/49/24 33/50/24
f 40/51/24 33/50/24 34/44/24 37/43/24
f 41/52/24 39/47/24 31/48/24
f 42/53/24 31/48/24 33/50/24 40/51/24
f 43/54/24 41/52/24 31/48/24
f 44/55/24 31/48/24 42/53/24
f 43/54/24 31/48/24 44/55/24
f 45/56/25 46/57/25 47/58/25 48/59/25
f 45/56/25 48/59/25 49/60/25
f 47/58/26 50/61/26 51/62/26
f 47/58/26 51/62/26 48/59/26
f 50/61/27 52/63/27 53/36/27
f 50/61/27 53/36/27 51/62/27
f 52/63/28 54/64/28 55/65/28
f 52/63/28 55/65/28 53/36/28
f 54/64/29 56/66/29 57/67/29
f 54/64/29 57/67/29 55/65/29
f 58/68/30 56/66/30 59/69/30
f 56/66/30 58/68/30 60/70/30 57/67/30
f 49/71/24 48/72/24 61/73/24
f 62/74/24 48/72/24 51/75/24 63/76/24
f 61/73/24 48/72/24 62/74/24
f 64/77/24 51/75/24 53/36/24 65/78/24
f 63/76/24 51/75/24 64/77/24
f 66/79/24 53/36/24 55/80/24 67/81/24
f 65/78/24 53/36/24 66/79/24
f 68/82/24 55/80/24 57/83/24 69/84/24
f 67/81/24 55/80/24 68/82/24
f 70/85/24 57/83/24 60/86/24
f 69/84/24 57/83/24 70/85/24
f 71/87/31 72/73/31 47/72/31
f 71/87/31 47/72/31 46/71/31
f 73/88/31 74/76/31 50/75/31
f 72/73/31 73/88/31 50/75/31 47/72/31
f 75/89/31 76/78/31 52/36/31
f 74/76/31 75/89/31 52/36/31 50/75/31
f 77/90/31 78/81/31 54/80/31
f 76/78/31 77/90/31 54/80/31 52/36/31
f 79/91/31 80/84/31 56/83/31
f 78/81/31 79/91/31 56/83/31 54/80/31
f 80/84/31 59/86/31 56/83/31
usemtl mat_1
f 81/92/32 82/93/32 83/94/32
f 81/92/32 83/94/32 84/95/32
f 82/96/33 85/97/33 86/98/33
f 82/96/33 86/98/33 83/99/33
f 85/93/34 87/92/34 88/95/34
f 85/93/34 88/95/34 86/94/34
f 87/92/35 89/100/35 90/101/35
f 87/92/35 90/101/35 88/95/35
f 89/97/36 91/96/36 92/99/36
f 89/97/36 92/99/36 90/98/36
f 91/100/37 81/92/37 84/95/37
f 91/100/37 84/95/37 92/101/37
f 81/102/31 91/96/31 89/97/31
f 89/97/31 87/103/31 85/98/31
f 85/98/31 82/99/31 81/102/31
f 89/97/31 85/98/31 81/102/31
f 92/96/24 84/102/24 83/99/24
f 83/99/24 86/98/24 88/103/24
f 88/103/24 90/97/24 92/96/24
f 83/99/24 88/103/24 92/96/24
f 93/92/32 94/93/32 95/94/32
f 93/92/32 95/94/32 96/95/32
f 94/96/33 97/97/33 98/98/33
f 94/96/33 98/98/33 95/99/33
f 97/93/34 99/92/34 100/95/34
f 97/93/34 100/95/34 98/94/34
f 99/92/35 101/100/35 102/101/35
f 99/92/35 102/101/35 100/95/35
f 101/97/36 103/96/36 104/99/36
f 101/97/36 104/99/36 102/98/36
f 103/100/37 93/92/37 96/95/37
f 103/100/37 96/95/37 104/101/37
f 93/102/31 103/96/31 101/97/31
f 101/97/31 99/103/31 97/98/31
f 97/98/31 94/99/31 93/102/31
f 101/97/31 97/98/31 93/102/31
f 104/96/24 96/102/24 95/99/24
f 95/99/24 98/98/24 100/103/24
f 100/103/24 102/97/24 104/96/24
f 95/99/24 100/103/24 104/96/24
usemtl mat_2
f 105/104/38 106/105/38 107/106/38 108/107/38
f 105/104/38 108/107/38 109/108/38
f 107/106/39 110/109/39 111/110/39
f 107/106/39 111/110/39 108/107/39
f 110/109/40 112/111/40 113/112/40
f 110/109/40 113/112/40 111/110/40
f 112/111/41 114/113/41 115/114/41
f 112/111/41 115/114/41 113/112/41
f 114/113/42 116/115/42 117/116/42
f 114/113/42 117/116/42 115/114/42
f 118/117/43 116/115/43 119/118/43
f 116/115/43 118/117/43 120/119/43 117/116/43
f 109/120/24 108/121/24 121/122/24
f 108/121/24 111/123/24 122/124/24
f 121/122/24 108/121/24 122/124/24 123/125/24
f 111/123/24 113/112/24 124/126/24
f 111/123/24 124/126/24 122/124/24
f 113/112/24 115/127/24 125/128/24
f 113/112/24 125/128/24 124/126/24
f 126/129/24 115/127/24 117/130/24 127/131/24
f 115/127/24 126/129/24 128/132/24 125/128/24
f 129/133/24 117/130/24 120/134/24
f 127/131/24 117/130/24 129/133/24
f 130/135/44 123/136/44 122/137/44 131/138/44
f 130/135/44 131/138/44 132/139/44
f 122/137/45 124/112/45 133/111/45
f 122/137/45 133/111/45 131/138/45
f 124/112/46 125/140/46 134/141/46
f 124/112/46 134/141/46 133/111/46
f 135/142/47 125/140/47 128/143/47
f 125/140/47 135/142/47 136/144/47 134/141/47
f 137/145/31 138/122/31 107/121/31
f 137/145/31 107/121/31 106/120/31
f 139/146/31 132/125/31 131/124/31 110/123/31
f 138/122/31 139/146/31 110/123/31 107/121/31
f 131/124/31 133/126/31 112/112/31
f 131/124/31 112/112/31 110/123/31
f 133/126/31 134/128/31 114/127/31
f 133/126/31 114/127/31 112/112/31
f 134/128/31 136/132/31 140/131/31 116/130/31
f 134/128/31 116/130/31 114/127/31
f 140/131/31 119/134/31 116/130/31
f 141/147/48 142/148/48 143/149/48 144/150/48
f 142/148/49 141/147/49 145/151/49 146/152/49
f 147/153/50 148/154/50 149/155/50
f 147/153/50 149/155/50 146/152/50
f 147/153/50 146/152/50 145/151/50
f 150/156/50 149/155/50 148/154/50
f 151/157/51 144/158/51 143/159/51
f 152/160/52 153/161/52 154/162/52 155/163/52
f 153/161/53 152/160/53 156/164/53 157/165/53
f 158/166/54 159/167/54 155/163/54 154/162/54
f 160/168/55 161/169/55 157/165/55 156/164/55
f 162/170/56 161/169/56 160/168/56
