# Authored in Blender; exported by tools-export-modern.py
mtllib materials.mtl
s off
v 0.975215563 0.000000000 0.000320530
v 0.986242771 0.000000000 0.013757229
v 0.986242771 0.209374905 0.013757229
v 0.974952511 0.000000000 0.000000000
v 0.974952511 0.209374905 0.000000000
v 1.000000000 0.000000000 0.025047489
v 1.000000000 0.209374905 0.025047489
v 1.000000000 0.269624755 0.000000000
v 1.000000000 0.269624629 0.000000064
v 1.000000000 0.221254304 0.020108904
v 0.962882836 0.015623253 0.000000000
v 0.962882836 0.000000000 0.000000000
v 0.979613543 0.000000000 0.020386457
v 0.979613543 0.068750381 0.020386457
v 0.962882836 0.068750381 0.000000000
v 1.000000000 0.000000000 0.037117164
v 1.000000000 0.068750381 0.037117164
v 0.947192482 0.076990153 0.000000000
v 0.947192482 0.051875114 0.000000000
v 0.970995665 0.051875114 0.029004335
v 0.970995665 0.085624695 0.029004335
v 0.947192482 0.085624695 0.000000000
v 1.000000000 0.060509666 0.052807543
v 1.000000000 0.051875114 0.052807543
v 1.000000000 0.085624695 0.052807543
v 0.974731584 0.085624695 0.000000000
v 0.988231421 0.085624695 0.011768579
v 0.978573203 0.085624695 0.000000000
v 1.000000000 0.085624695 0.045635727
v 1.000000000 0.085624695 0.021426787
v 0.978573203 0.055496598 0.000000000
v 0.988231421 0.051875114 0.011768579
v 0.978573203 0.051875114 0.000000000
v 1.000000000 0.082003216 0.021426787
v 1.000000000 0.051875114 0.021426787
v 0.954364258 0.051875114 0.000000000
v 1.000000000 0.051875114 0.025268432
v 0.958055235 0.225375561 0.000000000
v 0.958055235 0.207499981 0.000000000
v 0.976961970 0.207499981 0.023037910
v 0.976961970 0.230000019 0.023037910
v 0.958055235 0.230000019 0.000000000
v 1.000000000 0.212124458 0.041944748
v 1.000000000 0.207499981 0.041944748
v 1.000000000 0.230000019 0.041944748
v 0.982305971 0.230000019 0.000000000
v 0.991546035 0.230000019 0.008453846
v 0.984608126 0.230000019 0.000000000
v 1.000000000 0.230000019 0.036993475
v 1.000000000 0.230000019 0.015391862
v 0.984608126 0.209245619 0.000000000
v 0.991546035 0.207499981 0.008453846
v 0.984608126 0.207499981 0.000000000
v 1.000000000 0.228254356 0.015391862
v 1.000000000 0.207499981 0.015391862
v 0.963006500 0.207499981 0.000000000
v 1.000000000 0.207499981 0.017694039
vt 0.022151567 0.099453493
vt 0.021067962 0.099453493
vt 0.021067962 0.111740753
vt 0.022177416 0.099453493
vt 0.022177416 0.111740753
vt 0.022177418 0.115276546
vt 0.022177413 0.115276539
vt 0.022177416 0.112437902
vt 0.076478993 0.349671528
vt 0.076478993 0.343371831
vt 0.077148438 0.343371831
vt 0.077148438 0.371093750
vt 0.076478993 0.371093750
vt 0.077817882 0.343371831
vt 0.077817882 0.371093750
vt 0.023339601 0.091112328
vt 0.023339601 0.003906250
vt 0.021067960 0.003906250
vt 0.021067960 0.121093750
vt 0.023339601 0.121093750
vt 0.023339603 0.033887703
vt 0.023339603 0.003906250
vt 0.023339603 0.121093750
vt 0.021360556 0.023339599
vt 0.019203674 0.023339601
vt 0.021067960 0.021067960
vt 0.022417875 0.022417875
vt 0.021661436 0.023339600
vt 0.023339600 0.019765375
vt 0.023339603 0.019203672
vt 0.023339599 0.021661436
vt 0.023339600 0.016481001
vt 0.023339600 0.121093750
vt 0.022417875 0.121093750
vt 0.022417875 0.003906250
vt 0.023339600 0.003906250
vt 0.023339599 0.108519013
vt 0.023339599 0.121093750
vt 0.023339599 0.003906250
vt 0.019765374 0.023339603
vt 0.023339600 0.021360555
vt 0.022892893 0.097008069
vt 0.022892893 0.003906250
vt 0.021067962 0.003906250
vt 0.021067962 0.121093750
vt 0.022892893 0.121093750
vt 0.022892900 0.027992030
vt 0.022892900 0.003906250
vt 0.022892900 0.121093750
vt 0.021491285 0.022892894
vt 0.019570281 0.022892893
vt 0.021067962 0.021067962
vt 0.022223229 0.022223229
vt 0.021673648 0.022892894
vt 0.022892903 0.019962486
vt 0.022892900 0.019570275
vt 0.022892903 0.021673640
vt 0.022892894 0.012998100
vt 0.022892894 0.121093750
vt 0.022223229 0.121093750
vt 0.022223229 0.003906250
vt 0.022892894 0.003906250
vt 0.022892903 0.112001772
vt 0.022892903 0.121093750
vt 0.022892903 0.003906250
vt 0.019962491 0.022892893
vt 0.022892902 0.021491275
vn -0.773010603 0.000000000 0.634393101
vn -0.634393101 0.000000000 0.773010603
vn -0.735942578 0.305951200 0.603972173
vn -0.603972189 0.305951123 0.735942596
vn -0.603972163 0.305951071 0.735942639
vn -0.773010946 0.000000000 0.634392684
vn -0.634392684 0.000000000 0.773010946
vn -0.773011247 0.000000000 0.634392317
vn -0.634392715 0.000000000 0.773010920
vn 0.000000000 1.000000000 0.000000000
vn 0.773010634 0.000000000 -0.634393064
vn 0.634392652 0.000000000 -0.773010972
vn 0.000000000 -1.000000000 0.000000000
vn -0.773010280 0.000000000 0.634393495
vn -0.634393583 0.000000000 0.773010208
vn 0.773009704 0.000000000 -0.634394197
vn 0.634394702 0.000000000 -0.773009289
usemtl mat_2
f 1/1/1 2/2/1 3/3/1
f 4/4/1 1/1/1 3/3/1 5/5/1
f 2/2/2 6/4/2 7/5/2 3/3/2
f 8/6/3 5/5/3 3/3/3 9/7/3
f 10/8/4 3/3/4 7/5/4
f 9/7/5 3/3/5 10/8/5
usemtl mat_3
f 11/9/6 12/10/6 13/11/6 14/12/6
f 11/9/6 14/12/6 15/13/6
f 13/11/7 16/14/7 17/15/7 14/12/7
usemtl mat_2
f 18/16/8 19/17/8 20/18/8 21/19/8
f 18/16/8 21/19/8 22/20/8
f 23/21/9 20/18/9 24/22/9
f 20/18/9 23/21/9 25/23/9 21/19/9
f 26/24/10 22/25/10 21/26/10 27/27/10
f 26/24/10 27/27/10 28/28/10
f 29/29/10 21/26/10 25/30/10
f 21/26/10 29/29/10 30/31/10 27/27/10
f 31/32/11 28/33/11 27/34/11 32/35/11
f 31/32/11 32/35/11 33/36/11
f 34/37/12 27/34/12 30/38/12
f 27/34/12 34/37/12 35/39/12 32/35/12
f 36/40/13 33/28/13 32/27/13 20/26/13
f 36/40/13 20/26/13 19/25/13
f 37/41/13 32/27/13 35/31/13
f 32/27/13 37/41/13 24/30/13 20/26/13
f 38/42/14 39/43/14 40/44/14 41/45/14
f 38/42/14 41/45/14 42/46/14
f 43/47/15 40/44/15 44/48/15
f 40/44/15 43/47/15 45/49/15 41/45/15
f 46/50/10 42/51/10 41/52/10 47/53/10
f 46/50/10 47/53/10 48/54/10
f 49/55/10 41/52/10 45/56/10
f 41/52/10 49/55/10 50/57/10 47/53/10
f 51/58/16 48/59/16 47/60/16 52/61/16
f 51/58/16 52/61/16 53/62/16
f 54/63/17 47/60/17 50/64/17
f 47/60/17 54/63/17 55/65/17 52/61/17
f 56/66/13 53/54/13 52/53/13 40/52/13
f 56/66/13 40/52/13 39/51/13
f 57/67/13 52/53/13 55/57/13
f 52/53/13 57/67/13 44/56/13 40/52/13
