# Authored in Blender; exported by tools-export-modern.py
mtllib materials.mtl
s off
v 1.000000000 0.326128476 0.899533517
v 1.000000000 0.240625143 0.899533517
v 0.943153381 0.240625143 0.943153441
v 0.943153381 0.371875048 0.943153441
v 1.000000000 0.371875048 0.899533517
v 0.899533528 0.286371683 1.000000000
v 0.899533528 0.240625143 1.000000000
v 0.899533528 0.371875048 1.000000000
v 1.000000000 0.371875048 0.999999942
v 0.938179661 0.371875048 1.000000000
v 1.000000000 0.371875048 1.000000000
v 1.000000000 0.240625143 0.938179716
v 1.000000000 0.240625143 0.999999942
v 1.000000000 0.230835419 0.907686076
v 1.000000000 0.230451931 0.907489930
v 0.984536529 0.228307486 0.907638609
v 0.990794659 0.241528511 0.913896799
v 0.907638669 0.228307486 0.984536469
v 0.907489989 0.230451947 1.000000000
v 0.907686055 0.230835285 1.000000000
v 0.913896799 0.241528511 0.990794659
v 1.000000000 0.243185817 0.922032776
v 1.000000000 0.244106387 0.923102149
v 0.923102132 0.244106384 1.000000000
v 1.000000000 0.117870668 0.923102102
v 0.921408407 0.130084485 1.000000000
v 0.923102179 0.117870395 1.000000000
v 0.958590380 0.000000000 0.997520478
v 0.956110858 0.000000000 1.000000000
v 1.000000000 0.000000000 0.956110858
v 1.000000000 0.254873669 1.000000000
v 1.000000000 0.248027285 0.951104448
v 1.000000000 0.480030629 0.978111397
v 1.000000000 0.384966350 0.999999894
v 0.986242771 0.493750095 0.986242771
v 1.000000000 0.493750095 0.974952503
v 1.000000000 0.384965971 1.000000000
v 0.974952511 0.493750095 1.000000000
v 1.000000000 1.000000000 0.974952503
v 0.986242771 1.000000000 0.986242771
v 0.974952511 0.708119606 1.000000000
v 0.974952511 1.000000000 1.000000000
v 1.000000000 0.778122867 0.962882874
v 1.000000000 0.540625095 0.962882874
v 0.979613543 0.540625095 0.979613602
v 0.979613543 0.831249952 0.979613602
v 1.000000000 0.831249952 0.962882874
v 0.962882876 0.593752053 1.000000000
v 0.962882876 0.540625095 1.000000000
v 0.962882876 0.831249952 1.000000000
v 1.000000000 0.548865212 0.947192502
v 1.000000000 0.523749828 0.947192502
v 0.970995665 0.523749828 0.970995724
v 0.970995665 0.557499886 0.970995724
v 1.000000000 0.557499886 0.947192502
v 0.947192519 0.532384479 1.000000000
v 0.947192519 0.523749828 1.000000000
v 0.947192519 0.557499886 1.000000000
v 1.000000000 0.557499886 0.974731568
v 0.988231421 0.557499886 0.988231421
v 1.000000000 0.557499886 0.978573213
v 0.954364284 0.557499886 1.000000000
v 0.978573203 0.557499886 1.000000000
v 1.000000000 0.527371359 0.978573213
v 0.988231421 0.523749828 0.988231421
v 1.000000000 0.523749828 0.978573213
v 0.978573203 0.553878351 1.000000000
v 0.978573203 0.523749828 1.000000000
v 1.000000000 0.523749828 0.954364319
v 0.974731584 0.523749828 1.000000000
v 1.000000000 0.684802726 0.947192502
v 1.000000000 0.659687519 0.947192502
v 0.970995665 0.659687519 0.970995724
v 0.970995665 0.693437338 0.970995724
v 1.000000000 0.693437338 0.947192502
v 0.947192519 0.668322109 1.000000000
v 0.947192519 0.659687519 1.000000000
v 0.947192519 0.693437338 1.000000000
v 1.000000000 0.693437338 0.974731568
v 0.988231421 0.693437338 0.988231421
v 1.000000000 0.693437338 0.978573213
v 0.954364284 0.693437338 1.000000000
v 0.978573203 0.693437338 1.000000000
v 1.000000000 0.663309024 0.978573213
v 0.988231421 0.659687519 0.988231421
v 1.000000000 0.659687519 0.978573213
v 0.978573203 0.689815829 1.000000000
v 0.978573203 0.659687519 1.000000000
v 1.000000000 0.659687519 0.954364319
v 0.974731584 0.659687519 1.000000000
v 1.000000000 0.839490369 0.947192502
v 1.000000000 0.814375162 0.947192502
v 0.970995665 0.814375162 0.970995724
v 0.970995665 0.848124981 0.970995724
v 1.000000000 0.848124981 0.947192502
v 0.947192519 0.823009752 1.000000000
v 0.947192519 0.814375162 1.000000000
v 0.947192519 0.848124981 1.000000000
v 1.000000000 0.848124981 0.974731568
v 0.988231421 0.848124981 0.988231421
v 1.000000000 0.848124981 0.978573213
v 0.954364284 0.848124981 1.000000000
v 0.978573203 0.848124981 1.000000000
v 1.000000000 0.817996667 0.978573213
v 0.988231421 0.814375162 0.988231421
v 1.000000000 0.814375162 0.978573213
v 0.978573203 0.844503472 1.000000000
v 0.978573203 0.814375162 1.000000000
v 1.000000000 0.814375162 0.954364319
v 0.974731584 0.814375162 1.000000000
v 1.000000000 0.406625637 0.958055170
v 1.000000000 0.388750076 0.958055170
v 0.976961970 0.388750076 0.976961970
v 0.976961970 0.411250114 0.976961970
v 1.000000000 0.411250114 0.958055170
v 0.958055158 0.393374554 1.000000000
v 0.958055158 0.388750076 1.000000000
v 0.958055158 0.411250114 1.000000000
v 1.000000000 0.411250114 0.982305857
v 0.991546035 0.411250114 0.991546035
v 1.000000000 0.411250114 0.984608033
v 0.963006441 0.411250114 1.000000000
v 0.984608036 0.411250114 1.000000000
v 1.000000000 0.390495739 0.984608033
v 0.991546035 0.388750076 0.991546035
v 1.000000000 0.388750076 0.984608033
v 0.984608036 0.409504454 1.000000000
v 0.984608036 0.388750076 1.000000000
v 1.000000000 0.388750076 0.963006439
v 0.982305852 0.388750076 1.000000000
vt 0.025297620 0.080248567
vt 0.025297620 0.003906250
vt 0.021067964 0.003906250
vt 0.021067964 0.121093750
vt 0.025297620 0.121093750
vt 0.099702384 0.044751405
vt 0.103932038 0.003906250
vt 0.099702384 0.003906250
vt 0.099702384 0.121093750
vt 0.103932038 0.121093750
vt 0.025297620 0.107177568
vt 0.021067964 0.103932038
vt 0.025297614 0.099702384
vt 0.020697895 0.099702381
vt 0.017822436 0.099702384
vt 0.025297614 0.099702380
vt 0.025297623 0.104302107
vt 0.010336090 0.119770346
vt 0.010319656 0.119727947
vt 0.011439733 0.119727947
vt 0.011515824 0.121093750
vt 0.111049108 0.119727947
vt 0.120905836 0.119727947
vt 0.120782049 0.119770330
vt 0.111049116 0.121093750
vt 0.018451334 0.121001949
vt 0.018968291 0.121093750
vt 0.010298293 0.119770323
vt 0.017640838 0.120862922
vt 0.010298297 0.121093750
vt 0.011439733 0.106060026
vt 0.112118472 0.107899577
vt 0.111049108 0.106019217
vt 0.086458414 0.091472074
vt 0.089670254 0.091461064
vt 0.032818607 0.091472074
vt 0.062841390 0.050528432
vt 0.031796269 0.029889412
vt 0.013950895 0.010298293
vt 0.111049116 0.010298295
vt 0.111115066 0.018069518
vt 0.013950895 0.017838695
vt 0.022177416 0.010253412
vt 0.022177408 0.004674519
vt 0.021067962 0.011058546
vt 0.022177416 0.011058546
vt 0.102822593 0.004674519
vt 0.102822585 0.004674497
vt 0.102822584 0.011058546
vt 0.103932038 0.011058546
vt 0.022177416 0.040768047
vt 0.021067962 0.040768047
vt 0.102822584 0.023638916
vt 0.102822584 0.040768047
vt 0.103932038 0.040768047
vt 0.047182118 0.349671528
vt 0.047182118 0.253906250
vt 0.047851562 0.253906250
vt 0.047851562 0.371093750
vt 0.047182118 0.371093750
vt 0.048521005 0.275328421
vt 0.048521005 0.253906250
vt 0.048521005 0.371093750
vt 0.023339603 0.091112297
vt 0.023339603 0.003906250
vt 0.021067960 0.003906250
vt 0.021067960 0.121093750
vt 0.023339603 0.121093750
vt 0.101660401 0.033887626
vt 0.101660401 0.003906250
vt 0.101660401 0.121093750
vt 0.023339600 0.103639447
vt 0.023339603 0.105796327
vt 0.021067960 0.103932038
vt 0.022417875 0.102582127
vt 0.023339599 0.103338565
vt 0.019765376 0.101660400
vt 0.019203677 0.101660401
vt 0.021661436 0.101660402
vt 0.023339599 0.016480987
vt 0.023339599 0.121093750
vt 0.022417875 0.121093750
vt 0.022417875 0.003906250
vt 0.023339599 0.003906250
vt 0.101660402 0.108518999
vt 0.102582127 0.121093750
vt 0.101660402 0.121093750
vt 0.101660402 0.003906250
vt 0.102582127 0.003906250
vt 0.023339600 0.105234624
vt 0.021360556 0.101660402
vt 0.022892900 0.097007970
vt 0.022892900 0.003906250
vt 0.021067962 0.003906250
vt 0.021067962 0.121093750
vt 0.022892900 0.121093750
vt 0.102107100 0.027992030
vt 0.102107100 0.003906250
vt 0.102107100 0.121093750
vt 0.022892902 0.103508727
vt 0.022892900 0.105429726
vt 0.021067962 0.103932038
vt 0.022223229 0.102776773
vt 0.022892903 0.103326362
vt 0.019962487 0.102107099
vt 0.019570275 0.102107100
vt 0.021673641 0.102107099
vt 0.022892903 0.012998228
vt 0.022892903 0.121093750
vt 0.022223229 0.121093750
vt 0.022223229 0.003906250
vt 0.022892903 0.003906250
vt 0.102107099 0.112001782
vt 0.102776773 0.121093750
vt 0.102107099 0.121093750
vt 0.102107099 0.003906250
vt 0.102776773 0.003906250
vt 0.022892903 0.105037515
vt 0.021491275 0.102107100
vn -0.608761251 0.000000000 -0.793353477
vn -0.793353650 0.000000000 -0.608761026
vn 0.000000000 1.000000000 0.000000000
vn 0.000000000 -1.000000000 0.000000000
vn -0.071526272 0.454203204 -0.888022208
vn -0.888023758 0.454200194 -0.071526140
vn 0.402873444 0.693641956 -0.597121282
vn 0.402874645 0.693640367 -0.597122318
vn -0.587601545 0.556281269 -0.587601545
vn -0.597124751 0.693636633 0.402877468
vn 0.009524688 -0.137353988 -0.990476230
vn -0.990476242 -0.137353902 0.009524712
vn -0.990476317 -0.137352924 0.009530993
vn -0.693638143 -0.194247919 -0.693638143
vn -0.137353558 0.980952598 -0.137353558
vn -0.624577762 -0.175231261 -0.761049686
vn -0.624577604 -0.175230989 -0.761049878
vn -0.761050026 -0.175231381 -0.624577314
vn -0.634393351 0.000000000 -0.773010398
vn -0.773010603 0.000000000 -0.634393101
vn -0.634393178 0.000000000 -0.773010541
vn -0.773010780 0.000000000 -0.634392887
vn -0.634392958 0.000000000 -0.773010721
vn -0.773011084 0.000000000 -0.634392516
vn 0.634392652 0.000000000 0.773010972
vn 0.773010634 0.000000000 0.634393064
vn -0.634392846 0.000000000 -0.773010813
vn -0.773010611 0.000000000 -0.634393092
vn 0.634393944 0.000000000 0.773009912
vn 0.773010045 0.000000000 0.634393782
usemtl mat_2
f 1/1/1 2/2/1 3/3/1 4/4/1
f 1/1/1 4/4/1 5/5/1
f 6/6/2 3/7/2 7/8/2
f 3/7/2 6/6/2 8/9/2 4/10/2
f 5/11/3 4/12/3 9/13/3
f 10/14/3 4/12/3 8/15/3
f 11/16/3 4/12/3 10/14/3
f 12/17/4 13/13/4 3/12/4
f 12/17/4 3/12/4 2/11/4
f 13/13/4 7/15/4 3/12/4
f 14/18/5 15/19/5 16/20/5 17/21/5
f 18/22/6 19/23/6 20/24/6 21/25/6
f 22/26/7 17/21/7 23/27/7
f 14/18/8 17/21/8 22/26/8
f 16/20/9 18/22/9 21/25/9
f 16/20/9 21/25/9 17/21/9
f 20/28/10 24/29/10 21/30/10
f 25/31/11 16/20/11 15/19/11
f 26/32/12 19/23/12 18/22/12
f 26/32/13 18/22/13 27/33/13
f 28/34/14 29/35/14 27/33/14 18/22/14
f 25/31/14 30/36/14 28/34/14
f 25/31/14 28/34/14 18/22/14
f 25/31/14 18/22/14 16/20/14
f 31/37/15 32/38/15 17/39/15
f 31/37/15 17/39/15 21/40/15
f 31/37/15 21/40/15 24/41/15
f 23/42/15 17/39/15 32/38/15
f 33/43/16 34/44/16 35/45/16
f 33/43/17 35/45/17 36/46/17
f 34/47/18 37/48/18 38/49/18 35/50/18
f 39/51/19 36/46/19 35/45/19 40/52/19
f 41/53/20 35/50/20 38/49/20
f 42/54/20 40/55/20 35/50/20 41/53/20
usemtl mat_3
f 43/56/21 44/57/21 45/58/21 46/59/21
f 43/56/21 46/59/21 47/60/21
f 48/61/22 45/58/22 49/62/22
f 45/58/22 48/61/22 50/63/22 46/59/22
usemtl mat_2
f 51/64/23 52/65/23 53/66/23 54/67/23
f 51/64/23 54/67/23 55/68/23
f 56/69/24 53/7/24 57/70/24
f 53/7/24 56/69/24 58/71/24 54/10/24
f 59/72/3 55/73/3 54/74/3 60/75/3
f 59/72/3 60/75/3 61/76/3
f 62/77/3 54/74/3 58/78/3
f 54/74/3 62/77/3 63/79/3 60/75/3
f 64/80/25 61/81/25 60/82/25 65/83/25
f 64/80/25 65/83/25 66/84/25
f 67/85/26 60/86/26 63/87/26
f 60/86/26 67/85/26 68/88/26 65/89/26
f 69/90/4 66/76/4 65/75/4 53/74/4
f 69/90/4 53/74/4 52/73/4
f 70/91/4 65/75/4 68/79/4
f 65/75/4 70/91/4 57/78/4 53/74/4
f 71/64/23 72/65/23 73/66/23 74/67/23
f 71/64/23 74/67/23 75/68/23
f 76/69/24 73/7/24 77/70/24
f 73/7/24 76/69/24 78/71/24 74/10/24
f 79/72/3 75/73/3 74/74/3 80/75/3
f 79/72/3 80/75/3 81/76/3
f 82/77/3 74/74/3 78/78/3
f 74/74/3 82/77/3 83/79/3 80/75/3
f 84/80/25 81/81/25 80/82/25 85/83/25
f 84/80/25 85/83/25 86/84/25
f 87/85/26 80/86/26 83/87/26
f 80/86/26 87/85/26 88/88/26 85/89/26
f 89/90/4 86/76/4 85/75/4 73/74/4
f 89/90/4 73/74/4 72/73/4
f 90/91/4 85/75/4 88/79/4
f 85/75/4 90/91/4 77/78/4 73/74/4
f 91/64/23 92/65/23 93/66/23 94/67/23
f 91/64/23 94/67/23 95/68/23
f 96/69/24 93/7/24 97/70/24
f 93/7/24 96/69/24 98/71/24 94/10/24
f 99/72/3 95/73/3 94/74/3 100/75/3
f 99/72/3 100/75/3 101/76/3
f 102/77/3 94/74/3 98/78/3
f 94/74/3 102/77/3 103/79/3 100/75/3
f 104/80/25 101/81/25 100/82/25 105/83/25
f 104/80/25 105/83/25 106/84/25
f 107/85/26 100/86/26 103/87/26
f 100/86/26 107/85/26 108/88/26 105/89/26
f 109/90/4 106/76/4 105/75/4 93/74/4
f 109/90/4 93/74/4 92/73/4
f 110/91/4 105/75/4 108/79/4
f 105/75/4 110/91/4 97/78/4 93/74/4
f 111/92/27 112/93/27 113/94/27 114/95/27
f 111/92/27 114/95/27 115/96/27
f 116/97/28 113/7/28 117/98/28
f 113/7/28 116/97/28 118/99/28 114/10/28
f 119/100/3 115/101/3 114/102/3 120/103/3
f 119/100/3 120/103/3 121/104/3
f 122/105/3 114/102/3 118/106/3
f 114/102/3 122/105/3 123/107/3 120/103/3
f 124/108/29 121/109/29 120/110/29 125/111/29
f 124/108/29 125/111/29 126/112/29
f 127/113/30 120/114/30 123/115/30
f 120/114/30 127/113/30 128/116/30 125/117/30
f 129/118/4 126/104/4 125/103/4 113/102/4
f 129/118/4 113/102/4 112/101/4
f 130/119/4 125/103/4 128/107/4
f 125/103/4 130/119/4 117/106/4 113/102/4
