# Authored in Blender; exported by tools-export-modern.py
mtllib materials.mtl
s off
v 1.000000000 0.071967212 0.720000029
v 0.280000001 0.010000000 0.720000029
v 1.000000000 0.010000000 0.720000029
v 1.000000000 0.219999999 0.720000029
v 0.280000001 0.219999999 0.720000029
v 0.280000001 0.010000000 0.000000000
v 1.000000000 0.010000000 0.000000000
v 1.000000000 0.219999999 0.000000000
v 0.280000001 0.219999999 0.000000000
v 0.280000001 0.158032784 0.000000000
v 1.000000000 0.419999987 0.398219357
v 1.000000000 0.419999987 0.399403313
v 0.985000014 0.419999987 0.392006159
v 0.872975767 0.419999987 0.317153931
v 0.771680057 0.419999987 0.228319883
v 0.682846129 0.419999987 0.127024174
v 0.607993901 0.419999987 0.014999866
v 0.601780746 0.419999987 0.000000000
v 0.600596784 0.419999987 0.000000000
v 1.000000000 0.419999987 0.396025392
v 0.603974697 0.419999987 0.000000000
v 1.000000000 0.419999987 0.241324756
v 0.607993901 0.419999987 0.000000000
v 1.000000000 0.419999987 0.014999866
v 0.616654078 0.419999987 0.000000000
v 1.000000000 0.419999987 0.000000000
v 0.600596784 1.000000000 0.000000000
v 0.607993901 1.000000000 0.014999866
v 0.622181578 1.000000000 0.036233232
v 0.682846129 1.000000000 0.127024174
v 0.699683933 1.000000000 0.146224014
v 0.771680057 1.000000000 0.228319883
v 0.790879898 1.000000000 0.245157710
v 0.872975767 1.000000000 0.317153931
v 0.894209121 1.000000000 0.331341608
v 0.985000014 1.000000000 0.392006159
v 1.000000000 0.799852879 0.399403313
v 1.000000000 1.000000000 0.399403313
v 0.585020255 0.448713175 0.000000000
v 0.585020255 0.419999987 0.000000000
v 0.595869482 0.419999987 0.022000074
v 0.595869482 0.455000013 0.022000074
v 0.585020255 0.455000013 0.000000000
v 0.671739101 0.419999987 0.135546923
v 0.671739101 0.455000013 0.135546923
v 0.761780500 0.419999987 0.238219500
v 0.761780500 0.455000013 0.238219500
v 0.864453077 0.419999987 0.328260899
v 0.864453077 0.455000013 0.328260899
v 0.977999985 0.419999987 0.404130459
v 0.977999985 0.455000013 0.404130459
v 1.000000000 0.426286811 0.414979672
v 1.000000000 0.419999987 0.414979672
v 1.000000000 0.455000013 0.414979672
v 0.615044619 0.455000013 0.000000000
v 0.620984256 0.455000013 0.007499933
v 0.617285695 0.455000013 0.000000000
v 0.694746375 0.455000013 0.117892742
v 0.782286644 0.455000013 0.217713356
v 0.882107139 0.455000013 0.305253506
v 0.992500007 0.455000013 0.379015684
v 1.000000000 0.455000013 0.409665570
v 1.000000000 0.455000013 0.382714276
v 0.617285695 0.422204439 0.000000000
v 0.620984256 0.419999987 0.007499933
v 0.617285695 0.419999987 0.000000000
v 0.694746375 0.419999987 0.117892742
v 0.782286644 0.419999987 0.217713356
v 0.882107139 0.419999987 0.305253506
v 0.992500007 0.419999987 0.379015684
v 1.000000000 0.452795545 0.382714276
v 1.000000000 0.419999987 0.382714276
v 0.590334368 0.419999987 0.000000000
v 1.000000000 0.419999987 0.384955370
v 0.585020255 0.578713151 0.000000000
v 0.585020255 0.550000012 0.000000000
v 0.595869482 0.550000012 0.022000074
v 0.595869482 0.584999979 0.022000074
v 0.585020255 0.584999979 0.000000000
v 0.671739101 0.550000012 0.135546923
v 0.671739101 0.584999979 0.135546923
v 0.761780500 0.550000012 0.238219500
v 0.761780500 0.584999979 0.238219500
v 0.864453077 0.550000012 0.328260899
v 0.864453077 0.584999979 0.328260899
v 0.977999985 0.550000012 0.404130459
v 0.977999985 0.584999979 0.404130459
v 1.000000000 0.556286826 0.414979672
v 1.000000000 0.550000012 0.414979672
v 1.000000000 0.584999979 0.414979672
v 0.615044619 0.584999979 0.000000000
v 0.620984256 0.584999979 0.007499933
v 0.617285695 0.584999979 0.000000000
v 0.694746375 0.584999979 0.117892742
v 0.782286644 0.584999979 0.217713356
v 0.882107139 0.584999979 0.305253506
v 0.992500007 0.584999979 0.379015684
v 1.000000000 0.584999979 0.409665570
v 1.000000000 0.584999979 0.382714276
v 0.617285695 0.552204460 0.000000000
v 0.620984256 0.550000012 0.007499933
v 0.617285695 0.550000012 0.000000000
v 0.694746375 0.550000012 0.117892742
v 0.782286644 0.550000012 0.217713356
v 0.882107139 0.550000012 0.305253506
v 0.992500007 0.550000012 0.379015684
v 1.000000000 0.582795514 0.382714276
v 1.000000000 0.550000012 0.382714276
v 0.590334368 0.550000012 0.000000000
v 1.000000000 0.550000012 0.384955370
v 0.750000000 0.200000003 0.049999952
v 0.750000000 0.509999990 0.049999952
v 0.949999988 0.509999990 0.049999952
v 0.949999988 0.200000003 0.049999952
v 0.750000000 0.200000003 0.250000000
v 0.949999988 0.200000003 0.250000000
v 0.949999988 0.509999990 0.250000000
v 0.750000000 0.509999990 0.250000000
vt 0.500000000 0.500000000
vn 0.000000000 0.000000000 1.000000000
vn 0.000000000 -1.000000000 0.000000000
vn 0.000000000 1.000000000 0.000000000
vn -1.000000000 0.000000000 0.000000000
vn -0.896872702 0.000000000 0.442288770
vn -0.831469684 0.000000000 0.555570126
vn -0.751839900 0.000000000 0.659345710
vn -0.659346210 0.000000000 0.751839461
vn -0.555570330 0.000000000 0.831469547
vn -0.442287707 0.000000000 0.896873226
vn -0.896872894 0.000000000 0.442288382
vn -0.831469472 0.000000000 0.555570443
vn -0.751839932 0.000000000 0.659345673
vn -0.659345673 0.000000000 0.751839932
vn -0.555569939 0.000000000 0.831469809
vn -0.442288906 0.000000000 0.896872635
vn 0.896872590 0.000000000 -0.442288997
vn 0.831469605 0.000000000 -0.555570244
vn 0.751840031 0.000000000 -0.659345560
vn 0.659345497 0.000000000 -0.751840086
vn 0.555570347 0.000000000 -0.831469536
vn 0.442289180 0.000000000 -0.896872500
vn 0.000000000 0.000000000 -1.000000000
vn 1.000000000 0.000000000 0.000000000
usemtl mat_0
f 1/1/1 2/1/1 3/1/1
f 2/1/1 1/1/1 4/1/1 5/1/1
f 6/1/2 7/1/2 3/1/2 2/1/2
f 8/1/3 9/1/3 5/1/3 4/1/3
f 10/1/4 6/1/4 2/1/4 5/1/4
f 10/1/4 5/1/4 9/1/4
usemtl mat_1
f 11/1/2 12/1/2 13/1/2
f 13/1/2 14/1/2 15/1/2
f 15/1/2 16/1/2 17/1/2
f 18/1/2 17/1/2 19/1/2
f 20/1/2 11/1/2 13/1/2
f 13/1/2 15/1/2 17/1/2
f 21/1/2 17/1/2 18/1/2
f 22/1/2 20/1/2 13/1/2 17/1/2
f 23/1/2 17/1/2 21/1/2
f 24/1/2 22/1/2 17/1/2
f 25/1/2 17/1/2 23/1/2
f 26/1/2 24/1/2 17/1/2 25/1/2
f 27/1/5 19/1/5 17/1/5 28/1/5
f 29/1/6 17/1/6 16/1/6 30/1/6
f 28/1/6 17/1/6 29/1/6
f 31/1/7 16/1/7 15/1/7 32/1/7
f 30/1/7 16/1/7 31/1/7
f 33/1/8 15/1/8 14/1/8 34/1/8
f 32/1/8 15/1/8 33/1/8
f 35/1/9 14/1/9 13/1/9 36/1/9
f 34/1/9 14/1/9 35/1/9
f 37/1/10 13/1/10 12/1/10
f 36/1/10 13/1/10 37/1/10 38/1/10
usemtl mat_2
f 39/1/11 40/1/11 41/1/11 42/1/11
f 39/1/11 42/1/11 43/1/11
f 41/1/12 44/1/12 45/1/12
f 41/1/12 45/1/12 42/1/12
f 44/1/13 46/1/13 47/1/13
f 44/1/13 47/1/13 45/1/13
f 46/1/14 48/1/14 49/1/14
f 46/1/14 49/1/14 47/1/14
f 48/1/15 50/1/15 51/1/15
f 48/1/15 51/1/15 49/1/15
f 52/1/16 50/1/16 53/1/16
f 50/1/16 52/1/16 54/1/16 51/1/16
f 55/1/3 43/1/3 42/1/3 56/1/3
f 55/1/3 56/1/3 57/1/3
f 42/1/3 45/1/3 58/1/3
f 42/1/3 58/1/3 56/1/3
f 45/1/3 47/1/3 59/1/3
f 45/1/3 59/1/3 58/1/3
f 47/1/3 49/1/3 60/1/3
f 47/1/3 60/1/3 59/1/3
f 49/1/3 51/1/3 61/1/3
f 49/1/3 61/1/3 60/1/3
f 62/1/3 51/1/3 54/1/3
f 51/1/3 62/1/3 63/1/3 61/1/3
f 64/1/17 57/1/17 56/1/17 65/1/17
f 64/1/17 65/1/17 66/1/17
f 56/1/18 58/1/18 67/1/18
f 56/1/18 67/1/18 65/1/18
f 58/1/19 59/1/19 68/1/19
f 58/1/19 68/1/19 67/1/19
f 59/1/20 60/1/20 69/1/20
f 59/1/20 69/1/20 68/1/20
f 60/1/21 61/1/21 70/1/21
f 60/1/21 70/1/21 69/1/21
f 71/1/22 61/1/22 63/1/22
f 61/1/22 71/1/22 72/1/22 70/1/22
f 73/1/2 66/1/2 65/1/2 41/1/2
f 73/1/2 41/1/2 40/1/2
f 65/1/2 67/1/2 44/1/2
f 65/1/2 44/1/2 41/1/2
f 67/1/2 68/1/2 46/1/2
f 67/1/2 46/1/2 44/1/2
f 68/1/2 69/1/2 48/1/2
f 68/1/2 48/1/2 46/1/2
f 69/1/2 70/1/2 50/1/2
f 69/1/2 50/1/2 48/1/2
f 74/1/2 70/1/2 72/1/2
f 70/1/2 74/1/2 53/1/2 50/1/2
f 75/1/11 76/1/11 77/1/11 78/1/11
f 75/1/11 78/1/11 79/1/11
f 77/1/12 80/1/12 81/1/12
f 77/1/12 81/1/12 78/1/12
f 80/1/13 82/1/13 83/1/13
f 80/1/13 83/1/13 81/1/13
f 82/1/14 84/1/14 85/1/14
f 82/1/14 85/1/14 83/1/14
f 84/1/15 86/1/15 87/1/15
f 84/1/15 87/1/15 85/1/15
f 88/1/16 86/1/16 89/1/16
f 86/1/16 88/1/16 90/1/16 87/1/16
f 91/1/3 79/1/3 78/1/3 92/1/3
f 91/1/3 92/1/3 93/1/3
f 78/1/3 81/1/3 94/1/3
f 78/1/3 94/1/3 92/1/3
f 81/1/3 83/1/3 95/1/3
f 81/1/3 95/1/3 94/1/3
f 83/1/3 85/1/3 96/1/3
f 83/1/3 96/1/3 95/1/3
f 85/1/3 87/1/3 97/1/3
f 85/1/3 97/1/3 96/1/3
f 98/1/3 87/1/3 90/1/3
f 87/1/3 98/1/3 99/1/3 97/1/3
f 100/1/17 93/1/17 92/1/17 101/1/17
f 100/1/17 101/1/17 102/1/17
f 92/1/18 94/1/18 103/1/18
f 92/1/18 103/1/18 101/1/18
f 94/1/19 95/1/19 104/1/19
f 94/1/19 104/1/19 103/1/19
f 95/1/20 96/1/20 105/1/20
f 95/1/20 105/1/20 104/1/20
f 96/1/21 97/1/21 106/1/21
f 96/1/21 106/1/21 105/1/21
f 107/1/22 97/1/22 99/1/22
f 97/1/22 107/1/22 108/1/22 106/1/22
f 109/1/2 102/1/2 101/1/2 77/1/2
f 109/1/2 77/1/2 76/1/2
f 101/1/2 103/1/2 80/1/2
f 101/1/2 80/1/2 77/1/2
f 103/1/2 104/1/2 82/1/2
f 103/1/2 82/1/2 80/1/2
f 104/1/2 105/1/2 84/1/2
f 104/1/2 84/1/2 82/1/2
f 105/1/2 106/1/2 86/1/2
f 105/1/2 86/1/2 84/1/2
f 110/1/2 106/1/2 108/1/2
f 106/1/2 110/1/2 89/1/2 86/1/2
usemtl mat_3
f 111/1/23 112/1/23 113/1/23
f 111/1/23 113/1/23 114/1/23
f 115/1/1 116/1/1 117/1/1
f 115/1/1 117/1/1 118/1/1
f 111/1/2 114/1/2 116/1/2
f 111/1/2 116/1/2 115/1/2
f 112/1/3 118/1/3 117/1/3
f 112/1/3 117/1/3 113/1/3
f 111/1/4 115/1/4 118/1/4
f 111/1/4 118/1/4 112/1/4
f 114/1/24 113/1/24 117/1/24
f 114/1/24 117/1/24 116/1/24
