# Authored in Blender; exported by tools-export-modern.py
mtllib materials.mtl
s off
v 0.609508688 0.480000019 0.000000000
v 0.600596784 0.480000019 0.000000000
v 0.607993901 0.480000019 0.014999866
v 0.682846129 0.480000019 0.127024174
v 0.771680057 0.480000019 0.228319883
v 0.872975767 0.480000019 0.317153931
v 1.000000000 0.480000019 0.390491322
v 0.985000014 0.480000019 0.392006159
v 1.000000000 0.480000019 0.399403313
v 0.629615069 0.480000019 0.000000000
v 1.000000000 0.480000019 0.369769110
v 1.000000000 0.480000019 0.240685632
v 0.686332475 0.480000019 0.000000000
v 1.000000000 0.480000019 0.000000000
v 0.600596784 0.100149772 0.000000000
v 0.600596784 0.000000000 0.000000000
v 0.607993901 0.000000000 0.014999866
v 0.671104603 0.000000000 0.109451733
v 0.682846129 0.000000000 0.127024174
v 0.757745323 0.000000000 0.212430360
v 0.771680057 0.000000000 0.228319883
v 0.857086243 0.000000000 0.303219178
v 0.872975767 0.000000000 0.317153931
v 0.967427583 0.000000000 0.380264632
v 0.985000014 0.000000000 0.392006159
v 1.000000000 0.000000000 0.399403313
v 0.585020255 0.488713079 0.000000000
v 0.585020255 0.460000038 0.000000000
v 0.595869482 0.460000038 0.022000074
v 0.595869482 0.494999886 0.022000074
v 0.585020255 0.494999886 0.000000000
v 0.671739101 0.460000038 0.135546923
v 0.671739101 0.494999886 0.135546923
v 0.761780500 0.460000038 0.238219500
v 0.761780500 0.494999886 0.238219500
v 0.864453077 0.460000038 0.328260899
v 0.864453077 0.494999886 0.328260899
v 0.977999985 0.460000038 0.404130459
v 0.977999985 0.494999886 0.404130459
v 1.000000000 0.466286830 0.414979672
v 1.000000000 0.460000038 0.414979672
v 1.000000000 0.494999886 0.414979672
v 0.615044619 0.494999886 0.000000000
v 0.620984256 0.494999886 0.007499933
v 0.617285695 0.494999886 0.000000000
v 0.694746375 0.494999886 0.117892742
v 0.782286644 0.494999886 0.217713356
v 0.882107139 0.494999886 0.305253506
v 0.992500007 0.494999886 0.379015684
v 1.000000000 0.494999886 0.409665570
v 1.000000000 0.494999886 0.382714276
v 0.617285695 0.462204479 0.000000000
v 0.620984256 0.460000038 0.007499933
v 0.617285695 0.460000038 0.000000000
v 0.694746375 0.460000038 0.117892742
v 0.782286644 0.460000038 0.217713356
v 0.882107139 0.460000038 0.305253506
v 0.992500007 0.460000038 0.379015684
v 1.000000000 0.492795429 0.382714276
v 1.000000000 0.460000038 0.382714276
v 0.590334368 0.460000038 0.000000000
v 1.000000000 0.460000038 0.384955370
v 1.000000000 0.460000038 0.328534833
v 1.000000000 0.460000038 0.330022051
v 0.909501374 0.460000038 0.269552708
v 0.814106405 0.460000038 0.185893536
v 0.671465221 0.460000038 0.000000000
v 0.730447233 0.460000038 0.090498686
v 0.669977986 0.460000038 0.000000000
v 0.674955306 0.460000038 0.000000000
v 1.000000000 0.460000038 0.325044749
v 0.685936060 0.460000038 0.000000000
v 1.000000000 0.460000038 0.181324898
v 1.000000000 0.460000038 0.000000000
v 0.678197815 0.609999895 0.000000000
v 0.669977986 0.609999895 0.000000000
v 0.730447233 0.609999895 0.090498686
v 0.814106405 0.609999895 0.185893536
v 0.909501374 0.609999895 0.269552708
v 1.000000000 0.609999895 0.321802154
v 1.000000000 0.609999895 0.330022051
v 0.702666295 0.609999895 0.000000000
v 1.000000000 0.609999895 0.307038491
v 1.000000000 0.609999895 0.175189675
v 0.771688401 0.609999895 0.000000000
v 1.000000000 0.609999895 0.000000000
v 0.669977986 0.481327280 0.000000000
v 1.000000000 0.588672641 0.330022051
vt 0.500000000 0.500000000
vn 0.000000000 1.000000000 0.000000000
vn -0.896872702 0.000000000 0.442288770
vn -0.831469684 0.000000000 0.555570126
vn -0.751839900 0.000000000 0.659345710
vn -0.659346210 0.000000000 0.751839461
vn -0.555570330 0.000000000 0.831469547
vn -0.442287707 0.000000000 0.896873226
vn -0.896872894 0.000000000 0.442288382
vn -0.831469472 0.000000000 0.555570443
vn -0.751839932 0.000000000 0.659345673
vn -0.659345673 0.000000000 0.751839932
vn -0.555569939 0.000000000 0.831469809
vn -0.442288906 0.000000000 0.896872635
vn 0.896872590 0.000000000 -0.442288997
vn 0.831469605 0.000000000 -0.555570244
vn 0.751840031 0.000000000 -0.659345560
vn 0.659345497 0.000000000 -0.751840086
vn 0.555570347 0.000000000 -0.831469536
vn 0.442289180 0.000000000 -0.896872500
vn 0.000000000 -1.000000000 0.000000000
vn -0.831469789 0.000000000 0.555569968
vn -0.751839284 0.000000000 0.659346413
vn -0.659345947 0.000000000 0.751839692
vn -0.555570834 0.000000000 0.831469210
usemtl mat_1
f 1/1/1 2/1/1 3/1/1 4/1/1
f 4/1/1 5/1/1 6/1/1
f 7/1/1 6/1/1 8/1/1 9/1/1
f 10/1/1 1/1/1 4/1/1 6/1/1
f 11/1/1 6/1/1 7/1/1
f 12/1/1 13/1/1 10/1/1
f 12/1/1 10/1/1 6/1/1
f 12/1/1 6/1/1 11/1/1
f 14/1/1 13/1/1 12/1/1
f 15/1/2 16/1/2 17/1/2 3/1/2
f 15/1/2 3/1/2 2/1/2
f 18/1/3 19/1/3 4/1/3
f 17/1/3 18/1/3 4/1/3 3/1/3
f 20/1/4 21/1/4 5/1/4
f 19/1/4 20/1/4 5/1/4 4/1/4
f 22/1/5 23/1/5 6/1/5
f 21/1/5 22/1/5 6/1/5 5/1/5
f 24/1/6 25/1/6 8/1/6
f 23/1/6 24/1/6 8/1/6 6/1/6
f 25/1/7 26/1/7 9/1/7 8/1/7
usemtl mat_2
f 27/1/8 28/1/8 29/1/8 30/1/8
f 27/1/8 30/1/8 31/1/8
f 29/1/9 32/1/9 33/1/9
f 29/1/9 33/1/9 30/1/9
f 32/1/10 34/1/10 35/1/10
f 32/1/10 35/1/10 33/1/10
f 34/1/11 36/1/11 37/1/11
f 34/1/11 37/1/11 35/1/11
f 36/1/12 38/1/12 39/1/12
f 36/1/12 39/1/12 37/1/12
f 40/1/13 38/1/13 41/1/13
f 38/1/13 40/1/13 42/1/13 39/1/13
f 43/1/1 31/1/1 30/1/1 44/1/1
f 43/1/1 44/1/1 45/1/1
f 30/1/1 33/1/1 46/1/1
f 30/1/1 46/1/1 44/1/1
f 33/1/1 35/1/1 47/1/1
f 33/1/1 47/1/1 46/1/1
f 35/1/1 37/1/1 48/1/1
f 35/1/1 48/1/1 47/1/1
f 37/1/1 39/1/1 49/1/1
f 37/1/1 49/1/1 48/1/1
f 50/1/1 39/1/1 42/1/1
f 39/1/1 50/1/1 51/1/1 49/1/1
f 52/1/14 45/1/14 44/1/14 53/1/14
f 52/1/14 53/1/14 54/1/14
f 44/1/15 46/1/15 55/1/15
f 44/1/15 55/1/15 53/1/15
f 46/1/16 47/1/16 56/1/16
f 46/1/16 56/1/16 55/1/16
f 47/1/17 48/1/17 57/1/17
f 47/1/17 57/1/17 56/1/17
f 48/1/18 49/1/18 58/1/18
f 48/1/18 58/1/18 57/1/18
f 59/1/19 49/1/19 51/1/19
f 49/1/19 59/1/19 60/1/19 58/1/19
f 61/1/20 54/1/20 53/1/20 29/1/20
f 61/1/20 29/1/20 28/1/20
f 53/1/20 55/1/20 32/1/20
f 53/1/20 32/1/20 29/1/20
f 55/1/20 56/1/20 34/1/20
f 55/1/20 34/1/20 32/1/20
f 56/1/20 57/1/20 36/1/20
f 56/1/20 36/1/20 34/1/20
f 57/1/20 58/1/20 38/1/20
f 57/1/20 38/1/20 36/1/20
f 62/1/20 58/1/20 60/1/20
f 58/1/20 62/1/20 41/1/20 38/1/20
f 63/1/20 64/1/20 65/1/20 66/1/20
f 67/1/20 66/1/20 68/1/20 69/1/20
f 70/1/20 71/1/20 63/1/20
f 70/1/20 63/1/20 66/1/20
f 70/1/20 66/1/20 67/1/20
f 72/1/20 73/1/20 71/1/20 70/1/20
f 74/1/20 73/1/20 72/1/20
f 75/1/1 76/1/1 77/1/1
f 77/1/1 78/1/1 79/1/1
f 80/1/1 79/1/1 81/1/1
f 82/1/1 75/1/1 77/1/1 79/1/1
f 83/1/1 79/1/1 80/1/1
f 84/1/1 85/1/1 82/1/1
f 84/1/1 82/1/1 79/1/1
f 84/1/1 79/1/1 83/1/1
f 86/1/1 85/1/1 84/1/1
f 87/1/21 69/1/21 68/1/21 77/1/21
f 87/1/21 77/1/21 76/1/21
f 68/1/22 66/1/22 78/1/22
f 68/1/22 78/1/22 77/1/22
f 66/1/23 65/1/23 79/1/23
f 66/1/23 79/1/23 78/1/23
f 88/1/24 65/1/24 64/1/24
f 65/1/24 88/1/24 81/1/24 79/1/24
