# Authored in Blender; exported by tools-export-modern.py
mtllib materials.mtl
s off
v 0.386646966 1.000000000 0.477429511
v 0.430582250 0.000000000 0.474549867
v 0.365558028 0.000000000 0.478811741
v 0.365558028 1.000000000 0.478811741
v 0.500000000 1.000000000 0.470000029
v 0.500000000 0.000000000 0.470000029
v 0.254144431 1.000000000 0.500973346
v 0.297327995 0.000000000 0.492383577
v 0.233416319 0.000000000 0.505096436
v 0.233416319 1.000000000 0.505096436
v 0.125848729 1.000000000 0.541610789
v 0.167541593 0.000000000 0.527457939
v 0.105836153 0.000000000 0.548404157
v 0.105836153 1.000000000 0.548404157
v 0.000000000 0.000000000 0.600596732
v 0.000000000 1.000000000 0.600596732
v 0.003954703 1.000000000 0.598646490
v 0.043443637 0.000000000 0.579172718
v 0.913118517 1.000000000 0.557751568
v 0.952607412 0.000000000 0.577225340
v 0.894163847 0.000000000 0.548404157
v 0.894163847 1.000000000 0.548404157
v 1.000000000 1.000000000 0.600596784
v 1.000000000 0.000000000 0.600596784
v 0.786596257 1.000000000 0.511889804
v 0.828289121 0.000000000 0.526042654
v 0.766583681 0.000000000 0.505096436
v 0.766583681 1.000000000 0.505096436
v 0.655170084 1.000000000 0.482934830
v 0.698353648 0.000000000 0.491524600
v 0.634441972 0.000000000 0.478811741
v 0.634441972 1.000000000 0.478811741
v 0.521088937 1.000000000 0.471382258
v 0.565024222 0.000000000 0.474261903
v 0.500000000 0.500000000 0.455999970
v 0.363730669 0.500000000 0.464931488
v 0.363730669 0.535000086 0.464931488
v 0.500000000 0.535000086 0.455999970
v 0.229792953 0.500000000 0.491573453
v 0.229792953 0.535000086 0.491573453
v 0.100478530 0.500000000 0.535469770
v 0.100478530 0.535000086 0.535469770
v 0.000000000 0.528713251 0.585020279
v 0.000000000 0.500000000 0.585020279
v 0.000000000 0.535000086 0.585020279
v 1.000000000 0.506286849 0.585020255
v 1.000000000 0.500000000 0.585020255
v 0.899521470 0.500000000 0.535469770
v 0.899521470 0.535000086 0.535469770
v 1.000000000 0.535000086 0.585020255
v 0.770207047 0.500000000 0.491573453
v 0.770207047 0.535000086 0.491573453
v 0.636269331 0.500000000 0.464931488
v 0.636269331 0.535000086 0.464931488
v 0.367515922 0.535000086 0.493683457
v 0.500000000 0.535000086 0.485000014
v 0.237298727 0.535000086 0.519585311
v 0.111576319 0.535000086 0.562262297
v 0.000000000 0.535000086 0.615044575
v 0.000000000 0.535000086 0.617285668
v 1.000000000 0.535000086 0.590334368
v 0.888423681 0.535000086 0.562262297
v 1.000000000 0.535000086 0.617285695
v 0.762701273 0.535000086 0.519585311
v 0.632484078 0.535000086 0.493683457
v 0.367515922 0.500000000 0.493683457
v 0.500000000 0.500000000 0.485000014
v 0.237298727 0.500000000 0.519585311
v 0.111576319 0.500000000 0.562262297
v 0.000000000 0.502204472 0.617285668
v 0.000000000 0.500000000 0.617285668
v 1.000000000 0.532795630 0.617285695
v 0.888423681 0.500000000 0.562262297
v 1.000000000 0.500000000 0.617285695
v 0.762701273 0.500000000 0.519585311
v 0.632484078 0.500000000 0.493683457
v 0.000000000 0.500000000 0.590334380
v 1.000000000 0.500000000 0.615044619
v 0.039999962 0.049999952 0.430000007
v 0.039999962 0.519999981 0.430000007
v 0.960000038 0.519999981 0.430000007
v 0.960000038 0.049999952 0.430000007
v 0.039999962 0.049999952 0.479999989
v 0.960000038 0.049999952 0.479999989
v 0.960000038 0.519999981 0.479999989
v 0.039999962 0.519999981 0.479999989
v 0.105000019 0.119999886 0.412000000
v 0.117499948 0.141650438 0.412000000
v 0.142500043 0.141650438 0.412000000
v 0.154999971 0.119999886 0.412000000
v 0.142500043 0.098349333 0.412000000
v 0.117499948 0.098349333 0.412000000
v 0.117499948 0.141650438 0.449999988
v 0.105000019 0.119999886 0.449999988
v 0.117499948 0.098349333 0.449999988
v 0.142500043 0.098349333 0.449999988
v 0.154999971 0.119999886 0.449999988
v 0.142500043 0.141650438 0.449999988
v 0.105000019 0.450000048 0.412000000
v 0.117499948 0.471650600 0.412000000
v 0.142500043 0.471650600 0.412000000
v 0.154999971 0.450000048 0.412000000
v 0.142500043 0.428349495 0.412000000
v 0.117499948 0.428349495 0.412000000
v 0.117499948 0.471650600 0.449999988
v 0.105000019 0.450000048 0.449999988
v 0.117499948 0.428349495 0.449999988
v 0.142500043 0.428349495 0.449999988
v 0.154999971 0.450000048 0.449999988
v 0.142500043 0.471650600 0.449999988
v 0.845000029 0.119999886 0.412000000
v 0.857499957 0.141650438 0.412000000
v 0.882500052 0.141650438 0.412000000
v 0.894999981 0.119999886 0.412000000
v 0.882500052 0.098349333 0.412000000
v 0.857499957 0.098349333 0.412000000
v 0.857499957 0.141650438 0.449999988
v 0.845000029 0.119999886 0.449999988
v 0.857499957 0.098349333 0.449999988
v 0.882500052 0.098349333 0.449999988
v 0.894999981 0.119999886 0.449999988
v 0.882500052 0.141650438 0.449999988
v 0.845000029 0.450000048 0.412000000
v 0.857499957 0.471650600 0.412000000
v 0.882500052 0.471650600 0.412000000
v 0.894999981 0.450000048 0.412000000
v 0.882500052 0.428349495 0.412000000
v 0.857499957 0.428349495 0.412000000
v 0.857499957 0.471650600 0.449999988
v 0.845000029 0.450000048 0.449999988
v 0.857499957 0.428349495 0.449999988
v 0.882500052 0.428349495 0.449999988
v 0.894999981 0.450000048 0.449999988
v 0.882500052 0.471650600 0.449999988
vt 0.500000000 0.500000000
vn -0.065402537 0.000000000 -0.997858962
vn -0.195090853 0.000000000 -0.980785175
vn -0.321440071 0.000000000 -0.946929924
vn -0.442288419 0.000000000 -0.896872875
vn 0.442288770 0.000000000 -0.896872702
vn 0.321440071 0.000000000 -0.946929924
vn 0.195090853 0.000000000 -0.980785175
vn 0.065402537 0.000000000 -0.997858962
vn -0.065402792 0.000000000 -0.997858945
vn -0.195091003 0.000000000 -0.980785145
vn -0.321439373 0.000000000 -0.946930161
vn -0.442288555 0.000000000 -0.896872808
vn 0.442288382 0.000000000 -0.896872894
vn 0.321439373 0.000000000 -0.946930161
vn 0.195091003 0.000000000 -0.980785145
vn 0.065402792 0.000000000 -0.997858945
vn 0.000000000 1.000000000 0.000000000
vn 0.065402963 0.000000000 0.997858934
vn 0.195090638 0.000000000 0.980785218
vn 0.321439319 0.000000000 0.946930179
vn 0.442288819 0.000000000 0.896872678
vn -0.442288997 0.000000000 0.896872590
vn -0.321439319 0.000000000 0.946930179
vn -0.195090638 0.000000000 0.980785218
vn -0.065402963 0.000000000 0.997858934
vn -0.000000000 -1.000000000 0.000000000
vn 0.000000000 0.000000000 -1.000000000
vn 0.000000000 0.000000000 1.000000000
vn -1.000000000 0.000000000 0.000000000
vn 1.000000000 0.000000000 0.000000000
vn -0.866025819 -0.499999280 0.000000000
vn 0.866025819 -0.499999280 0.000000000
vn 0.866025819 0.499999280 0.000000000
vn -0.866025819 0.499999280 0.000000000
usemtl mat_1
f 1/1/1 2/1/1 3/1/1 4/1/1
f 5/1/1 6/1/1 2/1/1 1/1/1
f 7/1/2 8/1/2 9/1/2 10/1/2
f 4/1/2 3/1/2 8/1/2 7/1/2
f 11/1/3 12/1/3 13/1/3 14/1/3
f 10/1/3 9/1/3 12/1/3 11/1/3
f 15/1/4 16/1/4 17/1/4 18/1/4
f 14/1/4 13/1/4 18/1/4 17/1/4
f 19/1/5 20/1/5 21/1/5 22/1/5
f 23/1/5 24/1/5 20/1/5 19/1/5
f 25/1/6 26/1/6 27/1/6 28/1/6
f 22/1/6 21/1/6 26/1/6 25/1/6
f 29/1/7 30/1/7 31/1/7 32/1/7
f 28/1/7 27/1/7 30/1/7 29/1/7
f 33/1/8 34/1/8 6/1/8 5/1/8
f 32/1/8 31/1/8 34/1/8 33/1/8
usemtl mat_2
f 35/1/9 36/1/9 37/1/9
f 35/1/9 37/1/9 38/1/9
f 36/1/10 39/1/10 40/1/10
f 36/1/10 40/1/10 37/1/10
f 39/1/11 41/1/11 42/1/11
f 39/1/11 42/1/11 40/1/11
f 43/1/12 41/1/12 44/1/12
f 41/1/12 43/1/12 45/1/12 42/1/12
f 46/1/13 47/1/13 48/1/13 49/1/13
f 46/1/13 49/1/13 50/1/13
f 48/1/14 51/1/14 52/1/14
f 48/1/14 52/1/14 49/1/14
f 51/1/15 53/1/15 54/1/15
f 51/1/15 54/1/15 52/1/15
f 53/1/16 35/1/16 38/1/16
f 53/1/16 38/1/16 54/1/16
f 38/1/17 37/1/17 55/1/17
f 38/1/17 55/1/17 56/1/17
f 37/1/17 40/1/17 57/1/17
f 37/1/17 57/1/17 55/1/17
f 40/1/17 42/1/17 58/1/17
f 40/1/17 58/1/17 57/1/17
f 59/1/17 42/1/17 45/1/17
f 42/1/17 59/1/17 60/1/17 58/1/17
f 61/1/17 50/1/17 49/1/17 62/1/17
f 61/1/17 62/1/17 63/1/17
f 49/1/17 52/1/17 64/1/17
f 49/1/17 64/1/17 62/1/17
f 52/1/17 54/1/17 65/1/17
f 52/1/17 65/1/17 64/1/17
f 54/1/17 38/1/17 56/1/17
f 54/1/17 56/1/17 65/1/17
f 56/1/18 55/1/18 66/1/18
f 56/1/18 66/1/18 67/1/18
f 55/1/19 57/1/19 68/1/19
f 55/1/19 68/1/19 66/1/19
f 57/1/20 58/1/20 69/1/20
f 57/1/20 69/1/20 68/1/20
f 70/1/21 58/1/21 60/1/21
f 58/1/21 70/1/21 71/1/21 69/1/21
f 72/1/22 63/1/22 62/1/22 73/1/22
f 72/1/22 73/1/22 74/1/22
f 62/1/23 64/1/23 75/1/23
f 62/1/23 75/1/23 73/1/23
f 64/1/24 65/1/24 76/1/24
f 64/1/24 76/1/24 75/1/24
f 65/1/25 56/1/25 67/1/25
f 65/1/25 67/1/25 76/1/25
f 67/1/26 66/1/26 36/1/26
f 67/1/26 36/1/26 35/1/26
f 66/1/26 68/1/26 39/1/26
f 66/1/26 39/1/26 36/1/26
f 68/1/26 69/1/26 41/1/26
f 68/1/26 41/1/26 39/1/26
f 77/1/26 69/1/26 71/1/26
f 69/1/26 77/1/26 44/1/26 41/1/26
f 78/1/26 74/1/26 73/1/26 48/1/26
f 78/1/26 48/1/26 47/1/26
f 73/1/26 75/1/26 51/1/26
f 73/1/26 51/1/26 48/1/26
f 75/1/26 76/1/26 53/1/26
f 75/1/26 53/1/26 51/1/26
f 76/1/26 67/1/26 35/1/26
f 76/1/26 35/1/26 53/1/26
usemtl mat_5
f 79/1/27 80/1/27 81/1/27
f 79/1/27 81/1/27 82/1/27
f 83/1/28 84/1/28 85/1/28
f 83/1/28 85/1/28 86/1/28
f 79/1/26 82/1/26 84/1/26
f 79/1/26 84/1/26 83/1/26
f 80/1/17 86/1/17 85/1/17
f 80/1/17 85/1/17 81/1/17
f 79/1/29 83/1/29 86/1/29
f 79/1/29 86/1/29 80/1/29
f 82/1/30 81/1/30 85/1/30
f 82/1/30 85/1/30 84/1/30
usemtl mat_2
f 87/1/27 88/1/27 89/1/27
f 89/1/27 90/1/27 91/1/27
f 91/1/27 92/1/27 87/1/27
f 89/1/27 91/1/27 87/1/27
f 93/1/28 94/1/28 95/1/28
f 95/1/28 96/1/28 97/1/28
f 97/1/28 98/1/28 93/1/28
f 95/1/28 97/1/28 93/1/28
f 87/1/31 92/1/31 95/1/31
f 87/1/31 95/1/31 94/1/31
f 92/1/26 91/1/26 96/1/26
f 92/1/26 96/1/26 95/1/26
f 91/1/32 90/1/32 97/1/32
f 91/1/32 97/1/32 96/1/32
f 90/1/33 89/1/33 98/1/33
f 90/1/33 98/1/33 97/1/33
f 89/1/17 88/1/17 93/1/17
f 89/1/17 93/1/17 98/1/17
f 88/1/34 87/1/34 94/1/34
f 88/1/34 94/1/34 93/1/34
f 99/1/27 100/1/27 101/1/27
f 101/1/27 102/1/27 103/1/27
f 103/1/27 104/1/27 99/1/27
f 101/1/27 103/1/27 99/1/27
f 105/1/28 106/1/28 107/1/28
f 107/1/28 108/1/28 109/1/28
f 109/1/28 110/1/28 105/1/28
f 107/1/28 109/1/28 105/1/28
f 99/1/31 104/1/31 107/1/31
f 99/1/31 107/1/31 106/1/31
f 104/1/26 103/1/26 108/1/26
f 104/1/26 108/1/26 107/1/26
f 103/1/32 102/1/32 109/1/32
f 103/1/32 109/1/32 108/1/32
f 102/1/33 101/1/33 110/1/33
f 102/1/33 110/1/33 109/1/33
f 101/1/17 100/1/17 105/1/17
f 101/1/17 105/1/17 110/1/17
f 100/1/34 99/1/34 106/1/34
f 100/1/34 106/1/34 105/1/34
f 111/1/27 112/1/27 113/1/27
f 113/1/27 114/1/27 115/1/27
f 115/1/27 116/1/27 111/1/27
f 113/1/27 115/1/27 111/1/27
f 117/1/28 118/1/28 119/1/28
f 119/1/28 120/1/28 121/1/28
f 121/1/28 122/1/28 117/1/28
f 119/1/28 121/1/28 117/1/28
f 111/1/31 116/1/31 119/1/31
f 111/1/31 119/1/31 118/1/31
f 116/1/26 115/1/26 120/1/26
f 116/1/26 120/1/26 119/1/26
f 115/1/32 114/1/32 121/1/32
f 115/1/32 121/1/32 120/1/32
f 114/1/33 113/1/33 122/1/33
f 114/1/33 122/1/33 121/1/33
f 113/1/17 112/1/17 117/1/17
f 113/1/17 117/1/17 122/1/17
f 112/1/34 111/1/34 118/1/34
f 112/1/34 118/1/34 117/1/34
f 123/1/27 124/1/27 125/1/27
f 125/1/27 126/1/27 127/1/27
f 127/1/27 128/1/27 123/1/27
f 125/1/27 127/1/27 123/1/27
f 129/1/28 130/1/28 131/1/28
f 131/1/28 132/1/28 133/1/28
f 133/1/28 134/1/28 129/1/28
f 131/1/28 133/1/28 129/1/28
f 123/1/31 128/1/31 131/1/31
f 123/1/31 131/1/31 130/1/31
f 128/1/26 127/1/26 132/1/26
f 128/1/26 132/1/26 131/1/26
f 127/1/32 126/1/32 133/1/32
f 127/1/32 133/1/32 132/1/32
f 126/1/33 125/1/33 134/1/33
f 126/1/33 134/1/33 133/1/33
f 125/1/17 124/1/17 129/1/17
f 125/1/17 129/1/17 134/1/17
f 124/1/34 123/1/34 130/1/34
f 124/1/34 130/1/34 129/1/34
