# Authored in Blender; exported by tools-export-modern.py
mtllib materials.mtl
s off
v 0.422774658 1.000000000 0.952607412
v 0.403300924 0.000000000 0.992096307
v 0.451595783 0.000000000 0.894163847
v 0.451595783 1.000000000 0.894163847
v 0.399403261 1.000000000 1.000000000
v 0.399403261 0.000000000 1.000000000
v 0.473957317 1.000000000 0.828289121
v 0.459804448 0.000000000 0.869981985
v 0.494903564 0.000000000 0.766583681
v 0.494903564 1.000000000 0.766583681
v 0.508475400 1.000000000 0.698353648
v 0.499885631 0.000000000 0.741537213
v 0.521188259 0.000000000 0.634441972
v 0.521188259 1.000000000 0.634441972
v 0.525738097 1.000000000 0.565024222
v 0.522858453 0.000000000 0.608959506
v 0.529999971 0.000000000 0.500000000
v 0.529999971 1.000000000 0.500000000
v 0.525450133 1.000000000 0.430582250
v 0.528329778 0.000000000 0.474517534
v 0.521188259 0.000000000 0.365558028
v 0.521188259 1.000000000 0.365558028
v 0.507616423 1.000000000 0.297327995
v 0.516206193 0.000000000 0.340511560
v 0.494903564 0.000000000 0.233416319
v 0.494903564 1.000000000 0.233416319
v 0.472542030 1.000000000 0.167541593
v 0.486694900 0.000000000 0.209234457
v 0.451595783 0.000000000 0.105836153
v 0.451595783 1.000000000 0.105836153
v 0.399403313 1.000000000 0.000000000
v 0.420827284 1.000000000 0.043443637
v 0.440301018 0.000000000 0.082932571
v 0.399403313 0.000000000 0.000000000
v 0.414979696 0.506286828 1.000000000
v 0.414979696 0.500000000 1.000000000
v 0.464530230 0.500000000 0.899521470
v 0.464530230 0.534999967 0.899521470
v 0.414979696 0.534999967 1.000000000
v 0.508426666 0.500000000 0.770207047
v 0.508426666 0.534999967 0.770207047
v 0.535068512 0.500000000 0.636269331
v 0.535068512 0.534999967 0.636269331
v 0.544000149 0.500000000 0.500000000
v 0.544000149 0.534999967 0.500000000
v 0.535068512 0.500000000 0.363730669
v 0.535068512 0.534999967 0.363730669
v 0.508426666 0.500000000 0.229792953
v 0.508426666 0.534999967 0.229792953
v 0.464530230 0.500000000 0.100478530
v 0.464530230 0.534999967 0.100478530
v 0.414979672 0.528713153 0.000000000
v 0.414979672 0.500000000 0.000000000
v 0.414979672 0.534999967 0.000000000
v 0.409665583 0.534999967 1.000000000
v 0.437737703 0.534999967 0.888423681
v 0.382714249 0.534999967 1.000000000
v 0.480414629 0.534999967 0.762701273
v 0.506316662 0.534999967 0.632484078
v 0.514999866 0.534999967 0.500000000
v 0.506316662 0.534999967 0.367515922
v 0.480414629 0.534999967 0.237298727
v 0.437737703 0.534999967 0.111576319
v 0.384955370 0.534999967 0.000000000
v 0.382714276 0.534999967 0.000000000
v 0.382714249 0.532795519 1.000000000
v 0.437737703 0.500000000 0.888423681
v 0.382714249 0.500000000 1.000000000
v 0.480414629 0.500000000 0.762701273
v 0.506316662 0.500000000 0.632484078
v 0.514999866 0.500000000 0.500000000
v 0.506316662 0.500000000 0.367515922
v 0.480414629 0.500000000 0.237298727
v 0.437737703 0.500000000 0.111576319
v 0.382714276 0.502204464 0.000000000
v 0.382714276 0.500000000 0.000000000
v 0.384955326 0.500000000 1.000000000
v 0.409665570 0.500000000 0.000000000
v 0.556595626 1.000000000 0.373591663
v 0.567233965 0.000000000 0.370741141
v 0.544999838 0.000000000 0.376698732
v 0.544999838 1.000000000 0.376698732
v 0.569999933 1.000000000 0.370000005
v 0.569999933 0.000000000 0.370000005
v 0.535187253 1.000000000 0.386511317
v 0.542975019 0.000000000 0.378723551
v 0.526698589 0.000000000 0.394999981
v 0.526698589 1.000000000 0.394999981
v 0.523106995 1.000000000 0.408404224
v 0.525957467 0.000000000 0.397765936
v 0.519999981 0.000000000 0.419999957
v 0.519999981 1.000000000 0.419999957
v 0.523591575 1.000000000 0.433404200
v 0.520741104 0.000000000 0.422765912
v 0.526698589 0.000000000 0.444999933
v 0.526698589 1.000000000 0.444999933
v 0.536511174 1.000000000 0.454812518
v 0.528723408 0.000000000 0.447024752
v 0.544999838 0.000000000 0.463301182
v 0.544999838 1.000000000 0.463301182
v 0.558404145 1.000000000 0.466892840
v 0.547765806 0.000000000 0.464042318
v 0.569999933 0.000000000 0.469999909
v 0.569999933 1.000000000 0.469999909
v 0.583404240 1.000000000 0.466408251
v 0.572765901 0.000000000 0.469258774
v 0.595000029 0.000000000 0.463301182
v 0.595000029 1.000000000 0.463301182
v 0.604812613 1.000000000 0.453488597
v 0.597024848 0.000000000 0.461276363
v 0.613301277 0.000000000 0.444999933
v 0.613301277 1.000000000 0.444999933
v 0.616892872 1.000000000 0.431595690
v 0.614042400 0.000000000 0.442233978
v 0.619999886 0.000000000 0.419999957
v 0.619999886 1.000000000 0.419999957
v 0.616408291 1.000000000 0.406595714
v 0.619258763 0.000000000 0.417234002
v 0.613301277 0.000000000 0.394999981
v 0.613301277 1.000000000 0.394999981
v 0.603488693 1.000000000 0.385187396
v 0.611276458 0.000000000 0.392975162
v 0.595000029 0.000000000 0.376698732
v 0.595000029 1.000000000 0.376698732
v 0.581595722 1.000000000 0.373107074
v 0.592234061 0.000000000 0.375957597
vt 0.500000000 0.500000000
vn 0.896873053 0.000000000 0.442288058
vn 0.946929789 0.000000000 0.321440467
vn 0.980785175 0.000000000 0.195090853
vn 0.997858962 0.000000000 0.065402537
vn 0.997858962 0.000000000 -0.065402537
vn 0.980785175 0.000000000 -0.195090853
vn 0.946929789 0.000000000 -0.321440467
vn 0.896873226 0.000000000 -0.442287707
vn 0.896872721 0.000000000 0.442288733
vn 0.946929895 0.000000000 0.321440156
vn 0.980785312 0.000000000 0.195090163
vn 0.997858888 0.000000000 0.065403661
vn 0.997858888 0.000000000 -0.065403661
vn 0.980785312 0.000000000 -0.195090163
vn 0.946929895 0.000000000 -0.321440156
vn 0.896872635 0.000000000 -0.442288906
vn 0.000000000 1.000000000 0.000000000
vn -0.896872412 0.000000000 -0.442289358
vn -0.946930316 0.000000000 -0.321438916
vn -0.980784960 0.000000000 -0.195091933
vn -0.997859051 0.000000000 -0.065401175
vn -0.997859051 0.000000000 0.065401175
vn -0.980784960 0.000000000 0.195091933
vn -0.946930316 0.000000000 0.321438916
vn -0.896872500 0.000000000 0.442289180
vn 0.000000000 -1.000000000 0.000000000
vn -0.258818045 0.000000000 -0.965926094
vn -0.707106781 0.000000000 -0.707106781
vn -0.965926937 0.000000000 -0.258814899
vn -0.965926937 0.000000000 0.258814899
vn -0.707106781 0.000000000 0.707106781
vn -0.258818045 0.000000000 0.965926094
vn 0.258818045 0.000000000 0.965926094
vn 0.707106781 0.000000000 0.707106781
vn 0.965926937 0.000000000 0.258814899
vn 0.965926937 0.000000000 -0.258814899
vn 0.707106781 0.000000000 -0.707106781
vn 0.258818045 0.000000000 -0.965926094
usemtl mat_1
f 1/1/1 2/1/1 3/1/1 4/1/1
f 5/1/1 6/1/1 2/1/1 1/1/1
f 7/1/2 8/1/2 9/1/2 10/1/2
f 4/1/2 3/1/2 8/1/2 7/1/2
f 11/1/3 12/1/3 13/1/3 14/1/3
f 10/1/3 9/1/3 12/1/3 11/1/3
f 15/1/4 16/1/4 17/1/4 18/1/4
f 14/1/4 13/1/4 16/1/4 15/1/4
f 19/1/5 20/1/5 21/1/5 22/1/5
f 18/1/5 17/1/5 20/1/5 19/1/5
f 23/1/6 24/1/6 25/1/6 26/1/6
f 22/1/6 21/1/6 24/1/6 23/1/6
f 27/1/7 28/1/7 29/1/7 30/1/7
f 26/1/7 25/1/7 28/1/7 27/1/7
f 31/1/8 32/1/8 33/1/8 34/1/8
f 30/1/8 29/1/8 33/1/8 32/1/8
usemtl mat_2
f 35/1/9 36/1/9 37/1/9 38/1/9
f 35/1/9 38/1/9 39/1/9
f 37/1/10 40/1/10 41/1/10
f 37/1/10 41/1/10 38/1/10
f 40/1/11 42/1/11 43/1/11
f 40/1/11 43/1/11 41/1/11
f 42/1/12 44/1/12 45/1/12
f 42/1/12 45/1/12 43/1/12
f 44/1/13 46/1/13 47/1/13
f 44/1/13 47/1/13 45/1/13
f 46/1/14 48/1/14 49/1/14
f 46/1/14 49/1/14 47/1/14
f 48/1/15 50/1/15 51/1/15
f 48/1/15 51/1/15 49/1/15
f 52/1/16 50/1/16 53/1/16
f 50/1/16 52/1/16 54/1/16 51/1/16
f 55/1/17 39/1/17 38/1/17 56/1/17
f 55/1/17 56/1/17 57/1/17
f 38/1/17 41/1/17 58/1/17
f 38/1/17 58/1/17 56/1/17
f 41/1/17 43/1/17 59/1/17
f 41/1/17 59/1/17 58/1/17
f 43/1/17 45/1/17 60/1/17
f 43/1/17 60/1/17 59/1/17
f 45/1/17 47/1/17 61/1/17
f 45/1/17 61/1/17 60/1/17
f 47/1/17 49/1/17 62/1/17
f 47/1/17 62/1/17 61/1/17
f 49/1/17 51/1/17 63/1/17
f 49/1/17 63/1/17 62/1/17
f 64/1/17 51/1/17 54/1/17
f 51/1/17 64/1/17 65/1/17 63/1/17
f 66/1/18 57/1/18 56/1/18 67/1/18
f 66/1/18 67/1/18 68/1/18
f 56/1/19 58/1/19 69/1/19
f 56/1/19 69/1/19 67/1/19
f 58/1/20 59/1/20 70/1/20
f 58/1/20 70/1/20 69/1/20
f 59/1/21 60/1/21 71/1/21
f 59/1/21 71/1/21 70/1/21
f 60/1/22 61/1/22 72/1/22
f 60/1/22 72/1/22 71/1/22
f 61/1/23 62/1/23 73/1/23
f 61/1/23 73/1/23 72/1/23
f 62/1/24 63/1/24 74/1/24
f 62/1/24 74/1/24 73/1/24
f 75/1/25 63/1/25 65/1/25
f 63/1/25 75/1/25 76/1/25 74/1/25
f 77/1/26 68/1/26 67/1/26 37/1/26
f 77/1/26 37/1/26 36/1/26
f 67/1/26 69/1/26 40/1/26
f 67/1/26 40/1/26 37/1/26
f 69/1/26 70/1/26 42/1/26
f 69/1/26 42/1/26 40/1/26
f 70/1/26 71/1/26 44/1/26
f 70/1/26 44/1/26 42/1/26
f 71/1/26 72/1/26 46/1/26
f 71/1/26 46/1/26 44/1/26
f 72/1/26 73/1/26 48/1/26
f 72/1/26 48/1/26 46/1/26
f 73/1/26 74/1/26 50/1/26
f 73/1/26 50/1/26 48/1/26
f 78/1/26 74/1/26 76/1/26
f 74/1/26 78/1/26 53/1/26 50/1/26
usemtl mat_4
f 79/1/27 80/1/27 81/1/27 82/1/27
f 83/1/27 84/1/27 80/1/27 79/1/27
f 85/1/28 86/1/28 87/1/28 88/1/28
f 82/1/28 81/1/28 86/1/28 85/1/28
f 89/1/29 90/1/29 91/1/29 92/1/29
f 88/1/29 87/1/29 90/1/29 89/1/29
f 93/1/30 94/1/30 95/1/30 96/1/30
f 92/1/30 91/1/30 94/1/30 93/1/30
f 97/1/31 98/1/31 99/1/31 100/1/31
f 96/1/31 95/1/31 98/1/31 97/1/31
f 101/1/32 102/1/32 103/1/32 104/1/32
f 100/1/32 99/1/32 102/1/32 101/1/32
f 105/1/33 106/1/33 107/1/33 108/1/33
f 104/1/33 103/1/33 106/1/33 105/1/33
f 109/1/34 110/1/34 111/1/34 112/1/34
f 108/1/34 107/1/34 110/1/34 109/1/34
f 113/1/35 114/1/35 115/1/35 116/1/35
f 112/1/35 111/1/35 114/1/35 113/1/35
f 117/1/36 118/1/36 119/1/36 120/1/36
f 116/1/36 115/1/36 118/1/36 117/1/36
f 121/1/37 122/1/37 123/1/37 124/1/37
f 120/1/37 119/1/37 122/1/37 121/1/37
f 125/1/38 126/1/38 84/1/38 83/1/38
f 124/1/38 123/1/38 126/1/38 125/1/38
