# Generated by tools-import-turbines.py; estimated STEP scale.
mtllib materials.mtl
s off
v 0.750000000 0.343750000 1.000000000
v 0.750000000 0.343750000 0.187500000
v 0.750000000 0.031250000 0.187500000
v 0.750000000 0.031250000 1.000000000
v 0.875000000 0.031250000 1.000000000
v 0.875000000 0.031250000 0.187500000
v 0.875000000 0.343750000 0.187500000
v 0.875000000 0.343750000 1.000000000
v 0.000000000 0.343750000 1.000000000
v 0.000000000 0.343750000 0.187500000
v 0.000000000 0.031250000 0.187500000
v 0.000000000 0.031250000 1.000000000
v 0.125000000 0.031250000 1.000000000
v 0.125000000 0.031250000 0.187500000
v 0.125000000 0.343750000 0.187500000
v 0.125000000 0.343750000 1.000000000
v 1.000000000 0.031250000 0.193750000
v 1.000000000 0.031250000 0.118750000
v 1.000000000 0.343750000 0.118750000
v 1.000000000 0.343750000 0.193750000
v 0.000000000 0.031250000 0.193750000
v 0.000000000 0.031250000 0.118750000
v 0.000000000 0.343750000 0.118750000
v 0.000000000 0.343750000 0.193750000
v 0.784375000 0.112500000 0.184375000
v 0.784375000 0.112500000 0.128125000
v 0.784375000 0.050000000 0.128125000
v 0.784375000 0.050000000 0.184375000
v 0.840625000 0.050000000 0.184375000
v 0.840625000 0.050000000 0.128125000
v 0.840625000 0.112500000 0.128125000
v 0.840625000 0.112500000 0.184375000
v 0.656250000 0.043750000 0.312500000
v 0.656250000 0.043750000 0.000000000
v 0.656250000 0.006250000 0.000000000
v 0.656250000 0.006250000 0.312500000
v 0.968750000 0.006250000 0.312500000
v 0.968750000 0.006250000 0.000000000
v 0.968750000 0.043750000 0.000000000
v 0.968750000 0.043750000 0.312500000
v 0.906250000 0.371875000 1.000000000
v 0.906250000 0.371875000 0.187500000
v 0.906250000 0.453125000 0.187500000
v 0.906250000 0.453125000 1.000000000
v 0.000000000 0.371875000 1.000000000
v 0.000000000 0.371875000 0.187500000
v 0.000000000 0.453125000 0.187500000
v 0.000000000 0.453125000 1.000000000
v 1.000000000 0.018750000 0.300000000
v 1.000000000 0.018750000 0.012500000
v 1.000000000 0.068750000 0.012500000
v 1.000000000 0.068750000 0.300000000
v 0.000000000 0.018750000 0.300000000
v 0.000000000 0.018750000 0.012500000
v 0.000000000 0.068750000 0.012500000
v 0.000000000 0.068750000 0.300000000
v 1.000000000 0.325000000 0.300000000
v 1.000000000 0.325000000 0.012500000
v 1.000000000 0.375000000 0.012500000
v 1.000000000 0.375000000 0.300000000
v 0.000000000 0.325000000 0.300000000
v 0.000000000 0.325000000 0.012500000
v 0.000000000 0.375000000 0.012500000
v 0.000000000 0.375000000 0.300000000
vt 0 0
vt 1 0
vt 1 1
vt 0 1
vn -1.000000000 -0.000000000 0.000000000
vn 0.000000000 -1.000000000 -0.000000000
vn -0.000000000 -0.000000000 -1.000000000
vn 0.000000000 0.000000000 1.000000000
vn -0.000000000 1.000000000 0.000000000
vn 1.000000000 0.000000000 -0.000000000
usemtl step_color_001
f 1/1/1 2/2/1 3/3/1 4/4/1
f 5/1/6 6/2/6 7/3/6 8/4/6
f 5/1/2 4/2/2 3/3/2 6/4/2
f 8/1/5 7/2/5 2/3/5 1/4/5
f 7/1/3 6/2/3 3/3/3 2/4/3
f 9/1/1 10/2/1 11/3/1 12/4/1
f 13/1/6 14/2/6 15/3/6 16/4/6
f 13/1/2 12/2/2 11/3/2 14/4/2
f 16/1/5 15/2/5 10/3/5 9/4/5
f 15/1/3 14/2/3 11/3/3 10/4/3
f 17/1/6 18/2/6 19/3/6 20/4/6
f 17/1/2 21/2/2 22/3/2 18/4/2
f 19/1/5 23/2/5 24/3/5 20/4/5
f 23/1/3 19/2/3 18/3/3 22/4/3
f 24/1/4 21/2/4 17/3/4 20/4/4
usemtl step_color_002
f 25/1/1 26/2/1 27/3/1 28/4/1
f 29/1/6 30/2/6 31/3/6 32/4/6
f 29/1/2 28/2/2 27/3/2 30/4/2
f 31/1/5 26/2/5 25/3/5 32/4/5
f 31/1/3 30/2/3 27/3/3 26/4/3
f 25/1/4 28/2/4 29/3/4 32/4/4
f 33/1/1 34/2/1 35/3/1 36/4/1
f 37/1/6 38/2/6 39/3/6 40/4/6
f 37/1/2 36/2/2 35/3/2 38/4/2
f 39/1/5 34/2/5 33/3/5 40/4/5
f 39/1/3 38/2/3 35/3/3 34/4/3
f 33/1/4 36/2/4 37/3/4 40/4/4
usemtl step_color_005
f 41/1/6 42/2/6 43/3/6 44/4/6
f 41/1/2 45/2/2 46/3/2 42/4/2
f 44/1/5 43/2/5 47/3/5 48/4/5
f 47/1/3 43/2/3 42/3/3 46/4/3
f 49/1/6 50/2/6 51/3/6 52/4/6
f 49/1/2 53/2/2 54/3/2 50/4/2
f 51/1/5 55/2/5 56/3/5 52/4/5
f 55/1/3 51/2/3 50/3/3 54/4/3
f 56/1/4 53/2/4 49/3/4 52/4/4
f 57/1/6 58/2/6 59/3/6 60/4/6
f 57/1/2 61/2/2 62/3/2 58/4/2
f 59/1/5 63/2/5 64/3/5 60/4/5
f 63/1/3 59/2/3 58/3/3 62/4/3
f 64/1/4 61/2/4 57/3/4 60/4/4
