# Generated by tools-import-turbines.py; estimated STEP scale.
mtllib materials.mtl
s off
v 0.801562500 0.685255899 0.972159934
v 0.801562500 0.685255899 0.925284934
v 0.801562500 0.638380899 0.925284934
v 0.801562500 0.638380899 0.972159934
v 0.842187500 0.638380899 0.972159934
v 0.842187500 0.638380899 0.925284934
v 0.842187500 0.685255899 0.925284934
v 0.842187500 0.685255899 0.972159934
v 0.801562500 0.835937500 0.942187500
v 0.801562500 0.835937500 0.895312500
v 0.801562500 0.789062500 0.895312500
v 0.801562500 0.789062500 0.942187500
v 0.842187500 0.789062500 0.942187500
v 0.842187500 0.789062500 0.895312500
v 0.842187500 0.835937500 0.895312500
v 0.842187500 0.835937500 0.942187500
v 0.801562500 0.986619101 0.972159934
v 0.801562500 0.986619101 0.925284934
v 0.801562500 0.939744101 0.925284934
v 0.801562500 0.939744101 0.972159934
v 0.842187500 0.939744101 0.972159934
v 0.842187500 0.939744101 0.925284934
v 0.842187500 0.986619101 0.925284934
v 0.842187500 0.986619101 0.972159934
v 0.875000000 0.000000000 0.623437500
v 0.875000000 0.132287931 0.623437500
v 0.875000000 0.132287931 0.393750000
v 0.875000000 0.000000000 0.393750000
v 1.000000000 0.132287931 0.393750000
v 1.000000000 0.132287931 0.623437500
v 1.000000000 0.000000000 0.393750000
v 1.000000000 0.000000000 0.623437500
v 0.875000000 0.000000000 0.853125000
v 0.875000000 0.404698989 0.853125000
v 0.875000000 0.404698989 0.623437500
v 1.000000000 0.404698989 0.623437500
v 1.000000000 0.404698989 0.853125000
v 1.000000000 0.000000000 0.853125000
v 0.875000000 0.000000000 1.000000000
v 0.875000000 0.539204045 1.000000000
v 0.875000000 0.539204045 0.853125000
v 1.000000000 0.539204045 1.000000000
v 1.000000000 0.539204045 0.853125000
v 0.835937500 1.000000000 1.000000000
v 0.835937500 1.000000000 0.906250000
v 0.835937500 0.615825064 0.906250000
v 0.835937500 0.615825064 1.000000000
v 0.864062500 1.000000000 1.000000000
v 0.864062500 0.615825064 1.000000000
v 0.864062500 0.615825064 0.906250000
v 0.864062500 1.000000000 0.906250000
v 0.937500000 1.000000000 1.000000000
v 0.937500000 1.000000000 0.900000000
v 0.937500000 0.612799296 0.900000000
v 0.937500000 0.612799296 1.000000000
v 1.000000000 0.612799296 1.000000000
v 1.000000000 0.612799296 0.900000000
v 1.000000000 1.000000000 0.900000000
v 0.865625000 1.000000000 0.979687500
v 0.865625000 1.000000000 0.868750000
v 0.865625000 0.597670455 0.868750000
v 0.865625000 0.597670455 0.979687500
v 0.946875000 1.000000000 0.979687500
v 0.946875000 0.597670455 0.979687500
v 0.946875000 0.597670455 0.868750000
v 0.946875000 1.000000000 0.868750000
v 0.865625000 1.000000000 1.000000000
v 0.865625000 0.466097767 0.979687500
v 0.865625000 0.466097767 1.000000000
v 0.946875000 1.000000000 1.000000000
v 0.946875000 0.466097767 1.000000000
v 0.946875000 0.466097767 0.979687500
vt 0 0
vt 1 0
vt 1 1
vt 0 1
vn -1.000000000 -0.000000000 0.000000000
vn 0.000000000 -1.000000000 -0.000000000
vn -0.000000000 -0.000000000 -1.000000000
vn 0.000000000 0.000000000 1.000000000
vn -0.000000000 1.000000000 0.000000000
vn 1.000000000 0.000000000 -0.000000000
usemtl step_color_003
f 1/1/1 2/2/1 3/3/1 4/4/1
f 5/1/6 6/2/6 7/3/6 8/4/6
f 5/1/2 4/2/2 3/3/2 6/4/2
f 7/1/5 2/2/5 1/3/5 8/4/5
f 7/1/3 6/2/3 3/3/3 2/4/3
f 1/1/4 4/2/4 5/3/4 8/4/4
f 9/1/1 10/2/1 11/3/1 12/4/1
f 13/1/6 14/2/6 15/3/6 16/4/6
f 13/1/2 12/2/2 11/3/2 14/4/2
f 15/1/5 10/2/5 9/3/5 16/4/5
f 15/1/3 14/2/3 11/3/3 10/4/3
f 9/1/4 12/2/4 13/3/4 16/4/4
f 17/1/1 18/2/1 19/3/1 20/4/1
f 21/1/6 22/2/6 23/3/6 24/4/6
f 21/1/2 20/2/2 19/3/2 22/4/2
f 23/1/5 18/2/5 17/3/5 24/4/5
f 23/1/3 22/2/3 19/3/3 18/4/3
f 17/1/4 20/2/4 21/3/4 24/4/4
usemtl step_color_006
f 25/1/1 26/2/1 27/3/1 28/4/1
f 29/1/5 27/2/5 26/3/5 30/4/5
f 29/1/3 31/2/3 28/3/3 27/4/3
f 32/1/4 30/2/4 26/3/4 25/4/4
f 33/1/1 34/2/1 35/3/1 25/4/1
f 36/1/5 35/2/5 34/3/5 37/4/5
f 36/1/3 32/2/3 25/3/3 35/4/3
f 38/1/4 37/2/4 34/3/4 33/4/4
f 39/1/1 40/2/1 41/3/1 33/4/1
f 42/1/5 43/2/5 41/3/5 40/4/5
f 43/1/3 38/2/3 33/3/3 41/4/3
f 44/1/1 45/2/1 46/3/1 47/4/1
f 48/1/6 49/2/6 50/3/6 51/4/6
f 49/1/2 47/2/2 46/3/2 50/4/2
f 51/1/3 50/2/3 46/3/3 45/4/3
f 52/1/1 53/2/1 54/3/1 55/4/1
f 56/1/2 55/2/2 54/3/2 57/4/2
f 58/1/3 57/2/3 54/3/3 53/4/3
usemtl step_color_007
f 59/1/1 60/2/1 61/3/1 62/4/1
f 63/1/6 64/2/6 65/3/6 66/4/6
f 64/1/2 62/2/2 61/3/2 65/4/2
f 66/1/3 65/2/3 61/3/3 60/4/3
f 59/1/4 62/2/4 64/3/4 63/4/4
f 67/1/1 59/2/1 68/3/1 69/4/1
f 70/1/6 71/2/6 72/3/6 63/4/6
f 71/1/2 69/2/2 68/3/2 72/4/2
f 63/1/3 72/2/3 68/3/3 59/4/3
