# Generated by tools-import-turbines.py; estimated STEP scale.
mtllib materials.mtl
s off
v 0.732812500 0.704687500 0.873437500
v 0.732812500 0.704687500 0.839062500
v 0.732812500 0.670312500 0.839062500
v 0.732812500 0.670312500 0.873437500
v 0.767187500 0.670312500 0.873437500
v 0.767187500 0.670312500 0.839062500
v 0.767187500 0.704687500 0.839062500
v 0.767187500 0.704687500 0.873437500
v 0.639062500 0.867067263 0.873437500
v 0.639062500 0.867067263 0.839062500
v 0.639062500 0.832692263 0.839062500
v 0.639062500 0.832692263 0.873437500
v 0.673437500 0.832692263 0.873437500
v 0.673437500 0.832692263 0.839062500
v 0.673437500 0.867067263 0.839062500
v 0.673437500 0.867067263 0.873437500
v 0.451562500 0.867067263 0.873437500
v 0.451562500 0.867067263 0.839062500
v 0.451562500 0.832692263 0.839062500
v 0.451562500 0.832692263 0.873437500
v 0.485937500 0.832692263 0.873437500
v 0.485937500 0.832692263 0.839062500
v 0.485937500 0.867067263 0.839062500
v 0.485937500 0.867067263 0.873437500
v 0.357812500 0.704687500 0.873437500
v 0.357812500 0.704687500 0.839062500
v 0.357812500 0.670312500 0.839062500
v 0.357812500 0.670312500 0.873437500
v 0.392187500 0.670312500 0.873437500
v 0.392187500 0.670312500 0.839062500
v 0.392187500 0.704687500 0.839062500
v 0.392187500 0.704687500 0.873437500
v 0.451562500 0.542307737 0.873437500
v 0.451562500 0.542307737 0.839062500
v 0.451562500 0.507932737 0.839062500
v 0.451562500 0.507932737 0.873437500
v 0.485937500 0.507932737 0.873437500
v 0.485937500 0.507932737 0.839062500
v 0.485937500 0.542307737 0.839062500
v 0.485937500 0.542307737 0.873437500
v 0.639062500 0.542307737 0.873437500
v 0.639062500 0.542307737 0.839062500
v 0.639062500 0.507932737 0.839062500
v 0.639062500 0.507932737 0.873437500
v 0.673437500 0.507932737 0.873437500
v 0.673437500 0.507932737 0.839062500
v 0.673437500 0.542307737 0.839062500
v 0.673437500 0.542307737 0.873437500
v 0.715625000 0.721875000 0.843750000
v 0.715625000 0.721875000 0.781250000
v 0.715625000 0.653125000 0.781250000
v 0.715625000 0.653125000 0.843750000
v 0.784375000 0.653125000 0.843750000
v 0.784375000 0.653125000 0.781250000
v 0.784375000 0.721875000 0.781250000
v 0.784375000 0.721875000 0.843750000
v 0.690504763 0.815625000 0.843750000
v 0.690504763 0.815625000 0.781250000
v 0.690504763 0.746875000 0.781250000
v 0.690504763 0.746875000 0.843750000
v 0.759254763 0.746875000 0.843750000
v 0.759254763 0.746875000 0.781250000
v 0.759254763 0.815625000 0.781250000
v 0.759254763 0.815625000 0.843750000
v 0.621875000 0.884254763 0.843750000
v 0.621875000 0.884254763 0.781250000
v 0.621875000 0.815504763 0.781250000
v 0.621875000 0.815504763 0.843750000
v 0.690625000 0.815504763 0.843750000
v 0.690625000 0.815504763 0.781250000
v 0.690625000 0.884254763 0.781250000
v 0.690625000 0.884254763 0.843750000
v 0.528125000 0.909375000 0.843750000
v 0.528125000 0.909375000 0.781250000
v 0.528125000 0.840625000 0.781250000
v 0.528125000 0.840625000 0.843750000
v 0.596875000 0.840625000 0.843750000
v 0.596875000 0.840625000 0.781250000
v 0.596875000 0.909375000 0.781250000
v 0.596875000 0.909375000 0.843750000
v 0.434375000 0.884254763 0.843750000
v 0.434375000 0.884254763 0.781250000
v 0.434375000 0.815504763 0.781250000
v 0.434375000 0.815504763 0.843750000
v 0.503125000 0.815504763 0.843750000
v 0.503125000 0.815504763 0.781250000
v 0.503125000 0.884254763 0.781250000
v 0.503125000 0.884254763 0.843750000
v 0.365745237 0.815625000 0.843750000
v 0.365745237 0.815625000 0.781250000
v 0.365745237 0.746875000 0.781250000
v 0.365745237 0.746875000 0.843750000
v 0.434495237 0.746875000 0.843750000
v 0.434495237 0.746875000 0.781250000
v 0.434495237 0.815625000 0.781250000
v 0.434495237 0.815625000 0.843750000
v 0.340625000 0.721875000 0.843750000
v 0.340625000 0.721875000 0.781250000
v 0.340625000 0.653125000 0.781250000
v 0.340625000 0.653125000 0.843750000
v 0.409375000 0.653125000 0.843750000
v 0.409375000 0.653125000 0.781250000
v 0.409375000 0.721875000 0.781250000
v 0.409375000 0.721875000 0.843750000
v 0.365745237 0.628125000 0.843750000
v 0.365745237 0.628125000 0.781250000
v 0.365745237 0.559375000 0.781250000
v 0.365745237 0.559375000 0.843750000
v 0.434495237 0.559375000 0.843750000
v 0.434495237 0.559375000 0.781250000
v 0.434495237 0.628125000 0.781250000
v 0.434495237 0.628125000 0.843750000
v 0.434375000 0.559495237 0.843750000
v 0.434375000 0.559495237 0.781250000
v 0.434375000 0.490745237 0.781250000
v 0.434375000 0.490745237 0.843750000
v 0.503125000 0.490745237 0.843750000
v 0.503125000 0.490745237 0.781250000
v 0.503125000 0.559495237 0.781250000
v 0.503125000 0.559495237 0.843750000
v 0.528125000 0.534375000 0.843750000
v 0.528125000 0.534375000 0.781250000
v 0.528125000 0.465625000 0.781250000
v 0.528125000 0.465625000 0.843750000
v 0.596875000 0.465625000 0.843750000
v 0.596875000 0.465625000 0.781250000
v 0.596875000 0.534375000 0.781250000
v 0.596875000 0.534375000 0.843750000
v 0.621875000 0.559495237 0.843750000
v 0.621875000 0.559495237 0.781250000
v 0.621875000 0.490745237 0.781250000
v 0.621875000 0.490745237 0.843750000
v 0.690625000 0.490745237 0.843750000
v 0.690625000 0.490745237 0.781250000
v 0.690625000 0.559495237 0.781250000
v 0.690625000 0.559495237 0.843750000
v 0.690504763 0.628125000 0.843750000
v 0.690504763 0.628125000 0.781250000
v 0.690504763 0.559375000 0.781250000
v 0.690504763 0.559375000 0.843750000
v 0.759254763 0.559375000 0.843750000
v 0.759254763 0.559375000 0.781250000
v 0.759254763 0.628125000 0.781250000
v 0.759254763 0.628125000 0.843750000
v 1.000000000 0.539204045 0.000000000
v 0.000000000 0.539204045 0.000000000
v 0.000000000 0.539204045 0.082812500
v 1.000000000 0.539204045 0.082812500
v 1.000000000 0.000000000 0.082812500
v 0.000000000 0.000000000 0.082812500
v 1.000000000 0.599044006 0.082812500
v 0.000000000 0.599044006 0.082812500
v 0.000000000 0.599044006 0.312500000
v 1.000000000 0.599044006 0.312500000
v 1.000000000 0.000000000 0.312500000
v 0.000000000 0.000000000 0.312500000
v 0.000000000 0.599044006 0.542187500
v 1.000000000 0.599044006 0.542187500
v 1.000000000 0.000000000 0.542187500
v 0.000000000 0.000000000 0.542187500
v 1.000000000 0.539204045 0.542187500
v 0.000000000 0.539204045 0.542187500
v 0.000000000 0.539204045 0.771875000
v 1.000000000 0.539204045 0.771875000
v 1.000000000 0.000000000 0.771875000
v 0.000000000 0.000000000 0.771875000
v 1.000000000 0.404698989 1.000000000
v 1.000000000 0.404698989 0.771875000
v 0.000000000 0.404698989 0.771875000
v 0.000000000 0.404698989 1.000000000
v 0.465625000 0.784375000 1.000000000
v 0.465625000 0.784375000 0.687500000
v 0.465625000 0.590625000 0.687500000
v 0.465625000 0.590625000 1.000000000
v 0.659375000 0.590625000 1.000000000
v 0.659375000 0.590625000 0.687500000
v 0.659375000 0.784375000 0.687500000
v 0.659375000 0.784375000 1.000000000
v 0.465625000 0.000000000 1.000000000
v 0.465625000 0.687500000 1.000000000
v 0.465625000 0.687500000 0.965625000
v 0.465625000 0.000000000 0.965625000
v 0.659375000 0.000000000 1.000000000
v 0.659375000 0.000000000 0.965625000
v 0.659375000 0.687500000 0.965625000
v 0.659375000 0.687500000 1.000000000
v 1.000000000 0.612799296 0.000000000
v 1.000000000 0.612799296 0.003125000
v 0.000000000 0.612799296 0.003125000
v 0.000000000 0.612799296 0.000000000
v 1.000000000 1.000000000 0.003125000
v 0.000000000 1.000000000 0.003125000
v 1.000000000 0.490492291 0.106250000
v 0.000000000 0.490492291 0.106250000
v 0.000000000 0.490492291 0.003125000
v 1.000000000 0.490492291 0.003125000
v 1.000000000 1.000000000 0.106250000
v 0.000000000 1.000000000 0.106250000
v 1.000000000 0.430102266 0.209375000
v 0.000000000 0.430102266 0.209375000
v 0.000000000 0.430102266 0.106250000
v 1.000000000 0.430102266 0.106250000
v 1.000000000 1.000000000 0.209375000
v 0.000000000 1.000000000 0.209375000
v 1.000000000 0.403235344 0.312500000
v 0.000000000 0.403235344 0.312500000
v 0.000000000 0.403235344 0.209375000
v 1.000000000 0.403235344 0.209375000
v 1.000000000 1.000000000 0.312500000
v 0.000000000 1.000000000 0.312500000
v 1.000000000 0.403235344 0.415625000
v 0.000000000 0.403235344 0.415625000
v 1.000000000 1.000000000 0.415625000
v 0.000000000 1.000000000 0.415625000
v 1.000000000 0.430102266 0.518750000
v 0.000000000 0.430102266 0.518750000
v 0.000000000 0.430102266 0.415625000
v 1.000000000 0.430102266 0.415625000
v 1.000000000 1.000000000 0.518750000
v 0.000000000 1.000000000 0.518750000
v 1.000000000 0.490492291 0.621875000
v 0.000000000 0.490492291 0.621875000
v 0.000000000 0.490492291 0.518750000
v 1.000000000 0.490492291 0.518750000
v 1.000000000 1.000000000 0.621875000
v 0.000000000 1.000000000 0.621875000
v 1.000000000 0.612799296 0.725000000
v 0.000000000 0.612799296 0.725000000
v 0.000000000 0.612799296 0.621875000
v 1.000000000 0.612799296 0.621875000
v 1.000000000 1.000000000 0.725000000
v 0.000000000 1.000000000 0.725000000
v 0.456598112 0.523437500 0.843750000
v 0.456598112 0.523437500 0.781250000
v 0.456598112 0.468750000 0.781250000
v 0.456598112 0.468750000 0.843750000
v 0.668401888 0.468750000 0.843750000
v 0.668401888 0.468750000 0.781250000
v 0.668401888 0.523437500 0.781250000
v 0.668401888 0.523437500 0.843750000
v 0.391738336 0.578125000 0.843750000
v 0.391738336 0.578125000 0.781250000
v 0.391738336 0.523437500 0.781250000
v 0.391738336 0.523437500 0.843750000
v 0.733261664 0.523437500 0.843750000
v 0.733261664 0.523437500 0.781250000
v 0.733261664 0.578125000 0.781250000
v 0.733261664 0.578125000 0.843750000
v 0.359713323 0.632812500 0.843750000
v 0.359713323 0.632812500 0.781250000
v 0.359713323 0.578125000 0.781250000
v 0.359713323 0.578125000 0.843750000
v 0.765286677 0.578125000 0.843750000
v 0.765286677 0.578125000 0.781250000
v 0.765286677 0.632812500 0.781250000
v 0.765286677 0.632812500 0.843750000
v 0.345465713 0.687500000 0.843750000
v 0.345465713 0.687500000 0.781250000
v 0.345465713 0.632812500 0.781250000
v 0.345465713 0.632812500 0.843750000
v 0.779534287 0.632812500 0.843750000
v 0.779534287 0.632812500 0.781250000
v 0.779534287 0.687500000 0.781250000
v 0.779534287 0.687500000 0.843750000
v 0.345465713 0.742187500 0.843750000
v 0.345465713 0.742187500 0.781250000
v 0.779534287 0.742187500 0.781250000
v 0.779534287 0.742187500 0.843750000
v 0.359713323 0.796875000 0.843750000
v 0.359713323 0.796875000 0.781250000
v 0.359713323 0.742187500 0.781250000
v 0.359713323 0.742187500 0.843750000
v 0.765286677 0.742187500 0.843750000
v 0.765286677 0.742187500 0.781250000
v 0.765286677 0.796875000 0.781250000
v 0.765286677 0.796875000 0.843750000
v 0.391738336 0.851562500 0.843750000
v 0.391738336 0.851562500 0.781250000
v 0.391738336 0.796875000 0.781250000
v 0.391738336 0.796875000 0.843750000
v 0.733261664 0.796875000 0.843750000
v 0.733261664 0.796875000 0.781250000
v 0.733261664 0.851562500 0.781250000
v 0.733261664 0.851562500 0.843750000
v 0.456598112 0.906250000 0.843750000
v 0.456598112 0.906250000 0.781250000
v 0.456598112 0.851562500 0.781250000
v 0.456598112 0.851562500 0.843750000
v 0.668401888 0.851562500 0.843750000
v 0.668401888 0.851562500 0.781250000
v 0.668401888 0.906250000 0.781250000
v 0.668401888 0.906250000 0.843750000
vt 0 0
vt 1 0
vt 1 1
vt 0 1
vn -1.000000000 -0.000000000 0.000000000
vn 0.000000000 -1.000000000 -0.000000000
vn -0.000000000 -0.000000000 -1.000000000
vn 0.000000000 0.000000000 1.000000000
vn -0.000000000 1.000000000 0.000000000
vn 1.000000000 0.000000000 -0.000000000
usemtl step_color_003
f 1/1/1 2/2/1 3/3/1 4/4/1
f 5/1/6 6/2/6 7/3/6 8/4/6
f 5/1/2 4/2/2 3/3/2 6/4/2
f 7/1/5 2/2/5 1/3/5 8/4/5
f 7/1/3 6/2/3 3/3/3 2/4/3
f 1/1/4 4/2/4 5/3/4 8/4/4
f 9/1/1 10/2/1 11/3/1 12/4/1
f 13/1/6 14/2/6 15/3/6 16/4/6
f 13/1/2 12/2/2 11/3/2 14/4/2
f 15/1/5 10/2/5 9/3/5 16/4/5
f 15/1/3 14/2/3 11/3/3 10/4/3
f 9/1/4 12/2/4 13/3/4 16/4/4
f 17/1/1 18/2/1 19/3/1 20/4/1
f 21/1/6 22/2/6 23/3/6 24/4/6
f 21/1/2 20/2/2 19/3/2 22/4/2
f 23/1/5 18/2/5 17/3/5 24/4/5
f 23/1/3 22/2/3 19/3/3 18/4/3
f 17/1/4 20/2/4 21/3/4 24/4/4
f 25/1/1 26/2/1 27/3/1 28/4/1
f 29/1/6 30/2/6 31/3/6 32/4/6
f 29/1/2 28/2/2 27/3/2 30/4/2
f 31/1/5 26/2/5 25/3/5 32/4/5
f 31/1/3 30/2/3 27/3/3 26/4/3
f 25/1/4 28/2/4 29/3/4 32/4/4
f 33/1/1 34/2/1 35/3/1 36/4/1
f 37/1/6 38/2/6 39/3/6 40/4/6
f 37/1/2 36/2/2 35/3/2 38/4/2
f 39/1/5 34/2/5 33/3/5 40/4/5
f 39/1/3 38/2/3 35/3/3 34/4/3
f 33/1/4 36/2/4 37/3/4 40/4/4
f 41/1/1 42/2/1 43/3/1 44/4/1
f 45/1/6 46/2/6 47/3/6 48/4/6
f 45/1/2 44/2/2 43/3/2 46/4/2
f 47/1/5 42/2/5 41/3/5 48/4/5
f 47/1/3 46/2/3 43/3/3 42/4/3
f 41/1/4 44/2/4 45/3/4 48/4/4
f 49/1/1 50/2/1 51/3/1 52/4/1
f 53/1/6 54/2/6 55/3/6 56/4/6
f 53/1/2 52/2/2 51/3/2 54/4/2
f 55/1/5 50/2/5 49/3/5 56/4/5
f 55/1/3 54/2/3 51/3/3 50/4/3
f 49/1/4 52/2/4 53/3/4 56/4/4
f 57/1/1 58/2/1 59/3/1 60/4/1
f 61/1/6 62/2/6 63/3/6 64/4/6
f 61/1/2 60/2/2 59/3/2 62/4/2
f 63/1/5 58/2/5 57/3/5 64/4/5
f 63/1/3 62/2/3 59/3/3 58/4/3
f 57/1/4 60/2/4 61/3/4 64/4/4
f 65/1/1 66/2/1 67/3/1 68/4/1
f 69/1/6 70/2/6 71/3/6 72/4/6
f 69/1/2 68/2/2 67/3/2 70/4/2
f 71/1/5 66/2/5 65/3/5 72/4/5
f 71/1/3 70/2/3 67/3/3 66/4/3
f 65/1/4 68/2/4 69/3/4 72/4/4
f 73/1/1 74/2/1 75/3/1 76/4/1
f 77/1/6 78/2/6 79/3/6 80/4/6
f 77/1/2 76/2/2 75/3/2 78/4/2
f 79/1/5 74/2/5 73/3/5 80/4/5
f 79/1/3 78/2/3 75/3/3 74/4/3
f 73/1/4 76/2/4 77/3/4 80/4/4
f 81/1/1 82/2/1 83/3/1 84/4/1
f 85/1/6 86/2/6 87/3/6 88/4/6
f 85/1/2 84/2/2 83/3/2 86/4/2
f 87/1/5 82/2/5 81/3/5 88/4/5
f 87/1/3 86/2/3 83/3/3 82/4/3
f 81/1/4 84/2/4 85/3/4 88/4/4
f 89/1/1 90/2/1 91/3/1 92/4/1
f 93/1/6 94/2/6 95/3/6 96/4/6
f 93/1/2 92/2/2 91/3/2 94/4/2
f 95/1/5 90/2/5 89/3/5 96/4/5
f 95/1/3 94/2/3 91/3/3 90/4/3
f 89/1/4 92/2/4 93/3/4 96/4/4
f 97/1/1 98/2/1 99/3/1 100/4/1
f 101/1/6 102/2/6 103/3/6 104/4/6
f 101/1/2 100/2/2 99/3/2 102/4/2
f 103/1/5 98/2/5 97/3/5 104/4/5
f 103/1/3 102/2/3 99/3/3 98/4/3
f 97/1/4 100/2/4 101/3/4 104/4/4
f 105/1/1 106/2/1 107/3/1 108/4/1
f 109/1/6 110/2/6 111/3/6 112/4/6
f 109/1/2 108/2/2 107/3/2 110/4/2
f 111/1/5 106/2/5 105/3/5 112/4/5
f 111/1/3 110/2/3 107/3/3 106/4/3
f 105/1/4 108/2/4 109/3/4 112/4/4
f 113/1/1 114/2/1 115/3/1 116/4/1
f 117/1/6 118/2/6 119/3/6 120/4/6
f 117/1/2 116/2/2 115/3/2 118/4/2
f 119/1/5 114/2/5 113/3/5 120/4/5
f 119/1/3 118/2/3 115/3/3 114/4/3
f 113/1/4 116/2/4 117/3/4 120/4/4
f 121/1/1 122/2/1 123/3/1 124/4/1
f 125/1/6 126/2/6 127/3/6 128/4/6
f 125/1/2 124/2/2 123/3/2 126/4/2
f 127/1/5 122/2/5 121/3/5 128/4/5
f 127/1/3 126/2/3 123/3/3 122/4/3
f 121/1/4 124/2/4 125/3/4 128/4/4
f 129/1/1 130/2/1 131/3/1 132/4/1
f 133/1/6 134/2/6 135/3/6 136/4/6
f 133/1/2 132/2/2 131/3/2 134/4/2
f 135/1/5 130/2/5 129/3/5 136/4/5
f 135/1/3 134/2/3 131/3/3 130/4/3
f 129/1/4 132/2/4 133/3/4 136/4/4
f 137/1/1 138/2/1 139/3/1 140/4/1
f 141/1/6 142/2/6 143/3/6 144/4/6
f 141/1/2 140/2/2 139/3/2 142/4/2
f 143/1/5 138/2/5 137/3/5 144/4/5
f 143/1/3 142/2/3 139/3/3 138/4/3
f 137/1/4 140/2/4 141/3/4 144/4/4
usemtl step_color_006
f 145/1/5 146/2/5 147/3/5 148/4/5
f 149/1/4 148/2/4 147/3/4 150/4/4
f 151/1/5 152/2/5 153/3/5 154/4/5
f 150/1/3 152/2/3 151/3/3 149/4/3
f 155/1/4 154/2/4 153/3/4 156/4/4
f 154/1/5 153/2/5 157/3/5 158/4/5
f 156/1/3 153/2/3 154/3/3 155/4/3
f 159/1/4 158/2/4 157/3/4 160/4/4
f 161/1/5 162/2/5 163/3/5 164/4/5
f 160/1/3 162/2/3 161/3/3 159/4/3
f 165/1/4 164/2/4 163/3/4 166/4/4
f 167/1/5 168/2/5 169/3/5 170/4/5
f 166/1/3 169/2/3 168/3/3 165/4/3
f 171/1/1 172/2/1 173/3/1 174/4/1
f 175/1/6 176/2/6 177/3/6 178/4/6
f 175/1/2 174/2/2 173/3/2 176/4/2
f 178/1/5 177/2/5 172/3/5 171/4/5
f 177/1/3 176/2/3 173/3/3 172/4/3
f 179/1/1 180/2/1 181/3/1 182/4/1
f 183/1/6 184/2/6 185/3/6 186/4/6
f 186/1/5 185/2/5 181/3/5 180/4/5
f 185/1/3 184/2/3 182/3/3 181/4/3
f 187/1/2 188/2/2 189/3/2 190/4/2
f 191/1/4 192/2/4 189/3/4 188/4/4
f 193/1/2 194/2/2 195/3/2 196/4/2
f 192/1/3 191/2/3 196/3/3 195/4/3
f 197/1/4 198/2/4 194/3/4 193/4/4
f 199/1/2 200/2/2 201/3/2 202/4/2
f 198/1/3 197/2/3 202/3/3 201/4/3
f 203/1/4 204/2/4 200/3/4 199/4/4
f 205/1/2 206/2/2 207/3/2 208/4/2
f 204/1/3 203/2/3 208/3/3 207/4/3
f 209/1/4 210/2/4 206/3/4 205/4/4
f 211/1/2 212/2/2 206/3/2 205/4/2
f 210/1/3 209/2/3 205/3/3 206/4/3
f 213/1/4 214/2/4 212/3/4 211/4/4
f 215/1/2 216/2/2 217/3/2 218/4/2
f 214/1/3 213/2/3 218/3/3 217/4/3
f 219/1/4 220/2/4 216/3/4 215/4/4
f 221/1/2 222/2/2 223/3/2 224/4/2
f 220/1/3 219/2/3 224/3/3 223/4/3
f 225/1/4 226/2/4 222/3/4 221/4/4
f 227/1/2 228/2/2 229/3/2 230/4/2
f 226/1/3 225/2/3 230/3/3 229/4/3
f 231/1/4 232/2/4 228/3/4 227/4/4
usemtl step_color_007
f 233/1/1 234/2/1 235/3/1 236/4/1
f 237/1/6 238/2/6 239/3/6 240/4/6
f 237/1/2 236/2/2 235/3/2 238/4/2
f 239/1/5 234/2/5 233/3/5 240/4/5
f 239/1/3 238/2/3 235/3/3 234/4/3
f 233/1/4 236/2/4 237/3/4 240/4/4
f 241/1/1 242/2/1 243/3/1 244/4/1
f 245/1/6 246/2/6 247/3/6 248/4/6
f 245/1/2 244/2/2 243/3/2 246/4/2
f 247/1/5 242/2/5 241/3/5 248/4/5
f 247/1/3 246/2/3 243/3/3 242/4/3
f 241/1/4 244/2/4 245/3/4 248/4/4
f 249/1/1 250/2/1 251/3/1 252/4/1
f 253/1/6 254/2/6 255/3/6 256/4/6
f 253/1/2 252/2/2 251/3/2 254/4/2
f 255/1/5 250/2/5 249/3/5 256/4/5
f 255/1/3 254/2/3 251/3/3 250/4/3
f 249/1/4 252/2/4 253/3/4 256/4/4
f 257/1/1 258/2/1 259/3/1 260/4/1
f 261/1/6 262/2/6 263/3/6 264/4/6
f 261/1/2 260/2/2 259/3/2 262/4/2
f 263/1/5 258/2/5 257/3/5 264/4/5
f 263/1/3 262/2/3 259/3/3 258/4/3
f 257/1/4 260/2/4 261/3/4 264/4/4
f 265/1/1 266/2/1 258/3/1 257/4/1
f 264/1/6 263/2/6 267/3/6 268/4/6
f 264/1/2 257/2/2 258/3/2 263/4/2
f 267/1/5 266/2/5 265/3/5 268/4/5
f 267/1/3 263/2/3 258/3/3 266/4/3
f 265/1/4 257/2/4 264/3/4 268/4/4
f 269/1/1 270/2/1 271/3/1 272/4/1
f 273/1/6 274/2/6 275/3/6 276/4/6
f 273/1/2 272/2/2 271/3/2 274/4/2
f 275/1/5 270/2/5 269/3/5 276/4/5
f 275/1/3 274/2/3 271/3/3 270/4/3
f 269/1/4 272/2/4 273/3/4 276/4/4
f 277/1/1 278/2/1 279/3/1 280/4/1
f 281/1/6 282/2/6 283/3/6 284/4/6
f 281/1/2 280/2/2 279/3/2 282/4/2
f 283/1/5 278/2/5 277/3/5 284/4/5
f 283/1/3 282/2/3 279/3/3 278/4/3
f 277/1/4 280/2/4 281/3/4 284/4/4
f 285/1/1 286/2/1 287/3/1 288/4/1
f 289/1/6 290/2/6 291/3/6 292/4/6
f 289/1/2 288/2/2 287/3/2 290/4/2
f 291/1/5 286/2/5 285/3/5 292/4/5
f 291/1/3 290/2/3 287/3/3 286/4/3
f 285/1/4 288/2/4 289/3/4 292/4/4
