# Generated by tools-import-turbines.py; estimated STEP scale.
mtllib materials.mtl
s off
v 0.482812500 0.842187500 0.988181149
v 0.482812500 0.842187500 0.953806149
v 0.482812500 0.807812500 0.953806149
v 0.482812500 0.807812500 0.988181149
v 0.517187500 0.807812500 0.988181149
v 0.517187500 0.807812500 0.953806149
v 0.517187500 0.842187500 0.953806149
v 0.517187500 0.842187500 0.988181149
v 0.732812500 0.842187500 0.988181149
v 0.732812500 0.842187500 0.953806149
v 0.732812500 0.807812500 0.953806149
v 0.732812500 0.807812500 0.988181149
v 0.767187500 0.807812500 0.988181149
v 0.767187500 0.807812500 0.953806149
v 0.767187500 0.842187500 0.953806149
v 0.767187500 0.842187500 0.988181149
v 0.465625000 0.812500000 1.000000000
v 0.465625000 0.812500000 0.936618649
v 0.465625000 0.750000000 0.936618649
v 0.465625000 0.750000000 1.000000000
v 0.534375000 0.750000000 1.000000000
v 0.534375000 0.750000000 0.936618649
v 0.534375000 0.812500000 0.936618649
v 0.534375000 0.812500000 1.000000000
v 0.590625000 0.812500000 0.971875000
v 0.590625000 0.812500000 0.903125000
v 0.590625000 0.750000000 0.903125000
v 0.590625000 0.750000000 0.971875000
v 0.659375000 0.750000000 0.971875000
v 0.659375000 0.750000000 0.903125000
v 0.659375000 0.812500000 0.903125000
v 0.659375000 0.812500000 0.971875000
v 0.715625000 0.812500000 1.000000000
v 0.715625000 0.812500000 0.936618649
v 0.715625000 0.750000000 0.936618649
v 0.715625000 0.750000000 1.000000000
v 0.784375000 0.750000000 1.000000000
v 0.784375000 0.750000000 0.936618649
v 0.784375000 0.812500000 0.936618649
v 0.784375000 0.812500000 1.000000000
v 0.189062500 0.000000000 0.829687500
v 0.189062500 1.000000000 0.829687500
v 0.189062500 1.000000000 0.795312500
v 0.189062500 0.000000000 0.795312500
v 0.223437500 1.000000000 0.829687500
v 0.223437500 0.000000000 0.829687500
v 0.223437500 0.000000000 0.795312500
v 0.223437500 1.000000000 0.795312500
v 0.510020807 0.000000000 1.000000000
v 0.510020807 0.750000000 1.000000000
v 0.510020807 0.750000000 0.950000000
v 0.510020807 0.000000000 0.950000000
v 0.739979193 0.000000000 1.000000000
v 0.739979193 0.000000000 0.950000000
v 0.739979193 0.750000000 0.950000000
v 0.739979193 0.750000000 1.000000000
v 0.581598112 1.000000000 0.148437500
v 0.581598112 1.000000000 0.093750000
v 0.581598112 0.968750000 0.093750000
v 0.581598112 0.968750000 0.148437500
v 0.793401888 1.000000000 0.148437500
v 0.793401888 0.968750000 0.148437500
v 0.793401888 0.968750000 0.093750000
v 0.793401888 1.000000000 0.093750000
v 0.516738336 1.000000000 0.203125000
v 0.516738336 1.000000000 0.148437500
v 0.516738336 0.968750000 0.148437500
v 0.516738336 0.968750000 0.203125000
v 0.858261664 1.000000000 0.203125000
v 0.858261664 0.968750000 0.203125000
v 0.858261664 0.968750000 0.148437500
v 0.858261664 1.000000000 0.148437500
v 0.484713323 1.000000000 0.257812500
v 0.484713323 1.000000000 0.203125000
v 0.484713323 0.968750000 0.203125000
v 0.484713323 0.968750000 0.257812500
v 0.890286677 1.000000000 0.257812500
v 0.890286677 0.968750000 0.257812500
v 0.890286677 0.968750000 0.203125000
v 0.890286677 1.000000000 0.203125000
v 0.470465713 1.000000000 0.312500000
v 0.470465713 1.000000000 0.257812500
v 0.470465713 0.968750000 0.257812500
v 0.470465713 0.968750000 0.312500000
v 0.904534287 1.000000000 0.312500000
v 0.904534287 0.968750000 0.312500000
v 0.904534287 0.968750000 0.257812500
v 0.904534287 1.000000000 0.257812500
v 0.470465713 1.000000000 0.367187500
v 0.470465713 0.968750000 0.367187500
v 0.904534287 1.000000000 0.367187500
v 0.904534287 0.968750000 0.367187500
v 0.484713323 1.000000000 0.421875000
v 0.484713323 1.000000000 0.367187500
v 0.484713323 0.968750000 0.367187500
v 0.484713323 0.968750000 0.421875000
v 0.890286677 1.000000000 0.421875000
v 0.890286677 0.968750000 0.421875000
v 0.890286677 0.968750000 0.367187500
v 0.890286677 1.000000000 0.367187500
v 0.516738336 1.000000000 0.476562500
v 0.516738336 1.000000000 0.421875000
v 0.516738336 0.968750000 0.421875000
v 0.516738336 0.968750000 0.476562500
v 0.858261664 1.000000000 0.476562500
v 0.858261664 0.968750000 0.476562500
v 0.858261664 0.968750000 0.421875000
v 0.858261664 1.000000000 0.421875000
v 0.581598112 1.000000000 0.531250000
v 0.581598112 1.000000000 0.476562500
v 0.581598112 0.968750000 0.476562500
v 0.581598112 0.968750000 0.531250000
v 0.793401888 1.000000000 0.531250000
v 0.793401888 0.968750000 0.531250000
v 0.793401888 0.968750000 0.476562500
v 0.793401888 1.000000000 0.476562500
v 0.250000000 0.000000000 0.082812500
v 0.250000000 0.000000000 0.000000000
v 0.250000000 0.539204045 0.000000000
v 0.250000000 0.539204045 0.082812500
v 0.000000000 0.539204045 0.000000000
v 0.000000000 0.539204045 0.082812500
v 0.000000000 0.000000000 0.082812500
v 0.250000000 0.000000000 0.312500000
v 0.250000000 0.599044006 0.082812500
v 0.250000000 0.599044006 0.312500000
v 0.000000000 0.599044006 0.082812500
v 0.000000000 0.599044006 0.312500000
v 0.000000000 0.000000000 0.312500000
v 0.250000000 0.000000000 0.542187500
v 0.250000000 0.599044006 0.542187500
v 0.000000000 0.599044006 0.542187500
v 0.000000000 0.000000000 0.542187500
v 0.250000000 0.000000000 0.771875000
v 0.250000000 0.539204045 0.542187500
v 0.250000000 0.539204045 0.771875000
v 0.000000000 0.539204045 0.542187500
v 0.000000000 0.539204045 0.771875000
v 0.000000000 0.000000000 0.771875000
v 0.250000000 0.000000000 1.000000000
v 0.250000000 0.404698989 0.771875000
v 0.250000000 0.404698989 1.000000000
v 0.000000000 0.404698989 0.771875000
v 0.000000000 0.404698989 1.000000000
v 0.218750000 0.000000000 0.000000000
v 0.218750000 0.000000000 0.145312500
v 0.218750000 0.307447842 0.145312500
v 0.218750000 0.307447842 0.000000000
v 0.656250000 0.000000000 0.145312500
v 0.656250000 0.000000000 0.000000000
v 0.656250000 0.307447842 0.000000000
v 0.656250000 0.307447842 0.145312500
v 0.218750000 0.000000000 0.312500000
v 0.218750000 0.351004821 0.312500000
v 0.218750000 0.351004821 0.145312500
v 0.656250000 0.000000000 0.312500000
v 0.656250000 0.351004821 0.145312500
v 0.656250000 0.351004821 0.312500000
v 0.218750000 0.000000000 0.479687500
v 0.218750000 0.351004821 0.479687500
v 0.656250000 0.000000000 0.479687500
v 0.656250000 0.351004821 0.479687500
v 0.218750000 0.000000000 0.646875000
v 0.218750000 0.307447842 0.646875000
v 0.218750000 0.307447842 0.479687500
v 0.656250000 0.000000000 0.646875000
v 0.656250000 0.307447842 0.479687500
v 0.656250000 0.307447842 0.646875000
v 0.218750000 0.000000000 0.814062500
v 0.218750000 0.209542801 0.814062500
v 0.218750000 0.209542801 0.646875000
v 0.656250000 0.000000000 0.814062500
v 0.656250000 0.209542801 0.646875000
v 0.656250000 0.209542801 0.814062500
v 0.218750000 0.000000000 0.981250000
v 0.218750000 0.011257202 0.981250000
v 0.218750000 0.011257202 0.814062500
v 0.656250000 0.000000000 0.981250000
v 0.656250000 0.011257202 0.814062500
v 0.656250000 0.011257202 0.981250000
v 0.406250000 0.916417253 0.054687500
v 0.406250000 0.916417253 0.000000000
v 0.406250000 0.583582747 0.000000000
v 0.406250000 0.583582747 0.054687500
v 0.968750000 0.583582747 0.054687500
v 0.968750000 0.583582747 0.000000000
v 0.968750000 0.916417253 0.000000000
v 0.968750000 0.916417253 0.054687500
v 0.406250000 1.000000000 0.140625000
v 0.406250000 1.000000000 0.054687500
v 0.406250000 0.481660242 0.054687500
v 0.406250000 0.481660242 0.140625000
v 0.968750000 1.000000000 0.140625000
v 0.968750000 0.481660242 0.140625000
v 0.968750000 0.481660242 0.054687500
v 0.968750000 1.000000000 0.054687500
v 0.406250000 1.000000000 0.226562500
v 0.406250000 0.431335221 0.140625000
v 0.406250000 0.431335221 0.226562500
v 0.968750000 1.000000000 0.226562500
v 0.968750000 0.431335221 0.226562500
v 0.968750000 0.431335221 0.140625000
v 0.406250000 1.000000000 0.312500000
v 0.406250000 0.408946120 0.226562500
v 0.406250000 0.408946120 0.312500000
v 0.968750000 1.000000000 0.312500000
v 0.968750000 0.408946120 0.312500000
v 0.968750000 0.408946120 0.226562500
v 0.406250000 1.000000000 0.398437500
v 0.406250000 0.408946120 0.398437500
v 0.968750000 1.000000000 0.398437500
v 0.968750000 0.408946120 0.398437500
v 0.406250000 1.000000000 0.484375000
v 0.406250000 0.431335221 0.398437500
v 0.406250000 0.431335221 0.484375000
v 0.968750000 1.000000000 0.484375000
v 0.968750000 0.431335221 0.484375000
v 0.968750000 0.431335221 0.398437500
v 0.406250000 1.000000000 0.570312500
v 0.406250000 0.481660242 0.484375000
v 0.406250000 0.481660242 0.570312500
v 0.968750000 1.000000000 0.570312500
v 0.968750000 0.481660242 0.570312500
v 0.968750000 0.481660242 0.484375000
v 0.406250000 0.916417253 0.656250000
v 0.406250000 0.916417253 0.570312500
v 0.406250000 0.583582747 0.570312500
v 0.406250000 0.583582747 0.656250000
v 0.968750000 0.583582747 0.656250000
v 0.968750000 0.583582747 0.570312500
v 0.968750000 0.916417253 0.570312500
v 0.968750000 0.916417253 0.656250000
v 0.312500000 1.000000000 0.000000000
v 0.312500000 1.000000000 0.003125000
v 0.312500000 0.612799296 0.003125000
v 0.312500000 0.612799296 0.000000000
v 0.000000000 0.612799296 0.003125000
v 0.000000000 0.612799296 0.000000000
v 0.000000000 1.000000000 0.003125000
v 0.312500000 1.000000000 0.106250000
v 0.312500000 0.490492291 0.106250000
v 0.312500000 0.490492291 0.003125000
v 0.000000000 0.490492291 0.106250000
v 0.000000000 0.490492291 0.003125000
v 0.000000000 1.000000000 0.106250000
v 0.312500000 1.000000000 0.209375000
v 0.312500000 0.430102266 0.209375000
v 0.312500000 0.430102266 0.106250000
v 0.000000000 0.430102266 0.209375000
v 0.000000000 0.430102266 0.106250000
v 0.000000000 1.000000000 0.209375000
v 0.312500000 1.000000000 0.312500000
v 0.312500000 0.403235344 0.312500000
v 0.312500000 0.403235344 0.209375000
v 0.000000000 0.403235344 0.312500000
v 0.000000000 0.403235344 0.209375000
v 0.000000000 1.000000000 0.312500000
v 0.312500000 1.000000000 0.415625000
v 0.312500000 0.403235344 0.415625000
v 0.000000000 0.403235344 0.415625000
v 0.000000000 1.000000000 0.415625000
v 0.312500000 1.000000000 0.518750000
v 0.312500000 0.430102266 0.518750000
v 0.312500000 0.430102266 0.415625000
v 0.000000000 0.430102266 0.518750000
v 0.000000000 0.430102266 0.415625000
v 0.000000000 1.000000000 0.518750000
v 0.312500000 1.000000000 0.621875000
v 0.312500000 0.490492291 0.621875000
v 0.312500000 0.490492291 0.518750000
v 0.000000000 0.490492291 0.621875000
v 0.000000000 0.490492291 0.518750000
v 0.000000000 1.000000000 0.621875000
v 0.312500000 1.000000000 0.725000000
v 0.312500000 0.612799296 0.725000000
v 0.312500000 0.612799296 0.621875000
v 0.000000000 0.612799296 0.725000000
v 0.000000000 0.612799296 0.621875000
v 0.000000000 1.000000000 0.725000000
v 0.485814661 0.825000000 0.971875000
v 0.485814661 0.825000000 0.900000000
v 0.485814661 0.737500000 0.900000000
v 0.485814661 0.737500000 0.971875000
v 0.764185339 0.737500000 0.971875000
v 0.764185339 0.737500000 0.900000000
v 0.764185339 0.825000000 0.900000000
v 0.764185339 0.825000000 0.971875000
v 0.400570384 0.825000000 1.000000000
v 0.400570384 0.825000000 0.971875000
v 0.400570384 0.737500000 0.971875000
v 0.400570384 0.737500000 1.000000000
v 0.849429616 0.737500000 1.000000000
v 0.849429616 0.737500000 0.971875000
v 0.849429616 0.825000000 0.971875000
v 0.849429616 0.825000000 1.000000000
vt 0 0
vt 1 0
vt 1 1
vt 0 1
vn -1.000000000 -0.000000000 0.000000000
vn 0.000000000 -1.000000000 -0.000000000
vn -0.000000000 -0.000000000 -1.000000000
vn 0.000000000 0.000000000 1.000000000
vn -0.000000000 1.000000000 0.000000000
vn 1.000000000 0.000000000 -0.000000000
usemtl step_color_003
f 1/1/1 2/2/1 3/3/1 4/4/1
f 5/1/6 6/2/6 7/3/6 8/4/6
f 5/1/2 4/2/2 3/3/2 6/4/2
f 7/1/5 2/2/5 1/3/5 8/4/5
f 7/1/3 6/2/3 3/3/3 2/4/3
f 1/1/4 4/2/4 5/3/4 8/4/4
f 9/1/1 10/2/1 11/3/1 12/4/1
f 13/1/6 14/2/6 15/3/6 16/4/6
f 13/1/2 12/2/2 11/3/2 14/4/2
f 15/1/5 10/2/5 9/3/5 16/4/5
f 15/1/3 14/2/3 11/3/3 10/4/3
f 9/1/4 12/2/4 13/3/4 16/4/4
f 17/1/1 18/2/1 19/3/1 20/4/1
f 21/1/6 22/2/6 23/3/6 24/4/6
f 21/1/2 20/2/2 19/3/2 22/4/2
f 24/1/5 23/2/5 18/3/5 17/4/5
f 23/1/3 22/2/3 19/3/3 18/4/3
f 25/1/1 26/2/1 27/3/1 28/4/1
f 29/1/6 30/2/6 31/3/6 32/4/6
f 29/1/2 28/2/2 27/3/2 30/4/2
f 31/1/5 26/2/5 25/3/5 32/4/5
f 31/1/3 30/2/3 27/3/3 26/4/3
f 25/1/4 28/2/4 29/3/4 32/4/4
f 33/1/1 34/2/1 35/3/1 36/4/1
f 37/1/6 38/2/6 39/3/6 40/4/6
f 37/1/2 36/2/2 35/3/2 38/4/2
f 40/1/5 39/2/5 34/3/5 33/4/5
f 39/1/3 38/2/3 35/3/3 34/4/3
f 41/1/1 42/2/1 43/3/1 44/4/1
f 45/1/6 46/2/6 47/3/6 48/4/6
f 48/1/3 47/2/3 44/3/3 43/4/3
f 42/1/4 41/2/4 46/3/4 45/4/4
usemtl step_color_006
f 49/1/1 50/2/1 51/3/1 52/4/1
f 53/1/6 54/2/6 55/3/6 56/4/6
f 56/1/5 55/2/5 51/3/5 50/4/5
f 55/1/3 54/2/3 52/3/3 51/4/3
f 57/1/1 58/2/1 59/3/1 60/4/1
f 61/1/6 62/2/6 63/3/6 64/4/6
f 62/1/2 60/2/2 59/3/2 63/4/2
f 64/1/3 63/2/3 59/3/3 58/4/3
f 57/1/4 60/2/4 62/3/4 61/4/4
f 65/1/1 66/2/1 67/3/1 68/4/1
f 69/1/6 70/2/6 71/3/6 72/4/6
f 70/1/2 68/2/2 67/3/2 71/4/2
f 72/1/3 71/2/3 67/3/3 66/4/3
f 65/1/4 68/2/4 70/3/4 69/4/4
f 73/1/1 74/2/1 75/3/1 76/4/1
f 77/1/6 78/2/6 79/3/6 80/4/6
f 78/1/2 76/2/2 75/3/2 79/4/2
f 80/1/3 79/2/3 75/3/3 74/4/3
f 73/1/4 76/2/4 78/3/4 77/4/4
f 81/1/1 82/2/1 83/3/1 84/4/1
f 85/1/6 86/2/6 87/3/6 88/4/6
f 86/1/2 84/2/2 83/3/2 87/4/2
f 88/1/3 87/2/3 83/3/3 82/4/3
f 81/1/4 84/2/4 86/3/4 85/4/4
f 89/1/1 81/2/1 84/3/1 90/4/1
f 91/1/6 92/2/6 86/3/6 85/4/6
f 92/1/2 90/2/2 84/3/2 86/4/2
f 85/1/3 86/2/3 84/3/3 81/4/3
f 89/1/4 90/2/4 92/3/4 91/4/4
f 93/1/1 94/2/1 95/3/1 96/4/1
f 97/1/6 98/2/6 99/3/6 100/4/6
f 98/1/2 96/2/2 95/3/2 99/4/2
f 100/1/3 99/2/3 95/3/3 94/4/3
f 93/1/4 96/2/4 98/3/4 97/4/4
f 101/1/1 102/2/1 103/3/1 104/4/1
f 105/1/6 106/2/6 107/3/6 108/4/6
f 106/1/2 104/2/2 103/3/2 107/4/2
f 108/1/3 107/2/3 103/3/3 102/4/3
f 101/1/4 104/2/4 106/3/4 105/4/4
f 109/1/1 110/2/1 111/3/1 112/4/1
f 113/1/6 114/2/6 115/3/6 116/4/6
f 114/1/2 112/2/2 111/3/2 115/4/2
f 116/1/3 115/2/3 111/3/3 110/4/3
f 109/1/4 112/2/4 114/3/4 113/4/4
f 117/1/6 118/2/6 119/3/6 120/4/6
f 119/1/5 121/2/5 122/3/5 120/4/5
f 122/1/4 123/2/4 117/3/4 120/4/4
f 124/1/6 117/2/6 125/3/6 126/4/6
f 125/1/5 127/2/5 128/3/5 126/4/5
f 123/1/3 127/2/3 125/3/3 117/4/3
f 128/1/4 129/2/4 124/3/4 126/4/4
f 130/1/6 124/2/6 126/3/6 131/4/6
f 126/1/5 128/2/5 132/3/5 131/4/5
f 129/1/3 128/2/3 126/3/3 124/4/3
f 132/1/4 133/2/4 130/3/4 131/4/4
f 134/1/6 130/2/6 135/3/6 136/4/6
f 135/1/5 137/2/5 138/3/5 136/4/5
f 133/1/3 137/2/3 135/3/3 130/4/3
f 138/1/4 139/2/4 134/3/4 136/4/4
f 140/1/6 134/2/6 141/3/6 142/4/6
f 142/1/5 141/2/5 143/3/5 144/4/5
f 139/1/3 143/2/3 141/3/3 134/4/3
f 145/1/1 146/2/1 147/3/1 148/4/1
f 149/1/6 150/2/6 151/3/6 152/4/6
f 151/1/5 148/2/5 147/3/5 152/4/5
f 147/1/4 146/2/4 149/3/4 152/4/4
f 153/1/1 154/2/1 155/3/1 146/4/1
f 156/1/6 149/2/6 157/3/6 158/4/6
f 157/1/5 155/2/5 154/3/5 158/4/5
f 157/1/3 149/2/3 146/3/3 155/4/3
f 154/1/4 153/2/4 156/3/4 158/4/4
f 159/1/1 160/2/1 154/3/1 153/4/1
f 161/1/6 156/2/6 158/3/6 162/4/6
f 158/1/5 154/2/5 160/3/5 162/4/5
f 158/1/3 156/2/3 153/3/3 154/4/3
f 160/1/4 159/2/4 161/3/4 162/4/4
f 163/1/1 164/2/1 165/3/1 159/4/1
f 166/1/6 161/2/6 167/3/6 168/4/6
f 167/1/5 165/2/5 164/3/5 168/4/5
f 167/1/3 161/2/3 159/3/3 165/4/3
f 164/1/4 163/2/4 166/3/4 168/4/4
f 169/1/1 170/2/1 171/3/1 163/4/1
f 172/1/6 166/2/6 173/3/6 174/4/6
f 173/1/5 171/2/5 170/3/5 174/4/5
f 173/1/3 166/2/3 163/3/3 171/4/3
f 170/1/4 169/2/4 172/3/4 174/4/4
f 175/1/1 176/2/1 177/3/1 169/4/1
f 178/1/6 172/2/6 179/3/6 180/4/6
f 179/1/5 177/2/5 176/3/5 180/4/5
f 179/1/3 172/2/3 169/3/3 177/4/3
f 176/1/4 175/2/4 178/3/4 180/4/4
f 181/1/1 182/2/1 183/3/1 184/4/1
f 185/1/6 186/2/6 187/3/6 188/4/6
f 186/1/2 185/2/2 184/3/2 183/4/2
f 187/1/5 182/2/5 181/3/5 188/4/5
f 181/1/4 184/2/4 185/3/4 188/4/4
f 189/1/1 190/2/1 191/3/1 192/4/1
f 193/1/6 194/2/6 195/3/6 196/4/6
f 194/1/2 192/2/2 191/3/2 195/4/2
f 196/1/3 195/2/3 191/3/3 190/4/3
f 189/1/4 192/2/4 194/3/4 193/4/4
f 197/1/1 189/2/1 198/3/1 199/4/1
f 200/1/6 201/2/6 202/3/6 193/4/6
f 201/1/2 199/2/2 198/3/2 202/4/2
f 193/1/3 202/2/3 198/3/3 189/4/3
f 197/1/4 199/2/4 201/3/4 200/4/4
f 203/1/1 197/2/1 204/3/1 205/4/1
f 206/1/6 207/2/6 208/3/6 200/4/6
f 207/1/2 205/2/2 204/3/2 208/4/2
f 200/1/3 208/2/3 204/3/3 197/4/3
f 203/1/4 205/2/4 207/3/4 206/4/4
f 209/1/1 203/2/1 205/3/1 210/4/1
f 211/1/6 212/2/6 207/3/6 206/4/6
f 212/1/2 210/2/2 205/3/2 207/4/2
f 206/1/3 207/2/3 205/3/3 203/4/3
f 209/1/4 210/2/4 212/3/4 211/4/4
f 213/1/1 209/2/1 214/3/1 215/4/1
f 216/1/6 217/2/6 218/3/6 211/4/6
f 217/1/2 215/2/2 214/3/2 218/4/2
f 211/1/3 218/2/3 214/3/3 209/4/3
f 213/1/4 215/2/4 217/3/4 216/4/4
f 219/1/1 213/2/1 220/3/1 221/4/1
f 222/1/6 223/2/6 224/3/6 216/4/6
f 223/1/2 221/2/2 220/3/2 224/4/2
f 216/1/3 224/2/3 220/3/3 213/4/3
f 219/1/4 221/2/4 223/3/4 222/4/4
f 225/1/1 226/2/1 227/3/1 228/4/1
f 229/1/6 230/2/6 231/3/6 232/4/6
f 229/1/2 228/2/2 227/3/2 230/4/2
f 231/1/5 226/2/5 225/3/5 232/4/5
f 231/1/3 230/2/3 227/3/3 226/4/3
f 225/1/4 228/2/4 229/3/4 232/4/4
f 233/1/6 234/2/6 235/3/6 236/4/6
f 236/1/2 235/2/2 237/3/2 238/4/2
f 239/1/4 237/2/4 235/3/4 234/4/4
f 240/1/6 241/2/6 242/3/6 234/4/6
f 241/1/2 243/2/2 244/3/2 242/4/2
f 239/1/3 234/2/3 242/3/3 244/4/3
f 245/1/4 243/2/4 241/3/4 240/4/4
f 246/1/6 247/2/6 248/3/6 240/4/6
f 247/1/2 249/2/2 250/3/2 248/4/2
f 245/1/3 240/2/3 248/3/3 250/4/3
f 251/1/4 249/2/4 247/3/4 246/4/4
f 252/1/6 253/2/6 254/3/6 246/4/6
f 253/1/2 255/2/2 256/3/2 254/4/2
f 251/1/3 246/2/3 254/3/3 256/4/3
f 257/1/4 255/2/4 253/3/4 252/4/4
f 258/1/6 259/2/6 253/3/6 252/4/6
f 259/1/2 260/2/2 255/3/2 253/4/2
f 257/1/3 252/2/3 253/3/3 255/4/3
f 261/1/4 260/2/4 259/3/4 258/4/4
f 262/1/6 263/2/6 264/3/6 258/4/6
f 263/1/2 265/2/2 266/3/2 264/4/2
f 261/1/3 258/2/3 264/3/3 266/4/3
f 267/1/4 265/2/4 263/3/4 262/4/4
f 268/1/6 269/2/6 270/3/6 262/4/6
f 269/1/2 271/2/2 272/3/2 270/4/2
f 267/1/3 262/2/3 270/3/3 272/4/3
f 273/1/4 271/2/4 269/3/4 268/4/4
f 274/1/6 275/2/6 276/3/6 268/4/6
f 275/1/2 277/2/2 278/3/2 276/4/2
f 273/1/3 268/2/3 276/3/3 278/4/3
f 279/1/4 277/2/4 275/3/4 274/4/4
usemtl step_color_007
f 280/1/1 281/2/1 282/3/1 283/4/1
f 284/1/6 285/2/6 286/3/6 287/4/6
f 284/1/2 283/2/2 282/3/2 285/4/2
f 286/1/5 281/2/5 280/3/5 287/4/5
f 286/1/3 285/2/3 282/3/3 281/4/3
f 280/1/4 283/2/4 284/3/4 287/4/4
f 288/1/1 289/2/1 290/3/1 291/4/1
f 292/1/6 293/2/6 294/3/6 295/4/6
f 292/1/2 291/2/2 290/3/2 293/4/2
f 295/1/5 294/2/5 289/3/5 288/4/5
f 294/1/3 293/2/3 290/3/3 289/4/3
