# Generated by tools-import-turbines.py; estimated STEP scale.
mtllib materials.mtl
s off
v 0.190625000 0.000000000 0.788946528
v 0.190625000 0.047781712 0.788946528
v 0.190625000 0.047781712 0.738946528
v 0.190625000 0.000000000 0.738946528
v 0.240625000 0.000000000 0.788946528
v 0.240625000 0.000000000 0.738946528
v 0.240625000 0.047781712 0.738946528
v 0.240625000 0.047781712 0.788946528
v 0.190625000 0.275000000 0.743750000
v 0.190625000 0.275000000 0.693750000
v 0.190625000 0.225000000 0.693750000
v 0.190625000 0.225000000 0.743750000
v 0.240625000 0.225000000 0.743750000
v 0.240625000 0.225000000 0.693750000
v 0.240625000 0.275000000 0.693750000
v 0.240625000 0.275000000 0.743750000
v 0.190625000 0.502218288 0.788946528
v 0.190625000 0.502218288 0.738946528
v 0.190625000 0.452218288 0.738946528
v 0.190625000 0.452218288 0.788946528
v 0.240625000 0.452218288 0.788946528
v 0.240625000 0.452218288 0.738946528
v 0.240625000 0.502218288 0.738946528
v 0.240625000 0.502218288 0.788946528
v 0.190625000 0.694844651 0.917655349
v 0.190625000 0.694844651 0.867655349
v 0.190625000 0.644844651 0.867655349
v 0.190625000 0.644844651 0.917655349
v 0.240625000 0.644844651 0.917655349
v 0.240625000 0.644844651 0.867655349
v 0.240625000 0.694844651 0.867655349
v 0.240625000 0.694844651 0.917655349
v 0.912500000 0.787500000 0.400000000
v 0.912500000 0.787500000 0.350000000
v 0.912500000 0.712500000 0.350000000
v 0.912500000 0.712500000 0.400000000
v 0.962500000 0.712500000 0.400000000
v 0.962500000 0.712500000 0.350000000
v 0.962500000 0.787500000 0.350000000
v 0.962500000 0.787500000 0.400000000
v 0.312500000 0.000000000 0.871875000
v 0.312500000 0.534422214 0.871875000
v 0.312500000 0.534422214 0.725000000
v 0.312500000 0.000000000 0.725000000
v 0.937500000 0.000000000 0.871875000
v 0.937500000 0.000000000 0.725000000
v 0.937500000 0.534422214 0.725000000
v 0.937500000 0.534422214 0.871875000
v 0.312500000 0.000000000 1.000000000
v 0.312500000 0.708617041 1.000000000
v 0.312500000 0.708617041 0.871875000
v 0.937500000 0.000000000 1.000000000
v 0.937500000 0.708617041 0.871875000
v 0.937500000 0.708617041 1.000000000
v 0.875000000 1.000000000 0.623437500
v 0.875000000 1.000000000 0.393750000
v 0.875000000 0.242712069 0.393750000
v 0.875000000 0.242712069 0.623437500
v 1.000000000 0.242712069 0.623437500
v 1.000000000 0.242712069 0.393750000
v 1.000000000 1.000000000 0.393750000
v 1.000000000 1.000000000 0.623437500
v 0.875000000 0.000000000 0.853125000
v 0.875000000 1.000000000 0.853125000
v 0.875000000 0.000000000 0.623437500
v 1.000000000 0.000000000 0.623437500
v 1.000000000 0.000000000 0.853125000
v 1.000000000 1.000000000 0.853125000
v 0.875000000 0.000000000 1.000000000
v 0.875000000 1.000000000 1.000000000
v 0.250000000 0.000000000 0.829687500
v 0.250000000 0.561654129 0.829687500
v 0.250000000 0.561654129 0.668750000
v 0.250000000 0.000000000 0.668750000
v 0.337500000 0.000000000 0.829687500
v 0.337500000 0.000000000 0.668750000
v 0.337500000 0.561654129 0.668750000
v 0.337500000 0.561654129 0.829687500
v 0.250000000 0.000000000 0.990625000
v 0.250000000 0.752527183 0.990625000
v 0.250000000 0.752527183 0.829687500
v 0.337500000 0.000000000 0.990625000
v 0.337500000 0.752527183 0.829687500
v 0.337500000 0.752527183 0.990625000
v 0.250000000 0.000000000 1.000000000
v 0.250000000 0.846772222 1.000000000
v 0.250000000 0.846772222 0.990625000
v 0.337500000 0.000000000 1.000000000
v 0.337500000 0.846772222 0.990625000
v 0.337500000 0.846772222 1.000000000
v 0.843750000 0.721875000 1.000000000
v 0.843750000 0.721875000 0.343750000
v 0.843750000 0.653125000 0.343750000
v 0.843750000 0.653125000 1.000000000
v 1.000000000 0.653125000 1.000000000
v 1.000000000 0.653125000 0.343750000
v 1.000000000 0.721875000 1.000000000
v 1.000000000 0.721875000 0.343750000
vt 0 0
vt 1 0
vt 1 1
vt 0 1
vn -1.000000000 -0.000000000 0.000000000
vn 0.000000000 -1.000000000 -0.000000000
vn -0.000000000 -0.000000000 -1.000000000
vn 0.000000000 0.000000000 1.000000000
vn -0.000000000 1.000000000 0.000000000
vn 1.000000000 0.000000000 -0.000000000
usemtl step_color_003
f 1/1/1 2/2/1 3/3/1 4/4/1
f 5/1/6 6/2/6 7/3/6 8/4/6
f 7/1/5 3/2/5 2/3/5 8/4/5
f 7/1/3 6/2/3 4/3/3 3/4/3
f 2/1/4 1/2/4 5/3/4 8/4/4
f 9/1/1 10/2/1 11/3/1 12/4/1
f 13/1/6 14/2/6 15/3/6 16/4/6
f 13/1/2 12/2/2 11/3/2 14/4/2
f 15/1/5 10/2/5 9/3/5 16/4/5
f 15/1/3 14/2/3 11/3/3 10/4/3
f 9/1/4 12/2/4 13/3/4 16/4/4
f 17/1/1 18/2/1 19/3/1 20/4/1
f 21/1/6 22/2/6 23/3/6 24/4/6
f 21/1/2 20/2/2 19/3/2 22/4/2
f 23/1/5 18/2/5 17/3/5 24/4/5
f 23/1/3 22/2/3 19/3/3 18/4/3
f 17/1/4 20/2/4 21/3/4 24/4/4
f 25/1/1 26/2/1 27/3/1 28/4/1
f 29/1/6 30/2/6 31/3/6 32/4/6
f 29/1/2 28/2/2 27/3/2 30/4/2
f 31/1/5 26/2/5 25/3/5 32/4/5
f 31/1/3 30/2/3 27/3/3 26/4/3
f 25/1/4 28/2/4 29/3/4 32/4/4
f 33/1/1 34/2/1 35/3/1 36/4/1
f 37/1/6 38/2/6 39/3/6 40/4/6
f 37/1/2 36/2/2 35/3/2 38/4/2
f 39/1/5 34/2/5 33/3/5 40/4/5
f 39/1/3 38/2/3 35/3/3 34/4/3
f 33/1/4 36/2/4 37/3/4 40/4/4
usemtl step_color_006
f 41/1/1 42/2/1 43/3/1 44/4/1
f 45/1/6 46/2/6 47/3/6 48/4/6
f 47/1/5 43/2/5 42/3/5 48/4/5
f 47/1/3 46/2/3 44/3/3 43/4/3
f 42/1/4 41/2/4 45/3/4 48/4/4
f 49/1/1 50/2/1 51/3/1 41/4/1
f 52/1/6 45/2/6 53/3/6 54/4/6
f 54/1/5 53/2/5 51/3/5 50/4/5
f 53/1/3 45/2/3 41/3/3 51/4/3
f 55/1/1 56/2/1 57/3/1 58/4/1
f 59/1/2 58/2/2 57/3/2 60/4/2
f 61/1/3 60/2/3 57/3/3 56/4/3
f 62/1/4 55/2/4 58/3/4 59/4/4
f 63/1/1 64/2/1 55/3/1 65/4/1
f 62/1/3 66/2/3 65/3/3 55/4/3
f 67/1/4 68/2/4 64/3/4 63/4/4
f 69/1/1 70/2/1 64/3/1 63/4/1
f 68/1/3 67/2/3 63/3/3 64/4/3
usemtl step_color_007
f 71/1/1 72/2/1 73/3/1 74/4/1
f 75/1/6 76/2/6 77/3/6 78/4/6
f 77/1/5 73/2/5 72/3/5 78/4/5
f 77/1/3 76/2/3 74/3/3 73/4/3
f 72/1/4 71/2/4 75/3/4 78/4/4
f 79/1/1 80/2/1 81/3/1 71/4/1
f 82/1/6 75/2/6 83/3/6 84/4/6
f 83/1/5 81/2/5 80/3/5 84/4/5
f 83/1/3 75/2/3 71/3/3 81/4/3
f 80/1/4 79/2/4 82/3/4 84/4/4
f 85/1/1 86/2/1 87/3/1 79/4/1
f 88/1/6 82/2/6 89/3/6 90/4/6
f 90/1/5 89/2/5 87/3/5 86/4/5
f 89/1/3 82/2/3 79/3/3 87/4/3
f 91/1/1 92/2/1 93/3/1 94/4/1
f 95/1/2 94/2/2 93/3/2 96/4/2
f 97/1/5 98/2/5 92/3/5 91/4/5
f 98/1/3 96/2/3 93/3/3 92/4/3
