# Generated by tools-import-turbines.py; estimated STEP scale.
mtllib materials.mtl
s off
v 0.062500000 0.343750000 1.000000000
v 0.062500000 0.343750000 0.000000000
v 0.062500000 0.031250000 0.000000000
v 0.062500000 0.031250000 1.000000000
v 0.187500000 0.031250000 1.000000000
v 0.187500000 0.031250000 0.000000000
v 0.187500000 0.343750000 0.000000000
v 0.187500000 0.343750000 1.000000000
v 0.937500000 1.000000000 0.965625000
v 0.937500000 1.000000000 0.912500000
v 0.937500000 0.834623880 0.912500000
v 0.937500000 0.834623880 0.965625000
v 1.000000000 0.834623880 0.965625000
v 1.000000000 0.834623880 0.912500000
v 1.000000000 1.000000000 0.912500000
v 1.000000000 1.000000000 0.965625000
v 0.937500000 1.000000000 1.000000000
v 0.937500000 0.771617241 0.965625000
v 0.937500000 0.771617241 1.000000000
v 1.000000000 0.771617241 1.000000000
v 1.000000000 0.771617241 0.965625000
v 0.964062500 0.842187500 0.947331784
v 0.964062500 0.842187500 0.912956784
v 0.964062500 0.807812500 0.912956784
v 0.964062500 0.807812500 0.947331784
v 0.998437500 0.807812500 0.947331784
v 0.998437500 0.807812500 0.912956784
v 0.998437500 0.842187500 0.912956784
v 0.998437500 0.842187500 0.947331784
v 0.906250000 0.777019284 1.000000000
v 0.906250000 0.777019284 0.978125000
v 0.906250000 0.708269284 0.978125000
v 0.906250000 0.708269284 1.000000000
v 0.968750000 0.708269284 1.000000000
v 0.968750000 0.708269284 0.978125000
v 0.968750000 0.777019284 0.978125000
v 0.968750000 0.777019284 1.000000000
v 0.906250000 0.859375000 0.964519284
v 0.906250000 0.859375000 0.895769284
v 0.906250000 0.790625000 0.895769284
v 0.906250000 0.790625000 0.964519284
v 0.968750000 0.790625000 0.964519284
v 0.968750000 0.790625000 0.895769284
v 0.968750000 0.859375000 0.895769284
v 0.968750000 0.859375000 0.964519284
v 0.906250000 0.971875000 0.934375000
v 0.906250000 0.971875000 0.865625000
v 0.906250000 0.903125000 0.865625000
v 0.906250000 0.903125000 0.934375000
v 0.968750000 0.903125000 0.934375000
v 0.968750000 0.903125000 0.865625000
v 0.968750000 0.971875000 0.865625000
v 0.968750000 0.971875000 0.934375000
v 0.482812500 0.779687500 0.988181149
v 0.482812500 0.779687500 0.953806149
v 0.482812500 0.745312500 0.953806149
v 0.482812500 0.745312500 0.988181149
v 0.517187500 0.745312500 0.988181149
v 0.517187500 0.745312500 0.953806149
v 0.517187500 0.779687500 0.953806149
v 0.517187500 0.779687500 0.988181149
v 0.732812500 0.779687500 0.988181149
v 0.732812500 0.779687500 0.953806149
v 0.732812500 0.745312500 0.953806149
v 0.732812500 0.745312500 0.988181149
v 0.767187500 0.745312500 0.988181149
v 0.767187500 0.745312500 0.953806149
v 0.767187500 0.779687500 0.953806149
v 0.767187500 0.779687500 0.988181149
v 0.465625000 0.750000000 1.000000000
v 0.465625000 0.750000000 0.936618649
v 0.465625000 0.687500000 0.936618649
v 0.465625000 0.687500000 1.000000000
v 0.534375000 0.687500000 1.000000000
v 0.534375000 0.687500000 0.936618649
v 0.534375000 0.750000000 0.936618649
v 0.534375000 0.750000000 1.000000000
v 0.590625000 0.750000000 0.971875000
v 0.590625000 0.750000000 0.903125000
v 0.590625000 0.687500000 0.903125000
v 0.590625000 0.687500000 0.971875000
v 0.659375000 0.687500000 0.971875000
v 0.659375000 0.687500000 0.903125000
v 0.659375000 0.750000000 0.903125000
v 0.659375000 0.750000000 0.971875000
v 0.715625000 0.750000000 1.000000000
v 0.715625000 0.750000000 0.936618649
v 0.715625000 0.687500000 0.936618649
v 0.715625000 0.687500000 1.000000000
v 0.784375000 0.687500000 1.000000000
v 0.784375000 0.687500000 0.936618649
v 0.784375000 0.750000000 0.936618649
v 0.784375000 0.750000000 1.000000000
v 0.900000000 1.000000000 0.932812500
v 0.900000000 1.000000000 0.868750000
v 0.900000000 0.813443502 0.868750000
v 0.900000000 0.813443502 0.932812500
v 0.975000000 1.000000000 0.932812500
v 0.975000000 0.813443502 0.932812500
v 0.975000000 0.813443502 0.868750000
v 0.975000000 1.000000000 0.868750000
v 0.900000000 1.000000000 0.996875000
v 0.900000000 0.737464908 0.932812500
v 0.900000000 0.737464908 0.996875000
v 0.975000000 1.000000000 0.996875000
v 0.975000000 0.737464908 0.996875000
v 0.975000000 0.737464908 0.932812500
v 0.900000000 1.000000000 1.000000000
v 0.900000000 0.699949892 0.996875000
v 0.900000000 0.699949892 1.000000000
v 0.975000000 1.000000000 1.000000000
v 0.975000000 0.699949892 1.000000000
v 0.975000000 0.699949892 0.996875000
v 0.510020807 1.000000000 1.000000000
v 0.510020807 1.000000000 0.950000000
v 0.510020807 0.750000000 0.950000000
v 0.510020807 0.750000000 1.000000000
v 0.739979193 1.000000000 1.000000000
v 0.739979193 0.750000000 1.000000000
v 0.739979193 0.750000000 0.950000000
v 0.739979193 1.000000000 0.950000000
v 0.093750000 1.000000000 1.000000000
v 0.093750000 0.531250000 1.000000000
v 0.093750000 0.531250000 0.687500000
v 0.093750000 1.000000000 0.687500000
v 0.000000000 0.531250000 1.000000000
v 0.000000000 0.531250000 0.687500000
v 0.000000000 1.000000000 0.687500000
v 0.250000000 1.000000000 0.000000000
v 0.250000000 1.000000000 0.082812500
v 0.250000000 0.835795955 0.082812500
v 0.250000000 0.835795955 0.000000000
v 0.000000000 0.835795955 0.082812500
v 0.000000000 0.835795955 0.000000000
v 0.000000000 1.000000000 0.082812500
v 0.250000000 1.000000000 0.312500000
v 0.250000000 0.775955994 0.312500000
v 0.250000000 0.775955994 0.082812500
v 0.000000000 0.775955994 0.312500000
v 0.000000000 0.775955994 0.082812500
v 0.000000000 1.000000000 0.312500000
v 0.250000000 1.000000000 0.542187500
v 0.250000000 0.775955994 0.542187500
v 0.000000000 0.775955994 0.542187500
v 0.000000000 1.000000000 0.542187500
v 0.250000000 1.000000000 0.771875000
v 0.250000000 0.835795955 0.771875000
v 0.250000000 0.835795955 0.542187500
v 0.000000000 0.835795955 0.771875000
v 0.000000000 0.835795955 0.542187500
v 0.000000000 1.000000000 0.771875000
v 0.250000000 1.000000000 1.000000000
v 0.250000000 0.970301011 1.000000000
v 0.250000000 0.970301011 0.771875000
v 0.000000000 0.970301011 1.000000000
v 0.000000000 0.970301011 0.771875000
v 1.000000000 0.371875000 0.000000000
v 1.000000000 0.371875000 1.000000000
v 0.000000000 0.371875000 1.000000000
v 0.000000000 0.371875000 0.000000000
v 1.000000000 0.453125000 1.000000000
v 1.000000000 0.453125000 0.000000000
v 0.000000000 0.453125000 0.000000000
v 0.000000000 0.453125000 1.000000000
v 0.250000000 1.000000000 0.875000000
v 0.250000000 1.000000000 0.625000000
v 0.250000000 0.437500000 0.625000000
v 0.250000000 0.437500000 0.875000000
v 0.500000000 1.000000000 0.875000000
v 0.500000000 0.437500000 0.875000000
v 0.500000000 0.437500000 0.625000000
v 0.500000000 1.000000000 0.625000000
v 0.485814661 0.762500000 0.971875000
v 0.485814661 0.762500000 0.900000000
v 0.485814661 0.675000000 0.900000000
v 0.485814661 0.675000000 0.971875000
v 0.764185339 0.675000000 0.971875000
v 0.764185339 0.675000000 0.900000000
v 0.764185339 0.762500000 0.900000000
v 0.764185339 0.762500000 0.971875000
v 0.400570384 0.762500000 1.000000000
v 0.400570384 0.762500000 0.971875000
v 0.400570384 0.675000000 0.971875000
v 0.400570384 0.675000000 1.000000000
v 0.849429616 0.675000000 1.000000000
v 0.849429616 0.675000000 0.971875000
v 0.849429616 0.762500000 0.971875000
v 0.849429616 0.762500000 1.000000000
vt 0 0
vt 1 0
vt 1 1
vt 0 1
vn -1.000000000 -0.000000000 0.000000000
vn 0.000000000 -1.000000000 -0.000000000
vn -0.000000000 -0.000000000 -1.000000000
vn 0.000000000 0.000000000 1.000000000
vn -0.000000000 1.000000000 0.000000000
vn 1.000000000 0.000000000 -0.000000000
usemtl step_color_001
f 1/1/1 2/2/1 3/3/1 4/4/1
f 5/1/6 6/2/6 7/3/6 8/4/6
f 6/1/2 5/2/2 4/3/2 3/4/2
f 8/1/5 7/2/5 2/3/5 1/4/5
f 9/1/1 10/2/1 11/3/1 12/4/1
f 13/1/2 12/2/2 11/3/2 14/4/2
f 15/1/3 14/2/3 11/3/3 10/4/3
f 16/1/4 9/2/4 12/3/4 13/4/4
f 17/1/1 9/2/1 18/3/1 19/4/1
f 20/1/2 19/2/2 18/3/2 21/4/2
f 16/1/3 21/2/3 18/3/3 9/4/3
usemtl step_color_002
f 22/1/1 23/2/1 24/3/1 25/4/1
f 26/1/6 27/2/6 28/3/6 29/4/6
f 26/1/2 25/2/2 24/3/2 27/4/2
f 28/1/5 23/2/5 22/3/5 29/4/5
f 28/1/3 27/2/3 24/3/3 23/4/3
f 22/1/4 25/2/4 26/3/4 29/4/4
f 30/1/1 31/2/1 32/3/1 33/4/1
f 34/1/6 35/2/6 36/3/6 37/4/6
f 34/1/2 33/2/2 32/3/2 35/4/2
f 37/1/5 36/2/5 31/3/5 30/4/5
f 36/1/3 35/2/3 32/3/3 31/4/3
f 38/1/1 39/2/1 40/3/1 41/4/1
f 42/1/6 43/2/6 44/3/6 45/4/6
f 42/1/2 41/2/2 40/3/2 43/4/2
f 44/1/5 39/2/5 38/3/5 45/4/5
f 44/1/3 43/2/3 40/3/3 39/4/3
f 38/1/4 41/2/4 42/3/4 45/4/4
f 46/1/1 47/2/1 48/3/1 49/4/1
f 50/1/6 51/2/6 52/3/6 53/4/6
f 50/1/2 49/2/2 48/3/2 51/4/2
f 52/1/5 47/2/5 46/3/5 53/4/5
f 52/1/3 51/2/3 48/3/3 47/4/3
f 46/1/4 49/2/4 50/3/4 53/4/4
f 54/1/1 55/2/1 56/3/1 57/4/1
f 58/1/6 59/2/6 60/3/6 61/4/6
f 58/1/2 57/2/2 56/3/2 59/4/2
f 60/1/5 55/2/5 54/3/5 61/4/5
f 60/1/3 59/2/3 56/3/3 55/4/3
f 54/1/4 57/2/4 58/3/4 61/4/4
f 62/1/1 63/2/1 64/3/1 65/4/1
f 66/1/6 67/2/6 68/3/6 69/4/6
f 66/1/2 65/2/2 64/3/2 67/4/2
f 68/1/5 63/2/5 62/3/5 69/4/5
f 68/1/3 67/2/3 64/3/3 63/4/3
f 62/1/4 65/2/4 66/3/4 69/4/4
f 70/1/1 71/2/1 72/3/1 73/4/1
f 74/1/6 75/2/6 76/3/6 77/4/6
f 74/1/2 73/2/2 72/3/2 75/4/2
f 77/1/5 76/2/5 71/3/5 70/4/5
f 76/1/3 75/2/3 72/3/3 71/4/3
f 78/1/1 79/2/1 80/3/1 81/4/1
f 82/1/6 83/2/6 84/3/6 85/4/6
f 82/1/2 81/2/2 80/3/2 83/4/2
f 84/1/5 79/2/5 78/3/5 85/4/5
f 84/1/3 83/2/3 80/3/3 79/4/3
f 78/1/4 81/2/4 82/3/4 85/4/4
f 86/1/1 87/2/1 88/3/1 89/4/1
f 90/1/6 91/2/6 92/3/6 93/4/6
f 90/1/2 89/2/2 88/3/2 91/4/2
f 93/1/5 92/2/5 87/3/5 86/4/5
f 92/1/3 91/2/3 88/3/3 87/4/3
usemtl step_color_005
f 94/1/1 95/2/1 96/3/1 97/4/1
f 98/1/6 99/2/6 100/3/6 101/4/6
f 99/1/2 97/2/2 96/3/2 100/4/2
f 101/1/3 100/2/3 96/3/3 95/4/3
f 94/1/4 97/2/4 99/3/4 98/4/4
f 102/1/1 94/2/1 103/3/1 104/4/1
f 105/1/6 106/2/6 107/3/6 98/4/6
f 106/1/2 104/2/2 103/3/2 107/4/2
f 98/1/3 107/2/3 103/3/3 94/4/3
f 102/1/4 104/2/4 106/3/4 105/4/4
f 108/1/1 102/2/1 109/3/1 110/4/1
f 111/1/6 112/2/6 113/3/6 105/4/6
f 112/1/2 110/2/2 109/3/2 113/4/2
f 105/1/3 113/2/3 109/3/3 102/4/3
f 114/1/1 115/2/1 116/3/1 117/4/1
f 118/1/6 119/2/6 120/3/6 121/4/6
f 119/1/2 117/2/2 116/3/2 120/4/2
f 121/1/3 120/2/3 116/3/3 115/4/3
f 122/1/6 123/2/6 124/3/6 125/4/6
f 123/1/2 126/2/2 127/3/2 124/4/2
f 128/1/3 125/2/3 124/3/3 127/4/3
f 129/1/6 130/2/6 131/3/6 132/4/6
f 132/1/2 131/2/2 133/3/2 134/4/2
f 135/1/4 133/2/4 131/3/4 130/4/4
f 136/1/6 137/2/6 138/3/6 130/4/6
f 137/1/2 139/2/2 140/3/2 138/4/2
f 135/1/3 130/2/3 138/3/3 140/4/3
f 141/1/4 139/2/4 137/3/4 136/4/4
f 142/1/6 143/2/6 137/3/6 136/4/6
f 143/1/2 144/2/2 139/3/2 137/4/2
f 141/1/3 136/2/3 137/3/3 139/4/3
f 145/1/4 144/2/4 143/3/4 142/4/4
f 146/1/6 147/2/6 148/3/6 142/4/6
f 147/1/2 149/2/2 150/3/2 148/4/2
f 145/1/3 142/2/3 148/3/3 150/4/3
f 151/1/4 149/2/4 147/3/4 146/4/4
f 152/1/6 153/2/6 154/3/6 146/4/6
f 153/1/2 155/2/2 156/3/2 154/4/2
f 151/1/3 146/2/3 154/3/3 156/4/3
f 157/1/2 158/2/2 159/3/2 160/4/2
f 161/1/5 162/2/5 163/3/5 164/4/5
f 165/1/1 166/2/1 167/3/1 168/4/1
f 169/1/6 170/2/6 171/3/6 172/4/6
f 170/1/2 168/2/2 167/3/2 171/4/2
f 172/1/3 171/2/3 167/3/3 166/4/3
f 165/1/4 168/2/4 170/3/4 169/4/4
usemtl step_color_006
f 173/1/1 174/2/1 175/3/1 176/4/1
f 177/1/6 178/2/6 179/3/6 180/4/6
f 177/1/2 176/2/2 175/3/2 178/4/2
f 179/1/5 174/2/5 173/3/5 180/4/5
f 179/1/3 178/2/3 175/3/3 174/4/3
f 173/1/4 176/2/4 177/3/4 180/4/4
f 181/1/1 182/2/1 183/3/1 184/4/1
f 185/1/6 186/2/6 187/3/6 188/4/6
f 185/1/2 184/2/2 183/3/2 186/4/2
f 188/1/5 187/2/5 182/3/5 181/4/5
f 187/1/3 186/2/3 183/3/3 182/4/3
