# Generated by tools-import-turbines.py; estimated STEP scale.
mtllib materials.mtl
s off
v 0.602778489 0.391250000 0.181250000
v 0.602778489 0.391250000 0.137500000
v 0.602778489 0.383750000 0.137500000
v 0.602778489 0.383750000 0.181250000
v 0.772221511 0.383750000 0.181250000
v 0.772221511 0.383750000 0.137500000
v 0.772221511 0.391250000 0.137500000
v 0.772221511 0.391250000 0.181250000
v 0.550890669 0.391250000 0.225000000
v 0.550890669 0.391250000 0.181250000
v 0.550890669 0.383750000 0.181250000
v 0.550890669 0.383750000 0.225000000
v 0.824109331 0.383750000 0.225000000
v 0.824109331 0.383750000 0.181250000
v 0.824109331 0.391250000 0.181250000
v 0.824109331 0.391250000 0.225000000
v 0.525270658 0.391250000 0.268750000
v 0.525270658 0.391250000 0.225000000
v 0.525270658 0.383750000 0.225000000
v 0.525270658 0.383750000 0.268750000
v 0.849729342 0.383750000 0.268750000
v 0.849729342 0.383750000 0.225000000
v 0.849729342 0.391250000 0.225000000
v 0.849729342 0.391250000 0.268750000
v 0.513872570 0.391250000 0.312500000
v 0.513872570 0.391250000 0.268750000
v 0.513872570 0.383750000 0.268750000
v 0.513872570 0.383750000 0.312500000
v 0.861127430 0.383750000 0.312500000
v 0.861127430 0.383750000 0.268750000
v 0.861127430 0.391250000 0.268750000
v 0.861127430 0.391250000 0.312500000
v 0.513872570 0.391250000 0.356250000
v 0.513872570 0.383750000 0.356250000
v 0.861127430 0.383750000 0.356250000
v 0.861127430 0.391250000 0.356250000
v 0.525270658 0.391250000 0.400000000
v 0.525270658 0.391250000 0.356250000
v 0.525270658 0.383750000 0.356250000
v 0.525270658 0.383750000 0.400000000
v 0.849729342 0.383750000 0.400000000
v 0.849729342 0.383750000 0.356250000
v 0.849729342 0.391250000 0.356250000
v 0.849729342 0.391250000 0.400000000
v 0.550890669 0.391250000 0.443750000
v 0.550890669 0.391250000 0.400000000
v 0.550890669 0.383750000 0.400000000
v 0.550890669 0.383750000 0.443750000
v 0.824109331 0.383750000 0.443750000
v 0.824109331 0.383750000 0.400000000
v 0.824109331 0.391250000 0.400000000
v 0.824109331 0.391250000 0.443750000
v 0.602778489 0.391250000 0.487500000
v 0.602778489 0.391250000 0.443750000
v 0.602778489 0.383750000 0.443750000
v 0.602778489 0.383750000 0.487500000
v 0.772221511 0.383750000 0.487500000
v 0.772221511 0.383750000 0.443750000
v 0.772221511 0.391250000 0.443750000
v 0.772221511 0.391250000 0.487500000
v 0.189062500 0.000000000 0.829687500
v 0.189062500 0.968750000 0.829687500
v 0.189062500 0.968750000 0.795312500
v 0.189062500 0.000000000 0.795312500
v 0.223437500 0.000000000 0.829687500
v 0.223437500 0.000000000 0.795312500
v 0.223437500 0.968750000 0.795312500
v 0.223437500 0.968750000 0.829687500
v 0.920312500 0.448437500 0.329687500
v 0.920312500 0.448437500 0.295312500
v 0.920312500 0.414062500 0.295312500
v 0.920312500 0.414062500 0.329687500
v 0.954687500 0.414062500 0.329687500
v 0.954687500 0.414062500 0.295312500
v 0.954687500 0.448437500 0.295312500
v 0.954687500 0.448437500 0.329687500
v 0.795312500 0.448437500 0.546193851
v 0.795312500 0.448437500 0.511818851
v 0.795312500 0.414062500 0.511818851
v 0.795312500 0.414062500 0.546193851
v 0.829687500 0.414062500 0.546193851
v 0.829687500 0.414062500 0.511818851
v 0.829687500 0.448437500 0.511818851
v 0.829687500 0.448437500 0.546193851
v 0.545312500 0.448437500 0.546193851
v 0.545312500 0.448437500 0.511818851
v 0.545312500 0.414062500 0.511818851
v 0.545312500 0.414062500 0.546193851
v 0.579687500 0.414062500 0.546193851
v 0.579687500 0.414062500 0.511818851
v 0.579687500 0.448437500 0.511818851
v 0.579687500 0.448437500 0.546193851
v 0.420312500 0.448437500 0.329687500
v 0.420312500 0.448437500 0.295312500
v 0.420312500 0.414062500 0.295312500
v 0.420312500 0.414062500 0.329687500
v 0.454687500 0.414062500 0.329687500
v 0.454687500 0.414062500 0.295312500
v 0.454687500 0.448437500 0.295312500
v 0.454687500 0.448437500 0.329687500
v 0.545312500 0.448437500 0.113181149
v 0.545312500 0.448437500 0.078806149
v 0.545312500 0.414062500 0.078806149
v 0.545312500 0.414062500 0.113181149
v 0.579687500 0.414062500 0.113181149
v 0.579687500 0.414062500 0.078806149
v 0.579687500 0.448437500 0.078806149
v 0.579687500 0.448437500 0.113181149
v 0.795312500 0.448437500 0.113181149
v 0.795312500 0.448437500 0.078806149
v 0.795312500 0.414062500 0.078806149
v 0.795312500 0.414062500 0.113181149
v 0.829687500 0.414062500 0.113181149
v 0.829687500 0.414062500 0.078806149
v 0.829687500 0.448437500 0.078806149
v 0.829687500 0.448437500 0.113181149
v 0.153601346 1.000000000 0.415625000
v 0.000000000 0.967351026 0.415625000
v 0.000000000 0.967351026 0.334375000
v 0.153601346 1.000000000 0.334375000
v 0.000000000 1.000000000 0.334375000
v 0.000000000 1.000000000 0.415625000
v 0.581598112 0.000000000 0.148437500
v 0.581598112 0.343750000 0.148437500
v 0.581598112 0.343750000 0.093750000
v 0.581598112 0.000000000 0.093750000
v 0.793401888 0.000000000 0.148437500
v 0.793401888 0.000000000 0.093750000
v 0.793401888 0.343750000 0.093750000
v 0.793401888 0.343750000 0.148437500
v 0.516738336 0.000000000 0.203125000
v 0.516738336 0.343750000 0.203125000
v 0.516738336 0.343750000 0.148437500
v 0.516738336 0.000000000 0.148437500
v 0.858261664 0.000000000 0.203125000
v 0.858261664 0.000000000 0.148437500
v 0.858261664 0.343750000 0.148437500
v 0.858261664 0.343750000 0.203125000
v 0.484713323 0.000000000 0.257812500
v 0.484713323 0.343750000 0.257812500
v 0.484713323 0.343750000 0.203125000
v 0.484713323 0.000000000 0.203125000
v 0.890286677 0.000000000 0.257812500
v 0.890286677 0.000000000 0.203125000
v 0.890286677 0.343750000 0.203125000
v 0.890286677 0.343750000 0.257812500
v 0.470465713 0.000000000 0.312500000
v 0.470465713 0.343750000 0.312500000
v 0.470465713 0.343750000 0.257812500
v 0.470465713 0.000000000 0.257812500
v 0.904534287 0.000000000 0.312500000
v 0.904534287 0.000000000 0.257812500
v 0.904534287 0.343750000 0.257812500
v 0.904534287 0.343750000 0.312500000
v 0.470465713 0.000000000 0.367187500
v 0.470465713 0.343750000 0.367187500
v 0.904534287 0.000000000 0.367187500
v 0.904534287 0.343750000 0.367187500
v 0.484713323 0.000000000 0.421875000
v 0.484713323 0.343750000 0.421875000
v 0.484713323 0.343750000 0.367187500
v 0.484713323 0.000000000 0.367187500
v 0.890286677 0.000000000 0.421875000
v 0.890286677 0.000000000 0.367187500
v 0.890286677 0.343750000 0.367187500
v 0.890286677 0.343750000 0.421875000
v 0.516738336 0.000000000 0.476562500
v 0.516738336 0.343750000 0.476562500
v 0.516738336 0.343750000 0.421875000
v 0.516738336 0.000000000 0.421875000
v 0.858261664 0.000000000 0.476562500
v 0.858261664 0.000000000 0.421875000
v 0.858261664 0.343750000 0.421875000
v 0.858261664 0.343750000 0.476562500
v 0.581598112 0.000000000 0.531250000
v 0.581598112 0.343750000 0.531250000
v 0.581598112 0.343750000 0.476562500
v 0.581598112 0.000000000 0.476562500
v 0.793401888 0.000000000 0.531250000
v 0.793401888 0.000000000 0.476562500
v 0.793401888 0.343750000 0.476562500
v 0.793401888 0.343750000 0.531250000
v 0.406250000 0.000000000 0.140625000
v 0.406250000 0.018339758 0.140625000
v 0.406250000 0.018339758 0.054687500
v 0.406250000 0.000000000 0.054687500
v 0.968750000 0.000000000 0.140625000
v 0.968750000 0.000000000 0.054687500
v 0.968750000 0.018339758 0.054687500
v 0.968750000 0.018339758 0.140625000
v 0.406250000 0.000000000 0.226562500
v 0.406250000 0.068664779 0.226562500
v 0.406250000 0.068664779 0.140625000
v 0.968750000 0.000000000 0.226562500
v 0.968750000 0.068664779 0.140625000
v 0.968750000 0.068664779 0.226562500
v 0.406250000 0.000000000 0.312500000
v 0.406250000 0.091053880 0.312500000
v 0.406250000 0.091053880 0.226562500
v 0.968750000 0.000000000 0.312500000
v 0.968750000 0.091053880 0.226562500
v 0.968750000 0.091053880 0.312500000
v 0.406250000 0.000000000 0.398437500
v 0.406250000 0.091053880 0.398437500
v 0.968750000 0.000000000 0.398437500
v 0.968750000 0.091053880 0.398437500
v 0.406250000 0.000000000 0.484375000
v 0.406250000 0.068664779 0.484375000
v 0.406250000 0.068664779 0.398437500
v 0.968750000 0.000000000 0.484375000
v 0.968750000 0.068664779 0.398437500
v 0.968750000 0.068664779 0.484375000
v 0.406250000 0.000000000 0.570312500
v 0.406250000 0.018339758 0.570312500
v 0.406250000 0.018339758 0.484375000
v 0.968750000 0.000000000 0.570312500
v 0.968750000 0.018339758 0.484375000
v 0.968750000 0.018339758 0.570312500
v 0.312500000 0.000000000 0.003125000
v 0.312500000 0.000000000 0.000000000
v 0.312500000 0.012200704 0.000000000
v 0.312500000 0.012200704 0.003125000
v 0.000000000 0.012200704 0.000000000
v 0.000000000 0.012200704 0.003125000
v 0.000000000 0.000000000 0.003125000
v 0.312500000 0.000000000 0.106250000
v 0.312500000 0.134507709 0.003125000
v 0.312500000 0.134507709 0.106250000
v 0.000000000 0.134507709 0.003125000
v 0.000000000 0.134507709 0.106250000
v 0.000000000 0.000000000 0.106250000
v 0.312500000 0.000000000 0.209375000
v 0.312500000 0.194897734 0.106250000
v 0.312500000 0.194897734 0.209375000
v 0.000000000 0.194897734 0.106250000
v 0.000000000 0.194897734 0.209375000
v 0.000000000 0.000000000 0.209375000
v 0.312500000 0.000000000 0.312500000
v 0.312500000 0.221764656 0.209375000
v 0.312500000 0.221764656 0.312500000
v 0.000000000 0.221764656 0.209375000
v 0.000000000 0.221764656 0.312500000
v 0.000000000 0.000000000 0.312500000
v 0.312500000 0.000000000 0.415625000
v 0.312500000 0.221764656 0.415625000
v 0.000000000 0.221764656 0.415625000
v 0.000000000 0.000000000 0.415625000
v 0.312500000 0.000000000 0.518750000
v 0.312500000 0.194897734 0.415625000
v 0.312500000 0.194897734 0.518750000
v 0.000000000 0.194897734 0.415625000
v 0.000000000 0.194897734 0.518750000
v 0.000000000 0.000000000 0.518750000
v 0.312500000 0.000000000 0.621875000
v 0.312500000 0.134507709 0.518750000
v 0.312500000 0.134507709 0.621875000
v 0.000000000 0.134507709 0.518750000
v 0.000000000 0.134507709 0.621875000
v 0.000000000 0.000000000 0.621875000
v 0.312500000 0.000000000 0.725000000
v 0.312500000 0.012200704 0.621875000
v 0.312500000 0.012200704 0.725000000
v 0.000000000 0.012200704 0.621875000
v 0.000000000 0.012200704 0.725000000
v 0.000000000 0.000000000 0.725000000
v 0.062500000 0.337500000 0.375000000
v 0.062500000 0.337500000 0.125000000
v 0.062500000 0.412500000 0.125000000
v 0.062500000 0.412500000 0.375000000
v 0.000000000 0.337500000 0.375000000
v 0.000000000 0.337500000 0.125000000
v 0.000000000 0.412500000 0.125000000
v 0.000000000 0.412500000 0.375000000
v 0.037500000 1.000000000 0.300000000
v 0.037500000 0.250000000 0.300000000
v 0.037500000 0.250000000 0.200000000
v 0.037500000 1.000000000 0.200000000
v 0.000000000 0.250000000 0.300000000
v 0.000000000 0.250000000 0.200000000
v 0.000000000 1.000000000 0.200000000
v 0.000000000 1.000000000 0.300000000
v 0.003125000 0.250000000 0.346875000
v 0.003125000 0.250000000 0.278125000
v 0.003125000 0.312500000 0.278125000
v 0.003125000 0.312500000 0.346875000
v 0.000000000 0.250000000 0.346875000
v 0.000000000 0.250000000 0.278125000
v 0.000000000 0.312500000 0.278125000
v 0.000000000 0.312500000 0.346875000
v 0.903125000 0.418750000 0.346875000
v 0.903125000 0.418750000 0.278125000
v 0.903125000 0.356250000 0.278125000
v 0.903125000 0.356250000 0.346875000
v 0.971875000 0.356250000 0.346875000
v 0.971875000 0.356250000 0.278125000
v 0.971875000 0.418750000 0.278125000
v 0.971875000 0.418750000 0.346875000
v 0.869631351 0.418750000 0.471875000
v 0.869631351 0.418750000 0.403125000
v 0.869631351 0.356250000 0.403125000
v 0.869631351 0.356250000 0.471875000
v 0.938381351 0.356250000 0.471875000
v 0.938381351 0.356250000 0.403125000
v 0.938381351 0.418750000 0.403125000
v 0.938381351 0.418750000 0.471875000
v 0.778125000 0.418750000 0.563381351
v 0.778125000 0.418750000 0.494631351
v 0.778125000 0.356250000 0.494631351
v 0.778125000 0.356250000 0.563381351
v 0.846875000 0.356250000 0.563381351
v 0.846875000 0.356250000 0.494631351
v 0.846875000 0.418750000 0.494631351
v 0.846875000 0.418750000 0.563381351
v 0.653125000 0.418750000 0.596875000
v 0.653125000 0.418750000 0.528125000
v 0.653125000 0.356250000 0.528125000
v 0.653125000 0.356250000 0.596875000
v 0.721875000 0.356250000 0.596875000
v 0.721875000 0.356250000 0.528125000
v 0.721875000 0.418750000 0.528125000
v 0.721875000 0.418750000 0.596875000
v 0.528125000 0.418750000 0.563381351
v 0.528125000 0.418750000 0.494631351
v 0.528125000 0.356250000 0.494631351
v 0.528125000 0.356250000 0.563381351
v 0.596875000 0.356250000 0.563381351
v 0.596875000 0.356250000 0.494631351
v 0.596875000 0.418750000 0.494631351
v 0.596875000 0.418750000 0.563381351
v 0.436618649 0.418750000 0.471875000
v 0.436618649 0.418750000 0.403125000
v 0.436618649 0.356250000 0.403125000
v 0.436618649 0.356250000 0.471875000
v 0.505368649 0.356250000 0.471875000
v 0.505368649 0.356250000 0.403125000
v 0.505368649 0.418750000 0.403125000
v 0.505368649 0.418750000 0.471875000
v 0.403125000 0.418750000 0.346875000
v 0.403125000 0.418750000 0.278125000
v 0.403125000 0.356250000 0.278125000
v 0.403125000 0.356250000 0.346875000
v 0.471875000 0.356250000 0.346875000
v 0.471875000 0.356250000 0.278125000
v 0.471875000 0.418750000 0.278125000
v 0.471875000 0.418750000 0.346875000
v 0.436618649 0.418750000 0.221875000
v 0.436618649 0.418750000 0.153125000
v 0.436618649 0.356250000 0.153125000
v 0.436618649 0.356250000 0.221875000
v 0.505368649 0.356250000 0.221875000
v 0.505368649 0.356250000 0.153125000
v 0.505368649 0.418750000 0.153125000
v 0.505368649 0.418750000 0.221875000
v 0.528125000 0.418750000 0.130368649
v 0.528125000 0.418750000 0.061618649
v 0.528125000 0.356250000 0.061618649
v 0.528125000 0.356250000 0.130368649
v 0.596875000 0.356250000 0.130368649
v 0.596875000 0.356250000 0.061618649
v 0.596875000 0.418750000 0.061618649
v 0.596875000 0.418750000 0.130368649
v 0.653125000 0.418750000 0.096875000
v 0.653125000 0.418750000 0.028125000
v 0.653125000 0.356250000 0.028125000
v 0.653125000 0.356250000 0.096875000
v 0.721875000 0.356250000 0.096875000
v 0.721875000 0.356250000 0.028125000
v 0.721875000 0.418750000 0.028125000
v 0.721875000 0.418750000 0.096875000
v 0.778125000 0.418750000 0.130368649
v 0.778125000 0.418750000 0.061618649
v 0.778125000 0.356250000 0.061618649
v 0.778125000 0.356250000 0.130368649
v 0.846875000 0.356250000 0.130368649
v 0.846875000 0.356250000 0.061618649
v 0.846875000 0.418750000 0.061618649
v 0.846875000 0.418750000 0.130368649
v 0.869631351 0.418750000 0.221875000
v 0.869631351 0.418750000 0.153125000
v 0.869631351 0.356250000 0.153125000
v 0.869631351 0.356250000 0.221875000
v 0.938381351 0.356250000 0.221875000
v 0.938381351 0.356250000 0.153125000
v 0.938381351 0.418750000 0.153125000
v 0.938381351 0.418750000 0.221875000
v 0.548314661 0.381250000 0.096875000
v 0.548314661 0.381250000 0.025000000
v 0.548314661 0.306250000 0.025000000
v 0.548314661 0.306250000 0.096875000
v 0.826685339 0.306250000 0.096875000
v 0.826685339 0.306250000 0.025000000
v 0.826685339 0.381250000 0.025000000
v 0.826685339 0.381250000 0.096875000
v 0.463070384 0.381250000 0.168750000
v 0.463070384 0.381250000 0.096875000
v 0.463070384 0.306250000 0.096875000
v 0.463070384 0.306250000 0.168750000
v 0.911929616 0.306250000 0.168750000
v 0.911929616 0.306250000 0.096875000
v 0.911929616 0.381250000 0.096875000
v 0.911929616 0.381250000 0.168750000
v 0.420980367 0.381250000 0.240625000
v 0.420980367 0.381250000 0.168750000
v 0.420980367 0.306250000 0.168750000
v 0.420980367 0.306250000 0.240625000
v 0.954019633 0.306250000 0.240625000
v 0.954019633 0.306250000 0.168750000
v 0.954019633 0.381250000 0.168750000
v 0.954019633 0.381250000 0.240625000
v 0.402254937 0.381250000 0.312500000
v 0.402254937 0.381250000 0.240625000
v 0.402254937 0.306250000 0.240625000
v 0.402254937 0.306250000 0.312500000
v 0.972745063 0.306250000 0.312500000
v 0.972745063 0.306250000 0.240625000
v 0.972745063 0.381250000 0.240625000
v 0.972745063 0.381250000 0.312500000
v 0.402254937 0.381250000 0.384375000
v 0.402254937 0.306250000 0.384375000
v 0.972745063 0.306250000 0.384375000
v 0.972745063 0.381250000 0.384375000
v 0.420980367 0.381250000 0.456250000
v 0.420980367 0.381250000 0.384375000
v 0.420980367 0.306250000 0.384375000
v 0.420980367 0.306250000 0.456250000
v 0.954019633 0.306250000 0.456250000
v 0.954019633 0.306250000 0.384375000
v 0.954019633 0.381250000 0.384375000
v 0.954019633 0.381250000 0.456250000
v 0.463070384 0.381250000 0.528125000
v 0.463070384 0.381250000 0.456250000
v 0.463070384 0.306250000 0.456250000
v 0.463070384 0.306250000 0.528125000
v 0.911929616 0.306250000 0.528125000
v 0.911929616 0.306250000 0.456250000
v 0.911929616 0.381250000 0.456250000
v 0.911929616 0.381250000 0.528125000
v 0.548314661 0.381250000 0.600000000
v 0.548314661 0.381250000 0.528125000
v 0.548314661 0.306250000 0.528125000
v 0.548314661 0.306250000 0.600000000
v 0.826685339 0.306250000 0.600000000
v 0.826685339 0.306250000 0.528125000
v 0.826685339 0.381250000 0.528125000
v 0.826685339 0.381250000 0.600000000
v 0.597500000 0.253750000 0.402500000
v 0.597500000 1.000000000 0.402500000
v 0.597500000 1.000000000 0.222500000
v 0.597500000 0.253750000 0.222500000
v 0.777500000 0.253750000 0.222500000
v 0.777500000 1.000000000 0.222500000
v 0.777500000 1.000000000 0.402500000
v 0.777500000 0.253750000 0.402500000
vt 0 0
vt 1 0
vt 1 1
vt 0 1
vn -1.000000000 -0.000000000 0.000000000
vn 0.000000000 -1.000000000 -0.000000000
vn -0.000000000 -0.000000000 -1.000000000
vn 0.000000000 0.000000000 1.000000000
vn -0.000000000 1.000000000 0.000000000
vn 0.207911691 -0.978147601 -0.000000000
vn 1.000000000 0.000000000 -0.000000000
usemtl step_color_000
f 1/1/1 2/2/1 3/3/1 4/4/1
f 5/1/7 6/2/7 7/3/7 8/4/7
f 5/1/2 4/2/2 3/3/2 6/4/2
f 7/1/5 2/2/5 1/3/5 8/4/5
f 7/1/3 6/2/3 3/3/3 2/4/3
f 1/1/4 4/2/4 5/3/4 8/4/4
f 9/1/1 10/2/1 11/3/1 12/4/1
f 13/1/7 14/2/7 15/3/7 16/4/7
f 13/1/2 12/2/2 11/3/2 14/4/2
f 15/1/5 10/2/5 9/3/5 16/4/5
f 15/1/3 14/2/3 11/3/3 10/4/3
f 9/1/4 12/2/4 13/3/4 16/4/4
f 17/1/1 18/2/1 19/3/1 20/4/1
f 21/1/7 22/2/7 23/3/7 24/4/7
f 21/1/2 20/2/2 19/3/2 22/4/2
f 23/1/5 18/2/5 17/3/5 24/4/5
f 23/1/3 22/2/3 19/3/3 18/4/3
f 17/1/4 20/2/4 21/3/4 24/4/4
f 25/1/1 26/2/1 27/3/1 28/4/1
f 29/1/7 30/2/7 31/3/7 32/4/7
f 29/1/2 28/2/2 27/3/2 30/4/2
f 31/1/5 26/2/5 25/3/5 32/4/5
f 31/1/3 30/2/3 27/3/3 26/4/3
f 25/1/4 28/2/4 29/3/4 32/4/4
f 33/1/1 25/2/1 28/3/1 34/4/1
f 35/1/7 29/2/7 32/3/7 36/4/7
f 35/1/2 34/2/2 28/3/2 29/4/2
f 32/1/5 25/2/5 33/3/5 36/4/5
f 32/1/3 29/2/3 28/3/3 25/4/3
f 33/1/4 34/2/4 35/3/4 36/4/4
f 37/1/1 38/2/1 39/3/1 40/4/1
f 41/1/7 42/2/7 43/3/7 44/4/7
f 41/1/2 40/2/2 39/3/2 42/4/2
f 43/1/5 38/2/5 37/3/5 44/4/5
f 43/1/3 42/2/3 39/3/3 38/4/3
f 37/1/4 40/2/4 41/3/4 44/4/4
f 45/1/1 46/2/1 47/3/1 48/4/1
f 49/1/7 50/2/7 51/3/7 52/4/7
f 49/1/2 48/2/2 47/3/2 50/4/2
f 51/1/5 46/2/5 45/3/5 52/4/5
f 51/1/3 50/2/3 47/3/3 46/4/3
f 45/1/4 48/2/4 49/3/4 52/4/4
f 53/1/1 54/2/1 55/3/1 56/4/1
f 57/1/7 58/2/7 59/3/7 60/4/7
f 57/1/2 56/2/2 55/3/2 58/4/2
f 59/1/5 54/2/5 53/3/5 60/4/5
f 59/1/3 58/2/3 55/3/3 54/4/3
f 53/1/4 56/2/4 57/3/4 60/4/4
usemtl step_color_002
f 61/1/1 62/2/1 63/3/1 64/4/1
f 65/1/7 66/2/7 67/3/7 68/4/7
f 67/1/5 63/2/5 62/3/5 68/4/5
f 67/1/3 66/2/3 64/3/3 63/4/3
f 62/1/4 61/2/4 65/3/4 68/4/4
f 69/1/1 70/2/1 71/3/1 72/4/1
f 73/1/7 74/2/7 75/3/7 76/4/7
f 73/1/2 72/2/2 71/3/2 74/4/2
f 75/1/5 70/2/5 69/3/5 76/4/5
f 75/1/3 74/2/3 71/3/3 70/4/3
f 69/1/4 72/2/4 73/3/4 76/4/4
f 77/1/1 78/2/1 79/3/1 80/4/1
f 81/1/7 82/2/7 83/3/7 84/4/7
f 81/1/2 80/2/2 79/3/2 82/4/2
f 83/1/5 78/2/5 77/3/5 84/4/5
f 83/1/3 82/2/3 79/3/3 78/4/3
f 77/1/4 80/2/4 81/3/4 84/4/4
f 85/1/1 86/2/1 87/3/1 88/4/1
f 89/1/7 90/2/7 91/3/7 92/4/7
f 89/1/2 88/2/2 87/3/2 90/4/2
f 91/1/5 86/2/5 85/3/5 92/4/5
f 91/1/3 90/2/3 87/3/3 86/4/3
f 85/1/4 88/2/4 89/3/4 92/4/4
f 93/1/1 94/2/1 95/3/1 96/4/1
f 97/1/7 98/2/7 99/3/7 100/4/7
f 97/1/2 96/2/2 95/3/2 98/4/2
f 99/1/5 94/2/5 93/3/5 100/4/5
f 99/1/3 98/2/3 95/3/3 94/4/3
f 93/1/4 96/2/4 97/3/4 100/4/4
f 101/1/1 102/2/1 103/3/1 104/4/1
f 105/1/7 106/2/7 107/3/7 108/4/7
f 105/1/2 104/2/2 103/3/2 106/4/2
f 107/1/5 102/2/5 101/3/5 108/4/5
f 107/1/3 106/2/3 103/3/3 102/4/3
f 101/1/4 104/2/4 105/3/4 108/4/4
f 109/1/1 110/2/1 111/3/1 112/4/1
f 113/1/7 114/2/7 115/3/7 116/4/7
f 113/1/2 112/2/2 111/3/2 114/4/2
f 115/1/5 110/2/5 109/3/5 116/4/5
f 115/1/3 114/2/3 111/3/3 110/4/3
f 109/1/4 112/2/4 113/3/4 116/4/4
f 117/1/6 118/2/6 119/3/6 120/4/6
f 121/1/3 120/2/3 119/3/3
f 122/1/4 118/2/4 117/3/4
usemtl step_color_005
f 123/1/1 124/2/1 125/3/1 126/4/1
f 127/1/7 128/2/7 129/3/7 130/4/7
f 129/1/5 125/2/5 124/3/5 130/4/5
f 129/1/3 128/2/3 126/3/3 125/4/3
f 124/1/4 123/2/4 127/3/4 130/4/4
f 131/1/1 132/2/1 133/3/1 134/4/1
f 135/1/7 136/2/7 137/3/7 138/4/7
f 137/1/5 133/2/5 132/3/5 138/4/5
f 137/1/3 136/2/3 134/3/3 133/4/3
f 132/1/4 131/2/4 135/3/4 138/4/4
f 139/1/1 140/2/1 141/3/1 142/4/1
f 143/1/7 144/2/7 145/3/7 146/4/7
f 145/1/5 141/2/5 140/3/5 146/4/5
f 145/1/3 144/2/3 142/3/3 141/4/3
f 140/1/4 139/2/4 143/3/4 146/4/4
f 147/1/1 148/2/1 149/3/1 150/4/1
f 151/1/7 152/2/7 153/3/7 154/4/7
f 153/1/5 149/2/5 148/3/5 154/4/5
f 153/1/3 152/2/3 150/3/3 149/4/3
f 148/1/4 147/2/4 151/3/4 154/4/4
f 155/1/1 156/2/1 148/3/1 147/4/1
f 157/1/7 151/2/7 154/3/7 158/4/7
f 154/1/5 148/2/5 156/3/5 158/4/5
f 154/1/3 151/2/3 147/3/3 148/4/3
f 156/1/4 155/2/4 157/3/4 158/4/4
f 159/1/1 160/2/1 161/3/1 162/4/1
f 163/1/7 164/2/7 165/3/7 166/4/7
f 165/1/5 161/2/5 160/3/5 166/4/5
f 165/1/3 164/2/3 162/3/3 161/4/3
f 160/1/4 159/2/4 163/3/4 166/4/4
f 167/1/1 168/2/1 169/3/1 170/4/1
f 171/1/7 172/2/7 173/3/7 174/4/7
f 173/1/5 169/2/5 168/3/5 174/4/5
f 173/1/3 172/2/3 170/3/3 169/4/3
f 168/1/4 167/2/4 171/3/4 174/4/4
f 175/1/1 176/2/1 177/3/1 178/4/1
f 179/1/7 180/2/7 181/3/7 182/4/7
f 181/1/5 177/2/5 176/3/5 182/4/5
f 181/1/3 180/2/3 178/3/3 177/4/3
f 176/1/4 175/2/4 179/3/4 182/4/4
f 183/1/1 184/2/1 185/3/1 186/4/1
f 187/1/7 188/2/7 189/3/7 190/4/7
f 189/1/5 185/2/5 184/3/5 190/4/5
f 189/1/3 188/2/3 186/3/3 185/4/3
f 184/1/4 183/2/4 187/3/4 190/4/4
f 191/1/1 192/2/1 193/3/1 183/4/1
f 194/1/7 187/2/7 195/3/7 196/4/7
f 195/1/5 193/2/5 192/3/5 196/4/5
f 195/1/3 187/2/3 183/3/3 193/4/3
f 192/1/4 191/2/4 194/3/4 196/4/4
f 197/1/1 198/2/1 199/3/1 191/4/1
f 200/1/7 194/2/7 201/3/7 202/4/7
f 201/1/5 199/2/5 198/3/5 202/4/5
f 201/1/3 194/2/3 191/3/3 199/4/3
f 198/1/4 197/2/4 200/3/4 202/4/4
f 203/1/1 204/2/1 198/3/1 197/4/1
f 205/1/7 200/2/7 202/3/7 206/4/7
f 202/1/5 198/2/5 204/3/5 206/4/5
f 202/1/3 200/2/3 197/3/3 198/4/3
f 204/1/4 203/2/4 205/3/4 206/4/4
f 207/1/1 208/2/1 209/3/1 203/4/1
f 210/1/7 205/2/7 211/3/7 212/4/7
f 211/1/5 209/2/5 208/3/5 212/4/5
f 211/1/3 205/2/3 203/3/3 209/4/3
f 208/1/4 207/2/4 210/3/4 212/4/4
f 213/1/1 214/2/1 215/3/1 207/4/1
f 216/1/7 210/2/7 217/3/7 218/4/7
f 217/1/5 215/2/5 214/3/5 218/4/5
f 217/1/3 210/2/3 207/3/3 215/4/3
f 214/1/4 213/2/4 216/3/4 218/4/4
f 219/1/7 220/2/7 221/3/7 222/4/7
f 221/1/5 223/2/5 224/3/5 222/4/5
f 224/1/4 225/2/4 219/3/4 222/4/4
f 226/1/7 219/2/7 227/3/7 228/4/7
f 227/1/5 229/2/5 230/3/5 228/4/5
f 225/1/3 229/2/3 227/3/3 219/4/3
f 230/1/4 231/2/4 226/3/4 228/4/4
f 232/1/7 226/2/7 233/3/7 234/4/7
f 233/1/5 235/2/5 236/3/5 234/4/5
f 231/1/3 235/2/3 233/3/3 226/4/3
f 236/1/4 237/2/4 232/3/4 234/4/4
f 238/1/7 232/2/7 239/3/7 240/4/7
f 239/1/5 241/2/5 242/3/5 240/4/5
f 237/1/3 241/2/3 239/3/3 232/4/3
f 242/1/4 243/2/4 238/3/4 240/4/4
f 244/1/7 238/2/7 240/3/7 245/4/7
f 240/1/5 242/2/5 246/3/5 245/4/5
f 243/1/3 242/2/3 240/3/3 238/4/3
f 246/1/4 247/2/4 244/3/4 245/4/4
f 248/1/7 244/2/7 249/3/7 250/4/7
f 249/1/5 251/2/5 252/3/5 250/4/5
f 247/1/3 251/2/3 249/3/3 244/4/3
f 252/1/4 253/2/4 248/3/4 250/4/4
f 254/1/7 248/2/7 255/3/7 256/4/7
f 255/1/5 257/2/5 258/3/5 256/4/5
f 253/1/3 257/2/3 255/3/3 248/4/3
f 258/1/4 259/2/4 254/3/4 256/4/4
f 260/1/7 254/2/7 261/3/7 262/4/7
f 261/1/5 263/2/5 264/3/5 262/4/5
f 259/1/3 263/2/3 261/3/3 254/4/3
f 264/1/4 265/2/4 260/3/4 262/4/4
f 266/1/7 267/2/7 268/3/7 269/4/7
f 266/1/2 270/2/2 271/3/2 267/4/2
f 268/1/5 272/2/5 273/3/5 269/4/5
f 272/1/3 268/2/3 267/3/3 271/4/3
f 273/1/4 270/2/4 266/3/4 269/4/4
f 274/1/7 275/2/7 276/3/7 277/4/7
f 275/1/2 278/2/2 279/3/2 276/4/2
f 280/1/3 277/2/3 276/3/3 279/4/3
f 281/1/4 278/2/4 275/3/4 274/4/4
usemtl step_color_006
f 282/1/7 283/2/7 284/3/7 285/4/7
f 282/1/2 286/2/2 287/3/2 283/4/2
f 284/1/5 288/2/5 289/3/5 285/4/5
f 288/1/3 284/2/3 283/3/3 287/4/3
f 289/1/4 286/2/4 282/3/4 285/4/4
f 290/1/1 291/2/1 292/3/1 293/4/1
f 294/1/7 295/2/7 296/3/7 297/4/7
f 294/1/2 293/2/2 292/3/2 295/4/2
f 296/1/5 291/2/5 290/3/5 297/4/5
f 296/1/3 295/2/3 292/3/3 291/4/3
f 290/1/4 293/2/4 294/3/4 297/4/4
f 298/1/1 299/2/1 300/3/1 301/4/1
f 302/1/7 303/2/7 304/3/7 305/4/7
f 302/1/2 301/2/2 300/3/2 303/4/2
f 304/1/5 299/2/5 298/3/5 305/4/5
f 304/1/3 303/2/3 300/3/3 299/4/3
f 298/1/4 301/2/4 302/3/4 305/4/4
f 306/1/1 307/2/1 308/3/1 309/4/1
f 310/1/7 311/2/7 312/3/7 313/4/7
f 310/1/2 309/2/2 308/3/2 311/4/2
f 312/1/5 307/2/5 306/3/5 313/4/5
f 312/1/3 311/2/3 308/3/3 307/4/3
f 306/1/4 309/2/4 310/3/4 313/4/4
f 314/1/1 315/2/1 316/3/1 317/4/1
f 318/1/7 319/2/7 320/3/7 321/4/7
f 318/1/2 317/2/2 316/3/2 319/4/2
f 320/1/5 315/2/5 314/3/5 321/4/5
f 320/1/3 319/2/3 316/3/3 315/4/3
f 314/1/4 317/2/4 318/3/4 321/4/4
f 322/1/1 323/2/1 324/3/1 325/4/1
f 326/1/7 327/2/7 328/3/7 329/4/7
f 326/1/2 325/2/2 324/3/2 327/4/2
f 328/1/5 323/2/5 322/3/5 329/4/5
f 328/1/3 327/2/3 324/3/3 323/4/3
f 322/1/4 325/2/4 326/3/4 329/4/4
f 330/1/1 331/2/1 332/3/1 333/4/1
f 334/1/7 335/2/7 336/3/7 337/4/7
f 334/1/2 333/2/2 332/3/2 335/4/2
f 336/1/5 331/2/5 330/3/5 337/4/5
f 336/1/3 335/2/3 332/3/3 331/4/3
f 330/1/4 333/2/4 334/3/4 337/4/4
f 338/1/1 339/2/1 340/3/1 341/4/1
f 342/1/7 343/2/7 344/3/7 345/4/7
f 342/1/2 341/2/2 340/3/2 343/4/2
f 344/1/5 339/2/5 338/3/5 345/4/5
f 344/1/3 343/2/3 340/3/3 339/4/3
f 338/1/4 341/2/4 342/3/4 345/4/4
f 346/1/1 347/2/1 348/3/1 349/4/1
f 350/1/7 351/2/7 352/3/7 353/4/7
f 350/1/2 349/2/2 348/3/2 351/4/2
f 352/1/5 347/2/5 346/3/5 353/4/5
f 352/1/3 351/2/3 348/3/3 347/4/3
f 346/1/4 349/2/4 350/3/4 353/4/4
f 354/1/1 355/2/1 356/3/1 357/4/1
f 358/1/7 359/2/7 360/3/7 361/4/7
f 358/1/2 357/2/2 356/3/2 359/4/2
f 360/1/5 355/2/5 354/3/5 361/4/5
f 360/1/3 359/2/3 356/3/3 355/4/3
f 354/1/4 357/2/4 358/3/4 361/4/4
f 362/1/1 363/2/1 364/3/1 365/4/1
f 366/1/7 367/2/7 368/3/7 369/4/7
f 366/1/2 365/2/2 364/3/2 367/4/2
f 368/1/5 363/2/5 362/3/5 369/4/5
f 368/1/3 367/2/3 364/3/3 363/4/3
f 362/1/4 365/2/4 366/3/4 369/4/4
f 370/1/1 371/2/1 372/3/1 373/4/1
f 374/1/7 375/2/7 376/3/7 377/4/7
f 374/1/2 373/2/2 372/3/2 375/4/2
f 376/1/5 371/2/5 370/3/5 377/4/5
f 376/1/3 375/2/3 372/3/3 371/4/3
f 370/1/4 373/2/4 374/3/4 377/4/4
f 378/1/1 379/2/1 380/3/1 381/4/1
f 382/1/7 383/2/7 384/3/7 385/4/7
f 382/1/2 381/2/2 380/3/2 383/4/2
f 384/1/5 379/2/5 378/3/5 385/4/5
f 384/1/3 383/2/3 380/3/3 379/4/3
f 378/1/4 381/2/4 382/3/4 385/4/4
f 386/1/1 387/2/1 388/3/1 389/4/1
f 390/1/7 391/2/7 392/3/7 393/4/7
f 390/1/2 389/2/2 388/3/2 391/4/2
f 392/1/5 387/2/5 386/3/5 393/4/5
f 392/1/3 391/2/3 388/3/3 387/4/3
f 386/1/4 389/2/4 390/3/4 393/4/4
f 394/1/1 395/2/1 396/3/1 397/4/1
f 398/1/7 399/2/7 400/3/7 401/4/7
f 398/1/2 397/2/2 396/3/2 399/4/2
f 400/1/5 395/2/5 394/3/5 401/4/5
f 400/1/3 399/2/3 396/3/3 395/4/3
f 394/1/4 397/2/4 398/3/4 401/4/4
f 402/1/1 403/2/1 404/3/1 405/4/1
f 406/1/7 407/2/7 408/3/7 409/4/7
f 406/1/2 405/2/2 404/3/2 407/4/2
f 408/1/5 403/2/5 402/3/5 409/4/5
f 408/1/3 407/2/3 404/3/3 403/4/3
f 402/1/4 405/2/4 406/3/4 409/4/4
f 410/1/1 411/2/1 412/3/1 413/4/1
f 414/1/7 415/2/7 416/3/7 417/4/7
f 414/1/2 413/2/2 412/3/2 415/4/2
f 416/1/5 411/2/5 410/3/5 417/4/5
f 416/1/3 415/2/3 412/3/3 411/4/3
f 410/1/4 413/2/4 414/3/4 417/4/4
f 418/1/1 410/2/1 413/3/1 419/4/1
f 420/1/7 414/2/7 417/3/7 421/4/7
f 420/1/2 419/2/2 413/3/2 414/4/2
f 417/1/5 410/2/5 418/3/5 421/4/5
f 417/1/3 414/2/3 413/3/3 410/4/3
f 418/1/4 419/2/4 420/3/4 421/4/4
f 422/1/1 423/2/1 424/3/1 425/4/1
f 426/1/7 427/2/7 428/3/7 429/4/7
f 426/1/2 425/2/2 424/3/2 427/4/2
f 428/1/5 423/2/5 422/3/5 429/4/5
f 428/1/3 427/2/3 424/3/3 423/4/3
f 422/1/4 425/2/4 426/3/4 429/4/4
f 430/1/1 431/2/1 432/3/1 433/4/1
f 434/1/7 435/2/7 436/3/7 437/4/7
f 434/1/2 433/2/2 432/3/2 435/4/2
f 436/1/5 431/2/5 430/3/5 437/4/5
f 436/1/3 435/2/3 432/3/3 431/4/3
f 430/1/4 433/2/4 434/3/4 437/4/4
f 438/1/1 439/2/1 440/3/1 441/4/1
f 442/1/7 443/2/7 444/3/7 445/4/7
f 442/1/2 441/2/2 440/3/2 443/4/2
f 444/1/5 439/2/5 438/3/5 445/4/5
f 444/1/3 443/2/3 440/3/3 439/4/3
f 438/1/4 441/2/4 442/3/4 445/4/4
f 446/1/1 447/2/1 448/3/1 449/4/1
f 450/1/7 451/2/7 452/3/7 453/4/7
f 449/1/2 450/2/2 453/3/2 446/4/2
f 448/1/3 451/2/3 450/3/3 449/4/3
f 447/1/4 446/2/4 453/3/4 452/4/4
