# Generated by tools-import-turbines.py; estimated STEP scale.
mtllib materials.mtl
s off
v 0.062500000 0.343750000 0.812500000
v 0.062500000 0.343750000 0.000000000
v 0.062500000 0.031250000 0.000000000
v 0.062500000 0.031250000 0.812500000
v 0.187500000 0.031250000 0.812500000
v 0.187500000 0.031250000 0.000000000
v 0.187500000 0.343750000 0.000000000
v 0.187500000 0.343750000 0.812500000
v 0.937500000 1.000000000 0.018750000
v 0.937500000 1.000000000 0.000000000
v 0.937500000 0.771617241 0.000000000
v 0.937500000 0.771617241 0.018750000
v 1.000000000 0.771617241 0.000000000
v 1.000000000 0.771617241 0.018750000
v 1.000000000 1.000000000 0.018750000
v 0.937500000 1.000000000 0.071875000
v 0.937500000 0.740507228 0.018750000
v 0.937500000 0.740507228 0.071875000
v 1.000000000 0.740507228 0.071875000
v 1.000000000 0.740507228 0.018750000
v 1.000000000 1.000000000 0.071875000
v 0.937500000 1.000000000 0.125000000
v 0.937500000 0.726666692 0.071875000
v 0.937500000 0.726666692 0.125000000
v 1.000000000 0.726666692 0.125000000
v 1.000000000 0.726666692 0.071875000
v 1.000000000 1.000000000 0.125000000
v 0.937500000 1.000000000 0.178125000
v 0.937500000 0.726666692 0.178125000
v 1.000000000 0.726666692 0.178125000
v 1.000000000 1.000000000 0.178125000
v 0.937500000 1.000000000 0.231250000
v 0.937500000 0.740507228 0.178125000
v 0.937500000 0.740507228 0.231250000
v 1.000000000 0.740507228 0.231250000
v 1.000000000 0.740507228 0.178125000
v 1.000000000 1.000000000 0.231250000
v 0.937500000 1.000000000 0.284375000
v 0.937500000 0.771617241 0.231250000
v 0.937500000 0.771617241 0.284375000
v 1.000000000 0.771617241 0.284375000
v 1.000000000 0.771617241 0.231250000
v 1.000000000 1.000000000 0.284375000
v 0.937500000 1.000000000 0.337500000
v 0.937500000 0.834623880 0.284375000
v 0.937500000 0.834623880 0.337500000
v 1.000000000 0.834623880 0.337500000
v 1.000000000 0.834623880 0.284375000
v 1.000000000 1.000000000 0.337500000
v 0.937500000 0.482812500 0.454687500
v 0.937500000 0.482812500 0.420312500
v 0.937500000 0.517187500 0.420312500
v 0.937500000 0.517187500 0.454687500
v 0.000000000 0.482812500 0.454687500
v 0.000000000 0.482812500 0.420312500
v 0.000000000 0.517187500 0.420312500
v 0.000000000 0.517187500 0.454687500
v 0.920312500 0.750000000 0.454687500
v 0.920312500 0.750000000 0.420312500
v 0.920312500 0.500000000 0.420312500
v 0.920312500 0.500000000 0.454687500
v 0.954687500 0.500000000 0.454687500
v 0.954687500 0.500000000 0.420312500
v 0.954687500 0.750000000 0.420312500
v 0.954687500 0.750000000 0.454687500
v 0.937500000 0.767187500 0.454687500
v 0.937500000 0.767187500 0.420312500
v 0.937500000 0.732812500 0.420312500
v 0.937500000 0.732812500 0.454687500
v 1.000000000 0.732812500 0.454687500
v 1.000000000 0.732812500 0.420312500
v 1.000000000 0.767187500 0.420312500
v 1.000000000 0.767187500 0.454687500
v 0.937500000 0.535937500 0.517187500
v 0.937500000 0.535937500 0.482812500
v 0.937500000 0.570312500 0.482812500
v 0.937500000 0.570312500 0.517187500
v 0.000000000 0.535937500 0.517187500
v 0.000000000 0.535937500 0.482812500
v 0.000000000 0.570312500 0.482812500
v 0.000000000 0.570312500 0.517187500
v 0.920312500 0.812500000 0.517187500
v 0.920312500 0.812500000 0.482812500
v 0.920312500 0.553125000 0.482812500
v 0.920312500 0.553125000 0.517187500
v 0.954687500 0.553125000 0.517187500
v 0.954687500 0.553125000 0.482812500
v 0.954687500 0.812500000 0.482812500
v 0.954687500 0.812500000 0.517187500
v 0.937500000 0.829687500 0.517187500
v 0.937500000 0.829687500 0.482812500
v 0.937500000 0.795312500 0.482812500
v 0.937500000 0.795312500 0.517187500
v 1.000000000 0.795312500 0.517187500
v 1.000000000 0.795312500 0.482812500
v 1.000000000 0.829687500 0.482812500
v 1.000000000 0.829687500 0.517187500
v 0.937500000 0.589062500 0.579687500
v 0.937500000 0.589062500 0.545312500
v 0.937500000 0.623437500 0.545312500
v 0.937500000 0.623437500 0.579687500
v 0.000000000 0.589062500 0.579687500
v 0.000000000 0.589062500 0.545312500
v 0.000000000 0.623437500 0.545312500
v 0.000000000 0.623437500 0.579687500
v 0.920312500 0.875000000 0.579687500
v 0.920312500 0.875000000 0.545312500
v 0.920312500 0.606250000 0.545312500
v 0.920312500 0.606250000 0.579687500
v 0.954687500 0.606250000 0.579687500
v 0.954687500 0.606250000 0.545312500
v 0.954687500 0.875000000 0.545312500
v 0.954687500 0.875000000 0.579687500
v 0.937500000 0.892187500 0.579687500
v 0.937500000 0.892187500 0.545312500
v 0.937500000 0.857812500 0.545312500
v 0.937500000 0.857812500 0.579687500
v 1.000000000 0.857812500 0.579687500
v 1.000000000 0.857812500 0.545312500
v 1.000000000 0.892187500 0.545312500
v 1.000000000 0.892187500 0.579687500
v 0.937500000 0.642187500 0.642187500
v 0.937500000 0.642187500 0.607812500
v 0.937500000 0.676562500 0.607812500
v 0.937500000 0.676562500 0.642187500
v 0.000000000 0.642187500 0.642187500
v 0.000000000 0.642187500 0.607812500
v 0.000000000 0.676562500 0.607812500
v 0.000000000 0.676562500 0.642187500
v 0.920312500 0.937500000 0.642187500
v 0.920312500 0.937500000 0.607812500
v 0.920312500 0.659375000 0.607812500
v 0.920312500 0.659375000 0.642187500
v 0.954687500 0.659375000 0.642187500
v 0.954687500 0.659375000 0.607812500
v 0.954687500 0.937500000 0.607812500
v 0.954687500 0.937500000 0.642187500
v 0.937500000 0.954687500 0.642187500
v 0.937500000 0.954687500 0.607812500
v 0.937500000 0.920312500 0.607812500
v 0.937500000 0.920312500 0.642187500
v 1.000000000 0.920312500 0.642187500
v 1.000000000 0.920312500 0.607812500
v 1.000000000 0.954687500 0.607812500
v 1.000000000 0.954687500 0.642187500
v 1.000000000 0.031250000 0.881250000
v 0.000000000 0.031250000 0.881250000
v 0.000000000 0.031250000 0.806250000
v 1.000000000 0.031250000 0.806250000
v 1.000000000 0.343750000 0.806250000
v 0.000000000 0.343750000 0.806250000
v 0.000000000 0.343750000 0.881250000
v 1.000000000 0.343750000 0.881250000
v 0.964062500 0.842187500 0.337043216
v 0.964062500 0.842187500 0.302668216
v 0.964062500 0.807812500 0.302668216
v 0.964062500 0.807812500 0.337043216
v 0.998437500 0.807812500 0.337043216
v 0.998437500 0.807812500 0.302668216
v 0.998437500 0.842187500 0.302668216
v 0.998437500 0.842187500 0.337043216
v 0.964062500 0.729687500 0.142187500
v 0.964062500 0.729687500 0.107812500
v 0.964062500 0.695312500 0.107812500
v 0.964062500 0.695312500 0.142187500
v 0.998437500 0.695312500 0.142187500
v 0.998437500 0.695312500 0.107812500
v 0.998437500 0.729687500 0.107812500
v 0.998437500 0.729687500 0.142187500
v 0.906250000 0.971875000 0.384375000
v 0.906250000 0.971875000 0.315625000
v 0.906250000 0.903125000 0.315625000
v 0.906250000 0.903125000 0.384375000
v 0.968750000 0.903125000 0.384375000
v 0.968750000 0.903125000 0.315625000
v 0.968750000 0.971875000 0.315625000
v 0.968750000 0.971875000 0.384375000
v 0.906250000 0.859375000 0.354230716
v 0.906250000 0.859375000 0.285480716
v 0.906250000 0.790625000 0.285480716
v 0.906250000 0.790625000 0.354230716
v 0.968750000 0.790625000 0.354230716
v 0.968750000 0.790625000 0.285480716
v 0.968750000 0.859375000 0.285480716
v 0.968750000 0.859375000 0.354230716
v 0.906250000 0.777019284 0.271875000
v 0.906250000 0.777019284 0.203125000
v 0.906250000 0.708269284 0.203125000
v 0.906250000 0.708269284 0.271875000
v 0.968750000 0.708269284 0.271875000
v 0.968750000 0.708269284 0.203125000
v 0.968750000 0.777019284 0.203125000
v 0.968750000 0.777019284 0.271875000
v 0.906250000 0.746875000 0.159375000
v 0.906250000 0.746875000 0.090625000
v 0.906250000 0.678125000 0.090625000
v 0.906250000 0.678125000 0.159375000
v 0.968750000 0.678125000 0.159375000
v 0.968750000 0.678125000 0.090625000
v 0.968750000 0.746875000 0.090625000
v 0.968750000 0.746875000 0.159375000
v 0.906250000 0.777019284 0.046875000
v 0.906250000 0.777019284 0.000000000
v 0.906250000 0.708269284 0.000000000
v 0.906250000 0.708269284 0.046875000
v 0.968750000 0.708269284 0.046875000
v 0.968750000 0.708269284 0.000000000
v 0.968750000 0.777019284 0.000000000
v 0.968750000 0.777019284 0.046875000
v 0.857812500 0.779687500 0.204687500
v 0.857812500 0.779687500 0.170312500
v 0.857812500 0.745312500 0.170312500
v 0.857812500 0.745312500 0.204687500
v 0.892187500 0.745312500 0.204687500
v 0.892187500 0.745312500 0.170312500
v 0.892187500 0.779687500 0.170312500
v 0.892187500 0.779687500 0.204687500
v 0.732812500 0.779687500 0.421193851
v 0.732812500 0.779687500 0.386818851
v 0.732812500 0.745312500 0.386818851
v 0.732812500 0.745312500 0.421193851
v 0.767187500 0.745312500 0.421193851
v 0.767187500 0.745312500 0.386818851
v 0.767187500 0.779687500 0.386818851
v 0.767187500 0.779687500 0.421193851
v 0.482812500 0.779687500 0.421193851
v 0.482812500 0.779687500 0.386818851
v 0.482812500 0.745312500 0.386818851
v 0.482812500 0.745312500 0.421193851
v 0.517187500 0.745312500 0.421193851
v 0.517187500 0.745312500 0.386818851
v 0.517187500 0.779687500 0.386818851
v 0.517187500 0.779687500 0.421193851
v 0.357812500 0.779687500 0.204687500
v 0.357812500 0.779687500 0.170312500
v 0.357812500 0.745312500 0.170312500
v 0.357812500 0.745312500 0.204687500
v 0.392187500 0.745312500 0.204687500
v 0.392187500 0.745312500 0.170312500
v 0.392187500 0.779687500 0.170312500
v 0.392187500 0.779687500 0.204687500
v 0.840625000 0.750000000 0.221875000
v 0.840625000 0.750000000 0.153125000
v 0.840625000 0.687500000 0.153125000
v 0.840625000 0.687500000 0.221875000
v 0.909375000 0.687500000 0.221875000
v 0.909375000 0.687500000 0.153125000
v 0.909375000 0.750000000 0.153125000
v 0.909375000 0.750000000 0.221875000
v 0.807131351 0.750000000 0.346875000
v 0.807131351 0.750000000 0.278125000
v 0.807131351 0.687500000 0.278125000
v 0.807131351 0.687500000 0.346875000
v 0.875881351 0.687500000 0.346875000
v 0.875881351 0.687500000 0.278125000
v 0.875881351 0.750000000 0.278125000
v 0.875881351 0.750000000 0.346875000
v 0.715625000 0.750000000 0.438381351
v 0.715625000 0.750000000 0.369631351
v 0.715625000 0.687500000 0.369631351
v 0.715625000 0.687500000 0.438381351
v 0.784375000 0.687500000 0.438381351
v 0.784375000 0.687500000 0.369631351
v 0.784375000 0.750000000 0.369631351
v 0.784375000 0.750000000 0.438381351
v 0.590625000 0.750000000 0.471875000
v 0.590625000 0.750000000 0.403125000
v 0.590625000 0.687500000 0.403125000
v 0.590625000 0.687500000 0.471875000
v 0.659375000 0.687500000 0.471875000
v 0.659375000 0.687500000 0.403125000
v 0.659375000 0.750000000 0.403125000
v 0.659375000 0.750000000 0.471875000
v 0.465625000 0.750000000 0.438381351
v 0.465625000 0.750000000 0.369631351
v 0.465625000 0.687500000 0.369631351
v 0.465625000 0.687500000 0.438381351
v 0.534375000 0.687500000 0.438381351
v 0.534375000 0.687500000 0.369631351
v 0.534375000 0.750000000 0.369631351
v 0.534375000 0.750000000 0.438381351
v 0.374118649 0.750000000 0.346875000
v 0.374118649 0.750000000 0.278125000
v 0.374118649 0.687500000 0.278125000
v 0.374118649 0.687500000 0.346875000
v 0.442868649 0.687500000 0.346875000
v 0.442868649 0.687500000 0.278125000
v 0.442868649 0.750000000 0.278125000
v 0.442868649 0.750000000 0.346875000
v 0.340625000 0.750000000 0.221875000
v 0.340625000 0.750000000 0.153125000
v 0.340625000 0.687500000 0.153125000
v 0.340625000 0.687500000 0.221875000
v 0.409375000 0.687500000 0.221875000
v 0.409375000 0.687500000 0.153125000
v 0.409375000 0.750000000 0.153125000
v 0.409375000 0.750000000 0.221875000
v 0.374118649 0.750000000 0.096875000
v 0.374118649 0.750000000 0.028125000
v 0.374118649 0.687500000 0.028125000
v 0.374118649 0.687500000 0.096875000
v 0.442868649 0.687500000 0.096875000
v 0.442868649 0.687500000 0.028125000
v 0.442868649 0.750000000 0.028125000
v 0.442868649 0.750000000 0.096875000
v 0.465625000 0.750000000 0.005368649
v 0.465625000 0.750000000 0.000000000
v 0.465625000 0.687500000 0.000000000
v 0.465625000 0.687500000 0.005368649
v 0.534375000 0.687500000 0.005368649
v 0.534375000 0.687500000 0.000000000
v 0.534375000 0.750000000 0.000000000
v 0.534375000 0.750000000 0.005368649
v 0.715625000 0.750000000 0.005368649
v 0.715625000 0.750000000 0.000000000
v 0.715625000 0.687500000 0.000000000
v 0.715625000 0.687500000 0.005368649
v 0.784375000 0.687500000 0.005368649
v 0.784375000 0.687500000 0.000000000
v 0.784375000 0.750000000 0.000000000
v 0.784375000 0.750000000 0.005368649
v 0.807131351 0.750000000 0.096875000
v 0.807131351 0.750000000 0.028125000
v 0.807131351 0.687500000 0.028125000
v 0.807131351 0.687500000 0.096875000
v 0.875881351 0.687500000 0.096875000
v 0.875881351 0.687500000 0.028125000
v 0.875881351 0.750000000 0.028125000
v 0.875881351 0.750000000 0.096875000
v 0.981250000 0.906250000 0.740564882
v 0.981250000 0.906250000 0.671814882
v 0.981250000 0.843750000 0.671814882
v 0.981250000 0.843750000 0.740564882
v 1.000000000 0.843750000 0.740564882
v 1.000000000 0.843750000 0.671814882
v 1.000000000 0.906250000 0.671814882
v 1.000000000 0.906250000 0.740564882
v 0.946935118 0.906250000 0.706250000
v 0.946935118 0.906250000 0.637500000
v 0.946935118 0.843750000 0.637500000
v 0.946935118 0.843750000 0.706250000
v 1.000000000 0.843750000 0.706250000
v 1.000000000 0.843750000 0.637500000
v 1.000000000 0.906250000 0.637500000
v 1.000000000 0.906250000 0.706250000
v 0.934375000 0.906250000 0.659375000
v 0.934375000 0.906250000 0.590625000
v 0.934375000 0.843750000 0.590625000
v 0.934375000 0.843750000 0.659375000
v 1.000000000 0.843750000 0.659375000
v 1.000000000 0.843750000 0.590625000
v 1.000000000 0.906250000 0.590625000
v 1.000000000 0.906250000 0.659375000
v 0.946935118 0.906250000 0.612500000
v 0.946935118 0.906250000 0.543750000
v 0.946935118 0.843750000 0.543750000
v 0.946935118 0.843750000 0.612500000
v 1.000000000 0.843750000 0.612500000
v 1.000000000 0.843750000 0.543750000
v 1.000000000 0.906250000 0.543750000
v 1.000000000 0.906250000 0.612500000
v 0.981250000 0.906250000 0.578185118
v 0.981250000 0.906250000 0.509435118
v 0.981250000 0.843750000 0.509435118
v 0.981250000 0.843750000 0.578185118
v 1.000000000 0.843750000 0.578185118
v 1.000000000 0.843750000 0.509435118
v 1.000000000 0.906250000 0.509435118
v 1.000000000 0.906250000 0.578185118
v 0.900000000 1.000000000 0.060937500
v 0.900000000 1.000000000 0.000000000
v 0.900000000 0.699949892 0.000000000
v 0.900000000 0.699949892 0.060937500
v 0.975000000 1.000000000 0.000000000
v 0.975000000 1.000000000 0.060937500
v 0.975000000 0.699949892 0.060937500
v 0.975000000 0.699949892 0.000000000
v 0.900000000 1.000000000 0.125000000
v 0.900000000 0.683259835 0.060937500
v 0.900000000 0.683259835 0.125000000
v 0.975000000 1.000000000 0.125000000
v 0.975000000 0.683259835 0.125000000
v 0.975000000 0.683259835 0.060937500
v 0.900000000 1.000000000 0.189062500
v 0.900000000 0.683259835 0.189062500
v 0.975000000 1.000000000 0.189062500
v 0.975000000 0.683259835 0.189062500
v 0.900000000 1.000000000 0.253125000
v 0.900000000 0.699949892 0.189062500
v 0.900000000 0.699949892 0.253125000
v 0.975000000 1.000000000 0.253125000
v 0.975000000 0.699949892 0.253125000
v 0.975000000 0.699949892 0.189062500
v 0.900000000 1.000000000 0.317187500
v 0.900000000 0.737464908 0.253125000
v 0.900000000 0.737464908 0.317187500
v 0.975000000 1.000000000 0.317187500
v 0.975000000 0.737464908 0.317187500
v 0.975000000 0.737464908 0.253125000
v 0.900000000 1.000000000 0.381250000
v 0.900000000 0.813443502 0.317187500
v 0.900000000 0.813443502 0.381250000
v 0.975000000 1.000000000 0.381250000
v 0.975000000 0.813443502 0.381250000
v 0.975000000 0.813443502 0.317187500
v 0.510020807 1.000000000 0.009375000
v 0.510020807 1.000000000 0.000000000
v 0.510020807 0.750000000 0.000000000
v 0.510020807 0.750000000 0.009375000
v 0.739979193 1.000000000 0.000000000
v 0.739979193 1.000000000 0.009375000
v 0.739979193 0.750000000 0.009375000
v 0.739979193 0.750000000 0.000000000
v 0.439601622 1.000000000 0.068750000
v 0.439601622 1.000000000 0.009375000
v 0.439601622 0.750000000 0.009375000
v 0.439601622 0.750000000 0.068750000
v 0.810398378 1.000000000 0.068750000
v 0.810398378 0.750000000 0.068750000
v 0.810398378 0.750000000 0.009375000
v 0.810398378 1.000000000 0.009375000
v 0.404831607 1.000000000 0.128125000
v 0.404831607 1.000000000 0.068750000
v 0.404831607 0.750000000 0.068750000
v 0.404831607 0.750000000 0.128125000
v 0.845168393 1.000000000 0.128125000
v 0.845168393 0.750000000 0.128125000
v 0.845168393 0.750000000 0.068750000
v 0.845168393 1.000000000 0.068750000
v 0.389362774 1.000000000 0.187500000
v 0.389362774 1.000000000 0.128125000
v 0.389362774 0.750000000 0.128125000
v 0.389362774 0.750000000 0.187500000
v 0.860637226 1.000000000 0.187500000
v 0.860637226 0.750000000 0.187500000
v 0.860637226 0.750000000 0.128125000
v 0.860637226 1.000000000 0.128125000
v 0.389362774 1.000000000 0.246875000
v 0.389362774 0.750000000 0.246875000
v 0.860637226 1.000000000 0.246875000
v 0.860637226 0.750000000 0.246875000
v 0.404831607 1.000000000 0.306250000
v 0.404831607 1.000000000 0.246875000
v 0.404831607 0.750000000 0.246875000
v 0.404831607 0.750000000 0.306250000
v 0.845168393 1.000000000 0.306250000
v 0.845168393 0.750000000 0.306250000
v 0.845168393 0.750000000 0.246875000
v 0.845168393 1.000000000 0.246875000
v 0.439601622 1.000000000 0.365625000
v 0.439601622 1.000000000 0.306250000
v 0.439601622 0.750000000 0.306250000
v 0.439601622 0.750000000 0.365625000
v 0.810398378 1.000000000 0.365625000
v 0.810398378 0.750000000 0.365625000
v 0.810398378 0.750000000 0.306250000
v 0.810398378 1.000000000 0.306250000
v 0.510020807 1.000000000 0.425000000
v 0.510020807 1.000000000 0.365625000
v 0.510020807 0.750000000 0.365625000
v 0.510020807 0.750000000 0.425000000
v 0.739979193 1.000000000 0.425000000
v 0.739979193 0.750000000 0.425000000
v 0.739979193 0.750000000 0.365625000
v 0.739979193 1.000000000 0.365625000
v 0.079613476 1.000000000 0.117187500
v 0.079613476 1.000000000 0.093750000
v 0.079613476 0.687500000 0.093750000
v 0.079613476 0.687500000 0.117187500
v 0.170386524 1.000000000 0.117187500
v 0.170386524 0.687500000 0.117187500
v 0.170386524 0.687500000 0.093750000
v 0.170386524 1.000000000 0.093750000
v 0.329613476 1.000000000 0.117187500
v 0.329613476 1.000000000 0.093750000
v 0.329613476 0.687500000 0.093750000
v 0.329613476 0.687500000 0.117187500
v 0.420386524 1.000000000 0.117187500
v 0.420386524 0.687500000 0.117187500
v 0.420386524 0.687500000 0.093750000
v 0.420386524 1.000000000 0.093750000
v 0.051816430 1.000000000 0.140625000
v 0.051816430 1.000000000 0.117187500
v 0.051816430 0.687500000 0.117187500
v 0.051816430 0.687500000 0.140625000
v 0.198183570 1.000000000 0.140625000
v 0.198183570 0.687500000 0.140625000
v 0.198183570 0.687500000 0.117187500
v 0.198183570 1.000000000 0.117187500
v 0.301816430 1.000000000 0.140625000
v 0.301816430 1.000000000 0.117187500
v 0.301816430 0.687500000 0.117187500
v 0.301816430 0.687500000 0.140625000
v 0.448183570 1.000000000 0.140625000
v 0.448183570 0.687500000 0.140625000
v 0.448183570 0.687500000 0.117187500
v 0.448183570 1.000000000 0.117187500
v 0.038091424 1.000000000 0.164062500
v 0.038091424 1.000000000 0.140625000
v 0.038091424 0.687500000 0.140625000
v 0.038091424 0.687500000 0.164062500
v 0.211908576 1.000000000 0.164062500
v 0.211908576 0.687500000 0.164062500
v 0.211908576 0.687500000 0.140625000
v 0.211908576 1.000000000 0.140625000
v 0.288091424 1.000000000 0.164062500
v 0.288091424 1.000000000 0.140625000
v 0.288091424 0.687500000 0.140625000
v 0.288091424 0.687500000 0.164062500
v 0.461908576 1.000000000 0.164062500
v 0.461908576 0.687500000 0.164062500
v 0.461908576 0.687500000 0.140625000
v 0.461908576 1.000000000 0.140625000
v 0.031985305 1.000000000 0.187500000
v 0.031985305 1.000000000 0.164062500
v 0.031985305 0.687500000 0.164062500
v 0.031985305 0.687500000 0.187500000
v 0.218014695 1.000000000 0.187500000
v 0.218014695 0.687500000 0.187500000
v 0.218014695 0.687500000 0.164062500
v 0.218014695 1.000000000 0.164062500
v 0.281985305 1.000000000 0.187500000
v 0.281985305 1.000000000 0.164062500
v 0.281985305 0.687500000 0.164062500
v 0.281985305 0.687500000 0.187500000
v 0.468014695 1.000000000 0.187500000
v 0.468014695 0.687500000 0.187500000
v 0.468014695 0.687500000 0.164062500
v 0.468014695 1.000000000 0.164062500
v 0.031985305 1.000000000 0.210937500
v 0.031985305 0.687500000 0.210937500
v 0.218014695 1.000000000 0.210937500
v 0.218014695 0.687500000 0.210937500
v 0.281985305 1.000000000 0.210937500
v 0.281985305 0.687500000 0.210937500
v 0.468014695 1.000000000 0.210937500
v 0.468014695 0.687500000 0.210937500
v 0.038091424 1.000000000 0.234375000
v 0.038091424 1.000000000 0.210937500
v 0.038091424 0.687500000 0.210937500
v 0.038091424 0.687500000 0.234375000
v 0.211908576 1.000000000 0.234375000
v 0.211908576 0.687500000 0.234375000
v 0.211908576 0.687500000 0.210937500
v 0.211908576 1.000000000 0.210937500
v 0.288091424 1.000000000 0.234375000
v 0.288091424 1.000000000 0.210937500
v 0.288091424 0.687500000 0.210937500
v 0.288091424 0.687500000 0.234375000
v 0.461908576 1.000000000 0.234375000
v 0.461908576 0.687500000 0.234375000
v 0.461908576 0.687500000 0.210937500
v 0.461908576 1.000000000 0.210937500
v 0.051816430 1.000000000 0.257812500
v 0.051816430 1.000000000 0.234375000
v 0.051816430 0.687500000 0.234375000
v 0.051816430 0.687500000 0.257812500
v 0.198183570 1.000000000 0.257812500
v 0.198183570 0.687500000 0.257812500
v 0.198183570 0.687500000 0.234375000
v 0.198183570 1.000000000 0.234375000
v 0.301816430 1.000000000 0.257812500
v 0.301816430 1.000000000 0.234375000
v 0.301816430 0.687500000 0.234375000
v 0.301816430 0.687500000 0.257812500
v 0.448183570 1.000000000 0.257812500
v 0.448183570 0.687500000 0.257812500
v 0.448183570 0.687500000 0.234375000
v 0.448183570 1.000000000 0.234375000
v 0.079613476 1.000000000 0.281250000
v 0.079613476 1.000000000 0.257812500
v 0.079613476 0.687500000 0.257812500
v 0.079613476 0.687500000 0.281250000
v 0.170386524 1.000000000 0.281250000
v 0.170386524 0.687500000 0.281250000
v 0.170386524 0.687500000 0.257812500
v 0.170386524 1.000000000 0.257812500
v 0.329613476 1.000000000 0.281250000
v 0.329613476 1.000000000 0.257812500
v 0.329613476 0.687500000 0.257812500
v 0.329613476 0.687500000 0.281250000
v 0.420386524 1.000000000 0.281250000
v 0.420386524 0.687500000 0.281250000
v 0.420386524 0.687500000 0.257812500
v 0.420386524 1.000000000 0.257812500
v 0.093750000 1.000000000 0.000000000
v 0.093750000 1.000000000 0.062500000
v 0.093750000 0.531250000 0.062500000
v 0.093750000 0.531250000 0.000000000
v 0.000000000 0.531250000 0.062500000
v 0.000000000 0.531250000 0.000000000
v 0.000000000 1.000000000 0.062500000
v 0.250000000 1.000000000 0.000000000
v 0.250000000 1.000000000 0.001562500
v 0.250000000 0.970301011 0.001562500
v 0.250000000 0.970301011 0.000000000
v 0.000000000 0.970301011 0.001562500
v 0.000000000 0.970301011 0.000000000
v 0.000000000 1.000000000 0.001562500
v 1.000000000 0.371875000 0.000000000
v 1.000000000 0.371875000 0.812500000
v 0.000000000 0.371875000 0.812500000
v 0.000000000 0.371875000 0.000000000
v 1.000000000 0.453125000 0.000000000
v 0.000000000 0.453125000 0.000000000
v 0.000000000 0.453125000 0.812500000
v 1.000000000 0.453125000 0.812500000
v 1.000000000 0.018750000 0.987500000
v 0.000000000 0.018750000 0.987500000
v 0.000000000 0.018750000 0.700000000
v 1.000000000 0.018750000 0.700000000
v 1.000000000 0.068750000 0.700000000
v 0.000000000 0.068750000 0.700000000
v 0.000000000 0.068750000 0.987500000
v 1.000000000 0.068750000 0.987500000
v 1.000000000 0.325000000 0.987500000
v 0.000000000 0.325000000 0.987500000
v 0.000000000 0.325000000 0.700000000
v 1.000000000 0.325000000 0.700000000
v 1.000000000 0.375000000 0.700000000
v 0.000000000 0.375000000 0.700000000
v 0.000000000 0.375000000 0.987500000
v 1.000000000 0.375000000 0.987500000
v 0.064484635 0.712500000 0.093750000
v 0.064484635 0.712500000 0.062500000
v 0.064484635 0.662500000 0.062500000
v 0.064484635 0.662500000 0.093750000
v 0.185515365 0.662500000 0.093750000
v 0.185515365 0.662500000 0.062500000
v 0.185515365 0.712500000 0.062500000
v 0.185515365 0.712500000 0.093750000
v 0.314484635 0.712500000 0.093750000
v 0.314484635 0.712500000 0.062500000
v 0.314484635 0.662500000 0.062500000
v 0.314484635 0.662500000 0.093750000
v 0.435515365 0.662500000 0.093750000
v 0.435515365 0.662500000 0.062500000
v 0.435515365 0.712500000 0.062500000
v 0.435515365 0.712500000 0.093750000
v 0.027421906 0.712500000 0.125000000
v 0.027421906 0.712500000 0.093750000
v 0.027421906 0.662500000 0.093750000
v 0.027421906 0.662500000 0.125000000
v 0.222578094 0.662500000 0.125000000
v 0.222578094 0.662500000 0.093750000
v 0.222578094 0.712500000 0.093750000
v 0.222578094 0.712500000 0.125000000
v 0.277421906 0.712500000 0.125000000
v 0.277421906 0.712500000 0.093750000
v 0.277421906 0.662500000 0.093750000
v 0.277421906 0.662500000 0.125000000
v 0.472578094 0.662500000 0.125000000
v 0.472578094 0.662500000 0.093750000
v 0.472578094 0.712500000 0.093750000
v 0.472578094 0.712500000 0.125000000
v 0.009121899 0.712500000 0.156250000
v 0.009121899 0.712500000 0.125000000
v 0.009121899 0.662500000 0.125000000
v 0.009121899 0.662500000 0.156250000
v 0.240878101 0.662500000 0.156250000
v 0.240878101 0.662500000 0.125000000
v 0.240878101 0.712500000 0.125000000
v 0.240878101 0.712500000 0.156250000
v 0.259121899 0.712500000 0.156250000
v 0.259121899 0.712500000 0.125000000
v 0.259121899 0.662500000 0.125000000
v 0.259121899 0.662500000 0.156250000
v 0.490878101 0.662500000 0.156250000
v 0.490878101 0.662500000 0.125000000
v 0.490878101 0.712500000 0.125000000
v 0.490878101 0.712500000 0.156250000
v 0.000980407 0.712500000 0.187500000
v 0.000980407 0.712500000 0.156250000
v 0.000980407 0.662500000 0.156250000
v 0.000980407 0.662500000 0.187500000
v 0.249019593 0.662500000 0.187500000
v 0.249019593 0.662500000 0.156250000
v 0.249019593 0.712500000 0.156250000
v 0.249019593 0.712500000 0.187500000
v 0.250980407 0.712500000 0.187500000
v 0.250980407 0.712500000 0.156250000
v 0.250980407 0.662500000 0.156250000
v 0.250980407 0.662500000 0.187500000
v 0.499019593 0.662500000 0.187500000
v 0.499019593 0.662500000 0.156250000
v 0.499019593 0.712500000 0.156250000
v 0.499019593 0.712500000 0.187500000
v 0.000980407 0.712500000 0.218750000
v 0.000980407 0.662500000 0.218750000
v 0.249019593 0.662500000 0.218750000
v 0.249019593 0.712500000 0.218750000
v 0.250980407 0.712500000 0.218750000
v 0.250980407 0.662500000 0.218750000
v 0.499019593 0.662500000 0.218750000
v 0.499019593 0.712500000 0.218750000
v 0.009121899 0.712500000 0.250000000
v 0.009121899 0.712500000 0.218750000
v 0.009121899 0.662500000 0.218750000
v 0.009121899 0.662500000 0.250000000
v 0.240878101 0.662500000 0.250000000
v 0.240878101 0.662500000 0.218750000
v 0.240878101 0.712500000 0.218750000
v 0.240878101 0.712500000 0.250000000
v 0.259121899 0.712500000 0.250000000
v 0.259121899 0.712500000 0.218750000
v 0.259121899 0.662500000 0.218750000
v 0.259121899 0.662500000 0.250000000
v 0.490878101 0.662500000 0.250000000
v 0.490878101 0.662500000 0.218750000
v 0.490878101 0.712500000 0.218750000
v 0.490878101 0.712500000 0.250000000
v 0.027421906 0.712500000 0.281250000
v 0.027421906 0.712500000 0.250000000
v 0.027421906 0.662500000 0.250000000
v 0.027421906 0.662500000 0.281250000
v 0.222578094 0.662500000 0.281250000
v 0.222578094 0.662500000 0.250000000
v 0.222578094 0.712500000 0.250000000
v 0.222578094 0.712500000 0.281250000
v 0.277421906 0.712500000 0.281250000
v 0.277421906 0.712500000 0.250000000
v 0.277421906 0.662500000 0.250000000
v 0.277421906 0.662500000 0.281250000
v 0.472578094 0.662500000 0.281250000
v 0.472578094 0.662500000 0.250000000
v 0.472578094 0.712500000 0.250000000
v 0.472578094 0.712500000 0.281250000
v 0.064484635 0.712500000 0.312500000
v 0.064484635 0.712500000 0.281250000
v 0.064484635 0.662500000 0.281250000
v 0.064484635 0.662500000 0.312500000
v 0.185515365 0.662500000 0.312500000
v 0.185515365 0.662500000 0.281250000
v 0.185515365 0.712500000 0.281250000
v 0.185515365 0.712500000 0.312500000
v 0.314484635 0.712500000 0.312500000
v 0.314484635 0.712500000 0.281250000
v 0.314484635 0.662500000 0.281250000
v 0.314484635 0.662500000 0.312500000
v 0.435515365 0.662500000 0.312500000
v 0.435515365 0.662500000 0.281250000
v 0.435515365 0.712500000 0.281250000
v 0.435515365 0.712500000 0.312500000
v 0.400570384 0.762500000 0.043750000
v 0.400570384 0.762500000 0.000000000
v 0.400570384 0.675000000 0.000000000
v 0.400570384 0.675000000 0.043750000
v 0.849429616 0.675000000 0.043750000
v 0.849429616 0.675000000 0.000000000
v 0.849429616 0.762500000 0.000000000
v 0.849429616 0.762500000 0.043750000
v 0.358480367 0.762500000 0.115625000
v 0.358480367 0.762500000 0.043750000
v 0.358480367 0.675000000 0.043750000
v 0.358480367 0.675000000 0.115625000
v 0.891519633 0.675000000 0.115625000
v 0.891519633 0.675000000 0.043750000
v 0.891519633 0.762500000 0.043750000
v 0.891519633 0.762500000 0.115625000
v 0.339754937 0.762500000 0.187500000
v 0.339754937 0.762500000 0.115625000
v 0.339754937 0.675000000 0.115625000
v 0.339754937 0.675000000 0.187500000
v 0.910245063 0.675000000 0.187500000
v 0.910245063 0.675000000 0.115625000
v 0.910245063 0.762500000 0.115625000
v 0.910245063 0.762500000 0.187500000
v 0.339754937 0.762500000 0.259375000
v 0.339754937 0.675000000 0.259375000
v 0.910245063 0.675000000 0.259375000
v 0.910245063 0.762500000 0.259375000
v 0.358480367 0.762500000 0.331250000
v 0.358480367 0.762500000 0.259375000
v 0.358480367 0.675000000 0.259375000
v 0.358480367 0.675000000 0.331250000
v 0.891519633 0.675000000 0.331250000
v 0.891519633 0.675000000 0.259375000
v 0.891519633 0.762500000 0.259375000
v 0.891519633 0.762500000 0.331250000
v 0.400570384 0.762500000 0.403125000
v 0.400570384 0.762500000 0.331250000
v 0.400570384 0.675000000 0.331250000
v 0.400570384 0.675000000 0.403125000
v 0.849429616 0.675000000 0.403125000
v 0.849429616 0.675000000 0.331250000
v 0.849429616 0.762500000 0.331250000
v 0.849429616 0.762500000 0.403125000
v 0.485814661 0.762500000 0.475000000
v 0.485814661 0.762500000 0.403125000
v 0.485814661 0.675000000 0.403125000
v 0.485814661 0.675000000 0.475000000
v 0.764185339 0.675000000 0.475000000
v 0.764185339 0.675000000 0.403125000
v 0.764185339 0.762500000 0.403125000
v 0.764185339 0.762500000 0.475000000
v 0.048437500 0.937500000 0.264062500
v 0.048437500 0.937500000 0.235937500
v 0.048437500 0.625000000 0.235937500
v 0.048437500 0.625000000 0.264062500
v 0.076562500 0.625000000 0.264062500
v 0.076562500 0.625000000 0.235937500
v 0.076562500 0.937500000 0.235937500
v 0.076562500 0.937500000 0.264062500
v 0.062500000 0.610937500 0.264062500
v 0.062500000 0.610937500 0.235937500
v 0.062500000 0.639062500 0.235937500
v 0.062500000 0.639062500 0.264062500
v 0.000000000 0.610937500 0.264062500
v 0.000000000 0.610937500 0.235937500
v 0.000000000 0.639062500 0.235937500
v 0.000000000 0.639062500 0.264062500
v 0.235937500 0.937500000 0.264062500
v 0.235937500 0.937500000 0.235937500
v 0.235937500 0.625000000 0.235937500
v 0.235937500 0.625000000 0.264062500
v 0.264062500 0.625000000 0.264062500
v 0.264062500 0.625000000 0.235937500
v 0.264062500 0.937500000 0.235937500
v 0.264062500 0.937500000 0.264062500
v 0.250000000 0.610937500 0.264062500
v 0.250000000 0.610937500 0.235937500
v 0.250000000 0.639062500 0.235937500
v 0.250000000 0.639062500 0.264062500
vt 0 0
vt 1 0
vt 1 1
vt 0 1
vn -1.000000000 -0.000000000 0.000000000
vn 0.000000000 -1.000000000 -0.000000000
vn -0.000000000 -0.000000000 -1.000000000
vn 0.000000000 0.000000000 1.000000000
vn -0.000000000 1.000000000 0.000000000
vn 1.000000000 0.000000000 -0.000000000
usemtl step_color_002
f 1/1/1 2/2/1 3/3/1 4/4/1
f 5/1/6 6/2/6 7/3/6 8/4/6
f 6/1/2 5/2/2 4/3/2 3/4/2
f 7/1/5 2/2/5 1/3/5 8/4/5
f 1/1/4 4/2/4 5/3/4 8/4/4
f 9/1/1 10/2/1 11/3/1 12/4/1
f 13/1/2 14/2/2 12/3/2 11/4/2
f 15/1/4 9/2/4 12/3/4 14/4/4
f 16/1/1 9/2/1 17/3/1 18/4/1
f 19/1/2 18/2/2 17/3/2 20/4/2
f 15/1/3 20/2/3 17/3/3 9/4/3
f 21/1/4 16/2/4 18/3/4 19/4/4
f 22/1/1 16/2/1 23/3/1 24/4/1
f 25/1/2 24/2/2 23/3/2 26/4/2
f 21/1/3 26/2/3 23/3/3 16/4/3
f 27/1/4 22/2/4 24/3/4 25/4/4
f 28/1/1 22/2/1 24/3/1 29/4/1
f 30/1/2 29/2/2 24/3/2 25/4/2
f 27/1/3 25/2/3 24/3/3 22/4/3
f 31/1/4 28/2/4 29/3/4 30/4/4
f 32/1/1 28/2/1 33/3/1 34/4/1
f 35/1/2 34/2/2 33/3/2 36/4/2
f 31/1/3 36/2/3 33/3/3 28/4/3
f 37/1/4 32/2/4 34/3/4 35/4/4
f 38/1/1 32/2/1 39/3/1 40/4/1
f 41/1/2 40/2/2 39/3/2 42/4/2
f 37/1/3 42/2/3 39/3/3 32/4/3
f 43/1/4 38/2/4 40/3/4 41/4/4
f 44/1/1 38/2/1 45/3/1 46/4/1
f 47/1/2 46/2/2 45/3/2 48/4/2
f 43/1/3 48/2/3 45/3/3 38/4/3
f 49/1/4 44/2/4 46/3/4 47/4/4
f 50/1/6 51/2/6 52/3/6 53/4/6
f 50/1/2 54/2/2 55/3/2 51/4/2
f 52/1/5 56/2/5 57/3/5 53/4/5
f 56/1/3 52/2/3 51/3/3 55/4/3
f 57/1/4 54/2/4 50/3/4 53/4/4
f 58/1/1 59/2/1 60/3/1 61/4/1
f 62/1/6 63/2/6 64/3/6 65/4/6
f 62/1/2 61/2/2 60/3/2 63/4/2
f 64/1/5 59/2/5 58/3/5 65/4/5
f 64/1/3 63/2/3 60/3/3 59/4/3
f 58/1/4 61/2/4 62/3/4 65/4/4
f 66/1/1 67/2/1 68/3/1 69/4/1
f 70/1/2 69/2/2 68/3/2 71/4/2
f 72/1/5 67/2/5 66/3/5 73/4/5
f 72/1/3 71/2/3 68/3/3 67/4/3
f 73/1/4 66/2/4 69/3/4 70/4/4
f 74/1/6 75/2/6 76/3/6 77/4/6
f 74/1/2 78/2/2 79/3/2 75/4/2
f 76/1/5 80/2/5 81/3/5 77/4/5
f 80/1/3 76/2/3 75/3/3 79/4/3
f 81/1/4 78/2/4 74/3/4 77/4/4
f 82/1/1 83/2/1 84/3/1 85/4/1
f 86/1/6 87/2/6 88/3/6 89/4/6
f 86/1/2 85/2/2 84/3/2 87/4/2
f 88/1/5 83/2/5 82/3/5 89/4/5
f 88/1/3 87/2/3 84/3/3 83/4/3
f 82/1/4 85/2/4 86/3/4 89/4/4
f 90/1/1 91/2/1 92/3/1 93/4/1
f 94/1/2 93/2/2 92/3/2 95/4/2
f 96/1/5 91/2/5 90/3/5 97/4/5
f 96/1/3 95/2/3 92/3/3 91/4/3
f 97/1/4 90/2/4 93/3/4 94/4/4
f 98/1/6 99/2/6 100/3/6 101/4/6
f 98/1/2 102/2/2 103/3/2 99/4/2
f 100/1/5 104/2/5 105/3/5 101/4/5
f 104/1/3 100/2/3 99/3/3 103/4/3
f 105/1/4 102/2/4 98/3/4 101/4/4
f 106/1/1 107/2/1 108/3/1 109/4/1
f 110/1/6 111/2/6 112/3/6 113/4/6
f 110/1/2 109/2/2 108/3/2 111/4/2
f 112/1/5 107/2/5 106/3/5 113/4/5
f 112/1/3 111/2/3 108/3/3 107/4/3
f 106/1/4 109/2/4 110/3/4 113/4/4
f 114/1/1 115/2/1 116/3/1 117/4/1
f 118/1/2 117/2/2 116/3/2 119/4/2
f 120/1/5 115/2/5 114/3/5 121/4/5
f 120/1/3 119/2/3 116/3/3 115/4/3
f 121/1/4 114/2/4 117/3/4 118/4/4
f 122/1/6 123/2/6 124/3/6 125/4/6
f 122/1/2 126/2/2 127/3/2 123/4/2
f 124/1/5 128/2/5 129/3/5 125/4/5
f 128/1/3 124/2/3 123/3/3 127/4/3
f 129/1/4 126/2/4 122/3/4 125/4/4
f 130/1/1 131/2/1 132/3/1 133/4/1
f 134/1/6 135/2/6 136/3/6 137/4/6
f 134/1/2 133/2/2 132/3/2 135/4/2
f 136/1/5 131/2/5 130/3/5 137/4/5
f 136/1/3 135/2/3 132/3/3 131/4/3
f 130/1/4 133/2/4 134/3/4 137/4/4
f 138/1/1 139/2/1 140/3/1 141/4/1
f 142/1/2 141/2/2 140/3/2 143/4/2
f 144/1/5 139/2/5 138/3/5 145/4/5
f 144/1/3 143/2/3 140/3/3 139/4/3
f 145/1/4 138/2/4 141/3/4 142/4/4
f 146/1/2 147/2/2 148/3/2 149/4/2
f 150/1/5 151/2/5 152/3/5 153/4/5
f 151/1/3 150/2/3 149/3/3 148/4/3
f 153/1/4 152/2/4 147/3/4 146/4/4
usemtl step_color_003
f 154/1/1 155/2/1 156/3/1 157/4/1
f 158/1/6 159/2/6 160/3/6 161/4/6
f 158/1/2 157/2/2 156/3/2 159/4/2
f 160/1/5 155/2/5 154/3/5 161/4/5
f 160/1/3 159/2/3 156/3/3 155/4/3
f 154/1/4 157/2/4 158/3/4 161/4/4
f 162/1/1 163/2/1 164/3/1 165/4/1
f 166/1/6 167/2/6 168/3/6 169/4/6
f 166/1/2 165/2/2 164/3/2 167/4/2
f 168/1/5 163/2/5 162/3/5 169/4/5
f 168/1/3 167/2/3 164/3/3 163/4/3
f 162/1/4 165/2/4 166/3/4 169/4/4
f 170/1/1 171/2/1 172/3/1 173/4/1
f 174/1/6 175/2/6 176/3/6 177/4/6
f 174/1/2 173/2/2 172/3/2 175/4/2
f 176/1/5 171/2/5 170/3/5 177/4/5
f 176/1/3 175/2/3 172/3/3 171/4/3
f 170/1/4 173/2/4 174/3/4 177/4/4
f 178/1/1 179/2/1 180/3/1 181/4/1
f 182/1/6 183/2/6 184/3/6 185/4/6
f 182/1/2 181/2/2 180/3/2 183/4/2
f 184/1/5 179/2/5 178/3/5 185/4/5
f 184/1/3 183/2/3 180/3/3 179/4/3
f 178/1/4 181/2/4 182/3/4 185/4/4
f 186/1/1 187/2/1 188/3/1 189/4/1
f 190/1/6 191/2/6 192/3/6 193/4/6
f 190/1/2 189/2/2 188/3/2 191/4/2
f 192/1/5 187/2/5 186/3/5 193/4/5
f 192/1/3 191/2/3 188/3/3 187/4/3
f 186/1/4 189/2/4 190/3/4 193/4/4
f 194/1/1 195/2/1 196/3/1 197/4/1
f 198/1/6 199/2/6 200/3/6 201/4/6
f 198/1/2 197/2/2 196/3/2 199/4/2
f 200/1/5 195/2/5 194/3/5 201/4/5
f 200/1/3 199/2/3 196/3/3 195/4/3
f 194/1/4 197/2/4 198/3/4 201/4/4
f 202/1/1 203/2/1 204/3/1 205/4/1
f 206/1/6 207/2/6 208/3/6 209/4/6
f 207/1/2 206/2/2 205/3/2 204/4/2
f 208/1/5 203/2/5 202/3/5 209/4/5
f 202/1/4 205/2/4 206/3/4 209/4/4
f 210/1/1 211/2/1 212/3/1 213/4/1
f 214/1/6 215/2/6 216/3/6 217/4/6
f 214/1/2 213/2/2 212/3/2 215/4/2
f 216/1/5 211/2/5 210/3/5 217/4/5
f 216/1/3 215/2/3 212/3/3 211/4/3
f 210/1/4 213/2/4 214/3/4 217/4/4
f 218/1/1 219/2/1 220/3/1 221/4/1
f 222/1/6 223/2/6 224/3/6 225/4/6
f 222/1/2 221/2/2 220/3/2 223/4/2
f 224/1/5 219/2/5 218/3/5 225/4/5
f 224/1/3 223/2/3 220/3/3 219/4/3
f 218/1/4 221/2/4 222/3/4 225/4/4
f 226/1/1 227/2/1 228/3/1 229/4/1
f 230/1/6 231/2/6 232/3/6 233/4/6
f 230/1/2 229/2/2 228/3/2 231/4/2
f 232/1/5 227/2/5 226/3/5 233/4/5
f 232/1/3 231/2/3 228/3/3 227/4/3
f 226/1/4 229/2/4 230/3/4 233/4/4
f 234/1/1 235/2/1 236/3/1 237/4/1
f 238/1/6 239/2/6 240/3/6 241/4/6
f 238/1/2 237/2/2 236/3/2 239/4/2
f 240/1/5 235/2/5 234/3/5 241/4/5
f 240/1/3 239/2/3 236/3/3 235/4/3
f 234/1/4 237/2/4 238/3/4 241/4/4
f 242/1/1 243/2/1 244/3/1 245/4/1
f 246/1/6 247/2/6 248/3/6 249/4/6
f 246/1/2 245/2/2 244/3/2 247/4/2
f 248/1/5 243/2/5 242/3/5 249/4/5
f 248/1/3 247/2/3 244/3/3 243/4/3
f 242/1/4 245/2/4 246/3/4 249/4/4
f 250/1/1 251/2/1 252/3/1 253/4/1
f 254/1/6 255/2/6 256/3/6 257/4/6
f 254/1/2 253/2/2 252/3/2 255/4/2
f 256/1/5 251/2/5 250/3/5 257/4/5
f 256/1/3 255/2/3 252/3/3 251/4/3
f 250/1/4 253/2/4 254/3/4 257/4/4
f 258/1/1 259/2/1 260/3/1 261/4/1
f 262/1/6 263/2/6 264/3/6 265/4/6
f 262/1/2 261/2/2 260/3/2 263/4/2
f 264/1/5 259/2/5 258/3/5 265/4/5
f 264/1/3 263/2/3 260/3/3 259/4/3
f 258/1/4 261/2/4 262/3/4 265/4/4
f 266/1/1 267/2/1 268/3/1 269/4/1
f 270/1/6 271/2/6 272/3/6 273/4/6
f 270/1/2 269/2/2 268/3/2 271/4/2
f 272/1/5 267/2/5 266/3/5 273/4/5
f 272/1/3 271/2/3 268/3/3 267/4/3
f 266/1/4 269/2/4 270/3/4 273/4/4
f 274/1/1 275/2/1 276/3/1 277/4/1
f 278/1/6 279/2/6 280/3/6 281/4/6
f 278/1/2 277/2/2 276/3/2 279/4/2
f 280/1/5 275/2/5 274/3/5 281/4/5
f 280/1/3 279/2/3 276/3/3 275/4/3
f 274/1/4 277/2/4 278/3/4 281/4/4
f 282/1/1 283/2/1 284/3/1 285/4/1
f 286/1/6 287/2/6 288/3/6 289/4/6
f 286/1/2 285/2/2 284/3/2 287/4/2
f 288/1/5 283/2/5 282/3/5 289/4/5
f 288/1/3 287/2/3 284/3/3 283/4/3
f 282/1/4 285/2/4 286/3/4 289/4/4
f 290/1/1 291/2/1 292/3/1 293/4/1
f 294/1/6 295/2/6 296/3/6 297/4/6
f 294/1/2 293/2/2 292/3/2 295/4/2
f 296/1/5 291/2/5 290/3/5 297/4/5
f 296/1/3 295/2/3 292/3/3 291/4/3
f 290/1/4 293/2/4 294/3/4 297/4/4
f 298/1/1 299/2/1 300/3/1 301/4/1
f 302/1/6 303/2/6 304/3/6 305/4/6
f 302/1/2 301/2/2 300/3/2 303/4/2
f 304/1/5 299/2/5 298/3/5 305/4/5
f 304/1/3 303/2/3 300/3/3 299/4/3
f 298/1/4 301/2/4 302/3/4 305/4/4
f 306/1/1 307/2/1 308/3/1 309/4/1
f 310/1/6 311/2/6 312/3/6 313/4/6
f 311/1/2 310/2/2 309/3/2 308/4/2
f 312/1/5 307/2/5 306/3/5 313/4/5
f 306/1/4 309/2/4 310/3/4 313/4/4
f 314/1/1 315/2/1 316/3/1 317/4/1
f 318/1/6 319/2/6 320/3/6 321/4/6
f 319/1/2 318/2/2 317/3/2 316/4/2
f 320/1/5 315/2/5 314/3/5 321/4/5
f 314/1/4 317/2/4 318/3/4 321/4/4
f 322/1/1 323/2/1 324/3/1 325/4/1
f 326/1/6 327/2/6 328/3/6 329/4/6
f 326/1/2 325/2/2 324/3/2 327/4/2
f 328/1/5 323/2/5 322/3/5 329/4/5
f 328/1/3 327/2/3 324/3/3 323/4/3
f 322/1/4 325/2/4 326/3/4 329/4/4
f 330/1/1 331/2/1 332/3/1 333/4/1
f 334/1/2 333/2/2 332/3/2 335/4/2
f 336/1/5 331/2/5 330/3/5 337/4/5
f 336/1/3 335/2/3 332/3/3 331/4/3
f 337/1/4 330/2/4 333/3/4 334/4/4
f 338/1/1 339/2/1 340/3/1 341/4/1
f 342/1/2 341/2/2 340/3/2 343/4/2
f 344/1/5 339/2/5 338/3/5 345/4/5
f 344/1/3 343/2/3 340/3/3 339/4/3
f 345/1/4 338/2/4 341/3/4 342/4/4
f 346/1/1 347/2/1 348/3/1 349/4/1
f 350/1/2 349/2/2 348/3/2 351/4/2
f 352/1/5 347/2/5 346/3/5 353/4/5
f 352/1/3 351/2/3 348/3/3 347/4/3
f 353/1/4 346/2/4 349/3/4 350/4/4
f 354/1/1 355/2/1 356/3/1 357/4/1
f 358/1/2 357/2/2 356/3/2 359/4/2
f 360/1/5 355/2/5 354/3/5 361/4/5
f 360/1/3 359/2/3 356/3/3 355/4/3
f 361/1/4 354/2/4 357/3/4 358/4/4
f 362/1/1 363/2/1 364/3/1 365/4/1
f 366/1/2 365/2/2 364/3/2 367/4/2
f 368/1/5 363/2/5 362/3/5 369/4/5
f 368/1/3 367/2/3 364/3/3 363/4/3
f 369/1/4 362/2/4 365/3/4 366/4/4
usemtl step_color_006
f 370/1/1 371/2/1 372/3/1 373/4/1
f 374/1/6 375/2/6 376/3/6 377/4/6
f 377/1/2 376/2/2 373/3/2 372/4/2
f 370/1/4 373/2/4 376/3/4 375/4/4
f 378/1/1 370/2/1 379/3/1 380/4/1
f 381/1/6 382/2/6 383/3/6 375/4/6
f 382/1/2 380/2/2 379/3/2 383/4/2
f 375/1/3 383/2/3 379/3/3 370/4/3
f 378/1/4 380/2/4 382/3/4 381/4/4
f 384/1/1 378/2/1 380/3/1 385/4/1
f 386/1/6 387/2/6 382/3/6 381/4/6
f 387/1/2 385/2/2 380/3/2 382/4/2
f 381/1/3 382/2/3 380/3/3 378/4/3
f 384/1/4 385/2/4 387/3/4 386/4/4
f 388/1/1 384/2/1 389/3/1 390/4/1
f 391/1/6 392/2/6 393/3/6 386/4/6
f 392/1/2 390/2/2 389/3/2 393/4/2
f 386/1/3 393/2/3 389/3/3 384/4/3
f 388/1/4 390/2/4 392/3/4 391/4/4
f 394/1/1 388/2/1 395/3/1 396/4/1
f 397/1/6 398/2/6 399/3/6 391/4/6
f 398/1/2 396/2/2 395/3/2 399/4/2
f 391/1/3 399/2/3 395/3/3 388/4/3
f 394/1/4 396/2/4 398/3/4 397/4/4
f 400/1/1 394/2/1 401/3/1 402/4/1
f 403/1/6 404/2/6 405/3/6 397/4/6
f 404/1/2 402/2/2 401/3/2 405/4/2
f 397/1/3 405/2/3 401/3/3 394/4/3
f 400/1/4 402/2/4 404/3/4 403/4/4
f 406/1/1 407/2/1 408/3/1 409/4/1
f 410/1/6 411/2/6 412/3/6 413/4/6
f 413/1/2 412/2/2 409/3/2 408/4/2
f 406/1/4 409/2/4 412/3/4 411/4/4
f 414/1/1 415/2/1 416/3/1 417/4/1
f 418/1/6 419/2/6 420/3/6 421/4/6
f 419/1/2 417/2/2 416/3/2 420/4/2
f 421/1/3 420/2/3 416/3/3 415/4/3
f 414/1/4 417/2/4 419/3/4 418/4/4
f 422/1/1 423/2/1 424/3/1 425/4/1
f 426/1/6 427/2/6 428/3/6 429/4/6
f 427/1/2 425/2/2 424/3/2 428/4/2
f 429/1/3 428/2/3 424/3/3 423/4/3
f 422/1/4 425/2/4 427/3/4 426/4/4
f 430/1/1 431/2/1 432/3/1 433/4/1
f 434/1/6 435/2/6 436/3/6 437/4/6
f 435/1/2 433/2/2 432/3/2 436/4/2
f 437/1/3 436/2/3 432/3/3 431/4/3
f 430/1/4 433/2/4 435/3/4 434/4/4
f 438/1/1 430/2/1 433/3/1 439/4/1
f 440/1/6 441/2/6 435/3/6 434/4/6
f 441/1/2 439/2/2 433/3/2 435/4/2
f 434/1/3 435/2/3 433/3/3 430/4/3
f 438/1/4 439/2/4 441/3/4 440/4/4
f 442/1/1 443/2/1 444/3/1 445/4/1
f 446/1/6 447/2/6 448/3/6 449/4/6
f 447/1/2 445/2/2 444/3/2 448/4/2
f 449/1/3 448/2/3 444/3/3 443/4/3
f 442/1/4 445/2/4 447/3/4 446/4/4
f 450/1/1 451/2/1 452/3/1 453/4/1
f 454/1/6 455/2/6 456/3/6 457/4/6
f 455/1/2 453/2/2 452/3/2 456/4/2
f 457/1/3 456/2/3 452/3/3 451/4/3
f 450/1/4 453/2/4 455/3/4 454/4/4
f 458/1/1 459/2/1 460/3/1 461/4/1
f 462/1/6 463/2/6 464/3/6 465/4/6
f 463/1/2 461/2/2 460/3/2 464/4/2
f 465/1/3 464/2/3 460/3/3 459/4/3
f 458/1/4 461/2/4 463/3/4 462/4/4
f 466/1/1 467/2/1 468/3/1 469/4/1
f 470/1/6 471/2/6 472/3/6 473/4/6
f 471/1/2 469/2/2 468/3/2 472/4/2
f 473/1/3 472/2/3 468/3/3 467/4/3
f 466/1/4 469/2/4 471/3/4 470/4/4
f 474/1/1 475/2/1 476/3/1 477/4/1
f 478/1/6 479/2/6 480/3/6 481/4/6
f 479/1/2 477/2/2 476/3/2 480/4/2
f 481/1/3 480/2/3 476/3/3 475/4/3
f 474/1/4 477/2/4 479/3/4 478/4/4
f 482/1/1 483/2/1 484/3/1 485/4/1
f 486/1/6 487/2/6 488/3/6 489/4/6
f 487/1/2 485/2/2 484/3/2 488/4/2
f 489/1/3 488/2/3 484/3/3 483/4/3
f 482/1/4 485/2/4 487/3/4 486/4/4
f 490/1/1 491/2/1 492/3/1 493/4/1
f 494/1/6 495/2/6 496/3/6 497/4/6
f 495/1/2 493/2/2 492/3/2 496/4/2
f 497/1/3 496/2/3 492/3/3 491/4/3
f 490/1/4 493/2/4 495/3/4 494/4/4
f 498/1/1 499/2/1 500/3/1 501/4/1
f 502/1/6 503/2/6 504/3/6 505/4/6
f 503/1/2 501/2/2 500/3/2 504/4/2
f 505/1/3 504/2/3 500/3/3 499/4/3
f 498/1/4 501/2/4 503/3/4 502/4/4
f 506/1/1 507/2/1 508/3/1 509/4/1
f 510/1/6 511/2/6 512/3/6 513/4/6
f 511/1/2 509/2/2 508/3/2 512/4/2
f 513/1/3 512/2/3 508/3/3 507/4/3
f 506/1/4 509/2/4 511/3/4 510/4/4
f 514/1/1 515/2/1 516/3/1 517/4/1
f 518/1/6 519/2/6 520/3/6 521/4/6
f 519/1/2 517/2/2 516/3/2 520/4/2
f 521/1/3 520/2/3 516/3/3 515/4/3
f 514/1/4 517/2/4 519/3/4 518/4/4
f 522/1/1 523/2/1 524/3/1 525/4/1
f 526/1/6 527/2/6 528/3/6 529/4/6
f 527/1/2 525/2/2 524/3/2 528/4/2
f 529/1/3 528/2/3 524/3/3 523/4/3
f 522/1/4 525/2/4 527/3/4 526/4/4
f 530/1/1 514/2/1 517/3/1 531/4/1
f 532/1/6 533/2/6 519/3/6 518/4/6
f 533/1/2 531/2/2 517/3/2 519/4/2
f 518/1/3 519/2/3 517/3/3 514/4/3
f 530/1/4 531/2/4 533/3/4 532/4/4
f 534/1/1 522/2/1 525/3/1 535/4/1
f 536/1/6 537/2/6 527/3/6 526/4/6
f 537/1/2 535/2/2 525/3/2 527/4/2
f 526/1/3 527/2/3 525/3/3 522/4/3
f 534/1/4 535/2/4 537/3/4 536/4/4
f 538/1/1 539/2/1 540/3/1 541/4/1
f 542/1/6 543/2/6 544/3/6 545/4/6
f 543/1/2 541/2/2 540/3/2 544/4/2
f 545/1/3 544/2/3 540/3/3 539/4/3
f 538/1/4 541/2/4 543/3/4 542/4/4
f 546/1/1 547/2/1 548/3/1 549/4/1
f 550/1/6 551/2/6 552/3/6 553/4/6
f 551/1/2 549/2/2 548/3/2 552/4/2
f 553/1/3 552/2/3 548/3/3 547/4/3
f 546/1/4 549/2/4 551/3/4 550/4/4
f 554/1/1 555/2/1 556/3/1 557/4/1
f 558/1/6 559/2/6 560/3/6 561/4/6
f 559/1/2 557/2/2 556/3/2 560/4/2
f 561/1/3 560/2/3 556/3/3 555/4/3
f 554/1/4 557/2/4 559/3/4 558/4/4
f 562/1/1 563/2/1 564/3/1 565/4/1
f 566/1/6 567/2/6 568/3/6 569/4/6
f 567/1/2 565/2/2 564/3/2 568/4/2
f 569/1/3 568/2/3 564/3/3 563/4/3
f 562/1/4 565/2/4 567/3/4 566/4/4
f 570/1/1 571/2/1 572/3/1 573/4/1
f 574/1/6 575/2/6 576/3/6 577/4/6
f 575/1/2 573/2/2 572/3/2 576/4/2
f 577/1/3 576/2/3 572/3/3 571/4/3
f 570/1/4 573/2/4 575/3/4 574/4/4
f 578/1/1 579/2/1 580/3/1 581/4/1
f 582/1/6 583/2/6 584/3/6 585/4/6
f 583/1/2 581/2/2 580/3/2 584/4/2
f 585/1/3 584/2/3 580/3/3 579/4/3
f 578/1/4 581/2/4 583/3/4 582/4/4
f 586/1/6 587/2/6 588/3/6 589/4/6
f 589/1/2 588/2/2 590/3/2 591/4/2
f 592/1/4 590/2/4 588/3/4 587/4/4
f 593/1/6 594/2/6 595/3/6 596/4/6
f 596/1/2 595/2/2 597/3/2 598/4/2
f 599/1/4 597/2/4 595/3/4 594/4/4
f 600/1/2 601/2/2 602/3/2 603/4/2
f 604/1/5 605/2/5 606/3/5 607/4/5
f 607/1/4 606/2/4 602/3/4 601/4/4
f 608/1/2 609/2/2 610/3/2 611/4/2
f 612/1/5 613/2/5 614/3/5 615/4/5
f 613/1/3 612/2/3 611/3/3 610/4/3
f 615/1/4 614/2/4 609/3/4 608/4/4
f 616/1/2 617/2/2 618/3/2 619/4/2
f 620/1/5 621/2/5 622/3/5 623/4/5
f 621/1/3 620/2/3 619/3/3 618/4/3
f 623/1/4 622/2/4 617/3/4 616/4/4
usemtl step_color_007
f 624/1/1 625/2/1 626/3/1 627/4/1
f 628/1/6 629/2/6 630/3/6 631/4/6
f 628/1/2 627/2/2 626/3/2 629/4/2
f 630/1/5 625/2/5 624/3/5 631/4/5
f 630/1/3 629/2/3 626/3/3 625/4/3
f 624/1/4 627/2/4 628/3/4 631/4/4
f 632/1/1 633/2/1 634/3/1 635/4/1
f 636/1/6 637/2/6 638/3/6 639/4/6
f 636/1/2 635/2/2 634/3/2 637/4/2
f 638/1/5 633/2/5 632/3/5 639/4/5
f 638/1/3 637/2/3 634/3/3 633/4/3
f 632/1/4 635/2/4 636/3/4 639/4/4
f 640/1/1 641/2/1 642/3/1 643/4/1
f 644/1/6 645/2/6 646/3/6 647/4/6
f 644/1/2 643/2/2 642/3/2 645/4/2
f 646/1/5 641/2/5 640/3/5 647/4/5
f 646/1/3 645/2/3 642/3/3 641/4/3
f 640/1/4 643/2/4 644/3/4 647/4/4
f 648/1/1 649/2/1 650/3/1 651/4/1
f 652/1/6 653/2/6 654/3/6 655/4/6
f 652/1/2 651/2/2 650/3/2 653/4/2
f 654/1/5 649/2/5 648/3/5 655/4/5
f 654/1/3 653/2/3 650/3/3 649/4/3
f 648/1/4 651/2/4 652/3/4 655/4/4
f 656/1/1 657/2/1 658/3/1 659/4/1
f 660/1/6 661/2/6 662/3/6 663/4/6
f 660/1/2 659/2/2 658/3/2 661/4/2
f 662/1/5 657/2/5 656/3/5 663/4/5
f 662/1/3 661/2/3 658/3/3 657/4/3
f 656/1/4 659/2/4 660/3/4 663/4/4
f 664/1/1 665/2/1 666/3/1 667/4/1
f 668/1/6 669/2/6 670/3/6 671/4/6
f 668/1/2 667/2/2 666/3/2 669/4/2
f 670/1/5 665/2/5 664/3/5 671/4/5
f 670/1/3 669/2/3 666/3/3 665/4/3
f 664/1/4 667/2/4 668/3/4 671/4/4
f 672/1/1 673/2/1 674/3/1 675/4/1
f 676/1/6 677/2/6 678/3/6 679/4/6
f 676/1/2 675/2/2 674/3/2 677/4/2
f 678/1/5 673/2/5 672/3/5 679/4/5
f 678/1/3 677/2/3 674/3/3 673/4/3
f 672/1/4 675/2/4 676/3/4 679/4/4
f 680/1/1 681/2/1 682/3/1 683/4/1
f 684/1/6 685/2/6 686/3/6 687/4/6
f 684/1/2 683/2/2 682/3/2 685/4/2
f 686/1/5 681/2/5 680/3/5 687/4/5
f 686/1/3 685/2/3 682/3/3 681/4/3
f 680/1/4 683/2/4 684/3/4 687/4/4
f 688/1/1 672/2/1 675/3/1 689/4/1
f 690/1/6 676/2/6 679/3/6 691/4/6
f 690/1/2 689/2/2 675/3/2 676/4/2
f 679/1/5 672/2/5 688/3/5 691/4/5
f 679/1/3 676/2/3 675/3/3 672/4/3
f 688/1/4 689/2/4 690/3/4 691/4/4
f 692/1/1 680/2/1 683/3/1 693/4/1
f 694/1/6 684/2/6 687/3/6 695/4/6
f 694/1/2 693/2/2 683/3/2 684/4/2
f 687/1/5 680/2/5 692/3/5 695/4/5
f 687/1/3 684/2/3 683/3/3 680/4/3
f 692/1/4 693/2/4 694/3/4 695/4/4
f 696/1/1 697/2/1 698/3/1 699/4/1
f 700/1/6 701/2/6 702/3/6 703/4/6
f 700/1/2 699/2/2 698/3/2 701/4/2
f 702/1/5 697/2/5 696/3/5 703/4/5
f 702/1/3 701/2/3 698/3/3 697/4/3
f 696/1/4 699/2/4 700/3/4 703/4/4
f 704/1/1 705/2/1 706/3/1 707/4/1
f 708/1/6 709/2/6 710/3/6 711/4/6
f 708/1/2 707/2/2 706/3/2 709/4/2
f 710/1/5 705/2/5 704/3/5 711/4/5
f 710/1/3 709/2/3 706/3/3 705/4/3
f 704/1/4 707/2/4 708/3/4 711/4/4
f 712/1/1 713/2/1 714/3/1 715/4/1
f 716/1/6 717/2/6 718/3/6 719/4/6
f 716/1/2 715/2/2 714/3/2 717/4/2
f 718/1/5 713/2/5 712/3/5 719/4/5
f 718/1/3 717/2/3 714/3/3 713/4/3
f 712/1/4 715/2/4 716/3/4 719/4/4
f 720/1/1 721/2/1 722/3/1 723/4/1
f 724/1/6 725/2/6 726/3/6 727/4/6
f 724/1/2 723/2/2 722/3/2 725/4/2
f 726/1/5 721/2/5 720/3/5 727/4/5
f 726/1/3 725/2/3 722/3/3 721/4/3
f 720/1/4 723/2/4 724/3/4 727/4/4
f 728/1/1 729/2/1 730/3/1 731/4/1
f 732/1/6 733/2/6 734/3/6 735/4/6
f 732/1/2 731/2/2 730/3/2 733/4/2
f 734/1/5 729/2/5 728/3/5 735/4/5
f 734/1/3 733/2/3 730/3/3 729/4/3
f 728/1/4 731/2/4 732/3/4 735/4/4
f 736/1/1 737/2/1 738/3/1 739/4/1
f 740/1/6 741/2/6 742/3/6 743/4/6
f 740/1/2 739/2/2 738/3/2 741/4/2
f 742/1/5 737/2/5 736/3/5 743/4/5
f 742/1/3 741/2/3 738/3/3 737/4/3
f 736/1/4 739/2/4 740/3/4 743/4/4
f 744/1/1 745/2/1 746/3/1 747/4/1
f 748/1/6 749/2/6 750/3/6 751/4/6
f 749/1/2 748/2/2 747/3/2 746/4/2
f 750/1/5 745/2/5 744/3/5 751/4/5
f 744/1/4 747/2/4 748/3/4 751/4/4
f 752/1/1 753/2/1 754/3/1 755/4/1
f 756/1/6 757/2/6 758/3/6 759/4/6
f 756/1/2 755/2/2 754/3/2 757/4/2
f 758/1/5 753/2/5 752/3/5 759/4/5
f 758/1/3 757/2/3 754/3/3 753/4/3
f 752/1/4 755/2/4 756/3/4 759/4/4
f 760/1/1 761/2/1 762/3/1 763/4/1
f 764/1/6 765/2/6 766/3/6 767/4/6
f 764/1/2 763/2/2 762/3/2 765/4/2
f 766/1/5 761/2/5 760/3/5 767/4/5
f 766/1/3 765/2/3 762/3/3 761/4/3
f 760/1/4 763/2/4 764/3/4 767/4/4
f 768/1/1 760/2/1 763/3/1 769/4/1
f 770/1/6 764/2/6 767/3/6 771/4/6
f 770/1/2 769/2/2 763/3/2 764/4/2
f 767/1/5 760/2/5 768/3/5 771/4/5
f 767/1/3 764/2/3 763/3/3 760/4/3
f 768/1/4 769/2/4 770/3/4 771/4/4
f 772/1/1 773/2/1 774/3/1 775/4/1
f 776/1/6 777/2/6 778/3/6 779/4/6
f 776/1/2 775/2/2 774/3/2 777/4/2
f 778/1/5 773/2/5 772/3/5 779/4/5
f 778/1/3 777/2/3 774/3/3 773/4/3
f 772/1/4 775/2/4 776/3/4 779/4/4
f 780/1/1 781/2/1 782/3/1 783/4/1
f 784/1/6 785/2/6 786/3/6 787/4/6
f 784/1/2 783/2/2 782/3/2 785/4/2
f 786/1/5 781/2/5 780/3/5 787/4/5
f 786/1/3 785/2/3 782/3/3 781/4/3
f 780/1/4 783/2/4 784/3/4 787/4/4
f 788/1/1 789/2/1 790/3/1 791/4/1
f 792/1/6 793/2/6 794/3/6 795/4/6
f 792/1/2 791/2/2 790/3/2 793/4/2
f 794/1/5 789/2/5 788/3/5 795/4/5
f 794/1/3 793/2/3 790/3/3 789/4/3
f 788/1/4 791/2/4 792/3/4 795/4/4
f 796/1/1 797/2/1 798/3/1 799/4/1
f 800/1/6 801/2/6 802/3/6 803/4/6
f 800/1/2 799/2/2 798/3/2 801/4/2
f 802/1/5 797/2/5 796/3/5 803/4/5
f 802/1/3 801/2/3 798/3/3 797/4/3
f 796/1/4 799/2/4 800/3/4 803/4/4
f 804/1/6 805/2/6 806/3/6 807/4/6
f 804/1/2 808/2/2 809/3/2 805/4/2
f 806/1/5 810/2/5 811/3/5 807/4/5
f 810/1/3 806/2/3 805/3/3 809/4/3
f 811/1/4 808/2/4 804/3/4 807/4/4
f 812/1/1 813/2/1 814/3/1 815/4/1
f 816/1/6 817/2/6 818/3/6 819/4/6
f 816/1/2 815/2/2 814/3/2 817/4/2
f 818/1/5 813/2/5 812/3/5 819/4/5
f 818/1/3 817/2/3 814/3/3 813/4/3
f 812/1/4 815/2/4 816/3/4 819/4/4
f 820/1/6 821/2/6 822/3/6 823/4/6
f 820/1/2 808/2/2 809/3/2 821/4/2
f 822/1/5 810/2/5 811/3/5 823/4/5
f 810/1/3 822/2/3 821/3/3 809/4/3
f 811/1/4 808/2/4 820/3/4 823/4/4
