# Generated by tools-import-turbines.py; estimated STEP scale.
mtllib materials.mtl
s off
v 0.125000000 0.343750000 1.000000000
v 0.125000000 0.343750000 0.000000000
v 0.125000000 0.031250000 0.000000000
v 0.125000000 0.031250000 1.000000000
v 0.250000000 0.031250000 1.000000000
v 0.250000000 0.031250000 0.000000000
v 0.250000000 0.343750000 0.000000000
v 0.250000000 0.343750000 1.000000000
v 0.190625000 0.726446528 0.564718288
v 0.190625000 0.726446528 0.514718288
v 0.190625000 0.676446528 0.514718288
v 0.190625000 0.676446528 0.564718288
v 0.240625000 0.676446528 0.564718288
v 0.240625000 0.676446528 0.514718288
v 0.240625000 0.726446528 0.514718288
v 0.240625000 0.726446528 0.564718288
v 0.190625000 0.681250000 0.337500000
v 0.190625000 0.681250000 0.287500000
v 0.190625000 0.631250000 0.287500000
v 0.190625000 0.631250000 0.337500000
v 0.240625000 0.631250000 0.337500000
v 0.240625000 0.631250000 0.287500000
v 0.240625000 0.681250000 0.287500000
v 0.240625000 0.681250000 0.337500000
v 0.190625000 0.726446528 0.110281712
v 0.190625000 0.726446528 0.060281712
v 0.190625000 0.676446528 0.060281712
v 0.190625000 0.676446528 0.110281712
v 0.240625000 0.676446528 0.110281712
v 0.240625000 0.676446528 0.060281712
v 0.240625000 0.726446528 0.060281712
v 0.240625000 0.726446528 0.110281712
v 0.190625000 1.000000000 0.886053472
v 0.190625000 1.000000000 0.836053472
v 0.190625000 0.997781712 0.836053472
v 0.190625000 0.997781712 0.886053472
v 0.240625000 1.000000000 0.886053472
v 0.240625000 0.997781712 0.886053472
v 0.240625000 0.997781712 0.836053472
v 0.240625000 1.000000000 0.836053472
v 0.190625000 0.855155349 0.757344651
v 0.190625000 0.855155349 0.707344651
v 0.190625000 0.805155349 0.707344651
v 0.190625000 0.805155349 0.757344651
v 0.240625000 0.805155349 0.757344651
v 0.240625000 0.805155349 0.707344651
v 0.240625000 0.855155349 0.707344651
v 0.240625000 0.855155349 0.757344651
v 0.312500000 1.000000000 0.018750000
v 0.312500000 1.000000000 0.000000000
v 0.312500000 0.791382959 0.000000000
v 0.312500000 0.791382959 0.018750000
v 0.937500000 1.000000000 0.000000000
v 0.937500000 1.000000000 0.018750000
v 0.937500000 0.791382959 0.018750000
v 0.937500000 0.791382959 0.000000000
v 0.312500000 1.000000000 0.165625000
v 0.312500000 0.705372924 0.018750000
v 0.312500000 0.705372924 0.165625000
v 0.937500000 1.000000000 0.165625000
v 0.937500000 0.705372924 0.165625000
v 0.937500000 0.705372924 0.018750000
v 0.312500000 1.000000000 0.312500000
v 0.312500000 0.667107914 0.165625000
v 0.312500000 0.667107914 0.312500000
v 0.937500000 1.000000000 0.312500000
v 0.937500000 0.667107914 0.312500000
v 0.937500000 0.667107914 0.165625000
v 0.312500000 1.000000000 0.459375000
v 0.312500000 0.667107914 0.459375000
v 0.937500000 1.000000000 0.459375000
v 0.937500000 0.667107914 0.459375000
v 0.312500000 1.000000000 0.606250000
v 0.312500000 0.705372924 0.459375000
v 0.312500000 0.705372924 0.606250000
v 0.937500000 1.000000000 0.606250000
v 0.937500000 0.705372924 0.606250000
v 0.937500000 0.705372924 0.459375000
v 0.312500000 1.000000000 0.753125000
v 0.312500000 0.791382959 0.606250000
v 0.312500000 0.791382959 0.753125000
v 0.937500000 1.000000000 0.753125000
v 0.937500000 0.791382959 0.753125000
v 0.937500000 0.791382959 0.606250000
v 0.312500000 1.000000000 0.900000000
v 0.312500000 0.965577786 0.753125000
v 0.312500000 0.965577786 0.900000000
v 0.937500000 1.000000000 0.900000000
v 0.937500000 0.965577786 0.900000000
v 0.937500000 0.965577786 0.753125000
v 0.875000000 1.000000000 0.082812500
v 0.875000000 1.000000000 0.000000000
v 0.875000000 0.835795955 0.000000000
v 0.875000000 0.835795955 0.082812500
v 1.000000000 0.835795955 0.000000000
v 1.000000000 0.835795955 0.082812500
v 1.000000000 1.000000000 0.082812500
v 0.875000000 1.000000000 0.312500000
v 0.875000000 0.775955994 0.082812500
v 0.875000000 0.775955994 0.312500000
v 1.000000000 0.775955994 0.312500000
v 1.000000000 0.775955994 0.082812500
v 1.000000000 1.000000000 0.312500000
v 0.875000000 1.000000000 0.542187500
v 0.875000000 0.775955994 0.542187500
v 1.000000000 0.775955994 0.542187500
v 1.000000000 1.000000000 0.542187500
v 0.875000000 1.000000000 0.771875000
v 0.875000000 0.835795955 0.542187500
v 0.875000000 0.835795955 0.771875000
v 1.000000000 0.835795955 0.771875000
v 1.000000000 0.835795955 0.542187500
v 1.000000000 1.000000000 0.771875000
v 0.875000000 1.000000000 1.000000000
v 0.875000000 0.970301011 0.771875000
v 0.875000000 0.970301011 1.000000000
v 1.000000000 0.970301011 1.000000000
v 1.000000000 0.970301011 0.771875000
v 0.093750000 0.453125000 1.000000000
v 0.093750000 0.453125000 0.000000000
v 0.093750000 0.371875000 0.000000000
v 0.093750000 0.371875000 1.000000000
v 1.000000000 0.371875000 0.000000000
v 1.000000000 0.371875000 1.000000000
v 1.000000000 0.453125000 1.000000000
v 1.000000000 0.453125000 0.000000000
v 0.250000000 1.000000000 0.151562500
v 0.250000000 1.000000000 0.000000000
v 0.250000000 0.653227778 0.000000000
v 0.250000000 0.653227778 0.151562500
v 0.337500000 1.000000000 0.000000000
v 0.337500000 1.000000000 0.151562500
v 0.337500000 0.653227778 0.151562500
v 0.337500000 0.653227778 0.000000000
v 0.250000000 1.000000000 0.312500000
v 0.250000000 0.611299098 0.151562500
v 0.250000000 0.611299098 0.312500000
v 0.337500000 1.000000000 0.312500000
v 0.337500000 0.611299098 0.312500000
v 0.337500000 0.611299098 0.151562500
v 0.250000000 1.000000000 0.473437500
v 0.250000000 0.611299098 0.473437500
v 0.337500000 1.000000000 0.473437500
v 0.337500000 0.611299098 0.473437500
v 0.250000000 1.000000000 0.634375000
v 0.250000000 0.653227778 0.473437500
v 0.250000000 0.653227778 0.634375000
v 0.337500000 1.000000000 0.634375000
v 0.337500000 0.653227778 0.634375000
v 0.337500000 0.653227778 0.473437500
v 0.250000000 1.000000000 0.795312500
v 0.250000000 0.747472817 0.634375000
v 0.250000000 0.747472817 0.795312500
v 0.337500000 1.000000000 0.795312500
v 0.337500000 0.747472817 0.795312500
v 0.337500000 0.747472817 0.634375000
v 0.250000000 1.000000000 0.956250000
v 0.250000000 0.938345871 0.795312500
v 0.250000000 0.938345871 0.956250000
v 0.337500000 1.000000000 0.956250000
v 0.337500000 0.938345871 0.956250000
v 0.337500000 0.938345871 0.795312500
vt 0 0
vt 1 0
vt 1 1
vt 0 1
vn -1.000000000 -0.000000000 0.000000000
vn 0.000000000 -1.000000000 -0.000000000
vn -0.000000000 -0.000000000 -1.000000000
vn 0.000000000 0.000000000 1.000000000
vn -0.000000000 1.000000000 0.000000000
vn 1.000000000 0.000000000 -0.000000000
usemtl step_color_001
f 1/1/1 2/2/1 3/3/1 4/4/1
f 5/1/6 6/2/6 7/3/6 8/4/6
f 6/1/2 5/2/2 4/3/2 3/4/2
f 8/1/5 7/2/5 2/3/5 1/4/5
usemtl step_color_002
f 9/1/1 10/2/1 11/3/1 12/4/1
f 13/1/6 14/2/6 15/3/6 16/4/6
f 13/1/2 12/2/2 11/3/2 14/4/2
f 15/1/5 10/2/5 9/3/5 16/4/5
f 15/1/3 14/2/3 11/3/3 10/4/3
f 9/1/4 12/2/4 13/3/4 16/4/4
f 17/1/1 18/2/1 19/3/1 20/4/1
f 21/1/6 22/2/6 23/3/6 24/4/6
f 21/1/2 20/2/2 19/3/2 22/4/2
f 23/1/5 18/2/5 17/3/5 24/4/5
f 23/1/3 22/2/3 19/3/3 18/4/3
f 17/1/4 20/2/4 21/3/4 24/4/4
f 25/1/1 26/2/1 27/3/1 28/4/1
f 29/1/6 30/2/6 31/3/6 32/4/6
f 29/1/2 28/2/2 27/3/2 30/4/2
f 31/1/5 26/2/5 25/3/5 32/4/5
f 31/1/3 30/2/3 27/3/3 26/4/3
f 25/1/4 28/2/4 29/3/4 32/4/4
f 33/1/1 34/2/1 35/3/1 36/4/1
f 37/1/6 38/2/6 39/3/6 40/4/6
f 38/1/2 36/2/2 35/3/2 39/4/2
f 40/1/3 39/2/3 35/3/3 34/4/3
f 33/1/4 36/2/4 38/3/4 37/4/4
f 41/1/1 42/2/1 43/3/1 44/4/1
f 45/1/6 46/2/6 47/3/6 48/4/6
f 45/1/2 44/2/2 43/3/2 46/4/2
f 47/1/5 42/2/5 41/3/5 48/4/5
f 47/1/3 46/2/3 43/3/3 42/4/3
f 41/1/4 44/2/4 45/3/4 48/4/4
usemtl step_color_005
f 49/1/1 50/2/1 51/3/1 52/4/1
f 53/1/6 54/2/6 55/3/6 56/4/6
f 56/1/2 55/2/2 52/3/2 51/4/2
f 49/1/4 52/2/4 55/3/4 54/4/4
f 57/1/1 49/2/1 58/3/1 59/4/1
f 60/1/6 61/2/6 62/3/6 54/4/6
f 61/1/2 59/2/2 58/3/2 62/4/2
f 54/1/3 62/2/3 58/3/3 49/4/3
f 57/1/4 59/2/4 61/3/4 60/4/4
f 63/1/1 57/2/1 64/3/1 65/4/1
f 66/1/6 67/2/6 68/3/6 60/4/6
f 67/1/2 65/2/2 64/3/2 68/4/2
f 60/1/3 68/2/3 64/3/3 57/4/3
f 63/1/4 65/2/4 67/3/4 66/4/4
f 69/1/1 63/2/1 65/3/1 70/4/1
f 71/1/6 72/2/6 67/3/6 66/4/6
f 72/1/2 70/2/2 65/3/2 67/4/2
f 66/1/3 67/2/3 65/3/3 63/4/3
f 69/1/4 70/2/4 72/3/4 71/4/4
f 73/1/1 69/2/1 74/3/1 75/4/1
f 76/1/6 77/2/6 78/3/6 71/4/6
f 77/1/2 75/2/2 74/3/2 78/4/2
f 71/1/3 78/2/3 74/3/3 69/4/3
f 73/1/4 75/2/4 77/3/4 76/4/4
f 79/1/1 73/2/1 80/3/1 81/4/1
f 82/1/6 83/2/6 84/3/6 76/4/6
f 83/1/2 81/2/2 80/3/2 84/4/2
f 76/1/3 84/2/3 80/3/3 73/4/3
f 79/1/4 81/2/4 83/3/4 82/4/4
f 85/1/1 79/2/1 86/3/1 87/4/1
f 88/1/6 89/2/6 90/3/6 82/4/6
f 89/1/2 87/2/2 86/3/2 90/4/2
f 82/1/3 90/2/3 86/3/3 79/4/3
f 85/1/4 87/2/4 89/3/4 88/4/4
f 91/1/1 92/2/1 93/3/1 94/4/1
f 95/1/2 96/2/2 94/3/2 93/4/2
f 97/1/4 91/2/4 94/3/4 96/4/4
f 98/1/1 91/2/1 99/3/1 100/4/1
f 101/1/2 100/2/2 99/3/2 102/4/2
f 97/1/3 102/2/3 99/3/3 91/4/3
f 103/1/4 98/2/4 100/3/4 101/4/4
f 104/1/1 98/2/1 100/3/1 105/4/1
f 106/1/2 105/2/2 100/3/2 101/4/2
f 103/1/3 101/2/3 100/3/3 98/4/3
f 107/1/4 104/2/4 105/3/4 106/4/4
f 108/1/1 104/2/1 109/3/1 110/4/1
f 111/1/2 110/2/2 109/3/2 112/4/2
f 107/1/3 112/2/3 109/3/3 104/4/3
f 113/1/4 108/2/4 110/3/4 111/4/4
f 114/1/1 108/2/1 115/3/1 116/4/1
f 117/1/2 116/2/2 115/3/2 118/4/2
f 113/1/3 118/2/3 115/3/3 108/4/3
f 119/1/1 120/2/1 121/3/1 122/4/1
f 123/1/2 124/2/2 122/3/2 121/4/2
f 125/1/5 126/2/5 120/3/5 119/4/5
usemtl step_color_006
f 127/1/1 128/2/1 129/3/1 130/4/1
f 131/1/6 132/2/6 133/3/6 134/4/6
f 134/1/2 133/2/2 130/3/2 129/4/2
f 127/1/4 130/2/4 133/3/4 132/4/4
f 135/1/1 127/2/1 136/3/1 137/4/1
f 138/1/6 139/2/6 140/3/6 132/4/6
f 139/1/2 137/2/2 136/3/2 140/4/2
f 132/1/3 140/2/3 136/3/3 127/4/3
f 135/1/4 137/2/4 139/3/4 138/4/4
f 141/1/1 135/2/1 137/3/1 142/4/1
f 143/1/6 144/2/6 139/3/6 138/4/6
f 144/1/2 142/2/2 137/3/2 139/4/2
f 138/1/3 139/2/3 137/3/3 135/4/3
f 141/1/4 142/2/4 144/3/4 143/4/4
f 145/1/1 141/2/1 146/3/1 147/4/1
f 148/1/6 149/2/6 150/3/6 143/4/6
f 149/1/2 147/2/2 146/3/2 150/4/2
f 143/1/3 150/2/3 146/3/3 141/4/3
f 145/1/4 147/2/4 149/3/4 148/4/4
f 151/1/1 145/2/1 152/3/1 153/4/1
f 154/1/6 155/2/6 156/3/6 148/4/6
f 155/1/2 153/2/2 152/3/2 156/4/2
f 148/1/3 156/2/3 152/3/3 145/4/3
f 151/1/4 153/2/4 155/3/4 154/4/4
f 157/1/1 151/2/1 158/3/1 159/4/1
f 160/1/6 161/2/6 162/3/6 154/4/6
f 161/1/2 159/2/2 158/3/2 162/4/2
f 154/1/3 162/2/3 158/3/3 151/4/3
f 157/1/4 159/2/4 161/3/4 160/4/4
