# Generated by tools-import-turbines.py; estimated STEP scale.
mtllib materials.mtl
s off
v 1.000000000 0.691250000 0.341875000
v 0.977461139 0.730288453 0.341875000
v 0.977461139 0.730288453 0.336875000
v 1.000000000 0.691250000 0.336875000
v 1.000000000 0.708750000 0.341875000
v 1.000000000 0.708750000 0.336875000
v 0.985038861 0.734663453 0.336875000
v 0.985038861 0.734663453 0.341875000
v 0.960665013 0.626562500 0.331250000
v 0.960665013 0.626562500 0.293750000
v 0.960665013 0.606250000 0.293750000
v 0.960665013 0.606250000 0.331250000
v 1.000000000 0.606250000 0.331250000
v 1.000000000 0.606250000 0.293750000
v 1.000000000 0.626562500 0.293750000
v 1.000000000 0.626562500 0.331250000
v 0.936574239 0.646875000 0.331250000
v 0.936574239 0.646875000 0.293750000
v 0.936574239 0.626562500 0.293750000
v 0.936574239 0.626562500 0.331250000
v 1.000000000 0.646875000 0.293750000
v 1.000000000 0.646875000 0.331250000
v 0.924679234 0.667187500 0.331250000
v 0.924679234 0.667187500 0.293750000
v 0.924679234 0.646875000 0.293750000
v 0.924679234 0.646875000 0.331250000
v 1.000000000 0.667187500 0.293750000
v 1.000000000 0.667187500 0.331250000
v 0.919387265 0.687500000 0.331250000
v 0.919387265 0.687500000 0.293750000
v 0.919387265 0.667187500 0.293750000
v 0.919387265 0.667187500 0.331250000
v 1.000000000 0.687500000 0.293750000
v 1.000000000 0.687500000 0.331250000
v 0.919387265 0.707812500 0.331250000
v 0.919387265 0.707812500 0.293750000
v 1.000000000 0.707812500 0.293750000
v 1.000000000 0.707812500 0.331250000
v 0.924679234 0.728125000 0.331250000
v 0.924679234 0.728125000 0.293750000
v 0.924679234 0.707812500 0.293750000
v 0.924679234 0.707812500 0.331250000
v 1.000000000 0.728125000 0.293750000
v 1.000000000 0.728125000 0.331250000
v 0.936574239 0.748437500 0.331250000
v 0.936574239 0.748437500 0.293750000
v 0.936574239 0.728125000 0.293750000
v 0.936574239 0.728125000 0.331250000
v 1.000000000 0.748437500 0.293750000
v 1.000000000 0.748437500 0.331250000
v 0.960665013 0.768750000 0.331250000
v 0.960665013 0.768750000 0.293750000
v 0.960665013 0.748437500 0.293750000
v 0.960665013 0.748437500 0.331250000
v 1.000000000 0.768750000 0.293750000
v 1.000000000 0.768750000 0.331250000
v 0.162500000 0.787500000 0.275000000
v 0.162500000 0.787500000 0.225000000
v 0.162500000 0.712500000 0.225000000
v 0.162500000 0.712500000 0.275000000
v 0.212500000 0.712500000 0.275000000
v 0.212500000 0.712500000 0.225000000
v 0.212500000 0.787500000 0.225000000
v 0.212500000 0.787500000 0.275000000
v 0.412500000 0.787500000 0.275000000
v 0.412500000 0.787500000 0.225000000
v 0.412500000 0.712500000 0.225000000
v 0.412500000 0.712500000 0.275000000
v 0.462500000 0.712500000 0.275000000
v 0.462500000 0.712500000 0.225000000
v 0.462500000 0.787500000 0.225000000
v 0.462500000 0.787500000 0.275000000
v 0.662500000 0.787500000 0.275000000
v 0.662500000 0.787500000 0.225000000
v 0.662500000 0.712500000 0.225000000
v 0.662500000 0.712500000 0.275000000
v 0.712500000 0.712500000 0.275000000
v 0.712500000 0.712500000 0.225000000
v 0.712500000 0.787500000 0.225000000
v 0.712500000 0.787500000 0.275000000
v 0.912500000 0.787500000 0.275000000
v 0.912500000 0.787500000 0.225000000
v 0.912500000 0.712500000 0.225000000
v 0.912500000 0.712500000 0.275000000
v 0.962500000 0.712500000 0.275000000
v 0.962500000 0.712500000 0.225000000
v 0.962500000 0.787500000 0.225000000
v 0.962500000 0.787500000 0.275000000
v 0.055416927 0.012644160 0.193750000
v 0.055416927 0.012644160 0.181250000
v 0.023064546 0.133384888 0.181250000
v 0.023064546 0.133384888 0.193750000
v 0.008228281 0.000000000 0.193750000
v 0.008228281 0.000000000 0.181250000
v 0.000000000 0.127204761 0.181250000
v 0.000000000 0.127204761 0.193750000
v 0.000000000 0.000000000 0.181250000
v 0.000000000 0.000000000 0.193750000
v 0.656250000 0.000000000 0.000000000
v 0.656250000 0.000000000 0.062500000
v 0.656250000 0.218750000 0.062500000
v 0.656250000 0.218750000 0.000000000
v 1.000000000 0.218750000 0.000000000
v 1.000000000 0.218750000 0.062500000
v 1.000000000 0.000000000 0.062500000
v 1.000000000 0.000000000 0.001562500
v 1.000000000 1.000000000 0.001562500
v 0.000000000 1.000000000 0.001562500
v 0.000000000 0.000000000 0.001562500
v 1.000000000 0.242712069 0.231250000
v 0.000000000 0.242712069 0.231250000
v 0.000000000 0.242712069 0.001562500
v 1.000000000 0.242712069 0.001562500
v 1.000000000 1.000000000 0.231250000
v 0.000000000 1.000000000 0.231250000
v 0.465625000 1.000000000 0.159375000
v 0.465625000 1.000000000 0.000000000
v 0.465625000 0.875000000 0.000000000
v 0.465625000 0.875000000 0.159375000
v 0.659375000 1.000000000 0.000000000
v 0.659375000 1.000000000 0.159375000
v 0.659375000 0.875000000 0.159375000
v 0.659375000 0.875000000 0.000000000
v 0.465625000 0.375000000 0.000000000
v 0.465625000 0.375000000 0.159375000
v 0.659375000 0.375000000 0.159375000
v 0.659375000 0.375000000 0.000000000
v 0.250000000 0.471875000 0.159375000
v 0.250000000 0.471875000 0.000000000
v 0.250000000 0.278125000 0.000000000
v 0.250000000 0.278125000 0.159375000
v 0.562500000 0.278125000 0.159375000
v 0.562500000 0.278125000 0.000000000
v 0.562500000 0.471875000 0.000000000
v 0.562500000 0.471875000 0.159375000
v 0.153125000 0.471875000 0.062500000
v 0.153125000 0.471875000 0.000000000
v 0.153125000 0.278125000 0.000000000
v 0.153125000 0.278125000 0.062500000
v 0.346875000 0.278125000 0.062500000
v 0.346875000 0.278125000 0.000000000
v 0.346875000 0.471875000 0.000000000
v 0.346875000 0.471875000 0.062500000
v 1.000000000 0.653125000 0.000000000
v 1.000000000 0.653125000 0.281250000
v 0.000000000 0.653125000 0.281250000
v 0.000000000 0.653125000 0.000000000
v 1.000000000 0.721875000 0.000000000
v 0.000000000 0.721875000 0.000000000
v 0.000000000 0.721875000 0.281250000
v 1.000000000 0.721875000 0.281250000
v 0.423437500 0.000000000 0.264062500
v 0.423437500 0.125000000 0.264062500
v 0.423437500 0.125000000 0.235937500
v 0.423437500 0.000000000 0.235937500
v 0.451562500 0.000000000 0.264062500
v 0.451562500 0.000000000 0.235937500
v 0.451562500 0.125000000 0.235937500
v 0.451562500 0.125000000 0.264062500
v 0.423437500 0.139062500 0.250000000
v 0.423437500 0.139062500 0.000000000
v 0.423437500 0.110937500 0.000000000
v 0.423437500 0.110937500 0.250000000
v 0.451562500 0.110937500 0.250000000
v 0.451562500 0.110937500 0.000000000
v 0.451562500 0.139062500 0.000000000
v 0.451562500 0.139062500 0.250000000
v 0.298437500 0.000000000 0.264062500
v 0.298437500 0.312500000 0.264062500
v 0.298437500 0.312500000 0.235937500
v 0.298437500 0.000000000 0.235937500
v 0.326562500 0.000000000 0.264062500
v 0.326562500 0.000000000 0.235937500
v 0.326562500 0.312500000 0.235937500
v 0.326562500 0.312500000 0.264062500
v 0.298437500 0.326562500 0.250000000
v 0.298437500 0.326562500 0.000000000
v 0.298437500 0.298437500 0.000000000
v 0.298437500 0.298437500 0.250000000
v 0.326562500 0.298437500 0.250000000
v 0.326562500 0.298437500 0.000000000
v 0.326562500 0.326562500 0.000000000
v 0.326562500 0.326562500 0.250000000
v 0.173437500 0.000000000 0.264062500
v 0.173437500 0.500000000 0.264062500
v 0.173437500 0.500000000 0.235937500
v 0.173437500 0.000000000 0.235937500
v 0.201562500 0.000000000 0.264062500
v 0.201562500 0.000000000 0.235937500
v 0.201562500 0.500000000 0.235937500
v 0.201562500 0.500000000 0.264062500
v 0.173437500 0.514062500 0.250000000
v 0.173437500 0.514062500 0.000000000
v 0.173437500 0.485937500 0.000000000
v 0.173437500 0.485937500 0.250000000
v 0.201562500 0.485937500 0.250000000
v 0.201562500 0.485937500 0.000000000
v 0.201562500 0.514062500 0.000000000
v 0.201562500 0.514062500 0.250000000
v 0.966716549 0.635937500 0.337500000
v 0.966716549 0.635937500 0.331250000
v 0.966716549 0.618750000 0.331250000
v 0.966716549 0.618750000 0.337500000
v 1.000000000 0.618750000 0.337500000
v 1.000000000 0.618750000 0.331250000
v 1.000000000 0.635937500 0.331250000
v 1.000000000 0.635937500 0.337500000
v 0.946332048 0.653125000 0.337500000
v 0.946332048 0.653125000 0.331250000
v 0.946332048 0.635937500 0.331250000
v 0.946332048 0.635937500 0.337500000
v 1.000000000 0.653125000 0.331250000
v 1.000000000 0.653125000 0.337500000
v 0.936267044 0.670312500 0.337500000
v 0.936267044 0.670312500 0.331250000
v 0.936267044 0.653125000 0.331250000
v 0.936267044 0.653125000 0.337500000
v 1.000000000 0.670312500 0.331250000
v 1.000000000 0.670312500 0.337500000
v 0.931789224 0.687500000 0.337500000
v 0.931789224 0.687500000 0.331250000
v 0.931789224 0.670312500 0.331250000
v 0.931789224 0.670312500 0.337500000
v 1.000000000 0.687500000 0.337500000
v 0.931789224 0.704687500 0.337500000
v 0.931789224 0.704687500 0.331250000
v 1.000000000 0.704687500 0.331250000
v 1.000000000 0.704687500 0.337500000
v 0.936267044 0.721875000 0.337500000
v 0.936267044 0.721875000 0.331250000
v 0.936267044 0.704687500 0.331250000
v 0.936267044 0.704687500 0.337500000
v 1.000000000 0.721875000 0.331250000
v 1.000000000 0.721875000 0.337500000
v 0.946332048 0.739062500 0.337500000
v 0.946332048 0.739062500 0.331250000
v 0.946332048 0.721875000 0.331250000
v 0.946332048 0.721875000 0.337500000
v 1.000000000 0.739062500 0.331250000
v 1.000000000 0.739062500 0.337500000
v 0.966716549 0.756250000 0.337500000
v 0.966716549 0.756250000 0.331250000
v 0.966716549 0.739062500 0.331250000
v 0.966716549 0.739062500 0.337500000
v 1.000000000 0.756250000 0.331250000
v 1.000000000 0.756250000 0.337500000
vt 0 0
vt 1 0
vt 1 1
vt 0 1
vn -1.000000000 -0.000000000 0.000000000
vn -0.866025404 -0.500000000 -0.000000000
vn -0.500000000 0.866025404 0.000000000
vn -0.258819045 0.965925826 0.000000000
vn 0.000000000 -1.000000000 -0.000000000
vn -0.000000000 -0.000000000 -1.000000000
vn 0.000000000 0.000000000 1.000000000
vn -0.000000000 1.000000000 0.000000000
vn 0.258819045 -0.965925826 -0.000000000
vn 0.866025404 0.500000000 0.000000000
vn 0.965925826 0.258819045 0.000000000
vn 1.000000000 0.000000000 -0.000000000
usemtl step_color_001
f 1/1/2 2/2/2 3/3/2 4/4/2
f 5/1/10 6/2/10 7/3/10 8/4/10
f 7/1/3 3/2/3 2/3/3 8/4/3
f 7/1/6 6/2/6 4/3/6 3/4/6
f 2/1/7 1/2/7 5/3/7 8/4/7
usemtl step_color_003
f 9/1/1 10/2/1 11/3/1 12/4/1
f 13/1/5 12/2/5 11/3/5 14/4/5
f 15/1/8 10/2/8 9/3/8 16/4/8
f 15/1/6 14/2/6 11/3/6 10/4/6
f 16/1/7 9/2/7 12/3/7 13/4/7
f 17/1/1 18/2/1 19/3/1 20/4/1
f 16/1/5 20/2/5 19/3/5 15/4/5
f 21/1/8 18/2/8 17/3/8 22/4/8
f 21/1/6 15/2/6 19/3/6 18/4/6
f 22/1/7 17/2/7 20/3/7 16/4/7
f 23/1/1 24/2/1 25/3/1 26/4/1
f 22/1/5 26/2/5 25/3/5 21/4/5
f 27/1/8 24/2/8 23/3/8 28/4/8
f 27/1/6 21/2/6 25/3/6 24/4/6
f 28/1/7 23/2/7 26/3/7 22/4/7
f 29/1/1 30/2/1 31/3/1 32/4/1
f 28/1/5 32/2/5 31/3/5 27/4/5
f 33/1/8 30/2/8 29/3/8 34/4/8
f 33/1/6 27/2/6 31/3/6 30/4/6
f 34/1/7 29/2/7 32/3/7 28/4/7
f 35/1/1 36/2/1 30/3/1 29/4/1
f 34/1/5 29/2/5 30/3/5 33/4/5
f 37/1/8 36/2/8 35/3/8 38/4/8
f 37/1/6 33/2/6 30/3/6 36/4/6
f 38/1/7 35/2/7 29/3/7 34/4/7
f 39/1/1 40/2/1 41/3/1 42/4/1
f 38/1/5 42/2/5 41/3/5 37/4/5
f 43/1/8 40/2/8 39/3/8 44/4/8
f 43/1/6 37/2/6 41/3/6 40/4/6
f 44/1/7 39/2/7 42/3/7 38/4/7
f 45/1/1 46/2/1 47/3/1 48/4/1
f 44/1/5 48/2/5 47/3/5 43/4/5
f 49/1/8 46/2/8 45/3/8 50/4/8
f 49/1/6 43/2/6 47/3/6 46/4/6
f 50/1/7 45/2/7 48/3/7 44/4/7
f 51/1/1 52/2/1 53/3/1 54/4/1
f 50/1/5 54/2/5 53/3/5 49/4/5
f 55/1/8 52/2/8 51/3/8 56/4/8
f 55/1/6 49/2/6 53/3/6 52/4/6
f 56/1/7 51/2/7 54/3/7 50/4/7
f 57/1/1 58/2/1 59/3/1 60/4/1
f 61/1/12 62/2/12 63/3/12 64/4/12
f 61/1/5 60/2/5 59/3/5 62/4/5
f 63/1/8 58/2/8 57/3/8 64/4/8
f 63/1/6 62/2/6 59/3/6 58/4/6
f 57/1/7 60/2/7 61/3/7 64/4/7
f 65/1/1 66/2/1 67/3/1 68/4/1
f 69/1/12 70/2/12 71/3/12 72/4/12
f 69/1/5 68/2/5 67/3/5 70/4/5
f 71/1/8 66/2/8 65/3/8 72/4/8
f 71/1/6 70/2/6 67/3/6 66/4/6
f 65/1/7 68/2/7 69/3/7 72/4/7
f 73/1/1 74/2/1 75/3/1 76/4/1
f 77/1/12 78/2/12 79/3/12 80/4/12
f 77/1/5 76/2/5 75/3/5 78/4/5
f 79/1/8 74/2/8 73/3/8 80/4/8
f 79/1/6 78/2/6 75/3/6 74/4/6
f 73/1/7 76/2/7 77/3/7 80/4/7
f 81/1/1 82/2/1 83/3/1 84/4/1
f 85/1/12 86/2/12 87/3/12 88/4/12
f 85/1/5 84/2/5 83/3/5 86/4/5
f 87/1/8 82/2/8 81/3/8 88/4/8
f 87/1/6 86/2/6 83/3/6 82/4/6
f 81/1/7 84/2/7 85/3/7 88/4/7
usemtl step_color_004
f 89/1/11 90/2/11 91/3/11 92/4/11
f 89/1/9 93/2/9 94/3/9 90/4/9
f 91/1/4 95/2/4 96/3/4 92/4/4
f 97/1/6 95/2/6 91/3/6
f 97/1/6 91/2/6 90/3/6
f 97/1/6 90/2/6 94/3/6
f 96/1/7 98/2/7 93/3/7
f 96/1/7 93/2/7 89/3/7
f 96/1/7 89/2/7 92/3/7
usemtl step_color_006
f 99/1/1 100/2/1 101/3/1 102/4/1
f 103/1/8 102/2/8 101/3/8 104/4/8
f 105/1/7 104/2/7 101/3/7 100/4/7
f 106/1/7 107/2/7 108/3/7 109/4/7
f 110/1/5 111/2/5 112/3/5 113/4/5
f 108/1/6 107/2/6 113/3/6 112/4/6
f 114/1/7 115/2/7 111/3/7 110/4/7
f 116/1/1 117/2/1 118/3/1 119/4/1
f 120/1/12 121/2/12 122/3/12 123/4/12
f 123/1/5 122/2/5 119/3/5 118/4/5
f 116/1/7 119/2/7 122/3/7 121/4/7
f 119/1/1 118/2/1 124/3/1 125/4/1
f 126/1/12 127/2/12 123/3/12 122/4/12
f 127/1/5 126/2/5 125/3/5 124/4/5
f 123/1/8 118/2/8 119/3/8 122/4/8
f 119/1/7 125/2/7 126/3/7 122/4/7
f 128/1/1 129/2/1 130/3/1 131/4/1
f 132/1/12 133/2/12 134/3/12 135/4/12
f 133/1/5 132/2/5 131/3/5 130/4/5
f 134/1/8 129/2/8 128/3/8 135/4/8
f 128/1/7 131/2/7 132/3/7 135/4/7
f 136/1/1 137/2/1 138/3/1 139/4/1
f 140/1/12 141/2/12 142/3/12 143/4/12
f 141/1/5 140/2/5 139/3/5 138/4/5
f 142/1/8 137/2/8 136/3/8 143/4/8
f 136/1/7 139/2/7 140/3/7 143/4/7
usemtl step_color_007
f 144/1/5 145/2/5 146/3/5 147/4/5
f 148/1/8 149/2/8 150/3/8 151/4/8
f 151/1/7 150/2/7 146/3/7 145/4/7
f 152/1/1 153/2/1 154/3/1 155/4/1
f 156/1/12 157/2/12 158/3/12 159/4/12
f 158/1/8 154/2/8 153/3/8 159/4/8
f 158/1/6 157/2/6 155/3/6 154/4/6
f 153/1/7 152/2/7 156/3/7 159/4/7
f 160/1/1 161/2/1 162/3/1 163/4/1
f 164/1/12 165/2/12 166/3/12 167/4/12
f 165/1/5 164/2/5 163/3/5 162/4/5
f 166/1/8 161/2/8 160/3/8 167/4/8
f 160/1/7 163/2/7 164/3/7 167/4/7
f 168/1/1 169/2/1 170/3/1 171/4/1
f 172/1/12 173/2/12 174/3/12 175/4/12
f 174/1/8 170/2/8 169/3/8 175/4/8
f 174/1/6 173/2/6 171/3/6 170/4/6
f 169/1/7 168/2/7 172/3/7 175/4/7
f 176/1/1 177/2/1 178/3/1 179/4/1
f 180/1/12 181/2/12 182/3/12 183/4/12
f 181/1/5 180/2/5 179/3/5 178/4/5
f 182/1/8 177/2/8 176/3/8 183/4/8
f 176/1/7 179/2/7 180/3/7 183/4/7
f 184/1/1 185/2/1 186/3/1 187/4/1
f 188/1/12 189/2/12 190/3/12 191/4/12
f 190/1/8 186/2/8 185/3/8 191/4/8
f 190/1/6 189/2/6 187/3/6 186/4/6
f 185/1/7 184/2/7 188/3/7 191/4/7
f 192/1/1 193/2/1 194/3/1 195/4/1
f 196/1/12 197/2/12 198/3/12 199/4/12
f 197/1/5 196/2/5 195/3/5 194/4/5
f 198/1/8 193/2/8 192/3/8 199/4/8
f 192/1/7 195/2/7 196/3/7 199/4/7
usemtl step_color_008
f 200/1/1 201/2/1 202/3/1 203/4/1
f 204/1/5 203/2/5 202/3/5 205/4/5
f 206/1/8 201/2/8 200/3/8 207/4/8
f 206/1/6 205/2/6 202/3/6 201/4/6
f 207/1/7 200/2/7 203/3/7 204/4/7
f 208/1/1 209/2/1 210/3/1 211/4/1
f 207/1/5 211/2/5 210/3/5 206/4/5
f 212/1/8 209/2/8 208/3/8 213/4/8
f 212/1/6 206/2/6 210/3/6 209/4/6
f 213/1/7 208/2/7 211/3/7 207/4/7
f 214/1/1 215/2/1 216/3/1 217/4/1
f 213/1/5 217/2/5 216/3/5 212/4/5
f 218/1/8 215/2/8 214/3/8 219/4/8
f 218/1/6 212/2/6 216/3/6 215/4/6
f 219/1/7 214/2/7 217/3/7 213/4/7
f 220/1/1 221/2/1 222/3/1 223/4/1
f 219/1/5 223/2/5 222/3/5 218/4/5
f 34/1/8 221/2/8 220/3/8 224/4/8
f 34/1/6 218/2/6 222/3/6 221/4/6
f 224/1/7 220/2/7 223/3/7 219/4/7
f 225/1/1 226/2/1 221/3/1 220/4/1
f 224/1/5 220/2/5 221/3/5 34/4/5
f 227/1/8 226/2/8 225/3/8 228/4/8
f 227/1/6 34/2/6 221/3/6 226/4/6
f 228/1/7 225/2/7 220/3/7 224/4/7
f 229/1/1 230/2/1 231/3/1 232/4/1
f 228/1/5 232/2/5 231/3/5 227/4/5
f 233/1/8 230/2/8 229/3/8 234/4/8
f 233/1/6 227/2/6 231/3/6 230/4/6
f 234/1/7 229/2/7 232/3/7 228/4/7
f 235/1/1 236/2/1 237/3/1 238/4/1
f 234/1/5 238/2/5 237/3/5 233/4/5
f 239/1/8 236/2/8 235/3/8 240/4/8
f 239/1/6 233/2/6 237/3/6 236/4/6
f 240/1/7 235/2/7 238/3/7 234/4/7
f 241/1/1 242/2/1 243/3/1 244/4/1
f 240/1/5 244/2/5 243/3/5 239/4/5
f 245/1/8 242/2/8 241/3/8 246/4/8
f 245/1/6 239/2/6 243/3/6 242/4/6
f 246/1/7 241/2/7 244/3/7 240/4/7
