# Generated by tools-import-turbines.py; estimated STEP scale.
mtllib materials.mtl
s off
v 0.360000000 0.061071433 0.000000000
v 0.360000000 0.000000000 0.900000100
v 0.360000000 0.190000000 0.900000100
v 0.360000000 0.190000000 0.000000000
v 0.360000000 0.000000000 0.000000000
v 0.640000000 0.128928567 0.000000000
v 0.640000000 0.190000000 0.000000000
v 0.640000000 0.190000000 0.900000100
v 0.640000000 0.000000000 0.000000000
v 0.640000000 0.000000000 0.900000100
v 0.549999993 0.000000000 0.000000000
v 0.450000007 0.190000000 0.000000000
v 0.611670704 1.000000000 0.335804012
v 0.441627100 0.337104500 0.585122100
v 0.629349887 1.000000000 0.375694056
v 0.599503092 1.000000000 0.308349710
v 0.408702800 0.326236800 0.521211100
v 0.616586511 1.000000000 0.263844059
v 0.627489219 1.000000000 0.235440388
v 0.429259000 0.300000100 0.456590900
v 0.671518242 1.000000000 0.212758413
v 0.696914387 1.000000000 0.199675273
v 0.491254300 0.273763400 0.429114600
v 0.742466465 1.000000000 0.214165783
v 0.767110275 1.000000000 0.222005181
v 0.558372700 0.262895800 0.454877900
v 0.786394056 1.000000000 0.265515724
v 0.796957087 1.000000000 0.289349473
v 0.591297000 0.273763400 0.518788800
v 0.779378883 1.000000000 0.335144031
v 0.768970975 1.000000000 0.362258768
v 0.570740800 0.300000100 0.583409300
v 0.726940102 1.000000000 0.383911509
v 0.699545751 1.000000000 0.398023951
v 0.508745400 0.326236800 0.610885400
v 0.658090116 1.000000000 0.384836555
v 0.240000000 0.090000000 0.760000000
v 0.240000000 0.350000000 0.760000000
v 0.240000000 0.350000000 0.280000000
v 0.240000000 0.090000000 0.280000000
v 0.760000000 0.350000000 0.280000000
v 0.760000000 0.090000000 0.280000000
v 0.760000000 0.350000000 0.760000000
v 0.760000000 0.090000000 0.760000000
v 0.500000000 0.350000000 0.579999900
v 0.500000000 0.410000000 0.579999900
v 0.448038500 0.410000000 0.550000000
v 0.448038500 0.350000000 0.550000000
v 0.448038500 0.410000000 0.490000000
v 0.448038500 0.350000000 0.490000000
v 0.500000000 0.410000000 0.460000000
v 0.500000000 0.350000000 0.460000000
v 0.551961500 0.410000000 0.490000000
v 0.551961500 0.350000000 0.490000000
v 0.551961500 0.410000000 0.550000000
v 0.551961500 0.350000000 0.550000000
vt 0 0
vt 1 0
vt 1 1
vt 0 1
vn -1.000000000 0.000000000 0.000000000
vn -0.923098322 0.149465429 -0.354329751
vn -0.923098271 0.149465349 -0.354329919
vn -0.852640501 0.360841048 0.377886113
vn -0.852639476 0.360841495 0.377887999
vn -0.500000175 0.000000000 -0.866025303
vn -0.499998925 0.000000000 0.866026025
vn -0.452819984 -0.149464647 -0.878984858
vn -0.452817960 -0.149465651 -0.878985730
vn -0.282716925 0.360841421 0.888743275
vn -0.282716459 0.360841373 0.888743443
vn -0.260695249 -0.920571375 0.290837291
vn -0.260693555 -0.920572452 0.290835401
vn -0.260692997 -0.920572613 0.290835394
vn -0.260692956 -0.920572613 0.290835430
vn -0.260692944 -0.920572646 0.290835334
vn -0.260691612 -0.920572452 0.290837143
vn 0.000000000 -1.000000000 0.000000000
vn 0.000000000 0.000000000 -1.000000000
vn 0.000000000 0.000000000 1.000000000
vn 0.000000000 1.000000000 0.000000000
vn 0.282716572 -0.360841341 -0.888743420
vn 0.282716925 -0.360841421 -0.888743275
vn 0.452817392 0.149465744 0.878986007
vn 0.452820210 0.149464750 0.878984725
vn 0.499998925 0.000000000 0.866026025
vn 0.500000175 0.000000000 -0.866025303
vn 0.852639502 -0.360841404 -0.377888028
vn 0.852640014 -0.360841292 -0.377886977
vn 0.923098093 -0.149465194 0.354330448
vn 0.923098701 -0.149465819 0.354328601
vn 1.000000000 0.000000000 0.000000000
usemtl dvss_1
f 1/1/1 2/2/1 3/3/1 4/4/1
f 5/1/1 2/2/1 1/3/1
f 6/1/32 7/2/32 8/3/32
f 9/1/32 6/2/32 8/3/32 10/4/32
f 10/1/20 8/2/20 3/3/20
f 10/1/20 3/2/20 2/3/20
f 11/1/18 9/2/18 10/3/18
f 5/1/18 11/2/18 10/3/18 2/4/18
f 12/1/21 4/2/21 3/3/21
f 7/1/21 12/2/21 3/3/21 8/4/21
usemtl dvss_4
f 13/1/5 14/2/5 15/3/5
f 14/1/4 13/2/4 16/3/4 17/4/4
f 18/1/2 17/2/2 16/3/2
f 17/1/3 18/2/3 19/3/3 20/4/3
f 21/1/9 20/2/9 19/3/9
f 20/1/8 21/2/8 22/3/8 23/4/8
f 24/1/23 23/2/23 22/3/23
f 23/1/22 24/2/22 25/3/22 26/4/22
f 27/1/28 26/2/28 25/3/28
f 26/1/29 27/2/29 28/3/29 29/4/29
f 30/1/30 29/2/30 28/3/30
f 29/1/31 30/2/31 31/3/31 32/4/31
f 33/1/25 32/2/25 31/3/25
f 32/1/24 33/2/24 34/3/24 35/4/24
f 36/1/10 35/2/10 34/3/10
f 35/1/11 36/2/11 15/3/11 14/4/11
f 35/1/12 14/2/12 17/3/12
f 17/1/17 20/2/17 23/3/17
f 23/1/16 26/2/16 29/3/16
f 29/1/15 32/2/15 35/3/15
f 35/1/13 17/2/13 23/3/13
f 23/1/14 29/2/14 35/3/14
f 37/1/1 38/2/1 39/3/1
f 37/1/1 39/2/1 40/3/1
f 40/1/19 39/2/19 41/3/19
f 40/1/19 41/2/19 42/3/19
f 42/1/32 41/2/32 43/3/32
f 42/1/32 43/2/32 44/3/32
f 44/1/20 43/2/20 38/3/20
f 44/1/20 38/2/20 37/3/20
f 40/1/18 42/2/18 44/3/18
f 40/1/18 44/2/18 37/3/18
f 41/1/21 39/2/21 38/3/21
f 41/1/21 38/2/21 43/3/21
usemtl dvss_5
f 45/1/7 46/2/7 47/3/7
f 45/1/7 47/2/7 48/3/7
f 48/1/1 47/2/1 49/3/1
f 48/1/1 49/2/1 50/3/1
f 50/1/6 49/2/6 51/3/6
f 50/1/6 51/2/6 52/3/6
f 52/1/27 51/2/27 53/3/27
f 52/1/27 53/2/27 54/3/27
f 49/1/21 47/2/21 46/3/21
f 46/1/21 55/2/21 53/3/21
f 53/1/21 51/2/21 49/3/21
f 46/1/21 53/2/21 49/3/21
f 54/1/32 53/2/32 55/3/32
f 54/1/32 55/2/32 56/3/32
f 56/1/26 55/2/26 46/3/26
f 56/1/26 46/2/26 45/3/26
f 56/1/18 45/2/18 48/3/18
f 48/1/18 50/2/18 52/3/18
f 52/1/18 54/2/18 56/3/18
f 48/1/18 52/2/18 56/3/18
