# Generated by tools-import-turbines.py; estimated STEP scale.
mtllib materials.mtl
s off
v 0.960419175 1.000000000 0.045828050
v 0.944921200 0.355000000 0.030330200
v 0.944921200 1.000000000 0.030330200
v 0.969669900 1.000000000 0.055078700
v 0.969669900 0.355000000 0.055078700
v 0.932031951 1.000000000 0.092716774
v 0.909565900 1.000000000 0.115182900
v 0.909565900 0.355000000 0.115182900
v 0.894067862 1.000000000 0.099684987
v 0.884817100 1.000000000 0.090434300
v 0.884817100 0.355000000 0.090434300
v 0.922455112 1.000000000 0.052796288
v 1.000000000 0.182274252 0.158214428
v 1.000000000 0.355000000 0.158214428
v 0.913101400 0.355000000 0.086898800
v 1.000000000 0.105000000 0.158214428
v 0.913101400 0.105000000 0.086898800
v 0.841785526 0.277726008 0.000000000
v 0.841785526 0.355000000 0.000000000
v 0.841785526 0.105000000 0.000000000
v 0.855037531 0.355000000 0.000000000
v 1.000000000 0.355000000 0.144962525
v 1.000000000 0.355000000 0.084447200
v 0.915552800 0.355000000 0.000000000
v 1.000000000 0.355000000 0.000000000
v 0.848757017 0.105000000 0.000000000
v 1.000000000 0.105000000 0.151242917
v 0.911842823 0.105000000 0.000000000
v 1.000000000 0.105000000 0.131936482
v 1.000000000 0.105000000 0.000000000
v 1.000000000 0.134984204 0.248329702
v 1.000000000 0.135000200 0.248329702
v 0.999986900 0.135000200 0.248322700
v 1.000000000 0.000000000 0.248329702
v 0.999986900 0.000000000 0.248322700
v 0.960507557 0.000000000 0.215922832
v 0.863604100 0.135000200 0.136396200
v 0.863604100 0.000000000 0.136396200
v 0.831204203 0.000000000 0.096916857
v 0.751677500 0.135000200 0.000013400
v 0.751677500 0.000000000 0.000013400
v 0.751670338 0.000000000 0.000000000
v 0.751670338 0.135000200 0.000000000
v 0.772467011 0.135000200 0.000000000
v 1.000000000 0.135000200 0.227532949
v 1.000000000 0.135000200 0.175906496
v 0.824093396 0.135000200 0.000000000
v 1.000000000 0.135000200 0.000000000
v 0.985527387 1.000000000 0.083204563
v 1.000000000 0.816508641 0.095565377
v 1.000000000 1.000000000 0.095565377
v 1.000000000 0.290000000 0.095565377
v 0.948456800 1.000000000 0.051543200
v 0.948456800 0.290000000 0.051543200
v 0.904434639 1.000000000 0.000000000
v 0.904434639 0.943493063 0.000000000
v 0.904434639 0.290000000 0.000000000
v 1.000000000 0.290000000 0.088991579
v 0.911008435 0.290000000 0.000000000
v 0.950902300 0.290000000 0.000000000
v 1.000000000 0.290000000 0.049097700
v 1.000000000 0.290000000 0.000000000
v 0.783017476 0.000000000 0.231097896
v 0.807035300 0.000000000 0.244964600
v 0.807035300 0.034999800 0.244964600
v 0.762002000 0.034999800 0.218964600
v 0.762002000 0.000000000 0.218964600
v 0.762002000 0.000000000 0.191231139
v 0.762002000 0.034999800 0.166964500
v 0.762002000 0.000000000 0.166964500
v 0.786019824 0.000000000 0.153097796
v 0.807035300 0.034999800 0.140964500
v 0.807035300 0.000000000 0.140964500
v 0.831053177 0.000000000 0.154831204
v 0.852068700 0.034999800 0.166964500
v 0.852068700 0.000000000 0.166964500
v 0.852068700 0.034999800 0.218964600
v 0.852068700 0.000000000 0.194697961
v 0.852068700 0.000000000 0.218964600
v 0.828050823 0.000000000 0.232831304
vt 0 0
vt 1 0
vt 1 1
vt 0 1
vn -1.000000000 0.000000000 0.000000000
vn -0.881921195 0.000000000 0.471396866
vn -0.773011012 0.000000000 0.634392604
vn -0.773010096 0.000000000 0.634393720
vn -0.760405166 0.000000000 0.649448984
vn -0.707106781 0.000000000 -0.707106781
vn -0.707103924 0.000000000 0.707109638
vn -0.649449122 0.000000000 0.760405048
vn -0.634393381 0.000000000 0.773010374
vn -0.634392171 0.000000000 0.773011367
vn -0.500000175 0.000000000 -0.866025303
vn -0.500000175 0.000000000 0.866025303
vn -0.471395985 0.000000000 0.881921666
vn 0.000000000 -1.000000000 0.000000000
vn 0.000000000 1.000000000 0.000000000
vn 0.499999342 0.000000000 0.866025784
vn 0.499999342 0.000000000 -0.866025784
vn 0.707103924 0.000000000 -0.707109638
vn 0.707107958 0.000000000 0.707105605
vn 1.000000000 0.000000000 0.000000000
usemtl dvss_2
f 1/1/18 2/2/18 3/3/18
f 2/1/18 1/2/18 4/3/18 5/4/18
f 6/1/19 5/2/19 4/3/19
f 5/1/19 6/2/19 7/3/19 8/4/19
f 9/1/7 8/2/7 7/3/7
f 8/1/7 9/2/7 10/3/7 11/4/7
f 12/1/6 11/2/6 10/3/6
f 11/1/6 12/2/6 3/3/6 2/4/6
f 5/1/14 8/2/14 11/3/14
f 5/1/14 11/2/14 2/3/14
f 13/1/10 14/2/10 15/3/10
f 16/1/10 13/2/10 15/3/10 17/4/10
f 18/1/3 17/2/3 15/3/3 19/4/3
f 20/1/3 17/2/3 18/3/3
f 21/1/15 19/2/15 15/3/15
f 22/1/15 15/2/15 14/3/15
f 23/1/15 24/2/15 21/3/15
f 23/1/15 21/2/15 15/3/15
f 23/1/15 15/2/15 22/3/15
f 25/1/15 24/2/15 23/3/15
f 26/1/14 27/2/14 16/3/14
f 26/1/14 16/2/14 17/3/14
f 26/1/14 17/2/14 20/3/14
f 28/1/14 29/2/14 27/3/14 26/4/14
f 30/1/14 29/2/14 28/3/14
f 31/1/13 32/2/13 33/3/13
f 34/1/13 31/2/13 33/3/13 35/4/13
f 36/1/9 35/2/9 33/3/9 37/4/9
f 36/1/9 37/2/9 38/3/9
f 39/1/4 38/2/4 37/3/4 40/4/4
f 39/1/4 40/2/4 41/3/4
f 42/1/2 41/2/2 40/3/2 43/4/2
f 44/1/15 43/2/15 40/3/15 37/4/15
f 45/1/15 37/2/15 33/3/15 32/4/15
f 46/1/15 47/2/15 44/3/15
f 46/1/15 44/2/15 37/3/15
f 46/1/15 37/2/15 45/3/15
f 48/1/15 47/2/15 46/3/15
f 49/1/8 50/2/8 51/3/8
f 52/1/8 50/2/8 49/3/8
f 52/1/8 49/2/8 53/3/8
f 52/1/8 53/2/8 54/3/8
f 55/1/5 56/2/5 54/3/5 53/4/5
f 57/1/5 54/2/5 56/3/5
f 58/1/14 52/2/14 54/3/14
f 59/1/14 54/2/14 57/3/14
f 60/1/14 61/2/14 58/3/14
f 60/1/14 58/2/14 54/3/14
f 60/1/14 54/2/14 59/3/14
f 62/1/14 61/2/14 60/3/14
usemtl dvss_5
f 63/1/12 64/2/12 65/3/12 66/4/12
f 63/1/12 66/2/12 67/3/12
f 68/1/1 67/2/1 66/3/1 69/4/1
f 68/1/1 69/2/1 70/3/1
f 71/1/11 70/2/11 69/3/11 72/4/11
f 71/1/11 72/2/11 73/3/11
f 74/1/17 73/2/17 72/3/17 75/4/17
f 74/1/17 75/2/17 76/3/17
f 69/1/15 66/2/15 65/3/15
f 65/1/15 77/2/15 75/3/15
f 75/1/15 72/2/15 69/3/15
f 65/1/15 75/2/15 69/3/15
f 78/1/20 76/2/20 75/3/20 77/4/20
f 78/1/20 77/2/20 79/3/20
f 80/1/16 79/2/16 77/3/16 65/4/16
f 80/1/16 65/2/16 64/3/16
