# Generated by tools-import-turbines.py; estimated STEP scale.
mtllib materials.mtl
s off
v 0.500000000 0.180000300 0.860000000
v 0.500000000 0.540000000 0.860000000
v 0.429767500 0.540000000 0.853082800
v 0.429767500 0.180000300 0.853082800
v 0.362234000 0.540000000 0.832596700
v 0.362234000 0.180000300 0.832596700
v 0.299994700 0.540000000 0.799329200
v 0.299994700 0.180000300 0.799329200
v 0.245441600 0.540000000 0.754558400
v 0.245441600 0.180000300 0.754558400
v 0.200671000 0.540000000 0.700005300
v 0.200671000 0.180000300 0.700005300
v 0.167403300 0.540000000 0.637766100
v 0.167403300 0.180000300 0.637766100
v 0.146917300 0.540000000 0.570232600
v 0.146917300 0.180000300 0.570232600
v 0.140000000 0.540000000 0.500000000
v 0.140000000 0.180000300 0.500000000
v 0.146917200 0.540000000 0.429767500
v 0.146917200 0.180000300 0.429767500
v 0.167403300 0.540000000 0.362234000
v 0.167403300 0.180000300 0.362234000
v 0.200670800 0.540000000 0.299994700
v 0.200670800 0.180000300 0.299994700
v 0.245441600 0.540000000 0.245441600
v 0.245441600 0.180000300 0.245441600
v 0.299994700 0.540000000 0.200671000
v 0.299994700 0.180000300 0.200671000
v 0.362233900 0.540000000 0.167403300
v 0.362233900 0.180000300 0.167403300
v 0.429767400 0.540000000 0.146917300
v 0.429767400 0.180000300 0.146917300
v 0.500000000 0.540000000 0.140000000
v 0.500000000 0.180000300 0.140000000
v 0.570232500 0.540000000 0.146917200
v 0.570232500 0.180000300 0.146917200
v 0.637766000 0.540000000 0.167403300
v 0.637766000 0.180000300 0.167403300
v 0.700005300 0.540000000 0.200670800
v 0.700005300 0.180000300 0.200670800
v 0.754558400 0.540000000 0.245441600
v 0.754558400 0.180000300 0.245441600
v 0.799329000 0.540000000 0.299994700
v 0.799329000 0.180000300 0.299994700
v 0.832596700 0.540000000 0.362233900
v 0.832596700 0.180000300 0.362233900
v 0.853082700 0.540000000 0.429767400
v 0.853082700 0.180000300 0.429767400
v 0.860000000 0.540000000 0.500000000
v 0.860000000 0.180000300 0.500000000
v 0.853082800 0.540000000 0.570232500
v 0.853082800 0.180000300 0.570232500
v 0.832596700 0.540000000 0.637766000
v 0.832596700 0.180000300 0.637766000
v 0.799329200 0.540000000 0.700005300
v 0.799329200 0.180000300 0.700005300
v 0.754558400 0.540000000 0.754558400
v 0.754558400 0.180000300 0.754558400
v 0.700005300 0.540000000 0.799329000
v 0.700005300 0.180000300 0.799329000
v 0.637766100 0.540000000 0.832596700
v 0.637766100 0.180000300 0.832596700
v 0.570232600 0.540000000 0.853082700
v 0.570232600 0.180000300 0.853082700
v 1.000000000 0.230000000 1.000000000
v 1.000000000 0.230000000 0.966856492
v 0.966856508 0.230000000 1.000000000
v 0.966856546 0.230000000 0.000000000
v 1.000000000 0.230000000 0.033143446
v 1.000000000 0.230000000 0.000000000
v 0.000000000 0.230000000 0.000000000
v 0.000000000 0.230000000 0.033143454
v 0.033143446 0.230000000 0.000000000
v 0.033143508 0.230000000 1.000000000
v 0.000000000 0.230000000 0.966856508
v 0.000000000 0.230000000 1.000000000
v 1.000000000 0.230000000 0.859264568
v 0.660234752 0.230000000 1.000000000
v 0.859264602 0.230000000 0.000000000
v 1.000000000 0.230000000 0.339765202
v 0.000000000 0.230000000 0.140735379
v 0.339765071 0.230000000 0.000000000
v 0.140735413 0.230000000 1.000000000
v 0.000000000 0.230000000 0.660234883
v 0.707106659 0.230000000 0.000000000
v 0.292893299 0.230000000 1.000000000
v 0.000000000 0.089999700 1.000000000
v 0.000000000 0.089999700 0.982271993
v 0.011845486 0.089999700 1.000000000
v 0.017728007 0.089999700 0.000000000
v 0.000000000 0.089999700 0.011845486
v 0.000000000 0.089999700 0.000000000
v 1.000000000 0.089999700 0.000000000
v 1.000000000 0.089999700 0.017728049
v 0.988154489 0.089999700 0.000000000
v 0.982271951 0.089999700 1.000000000
v 1.000000000 0.089999700 0.988154489
v 1.000000000 0.089999700 1.000000000
v 0.000000000 0.089999700 0.795229011
v 0.306461638 0.089999700 1.000000000
v 0.204770963 0.089999700 0.000000000
v 0.000000000 0.089999700 0.306461546
v 1.000000000 0.089999700 0.204771012
v 0.693538415 0.089999700 0.000000000
v 0.795228962 0.089999700 1.000000000
v 1.000000000 0.089999700 0.693538323
v 0.400543707 0.089999700 0.000000000
v 0.599456313 0.089999700 1.000000000
v 1.000000000 0.407705686 0.811731080
v 0.973036100 0.220000000 0.780600900
v 0.934361500 0.220000000 0.837387200
v 1.000000000 0.611120899 0.888371475
v 1.000000000 0.367534070 0.796595660
v 1.000000000 0.220000000 0.834111058
v 1.000000000 0.220000000 0.796595653
v 1.000000000 0.220000000 0.888371471
v 1.000000000 0.758672550 0.935674073
v 0.888908700 0.220000000 0.888908700
v 1.000000000 0.959325582 1.000000000
v 1.000000000 0.220000000 0.974192311
v 1.000000000 0.300502390 1.000000000
v 0.987903700 0.220000000 0.987903700
v 0.944476181 0.786129420 1.000000000
v 0.837387200 0.220000000 0.934361500
v 0.888371475 0.611120899 1.000000000
v 0.993251873 0.279452796 1.000000000
v 0.974192311 0.220000000 1.000000000
v 0.913373743 0.220000000 1.000000000
v 0.888371471 0.220000000 1.000000000
v 0.860517729 0.537193019 1.000000000
v 0.780600900 0.220000000 0.973036100
v 0.796595660 0.367534070 1.000000000
v 0.843427465 0.220000000 1.000000000
v 0.796595653 0.220000000 1.000000000
v 1.000000000 0.324503259 0.796595660
v 0.796595660 0.324503259 1.000000000
v 0.188268931 0.407705686 1.000000000
v 0.219399100 0.220000000 0.973036100
v 0.162612800 0.220000000 0.934361500
v 0.111628550 0.611120899 1.000000000
v 0.203404340 0.367534070 1.000000000
v 0.165888942 0.220000000 1.000000000
v 0.203404347 0.220000000 1.000000000
v 0.111628529 0.220000000 1.000000000
v 0.064325994 0.758672550 1.000000000
v 0.111091300 0.220000000 0.888908700
v 0.000000092 0.959325582 1.000000000
v 0.025807689 0.220000000 1.000000000
v 0.000000000 0.300502375 1.000000000
v 0.000000000 0.300502357 0.999999995
v 0.012096300 0.220000000 0.987903700
v 0.000000000 0.786129781 0.944476217
v 0.065638500 0.220000000 0.837387200
v 0.000000000 0.611121190 0.888371513
v 0.000000000 0.959325909 1.000000000
v 0.000000000 0.279452814 0.993251875
v 0.000000000 0.220000000 0.974192311
v 0.000000000 0.220000000 0.913373743
v 0.000000000 0.220000000 0.888371471
v 0.000000000 0.537193019 0.860517729
v 0.026963900 0.220000000 0.780600900
v 0.000000000 0.367534070 0.796595660
v 0.000000000 0.220000000 0.843427468
v 0.000000000 0.220000000 0.796595666
v 0.203404346 0.324503259 1.000000000
v 0.000000000 0.324503285 0.796595664
v 0.000000000 0.407705849 0.188268904
v 0.026963900 0.220000000 0.219399100
v 0.065638500 0.220000000 0.162612800
v 0.000000000 0.611121190 0.111628512
v 0.000000000 0.367534070 0.203404340
v 0.000000000 0.220000000 0.165888942
v 0.000000000 0.220000000 0.203404334
v 0.000000000 0.220000000 0.111628529
v 0.000000000 0.758673103 0.064325894
v 0.111091300 0.220000000 0.111091300
v 0.000000000 0.959326197 0.000000000
v 0.000000000 0.220000000 0.025807689
v 0.000000000 0.300502357 0.000000000
v 0.012096300 0.220000000 0.012096300
v 0.055523819 0.786129781 0.000000000
v 0.162612800 0.220000000 0.065638500
v 0.111628512 0.611121190 0.000000000
v 0.006748125 0.279452814 0.000000000
v 0.025807689 0.220000000 0.000000000
v 0.086626257 0.220000000 0.000000000
v 0.111628529 0.220000000 0.000000000
v 0.139482271 0.537193019 0.000000000
v 0.219399100 0.220000000 0.026963900
v 0.203404340 0.367534070 0.000000000
v 0.156572532 0.220000000 0.000000000
v 0.203404334 0.220000000 0.000000000
v 0.000000000 0.324503285 0.203404342
v 0.203404342 0.324503285 0.000000000
v 0.811731108 0.407705849 0.000000000
v 0.780600900 0.220000000 0.026963900
v 0.837387200 0.220000000 0.065638500
v 0.888371513 0.611121190 0.000000000
v 0.796595660 0.367534070 0.000000000
v 0.834111058 0.220000000 0.000000000
v 0.796595666 0.220000000 0.000000000
v 0.888371471 0.220000000 0.000000000
v 1.000000000 0.959325909 0.000000000
v 0.935674174 0.758673103 0.000000000
v 0.888908700 0.220000000 0.111091300
v 1.000000000 0.959325582 0.000000092
v 0.974192311 0.220000000 0.000000000
v 0.999999995 0.300502357 0.000000000
v 0.987903700 0.220000000 0.012096300
v 1.000000000 0.786129420 0.055523854
v 0.934361500 0.220000000 0.162612800
v 1.000000000 0.611120899 0.111628550
v 1.000000000 0.300502375 0.000000000
v 1.000000000 0.279452796 0.006748127
v 1.000000000 0.220000000 0.025807689
v 1.000000000 0.220000000 0.086626257
v 1.000000000 0.220000000 0.111628529
v 1.000000000 0.537193019 0.139482271
v 0.973036100 0.220000000 0.219399100
v 1.000000000 0.367534070 0.203404340
v 1.000000000 0.220000000 0.156572535
v 1.000000000 0.220000000 0.203404347
v 0.796595664 0.324503285 0.000000000
v 1.000000000 0.324503259 0.203404346
v 0.707106670 0.040000000 0.000000000
v 0.292893288 0.040000000 1.000000000
v 1.000000000 0.040000000 1.000000000
v 1.000000000 0.040000000 0.000000000
v 0.000000000 0.040000000 0.000000000
v 0.000000000 0.040000000 1.000000000
v 0.489102839 1.000000000 0.728926718
v 0.500000000 0.915000000 0.730000000
v 0.500000000 1.000000000 0.730000000
v 0.455129300 1.000000000 0.725580600
v 0.455129300 0.915000000 0.725580600
v 0.444650898 1.000000000 0.722402016
v 0.411982900 1.000000000 0.712492300
v 0.411982900 0.915000000 0.712492300
v 0.402325913 1.000000000 0.707330546
v 0.372218800 1.000000000 0.691238000
v 0.372218800 0.915000000 0.691238000
v 0.363754434 1.000000000 0.684291466
v 0.337365500 1.000000000 0.662634600
v 0.337365500 0.915000000 0.662634600
v 0.330418942 1.000000000 0.654170210
v 0.308762000 1.000000000 0.627781200
v 0.308762000 0.915000000 0.627781200
v 0.303600270 1.000000000 0.618124237
v 0.287507800 1.000000000 0.588017200
v 0.287507800 0.915000000 0.588017200
v 0.284329191 1.000000000 0.577538822
v 0.274419400 1.000000000 0.544870900
v 0.274419400 0.915000000 0.544870900
v 0.273346118 1.000000000 0.533973691
v 0.270000000 1.000000000 0.500000000
v 0.270000000 0.915000000 0.500000000
v 0.271073282 1.000000000 0.489102839
v 0.274419400 1.000000000 0.455129300
v 0.274419400 0.915000000 0.455129300
v 0.277597984 1.000000000 0.444650898
v 0.287507700 1.000000000 0.411982900
v 0.287507700 0.915000000 0.411982900
v 0.292669454 1.000000000 0.402325913
v 0.308762000 1.000000000 0.372218800
v 0.308762000 0.915000000 0.372218800
v 0.315708534 1.000000000 0.363754434
v 0.337365400 1.000000000 0.337365500
v 0.337365400 0.915000000 0.337365500
v 0.345829790 1.000000000 0.330418942
v 0.372218800 1.000000000 0.308762000
v 0.372218800 0.915000000 0.308762000
v 0.381875763 1.000000000 0.303600270
v 0.411982800 1.000000000 0.287507800
v 0.411982800 0.915000000 0.287507800
v 0.422461178 1.000000000 0.284329191
v 0.455129100 1.000000000 0.274419400
v 0.455129100 0.915000000 0.274419400
v 0.466026309 1.000000000 0.273346118
v 0.500000000 1.000000000 0.270000000
v 0.500000000 0.915000000 0.270000000
v 0.510897161 1.000000000 0.271073282
v 0.544870700 1.000000000 0.274419400
v 0.544870700 0.915000000 0.274419400
v 0.555349102 1.000000000 0.277597984
v 0.588017100 1.000000000 0.287507700
v 0.588017100 0.915000000 0.287507700
v 0.597674087 1.000000000 0.292669454
v 0.627781200 1.000000000 0.308762000
v 0.627781200 0.915000000 0.308762000
v 0.636245566 1.000000000 0.315708534
v 0.662634500 1.000000000 0.337365400
v 0.662634500 0.915000000 0.337365400
v 0.669581058 1.000000000 0.345829790
v 0.691238000 1.000000000 0.372218800
v 0.691238000 0.915000000 0.372218800
v 0.696399730 1.000000000 0.381875763
v 0.712492200 1.000000000 0.411982800
v 0.712492200 0.915000000 0.411982800
v 0.715670809 1.000000000 0.422461178
v 0.725580600 1.000000000 0.455129100
v 0.725580600 0.915000000 0.455129100
v 0.726653882 1.000000000 0.466026309
v 0.730000000 1.000000000 0.500000000
v 0.730000000 0.915000000 0.500000000
v 0.728926718 1.000000000 0.510897161
v 0.725580600 1.000000000 0.544870700
v 0.725580600 0.915000000 0.544870700
v 0.722402016 1.000000000 0.555349102
v 0.712492300 1.000000000 0.588017100
v 0.712492300 0.915000000 0.588017100
v 0.707330546 1.000000000 0.597674087
v 0.691238000 1.000000000 0.627781200
v 0.691238000 0.915000000 0.627781200
v 0.684291466 1.000000000 0.636245566
v 0.662634600 1.000000000 0.662634500
v 0.662634600 0.915000000 0.662634500
v 0.654170210 1.000000000 0.669581058
v 0.627781200 1.000000000 0.691238000
v 0.627781200 0.915000000 0.691238000
v 0.618124237 1.000000000 0.696399730
v 0.588017200 1.000000000 0.712492200
v 0.588017200 0.915000000 0.712492200
v 0.577538822 1.000000000 0.715670809
v 0.544870900 1.000000000 0.725580600
v 0.544870900 0.915000000 0.725580600
v 0.533973691 1.000000000 0.726653882
v 0.482823293 1.000000000 0.607279463
v 0.500000000 0.050000000 0.610000000
v 0.500000000 1.000000000 0.610000000
v 0.466008200 1.000000000 0.604616200
v 0.466008200 0.050000000 0.604616200
v 0.450512791 1.000000000 0.596720942
v 0.435343600 1.000000000 0.588991900
v 0.435343600 0.050000000 0.588991900
v 0.423046407 1.000000000 0.576694707
v 0.411008100 1.000000000 0.564656400
v 0.411008100 0.050000000 0.564656400
v 0.403112842 1.000000000 0.549161042
v 0.395383800 1.000000000 0.533991900
v 0.395383800 0.050000000 0.533991900
v 0.392663263 1.000000000 0.516815143
v 0.390000000 1.000000000 0.500000000
v 0.390000000 0.050000000 0.500000000
v 0.392720537 1.000000000 0.482823293
v 0.395383800 1.000000000 0.466008200
v 0.395383800 0.050000000 0.466008200
v 0.403279058 1.000000000 0.450512791
v 0.411008100 1.000000000 0.435343600
v 0.411008100 0.050000000 0.435343600
v 0.423305293 1.000000000 0.423046407
v 0.435343600 1.000000000 0.411008100
v 0.435343600 0.050000000 0.411008100
v 0.450838958 1.000000000 0.403112842
v 0.466008100 1.000000000 0.395383800
v 0.466008100 0.050000000 0.395383800
v 0.483184857 1.000000000 0.392663263
v 0.500000000 1.000000000 0.390000000
v 0.500000000 0.050000000 0.390000000
v 0.517176707 1.000000000 0.392720537
v 0.533991800 1.000000000 0.395383800
v 0.533991800 0.050000000 0.395383800
v 0.549487209 1.000000000 0.403279058
v 0.564656400 1.000000000 0.411008100
v 0.564656400 0.050000000 0.411008100
v 0.576953593 1.000000000 0.423305293
v 0.588991900 1.000000000 0.435343600
v 0.588991900 0.050000000 0.435343600
v 0.596887158 1.000000000 0.450838958
v 0.604616200 1.000000000 0.466008100
v 0.604616200 0.050000000 0.466008100
v 0.607336737 1.000000000 0.483184857
v 0.610000000 1.000000000 0.500000000
v 0.610000000 0.050000000 0.500000000
v 0.607279463 1.000000000 0.517176707
v 0.604616200 1.000000000 0.533991800
v 0.604616200 0.050000000 0.533991800
v 0.596720942 1.000000000 0.549487209
v 0.588991900 1.000000000 0.564656400
v 0.588991900 0.050000000 0.564656400
v 0.576694707 1.000000000 0.576953593
v 0.564656400 1.000000000 0.588991900
v 0.564656400 0.050000000 0.588991900
v 0.549161042 1.000000000 0.596887158
v 0.533991900 1.000000000 0.604616200
v 0.533991900 0.050000000 0.604616200
v 0.516815143 1.000000000 0.607336737
v 0.830000000 0.590000200 0.535000000
v 0.830000000 0.665000000 0.535000000
v 0.799689200 0.665000000 0.517500000
v 0.799689200 0.590000200 0.517500000
v 0.799689200 0.665000000 0.482500000
v 0.799689200 0.590000200 0.482500000
v 0.830000000 0.665000000 0.465000000
v 0.830000000 0.590000200 0.465000000
v 0.860310900 0.665000000 0.482500000
v 0.860310900 0.590000200 0.482500000
v 0.860310900 0.665000000 0.517500000
v 0.860310900 0.590000200 0.517500000
v 0.733345300 0.590000200 0.768345200
v 0.733345300 0.665000000 0.768345200
v 0.703034400 0.665000000 0.750845300
v 0.703034400 0.590000200 0.750845300
v 0.703034400 0.665000000 0.715845200
v 0.703034400 0.590000200 0.715845200
v 0.733345300 0.665000000 0.698345300
v 0.733345300 0.590000200 0.698345300
v 0.763656100 0.665000000 0.715845200
v 0.763656100 0.590000200 0.715845200
v 0.763656100 0.665000000 0.750845300
v 0.763656100 0.590000200 0.750845300
v 0.500000000 0.590000200 0.865000000
v 0.500000000 0.665000000 0.865000000
v 0.469689100 0.665000000 0.847500100
v 0.469689100 0.590000200 0.847500100
v 0.469689100 0.665000000 0.812500000
v 0.469689100 0.590000200 0.812500000
v 0.500000000 0.665000000 0.795000100
v 0.500000000 0.590000200 0.795000100
v 0.530310900 0.665000000 0.812500000
v 0.530310900 0.590000200 0.812500000
v 0.530310900 0.665000000 0.847500100
v 0.530310900 0.590000200 0.847500100
v 0.266654700 0.590000200 0.768345200
v 0.266654700 0.665000000 0.768345200
v 0.236343900 0.665000000 0.750845300
v 0.236343900 0.590000200 0.750845300
v 0.236343900 0.665000000 0.715845200
v 0.236343900 0.590000200 0.715845200
v 0.266654700 0.665000000 0.698345300
v 0.266654700 0.590000200 0.698345300
v 0.296965600 0.665000000 0.715845200
v 0.296965600 0.590000200 0.715845200
v 0.296965600 0.665000000 0.750845300
v 0.296965600 0.590000200 0.750845300
v 0.170000000 0.590000200 0.535000000
v 0.170000000 0.665000000 0.535000000
v 0.139689100 0.665000000 0.517500000
v 0.139689100 0.590000200 0.517500000
v 0.139689100 0.665000000 0.482500000
v 0.139689100 0.590000200 0.482500000
v 0.170000000 0.665000000 0.465000000
v 0.170000000 0.590000200 0.465000000
v 0.200310800 0.665000000 0.482500000
v 0.200310800 0.590000200 0.482500000
v 0.200310800 0.665000000 0.517500000
v 0.200310800 0.590000200 0.517500000
v 0.266654700 0.590000200 0.301654700
v 0.266654700 0.665000000 0.301654700
v 0.236343900 0.665000000 0.284154800
v 0.236343900 0.590000200 0.284154800
v 0.236343900 0.665000000 0.249154700
v 0.236343900 0.590000200 0.249154700
v 0.266654700 0.665000000 0.231654800
v 0.266654700 0.590000200 0.231654800
v 0.296965600 0.665000000 0.249154700
v 0.296965600 0.590000200 0.249154700
v 0.296965600 0.665000000 0.284154800
v 0.296965600 0.590000200 0.284154800
v 0.500000000 0.590000200 0.204999900
v 0.500000000 0.665000000 0.204999900
v 0.469689100 0.665000000 0.187500000
v 0.469689100 0.590000200 0.187500000
v 0.469689100 0.665000000 0.152499900
v 0.469689100 0.590000200 0.152499900
v 0.500000000 0.665000000 0.135000000
v 0.500000000 0.590000200 0.135000000
v 0.530310900 0.665000000 0.152499900
v 0.530310900 0.590000200 0.152499900
v 0.530310900 0.665000000 0.187500000
v 0.530310900 0.590000200 0.187500000
v 0.733345300 0.590000200 0.301654700
v 0.733345300 0.665000000 0.301654700
v 0.703034400 0.665000000 0.284154800
v 0.703034400 0.590000200 0.284154800
v 0.703034400 0.665000000 0.249154700
v 0.703034400 0.590000200 0.249154700
v 0.733345300 0.665000000 0.231654800
v 0.733345300 0.590000200 0.231654800
v 0.763656100 0.665000000 0.249154700
v 0.763656100 0.590000200 0.249154700
v 0.763656100 0.665000000 0.284154800
v 0.763656100 0.590000200 0.284154800
v 0.500000100 0.494999900 0.910000000
v 0.500000100 0.585000000 0.910000000
v 0.420013100 0.585000000 0.902122000
v 0.420013100 0.494999900 0.902122000
v 0.343099800 0.585000000 0.878790600
v 0.343099800 0.494999900 0.878790600
v 0.272216200 0.585000000 0.840902600
v 0.272216200 0.494999900 0.840902600
v 0.210086200 0.585000000 0.789913800
v 0.210086200 0.494999900 0.789913800
v 0.159097600 0.585000000 0.727783800
v 0.159097600 0.494999900 0.727783800
v 0.121209400 0.585000000 0.656900300
v 0.121209400 0.494999900 0.656900300
v 0.097878100 0.585000000 0.579987000
v 0.097878100 0.494999900 0.579987000
v 0.090000000 0.585000000 0.500000100
v 0.090000000 0.494999900 0.500000100
v 0.097878000 0.585000000 0.420013100
v 0.097878000 0.494999900 0.420013100
v 0.121209400 0.585000000 0.343099800
v 0.121209400 0.494999900 0.343099800
v 0.159097400 0.585000000 0.272216200
v 0.159097400 0.494999900 0.272216200
v 0.210086200 0.585000000 0.210086200
v 0.210086200 0.494999900 0.210086200
v 0.272216200 0.585000000 0.159097600
v 0.272216200 0.494999900 0.159097600
v 0.343099700 0.585000000 0.121209400
v 0.343099700 0.494999900 0.121209400
v 0.420013000 0.585000000 0.097878100
v 0.420013000 0.494999900 0.097878100
v 0.499999900 0.585000000 0.090000000
v 0.499999900 0.494999900 0.090000000
v 0.579986900 0.585000000 0.097878000
v 0.579986900 0.494999900 0.097878000
v 0.656900200 0.585000000 0.121209400
v 0.656900200 0.494999900 0.121209400
v 0.727783800 0.585000000 0.159097400
v 0.727783800 0.494999900 0.159097400
v 0.789913800 0.585000000 0.210086200
v 0.789913800 0.494999900 0.210086200
v 0.840902400 0.585000000 0.272216200
v 0.840902400 0.494999900 0.272216200
v 0.878790600 0.585000000 0.343099700
v 0.878790600 0.494999900 0.343099700
v 0.902121900 0.585000000 0.420013000
v 0.902121900 0.494999900 0.420013000
v 0.910000000 0.585000000 0.499999900
v 0.910000000 0.494999900 0.499999900
v 0.902122000 0.585000000 0.579986900
v 0.902122000 0.494999900 0.579986900
v 0.878790600 0.585000000 0.656900200
v 0.878790600 0.494999900 0.656900200
v 0.840902600 0.585000000 0.727783800
v 0.840902600 0.494999900 0.727783800
v 0.789913800 0.585000000 0.789913800
v 0.789913800 0.494999900 0.789913800
v 0.727783800 0.585000000 0.840902400
v 0.727783800 0.494999900 0.840902400
v 0.656900300 0.585000000 0.878790600
v 0.656900300 0.494999900 0.878790600
v 0.579987000 0.585000000 0.902121900
v 0.579987000 0.494999900 0.902121900
v 0.000000000 0.644334309 0.498392936
v 0.000000000 0.645000000 0.500000000
v 0.500000000 0.645000000 0.500000000
v 0.500000000 0.637677400 0.482322300
v 0.000000000 0.637677673 0.482322300
v 0.000000000 0.636070627 0.481656636
v 0.500000000 0.619999900 0.475000000
v 0.000000000 0.619999900 0.475000000
v 0.000000000 0.618392827 0.475665664
v 0.500000000 0.602322100 0.482322300
v 0.000000000 0.602322282 0.482322300
v 0.000000000 0.601656618 0.483929364
v 0.500000000 0.594999800 0.500000000
v 0.000000000 0.594999800 0.500000000
v 0.000000000 0.595665464 0.501607064
v 0.500000000 0.602322100 0.517677700
v 0.000000000 0.602322282 0.517677700
v 0.000000000 0.603929355 0.518343364
v 0.500000000 0.619999900 0.525000000
v 0.000000000 0.619999900 0.525000000
v 0.500000000 0.637677400 0.517677700
v 0.000000000 0.621606945 0.524334336
v 0.000000000 0.637677673 0.517677700
v 0.000000000 0.638343364 0.516070636
v 1.000000000 0.644334309 0.501607064
v 1.000000000 0.645000000 0.500000000
v 1.000000000 0.637677673 0.517677700
v 1.000000000 0.636070627 0.518343364
v 1.000000000 0.619999900 0.525000000
v 1.000000000 0.618392827 0.524334336
v 1.000000000 0.602322282 0.517677700
v 1.000000000 0.601656618 0.516070636
v 1.000000000 0.594999800 0.500000000
v 1.000000000 0.595665464 0.498392936
v 1.000000000 0.602322282 0.482322300
v 1.000000000 0.603929355 0.481656636
v 1.000000000 0.619999900 0.475000000
v 1.000000000 0.621606945 0.475665664
v 1.000000000 0.637677673 0.482322300
v 1.000000000 0.638343364 0.483929364
vt 0 0
vt 1 0
vt 1 1
vt 0 1
vn -1.000000000 0.000000000 0.000000000
vn -0.995184861 0.000000000 -0.098015772
vn -0.995184765 0.000000000 -0.098016747
vn -0.995184737 0.000000000 0.098017037
vn -0.995184722 0.000000000 0.098017186
vn -0.995184680 0.000000000 -0.098017619
vn -0.995184632 0.000000000 0.098018101
vn -0.987688287 0.000000000 0.156434804
vn -0.987688216 0.000000000 -0.156435253
vn -0.956940662 0.000000000 0.290283601
vn -0.956940585 0.000000000 0.290283856
vn -0.956940443 0.000000000 -0.290284325
vn -0.956940317 0.000000000 -0.290284740
vn -0.956940191 0.000000000 -0.290285154
vn -0.956939640 0.000000000 0.290286972
vn -0.891007630 0.000000000 -0.453988329
vn -0.891007031 0.000000000 0.453989504
vn -0.881922194 0.000000000 0.471394998
vn -0.881921847 0.000000000 -0.471395646
vn -0.881921765 0.000000000 -0.471395801
vn -0.881921645 0.000000000 -0.471396025
vn -0.881920354 0.000000000 0.471398440
vn -0.881920334 0.000000000 0.471398478
vn -0.860065581 0.000000060 0.510183492
vn -0.860065454 -0.000000015 0.510183707
vn -0.860065395 -0.000000018 -0.510183806
vn -0.860065268 -0.000000093 -0.510184021
vn -0.808537709 0.207470394 -0.550656707
vn -0.808537422 0.207470436 0.550657112
vn -0.808536766 0.207470373 0.550658099
vn -0.808536747 0.207470484 -0.550658086
vn -0.773011511 0.000000000 0.634391996
vn -0.773010290 0.000000000 -0.634393483
vn -0.773010260 0.000000000 0.634393520
vn -0.773010063 0.000000000 -0.634393760
vn -0.773009868 0.000000000 0.634393998
vn -0.773008870 0.000000000 -0.634395213
vn -0.733575259 0.207470501 -0.647165613
vn -0.733575014 -0.207470405 -0.647165922
vn -0.733575012 -0.207470414 0.647165920
vn -0.733574875 0.207470495 0.647166051
vn -0.733574609 -0.207470374 0.647166391
vn -0.733574244 0.207470443 0.647166782
vn -0.733574221 0.207470585 -0.647166763
vn -0.707106781 0.000000000 -0.707106781
vn -0.707106781 0.000000000 0.707106781
vn -0.647166777 0.207470482 -0.733574238
vn -0.647166775 0.207470497 0.733574235
vn -0.647166009 -0.207470406 -0.733574937
vn -0.647165928 -0.207470361 0.733575021
vn -0.647165920 -0.207470414 -0.733575012
vn -0.647165626 0.207470414 0.733575273
vn -0.647165604 0.207470565 -0.733575249
vn -0.634395213 0.000000000 0.773008870
vn -0.634393998 0.000000000 -0.773009868
vn -0.634393760 0.000000000 0.773010063
vn -0.634393520 0.000000000 -0.773010260
vn -0.634393483 0.000000000 0.773010290
vn -0.634391996 0.000000000 -0.773011511
vn -0.550658099 0.207470373 -0.808536766
vn -0.550658097 0.207470388 0.808536764
vn -0.550657912 0.207470375 0.808536893
vn -0.550656699 0.207470463 -0.808537697
vn -0.510184021 -0.000000093 -0.860065268
vn -0.510183806 -0.000000018 -0.860065395
vn -0.510183806 -0.000000071 0.860065395
vn -0.510183492 0.000000038 0.860065581
vn -0.500001103 0.000000000 -0.866024767
vn -0.500001103 0.000000000 0.866024767
vn -0.499999866 0.000000000 -0.866025481
vn -0.499999866 0.000000000 0.866025481
vn -0.499998960 0.000000000 0.866026004
vn -0.499998960 0.000000000 -0.866026004
vn -0.499998960 0.000000000 -0.866026004
vn -0.499998960 0.000000000 0.866026004
vn -0.499997723 0.000000000 -0.866026719
vn -0.499997723 0.000000000 0.866026719
vn -0.499997723 0.000000000 -0.866026719
vn -0.499997723 0.000000000 -0.866026719
vn -0.499997723 0.000000000 0.866026719
vn -0.471398478 0.000000000 -0.881920334
vn -0.471398440 0.000000000 -0.881920354
vn -0.471396025 0.000000000 0.881921645
vn -0.471395801 0.000000000 0.881921765
vn -0.471395646 0.000000000 0.881921847
vn -0.471394998 0.000000000 -0.881922194
vn -0.453989504 0.000000000 -0.891007031
vn -0.453988329 0.000000000 0.891007630
vn -0.290286972 0.000000000 -0.956939640
vn -0.290285154 0.000000000 0.956940191
vn -0.290284740 0.000000000 0.956940317
vn -0.290284325 0.000000000 0.956940443
vn -0.290283856 0.000000000 -0.956940585
vn -0.290283601 0.000000000 -0.956940662
vn -0.156435253 0.000000000 0.987688216
vn -0.156434804 0.000000000 -0.987688287
vn -0.098018101 0.000000000 -0.995184632
vn -0.098017619 0.000000000 0.995184680
vn -0.098017186 0.000000000 -0.995184722
vn -0.098017037 0.000000000 -0.995184737
vn -0.098016747 0.000000000 0.995184765
vn -0.098015772 0.000000000 0.995184861
vn -0.000000504 0.923880329 0.382681510
vn -0.000000504 0.923874785 -0.382694893
vn -0.000000336 -0.923880329 -0.382681510
vn -0.000000336 -0.923876633 0.382690432
vn -0.000000209 0.382685206 0.923878798
vn -0.000000209 0.382679662 -0.923881094
vn -0.000000139 -0.382683358 -0.923879563
vn -0.000000139 -0.382679662 0.923881094
vn 0.000000000 -1.000000000 0.000000000
vn 0.000000000 -0.923880329 0.382681510
vn 0.000000000 -0.923880329 -0.382681510
vn 0.000000000 -0.923876633 -0.382690432
vn 0.000000000 -0.923876633 0.382690432
vn 0.000000000 -0.382683358 -0.923879563
vn 0.000000000 -0.382683358 0.923879563
vn 0.000000000 -0.382679662 0.923881094
vn 0.000000000 -0.382679662 -0.923881094
vn 0.000000000 0.382679662 -0.923881094
vn 0.000000000 0.382679662 0.923881094
vn 0.000000000 0.382685206 0.923878798
vn 0.000000000 0.382685206 -0.923878798
vn 0.000000000 0.923874785 -0.382694893
vn 0.000000000 0.923874785 0.382694893
vn 0.000000000 0.923880329 0.382681510
vn 0.000000000 0.923880329 -0.382681510
vn 0.000000000 1.000000000 0.000000000
vn 0.000000139 -0.382679662 -0.923881094
vn 0.000000139 -0.382683358 0.923879563
vn 0.000000209 0.382679662 0.923881094
vn 0.000000209 0.382685206 -0.923878798
vn 0.000000336 -0.923876633 -0.382690432
vn 0.000000336 -0.923880329 0.382681510
vn 0.000000504 0.923874785 0.382694893
vn 0.000000504 0.923880329 -0.382681510
vn 0.098015772 0.000000000 -0.995184861
vn 0.098016747 0.000000000 -0.995184765
vn 0.098017037 0.000000000 0.995184737
vn 0.098017186 0.000000000 0.995184722
vn 0.098017619 0.000000000 -0.995184680
vn 0.098018101 0.000000000 0.995184632
vn 0.156434804 0.000000000 0.987688287
vn 0.156435253 0.000000000 -0.987688216
vn 0.290283601 0.000000000 0.956940662
vn 0.290283856 0.000000000 0.956940585
vn 0.290284325 0.000000000 -0.956940443
vn 0.290284740 0.000000000 -0.956940317
vn 0.290285154 0.000000000 -0.956940191
vn 0.290286972 0.000000000 0.956939640
vn 0.453988329 0.000000000 -0.891007630
vn 0.453989504 0.000000000 0.891007031
vn 0.471394998 0.000000000 0.881922194
vn 0.471395646 0.000000000 -0.881921847
vn 0.471395801 0.000000000 -0.881921765
vn 0.471396025 0.000000000 -0.881921645
vn 0.471398440 0.000000000 0.881920354
vn 0.471398478 0.000000000 0.881920334
vn 0.499997723 0.000000000 -0.866026719
vn 0.499997723 0.000000000 -0.866026719
vn 0.499997723 0.000000000 0.866026719
vn 0.499997723 0.000000000 -0.866026719
vn 0.499997723 0.000000000 -0.866026719
vn 0.499997723 0.000000000 0.866026719
vn 0.499997723 0.000000000 0.866026719
vn 0.499998960 0.000000000 -0.866026004
vn 0.499998960 0.000000000 0.866026004
vn 0.499998960 0.000000000 -0.866026004
vn 0.499998960 0.000000000 0.866026004
vn 0.499999866 0.000000000 0.866025481
vn 0.499999866 0.000000000 -0.866025481
vn 0.500001103 0.000000000 0.866024767
vn 0.500001103 0.000000000 -0.866024767
vn 0.510183179 0.000000115 0.860065767
vn 0.510183492 0.000000006 0.860065581
vn 0.510183492 0.000000060 -0.860065581
vn 0.510183707 -0.000000015 -0.860065454
vn 0.550657117 0.207470388 -0.808537431
vn 0.550658090 0.207470451 -0.808536752
vn 0.550658099 0.207470373 0.808536766
vn 0.550658323 0.207470358 0.808536617
vn 0.634391996 0.000000000 0.773011511
vn 0.634393483 0.000000000 -0.773010290
vn 0.634393520 0.000000000 0.773010260
vn 0.634393760 0.000000000 -0.773010063
vn 0.634393998 0.000000000 0.773009868
vn 0.634395213 0.000000000 -0.773008870
vn 0.647165914 -0.207470458 0.733575005
vn 0.647165927 -0.207470366 -0.733575020
vn 0.647166056 0.207470455 -0.733574881
vn 0.647166063 0.207470407 0.733574889
vn 0.647166773 0.207470507 -0.733574233
vn 0.647166795 0.207470355 0.733574258
vn 0.647167250 -0.207470345 0.733573859
vn 0.707106781 0.000000000 -0.707106781
vn 0.707106781 0.000000000 0.707106781
vn 0.733574187 -0.207470377 -0.647166868
vn 0.733574247 0.207470419 0.647166786
vn 0.733574251 0.207470394 -0.647166789
vn 0.733574895 0.207470368 0.647166069
vn 0.733575005 -0.207470458 -0.647165914
vn 0.733575027 -0.207470322 0.647165933
vn 0.733575262 0.207470477 -0.647165617
vn 0.773008870 0.000000000 0.634395213
vn 0.773009868 0.000000000 -0.634393998
vn 0.773010063 0.000000000 0.634393760
vn 0.773010260 0.000000000 -0.634393520
vn 0.773010290 0.000000000 0.634393483
vn 0.773011511 0.000000000 -0.634391996
vn 0.808536615 0.207470369 0.550658322
vn 0.808536766 0.207470373 -0.550658099
vn 0.808536769 0.207470355 0.550658101
vn 0.808536892 0.207470385 -0.550657911
vn 0.860065395 -0.000000071 -0.510183806
vn 0.860065581 0.000000038 -0.510183492
vn 0.860065581 0.000000006 0.510183492
vn 0.860065767 0.000000115 0.510183179
vn 0.881920334 0.000000000 -0.471398478
vn 0.881920354 0.000000000 -0.471398440
vn 0.881921645 0.000000000 0.471396025
vn 0.881921765 0.000000000 0.471395801
vn 0.881921847 0.000000000 0.471395646
vn 0.881922194 0.000000000 -0.471394998
vn 0.891007031 0.000000000 -0.453989504
vn 0.891007630 0.000000000 0.453988329
vn 0.956939640 0.000000000 -0.290286972
vn 0.956940191 0.000000000 0.290285154
vn 0.956940317 0.000000000 0.290284740
vn 0.956940443 0.000000000 0.290284325
vn 0.956940585 0.000000000 -0.290283856
vn 0.956940662 0.000000000 -0.290283601
vn 0.987688216 0.000000000 0.156435253
vn 0.987688287 0.000000000 -0.156434804
vn 0.995184632 0.000000000 -0.098018101
vn 0.995184680 0.000000000 0.098017619
vn 0.995184722 0.000000000 -0.098017186
vn 0.995184737 0.000000000 -0.098017037
vn 0.995184765 0.000000000 0.098016747
vn 0.995184861 0.000000000 0.098015772
vn 1.000000000 0.000000000 0.000000000
usemtl dvss_1
f 1/1/102 2/2/102 3/3/102
f 1/1/102 3/2/102 4/3/102
f 4/1/90 3/2/90 5/3/90
f 4/1/90 5/2/90 6/3/90
f 6/1/85 5/2/85 7/3/85
f 6/1/85 7/2/85 8/3/85
f 8/1/54 7/2/54 9/3/54
f 8/1/54 9/2/54 10/3/54
f 10/1/34 9/2/34 11/3/34
f 10/1/34 11/2/34 12/3/34
f 12/1/22 11/2/22 13/3/22
f 12/1/22 13/2/22 14/3/22
f 14/1/11 13/2/11 15/3/11
f 14/1/11 15/2/11 16/3/11
f 16/1/4 15/2/4 17/3/4
f 16/1/4 17/2/4 18/3/4
f 18/1/2 17/2/2 19/3/2
f 18/1/2 19/2/2 20/3/2
f 20/1/14 19/2/14 21/3/14
f 20/1/14 21/2/14 22/3/14
f 22/1/19 21/2/19 23/3/19
f 22/1/19 23/2/19 24/3/19
f 24/1/37 23/2/37 25/3/37
f 24/1/37 25/2/37 26/3/37
f 26/1/57 25/2/57 27/3/57
f 26/1/57 27/2/57 28/3/57
f 28/1/82 27/2/82 29/3/82
f 28/1/82 29/2/82 30/3/82
f 30/1/93 29/2/93 31/3/93
f 30/1/93 31/2/93 32/3/93
f 32/1/100 31/2/100 33/3/100
f 32/1/100 33/2/100 34/3/100
f 34/1/137 33/2/137 35/3/137
f 34/1/137 35/2/137 36/3/137
f 36/1/149 35/2/149 37/3/149
f 36/1/149 37/2/149 38/3/149
f 38/1/154 37/2/154 39/3/154
f 38/1/154 39/2/154 40/3/154
f 40/1/187 39/2/187 41/3/187
f 40/1/187 41/2/187 42/3/187
f 42/1/207 41/2/207 43/3/207
f 42/1/207 43/2/207 44/3/207
f 44/1/219 43/2/219 45/3/219
f 44/1/219 45/2/219 46/3/219
f 46/1/230 45/2/230 47/3/230
f 46/1/230 47/2/230 48/3/230
f 48/1/237 47/2/237 49/3/237
f 48/1/237 49/2/237 50/3/237
f 50/1/239 49/2/239 51/3/239
f 50/1/239 51/2/239 52/3/239
f 52/1/227 51/2/227 53/3/227
f 52/1/227 53/2/227 54/3/227
f 54/1/222 53/2/222 55/3/222
f 54/1/222 55/2/222 56/3/222
f 56/1/204 55/2/204 57/3/204
f 56/1/204 57/2/204 58/3/204
f 58/1/184 57/2/184 59/3/184
f 58/1/184 59/2/184 60/3/184
f 60/1/157 59/2/157 61/3/157
f 60/1/157 61/2/157 62/3/157
f 5/1/128 3/2/128 2/3/128
f 2/1/128 63/2/128 61/3/128
f 61/1/128 59/2/128 57/3/128
f 57/1/128 55/2/128 53/3/128
f 53/1/128 51/2/128 49/3/128
f 49/1/128 47/2/128 45/3/128
f 45/1/128 43/2/128 41/3/128
f 41/1/128 39/2/128 37/3/128
f 37/1/128 35/2/128 33/3/128
f 33/1/128 31/2/128 29/3/128
f 29/1/128 27/2/128 25/3/128
f 25/1/128 23/2/128 21/3/128
f 21/1/128 19/2/128 17/3/128
f 17/1/128 15/2/128 13/3/128
f 13/1/128 11/2/128 9/3/128
f 9/1/128 7/2/128 5/3/128
f 5/1/128 2/2/128 61/3/128
f 61/1/128 57/2/128 53/3/128
f 53/1/128 49/2/128 45/3/128
f 45/1/128 41/2/128 37/3/128
f 37/1/128 33/2/128 29/3/128
f 29/1/128 25/2/128 21/3/128
f 21/1/128 17/2/128 13/3/128
f 13/1/128 9/2/128 5/3/128
f 5/1/128 61/2/128 53/3/128
f 53/1/128 45/2/128 37/3/128
f 37/1/128 29/2/128 21/3/128
f 21/1/128 13/2/128 5/3/128
f 5/1/128 53/2/128 37/3/128
f 37/1/128 21/2/128 5/3/128
f 62/1/146 61/2/146 63/3/146
f 62/1/146 63/2/146 64/3/146
f 64/1/139 63/2/139 2/3/139
f 64/1/139 2/2/139 1/3/139
f 64/1/111 1/2/111 4/3/111
f 4/1/111 6/2/111 8/3/111
f 8/1/111 10/2/111 12/3/111
f 12/1/111 14/2/111 16/3/111
f 16/1/111 18/2/111 20/3/111
f 20/1/111 22/2/111 24/3/111
f 24/1/111 26/2/111 28/3/111
f 28/1/111 30/2/111 32/3/111
f 32/1/111 34/2/111 36/3/111
f 36/1/111 38/2/111 40/3/111
f 40/1/111 42/2/111 44/3/111
f 44/1/111 46/2/111 48/3/111
f 48/1/111 50/2/111 52/3/111
f 52/1/111 54/2/111 56/3/111
f 56/1/111 58/2/111 60/3/111
f 60/1/111 62/2/111 64/3/111
f 64/1/111 4/2/111 8/3/111
f 8/1/111 12/2/111 16/3/111
f 16/1/111 20/2/111 24/3/111
f 24/1/111 28/2/111 32/3/111
f 32/1/111 36/2/111 40/3/111
f 40/1/111 44/2/111 48/3/111
f 48/1/111 52/2/111 56/3/111
f 56/1/111 60/2/111 64/3/111
f 64/1/111 8/2/111 16/3/111
f 16/1/111 24/2/111 32/3/111
f 32/1/111 40/2/111 48/3/111
f 48/1/111 56/2/111 64/3/111
f 64/1/111 16/2/111 32/3/111
f 32/1/111 48/2/111 64/3/111
usemtl dvss_4
f 65/1/128 66/2/128 67/3/128
f 68/1/128 69/2/128 70/3/128
f 71/1/128 72/2/128 73/3/128
f 74/1/128 75/2/128 76/3/128
f 77/1/128 78/2/128 67/3/128 66/4/128
f 79/1/128 80/2/128 69/3/128 68/4/128
f 81/1/128 82/2/128 73/3/128 72/4/128
f 83/1/128 84/2/128 75/3/128 74/4/128
f 85/1/128 86/2/128 78/3/128
f 85/1/128 78/2/128 77/3/128
f 85/1/128 77/2/128 80/3/128
f 85/1/128 80/2/128 79/3/128
f 86/1/128 85/2/128 82/3/128
f 86/1/128 82/2/128 81/3/128
f 86/1/128 81/2/128 84/3/128
f 86/1/128 84/2/128 83/3/128
f 87/1/111 88/2/111 89/3/111
f 90/1/111 91/2/111 92/3/111
f 93/1/111 94/2/111 95/3/111
f 96/1/111 97/2/111 98/3/111
f 99/1/111 100/2/111 89/3/111 88/4/111
f 101/1/111 102/2/111 91/3/111 90/4/111
f 103/1/111 104/2/111 95/3/111 94/4/111
f 105/1/111 106/2/111 97/3/111 96/4/111
f 107/1/111 108/2/111 100/3/111
f 107/1/111 100/2/111 99/3/111
f 107/1/111 99/2/111 102/3/111
f 107/1/111 102/2/111 101/3/111
f 108/1/111 107/2/111 104/3/111
f 108/1/111 104/2/111 103/3/111
f 108/1/111 103/2/111 106/3/111
f 108/1/111 106/2/111 105/3/111
f 109/1/31 110/2/31 111/3/31 112/4/31
f 113/1/28 110/2/28 109/3/28
f 114/1/111 110/2/111 115/3/111
f 110/1/111 114/2/111 116/3/111 111/4/111
f 117/1/44 111/2/44 118/3/44 119/4/44
f 112/1/38 111/2/38 117/3/38
f 120/1/202 121/2/202 122/3/202
f 111/1/111 116/2/111 120/3/111 122/4/111
f 111/1/111 122/2/111 118/3/111
f 123/1/47 118/2/47 124/3/47 125/4/47
f 119/1/53 118/2/53 123/3/53
f 121/1/194 126/2/194 122/3/194
f 127/1/188 122/2/188 126/3/188
f 128/1/111 118/2/111 122/3/111 127/4/111
f 118/1/111 128/2/111 129/3/111 124/4/111
f 130/1/60 124/2/60 131/3/60 132/4/60
f 125/1/63 124/2/63 130/3/63
f 133/1/111 124/2/111 129/3/111
f 124/1/111 133/2/111 134/3/111 131/4/111
f 135/1/177 110/2/177 113/3/177
f 115/1/176 110/2/176 135/3/176
f 136/1/24 131/2/24 134/3/24
f 132/1/25 131/2/25 136/3/25
f 137/1/179 138/2/179 139/3/179 140/4/179
f 141/1/178 138/2/178 137/3/178
f 142/1/111 138/2/111 143/3/111
f 138/1/111 142/2/111 144/3/111 139/4/111
f 145/1/192 139/2/192 146/3/192 147/4/192
f 140/1/190 139/2/190 145/3/190
f 148/1/50 149/2/50 150/3/50 151/4/50
f 139/1/111 144/2/111 148/3/111 151/4/111
f 139/1/111 151/2/111 146/3/111
f 152/1/199 146/2/199 153/3/199 154/4/199
f 155/1/203 147/2/203 146/3/203 152/4/203
f 156/1/42 151/2/42 150/3/42
f 157/1/40 151/2/40 156/3/40
f 158/1/111 146/2/111 151/3/111 157/4/111
f 146/1/111 158/2/111 159/3/111 153/4/111
f 160/1/211 153/2/211 161/3/211 162/4/211
f 154/1/213 153/2/213 160/3/213
f 163/1/111 153/2/111 159/3/111
f 153/1/111 163/2/111 164/3/111 161/4/111
f 165/1/217 138/2/217 141/3/217
f 143/1/216 138/2/216 165/3/216
f 166/1/65 161/2/65 164/3/65
f 162/1/64 161/2/64 166/3/64
f 167/1/212 168/2/212 169/3/212 170/4/212
f 171/1/210 168/2/210 167/3/210
f 172/1/111 168/2/111 173/3/111
f 168/1/111 172/2/111 174/3/111 169/4/111
f 175/1/198 169/2/198 176/3/198 177/4/198
f 170/1/200 169/2/200 175/3/200
f 178/1/39 179/2/39 180/3/39
f 169/1/111 174/2/111 178/3/111 180/4/111
f 169/1/111 180/2/111 176/3/111
f 181/1/193 176/2/193 182/3/193 183/4/193
f 177/1/191 176/2/191 181/3/191
f 179/1/49 184/2/49 180/3/49
f 185/1/51 180/2/51 184/3/51
f 186/1/111 176/2/111 180/3/111 185/4/111
f 176/1/111 186/2/111 187/3/111 182/4/111
f 188/1/180 182/2/180 189/3/180 190/4/180
f 183/1/181 182/2/181 188/3/181
f 191/1/111 182/2/111 187/3/111
f 182/1/111 191/2/111 192/3/111 189/4/111
f 193/1/67 168/2/67 171/3/67
f 173/1/66 168/2/66 193/3/66
f 194/1/214 189/2/214 192/3/214
f 190/1/215 189/2/215 194/3/215
f 195/1/61 196/2/61 197/3/61 198/4/61
f 199/1/62 196/2/62 195/3/62
f 200/1/111 196/2/111 201/3/111
f 196/1/111 200/2/111 202/3/111 197/4/111
f 203/1/48 204/2/48 197/3/48
f 203/1/48 197/2/48 205/3/48
f 203/1/48 205/2/48 206/3/48
f 198/1/52 197/2/52 204/3/52
f 207/1/189 208/2/189 209/3/189
f 197/1/111 202/2/111 207/3/111 209/4/111
f 197/1/111 209/2/111 205/3/111
f 210/1/43 205/2/43 211/3/43 212/4/43
f 206/1/41 205/2/41 210/3/41
f 213/1/197 214/2/197 209/3/197 208/4/197
f 215/1/201 209/2/201 214/3/201
f 216/1/111 205/2/111 209/3/111 215/4/111
f 205/1/111 216/2/111 217/3/111 211/4/111
f 218/1/30 211/2/30 219/3/30 220/4/30
f 212/1/29 211/2/29 218/3/29
f 221/1/111 211/2/111 217/3/111
f 211/1/111 221/2/111 222/3/111 219/4/111
f 223/1/27 196/2/27 199/3/27
f 201/1/26 196/2/26 223/3/26
f 224/1/175 219/2/175 222/3/175
f 220/1/174 219/2/174 224/3/174
usemtl dvss_5
f 225/1/128 226/2/128 227/3/128 228/4/128
f 226/1/128 225/2/128 229/3/128 230/4/128
f 231/1/98 232/2/98 233/3/98
f 232/1/98 231/2/98 234/3/98 235/4/98
f 236/1/92 235/2/92 234/3/92
f 235/1/92 236/2/92 237/3/92 238/4/92
f 239/1/84 238/2/84 237/3/84
f 238/1/84 239/2/84 240/3/84 241/4/84
f 242/1/56 241/2/56 240/3/56
f 241/1/56 242/2/56 243/3/56 244/4/56
f 245/1/36 244/2/36 243/3/36
f 244/1/36 245/2/36 246/3/36 247/4/36
f 248/1/18 247/2/18 246/3/18
f 247/1/18 248/2/18 249/3/18 250/4/18
f 251/1/15 250/2/15 249/3/15
f 250/1/15 251/2/15 252/3/15 253/4/15
f 254/1/5 253/2/5 252/3/5
f 253/1/5 254/2/5 255/3/5 256/4/5
f 257/1/6 256/2/6 255/3/6
f 256/1/6 257/2/6 258/3/6 259/4/6
f 260/1/12 259/2/12 258/3/12
f 259/1/12 260/2/12 261/3/12 262/4/12
f 263/1/20 262/2/20 261/3/20
f 262/1/20 263/2/20 264/3/20 265/4/20
f 266/1/35 265/2/35 264/3/35
f 265/1/35 266/2/35 267/3/35 268/4/35
f 269/1/55 268/2/55 267/3/55
f 268/1/55 269/2/55 270/3/55 271/4/55
f 272/1/86 271/2/86 270/3/86
f 271/1/86 272/2/86 273/3/86 274/4/86
f 275/1/89 274/2/89 273/3/89
f 274/1/89 275/2/89 276/3/89 277/4/89
f 278/1/99 277/2/99 276/3/99
f 277/1/99 278/2/99 279/3/99 280/4/99
f 281/1/141 280/2/141 279/3/141
f 280/1/141 281/2/141 282/3/141 283/4/141
f 284/1/147 283/2/147 282/3/147
f 283/1/147 284/2/147 285/3/147 286/4/147
f 287/1/155 286/2/155 285/3/155
f 286/1/155 287/2/155 288/3/155 289/4/155
f 290/1/185 289/2/185 288/3/185
f 289/1/185 290/2/185 291/3/185 292/4/185
f 293/1/205 292/2/205 291/3/205
f 292/1/205 293/2/205 294/3/205 295/4/205
f 296/1/223 295/2/223 294/3/223
f 295/1/223 296/2/223 297/3/223 298/4/223
f 299/1/226 298/2/226 297/3/226
f 298/1/226 299/2/226 300/3/226 301/4/226
f 302/1/236 301/2/236 300/3/236
f 301/1/236 302/2/236 303/3/236 304/4/236
f 305/1/235 304/2/235 303/3/235
f 304/1/235 305/2/235 306/3/235 307/4/235
f 308/1/229 307/2/229 306/3/229
f 307/1/229 308/2/229 309/3/229 310/4/229
f 311/1/221 310/2/221 309/3/221
f 310/1/221 311/2/221 312/3/221 313/4/221
f 314/1/206 313/2/206 312/3/206
f 313/1/206 314/2/206 315/3/206 316/4/206
f 317/1/186 316/2/186 315/3/186
f 316/1/186 317/2/186 318/3/186 319/4/186
f 320/1/153 319/2/153 318/3/153
f 319/1/153 320/2/153 321/3/153 322/4/153
f 323/1/150 322/2/150 321/3/150
f 322/1/150 323/2/150 324/3/150 325/4/150
f 326/1/140 325/2/140 324/3/140
f 325/1/140 326/2/140 233/3/140 232/4/140
f 325/1/111 232/2/111 235/3/111
f 235/1/111 238/2/111 241/3/111
f 241/1/111 244/2/111 247/3/111
f 247/1/111 250/2/111 253/3/111
f 253/1/111 256/2/111 259/3/111
f 259/1/111 262/2/111 265/3/111
f 265/1/111 268/2/111 271/3/111
f 271/1/111 274/2/111 277/3/111
f 277/1/111 280/2/111 283/3/111
f 283/1/111 286/2/111 289/3/111
f 289/1/111 292/2/111 295/3/111
f 295/1/111 298/2/111 301/3/111
f 301/1/111 304/2/111 307/3/111
f 307/1/111 310/2/111 313/3/111
f 313/1/111 316/2/111 319/3/111
f 319/1/111 322/2/111 325/3/111
f 325/1/111 235/2/111 241/3/111
f 241/1/111 247/2/111 253/3/111
f 253/1/111 259/2/111 265/3/111
f 265/1/111 271/2/111 277/3/111
f 277/1/111 283/2/111 289/3/111
f 289/1/111 295/2/111 301/3/111
f 301/1/111 307/2/111 313/3/111
f 313/1/111 319/2/111 325/3/111
f 325/1/111 241/2/111 253/3/111
f 253/1/111 265/2/111 277/3/111
f 277/1/111 289/2/111 301/3/111
f 301/1/111 313/2/111 325/3/111
f 325/1/111 253/2/111 277/3/111
f 277/1/111 301/2/111 325/3/111
f 327/1/95 328/2/95 329/3/95
f 328/1/95 327/2/95 330/3/95 331/4/95
f 332/1/88 331/2/88 330/3/88
f 331/1/88 332/2/88 333/3/88 334/4/88
f 335/1/46 334/2/46 333/3/46
f 334/1/46 335/2/46 336/3/46 337/4/46
f 338/1/17 337/2/17 336/3/17
f 337/1/17 338/2/17 339/3/17 340/4/17
f 341/1/8 340/2/8 339/3/8
f 340/1/8 341/2/8 342/3/8 343/4/8
f 344/1/9 343/2/9 342/3/9
f 343/1/9 344/2/9 345/3/9 346/4/9
f 347/1/16 346/2/16 345/3/16
f 346/1/16 347/2/16 348/3/16 349/4/16
f 350/1/45 349/2/45 348/3/45
f 349/1/45 350/2/45 351/3/45 352/4/45
f 353/1/87 352/2/87 351/3/87
f 352/1/87 353/2/87 354/3/87 355/4/87
f 356/1/96 355/2/96 354/3/96
f 355/1/96 356/2/96 357/3/96 358/4/96
f 359/1/144 358/2/144 357/3/144
f 358/1/144 359/2/144 360/3/144 361/4/144
f 362/1/151 361/2/151 360/3/151
f 361/1/151 362/2/151 363/3/151 364/4/151
f 365/1/195 364/2/195 363/3/195
f 364/1/195 365/2/195 366/3/195 367/4/195
f 368/1/224 367/2/224 366/3/224
f 367/1/224 368/2/224 369/3/224 370/4/224
f 371/1/233 370/2/233 369/3/233
f 370/1/233 371/2/233 372/3/233 373/4/233
f 374/1/232 373/2/232 372/3/232
f 373/1/232 374/2/232 375/3/232 376/4/232
f 377/1/225 376/2/225 375/3/225
f 376/1/225 377/2/225 378/3/225 379/4/225
f 380/1/196 379/2/196 378/3/196
f 379/1/196 380/2/196 381/3/196 382/4/196
f 383/1/152 382/2/152 381/3/152
f 382/1/152 383/2/152 384/3/152 385/4/152
f 386/1/143 385/2/143 384/3/143
f 385/1/143 386/2/143 329/3/143 328/4/143
f 385/1/111 328/2/111 331/3/111
f 331/1/111 334/2/111 337/3/111
f 337/1/111 340/2/111 343/3/111
f 343/1/111 346/2/111 349/3/111
f 349/1/111 352/2/111 355/3/111
f 355/1/111 358/2/111 361/3/111
f 361/1/111 364/2/111 367/3/111
f 367/1/111 370/2/111 373/3/111
f 373/1/111 376/2/111 379/3/111
f 379/1/111 382/2/111 385/3/111
f 385/1/111 331/2/111 337/3/111
f 337/1/111 343/2/111 349/3/111
f 349/1/111 355/2/111 361/3/111
f 361/1/111 367/2/111 373/3/111
f 373/1/111 379/2/111 385/3/111
f 385/1/111 337/2/111 349/3/111
f 349/1/111 361/2/111 373/3/111
f 349/1/111 373/2/111 385/3/111
f 387/1/69 388/2/69 389/3/69
f 387/1/69 389/2/69 390/3/69
f 390/1/1 389/2/1 391/3/1
f 390/1/1 391/2/1 392/3/1
f 392/1/68 391/2/68 393/3/68
f 392/1/68 393/2/68 394/3/68
f 394/1/171 393/2/171 395/3/171
f 394/1/171 395/2/171 396/3/171
f 391/1/128 389/2/128 388/3/128
f 388/1/128 397/2/128 395/3/128
f 395/1/128 393/2/128 391/3/128
f 388/1/128 395/2/128 391/3/128
f 396/1/240 395/2/240 397/3/240
f 396/1/240 397/2/240 398/3/240
f 398/1/170 397/2/170 388/3/170
f 398/1/170 388/2/170 387/3/170
f 398/1/111 387/2/111 390/3/111
f 390/1/111 392/2/111 394/3/111
f 394/1/111 396/2/111 398/3/111
f 390/1/111 394/2/111 398/3/111
f 399/1/80 400/2/80 401/3/80
f 399/1/80 401/2/80 402/3/80
f 402/1/1 401/2/1 403/3/1
f 402/1/1 403/2/1 404/3/1
f 404/1/79 403/2/79 405/3/79
f 404/1/79 405/2/79 406/3/79
f 406/1/166 405/2/166 407/3/166
f 406/1/166 407/2/166 408/3/166
f 403/1/128 401/2/128 400/3/128
f 400/1/128 409/2/128 407/3/128
f 407/1/128 405/2/128 403/3/128
f 400/1/128 407/2/128 403/3/128
f 408/1/240 407/2/240 409/3/240
f 408/1/240 409/2/240 410/3/240
f 410/1/167 409/2/167 400/3/167
f 410/1/167 400/2/167 399/3/167
f 410/1/111 399/2/111 402/3/111
f 402/1/111 404/2/111 406/3/111
f 406/1/111 408/2/111 410/3/111
f 402/1/111 406/2/111 410/3/111
f 411/1/77 412/2/77 413/3/77
f 411/1/77 413/2/77 414/3/77
f 414/1/1 413/2/1 415/3/1
f 414/1/1 415/2/1 416/3/1
f 416/1/79 415/2/79 417/3/79
f 416/1/79 417/2/79 418/3/79
f 418/1/159 417/2/159 419/3/159
f 418/1/159 419/2/159 420/3/159
f 415/1/128 413/2/128 412/3/128
f 412/1/128 421/2/128 419/3/128
f 419/1/128 417/2/128 415/3/128
f 412/1/128 419/2/128 415/3/128
f 420/1/240 419/2/240 421/3/240
f 420/1/240 421/2/240 422/3/240
f 422/1/164 421/2/164 412/3/164
f 422/1/164 412/2/164 411/3/164
f 422/1/111 411/2/111 414/3/111
f 414/1/111 416/2/111 418/3/111
f 418/1/111 420/2/111 422/3/111
f 414/1/111 418/2/111 422/3/111
f 423/1/75 424/2/75 425/3/75
f 423/1/75 425/2/75 426/3/75
f 426/1/1 425/2/1 427/3/1
f 426/1/1 427/2/1 428/3/1
f 428/1/74 427/2/74 429/3/74
f 428/1/74 429/2/74 430/3/74
f 430/1/160 429/2/160 431/3/160
f 430/1/160 431/2/160 432/3/160
f 427/1/128 425/2/128 424/3/128
f 424/1/128 433/2/128 431/3/128
f 431/1/128 429/2/128 427/3/128
f 424/1/128 431/2/128 427/3/128
f 432/1/240 431/2/240 433/3/240
f 432/1/240 433/2/240 434/3/240
f 434/1/161 433/2/161 424/3/161
f 434/1/161 424/2/161 423/3/161
f 434/1/111 423/2/111 426/3/111
f 426/1/111 428/2/111 430/3/111
f 430/1/111 432/2/111 434/3/111
f 426/1/111 430/2/111 434/3/111
f 435/1/71 436/2/71 437/3/71
f 435/1/71 437/2/71 438/3/71
f 438/1/1 437/2/1 439/3/1
f 438/1/1 439/2/1 440/3/1
f 440/1/70 439/2/70 441/3/70
f 440/1/70 441/2/70 442/3/70
f 442/1/173 441/2/173 443/3/173
f 442/1/173 443/2/173 444/3/173
f 439/1/128 437/2/128 436/3/128
f 436/1/128 445/2/128 443/3/128
f 443/1/128 441/2/128 439/3/128
f 436/1/128 443/2/128 439/3/128
f 444/1/240 443/2/240 445/3/240
f 444/1/240 445/2/240 446/3/240
f 446/1/172 445/2/172 436/3/172
f 446/1/172 436/2/172 435/3/172
f 446/1/111 435/2/111 438/3/111
f 438/1/111 440/2/111 442/3/111
f 442/1/111 444/2/111 446/3/111
f 438/1/111 442/2/111 446/3/111
f 447/1/72 448/2/72 449/3/72
f 447/1/72 449/2/72 450/3/72
f 450/1/1 449/2/1 451/3/1
f 450/1/1 451/2/1 452/3/1
f 452/1/73 451/2/73 453/3/73
f 452/1/73 453/2/73 454/3/73
f 454/1/162 453/2/162 455/3/162
f 454/1/162 455/2/162 456/3/162
f 451/1/128 449/2/128 448/3/128
f 448/1/128 457/2/128 455/3/128
f 455/1/128 453/2/128 451/3/128
f 448/1/128 455/2/128 451/3/128
f 456/1/240 455/2/240 457/3/240
f 456/1/240 457/2/240 458/3/240
f 458/1/165 457/2/165 448/3/165
f 458/1/165 448/2/165 447/3/165
f 458/1/111 447/2/111 450/3/111
f 450/1/111 452/2/111 454/3/111
f 454/1/111 456/2/111 458/3/111
f 450/1/111 454/2/111 458/3/111
f 459/1/77 460/2/77 461/3/77
f 459/1/77 461/2/77 462/3/77
f 462/1/1 461/2/1 463/3/1
f 462/1/1 463/2/1 464/3/1
f 464/1/76 463/2/76 465/3/76
f 464/1/76 465/2/76 466/3/76
f 466/1/163 465/2/163 467/3/163
f 466/1/163 467/2/163 468/3/163
f 463/1/128 461/2/128 460/3/128
f 460/1/128 469/2/128 467/3/128
f 467/1/128 465/2/128 463/3/128
f 460/1/128 467/2/128 463/3/128
f 468/1/240 467/2/240 469/3/240
f 468/1/240 469/2/240 470/3/240
f 470/1/164 469/2/164 460/3/164
f 470/1/164 460/2/164 459/3/164
f 470/1/111 459/2/111 462/3/111
f 462/1/111 464/2/111 466/3/111
f 466/1/111 468/2/111 470/3/111
f 462/1/111 466/2/111 470/3/111
f 471/1/77 472/2/77 473/3/77
f 471/1/77 473/2/77 474/3/77
f 474/1/1 473/2/1 475/3/1
f 474/1/1 475/2/1 476/3/1
f 476/1/78 475/2/78 477/3/78
f 476/1/78 477/2/78 478/3/78
f 478/1/168 477/2/168 479/3/168
f 478/1/168 479/2/168 480/3/168
f 475/1/128 473/2/128 472/3/128
f 472/1/128 481/2/128 479/3/128
f 479/1/128 477/2/128 475/3/128
f 472/1/128 479/2/128 475/3/128
f 480/1/240 479/2/240 481/3/240
f 480/1/240 481/2/240 482/3/240
f 482/1/169 481/2/169 472/3/169
f 482/1/169 472/2/169 471/3/169
f 482/1/111 471/2/111 474/3/111
f 474/1/111 476/2/111 478/3/111
f 478/1/111 480/2/111 482/3/111
f 474/1/111 478/2/111 482/3/111
f 483/1/101 484/2/101 485/3/101
f 483/1/101 485/2/101 486/3/101
f 486/1/91 485/2/91 487/3/91
f 486/1/91 487/2/91 488/3/91
f 488/1/83 487/2/83 489/3/83
f 488/1/83 489/2/83 490/3/83
f 490/1/58 489/2/58 491/3/58
f 490/1/58 491/2/58 492/3/58
f 492/1/32 491/2/32 493/3/32
f 492/1/32 493/2/32 494/3/32
f 494/1/23 493/2/23 495/3/23
f 494/1/23 495/2/23 496/3/23
f 496/1/10 495/2/10 497/3/10
f 496/1/10 497/2/10 498/3/10
f 498/1/7 497/2/7 499/3/7
f 498/1/7 499/2/7 500/3/7
f 500/1/3 499/2/3 501/3/3
f 500/1/3 501/2/3 502/3/3
f 502/1/13 501/2/13 503/3/13
f 502/1/13 503/2/13 504/3/13
f 504/1/21 503/2/21 505/3/21
f 504/1/21 505/2/21 506/3/21
f 506/1/33 505/2/33 507/3/33
f 506/1/33 507/2/33 508/3/33
f 508/1/59 507/2/59 509/3/59
f 508/1/59 509/2/59 510/3/59
f 510/1/81 509/2/81 511/3/81
f 510/1/81 511/2/81 512/3/81
f 512/1/94 511/2/94 513/3/94
f 512/1/94 513/2/94 514/3/94
f 514/1/97 513/2/97 515/3/97
f 514/1/97 515/2/97 516/3/97
f 516/1/138 515/2/138 517/3/138
f 516/1/138 517/2/138 518/3/138
f 518/1/148 517/2/148 519/3/148
f 518/1/148 519/2/148 520/3/148
f 520/1/156 519/2/156 521/3/156
f 520/1/156 521/2/156 522/3/156
f 522/1/183 521/2/183 523/3/183
f 522/1/183 523/2/183 524/3/183
f 524/1/209 523/2/209 525/3/209
f 524/1/209 525/2/209 526/3/209
f 526/1/218 525/2/218 527/3/218
f 526/1/218 527/2/218 528/3/218
f 528/1/231 527/2/231 529/3/231
f 528/1/231 529/2/231 530/3/231
f 530/1/234 529/2/234 531/3/234
f 530/1/234 531/2/234 532/3/234
f 532/1/238 531/2/238 533/3/238
f 532/1/238 533/2/238 534/3/238
f 534/1/228 533/2/228 535/3/228
f 534/1/228 535/2/228 536/3/228
f 536/1/220 535/2/220 537/3/220
f 536/1/220 537/2/220 538/3/220
f 538/1/208 537/2/208 539/3/208
f 538/1/208 539/2/208 540/3/208
f 540/1/182 539/2/182 541/3/182
f 540/1/182 541/2/182 542/3/182
f 542/1/158 541/2/158 543/3/158
f 542/1/158 543/2/158 544/3/158
f 487/1/128 485/2/128 484/3/128
f 484/1/128 545/2/128 543/3/128
f 543/1/128 541/2/128 539/3/128
f 539/1/128 537/2/128 535/3/128
f 535/1/128 533/2/128 531/3/128
f 531/1/128 529/2/128 527/3/128
f 527/1/128 525/2/128 523/3/128
f 523/1/128 521/2/128 519/3/128
f 519/1/128 517/2/128 515/3/128
f 515/1/128 513/2/128 511/3/128
f 511/1/128 509/2/128 507/3/128
f 507/1/128 505/2/128 503/3/128
f 503/1/128 501/2/128 499/3/128
f 499/1/128 497/2/128 495/3/128
f 495/1/128 493/2/128 491/3/128
f 491/1/128 489/2/128 487/3/128
f 487/1/128 484/2/128 543/3/128
f 543/1/128 539/2/128 535/3/128
f 535/1/128 531/2/128 527/3/128
f 527/1/128 523/2/128 519/3/128
f 519/1/128 515/2/128 511/3/128
f 511/1/128 507/2/128 503/3/128
f 503/1/128 499/2/128 495/3/128
f 495/1/128 491/2/128 487/3/128
f 487/1/128 543/2/128 535/3/128
f 535/1/128 527/2/128 519/3/128
f 519/1/128 511/2/128 503/3/128
f 503/1/128 495/2/128 487/3/128
f 487/1/128 535/2/128 519/3/128
f 519/1/128 503/2/128 487/3/128
f 544/1/145 543/2/145 545/3/145
f 544/1/145 545/2/145 546/3/145
f 546/1/142 545/2/142 484/3/142
f 546/1/142 484/2/142 483/3/142
f 546/1/111 483/2/111 486/3/111
f 486/1/111 488/2/111 490/3/111
f 490/1/111 492/2/111 494/3/111
f 494/1/111 496/2/111 498/3/111
f 498/1/111 500/2/111 502/3/111
f 502/1/111 504/2/111 506/3/111
f 506/1/111 508/2/111 510/3/111
f 510/1/111 512/2/111 514/3/111
f 514/1/111 516/2/111 518/3/111
f 518/1/111 520/2/111 522/3/111
f 522/1/111 524/2/111 526/3/111
f 526/1/111 528/2/111 530/3/111
f 530/1/111 532/2/111 534/3/111
f 534/1/111 536/2/111 538/3/111
f 538/1/111 540/2/111 542/3/111
f 542/1/111 544/2/111 546/3/111
f 546/1/111 486/2/111 490/3/111
f 490/1/111 494/2/111 498/3/111
f 498/1/111 502/2/111 506/3/111
f 506/1/111 510/2/111 514/3/111
f 514/1/111 518/2/111 522/3/111
f 522/1/111 526/2/111 530/3/111
f 530/1/111 534/2/111 538/3/111
f 538/1/111 542/2/111 546/3/111
f 546/1/111 490/2/111 498/3/111
f 498/1/111 506/2/111 514/3/111
f 514/1/111 522/2/111 530/3/111
f 530/1/111 538/2/111 546/3/111
f 546/1/111 498/2/111 514/3/111
f 514/1/111 530/2/111 546/3/111
f 547/1/124 548/2/124 549/3/124 550/4/124
f 547/1/136 550/2/136 551/3/136
f 552/1/132 551/2/132 550/3/132 553/4/132
f 552/1/120 553/2/120 554/3/120
f 555/1/119 554/2/119 553/3/119 556/4/119
f 555/1/109 556/2/109 557/3/109
f 558/1/105 557/2/105 556/3/105 559/4/105
f 558/1/114 559/2/114 560/3/114
f 561/1/112 560/2/112 559/3/112 562/4/112
f 561/1/106 562/2/106 563/3/106
f 564/1/110 563/2/110 562/3/110 565/4/110
f 564/1/117 565/2/117 566/3/117
f 553/1/240 550/2/240 549/3/240
f 549/1/240 567/2/240 565/3/240
f 565/1/240 562/2/240 559/3/240
f 559/1/240 556/2/240 553/3/240
f 553/1/240 549/2/240 565/3/240
f 565/1/240 559/2/240 553/3/240
f 568/1/122 566/2/122 565/3/122 567/4/122
f 568/1/131 567/2/131 569/3/131
f 570/1/135 569/2/135 567/3/135 549/4/135
f 570/1/126 549/2/126 548/3/126
f 571/1/125 572/2/125 549/3/125 567/4/125
f 571/1/103 567/2/103 573/3/103
f 574/1/107 573/2/107 567/3/107 565/4/107
f 574/1/121 565/2/121 575/3/121
f 576/1/118 575/2/118 565/3/118 562/4/118
f 576/1/130 562/2/130 577/3/130
f 578/1/134 577/2/134 562/3/134 559/4/134
f 578/1/115 559/2/115 579/3/115
f 580/1/113 579/2/113 559/3/113 556/4/113
f 580/1/133 556/2/133 581/3/133
f 582/1/129 581/2/129 556/3/129 553/4/129
f 582/1/116 553/2/116 583/3/116
f 565/1/1 567/2/1 549/3/1
f 549/1/1 550/2/1 553/3/1
f 553/1/1 556/2/1 559/3/1
f 559/1/1 562/2/1 565/3/1
f 565/1/1 549/2/1 553/3/1
f 553/1/1 559/2/1 565/3/1
f 584/1/123 583/2/123 553/3/123 550/4/123
f 584/1/108 550/2/108 585/3/108
f 586/1/104 585/2/104 550/3/104 549/4/104
f 586/1/127 549/2/127 572/3/127
