# Generated by tools-import-turbines.py; estimated STEP scale.
mtllib materials.mtl
s off
v 0.045028311 1.000000000 0.727602195
v 0.000000000 0.945016063 0.751670338
v 0.000000000 1.000000000 0.751670338
v 0.000000000 0.944999700 0.751670338
v 0.155584800 1.000000000 0.668508500
v 0.155584800 0.944999700 0.668508500
v 0.204457851 1.000000000 0.653683006
v 0.324418500 1.000000000 0.617293300
v 0.324418500 0.944999700 0.617293300
v 0.375244838 1.000000000 0.612287331
v 0.499999900 1.000000000 0.600000000
v 0.499999900 0.944999700 0.600000000
v 0.550826209 1.000000000 0.605005969
v 0.675581200 1.000000000 0.617293300
v 0.675581200 0.944999700 0.617293300
v 0.724454251 1.000000000 0.632118766
v 0.844414900 1.000000000 0.668508400
v 0.844414900 0.944999700 0.668508400
v 0.889456611 1.000000000 0.692583676
v 1.000000000 1.000000000 0.751670298
v 1.000000000 0.944999700 0.751670298
v 0.000000000 0.944999700 0.751671950
v 1.000000000 0.944999700 0.751671874
v 0.000000000 0.944999700 0.834062905
v 1.000000000 0.944999700 0.751674694
v 0.068702192 0.944999700 1.000000000
v 0.000000000 0.944999700 1.000000000
v 1.000000000 0.944999700 1.000000000
v 0.897179797 0.944999700 1.000000000
v 0.400543696 0.944999700 1.000000000
v 0.000000000 0.351814719 0.888995991
v 0.034531760 0.000000000 0.958032378
v 0.060936527 0.000000000 0.934737819
v 0.000000000 0.467468861 0.856286547
v 0.000000000 0.000000000 0.988496593
v 0.105733198 0.000000000 0.904228800
v 0.134836175 0.000000000 0.884408069
v 0.045936700 0.819999900 0.734541700
v 0.000000000 0.819999900 0.765827143
v 0.000000000 0.000000000 0.807184921
v 0.000000000 0.421038455 0.699146526
v 0.026899464 0.000000000 0.788864906
v 0.000000000 0.584891903 0.657101766
v 0.063410475 0.000000000 0.763998920
v 0.000000000 0.819999900 0.657101769
v 0.000000000 0.653465073 0.657101756
v 0.100016144 0.000000000 0.825708580
v 1.000000000 0.542911012 0.836928052
v 0.909960544 0.000000000 0.914917088
v 0.939063521 0.000000000 0.934737819
v 1.000000000 0.467468263 0.856286648
v 0.865163825 0.000000000 0.884408069
v 1.000000000 0.819999900 0.765827109
v 0.954063300 0.819999900 0.734541700
v 1.000000000 0.066143352 0.790212567
v 0.988432862 0.000000000 0.799307085
v 0.936589574 0.000000000 0.763998920
v 1.000000000 0.584891116 0.657101910
v 1.000000000 0.000000000 0.807184935
v 1.000000000 0.819999900 0.722142918
v 1.000000000 0.819999900 0.657101877
v 1.000000000 0.000000000 0.988496496
v 1.000000000 0.111218217 0.957041604
v 0.979706984 0.000000000 0.970593788
v 1.000000000 0.653464487 0.657101907
v 0.899983905 0.000000000 0.825708580
v 0.000000000 0.884337933 0.525984649
v 0.000000000 0.954999900 0.525984649
v 0.079048000 0.954999900 0.483732600
v 0.000000000 0.784999800 0.525984649
v 0.079048000 0.784999800 0.483732600
v 0.285400500 0.954999900 0.421136300
v 0.285400500 0.784999800 0.421136300
v 0.499999900 0.954999900 0.400000000
v 0.499999900 0.784999800 0.400000000
v 0.714599300 0.954999900 0.421136200
v 0.714599300 0.784999800 0.421136200
v 0.920951600 0.954999900 0.483732500
v 0.920951600 0.784999800 0.483732500
v 1.000000000 0.855662088 0.525984699
v 1.000000000 0.954999900 0.525984699
v 1.000000000 0.784999800 0.525984699
v 1.000000000 0.954999900 0.536550892
v 0.000000000 0.954999900 0.536550791
v 1.000000000 0.954999900 0.562780873
v 0.000000000 0.954999900 0.562780640
v 1.000000000 0.954999900 0.674572137
v 0.000000000 0.954999900 0.865203307
v 0.707106692 0.954999900 1.000000000
v 1.000000000 0.954999900 1.000000000
v 0.000000000 0.954999900 1.000000000
v 0.000000000 0.784999800 0.539353033
v 1.000000000 0.784999800 0.539352974
v 0.000000000 0.784999800 0.611834842
v 1.000000000 0.784999800 0.563278777
v 0.000000000 0.784999800 0.848268471
v 1.000000000 0.784999800 0.898616303
v 0.400543744 0.784999800 1.000000000
v 0.000000000 0.784999800 1.000000000
v 1.000000000 0.784999800 1.000000000
v 0.100952376 1.000000000 0.632731350
v 0.124970200 0.960000000 0.646598000
v 0.124970200 1.000000000 0.646598000
v 0.079936900 1.000000000 0.620598100
v 0.079936900 0.960000000 0.620598100
v 0.079936900 1.000000000 0.592864639
v 0.079936900 1.000000000 0.568598000
v 0.079936900 0.960000000 0.568598000
v 0.103954724 1.000000000 0.554731350
v 0.124970200 1.000000000 0.542598100
v 0.124970200 0.960000000 0.542598100
v 0.148988024 1.000000000 0.556464750
v 0.170003500 1.000000000 0.568598000
v 0.170003500 0.960000000 0.568598000
v 0.170003500 1.000000000 0.596331461
v 0.170003500 1.000000000 0.620598100
v 0.170003500 0.960000000 0.620598100
v 0.145985676 1.000000000 0.634464750
v 0.475982176 1.000000000 0.558133296
v 0.500000000 0.960000000 0.572000000
v 0.500000000 1.000000000 0.572000000
v 0.454966700 1.000000000 0.546000000
v 0.454966700 0.960000000 0.546000000
v 0.454966700 1.000000000 0.518266593
v 0.454966700 1.000000000 0.494000000
v 0.454966700 0.960000000 0.494000000
v 0.478984524 1.000000000 0.480133296
v 0.500000000 1.000000000 0.468000000
v 0.500000000 0.960000000 0.468000000
v 0.524017824 1.000000000 0.481866704
v 0.545033300 1.000000000 0.494000000
v 0.545033300 0.960000000 0.494000000
v 0.545033300 1.000000000 0.521733407
v 0.545033300 1.000000000 0.546000000
v 0.545033300 0.960000000 0.546000000
v 0.521015476 1.000000000 0.559866704
v 0.851011976 1.000000000 0.632731350
v 0.875029800 0.960000000 0.646598000
v 0.875029800 1.000000000 0.646598000
v 0.829996500 1.000000000 0.620598100
v 0.829996500 0.960000000 0.620598100
v 0.829996500 1.000000000 0.592864639
v 0.829996500 1.000000000 0.568598000
v 0.829996500 0.960000000 0.568598000
v 0.854014324 1.000000000 0.554731350
v 0.875029800 1.000000000 0.542598100
v 0.875029800 0.960000000 0.542598100
v 0.899047624 1.000000000 0.556464750
v 0.920063100 1.000000000 0.568598000
v 0.920063100 0.960000000 0.568598000
v 0.920063100 1.000000000 0.596331461
v 0.920063100 1.000000000 0.620598100
v 0.920063100 0.960000000 0.620598100
v 0.896045276 1.000000000 0.634464750
vt 0 0
vt 1 0
vt 1 1
vt 0 1
vn -1.000000000 0.000000000 0.000000000
vn -0.860065395 -0.000000018 -0.510183806
vn -0.860065268 -0.000000093 -0.510184021
vn -0.647166775 0.207470497 0.733574235
vn -0.647165626 0.207470414 0.733575273
vn -0.550658097 0.207470388 0.808536764
vn -0.550658042 -0.207470402 -0.808536798
vn -0.550657912 0.207470375 0.808536893
vn -0.550657726 -0.207470427 -0.808537007
vn -0.500000175 0.000000000 -0.866025303
vn -0.500000175 0.000000000 0.866025303
vn -0.499998733 0.000000000 -0.866026136
vn -0.499998733 0.000000000 0.866026136
vn -0.499998733 0.000000000 -0.866026136
vn -0.499998733 0.000000000 0.866026136
vn -0.471396866 0.000000000 -0.881921195
vn -0.471396848 0.000000000 -0.881921205
vn -0.290284973 0.000000000 -0.956940246
vn -0.290284480 0.000000000 -0.956940396
vn -0.098017618 0.000000000 -0.995184680
vn -0.098017373 0.000000000 -0.995184704
vn -0.000000000 -1.000000000 0.000000000
vn 0.000000000 -1.000000000 0.000000000
vn 0.000000000 1.000000000 0.000000000
vn 0.098017158 0.000000000 -0.995184725
vn 0.098017429 0.000000000 -0.995184698
vn 0.290284454 0.000000000 -0.956940403
vn 0.290284737 0.000000000 -0.956940318
vn 0.471396295 0.000000000 -0.881921501
vn 0.471396425 0.000000000 -0.881921431
vn 0.499998733 0.000000000 0.866026136
vn 0.499998733 0.000000000 -0.866026136
vn 0.499998733 0.000000000 0.866026136
vn 0.499998733 0.000000000 -0.866026136
vn 0.500000175 0.000000000 -0.866025303
vn 0.500000175 0.000000000 0.866025303
vn 0.550657729 -0.207470397 -0.808537012
vn 0.550658099 0.207470373 0.808536766
vn 0.550658323 0.207470358 0.808536617
vn 0.550658390 -0.207470449 -0.808536549
vn 0.647166063 0.207470407 0.733574889
vn 0.647166795 0.207470355 0.733574258
vn 0.860065395 -0.000000071 -0.510183806
vn 0.860065581 0.000000038 -0.510183492
vn 1.000000000 0.000000000 0.000000000
usemtl dvss_2
f 1/1/16 2/2/16 3/3/16
f 4/1/16 2/2/16 1/3/16
f 4/1/16 1/2/16 5/3/16
f 4/1/16 5/2/16 6/3/16
f 7/1/18 6/2/18 5/3/18
f 6/1/18 7/2/18 8/3/18 9/4/18
f 10/1/21 9/2/21 8/3/21
f 9/1/21 10/2/21 11/3/21 12/4/21
f 13/1/26 12/2/26 11/3/26
f 12/1/26 13/2/26 14/3/26 15/4/26
f 16/1/27 15/2/27 14/3/27
f 15/1/27 16/2/27 17/3/27 18/4/27
f 19/1/30 18/2/30 17/3/30
f 20/1/30 21/2/30 18/3/30 19/4/30
f 22/1/23 4/2/23 6/3/23 9/4/23
f 9/1/23 12/2/23 15/3/23
f 23/1/23 15/2/23 18/3/23 21/4/23
f 24/1/23 22/2/23 9/3/23
f 25/1/23 9/2/23 15/3/23 23/4/23
f 26/1/23 27/2/23 24/3/23 9/4/23
f 28/1/23 29/2/23 9/3/23 25/4/23
f 30/1/22 26/2/22 9/3/22
f 30/1/23 9/2/23 29/3/23
usemtl dvss_4
f 31/1/42 32/2/42 33/3/42 34/4/42
f 35/1/41 32/2/41 31/3/41
f 36/1/38 37/2/38 38/3/38
f 34/1/39 33/2/39 36/3/39
f 34/1/39 36/2/39 38/3/39
f 34/1/39 38/2/39 39/3/39
f 40/1/7 41/2/7 42/3/7
f 42/1/9 41/2/9 43/3/9 44/4/9
f 39/1/24 38/2/24 45/3/24
f 46/1/43 47/2/43 44/3/43 43/4/43
f 37/1/44 47/2/44 46/3/44
f 37/1/44 46/2/44 45/3/44
f 37/1/44 45/2/44 38/3/44
f 48/1/6 49/2/6 50/3/6 51/4/6
f 52/1/8 49/2/8 48/3/8
f 52/1/8 48/2/8 53/3/8
f 52/1/8 53/2/8 54/3/8
f 55/1/40 56/2/40 57/3/40 58/4/40
f 56/1/37 55/2/37 59/3/37
f 60/1/24 54/2/24 53/3/24
f 61/1/24 54/2/24 60/3/24
f 62/1/4 63/2/4 64/3/4
f 51/1/5 50/2/5 64/3/5 63/4/5
f 65/1/3 66/2/3 52/3/3
f 65/1/3 52/2/3 54/3/3
f 65/1/3 54/2/3 61/3/3
f 66/1/2 65/2/2 58/3/2 57/4/2
usemtl dvss_5
f 67/1/17 68/2/17 69/3/17
f 70/1/17 67/2/17 69/3/17 71/4/17
f 71/1/19 69/2/19 72/3/19
f 71/1/19 72/2/19 73/3/19
f 73/1/20 72/2/20 74/3/20
f 73/1/20 74/2/20 75/3/20
f 75/1/25 74/2/25 76/3/25
f 75/1/25 76/2/25 77/3/25
f 77/1/28 76/2/28 78/3/28
f 77/1/28 78/2/28 79/3/28
f 80/1/29 79/2/29 78/3/29 81/4/29
f 82/1/29 79/2/29 80/3/29
f 83/1/24 81/2/24 78/3/24
f 78/1/24 76/2/24 74/3/24
f 74/1/24 72/2/24 69/3/24
f 84/1/24 69/2/24 68/3/24
f 85/1/24 83/2/24 78/3/24
f 78/1/24 74/2/24 69/3/24
f 86/1/24 69/2/24 84/3/24
f 87/1/24 85/2/24 78/3/24
f 88/1/24 78/2/24 69/3/24 86/4/24
f 89/1/24 90/2/24 87/3/24 78/4/24
f 89/1/24 78/2/24 88/3/24 91/4/24
f 92/1/23 70/2/23 71/3/23 73/4/23
f 73/1/23 75/2/23 77/3/23
f 93/1/23 77/2/23 79/3/23 82/4/23
f 94/1/23 92/2/23 73/3/23
f 95/1/23 73/2/23 77/3/23 93/4/23
f 96/1/23 94/2/23 73/3/23
f 97/1/23 73/2/23 95/3/23
f 98/1/23 99/2/23 96/3/23 73/4/23
f 98/1/23 73/2/23 97/3/23 100/4/23
f 101/1/13 102/2/13 103/3/13
f 102/1/13 101/2/13 104/3/13 105/4/13
f 106/1/1 105/2/1 104/3/1
f 105/1/1 106/2/1 107/3/1 108/4/1
f 109/1/12 108/2/12 107/3/12
f 108/1/12 109/2/12 110/3/12 111/4/12
f 112/1/32 111/2/32 110/3/32
f 111/1/32 112/2/32 113/3/32 114/4/32
f 115/1/45 114/2/45 113/3/45
f 114/1/45 115/2/45 116/3/45 117/4/45
f 118/1/31 117/2/31 116/3/31
f 117/1/31 118/2/31 103/3/31 102/4/31
f 117/1/23 102/2/23 105/3/23
f 105/1/23 108/2/23 111/3/23
f 111/1/23 114/2/23 117/3/23
f 105/1/23 111/2/23 117/3/23
f 119/1/11 120/2/11 121/3/11
f 120/1/11 119/2/11 122/3/11 123/4/11
f 124/1/1 123/2/1 122/3/1
f 123/1/1 124/2/1 125/3/1 126/4/1
f 127/1/10 126/2/10 125/3/10
f 126/1/10 127/2/10 128/3/10 129/4/10
f 130/1/35 129/2/35 128/3/35
f 129/1/35 130/2/35 131/3/35 132/4/35
f 133/1/45 132/2/45 131/3/45
f 132/1/45 133/2/45 134/3/45 135/4/45
f 136/1/36 135/2/36 134/3/36
f 135/1/36 136/2/36 121/3/36 120/4/36
f 135/1/23 120/2/23 123/3/23
f 123/1/23 126/2/23 129/3/23
f 129/1/23 132/2/23 135/3/23
f 123/1/23 129/2/23 135/3/23
f 137/1/15 138/2/15 139/3/15
f 138/1/15 137/2/15 140/3/15 141/4/15
f 142/1/1 141/2/1 140/3/1
f 141/1/1 142/2/1 143/3/1 144/4/1
f 145/1/14 144/2/14 143/3/14
f 144/1/14 145/2/14 146/3/14 147/4/14
f 148/1/34 147/2/34 146/3/34
f 147/1/34 148/2/34 149/3/34 150/4/34
f 151/1/45 150/2/45 149/3/45
f 150/1/45 151/2/45 152/3/45 153/4/45
f 154/1/33 153/2/33 152/3/33
f 153/1/33 154/2/33 139/3/33 138/4/33
f 153/1/23 138/2/23 141/3/23
f 141/1/23 144/2/23 147/3/23
f 147/1/23 150/2/23 153/3/23
f 141/1/23 147/2/23 153/3/23
