# Generated by tools-import-turbines.py; estimated STEP scale.
mtllib materials.mtl
s off
v 0.837534240 1.000000000 0.887575601
v 0.826575500 0.355000000 0.868594500
v 0.826575500 1.000000000 0.868594500
v 0.844075500 1.000000000 0.898905400
v 0.844075500 0.355000000 0.898905400
v 0.797978531 1.000000000 0.925519483
v 0.770463300 1.000000000 0.941405400
v 0.770463300 0.355000000 0.941405400
v 0.759504623 1.000000000 0.922424299
v 0.752963400 1.000000000 0.911094500
v 0.752963400 0.355000000 0.911094500
v 0.799060307 1.000000000 0.884480417
v 0.759795282 1.000000000 0.702910558
v 0.754122600 0.355000000 0.681739900
v 0.754122600 1.000000000 0.681739900
v 0.763181300 1.000000000 0.715547300
v 0.763181300 0.355000000 0.715547300
v 0.711766837 1.000000000 0.729323814
v 0.681077600 1.000000000 0.737547000
v 0.681077600 0.355000000 0.737547000
v 0.675404918 1.000000000 0.716376342
v 0.672018900 1.000000000 0.703739600
v 0.672018900 0.355000000 0.703739600
v 0.723433363 1.000000000 0.689963086
v 0.732500000 1.000000000 0.504417480
v 0.732500000 0.355000000 0.482500000
v 0.732500000 1.000000000 0.482500000
v 0.732500000 1.000000000 0.517500000
v 0.732500000 0.355000000 0.517500000
v 0.679271834 1.000000000 0.517500000
v 0.647500000 1.000000000 0.517500000
v 0.647500000 0.355000000 0.517500000
v 0.647500000 1.000000000 0.495582520
v 0.647500000 1.000000000 0.482500000
v 0.647500000 0.355000000 0.482500000
v 0.700728166 1.000000000 0.482500000
v 0.757508618 1.000000000 0.305623358
v 0.763181300 0.355000000 0.284452700
v 0.763181300 1.000000000 0.284452700
v 0.754122600 1.000000000 0.318260100
v 0.754122600 0.355000000 0.318260100
v 0.702708137 1.000000000 0.304483586
v 0.672018900 1.000000000 0.296260400
v 0.672018900 0.355000000 0.296260400
v 0.677691582 1.000000000 0.275089742
v 0.681077600 1.000000000 0.262453000
v 0.681077600 0.355000000 0.262453000
v 0.732492063 1.000000000 0.276229514
v 0.833116760 1.000000000 0.120075701
v 0.844075500 0.355000000 0.101094600
v 0.844075500 1.000000000 0.101094600
v 0.826575500 1.000000000 0.131405500
v 0.826575500 0.355000000 0.131405500
v 0.780478593 1.000000000 0.104791417
v 0.752963400 1.000000000 0.088905500
v 0.752963400 0.355000000 0.088905500
v 0.763922077 1.000000000 0.069924399
v 0.770463300 1.000000000 0.058594600
v 0.770463300 0.355000000 0.058594600
v 0.816560269 1.000000000 0.085208683
v 0.841785526 0.277726008 1.000000000
v 0.841785526 0.355000000 1.000000000
v 0.809880300 0.355000000 0.961123300
v 0.841785526 0.105000000 1.000000000
v 0.809880300 0.105000000 0.961123300
v 0.733180100 0.355000000 0.817627300
v 0.733180100 0.105000000 0.817627300
v 0.685948300 0.355000000 0.661925100
v 0.685948300 0.105000000 0.661925100
v 0.670000000 0.355000000 0.500000100
v 0.670000000 0.105000000 0.500000100
v 0.685948300 0.355000000 0.338075200
v 0.685948300 0.105000000 0.338075200
v 0.733180000 0.355000000 0.182372800
v 0.733180000 0.105000000 0.182372800
v 0.809880200 0.355000000 0.038876800
v 0.809880200 0.105000000 0.038876800
v 0.841785533 0.182274252 0.000000000
v 0.841785533 0.355000000 0.000000000
v 0.841785533 0.105000000 0.000000000
v 0.855037543 0.355000000 0.000000000
v 0.855037531 0.355000000 1.000000000
v 0.915552800 0.355000000 0.000000000
v 0.915552800 0.355000000 1.000000000
v 1.000000000 0.355000000 0.071852322
v 1.000000000 0.355000000 0.000000000
v 1.000000000 0.355000000 1.000000000
v 1.000000000 0.355000000 0.826533174
v 0.848757017 0.105000000 1.000000000
v 0.848757000 0.105000000 0.000000000
v 0.911842823 0.105000000 1.000000000
v 0.868063429 0.105000000 0.000000000
v 1.000000000 0.105000000 0.871767625
v 1.000000000 0.105000000 1.000000000
v 1.000000000 0.105000000 0.000000000
v 1.000000000 0.105000000 0.191913337
v 0.727602195 0.000000000 0.954971689
v 0.751670338 0.000000000 1.000000000
v 0.751670338 0.135000200 1.000000000
v 0.668508500 0.135000200 0.844415200
v 0.668508500 0.000000000 0.844415200
v 0.653683006 0.000000000 0.795542149
v 0.617293300 0.135000200 0.675581500
v 0.617293300 0.000000000 0.675581500
v 0.612287331 0.000000000 0.624755162
v 0.600000000 0.135000200 0.500000100
v 0.600000000 0.000000000 0.500000100
v 0.605005969 0.000000000 0.449173791
v 0.617293300 0.135000200 0.324418800
v 0.617293300 0.000000000 0.324418800
v 0.632118766 0.000000000 0.275545749
v 0.668508400 0.135000200 0.155585100
v 0.668508400 0.000000000 0.155585100
v 0.751670298 0.134984204 0.000000000
v 0.692583676 0.000000000 0.110543389
v 0.751670298 0.135000200 0.000000000
v 0.751670298 0.000000000 0.000000000
v 0.772467005 0.135000200 0.000000000
v 0.772467011 0.135000200 1.000000000
v 0.824093436 0.135000200 0.000000000
v 0.824093396 0.135000200 1.000000000
v 1.000000000 0.135000200 0.018276705
v 1.000000000 0.135000200 0.000000000
v 1.000000000 0.135000200 1.000000000
v 1.000000000 0.135000200 0.955876089
v 0.904434639 1.000000000 1.000000000
v 0.900628083 1.000000000 0.995543107
v 0.904434639 0.943493063 1.000000000
v 0.904434639 0.290000000 1.000000000
v 0.868966800 1.000000000 0.958472600
v 0.868966800 0.290000000 0.958472600
v 0.830487337 1.000000000 0.895679795
v 0.805015000 1.000000000 0.854112700
v 0.805015000 0.290000000 0.854112700
v 0.776832219 1.000000000 0.786073417
v 0.758176000 1.000000000 0.741033300
v 0.758176000 0.290000000 0.741033300
v 0.740983836 1.000000000 0.669423079
v 0.729603100 1.000000000 0.622019100
v 0.729603100 0.290000000 0.622019100
v 0.723824965 1.000000000 0.548600907
v 0.720000000 1.000000000 0.500000100
v 0.720000000 0.290000000 0.500000100
v 0.725778135 1.000000000 0.426581967
v 0.729603100 1.000000000 0.377981200
v 0.729603100 0.290000000 0.377981200
v 0.746795144 1.000000000 0.306370859
v 0.758175800 1.000000000 0.258966800
v 0.758175800 0.290000000 0.258966800
v 0.786358581 1.000000000 0.190927577
v 0.805014800 1.000000000 0.145887500
v 0.805014800 0.290000000 0.145887500
v 0.843494323 1.000000000 0.083094695
v 0.868966700 1.000000000 0.041527600
v 0.868966700 0.290000000 0.041527600
v 0.904434633 1.000000000 0.000000000
v 0.904434633 0.816508641 0.000000000
v 0.904434633 0.290000000 0.000000000
v 0.911008435 0.290000000 1.000000000
v 0.911008347 0.290000000 0.000000000
v 0.950902300 0.290000000 1.000000000
v 0.922194129 0.290000000 0.000000000
v 1.000000000 0.290000000 0.953462477
v 1.000000000 0.290000000 1.000000000
v 0.940293065 0.290000000 0.000000000
v 0.974719283 0.290000000 0.000000000
v 1.000000000 0.290000000 0.049616181
v 1.000000000 0.290000000 0.000000000
v 0.570580223 0.000000000 0.913163096
v 0.594598100 0.000000000 0.927029800
v 0.594598100 0.034999800 0.927029800
v 0.549564700 0.034999800 0.901029800
v 0.549564700 0.000000000 0.901029800
v 0.549564700 0.000000000 0.873296393
v 0.549564700 0.034999800 0.849029800
v 0.549564700 0.000000000 0.849029800
v 0.573582577 0.000000000 0.835163096
v 0.594598100 0.034999800 0.823029800
v 0.594598100 0.000000000 0.823029800
v 0.618615924 0.000000000 0.836896504
v 0.639631400 0.034999800 0.849029800
v 0.639631400 0.000000000 0.849029800
v 0.639631400 0.034999800 0.901029800
v 0.639631400 0.000000000 0.876763207
v 0.639631400 0.000000000 0.901029800
v 0.615613576 0.000000000 0.914896504
v 0.495982176 0.000000000 0.538133296
v 0.520000000 0.000000000 0.552000000
v 0.520000000 0.034999800 0.552000000
v 0.474966700 0.034999800 0.526000000
v 0.474966700 0.000000000 0.526000000
v 0.474966647 0.000000000 0.498266593
v 0.474966600 0.034999800 0.474000000
v 0.474966600 0.000000000 0.474000000
v 0.498984477 0.000000000 0.460133296
v 0.520000000 0.034999800 0.448000000
v 0.520000000 0.000000000 0.448000000
v 0.544017824 0.000000000 0.461866704
v 0.565033300 0.034999800 0.474000000
v 0.565033300 0.000000000 0.474000000
v 0.565033300 0.034999800 0.526000000
v 0.565033300 0.000000000 0.501733407
v 0.565033300 0.000000000 0.526000000
v 0.541015476 0.000000000 0.539866704
v 0.570580223 0.000000000 0.163103496
v 0.594598100 0.000000000 0.176970200
v 0.594598100 0.034999800 0.176970200
v 0.549564700 0.034999800 0.150970200
v 0.549564700 0.000000000 0.150970200
v 0.549564700 0.000000000 0.123236793
v 0.549564700 0.034999800 0.098970200
v 0.549564700 0.000000000 0.098970200
v 0.573582577 0.000000000 0.085103496
v 0.594598100 0.034999800 0.072970200
v 0.594598100 0.000000000 0.072970200
v 0.618615924 0.000000000 0.086836904
v 0.639631400 0.034999800 0.098970200
v 0.639631400 0.000000000 0.098970200
v 0.639631400 0.034999800 0.150970200
v 0.639631400 0.000000000 0.126703607
v 0.639631400 0.000000000 0.150970200
v 0.615613576 0.000000000 0.164836904
vt 0 0
vt 1 0
vt 1 1
vt 0 1
vn -1.000000000 0.000000000 0.000000000
vn -1.000000000 0.000000000 0.000001923
vn -0.996917336 0.000000000 0.078459067
vn -0.996917331 0.000000000 -0.078459131
vn -0.995184704 0.000000000 0.098017373
vn -0.995184698 0.000000000 -0.098017429
vn -0.995184679 0.000000000 0.098017624
vn -0.995184673 0.000000000 -0.098017684
vn -0.972370161 0.000000000 -0.233444364
vn -0.972369701 0.000000000 0.233446280
vn -0.965925580 0.000000000 -0.258819964
vn -0.965925580 0.000000000 0.258819964
vn -0.956940518 0.000000000 -0.290284077
vn -0.956940403 0.000000000 -0.290284454
vn -0.956940246 0.000000000 0.290284973
vn -0.956940244 0.000000000 0.290284981
vn -0.923879593 0.000000000 0.382683285
vn -0.923879474 0.000000000 -0.382683574
vn -0.881921431 0.000000000 -0.471396425
vn -0.881921290 0.000000000 -0.471396689
vn -0.881921290 0.000000000 0.471396689
vn -0.881921195 0.000000000 0.471396866
vn -0.866026719 0.000000000 -0.499997723
vn -0.866026719 0.000000000 0.499997723
vn -0.852640270 0.000000000 0.522498393
vn -0.852639906 0.000000000 -0.522498987
vn -0.773011012 0.000000000 0.634392604
vn -0.773010764 0.000000000 -0.634392905
vn -0.760405855 0.000000000 -0.649448177
vn -0.760405166 0.000000000 0.649448984
vn -0.500000302 0.000000000 0.866025229
vn -0.500000302 0.000000000 -0.866025229
vn -0.500000175 0.000000000 0.866025303
vn -0.499999342 0.000000000 -0.866025784
vn -0.499999342 0.000000000 0.866025784
vn -0.499999342 0.000000000 -0.866025784
vn -0.499999342 0.000000000 0.866025784
vn -0.258819922 0.000000000 0.965925591
vn -0.258819922 0.000000000 -0.965925591
vn 0.000000000 -1.000000000 0.000000000
vn 0.000000000 0.000000000 -1.000000000
vn 0.000000000 0.000000000 1.000000000
vn 0.000000000 1.000000000 0.000000000
vn 0.000000000 1.000000000 0.000000000
vn 0.258819922 0.000000000 0.965925591
vn 0.258819922 0.000000000 -0.965925591
vn 0.499999793 0.000000000 -0.866025523
vn 0.499999793 0.000000000 0.866025523
vn 0.500000175 0.000000000 -0.866025303
vn 0.500000175 0.000000000 0.866025303
vn 0.500000175 0.000000000 -0.866025303
vn 0.500000175 0.000000000 0.866025303
vn 0.866025481 0.000000000 -0.499999866
vn 0.866025481 0.000000000 0.499999866
vn 0.965925580 0.000000000 -0.258819964
vn 0.965925580 0.000000000 0.258819964
vn 1.000000000 0.000000000 0.000000000
usemtl dvss_2
f 1/1/53 2/2/53 3/3/53
f 2/1/53 1/2/53 4/3/53 5/4/53
f 6/1/48 5/2/48 4/3/48
f 5/1/48 6/2/48 7/3/48 8/4/48
f 9/1/24 8/2/24 7/3/24
f 8/1/24 9/2/24 10/3/24 11/4/24
f 12/1/32 11/2/32 10/3/32
f 11/1/32 12/2/32 3/3/32 2/4/32
f 5/1/40 8/2/40 11/3/40
f 5/1/40 11/2/40 2/3/40
f 13/1/55 14/2/55 15/3/55
f 14/1/55 13/2/55 16/3/55 17/4/55
f 18/1/45 17/2/45 16/3/45
f 17/1/45 18/2/45 19/3/45 20/4/45
f 21/1/12 20/2/12 19/3/12
f 20/1/12 21/2/12 22/3/12 23/4/12
f 24/1/39 23/2/39 22/3/39
f 23/1/39 24/2/39 15/3/39 14/4/39
f 17/1/40 20/2/40 23/3/40
f 17/1/40 23/2/40 14/3/40
f 25/1/57 26/2/57 27/3/57
f 26/1/57 25/2/57 28/3/57 29/4/57
f 30/1/42 29/2/42 28/3/42
f 29/1/42 30/2/42 31/3/42 32/4/42
f 33/1/1 32/2/1 31/3/1
f 32/1/1 33/2/1 34/3/1 35/4/1
f 36/1/41 35/2/41 34/3/41
f 35/1/41 36/2/41 27/3/41 26/4/41
f 29/1/40 32/2/40 35/3/40
f 29/1/40 35/2/40 26/3/40
f 37/1/56 38/2/56 39/3/56
f 38/1/56 37/2/56 40/3/56 41/4/56
f 42/1/38 41/2/38 40/3/38
f 41/1/38 42/2/38 43/3/38 44/4/38
f 45/1/11 44/2/11 43/3/11
f 44/1/11 45/2/11 46/3/11 47/4/11
f 48/1/46 47/2/46 46/3/46
f 47/1/46 48/2/46 39/3/46 38/4/46
f 41/1/40 44/2/40 47/3/40
f 41/1/40 47/2/40 38/3/40
f 49/1/54 50/2/54 51/3/54
f 50/1/54 49/2/54 52/3/54 53/4/54
f 54/1/31 53/2/31 52/3/31
f 53/1/31 54/2/31 55/3/31 56/4/31
f 57/1/23 56/2/23 55/3/23
f 56/1/23 57/2/23 58/3/23 59/4/23
f 60/1/47 59/2/47 58/3/47
f 59/1/47 60/2/47 51/3/47 50/4/47
f 53/1/40 56/2/40 59/3/40
f 53/1/40 59/2/40 50/3/40
f 61/1/27 62/2/27 63/3/27
f 64/1/27 61/2/27 63/3/27 65/4/27
f 65/1/21 63/2/21 66/3/21
f 65/1/21 66/2/21 67/3/21
f 67/1/16 66/2/16 68/3/16
f 67/1/16 68/2/16 69/3/16
f 69/1/7 68/2/7 70/3/7
f 69/1/7 70/2/7 71/3/7
f 71/1/8 70/2/8 72/3/8
f 71/1/8 72/2/8 73/3/8
f 73/1/13 72/2/13 74/3/13
f 73/1/13 74/2/13 75/3/13
f 75/1/20 74/2/20 76/3/20
f 75/1/20 76/2/20 77/3/20
f 78/1/28 77/2/28 76/3/28 79/4/28
f 80/1/28 77/2/28 78/3/28
f 81/1/43 79/2/43 76/3/43 74/4/43
f 74/1/43 72/2/43 70/3/43
f 70/1/43 68/2/43 66/3/43
f 82/1/43 66/2/43 63/3/43 62/4/43
f 83/1/43 81/2/43 74/3/43
f 74/1/43 70/2/43 66/3/43
f 84/1/43 66/2/43 82/3/43
f 85/1/43 86/2/43 83/3/43 74/4/43
f 87/1/43 88/2/43 74/3/43
f 87/1/43 74/2/43 66/3/43
f 87/1/43 66/2/43 84/3/43
f 85/1/44 74/2/44 88/3/44
f 89/1/40 64/2/40 65/3/40
f 65/1/40 67/2/40 69/3/40
f 69/1/40 71/2/40 73/3/40
f 73/1/40 75/2/40 77/3/40
f 90/1/40 77/2/40 80/3/40
f 91/1/40 89/2/40 65/3/40 69/4/40
f 69/1/40 73/2/40 77/3/40
f 92/1/40 77/2/40 90/3/40
f 93/1/40 94/2/40 91/3/40 69/4/40
f 95/1/40 96/2/40 69/3/40
f 95/1/40 69/2/40 77/3/40
f 95/1/40 77/2/40 92/3/40
f 93/1/40 69/2/40 96/3/40
f 97/1/22 98/2/22 99/3/22 100/4/22
f 97/1/22 100/2/22 101/3/22
f 102/1/15 101/2/15 100/3/15 103/4/15
f 102/1/15 103/2/15 104/3/15
f 105/1/5 104/2/5 103/3/5 106/4/5
f 105/1/5 106/2/5 107/3/5
f 108/1/6 107/2/6 106/3/6 109/4/6
f 108/1/6 109/2/6 110/3/6
f 111/1/14 110/2/14 109/3/14 112/4/14
f 111/1/14 112/2/14 113/3/14
f 114/1/19 115/2/19 113/3/19
f 114/1/19 113/2/19 112/3/19
f 114/1/19 112/2/19 116/3/19
f 117/1/19 115/2/19 114/3/19
f 118/1/43 116/2/43 112/3/43
f 112/1/43 109/2/43 106/3/43
f 106/1/43 103/2/43 100/3/43
f 119/1/43 100/2/43 99/3/43
f 120/1/43 118/2/43 112/3/43
f 112/1/43 106/2/43 100/3/43
f 121/1/43 100/2/43 119/3/43
f 122/1/43 123/2/43 120/3/43 112/4/43
f 124/1/43 125/2/43 112/3/43
f 124/1/43 112/2/43 100/3/43
f 124/1/43 100/2/43 121/3/43
f 122/1/43 112/2/43 125/3/43
f 126/1/30 127/2/30 128/3/30
f 129/1/30 128/2/30 127/3/30
f 129/1/30 127/2/30 130/3/30
f 129/1/30 130/2/30 131/3/30
f 132/1/25 131/2/25 130/3/25
f 131/1/25 132/2/25 133/3/25 134/4/25
f 135/1/17 134/2/17 133/3/17
f 134/1/17 135/2/17 136/3/17 137/4/17
f 138/1/10 137/2/10 136/3/10
f 137/1/10 138/2/10 139/3/10 140/4/10
f 141/1/3 140/2/3 139/3/3
f 140/1/3 141/2/3 142/3/3 143/4/3
f 144/1/4 143/2/4 142/3/4
f 143/1/4 144/2/4 145/3/4 146/4/4
f 147/1/9 146/2/9 145/3/9
f 146/1/9 147/2/9 148/3/9 149/4/9
f 150/1/18 149/2/18 148/3/18
f 149/1/18 150/2/18 151/3/18 152/4/18
f 153/1/26 152/2/26 151/3/26
f 152/1/26 153/2/26 154/3/26 155/4/26
f 156/1/29 157/2/29 155/3/29 154/4/29
f 158/1/29 155/2/29 157/3/29
f 159/1/40 129/2/40 131/3/40 134/4/40
f 134/1/40 137/2/40 140/3/40
f 140/1/40 143/2/40 146/3/40
f 146/1/40 149/2/40 152/3/40
f 160/1/40 152/2/40 155/3/40 158/4/40
f 161/1/40 159/2/40 134/3/40
f 134/1/40 140/2/40 146/3/40
f 162/1/40 146/2/40 152/3/40 160/4/40
f 163/1/40 164/2/40 161/3/40 134/4/40
f 165/1/40 134/2/40 146/3/40 162/4/40
f 166/1/40 167/2/40 163/3/40
f 166/1/40 163/2/40 134/3/40
f 166/1/40 134/2/40 165/3/40
f 168/1/40 167/2/40 166/3/40
usemtl dvss_5
f 169/1/37 170/2/37 171/3/37 172/4/37
f 169/1/37 172/2/37 173/3/37
f 174/1/1 173/2/1 172/3/1 175/4/1
f 174/1/1 175/2/1 176/3/1
f 177/1/34 176/2/34 175/3/34 178/4/34
f 177/1/34 178/2/34 179/3/34
f 180/1/51 179/2/51 178/3/51 181/4/51
f 180/1/51 181/2/51 182/3/51
f 175/1/43 172/2/43 171/3/43
f 171/1/43 183/2/43 181/3/43
f 181/1/43 178/2/43 175/3/43
f 171/1/43 181/2/43 175/3/43
f 184/1/57 182/2/57 181/3/57 183/4/57
f 184/1/57 183/2/57 185/3/57
f 186/1/50 185/2/50 183/3/50 171/4/50
f 186/1/50 171/2/50 170/3/50
f 187/1/33 188/2/33 189/3/33 190/4/33
f 187/1/33 190/2/33 191/3/33
f 192/1/2 191/2/2 190/3/2 193/4/2
f 192/1/2 193/2/2 194/3/2
f 195/1/34 194/2/34 193/3/34 196/4/34
f 195/1/34 196/2/34 197/3/34
f 198/1/51 197/2/51 196/3/51 199/4/51
f 198/1/51 199/2/51 200/3/51
f 193/1/43 190/2/43 189/3/43
f 189/1/43 201/2/43 199/3/43
f 199/1/43 196/2/43 193/3/43
f 189/1/43 199/2/43 193/3/43
f 202/1/57 200/2/57 199/3/57 201/4/57
f 202/1/57 201/2/57 203/3/57
f 204/1/52 203/2/52 201/3/52 189/4/52
f 204/1/52 189/2/52 188/3/52
f 205/1/35 206/2/35 207/3/35 208/4/35
f 205/1/35 208/2/35 209/3/35
f 210/1/1 209/2/1 208/3/1 211/4/1
f 210/1/1 211/2/1 212/3/1
f 213/1/36 212/2/36 211/3/36 214/4/36
f 213/1/36 214/2/36 215/3/36
f 216/1/49 215/2/49 214/3/49 217/4/49
f 216/1/49 217/2/49 218/3/49
f 211/1/43 208/2/43 207/3/43
f 207/1/43 219/2/43 217/3/43
f 217/1/43 214/2/43 211/3/43
f 207/1/43 217/2/43 211/3/43
f 220/1/57 218/2/57 217/3/57 219/4/57
f 220/1/57 219/2/57 221/3/57
f 222/1/52 221/2/52 219/3/52 207/4/52
f 222/1/52 207/2/52 206/3/52
