# Generated by tools-import-turbines.py; estimated STEP scale.
mtllib materials.mtl
s off
v 0.039580962 1.000000000 0.954171925
v 0.055079000 0.355000000 0.969669900
v 0.055079000 1.000000000 0.969669900
v 0.030330200 1.000000000 0.944921200
v 0.030330200 0.355000000 0.944921200
v 0.067968086 1.000000000 0.907283188
v 0.090434100 1.000000000 0.884817100
v 0.090434100 0.355000000 0.884817100
v 0.105932138 1.000000000 0.900315138
v 0.115182900 1.000000000 0.909565900
v 0.115182900 0.355000000 0.909565900
v 0.077545014 1.000000000 0.947203849
v 0.000000000 0.182274252 0.841785533
v 0.000000000 0.355000000 0.841785533
v 0.086898600 0.355000000 0.913101300
v 0.000000000 0.105000000 0.841785533
v 0.086898600 0.105000000 0.913101300
v 0.158214449 0.277725946 1.000000000
v 0.158214449 0.355000000 1.000000000
v 0.158214449 0.105000000 1.000000000
v 0.144962456 0.355000000 1.000000000
v 0.000000000 0.355000000 0.855037543
v 0.000000000 0.355000000 0.915552759
v 0.084447259 0.355000000 1.000000000
v 0.000000000 0.355000000 1.000000000
v 0.151243000 0.105000000 1.000000000
v 0.000000000 0.105000000 0.848757000
v 0.088157184 0.105000000 1.000000000
v 0.000000000 0.105000000 0.868063445
v 0.000000000 0.105000000 1.000000000
v 0.000000000 0.134984204 0.751670298
v 0.000000000 0.135000200 0.751670298
v 0.000013100 0.135000200 0.751677300
v 0.000000000 0.000000000 0.751670298
v 0.000013100 0.000000000 0.751677300
v 0.039492443 0.000000000 0.784077168
v 0.136395900 0.135000200 0.863603800
v 0.136395900 0.000000000 0.863603800
v 0.168795797 0.000000000 0.903083143
v 0.248322500 0.135000200 0.999986600
v 0.248322500 0.000000000 0.999986600
v 0.248329662 0.000000000 1.000000000
v 0.248329662 0.135000200 1.000000000
v 0.227532989 0.135000200 1.000000000
v 0.000000000 0.135000200 0.772467005
v 0.000000000 0.135000200 0.824093436
v 0.175906636 0.135000200 1.000000000
v 0.000000000 0.135000200 1.000000000
v 0.014472613 1.000000000 0.916795417
v 0.000000000 0.816508641 0.904434633
v 0.000000000 1.000000000 0.904434633
v 0.000000000 0.290000000 0.904434633
v 0.051543200 1.000000000 0.948456700
v 0.051543200 0.290000000 0.948456700
v 0.095565399 1.000000000 1.000000000
v 0.095565399 0.943493629 1.000000000
v 0.095565399 0.290000000 1.000000000
v 0.000000000 0.290000000 0.911008347
v 0.088991671 0.290000000 1.000000000
v 0.049097814 0.290000000 1.000000000
v 0.000000000 0.290000000 0.950902214
v 0.000000000 0.290000000 1.000000000
v 0.168946776 0.000000000 0.845168596
v 0.192964600 0.000000000 0.859035300
v 0.192964600 0.034999800 0.859035300
v 0.147931300 0.034999800 0.833035300
v 0.147931300 0.000000000 0.833035300
v 0.147931300 0.000000000 0.805301893
v 0.147931300 0.034999800 0.781035300
v 0.147931300 0.000000000 0.781035300
v 0.171949124 0.000000000 0.767168596
v 0.192964600 0.034999800 0.755035300
v 0.192964600 0.000000000 0.755035300
v 0.216982371 0.000000000 0.768902004
v 0.237997800 0.034999800 0.781035300
v 0.237997800 0.000000000 0.781035300
v 0.237997800 0.034999800 0.833035300
v 0.237997800 0.000000000 0.808768707
v 0.237997800 0.000000000 0.833035300
v 0.213980029 0.000000000 0.846902004
vt 0 0
vt 1 0
vt 1 1
vt 0 1
vn -1.000000000 0.000000000 0.000000000
vn -0.707107958 0.000000000 -0.707105605
vn -0.707105353 0.000000000 0.707108210
vn -0.500000175 0.000000000 -0.866025303
vn -0.500000175 0.000000000 0.866025303
vn 0.000000000 -1.000000000 0.000000000
vn 0.000000000 1.000000000 0.000000000
vn 0.471396425 0.000000000 -0.881921431
vn 0.500001008 0.000000000 0.866024822
vn 0.500001008 0.000000000 -0.866024822
vn 0.634392905 0.000000000 -0.773010764
vn 0.634393381 0.000000000 -0.773010374
vn 0.649448177 0.000000000 -0.760405855
vn 0.707106781 0.000000000 -0.707106781
vn 0.707107369 0.000000000 0.707106193
vn 0.760405511 0.000000000 -0.649448581
vn 0.773010096 0.000000000 -0.634393720
vn 0.773010764 0.000000000 -0.634392905
vn 0.881921195 0.000000000 -0.471396866
vn 1.000000000 0.000000000 0.000000000
usemtl dvss_2
f 1/1/3 2/2/3 3/3/3
f 2/1/3 1/2/3 4/3/3 5/4/3
f 6/1/2 5/2/2 4/3/2
f 5/1/2 6/2/2 7/3/2 8/4/2
f 9/1/14 8/2/14 7/3/14
f 8/1/14 9/2/14 10/3/14 11/4/14
f 12/1/15 11/2/15 10/3/15
f 11/1/15 12/2/15 3/3/15 2/4/15
f 5/1/6 8/2/6 11/3/6
f 5/1/6 11/2/6 2/3/6
f 13/1/11 14/2/11 15/3/11
f 16/1/11 13/2/11 15/3/11 17/4/11
f 18/1/18 17/2/18 15/3/18 19/4/18
f 20/1/18 17/2/18 18/3/18
f 21/1/7 19/2/7 15/3/7
f 22/1/7 15/2/7 14/3/7
f 23/1/7 24/2/7 21/3/7
f 23/1/7 21/2/7 15/3/7
f 23/1/7 15/2/7 22/3/7
f 25/1/7 24/2/7 23/3/7
f 26/1/6 27/2/6 16/3/6
f 26/1/6 16/2/6 17/3/6
f 26/1/6 17/2/6 20/3/6
f 28/1/6 29/2/6 27/3/6 26/4/6
f 30/1/6 29/2/6 28/3/6
f 31/1/8 32/2/8 33/3/8
f 34/1/8 31/2/8 33/3/8 35/4/8
f 36/1/12 35/2/12 33/3/12 37/4/12
f 36/1/12 37/2/12 38/3/12
f 39/1/17 38/2/17 37/3/17 40/4/17
f 39/1/17 40/2/17 41/3/17
f 42/1/19 41/2/19 40/3/19 43/4/19
f 44/1/7 43/2/7 40/3/7 37/4/7
f 45/1/7 37/2/7 33/3/7 32/4/7
f 46/1/7 47/2/7 44/3/7
f 46/1/7 44/2/7 37/3/7
f 46/1/7 37/2/7 45/3/7
f 48/1/7 47/2/7 46/3/7
f 49/1/13 50/2/13 51/3/13
f 52/1/13 50/2/13 49/3/13
f 52/1/13 49/2/13 53/3/13
f 52/1/13 53/2/13 54/3/13
f 55/1/16 56/2/16 54/3/16 53/4/16
f 57/1/16 54/2/16 56/3/16
f 58/1/6 52/2/6 54/3/6
f 59/1/6 54/2/6 57/3/6
f 60/1/6 61/2/6 58/3/6
f 60/1/6 58/2/6 54/3/6
f 60/1/6 54/2/6 59/3/6
f 62/1/6 61/2/6 60/3/6
usemtl dvss_5
f 63/1/5 64/2/5 65/3/5 66/4/5
f 63/1/5 66/2/5 67/3/5
f 68/1/1 67/2/1 66/3/1 69/4/1
f 68/1/1 69/2/1 70/3/1
f 71/1/4 70/2/4 69/3/4 72/4/4
f 71/1/4 72/2/4 73/3/4
f 74/1/10 73/2/10 72/3/10 75/4/10
f 74/1/10 75/2/10 76/3/10
f 69/1/7 66/2/7 65/3/7
f 65/1/7 77/2/7 75/3/7
f 75/1/7 72/2/7 69/3/7
f 65/1/7 75/2/7 69/3/7
f 78/1/20 76/2/20 75/3/20 77/4/20
f 78/1/20 77/2/20 79/3/20
f 80/1/9 79/2/9 77/3/9 65/4/9
f 80/1/9 65/2/9 64/3/9
