# Generated by tools-import-turbines.py; estimated STEP scale.
mtllib materials.mtl
s off
v 1.000000000 0.200961760 0.042347301
v 1.000000000 0.230000000 0.042347301
v 0.976741000 0.230000000 0.023259200
v 1.000000000 0.089999700 0.042347301
v 0.976741000 0.089999700 0.023259200
v 0.957652697 0.119038216 0.000000000
v 0.957652697 0.230000000 0.000000000
v 0.957652697 0.089999700 0.000000000
v 0.961199711 0.230000000 0.000000000
v 1.000000000 0.230000000 0.038800336
v 1.000000000 0.230000000 0.000000000
v 0.973590587 0.089999700 0.000000000
v 1.000000000 0.089999700 0.026409387
v 1.000000000 0.089999700 0.000000000
v 1.000000000 1.000000000 0.192815149
v 0.975056127 1.000000000 0.175826978
v 1.000000000 0.808645418 0.143713563
v 1.000000000 1.000000000 0.011503515
v 1.000000000 0.959326197 0.000000092
v 0.993888346 1.000000000 0.006111751
v 0.928019346 1.000000000 0.134330634
v 1.000000000 0.622461454 0.091056762
v 1.000000000 0.300502375 0.000000000
v 0.894893346 1.000000000 0.105106605
v 0.999999995 0.300502390 0.000000000
v 0.988496514 1.000000000 0.000000000
v 1.000000000 0.959325909 0.000000000
v 0.853397100 1.000000000 0.058069872
v 0.984737345 0.354468131 0.000000000
v 0.824173071 1.000000000 0.024943873
v 0.856286474 0.808645418 0.000000000
v 0.807184905 1.000000000 0.000000000
v 1.000000000 0.019694724 0.304751095
v 1.000000000 0.040000000 0.304751095
v 0.972208400 0.040000000 0.289896200
v 1.000000000 0.000000000 0.304751095
v 0.972208400 0.000000000 0.289896200
v 0.876235307 0.000000000 0.211133099
v 0.828248700 0.040000000 0.171751500
v 0.828248700 0.000000000 0.171751500
v 0.749485533 0.000000000 0.075778540
v 0.710103900 0.040000000 0.027792000
v 0.710103900 0.000000000 0.027792000
v 0.695248774 0.000000000 0.000000000
v 0.695248774 0.040000000 0.000000000
v 0.713487901 0.040000000 0.000000000
v 1.000000000 0.040000000 0.286511979
v 1.000000000 0.040000000 0.241234706
v 0.758765106 0.040000000 0.000000000
v 1.000000000 0.040000000 0.048264075
v 0.980008354 0.040000000 0.000000000
v 1.000000000 0.040000000 0.000000000
v 0.906030300 0.045000100 0.145969600
v 0.906030300 0.119999900 0.145969600
v 0.860997000 0.119999900 0.119969600
v 0.860997000 0.045000100 0.119969600
v 0.860997000 0.119999900 0.067969600
v 0.860997000 0.045000100 0.067969600
v 0.906030300 0.119999900 0.041969500
v 0.906030300 0.045000100 0.041969500
v 0.951063600 0.119999900 0.067969600
v 0.951063600 0.045000100 0.067969600
v 0.951063600 0.119999900 0.119969600
v 0.951063600 0.045000100 0.119969600
vt 0 0
vt 1 0
vt 1 1
vt 0 1
vn -1.000000000 0.000000000 0.000000000
vn -0.881921365 0.000000000 0.471396548
vn -0.808536556 -0.207470408 0.550658395
vn -0.773010925 0.000000000 0.634392709
vn -0.773009685 0.000000000 0.634394220
vn -0.733575012 -0.207470414 0.647165920
vn -0.733574609 -0.207470374 0.647166391
vn -0.647166859 -0.207470442 0.733574177
vn -0.647165928 -0.207470361 0.733575021
vn -0.634393372 0.000000000 0.773010381
vn -0.634391959 0.000000000 0.773011541
vn -0.550658497 -0.207470458 0.808536473
vn -0.500001617 0.000000000 -0.866024470
vn -0.500000175 0.000000000 0.866025303
vn -0.471396130 0.000000000 0.881921589
vn 0.000000000 -1.000000000 0.000000000
vn 0.000000000 1.000000000 0.000000000
vn 0.500000175 0.000000000 0.866025303
vn 0.500001617 0.000000000 -0.866024470
vn 0.647166773 0.207470507 -0.733574233
vn 0.733575262 0.207470477 -0.647165617
vn 1.000000000 0.000000000 0.000000000
usemtl dvss_4
f 1/1/11 2/2/11 3/3/11
f 4/1/11 1/2/11 3/3/11 5/4/11
f 6/1/4 5/2/4 3/3/4 7/4/4
f 8/1/4 5/2/4 6/3/4
f 9/1/17 7/2/17 3/3/17
f 10/1/17 3/2/17 2/3/17
f 11/1/17 9/2/17 3/3/17 10/4/17
f 12/1/16 13/2/16 4/3/16
f 12/1/16 4/2/16 5/3/16
f 12/1/16 5/2/16 8/3/16
f 14/1/16 13/2/16 12/3/16
f 15/1/12 16/2/12 17/3/12
f 18/1/20 19/2/20 20/3/20
f 21/1/8 22/2/8 17/3/8 16/4/8
f 23/1/9 22/2/9 21/3/9
f 23/1/9 21/2/9 24/3/9
f 23/1/9 24/2/9 25/3/9
f 26/1/21 20/2/21 19/3/21 27/4/21
f 28/1/7 29/2/7 25/3/7 24/4/7
f 29/1/6 28/2/6 30/3/6 31/4/6
f 32/1/3 31/2/3 30/3/3
usemtl dvss_5
f 33/1/15 34/2/15 35/3/15
f 36/1/15 33/2/15 35/3/15 37/4/15
f 38/1/10 37/2/10 35/3/10 39/4/10
f 38/1/10 39/2/10 40/3/10
f 41/1/5 40/2/5 39/3/5 42/4/5
f 41/1/5 42/2/5 43/3/5
f 44/1/2 43/2/2 42/3/2 45/4/2
f 46/1/17 45/2/17 42/3/17 39/4/17
f 47/1/17 39/2/17 35/3/17 34/4/17
f 48/1/17 49/2/17 46/3/17
f 48/1/17 46/2/17 39/3/17
f 48/1/17 39/2/17 47/3/17
f 50/1/17 51/2/17 49/3/17 48/4/17
f 52/1/17 51/2/17 50/3/17
f 53/1/14 54/2/14 55/3/14
f 53/1/14 55/2/14 56/3/14
f 56/1/1 55/2/1 57/3/1
f 56/1/1 57/2/1 58/3/1
f 58/1/13 57/2/13 59/3/13
f 58/1/13 59/2/13 60/3/13
f 60/1/19 59/2/19 61/3/19
f 60/1/19 61/2/19 62/3/19
f 57/1/17 55/2/17 54/3/17
f 54/1/17 63/2/17 61/3/17
f 61/1/17 59/2/17 57/3/17
f 54/1/17 61/2/17 57/3/17
f 62/1/22 61/2/22 63/3/22
f 62/1/22 63/2/22 64/3/22
f 64/1/18 63/2/18 54/3/18
f 64/1/18 54/2/18 53/3/18
f 64/1/16 53/2/16 56/3/16
f 56/1/16 58/2/16 60/3/16
f 60/1/16 62/2/16 64/3/16
f 56/1/16 60/2/16 64/3/16
