# Generated by tools-import-turbines.py; estimated STEP scale.
mtllib materials.mtl
s off
v 0.447356587 0.000000000 0.834815079
v 0.500000000 0.000000000 0.840000000
v 0.500000000 0.130000000 0.840000000
v 0.433669300 0.130000000 0.833467000
v 0.433669300 0.000000000 0.833467000
v 0.383048983 0.000000000 0.818111524
v 0.369887700 0.130000000 0.814119100
v 0.369887700 0.000000000 0.814119100
v 0.323235716 0.000000000 0.789183068
v 0.311106200 0.130000000 0.782699700
v 0.311106200 0.000000000 0.782699700
v 0.270215327 0.000000000 0.749141446
v 0.259583700 0.130000000 0.740416300
v 0.259583700 0.000000000 0.740416300
v 0.226025446 0.000000000 0.699525506
v 0.217300300 0.130000000 0.688893900
v 0.217300300 0.000000000 0.688893900
v 0.192364348 0.000000000 0.642241916
v 0.185881000 0.130000000 0.630112400
v 0.185881000 0.000000000 0.630112400
v 0.170525444 0.000000000 0.579492083
v 0.166533000 0.130000000 0.566330800
v 0.166533000 0.000000000 0.566330800
v 0.161348079 0.000000000 0.513687308
v 0.160000000 0.130000000 0.500000000
v 0.160000000 0.000000000 0.500000000
v 0.165184921 0.000000000 0.447356587
v 0.166533000 0.130000000 0.433669300
v 0.166533000 0.000000000 0.433669300
v 0.181888476 0.000000000 0.383048983
v 0.185880900 0.130000000 0.369887700
v 0.185880900 0.000000000 0.369887700
v 0.210816932 0.000000000 0.323235716
v 0.217300300 0.130000000 0.311106200
v 0.217300300 0.000000000 0.311106200
v 0.250858554 0.000000000 0.270215327
v 0.259583700 0.130000000 0.259583700
v 0.259583700 0.000000000 0.259583700
v 0.300474494 0.000000000 0.226025446
v 0.311106100 0.130000000 0.217300300
v 0.311106100 0.000000000 0.217300300
v 0.357758084 0.000000000 0.192364348
v 0.369887600 0.130000000 0.185881000
v 0.369887600 0.000000000 0.185881000
v 0.420507917 0.000000000 0.170525444
v 0.433669200 0.130000000 0.166533000
v 0.433669200 0.000000000 0.166533000
v 0.486312692 0.000000000 0.161348079
v 0.500000000 0.130000000 0.160000000
v 0.500000000 0.000000000 0.160000000
v 0.552643413 0.000000000 0.165184921
v 0.566330700 0.130000000 0.166533000
v 0.566330700 0.000000000 0.166533000
v 0.616951017 0.000000000 0.181888476
v 0.630112300 0.130000000 0.185880900
v 0.630112300 0.000000000 0.185880900
v 0.676764284 0.000000000 0.210816932
v 0.688893800 0.130000000 0.217300300
v 0.688893800 0.000000000 0.217300300
v 0.729784673 0.000000000 0.250858554
v 0.740416300 0.130000000 0.259583700
v 0.740416300 0.000000000 0.259583700
v 0.773974554 0.000000000 0.300474494
v 0.782699700 0.130000000 0.311106100
v 0.782699700 0.000000000 0.311106100
v 0.807635652 0.000000000 0.357758084
v 0.814119000 0.130000000 0.369887600
v 0.814119000 0.000000000 0.369887600
v 0.829474556 0.000000000 0.420507917
v 0.833467000 0.130000000 0.433669200
v 0.833467000 0.000000000 0.433669200
v 0.838651921 0.000000000 0.486312692
v 0.840000000 0.130000000 0.500000000
v 0.840000000 0.000000000 0.500000000
v 0.834815079 0.000000000 0.552643413
v 0.833467000 0.130000000 0.566330700
v 0.833467000 0.000000000 0.566330700
v 0.818111524 0.000000000 0.616951017
v 0.814119100 0.130000000 0.630112300
v 0.814119100 0.000000000 0.630112300
v 0.789183068 0.000000000 0.676764284
v 0.782699700 0.130000000 0.688893800
v 0.782699700 0.000000000 0.688893800
v 0.749141446 0.000000000 0.729784673
v 0.740416300 0.130000000 0.740416300
v 0.740416300 0.000000000 0.740416300
v 0.699525506 0.000000000 0.773974554
v 0.688893900 0.130000000 0.782699700
v 0.688893900 0.000000000 0.782699700
v 0.642241916 0.000000000 0.807635652
v 0.630112400 0.130000000 0.814119000
v 0.630112400 0.000000000 0.814119000
v 0.566330800 0.130000000 0.833467000
v 0.579492083 0.000000000 0.829474556
v 0.566330800 0.000000000 0.833467000
v 0.513687308 0.000000000 0.838651921
v 1.000000000 0.829999900 1.000000000
v 1.000000000 0.829999900 0.300738718
v 0.491957147 0.829999900 1.000000000
v 0.000000000 0.829999900 0.000000000
v 0.000000000 0.829999900 0.360284559
v 1.000000000 0.829999900 0.035364695
v 1.000000000 0.829999900 0.000000000
v 0.000000000 0.829999900 1.000000000
v 0.000000000 0.210000000 1.000000000
v 0.000000000 0.210000000 0.151716579
v 0.432222111 0.210000000 1.000000000
v 1.000000000 0.210000000 0.000000000
v 1.000000000 0.210000000 0.432222045
v 0.151716179 0.210000000 0.000000000
v 0.000000000 0.210000000 0.000000000
v 1.000000000 0.210000000 1.000000000
v 0.058210109 0.190722214 1.000000000
v 0.058210109 0.260000000 1.000000000
v 0.026238600 0.260000000 0.973761700
v 0.058210109 0.040000000 1.000000000
v 0.026238600 0.040000000 0.973761700
v 0.000000000 0.109278328 0.941789909
v 0.000000000 0.260000000 0.941789909
v 0.000000000 0.040000000 0.941789909
v 0.000000000 0.190722298 0.058210071
v 0.000000000 0.260000000 0.058210071
v 0.026238300 0.260000000 0.026238600
v 0.000000000 0.040000000 0.058210071
v 0.026238300 0.040000000 0.026238600
v 0.058210091 0.109278328 0.000000000
v 0.058210091 0.260000000 0.000000000
v 0.058210091 0.040000000 0.000000000
v 0.941789929 0.190722298 0.000000000
v 0.941789929 0.260000000 0.000000000
v 0.973761400 0.260000000 0.026238300
v 0.941789929 0.040000000 0.000000000
v 0.973761400 0.040000000 0.026238300
v 1.000000000 0.109278328 0.058210091
v 1.000000000 0.260000000 0.058210091
v 1.000000000 0.040000000 0.058210091
v 1.000000000 0.190722214 0.941789891
v 1.000000000 0.260000000 0.941789891
v 0.973761700 0.260000000 0.973761400
v 1.000000000 0.040000000 0.941789891
v 0.973761700 0.040000000 0.973761400
v 0.941789909 0.109278328 1.000000000
v 0.941789909 0.260000000 1.000000000
v 0.941789909 0.040000000 1.000000000
v 0.934492883 0.260000000 1.000000000
v 1.000000000 0.260000000 0.934492951
v 1.000000000 0.260000000 0.065507117
v 0.934493005 0.260000000 0.000000000
v 0.065507117 0.260000000 0.000000000
v 0.000000000 0.260000000 0.065506995
v 0.000000000 0.260000000 0.934492883
v 0.065507049 0.260000000 1.000000000
v 1.000000000 0.260000000 0.875397098
v 0.875397202 0.260000000 1.000000000
v 0.875397233 0.260000000 0.000000000
v 1.000000000 0.260000000 0.124602733
v 0.000000000 0.260000000 0.124602767
v 0.124602733 0.260000000 0.000000000
v 0.124602902 0.260000000 1.000000000
v 0.000000000 0.260000000 0.875397202
v 1.000000000 0.260000000 0.805688895
v 0.530891611 0.260000000 1.000000000
v 0.805688966 0.260000000 0.000000000
v 1.000000000 0.260000000 0.469108323
v 0.000000000 0.260000000 0.194311006
v 0.469107999 0.260000000 0.000000000
v 0.194311078 0.260000000 1.000000000
v 0.000000000 0.260000000 0.530891936
v 0.707106655 0.260000000 0.000000000
v 0.292893262 0.260000000 1.000000000
v 0.000000000 0.040000000 0.929316738
v 0.070683338 0.040000000 1.000000000
v 0.070683231 0.040000000 0.000000000
v 0.000000000 0.040000000 0.070683269
v 1.000000000 0.040000000 0.070683231
v 0.929316731 0.040000000 0.000000000
v 0.929316738 0.040000000 1.000000000
v 1.000000000 0.040000000 0.929316662
v 0.000000000 0.040000000 0.865866343
v 0.089625276 0.040000000 1.000000000
v 0.134133602 0.040000000 0.000000000
v 0.000000000 0.040000000 0.089625218
v 1.000000000 0.040000000 0.134133535
v 0.910374795 0.040000000 0.000000000
v 0.865866410 0.040000000 1.000000000
v 1.000000000 0.040000000 0.910374737
v 0.000000000 0.040000000 0.735698893
v 0.395554600 0.040000000 1.000000000
v 0.264301127 0.040000000 0.000000000
v 0.000000000 0.040000000 0.395554705
v 1.000000000 0.040000000 0.264301074
v 0.604445325 0.040000000 0.000000000
v 0.735698946 0.040000000 1.000000000
v 1.000000000 0.040000000 0.604445430
v 0.400543744 0.040000000 0.000000000
v 0.599456236 0.040000000 1.000000000
v 0.228376646 0.050000000 1.000000000
v 0.136728850 0.076842502 1.000000000
v 0.164962500 0.050000000 0.961139700
v 0.099225479 0.090495575 1.000000000
v 0.000000100 0.126618470 1.000000000
v 0.096949200 0.050000000 0.903050900
v 0.000000000 0.126618512 1.000000000
v 0.000000000 0.105290674 0.941415004
v 0.000000000 0.076842512 0.863271360
v 0.038860300 0.050000000 0.835037700
v 0.000000000 0.071115126 0.843716450
v 0.000000000 0.050000000 0.771623335
v 0.000000000 0.050000000 0.228376646
v 0.000000000 0.076842502 0.136728850
v 0.038860300 0.050000000 0.164962500
v 0.000000000 0.090495553 0.099225515
v 0.000000000 0.126618438 0.000000140
v 0.096949100 0.050000000 0.096949200
v 0.000000000 0.126618498 0.000000000
v 0.058584996 0.105290674 0.000000000
v 0.136728640 0.076842512 0.000000000
v 0.164962300 0.050000000 0.038860300
v 0.156283550 0.071115126 0.000000000
v 0.228376665 0.050000000 0.000000000
v 0.771623354 0.050000000 0.000000000
v 0.863271150 0.076842502 0.000000000
v 0.835037500 0.050000000 0.038860300
v 0.900774507 0.090495553 0.000000000
v 0.999999900 0.126618438 0.000000000
v 0.903050800 0.050000000 0.096949100
v 1.000000000 0.126618480 0.000000000
v 1.000000000 0.105290707 0.058584973
v 1.000000000 0.076842531 0.136728619
v 0.961139700 0.050000000 0.164962300
v 1.000000000 0.071115132 0.156283547
v 1.000000000 0.050000000 0.228376530
v 1.000000000 0.050000000 0.771623354
v 1.000000000 0.076842502 0.863271150
v 0.961139700 0.050000000 0.835037500
v 1.000000000 0.090495575 0.900774543
v 1.000000000 0.126618470 0.999999940
v 0.903050900 0.050000000 0.903050800
v 1.000000000 0.126618495 1.000000000
v 0.941415027 0.105290707 1.000000000
v 0.863271381 0.076842531 1.000000000
v 0.835037700 0.050000000 0.961139700
v 0.843716453 0.071115132 1.000000000
v 0.771623470 0.050000000 1.000000000
v 1.000000000 0.240000000 1.000000000
v 1.000000000 0.240000000 0.290224177
v 0.484317954 0.240000000 1.000000000
v 0.000000000 0.240000000 0.000000000
v 0.000000000 0.240000000 0.366782956
v 1.000000000 0.240000000 0.041863094
v 1.000000000 0.240000000 0.000000000
v 0.000000000 0.240000000 1.000000000
v 0.230388147 0.050000000 1.000000000
v 0.000000000 0.050000000 0.769611815
v 0.000000000 0.050000000 0.230388147
v 0.230388185 0.050000000 0.000000000
v 0.769611853 0.050000000 0.000000000
v 1.000000000 0.050000000 0.230388058
v 1.000000000 0.050000000 0.769611853
v 0.769611942 0.050000000 1.000000000
v 0.000000000 0.050000000 0.766648300
v 0.233351700 0.050000000 1.000000000
v 0.000000000 0.050000000 0.287222497
v 0.287222474 0.050000000 0.000000000
v 1.000000000 0.050000000 0.233351603
v 0.766648303 0.050000000 0.000000000
v 1.000000000 0.050000000 0.712777384
v 0.712777407 0.050000000 1.000000000
v 0.000000000 0.050000000 0.762786449
v 0.465557941 0.050000000 1.000000000
v 0.000000000 0.050000000 0.709061993
v 0.709061357 0.050000000 0.000000000
v 1.000000000 0.050000000 0.465557881
v 0.762786402 0.050000000 0.000000000
v 0.652149987 0.050000000 1.000000000
v 1.000000000 0.050000000 0.652149913
v 0.557076605 0.050000000 1.000000000
v 1.000000000 0.050000000 0.557076522
v 1.000000000 0.970000000 1.000000000
v 1.000000000 0.970000000 0.992541203
v 0.977044203 0.970000000 1.000000000
v 0.977044618 0.970000000 0.000000000
v 1.000000000 0.970000000 0.007458652
v 1.000000000 0.970000000 0.000000000
v 0.000000000 0.970000000 0.000000000
v 0.000000000 0.970000000 0.128376860
v 0.093271218 0.970000000 0.000000000
v 0.093271327 0.970000000 1.000000000
v 0.000000000 0.970000000 0.871623080
v 0.000000000 0.970000000 1.000000000
v 1.000000000 0.970000000 0.216621692
v 0.430842704 0.970000000 1.000000000
v 0.000000000 0.970000000 0.412271721
v 1.000000000 0.970000000 0.087351798
v 0.000000000 0.819999900 1.000000000
v 0.000000000 0.819999900 0.151716579
v 0.432222111 0.819999900 1.000000000
v 1.000000000 0.819999900 0.000000000
v 1.000000000 0.819999900 0.432222045
v 0.151716179 0.819999900 0.000000000
v 0.000000000 0.819999900 0.000000000
v 1.000000000 0.819999900 1.000000000
v 0.000000000 0.920000100 1.000000000
v 0.000000000 0.920000100 0.973819327
v 0.039182163 0.920000100 1.000000000
v 0.026180673 0.920000100 0.000000000
v 0.000000000 0.920000100 0.039182163
v 0.000000000 0.920000100 0.000000000
v 1.000000000 0.920000100 0.000000000
v 1.000000000 0.920000100 0.026180673
v 0.960817837 0.920000100 0.000000000
v 0.973819327 0.920000100 1.000000000
v 1.000000000 0.920000100 0.960817837
v 1.000000000 0.920000100 1.000000000
v 0.400543710 0.920000100 0.000000000
v 0.599456290 0.920000100 1.000000000
v 0.423914837 0.000000000 0.972506231
v 0.500000100 0.000000000 0.980000000
v 0.500000100 0.030000000 0.980000000
v 0.406356700 0.030000000 0.970776900
v 0.406356700 0.000000000 0.970776900
v 0.333195381 0.000000000 0.948583625
v 0.316312000 0.030000000 0.943462100
v 0.316312000 0.000000000 0.943462100
v 0.248886119 0.000000000 0.907422281
v 0.233326300 0.030000000 0.899105400
v 0.233326300 0.000000000 0.899105400
v 0.174227163 0.000000000 0.850603944
v 0.160588900 0.030000000 0.839411300
v 0.160588900 0.000000000 0.839411300
v 0.112087363 0.000000000 0.780312081
v 0.100894700 0.030000000 0.766673800
v 0.100894700 0.000000000 0.766673800
v 0.064854800 0.000000000 0.699248000
v 0.056537900 0.030000000 0.683688200
v 0.056537900 0.000000000 0.683688200
v 0.034344625 0.000000000 0.610526800
v 0.029223100 0.030000000 0.593643400
v 0.029223100 0.000000000 0.593643400
v 0.021729331 0.000000000 0.517558219
v 0.020000000 0.030000000 0.500000100
v 0.020000000 0.000000000 0.500000100
v 0.027493769 0.000000000 0.423914837
v 0.029223100 0.030000000 0.406356700
v 0.029223100 0.000000000 0.406356700
v 0.051416375 0.000000000 0.333195381
v 0.056537900 0.030000000 0.316312000
v 0.056537900 0.000000000 0.316312000
v 0.092577719 0.000000000 0.248886119
v 0.100894600 0.030000000 0.233326300
v 0.100894600 0.000000000 0.233326300
v 0.149396056 0.000000000 0.174227163
v 0.160588700 0.030000000 0.160588900
v 0.160588700 0.000000000 0.160588900
v 0.219687919 0.000000000 0.112087363
v 0.233326200 0.030000000 0.100894700
v 0.233326200 0.000000000 0.100894700
v 0.300752000 0.000000000 0.064854800
v 0.316311800 0.030000000 0.056537900
v 0.316311800 0.000000000 0.056537900
v 0.389473200 0.000000000 0.034344625
v 0.406356600 0.030000000 0.029223100
v 0.406356600 0.000000000 0.029223100
v 0.482441781 0.000000000 0.021729331
v 0.499999900 0.030000000 0.020000000
v 0.499999900 0.000000000 0.020000000
v 0.576085163 0.000000000 0.027493769
v 0.593643300 0.030000000 0.029223100
v 0.593643300 0.000000000 0.029223100
v 0.666804619 0.000000000 0.051416375
v 0.683688000 0.030000000 0.056537900
v 0.683688000 0.000000000 0.056537900
v 0.751113881 0.000000000 0.092577719
v 0.766673700 0.030000000 0.100894600
v 0.766673700 0.000000000 0.100894600
v 0.825772837 0.000000000 0.149396056
v 0.839411100 0.030000000 0.160588700
v 0.839411100 0.000000000 0.160588700
v 0.887912637 0.000000000 0.219687919
v 0.899105300 0.030000000 0.233326200
v 0.899105300 0.000000000 0.233326200
v 0.935145200 0.000000000 0.300752000
v 0.943462100 0.030000000 0.316311800
v 0.943462100 0.000000000 0.316311800
v 0.965655375 0.000000000 0.389473200
v 0.970776900 0.030000000 0.406356600
v 0.970776900 0.000000000 0.406356600
v 0.978270669 0.000000000 0.482441781
v 0.980000000 0.030000000 0.499999900
v 0.980000000 0.000000000 0.499999900
v 0.972506231 0.000000000 0.576085163
v 0.970776900 0.030000000 0.593643300
v 0.970776900 0.000000000 0.593643300
v 0.948583625 0.000000000 0.666804619
v 0.943462100 0.030000000 0.683688000
v 0.943462100 0.000000000 0.683688000
v 0.907422281 0.000000000 0.751113881
v 0.899105400 0.030000000 0.766673700
v 0.899105400 0.000000000 0.766673700
v 0.850603944 0.000000000 0.825772837
v 0.839411300 0.030000000 0.839411100
v 0.839411300 0.000000000 0.839411100
v 0.780312081 0.000000000 0.887912637
v 0.766673800 0.030000000 0.899105300
v 0.766673800 0.000000000 0.899105300
v 0.699248000 0.000000000 0.935145200
v 0.683688200 0.030000000 0.943462100
v 0.683688200 0.000000000 0.943462100
v 0.593643400 0.030000000 0.970776900
v 0.610526800 0.000000000 0.965655375
v 0.593643400 0.000000000 0.970776900
v 0.517558219 0.000000000 0.978270669
vt 0 0
vt 1 0
vt 1 1
vt 0 1
vn -0.995184747 0.000000000 0.098016939
vn -0.995184747 0.000000000 0.098016939
vn -0.995184732 0.000000000 -0.098017085
vn -0.995184695 0.000000000 -0.098017457
vn -0.995184685 0.000000000 0.098017561
vn -0.956940489 0.000000000 -0.290284171
vn -0.956940311 0.000000000 0.290284760
vn -0.956940221 0.000000000 -0.290285056
vn -0.956940072 0.000000000 0.290285545
vn -0.956940072 0.000000000 0.290285545
vn -0.881921678 0.000000000 0.471395963
vn -0.881921678 0.000000000 0.471395963
vn -0.881921621 0.000000000 -0.471396069
vn -0.881921054 0.000000000 -0.471397130
vn -0.881920943 0.000000000 0.471397338
vn -0.773010623 0.000000000 -0.634393078
vn -0.773010548 0.000000000 -0.634393169
vn -0.773010148 0.000000000 -0.634393656
vn -0.773010107 0.000000000 0.634393706
vn -0.773010055 0.000000000 0.634393770
vn -0.773010019 0.000000000 0.634393814
vn -0.773010019 0.000000000 0.634393814
vn -0.634393814 0.000000000 -0.773010019
vn -0.634393770 0.000000000 -0.773010055
vn -0.634393706 0.000000000 -0.773010107
vn -0.634393656 0.000000000 0.773010148
vn -0.634393078 0.000000000 0.773010623
vn -0.634393078 0.000000000 0.773010623
vn -0.634392714 0.000000000 0.773010921
vn -0.471397338 0.000000000 -0.881920943
vn -0.471397130 0.000000000 0.881921054
vn -0.471397130 0.000000000 0.881921054
vn -0.471396069 0.000000000 0.881921621
vn -0.471395963 0.000000000 -0.881921678
vn -0.416915186 -0.872300922 0.255485475
vn -0.416915060 -0.872300861 0.255485892
vn -0.416914791 -0.872300924 -0.255486114
vn -0.371815451 -0.872300880 -0.317560144
vn -0.371815293 -0.872300907 -0.317560255
vn -0.371815049 -0.872300856 0.317560682
vn -0.371815003 -0.872300841 0.317560776
vn -0.317560776 -0.872300841 -0.371815003
vn -0.317560475 -0.872300888 -0.371815149
vn -0.317560463 -0.872300898 0.371815135
vn -0.317560199 -0.872300833 0.371815515
vn -0.290285545 0.000000000 -0.956940072
vn -0.290285056 0.000000000 0.956940221
vn -0.290284760 0.000000000 -0.956940311
vn -0.290284171 0.000000000 0.956940489
vn -0.290284171 0.000000000 0.956940489
vn -0.255486114 -0.872300924 0.416914791
vn -0.255485892 -0.872300861 -0.416915060
vn -0.255485475 -0.872300922 -0.416915186
vn -0.098017561 0.000000000 -0.995184685
vn -0.098017457 0.000000000 0.995184695
vn -0.098017085 0.000000000 0.995184732
vn -0.098016939 0.000000000 -0.995184747
vn -0.000000000 -1.000000000 0.000000000
vn 0.000000000 -1.000000000 -0.000000000
vn 0.000000000 -1.000000000 0.000000000
vn 0.000000000 1.000000000 0.000000000
vn 0.000000000 1.000000000 0.000000000
vn 0.000000000 1.000000000 0.000000000
vn 0.098016939 0.000000000 0.995184747
vn 0.098016939 0.000000000 0.995184747
vn 0.098017085 0.000000000 -0.995184732
vn 0.098017457 0.000000000 -0.995184695
vn 0.098017561 0.000000000 0.995184685
vn 0.255485985 -0.872300802 0.416915126
vn 0.255486114 -0.872300924 -0.416914791
vn 0.255486230 -0.872300766 0.416915052
vn 0.290284171 0.000000000 -0.956940489
vn 0.290284760 0.000000000 0.956940311
vn 0.290285056 0.000000000 -0.956940221
vn 0.290285545 0.000000000 0.956940072
vn 0.290285545 0.000000000 0.956940072
vn 0.317560064 -0.872300876 0.371815528
vn 0.317560077 -0.872300915 -0.371815427
vn 0.317560098 -0.872300920 -0.371815397
vn 0.317560884 -0.872300747 0.371815130
vn 0.371815130 -0.872300747 -0.317560884
vn 0.371815270 -0.872300906 0.317560285
vn 0.371815460 -0.872300873 0.317560152
vn 0.371815629 -0.872300909 -0.317559857
vn 0.416914791 -0.872300924 0.255486114
vn 0.416915052 -0.872300766 -0.255486230
vn 0.416915126 -0.872300802 -0.255485985
vn 0.471395963 0.000000000 0.881921678
vn 0.471395963 0.000000000 0.881921678
vn 0.471396069 0.000000000 -0.881921621
vn 0.471397130 0.000000000 -0.881921054
vn 0.471397130 0.000000000 -0.881921054
vn 0.471397338 0.000000000 0.881920943
vn 0.634393078 0.000000000 -0.773010623
vn 0.634393078 0.000000000 -0.773010623
vn 0.634393169 0.000000000 -0.773010548
vn 0.634393656 0.000000000 -0.773010148
vn 0.634393706 0.000000000 0.773010107
vn 0.634393770 0.000000000 0.773010055
vn 0.634393814 0.000000000 0.773010019
vn 0.634393814 0.000000000 0.773010019
vn 0.773010019 0.000000000 -0.634393814
vn 0.773010019 0.000000000 -0.634393814
vn 0.773010055 0.000000000 -0.634393770
vn 0.773010107 0.000000000 -0.634393706
vn 0.773010148 0.000000000 0.634393656
vn 0.773010623 0.000000000 0.634393078
vn 0.773010623 0.000000000 0.634393078
vn 0.773010921 0.000000000 0.634392714
vn 0.881920943 0.000000000 -0.471397338
vn 0.881921054 0.000000000 0.471397130
vn 0.881921054 0.000000000 0.471397130
vn 0.881921621 0.000000000 0.471396069
vn 0.881921678 0.000000000 -0.471395963
vn 0.881921678 0.000000000 -0.471395963
vn 0.956940072 0.000000000 -0.290285545
vn 0.956940221 0.000000000 0.290285056
vn 0.956940311 0.000000000 -0.290284760
vn 0.956940489 0.000000000 0.290284171
vn 0.956940489 0.000000000 0.290284171
vn 0.995184685 0.000000000 -0.098017561
vn 0.995184695 0.000000000 0.098017457
vn 0.995184732 0.000000000 0.098017085
vn 0.995184747 0.000000000 -0.098016939
usemtl dvss_4
f 1/1/56 2/2/56 3/3/56 4/4/56
f 1/1/56 4/2/56 5/3/56
f 6/1/49 5/2/49 4/3/49 7/4/49
f 6/1/50 7/2/50 8/3/50
f 9/1/31 8/2/31 7/3/31 10/4/31
f 9/1/32 10/2/32 11/3/32
f 12/1/28 11/2/28 10/3/28 13/4/28
f 12/1/27 13/2/27 14/3/27
f 15/1/21 14/2/21 13/3/21 16/4/21
f 15/1/22 16/2/22 17/3/22
f 18/1/11 17/2/11 16/3/11 19/4/11
f 18/1/12 19/2/12 20/3/12
f 21/1/10 20/2/10 19/3/10 22/4/10
f 21/1/9 22/2/9 23/3/9
f 24/1/2 23/2/2 22/3/2 25/4/2
f 24/1/1 25/2/1 26/3/1
f 27/1/3 26/2/3 25/3/3 28/4/3
f 27/1/3 28/2/3 29/3/3
f 30/1/6 29/2/6 28/3/6 31/4/6
f 30/1/6 31/2/6 32/3/6
f 33/1/14 32/2/14 31/3/14 34/4/14
f 33/1/14 34/2/14 35/3/14
f 36/1/16 35/2/16 34/3/16 37/4/16
f 36/1/16 37/2/16 38/3/16
f 39/1/23 38/2/23 37/3/23 40/4/23
f 39/1/23 40/2/23 41/3/23
f 42/1/34 41/2/34 40/3/34 43/4/34
f 42/1/34 43/2/34 44/3/34
f 45/1/46 44/2/46 43/3/46 46/4/46
f 45/1/46 46/2/46 47/3/46
f 48/1/57 47/2/57 46/3/57 49/4/57
f 48/1/57 49/2/57 50/3/57
f 51/1/66 50/2/66 49/3/66 52/4/66
f 51/1/66 52/2/66 53/3/66
f 54/1/72 53/2/72 52/3/72 55/4/72
f 54/1/72 55/2/72 56/3/72
f 57/1/91 56/2/91 55/3/91 58/4/91
f 57/1/92 58/2/92 59/3/92
f 60/1/95 59/2/95 58/3/95 61/4/95
f 60/1/94 61/2/94 62/3/94
f 63/1/103 62/2/103 61/3/103 64/4/103
f 63/1/102 64/2/102 65/3/102
f 66/1/114 65/2/114 64/3/114 67/4/114
f 66/1/115 67/2/115 68/3/115
f 69/1/116 68/2/116 67/3/116 70/4/116
f 69/1/116 70/2/116 71/3/116
f 72/1/124 71/2/124 70/3/124 73/4/124
f 72/1/124 73/2/124 74/3/124
f 75/1/123 74/2/123 73/3/123 76/4/123
f 75/1/123 76/2/123 77/3/123
f 78/1/119 77/2/119 76/3/119 79/4/119
f 78/1/120 79/2/120 80/3/120
f 81/1/111 80/2/111 79/3/111 82/4/111
f 81/1/112 82/2/112 83/3/112
f 84/1/108 83/2/108 82/3/108 85/4/108
f 84/1/107 85/2/107 86/3/107
f 87/1/100 86/2/100 85/3/100 88/4/100
f 87/1/101 88/2/101 89/3/101
f 90/1/89 89/2/89 88/3/89 91/4/89
f 90/1/88 91/2/88 92/3/88
f 7/1/61 4/2/61 3/3/61
f 3/1/61 93/2/61 91/3/61
f 91/1/61 88/2/61 85/3/61
f 85/1/61 82/2/61 79/3/61
f 79/1/61 76/2/61 73/3/61
f 73/1/61 70/2/61 67/3/61
f 67/1/61 64/2/61 61/3/61
f 61/1/61 58/2/61 55/3/61
f 55/1/61 52/2/61 49/3/61
f 49/1/61 46/2/61 43/3/61
f 43/1/61 40/2/61 37/3/61
f 37/1/61 34/2/61 31/3/61
f 31/1/61 28/2/61 25/3/61
f 25/1/61 22/2/61 19/3/61
f 19/1/61 16/2/61 13/3/61
f 13/1/61 10/2/61 7/3/61
f 7/1/61 3/2/61 91/3/61
f 91/1/61 85/2/61 79/3/61
f 79/1/61 73/2/61 67/3/61
f 67/1/61 61/2/61 55/3/61
f 55/1/61 49/2/61 43/3/61
f 43/1/61 37/2/61 31/3/61
f 31/1/61 25/2/61 19/3/61
f 19/1/61 13/2/61 7/3/61
f 7/1/61 91/2/61 79/3/61
f 79/1/61 67/2/61 55/3/61
f 55/1/61 43/2/61 31/3/61
f 31/1/61 19/2/61 7/3/61
f 7/1/61 79/2/61 55/3/61
f 55/1/61 31/2/61 7/3/61
f 94/1/76 92/2/76 91/3/76 93/4/76
f 94/1/75 93/2/75 95/3/75
f 96/1/65 95/2/65 93/3/65 3/4/65
f 96/1/64 3/2/64 2/3/64
f 97/1/61 98/2/61 99/3/61
f 100/1/61 101/2/61 102/3/61 103/4/61
f 99/1/62 98/2/62 102/3/62
f 99/1/62 102/2/62 101/3/62
f 99/1/62 101/2/62 104/3/62
f 105/1/60 106/2/60 107/3/60
f 108/1/58 109/2/58 110/3/58
f 107/1/60 106/2/60 111/3/60
f 107/1/60 111/2/60 110/3/60
f 107/1/60 110/2/60 109/3/60
f 107/1/60 109/2/60 112/3/60
f 113/1/29 114/2/29 115/3/29
f 116/1/29 113/2/29 115/3/29 117/4/29
f 118/1/19 117/2/19 115/3/19 119/4/19
f 120/1/19 117/2/19 118/3/19
f 121/1/17 122/2/17 123/3/17
f 124/1/17 121/2/17 123/3/17 125/4/17
f 126/1/25 125/2/25 123/3/25 127/4/25
f 128/1/25 125/2/25 126/3/25
f 129/1/96 130/2/96 131/3/96
f 132/1/96 129/2/96 131/3/96 133/4/96
f 134/1/105 133/2/105 131/3/105 135/4/105
f 136/1/105 133/2/105 134/3/105
f 137/1/109 138/2/109 139/3/109
f 140/1/109 137/2/109 139/3/109 141/4/109
f 142/1/98 141/2/98 139/3/98 143/4/98
f 144/1/98 141/2/98 142/3/98
f 145/1/61 143/2/61 139/3/61
f 146/1/61 139/2/61 138/3/61
f 147/1/61 135/2/61 131/3/61
f 148/1/61 131/2/61 130/3/61
f 149/1/61 127/2/61 123/3/61
f 150/1/61 123/2/61 122/3/61
f 151/1/61 119/2/61 115/3/61
f 152/1/61 115/2/61 114/3/61
f 153/1/61 154/2/61 145/3/61
f 153/1/61 145/2/61 139/3/61
f 153/1/61 139/2/61 146/3/61
f 155/1/61 156/2/61 147/3/61
f 155/1/61 147/2/61 131/3/61
f 155/1/61 131/2/61 148/3/61
f 157/1/61 158/2/61 149/3/61
f 157/1/61 149/2/61 123/3/61
f 157/1/61 123/2/61 150/3/61
f 159/1/61 160/2/61 151/3/61
f 159/1/61 151/2/61 115/3/61
f 159/1/61 115/2/61 152/3/61
f 161/1/61 162/2/61 154/3/61 153/4/61
f 163/1/61 164/2/61 156/3/61 155/4/61
f 165/1/61 166/2/61 158/3/61 157/4/61
f 167/1/61 168/2/61 160/3/61 159/4/61
f 169/1/61 170/2/61 162/3/61
f 169/1/61 162/2/61 161/3/61
f 169/1/61 161/2/61 164/3/61
f 169/1/61 164/2/61 163/3/61
f 170/1/61 169/2/61 166/3/61
f 170/1/61 166/2/61 165/3/61
f 170/1/61 165/2/61 168/3/61
f 170/1/61 168/2/61 167/3/61
f 171/1/60 172/2/60 116/3/60
f 171/1/60 116/2/60 117/3/60
f 171/1/60 117/2/60 120/3/60
f 173/1/60 174/2/60 124/3/60
f 173/1/60 124/2/60 125/3/60
f 173/1/60 125/2/60 128/3/60
f 175/1/60 176/2/60 132/3/60
f 175/1/60 132/2/60 133/3/60
f 175/1/60 133/2/60 136/3/60
f 177/1/60 178/2/60 140/3/60
f 177/1/60 140/2/60 141/3/60
f 177/1/60 141/2/60 144/3/60
f 179/1/60 180/2/60 172/3/60 171/4/60
f 181/1/60 182/2/60 174/3/60 173/4/60
f 183/1/60 184/2/60 176/3/60 175/4/60
f 185/1/60 186/2/60 178/3/60 177/4/60
f 187/1/60 188/2/60 180/3/60 179/4/60
f 189/1/60 190/2/60 182/3/60 181/4/60
f 191/1/60 192/2/60 184/3/60 183/4/60
f 193/1/60 194/2/60 186/3/60 185/4/60
f 195/1/60 196/2/60 188/3/60
f 195/1/60 188/2/60 187/3/60
f 195/1/60 187/2/60 190/3/60
f 195/1/60 190/2/60 189/3/60
f 196/1/60 195/2/60 192/3/60
f 196/1/60 192/2/60 191/3/60
f 196/1/60 191/2/60 194/3/60
f 196/1/60 194/2/60 193/3/60
f 197/1/51 198/2/51 199/3/51
f 200/1/44 199/2/44 198/3/44
f 199/1/45 200/2/45 201/3/45 202/4/45
f 203/1/40 204/2/40 202/3/40 201/4/40
f 202/1/41 204/2/41 205/3/41 206/4/41
f 207/1/36 206/2/36 205/3/36
f 208/1/35 206/2/35 207/3/35
f 209/1/37 210/2/37 211/3/37
f 212/1/39 211/2/39 210/3/39
f 211/1/38 212/2/38 213/3/38 214/4/38
f 215/1/43 216/2/43 214/3/43 213/4/43
f 214/1/42 216/2/42 217/3/42 218/4/42
f 219/1/52 218/2/52 217/3/52
f 220/1/53 218/2/53 219/3/53
f 221/1/70 222/2/70 223/3/70
f 224/1/78 223/2/78 222/3/78
f 223/1/79 224/2/79 225/3/79 226/4/79
f 227/1/84 228/2/84 226/3/84 225/4/84
f 226/1/81 228/2/81 229/3/81 230/4/81
f 231/1/86 230/2/86 229/3/86
f 232/1/87 230/2/87 231/3/87
f 233/1/85 234/2/85 235/3/85
f 236/1/82 235/2/82 234/3/82
f 235/1/83 236/2/83 237/3/83 238/4/83
f 239/1/77 240/2/77 238/3/77 237/4/77
f 238/1/80 240/2/80 241/3/80 242/4/80
f 243/1/71 242/2/71 241/3/71
f 244/1/69 242/2/69 243/3/69
f 245/1/61 246/2/61 247/3/61
f 248/1/61 249/2/61 250/3/61 251/4/61
f 247/1/63 246/2/63 250/3/63
f 247/1/63 250/2/63 249/3/63
f 247/1/63 249/2/63 252/3/63
f 253/1/60 197/2/60 199/3/60 202/4/60
f 254/1/60 202/2/60 206/3/60 208/4/60
f 255/1/60 209/2/60 211/3/60 214/4/60
f 256/1/60 214/2/60 218/3/60 220/4/60
f 257/1/60 221/2/60 223/3/60 226/4/60
f 258/1/60 226/2/60 230/3/60 232/4/60
f 259/1/60 233/2/60 235/3/60 238/4/60
f 260/1/60 238/2/60 242/3/60 244/4/60
f 261/1/60 262/2/60 253/3/60
f 261/1/60 253/2/60 202/3/60
f 261/1/60 202/2/60 254/3/60
f 263/1/60 255/2/60 214/3/60
f 264/1/60 214/2/60 256/3/60
f 265/1/60 266/2/60 257/3/60
f 265/1/60 257/2/60 226/3/60
f 265/1/60 226/2/60 258/3/60
f 267/1/60 259/2/60 238/3/60
f 268/1/60 238/2/60 260/3/60
f 269/1/60 270/2/60 262/3/60 261/4/60
f 271/1/60 263/2/60 214/3/60
f 272/1/60 214/2/60 264/3/60
f 273/1/60 274/2/60 266/3/60 265/4/60
f 275/1/60 276/2/60 267/3/60
f 275/1/60 267/2/60 238/3/60
f 275/1/60 238/2/60 268/3/60
f 277/1/60 270/2/60 269/3/60
f 277/1/60 269/2/60 271/3/60
f 277/1/60 271/2/60 214/3/60
f 278/1/60 214/2/60 272/3/60
f 278/1/60 272/2/60 274/3/60
f 278/1/60 274/2/60 273/3/60
f 277/1/60 214/2/60 278/3/60
f 277/1/60 278/2/60 276/3/60
f 277/1/60 276/2/60 275/3/60
f 279/1/61 280/2/61 281/3/61
f 282/1/61 283/2/61 284/3/61
f 285/1/61 286/2/61 287/3/61
f 288/1/61 289/2/61 290/3/61
f 291/1/61 292/2/61 281/3/61 280/4/61
f 293/1/61 294/2/61 283/3/61
f 293/1/61 283/2/61 282/3/61
f 293/1/61 282/2/61 287/3/61
f 293/1/61 287/2/61 286/3/61
f 292/1/61 291/2/61 294/3/61
f 292/1/61 294/2/61 293/3/61
f 292/1/61 293/2/61 289/3/61
f 292/1/61 289/2/61 288/3/61
f 295/1/60 296/2/60 297/3/60
f 298/1/60 299/2/60 300/3/60
f 297/1/60 296/2/60 301/3/60
f 297/1/60 301/2/60 300/3/60
f 297/1/60 300/2/60 299/3/60
f 297/1/60 299/2/60 302/3/60
usemtl dvss_5
f 303/1/60 304/2/60 305/3/60
f 306/1/60 307/2/60 308/3/60
f 309/1/60 310/2/60 311/3/60
f 312/1/60 313/2/60 314/3/60
f 315/1/59 316/2/59 305/3/59
f 315/1/59 305/2/59 304/3/59
f 315/1/59 304/2/59 307/3/59
f 315/1/59 307/2/59 306/3/59
f 316/1/60 315/2/60 311/3/60
f 316/1/60 311/2/60 310/3/60
f 316/1/60 310/2/60 313/3/60
f 316/1/60 313/2/60 312/3/60
f 317/1/55 318/2/55 319/3/55 320/4/55
f 317/1/55 320/2/55 321/3/55
f 322/1/47 321/2/47 320/3/47 323/4/47
f 322/1/47 323/2/47 324/3/47
f 325/1/33 324/2/33 323/3/33 326/4/33
f 325/1/33 326/2/33 327/3/33
f 328/1/26 327/2/26 326/3/26 329/4/26
f 328/1/26 329/2/26 330/3/26
f 331/1/20 330/2/20 329/3/20 332/4/20
f 331/1/20 332/2/20 333/3/20
f 334/1/15 333/2/15 332/3/15 335/4/15
f 334/1/15 335/2/15 336/3/15
f 337/1/7 336/2/7 335/3/7 338/4/7
f 337/1/7 338/2/7 339/3/7
f 340/1/5 339/2/5 338/3/5 341/4/5
f 340/1/5 341/2/5 342/3/5
f 343/1/4 342/2/4 341/3/4 344/4/4
f 343/1/4 344/2/4 345/3/4
f 346/1/8 345/2/8 344/3/8 347/4/8
f 346/1/8 347/2/8 348/3/8
f 349/1/13 348/2/13 347/3/13 350/4/13
f 349/1/13 350/2/13 351/3/13
f 352/1/18 351/2/18 350/3/18 353/4/18
f 352/1/18 353/2/18 354/3/18
f 355/1/24 354/2/24 353/3/24 356/4/24
f 355/1/24 356/2/24 357/3/24
f 358/1/30 357/2/30 356/3/30 359/4/30
f 358/1/30 359/2/30 360/3/30
f 361/1/48 360/2/48 359/3/48 362/4/48
f 361/1/48 362/2/48 363/3/48
f 364/1/54 363/2/54 362/3/54 365/4/54
f 364/1/54 365/2/54 366/3/54
f 367/1/67 366/2/67 365/3/67 368/4/67
f 367/1/67 368/2/67 369/3/67
f 370/1/74 369/2/74 368/3/74 371/4/74
f 370/1/74 371/2/74 372/3/74
f 373/1/90 372/2/90 371/3/90 374/4/90
f 373/1/90 374/2/90 375/3/90
f 376/1/97 375/2/97 374/3/97 377/4/97
f 376/1/97 377/2/97 378/3/97
f 379/1/104 378/2/104 377/3/104 380/4/104
f 379/1/104 380/2/104 381/3/104
f 382/1/110 381/2/110 380/3/110 383/4/110
f 382/1/110 383/2/110 384/3/110
f 385/1/118 384/2/118 383/3/118 386/4/118
f 385/1/118 386/2/118 387/3/118
f 388/1/121 387/2/121 386/3/121 389/4/121
f 388/1/121 389/2/121 390/3/121
f 391/1/122 390/2/122 389/3/122 392/4/122
f 391/1/122 392/2/122 393/3/122
f 394/1/117 393/2/117 392/3/117 395/4/117
f 394/1/117 395/2/117 396/3/117
f 397/1/113 396/2/113 395/3/113 398/4/113
f 397/1/113 398/2/113 399/3/113
f 400/1/106 399/2/106 398/3/106 401/4/106
f 400/1/106 401/2/106 402/3/106
f 403/1/99 402/2/99 401/3/99 404/4/99
f 403/1/99 404/2/99 405/3/99
f 406/1/93 405/2/93 404/3/93 407/4/93
f 406/1/93 407/2/93 408/3/93
f 323/1/61 320/2/61 319/3/61
f 319/1/61 409/2/61 407/3/61
f 407/1/61 404/2/61 401/3/61
f 401/1/61 398/2/61 395/3/61
f 395/1/61 392/2/61 389/3/61
f 389/1/61 386/2/61 383/3/61
f 383/1/61 380/2/61 377/3/61
f 377/1/61 374/2/61 371/3/61
f 371/1/61 368/2/61 365/3/61
f 365/1/61 362/2/61 359/3/61
f 359/1/61 356/2/61 353/3/61
f 353/1/61 350/2/61 347/3/61
f 347/1/61 344/2/61 341/3/61
f 341/1/61 338/2/61 335/3/61
f 335/1/61 332/2/61 329/3/61
f 329/1/61 326/2/61 323/3/61
f 323/1/61 319/2/61 407/3/61
f 407/1/61 401/2/61 395/3/61
f 395/1/61 389/2/61 383/3/61
f 383/1/61 377/2/61 371/3/61
f 371/1/61 365/2/61 359/3/61
f 359/1/61 353/2/61 347/3/61
f 347/1/61 341/2/61 335/3/61
f 335/1/61 329/2/61 323/3/61
f 323/1/61 407/2/61 395/3/61
f 395/1/61 383/2/61 371/3/61
f 371/1/61 359/2/61 347/3/61
f 347/1/61 335/2/61 323/3/61
f 323/1/61 395/2/61 371/3/61
f 371/1/61 347/2/61 323/3/61
f 410/1/73 408/2/73 407/3/73 409/4/73
f 410/1/73 409/2/73 411/3/73
f 412/1/68 411/2/68 409/3/68 319/4/68
f 412/1/68 319/2/68 318/3/68
