# Generated by tools-import-turbines.py; estimated STEP scale.
mtllib materials.mtl
s off
v 0.500000100 0.089999700 0.240000000
v 0.500000100 0.230000000 0.240000000
v 0.355633300 0.230000000 0.225781200
v 0.355633300 0.089999700 0.225781200
v 0.216814400 0.230000000 0.183670800
v 0.216814400 0.089999700 0.183670800
v 0.088878200 0.230000000 0.115287500
v 0.088878200 0.089999700 0.115287500
v 0.000000000 0.200961760 0.042347301
v 0.000000000 0.230000000 0.042347301
v 0.000000000 0.089999700 0.042347301
v 1.000000000 0.119038216 0.042347203
v 1.000000000 0.230000000 0.042347203
v 0.911122100 0.230000000 0.115287300
v 1.000000000 0.089999700 0.042347203
v 0.911122100 0.089999700 0.115287300
v 0.783185800 0.230000000 0.183670800
v 0.783185800 0.089999700 0.183670800
v 0.644367000 0.230000000 0.225781000
v 1.000000000 0.230000000 0.038800199
v 0.000000000 0.230000000 0.038800336
v 1.000000000 0.230000000 0.000000000
v 0.966856508 0.230000000 0.000000000
v 0.033143508 0.230000000 0.000000000
v 0.000000000 0.230000000 0.000000000
v 0.660234752 0.230000000 0.000000000
v 0.140735413 0.230000000 0.000000000
v 0.292893299 0.230000000 0.000000000
v 0.644367000 0.089999700 0.225781000
v 0.000000000 0.089999700 0.026409387
v 1.000000000 0.089999700 0.026409356
v 0.000000000 0.089999700 0.000000000
v 0.011845486 0.089999700 0.000000000
v 0.982271951 0.089999700 0.000000000
v 1.000000000 0.089999700 0.000000000
v 0.306461638 0.089999700 0.000000000
v 0.795228962 0.089999700 0.000000000
v 0.599456313 0.089999700 0.000000000
v 0.965468289 1.000000000 0.041967720
v 0.944476181 0.786129420 0.000000000
v 0.888371475 0.611120899 0.000000000
v 0.939063521 1.000000000 0.065262278
v 1.000000000 1.000000000 0.011503584
v 1.000000000 0.959325582 0.000000000
v 1.000000000 0.354468131 0.015262663
v 0.993251873 0.279452796 0.000000000
v 1.000000000 0.300502390 0.000000000
v 0.974192311 0.220000000 0.000000000
v 1.000000000 0.808645418 0.143713563
v 0.923267600 0.220000000 0.044926200
v 0.913373743 0.220000000 0.000000000
v 0.888371471 0.220000000 0.000000000
v 0.894266802 1.000000000 0.095771200
v 0.860517729 0.537193019 0.000000000
v 0.796595660 0.367534070 0.000000000
v 0.865163825 1.000000000 0.115591931
v 1.000000000 1.000000000 0.192815144
v 0.973100584 1.000000000 0.211135143
v 0.936589574 1.000000000 0.236001180
v 0.852026600 0.220000000 0.093445300
v 0.843427465 0.220000000 0.000000000
v 0.796595653 0.220000000 0.000000000
v 0.899983905 1.000000000 0.174291469
v 0.796595660 0.324503259 0.000000000
v 0.090039504 1.000000000 0.085083010
v 0.188268931 0.407705686 0.000000000
v 0.111628550 0.611120899 0.000000000
v 0.060936527 1.000000000 0.065262278
v 0.134836175 1.000000000 0.115591931
v 0.203404340 0.367534070 0.000000000
v 0.011567138 1.000000000 0.200693015
v 0.147973400 0.220000000 0.093445300
v 0.063410475 1.000000000 0.236001180
v 0.000000000 1.000000000 0.192815149
v 0.000000000 0.808645418 0.143713563
v 0.076732400 0.220000000 0.044926200
v 0.165888942 0.220000000 0.000000000
v 0.203404347 0.220000000 0.000000000
v 0.111628529 0.220000000 0.000000000
v 0.000000000 1.000000000 0.011503515
v 0.020293114 1.000000000 0.029406310
v 0.064325994 0.758672550 0.000000000
v 0.000000092 0.959325582 0.000000000
v 0.000000000 0.959326197 0.000000092
v 0.000000000 0.622461454 0.091056762
v 0.025807689 0.220000000 0.000000000
v 0.000000000 0.300502375 0.000000000
v 0.100016144 1.000000000 0.174291469
v 0.203404346 0.324503259 0.000000000
v 0.376443018 0.000000000 0.437830672
v 0.500000100 0.000000000 0.450000000
v 0.500000100 0.040000000 0.450000000
v 0.314664400 0.040000000 0.431746000
v 0.314664400 0.000000000 0.431746000
v 0.195855450 0.000000000 0.395705682
v 0.136450900 0.040000000 0.377685500
v 0.136450900 0.000000000 0.377685500
v 0.000000000 0.019694724 0.304751095
v 0.026955946 0.000000000 0.319159324
v 0.000000000 0.040000000 0.304751095
v 0.000000000 0.000000000 0.304751095
v 0.918297046 0.000000000 0.348422309
v 1.000000000 0.000000000 0.304751143
v 1.000000000 0.040000000 0.304751143
v 0.863549500 0.040000000 0.377685500
v 0.863549500 0.000000000 0.377685500
v 0.685336000 0.040000000 0.431746000
v 1.000000000 0.040000000 0.286512099
v 0.000000000 0.040000000 0.286511979
v 1.000000000 0.040000000 0.241234894
v 0.000000000 0.040000000 0.241234706
v 1.000000000 0.040000000 0.019991616
v 0.000000000 0.040000000 0.048264075
v 0.292893288 0.040000000 0.000000000
v 1.000000000 0.040000000 0.000000000
v 0.000000000 0.040000000 0.000000000
v 0.744740550 0.000000000 0.413725818
v 0.685336000 0.000000000 0.431746000
v 0.561778785 0.000000000 0.443915328
v 0.821454000 0.045000100 0.328059000
v 0.821454000 0.119999900 0.328059000
v 0.776420700 0.119999900 0.302058900
v 0.776420700 0.045000100 0.302058900
v 0.776420700 0.119999900 0.250058900
v 0.776420700 0.045000100 0.250058900
v 0.821454000 0.119999900 0.224058900
v 0.821454000 0.045000100 0.224058900
v 0.866487400 0.119999900 0.250058900
v 0.866487400 0.045000100 0.250058900
v 0.866487400 0.119999900 0.302058900
v 0.866487400 0.045000100 0.302058900
v 0.500000000 0.045000100 0.392000000
v 0.500000000 0.119999900 0.392000000
v 0.454966700 0.119999900 0.365999900
v 0.454966700 0.045000100 0.365999900
v 0.454966700 0.119999900 0.313999900
v 0.454966700 0.045000100 0.313999900
v 0.500000000 0.119999900 0.287999900
v 0.500000000 0.045000100 0.287999900
v 0.545033300 0.119999900 0.313999900
v 0.545033300 0.045000100 0.313999900
v 0.545033300 0.119999900 0.365999900
v 0.545033300 0.045000100 0.365999900
v 0.178546000 0.045000100 0.328059000
v 0.178546000 0.119999900 0.328059000
v 0.133512600 0.119999900 0.302058900
v 0.133512600 0.045000100 0.302058900
v 0.133512600 0.119999900 0.250058900
v 0.133512600 0.045000100 0.250058900
v 0.178546000 0.119999900 0.224058900
v 0.178546000 0.045000100 0.224058900
v 0.223579300 0.119999900 0.250058900
v 0.223579300 0.045000100 0.250058900
v 0.223579300 0.119999900 0.302058900
v 0.223579300 0.045000100 0.302058900
v 0.820000100 0.235000100 0.106256200
v 0.820000100 0.309999900 0.106256200
v 0.774966700 0.309999900 0.080256200
v 0.774966700 0.235000100 0.080256200
v 0.774966700 0.309999900 0.028256200
v 0.774966700 0.235000100 0.028256200
v 0.820000100 0.309999900 0.002256200
v 0.820000100 0.235000100 0.002256200
v 0.865033400 0.309999900 0.028256200
v 0.865033400 0.235000100 0.028256200
v 0.865033400 0.309999900 0.080256200
v 0.865033400 0.235000100 0.080256200
v 0.500000000 0.235000100 0.192000200
v 0.500000000 0.309999900 0.192000200
v 0.454966700 0.309999900 0.166000100
v 0.454966700 0.235000100 0.166000100
v 0.454966700 0.309999900 0.114000100
v 0.454966700 0.235000100 0.114000100
v 0.500000000 0.309999900 0.088000100
v 0.500000000 0.235000100 0.088000100
v 0.545033300 0.309999900 0.114000100
v 0.545033300 0.235000100 0.114000100
v 0.545033300 0.309999900 0.166000100
v 0.545033300 0.235000100 0.166000100
v 0.179999900 0.235000100 0.106256200
v 0.179999900 0.309999900 0.106256200
v 0.134966600 0.309999900 0.080256200
v 0.134966600 0.235000100 0.080256200
v 0.134966600 0.309999900 0.028256200
v 0.134966600 0.235000100 0.028256200
v 0.179999900 0.309999900 0.002256200
v 0.179999900 0.235000100 0.002256200
v 0.225033300 0.309999900 0.028256200
v 0.225033300 0.235000100 0.028256200
v 0.225033300 0.309999900 0.080256200
v 0.225033300 0.235000100 0.080256200
vt 0 0
vt 1 0
vt 1 1
vt 0 1
vn -1.000000000 0.000000000 0.000000000
vn -0.860065581 0.000000060 0.510183492
vn -0.860065454 -0.000000015 0.510183707
vn -0.647166859 -0.207470442 0.733574177
vn -0.647166777 0.207470482 -0.733574238
vn -0.647165928 -0.207470361 0.733575021
vn -0.647165604 0.207470565 -0.733575249
vn -0.634391959 0.000000000 0.773011541
vn -0.550658497 -0.207470458 0.808536473
vn -0.550658099 0.207470373 -0.808536766
vn -0.550658039 -0.207470422 0.808536794
vn -0.550656699 0.207470463 -0.808537697
vn -0.500001617 0.000000000 0.866024470
vn -0.500001617 0.000000000 0.866024470
vn -0.500001617 0.000000000 0.866024470
vn -0.500000784 0.000000000 0.866024951
vn -0.500000175 0.000000000 -0.866025303
vn -0.500000175 0.000000000 -0.866025303
vn -0.500000175 0.000000000 0.866025303
vn -0.499999342 0.000000000 -0.866025784
vn -0.499999342 0.000000000 -0.866025784
vn -0.499999342 0.000000000 0.866025784
vn -0.471396610 0.000000000 0.881921332
vn -0.471396130 0.000000000 0.881921589
vn -0.290285606 0.000000000 0.956940054
vn -0.290284804 0.000000000 0.956940297
vn -0.098017283 0.000000000 0.995184713
vn -0.098016535 0.000000000 0.995184786
vn 0.000000000 -1.000000000 0.000000000
vn 0.000000000 1.000000000 0.000000000
vn 0.098017178 0.000000000 0.995184723
vn 0.098017833 0.000000000 0.995184658
vn 0.290284535 0.000000000 0.956940379
vn 0.290284804 0.000000000 0.956940297
vn 0.471396965 0.000000000 0.881921142
vn 0.471397396 0.000000000 0.881920912
vn 0.499999342 0.000000000 0.866025784
vn 0.499999342 0.000000000 -0.866025784
vn 0.499999342 0.000000000 -0.866025784
vn 0.500000175 0.000000000 0.866025303
vn 0.500000175 0.000000000 -0.866025303
vn 0.500000175 0.000000000 -0.866025303
vn 0.500000784 0.000000000 0.866024951
vn 0.500001617 0.000000000 0.866024470
vn 0.500001617 0.000000000 0.866024470
vn 0.500001617 0.000000000 0.866024470
vn 0.550657117 0.207470388 -0.808537431
vn 0.550658090 0.207470451 -0.808536752
vn 0.550658389 -0.207470456 0.808536547
vn 0.550658498 -0.207470448 0.808536475
vn 0.634392709 0.000000000 0.773010925
vn 0.647165914 -0.207470458 0.733575005
vn 0.647166056 0.207470455 -0.733574881
vn 0.647166773 0.207470507 -0.733574233
vn 0.647167250 -0.207470345 0.733573859
vn 0.860065581 0.000000006 0.510183492
vn 0.860065767 0.000000115 0.510183179
vn 1.000000000 0.000000000 0.000000000
usemtl dvss_4
f 1/1/28 2/2/28 3/3/28
f 1/1/28 3/2/28 4/3/28
f 4/1/25 3/2/25 5/3/25
f 4/1/25 5/2/25 6/3/25
f 6/1/23 5/2/23 7/3/23
f 6/1/23 7/2/23 8/3/23
f 9/1/8 8/2/8 7/3/8 10/4/8
f 11/1/8 8/2/8 9/3/8
f 12/1/51 13/2/51 14/3/51
f 15/1/51 12/2/51 14/3/51 16/4/51
f 16/1/36 14/2/36 17/3/36
f 16/1/36 17/2/36 18/3/36
f 5/1/30 3/2/30 2/3/30
f 2/1/30 19/2/30 17/3/30
f 20/1/30 17/2/30 14/3/30 13/4/30
f 21/1/30 10/2/30 7/3/30 5/4/30
f 5/1/30 2/2/30 17/3/30
f 22/1/30 23/2/30 17/3/30 20/4/30
f 24/1/30 25/2/30 21/3/30 5/4/30
f 26/1/30 5/2/30 17/3/30 23/4/30
f 27/1/30 24/2/30 5/3/30
f 28/1/30 5/2/30 26/3/30
f 28/1/30 27/2/30 5/3/30
f 18/1/33 17/2/33 19/3/33
f 18/1/33 19/2/33 29/3/33
f 29/1/32 19/2/32 2/3/32
f 29/1/32 2/2/32 1/3/32
f 29/1/29 1/2/29 4/3/29
f 4/1/29 6/2/29 8/3/29
f 30/1/29 8/2/29 11/3/29
f 31/1/29 15/2/29 16/3/29
f 16/1/29 18/2/29 29/3/29
f 29/1/29 4/2/29 8/3/29
f 32/1/29 33/2/29 8/3/29 30/4/29
f 34/1/29 35/2/29 31/3/29
f 34/1/29 31/2/29 16/3/29
f 34/1/29 16/2/29 29/3/29
f 36/1/29 29/2/29 8/3/29 33/4/29
f 37/1/29 34/2/29 29/3/29
f 38/1/29 29/2/29 36/3/29
f 38/1/29 37/2/29 29/3/29
f 39/1/5 40/2/5 41/3/5 42/4/5
f 43/1/7 44/2/7 40/3/7 39/4/7
f 45/1/55 46/2/55 47/3/55
f 48/1/52 46/2/52 45/3/52
f 48/1/52 45/2/52 49/3/52
f 48/1/52 49/2/52 50/3/52
f 51/1/29 48/2/29 50/3/29
f 51/1/29 50/2/29 52/3/29
f 53/1/10 54/2/10 55/3/10 56/4/10
f 42/1/12 41/2/12 54/3/12 53/4/12
f 57/1/49 58/2/49 50/3/49 49/4/49
f 50/1/50 58/2/50 59/3/50 60/4/50
f 61/1/29 52/2/29 50/3/29 60/4/29
f 61/1/29 60/2/29 62/3/29
f 63/1/2 64/2/2 62/3/2
f 63/1/2 62/2/2 60/3/2
f 63/1/2 60/2/2 59/3/2
f 56/1/3 55/2/3 64/3/3 63/4/3
f 65/1/48 66/2/48 67/3/48 68/4/48
f 69/1/47 70/2/47 66/3/47 65/4/47
f 71/1/11 72/2/11 73/3/11
f 72/1/9 71/2/9 74/3/9
f 72/1/9 74/2/9 75/3/9
f 72/1/9 75/2/9 76/3/9
f 77/1/29 78/2/29 72/3/29 76/4/29
f 77/1/29 76/2/29 79/3/29
f 80/1/54 81/2/54 82/3/54
f 80/1/54 82/2/54 83/3/54
f 80/1/54 83/2/54 84/3/54
f 68/1/53 67/2/53 82/3/53 81/4/53
f 85/1/4 76/2/4 75/3/4
f 86/1/6 76/2/6 85/3/6 87/4/6
f 79/1/29 76/2/29 86/3/29
f 88/1/57 89/2/57 70/3/57 69/4/57
f 78/1/56 89/2/56 88/3/56
f 78/1/56 88/2/56 73/3/56
f 78/1/56 73/2/56 72/3/56
usemtl dvss_5
f 90/1/27 91/2/27 92/3/27 93/4/27
f 90/1/27 93/2/27 94/3/27
f 95/1/26 94/2/26 93/3/26 96/4/26
f 95/1/26 96/2/26 97/3/26
f 98/1/24 99/2/24 97/3/24
f 98/1/24 97/2/24 96/3/24
f 98/1/24 96/2/24 100/3/24
f 101/1/24 99/2/24 98/3/24
f 102/1/35 103/2/35 104/3/35 105/4/35
f 102/1/35 105/2/35 106/3/35
f 96/1/30 93/2/30 92/3/30
f 92/1/30 107/2/30 105/3/30
f 108/1/30 105/2/30 104/3/30
f 109/1/30 100/2/30 96/3/30
f 96/1/30 92/2/30 105/3/30
f 110/1/30 105/2/30 108/3/30
f 111/1/30 109/2/30 96/3/30
f 112/1/30 96/2/30 105/3/30 110/4/30
f 113/1/30 111/2/30 96/3/30
f 114/1/30 96/2/30 112/3/30 115/4/30
f 114/1/30 116/2/30 113/3/30 96/4/30
f 117/1/34 106/2/34 105/3/34 107/4/34
f 117/1/34 107/2/34 118/3/34
f 119/1/31 118/2/31 107/3/31 92/4/31
f 119/1/31 92/2/31 91/3/31
f 120/1/14 121/2/14 122/3/14
f 120/1/14 122/2/14 123/3/14
f 123/1/1 122/2/1 124/3/1
f 123/1/1 124/2/1 125/3/1
f 125/1/18 124/2/18 126/3/18
f 125/1/18 126/2/18 127/3/18
f 127/1/38 126/2/38 128/3/38
f 127/1/38 128/2/38 129/3/38
f 124/1/30 122/2/30 121/3/30
f 121/1/30 130/2/30 128/3/30
f 128/1/30 126/2/30 124/3/30
f 121/1/30 128/2/30 124/3/30
f 129/1/58 128/2/58 130/3/58
f 129/1/58 130/2/58 131/3/58
f 131/1/43 130/2/43 121/3/43
f 131/1/43 121/2/43 120/3/43
f 131/1/29 120/2/29 123/3/29
f 123/1/29 125/2/29 127/3/29
f 127/1/29 129/2/29 131/3/29
f 123/1/29 127/2/29 131/3/29
f 132/1/13 133/2/13 134/3/13
f 132/1/13 134/2/13 135/3/13
f 135/1/1 134/2/1 136/3/1
f 135/1/1 136/2/1 137/3/1
f 137/1/18 136/2/18 138/3/18
f 137/1/18 138/2/18 139/3/18
f 139/1/41 138/2/41 140/3/41
f 139/1/41 140/2/41 141/3/41
f 136/1/30 134/2/30 133/3/30
f 133/1/30 142/2/30 140/3/30
f 140/1/30 138/2/30 136/3/30
f 133/1/30 140/2/30 136/3/30
f 141/1/58 140/2/58 142/3/58
f 141/1/58 142/2/58 143/3/58
f 143/1/46 142/2/46 133/3/46
f 143/1/46 133/2/46 132/3/46
f 143/1/29 132/2/29 135/3/29
f 135/1/29 137/2/29 139/3/29
f 139/1/29 141/2/29 143/3/29
f 135/1/29 139/2/29 143/3/29
f 144/1/16 145/2/16 146/3/16
f 144/1/16 146/2/16 147/3/16
f 147/1/1 146/2/1 148/3/1
f 147/1/1 148/2/1 149/3/1
f 149/1/21 148/2/21 150/3/21
f 149/1/21 150/2/21 151/3/21
f 151/1/41 150/2/41 152/3/41
f 151/1/41 152/2/41 153/3/41
f 148/1/30 146/2/30 145/3/30
f 145/1/30 154/2/30 152/3/30
f 152/1/30 150/2/30 148/3/30
f 145/1/30 152/2/30 148/3/30
f 153/1/58 152/2/58 154/3/58
f 153/1/58 154/2/58 155/3/58
f 155/1/45 154/2/45 145/3/45
f 155/1/45 145/2/45 144/3/45
f 155/1/29 144/2/29 147/3/29
f 147/1/29 149/2/29 151/3/29
f 151/1/29 153/2/29 155/3/29
f 147/1/29 151/2/29 155/3/29
f 156/1/22 157/2/22 158/3/22
f 156/1/22 158/2/22 159/3/22
f 159/1/1 158/2/1 160/3/1
f 159/1/1 160/2/1 161/3/1
f 161/1/20 160/2/20 162/3/20
f 161/1/20 162/2/20 163/3/20
f 163/1/42 162/2/42 164/3/42
f 163/1/42 164/2/42 165/3/42
f 160/1/30 158/2/30 157/3/30
f 157/1/30 166/2/30 164/3/30
f 164/1/30 162/2/30 160/3/30
f 157/1/30 164/2/30 160/3/30
f 165/1/58 164/2/58 166/3/58
f 165/1/58 166/2/58 167/3/58
f 167/1/40 166/2/40 157/3/40
f 167/1/40 157/2/40 156/3/40
f 167/1/29 156/2/29 159/3/29
f 159/1/29 161/2/29 163/3/29
f 163/1/29 165/2/29 167/3/29
f 159/1/29 163/2/29 167/3/29
f 168/1/15 169/2/15 170/3/15
f 168/1/15 170/2/15 171/3/15
f 171/1/1 170/2/1 172/3/1
f 171/1/1 172/2/1 173/3/1
f 173/1/17 172/2/17 174/3/17
f 173/1/17 174/2/17 175/3/17
f 175/1/42 174/2/42 176/3/42
f 175/1/42 176/2/42 177/3/42
f 172/1/30 170/2/30 169/3/30
f 169/1/30 178/2/30 176/3/30
f 176/1/30 174/2/30 172/3/30
f 169/1/30 176/2/30 172/3/30
f 177/1/58 176/2/58 178/3/58
f 177/1/58 178/2/58 179/3/58
f 179/1/44 178/2/44 169/3/44
f 179/1/44 169/2/44 168/3/44
f 179/1/29 168/2/29 171/3/29
f 171/1/29 173/2/29 175/3/29
f 175/1/29 177/2/29 179/3/29
f 171/1/29 175/2/29 179/3/29
f 180/1/19 181/2/19 182/3/19
f 180/1/19 182/2/19 183/3/19
f 183/1/1 182/2/1 184/3/1
f 183/1/1 184/2/1 185/3/1
f 185/1/17 184/2/17 186/3/17
f 185/1/17 186/2/17 187/3/17
f 187/1/39 186/2/39 188/3/39
f 187/1/39 188/2/39 189/3/39
f 184/1/30 182/2/30 181/3/30
f 181/1/30 190/2/30 188/3/30
f 188/1/30 186/2/30 184/3/30
f 181/1/30 188/2/30 184/3/30
f 189/1/58 188/2/58 190/3/58
f 189/1/58 190/2/58 191/3/58
f 191/1/37 190/2/37 181/3/37
f 191/1/37 181/2/37 180/3/37
f 191/1/29 180/2/29 183/3/29
f 183/1/29 185/2/29 187/3/29
f 187/1/29 189/2/29 191/3/29
f 183/1/29 187/2/29 191/3/29
