# Generated by tools-import-turbines.py; estimated STEP scale.
mtllib materials.mtl
s off
v 0.887575601 1.000000000 0.162465823
v 0.868594500 0.355000000 0.173424500
v 0.868594500 1.000000000 0.173424500
v 0.898905400 1.000000000 0.155924600
v 0.898905400 0.355000000 0.155924600
v 0.925519483 1.000000000 0.202021569
v 0.941405400 1.000000000 0.229536800
v 0.941405400 0.355000000 0.229536800
v 0.922424299 1.000000000 0.240495477
v 0.911094500 1.000000000 0.247036700
v 0.911094500 0.355000000 0.247036700
v 0.884480417 1.000000000 0.200939731
v 0.702910558 1.000000000 0.240204743
v 0.681739900 0.355000000 0.245877300
v 0.681739900 1.000000000 0.245877300
v 0.715547300 1.000000000 0.236818800
v 0.715547300 0.355000000 0.236818800
v 0.729323814 1.000000000 0.288233263
v 0.737547000 1.000000000 0.318922500
v 0.737547000 0.355000000 0.318922500
v 0.716376342 1.000000000 0.324595057
v 0.703739600 1.000000000 0.327981000
v 0.703739600 0.355000000 0.327981000
v 0.689963086 1.000000000 0.276566537
v 0.504417480 1.000000000 0.267499900
v 0.482500000 0.355000000 0.267499900
v 0.482500000 1.000000000 0.267499900
v 0.517500000 1.000000000 0.267499900
v 0.517500000 0.355000000 0.267499900
v 0.517500000 1.000000000 0.320728128
v 0.517500000 1.000000000 0.352500000
v 0.517500000 0.355000000 0.352500000
v 0.495582520 1.000000000 0.352500000
v 0.482500000 1.000000000 0.352500000
v 0.482500000 0.355000000 0.352500000
v 0.482500000 1.000000000 0.299271772
v 0.305623358 1.000000000 0.242491357
v 0.284452700 0.355000000 0.236818800
v 0.284452700 1.000000000 0.236818800
v 0.318260100 1.000000000 0.245877300
v 0.318260100 0.355000000 0.245877300
v 0.304483586 1.000000000 0.297291763
v 0.296260400 1.000000000 0.327981000
v 0.296260400 0.355000000 0.327981000
v 0.275089742 1.000000000 0.322308443
v 0.262453000 1.000000000 0.318922500
v 0.262453000 0.355000000 0.318922500
v 0.276229514 1.000000000 0.267508037
v 0.120075701 1.000000000 0.166883277
v 0.101094600 0.355000000 0.155924600
v 0.101094600 1.000000000 0.155924600
v 0.131405500 1.000000000 0.173424500
v 0.131405500 0.355000000 0.173424500
v 0.104791417 1.000000000 0.219521469
v 0.088905500 1.000000000 0.247036700
v 0.088905500 0.355000000 0.247036700
v 0.069924399 1.000000000 0.236078023
v 0.058594600 1.000000000 0.229536800
v 0.058594600 0.355000000 0.229536800
v 0.085208683 1.000000000 0.183439831
v 0.500000100 0.105000000 0.329999900
v 0.500000100 0.355000000 0.329999900
v 0.338075200 0.355000000 0.314051900
v 0.338075200 0.105000000 0.314051900
v 0.182372800 0.355000000 0.266820000
v 0.182372800 0.105000000 0.266820000
v 0.038876800 0.355000000 0.190119700
v 0.038876800 0.105000000 0.190119700
v 0.000000000 0.182274252 0.158214428
v 0.000000000 0.355000000 0.158214428
v 0.000000000 0.105000000 0.158214428
v 1.000000000 0.277726008 0.158214474
v 1.000000000 0.355000000 0.158214474
v 0.961123300 0.355000000 0.190119700
v 1.000000000 0.105000000 0.158214474
v 0.961123300 0.105000000 0.190119700
v 0.817627300 0.355000000 0.266820000
v 0.817627300 0.105000000 0.266820000
v 0.661925100 0.355000000 0.314051600
v 1.000000000 0.355000000 0.144962501
v 0.000000000 0.355000000 0.144962525
v 1.000000000 0.355000000 0.084447259
v 0.000000000 0.355000000 0.084447200
v 1.000000000 0.355000000 0.000000000
v 0.826533174 0.355000000 0.000000000
v 0.071852322 0.355000000 0.000000000
v 0.000000000 0.355000000 0.000000000
v 0.292893247 0.355000000 0.000000000
v 0.661925100 0.105000000 0.314051600
v 0.000000000 0.105000000 0.151242917
v 1.000000000 0.105000000 0.151242983
v 0.000000000 0.105000000 0.131936482
v 1.000000000 0.105000000 0.088157141
v 0.000000000 0.105000000 0.000000000
v 0.191913414 0.105000000 0.000000000
v 0.871767580 0.105000000 0.000000000
v 1.000000000 0.105000000 0.000000000
v 0.599456291 0.105000000 0.000000000
v 0.449173791 0.000000000 0.394994073
v 0.500000100 0.000000000 0.400000100
v 0.500000100 0.135000200 0.400000100
v 0.324418800 0.135000200 0.382706600
v 0.324418800 0.000000000 0.382706600
v 0.275545749 0.000000000 0.367881134
v 0.155585100 0.135000200 0.331491500
v 0.155585100 0.000000000 0.331491500
v 0.000000000 0.134984204 0.248329702
v 0.110543389 0.000000000 0.307416253
v 0.000000000 0.135000200 0.248329702
v 0.000000000 0.000000000 0.248329702
v 0.954971689 0.000000000 0.272397805
v 1.000000000 0.000000000 0.248329662
v 1.000000000 0.135000200 0.248329662
v 0.844415200 0.135000200 0.331491500
v 0.844415200 0.000000000 0.331491500
v 0.675581500 0.135000200 0.382706600
v 1.000000000 0.135000200 0.227532989
v 0.000000000 0.135000200 0.227532949
v 1.000000000 0.135000200 0.175906604
v 0.000000000 0.135000200 0.175906496
v 1.000000000 0.135000200 0.000000000
v 0.955876012 0.135000200 0.000000000
v 0.018276734 0.135000200 0.000000000
v 0.000000000 0.135000200 0.000000000
v 0.292893305 0.135000200 0.000000000
v 0.795542149 0.000000000 0.346316966
v 0.675581500 0.000000000 0.382706600
v 0.624755162 0.000000000 0.387712627
v 0.426581967 1.000000000 0.274221865
v 0.500000100 0.290000000 0.280000000
v 0.500000100 1.000000000 0.280000000
v 0.377981200 1.000000000 0.270396900
v 0.377981200 0.290000000 0.270396900
v 0.306370859 1.000000000 0.253204856
v 0.258966800 1.000000000 0.241824200
v 0.258966800 0.290000000 0.241824200
v 0.190927577 1.000000000 0.213641419
v 0.145887500 1.000000000 0.194985200
v 0.145887500 0.290000000 0.194985200
v 0.083094695 1.000000000 0.156505737
v 0.041527600 1.000000000 0.131033400
v 0.041527600 0.290000000 0.131033400
v 0.000000000 1.000000000 0.095565377
v 0.000000000 0.816508641 0.095565377
v 0.000000000 0.290000000 0.095565377
v 0.995543107 1.000000000 0.099371917
v 1.000000000 0.943493063 0.095565361
v 1.000000000 1.000000000 0.095565361
v 1.000000000 0.290000000 0.095565361
v 0.958472600 1.000000000 0.131033200
v 0.958472600 0.290000000 0.131033200
v 0.895679795 1.000000000 0.169512783
v 0.854112700 1.000000000 0.194985200
v 0.854112700 0.290000000 0.194985200
v 0.786073417 1.000000000 0.223167981
v 0.741033300 1.000000000 0.241824200
v 0.741033300 0.290000000 0.241824200
v 0.669423079 1.000000000 0.259016244
v 0.622019100 1.000000000 0.270396900
v 0.622019100 0.290000000 0.270396900
v 0.548600907 1.000000000 0.276175035
v 0.000000000 0.290000000 0.088991579
v 1.000000000 0.290000000 0.088991617
v 0.000000000 0.290000000 0.049097700
v 1.000000000 0.290000000 0.077805801
v 0.000000000 0.290000000 0.000000000
v 0.091335072 0.290000000 0.000000000
v 0.892415875 0.290000000 0.000000000
v 1.000000000 0.290000000 0.000000000
v 0.484244941 0.290000000 0.000000000
v 0.851011976 0.000000000 0.443535296
v 0.875029800 0.000000000 0.457402000
v 0.875029800 0.034999800 0.457402000
v 0.829996500 0.034999800 0.431402000
v 0.829996500 0.000000000 0.431402000
v 0.829996500 0.000000000 0.403668539
v 0.829996500 0.034999800 0.379401900
v 0.829996500 0.000000000 0.379401900
v 0.854014324 0.000000000 0.365535196
v 0.875029800 0.034999800 0.353401900
v 0.875029800 0.000000000 0.353401900
v 0.899047624 0.000000000 0.367268604
v 0.920063100 0.034999800 0.379401900
v 0.920063100 0.000000000 0.379401900
v 0.920063100 0.034999800 0.431402000
v 0.920063100 0.000000000 0.407135361
v 0.920063100 0.000000000 0.431402000
v 0.896045276 0.000000000 0.445268704
v 0.475982176 0.000000000 0.518133343
v 0.500000000 0.000000000 0.532000100
v 0.500000000 0.034999800 0.532000100
v 0.454966700 0.034999800 0.506000000
v 0.454966700 0.000000000 0.506000000
v 0.454966700 0.000000000 0.478266593
v 0.454966700 0.034999800 0.454000000
v 0.454966700 0.000000000 0.454000000
v 0.478984524 0.000000000 0.440133296
v 0.500000000 0.034999800 0.428000000
v 0.500000000 0.000000000 0.428000000
v 0.524017824 0.000000000 0.441866704
v 0.545033300 0.034999800 0.454000000
v 0.545033300 0.000000000 0.454000000
v 0.545033300 0.034999800 0.506000000
v 0.545033300 0.000000000 0.481733407
v 0.545033300 0.000000000 0.506000000
v 0.521015476 0.000000000 0.519866757
v 0.100952376 0.000000000 0.443535296
v 0.124970200 0.000000000 0.457402000
v 0.124970200 0.034999800 0.457402000
v 0.079936900 0.034999800 0.431402000
v 0.079936900 0.000000000 0.431402000
v 0.079936900 0.000000000 0.403668539
v 0.079936900 0.034999800 0.379401900
v 0.079936900 0.000000000 0.379401900
v 0.103954724 0.000000000 0.365535196
v 0.124970200 0.034999800 0.353401900
v 0.124970200 0.000000000 0.353401900
v 0.148988024 0.000000000 0.367268604
v 0.170003500 0.034999800 0.379401900
v 0.170003500 0.000000000 0.379401900
v 0.170003500 0.034999800 0.431402000
v 0.170003500 0.000000000 0.407135361
v 0.170003500 0.000000000 0.431402000
v 0.145985676 0.000000000 0.445268704
vt 0 0
vt 1 0
vt 1 1
vt 0 1
vn -1.000000000 0.000000000 0.000000000
vn -0.965925591 0.000000000 0.258819922
vn -0.965925591 0.000000000 -0.258819922
vn -0.866025523 0.000000000 0.499999793
vn -0.866025523 0.000000000 -0.499999793
vn -0.649449122 0.000000000 0.760405048
vn -0.634392171 0.000000000 0.773011367
vn -0.522498393 0.000000000 0.852640270
vn -0.500001617 0.000000000 0.866024470
vn -0.500000175 0.000000000 -0.866025303
vn -0.500000175 0.000000000 0.866025303
vn -0.500000175 0.000000000 -0.866025303
vn -0.500000175 0.000000000 0.866025303
vn -0.499997723 0.000000000 0.866026719
vn -0.499997723 0.000000000 -0.866026719
vn -0.471397167 0.000000000 0.881921034
vn -0.471395985 0.000000000 0.881921666
vn -0.382683574 0.000000000 0.923879474
vn -0.290285203 0.000000000 0.956940176
vn -0.290284454 0.000000000 0.956940403
vn -0.258814633 0.000000000 0.965927009
vn -0.258814633 0.000000000 -0.965927009
vn -0.233444364 0.000000000 0.972370161
vn -0.098018551 0.000000000 0.995184588
vn -0.098015858 0.000000000 0.995184853
vn -0.078459131 0.000000000 0.996917331
vn -0.000000000 1.000000000 0.000000000
vn 0.000000000 -1.000000000 0.000000000
vn 0.000000000 0.000000000 -1.000000000
vn 0.000000000 0.000000000 1.000000000
vn 0.000000000 1.000000000 0.000000000
vn 0.000000000 1.000000000 0.000000000
vn 0.078459067 0.000000000 0.996917336
vn 0.098017624 0.000000000 0.995184679
vn 0.098018496 0.000000000 0.995184593
vn 0.233444735 0.000000000 0.972370071
vn 0.258814633 0.000000000 -0.965927009
vn 0.258814633 0.000000000 0.965927009
vn 0.290283856 0.000000000 0.956940585
vn 0.290284454 0.000000000 0.956940403
vn 0.382683285 0.000000000 0.923879593
vn 0.471396866 0.000000000 0.881921195
vn 0.471397167 0.000000000 0.881921034
vn 0.499997723 0.000000000 -0.866026719
vn 0.499997723 0.000000000 0.866026719
vn 0.500000175 0.000000000 -0.866025303
vn 0.500000175 0.000000000 0.866025303
vn 0.500000175 0.000000000 -0.866025303
vn 0.500000175 0.000000000 0.866025303
vn 0.500001617 0.000000000 0.866024470
vn 0.522499581 0.000000000 0.852639542
vn 0.634392604 0.000000000 0.773011012
vn 0.649448984 0.000000000 0.760405166
vn 0.866025523 0.000000000 -0.499999793
vn 0.866025523 0.000000000 0.499999793
vn 0.965925591 0.000000000 0.258819922
vn 0.965925591 0.000000000 -0.258819922
vn 1.000000000 0.000000000 0.000000000
usemtl dvss_2
f 1/1/15 2/2/15 3/3/15
f 2/1/15 1/2/15 4/3/15 5/4/15
f 6/1/54 5/2/54 4/3/54
f 5/1/54 6/2/54 7/3/54 8/4/54
f 9/1/45 8/2/45 7/3/45
f 8/1/45 9/2/45 10/3/45 11/4/45
f 12/1/4 11/2/4 10/3/4
f 11/1/4 12/2/4 3/3/4 2/4/4
f 5/1/28 8/2/28 11/3/28
f 5/1/28 11/2/28 2/3/28
f 13/1/22 14/2/22 15/3/22
f 14/1/22 13/2/22 16/3/22 17/4/22
f 18/1/57 17/2/57 16/3/57
f 17/1/57 18/2/57 19/3/57 20/4/57
f 21/1/38 20/2/38 19/3/38
f 20/1/38 21/2/38 22/3/38 23/4/38
f 24/1/2 23/2/2 22/3/2
f 23/1/2 24/2/2 15/3/2 14/4/2
f 17/1/28 20/2/28 23/3/28
f 17/1/28 23/2/28 14/3/28
f 25/1/29 26/2/29 27/3/29
f 26/1/29 25/2/29 28/3/29 29/4/29
f 30/1/58 29/2/58 28/3/58
f 29/1/58 30/2/58 31/3/58 32/4/58
f 33/1/30 32/2/30 31/3/30
f 32/1/30 33/2/30 34/3/30 35/4/30
f 36/1/1 35/2/1 34/3/1
f 35/1/1 36/2/1 27/3/1 26/4/1
f 29/1/28 32/2/28 35/3/28
f 29/1/28 35/2/28 26/3/28
f 37/1/37 38/2/37 39/3/37
f 38/1/37 37/2/37 40/3/37 41/4/37
f 42/1/56 41/2/56 40/3/56
f 41/1/56 42/2/56 43/3/56 44/4/56
f 45/1/21 44/2/21 43/3/21
f 44/1/21 45/2/21 46/3/21 47/4/21
f 48/1/3 47/2/3 46/3/3
f 47/1/3 48/2/3 39/3/3 38/4/3
f 41/1/28 44/2/28 47/3/28
f 41/1/28 47/2/28 38/3/28
f 49/1/44 50/2/44 51/3/44
f 50/1/44 49/2/44 52/3/44 53/4/44
f 54/1/55 53/2/55 52/3/55
f 53/1/55 54/2/55 55/3/55 56/4/55
f 57/1/14 56/2/14 55/3/14
f 56/1/14 57/2/14 58/3/14 59/4/14
f 60/1/5 59/2/5 58/3/5
f 59/1/5 60/2/5 51/3/5 50/4/5
f 53/1/28 56/2/28 59/3/28
f 53/1/28 59/2/28 50/3/28
f 61/1/25 62/2/25 63/3/25
f 61/1/25 63/2/25 64/3/25
f 64/1/19 63/2/19 65/3/19
f 64/1/19 65/2/19 66/3/19
f 66/1/16 65/2/16 67/3/16
f 66/1/16 67/2/16 68/3/16
f 69/1/7 68/2/7 67/3/7 70/4/7
f 71/1/7 68/2/7 69/3/7
f 72/1/52 73/2/52 74/3/52
f 75/1/52 72/2/52 74/3/52 76/4/52
f 76/1/43 74/2/43 77/3/43
f 76/1/43 77/2/43 78/3/43
f 65/1/31 63/2/31 62/3/31
f 62/1/31 79/2/31 77/3/31
f 80/1/31 77/2/31 74/3/31 73/4/31
f 81/1/31 70/2/31 67/3/31 65/4/31
f 65/1/31 62/2/31 77/3/31
f 82/1/31 77/2/31 80/3/31
f 83/1/31 81/2/31 65/3/31
f 84/1/31 85/2/31 65/3/31
f 84/1/31 65/2/31 77/3/31
f 84/1/31 77/2/31 82/3/31
f 86/1/31 87/2/31 83/3/31 65/4/31
f 88/1/27 65/2/27 85/3/27
f 88/1/32 86/2/32 65/3/32
f 78/1/39 77/2/39 79/3/39
f 78/1/39 79/2/39 89/3/39
f 89/1/34 79/2/34 62/3/34
f 89/1/34 62/2/34 61/3/34
f 89/1/28 61/2/28 64/3/28
f 64/1/28 66/2/28 68/3/28
f 90/1/28 68/2/28 71/3/28
f 91/1/28 75/2/28 76/3/28
f 76/1/28 78/2/28 89/3/28
f 89/1/28 64/2/28 68/3/28
f 92/1/28 68/2/28 90/3/28
f 93/1/28 91/2/28 76/3/28 89/4/28
f 94/1/28 95/2/28 89/3/28
f 94/1/28 89/2/28 68/3/28
f 94/1/28 68/2/28 92/3/28
f 96/1/28 97/2/28 93/3/28 89/4/28
f 98/1/28 89/2/28 95/3/28
f 98/1/28 96/2/28 89/3/28
f 99/1/24 100/2/24 101/3/24 102/4/24
f 99/1/24 102/2/24 103/3/24
f 104/1/20 103/2/20 102/3/20 105/4/20
f 104/1/20 105/2/20 106/3/20
f 107/1/17 108/2/17 106/3/17
f 107/1/17 106/2/17 105/3/17
f 107/1/17 105/2/17 109/3/17
f 110/1/17 108/2/17 107/3/17
f 111/1/42 112/2/42 113/3/42 114/4/42
f 111/1/42 114/2/42 115/3/42
f 105/1/31 102/2/31 101/3/31
f 101/1/31 116/2/31 114/3/31
f 117/1/31 114/2/31 113/3/31
f 118/1/31 109/2/31 105/3/31
f 105/1/31 101/2/31 114/3/31
f 119/1/31 114/2/31 117/3/31
f 120/1/31 118/2/31 105/3/31
f 121/1/31 122/2/31 105/3/31
f 121/1/31 105/2/31 114/3/31
f 121/1/31 114/2/31 119/3/31
f 123/1/31 124/2/31 120/3/31 105/4/31
f 125/1/31 105/2/31 122/3/31
f 125/1/31 123/2/31 105/3/31
f 126/1/40 115/2/40 114/3/40 116/4/40
f 126/1/40 116/2/40 127/3/40
f 128/1/35 127/2/35 116/3/35 101/4/35
f 128/1/35 101/2/35 100/3/35
f 129/1/26 130/2/26 131/3/26
f 130/1/26 129/2/26 132/3/26 133/4/26
f 134/1/23 133/2/23 132/3/23
f 133/1/23 134/2/23 135/3/23 136/4/23
f 137/1/18 136/2/18 135/3/18
f 136/1/18 137/2/18 138/3/18 139/4/18
f 140/1/8 139/2/8 138/3/8
f 139/1/8 140/2/8 141/3/8 142/4/8
f 143/1/6 144/2/6 142/3/6 141/4/6
f 145/1/6 142/2/6 144/3/6
f 146/1/53 147/2/53 148/3/53
f 149/1/53 147/2/53 146/3/53
f 149/1/53 146/2/53 150/3/53
f 149/1/53 150/2/53 151/3/53
f 152/1/51 151/2/51 150/3/51
f 151/1/51 152/2/51 153/3/51 154/4/51
f 155/1/41 154/2/41 153/3/41
f 154/1/41 155/2/41 156/3/41 157/4/41
f 158/1/36 157/2/36 156/3/36
f 157/1/36 158/2/36 159/3/36 160/4/36
f 161/1/33 160/2/33 159/3/33
f 160/1/33 161/2/33 131/3/33 130/4/33
f 160/1/28 130/2/28 133/3/28
f 133/1/28 136/2/28 139/3/28
f 162/1/28 139/2/28 142/3/28 145/4/28
f 163/1/28 149/2/28 151/3/28 154/4/28
f 154/1/28 157/2/28 160/3/28
f 160/1/28 133/2/28 139/3/28
f 164/1/28 139/2/28 162/3/28
f 165/1/28 163/2/28 154/3/28 160/4/28
f 166/1/28 167/2/28 160/3/28
f 166/1/28 160/2/28 139/3/28
f 166/1/28 139/2/28 164/3/28
f 168/1/28 169/2/28 165/3/28 160/4/28
f 170/1/28 160/2/28 167/3/28
f 170/1/28 168/2/28 160/3/28
usemtl dvss_5
f 171/1/13 172/2/13 173/3/13 174/4/13
f 171/1/13 174/2/13 175/3/13
f 176/1/1 175/2/1 174/3/1 177/4/1
f 176/1/1 177/2/1 178/3/1
f 179/1/12 178/2/12 177/3/12 180/4/12
f 179/1/12 180/2/12 181/3/12
f 182/1/48 181/2/48 180/3/48 183/4/48
f 182/1/48 183/2/48 184/3/48
f 177/1/31 174/2/31 173/3/31
f 173/1/31 185/2/31 183/3/31
f 183/1/31 180/2/31 177/3/31
f 173/1/31 183/2/31 177/3/31
f 186/1/58 184/2/58 183/3/58 185/4/58
f 186/1/58 185/2/58 187/3/58
f 188/1/49 187/2/49 185/3/49 173/4/49
f 188/1/49 173/2/49 172/3/49
f 189/1/9 190/2/9 191/3/9 192/4/9
f 189/1/9 192/2/9 193/3/9
f 194/1/1 193/2/1 192/3/1 195/4/1
f 194/1/1 195/2/1 196/3/1
f 197/1/12 196/2/12 195/3/12 198/4/12
f 197/1/12 198/2/12 199/3/12
f 200/1/48 199/2/48 198/3/48 201/4/48
f 200/1/48 201/2/48 202/3/48
f 195/1/31 192/2/31 191/3/31
f 191/1/31 203/2/31 201/3/31
f 201/1/31 198/2/31 195/3/31
f 191/1/31 201/2/31 195/3/31
f 204/1/58 202/2/58 201/3/58 203/4/58
f 204/1/58 203/2/58 205/3/58
f 206/1/50 205/2/50 203/3/50 191/4/50
f 206/1/50 191/2/50 190/3/50
f 207/1/11 208/2/11 209/3/11 210/4/11
f 207/1/11 210/2/11 211/3/11
f 212/1/1 211/2/1 210/3/1 213/4/1
f 212/1/1 213/2/1 214/3/1
f 215/1/10 214/2/10 213/3/10 216/4/10
f 215/1/10 216/2/10 217/3/10
f 218/1/46 217/2/46 216/3/46 219/4/46
f 218/1/46 219/2/46 220/3/46
f 213/1/31 210/2/31 209/3/31
f 209/1/31 221/2/31 219/3/31
f 219/1/31 216/2/31 213/3/31
f 209/1/31 219/2/31 213/3/31
f 222/1/58 220/2/58 219/3/58 221/4/58
f 222/1/58 221/2/58 223/3/58
f 224/1/47 223/2/47 221/3/47 209/4/47
f 224/1/47 209/2/47 208/3/47
