# Generated by tools-import-turbines.py; estimated STEP scale.
mtllib materials.mtl
s off
v 0.741500000 0.865500000 0.578000000
v 0.741500000 0.894500300 0.578000000
v 0.741500000 0.894500300 0.566000000
v 0.741500000 0.865500000 0.566000000
v 0.770500100 0.894500300 0.566000000
v 0.770500100 0.865500000 0.566000000
v 0.770500100 0.894500300 0.578000000
v 0.770500100 0.865500000 0.578000000
v 0.709500000 0.865500000 0.578000000
v 0.709500000 0.894500300 0.578000000
v 0.709500000 0.894500300 0.566000000
v 0.709500000 0.865500000 0.566000000
v 0.738500000 0.894500300 0.566000000
v 0.738500000 0.865500000 0.566000000
v 0.738500000 0.894500300 0.578000000
v 0.738500000 0.865500000 0.578000000
v 0.741500000 0.833499900 0.578000000
v 0.741500000 0.862500200 0.578000000
v 0.741500000 0.862500200 0.566000000
v 0.741500000 0.833499900 0.566000000
v 0.770500100 0.862500200 0.566000000
v 0.770500100 0.833499900 0.566000000
v 0.770500100 0.862500200 0.578000000
v 0.770500100 0.833499900 0.578000000
v 0.677500000 0.833499900 0.578000000
v 0.677500000 0.862500200 0.578000000
v 0.677500000 0.862500200 0.566000000
v 0.677500000 0.833499900 0.566000000
v 0.706500100 0.862500200 0.566000000
v 0.706500100 0.833499900 0.566000000
v 0.706500100 0.862500200 0.578000000
v 0.706500100 0.833499900 0.578000000
v 0.741500000 0.801499800 0.578000000
v 0.741500000 0.830500100 0.578000000
v 0.741500000 0.830500100 0.566000000
v 0.741500000 0.801499800 0.566000000
v 0.770500100 0.830500100 0.566000000
v 0.770500100 0.801499800 0.566000000
v 0.770500100 0.830500100 0.578000000
v 0.770500100 0.801499800 0.578000000
v 0.677500000 0.801499800 0.578000000
v 0.677500000 0.830500100 0.578000000
v 0.677500000 0.830500100 0.566000000
v 0.677500000 0.801499800 0.566000000
v 0.706500100 0.830500100 0.566000000
v 0.706500100 0.801499800 0.566000000
v 0.706500100 0.830500100 0.578000000
v 0.706500100 0.801499800 0.578000000
v 0.741500000 0.769499800 0.578000000
v 0.741500000 0.798500100 0.578000000
v 0.741500000 0.798500100 0.566000000
v 0.741500000 0.769499800 0.566000000
v 0.770500100 0.798500100 0.566000000
v 0.770500100 0.769499800 0.566000000
v 0.770500100 0.798500100 0.578000000
v 0.770500100 0.769499800 0.578000000
v 0.677500000 0.769499800 0.578000000
v 0.677500000 0.798500100 0.578000000
v 0.677500000 0.798500100 0.566000000
v 0.677500000 0.769499800 0.566000000
v 0.706500100 0.798500100 0.566000000
v 0.706500100 0.769499800 0.566000000
v 0.706500100 0.798500100 0.578000000
v 0.706500100 0.769499800 0.578000000
v 0.741500000 0.737499700 0.578000000
v 0.741500000 0.766500000 0.578000000
v 0.741500000 0.766500000 0.566000000
v 0.741500000 0.737499700 0.566000000
v 0.770500100 0.766500000 0.566000000
v 0.770500100 0.737499700 0.566000000
v 0.770500100 0.766500000 0.578000000
v 0.770500100 0.737499700 0.578000000
v 0.709500000 0.737499700 0.578000000
v 0.709500000 0.766500000 0.578000000
v 0.709500000 0.766500000 0.566000000
v 0.709500000 0.737499700 0.566000000
v 0.738500000 0.766500000 0.566000000
v 0.738500000 0.737499700 0.566000000
v 0.738500000 0.766500000 0.578000000
v 0.738500000 0.737499700 0.578000000
v 0.471499900 0.865500000 0.578000000
v 0.471499900 0.894500300 0.578000000
v 0.471499900 0.894500300 0.566000000
v 0.471499900 0.865500000 0.566000000
v 0.500500000 0.894500300 0.566000000
v 0.500500000 0.865500000 0.566000000
v 0.500500000 0.894500300 0.578000000
v 0.500500000 0.865500000 0.578000000
v 0.439500000 0.865500000 0.578000000
v 0.439500000 0.894500300 0.578000000
v 0.439500000 0.894500300 0.566000000
v 0.439500000 0.865500000 0.566000000
v 0.468500000 0.894500300 0.566000000
v 0.468500000 0.865500000 0.566000000
v 0.468500000 0.894500300 0.578000000
v 0.468500000 0.865500000 0.578000000
v 0.407500000 0.865500000 0.578000000
v 0.407500000 0.894500300 0.578000000
v 0.407500000 0.894500300 0.566000000
v 0.407500000 0.865500000 0.566000000
v 0.436500100 0.894500300 0.566000000
v 0.436500100 0.865500000 0.566000000
v 0.436500100 0.894500300 0.578000000
v 0.436500100 0.865500000 0.578000000
v 0.471499900 0.833499900 0.578000000
v 0.471499900 0.862500200 0.578000000
v 0.471499900 0.862500200 0.566000000
v 0.471499900 0.833499900 0.566000000
v 0.500500000 0.862500200 0.566000000
v 0.500500000 0.833499900 0.566000000
v 0.500500000 0.862500200 0.578000000
v 0.500500000 0.833499900 0.578000000
v 0.471499900 0.801499800 0.578000000
v 0.471499900 0.830500100 0.578000000
v 0.471499900 0.830500100 0.566000000
v 0.471499900 0.801499800 0.566000000
v 0.500500000 0.830500100 0.566000000
v 0.500500000 0.801499800 0.566000000
v 0.500500000 0.830500100 0.578000000
v 0.500500000 0.801499800 0.578000000
v 0.439500000 0.801499800 0.578000000
v 0.439500000 0.830500100 0.578000000
v 0.439500000 0.830500100 0.566000000
v 0.439500000 0.801499800 0.566000000
v 0.468500000 0.830500100 0.566000000
v 0.468500000 0.801499800 0.566000000
v 0.468500000 0.830500100 0.578000000
v 0.468500000 0.801499800 0.578000000
v 0.407500000 0.801499800 0.578000000
v 0.407500000 0.830500100 0.578000000
v 0.407500000 0.830500100 0.566000000
v 0.407500000 0.801499800 0.566000000
v 0.436500100 0.830500100 0.566000000
v 0.436500100 0.801499800 0.566000000
v 0.436500100 0.830500100 0.578000000
v 0.436500100 0.801499800 0.578000000
v 0.407500000 0.769499800 0.578000000
v 0.407500000 0.798500100 0.578000000
v 0.407500000 0.798500100 0.566000000
v 0.407500000 0.769499800 0.566000000
v 0.436500100 0.798500100 0.566000000
v 0.436500100 0.769499800 0.566000000
v 0.436500100 0.798500100 0.578000000
v 0.436500100 0.769499800 0.578000000
v 0.471499900 0.737499700 0.578000000
v 0.471499900 0.766500000 0.578000000
v 0.471499900 0.766500000 0.566000000
v 0.471499900 0.737499700 0.566000000
v 0.500500000 0.766500000 0.566000000
v 0.500500000 0.737499700 0.566000000
v 0.500500000 0.766500000 0.578000000
v 0.500500000 0.737499700 0.578000000
v 0.439500000 0.737499700 0.578000000
v 0.439500000 0.766500000 0.578000000
v 0.439500000 0.766500000 0.566000000
v 0.439500000 0.737499700 0.566000000
v 0.468500000 0.766500000 0.566000000
v 0.468500000 0.737499700 0.566000000
v 0.468500000 0.766500000 0.578000000
v 0.468500000 0.737499700 0.578000000
v 0.407500000 0.737499700 0.578000000
v 0.407500000 0.766500000 0.578000000
v 0.407500000 0.766500000 0.566000000
v 0.407500000 0.737499700 0.566000000
v 0.436500100 0.766500000 0.566000000
v 0.436500100 0.737499700 0.566000000
v 0.436500100 0.766500000 0.578000000
v 0.436500100 0.737499700 0.578000000
v 0.336499900 0.865500000 0.578000000
v 0.336499900 0.894500300 0.578000000
v 0.336499900 0.894500300 0.566000000
v 0.336499900 0.865500000 0.566000000
v 0.365500000 0.894500300 0.566000000
v 0.365500000 0.865500000 0.566000000
v 0.365500000 0.894500300 0.578000000
v 0.365500000 0.865500000 0.578000000
v 0.304500000 0.865500000 0.578000000
v 0.304500000 0.894500300 0.578000000
v 0.304500000 0.894500300 0.566000000
v 0.304500000 0.865500000 0.566000000
v 0.333500000 0.894500300 0.566000000
v 0.333500000 0.865500000 0.566000000
v 0.333500000 0.894500300 0.578000000
v 0.333500000 0.865500000 0.578000000
v 0.272499900 0.865500000 0.578000000
v 0.272499900 0.894500300 0.578000000
v 0.272499900 0.894500300 0.566000000
v 0.272499900 0.865500000 0.566000000
v 0.301500000 0.894500300 0.566000000
v 0.301500000 0.865500000 0.566000000
v 0.301500000 0.894500300 0.578000000
v 0.301500000 0.865500000 0.578000000
v 0.336499900 0.833499900 0.578000000
v 0.336499900 0.862500200 0.578000000
v 0.336499900 0.862500200 0.566000000
v 0.336499900 0.833499900 0.566000000
v 0.365500000 0.862500200 0.566000000
v 0.365500000 0.833499900 0.566000000
v 0.365500000 0.862500200 0.578000000
v 0.365500000 0.833499900 0.578000000
v 0.336499900 0.801499800 0.578000000
v 0.336499900 0.830500100 0.578000000
v 0.336499900 0.830500100 0.566000000
v 0.336499900 0.801499800 0.566000000
v 0.365500000 0.830500100 0.566000000
v 0.365500000 0.801499800 0.566000000
v 0.365500000 0.830500100 0.578000000
v 0.365500000 0.801499800 0.578000000
v 0.304500000 0.801499800 0.578000000
v 0.304500000 0.830500100 0.578000000
v 0.304500000 0.830500100 0.566000000
v 0.304500000 0.801499800 0.566000000
v 0.333500000 0.830500100 0.566000000
v 0.333500000 0.801499800 0.566000000
v 0.333500000 0.830500100 0.578000000
v 0.333500000 0.801499800 0.578000000
v 0.272499900 0.801499800 0.578000000
v 0.272499900 0.830500100 0.578000000
v 0.272499900 0.830500100 0.566000000
v 0.272499900 0.801499800 0.566000000
v 0.301500000 0.830500100 0.566000000
v 0.301500000 0.801499800 0.566000000
v 0.301500000 0.830500100 0.578000000
v 0.301500000 0.801499800 0.578000000
v 0.272499900 0.769499800 0.578000000
v 0.272499900 0.798500100 0.578000000
v 0.272499900 0.798500100 0.566000000
v 0.272499900 0.769499800 0.566000000
v 0.301500000 0.798500100 0.566000000
v 0.301500000 0.769499800 0.566000000
v 0.301500000 0.798500100 0.578000000
v 0.301500000 0.769499800 0.578000000
v 0.336499900 0.737499700 0.578000000
v 0.336499900 0.766500000 0.578000000
v 0.336499900 0.766500000 0.566000000
v 0.336499900 0.737499700 0.566000000
v 0.365500000 0.766500000 0.566000000
v 0.365500000 0.737499700 0.566000000
v 0.365500000 0.766500000 0.578000000
v 0.365500000 0.737499700 0.578000000
v 0.304500000 0.737499700 0.578000000
v 0.304500000 0.766500000 0.578000000
v 0.304500000 0.766500000 0.566000000
v 0.304500000 0.737499700 0.566000000
v 0.333500000 0.766500000 0.566000000
v 0.333500000 0.737499700 0.566000000
v 0.333500000 0.766500000 0.578000000
v 0.333500000 0.737499700 0.578000000
v 0.272499900 0.737499700 0.578000000
v 0.272499900 0.766500000 0.578000000
v 0.272499900 0.766500000 0.566000000
v 0.272499900 0.737499700 0.566000000
v 0.301500000 0.766500000 0.566000000
v 0.301500000 0.737499700 0.566000000
v 0.301500000 0.766500000 0.578000000
v 0.301500000 0.737499700 0.578000000
v 0.606500000 0.865500000 0.578000000
v 0.606500000 0.894500300 0.578000000
v 0.606500000 0.894500300 0.566000000
v 0.606500000 0.865500000 0.566000000
v 0.635500100 0.894500300 0.566000000
v 0.635500100 0.865500000 0.566000000
v 0.635500100 0.894500300 0.578000000
v 0.635500100 0.865500000 0.578000000
v 0.542500000 0.865500000 0.578000000
v 0.542500000 0.894500300 0.578000000
v 0.542500000 0.894500300 0.566000000
v 0.542500000 0.865500000 0.566000000
v 0.571500100 0.894500300 0.566000000
v 0.571500100 0.865500000 0.566000000
v 0.571500100 0.894500300 0.578000000
v 0.571500100 0.865500000 0.578000000
v 0.606500000 0.833499900 0.578000000
v 0.606500000 0.862500200 0.578000000
v 0.606500000 0.862500200 0.566000000
v 0.606500000 0.833499900 0.566000000
v 0.635500100 0.862500200 0.566000000
v 0.635500100 0.833499900 0.566000000
v 0.635500100 0.862500200 0.578000000
v 0.635500100 0.833499900 0.578000000
v 0.542500000 0.833499900 0.578000000
v 0.542500000 0.862500200 0.578000000
v 0.542500000 0.862500200 0.566000000
v 0.542500000 0.833499900 0.566000000
v 0.571500100 0.862500200 0.566000000
v 0.571500100 0.833499900 0.566000000
v 0.571500100 0.862500200 0.578000000
v 0.571500100 0.833499900 0.578000000
v 0.606500000 0.801499800 0.578000000
v 0.606500000 0.830500100 0.578000000
v 0.606500000 0.830500100 0.566000000
v 0.606500000 0.801499800 0.566000000
v 0.635500100 0.830500100 0.566000000
v 0.635500100 0.801499800 0.566000000
v 0.635500100 0.830500100 0.578000000
v 0.635500100 0.801499800 0.578000000
v 0.542500000 0.801499800 0.578000000
v 0.542500000 0.830500100 0.578000000
v 0.542500000 0.830500100 0.566000000
v 0.542500000 0.801499800 0.566000000
v 0.571500100 0.830500100 0.566000000
v 0.571500100 0.801499800 0.566000000
v 0.571500100 0.830500100 0.578000000
v 0.571500100 0.801499800 0.578000000
v 0.606500000 0.769499800 0.578000000
v 0.606500000 0.798500100 0.578000000
v 0.606500000 0.798500100 0.566000000
v 0.606500000 0.769499800 0.566000000
v 0.635500100 0.798500100 0.566000000
v 0.635500100 0.769499800 0.566000000
v 0.635500100 0.798500100 0.578000000
v 0.635500100 0.769499800 0.578000000
v 0.542500000 0.769499800 0.578000000
v 0.542500000 0.798500100 0.578000000
v 0.542500000 0.798500100 0.566000000
v 0.542500000 0.769499800 0.566000000
v 0.571500100 0.798500100 0.566000000
v 0.571500100 0.769499800 0.566000000
v 0.571500100 0.798500100 0.578000000
v 0.571500100 0.769499800 0.578000000
v 0.574500000 0.737499700 0.578000000
v 0.574500000 0.766500000 0.578000000
v 0.574500000 0.766500000 0.566000000
v 0.574500000 0.737499700 0.566000000
v 0.603500000 0.766500000 0.566000000
v 0.603500000 0.737499700 0.566000000
v 0.603500000 0.766500000 0.578000000
v 0.603500000 0.737499700 0.578000000
v 0.210000000 0.717000000 0.570000100
v 0.210000000 0.717000000 0.581000000
v 0.224722500 0.708499900 0.581000000
v 0.224722500 0.708499900 0.570000100
v 0.224722500 0.691499700 0.581000000
v 0.224722500 0.691499700 0.570000000
v 0.210000000 0.682999600 0.581000000
v 0.210000000 0.682999600 0.570000000
v 0.195277600 0.691499700 0.581000000
v 0.195277600 0.691499700 0.570000000
v 0.195277600 0.708499900 0.581000000
v 0.195277600 0.708499900 0.570000100
v 0.210000000 0.937000300 0.570000100
v 0.210000000 0.937000300 0.581000000
v 0.224722500 0.928500200 0.581000000
v 0.224722500 0.928500200 0.570000100
v 0.224722500 0.911500000 0.581000000
v 0.224722500 0.911500000 0.570000000
v 0.210000000 0.902999900 0.581000000
v 0.210000000 0.902999900 0.570000000
v 0.195277600 0.911500000 0.581000000
v 0.195277600 0.911500000 0.570000000
v 0.195277600 0.928500200 0.581000000
v 0.195277600 0.928500200 0.570000100
v 0.790000000 0.717000000 0.570000100
v 0.790000000 0.717000000 0.581000000
v 0.804722400 0.708499900 0.581000000
v 0.804722400 0.708499900 0.570000100
v 0.804722400 0.691499700 0.581000000
v 0.804722400 0.691499700 0.570000000
v 0.790000000 0.682999600 0.581000000
v 0.790000000 0.682999600 0.570000000
v 0.775277500 0.691499700 0.581000000
v 0.775277500 0.691499700 0.570000000
v 0.775277500 0.708499900 0.581000000
v 0.775277500 0.708499900 0.570000100
v 0.790000000 0.937000300 0.570000100
v 0.790000000 0.937000300 0.581000000
v 0.804722400 0.928500200 0.581000000
v 0.804722400 0.928500200 0.570000100
v 0.804722400 0.911500000 0.581000000
v 0.804722400 0.911500000 0.570000000
v 0.790000000 0.902999900 0.581000000
v 0.790000000 0.902999900 0.570000000
v 0.775277500 0.911500000 0.581000000
v 0.775277500 0.911500000 0.570000000
v 0.775277500 0.928500200 0.581000000
v 0.775277500 0.928500200 0.570000100
v 0.112424399 1.000000000 0.837534240
v 0.131405500 0.355000000 0.826575500
v 0.131405500 1.000000000 0.826575500
v 0.101094600 1.000000000 0.844075500
v 0.101094600 0.355000000 0.844075500
v 0.074480517 1.000000000 0.797978531
v 0.058594600 1.000000000 0.770463300
v 0.058594600 0.355000000 0.770463300
v 0.077575701 1.000000000 0.759504623
v 0.088905500 1.000000000 0.752963400
v 0.088905500 0.355000000 0.752963400
v 0.115519583 1.000000000 0.799060307
v 0.297089442 1.000000000 0.759795282
v 0.318260100 0.355000000 0.754122600
v 0.318260100 1.000000000 0.754122600
v 0.284452700 1.000000000 0.763181300
v 0.284452700 0.355000000 0.763181300
v 0.270676186 1.000000000 0.711766837
v 0.262453000 1.000000000 0.681077600
v 0.262453000 0.355000000 0.681077600
v 0.283623658 1.000000000 0.675404918
v 0.296260400 1.000000000 0.672018900
v 0.296260400 0.355000000 0.672018900
v 0.310036914 1.000000000 0.723433363
v 0.495582520 1.000000000 0.732500000
v 0.517500000 0.355000000 0.732500000
v 0.517500000 1.000000000 0.732500000
v 0.482500000 1.000000000 0.732500000
v 0.482500000 0.355000000 0.732500000
v 0.482500000 1.000000000 0.679271834
v 0.482500000 1.000000000 0.647500000
v 0.482500000 0.355000000 0.647500000
v 0.504417480 1.000000000 0.647500000
v 0.517500000 1.000000000 0.647500000
v 0.517500000 0.355000000 0.647500000
v 0.517500000 1.000000000 0.700728166
v 0.694376642 1.000000000 0.757508618
v 0.715547300 0.355000000 0.763181300
v 0.715547300 1.000000000 0.763181300
v 0.681739900 1.000000000 0.754122600
v 0.681739900 0.355000000 0.754122600
v 0.695516414 1.000000000 0.702708137
v 0.703739600 1.000000000 0.672018900
v 0.703739600 0.355000000 0.672018900
v 0.724910258 1.000000000 0.677691582
v 0.737547000 1.000000000 0.681077600
v 0.737547000 0.355000000 0.681077600
v 0.723770486 1.000000000 0.732492063
v 0.879924299 1.000000000 0.833116760
v 0.898905400 0.355000000 0.844075500
v 0.898905400 1.000000000 0.844075500
v 0.868594500 1.000000000 0.826575500
v 0.868594500 0.355000000 0.826575500
v 0.895208583 1.000000000 0.780478593
v 0.911094500 1.000000000 0.752963400
v 0.911094500 0.355000000 0.752963400
v 0.930075601 1.000000000 0.763922077
v 0.941405400 1.000000000 0.770463300
v 0.941405400 0.355000000 0.770463300
v 0.914791317 1.000000000 0.816560269
v 0.000000000 0.277725946 0.841785551
v 0.000000000 0.355000000 0.841785551
v 0.038876700 0.355000000 0.809880300
v 0.000000000 0.105000000 0.841785551
v 0.038876700 0.105000000 0.809880300
v 0.182372700 0.355000000 0.733180100
v 0.182372700 0.105000000 0.733180100
v 0.338074900 0.355000000 0.685948300
v 0.338074900 0.105000000 0.685948300
v 0.499999900 0.355000000 0.670000000
v 0.499999900 0.105000000 0.670000000
v 0.661924800 0.355000000 0.685948300
v 0.661924800 0.105000000 0.685948300
v 0.817627200 0.355000000 0.733180000
v 0.817627200 0.105000000 0.733180000
v 0.961123200 0.355000000 0.809880200
v 0.961123200 0.105000000 0.809880200
v 1.000000000 0.182274252 0.841785533
v 1.000000000 0.355000000 0.841785533
v 1.000000000 0.105000000 0.841785533
v 1.000000000 0.355000000 0.855037543
v 0.000000000 0.355000000 0.855037576
v 1.000000000 0.355000000 0.915552759
v 0.000000000 0.355000000 0.915552800
v 0.928147678 0.355000000 1.000000000
v 1.000000000 0.355000000 1.000000000
v 0.000000000 0.355000000 1.000000000
v 0.173466826 0.355000000 1.000000000
v 0.707106753 0.355000000 1.000000000
v 0.000000000 0.105000000 0.848757000
v 1.000000000 0.105000000 0.848757000
v 0.000000000 0.105000000 0.911842780
v 1.000000000 0.105000000 0.868063445
v 0.128232343 0.105000000 1.000000000
v 0.000000000 0.105000000 1.000000000
v 1.000000000 0.105000000 1.000000000
v 0.808086615 0.105000000 1.000000000
v 0.400543729 0.105000000 1.000000000
v 0.045028311 0.000000000 0.727602195
v 0.000000000 0.000000000 0.751670338
v 0.000000000 0.135000200 0.751670338
v 0.155584800 0.135000200 0.668508500
v 0.155584800 0.000000000 0.668508500
v 0.204457851 0.000000000 0.653683006
v 0.324418500 0.135000200 0.617293300
v 0.324418500 0.000000000 0.617293300
v 0.375244838 0.000000000 0.612287331
v 0.499999900 0.135000200 0.600000000
v 0.499999900 0.000000000 0.600000000
v 0.550826209 0.000000000 0.605005969
v 0.675581200 0.135000200 0.617293300
v 0.675581200 0.000000000 0.617293300
v 0.724454251 0.000000000 0.632118766
v 0.844414900 0.135000200 0.668508400
v 0.844414900 0.000000000 0.668508400
v 1.000000000 0.134984204 0.751670298
v 0.889456611 0.000000000 0.692583676
v 1.000000000 0.135000200 0.751670298
v 1.000000000 0.000000000 0.751670298
v 1.000000000 0.135000200 0.772467005
v 0.000000000 0.135000200 0.772467011
v 1.000000000 0.135000200 0.824093436
v 0.000000000 0.135000200 0.824093364
v 0.981723267 0.135000200 1.000000000
v 1.000000000 0.135000200 1.000000000
v 0.000000000 0.135000200 1.000000000
v 0.044123843 0.135000200 1.000000000
v 0.707106654 0.135000200 1.000000000
v 0.004456853 1.000000000 0.900628083
v 0.000000000 0.943493629 0.904434601
v 0.000000000 1.000000000 0.904434601
v 0.000000000 0.290000000 0.904434601
v 0.041527400 1.000000000 0.868966800
v 0.041527400 0.290000000 0.868966800
v 0.104320205 1.000000000 0.830487337
v 0.145887300 1.000000000 0.805015000
v 0.145887300 0.290000000 0.805015000
v 0.213926583 1.000000000 0.776832219
v 0.258966700 1.000000000 0.758176000
v 0.258966700 0.290000000 0.758176000
v 0.330576921 1.000000000 0.740983836
v 0.377980900 1.000000000 0.729603100
v 0.377980900 0.290000000 0.729603100
v 0.451399093 1.000000000 0.723824965
v 0.499999900 1.000000000 0.720000000
v 0.499999900 0.290000000 0.720000000
v 0.573418033 1.000000000 0.725778135
v 0.622018800 1.000000000 0.729603100
v 0.622018800 0.290000000 0.729603100
v 0.693629141 1.000000000 0.746795144
v 0.741033200 1.000000000 0.758175800
v 0.741033200 0.290000000 0.758175800
v 0.809072423 1.000000000 0.786358581
v 0.854112500 1.000000000 0.805014800
v 0.854112500 0.290000000 0.805014800
v 0.916905305 1.000000000 0.843494323
v 0.958472400 1.000000000 0.868966700
v 0.958472400 0.290000000 0.868966700
v 1.000000000 1.000000000 0.904434633
v 1.000000000 0.816508641 0.904434633
v 1.000000000 0.290000000 0.904434633
v 0.000000000 0.290000000 0.911008382
v 1.000000000 0.290000000 0.911008347
v 0.000000000 0.290000000 0.922194154
v 1.000000000 0.290000000 0.950902214
v 0.000000000 0.290000000 0.940293131
v 1.000000000 0.290000000 1.000000000
v 0.953462438 0.290000000 1.000000000
v 0.049615952 0.290000000 1.000000000
v 0.000000000 0.290000000 0.974719416
v 0.000000000 0.290000000 1.000000000
v 0.100952376 0.000000000 0.632731350
v 0.124970200 0.000000000 0.646598000
v 0.124970200 0.034999800 0.646598000
v 0.079936900 0.034999800 0.620598100
v 0.079936900 0.000000000 0.620598100
v 0.079936900 0.000000000 0.592864639
v 0.079936900 0.034999800 0.568598000
v 0.079936900 0.000000000 0.568598000
v 0.103954724 0.000000000 0.554731350
v 0.124970200 0.034999800 0.542598100
v 0.124970200 0.000000000 0.542598100
v 0.148988024 0.000000000 0.556464750
v 0.170003500 0.034999800 0.568598000
v 0.170003500 0.000000000 0.568598000
v 0.170003500 0.034999800 0.620598100
v 0.170003500 0.000000000 0.596331461
v 0.170003500 0.000000000 0.620598100
v 0.145985676 0.000000000 0.634464750
v 0.475982176 0.000000000 0.558133296
v 0.500000000 0.000000000 0.572000000
v 0.500000000 0.034999800 0.572000000
v 0.454966700 0.034999800 0.546000000
v 0.454966700 0.000000000 0.546000000
v 0.454966700 0.000000000 0.518266593
v 0.454966700 0.034999800 0.494000000
v 0.454966700 0.000000000 0.494000000
v 0.478984524 0.000000000 0.480133296
v 0.500000000 0.034999800 0.468000000
v 0.500000000 0.000000000 0.468000000
v 0.524017824 0.000000000 0.481866704
v 0.545033300 0.034999800 0.494000000
v 0.545033300 0.000000000 0.494000000
v 0.545033300 0.034999800 0.546000000
v 0.545033300 0.000000000 0.521733407
v 0.545033300 0.000000000 0.546000000
v 0.521015476 0.000000000 0.559866704
v 0.851011976 0.000000000 0.632731350
v 0.875029800 0.000000000 0.646598000
v 0.875029800 0.034999800 0.646598000
v 0.829996500 0.034999800 0.620598100
v 0.829996500 0.000000000 0.620598100
v 0.829996500 0.000000000 0.592864639
v 0.829996500 0.034999800 0.568598000
v 0.829996500 0.000000000 0.568598000
v 0.854014324 0.000000000 0.554731350
v 0.875029800 0.034999800 0.542598100
v 0.875029800 0.000000000 0.542598100
v 0.899047624 0.000000000 0.556464750
v 0.920063100 0.034999800 0.568598000
v 0.920063100 0.000000000 0.568598000
v 0.920063100 0.034999800 0.620598100
v 0.920063100 0.000000000 0.596331461
v 0.920063100 0.000000000 0.620598100
v 0.896045276 0.000000000 0.634464750
v 0.170000000 0.654999700 0.599000000
v 0.170000000 0.965000200 0.599000000
v 0.170000000 0.965000200 0.581000000
v 0.170000000 0.654999700 0.581000000
v 0.830000000 0.965000200 0.581000000
v 0.830000000 0.654999700 0.581000000
v 0.830000000 0.965000200 0.599000000
v 0.830000000 0.654999700 0.599000000
vt 0 0
vt 1 0
vt 1 1
vt 0 1
vn -1.000000000 0.000000000 0.000000000
vn -0.965925591 0.000000000 -0.258819922
vn -0.965925591 0.000000000 0.258819922
vn -0.866025523 0.000000000 0.499999793
vn -0.866025229 0.000000000 -0.500000302
vn -0.649448581 0.000000000 -0.760405511
vn -0.634392905 0.000000000 -0.773010764
vn -0.522498393 0.000000000 -0.852640270
vn -0.500005223 -0.866022388 0.000000000
vn -0.500005223 0.866022388 0.000000000
vn -0.500005223 -0.866022388 0.000000000
vn -0.500002676 -0.866023859 0.000000000
vn -0.500002676 0.866023859 0.000000000
vn -0.500002676 -0.866023859 0.000000000
vn -0.500000175 0.000000000 -0.866025303
vn -0.500000175 0.000000000 0.866025303
vn -0.499999866 0.000000000 0.866025481
vn -0.499998733 0.000000000 -0.866026136
vn -0.499998733 0.000000000 0.866026136
vn -0.499998733 0.000000000 -0.866026136
vn -0.499998733 0.000000000 0.866026136
vn -0.499997723 0.000000000 -0.866026719
vn -0.471396866 0.000000000 -0.881921195
vn -0.471396689 0.000000000 -0.881921290
vn -0.382683285 0.000000000 -0.923879593
vn -0.290284981 0.000000000 -0.956940244
vn -0.290284973 0.000000000 -0.956940246
vn -0.258819964 0.000000000 -0.965925580
vn -0.258819964 0.000000000 0.965925580
vn -0.233446280 0.000000000 -0.972369701
vn -0.098017624 0.000000000 -0.995184679
vn -0.098017373 0.000000000 -0.995184704
vn -0.078459067 0.000000000 -0.996917336
vn -0.000003396 0.000005882 -1.000000000
vn -0.000003396 0.000005882 -1.000000000
vn -0.000003396 0.000005882 -1.000000000
vn -0.000003396 0.000005882 -1.000000000
vn -0.000000000 1.000000000 0.000000000
vn 0.000000000 -1.000000000 0.000000000
vn 0.000000000 0.000000000 -1.000000000
vn 0.000000000 0.000000000 1.000000000
vn 0.000000000 0.000003922 -1.000000000
vn 0.000000000 0.000003922 -1.000000000
vn 0.000000000 0.000003922 -1.000000000
vn 0.000000000 1.000000000 0.000000000
vn 0.000000000 1.000000000 0.000000000
vn 0.000003396 0.000005882 -1.000000000
vn 0.000003396 0.000005882 -1.000000000
vn 0.000003396 0.000005882 -1.000000000
vn 0.000003396 0.000005882 -1.000000000
vn 0.078459131 0.000000000 -0.996917331
vn 0.098017429 0.000000000 -0.995184698
vn 0.098017684 0.000000000 -0.995184673
vn 0.233444364 0.000000000 -0.972370161
vn 0.258819964 0.000000000 0.965925580
vn 0.258819964 0.000000000 -0.965925580
vn 0.290284077 0.000000000 -0.956940518
vn 0.290284454 0.000000000 -0.956940403
vn 0.382683574 0.000000000 -0.923879474
vn 0.471396425 0.000000000 -0.881921431
vn 0.471396689 0.000000000 -0.881921290
vn 0.499997723 0.000000000 -0.866026719
vn 0.499998733 0.000000000 0.866026136
vn 0.499998733 0.000000000 -0.866026136
vn 0.499998733 0.000000000 0.866026136
vn 0.499998733 0.000000000 -0.866026136
vn 0.499999866 0.000000000 0.866025481
vn 0.500000175 0.000000000 -0.866025303
vn 0.500000175 0.000000000 0.866025303
vn 0.500002676 -0.866023859 0.000000000
vn 0.500002676 0.866023859 0.000000000
vn 0.500002676 -0.866023859 0.000000000
vn 0.500005223 -0.866022388 0.000000000
vn 0.500005223 0.866022388 0.000000000
vn 0.500005223 -0.866022388 0.000000000
vn 0.522498987 0.000000000 -0.852639906
vn 0.634392905 0.000000000 -0.773010764
vn 0.649448177 0.000000000 -0.760405855
vn 0.866025229 0.000000000 -0.500000302
vn 0.866025523 0.000000000 0.499999793
vn 0.965925591 0.000000000 -0.258819922
vn 0.965925591 0.000000000 0.258819922
vn 1.000000000 0.000000000 0.000000000
usemtl dvss_1
f 1/1/1 2/2/1 3/3/1
f 1/1/1 3/2/1 4/3/1
f 4/1/40 3/2/40 5/3/40
f 4/1/40 5/2/40 6/3/40
f 6/1/83 5/2/83 7/3/83
f 6/1/83 7/2/83 8/3/83
f 8/1/41 7/2/41 2/3/41
f 8/1/41 2/2/41 1/3/41
f 4/1/39 6/2/39 8/3/39
f 4/1/39 8/2/39 1/3/39
f 5/1/45 3/2/45 2/3/45
f 5/1/45 2/2/45 7/3/45
f 9/1/1 10/2/1 11/3/1
f 9/1/1 11/2/1 12/3/1
f 12/1/40 11/2/40 13/3/40
f 12/1/40 13/2/40 14/3/40
f 14/1/83 13/2/83 15/3/83
f 14/1/83 15/2/83 16/3/83
f 16/1/41 15/2/41 10/3/41
f 16/1/41 10/2/41 9/3/41
f 12/1/39 14/2/39 16/3/39
f 12/1/39 16/2/39 9/3/39
f 13/1/45 11/2/45 10/3/45
f 13/1/45 10/2/45 15/3/45
f 17/1/1 18/2/1 19/3/1
f 17/1/1 19/2/1 20/3/1
f 20/1/40 19/2/40 21/3/40
f 20/1/40 21/2/40 22/3/40
f 22/1/83 21/2/83 23/3/83
f 22/1/83 23/2/83 24/3/83
f 24/1/41 23/2/41 18/3/41
f 24/1/41 18/2/41 17/3/41
f 20/1/39 22/2/39 24/3/39
f 20/1/39 24/2/39 17/3/39
f 21/1/45 19/2/45 18/3/45
f 21/1/45 18/2/45 23/3/45
f 25/1/1 26/2/1 27/3/1
f 25/1/1 27/2/1 28/3/1
f 28/1/40 27/2/40 29/3/40
f 28/1/40 29/2/40 30/3/40
f 30/1/83 29/2/83 31/3/83
f 30/1/83 31/2/83 32/3/83
f 32/1/41 31/2/41 26/3/41
f 32/1/41 26/2/41 25/3/41
f 28/1/39 30/2/39 32/3/39
f 28/1/39 32/2/39 25/3/39
f 29/1/45 27/2/45 26/3/45
f 29/1/45 26/2/45 31/3/45
f 33/1/1 34/2/1 35/3/1
f 33/1/1 35/2/1 36/3/1
f 36/1/40 35/2/40 37/3/40
f 36/1/40 37/2/40 38/3/40
f 38/1/83 37/2/83 39/3/83
f 38/1/83 39/2/83 40/3/83
f 40/1/41 39/2/41 34/3/41
f 40/1/41 34/2/41 33/3/41
f 36/1/39 38/2/39 40/3/39
f 36/1/39 40/2/39 33/3/39
f 37/1/45 35/2/45 34/3/45
f 37/1/45 34/2/45 39/3/45
f 41/1/1 42/2/1 43/3/1
f 41/1/1 43/2/1 44/3/1
f 44/1/40 43/2/40 45/3/40
f 44/1/40 45/2/40 46/3/40
f 46/1/83 45/2/83 47/3/83
f 46/1/83 47/2/83 48/3/83
f 48/1/41 47/2/41 42/3/41
f 48/1/41 42/2/41 41/3/41
f 44/1/39 46/2/39 48/3/39
f 44/1/39 48/2/39 41/3/39
f 45/1/45 43/2/45 42/3/45
f 45/1/45 42/2/45 47/3/45
f 49/1/1 50/2/1 51/3/1
f 49/1/1 51/2/1 52/3/1
f 52/1/40 51/2/40 53/3/40
f 52/1/40 53/2/40 54/3/40
f 54/1/83 53/2/83 55/3/83
f 54/1/83 55/2/83 56/3/83
f 56/1/41 55/2/41 50/3/41
f 56/1/41 50/2/41 49/3/41
f 52/1/39 54/2/39 56/3/39
f 52/1/39 56/2/39 49/3/39
f 53/1/45 51/2/45 50/3/45
f 53/1/45 50/2/45 55/3/45
f 57/1/1 58/2/1 59/3/1
f 57/1/1 59/2/1 60/3/1
f 60/1/40 59/2/40 61/3/40
f 60/1/40 61/2/40 62/3/40
f 62/1/83 61/2/83 63/3/83
f 62/1/83 63/2/83 64/3/83
f 64/1/41 63/2/41 58/3/41
f 64/1/41 58/2/41 57/3/41
f 60/1/39 62/2/39 64/3/39
f 60/1/39 64/2/39 57/3/39
f 61/1/45 59/2/45 58/3/45
f 61/1/45 58/2/45 63/3/45
f 65/1/1 66/2/1 67/3/1
f 65/1/1 67/2/1 68/3/1
f 68/1/40 67/2/40 69/3/40
f 68/1/40 69/2/40 70/3/40
f 70/1/83 69/2/83 71/3/83
f 70/1/83 71/2/83 72/3/83
f 72/1/41 71/2/41 66/3/41
f 72/1/41 66/2/41 65/3/41
f 68/1/39 70/2/39 72/3/39
f 68/1/39 72/2/39 65/3/39
f 69/1/45 67/2/45 66/3/45
f 69/1/45 66/2/45 71/3/45
f 73/1/1 74/2/1 75/3/1
f 73/1/1 75/2/1 76/3/1
f 76/1/40 75/2/40 77/3/40
f 76/1/40 77/2/40 78/3/40
f 78/1/83 77/2/83 79/3/83
f 78/1/83 79/2/83 80/3/83
f 80/1/41 79/2/41 74/3/41
f 80/1/41 74/2/41 73/3/41
f 76/1/39 78/2/39 80/3/39
f 76/1/39 80/2/39 73/3/39
f 77/1/45 75/2/45 74/3/45
f 77/1/45 74/2/45 79/3/45
f 81/1/1 82/2/1 83/3/1
f 81/1/1 83/2/1 84/3/1
f 84/1/40 83/2/40 85/3/40
f 84/1/40 85/2/40 86/3/40
f 86/1/83 85/2/83 87/3/83
f 86/1/83 87/2/83 88/3/83
f 88/1/41 87/2/41 82/3/41
f 88/1/41 82/2/41 81/3/41
f 84/1/39 86/2/39 88/3/39
f 84/1/39 88/2/39 81/3/39
f 85/1/45 83/2/45 82/3/45
f 85/1/45 82/2/45 87/3/45
f 89/1/1 90/2/1 91/3/1
f 89/1/1 91/2/1 92/3/1
f 92/1/40 91/2/40 93/3/40
f 92/1/40 93/2/40 94/3/40
f 94/1/83 93/2/83 95/3/83
f 94/1/83 95/2/83 96/3/83
f 96/1/41 95/2/41 90/3/41
f 96/1/41 90/2/41 89/3/41
f 92/1/39 94/2/39 96/3/39
f 92/1/39 96/2/39 89/3/39
f 93/1/45 91/2/45 90/3/45
f 93/1/45 90/2/45 95/3/45
f 97/1/1 98/2/1 99/3/1
f 97/1/1 99/2/1 100/3/1
f 100/1/40 99/2/40 101/3/40
f 100/1/40 101/2/40 102/3/40
f 102/1/83 101/2/83 103/3/83
f 102/1/83 103/2/83 104/3/83
f 104/1/41 103/2/41 98/3/41
f 104/1/41 98/2/41 97/3/41
f 100/1/39 102/2/39 104/3/39
f 100/1/39 104/2/39 97/3/39
f 101/1/45 99/2/45 98/3/45
f 101/1/45 98/2/45 103/3/45
f 105/1/1 106/2/1 107/3/1
f 105/1/1 107/2/1 108/3/1
f 108/1/40 107/2/40 109/3/40
f 108/1/40 109/2/40 110/3/40
f 110/1/83 109/2/83 111/3/83
f 110/1/83 111/2/83 112/3/83
f 112/1/41 111/2/41 106/3/41
f 112/1/41 106/2/41 105/3/41
f 108/1/39 110/2/39 112/3/39
f 108/1/39 112/2/39 105/3/39
f 109/1/45 107/2/45 106/3/45
f 109/1/45 106/2/45 111/3/45
f 113/1/1 114/2/1 115/3/1
f 113/1/1 115/2/1 116/3/1
f 116/1/40 115/2/40 117/3/40
f 116/1/40 117/2/40 118/3/40
f 118/1/83 117/2/83 119/3/83
f 118/1/83 119/2/83 120/3/83
f 120/1/41 119/2/41 114/3/41
f 120/1/41 114/2/41 113/3/41
f 116/1/39 118/2/39 120/3/39
f 116/1/39 120/2/39 113/3/39
f 117/1/45 115/2/45 114/3/45
f 117/1/45 114/2/45 119/3/45
f 121/1/1 122/2/1 123/3/1
f 121/1/1 123/2/1 124/3/1
f 124/1/40 123/2/40 125/3/40
f 124/1/40 125/2/40 126/3/40
f 126/1/83 125/2/83 127/3/83
f 126/1/83 127/2/83 128/3/83
f 128/1/41 127/2/41 122/3/41
f 128/1/41 122/2/41 121/3/41
f 124/1/39 126/2/39 128/3/39
f 124/1/39 128/2/39 121/3/39
f 125/1/45 123/2/45 122/3/45
f 125/1/45 122/2/45 127/3/45
f 129/1/1 130/2/1 131/3/1
f 129/1/1 131/2/1 132/3/1
f 132/1/40 131/2/40 133/3/40
f 132/1/40 133/2/40 134/3/40
f 134/1/83 133/2/83 135/3/83
f 134/1/83 135/2/83 136/3/83
f 136/1/41 135/2/41 130/3/41
f 136/1/41 130/2/41 129/3/41
f 132/1/39 134/2/39 136/3/39
f 132/1/39 136/2/39 129/3/39
f 133/1/45 131/2/45 130/3/45
f 133/1/45 130/2/45 135/3/45
f 137/1/1 138/2/1 139/3/1
f 137/1/1 139/2/1 140/3/1
f 140/1/40 139/2/40 141/3/40
f 140/1/40 141/2/40 142/3/40
f 142/1/83 141/2/83 143/3/83
f 142/1/83 143/2/83 144/3/83
f 144/1/41 143/2/41 138/3/41
f 144/1/41 138/2/41 137/3/41
f 140/1/39 142/2/39 144/3/39
f 140/1/39 144/2/39 137/3/39
f 141/1/45 139/2/45 138/3/45
f 141/1/45 138/2/45 143/3/45
f 145/1/1 146/2/1 147/3/1
f 145/1/1 147/2/1 148/3/1
f 148/1/40 147/2/40 149/3/40
f 148/1/40 149/2/40 150/3/40
f 150/1/83 149/2/83 151/3/83
f 150/1/83 151/2/83 152/3/83
f 152/1/41 151/2/41 146/3/41
f 152/1/41 146/2/41 145/3/41
f 148/1/39 150/2/39 152/3/39
f 148/1/39 152/2/39 145/3/39
f 149/1/45 147/2/45 146/3/45
f 149/1/45 146/2/45 151/3/45
f 153/1/1 154/2/1 155/3/1
f 153/1/1 155/2/1 156/3/1
f 156/1/40 155/2/40 157/3/40
f 156/1/40 157/2/40 158/3/40
f 158/1/83 157/2/83 159/3/83
f 158/1/83 159/2/83 160/3/83
f 160/1/41 159/2/41 154/3/41
f 160/1/41 154/2/41 153/3/41
f 156/1/39 158/2/39 160/3/39
f 156/1/39 160/2/39 153/3/39
f 157/1/45 155/2/45 154/3/45
f 157/1/45 154/2/45 159/3/45
f 161/1/1 162/2/1 163/3/1
f 161/1/1 163/2/1 164/3/1
f 164/1/40 163/2/40 165/3/40
f 164/1/40 165/2/40 166/3/40
f 166/1/83 165/2/83 167/3/83
f 166/1/83 167/2/83 168/3/83
f 168/1/41 167/2/41 162/3/41
f 168/1/41 162/2/41 161/3/41
f 164/1/39 166/2/39 168/3/39
f 164/1/39 168/2/39 161/3/39
f 165/1/45 163/2/45 162/3/45
f 165/1/45 162/2/45 167/3/45
f 169/1/1 170/2/1 171/3/1
f 169/1/1 171/2/1 172/3/1
f 172/1/40 171/2/40 173/3/40
f 172/1/40 173/2/40 174/3/40
f 174/1/83 173/2/83 175/3/83
f 174/1/83 175/2/83 176/3/83
f 176/1/41 175/2/41 170/3/41
f 176/1/41 170/2/41 169/3/41
f 172/1/39 174/2/39 176/3/39
f 172/1/39 176/2/39 169/3/39
f 173/1/45 171/2/45 170/3/45
f 173/1/45 170/2/45 175/3/45
f 177/1/1 178/2/1 179/3/1
f 177/1/1 179/2/1 180/3/1
f 180/1/40 179/2/40 181/3/40
f 180/1/40 181/2/40 182/3/40
f 182/1/83 181/2/83 183/3/83
f 182/1/83 183/2/83 184/3/83
f 184/1/41 183/2/41 178/3/41
f 184/1/41 178/2/41 177/3/41
f 180/1/39 182/2/39 184/3/39
f 180/1/39 184/2/39 177/3/39
f 181/1/45 179/2/45 178/3/45
f 181/1/45 178/2/45 183/3/45
f 185/1/1 186/2/1 187/3/1
f 185/1/1 187/2/1 188/3/1
f 188/1/40 187/2/40 189/3/40
f 188/1/40 189/2/40 190/3/40
f 190/1/83 189/2/83 191/3/83
f 190/1/83 191/2/83 192/3/83
f 192/1/41 191/2/41 186/3/41
f 192/1/41 186/2/41 185/3/41
f 188/1/39 190/2/39 192/3/39
f 188/1/39 192/2/39 185/3/39
f 189/1/45 187/2/45 186/3/45
f 189/1/45 186/2/45 191/3/45
f 193/1/1 194/2/1 195/3/1
f 193/1/1 195/2/1 196/3/1
f 196/1/40 195/2/40 197/3/40
f 196/1/40 197/2/40 198/3/40
f 198/1/83 197/2/83 199/3/83
f 198/1/83 199/2/83 200/3/83
f 200/1/41 199/2/41 194/3/41
f 200/1/41 194/2/41 193/3/41
f 196/1/39 198/2/39 200/3/39
f 196/1/39 200/2/39 193/3/39
f 197/1/45 195/2/45 194/3/45
f 197/1/45 194/2/45 199/3/45
f 201/1/1 202/2/1 203/3/1
f 201/1/1 203/2/1 204/3/1
f 204/1/40 203/2/40 205/3/40
f 204/1/40 205/2/40 206/3/40
f 206/1/83 205/2/83 207/3/83
f 206/1/83 207/2/83 208/3/83
f 208/1/41 207/2/41 202/3/41
f 208/1/41 202/2/41 201/3/41
f 204/1/39 206/2/39 208/3/39
f 204/1/39 208/2/39 201/3/39
f 205/1/45 203/2/45 202/3/45
f 205/1/45 202/2/45 207/3/45
f 209/1/1 210/2/1 211/3/1
f 209/1/1 211/2/1 212/3/1
f 212/1/40 211/2/40 213/3/40
f 212/1/40 213/2/40 214/3/40
f 214/1/83 213/2/83 215/3/83
f 214/1/83 215/2/83 216/3/83
f 216/1/41 215/2/41 210/3/41
f 216/1/41 210/2/41 209/3/41
f 212/1/39 214/2/39 216/3/39
f 212/1/39 216/2/39 209/3/39
f 213/1/45 211/2/45 210/3/45
f 213/1/45 210/2/45 215/3/45
f 217/1/1 218/2/1 219/3/1
f 217/1/1 219/2/1 220/3/1
f 220/1/40 219/2/40 221/3/40
f 220/1/40 221/2/40 222/3/40
f 222/1/83 221/2/83 223/3/83
f 222/1/83 223/2/83 224/3/83
f 224/1/41 223/2/41 218/3/41
f 224/1/41 218/2/41 217/3/41
f 220/1/39 222/2/39 224/3/39
f 220/1/39 224/2/39 217/3/39
f 221/1/45 219/2/45 218/3/45
f 221/1/45 218/2/45 223/3/45
f 225/1/1 226/2/1 227/3/1
f 225/1/1 227/2/1 228/3/1
f 228/1/40 227/2/40 229/3/40
f 228/1/40 229/2/40 230/3/40
f 230/1/83 229/2/83 231/3/83
f 230/1/83 231/2/83 232/3/83
f 232/1/41 231/2/41 226/3/41
f 232/1/41 226/2/41 225/3/41
f 228/1/39 230/2/39 232/3/39
f 228/1/39 232/2/39 225/3/39
f 229/1/45 227/2/45 226/3/45
f 229/1/45 226/2/45 231/3/45
f 233/1/1 234/2/1 235/3/1
f 233/1/1 235/2/1 236/3/1
f 236/1/40 235/2/40 237/3/40
f 236/1/40 237/2/40 238/3/40
f 238/1/83 237/2/83 239/3/83
f 238/1/83 239/2/83 240/3/83
f 240/1/41 239/2/41 234/3/41
f 240/1/41 234/2/41 233/3/41
f 236/1/39 238/2/39 240/3/39
f 236/1/39 240/2/39 233/3/39
f 237/1/45 235/2/45 234/3/45
f 237/1/45 234/2/45 239/3/45
f 241/1/1 242/2/1 243/3/1
f 241/1/1 243/2/1 244/3/1
f 244/1/40 243/2/40 245/3/40
f 244/1/40 245/2/40 246/3/40
f 246/1/83 245/2/83 247/3/83
f 246/1/83 247/2/83 248/3/83
f 248/1/41 247/2/41 242/3/41
f 248/1/41 242/2/41 241/3/41
f 244/1/39 246/2/39 248/3/39
f 244/1/39 248/2/39 241/3/39
f 245/1/45 243/2/45 242/3/45
f 245/1/45 242/2/45 247/3/45
f 249/1/1 250/2/1 251/3/1
f 249/1/1 251/2/1 252/3/1
f 252/1/40 251/2/40 253/3/40
f 252/1/40 253/2/40 254/3/40
f 254/1/83 253/2/83 255/3/83
f 254/1/83 255/2/83 256/3/83
f 256/1/41 255/2/41 250/3/41
f 256/1/41 250/2/41 249/3/41
f 252/1/39 254/2/39 256/3/39
f 252/1/39 256/2/39 249/3/39
f 253/1/45 251/2/45 250/3/45
f 253/1/45 250/2/45 255/3/45
f 257/1/1 258/2/1 259/3/1
f 257/1/1 259/2/1 260/3/1
f 260/1/40 259/2/40 261/3/40
f 260/1/40 261/2/40 262/3/40
f 262/1/83 261/2/83 263/3/83
f 262/1/83 263/2/83 264/3/83
f 264/1/41 263/2/41 258/3/41
f 264/1/41 258/2/41 257/3/41
f 260/1/39 262/2/39 264/3/39
f 260/1/39 264/2/39 257/3/39
f 261/1/45 259/2/45 258/3/45
f 261/1/45 258/2/45 263/3/45
f 265/1/1 266/2/1 267/3/1
f 265/1/1 267/2/1 268/3/1
f 268/1/40 267/2/40 269/3/40
f 268/1/40 269/2/40 270/3/40
f 270/1/83 269/2/83 271/3/83
f 270/1/83 271/2/83 272/3/83
f 272/1/41 271/2/41 266/3/41
f 272/1/41 266/2/41 265/3/41
f 268/1/39 270/2/39 272/3/39
f 268/1/39 272/2/39 265/3/39
f 269/1/45 267/2/45 266/3/45
f 269/1/45 266/2/45 271/3/45
f 273/1/1 274/2/1 275/3/1
f 273/1/1 275/2/1 276/3/1
f 276/1/40 275/2/40 277/3/40
f 276/1/40 277/2/40 278/3/40
f 278/1/83 277/2/83 279/3/83
f 278/1/83 279/2/83 280/3/83
f 280/1/41 279/2/41 274/3/41
f 280/1/41 274/2/41 273/3/41
f 276/1/39 278/2/39 280/3/39
f 276/1/39 280/2/39 273/3/39
f 277/1/45 275/2/45 274/3/45
f 277/1/45 274/2/45 279/3/45
f 281/1/1 282/2/1 283/3/1
f 281/1/1 283/2/1 284/3/1
f 284/1/40 283/2/40 285/3/40
f 284/1/40 285/2/40 286/3/40
f 286/1/83 285/2/83 287/3/83
f 286/1/83 287/2/83 288/3/83
f 288/1/41 287/2/41 282/3/41
f 288/1/41 282/2/41 281/3/41
f 284/1/39 286/2/39 288/3/39
f 284/1/39 288/2/39 281/3/39
f 285/1/45 283/2/45 282/3/45
f 285/1/45 282/2/45 287/3/45
f 289/1/1 290/2/1 291/3/1
f 289/1/1 291/2/1 292/3/1
f 292/1/40 291/2/40 293/3/40
f 292/1/40 293/2/40 294/3/40
f 294/1/83 293/2/83 295/3/83
f 294/1/83 295/2/83 296/3/83
f 296/1/41 295/2/41 290/3/41
f 296/1/41 290/2/41 289/3/41
f 292/1/39 294/2/39 296/3/39
f 292/1/39 296/2/39 289/3/39
f 293/1/45 291/2/45 290/3/45
f 293/1/45 290/2/45 295/3/45
f 297/1/1 298/2/1 299/3/1
f 297/1/1 299/2/1 300/3/1
f 300/1/40 299/2/40 301/3/40
f 300/1/40 301/2/40 302/3/40
f 302/1/83 301/2/83 303/3/83
f 302/1/83 303/2/83 304/3/83
f 304/1/41 303/2/41 298/3/41
f 304/1/41 298/2/41 297/3/41
f 300/1/39 302/2/39 304/3/39
f 300/1/39 304/2/39 297/3/39
f 301/1/45 299/2/45 298/3/45
f 301/1/45 298/2/45 303/3/45
f 305/1/1 306/2/1 307/3/1
f 305/1/1 307/2/1 308/3/1
f 308/1/40 307/2/40 309/3/40
f 308/1/40 309/2/40 310/3/40
f 310/1/83 309/2/83 311/3/83
f 310/1/83 311/2/83 312/3/83
f 312/1/41 311/2/41 306/3/41
f 312/1/41 306/2/41 305/3/41
f 308/1/39 310/2/39 312/3/39
f 308/1/39 312/2/39 305/3/39
f 309/1/45 307/2/45 306/3/45
f 309/1/45 306/2/45 311/3/45
f 313/1/1 314/2/1 315/3/1
f 313/1/1 315/2/1 316/3/1
f 316/1/40 315/2/40 317/3/40
f 316/1/40 317/2/40 318/3/40
f 318/1/83 317/2/83 319/3/83
f 318/1/83 319/2/83 320/3/83
f 320/1/41 319/2/41 314/3/41
f 320/1/41 314/2/41 313/3/41
f 316/1/39 318/2/39 320/3/39
f 316/1/39 320/2/39 313/3/39
f 317/1/45 315/2/45 314/3/45
f 317/1/45 314/2/45 319/3/45
f 321/1/1 322/2/1 323/3/1
f 321/1/1 323/2/1 324/3/1
f 324/1/40 323/2/40 325/3/40
f 324/1/40 325/2/40 326/3/40
f 326/1/83 325/2/83 327/3/83
f 326/1/83 327/2/83 328/3/83
f 328/1/41 327/2/41 322/3/41
f 328/1/41 322/2/41 321/3/41
f 324/1/39 326/2/39 328/3/39
f 324/1/39 328/2/39 321/3/39
f 325/1/45 323/2/45 322/3/45
f 325/1/45 322/2/45 327/3/45
f 329/1/71 330/2/71 331/3/71
f 329/1/71 331/2/71 332/3/71
f 332/1/83 331/2/83 333/3/83
f 332/1/83 333/2/83 334/3/83
f 334/1/72 333/2/72 335/3/72
f 334/1/72 335/2/72 336/3/72
f 336/1/9 335/2/9 337/3/9
f 336/1/9 337/2/9 338/3/9
f 333/1/41 331/2/41 330/3/41
f 330/1/41 339/2/41 337/3/41
f 337/1/41 335/2/41 333/3/41
f 330/1/41 337/2/41 333/3/41
f 338/1/1 337/2/1 339/3/1
f 338/1/1 339/2/1 340/3/1
f 340/1/10 339/2/10 330/3/10
f 340/1/10 330/2/10 329/3/10
f 340/1/40 329/2/40 332/3/40
f 332/1/36 334/2/36 336/3/36
f 336/1/50 338/2/50 340/3/50
f 332/1/44 336/2/44 340/3/44
f 341/1/71 342/2/71 343/3/71
f 341/1/71 343/2/71 344/3/71
f 344/1/83 343/2/83 345/3/83
f 344/1/83 345/2/83 346/3/83
f 346/1/70 345/2/70 347/3/70
f 346/1/70 347/2/70 348/3/70
f 348/1/11 347/2/11 349/3/11
f 348/1/11 349/2/11 350/3/11
f 345/1/41 343/2/41 342/3/41
f 342/1/41 351/2/41 349/3/41
f 349/1/41 347/2/41 345/3/41
f 342/1/41 349/2/41 345/3/41
f 350/1/1 349/2/1 351/3/1
f 350/1/1 351/2/1 352/3/1
f 352/1/10 351/2/10 342/3/10
f 352/1/10 342/2/10 341/3/10
f 352/1/40 341/2/40 344/3/40
f 344/1/37 346/2/37 348/3/37
f 348/1/49 350/2/49 352/3/49
f 344/1/44 348/2/44 352/3/44
f 353/1/74 354/2/74 355/3/74
f 353/1/74 355/2/74 356/3/74
f 356/1/83 355/2/83 357/3/83
f 356/1/83 357/2/83 358/3/83
f 358/1/75 357/2/75 359/3/75
f 358/1/75 359/2/75 360/3/75
f 360/1/12 359/2/12 361/3/12
f 360/1/12 361/2/12 362/3/12
f 357/1/41 355/2/41 354/3/41
f 354/1/41 363/2/41 361/3/41
f 361/1/41 359/2/41 357/3/41
f 354/1/41 361/2/41 357/3/41
f 362/1/1 361/2/1 363/3/1
f 362/1/1 363/2/1 364/3/1
f 364/1/13 363/2/13 354/3/13
f 364/1/13 354/2/13 353/3/13
f 364/1/40 353/2/40 356/3/40
f 356/1/34 358/2/34 360/3/34
f 360/1/48 362/2/48 364/3/48
f 356/1/43 360/2/43 364/3/43
f 365/1/74 366/2/74 367/3/74
f 365/1/74 367/2/74 368/3/74
f 368/1/83 367/2/83 369/3/83
f 368/1/83 369/2/83 370/3/83
f 370/1/73 369/2/73 371/3/73
f 370/1/73 371/2/73 372/3/73
f 372/1/14 371/2/14 373/3/14
f 372/1/14 373/2/14 374/3/14
f 369/1/41 367/2/41 366/3/41
f 366/1/41 375/2/41 373/3/41
f 373/1/41 371/2/41 369/3/41
f 366/1/41 373/2/41 369/3/41
f 374/1/1 373/2/1 375/3/1
f 374/1/1 375/2/1 376/3/1
f 376/1/13 375/2/13 366/3/13
f 376/1/13 366/2/13 365/3/13
f 376/1/40 365/2/40 368/3/40
f 368/1/35 370/2/35 372/3/35
f 372/1/47 374/2/47 376/3/47
f 368/1/42 372/2/42 376/3/42
usemtl dvss_2
f 377/1/67 378/2/67 379/3/67
f 378/1/67 377/2/67 380/3/67 381/4/67
f 382/1/4 381/2/4 380/3/4
f 381/1/4 382/2/4 383/3/4 384/4/4
f 385/1/22 384/2/22 383/3/22
f 384/1/22 385/2/22 386/3/22 387/4/22
f 388/1/79 387/2/79 386/3/79
f 387/1/79 388/2/79 379/3/79 378/4/79
f 381/1/39 384/2/39 387/3/39
f 381/1/39 387/2/39 378/3/39
f 389/1/55 390/2/55 391/3/55
f 390/1/55 389/2/55 392/3/55 393/4/55
f 394/1/3 393/2/3 392/3/3
f 393/1/3 394/2/3 395/3/3 396/4/3
f 397/1/28 396/2/28 395/3/28
f 396/1/28 397/2/28 398/3/28 399/4/28
f 400/1/81 399/2/81 398/3/81
f 399/1/81 400/2/81 391/3/81 390/4/81
f 393/1/39 396/2/39 399/3/39
f 393/1/39 399/2/39 390/3/39
f 401/1/41 402/2/41 403/3/41
f 402/1/41 401/2/41 404/3/41 405/4/41
f 406/1/1 405/2/1 404/3/1
f 405/1/1 406/2/1 407/3/1 408/4/1
f 409/1/40 408/2/40 407/3/40
f 408/1/40 409/2/40 410/3/40 411/4/40
f 412/1/83 411/2/83 410/3/83
f 411/1/83 412/2/83 403/3/83 402/4/83
f 405/1/39 408/2/39 411/3/39
f 405/1/39 411/2/39 402/3/39
f 413/1/29 414/2/29 415/3/29
f 414/1/29 413/2/29 416/3/29 417/4/29
f 418/1/2 417/2/2 416/3/2
f 417/1/2 418/2/2 419/3/2 420/4/2
f 421/1/56 420/2/56 419/3/56
f 420/1/56 421/2/56 422/3/56 423/4/56
f 424/1/82 423/2/82 422/3/82
f 423/1/82 424/2/82 415/3/82 414/4/82
f 417/1/39 420/2/39 423/3/39
f 417/1/39 423/2/39 414/3/39
f 425/1/17 426/2/17 427/3/17
f 426/1/17 425/2/17 428/3/17 429/4/17
f 430/1/5 429/2/5 428/3/5
f 429/1/5 430/2/5 431/3/5 432/4/5
f 433/1/62 432/2/62 431/3/62
f 432/1/62 433/2/62 434/3/62 435/4/62
f 436/1/80 435/2/80 434/3/80
f 435/1/80 436/2/80 427/3/80 426/4/80
f 429/1/39 432/2/39 435/3/39
f 429/1/39 435/2/39 426/3/39
f 437/1/7 438/2/7 439/3/7
f 440/1/7 437/2/7 439/3/7 441/4/7
f 441/1/24 439/2/24 442/3/24
f 441/1/24 442/2/24 443/3/24
f 443/1/26 442/2/26 444/3/26
f 443/1/26 444/2/26 445/3/26
f 445/1/31 444/2/31 446/3/31
f 445/1/31 446/2/31 447/3/31
f 447/1/53 446/2/53 448/3/53
f 447/1/53 448/2/53 449/3/53
f 449/1/57 448/2/57 450/3/57
f 449/1/57 450/2/57 451/3/57
f 451/1/61 450/2/61 452/3/61
f 451/1/61 452/2/61 453/3/61
f 454/1/77 453/2/77 452/3/77 455/4/77
f 456/1/77 453/2/77 454/3/77
f 457/1/45 455/2/45 452/3/45 450/4/45
f 450/1/45 448/2/45 446/3/45
f 446/1/45 444/2/45 442/3/45
f 458/1/45 442/2/45 439/3/45 438/4/45
f 459/1/45 457/2/45 450/3/45
f 450/1/45 446/2/45 442/3/45
f 460/1/45 442/2/45 458/3/45
f 461/1/45 462/2/45 459/3/45 450/4/45
f 463/1/45 464/2/45 450/3/45
f 463/1/45 450/2/45 442/3/45
f 463/1/45 442/2/45 460/3/45
f 465/1/38 461/2/38 450/3/38
f 465/1/46 450/2/46 464/3/46
f 466/1/39 440/2/39 441/3/39
f 441/1/39 443/2/39 445/3/39
f 445/1/39 447/2/39 449/3/39
f 449/1/39 451/2/39 453/3/39
f 467/1/39 453/2/39 456/3/39
f 468/1/39 466/2/39 441/3/39 445/4/39
f 445/1/39 449/2/39 453/3/39
f 469/1/39 453/2/39 467/3/39
f 470/1/39 471/2/39 468/3/39 445/4/39
f 472/1/39 473/2/39 445/3/39
f 472/1/39 445/2/39 453/3/39
f 472/1/39 453/2/39 469/3/39
f 474/1/39 470/2/39 445/3/39
f 474/1/39 445/2/39 473/3/39
f 475/1/23 476/2/23 477/3/23 478/4/23
f 475/1/23 478/2/23 479/3/23
f 480/1/27 479/2/27 478/3/27 481/4/27
f 480/1/27 481/2/27 482/3/27
f 483/1/32 482/2/32 481/3/32 484/4/32
f 483/1/32 484/2/32 485/3/32
f 486/1/52 485/2/52 484/3/52 487/4/52
f 486/1/52 487/2/52 488/3/52
f 489/1/58 488/2/58 487/3/58 490/4/58
f 489/1/58 490/2/58 491/3/58
f 492/1/60 493/2/60 491/3/60
f 492/1/60 491/2/60 490/3/60
f 492/1/60 490/2/60 494/3/60
f 495/1/60 493/2/60 492/3/60
f 496/1/45 494/2/45 490/3/45
f 490/1/45 487/2/45 484/3/45
f 484/1/45 481/2/45 478/3/45
f 497/1/45 478/2/45 477/3/45
f 498/1/45 496/2/45 490/3/45
f 490/1/45 484/2/45 478/3/45
f 499/1/45 478/2/45 497/3/45
f 500/1/45 501/2/45 498/3/45 490/4/45
f 502/1/45 503/2/45 490/3/45
f 502/1/45 490/2/45 478/3/45
f 502/1/45 478/2/45 499/3/45
f 504/1/45 500/2/45 490/3/45
f 504/1/45 490/2/45 503/3/45
f 505/1/6 506/2/6 507/3/6
f 508/1/6 506/2/6 505/3/6
f 508/1/6 505/2/6 509/3/6
f 508/1/6 509/2/6 510/3/6
f 511/1/8 510/2/8 509/3/8
f 510/1/8 511/2/8 512/3/8 513/4/8
f 514/1/25 513/2/25 512/3/25
f 513/1/25 514/2/25 515/3/25 516/4/25
f 517/1/30 516/2/30 515/3/30
f 516/1/30 517/2/30 518/3/30 519/4/30
f 520/1/33 519/2/33 518/3/33
f 519/1/33 520/2/33 521/3/33 522/4/33
f 523/1/51 522/2/51 521/3/51
f 522/1/51 523/2/51 524/3/51 525/4/51
f 526/1/54 525/2/54 524/3/54
f 525/1/54 526/2/54 527/3/54 528/4/54
f 529/1/59 528/2/59 527/3/59
f 528/1/59 529/2/59 530/3/59 531/4/59
f 532/1/76 531/2/76 530/3/76
f 531/1/76 532/2/76 533/3/76 534/4/76
f 535/1/78 536/2/78 534/3/78 533/4/78
f 537/1/78 534/2/78 536/3/78
f 538/1/39 508/2/39 510/3/39 513/4/39
f 513/1/39 516/2/39 519/3/39
f 519/1/39 522/2/39 525/3/39
f 525/1/39 528/2/39 531/3/39
f 539/1/39 531/2/39 534/3/39 537/4/39
f 540/1/39 538/2/39 513/3/39 519/4/39
f 519/1/39 525/2/39 531/3/39
f 541/1/39 531/2/39 539/3/39
f 542/1/39 540/2/39 519/3/39 531/4/39
f 543/1/39 544/2/39 531/3/39 541/4/39
f 545/1/39 546/2/39 542/3/39
f 545/1/39 542/2/39 531/3/39
f 545/1/39 531/2/39 544/3/39
f 547/1/39 546/2/39 545/3/39
usemtl dvss_5
f 548/1/19 549/2/19 550/3/19 551/4/19
f 548/1/19 551/2/19 552/3/19
f 553/1/1 552/2/1 551/3/1 554/4/1
f 553/1/1 554/2/1 555/3/1
f 556/1/18 555/2/18 554/3/18 557/4/18
f 556/1/18 557/2/18 558/3/18
f 559/1/64 558/2/64 557/3/64 560/4/64
f 559/1/64 560/2/64 561/3/64
f 554/1/45 551/2/45 550/3/45
f 550/1/45 562/2/45 560/3/45
f 560/1/45 557/2/45 554/3/45
f 550/1/45 560/2/45 554/3/45
f 563/1/83 561/2/83 560/3/83 562/4/83
f 563/1/83 562/2/83 564/3/83
f 565/1/63 564/2/63 562/3/63 550/4/63
f 565/1/63 550/2/63 549/3/63
f 566/1/16 567/2/16 568/3/16 569/4/16
f 566/1/16 569/2/16 570/3/16
f 571/1/1 570/2/1 569/3/1 572/4/1
f 571/1/1 572/2/1 573/3/1
f 574/1/15 573/2/15 572/3/15 575/4/15
f 574/1/15 575/2/15 576/3/15
f 577/1/68 576/2/68 575/3/68 578/4/68
f 577/1/68 578/2/68 579/3/68
f 572/1/45 569/2/45 568/3/45
f 568/1/45 580/2/45 578/3/45
f 578/1/45 575/2/45 572/3/45
f 568/1/45 578/2/45 572/3/45
f 581/1/83 579/2/83 578/3/83 580/4/83
f 581/1/83 580/2/83 582/3/83
f 583/1/69 582/2/69 580/3/69 568/4/69
f 583/1/69 568/2/69 567/3/69
f 584/1/21 585/2/21 586/3/21 587/4/21
f 584/1/21 587/2/21 588/3/21
f 589/1/1 588/2/1 587/3/1 590/4/1
f 589/1/1 590/2/1 591/3/1
f 592/1/20 591/2/20 590/3/20 593/4/20
f 592/1/20 593/2/20 594/3/20
f 595/1/66 594/2/66 593/3/66 596/4/66
f 595/1/66 596/2/66 597/3/66
f 590/1/45 587/2/45 586/3/45
f 586/1/45 598/2/45 596/3/45
f 596/1/45 593/2/45 590/3/45
f 586/1/45 596/2/45 590/3/45
f 599/1/83 597/2/83 596/3/83 598/4/83
f 599/1/83 598/2/83 600/3/83
f 601/1/65 600/2/65 598/3/65 586/4/65
f 601/1/65 586/2/65 585/3/65
usemtl dvss_7
f 602/1/1 603/2/1 604/3/1
f 602/1/1 604/2/1 605/3/1
f 605/1/40 604/2/40 606/3/40
f 605/1/40 606/2/40 607/3/40
f 607/1/83 606/2/83 608/3/83
f 607/1/83 608/2/83 609/3/83
f 609/1/41 608/2/41 603/3/41
f 609/1/41 603/2/41 602/3/41
f 605/1/39 607/2/39 609/3/39
f 605/1/39 609/2/39 602/3/39
f 606/1/45 604/2/45 603/3/45
f 606/1/45 603/2/45 608/3/45
