# Generated by tools-import-turbines.py; estimated STEP scale.
mtllib materials.mtl
s off
v 0.329071150 0.000000000 0.388920718
v 0.370650202 0.000000000 0.375694043
v 0.238372800 0.467104200 0.228122200
v 0.171254600 0.456236600 0.253885500
v 0.300454368 0.000000000 0.398023951
v 0.258075640 0.000000000 0.376191979
v 0.109259400 0.429999800 0.226409200
v 0.231029249 0.000000000 0.362258768
v 0.213280485 0.000000000 0.316020186
v 0.088702900 0.403763200 0.161788900
v 0.203043013 0.000000000 0.289349473
v 0.222411478 0.000000000 0.245647854
v 0.121627300 0.392895600 0.097878000
v 0.232889860 0.000000000 0.222005181
v 0.278242836 0.000000000 0.207578028
v 0.188745700 0.403763200 0.072114700
v 0.303085741 0.000000000 0.199675273
v 0.346691954 0.000000000 0.222139432
v 0.250741000 0.429999900 0.099590800
v 0.372510867 0.000000000 0.235440388
v 0.271297200 0.456236600 0.164211300
v 0.389453975 0.000000000 0.279580668
v 0.400497049 0.000000000 0.308349710
v 0.382870366 0.000000000 0.348121296
v 0.280967070 0.597603143 0.000000000
v 0.280967070 0.829999900 0.000000000
v 0.252385900 0.829999900 0.046640200
v 0.280967070 0.210000000 0.000000000
v 0.252385900 0.210000000 0.046640200
v 0.157609500 0.829999900 0.157609200
v 0.157609500 0.210000000 0.157609200
v 0.046640400 0.829999900 0.252385600
v 0.046640400 0.210000000 0.252385600
v 0.000000000 0.442397754 0.280966892
v 0.000000000 0.829999900 0.280966892
v 0.000000000 0.210000000 0.280966892
v 0.000000000 0.829999900 0.276150113
v 0.276150257 0.829999900 0.000000000
v 0.000000000 0.829999900 0.230009357
v 0.267540220 0.829999900 0.000000000
v 0.000000000 0.829999900 0.128645381
v 0.252385887 0.829999900 0.000000000
v 0.000000000 0.829999900 0.000000000
v 0.272119266 0.210000000 0.000000000
v 0.000000000 0.210000000 0.272119135
v 0.237915391 0.210000000 0.000000000
v 0.000000000 0.210000000 0.237915321
v 0.000000000 0.210000000 0.064034408
v 0.064034392 0.210000000 0.000000000
v 0.000000000 0.210000000 0.000000000
v 0.207357530 0.215994875 0.000000000
v 0.257582815 0.240000000 0.000000000
v 0.236205600 0.240000000 0.034884500
v 0.188191187 0.206834353 0.000000000
v 0.058656898 0.151620807 0.000000000
v 0.143467200 0.240000000 0.143467200
v 0.000000060 0.126618517 0.000000000
v 0.000000000 0.189723872 0.148048888
v 0.000000000 0.126618495 0.000000000
v 0.034884700 0.240000000 0.236205300
v 0.000000000 0.206834163 0.188190664
v 0.000000000 0.240000000 0.257582702
v 0.000000000 0.240000000 0.253979955
v 0.253980139 0.240000000 0.000000000
v 0.000000000 0.240000000 0.206497925
v 0.247540258 0.240000000 0.000000000
v 0.000000000 0.240000000 0.111632412
v 0.236205590 0.240000000 0.000000000
v 0.000000000 0.240000000 0.000000000
v 0.280967070 0.819999900 0.000000000
v 0.188191222 0.894389635 0.000000000
v 0.252385900 0.819999900 0.046640200
v 0.082455062 0.970000000 0.000000000
v 0.044472200 0.970000000 0.044472200
v 0.157609500 0.819999900 0.157609200
v 0.000000000 0.935315732 0.130958730
v 0.000000000 0.970000000 0.082455041
v 0.000000000 0.894390033 0.188190579
v 0.046640400 0.819999900 0.252385600
v 0.000000000 0.855500737 0.236691732
v 0.000000000 0.819999900 0.280966892
v 0.075537700 0.970000000 0.000000000
v 0.000000000 0.970000000 0.075537700
v 0.057695133 0.970000000 0.000000000
v 0.000000000 0.970000000 0.041917972
v 0.000000000 0.970000000 0.000000000
v 0.272119266 0.819999900 0.000000000
v 0.000000000 0.819999900 0.272119135
v 0.237915391 0.819999900 0.000000000
v 0.000000000 0.819999900 0.237915321
v 0.000000000 0.819999900 0.064034408
v 0.064034392 0.819999900 0.000000000
v 0.000000000 0.819999900 0.000000000
v 0.304751051 0.920000100 0.000000000
v 0.304751051 1.000000000 0.000000000
v 0.289896200 1.000000000 0.027791500
v 0.289896200 0.920000100 0.027791500
v 0.211133099 1.000000000 0.123764660
v 0.171751500 1.000000000 0.171751300
v 0.171751500 0.920000100 0.171751300
v 0.075778540 1.000000000 0.250514401
v 0.027792000 1.000000000 0.289896000
v 0.027792000 0.920000100 0.289896000
v 0.000000000 1.000000000 0.304751143
v 0.000000000 0.940305668 0.304751143
v 0.000000000 0.920000100 0.304751143
v 0.301407810 0.920000100 0.000000000
v 0.000000000 0.920000100 0.301407830
v 0.295424270 0.920000100 0.000000000
v 0.000000000 0.920000100 0.221494087
v 0.000000000 0.920000100 0.000000000
vt 0 0
vt 1 0
vt 1 1
vt 0 1
vn -0.923098669 -0.149465930 0.354328636
vn -0.923097446 -0.149464029 0.354332626
vn -0.852639483 -0.360841468 -0.377888008
vn -0.852639483 -0.360841468 -0.377888008
vn -0.452820710 0.149464416 0.878984524
vn -0.452817992 0.149465764 0.878985695
vn -0.282717296 -0.360841436 -0.888743151
vn -0.282716566 -0.360841362 -0.888743413
vn -0.260693940 0.920572285 -0.290835586
vn -0.260693900 0.920572164 -0.290836005
vn -0.260693215 0.920572746 -0.290834777
vn -0.260693111 0.920572433 -0.290835860
vn -0.260692597 0.920572671 -0.290835568
vn -0.260690738 0.920573457 -0.290834744
vn 0.000000000 -1.000000000 0.000000000
vn 0.000000000 1.000000000 0.000000000
vn 0.255486230 -0.872300766 0.416915052
vn 0.282716578 0.360841320 0.888743426
vn 0.282717284 0.360841479 0.888743138
vn 0.317560064 -0.872300876 0.371815528
vn 0.317560884 -0.872300747 0.371815130
vn 0.357945537 0.728482145 0.584113650
vn 0.357945826 0.728482339 0.584113231
vn 0.371815270 -0.872300906 0.317560285
vn 0.371815460 -0.872300873 0.317560152
vn 0.416914791 -0.872300924 0.255486114
vn 0.416915303 -0.872300824 0.255485622
vn 0.444913415 0.728482329 0.520927586
vn 0.444913667 0.728482552 0.520927059
vn 0.452817942 -0.149465587 -0.878985751
vn 0.452820581 -0.149464656 -0.878984549
vn 0.471396965 0.000000000 0.881921142
vn 0.520927027 0.728482440 0.444913888
vn 0.520927157 0.728482614 0.444913450
vn 0.522498811 0.000000000 0.852640013
vn 0.584113389 0.728482433 0.357945377
vn 0.634393899 0.000000000 0.773009949
vn 0.649447395 0.000000000 0.760406524
vn 0.760406235 0.000000000 0.649447733
vn 0.773010597 0.000000000 0.634393109
vn 0.852639492 0.360841439 0.377888017
vn 0.852639719 0.360841390 0.377887551
vn 0.852640013 0.000000000 0.522498811
vn 0.881921469 0.000000000 0.471396353
vn 0.923097172 0.149464055 -0.354333329
vn 0.923098743 0.149465669 -0.354328554
usemtl dvss_4
f 1/1/19 2/2/19 3/3/19 4/4/19
f 1/1/18 4/2/18 5/3/18
f 6/1/5 5/2/5 4/3/5 7/4/5
f 6/1/6 7/2/6 8/3/6
f 9/1/2 8/2/2 7/3/2 10/4/2
f 9/1/1 10/2/1 11/3/1
f 12/1/3 11/2/3 10/3/3 13/4/3
f 12/1/4 13/2/4 14/3/4
f 15/1/8 14/2/8 13/3/8 16/4/8
f 15/1/7 16/2/7 17/3/7
f 18/1/30 17/2/30 16/3/30 19/4/30
f 18/1/31 19/2/31 20/3/31
f 7/1/10 4/2/10 3/3/10
f 3/1/13 21/2/13 19/3/13
f 19/1/12 16/2/12 13/3/12
f 13/1/14 10/2/14 7/3/14
f 7/1/9 3/2/9 19/3/9
f 19/1/11 13/2/11 7/3/11
f 22/1/46 20/2/46 19/3/46 21/4/46
f 22/1/45 21/2/45 23/3/45
f 24/1/41 23/2/41 21/3/41 3/4/41
f 24/1/42 3/2/42 2/3/42
f 25/1/43 26/2/43 27/3/43
f 28/1/43 25/2/43 27/3/43 29/4/43
f 29/1/39 27/2/39 30/3/39
f 29/1/39 30/2/39 31/3/39
f 31/1/38 30/2/38 32/3/38
f 31/1/38 32/2/38 33/3/38
f 34/1/35 33/2/35 32/3/35 35/4/35
f 36/1/35 33/2/35 34/3/35
f 37/1/16 35/2/16 32/3/16
f 32/1/16 30/2/16 27/3/16
f 38/1/16 27/2/16 26/3/16
f 39/1/16 37/2/16 32/3/16 27/4/16
f 40/1/16 27/2/16 38/3/16
f 41/1/16 39/2/16 27/3/16
f 42/1/16 27/2/16 40/3/16
f 43/1/16 41/2/16 27/3/16 42/4/16
f 44/1/15 28/2/15 29/3/15 31/4/15
f 45/1/15 31/2/15 33/3/15 36/4/15
f 46/1/15 44/2/15 31/3/15
f 47/1/15 31/2/15 45/3/15
f 48/1/15 49/2/15 46/3/15
f 48/1/15 46/2/15 31/3/15
f 48/1/15 31/2/15 47/3/15
f 50/1/15 49/2/15 48/3/15
f 51/1/27 52/2/27 53/3/27
f 51/1/26 53/2/26 54/3/26
f 55/1/24 54/2/24 53/3/24 56/4/24
f 55/1/25 56/2/25 57/3/25
f 58/1/20 59/2/20 57/3/20
f 58/1/20 57/2/20 56/3/20
f 58/1/20 56/2/20 60/3/20
f 58/1/21 60/2/21 61/3/21
f 61/1/17 60/2/17 62/3/17
f 63/1/16 62/2/16 60/3/16
f 60/1/16 56/2/16 53/3/16
f 64/1/16 53/2/16 52/3/16
f 65/1/16 63/2/16 60/3/16 53/4/16
f 66/1/16 53/2/16 64/3/16
f 67/1/16 65/2/16 53/3/16
f 68/1/16 53/2/16 66/3/16
f 69/1/16 67/2/16 53/3/16 68/4/16
f 70/1/36 71/2/36 72/3/36
f 72/1/33 71/2/33 73/3/33 74/4/33
f 72/1/34 74/2/34 75/3/34
f 76/1/29 75/2/29 74/3/29 77/4/29
f 75/1/28 76/2/28 78/3/28 79/4/28
f 80/1/23 79/2/23 78/3/23
f 81/1/22 79/2/22 80/3/22
f 82/1/16 83/2/16 77/3/16
f 82/1/16 77/2/16 74/3/16
f 82/1/16 74/2/16 73/3/16
f 84/1/16 85/2/16 83/3/16 82/4/16
f 86/1/16 85/2/16 84/3/16
f 87/1/15 70/2/15 72/3/15 75/4/15
f 88/1/15 75/2/15 79/3/15 81/4/15
f 89/1/15 87/2/15 75/3/15
f 90/1/15 75/2/15 88/3/15
f 91/1/15 92/2/15 89/3/15
f 91/1/15 89/2/15 75/3/15
f 91/1/15 75/2/15 90/3/15
f 93/1/15 92/2/15 91/3/15
usemtl dvss_5
f 94/1/44 95/2/44 96/3/44 97/4/44
f 98/1/40 97/2/40 96/3/40
f 97/1/40 98/2/40 99/3/40 100/4/40
f 101/1/37 100/2/37 99/3/37
f 100/1/37 101/2/37 102/3/37 103/4/37
f 104/1/32 105/2/32 103/3/32 102/4/32
f 106/1/32 103/2/32 105/3/32
f 107/1/15 94/2/15 97/3/15
f 97/1/15 100/2/15 103/3/15
f 108/1/15 103/2/15 106/3/15
f 109/1/15 107/2/15 97/3/15
f 110/1/15 97/2/15 103/3/15 108/4/15
f 111/1/15 109/2/15 97/3/15 110/4/15
