# Generated by tools-import-turbines.py; estimated STEP scale.
mtllib materials.mtl
s off
v 0.011148517 0.795382275 1.000000000
v 0.011148517 0.800000200 1.000000000
v 0.005025400 0.800000200 0.994974900
v 0.011148517 0.720000300 1.000000000
v 0.005025400 0.720000300 0.994974900
v 0.000000000 0.724618485 0.988851427
v 0.000000000 0.800000200 0.988851427
v 0.000000000 0.720000300 0.988851427
v 0.000000000 0.795382280 0.011148510
v 0.000000000 0.800000200 0.011148510
v 0.005025100 0.800000200 0.005025400
v 0.000000000 0.720000300 0.011148510
v 0.005025100 0.720000300 0.005025400
v 0.011148573 0.724618485 0.000000000
v 0.011148573 0.800000200 0.000000000
v 0.011148573 0.720000300 0.000000000
v 0.988851490 0.795382280 0.000000000
v 0.988851490 0.800000200 0.000000000
v 0.994974600 0.800000200 0.005025100
v 0.988851490 0.720000300 0.000000000
v 0.994974600 0.720000300 0.005025100
v 1.000000000 0.724618485 0.011148573
v 1.000000000 0.800000200 0.011148573
v 1.000000000 0.720000300 0.011148573
v 1.000000000 0.795382275 0.988851483
v 1.000000000 0.800000200 0.988851483
v 0.994974900 0.800000200 0.994974600
v 1.000000000 0.720000300 0.988851483
v 0.994974900 0.720000300 0.994974600
v 0.988851427 0.724618485 1.000000000
v 0.988851427 0.800000200 1.000000000
v 0.988851427 0.720000300 1.000000000
v 0.987453859 0.800000200 1.000000000
v 1.000000000 0.800000200 0.987453997
v 1.000000000 0.800000200 0.012546141
v 0.987454002 0.800000200 0.000000000
v 0.012546141 0.800000200 0.000000000
v 0.000000000 0.800000200 0.012545998
v 0.000000000 0.800000200 0.987453859
v 0.012546003 0.800000200 1.000000000
v 1.000000000 0.800000200 0.914593977
v 0.914594023 0.800000200 1.000000000
v 0.914594039 0.800000200 0.000000000
v 1.000000000 0.800000200 0.085405939
v 0.000000000 0.800000200 0.085405961
v 0.085405939 0.800000200 0.000000000
v 0.085406023 0.800000200 1.000000000
v 0.000000000 0.800000200 0.914594023
v 1.000000000 0.800000200 0.828649908
v 0.586324395 0.800000200 1.000000000
v 0.828649943 0.800000200 0.000000000
v 1.000000000 0.800000200 0.413675566
v 0.000000000 0.800000200 0.171350041
v 0.413675418 0.800000200 0.000000000
v 0.171350076 0.800000200 1.000000000
v 0.000000000 0.800000200 0.586324543
v 0.707106688 0.800000200 0.000000000
v 0.292893270 0.800000200 1.000000000
v 0.000000000 0.720000300 0.970927758
v 0.029072258 0.720000300 1.000000000
v 0.029072200 0.720000300 0.000000000
v 0.000000000 0.720000300 0.029072200
v 1.000000000 0.720000300 0.029072200
v 0.970927800 0.720000300 0.000000000
v 0.970927758 0.720000300 1.000000000
v 1.000000000 0.720000300 0.970927742
v 0.000000000 0.720000300 0.915754466
v 0.056291104 0.720000300 1.000000000
v 0.084245471 0.720000300 0.000000000
v 0.000000000 0.720000300 0.056291050
v 1.000000000 0.720000300 0.084245471
v 0.943708950 0.720000300 0.000000000
v 0.915754466 0.720000300 1.000000000
v 1.000000000 0.720000300 0.943708896
v 0.000000000 0.720000300 0.761211797
v 0.357371881 0.720000300 1.000000000
v 0.238788203 0.720000300 0.000000000
v 0.000000000 0.720000300 0.357371881
v 1.000000000 0.720000300 0.238788203
v 0.642628119 0.720000300 0.000000000
v 0.761211797 0.720000300 1.000000000
v 1.000000000 0.720000300 0.642628119
v 0.400543763 0.720000300 0.000000000
v 0.599456237 0.720000300 1.000000000
v 1.000000000 0.586500200 1.000000000
v 1.000000000 0.586500200 0.941158931
v 0.857945128 0.586500200 1.000000000
v 0.941158931 0.586500200 0.000000000
v 1.000000000 0.586500200 0.142054872
v 1.000000000 0.586500200 0.000000000
v 0.000000000 0.586500200 0.000000000
v 0.000000000 0.586500200 0.058841069
v 0.142054872 0.586500200 0.000000000
v 0.058841069 0.586500200 1.000000000
v 0.000000000 0.586500200 0.857945128
v 0.000000000 0.586500200 1.000000000
v 0.707106729 0.586500200 0.000000000
v 0.292893271 0.586500200 1.000000000
v 0.000000000 0.573499700 1.000000000
v 0.000000000 0.573499700 0.886225023
v 0.170276306 0.573499700 1.000000000
v 0.113775011 0.573499700 0.000000000
v 0.000000000 0.573499700 0.170276381
v 0.000000000 0.573499700 0.000000000
v 1.000000000 0.573499700 0.000000000
v 1.000000000 0.573499700 0.113774966
v 0.829723669 0.573499700 0.000000000
v 0.886225067 0.573499700 1.000000000
v 1.000000000 0.573499700 0.829723744
v 1.000000000 0.573499700 1.000000000
v 0.400543750 0.573499700 0.000000000
v 0.599456230 0.573499700 1.000000000
v 1.000000000 0.620500600 1.000000000
v 1.000000000 0.620500600 0.941158931
v 0.857945128 0.620500600 1.000000000
v 0.941158931 0.620500600 0.000000000
v 1.000000000 0.620500600 0.142054872
v 1.000000000 0.620500600 0.000000000
v 0.000000000 0.620500600 0.000000000
v 0.000000000 0.620500600 0.058841069
v 0.142054872 0.620500600 0.000000000
v 0.058841069 0.620500600 1.000000000
v 0.000000000 0.620500600 0.857945128
v 0.000000000 0.620500600 1.000000000
v 0.707106729 0.620500600 0.000000000
v 0.292893271 0.620500600 1.000000000
v 0.000000000 0.607500100 1.000000000
v 0.000000000 0.607500100 0.886225023
v 0.170276306 0.607500100 1.000000000
v 0.113775011 0.607500100 0.000000000
v 0.000000000 0.607500100 0.170276381
v 0.000000000 0.607500100 0.000000000
v 1.000000000 0.607500100 0.000000000
v 1.000000000 0.607500100 0.113774966
v 0.829723669 0.607500100 0.000000000
v 0.886225067 0.607500100 1.000000000
v 1.000000000 0.607500100 0.829723744
v 1.000000000 0.607500100 1.000000000
v 0.400543750 0.607500100 0.000000000
v 0.599456230 0.607500100 1.000000000
v 1.000000000 0.654500000 1.000000000
v 1.000000000 0.654500000 0.941158931
v 0.857945128 0.654500000 1.000000000
v 0.941158931 0.654500000 0.000000000
v 1.000000000 0.654500000 0.142054872
v 1.000000000 0.654500000 0.000000000
v 0.000000000 0.654500000 0.000000000
v 0.000000000 0.654500000 0.058841069
v 0.142054872 0.654500000 0.000000000
v 0.058841069 0.654500000 1.000000000
v 0.000000000 0.654500000 0.857945128
v 0.000000000 0.654500000 1.000000000
v 0.707106729 0.654500000 0.000000000
v 0.292893271 0.654500000 1.000000000
v 0.000000000 0.641499500 1.000000000
v 0.000000000 0.641499500 0.886225023
v 0.170276306 0.641499500 1.000000000
v 0.113775011 0.641499500 0.000000000
v 0.000000000 0.641499500 0.170276381
v 0.000000000 0.641499500 0.000000000
v 1.000000000 0.641499500 0.000000000
v 1.000000000 0.641499500 0.113774966
v 0.829723669 0.641499500 0.000000000
v 0.886225067 0.641499500 1.000000000
v 1.000000000 0.641499500 0.829723744
v 1.000000000 0.641499500 1.000000000
v 0.400543750 0.641499500 0.000000000
v 0.599456230 0.641499500 1.000000000
v 1.000000000 0.688500400 1.000000000
v 1.000000000 0.688500400 0.941158931
v 0.857945128 0.688500400 1.000000000
v 0.941158931 0.688500400 0.000000000
v 1.000000000 0.688500400 0.142054872
v 1.000000000 0.688500400 0.000000000
v 0.000000000 0.688500400 0.000000000
v 0.000000000 0.688500400 0.058841069
v 0.142054872 0.688500400 0.000000000
v 0.058841069 0.688500400 1.000000000
v 0.000000000 0.688500400 0.857945128
v 0.000000000 0.688500400 1.000000000
v 0.707106729 0.688500400 0.000000000
v 0.292893271 0.688500400 1.000000000
v 0.000000000 0.675499900 1.000000000
v 0.000000000 0.675499900 0.886225023
v 0.170276306 0.675499900 1.000000000
v 0.113775011 0.675499900 0.000000000
v 0.000000000 0.675499900 0.170276381
v 0.000000000 0.675499900 0.000000000
v 1.000000000 0.675499900 0.000000000
v 1.000000000 0.675499900 0.113774966
v 0.829723669 0.675499900 0.000000000
v 0.886225067 0.675499900 1.000000000
v 1.000000000 0.675499900 0.829723744
v 1.000000000 0.675499900 1.000000000
v 0.400543750 0.675499900 0.000000000
v 0.599456230 0.675499900 1.000000000
v 1.000000000 0.722499800 1.000000000
v 1.000000000 0.722499800 0.941158931
v 0.857945128 0.722499800 1.000000000
v 0.941158931 0.722499800 0.000000000
v 1.000000000 0.722499800 0.142054872
v 1.000000000 0.722499800 0.000000000
v 0.000000000 0.722499800 0.000000000
v 0.000000000 0.722499800 0.058841069
v 0.142054872 0.722499800 0.000000000
v 0.058841069 0.722499800 1.000000000
v 0.000000000 0.722499800 0.857945128
v 0.000000000 0.722499800 1.000000000
v 0.707106729 0.722499800 0.000000000
v 0.292893271 0.722499800 1.000000000
v 0.000000000 0.709499400 1.000000000
v 0.000000000 0.709499400 0.886225023
v 0.170276306 0.709499400 1.000000000
v 0.113775011 0.709499400 0.000000000
v 0.000000000 0.709499400 0.170276381
v 0.000000000 0.709499400 0.000000000
v 1.000000000 0.709499400 0.000000000
v 1.000000000 0.709499400 0.113774966
v 0.829723669 0.709499400 0.000000000
v 0.886225067 0.709499400 1.000000000
v 1.000000000 0.709499400 0.829723744
v 1.000000000 0.709499400 1.000000000
v 0.400543750 0.709499400 0.000000000
v 0.599456230 0.709499400 1.000000000
v 0.005724254 0.716295071 1.000000000
v 0.011148517 0.719999800 1.000000000
v 0.005025400 0.719999800 0.994974900
v 0.000000300 0.712385640 1.000000000
v 0.000000000 0.712385391 1.000000000
v 0.000000000 0.719999800 0.988851427
v 0.000000000 0.716295069 0.005724255
v 0.000000000 0.719999800 0.011148510
v 0.005025100 0.719999800 0.005025400
v 0.000000000 0.712385640 0.000000300
v 0.000000000 0.712385391 0.000000000
v 0.011148573 0.719999800 0.000000000
v 0.994275745 0.716295069 0.000000000
v 0.988851490 0.719999800 0.000000000
v 0.994974600 0.719999800 0.005025100
v 0.999999705 0.712385640 0.000000000
v 1.000000000 0.712385395 0.000000000
v 1.000000000 0.719999800 0.011148573
v 1.000000000 0.716295071 0.994275746
v 1.000000000 0.719999800 0.988851483
v 0.994974900 0.719999800 0.994974600
v 1.000000000 0.712385640 0.999999705
v 1.000000000 0.712385395 1.000000000
v 0.988851427 0.719999800 1.000000000
v 0.987453859 0.719999800 1.000000000
v 1.000000000 0.719999800 0.987453997
v 1.000000000 0.719999800 0.012546141
v 0.987454002 0.719999800 0.000000000
v 0.012546141 0.719999800 0.000000000
v 0.000000000 0.719999800 0.012545998
v 0.000000000 0.719999800 0.987453859
v 0.012546003 0.719999800 1.000000000
v 1.000000000 0.719999800 0.914593977
v 0.914594023 0.719999800 1.000000000
v 0.914594039 0.719999800 0.000000000
v 1.000000000 0.719999800 0.085405939
v 0.000000000 0.719999800 0.085405961
v 0.085405939 0.719999800 0.000000000
v 0.085406023 0.719999800 1.000000000
v 0.000000000 0.719999800 0.914594023
v 1.000000000 0.719999800 0.828649908
v 0.586324395 0.719999800 1.000000000
v 0.828649943 0.719999800 0.000000000
v 1.000000000 0.719999800 0.413675566
v 0.000000000 0.719999800 0.171350041
v 0.413675418 0.719999800 0.000000000
v 0.171350076 0.719999800 1.000000000
v 0.000000000 0.719999800 0.586324543
v 0.707106688 0.719999800 0.000000000
v 0.292893270 0.719999800 1.000000000
v 0.000000000 0.570000200 1.000000000
v 0.000000000 0.570000200 0.880271914
v 0.179185788 0.570000200 1.000000000
v 0.119728054 0.570000200 0.000000000
v 0.000000000 0.570000200 0.179185712
v 0.000000000 0.570000200 0.000000000
v 1.000000000 0.570000200 0.000000000
v 1.000000000 0.570000200 0.119728099
v 0.820814239 0.570000200 0.000000000
v 0.880271869 0.570000200 1.000000000
v 1.000000000 0.570000200 0.820814163
v 1.000000000 0.570000200 1.000000000
v 0.400543798 0.570000200 0.000000000
v 0.599456222 0.570000200 1.000000000
v 0.000000000 0.470000300 0.000000000
v 0.000000000 0.470000300 0.114613122
v 0.083271298 0.470000300 0.000000000
v 0.083271220 0.470000300 1.000000000
v 0.000000000 0.470000300 0.885387007
v 0.000000000 0.470000300 1.000000000
v 1.000000000 0.470000300 1.000000000
v 1.000000000 0.470000300 0.221879184
v 0.434662311 0.470000300 1.000000000
v 0.000000000 0.470000300 0.409022541
v 1.000000000 0.470000300 0.084102688
v 1.000000000 0.470000300 0.000000000
v 1.000000000 0.564999600 1.000000000
v 1.000000000 0.564999600 0.943454978
v 0.863488289 0.564999600 1.000000000
v 0.943454978 0.564999600 0.000000000
v 1.000000000 0.564999600 0.136511711
v 1.000000000 0.564999600 0.000000000
v 0.000000000 0.564999600 0.000000000
v 0.000000000 0.564999600 0.056545022
v 0.136511711 0.564999600 0.000000000
v 0.056545022 0.564999600 1.000000000
v 0.000000000 0.564999600 0.863488289
v 0.000000000 0.564999600 1.000000000
v 0.707106707 0.564999600 0.000000000
v 0.292893293 0.564999600 1.000000000
v 0.000000000 0.415000000 1.000000000
v 0.000000000 0.415000000 0.888776327
v 0.166458042 0.415000000 1.000000000
v 0.111223673 0.415000000 0.000000000
v 0.000000000 0.415000000 0.166458042
v 0.000000000 0.415000000 0.000000000
v 1.000000000 0.415000000 0.000000000
v 1.000000000 0.415000000 0.111223673
v 0.833541958 0.415000000 0.000000000
v 0.888776327 0.415000000 1.000000000
v 1.000000000 0.415000000 0.833541958
v 1.000000000 0.415000000 1.000000000
v 0.400543742 0.415000000 0.000000000
v 0.599456258 0.415000000 1.000000000
vt 0 0
vt 1 0
vt 1 1
vt 0 1
vn -0.773010857 0.000000000 -0.634392792
vn -0.773010729 0.000000000 0.634392948
vn -0.634392948 0.000000000 -0.773010729
vn -0.634392356 0.000000000 0.773011215
vn -0.566381080 0.680557175 0.464816527
vn -0.566380975 0.680557451 -0.464816250
vn -0.566380856 0.680557191 -0.464816776
vn -0.464817032 0.680557208 0.566380626
vn -0.464816527 0.680557175 -0.566381080
vn -0.464815680 0.680557877 0.566380931
vn 0.000000000 -1.000000000 0.000000000
vn 0.000000000 -1.000000000 0.000000000
vn 0.000000000 1.000000000 -0.000000000
vn 0.000000000 1.000000000 0.000000000
vn 0.464816250 0.680557451 -0.566380975
vn 0.464816408 0.680557378 0.566380934
vn 0.464816468 0.680557344 -0.566380926
vn 0.566380696 0.680557361 0.464816723
vn 0.566380931 0.680557877 0.464815680
vn 0.566380934 0.680557378 -0.464816408
vn 0.634392792 0.000000000 -0.773010857
vn 0.634392948 0.000000000 0.773010729
vn 0.773010729 0.000000000 -0.634392948
vn 0.773011215 0.000000000 0.634392356
usemtl dvss_1
f 1/1/4 2/2/4 3/3/4
f 4/1/4 1/2/4 3/3/4 5/4/4
f 6/1/2 5/2/2 3/3/2 7/4/2
f 8/1/2 5/2/2 6/3/2
f 9/1/1 10/2/1 11/3/1
f 12/1/1 9/2/1 11/3/1 13/4/1
f 14/1/3 13/2/3 11/3/3 15/4/3
f 16/1/3 13/2/3 14/3/3
f 17/1/21 18/2/21 19/3/21
f 20/1/21 17/2/21 19/3/21 21/4/21
f 22/1/23 21/2/23 19/3/23 23/4/23
f 24/1/23 21/2/23 22/3/23
f 25/1/24 26/2/24 27/3/24
f 28/1/24 25/2/24 27/3/24 29/4/24
f 30/1/22 29/2/22 27/3/22 31/4/22
f 32/1/22 29/2/22 30/3/22
f 33/1/14 31/2/14 27/3/14
f 34/1/14 27/2/14 26/3/14
f 35/1/14 23/2/14 19/3/14
f 36/1/14 19/2/14 18/3/14
f 37/1/14 15/2/14 11/3/14
f 38/1/14 11/2/14 10/3/14
f 39/1/14 7/2/14 3/3/14
f 40/1/14 3/2/14 2/3/14
f 41/1/14 42/2/14 33/3/14
f 41/1/14 33/2/14 27/3/14
f 41/1/14 27/2/14 34/3/14
f 43/1/14 44/2/14 35/3/14
f 43/1/14 35/2/14 19/3/14
f 43/1/14 19/2/14 36/3/14
f 45/1/14 46/2/14 37/3/14
f 45/1/14 37/2/14 11/3/14
f 45/1/14 11/2/14 38/3/14
f 47/1/14 48/2/14 39/3/14
f 47/1/14 39/2/14 3/3/14
f 47/1/14 3/2/14 40/3/14
f 49/1/14 50/2/14 42/3/14 41/4/14
f 51/1/14 52/2/14 44/3/14 43/4/14
f 53/1/14 54/2/14 46/3/14 45/4/14
f 55/1/14 56/2/14 48/3/14 47/4/14
f 57/1/14 58/2/14 50/3/14
f 57/1/14 50/2/14 49/3/14
f 57/1/14 49/2/14 52/3/14
f 57/1/14 52/2/14 51/3/14
f 58/1/14 57/2/14 54/3/14
f 58/1/14 54/2/14 53/3/14
f 58/1/14 53/2/14 56/3/14
f 58/1/14 56/2/14 55/3/14
f 59/1/11 60/2/11 4/3/11
f 59/1/11 4/2/11 5/3/11
f 59/1/11 5/2/11 8/3/11
f 61/1/11 62/2/11 12/3/11
f 61/1/11 12/2/11 13/3/11
f 61/1/11 13/2/11 16/3/11
f 63/1/11 64/2/11 20/3/11
f 63/1/11 20/2/11 21/3/11
f 63/1/11 21/2/11 24/3/11
f 65/1/11 66/2/11 28/3/11
f 65/1/11 28/2/11 29/3/11
f 65/1/11 29/2/11 32/3/11
f 67/1/11 68/2/11 60/3/11 59/4/11
f 69/1/11 70/2/11 62/3/11 61/4/11
f 71/1/11 72/2/11 64/3/11 63/4/11
f 73/1/11 74/2/11 66/3/11 65/4/11
f 75/1/11 76/2/11 68/3/11 67/4/11
f 77/1/11 78/2/11 70/3/11 69/4/11
f 79/1/11 80/2/11 72/3/11 71/4/11
f 81/1/11 82/2/11 74/3/11 73/4/11
f 83/1/11 84/2/11 76/3/11
f 83/1/11 76/2/11 75/3/11
f 83/1/11 75/2/11 78/3/11
f 83/1/11 78/2/11 77/3/11
f 84/1/11 83/2/11 80/3/11
f 84/1/11 80/2/11 79/3/11
f 84/1/11 79/2/11 82/3/11
f 84/1/11 82/2/11 81/3/11
f 85/1/14 86/2/14 87/3/14
f 88/1/14 89/2/14 90/3/14
f 91/1/14 92/2/14 93/3/14
f 94/1/14 95/2/14 96/3/14
f 97/1/14 98/2/14 87/3/14
f 97/1/14 87/2/14 86/3/14
f 97/1/14 86/2/14 89/3/14
f 97/1/14 89/2/14 88/3/14
f 98/1/14 97/2/14 93/3/14
f 98/1/14 93/2/14 92/3/14
f 98/1/14 92/2/14 95/3/14
f 98/1/14 95/2/14 94/3/14
f 99/1/11 100/2/11 101/3/11
f 102/1/11 103/2/11 104/3/11
f 105/1/11 106/2/11 107/3/11
f 108/1/11 109/2/11 110/3/11
f 111/1/12 112/2/12 101/3/12
f 111/1/12 101/2/12 100/3/12
f 111/1/12 100/2/12 103/3/12
f 111/1/12 103/2/12 102/3/12
f 112/1/11 111/2/11 107/3/11
f 112/1/11 107/2/11 106/3/11
f 112/1/11 106/2/11 109/3/11
f 112/1/11 109/2/11 108/3/11
f 113/1/14 114/2/14 115/3/14
f 116/1/14 117/2/14 118/3/14
f 119/1/14 120/2/14 121/3/14
f 122/1/14 123/2/14 124/3/14
f 125/1/14 126/2/14 115/3/14
f 125/1/14 115/2/14 114/3/14
f 125/1/14 114/2/14 117/3/14
f 125/1/14 117/2/14 116/3/14
f 126/1/14 125/2/14 121/3/14
f 126/1/14 121/2/14 120/3/14
f 126/1/14 120/2/14 123/3/14
f 126/1/14 123/2/14 122/3/14
f 127/1/11 128/2/11 129/3/11
f 130/1/11 131/2/11 132/3/11
f 133/1/11 134/2/11 135/3/11
f 136/1/11 137/2/11 138/3/11
f 139/1/11 140/2/11 129/3/11
f 139/1/11 129/2/11 128/3/11
f 139/1/11 128/2/11 131/3/11
f 139/1/11 131/2/11 130/3/11
f 140/1/11 139/2/11 135/3/11
f 140/1/11 135/2/11 134/3/11
f 140/1/11 134/2/11 137/3/11
f 140/1/11 137/2/11 136/3/11
f 141/1/14 142/2/14 143/3/14
f 144/1/14 145/2/14 146/3/14
f 147/1/14 148/2/14 149/3/14
f 150/1/14 151/2/14 152/3/14
f 153/1/14 154/2/14 143/3/14
f 153/1/14 143/2/14 142/3/14
f 153/1/14 142/2/14 145/3/14
f 153/1/14 145/2/14 144/3/14
f 154/1/14 153/2/14 149/3/14
f 154/1/14 149/2/14 148/3/14
f 154/1/14 148/2/14 151/3/14
f 154/1/14 151/2/14 150/3/14
f 155/1/11 156/2/11 157/3/11
f 158/1/11 159/2/11 160/3/11
f 161/1/11 162/2/11 163/3/11
f 164/1/11 165/2/11 166/3/11
f 167/1/11 168/2/11 157/3/11
f 167/1/11 157/2/11 156/3/11
f 167/1/11 156/2/11 159/3/11
f 167/1/11 159/2/11 158/3/11
f 168/1/11 167/2/11 163/3/11
f 168/1/11 163/2/11 162/3/11
f 168/1/11 162/2/11 165/3/11
f 168/1/11 165/2/11 164/3/11
f 169/1/14 170/2/14 171/3/14
f 172/1/14 173/2/14 174/3/14
f 175/1/14 176/2/14 177/3/14
f 178/1/14 179/2/14 180/3/14
f 181/1/14 182/2/14 171/3/14
f 181/1/14 171/2/14 170/3/14
f 181/1/14 170/2/14 173/3/14
f 181/1/14 173/2/14 172/3/14
f 182/1/14 181/2/14 177/3/14
f 182/1/14 177/2/14 176/3/14
f 182/1/14 176/2/14 179/3/14
f 182/1/14 179/2/14 178/3/14
f 183/1/11 184/2/11 185/3/11
f 186/1/11 187/2/11 188/3/11
f 189/1/11 190/2/11 191/3/11
f 192/1/11 193/2/11 194/3/11
f 195/1/11 196/2/11 185/3/11
f 195/1/11 185/2/11 184/3/11
f 195/1/11 184/2/11 187/3/11
f 195/1/11 187/2/11 186/3/11
f 196/1/11 195/2/11 191/3/11
f 196/1/11 191/2/11 190/3/11
f 196/1/11 190/2/11 193/3/11
f 196/1/11 193/2/11 192/3/11
f 197/1/14 198/2/14 199/3/14
f 200/1/14 201/2/14 202/3/14
f 203/1/14 204/2/14 205/3/14
f 206/1/14 207/2/14 208/3/14
f 209/1/14 210/2/14 199/3/14
f 209/1/14 199/2/14 198/3/14
f 209/1/14 198/2/14 201/3/14
f 209/1/14 201/2/14 200/3/14
f 210/1/14 209/2/14 205/3/14
f 210/1/14 205/2/14 204/3/14
f 210/1/14 204/2/14 207/3/14
f 210/1/14 207/2/14 206/3/14
f 211/1/11 212/2/11 213/3/11
f 214/1/11 215/2/11 216/3/11
f 217/1/11 218/2/11 219/3/11
f 220/1/11 221/2/11 222/3/11
f 223/1/11 224/2/11 213/3/11
f 223/1/11 213/2/11 212/3/11
f 223/1/11 212/2/11 215/3/11
f 223/1/11 215/2/11 214/3/11
f 224/1/11 223/2/11 219/3/11
f 224/1/11 219/2/11 218/3/11
f 224/1/11 218/2/11 221/3/11
f 224/1/11 221/2/11 220/3/11
usemtl dvss_2
f 225/1/10 226/2/10 227/3/10
f 225/1/8 227/2/8 228/3/8
f 229/1/5 228/2/5 227/3/5 230/4/5
f 231/1/6 232/2/6 233/3/6
f 231/1/7 233/2/7 234/3/7
f 235/1/9 234/2/9 233/3/9 236/4/9
f 237/1/15 238/2/15 239/3/15
f 237/1/17 239/2/17 240/3/17
f 241/1/20 240/2/20 239/3/20 242/4/20
f 243/1/19 244/2/19 245/3/19
f 243/1/18 245/2/18 246/3/18
f 247/1/16 246/2/16 245/3/16 248/4/16
f 249/1/14 248/2/14 245/3/14
f 250/1/14 245/2/14 244/3/14
f 251/1/14 242/2/14 239/3/14
f 252/1/14 239/2/14 238/3/14
f 253/1/14 236/2/14 233/3/14
f 254/1/14 233/2/14 232/3/14
f 255/1/14 230/2/14 227/3/14
f 256/1/14 227/2/14 226/3/14
f 257/1/14 258/2/14 249/3/14
f 257/1/14 249/2/14 245/3/14
f 257/1/14 245/2/14 250/3/14
f 259/1/14 260/2/14 251/3/14
f 259/1/14 251/2/14 239/3/14
f 259/1/14 239/2/14 252/3/14
f 261/1/14 262/2/14 253/3/14
f 261/1/14 253/2/14 233/3/14
f 261/1/14 233/2/14 254/3/14
f 263/1/14 264/2/14 255/3/14
f 263/1/14 255/2/14 227/3/14
f 263/1/14 227/2/14 256/3/14
f 265/1/14 266/2/14 258/3/14 257/4/14
f 267/1/14 268/2/14 260/3/14 259/4/14
f 269/1/14 270/2/14 262/3/14 261/4/14
f 271/1/14 272/2/14 264/3/14 263/4/14
f 273/1/14 274/2/14 266/3/14
f 273/1/14 266/2/14 265/3/14
f 273/1/14 265/2/14 268/3/14
f 273/1/14 268/2/14 267/3/14
f 274/1/14 273/2/14 270/3/14
f 274/1/14 270/2/14 269/3/14
f 274/1/14 269/2/14 272/3/14
f 274/1/14 272/2/14 271/3/14
f 275/1/11 276/2/11 277/3/11
f 278/1/11 279/2/11 280/3/11
f 281/1/11 282/2/11 283/3/11
f 284/1/11 285/2/11 286/3/11
f 287/1/11 288/2/11 277/3/11
f 287/1/11 277/2/11 276/3/11
f 287/1/11 276/2/11 279/3/11
f 287/1/11 279/2/11 278/3/11
f 288/1/11 287/2/11 283/3/11
f 288/1/11 283/2/11 282/3/11
f 288/1/11 282/2/11 285/3/11
f 288/1/11 285/2/11 284/3/11
f 289/1/14 290/2/14 291/3/14
f 292/1/14 293/2/14 294/3/14
f 295/1/14 296/2/14 297/3/14
f 298/1/14 299/2/14 300/3/14
f 298/1/14 300/2/14 291/3/14
f 298/1/14 291/2/14 290/3/14
f 297/1/14 296/2/14 299/3/14
f 297/1/14 299/2/14 298/3/14
f 297/1/14 298/2/14 293/3/14
f 297/1/14 293/2/14 292/3/14
f 301/1/14 302/2/14 303/3/14
f 304/1/14 305/2/14 306/3/14
f 307/1/14 308/2/14 309/3/14
f 310/1/14 311/2/14 312/3/14
f 313/1/14 314/2/14 303/3/14
f 313/1/14 303/2/14 302/3/14
f 313/1/14 302/2/14 305/3/14
f 313/1/14 305/2/14 304/3/14
f 314/1/13 313/2/13 309/3/13
f 314/1/13 309/2/13 308/3/13
f 314/1/13 308/2/13 311/3/13
f 314/1/13 311/2/13 310/3/13
f 315/1/11 316/2/11 317/3/11
f 318/1/11 319/2/11 320/3/11
f 321/1/11 322/2/11 323/3/11
f 324/1/11 325/2/11 326/3/11
f 327/1/11 328/2/11 317/3/11
f 327/1/11 317/2/11 316/3/11
f 327/1/11 316/2/11 319/3/11
f 327/1/11 319/2/11 318/3/11
f 328/1/11 327/2/11 323/3/11
f 328/1/11 323/2/11 322/3/11
f 328/1/11 322/2/11 325/3/11
f 328/1/11 325/2/11 324/3/11
