# Authored in Blender; exported by tools-export-modern.py
mtllib materials.mtl
s off
v 1.000000000 1.000000000 0.016598869
v 0.000000000 1.000000000 0.016598869
v 0.000000000 0.990883172 0.009116888
v 1.000000000 0.990883172 0.009116888
v 1.000000000 0.983401133 0.000000000
v 0.000000000 0.983401133 0.000000000
v 0.959499836 0.393000007 0.361059904
v 0.941499949 0.393000007 0.343060017
v 0.959499836 0.375000000 0.343060017
v 0.941499949 0.507000029 0.343060017
v 0.959499836 0.507000029 0.361059904
v 0.959499836 0.525000036 0.343060017
v 1.000000000 0.376197049 0.344257058
v 1.000000000 0.375000000 0.343060017
v 1.000000000 0.393000007 0.361059904
v 0.951639589 0.382860299 0.000000000
v 0.941499949 0.393000007 0.000000000
v 0.959499836 0.375000000 0.000000000
v 0.949360196 0.514860329 0.000000000
v 0.959499836 0.525000036 0.000000000
v 0.941499949 0.507000029 0.000000000
v 1.000000000 0.508197078 0.359862863
v 1.000000000 0.507000029 0.361059904
v 1.000000000 0.525000036 0.343060017
v 1.000000000 0.400581317 0.361059904
v 1.000000000 0.375000000 0.000000000
v 1.000000000 0.375000000 0.302559861
v 0.941499949 0.442781894 0.000000000
v 1.000000000 0.525000036 0.302559861
v 1.000000000 0.525000036 0.000000000
v 1.000000000 0.005771882 0.762772051
v 0.000000000 0.003619801 0.760619985
v 0.000000000 0.000000000 0.757000208
v 1.000000000 0.000000000 0.757000208
v 1.000000000 0.018000007 0.775000095
v 0.000000000 0.018000007 0.775000095
v 0.000000000 0.014380206 0.388620006
v 1.000000000 0.012228125 0.390772072
v 1.000000000 0.000000000 0.403000116
v 0.000000000 0.000000000 0.403000116
v 0.000000000 0.018000007 0.385000229
v 1.000000000 0.018000007 0.385000229
v 1.000000000 0.377771891 0.769228252
v 0.000000000 0.375619810 0.771380319
v 0.000000000 0.372000009 0.775000095
v 1.000000000 0.372000009 0.775000095
v 1.000000000 0.390000015 0.757000208
v 0.000000000 0.390000015 0.757000208
v 0.000000000 0.386380215 0.399380340
v 1.000000000 0.384228134 0.397228273
v 1.000000000 0.372000009 0.385000229
v 0.000000000 0.372000009 0.385000229
v 0.000000000 0.390000015 0.403000116
v 1.000000000 0.390000015 0.403000116
v 1.000000000 0.131513640 0.775000095
v 0.000000000 0.089189394 0.775000095
v 1.000000000 0.000000000 0.643486546
v 0.000000000 0.000000000 0.685810802
v 0.000000000 0.300810621 0.385000229
v 1.000000000 0.258486376 0.385000229
v 1.000000000 0.390000015 0.643486546
v 0.000000000 0.390000015 0.685810802
v 1.000000000 0.259269291 0.675769417
v 0.000000000 0.257615487 0.674115646
v 0.000000000 0.254999995 0.671500206
v 1.000000000 0.254999995 0.671500206
v 1.000000000 0.268500000 0.684999943
v 0.000000000 0.268500000 0.684999943
v 1.000000000 0.320769274 0.680730732
v 0.000000000 0.319115470 0.682384503
v 0.000000000 0.316499978 0.684999943
v 1.000000000 0.316499978 0.684999943
v 1.000000000 0.329999983 0.671500206
v 0.000000000 0.329999983 0.671500206
v 1.000000000 0.283679707 0.684999943
v 0.000000000 0.277799520 0.684999943
v 0.758002897 0.254999995 0.000000000
v 0.000000000 0.254999995 0.217567153
v 0.000000000 0.254999995 0.000000000
v 1.000000000 0.254999995 0.000000000
v 1.000000000 0.329999983 0.000000000
v 0.758002897 0.329999983 0.000000000
v 0.000000000 0.329999983 0.217567153
v 0.000000000 0.329999983 0.000000000
vt 0.713541678 0.021809893
vt 0.670138883 0.021809893
vt 0.670138883 0.021067964
vt 0.713541678 0.021067964
vt 0.713541678 0.021809898
vt 0.670138883 0.021809898
vt 0.632176578 0.014453123
vt 0.630541444 0.012572674
vt 0.632176578 0.007176600
vt 0.632176578 0.107031256
vt 0.631358981 0.107031249
vt 0.632176638 0.121093750
vt 0.639534889 0.007660508
vt 0.639534893 0.007176600
vt 0.639534889 0.014453123
vt 0.631462542 0.071862186
vt 0.629620312 0.071862178
vt 0.632176578 0.069505812
vt 0.694505803 0.113172106
vt 0.694505803 0.121093750
vt 0.694505777 0.107031252
vt 0.638771665 0.107966442
vt 0.638771665 0.107031249
vt 0.639534945 0.121093750
vt 0.639534889 0.020609820
vt 0.639534893 0.069505811
vt 0.639534893 0.014534912
vt 0.694505811 0.056860843
vt 0.693791775 0.015612373
vt 0.639534893 0.014643656
vt 0.632176612 0.069505808
vt 0.639534923 0.069614551
vt 0.041573665 0.133881315
vt 0.027622771 0.134042978
vt 0.027622768 0.134314895
vt 0.041573660 0.134314895
vt 0.041573666 0.132962738
vt 0.027622772 0.132962737
vt 0.027622775 0.245006081
vt 0.041573665 0.244359419
vt 0.041573660 0.240685090
vt 0.027622768 0.240685090
vt 0.027622776 0.246093762
vt 0.041573668 0.246093760
vt 0.041531014 0.242419421
vt 0.027572615 0.241772760
vt 0.027572614 0.240685079
vt 0.041531011 0.240685080
vt 0.043909479 0.246093750
vt 0.030369677 0.246093750
vt 0.027622768 0.240685076
vt 0.041573659 0.240685076
vt 0.041573660 0.240685086
vt 0.027622768 0.240685087
vt 0.027363473 0.241228921
vt 0.041160206 0.241552253
vt 0.041573661 0.167504982
vt 0.027622769 0.154625696
vt 0.041573660 0.168423559
vt 0.027622768 0.155705937
vt 0.027622770 0.219294048
vt 0.041573662 0.206576426
vt 0.041573662 0.134314905
vt 0.027622770 0.134314907
vt 0.041160206 0.169290732
vt 0.027363473 0.156249779
vt 0.027622771 0.134314898
vt 0.041573664 0.134314899
vt 0.041118175 0.134251655
vt 0.026824096 0.132374934
vt 0.026824095 0.129439230
vt 0.041118173 0.129459673
vt 0.041004071 0.148332315
vt 0.026689548 0.148978331
vt 0.041004069 0.231670779
vt 0.026689547 0.229086712
vt 0.026689548 0.225000006
vt 0.041004071 0.225000004
vt 0.041253320 0.246093750
vt 0.026983455 0.246093750
vt 0.041004071 0.173718305
vt 0.026689548 0.164530509
vt 0.037659050 0.162657859
vt 0.026824096 0.151884495
vt 0.026813084 0.162657862
vt 0.041118175 0.162662807
vt 0.041003100 0.162872565
vt 0.037540459 0.162872565
vt 0.026705506 0.152083704
vt 0.026728483 0.129573777
vt 0.041037090 0.129573777
vt 0.026705506 0.162841571
vn 0.000000000 -0.634392944 0.773010732
vn 0.000000000 -0.773010355 0.634393404
vn -0.577351544 -0.577347720 0.577351544
vn -0.577351544 0.577347720 0.577351544
vn 0.000000000 -0.707104440 0.707109123
vn -0.707109123 -0.707104440 -0.000000000
vn -0.707109123 0.707104440 0.000000000
vn -0.000000000 0.707104440 0.707109123
vn -0.707106781 0.000000000 0.707106781
vn 0.000000000 0.000000000 1.000000000
vn 0.000000000 -1.000000000 0.000000000
vn -1.000000000 0.000000000 0.000000000
vn -0.000000000 1.000000000 0.000000000
vn -0.000000000 -0.707104440 -0.707109123
vn 0.000000000 0.707104440 -0.707109123
vn 0.000000000 0.000000000 -1.000000000
vn 0.000000000 -0.707099757 0.707113806
vn -0.000000000 0.707099757 0.707113806
usemtl mat_0
f 1/1/1 2/2/1 3/3/1 4/4/1
f 5/5/2 4/4/2 3/3/2 6/6/2
f 7/7/3 8/8/3 9/9/3
f 10/10/4 11/11/4 12/12/4
f 13/13/5 9/9/5 14/14/5
f 9/9/5 13/13/5 15/15/5 7/7/5
f 16/16/6 8/8/6 17/17/6
f 8/8/6 16/16/6 18/18/6 9/9/6
f 19/19/7 12/12/7 20/20/7
f 12/12/7 19/19/7 21/21/7 10/10/7
f 22/22/8 11/11/8 23/23/8
f 11/11/8 22/22/8 24/24/8 12/12/8
f 7/7/9 11/11/9 10/10/9
f 7/7/9 10/10/9 8/8/9
f 25/25/10 7/7/10 15/15/10
f 7/7/10 25/25/10 23/23/10 11/11/10
f 26/26/11 27/27/11 9/9/11 18/18/11
f 14/14/11 9/9/11 27/27/11
f 28/28/12 17/29/12 8/8/12 10/10/12
f 28/28/12 10/10/12 21/21/12
f 29/30/13 12/9/13 24/14/13
f 20/31/13 12/9/13 29/30/13 30/32/13
usemtl mat_2
f 31/33/5 32/34/5 33/35/5 34/36/5
f 32/34/5 31/33/5 35/37/5 36/38/5
f 37/39/14 38/40/14 39/41/14 40/42/14
f 38/40/14 37/39/14 41/43/14 42/44/14
f 43/45/8 44/46/8 45/47/8 46/48/8
f 44/46/8 43/45/8 47/49/8 48/50/8
f 49/51/15 50/52/15 51/53/15 52/54/15
f 50/52/15 49/51/15 53/55/15 54/56/15
f 55/57/10 56/58/10 36/38/10 35/37/10
f 56/58/10 55/57/10 46/48/10 45/47/10
f 57/59/11 58/60/11 40/42/11 39/41/11
f 34/36/11 33/35/11 58/60/11 57/59/11
f 59/61/16 60/62/16 42/63/16 41/64/16
f 60/62/16 59/61/16 52/54/16 51/53/16
f 61/65/13 62/66/13 48/67/13 47/68/13
f 62/66/13 61/65/13 54/56/13 53/55/13
f 63/69/17 64/70/17 65/71/17 66/72/17
f 64/70/17 63/69/17 67/73/17 68/74/17
f 69/75/18 70/76/18 71/77/18 72/78/18
f 70/76/18 69/75/18 73/79/18 74/80/18
f 75/81/10 76/82/10 68/74/10 67/73/10
f 76/82/10 75/81/10 72/78/10 71/77/10
f 77/83/11 78/84/11 79/85/11
f 80/86/11 66/72/11 65/71/11
f 80/86/11 65/71/11 78/84/11
f 80/86/11 78/84/11 77/83/11
f 81/87/13 82/88/13 83/89/13
f 81/87/13 83/89/13 74/90/13
f 81/87/13 74/90/13 73/91/13
f 84/92/13 83/89/13 82/88/13
