# Authored in Blender; exported by tools-export-modern.py
mtllib materials.mtl
s off
v 0.000000000 0.925851607 0.077450961
v 0.000000000 0.900010586 0.098658085
v 0.539999962 0.900010586 0.098658085
v 0.000000000 1.000000000 0.016599101
v 0.539999962 1.000000000 0.016599101
v 0.000000000 0.805013774 0.149434975
v 0.000000000 0.775532007 0.165193319
v 0.539999962 0.775532007 0.165193319
v 0.000000000 0.672454569 0.196461421
v 0.000000000 0.640465021 0.206165314
v 0.539999962 0.640465021 0.206165314
v 0.000000000 0.533268029 0.216723386
v 0.000000000 0.500000000 0.220000029
v 0.539999962 0.500000000 0.220000029
v 0.000000000 0.392803008 0.209441957
v 0.000000000 0.359534979 0.206165314
v 0.539999962 0.359534979 0.206165314
v 0.000000000 0.256457540 0.174897212
v 0.000000000 0.224467993 0.165193319
v 0.539999962 0.224467993 0.165193319
v 0.000000000 0.129471272 0.114416429
v 0.000000000 0.099989533 0.098658085
v 0.539999962 0.099989533 0.098658085
v 0.349485236 0.000000000 0.016598869
v 0.000000000 0.016724150 0.030324012
v 0.000000000 0.000000000 0.016598869
v 0.539999962 0.000000000 0.016598869
v 0.548773940 1.000000000 0.016599101
v 0.644999981 0.900010586 0.098658085
v 0.644999981 1.000000000 0.016599101
v 0.644999981 0.775532007 0.165193319
v 0.644999981 0.640465021 0.206165314
v 0.644999981 0.500000000 0.220000029
v 0.644999981 0.359534979 0.206165314
v 0.644999981 0.224467993 0.165193319
v 0.644999981 0.099989533 0.098658085
v 0.636226275 0.000000000 0.016598869
v 0.644999981 0.000000000 0.016598869
v 0.697547744 0.918480522 0.000000000
v 0.650285755 1.000000000 0.008199821
v 0.741132631 0.834089296 0.000000000
v 0.655445998 1.000000000 0.000000000
v 0.750000000 0.725936174 0.045458317
v 0.750000000 0.810983079 0.000000000
v 0.750000000 0.615181446 0.079055548
v 0.750000000 0.500000000 0.090399981
v 0.750000000 0.384818673 0.079055548
v 0.750000000 0.274063826 0.045458317
v 0.744517680 0.174731289 0.000000000
v 0.741132631 0.165910714 0.000000000
v 0.750000000 0.189016921 0.000000000
v 0.702175007 0.090479230 0.000000000
v 0.655445819 0.000000000 0.000000054
v 0.750000000 0.806038528 0.000000000
v 0.750000000 0.193961484 0.000000000
v 0.750000000 0.733496473 0.000000000
v 0.750000000 0.217741801 0.000000000
v 0.750000000 0.668004685 0.000000000
v 0.750000000 0.496866430 0.000000000
v 0.750000000 0.599456310 0.000000000
v 0.563848856 1.000000000 0.058311441
v 0.517499924 1.000000000 0.058311441
v 0.517499924 0.918011189 0.125597715
v 0.682499886 0.918011189 0.125597715
v 0.682499886 1.000000000 0.058311441
v 0.517499924 0.787930965 0.195127010
v 0.682499886 0.787930965 0.195127010
v 0.517499924 0.646785975 0.237942934
v 0.682499886 0.646785975 0.237942934
v 0.517499924 0.500000000 0.252400160
v 0.682499886 0.500000000 0.252400160
v 0.517499924 0.353214025 0.237942934
v 0.682499886 0.353214025 0.237942934
v 0.517499924 0.212069035 0.195127010
v 0.682499886 0.212069035 0.195127010
v 0.517499924 0.081989050 0.125597715
v 0.682499886 0.081989050 0.125597715
v 0.636151423 0.000000000 0.058311175
v 0.517499924 0.000000000 0.058311175
v 0.682499886 0.000000000 0.058311175
v 0.517499924 0.000000000 0.053427076
v 0.517499924 1.000000000 0.053427283
v 0.517499924 0.000000000 0.045293318
v 0.517499924 1.000000000 0.045293457
v 0.517499924 0.247599880 0.000000000
v 0.517499924 0.000000000 0.000000000
v 0.517499924 1.000000000 0.000000000
v 0.517499924 0.752400160 0.000000000
v 0.517499924 0.500000000 0.000000000
v 0.682499886 1.000000000 0.043608857
v 0.682499886 0.000000000 0.043608713
v 0.682499886 1.000000000 0.001932803
v 0.682499886 0.000000000 0.002892465
v 0.682499886 0.805774361 0.000000000
v 0.682499886 1.000000000 0.000000000
v 0.682499886 0.000000000 0.000000000
v 0.682499886 0.290679258 0.000000000
v 0.682499886 0.599456183 0.000000000
v 0.511499882 0.627823234 0.184610605
v 0.511499882 0.664196253 0.163610458
v 0.477899790 0.664196253 0.163610458
v 0.477899790 0.627823234 0.184610605
v 0.511499882 0.664196253 0.121610641
v 0.477899790 0.664196253 0.121610641
v 0.511499882 0.627823234 0.100610495
v 0.477899790 0.627823234 0.100610495
v 0.511499882 0.591450214 0.121610641
v 0.477899790 0.591450214 0.121610641
v 0.511499882 0.591450214 0.163610458
v 0.477899790 0.591450214 0.163610458
v 0.511499882 0.864009619 0.086778879
v 0.511499882 0.900382638 0.065778732
v 0.477899790 0.900382638 0.065778732
v 0.477899790 0.864009619 0.086778879
v 0.511499882 0.900382638 0.023778915
v 0.477899790 0.900382638 0.023778915
v 0.511499882 0.864009619 0.002778769
v 0.477899790 0.864009619 0.002778769
v 0.511499882 0.827636600 0.023778915
v 0.477899790 0.827636600 0.023778915
v 0.511499882 0.827636600 0.065778732
v 0.477899790 0.827636600 0.065778732
v 0.511499882 0.135990381 0.086778879
v 0.511499882 0.172363400 0.065778732
v 0.477899790 0.172363400 0.065778732
v 0.477899790 0.135990381 0.086778879
v 0.511499882 0.172363400 0.023778915
v 0.477899790 0.172363400 0.023778915
v 0.511499882 0.135990381 0.002778769
v 0.477899790 0.135990381 0.002778769
v 0.511499882 0.099617362 0.023778915
v 0.477899790 0.099617362 0.023778915
v 0.511499882 0.099617362 0.065778732
v 0.477899790 0.099617362 0.065778732
v 0.511499882 0.372176886 0.184610605
v 0.511499882 0.408549905 0.163610458
v 0.477899790 0.408549905 0.163610458
v 0.477899790 0.372176886 0.184610605
v 0.511499882 0.408549905 0.121610641
v 0.477899790 0.408549905 0.121610641
v 0.511499882 0.372176886 0.100610495
v 0.477899790 0.372176886 0.100610495
v 0.511499882 0.335803866 0.121610641
v 0.477899790 0.335803866 0.121610641
v 0.511499882 0.335803866 0.163610458
v 0.477899790 0.335803866 0.163610458
v 0.083999872 0.121999979 0.245559931
v 0.101999998 0.121999979 0.263559818
v 0.101999998 0.140000105 0.245559931
v 0.425999880 0.121999979 0.263559818
v 0.444000006 0.121999979 0.245559931
v 0.425999880 0.140000105 0.245559931
v 0.091323406 0.129323512 0.000000000
v 0.101999998 0.140000105 0.000000000
v 0.083999872 0.121999979 0.000000000
v 0.433323413 0.132676572 0.000000000
v 0.444000006 0.121999979 0.000000000
v 0.425999880 0.140000105 0.000000000
v 0.087210421 0.000000000 0.248770437
v 0.101999998 0.000000000 0.263559818
v 0.083999872 0.000000000 0.245559931
v 0.429210428 0.000000000 0.260349312
v 0.444000006 0.000000000 0.245559931
v 0.425999880 0.000000000 0.263559818
v 0.368210433 0.000000000 0.263559818
v 0.083999872 0.000000000 0.171717827
v 0.083999872 0.000000000 0.000000000
v 0.444000006 0.000000000 0.000000000
v 0.294177249 0.140000105 0.000000000
vt 0.713541678 0.097155880
vt 0.713541678 0.095052935
vt 0.736979187 0.095052935
vt 0.713541678 0.103190085
vt 0.736979187 0.103190085
vt 0.713541678 0.087322086
vt 0.713541678 0.084922858
vt 0.736979187 0.084922858
vt 0.713541678 0.076534387
vt 0.713541678 0.073931068
vt 0.736979187 0.073931068
vt 0.713541678 0.065207358
vt 0.713541678 0.062500000
vt 0.736979187 0.062500000
vt 0.713541678 0.053776284
vt 0.713541678 0.051068924
vt 0.736979187 0.051068924
vt 0.713541678 0.042680459
vt 0.713541678 0.040077142
vt 0.736979187 0.040077142
vt 0.713541678 0.032346291
vt 0.713541678 0.029947061
vt 0.736979187 0.029947061
vt 0.728710315 0.021809893
vt 0.713541678 0.023170908
vt 0.713541678 0.021809893
vt 0.736979187 0.021809893
vt 0.737359998 0.103190085
vt 0.741536438 0.095052935
vt 0.741536438 0.103190085
vt 0.741536438 0.084922858
vt 0.741536438 0.073931068
vt 0.741536438 0.062500000
vt 0.741536438 0.051068924
vt 0.741536438 0.040077142
vt 0.741536438 0.029947061
vt 0.741155639 0.021809893
vt 0.741536438 0.021809893
vt 0.646809895 0.096556018
vt 0.646142606 0.103190085
vt 0.645459071 0.103190085
vt 0.638781071 0.095052935
vt 0.646809879 0.089688248
vt 0.646809908 0.103190085
vt 0.633366406 0.084922858
vt 0.643110454 0.080886737
vt 0.646809875 0.087807861
vt 0.630032122 0.073931068
vt 0.640376329 0.071873486
vt 0.628906250 0.062500000
vt 0.639453113 0.062500000
vt 0.630032122 0.051068924
vt 0.640376329 0.053126521
vt 0.633366406 0.040077142
vt 0.643110454 0.044113263
vt 0.646809878 0.036029562
vt 0.638781071 0.029947061
vt 0.646809879 0.035311742
vt 0.646809875 0.037192130
vt 0.646809880 0.029173114
vt 0.645459090 0.021809893
vt 0.646809903 0.021809894
vt 0.646809879 0.087405471
vt 0.646809879 0.037594520
vt 0.646809892 0.081501984
vt 0.646809879 0.039529766
vt 0.646809888 0.076172252
vt 0.646809887 0.062244986
vt 0.646809887 0.070593772
vt 0.661824533 0.101437882
vt 0.628906250 0.101437882
vt 0.628906250 0.095052943
vt 0.746093750 0.095052943
vt 0.746093750 0.101437882
vt 0.628906250 0.084922858
vt 0.746093750 0.084922858
vt 0.628906250 0.073931076
vt 0.746093750 0.073931076
vt 0.746093750 0.062500000
vt 0.628906250 0.051068928
vt 0.746093750 0.051068928
vt 0.628906250 0.040077142
vt 0.746093750 0.040077142
vt 0.628906250 0.029947061
vt 0.746093750 0.029947061
vt 0.713175800 0.023562101
vt 0.628906250 0.023562101
vt 0.746093750 0.023562101
vt 0.644401450 0.023562101
vt 0.644021086 0.023562101
vt 0.633366466 0.040077142
vt 0.630032122 0.051068928
vt 0.630032122 0.073931076
vt 0.633366466 0.084922858
vt 0.644401434 0.101437883
vt 0.638781071 0.095052943
vt 0.644021065 0.101437882
vt 0.645034870 0.023562102
vt 0.645034859 0.101437881
vt 0.648562110 0.042844140
vt 0.648562121 0.023562102
vt 0.648562121 0.101437882
vt 0.648562110 0.082155860
vt 0.648562110 0.062500000
vt 0.645166017 0.101437892
vt 0.645166028 0.023562101
vt 0.648411578 0.101437900
vt 0.648336836 0.023562099
vt 0.648562120 0.086312422
vt 0.648562097 0.101437900
vt 0.648562089 0.023562099
vt 0.648562102 0.046198981
vt 0.648562113 0.070245231
vt 0.937500000 0.003906250
vt 0.996093750 0.003906250
vt 0.996093750 0.121093750
vt 0.937500000 0.121093750
vt 0.966796875 0.003906250
vt 0.908203125 0.003906250
vt 0.908203125 0.121093750
vt 0.966796875 0.121093750
vt 0.878906250 0.003906250
vt 0.878906250 0.121093750
vt 0.996093750 0.062500000
vt 0.878906250 0.062500000
vt 0.633593738 0.118164055
vt 0.633300722 0.118164055
vt 0.633984447 0.121093750
vt 0.740234375 0.118164055
vt 0.746093750 0.118164055
vt 0.740234375 0.121093750
vt 0.697700609 0.119356036
vt 0.697700574 0.121093750
vt 0.697541646 0.118164059
vt 0.697020317 0.118511609
vt 0.633593738 0.118164062
vt 0.698236703 0.118164058
vt 0.697020341 0.119703582
vt 0.633593798 0.121093750
vt 0.633802748 0.098176651
vt 0.633561995 0.098176651
vt 0.633175707 0.098464052
vt 0.741279468 0.098516306
vt 0.746093750 0.098516306
vt 0.740234375 0.098176651
vt 0.721422689 0.098176651
vt 0.652823455 0.098307288
vt 0.697541646 0.098307291
vt 0.633593749 0.098307294
vt 0.698236714 0.098307290
vt 0.697497111 0.073931819
vt 0.634765625 0.008593751
vt 0.740234315 0.008593751
vt 0.740408115 0.073931819
vt 0.634765625 0.072541642
vn 0.000000000 0.634392323 0.773011242
vn 0.000000000 0.471397001 0.881921123
vn 0.000000000 0.290283847 0.956940587
vn 0.000000000 0.098017967 0.995184645
vn 0.000000000 -0.098017967 0.995184645
vn 0.000000000 -0.290283847 0.956940587
vn 0.000000000 -0.471397353 0.881920935
vn 0.000000000 -0.634392944 0.773010732
vn 0.775504272 0.400518720 0.488034710
vn 0.775504568 0.400518958 0.488034045
vn 0.775504808 0.297612566 0.556793546
vn 0.775504151 0.297611757 0.556794895
vn 0.775504216 0.183268497 0.604157156
vn 0.775504868 0.183269545 0.604156001
vn 0.775504385 0.061882877 0.628302044
vn 0.775504263 0.061882643 0.628302218
vn 0.775504303 -0.061882887 0.628302145
vn 0.775504393 -0.061882691 0.628302052
vn 0.775504804 -0.183268288 0.604156465
vn 0.775504244 -0.183269587 0.604156790
vn 0.775504093 -0.297613201 0.556794202
vn 0.775504874 -0.297611338 0.556794111
vn 0.775504291 -0.400519098 0.488034371
vn 0.775504042 -0.400519687 0.488034283
vn 1.000000000 0.000000000 0.000000000
vn 0.000000000 0.634392134 0.773011397
vn 0.000000000 0.471396564 0.881921357
vn 0.000000000 0.290285042 0.956940225
vn 0.000000000 0.098017605 0.995184681
vn 0.000000000 -0.098017605 0.995184681
vn 0.000000000 -0.290285042 0.956940225
vn 0.000000000 -0.471397236 0.881920998
vn 0.000000000 -0.634392530 0.773011072
vn -1.000000000 0.000000000 0.000000000
vn 0.000000000 0.500003115 0.866023605
vn 0.000000000 1.000000000 0.000000000
vn 0.000000000 0.500003115 -0.866023605
vn 0.000000000 -0.500003115 -0.866023605
vn 0.000000000 -1.000000000 0.000000000
vn 0.000000000 -0.500003115 0.866023605
vn -0.577347720 0.577347720 0.577355367
vn 0.577347720 0.577347720 0.577355367
vn -0.707106781 0.707106781 0.000000000
vn -0.000000000 0.707102098 0.707111464
vn 0.707106781 0.707106781 0.000000000
vn -0.707102098 0.000000000 0.707111464
vn 0.707102098 -0.000000000 0.707111464
vn 0.000000000 0.000000000 1.000000000
usemtl mat_0
f 1/1/1 2/2/1 3/3/1
f 4/4/1 1/1/1 3/3/1 5/5/1
f 6/6/2 7/7/2 8/8/2
f 2/2/2 6/6/2 8/8/2 3/3/2
f 9/9/3 10/10/3 11/11/3
f 7/7/3 9/9/3 11/11/3 8/8/3
f 12/12/4 13/13/4 14/14/4
f 10/10/4 12/12/4 14/14/4 11/11/4
f 15/15/5 16/16/5 17/17/5
f 13/13/5 15/15/5 17/17/5 14/14/5
f 18/18/6 19/19/6 20/20/6
f 16/16/6 18/18/6 20/20/6 17/17/6
f 21/21/7 22/22/7 23/23/7
f 19/19/7 21/21/7 23/23/7 20/20/7
f 24/24/8 25/25/8 26/26/8
f 22/22/8 25/25/8 24/24/8
f 22/22/8 24/24/8 27/27/8
f 22/22/8 27/27/8 23/23/8
f 28/28/1 5/5/1 3/3/1 29/29/1
f 28/28/1 29/29/1 30/30/1
f 3/3/2 8/8/2 31/31/2
f 3/3/2 31/31/2 29/29/2
f 8/8/3 11/11/3 32/32/3
f 8/8/3 32/32/3 31/31/3
f 11/11/4 14/14/4 33/33/4
f 11/11/4 33/33/4 32/32/4
f 14/14/5 17/17/5 34/34/5
f 14/14/5 34/34/5 33/33/5
f 17/17/6 20/20/6 35/35/6
f 17/17/6 35/35/6 34/34/6
f 20/20/7 23/23/7 36/36/7
f 20/20/7 36/36/7 35/35/7
f 37/37/8 23/23/8 27/27/8
f 23/23/8 37/37/8 38/38/8 36/36/8
f 39/39/9 40/40/9 30/41/9
f 39/39/9 30/41/9 29/42/9
f 39/39/9 29/42/9 41/43/9
f 42/44/10 40/40/10 39/39/10
f 29/42/11 31/45/11 43/46/11
f 41/43/12 29/42/12 43/46/12 44/47/12
f 31/45/13 32/48/13 45/49/13
f 31/45/14 45/49/14 43/46/14
f 32/48/15 33/50/15 46/51/15
f 32/48/16 46/51/16 45/49/16
f 33/50/17 34/52/17 47/53/17
f 33/50/18 47/53/18 46/51/18
f 34/52/19 35/54/19 48/55/19
f 34/52/20 48/55/20 47/53/20
f 49/56/21 35/54/21 36/57/21 50/58/21
f 35/54/22 49/56/22 51/59/22 48/55/22
f 52/60/23 36/57/23 38/61/23 53/62/23
f 50/58/24 36/57/24 52/60/24
f 54/63/25 44/47/25 43/46/25 45/49/25
f 45/49/25 46/51/25 47/53/25
f 55/64/25 47/53/25 48/55/25 51/59/25
f 56/65/25 54/63/25 45/49/25
f 57/66/25 45/49/25 47/53/25 55/64/25
f 58/67/25 56/65/25 45/49/25
f 59/68/25 45/49/25 57/66/25
f 60/69/25 58/67/25 45/49/25
f 60/69/25 45/49/25 59/68/25
f 61/70/26 62/71/26 63/72/26 64/73/26
f 61/70/26 64/73/26 65/74/26
f 63/72/27 66/75/27 67/76/27
f 63/72/27 67/76/27 64/73/27
f 66/75/28 68/77/28 69/78/28
f 66/75/28 69/78/28 67/76/28
f 68/77/29 70/50/29 71/79/29
f 68/77/29 71/79/29 69/78/29
f 70/50/30 72/80/30 73/81/30
f 70/50/30 73/81/30 71/79/30
f 72/80/31 74/82/31 75/83/31
f 72/80/31 75/83/31 73/81/31
f 74/82/32 76/84/32 77/85/32
f 74/82/32 77/85/32 75/83/32
f 78/86/33 76/84/33 79/87/33
f 76/84/33 78/86/33 80/88/33 77/85/33
f 81/89/34 79/90/34 76/57/34 74/91/34
f 74/91/34 72/92/34 70/50/34
f 70/50/34 68/93/34 66/94/34
f 82/95/34 66/94/34 63/96/34 62/97/34
f 83/98/34 81/89/34 74/91/34 70/50/34
f 84/99/34 70/50/34 66/94/34 82/95/34
f 85/100/34 86/101/34 83/98/34 70/50/34
f 87/102/34 88/103/34 70/50/34 84/99/34
f 89/104/34 85/100/34 70/50/34
f 89/104/34 70/50/34 88/103/34
f 90/105/25 65/97/25 64/96/25
f 64/96/25 67/94/25 69/93/25
f 69/93/25 71/50/25 73/92/25
f 73/92/25 75/91/25 77/57/25
f 91/106/25 77/57/25 80/90/25
f 92/107/25 90/105/25 64/96/25 69/93/25
f 69/93/25 73/92/25 77/57/25
f 93/108/25 77/57/25 91/106/25
f 94/109/25 95/110/25 92/107/25 69/93/25
f 96/111/25 97/112/25 69/93/25
f 96/111/25 69/93/25 77/57/25
f 96/111/25 77/57/25 93/108/25
f 98/113/25 94/109/25 69/93/25
f 98/113/25 69/93/25 97/112/25
usemtl mat_1
f 99/114/35 100/115/35 101/116/35
f 99/114/35 101/116/35 102/117/35
f 100/118/36 103/119/36 104/120/36
f 100/118/36 104/120/36 101/121/36
f 103/115/37 105/114/37 106/117/37
f 103/115/37 106/117/37 104/116/37
f 105/114/38 107/122/38 108/123/38
f 105/114/38 108/123/38 106/117/38
f 107/119/39 109/118/39 110/121/39
f 107/119/39 110/121/39 108/120/39
f 109/122/40 99/114/40 102/117/40
f 109/122/40 102/117/40 110/123/40
f 99/124/25 109/118/25 107/119/25
f 107/119/25 105/125/25 103/120/25
f 103/120/25 100/121/25 99/124/25
f 107/119/25 103/120/25 99/124/25
f 110/118/34 102/124/34 101/121/34
f 101/121/34 104/120/34 106/125/34
f 106/125/34 108/119/34 110/118/34
f 101/121/34 106/125/34 110/118/34
f 111/114/35 112/115/35 113/116/35
f 111/114/35 113/116/35 114/117/35
f 112/118/36 115/119/36 116/120/36
f 112/118/36 116/120/36 113/121/36
f 115/115/37 117/114/37 118/117/37
f 115/115/37 118/117/37 116/116/37
f 117/114/38 119/122/38 120/123/38
f 117/114/38 120/123/38 118/117/38
f 119/119/39 121/118/39 122/121/39
f 119/119/39 122/121/39 120/120/39
f 121/122/40 111/114/40 114/117/40
f 121/122/40 114/117/40 122/123/40
f 111/124/25 121/118/25 119/119/25
f 119/119/25 117/125/25 115/120/25
f 115/120/25 112/121/25 111/124/25
f 119/119/25 115/120/25 111/124/25
f 122/118/34 114/124/34 113/121/34
f 113/121/34 116/120/34 118/125/34
f 118/125/34 120/119/34 122/118/34
f 113/121/34 118/125/34 122/118/34
f 123/114/35 124/115/35 125/116/35
f 123/114/35 125/116/35 126/117/35
f 124/118/36 127/119/36 128/120/36
f 124/118/36 128/120/36 125/121/36
f 127/115/37 129/114/37 130/117/37
f 127/115/37 130/117/37 128/116/37
f 129/114/38 131/122/38 132/123/38
f 129/114/38 132/123/38 130/117/38
f 131/119/39 133/118/39 134/121/39
f 131/119/39 134/121/39 132/120/39
f 133/122/40 123/114/40 126/117/40
f 133/122/40 126/117/40 134/123/40
f 123/124/25 133/118/25 131/119/25
f 131/119/25 129/125/25 127/120/25
f 127/120/25 124/121/25 123/124/25
f 131/119/25 127/120/25 123/124/25
f 134/118/34 126/124/34 125/121/34
f 125/121/34 128/120/34 130/125/34
f 130/125/34 132/119/34 134/118/34
f 125/121/34 130/125/34 134/118/34
f 135/114/35 136/115/35 137/116/35
f 135/114/35 137/116/35 138/117/35
f 136/118/36 139/119/36 140/120/36
f 136/118/36 140/120/36 137/121/36
f 139/115/37 141/114/37 142/117/37
f 139/115/37 142/117/37 140/116/37
f 141/114/38 143/122/38 144/123/38
f 141/114/38 144/123/38 142/117/38
f 143/119/39 145/118/39 146/121/39
f 143/119/39 146/121/39 144/120/39
f 145/122/40 135/114/40 138/117/40
f 145/122/40 138/117/40 146/123/40
f 135/124/25 145/118/25 143/119/25
f 143/119/25 141/125/25 139/120/25
f 139/120/25 136/121/25 135/124/25
f 143/119/25 139/120/25 135/124/25
f 146/118/34 138/124/34 137/121/34
f 137/121/34 140/120/34 142/125/34
f 142/125/34 144/119/34 146/118/34
f 137/121/34 142/125/34 146/118/34
usemtl mat_0
f 147/126/41 148/127/41 149/128/41
f 150/129/42 151/130/42 152/131/42
f 153/132/43 149/128/43 154/133/43
f 149/128/43 153/132/43 155/134/43 147/126/43
f 148/127/44 150/129/44 152/131/44
f 148/127/44 152/131/44 149/128/44
f 156/135/45 151/136/45 157/137/45
f 151/136/45 156/135/45 158/138/45 152/139/45
f 159/140/46 160/141/46 148/127/46 147/126/46
f 159/140/46 147/126/46 161/142/46
f 162/143/47 163/144/47 151/130/47 150/129/47
f 162/143/47 150/129/47 164/145/47
f 165/146/48 164/145/48 150/129/48
f 160/141/48 165/146/48 150/129/48 148/127/48
f 166/147/34 161/142/34 147/126/34
f 167/148/34 166/147/34 147/126/34 155/134/34
f 163/149/25 168/150/25 157/137/25 151/136/25
f 169/151/36 149/152/36 152/153/36 158/154/36
f 154/155/36 149/152/36 169/151/36
