# Authored in Blender; exported by tools-export-modern.py
mtllib materials.mtl
s off
v 0.454925606 0.248327157 0.000000000
v 0.454254939 0.248302744 0.000000000
v 0.454999924 0.248322725 0.000013351
v 0.454999924 0.248329862 0.000000000
v 0.000000000 0.178952119 0.061516836
v 0.000000000 0.126017740 0.126017623
v 0.454999924 0.136396170 0.136396170
v 0.000000000 0.229437713 0.000000000
v 0.000000000 0.056359850 0.183184411
v 0.000000000 0.000000000 0.229437762
v 0.454254934 0.000000000 0.248302743
v 0.454999924 0.000013351 0.248322725
v 0.454999924 0.000000000 0.248329862
v 0.455044783 0.248302743 0.000000000
v 0.815067334 0.000000000 0.000000000
v 0.455246778 0.248163431 0.000000000
v 0.674163894 0.000000000 0.097179359
v 0.455044783 0.000000000 0.248302743
v 0.455023124 0.000000000 0.248315837
vt 0.716402415 0.029947925
vt 0.716367484 0.029947925
vt 0.716406286 0.029947056
vt 0.716406286 0.029947925
vt 0.692708351 0.025942918
vt 0.692708351 0.021743648
vt 0.716406286 0.021067964
vt 0.692708351 0.029947921
vt 0.692708351 0.098721336
vt 0.692708351 0.095052076
vt 0.716367484 0.095052081
vt 0.716406286 0.095052950
vt 0.692708351 0.103256353
vt 0.716406286 0.103932038
vt 0.716406286 0.095052081
vt 0.716408622 0.029947925
vt 0.735159763 0.029947920
vt 0.716419143 0.029947925
vt 0.727821055 0.095052075
vt 0.716408622 0.095052081
vt 0.735159763 0.095052074
vt 0.716407494 0.095052081
vn -0.032086257 0.881467655 0.471153101
vn -0.032086480 0.881467084 0.471154155
vn -0.032086146 0.772612721 0.634066292
vn -0.032086286 0.772612240 0.634066871
vn -0.032086205 0.634066783 0.772612316
vn -0.032086184 0.634066873 0.772612242
vn -0.032086200 0.471154159 0.881467092
vn 0.470451749 0.778229940 0.415972731
vn 0.470451869 0.682124087 0.559805117
vn 0.470451766 0.682123899 0.559805432
vn 0.470451533 0.559805231 0.682124225
vn 0.470451926 0.559806158 0.682123194
vn 0.470452001 0.415972667 0.778229821
vn 0.470451492 0.415971228 0.778230898
usemtl mat_0
f 1/1/1 2/2/1 3/3/1
f 1/1/2 3/3/2 4/4/2
f 5/5/3 6/6/3 7/7/3
f 2/2/4 8/8/4 5/5/4
f 2/2/4 5/5/4 7/7/4
f 2/2/4 7/7/4 3/3/4
f 9/9/5 10/10/5 11/11/5 12/12/5
f 6/13/6 9/9/6 12/12/6 7/14/6
f 11/11/7 13/15/7 12/12/7
f 4/4/8 3/3/8 14/16/8
f 15/17/9 16/18/9 3/3/9 7/7/9
f 14/16/10 3/3/10 16/18/10
f 17/19/11 7/14/11 12/12/11 18/20/11
f 15/21/12 7/14/12 17/19/12
f 19/22/13 12/12/13 13/15/13
f 18/20/14 12/12/14 19/22/14
