# Authored in Blender; exported by tools-export-modern.py
mtllib materials.mtl
s off
v 0.317999840 0.018000007 0.614999831
v 0.299999714 0.018000007 0.596999824
v 0.317999840 0.000000000 0.596999824
v 0.299999714 0.018000007 0.242999837
v 0.317999840 0.018000007 0.224999830
v 0.317999840 0.000000000 0.242999837
v 0.299999714 0.372000009 0.596999824
v 0.317999840 0.372000009 0.614999831
v 0.317999840 0.390000015 0.596999824
v 0.299999714 0.372000009 0.242999837
v 0.317999840 0.390000015 0.242999837
v 0.317999840 0.372000009 0.224999830
v 1.000000000 0.001467720 0.598467544
v 1.000000000 0.000000000 0.596999824
v 1.000000000 0.018000007 0.614999831
v 1.000000000 0.016532287 0.226467550
v 1.000000000 0.000000000 0.242999837
v 1.000000000 0.018000007 0.224999830
v 1.000000000 0.373467728 0.613532111
v 1.000000000 0.372000009 0.614999831
v 1.000000000 0.390000015 0.596999824
v 1.000000000 0.388532296 0.241532117
v 1.000000000 0.372000009 0.224999830
v 1.000000000 0.390000015 0.242999837
v 1.000000000 0.046865149 0.614999831
v 1.000000000 0.000000000 0.568134683
v 1.000000000 0.343134867 0.224999830
v 1.000000000 0.390000015 0.568134683
v 0.806999922 0.077999994 0.467999935
v 0.824999869 0.077999994 0.449999928
v 0.824999869 0.060000002 0.467999935
v 0.806999922 0.342000008 0.467999935
v 0.824999869 0.360000014 0.467999935
v 0.824999869 0.342000008 0.449999928
v 0.820360347 0.064639535 1.000000000
v 0.806999922 0.077999994 1.000000000
v 0.824999869 0.060000002 1.000000000
v 1.000000000 0.067285704 0.460714227
v 1.000000000 0.060000002 0.467999935
v 1.000000000 0.077999994 0.449999928
v 0.811639443 0.346639545 1.000000000
v 0.824999869 0.360000014 1.000000000
v 0.806999922 0.342000008 1.000000000
v 1.000000000 0.349285715 0.457285636
v 1.000000000 0.342000008 0.449999928
v 1.000000000 0.360000014 0.467999935
v 1.000000000 0.060000002 1.000000000
v 0.806999922 0.146046513 1.000000000
v 1.000000000 0.184857009 0.449999928
v 1.000000000 0.360000014 1.000000000
v 0.404999733 0.268500000 0.328499913
v 0.418499470 0.268500000 0.314999938
v 0.418499470 0.254999995 0.328499913
v 0.404999733 0.316499978 0.328499913
v 0.418499470 0.329999983 0.328499913
v 0.418499470 0.316499978 0.314999938
v 0.414630467 0.258869075 1.000000000
v 0.404999733 0.268500000 1.000000000
v 0.418499470 0.254999995 1.000000000
v 1.000000000 0.267538312 0.315961624
v 1.000000000 0.254999995 0.328499913
v 1.000000000 0.268500000 0.314999938
v 0.408868736 0.320369058 1.000000000
v 0.418499470 0.329999983 1.000000000
v 0.404999733 0.316499978 1.000000000
v 1.000000000 0.329038295 0.327538227
v 1.000000000 0.316499978 0.314999938
v 1.000000000 0.329999983 0.328499913
v 1.000000000 0.254999995 1.000000000
v 0.404999733 0.282256716 1.000000000
v 1.000000000 0.313080646 0.314999938
v 1.000000000 0.329999983 1.000000000
v 0.575999975 0.408000052 0.404999971
v 0.610499978 0.408000052 0.464755714
v 0.610499978 0.475500047 0.464755714
v 0.575999975 0.475500047 0.404999971
v 0.679499984 0.408000052 0.464755714
v 0.679499984 0.475500047 0.464755714
v 0.713999987 0.408000052 0.404999971
v 0.713999987 0.475500047 0.404999971
v 0.679499984 0.408000052 0.345244229
v 0.679499984 0.475500047 0.345244229
v 0.610499978 0.408000052 0.345244229
v 0.610499978 0.475500047 0.345244229
vt 0.004157367 0.132962734
vt 0.006610578 0.134314910
vt 0.004157366 0.134314895
vt 0.003906250 0.240685090
vt 0.004157375 0.246093765
vt 0.004157366 0.240685090
vt 0.009314906 0.240685105
vt 0.004094587 0.240685076
vt 0.007595728 0.246093750
vt 0.115685090 0.240685090
vt 0.115685090 0.246093750
vt 0.121093750 0.240685105
vt 0.013671877 0.134204640
vt 0.013671877 0.134314895
vt 0.013671878 0.132962734
vt 0.013671884 0.245652742
vt 0.013671877 0.240685090
vt 0.013671885 0.246093764
vt 0.013614217 0.241126099
vt 0.013614216 0.240685077
vt 0.016829875 0.246093750
vt 0.013671876 0.240685076
vt 0.013671877 0.240685089
vt 0.004157366 0.240685076
vt 0.013566740 0.240905588
vt 0.115685090 0.134314910
vt 0.121093750 0.134314910
vt 0.013671877 0.141746409
vt 0.013671877 0.142988315
vt 0.013671877 0.232011670
vt 0.013671877 0.134314908
vt 0.004157366 0.134314910
vt 0.013566740 0.143208827
vt 0.013671877 0.134314896
vt 0.003906250 0.245089278
vt 0.010298304 0.246093750
vt 0.010298294 0.245089293
vt 0.120089285 0.239062503
vt 0.120089285 0.246093750
vt 0.121093750 0.239062503
vt 0.008780184 0.216178498
vt 0.004035701 0.216178487
vt 0.010298294 0.215401791
vt 0.072443242 0.245495858
vt 0.072443238 0.245089293
vt 0.072443237 0.246093750
vt 0.090864671 0.240874821
vt 0.090864671 0.246093750
vt 0.090401783 0.239062499
vt 0.072443234 0.241501915
vt 0.072443234 0.239062503
vt 0.010298295 0.239062503
vt 0.010298295 0.245089293
vt 0.073244961 0.245388238
vt 0.120089285 0.135937512
vt 0.121093750 0.135937497
vt 0.072443238 0.215401791
vt 0.090401783 0.162518176
vt 0.090272332 0.135160802
vt 0.072443238 0.177678519
vt 0.072443238 0.135937497
vt 0.010298295 0.135937497
vt 0.010298295 0.215401791
vt 0.073244961 0.215700737
vt 0.120426230 0.150000006
vt 0.121093750 0.149999991
vt 0.120426230 0.128906250
vt 0.120426223 0.225000009
vt 0.120426230 0.246093750
vt 0.121093750 0.225000009
vt 0.004187537 0.216613721
vt 0.004049733 0.216613700
vt 0.003906250 0.245426238
vt 0.004099415 0.245426267
vt 0.004133402 0.212175304
vt 0.012419877 0.246046199
vt 0.012419877 0.245426265
vt 0.004099414 0.246093750
vt 0.012419876 0.246093750
vt 0.087177782 0.231045441
vt 0.087177787 0.246093750
vt 0.087223099 0.225000005
vt 0.012419877 0.243971139
vt 0.012419877 0.224999995
vt 0.004099414 0.224999994
vt 0.004099414 0.245426223
vt 0.012411428 0.245449999
vt 0.012453864 0.212175302
vt 0.087223104 0.171494881
vt 0.087175276 0.148536472
vt 0.012419877 0.219657286
vt 0.012419877 0.150000006
vt 0.004099414 0.150000006
vt 0.004099414 0.212223100
vt 0.012411428 0.212246876
vt 0.937500000 0.003906250
vt 0.996093750 0.003906250
vt 0.996093750 0.121093750
vt 0.937500000 0.121093750
vt 0.966796875 0.003906250
vt 0.908203125 0.003906250
vt 0.908203125 0.121093750
vt 0.966796875 0.121093750
vt 0.878906250 0.003906250
vt 0.878906250 0.121093750
vt 0.996093750 0.062500000
vt 0.878906250 0.062500000
vn -0.577347720 -0.577351544 0.577351544
vn -0.577347720 -0.577351544 -0.577351544
vn -0.577347720 0.577351544 0.577351544
vn -0.577347720 0.577351544 -0.577351544
vn 0.000000000 -0.707106781 0.707106781
vn -0.707104440 -0.707109123 -0.000000000
vn -0.000000000 -0.707106781 -0.707106781
vn -0.707104440 0.707109123 0.000000000
vn -0.000000000 0.707106781 0.707106781
vn 0.000000000 0.707106781 -0.707106781
vn -0.707104440 0.000000000 0.707109123
vn -0.707104440 0.000000000 -0.707109123
vn 0.000000000 0.000000000 1.000000000
vn 0.000000000 -1.000000000 0.000000000
vn -1.000000000 0.000000000 0.000000000
vn 0.000000000 0.000000000 -1.000000000
vn -0.000000000 1.000000000 0.000000000
vn -0.577351384 -0.577349951 -0.577349473
vn -0.577351544 0.577349632 -0.577349632
vn -0.707107659 -0.707105903 -0.000000000
vn -0.000000000 -0.707107074 -0.707106489
vn -0.707107952 0.707105610 0.000000000
vn -0.707107952 0.000000000 -0.707105610
vn -0.577357492 -0.577346021 -0.577347295
vn -0.577357492 0.577346021 -0.577347295
vn -0.707113806 -0.707099757 -0.000000000
vn -0.000000000 -0.707106001 -0.707107562
vn -0.707113806 0.707099757 0.000000000
vn 0.000000000 0.707106001 -0.707107562
vn -0.707113025 0.000000000 -0.707100537
vn -0.866025348 0.000000000 0.500000096
vn 0.866025348 0.000000000 0.500000096
vn 0.866025348 0.000000000 -0.500000096
vn -0.866025348 0.000000000 -0.500000096
usemtl mat_2
f 1/1/1 2/2/1 3/3/1
f 4/4/2 5/5/2 6/6/2
f 7/7/3 8/8/3 9/9/3
f 10/10/4 11/11/4 12/12/4
f 13/13/5 3/3/5 14/14/5
f 3/3/5 13/13/5 15/15/5 1/1/5
f 2/2/6 4/4/6 6/6/6
f 2/2/6 6/6/6 3/3/6
f 16/16/7 17/17/7 6/6/7 5/5/7
f 16/16/7 5/5/7 18/18/7
f 9/9/8 11/11/8 10/10/8
f 9/9/8 10/10/8 7/7/8
f 19/19/9 8/8/9 20/20/9
f 8/8/9 19/19/9 21/21/9 9/9/9
f 22/22/10 23/23/10 12/6/10 11/24/10
f 22/22/10 11/24/10 24/25/10
f 1/1/11 8/8/11 7/7/11
f 1/1/11 7/7/11 2/2/11
f 4/26/12 10/10/12 12/12/12
f 4/26/12 12/12/12 5/27/12
f 25/28/13 1/1/13 15/15/13
f 1/1/13 25/28/13 20/20/13 8/8/13
f 26/29/14 3/3/14 6/6/14 17/17/14
f 14/14/14 3/3/14 26/29/14
f 4/26/15 2/2/15 7/7/15
f 4/26/15 7/7/15 10/10/15
f 27/30/16 18/31/16 5/32/16 12/6/16
f 27/30/16 12/6/16 23/23/16
f 28/33/17 9/3/17 21/34/17
f 9/3/17 28/33/17 24/25/17 11/24/17
f 29/35/18 30/36/18 31/37/18
f 32/38/19 33/39/19 34/40/19
f 35/41/20 36/42/20 29/35/20 31/37/20
f 35/41/20 31/37/20 37/43/20
f 38/44/21 39/45/21 31/37/21 30/36/21
f 38/44/21 30/36/21 40/46/21
f 41/47/22 42/48/22 33/39/22 32/38/22
f 41/47/22 32/38/22 43/49/22
f 44/50/10 45/51/10 34/52/10 33/53/10
f 44/50/10 33/53/10 46/54/10
f 29/55/23 32/38/23 34/40/23
f 29/55/23 34/40/23 30/56/23
f 47/57/14 37/43/14 31/37/14 39/45/14
f 48/58/15 29/55/15 36/59/15
f 29/55/15 48/58/15 43/49/15 32/38/15
f 49/60/16 40/61/16 30/62/16 34/52/16
f 49/60/16 34/52/16 45/51/16
f 42/63/17 50/64/17 46/54/17 33/53/17
f 51/65/24 52/66/24 53/67/24
f 54/68/25 55/69/25 56/70/25
f 57/71/26 58/72/26 51/73/26 53/74/26
f 57/71/26 53/74/26 59/75/26
f 60/76/27 61/77/27 53/74/27 52/78/27
f 60/76/27 52/78/27 62/79/27
f 63/80/28 64/81/28 55/69/28 54/68/28
f 63/80/28 54/68/28 65/82/28
f 66/83/29 67/84/29 56/85/29 55/86/29
f 66/83/29 55/86/29 68/87/29
f 51/65/30 54/68/30 56/70/30
f 51/65/30 56/70/30 52/66/30
f 69/88/14 59/75/14 53/74/14 61/77/14
f 70/89/15 51/65/15 58/90/15
f 51/65/15 70/89/15 65/82/15 54/68/15
f 71/91/16 62/92/16 52/93/16 56/85/16
f 71/91/16 56/85/16 67/84/16
f 64/94/17 72/95/17 68/87/17 55/86/17
usemtl mat_1
f 73/96/31 74/97/31 75/98/31
f 73/96/31 75/98/31 76/99/31
f 74/100/13 77/101/13 78/102/13
f 74/100/13 78/102/13 75/103/13
f 77/97/32 79/96/32 80/99/32
f 77/97/32 80/99/32 78/98/32
f 79/96/33 81/104/33 82/105/33
f 79/96/33 82/105/33 80/99/33
f 81/101/16 83/100/16 84/103/16
f 81/101/16 84/103/16 82/102/16
f 83/104/34 73/96/34 76/99/34
f 83/104/34 76/99/34 84/105/34
f 73/106/14 83/100/14 81/101/14
f 81/101/14 79/107/14 77/102/14
f 77/102/14 74/103/14 73/106/14
f 81/101/14 77/102/14 73/106/14
f 84/100/17 76/106/17 75/103/17
f 75/103/17 78/102/17 80/107/17
f 80/107/17 82/101/17 84/100/17
f 75/103/17 80/107/17 84/100/17
