# Authored in Blender; exported by tools-export-modern.py
mtllib materials.mtl
s off
v 1.000000000 0.010076044 0.767076185
v 0.000000000 0.007923963 0.764924118
v 0.000000000 0.000000000 0.757000208
v 1.000000000 0.000000000 0.757000208
v 1.000000000 0.018000007 0.775000095
v 0.000000000 0.018000007 0.775000095
v 0.000000000 0.010076044 0.392924139
v 1.000000000 0.007923963 0.395076206
v 1.000000000 0.000000000 0.403000116
v 0.000000000 0.000000000 0.403000116
v 0.000000000 0.018000007 0.385000229
v 1.000000000 0.018000007 0.385000229
v 1.000000000 0.382076053 0.764924118
v 0.000000000 0.379923972 0.767076185
v 0.000000000 0.372000009 0.775000095
v 1.000000000 0.372000009 0.775000095
v 1.000000000 0.390000015 0.757000208
v 0.000000000 0.390000015 0.757000208
v 0.000000000 0.382076053 0.395076206
v 1.000000000 0.379923972 0.392924139
v 1.000000000 0.372000009 0.385000229
v 0.000000000 0.372000009 0.385000229
v 0.000000000 0.390000015 0.403000116
v 1.000000000 0.390000015 0.403000116
v 1.000000000 0.216162130 0.775000095
v 0.000000000 0.173837885 0.775000095
v 1.000000000 0.000000000 0.558838034
v 0.000000000 0.000000000 0.601162290
v 0.000000000 0.216162130 0.385000229
v 1.000000000 0.173837885 0.385000229
v 1.000000000 0.390000015 0.558838034
v 0.000000000 0.390000015 0.601162290
v 0.353000164 0.077999994 0.550000191
v 0.335000038 0.077999994 0.532000065
v 0.353000164 0.060000002 0.532000065
v 0.646999836 0.077999994 0.550000191
v 0.646999836 0.060000002 0.532000065
v 0.664999962 0.077999994 0.532000065
v 0.335000038 0.342000008 0.532000065
v 0.353000164 0.342000008 0.550000191
v 0.353000164 0.360000014 0.532000065
v 0.646999836 0.342000008 0.550000191
v 0.664999962 0.342000008 0.532000065
v 0.646999836 0.360000014 0.532000065
v 0.339639606 0.073360461 0.000000000
v 0.335000038 0.077999994 0.000000000
v 0.353000164 0.060000002 0.000000000
v 0.651639404 0.064639535 0.000000000
v 0.646999836 0.060000002 0.000000000
v 0.664999962 0.077999994 0.000000000
v 0.348360596 0.355360477 0.000000000
v 0.353000164 0.360000014 0.000000000
v 0.335000038 0.342000008 0.000000000
v 0.660360394 0.346639545 0.000000000
v 0.664999962 0.342000008 0.000000000
v 0.646999836 0.360000014 0.000000000
v 0.428779154 0.060000002 0.000000000
v 0.335000038 0.273953489 0.000000000
v 0.664999962 0.146046513 0.000000000
v 0.428779154 0.360000014 0.000000000
v 1.000000000 0.262576899 0.679076960
v 0.000000000 0.260923095 0.677423188
v 0.000000000 0.254999995 0.671500206
v 1.000000000 0.254999995 0.671500206
v 1.000000000 0.268500000 0.684999943
v 0.000000000 0.268500000 0.684999943
v 1.000000000 0.324076882 0.677423189
v 0.000000000 0.322423078 0.679076960
v 0.000000000 0.316499978 0.684999943
v 1.000000000 0.316499978 0.684999943
v 1.000000000 0.329999983 0.671500206
v 0.000000000 0.329999983 0.671500206
v 1.000000000 0.295440082 0.684999943
v 0.000000000 0.289559894 0.684999943
v 1.000000000 0.254999995 0.000000000
v 0.000000000 0.254999995 0.000000000
v 1.000000000 0.329999983 0.000000000
v 0.000000000 0.329999983 0.000000000
vt 0.069475451 0.133557990
vt 0.055524558 0.133719653
vt 0.055524551 0.134314895
vt 0.069475443 0.134314895
vt 0.069475452 0.132962742
vt 0.055524559 0.132962740
vt 0.055524556 0.243712758
vt 0.069475447 0.243066097
vt 0.069475443 0.240685090
vt 0.055524551 0.240685090
vt 0.055524559 0.246093758
vt 0.069475451 0.246093757
vt 0.069447810 0.243712743
vt 0.055489412 0.243066082
vt 0.055489409 0.240685082
vt 0.069447806 0.240685084
vt 0.070989083 0.246093750
vt 0.057449281 0.246093750
vt 0.055524551 0.240685076
vt 0.069475443 0.240685076
vt 0.069475443 0.240685082
vt 0.055524551 0.240685084
vt 0.054956939 0.241875585
vt 0.068753672 0.242198918
vt 0.069475444 0.193263555
vt 0.055524552 0.180384269
vt 0.069475443 0.193858804
vt 0.055524551 0.181141181
vt 0.055524555 0.193858804
vt 0.069475447 0.181141181
vt 0.069475447 0.134314901
vt 0.055524555 0.134314903
vt 0.068753672 0.195372638
vt 0.054956939 0.182331685
vt 0.055524558 0.134314901
vt 0.069475451 0.134314903
vt 0.010298297 0.134179696
vt 0.004408482 0.132924110
vt 0.010298295 0.129910722
vt 0.114701711 0.134179682
vt 0.114701711 0.129910722
vt 0.121093750 0.131919652
vt 0.004910714 0.239062488
vt 0.008700283 0.239062503
vt 0.006706578 0.246093750
vt 0.114701703 0.239062503
vt 0.121093750 0.239062503
vt 0.114701703 0.246093750
vt 0.005926593 0.161834905
vt 0.004279031 0.161834901
vt 0.010298295 0.159598224
vt 0.116349271 0.159598220
vt 0.114701711 0.159598224
vt 0.121093750 0.161089344
vt 0.035931192 0.244281432
vt 0.035931192 0.246093750
vt 0.034598216 0.239062492
vt 0.033556719 0.240745370
vt 0.004910715 0.239062503
vt 0.034662940 0.239062499
vt 0.033556720 0.245964300
vt 0.004910716 0.246093750
vt 0.037208479 0.159598224
vt 0.034598216 0.212481824
vt 0.034225435 0.133700820
vt 0.034662939 0.162518176
vt 0.004910714 0.135937512
vt 0.034598216 0.135937512
vt 0.037555640 0.159727674
vt 0.115048871 0.159727674
vt 0.069706334 0.138005097
vt 0.055412255 0.136128376
vt 0.055412251 0.129480117
vt 0.069706330 0.129500560
vt 0.069633116 0.147040282
vt 0.055318594 0.147686298
vt 0.069633112 0.236838912
vt 0.055318590 0.234254845
vt 0.055318594 0.225000002
vt 0.069633116 0.225000001
vt 0.069793050 0.246093750
vt 0.055523185 0.246093750
vt 0.069633116 0.192093896
vt 0.055318594 0.182906100
vt 0.069706332 0.162703693
vt 0.055412254 0.162683250
vt 0.069620314 0.162872565
vt 0.055311707 0.162872565
vt 0.055345697 0.129573777
vt 0.069654304 0.129573777
vn 0.000000000 -0.707104440 0.707109123
vn -0.000000000 -0.707104440 -0.707109123
vn -0.000000000 0.707104440 0.707109123
vn 0.000000000 0.707104440 -0.707109123
vn 0.000000000 0.000000000 1.000000000
vn 0.000000000 -1.000000000 0.000000000
vn 0.000000000 0.000000000 -1.000000000
vn -0.000000000 1.000000000 0.000000000
vn -0.577348835 -0.577353137 0.577348835
vn 0.577348835 -0.577353137 0.577348835
vn -0.577348995 0.577352818 0.577348995
vn 0.577348995 0.577352818 0.577348995
vn 0.000000000 -0.707109415 0.707104147
vn -0.707104147 -0.707109415 -0.000000000
vn 0.707104147 -0.707109415 0.000000000
vn -0.707104440 0.707109123 0.000000000
vn -0.000000000 0.707109123 0.707104440
vn 0.707104440 0.707109123 0.000000000
vn -0.707106781 0.000000000 0.707106781
vn 0.707106781 -0.000000000 0.707106781
vn -1.000000000 0.000000000 0.000000000
vn 1.000000000 0.000000000 0.000000000
vn 0.000000000 -0.707099757 0.707113806
vn -0.000000000 0.707099757 0.707113806
usemtl mat_2
f 1/1/1 2/2/1 3/3/1 4/4/1
f 2/2/1 1/1/1 5/5/1 6/6/1
f 7/7/2 8/8/2 9/9/2 10/10/2
f 8/8/2 7/7/2 11/11/2 12/12/2
f 13/13/3 14/14/3 15/15/3 16/16/3
f 14/14/3 13/13/3 17/17/3 18/18/3
f 19/19/4 20/20/4 21/21/4 22/22/4
f 20/20/4 19/19/4 23/23/4 24/24/4
f 25/25/5 26/26/5 6/6/5 5/5/5
f 26/26/5 25/25/5 16/16/5 15/15/5
f 27/27/6 28/28/6 10/10/6 9/9/6
f 4/4/6 3/3/6 28/28/6 27/27/6
f 29/29/7 30/30/7 12/31/7 11/32/7
f 30/30/7 29/29/7 22/22/7 21/21/7
f 31/33/8 32/34/8 18/35/8 17/36/8
f 32/34/8 31/33/8 24/24/8 23/23/8
f 33/37/9 34/38/9 35/39/9
f 36/40/10 37/41/10 38/42/10
f 39/43/11 40/44/11 41/45/11
f 42/46/12 43/47/12 44/48/12
f 35/39/13 37/41/13 36/40/13
f 35/39/13 36/40/13 33/37/13
f 45/49/14 34/38/14 46/50/14
f 34/38/14 45/49/14 47/51/14 35/39/14
f 48/52/15 37/41/15 49/53/15
f 37/41/15 48/52/15 50/54/15 38/42/15
f 51/55/16 41/45/16 52/56/16
f 41/45/16 51/55/16 53/57/16 39/43/16
f 40/44/17 42/46/17 44/48/17
f 40/44/17 44/48/17 41/45/17
f 54/58/18 43/59/18 55/60/18
f 43/59/18 54/58/18 56/61/18 44/62/18
f 33/37/19 40/44/19 39/43/19
f 33/37/19 39/43/19 34/38/19
f 38/42/20 43/47/20 42/46/20
f 38/42/20 42/46/20 36/40/20
f 33/37/5 36/40/5 42/46/5
f 33/37/5 42/46/5 40/44/5
f 57/63/6 35/39/6 47/51/6
f 35/39/6 57/63/6 49/53/6 37/41/6
f 58/64/21 46/65/21 34/38/21 39/43/21
f 58/64/21 39/43/21 53/57/21
f 59/66/22 38/67/22 50/68/22
f 38/67/22 59/66/22 55/60/22 43/59/22
f 60/69/8 41/39/8 44/41/8 56/70/8
f 52/51/8 41/39/8 60/69/8
f 61/71/23 62/72/23 63/73/23 64/74/23
f 62/72/23 61/71/23 65/75/23 66/76/23
f 67/77/24 68/78/24 69/79/24 70/80/24
f 68/78/24 67/77/24 71/81/24 72/82/24
f 73/83/5 74/84/5 66/76/5 65/75/5
f 74/84/5 73/83/5 70/80/5 69/79/5
f 75/85/6 64/74/6 63/73/6 76/86/6
f 77/87/8 78/88/8 72/89/8 71/90/8
