# Authored in Blender; exported by tools-export-modern.py
mtllib materials.mtl
s off
v 0.000000000 0.589678638 0.623509985
v 0.000000000 0.672717919 0.631688683
v 0.454999924 0.675581336 0.617293239
v 0.000000000 0.500000000 0.614677399
v 0.454999924 0.500000000 0.599999964
v 0.000000000 0.758950261 0.657846938
v 0.000000000 0.838798350 0.682068554
v 0.454999924 0.844415188 0.668508351
v 0.454925606 1.000000000 0.751672903
v 0.000000000 0.918270529 0.724547335
v 0.000000000 0.991859004 0.763881152
v 0.454254934 1.000000000 0.751697316
v 0.454999924 1.000000000 0.751670198
v 0.000000000 1.000000000 0.770562299
v 0.000000000 0.000000000 0.770562443
v 0.000000000 0.008141174 0.763881152
v 0.454261591 0.000000000 0.751697138
v 0.000000000 0.087613353 0.721402371
v 0.000000000 0.161201769 0.682068554
v 0.454999924 0.155584931 0.668508351
v 0.454999924 0.000000000 0.751670262
v 0.000000000 0.247434112 0.655910298
v 0.000000000 0.327282201 0.631688683
v 0.454999924 0.324418783 0.617293239
v 0.000000000 0.416960778 0.622856096
v 0.875000000 0.631685972 0.837969959
v 0.875000000 0.500000000 0.824999988
v 0.875000000 0.758311391 0.876381338
v 0.455044783 1.000000000 0.751697316
v 0.875000000 0.875010133 0.938758016
v 0.839817960 0.979199937 1.000000000
v 0.455246778 1.000000000 0.751836629
v 0.815067334 1.000000000 1.000000000
v 0.875000000 0.949633530 1.000000000
v 0.674163603 0.000000000 0.902820680
v 0.455044383 0.000000000 0.751697138
v 0.875000000 0.124990106 0.938758016
v 0.815067312 0.000000009 1.000000000
v 0.875000000 0.050366534 1.000000000
v 0.455022917 0.000000000 0.751684161
v 0.875000000 0.241688728 0.876381338
v 0.875000000 0.368314028 0.837969959
v 0.980693756 0.559797718 1.000000000
v 0.978252490 0.599456249 1.000000000
v 0.984374698 0.500000000 1.000000000
v 0.968427468 0.653349650 1.000000000
v 0.958627240 0.707106880 1.000000000
v 0.945792958 0.750458941 1.000000000
v 0.921034338 0.834089522 1.000000000
v 0.911216261 0.858732405 1.000000000
v 0.921034338 0.165910716 1.000000000
v 0.932646845 0.205135836 1.000000000
v 0.958627240 0.292893306 1.000000000
v 0.969136599 0.350540417 1.000000000
v 0.978252490 0.400543833 1.000000000
v 0.982053842 0.462297529 1.000000000
v 0.897500038 0.492499948 0.532500029
v 0.950000286 0.492499948 0.585000038
v 0.897500038 0.440000057 0.585000038
v 0.950000286 0.507500052 0.585000038
v 0.897500038 0.507500052 0.532500029
v 0.897500038 0.559999943 0.585000038
v 0.000000000 0.463618431 0.561381610
v 0.000000000 0.440000057 0.585000038
v 0.000000000 0.492499948 0.532500029
v 0.938094493 0.480594235 1.000000000
v 0.897500038 0.440000057 1.000000000
v 0.950000286 0.492499948 1.000000000
v 0.909405831 0.548094231 1.000000000
v 0.950000286 0.507500052 1.000000000
v 0.897500038 0.559999943 1.000000000
v 0.000000000 0.531118427 0.556118456
v 0.000000000 0.507500052 0.532500029
v 0.000000000 0.559999943 0.585000038
v 0.445082054 0.440000057 1.000000000
v 0.000000000 0.440000057 1.000000000
v 0.950000286 0.504098389 1.000000000
v 0.000000000 0.499248116 0.532500029
v 0.445082054 0.559999943 1.000000000
v 0.000000000 0.559999943 1.000000000
v 0.114500046 0.564500093 0.659999967
v 0.134750366 0.564500093 0.695074022
v 0.134750366 0.615500093 0.695074022
v 0.114500046 0.615500093 0.659999967
v 0.175250053 0.564500093 0.695074022
v 0.175250053 0.615500093 0.695074022
v 0.195500374 0.564500093 0.659999967
v 0.195500374 0.615500093 0.659999967
v 0.175250053 0.564500093 0.624925911
v 0.175250053 0.615500093 0.624925911
v 0.134750366 0.564500093 0.624925911
v 0.134750366 0.615500093 0.624925911
v 0.459499836 0.564500093 0.659999967
v 0.479750156 0.564500093 0.695074022
v 0.479750156 0.615500093 0.695074022
v 0.459499836 0.615500093 0.659999967
v 0.520249844 0.564500093 0.695074022
v 0.520249844 0.615500093 0.695074022
v 0.540500164 0.564500093 0.659999967
v 0.540500164 0.615500093 0.659999967
v 0.520249844 0.564500093 0.624925911
v 0.520249844 0.615500093 0.624925911
v 0.479750156 0.564500093 0.624925911
v 0.479750156 0.615500093 0.624925911
v 0.804500103 0.564500093 0.659999967
v 0.824750423 0.564500093 0.695074022
v 0.824750423 0.615500093 0.695074022
v 0.804500103 0.615500093 0.659999967
v 0.865250111 0.564500093 0.695074022
v 0.865250111 0.615500093 0.695074022
v 0.885500431 0.564500093 0.659999967
v 0.885500431 0.615500093 0.659999967
v 0.865250111 0.564500093 0.624925911
v 0.865250111 0.615500093 0.624925911
v 0.824750423 0.564500093 0.624925911
v 0.824750423 0.615500093 0.624925911
v 0.440000057 0.039499998 0.967500031
v 0.457999706 0.039499998 0.985500038
v 0.457999706 0.057500124 0.967500031
v 0.782000065 0.039499998 0.985500038
v 0.799999714 0.039499998 0.967500031
v 0.782000065 0.057500124 0.967500031
v 0.799999714 0.039499998 0.553499997
v 0.782000065 0.039499998 0.535499990
v 0.782000065 0.057500124 0.553499997
v 0.440000057 0.039499998 0.553499997
v 0.457999706 0.057500124 0.553499997
v 0.457999706 0.039499998 0.535499990
v 0.441182079 0.000000000 0.968682076
v 0.457999706 0.000000000 0.985500038
v 0.440000057 0.000000000 0.967500031
v 0.783182087 0.000000000 0.984317992
v 0.799999714 0.000000000 0.967500031
v 0.782000065 0.000000000 0.985500038
v 0.798817692 0.000000000 0.552317951
v 0.782000065 0.000000000 0.535499990
v 0.799999714 0.000000000 0.553499997
v 0.456817684 0.000000000 0.536682035
v 0.440000057 0.000000000 0.553499997
v 0.457999706 0.000000000 0.535499990
v 0.760723233 0.000000000 0.985500038
v 0.440000057 0.000000000 0.940312996
v 0.799999714 0.000000000 0.580687031
v 0.479276538 0.000000000 0.535499990
vt 0.692708351 0.068338453
vt 0.692708351 0.073744654
vt 0.716406286 0.073931076
vt 0.692708351 0.062500000
vt 0.716406286 0.062500000
vt 0.692708351 0.079358736
vt 0.692708351 0.084557177
vt 0.716406286 0.084922858
vt 0.716402415 0.095052081
vt 0.692708351 0.089731149
vt 0.692708351 0.094522063
vt 0.716367484 0.095052081
vt 0.716406286 0.095052081
vt 0.692708351 0.095052076
vt 0.692708351 0.029947914
vt 0.692708351 0.030477938
vt 0.716367831 0.029947913
vt 0.692708351 0.035651909
vt 0.692708351 0.040442821
vt 0.716406286 0.040077142
vt 0.716406286 0.029947913
vt 0.692708351 0.046056903
vt 0.692708351 0.051255346
vt 0.716406286 0.051068924
vt 0.692708351 0.057093799
vt 0.738281250 0.071073301
vt 0.738281250 0.062500000
vt 0.738281250 0.079317145
vt 0.716408622 0.095052081
vt 0.738281250 0.086914711
vt 0.736448855 0.093697903
vt 0.716419143 0.095052081
vt 0.735159763 0.095052074
vt 0.738281250 0.091773005
vt 0.727821040 0.029947916
vt 0.716408601 0.029947913
vt 0.738281250 0.038085293
vt 0.735159761 0.029947920
vt 0.738281250 0.033226990
vt 0.716407483 0.029947913
vt 0.738281250 0.045682859
vt 0.738281250 0.053926691
vt 0.720052067 0.066393079
vt 0.731445312 0.062500000
vt 0.730600893 0.071073301
vt 0.720052061 0.068975014
vt 0.720052086 0.062500000
vt 0.720052057 0.072483697
vt 0.728100181 0.079317145
vt 0.720052070 0.075983517
vt 0.720052082 0.078805916
vt 0.724039197 0.086914711
vt 0.720052083 0.084250610
vt 0.720052089 0.085854966
vt 0.720052099 0.091773005
vt 0.720052099 0.033226990
vt 0.724039197 0.038085293
vt 0.720052083 0.040749395
vt 0.720052075 0.043303113
vt 0.728100181 0.045682859
vt 0.720052070 0.049016489
vt 0.720052072 0.052769557
vt 0.730600893 0.053926691
vt 0.720052061 0.056024987
vt 0.720052080 0.060045411
vt 0.743164003 0.121093750
vt 0.746093750 0.117914252
vt 0.743164062 0.117914245
vt 0.743709207 0.069824226
vt 0.743164062 0.069824226
vt 0.743101597 0.119503997
vt 0.693080379 0.119344624
vt 0.693080325 0.117914245
vt 0.693080346 0.121093750
vt 0.745429367 0.092781015
vt 0.743164062 0.092781009
vt 0.746093750 0.096416233
vt 0.717925885 0.108237819
vt 0.718395703 0.069824225
vt 0.717925871 0.119864515
vt 0.693080352 0.091458710
vt 0.693080352 0.069824226
vt 0.693045988 0.118788808
vt 0.743164062 0.055175781
vt 0.742914200 0.055175781
vt 0.717917508 0.092781009
vt 0.693080325 0.092781009
vt 0.718395703 0.066502311
vt 0.717780985 0.055175781
vt 0.693080352 0.061765746
vt 0.693080352 0.055175781
vt 0.717869208 0.094010244
vt 0.743115763 0.094010244
vt 0.693045975 0.093655572
vt 0.937500000 0.003906250
vt 0.996093750 0.003906250
vt 0.996093750 0.121093750
vt 0.937500000 0.121093750
vt 0.966796875 0.003906250
vt 0.908203125 0.003906250
vt 0.908203125 0.121093750
vt 0.966796875 0.121093750
vt 0.878906250 0.003906250
vt 0.878906250 0.121093750
vt 0.996093750 0.062500000
vt 0.878906250 0.062500000
vt 0.633593738 0.117784917
vt 0.633300841 0.117784932
vt 0.633984447 0.121093750
vt 0.740234375 0.117784925
vt 0.746093750 0.117784940
vt 0.740234375 0.121093750
vt 0.742578089 0.117784917
vt 0.740234435 0.117784932
vt 0.740527332 0.118750006
vt 0.741406262 0.117784932
vt 0.741406202 0.121093750
vt 0.746093690 0.117784932
vt 0.633593738 0.117784932
vt 0.633593798 0.121093750
vt 0.634765625 0.117784925
vt 0.634765625 0.116406247
vt 0.633670699 0.110469567
vt 0.633397036 0.110469581
vt 0.633439828 0.110569157
vt 0.740619155 0.110584253
vt 0.746093750 0.110584267
vt 0.740234375 0.110469574
vt 0.742424183 0.110523889
vt 0.740234435 0.110523903
vt 0.742501132 0.110523889
vt 0.745785871 0.110523903
vt 0.741406262 0.110523903
vt 0.746093694 0.110523902
vt 0.733308335 0.110469574
vt 0.640673696 0.110523889
vt 0.735421182 0.110523889
vt 0.633593742 0.110523903
vt 0.641691673 0.110523896
vt 0.634765625 0.110523896
vt 0.634765625 0.008593751
vt 0.740234315 0.008593751
vn -0.032086312 0.097967170 -0.994672259
vn -0.032086242 0.097966796 -0.994672298
vn -0.032086303 0.290134796 -0.956447735
vn -0.032086306 0.290134812 -0.956447730
vn -0.032086198 0.471153627 -0.881467377
vn -0.032086311 0.471154158 -0.881467089
vn -0.032086205 0.634066873 -0.772612242
vn -0.032086287 -0.634066744 -0.772612344
vn -0.032086312 -0.471153915 -0.881467218
vn -0.032086261 -0.471154158 -0.881467090
vn -0.032086306 -0.290134796 -0.956447735
vn -0.032086303 -0.290134812 -0.956447730
vn -0.032086241 -0.097967238 -0.994672254
vn -0.032086311 -0.097966862 -0.994672289
vn 0.470451746 0.086492956 -0.878176590
vn 0.470451712 0.086493075 -0.878176596
vn 0.470451824 0.256154302 -0.844428834
vn 0.470451758 0.256154530 -0.844428801
vn 0.470451651 0.415972755 -0.778229986
vn 0.470451859 0.415972063 -0.778230230
vn 0.470451794 0.559805143 -0.682124118
vn 0.470451578 0.559805801 -0.682123727
vn 0.470451732 -0.559805163 -0.682124143
vn 0.470451660 -0.559804993 -0.682124333
vn 0.470451829 -0.415972711 -0.778229902
vn 0.470451729 -0.415972427 -0.778230115
vn 0.470451711 -0.256154319 -0.844428891
vn 0.470451842 -0.256154738 -0.844428691
vn 0.470451715 -0.086493016 -0.878176601
vn 0.470451732 -0.086493074 -0.878176586
vn 0.846845913 0.052129409 -0.529277361
vn 0.846846007 0.052128933 -0.529277256
vn 0.846845825 0.154384475 -0.508937700
vn 0.846845914 0.154384021 -0.508937690
vn 0.846845884 0.250706561 -0.469039730
vn 0.846845827 0.250706850 -0.469039679
vn 0.846845954 0.337395095 -0.411116139
vn 0.846845867 0.337395512 -0.411115977
vn 0.846845913 -0.337394667 -0.411116576
vn 0.846845886 -0.250706759 -0.469039622
vn 0.846845897 -0.250706798 -0.469039581
vn 0.846845923 -0.154384563 -0.508937510
vn 0.846845850 -0.154384257 -0.508937724
vn 0.846845987 -0.052129397 -0.529277243
vn 0.846845907 -0.052129021 -0.529277408
vn 0.577348084 -0.577352017 -0.577350706
vn 0.577348084 0.577352017 -0.577350706
vn -0.000000000 -0.707107584 -0.707105978
vn 0.707104373 -0.707109190 0.000000000
vn 0.707104373 0.707109190 0.000000000
vn 0.000000000 0.707107584 -0.707105978
vn 0.707105176 0.000000000 -0.707108387
vn 0.000000000 -1.000000000 0.000000000
vn 1.000000000 0.000000000 0.000000000
vn 0.000000000 0.000000000 -1.000000000
vn -0.000000000 1.000000000 0.000000000
vn -0.866022140 0.000000000 0.500005652
vn 0.000000000 0.000000000 1.000000000
vn 0.866022140 0.000000000 0.500005652
vn 0.866022140 0.000000000 -0.500005652
vn -0.866022140 0.000000000 -0.500005652
vn -0.577359191 0.577343896 0.577347720
vn 0.577359191 0.577343896 0.577347720
vn 0.577359191 0.577343896 -0.577347720
vn -0.577359191 0.577343896 -0.577347720
vn -0.707116147 0.707097415 0.000000000
vn -0.000000000 0.707104440 0.707109123
vn 0.707116147 0.707097415 0.000000000
vn 0.000000000 0.707104440 -0.707109123
vn -0.707113806 0.000000000 0.707099757
vn 0.707113806 -0.000000000 0.707099757
vn 0.707113806 0.000000000 -0.707099757
vn -0.707113806 0.000000000 -0.707099757
vn -1.000000000 0.000000000 0.000000000
usemtl mat_0
f 1/1/1 2/2/1 3/3/1
f 4/4/2 1/1/2 3/3/2 5/5/2
f 6/6/3 7/7/3 8/8/3
f 2/2/4 6/6/4 8/8/4 3/3/4
f 9/9/5 10/10/5 11/11/5 12/12/5
f 7/7/6 10/10/6 9/9/6
f 7/7/6 9/9/6 13/13/6
f 7/7/6 13/13/6 8/8/6
f 12/12/7 11/11/7 14/14/7
f 15/15/8 16/16/8 17/17/8
f 18/18/9 19/19/9 20/20/9
f 17/17/10 16/16/10 18/18/10
f 17/17/10 18/18/10 20/20/10
f 17/17/10 20/20/10 21/21/10
f 22/22/11 23/23/11 24/24/11
f 19/19/12 22/22/12 24/24/12 20/20/12
f 25/25/13 4/4/13 5/5/13
f 23/23/14 25/25/14 5/5/14 24/24/14
f 5/5/15 3/3/15 26/26/15
f 5/5/16 26/26/16 27/27/16
f 3/3/17 8/8/17 28/28/17
f 3/3/18 28/28/18 26/26/18
f 8/8/19 13/13/19 29/29/19 30/30/19
f 8/8/20 30/30/20 28/28/20
f 31/31/21 32/32/21 33/33/21
f 29/29/22 32/32/22 31/31/22
f 29/29/22 31/31/22 34/34/22
f 29/29/22 34/34/22 30/30/22
f 35/35/23 36/36/23 37/37/23
f 38/38/24 35/35/24 37/37/24 39/39/24
f 40/40/25 21/21/25 20/20/25 41/41/25
f 36/36/26 40/40/26 41/41/26 37/37/26
f 20/20/27 24/24/27 42/42/27
f 20/20/28 42/42/28 41/41/28
f 24/24/29 5/5/29 27/27/29
f 24/24/30 27/27/30 42/42/30
f 43/43/31 27/44/31 26/45/31 44/46/31
f 45/47/32 27/44/32 43/43/32
f 46/48/33 26/45/33 28/49/33 47/50/33
f 44/46/34 26/45/34 46/48/34
f 48/51/35 28/49/35 30/52/35 49/53/35
f 47/50/36 28/49/36 48/51/36
f 50/54/37 30/52/37 34/55/37
f 49/53/38 30/52/38 50/54/38
f 39/56/39 37/57/39 51/58/39
f 52/59/40 37/57/40 41/60/40 53/61/40
f 51/58/41 37/57/41 52/59/41
f 54/62/42 41/60/42 42/63/42 55/64/42
f 53/61/43 41/60/43 54/62/43
f 56/65/44 42/63/44 27/44/44 45/47/44
f 55/64/45 42/63/45 56/65/45
f 57/66/46 58/67/46 59/68/46
f 60/69/47 61/70/47 62/71/47
f 63/72/48 59/68/48 64/73/48
f 59/68/48 63/72/48 65/74/48 57/66/48
f 66/75/49 67/76/49 59/68/49 58/67/49
f 66/75/49 58/67/49 68/77/49
f 69/78/50 70/79/50 60/69/50 62/71/50
f 69/78/50 62/71/50 71/80/50
f 72/81/51 61/70/51 73/82/51
f 61/70/51 72/81/51 74/83/51 62/71/51
f 57/84/52 61/70/52 60/69/52
f 57/84/52 60/69/52 58/85/52
f 75/86/53 76/87/53 64/73/53 59/68/53
f 75/86/53 59/68/53 67/76/53
f 77/88/54 68/89/54 58/85/54 60/69/54
f 77/88/54 60/69/54 70/79/54
f 78/90/55 57/84/55 65/91/55
f 57/84/55 78/90/55 73/82/55 61/70/55
f 79/92/56 71/93/56 62/71/56
f 80/94/56 79/92/56 62/71/56 74/83/56
usemtl mat_1
f 81/95/57 82/96/57 83/97/57
f 81/95/57 83/97/57 84/98/57
f 82/99/58 85/100/58 86/101/58
f 82/99/58 86/101/58 83/102/58
f 85/96/59 87/95/59 88/98/59
f 85/96/59 88/98/59 86/97/59
f 87/95/60 89/103/60 90/104/60
f 87/95/60 90/104/60 88/98/60
f 89/100/55 91/99/55 92/102/55
f 89/100/55 92/102/55 90/101/55
f 91/103/61 81/95/61 84/98/61
f 91/103/61 84/98/61 92/104/61
f 81/105/53 91/99/53 89/100/53
f 89/100/53 87/106/53 85/101/53
f 85/101/53 82/102/53 81/105/53
f 89/100/53 85/101/53 81/105/53
f 92/99/56 84/105/56 83/102/56
f 83/102/56 86/101/56 88/106/56
f 88/106/56 90/100/56 92/99/56
f 83/102/56 88/106/56 92/99/56
f 93/95/57 94/96/57 95/97/57
f 93/95/57 95/97/57 96/98/57
f 94/99/58 97/100/58 98/101/58
f 94/99/58 98/101/58 95/102/58
f 97/96/59 99/95/59 100/98/59
f 97/96/59 100/98/59 98/97/59
f 99/95/60 101/103/60 102/104/60
f 99/95/60 102/104/60 100/98/60
f 101/100/55 103/99/55 104/102/55
f 101/100/55 104/102/55 102/101/55
f 103/103/61 93/95/61 96/98/61
f 103/103/61 96/98/61 104/104/61
f 93/105/53 103/99/53 101/100/53
f 101/100/53 99/106/53 97/101/53
f 97/101/53 94/102/53 93/105/53
f 101/100/53 97/101/53 93/105/53
f 104/99/56 96/105/56 95/102/56
f 95/102/56 98/101/56 100/106/56
f 100/106/56 102/100/56 104/99/56
f 95/102/56 100/106/56 104/99/56
f 105/95/57 106/96/57 107/97/57
f 105/95/57 107/97/57 108/98/57
f 106/99/58 109/100/58 110/101/58
f 106/99/58 110/101/58 107/102/58
f 109/96/59 111/95/59 112/98/59
f 109/96/59 112/98/59 110/97/59
f 111/95/60 113/103/60 114/104/60
f 111/95/60 114/104/60 112/98/60
f 113/100/55 115/99/55 116/102/55
f 113/100/55 116/102/55 114/101/55
f 115/103/61 105/95/61 108/98/61
f 115/103/61 108/98/61 116/104/61
f 105/105/53 115/99/53 113/100/53
f 113/100/53 111/106/53 109/101/53
f 109/101/53 106/102/53 105/105/53
f 113/100/53 109/101/53 105/105/53
f 116/99/56 108/105/56 107/102/56
f 107/102/56 110/101/56 112/106/56
f 112/106/56 114/100/56 116/99/56
f 107/102/56 112/106/56 116/99/56
usemtl mat_0
f 117/107/62 118/108/62 119/109/62
f 120/110/63 121/111/63 122/112/63
f 123/113/64 124/114/64 125/115/64
f 126/116/65 127/117/65 128/118/65
f 119/109/66 127/117/66 126/116/66
f 119/109/66 126/116/66 117/107/66
f 118/108/67 120/110/67 122/112/67
f 118/108/67 122/112/67 119/109/67
f 121/119/68 123/113/68 125/115/68
f 121/119/68 125/115/68 122/120/68
f 124/114/69 128/121/69 127/122/69
f 124/114/69 127/122/69 125/115/69
f 129/123/70 130/124/70 118/108/70 117/107/70
f 129/123/70 117/107/70 131/125/70
f 132/126/71 133/127/71 121/111/71 120/110/71
f 132/126/71 120/110/71 134/128/71
f 135/129/72 136/130/72 124/114/72 123/113/72
f 135/129/72 123/113/72 137/131/72
f 138/132/73 139/133/73 126/116/73 128/118/73
f 138/132/73 128/118/73 140/134/73
f 141/135/58 134/128/58 120/110/58
f 130/124/58 141/135/58 120/110/58 118/108/58
f 142/136/74 131/125/74 117/107/74
f 139/133/74 142/136/74 117/107/74 126/116/74
f 143/137/54 137/131/54 123/113/54
f 133/138/54 143/137/54 123/113/54 121/119/54
f 144/139/55 140/140/55 128/121/55
f 136/130/55 144/139/55 128/121/55 124/114/55
f 119/141/56 122/142/56 125/115/56
f 119/141/56 125/115/56 127/122/56
