# Authored in Blender; exported by tools-export-modern.py
mtllib materials.mtl
s off
v 0.000000000 0.518448707 0.257868891
v 0.000000000 0.563296846 0.263773224
v 0.094999790 0.550314546 0.312224030
v 0.000000000 0.500000000 0.255440048
v 0.094999790 0.500000000 0.305599928
v 0.000000000 0.580488230 0.270894135
v 0.000000000 0.622280014 0.288204875
v 0.094999790 0.597200036 0.331644654
v 0.000000000 0.637042642 0.299532628
v 0.000000000 0.672930017 0.327070026
v 0.094999790 0.637461662 0.362538457
v 0.000000000 0.684257726 0.341832611
v 0.000000000 0.711795200 0.377719986
v 0.094999790 0.668355346 0.402799964
v 0.000000000 0.718916111 0.394911414
v 0.000000000 0.736226776 0.436703198
v 0.094999790 0.687775970 0.449685574
v 0.000000000 0.738655663 0.455151861
v 0.000000000 0.744559996 0.500000000
v 0.094999790 0.694400191 0.500000000
v 0.000000000 0.742131109 0.518448663
v 0.000000000 0.736226776 0.563296802
v 0.094999790 0.687775970 0.550314426
v 0.000000000 0.729105865 0.580488230
v 0.000000000 0.711795200 0.622280014
v 0.094999790 0.668355346 0.597200036
v 0.000000000 0.700467492 0.637042598
v 0.000000000 0.672930017 0.672929974
v 0.094999790 0.637461662 0.637461543
v 0.000000000 0.658167389 0.684257726
v 0.000000000 0.622280014 0.711795125
v 0.094999790 0.597200036 0.668355346
v 0.000000000 0.605088630 0.718916035
v 0.000000000 0.563296846 0.736226776
v 0.094999790 0.550314546 0.687775970
v 0.000000000 0.544848139 0.738655619
v 0.000000000 0.500000000 0.744559952
v 0.094999790 0.500000000 0.694400072
v 0.000000000 0.481551381 0.742131109
v 0.000000000 0.436703317 0.736226776
v 0.094999790 0.449685693 0.687775970
v 0.000000000 0.419511889 0.729105865
v 0.000000000 0.377720105 0.711795125
v 0.094999790 0.402800083 0.668355346
v 0.000000000 0.362957477 0.700467372
v 0.000000000 0.327070026 0.672929974
v 0.094999790 0.362538457 0.637461543
v 0.000000000 0.315742274 0.658167389
v 0.000000000 0.288204951 0.622280014
v 0.094999790 0.331644654 0.597200036
v 0.000000000 0.281084084 0.605088586
v 0.000000000 0.263773268 0.563296802
v 0.094999790 0.312224150 0.550314426
v 0.000000000 0.261344468 0.544848139
v 0.000000000 0.255440135 0.500000000
v 0.094999790 0.305600166 0.500000000
v 0.000000000 0.257868934 0.481551337
v 0.000000000 0.263773268 0.436703198
v 0.094999790 0.312224150 0.449685574
v 0.000000000 0.270894135 0.419511770
v 0.000000000 0.288204951 0.377719986
v 0.094999790 0.331644654 0.402799964
v 0.000000000 0.299532703 0.362957402
v 0.000000000 0.327070026 0.327070026
v 0.094999790 0.362538457 0.362538457
v 0.000000000 0.341832655 0.315742274
v 0.000000000 0.377720105 0.288204875
v 0.094999790 0.402800083 0.331644654
v 0.000000000 0.394911533 0.281083965
v 0.000000000 0.436703317 0.263773224
v 0.094999790 0.449685693 0.312224030
v 0.000000000 0.455151936 0.261344381
v 0.050000191 0.500000000 0.200000048
v 0.050000191 0.577645659 0.210222244
v 0.170000076 0.589292526 0.166755557
v 0.170000076 0.500000000 0.154999971
v 0.050000191 0.650000095 0.240192413
v 0.170000076 0.672500134 0.201221228
v 0.050000191 0.712132096 0.287867904
v 0.170000076 0.743952036 0.256048203
v 0.050000191 0.759807825 0.350000024
v 0.170000076 0.798778772 0.327499986
v 0.050000191 0.789777875 0.422354221
v 0.170000076 0.833244562 0.410707474
v 0.050000191 0.800000072 0.500000000
v 0.170000076 0.845000029 0.500000000
v 0.050000191 0.789777875 0.577645779
v 0.170000076 0.833244562 0.589292526
v 0.050000191 0.759807825 0.649999976
v 0.170000076 0.798778772 0.672500014
v 0.050000191 0.712132096 0.712132096
v 0.170000076 0.743952036 0.743951797
v 0.050000191 0.650000095 0.759807587
v 0.170000076 0.672500134 0.798778772
v 0.050000191 0.577645659 0.789777756
v 0.170000076 0.589292526 0.833244443
v 0.050000191 0.500000000 0.799999952
v 0.170000076 0.500000000 0.845000029
v 0.050000191 0.422354221 0.789777756
v 0.170000076 0.410707474 0.833244443
v 0.050000191 0.350000024 0.759807587
v 0.170000076 0.327500105 0.798778772
v 0.050000191 0.287868023 0.712132096
v 0.170000076 0.256048203 0.743951797
v 0.050000191 0.240192413 0.649999976
v 0.170000076 0.201221228 0.672500014
v 0.050000191 0.210222363 0.577645779
v 0.170000076 0.166755676 0.589292526
v 0.050000191 0.200000048 0.500000000
v 0.170000076 0.154999971 0.500000000
v 0.050000191 0.210222363 0.422354221
v 0.170000076 0.166755676 0.410707474
v 0.050000191 0.240192413 0.350000024
v 0.170000076 0.201221228 0.327499986
v 0.050000191 0.287868023 0.287867904
v 0.170000076 0.256048203 0.256048203
v 0.050000191 0.350000024 0.240192413
v 0.170000076 0.327500105 0.201221228
v 0.050000191 0.422354221 0.210222244
v 0.170000076 0.410707474 0.166755557
v 0.559999943 0.589292526 0.166755557
v 0.559999943 0.500000000 0.154999971
v 0.559999943 0.672500134 0.201221228
v 0.559999943 0.743952036 0.256048203
v 0.559999943 0.798778772 0.327499986
v 0.559999943 0.833244562 0.410707474
v 0.559999943 0.845000029 0.500000000
v 0.559999943 0.833244562 0.589292526
v 0.559999943 0.798778772 0.672500014
v 0.559999943 0.743952036 0.743951797
v 0.559999943 0.672500134 0.798778772
v 0.559999943 0.589292526 0.833244443
v 0.559999943 0.500000000 0.845000029
v 0.559999943 0.410707474 0.833244443
v 0.559999943 0.327500105 0.798778772
v 0.559999943 0.256048203 0.743951797
v 0.559999943 0.201221228 0.672500014
v 0.559999943 0.166755676 0.589292526
v 0.559999943 0.154999971 0.500000000
v 0.559999943 0.166755676 0.410707474
v 0.559999943 0.201221228 0.327499986
v 0.559999943 0.256048203 0.256048203
v 0.559999943 0.327500105 0.201221228
v 0.559999943 0.410707474 0.166755557
v 0.679999828 0.558234453 0.282666683
v 0.679999828 0.500000000 0.274999976
v 0.679999828 0.612500072 0.305144310
v 0.679999828 0.659098983 0.340901017
v 0.679999828 0.694855690 0.387500048
v 0.679999828 0.717333317 0.441765666
v 0.679999828 0.725000024 0.500000000
v 0.679999828 0.717333317 0.558234334
v 0.679999828 0.694855690 0.612499952
v 0.679999828 0.659098983 0.659098983
v 0.679999828 0.612500072 0.694855690
v 0.679999828 0.558234453 0.717333317
v 0.679999828 0.500000000 0.725000024
v 0.679999828 0.441765785 0.717333317
v 0.679999828 0.387500048 0.694855690
v 0.679999828 0.340901136 0.659098983
v 0.679999828 0.305144429 0.612499952
v 0.679999828 0.282666802 0.558234334
v 0.679999828 0.275000095 0.500000000
v 0.679999828 0.282666802 0.441765666
v 0.679999828 0.305144429 0.387500048
v 0.679999828 0.340901136 0.340901017
v 0.679999828 0.387500048 0.305144310
v 0.679999828 0.441765785 0.282666683
v 0.079999924 0.482000113 0.796999931
v 0.098000050 0.482000113 0.815000057
v 0.098000050 0.500000000 0.796999931
v 0.511999607 0.482000113 0.815000057
v 0.529999733 0.482000113 0.796999931
v 0.511999607 0.500000000 0.796999931
v 0.529999733 0.482000113 0.203000069
v 0.511999607 0.482000113 0.184999943
v 0.511999607 0.500000000 0.203000069
v 0.079999924 0.482000113 0.203000069
v 0.098000050 0.500000000 0.203000069
v 0.098000050 0.482000113 0.184999943
v 0.088192617 0.000000000 0.805192625
v 0.098000050 0.000000000 0.815000057
v 0.079999924 0.000000000 0.796999931
v 0.520192300 0.000000000 0.806807364
v 0.529999733 0.000000000 0.796999931
v 0.511999607 0.000000000 0.815000057
v 0.521807040 0.000000000 0.194807375
v 0.511999607 0.000000000 0.184999943
v 0.529999733 0.000000000 0.203000069
v 0.089807356 0.000000000 0.193192636
v 0.079999924 0.000000000 0.203000069
v 0.098000050 0.000000000 0.184999943
v 0.323569183 0.000000000 0.815000057
v 0.079999924 0.000000000 0.526643009
v 0.529999733 0.000000000 0.473356991
v 0.286430474 0.000000000 0.184999943
v 0.432499886 0.830000162 0.500000000
v 0.423456669 0.830000162 0.466249943
v 0.423456669 0.934999943 0.466249943
v 0.432499886 0.934999943 0.500000000
v 0.398749828 0.830000162 0.441543341
v 0.398749828 0.934999943 0.441543341
v 0.364999771 0.830000162 0.432500005
v 0.364999771 0.934999943 0.432500005
v 0.331250191 0.830000162 0.441543341
v 0.331250191 0.934999943 0.441543341
v 0.306543350 0.830000162 0.466249943
v 0.306543350 0.934999943 0.466249943
v 0.297500134 0.830000162 0.500000000
v 0.297500134 0.934999943 0.500000000
v 0.306543350 0.830000162 0.533750057
v 0.306543350 0.934999943 0.533750057
v 0.331250191 0.830000162 0.558456659
v 0.331250191 0.934999943 0.558456659
v 0.364999771 0.830000162 0.567499995
v 0.364999771 0.934999943 0.567499995
v 0.398749828 0.830000162 0.558456659
v 0.398749828 0.934999943 0.558456659
v 0.423456669 0.830000162 0.533750057
v 0.423456669 0.934999943 0.533750057
v 0.605000019 0.500000000 0.357499957
v 0.605000019 0.536881685 0.362355590
v 0.934999943 0.536881685 0.362355590
v 0.934999943 0.500000000 0.357499957
v 0.605000019 0.571250081 0.376591325
v 0.934999943 0.571250081 0.376591325
v 0.605000019 0.600762725 0.399237275
v 0.934999943 0.600762725 0.399237275
v 0.605000019 0.623408675 0.428750038
v 0.934999943 0.623408675 0.428750038
v 0.605000019 0.637644529 0.463118315
v 0.934999943 0.637644529 0.463118315
v 0.605000019 0.642500162 0.500000000
v 0.934999943 0.642500162 0.500000000
v 0.605000019 0.637644529 0.536881685
v 0.934999943 0.637644529 0.536881685
v 0.605000019 0.623408675 0.571249962
v 0.934999943 0.623408675 0.571249962
v 0.605000019 0.600762725 0.600762725
v 0.934999943 0.600762725 0.600762725
v 0.605000019 0.571250081 0.623408675
v 0.934999943 0.571250081 0.623408675
v 0.605000019 0.536881685 0.637644410
v 0.934999943 0.536881685 0.637644410
v 0.605000019 0.500000000 0.642500043
v 0.934999943 0.500000000 0.642500043
v 0.605000019 0.463118315 0.637644410
v 0.934999943 0.463118315 0.637644410
v 0.605000019 0.428750038 0.623408675
v 0.934999943 0.428750038 0.623408675
v 0.605000019 0.399237394 0.600762725
v 0.934999943 0.399237394 0.600762725
v 0.605000019 0.376591444 0.571249962
v 0.934999943 0.376591444 0.571249962
v 0.605000019 0.362355709 0.536881685
v 0.934999943 0.362355709 0.536881685
v 0.605000019 0.357499957 0.500000000
v 0.934999943 0.357499957 0.500000000
v 0.605000019 0.362355709 0.463118315
v 0.934999943 0.362355709 0.463118315
v 0.605000019 0.376591444 0.428750038
v 0.934999943 0.376591444 0.428750038
v 0.605000019 0.399237394 0.399237275
v 0.934999943 0.399237394 0.399237275
v 0.605000019 0.428750038 0.376591325
v 0.934999943 0.428750038 0.376591325
v 0.605000019 0.463118315 0.362355590
v 0.934999943 0.463118315 0.362355590
v 1.000000000 0.507018013 0.374023965
v 0.875000000 0.500000000 0.373100042
v 0.875000000 0.532844305 0.377424002
v 1.000000000 0.532844305 0.377424002
v 1.000000000 0.500000000 0.373100042
v 1.000000000 0.539384004 0.380132854
v 0.875000000 0.563450098 0.390101433
v 1.000000000 0.563450098 0.390101433
v 1.000000000 0.569065874 0.394410568
v 0.875000000 0.589731932 0.410268188
v 1.000000000 0.589731932 0.410268188
v 1.000000000 0.594041093 0.415883964
v 0.875000000 0.609898806 0.436550021
v 1.000000000 0.609898806 0.436550021
v 1.000000000 0.612607633 0.443089720
v 0.875000000 0.622576118 0.467155814
v 1.000000000 0.622576118 0.467155814
v 1.000000000 0.623500015 0.474173802
v 0.875000000 0.626899958 0.500000000
v 1.000000000 0.626899958 0.500000000
v 1.000000000 0.625976060 0.507017988
v 0.875000000 0.622576118 0.532844186
v 1.000000000 0.622576118 0.532844186
v 1.000000000 0.619867290 0.539383885
v 0.875000000 0.609898806 0.563449979
v 1.000000000 0.609898806 0.563449979
v 1.000000000 0.605589645 0.569065755
v 0.875000000 0.589731932 0.589731812
v 1.000000000 0.589731932 0.589731812
v 1.000000000 0.584116156 0.594040948
v 0.875000000 0.563450098 0.609898567
v 1.000000000 0.563450098 0.609898567
v 1.000000000 0.556910399 0.612607420
v 0.875000000 0.532844305 0.622575998
v 1.000000000 0.532844305 0.622575998
v 1.000000000 0.525826292 0.623499921
v 0.875000000 0.500000000 0.626899958
v 1.000000000 0.500000000 0.626899958
v 1.000000000 0.492982038 0.625976035
v 0.875000000 0.467155933 0.622575998
v 1.000000000 0.467155933 0.622575998
v 1.000000000 0.460616209 0.619867146
v 0.875000000 0.436550021 0.609898567
v 1.000000000 0.436550021 0.609898567
v 1.000000000 0.430934271 0.605589432
v 0.875000000 0.410268307 0.589731812
v 1.000000000 0.410268307 0.589731812
v 1.000000000 0.405959146 0.584116036
v 0.875000000 0.390101433 0.563449979
v 1.000000000 0.390101433 0.563449979
v 1.000000000 0.387392606 0.556910280
v 0.875000000 0.377424121 0.532844186
v 1.000000000 0.377424121 0.532844186
v 1.000000000 0.376500198 0.525826198
v 0.875000000 0.373100162 0.500000000
v 1.000000000 0.373100162 0.500000000
v 1.000000000 0.374024084 0.492982012
v 0.875000000 0.377424121 0.467155814
v 1.000000000 0.377424121 0.467155814
v 1.000000000 0.380132948 0.460616115
v 0.875000000 0.390101433 0.436550021
v 1.000000000 0.390101433 0.436550021
v 1.000000000 0.394410594 0.430934245
v 0.875000000 0.410268307 0.410268188
v 1.000000000 0.410268307 0.410268188
v 1.000000000 0.415884057 0.405959052
v 0.875000000 0.436550021 0.390101433
v 1.000000000 0.436550021 0.390101433
v 1.000000000 0.443089746 0.387392580
v 0.875000000 0.467155933 0.377424002
v 1.000000000 0.467155933 0.377424002
v 1.000000000 0.474173896 0.376500079
v 1.000000000 0.559489833 0.241833262
v 0.905000210 0.500000000 0.230000019
v 0.905000210 0.603324652 0.250552535
v 1.000000000 0.603324652 0.250552535
v 1.000000000 0.500000000 0.230000019
v 1.000000000 0.653757617 0.284250789
v 0.905000210 0.690918922 0.309081197
v 1.000000000 0.690918922 0.309081197
v 1.000000000 0.724617108 0.359514162
v 0.905000210 0.749447465 0.396675467
v 1.000000000 0.749447465 0.396675467
v 1.000000000 0.761280846 0.456165232
v 0.905000210 0.770000219 0.500000000
v 1.000000000 0.770000219 0.500000000
v 1.000000000 0.758166839 0.559489765
v 0.905000210 0.749447465 0.603324533
v 1.000000000 0.749447465 0.603324533
v 1.000000000 0.715749280 0.653757498
v 0.905000210 0.690918922 0.690918803
v 1.000000000 0.690918922 0.690918803
v 1.000000000 0.640485957 0.724617057
v 0.905000210 0.603324652 0.749447465
v 1.000000000 0.603324652 0.749447465
v 1.000000000 0.543834818 0.761280708
v 0.905000210 0.500000000 0.769999981
v 1.000000000 0.500000000 0.769999981
v 1.000000000 0.440510304 0.758166738
v 0.905000210 0.396675587 0.749447465
v 1.000000000 0.396675587 0.749447465
v 1.000000000 0.346242553 0.715749211
v 0.905000210 0.309081197 0.690918803
v 1.000000000 0.309081197 0.690918803
v 1.000000000 0.275382943 0.640485838
v 0.905000210 0.250552535 0.603324533
v 1.000000000 0.250552535 0.603324533
v 1.000000000 0.238719292 0.543834768
v 0.905000210 0.230000019 0.500000000
v 1.000000000 0.230000019 0.500000000
v 1.000000000 0.241833262 0.440510235
v 0.905000210 0.250552535 0.396675467
v 1.000000000 0.250552535 0.396675467
v 1.000000000 0.284250789 0.346242502
v 0.905000210 0.309081197 0.309081197
v 1.000000000 0.309081197 0.309081197
v 1.000000000 0.359514231 0.275382943
v 0.905000210 0.396675587 0.250552535
v 1.000000000 0.396675587 0.250552535
v 1.000000000 0.456165283 0.238719292
v 0.900499821 0.594499946 0.693678737
v 0.900499821 0.620480657 0.678678751
v 0.876499653 0.620480657 0.678678751
v 0.876499653 0.594499946 0.693678737
v 0.900499821 0.620480657 0.648678780
v 0.876499653 0.620480657 0.648678780
v 0.900499821 0.594499946 0.633678794
v 0.876499653 0.594499946 0.633678794
v 0.900499821 0.568519235 0.648678780
v 0.876499653 0.568519235 0.648678780
v 0.900499821 0.568519235 0.678678751
v 0.876499653 0.568519235 0.678678751
v 0.900499821 0.689000130 0.529999971
v 0.900499821 0.714980841 0.514999986
v 0.876499653 0.714980841 0.514999986
v 0.876499653 0.689000130 0.529999971
v 0.900499821 0.714980841 0.485000014
v 0.876499653 0.714980841 0.485000014
v 0.900499821 0.689000130 0.470000029
v 0.876499653 0.689000130 0.470000029
v 0.900499821 0.663019419 0.485000014
v 0.876499653 0.663019419 0.485000014
v 0.900499821 0.663019419 0.514999986
v 0.876499653 0.663019419 0.514999986
v 0.900499821 0.594499946 0.366321206
v 0.900499821 0.620480657 0.351321220
v 0.876499653 0.620480657 0.351321220
v 0.876499653 0.594499946 0.366321206
v 0.900499821 0.620480657 0.321321249
v 0.876499653 0.620480657 0.321321249
v 0.900499821 0.594499946 0.306321263
v 0.876499653 0.594499946 0.306321263
v 0.900499821 0.568519235 0.321321249
v 0.876499653 0.568519235 0.321321249
v 0.900499821 0.568519235 0.351321220
v 0.876499653 0.568519235 0.351321220
v 0.900499821 0.405500054 0.366321206
v 0.900499821 0.431480765 0.351321220
v 0.876499653 0.431480765 0.351321220
v 0.876499653 0.405500054 0.366321206
v 0.900499821 0.431480765 0.321321249
v 0.876499653 0.431480765 0.321321249
v 0.900499821 0.405500054 0.306321263
v 0.876499653 0.405500054 0.306321263
v 0.900499821 0.379519343 0.321321249
v 0.876499653 0.379519343 0.321321249
v 0.900499821 0.379519343 0.351321220
v 0.876499653 0.379519343 0.351321220
v 0.900499821 0.311000109 0.529999971
v 0.900499821 0.336980820 0.514999986
v 0.876499653 0.336980820 0.514999986
v 0.876499653 0.311000109 0.529999971
v 0.900499821 0.336980820 0.485000014
v 0.876499653 0.336980820 0.485000014
v 0.900499821 0.311000109 0.470000029
v 0.876499653 0.311000109 0.470000029
v 0.900499821 0.285019398 0.485000014
v 0.876499653 0.285019398 0.485000014
v 0.900499821 0.285019398 0.514999986
v 0.876499653 0.285019398 0.514999986
v 0.900499821 0.405500054 0.693678737
v 0.900499821 0.431480765 0.678678751
v 0.876499653 0.431480765 0.678678751
v 0.876499653 0.405500054 0.693678737
v 0.900499821 0.431480765 0.648678780
v 0.876499653 0.431480765 0.648678780
v 0.900499821 0.405500054 0.633678794
v 0.876499653 0.405500054 0.633678794
v 0.900499821 0.379519343 0.648678780
v 0.876499653 0.379519343 0.648678780
v 0.900499821 0.379519343 0.678678751
v 0.876499653 0.379519343 0.678678751
vt 0.718605350 0.065563988
vt 0.718605350 0.073012448
vt 0.746093750 0.070856325
vt 0.718605350 0.062499993
vt 0.746093750 0.062499993
vt 0.718605350 0.075867632
vt 0.718605350 0.082808502
vt 0.746093750 0.078643173
vt 0.718605350 0.085260306
vt 0.718605350 0.091220556
vt 0.746093750 0.085329898
vt 0.718605350 0.088768761
vt 0.718605350 0.082808507
vt 0.718605350 0.091220566
vt 0.718605350 0.079953323
vt 0.718605350 0.073012458
vt 0.718605350 0.069948465
vt 0.718605350 0.062500000
vt 0.746093750 0.062500000
vt 0.718605350 0.059436009
vt 0.718605350 0.051987541
vt 0.746093750 0.054143678
vt 0.718605350 0.049132355
vt 0.718605350 0.042191492
vt 0.746093750 0.046356823
vt 0.718605350 0.039739689
vt 0.718605350 0.033779433
vt 0.746093750 0.039670102
vt 0.718605350 0.088768752
vt 0.718605350 0.079953318
vt 0.718605350 0.069948453
vt 0.718605350 0.059436003
vt 0.718605350 0.051987535
vt 0.746093750 0.054143675
vt 0.718605350 0.049132346
vt 0.718605350 0.042191483
vt 0.746093750 0.046356812
vt 0.718605350 0.039739679
vt 0.718605350 0.033779422
vt 0.746093750 0.039670087
vt 0.718605350 0.036231236
vt 0.718605350 0.045046678
vt 0.718605350 0.055051533
vt 0.718605350 0.065563993
vt 0.718605350 0.075867641
vt 0.718605350 0.085260311
vt 0.718605350 0.036231226
vt 0.718605350 0.045046672
vt 0.718605350 0.055051525
vt 0.718686223 0.054143675
vt 0.719786346 0.062499993
vt 0.718686223 0.070856325
vt 0.715460777 0.078643173
vt 0.710329890 0.085329898
vt 0.703643203 0.090460785
vt 0.695856333 0.093686201
vt 0.687500000 0.094786353
vt 0.679143667 0.093686201
vt 0.671356797 0.090460785
vt 0.664670110 0.085329898
vt 0.659539223 0.078643173
vt 0.656313777 0.070856325
vt 0.655213654 0.062499993
vt 0.656313777 0.054143675
vt 0.659539223 0.046356812
vt 0.664670110 0.039670087
vt 0.671356797 0.034539189
vt 0.679143667 0.031313770
vt 0.687500000 0.030213647
vt 0.695856333 0.031313770
vt 0.703643203 0.034539189
vt 0.710329890 0.039670087
vt 0.715460777 0.046356812
vt 0.628906250 0.062500000
vt 0.628906250 0.075687103
vt 0.651227653 0.077665173
vt 0.651227653 0.062500000
vt 0.628906250 0.087975547
vt 0.651227653 0.091796875
vt 0.628906250 0.098527849
vt 0.651227653 0.103932045
vt 0.628906250 0.098527864
vt 0.651227653 0.103932038
vt 0.628906250 0.075687110
vt 0.651227653 0.077665180
vt 0.628906250 0.049312890
vt 0.651227653 0.047334820
vt 0.628906250 0.037024457
vt 0.651227653 0.033203125
vt 0.628906250 0.026472140
vt 0.651227653 0.021067960
vt 0.628906250 0.049312882
vt 0.651227653 0.047334831
vt 0.628906250 0.037024453
vt 0.628906250 0.026472138
vt 0.651227653 0.021067968
vt 0.723772347 0.077665173
vt 0.723772347 0.062500000
vt 0.723772347 0.091796875
vt 0.723772347 0.103932045
vt 0.723772347 0.103932038
vt 0.723772347 0.077665180
vt 0.723772347 0.047334820
vt 0.723772347 0.033203125
vt 0.723772347 0.021067960
vt 0.723772347 0.047334831
vt 0.723772347 0.021067968
vt 0.744097233 0.077665173
vt 0.724411249 0.072390340
vt 0.725713313 0.062500000
vt 0.738243699 0.091796875
vt 0.720593691 0.081606671
vt 0.728932023 0.103932045
vt 0.714520872 0.089520887
vt 0.716796875 0.113243677
vt 0.706606686 0.095593698
vt 0.702665150 0.119097218
vt 0.697390318 0.099411227
vt 0.687500000 0.121093750
vt 0.687500000 0.100713305
vt 0.672334850 0.119097218
vt 0.677609682 0.099411227
vt 0.658203125 0.113243677
vt 0.668393314 0.095593698
vt 0.646067977 0.103932045
vt 0.660479128 0.089520887
vt 0.636756301 0.091796875
vt 0.654406309 0.081606671
vt 0.630902767 0.077665173
vt 0.650588751 0.072390340
vt 0.649286687 0.062500000
vt 0.630902767 0.047334831
vt 0.650588751 0.052609660
vt 0.636756301 0.033203125
vt 0.654406309 0.043393347
vt 0.646067977 0.021067968
vt 0.660479128 0.035479113
vt 0.658203125 0.011756327
vt 0.668393314 0.029406305
vt 0.672334850 0.005902783
vt 0.677609682 0.025588773
vt 0.687500000 0.003906250
vt 0.687500000 0.024286695
vt 0.702665150 0.005902783
vt 0.697390318 0.025588773
vt 0.716796875 0.011756327
vt 0.706606686 0.029406305
vt 0.728932023 0.021067968
vt 0.714520872 0.035479113
vt 0.738243699 0.033203125
vt 0.720593691 0.043393347
vt 0.744097233 0.047334831
vt 0.724411249 0.052609660
vt 0.738451064 0.062500000
vt 0.736714959 0.049312882
vt 0.731624961 0.037024453
vt 0.723527849 0.026472138
vt 0.712975562 0.018375069
vt 0.700687110 0.013285037
vt 0.687500000 0.011548921
vt 0.674312890 0.013285037
vt 0.662024438 0.018375069
vt 0.651472151 0.026472138
vt 0.643375039 0.037024453
vt 0.638285041 0.049312882
vt 0.636548936 0.062500000
vt 0.638285041 0.075687103
vt 0.643375039 0.087975547
vt 0.651472151 0.098527849
vt 0.662024438 0.106624946
vt 0.674312890 0.111714981
vt 0.687500000 0.113451093
vt 0.700687110 0.111714981
vt 0.712975562 0.106624946
vt 0.723527849 0.098527849
vt 0.731624961 0.087975547
vt 0.736714959 0.075687103
vt 0.007254465 0.244167387
vt 0.007421876 0.244167373
vt 0.007700893 0.246093750
vt 0.116406247 0.244167373
vt 0.121093750 0.244167387
vt 0.116406254 0.246093750
vt 0.118582591 0.244167387
vt 0.116741076 0.244419634
vt 0.117745534 0.244167387
vt 0.117745534 0.246093750
vt 0.121093743 0.244167387
vt 0.007254471 0.246093750
vt 0.008593751 0.244167373
vt 0.008593751 0.242745534
vt 0.007864037 0.192364274
vt 0.007955251 0.192364266
vt 0.006492501 0.192907048
vt 0.118539747 0.193014904
vt 0.121093750 0.193014912
vt 0.116406247 0.192364273
vt 0.117592036 0.192583475
vt 0.116406247 0.192583467
vt 0.118201611 0.192583475
vt 0.119569817 0.192583475
vt 0.117745534 0.192583475
vt 0.121093746 0.192583468
vt 0.067335773 0.192364266
vt 0.057544082 0.192583475
vt 0.067911991 0.192583475
vt 0.007254465 0.192583475
vt 0.057664225 0.192583467
vt 0.008593752 0.192583467
vt 0.008593751 0.132254466
vt 0.116406254 0.132254466
vt 0.437500000 0.128906250
vt 0.466796875 0.128906250
vt 0.466796875 0.246093750
vt 0.437500000 0.246093750
vt 0.488243669 0.128906250
vt 0.488243669 0.246093750
vt 0.408203125 0.128906250
vt 0.408203125 0.246093750
vt 0.386756331 0.128906250
vt 0.386756331 0.246093750
vt 0.496093750 0.187500000
vt 0.488243669 0.158203125
vt 0.466796875 0.136756331
vt 0.408203125 0.136756331
vt 0.386756331 0.158203125
vt 0.378906250 0.187500000
vt 0.386756331 0.216796875
vt 0.408203125 0.238243669
vt 0.466796875 0.238243669
vt 0.488243669 0.216796875
vt 0.753906250 0.062500000
vt 0.753906250 0.077665135
vt 0.871093750 0.077665135
vt 0.871093750 0.062500000
vt 0.753906250 0.091796875
vt 0.871093750 0.091796875
vt 0.753906250 0.103932030
vt 0.871093750 0.103932030
vt 0.753906250 0.103932038
vt 0.871093750 0.103932038
vt 0.753906250 0.077665180
vt 0.871093750 0.077665180
vt 0.753906250 0.047334824
vt 0.871093750 0.047334824
vt 0.753906250 0.033203125
vt 0.871093750 0.033203125
vt 0.753906250 0.021067962
vt 0.871093750 0.021067962
vt 0.753906250 0.047334827
vt 0.871093750 0.047334827
vt 0.753906250 0.021067971
vt 0.871093750 0.021067971
vt 0.869097233 0.047334827
vt 0.863243699 0.033203125
vt 0.853932023 0.021067971
vt 0.841796875 0.011756341
vt 0.827665150 0.005902797
vt 0.812500000 0.003906250
vt 0.797334850 0.005902797
vt 0.783203125 0.011756341
vt 0.771067977 0.021067971
vt 0.761756301 0.033203125
vt 0.755902767 0.047334827
vt 0.755902767 0.077665135
vt 0.761756301 0.091796875
vt 0.771067977 0.103932030
vt 0.783203125 0.113243662
vt 0.797334850 0.119097166
vt 0.812500000 0.121093750
vt 0.827665150 0.119097166
vt 0.841796875 0.113243662
vt 0.853932023 0.103932030
vt 0.863243699 0.091796875
vt 0.869097233 0.077665135
vt 0.778946312 0.065740429
vt 0.753906250 0.077665210
vt 0.778946312 0.077665210
vt 0.778946312 0.062500000
vt 0.778946312 0.080684796
vt 0.778946312 0.091796875
vt 0.778946312 0.094389863
vt 0.753906250 0.103932060
vt 0.778946312 0.103932060
vt 0.778946312 0.101339055
vt 0.778946312 0.103932038
vt 0.778946312 0.088777282
vt 0.778946312 0.077665180
vt 0.778946312 0.074424757
vt 0.778946312 0.059259577
vt 0.753906250 0.047334820
vt 0.778946312 0.047334820
vt 0.778946312 0.044315227
vt 0.778946312 0.033203125
vt 0.778946312 0.030610142
vt 0.753906250 0.021067964
vt 0.778946312 0.021067964
vt 0.778946312 0.101339072
vt 0.778946312 0.088777289
vt 0.778946312 0.074424781
vt 0.778946312 0.059259580
vt 0.753906250 0.047334835
vt 0.778946312 0.047334835
vt 0.778946312 0.044315239
vt 0.778946312 0.030610136
vt 0.753906250 0.021067938
vt 0.778946312 0.021067938
vt 0.778946312 0.023660947
vt 0.778946312 0.036222718
vt 0.778946312 0.050575243
vt 0.778946312 0.065740423
vt 0.778946312 0.080684773
vt 0.778946312 0.094389858
vt 0.778946312 0.023660926
vt 0.778946312 0.036222721
vt 0.778946312 0.050575255
vt 0.869097233 0.047334835
vt 0.853932023 0.021067938
vt 0.841796875 0.011756320
vt 0.827665150 0.005902773
vt 0.797334850 0.005902773
vt 0.783203125 0.011756320
vt 0.771067977 0.021067938
vt 0.755902767 0.047334835
vt 0.755902767 0.077665210
vt 0.771067977 0.103932060
vt 0.783203125 0.113243721
vt 0.797334850 0.119097270
vt 0.827665150 0.119097270
vt 0.841796875 0.113243721
vt 0.853932023 0.103932060
vt 0.869097233 0.077665210
vt 0.821377707 0.075410100
vt 0.753906250 0.062499989
vt 0.753906250 0.084922858
vt 0.821377707 0.084922858
vt 0.821377707 0.062499989
vt 0.821377707 0.095867516
vt 0.821377707 0.103932038
vt 0.821377707 0.092987380
vt 0.821377707 0.072012753
vt 0.821377707 0.062500000
vt 0.821377707 0.049589895
vt 0.753906250 0.040077142
vt 0.821377707 0.040077142
vt 0.821377707 0.029132486
vt 0.821377707 0.021067964
vt 0.821377707 0.072012747
vt 0.821377707 0.049589891
vt 0.821377707 0.029132483
vt 0.753906250 0.021067960
vt 0.821377707 0.021067960
vt 0.821377707 0.032012621
vt 0.821377707 0.052987247
vt 0.821377707 0.075410105
vt 0.821377707 0.032012619
vt 0.821377707 0.052987241
vt 0.871093750 0.062499989
vt 0.866633534 0.040077142
vt 0.853932023 0.021067960
vt 0.834922850 0.008366430
vt 0.790077150 0.008366430
vt 0.771067977 0.021067960
vt 0.758366466 0.040077142
vt 0.758366466 0.084922858
vt 0.771067977 0.103932038
vt 0.790077150 0.116633527
vt 0.834922850 0.116633527
vt 0.853932023 0.103932038
vt 0.866633534 0.084922858
vt 0.937500000 0.003906250
vt 0.996093750 0.003906250
vt 0.996093750 0.121093750
vt 0.937500000 0.121093750
vt 0.966796875 0.003906250
vt 0.908203125 0.003906250
vt 0.908203125 0.121093750
vt 0.966796875 0.121093750
vt 0.878906250 0.003906250
vt 0.878906250 0.121093750
vt 0.996093750 0.062500000
vt 0.878906250 0.062500000
vn 0.463780367 0.115639010 -0.878370873
vn 0.463779772 0.115640897 -0.878370939
vn 0.463780284 0.339038767 -0.818511187
vn 0.463780290 0.339038747 -0.818511191
vn 0.463779939 0.539333034 -0.702871287
vn 0.463780306 0.539332007 -0.702871833
vn 0.463780619 0.702870291 -0.539333748
vn 0.463779755 0.702872296 -0.539331878
vn 0.463780575 0.818511569 -0.339037446
vn 0.463780750 0.818511274 -0.339037919
vn 0.463779325 0.878371414 -0.115639081
vn 0.463780667 0.878370170 -0.115643151
vn 0.463780440 0.878370835 0.115639005
vn 0.463779098 0.878370984 0.115643259
vn 0.463780721 0.818511498 0.339037417
vn 0.463780545 0.818511373 0.339037960
vn 0.463779901 0.702870589 0.539333977
vn 0.463780765 0.702871876 0.539331556
vn 0.463780244 0.539332937 0.702871161
vn 0.463779877 0.539332144 0.702872011
vn 0.463780289 0.339038766 0.818511184
vn 0.463780283 0.339038748 0.818511195
vn 0.463779873 0.115639043 0.878371130
vn 0.463780468 0.115640850 0.878370577
vn 0.463780450 -0.115639195 0.878370805
vn 0.463779742 -0.115641438 0.878370883
vn 0.463780284 -0.339038767 0.818511187
vn 0.463780545 -0.339037960 0.818511373
vn 0.463780227 -0.539332228 0.702871716
vn 0.463780306 -0.539332007 0.702871833
vn 0.463779869 -0.702872031 0.539332126
vn 0.463780282 -0.702871072 0.539333020
vn 0.463780937 -0.818510348 0.339039898
vn 0.463779625 -0.818512554 0.339036368
vn 0.463780969 -0.878370561 0.115638968
vn 0.463780991 -0.878370540 0.115639038
vn 0.463780987 -0.878370551 -0.115638967
vn 0.463780965 -0.878370554 -0.115639040
vn 0.463779847 -0.818510875 -0.339040116
vn 0.463781160 -0.818511812 -0.339036060
vn 0.463780212 -0.702871888 -0.539332016
vn 0.463779799 -0.702871272 -0.539333174
vn 0.463780293 -0.539332207 -0.702871689
vn 0.463780214 -0.539332037 -0.702871871
vn 0.463780501 -0.339038723 -0.818511082
vn 0.463780240 -0.339038021 -0.818511521
vn 0.463779862 -0.115639235 -0.878371110
vn 0.463780570 -0.115641382 -0.878370454
vn 1.000000000 -0.000000000 0.000000000
vn -0.348486161 0.122343448 -0.929295150
vn -0.348486525 0.122344016 -0.929294939
vn -0.348486367 0.358694281 -0.865965164
vn -0.348486211 0.358694069 -0.865965314
vn -0.348485974 0.570600074 -0.743621598
vn -0.348486397 0.570600523 -0.743621055
vn -0.348485069 0.743621016 -0.570601386
vn -0.348486253 0.743621836 -0.570599593
vn -0.348485897 0.865965412 -0.358694139
vn -0.348484915 0.865965139 -0.358695751
vn -0.348485748 0.929295327 -0.122343284
vn -0.348486027 0.929295283 -0.122342821
vn -0.348486046 0.929295217 0.122343269
vn -0.348485767 0.929295379 0.122342833
vn -0.348484846 0.865965773 0.358694288
vn -0.348485829 0.865964825 0.358695621
vn -0.348486336 0.743620642 0.570601099
vn -0.348485151 0.743622161 0.570599843
vn -0.348486427 0.570599972 0.743621465
vn -0.348486003 0.570600613 0.743621171
vn -0.348486200 0.358694305 0.865965221
vn -0.348486356 0.358694049 0.865965264
vn -0.348486551 0.122343429 0.929295007
vn -0.348486187 0.122344033 0.929295064
vn -0.348486046 -0.122343269 0.929295217
vn -0.348486525 -0.122344016 0.929294939
vn -0.348486101 -0.358695328 0.865964837
vn -0.348485857 -0.358694997 0.865965072
vn -0.348485476 -0.570600187 0.743621745
vn -0.348485899 -0.570600636 0.743621202
vn -0.348486415 -0.743621308 0.570600183
vn -0.348485689 -0.743620804 0.570601283
vn -0.348485897 -0.865965412 0.358694139
vn -0.348486328 -0.865965531 0.358693432
vn -0.348486498 -0.929294866 0.122344650
vn -0.348486133 -0.929294923 0.122345255
vn -0.348486107 -0.929295010 -0.122344669
vn -0.348486472 -0.929294798 -0.122345238
vn -0.348486358 -0.865965254 -0.358694073
vn -0.348485927 -0.865965669 -0.358693489
vn -0.348485638 -0.743621537 -0.570600359
vn -0.348486365 -0.743620605 -0.570601130
vn -0.348485929 -0.570600085 -0.743621611
vn -0.348485505 -0.570600725 -0.743621318
vn -0.348485840 -0.358695365 -0.865964927
vn -0.348486084 -0.358694965 -0.865964994
vn -0.348486559 -0.122343244 -0.929295028
vn -0.348486080 -0.122344038 -0.929295103
vn 0.000000000 0.130526209 -0.991444859
vn 0.000000000 0.382682970 -0.923879724
vn 0.000000000 0.608761442 -0.793353331
vn 0.000000000 0.793354119 -0.608760415
vn 0.000000000 0.923879062 -0.382684567
vn 0.000000000 0.991445030 -0.130524908
vn 0.000000000 0.991445030 0.130524908
vn 0.000000000 0.923879062 0.382684567
vn 0.000000000 0.793354119 0.608760415
vn 0.000000000 0.608761442 0.793353331
vn 0.000000000 0.382682970 0.923879724
vn 0.000000000 0.130526209 0.991444859
vn 0.000000000 -0.130526209 0.991444859
vn 0.000000000 -0.382683905 0.923879337
vn 0.000000000 -0.608761442 0.793353331
vn 0.000000000 -0.793352840 0.608762081
vn 0.000000000 -0.923879998 0.382682308
vn 0.000000000 -0.991444688 0.130527510
vn 0.000000000 -0.991444688 -0.130527510
vn 0.000000000 -0.923879998 -0.382682308
vn 0.000000000 -0.793352840 -0.608762081
vn 0.000000000 -0.608761442 -0.793353331
vn 0.000000000 -0.382683905 -0.923879337
vn 0.000000000 -0.130526209 -0.991444859
vn 0.704062929 0.092691567 -0.704062260
vn 0.704062948 0.092691503 -0.704062249
vn 0.704063072 0.271757506 -0.656081587
vn 0.704062710 0.271758712 -0.656081476
vn 0.704063369 0.432304116 -0.563389674
vn 0.704063057 0.432305093 -0.563389313
vn 0.704063183 0.563390379 -0.432303498
vn 0.704063508 0.563389493 -0.432304125
vn 0.704063170 0.656081027 -0.271758604
vn 0.704063148 0.656081075 -0.271758546
vn 0.704063005 0.704062306 -0.092690634
vn 0.704063336 0.704061843 -0.092691639
vn 0.704063267 0.704062049 0.092690600
vn 0.704062936 0.704062236 0.092691691
vn 0.704063153 0.656081043 0.271758610
vn 0.704063175 0.656081050 0.271758536
vn 0.704063439 0.563390178 0.432303344
vn 0.704063115 0.563389801 0.432304362
vn 0.704063123 0.432304264 0.563389867
vn 0.704063434 0.432304866 0.563389016
vn 0.704062786 0.271757615 0.656081849
vn 0.704063148 0.271758546 0.656081075
vn 0.704062944 0.092691565 0.704062245
vn 0.704062925 0.092691506 0.704062272
vn 0.704063022 -0.092691555 0.704062169
vn 0.704062923 -0.092691879 0.704062224
vn 0.704062983 -0.271758205 0.656081393
vn 0.704063019 -0.271758086 0.656081404
vn 0.704063152 -0.432304246 0.563389844
vn 0.704062841 -0.432305224 0.563389483
vn 0.704063368 -0.563389326 0.432304570
vn 0.704063225 -0.563389715 0.432304296
vn 0.704062956 -0.656081888 0.271757080
vn 0.704063476 -0.656080774 0.271758422
vn 0.704063235 -0.704061837 0.092692452
vn 0.704062983 -0.704062190 0.092691685
vn 0.704063037 -0.704062032 -0.092692477
vn 0.704063289 -0.704061890 -0.092691646
vn 0.704063367 -0.656081511 -0.271756924
vn 0.704062846 -0.656081351 -0.271758661
vn 0.704063255 -0.563389414 -0.432304638
vn 0.704063397 -0.563389579 -0.432304192
vn 0.704062906 -0.432304395 -0.563390037
vn 0.704063218 -0.432304997 -0.563389187
vn 0.704063011 -0.271758194 -0.656081367
vn 0.704062975 -0.271758102 -0.656081444
vn 0.704062944 -0.092691565 -0.704062245
vn 0.704063042 -0.092691864 -0.704062107
vn -1.000000000 0.000000000 0.000000000
vn -0.577347720 0.577355367 0.577347720
vn 0.577347720 0.577355367 0.577347720
vn 0.577347720 0.577355367 -0.577347720
vn -0.577347720 0.577355367 -0.577347720
vn -0.707102098 0.707111464 0.000000000
vn -0.000000000 0.707111464 0.707102098
vn 0.707102098 0.707111464 0.000000000
vn 0.000000000 0.707111464 -0.707102098
vn -0.707106781 0.000000000 0.707106781
vn 0.707106781 -0.000000000 0.707106781
vn 0.707106781 0.000000000 -0.707106781
vn -0.707106781 0.000000000 -0.707106781
vn 0.000000000 0.000000000 1.000000000
vn 0.000000000 0.000000000 -1.000000000
vn -0.000000000 1.000000000 0.000000000
vn 0.965926426 0.000000000 -0.258816805
vn 0.707103369 0.000000000 -0.707110193
vn 0.258819989 0.000000000 -0.965925573
vn -0.258823401 0.000000000 -0.965924659
vn -0.707103369 0.000000000 -0.707110193
vn -0.965926426 0.000000000 -0.258816805
vn -0.965926426 0.000000000 0.258816805
vn -0.707103369 0.000000000 0.707110193
vn -0.258823401 0.000000000 0.965924659
vn 0.258819989 0.000000000 0.965925573
vn 0.707103369 0.000000000 0.707110193
vn 0.965926426 0.000000000 0.258816805
vn 0.000000000 -1.000000000 0.000000000
vn 0.000000000 0.130527957 -0.991444629
vn 0.000000000 0.382680662 -0.923880680
vn 0.000000000 0.608763159 -0.793352013
vn 0.000000000 0.793353201 -0.608761611
vn 0.000000000 0.923879078 -0.382684531
vn 0.000000000 0.991444629 -0.130527957
vn 0.000000000 0.991444629 0.130527957
vn 0.000000000 0.923879078 0.382684531
vn 0.000000000 0.793353201 0.608761611
vn 0.000000000 0.608763159 0.793352013
vn 0.000000000 0.382680662 0.923880680
vn 0.000000000 0.130527957 0.991444629
vn 0.000000000 -0.130527957 0.991444629
vn 0.000000000 -0.382681795 0.923880211
vn 0.000000000 -0.608763159 0.793352013
vn 0.000000000 -0.793353201 0.608761611
vn 0.000000000 -0.923880211 0.382681795
vn 0.000000000 -0.991444214 0.130531107
vn 0.000000000 -0.991444214 -0.130531107
vn 0.000000000 -0.923880211 -0.382681795
vn 0.000000000 -0.793353201 -0.608761611
vn 0.000000000 -0.608763159 -0.793352013
vn 0.000000000 -0.382681795 -0.923880211
vn 0.000000000 -0.130527957 -0.991444629
vn 0.000000000 0.130523954 -0.991445156
vn 0.000000000 0.382685920 -0.923878502
vn 0.000000000 0.608761324 -0.793353421
vn 0.000000000 0.793351683 -0.608763589
vn 0.000000000 0.923879774 -0.382682849
vn 0.000000000 0.991445560 -0.130520882
vn 0.000000000 0.991445560 0.130520882
vn 0.000000000 0.923879774 0.382682849
vn 0.000000000 0.793351683 0.608763589
vn 0.000000000 0.608761324 0.793353421
vn 0.000000000 0.382685920 0.923878502
vn 0.000000000 0.130523954 0.991445156
vn 0.000000000 -0.130524885 0.991445033
vn 0.000000000 -0.382684648 0.923879029
vn 0.000000000 -0.608763062 0.793352087
vn 0.000000000 -0.793351683 0.608763589
vn 0.000000000 -0.923879774 0.382682849
vn 0.000000000 -0.991445095 0.130524419
vn 0.000000000 -0.991445095 -0.130524419
vn 0.000000000 -0.923879774 -0.382682849
vn 0.000000000 -0.793351683 -0.608763589
vn 0.000000000 -0.608763062 -0.793352087
vn 0.000000000 -0.382684648 -0.923879029
vn 0.000000000 -0.130524885 -0.991445033
vn 0.000000000 0.195090002 -0.980785344
vn 0.000000000 0.555570504 -0.831469431
vn 0.000000000 0.831469954 -0.555569721
vn 0.000000000 0.980784868 -0.195092395
vn 0.000000000 0.980784868 0.195092395
vn 0.000000000 0.831469954 0.555569721
vn 0.000000000 0.555570504 0.831469431
vn 0.000000000 0.195090002 0.980785344
vn 0.000000000 -0.195090435 0.980785258
vn 0.000000000 -0.555569981 0.831469781
vn 0.000000000 -0.831469431 0.555570504
vn 0.000000000 -0.980785301 0.195090218
vn 0.000000000 -0.980785301 -0.195090218
vn 0.000000000 -0.831469431 -0.555570504
vn 0.000000000 -0.555569981 -0.831469781
vn 0.000000000 -0.195090435 -0.980785258
vn 0.000000000 0.500000380 0.866025184
vn 0.000000000 0.500000380 -0.866025184
vn 0.000000000 -0.500000380 -0.866025184
vn 0.000000000 -0.500000380 0.866025184
usemtl mat_0
f 1/1/1 2/2/1 3/3/1
f 4/4/2 1/1/2 3/3/2 5/5/2
f 6/6/3 7/7/3 8/8/3
f 2/2/4 6/6/4 8/8/4 3/3/4
f 9/9/5 10/10/5 11/11/5
f 7/7/6 9/9/6 11/11/6 8/8/6
f 12/12/7 13/13/7 14/8/7
f 10/14/8 12/12/8 14/8/8 11/11/8
f 15/15/9 16/16/9 17/3/9
f 13/13/10 15/15/10 17/3/10 14/8/10
f 18/17/11 19/18/11 20/19/11
f 16/16/12 18/17/12 20/19/12 17/3/12
f 21/20/13 22/21/13 23/22/13
f 19/18/14 21/20/14 23/22/14 20/19/14
f 24/23/15 25/24/15 26/25/15
f 22/21/16 24/23/16 26/25/16 23/22/16
f 27/26/17 28/27/17 29/28/17
f 25/24/18 27/26/18 29/28/18 26/25/18
f 30/29/19 31/7/19 32/8/19
f 28/10/20 30/29/20 32/8/20 29/11/20
f 33/30/21 34/2/21 35/3/21
f 31/7/22 33/30/22 35/3/22 32/8/22
f 36/31/23 37/4/23 38/5/23
f 34/2/24 36/31/24 38/5/24 35/3/24
f 39/32/25 40/33/25 41/34/25
f 37/4/26 39/32/26 41/34/26 38/5/26
f 42/35/27 43/36/27 44/37/27
f 40/33/28 42/35/28 44/37/28 41/34/28
f 45/38/29 46/39/29 47/40/29
f 43/36/30 45/38/30 47/40/30 44/37/30
f 48/41/31 49/24/31 50/25/31
f 46/27/32 48/41/32 50/25/32 47/28/32
f 51/42/33 52/21/33 53/22/33
f 49/24/34 51/42/34 53/22/34 50/25/34
f 54/43/35 55/18/35 56/19/35
f 52/21/36 54/43/36 56/19/36 53/22/36
f 57/44/37 58/16/37 59/3/37
f 55/18/38 57/44/38 59/3/38 56/19/38
f 60/45/39 61/13/39 62/8/39
f 58/16/40 60/45/40 62/8/40 59/3/40
f 63/46/41 64/14/41 65/11/41
f 61/13/42 63/46/42 65/11/42 62/8/42
f 66/47/43 67/36/43 68/37/43
f 64/39/44 66/47/44 68/37/44 65/40/44
f 69/48/45 70/33/45 71/34/45
f 67/36/46 69/48/46 71/34/46 68/37/46
f 72/49/47 4/4/47 5/5/47
f 70/33/48 72/49/48 5/5/48 71/34/48
f 71/50/49 5/51/49 3/52/49
f 3/52/49 8/53/49 11/54/49
f 11/54/49 14/55/49 17/56/49
f 17/56/49 20/57/49 23/58/49
f 23/58/49 26/59/49 29/60/49
f 29/60/49 32/61/49 35/62/49
f 35/62/49 38/63/49 41/64/49
f 41/64/49 44/65/49 47/66/49
f 47/66/49 50/67/49 53/68/49
f 53/68/49 56/69/49 59/70/49
f 59/70/49 62/71/49 65/72/49
f 65/72/49 68/73/49 71/50/49
f 71/50/49 3/52/49 11/54/49
f 11/54/49 17/56/49 23/58/49
f 23/58/49 29/60/49 35/62/49
f 35/62/49 41/64/49 47/66/49
f 47/66/49 53/68/49 59/70/49
f 59/70/49 65/72/49 71/50/49
f 71/50/49 11/54/49 23/58/49
f 23/58/49 35/62/49 47/66/49
f 47/66/49 59/70/49 71/50/49
f 23/58/49 47/66/49 71/50/49
f 73/74/50 74/75/50 75/76/50
f 73/74/51 75/76/51 76/77/51
f 74/75/52 77/78/52 78/79/52
f 74/75/53 78/79/53 75/76/53
f 77/78/54 79/80/54 80/81/54
f 77/78/55 80/81/55 78/79/55
f 79/82/56 81/78/56 82/79/56
f 79/82/57 82/79/57 80/83/57
f 81/78/58 83/84/58 84/85/58
f 81/78/59 84/85/59 82/79/59
f 83/84/60 85/74/60 86/77/60
f 83/84/61 86/77/61 84/85/61
f 85/74/62 87/86/62 88/87/62
f 85/74/63 88/87/63 86/77/63
f 87/86/64 89/88/64 90/89/64
f 87/86/65 90/89/65 88/87/65
f 89/88/66 91/90/66 92/91/66
f 89/88/67 92/91/67 90/89/67
f 91/80/68 93/78/68 94/79/68
f 91/80/69 94/79/69 92/81/69
f 93/78/70 95/75/70 96/76/70
f 93/78/71 96/76/71 94/79/71
f 95/75/72 97/74/72 98/77/72
f 95/75/73 98/77/73 96/76/73
f 97/74/74 99/92/74 100/93/74
f 97/74/75 100/93/75 98/77/75
f 99/92/76 101/94/76 102/89/76
f 99/92/77 102/89/77 100/93/77
f 101/94/78 103/95/78 104/96/78
f 101/94/79 104/96/79 102/89/79
f 103/90/80 105/88/80 106/89/80
f 103/90/81 106/89/81 104/91/81
f 105/88/82 107/86/82 108/87/82
f 105/88/83 108/87/83 106/89/83
f 107/86/84 109/74/84 110/77/84
f 107/86/85 110/77/85 108/87/85
f 109/74/86 111/84/86 112/85/86
f 109/74/87 112/85/87 110/77/87
f 111/84/88 113/78/88 114/79/88
f 111/84/89 114/79/89 112/85/89
f 113/78/90 115/82/90 116/83/90
f 113/78/91 116/83/91 114/79/91
f 115/95/92 117/94/92 118/89/92
f 115/95/93 118/89/93 116/96/93
f 117/94/94 119/92/94 120/93/94
f 117/94/95 120/93/95 118/89/95
f 119/92/96 73/74/96 76/77/96
f 119/92/97 76/77/97 120/93/97
f 76/77/98 75/76/98 121/97/98
f 76/77/98 121/97/98 122/98/98
f 75/76/99 78/79/99 123/99/99
f 75/76/99 123/99/99 121/97/99
f 78/79/100 80/81/100 124/100/100
f 78/79/100 124/100/100 123/99/100
f 80/83/101 82/79/101 125/99/101
f 80/83/101 125/99/101 124/101/101
f 82/79/102 84/85/102 126/102/102
f 82/79/102 126/102/102 125/99/102
f 84/85/103 86/77/103 127/98/103
f 84/85/103 127/98/103 126/102/103
f 86/77/104 88/87/104 128/103/104
f 86/77/104 128/103/104 127/98/104
f 88/87/105 90/89/105 129/104/105
f 88/87/105 129/104/105 128/103/105
f 90/89/106 92/91/106 130/105/106
f 90/89/106 130/105/106 129/104/106
f 92/81/107 94/79/107 131/99/107
f 92/81/107 131/99/107 130/100/107
f 94/79/108 96/76/108 132/97/108
f 94/79/108 132/97/108 131/99/108
f 96/76/109 98/77/109 133/98/109
f 96/76/109 133/98/109 132/97/109
f 98/77/110 100/93/110 134/106/110
f 98/77/110 134/106/110 133/98/110
f 100/93/111 102/89/111 135/104/111
f 100/93/111 135/104/111 134/106/111
f 102/89/112 104/96/112 136/107/112
f 102/89/112 136/107/112 135/104/112
f 104/91/113 106/89/113 137/104/113
f 104/91/113 137/104/113 136/105/113
f 106/89/114 108/87/114 138/103/114
f 106/89/114 138/103/114 137/104/114
f 108/87/115 110/77/115 139/98/115
f 108/87/115 139/98/115 138/103/115
f 110/77/116 112/85/116 140/102/116
f 110/77/116 140/102/116 139/98/116
f 112/85/117 114/79/117 141/99/117
f 112/85/117 141/99/117 140/102/117
f 114/79/118 116/83/118 142/101/118
f 114/79/118 142/101/118 141/99/118
f 116/96/119 118/89/119 143/104/119
f 116/96/119 143/104/119 142/107/119
f 118/89/120 120/93/120 144/106/120
f 118/89/120 144/106/120 143/104/120
f 120/93/121 76/77/121 122/98/121
f 120/93/121 122/98/121 144/106/121
f 122/19/122 121/108/122 145/109/122
f 122/19/123 145/109/123 146/110/123
f 121/108/124 123/111/124 147/112/124
f 121/108/125 147/112/125 145/109/125
f 123/111/126 124/113/126 148/114/126
f 123/111/127 148/114/127 147/112/127
f 124/113/128 125/115/128 149/116/128
f 124/113/129 149/116/129 148/114/129
f 125/115/130 126/117/130 150/118/130
f 125/115/131 150/118/131 149/116/131
f 126/117/132 127/119/132 151/120/132
f 126/117/133 151/120/133 150/118/133
f 127/119/134 128/121/134 152/122/134
f 127/119/135 152/122/135 151/120/135
f 128/121/136 129/123/136 153/124/136
f 128/121/137 153/124/137 152/122/137
f 129/123/138 130/125/138 154/126/138
f 129/123/139 154/126/139 153/124/139
f 130/125/140 131/127/140 155/128/140
f 130/125/141 155/128/141 154/126/141
f 131/127/142 132/129/142 156/130/142
f 131/127/143 156/130/143 155/128/143
f 132/129/144 133/74/144 157/131/144
f 132/129/145 157/131/145 156/130/145
f 133/74/146 134/132/146 158/133/146
f 133/74/147 158/133/147 157/131/147
f 134/132/148 135/134/148 159/135/148
f 134/132/149 159/135/149 158/133/149
f 135/134/150 136/136/150 160/137/150
f 135/134/151 160/137/151 159/135/151
f 136/136/152 137/138/152 161/139/152
f 136/136/153 161/139/153 160/137/153
f 137/138/154 138/140/154 162/141/154
f 137/138/155 162/141/155 161/139/155
f 138/140/156 139/142/156 163/143/156
f 138/140/157 163/143/157 162/141/157
f 139/142/158 140/144/158 164/145/158
f 139/142/159 164/145/159 163/143/159
f 140/144/160 141/146/160 165/147/160
f 140/144/161 165/147/161 164/145/161
f 141/146/162 142/148/162 166/149/162
f 141/146/163 166/149/163 165/147/163
f 142/148/164 143/150/164 167/151/164
f 142/148/165 167/151/165 166/149/165
f 143/150/166 144/152/166 168/153/166
f 143/150/167 168/153/167 167/151/167
f 144/152/168 122/19/168 146/110/168
f 144/152/169 146/110/169 168/153/169
f 73/154/170 119/155/170 117/156/170
f 117/156/170 115/157/170 113/158/170
f 113/158/170 111/159/170 109/160/170
f 109/160/170 107/161/170 105/162/170
f 105/162/170 103/163/170 101/164/170
f 101/164/170 99/165/170 97/166/170
f 97/166/170 95/167/170 93/168/170
f 93/168/170 91/169/170 89/170/170
f 89/170/170 87/171/170 85/172/170
f 85/172/170 83/173/170 81/174/170
f 81/174/170 79/175/170 77/176/170
f 77/176/170 74/177/170 73/154/170
f 73/154/170 117/156/170 113/158/170
f 113/158/170 109/160/170 105/162/170
f 105/162/170 101/164/170 97/166/170
f 97/166/170 93/168/170 89/170/170
f 89/170/170 85/172/170 81/174/170
f 81/174/170 77/176/170 73/154/170
f 73/154/170 113/158/170 105/162/170
f 105/162/170 97/166/170 89/170/170
f 89/170/170 81/174/170 73/154/170
f 105/162/170 89/170/170 73/154/170
f 168/153/49 146/110/49 145/109/49
f 145/109/49 147/112/49 148/114/49
f 148/114/49 149/116/49 150/118/49
f 150/118/49 151/120/49 152/122/49
f 152/122/49 153/124/49 154/126/49
f 154/126/49 155/128/49 156/130/49
f 156/130/49 157/131/49 158/133/49
f 158/133/49 159/135/49 160/137/49
f 160/137/49 161/139/49 162/141/49
f 162/141/49 163/143/49 164/145/49
f 164/145/49 165/147/49 166/149/49
f 166/149/49 167/151/49 168/153/49
f 168/153/49 145/109/49 148/114/49
f 148/114/49 150/118/49 152/122/49
f 152/122/49 154/126/49 156/130/49
f 156/130/49 158/133/49 160/137/49
f 160/137/49 162/141/49 164/145/49
f 164/145/49 166/149/49 168/153/49
f 168/153/49 148/114/49 152/122/49
f 152/122/49 156/130/49 160/137/49
f 160/137/49 164/145/49 168/153/49
f 152/122/49 160/137/49 168/153/49
usemtl mat_2
f 169/178/171 170/179/171 171/180/171
f 172/181/172 173/182/172 174/183/172
f 175/184/173 176/181/173 177/185/173
f 178/186/174 179/187/174 180/188/174
f 171/180/175 179/187/175 178/186/175
f 171/180/175 178/186/175 169/178/175
f 170/179/176 172/181/176 174/183/176
f 170/179/176 174/183/176 171/180/176
f 173/178/177 175/184/177 177/185/177
f 173/178/177 177/185/177 174/189/177
f 176/181/178 180/190/178 179/191/178
f 176/181/178 179/191/178 177/185/178
f 181/192/179 182/193/179 170/179/179 169/178/179
f 181/192/179 169/178/179 183/194/179
f 184/195/180 185/196/180 173/182/180 172/181/180
f 184/195/180 172/181/180 186/197/180
f 187/198/181 188/199/181 176/181/181 175/184/181
f 187/198/181 175/184/181 189/200/181
f 190/201/182 191/202/182 178/186/182 180/188/182
f 190/201/182 180/188/182 192/203/182
f 193/204/183 186/197/183 172/181/183
f 182/193/183 193/204/183 172/181/183 170/179/183
f 194/205/170 183/194/170 169/178/170
f 191/202/170 194/205/170 169/178/170 178/186/170
f 195/206/49 189/200/49 175/184/49
f 185/207/49 195/206/49 175/184/49 173/178/49
f 196/208/184 192/209/184 180/190/184
f 188/199/184 196/208/184 180/190/184 176/181/184
f 171/210/185 174/211/185 177/185/185
f 171/210/185 177/185/185 179/191/185
usemtl mat_3
f 197/212/186 198/213/186 199/214/186
f 197/212/186 199/214/186 200/215/186
f 198/213/187 201/216/187 202/217/187
f 198/213/187 202/217/187 199/214/187
f 201/213/188 203/212/188 204/215/188
f 201/213/188 204/215/188 202/214/188
f 203/212/189 205/218/189 206/219/189
f 203/212/189 206/219/189 204/215/189
f 205/216/190 207/213/190 208/214/190
f 205/216/190 208/214/190 206/217/190
f 207/213/191 209/212/191 210/215/191
f 207/213/191 210/215/191 208/214/191
f 209/212/192 211/218/192 212/219/192
f 209/212/192 212/219/192 210/215/192
f 211/218/193 213/220/193 214/221/193
f 211/218/193 214/221/193 212/219/193
f 213/218/194 215/212/194 216/215/194
f 213/218/194 216/215/194 214/219/194
f 215/212/195 217/213/195 218/214/195
f 215/212/195 218/214/195 216/215/195
f 217/220/196 219/218/196 220/219/196
f 217/220/196 220/219/196 218/221/196
f 219/218/197 197/212/197 200/215/197
f 219/218/197 200/215/197 220/219/197
f 197/222/198 219/223/198 217/224/198
f 217/224/198 215/212/198 213/225/198
f 213/225/198 211/226/198 209/227/198
f 209/227/198 207/228/198 205/229/198
f 205/229/198 203/215/198 201/230/198
f 201/230/198 198/231/198 197/222/198
f 197/222/198 217/224/198 213/225/198
f 213/225/198 209/227/198 205/229/198
f 205/229/198 201/230/198 197/222/198
f 213/225/198 205/229/198 197/222/198
f 220/223/185 200/222/185 199/231/185
f 199/231/185 202/230/185 204/215/185
f 204/215/185 206/229/185 208/228/185
f 208/228/185 210/227/185 212/226/185
f 212/226/185 214/225/185 216/212/185
f 216/212/185 218/224/185 220/223/185
f 220/223/185 199/231/185 204/215/185
f 204/215/185 208/228/185 212/226/185
f 212/226/185 216/212/185 220/223/185
f 204/215/185 212/226/185 220/223/185
usemtl mat_5
f 221/232/199 222/233/199 223/234/199
f 221/232/199 223/234/199 224/235/199
f 222/233/200 225/236/200 226/237/200
f 222/233/200 226/237/200 223/234/200
f 225/236/201 227/238/201 228/239/201
f 225/236/201 228/239/201 226/237/201
f 227/240/202 229/236/202 230/237/202
f 227/240/202 230/237/202 228/241/202
f 229/236/203 231/242/203 232/243/203
f 229/236/203 232/243/203 230/237/203
f 231/242/204 233/232/204 234/235/204
f 231/242/204 234/235/204 232/243/204
f 233/232/205 235/244/205 236/245/205
f 233/232/205 236/245/205 234/235/205
f 235/244/206 237/246/206 238/247/206
f 235/244/206 238/247/206 236/245/206
f 237/246/207 239/248/207 240/249/207
f 237/246/207 240/249/207 238/247/207
f 239/238/208 241/236/208 242/237/208
f 239/238/208 242/237/208 240/239/208
f 241/236/209 243/233/209 244/234/209
f 241/236/209 244/234/209 242/237/209
f 243/233/210 245/232/210 246/235/210
f 243/233/210 246/235/210 244/234/210
f 245/232/211 247/250/211 248/251/211
f 245/232/211 248/251/211 246/235/211
f 247/250/212 249/246/212 250/247/212
f 247/250/212 250/247/212 248/251/212
f 249/246/213 251/252/213 252/253/213
f 249/246/213 252/253/213 250/247/213
f 251/248/214 253/246/214 254/247/214
f 251/248/214 254/247/214 252/249/214
f 253/246/215 255/244/215 256/245/215
f 253/246/215 256/245/215 254/247/215
f 255/244/216 257/232/216 258/235/216
f 255/244/216 258/235/216 256/245/216
f 257/232/217 259/242/217 260/243/217
f 257/232/217 260/243/217 258/235/217
f 259/242/218 261/236/218 262/237/218
f 259/242/218 262/237/218 260/243/218
f 261/236/219 263/240/219 264/241/219
f 261/236/219 264/241/219 262/237/219
f 263/252/220 265/246/220 266/247/220
f 263/252/220 266/247/220 264/253/220
f 265/246/221 267/250/221 268/251/221
f 265/246/221 268/251/221 266/247/221
f 267/250/222 221/232/222 224/235/222
f 267/250/222 224/235/222 268/251/222
f 221/235/170 267/254/170 265/255/170
f 265/255/170 263/256/170 261/257/170
f 261/257/170 259/258/170 257/259/170
f 257/259/170 255/260/170 253/261/170
f 253/261/170 251/262/170 249/263/170
f 249/263/170 247/264/170 245/232/170
f 245/232/170 243/265/170 241/266/170
f 241/266/170 239/267/170 237/268/170
f 237/268/170 235/269/170 233/270/170
f 233/270/170 231/271/170 229/272/170
f 229/272/170 227/273/170 225/274/170
f 225/274/170 222/275/170 221/235/170
f 221/235/170 265/255/170 261/257/170
f 261/257/170 257/259/170 253/261/170
f 253/261/170 249/263/170 245/232/170
f 245/232/170 241/266/170 237/268/170
f 237/268/170 233/270/170 229/272/170
f 229/272/170 225/274/170 221/235/170
f 221/235/170 261/257/170 253/261/170
f 253/261/170 245/232/170 237/268/170
f 237/268/170 229/272/170 221/235/170
f 253/261/170 237/268/170 221/235/170
f 268/254/49 224/235/49 223/275/49
f 223/275/49 226/274/49 228/273/49
f 228/273/49 230/272/49 232/271/49
f 232/271/49 234/270/49 236/269/49
f 236/269/49 238/268/49 240/267/49
f 240/267/49 242/266/49 244/265/49
f 244/265/49 246/232/49 248/264/49
f 248/264/49 250/263/49 252/262/49
f 252/262/49 254/261/49 256/260/49
f 256/260/49 258/259/49 260/258/49
f 260/258/49 262/257/49 264/256/49
f 264/256/49 266/255/49 268/254/49
f 268/254/49 223/275/49 228/273/49
f 228/273/49 232/271/49 236/269/49
f 236/269/49 240/267/49 244/265/49
f 244/265/49 248/264/49 252/262/49
f 252/262/49 256/260/49 260/258/49
f 260/258/49 264/256/49 268/254/49
f 268/254/49 228/273/49 236/269/49
f 236/269/49 244/265/49 252/262/49
f 252/262/49 260/258/49 268/254/49
f 236/269/49 252/262/49 268/254/49
f 269/276/223 270/232/223 271/277/223 272/278/223
f 273/279/223 270/232/223 269/276/223
f 274/280/224 271/277/224 275/236/224 276/281/224
f 272/278/224 271/277/224 274/280/224
f 277/282/225 275/236/225 278/283/225 279/284/225
f 276/281/225 275/236/225 277/282/225
f 280/285/226 278/240/226 281/236/226 282/281/226
f 279/286/226 278/240/226 280/285/226
f 283/287/227 281/236/227 284/242/227 285/288/227
f 282/281/227 281/236/227 283/287/227
f 286/289/228 284/242/228 287/232/228 288/279/228
f 285/288/228 284/242/228 286/289/228
f 289/290/229 287/232/229 290/291/229 291/292/229
f 288/279/229 287/232/229 289/290/229
f 292/293/230 290/291/230 293/246/230 294/294/230
f 291/292/230 290/291/230 292/293/230
f 295/295/231 293/246/231 296/296/231 297/297/231
f 294/294/231 293/246/231 295/295/231
f 298/298/232 296/283/232 299/236/232 300/281/232
f 297/284/232 296/283/232 298/298/232
f 301/299/233 299/236/233 302/277/233 303/278/233
f 300/281/233 299/236/233 301/299/233
f 304/300/234 302/277/234 305/232/234 306/279/234
f 303/278/234 302/277/234 304/300/234
f 307/301/235 305/232/235 308/302/235 309/303/235
f 306/279/235 305/232/235 307/301/235
f 310/304/236 308/302/236 311/246/236 312/294/236
f 309/303/236 308/302/236 310/304/236
f 313/305/237 311/246/237 314/306/237 315/307/237
f 312/294/237 311/246/237 313/305/237
f 316/308/238 314/296/238 317/246/238 318/294/238
f 315/297/238 314/296/238 316/308/238
f 319/309/239 317/246/239 320/291/239 321/292/239
f 318/294/239 317/246/239 319/309/239
f 322/310/240 320/291/240 323/232/240 324/279/240
f 321/292/240 320/291/240 322/310/240
f 325/311/241 323/232/241 326/242/241 327/288/241
f 324/279/241 323/232/241 325/311/241
f 328/312/242 326/242/242 329/236/242 330/281/242
f 327/288/242 326/242/242 328/312/242
f 331/313/243 329/236/243 332/240/243 333/286/243
f 330/281/243 329/236/243 331/313/243
f 334/314/244 332/306/244 335/246/244 336/294/244
f 333/307/244 332/306/244 334/314/244
f 337/315/245 335/246/245 338/302/245 339/303/245
f 336/294/245 335/246/245 337/315/245
f 340/316/246 338/302/246 270/232/246 273/279/246
f 339/303/246 338/302/246 340/316/246
f 270/235/170 338/317/170 335/255/170
f 335/255/170 332/318/170 329/319/170
f 329/319/170 326/320/170 323/259/170
f 323/259/170 320/321/170 317/322/170
f 317/322/170 314/323/170 311/263/170
f 311/263/170 308/324/170 305/232/170
f 305/232/170 302/325/170 299/266/170
f 299/266/170 296/326/170 293/327/170
f 293/327/170 290/328/170 287/270/170
f 287/270/170 284/329/170 281/330/170
f 281/330/170 278/331/170 275/274/170
f 275/274/170 271/332/170 270/235/170
f 270/235/170 335/255/170 329/319/170
f 329/319/170 323/259/170 317/322/170
f 317/322/170 311/263/170 305/232/170
f 305/232/170 299/266/170 293/327/170
f 293/327/170 287/270/170 281/330/170
f 281/330/170 275/274/170 270/235/170
f 270/235/170 329/319/170 317/322/170
f 317/322/170 305/232/170 293/327/170
f 293/327/170 281/330/170 270/235/170
f 317/322/170 293/327/170 270/235/170
f 341/333/247 342/334/247 343/335/247 344/336/247
f 345/337/247 342/334/247 341/333/247
f 346/338/248 343/335/248 347/240/248 348/339/248
f 344/336/248 343/335/248 346/338/248
f 349/340/249 347/240/249 350/335/249 351/336/249
f 348/339/249 347/240/249 349/340/249
f 352/341/250 350/335/250 353/232/250 354/342/250
f 351/336/250 350/335/250 352/341/250
f 355/343/251 353/232/251 356/344/251 357/345/251
f 354/342/251 353/232/251 355/343/251
f 358/346/252 356/344/252 359/296/252 360/347/252
f 357/345/252 356/344/252 358/346/252
f 361/340/253 359/240/253 362/335/253 363/336/253
f 360/339/253 359/240/253 361/340/253
f 364/348/254 362/335/254 365/334/254 366/337/254
f 363/336/254 362/335/254 364/348/254
f 367/349/255 365/334/255 368/344/255 369/345/255
f 366/337/255 365/334/255 367/349/255
f 370/350/256 368/344/256 371/351/256 372/352/256
f 369/345/256 368/344/256 370/350/256
f 373/353/257 371/296/257 374/344/257 375/345/257
f 372/347/257 371/296/257 373/353/257
f 376/354/258 374/344/258 377/232/258 378/342/258
f 375/345/258 374/344/258 376/354/258
f 379/355/259 377/232/259 380/335/259 381/336/259
f 378/342/259 377/232/259 379/355/259
f 382/338/260 380/335/260 383/240/260 384/339/260
f 381/336/260 380/335/260 382/338/260
f 385/356/261 383/351/261 386/344/261 387/345/261
f 384/352/261 383/351/261 385/356/261
f 388/357/262 386/344/262 342/334/262 345/337/262
f 387/345/262 386/344/262 388/357/262
f 342/358/170 386/359/170 383/360/170
f 383/360/170 380/361/170 377/259/170
f 377/259/170 374/362/170 371/363/170
f 371/363/170 368/364/170 365/334/170
f 365/334/170 362/365/170 359/366/170
f 359/366/170 356/367/170 353/270/170
f 353/270/170 350/368/170 347/369/170
f 347/369/170 343/370/170 342/358/170
f 342/358/170 383/360/170 377/259/170
f 377/259/170 371/363/170 365/334/170
f 365/334/170 359/366/170 353/270/170
f 353/270/170 347/369/170 342/358/170
f 342/358/170 377/259/170 365/334/170
f 365/334/170 353/270/170 342/358/170
usemtl mat_1
f 389/371/263 390/372/263 391/373/263
f 389/371/263 391/373/263 392/374/263
f 390/375/185 393/376/185 394/377/185
f 390/375/185 394/377/185 391/378/185
f 393/372/264 395/371/264 396/374/264
f 393/372/264 396/374/264 394/373/264
f 395/371/265 397/379/265 398/380/265
f 395/371/265 398/380/265 396/374/265
f 397/376/198 399/375/198 400/378/198
f 397/376/198 400/378/198 398/377/198
f 399/379/266 389/371/266 392/374/266
f 399/379/266 392/374/266 400/380/266
f 389/381/49 399/375/49 397/376/49
f 397/376/49 395/382/49 393/377/49
f 393/377/49 390/378/49 389/381/49
f 397/376/49 393/377/49 389/381/49
f 400/375/170 392/381/170 391/378/170
f 391/378/170 394/377/170 396/382/170
f 396/382/170 398/376/170 400/375/170
f 391/378/170 396/382/170 400/375/170
f 401/371/263 402/372/263 403/373/263
f 401/371/263 403/373/263 404/374/263
f 402/375/185 405/376/185 406/377/185
f 402/375/185 406/377/185 403/378/185
f 405/372/264 407/371/264 408/374/264
f 405/372/264 408/374/264 406/373/264
f 407/371/265 409/379/265 410/380/265
f 407/371/265 410/380/265 408/374/265
f 409/376/198 411/375/198 412/378/198
f 409/376/198 412/378/198 410/377/198
f 411/379/266 401/371/266 404/374/266
f 411/379/266 404/374/266 412/380/266
f 401/381/49 411/375/49 409/376/49
f 409/376/49 407/382/49 405/377/49
f 405/377/49 402/378/49 401/381/49
f 409/376/49 405/377/49 401/381/49
f 412/375/170 404/381/170 403/378/170
f 403/378/170 406/377/170 408/382/170
f 408/382/170 410/376/170 412/375/170
f 403/378/170 408/382/170 412/375/170
f 413/371/263 414/372/263 415/373/263
f 413/371/263 415/373/263 416/374/263
f 414/375/185 417/376/185 418/377/185
f 414/375/185 418/377/185 415/378/185
f 417/372/264 419/371/264 420/374/264
f 417/372/264 420/374/264 418/373/264
f 419/371/265 421/379/265 422/380/265
f 419/371/265 422/380/265 420/374/265
f 421/376/198 423/375/198 424/378/198
f 421/376/198 424/378/198 422/377/198
f 423/379/266 413/371/266 416/374/266
f 423/379/266 416/374/266 424/380/266
f 413/381/49 423/375/49 421/376/49
f 421/376/49 419/382/49 417/377/49
f 417/377/49 414/378/49 413/381/49
f 421/376/49 417/377/49 413/381/49
f 424/375/170 416/381/170 415/378/170
f 415/378/170 418/377/170 420/382/170
f 420/382/170 422/376/170 424/375/170
f 415/378/170 420/382/170 424/375/170
f 425/371/263 426/372/263 427/373/263
f 425/371/263 427/373/263 428/374/263
f 426/375/185 429/376/185 430/377/185
f 426/375/185 430/377/185 427/378/185
f 429/372/264 431/371/264 432/374/264
f 429/372/264 432/374/264 430/373/264
f 431/371/265 433/379/265 434/380/265
f 431/371/265 434/380/265 432/374/265
f 433/376/198 435/375/198 436/378/198
f 433/376/198 436/378/198 434/377/198
f 435/379/266 425/371/266 428/374/266
f 435/379/266 428/374/266 436/380/266
f 425/381/49 435/375/49 433/376/49
f 433/376/49 431/382/49 429/377/49
f 429/377/49 426/378/49 425/381/49
f 433/376/49 429/377/49 425/381/49
f 436/375/170 428/381/170 427/378/170
f 427/378/170 430/377/170 432/382/170
f 432/382/170 434/376/170 436/375/170
f 427/378/170 432/382/170 436/375/170
f 437/371/263 438/372/263 439/373/263
f 437/371/263 439/373/263 440/374/263
f 438/375/185 441/376/185 442/377/185
f 438/375/185 442/377/185 439/378/185
f 441/372/264 443/371/264 444/374/264
f 441/372/264 444/374/264 442/373/264
f 443/371/265 445/379/265 446/380/265
f 443/371/265 446/380/265 444/374/265
f 445/376/198 447/375/198 448/378/198
f 445/376/198 448/378/198 446/377/198
f 447/379/266 437/371/266 440/374/266
f 447/379/266 440/374/266 448/380/266
f 437/381/49 447/375/49 445/376/49
f 445/376/49 443/382/49 441/377/49
f 441/377/49 438/378/49 437/381/49
f 445/376/49 441/377/49 437/381/49
f 448/375/170 440/381/170 439/378/170
f 439/378/170 442/377/170 444/382/170
f 444/382/170 446/376/170 448/375/170
f 439/378/170 444/382/170 448/375/170
f 449/371/263 450/372/263 451/373/263
f 449/371/263 451/373/263 452/374/263
f 450/375/185 453/376/185 454/377/185
f 450/375/185 454/377/185 451/378/185
f 453/372/264 455/371/264 456/374/264
f 453/372/264 456/374/264 454/373/264
f 455/371/265 457/379/265 458/380/265
f 455/371/265 458/380/265 456/374/265
f 457/376/198 459/375/198 460/378/198
f 457/376/198 460/378/198 458/377/198
f 459/379/266 449/371/266 452/374/266
f 459/379/266 452/374/266 460/380/266
f 449/381/49 459/375/49 457/376/49
f 457/376/49 455/382/49 453/377/49
f 453/377/49 450/378/49 449/381/49
f 457/376/49 453/377/49 449/381/49
f 460/375/170 452/381/170 451/378/170
f 451/378/170 454/377/170 456/382/170
f 456/382/170 458/376/170 460/375/170
f 451/378/170 456/382/170 460/375/170
