# Authored in Blender; exported by tools-export-modern.py
mtllib materials.mtl
s off
v 1.000000000 0.016599160 0.000000000
v 0.000000000 0.016599160 0.000000000
v 0.000000000 0.009117126 0.009116888
v 1.000000000 0.009117126 0.009116888
v 1.000000000 0.000000000 0.016599101
v 0.000000000 0.000000000 0.016599101
vt 0.713541678 0.021809898
vt 0.670138883 0.021809898
vt 0.670138883 0.021067964
vt 0.713541678 0.021067964
vt 0.713541678 0.103190085
vt 0.713541678 0.103932038
vt 0.670138883 0.103932038
vt 0.670138883 0.103190085
vn 0.000000000 0.773010562 0.634393151
vn -0.000000000 0.634392323 0.773011242
usemtl mat_0
f 1/1/1 2/2/1 3/3/1 4/4/1
f 5/5/2 4/6/2 3/7/2 6/8/2
