# Authored in Blender; exported by tools-export-modern.py
mtllib materials.mtl
s off
v 0.031373842 0.838885036 0.000000000
v 0.027443268 0.834089281 0.000000000
v 0.045000076 0.841675758 0.011353970
v 0.045000076 0.855510588 0.000000000
v 0.000000000 0.733626303 0.029612314
v 0.000000000 0.721956428 0.035849991
v 0.045000076 0.735350370 0.068185806
v 0.000000000 0.789027307 0.000000000
v 0.000000000 0.625814965 0.065014335
v 0.000000000 0.613152412 0.068855463
v 0.045000076 0.619980574 0.103183031
v 0.000000000 0.513168636 0.078702942
v 0.000000000 0.500000000 0.079999941
v 0.045000076 0.500000000 0.115000010
v 0.000000000 0.400016224 0.070152463
v 0.000000000 0.386847607 0.068855463
v 0.045000076 0.380019426 0.103183031
v 0.000000000 0.290706243 0.039691120
v 0.000000000 0.278043691 0.035849991
v 0.045000076 0.264649749 0.068185806
v 0.022653444 0.173775725 0.000000000
v 0.027443268 0.165910839 0.000000000
v 0.045000076 0.158324361 0.011353970
v 0.000000000 0.210972760 0.000000000
v 0.045000076 0.144489531 0.000000000
v 0.153357773 0.945813832 0.000000000
v 0.525000095 0.983346224 0.223378658
v 0.218377262 1.000000000 0.000000000
v 0.218377492 1.000000000 0.000000000
v 0.525000095 1.000000000 0.209711252
v 0.525000095 0.832934618 0.303775311
v 0.525000095 0.669728637 0.353283167
v 0.525000095 0.500000000 0.369999886
v 0.525000095 0.330271482 0.353283167
v 0.525000095 0.167065501 0.303775311
v 0.525000095 0.016654015 0.223378658
v 0.322856390 0.000000000 0.071457128
v 0.218377492 0.000000098 0.000000000
v 0.218377752 0.000000000 0.000000098
v 0.525000095 0.000000000 0.209711050
v 1.000000000 1.000000000 0.229437762
v 1.000000000 0.991859004 0.236118907
v 1.000000000 0.912386825 0.278597689
v 1.000000000 0.838798350 0.317931535
v 1.000000000 0.752566008 0.344089700
v 1.000000000 0.672717919 0.368311286
v 1.000000000 0.583039281 0.377143963
v 1.000000000 0.500000000 0.385322573
v 1.000000000 0.410321423 0.376489896
v 1.000000000 0.327282201 0.368311286
v 1.000000000 0.241049858 0.342153121
v 1.000000000 0.161201769 0.317931535
v 1.000000000 0.081729590 0.275452754
v 1.000000000 0.008141174 0.236118907
v 0.626197247 0.000000000 0.213913732
v 1.000000000 0.000000000 0.229437615
v 1.000000000 0.468881573 0.443881544
v 0.000000000 0.442565837 0.417565748
v 0.000000000 0.440000057 0.414999962
v 1.000000000 0.440000057 0.414999962
v 1.000000000 0.492499948 0.467499971
v 0.000000000 0.492499948 0.467499971
v 1.000000000 0.536381569 0.438618390
v 0.000000000 0.510065833 0.464934185
v 0.000000000 0.507500052 0.467499971
v 1.000000000 0.507500052 0.467499971
v 1.000000000 0.559999943 0.414999962
v 0.000000000 0.559999943 0.414999962
v 1.000000000 0.500751884 0.467499971
v 0.000000000 0.493233034 0.467499971
v 0.354918137 0.440000057 0.000000000
v 0.000000000 0.440000057 0.325564010
v 0.000000000 0.440000057 0.000000000
v 1.000000000 0.440000057 0.000000000
v 1.000000000 0.559999943 0.000000000
v 0.354918137 0.559999943 0.000000000
v 0.000000000 0.559999943 0.325564010
v 0.000000000 0.559999943 0.000000000
v 0.079499722 0.564500093 0.340000153
v 0.099750042 0.564500093 0.375074148
v 0.099750042 0.615500093 0.375074148
v 0.079499722 0.615500093 0.340000153
v 0.140249729 0.564500093 0.375074148
v 0.140249729 0.615500093 0.375074148
v 0.160500050 0.564500093 0.340000153
v 0.160500050 0.615500093 0.340000153
v 0.140249729 0.564500093 0.304926157
v 0.140249729 0.615500093 0.304926157
v 0.099750042 0.564500093 0.304926157
v 0.099750042 0.615500093 0.304926157
v 0.424499989 0.564500093 0.340000153
v 0.444750309 0.564500093 0.375074148
v 0.444750309 0.615500093 0.375074148
v 0.424499989 0.615500093 0.340000153
v 0.485249996 0.564500093 0.375074148
v 0.485249996 0.615500093 0.375074148
v 0.505500317 0.564500093 0.340000153
v 0.505500317 0.615500093 0.340000153
v 0.485249996 0.564500093 0.304926157
v 0.485249996 0.615500093 0.304926157
v 0.444750309 0.564500093 0.304926157
v 0.444750309 0.615500093 0.304926157
v 0.769499779 0.564500093 0.340000153
v 0.789750099 0.564500093 0.375074148
v 0.789750099 0.615500093 0.375074148
v 0.769499779 0.615500093 0.340000153
v 0.830249786 0.564500093 0.375074148
v 0.830249786 0.615500093 0.375074148
v 0.850500107 0.564500093 0.340000153
v 0.850500107 0.615500093 0.340000153
v 0.830249786 0.564500093 0.304926157
v 0.830249786 0.615500093 0.304926157
v 0.789750099 0.564500093 0.304926157
v 0.789750099 0.615500093 0.304926157
v 0.000000000 0.039499998 0.446500063
v 0.018000126 0.039499998 0.464499950
v 0.018000126 0.057500124 0.446500063
v 0.342000484 0.039499998 0.464499950
v 0.360000134 0.039499998 0.446500063
v 0.342000484 0.057500124 0.446500063
v 0.360000134 0.039499998 0.032500029
v 0.342000484 0.039499998 0.014500141
v 0.342000484 0.057500124 0.032500029
v 0.000000000 0.039499998 0.032500029
v 0.018000126 0.057500124 0.032500029
v 0.018000126 0.039499998 0.014500141
v 0.001182053 0.000000000 0.447682100
v 0.018000126 0.000000000 0.464499950
v 0.000000000 0.000000000 0.446500063
v 0.343182506 0.000000000 0.463317913
v 0.360000134 0.000000000 0.446500063
v 0.342000484 0.000000000 0.464499950
v 0.358818112 0.000000000 0.031317991
v 0.342000484 0.000000000 0.014500141
v 0.360000134 0.000000000 0.032500029
v 0.016818073 0.000000000 0.015682179
v 0.000000000 0.000000000 0.032500029
v 0.018000126 0.000000000 0.014500141
v 0.320723653 0.000000000 0.464499950
v 0.000000000 0.000000000 0.419313028
v 0.360000134 0.000000000 0.059687063
v 0.039276957 0.000000000 0.014500141
vt 0.654947912 0.084562825
vt 0.654947909 0.084250601
vt 0.654208720 0.084744513
vt 0.654947910 0.085645218
vt 0.640625016 0.077710038
vt 0.640625016 0.076950282
vt 0.642968774 0.077822283
vt 0.642054355 0.084250601
vt 0.640625016 0.081316877
vt 0.642968774 0.084744513
vt 0.640625016 0.070691076
vt 0.640625016 0.069866691
vt 0.642968774 0.070311233
vt 0.640625016 0.063357332
vt 0.640625016 0.062500000
vt 0.642968774 0.062500000
vt 0.640625016 0.055990641
vt 0.640625016 0.055133309
vt 0.642968774 0.054688767
vt 0.640625016 0.048874103
vt 0.640625016 0.048049718
vt 0.642968774 0.047177717
vt 0.641804885 0.041261439
vt 0.642054355 0.040749402
vt 0.642968774 0.040255491
vt 0.640625016 0.043683120
vt 0.654947909 0.040749402
vt 0.654947910 0.039354786
vt 0.654208720 0.040255491
vt 0.648612398 0.091524333
vt 0.642968774 0.085645218
vt 0.667968750 0.093967840
vt 0.651998827 0.095052076
vt 0.651998839 0.095052082
vt 0.667968750 0.095052070
vt 0.667968750 0.084175423
vt 0.667968750 0.073550038
vt 0.667968750 0.062500000
vt 0.667968750 0.051449962
vt 0.667968750 0.040824573
vt 0.667968750 0.031032160
vt 0.657440442 0.029947915
vt 0.642968774 0.039354786
vt 0.651998839 0.029947921
vt 0.651998852 0.029947915
vt 0.667968750 0.029947914
vt 0.692708351 0.095052076
vt 0.692708351 0.094522063
vt 0.692708351 0.089348091
vt 0.692708351 0.084557177
vt 0.692708351 0.078943095
vt 0.692708351 0.073744654
vt 0.692708351 0.067906201
vt 0.692708351 0.062500000
vt 0.692708351 0.056661547
vt 0.692708351 0.051255346
vt 0.692708351 0.045641264
vt 0.692708351 0.040442821
vt 0.692708351 0.035268850
vt 0.692708351 0.030477938
vt 0.673239440 0.029947914
vt 0.692708351 0.029947914
vt 0.693080325 0.026490128
vt 0.637276721 0.008809604
vt 0.637276721 0.007085755
vt 0.693080325 0.007085755
vt 0.693080352 0.042358398
vt 0.637276778 0.042358398
vt 0.692750854 0.098028887
vt 0.636580151 0.072329876
vt 0.636580154 0.069824226
vt 0.692750887 0.069824226
vt 0.693155299 0.121093750
vt 0.637435231 0.121093750
vt 0.693080385 0.057468044
vt 0.637276780 0.043700711
vt 0.657082432 0.032218991
vt 0.637276721 0.012502177
vt 0.637276721 0.032218991
vt 0.693080325 0.032218991
vt 0.693066160 0.032579508
vt 0.657068266 0.032579508
vt 0.637273668 0.012579872
vt 0.637273679 0.032296685
vt 0.937500000 0.003906250
vt 0.996093750 0.003906250
vt 0.996093750 0.121093750
vt 0.937500000 0.121093750
vt 0.966796875 0.003906250
vt 0.908203125 0.003906250
vt 0.908203125 0.121093750
vt 0.966796875 0.121093750
vt 0.878906250 0.003906250
vt 0.878906250 0.121093750
vt 0.996093750 0.062500000
vt 0.878906250 0.062500000
vt 0.633593738 0.117784917
vt 0.633300841 0.117784932
vt 0.633984447 0.121093750
vt 0.740234375 0.117784925
vt 0.746093750 0.117784940
vt 0.740234375 0.121093750
vt 0.742578089 0.117784917
vt 0.740234435 0.117784932
vt 0.740527332 0.118750006
vt 0.741406262 0.117784932
vt 0.741406202 0.121093750
vt 0.746093690 0.117784932
vt 0.633593738 0.117784932
vt 0.633593798 0.121093750
vt 0.634765625 0.117784925
vt 0.634765625 0.116406247
vt 0.633670695 0.110469567
vt 0.633397032 0.110469581
vt 0.633439828 0.110569157
vt 0.740619155 0.110584253
vt 0.746093750 0.110584267
vt 0.740234375 0.110469574
vt 0.742424183 0.110523889
vt 0.740234435 0.110523903
vt 0.742501132 0.110523889
vt 0.745785871 0.110523903
vt 0.741406262 0.110523903
vt 0.746093694 0.110523902
vt 0.733308331 0.110469574
vt 0.640673696 0.110523889
vt 0.735421182 0.110523889
vt 0.633593742 0.110523903
vt 0.641691673 0.110523896
vt 0.634765625 0.110523896
vt 0.634765625 0.008593751
vt 0.740234315 0.008593751
vn -0.612093787 0.501668634 0.611285349
vn -0.612093593 0.501669376 0.611284934
vn -0.612093371 0.372773644 0.697410579
vn -0.612093713 0.372772216 0.697411042
vn -0.612093856 0.229552012 0.756734422
vn -0.612093403 0.229553985 0.756734190
vn -0.612093686 0.077510621 0.786977397
vn -0.612093827 0.077510001 0.786977348
vn -0.612093883 -0.077510722 0.786977233
vn -0.612093715 -0.077510009 0.786977435
vn -0.612093310 -0.229552135 0.756734826
vn -0.612093815 -0.229554109 0.756733819
vn -0.612093783 -0.372773494 0.697410297
vn -0.612093441 -0.372772315 0.697411228
vn -0.612093747 -0.501669300 0.611284842
vn -0.467390498 0.560836531 0.683380207
vn -0.467390622 0.560836086 0.683380488
vn -0.467390880 0.416737125 0.779663988
vn -0.467390498 0.416738638 0.779663408
vn -0.467390354 0.256627679 0.845983742
vn -0.467390813 0.256625754 0.845984072
vn -0.467390390 0.086651597 0.879794137
vn -0.467390371 0.086651678 0.879794140
vn -0.467390351 -0.086651599 0.879794158
vn -0.467390384 -0.086651737 0.879794127
vn -0.467390902 -0.256627838 0.845983391
vn -0.467390383 -0.256625820 0.845984290
vn -0.467390352 -0.416737256 0.779664234
vn -0.467390802 -0.416738820 0.779663129
vn -0.467390480 -0.560836538 0.683380214
vn -0.467390403 -0.560836311 0.683380453
vn -0.032086205 0.634066783 0.772612316
vn -0.032086255 0.471153897 0.881467230
vn -0.032086200 0.471154159 0.881467092
vn -0.032086123 0.290134478 0.956447837
vn -0.032086239 0.290133885 0.956448013
vn -0.032086435 0.097966132 0.994672357
vn -0.032086123 0.097967800 0.994672203
vn -0.032086118 -0.097966201 0.994672360
vn -0.032086430 -0.097967865 0.994672186
vn -0.032086241 -0.290134477 0.956447834
vn -0.032086125 -0.290133886 0.956448017
vn -0.032086261 -0.471154188 0.881467074
vn -0.032086254 -0.471154159 0.881467090
vn -0.032086306 -0.634066952 0.772612173
vn -0.032086286 -0.634066871 0.772612240
vn 0.000000000 -0.707107584 0.707105978
vn -0.000000000 0.707107584 0.707105978
vn 0.000000000 0.000000000 1.000000000
vn 0.000000000 -1.000000000 0.000000000
vn -0.000000000 1.000000000 0.000000000
vn -0.866021772 0.000000000 0.500006290
vn 0.866021772 0.000000000 0.500006290
vn 0.866021772 0.000000000 -0.500006290
vn 0.000000000 0.000000000 -1.000000000
vn -0.866021772 0.000000000 -0.500006290
vn -0.577347720 0.577347720 0.577355367
vn 0.577357917 0.577342622 0.577350269
vn 0.577357917 0.577342622 -0.577350269
vn -0.577347720 0.577347720 -0.577355367
vn -0.707106781 0.707106781 0.000000000
vn -0.000000000 0.707102098 0.707111464
vn 0.707116147 0.707097415 0.000000000
vn 0.000000000 0.707102098 -0.707111464
vn -0.707102098 0.000000000 0.707111464
vn 0.707111464 -0.000000000 0.707102098
vn 0.707111464 0.000000000 -0.707102098
vn -0.707102098 0.000000000 -0.707111464
vn -1.000000000 0.000000000 0.000000000
vn 1.000000000 0.000000000 0.000000000
usemtl mat_0
f 1/1/1 2/2/1 3/3/1
f 1/1/2 3/3/2 4/4/2
f 5/5/3 6/6/3 7/7/3
f 2/8/4 8/9/4 5/5/4
f 2/8/4 5/5/4 7/7/4
f 2/8/4 7/7/4 3/10/4
f 9/11/5 10/12/5 11/13/5
f 6/6/6 9/11/6 11/13/6 7/7/6
f 12/14/7 13/15/7 14/16/7
f 10/12/8 12/14/8 14/16/8 11/13/8
f 15/17/9 16/18/9 17/19/9
f 13/15/10 15/17/10 17/19/10 14/16/10
f 18/20/11 19/21/11 20/22/11
f 16/18/12 18/20/12 20/22/12 17/19/12
f 21/23/13 22/24/13 23/25/13
f 19/21/14 24/26/14 21/23/14
f 19/21/14 21/23/14 23/25/14
f 19/21/14 23/25/14 20/22/14
f 22/27/15 25/28/15 23/29/15
f 26/30/16 4/31/16 3/10/16 27/32/16
f 28/33/17 29/34/17 26/30/17
f 28/33/17 26/30/17 27/32/17
f 28/33/17 27/32/17 30/35/17
f 3/10/18 7/7/18 31/36/18
f 3/10/19 31/36/19 27/32/19
f 7/7/20 11/13/20 32/37/20
f 7/7/21 32/37/21 31/36/21
f 11/13/22 14/16/22 33/38/22
f 11/13/23 33/38/23 32/37/23
f 14/16/24 17/19/24 34/39/24
f 14/16/25 34/39/25 33/38/25
f 17/19/26 20/22/26 35/40/26
f 17/19/27 35/40/27 34/39/27
f 20/22/28 23/25/28 36/41/28
f 20/22/29 36/41/29 35/40/29
f 37/42/30 23/25/30 25/43/30
f 37/42/30 25/43/30 38/44/30
f 37/42/30 38/44/30 39/45/30
f 23/25/31 37/42/31 40/46/31 36/41/31
f 41/47/32 30/35/32 27/32/32 42/48/32
f 43/49/33 27/32/33 31/36/33 44/50/33
f 42/48/34 27/32/34 43/49/34
f 45/51/35 31/36/35 32/37/35 46/52/35
f 44/50/36 31/36/36 45/51/36
f 47/53/37 32/37/37 33/38/37 48/54/37
f 46/52/38 32/37/38 47/53/38
f 49/55/39 33/38/39 34/39/39 50/56/39
f 48/54/40 33/38/40 49/55/40
f 51/57/41 34/39/41 35/40/41 52/58/41
f 50/56/42 34/39/42 51/57/42
f 53/59/43 35/40/43 36/41/43 54/60/43
f 52/58/44 35/40/44 53/59/44
f 55/61/45 36/41/45 40/46/45
f 56/62/46 54/60/46 36/41/46 55/61/46
f 57/63/47 58/64/47 59/65/47 60/66/47
f 58/64/47 57/63/47 61/67/47 62/68/47
f 63/69/48 64/70/48 65/71/48 66/72/48
f 64/70/48 63/69/48 67/73/48 68/74/48
f 69/75/49 70/76/49 62/68/49 61/67/49
f 70/76/49 69/75/49 66/72/49 65/71/49
f 71/77/50 72/78/50 73/79/50
f 74/80/50 60/66/50 59/65/50
f 74/80/50 59/65/50 72/78/50
f 74/80/50 72/78/50 71/77/50
f 75/81/51 76/82/51 77/83/51
f 75/81/51 77/83/51 68/65/51
f 75/81/51 68/65/51 67/66/51
f 78/84/51 77/83/51 76/82/51
usemtl mat_1
f 79/85/52 80/86/52 81/87/52
f 79/85/52 81/87/52 82/88/52
f 80/89/49 83/90/49 84/91/49
f 80/89/49 84/91/49 81/92/49
f 83/86/53 85/85/53 86/88/53
f 83/86/53 86/88/53 84/87/53
f 85/85/54 87/93/54 88/94/54
f 85/85/54 88/94/54 86/88/54
f 87/90/55 89/89/55 90/92/55
f 87/90/55 90/92/55 88/91/55
f 89/93/56 79/85/56 82/88/56
f 89/93/56 82/88/56 90/94/56
f 79/95/50 89/89/50 87/90/50
f 87/90/50 85/96/50 83/91/50
f 83/91/50 80/92/50 79/95/50
f 87/90/50 83/91/50 79/95/50
f 90/89/51 82/95/51 81/92/51
f 81/92/51 84/91/51 86/96/51
f 86/96/51 88/90/51 90/89/51
f 81/92/51 86/96/51 90/89/51
f 91/85/52 92/86/52 93/87/52
f 91/85/52 93/87/52 94/88/52
f 92/89/49 95/90/49 96/91/49
f 92/89/49 96/91/49 93/92/49
f 95/86/53 97/85/53 98/88/53
f 95/86/53 98/88/53 96/87/53
f 97/85/54 99/93/54 100/94/54
f 97/85/54 100/94/54 98/88/54
f 99/90/55 101/89/55 102/92/55
f 99/90/55 102/92/55 100/91/55
f 101/93/56 91/85/56 94/88/56
f 101/93/56 94/88/56 102/94/56
f 91/95/50 101/89/50 99/90/50
f 99/90/50 97/96/50 95/91/50
f 95/91/50 92/92/50 91/95/50
f 99/90/50 95/91/50 91/95/50
f 102/89/51 94/95/51 93/92/51
f 93/92/51 96/91/51 98/96/51
f 98/96/51 100/90/51 102/89/51
f 93/92/51 98/96/51 102/89/51
f 103/85/52 104/86/52 105/87/52
f 103/85/52 105/87/52 106/88/52
f 104/89/49 107/90/49 108/91/49
f 104/89/49 108/91/49 105/92/49
f 107/86/53 109/85/53 110/88/53
f 107/86/53 110/88/53 108/87/53
f 109/85/54 111/93/54 112/94/54
f 109/85/54 112/94/54 110/88/54
f 111/90/55 113/89/55 114/92/55
f 111/90/55 114/92/55 112/91/55
f 113/93/56 103/85/56 106/88/56
f 113/93/56 106/88/56 114/94/56
f 103/95/50 113/89/50 111/90/50
f 111/90/50 109/96/50 107/91/50
f 107/91/50 104/92/50 103/95/50
f 111/90/50 107/91/50 103/95/50
f 114/89/51 106/95/51 105/92/51
f 105/92/51 108/91/51 110/96/51
f 110/96/51 112/90/51 114/89/51
f 105/92/51 110/96/51 114/89/51
usemtl mat_0
f 115/97/57 116/98/57 117/99/57
f 118/100/58 119/101/58 120/102/58
f 121/103/59 122/104/59 123/105/59
f 124/106/60 125/107/60 126/108/60
f 117/99/61 125/107/61 124/106/61
f 117/99/61 124/106/61 115/97/61
f 116/98/62 118/100/62 120/102/62
f 116/98/62 120/102/62 117/99/62
f 119/109/63 121/103/63 123/105/63
f 119/109/63 123/105/63 120/110/63
f 122/104/64 126/111/64 125/112/64
f 122/104/64 125/112/64 123/105/64
f 127/113/65 128/114/65 116/98/65 115/97/65
f 127/113/65 115/97/65 129/115/65
f 130/116/66 131/117/66 119/101/66 118/100/66
f 130/116/66 118/100/66 132/118/66
f 133/119/67 134/120/67 122/104/67 121/103/67
f 133/119/67 121/103/67 135/121/67
f 136/122/68 137/123/68 124/106/68 126/108/68
f 136/122/68 126/108/68 138/124/68
f 139/125/49 132/118/49 118/100/49
f 128/114/49 139/125/49 118/100/49 116/98/49
f 140/126/69 129/115/69 115/97/69
f 137/123/69 140/126/69 115/97/69 124/106/69
f 141/127/70 135/121/70 121/103/70
f 131/128/70 141/127/70 121/103/70 119/109/70
f 142/129/55 138/130/55 126/111/55
f 134/120/55 142/129/55 126/111/55 122/104/55
f 117/131/51 120/132/51 123/105/51
f 117/131/51 123/105/51 125/112/51
