# Authored in Blender; exported by tools-export-modern.py
mtllib materials.mtl
s off
v 1.000000000 0.077451199 0.074148449
v 0.000000000 0.038178744 0.026294807
v 0.000000000 0.098658323 0.099989414
v 1.000000000 0.098658323 0.099989414
v 1.000000000 0.016599160 0.000000000
v 0.000000000 0.016599160 0.000000000
v 1.000000000 0.149435032 0.194986226
v 0.000000000 0.120253016 0.140390357
v 0.000000000 0.165193319 0.224467993
v 1.000000000 0.165193319 0.224467993
v 1.000000000 0.196461603 0.327545431
v 0.000000000 0.178491325 0.268305524
v 0.000000000 0.206165552 0.359534979
v 1.000000000 0.206165552 0.359534979
v 1.000000000 0.216723624 0.466731971
v 0.000000000 0.210655767 0.405124504
v 0.000000000 0.220000267 0.500000000
v 1.000000000 0.220000267 0.500000000
v 1.000000000 0.209442195 0.607196992
v 0.000000000 0.215510052 0.545589526
v 0.000000000 0.206165552 0.640465021
v 1.000000000 0.206165552 0.640465021
v 1.000000000 0.174897269 0.743542460
v 0.000000000 0.192867546 0.684302553
v 0.000000000 0.165193319 0.775532007
v 1.000000000 0.165193319 0.775532007
v 1.000000000 0.114416611 0.870528819
v 0.000000000 0.143598627 0.815932950
v 0.000000000 0.098658323 0.900010586
v 1.000000000 0.098658323 0.900010586
v 1.000000000 0.016599160 1.000000000
v 1.000000000 0.030324251 0.983275923
v 0.000000000 0.069596706 0.935422281
v 0.000000000 0.016599160 1.000000000
vt 0.713541678 0.097155886
vt 0.670138883 0.101050226
vt 0.670138883 0.095052943
vt 0.713541678 0.095052943
vt 0.713541678 0.103190104
vt 0.670138883 0.103190104
vt 0.713541678 0.087322088
vt 0.670138883 0.091765108
vt 0.670138883 0.084922858
vt 0.713541678 0.084922858
vt 0.713541678 0.076534392
vt 0.670138883 0.081355349
vt 0.670138883 0.073931076
vt 0.713541678 0.073931076
vt 0.713541678 0.065207360
vt 0.670138883 0.070220990
vt 0.670138883 0.062500000
vt 0.713541678 0.062500000
vt 0.713541678 0.053776287
vt 0.670138883 0.058789915
vt 0.670138883 0.051068928
vt 0.713541678 0.051068928
vt 0.713541678 0.042680460
vt 0.670138883 0.047501419
vt 0.670138883 0.040077142
vt 0.713541678 0.040077142
vt 0.713541678 0.032346286
vt 0.670138883 0.036789307
vt 0.670138883 0.029947056
vt 0.713541678 0.029947056
vt 0.713541678 0.021809898
vt 0.713541678 0.023170907
vt 0.670138883 0.027065245
vt 0.670138883 0.021809898
vn 0.000000000 0.773010562 -0.634393151
vn 0.000000000 0.881921825 -0.471395688
vn 0.000000000 0.956940118 -0.290285394
vn 0.000000000 0.995184645 -0.098017967
vn 0.000000000 0.995184645 0.098017967
vn 0.000000000 0.956940118 0.290285394
vn 0.000000000 0.881921825 0.471395688
vn 0.000000000 0.773010562 0.634393151
usemtl mat_0
f 1/1/1 2/2/1 3/3/1 4/4/1
f 5/5/1 6/6/1 2/2/1 1/1/1
f 7/7/2 8/8/2 9/9/2 10/10/2
f 4/4/2 3/3/2 8/8/2 7/7/2
f 11/11/3 12/12/3 13/13/3 14/14/3
f 10/10/3 9/9/3 12/12/3 11/11/3
f 15/15/4 16/16/4 17/17/4 18/18/4
f 14/14/4 13/13/4 16/16/4 15/15/4
f 19/19/5 20/20/5 21/21/5 22/22/5
f 18/18/5 17/17/5 20/20/5 19/19/5
f 23/23/6 24/24/6 25/25/6 26/26/6
f 22/22/6 21/21/6 24/24/6 23/23/6
f 27/27/7 28/28/7 29/29/7 30/30/7
f 26/26/7 25/25/7 28/28/7 27/27/7
f 31/31/8 32/32/8 33/33/8 34/34/8
f 30/30/8 29/29/8 33/33/8 32/32/8
