# Authored in Blender; exported by tools-export-modern.py
mtllib materials.mtl
s off
v 0.322000504 0.423000067 0.822499990
v 0.322000504 0.405000031 0.804499984
v 0.340000153 0.423000067 0.804499984
v 0.322000504 0.423000067 0.177500010
v 0.340000153 0.423000067 0.195500016
v 0.322000504 0.405000031 0.195500016
v 0.000000000 0.407906275 0.807406223
v 0.000000000 0.405000031 0.804499984
v 0.000000000 0.423000067 0.822499990
v 0.000000000 0.420093823 0.180406249
v 0.000000000 0.405000031 0.195500016
v 0.000000000 0.423000067 0.177500010
v 0.329445482 1.000000000 0.815054865
v 0.340000153 1.000000000 0.804499984
v 0.322000504 1.000000000 0.822499990
v 0.332555175 1.000000000 0.188054890
v 0.322000504 1.000000000 0.177500010
v 0.340000153 1.000000000 0.195500016
v 0.163171085 1.000000000 0.822499990
v 0.000000000 0.581874424 0.822499990
v 0.000000000 1.000000000 0.822499990
v 0.000000000 0.405000031 0.706172262
v 0.340000153 1.000000000 0.447393336
v 0.000000000 1.000000000 0.177500010
v 0.096829621 1.000000000 0.177500010
v 0.188360395 0.073360461 0.000000000
v 0.179639635 0.064639535 1.000000000
v 0.175000191 0.060000002 1.000000000
v 0.175000191 0.060000002 0.000000000
v 0.192999840 0.077999994 0.000000000
v 0.192999840 0.077999994 1.000000000
v 0.179639635 0.355360477 0.000000000
v 0.188360395 0.346639545 1.000000000
v 0.192999840 0.342000008 1.000000000
v 0.192999840 0.342000008 0.000000000
v 0.175000191 0.360000014 0.000000000
v 0.175000191 0.360000014 1.000000000
v 0.099221078 0.060000002 0.000000000
v 0.000000000 0.060000002 0.696572158
v 0.000000000 0.060000002 0.000000000
v 0.000000000 0.060000002 1.000000000
v 0.192999840 0.273953489 0.000000000
v 0.192999840 0.146046513 1.000000000
v 0.099221078 0.360000014 0.000000000
v 0.000000000 0.360000014 0.696572158
v 0.000000000 0.360000014 1.000000000
v 0.000000000 0.360000014 0.000000000
v 0.591131401 0.264630921 0.000000000
v 0.585369874 0.258869075 1.000000000
v 0.581501007 0.254999995 1.000000000
v 0.581501007 0.254999995 0.000000000
v 0.595000267 0.268500000 0.000000000
v 0.595000267 0.268500000 1.000000000
v 0.585369873 0.326130904 0.000000000
v 0.591131400 0.320369059 1.000000000
v 0.595000267 0.316499978 1.000000000
v 0.595000267 0.316499978 0.000000000
v 0.581501007 0.329999983 0.000000000
v 0.581501007 0.329999983 1.000000000
v 0.000000000 0.254999995 1.000000000
v 0.000000000 0.254999995 0.000000000
v 0.595000267 0.302743262 0.000000000
v 0.595000267 0.282256719 1.000000000
v 0.000000000 0.329999983 0.000000000
v 0.000000000 0.329999983 1.000000000
vt 0.116071418 0.130457252
vt 0.116071433 0.132176608
vt 0.121093750 0.131775826
vt 0.116071425 0.246093750
vt 0.121093743 0.242823392
vt 0.116071418 0.242823392
vt 0.026227609 0.131899005
vt 0.026227611 0.132176608
vt 0.026227606 0.130457252
vt 0.026227599 0.245565726
vt 0.026227608 0.242823392
vt 0.026227601 0.246093750
vt 0.118148745 0.197597150
vt 0.121093750 0.197597159
vt 0.116071418 0.197051764
vt 0.117578164 0.197265618
vt 0.116071418 0.130974263
vt 0.116071422 0.197265609
vt 0.118302815 0.197265618
vt 0.117823400 0.130974263
vt 0.071755212 0.197051764
vt 0.026227606 0.148793754
vt 0.025694080 0.197051764
vt 0.026227609 0.150041381
vt 0.072537312 0.197265618
vt 0.007176599 0.130974263
vt 0.007176599 0.197265618
vt 0.026227608 0.197265609
vt 0.053244777 0.197265609
vt 0.026227608 0.130974263
vt 0.119446189 0.215401780
vt 0.116349271 0.159598220
vt 0.114701711 0.159598224
vt 0.114701711 0.215401791
vt 0.121093750 0.215919586
vt 0.121093750 0.161089344
vt 0.087402596 0.243908654
vt 0.033556723 0.240745370
vt 0.034662940 0.239062499
vt 0.090588167 0.239062492
vt 0.087402597 0.245720972
vt 0.033556724 0.245964300
vt 0.087791526 0.215401791
vt 0.052556784 0.176530580
vt 0.052556784 0.215401791
vt 0.052556784 0.159598224
vt 0.090588167 0.212481824
vt 0.034662939 0.162518176
vt 0.034598216 0.135937512
vt 0.090401784 0.135937512
vt 0.088791255 0.215774569
vt 0.053101955 0.176733863
vt 0.052903949 0.159727674
vt 0.115048875 0.159727674
vt 0.115701440 0.215774569
vt 0.053101955 0.215605074
vt 0.121038390 0.212223110
vt 0.120955947 0.162776911
vt 0.120900588 0.162776911
vt 0.120900592 0.212223110
vt 0.121093750 0.214174485
vt 0.121093750 0.167634278
vt 0.087476907 0.239810216
vt 0.037878868 0.230949788
vt 0.037824731 0.225000005
vt 0.087342150 0.224999998
vt 0.087476905 0.245855648
vt 0.037878861 0.245998096
vt 0.112588567 0.162765023
vt 0.112588571 0.212211222
vt 0.087342150 0.203505119
vt 0.037824731 0.171494885
vt 0.037840675 0.150000006
vt 0.087381839 0.150000006
vt 0.112495516 0.212461212
vt 0.112546134 0.162872565
vt 0.120866604 0.162872565
vt 0.120815985 0.212461212
vn 0.577358235 -0.577345808 0.577346764
vn 0.577358235 -0.577345808 -0.577346764
vn 0.000000000 -0.707106196 0.707107367
vn -0.000000000 -0.707106196 -0.707107367
vn 0.707114391 -0.707099171 0.000000000
vn 0.707113806 -0.000000000 0.707099757
vn 0.707113806 0.000000000 -0.707099757
vn 0.000000000 0.000000000 1.000000000
vn 0.000000000 -1.000000000 0.000000000
vn 1.000000000 0.000000000 0.000000000
vn 0.000000000 0.000000000 -1.000000000
vn 0.707113513 -0.707100049 0.000000000
vn 0.707113806 0.707099757 0.000000000
vn -0.000000000 1.000000000 0.000000000
vn 0.707126294 -0.707087268 0.000000000
vn 0.707126294 0.707087268 0.000000000
usemtl mat_2
f 1/1/1 2/2/1 3/3/1
f 4/4/2 5/5/2 6/6/2
f 7/7/3 8/8/3 2/2/3 1/1/3
f 7/7/3 1/1/3 9/9/3
f 10/10/4 6/6/4 11/11/4
f 6/6/4 10/10/4 12/12/4 4/4/4
f 2/2/5 6/6/5 5/5/5
f 2/2/5 5/5/5 3/3/5
f 13/13/6 3/3/6 14/14/6
f 3/3/6 13/13/6 15/15/6 1/1/6
f 16/16/7 4/17/7 17/18/7
f 4/17/7 16/16/7 18/19/7 5/20/7
f 19/21/8 20/22/8 9/9/8
f 19/21/8 9/9/8 1/1/8
f 19/21/8 1/1/8 15/15/8
f 21/23/8 20/22/8 19/21/8
f 22/24/9 11/11/9 6/6/9
f 8/8/9 22/24/9 6/6/9 2/2/9
f 23/25/10 3/26/10 5/20/10 18/19/10
f 14/27/10 3/26/10 23/25/10
f 24/28/11 25/29/11 4/17/11 12/30/11
f 17/18/11 4/17/11 25/29/11
f 26/31/12 27/32/12 28/33/12 29/34/12
f 27/32/12 26/31/12 30/35/12 31/36/12
f 32/37/13 33/38/13 34/39/13 35/40/13
f 33/38/13 32/37/13 36/41/13 37/42/13
f 38/43/9 39/44/9 40/45/9
f 41/46/9 39/44/9 38/43/9
f 41/46/9 38/43/9 29/34/9
f 41/46/9 29/34/9 28/33/9
f 42/47/10 43/48/10 31/49/10 30/50/10
f 43/48/10 42/47/10 35/40/10 34/39/10
f 44/51/14 45/52/14 46/53/14
f 44/51/14 46/53/14 37/54/14
f 44/51/14 37/54/14 36/55/14
f 47/56/14 45/52/14 44/51/14
f 48/57/15 49/58/15 50/59/15 51/60/15
f 49/58/15 48/57/15 52/61/15 53/62/15
f 54/63/16 55/64/16 56/65/16 57/66/16
f 55/64/16 54/63/16 58/67/16 59/68/16
f 60/69/9 61/70/9 51/60/9 50/59/9
f 62/71/10 63/72/10 53/73/10 52/74/10
f 63/72/10 62/71/10 57/66/10 56/65/10
f 64/75/14 65/76/14 59/77/14 58/78/14
