# Authored in Blender; exported by tools-export-modern.py
mtllib materials.mtl
s off
v 0.857500076 0.393000007 0.456000000
v 0.875500202 0.393000007 0.437999994
v 0.875500202 0.375000000 0.456000000
v 0.857500076 0.507000029 0.456000000
v 0.875500202 0.525000036 0.456000000
v 0.875500202 0.507000029 0.437999994
v 0.859421274 0.391078822 1.000000000
v 0.857500076 0.393000007 1.000000000
v 0.875500202 0.375000000 1.000000000
v 1.000000000 0.389320210 0.441679791
v 1.000000000 0.375000000 0.456000000
v 1.000000000 0.393000007 0.437999994
v 0.873579005 0.523078851 1.000000000
v 0.875500202 0.525000036 1.000000000
v 0.857500076 0.507000029 1.000000000
v 1.000000000 0.521320239 0.452320203
v 1.000000000 0.507000029 0.437999994
v 1.000000000 0.525000036 0.456000000
v 1.000000000 0.375000000 0.940500290
v 0.940500275 0.375000000 1.000000000
v 1.000000000 0.375000000 1.000000000
v 0.857500076 0.494832529 1.000000000
v 1.000000000 0.483694652 0.437999994
v 1.000000000 0.525000036 1.000000000
v 1.000000000 0.525000036 0.940500290
v 0.940500275 0.525000036 1.000000000
v 0.940000057 0.534000039 0.760500014
v 0.962500095 0.534000039 0.799471140
v 0.962500095 0.585000038 0.799471140
v 0.940000057 0.585000038 0.760500014
v 1.000000000 0.576499858 0.799471140
v 1.000000000 0.534000039 0.799471140
v 1.000000000 0.585000038 0.799471140
v 1.000000000 0.542500219 0.721528888
v 1.000000000 0.534000039 0.721528888
v 0.962500095 0.534000039 0.721528888
v 0.962500095 0.585000038 0.721528888
v 1.000000000 0.585000038 0.721528888
v 1.000000000 0.534000039 0.725859105
v 1.000000000 0.534000039 0.795140923
v 1.000000000 0.585000038 0.777820606
v 1.000000000 0.585000038 0.743179422
v 1.000000000 0.012228125 0.609227949
v 0.000000000 0.010076044 0.607075868
v 0.000000000 0.000000000 0.596999824
v 1.000000000 0.000000000 0.596999824
v 1.000000000 0.018000007 0.614999831
v 0.000000000 0.018000007 0.614999831
v 0.000000000 0.007923963 0.235075874
v 1.000000000 0.005771882 0.237227955
v 1.000000000 0.000000000 0.242999837
v 0.000000000 0.000000000 0.242999837
v 0.000000000 0.018000007 0.224999830
v 1.000000000 0.018000007 0.224999830
v 1.000000000 0.384228134 0.602771706
v 0.000000000 0.382076053 0.604923787
v 0.000000000 0.372000009 0.614999831
v 1.000000000 0.372000009 0.614999831
v 1.000000000 0.390000015 0.596999824
v 0.000000000 0.390000015 0.596999824
v 0.000000000 0.379923972 0.232923793
v 1.000000000 0.377771891 0.230771712
v 1.000000000 0.372000009 0.224999830
v 0.000000000 0.372000009 0.224999830
v 0.000000000 0.390000015 0.242999837
v 1.000000000 0.390000015 0.242999837
v 1.000000000 0.258486376 0.614999831
v 0.000000000 0.216162130 0.614999831
v 1.000000000 0.000000000 0.356513465
v 0.000000000 0.000000000 0.398837709
v 0.000000000 0.173837885 0.224999830
v 1.000000000 0.131513640 0.224999830
v 1.000000000 0.390000015 0.356513465
v 0.000000000 0.390000015 0.398837709
v 0.000000000 0.260923096 0.322576825
v 1.000000000 0.259269292 0.324230626
v 1.000000000 0.254999995 0.328499913
v 0.000000000 0.254999995 0.328499913
v 0.000000000 0.268500000 0.314999938
v 1.000000000 0.268500000 0.314999938
v 0.000000000 0.322423079 0.320923026
v 1.000000000 0.320769275 0.319269225
v 1.000000000 0.316499978 0.314999938
v 0.000000000 0.316499978 0.314999938
v 0.000000000 0.329999983 0.328499913
v 1.000000000 0.329999983 0.328499913
v 1.000000000 0.254999995 1.000000000
v 0.000000000 0.254999995 1.000000000
v 0.000000000 0.289559897 0.314999938
v 1.000000000 0.283679710 0.314999938
v 0.000000000 0.329999983 1.000000000
v 1.000000000 0.329999983 1.000000000
vt 0.628906250 0.117823392
vt 0.632176578 0.121093743
vt 0.632176578 0.117823407
vt 0.742823362 0.107031249
vt 0.742823362 0.121093750
vt 0.746093750 0.107031263
vt 0.630715966 0.023806341
vt 0.630366916 0.023806339
vt 0.632176578 0.018986203
vt 0.654796455 0.120425176
vt 0.654796455 0.117823406
vt 0.654796443 0.121093744
vt 0.643986232 0.119592825
vt 0.643986232 0.121093750
vt 0.643986178 0.107031255
vt 0.654796490 0.115617127
vt 0.654796443 0.107031254
vt 0.632176578 0.107031256
vt 0.632176638 0.117823400
vt 0.654796490 0.118157683
vt 0.742823422 0.017968748
vt 0.746093750 0.017968744
vt 0.654796455 0.029796468
vt 0.643986185 0.018986202
vt 0.654796455 0.018986202
vt 0.643986185 0.097525398
vt 0.642525572 0.013148610
vt 0.654796455 0.088823932
vt 0.654796455 0.017968748
vt 0.632176578 0.017968748
vt 0.654796449 0.019160728
vt 0.654796443 0.030130751
vt 0.643986178 0.019160728
vt 0.632176584 0.018986202
vt 0.937500000 0.003906250
vt 0.996093750 0.003906250
vt 0.996093750 0.121093750
vt 0.937500000 0.121093750
vt 0.917968957 0.101562086
vt 0.966796875 0.003906250
vt 0.917968957 0.003906250
vt 0.917968957 0.121093750
vt 0.966796875 0.121093750
vt 0.917968957 0.023437914
vt 0.878906250 0.003906250
vt 0.878906250 0.121093750
vt 0.917968957 0.010416805
vt 0.996093750 0.062500000
vt 0.917968957 0.114583195
vt 0.917968957 0.088541805
vt 0.917968957 0.036458195
vt 0.083426340 0.133396317
vt 0.069475447 0.133557982
vt 0.069475443 0.134314895
vt 0.083426335 0.134314895
vt 0.083426340 0.132962734
vt 0.069475448 0.132962734
vt 0.069475447 0.243066097
vt 0.083426337 0.242419436
vt 0.083426335 0.240685090
vt 0.069475443 0.240685090
vt 0.069475451 0.246093757
vt 0.083426342 0.246093755
vt 0.083406209 0.244359405
vt 0.069447810 0.243712743
vt 0.069447806 0.240685084
vt 0.083406204 0.240685086
vt 0.084528885 0.246093750
vt 0.070989083 0.246093750
vt 0.069475443 0.240685076
vt 0.083426334 0.240685076
vt 0.083426335 0.240685080
vt 0.069475443 0.240685082
vt 0.068753672 0.242198918
vt 0.082550405 0.242522250
vt 0.083426335 0.206142842
vt 0.069475443 0.193263555
vt 0.083426335 0.206576426
vt 0.069475443 0.193858804
vt 0.069475447 0.181141181
vt 0.083426340 0.168423559
vt 0.083426340 0.134314899
vt 0.069475447 0.134314901
vt 0.082550405 0.208413590
vt 0.068753672 0.195372638
vt 0.069475451 0.134314903
vt 0.083426345 0.134314905
vt 0.069654304 0.245719107
vt 0.083962911 0.245637334
vt 0.083962911 0.245426247
vt 0.069654304 0.245426251
vt 0.069654296 0.246093750
vt 0.083962901 0.246093750
vt 0.069654304 0.233961970
vt 0.083962911 0.231459678
vt 0.083962911 0.225000004
vt 0.069654304 0.225000002
vt 0.069587740 0.245613552
vt 0.083881818 0.245654441
vt 0.083996898 0.212175284
vt 0.069688291 0.212175288
vt 0.069654304 0.182906104
vt 0.083962911 0.173718309
vt 0.083962911 0.150000006
vt 0.069654304 0.150000006
vt 0.069587740 0.212410429
vt 0.083881818 0.212451318
vn -0.577347720 -0.577351544 -0.577351544
vn -0.577347720 0.577351544 -0.577351544
vn -0.707104440 -0.707109123 -0.000000000
vn -0.000000000 -0.707106781 -0.707106781
vn -0.707104440 0.707109123 0.000000000
vn 0.000000000 0.707106781 -0.707106781
vn -0.707104440 0.000000000 -0.707109123
vn 0.000000000 -1.000000000 0.000000000
vn -1.000000000 0.000000000 0.000000000
vn 0.000000000 0.000000000 -1.000000000
vn -0.000000000 1.000000000 0.000000000
vn -0.866024942 0.000000000 0.500000800
vn 0.000000000 0.000000000 1.000000000
vn -0.866024942 0.000000000 -0.500000800
vn 0.000000000 -0.707106781 0.707106781
vn -0.000000000 0.707106781 0.707106781
vn -0.000000000 -0.707106001 -0.707107562
vn 0.000000000 0.707106001 -0.707107562
usemtl mat_0
f 1/1/1 2/2/1 3/3/1
f 4/4/2 5/5/2 6/6/2
f 7/7/3 8/8/3 1/1/3 3/3/3
f 7/7/3 3/3/3 9/9/3
f 10/10/4 11/11/4 3/3/4 2/2/4
f 10/10/4 2/2/4 12/12/4
f 13/13/5 14/14/5 5/5/5 4/4/5
f 13/13/5 4/4/5 15/15/5
f 16/16/6 17/17/6 6/18/6 5/19/6
f 16/16/6 5/19/6 18/20/6
f 1/21/7 4/4/7 6/6/7
f 1/21/7 6/6/7 2/22/7
f 19/23/8 20/24/8 9/9/8
f 19/23/8 9/9/8 3/3/8
f 19/23/8 3/3/8 11/11/8
f 21/25/8 20/24/8 19/23/8
f 22/26/9 1/21/9 8/27/9
f 1/21/9 22/26/9 15/15/9 4/4/9
f 23/28/10 12/29/10 2/30/10 6/18/10
f 23/28/10 6/18/10 17/17/10
f 24/31/11 25/32/11 26/33/11
f 14/34/11 26/33/11 25/32/11
f 14/34/11 25/32/11 18/20/11
f 14/34/11 18/20/11 5/19/11
usemtl mat_1
f 27/35/12 28/36/12 29/37/12
f 27/35/12 29/37/12 30/38/12
f 31/39/13 28/40/13 32/41/13
f 28/40/13 31/39/13 33/42/13 29/43/13
f 34/44/10 35/41/10 36/40/10 37/43/10
f 34/44/10 37/43/10 38/42/10
f 36/45/14 27/35/14 30/38/14
f 36/45/14 30/38/14 37/46/14
f 39/47/8 27/48/8 36/40/8 35/41/8
f 40/49/8 32/42/8 28/43/8 27/48/8
f 39/47/8 40/49/8 27/48/8
f 37/40/11 30/48/11 29/43/11
f 41/50/11 29/43/11 33/42/11
f 42/51/11 38/41/11 37/40/11
f 29/43/11 41/50/11 42/51/11 37/40/11
usemtl mat_2
f 43/52/15 44/53/15 45/54/15 46/55/15
f 44/53/15 43/52/15 47/56/15 48/57/15
f 49/58/4 50/59/4 51/60/4 52/61/4
f 50/59/4 49/58/4 53/62/4 54/63/4
f 55/64/16 56/65/16 57/66/16 58/67/16
f 56/65/16 55/64/16 59/68/16 60/69/16
f 61/70/6 62/71/6 63/72/6 64/73/6
f 62/71/6 61/70/6 65/74/6 66/75/6
f 67/76/13 68/77/13 48/57/13 47/56/13
f 68/77/13 67/76/13 58/67/13 57/66/13
f 69/78/8 70/79/8 52/61/8 51/60/8
f 46/55/8 45/54/8 70/79/8 69/78/8
f 71/80/10 72/81/10 54/82/10 53/83/10
f 72/81/10 71/80/10 64/73/10 63/72/10
f 73/84/11 74/85/11 60/86/11 59/87/11
f 74/85/11 73/84/11 66/75/11 65/74/11
f 75/88/17 76/89/17 77/90/17 78/91/17
f 76/89/17 75/88/17 79/92/17 80/93/17
f 81/94/18 82/95/18 83/96/18 84/97/18
f 82/95/18 81/94/18 85/98/18 86/99/18
f 87/100/8 88/101/8 78/91/8 77/90/8
f 89/102/10 90/103/10 80/104/10 79/105/10
f 90/103/10 89/102/10 84/97/10 83/96/10
f 91/106/11 92/107/11 86/99/11 85/98/11
