# Authored in Blender; exported by tools-export-modern.py
mtllib materials.mtl
s off
v 0.000000000 0.077451199 0.074148449
v 0.000000000 0.098658323 0.099989414
v 0.539999962 0.098658323 0.099989414
v 0.000000000 0.016599160 0.000000000
v 0.539999962 0.016599160 0.000000000
v 0.000000000 0.149435032 0.194986226
v 0.000000000 0.165193319 0.224467993
v 0.539999962 0.165193319 0.224467993
v 0.000000000 0.196461603 0.327545431
v 0.000000000 0.206165552 0.359534979
v 0.539999962 0.206165552 0.359534979
v 0.000000000 0.216723624 0.466731971
v 0.000000000 0.220000267 0.500000000
v 0.539999962 0.220000267 0.500000000
v 0.000000000 0.209442195 0.607196992
v 0.000000000 0.206165552 0.640465021
v 0.539999962 0.206165552 0.640465021
v 0.000000000 0.174897269 0.743542460
v 0.000000000 0.165193319 0.775532007
v 0.539999962 0.165193319 0.775532007
v 0.000000000 0.114416611 0.870528819
v 0.000000000 0.098658323 0.900010586
v 0.539999962 0.098658323 0.900010586
v 0.349483887 0.016599160 1.000000000
v 0.000000000 0.030324251 0.983275923
v 0.000000000 0.016599160 1.000000000
v 0.539999962 0.016599160 1.000000000
v 0.548773730 0.016599160 0.000000000
v 0.644999981 0.098658323 0.099989414
v 0.644999981 0.016599160 0.000000000
v 0.644999981 0.165193319 0.224467993
v 0.644999981 0.206165552 0.359534979
v 0.644999981 0.220000267 0.500000000
v 0.644999981 0.206165552 0.640465021
v 0.644999981 0.165193319 0.775532007
v 0.644999981 0.098658323 0.900010586
v 0.636226213 0.016599160 1.000000000
v 0.644999981 0.016599160 1.000000000
v 0.697548774 0.000000000 0.081521374
v 0.650285624 0.008200076 0.000000000
v 0.741132757 0.000000000 0.165910791
v 0.655446140 0.000000000 0.000000227
v 0.655445881 0.000000227 0.000000000
v 0.750000000 0.045458555 0.274063706
v 0.750000000 0.000000000 0.189016641
v 0.750000000 0.079055786 0.384818673
v 0.750000000 0.090399981 0.500000000
v 0.750000000 0.079055786 0.615181327
v 0.750000000 0.045458555 0.725936294
v 0.744517748 0.000000000 0.825268746
v 0.741132757 0.000000000 0.834089209
v 0.750000000 0.000000000 0.810983359
v 0.702175108 0.000000000 0.909520841
v 0.655445881 0.000000227 1.000000000
v 0.655446140 0.000000000 0.999999773
v 0.750000000 0.000000000 0.193961166
v 0.750000000 0.000000000 0.806038834
v 0.750000000 0.000000000 0.266503401
v 0.750000000 0.000000000 0.782258872
v 0.750000000 0.000000000 0.331995300
v 0.750000000 0.000000000 0.503133995
v 0.563848497 0.058311409 0.000000000
v 0.517499924 0.058311409 0.000000000
v 0.517499924 0.125597715 0.081988931
v 0.682499886 0.125597715 0.081988931
v 0.682499886 0.058311409 0.000000000
v 0.517499924 0.195127249 0.212069035
v 0.682499886 0.195127249 0.212069035
v 0.517499924 0.237942934 0.353214025
v 0.682499886 0.237942934 0.353214025
v 0.517499924 0.252400160 0.500000000
v 0.682499886 0.252400160 0.500000000
v 0.517499924 0.237942934 0.646785975
v 0.682499886 0.237942934 0.646785975
v 0.517499924 0.195127249 0.787930965
v 0.682499886 0.195127249 0.787930965
v 0.517499924 0.125597715 0.918011069
v 0.682499886 0.125597715 0.918011069
v 0.636151250 0.058311444 1.000000000
v 0.517499924 0.058311444 1.000000000
v 0.682499886 0.058311444 1.000000000
v 0.517499924 0.053427383 1.000000000
v 0.517499924 0.053427349 0.000000000
v 0.517499924 0.045293589 1.000000000
v 0.517499924 0.045293565 0.000000000
v 0.517499924 0.000000000 0.752400160
v 0.517499924 0.000000000 1.000000000
v 0.517499924 0.000000000 0.000000000
v 0.517499924 0.000000000 0.247599860
v 0.682499886 0.043608855 0.000000000
v 0.682499886 0.043608832 1.000000000
v 0.682499886 0.001932920 0.000000000
v 0.682499886 0.002892643 1.000000000
v 0.682499886 0.000000000 0.194225639
v 0.682499886 0.000000000 0.000000000
v 0.682499886 0.000000000 1.000000000
v 0.682499886 0.000000000 0.709320790
v 0.511499882 0.044778824 0.906009674
v 0.511499882 0.081151962 0.885009646
v 0.477899790 0.081151962 0.885009646
v 0.477899790 0.044778824 0.906009674
v 0.511499882 0.081151962 0.843009591
v 0.477899790 0.081151962 0.843009591
v 0.511499882 0.044778824 0.822009563
v 0.477899790 0.044778824 0.822009563
v 0.511499882 0.008405685 0.843009591
v 0.477899790 0.008405685 0.843009591
v 0.511499882 0.008405685 0.885009646
v 0.477899790 0.008405685 0.885009646
v 0.511499882 0.142610550 0.669823289
v 0.511499882 0.178983688 0.648823261
v 0.477899790 0.178983688 0.648823261
v 0.477899790 0.142610550 0.669823289
v 0.511499882 0.178983688 0.606823206
v 0.477899790 0.178983688 0.606823206
v 0.511499882 0.142610550 0.585823178
v 0.477899790 0.142610550 0.585823178
v 0.511499882 0.106237411 0.606823206
v 0.477899790 0.106237411 0.606823206
v 0.511499882 0.106237411 0.648823261
v 0.477899790 0.106237411 0.648823261
v 0.511499882 0.142610550 0.414176822
v 0.511499882 0.178983688 0.393176794
v 0.477899790 0.178983688 0.393176794
v 0.477899790 0.142610550 0.414176822
v 0.511499882 0.178983688 0.351176739
v 0.477899790 0.178983688 0.351176739
v 0.511499882 0.142610550 0.330176711
v 0.477899790 0.142610550 0.330176711
v 0.511499882 0.106237411 0.351176739
v 0.477899790 0.106237411 0.351176739
v 0.511499882 0.106237411 0.393176794
v 0.477899790 0.106237411 0.393176794
v 0.511499882 0.044778824 0.177990437
v 0.511499882 0.081151962 0.156990409
v 0.477899790 0.081151962 0.156990409
v 0.477899790 0.044778824 0.177990437
v 0.511499882 0.081151962 0.114990354
v 0.477899790 0.081151962 0.114990354
v 0.511499882 0.044778824 0.093990326
v 0.477899790 0.044778824 0.093990326
v 0.511499882 0.008405685 0.114990354
v 0.477899790 0.008405685 0.114990354
v 0.511499882 0.008405685 0.156990409
v 0.477899790 0.008405685 0.156990409
v 0.487124291 0.000000000 0.252039312
v 0.422745705 0.000000000 0.262235880
v 0.422745705 0.920000076 0.262235880
v 0.500000000 0.000000000 0.250000000
v 0.500000000 0.920000076 0.250000000
v 0.411130355 0.000000000 0.268154181
v 0.353053570 0.000000000 0.297745705
v 0.353053570 0.920000076 0.297745705
v 0.343835597 0.000000000 0.306963697
v 0.297745705 0.000000000 0.353053689
v 0.297745705 0.920000076 0.353053689
v 0.291827404 0.000000000 0.364669019
v 0.262235880 0.000000000 0.422745705
v 0.262235880 0.920000076 0.422745705
v 0.260196568 0.000000000 0.435621414
v 0.250000000 0.000000000 0.500000000
v 0.250000000 0.920000076 0.500000000
v 0.252039312 0.000000000 0.512875709
v 0.262235880 0.000000000 0.577254295
v 0.262235880 0.920000076 0.577254295
v 0.268154181 0.000000000 0.588869625
v 0.297745705 0.000000000 0.646946311
v 0.297745705 0.920000076 0.646946311
v 0.306963677 0.000000000 0.656164303
v 0.353053570 0.000000000 0.702254295
v 0.353053570 0.920000076 0.702254295
v 0.364668919 0.000000000 0.708172596
v 0.422745705 0.000000000 0.737764120
v 0.422745705 0.920000076 0.737764120
v 0.435621414 0.000000000 0.739803432
v 0.500000000 0.000000000 0.750000000
v 0.500000000 0.920000076 0.750000000
v 0.512875709 0.000000000 0.747960688
v 0.577254295 0.000000000 0.737764120
v 0.577254295 0.920000076 0.737764120
v 0.588869645 0.000000000 0.731845819
v 0.646946430 0.000000000 0.702254295
v 0.646946430 0.920000076 0.702254295
v 0.656164403 0.000000000 0.693036303
v 0.702254295 0.000000000 0.646946311
v 0.702254295 0.920000076 0.646946311
v 0.708172596 0.000000000 0.635330981
v 0.737764120 0.000000000 0.577254295
v 0.737764120 0.920000076 0.577254295
v 0.739803432 0.000000000 0.564378586
v 0.750000000 0.000000000 0.500000000
v 0.750000000 0.920000076 0.500000000
v 0.747960688 0.000000000 0.487124291
v 0.737764120 0.000000000 0.422745705
v 0.737764120 0.920000076 0.422745705
v 0.731845819 0.000000000 0.411130375
v 0.702254295 0.000000000 0.353053689
v 0.702254295 0.920000076 0.353053689
v 0.693036323 0.000000000 0.343835697
v 0.646946430 0.000000000 0.297745705
v 0.646946430 0.920000076 0.297745705
v 0.635331081 0.000000000 0.291827404
v 0.577254295 0.000000000 0.262235880
v 0.577254295 0.920000076 0.262235880
v 0.564378586 0.000000000 0.260196568
v 0.436651468 0.920000076 0.305033445
v 0.500000000 0.920000076 0.294999957
v 0.379503965 0.920000076 0.334151506
v 0.334151506 0.920000076 0.379503965
v 0.305033445 0.920000076 0.436651468
v 0.295000076 0.920000076 0.500000000
v 0.305033445 0.920000076 0.563348532
v 0.334151506 0.920000076 0.620496035
v 0.379503965 0.920000076 0.665848494
v 0.436651468 0.920000076 0.694966555
v 0.500000000 0.920000076 0.705000043
v 0.563348532 0.920000076 0.694966555
v 0.620496035 0.920000076 0.665848494
v 0.665848494 0.920000076 0.620496035
v 0.694966555 0.920000076 0.563348532
v 0.704999924 0.920000076 0.500000000
v 0.694966555 0.920000076 0.436651468
v 0.665848494 0.920000076 0.379503965
v 0.620496035 0.920000076 0.334151506
v 0.563348532 0.920000076 0.305033445
v 0.447209551 0.000000000 0.303361198
v 0.436651468 0.000000000 0.305033445
v 0.500000000 0.000000000 0.294999957
v 0.389028544 0.000000000 0.329298499
v 0.379503965 0.000000000 0.334151506
v 0.341710246 0.000000000 0.371945226
v 0.334151506 0.000000000 0.379503965
v 0.309886453 0.000000000 0.427126890
v 0.305033445 0.000000000 0.436651468
v 0.296672304 0.000000000 0.489441917
v 0.295000076 0.000000000 0.500000000
v 0.303361218 0.000000000 0.552790449
v 0.305033445 0.000000000 0.563348532
v 0.329298499 0.000000000 0.610971456
v 0.334151506 0.000000000 0.620496035
v 0.371945226 0.000000000 0.658289754
v 0.379503965 0.000000000 0.665848494
v 0.427126890 0.000000000 0.690113547
v 0.436651468 0.000000000 0.694966555
v 0.489441917 0.000000000 0.703327796
v 0.500000000 0.000000000 0.705000043
v 0.552790449 0.000000000 0.696638802
v 0.563348532 0.000000000 0.694966555
v 0.610971456 0.000000000 0.670701501
v 0.620496035 0.000000000 0.665848494
v 0.658289754 0.000000000 0.628054774
v 0.665848494 0.000000000 0.620496035
v 0.690113547 0.000000000 0.572873110
v 0.694966555 0.000000000 0.563348532
v 0.703327696 0.000000000 0.510558083
v 0.704999924 0.000000000 0.500000000
v 0.696638782 0.000000000 0.447209551
v 0.694966555 0.000000000 0.436651468
v 0.670701501 0.000000000 0.389028544
v 0.665848494 0.000000000 0.379503965
v 0.628054774 0.000000000 0.341710246
v 0.620496035 0.000000000 0.334151506
v 0.572873110 0.000000000 0.309886453
v 0.563348532 0.000000000 0.305033445
v 0.510558083 0.000000000 0.296672204
v 0.500000000 0.880000114 0.090000033
v 0.373302937 0.880000114 0.110066891
v 0.373302937 0.974999905 0.110066891
v 0.500000000 0.974999905 0.090000033
v 0.259007931 0.880000114 0.168303013
v 0.259007931 0.974999905 0.168303013
v 0.168303013 0.880000114 0.259008050
v 0.168303013 0.974999905 0.259008050
v 0.110066891 0.880000114 0.373303056
v 0.110066891 0.974999905 0.373303056
v 0.089999914 0.880000114 0.500000000
v 0.089999914 0.974999905 0.500000000
v 0.110066891 0.880000114 0.626696944
v 0.110066891 0.974999905 0.626696944
v 0.168303013 0.880000114 0.740991950
v 0.168303013 0.974999905 0.740991950
v 0.259007931 0.880000114 0.831696987
v 0.259007931 0.974999905 0.831696987
v 0.373302937 0.880000114 0.889933109
v 0.373302937 0.974999905 0.889933109
v 0.500000000 0.880000114 0.909999967
v 0.500000000 0.974999905 0.909999967
v 0.626697063 0.880000114 0.889933109
v 0.626697063 0.974999905 0.889933109
v 0.740992069 0.880000114 0.831696987
v 0.740992069 0.974999905 0.831696987
v 0.831696987 0.880000114 0.740991950
v 0.831696987 0.974999905 0.740991950
v 0.889933109 0.880000114 0.626696944
v 0.889933109 0.974999905 0.626696944
v 0.910000086 0.880000114 0.500000000
v 0.910000086 0.974999905 0.500000000
v 0.889933109 0.880000114 0.373303056
v 0.889933109 0.974999905 0.373303056
v 0.831696987 0.880000114 0.259008050
v 0.831696987 0.974999905 0.259008050
v 0.740992069 0.880000114 0.168303013
v 0.740992069 0.974999905 0.168303013
v 0.626697063 0.880000114 0.110066891
v 0.626697063 0.974999905 0.110066891
v 0.436651468 0.974999905 0.305033445
v 0.500000000 0.974999905 0.294999957
v 0.379503965 0.974999905 0.334151506
v 0.334151506 0.974999905 0.379503965
v 0.305033445 0.974999905 0.436651468
v 0.295000076 0.974999905 0.500000000
v 0.305033445 0.974999905 0.563348532
v 0.334151506 0.974999905 0.620496035
v 0.379503965 0.974999905 0.665848494
v 0.436651468 0.974999905 0.694966555
v 0.500000000 0.974999905 0.705000043
v 0.563348532 0.974999905 0.694966555
v 0.620496035 0.974999905 0.665848494
v 0.665848494 0.974999905 0.620496035
v 0.694966555 0.974999905 0.563348532
v 0.704999924 0.974999905 0.500000000
v 0.694966555 0.974999905 0.436651468
v 0.665848494 0.974999905 0.379503965
v 0.620496035 0.974999905 0.334151506
v 0.563348532 0.974999905 0.305033445
v 0.436651468 0.880000114 0.305033445
v 0.500000000 0.880000114 0.294999957
v 0.379503965 0.880000114 0.334151506
v 0.334151506 0.880000114 0.379503965
v 0.305033445 0.880000114 0.436651468
v 0.295000076 0.880000114 0.500000000
v 0.305033445 0.880000114 0.563348532
v 0.334151506 0.880000114 0.620496035
v 0.379503965 0.880000114 0.665848494
v 0.436651468 0.880000114 0.694966555
v 0.500000000 0.880000114 0.705000043
v 0.563348532 0.880000114 0.694966555
v 0.620496035 0.880000114 0.665848494
v 0.665848494 0.880000114 0.620496035
v 0.694966555 0.880000114 0.563348532
v 0.704999924 0.880000114 0.500000000
v 0.694966555 0.880000114 0.436651468
v 0.665848494 0.880000114 0.379503965
v 0.620496035 0.880000114 0.334151506
v 0.563348532 0.880000114 0.305033445
v 0.500000000 0.974999905 0.118700027
v 0.382171869 0.974999905 0.137362123
v 0.382171869 1.000000000 0.137362123
v 0.500000000 1.000000000 0.118700027
v 0.275877476 0.974999905 0.191521883
v 0.275877476 1.000000000 0.191521883
v 0.191521883 0.974999905 0.275877476
v 0.191521883 1.000000000 0.275877476
v 0.137362242 0.974999905 0.382171869
v 0.137362242 1.000000000 0.382171869
v 0.118700027 0.974999905 0.500000000
v 0.118700027 1.000000000 0.500000000
v 0.137362242 0.974999905 0.617828131
v 0.137362242 1.000000000 0.617828131
v 0.191521883 0.974999905 0.724122524
v 0.191521883 1.000000000 0.724122524
v 0.275877476 0.974999905 0.808478117
v 0.275877476 1.000000000 0.808478117
v 0.382171869 0.974999905 0.862637877
v 0.382171869 1.000000000 0.862637877
v 0.500000000 0.974999905 0.881299973
v 0.500000000 1.000000000 0.881299973
v 0.617828131 0.974999905 0.862637877
v 0.617828131 1.000000000 0.862637877
v 0.724122524 0.974999905 0.808478117
v 0.724122524 1.000000000 0.808478117
v 0.808478117 0.974999905 0.724122524
v 0.808478117 1.000000000 0.724122524
v 0.862637758 0.974999905 0.617828131
v 0.862637758 1.000000000 0.617828131
v 0.881299973 0.974999905 0.500000000
v 0.881299973 1.000000000 0.500000000
v 0.862637758 0.974999905 0.382171869
v 0.862637758 1.000000000 0.382171869
v 0.808478117 0.974999905 0.275877476
v 0.808478117 1.000000000 0.275877476
v 0.724122524 0.974999905 0.191521883
v 0.724122524 1.000000000 0.191521883
v 0.617828131 0.974999905 0.137362123
v 0.617828131 1.000000000 0.137362123
v 0.436651468 1.000000000 0.305033445
v 0.500000000 1.000000000 0.294999957
v 0.379503965 1.000000000 0.334151506
v 0.334151506 1.000000000 0.379503965
v 0.305033445 1.000000000 0.436651468
v 0.295000076 1.000000000 0.500000000
v 0.305033445 1.000000000 0.563348532
v 0.334151506 1.000000000 0.620496035
v 0.379503965 1.000000000 0.665848494
v 0.436651468 1.000000000 0.694966555
v 0.500000000 1.000000000 0.705000043
v 0.563348532 1.000000000 0.694966555
v 0.620496035 1.000000000 0.665848494
v 0.665848494 1.000000000 0.620496035
v 0.694966555 1.000000000 0.563348532
v 0.704999924 1.000000000 0.500000000
v 0.694966555 1.000000000 0.436651468
v 0.665848494 1.000000000 0.379503965
v 0.620496035 1.000000000 0.334151506
v 0.563348532 1.000000000 0.305033445
v 0.500000000 0.859999895 0.141899943
v 0.522516727 0.859999895 0.154899955
v 0.522516727 0.859999895 0.180899978
v 0.500000000 0.859999895 0.193899989
v 0.477483273 0.859999895 0.180899978
v 0.477483273 0.859999895 0.154899955
v 0.522516727 0.982000113 0.154899955
v 0.500000000 0.982000113 0.141899943
v 0.477483273 0.982000113 0.154899955
v 0.477483273 0.982000113 0.180899978
v 0.500000000 0.982000113 0.193899989
v 0.522516727 0.982000113 0.180899978
v 0.265169859 0.859999895 0.239169836
v 0.287686586 0.859999895 0.252169847
v 0.287686586 0.859999895 0.278169870
v 0.265169859 0.859999895 0.291169882
v 0.242653131 0.859999895 0.278169870
v 0.242653131 0.859999895 0.252169847
v 0.287686586 0.982000113 0.252169847
v 0.265169859 0.982000113 0.239169836
v 0.242653131 0.982000113 0.252169847
v 0.242653131 0.982000113 0.278169870
v 0.265169859 0.982000113 0.291169882
v 0.287686586 0.982000113 0.278169870
v 0.167900085 0.859999895 0.473999977
v 0.190416813 0.859999895 0.486999989
v 0.190416813 0.859999895 0.513000011
v 0.167900085 0.859999895 0.526000023
v 0.145383358 0.859999895 0.513000011
v 0.145383358 0.859999895 0.486999989
v 0.190416813 0.982000113 0.486999989
v 0.167900085 0.982000113 0.473999977
v 0.145383358 0.982000113 0.486999989
v 0.145383358 0.982000113 0.513000011
v 0.167900085 0.982000113 0.526000023
v 0.190416813 0.982000113 0.513000011
v 0.265169859 0.859999895 0.708830118
v 0.287686586 0.859999895 0.721830130
v 0.287686586 0.859999895 0.747830153
v 0.265169859 0.859999895 0.760830164
v 0.242653131 0.859999895 0.747830153
v 0.242653131 0.859999895 0.721830130
v 0.287686586 0.982000113 0.721830130
v 0.265169859 0.982000113 0.708830118
v 0.242653131 0.982000113 0.721830130
v 0.242653131 0.982000113 0.747830153
v 0.265169859 0.982000113 0.760830164
v 0.287686586 0.982000113 0.747830153
v 0.500000000 0.859999895 0.806100011
v 0.522516727 0.859999895 0.819100022
v 0.522516727 0.859999895 0.845100045
v 0.500000000 0.859999895 0.858100057
v 0.477483273 0.859999895 0.845100045
v 0.477483273 0.859999895 0.819100022
v 0.522516727 0.982000113 0.819100022
v 0.500000000 0.982000113 0.806100011
v 0.477483273 0.982000113 0.819100022
v 0.477483273 0.982000113 0.845100045
v 0.500000000 0.982000113 0.858100057
v 0.522516727 0.982000113 0.845100045
v 0.734830141 0.859999895 0.708830118
v 0.757346869 0.859999895 0.721830130
v 0.757346869 0.859999895 0.747830153
v 0.734830141 0.859999895 0.760830164
v 0.712313414 0.859999895 0.747830153
v 0.712313414 0.859999895 0.721830130
v 0.757346869 0.982000113 0.721830130
v 0.734830141 0.982000113 0.708830118
v 0.712313414 0.982000113 0.721830130
v 0.712313414 0.982000113 0.747830153
v 0.734830141 0.982000113 0.760830164
v 0.757346869 0.982000113 0.747830153
v 0.832099915 0.859999895 0.473999977
v 0.854616642 0.859999895 0.486999989
v 0.854616642 0.859999895 0.513000011
v 0.832099915 0.859999895 0.526000023
v 0.809583187 0.859999895 0.513000011
v 0.809583187 0.859999895 0.486999989
v 0.854616642 0.982000113 0.486999989
v 0.832099915 0.982000113 0.473999977
v 0.809583187 0.982000113 0.486999989
v 0.809583187 0.982000113 0.513000011
v 0.832099915 0.982000113 0.526000023
v 0.854616642 0.982000113 0.513000011
v 0.734830141 0.859999895 0.239169836
v 0.757346869 0.859999895 0.252169847
v 0.757346869 0.859999895 0.278169870
v 0.734830141 0.859999895 0.291169882
v 0.712313414 0.859999895 0.278169870
v 0.712313414 0.859999895 0.252169847
v 0.757346869 0.982000113 0.252169847
v 0.734830141 0.982000113 0.239169836
v 0.712313414 0.982000113 0.252169847
v 0.712313414 0.982000113 0.278169870
v 0.734830141 0.982000113 0.291169882
v 0.757346869 0.982000113 0.278169870
v 0.500000000 0.700000048 0.243000031
v 0.420582533 0.700000048 0.255578518
v 0.420582533 0.799999952 0.255578518
v 0.500000000 0.799999952 0.243000031
v 0.348939180 0.700000048 0.292082667
v 0.348939180 0.799999952 0.292082667
v 0.292082548 0.700000048 0.348939180
v 0.292082548 0.799999952 0.348939180
v 0.255578518 0.700000048 0.420582652
v 0.255578518 0.799999952 0.420582652
v 0.243000031 0.700000048 0.500000000
v 0.243000031 0.799999952 0.500000000
v 0.255578518 0.700000048 0.579417348
v 0.255578518 0.799999952 0.579417348
v 0.292082548 0.700000048 0.651060820
v 0.292082548 0.799999952 0.651060820
v 0.348939180 0.700000048 0.707917333
v 0.348939180 0.799999952 0.707917333
v 0.420582533 0.700000048 0.744421482
v 0.420582533 0.799999952 0.744421482
v 0.500000000 0.700000048 0.756999969
v 0.500000000 0.799999952 0.756999969
v 0.579417467 0.700000048 0.744421482
v 0.579417467 0.799999952 0.744421482
v 0.651060820 0.700000048 0.707917333
v 0.651060820 0.799999952 0.707917333
v 0.707917452 0.700000048 0.651060820
v 0.707917452 0.799999952 0.651060820
v 0.744421482 0.700000048 0.579417348
v 0.744421482 0.799999952 0.579417348
v 0.756999969 0.700000048 0.500000000
v 0.756999969 0.799999952 0.500000000
v 0.744421482 0.700000048 0.420582652
v 0.744421482 0.799999952 0.420582652
v 0.707917452 0.700000048 0.348939180
v 0.707917452 0.799999952 0.348939180
v 0.651060820 0.700000048 0.292082667
v 0.651060820 0.799999952 0.292082667
v 0.579417467 0.700000048 0.255578518
v 0.579417467 0.799999952 0.255578518
v 0.423054695 0.799999952 0.263186932
v 0.500000000 0.799999952 0.251000047
v 0.353641510 0.799999952 0.298554778
v 0.298554659 0.799999952 0.353641510
v 0.263186932 0.799999952 0.423054814
v 0.250999928 0.799999952 0.500000000
v 0.263186932 0.799999952 0.576945186
v 0.298554659 0.799999952 0.646358490
v 0.353641510 0.799999952 0.701445222
v 0.423054695 0.799999952 0.736813068
v 0.500000000 0.799999952 0.748999953
v 0.576945305 0.799999952 0.736813068
v 0.646358490 0.799999952 0.701445222
v 0.701445341 0.799999952 0.646358490
v 0.736813068 0.799999952 0.576945186
v 0.749000072 0.799999952 0.500000000
v 0.736813068 0.799999952 0.423054814
v 0.701445341 0.799999952 0.353641510
v 0.646358490 0.799999952 0.298554778
v 0.576945305 0.799999952 0.263186932
v 0.423054695 0.700000048 0.263186932
v 0.500000000 0.700000048 0.251000047
v 0.353641510 0.700000048 0.298554778
v 0.298554659 0.700000048 0.353641510
v 0.263186932 0.700000048 0.423054814
v 0.250999928 0.700000048 0.500000000
v 0.263186932 0.700000048 0.576945186
v 0.298554659 0.700000048 0.646358490
v 0.353641510 0.700000048 0.701445222
v 0.423054695 0.700000048 0.736813068
v 0.500000000 0.700000048 0.748999953
v 0.576945305 0.700000048 0.736813068
v 0.646358490 0.700000048 0.701445222
v 0.701445341 0.700000048 0.646358490
v 0.736813068 0.700000048 0.576945186
v 0.749000072 0.700000048 0.500000000
v 0.736813068 0.700000048 0.423054814
v 0.701445341 0.700000048 0.353641510
v 0.646358490 0.700000048 0.298554778
v 0.576945305 0.700000048 0.263186932
vt 0.713541678 0.097155886
vt 0.713541678 0.095052943
vt 0.736979187 0.095052943
vt 0.713541678 0.103190104
vt 0.736979187 0.103190104
vt 0.713541678 0.087322088
vt 0.713541678 0.084922858
vt 0.736979187 0.084922858
vt 0.713541678 0.076534392
vt 0.713541678 0.073931076
vt 0.736979187 0.073931076
vt 0.713541678 0.065207360
vt 0.713541678 0.062500000
vt 0.736979187 0.062500000
vt 0.713541678 0.053776287
vt 0.713541678 0.051068928
vt 0.736979187 0.051068928
vt 0.713541678 0.042680460
vt 0.713541678 0.040077142
vt 0.736979187 0.040077142
vt 0.713541678 0.032346286
vt 0.713541678 0.029947056
vt 0.736979187 0.029947056
vt 0.728710256 0.021809898
vt 0.713541678 0.023170907
vt 0.713541678 0.021809898
vt 0.736979187 0.021809898
vt 0.737359989 0.103190104
vt 0.741536438 0.095052943
vt 0.741536438 0.103190104
vt 0.741536438 0.084922858
vt 0.741536438 0.073931076
vt 0.741536438 0.062500000
vt 0.741536438 0.051068928
vt 0.741536438 0.040077142
vt 0.741536438 0.029947056
vt 0.741155636 0.021809898
vt 0.741536438 0.021809898
vt 0.721555866 0.103190087
vt 0.728190089 0.103857409
vt 0.728190091 0.104540928
vt 0.720052958 0.111218922
vt 0.714688243 0.103190090
vt 0.728190074 0.103190085
vt 0.728190092 0.103190104
vt 0.709922850 0.116633557
vt 0.705886722 0.106889524
vt 0.712807880 0.103190091
vt 0.698931098 0.119967885
vt 0.696873486 0.109623671
vt 0.687500000 0.121093750
vt 0.687500000 0.110546872
vt 0.676068902 0.119967885
vt 0.678126514 0.109623671
vt 0.665077150 0.116633557
vt 0.669113278 0.106889524
vt 0.661029570 0.103190090
vt 0.654947042 0.111218922
vt 0.660311757 0.103190090
vt 0.662192120 0.103190091
vt 0.654173092 0.103190090
vt 0.646809909 0.104540928
vt 0.646809908 0.103190104
vt 0.646809926 0.103190085
vt 0.712405497 0.103190090
vt 0.662594503 0.103190090
vt 0.706502011 0.103190095
vt 0.664529723 0.103190090
vt 0.701172263 0.103190096
vt 0.687244958 0.103190095
vt 0.661824278 0.101437896
vt 0.628906250 0.101437896
vt 0.628906250 0.095052943
vt 0.746093750 0.095052943
vt 0.746093750 0.101437896
vt 0.628906250 0.084922858
vt 0.746093750 0.084922858
vt 0.628906250 0.073931076
vt 0.746093750 0.073931076
vt 0.628906250 0.062500000
vt 0.746093750 0.062500000
vt 0.628906250 0.051068928
vt 0.746093750 0.051068928
vt 0.628906250 0.040077142
vt 0.746093750 0.040077142
vt 0.628906250 0.029947057
vt 0.746093750 0.029947057
vt 0.713175678 0.023562109
vt 0.628906250 0.023562109
vt 0.746093750 0.023562109
vt 0.648562122 0.105598579
vt 0.648562114 0.105978935
vt 0.665077150 0.116633564
vt 0.676068902 0.119967893
vt 0.698931098 0.119967893
vt 0.709922850 0.116633564
vt 0.726437882 0.105598576
vt 0.726437889 0.105978933
vt 0.648562123 0.104965154
vt 0.726437882 0.104965153
vt 0.667844140 0.101437890
vt 0.648562121 0.101437882
vt 0.726437883 0.101437882
vt 0.707155860 0.101437890
vt 0.726437908 0.104833969
vt 0.648562091 0.104833967
vt 0.726437908 0.101588417
vt 0.648562096 0.101663166
vt 0.711312435 0.101437898
vt 0.726437907 0.101437889
vt 0.648562097 0.101437900
vt 0.671198997 0.101437898
vt 0.937500000 0.003906250
vt 0.996093750 0.003906250
vt 0.996093750 0.121093750
vt 0.937500000 0.121093750
vt 0.966796875 0.003906250
vt 0.908203125 0.003906250
vt 0.908203125 0.121093750
vt 0.966796875 0.121093750
vt 0.878906250 0.003906250
vt 0.878906250 0.121093750
vt 0.996093750 0.062500000
vt 0.878906250 0.062500000
vt 0.500000000 0.500000000
vn 0.000000000 0.773010562 -0.634393151
vn 0.000000000 0.881921825 -0.471395688
vn 0.000000000 0.956940118 -0.290285394
vn 0.000000000 0.995184645 -0.098017967
vn 0.000000000 0.995184645 0.098017967
vn 0.000000000 0.956940118 0.290285394
vn 0.000000000 0.881921825 0.471395688
vn 0.000000000 0.773010562 0.634393151
vn 0.775504461 0.488034102 -0.400519097
vn 0.775504627 0.488033727 -0.400519231
vn 0.775504215 0.556794632 -0.297612080
vn 0.775504445 0.556794161 -0.297612362
vn 0.775504250 0.604156820 -0.183269462
vn 0.775504220 0.604156872 -0.183269415
vn 0.775504953 0.628301349 -0.061882809
vn 0.775504231 0.628302377 -0.061881422
vn 0.775504303 0.628302145 0.061882887
vn 0.775505025 0.628301407 0.061881327
vn 0.775504223 0.604156851 0.183269471
vn 0.775504253 0.604156834 0.183269403
vn 0.775504422 0.556794408 0.297611960
vn 0.775504192 0.556794434 0.297612509
vn 0.775504611 0.488033960 0.400518980
vn 0.775504444 0.488033901 0.400519374
vn 1.000000000 0.000000000 0.000000000
vn 0.000000000 0.773011702 -0.634391763
vn 0.000000000 0.881920505 -0.471398157
vn 0.000000000 0.956940674 -0.290283562
vn 0.000000000 0.995184681 -0.098017605
vn 0.000000000 0.995184681 0.098017605
vn 0.000000000 0.956940674 0.290283562
vn 0.000000000 0.881920505 0.471398157
vn 0.000000000 0.773011865 0.634391565
vn -1.000000000 0.000000000 0.000000000
vn 0.000000000 0.499999757 0.866025544
vn 0.000000000 1.000000000 0.000000000
vn 0.000000000 0.499999757 -0.866025544
vn 0.000000000 -0.499999757 -0.866025544
vn 0.000000000 -1.000000000 0.000000000
vn 0.000000000 -0.499999757 0.866025544
vn -0.156434485 0.000000000 -0.987688338
vn -0.453989570 0.000000000 -0.891006998
vn -0.707107543 0.000000000 -0.707106019
vn -0.891006684 0.000000000 -0.453990187
vn -0.987688338 0.000000000 -0.156434485
vn -0.987688338 0.000000000 0.156434485
vn -0.891006684 0.000000000 0.453990187
vn -0.707107543 0.000000000 0.707106019
vn -0.453989570 0.000000000 0.891006998
vn -0.156434485 0.000000000 0.987688338
vn 0.156434485 0.000000000 0.987688338
vn 0.453989570 0.000000000 0.891006998
vn 0.707107543 0.000000000 0.707106019
vn 0.891006684 0.000000000 0.453990187
vn 0.987688338 0.000000000 0.156434485
vn 0.987688338 0.000000000 -0.156434485
vn 0.891006684 0.000000000 -0.453990187
vn 0.707107543 0.000000000 -0.707106019
vn 0.453989570 0.000000000 -0.891006998
vn 0.156434485 0.000000000 -0.987688338
vn 0.156435477 0.000000000 0.987688180
vn 0.453989930 0.000000000 0.891006815
vn 0.707106781 0.000000000 0.707106781
vn 0.891006815 0.000000000 0.453989930
vn 0.987688467 0.000000000 0.156433664
vn 0.987688467 0.000000000 -0.156433664
vn 0.891006815 0.000000000 -0.453989930
vn 0.707106781 0.000000000 -0.707106781
vn 0.453989930 0.000000000 -0.891006815
vn 0.156435477 0.000000000 -0.987688180
vn -0.156435477 0.000000000 -0.987688180
vn -0.453989930 0.000000000 -0.891006815
vn -0.707106781 0.000000000 -0.707106781
vn -0.891006815 0.000000000 -0.453989930
vn -0.987688467 0.000000000 -0.156433664
vn -0.987688467 0.000000000 0.156433664
vn -0.891006815 0.000000000 0.453989930
vn -0.707106781 0.000000000 0.707106781
vn -0.453989930 0.000000000 0.891006815
vn -0.156435477 0.000000000 0.987688180
vn -0.156434570 0.000000000 -0.987688324
vn -0.707107246 0.000000000 -0.707106317
vn -0.987688158 0.000000000 -0.156435621
vn -0.987688158 0.000000000 0.156435621
vn -0.707107246 0.000000000 0.707106317
vn -0.156434570 0.000000000 0.987688324
vn 0.156434570 0.000000000 0.987688324
vn 0.707107246 0.000000000 0.707106317
vn 0.987688158 0.000000000 0.156435621
vn 0.987688158 0.000000000 -0.156435621
vn 0.707107246 0.000000000 -0.707106317
vn 0.156434570 0.000000000 -0.987688324
vn -0.156434077 0.000000000 -0.987688402
vn -0.453990911 0.000000000 -0.891006315
vn -0.891006719 0.000000000 -0.453990118
vn -0.987688248 0.000000000 -0.156435052
vn -0.987688248 0.000000000 0.156435052
vn -0.891006719 0.000000000 0.453990118
vn -0.453990911 0.000000000 0.891006315
vn -0.156434077 0.000000000 0.987688402
vn 0.156434077 0.000000000 0.987688402
vn 0.453990911 0.000000000 0.891006315
vn 0.891006719 0.000000000 0.453990118
vn 0.987688248 0.000000000 0.156435052
vn 0.987688248 0.000000000 -0.156435052
vn 0.891006719 0.000000000 -0.453990118
vn 0.453990911 0.000000000 -0.891006315
vn 0.156434077 0.000000000 -0.987688402
vn -0.499999215 0.000000000 -0.866025857
vn -0.499999215 0.000000000 0.866025857
vn 0.499999215 0.000000000 0.866025857
vn 0.499999215 0.000000000 -0.866025857
vn -0.156434420 0.000000000 -0.987688348
vn -0.453990875 0.000000000 -0.891006333
vn -0.707106040 0.000000000 -0.707107522
vn -0.891007238 0.000000000 -0.453989099
vn -0.987688311 0.000000000 -0.156434649
vn -0.987688311 0.000000000 0.156434649
vn -0.891007238 0.000000000 0.453989099
vn -0.707106040 0.000000000 0.707107522
vn -0.453990875 0.000000000 0.891006333
vn -0.156434420 0.000000000 0.987688348
vn 0.156434420 0.000000000 0.987688348
vn 0.453990875 0.000000000 0.891006333
vn 0.707106040 0.000000000 0.707107522
vn 0.891007238 0.000000000 0.453989099
vn 0.987688311 0.000000000 0.156434649
vn 0.987688311 0.000000000 -0.156434649
vn 0.891007238 0.000000000 -0.453989099
vn 0.707106040 0.000000000 -0.707107522
vn 0.453990875 0.000000000 -0.891006333
vn 0.156434420 0.000000000 -0.987688348
vn 0.156433787 0.000000000 0.987688448
vn 0.453991133 0.000000000 0.891006202
vn 0.707106016 0.000000000 0.707107546
vn 0.891007136 0.000000000 0.453989299
vn 0.987688174 0.000000000 0.156435516
vn 0.987688174 0.000000000 -0.156435516
vn 0.891007136 0.000000000 -0.453989299
vn 0.707106016 0.000000000 -0.707107546
vn 0.453991133 0.000000000 -0.891006202
vn 0.156433787 0.000000000 -0.987688448
vn -0.156433787 0.000000000 -0.987688448
vn -0.453991133 0.000000000 -0.891006202
vn -0.707106016 0.000000000 -0.707107546
vn -0.891007136 0.000000000 -0.453989299
vn -0.987688174 0.000000000 -0.156435516
vn -0.987688174 0.000000000 0.156435516
vn -0.891007136 0.000000000 0.453989299
vn -0.707106016 0.000000000 0.707107546
vn -0.453991133 0.000000000 0.891006202
vn -0.156433787 0.000000000 0.987688448
usemtl mat_0
f 1/1/1 2/2/1 3/3/1
f 4/4/1 1/1/1 3/3/1 5/5/1
f 6/6/2 7/7/2 8/8/2
f 2/2/2 6/6/2 8/8/2 3/3/2
f 9/9/3 10/10/3 11/11/3
f 7/7/3 9/9/3 11/11/3 8/8/3
f 12/12/4 13/13/4 14/14/4
f 10/10/4 12/12/4 14/14/4 11/11/4
f 15/15/5 16/16/5 17/17/5
f 13/13/5 15/15/5 17/17/5 14/14/5
f 18/18/6 19/19/6 20/20/6
f 16/16/6 18/18/6 20/20/6 17/17/6
f 21/21/7 22/22/7 23/23/7
f 19/19/7 21/21/7 23/23/7 20/20/7
f 24/24/8 25/25/8 26/26/8
f 22/22/8 25/25/8 24/24/8
f 22/22/8 24/24/8 27/27/8
f 22/22/8 27/27/8 23/23/8
f 28/28/1 5/5/1 3/3/1 29/29/1
f 28/28/1 29/29/1 30/30/1
f 3/3/2 8/8/2 31/31/2
f 3/3/2 31/31/2 29/29/2
f 8/8/3 11/11/3 32/32/3
f 8/8/3 32/32/3 31/31/3
f 11/11/4 14/14/4 33/33/4
f 11/11/4 33/33/4 32/32/4
f 14/14/5 17/17/5 34/34/5
f 14/14/5 34/34/5 33/33/5
f 17/17/6 20/20/6 35/35/6
f 17/17/6 35/35/6 34/34/6
f 20/20/7 23/23/7 36/36/7
f 20/20/7 36/36/7 35/35/7
f 37/37/8 23/23/8 27/27/8
f 23/23/8 37/37/8 38/38/8 36/36/8
f 39/39/9 40/40/9 30/41/9
f 39/39/9 30/41/9 29/42/9
f 39/39/9 29/42/9 41/43/9
f 42/44/10 43/45/10 40/40/10 39/39/10
f 29/42/11 31/46/11 44/47/11
f 41/43/12 29/42/12 44/47/12 45/48/12
f 31/46/13 32/49/13 46/50/13
f 31/46/14 46/50/14 44/47/14
f 32/49/15 33/51/15 47/52/15
f 32/49/16 47/52/16 46/50/16
f 33/51/17 34/53/17 48/54/17
f 33/51/18 48/54/18 47/52/18
f 34/53/19 35/55/19 49/56/19
f 34/53/20 49/56/20 48/54/20
f 50/57/21 35/55/21 36/58/21 51/59/21
f 35/55/22 50/57/22 52/60/22 49/56/22
f 53/61/23 36/58/23 38/62/23
f 53/61/23 38/62/23 54/63/23
f 53/61/23 54/63/23 55/64/23
f 51/59/24 36/58/24 53/61/24
f 56/65/25 45/48/25 44/47/25 46/50/25
f 46/50/25 47/52/25 48/54/25
f 57/66/25 48/54/25 49/56/25 52/60/25
f 58/67/25 56/65/25 46/50/25
f 59/68/25 46/50/25 48/54/25 57/66/25
f 60/69/25 58/67/25 46/50/25
f 61/70/25 46/50/25 59/68/25
f 60/69/25 46/50/25 61/70/25
f 62/71/26 63/72/26 64/73/26 65/74/26
f 62/71/26 65/74/26 66/75/26
f 64/73/27 67/76/27 68/77/27
f 64/73/27 68/77/27 65/74/27
f 67/76/28 69/78/28 70/79/28
f 67/76/28 70/79/28 68/77/28
f 69/78/29 71/80/29 72/81/29
f 69/78/29 72/81/29 70/79/29
f 71/80/30 73/82/30 74/83/30
f 71/80/30 74/83/30 72/81/30
f 73/82/31 75/84/31 76/85/31
f 73/82/31 76/85/31 74/83/31
f 75/84/32 77/86/32 78/87/32
f 75/84/32 78/87/32 76/85/32
f 79/88/33 77/86/33 80/89/33
f 77/86/33 79/88/33 81/90/33 78/87/33
f 82/91/34 80/92/34 77/58/34 75/93/34
f 75/93/34 73/94/34 71/51/34
f 71/51/34 69/95/34 67/96/34
f 83/97/34 67/96/34 64/42/34 63/98/34
f 84/99/34 82/91/34 75/93/34 71/51/34
f 85/100/34 71/51/34 67/96/34 83/97/34
f 86/101/34 87/102/34 84/99/34 71/51/34
f 88/103/34 89/104/34 71/51/34 85/100/34
f 86/101/34 71/51/34 89/104/34
f 90/105/25 66/98/25 65/42/25
f 65/42/25 68/96/25 70/95/25
f 70/95/25 72/51/25 74/94/25
f 74/94/25 76/93/25 78/58/25
f 91/106/25 78/58/25 81/92/25
f 92/107/25 90/105/25 65/42/25 70/95/25
f 70/95/25 74/94/25 78/58/25
f 93/108/25 78/58/25 91/106/25
f 94/109/25 95/110/25 92/107/25 70/95/25
f 96/111/25 97/112/25 70/95/25
f 96/111/25 70/95/25 78/58/25
f 96/111/25 78/58/25 93/108/25
f 94/109/25 70/95/25 97/112/25
usemtl mat_1
f 98/113/35 99/114/35 100/115/35
f 98/113/35 100/115/35 101/116/35
f 99/117/36 102/118/36 103/119/36
f 99/117/36 103/119/36 100/120/36
f 102/114/37 104/113/37 105/116/37
f 102/114/37 105/116/37 103/115/37
f 104/113/38 106/121/38 107/122/38
f 104/113/38 107/122/38 105/116/38
f 106/118/39 108/117/39 109/120/39
f 106/118/39 109/120/39 107/119/39
f 108/121/40 98/113/40 101/116/40
f 108/121/40 101/116/40 109/122/40
f 98/123/25 108/117/25 106/118/25
f 106/118/25 104/124/25 102/119/25
f 102/119/25 99/120/25 98/123/25
f 106/118/25 102/119/25 98/123/25
f 109/117/34 101/123/34 100/120/34
f 100/120/34 103/119/34 105/124/34
f 105/124/34 107/118/34 109/117/34
f 100/120/34 105/124/34 109/117/34
f 110/113/35 111/114/35 112/115/35
f 110/113/35 112/115/35 113/116/35
f 111/117/36 114/118/36 115/119/36
f 111/117/36 115/119/36 112/120/36
f 114/114/37 116/113/37 117/116/37
f 114/114/37 117/116/37 115/115/37
f 116/113/38 118/121/38 119/122/38
f 116/113/38 119/122/38 117/116/38
f 118/118/39 120/117/39 121/120/39
f 118/118/39 121/120/39 119/119/39
f 120/121/40 110/113/40 113/116/40
f 120/121/40 113/116/40 121/122/40
f 110/123/25 120/117/25 118/118/25
f 118/118/25 116/124/25 114/119/25
f 114/119/25 111/120/25 110/123/25
f 118/118/25 114/119/25 110/123/25
f 121/117/34 113/123/34 112/120/34
f 112/120/34 115/119/34 117/124/34
f 117/124/34 119/118/34 121/117/34
f 112/120/34 117/124/34 121/117/34
f 122/113/35 123/114/35 124/115/35
f 122/113/35 124/115/35 125/116/35
f 123/117/36 126/118/36 127/119/36
f 123/117/36 127/119/36 124/120/36
f 126/114/37 128/113/37 129/116/37
f 126/114/37 129/116/37 127/115/37
f 128/113/38 130/121/38 131/122/38
f 128/113/38 131/122/38 129/116/38
f 130/118/39 132/117/39 133/120/39
f 130/118/39 133/120/39 131/119/39
f 132/121/40 122/113/40 125/116/40
f 132/121/40 125/116/40 133/122/40
f 122/123/25 132/117/25 130/118/25
f 130/118/25 128/124/25 126/119/25
f 126/119/25 123/120/25 122/123/25
f 130/118/25 126/119/25 122/123/25
f 133/117/34 125/123/34 124/120/34
f 124/120/34 127/119/34 129/124/34
f 129/124/34 131/118/34 133/117/34
f 124/120/34 129/124/34 133/117/34
f 134/113/35 135/114/35 136/115/35
f 134/113/35 136/115/35 137/116/35
f 135/117/36 138/118/36 139/119/36
f 135/117/36 139/119/36 136/120/36
f 138/114/37 140/113/37 141/116/37
f 138/114/37 141/116/37 139/115/37
f 140/113/38 142/121/38 143/122/38
f 140/113/38 143/122/38 141/116/38
f 142/118/39 144/117/39 145/120/39
f 142/118/39 145/120/39 143/119/39
f 144/121/40 134/113/40 137/116/40
f 144/121/40 137/116/40 145/122/40
f 134/123/25 144/117/25 142/118/25
f 142/118/25 140/124/25 138/119/25
f 138/119/25 135/120/25 134/123/25
f 142/118/25 138/119/25 134/123/25
f 145/117/34 137/123/34 136/120/34
f 136/120/34 139/119/34 141/124/34
f 141/124/34 143/118/34 145/117/34
f 136/120/34 141/124/34 145/117/34
usemtl mat_10
f 146/125/41 147/125/41 148/125/41
f 149/125/41 146/125/41 148/125/41 150/125/41
f 151/125/42 152/125/42 153/125/42
f 147/125/42 151/125/42 153/125/42 148/125/42
f 154/125/43 155/125/43 156/125/43
f 152/125/43 154/125/43 156/125/43 153/125/43
f 157/125/44 158/125/44 159/125/44
f 155/125/44 157/125/44 159/125/44 156/125/44
f 160/125/45 161/125/45 162/125/45
f 158/125/45 160/125/45 162/125/45 159/125/45
f 163/125/46 164/125/46 165/125/46
f 161/125/46 163/125/46 165/125/46 162/125/46
f 166/125/47 167/125/47 168/125/47
f 164/125/47 166/125/47 168/125/47 165/125/47
f 169/125/48 170/125/48 171/125/48
f 167/125/48 169/125/48 171/125/48 168/125/48
f 172/125/49 173/125/49 174/125/49
f 170/125/49 172/125/49 174/125/49 171/125/49
f 175/125/50 176/125/50 177/125/50
f 173/125/50 175/125/50 177/125/50 174/125/50
f 178/125/51 179/125/51 180/125/51
f 176/125/51 178/125/51 180/125/51 177/125/51
f 181/125/52 182/125/52 183/125/52
f 179/125/52 181/125/52 183/125/52 180/125/52
f 184/125/53 185/125/53 186/125/53
f 182/125/53 184/125/53 186/125/53 183/125/53
f 187/125/54 188/125/54 189/125/54
f 185/125/54 187/125/54 189/125/54 186/125/54
f 190/125/55 191/125/55 192/125/55
f 188/125/55 190/125/55 192/125/55 189/125/55
f 193/125/56 194/125/56 195/125/56
f 191/125/56 193/125/56 195/125/56 192/125/56
f 196/125/57 197/125/57 198/125/57
f 194/125/57 196/125/57 198/125/57 195/125/57
f 199/125/58 200/125/58 201/125/58
f 197/125/58 199/125/58 201/125/58 198/125/58
f 202/125/59 203/125/59 204/125/59
f 200/125/59 202/125/59 204/125/59 201/125/59
f 205/125/60 149/125/60 150/125/60
f 203/125/60 205/125/60 150/125/60 204/125/60
f 150/125/36 148/125/36 206/125/36
f 150/125/36 206/125/36 207/125/36
f 148/125/36 153/125/36 208/125/36
f 148/125/36 208/125/36 206/125/36
f 153/125/36 156/125/36 209/125/36
f 153/125/36 209/125/36 208/125/36
f 156/125/36 159/125/36 210/125/36
f 156/125/36 210/125/36 209/125/36
f 159/125/36 162/125/36 211/125/36
f 159/125/36 211/125/36 210/125/36
f 162/125/36 165/125/36 212/125/36
f 162/125/36 212/125/36 211/125/36
f 165/125/36 168/125/36 213/125/36
f 165/125/36 213/125/36 212/125/36
f 168/125/36 171/125/36 214/125/36
f 168/125/36 214/125/36 213/125/36
f 171/125/36 174/125/36 215/125/36
f 171/125/36 215/125/36 214/125/36
f 174/125/36 177/125/36 216/125/36
f 174/125/36 216/125/36 215/125/36
f 177/125/36 180/125/36 217/125/36
f 177/125/36 217/125/36 216/125/36
f 180/125/36 183/125/36 218/125/36
f 180/125/36 218/125/36 217/125/36
f 183/125/36 186/125/36 219/125/36
f 183/125/36 219/125/36 218/125/36
f 186/125/36 189/125/36 220/125/36
f 186/125/36 220/125/36 219/125/36
f 189/125/36 192/125/36 221/125/36
f 189/125/36 221/125/36 220/125/36
f 192/125/36 195/125/36 222/125/36
f 192/125/36 222/125/36 221/125/36
f 195/125/36 198/125/36 223/125/36
f 195/125/36 223/125/36 222/125/36
f 198/125/36 201/125/36 224/125/36
f 198/125/36 224/125/36 223/125/36
f 201/125/36 204/125/36 225/125/36
f 201/125/36 225/125/36 224/125/36
f 204/125/36 150/125/36 207/125/36
f 204/125/36 207/125/36 225/125/36
f 226/125/61 207/125/61 206/125/61 227/125/61
f 228/125/61 207/125/61 226/125/61
f 229/125/62 206/125/62 208/125/62 230/125/62
f 227/125/62 206/125/62 229/125/62
f 231/125/63 208/125/63 209/125/63 232/125/63
f 230/125/63 208/125/63 231/125/63
f 233/125/64 209/125/64 210/125/64 234/125/64
f 232/125/64 209/125/64 233/125/64
f 235/125/65 210/125/65 211/125/65 236/125/65
f 234/125/65 210/125/65 235/125/65
f 237/125/66 211/125/66 212/125/66 238/125/66
f 236/125/66 211/125/66 237/125/66
f 239/125/67 212/125/67 213/125/67 240/125/67
f 238/125/67 212/125/67 239/125/67
f 241/125/68 213/125/68 214/125/68 242/125/68
f 240/125/68 213/125/68 241/125/68
f 243/125/69 214/125/69 215/125/69 244/125/69
f 242/125/69 214/125/69 243/125/69
f 245/125/70 215/125/70 216/125/70 246/125/70
f 244/125/70 215/125/70 245/125/70
f 247/125/71 216/125/71 217/125/71 248/125/71
f 246/125/71 216/125/71 247/125/71
f 249/125/72 217/125/72 218/125/72 250/125/72
f 248/125/72 217/125/72 249/125/72
f 251/125/73 218/125/73 219/125/73 252/125/73
f 250/125/73 218/125/73 251/125/73
f 253/125/74 219/125/74 220/125/74 254/125/74
f 252/125/74 219/125/74 253/125/74
f 255/125/75 220/125/75 221/125/75 256/125/75
f 254/125/75 220/125/75 255/125/75
f 257/125/76 221/125/76 222/125/76 258/125/76
f 256/125/76 221/125/76 257/125/76
f 259/125/77 222/125/77 223/125/77 260/125/77
f 258/125/77 222/125/77 259/125/77
f 261/125/78 223/125/78 224/125/78 262/125/78
f 260/125/78 223/125/78 261/125/78
f 263/125/79 224/125/79 225/125/79 264/125/79
f 262/125/79 224/125/79 263/125/79
f 265/125/80 225/125/80 207/125/80 228/125/80
f 264/125/80 225/125/80 265/125/80
usemtl mat_11
f 266/125/81 267/125/81 268/125/81
f 266/125/81 268/125/81 269/125/81
f 267/125/72 270/125/72 271/125/72
f 267/125/72 271/125/72 268/125/72
f 270/125/82 272/125/82 273/125/82
f 270/125/82 273/125/82 271/125/82
f 272/125/74 274/125/74 275/125/74
f 272/125/74 275/125/74 273/125/74
f 274/125/83 276/125/83 277/125/83
f 274/125/83 277/125/83 275/125/83
f 276/125/84 278/125/84 279/125/84
f 276/125/84 279/125/84 277/125/84
f 278/125/77 280/125/77 281/125/77
f 278/125/77 281/125/77 279/125/77
f 280/125/85 282/125/85 283/125/85
f 280/125/85 283/125/85 281/125/85
f 282/125/79 284/125/79 285/125/79
f 282/125/79 285/125/79 283/125/79
f 284/125/86 286/125/86 287/125/86
f 284/125/86 287/125/86 285/125/86
f 286/125/87 288/125/87 289/125/87
f 286/125/87 289/125/87 287/125/87
f 288/125/62 290/125/62 291/125/62
f 288/125/62 291/125/62 289/125/62
f 290/125/88 292/125/88 293/125/88
f 290/125/88 293/125/88 291/125/88
f 292/125/64 294/125/64 295/125/64
f 292/125/64 295/125/64 293/125/64
f 294/125/89 296/125/89 297/125/89
f 294/125/89 297/125/89 295/125/89
f 296/125/90 298/125/90 299/125/90
f 296/125/90 299/125/90 297/125/90
f 298/125/67 300/125/67 301/125/67
f 298/125/67 301/125/67 299/125/67
f 300/125/91 302/125/91 303/125/91
f 300/125/91 303/125/91 301/125/91
f 302/125/69 304/125/69 305/125/69
f 302/125/69 305/125/69 303/125/69
f 304/125/92 266/125/92 269/125/92
f 304/125/92 269/125/92 305/125/92
f 269/125/36 268/125/36 306/125/36
f 269/125/36 306/125/36 307/125/36
f 268/125/36 271/125/36 308/125/36
f 268/125/36 308/125/36 306/125/36
f 271/125/36 273/125/36 309/125/36
f 271/125/36 309/125/36 308/125/36
f 273/125/36 275/125/36 310/125/36
f 273/125/36 310/125/36 309/125/36
f 275/125/36 277/125/36 311/125/36
f 275/125/36 311/125/36 310/125/36
f 277/125/36 279/125/36 312/125/36
f 277/125/36 312/125/36 311/125/36
f 279/125/36 281/125/36 313/125/36
f 279/125/36 313/125/36 312/125/36
f 281/125/36 283/125/36 314/125/36
f 281/125/36 314/125/36 313/125/36
f 283/125/36 285/125/36 315/125/36
f 283/125/36 315/125/36 314/125/36
f 285/125/36 287/125/36 316/125/36
f 285/125/36 316/125/36 315/125/36
f 287/125/36 289/125/36 317/125/36
f 287/125/36 317/125/36 316/125/36
f 289/125/36 291/125/36 318/125/36
f 289/125/36 318/125/36 317/125/36
f 291/125/36 293/125/36 319/125/36
f 291/125/36 319/125/36 318/125/36
f 293/125/36 295/125/36 320/125/36
f 293/125/36 320/125/36 319/125/36
f 295/125/36 297/125/36 321/125/36
f 295/125/36 321/125/36 320/125/36
f 297/125/36 299/125/36 322/125/36
f 297/125/36 322/125/36 321/125/36
f 299/125/36 301/125/36 323/125/36
f 299/125/36 323/125/36 322/125/36
f 301/125/36 303/125/36 324/125/36
f 301/125/36 324/125/36 323/125/36
f 303/125/36 305/125/36 325/125/36
f 303/125/36 325/125/36 324/125/36
f 305/125/36 269/125/36 307/125/36
f 305/125/36 307/125/36 325/125/36
f 307/125/61 306/125/61 326/125/61
f 307/125/61 326/125/61 327/125/61
f 306/125/62 308/125/62 328/125/62
f 306/125/62 328/125/62 326/125/62
f 308/125/63 309/125/63 329/125/63
f 308/125/63 329/125/63 328/125/63
f 309/125/64 310/125/64 330/125/64
f 309/125/64 330/125/64 329/125/64
f 310/125/65 311/125/65 331/125/65
f 310/125/65 331/125/65 330/125/65
f 311/125/66 312/125/66 332/125/66
f 311/125/66 332/125/66 331/125/66
f 312/125/67 313/125/67 333/125/67
f 312/125/67 333/125/67 332/125/67
f 313/125/68 314/125/68 334/125/68
f 313/125/68 334/125/68 333/125/68
f 314/125/69 315/125/69 335/125/69
f 314/125/69 335/125/69 334/125/69
f 315/125/70 316/125/70 336/125/70
f 315/125/70 336/125/70 335/125/70
f 316/125/71 317/125/71 337/125/71
f 316/125/71 337/125/71 336/125/71
f 317/125/72 318/125/72 338/125/72
f 317/125/72 338/125/72 337/125/72
f 318/125/73 319/125/73 339/125/73
f 318/125/73 339/125/73 338/125/73
f 319/125/74 320/125/74 340/125/74
f 319/125/74 340/125/74 339/125/74
f 320/125/75 321/125/75 341/125/75
f 320/125/75 341/125/75 340/125/75
f 321/125/76 322/125/76 342/125/76
f 321/125/76 342/125/76 341/125/76
f 322/125/77 323/125/77 343/125/77
f 322/125/77 343/125/77 342/125/77
f 323/125/78 324/125/78 344/125/78
f 323/125/78 344/125/78 343/125/78
f 324/125/79 325/125/79 345/125/79
f 324/125/79 345/125/79 344/125/79
f 325/125/80 307/125/80 327/125/80
f 325/125/80 327/125/80 345/125/80
f 327/125/39 326/125/39 267/125/39
f 327/125/39 267/125/39 266/125/39
f 326/125/39 328/125/39 270/125/39
f 326/125/39 270/125/39 267/125/39
f 328/125/39 329/125/39 272/125/39
f 328/125/39 272/125/39 270/125/39
f 329/125/39 330/125/39 274/125/39
f 329/125/39 274/125/39 272/125/39
f 330/125/39 331/125/39 276/125/39
f 330/125/39 276/125/39 274/125/39
f 331/125/39 332/125/39 278/125/39
f 331/125/39 278/125/39 276/125/39
f 332/125/39 333/125/39 280/125/39
f 332/125/39 280/125/39 278/125/39
f 333/125/39 334/125/39 282/125/39
f 333/125/39 282/125/39 280/125/39
f 334/125/39 335/125/39 284/125/39
f 334/125/39 284/125/39 282/125/39
f 335/125/39 336/125/39 286/125/39
f 335/125/39 286/125/39 284/125/39
f 336/125/39 337/125/39 288/125/39
f 336/125/39 288/125/39 286/125/39
f 337/125/39 338/125/39 290/125/39
f 337/125/39 290/125/39 288/125/39
f 338/125/39 339/125/39 292/125/39
f 338/125/39 292/125/39 290/125/39
f 339/125/39 340/125/39 294/125/39
f 339/125/39 294/125/39 292/125/39
f 340/125/39 341/125/39 296/125/39
f 340/125/39 296/125/39 294/125/39
f 341/125/39 342/125/39 298/125/39
f 341/125/39 298/125/39 296/125/39
f 342/125/39 343/125/39 300/125/39
f 342/125/39 300/125/39 298/125/39
f 343/125/39 344/125/39 302/125/39
f 343/125/39 302/125/39 300/125/39
f 344/125/39 345/125/39 304/125/39
f 344/125/39 304/125/39 302/125/39
f 345/125/39 327/125/39 266/125/39
f 345/125/39 266/125/39 304/125/39
usemtl mat_12
f 346/125/93 347/125/93 348/125/93
f 346/125/93 348/125/93 349/125/93
f 347/125/94 350/125/94 351/125/94
f 347/125/94 351/125/94 348/125/94
f 350/125/73 352/125/73 353/125/73
f 350/125/73 353/125/73 351/125/73
f 352/125/95 354/125/95 355/125/95
f 352/125/95 355/125/95 353/125/95
f 354/125/96 356/125/96 357/125/96
f 354/125/96 357/125/96 355/125/96
f 356/125/97 358/125/97 359/125/97
f 356/125/97 359/125/97 357/125/97
f 358/125/98 360/125/98 361/125/98
f 358/125/98 361/125/98 359/125/98
f 360/125/78 362/125/78 363/125/78
f 360/125/78 363/125/78 361/125/78
f 362/125/99 364/125/99 365/125/99
f 362/125/99 365/125/99 363/125/99
f 364/125/100 366/125/100 367/125/100
f 364/125/100 367/125/100 365/125/100
f 366/125/101 368/125/101 369/125/101
f 366/125/101 369/125/101 367/125/101
f 368/125/102 370/125/102 371/125/102
f 368/125/102 371/125/102 369/125/102
f 370/125/63 372/125/63 373/125/63
f 370/125/63 373/125/63 371/125/63
f 372/125/103 374/125/103 375/125/103
f 372/125/103 375/125/103 373/125/103
f 374/125/104 376/125/104 377/125/104
f 374/125/104 377/125/104 375/125/104
f 376/125/105 378/125/105 379/125/105
f 376/125/105 379/125/105 377/125/105
f 378/125/106 380/125/106 381/125/106
f 378/125/106 381/125/106 379/125/106
f 380/125/68 382/125/68 383/125/68
f 380/125/68 383/125/68 381/125/68
f 382/125/107 384/125/107 385/125/107
f 382/125/107 385/125/107 383/125/107
f 384/125/108 346/125/108 349/125/108
f 384/125/108 349/125/108 385/125/108
f 349/125/36 348/125/36 386/125/36
f 349/125/36 386/125/36 387/125/36
f 348/125/36 351/125/36 388/125/36
f 348/125/36 388/125/36 386/125/36
f 351/125/36 353/125/36 389/125/36
f 351/125/36 389/125/36 388/125/36
f 353/125/36 355/125/36 390/125/36
f 353/125/36 390/125/36 389/125/36
f 355/125/36 357/125/36 391/125/36
f 355/125/36 391/125/36 390/125/36
f 357/125/36 359/125/36 392/125/36
f 357/125/36 392/125/36 391/125/36
f 359/125/36 361/125/36 393/125/36
f 359/125/36 393/125/36 392/125/36
f 361/125/36 363/125/36 394/125/36
f 361/125/36 394/125/36 393/125/36
f 363/125/36 365/125/36 395/125/36
f 363/125/36 395/125/36 394/125/36
f 365/125/36 367/125/36 396/125/36
f 365/125/36 396/125/36 395/125/36
f 367/125/36 369/125/36 397/125/36
f 367/125/36 397/125/36 396/125/36
f 369/125/36 371/125/36 398/125/36
f 369/125/36 398/125/36 397/125/36
f 371/125/36 373/125/36 399/125/36
f 371/125/36 399/125/36 398/125/36
f 373/125/36 375/125/36 400/125/36
f 373/125/36 400/125/36 399/125/36
f 375/125/36 377/125/36 401/125/36
f 375/125/36 401/125/36 400/125/36
f 377/125/36 379/125/36 402/125/36
f 377/125/36 402/125/36 401/125/36
f 379/125/36 381/125/36 403/125/36
f 379/125/36 403/125/36 402/125/36
f 381/125/36 383/125/36 404/125/36
f 381/125/36 404/125/36 403/125/36
f 383/125/36 385/125/36 405/125/36
f 383/125/36 405/125/36 404/125/36
f 385/125/36 349/125/36 387/125/36
f 385/125/36 387/125/36 405/125/36
f 387/125/61 386/125/61 306/125/61
f 387/125/61 306/125/61 307/125/61
f 386/125/62 388/125/62 308/125/62
f 386/125/62 308/125/62 306/125/62
f 388/125/63 389/125/63 309/125/63
f 388/125/63 309/125/63 308/125/63
f 389/125/64 390/125/64 310/125/64
f 389/125/64 310/125/64 309/125/64
f 390/125/65 391/125/65 311/125/65
f 390/125/65 311/125/65 310/125/65
f 391/125/66 392/125/66 312/125/66
f 391/125/66 312/125/66 311/125/66
f 392/125/67 393/125/67 313/125/67
f 392/125/67 313/125/67 312/125/67
f 393/125/68 394/125/68 314/125/68
f 393/125/68 314/125/68 313/125/68
f 394/125/69 395/125/69 315/125/69
f 394/125/69 315/125/69 314/125/69
f 395/125/70 396/125/70 316/125/70
f 395/125/70 316/125/70 315/125/70
f 396/125/71 397/125/71 317/125/71
f 396/125/71 317/125/71 316/125/71
f 397/125/72 398/125/72 318/125/72
f 397/125/72 318/125/72 317/125/72
f 398/125/73 399/125/73 319/125/73
f 398/125/73 319/125/73 318/125/73
f 399/125/74 400/125/74 320/125/74
f 399/125/74 320/125/74 319/125/74
f 400/125/75 401/125/75 321/125/75
f 400/125/75 321/125/75 320/125/75
f 401/125/76 402/125/76 322/125/76
f 401/125/76 322/125/76 321/125/76
f 402/125/77 403/125/77 323/125/77
f 402/125/77 323/125/77 322/125/77
f 403/125/78 404/125/78 324/125/78
f 403/125/78 324/125/78 323/125/78
f 404/125/79 405/125/79 325/125/79
f 404/125/79 325/125/79 324/125/79
f 405/125/80 387/125/80 307/125/80
f 405/125/80 307/125/80 325/125/80
f 307/125/39 306/125/39 347/125/39
f 307/125/39 347/125/39 346/125/39
f 306/125/39 308/125/39 350/125/39
f 306/125/39 350/125/39 347/125/39
f 308/125/39 309/125/39 352/125/39
f 308/125/39 352/125/39 350/125/39
f 309/125/39 310/125/39 354/125/39
f 309/125/39 354/125/39 352/125/39
f 310/125/39 311/125/39 356/125/39
f 310/125/39 356/125/39 354/125/39
f 311/125/39 312/125/39 358/125/39
f 311/125/39 358/125/39 356/125/39
f 312/125/39 313/125/39 360/125/39
f 312/125/39 360/125/39 358/125/39
f 313/125/39 314/125/39 362/125/39
f 313/125/39 362/125/39 360/125/39
f 314/125/39 315/125/39 364/125/39
f 314/125/39 364/125/39 362/125/39
f 315/125/39 316/125/39 366/125/39
f 315/125/39 366/125/39 364/125/39
f 316/125/39 317/125/39 368/125/39
f 316/125/39 368/125/39 366/125/39
f 317/125/39 318/125/39 370/125/39
f 317/125/39 370/125/39 368/125/39
f 318/125/39 319/125/39 372/125/39
f 318/125/39 372/125/39 370/125/39
f 319/125/39 320/125/39 374/125/39
f 319/125/39 374/125/39 372/125/39
f 320/125/39 321/125/39 376/125/39
f 320/125/39 376/125/39 374/125/39
f 321/125/39 322/125/39 378/125/39
f 321/125/39 378/125/39 376/125/39
f 322/125/39 323/125/39 380/125/39
f 322/125/39 380/125/39 378/125/39
f 323/125/39 324/125/39 382/125/39
f 323/125/39 382/125/39 380/125/39
f 324/125/39 325/125/39 384/125/39
f 324/125/39 384/125/39 382/125/39
f 325/125/39 307/125/39 346/125/39
f 325/125/39 346/125/39 384/125/39
usemtl mat_11
f 406/125/39 407/125/39 408/125/39
f 408/125/39 409/125/39 410/125/39
f 410/125/39 411/125/39 406/125/39
f 408/125/39 410/125/39 406/125/39
f 412/125/36 413/125/36 414/125/36
f 414/125/36 415/125/36 416/125/36
f 416/125/36 417/125/36 412/125/36
f 414/125/36 416/125/36 412/125/36
f 406/125/109 411/125/109 414/125/109
f 406/125/109 414/125/109 413/125/109
f 411/125/34 410/125/34 415/125/34
f 411/125/34 415/125/34 414/125/34
f 410/125/110 409/125/110 416/125/110
f 410/125/110 416/125/110 415/125/110
f 409/125/111 408/125/111 417/125/111
f 409/125/111 417/125/111 416/125/111
f 408/125/25 407/125/25 412/125/25
f 408/125/25 412/125/25 417/125/25
f 407/125/112 406/125/112 413/125/112
f 407/125/112 413/125/112 412/125/112
f 418/125/39 419/125/39 420/125/39
f 420/125/39 421/125/39 422/125/39
f 422/125/39 423/125/39 418/125/39
f 420/125/39 422/125/39 418/125/39
f 424/125/36 425/125/36 426/125/36
f 426/125/36 427/125/36 428/125/36
f 428/125/36 429/125/36 424/125/36
f 426/125/36 428/125/36 424/125/36
f 418/125/109 423/125/109 426/125/109
f 418/125/109 426/125/109 425/125/109
f 423/125/34 422/125/34 427/125/34
f 423/125/34 427/125/34 426/125/34
f 422/125/110 421/125/110 428/125/110
f 422/125/110 428/125/110 427/125/110
f 421/125/111 420/125/111 429/125/111
f 421/125/111 429/125/111 428/125/111
f 420/125/25 419/125/25 424/125/25
f 420/125/25 424/125/25 429/125/25
f 419/125/112 418/125/112 425/125/112
f 419/125/112 425/125/112 424/125/112
f 430/125/39 431/125/39 432/125/39
f 432/125/39 433/125/39 434/125/39
f 434/125/39 435/125/39 430/125/39
f 432/125/39 434/125/39 430/125/39
f 436/125/36 437/125/36 438/125/36
f 438/125/36 439/125/36 440/125/36
f 440/125/36 441/125/36 436/125/36
f 438/125/36 440/125/36 436/125/36
f 430/125/109 435/125/109 438/125/109
f 430/125/109 438/125/109 437/125/109
f 435/125/34 434/125/34 439/125/34
f 435/125/34 439/125/34 438/125/34
f 434/125/110 433/125/110 440/125/110
f 434/125/110 440/125/110 439/125/110
f 433/125/111 432/125/111 441/125/111
f 433/125/111 441/125/111 440/125/111
f 432/125/25 431/125/25 436/125/25
f 432/125/25 436/125/25 441/125/25
f 431/125/112 430/125/112 437/125/112
f 431/125/112 437/125/112 436/125/112
f 442/125/39 443/125/39 444/125/39
f 444/125/39 445/125/39 446/125/39
f 446/125/39 447/125/39 442/125/39
f 444/125/39 446/125/39 442/125/39
f 448/125/36 449/125/36 450/125/36
f 450/125/36 451/125/36 452/125/36
f 452/125/36 453/125/36 448/125/36
f 450/125/36 452/125/36 448/125/36
f 442/125/109 447/125/109 450/125/109
f 442/125/109 450/125/109 449/125/109
f 447/125/34 446/125/34 451/125/34
f 447/125/34 451/125/34 450/125/34
f 446/125/110 445/125/110 452/125/110
f 446/125/110 452/125/110 451/125/110
f 445/125/111 444/125/111 453/125/111
f 445/125/111 453/125/111 452/125/111
f 444/125/25 443/125/25 448/125/25
f 444/125/25 448/125/25 453/125/25
f 443/125/112 442/125/112 449/125/112
f 443/125/112 449/125/112 448/125/112
f 454/125/39 455/125/39 456/125/39
f 456/125/39 457/125/39 458/125/39
f 458/125/39 459/125/39 454/125/39
f 456/125/39 458/125/39 454/125/39
f 460/125/36 461/125/36 462/125/36
f 462/125/36 463/125/36 464/125/36
f 464/125/36 465/125/36 460/125/36
f 462/125/36 464/125/36 460/125/36
f 454/125/109 459/125/109 462/125/109
f 454/125/109 462/125/109 461/125/109
f 459/125/34 458/125/34 463/125/34
f 459/125/34 463/125/34 462/125/34
f 458/125/110 457/125/110 464/125/110
f 458/125/110 464/125/110 463/125/110
f 457/125/111 456/125/111 465/125/111
f 457/125/111 465/125/111 464/125/111
f 456/125/25 455/125/25 460/125/25
f 456/125/25 460/125/25 465/125/25
f 455/125/112 454/125/112 461/125/112
f 455/125/112 461/125/112 460/125/112
f 466/125/39 467/125/39 468/125/39
f 468/125/39 469/125/39 470/125/39
f 470/125/39 471/125/39 466/125/39
f 468/125/39 470/125/39 466/125/39
f 472/125/36 473/125/36 474/125/36
f 474/125/36 475/125/36 476/125/36
f 476/125/36 477/125/36 472/125/36
f 474/125/36 476/125/36 472/125/36
f 466/125/109 471/125/109 474/125/109
f 466/125/109 474/125/109 473/125/109
f 471/125/34 470/125/34 475/125/34
f 471/125/34 475/125/34 474/125/34
f 470/125/110 469/125/110 476/125/110
f 470/125/110 476/125/110 475/125/110
f 469/125/111 468/125/111 477/125/111
f 469/125/111 477/125/111 476/125/111
f 468/125/25 467/125/25 472/125/25
f 468/125/25 472/125/25 477/125/25
f 467/125/112 466/125/112 473/125/112
f 467/125/112 473/125/112 472/125/112
f 478/125/39 479/125/39 480/125/39
f 480/125/39 481/125/39 482/125/39
f 482/125/39 483/125/39 478/125/39
f 480/125/39 482/125/39 478/125/39
f 484/125/36 485/125/36 486/125/36
f 486/125/36 487/125/36 488/125/36
f 488/125/36 489/125/36 484/125/36
f 486/125/36 488/125/36 484/125/36
f 478/125/109 483/125/109 486/125/109
f 478/125/109 486/125/109 485/125/109
f 483/125/34 482/125/34 487/125/34
f 483/125/34 487/125/34 486/125/34
f 482/125/110 481/125/110 488/125/110
f 482/125/110 488/125/110 487/125/110
f 481/125/111 480/125/111 489/125/111
f 481/125/111 489/125/111 488/125/111
f 480/125/25 479/125/25 484/125/25
f 480/125/25 484/125/25 489/125/25
f 479/125/112 478/125/112 485/125/112
f 479/125/112 485/125/112 484/125/112
f 490/125/39 491/125/39 492/125/39
f 492/125/39 493/125/39 494/125/39
f 494/125/39 495/125/39 490/125/39
f 492/125/39 494/125/39 490/125/39
f 496/125/36 497/125/36 498/125/36
f 498/125/36 499/125/36 500/125/36
f 500/125/36 501/125/36 496/125/36
f 498/125/36 500/125/36 496/125/36
f 490/125/109 495/125/109 498/125/109
f 490/125/109 498/125/109 497/125/109
f 495/125/34 494/125/34 499/125/34
f 495/125/34 499/125/34 498/125/34
f 494/125/110 493/125/110 500/125/110
f 494/125/110 500/125/110 499/125/110
f 493/125/111 492/125/111 501/125/111
f 493/125/111 501/125/111 500/125/111
f 492/125/25 491/125/25 496/125/25
f 492/125/25 496/125/25 501/125/25
f 491/125/112 490/125/112 497/125/112
f 491/125/112 497/125/112 496/125/112
usemtl mat_14
f 502/125/113 503/125/113 504/125/113
f 502/125/113 504/125/113 505/125/113
f 503/125/114 506/125/114 507/125/114
f 503/125/114 507/125/114 504/125/114
f 506/125/115 508/125/115 509/125/115
f 506/125/115 509/125/115 507/125/115
f 508/125/116 510/125/116 511/125/116
f 508/125/116 511/125/116 509/125/116
f 510/125/117 512/125/117 513/125/117
f 510/125/117 513/125/117 511/125/117
f 512/125/118 514/125/118 515/125/118
f 512/125/118 515/125/118 513/125/118
f 514/125/119 516/125/119 517/125/119
f 514/125/119 517/125/119 515/125/119
f 516/125/120 518/125/120 519/125/120
f 516/125/120 519/125/120 517/125/120
f 518/125/121 520/125/121 521/125/121
f 518/125/121 521/125/121 519/125/121
f 520/125/122 522/125/122 523/125/122
f 520/125/122 523/125/122 521/125/122
f 522/125/123 524/125/123 525/125/123
f 522/125/123 525/125/123 523/125/123
f 524/125/124 526/125/124 527/125/124
f 524/125/124 527/125/124 525/125/124
f 526/125/125 528/125/125 529/125/125
f 526/125/125 529/125/125 527/125/125
f 528/125/126 530/125/126 531/125/126
f 528/125/126 531/125/126 529/125/126
f 530/125/127 532/125/127 533/125/127
f 530/125/127 533/125/127 531/125/127
f 532/125/128 534/125/128 535/125/128
f 532/125/128 535/125/128 533/125/128
f 534/125/129 536/125/129 537/125/129
f 534/125/129 537/125/129 535/125/129
f 536/125/130 538/125/130 539/125/130
f 536/125/130 539/125/130 537/125/130
f 538/125/131 540/125/131 541/125/131
f 538/125/131 541/125/131 539/125/131
f 540/125/132 502/125/132 505/125/132
f 540/125/132 505/125/132 541/125/132
f 505/125/36 504/125/36 542/125/36
f 505/125/36 542/125/36 543/125/36
f 504/125/36 507/125/36 544/125/36
f 504/125/36 544/125/36 542/125/36
f 507/125/36 509/125/36 545/125/36
f 507/125/36 545/125/36 544/125/36
f 509/125/36 511/125/36 546/125/36
f 509/125/36 546/125/36 545/125/36
f 511/125/36 513/125/36 547/125/36
f 511/125/36 547/125/36 546/125/36
f 513/125/36 515/125/36 548/125/36
f 513/125/36 548/125/36 547/125/36
f 515/125/36 517/125/36 549/125/36
f 515/125/36 549/125/36 548/125/36
f 517/125/36 519/125/36 550/125/36
f 517/125/36 550/125/36 549/125/36
f 519/125/36 521/125/36 551/125/36
f 519/125/36 551/125/36 550/125/36
f 521/125/36 523/125/36 552/125/36
f 521/125/36 552/125/36 551/125/36
f 523/125/36 525/125/36 553/125/36
f 523/125/36 553/125/36 552/125/36
f 525/125/36 527/125/36 554/125/36
f 525/125/36 554/125/36 553/125/36
f 527/125/36 529/125/36 555/125/36
f 527/125/36 555/125/36 554/125/36
f 529/125/36 531/125/36 556/125/36
f 529/125/36 556/125/36 555/125/36
f 531/125/36 533/125/36 557/125/36
f 531/125/36 557/125/36 556/125/36
f 533/125/36 535/125/36 558/125/36
f 533/125/36 558/125/36 557/125/36
f 535/125/36 537/125/36 559/125/36
f 535/125/36 559/125/36 558/125/36
f 537/125/36 539/125/36 560/125/36
f 537/125/36 560/125/36 559/125/36
f 539/125/36 541/125/36 561/125/36
f 539/125/36 561/125/36 560/125/36
f 541/125/36 505/125/36 543/125/36
f 541/125/36 543/125/36 561/125/36
f 543/125/133 542/125/133 562/125/133
f 543/125/133 562/125/133 563/125/133
f 542/125/134 544/125/134 564/125/134
f 542/125/134 564/125/134 562/125/134
f 544/125/135 545/125/135 565/125/135
f 544/125/135 565/125/135 564/125/135
f 545/125/136 546/125/136 566/125/136
f 545/125/136 566/125/136 565/125/136
f 546/125/137 547/125/137 567/125/137
f 546/125/137 567/125/137 566/125/137
f 547/125/138 548/125/138 568/125/138
f 547/125/138 568/125/138 567/125/138
f 548/125/139 549/125/139 569/125/139
f 548/125/139 569/125/139 568/125/139
f 549/125/140 550/125/140 570/125/140
f 549/125/140 570/125/140 569/125/140
f 550/125/141 551/125/141 571/125/141
f 550/125/141 571/125/141 570/125/141
f 551/125/142 552/125/142 572/125/142
f 551/125/142 572/125/142 571/125/142
f 552/125/143 553/125/143 573/125/143
f 552/125/143 573/125/143 572/125/143
f 553/125/144 554/125/144 574/125/144
f 553/125/144 574/125/144 573/125/144
f 554/125/145 555/125/145 575/125/145
f 554/125/145 575/125/145 574/125/145
f 555/125/146 556/125/146 576/125/146
f 555/125/146 576/125/146 575/125/146
f 556/125/147 557/125/147 577/125/147
f 556/125/147 577/125/147 576/125/147
f 557/125/148 558/125/148 578/125/148
f 557/125/148 578/125/148 577/125/148
f 558/125/149 559/125/149 579/125/149
f 558/125/149 579/125/149 578/125/149
f 559/125/150 560/125/150 580/125/150
f 559/125/150 580/125/150 579/125/150
f 560/125/151 561/125/151 581/125/151
f 560/125/151 581/125/151 580/125/151
f 561/125/152 543/125/152 563/125/152
f 561/125/152 563/125/152 581/125/152
f 563/125/39 562/125/39 503/125/39
f 563/125/39 503/125/39 502/125/39
f 562/125/39 564/125/39 506/125/39
f 562/125/39 506/125/39 503/125/39
f 564/125/39 565/125/39 508/125/39
f 564/125/39 508/125/39 506/125/39
f 565/125/39 566/125/39 510/125/39
f 565/125/39 510/125/39 508/125/39
f 566/125/39 567/125/39 512/125/39
f 566/125/39 512/125/39 510/125/39
f 567/125/39 568/125/39 514/125/39
f 567/125/39 514/125/39 512/125/39
f 568/125/39 569/125/39 516/125/39
f 568/125/39 516/125/39 514/125/39
f 569/125/39 570/125/39 518/125/39
f 569/125/39 518/125/39 516/125/39
f 570/125/39 571/125/39 520/125/39
f 570/125/39 520/125/39 518/125/39
f 571/125/39 572/125/39 522/125/39
f 571/125/39 522/125/39 520/125/39
f 572/125/39 573/125/39 524/125/39
f 572/125/39 524/125/39 522/125/39
f 573/125/39 574/125/39 526/125/39
f 573/125/39 526/125/39 524/125/39
f 574/125/39 575/125/39 528/125/39
f 574/125/39 528/125/39 526/125/39
f 575/125/39 576/125/39 530/125/39
f 575/125/39 530/125/39 528/125/39
f 576/125/39 577/125/39 532/125/39
f 576/125/39 532/125/39 530/125/39
f 577/125/39 578/125/39 534/125/39
f 577/125/39 534/125/39 532/125/39
f 578/125/39 579/125/39 536/125/39
f 578/125/39 536/125/39 534/125/39
f 579/125/39 580/125/39 538/125/39
f 579/125/39 538/125/39 536/125/39
f 580/125/39 581/125/39 540/125/39
f 580/125/39 540/125/39 538/125/39
f 581/125/39 563/125/39 502/125/39
f 581/125/39 502/125/39 540/125/39
