# Authored in Blender; exported by tools-export-modern.py
mtllib materials.mtl
s off
v 0.744517678 0.825268711 0.000000000
v 0.741132636 0.834089292 0.000000000
v 0.750000000 0.828008652 0.009100318
v 0.750000000 0.810983116 0.000000000
v 0.702175023 0.909520892 0.000000000
v 0.655445998 1.000000000 0.000000000
v 0.655446140 1.000000000 0.000000227
v 0.750000000 0.917475939 0.082524180
v 0.697548774 1.000000000 0.081521374
v 0.741132757 1.000000000 0.165910791
v 0.750000000 0.990899801 0.171991348
v 0.750000000 1.000000000 0.189016641
v 0.744517748 1.000000000 0.825268746
v 0.741132757 1.000000000 0.834089209
v 0.750000000 0.990899801 0.828008652
v 0.750000000 1.000000000 0.810983359
v 0.702175108 1.000000000 0.909520841
v 0.655446140 1.000000000 0.999999773
v 0.750000000 0.917475939 0.917475820
v 0.697547744 0.918480522 1.000000000
v 0.741132631 0.834089296 1.000000000
v 0.750000000 0.828008652 0.990899682
v 0.655445998 1.000000000 1.000000000
v 0.750000000 0.810983079 1.000000000
v 0.744517680 0.174731289 1.000000000
v 0.741132631 0.165910714 1.000000000
v 0.750000000 0.171991348 0.990899682
v 0.750000000 0.189016921 1.000000000
v 0.702175007 0.090479230 1.000000000
v 0.655445853 0.000000000 1.000000000
v 0.750000000 0.082524180 0.917475820
v 0.697547228 0.000000000 0.918481292
v 0.741132524 0.000000000 0.834089369
v 0.750000000 0.009100437 0.828008652
v 0.655445819 0.000000000 1.000000000
v 0.750000000 0.000000000 0.810982950
v 0.744517606 0.000000000 0.174731325
v 0.741132524 0.000000000 0.165910631
v 0.750000000 0.009100437 0.171991348
v 0.750000000 0.000000000 0.189017050
v 0.702175007 0.000000000 0.090479176
v 0.655445819 0.000000000 0.000000000
v 0.750000000 0.082524180 0.082524180
v 0.697547744 0.081519627 0.000000000
v 0.741132636 0.165910718 0.000000000
v 0.750000000 0.171991348 0.009100318
v 0.750000000 0.189016884 0.000000000
v 0.750000000 0.806038543 0.000000000
v 0.750000000 1.000000000 0.193961166
v 0.750000000 1.000000000 0.806038834
v 0.750000000 0.806038528 1.000000000
v 0.750000000 0.193961484 1.000000000
v 0.750000000 0.000000000 0.806038258
v 0.750000000 0.000000000 0.193961742
v 0.750000000 0.193961469 0.000000000
v 0.750000000 0.782258242 0.000000000
v 0.750000000 1.000000000 0.266503401
v 0.750000000 1.000000000 0.782258872
v 0.750000000 0.733496473 1.000000000
v 0.750000000 0.217741801 1.000000000
v 0.750000000 0.000000000 0.733496354
v 0.750000000 0.000000000 0.217742327
v 0.750000000 0.266503622 0.000000000
v 0.750000000 1.000000000 0.331995300
v 0.750000000 0.503133783 0.000000000
v 0.750000000 0.668004685 1.000000000
v 0.750000000 1.000000000 0.503133995
v 0.750000000 0.000000000 0.668004543
v 0.750000000 0.496866430 1.000000000
v 0.750000000 0.331995413 0.000000000
v 0.750000000 0.000000000 0.496866321
v 0.750000000 0.599456310 1.000000000
v 0.750000000 0.400543821 0.000000000
v 0.517499924 0.000000000 0.000000000
v 0.517499924 0.000000000 0.247599939
v 0.517499924 0.247599920 0.000000000
v 0.517499924 0.247599880 1.000000000
v 0.517499924 0.000000000 0.752400081
v 0.517499924 0.000000000 1.000000000
v 0.517499924 1.000000000 1.000000000
v 0.517499924 1.000000000 0.752400160
v 0.517499924 0.752400160 1.000000000
v 0.517499924 0.752400120 0.000000000
v 0.517499924 1.000000000 0.247599860
v 0.517499924 1.000000000 0.000000000
v 0.517499924 0.500000000 1.000000000
v 0.517499924 0.500000000 0.000000000
v 0.682499886 1.000000000 0.000000000
v 0.682499886 1.000000000 0.194225639
v 0.682499886 0.709320790 0.000000000
v 0.682499886 0.805774361 1.000000000
v 0.682499886 1.000000000 0.709320790
v 0.682499886 1.000000000 1.000000000
v 0.682499886 0.000000000 1.000000000
v 0.682499886 0.000000000 0.805774303
v 0.682499886 0.290679258 1.000000000
v 0.682499886 0.194225671 0.000000000
v 0.682499886 0.000000000 0.290679316
v 0.682499886 0.000000000 0.000000000
v 0.682499886 0.599456183 1.000000000
v 0.682499886 0.400543817 0.000000000
v 0.690000057 0.500000000 0.147199988
v 0.690000057 0.591311455 0.159221411
v 0.944999933 0.570812941 0.235722661
v 0.944999933 0.500000000 0.226400018
v 0.690000057 0.676399946 0.194466233
v 0.944999933 0.636800051 0.263055444
v 0.690000057 0.749467254 0.250532746
v 0.944999933 0.693464398 0.306535602
v 0.690000057 0.805533886 0.323600054
v 0.944999933 0.736944675 0.363199949
v 0.690000057 0.840778589 0.408688664
v 0.944999933 0.764277339 0.429187059
v 0.690000057 0.852800131 0.500000000
v 0.944999933 0.773599982 0.500000000
v 0.690000057 0.840778589 0.591311336
v 0.944999933 0.764277339 0.570812941
v 0.690000057 0.805533886 0.676399946
v 0.944999933 0.736944675 0.636800051
v 0.690000057 0.749467254 0.749467254
v 0.944999933 0.693464398 0.693464398
v 0.690000057 0.676399946 0.805533767
v 0.944999933 0.636800051 0.736944556
v 0.690000057 0.591311455 0.840778589
v 0.944999933 0.570812941 0.764277339
v 0.690000057 0.500000000 0.852800012
v 0.944999933 0.500000000 0.773599982
v 0.690000057 0.408688784 0.840778589
v 0.944999933 0.429187179 0.764277339
v 0.690000057 0.323599935 0.805533767
v 0.944999933 0.363200068 0.736944556
v 0.690000057 0.250532866 0.749467254
v 0.944999933 0.306535602 0.693464398
v 0.690000057 0.194466233 0.676399946
v 0.944999933 0.263055563 0.636800051
v 0.690000057 0.159221411 0.591311336
v 0.944999933 0.235722661 0.570812941
v 0.690000057 0.147200108 0.500000000
v 0.944999933 0.226400018 0.500000000
v 0.690000057 0.159221411 0.408688664
v 0.944999933 0.235722661 0.429187059
v 0.690000057 0.194466233 0.323600054
v 0.944999933 0.263055563 0.363199949
v 0.690000057 0.250532866 0.250532746
v 0.944999933 0.306535602 0.306535602
v 0.690000057 0.323599935 0.194466233
v 0.944999933 0.363200068 0.263055444
v 0.690000057 0.408688784 0.159221411
v 0.944999933 0.429187179 0.235722661
v 1.000000000 0.518448707 0.257868891
v 1.000000000 0.563296846 0.263773224
v 1.000000000 0.500000000 0.255440048
v 1.000000000 0.580488230 0.270894135
v 1.000000000 0.622280014 0.288204875
v 1.000000000 0.637042642 0.299532628
v 1.000000000 0.672930017 0.327070026
v 1.000000000 0.684257726 0.341832611
v 1.000000000 0.711795200 0.377719986
v 1.000000000 0.718916111 0.394911414
v 1.000000000 0.736226776 0.436703198
v 1.000000000 0.738655663 0.455151861
v 1.000000000 0.744559996 0.500000000
v 1.000000000 0.742131109 0.518448663
v 1.000000000 0.736226776 0.563296802
v 1.000000000 0.729105865 0.580488230
v 1.000000000 0.711795200 0.622280014
v 1.000000000 0.700467492 0.637042598
v 1.000000000 0.672930017 0.672929974
v 1.000000000 0.658167389 0.684257726
v 1.000000000 0.622280014 0.711795125
v 1.000000000 0.605088630 0.718916035
v 1.000000000 0.563296846 0.736226776
v 1.000000000 0.544848139 0.738655619
v 1.000000000 0.500000000 0.744559952
v 1.000000000 0.481551381 0.742131109
v 1.000000000 0.436703317 0.736226776
v 1.000000000 0.419511889 0.729105865
v 1.000000000 0.377720105 0.711795125
v 1.000000000 0.362957477 0.700467372
v 1.000000000 0.327070026 0.672929974
v 1.000000000 0.315742274 0.658167389
v 1.000000000 0.288204951 0.622280014
v 1.000000000 0.281084084 0.605088586
v 1.000000000 0.263773268 0.563296802
v 1.000000000 0.261344468 0.544848139
v 1.000000000 0.255440135 0.500000000
v 1.000000000 0.257868934 0.481551337
v 1.000000000 0.263773268 0.436703198
v 1.000000000 0.270894135 0.419511770
v 1.000000000 0.288204951 0.377719986
v 1.000000000 0.299532703 0.362957402
v 1.000000000 0.327070026 0.327070026
v 1.000000000 0.341832655 0.315742274
v 1.000000000 0.377720105 0.288204875
v 1.000000000 0.394911533 0.281083965
v 1.000000000 0.436703317 0.263773224
v 1.000000000 0.455151936 0.261344381
v 0.444000006 0.121999979 0.831559896
v 0.425999880 0.121999979 0.813559890
v 0.425999880 0.140000105 0.831559896
v 0.083999872 0.121999979 0.831559896
v 0.101999998 0.140000105 0.831559896
v 0.101999998 0.121999979 0.813559890
v 0.091323406 0.129323512 1.000000000
v 0.101999998 0.140000105 1.000000000
v 0.083999872 0.121999979 1.000000000
v 0.433323413 0.132676572 1.000000000
v 0.444000006 0.121999979 1.000000000
v 0.425999880 0.140000105 1.000000000
v 0.440789457 0.000000000 0.828349369
v 0.425999880 0.000000000 0.813559890
v 0.444000006 0.000000000 0.831559896
v 0.098789450 0.000000000 0.816770417
v 0.083999872 0.000000000 0.831559896
v 0.101999998 0.000000000 0.813559890
v 0.083999872 0.000000000 1.000000000
v 0.444000006 0.000000000 0.905402000
v 0.444000006 0.000000000 1.000000000
v 0.159789444 0.000000000 0.813559890
v 0.294177249 0.140000105 1.000000000
v 0.083999872 0.121999979 0.168439984
v 0.101999998 0.121999979 0.186439991
v 0.101999998 0.140000105 0.168439984
v 0.425999880 0.121999979 0.186439991
v 0.444000006 0.121999979 0.168439984
v 0.425999880 0.140000105 0.168439984
v 0.094676470 0.132676577 0.000000000
v 0.101999998 0.140000105 0.000000000
v 0.083999872 0.121999979 0.000000000
v 0.436676478 0.129323507 0.000000000
v 0.444000006 0.121999979 0.000000000
v 0.425999880 0.140000105 0.000000000
v 0.087210421 0.000000000 0.171650511
v 0.101999998 0.000000000 0.186439991
v 0.083999872 0.000000000 0.168439984
v 0.429210428 0.000000000 0.183229464
v 0.444000006 0.000000000 0.168439984
v 0.425999880 0.000000000 0.186439991
v 0.368210433 0.000000000 0.186439991
v 0.083999872 0.000000000 0.094597881
v 0.083999872 0.000000000 0.000000000
v 0.444000006 0.000000000 0.000000000
v 0.233822535 0.140000105 0.000000000
v 0.487124291 1.000000000 0.252039312
v 0.500000000 0.816000104 0.250000000
v 0.422745705 0.816000104 0.262235880
v 0.422745705 1.000000000 0.262235880
v 0.500000000 1.000000000 0.250000000
v 0.411130355 1.000000000 0.268154181
v 0.353053570 0.816000104 0.297745705
v 0.353053570 1.000000000 0.297745705
v 0.343835597 1.000000000 0.306963697
v 0.297745705 0.816000104 0.353053689
v 0.297745705 1.000000000 0.353053689
v 0.291827404 1.000000000 0.364669019
v 0.262235880 0.816000104 0.422745705
v 0.262235880 1.000000000 0.422745705
v 0.260196568 1.000000000 0.435621414
v 0.250000000 0.816000104 0.500000000
v 0.250000000 1.000000000 0.500000000
v 0.252039312 1.000000000 0.512875709
v 0.262235880 0.816000104 0.577254295
v 0.262235880 1.000000000 0.577254295
v 0.268154181 1.000000000 0.588869625
v 0.297745705 0.816000104 0.646946311
v 0.297745705 1.000000000 0.646946311
v 0.306963677 1.000000000 0.656164303
v 0.353053570 0.816000104 0.702254295
v 0.353053570 1.000000000 0.702254295
v 0.364668919 1.000000000 0.708172596
v 0.422745705 0.816000104 0.737764120
v 0.422745705 1.000000000 0.737764120
v 0.435621414 1.000000000 0.739803432
v 0.500000000 0.816000104 0.750000000
v 0.500000000 1.000000000 0.750000000
v 0.512875709 1.000000000 0.747960688
v 0.577254295 0.816000104 0.737764120
v 0.577254295 1.000000000 0.737764120
v 0.588869645 1.000000000 0.731845819
v 0.646946430 0.816000104 0.702254295
v 0.646946430 1.000000000 0.702254295
v 0.656164403 1.000000000 0.693036303
v 0.702254295 0.816000104 0.646946311
v 0.702254295 1.000000000 0.646946311
v 0.708172596 1.000000000 0.635330981
v 0.737764120 0.816000104 0.577254295
v 0.737764120 1.000000000 0.577254295
v 0.739803432 1.000000000 0.564378586
v 0.750000000 0.816000104 0.500000000
v 0.750000000 1.000000000 0.500000000
v 0.747960688 1.000000000 0.487124291
v 0.737764120 0.816000104 0.422745705
v 0.737764120 1.000000000 0.422745705
v 0.731845819 1.000000000 0.411130375
v 0.702254295 0.816000104 0.353053689
v 0.702254295 1.000000000 0.353053689
v 0.693036323 1.000000000 0.343835697
v 0.646946430 0.816000104 0.297745705
v 0.646946430 1.000000000 0.297745705
v 0.635331081 1.000000000 0.291827404
v 0.577254295 0.816000104 0.262235880
v 0.577254295 1.000000000 0.262235880
v 0.564378586 1.000000000 0.260196568
v 0.447209551 1.000000000 0.303361198
v 0.436651468 1.000000000 0.305033445
v 0.436651468 0.816000104 0.305033445
v 0.500000000 1.000000000 0.294999957
v 0.500000000 0.816000104 0.294999957
v 0.389028544 1.000000000 0.329298499
v 0.379503965 1.000000000 0.334151506
v 0.379503965 0.816000104 0.334151506
v 0.341710246 1.000000000 0.371945226
v 0.334151506 1.000000000 0.379503965
v 0.334151506 0.816000104 0.379503965
v 0.309886453 1.000000000 0.427126890
v 0.305033445 1.000000000 0.436651468
v 0.305033445 0.816000104 0.436651468
v 0.296672304 1.000000000 0.489441917
v 0.295000076 1.000000000 0.500000000
v 0.295000076 0.816000104 0.500000000
v 0.303361218 1.000000000 0.552790449
v 0.305033445 1.000000000 0.563348532
v 0.305033445 0.816000104 0.563348532
v 0.329298499 1.000000000 0.610971456
v 0.334151506 1.000000000 0.620496035
v 0.334151506 0.816000104 0.620496035
v 0.371945226 1.000000000 0.658289754
v 0.379503965 1.000000000 0.665848494
v 0.379503965 0.816000104 0.665848494
v 0.427126890 1.000000000 0.690113547
v 0.436651468 1.000000000 0.694966555
v 0.436651468 0.816000104 0.694966555
v 0.489441917 1.000000000 0.703327796
v 0.500000000 1.000000000 0.705000043
v 0.500000000 0.816000104 0.705000043
v 0.552790449 1.000000000 0.696638802
v 0.563348532 1.000000000 0.694966555
v 0.563348532 0.816000104 0.694966555
v 0.610971456 1.000000000 0.670701501
v 0.620496035 1.000000000 0.665848494
v 0.620496035 0.816000104 0.665848494
v 0.658289754 1.000000000 0.628054774
v 0.665848494 1.000000000 0.620496035
v 0.665848494 0.816000104 0.620496035
v 0.690113547 1.000000000 0.572873110
v 0.694966555 1.000000000 0.563348532
v 0.694966555 0.816000104 0.563348532
v 0.703327696 1.000000000 0.510558083
v 0.704999924 1.000000000 0.500000000
v 0.704999924 0.816000104 0.500000000
v 0.696638782 1.000000000 0.447209551
v 0.694966555 1.000000000 0.436651468
v 0.694966555 0.816000104 0.436651468
v 0.670701501 1.000000000 0.389028544
v 0.665848494 1.000000000 0.379503965
v 0.665848494 0.816000104 0.379503965
v 0.628054774 1.000000000 0.341710246
v 0.620496035 1.000000000 0.334151506
v 0.620496035 0.816000104 0.334151506
v 0.572873110 1.000000000 0.309886453
v 0.563348532 1.000000000 0.305033445
v 0.563348532 0.816000104 0.305033445
v 0.510558083 1.000000000 0.296672204
vt 0.728190123 0.088970427
vt 0.728190121 0.089688247
vt 0.727449536 0.089193404
vt 0.728190123 0.087807864
vt 0.728190118 0.095826885
vt 0.728190092 0.103190085
vt 0.728190074 0.103190085
vt 0.721474290 0.096474268
vt 0.721555866 0.103190087
vt 0.714688243 0.103190090
vt 0.714193404 0.102449514
vt 0.712807880 0.103190091
vt 0.661029570 0.103190090
vt 0.660311757 0.103190090
vt 0.660806596 0.102449514
vt 0.662192120 0.103190091
vt 0.654173092 0.103190090
vt 0.646809926 0.103190085
vt 0.653525710 0.096474268
vt 0.646809895 0.096556018
vt 0.646809879 0.089688248
vt 0.647550464 0.089193404
vt 0.646809908 0.103190085
vt 0.646809875 0.087807861
vt 0.646809878 0.036029562
vt 0.646809879 0.035311742
vt 0.647550464 0.035806585
vt 0.646809875 0.037192130
vt 0.646809880 0.029173114
vt 0.646809908 0.021809894
vt 0.653525710 0.028525732
vt 0.653443917 0.021809890
vt 0.660311744 0.021809887
vt 0.660806596 0.022550482
vt 0.646809903 0.021809894
vt 0.662192153 0.021809888
vt 0.713970424 0.021809887
vt 0.714688256 0.021809887
vt 0.714193404 0.022550482
vt 0.712807847 0.021809888
vt 0.720826907 0.021809895
vt 0.728190097 0.021809894
vt 0.721474290 0.028525732
vt 0.728190105 0.028443978
vt 0.728190121 0.035311742
vt 0.727449536 0.035806585
vt 0.728190123 0.037192127
vt 0.728190121 0.087405472
vt 0.712405497 0.103190090
vt 0.662594503 0.103190090
vt 0.646809879 0.087405471
vt 0.646809879 0.037594520
vt 0.662594550 0.021809888
vt 0.712405450 0.021809888
vt 0.728190121 0.037594519
vt 0.728190121 0.085470227
vt 0.706502011 0.103190095
vt 0.664529723 0.103190090
vt 0.646809892 0.081501984
vt 0.646809879 0.039529766
vt 0.668498009 0.021809895
vt 0.710470180 0.021809888
vt 0.728190105 0.043498015
vt 0.701172263 0.103190096
vt 0.728190109 0.062755028
vt 0.646809888 0.076172252
vt 0.687244958 0.103190095
vt 0.673827749 0.021809895
vt 0.646809887 0.062244986
vt 0.728190108 0.048827753
vt 0.687755016 0.021809896
vt 0.646809887 0.070593772
vt 0.728190108 0.054406237
vt 0.726437883 0.023562102
vt 0.707155853 0.023562103
vt 0.726437894 0.042844144
vt 0.648562110 0.042844140
vt 0.667844147 0.023562103
vt 0.648562121 0.023562102
vt 0.648562121 0.101437882
vt 0.667844140 0.101437890
vt 0.648562110 0.082155860
vt 0.726437894 0.082155856
vt 0.707155860 0.101437890
vt 0.726437883 0.101437882
vt 0.648562110 0.062500000
vt 0.726437894 0.062500000
vt 0.726437907 0.101437889
vt 0.711312435 0.101437898
vt 0.726437898 0.078801025
vt 0.648562120 0.086312422
vt 0.671198997 0.101437898
vt 0.648562097 0.101437900
vt 0.648562089 0.023562099
vt 0.663687570 0.023562102
vt 0.648562102 0.046198981
vt 0.726437880 0.038687583
vt 0.703800995 0.023562103
vt 0.726437903 0.023562104
vt 0.648562113 0.070245231
vt 0.726437887 0.054754773
vt 0.628906250 0.062499993
vt 0.628906250 0.077665165
vt 0.702690959 0.074260734
vt 0.702690959 0.062499993
vt 0.628906250 0.091796860
vt 0.702690959 0.085220017
vt 0.628906250 0.103932023
vt 0.702690959 0.094630949
vt 0.628906250 0.103932038
vt 0.628906250 0.091796875
vt 0.702690959 0.085220024
vt 0.702690959 0.094630964
vt 0.628906250 0.077665180
vt 0.702690959 0.074260749
vt 0.628906250 0.062500000
vt 0.702690959 0.062500000
vt 0.628906250 0.047334824
vt 0.702690959 0.050739247
vt 0.628906250 0.033203125
vt 0.702690959 0.039779976
vt 0.628906250 0.021067962
vt 0.702690959 0.030369034
vt 0.628906250 0.047334820
vt 0.702690959 0.050739240
vt 0.628906250 0.033203114
vt 0.702690959 0.039779969
vt 0.628906250 0.021067960
vt 0.702690959 0.030369025
vt 0.718605350 0.065563988
vt 0.718605350 0.073012448
vt 0.718605350 0.062499993
vt 0.718605350 0.075867632
vt 0.718605350 0.082808502
vt 0.718605350 0.085260306
vt 0.718605350 0.091220556
vt 0.718605350 0.088768761
vt 0.718605350 0.082808507
vt 0.718605350 0.091220566
vt 0.718605350 0.079953323
vt 0.718605350 0.073012458
vt 0.718605350 0.069948465
vt 0.718605350 0.062500000
vt 0.718605350 0.059436009
vt 0.718605350 0.051987541
vt 0.718605350 0.049132355
vt 0.718605350 0.042191492
vt 0.718605350 0.039739689
vt 0.718605350 0.033779433
vt 0.718605350 0.088768752
vt 0.718605350 0.079953318
vt 0.718605350 0.069948453
vt 0.718605350 0.059436003
vt 0.718605350 0.051987535
vt 0.718605350 0.049132346
vt 0.718605350 0.042191483
vt 0.718605350 0.039739679
vt 0.718605350 0.033779422
vt 0.718605350 0.036231236
vt 0.718605350 0.045046678
vt 0.718605350 0.055051533
vt 0.718605350 0.065563993
vt 0.718605350 0.075867641
vt 0.718605350 0.085260311
vt 0.718605350 0.036231226
vt 0.718605350 0.045046672
vt 0.718605350 0.055051525
vt 0.746093750 0.062499993
vt 0.744097233 0.047334820
vt 0.738243699 0.033203114
vt 0.728932023 0.021067960
vt 0.716796875 0.011756324
vt 0.702665150 0.005902788
vt 0.687500000 0.003906250
vt 0.672334850 0.005902788
vt 0.658203125 0.011756324
vt 0.646067977 0.021067960
vt 0.636756301 0.033203114
vt 0.630902767 0.047334820
vt 0.630902767 0.077665165
vt 0.636756301 0.091796860
vt 0.646067977 0.103932023
vt 0.658203125 0.113243677
vt 0.672334850 0.119097196
vt 0.687500000 0.121093750
vt 0.702665150 0.119097196
vt 0.716796875 0.113243677
vt 0.728932023 0.103932023
vt 0.738243699 0.091796860
vt 0.744097233 0.077665165
vt 0.742578089 0.118164055
vt 0.740234375 0.118164055
vt 0.740527332 0.118750006
vt 0.741406262 0.118164062
vt 0.741406202 0.121093750
vt 0.746093750 0.118164062
vt 0.697700609 0.119356036
vt 0.697700574 0.121093750
vt 0.697541646 0.118164059
vt 0.697020317 0.118511609
vt 0.698236703 0.118164058
vt 0.697020341 0.119703582
vt 0.634765565 0.118164055
vt 0.634765625 0.116406247
vt 0.742160058 0.098307288
vt 0.740234375 0.098307288
vt 0.742369068 0.098307288
vt 0.745257678 0.098307294
vt 0.741406262 0.098307294
vt 0.746093750 0.098307295
vt 0.697541646 0.098307291
vt 0.723139373 0.098307288
vt 0.698236714 0.098307290
vt 0.653577252 0.098307288
vt 0.634765576 0.098307288
vt 0.697497111 0.073931819
vt 0.740408115 0.073931819
vt 0.634765625 0.072541642
vt 0.633593738 0.118164055
vt 0.633300722 0.118164055
vt 0.633984447 0.121093750
vt 0.746093750 0.118164055
vt 0.740234375 0.121093750
vt 0.677690068 0.119901778
vt 0.677690044 0.121093750
vt 0.677458323 0.118164058
vt 0.677100722 0.118402459
vt 0.633593738 0.118164062
vt 0.677935093 0.118164059
vt 0.677100757 0.120140175
vt 0.633593798 0.121093750
vt 0.633802748 0.098176651
vt 0.633561995 0.098176651
vt 0.633175707 0.098464052
vt 0.741279468 0.098516306
vt 0.746093750 0.098516306
vt 0.740234375 0.098176651
vt 0.721422689 0.098176651
vt 0.652823455 0.098307288
vt 0.677458323 0.098307290
vt 0.633593749 0.098307294
vt 0.677935103 0.098307291
vt 0.677795815 0.053411906
vt 0.634765625 0.008593751
vt 0.740234315 0.008593751
vt 0.740353532 0.053411906
vt 0.634765625 0.052458325
vt 0.500000000 0.500000000
vn 0.775504319 0.297612434 -0.556794298
vn 0.775504468 0.297612079 -0.556794281
vn 0.775504548 0.400518664 -0.488034317
vn 0.775504353 0.400519125 -0.488034249
vn 0.775504461 0.488034102 -0.400519097
vn 0.775504627 0.488033727 -0.400519231
vn 0.775504445 0.556794161 -0.297612362
vn 0.775504422 0.556794408 0.297611960
vn 0.775504192 0.556794434 0.297612509
vn 0.775504611 0.488033960 0.400518980
vn 0.775504444 0.488033901 0.400519374
vn 0.775504272 0.400518720 0.488034710
vn 0.775504568 0.400518958 0.488034045
vn 0.775504151 0.297611757 0.556794895
vn 0.775504093 -0.297613201 0.556794202
vn 0.775504874 -0.297611338 0.556794111
vn 0.775504291 -0.400519098 0.488034371
vn 0.775504042 -0.400519687 0.488034283
vn 0.775504451 -0.488033981 0.400519264
vn 0.775504272 -0.488034384 0.400519119
vn 0.775504473 -0.556793860 0.297612852
vn 0.775504434 -0.556794285 -0.297612160
vn 0.775504039 -0.556794331 -0.297613103
vn 0.775504289 -0.488034134 -0.400519389
vn 0.775504468 -0.488034197 -0.400518966
vn 0.775504167 -0.400519354 -0.488034358
vn 0.775504316 -0.400519474 -0.488034023
vn 0.775504170 -0.297612251 -0.556794604
vn 1.000000000 0.000000000 0.000000000
vn -1.000000000 0.000000000 0.000000000
vn 0.294294242 0.124746243 -0.947538534
vn 0.294294589 0.124745055 -0.947538583
vn 0.294294325 0.365736370 -0.882965321
vn 0.294294271 0.365736547 -0.882965266
vn 0.294294451 0.581802281 -0.758219547
vn 0.294294210 0.581802980 -0.758219104
vn 0.294294204 0.758219010 -0.581803106
vn 0.294294529 0.758218256 -0.581803925
vn 0.294294181 0.882965980 -0.365734894
vn 0.294294277 0.882965828 -0.365735184
vn 0.294294898 0.947538153 -0.124747593
vn 0.294294145 0.947538718 -0.124745073
vn 0.294294240 0.947538354 0.124747619
vn 0.294294993 0.947538459 0.124745039
vn 0.294294265 0.882965956 0.365734884
vn 0.294294169 0.882965859 0.365735197
vn 0.294294487 0.758218941 0.581803053
vn 0.294294163 0.758218345 0.581803993
vn 0.294294240 0.581802321 0.758219599
vn 0.294294482 0.581802929 0.758219038
vn 0.294294278 0.365736376 0.882965334
vn 0.294294331 0.365736539 0.882965249
vn 0.294294545 0.124746231 0.947538442
vn 0.294294198 0.124745071 0.947538702
vn 0.294294201 -0.124746565 0.947538505
vn 0.294294581 -0.124745262 0.947538558
vn 0.294294584 -0.365735028 0.882965790
vn 0.294294115 -0.365736565 0.882965310
vn 0.294294258 -0.581803512 0.758218677
vn 0.294294742 -0.581802110 0.758219565
vn 0.294294528 -0.758218931 0.581803045
vn 0.294294111 -0.758219899 0.581801995
vn 0.294294139 -0.882965555 0.365735955
vn 0.294294763 -0.882964562 0.365737850
vn 0.294294180 -0.947538692 0.124745190
vn 0.294294145 -0.947538718 0.124745073
vn 0.294294149 -0.947538702 -0.124745191
vn 0.294294184 -0.947538707 -0.124745072
vn 0.294294684 -0.882965400 -0.365735891
vn 0.294294060 -0.882964762 -0.365737933
vn 0.294294164 -0.758219020 -0.581803113
vn 0.294294580 -0.758219784 -0.581801907
vn 0.294294681 -0.581803433 -0.758218574
vn 0.294294197 -0.581802212 -0.758219699
vn 0.294294174 -0.365735076 -0.882965907
vn 0.294294644 -0.365736503 -0.882965160
vn 0.294294533 -0.124746552 -0.947538403
vn 0.294294152 -0.124745279 -0.947538689
vn 0.463780367 0.115639010 -0.878370873
vn 0.463779772 0.115640897 -0.878370939
vn 0.463780284 0.339038767 -0.818511187
vn 0.463780290 0.339038747 -0.818511191
vn 0.463779939 0.539333034 -0.702871287
vn 0.463780306 0.539332007 -0.702871833
vn 0.463780619 0.702870291 -0.539333748
vn 0.463779755 0.702872296 -0.539331878
vn 0.463780575 0.818511569 -0.339037446
vn 0.463780750 0.818511274 -0.339037919
vn 0.463779325 0.878371414 -0.115639081
vn 0.463780667 0.878370170 -0.115643151
vn 0.463780440 0.878370835 0.115639005
vn 0.463779098 0.878370984 0.115643259
vn 0.463780721 0.818511498 0.339037417
vn 0.463780545 0.818511373 0.339037960
vn 0.463779901 0.702870589 0.539333977
vn 0.463780765 0.702871876 0.539331556
vn 0.463780244 0.539332937 0.702871161
vn 0.463779877 0.539332144 0.702872011
vn 0.463780289 0.339038766 0.818511184
vn 0.463780283 0.339038748 0.818511195
vn 0.463779873 0.115639043 0.878371130
vn 0.463780468 0.115640850 0.878370577
vn 0.463780450 -0.115639195 0.878370805
vn 0.463779742 -0.115641438 0.878370883
vn 0.463780284 -0.339038767 0.818511187
vn 0.463780545 -0.339037960 0.818511373
vn 0.463780227 -0.539332228 0.702871716
vn 0.463780306 -0.539332007 0.702871833
vn 0.463779869 -0.702872031 0.539332126
vn 0.463780282 -0.702871072 0.539333020
vn 0.463780937 -0.818510348 0.339039898
vn 0.463779625 -0.818512554 0.339036368
vn 0.463780969 -0.878370561 0.115638968
vn 0.463780991 -0.878370540 0.115639038
vn 0.463780987 -0.878370551 -0.115638967
vn 0.463780965 -0.878370554 -0.115639040
vn 0.463779847 -0.818510875 -0.339040116
vn 0.463781160 -0.818511812 -0.339036060
vn 0.463780212 -0.702871888 -0.539332016
vn 0.463779799 -0.702871272 -0.539333174
vn 0.463780293 -0.539332207 -0.702871689
vn 0.463780214 -0.539332037 -0.702871871
vn 0.463780501 -0.339038723 -0.818511082
vn 0.463780240 -0.339038021 -0.818511521
vn 0.463779862 -0.115639235 -0.878371110
vn 0.463780570 -0.115641382 -0.878370454
vn 0.577348995 0.577348995 -0.577352818
vn -0.577348995 0.577348995 -0.577352818
vn -0.707106781 0.707106781 0.000000000
vn 0.707106781 0.707106781 0.000000000
vn 0.000000000 0.707104440 -0.707109123
vn 0.707104440 0.000000000 -0.707109123
vn -0.707104440 0.000000000 -0.707109123
vn 0.000000000 0.000000000 -1.000000000
vn -0.000000000 1.000000000 0.000000000
vn -0.577348995 0.577348995 0.577352818
vn 0.577348995 0.577348995 0.577352818
vn -0.000000000 0.707104440 0.707109123
vn -0.707104440 0.000000000 0.707109123
vn 0.707104440 -0.000000000 0.707109123
vn 0.000000000 0.000000000 1.000000000
vn -0.156434485 0.000000000 -0.987688338
vn -0.453989570 0.000000000 -0.891006998
vn -0.707107543 0.000000000 -0.707106019
vn -0.891006684 0.000000000 -0.453990187
vn -0.987688338 0.000000000 -0.156434485
vn -0.987688338 0.000000000 0.156434485
vn -0.891006684 0.000000000 0.453990187
vn -0.707107543 0.000000000 0.707106019
vn -0.453989570 0.000000000 0.891006998
vn -0.156434485 0.000000000 0.987688338
vn 0.156434485 0.000000000 0.987688338
vn 0.453989570 0.000000000 0.891006998
vn 0.707107543 0.000000000 0.707106019
vn 0.891006684 0.000000000 0.453990187
vn 0.987688338 0.000000000 0.156434485
vn 0.987688338 0.000000000 -0.156434485
vn 0.891006684 0.000000000 -0.453990187
vn 0.707107543 0.000000000 -0.707106019
vn 0.453989570 0.000000000 -0.891006998
vn 0.156434485 0.000000000 -0.987688338
vn 0.156435477 0.000000000 0.987688180
vn 0.453989930 0.000000000 0.891006815
vn 0.707106781 0.000000000 0.707106781
vn 0.891006815 0.000000000 0.453989930
vn 0.987688467 0.000000000 0.156433664
vn 0.987688467 0.000000000 -0.156433664
vn 0.891006815 0.000000000 -0.453989930
vn 0.707106781 0.000000000 -0.707106781
vn 0.453989930 0.000000000 -0.891006815
vn 0.156435477 0.000000000 -0.987688180
vn -0.156435477 0.000000000 -0.987688180
vn -0.453989930 0.000000000 -0.891006815
vn -0.707106781 0.000000000 -0.707106781
vn -0.891006815 0.000000000 -0.453989930
vn -0.987688467 0.000000000 -0.156433664
vn -0.987688467 0.000000000 0.156433664
vn -0.891006815 0.000000000 0.453989930
vn -0.707106781 0.000000000 0.707106781
vn -0.453989930 0.000000000 0.891006815
vn -0.156435477 0.000000000 0.987688180
vn -0.000000000 -1.000000000 0.000000000
usemtl mat_0
f 1/1/1 2/2/1 3/3/1
f 1/1/2 3/3/2 4/4/2
f 5/5/3 6/6/3 7/7/3 8/8/3
f 2/2/4 5/5/4 8/8/4 3/3/4
f 9/9/5 10/10/5 11/11/5
f 7/7/6 9/9/6 11/11/6 8/8/6
f 10/10/7 12/12/7 11/11/7
f 13/13/8 14/14/8 15/15/8
f 13/13/9 15/15/9 16/16/9
f 17/17/10 18/18/10 19/19/10
f 14/14/11 17/17/11 19/19/11 15/15/11
f 20/20/12 21/21/12 22/22/12
f 18/18/13 23/23/13 20/20/13
f 18/18/13 20/20/13 22/22/13
f 18/18/13 22/22/13 19/19/13
f 21/21/14 24/24/14 22/22/14
f 25/25/15 26/26/15 27/27/15
f 25/25/16 27/27/16 28/28/16
f 29/29/17 30/30/17 31/31/17
f 26/26/18 29/29/18 31/31/18 27/27/18
f 32/32/19 33/33/19 34/34/19
f 35/35/20 32/32/20 34/34/20 31/31/20
f 33/33/21 36/36/21 34/34/21
f 37/37/22 38/38/22 39/39/22
f 37/37/23 39/39/23 40/40/23
f 41/41/24 42/42/24 43/43/24
f 38/38/25 41/41/25 43/43/25 39/39/25
f 44/44/26 45/45/26 46/46/26
f 42/42/27 44/44/27 46/46/27 43/43/27
f 45/45/28 47/47/28 46/46/28
f 48/48/29 4/4/29 3/3/29
f 3/3/29 8/8/29 11/11/29
f 49/49/29 11/11/29 12/12/29
f 50/50/29 16/16/29 15/15/29
f 15/15/29 19/19/29 22/22/29
f 51/51/29 22/22/29 24/24/29
f 52/52/29 28/28/29 27/27/29
f 27/27/29 31/31/29 34/34/29
f 53/53/29 34/34/29 36/36/29
f 54/54/29 40/40/29 39/39/29
f 39/39/29 43/43/29 46/46/29
f 55/55/29 46/46/29 47/47/29
f 56/56/29 48/48/29 3/3/29
f 57/57/29 3/3/29 11/11/29 49/49/29
f 58/58/29 50/50/29 15/15/29
f 59/59/29 15/15/29 22/22/29 51/51/29
f 60/60/29 52/52/29 27/27/29
f 61/61/29 27/27/29 34/34/29 53/53/29
f 62/62/29 54/54/29 39/39/29
f 63/63/29 39/39/29 46/46/29 55/55/29
f 64/64/29 65/65/29 56/56/29
f 64/64/29 56/56/29 3/3/29
f 64/64/29 3/3/29 57/57/29
f 66/66/29 67/67/29 58/58/29
f 66/66/29 58/58/29 15/15/29
f 66/66/29 15/15/29 59/59/29
f 68/68/29 69/69/29 60/60/29
f 68/68/29 60/60/29 27/27/29
f 68/68/29 27/27/29 61/61/29
f 70/70/29 71/71/29 62/62/29
f 70/70/29 62/62/29 39/39/29
f 70/70/29 39/39/29 63/63/29
f 72/72/29 73/73/29 65/65/29
f 72/72/29 65/65/29 64/64/29
f 72/72/29 64/64/29 67/67/29
f 72/72/29 67/67/29 66/66/29
f 73/73/29 72/72/29 69/69/29
f 73/73/29 69/69/29 68/68/29
f 73/73/29 68/68/29 71/71/29
f 73/73/29 71/71/29 70/70/29
f 74/74/30 75/75/30 76/76/30
f 77/77/30 78/78/30 79/79/30
f 80/80/30 81/81/30 82/82/30
f 83/83/30 84/84/30 85/85/30
f 86/86/30 87/87/30 76/76/30
f 86/86/30 76/76/30 75/75/30
f 86/86/30 75/75/30 78/78/30
f 86/86/30 78/78/30 77/77/30
f 87/87/30 86/86/30 82/82/30
f 87/87/30 82/82/30 81/81/30
f 87/87/30 81/81/30 84/84/30
f 87/87/30 84/84/30 83/83/30
f 88/88/29 89/89/29 90/90/29
f 91/91/29 92/92/29 93/93/29
f 94/94/29 95/95/29 96/96/29
f 97/97/29 98/98/29 99/99/29
f 100/100/29 101/101/29 90/90/29
f 100/100/29 90/90/29 89/89/29
f 100/100/29 89/89/29 92/92/29
f 100/100/29 92/92/29 91/91/29
f 101/101/29 100/100/29 96/96/29
f 101/101/29 96/96/29 95/95/29
f 101/101/29 95/95/29 98/98/29
f 101/101/29 98/98/29 97/97/29
f 102/102/31 103/103/31 104/104/31
f 102/102/32 104/104/32 105/105/32
f 103/103/33 106/106/33 107/107/33
f 103/103/34 107/107/34 104/104/34
f 106/106/35 108/108/35 109/109/35
f 106/106/36 109/109/36 107/107/36
f 108/110/37 110/111/37 111/112/37
f 108/110/38 111/112/38 109/113/38
f 110/111/39 112/114/39 113/115/39
f 110/111/40 113/115/40 111/112/40
f 112/114/41 114/116/41 115/117/41
f 112/114/42 115/117/42 113/115/42
f 114/116/43 116/118/43 117/119/43
f 114/116/44 117/119/44 115/117/44
f 116/118/45 118/120/45 119/121/45
f 116/118/46 119/121/46 117/119/46
f 118/120/47 120/122/47 121/123/47
f 118/120/48 121/123/48 119/121/48
f 120/108/49 122/106/49 123/107/49
f 120/108/50 123/107/50 121/109/50
f 122/106/51 124/103/51 125/104/51
f 122/106/52 125/104/52 123/107/52
f 124/103/53 126/102/53 127/105/53
f 124/103/54 127/105/54 125/104/54
f 126/102/55 128/124/55 129/125/55
f 126/102/56 129/125/56 127/105/56
f 128/124/57 130/126/57 131/127/57
f 128/124/58 131/127/58 129/125/58
f 130/126/59 132/128/59 133/129/59
f 130/126/60 133/129/60 131/127/60
f 132/122/61 134/120/61 135/121/61
f 132/122/62 135/121/62 133/123/62
f 134/120/63 136/118/63 137/119/63
f 134/120/64 137/119/64 135/121/64
f 136/118/65 138/116/65 139/117/65
f 136/118/66 139/117/66 137/119/66
f 138/116/67 140/114/67 141/115/67
f 138/116/68 141/115/68 139/117/68
f 140/114/69 142/111/69 143/112/69
f 140/114/70 143/112/70 141/115/70
f 142/111/71 144/110/71 145/113/71
f 142/111/72 145/113/72 143/112/72
f 144/128/73 146/126/73 147/127/73
f 144/128/74 147/127/74 145/129/74
f 146/126/75 148/124/75 149/125/75
f 146/126/76 149/125/76 147/127/76
f 148/124/77 102/102/77 105/105/77
f 148/124/78 105/105/78 149/125/78
f 150/130/79 105/105/79 104/104/79 151/131/79
f 152/132/80 105/105/80 150/130/80
f 153/133/81 104/104/81 107/107/81 154/134/81
f 151/131/82 104/104/82 153/133/82
f 155/135/83 107/107/83 109/109/83 156/136/83
f 154/134/84 107/107/84 155/135/84
f 157/137/85 109/113/85 111/112/85 158/138/85
f 156/139/86 109/113/86 157/137/86
f 159/140/87 111/112/87 113/115/87 160/141/87
f 158/138/88 111/112/88 159/140/88
f 161/142/89 113/115/89 115/117/89 162/143/89
f 160/141/90 113/115/90 161/142/90
f 163/144/91 115/117/91 117/119/91 164/145/91
f 162/143/92 115/117/92 163/144/92
f 165/146/93 117/119/93 119/121/93 166/147/93
f 164/145/94 117/119/94 165/146/94
f 167/148/95 119/121/95 121/123/95 168/149/95
f 166/147/96 119/121/96 167/148/96
f 169/150/97 121/109/97 123/107/97 170/134/97
f 168/136/98 121/109/98 169/150/98
f 171/151/99 123/107/99 125/104/99 172/131/99
f 170/134/100 123/107/100 171/151/100
f 173/152/101 125/104/101 127/105/101 174/132/101
f 172/131/102 125/104/102 173/152/102
f 175/153/103 127/105/103 129/125/103 176/154/103
f 174/132/104 127/105/104 175/153/104
f 177/155/105 129/125/105 131/127/105 178/156/105
f 176/154/106 129/125/106 177/155/106
f 179/157/107 131/127/107 133/129/107 180/158/107
f 178/156/108 131/127/108 179/157/108
f 181/159/109 133/123/109 135/121/109 182/147/109
f 180/149/110 133/123/110 181/159/110
f 183/160/111 135/121/111 137/119/111 184/145/111
f 182/147/112 135/121/112 183/160/112
f 185/161/113 137/119/113 139/117/113 186/143/113
f 184/145/114 137/119/114 185/161/114
f 187/162/115 139/117/115 141/115/115 188/141/115
f 186/143/116 139/117/116 187/162/116
f 189/163/117 141/115/117 143/112/117 190/138/117
f 188/141/118 141/115/118 189/163/118
f 191/164/119 143/112/119 145/113/119 192/139/119
f 190/138/120 143/112/120 191/164/120
f 193/165/121 145/129/121 147/127/121 194/156/121
f 192/158/122 145/129/122 193/165/122
f 195/166/123 147/127/123 149/125/123 196/154/123
f 194/156/124 147/127/124 195/166/124
f 197/167/125 149/125/125 105/105/125 152/132/125
f 196/154/126 149/125/126 197/167/126
f 102/168/30 148/169/30 146/170/30
f 146/170/30 144/171/30 142/172/30
f 142/172/30 140/173/30 138/174/30
f 138/174/30 136/175/30 134/176/30
f 134/176/30 132/177/30 130/178/30
f 130/178/30 128/179/30 126/102/30
f 126/102/30 124/180/30 122/181/30
f 122/181/30 120/182/30 118/183/30
f 118/183/30 116/184/30 114/185/30
f 114/185/30 112/186/30 110/187/30
f 110/187/30 108/188/30 106/189/30
f 106/189/30 103/190/30 102/168/30
f 102/168/30 146/170/30 142/172/30
f 142/172/30 138/174/30 134/176/30
f 134/176/30 130/178/30 126/102/30
f 126/102/30 122/181/30 118/183/30
f 118/183/30 114/185/30 110/187/30
f 110/187/30 106/189/30 102/168/30
f 102/168/30 142/172/30 134/176/30
f 134/176/30 126/102/30 118/183/30
f 118/183/30 110/187/30 102/168/30
f 134/176/30 118/183/30 102/168/30
f 198/191/127 199/192/127 200/193/127
f 201/194/128 202/195/128 203/196/128
f 204/197/129 205/198/129 202/195/129 201/194/129
f 204/197/129 201/194/129 206/199/129
f 207/200/130 208/201/130 198/191/130 200/193/130
f 207/200/130 200/193/130 209/202/130
f 199/192/131 203/203/131 202/204/131
f 199/192/131 202/204/131 200/193/131
f 210/205/132 211/206/132 199/192/132 198/191/132
f 210/205/132 198/191/132 212/207/132
f 213/208/133 214/209/133 201/194/133 203/196/133
f 213/208/133 203/196/133 215/210/133
f 214/209/30 216/211/30 206/199/30 201/194/30
f 217/212/29 212/207/29 198/191/29
f 218/213/29 217/212/29 198/191/29 208/201/29
f 219/214/134 215/215/134 203/203/134
f 211/206/134 219/214/134 203/203/134 199/192/134
f 220/216/135 209/217/135 200/193/135
f 205/218/135 220/216/135 200/193/135 202/204/135
f 221/219/136 222/220/136 223/221/136
f 224/192/137 225/222/137 226/223/137
f 227/224/129 223/221/129 228/225/129
f 223/221/129 227/224/129 229/226/129 221/219/129
f 222/220/138 224/192/138 226/223/138
f 222/220/138 226/223/138 223/221/138
f 230/227/130 225/228/130 231/229/130
f 225/228/130 230/227/130 232/230/130 226/231/130
f 233/232/139 234/233/139 222/220/139 221/219/139
f 233/232/139 221/219/139 235/234/139
f 236/235/140 237/236/140 225/222/140 224/192/140
f 236/235/140 224/192/140 238/237/140
f 239/238/141 238/237/141 224/192/141
f 234/233/141 239/238/141 224/192/141 222/220/141
f 240/239/30 235/234/30 221/219/30
f 241/240/30 240/239/30 221/219/30 229/226/30
f 237/241/29 242/242/29 231/229/29 225/228/29
f 243/243/135 223/244/135 226/245/135 232/246/135
f 228/247/135 223/244/135 243/243/135
usemtl mat_10
f 244/248/142 245/248/142 246/248/142 247/248/142
f 248/248/142 245/248/142 244/248/142
f 249/248/143 246/248/143 250/248/143 251/248/143
f 247/248/143 246/248/143 249/248/143
f 252/248/144 250/248/144 253/248/144 254/248/144
f 251/248/144 250/248/144 252/248/144
f 255/248/145 253/248/145 256/248/145 257/248/145
f 254/248/145 253/248/145 255/248/145
f 258/248/146 256/248/146 259/248/146 260/248/146
f 257/248/146 256/248/146 258/248/146
f 261/248/147 259/248/147 262/248/147 263/248/147
f 260/248/147 259/248/147 261/248/147
f 264/248/148 262/248/148 265/248/148 266/248/148
f 263/248/148 262/248/148 264/248/148
f 267/248/149 265/248/149 268/248/149 269/248/149
f 266/248/149 265/248/149 267/248/149
f 270/248/150 268/248/150 271/248/150 272/248/150
f 269/248/150 268/248/150 270/248/150
f 273/248/151 271/248/151 274/248/151 275/248/151
f 272/248/151 271/248/151 273/248/151
f 276/248/152 274/248/152 277/248/152 278/248/152
f 275/248/152 274/248/152 276/248/152
f 279/248/153 277/248/153 280/248/153 281/248/153
f 278/248/153 277/248/153 279/248/153
f 282/248/154 280/248/154 283/248/154 284/248/154
f 281/248/154 280/248/154 282/248/154
f 285/248/155 283/248/155 286/248/155 287/248/155
f 284/248/155 283/248/155 285/248/155
f 288/248/156 286/248/156 289/248/156 290/248/156
f 287/248/156 286/248/156 288/248/156
f 291/248/157 289/248/157 292/248/157 293/248/157
f 290/248/157 289/248/157 291/248/157
f 294/248/158 292/248/158 295/248/158 296/248/158
f 293/248/158 292/248/158 294/248/158
f 297/248/159 295/248/159 298/248/159 299/248/159
f 296/248/159 295/248/159 297/248/159
f 300/248/160 298/248/160 301/248/160 302/248/160
f 299/248/160 298/248/160 300/248/160
f 303/248/161 301/248/161 245/248/161 248/248/161
f 302/248/161 301/248/161 303/248/161
f 304/248/162 305/248/162 306/248/162
f 307/248/162 304/248/162 306/248/162 308/248/162
f 309/248/163 310/248/163 311/248/163
f 305/248/163 309/248/163 311/248/163 306/248/163
f 312/248/164 313/248/164 314/248/164
f 310/248/164 312/248/164 314/248/164 311/248/164
f 315/248/165 316/248/165 317/248/165
f 313/248/165 315/248/165 317/248/165 314/248/165
f 318/248/166 319/248/166 320/248/166
f 316/248/166 318/248/166 320/248/166 317/248/166
f 321/248/167 322/248/167 323/248/167
f 319/248/167 321/248/167 323/248/167 320/248/167
f 324/248/168 325/248/168 326/248/168
f 322/248/168 324/248/168 326/248/168 323/248/168
f 327/248/169 328/248/169 329/248/169
f 325/248/169 327/248/169 329/248/169 326/248/169
f 330/248/170 331/248/170 332/248/170
f 328/248/170 330/248/170 332/248/170 329/248/170
f 333/248/171 334/248/171 335/248/171
f 331/248/171 333/248/171 335/248/171 332/248/171
f 336/248/172 337/248/172 338/248/172
f 334/248/172 336/248/172 338/248/172 335/248/172
f 339/248/173 340/248/173 341/248/173
f 337/248/173 339/248/173 341/248/173 338/248/173
f 342/248/174 343/248/174 344/248/174
f 340/248/174 342/248/174 344/248/174 341/248/174
f 345/248/175 346/248/175 347/248/175
f 343/248/175 345/248/175 347/248/175 344/248/175
f 348/248/176 349/248/176 350/248/176
f 346/248/176 348/248/176 350/248/176 347/248/176
f 351/248/177 352/248/177 353/248/177
f 349/248/177 351/248/177 353/248/177 350/248/177
f 354/248/178 355/248/178 356/248/178
f 352/248/178 354/248/178 356/248/178 353/248/178
f 357/248/179 358/248/179 359/248/179
f 355/248/179 357/248/179 359/248/179 356/248/179
f 360/248/180 361/248/180 362/248/180
f 358/248/180 360/248/180 362/248/180 359/248/180
f 363/248/181 307/248/181 308/248/181
f 361/248/181 363/248/181 308/248/181 362/248/181
f 308/248/182 306/248/182 246/248/182
f 308/248/182 246/248/182 245/248/182
f 306/248/182 311/248/182 250/248/182
f 306/248/182 250/248/182 246/248/182
f 311/248/182 314/248/182 253/248/182
f 311/248/182 253/248/182 250/248/182
f 314/248/182 317/248/182 256/248/182
f 314/248/182 256/248/182 253/248/182
f 317/248/182 320/248/182 259/248/182
f 317/248/182 259/248/182 256/248/182
f 320/248/182 323/248/182 262/248/182
f 320/248/182 262/248/182 259/248/182
f 323/248/182 326/248/182 265/248/182
f 323/248/182 265/248/182 262/248/182
f 326/248/182 329/248/182 268/248/182
f 326/248/182 268/248/182 265/248/182
f 329/248/182 332/248/182 271/248/182
f 329/248/182 271/248/182 268/248/182
f 332/248/182 335/248/182 274/248/182
f 332/248/182 274/248/182 271/248/182
f 335/248/182 338/248/182 277/248/182
f 335/248/182 277/248/182 274/248/182
f 338/248/182 341/248/182 280/248/182
f 338/248/182 280/248/182 277/248/182
f 341/248/182 344/248/182 283/248/182
f 341/248/182 283/248/182 280/248/182
f 344/248/182 347/248/182 286/248/182
f 344/248/182 286/248/182 283/248/182
f 347/248/182 350/248/182 289/248/182
f 347/248/182 289/248/182 286/248/182
f 350/248/182 353/248/182 292/248/182
f 350/248/182 292/248/182 289/248/182
f 353/248/182 356/248/182 295/248/182
f 353/248/182 295/248/182 292/248/182
f 356/248/182 359/248/182 298/248/182
f 356/248/182 298/248/182 295/248/182
f 359/248/182 362/248/182 301/248/182
f 359/248/182 301/248/182 298/248/182
f 362/248/182 308/248/182 245/248/182
f 362/248/182 245/248/182 301/248/182
