# Authored in Blender; exported by tools-export-modern.py
mtllib materials.mtl
s off
v 0.022653660 0.826224543 0.000000000
v 0.000000000 0.810560887 0.011509956
v 0.000000000 0.822230762 0.017747632
v 0.027443441 0.834089355 0.000000000
v 0.000000000 0.789027264 0.000000000
v 0.000000000 0.899893202 0.081483552
v 0.000000000 0.910121953 0.089878066
v 0.045000076 0.934870720 0.065129280
v 0.045000076 0.855510465 0.000000000
v 0.031373835 1.000000000 0.161114971
v 0.000000000 0.973857972 0.167540507
v 0.000000000 0.982252467 0.177769238
v 0.027443268 1.000000000 0.165910719
v 0.045000076 1.000000000 0.144489412
v 0.000000000 1.000000000 0.210972591
v 0.022653444 1.000000000 0.826224394
v 0.000000000 0.988490144 0.810560887
v 0.000000000 0.982252467 0.822230762
v 0.027443268 1.000000000 0.834089281
v 0.000000000 1.000000000 0.789027425
v 0.000000000 0.918516448 0.899893202
v 0.000000000 0.910121953 0.910121934
v 0.045000076 0.934870720 0.934870720
v 0.045000076 1.000000000 0.855510588
v 0.031373842 0.838885036 1.000000000
v 0.000000000 0.832459513 0.973857952
v 0.000000000 0.822230762 0.982252467
v 0.027443268 0.834089281 1.000000000
v 0.045000076 0.855510588 1.000000000
v 0.000000000 0.789027307 1.000000000
v 0.022653444 0.173775725 1.000000000
v 0.000000000 0.189439232 0.988490144
v 0.000000000 0.177769358 0.982252467
v 0.027443268 0.165910839 1.000000000
v 0.000000000 0.210972760 1.000000000
v 0.000000000 0.100106917 0.918516448
v 0.000000000 0.089878186 0.910121934
v 0.045000076 0.065129399 0.934870720
v 0.045000076 0.144489531 1.000000000
v 0.031374053 0.000000000 0.838885073
v 0.000000000 0.026142216 0.832459493
v 0.000000000 0.017747702 0.822230762
v 0.027443539 0.000000000 0.834089398
v 0.045000076 0.000000000 0.855510381
v 0.000000000 0.000000000 0.789027128
v 0.022653787 0.000000000 0.173775369
v 0.000000000 0.011510025 0.189439113
v 0.000000000 0.017747702 0.177769238
v 0.027443539 0.000000000 0.165910602
v 0.000000000 0.000000000 0.210972868
v 0.000000000 0.081483671 0.100106798
v 0.000000000 0.089878186 0.089878066
v 0.045000076 0.065129399 0.065129280
v 0.045000076 0.000000000 0.144489619
v 0.031373978 0.161115061 0.000000000
v 0.000000000 0.167540626 0.026142147
v 0.000000000 0.177769358 0.017747632
v 0.027443441 0.165910764 0.000000000
v 0.045000076 0.144489655 0.000000000
v 0.000000000 0.210972859 0.000000000
v 0.218377388 1.000000000 0.000000000
v 0.218377262 1.000000000 0.000000086
v 0.153357773 1.000000000 0.054186195
v 0.218377262 1.000000000 0.999999914
v 0.153357773 0.945813832 1.000000000
v 0.218377388 1.000000000 1.000000000
v 0.218377609 0.000000000 1.000000000
v 0.218377752 0.000000000 1.000000000
v 0.153357971 0.000000000 0.945813825
v 0.218377752 0.000000000 0.000000000
v 0.153357795 0.054186312 0.000000000
v 0.218377609 0.000000000 0.000000000
v 1.000000000 0.440000057 0.000000000
v 1.000000000 0.440000057 0.408270763
v 0.354918137 0.440000057 1.000000000
v 0.000000000 0.440000057 1.000000000
v 0.000000000 0.440000057 0.000000000
v 1.000000000 0.440000057 1.000000000
v 1.000000000 0.559999943 1.000000000
v 1.000000000 0.559999943 0.408270763
v 0.354918137 0.559999943 1.000000000
v 0.000000000 0.559999943 0.000000000
v 0.000000000 0.559999943 1.000000000
v 1.000000000 0.559999943 0.000000000
vt 0.641804896 0.083738574
vt 0.640625016 0.082718805
vt 0.640625016 0.083478562
vt 0.642054364 0.084250606
vt 0.640625016 0.081316875
vt 0.714747179 0.088534710
vt 0.714200653 0.089200644
vt 0.715811908 0.090811893
vt 0.720052098 0.084250606
vt 0.718896654 0.083478562
vt 0.720052097 0.085645210
vt 0.709562824 0.095052075
vt 0.709144492 0.093350119
vt 0.708478558 0.093896638
vt 0.709250600 0.095052075
vt 0.710645220 0.095052076
vt 0.642054355 0.084250602
vt 0.640625016 0.083478563
vt 0.640625016 0.081316887
vt 0.641804885 0.041261439
vt 0.640625016 0.042281198
vt 0.640625016 0.041521440
vt 0.642054355 0.040749402
vt 0.640625016 0.043683114
vt 0.661465281 0.089747163
vt 0.660799347 0.089200644
vt 0.659188092 0.090811893
vt 0.665749400 0.095052075
vt 0.666521442 0.093896638
vt 0.664354780 0.095052076
vt 0.654947912 0.084562825
vt 0.656649872 0.084144496
vt 0.656103346 0.083478562
vt 0.654947909 0.084250601
vt 0.654947910 0.085645218
vt 0.642054355 0.084250601
vt 0.640625016 0.081316877
vt 0.640625016 0.043683120
vt 0.660252821 0.036465292
vt 0.660799347 0.035799359
vt 0.659188092 0.034188110
vt 0.654947909 0.040749402
vt 0.656103346 0.041521440
vt 0.654947910 0.039354786
vt 0.665437173 0.029947914
vt 0.665855508 0.031649881
vt 0.666521442 0.031103364
vt 0.665749393 0.029947914
vt 0.664354793 0.029947914
vt 0.642054369 0.040749394
vt 0.640625016 0.043683133
vt 0.641804903 0.083738580
vt 0.642054369 0.084250609
vt 0.640625016 0.081316868
vt 0.713534719 0.035252842
vt 0.714200653 0.035799359
vt 0.715811908 0.034188110
vt 0.709250607 0.029947914
vt 0.708478558 0.031103364
vt 0.710645207 0.029947914
vt 0.720052095 0.040437177
vt 0.718350128 0.040855507
vt 0.718896654 0.041521440
vt 0.720052098 0.040749397
vt 0.720052097 0.039354794
vt 0.642054364 0.040749397
vt 0.640625016 0.043683127
vt 0.651998833 0.095052076
vt 0.642968774 0.085645210
vt 0.642968774 0.090811893
vt 0.651998827 0.095052076
vt 0.648612398 0.091524333
vt 0.642968774 0.085645218
vt 0.642968774 0.039354786
vt 0.642968774 0.034188110
vt 0.651998827 0.029947927
vt 0.651998845 0.029947915
vt 0.651998852 0.029947915
vt 0.648612409 0.033475668
vt 0.642968774 0.039354799
vt 0.642968774 0.085645205
vt 0.651998852 0.095052088
vt 0.648612399 0.033475670
vt 0.642968774 0.039354794
vt 0.693080325 0.092781009
vt 0.693080325 0.068055308
vt 0.657082432 0.032218991
vt 0.637276721 0.032218991
vt 0.637276721 0.092781009
vt 0.693080325 0.032218991
vt 0.693066160 0.032579508
vt 0.693045961 0.068929871
vt 0.657068266 0.032579508
vt 0.637273711 0.092858704
vt 0.637273679 0.032296685
vt 0.693045975 0.093655572
vn -0.612093591 0.372773564 -0.697410429
vn -0.612093568 0.372773485 -0.697410491
vn -0.612093553 0.501668749 -0.611285488
vn -0.612093607 0.501668902 -0.611285309
vn -0.612093795 0.611285448 -0.501668503
vn -0.612093563 0.611284952 -0.501669391
vn -0.612093761 0.697410533 -0.372773089
vn -0.612093783 0.697410297 0.372773494
vn -0.612093675 0.697410592 0.372773121
vn -0.612093515 0.611285616 0.501668640
vn -0.612093747 0.611284842 0.501669300
vn -0.612093787 0.501668634 0.611285349
vn -0.612093593 0.501669376 0.611284934
vn -0.612093713 0.372772216 0.697411042
vn -0.612093783 -0.372773494 0.697410297
vn -0.612093441 -0.372772315 0.697411228
vn -0.612093728 -0.501669246 0.611284906
vn -0.612093747 -0.501669300 0.611284842
vn -0.612093667 -0.611284943 0.501669276
vn -0.612093717 -0.611285051 0.501669081
vn -0.612093681 -0.697410425 0.372773423
vn -0.612093687 -0.697410363 -0.372773529
vn -0.612093659 -0.697410440 -0.372773431
vn -0.612093728 -0.611284906 -0.501669246
vn -0.612093677 -0.611285075 -0.501669101
vn -0.612093582 -0.501669317 -0.611284993
vn -0.612093703 -0.501668855 -0.611285252
vn -0.612093586 -0.372773478 -0.697410479
vn -0.467390616 0.560835970 -0.683380588
vn -0.467390389 0.683380251 -0.560836568
vn -0.467390647 0.683380835 -0.560835642
vn -0.467390691 0.683380128 0.560836467
vn -0.467390498 0.560836531 0.683380207
vn -0.467390622 0.560836086 0.683380488
vn -0.467390480 -0.560836538 0.683380214
vn -0.467390470 -0.683380433 0.560836280
vn -0.467390477 -0.683380450 0.560836253
vn -0.467390478 -0.683380429 -0.560836277
vn -0.467390483 -0.560836014 -0.683380642
vn -0.467390457 -0.560836108 -0.683380582
vn 0.000000000 -1.000000000 0.000000000
vn -0.000000000 1.000000000 0.000000000
usemtl mat_0
f 1/1/1 2/2/1 3/3/1 4/4/1
f 5/5/2 2/2/2 1/1/2
f 6/6/3 7/7/3 8/8/3
f 4/9/4 3/10/4 6/6/4
f 4/9/4 6/6/4 8/8/4
f 4/9/4 8/8/4 9/11/4
f 10/12/5 11/13/5 12/14/5 13/15/5
f 7/7/6 11/13/6 10/12/6
f 7/7/6 10/12/6 14/16/6
f 7/7/6 14/16/6 8/8/6
f 13/17/7 12/18/7 15/19/7
f 16/20/8 17/21/8 18/22/8 19/23/8
f 20/24/9 17/21/9 16/20/9
f 21/25/10 22/26/10 23/27/10
f 19/28/11 18/29/11 21/25/11
f 19/28/11 21/25/11 23/27/11
f 19/28/11 23/27/11 24/30/11
f 25/31/12 26/32/12 27/33/12 28/34/12
f 22/26/13 26/32/13 25/31/13
f 22/26/13 25/31/13 29/35/13
f 22/26/13 29/35/13 23/27/13
f 28/36/14 27/3/14 30/37/14
f 31/20/15 32/21/15 33/22/15 34/23/15
f 35/38/16 32/21/16 31/20/16
f 36/39/17 37/40/17 38/41/17
f 34/42/18 33/43/18 36/39/18
f 34/42/18 36/39/18 38/41/18
f 34/42/18 38/41/18 39/44/18
f 40/45/19 41/46/19 42/47/19 43/48/19
f 37/40/20 41/46/20 40/45/20
f 37/40/20 40/45/20 44/49/20
f 37/40/20 44/49/20 38/41/20
f 43/50/21 42/22/21 45/51/21
f 46/52/22 47/2/22 48/18/22 49/53/22
f 50/54/23 47/2/23 46/52/23
f 51/55/24 52/56/24 53/57/24
f 49/58/25 48/59/25 51/55/25
f 49/58/25 51/55/25 53/57/25
f 49/58/25 53/57/25 54/60/25
f 55/61/26 56/62/26 57/63/26 58/64/26
f 52/56/27 56/62/27 55/61/27
f 52/56/27 55/61/27 59/65/27
f 52/56/27 59/65/27 53/57/27
f 58/66/28 57/22/28 60/67/28
f 61/68/29 9/69/29 8/70/29 62/71/29
f 63/72/30 8/70/30 14/73/30
f 62/71/31 8/70/31 63/72/31
f 24/74/32 23/75/32 64/76/32
f 65/72/33 23/70/33 29/73/33
f 66/68/34 64/71/34 23/70/34 65/72/34
f 67/77/35 39/74/35 38/75/35 68/78/35
f 69/79/36 38/75/36 44/80/36
f 68/78/37 38/75/37 69/79/37
f 54/81/38 53/70/38 70/82/38
f 71/83/39 53/75/39 59/84/39
f 72/77/40 70/78/40 53/75/40 71/83/40
f 73/85/41 74/86/41 75/87/41
f 73/85/41 75/87/41 76/88/41
f 73/85/41 76/88/41 77/89/41
f 78/90/41 75/87/41 74/86/41
f 79/91/42 80/92/42 81/93/42
f 82/94/42 83/95/42 81/93/42
f 82/94/42 81/93/42 80/92/42
f 82/94/42 80/92/42 84/96/42
