# Authored in Blender; exported by tools-export-modern.py
mtllib materials.mtl
s off
v 0.349479321 0.000000000 0.983400894
v 0.000000000 0.000000000 0.983400894
v 0.000000000 0.009117126 0.990883112
v 0.539999962 0.009117126 0.990883112
v 0.539999962 0.000000000 0.983400894
v 0.000000000 0.016599160 1.000000000
v 0.539999962 0.016599160 1.000000000
v 0.636226002 0.000000000 0.983400894
v 0.644999981 0.009117126 0.990883112
v 0.644999981 0.000000000 0.983400894
v 0.548773730 0.016599160 1.000000000
v 0.644999981 0.016599160 1.000000000
v 0.655445998 0.000000000 1.000000000
v 0.655445881 0.000000227 1.000000000
v 0.650285624 0.008200076 1.000000000
v 0.636150954 0.000000000 0.941688585
v 0.517499924 0.000000000 0.941688585
v 0.517499924 0.032027483 0.967972815
v 0.682499886 0.032027483 0.967972815
v 0.682499886 0.000000000 0.941688585
v 0.563848497 0.058311409 1.000000000
v 0.517499924 0.058311409 1.000000000
v 0.682499886 0.058311409 1.000000000
v 0.517499924 0.053427349 1.000000000
v 0.517499924 0.000000000 0.946572768
v 0.517499924 0.045293565 1.000000000
v 0.517499924 0.000000000 0.954706602
v 0.517499924 0.000000000 1.000000000
v 0.682499886 0.043608855 1.000000000
v 0.682499886 0.000000000 0.956391107
v 0.682499886 0.001932920 1.000000000
v 0.682499886 0.000000000 0.997107180
v 0.682499886 0.000000000 1.000000000
vt 0.728710058 0.103190085
vt 0.713541678 0.103190085
vt 0.713541678 0.103932038
vt 0.736979187 0.103932038
vt 0.736979187 0.103190085
vt 0.713541678 0.103190104
vt 0.736979187 0.103190104
vt 0.741155627 0.103190085
vt 0.741536438 0.103932038
vt 0.741536438 0.103190085
vt 0.737359989 0.103190104
vt 0.741536438 0.103190104
vt 0.728190092 0.103190085
vt 0.729540929 0.103190085
vt 0.728932023 0.103932038
vt 0.728190092 0.103190104
vt 0.728190089 0.103857409
vt 0.728190091 0.104540928
vt 0.713175467 0.101437882
vt 0.628906250 0.101437882
vt 0.628906250 0.103932045
vt 0.746093750 0.103932045
vt 0.746093750 0.101437882
vt 0.661824278 0.101437896
vt 0.628906250 0.103932038
vt 0.628906250 0.101437896
vt 0.746093750 0.101437896
vt 0.746093750 0.103932038
vt 0.726437882 0.105598576
vt 0.726437889 0.105978933
vt 0.728932023 0.103932045
vt 0.730598566 0.101437883
vt 0.730978935 0.101437882
vt 0.726437882 0.104965153
vt 0.729965141 0.101437881
vt 0.726437883 0.101437882
vt 0.726437908 0.104833969
vt 0.729833983 0.101437892
vt 0.726437908 0.101588417
vt 0.726663188 0.101437889
vt 0.726437907 0.101437889
vn 0.000000000 0.634392575 -0.773011035
vn 0.000000000 0.773010562 -0.634393151
vn 0.775504548 0.400518664 -0.488034317
vn 0.775504461 0.488034102 -0.400519097
vn 0.775504627 0.488033727 -0.400519231
vn 0.000000000 0.634392617 -0.773011001
vn 0.000000000 0.773011702 -0.634391763
vn -1.000000000 0.000000000 0.000000000
vn 1.000000000 0.000000000 0.000000000
usemtl mat_0
f 1/1/1 2/2/1 3/3/1 4/4/1
f 1/1/1 4/4/1 5/5/1
f 3/3/2 6/6/2 7/7/2 4/4/2
f 8/8/1 5/5/1 4/4/1 9/9/1
f 8/8/1 9/9/1 10/10/1
f 11/11/2 4/4/2 7/7/2
f 4/4/2 11/11/2 12/12/2 9/9/2
f 13/13/3 10/14/3 9/15/3 14/16/3
f 15/17/4 9/15/4 12/18/4
f 14/16/5 9/15/5 15/17/5
f 16/19/6 17/20/6 18/21/6 19/22/6
f 16/19/6 19/22/6 20/23/6
f 21/24/7 18/25/7 22/26/7
f 18/25/7 21/24/7 23/27/7 19/28/7
f 24/29/8 22/30/8 18/31/8
f 25/32/8 18/31/8 17/33/8
f 26/34/8 24/29/8 18/31/8
f 27/35/8 18/31/8 25/32/8
f 28/36/8 26/34/8 18/31/8 27/35/8
f 29/37/9 30/38/9 20/33/9
f 29/37/9 20/33/9 19/31/9
f 29/37/9 19/31/9 23/30/9
f 31/39/9 32/40/9 30/38/9 29/37/9
f 33/41/9 32/40/9 31/39/9
