# Authored in Blender; exported by tools-export-modern.py
mtllib materials.mtl
s off
v 0.149714102 0.991800219 1.000000000
v 0.144553891 1.000000000 1.000000000
v 0.154999733 0.990883172 0.990883112
v 0.154999733 0.983401133 1.000000000
v 0.144553918 1.000000000 0.999999946
v 0.154999733 1.000000000 0.983401126
v 0.251226202 0.983401133 1.000000000
v 0.259999990 0.990883172 0.990883112
v 0.259999990 0.983401133 1.000000000
v 0.163773459 1.000000000 0.983401126
v 0.259999990 1.000000000 0.983401126
v 1.000000000 0.983401133 1.000000000
v 1.000000000 0.990883172 0.990883112
v 0.450514716 1.000000000 0.983401126
v 1.000000000 1.000000000 0.983401126
v 0.266151255 0.941688848 1.000000000
v 0.147500038 0.941688848 1.000000000
v 0.147500038 0.967972875 0.967972815
v 0.312499762 0.967972875 0.967972815
v 0.312499762 0.941688848 1.000000000
v 0.193848434 1.000000000 0.941688851
v 0.147500038 1.000000000 0.941688851
v 0.312499762 1.000000000 0.941688851
v 0.147500038 1.000000000 0.946572976
v 0.147500038 0.946573001 1.000000000
v 0.147500038 1.000000000 0.954706741
v 0.147500038 0.954706778 1.000000000
v 0.147500038 1.000000000 1.000000000
v 0.312499762 1.000000000 0.956391251
v 0.312499762 0.956391239 1.000000000
v 0.312499762 1.000000000 0.998067197
v 0.312499762 0.997107357 1.000000000
v 0.312499762 1.000000000 1.000000000
v 0.697999716 0.438000023 0.736439943
v 0.715999842 0.438000023 0.754439950
v 0.697999716 0.420000017 0.754439950
v 0.355999708 0.438000023 0.754439950
v 0.373999834 0.438000023 0.736439943
v 0.373999834 0.420000017 0.754439950
v 0.363323236 0.430676544 1.000000000
v 0.355999708 0.438000023 1.000000000
v 0.373999834 0.420000017 1.000000000
v 0.705323244 0.427323496 1.000000000
v 0.697999716 0.420000017 1.000000000
v 0.715999842 0.438000023 1.000000000
v 0.712789293 1.000000000 0.751229423
v 0.697999716 1.000000000 0.736439943
v 0.715999842 1.000000000 0.754439950
v 0.370789286 1.000000000 0.739650470
v 0.355999708 1.000000000 0.754439950
v 0.373999834 1.000000000 0.736439943
v 0.505822371 0.420000017 1.000000000
v 0.355999708 0.843707872 1.000000000
v 0.355999708 1.000000000 1.000000000
v 0.715999842 1.000000000 0.828282053
v 0.715999842 0.716292130 1.000000000
v 0.715999842 1.000000000 1.000000000
v 0.431789280 1.000000000 0.736439943
v 0.840499759 0.393000007 0.638939977
v 0.858499765 0.393000007 0.656939983
v 0.840499759 0.375000000 0.656939983
v 0.213499784 0.393000007 0.656939983
v 0.231499791 0.393000007 0.638939977
v 0.231499791 0.375000000 0.656939983
v 0.858499765 0.507000029 0.656939983
v 0.840499759 0.507000029 0.638939977
v 0.840499759 0.525000036 0.656939983
v 0.213499784 0.507000029 0.656939983
v 0.231499791 0.525000036 0.656939983
v 0.231499791 0.507000029 0.638939977
v 0.221360082 0.385139709 1.000000000
v 0.213499784 0.393000007 1.000000000
v 0.231499791 0.375000000 1.000000000
v 0.848360056 0.382860297 1.000000000
v 0.840499759 0.375000000 1.000000000
v 0.858499765 0.393000007 1.000000000
v 0.223639494 0.517139738 1.000000000
v 0.231499791 0.525000036 1.000000000
v 0.213499784 0.507000029 1.000000000
v 0.850639468 0.514860327 1.000000000
v 0.858499765 0.507000029 1.000000000
v 0.840499759 0.525000036 1.000000000
v 0.497439742 0.375000000 1.000000000
v 0.213499784 0.457218154 1.000000000
v 0.858499765 0.442781882 1.000000000
v 0.497439742 0.525000036 1.000000000
v 0.318262664 0.584461979 1.000000000
v 0.296000123 0.534000039 0.961439967
v 0.318262664 0.534000039 1.000000000
v 0.318262664 0.585000038 1.000000000
v 0.296000123 0.585000038 0.961439967
v 0.363737496 0.534538098 1.000000000
v 0.363737496 0.534000039 1.000000000
v 0.386000037 0.534000039 0.961439967
v 0.386000037 0.585000038 0.961439967
v 0.363737496 0.585000038 1.000000000
v 0.363500118 0.534000039 0.922468841
v 0.363500118 0.585000038 0.922468841
v 0.318500042 0.534000039 0.922468841
v 0.318500042 0.585000038 0.922468841
v 0.363500118 0.534000039 1.000000000
v 0.362787981 0.534000039 1.000000000
v 0.318500042 0.585000038 1.000000000
v 0.319212179 0.585000038 1.000000000
v 0.708262530 0.584461979 1.000000000
v 0.685999990 0.534000039 0.961439967
v 0.708262530 0.534000039 1.000000000
v 0.708262530 0.585000038 1.000000000
v 0.685999990 0.585000038 0.961439967
v 0.753737363 0.534538098 1.000000000
v 0.753737363 0.534000039 1.000000000
v 0.775999904 0.534000039 0.961439967
v 0.775999904 0.585000038 0.961439967
v 0.753737363 0.585000038 1.000000000
v 0.753499985 0.534000039 0.922468841
v 0.753499985 0.585000038 0.922468841
v 0.708499908 0.534000039 0.922468841
v 0.708499908 0.585000038 0.922468841
v 0.753499985 0.534000039 1.000000000
v 0.752787848 0.534000039 1.000000000
v 0.708499908 0.585000038 1.000000000
v 0.709212045 0.585000038 1.000000000
v 1.000000000 0.003619801 0.600619625
v 0.000000000 0.001467720 0.598467544
v 0.000000000 0.000000000 0.596999824
v 1.000000000 0.000000000 0.596999824
v 1.000000000 0.018000007 0.614999831
v 0.000000000 0.018000007 0.614999831
v 0.000000000 0.016532287 0.226467550
v 1.000000000 0.014380206 0.228619631
v 1.000000000 0.000000000 0.242999837
v 0.000000000 0.000000000 0.242999837
v 0.000000000 0.018000007 0.224999830
v 1.000000000 0.018000007 0.224999830
v 1.000000000 0.375619810 0.611380030
v 0.000000000 0.373467728 0.613532111
v 0.000000000 0.372000009 0.614999831
v 1.000000000 0.372000009 0.614999831
v 1.000000000 0.390000015 0.596999824
v 0.000000000 0.390000015 0.596999824
v 0.000000000 0.388532296 0.241532117
v 1.000000000 0.386380215 0.239380036
v 1.000000000 0.372000009 0.224999830
v 0.000000000 0.372000009 0.224999830
v 0.000000000 0.390000015 0.242999837
v 1.000000000 0.390000015 0.242999837
v 1.000000000 0.089189394 0.614999831
v 0.000000000 0.046865149 0.614999831
v 1.000000000 0.000000000 0.525810439
v 0.000000000 0.000000000 0.568134683
v 0.000000000 0.343134867 0.224999830
v 1.000000000 0.300810621 0.224999830
v 1.000000000 0.390000015 0.525810439
v 0.000000000 0.390000015 0.568134683
v 0.118999839 0.077999994 0.449999928
v 0.136999846 0.077999994 0.467999935
v 0.118999839 0.060000002 0.467999935
v 0.136999846 0.342000008 0.467999935
v 0.118999839 0.342000008 0.449999928
v 0.118999839 0.360000014 0.467999935
v 0.000000000 0.067285704 0.460714227
v 0.000000000 0.060000002 0.467999935
v 0.000000000 0.077999994 0.449999928
v 0.132360309 0.073360461 1.000000000
v 0.118999839 0.060000002 1.000000000
v 0.136999846 0.077999994 1.000000000
v 0.123639376 0.355360477 1.000000000
v 0.136999846 0.342000008 1.000000000
v 0.118999839 0.360000014 1.000000000
v 0.000000000 0.349285715 0.457285636
v 0.000000000 0.342000008 0.449999928
v 0.000000000 0.360000014 0.467999935
v 0.043220772 0.060000002 1.000000000
v 0.000000000 0.060000002 1.000000000
v 0.136999846 0.273953489 1.000000000
v 0.000000000 0.184857009 0.449999928
v 0.043220772 0.360000014 1.000000000
v 0.000000000 0.360000014 1.000000000
v 0.000000000 0.267538312 0.315961624
v 1.000000000 0.265884508 0.317615424
v 1.000000000 0.254999995 0.328499913
v 0.000000000 0.254999995 0.328499913
v 0.000000000 0.268500000 0.314999938
v 1.000000000 0.268500000 0.314999938
v 0.000000000 0.329038295 0.327538227
v 1.000000000 0.327384491 0.325884427
v 1.000000000 0.316499978 0.314999938
v 0.000000000 0.316499978 0.314999938
v 0.000000000 0.329999983 0.328499913
v 1.000000000 0.329999983 0.328499913
v 1.000000000 0.254999995 1.000000000
v 0.000000000 0.254999995 1.000000000
v 0.000000000 0.313080646 0.314999938
v 1.000000000 0.307200459 0.314999938
v 0.000000000 0.329999983 1.000000000
v 1.000000000 0.329999983 1.000000000
vt 0.728190089 0.021142593
vt 0.728190092 0.021809894
vt 0.728932023 0.021067964
vt 0.728190091 0.020459074
vt 0.728190097 0.021809894
vt 0.729540910 0.021809893
vt 0.637640011 0.103190104
vt 0.633463562 0.103190104
vt 0.633463562 0.103932038
vt 0.638020813 0.103932038
vt 0.638020813 0.103190104
vt 0.633844361 0.021809893
vt 0.633463562 0.021067964
vt 0.633463562 0.021809893
vt 0.638020813 0.021809893
vt 0.638020813 0.021067964
vt 0.670138883 0.103190104
vt 0.670138883 0.103932038
vt 0.646289685 0.021809893
vt 0.670138883 0.021809893
vt 0.670138883 0.021067964
vt 0.713175722 0.101437896
vt 0.628906250 0.101437896
vt 0.628906250 0.103932038
vt 0.746093750 0.103932038
vt 0.746093750 0.101437896
vt 0.661824200 0.023562101
vt 0.628906250 0.021067964
vt 0.628906250 0.023562101
vt 0.746093750 0.023562101
vt 0.746093750 0.021067964
vt 0.730598550 0.023562101
vt 0.730978914 0.023562101
vt 0.726437882 0.019401431
vt 0.726437889 0.019021075
vt 0.729965130 0.023562102
vt 0.726437882 0.020034856
vt 0.726437883 0.023562102
vt 0.729833972 0.023562101
vt 0.726437908 0.020166035
vt 0.726588422 0.023562104
vt 0.726437904 0.023336837
vt 0.726437903 0.023562104
vt 0.740234375 0.121093750
vt 0.746093750 0.116406254
vt 0.740234375 0.116406247
vt 0.628906250 0.116406254
vt 0.634765625 0.121093750
vt 0.634765625 0.116406247
vt 0.632680381 0.051937011
vt 0.630296436 0.051937014
vt 0.634765625 0.052458325
vt 0.742618319 0.052458328
vt 0.740234375 0.052458325
vt 0.746093750 0.052110783
vt 0.742160058 0.098307294
vt 0.740234375 0.006835938
vt 0.740234375 0.098307288
vt 0.742369068 0.098307294
vt 0.741406202 0.006835938
vt 0.745257678 0.098307294
vt 0.741406262 0.006835939
vt 0.741406262 0.098307294
vt 0.746093750 0.098307295
vt 0.746093750 0.006835942
vt 0.677676623 0.052458325
vt 0.677458323 0.072869116
vt 0.676068172 0.007357254
vt 0.677458323 0.098307290
vt 0.723139373 0.098307294
vt 0.677935128 0.052130881
vt 0.677458334 0.006835939
vt 0.677935103 0.098307294
vt 0.653577252 0.098307288
vt 0.634765625 0.006835939
vt 0.634765576 0.098307288
vt 0.742823362 0.121093750
vt 0.746093690 0.117823392
vt 0.742823422 0.117823400
vt 0.628906250 0.117823392
vt 0.632176578 0.121093743
vt 0.632176578 0.117823407
vt 0.743640959 0.107031256
vt 0.742823362 0.107031249
vt 0.742823362 0.119458571
vt 0.746093750 0.107031263
vt 0.631255479 0.058533883
vt 0.629827382 0.058533877
vt 0.632176578 0.055494183
vt 0.744251493 0.055494177
vt 0.742823422 0.055494180
vt 0.746093724 0.057520645
vt 0.680494185 0.114952894
vt 0.680494185 0.121093750
vt 0.680494151 0.107031253
vt 0.680494151 0.112458049
vt 0.680851182 0.107031252
vt 0.680494185 0.120379695
vt 0.632176578 0.107031256
vt 0.632176638 0.117823400
vt 0.742823422 0.017968748
vt 0.746093750 0.017968744
vt 0.680494177 0.055494180
vt 0.680494177 0.068139170
vt 0.679573078 0.014929048
vt 0.680851182 0.056860834
vt 0.680494177 0.017968748
vt 0.632176578 0.017968748
vt 0.680494151 0.056208232
vt 0.742823396 0.056208231
vt 0.632176604 0.055494180
vt 0.995475576 0.119857401
vt 0.937500000 0.003906250
vt 0.995475576 0.003906250
vt 0.995475576 0.121093750
vt 0.937500000 0.121093750
vt 0.995475576 0.005142599
vt 0.878906250 0.003906250
vt 0.878906250 0.121093750
vt 0.908203125 0.003906250
vt 0.966796875 0.003906250
vt 0.966796875 0.121093750
vt 0.908203125 0.121093750
vt 0.996093750 0.062500000
vt 0.908203125 0.120475575
vt 0.878906250 0.062500000
vt 0.907894038 0.120475576
vt 0.909130386 0.120475576
vt 0.967105962 0.120475576
vt 0.966796875 0.120475575
vt 0.965869614 0.120475576
vt 0.027622770 0.134042975
vt 0.013671877 0.134204640
vt 0.013671877 0.134314895
vt 0.027622768 0.134314895
vt 0.027622770 0.132962734
vt 0.013671878 0.132962734
vt 0.013671884 0.245652742
vt 0.027622775 0.245006081
vt 0.027622768 0.240685090
vt 0.013671877 0.240685090
vt 0.013671885 0.246093764
vt 0.027622776 0.246093762
vt 0.027572615 0.241772760
vt 0.013614217 0.241126099
vt 0.013614216 0.240685077
vt 0.027572614 0.240685079
vt 0.030369677 0.246093750
vt 0.016829875 0.246093750
vt 0.013671876 0.240685076
vt 0.027622768 0.240685076
vt 0.027622768 0.240685087
vt 0.013671877 0.240685089
vt 0.013566740 0.240905588
vt 0.027363473 0.241228921
vt 0.027622769 0.154625696
vt 0.013671877 0.141746409
vt 0.027622768 0.155705937
vt 0.013671877 0.142988315
vt 0.013671877 0.232011670
vt 0.027622770 0.219294048
vt 0.027622770 0.134314907
vt 0.013671877 0.134314908
vt 0.027363473 0.156249779
vt 0.013566740 0.143208827
vt 0.013671877 0.134314896
vt 0.027622771 0.134314898
vt 0.114701703 0.246093750
vt 0.121093750 0.245089278
vt 0.114701711 0.245089293
vt 0.120340392 0.239062488
vt 0.114701703 0.239062503
vt 0.116048604 0.245591521
vt 0.072443242 0.245495858
vt 0.072443238 0.245089293
vt 0.072443237 0.246093750
vt 0.119446189 0.215401780
vt 0.114701711 0.215401791
vt 0.121093750 0.215919586
vt 0.087402596 0.243908654
vt 0.090588167 0.239062492
vt 0.087402597 0.245720972
vt 0.072443234 0.241501915
vt 0.072443234 0.239062503
vt 0.073244961 0.245388238
vt 0.114701711 0.135937497
vt 0.120089285 0.135937512
vt 0.087791526 0.215401791
vt 0.072443238 0.215401791
vt 0.090588167 0.212481824
vt 0.090401784 0.135937512
vt 0.072443238 0.177678519
vt 0.072443238 0.135937497
vt 0.088791255 0.215774569
vt 0.115701440 0.215774569
vt 0.073244961 0.215700737
vt 0.012419877 0.246046199
vt 0.026728483 0.245964426
vt 0.026728484 0.245426262
vt 0.012419877 0.245426265
vt 0.012419876 0.246093750
vt 0.026728481 0.246093750
vt 0.012419877 0.243971139
vt 0.026728483 0.241468846
vt 0.026728483 0.224999997
vt 0.012419877 0.224999995
vt 0.012411428 0.245449999
vt 0.026705506 0.245490888
vt 0.026762471 0.212175299
vt 0.012453864 0.212175302
vt 0.012419877 0.219657286
vt 0.026728483 0.210469491
vt 0.026728483 0.150000006
vt 0.012419877 0.150000006
vt 0.012411428 0.212246876
vt 0.026705506 0.212287764
vn -0.775504974 -0.488033717 -0.400518572
vn -0.775505152 -0.488033315 -0.400518717
vn -0.775505003 -0.400518702 -0.488033564
vn 0.000000000 -0.773010355 -0.634393404
vn 0.000000000 -0.634393197 -0.773010525
vn 0.000000000 -0.773010513 -0.634393212
vn 0.000000000 -0.634393013 -0.773010676
vn -1.000000000 0.000000000 0.000000000
vn 1.000000000 0.000000000 0.000000000
vn 0.577347720 -0.577351544 -0.577351544
vn -0.577347720 -0.577351544 -0.577351544
vn -0.707104440 -0.707109123 -0.000000000
vn -0.000000000 -0.707106781 -0.707106781
vn 0.707104440 -0.707109123 0.000000000
vn 0.707104440 0.000000000 -0.707109123
vn -0.707104440 0.000000000 -0.707109123
vn 0.000000000 -1.000000000 0.000000000
vn 0.000000000 0.000000000 -1.000000000
vn 0.577350269 -0.577350269 -0.577350269
vn -0.577350269 -0.577350269 -0.577350269
vn 0.577350269 0.577350269 -0.577350269
vn -0.577350269 0.577350269 -0.577350269
vn -0.707106781 -0.707106781 -0.000000000
vn 0.707106781 -0.707106781 0.000000000
vn -0.707106781 0.707106781 0.000000000
vn 0.707106781 0.707106781 0.000000000
vn 0.000000000 0.707106781 -0.707106781
vn 0.707106781 0.000000000 -0.707106781
vn -0.707106781 0.000000000 -0.707106781
vn -0.000000000 1.000000000 0.000000000
vn -0.866026420 0.000000000 0.499998240
vn 0.866026420 0.000000000 0.499998240
vn 0.866026089 0.000000000 -0.499998813
vn -0.866026089 0.000000000 -0.499998813
vn 0.000000000 -0.707106781 0.707106781
vn -0.000000000 0.707106781 0.707106781
vn 0.000000000 0.000000000 1.000000000
vn 0.577350110 -0.577350588 -0.577350110
vn -0.000000000 -0.707107074 -0.707106489
vn 0.707106489 -0.707107074 0.000000000
vn -0.000000000 -0.707106001 -0.707107562
vn 0.000000000 0.707106001 -0.707107562
usemtl mat_0
f 1/1/1 2/2/1 3/3/1
f 1/1/2 3/3/2 4/4/2
f 5/5/3 6/6/3 3/3/3
f 7/7/4 4/8/4 3/9/4 8/10/4
f 7/7/4 8/10/4 9/11/4
f 10/12/5 3/13/5 6/14/5
f 3/13/5 10/12/5 11/15/5 8/16/5
f 12/17/4 9/11/4 8/10/4 13/18/4
f 14/19/5 8/16/5 11/15/5
f 15/20/5 13/21/5 8/16/5 14/19/5
f 16/22/6 17/23/6 18/24/6 19/25/6
f 16/22/6 19/25/6 20/26/6
f 21/27/7 18/28/7 22/29/7
f 18/28/7 21/27/7 23/30/7 19/31/7
f 24/32/8 22/33/8 18/3/8
f 25/34/8 18/3/8 17/35/8
f 26/36/8 24/32/8 18/3/8
f 27/37/8 18/3/8 25/34/8
f 28/38/8 26/36/8 18/3/8 27/37/8
f 29/39/9 30/40/9 20/35/9
f 29/39/9 20/35/9 19/3/9
f 29/39/9 19/3/9 23/33/9
f 31/41/9 32/42/9 30/40/9 29/39/9
f 33/43/9 32/42/9 31/41/9
f 34/44/10 35/45/10 36/46/10
f 37/47/11 38/48/11 39/49/11
f 40/50/12 41/51/12 37/47/12 39/49/12
f 40/50/12 39/49/12 42/52/12
f 36/46/13 39/49/13 38/48/13
f 36/46/13 38/48/13 34/44/13
f 43/53/14 44/54/14 36/46/14 35/45/14
f 43/53/14 35/45/14 45/55/14
f 46/56/15 34/57/15 47/58/15
f 34/57/15 46/56/15 48/59/15 35/60/15
f 49/61/16 37/62/16 50/63/16
f 37/62/16 49/61/16 51/64/16 38/65/16
f 52/66/17 42/52/17 39/49/17 36/46/17
f 52/66/17 36/46/17 44/54/17
f 53/67/8 37/62/8 41/68/8
f 54/69/8 50/63/8 37/62/8 53/67/8
f 55/70/9 56/71/9 45/72/9
f 55/70/9 45/72/9 35/60/9
f 55/70/9 35/60/9 48/59/9
f 57/73/9 56/71/9 55/70/9
f 58/74/18 34/57/18 38/75/18 51/76/18
f 47/58/18 34/57/18 58/74/18
f 59/77/19 60/78/19 61/79/19
f 62/80/20 63/81/20 64/82/20
f 65/83/21 66/84/21 67/85/21
f 68/84/22 69/77/22 70/86/22
f 71/87/23 72/88/23 62/80/23 64/82/23
f 71/87/23 64/82/23 73/89/23
f 61/79/13 64/82/13 63/81/13
f 61/79/13 63/81/13 59/77/13
f 74/90/24 75/91/24 61/79/24 60/78/24
f 74/90/24 60/78/24 76/92/24
f 77/93/25 78/94/25 69/77/25 68/84/25
f 77/93/25 68/84/25 79/95/25
f 80/96/26 81/97/26 65/83/26 67/85/26
f 80/96/26 67/85/26 82/98/26
f 66/84/27 70/99/27 69/100/27
f 66/84/27 69/100/27 67/85/27
f 59/101/28 66/84/28 65/83/28
f 59/101/28 65/83/28 60/101/28
f 62/101/29 68/84/29 70/86/29
f 62/101/29 70/86/29 63/102/29
f 83/103/17 73/89/17 64/82/17 61/79/17
f 83/103/17 61/79/17 75/91/17
f 84/104/8 62/101/8 72/105/8
f 62/101/8 84/104/8 79/95/8 68/84/8
f 85/106/9 76/107/9 60/101/9 65/83/9
f 85/106/9 65/83/9 81/97/9
f 59/101/18 63/108/18 70/99/18
f 59/101/18 70/99/18 66/84/18
f 86/109/30 82/110/30 67/85/30
f 78/111/30 86/109/30 67/85/30 69/100/30
usemtl mat_1
f 87/112/31 88/113/31 89/114/31
f 88/113/31 87/112/31 90/115/31 91/116/31
f 92/117/32 93/114/32 94/113/32 95/116/32
f 92/117/32 95/116/32 96/115/32
f 94/113/33 97/118/33 98/119/33
f 94/113/33 98/119/33 95/116/33
f 97/120/18 99/121/18 100/122/18
f 97/120/18 100/122/18 98/123/18
f 99/118/34 88/113/34 91/116/34
f 99/118/34 91/116/34 100/119/34
f 88/124/17 99/121/17 97/120/17
f 101/125/17 97/120/17 94/126/17 93/127/17
f 102/128/17 89/129/17 88/124/17
f 97/120/17 101/125/17 102/128/17 88/124/17
f 103/130/30 100/121/30 91/124/30 90/129/30
f 104/131/30 96/127/30 95/126/30
f 95/126/30 98/120/30 100/121/30
f 103/130/30 104/131/30 95/126/30 100/121/30
f 105/112/31 106/113/31 107/114/31
f 106/113/31 105/112/31 108/115/31 109/116/31
f 110/117/32 111/114/32 112/113/32 113/116/32
f 110/117/32 113/116/32 114/115/32
f 112/113/33 115/118/33 116/119/33
f 112/113/33 116/119/33 113/116/33
f 115/120/18 117/121/18 118/122/18
f 115/120/18 118/122/18 116/123/18
f 117/118/34 106/113/34 109/116/34
f 117/118/34 109/116/34 118/119/34
f 106/124/17 117/121/17 115/120/17
f 119/125/17 115/120/17 112/126/17 111/127/17
f 120/128/17 107/129/17 106/124/17
f 115/120/17 119/125/17 120/128/17 106/124/17
f 121/130/30 118/121/30 109/124/30 108/129/30
f 122/131/30 114/127/30 113/126/30
f 113/126/30 116/120/30 118/121/30
f 121/130/30 122/131/30 113/126/30 118/121/30
usemtl mat_2
f 123/132/35 124/133/35 125/134/35 126/135/35
f 124/133/35 123/132/35 127/136/35 128/137/35
f 129/138/13 130/139/13 131/140/13 132/141/13
f 130/139/13 129/138/13 133/142/13 134/143/13
f 135/144/36 136/145/36 137/146/36 138/147/36
f 136/145/36 135/144/36 139/148/36 140/149/36
f 141/150/27 142/151/27 143/152/27 144/153/27
f 142/151/27 141/150/27 145/154/27 146/155/27
f 147/156/37 148/157/37 128/137/37 127/136/37
f 148/157/37 147/156/37 138/147/37 137/146/37
f 149/158/17 150/159/17 132/141/17 131/140/17
f 126/135/17 125/134/17 150/159/17 149/158/17
f 151/160/18 152/161/18 134/162/18 133/163/18
f 152/161/18 151/160/18 144/153/18 143/152/18
f 153/164/30 154/165/30 140/166/30 139/167/30
f 154/165/30 153/164/30 146/155/30 145/154/30
f 155/168/38 156/169/38 157/170/38
f 158/171/21 159/172/21 160/173/21
f 161/174/39 157/170/39 162/175/39
f 157/170/39 161/174/39 163/176/39 155/168/39
f 164/177/40 165/178/40 157/170/40 156/169/40
f 164/177/40 156/169/40 166/179/40
f 167/180/26 168/181/26 158/171/26 160/173/26
f 167/180/26 160/173/26 169/182/26
f 170/183/27 159/172/27 171/184/27
f 159/172/27 170/183/27 172/185/27 160/173/27
f 155/186/28 159/172/28 158/171/28
f 155/186/28 158/171/28 156/187/28
f 173/188/17 174/189/17 162/175/17 157/170/17
f 173/188/17 157/170/17 165/178/17
f 175/190/9 166/191/9 156/187/9 158/171/9
f 175/190/9 158/171/9 168/181/9
f 176/192/18 155/186/18 163/193/18
f 155/186/18 176/192/18 171/184/18 159/172/18
f 177/194/30 169/195/30 160/173/30
f 178/196/30 177/194/30 160/173/30 172/185/30
f 179/197/41 180/198/41 181/199/41 182/200/41
f 180/198/41 179/197/41 183/201/41 184/202/41
f 185/203/42 186/204/42 187/205/42 188/206/42
f 186/204/42 185/203/42 189/207/42 190/208/42
f 191/209/17 192/210/17 182/200/17 181/199/17
f 193/211/18 194/212/18 184/213/18 183/214/18
f 194/212/18 193/211/18 188/206/18 187/205/18
f 195/215/30 196/216/30 190/208/30 189/207/30
