# Authored in Blender; exported by tools-export-modern.py
mtllib materials.mtl
s off
v 0.031373835 0.000000000 0.161114971
v 0.027443268 0.000000000 0.165910719
v 0.045000076 0.011353970 0.158324242
v 0.045000076 0.000000000 0.144489412
v 0.000000000 0.029612513 0.266373796
v 0.000000000 0.035850190 0.278043671
v 0.045000076 0.068186045 0.264649749
v 0.000000000 0.000000000 0.210972591
v 0.000000000 0.065014335 0.374185035
v 0.000000000 0.068855483 0.386847607
v 0.045000076 0.103183031 0.380019426
v 0.000000000 0.078702962 0.486831383
v 0.000000000 0.079999961 0.500000000
v 0.045000076 0.115000010 0.500000000
v 0.000000000 0.070152483 0.599983776
v 0.000000000 0.068855483 0.613152393
v 0.045000076 0.103183031 0.619980574
v 0.000000000 0.039691338 0.709293757
v 0.000000000 0.035850190 0.721956329
v 0.045000076 0.068186045 0.735350251
v 0.022653444 0.000000000 0.826224394
v 0.027443268 0.000000000 0.834089281
v 0.045000076 0.011353970 0.841675758
v 0.000000000 0.000000000 0.789027425
v 0.045000076 0.000000000 0.855510588
v 0.153357773 0.000000000 0.054186195
v 0.525000095 0.223378658 0.016653895
v 0.218377492 0.000000086 0.000000000
v 0.218377262 0.000000000 0.000000086
v 0.525000095 0.209711172 0.000000000
v 0.525000095 0.303775072 0.167065382
v 0.525000095 0.353283167 0.330271482
v 0.525000095 0.370000124 0.500000000
v 0.525000095 0.353283167 0.669728518
v 0.525000095 0.303775072 0.832934618
v 0.525000095 0.223378658 0.983346105
v 0.322856241 0.071457234 1.000000000
v 0.218377262 0.000000000 0.999999914
v 0.218377492 0.000000086 1.000000000
v 0.525000095 0.209711172 1.000000000
v 1.000000000 0.229437698 0.000000000
v 1.000000000 0.236118907 0.008141085
v 1.000000000 0.278597689 0.087613233
v 1.000000000 0.317931419 0.161201650
v 1.000000000 0.344089705 0.247433992
v 1.000000000 0.368311408 0.327282140
v 1.000000000 0.377143963 0.416960778
v 1.000000000 0.385322690 0.500000000
v 1.000000000 0.376490134 0.589678638
v 1.000000000 0.368311408 0.672717860
v 1.000000000 0.342153121 0.758950203
v 1.000000000 0.317931419 0.838798350
v 1.000000000 0.275452637 0.918270529
v 1.000000000 0.236118907 0.991858946
v 0.626196523 0.213913799 1.000000000
v 1.000000000 0.229437713 1.000000000
v 0.239999771 0.504999876 0.432500005
v 0.250276089 0.556662321 0.432500005
v 0.250276089 0.556662321 0.327499986
v 0.239999771 0.504999876 0.327499986
v 0.279540539 0.600459576 0.432500005
v 0.279540539 0.600459576 0.327499986
v 0.323337555 0.629723787 0.432500005
v 0.323337555 0.629723787 0.327499986
v 0.375000000 0.639999866 0.432500005
v 0.375000000 0.639999866 0.327499986
v 0.426662445 0.629723787 0.432500005
v 0.426662445 0.629723787 0.327499986
v 0.470459461 0.600459576 0.432500005
v 0.470459461 0.600459576 0.327499986
v 0.499723911 0.556662321 0.432500005
v 0.499723911 0.556662321 0.327499986
v 0.510000229 0.504999876 0.432500005
v 0.510000229 0.504999876 0.327499986
v 0.499723911 0.453337669 0.432500005
v 0.499723911 0.453337669 0.327499986
v 0.470459461 0.409540653 0.432500005
v 0.470459461 0.409540653 0.327499986
v 0.426662445 0.380276203 0.432500005
v 0.426662445 0.380276203 0.327499986
v 0.375000000 0.370000124 0.432500005
v 0.375000000 0.370000124 0.327499986
v 0.323337555 0.380276203 0.432500005
v 0.323337555 0.380276203 0.327499986
v 0.279540539 0.409540653 0.432500005
v 0.279540539 0.409540653 0.327499986
v 0.250276089 0.453337669 0.432500005
v 0.250276089 0.453337669 0.327499986
v 0.303907394 0.534447670 0.327499986
v 0.298049927 0.504999876 0.327499986
v 0.320588112 0.559411764 0.327499986
v 0.345552444 0.576092482 0.327499986
v 0.375000000 0.581950188 0.327499986
v 0.404447556 0.576092482 0.327499986
v 0.429411888 0.559411764 0.327499986
v 0.446092606 0.534447670 0.327499986
v 0.451950073 0.504999876 0.327499986
v 0.446092606 0.475552559 0.327499986
v 0.429411888 0.450588226 0.327499986
v 0.404447556 0.433907509 0.327499986
v 0.375000000 0.428049803 0.327499986
v 0.345552444 0.433907509 0.327499986
v 0.320588112 0.450588226 0.327499986
v 0.303907394 0.475552559 0.327499986
v 0.303907394 0.534447670 0.432500005
v 0.298049927 0.504999876 0.432500005
v 0.320588112 0.559411764 0.432500005
v 0.345552444 0.576092482 0.432500005
v 0.375000000 0.581950188 0.432500005
v 0.404447556 0.576092482 0.432500005
v 0.429411888 0.559411764 0.432500005
v 0.446092606 0.534447670 0.432500005
v 0.451950073 0.504999876 0.432500005
v 0.446092606 0.475552559 0.432500005
v 0.429411888 0.450588226 0.432500005
v 0.404447556 0.433907509 0.432500005
v 0.375000000 0.428049803 0.432500005
v 0.345552444 0.433907509 0.432500005
v 0.320588112 0.450588226 0.432500005
v 0.303907394 0.475552559 0.432500005
v 0.500000000 0.050000191 0.250000000
v 0.422745705 0.050000191 0.262235880
v 0.422745705 0.920000076 0.262235880
v 0.500000000 0.920000076 0.250000000
v 0.353053570 0.050000191 0.297745705
v 0.353053570 0.920000076 0.297745705
v 0.297745705 0.050000191 0.353053689
v 0.297745705 0.920000076 0.353053689
v 0.262235641 0.050000191 0.422745705
v 0.262235641 0.920000076 0.422745705
v 0.250000000 0.050000191 0.500000000
v 0.250000000 0.920000076 0.500000000
v 0.262235641 0.050000191 0.577254295
v 0.262235641 0.920000076 0.577254295
v 0.297745705 0.050000191 0.646946311
v 0.297745705 0.920000076 0.646946311
v 0.353053570 0.050000191 0.702254295
v 0.353053570 0.920000076 0.702254295
v 0.422745705 0.050000191 0.737764120
v 0.422745705 0.920000076 0.737764120
v 0.500000000 0.050000191 0.750000000
v 0.500000000 0.920000076 0.750000000
v 0.577254295 0.050000191 0.737764120
v 0.577254295 0.920000076 0.737764120
v 0.646946430 0.050000191 0.702254295
v 0.646946430 0.920000076 0.702254295
v 0.702254295 0.050000191 0.646946311
v 0.702254295 0.920000076 0.646946311
v 0.737764359 0.050000191 0.577254295
v 0.737764359 0.920000076 0.577254295
v 0.750000000 0.050000191 0.500000000
v 0.750000000 0.920000076 0.500000000
v 0.737764359 0.050000191 0.422745705
v 0.737764359 0.920000076 0.422745705
v 0.702254295 0.050000191 0.353053689
v 0.702254295 0.920000076 0.353053689
v 0.646946430 0.050000191 0.297745705
v 0.646946430 0.920000076 0.297745705
v 0.577254295 0.050000191 0.262235880
v 0.577254295 0.920000076 0.262235880
v 0.436651707 0.920000076 0.305033445
v 0.500000000 0.920000076 0.294999957
v 0.379504204 0.920000076 0.334151506
v 0.334151745 0.920000076 0.379503965
v 0.305033207 0.920000076 0.436651468
v 0.295000076 0.920000076 0.500000000
v 0.305033207 0.920000076 0.563348532
v 0.334151745 0.920000076 0.620496035
v 0.379504204 0.920000076 0.665848494
v 0.436651707 0.920000076 0.694966555
v 0.500000000 0.920000076 0.705000043
v 0.563348293 0.920000076 0.694966555
v 0.620495796 0.920000076 0.665848494
v 0.665848255 0.920000076 0.620496035
v 0.694966793 0.920000076 0.563348532
v 0.704999924 0.920000076 0.500000000
v 0.694966793 0.920000076 0.436651468
v 0.665848255 0.920000076 0.379503965
v 0.620495796 0.920000076 0.334151506
v 0.563348293 0.920000076 0.305033445
v 0.436651707 0.050000191 0.305033445
v 0.500000000 0.050000191 0.294999957
v 0.379504204 0.050000191 0.334151506
v 0.334151745 0.050000191 0.379503965
v 0.305033207 0.050000191 0.436651468
v 0.295000076 0.050000191 0.500000000
v 0.305033207 0.050000191 0.563348532
v 0.334151745 0.050000191 0.620496035
v 0.379504204 0.050000191 0.665848494
v 0.436651707 0.050000191 0.694966555
v 0.500000000 0.050000191 0.705000043
v 0.563348293 0.050000191 0.694966555
v 0.620495796 0.050000191 0.665848494
v 0.665848255 0.050000191 0.620496035
v 0.694966793 0.050000191 0.563348532
v 0.704999924 0.050000191 0.500000000
v 0.694966793 0.050000191 0.436651468
v 0.665848255 0.050000191 0.379503965
v 0.620495796 0.050000191 0.334151506
v 0.563348293 0.050000191 0.305033445
v 0.500000000 0.880000114 0.090000033
v 0.373302937 0.880000114 0.110066891
v 0.373302937 0.974999905 0.110066891
v 0.500000000 0.974999905 0.090000033
v 0.259007931 0.880000114 0.168303013
v 0.259007931 0.974999905 0.168303013
v 0.168303013 0.880000114 0.259008050
v 0.168303013 0.974999905 0.259008050
v 0.110066891 0.880000114 0.373303056
v 0.110066891 0.974999905 0.373303056
v 0.090000153 0.880000114 0.500000000
v 0.090000153 0.974999905 0.500000000
v 0.110066891 0.880000114 0.626696944
v 0.110066891 0.974999905 0.626696944
v 0.168303013 0.880000114 0.740991950
v 0.168303013 0.974999905 0.740991950
v 0.259007931 0.880000114 0.831696987
v 0.259007931 0.974999905 0.831696987
v 0.373302937 0.880000114 0.889933109
v 0.373302937 0.974999905 0.889933109
v 0.500000000 0.880000114 0.909999967
v 0.500000000 0.974999905 0.909999967
v 0.626697063 0.880000114 0.889933109
v 0.626697063 0.974999905 0.889933109
v 0.740992069 0.880000114 0.831696987
v 0.740992069 0.974999905 0.831696987
v 0.831696987 0.880000114 0.740991950
v 0.831696987 0.974999905 0.740991950
v 0.889933109 0.880000114 0.626696944
v 0.889933109 0.974999905 0.626696944
v 0.909999847 0.880000114 0.500000000
v 0.909999847 0.974999905 0.500000000
v 0.889933109 0.880000114 0.373303056
v 0.889933109 0.974999905 0.373303056
v 0.831696987 0.880000114 0.259008050
v 0.831696987 0.974999905 0.259008050
v 0.740992069 0.880000114 0.168303013
v 0.740992069 0.974999905 0.168303013
v 0.626697063 0.880000114 0.110066891
v 0.626697063 0.974999905 0.110066891
v 0.436651707 0.974999905 0.305033445
v 0.500000000 0.974999905 0.294999957
v 0.379504204 0.974999905 0.334151506
v 0.334151745 0.974999905 0.379503965
v 0.305033207 0.974999905 0.436651468
v 0.295000076 0.974999905 0.500000000
v 0.305033207 0.974999905 0.563348532
v 0.334151745 0.974999905 0.620496035
v 0.379504204 0.974999905 0.665848494
v 0.436651707 0.974999905 0.694966555
v 0.500000000 0.974999905 0.705000043
v 0.563348293 0.974999905 0.694966555
v 0.620495796 0.974999905 0.665848494
v 0.665848255 0.974999905 0.620496035
v 0.694966793 0.974999905 0.563348532
v 0.704999924 0.974999905 0.500000000
v 0.694966793 0.974999905 0.436651468
v 0.665848255 0.974999905 0.379503965
v 0.620495796 0.974999905 0.334151506
v 0.563348293 0.974999905 0.305033445
v 0.436651707 0.880000114 0.305033445
v 0.500000000 0.880000114 0.294999957
v 0.379504204 0.880000114 0.334151506
v 0.334151745 0.880000114 0.379503965
v 0.305033207 0.880000114 0.436651468
v 0.295000076 0.880000114 0.500000000
v 0.305033207 0.880000114 0.563348532
v 0.334151745 0.880000114 0.620496035
v 0.379504204 0.880000114 0.665848494
v 0.436651707 0.880000114 0.694966555
v 0.500000000 0.880000114 0.705000043
v 0.563348293 0.880000114 0.694966555
v 0.620495796 0.880000114 0.665848494
v 0.665848255 0.880000114 0.620496035
v 0.694966793 0.880000114 0.563348532
v 0.704999924 0.880000114 0.500000000
v 0.694966793 0.880000114 0.436651468
v 0.665848255 0.880000114 0.379503965
v 0.620495796 0.880000114 0.334151506
v 0.563348293 0.880000114 0.305033445
v 0.500000000 0.974999905 0.118700027
v 0.382171631 0.974999905 0.137362123
v 0.382171631 1.000000000 0.137362123
v 0.500000000 1.000000000 0.118700027
v 0.275877476 0.974999905 0.191521883
v 0.275877476 1.000000000 0.191521883
v 0.191521645 0.974999905 0.275877476
v 0.191521645 1.000000000 0.275877476
v 0.137362003 0.974999905 0.382171869
v 0.137362003 1.000000000 0.382171869
v 0.118700027 0.974999905 0.500000000
v 0.118700027 1.000000000 0.500000000
v 0.137362003 0.974999905 0.617828131
v 0.137362003 1.000000000 0.617828131
v 0.191521645 0.974999905 0.724122524
v 0.191521645 1.000000000 0.724122524
v 0.275877476 0.974999905 0.808478117
v 0.275877476 1.000000000 0.808478117
v 0.382171631 0.974999905 0.862637877
v 0.382171631 1.000000000 0.862637877
v 0.500000000 0.974999905 0.881299973
v 0.500000000 1.000000000 0.881299973
v 0.617828369 0.974999905 0.862637877
v 0.617828369 1.000000000 0.862637877
v 0.724122524 0.974999905 0.808478117
v 0.724122524 1.000000000 0.808478117
v 0.808478355 0.974999905 0.724122524
v 0.808478355 1.000000000 0.724122524
v 0.862637997 0.974999905 0.617828131
v 0.862637997 1.000000000 0.617828131
v 0.881299973 0.974999905 0.500000000
v 0.881299973 1.000000000 0.500000000
v 0.862637997 0.974999905 0.382171869
v 0.862637997 1.000000000 0.382171869
v 0.808478355 0.974999905 0.275877476
v 0.808478355 1.000000000 0.275877476
v 0.724122524 0.974999905 0.191521883
v 0.724122524 1.000000000 0.191521883
v 0.617828369 0.974999905 0.137362123
v 0.617828369 1.000000000 0.137362123
v 0.436651707 1.000000000 0.305033445
v 0.500000000 1.000000000 0.294999957
v 0.379504204 1.000000000 0.334151506
v 0.334151745 1.000000000 0.379503965
v 0.305033207 1.000000000 0.436651468
v 0.295000076 1.000000000 0.500000000
v 0.305033207 1.000000000 0.563348532
v 0.334151745 1.000000000 0.620496035
v 0.379504204 1.000000000 0.665848494
v 0.436651707 1.000000000 0.694966555
v 0.500000000 1.000000000 0.705000043
v 0.563348293 1.000000000 0.694966555
v 0.620495796 1.000000000 0.665848494
v 0.665848255 1.000000000 0.620496035
v 0.694966793 1.000000000 0.563348532
v 0.704999924 1.000000000 0.500000000
v 0.694966793 1.000000000 0.436651468
v 0.665848255 1.000000000 0.379503965
v 0.620495796 1.000000000 0.334151506
v 0.563348293 1.000000000 0.305033445
v 0.500000000 0.859999895 0.141899943
v 0.522516727 0.859999895 0.154899955
v 0.522516727 0.859999895 0.180899978
v 0.500000000 0.859999895 0.193899989
v 0.477483273 0.859999895 0.180899978
v 0.477483273 0.859999895 0.154899955
v 0.522516727 0.982000113 0.154899955
v 0.500000000 0.982000113 0.141899943
v 0.477483273 0.982000113 0.154899955
v 0.477483273 0.982000113 0.180899978
v 0.500000000 0.982000113 0.193899989
v 0.522516727 0.982000113 0.180899978
v 0.265169621 0.859999895 0.239169836
v 0.287686348 0.859999895 0.252169847
v 0.287686348 0.859999895 0.278169870
v 0.265169621 0.859999895 0.291169882
v 0.242652893 0.859999895 0.278169870
v 0.242652893 0.859999895 0.252169847
v 0.287686348 0.982000113 0.252169847
v 0.265169621 0.982000113 0.239169836
v 0.242652893 0.982000113 0.252169847
v 0.242652893 0.982000113 0.278169870
v 0.265169621 0.982000113 0.291169882
v 0.287686348 0.982000113 0.278169870
v 0.167900085 0.859999895 0.473999977
v 0.190416813 0.859999895 0.486999989
v 0.190416813 0.859999895 0.513000011
v 0.167900085 0.859999895 0.526000023
v 0.145383358 0.859999895 0.513000011
v 0.145383358 0.859999895 0.486999989
v 0.190416813 0.982000113 0.486999989
v 0.167900085 0.982000113 0.473999977
v 0.145383358 0.982000113 0.486999989
v 0.145383358 0.982000113 0.513000011
v 0.167900085 0.982000113 0.526000023
v 0.190416813 0.982000113 0.513000011
v 0.265169621 0.859999895 0.708830118
v 0.287686348 0.859999895 0.721830130
v 0.287686348 0.859999895 0.747830153
v 0.265169621 0.859999895 0.760830164
v 0.242652893 0.859999895 0.747830153
v 0.242652893 0.859999895 0.721830130
v 0.287686348 0.982000113 0.721830130
v 0.265169621 0.982000113 0.708830118
v 0.242652893 0.982000113 0.721830130
v 0.242652893 0.982000113 0.747830153
v 0.265169621 0.982000113 0.760830164
v 0.287686348 0.982000113 0.747830153
v 0.500000000 0.859999895 0.806100011
v 0.522516727 0.859999895 0.819100022
v 0.522516727 0.859999895 0.845100045
v 0.500000000 0.859999895 0.858100057
v 0.477483273 0.859999895 0.845100045
v 0.477483273 0.859999895 0.819100022
v 0.522516727 0.982000113 0.819100022
v 0.500000000 0.982000113 0.806100011
v 0.477483273 0.982000113 0.819100022
v 0.477483273 0.982000113 0.845100045
v 0.500000000 0.982000113 0.858100057
v 0.522516727 0.982000113 0.845100045
v 0.734830379 0.859999895 0.708830118
v 0.757347107 0.859999895 0.721830130
v 0.757347107 0.859999895 0.747830153
v 0.734830379 0.859999895 0.760830164
v 0.712313652 0.859999895 0.747830153
v 0.712313652 0.859999895 0.721830130
v 0.757347107 0.982000113 0.721830130
v 0.734830379 0.982000113 0.708830118
v 0.712313652 0.982000113 0.721830130
v 0.712313652 0.982000113 0.747830153
v 0.734830379 0.982000113 0.760830164
v 0.757347107 0.982000113 0.747830153
v 0.832099915 0.859999895 0.473999977
v 0.854616642 0.859999895 0.486999989
v 0.854616642 0.859999895 0.513000011
v 0.832099915 0.859999895 0.526000023
v 0.809583187 0.859999895 0.513000011
v 0.809583187 0.859999895 0.486999989
v 0.854616642 0.982000113 0.486999989
v 0.832099915 0.982000113 0.473999977
v 0.809583187 0.982000113 0.486999989
v 0.809583187 0.982000113 0.513000011
v 0.832099915 0.982000113 0.526000023
v 0.854616642 0.982000113 0.513000011
v 0.734830379 0.859999895 0.239169836
v 0.757347107 0.859999895 0.252169847
v 0.757347107 0.859999895 0.278169870
v 0.734830379 0.859999895 0.291169882
v 0.712313652 0.859999895 0.278169870
v 0.712313652 0.859999895 0.252169847
v 0.757347107 0.982000113 0.252169847
v 0.734830379 0.982000113 0.239169836
v 0.712313652 0.982000113 0.252169847
v 0.712313652 0.982000113 0.278169870
v 0.734830379 0.982000113 0.291169882
v 0.757347107 0.982000113 0.278169870
v 0.500000000 0.700000048 0.243000031
v 0.420582771 0.700000048 0.255578518
v 0.420582771 0.799999952 0.255578518
v 0.500000000 0.799999952 0.243000031
v 0.348939419 0.700000048 0.292082667
v 0.348939419 0.799999952 0.292082667
v 0.292082787 0.700000048 0.348939180
v 0.292082787 0.799999952 0.348939180
v 0.255578518 0.700000048 0.420582652
v 0.255578518 0.799999952 0.420582652
v 0.243000031 0.700000048 0.500000000
v 0.243000031 0.799999952 0.500000000
v 0.255578518 0.700000048 0.579417348
v 0.255578518 0.799999952 0.579417348
v 0.292082787 0.700000048 0.651060820
v 0.292082787 0.799999952 0.651060820
v 0.348939419 0.700000048 0.707917333
v 0.348939419 0.799999952 0.707917333
v 0.420582771 0.700000048 0.744421482
v 0.420582771 0.799999952 0.744421482
v 0.500000000 0.700000048 0.756999969
v 0.500000000 0.799999952 0.756999969
v 0.579417229 0.700000048 0.744421482
v 0.579417229 0.799999952 0.744421482
v 0.651060581 0.700000048 0.707917333
v 0.651060581 0.799999952 0.707917333
v 0.707917213 0.700000048 0.651060820
v 0.707917213 0.799999952 0.651060820
v 0.744421482 0.700000048 0.579417348
v 0.744421482 0.799999952 0.579417348
v 0.756999969 0.700000048 0.500000000
v 0.756999969 0.799999952 0.500000000
v 0.744421482 0.700000048 0.420582652
v 0.744421482 0.799999952 0.420582652
v 0.707917213 0.700000048 0.348939180
v 0.707917213 0.799999952 0.348939180
v 0.651060581 0.700000048 0.292082667
v 0.651060581 0.799999952 0.292082667
v 0.579417229 0.700000048 0.255578518
v 0.579417229 0.799999952 0.255578518
v 0.423054695 0.799999952 0.263186932
v 0.500000000 0.799999952 0.251000047
v 0.353641510 0.799999952 0.298554778
v 0.298554897 0.799999952 0.353641510
v 0.263186932 0.799999952 0.423054814
v 0.250999928 0.799999952 0.500000000
v 0.263186932 0.799999952 0.576945186
v 0.298554897 0.799999952 0.646358490
v 0.353641510 0.799999952 0.701445222
v 0.423054695 0.799999952 0.736813068
v 0.500000000 0.799999952 0.748999953
v 0.576945305 0.799999952 0.736813068
v 0.646358490 0.799999952 0.701445222
v 0.701445103 0.799999952 0.646358490
v 0.736813068 0.799999952 0.576945186
v 0.749000072 0.799999952 0.500000000
v 0.736813068 0.799999952 0.423054814
v 0.701445103 0.799999952 0.353641510
v 0.646358490 0.799999952 0.298554778
v 0.576945305 0.799999952 0.263186932
v 0.423054695 0.700000048 0.263186932
v 0.500000000 0.700000048 0.251000047
v 0.353641510 0.700000048 0.298554778
v 0.298554897 0.700000048 0.353641510
v 0.263186932 0.700000048 0.423054814
v 0.250999928 0.700000048 0.500000000
v 0.263186932 0.700000048 0.576945186
v 0.298554897 0.700000048 0.646358490
v 0.353641510 0.700000048 0.701445222
v 0.423054695 0.700000048 0.736813068
v 0.500000000 0.700000048 0.748999953
v 0.576945305 0.700000048 0.736813068
v 0.646358490 0.700000048 0.701445222
v 0.701445103 0.700000048 0.646358490
v 0.736813068 0.700000048 0.576945186
v 0.749000072 0.700000048 0.500000000
v 0.736813068 0.700000048 0.423054814
v 0.701445103 0.700000048 0.353641510
v 0.646358490 0.700000048 0.298554778
v 0.576945305 0.700000048 0.263186932
vt 0.709562824 0.095052075
vt 0.709250600 0.095052075
vt 0.709744513 0.095791265
vt 0.710645220 0.095052076
vt 0.640625016 0.077710040
vt 0.640625016 0.076950282
vt 0.642968774 0.077822283
vt 0.642054355 0.084250602
vt 0.640625016 0.081316887
vt 0.642968774 0.084744513
vt 0.640625016 0.070691076
vt 0.640625016 0.069866691
vt 0.642968774 0.070311233
vt 0.640625016 0.063357332
vt 0.640625016 0.062500000
vt 0.642968774 0.062500000
vt 0.640625016 0.055990641
vt 0.640625016 0.055133309
vt 0.642968774 0.054688767
vt 0.640625016 0.048874104
vt 0.640625016 0.048049718
vt 0.642968774 0.047177717
vt 0.641804885 0.041261439
vt 0.642054355 0.040749402
vt 0.642968774 0.040255491
vt 0.640625016 0.043683114
vt 0.665749400 0.095052075
vt 0.664354780 0.095052076
vt 0.665255487 0.095791265
vt 0.648612398 0.091524333
vt 0.642968774 0.085645218
vt 0.667968750 0.093967840
vt 0.651998839 0.095052082
vt 0.651998827 0.095052076
vt 0.667968750 0.095052079
vt 0.667968750 0.084175430
vt 0.667968750 0.073550038
vt 0.667968750 0.062500000
vt 0.667968750 0.051449962
vt 0.667968750 0.040824573
vt 0.667968750 0.031032156
vt 0.657440435 0.029947920
vt 0.642968774 0.039354786
vt 0.651998827 0.029947927
vt 0.651998839 0.029947921
vt 0.667968750 0.029947918
vt 0.692708351 0.095052078
vt 0.692708351 0.094522059
vt 0.692708351 0.089348091
vt 0.692708351 0.084557181
vt 0.692708351 0.078943099
vt 0.692708351 0.073744654
vt 0.692708351 0.067906201
vt 0.692708351 0.062500000
vt 0.692708351 0.056661547
vt 0.692708351 0.051255346
vt 0.692708351 0.045641264
vt 0.692708351 0.040442821
vt 0.692708351 0.035268852
vt 0.692708351 0.030477938
vt 0.673239402 0.029947919
vt 0.692708351 0.029947921
vt 0.628906250 0.062500000
vt 0.628906250 0.084922828
vt 0.746093750 0.084922828
vt 0.746093750 0.062500000
vt 0.628906250 0.103932045
vt 0.746093750 0.103932045
vt 0.646067977 0.003906250
vt 0.665077150 0.003906250
vt 0.665077150 0.121093750
vt 0.646067977 0.121093750
vt 0.687500000 0.003906250
vt 0.687500000 0.121093750
vt 0.709922850 0.003906250
vt 0.709922850 0.121093750
vt 0.728932023 0.003906250
vt 0.728932023 0.121093750
vt 0.628906250 0.040077176
vt 0.746093750 0.040077176
vt 0.628906250 0.021067958
vt 0.746093750 0.021067958
vt 0.633366406 0.084922828
vt 0.656643927 0.075281002
vt 0.654101551 0.062500000
vt 0.646067977 0.103932045
vt 0.663883746 0.086116239
vt 0.665077150 0.116633572
vt 0.674718976 0.093356103
vt 0.687500000 0.095898457
vt 0.709922850 0.116633572
vt 0.700281024 0.093356103
vt 0.728932023 0.103932045
vt 0.711116254 0.086116239
vt 0.741633594 0.084922828
vt 0.718356073 0.075281002
vt 0.720898449 0.062500000
vt 0.741633594 0.040077176
vt 0.718356073 0.049718998
vt 0.728932023 0.021067958
vt 0.711116254 0.038883764
vt 0.709922850 0.008366430
vt 0.700281024 0.031643897
vt 0.687500000 0.029101543
vt 0.665077150 0.008366430
vt 0.674718976 0.031643897
vt 0.646067977 0.021067958
vt 0.663883746 0.038883764
vt 0.633366406 0.040077176
vt 0.656643927 0.049718998
vt 0.746093750 0.075281002
vt 0.628906250 0.075281002
vt 0.746093750 0.086116239
vt 0.628906250 0.086116239
vt 0.663883746 0.121093750
vt 0.674718976 0.121093750
vt 0.674718976 0.003906250
vt 0.663883746 0.003906250
vt 0.700281024 0.121093750
vt 0.700281024 0.003906250
vt 0.711116254 0.121093750
vt 0.711116254 0.003906250
vt 0.746093750 0.049718998
vt 0.628906250 0.049718998
vt 0.746093750 0.038883764
vt 0.628906250 0.038883764
vt 0.500000000 0.500000000
vn -0.612093795 0.611285448 -0.501668503
vn -0.612093563 0.611284952 -0.501669391
vn -0.612093653 0.697410386 -0.372773541
vn -0.612093761 0.697410533 -0.372773089
vn -0.612093672 0.756734328 -0.229552811
vn -0.612093697 0.756734341 -0.229552704
vn -0.612093463 0.786977557 -0.077510754
vn -0.612093631 0.786977499 -0.077510016
vn -0.612093666 0.786977401 0.077510738
vn -0.612093497 0.786977602 0.077510026
vn -0.612093702 0.756734306 0.229552804
vn -0.612093678 0.756734355 0.229552708
vn -0.612093783 0.697410297 0.372773494
vn -0.612093675 0.697410592 0.372773121
vn -0.612093747 0.611284842 0.501669300
vn -0.467390389 0.683380251 -0.560836568
vn -0.467390647 0.683380835 -0.560835642
vn -0.467390309 0.779663722 -0.416738263
vn -0.467390385 0.779663837 -0.416737962
vn -0.467390362 0.845984150 -0.256626320
vn -0.467390247 0.845984067 -0.256626801
vn -0.467390731 0.879793958 -0.086651580
vn -0.467390407 0.879793994 -0.086652960
vn -0.467390351 0.879794158 0.086651599
vn -0.467390675 0.879793853 0.086652946
vn -0.467390227 0.845984218 0.256626341
vn -0.467390342 0.845984019 0.256626786
vn -0.467390398 0.779663680 0.416738241
vn -0.467390322 0.779663866 0.416737978
vn -0.467390691 0.683380128 0.560836467
vn -0.467390434 0.683380922 0.560835714
vn -0.032086248 0.772612719 -0.634066290
vn -0.032086484 0.881467649 -0.471153098
vn -0.032086231 0.881467016 -0.471154299
vn -0.032086402 0.956447499 -0.290135561
vn -0.032086488 0.956447631 -0.290135119
vn -0.032086176 0.994672222 -0.097967584
vn -0.032086386 0.994672326 -0.097966461
vn -0.032086390 0.994672215 0.097967584
vn -0.032086180 0.994672333 0.097966462
vn -0.032086489 0.956447497 0.290135560
vn -0.032086403 0.956447633 0.290135120
vn -0.032086257 0.881467655 0.471153101
vn -0.032086480 0.881467084 0.471154155
vn -0.032086146 0.772612721 0.634066292
vn -0.032086286 0.772612240 0.634066871
vn -0.980785214 0.195090657 0.000000000
vn -0.831469085 0.555571023 0.000000000
vn -0.555569984 0.831469778 0.000000000
vn -0.195086303 0.980786080 0.000000000
vn 0.195086303 0.980786080 0.000000000
vn 0.555569984 0.831469778 0.000000000
vn 0.831469085 0.555571023 0.000000000
vn 0.980785214 0.195090657 0.000000000
vn 0.980785041 -0.195091523 0.000000000
vn 0.831467688 -0.555573114 0.000000000
vn 0.555573114 -0.831467688 0.000000000
vn 0.195086303 -0.980786080 0.000000000
vn -0.195086303 -0.980786080 0.000000000
vn -0.555573114 -0.831467688 0.000000000
vn -0.831467688 -0.555573114 0.000000000
vn -0.980785041 -0.195091523 0.000000000
vn 0.000000000 0.000000000 -1.000000000
vn 0.980785680 -0.195088311 0.000000000
vn 0.831465873 -0.555575829 0.000000000
vn 0.555572161 -0.831468324 0.000000000
vn 0.195097469 -0.980783859 0.000000000
vn -0.195097469 -0.980783859 0.000000000
vn -0.555572161 -0.831468324 0.000000000
vn -0.831465873 -0.555575829 0.000000000
vn -0.980785680 -0.195088311 0.000000000
vn -0.980785076 0.195091350 0.000000000
vn -0.831468324 0.555572161 0.000000000
vn -0.555572161 0.831468324 0.000000000
vn -0.195097469 0.980783859 0.000000000
vn 0.195097469 0.980783859 0.000000000
vn 0.555572161 0.831468324 0.000000000
vn 0.831468324 0.555572161 0.000000000
vn 0.980785076 0.195091350 0.000000000
vn 0.000000000 -0.000000000 1.000000000
vn -0.156434485 0.000000000 -0.987688338
vn -0.453989570 0.000000000 -0.891006998
vn -0.707107543 0.000000000 -0.707106019
vn -0.891005451 0.000000000 -0.453992607
vn -0.987688808 0.000000000 -0.156431511
vn -0.987688808 0.000000000 0.156431511
vn -0.891005451 0.000000000 0.453992607
vn -0.707107543 0.000000000 0.707106019
vn -0.453989570 0.000000000 0.891006998
vn -0.156434485 0.000000000 0.987688338
vn 0.156434485 0.000000000 0.987688338
vn 0.453989570 0.000000000 0.891006998
vn 0.707107543 0.000000000 0.707106019
vn 0.891005451 0.000000000 0.453992607
vn 0.987688808 0.000000000 0.156431511
vn 0.987688808 0.000000000 -0.156431511
vn 0.891005451 0.000000000 -0.453992607
vn 0.707107543 0.000000000 -0.707106019
vn 0.453989570 0.000000000 -0.891006998
vn 0.156434485 0.000000000 -0.987688338
vn 0.000000000 1.000000000 0.000000000
vn 0.156436051 0.000000000 0.987688089
vn 0.453989930 0.000000000 0.891006815
vn 0.707106781 0.000000000 0.707106781
vn 0.891003807 0.000000000 0.453995832
vn 0.987689042 0.000000000 0.156430038
vn 0.987689042 0.000000000 -0.156430038
vn 0.891003807 0.000000000 -0.453995832
vn 0.707106781 0.000000000 -0.707106781
vn 0.453989930 0.000000000 -0.891006815
vn 0.156436051 0.000000000 -0.987688089
vn -0.156436051 0.000000000 -0.987688089
vn -0.453989930 0.000000000 -0.891006815
vn -0.707106781 0.000000000 -0.707106781
vn -0.891003807 0.000000000 -0.453995832
vn -0.987689042 0.000000000 -0.156430038
vn -0.987689042 0.000000000 0.156430038
vn -0.891003807 0.000000000 0.453995832
vn -0.707106781 0.000000000 0.707106781
vn -0.453989930 0.000000000 0.891006815
vn -0.156436051 0.000000000 0.987688089
vn -0.000000000 -1.000000000 0.000000000
vn -0.156434570 0.000000000 -0.987688324
vn -0.707107246 0.000000000 -0.707106317
vn -0.891006815 0.000000000 -0.453989930
vn -0.987688445 0.000000000 -0.156433807
vn -0.987688445 0.000000000 0.156433807
vn -0.891006815 0.000000000 0.453989930
vn -0.707107246 0.000000000 0.707106317
vn -0.156434570 0.000000000 0.987688324
vn 0.156434570 0.000000000 0.987688324
vn 0.707107246 0.000000000 0.707106317
vn 0.891006815 0.000000000 0.453989930
vn 0.987688445 0.000000000 0.156433807
vn 0.987688445 0.000000000 -0.156433807
vn 0.891006815 0.000000000 -0.453989930
vn 0.707107246 0.000000000 -0.707106317
vn 0.156434570 0.000000000 -0.987688324
vn -0.156433768 0.000000000 -0.987688451
vn -0.453991720 0.000000000 -0.891005903
vn -0.707105782 0.000000000 -0.707107780
vn -0.891006719 0.000000000 -0.453990118
vn -0.987688556 0.000000000 -0.156433102
vn -0.987688556 0.000000000 0.156433102
vn -0.891006719 0.000000000 0.453990118
vn -0.707105782 0.000000000 0.707107780
vn -0.453991720 0.000000000 0.891005903
vn -0.156433768 0.000000000 0.987688451
vn 0.156433768 0.000000000 0.987688451
vn 0.453991720 0.000000000 0.891005903
vn 0.707105782 0.000000000 0.707107780
vn 0.891006719 0.000000000 0.453990118
vn 0.987688556 0.000000000 0.156433102
vn 0.987688556 0.000000000 -0.156433102
vn 0.891006719 0.000000000 -0.453990118
vn 0.707105782 0.000000000 -0.707107780
vn 0.453991720 0.000000000 -0.891005903
vn 0.156433768 0.000000000 -0.987688451
vn -0.499999215 0.000000000 -0.866025857
vn -1.000000000 0.000000000 0.000000000
vn -0.499999215 0.000000000 0.866025857
vn 0.499999215 0.000000000 0.866025857
vn 1.000000000 0.000000000 0.000000000
vn 0.499999215 0.000000000 -0.866025857
vn -0.156434878 0.000000000 -0.987688275
vn -0.453990875 0.000000000 -0.891006333
vn -0.707106040 0.000000000 -0.707107522
vn -0.891006039 0.000000000 -0.453991453
vn -0.987688311 0.000000000 -0.156434649
vn -0.987688311 0.000000000 0.156434649
vn -0.891006039 0.000000000 0.453991453
vn -0.707106040 0.000000000 0.707107522
vn -0.453990875 0.000000000 0.891006333
vn -0.156434878 0.000000000 0.987688275
vn 0.156434878 0.000000000 0.987688275
vn 0.453990875 0.000000000 0.891006333
vn 0.707106040 0.000000000 0.707107522
vn 0.891006039 0.000000000 0.453991453
vn 0.987688311 0.000000000 0.156434649
vn 0.987688311 0.000000000 -0.156434649
vn 0.891006039 0.000000000 -0.453991453
vn 0.707106040 0.000000000 -0.707107522
vn 0.453990875 0.000000000 -0.891006333
vn 0.156434878 0.000000000 -0.987688275
vn 0.156433787 0.000000000 0.987688448
vn 0.453991133 0.000000000 0.891006202
vn 0.707107546 0.000000000 0.707106016
vn 0.891005898 0.000000000 0.453991729
vn 0.987688174 0.000000000 0.156435516
vn 0.987688174 0.000000000 -0.156435516
vn 0.891005898 0.000000000 -0.453991729
vn 0.707107546 0.000000000 -0.707106016
vn 0.453991133 0.000000000 -0.891006202
vn 0.156433787 0.000000000 -0.987688448
vn -0.156433787 0.000000000 -0.987688448
vn -0.453991133 0.000000000 -0.891006202
vn -0.707107546 0.000000000 -0.707106016
vn -0.891005898 0.000000000 -0.453991729
vn -0.987688174 0.000000000 -0.156435516
vn -0.987688174 0.000000000 0.156435516
vn -0.891005898 0.000000000 0.453991729
vn -0.707107546 0.000000000 0.707106016
vn -0.453991133 0.000000000 0.891006202
vn -0.156433787 0.000000000 0.987688448
usemtl mat_0
f 1/1/1 2/2/1 3/3/1
f 1/1/2 3/3/2 4/4/2
f 5/5/3 6/6/3 7/7/3
f 2/8/4 8/9/4 5/5/4
f 2/8/4 5/5/4 7/7/4
f 2/8/4 7/7/4 3/10/4
f 9/11/5 10/12/5 11/13/5
f 6/6/6 9/11/6 11/13/6 7/7/6
f 12/14/7 13/15/7 14/16/7
f 10/12/8 12/14/8 14/16/8 11/13/8
f 15/17/9 16/18/9 17/19/9
f 13/15/10 15/17/10 17/19/10 14/16/10
f 18/20/11 19/21/11 20/22/11
f 16/18/12 18/20/12 20/22/12 17/19/12
f 21/23/13 22/24/13 23/25/13
f 19/21/14 24/26/14 21/23/14
f 19/21/14 21/23/14 23/25/14
f 19/21/14 23/25/14 20/22/14
f 22/27/15 25/28/15 23/29/15
f 26/30/16 4/31/16 3/10/16 27/32/16
f 28/33/17 29/34/17 26/30/17
f 28/33/17 26/30/17 27/32/17
f 28/33/17 27/32/17 30/35/17
f 3/10/18 7/7/18 31/36/18
f 3/10/19 31/36/19 27/32/19
f 7/7/20 11/13/20 32/37/20
f 7/7/21 32/37/21 31/36/21
f 11/13/22 14/16/22 33/38/22
f 11/13/23 33/38/23 32/37/23
f 14/16/24 17/19/24 34/39/24
f 14/16/25 34/39/25 33/38/25
f 17/19/26 20/22/26 35/40/26
f 17/19/27 35/40/27 34/39/27
f 20/22/28 23/25/28 36/41/28
f 20/22/29 36/41/29 35/40/29
f 37/42/30 23/25/30 25/43/30
f 37/42/30 25/43/30 38/44/30
f 37/42/30 38/44/30 39/45/30
f 23/25/31 37/42/31 40/46/31 36/41/31
f 41/47/32 30/35/32 27/32/32 42/48/32
f 43/49/33 27/32/33 31/36/33 44/50/33
f 42/48/34 27/32/34 43/49/34
f 45/51/35 31/36/35 32/37/35 46/52/35
f 44/50/36 31/36/36 45/51/36
f 47/53/37 32/37/37 33/38/37 48/54/37
f 46/52/38 32/37/38 47/53/38
f 49/55/39 33/38/39 34/39/39 50/56/39
f 48/54/40 33/38/40 49/55/40
f 51/57/41 34/39/41 35/40/41 52/58/41
f 50/56/42 34/39/42 51/57/42
f 53/59/43 35/40/43 36/41/43 54/60/43
f 52/58/44 35/40/44 53/59/44
f 55/61/45 36/41/45 40/46/45
f 56/62/46 54/60/46 36/41/46 55/61/46
f 57/63/47 58/64/47 59/65/47
f 57/63/47 59/65/47 60/66/47
f 58/64/48 61/67/48 62/68/48
f 58/64/48 62/68/48 59/65/48
f 61/69/49 63/70/49 64/71/49
f 61/69/49 64/71/49 62/72/49
f 63/70/50 65/73/50 66/74/50
f 63/70/50 66/74/50 64/71/50
f 65/73/51 67/75/51 68/76/51
f 65/73/51 68/76/51 66/74/51
f 67/75/52 69/77/52 70/78/52
f 67/75/52 70/78/52 68/76/52
f 69/67/53 71/64/53 72/65/53
f 69/67/53 72/65/53 70/68/53
f 71/64/54 73/63/54 74/66/54
f 71/64/54 74/66/54 72/65/54
f 73/63/55 75/79/55 76/80/55
f 73/63/55 76/80/55 74/66/55
f 75/79/56 77/81/56 78/82/56
f 75/79/56 78/82/56 76/80/56
f 77/77/57 79/75/57 80/76/57
f 77/77/57 80/76/57 78/78/57
f 79/75/58 81/73/58 82/74/58
f 79/75/58 82/74/58 80/76/58
f 81/73/59 83/70/59 84/71/59
f 81/73/59 84/71/59 82/74/59
f 83/70/60 85/69/60 86/72/60
f 83/70/60 86/72/60 84/71/60
f 85/81/61 87/79/61 88/80/61
f 85/81/61 88/80/61 86/82/61
f 87/79/62 57/63/62 60/66/62
f 87/79/62 60/66/62 88/80/62
f 60/63/63 59/83/63 89/84/63
f 60/63/63 89/84/63 90/85/63
f 59/83/63 62/86/63 91/87/63
f 59/83/63 91/87/63 89/84/63
f 62/86/63 64/88/63 92/89/63
f 62/86/63 92/89/63 91/87/63
f 64/88/63 66/74/63 93/90/63
f 64/88/63 93/90/63 92/89/63
f 66/74/63 68/91/63 94/92/63
f 66/74/63 94/92/63 93/90/63
f 68/91/63 70/93/63 95/94/63
f 68/91/63 95/94/63 94/92/63
f 70/93/63 72/95/63 96/96/63
f 70/93/63 96/96/63 95/94/63
f 72/95/63 74/66/63 97/97/63
f 72/95/63 97/97/63 96/96/63
f 74/66/63 76/98/63 98/99/63
f 74/66/63 98/99/63 97/97/63
f 76/98/63 78/100/63 99/101/63
f 76/98/63 99/101/63 98/99/63
f 78/100/63 80/102/63 100/103/63
f 78/100/63 100/103/63 99/101/63
f 80/102/63 82/73/63 101/104/63
f 80/102/63 101/104/63 100/103/63
f 82/73/63 84/105/63 102/106/63
f 82/73/63 102/106/63 101/104/63
f 84/105/63 86/107/63 103/108/63
f 84/105/63 103/108/63 102/106/63
f 86/107/63 88/109/63 104/110/63
f 86/107/63 104/110/63 103/108/63
f 88/109/63 60/63/63 90/85/63
f 88/109/63 90/85/63 104/110/63
f 90/66/64 89/111/64 105/112/64
f 90/66/64 105/112/64 106/63/64
f 89/111/65 91/113/65 107/114/65
f 89/111/65 107/114/65 105/112/65
f 91/115/66 92/116/66 108/117/66
f 91/115/66 108/117/66 107/118/66
f 92/116/67 93/74/67 109/73/67
f 92/116/67 109/73/67 108/117/67
f 93/74/68 94/119/68 110/120/68
f 93/74/68 110/120/68 109/73/68
f 94/119/69 95/121/69 111/122/69
f 94/119/69 111/122/69 110/120/69
f 95/113/70 96/111/70 112/112/70
f 95/113/70 112/112/70 111/114/70
f 96/111/71 97/66/71 113/63/71
f 96/111/71 113/63/71 112/112/71
f 97/66/72 98/123/72 114/124/72
f 97/66/72 114/124/72 113/63/72
f 98/123/73 99/125/73 115/126/73
f 98/123/73 115/126/73 114/124/73
f 99/121/74 100/119/74 116/120/74
f 99/121/74 116/120/74 115/122/74
f 100/119/75 101/74/75 117/73/75
f 100/119/75 117/73/75 116/120/75
f 101/74/76 102/116/76 118/117/76
f 101/74/76 118/117/76 117/73/76
f 102/116/77 103/115/77 119/118/77
f 102/116/77 119/118/77 118/117/77
f 103/125/78 104/123/78 120/124/78
f 103/125/78 120/124/78 119/126/78
f 104/123/79 90/66/79 106/63/79
f 104/123/79 106/63/79 120/124/79
f 106/85/80 105/84/80 58/83/80
f 106/85/80 58/83/80 57/63/80
f 105/84/80 107/87/80 61/86/80
f 105/84/80 61/86/80 58/83/80
f 107/87/80 108/89/80 63/88/80
f 107/87/80 63/88/80 61/86/80
f 108/89/80 109/90/80 65/74/80
f 108/89/80 65/74/80 63/88/80
f 109/90/80 110/92/80 67/91/80
f 109/90/80 67/91/80 65/74/80
f 110/92/80 111/94/80 69/93/80
f 110/92/80 69/93/80 67/91/80
f 111/94/80 112/96/80 71/95/80
f 111/94/80 71/95/80 69/93/80
f 112/96/80 113/97/80 73/66/80
f 112/96/80 73/66/80 71/95/80
f 113/97/80 114/99/80 75/98/80
f 113/97/80 75/98/80 73/66/80
f 114/99/80 115/101/80 77/100/80
f 114/99/80 77/100/80 75/98/80
f 115/101/80 116/103/80 79/102/80
f 115/101/80 79/102/80 77/100/80
f 116/103/80 117/104/80 81/73/80
f 116/103/80 81/73/80 79/102/80
f 117/104/80 118/106/80 83/105/80
f 117/104/80 83/105/80 81/73/80
f 118/106/80 119/108/80 85/107/80
f 118/106/80 85/107/80 83/105/80
f 119/108/80 120/110/80 87/109/80
f 119/108/80 87/109/80 85/107/80
f 120/110/80 106/85/80 57/63/80
f 120/110/80 57/63/80 87/109/80
usemtl mat_10
f 121/127/81 122/127/81 123/127/81
f 121/127/81 123/127/81 124/127/81
f 122/127/82 125/127/82 126/127/82
f 122/127/82 126/127/82 123/127/82
f 125/127/83 127/127/83 128/127/83
f 125/127/83 128/127/83 126/127/83
f 127/127/84 129/127/84 130/127/84
f 127/127/84 130/127/84 128/127/84
f 129/127/85 131/127/85 132/127/85
f 129/127/85 132/127/85 130/127/85
f 131/127/86 133/127/86 134/127/86
f 131/127/86 134/127/86 132/127/86
f 133/127/87 135/127/87 136/127/87
f 133/127/87 136/127/87 134/127/87
f 135/127/88 137/127/88 138/127/88
f 135/127/88 138/127/88 136/127/88
f 137/127/89 139/127/89 140/127/89
f 137/127/89 140/127/89 138/127/89
f 139/127/90 141/127/90 142/127/90
f 139/127/90 142/127/90 140/127/90
f 141/127/91 143/127/91 144/127/91
f 141/127/91 144/127/91 142/127/91
f 143/127/92 145/127/92 146/127/92
f 143/127/92 146/127/92 144/127/92
f 145/127/93 147/127/93 148/127/93
f 145/127/93 148/127/93 146/127/93
f 147/127/94 149/127/94 150/127/94
f 147/127/94 150/127/94 148/127/94
f 149/127/95 151/127/95 152/127/95
f 149/127/95 152/127/95 150/127/95
f 151/127/96 153/127/96 154/127/96
f 151/127/96 154/127/96 152/127/96
f 153/127/97 155/127/97 156/127/97
f 153/127/97 156/127/97 154/127/97
f 155/127/98 157/127/98 158/127/98
f 155/127/98 158/127/98 156/127/98
f 157/127/99 159/127/99 160/127/99
f 157/127/99 160/127/99 158/127/99
f 159/127/100 121/127/100 124/127/100
f 159/127/100 124/127/100 160/127/100
f 124/127/101 123/127/101 161/127/101
f 124/127/101 161/127/101 162/127/101
f 123/127/101 126/127/101 163/127/101
f 123/127/101 163/127/101 161/127/101
f 126/127/101 128/127/101 164/127/101
f 126/127/101 164/127/101 163/127/101
f 128/127/101 130/127/101 165/127/101
f 128/127/101 165/127/101 164/127/101
f 130/127/101 132/127/101 166/127/101
f 130/127/101 166/127/101 165/127/101
f 132/127/101 134/127/101 167/127/101
f 132/127/101 167/127/101 166/127/101
f 134/127/101 136/127/101 168/127/101
f 134/127/101 168/127/101 167/127/101
f 136/127/101 138/127/101 169/127/101
f 136/127/101 169/127/101 168/127/101
f 138/127/101 140/127/101 170/127/101
f 138/127/101 170/127/101 169/127/101
f 140/127/101 142/127/101 171/127/101
f 140/127/101 171/127/101 170/127/101
f 142/127/101 144/127/101 172/127/101
f 142/127/101 172/127/101 171/127/101
f 144/127/101 146/127/101 173/127/101
f 144/127/101 173/127/101 172/127/101
f 146/127/101 148/127/101 174/127/101
f 146/127/101 174/127/101 173/127/101
f 148/127/101 150/127/101 175/127/101
f 148/127/101 175/127/101 174/127/101
f 150/127/101 152/127/101 176/127/101
f 150/127/101 176/127/101 175/127/101
f 152/127/101 154/127/101 177/127/101
f 152/127/101 177/127/101 176/127/101
f 154/127/101 156/127/101 178/127/101
f 154/127/101 178/127/101 177/127/101
f 156/127/101 158/127/101 179/127/101
f 156/127/101 179/127/101 178/127/101
f 158/127/101 160/127/101 180/127/101
f 158/127/101 180/127/101 179/127/101
f 160/127/101 124/127/101 162/127/101
f 160/127/101 162/127/101 180/127/101
f 162/127/102 161/127/102 181/127/102
f 162/127/102 181/127/102 182/127/102
f 161/127/103 163/127/103 183/127/103
f 161/127/103 183/127/103 181/127/103
f 163/127/104 164/127/104 184/127/104
f 163/127/104 184/127/104 183/127/104
f 164/127/105 165/127/105 185/127/105
f 164/127/105 185/127/105 184/127/105
f 165/127/106 166/127/106 186/127/106
f 165/127/106 186/127/106 185/127/106
f 166/127/107 167/127/107 187/127/107
f 166/127/107 187/127/107 186/127/107
f 167/127/108 168/127/108 188/127/108
f 167/127/108 188/127/108 187/127/108
f 168/127/109 169/127/109 189/127/109
f 168/127/109 189/127/109 188/127/109
f 169/127/110 170/127/110 190/127/110
f 169/127/110 190/127/110 189/127/110
f 170/127/111 171/127/111 191/127/111
f 170/127/111 191/127/111 190/127/111
f 171/127/112 172/127/112 192/127/112
f 171/127/112 192/127/112 191/127/112
f 172/127/113 173/127/113 193/127/113
f 172/127/113 193/127/113 192/127/113
f 173/127/114 174/127/114 194/127/114
f 173/127/114 194/127/114 193/127/114
f 174/127/115 175/127/115 195/127/115
f 174/127/115 195/127/115 194/127/115
f 175/127/116 176/127/116 196/127/116
f 175/127/116 196/127/116 195/127/116
f 176/127/117 177/127/117 197/127/117
f 176/127/117 197/127/117 196/127/117
f 177/127/118 178/127/118 198/127/118
f 177/127/118 198/127/118 197/127/118
f 178/127/119 179/127/119 199/127/119
f 178/127/119 199/127/119 198/127/119
f 179/127/120 180/127/120 200/127/120
f 179/127/120 200/127/120 199/127/120
f 180/127/121 162/127/121 182/127/121
f 180/127/121 182/127/121 200/127/121
f 182/127/122 181/127/122 122/127/122
f 182/127/122 122/127/122 121/127/122
f 181/127/122 183/127/122 125/127/122
f 181/127/122 125/127/122 122/127/122
f 183/127/122 184/127/122 127/127/122
f 183/127/122 127/127/122 125/127/122
f 184/127/122 185/127/122 129/127/122
f 184/127/122 129/127/122 127/127/122
f 185/127/122 186/127/122 131/127/122
f 185/127/122 131/127/122 129/127/122
f 186/127/122 187/127/122 133/127/122
f 186/127/122 133/127/122 131/127/122
f 187/127/122 188/127/122 135/127/122
f 187/127/122 135/127/122 133/127/122
f 188/127/122 189/127/122 137/127/122
f 188/127/122 137/127/122 135/127/122
f 189/127/122 190/127/122 139/127/122
f 189/127/122 139/127/122 137/127/122
f 190/127/122 191/127/122 141/127/122
f 190/127/122 141/127/122 139/127/122
f 191/127/122 192/127/122 143/127/122
f 191/127/122 143/127/122 141/127/122
f 192/127/122 193/127/122 145/127/122
f 192/127/122 145/127/122 143/127/122
f 193/127/122 194/127/122 147/127/122
f 193/127/122 147/127/122 145/127/122
f 194/127/122 195/127/122 149/127/122
f 194/127/122 149/127/122 147/127/122
f 195/127/122 196/127/122 151/127/122
f 195/127/122 151/127/122 149/127/122
f 196/127/122 197/127/122 153/127/122
f 196/127/122 153/127/122 151/127/122
f 197/127/122 198/127/122 155/127/122
f 197/127/122 155/127/122 153/127/122
f 198/127/122 199/127/122 157/127/122
f 198/127/122 157/127/122 155/127/122
f 199/127/122 200/127/122 159/127/122
f 199/127/122 159/127/122 157/127/122
f 200/127/122 182/127/122 121/127/122
f 200/127/122 121/127/122 159/127/122
usemtl mat_11
f 201/127/123 202/127/123 203/127/123
f 201/127/123 203/127/123 204/127/123
f 202/127/113 205/127/113 206/127/113
f 202/127/113 206/127/113 203/127/113
f 205/127/124 207/127/124 208/127/124
f 205/127/124 208/127/124 206/127/124
f 207/127/125 209/127/125 210/127/125
f 207/127/125 210/127/125 208/127/125
f 209/127/126 211/127/126 212/127/126
f 209/127/126 212/127/126 210/127/126
f 211/127/127 213/127/127 214/127/127
f 211/127/127 214/127/127 212/127/127
f 213/127/128 215/127/128 216/127/128
f 213/127/128 216/127/128 214/127/128
f 215/127/129 217/127/129 218/127/129
f 215/127/129 218/127/129 216/127/129
f 217/127/120 219/127/120 220/127/120
f 217/127/120 220/127/120 218/127/120
f 219/127/130 221/127/130 222/127/130
f 219/127/130 222/127/130 220/127/130
f 221/127/131 223/127/131 224/127/131
f 221/127/131 224/127/131 222/127/131
f 223/127/103 225/127/103 226/127/103
f 223/127/103 226/127/103 224/127/103
f 225/127/132 227/127/132 228/127/132
f 225/127/132 228/127/132 226/127/132
f 227/127/133 229/127/133 230/127/133
f 227/127/133 230/127/133 228/127/133
f 229/127/134 231/127/134 232/127/134
f 229/127/134 232/127/134 230/127/134
f 231/127/135 233/127/135 234/127/135
f 231/127/135 234/127/135 232/127/135
f 233/127/136 235/127/136 236/127/136
f 233/127/136 236/127/136 234/127/136
f 235/127/137 237/127/137 238/127/137
f 235/127/137 238/127/137 236/127/137
f 237/127/110 239/127/110 240/127/110
f 237/127/110 240/127/110 238/127/110
f 239/127/138 201/127/138 204/127/138
f 239/127/138 204/127/138 240/127/138
f 204/127/101 203/127/101 241/127/101
f 204/127/101 241/127/101 242/127/101
f 203/127/101 206/127/101 243/127/101
f 203/127/101 243/127/101 241/127/101
f 206/127/101 208/127/101 244/127/101
f 206/127/101 244/127/101 243/127/101
f 208/127/101 210/127/101 245/127/101
f 208/127/101 245/127/101 244/127/101
f 210/127/101 212/127/101 246/127/101
f 210/127/101 246/127/101 245/127/101
f 212/127/101 214/127/101 247/127/101
f 212/127/101 247/127/101 246/127/101
f 214/127/101 216/127/101 248/127/101
f 214/127/101 248/127/101 247/127/101
f 216/127/101 218/127/101 249/127/101
f 216/127/101 249/127/101 248/127/101
f 218/127/101 220/127/101 250/127/101
f 218/127/101 250/127/101 249/127/101
f 220/127/101 222/127/101 251/127/101
f 220/127/101 251/127/101 250/127/101
f 222/127/101 224/127/101 252/127/101
f 222/127/101 252/127/101 251/127/101
f 224/127/101 226/127/101 253/127/101
f 224/127/101 253/127/101 252/127/101
f 226/127/101 228/127/101 254/127/101
f 226/127/101 254/127/101 253/127/101
f 228/127/101 230/127/101 255/127/101
f 228/127/101 255/127/101 254/127/101
f 230/127/101 232/127/101 256/127/101
f 230/127/101 256/127/101 255/127/101
f 232/127/101 234/127/101 257/127/101
f 232/127/101 257/127/101 256/127/101
f 234/127/101 236/127/101 258/127/101
f 234/127/101 258/127/101 257/127/101
f 236/127/101 238/127/101 259/127/101
f 236/127/101 259/127/101 258/127/101
f 238/127/101 240/127/101 260/127/101
f 238/127/101 260/127/101 259/127/101
f 240/127/101 204/127/101 242/127/101
f 240/127/101 242/127/101 260/127/101
f 242/127/102 241/127/102 261/127/102
f 242/127/102 261/127/102 262/127/102
f 241/127/103 243/127/103 263/127/103
f 241/127/103 263/127/103 261/127/103
f 243/127/104 244/127/104 264/127/104
f 243/127/104 264/127/104 263/127/104
f 244/127/105 245/127/105 265/127/105
f 244/127/105 265/127/105 264/127/105
f 245/127/106 246/127/106 266/127/106
f 245/127/106 266/127/106 265/127/106
f 246/127/107 247/127/107 267/127/107
f 246/127/107 267/127/107 266/127/107
f 247/127/108 248/127/108 268/127/108
f 247/127/108 268/127/108 267/127/108
f 248/127/109 249/127/109 269/127/109
f 248/127/109 269/127/109 268/127/109
f 249/127/110 250/127/110 270/127/110
f 249/127/110 270/127/110 269/127/110
f 250/127/111 251/127/111 271/127/111
f 250/127/111 271/127/111 270/127/111
f 251/127/112 252/127/112 272/127/112
f 251/127/112 272/127/112 271/127/112
f 252/127/113 253/127/113 273/127/113
f 252/127/113 273/127/113 272/127/113
f 253/127/114 254/127/114 274/127/114
f 253/127/114 274/127/114 273/127/114
f 254/127/115 255/127/115 275/127/115
f 254/127/115 275/127/115 274/127/115
f 255/127/116 256/127/116 276/127/116
f 255/127/116 276/127/116 275/127/116
f 256/127/117 257/127/117 277/127/117
f 256/127/117 277/127/117 276/127/117
f 257/127/118 258/127/118 278/127/118
f 257/127/118 278/127/118 277/127/118
f 258/127/119 259/127/119 279/127/119
f 258/127/119 279/127/119 278/127/119
f 259/127/120 260/127/120 280/127/120
f 259/127/120 280/127/120 279/127/120
f 260/127/121 242/127/121 262/127/121
f 260/127/121 262/127/121 280/127/121
f 262/127/122 261/127/122 202/127/122
f 262/127/122 202/127/122 201/127/122
f 261/127/122 263/127/122 205/127/122
f 261/127/122 205/127/122 202/127/122
f 263/127/122 264/127/122 207/127/122
f 263/127/122 207/127/122 205/127/122
f 264/127/122 265/127/122 209/127/122
f 264/127/122 209/127/122 207/127/122
f 265/127/122 266/127/122 211/127/122
f 265/127/122 211/127/122 209/127/122
f 266/127/122 267/127/122 213/127/122
f 266/127/122 213/127/122 211/127/122
f 267/127/122 268/127/122 215/127/122
f 267/127/122 215/127/122 213/127/122
f 268/127/122 269/127/122 217/127/122
f 268/127/122 217/127/122 215/127/122
f 269/127/122 270/127/122 219/127/122
f 269/127/122 219/127/122 217/127/122
f 270/127/122 271/127/122 221/127/122
f 270/127/122 221/127/122 219/127/122
f 271/127/122 272/127/122 223/127/122
f 271/127/122 223/127/122 221/127/122
f 272/127/122 273/127/122 225/127/122
f 272/127/122 225/127/122 223/127/122
f 273/127/122 274/127/122 227/127/122
f 273/127/122 227/127/122 225/127/122
f 274/127/122 275/127/122 229/127/122
f 274/127/122 229/127/122 227/127/122
f 275/127/122 276/127/122 231/127/122
f 275/127/122 231/127/122 229/127/122
f 276/127/122 277/127/122 233/127/122
f 276/127/122 233/127/122 231/127/122
f 277/127/122 278/127/122 235/127/122
f 277/127/122 235/127/122 233/127/122
f 278/127/122 279/127/122 237/127/122
f 278/127/122 237/127/122 235/127/122
f 279/127/122 280/127/122 239/127/122
f 279/127/122 239/127/122 237/127/122
f 280/127/122 262/127/122 201/127/122
f 280/127/122 201/127/122 239/127/122
usemtl mat_12
f 281/127/139 282/127/139 283/127/139
f 281/127/139 283/127/139 284/127/139
f 282/127/140 285/127/140 286/127/140
f 282/127/140 286/127/140 283/127/140
f 285/127/141 287/127/141 288/127/141
f 285/127/141 288/127/141 286/127/141
f 287/127/142 289/127/142 290/127/142
f 287/127/142 290/127/142 288/127/142
f 289/127/143 291/127/143 292/127/143
f 289/127/143 292/127/143 290/127/143
f 291/127/144 293/127/144 294/127/144
f 291/127/144 294/127/144 292/127/144
f 293/127/145 295/127/145 296/127/145
f 293/127/145 296/127/145 294/127/145
f 295/127/146 297/127/146 298/127/146
f 295/127/146 298/127/146 296/127/146
f 297/127/147 299/127/147 300/127/147
f 297/127/147 300/127/147 298/127/147
f 299/127/148 301/127/148 302/127/148
f 299/127/148 302/127/148 300/127/148
f 301/127/149 303/127/149 304/127/149
f 301/127/149 304/127/149 302/127/149
f 303/127/150 305/127/150 306/127/150
f 303/127/150 306/127/150 304/127/150
f 305/127/151 307/127/151 308/127/151
f 305/127/151 308/127/151 306/127/151
f 307/127/152 309/127/152 310/127/152
f 307/127/152 310/127/152 308/127/152
f 309/127/153 311/127/153 312/127/153
f 309/127/153 312/127/153 310/127/153
f 311/127/154 313/127/154 314/127/154
f 311/127/154 314/127/154 312/127/154
f 313/127/155 315/127/155 316/127/155
f 313/127/155 316/127/155 314/127/155
f 315/127/156 317/127/156 318/127/156
f 315/127/156 318/127/156 316/127/156
f 317/127/157 319/127/157 320/127/157
f 317/127/157 320/127/157 318/127/157
f 319/127/158 281/127/158 284/127/158
f 319/127/158 284/127/158 320/127/158
f 284/127/101 283/127/101 321/127/101
f 284/127/101 321/127/101 322/127/101
f 283/127/101 286/127/101 323/127/101
f 283/127/101 323/127/101 321/127/101
f 286/127/101 288/127/101 324/127/101
f 286/127/101 324/127/101 323/127/101
f 288/127/101 290/127/101 325/127/101
f 288/127/101 325/127/101 324/127/101
f 290/127/101 292/127/101 326/127/101
f 290/127/101 326/127/101 325/127/101
f 292/127/101 294/127/101 327/127/101
f 292/127/101 327/127/101 326/127/101
f 294/127/101 296/127/101 328/127/101
f 294/127/101 328/127/101 327/127/101
f 296/127/101 298/127/101 329/127/101
f 296/127/101 329/127/101 328/127/101
f 298/127/101 300/127/101 330/127/101
f 298/127/101 330/127/101 329/127/101
f 300/127/101 302/127/101 331/127/101
f 300/127/101 331/127/101 330/127/101
f 302/127/101 304/127/101 332/127/101
f 302/127/101 332/127/101 331/127/101
f 304/127/101 306/127/101 333/127/101
f 304/127/101 333/127/101 332/127/101
f 306/127/101 308/127/101 334/127/101
f 306/127/101 334/127/101 333/127/101
f 308/127/101 310/127/101 335/127/101
f 308/127/101 335/127/101 334/127/101
f 310/127/101 312/127/101 336/127/101
f 310/127/101 336/127/101 335/127/101
f 312/127/101 314/127/101 337/127/101
f 312/127/101 337/127/101 336/127/101
f 314/127/101 316/127/101 338/127/101
f 314/127/101 338/127/101 337/127/101
f 316/127/101 318/127/101 339/127/101
f 316/127/101 339/127/101 338/127/101
f 318/127/101 320/127/101 340/127/101
f 318/127/101 340/127/101 339/127/101
f 320/127/101 284/127/101 322/127/101
f 320/127/101 322/127/101 340/127/101
f 322/127/102 321/127/102 241/127/102
f 322/127/102 241/127/102 242/127/102
f 321/127/103 323/127/103 243/127/103
f 321/127/103 243/127/103 241/127/103
f 323/127/104 324/127/104 244/127/104
f 323/127/104 244/127/104 243/127/104
f 324/127/105 325/127/105 245/127/105
f 324/127/105 245/127/105 244/127/105
f 325/127/106 326/127/106 246/127/106
f 325/127/106 246/127/106 245/127/106
f 326/127/107 327/127/107 247/127/107
f 326/127/107 247/127/107 246/127/107
f 327/127/108 328/127/108 248/127/108
f 327/127/108 248/127/108 247/127/108
f 328/127/109 329/127/109 249/127/109
f 328/127/109 249/127/109 248/127/109
f 329/127/110 330/127/110 250/127/110
f 329/127/110 250/127/110 249/127/110
f 330/127/111 331/127/111 251/127/111
f 330/127/111 251/127/111 250/127/111
f 331/127/112 332/127/112 252/127/112
f 331/127/112 252/127/112 251/127/112
f 332/127/113 333/127/113 253/127/113
f 332/127/113 253/127/113 252/127/113
f 333/127/114 334/127/114 254/127/114
f 333/127/114 254/127/114 253/127/114
f 334/127/115 335/127/115 255/127/115
f 334/127/115 255/127/115 254/127/115
f 335/127/116 336/127/116 256/127/116
f 335/127/116 256/127/116 255/127/116
f 336/127/117 337/127/117 257/127/117
f 336/127/117 257/127/117 256/127/117
f 337/127/118 338/127/118 258/127/118
f 337/127/118 258/127/118 257/127/118
f 338/127/119 339/127/119 259/127/119
f 338/127/119 259/127/119 258/127/119
f 339/127/120 340/127/120 260/127/120
f 339/127/120 260/127/120 259/127/120
f 340/127/121 322/127/121 242/127/121
f 340/127/121 242/127/121 260/127/121
f 242/127/122 241/127/122 282/127/122
f 242/127/122 282/127/122 281/127/122
f 241/127/122 243/127/122 285/127/122
f 241/127/122 285/127/122 282/127/122
f 243/127/122 244/127/122 287/127/122
f 243/127/122 287/127/122 285/127/122
f 244/127/122 245/127/122 289/127/122
f 244/127/122 289/127/122 287/127/122
f 245/127/122 246/127/122 291/127/122
f 245/127/122 291/127/122 289/127/122
f 246/127/122 247/127/122 293/127/122
f 246/127/122 293/127/122 291/127/122
f 247/127/122 248/127/122 295/127/122
f 247/127/122 295/127/122 293/127/122
f 248/127/122 249/127/122 297/127/122
f 248/127/122 297/127/122 295/127/122
f 249/127/122 250/127/122 299/127/122
f 249/127/122 299/127/122 297/127/122
f 250/127/122 251/127/122 301/127/122
f 250/127/122 301/127/122 299/127/122
f 251/127/122 252/127/122 303/127/122
f 251/127/122 303/127/122 301/127/122
f 252/127/122 253/127/122 305/127/122
f 252/127/122 305/127/122 303/127/122
f 253/127/122 254/127/122 307/127/122
f 253/127/122 307/127/122 305/127/122
f 254/127/122 255/127/122 309/127/122
f 254/127/122 309/127/122 307/127/122
f 255/127/122 256/127/122 311/127/122
f 255/127/122 311/127/122 309/127/122
f 256/127/122 257/127/122 313/127/122
f 256/127/122 313/127/122 311/127/122
f 257/127/122 258/127/122 315/127/122
f 257/127/122 315/127/122 313/127/122
f 258/127/122 259/127/122 317/127/122
f 258/127/122 317/127/122 315/127/122
f 259/127/122 260/127/122 319/127/122
f 259/127/122 319/127/122 317/127/122
f 260/127/122 242/127/122 281/127/122
f 260/127/122 281/127/122 319/127/122
usemtl mat_11
f 341/127/122 342/127/122 343/127/122
f 343/127/122 344/127/122 345/127/122
f 345/127/122 346/127/122 341/127/122
f 343/127/122 345/127/122 341/127/122
f 347/127/101 348/127/101 349/127/101
f 349/127/101 350/127/101 351/127/101
f 351/127/101 352/127/101 347/127/101
f 349/127/101 351/127/101 347/127/101
f 341/127/159 346/127/159 349/127/159
f 341/127/159 349/127/159 348/127/159
f 346/127/160 345/127/160 350/127/160
f 346/127/160 350/127/160 349/127/160
f 345/127/161 344/127/161 351/127/161
f 345/127/161 351/127/161 350/127/161
f 344/127/162 343/127/162 352/127/162
f 344/127/162 352/127/162 351/127/162
f 343/127/163 342/127/163 347/127/163
f 343/127/163 347/127/163 352/127/163
f 342/127/164 341/127/164 348/127/164
f 342/127/164 348/127/164 347/127/164
f 353/127/122 354/127/122 355/127/122
f 355/127/122 356/127/122 357/127/122
f 357/127/122 358/127/122 353/127/122
f 355/127/122 357/127/122 353/127/122
f 359/127/101 360/127/101 361/127/101
f 361/127/101 362/127/101 363/127/101
f 363/127/101 364/127/101 359/127/101
f 361/127/101 363/127/101 359/127/101
f 353/127/159 358/127/159 361/127/159
f 353/127/159 361/127/159 360/127/159
f 358/127/160 357/127/160 362/127/160
f 358/127/160 362/127/160 361/127/160
f 357/127/161 356/127/161 363/127/161
f 357/127/161 363/127/161 362/127/161
f 356/127/162 355/127/162 364/127/162
f 356/127/162 364/127/162 363/127/162
f 355/127/163 354/127/163 359/127/163
f 355/127/163 359/127/163 364/127/163
f 354/127/164 353/127/164 360/127/164
f 354/127/164 360/127/164 359/127/164
f 365/127/122 366/127/122 367/127/122
f 367/127/122 368/127/122 369/127/122
f 369/127/122 370/127/122 365/127/122
f 367/127/122 369/127/122 365/127/122
f 371/127/101 372/127/101 373/127/101
f 373/127/101 374/127/101 375/127/101
f 375/127/101 376/127/101 371/127/101
f 373/127/101 375/127/101 371/127/101
f 365/127/159 370/127/159 373/127/159
f 365/127/159 373/127/159 372/127/159
f 370/127/160 369/127/160 374/127/160
f 370/127/160 374/127/160 373/127/160
f 369/127/161 368/127/161 375/127/161
f 369/127/161 375/127/161 374/127/161
f 368/127/162 367/127/162 376/127/162
f 368/127/162 376/127/162 375/127/162
f 367/127/163 366/127/163 371/127/163
f 367/127/163 371/127/163 376/127/163
f 366/127/164 365/127/164 372/127/164
f 366/127/164 372/127/164 371/127/164
f 377/127/122 378/127/122 379/127/122
f 379/127/122 380/127/122 381/127/122
f 381/127/122 382/127/122 377/127/122
f 379/127/122 381/127/122 377/127/122
f 383/127/101 384/127/101 385/127/101
f 385/127/101 386/127/101 387/127/101
f 387/127/101 388/127/101 383/127/101
f 385/127/101 387/127/101 383/127/101
f 377/127/159 382/127/159 385/127/159
f 377/127/159 385/127/159 384/127/159
f 382/127/160 381/127/160 386/127/160
f 382/127/160 386/127/160 385/127/160
f 381/127/161 380/127/161 387/127/161
f 381/127/161 387/127/161 386/127/161
f 380/127/162 379/127/162 388/127/162
f 380/127/162 388/127/162 387/127/162
f 379/127/163 378/127/163 383/127/163
f 379/127/163 383/127/163 388/127/163
f 378/127/164 377/127/164 384/127/164
f 378/127/164 384/127/164 383/127/164
f 389/127/122 390/127/122 391/127/122
f 391/127/122 392/127/122 393/127/122
f 393/127/122 394/127/122 389/127/122
f 391/127/122 393/127/122 389/127/122
f 395/127/101 396/127/101 397/127/101
f 397/127/101 398/127/101 399/127/101
f 399/127/101 400/127/101 395/127/101
f 397/127/101 399/127/101 395/127/101
f 389/127/159 394/127/159 397/127/159
f 389/127/159 397/127/159 396/127/159
f 394/127/160 393/127/160 398/127/160
f 394/127/160 398/127/160 397/127/160
f 393/127/161 392/127/161 399/127/161
f 393/127/161 399/127/161 398/127/161
f 392/127/162 391/127/162 400/127/162
f 392/127/162 400/127/162 399/127/162
f 391/127/163 390/127/163 395/127/163
f 391/127/163 395/127/163 400/127/163
f 390/127/164 389/127/164 396/127/164
f 390/127/164 396/127/164 395/127/164
f 401/127/122 402/127/122 403/127/122
f 403/127/122 404/127/122 405/127/122
f 405/127/122 406/127/122 401/127/122
f 403/127/122 405/127/122 401/127/122
f 407/127/101 408/127/101 409/127/101
f 409/127/101 410/127/101 411/127/101
f 411/127/101 412/127/101 407/127/101
f 409/127/101 411/127/101 407/127/101
f 401/127/159 406/127/159 409/127/159
f 401/127/159 409/127/159 408/127/159
f 406/127/160 405/127/160 410/127/160
f 406/127/160 410/127/160 409/127/160
f 405/127/161 404/127/161 411/127/161
f 405/127/161 411/127/161 410/127/161
f 404/127/162 403/127/162 412/127/162
f 404/127/162 412/127/162 411/127/162
f 403/127/163 402/127/163 407/127/163
f 403/127/163 407/127/163 412/127/163
f 402/127/164 401/127/164 408/127/164
f 402/127/164 408/127/164 407/127/164
f 413/127/122 414/127/122 415/127/122
f 415/127/122 416/127/122 417/127/122
f 417/127/122 418/127/122 413/127/122
f 415/127/122 417/127/122 413/127/122
f 419/127/101 420/127/101 421/127/101
f 421/127/101 422/127/101 423/127/101
f 423/127/101 424/127/101 419/127/101
f 421/127/101 423/127/101 419/127/101
f 413/127/159 418/127/159 421/127/159
f 413/127/159 421/127/159 420/127/159
f 418/127/160 417/127/160 422/127/160
f 418/127/160 422/127/160 421/127/160
f 417/127/161 416/127/161 423/127/161
f 417/127/161 423/127/161 422/127/161
f 416/127/162 415/127/162 424/127/162
f 416/127/162 424/127/162 423/127/162
f 415/127/163 414/127/163 419/127/163
f 415/127/163 419/127/163 424/127/163
f 414/127/164 413/127/164 420/127/164
f 414/127/164 420/127/164 419/127/164
f 425/127/122 426/127/122 427/127/122
f 427/127/122 428/127/122 429/127/122
f 429/127/122 430/127/122 425/127/122
f 427/127/122 429/127/122 425/127/122
f 431/127/101 432/127/101 433/127/101
f 433/127/101 434/127/101 435/127/101
f 435/127/101 436/127/101 431/127/101
f 433/127/101 435/127/101 431/127/101
f 425/127/159 430/127/159 433/127/159
f 425/127/159 433/127/159 432/127/159
f 430/127/160 429/127/160 434/127/160
f 430/127/160 434/127/160 433/127/160
f 429/127/161 428/127/161 435/127/161
f 429/127/161 435/127/161 434/127/161
f 428/127/162 427/127/162 436/127/162
f 428/127/162 436/127/162 435/127/162
f 427/127/163 426/127/163 431/127/163
f 427/127/163 431/127/163 436/127/163
f 426/127/164 425/127/164 432/127/164
f 426/127/164 432/127/164 431/127/164
usemtl mat_15
f 437/127/165 438/127/165 439/127/165
f 437/127/165 439/127/165 440/127/165
f 438/127/166 441/127/166 442/127/166
f 438/127/166 442/127/166 439/127/166
f 441/127/167 443/127/167 444/127/167
f 441/127/167 444/127/167 442/127/167
f 443/127/168 445/127/168 446/127/168
f 443/127/168 446/127/168 444/127/168
f 445/127/169 447/127/169 448/127/169
f 445/127/169 448/127/169 446/127/169
f 447/127/170 449/127/170 450/127/170
f 447/127/170 450/127/170 448/127/170
f 449/127/171 451/127/171 452/127/171
f 449/127/171 452/127/171 450/127/171
f 451/127/172 453/127/172 454/127/172
f 451/127/172 454/127/172 452/127/172
f 453/127/173 455/127/173 456/127/173
f 453/127/173 456/127/173 454/127/173
f 455/127/174 457/127/174 458/127/174
f 455/127/174 458/127/174 456/127/174
f 457/127/175 459/127/175 460/127/175
f 457/127/175 460/127/175 458/127/175
f 459/127/176 461/127/176 462/127/176
f 459/127/176 462/127/176 460/127/176
f 461/127/177 463/127/177 464/127/177
f 461/127/177 464/127/177 462/127/177
f 463/127/178 465/127/178 466/127/178
f 463/127/178 466/127/178 464/127/178
f 465/127/179 467/127/179 468/127/179
f 465/127/179 468/127/179 466/127/179
f 467/127/180 469/127/180 470/127/180
f 467/127/180 470/127/180 468/127/180
f 469/127/181 471/127/181 472/127/181
f 469/127/181 472/127/181 470/127/181
f 471/127/182 473/127/182 474/127/182
f 471/127/182 474/127/182 472/127/182
f 473/127/183 475/127/183 476/127/183
f 473/127/183 476/127/183 474/127/183
f 475/127/184 437/127/184 440/127/184
f 475/127/184 440/127/184 476/127/184
f 440/127/101 439/127/101 477/127/101
f 440/127/101 477/127/101 478/127/101
f 439/127/101 442/127/101 479/127/101
f 439/127/101 479/127/101 477/127/101
f 442/127/101 444/127/101 480/127/101
f 442/127/101 480/127/101 479/127/101
f 444/127/101 446/127/101 481/127/101
f 444/127/101 481/127/101 480/127/101
f 446/127/101 448/127/101 482/127/101
f 446/127/101 482/127/101 481/127/101
f 448/127/101 450/127/101 483/127/101
f 448/127/101 483/127/101 482/127/101
f 450/127/101 452/127/101 484/127/101
f 450/127/101 484/127/101 483/127/101
f 452/127/101 454/127/101 485/127/101
f 452/127/101 485/127/101 484/127/101
f 454/127/101 456/127/101 486/127/101
f 454/127/101 486/127/101 485/127/101
f 456/127/101 458/127/101 487/127/101
f 456/127/101 487/127/101 486/127/101
f 458/127/101 460/127/101 488/127/101
f 458/127/101 488/127/101 487/127/101
f 460/127/101 462/127/101 489/127/101
f 460/127/101 489/127/101 488/127/101
f 462/127/101 464/127/101 490/127/101
f 462/127/101 490/127/101 489/127/101
f 464/127/101 466/127/101 491/127/101
f 464/127/101 491/127/101 490/127/101
f 466/127/101 468/127/101 492/127/101
f 466/127/101 492/127/101 491/127/101
f 468/127/101 470/127/101 493/127/101
f 468/127/101 493/127/101 492/127/101
f 470/127/101 472/127/101 494/127/101
f 470/127/101 494/127/101 493/127/101
f 472/127/101 474/127/101 495/127/101
f 472/127/101 495/127/101 494/127/101
f 474/127/101 476/127/101 496/127/101
f 474/127/101 496/127/101 495/127/101
f 476/127/101 440/127/101 478/127/101
f 476/127/101 478/127/101 496/127/101
f 478/127/185 477/127/185 497/127/185
f 478/127/185 497/127/185 498/127/185
f 477/127/186 479/127/186 499/127/186
f 477/127/186 499/127/186 497/127/186
f 479/127/187 480/127/187 500/127/187
f 479/127/187 500/127/187 499/127/187
f 480/127/188 481/127/188 501/127/188
f 480/127/188 501/127/188 500/127/188
f 481/127/189 482/127/189 502/127/189
f 481/127/189 502/127/189 501/127/189
f 482/127/190 483/127/190 503/127/190
f 482/127/190 503/127/190 502/127/190
f 483/127/191 484/127/191 504/127/191
f 483/127/191 504/127/191 503/127/191
f 484/127/192 485/127/192 505/127/192
f 484/127/192 505/127/192 504/127/192
f 485/127/193 486/127/193 506/127/193
f 485/127/193 506/127/193 505/127/193
f 486/127/194 487/127/194 507/127/194
f 486/127/194 507/127/194 506/127/194
f 487/127/195 488/127/195 508/127/195
f 487/127/195 508/127/195 507/127/195
f 488/127/196 489/127/196 509/127/196
f 488/127/196 509/127/196 508/127/196
f 489/127/197 490/127/197 510/127/197
f 489/127/197 510/127/197 509/127/197
f 490/127/198 491/127/198 511/127/198
f 490/127/198 511/127/198 510/127/198
f 491/127/199 492/127/199 512/127/199
f 491/127/199 512/127/199 511/127/199
f 492/127/200 493/127/200 513/127/200
f 492/127/200 513/127/200 512/127/200
f 493/127/201 494/127/201 514/127/201
f 493/127/201 514/127/201 513/127/201
f 494/127/202 495/127/202 515/127/202
f 494/127/202 515/127/202 514/127/202
f 495/127/203 496/127/203 516/127/203
f 495/127/203 516/127/203 515/127/203
f 496/127/204 478/127/204 498/127/204
f 496/127/204 498/127/204 516/127/204
f 498/127/122 497/127/122 438/127/122
f 498/127/122 438/127/122 437/127/122
f 497/127/122 499/127/122 441/127/122
f 497/127/122 441/127/122 438/127/122
f 499/127/122 500/127/122 443/127/122
f 499/127/122 443/127/122 441/127/122
f 500/127/122 501/127/122 445/127/122
f 500/127/122 445/127/122 443/127/122
f 501/127/122 502/127/122 447/127/122
f 501/127/122 447/127/122 445/127/122
f 502/127/122 503/127/122 449/127/122
f 502/127/122 449/127/122 447/127/122
f 503/127/122 504/127/122 451/127/122
f 503/127/122 451/127/122 449/127/122
f 504/127/122 505/127/122 453/127/122
f 504/127/122 453/127/122 451/127/122
f 505/127/122 506/127/122 455/127/122
f 505/127/122 455/127/122 453/127/122
f 506/127/122 507/127/122 457/127/122
f 506/127/122 457/127/122 455/127/122
f 507/127/122 508/127/122 459/127/122
f 507/127/122 459/127/122 457/127/122
f 508/127/122 509/127/122 461/127/122
f 508/127/122 461/127/122 459/127/122
f 509/127/122 510/127/122 463/127/122
f 509/127/122 463/127/122 461/127/122
f 510/127/122 511/127/122 465/127/122
f 510/127/122 465/127/122 463/127/122
f 511/127/122 512/127/122 467/127/122
f 511/127/122 467/127/122 465/127/122
f 512/127/122 513/127/122 469/127/122
f 512/127/122 469/127/122 467/127/122
f 513/127/122 514/127/122 471/127/122
f 513/127/122 471/127/122 469/127/122
f 514/127/122 515/127/122 473/127/122
f 514/127/122 473/127/122 471/127/122
f 515/127/122 516/127/122 475/127/122
f 515/127/122 475/127/122 473/127/122
f 516/127/122 498/127/122 437/127/122
f 516/127/122 437/127/122 475/127/122
