# Authored in Blender; exported by tools-export-modern.py
mtllib materials.mtl
s off
v 0.097824736 0.000000000 0.090479159
v 0.058867176 0.000000000 0.165910791
v 0.154999733 0.098658323 0.099989414
v 0.144553857 0.000000227 0.000000000
v 0.144553597 0.000000000 0.000000227
v 0.154999733 0.016599160 0.000000000
v 0.055482192 0.000000000 0.174731254
v 0.049999952 0.000000000 0.189016641
v 0.049999952 0.045458555 0.274063706
v 0.154999733 0.165193319 0.224467993
v 0.049999952 0.079055786 0.384818673
v 0.154999733 0.206165552 0.359534979
v 0.049999952 0.090399981 0.500000000
v 0.154999733 0.220000267 0.500000000
v 0.049999952 0.079055786 0.615181327
v 0.154999733 0.206165552 0.640465021
v 0.049999952 0.045458555 0.725936294
v 0.154999733 0.165193319 0.775532007
v 0.049999952 0.000000000 0.810983359
v 0.058867176 0.000000000 0.834089209
v 0.154999733 0.098658323 0.900010586
v 0.149714102 0.008200076 1.000000000
v 0.102451059 0.000000000 0.918478626
v 0.144553597 0.000000000 0.999999773
v 0.144553857 0.000000227 1.000000000
v 0.154999733 0.016599160 1.000000000
v 0.163773521 0.016599160 0.000000000
v 0.259999990 0.098658323 0.099989414
v 0.259999990 0.016599160 0.000000000
v 0.259999990 0.165193319 0.224467993
v 0.259999990 0.206165552 0.359534979
v 0.259999990 0.220000267 0.500000000
v 0.259999990 0.206165552 0.640465021
v 0.259999990 0.165193319 0.775532007
v 0.259999990 0.098658323 0.900010586
v 0.251226202 0.016599160 1.000000000
v 0.259999990 0.016599160 1.000000000
v 1.000000000 0.038178744 0.026294807
v 0.450516066 0.016599160 0.000000000
v 1.000000000 0.098658323 0.099989414
v 1.000000000 0.016599160 0.000000000
v 1.000000000 0.120253016 0.140390357
v 1.000000000 0.165193319 0.224467993
v 1.000000000 0.178491325 0.268305524
v 1.000000000 0.206165552 0.359534979
v 1.000000000 0.210655767 0.405124504
v 1.000000000 0.220000267 0.500000000
v 1.000000000 0.215510052 0.545589526
v 1.000000000 0.206165552 0.640465021
v 1.000000000 0.192867546 0.684302553
v 1.000000000 0.165193319 0.775532007
v 1.000000000 0.143598627 0.815932950
v 1.000000000 0.098658323 0.900010586
v 1.000000000 0.016599160 1.000000000
v 1.000000000 0.069596706 0.935422281
v 0.049999952 0.000000000 0.793969831
v 0.049999952 0.000000000 0.206030169
v 0.049999952 0.000000000 0.718244991
v 0.049999952 0.000000000 0.281755009
v 0.049999952 0.000000000 0.590399981
v 0.049999952 0.000000000 0.409600019
v 0.193848545 0.058311409 0.000000000
v 0.147500038 0.058311409 0.000000000
v 0.147500038 0.125597715 0.081988931
v 0.312499762 0.125597715 0.081988931
v 0.312499762 0.058311409 0.000000000
v 0.147500038 0.195127249 0.212069035
v 0.312499762 0.195127249 0.212069035
v 0.147500038 0.237942934 0.353214025
v 0.312499762 0.237942934 0.353214025
v 0.147500038 0.252400160 0.500000000
v 0.312499762 0.252400160 0.500000000
v 0.147500038 0.237942934 0.646785975
v 0.312499762 0.237942934 0.646785975
v 0.147500038 0.195127249 0.787930965
v 0.312499762 0.195127249 0.787930965
v 0.147500038 0.125597715 0.918011069
v 0.312499762 0.125597715 0.918011069
v 0.266151193 0.058311444 1.000000000
v 0.147500038 0.058311444 1.000000000
v 0.312499762 0.058311444 1.000000000
v 0.147500038 0.053427383 1.000000000
v 0.147500038 0.053427349 0.000000000
v 0.147500038 0.045293589 1.000000000
v 0.147500038 0.045293565 0.000000000
v 0.147500038 0.000000000 0.752400160
v 0.147500038 0.000000000 1.000000000
v 0.147500038 0.000000000 0.000000000
v 0.147500038 0.000000000 0.247599860
v 0.312499762 0.043608855 0.000000000
v 0.312499762 0.043608832 1.000000000
v 0.312499762 0.001932920 0.000000000
v 0.312499762 0.002892643 1.000000000
v 0.312499762 0.000000000 0.194225639
v 0.312499762 0.000000000 0.000000000
v 0.312499762 0.000000000 1.000000000
v 0.312499762 0.000000000 0.709320790
v 0.141499758 0.044778824 0.906009674
v 0.141499758 0.081151962 0.885009646
v 0.107899785 0.081151962 0.885009646
v 0.107899785 0.044778824 0.906009674
v 0.141499758 0.081151962 0.843009591
v 0.107899785 0.081151962 0.843009591
v 0.141499758 0.044778824 0.822009563
v 0.107899785 0.044778824 0.822009563
v 0.141499758 0.008405685 0.843009591
v 0.107899785 0.008405685 0.843009591
v 0.141499758 0.008405685 0.885009646
v 0.107899785 0.008405685 0.885009646
v 0.141499758 0.142610550 0.669823289
v 0.141499758 0.178983688 0.648823261
v 0.107899785 0.178983688 0.648823261
v 0.107899785 0.142610550 0.669823289
v 0.141499758 0.178983688 0.606823206
v 0.107899785 0.178983688 0.606823206
v 0.141499758 0.142610550 0.585823178
v 0.107899785 0.142610550 0.585823178
v 0.141499758 0.106237411 0.606823206
v 0.107899785 0.106237411 0.606823206
v 0.141499758 0.106237411 0.648823261
v 0.107899785 0.106237411 0.648823261
v 0.141499758 0.142610550 0.414176822
v 0.141499758 0.178983688 0.393176794
v 0.107899785 0.178983688 0.393176794
v 0.107899785 0.142610550 0.414176822
v 0.141499758 0.178983688 0.351176739
v 0.107899785 0.178983688 0.351176739
v 0.141499758 0.142610550 0.330176711
v 0.107899785 0.142610550 0.330176711
v 0.141499758 0.106237411 0.351176739
v 0.107899785 0.106237411 0.351176739
v 0.141499758 0.106237411 0.393176794
v 0.107899785 0.106237411 0.393176794
v 0.141499758 0.044778824 0.177990437
v 0.141499758 0.081151962 0.156990409
v 0.107899785 0.081151962 0.156990409
v 0.107899785 0.044778824 0.177990437
v 0.141499758 0.081151962 0.114990354
v 0.107899785 0.081151962 0.114990354
v 0.141499758 0.044778824 0.093990326
v 0.107899785 0.044778824 0.093990326
v 0.141499758 0.008405685 0.114990354
v 0.107899785 0.008405685 0.114990354
v 0.141499758 0.008405685 0.156990409
v 0.107899785 0.008405685 0.156990409
v 0.487124291 0.000000000 0.252039312
v 0.422745705 0.000000000 0.262235880
v 0.422745705 0.920000076 0.262235880
v 0.500000000 0.000000000 0.250000000
v 0.500000000 0.920000076 0.250000000
v 0.411130375 0.000000000 0.268154181
v 0.353053689 0.000000000 0.297745705
v 0.353053689 0.920000076 0.297745705
v 0.343835697 0.000000000 0.306963697
v 0.297745705 0.000000000 0.353053689
v 0.297745705 0.920000076 0.353053689
v 0.291827404 0.000000000 0.364669019
v 0.262235880 0.000000000 0.422745705
v 0.262235880 0.920000076 0.422745705
v 0.260196568 0.000000000 0.435621414
v 0.250000000 0.000000000 0.500000000
v 0.250000000 0.920000076 0.500000000
v 0.252039312 0.000000000 0.512875709
v 0.262235880 0.000000000 0.577254295
v 0.262235880 0.920000076 0.577254295
v 0.268154181 0.000000000 0.588869625
v 0.297745705 0.000000000 0.646946311
v 0.297745705 0.920000076 0.646946311
v 0.306963697 0.000000000 0.656164303
v 0.353053689 0.000000000 0.702254295
v 0.353053689 0.920000076 0.702254295
v 0.364669019 0.000000000 0.708172596
v 0.422745705 0.000000000 0.737764120
v 0.422745705 0.920000076 0.737764120
v 0.435621414 0.000000000 0.739803432
v 0.500000000 0.000000000 0.750000000
v 0.500000000 0.920000076 0.750000000
v 0.512875709 0.000000000 0.747960688
v 0.577254295 0.000000000 0.737764120
v 0.577254295 0.920000076 0.737764120
v 0.588869625 0.000000000 0.731845819
v 0.646946311 0.000000000 0.702254295
v 0.646946311 0.920000076 0.702254295
v 0.656164303 0.000000000 0.693036303
v 0.702254295 0.000000000 0.646946311
v 0.702254295 0.920000076 0.646946311
v 0.708172596 0.000000000 0.635330981
v 0.737764120 0.000000000 0.577254295
v 0.737764120 0.920000076 0.577254295
v 0.739803432 0.000000000 0.564378586
v 0.750000000 0.000000000 0.500000000
v 0.750000000 0.920000076 0.500000000
v 0.747960688 0.000000000 0.487124291
v 0.737764120 0.000000000 0.422745705
v 0.737764120 0.920000076 0.422745705
v 0.731845819 0.000000000 0.411130375
v 0.702254295 0.000000000 0.353053689
v 0.702254295 0.920000076 0.353053689
v 0.693036303 0.000000000 0.343835697
v 0.646946311 0.000000000 0.297745705
v 0.646946311 0.920000076 0.297745705
v 0.635330981 0.000000000 0.291827404
v 0.577254295 0.000000000 0.262235880
v 0.577254295 0.920000076 0.262235880
v 0.564378586 0.000000000 0.260196568
v 0.436651468 0.920000076 0.305033445
v 0.500000000 0.920000076 0.294999957
v 0.379503965 0.920000076 0.334151506
v 0.334151506 0.920000076 0.379503965
v 0.305033445 0.920000076 0.436651468
v 0.294999957 0.920000076 0.500000000
v 0.305033445 0.920000076 0.563348532
v 0.334151506 0.920000076 0.620496035
v 0.379503965 0.920000076 0.665848494
v 0.436651468 0.920000076 0.694966555
v 0.500000000 0.920000076 0.705000043
v 0.563348532 0.920000076 0.694966555
v 0.620496035 0.920000076 0.665848494
v 0.665848494 0.920000076 0.620496035
v 0.694966555 0.920000076 0.563348532
v 0.705000043 0.920000076 0.500000000
v 0.694966555 0.920000076 0.436651468
v 0.665848494 0.920000076 0.379503965
v 0.620496035 0.920000076 0.334151506
v 0.563348532 0.920000076 0.305033445
v 0.447209551 0.000000000 0.303361198
v 0.436651468 0.000000000 0.305033445
v 0.500000000 0.000000000 0.294999957
v 0.389028544 0.000000000 0.329298499
v 0.379503965 0.000000000 0.334151506
v 0.341710246 0.000000000 0.371945226
v 0.334151506 0.000000000 0.379503965
v 0.309886453 0.000000000 0.427126890
v 0.305033445 0.000000000 0.436651468
v 0.296672204 0.000000000 0.489441917
v 0.294999957 0.000000000 0.500000000
v 0.303361198 0.000000000 0.552790449
v 0.305033445 0.000000000 0.563348532
v 0.329298499 0.000000000 0.610971456
v 0.334151506 0.000000000 0.620496035
v 0.371945226 0.000000000 0.658289754
v 0.379503965 0.000000000 0.665848494
v 0.427126890 0.000000000 0.690113547
v 0.436651468 0.000000000 0.694966555
v 0.489441917 0.000000000 0.703327796
v 0.500000000 0.000000000 0.705000043
v 0.552790449 0.000000000 0.696638802
v 0.563348532 0.000000000 0.694966555
v 0.610971456 0.000000000 0.670701501
v 0.620496035 0.000000000 0.665848494
v 0.658289754 0.000000000 0.628054774
v 0.665848494 0.000000000 0.620496035
v 0.690113547 0.000000000 0.572873110
v 0.694966555 0.000000000 0.563348532
v 0.703327796 0.000000000 0.510558083
v 0.705000043 0.000000000 0.500000000
v 0.696638802 0.000000000 0.447209551
v 0.694966555 0.000000000 0.436651468
v 0.670701501 0.000000000 0.389028544
v 0.665848494 0.000000000 0.379503965
v 0.628054774 0.000000000 0.341710246
v 0.620496035 0.000000000 0.334151506
v 0.572873110 0.000000000 0.309886453
v 0.563348532 0.000000000 0.305033445
v 0.510558083 0.000000000 0.296672204
v 0.500000000 0.880000114 0.090000033
v 0.373303056 0.880000114 0.110066891
v 0.373303056 0.974999905 0.110066891
v 0.500000000 0.974999905 0.090000033
v 0.259008050 0.880000114 0.168303013
v 0.259008050 0.974999905 0.168303013
v 0.168303013 0.880000114 0.259008050
v 0.168303013 0.974999905 0.259008050
v 0.110066891 0.880000114 0.373303056
v 0.110066891 0.974999905 0.373303056
v 0.090000033 0.880000114 0.500000000
v 0.090000033 0.974999905 0.500000000
v 0.110066891 0.880000114 0.626696944
v 0.110066891 0.974999905 0.626696944
v 0.168303013 0.880000114 0.740991950
v 0.168303013 0.974999905 0.740991950
v 0.259008050 0.880000114 0.831696987
v 0.259008050 0.974999905 0.831696987
v 0.373303056 0.880000114 0.889933109
v 0.373303056 0.974999905 0.889933109
v 0.500000000 0.880000114 0.909999967
v 0.500000000 0.974999905 0.909999967
v 0.626696944 0.880000114 0.889933109
v 0.626696944 0.974999905 0.889933109
v 0.740991950 0.880000114 0.831696987
v 0.740991950 0.974999905 0.831696987
v 0.831696987 0.880000114 0.740991950
v 0.831696987 0.974999905 0.740991950
v 0.889933109 0.880000114 0.626696944
v 0.889933109 0.974999905 0.626696944
v 0.909999967 0.880000114 0.500000000
v 0.909999967 0.974999905 0.500000000
v 0.889933109 0.880000114 0.373303056
v 0.889933109 0.974999905 0.373303056
v 0.831696987 0.880000114 0.259008050
v 0.831696987 0.974999905 0.259008050
v 0.740991950 0.880000114 0.168303013
v 0.740991950 0.974999905 0.168303013
v 0.626696944 0.880000114 0.110066891
v 0.626696944 0.974999905 0.110066891
v 0.436651468 0.974999905 0.305033445
v 0.500000000 0.974999905 0.294999957
v 0.379503965 0.974999905 0.334151506
v 0.334151506 0.974999905 0.379503965
v 0.305033445 0.974999905 0.436651468
v 0.294999957 0.974999905 0.500000000
v 0.305033445 0.974999905 0.563348532
v 0.334151506 0.974999905 0.620496035
v 0.379503965 0.974999905 0.665848494
v 0.436651468 0.974999905 0.694966555
v 0.500000000 0.974999905 0.705000043
v 0.563348532 0.974999905 0.694966555
v 0.620496035 0.974999905 0.665848494
v 0.665848494 0.974999905 0.620496035
v 0.694966555 0.974999905 0.563348532
v 0.705000043 0.974999905 0.500000000
v 0.694966555 0.974999905 0.436651468
v 0.665848494 0.974999905 0.379503965
v 0.620496035 0.974999905 0.334151506
v 0.563348532 0.974999905 0.305033445
v 0.436651468 0.880000114 0.305033445
v 0.500000000 0.880000114 0.294999957
v 0.379503965 0.880000114 0.334151506
v 0.334151506 0.880000114 0.379503965
v 0.305033445 0.880000114 0.436651468
v 0.294999957 0.880000114 0.500000000
v 0.305033445 0.880000114 0.563348532
v 0.334151506 0.880000114 0.620496035
v 0.379503965 0.880000114 0.665848494
v 0.436651468 0.880000114 0.694966555
v 0.500000000 0.880000114 0.705000043
v 0.563348532 0.880000114 0.694966555
v 0.620496035 0.880000114 0.665848494
v 0.665848494 0.880000114 0.620496035
v 0.694966555 0.880000114 0.563348532
v 0.705000043 0.880000114 0.500000000
v 0.694966555 0.880000114 0.436651468
v 0.665848494 0.880000114 0.379503965
v 0.620496035 0.880000114 0.334151506
v 0.563348532 0.880000114 0.305033445
v 0.500000000 0.974999905 0.118700027
v 0.382171869 0.974999905 0.137362123
v 0.382171869 1.000000000 0.137362123
v 0.500000000 1.000000000 0.118700027
v 0.275877476 0.974999905 0.191521883
v 0.275877476 1.000000000 0.191521883
v 0.191521883 0.974999905 0.275877476
v 0.191521883 1.000000000 0.275877476
v 0.137362123 0.974999905 0.382171869
v 0.137362123 1.000000000 0.382171869
v 0.118700027 0.974999905 0.500000000
v 0.118700027 1.000000000 0.500000000
v 0.137362123 0.974999905 0.617828131
v 0.137362123 1.000000000 0.617828131
v 0.191521883 0.974999905 0.724122524
v 0.191521883 1.000000000 0.724122524
v 0.275877476 0.974999905 0.808478117
v 0.275877476 1.000000000 0.808478117
v 0.382171869 0.974999905 0.862637877
v 0.382171869 1.000000000 0.862637877
v 0.500000000 0.974999905 0.881299973
v 0.500000000 1.000000000 0.881299973
v 0.617828131 0.974999905 0.862637877
v 0.617828131 1.000000000 0.862637877
v 0.724122524 0.974999905 0.808478117
v 0.724122524 1.000000000 0.808478117
v 0.808478117 0.974999905 0.724122524
v 0.808478117 1.000000000 0.724122524
v 0.862637877 0.974999905 0.617828131
v 0.862637877 1.000000000 0.617828131
v 0.881299973 0.974999905 0.500000000
v 0.881299973 1.000000000 0.500000000
v 0.862637877 0.974999905 0.382171869
v 0.862637877 1.000000000 0.382171869
v 0.808478117 0.974999905 0.275877476
v 0.808478117 1.000000000 0.275877476
v 0.724122524 0.974999905 0.191521883
v 0.724122524 1.000000000 0.191521883
v 0.617828131 0.974999905 0.137362123
v 0.617828131 1.000000000 0.137362123
v 0.436651468 1.000000000 0.305033445
v 0.500000000 1.000000000 0.294999957
v 0.379503965 1.000000000 0.334151506
v 0.334151506 1.000000000 0.379503965
v 0.305033445 1.000000000 0.436651468
v 0.294999957 1.000000000 0.500000000
v 0.305033445 1.000000000 0.563348532
v 0.334151506 1.000000000 0.620496035
v 0.379503965 1.000000000 0.665848494
v 0.436651468 1.000000000 0.694966555
v 0.500000000 1.000000000 0.705000043
v 0.563348532 1.000000000 0.694966555
v 0.620496035 1.000000000 0.665848494
v 0.665848494 1.000000000 0.620496035
v 0.694966555 1.000000000 0.563348532
v 0.705000043 1.000000000 0.500000000
v 0.694966555 1.000000000 0.436651468
v 0.665848494 1.000000000 0.379503965
v 0.620496035 1.000000000 0.334151506
v 0.563348532 1.000000000 0.305033445
v 0.500000000 0.859999895 0.141899943
v 0.522516608 0.859999895 0.154899955
v 0.522516608 0.859999895 0.180899978
v 0.500000000 0.859999895 0.193899989
v 0.477483392 0.859999895 0.180899978
v 0.477483392 0.859999895 0.154899955
v 0.522516608 0.982000113 0.154899955
v 0.500000000 0.982000113 0.141899943
v 0.477483392 0.982000113 0.154899955
v 0.477483392 0.982000113 0.180899978
v 0.500000000 0.982000113 0.193899989
v 0.522516608 0.982000113 0.180899978
v 0.265169859 0.859999895 0.239169836
v 0.287686467 0.859999895 0.252169847
v 0.287686467 0.859999895 0.278169870
v 0.265169859 0.859999895 0.291169882
v 0.242653251 0.859999895 0.278169870
v 0.242653251 0.859999895 0.252169847
v 0.287686467 0.982000113 0.252169847
v 0.265169859 0.982000113 0.239169836
v 0.242653251 0.982000113 0.252169847
v 0.242653251 0.982000113 0.278169870
v 0.265169859 0.982000113 0.291169882
v 0.287686467 0.982000113 0.278169870
v 0.167899966 0.859999895 0.473999977
v 0.190416574 0.859999895 0.486999989
v 0.190416574 0.859999895 0.513000011
v 0.167899966 0.859999895 0.526000023
v 0.145383358 0.859999895 0.513000011
v 0.145383358 0.859999895 0.486999989
v 0.190416574 0.982000113 0.486999989
v 0.167899966 0.982000113 0.473999977
v 0.145383358 0.982000113 0.486999989
v 0.145383358 0.982000113 0.513000011
v 0.167899966 0.982000113 0.526000023
v 0.190416574 0.982000113 0.513000011
v 0.265169859 0.859999895 0.708830118
v 0.287686467 0.859999895 0.721830130
v 0.287686467 0.859999895 0.747830153
v 0.265169859 0.859999895 0.760830164
v 0.242653251 0.859999895 0.747830153
v 0.242653251 0.859999895 0.721830130
v 0.287686467 0.982000113 0.721830130
v 0.265169859 0.982000113 0.708830118
v 0.242653251 0.982000113 0.721830130
v 0.242653251 0.982000113 0.747830153
v 0.265169859 0.982000113 0.760830164
v 0.287686467 0.982000113 0.747830153
v 0.500000000 0.859999895 0.806100011
v 0.522516608 0.859999895 0.819100022
v 0.522516608 0.859999895 0.845100045
v 0.500000000 0.859999895 0.858100057
v 0.477483392 0.859999895 0.845100045
v 0.477483392 0.859999895 0.819100022
v 0.522516608 0.982000113 0.819100022
v 0.500000000 0.982000113 0.806100011
v 0.477483392 0.982000113 0.819100022
v 0.477483392 0.982000113 0.845100045
v 0.500000000 0.982000113 0.858100057
v 0.522516608 0.982000113 0.845100045
v 0.734830141 0.859999895 0.708830118
v 0.757346749 0.859999895 0.721830130
v 0.757346749 0.859999895 0.747830153
v 0.734830141 0.859999895 0.760830164
v 0.712313533 0.859999895 0.747830153
v 0.712313533 0.859999895 0.721830130
v 0.757346749 0.982000113 0.721830130
v 0.734830141 0.982000113 0.708830118
v 0.712313533 0.982000113 0.721830130
v 0.712313533 0.982000113 0.747830153
v 0.734830141 0.982000113 0.760830164
v 0.757346749 0.982000113 0.747830153
v 0.832100034 0.859999895 0.473999977
v 0.854616642 0.859999895 0.486999989
v 0.854616642 0.859999895 0.513000011
v 0.832100034 0.859999895 0.526000023
v 0.809583426 0.859999895 0.513000011
v 0.809583426 0.859999895 0.486999989
v 0.854616642 0.982000113 0.486999989
v 0.832100034 0.982000113 0.473999977
v 0.809583426 0.982000113 0.486999989
v 0.809583426 0.982000113 0.513000011
v 0.832100034 0.982000113 0.526000023
v 0.854616642 0.982000113 0.513000011
v 0.734830141 0.859999895 0.239169836
v 0.757346749 0.859999895 0.252169847
v 0.757346749 0.859999895 0.278169870
v 0.734830141 0.859999895 0.291169882
v 0.712313533 0.859999895 0.278169870
v 0.712313533 0.859999895 0.252169847
v 0.757346749 0.982000113 0.252169847
v 0.734830141 0.982000113 0.239169836
v 0.712313533 0.982000113 0.252169847
v 0.712313533 0.982000113 0.278169870
v 0.734830141 0.982000113 0.291169882
v 0.757346749 0.982000113 0.278169870
v 0.500000000 0.700000048 0.243000031
v 0.420582652 0.700000048 0.255578518
v 0.420582652 0.799999952 0.255578518
v 0.500000000 0.799999952 0.243000031
v 0.348939180 0.700000048 0.292082667
v 0.348939180 0.799999952 0.292082667
v 0.292082667 0.700000048 0.348939180
v 0.292082667 0.799999952 0.348939180
v 0.255578518 0.700000048 0.420582652
v 0.255578518 0.799999952 0.420582652
v 0.243000031 0.700000048 0.500000000
v 0.243000031 0.799999952 0.500000000
v 0.255578518 0.700000048 0.579417348
v 0.255578518 0.799999952 0.579417348
v 0.292082667 0.700000048 0.651060820
v 0.292082667 0.799999952 0.651060820
v 0.348939180 0.700000048 0.707917333
v 0.348939180 0.799999952 0.707917333
v 0.420582652 0.700000048 0.744421482
v 0.420582652 0.799999952 0.744421482
v 0.500000000 0.700000048 0.756999969
v 0.500000000 0.799999952 0.756999969
v 0.579417348 0.700000048 0.744421482
v 0.579417348 0.799999952 0.744421482
v 0.651060820 0.700000048 0.707917333
v 0.651060820 0.799999952 0.707917333
v 0.707917333 0.700000048 0.651060820
v 0.707917333 0.799999952 0.651060820
v 0.744421482 0.700000048 0.579417348
v 0.744421482 0.799999952 0.579417348
v 0.756999969 0.700000048 0.500000000
v 0.756999969 0.799999952 0.500000000
v 0.744421482 0.700000048 0.420582652
v 0.744421482 0.799999952 0.420582652
v 0.707917333 0.700000048 0.348939180
v 0.707917333 0.799999952 0.348939180
v 0.651060820 0.700000048 0.292082667
v 0.651060820 0.799999952 0.292082667
v 0.579417348 0.700000048 0.255578518
v 0.579417348 0.799999952 0.255578518
v 0.423054814 0.799999952 0.263186932
v 0.500000000 0.799999952 0.251000047
v 0.353641510 0.799999952 0.298554778
v 0.298554778 0.799999952 0.353641510
v 0.263186932 0.799999952 0.423054814
v 0.251000047 0.799999952 0.500000000
v 0.263186932 0.799999952 0.576945186
v 0.298554778 0.799999952 0.646358490
v 0.353641510 0.799999952 0.701445222
v 0.423054814 0.799999952 0.736813068
v 0.500000000 0.799999952 0.748999953
v 0.576945186 0.799999952 0.736813068
v 0.646358490 0.799999952 0.701445222
v 0.701445222 0.799999952 0.646358490
v 0.736813068 0.799999952 0.576945186
v 0.748999953 0.799999952 0.500000000
v 0.736813068 0.799999952 0.423054814
v 0.701445222 0.799999952 0.353641510
v 0.646358490 0.799999952 0.298554778
v 0.576945186 0.799999952 0.263186932
v 0.423054814 0.700000048 0.263186932
v 0.500000000 0.700000048 0.251000047
v 0.353641510 0.700000048 0.298554778
v 0.298554778 0.700000048 0.353641510
v 0.263186932 0.700000048 0.423054814
v 0.251000047 0.700000048 0.500000000
v 0.263186932 0.700000048 0.576945186
v 0.298554778 0.700000048 0.646358490
v 0.353641510 0.700000048 0.701445222
v 0.423054814 0.700000048 0.736813068
v 0.500000000 0.700000048 0.748999953
v 0.576945186 0.700000048 0.736813068
v 0.646358490 0.700000048 0.701445222
v 0.701445222 0.700000048 0.646358490
v 0.736813068 0.700000048 0.576945186
v 0.748999953 0.700000048 0.500000000
v 0.736813068 0.700000048 0.423054814
v 0.701445222 0.700000048 0.353641510
v 0.646358490 0.700000048 0.298554778
v 0.576945186 0.700000048 0.263186932
vt 0.720826908 0.103190090
vt 0.714688243 0.103190090
vt 0.720052958 0.111218922
vt 0.728190092 0.103190104
vt 0.728190074 0.103190085
vt 0.728190091 0.104540928
vt 0.713970430 0.103190090
vt 0.712807880 0.103190091
vt 0.705886722 0.106889524
vt 0.709922850 0.116633557
vt 0.696873486 0.109623671
vt 0.698931098 0.119967885
vt 0.687500000 0.110546872
vt 0.687500000 0.121093750
vt 0.678126514 0.109623671
vt 0.676068902 0.119967885
vt 0.669113278 0.106889524
vt 0.665077150 0.116633557
vt 0.662192120 0.103190091
vt 0.660311757 0.103190090
vt 0.654947042 0.111218922
vt 0.646809911 0.103857409
vt 0.653444134 0.103190087
vt 0.646809926 0.103190085
vt 0.646809908 0.103190104
vt 0.646809909 0.104540928
vt 0.633844364 0.103190104
vt 0.633463562 0.103190104
vt 0.633463562 0.095052943
vt 0.638020813 0.095052943
vt 0.638020813 0.103190104
vt 0.633463562 0.084922858
vt 0.638020813 0.084922858
vt 0.633463562 0.073931076
vt 0.638020813 0.073931076
vt 0.633463562 0.062500000
vt 0.638020813 0.062500000
vt 0.633463562 0.051068928
vt 0.638020813 0.051068928
vt 0.633463562 0.040077142
vt 0.638020813 0.040077142
vt 0.633463562 0.029947056
vt 0.638020813 0.029947056
vt 0.637640011 0.021809898
vt 0.633463562 0.021809898
vt 0.638020813 0.021809898
vt 0.670138883 0.101050226
vt 0.646289744 0.103190104
vt 0.670138883 0.095052943
vt 0.670138883 0.103190104
vt 0.670138883 0.091765108
vt 0.670138883 0.084922858
vt 0.670138883 0.081355349
vt 0.670138883 0.073931076
vt 0.670138883 0.070220990
vt 0.670138883 0.062500000
vt 0.670138883 0.058789915
vt 0.670138883 0.051068928
vt 0.670138883 0.047501419
vt 0.670138883 0.040077142
vt 0.670138883 0.036789307
vt 0.670138883 0.029947056
vt 0.670138883 0.021809898
vt 0.670138883 0.027065245
vt 0.663576680 0.103190095
vt 0.711423320 0.103190095
vt 0.669739166 0.103190098
vt 0.705260834 0.103190098
vt 0.680143229 0.103190103
vt 0.694856771 0.103190103
vt 0.661824278 0.101437896
vt 0.628906250 0.101437896
vt 0.628906250 0.095052943
vt 0.746093750 0.095052943
vt 0.746093750 0.101437896
vt 0.628906250 0.084922858
vt 0.746093750 0.084922858
vt 0.628906250 0.073931076
vt 0.746093750 0.073931076
vt 0.628906250 0.062500000
vt 0.746093750 0.062500000
vt 0.628906250 0.051068928
vt 0.746093750 0.051068928
vt 0.628906250 0.040077142
vt 0.746093750 0.040077142
vt 0.628906250 0.029947057
vt 0.746093750 0.029947057
vt 0.713175678 0.023562109
vt 0.628906250 0.023562109
vt 0.746093750 0.023562109
vt 0.648562122 0.105598579
vt 0.648562114 0.105978935
vt 0.665077150 0.116633564
vt 0.676068902 0.119967893
vt 0.698931098 0.119967893
vt 0.709922850 0.116633564
vt 0.726437882 0.105598576
vt 0.726437889 0.105978933
vt 0.648562123 0.104965154
vt 0.726437882 0.104965153
vt 0.667844140 0.101437890
vt 0.648562121 0.101437882
vt 0.726437883 0.101437882
vt 0.707155860 0.101437890
vt 0.726437908 0.104833969
vt 0.648562091 0.104833967
vt 0.726437908 0.101588417
vt 0.648562096 0.101663166
vt 0.711312435 0.101437898
vt 0.726437907 0.101437889
vt 0.648562097 0.101437900
vt 0.671198997 0.101437898
vt 0.937500000 0.003906250
vt 0.996093750 0.003906250
vt 0.996093750 0.121093750
vt 0.937500000 0.121093750
vt 0.966796875 0.003906250
vt 0.908203125 0.003906250
vt 0.908203125 0.121093750
vt 0.966796875 0.121093750
vt 0.878906250 0.003906250
vt 0.878906250 0.121093750
vt 0.996093750 0.062500000
vt 0.878906250 0.062500000
vt 0.500000000 0.500000000
vn -0.775505146 0.488033235 -0.400518827
vn -0.775505313 0.488033293 -0.400518433
vn -0.775504894 0.556793674 -0.297612102
vn -0.775505124 0.556793647 -0.297611553
vn -0.775504955 0.604156009 -0.183269153
vn -0.775504925 0.604156026 -0.183269221
vn -0.775505726 0.628300549 -0.061881242
vn -0.775505005 0.628301287 -0.061882803
vn -0.775504933 0.628301519 0.061881338
vn -0.775505655 0.628300491 0.061882724
vn -0.775504922 0.604156047 0.183269164
vn -0.775504952 0.604155995 0.183269212
vn -0.775505147 0.556793400 0.297611956
vn -0.775504917 0.556793872 0.297611673
vn -0.775505329 0.488033061 0.400518684
vn -0.775505162 0.488033436 0.400518550
vn 0.000000000 0.773010562 -0.634393151
vn 0.000000000 0.881921825 -0.471395688
vn 0.000000000 0.956940118 -0.290285394
vn 0.000000000 0.995184645 -0.098017967
vn 0.000000000 0.995184645 0.098017967
vn 0.000000000 0.956940118 0.290285394
vn 0.000000000 0.881921825 0.471395688
vn 0.000000000 0.773010562 0.634393151
vn -1.000000000 0.000000000 0.000000000
vn 0.000000000 0.773011702 -0.634391763
vn 0.000000000 0.881920505 -0.471398157
vn 0.000000000 0.956940674 -0.290283562
vn 0.000000000 0.995184681 -0.098017605
vn 0.000000000 0.995184681 0.098017605
vn 0.000000000 0.956940674 0.290283562
vn 0.000000000 0.881920505 0.471398157
vn 0.000000000 0.773011865 0.634391565
vn 1.000000000 0.000000000 0.000000000
vn 0.000000000 0.499999757 0.866025544
vn 0.000000000 1.000000000 0.000000000
vn 0.000000000 0.499999757 -0.866025544
vn 0.000000000 -0.499999757 -0.866025544
vn 0.000000000 -1.000000000 0.000000000
vn 0.000000000 -0.499999757 0.866025544
vn -0.156434485 0.000000000 -0.987688338
vn -0.453990187 0.000000000 -0.891006684
vn -0.707106781 0.000000000 -0.707106781
vn -0.891006684 0.000000000 -0.453990187
vn -0.987688338 0.000000000 -0.156434485
vn -0.987688338 0.000000000 0.156434485
vn -0.891006684 0.000000000 0.453990187
vn -0.707106781 0.000000000 0.707106781
vn -0.453990187 0.000000000 0.891006684
vn -0.156434485 0.000000000 0.987688338
vn 0.156434485 0.000000000 0.987688338
vn 0.453990187 0.000000000 0.891006684
vn 0.707106781 0.000000000 0.707106781
vn 0.891006684 0.000000000 0.453990187
vn 0.987688338 0.000000000 0.156434485
vn 0.987688338 0.000000000 -0.156434485
vn 0.891006684 0.000000000 -0.453990187
vn 0.707106781 0.000000000 -0.707106781
vn 0.453990187 0.000000000 -0.891006684
vn 0.156434485 0.000000000 -0.987688338
vn 0.156435477 0.000000000 0.987688180
vn 0.453989930 0.000000000 0.891006815
vn 0.891006815 0.000000000 0.453989930
vn 0.987688180 0.000000000 0.156435477
vn 0.987688180 0.000000000 -0.156435477
vn 0.891006815 0.000000000 -0.453989930
vn 0.453989930 0.000000000 -0.891006815
vn 0.156435477 0.000000000 -0.987688180
vn -0.156435477 0.000000000 -0.987688180
vn -0.453989930 0.000000000 -0.891006815
vn -0.891006815 0.000000000 -0.453989930
vn -0.987688180 0.000000000 -0.156435477
vn -0.987688180 0.000000000 0.156435477
vn -0.891006815 0.000000000 0.453989930
vn -0.453989930 0.000000000 0.891006815
vn -0.156435477 0.000000000 0.987688180
vn -0.156434714 0.000000000 -0.987688301
vn -0.987688301 0.000000000 -0.156434714
vn -0.987688301 0.000000000 0.156434714
vn -0.156434714 0.000000000 0.987688301
vn 0.156434714 0.000000000 0.987688301
vn 0.987688301 0.000000000 0.156434714
vn 0.987688301 0.000000000 -0.156434714
vn 0.156434714 0.000000000 -0.987688301
vn -0.156434077 0.000000000 -0.987688402
vn -0.453990911 0.000000000 -0.891006315
vn -0.891006315 0.000000000 -0.453990911
vn -0.987688402 0.000000000 -0.156434077
vn -0.987688402 0.000000000 0.156434077
vn -0.891006315 0.000000000 0.453990911
vn -0.453990911 0.000000000 0.891006315
vn -0.156434077 0.000000000 0.987688402
vn 0.156434077 0.000000000 0.987688402
vn 0.453990911 0.000000000 0.891006315
vn 0.891006315 0.000000000 0.453990911
vn 0.987688402 0.000000000 0.156434077
vn 0.987688402 0.000000000 -0.156434077
vn 0.891006315 0.000000000 -0.453990911
vn 0.453990911 0.000000000 -0.891006315
vn 0.156434077 0.000000000 -0.987688402
vn -0.500001200 0.000000000 -0.866024711
vn -0.500001200 0.000000000 0.866024711
vn 0.500001200 0.000000000 0.866024711
vn 0.500001200 0.000000000 -0.866024711
vn -0.156434649 0.000000000 -0.987688311
vn -0.453990276 0.000000000 -0.891006638
vn -0.891006638 0.000000000 -0.453990276
vn -0.987688311 0.000000000 -0.156434649
vn -0.987688311 0.000000000 0.156434649
vn -0.891006638 0.000000000 0.453990276
vn -0.453990276 0.000000000 0.891006638
vn -0.156434649 0.000000000 0.987688311
vn 0.156434649 0.000000000 0.987688311
vn 0.453990276 0.000000000 0.891006638
vn 0.891006638 0.000000000 0.453990276
vn 0.987688311 0.000000000 0.156434649
vn 0.987688311 0.000000000 -0.156434649
vn 0.891006638 0.000000000 -0.453990276
vn 0.453990276 0.000000000 -0.891006638
vn 0.156434649 0.000000000 -0.987688311
vn 0.156434023 0.000000000 0.987688411
vn 0.453990514 0.000000000 0.891006517
vn 0.891006517 0.000000000 0.453990514
vn 0.987688411 0.000000000 0.156434023
vn 0.987688411 0.000000000 -0.156434023
vn 0.891006517 0.000000000 -0.453990514
vn 0.453990514 0.000000000 -0.891006517
vn 0.156434023 0.000000000 -0.987688411
vn -0.156434023 0.000000000 -0.987688411
vn -0.453990514 0.000000000 -0.891006517
vn -0.891006517 0.000000000 -0.453990514
vn -0.987688411 0.000000000 -0.156434023
vn -0.987688411 0.000000000 0.156434023
vn -0.891006517 0.000000000 0.453990514
vn -0.453990514 0.000000000 0.891006517
vn -0.156434023 0.000000000 0.987688411
usemtl mat_0
f 1/1/1 2/2/1 3/3/1
f 4/4/2 5/5/2 1/1/2
f 4/4/2 1/1/2 3/3/2
f 4/4/2 3/3/2 6/6/2
f 7/7/3 8/8/3 9/9/3 10/10/3
f 2/2/4 7/7/4 10/10/4 3/3/4
f 9/9/5 11/11/5 12/12/5
f 9/9/6 12/12/6 10/10/6
f 11/11/7 13/13/7 14/14/7
f 11/11/8 14/14/8 12/12/8
f 13/13/9 15/15/9 16/16/9
f 13/13/10 16/16/10 14/14/10
f 15/15/11 17/17/11 18/18/11
f 15/15/12 18/18/12 16/16/12
f 17/17/13 19/19/13 20/20/13 21/21/13
f 17/17/14 21/21/14 18/18/14
f 22/22/15 23/23/15 24/24/15 25/25/15
f 20/20/16 23/23/16 22/22/16
f 20/20/16 22/22/16 26/26/16
f 20/20/16 26/26/16 21/21/16
f 27/27/17 6/28/17 3/29/17 28/30/17
f 27/27/17 28/30/17 29/31/17
f 3/29/18 10/32/18 30/33/18
f 3/29/18 30/33/18 28/30/18
f 10/32/19 12/34/19 31/35/19
f 10/32/19 31/35/19 30/33/19
f 12/34/20 14/36/20 32/37/20
f 12/34/20 32/37/20 31/35/20
f 14/36/21 16/38/21 33/39/21
f 14/36/21 33/39/21 32/37/21
f 16/38/22 18/40/22 34/41/22
f 16/38/22 34/41/22 33/39/22
f 18/40/23 21/42/23 35/43/23
f 18/40/23 35/43/23 34/41/23
f 36/44/24 21/42/24 26/45/24
f 21/42/24 36/44/24 37/46/24 35/43/24
f 38/47/17 39/48/17 29/31/17
f 38/47/17 29/31/17 28/30/17
f 38/47/17 28/30/17 40/49/17
f 41/50/17 39/48/17 38/47/17
f 42/51/18 28/30/18 30/33/18 43/52/18
f 40/49/18 28/30/18 42/51/18
f 44/53/19 30/33/19 31/35/19 45/54/19
f 43/52/19 30/33/19 44/53/19
f 46/55/20 31/35/20 32/37/20 47/56/20
f 45/54/20 31/35/20 46/55/20
f 48/57/21 32/37/21 33/39/21 49/58/21
f 47/56/21 32/37/21 48/57/21
f 50/59/22 33/39/22 34/41/22 51/60/22
f 49/58/22 33/39/22 50/59/22
f 52/61/23 34/41/23 35/43/23 53/62/23
f 51/60/23 34/41/23 52/61/23
f 54/63/24 55/64/24 35/43/24 37/46/24
f 53/62/24 35/43/24 55/64/24
f 56/65/25 19/19/25 17/17/25
f 17/17/25 15/15/25 13/13/25
f 13/13/25 11/11/25 9/9/25
f 57/66/25 9/9/25 8/8/25
f 58/67/25 56/65/25 17/17/25 13/13/25
f 59/68/25 13/13/25 9/9/25 57/66/25
f 60/69/25 58/67/25 13/13/25
f 61/70/25 13/13/25 59/68/25
f 60/69/25 13/13/25 61/70/25
f 62/71/26 63/72/26 64/73/26 65/74/26
f 62/71/26 65/74/26 66/75/26
f 64/73/27 67/76/27 68/77/27
f 64/73/27 68/77/27 65/74/27
f 67/76/28 69/78/28 70/79/28
f 67/76/28 70/79/28 68/77/28
f 69/78/29 71/80/29 72/81/29
f 69/78/29 72/81/29 70/79/29
f 71/80/30 73/82/30 74/83/30
f 71/80/30 74/83/30 72/81/30
f 73/82/31 75/84/31 76/85/31
f 73/82/31 76/85/31 74/83/31
f 75/84/32 77/86/32 78/87/32
f 75/84/32 78/87/32 76/85/32
f 79/88/33 77/86/33 80/89/33
f 77/86/33 79/88/33 81/90/33 78/87/33
f 82/91/25 80/92/25 77/21/25 75/93/25
f 75/93/25 73/94/25 71/14/25
f 71/14/25 69/95/25 67/96/25
f 83/97/25 67/96/25 64/3/25 63/98/25
f 84/99/25 82/91/25 75/93/25 71/14/25
f 85/100/25 71/14/25 67/96/25 83/97/25
f 86/101/25 87/102/25 84/99/25 71/14/25
f 88/103/25 89/104/25 71/14/25 85/100/25
f 86/101/25 71/14/25 89/104/25
f 90/105/34 66/98/34 65/3/34
f 65/3/34 68/96/34 70/95/34
f 70/95/34 72/14/34 74/94/34
f 74/94/34 76/93/34 78/21/34
f 91/106/34 78/21/34 81/92/34
f 92/107/34 90/105/34 65/3/34 70/95/34
f 70/95/34 74/94/34 78/21/34
f 93/108/34 78/21/34 91/106/34
f 94/109/34 95/110/34 92/107/34 70/95/34
f 96/111/34 97/112/34 70/95/34
f 96/111/34 70/95/34 78/21/34
f 96/111/34 78/21/34 93/108/34
f 94/109/34 70/95/34 97/112/34
usemtl mat_1
f 98/113/35 99/114/35 100/115/35
f 98/113/35 100/115/35 101/116/35
f 99/117/36 102/118/36 103/119/36
f 99/117/36 103/119/36 100/120/36
f 102/114/37 104/113/37 105/116/37
f 102/114/37 105/116/37 103/115/37
f 104/113/38 106/121/38 107/122/38
f 104/113/38 107/122/38 105/116/38
f 106/118/39 108/117/39 109/120/39
f 106/118/39 109/120/39 107/119/39
f 108/121/40 98/113/40 101/116/40
f 108/121/40 101/116/40 109/122/40
f 98/123/34 108/117/34 106/118/34
f 106/118/34 104/124/34 102/119/34
f 102/119/34 99/120/34 98/123/34
f 106/118/34 102/119/34 98/123/34
f 109/117/25 101/123/25 100/120/25
f 100/120/25 103/119/25 105/124/25
f 105/124/25 107/118/25 109/117/25
f 100/120/25 105/124/25 109/117/25
f 110/113/35 111/114/35 112/115/35
f 110/113/35 112/115/35 113/116/35
f 111/117/36 114/118/36 115/119/36
f 111/117/36 115/119/36 112/120/36
f 114/114/37 116/113/37 117/116/37
f 114/114/37 117/116/37 115/115/37
f 116/113/38 118/121/38 119/122/38
f 116/113/38 119/122/38 117/116/38
f 118/118/39 120/117/39 121/120/39
f 118/118/39 121/120/39 119/119/39
f 120/121/40 110/113/40 113/116/40
f 120/121/40 113/116/40 121/122/40
f 110/123/34 120/117/34 118/118/34
f 118/118/34 116/124/34 114/119/34
f 114/119/34 111/120/34 110/123/34
f 118/118/34 114/119/34 110/123/34
f 121/117/25 113/123/25 112/120/25
f 112/120/25 115/119/25 117/124/25
f 117/124/25 119/118/25 121/117/25
f 112/120/25 117/124/25 121/117/25
f 122/113/35 123/114/35 124/115/35
f 122/113/35 124/115/35 125/116/35
f 123/117/36 126/118/36 127/119/36
f 123/117/36 127/119/36 124/120/36
f 126/114/37 128/113/37 129/116/37
f 126/114/37 129/116/37 127/115/37
f 128/113/38 130/121/38 131/122/38
f 128/113/38 131/122/38 129/116/38
f 130/118/39 132/117/39 133/120/39
f 130/118/39 133/120/39 131/119/39
f 132/121/40 122/113/40 125/116/40
f 132/121/40 125/116/40 133/122/40
f 122/123/34 132/117/34 130/118/34
f 130/118/34 128/124/34 126/119/34
f 126/119/34 123/120/34 122/123/34
f 130/118/34 126/119/34 122/123/34
f 133/117/25 125/123/25 124/120/25
f 124/120/25 127/119/25 129/124/25
f 129/124/25 131/118/25 133/117/25
f 124/120/25 129/124/25 133/117/25
f 134/113/35 135/114/35 136/115/35
f 134/113/35 136/115/35 137/116/35
f 135/117/36 138/118/36 139/119/36
f 135/117/36 139/119/36 136/120/36
f 138/114/37 140/113/37 141/116/37
f 138/114/37 141/116/37 139/115/37
f 140/113/38 142/121/38 143/122/38
f 140/113/38 143/122/38 141/116/38
f 142/118/39 144/117/39 145/120/39
f 142/118/39 145/120/39 143/119/39
f 144/121/40 134/113/40 137/116/40
f 144/121/40 137/116/40 145/122/40
f 134/123/34 144/117/34 142/118/34
f 142/118/34 140/124/34 138/119/34
f 138/119/34 135/120/34 134/123/34
f 142/118/34 138/119/34 134/123/34
f 145/117/25 137/123/25 136/120/25
f 136/120/25 139/119/25 141/124/25
f 141/124/25 143/118/25 145/117/25
f 136/120/25 141/124/25 145/117/25
usemtl mat_10
f 146/125/41 147/125/41 148/125/41
f 149/125/41 146/125/41 148/125/41 150/125/41
f 151/125/42 152/125/42 153/125/42
f 147/125/42 151/125/42 153/125/42 148/125/42
f 154/125/43 155/125/43 156/125/43
f 152/125/43 154/125/43 156/125/43 153/125/43
f 157/125/44 158/125/44 159/125/44
f 155/125/44 157/125/44 159/125/44 156/125/44
f 160/125/45 161/125/45 162/125/45
f 158/125/45 160/125/45 162/125/45 159/125/45
f 163/125/46 164/125/46 165/125/46
f 161/125/46 163/125/46 165/125/46 162/125/46
f 166/125/47 167/125/47 168/125/47
f 164/125/47 166/125/47 168/125/47 165/125/47
f 169/125/48 170/125/48 171/125/48
f 167/125/48 169/125/48 171/125/48 168/125/48
f 172/125/49 173/125/49 174/125/49
f 170/125/49 172/125/49 174/125/49 171/125/49
f 175/125/50 176/125/50 177/125/50
f 173/125/50 175/125/50 177/125/50 174/125/50
f 178/125/51 179/125/51 180/125/51
f 176/125/51 178/125/51 180/125/51 177/125/51
f 181/125/52 182/125/52 183/125/52
f 179/125/52 181/125/52 183/125/52 180/125/52
f 184/125/53 185/125/53 186/125/53
f 182/125/53 184/125/53 186/125/53 183/125/53
f 187/125/54 188/125/54 189/125/54
f 185/125/54 187/125/54 189/125/54 186/125/54
f 190/125/55 191/125/55 192/125/55
f 188/125/55 190/125/55 192/125/55 189/125/55
f 193/125/56 194/125/56 195/125/56
f 191/125/56 193/125/56 195/125/56 192/125/56
f 196/125/57 197/125/57 198/125/57
f 194/125/57 196/125/57 198/125/57 195/125/57
f 199/125/58 200/125/58 201/125/58
f 197/125/58 199/125/58 201/125/58 198/125/58
f 202/125/59 203/125/59 204/125/59
f 200/125/59 202/125/59 204/125/59 201/125/59
f 205/125/60 149/125/60 150/125/60
f 203/125/60 205/125/60 150/125/60 204/125/60
f 150/125/36 148/125/36 206/125/36
f 150/125/36 206/125/36 207/125/36
f 148/125/36 153/125/36 208/125/36
f 148/125/36 208/125/36 206/125/36
f 153/125/36 156/125/36 209/125/36
f 153/125/36 209/125/36 208/125/36
f 156/125/36 159/125/36 210/125/36
f 156/125/36 210/125/36 209/125/36
f 159/125/36 162/125/36 211/125/36
f 159/125/36 211/125/36 210/125/36
f 162/125/36 165/125/36 212/125/36
f 162/125/36 212/125/36 211/125/36
f 165/125/36 168/125/36 213/125/36
f 165/125/36 213/125/36 212/125/36
f 168/125/36 171/125/36 214/125/36
f 168/125/36 214/125/36 213/125/36
f 171/125/36 174/125/36 215/125/36
f 171/125/36 215/125/36 214/125/36
f 174/125/36 177/125/36 216/125/36
f 174/125/36 216/125/36 215/125/36
f 177/125/36 180/125/36 217/125/36
f 177/125/36 217/125/36 216/125/36
f 180/125/36 183/125/36 218/125/36
f 180/125/36 218/125/36 217/125/36
f 183/125/36 186/125/36 219/125/36
f 183/125/36 219/125/36 218/125/36
f 186/125/36 189/125/36 220/125/36
f 186/125/36 220/125/36 219/125/36
f 189/125/36 192/125/36 221/125/36
f 189/125/36 221/125/36 220/125/36
f 192/125/36 195/125/36 222/125/36
f 192/125/36 222/125/36 221/125/36
f 195/125/36 198/125/36 223/125/36
f 195/125/36 223/125/36 222/125/36
f 198/125/36 201/125/36 224/125/36
f 198/125/36 224/125/36 223/125/36
f 201/125/36 204/125/36 225/125/36
f 201/125/36 225/125/36 224/125/36
f 204/125/36 150/125/36 207/125/36
f 204/125/36 207/125/36 225/125/36
f 226/125/61 207/125/61 206/125/61 227/125/61
f 228/125/61 207/125/61 226/125/61
f 229/125/62 206/125/62 208/125/62 230/125/62
f 227/125/62 206/125/62 229/125/62
f 231/125/53 208/125/53 209/125/53 232/125/53
f 230/125/53 208/125/53 231/125/53
f 233/125/63 209/125/63 210/125/63 234/125/63
f 232/125/63 209/125/63 233/125/63
f 235/125/64 210/125/64 211/125/64 236/125/64
f 234/125/64 210/125/64 235/125/64
f 237/125/65 211/125/65 212/125/65 238/125/65
f 236/125/65 211/125/65 237/125/65
f 239/125/66 212/125/66 213/125/66 240/125/66
f 238/125/66 212/125/66 239/125/66
f 241/125/58 213/125/58 214/125/58 242/125/58
f 240/125/58 213/125/58 241/125/58
f 243/125/67 214/125/67 215/125/67 244/125/67
f 242/125/67 214/125/67 243/125/67
f 245/125/68 215/125/68 216/125/68 246/125/68
f 244/125/68 215/125/68 245/125/68
f 247/125/69 216/125/69 217/125/69 248/125/69
f 246/125/69 216/125/69 247/125/69
f 249/125/70 217/125/70 218/125/70 250/125/70
f 248/125/70 217/125/70 249/125/70
f 251/125/43 218/125/43 219/125/43 252/125/43
f 250/125/43 218/125/43 251/125/43
f 253/125/71 219/125/71 220/125/71 254/125/71
f 252/125/71 219/125/71 253/125/71
f 255/125/72 220/125/72 221/125/72 256/125/72
f 254/125/72 220/125/72 255/125/72
f 257/125/73 221/125/73 222/125/73 258/125/73
f 256/125/73 221/125/73 257/125/73
f 259/125/74 222/125/74 223/125/74 260/125/74
f 258/125/74 222/125/74 259/125/74
f 261/125/48 223/125/48 224/125/48 262/125/48
f 260/125/48 223/125/48 261/125/48
f 263/125/75 224/125/75 225/125/75 264/125/75
f 262/125/75 224/125/75 263/125/75
f 265/125/76 225/125/76 207/125/76 228/125/76
f 264/125/76 225/125/76 265/125/76
usemtl mat_11
f 266/125/77 267/125/77 268/125/77
f 266/125/77 268/125/77 269/125/77
f 267/125/70 270/125/70 271/125/70
f 267/125/70 271/125/70 268/125/70
f 270/125/43 272/125/43 273/125/43
f 270/125/43 273/125/43 271/125/43
f 272/125/71 274/125/71 275/125/71
f 272/125/71 275/125/71 273/125/71
f 274/125/78 276/125/78 277/125/78
f 274/125/78 277/125/78 275/125/78
f 276/125/79 278/125/79 279/125/79
f 276/125/79 279/125/79 277/125/79
f 278/125/74 280/125/74 281/125/74
f 278/125/74 281/125/74 279/125/74
f 280/125/48 282/125/48 283/125/48
f 280/125/48 283/125/48 281/125/48
f 282/125/75 284/125/75 285/125/75
f 282/125/75 285/125/75 283/125/75
f 284/125/80 286/125/80 287/125/80
f 284/125/80 287/125/80 285/125/80
f 286/125/81 288/125/81 289/125/81
f 286/125/81 289/125/81 287/125/81
f 288/125/62 290/125/62 291/125/62
f 288/125/62 291/125/62 289/125/62
f 290/125/53 292/125/53 293/125/53
f 290/125/53 293/125/53 291/125/53
f 292/125/63 294/125/63 295/125/63
f 292/125/63 295/125/63 293/125/63
f 294/125/82 296/125/82 297/125/82
f 294/125/82 297/125/82 295/125/82
f 296/125/83 298/125/83 299/125/83
f 296/125/83 299/125/83 297/125/83
f 298/125/66 300/125/66 301/125/66
f 298/125/66 301/125/66 299/125/66
f 300/125/58 302/125/58 303/125/58
f 300/125/58 303/125/58 301/125/58
f 302/125/67 304/125/67 305/125/67
f 302/125/67 305/125/67 303/125/67
f 304/125/84 266/125/84 269/125/84
f 304/125/84 269/125/84 305/125/84
f 269/125/36 268/125/36 306/125/36
f 269/125/36 306/125/36 307/125/36
f 268/125/36 271/125/36 308/125/36
f 268/125/36 308/125/36 306/125/36
f 271/125/36 273/125/36 309/125/36
f 271/125/36 309/125/36 308/125/36
f 273/125/36 275/125/36 310/125/36
f 273/125/36 310/125/36 309/125/36
f 275/125/36 277/125/36 311/125/36
f 275/125/36 311/125/36 310/125/36
f 277/125/36 279/125/36 312/125/36
f 277/125/36 312/125/36 311/125/36
f 279/125/36 281/125/36 313/125/36
f 279/125/36 313/125/36 312/125/36
f 281/125/36 283/125/36 314/125/36
f 281/125/36 314/125/36 313/125/36
f 283/125/36 285/125/36 315/125/36
f 283/125/36 315/125/36 314/125/36
f 285/125/36 287/125/36 316/125/36
f 285/125/36 316/125/36 315/125/36
f 287/125/36 289/125/36 317/125/36
f 287/125/36 317/125/36 316/125/36
f 289/125/36 291/125/36 318/125/36
f 289/125/36 318/125/36 317/125/36
f 291/125/36 293/125/36 319/125/36
f 291/125/36 319/125/36 318/125/36
f 293/125/36 295/125/36 320/125/36
f 293/125/36 320/125/36 319/125/36
f 295/125/36 297/125/36 321/125/36
f 295/125/36 321/125/36 320/125/36
f 297/125/36 299/125/36 322/125/36
f 297/125/36 322/125/36 321/125/36
f 299/125/36 301/125/36 323/125/36
f 299/125/36 323/125/36 322/125/36
f 301/125/36 303/125/36 324/125/36
f 301/125/36 324/125/36 323/125/36
f 303/125/36 305/125/36 325/125/36
f 303/125/36 325/125/36 324/125/36
f 305/125/36 269/125/36 307/125/36
f 305/125/36 307/125/36 325/125/36
f 307/125/61 306/125/61 326/125/61
f 307/125/61 326/125/61 327/125/61
f 306/125/62 308/125/62 328/125/62
f 306/125/62 328/125/62 326/125/62
f 308/125/53 309/125/53 329/125/53
f 308/125/53 329/125/53 328/125/53
f 309/125/63 310/125/63 330/125/63
f 309/125/63 330/125/63 329/125/63
f 310/125/64 311/125/64 331/125/64
f 310/125/64 331/125/64 330/125/64
f 311/125/65 312/125/65 332/125/65
f 311/125/65 332/125/65 331/125/65
f 312/125/66 313/125/66 333/125/66
f 312/125/66 333/125/66 332/125/66
f 313/125/58 314/125/58 334/125/58
f 313/125/58 334/125/58 333/125/58
f 314/125/67 315/125/67 335/125/67
f 314/125/67 335/125/67 334/125/67
f 315/125/68 316/125/68 336/125/68
f 315/125/68 336/125/68 335/125/68
f 316/125/69 317/125/69 337/125/69
f 316/125/69 337/125/69 336/125/69
f 317/125/70 318/125/70 338/125/70
f 317/125/70 338/125/70 337/125/70
f 318/125/43 319/125/43 339/125/43
f 318/125/43 339/125/43 338/125/43
f 319/125/71 320/125/71 340/125/71
f 319/125/71 340/125/71 339/125/71
f 320/125/72 321/125/72 341/125/72
f 320/125/72 341/125/72 340/125/72
f 321/125/73 322/125/73 342/125/73
f 321/125/73 342/125/73 341/125/73
f 322/125/74 323/125/74 343/125/74
f 322/125/74 343/125/74 342/125/74
f 323/125/48 324/125/48 344/125/48
f 323/125/48 344/125/48 343/125/48
f 324/125/75 325/125/75 345/125/75
f 324/125/75 345/125/75 344/125/75
f 325/125/76 307/125/76 327/125/76
f 325/125/76 327/125/76 345/125/76
f 327/125/39 326/125/39 267/125/39
f 327/125/39 267/125/39 266/125/39
f 326/125/39 328/125/39 270/125/39
f 326/125/39 270/125/39 267/125/39
f 328/125/39 329/125/39 272/125/39
f 328/125/39 272/125/39 270/125/39
f 329/125/39 330/125/39 274/125/39
f 329/125/39 274/125/39 272/125/39
f 330/125/39 331/125/39 276/125/39
f 330/125/39 276/125/39 274/125/39
f 331/125/39 332/125/39 278/125/39
f 331/125/39 278/125/39 276/125/39
f 332/125/39 333/125/39 280/125/39
f 332/125/39 280/125/39 278/125/39
f 333/125/39 334/125/39 282/125/39
f 333/125/39 282/125/39 280/125/39
f 334/125/39 335/125/39 284/125/39
f 334/125/39 284/125/39 282/125/39
f 335/125/39 336/125/39 286/125/39
f 335/125/39 286/125/39 284/125/39
f 336/125/39 337/125/39 288/125/39
f 336/125/39 288/125/39 286/125/39
f 337/125/39 338/125/39 290/125/39
f 337/125/39 290/125/39 288/125/39
f 338/125/39 339/125/39 292/125/39
f 338/125/39 292/125/39 290/125/39
f 339/125/39 340/125/39 294/125/39
f 339/125/39 294/125/39 292/125/39
f 340/125/39 341/125/39 296/125/39
f 340/125/39 296/125/39 294/125/39
f 341/125/39 342/125/39 298/125/39
f 341/125/39 298/125/39 296/125/39
f 342/125/39 343/125/39 300/125/39
f 342/125/39 300/125/39 298/125/39
f 343/125/39 344/125/39 302/125/39
f 343/125/39 302/125/39 300/125/39
f 344/125/39 345/125/39 304/125/39
f 344/125/39 304/125/39 302/125/39
f 345/125/39 327/125/39 266/125/39
f 345/125/39 266/125/39 304/125/39
usemtl mat_12
f 346/125/85 347/125/85 348/125/85
f 346/125/85 348/125/85 349/125/85
f 347/125/86 350/125/86 351/125/86
f 347/125/86 351/125/86 348/125/86
f 350/125/43 352/125/43 353/125/43
f 350/125/43 353/125/43 351/125/43
f 352/125/87 354/125/87 355/125/87
f 352/125/87 355/125/87 353/125/87
f 354/125/88 356/125/88 357/125/88
f 354/125/88 357/125/88 355/125/88
f 356/125/89 358/125/89 359/125/89
f 356/125/89 359/125/89 357/125/89
f 358/125/90 360/125/90 361/125/90
f 358/125/90 361/125/90 359/125/90
f 360/125/48 362/125/48 363/125/48
f 360/125/48 363/125/48 361/125/48
f 362/125/91 364/125/91 365/125/91
f 362/125/91 365/125/91 363/125/91
f 364/125/92 366/125/92 367/125/92
f 364/125/92 367/125/92 365/125/92
f 366/125/93 368/125/93 369/125/93
f 366/125/93 369/125/93 367/125/93
f 368/125/94 370/125/94 371/125/94
f 368/125/94 371/125/94 369/125/94
f 370/125/53 372/125/53 373/125/53
f 370/125/53 373/125/53 371/125/53
f 372/125/95 374/125/95 375/125/95
f 372/125/95 375/125/95 373/125/95
f 374/125/96 376/125/96 377/125/96
f 374/125/96 377/125/96 375/125/96
f 376/125/97 378/125/97 379/125/97
f 376/125/97 379/125/97 377/125/97
f 378/125/98 380/125/98 381/125/98
f 378/125/98 381/125/98 379/125/98
f 380/125/58 382/125/58 383/125/58
f 380/125/58 383/125/58 381/125/58
f 382/125/99 384/125/99 385/125/99
f 382/125/99 385/125/99 383/125/99
f 384/125/100 346/125/100 349/125/100
f 384/125/100 349/125/100 385/125/100
f 349/125/36 348/125/36 386/125/36
f 349/125/36 386/125/36 387/125/36
f 348/125/36 351/125/36 388/125/36
f 348/125/36 388/125/36 386/125/36
f 351/125/36 353/125/36 389/125/36
f 351/125/36 389/125/36 388/125/36
f 353/125/36 355/125/36 390/125/36
f 353/125/36 390/125/36 389/125/36
f 355/125/36 357/125/36 391/125/36
f 355/125/36 391/125/36 390/125/36
f 357/125/36 359/125/36 392/125/36
f 357/125/36 392/125/36 391/125/36
f 359/125/36 361/125/36 393/125/36
f 359/125/36 393/125/36 392/125/36
f 361/125/36 363/125/36 394/125/36
f 361/125/36 394/125/36 393/125/36
f 363/125/36 365/125/36 395/125/36
f 363/125/36 395/125/36 394/125/36
f 365/125/36 367/125/36 396/125/36
f 365/125/36 396/125/36 395/125/36
f 367/125/36 369/125/36 397/125/36
f 367/125/36 397/125/36 396/125/36
f 369/125/36 371/125/36 398/125/36
f 369/125/36 398/125/36 397/125/36
f 371/125/36 373/125/36 399/125/36
f 371/125/36 399/125/36 398/125/36
f 373/125/36 375/125/36 400/125/36
f 373/125/36 400/125/36 399/125/36
f 375/125/36 377/125/36 401/125/36
f 375/125/36 401/125/36 400/125/36
f 377/125/36 379/125/36 402/125/36
f 377/125/36 402/125/36 401/125/36
f 379/125/36 381/125/36 403/125/36
f 379/125/36 403/125/36 402/125/36
f 381/125/36 383/125/36 404/125/36
f 381/125/36 404/125/36 403/125/36
f 383/125/36 385/125/36 405/125/36
f 383/125/36 405/125/36 404/125/36
f 385/125/36 349/125/36 387/125/36
f 385/125/36 387/125/36 405/125/36
f 387/125/61 386/125/61 306/125/61
f 387/125/61 306/125/61 307/125/61
f 386/125/62 388/125/62 308/125/62
f 386/125/62 308/125/62 306/125/62
f 388/125/53 389/125/53 309/125/53
f 388/125/53 309/125/53 308/125/53
f 389/125/63 390/125/63 310/125/63
f 389/125/63 310/125/63 309/125/63
f 390/125/64 391/125/64 311/125/64
f 390/125/64 311/125/64 310/125/64
f 391/125/65 392/125/65 312/125/65
f 391/125/65 312/125/65 311/125/65
f 392/125/66 393/125/66 313/125/66
f 392/125/66 313/125/66 312/125/66
f 393/125/58 394/125/58 314/125/58
f 393/125/58 314/125/58 313/125/58
f 394/125/67 395/125/67 315/125/67
f 394/125/67 315/125/67 314/125/67
f 395/125/68 396/125/68 316/125/68
f 395/125/68 316/125/68 315/125/68
f 396/125/69 397/125/69 317/125/69
f 396/125/69 317/125/69 316/125/69
f 397/125/70 398/125/70 318/125/70
f 397/125/70 318/125/70 317/125/70
f 398/125/43 399/125/43 319/125/43
f 398/125/43 319/125/43 318/125/43
f 399/125/71 400/125/71 320/125/71
f 399/125/71 320/125/71 319/125/71
f 400/125/72 401/125/72 321/125/72
f 400/125/72 321/125/72 320/125/72
f 401/125/73 402/125/73 322/125/73
f 401/125/73 322/125/73 321/125/73
f 402/125/74 403/125/74 323/125/74
f 402/125/74 323/125/74 322/125/74
f 403/125/48 404/125/48 324/125/48
f 403/125/48 324/125/48 323/125/48
f 404/125/75 405/125/75 325/125/75
f 404/125/75 325/125/75 324/125/75
f 405/125/76 387/125/76 307/125/76
f 405/125/76 307/125/76 325/125/76
f 307/125/39 306/125/39 347/125/39
f 307/125/39 347/125/39 346/125/39
f 306/125/39 308/125/39 350/125/39
f 306/125/39 350/125/39 347/125/39
f 308/125/39 309/125/39 352/125/39
f 308/125/39 352/125/39 350/125/39
f 309/125/39 310/125/39 354/125/39
f 309/125/39 354/125/39 352/125/39
f 310/125/39 311/125/39 356/125/39
f 310/125/39 356/125/39 354/125/39
f 311/125/39 312/125/39 358/125/39
f 311/125/39 358/125/39 356/125/39
f 312/125/39 313/125/39 360/125/39
f 312/125/39 360/125/39 358/125/39
f 313/125/39 314/125/39 362/125/39
f 313/125/39 362/125/39 360/125/39
f 314/125/39 315/125/39 364/125/39
f 314/125/39 364/125/39 362/125/39
f 315/125/39 316/125/39 366/125/39
f 315/125/39 366/125/39 364/125/39
f 316/125/39 317/125/39 368/125/39
f 316/125/39 368/125/39 366/125/39
f 317/125/39 318/125/39 370/125/39
f 317/125/39 370/125/39 368/125/39
f 318/125/39 319/125/39 372/125/39
f 318/125/39 372/125/39 370/125/39
f 319/125/39 320/125/39 374/125/39
f 319/125/39 374/125/39 372/125/39
f 320/125/39 321/125/39 376/125/39
f 320/125/39 376/125/39 374/125/39
f 321/125/39 322/125/39 378/125/39
f 321/125/39 378/125/39 376/125/39
f 322/125/39 323/125/39 380/125/39
f 322/125/39 380/125/39 378/125/39
f 323/125/39 324/125/39 382/125/39
f 323/125/39 382/125/39 380/125/39
f 324/125/39 325/125/39 384/125/39
f 324/125/39 384/125/39 382/125/39
f 325/125/39 307/125/39 346/125/39
f 325/125/39 346/125/39 384/125/39
usemtl mat_11
f 406/125/39 407/125/39 408/125/39
f 408/125/39 409/125/39 410/125/39
f 410/125/39 411/125/39 406/125/39
f 408/125/39 410/125/39 406/125/39
f 412/125/36 413/125/36 414/125/36
f 414/125/36 415/125/36 416/125/36
f 416/125/36 417/125/36 412/125/36
f 414/125/36 416/125/36 412/125/36
f 406/125/101 411/125/101 414/125/101
f 406/125/101 414/125/101 413/125/101
f 411/125/25 410/125/25 415/125/25
f 411/125/25 415/125/25 414/125/25
f 410/125/102 409/125/102 416/125/102
f 410/125/102 416/125/102 415/125/102
f 409/125/103 408/125/103 417/125/103
f 409/125/103 417/125/103 416/125/103
f 408/125/34 407/125/34 412/125/34
f 408/125/34 412/125/34 417/125/34
f 407/125/104 406/125/104 413/125/104
f 407/125/104 413/125/104 412/125/104
f 418/125/39 419/125/39 420/125/39
f 420/125/39 421/125/39 422/125/39
f 422/125/39 423/125/39 418/125/39
f 420/125/39 422/125/39 418/125/39
f 424/125/36 425/125/36 426/125/36
f 426/125/36 427/125/36 428/125/36
f 428/125/36 429/125/36 424/125/36
f 426/125/36 428/125/36 424/125/36
f 418/125/101 423/125/101 426/125/101
f 418/125/101 426/125/101 425/125/101
f 423/125/25 422/125/25 427/125/25
f 423/125/25 427/125/25 426/125/25
f 422/125/102 421/125/102 428/125/102
f 422/125/102 428/125/102 427/125/102
f 421/125/103 420/125/103 429/125/103
f 421/125/103 429/125/103 428/125/103
f 420/125/34 419/125/34 424/125/34
f 420/125/34 424/125/34 429/125/34
f 419/125/104 418/125/104 425/125/104
f 419/125/104 425/125/104 424/125/104
f 430/125/39 431/125/39 432/125/39
f 432/125/39 433/125/39 434/125/39
f 434/125/39 435/125/39 430/125/39
f 432/125/39 434/125/39 430/125/39
f 436/125/36 437/125/36 438/125/36
f 438/125/36 439/125/36 440/125/36
f 440/125/36 441/125/36 436/125/36
f 438/125/36 440/125/36 436/125/36
f 430/125/101 435/125/101 438/125/101
f 430/125/101 438/125/101 437/125/101
f 435/125/25 434/125/25 439/125/25
f 435/125/25 439/125/25 438/125/25
f 434/125/102 433/125/102 440/125/102
f 434/125/102 440/125/102 439/125/102
f 433/125/103 432/125/103 441/125/103
f 433/125/103 441/125/103 440/125/103
f 432/125/34 431/125/34 436/125/34
f 432/125/34 436/125/34 441/125/34
f 431/125/104 430/125/104 437/125/104
f 431/125/104 437/125/104 436/125/104
f 442/125/39 443/125/39 444/125/39
f 444/125/39 445/125/39 446/125/39
f 446/125/39 447/125/39 442/125/39
f 444/125/39 446/125/39 442/125/39
f 448/125/36 449/125/36 450/125/36
f 450/125/36 451/125/36 452/125/36
f 452/125/36 453/125/36 448/125/36
f 450/125/36 452/125/36 448/125/36
f 442/125/101 447/125/101 450/125/101
f 442/125/101 450/125/101 449/125/101
f 447/125/25 446/125/25 451/125/25
f 447/125/25 451/125/25 450/125/25
f 446/125/102 445/125/102 452/125/102
f 446/125/102 452/125/102 451/125/102
f 445/125/103 444/125/103 453/125/103
f 445/125/103 453/125/103 452/125/103
f 444/125/34 443/125/34 448/125/34
f 444/125/34 448/125/34 453/125/34
f 443/125/104 442/125/104 449/125/104
f 443/125/104 449/125/104 448/125/104
f 454/125/39 455/125/39 456/125/39
f 456/125/39 457/125/39 458/125/39
f 458/125/39 459/125/39 454/125/39
f 456/125/39 458/125/39 454/125/39
f 460/125/36 461/125/36 462/125/36
f 462/125/36 463/125/36 464/125/36
f 464/125/36 465/125/36 460/125/36
f 462/125/36 464/125/36 460/125/36
f 454/125/101 459/125/101 462/125/101
f 454/125/101 462/125/101 461/125/101
f 459/125/25 458/125/25 463/125/25
f 459/125/25 463/125/25 462/125/25
f 458/125/102 457/125/102 464/125/102
f 458/125/102 464/125/102 463/125/102
f 457/125/103 456/125/103 465/125/103
f 457/125/103 465/125/103 464/125/103
f 456/125/34 455/125/34 460/125/34
f 456/125/34 460/125/34 465/125/34
f 455/125/104 454/125/104 461/125/104
f 455/125/104 461/125/104 460/125/104
f 466/125/39 467/125/39 468/125/39
f 468/125/39 469/125/39 470/125/39
f 470/125/39 471/125/39 466/125/39
f 468/125/39 470/125/39 466/125/39
f 472/125/36 473/125/36 474/125/36
f 474/125/36 475/125/36 476/125/36
f 476/125/36 477/125/36 472/125/36
f 474/125/36 476/125/36 472/125/36
f 466/125/101 471/125/101 474/125/101
f 466/125/101 474/125/101 473/125/101
f 471/125/25 470/125/25 475/125/25
f 471/125/25 475/125/25 474/125/25
f 470/125/102 469/125/102 476/125/102
f 470/125/102 476/125/102 475/125/102
f 469/125/103 468/125/103 477/125/103
f 469/125/103 477/125/103 476/125/103
f 468/125/34 467/125/34 472/125/34
f 468/125/34 472/125/34 477/125/34
f 467/125/104 466/125/104 473/125/104
f 467/125/104 473/125/104 472/125/104
f 478/125/39 479/125/39 480/125/39
f 480/125/39 481/125/39 482/125/39
f 482/125/39 483/125/39 478/125/39
f 480/125/39 482/125/39 478/125/39
f 484/125/36 485/125/36 486/125/36
f 486/125/36 487/125/36 488/125/36
f 488/125/36 489/125/36 484/125/36
f 486/125/36 488/125/36 484/125/36
f 478/125/101 483/125/101 486/125/101
f 478/125/101 486/125/101 485/125/101
f 483/125/25 482/125/25 487/125/25
f 483/125/25 487/125/25 486/125/25
f 482/125/102 481/125/102 488/125/102
f 482/125/102 488/125/102 487/125/102
f 481/125/103 480/125/103 489/125/103
f 481/125/103 489/125/103 488/125/103
f 480/125/34 479/125/34 484/125/34
f 480/125/34 484/125/34 489/125/34
f 479/125/104 478/125/104 485/125/104
f 479/125/104 485/125/104 484/125/104
f 490/125/39 491/125/39 492/125/39
f 492/125/39 493/125/39 494/125/39
f 494/125/39 495/125/39 490/125/39
f 492/125/39 494/125/39 490/125/39
f 496/125/36 497/125/36 498/125/36
f 498/125/36 499/125/36 500/125/36
f 500/125/36 501/125/36 496/125/36
f 498/125/36 500/125/36 496/125/36
f 490/125/101 495/125/101 498/125/101
f 490/125/101 498/125/101 497/125/101
f 495/125/25 494/125/25 499/125/25
f 495/125/25 499/125/25 498/125/25
f 494/125/102 493/125/102 500/125/102
f 494/125/102 500/125/102 499/125/102
f 493/125/103 492/125/103 501/125/103
f 493/125/103 501/125/103 500/125/103
f 492/125/34 491/125/34 496/125/34
f 492/125/34 496/125/34 501/125/34
f 491/125/104 490/125/104 497/125/104
f 491/125/104 497/125/104 496/125/104
usemtl mat_13
f 502/125/105 503/125/105 504/125/105
f 502/125/105 504/125/105 505/125/105
f 503/125/106 506/125/106 507/125/106
f 503/125/106 507/125/106 504/125/106
f 506/125/43 508/125/43 509/125/43
f 506/125/43 509/125/43 507/125/43
f 508/125/107 510/125/107 511/125/107
f 508/125/107 511/125/107 509/125/107
f 510/125/108 512/125/108 513/125/108
f 510/125/108 513/125/108 511/125/108
f 512/125/109 514/125/109 515/125/109
f 512/125/109 515/125/109 513/125/109
f 514/125/110 516/125/110 517/125/110
f 514/125/110 517/125/110 515/125/110
f 516/125/48 518/125/48 519/125/48
f 516/125/48 519/125/48 517/125/48
f 518/125/111 520/125/111 521/125/111
f 518/125/111 521/125/111 519/125/111
f 520/125/112 522/125/112 523/125/112
f 520/125/112 523/125/112 521/125/112
f 522/125/113 524/125/113 525/125/113
f 522/125/113 525/125/113 523/125/113
f 524/125/114 526/125/114 527/125/114
f 524/125/114 527/125/114 525/125/114
f 526/125/53 528/125/53 529/125/53
f 526/125/53 529/125/53 527/125/53
f 528/125/115 530/125/115 531/125/115
f 528/125/115 531/125/115 529/125/115
f 530/125/116 532/125/116 533/125/116
f 530/125/116 533/125/116 531/125/116
f 532/125/117 534/125/117 535/125/117
f 532/125/117 535/125/117 533/125/117
f 534/125/118 536/125/118 537/125/118
f 534/125/118 537/125/118 535/125/118
f 536/125/58 538/125/58 539/125/58
f 536/125/58 539/125/58 537/125/58
f 538/125/119 540/125/119 541/125/119
f 538/125/119 541/125/119 539/125/119
f 540/125/120 502/125/120 505/125/120
f 540/125/120 505/125/120 541/125/120
f 505/125/36 504/125/36 542/125/36
f 505/125/36 542/125/36 543/125/36
f 504/125/36 507/125/36 544/125/36
f 504/125/36 544/125/36 542/125/36
f 507/125/36 509/125/36 545/125/36
f 507/125/36 545/125/36 544/125/36
f 509/125/36 511/125/36 546/125/36
f 509/125/36 546/125/36 545/125/36
f 511/125/36 513/125/36 547/125/36
f 511/125/36 547/125/36 546/125/36
f 513/125/36 515/125/36 548/125/36
f 513/125/36 548/125/36 547/125/36
f 515/125/36 517/125/36 549/125/36
f 515/125/36 549/125/36 548/125/36
f 517/125/36 519/125/36 550/125/36
f 517/125/36 550/125/36 549/125/36
f 519/125/36 521/125/36 551/125/36
f 519/125/36 551/125/36 550/125/36
f 521/125/36 523/125/36 552/125/36
f 521/125/36 552/125/36 551/125/36
f 523/125/36 525/125/36 553/125/36
f 523/125/36 553/125/36 552/125/36
f 525/125/36 527/125/36 554/125/36
f 525/125/36 554/125/36 553/125/36
f 527/125/36 529/125/36 555/125/36
f 527/125/36 555/125/36 554/125/36
f 529/125/36 531/125/36 556/125/36
f 529/125/36 556/125/36 555/125/36
f 531/125/36 533/125/36 557/125/36
f 531/125/36 557/125/36 556/125/36
f 533/125/36 535/125/36 558/125/36
f 533/125/36 558/125/36 557/125/36
f 535/125/36 537/125/36 559/125/36
f 535/125/36 559/125/36 558/125/36
f 537/125/36 539/125/36 560/125/36
f 537/125/36 560/125/36 559/125/36
f 539/125/36 541/125/36 561/125/36
f 539/125/36 561/125/36 560/125/36
f 541/125/36 505/125/36 543/125/36
f 541/125/36 543/125/36 561/125/36
f 543/125/121 542/125/121 562/125/121
f 543/125/121 562/125/121 563/125/121
f 542/125/122 544/125/122 564/125/122
f 542/125/122 564/125/122 562/125/122
f 544/125/53 545/125/53 565/125/53
f 544/125/53 565/125/53 564/125/53
f 545/125/123 546/125/123 566/125/123
f 545/125/123 566/125/123 565/125/123
f 546/125/124 547/125/124 567/125/124
f 546/125/124 567/125/124 566/125/124
f 547/125/125 548/125/125 568/125/125
f 547/125/125 568/125/125 567/125/125
f 548/125/126 549/125/126 569/125/126
f 548/125/126 569/125/126 568/125/126
f 549/125/58 550/125/58 570/125/58
f 549/125/58 570/125/58 569/125/58
f 550/125/127 551/125/127 571/125/127
f 550/125/127 571/125/127 570/125/127
f 551/125/128 552/125/128 572/125/128
f 551/125/128 572/125/128 571/125/128
f 552/125/129 553/125/129 573/125/129
f 552/125/129 573/125/129 572/125/129
f 553/125/130 554/125/130 574/125/130
f 553/125/130 574/125/130 573/125/130
f 554/125/43 555/125/43 575/125/43
f 554/125/43 575/125/43 574/125/43
f 555/125/131 556/125/131 576/125/131
f 555/125/131 576/125/131 575/125/131
f 556/125/132 557/125/132 577/125/132
f 556/125/132 577/125/132 576/125/132
f 557/125/133 558/125/133 578/125/133
f 557/125/133 578/125/133 577/125/133
f 558/125/134 559/125/134 579/125/134
f 558/125/134 579/125/134 578/125/134
f 559/125/48 560/125/48 580/125/48
f 559/125/48 580/125/48 579/125/48
f 560/125/135 561/125/135 581/125/135
f 560/125/135 581/125/135 580/125/135
f 561/125/136 543/125/136 563/125/136
f 561/125/136 563/125/136 581/125/136
f 563/125/39 562/125/39 503/125/39
f 563/125/39 503/125/39 502/125/39
f 562/125/39 564/125/39 506/125/39
f 562/125/39 506/125/39 503/125/39
f 564/125/39 565/125/39 508/125/39
f 564/125/39 508/125/39 506/125/39
f 565/125/39 566/125/39 510/125/39
f 565/125/39 510/125/39 508/125/39
f 566/125/39 567/125/39 512/125/39
f 566/125/39 512/125/39 510/125/39
f 567/125/39 568/125/39 514/125/39
f 567/125/39 514/125/39 512/125/39
f 568/125/39 569/125/39 516/125/39
f 568/125/39 516/125/39 514/125/39
f 569/125/39 570/125/39 518/125/39
f 569/125/39 518/125/39 516/125/39
f 570/125/39 571/125/39 520/125/39
f 570/125/39 520/125/39 518/125/39
f 571/125/39 572/125/39 522/125/39
f 571/125/39 522/125/39 520/125/39
f 572/125/39 573/125/39 524/125/39
f 572/125/39 524/125/39 522/125/39
f 573/125/39 574/125/39 526/125/39
f 573/125/39 526/125/39 524/125/39
f 574/125/39 575/125/39 528/125/39
f 574/125/39 528/125/39 526/125/39
f 575/125/39 576/125/39 530/125/39
f 575/125/39 530/125/39 528/125/39
f 576/125/39 577/125/39 532/125/39
f 576/125/39 532/125/39 530/125/39
f 577/125/39 578/125/39 534/125/39
f 577/125/39 534/125/39 532/125/39
f 578/125/39 579/125/39 536/125/39
f 578/125/39 536/125/39 534/125/39
f 579/125/39 580/125/39 538/125/39
f 579/125/39 538/125/39 536/125/39
f 580/125/39 581/125/39 540/125/39
f 580/125/39 540/125/39 538/125/39
f 581/125/39 563/125/39 502/125/39
f 581/125/39 502/125/39 540/125/39
